//Event file generated from Sappy .s format.
	#include "MPlayDef.event"

	#define	PokemonBWVsGhetsisPurpleMage_grp  voicegroup000
	#define	PokemonBWVsGhetsisPurpleMage_pri  0
	#define	PokemonBWVsGhetsisPurpleMage_rev  0
	#define	PokemonBWVsGhetsisPurpleMage_mvl  127
	#define	PokemonBWVsGhetsisPurpleMage_key  0
	#define	PokemonBWVsGhetsisPurpleMage_tbs  1
	#define	PokemonBWVsGhetsisPurpleMage_exg  0
	#define	PokemonBWVsGhetsisPurpleMage_cmp  1

	// .rodata
	//	PokemonBWVsGhetsisPurpleMage
	ALIGN 4


//**************** Track 1 (Midi-Chn.0) ****************//

PokemonBWVsGhetsisPurpleMage_001:
// 000   ----------------------------------------
 BYTE   KEYSH   PokemonBWVsGhetsisPurpleMage_key+0
 BYTE   TEMPO   190*PokemonBWVsGhetsisPurpleMage_tbs/2
 BYTE   VOICE   118
 BYTE   VOL   71*PokemonBWVsGhetsisPurpleMage_mvl/mxv
 BYTE   PAN   c_v+2
 BYTE   VOL   59*PokemonBWVsGhetsisPurpleMage_mvl/mxv
 BYTE   PAN   c_v-28
 BYTE   N68  Gn1  v127
 BYTE   N68  Gn2  v096
 BYTE   W72
 BYTE   N02  Cs1  v127
 BYTE   N02  Cs2  v088
 BYTE   W06
 BYTE   Gn1  v112
 BYTE   N02  Gn2  v072
 BYTE   W06
 BYTE   Fn1  v124
 BYTE   N02  Fn2  v084
 BYTE   W06
 BYTE   Cs1  v112
 BYTE   N02  Cs2  v072
 BYTE   W06
// 001   ----------------------------------------
 BYTE   N92  Cs1  v112
 BYTE   N92  Gn1
 BYTE   N92  Cs2  v127
 BYTE   W96
// 002   ----------------------------------------
 BYTE   W96
// 003   ----------------------------------------
 BYTE   N68  Cs1
 BYTE   N05  Gn1  v112
 BYTE   N05  Cs2  v127
 BYTE   W06
 BYTE   N44  Cs2  v088
 BYTE   W18
 BYTE   N23  Gn0  v084
 BYTE   W24
 BYTE   N68  Gn1  v112
 BYTE   W06
 BYTE   N44  Gn2  v072
 BYTE   W42
// 004   ----------------------------------------
 BYTE   N68  Cs1  v127
 BYTE   W06
 BYTE   N44  Cs2  v088
 BYTE   W18
 BYTE   N23  Gn0
 BYTE   W24
 BYTE   N68  Gn1  v112
 BYTE   W06
 BYTE   N44  Gn2  v072
 BYTE   W42
// 005   ----------------------------------------
 BYTE   N68  Cs1  v127
 BYTE   W06
 BYTE   N44  Cs2  v088
 BYTE   W18
 BYTE   N23  Gn0  v084
 BYTE   W24
 BYTE   N68  Gn1  v112
 BYTE   W06
 BYTE   N44  Gn2  v072
 BYTE   W42
// 006   ----------------------------------------
 BYTE   N23  Cs1  v127
 BYTE   W06
 BYTE   Cs2  v088
 BYTE   W18
 BYTE   Gn0
 BYTE   N23  Gn1  v112
 BYTE   W06
 BYTE   Gn2  v072
 BYTE   W18
 BYTE   N68  Cs1  v112
 BYTE   W06
 BYTE   N44  Cs2  v072
 BYTE   W42
// 007   ----------------------------------------
 BYTE   N68  Gn1  v112
 BYTE   W06
 BYTE   N44  Gn2  v096
 BYTE   W42
 BYTE   N68  Cs1  v112
 BYTE   W06
 BYTE   N44  Cs2  v092
 BYTE   W42
// 008   ----------------------------------------
 BYTE   N68  Gn1  v112
 BYTE   W06
 BYTE   N44  Gn2  v096
 BYTE   W42
 BYTE   N68  Cs1  v112
 BYTE   W06
 BYTE   N44  Cs2  v100
 BYTE   W42
// 009   ----------------------------------------
 BYTE   N68  Gn1  v124
 BYTE   W06
 BYTE   N44  Gn2  v104
 BYTE   W42
 BYTE   N23  Cs1  v127
 BYTE   W06
 BYTE   Cs2  v108
 BYTE   W18
 BYTE   N44  Gn1  v127
 BYTE   W06
 BYTE   N23  Gn2  v116
 BYTE   W18
// 010   ----------------------------------------
 BYTE   N68  Cs1  v127
 BYTE   W06
 BYTE   N44  Cs2
 BYTE   W42
 BYTE   N23  Gn1
 BYTE   W06
 BYTE   Gn2  v092
 BYTE   W18
 BYTE   Gn1  v127
 BYTE   W06
 BYTE   N08  Gn2  v088
 BYTE   W18
// 011   ----------------------------------------
Label_0_546F26:
 BYTE   N11  Cs1  v127
 BYTE   W12
 BYTE   Gn0  v112
 BYTE   W12
 BYTE   N11
 BYTE   W12
 BYTE   Cs1
 BYTE   W12
 BYTE   Gn0
 BYTE   W12
 BYTE   N11
 BYTE   W12
 BYTE   Cs1
 BYTE   W12
 BYTE   N05  Gn0
 BYTE   W06
 BYTE   N05
 BYTE   W06
// 012   ----------------------------------------
 BYTE   N11  Gn0  v127
 BYTE   W12
 BYTE   Cs1  v112
 BYTE   W12
 BYTE   Gn0
 BYTE   W12
 BYTE   N11
 BYTE   W12
 BYTE   Cs1
 BYTE   W12
 BYTE   Gn0
 BYTE   W12
 BYTE   N11
 BYTE   W12
 BYTE   N05  Cs1
 BYTE   W06
 BYTE   N05
 BYTE   W06
// 013   ----------------------------------------
 BYTE   N11  Gn0  v127
 BYTE   W12
 BYTE   Cs1  v112
 BYTE   W12
 BYTE   N11
 BYTE   W12
 BYTE   N11
 BYTE   W12
 BYTE   Gn0
 BYTE   W12
 BYTE   Cs1
 BYTE   W12
 BYTE   Gn0
 BYTE   W12
 BYTE   N11
 BYTE   W12
// 014   ----------------------------------------
 BYTE   Cs1  v127
 BYTE   W12
 BYTE   Gn0  v112
 BYTE   W12
 BYTE   N11
 BYTE   W12
 BYTE   Cs1
 BYTE   W12
 BYTE   N11
 BYTE   W12
 BYTE   Gn0
 BYTE   W12
 BYTE   N11
 BYTE   W12
 BYTE   N05  Cs1
 BYTE   W06
 BYTE   N05
 BYTE   W06
// 015   ----------------------------------------
 BYTE   N11  Gn0  v124
 BYTE   W12
 BYTE   Cs1  v112
 BYTE   W12
 BYTE   N11
 BYTE   W12
 BYTE   N11
 BYTE   W12
 BYTE   Gn0
 BYTE   W12
 BYTE   N11
 BYTE   W12
 BYTE   Cs1
 BYTE   W12
 BYTE   N05
 BYTE   W06
 BYTE   N05
 BYTE   W06
// 016   ----------------------------------------
Label_0_546F8F:
 BYTE   N11  Gn0  v112
 BYTE   W12
 BYTE   Cs1
 BYTE   W12
 BYTE   Gn0
 BYTE   W12
 BYTE   N11
 BYTE   W12
 BYTE   N11
 BYTE   W12
 BYTE   Cs1
 BYTE   W12
 BYTE   N11
 BYTE   W12
 BYTE   N05  Gn0
 BYTE   W06
 BYTE   N05
 BYTE   W06
 BYTE   PEND 
// 017   ----------------------------------------
Label_0_546FA5:
 BYTE   N11  Gn0  v112
 BYTE   W12
 BYTE   Cs1
 BYTE   W12
 BYTE   N11
 BYTE   W12
 BYTE   Gn0
 BYTE   W12
 BYTE   N11
 BYTE   W12
 BYTE   Cs1
 BYTE   W12
 BYTE   Gn0
 BYTE   W12
 BYTE   N05  Cs1
 BYTE   W06
 BYTE   N05
 BYTE   W06
 BYTE   PEND 
// 018   ----------------------------------------
Label_0_546FBB:
 BYTE   N11  Cs1  v112
 BYTE   W12
 BYTE   Gn0
 BYTE   W12
 BYTE   N11
 BYTE   W12
 BYTE   N11
 BYTE   W12
 BYTE   Cs1
 BYTE   W12
 BYTE   Gn0
 BYTE   W12
 BYTE   N11
 BYTE   W12
 BYTE   N05
 BYTE   W06
 BYTE   N05
 BYTE   W06
 BYTE   PEND 
// 019   ----------------------------------------
Label_0_546FD0:
 BYTE   N11  Gn0  v112
 BYTE   W12
 BYTE   Cs1
 BYTE   W12
 BYTE   N11
 BYTE   W12
 BYTE   N11
 BYTE   W12
 BYTE   Gn0
 BYTE   W12
 BYTE   N11
 BYTE   W12
 BYTE   Cs1
 BYTE   W12
 BYTE   N05
 BYTE   W06
 BYTE   N05
 BYTE   W06
 BYTE   PEND 
// 020   ----------------------------------------
 BYTE   PATT
  POIN2 Label_0_546F8F
// 021   ----------------------------------------
 BYTE   N11  Gn0  v127
 BYTE   W12
 BYTE   Cs1  v112
 BYTE   W12
 BYTE   N11
 BYTE   W12
 BYTE   Gn0
 BYTE   W12
 BYTE   N11
 BYTE   W12
 BYTE   Cs1
 BYTE   W12
 BYTE   Gn0
 BYTE   W12
 BYTE   N05  Cs1
 BYTE   W06
 BYTE   N05
 BYTE   W06
// 022   ----------------------------------------
 BYTE   N11  Cs1  v127
 BYTE   W12
 BYTE   Gn0  v112
 BYTE   W12
 BYTE   N11
 BYTE   W12
 BYTE   N11
 BYTE   W12
 BYTE   Cs1
 BYTE   W12
 BYTE   Gn0
 BYTE   W12
 BYTE   N11
 BYTE   W12
 BYTE   N05
 BYTE   W06
 BYTE   N05
 BYTE   W06
// 023   ----------------------------------------
 BYTE   N11  Gn0  v127
 BYTE   W12
 BYTE   Cs1  v112
 BYTE   W12
 BYTE   N11
 BYTE   W12
 BYTE   N11
 BYTE   W12
 BYTE   Gn0
 BYTE   W12
 BYTE   N11
 BYTE   W12
 BYTE   Cs1
 BYTE   W12
 BYTE   N05
 BYTE   W06
 BYTE   N05
 BYTE   W06
// 024   ----------------------------------------
 BYTE   N11  Gn0  v127
 BYTE   W12
 BYTE   Cs1  v112
 BYTE   W12
 BYTE   Gn0
 BYTE   W12
 BYTE   N11
 BYTE   W12
 BYTE   N11
 BYTE   W12
 BYTE   Cs1
 BYTE   W12
 BYTE   N11
 BYTE   W12
 BYTE   N05  Gn0
 BYTE   W06
 BYTE   N05
 BYTE   W06
// 025   ----------------------------------------
 BYTE   PATT
  POIN2 Label_0_546FA5
// 026   ----------------------------------------
 BYTE   PATT
  POIN2 Label_0_546FBB
// 027   ----------------------------------------
 BYTE   PATT
  POIN2 Label_0_546FD0
// 028   ----------------------------------------
 BYTE   PATT
  POIN2 Label_0_546F8F
// 029   ----------------------------------------
 BYTE   PATT
  POIN2 Label_0_546FA5
// 030   ----------------------------------------
 BYTE   PATT
  POIN2 Label_0_546FBB
// 031   ----------------------------------------
 BYTE   PATT
  POIN2 Label_0_546FD0
// 032   ----------------------------------------
 BYTE   PATT
  POIN2 Label_0_546F8F
// 033   ----------------------------------------
 BYTE   PATT
  POIN2 Label_0_546FA5
// 034   ----------------------------------------
 BYTE   PATT
  POIN2 Label_0_546FBB
// 035   ----------------------------------------
 BYTE   N44  Cs2  v112
 BYTE   W48
 BYTE   Cs2  v124
 BYTE   W48
// 036   ----------------------------------------
 BYTE   Cs2  v112
 BYTE   W48
 BYTE   Cs2  v127
 BYTE   W48
// 037   ----------------------------------------
Label_0_54707F:
 BYTE   N23  Cs2  v112
 BYTE   W24
 BYTE   N23
 BYTE   W24
 BYTE   N23
 BYTE   W24
 BYTE   TIE  Gn1
 BYTE   W24
 BYTE   PEND 
// 038   ----------------------------------------
 BYTE   W92
 BYTE   W03
 BYTE   EOT
 BYTE   W01
// 039   ----------------------------------------
Label_0_54708F:
 BYTE   N44  Cs2  v112
 BYTE   W48
 BYTE   N44
 BYTE   W48
 BYTE   PEND 
// 040   ----------------------------------------
 BYTE   PATT
  POIN2 Label_0_54708F
// 041   ----------------------------------------
 BYTE   PATT
  POIN2 Label_0_54707F
// 042   ----------------------------------------
 BYTE   W92
 BYTE   W03
 BYTE   EOT
 BYTE   Gn1
 BYTE   W01
// 043   ----------------------------------------
 BYTE   PATT
  POIN2 Label_0_546FD0
// 044   ----------------------------------------
 BYTE   PATT
  POIN2 Label_0_546F8F
// 045   ----------------------------------------
 BYTE   PATT
  POIN2 Label_0_546FA5
// 046   ----------------------------------------
 BYTE   PATT
  POIN2 Label_0_546FBB
// 047   ----------------------------------------
 BYTE   PATT
  POIN2 Label_0_546FD0
// 048   ----------------------------------------
 BYTE   PATT
  POIN2 Label_0_546F8F
// 049   ----------------------------------------
 BYTE   PATT
  POIN2 Label_0_546FA5
// 050   ----------------------------------------
 BYTE   PATT
  POIN2 Label_0_546FBB
// 051   ----------------------------------------
 BYTE   PATT
  POIN2 Label_0_546FD0
// 052   ----------------------------------------
 BYTE   PATT
  POIN2 Label_0_546F8F
// 053   ----------------------------------------
 BYTE   PATT
  POIN2 Label_0_546FA5
// 054   ----------------------------------------
 BYTE   N92  Cs1  v112
 BYTE   W96
// 055   ----------------------------------------
 BYTE   N92
 BYTE   W96
// 056   ----------------------------------------
 BYTE   N92
 BYTE   W96
// 057   ----------------------------------------
 BYTE   Gn0
 BYTE   W96
// 058   ----------------------------------------
 BYTE   N92
 BYTE   W96
// 059   ----------------------------------------
 BYTE   PATT
  POIN2 Label_0_546F8F
// 060   ----------------------------------------
 BYTE   PATT
  POIN2 Label_0_546F8F
// 061   ----------------------------------------
 BYTE   PATT
  POIN2 Label_0_546F8F
// 062   ----------------------------------------
 BYTE   PATT
  POIN2 Label_0_546F8F
// 063   ----------------------------------------
Label_0_5470FC:
 BYTE   N11  Gn1  v112
 BYTE   W12
 BYTE   Cs2
 BYTE   W12
 BYTE   N11
 BYTE   W12
 BYTE   N11
 BYTE   W12
 BYTE   Gn1
 BYTE   W12
 BYTE   N11
 BYTE   W12
 BYTE   Cs2
 BYTE   W12
 BYTE   N05
 BYTE   W06
 BYTE   N05
 BYTE   W06
 BYTE   PEND 
// 064   ----------------------------------------
Label_0_547111:
 BYTE   N11  Gn1  v112
 BYTE   W12
 BYTE   Cs2
 BYTE   W12
 BYTE   Gn1
 BYTE   W12
 BYTE   N11
 BYTE   W12
 BYTE   N11
 BYTE   W12
 BYTE   Cs2
 BYTE   W12
 BYTE   N11
 BYTE   W12
 BYTE   N05  Gn1
 BYTE   W06
 BYTE   N05
 BYTE   W06
 BYTE   PEND 
// 065   ----------------------------------------
Label_0_547127:
 BYTE   N11  Gn1  v112
 BYTE   W12
 BYTE   Cs2
 BYTE   W12
 BYTE   N11
 BYTE   W12
 BYTE   Gn1
 BYTE   W12
 BYTE   N11
 BYTE   W12
 BYTE   Cs2
 BYTE   W12
 BYTE   Gn1
 BYTE   W12
 BYTE   N05  Cs2
 BYTE   W06
 BYTE   N05
 BYTE   W06
 BYTE   PEND 
// 066   ----------------------------------------
Label_0_54713D:
 BYTE   N11  Cs2  v112
 BYTE   W12
 BYTE   Gn1
 BYTE   W12
 BYTE   N11
 BYTE   W12
 BYTE   N11
 BYTE   W12
 BYTE   Cs2
 BYTE   W12
 BYTE   Gn1
 BYTE   W12
 BYTE   N11
 BYTE   W12
 BYTE   N05
 BYTE   W06
 BYTE   N05
 BYTE   W06
 BYTE   PEND 
// 067   ----------------------------------------
 BYTE   PATT
  POIN2 Label_0_5470FC
// 068   ----------------------------------------
 BYTE   PATT
  POIN2 Label_0_547111
// 069   ----------------------------------------
 BYTE   PATT
  POIN2 Label_0_547127
// 070   ----------------------------------------
 BYTE   PATT
  POIN2 Label_0_54713D
// 071   ----------------------------------------
 BYTE   N92  Gn1  v112
 BYTE   W96
// 072   ----------------------------------------
 BYTE   W96
// 073   ----------------------------------------
 BYTE   W96
// 074   ----------------------------------------
 BYTE   W96
// 075   ----------------------------------------
 BYTE   W96
// 076   ----------------------------------------
 BYTE   W96
// 077   ----------------------------------------
 BYTE   N80  Ds2  v096
 BYTE   N80  An2
 BYTE   W84
 BYTE   N56  Dn2  v064
 BYTE   N56  Gs2
 BYTE   W12
// 078   ----------------------------------------
 BYTE   W96
// 079   ----------------------------------------
 BYTE   N84  Ds2  v092
 BYTE   N84  An2
 BYTE   W88
 BYTE   N54  Dn2  v064
 BYTE   N54  Gs2
 BYTE   W08
// 080   ----------------------------------------
 BYTE   W96
// 081   ----------------------------------------
 BYTE   W96
// 082   ----------------------------------------
 BYTE   W96
// 083   ----------------------------------------
 BYTE   W96
// 084   ----------------------------------------
 BYTE   W96
// 085   ----------------------------------------
 BYTE   W96
// 086   ----------------------------------------
 BYTE   W96
// 087   ----------------------------------------
 BYTE   W96
// 088   ----------------------------------------
 BYTE   W96
// 089   ----------------------------------------
Label_0_547191:
 BYTE   N11  Cs1  v112
 BYTE   W12
 BYTE   Gn0
 BYTE   W12
 BYTE   N11
 BYTE   W12
 BYTE   Cs1
 BYTE   W12
 BYTE   Gn0
 BYTE   W12
 BYTE   N11
 BYTE   W12
 BYTE   Cs1
 BYTE   W12
 BYTE   N05  Gn0
 BYTE   W06
 BYTE   N05
 BYTE   W06
 BYTE   PEND 
// 090   ----------------------------------------
Label_0_5471A7:
 BYTE   N11  Gn0  v112
 BYTE   W12
 BYTE   Cs1
 BYTE   W12
 BYTE   Gn0
 BYTE   W12
 BYTE   N11
 BYTE   W12
 BYTE   Cs1
 BYTE   W12
 BYTE   Gn0
 BYTE   W12
 BYTE   N11
 BYTE   W12
 BYTE   N05  Cs1
 BYTE   W06
 BYTE   N05
 BYTE   W06
 BYTE   PEND 
// 091   ----------------------------------------
Label_0_5471BD:
 BYTE   N11  Gn0  v112
 BYTE   W12
 BYTE   Cs1
 BYTE   W12
 BYTE   N11
 BYTE   W12
 BYTE   N11
 BYTE   W12
 BYTE   Gn0
 BYTE   W12
 BYTE   Cs1
 BYTE   W12
 BYTE   Gn0
 BYTE   W12
 BYTE   N11
 BYTE   W12
 BYTE   PEND 
// 092   ----------------------------------------
Label_0_5471D0:
 BYTE   N11  Cs1  v112
 BYTE   W12
 BYTE   Gn0
 BYTE   W12
 BYTE   N11
 BYTE   W12
 BYTE   Cs1
 BYTE   W12
 BYTE   N11
 BYTE   W12
 BYTE   Gn0
 BYTE   W12
 BYTE   N11
 BYTE   W12
 BYTE   N05  Cs1
 BYTE   W06
 BYTE   N05
 BYTE   W06
 BYTE   PEND 
// 093   ----------------------------------------
 BYTE   PATT
  POIN2 Label_0_547191
// 094   ----------------------------------------
 BYTE   PATT
  POIN2 Label_0_5471A7
// 095   ----------------------------------------
 BYTE   PATT
  POIN2 Label_0_5471BD
// 096   ----------------------------------------
 BYTE   PATT
  POIN2 Label_0_5471D0
// 097   ----------------------------------------
 BYTE   N11  Cs1  v112
 BYTE   W12
 BYTE   Gn0
 BYTE   W12
 BYTE   N11
 BYTE   W12
 BYTE   Cs1
 BYTE   W07
 BYTE   W05
 BYTE   Gn0
 BYTE   W12
 BYTE   N11
 BYTE   W04
 BYTE   W08
 BYTE   Cs1
 BYTE   W12
 BYTE   N05  Gn0
 BYTE   W02
 BYTE   W04
 BYTE   N05
 BYTE   W06
// 098   ----------------------------------------
 BYTE   N11
 BYTE   W12
 BYTE   Cs1
 BYTE   W12
 BYTE   Gn0
 BYTE   W09
 BYTE   W03
 BYTE   N11
 BYTE   W12
 BYTE   Cs1
 BYTE   W07
 BYTE   W05
 BYTE   Gn0
 BYTE   W12
 BYTE   N11
 BYTE   W05
 BYTE   W07
 BYTE   N05  Cs1
 BYTE   W06
 BYTE   N05
 BYTE   W06
// 099   ----------------------------------------
 BYTE   N11  Gn0
 BYTE   W02
 BYTE   W10
 BYTE   Cs1
 BYTE   W12
 BYTE   N11
 BYTE   W12
 BYTE   N11
 BYTE   W10
 BYTE   W02
 BYTE   Gn0
 BYTE   W12
 BYTE   Cs1
 BYTE   W07
 BYTE   W05
 BYTE   Gn0
 BYTE   W12
 BYTE   N11
 BYTE   W05
 BYTE   W07
// 100   ----------------------------------------
 BYTE   Cs1
 BYTE   W12
 BYTE   Gn0
 BYTE   W03
 BYTE   W09
 BYTE   N11
 BYTE   W12
 BYTE   Cs1
 BYTE   W12
 BYTE   N11
 BYTE   W10
 BYTE   W02
 BYTE   Gn0
 BYTE   W12
 BYTE   N11
 BYTE   W08
 BYTE   W04
 BYTE   N05  Cs1
 BYTE   W06
 BYTE   N05
 BYTE   W06
// 101   ----------------------------------------
 BYTE   N11
 BYTE   W05
 BYTE   W07
 BYTE   Gn0
 BYTE   W12
 BYTE   N11
 BYTE   W03
 BYTE   W09
 BYTE   Cs1
 BYTE   W12
 BYTE   Gn0
 BYTE   W01
 BYTE   W11
 BYTE   N11
 BYTE   W10
 BYTE   W02
 BYTE   Cs1
 BYTE   W12
 BYTE   N05  Gn0
 BYTE   W06
 BYTE   N05
 BYTE   W02
 BYTE   W04
// 102   ----------------------------------------
 BYTE   N11
 BYTE   W12
 BYTE   Cs1
 BYTE   W05
 BYTE   W07
 BYTE   Gn0
 BYTE   W12
 BYTE   N11
 BYTE   W03
 BYTE   W09
 BYTE   Cs1
 BYTE   W12
 BYTE   Gn0
 BYTE   W01
 BYTE   W11
 BYTE   N11
 BYTE   W10
 BYTE   W02
 BYTE   N05  Cs1
 BYTE   W06
 BYTE   N05
 BYTE   W06
// 103   ----------------------------------------
 BYTE   N11  Gn0
 BYTE   W08
 BYTE   W04
 BYTE   Cs1
 BYTE   W12
 BYTE   N11
 BYTE   W06
 BYTE   W06
 BYTE   N11
 BYTE   W12
 BYTE   Gn0
 BYTE   W03
 BYTE   W09
 BYTE   Cs1
 BYTE   W12
 BYTE   Gn0
 BYTE   W01
 BYTE   W11
 BYTE   N11
 BYTE   W11
 BYTE   W01
// 104   ----------------------------------------
 BYTE   PATT
  POIN2 Label_0_5471D0
// 105   ----------------------------------------
Label_0_54729D:
 BYTE   N68  Cs1  v127
 BYTE   W24
 BYTE   N23  Gs0  v080
 BYTE   W24
 BYTE   N68  Gn1  v112
 BYTE   W05
 BYTE   N66  Gn2
 BYTE   W42
 BYTE   W01
 BYTE   PEND 
// 106   ----------------------------------------
 BYTE   PATT
  POIN2 Label_0_54729D
// 107   ----------------------------------------
 BYTE   N52  Cs1  v127
 BYTE   W24
 BYTE   N23  Gs0  v080
 BYTE   W24
 BYTE   N68  Gn1  v112
 BYTE   W06
 BYTE   N64  Gn2
 BYTE   W42
// 108   ----------------------------------------
 BYTE   N23  Cs1  v127
 BYTE   W24
 BYTE   Gs0  v080
 BYTE   N23  Gn1  v112
 BYTE   W05
 BYTE   N24  Gn2
 BYTE   W19
 BYTE   N44  Cs1
 BYTE   W44
 BYTE   W03
 BYTE   GoTo
  POIN2 Label_0_546F26
 BYTE   FINE

//**************** Track 2 (Midi-Chn.1) ****************//

PokemonBWVsGhetsisPurpleMage_002:
// 000   ----------------------------------------
 BYTE   KEYSH   PokemonBWVsGhetsisPurpleMage_key+0
 BYTE   VOICE   14
 BYTE   VOL   59*PokemonBWVsGhetsisPurpleMage_mvl/mxv
 BYTE   PAN   c_v+0
 BYTE   VOL   58*PokemonBWVsGhetsisPurpleMage_mvl/mxv
 BYTE   PAN   c_v-21
 BYTE   W96
// 001   ----------------------------------------
 BYTE   W96
// 002   ----------------------------------------
 BYTE   W96
// 003   ----------------------------------------
 BYTE   W96
// 004   ----------------------------------------
 BYTE   W96
// 005   ----------------------------------------
 BYTE   N44  Dn3  v068
 BYTE   W48
 BYTE   N92  Fn2
 BYTE   W48
// 006   ----------------------------------------
 BYTE   W48
 BYTE   Fn2  v088
 BYTE   W48
// 007   ----------------------------------------
 BYTE   W48
 BYTE   Fn2  v112
 BYTE   W48
// 008   ----------------------------------------
 BYTE   W48
 BYTE   N92
 BYTE   W48
// 009   ----------------------------------------
 BYTE   W48
 BYTE   N92
 BYTE   W48
// 010   ----------------------------------------
 BYTE   W48
 BYTE   TIE
 BYTE   W48
// 011   ----------------------------------------
Label_1_5462D9:
 BYTE   W96
// 012   ----------------------------------------
 BYTE   W44
 BYTE   W03
 BYTE   EOT
 BYTE   Fn2
 BYTE   W48
 BYTE   W01
// 013   ----------------------------------------
 BYTE   W96
// 014   ----------------------------------------
 BYTE   W96
// 015   ----------------------------------------
 BYTE   N92  Fn2  v112
 BYTE   W96
// 016   ----------------------------------------
 BYTE   N92
 BYTE   W96
// 017   ----------------------------------------
 BYTE   N92
 BYTE   W96
// 018   ----------------------------------------
 BYTE   N92
 BYTE   W96
// 019   ----------------------------------------
 BYTE   N92
 BYTE   W96
// 020   ----------------------------------------
 BYTE   N92
 BYTE   W96
// 021   ----------------------------------------
 BYTE   N92
 BYTE   W96
// 022   ----------------------------------------
 BYTE   N92
 BYTE   W96
// 023   ----------------------------------------
 BYTE   N92
 BYTE   W96
// 024   ----------------------------------------
 BYTE   N92
 BYTE   W96
// 025   ----------------------------------------
 BYTE   N92
 BYTE   W96
// 026   ----------------------------------------
 BYTE   N92
 BYTE   W96
// 027   ----------------------------------------
 BYTE   N92
 BYTE   W96
// 028   ----------------------------------------
 BYTE   N92
 BYTE   W96
// 029   ----------------------------------------
 BYTE   N92
 BYTE   W96
// 030   ----------------------------------------
 BYTE   N92
 BYTE   W96
// 031   ----------------------------------------
 BYTE   N92
 BYTE   W96
// 032   ----------------------------------------
 BYTE   N92
 BYTE   W96
// 033   ----------------------------------------
 BYTE   N92
 BYTE   W96
// 034   ----------------------------------------
Label_1_54630A:
 BYTE   N92  Fn2  v112
 BYTE   W72
 BYTE   N05  En2
 BYTE   W06
 BYTE   N05
 BYTE   W06
 BYTE   N05
 BYTE   W06
 BYTE   N05
 BYTE   W06
 BYTE   PEND 
// 035   ----------------------------------------
 BYTE   N23
 BYTE   TIE  Cs4
 BYTE   W96
// 036   ----------------------------------------
 BYTE   N23  En2
 BYTE   W92
 BYTE   W03
 BYTE   EOT
 BYTE   Cs4
 BYTE   W01
// 037   ----------------------------------------
 BYTE   W96
// 038   ----------------------------------------
 BYTE   N64  Ds5  v080
 BYTE   W96
// 039   ----------------------------------------
 BYTE   TIE  Ds3  v112
 BYTE   W96
// 040   ----------------------------------------
 BYTE   W92
 BYTE   W03
 BYTE   EOT
 BYTE   W01
// 041   ----------------------------------------
 BYTE   W96
// 042   ----------------------------------------
 BYTE   W96
// 043   ----------------------------------------
 BYTE   N92  Fn2  v124
 BYTE   W96
// 044   ----------------------------------------
 BYTE   Fn2  v112
 BYTE   W96
// 045   ----------------------------------------
 BYTE   N92
 BYTE   W96
// 046   ----------------------------------------
 BYTE   N92
 BYTE   W96
// 047   ----------------------------------------
 BYTE   Fn2  v124
 BYTE   W96
// 048   ----------------------------------------
 BYTE   Fn2  v112
 BYTE   W96
// 049   ----------------------------------------
 BYTE   N92
 BYTE   W96
// 050   ----------------------------------------
 BYTE   N92
 BYTE   W96
// 051   ----------------------------------------
 BYTE   N03  En2
 BYTE   N92  Fn2  v124
 BYTE   W04
 BYTE   N07  En2  v112
 BYTE   W92
// 052   ----------------------------------------
 BYTE   N92  Fn2
 BYTE   W96
// 053   ----------------------------------------
 BYTE   N92
 BYTE   W96
// 054   ----------------------------------------
 BYTE   N92
 BYTE   W96
// 055   ----------------------------------------
 BYTE   Fn2  v124
 BYTE   W96
// 056   ----------------------------------------
 BYTE   Fn2  v112
 BYTE   W96
// 057   ----------------------------------------
 BYTE   N92
 BYTE   W96
// 058   ----------------------------------------
 BYTE   N92
 BYTE   W96
// 059   ----------------------------------------
 BYTE   Fn2  v124
 BYTE   W96
// 060   ----------------------------------------
 BYTE   Fn2  v112
 BYTE   W96
// 061   ----------------------------------------
 BYTE   N92
 BYTE   W96
// 062   ----------------------------------------
 BYTE   PATT
  POIN2 Label_1_54630A
// 063   ----------------------------------------
Label_1_54636F:
 BYTE   N23  En2  v127
 BYTE   W36
 BYTE   N11
 BYTE   W60
 BYTE   PEND 
// 064   ----------------------------------------
 BYTE   W96
// 065   ----------------------------------------
 BYTE   W96
// 066   ----------------------------------------
 BYTE   W96
// 067   ----------------------------------------
 BYTE   PATT
  POIN2 Label_1_54636F
// 068   ----------------------------------------
 BYTE   W96
// 069   ----------------------------------------
 BYTE   W96
// 070   ----------------------------------------
 BYTE   W60
 BYTE   N11  En2  v127
 BYTE   W36
// 071   ----------------------------------------
 BYTE   N23
 BYTE   W96
// 072   ----------------------------------------
 BYTE   W96
// 073   ----------------------------------------
 BYTE   W96
// 074   ----------------------------------------
 BYTE   W96
// 075   ----------------------------------------
 BYTE   W96
// 076   ----------------------------------------
 BYTE   W96
// 077   ----------------------------------------
 BYTE   W96
// 078   ----------------------------------------
 BYTE   W96
// 079   ----------------------------------------
 BYTE   W96
// 080   ----------------------------------------
 BYTE   W96
// 081   ----------------------------------------
 BYTE   W96
// 082   ----------------------------------------
 BYTE   W96
// 083   ----------------------------------------
 BYTE   W96
// 084   ----------------------------------------
 BYTE   W96
// 085   ----------------------------------------
 BYTE   W96
// 086   ----------------------------------------
 BYTE   W96
// 087   ----------------------------------------
 BYTE   W96
// 088   ----------------------------------------
 BYTE   W96
// 089   ----------------------------------------
 BYTE   W96
// 090   ----------------------------------------
 BYTE   W96
// 091   ----------------------------------------
 BYTE   W96
// 092   ----------------------------------------
 BYTE   W96
// 093   ----------------------------------------
 BYTE   En3  v076
 BYTE   W96
// 094   ----------------------------------------
 BYTE   En3  v072
 BYTE   W96
// 095   ----------------------------------------
 BYTE   En3  v076
 BYTE   W96
// 096   ----------------------------------------
 BYTE   En3  v072
 BYTE   W96
// 097   ----------------------------------------
 BYTE   W96
// 098   ----------------------------------------
 BYTE   W96
// 099   ----------------------------------------
 BYTE   W96
// 100   ----------------------------------------
 BYTE   W96
// 101   ----------------------------------------
 BYTE   W96
// 102   ----------------------------------------
 BYTE   W96
// 103   ----------------------------------------
 BYTE   W96
// 104   ----------------------------------------
 BYTE   N92  As1  v084
 BYTE   N92  Ds3  v120
 BYTE   TIE  Fn4  v127
 BYTE   TIE  Cn5
 BYTE   W96
// 105   ----------------------------------------
 BYTE   W96
// 106   ----------------------------------------
 BYTE   W23
 BYTE   EOT
 BYTE   Fn4  v084
 BYTE   W72
 BYTE   W01
// 107   ----------------------------------------
 BYTE   W96
// 108   ----------------------------------------
 BYTE   W92
 BYTE   W03
 BYTE   GoTo
  POIN2 Label_1_5462D9
 BYTE   FINE

//**************** Track 3 (Midi-Chn.2) ****************//

PokemonBWVsGhetsisPurpleMage_003:
// 000   ----------------------------------------
 BYTE   KEYSH   PokemonBWVsGhetsisPurpleMage_key+0
 BYTE   VOICE   47
 BYTE   VOL   75*PokemonBWVsGhetsisPurpleMage_mvl/mxv
 BYTE   PAN   c_v+2
 BYTE   VOL   57*PokemonBWVsGhetsisPurpleMage_mvl/mxv
 BYTE   PAN   c_v+30
 BYTE   W96
// 001   ----------------------------------------
 BYTE   W96
// 002   ----------------------------------------
 BYTE   W96
// 003   ----------------------------------------
 BYTE   W96
// 004   ----------------------------------------
 BYTE   W96
// 005   ----------------------------------------
 BYTE   W96
// 006   ----------------------------------------
 BYTE   W96
// 007   ----------------------------------------
 BYTE   W96
// 008   ----------------------------------------
 BYTE   W96
// 009   ----------------------------------------
 BYTE   W96
// 010   ----------------------------------------
 BYTE   W96
// 011   ----------------------------------------
Label_2_195937:
 BYTE   N32  Dn2  v112
 BYTE   W36
 BYTE   N11
 BYTE   W12
 BYTE   N23
 BYTE   W24
 BYTE   N23
 BYTE   W24
 BYTE   PEND 
// 012   ----------------------------------------
Label_2_195942:
 BYTE   N11  Dn2  v112
 BYTE   W12
 BYTE   N11
 BYTE   W12
 BYTE   N32
 BYTE   W36
 BYTE   N23
 BYTE   W24
 BYTE   N11
 BYTE   W12
 BYTE   PEND 
// 013   ----------------------------------------
Label_2_19594F:
 BYTE   N11  Dn2  v112
 BYTE   W12
 BYTE   N23
 BYTE   W24
 BYTE   N23
 BYTE   W24
 BYTE   N11
 BYTE   W12
 BYTE   N23
 BYTE   W24
 BYTE   PEND 
// 014   ----------------------------------------
 BYTE   N32  Dn2  v127
 BYTE   W36
 BYTE   N11  Dn2  v112
 BYTE   W12
 BYTE   N23
 BYTE   W24
 BYTE   N11
 BYTE   W12
 BYTE   N11
 BYTE   W12
// 015   ----------------------------------------
 BYTE   N32  Dn2  v127
 BYTE   W36
 BYTE   N11  Dn2  v112
 BYTE   W12
 BYTE   N23
 BYTE   W24
 BYTE   N23
 BYTE   W24
// 016   ----------------------------------------
Label_2_195976:
 BYTE   N11  Dn2  v127
 BYTE   W12
 BYTE   Dn2  v112
 BYTE   W12
 BYTE   N32
 BYTE   W36
 BYTE   N23
 BYTE   W24
 BYTE   N11
 BYTE   W12
 BYTE   PEND 
// 017   ----------------------------------------
 BYTE   Dn2  v127
 BYTE   W12
 BYTE   N23  Dn2  v112
 BYTE   W24
 BYTE   N23
 BYTE   W24
 BYTE   N11
 BYTE   W12
 BYTE   N23
 BYTE   W24
// 018   ----------------------------------------
Label_2_195991:
 BYTE   N32  Dn2  v112
 BYTE   W36
 BYTE   N11
 BYTE   W12
 BYTE   N23
 BYTE   W24
 BYTE   N11
 BYTE   W12
 BYTE   N11
 BYTE   W12
 BYTE   PEND 
// 019   ----------------------------------------
 BYTE   N32  Dn2  v124
 BYTE   W36
 BYTE   N11  Dn2  v127
 BYTE   W12
 BYTE   N23  Dn2  v112
 BYTE   W24
 BYTE   Dn2  v127
 BYTE   W24
// 020   ----------------------------------------
 BYTE   PATT
  POIN2 Label_2_195976
// 021   ----------------------------------------
 BYTE   PATT
  POIN2 Label_2_19594F
// 022   ----------------------------------------
 BYTE   PATT
  POIN2 Label_2_195991
// 023   ----------------------------------------
 BYTE   PATT
  POIN2 Label_2_195937
// 024   ----------------------------------------
 BYTE   PATT
  POIN2 Label_2_195942
// 025   ----------------------------------------
 BYTE   PATT
  POIN2 Label_2_19594F
// 026   ----------------------------------------
 BYTE   PATT
  POIN2 Label_2_195991
// 027   ----------------------------------------
Label_2_1959D0:
 BYTE   N32  Fs2  v112
 BYTE   W36
 BYTE   N11
 BYTE   W12
 BYTE   N23
 BYTE   W24
 BYTE   N23
 BYTE   W24
 BYTE   PEND 
// 028   ----------------------------------------
Label_2_1959DB:
 BYTE   N11  Fs2  v112
 BYTE   W12
 BYTE   N11
 BYTE   W12
 BYTE   N32
 BYTE   W36
 BYTE   N23
 BYTE   W24
 BYTE   N11
 BYTE   W12
 BYTE   PEND 
// 029   ----------------------------------------
Label_2_1959E8:
 BYTE   N11  Fs2  v112
 BYTE   W12
 BYTE   N23
 BYTE   W24
 BYTE   N23
 BYTE   W24
 BYTE   N11
 BYTE   W12
 BYTE   N23
 BYTE   W24
 BYTE   PEND 
// 030   ----------------------------------------
 BYTE   N32
 BYTE   W36
 BYTE   N11
 BYTE   W12
 BYTE   N23  Fs2  v116
 BYTE   W24
 BYTE   N11  Fs2  v112
 BYTE   W12
 BYTE   N11
 BYTE   W12
// 031   ----------------------------------------
 BYTE   PATT
  POIN2 Label_2_1959D0
// 032   ----------------------------------------
 BYTE   PATT
  POIN2 Label_2_1959DB
// 033   ----------------------------------------
 BYTE   PATT
  POIN2 Label_2_1959E8
// 034   ----------------------------------------
Label_2_195A12:
 BYTE   N32  Fs2  v112
 BYTE   W36
 BYTE   N11
 BYTE   W12
 BYTE   N23
 BYTE   W24
 BYTE   N11
 BYTE   W12
 BYTE   N11
 BYTE   W12
 BYTE   PEND 
// 035   ----------------------------------------
 BYTE   N32  Dn3  v127
 BYTE   W36
 BYTE   N11  Fs2
 BYTE   W12
 BYTE   N23  Fs2  v112
 BYTE   W24
 BYTE   N11
 BYTE   W12
 BYTE   N11
 BYTE   W12
// 036   ----------------------------------------
 BYTE   Fs2  v127
 BYTE   W12
 BYTE   N23  Fs2  v112
 BYTE   W24
 BYTE   Fs2  v127
 BYTE   W24
 BYTE   N11  Fs2  v112
 BYTE   W12
 BYTE   N23
 BYTE   W24
// 037   ----------------------------------------
 BYTE   N32  Dn3  v124
 BYTE   W36
 BYTE   N11  Fs2  v112
 BYTE   W12
 BYTE   N23
 BYTE   W24
 BYTE   N11
 BYTE   W12
 BYTE   N11
 BYTE   W12
// 038   ----------------------------------------
 BYTE   PATT
  POIN2 Label_2_1959E8
// 039   ----------------------------------------
 BYTE   PATT
  POIN2 Label_2_195A12
// 040   ----------------------------------------
 BYTE   PATT
  POIN2 Label_2_1959E8
// 041   ----------------------------------------
 BYTE   PATT
  POIN2 Label_2_195A12
// 042   ----------------------------------------
 BYTE   PATT
  POIN2 Label_2_1959E8
// 043   ----------------------------------------
 BYTE   N32  Fs2  v124
 BYTE   W36
 BYTE   N11  Fs2  v112
 BYTE   W12
 BYTE   N23
 BYTE   W24
 BYTE   N23
 BYTE   W24
// 044   ----------------------------------------
Label_2_195A71:
 BYTE   N11  Fs2  v127
 BYTE   W12
 BYTE   Fs2  v112
 BYTE   W12
 BYTE   N32
 BYTE   W36
 BYTE   N23
 BYTE   W24
 BYTE   N11
 BYTE   W12
 BYTE   PEND 
// 045   ----------------------------------------
 BYTE   PATT
  POIN2 Label_2_1959E8
// 046   ----------------------------------------
 BYTE   N32  Fs2  v127
 BYTE   W36
 BYTE   N11  Fs2  v112
 BYTE   W12
 BYTE   N23
 BYTE   W24
 BYTE   N11
 BYTE   W12
 BYTE   N11
 BYTE   W12
// 047   ----------------------------------------
 BYTE   PATT
  POIN2 Label_2_1959D0
// 048   ----------------------------------------
 BYTE   PATT
  POIN2 Label_2_195A71
// 049   ----------------------------------------
 BYTE   N11  Fs2  v124
 BYTE   W12
 BYTE   N23  Fs2  v112
 BYTE   W24
 BYTE   N23
 BYTE   W24
 BYTE   N11
 BYTE   W12
 BYTE   N23
 BYTE   W24
// 050   ----------------------------------------
 BYTE   PATT
  POIN2 Label_2_195A12
// 051   ----------------------------------------
 BYTE   PATT
  POIN2 Label_2_195A12
// 052   ----------------------------------------
 BYTE   PATT
  POIN2 Label_2_1959E8
// 053   ----------------------------------------
 BYTE   PATT
  POIN2 Label_2_195A12
// 054   ----------------------------------------
 BYTE   PATT
  POIN2 Label_2_1959D0
// 055   ----------------------------------------
 BYTE   PATT
  POIN2 Label_2_1959DB
// 056   ----------------------------------------
 BYTE   PATT
  POIN2 Label_2_1959E8
// 057   ----------------------------------------
 BYTE   PATT
  POIN2 Label_2_195A12
// 058   ----------------------------------------
 BYTE   PATT
  POIN2 Label_2_195A12
// 059   ----------------------------------------
 BYTE   PATT
  POIN2 Label_2_1959E8
// 060   ----------------------------------------
 BYTE   PATT
  POIN2 Label_2_1959E8
// 061   ----------------------------------------
 BYTE   PATT
  POIN2 Label_2_1959E8
// 062   ----------------------------------------
 BYTE   PATT
  POIN2 Label_2_1959E8
// 063   ----------------------------------------
 BYTE   PATT
  POIN2 Label_2_195A12
// 064   ----------------------------------------
 BYTE   PATT
  POIN2 Label_2_1959E8
// 065   ----------------------------------------
 BYTE   PATT
  POIN2 Label_2_195A12
// 066   ----------------------------------------
 BYTE   PATT
  POIN2 Label_2_1959E8
// 067   ----------------------------------------
 BYTE   PATT
  POIN2 Label_2_195A12
// 068   ----------------------------------------
 BYTE   PATT
  POIN2 Label_2_1959E8
// 069   ----------------------------------------
 BYTE   PATT
  POIN2 Label_2_195A12
// 070   ----------------------------------------
 BYTE   PATT
  POIN2 Label_2_1959E8
// 071   ----------------------------------------
 BYTE   N92  Fs2  v112
 BYTE   W96
// 072   ----------------------------------------
 BYTE   W96
// 073   ----------------------------------------
 BYTE   Gn1
 BYTE   N92  Cs2
 BYTE   W96
// 074   ----------------------------------------
 BYTE   N11  Fs1
 BYTE   N11  Cn2
 BYTE   W96
// 075   ----------------------------------------
 BYTE   N92  Gn1
 BYTE   N92  Cs2
 BYTE   W96
// 076   ----------------------------------------
 BYTE   N11  Fs1
 BYTE   N11  Cn2
 BYTE   W96
// 077   ----------------------------------------
Label_2_195B2B:
 BYTE   N92  Cs2  v112
 BYTE   N92  Gn2
 BYTE   N88  Cs3  v096
 BYTE   N88  Gn3
 BYTE   W90
 BYTE   N05  Cs3  v080
 BYTE   N05  Gn3  v088
 BYTE   W06
 BYTE   PEND 
// 078   ----------------------------------------
Label_2_195B3E:
 BYTE   N11  Cn2  v112
 BYTE   N11  Fs2
 BYTE   N23  Cn3  v064
 BYTE   N23  Fs3
 BYTE   W96
 BYTE   PEND 
// 079   ----------------------------------------
 BYTE   PATT
  POIN2 Label_2_195B2B
// 080   ----------------------------------------
 BYTE   PATT
  POIN2 Label_2_195B3E
// 081   ----------------------------------------
Label_2_195B54:
 BYTE   N23  Cs1  v112
 BYTE   N23  Cs2
 BYTE   N44  Gn2  v072
 BYTE   N44  Cs3  v092
 BYTE   W24
 BYTE   N23  Ds1  v112
 BYTE   N23  Ds2
 BYTE   W24
 BYTE   En1
 BYTE   N23  En2
 BYTE   N44  Cs3  v088
 BYTE   N44  Gn3  v096
 BYTE   W24
 BYTE   N23  Fs1  v112
 BYTE   N23  Fs2
 BYTE   W24
 BYTE   PEND 
// 082   ----------------------------------------
Label_2_195B77:
 BYTE   N23  En1  v112
 BYTE   N23  En2
 BYTE   N44  Gn3  v072
 BYTE   N44  Cs4  v104
 BYTE   W24
 BYTE   N23  Ds1  v112
 BYTE   N23  Ds2
 BYTE   W24
 BYTE   Cs1
 BYTE   N23  Cs2
 BYTE   N44  Cs3  v072
 BYTE   N44  Gn3  v104
 BYTE   W24
 BYTE   N23  Cn1  v112
 BYTE   N23  Cn2
 BYTE   W24
 BYTE   PEND 
// 083   ----------------------------------------
Label_2_195B9A:
 BYTE   N44  An0  v112
 BYTE   N44  An1
 BYTE   N44  Ds3
 BYTE   N44  An3
 BYTE   W48
 BYTE   Gn0
 BYTE   N44  Gn1
 BYTE   N44  Cs3
 BYTE   N44  Gn3  v096
 BYTE   W48
 BYTE   PEND 
// 084   ----------------------------------------
 BYTE   W96
// 085   ----------------------------------------
 BYTE   PATT
  POIN2 Label_2_195B54
// 086   ----------------------------------------
 BYTE   PATT
  POIN2 Label_2_195B77
// 087   ----------------------------------------
 BYTE   PATT
  POIN2 Label_2_195B9A
// 088   ----------------------------------------
 BYTE   W96
// 089   ----------------------------------------
 BYTE   N92  Gn1  v112
 BYTE   N32  Cs2
 BYTE   W36
 BYTE   N11
 BYTE   W12
 BYTE   N23
 BYTE   W24
 BYTE   N23
 BYTE   W24
// 090   ----------------------------------------
 BYTE   N11  Fs1
 BYTE   N11  Cn2
 BYTE   N11  Cs2
 BYTE   W12
 BYTE   N11
 BYTE   W12
 BYTE   N32
 BYTE   W36
 BYTE   N23
 BYTE   W24
 BYTE   N11
 BYTE   W12
// 091   ----------------------------------------
 BYTE   N92  Gn1
 BYTE   N11  Cs2
 BYTE   W12
 BYTE   N23
 BYTE   W24
 BYTE   N23
 BYTE   W24
 BYTE   N11
 BYTE   W12
 BYTE   N23
 BYTE   W24
// 092   ----------------------------------------
 BYTE   N11  Fs1
 BYTE   N11  Cn2
 BYTE   N32  Cs2
 BYTE   W36
 BYTE   N11
 BYTE   W12
 BYTE   N23
 BYTE   W24
 BYTE   N11
 BYTE   W12
 BYTE   N11
 BYTE   W12
// 093   ----------------------------------------
 BYTE   N32
 BYTE   N92  Gn2
 BYTE   N88  Cs3  v096
 BYTE   N88  Gn3
 BYTE   W36
 BYTE   N11  Cs2  v112
 BYTE   W12
 BYTE   N23
 BYTE   W24
 BYTE   N23
 BYTE   W18
 BYTE   N05  Cs3  v080
 BYTE   N05  Gn3  v088
 BYTE   W06
// 094   ----------------------------------------
 BYTE   N11  Cn2  v112
 BYTE   N11  Cs2
 BYTE   N11  Fs2
 BYTE   N23  Cn3  v064
 BYTE   N23  Fs3
 BYTE   W12
 BYTE   N11  Cs2  v112
 BYTE   W12
 BYTE   N32
 BYTE   W36
 BYTE   N23
 BYTE   W24
 BYTE   N11
 BYTE   W12
// 095   ----------------------------------------
 BYTE   N11
 BYTE   N92  Gn2
 BYTE   N88  Cs3  v096
 BYTE   N88  Gn3
 BYTE   W12
 BYTE   N23  Cs2  v112
 BYTE   W24
 BYTE   N23
 BYTE   W24
 BYTE   N11
 BYTE   W12
 BYTE   N23
 BYTE   W18
 BYTE   N05  Cs3  v080
 BYTE   N05  Gn3  v088
 BYTE   W06
// 096   ----------------------------------------
 BYTE   N11  Cn2  v112
 BYTE   N32  Cs2
 BYTE   N11  Fs2
 BYTE   N23  Cn3  v064
 BYTE   N23  Fs3
 BYTE   W36
 BYTE   N11  Cs2  v112
 BYTE   W12
 BYTE   N23
 BYTE   W24
 BYTE   N11
 BYTE   W12
 BYTE   N11
 BYTE   W12
// 097   ----------------------------------------
 BYTE   N32
 BYTE   N92  Gn2
 BYTE   N92  Cs3
 BYTE   N96  Bn3
 BYTE   W36
 BYTE   N11  Cs2
 BYTE   W07
 BYTE   W05
 BYTE   N23
 BYTE   W16
 BYTE   W08
 BYTE   N23
 BYTE   W14
 BYTE   W10
// 098   ----------------------------------------
 BYTE   N11
 BYTE   N92  Dn2
 BYTE   N92  Dn3
 BYTE   N68  Bn3
 BYTE   W12
 BYTE   N11  Cs2
 BYTE   W12
 BYTE   N23
 BYTE   W09
 BYTE   W15
 BYTE   N92  Gn2
 BYTE   W07
 BYTE   W05
 BYTE   N23  Cs2
 BYTE   W17
 BYTE   W07
 BYTE   N11
 BYTE   W12
// 099   ----------------------------------------
 BYTE   N11
 BYTE   N92  Ds2
 BYTE   N92  Ds3
 BYTE   N96  As3
 BYTE   W02
 BYTE   W10
 BYTE   N23  Cs2
 BYTE   W12
 BYTE   W12
 BYTE   N12
 BYTE   W10
 BYTE   W02
 BYTE   N11
 BYTE   W12
 BYTE   N11
 BYTE   W07
 BYTE   W05
 BYTE   N23
 BYTE   W17
 BYTE   W07
// 100   ----------------------------------------
 BYTE   N32
 BYTE   N92  Dn2
 BYTE   N92  Gn2
 BYTE   N92  Dn3
 BYTE   N68  As3
 BYTE   W15
 BYTE   W21
 BYTE   N11  Cs2
 BYTE   W12
 BYTE   N23
 BYTE   W10
 BYTE   W14
 BYTE   N11
 BYTE   W08
 BYTE   W04
 BYTE   N11
 BYTE   W12
// 101   ----------------------------------------
 BYTE   N32
 BYTE   N92  Ds2
 BYTE   N92  Ds3
 BYTE   N96  Bn3
 BYTE   W05
 BYTE   W22
 BYTE   W09
 BYTE   N11  Cs2
 BYTE   W12
 BYTE   N23
 BYTE   W01
 BYTE   W21
 BYTE   W02
 BYTE   N23
 BYTE   W20
 BYTE   W04
// 102   ----------------------------------------
 BYTE   N11
 BYTE   N44  En2
 BYTE   N44  Gn2
 BYTE   N44  En3
 BYTE   N68  Bn3
 BYTE   W12
 BYTE   N11  Cs2
 BYTE   W05
 BYTE   W07
 BYTE   N24
 BYTE   W15
 BYTE   W09
 BYTE   N11
 BYTE   N44  Fn2
 BYTE   N44  Fn3
 BYTE   W12
 BYTE   N23  Cs2
 BYTE   W01
 BYTE   W21
 BYTE   W02
 BYTE   N11
 BYTE   W12
// 103   ----------------------------------------
 BYTE   N11
 BYTE   N44  Fn2
 BYTE   N44  Fn3
 BYTE   TIE  Cs4
 BYTE   W08
 BYTE   W04
 BYTE   N23  Cs2
 BYTE   W18
 BYTE   W06
 BYTE   N11
 BYTE   W12
 BYTE   N44  Fs2
 BYTE   N44  Gn2
 BYTE   N44  Fs3
 BYTE   W03
 BYTE   W09
 BYTE   N11  Cs2
 BYTE   W12
 BYTE   N23
 BYTE   W01
 BYTE   W22
 BYTE   W01
// 104   ----------------------------------------
 BYTE   N32
 BYTE   N92  Gn2
 BYTE   N92  Cs3  v080
 BYTE   N92  Gn3  v112
 BYTE   W36
 BYTE   N11  Cs2
 BYTE   W12
 BYTE   N23
 BYTE   W24
 BYTE   N11
 BYTE   W12
 BYTE   N11
 BYTE   W11
 BYTE   EOT
 BYTE   Cs4
 BYTE   W01
// 105   ----------------------------------------
 BYTE   W96
// 106   ----------------------------------------
 BYTE   W96
// 107   ----------------------------------------
 BYTE   W96
// 108   ----------------------------------------
 BYTE   W92
 BYTE   W03
 BYTE   GoTo
  POIN2 Label_2_195937
 BYTE   FINE

//**************** Track 4 (Midi-Chn.3) ****************//

PokemonBWVsGhetsisPurpleMage_004:
// 000   ----------------------------------------
 BYTE   KEYSH   PokemonBWVsGhetsisPurpleMage_key+0
 BYTE   VOICE   47
 BYTE   VOL   59*PokemonBWVsGhetsisPurpleMage_mvl/mxv
 BYTE   PAN   c_v-45
 BYTE   VOL   58*PokemonBWVsGhetsisPurpleMage_mvl/mxv
 BYTE   PAN   c_v+4
 BYTE   W96
// 001   ----------------------------------------
 BYTE   W96
// 002   ----------------------------------------
 BYTE   W96
// 003   ----------------------------------------
 BYTE   W96
// 004   ----------------------------------------
 BYTE   W96
// 005   ----------------------------------------
 BYTE   W96
// 006   ----------------------------------------
 BYTE   W96
// 007   ----------------------------------------
 BYTE   W96
// 008   ----------------------------------------
 BYTE   W96
// 009   ----------------------------------------
 BYTE   W96
// 010   ----------------------------------------
 BYTE   W96
// 011   ----------------------------------------
Label_3_547737:
 BYTE   W96
// 012   ----------------------------------------
 BYTE   W96
// 013   ----------------------------------------
 BYTE   W96
// 014   ----------------------------------------
 BYTE   W96
// 015   ----------------------------------------
 BYTE   W96
// 016   ----------------------------------------
 BYTE   W96
// 017   ----------------------------------------
 BYTE   W96
// 018   ----------------------------------------
 BYTE   W96
// 019   ----------------------------------------
 BYTE   W96
// 020   ----------------------------------------
 BYTE   W96
// 021   ----------------------------------------
 BYTE   W96
// 022   ----------------------------------------
 BYTE   W96
// 023   ----------------------------------------
 BYTE   W24
 BYTE   N23  Gs1  v112
 BYTE   W24
 BYTE   N23
 BYTE   W24
 BYTE   Dn1
 BYTE   W24
// 024   ----------------------------------------
Label_3_54774C:
 BYTE   N05  Gs1  v112
 BYTE   W06
 BYTE   N05
 BYTE   W06
 BYTE   N11
 BYTE   W12
 BYTE   N23  Dn1
 BYTE   W24
 BYTE   Gs1
 BYTE   W24
 BYTE   N23
 BYTE   W24
 BYTE   PEND 
// 025   ----------------------------------------
Label_3_54775C:
 BYTE   N23  Gs1  v112
 BYTE   W24
 BYTE   Dn1
 BYTE   W24
 BYTE   Gs1
 BYTE   W24
 BYTE   Dn1
 BYTE   W24
 BYTE   PEND 
// 026   ----------------------------------------
Label_3_547767:
 BYTE   N05  Dn1  v112
 BYTE   N23  Cn2  v127
 BYTE   W06
 BYTE   N08  Dn1  v112
 BYTE   W18
 BYTE   N23  Gs1
 BYTE   W24
 BYTE   N23
 BYTE   W24
 BYTE   Dn1
 BYTE   W24
 BYTE   PEND 
// 027   ----------------------------------------
Label_3_54777A:
 BYTE   N23  Dn1  v112
 BYTE   W24
 BYTE   Gs1
 BYTE   W24
 BYTE   N23
 BYTE   W24
 BYTE   Dn1
 BYTE   W24
 BYTE   PEND 
// 028   ----------------------------------------
 BYTE   PATT
  POIN2 Label_3_54774C
// 029   ----------------------------------------
 BYTE   PATT
  POIN2 Label_3_54775C
// 030   ----------------------------------------
 BYTE   PATT
  POIN2 Label_3_547767
// 031   ----------------------------------------
 BYTE   PATT
  POIN2 Label_3_54777A
// 032   ----------------------------------------
 BYTE   PATT
  POIN2 Label_3_54774C
// 033   ----------------------------------------
 BYTE   PATT
  POIN2 Label_3_54775C
// 034   ----------------------------------------
 BYTE   PATT
  POIN2 Label_3_547767
// 035   ----------------------------------------
 BYTE   N23  Dn1  v127
 BYTE   W72
 BYTE   N23
 BYTE   W24
// 036   ----------------------------------------
 BYTE   Dn1  v112
 BYTE   W96
// 037   ----------------------------------------
 BYTE   W96
// 038   ----------------------------------------
 BYTE   N92  En2  v080
 BYTE   W96
// 039   ----------------------------------------
 BYTE   N23  Dn3  v112
 BYTE   W72
 BYTE   N23
 BYTE   W24
// 040   ----------------------------------------
 BYTE   N23
 BYTE   W96
// 041   ----------------------------------------
 BYTE   W96
// 042   ----------------------------------------
 BYTE   W96
// 043   ----------------------------------------
 BYTE   W24
 BYTE   Gs3
 BYTE   W24
 BYTE   N23
 BYTE   W24
 BYTE   Dn3
 BYTE   W24
// 044   ----------------------------------------
Label_3_5477C7:
 BYTE   N05  Gs3  v112
 BYTE   W06
 BYTE   N05
 BYTE   W06
 BYTE   N11
 BYTE   W12
 BYTE   N23  Dn3
 BYTE   W24
 BYTE   Gs3
 BYTE   W24
 BYTE   N23
 BYTE   W24
 BYTE   PEND 
// 045   ----------------------------------------
Label_3_5477D7:
 BYTE   N23  Gs3  v112
 BYTE   W24
 BYTE   Dn3
 BYTE   W24
 BYTE   Gs3
 BYTE   W24
 BYTE   Dn3
 BYTE   W24
 BYTE   PEND 
// 046   ----------------------------------------
Label_3_5477E2:
 BYTE   N05  Dn3  v112
 BYTE   W06
 BYTE   N08
 BYTE   W18
 BYTE   N23  Gs3
 BYTE   W24
 BYTE   N23
 BYTE   W24
 BYTE   Dn3
 BYTE   W24
 BYTE   PEND 
// 047   ----------------------------------------
 BYTE   N23
 BYTE   W24
 BYTE   Gs3
 BYTE   W24
 BYTE   N23
 BYTE   W24
 BYTE   Dn3
 BYTE   W24
// 048   ----------------------------------------
 BYTE   PATT
  POIN2 Label_3_5477C7
// 049   ----------------------------------------
 BYTE   PATT
  POIN2 Label_3_5477D7
// 050   ----------------------------------------
 BYTE   PATT
  POIN2 Label_3_5477E2
// 051   ----------------------------------------
Label_3_547807:
 BYTE   N23  Dn3  v112
 BYTE   W24
 BYTE   N23
 BYTE   W24
 BYTE   N23
 BYTE   W24
 BYTE   N23
 BYTE   W24
 BYTE   PEND 
// 052   ----------------------------------------
 BYTE   PATT
  POIN2 Label_3_547807
// 053   ----------------------------------------
 BYTE   W96
// 054   ----------------------------------------
 BYTE   W96
// 055   ----------------------------------------
 BYTE   W96
// 056   ----------------------------------------
 BYTE   W96
// 057   ----------------------------------------
 BYTE   W96
// 058   ----------------------------------------
 BYTE   W96
// 059   ----------------------------------------
Label_3_54781D:
 BYTE   W24
 BYTE   N23  Dn3  v112
 BYTE   W24
 BYTE   N23
 BYTE   W24
 BYTE   N23
 BYTE   W24
 BYTE   PEND 
// 060   ----------------------------------------
 BYTE   PATT
  POIN2 Label_3_54781D
// 061   ----------------------------------------
 BYTE   PATT
  POIN2 Label_3_54781D
// 062   ----------------------------------------
 BYTE   PATT
  POIN2 Label_3_54781D
// 063   ----------------------------------------
Label_3_547836:
 BYTE   N11  Cn4  v112
 BYTE   W12
 BYTE   Fs3
 BYTE   W12
 BYTE   N11
 BYTE   W12
 BYTE   Cn4
 BYTE   W12
 BYTE   Fs3
 BYTE   W12
 BYTE   N05
 BYTE   W06
 BYTE   N05
 BYTE   W06
 BYTE   N11  Cn4
 BYTE   W12
 BYTE   Fs3
 BYTE   W12
 BYTE   PEND 
// 064   ----------------------------------------
Label_3_54784C:
 BYTE   N05  Fs3  v112
 BYTE   W06
 BYTE   Cn4
 BYTE   W06
 BYTE   N11  Fs3
 BYTE   W12
 BYTE   Cn4
 BYTE   W12
 BYTE   Fs3
 BYTE   W12
 BYTE   Cn4
 BYTE   W12
 BYTE   N11
 BYTE   W12
 BYTE   Fs3
 BYTE   W12
 BYTE   N11
 BYTE   W12
 BYTE   PEND 
// 065   ----------------------------------------
Label_3_547862:
 BYTE   N11  Cn4  v112
 BYTE   W12
 BYTE   Fs3
 BYTE   W12
 BYTE   Cn4
 BYTE   W12
 BYTE   N11
 BYTE   W12
 BYTE   Fs3
 BYTE   W12
 BYTE   N11
 BYTE   W12
 BYTE   Cn4
 BYTE   W12
 BYTE   N05  Fs3
 BYTE   W06
 BYTE   N05
 BYTE   W06
 BYTE   PEND 
// 066   ----------------------------------------
 BYTE   N11  Cn4
 BYTE   W12
 BYTE   N11
 BYTE   W12
 BYTE   Fs3
 BYTE   W12
 BYTE   N11
 BYTE   W12
 BYTE   N11
 BYTE   W12
 BYTE   Cn4
 BYTE   W12
 BYTE   Fs3
 BYTE   W12
 BYTE   N11
 BYTE   W12
// 067   ----------------------------------------
 BYTE   PATT
  POIN2 Label_3_547836
// 068   ----------------------------------------
 BYTE   PATT
  POIN2 Label_3_54784C
// 069   ----------------------------------------
 BYTE   PATT
  POIN2 Label_3_547862
// 070   ----------------------------------------
 BYTE   N11  Cn4  v112
 BYTE   W12
 BYTE   N11
 BYTE   W12
 BYTE   Fs3
 BYTE   W12
 BYTE   N11
 BYTE   W12
 BYTE   N11
 BYTE   W12
 BYTE   Cn4
 BYTE   W12
 BYTE   N05  Fs3
 BYTE   W06
 BYTE   N05
 BYTE   W06
 BYTE   N05
 BYTE   W06
 BYTE   N05
 BYTE   W06
// 071   ----------------------------------------
 BYTE   N92  Cn4
 BYTE   W96
// 072   ----------------------------------------
 BYTE   W96
// 073   ----------------------------------------
 BYTE   Gn1
 BYTE   N92  Cs2
 BYTE   W96
// 074   ----------------------------------------
 BYTE   N11  Fs1
 BYTE   N11  Cn2
 BYTE   W96
// 075   ----------------------------------------
 BYTE   N92  Gn1
 BYTE   N92  Cs2
 BYTE   W96
// 076   ----------------------------------------
 BYTE   N11  Fs1
 BYTE   N11  Cn2
 BYTE   W96
// 077   ----------------------------------------
 BYTE   N92  Cs2
 BYTE   N92  Gn2
 BYTE   W96
// 078   ----------------------------------------
 BYTE   N11  Cn2
 BYTE   N11  Fs2
 BYTE   W96
// 079   ----------------------------------------
 BYTE   N92  Cs2
 BYTE   N92  Gn2
 BYTE   W96
// 080   ----------------------------------------
 BYTE   N11  Cn2
 BYTE   N11  Fs2
 BYTE   W96
// 081   ----------------------------------------
 BYTE   W96
// 082   ----------------------------------------
 BYTE   W96
// 083   ----------------------------------------
 BYTE   W96
// 084   ----------------------------------------
 BYTE   W96
// 085   ----------------------------------------
 BYTE   W96
// 086   ----------------------------------------
 BYTE   W96
// 087   ----------------------------------------
 BYTE   W96
// 088   ----------------------------------------
 BYTE   W96
// 089   ----------------------------------------
 BYTE   N92  Gn1
 BYTE   N92  Cs2
 BYTE   W96
// 090   ----------------------------------------
 BYTE   N11  Fs1
 BYTE   N11  Cn2
 BYTE   W96
// 091   ----------------------------------------
 BYTE   N92  Gn1
 BYTE   N92  Cs2
 BYTE   W96
// 092   ----------------------------------------
 BYTE   N11  Fs1
 BYTE   N11  Cn2
 BYTE   W96
// 093   ----------------------------------------
 BYTE   N92  Cs2
 BYTE   W96
// 094   ----------------------------------------
 BYTE   N11  Cn2
 BYTE   W96
// 095   ----------------------------------------
 BYTE   N92  Cs2
 BYTE   N92  Gn2
 BYTE   W96
// 096   ----------------------------------------
 BYTE   N11  Cn2
 BYTE   N11  Fs2
 BYTE   W96
// 097   ----------------------------------------
 BYTE   N92  Gn2
 BYTE   N92  Cs3
 BYTE   TIE  Bn3
 BYTE   W96
// 098   ----------------------------------------
 BYTE   N44  Cs2
 BYTE   N92  Dn3
 BYTE   W48
 BYTE   Gn2
 BYTE   W44
 BYTE   W03
 BYTE   EOT
 BYTE   Bn3
 BYTE   W01
// 099   ----------------------------------------
 BYTE   N92  Ds3
 BYTE   TIE  As3
 BYTE   W48
 BYTE   N44  Cs2
 BYTE   W48
// 100   ----------------------------------------
 BYTE   N92  Gn2
 BYTE   N92  Dn3
 BYTE   W92
 BYTE   W03
 BYTE   EOT
 BYTE   As3
 BYTE   W01
// 101   ----------------------------------------
 BYTE   N92  Cs2
 BYTE   N92  Ds3
 BYTE   TIE  Bn3
 BYTE   W96
// 102   ----------------------------------------
 BYTE   N44  Gn2
 BYTE   N44  En3
 BYTE   W48
 BYTE   N92  Cs2
 BYTE   N92  Fn3
 BYTE   W44
 BYTE   W03
 BYTE   EOT
 BYTE   Bn3
 BYTE   W01
// 103   ----------------------------------------
 BYTE   TIE  Cs4
 BYTE   W48
 BYTE   N44  Gn2
 BYTE   N44  Fs3
 BYTE   W48
// 104   ----------------------------------------
 BYTE   N92  Cs2
 BYTE   N92  Cs3  v080
 BYTE   W92
 BYTE   W03
 BYTE   EOT
 BYTE   Cs4
 BYTE   W01
// 105   ----------------------------------------
 BYTE   W96
// 106   ----------------------------------------
 BYTE   W96
// 107   ----------------------------------------
 BYTE   W96
// 108   ----------------------------------------
 BYTE   W92
 BYTE   W03
 BYTE   GoTo
  POIN2 Label_3_547737
 BYTE   FINE

//**************** Track 5 (Midi-Chn.4) ****************//

PokemonBWVsGhetsisPurpleMage_005:
// 000   ----------------------------------------
 BYTE   KEYSH   PokemonBWVsGhetsisPurpleMage_key+0
 BYTE   VOICE   15
 BYTE   VOL   75*PokemonBWVsGhetsisPurpleMage_mvl/mxv
 BYTE   PAN   c_v+18
 BYTE   W96
// 001   ----------------------------------------
 BYTE   W96
// 002   ----------------------------------------
 BYTE   W96
// 003   ----------------------------------------
 BYTE   W96
// 004   ----------------------------------------
 BYTE   W96
// 005   ----------------------------------------
 BYTE   W96
// 006   ----------------------------------------
 BYTE   W96
// 007   ----------------------------------------
 BYTE   W96
// 008   ----------------------------------------
 BYTE   W96
// 009   ----------------------------------------
 BYTE   W96
// 010   ----------------------------------------
 BYTE   W96
// 011   ----------------------------------------
Label_4_5466D3:
 BYTE   W96
// 012   ----------------------------------------
 BYTE   W96
// 013   ----------------------------------------
 BYTE   W96
// 014   ----------------------------------------
 BYTE   W96
// 015   ----------------------------------------
 BYTE   W96
// 016   ----------------------------------------
 BYTE   W96
// 017   ----------------------------------------
 BYTE   W96
// 018   ----------------------------------------
 BYTE   W96
// 019   ----------------------------------------
 BYTE   W96
// 020   ----------------------------------------
 BYTE   W96
// 021   ----------------------------------------
 BYTE   W96
// 022   ----------------------------------------
 BYTE   W96
// 023   ----------------------------------------
 BYTE   W96
// 024   ----------------------------------------
 BYTE   W96
// 025   ----------------------------------------
 BYTE   W96
// 026   ----------------------------------------
 BYTE   W96
// 027   ----------------------------------------
 BYTE   W96
// 028   ----------------------------------------
 BYTE   W96
// 029   ----------------------------------------
 BYTE   W96
// 030   ----------------------------------------
 BYTE   W96
// 031   ----------------------------------------
Label_4_5466E7:
 BYTE   N11  Gn3  v116
 BYTE   W12
 BYTE   Cs3
 BYTE   W12
 BYTE   Gn3
 BYTE   W12
 BYTE   Cs4
 BYTE   W12
 BYTE   Gn4
 BYTE   W12
 BYTE   Cs4
 BYTE   W12
 BYTE   Gn3
 BYTE   W12
 BYTE   Cs3
 BYTE   W12
 BYTE   PEND 
// 032   ----------------------------------------
 BYTE   Gn3
 BYTE   W12
 BYTE   Cs4
 BYTE   W12
 BYTE   Gn3
 BYTE   W12
 BYTE   Cs4
 BYTE   W12
 BYTE   Gn4
 BYTE   W12
 BYTE   Cs4
 BYTE   W12
 BYTE   Gn3
 BYTE   W12
 BYTE   Cs3
 BYTE   W12
// 033   ----------------------------------------
 BYTE   PATT
  POIN2 Label_4_5466E7
// 034   ----------------------------------------
 BYTE   N11  Gn3  v116
 BYTE   W12
 BYTE   Cs4
 BYTE   W12
 BYTE   Gn4
 BYTE   W12
 BYTE   Fn4
 BYTE   W12
 BYTE   Cs4
 BYTE   W12
 BYTE   Gn3
 BYTE   W12
 BYTE   Cs3
 BYTE   W12
 BYTE   Gn2
 BYTE   W12
// 035   ----------------------------------------
 BYTE   W96
// 036   ----------------------------------------
 BYTE   W96
// 037   ----------------------------------------
 BYTE   W96
// 038   ----------------------------------------
 BYTE   W96
// 039   ----------------------------------------
 BYTE   W96
// 040   ----------------------------------------
 BYTE   W96
// 041   ----------------------------------------
 BYTE   W96
// 042   ----------------------------------------
 BYTE   W96
// 043   ----------------------------------------
Label_4_546729:
 BYTE   N11  Gn3  v116
 BYTE   N11  Gn4  v068
 BYTE   W12
 BYTE   Cs3  v116
 BYTE   N11  Cs4  v068
 BYTE   W12
 BYTE   Gn3  v116
 BYTE   N11  Gn4  v068
 BYTE   W12
 BYTE   Cs4  v116
 BYTE   N11  Cs5  v068
 BYTE   W12
 BYTE   Gn4  v116
 BYTE   N11  Gn5  v068
 BYTE   W12
 BYTE   Cs4  v116
 BYTE   N11  Cs5  v068
 BYTE   W12
 BYTE   Gn3  v116
 BYTE   N11  Gn4  v068
 BYTE   W12
 BYTE   Cs3  v116
 BYTE   N11  Cs4  v068
 BYTE   W12
 BYTE   PEND 
// 044   ----------------------------------------
Label_4_54675B:
 BYTE   N11  Gn3  v116
 BYTE   N11  Gn4  v068
 BYTE   W12
 BYTE   Cs4  v116
 BYTE   N11  Cs5  v068
 BYTE   W12
 BYTE   Gn3  v116
 BYTE   N11  Gn4  v068
 BYTE   W12
 BYTE   Cs4  v116
 BYTE   N11  Cs5  v068
 BYTE   W12
 BYTE   Gn4  v116
 BYTE   N11  Gn5  v068
 BYTE   W12
 BYTE   Cs4  v116
 BYTE   N11  Cs5  v068
 BYTE   W12
 BYTE   Gn3  v116
 BYTE   N11  Gn4  v068
 BYTE   W12
 BYTE   Cs3  v116
 BYTE   N11  Cs4  v068
 BYTE   W12
 BYTE   PEND 
// 045   ----------------------------------------
 BYTE   PATT
  POIN2 Label_4_546729
// 046   ----------------------------------------
 BYTE   N11  Cs3  v116
 BYTE   N11  Cs4  v068
 BYTE   W12
 BYTE   Gn3  v116
 BYTE   N11  Gn4  v068
 BYTE   W12
 BYTE   Cs3  v116
 BYTE   N11  Cs4  v068
 BYTE   W12
 BYTE   Gn3  v116
 BYTE   N11  Gn4  v068
 BYTE   W12
 BYTE   Cs4  v116
 BYTE   N11  Cs5  v068
 BYTE   W12
 BYTE   Gn3  v116
 BYTE   N11  Gn4  v068
 BYTE   W12
 BYTE   Cs3  v116
 BYTE   N11  Cs4  v068
 BYTE   W12
 BYTE   Gn2  v116
 BYTE   N11  Gn3  v068
 BYTE   W12
// 047   ----------------------------------------
 BYTE   PATT
  POIN2 Label_4_546729
// 048   ----------------------------------------
 BYTE   PATT
  POIN2 Label_4_54675B
// 049   ----------------------------------------
 BYTE   PATT
  POIN2 Label_4_546729
// 050   ----------------------------------------
 BYTE   N11  Gn3  v116
 BYTE   N11  Gn4  v068
 BYTE   W12
 BYTE   Cs4  v116
 BYTE   N11  Cs5  v068
 BYTE   W12
 BYTE   Gn4  v116
 BYTE   N11  Gn5  v068
 BYTE   W12
 BYTE   Fn4  v116
 BYTE   N11  Fn5  v068
 BYTE   W12
 BYTE   Cs4  v116
 BYTE   N11  Cs5  v068
 BYTE   W12
 BYTE   Gn3  v116
 BYTE   N11  Gn4  v068
 BYTE   W12
 BYTE   Cs3  v116
 BYTE   N11  Cs4  v068
 BYTE   W12
 BYTE   Gn2  v116
 BYTE   N11  Gn3  v068
 BYTE   W12
// 051   ----------------------------------------
 BYTE   W96
// 052   ----------------------------------------
 BYTE   W96
// 053   ----------------------------------------
 BYTE   W96
// 054   ----------------------------------------
 BYTE   W96
// 055   ----------------------------------------
 BYTE   W96
// 056   ----------------------------------------
 BYTE   W96
// 057   ----------------------------------------
 BYTE   W96
// 058   ----------------------------------------
 BYTE   W96
// 059   ----------------------------------------
 BYTE   W96
// 060   ----------------------------------------
 BYTE   W96
// 061   ----------------------------------------
 BYTE   W96
// 062   ----------------------------------------
 BYTE   W96
// 063   ----------------------------------------
 BYTE   W96
// 064   ----------------------------------------
 BYTE   W96
// 065   ----------------------------------------
 BYTE   W96
// 066   ----------------------------------------
 BYTE   W96
// 067   ----------------------------------------
 BYTE   W96
// 068   ----------------------------------------
 BYTE   W96
// 069   ----------------------------------------
 BYTE   W96
// 070   ----------------------------------------
 BYTE   W96
// 071   ----------------------------------------
 BYTE   W96
// 072   ----------------------------------------
 BYTE   W96
// 073   ----------------------------------------
 BYTE   W96
// 074   ----------------------------------------
 BYTE   W96
// 075   ----------------------------------------
 BYTE   W96
// 076   ----------------------------------------
 BYTE   W96
// 077   ----------------------------------------
 BYTE   W96
// 078   ----------------------------------------
 BYTE   W96
// 079   ----------------------------------------
 BYTE   W96
// 080   ----------------------------------------
 BYTE   W96
// 081   ----------------------------------------
 BYTE   W96
// 082   ----------------------------------------
 BYTE   W96
// 083   ----------------------------------------
 BYTE   W96
// 084   ----------------------------------------
 BYTE   W96
// 085   ----------------------------------------
 BYTE   W96
// 086   ----------------------------------------
 BYTE   W96
// 087   ----------------------------------------
 BYTE   W96
// 088   ----------------------------------------
 BYTE   W96
// 089   ----------------------------------------
 BYTE   W96
// 090   ----------------------------------------
 BYTE   W96
// 091   ----------------------------------------
 BYTE   W96
// 092   ----------------------------------------
 BYTE   W96
// 093   ----------------------------------------
 BYTE   N84  Gn4  v096
 BYTE   W88
 BYTE   N54  Fs4  v064
 BYTE   W08
// 094   ----------------------------------------
 BYTE   W96
// 095   ----------------------------------------
 BYTE   N84  Gn4  v092
 BYTE   W88
 BYTE   N54  Fs4  v064
 BYTE   W08
// 096   ----------------------------------------
 BYTE   W96
// 097   ----------------------------------------
 BYTE   N92  Cs4  v112
 BYTE   TIE  Bn4
 BYTE   W96
// 098   ----------------------------------------
Label_4_546845:
 BYTE   N92  Dn4  v112
 BYTE   W92
 BYTE   W03
 BYTE   PEND 
 BYTE   EOT
 BYTE   Bn4
 BYTE   W01
// 099   ----------------------------------------
 BYTE   N92  Ds4
 BYTE   TIE  As4
 BYTE   W96
// 100   ----------------------------------------
 BYTE   PATT
  POIN2 Label_4_546845
// 101   ----------------------------------------
 BYTE   EOT
 BYTE   As4
 BYTE   W01
 BYTE   N92  Ds4  v112
 BYTE   TIE  Bn4
 BYTE   W96
// 102   ----------------------------------------
 BYTE   N44  En4
 BYTE   W48
 BYTE   N92  Fn4
 BYTE   W44
 BYTE   W03
 BYTE   EOT
 BYTE   Bn4
 BYTE   W01
// 103   ----------------------------------------
 BYTE   TIE  Cs5
 BYTE   W48
 BYTE   N44  Fs4
 BYTE   W48
// 104   ----------------------------------------
 BYTE   N92  Gn4
 BYTE   W92
 BYTE   W03
 BYTE   EOT
 BYTE   Cs5
 BYTE   W01
// 105   ----------------------------------------
 BYTE   W96
// 106   ----------------------------------------
 BYTE   W96
// 107   ----------------------------------------
 BYTE   W96
// 108   ----------------------------------------
 BYTE   W92
 BYTE   W03
 BYTE   GoTo
  POIN2 Label_4_5466D3
 BYTE   FINE

//**************** Track 6 (Midi-Chn.5) ****************//

PokemonBWVsGhetsisPurpleMage_006:
// 000   ----------------------------------------
 BYTE   KEYSH   PokemonBWVsGhetsisPurpleMage_key+0
 BYTE   VOICE   116
 BYTE   VOL   59*PokemonBWVsGhetsisPurpleMage_mvl/mxv
 BYTE   PAN   c_v+27
 BYTE   W96
// 001   ----------------------------------------
 BYTE   W96
// 002   ----------------------------------------
 BYTE   W96
// 003   ----------------------------------------
 BYTE   W96
// 004   ----------------------------------------
 BYTE   W96
// 005   ----------------------------------------
 BYTE   W96
// 006   ----------------------------------------
 BYTE   W96
// 007   ----------------------------------------
 BYTE   W96
// 008   ----------------------------------------
 BYTE   W96
// 009   ----------------------------------------
 BYTE   W96
// 010   ----------------------------------------
 BYTE   W96
// 011   ----------------------------------------
Label_5_546897:
 BYTE   W96
// 012   ----------------------------------------
 BYTE   W96
// 013   ----------------------------------------
 BYTE   W96
// 014   ----------------------------------------
 BYTE   W96
// 015   ----------------------------------------
 BYTE   W96
// 016   ----------------------------------------
 BYTE   W96
// 017   ----------------------------------------
 BYTE   W96
// 018   ----------------------------------------
 BYTE   W96
// 019   ----------------------------------------
Label_5_54689F:
 BYTE   N11  Fn1  v127
 BYTE   W24
 BYTE   Fn1  v112
 BYTE   W24
 BYTE   Bn0
 BYTE   W24
 BYTE   Fn1
 BYTE   W24
 BYTE   PEND 
// 020   ----------------------------------------
 BYTE   Bn0  v124
 BYTE   W24
 BYTE   Fn1  v112
 BYTE   W24
 BYTE   N11
 BYTE   W24
 BYTE   N11
 BYTE   W24
// 021   ----------------------------------------
Label_5_5468B5:
 BYTE   N11  Bn0  v127
 BYTE   W24
 BYTE   Fn1  v112
 BYTE   W24
 BYTE   Bn0
 BYTE   W24
 BYTE   N11
 BYTE   W24
 BYTE   PEND 
// 022   ----------------------------------------
Label_5_5468C1:
 BYTE   N11  Fn1  v127
 BYTE   W24
 BYTE   Fn1  v112
 BYTE   W24
 BYTE   Bn0
 BYTE   W24
 BYTE   N11
 BYTE   W24
 BYTE   PEND 
// 023   ----------------------------------------
 BYTE   PATT
  POIN2 Label_5_54689F
// 024   ----------------------------------------
Label_5_5468D2:
 BYTE   N11  Bn0  v127
 BYTE   W24
 BYTE   Fn1  v112
 BYTE   W24
 BYTE   N11
 BYTE   W24
 BYTE   N11
 BYTE   W24
 BYTE   PEND 
// 025   ----------------------------------------
 BYTE   PATT
  POIN2 Label_5_5468B5
// 026   ----------------------------------------
 BYTE   PATT
  POIN2 Label_5_5468C1
// 027   ----------------------------------------
 BYTE   PATT
  POIN2 Label_5_54689F
// 028   ----------------------------------------
 BYTE   N11  Bn0  v112
 BYTE   W24
 BYTE   Fn1  v127
 BYTE   W24
 BYTE   Fn1  v112
 BYTE   W24
 BYTE   N11
 BYTE   W24
// 029   ----------------------------------------
 BYTE   PATT
  POIN2 Label_5_5468B5
// 030   ----------------------------------------
 BYTE   PATT
  POIN2 Label_5_5468C1
// 031   ----------------------------------------
 BYTE   PATT
  POIN2 Label_5_54689F
// 032   ----------------------------------------
 BYTE   PATT
  POIN2 Label_5_5468D2
// 033   ----------------------------------------
 BYTE   PATT
  POIN2 Label_5_5468B5
// 034   ----------------------------------------
 BYTE   PATT
  POIN2 Label_5_5468C1
// 035   ----------------------------------------
Label_5_546917:
 BYTE   W48
 BYTE   N11  Bn0  v127
 BYTE   W24
 BYTE   Bn0  v112
 BYTE   W24
 BYTE   PEND 
// 036   ----------------------------------------
 BYTE   PATT
  POIN2 Label_5_546917
// 037   ----------------------------------------
 BYTE   W96
// 038   ----------------------------------------
 BYTE   W96
// 039   ----------------------------------------
Label_5_546927:
 BYTE   W48
 BYTE   N11  Bn2  v127
 BYTE   W24
 BYTE   Bn2  v112
 BYTE   W24
 BYTE   PEND 
// 040   ----------------------------------------
 BYTE   PATT
  POIN2 Label_5_546927
// 041   ----------------------------------------
 BYTE   W96
// 042   ----------------------------------------
 BYTE   W96
// 043   ----------------------------------------
Label_5_546937:
 BYTE   N11  Fn3  v112
 BYTE   W24
 BYTE   N11
 BYTE   W24
 BYTE   Bn2
 BYTE   W24
 BYTE   Fn3
 BYTE   W24
 BYTE   PEND 
// 044   ----------------------------------------
Label_5_546942:
 BYTE   N11  Bn2  v112
 BYTE   W24
 BYTE   Fn3
 BYTE   W24
 BYTE   N11
 BYTE   W24
 BYTE   N11
 BYTE   W24
 BYTE   PEND 
// 045   ----------------------------------------
Label_5_54694D:
 BYTE   N11  Bn2  v112
 BYTE   W24
 BYTE   Fn3
 BYTE   W24
 BYTE   Bn2
 BYTE   W24
 BYTE   N08
 BYTE   W23
 BYTE   N01  Fn3
 BYTE   W01
 BYTE   PEND 
// 046   ----------------------------------------
Label_5_54695B:
 BYTE   W24
 BYTE   N11  Fn3  v112
 BYTE   W24
 BYTE   Bn2
 BYTE   W24
 BYTE   N11
 BYTE   W24
 BYTE   PEND 
// 047   ----------------------------------------
 BYTE   PATT
  POIN2 Label_5_546937
// 048   ----------------------------------------
 BYTE   PATT
  POIN2 Label_5_546942
// 049   ----------------------------------------
 BYTE   PATT
  POIN2 Label_5_54694D
// 050   ----------------------------------------
 BYTE   PATT
  POIN2 Label_5_54695B
// 051   ----------------------------------------
 BYTE   N11  Bn2  v112
 BYTE   W48
 BYTE   N11
 BYTE   W24
 BYTE   N11
 BYTE   W24
// 052   ----------------------------------------
 BYTE   W96
// 053   ----------------------------------------
 BYTE   W96
// 054   ----------------------------------------
 BYTE   W96
// 055   ----------------------------------------
 BYTE   W96
// 056   ----------------------------------------
 BYTE   W96
// 057   ----------------------------------------
 BYTE   W96
// 058   ----------------------------------------
 BYTE   W96
// 059   ----------------------------------------
 BYTE   W96
// 060   ----------------------------------------
 BYTE   W96
// 061   ----------------------------------------
Label_5_54698A:
 BYTE   N23  Fs3  v112
 BYTE   W24
 BYTE   N23
 BYTE   W24
 BYTE   N23
 BYTE   W48
 BYTE   PEND 
// 062   ----------------------------------------
 BYTE   PATT
  POIN2 Label_5_54698A
// 063   ----------------------------------------
Label_5_546998:
 BYTE   N11  An2  v112
 BYTE   W12
 BYTE   Ds3
 BYTE   W12
 BYTE   N11
 BYTE   W12
 BYTE   N11
 BYTE   W12
 BYTE   An2
 BYTE   W12
 BYTE   N11
 BYTE   W12
 BYTE   Ds3
 BYTE   W12
 BYTE   N05
 BYTE   W06
 BYTE   N05
 BYTE   W06
 BYTE   PEND 
// 064   ----------------------------------------
Label_5_5469AD:
 BYTE   N11  An2  v112
 BYTE   W12
 BYTE   Ds3
 BYTE   W12
 BYTE   An2
 BYTE   W12
 BYTE   N11
 BYTE   W12
 BYTE   N11
 BYTE   W12
 BYTE   Ds3
 BYTE   W12
 BYTE   N11
 BYTE   W12
 BYTE   N05  An2
 BYTE   W06
 BYTE   N05
 BYTE   W06
 BYTE   PEND 
// 065   ----------------------------------------
Label_5_5469C3:
 BYTE   N11  An2  v112
 BYTE   W12
 BYTE   Ds3
 BYTE   W12
 BYTE   N11
 BYTE   W12
 BYTE   An2
 BYTE   W12
 BYTE   N11
 BYTE   W12
 BYTE   Ds3
 BYTE   W12
 BYTE   An2
 BYTE   W12
 BYTE   N05  Ds3
 BYTE   W06
 BYTE   N05
 BYTE   W06
 BYTE   PEND 
// 066   ----------------------------------------
Label_5_5469D9:
 BYTE   N11  Ds3  v112
 BYTE   W12
 BYTE   An2
 BYTE   W12
 BYTE   N11
 BYTE   W12
 BYTE   N11
 BYTE   W12
 BYTE   Ds3
 BYTE   W12
 BYTE   An2
 BYTE   W12
 BYTE   N11
 BYTE   W12
 BYTE   N05
 BYTE   W06
 BYTE   N05
 BYTE   W06
 BYTE   PEND 
// 067   ----------------------------------------
 BYTE   PATT
  POIN2 Label_5_546998
// 068   ----------------------------------------
 BYTE   PATT
  POIN2 Label_5_5469AD
// 069   ----------------------------------------
 BYTE   PATT
  POIN2 Label_5_5469C3
// 070   ----------------------------------------
 BYTE   PATT
  POIN2 Label_5_5469D9
// 071   ----------------------------------------
 BYTE   N92  An2  v112
 BYTE   W96
// 072   ----------------------------------------
 BYTE   W96
// 073   ----------------------------------------
 BYTE   W96
// 074   ----------------------------------------
 BYTE   W96
// 075   ----------------------------------------
 BYTE   W96
// 076   ----------------------------------------
 BYTE   W96
// 077   ----------------------------------------
 BYTE   W96
// 078   ----------------------------------------
 BYTE   W96
// 079   ----------------------------------------
 BYTE   W96
// 080   ----------------------------------------
 BYTE   W96
// 081   ----------------------------------------
 BYTE   W96
// 082   ----------------------------------------
 BYTE   W96
// 083   ----------------------------------------
 BYTE   W96
// 084   ----------------------------------------
 BYTE   W96
// 085   ----------------------------------------
 BYTE   W96
// 086   ----------------------------------------
 BYTE   W96
// 087   ----------------------------------------
 BYTE   W96
// 088   ----------------------------------------
 BYTE   W96
// 089   ----------------------------------------
 BYTE   W96
// 090   ----------------------------------------
 BYTE   W96
// 091   ----------------------------------------
 BYTE   W96
// 092   ----------------------------------------
 BYTE   W96
// 093   ----------------------------------------
 BYTE   W96
// 094   ----------------------------------------
 BYTE   W96
// 095   ----------------------------------------
 BYTE   W96
// 096   ----------------------------------------
 BYTE   W96
// 097   ----------------------------------------
 BYTE   W96
// 098   ----------------------------------------
 BYTE   W96
// 099   ----------------------------------------
 BYTE   W96
// 100   ----------------------------------------
 BYTE   W96
// 101   ----------------------------------------
 BYTE   W96
// 102   ----------------------------------------
 BYTE   W96
// 103   ----------------------------------------
 BYTE   W96
// 104   ----------------------------------------
 BYTE   TIE  Cn3
 BYTE   TIE  An3  v124
 BYTE   W96
// 105   ----------------------------------------
 BYTE   W96
// 106   ----------------------------------------
 BYTE   W23
 BYTE   EOT
 BYTE   Cn3  v069
 BYTE   W72
 BYTE   W01
// 107   ----------------------------------------
 BYTE   W96
// 108   ----------------------------------------
 BYTE   W92
 BYTE   W03
 BYTE   GoTo
  POIN2 Label_5_546897
 BYTE   FINE

//**************** Track 7 (Midi-Chn.6) ****************//

PokemonBWVsGhetsisPurpleMage_007:
// 000   ----------------------------------------
 BYTE   KEYSH   PokemonBWVsGhetsisPurpleMage_key+0
 BYTE   VOICE   47
 BYTE   VOL   75*PokemonBWVsGhetsisPurpleMage_mvl/mxv
 BYTE   PAN   c_v-26
 BYTE   W72
 BYTE   N05  Cs1  v112
 BYTE   W06
 BYTE   Gn1
 BYTE   W06
 BYTE   Cs1
 BYTE   W06
 BYTE   Gn1
 BYTE   W06
// 001   ----------------------------------------
 BYTE   N92  Gn0
 BYTE   N92  Cs1
 BYTE   N92  Gn1
 BYTE   W96
// 002   ----------------------------------------
 BYTE   W96
// 003   ----------------------------------------
 BYTE   Dn1
 BYTE   W96
// 004   ----------------------------------------
 BYTE   N92
 BYTE   W96
// 005   ----------------------------------------
 BYTE   N92
 BYTE   W96
// 006   ----------------------------------------
 BYTE   N92
 BYTE   W96
// 007   ----------------------------------------
 BYTE   Gn0
 BYTE   W96
// 008   ----------------------------------------
 BYTE   N92
 BYTE   W96
// 009   ----------------------------------------
 BYTE   N92
 BYTE   W96
// 010   ----------------------------------------
 BYTE   N92
 BYTE   W96
// 011   ----------------------------------------
Label_6_18973B:
 BYTE   N92  Gn1  v112
 BYTE   W96
// 012   ----------------------------------------
 BYTE   N92
 BYTE   W96
// 013   ----------------------------------------
 BYTE   N92
 BYTE   W96
// 014   ----------------------------------------
 BYTE   N92
 BYTE   W96
// 015   ----------------------------------------
 BYTE   N92
 BYTE   W96
// 016   ----------------------------------------
 BYTE   N92
 BYTE   W96
// 017   ----------------------------------------
 BYTE   N92
 BYTE   W96
// 018   ----------------------------------------
 BYTE   N92
 BYTE   W96
// 019   ----------------------------------------
 BYTE   N92
 BYTE   W96
// 020   ----------------------------------------
 BYTE   N92
 BYTE   W96
// 021   ----------------------------------------
 BYTE   N92
 BYTE   W96
// 022   ----------------------------------------
 BYTE   N92
 BYTE   W96
// 023   ----------------------------------------
 BYTE   N92
 BYTE   W96
// 024   ----------------------------------------
 BYTE   N92
 BYTE   W96
// 025   ----------------------------------------
 BYTE   N92
 BYTE   W96
// 026   ----------------------------------------
 BYTE   N92
 BYTE   W96
// 027   ----------------------------------------
 BYTE   N92
 BYTE   W96
// 028   ----------------------------------------
 BYTE   N92
 BYTE   W96
// 029   ----------------------------------------
 BYTE   N92
 BYTE   W96
// 030   ----------------------------------------
 BYTE   N44
 BYTE   W48
 BYTE   Gn2  v124
 BYTE   W48
// 031   ----------------------------------------
 BYTE   N92  Gn1  v112
 BYTE   W96
// 032   ----------------------------------------
 BYTE   N92
 BYTE   W96
// 033   ----------------------------------------
 BYTE   N92
 BYTE   W96
// 034   ----------------------------------------
 BYTE   N92
 BYTE   W96
// 035   ----------------------------------------
 BYTE   N92
 BYTE   W96
// 036   ----------------------------------------
 BYTE   N92
 BYTE   W96
// 037   ----------------------------------------
 BYTE   N92
 BYTE   W96
// 038   ----------------------------------------
 BYTE   N92
 BYTE   W96
// 039   ----------------------------------------
 BYTE   N92
 BYTE   W96
// 040   ----------------------------------------
 BYTE   N92
 BYTE   W96
// 041   ----------------------------------------
 BYTE   N92
 BYTE   W96
// 042   ----------------------------------------
 BYTE   N92
 BYTE   W96
// 043   ----------------------------------------
 BYTE   N92
 BYTE   W96
// 044   ----------------------------------------
 BYTE   N92
 BYTE   W96
// 045   ----------------------------------------
 BYTE   N92
 BYTE   W96
// 046   ----------------------------------------
 BYTE   N92
 BYTE   W96
// 047   ----------------------------------------
 BYTE   N92
 BYTE   W96
// 048   ----------------------------------------
 BYTE   N92
 BYTE   W96
// 049   ----------------------------------------
 BYTE   N92
 BYTE   W96
// 050   ----------------------------------------
 BYTE   N92
 BYTE   W96
// 051   ----------------------------------------
 BYTE   N92
 BYTE   W96
// 052   ----------------------------------------
 BYTE   N92
 BYTE   W96
// 053   ----------------------------------------
 BYTE   N92
 BYTE   W96
// 054   ----------------------------------------
 BYTE   N92
 BYTE   W96
// 055   ----------------------------------------
 BYTE   Gn0
 BYTE   W96
// 056   ----------------------------------------
 BYTE   Gn1
 BYTE   W96
// 057   ----------------------------------------
 BYTE   Cs1
 BYTE   W96
// 058   ----------------------------------------
 BYTE   Gn1
 BYTE   W96
// 059   ----------------------------------------
 BYTE   N92
 BYTE   W96
// 060   ----------------------------------------
 BYTE   N92
 BYTE   W96
// 061   ----------------------------------------
 BYTE   N92
 BYTE   W96
// 062   ----------------------------------------
 BYTE   W72
 BYTE   N05  En2
 BYTE   W06
 BYTE   N05
 BYTE   W06
 BYTE   N05
 BYTE   W06
 BYTE   N05
 BYTE   W06
// 063   ----------------------------------------
Label_6_1897B2:
 BYTE   N23  Bn2  v127
 BYTE   W36
 BYTE   N11
 BYTE   W60
 BYTE   PEND 
// 064   ----------------------------------------
 BYTE   W96
// 065   ----------------------------------------
 BYTE   W96
// 066   ----------------------------------------
 BYTE   W96
// 067   ----------------------------------------
 BYTE   PATT
  POIN2 Label_6_1897B2
// 068   ----------------------------------------
 BYTE   W96
// 069   ----------------------------------------
 BYTE   W96
// 070   ----------------------------------------
 BYTE   W60
 BYTE   N11  En2  v127
 BYTE   W36
// 071   ----------------------------------------
 BYTE   N23
 BYTE   W96
// 072   ----------------------------------------
 BYTE   W96
// 073   ----------------------------------------
Label_6_1897CB:
 BYTE   N88  Gn1  v088
 BYTE   N88  Cs2
 BYTE   W90
 BYTE   N05  Fs1  v096
 BYTE   N05  Cn2
 BYTE   W06
 BYTE   PEND 
// 074   ----------------------------------------
 BYTE   N44  Fn1  v060
 BYTE   N44  Bn1
 BYTE   W96
// 075   ----------------------------------------
 BYTE   PATT
  POIN2 Label_6_1897CB
// 076   ----------------------------------------
 BYTE   N44  Fn1  v060
 BYTE   N44  Bn1
 BYTE   W96
// 077   ----------------------------------------
 BYTE   W96
// 078   ----------------------------------------
 BYTE   W96
// 079   ----------------------------------------
 BYTE   W96
// 080   ----------------------------------------
 BYTE   W96
// 081   ----------------------------------------
 BYTE   W96
// 082   ----------------------------------------
 BYTE   W96
// 083   ----------------------------------------
 BYTE   W96
// 084   ----------------------------------------
 BYTE   W96
// 085   ----------------------------------------
 BYTE   W96
// 086   ----------------------------------------
 BYTE   W96
// 087   ----------------------------------------
 BYTE   W96
// 088   ----------------------------------------
 BYTE   W96
// 089   ----------------------------------------
 BYTE   W96
// 090   ----------------------------------------
 BYTE   W96
// 091   ----------------------------------------
 BYTE   W96
// 092   ----------------------------------------
 BYTE   N92  Gn0  v112
 BYTE   W96
// 093   ----------------------------------------
 BYTE   W96
// 094   ----------------------------------------
 BYTE   W96
// 095   ----------------------------------------
 BYTE   W96
// 096   ----------------------------------------
 BYTE   N92
 BYTE   W96
// 097   ----------------------------------------
 BYTE   N23  Gn2
 BYTE   W96
// 098   ----------------------------------------
 BYTE   Cs2
 BYTE   W48
 BYTE   Gn2
 BYTE   W48
// 099   ----------------------------------------
 BYTE   W48
 BYTE   Cs2
 BYTE   W48
// 100   ----------------------------------------
 BYTE   Gn2
 BYTE   W96
// 101   ----------------------------------------
 BYTE   An3
 BYTE   W96
// 102   ----------------------------------------
 BYTE   N23
 BYTE   W48
 BYTE   N23
 BYTE   W48
// 103   ----------------------------------------
 BYTE   W48
 BYTE   Gn2
 BYTE   W48
// 104   ----------------------------------------
 BYTE   W96
// 105   ----------------------------------------
Label_6_189817:
 BYTE   N92  CsM1  v112
 BYTE   N92  Cs0
 BYTE   N92  Gn0
 BYTE   W96
 BYTE   PEND 
// 106   ----------------------------------------
 BYTE   PATT
  POIN2 Label_6_189817
// 107   ----------------------------------------
 BYTE   PATT
  POIN2 Label_6_189817
// 108   ----------------------------------------
 BYTE   N92  CsM1  v112
 BYTE   N92  Cs0
 BYTE   N92  Gn0
 BYTE   W92
 BYTE   W03
 BYTE   GoTo
  POIN2 Label_6_18973B
 BYTE   FINE

//**************** Track 8 (Midi-Chn.7) ****************//

PokemonBWVsGhetsisPurpleMage_008:
// 000   ----------------------------------------
 BYTE   KEYSH   PokemonBWVsGhetsisPurpleMage_key+0
 BYTE   VOICE   47
 BYTE   VOL   75*PokemonBWVsGhetsisPurpleMage_mvl/mxv
 BYTE   PAN   c_v+11
 BYTE   N68  Gn1  v127
 BYTE   N68  Gn2  v096
 BYTE   W72
 BYTE   N02  Cs1  v127
 BYTE   N02  Cs2  v088
 BYTE   W06
 BYTE   Gn1  v112
 BYTE   N02  Gn2  v072
 BYTE   W06
 BYTE   Fn1  v124
 BYTE   N02  Fn2  v084
 BYTE   W06
 BYTE   Cs1  v112
 BYTE   N02  Cs2  v072
 BYTE   W06
// 001   ----------------------------------------
 BYTE   N92  Cs1  v112
 BYTE   N92  Gn1
 BYTE   N92  Cs2  v127
 BYTE   W96
// 002   ----------------------------------------
 BYTE   W96
// 003   ----------------------------------------
Label_7_195D66:
 BYTE   N44  Cs1  v127
 BYTE   N23  Gn2  v072
 BYTE   W03
 BYTE   N48  Cs2  v088
 BYTE   W21
 BYTE   N23  Gn0
 BYTE   W24
 BYTE   N44  Gn1  v112
 BYTE   W03
 BYTE   Gn2  v072
 BYTE   W44
 BYTE   W01
 BYTE   PEND 
// 004   ----------------------------------------
 BYTE   PATT
  POIN2 Label_7_195D66
// 005   ----------------------------------------
 BYTE   PATT
  POIN2 Label_7_195D66
// 006   ----------------------------------------
 BYTE   N23  Cs1  v127
 BYTE   N23  Gn2  v072
 BYTE   W03
 BYTE   N24  Cs2  v088
 BYTE   W21
 BYTE   N23  Gn0
 BYTE   N23  Gn1  v112
 BYTE   W03
 BYTE   N24  Gn2  v072
 BYTE   W21
 BYTE   N44  Cs1  v112
 BYTE   W03
 BYTE   N68  Cs2  v072
 BYTE   W44
 BYTE   W01
// 007   ----------------------------------------
 BYTE   N44  Gn1  v112
 BYTE   W03
 BYTE   N48  Gn2  v096
 BYTE   W44
 BYTE   W01
 BYTE   N44  Cs1  v112
 BYTE   W03
 BYTE   N68  Cs2  v092
 BYTE   W44
 BYTE   W01
// 008   ----------------------------------------
 BYTE   N44  Gn1  v112
 BYTE   W03
 BYTE   N48  Gn2  v096
 BYTE   W44
 BYTE   W01
 BYTE   N44  Cs1  v112
 BYTE   W03
 BYTE   N68  Cs2  v100
 BYTE   W44
 BYTE   W01
// 009   ----------------------------------------
 BYTE   N44  Gn1  v124
 BYTE   W03
 BYTE   N48  Gn2  v104
 BYTE   W44
 BYTE   W01
 BYTE   N23  Cs1  v127
 BYTE   W03
 BYTE   N24  Cs2  v108
 BYTE   W21
 BYTE   N23  Gn1  v127
 BYTE   W03
 BYTE   N44  Gn2  v116
 BYTE   W21
// 010   ----------------------------------------
 BYTE   Cs1  v127
 BYTE   W03
 BYTE   N48  Cs2
 BYTE   W44
 BYTE   W01
 BYTE   N23  Gn1
 BYTE   W03
 BYTE   Gn2  v092
 BYTE   W21
 BYTE   N11  Gn1  v127
 BYTE   W03
 BYTE   N14  Gn2  v088
 BYTE   W09
 BYTE   N11  Cs1  v112
 BYTE   W12
// 011   ----------------------------------------
Label_7_195DFB:
 BYTE   N92  Cs1  v127
 BYTE   N92  Gn1
 BYTE   W96
// 012   ----------------------------------------
 BYTE   Cs1  v112
 BYTE   N92  Gn1
 BYTE   W96
// 013   ----------------------------------------
 BYTE   Cs1
 BYTE   N92  Gn1
 BYTE   W96
// 014   ----------------------------------------
 BYTE   Cs1
 BYTE   W96
// 015   ----------------------------------------
 BYTE   Cs1  v127
 BYTE   N92  Gn1
 BYTE   W96
// 016   ----------------------------------------
 BYTE   Cs1  v112
 BYTE   N92  Gn1
 BYTE   W96
// 017   ----------------------------------------
 BYTE   Cs1
 BYTE   N92  Gn1
 BYTE   W96
// 018   ----------------------------------------
 BYTE   Cs1
 BYTE   W96
// 019   ----------------------------------------
 BYTE   Cs1  v124
 BYTE   N92  Gn1
 BYTE   W96
// 020   ----------------------------------------
 BYTE   Cs1  v112
 BYTE   N92  Gn1
 BYTE   W96
// 021   ----------------------------------------
 BYTE   Cs1
 BYTE   N92  Gn1
 BYTE   W96
// 022   ----------------------------------------
 BYTE   Cs1
 BYTE   W96
// 023   ----------------------------------------
 BYTE   Cs1  v127
 BYTE   N92  Gn1
 BYTE   W96
// 024   ----------------------------------------
 BYTE   Cs1  v112
 BYTE   N92  Gn1
 BYTE   W96
// 025   ----------------------------------------
 BYTE   Cs1
 BYTE   N92  Gn1
 BYTE   W96
// 026   ----------------------------------------
 BYTE   Cs1
 BYTE   W96
// 027   ----------------------------------------
 BYTE   Cs1  v127
 BYTE   N44  Gn1
 BYTE   N36  Gn2  v088
 BYTE   W40
 BYTE   N01  Cs2  v100
 BYTE   W04
 BYTE   N01
 BYTE   W04
 BYTE   N44  Cs2  v124
 BYTE   W48
// 028   ----------------------------------------
 BYTE   N92  Cs1  v112
 BYTE   N44  Gn1
 BYTE   W48
 BYTE   Cs2  v116
 BYTE   W48
// 029   ----------------------------------------
Label_7_195E57:
 BYTE   N92  Cs1  v127
 BYTE   N44  Gn1
 BYTE   W48
 BYTE   Cs2  v112
 BYTE   W48
 BYTE   PEND 
// 030   ----------------------------------------
 BYTE   Cs1
 BYTE   W48
 BYTE   Gn1  v116
 BYTE   W48
// 031   ----------------------------------------
 BYTE   N92  Cs1  v112
 BYTE   N44  Gn1
 BYTE   W40
 BYTE   N01  Cs2  v100
 BYTE   W04
 BYTE   N01
 BYTE   W04
 BYTE   N44  Cs2  v112
 BYTE   W48
// 032   ----------------------------------------
 BYTE   PATT
  POIN2 Label_7_195E57
// 033   ----------------------------------------
 BYTE   N92  Cs1  v127
 BYTE   N44  Gn1
 BYTE   W48
 BYTE   Cs2  v124
 BYTE   W48
// 034   ----------------------------------------
 BYTE   Cs1  v112
 BYTE   W48
 BYTE   Gn1  v127
 BYTE   W48
// 035   ----------------------------------------
 BYTE   N92  Cs1
 BYTE   N92  Gn1
 BYTE   W96
// 036   ----------------------------------------
 BYTE   Cs1
 BYTE   N92  Gn1
 BYTE   W96
// 037   ----------------------------------------
 BYTE   N23  Gn1  v080
 BYTE   N23  Cs2  v112
 BYTE   W24
 BYTE   N23
 BYTE   W24
 BYTE   N23
 BYTE   W24
 BYTE   TIE  Gn1
 BYTE   W24
// 038   ----------------------------------------
 BYTE   W92
 BYTE   W03
 BYTE   EOT
 BYTE   W01
// 039   ----------------------------------------
 BYTE   N92  Cs1
 BYTE   N92  Gn1
 BYTE   W96
// 040   ----------------------------------------
 BYTE   Cs1
 BYTE   N92  Gn1
 BYTE   W96
// 041   ----------------------------------------
 BYTE   Cs1
 BYTE   N92  Gn1
 BYTE   W96
// 042   ----------------------------------------
 BYTE   Cs1
 BYTE   W96
// 043   ----------------------------------------
 BYTE   N92
 BYTE   N44  Gn1
 BYTE   W36
 BYTE   N05  Cs2  v127
 BYTE   W06
 BYTE   Cs2  v124
 BYTE   W06
 BYTE   N44  Cs2  v127
 BYTE   W48
// 044   ----------------------------------------
Label_7_195EC3:
 BYTE   N92  Cs1  v112
 BYTE   N44  Gn1
 BYTE   W48
 BYTE   Cs2  v127
 BYTE   W48
 BYTE   PEND 
// 045   ----------------------------------------
 BYTE   N92  Cs1  v112
 BYTE   N23  Cs2
 BYTE   W24
 BYTE   N23
 BYTE   W24
 BYTE   N23
 BYTE   W24
 BYTE   TIE  Gn1
 BYTE   W24
// 046   ----------------------------------------
Label_7_195EDA:
 BYTE   N92  Cs1  v112
 BYTE   W92
 BYTE   W03
 BYTE   PEND 
 BYTE   EOT
 BYTE   Gn1
 BYTE   W01
// 047   ----------------------------------------
 BYTE   N92  Cs1
 BYTE   N44  Gn1
 BYTE   W36
 BYTE   W01
 BYTE   N04  Cs2
 BYTE   W06
 BYTE   Cs2  v116
 BYTE   W05
 BYTE   N44  Cs2  v127
 BYTE   W48
// 048   ----------------------------------------
 BYTE   PATT
  POIN2 Label_7_195EC3
// 049   ----------------------------------------
 BYTE   N92  Cs1  v127
 BYTE   N23  Cs2
 BYTE   W24
 BYTE   Cs2  v112
 BYTE   W24
 BYTE   N23
 BYTE   W24
 BYTE   TIE  Gn1
 BYTE   W24
// 050   ----------------------------------------
 BYTE   PATT
  POIN2 Label_7_195EDA
// 051   ----------------------------------------
 BYTE   EOT
 BYTE   Gn1
 BYTE   W01
 BYTE   W96
// 052   ----------------------------------------
 BYTE   W96
// 053   ----------------------------------------
 BYTE   W96
// 054   ----------------------------------------
 BYTE   W96
// 055   ----------------------------------------
 BYTE   W96
// 056   ----------------------------------------
 BYTE   W96
// 057   ----------------------------------------
 BYTE   W96
// 058   ----------------------------------------
 BYTE   W96
// 059   ----------------------------------------
 BYTE   W96
// 060   ----------------------------------------
 BYTE   W96
// 061   ----------------------------------------
 BYTE   N32  Gn1  v088
 BYTE   N23  Gn2
 BYTE   W01
 BYTE   N32  Cs2  v127
 BYTE   W32
 BYTE   W03
 BYTE   Gn1
 BYTE   N23  Gn2  v096
 BYTE   W01
 BYTE   N32  Cs2  v127
 BYTE   W32
 BYTE   W03
 BYTE   N11  Gn1  v088
 BYTE   N11  Gn2
 BYTE   W01
 BYTE   N22  Cs2  v127
 BYTE   W23
// 062   ----------------------------------------
 BYTE   N32  Gn1
 BYTE   N23  Gn2  v092
 BYTE   W01
 BYTE   N32  Cs2  v127
 BYTE   W32
 BYTE   W03
 BYTE   Gn1
 BYTE   N23  Gn2  v088
 BYTE   W01
 BYTE   N32  Cs2  v127
 BYTE   W32
 BYTE   W03
 BYTE   N23  Cs2  v112
 BYTE   N11  Gn2  v088
 BYTE   W12
 BYTE   Gn1  v112
 BYTE   W12
// 063   ----------------------------------------
 BYTE   Cs2  v124
 BYTE   W12
 BYTE   Gn1  v112
 BYTE   W12
 BYTE   N11
 BYTE   W12
 BYTE   Cs2  v116
 BYTE   W12
 BYTE   Gn1  v112
 BYTE   W12
 BYTE   N05
 BYTE   W06
 BYTE   N05
 BYTE   W06
 BYTE   N11  Cs2  v120
 BYTE   W12
 BYTE   Gn1  v112
 BYTE   W12
// 064   ----------------------------------------
Label_7_195F6F:
 BYTE   N05  Gn1  v112
 BYTE   W06
 BYTE   Cs2
 BYTE   W06
 BYTE   N11  Gn1
 BYTE   W12
 BYTE   Cs2
 BYTE   W12
 BYTE   Gn1
 BYTE   W12
 BYTE   Cs2
 BYTE   W12
 BYTE   N11
 BYTE   W12
 BYTE   Gn1
 BYTE   W12
 BYTE   N11
 BYTE   W12
 BYTE   PEND 
// 065   ----------------------------------------
 BYTE   Cs2  v120
 BYTE   W12
 BYTE   Gn1  v112
 BYTE   W12
 BYTE   Cs2  v116
 BYTE   W12
 BYTE   Cs2  v120
 BYTE   W12
 BYTE   Gn1  v112
 BYTE   W12
 BYTE   N11
 BYTE   W12
 BYTE   Cs2  v124
 BYTE   W12
 BYTE   N05  Gn1  v112
 BYTE   W06
 BYTE   N05
 BYTE   W06
// 066   ----------------------------------------
 BYTE   N11  Cs2
 BYTE   W12
 BYTE   N11
 BYTE   W12
 BYTE   Gn1
 BYTE   W12
 BYTE   N11
 BYTE   W12
 BYTE   N11
 BYTE   W12
 BYTE   Cs2
 BYTE   W12
 BYTE   Gn1
 BYTE   W12
 BYTE   N11
 BYTE   W12
// 067   ----------------------------------------
 BYTE   Cs2
 BYTE   W12
 BYTE   Gn1
 BYTE   W12
 BYTE   N11
 BYTE   W12
 BYTE   Cs2
 BYTE   W12
 BYTE   Gn1
 BYTE   W12
 BYTE   N05
 BYTE   W06
 BYTE   N05
 BYTE   W06
 BYTE   N11  Cs2
 BYTE   W12
 BYTE   Gn1
 BYTE   W12
// 068   ----------------------------------------
 BYTE   PATT
  POIN2 Label_7_195F6F
// 069   ----------------------------------------
 BYTE   N11  Cs2  v112
 BYTE   W12
 BYTE   Gn1
 BYTE   W12
 BYTE   Cs2
 BYTE   W12
 BYTE   N11
 BYTE   W12
 BYTE   Gn1
 BYTE   W12
 BYTE   N11
 BYTE   W12
 BYTE   Cs2
 BYTE   W12
 BYTE   N05  Gn1
 BYTE   W06
 BYTE   N05
 BYTE   W06
// 070   ----------------------------------------
 BYTE   N11  Cs2
 BYTE   W12
 BYTE   N11
 BYTE   W12
 BYTE   Gn1
 BYTE   W12
 BYTE   N11
 BYTE   W12
 BYTE   N11
 BYTE   W12
 BYTE   Cs2
 BYTE   W12
 BYTE   N05  Gn1
 BYTE   W06
 BYTE   N05
 BYTE   W06
 BYTE   N05
 BYTE   W06
 BYTE   N05
 BYTE   W06
// 071   ----------------------------------------
 BYTE   N92  Cs1
 BYTE   N92  Gn1
 BYTE   N92  Cs2
 BYTE   W96
// 072   ----------------------------------------
 BYTE   W96
// 073   ----------------------------------------
 BYTE   Gn1
 BYTE   W96
// 074   ----------------------------------------
 BYTE   Cs1
 BYTE   W96
// 075   ----------------------------------------
 BYTE   Gn1
 BYTE   W96
// 076   ----------------------------------------
 BYTE   Cs1
 BYTE   W96
// 077   ----------------------------------------
 BYTE   Gn1
 BYTE   W96
// 078   ----------------------------------------
 BYTE   Cs1
 BYTE   W96
// 079   ----------------------------------------
 BYTE   Gn1
 BYTE   W96
// 080   ----------------------------------------
 BYTE   Cs1
 BYTE   W96
// 081   ----------------------------------------
 BYTE   W96
// 082   ----------------------------------------
 BYTE   W96
// 083   ----------------------------------------
 BYTE   W96
// 084   ----------------------------------------
 BYTE   W96
// 085   ----------------------------------------
 BYTE   W96
// 086   ----------------------------------------
 BYTE   W96
// 087   ----------------------------------------
 BYTE   W96
// 088   ----------------------------------------
 BYTE   W96
// 089   ----------------------------------------
 BYTE   N92
 BYTE   N92  Gn1
 BYTE   W96
// 090   ----------------------------------------
 BYTE   Cs1
 BYTE   N92  Gn1
 BYTE   W96
// 091   ----------------------------------------
 BYTE   Cs1
 BYTE   N92  Gn1
 BYTE   W96
// 092   ----------------------------------------
 BYTE   Cs1
 BYTE   W96
// 093   ----------------------------------------
 BYTE   N92
 BYTE   N92  Gn1
 BYTE   W96
// 094   ----------------------------------------
 BYTE   Cs1
 BYTE   N92  Gn1
 BYTE   W96
// 095   ----------------------------------------
 BYTE   Cs1
 BYTE   N92  Gn1
 BYTE   W96
// 096   ----------------------------------------
 BYTE   Cs1
 BYTE   W96
// 097   ----------------------------------------
 BYTE   W96
// 098   ----------------------------------------
 BYTE   W96
// 099   ----------------------------------------
 BYTE   W96
// 100   ----------------------------------------
 BYTE   W96
// 101   ----------------------------------------
 BYTE   W96
// 102   ----------------------------------------
 BYTE   W96
// 103   ----------------------------------------
 BYTE   W48
 BYTE   N07  Cs2  v116
 BYTE   W03
 BYTE   W01
 BYTE   W01
 BYTE   W03
 BYTE   N07
 BYTE   W03
 BYTE   W01
 BYTE   W01
 BYTE   W03
 BYTE   Cs2  v120
 BYTE   W03
 BYTE   W01
 BYTE   W01
 BYTE   W03
 BYTE   Cs2  v124
 BYTE   W03
 BYTE   W01
 BYTE   W01
 BYTE   W03
 BYTE   Cs2  v127
 BYTE   W03
 BYTE   W01
 BYTE   W01
 BYTE   W03
 BYTE   N07
 BYTE   W03
 BYTE   W01
 BYTE   W01
 BYTE   W03
// 104   ----------------------------------------
 BYTE   N92  Gs1
 BYTE   W03
 BYTE   W01
 BYTE   W01
 BYTE   W90
 BYTE   W01
// 105   ----------------------------------------
Label_7_196060:
 BYTE   N44  Cs1  v127
 BYTE   W24
 BYTE   N23  Gs0  v080
 BYTE   W24
 BYTE   N44  Gn1  v112
 BYTE   N44  Gn2
 BYTE   W48
 BYTE   PEND 
// 106   ----------------------------------------
 BYTE   PATT
  POIN2 Label_7_196060
// 107   ----------------------------------------
 BYTE   N44  Cs1  v127
 BYTE   W24
 BYTE   N23  Gs0  v080
 BYTE   W24
 BYTE   N44  Gn1  v112
 BYTE   W01
 BYTE   Gn2
 BYTE   W44
 BYTE   W03
// 108   ----------------------------------------
 BYTE   N23  Cs1  v127
 BYTE   W24
 BYTE   Gs0  v080
 BYTE   N23  Gn1  v112
 BYTE   N23  Gn2
 BYTE   W24
 BYTE   N44  Cs1
 BYTE   W44
 BYTE   W03
 BYTE   GoTo
  POIN2 Label_7_195DFB
 BYTE   FINE

//**************** Track 9 (Midi-Chn.8) ****************//

PokemonBWVsGhetsisPurpleMage_009:
// 000   ----------------------------------------
 BYTE   KEYSH   PokemonBWVsGhetsisPurpleMage_key+0
 BYTE   VOICE   116
 BYTE   VOL   59*PokemonBWVsGhetsisPurpleMage_mvl/mxv
 BYTE   PAN   c_v+0
 BYTE   W96
// 001   ----------------------------------------
 BYTE   W96
// 002   ----------------------------------------
 BYTE   W96
// 003   ----------------------------------------
 BYTE   W96
// 004   ----------------------------------------
 BYTE   W96
// 005   ----------------------------------------
 BYTE   W96
// 006   ----------------------------------------
 BYTE   W96
// 007   ----------------------------------------
 BYTE   W96
// 008   ----------------------------------------
 BYTE   W96
// 009   ----------------------------------------
 BYTE   W96
// 010   ----------------------------------------
 BYTE   W96
// 011   ----------------------------------------
Label_8_5473CF:
 BYTE   W96
// 012   ----------------------------------------
 BYTE   W96
// 013   ----------------------------------------
 BYTE   W96
// 014   ----------------------------------------
 BYTE   W96
// 015   ----------------------------------------
 BYTE   W96
// 016   ----------------------------------------
 BYTE   W96
// 017   ----------------------------------------
 BYTE   W96
// 018   ----------------------------------------
 BYTE   W96
// 019   ----------------------------------------
 BYTE   W96
// 020   ----------------------------------------
 BYTE   W96
// 021   ----------------------------------------
 BYTE   W96
// 022   ----------------------------------------
 BYTE   W96
// 023   ----------------------------------------
 BYTE   W96
// 024   ----------------------------------------
 BYTE   W96
// 025   ----------------------------------------
 BYTE   W96
// 026   ----------------------------------------
 BYTE   W96
// 027   ----------------------------------------
 BYTE   W96
// 028   ----------------------------------------
 BYTE   W96
// 029   ----------------------------------------
 BYTE   W96
// 030   ----------------------------------------
 BYTE   W96
// 031   ----------------------------------------
 BYTE   W96
// 032   ----------------------------------------
 BYTE   W96
// 033   ----------------------------------------
 BYTE   W96
// 034   ----------------------------------------
 BYTE   W96
// 035   ----------------------------------------
 BYTE   W96
// 036   ----------------------------------------
 BYTE   W96
// 037   ----------------------------------------
 BYTE   W96
// 038   ----------------------------------------
 BYTE   W96
// 039   ----------------------------------------
 BYTE   W96
// 040   ----------------------------------------
 BYTE   W96
// 041   ----------------------------------------
 BYTE   W96
// 042   ----------------------------------------
 BYTE   W96
// 043   ----------------------------------------
Label_8_5473EF:
 BYTE   N11  Gn4  v112
 BYTE   W12
 BYTE   Cs4
 BYTE   W12
 BYTE   Gn4
 BYTE   W12
 BYTE   Cs5
 BYTE   W12
 BYTE   Gn5
 BYTE   W12
 BYTE   Cs5
 BYTE   W12
 BYTE   Gn4
 BYTE   W12
 BYTE   Cs4
 BYTE   W12
 BYTE   PEND 
// 044   ----------------------------------------
Label_8_547402:
 BYTE   N11  Gn4  v112
 BYTE   W12
 BYTE   Cs5
 BYTE   W12
 BYTE   Gn4
 BYTE   W12
 BYTE   Cs5
 BYTE   W12
 BYTE   Gn5
 BYTE   W12
 BYTE   Cs5
 BYTE   W12
 BYTE   Gn4
 BYTE   W12
 BYTE   Cs4
 BYTE   W12
 BYTE   PEND 
// 045   ----------------------------------------
 BYTE   PATT
  POIN2 Label_8_5473EF
// 046   ----------------------------------------
Label_8_54741A:
 BYTE   N11  Gn4  v112
 BYTE   W12
 BYTE   Cs5
 BYTE   W12
 BYTE   Gn5
 BYTE   W12
 BYTE   Fn5
 BYTE   W12
 BYTE   Cs5
 BYTE   W12
 BYTE   Gn4
 BYTE   W12
 BYTE   Cs4
 BYTE   W12
 BYTE   Gn3
 BYTE   W12
 BYTE   PEND 
// 047   ----------------------------------------
 BYTE   PATT
  POIN2 Label_8_5473EF
// 048   ----------------------------------------
 BYTE   PATT
  POIN2 Label_8_547402
// 049   ----------------------------------------
 BYTE   PATT
  POIN2 Label_8_5473EF
// 050   ----------------------------------------
 BYTE   PATT
  POIN2 Label_8_54741A
// 051   ----------------------------------------
 BYTE   W96
// 052   ----------------------------------------
 BYTE   W96
// 053   ----------------------------------------
 BYTE   W96
// 054   ----------------------------------------
 BYTE   W96
// 055   ----------------------------------------
 BYTE   W96
// 056   ----------------------------------------
 BYTE   W96
// 057   ----------------------------------------
 BYTE   W96
// 058   ----------------------------------------
 BYTE   W96
// 059   ----------------------------------------
 BYTE   W96
// 060   ----------------------------------------
 BYTE   W96
// 061   ----------------------------------------
 BYTE   W96
// 062   ----------------------------------------
 BYTE   W96
// 063   ----------------------------------------
 BYTE   W96
// 064   ----------------------------------------
 BYTE   W96
// 065   ----------------------------------------
 BYTE   W96
// 066   ----------------------------------------
 BYTE   W96
// 067   ----------------------------------------
 BYTE   W96
// 068   ----------------------------------------
 BYTE   W96
// 069   ----------------------------------------
 BYTE   W96
// 070   ----------------------------------------
 BYTE   W96
// 071   ----------------------------------------
 BYTE   W96
// 072   ----------------------------------------
 BYTE   W96
// 073   ----------------------------------------
 BYTE   W96
// 074   ----------------------------------------
 BYTE   W96
// 075   ----------------------------------------
 BYTE   W96
// 076   ----------------------------------------
 BYTE   W96
// 077   ----------------------------------------
 BYTE   W96
// 078   ----------------------------------------
 BYTE   W96
// 079   ----------------------------------------
 BYTE   W96
// 080   ----------------------------------------
 BYTE   W96
// 081   ----------------------------------------
 BYTE   W96
// 082   ----------------------------------------
 BYTE   W96
// 083   ----------------------------------------
 BYTE   W96
// 084   ----------------------------------------
 BYTE   W96
// 085   ----------------------------------------
 BYTE   W96
// 086   ----------------------------------------
 BYTE   W96
// 087   ----------------------------------------
 BYTE   W96
// 088   ----------------------------------------
 BYTE   W96
// 089   ----------------------------------------
 BYTE   W96
// 090   ----------------------------------------
 BYTE   W96
// 091   ----------------------------------------
 BYTE   W96
// 092   ----------------------------------------
 BYTE   W96
// 093   ----------------------------------------
 BYTE   W96
// 094   ----------------------------------------
 BYTE   W96
// 095   ----------------------------------------
 BYTE   W96
// 096   ----------------------------------------
 BYTE   W96
// 097   ----------------------------------------
 BYTE   W96
// 098   ----------------------------------------
 BYTE   W96
// 099   ----------------------------------------
 BYTE   W96
// 100   ----------------------------------------
 BYTE   W96
// 101   ----------------------------------------
 BYTE   W96
// 102   ----------------------------------------
 BYTE   W96
// 103   ----------------------------------------
 BYTE   W96
// 104   ----------------------------------------
 BYTE   W96
// 105   ----------------------------------------
 BYTE   W96
// 106   ----------------------------------------
 BYTE   W96
// 107   ----------------------------------------
 BYTE   W96
// 108   ----------------------------------------
 BYTE   W92
 BYTE   W03
 BYTE   GoTo
  POIN2 Label_8_5473CF
 BYTE   FINE

//**************** Track 10 (Midi-Chn.9) ****************//

PokemonBWVsGhetsisPurpleMage_010:
// 000   ----------------------------------------
 BYTE   KEYSH   PokemonBWVsGhetsisPurpleMage_key+0
 BYTE   VOICE   52
 BYTE   VOL   75*PokemonBWVsGhetsisPurpleMage_mvl/mxv
 BYTE   PAN   c_v-33
 BYTE   W96
// 001   ----------------------------------------
 BYTE   W96
// 002   ----------------------------------------
 BYTE   W96
// 003   ----------------------------------------
 BYTE   W96
// 004   ----------------------------------------
 BYTE   W96
// 005   ----------------------------------------
 BYTE   W96
// 006   ----------------------------------------
 BYTE   W96
// 007   ----------------------------------------
 BYTE   W96
// 008   ----------------------------------------
 BYTE   W96
// 009   ----------------------------------------
 BYTE   W96
// 010   ----------------------------------------
 BYTE   W96
// 011   ----------------------------------------
Label_9_1960BF:
 BYTE   W96
// 012   ----------------------------------------
 BYTE   W96
// 013   ----------------------------------------
 BYTE   W96
// 014   ----------------------------------------
 BYTE   W96
// 015   ----------------------------------------
 BYTE   W96
// 016   ----------------------------------------
 BYTE   W96
// 017   ----------------------------------------
 BYTE   W96
// 018   ----------------------------------------
 BYTE   W96
// 019   ----------------------------------------
 BYTE   W96
// 020   ----------------------------------------
 BYTE   W96
// 021   ----------------------------------------
 BYTE   W96
// 022   ----------------------------------------
 BYTE   W96
// 023   ----------------------------------------
 BYTE   W96
// 024   ----------------------------------------
 BYTE   W96
// 025   ----------------------------------------
 BYTE   W96
// 026   ----------------------------------------
 BYTE   W96
// 027   ----------------------------------------
 BYTE   W96
// 028   ----------------------------------------
 BYTE   W96
// 029   ----------------------------------------
 BYTE   W96
// 030   ----------------------------------------
 BYTE   W96
// 031   ----------------------------------------
 BYTE   W96
// 032   ----------------------------------------
 BYTE   W96
// 033   ----------------------------------------
 BYTE   W96
// 034   ----------------------------------------
 BYTE   W96
// 035   ----------------------------------------
 BYTE   W96
// 036   ----------------------------------------
 BYTE   W96
// 037   ----------------------------------------
 BYTE   W96
// 038   ----------------------------------------
 BYTE   W96
// 039   ----------------------------------------
 BYTE   W96
// 040   ----------------------------------------
 BYTE   W96
// 041   ----------------------------------------
 BYTE   W96
// 042   ----------------------------------------
 BYTE   W96
// 043   ----------------------------------------
 BYTE   W96
// 044   ----------------------------------------
 BYTE   W96
// 045   ----------------------------------------
 BYTE   W96
// 046   ----------------------------------------
 BYTE   W96
// 047   ----------------------------------------
 BYTE   W96
// 048   ----------------------------------------
 BYTE   W96
// 049   ----------------------------------------
 BYTE   W96
// 050   ----------------------------------------
 BYTE   W96
// 051   ----------------------------------------
 BYTE   W96
// 052   ----------------------------------------
 BYTE   W96
// 053   ----------------------------------------
 BYTE   W96
// 054   ----------------------------------------
 BYTE   W96
// 055   ----------------------------------------
 BYTE   W96
// 056   ----------------------------------------
 BYTE   W96
// 057   ----------------------------------------
 BYTE   W96
// 058   ----------------------------------------
 BYTE   W96
// 059   ----------------------------------------
 BYTE   W96
// 060   ----------------------------------------
 BYTE   W96
// 061   ----------------------------------------
 BYTE   W96
// 062   ----------------------------------------
 BYTE   W96
// 063   ----------------------------------------
 BYTE   W96
// 064   ----------------------------------------
 BYTE   W96
// 065   ----------------------------------------
 BYTE   W96
// 066   ----------------------------------------
 BYTE   W96
// 067   ----------------------------------------
 BYTE   W96
// 068   ----------------------------------------
 BYTE   W96
// 069   ----------------------------------------
 BYTE   W96
// 070   ----------------------------------------
 BYTE   W96
// 071   ----------------------------------------
 BYTE   W96
// 072   ----------------------------------------
 BYTE   W96
// 073   ----------------------------------------
 BYTE   W96
// 074   ----------------------------------------
 BYTE   W96
// 075   ----------------------------------------
 BYTE   W96
// 076   ----------------------------------------
 BYTE   W96
// 077   ----------------------------------------
Label_9_196101:
 BYTE   N92  Cs3  v112
 BYTE   N92  Gn3
 BYTE   N92  Cs4
 BYTE   W96
 BYTE   PEND 
// 078   ----------------------------------------
Label_9_19610A:
 BYTE   N11  Cn3  v112
 BYTE   N11  Fs3
 BYTE   N11  Cn4
 BYTE   W96
 BYTE   PEND 
// 079   ----------------------------------------
 BYTE   PATT
  POIN2 Label_9_196101
// 080   ----------------------------------------
 BYTE   PATT
  POIN2 Label_9_19610A
// 081   ----------------------------------------
Label_9_19611D:
 BYTE   N44  Gn3  v072
 BYTE   N44  Cs4  v092
 BYTE   W48
 BYTE   Cs4  v088
 BYTE   N44  Gn4  v096
 BYTE   W48
 BYTE   PEND 
// 082   ----------------------------------------
Label_9_19612B:
 BYTE   N44  Gn4  v072
 BYTE   N44  Cs5  v104
 BYTE   W48
 BYTE   Cs4  v100
 BYTE   N44  Gn4
 BYTE   W48
 BYTE   PEND 
// 083   ----------------------------------------
Label_9_196138:
 BYTE   N44  Ds4  v100
 BYTE   N44  An4
 BYTE   W48
 BYTE   Cs4  v088
 BYTE   N44  Gn4
 BYTE   W48
 BYTE   PEND 
// 084   ----------------------------------------
 BYTE   W96
// 085   ----------------------------------------
 BYTE   PATT
  POIN2 Label_9_19611D
// 086   ----------------------------------------
 BYTE   PATT
  POIN2 Label_9_19612B
// 087   ----------------------------------------
 BYTE   PATT
  POIN2 Label_9_196138
// 088   ----------------------------------------
 BYTE   W96
// 089   ----------------------------------------
 BYTE   W96
// 090   ----------------------------------------
 BYTE   W96
// 091   ----------------------------------------
 BYTE   W96
// 092   ----------------------------------------
 BYTE   W96
// 093   ----------------------------------------
 BYTE   PATT
  POIN2 Label_9_196101
// 094   ----------------------------------------
 BYTE   PATT
  POIN2 Label_9_19610A
// 095   ----------------------------------------
 BYTE   PATT
  POIN2 Label_9_196101
// 096   ----------------------------------------
 BYTE   PATT
  POIN2 Label_9_19610A
// 097   ----------------------------------------
 BYTE   N92  Cs3  v112
 BYTE   TIE  Bn3
 BYTE   W42
 BYTE   W01
 BYTE   W21
 BYTE   W22
 BYTE   W10
// 098   ----------------------------------------
 BYTE   N92  Dn3
 BYTE   W12
 BYTE   W21
 BYTE   W22
 BYTE   W22
 BYTE   W18
 BYTE   EOT
 BYTE   Bn3
 BYTE   W01
// 099   ----------------------------------------
 BYTE   N92  Ds3
 BYTE   TIE  As3
 BYTE   W02
 BYTE   W22
 BYTE   W22
 BYTE   W21
 BYTE   W22
 BYTE   W07
// 100   ----------------------------------------
 BYTE   N92  Dn3
 BYTE   W15
 BYTE   W21
 BYTE   W22
 BYTE   W22
 BYTE   W15
 BYTE   EOT
 BYTE   As3
 BYTE   W01
// 101   ----------------------------------------
 BYTE   N92  Ds3
 BYTE   TIE  Bn3
 BYTE   N92  Ds4
 BYTE   W05
 BYTE   W22
 BYTE   W22
 BYTE   W21
 BYTE   W22
 BYTE   W04
// 102   ----------------------------------------
 BYTE   N44  En3
 BYTE   W17
 BYTE   W22
 BYTE   W09
 BYTE   N92  Fn3
 BYTE   W13
 BYTE   W21
 BYTE   W13
 BYTE   EOT
 BYTE   Bn3
 BYTE   W01
// 103   ----------------------------------------
 BYTE   TIE  Cs4
 BYTE   W08
 BYTE   W22
 BYTE   W18
 BYTE   N44  Fs3
 BYTE   W03
 BYTE   W22
 BYTE   W22
 BYTE   W01
// 104   ----------------------------------------
 BYTE   N92  Gn3
 BYTE   W92
 BYTE   W03
 BYTE   EOT
 BYTE   Cs4
 BYTE   W01
// 105   ----------------------------------------
 BYTE   W96
// 106   ----------------------------------------
 BYTE   W96
// 107   ----------------------------------------
 BYTE   W96
// 108   ----------------------------------------
 BYTE   W92
 BYTE   W03
 BYTE   GoTo
  POIN2 Label_9_1960BF
 BYTE   FINE

//**************** Track 11 (Midi-Chn.10) ****************//

PokemonBWVsGhetsisPurpleMage_011:
// 000   ----------------------------------------
 BYTE   KEYSH   PokemonBWVsGhetsisPurpleMage_key+0
 BYTE   VOICE   52
 BYTE   VOL   72*PokemonBWVsGhetsisPurpleMage_mvl/mxv
 BYTE   PAN   c_v+26
 BYTE   W96
// 001   ----------------------------------------
 BYTE   W96
// 002   ----------------------------------------
 BYTE   W96
// 003   ----------------------------------------
 BYTE   W96
// 004   ----------------------------------------
 BYTE   W96
// 005   ----------------------------------------
 BYTE   W96
// 006   ----------------------------------------
 BYTE   W96
// 007   ----------------------------------------
 BYTE   W96
// 008   ----------------------------------------
 BYTE   W96
// 009   ----------------------------------------
 BYTE   W96
// 010   ----------------------------------------
 BYTE   W96
// 011   ----------------------------------------
Label_10_1961F3:
 BYTE   W96
// 012   ----------------------------------------
 BYTE   W96
// 013   ----------------------------------------
 BYTE   W96
// 014   ----------------------------------------
 BYTE   W96
// 015   ----------------------------------------
 BYTE   W96
// 016   ----------------------------------------
 BYTE   W96
// 017   ----------------------------------------
 BYTE   W96
// 018   ----------------------------------------
 BYTE   W96
// 019   ----------------------------------------
 BYTE   W96
// 020   ----------------------------------------
 BYTE   W96
// 021   ----------------------------------------
 BYTE   W96
// 022   ----------------------------------------
 BYTE   W96
// 023   ----------------------------------------
 BYTE   W96
// 024   ----------------------------------------
 BYTE   W96
// 025   ----------------------------------------
 BYTE   W96
// 026   ----------------------------------------
 BYTE   W96
// 027   ----------------------------------------
 BYTE   W96
// 028   ----------------------------------------
 BYTE   W96
// 029   ----------------------------------------
 BYTE   W96
// 030   ----------------------------------------
 BYTE   W96
// 031   ----------------------------------------
 BYTE   W96
// 032   ----------------------------------------
 BYTE   W96
// 033   ----------------------------------------
 BYTE   W96
// 034   ----------------------------------------
 BYTE   W96
// 035   ----------------------------------------
 BYTE   W96
// 036   ----------------------------------------
 BYTE   W96
// 037   ----------------------------------------
 BYTE   W96
// 038   ----------------------------------------
 BYTE   W96
// 039   ----------------------------------------
 BYTE   W96
// 040   ----------------------------------------
 BYTE   W96
// 041   ----------------------------------------
 BYTE   W96
// 042   ----------------------------------------
 BYTE   W96
// 043   ----------------------------------------
 BYTE   W96
// 044   ----------------------------------------
 BYTE   W96
// 045   ----------------------------------------
 BYTE   W96
// 046   ----------------------------------------
 BYTE   W96
// 047   ----------------------------------------
 BYTE   W96
// 048   ----------------------------------------
 BYTE   W96
// 049   ----------------------------------------
 BYTE   W96
// 050   ----------------------------------------
 BYTE   W96
// 051   ----------------------------------------
 BYTE   W96
// 052   ----------------------------------------
 BYTE   W96
// 053   ----------------------------------------
 BYTE   W96
// 054   ----------------------------------------
 BYTE   W96
// 055   ----------------------------------------
 BYTE   W96
// 056   ----------------------------------------
 BYTE   W96
// 057   ----------------------------------------
 BYTE   W96
// 058   ----------------------------------------
 BYTE   W96
// 059   ----------------------------------------
 BYTE   W96
// 060   ----------------------------------------
 BYTE   W96
// 061   ----------------------------------------
 BYTE   W96
// 062   ----------------------------------------
 BYTE   W96
// 063   ----------------------------------------
 BYTE   W96
// 064   ----------------------------------------
 BYTE   W96
// 065   ----------------------------------------
 BYTE   W96
// 066   ----------------------------------------
 BYTE   W96
// 067   ----------------------------------------
 BYTE   W96
// 068   ----------------------------------------
 BYTE   W96
// 069   ----------------------------------------
 BYTE   W96
// 070   ----------------------------------------
 BYTE   W96
// 071   ----------------------------------------
 BYTE   W96
// 072   ----------------------------------------
 BYTE   W96
// 073   ----------------------------------------
 BYTE   N92  Gn2  v112
 BYTE   N92  Cs3
 BYTE   W96
// 074   ----------------------------------------
 BYTE   N11  Fs2
 BYTE   N11  Cn3
 BYTE   W96
// 075   ----------------------------------------
 BYTE   N92  Gn2
 BYTE   N92  Cs3
 BYTE   W96
// 076   ----------------------------------------
 BYTE   N11  Fs2
 BYTE   N11  Cn3
 BYTE   W96
// 077   ----------------------------------------
 BYTE   N92  Cs2
 BYTE   N92  Gn2
 BYTE   W96
// 078   ----------------------------------------
 BYTE   N11  Cn2
 BYTE   N11  Fs2
 BYTE   W96
// 079   ----------------------------------------
 BYTE   N92  Cs2
 BYTE   N92  Gn2
 BYTE   W96
// 080   ----------------------------------------
 BYTE   N11  Cn2
 BYTE   N11  Fs2
 BYTE   W96
// 081   ----------------------------------------
Label_10_19625A:
 BYTE   N44  Gn1  v072
 BYTE   N44  Cs2  v092
 BYTE   W48
 BYTE   Cs2  v088
 BYTE   N44  Gn2  v096
 BYTE   W48
 BYTE   PEND 
// 082   ----------------------------------------
Label_10_196268:
 BYTE   N44  Gn2  v072
 BYTE   N44  Cs3  v104
 BYTE   W48
 BYTE   Cs2  v072
 BYTE   N44  Gn2  v104
 BYTE   W48
 BYTE   PEND 
// 083   ----------------------------------------
Label_10_196276:
 BYTE   N44  Ds2  v112
 BYTE   N44  An2
 BYTE   W48
 BYTE   Cs2
 BYTE   N44  Gn2  v096
 BYTE   W48
 BYTE   PEND 
// 084   ----------------------------------------
 BYTE   W96
// 085   ----------------------------------------
 BYTE   PATT
  POIN2 Label_10_19625A
// 086   ----------------------------------------
 BYTE   PATT
  POIN2 Label_10_196268
// 087   ----------------------------------------
 BYTE   PATT
  POIN2 Label_10_196276
// 088   ----------------------------------------
 BYTE   W96
// 089   ----------------------------------------
 BYTE   N92  Gn2  v112
 BYTE   N92  Cs3
 BYTE   W96
// 090   ----------------------------------------
 BYTE   N11  Fs2
 BYTE   N11  Cn3
 BYTE   W96
// 091   ----------------------------------------
 BYTE   N92  Gn2
 BYTE   N92  Cs3
 BYTE   W96
// 092   ----------------------------------------
 BYTE   N11  Fs2
 BYTE   N11  Cn3
 BYTE   W96
// 093   ----------------------------------------
 BYTE   N92  Cs2
 BYTE   N92  Gn2
 BYTE   W96
// 094   ----------------------------------------
 BYTE   N11  Cn2
 BYTE   N11  Fs2
 BYTE   W96
// 095   ----------------------------------------
 BYTE   N92  Cs2
 BYTE   N92  Gn2
 BYTE   W96
// 096   ----------------------------------------
 BYTE   N11  Cn2
 BYTE   N11  Fs2
 BYTE   W96
// 097   ----------------------------------------
 BYTE   N92  Cs2
 BYTE   N96  Bn2
 BYTE   W42
 BYTE   W01
 BYTE   W21
 BYTE   W22
 BYTE   W10
// 098   ----------------------------------------
 BYTE   N92  Dn2
 BYTE   N68  Bn2
 BYTE   W12
 BYTE   W21
 BYTE   W22
 BYTE   W22
 BYTE   W19
// 099   ----------------------------------------
 BYTE   N92  Ds2
 BYTE   N96  As2
 BYTE   W02
 BYTE   W22
 BYTE   W22
 BYTE   W21
 BYTE   W22
 BYTE   W07
// 100   ----------------------------------------
 BYTE   N92  Dn2
 BYTE   N68  As2
 BYTE   W15
 BYTE   W21
 BYTE   W22
 BYTE   W22
 BYTE   W16
// 101   ----------------------------------------
 BYTE   N92  Ds2
 BYTE   N96  Bn2
 BYTE   W05
 BYTE   W22
 BYTE   W22
 BYTE   W21
 BYTE   W22
 BYTE   W04
// 102   ----------------------------------------
 BYTE   N44  En2
 BYTE   N68  Bn2
 BYTE   W17
 BYTE   W22
 BYTE   W09
 BYTE   N44  Fn2
 BYTE   W13
 BYTE   W21
 BYTE   W14
// 103   ----------------------------------------
 BYTE   N44
 BYTE   TIE  Cs3
 BYTE   W08
 BYTE   W22
 BYTE   W18
 BYTE   N44  Fs2
 BYTE   W03
 BYTE   W22
 BYTE   W22
 BYTE   W01
// 104   ----------------------------------------
 BYTE   N92  Gn2
 BYTE   W92
 BYTE   W03
 BYTE   EOT
 BYTE   Cs3
 BYTE   W01
// 105   ----------------------------------------
 BYTE   W96
// 106   ----------------------------------------
 BYTE   W96
// 107   ----------------------------------------
 BYTE   W96
// 108   ----------------------------------------
 BYTE   W92
 BYTE   W03
 BYTE   GoTo
  POIN2 Label_10_1961F3
 BYTE   FINE

//**************** Track 12 (Midi-Chn.11) ****************//

PokemonBWVsGhetsisPurpleMage_012:
// 000   ----------------------------------------
 BYTE   KEYSH   PokemonBWVsGhetsisPurpleMage_key+0
 BYTE   VOICE   48
 BYTE   VOL   59*PokemonBWVsGhetsisPurpleMage_mvl/mxv
 BYTE   PAN   c_v-28
 BYTE   W96
// 001   ----------------------------------------
 BYTE   W96
// 002   ----------------------------------------
 BYTE   W96
// 003   ----------------------------------------
 BYTE   W96
// 004   ----------------------------------------
 BYTE   W96
// 005   ----------------------------------------
 BYTE   W96
// 006   ----------------------------------------
 BYTE   W96
// 007   ----------------------------------------
 BYTE   W96
// 008   ----------------------------------------
 BYTE   W96
// 009   ----------------------------------------
 BYTE   W96
// 010   ----------------------------------------
 BYTE   W96
// 011   ----------------------------------------
Label_11_19633B:
 BYTE   W96
// 012   ----------------------------------------
 BYTE   W96
// 013   ----------------------------------------
 BYTE   W96
// 014   ----------------------------------------
 BYTE   W96
// 015   ----------------------------------------
 BYTE   W96
// 016   ----------------------------------------
 BYTE   W96
// 017   ----------------------------------------
 BYTE   W96
// 018   ----------------------------------------
 BYTE   W96
// 019   ----------------------------------------
 BYTE   W96
// 020   ----------------------------------------
 BYTE   W96
// 021   ----------------------------------------
 BYTE   W96
// 022   ----------------------------------------
 BYTE   W96
// 023   ----------------------------------------
 BYTE   W96
// 024   ----------------------------------------
 BYTE   W96
// 025   ----------------------------------------
 BYTE   W96
// 026   ----------------------------------------
 BYTE   W96
// 027   ----------------------------------------
 BYTE   W96
// 028   ----------------------------------------
 BYTE   W96
// 029   ----------------------------------------
 BYTE   W96
// 030   ----------------------------------------
 BYTE   W96
// 031   ----------------------------------------
 BYTE   W96
// 032   ----------------------------------------
 BYTE   W96
// 033   ----------------------------------------
 BYTE   W96
// 034   ----------------------------------------
 BYTE   W96
// 035   ----------------------------------------
 BYTE   W96
// 036   ----------------------------------------
 BYTE   W96
// 037   ----------------------------------------
 BYTE   W96
// 038   ----------------------------------------
 BYTE   W96
// 039   ----------------------------------------
 BYTE   W96
// 040   ----------------------------------------
 BYTE   W96
// 041   ----------------------------------------
 BYTE   W96
// 042   ----------------------------------------
 BYTE   W96
// 043   ----------------------------------------
 BYTE   W96
// 044   ----------------------------------------
 BYTE   W96
// 045   ----------------------------------------
 BYTE   W96
// 046   ----------------------------------------
 BYTE   W96
// 047   ----------------------------------------
 BYTE   W96
// 048   ----------------------------------------
 BYTE   W96
// 049   ----------------------------------------
 BYTE   W96
// 050   ----------------------------------------
 BYTE   W96
// 051   ----------------------------------------
 BYTE   W96
// 052   ----------------------------------------
 BYTE   W96
// 053   ----------------------------------------
 BYTE   W96
// 054   ----------------------------------------
 BYTE   W96
// 055   ----------------------------------------
 BYTE   W96
// 056   ----------------------------------------
 BYTE   W96
// 057   ----------------------------------------
 BYTE   W96
// 058   ----------------------------------------
 BYTE   W96
// 059   ----------------------------------------
 BYTE   W96
// 060   ----------------------------------------
 BYTE   W96
// 061   ----------------------------------------
 BYTE   W96
// 062   ----------------------------------------
 BYTE   W96
// 063   ----------------------------------------
 BYTE   W96
// 064   ----------------------------------------
 BYTE   W96
// 065   ----------------------------------------
 BYTE   W96
// 066   ----------------------------------------
 BYTE   W96
// 067   ----------------------------------------
 BYTE   W96
// 068   ----------------------------------------
 BYTE   W96
// 069   ----------------------------------------
 BYTE   W96
// 070   ----------------------------------------
 BYTE   W96
// 071   ----------------------------------------
 BYTE   W96
// 072   ----------------------------------------
 BYTE   W96
// 073   ----------------------------------------
 BYTE   N92  Gn1  v112
 BYTE   N92  Cs2
 BYTE   W96
// 074   ----------------------------------------
 BYTE   N11  Fs1
 BYTE   N11  Cn2
 BYTE   W96
// 075   ----------------------------------------
 BYTE   N92  Gn1
 BYTE   N92  Cs2
 BYTE   W96
// 076   ----------------------------------------
 BYTE   N11  Fs1
 BYTE   N11  Cn2
 BYTE   W96
// 077   ----------------------------------------
Label_11_19638E:
 BYTE   N92  Cs2  v112
 BYTE   N92  Gn2
 BYTE   N88  Cs3  v096
 BYTE   N88  Gn3
 BYTE   W90
 BYTE   N05  Cs3  v080
 BYTE   N05  Gn3  v088
 BYTE   W06
 BYTE   PEND 
// 078   ----------------------------------------
Label_11_1963A1:
 BYTE   N11  Cn2  v112
 BYTE   N11  Fs2
 BYTE   N23  Cn3  v064
 BYTE   N23  Fs3
 BYTE   W96
 BYTE   PEND 
// 079   ----------------------------------------
 BYTE   PATT
  POIN2 Label_11_19638E
// 080   ----------------------------------------
 BYTE   PATT
  POIN2 Label_11_1963A1
// 081   ----------------------------------------
Label_11_1963B7:
 BYTE   N23  Cs1  v112
 BYTE   N23  Cs2
 BYTE   N44  Gn2  v072
 BYTE   N44  Cs3  v092
 BYTE   W24
 BYTE   N23  Ds1  v112
 BYTE   N23  Ds2
 BYTE   W24
 BYTE   En1
 BYTE   N23  En2
 BYTE   N44  Cs3  v088
 BYTE   N44  Gn3  v096
 BYTE   W24
 BYTE   N23  Fs1  v112
 BYTE   N23  Fs2
 BYTE   W24
 BYTE   PEND 
// 082   ----------------------------------------
Label_11_1963DA:
 BYTE   N23  En1  v112
 BYTE   N23  En2
 BYTE   N44  Gn3  v072
 BYTE   N44  Cs4  v104
 BYTE   W24
 BYTE   N23  Ds1  v112
 BYTE   N23  Ds2
 BYTE   W24
 BYTE   Cs1
 BYTE   N23  Cs2
 BYTE   N44  Cs3  v072
 BYTE   N44  Gn3  v104
 BYTE   W24
 BYTE   N23  Cn1  v112
 BYTE   N23  Cn2
 BYTE   W24
 BYTE   PEND 
// 083   ----------------------------------------
Label_11_1963FD:
 BYTE   N44  An0  v112
 BYTE   N44  An1
 BYTE   N44  Ds3
 BYTE   N44  An3
 BYTE   W48
 BYTE   Gn0
 BYTE   N44  Gn1
 BYTE   N44  Cs3
 BYTE   N44  Gn3  v096
 BYTE   W48
 BYTE   PEND 
// 084   ----------------------------------------
 BYTE   W96
// 085   ----------------------------------------
 BYTE   PATT
  POIN2 Label_11_1963B7
// 086   ----------------------------------------
 BYTE   PATT
  POIN2 Label_11_1963DA
// 087   ----------------------------------------
 BYTE   PATT
  POIN2 Label_11_1963FD
// 088   ----------------------------------------
 BYTE   W96
// 089   ----------------------------------------
 BYTE   N92  Gn1  v112
 BYTE   N92  Cs2
 BYTE   W96
// 090   ----------------------------------------
 BYTE   N11  Fs1
 BYTE   N11  Cn2
 BYTE   W96
// 091   ----------------------------------------
 BYTE   N92  Gn1
 BYTE   N92  Cs2
 BYTE   W96
// 092   ----------------------------------------
 BYTE   N11  Fs1
 BYTE   N11  Cn2
 BYTE   W96
// 093   ----------------------------------------
 BYTE   PATT
  POIN2 Label_11_19638E
// 094   ----------------------------------------
 BYTE   PATT
  POIN2 Label_11_1963A1
// 095   ----------------------------------------
 BYTE   PATT
  POIN2 Label_11_19638E
// 096   ----------------------------------------
 BYTE   PATT
  POIN2 Label_11_1963A1
// 097   ----------------------------------------
 BYTE   N92  Cs2  v112
 BYTE   N92  Gn2
 BYTE   N92  Cs4
 BYTE   TIE  Bn4
 BYTE   W42
 BYTE   W01
 BYTE   W21
 BYTE   W22
 BYTE   W10
// 098   ----------------------------------------
 BYTE   N44  Cs2
 BYTE   N92  Dn2
 BYTE   N92  Dn4
 BYTE   W12
 BYTE   W21
 BYTE   W15
 BYTE   Gn2
 BYTE   W07
 BYTE   W22
 BYTE   W18
 BYTE   EOT
 BYTE   Bn4
 BYTE   W01
// 099   ----------------------------------------
 BYTE   N92  Ds2
 BYTE   N92  Ds4
 BYTE   TIE  As4
 BYTE   W02
 BYTE   W22
 BYTE   W22
 BYTE   W02
 BYTE   N44  Cs2
 BYTE   W19
 BYTE   W22
 BYTE   W07
// 100   ----------------------------------------
 BYTE   N92  Dn2
 BYTE   N92  Gn2
 BYTE   N92  Dn4
 BYTE   W15
 BYTE   W21
 BYTE   W22
 BYTE   W22
 BYTE   W15
 BYTE   EOT
 BYTE   As4
 BYTE   W01
// 101   ----------------------------------------
 BYTE   N92  Cs2
 BYTE   N92  Ds2
 BYTE   N92  Ds4
 BYTE   TIE  Bn4
 BYTE   W05
 BYTE   W22
 BYTE   W22
 BYTE   W21
 BYTE   W22
 BYTE   W04
// 102   ----------------------------------------
 BYTE   N44  En2
 BYTE   N44  Gn2
 BYTE   N44  En4
 BYTE   W17
 BYTE   W22
 BYTE   W09
 BYTE   N92  Cs2
 BYTE   N44  Fn2
 BYTE   N92  Fn4
 BYTE   W13
 BYTE   W21
 BYTE   W13
 BYTE   EOT
 BYTE   Bn4
 BYTE   W01
// 103   ----------------------------------------
 BYTE   N44  Fn2
 BYTE   TIE  Cs5
 BYTE   W08
 BYTE   W22
 BYTE   W18
 BYTE   N44  Fs2
 BYTE   N44  Gn2
 BYTE   N44  Fs4
 BYTE   W03
 BYTE   W22
 BYTE   W22
 BYTE   W01
// 104   ----------------------------------------
 BYTE   N92  Cs3  v080
 BYTE   N92  Gn4  v112
 BYTE   W92
 BYTE   W03
 BYTE   EOT
 BYTE   Cs5
 BYTE   W01
// 105   ----------------------------------------
 BYTE   W96
// 106   ----------------------------------------
 BYTE   W96
// 107   ----------------------------------------
 BYTE   W96
// 108   ----------------------------------------
 BYTE   W92
 BYTE   W03
 BYTE   GoTo
  POIN2 Label_11_19633B
 BYTE   FINE

//******************************************************//
	ALIGN 4

PokemonBWVsGhetsisPurpleMage:
	BYTE	12	// NumTrks
	BYTE	0	// NumBlks
	BYTE	PokemonBWVsGhetsisPurpleMage_pri	// Priority
	BYTE	PokemonBWVsGhetsisPurpleMage_rev	// Reverb.
    
	POIN2	PokemonBWVsGhetsisPurpleMage_grp
    
	POIN2	PokemonBWVsGhetsisPurpleMage_001
	POIN2	PokemonBWVsGhetsisPurpleMage_002
	POIN2	PokemonBWVsGhetsisPurpleMage_003
	POIN2	PokemonBWVsGhetsisPurpleMage_004
	POIN2	PokemonBWVsGhetsisPurpleMage_005
	POIN2	PokemonBWVsGhetsisPurpleMage_006
	POIN2	PokemonBWVsGhetsisPurpleMage_007
	POIN2	PokemonBWVsGhetsisPurpleMage_008
	POIN2	PokemonBWVsGhetsisPurpleMage_009
	POIN2	PokemonBWVsGhetsisPurpleMage_010
	POIN2	PokemonBWVsGhetsisPurpleMage_011
	POIN2	PokemonBWVsGhetsisPurpleMage_012

	
