//Event file generated from Sappy .s format.
	#include "MPlayDef.event"

	#define	PokemonRangerGuardianSignsArceusBattleSme_grp  voicegroup000
	#define	PokemonRangerGuardianSignsArceusBattleSme_pri  0
	#define	PokemonRangerGuardianSignsArceusBattleSme_rev  0
	#define	PokemonRangerGuardianSignsArceusBattleSme_mvl  60
	#define	PokemonRangerGuardianSignsArceusBattleSme_key  0
	#define	PokemonRangerGuardianSignsArceusBattleSme_tbs  1
	#define	PokemonRangerGuardianSignsArceusBattleSme_exg  0
	#define	PokemonRangerGuardianSignsArceusBattleSme_cmp  1

	// .rodata
	//	PokemonRangerGuardianSignsArceusBattleSme
	ALIGN 4

//**************** Track 1 (Midi-Chn.1) ****************//

PokemonRangerGuardianSignsArceusBattleSme_1:
	BYTE	KEYSH   PokemonRangerGuardianSignsArceusBattleSme_key+0
PokemonRangerGuardianSignsArceusBattleSme_1_B1:
// 000   ----------------------------------------
	BYTE	TEMPO   69*PokemonRangerGuardianSignsArceusBattleSme_tbs/2
	BYTE		VOICE   19
	BYTE		VOL     89*PokemonRangerGuardianSignsArceusBattleSme_mvl/mxv
	BYTE		PAN     c_v+0
	BYTE		MOD     0
	BYTE	W06
	BYTE		N05     En5   v112
	BYTE	W05
	BYTE		N01     En5   v072
	BYTE	W01
	BYTE		N05     Fn5   v112
	BYTE	W05
	BYTE		N01     Fn5   v072
	BYTE	W01
	BYTE		N06     En5   v112
	BYTE	W06
	BYTE		        Dn5 
	BYTE	W06
	BYTE		        Cn5 
	BYTE	W06
	BYTE		        Bn4 
	BYTE	W06
	BYTE		        Dn5 
	BYTE	W06
	BYTE		        Cn5 
	BYTE	W06
	BYTE		N05     Dn5 
	BYTE	W05
	BYTE		N01     Dn5   v072
	BYTE	W01
	BYTE		N05     En5   v112
	BYTE	W05
	BYTE		N01     En5   v072
	BYTE	W01
	BYTE		N05     Dn5   v112
	BYTE	W05
	BYTE		N01     Dn5   v072
	BYTE	W01
	BYTE		N06     Cn5   v112
	BYTE	W06
	BYTE		        Bn4 
	BYTE	W06
	BYTE		        An4 
	BYTE	W06
	BYTE		        Cn5 
	BYTE	W06
// 001   ----------------------------------------
	BYTE		N05     Bn4 
	BYTE	W05
	BYTE		N01     Bn4   v072
	BYTE	W01
	BYTE		N05     Cn5   v112
	BYTE	W05
	BYTE		N01     Cn5   v072
	BYTE	W01
	BYTE		N05     Dn5   v112
	BYTE	W05
	BYTE		N01     Dn5   v072
	BYTE	W01
	BYTE		N05     Cn5   v112
	BYTE	W05
	BYTE		N01     Cn5   v072
	BYTE	W01
	BYTE		N06     Bn4   v112
	BYTE	W06
	BYTE		        An4 
	BYTE	W06
	BYTE		        Gs4 
	BYTE	W06
	BYTE		        Bn4 
	BYTE	W06
	BYTE		N05     An4 
	BYTE	W05
	BYTE		N01     An4   v072
	BYTE	W01
	BYTE		N06     Bn4   v112
	BYTE	W06
	BYTE		        Cn5 
	BYTE	W06
	BYTE		        Bn4 
	BYTE	W06
	BYTE		        An4 
	BYTE	W06
	BYTE		        Gs4 
	BYTE	W06
	BYTE		        Fs4 
	BYTE	W06
	BYTE		        An4 
	BYTE	W06
// 002   ----------------------------------------
	BYTE		N54     Gs4 
	BYTE	W54
	BYTE		N06     Gs4   v072
	BYTE	W06
	BYTE		N12     Gs4   v112
	BYTE	W12
	BYTE		        An4 
	BYTE	W12
	BYTE		        Bn4 
	BYTE	W12
// 003   ----------------------------------------
PokemonRangerGuardianSignsArceusBattleSme_1_003:
	BYTE		N32     An3   v112
	BYTE	W32
	BYTE	W01
	BYTE		N03     An3   v072
	BYTE	W03
	BYTE		N12     Cn4   v112
	BYTE	W12
	BYTE		N32     Bn3 
	BYTE	W32
	BYTE	W01
	BYTE		N03     Bn3   v072
	BYTE	W03
	BYTE		N12     An3   v112
	BYTE	W12
	BYTE	PEND
// 004   ----------------------------------------
	BYTE		N03   
	BYTE	W03
	BYTE		N30     Gs3 
	BYTE	W30
	BYTE		N03     Gs3   v072
	BYTE	W03
	BYTE		N06     An3   v112
	BYTE	W06
	BYTE		        Bn3 
	BYTE	W06
	BYTE		N48     En3 
	BYTE	W48
// 005   ----------------------------------------
	BYTE		N30     An3 
	BYTE	W30
	BYTE		N06     An3   v072
	BYTE	W06
	BYTE		N09     En4   v112
	BYTE	W09
	BYTE		N03     En4   v072
	BYTE	W03
	BYTE		N32     Dn4   v112
	BYTE	W32
	BYTE	W01
	BYTE		N03     Dn4   v072
	BYTE	W03
	BYTE		N09     Cn4   v112
	BYTE	W09
	BYTE		N03     Cn4   v072
	BYTE	W03
// 006   ----------------------------------------
	BYTE		        Dn4   v112
	BYTE	W03
	BYTE		N30     Cn4 
	BYTE	W30
	BYTE		N03     Cn4   v072
	BYTE	W03
	BYTE		N06     Bn3   v112
	BYTE	W06
	BYTE		        An3 
	BYTE	W06
	BYTE		N44     Bn3 
	BYTE	W44
	BYTE	W01
	BYTE		N03     Bn3   v072
	BYTE	W03
// 007   ----------------------------------------
	BYTE	PATT
	 POIN2	PokemonRangerGuardianSignsArceusBattleSme_1_003
// 008   ----------------------------------------
	BYTE		N03     An3   v112
	BYTE	W03
	BYTE		N30     Gs3 
	BYTE	W30
	BYTE		N03     Gs3   v072
	BYTE	W03
	BYTE		N06     An3   v112
	BYTE	W06
	BYTE		        Bn3 
	BYTE	W06
	BYTE		N32     En4 
	BYTE	W32
	BYTE	W01
	BYTE		N03     En4   v072
	BYTE	W03
	BYTE		N12     An3   v112
	BYTE	W12
// 009   ----------------------------------------
	BYTE		N32     Dn4 
	BYTE	W32
	BYTE	W01
	BYTE		N03     Dn4   v072
	BYTE	W03
	BYTE		N12     Fn4   v112
	BYTE	W12
	BYTE		N21     En4 
	BYTE	W21
	BYTE		N03     En4   v072
	BYTE	W03
	BYTE		N22     Dn4   v112
	BYTE	W22
	BYTE		N02     Dn4   v072
	BYTE	W02
// 010   ----------------------------------------
	BYTE		N92     En4   v116
	BYTE	W96
// 011   ----------------------------------------
	BYTE	W96
// 012   ----------------------------------------
	BYTE	W96
// 013   ----------------------------------------
	BYTE	W96
// 014   ----------------------------------------
	BYTE	W96
// 015   ----------------------------------------
	BYTE	W60
	BYTE		N06     Bn4   v112
	BYTE	W06
	BYTE		        Bn4   v072
	BYTE	W06
	BYTE		        En4   v112
	BYTE	W06
	BYTE		        En4   v072
	BYTE	W06
	BYTE		        Gn4   v112
	BYTE	W06
	BYTE		        Gn4   v072
	BYTE	W06
// 016   ----------------------------------------
	BYTE		N24     As3   v112
	BYTE	W24
	BYTE		N12     As3   v072
	BYTE	W12
	BYTE		        As3   v112
	BYTE	W12
	BYTE		N06     Bn3 
	BYTE	W06
	BYTE		        Cs4 
	BYTE	W06
	BYTE		        Dn4 
	BYTE	W06
	BYTE		        Cs4 
	BYTE	W06
	BYTE		        Bn3 
	BYTE	W06
	BYTE		        Cn4 
	BYTE	W06
	BYTE		        Bn3 
	BYTE	W06
	BYTE		        An3 
	BYTE	W06
// 017   ----------------------------------------
	BYTE		        Gn3 
	BYTE	W06
	BYTE		        Gn3   v072
	BYTE	W06
	BYTE		        Bn3   v112
	BYTE	W06
	BYTE		        Bn3   v072
	BYTE	W06
	BYTE		        Gn3   v112
	BYTE	W06
	BYTE		        Gn3   v072
	BYTE	W06
	BYTE		N12     Gn3   v112
	BYTE	W12
	BYTE		N06     An3 
	BYTE	W06
	BYTE		        Bn3 
	BYTE	W06
	BYTE		        Cn4 
	BYTE	W06
	BYTE		        Bn3 
	BYTE	W06
	BYTE		        An3 
	BYTE	W06
	BYTE		        Bn3 
	BYTE	W06
	BYTE		        An3 
	BYTE	W06
	BYTE		        Gn3 
	BYTE	W06
// 018   ----------------------------------------
	BYTE		        Fn3 
	BYTE	W06
	BYTE		        Fn3   v072
	BYTE	W06
	BYTE		        An3   v112
	BYTE	W06
	BYTE		        An3   v072
	BYTE	W06
	BYTE		        Fn3   v112
	BYTE	W06
	BYTE		        Fn3   v072
	BYTE	W06
	BYTE		N18     Fn3   v112
	BYTE	W18
	BYTE		N06     Fn3   v072
	BYTE	W06
	BYTE		N12     Fn3   v112
	BYTE	W12
	BYTE		        En3 
	BYTE	W12
	BYTE		N24     An3 
	BYTE	W12
// 019   ----------------------------------------
	BYTE	W12
	BYTE		N12     Gs3 
	BYTE	W12
	BYTE		        An3 
	BYTE	W12
	BYTE		        En4 
	BYTE	W12
	BYTE		N24   
	BYTE	W24
	BYTE		        Ds4 
	BYTE	W24
// 020   ----------------------------------------
	BYTE		N90     En4 
	BYTE	W90
	BYTE		N06     En4   v072
	BYTE	W06
	BYTE	GoTo
	 POIN2	PokemonRangerGuardianSignsArceusBattleSme_1_B1
PokemonRangerGuardianSignsArceusBattleSme_1_B2:
// 021   ----------------------------------------
	BYTE	W24
	BYTE	FINE

//**************** Track 2 (Midi-Chn.2) ****************//

PokemonRangerGuardianSignsArceusBattleSme_2:
	BYTE	KEYSH   PokemonRangerGuardianSignsArceusBattleSme_key+0
PokemonRangerGuardianSignsArceusBattleSme_2_B1:
// 000   ----------------------------------------
	BYTE		VOICE   19
	BYTE		VOL     80*PokemonRangerGuardianSignsArceusBattleSme_mvl/mxv
	BYTE		PAN     c_v-20
	BYTE		MOD     0
	BYTE		N32     En4   v112
	BYTE	W32
	BYTE		N04     En4   v072
	BYTE	W04
	BYTE		N12     En4   v112
	BYTE	W12
	BYTE		N32   
	BYTE	W32
	BYTE		N04     En4   v072
	BYTE	W04
	BYTE		N12     En4   v112
	BYTE	W12
// 001   ----------------------------------------
	BYTE		N32   
	BYTE	W32
	BYTE		N04     En4   v072
	BYTE	W04
	BYTE		N12     En4   v112
	BYTE	W12
	BYTE		N32   
	BYTE	W32
	BYTE		N04     En4   v072
	BYTE	W04
	BYTE		N12     En4   v112
	BYTE	W12
// 002   ----------------------------------------
	BYTE		N06     Dn4 
	BYTE	W06
	BYTE		        En4 
	BYTE	W06
	BYTE		        Fn4 
	BYTE	W06
	BYTE		        En4 
	BYTE	W06
	BYTE		        Dn4 
	BYTE	W06
	BYTE		        Cn4 
	BYTE	W06
	BYTE		        Bn3 
	BYTE	W06
	BYTE		        Cn4 
	BYTE	W06
	BYTE		N10     Dn4 
	BYTE	W10
	BYTE		N02     Dn4   v072
	BYTE	W02
	BYTE		N10     Fn4   v112
	BYTE	W10
	BYTE		N02     Fn4   v072
	BYTE	W02
	BYTE		N10     En4   v112
	BYTE	W10
	BYTE		N02     En4   v072
	BYTE	W02
	BYTE		N10     Dn4   v112
	BYTE	W10
	BYTE		N02     Dn4   v072
	BYTE	W02
// 003   ----------------------------------------
	BYTE		N32     Cn3   v112
	BYTE	W32
	BYTE	W01
	BYTE		N03     Cn3   v072
	BYTE	W03
	BYTE		N10     En3   v112
	BYTE	W10
	BYTE		N02     En3   v072
	BYTE	W02
	BYTE		N24     Fn3   v112
	BYTE	W24
	BYTE		N10     Dn3   v100
	BYTE	W10
	BYTE		N02     Dn3   v072
	BYTE	W02
	BYTE		N10     Cn3   v112
	BYTE	W10
	BYTE		N02     Cn3   v072
	BYTE	W02
// 004   ----------------------------------------
	BYTE		N56     En3   v112
	BYTE	W56
	BYTE	W01
	BYTE		N03     En3   v072
	BYTE	W03
	BYTE		N10     Dn3   v112
	BYTE	W10
	BYTE		N02     Dn3   v072
	BYTE	W02
	BYTE		N10     Cn3   v112
	BYTE	W10
	BYTE		N02     Cn3   v072
	BYTE	W02
	BYTE		N10     Bn2   v112
	BYTE	W10
	BYTE		N02     Bn2   v072
	BYTE	W02
// 005   ----------------------------------------
	BYTE		N44     En3   v112
	BYTE	W44
	BYTE	W01
	BYTE		N03     En3   v072
	BYTE	W03
	BYTE		N06     En3   v112
	BYTE	W06
	BYTE		        Fn3 
	BYTE	W06
	BYTE		        En3   v100
	BYTE	W06
	BYTE		        Dn3 
	BYTE	W06
	BYTE		        En3   v112
	BYTE	W06
	BYTE		        En3   v072
	BYTE	W06
	BYTE		        En3   v112
	BYTE	W06
	BYTE		        Fn3 
	BYTE	W06
// 006   ----------------------------------------
	BYTE		N32     En3 
	BYTE	W32
	BYTE	W01
	BYTE		N03     En3   v072
	BYTE	W03
	BYTE		N10     Ds3   v112
	BYTE	W10
	BYTE		N02     Ds3   v072
	BYTE	W02
	BYTE		N24     Dn3   v112
	BYTE	W24
	BYTE		N06     Dn3   v072
	BYTE	W06
	BYTE		        Dn3   v112
	BYTE	W06
	BYTE		        Cn3 
	BYTE	W06
	BYTE		        Bn2 
	BYTE	W06
// 007   ----------------------------------------
	BYTE		N44     Fn3 
	BYTE	W44
	BYTE	W01
	BYTE		N03     Fn3   v072
	BYTE	W03
	BYTE		N44     Fs3   v112
	BYTE	W44
	BYTE	W01
	BYTE		N03     Fs3   v072
	BYTE	W03
// 008   ----------------------------------------
	BYTE		N32     En3   v112
	BYTE	W32
	BYTE	W01
	BYTE		N03     En3   v072
	BYTE	W03
	BYTE		N06     Fs3   v112
	BYTE	W06
	BYTE		        Gs3 
	BYTE	W06
	BYTE		N44     An3 
	BYTE	W44
	BYTE	W01
	BYTE		N03     An3   v072
	BYTE	W03
// 009   ----------------------------------------
	BYTE		N44     An3   v112
	BYTE	W44
	BYTE	W01
	BYTE		N03     An3   v072
	BYTE	W03
	BYTE		N54     An3   v112
	BYTE	W48
// 010   ----------------------------------------
	BYTE	W06
	BYTE		N06   
	BYTE	W06
	BYTE		        Bn3 
	BYTE	W06
	BYTE		        Cn4 
	BYTE	W06
	BYTE		        Dn4 
	BYTE	W06
	BYTE		        Cn4 
	BYTE	W06
	BYTE		        Bn3 
	BYTE	W06
	BYTE		        An3 
	BYTE	W06
	BYTE		        Gs3 
	BYTE	W06
	BYTE		        An3 
	BYTE	W06
	BYTE		        Gs3 
	BYTE	W06
	BYTE		        Fs3 
	BYTE	W06
	BYTE		N24     Gs3 
	BYTE	W24
// 011   ----------------------------------------
	BYTE	W96
// 012   ----------------------------------------
	BYTE	W96
// 013   ----------------------------------------
	BYTE	W96
// 014   ----------------------------------------
	BYTE	W12
	BYTE		N06     En4 
	BYTE	W06
	BYTE		        En4   v072
	BYTE	W06
	BYTE		        An3   v112
	BYTE	W06
	BYTE		        An3   v072
	BYTE	W06
	BYTE		        Cn4   v112
	BYTE	W06
	BYTE		        Cn4   v072
	BYTE	W06
	BYTE		N24     Ds3   v112
	BYTE	W24
	BYTE		N12     Ds3   v072
	BYTE	W12
	BYTE		        Ds3   v112
	BYTE	W12
// 015   ----------------------------------------
	BYTE		N06     En3 
	BYTE	W06
	BYTE		        Fs3 
	BYTE	W06
	BYTE		        Gn3 
	BYTE	W06
	BYTE		        Fs3 
	BYTE	W06
	BYTE		        En3 
	BYTE	W06
	BYTE		        Gn3 
	BYTE	W06
	BYTE		        Fs3 
	BYTE	W06
	BYTE		        En3 
	BYTE	W06
	BYTE		N24     Dn3 
	BYTE	W24
	BYTE		        Gn3 
	BYTE	W24
// 016   ----------------------------------------
	BYTE		N12     Gn3   v072
	BYTE	W12
	BYTE		N06     Gn3   v112
	BYTE	W06
	BYTE		        Fs3 
	BYTE	W06
	BYTE		N12     En3 
	BYTE	W12
	BYTE		N06     Dn3 
	BYTE	W06
	BYTE		        Cs3 
	BYTE	W06
	BYTE		        Dn3 
	BYTE	W06
	BYTE		        Dn3   v072
	BYTE	W06
	BYTE		        En3   v112
	BYTE	W06
	BYTE		        En3   v072
	BYTE	W06
	BYTE		        Ds3   v112
	BYTE	W06
	BYTE		        Ds3   v072
	BYTE	W06
	BYTE		        Fs3   v112
	BYTE	W06
	BYTE		        Fs3   v072
	BYTE	W06
// 017   ----------------------------------------
	BYTE		        En3   v112
	BYTE	W06
	BYTE		        Fs3 
	BYTE	W06
	BYTE		        Gn3 
	BYTE	W06
	BYTE		        Fs3 
	BYTE	W06
	BYTE		        En3 
	BYTE	W06
	BYTE		        Fs3 
	BYTE	W06
	BYTE		        En3 
	BYTE	W06
	BYTE		        Dn3 
	BYTE	W06
	BYTE		N24     Cn3 
	BYTE	W24
	BYTE		N12     Cn3   v072
	BYTE	W12
	BYTE		        Cn3   v112
	BYTE	W12
// 018   ----------------------------------------
	BYTE		N06     Dn3 
	BYTE	W06
	BYTE		        En3 
	BYTE	W06
	BYTE		        Fn3 
	BYTE	W06
	BYTE		        En3 
	BYTE	W06
	BYTE		        Dn3 
	BYTE	W06
	BYTE		        En3 
	BYTE	W06
	BYTE		        Dn3 
	BYTE	W06
	BYTE		        Cn3 
	BYTE	W06
	BYTE		N24     Dn3 
	BYTE	W24
	BYTE		N12     Cn3   v072
	BYTE	W12
	BYTE		        En3   v112
	BYTE	W12
// 019   ----------------------------------------
	BYTE		N24   
	BYTE	W24
	BYTE		N24   
	BYTE	W24
	BYTE		N48     An3 
	BYTE	W48
// 020   ----------------------------------------
	BYTE		N36   
	BYTE	W36
	BYTE		N06     Gs3 
	BYTE	W06
	BYTE		        Fs3 
	BYTE	W06
	BYTE		N42     Gs3 
	BYTE	W42
	BYTE		N06     Gs3   v072
	BYTE	W06
	BYTE	GoTo
	 POIN2	PokemonRangerGuardianSignsArceusBattleSme_2_B1
PokemonRangerGuardianSignsArceusBattleSme_2_B2:
// 021   ----------------------------------------
	BYTE	W24
	BYTE	FINE

//**************** Track 3 (Midi-Chn.3) ****************//

PokemonRangerGuardianSignsArceusBattleSme_3:
	BYTE	KEYSH   PokemonRangerGuardianSignsArceusBattleSme_key+0
PokemonRangerGuardianSignsArceusBattleSme_3_B1:
// 000   ----------------------------------------
	BYTE		VOICE   19
	BYTE		VOL     71*PokemonRangerGuardianSignsArceusBattleSme_mvl/mxv
	BYTE		PAN     c_v+20
	BYTE		MOD     0
	BYTE		N12     Gs3   v096
	BYTE	W12
	BYTE		N06     An3   v112
	BYTE	W06
	BYTE		        Gs3 
	BYTE	W06
	BYTE		        Bn3 
	BYTE	W06
	BYTE		        An3 
	BYTE	W06
	BYTE		        Gs3 
	BYTE	W06
	BYTE		        Bn3 
	BYTE	W06
	BYTE		        An3 
	BYTE	W06
	BYTE		        Bn3 
	BYTE	W06
	BYTE		        Cn4 
	BYTE	W06
	BYTE		        Bn3 
	BYTE	W06
	BYTE		        An3 
	BYTE	W06
	BYTE		        Gs3 
	BYTE	W06
	BYTE		        Fs3 
	BYTE	W06
	BYTE		        An3 
	BYTE	W06
// 001   ----------------------------------------
	BYTE		        Gs3 
	BYTE	W06
	BYTE		        An3 
	BYTE	W06
	BYTE		        Bn3 
	BYTE	W06
	BYTE		        An3 
	BYTE	W06
	BYTE		        Gs3 
	BYTE	W06
	BYTE		        Fs3 
	BYTE	W06
	BYTE		        En3 
	BYTE	W06
	BYTE		        Gs3 
	BYTE	W06
	BYTE		        Fs3 
	BYTE	W06
	BYTE		        Gs3 
	BYTE	W06
	BYTE		        An3 
	BYTE	W06
	BYTE		        Gs3 
	BYTE	W06
	BYTE		        Fs3 
	BYTE	W06
	BYTE		        En3 
	BYTE	W06
	BYTE		        Dn3 
	BYTE	W06
	BYTE		        Fs3 
	BYTE	W06
// 002   ----------------------------------------
	BYTE		N12     En3 
	BYTE	W12
	BYTE		N06     Dn3 
	BYTE	W06
	BYTE		        En3 
	BYTE	W06
	BYTE		        Fn3 
	BYTE	W06
	BYTE		        En3 
	BYTE	W06
	BYTE		        Dn3 
	BYTE	W06
	BYTE		        Cn3 
	BYTE	W06
	BYTE		N12     Bn2 
	BYTE	W12
	BYTE		N12   
	BYTE	W12
	BYTE		        An2 
	BYTE	W12
	BYTE		        Gs2 
	BYTE	W12
// 003   ----------------------------------------
	BYTE	W06
	BYTE		N06     En2 
	BYTE	W06
	BYTE		        Fs2 
	BYTE	W06
	BYTE		        Gs2 
	BYTE	W06
	BYTE		        An2 
	BYTE	W06
	BYTE		        Bn2 
	BYTE	W06
	BYTE		        An2 
	BYTE	W06
	BYTE		        En2 
	BYTE	W06
	BYTE		        Dn2 
	BYTE	W06
	BYTE		        Fn2 
	BYTE	W06
	BYTE		        Bn2 
	BYTE	W06
	BYTE		        An2 
	BYTE	W06
	BYTE		        Gs2 
	BYTE	W06
	BYTE		        En2 
	BYTE	W06
	BYTE		        An2 
	BYTE	W06
	BYTE		        En2 
	BYTE	W06
// 004   ----------------------------------------
	BYTE		        Dn3   v084
	BYTE	W06
	BYTE		        Cn3   v088
	BYTE	W06
	BYTE		        Bn2   v092
	BYTE	W06
	BYTE		        Cn3   v088
	BYTE	W06
	BYTE		        Bn2 
	BYTE	W06
	BYTE		        Dn3 
	BYTE	W06
	BYTE		        Cn3   v096
	BYTE	W06
	BYTE		        Bn2   v068
	BYTE	W06
	BYTE		        Gs2   v096
	BYTE	W06
	BYTE		        An2   v104
	BYTE	W06
	BYTE		        Bn2   v096
	BYTE	W06
	BYTE		        An2   v092
	BYTE	W06
	BYTE		        Gs2   v108
	BYTE	W06
	BYTE		        En2   v104
	BYTE	W06
	BYTE		        Fs2   v100
	BYTE	W06
	BYTE		        Gs2   v112
	BYTE	W06
// 005   ----------------------------------------
	BYTE		        An2 
	BYTE	W06
	BYTE		        En2 
	BYTE	W06
	BYTE		        Fs2 
	BYTE	W06
	BYTE		        Gs2 
	BYTE	W06
	BYTE		        An2 
	BYTE	W06
	BYTE		        Bn2 
	BYTE	W06
	BYTE		        Cn3 
	BYTE	W06
	BYTE		        An2 
	BYTE	W06
	BYTE		        Gs2 
	BYTE	W06
	BYTE		        An2 
	BYTE	W06
	BYTE		        Gs2 
	BYTE	W06
	BYTE		        Fs2 
	BYTE	W06
	BYTE		        Gs2 
	BYTE	W06
	BYTE		        En2 
	BYTE	W06
	BYTE		        An2 
	BYTE	W06
	BYTE		        En2 
	BYTE	W06
// 006   ----------------------------------------
	BYTE		        An2 
	BYTE	W06
	BYTE		        Bn2 
	BYTE	W06
	BYTE		        Cn3 
	BYTE	W06
	BYTE		        Bn2 
	BYTE	W06
	BYTE		        An2 
	BYTE	W06
	BYTE		        Cn3 
	BYTE	W06
	BYTE		N18     An2 
	BYTE	W18
	BYTE		N06     En2 
	BYTE	W06
	BYTE		        Bn2 
	BYTE	W06
	BYTE		        An2 
	BYTE	W06
	BYTE		        Gs2 
	BYTE	W06
	BYTE		        An2 
	BYTE	W06
	BYTE		        Gs2 
	BYTE	W06
	BYTE		        Dn3 
	BYTE	W06
// 007   ----------------------------------------
	BYTE		        Cn3 
	BYTE	W06
	BYTE		        Dn3 
	BYTE	W06
	BYTE		        Cn3 
	BYTE	W06
	BYTE		        Bn2 
	BYTE	W06
	BYTE		        Cn3 
	BYTE	W06
	BYTE		        Bn2 
	BYTE	W06
	BYTE		        An2 
	BYTE	W06
	BYTE		        Gs2 
	BYTE	W06
	BYTE		        An2 
	BYTE	W06
	BYTE		        Bn2 
	BYTE	W06
	BYTE		        Cn3 
	BYTE	W06
	BYTE		        Bn2 
	BYTE	W06
	BYTE		        An2 
	BYTE	W06
	BYTE		        Gn2 
	BYTE	W06
	BYTE		        Fs2 
	BYTE	W06
	BYTE		        Cn3 
	BYTE	W06
// 008   ----------------------------------------
	BYTE		        Bn2 
	BYTE	W06
	BYTE		        Dn3 
	BYTE	W06
	BYTE		        Cn3 
	BYTE	W06
	BYTE		        Bn2 
	BYTE	W06
	BYTE		        En2 
	BYTE	W06
	BYTE		        Bn2 
	BYTE	W06
	BYTE		        Cn3 
	BYTE	W06
	BYTE		        Dn3 
	BYTE	W06
	BYTE		        En3 
	BYTE	W06
	BYTE		        Dn3 
	BYTE	W06
	BYTE		        Cn3 
	BYTE	W06
	BYTE		        Bn2 
	BYTE	W06
	BYTE		        An2 
	BYTE	W06
	BYTE		        Bn2 
	BYTE	W06
	BYTE		        Cn3 
	BYTE	W06
	BYTE		        An2 
	BYTE	W06
// 009   ----------------------------------------
	BYTE		        Fn3 
	BYTE	W06
	BYTE		        Gn3 
	BYTE	W06
	BYTE		        Fn3 
	BYTE	W06
	BYTE		        En3 
	BYTE	W06
	BYTE		        Fn3 
	BYTE	W06
	BYTE		        En3 
	BYTE	W06
	BYTE		        Dn3 
	BYTE	W06
	BYTE		        Fn3 
	BYTE	W06
	BYTE		        Cn3 
	BYTE	W06
	BYTE		        Dn3 
	BYTE	W06
	BYTE		        En3 
	BYTE	W06
	BYTE		        Dn3 
	BYTE	W06
	BYTE		        Cn3 
	BYTE	W06
	BYTE		        Bn2 
	BYTE	W06
	BYTE		        An2 
	BYTE	W06
	BYTE		        Cn3 
	BYTE	W06
// 010   ----------------------------------------
	BYTE		N18     Bn2 
	BYTE	W18
	BYTE		N06     An2 
	BYTE	W06
	BYTE		        Bn2 
	BYTE	W06
	BYTE		        Cn3 
	BYTE	W06
	BYTE		        Dn3 
	BYTE	W06
	BYTE		        Cn3 
	BYTE	W06
	BYTE		        Bn2 
	BYTE	W06
	BYTE		        Cn3 
	BYTE	W06
	BYTE		        Bn2 
	BYTE	W06
	BYTE		        An2 
	BYTE	W06
	BYTE		N24     Bn2 
	BYTE	W24
// 011   ----------------------------------------
	BYTE	W60
	BYTE		N06     Cn3 
	BYTE	W06
	BYTE		        Bn2 
	BYTE	W06
	BYTE		N12     An2 
	BYTE	W12
	BYTE		N06     Gn2 
	BYTE	W06
	BYTE		        Fs2 
	BYTE	W06
// 012   ----------------------------------------
	BYTE		N09     Gn2 
	BYTE	W09
	BYTE		N03     Gn2   v072
	BYTE	W03
	BYTE		N09     Bn2   v112
	BYTE	W09
	BYTE		N03     Bn2   v072
	BYTE	W03
	BYTE		N09     As2   v112
	BYTE	W09
	BYTE		N03     As2   v072
	BYTE	W03
	BYTE		N09     Cs3   v112
	BYTE	W09
	BYTE		N03     Cs3   v072
	BYTE	W03
	BYTE		N06     Bn2   v112
	BYTE	W06
	BYTE		        Bn2   v072
	BYTE	W06
	BYTE		        Bn3   v112
	BYTE	W06
	BYTE		        Bn3   v072
	BYTE	W06
	BYTE		        En3   v112
	BYTE	W06
	BYTE		        En3   v072
	BYTE	W06
	BYTE		        Gn3   v112
	BYTE	W06
	BYTE		        Gn3   v072
	BYTE	W06
// 013   ----------------------------------------
	BYTE		N24     As2   v112
	BYTE	W24
	BYTE		N12     As2   v072
	BYTE	W12
	BYTE		        As2   v112
	BYTE	W12
	BYTE		N06     Bn2 
	BYTE	W06
	BYTE		        Cs3 
	BYTE	W06
	BYTE		        Dn3 
	BYTE	W06
	BYTE		        Cs3 
	BYTE	W06
	BYTE		        Bn2 
	BYTE	W06
	BYTE		        Cn3 
	BYTE	W06
	BYTE		        Bn2 
	BYTE	W06
	BYTE		        An2 
	BYTE	W06
// 014   ----------------------------------------
	BYTE		N24     Gn2 
	BYTE	W24
	BYTE		        Cn3 
	BYTE	W24
	BYTE		N12     Cn3   v052
	BYTE	W12
	BYTE		N06     Cn3   v112
	BYTE	W06
	BYTE		        Bn2 
	BYTE	W06
	BYTE		N12     An2 
	BYTE	W12
	BYTE		N06     Gn2 
	BYTE	W06
	BYTE		        Fs2 
	BYTE	W06
// 015   ----------------------------------------
	BYTE		        Gn2 
	BYTE	W06
	BYTE		        Gn2   v072
	BYTE	W06
	BYTE		        Bn2   v112
	BYTE	W06
	BYTE		        Bn2   v072
	BYTE	W06
	BYTE		        As2   v112
	BYTE	W06
	BYTE		        As2   v072
	BYTE	W06
	BYTE		        Cs3   v112
	BYTE	W06
	BYTE		        Cs3   v072
	BYTE	W06
	BYTE		        Bn2   v112
	BYTE	W06
	BYTE		        Bn2   v072
	BYTE	W06
	BYTE		        Bn1   v112
	BYTE	W06
	BYTE		        Bn1   v072
	BYTE	W06
	BYTE		        Cs2   v112
	BYTE	W06
	BYTE		        Bn1 
	BYTE	W06
	BYTE		        Cs2 
	BYTE	W06
	BYTE		        Dn2 
	BYTE	W06
// 016   ----------------------------------------
	BYTE		        En2 
	BYTE	W06
	BYTE		        Fs2 
	BYTE	W06
	BYTE		        En2 
	BYTE	W06
	BYTE		        Dn2 
	BYTE	W06
	BYTE		        Cs2 
	BYTE	W06
	BYTE		        Cs2   v072
	BYTE	W06
	BYTE		        Fs2   v112
	BYTE	W06
	BYTE		        Fs2   v072
	BYTE	W06
	BYTE		N24     Bn1   v112
	BYTE	W24
	BYTE		N12     Bn1   v072
	BYTE	W12
	BYTE		N18     Bn2   v112
	BYTE	W12
// 017   ----------------------------------------
	BYTE	W06
	BYTE		N06     Bn2   v072
	BYTE	W06
	BYTE		N12     Gn2   v112
	BYTE	W12
	BYTE		N06     Bn2 
	BYTE	W06
	BYTE		        Bn2   v072
	BYTE	W06
	BYTE		N12     Bn2   v112
	BYTE	W12
	BYTE		N54     An2 
	BYTE	W48
// 018   ----------------------------------------
	BYTE	W06
	BYTE		N06     An2   v072
	BYTE	W06
	BYTE		N12     Fn2   v112
	BYTE	W12
	BYTE		N06     An2 
	BYTE	W06
	BYTE		        An2   v072
	BYTE	W06
	BYTE		N12     An2   v112
	BYTE	W12
	BYTE		N24     Bn2 
	BYTE	W24
	BYTE		N12     An2 
	BYTE	W12
	BYTE		        Cn3 
	BYTE	W12
// 019   ----------------------------------------
	BYTE		N24     Bn2 
	BYTE	W24
	BYTE		N12     An2 
	BYTE	W12
	BYTE		N24     Cn3 
	BYTE	W24
	BYTE		N12   
	BYTE	W12
	BYTE		        Bn2 
	BYTE	W12
	BYTE		        An2 
	BYTE	W12
// 020   ----------------------------------------
	BYTE		N90     Bn2 
	BYTE	W90
	BYTE		N06     Bn2   v072
	BYTE	W06
	BYTE	GoTo
	 POIN2	PokemonRangerGuardianSignsArceusBattleSme_3_B1
PokemonRangerGuardianSignsArceusBattleSme_3_B2:
// 021   ----------------------------------------
	BYTE	W24
	BYTE	FINE

//**************** Track 4 (Midi-Chn.4) ****************//

PokemonRangerGuardianSignsArceusBattleSme_4:
	BYTE	KEYSH   PokemonRangerGuardianSignsArceusBattleSme_key+0
PokemonRangerGuardianSignsArceusBattleSme_4_B1:
// 000   ----------------------------------------
	BYTE		VOICE   19
	BYTE		VOL     87*PokemonRangerGuardianSignsArceusBattleSme_mvl/mxv
	BYTE		PAN     c_v+0
	BYTE		MOD     0
	BYTE		TIE     En0   v112
	BYTE		TIE     En1 
	BYTE	W96
// 001   ----------------------------------------
	BYTE	W96
	BYTE		EOT     En0 
	BYTE		        En1 
// 002   ----------------------------------------
	BYTE		N54     En0 
	BYTE		N54     En1 
	BYTE	W54
	BYTE		N06     En0   v072
	BYTE		N06     En1 
	BYTE	W06
	BYTE		N10     Dn1   v112
	BYTE		N10     Dn2 
	BYTE	W10
	BYTE		N02     Dn1   v072
	BYTE		N02     Dn2 
	BYTE	W02
	BYTE		N10     Cn1   v112
	BYTE		N10     Cn2 
	BYTE	W10
	BYTE		N02     Cn1   v072
	BYTE		N02     Cn2 
	BYTE	W02
	BYTE		N10     Bn0   v112
	BYTE		N10     Bn1 
	BYTE	W10
	BYTE		N02     Bn0   v072
	BYTE		N02     Bn1 
	BYTE	W02
// 003   ----------------------------------------
	BYTE		N96     An0   v112
	BYTE		N96     An1 
	BYTE	W96
// 004   ----------------------------------------
	BYTE		N56     En1 
	BYTE		N56     En2 
	BYTE	W56
	BYTE	W01
	BYTE		N03     En1   v072
	BYTE		N03     En2 
	BYTE	W03
	BYTE		N10     Fn1   v112
	BYTE		N10     Fn2 
	BYTE	W10
	BYTE		N02     Fn1   v072
	BYTE		N02     Fn2 
	BYTE	W02
	BYTE		N10     En1   v112
	BYTE		N10     En2 
	BYTE	W10
	BYTE		N02     En1   v072
	BYTE		N02     En2 
	BYTE	W02
	BYTE		N10     Dn1   v112
	BYTE		N10     Dn2 
	BYTE	W10
	BYTE		N02     Dn1   v072
	BYTE		N02     Dn2 
	BYTE	W02
// 005   ----------------------------------------
	BYTE		N44     Cn1   v112
	BYTE		N44     Cn2 
	BYTE	W44
	BYTE	W01
	BYTE		N03     Cn1   v072
	BYTE		N03     Cn2 
	BYTE	W03
	BYTE		N32     Bn0   v112
	BYTE		N32     Bn1 
	BYTE	W32
	BYTE	W01
	BYTE		N03     Bn0   v072
	BYTE		N03     Bn1 
	BYTE	W03
	BYTE		N12     An0   v112
	BYTE		N12     An1 
	BYTE	W12
// 006   ----------------------------------------
	BYTE		N48     En1 
	BYTE		N48     En2 
	BYTE	W48
	BYTE		N44     En0 
	BYTE		N44     En1 
	BYTE	W44
	BYTE	W01
	BYTE		N03     En0   v072
	BYTE		N03     En1 
	BYTE	W03
// 007   ----------------------------------------
	BYTE		N32     Fn1   v112
	BYTE		N32     Fn2 
	BYTE	W32
	BYTE	W01
	BYTE		N03     Fn1   v072
	BYTE		N03     Fn2 
	BYTE	W03
	BYTE		N10     En1   v112
	BYTE		N10     En2 
	BYTE	W10
	BYTE		N02     En1   v072
	BYTE		N02     En2 
	BYTE	W02
	BYTE		N48     Ds1   v112
	BYTE		N48     Ds2 
	BYTE	W48
// 008   ----------------------------------------
	BYTE		N32     Dn1 
	BYTE		N32     Dn2 
	BYTE	W32
	BYTE	W01
	BYTE		N03     Dn1   v072
	BYTE		N03     Dn2 
	BYTE	W03
	BYTE		N10     Dn1   v112
	BYTE		N10     Dn2 
	BYTE	W10
	BYTE		N02     Dn1   v072
	BYTE		N02     Dn2 
	BYTE	W02
	BYTE		N32     Cn1   v112
	BYTE		N32     Cn2 
	BYTE	W32
	BYTE	W01
	BYTE		N03     Cn1   v072
	BYTE		N03     Cn2 
	BYTE	W03
	BYTE		N10     Cn1   v112
	BYTE		N10     Cn2 
	BYTE	W10
	BYTE		N02     Cn1   v072
	BYTE		N02     Cn2 
	BYTE	W02
// 009   ----------------------------------------
	BYTE		N32     Bn0   v112
	BYTE		N32     Bn1 
	BYTE	W32
	BYTE	W01
	BYTE		N03     Bn0   v072
	BYTE		N03     Bn1 
	BYTE	W03
	BYTE		N10     Bn0   v112
	BYTE		N10     Bn1 
	BYTE	W10
	BYTE		N02     Bn0   v072
	BYTE		N02     Bn1 
	BYTE	W02
	BYTE		N21     Fn1   v112
	BYTE		N21     Fn2 
	BYTE	W21
	BYTE		N03     Fn1   v072
	BYTE		N03     Fn2 
	BYTE	W03
	BYTE		N22     Fn1   v112
	BYTE		N22     Fn2 
	BYTE	W22
	BYTE		N02     Fn1   v072
	BYTE		N02     Fn2 
	BYTE	W02
// 010   ----------------------------------------
	BYTE		N96     En1   v112
	BYTE		N96     En2 
	BYTE	W96
// 011   ----------------------------------------
	BYTE		N24     An0 
	BYTE		N24     An1 
	BYTE	W12
	BYTE		N06     En2 
	BYTE		N06     En3 
	BYTE	W06
	BYTE		        En2   v072
	BYTE		N06     En3 
	BYTE	W06
	BYTE		        An1   v112
	BYTE		N06     An2 
	BYTE	W06
	BYTE		        An1   v072
	BYTE		N06     An2 
	BYTE	W06
	BYTE		        Cn2   v112
	BYTE		N06     Cn3 
	BYTE	W06
	BYTE		        Cn2   v072
	BYTE		N06     Cn3 
	BYTE	W06
	BYTE		N30     Ds1   v112
	BYTE		N30     Ds2 
	BYTE	W30
	BYTE		N06     Ds1   v072
	BYTE		N06     Ds2 
	BYTE	W06
	BYTE		N12     Ds1   v112
	BYTE		N12     Ds2 
	BYTE	W12
// 012   ----------------------------------------
	BYTE		N06     En1 
	BYTE		N06     En2 
	BYTE	W06
	BYTE		        Fs1 
	BYTE		N06     Fs2 
	BYTE	W06
	BYTE		        Gn1 
	BYTE		N06     Gn2 
	BYTE	W06
	BYTE		        Fs1 
	BYTE		N06     Fs2 
	BYTE	W06
	BYTE		        En1 
	BYTE		N06     En2 
	BYTE	W06
	BYTE		        Gn1 
	BYTE		N06     Gn2 
	BYTE	W06
	BYTE		        Fs1 
	BYTE		N06     Fs2 
	BYTE	W06
	BYTE		        En1 
	BYTE		N06     En2 
	BYTE	W06
	BYTE		N24     Dn1 
	BYTE		N24     Dn2 
	BYTE	W24
	BYTE		        Gn1 
	BYTE		N24     Gn2 
	BYTE	W24
// 013   ----------------------------------------
	BYTE		N12     Gn1   v072
	BYTE		N12     Gn2 
	BYTE	W12
	BYTE		N06     Gn1   v112
	BYTE		N06     Gn2 
	BYTE	W06
	BYTE		        Fs1 
	BYTE		N06     Fs2 
	BYTE	W06
	BYTE		N12     En1 
	BYTE		N12     En2 
	BYTE	W12
	BYTE		N06     Dn1 
	BYTE		N06     Dn2 
	BYTE	W06
	BYTE		        Cs1 
	BYTE		N06     Cs2 
	BYTE	W06
	BYTE		        Dn1 
	BYTE		N06     Dn2 
	BYTE	W06
	BYTE		        Dn1   v072
	BYTE		N06     Dn2 
	BYTE	W06
	BYTE		        En1   v112
	BYTE		N06     En2 
	BYTE	W06
	BYTE		        En1   v072
	BYTE		N06     En2 
	BYTE	W06
	BYTE		        Ds1   v112
	BYTE		N06     Ds2 
	BYTE	W06
	BYTE		        Ds1   v072
	BYTE		N06     Ds2 
	BYTE	W06
	BYTE		        Fs1   v112
	BYTE		N06     Fs2 
	BYTE	W06
	BYTE		        Fs1   v072
	BYTE		N06     Fs2 
	BYTE	W06
// 014   ----------------------------------------
	BYTE		N24     En1   v112
	BYTE		N24     En2 
	BYTE	W24
	BYTE		N12     Fs1 
	BYTE		N12     Fs2 
	BYTE	W12
	BYTE		N06     Gn1 
	BYTE		N06     Gn2 
	BYTE	W06
	BYTE		        An1 
	BYTE		N06     An2 
	BYTE	W06
	BYTE		N30     Bn0 
	BYTE		N30     Bn1 
	BYTE	W30
	BYTE		N06     Bn0   v072
	BYTE		N06     Bn1 
	BYTE	W06
	BYTE		N12     Bn0   v112
	BYTE		N12     Bn1 
	BYTE	W12
// 015   ----------------------------------------
	BYTE		        En1 
	BYTE		N12     En2 
	BYTE	W12
	BYTE		        En1   v072
	BYTE		N12     En2 
	BYTE	W12
	BYTE		N08     Fs1   v112
	BYTE		N08     Fs2 
	BYTE	W08
	BYTE		N04     Fs1   v072
	BYTE		N04     Fs2 
	BYTE	W04
	BYTE		N08     As0   v112
	BYTE		N08     As1 
	BYTE	W08
	BYTE		N04     As0   v072
	BYTE		N04     As1 
	BYTE	W04
	BYTE		N24     Bn0   v112
	BYTE		N24     Bn1 
	BYTE	W24
	BYTE		        Bn0   v052
	BYTE		N24     Bn1 
	BYTE	W24
// 016   ----------------------------------------
	BYTE	W84
	BYTE		N12     Ds1   v112
	BYTE		N12     Ds2 
	BYTE	W12
// 017   ----------------------------------------
	BYTE		N24     En1 
	BYTE		N24     En2 
	BYTE	W24
	BYTE		N12     En1   v072
	BYTE		N12     En2 
	BYTE	W12
	BYTE		N06     Gn0   v112
	BYTE		N06     Gn1 
	BYTE	W06
	BYTE		        Gn0   v072
	BYTE		N06     Gn1 
	BYTE	W06
	BYTE		N24     An0   v112
	BYTE		N24     An1 
	BYTE	W24
	BYTE		N12     An0   v072
	BYTE		N12     An1 
	BYTE	W12
	BYTE		N06     Cn1   v112
	BYTE		N06     Cn2 
	BYTE	W06
	BYTE		        Cn1   v072
	BYTE		N06     Cn2 
	BYTE	W06
// 018   ----------------------------------------
	BYTE		N24     Dn1   v112
	BYTE		N24     Dn2 
	BYTE	W24
	BYTE		N12     Dn1   v072
	BYTE		N12     Dn2 
	BYTE	W12
	BYTE		N06     An0   v112
	BYTE		N06     An1 
	BYTE	W06
	BYTE		        An0   v072
	BYTE		N06     An1 
	BYTE	W06
	BYTE		N24     Gs0   v112
	BYTE		N24     Gs1 
	BYTE	W24
	BYTE		        An0 
	BYTE		N24     An1 
	BYTE	W24
// 019   ----------------------------------------
	BYTE		        Bn0 
	BYTE		N24     Bn1 
	BYTE	W24
	BYTE		        Cn1 
	BYTE		N24     Cn2 
	BYTE	W24
	BYTE		N48     Fn0 
	BYTE		N48     Fn1 
	BYTE	W48
// 020   ----------------------------------------
	BYTE		N90     En0 
	BYTE		N90     En1 
	BYTE	W90
	BYTE		N06     En0   v072
	BYTE		N06     En1 
	BYTE	W06
	BYTE	GoTo
	 POIN2	PokemonRangerGuardianSignsArceusBattleSme_4_B1
PokemonRangerGuardianSignsArceusBattleSme_4_B2:
// 021   ----------------------------------------
	BYTE	W24
	BYTE	FINE

//**************** Track 5 (Midi-Chn.5) ****************//

PokemonRangerGuardianSignsArceusBattleSme_5:
	BYTE	KEYSH   PokemonRangerGuardianSignsArceusBattleSme_key+0
PokemonRangerGuardianSignsArceusBattleSme_5_B1:
// 000   ----------------------------------------
	BYTE		VOICE   20
	BYTE		VOL     42*PokemonRangerGuardianSignsArceusBattleSme_mvl/mxv
	BYTE		PAN     c_v+0
	BYTE		MOD     0
	BYTE	W18
	BYTE		N05     En5   v112
	BYTE	W05
	BYTE		N01     En5   v072
	BYTE	W01
	BYTE		N05     Fn5   v112
	BYTE	W05
	BYTE		N01     Fn5   v072
	BYTE	W01
	BYTE		N06     En5   v112
	BYTE	W06
	BYTE		        Dn5 
	BYTE	W06
	BYTE		        Cn5 
	BYTE	W06
	BYTE		        Bn4 
	BYTE	W06
	BYTE		        Dn5 
	BYTE	W06
	BYTE		        Cn5 
	BYTE	W06
	BYTE		N05     Dn5 
	BYTE	W05
	BYTE		N01     Dn5   v072
	BYTE	W01
	BYTE		N05     En5   v112
	BYTE	W05
	BYTE		N01     En5   v072
	BYTE	W01
	BYTE		N05     Dn5   v112
	BYTE	W05
	BYTE		N01     Dn5   v072
	BYTE	W01
	BYTE		N06     Cn5   v112
	BYTE	W06
	BYTE		        Bn4 
	BYTE	W06
// 001   ----------------------------------------
	BYTE		        An4 
	BYTE	W06
	BYTE		        Cn5 
	BYTE	W06
	BYTE		N05     Bn4 
	BYTE	W05
	BYTE		N01     Bn4   v072
	BYTE	W01
	BYTE		N05     Cn5   v112
	BYTE	W05
	BYTE		N01     Cn5   v072
	BYTE	W01
	BYTE		N05     Dn5   v112
	BYTE	W05
	BYTE		N01     Dn5   v072
	BYTE	W01
	BYTE		N05     Cn5   v112
	BYTE	W05
	BYTE		N01     Cn5   v072
	BYTE	W01
	BYTE		N06     Bn4   v112
	BYTE	W06
	BYTE		        An4 
	BYTE	W06
	BYTE		        Gs4 
	BYTE	W06
	BYTE		        Bn4 
	BYTE	W06
	BYTE		N05     An4 
	BYTE	W05
	BYTE		N01     An4   v072
	BYTE	W01
	BYTE		N06     Bn4   v112
	BYTE	W06
	BYTE		        Cn5 
	BYTE	W06
	BYTE		        Bn4 
	BYTE	W06
	BYTE		        An4 
	BYTE	W06
	BYTE		        Gs4 
	BYTE	W06
// 002   ----------------------------------------
	BYTE		        Fs4 
	BYTE	W06
	BYTE		        An4 
	BYTE	W06
	BYTE		N54     Gs4 
	BYTE	W54
	BYTE		N06     Gs4   v072
	BYTE	W06
	BYTE		N12     Gs4   v112
	BYTE	W12
	BYTE		        An4 
	BYTE	W12
// 003   ----------------------------------------
	BYTE		        Bn4 
	BYTE	W12
	BYTE		N32     An3 
	BYTE	W32
	BYTE	W01
	BYTE		N03     An3   v072
	BYTE	W03
	BYTE		N12     Cn4   v112
	BYTE	W12
	BYTE		N32     Bn3 
	BYTE	W32
	BYTE	W01
	BYTE		N03     Bn3   v072
	BYTE	W03
// 004   ----------------------------------------
	BYTE		N12     An3   v112
	BYTE	W12
	BYTE		N03   
	BYTE	W03
	BYTE		N30     Gs3 
	BYTE	W30
	BYTE		N03     Gs3   v072
	BYTE	W03
	BYTE		N06     An3   v112
	BYTE	W06
	BYTE		        Bn3 
	BYTE	W06
	BYTE		N48     En3 
	BYTE	W36
// 005   ----------------------------------------
	BYTE	W12
	BYTE		N30     An3 
	BYTE	W30
	BYTE		N06     An3   v072
	BYTE	W06
	BYTE		N09     En4   v112
	BYTE	W09
	BYTE		N03     En4   v072
	BYTE	W03
	BYTE		N32     Dn4   v112
	BYTE	W32
	BYTE	W01
	BYTE		N03     Dn4   v072
	BYTE	W03
// 006   ----------------------------------------
	BYTE		N09     Cn4   v112
	BYTE	W09
	BYTE		N03     Cn4   v072
	BYTE	W03
	BYTE		        Dn4   v112
	BYTE	W03
	BYTE		N30     Cn4 
	BYTE	W30
	BYTE		N03     Cn4   v072
	BYTE	W03
	BYTE		N06     Bn3   v112
	BYTE	W06
	BYTE		        An3 
	BYTE	W06
	BYTE		N44     Bn3 
	BYTE	W36
// 007   ----------------------------------------
	BYTE	W09
	BYTE		N03     Bn3   v072
	BYTE	W03
	BYTE		N32     An3   v112
	BYTE	W32
	BYTE	W01
	BYTE		N03     An3   v072
	BYTE	W03
	BYTE		N12     Cn4   v112
	BYTE	W12
	BYTE		N32     Bn3 
	BYTE	W32
	BYTE	W01
	BYTE		N03     Bn3   v072
	BYTE	W03
// 008   ----------------------------------------
	BYTE		N12     An3   v112
	BYTE	W12
	BYTE		N03   
	BYTE	W03
	BYTE		N30     Gs3 
	BYTE	W30
	BYTE		N03     Gs3   v072
	BYTE	W03
	BYTE		N06     An3   v112
	BYTE	W06
	BYTE		        Bn3 
	BYTE	W06
	BYTE		N32     En4 
	BYTE	W32
	BYTE	W01
	BYTE		N03     En4   v072
	BYTE	W03
// 009   ----------------------------------------
	BYTE		N12     An3   v112
	BYTE	W12
	BYTE		N32     Dn4 
	BYTE	W32
	BYTE	W01
	BYTE		N03     Dn4   v072
	BYTE	W03
	BYTE		N12     Fn4   v112
	BYTE	W12
	BYTE		N21     En4 
	BYTE	W21
	BYTE		N03     En4   v072
	BYTE	W03
	BYTE		N22     Dn4   v112
	BYTE	W12
// 010   ----------------------------------------
	BYTE	W10
	BYTE		N02     Dn4   v072
	BYTE	W02
	BYTE		N92     En4   v116
	BYTE	W84
// 011   ----------------------------------------
	BYTE	W96
// 012   ----------------------------------------
	BYTE	W96
// 013   ----------------------------------------
	BYTE	W96
// 014   ----------------------------------------
	BYTE	W96
// 015   ----------------------------------------
	BYTE	W72
	BYTE		N06     Bn4   v112
	BYTE	W06
	BYTE		        Bn4   v072
	BYTE	W06
	BYTE		        En4   v112
	BYTE	W06
	BYTE		        En4   v072
	BYTE	W06
// 016   ----------------------------------------
	BYTE		        Gn4   v112
	BYTE	W06
	BYTE		        Gn4   v072
	BYTE	W06
	BYTE		N24     As3   v112
	BYTE	W24
	BYTE		N12     As3   v072
	BYTE	W12
	BYTE		        As3   v112
	BYTE	W12
	BYTE		N06     Bn3 
	BYTE	W06
	BYTE		        Cs4 
	BYTE	W06
	BYTE		        Dn4 
	BYTE	W06
	BYTE		        Cs4 
	BYTE	W06
	BYTE		        Bn3 
	BYTE	W06
	BYTE		        Cn4 
	BYTE	W06
// 017   ----------------------------------------
	BYTE		        Bn3 
	BYTE	W06
	BYTE		        An3 
	BYTE	W06
	BYTE		        Gn3 
	BYTE	W06
	BYTE		        Gn3   v072
	BYTE	W06
	BYTE		        Bn3   v112
	BYTE	W06
	BYTE		        Bn3   v072
	BYTE	W06
	BYTE		        Gn3   v112
	BYTE	W06
	BYTE		        Gn3   v072
	BYTE	W06
	BYTE		N12     Gn3   v112
	BYTE	W12
	BYTE		N06     An3 
	BYTE	W06
	BYTE		        Bn3 
	BYTE	W06
	BYTE		        Cn4 
	BYTE	W06
	BYTE		        Bn3 
	BYTE	W06
	BYTE		        An3 
	BYTE	W06
	BYTE		        Bn3 
	BYTE	W06
// 018   ----------------------------------------
	BYTE		        An3 
	BYTE	W06
	BYTE		        Gn3 
	BYTE	W06
	BYTE		        Fn3 
	BYTE	W06
	BYTE		        Fn3   v072
	BYTE	W06
	BYTE		        An3   v112
	BYTE	W06
	BYTE		        An3   v072
	BYTE	W06
	BYTE		        Fn3   v112
	BYTE	W06
	BYTE		        Fn3   v072
	BYTE	W06
	BYTE		N18     Fn3   v112
	BYTE	W18
	BYTE		N06     Fn3   v072
	BYTE	W06
	BYTE		N12     Fn3   v112
	BYTE	W12
	BYTE		        En3 
	BYTE	W12
// 019   ----------------------------------------
	BYTE		N24     An3 
	BYTE	W24
	BYTE		N12     Gs3 
	BYTE	W12
	BYTE		        An3 
	BYTE	W12
	BYTE		        En4 
	BYTE	W12
	BYTE		N24   
	BYTE	W24
	BYTE		        Ds4 
	BYTE	W12
// 020   ----------------------------------------
	BYTE	W12
	BYTE		N90     En4 
	BYTE	W84
	BYTE	GoTo
	 POIN2	PokemonRangerGuardianSignsArceusBattleSme_5_B1
PokemonRangerGuardianSignsArceusBattleSme_5_B2:
// 021   ----------------------------------------
	BYTE	W06
	BYTE		N06     En4   v072
	BYTE	W18
	BYTE	FINE

//**************** Track 6 (Midi-Chn.6) ****************//

PokemonRangerGuardianSignsArceusBattleSme_6:
	BYTE	KEYSH   PokemonRangerGuardianSignsArceusBattleSme_key+0
PokemonRangerGuardianSignsArceusBattleSme_6_B1:
// 000   ----------------------------------------
	BYTE		VOICE   20
	BYTE		VOL     28*PokemonRangerGuardianSignsArceusBattleSme_mvl/mxv
	BYTE		PAN     c_v+0
	BYTE		MOD     0
	BYTE	W30
	BYTE		N05     En5   v112
	BYTE	W05
	BYTE		N01     En5   v072
	BYTE	W01
	BYTE		N05     Fn5   v112
	BYTE	W05
	BYTE		N01     Fn5   v072
	BYTE	W01
	BYTE		N06     En5   v112
	BYTE	W06
	BYTE		        Dn5 
	BYTE	W06
	BYTE		        Cn5 
	BYTE	W06
	BYTE		        Bn4 
	BYTE	W06
	BYTE		        Dn5 
	BYTE	W06
	BYTE		        Cn5 
	BYTE	W06
	BYTE		N05     Dn5 
	BYTE	W05
	BYTE		N01     Dn5   v072
	BYTE	W01
	BYTE		N05     En5   v112
	BYTE	W05
	BYTE		N01     En5   v072
	BYTE	W01
	BYTE		N05     Dn5   v112
	BYTE	W05
	BYTE		N01     Dn5   v072
	BYTE	W01
// 001   ----------------------------------------
	BYTE		N06     Cn5   v112
	BYTE	W06
	BYTE		        Bn4 
	BYTE	W06
	BYTE		        An4 
	BYTE	W06
	BYTE		        Cn5 
	BYTE	W06
	BYTE		N05     Bn4 
	BYTE	W05
	BYTE		N01     Bn4   v072
	BYTE	W01
	BYTE		N05     Cn5   v112
	BYTE	W05
	BYTE		N01     Cn5   v072
	BYTE	W01
	BYTE		N05     Dn5   v112
	BYTE	W05
	BYTE		N01     Dn5   v072
	BYTE	W01
	BYTE		N05     Cn5   v112
	BYTE	W05
	BYTE		N01     Cn5   v072
	BYTE	W01
	BYTE		N06     Bn4   v112
	BYTE	W06
	BYTE		        An4 
	BYTE	W06
	BYTE		        Gs4 
	BYTE	W06
	BYTE		        Bn4 
	BYTE	W06
	BYTE		N05     An4 
	BYTE	W05
	BYTE		N01     An4   v072
	BYTE	W01
	BYTE		N06     Bn4   v112
	BYTE	W06
	BYTE		        Cn5 
	BYTE	W06
	BYTE		        Bn4 
	BYTE	W06
// 002   ----------------------------------------
	BYTE		        An4 
	BYTE	W06
	BYTE		        Gs4 
	BYTE	W06
	BYTE		        Fs4 
	BYTE	W06
	BYTE		        An4 
	BYTE	W06
	BYTE		N54     Gs4 
	BYTE	W54
	BYTE		N06     Gs4   v072
	BYTE	W06
	BYTE		N12     Gs4   v112
	BYTE	W12
// 003   ----------------------------------------
	BYTE		        An4 
	BYTE	W12
	BYTE		        Bn4 
	BYTE	W12
	BYTE		N32     An3 
	BYTE	W32
	BYTE	W01
	BYTE		N03     An3   v072
	BYTE	W03
	BYTE		N12     Cn4   v112
	BYTE	W12
	BYTE		N32     Bn3 
	BYTE	W24
// 004   ----------------------------------------
	BYTE	W09
	BYTE		N03     Bn3   v072
	BYTE	W03
	BYTE		N12     An3   v112
	BYTE	W12
	BYTE		N03   
	BYTE	W03
	BYTE		N30     Gs3 
	BYTE	W30
	BYTE		N03     Gs3   v072
	BYTE	W03
	BYTE		N06     An3   v112
	BYTE	W06
	BYTE		        Bn3 
	BYTE	W06
	BYTE		N48     En3 
	BYTE	W24
// 005   ----------------------------------------
	BYTE	W24
	BYTE		N30     An3 
	BYTE	W30
	BYTE		N06     An3   v072
	BYTE	W06
	BYTE		N09     En4   v112
	BYTE	W09
	BYTE		N03     En4   v072
	BYTE	W03
	BYTE		N32     Dn4   v112
	BYTE	W24
// 006   ----------------------------------------
	BYTE	W09
	BYTE		N03     Dn4   v072
	BYTE	W03
	BYTE		N09     Cn4   v112
	BYTE	W09
	BYTE		N03     Cn4   v072
	BYTE	W03
	BYTE		        Dn4   v112
	BYTE	W03
	BYTE		N30     Cn4 
	BYTE	W30
	BYTE		N03     Cn4   v072
	BYTE	W03
	BYTE		N06     Bn3   v112
	BYTE	W06
	BYTE		        An3 
	BYTE	W06
	BYTE		N44     Bn3 
	BYTE	W24
// 007   ----------------------------------------
	BYTE	W21
	BYTE		N03     Bn3   v072
	BYTE	W03
	BYTE		N32     An3   v112
	BYTE	W32
	BYTE	W01
	BYTE		N03     An3   v072
	BYTE	W03
	BYTE		N12     Cn4   v112
	BYTE	W12
	BYTE		N32     Bn3 
	BYTE	W24
// 008   ----------------------------------------
	BYTE	W09
	BYTE		N03     Bn3   v072
	BYTE	W03
	BYTE		N12     An3   v112
	BYTE	W12
	BYTE		N03   
	BYTE	W03
	BYTE		N30     Gs3 
	BYTE	W30
	BYTE		N03     Gs3   v072
	BYTE	W03
	BYTE		N06     An3   v112
	BYTE	W06
	BYTE		        Bn3 
	BYTE	W06
	BYTE		N32     En4 
	BYTE	W24
// 009   ----------------------------------------
	BYTE	W09
	BYTE		N03     En4   v072
	BYTE	W03
	BYTE		N12     An3   v112
	BYTE	W12
	BYTE		N32     Dn4 
	BYTE	W32
	BYTE	W01
	BYTE		N03     Dn4   v072
	BYTE	W03
	BYTE		N12     Fn4   v112
	BYTE	W12
	BYTE		N21     En4 
	BYTE	W21
	BYTE		N03     En4   v072
	BYTE	W03
// 010   ----------------------------------------
	BYTE		N22     Dn4   v112
	BYTE	W22
	BYTE		N02     Dn4   v072
	BYTE	W02
	BYTE		N92     En4   v116
	BYTE	W72
// 011   ----------------------------------------
	BYTE	W96
// 012   ----------------------------------------
	BYTE	W96
// 013   ----------------------------------------
	BYTE	W96
// 014   ----------------------------------------
	BYTE	W96
// 015   ----------------------------------------
	BYTE	W84
	BYTE		N06     Bn4   v112
	BYTE	W06
	BYTE		        Bn4   v072
	BYTE	W06
// 016   ----------------------------------------
	BYTE		        En4   v112
	BYTE	W06
	BYTE		        En4   v072
	BYTE	W06
	BYTE		        Gn4   v112
	BYTE	W06
	BYTE		        Gn4   v072
	BYTE	W06
	BYTE		N24     As3   v112
	BYTE	W24
	BYTE		N12     As3   v072
	BYTE	W12
	BYTE		        As3   v112
	BYTE	W12
	BYTE		N06     Bn3 
	BYTE	W06
	BYTE		        Cs4 
	BYTE	W06
	BYTE		        Dn4 
	BYTE	W06
	BYTE		        Cs4 
	BYTE	W06
// 017   ----------------------------------------
	BYTE		        Bn3 
	BYTE	W06
	BYTE		        Cn4 
	BYTE	W06
	BYTE		        Bn3 
	BYTE	W06
	BYTE		        An3 
	BYTE	W06
	BYTE		        Gn3 
	BYTE	W06
	BYTE		        Gn3   v072
	BYTE	W06
	BYTE		        Bn3   v112
	BYTE	W06
	BYTE		        Bn3   v072
	BYTE	W06
	BYTE		        Gn3   v112
	BYTE	W06
	BYTE		        Gn3   v072
	BYTE	W06
	BYTE		N12     Gn3   v112
	BYTE	W12
	BYTE		N06     An3 
	BYTE	W06
	BYTE		        Bn3 
	BYTE	W06
	BYTE		        Cn4 
	BYTE	W06
	BYTE		        Bn3 
	BYTE	W06
// 018   ----------------------------------------
	BYTE		        An3 
	BYTE	W06
	BYTE		        Bn3 
	BYTE	W06
	BYTE		        An3 
	BYTE	W06
	BYTE		        Gn3 
	BYTE	W06
	BYTE		        Fn3 
	BYTE	W06
	BYTE		        Fn3   v072
	BYTE	W06
	BYTE		        An3   v112
	BYTE	W06
	BYTE		        An3   v072
	BYTE	W06
	BYTE		        Fn3   v112
	BYTE	W06
	BYTE		        Fn3   v072
	BYTE	W06
	BYTE		N18     Fn3   v112
	BYTE	W18
	BYTE		N06     Fn3   v072
	BYTE	W06
	BYTE		N12     Fn3   v112
	BYTE	W12
// 019   ----------------------------------------
	BYTE		        En3 
	BYTE	W12
	BYTE		N24     An3 
	BYTE	W24
	BYTE		N12     Gs3 
	BYTE	W12
	BYTE		        An3 
	BYTE	W12
	BYTE		        En4 
	BYTE	W12
	BYTE		N24   
	BYTE	W24
// 020   ----------------------------------------
	BYTE		        Ds4 
	BYTE	W24
	BYTE		N90     En4 
	BYTE	W72
	BYTE	GoTo
	 POIN2	PokemonRangerGuardianSignsArceusBattleSme_6_B1
PokemonRangerGuardianSignsArceusBattleSme_6_B2:
// 021   ----------------------------------------
	BYTE	W18
	BYTE		N06     En4   v072
	BYTE	W06
	BYTE	FINE

//**************** Track 7 (Midi-Chn.7) ****************//

PokemonRangerGuardianSignsArceusBattleSme_7:
	BYTE	KEYSH   PokemonRangerGuardianSignsArceusBattleSme_key+0
PokemonRangerGuardianSignsArceusBattleSme_7_B1:
// 000   ----------------------------------------
	BYTE		VOICE   20
	BYTE		VOL     44*PokemonRangerGuardianSignsArceusBattleSme_mvl/mxv
	BYTE		PAN     c_v+20
	BYTE		MOD     0
	BYTE	W12
	BYTE		N32     En4   v112
	BYTE	W32
	BYTE		N04     En4   v072
	BYTE	W04
	BYTE		N12     En4   v112
	BYTE	W12
	BYTE		N32   
	BYTE	W32
	BYTE		N04     En4   v072
	BYTE	W04
// 001   ----------------------------------------
	BYTE		N12     En4   v112
	BYTE	W12
	BYTE		N32   
	BYTE	W32
	BYTE		N04     En4   v072
	BYTE	W04
	BYTE		N12     En4   v112
	BYTE	W12
	BYTE		N32   
	BYTE	W32
	BYTE		N04     En4   v072
	BYTE	W04
// 002   ----------------------------------------
	BYTE		N12     En4   v112
	BYTE	W12
	BYTE		N06     Dn4 
	BYTE	W06
	BYTE		        En4 
	BYTE	W06
	BYTE		        Fn4 
	BYTE	W06
	BYTE		        En4 
	BYTE	W06
	BYTE		        Dn4 
	BYTE	W06
	BYTE		        Cn4 
	BYTE	W06
	BYTE		        Bn3 
	BYTE	W06
	BYTE		        Cn4 
	BYTE	W06
	BYTE		N10     Dn4 
	BYTE	W10
	BYTE		N02     Dn4   v072
	BYTE	W02
	BYTE		N10     Fn4   v112
	BYTE	W10
	BYTE		N02     Fn4   v072
	BYTE	W02
	BYTE		N10     En4   v112
	BYTE	W10
	BYTE		N02     En4   v072
	BYTE	W02
// 003   ----------------------------------------
	BYTE		N10     Dn4   v112
	BYTE	W10
	BYTE		N02     Dn4   v072
	BYTE	W02
	BYTE		N32     Cn3   v112
	BYTE	W32
	BYTE	W01
	BYTE		N03     Cn3   v072
	BYTE	W03
	BYTE		N10     En3   v112
	BYTE	W10
	BYTE		N02     En3   v072
	BYTE	W02
	BYTE		N24     Fn3   v112
	BYTE	W24
	BYTE		N10     Dn3   v100
	BYTE	W10
	BYTE		N02     Dn3   v072
	BYTE	W02
// 004   ----------------------------------------
	BYTE		N10     Cn3   v112
	BYTE	W10
	BYTE		N02     Cn3   v072
	BYTE	W02
	BYTE		N56     En3   v112
	BYTE	W56
	BYTE	W01
	BYTE		N03     En3   v072
	BYTE	W03
	BYTE		N10     Dn3   v112
	BYTE	W10
	BYTE		N02     Dn3   v072
	BYTE	W02
	BYTE		N10     Cn3   v112
	BYTE	W10
	BYTE		N02     Cn3   v072
	BYTE	W02
// 005   ----------------------------------------
	BYTE		N10     Bn2   v112
	BYTE	W10
	BYTE		N02     Bn2   v072
	BYTE	W02
	BYTE		N44     En3   v112
	BYTE	W44
	BYTE	W01
	BYTE		N03     En3   v072
	BYTE	W03
	BYTE		N06     En3   v112
	BYTE	W06
	BYTE		        Fn3 
	BYTE	W06
	BYTE		        En3   v100
	BYTE	W06
	BYTE		        Dn3 
	BYTE	W06
	BYTE		        En3   v112
	BYTE	W06
	BYTE		        En3   v072
	BYTE	W06
// 006   ----------------------------------------
	BYTE		        En3   v112
	BYTE	W06
	BYTE		        Fn3 
	BYTE	W06
	BYTE		N32     En3 
	BYTE	W32
	BYTE	W01
	BYTE		N03     En3   v072
	BYTE	W03
	BYTE		N10     Ds3   v112
	BYTE	W10
	BYTE		N02     Ds3   v072
	BYTE	W02
	BYTE		N24     Dn3   v112
	BYTE	W24
	BYTE		N06     Dn3   v072
	BYTE	W06
	BYTE		        Dn3   v112
	BYTE	W06
// 007   ----------------------------------------
	BYTE		        Cn3 
	BYTE	W06
	BYTE		        Bn2 
	BYTE	W06
	BYTE		N44     Fn3 
	BYTE	W44
	BYTE	W01
	BYTE		N03     Fn3   v072
	BYTE	W03
	BYTE		N44     Fs3   v112
	BYTE	W36
// 008   ----------------------------------------
	BYTE	W09
	BYTE		N03     Fs3   v072
	BYTE	W03
	BYTE		N32     En3   v112
	BYTE	W32
	BYTE	W01
	BYTE		N03     En3   v072
	BYTE	W03
	BYTE		N06     Fs3   v112
	BYTE	W06
	BYTE		        Gs3 
	BYTE	W06
	BYTE		N44     An3 
	BYTE	W36
// 009   ----------------------------------------
	BYTE	W09
	BYTE		N03     An3   v072
	BYTE	W03
	BYTE		N44     An3   v112
	BYTE	W44
	BYTE	W01
	BYTE		N03     An3   v072
	BYTE	W03
	BYTE		N54     An3   v112
	BYTE	W36
// 010   ----------------------------------------
	BYTE	W18
	BYTE		N06   
	BYTE	W06
	BYTE		        Bn3 
	BYTE	W06
	BYTE		        Cn4 
	BYTE	W06
	BYTE		        Dn4 
	BYTE	W06
	BYTE		        Cn4 
	BYTE	W06
	BYTE		        Bn3 
	BYTE	W06
	BYTE		        An3 
	BYTE	W06
	BYTE		        Gs3 
	BYTE	W06
	BYTE		        An3 
	BYTE	W06
	BYTE		        Gs3 
	BYTE	W06
	BYTE		        Fs3 
	BYTE	W06
	BYTE		N24     Gs3 
	BYTE	W12
// 011   ----------------------------------------
	BYTE	W96
// 012   ----------------------------------------
	BYTE	W96
// 013   ----------------------------------------
	BYTE	W96
// 014   ----------------------------------------
	BYTE	W24
	BYTE		N06     En4 
	BYTE	W06
	BYTE		        En4   v072
	BYTE	W06
	BYTE		        An3   v112
	BYTE	W06
	BYTE		        An3   v072
	BYTE	W06
	BYTE		        Cn4   v112
	BYTE	W06
	BYTE		        Cn4   v072
	BYTE	W06
	BYTE		N24     Ds3   v112
	BYTE	W24
	BYTE		N12     Ds3   v072
	BYTE	W12
// 015   ----------------------------------------
	BYTE		        Ds3   v112
	BYTE	W12
	BYTE		N06     En3 
	BYTE	W06
	BYTE		        Fs3 
	BYTE	W06
	BYTE		        Gn3 
	BYTE	W06
	BYTE		        Fs3 
	BYTE	W06
	BYTE		        En3 
	BYTE	W06
	BYTE		        Gn3 
	BYTE	W06
	BYTE		        Fs3 
	BYTE	W06
	BYTE		        En3 
	BYTE	W06
	BYTE		N24     Dn3 
	BYTE	W24
	BYTE		        Gn3 
	BYTE	W12
// 016   ----------------------------------------
	BYTE	W12
	BYTE		N12     Gn3   v072
	BYTE	W12
	BYTE		N06     Gn3   v112
	BYTE	W06
	BYTE		        Fs3 
	BYTE	W06
	BYTE		N12     En3 
	BYTE	W12
	BYTE		N06     Dn3 
	BYTE	W06
	BYTE		        Cs3 
	BYTE	W06
	BYTE		        Dn3 
	BYTE	W06
	BYTE		        Dn3   v072
	BYTE	W06
	BYTE		        En3   v112
	BYTE	W06
	BYTE		        En3   v072
	BYTE	W06
	BYTE		        Ds3   v112
	BYTE	W06
	BYTE		        Ds3   v072
	BYTE	W06
// 017   ----------------------------------------
	BYTE		        Fs3   v112
	BYTE	W06
	BYTE		        Fs3   v072
	BYTE	W06
	BYTE		        En3   v112
	BYTE	W06
	BYTE		        Fs3 
	BYTE	W06
	BYTE		        Gn3 
	BYTE	W06
	BYTE		        Fs3 
	BYTE	W06
	BYTE		        En3 
	BYTE	W06
	BYTE		        Fs3 
	BYTE	W06
	BYTE		        En3 
	BYTE	W06
	BYTE		        Dn3 
	BYTE	W06
	BYTE		N24     Cn3 
	BYTE	W24
	BYTE		N12     Cn3   v072
	BYTE	W12
// 018   ----------------------------------------
	BYTE		        Cn3   v112
	BYTE	W12
	BYTE		N06     Dn3 
	BYTE	W06
	BYTE		        En3 
	BYTE	W06
	BYTE		        Fn3 
	BYTE	W06
	BYTE		        En3 
	BYTE	W06
	BYTE		        Dn3 
	BYTE	W06
	BYTE		        En3 
	BYTE	W06
	BYTE		        Dn3 
	BYTE	W06
	BYTE		        Cn3 
	BYTE	W06
	BYTE		N24     Dn3 
	BYTE	W24
	BYTE		N12     Cn3   v072
	BYTE	W12
// 019   ----------------------------------------
	BYTE		        En3   v112
	BYTE	W12
	BYTE		N24   
	BYTE	W24
	BYTE		N24   
	BYTE	W24
	BYTE		N48     An3 
	BYTE	W36
// 020   ----------------------------------------
	BYTE	W12
	BYTE		N36   
	BYTE	W36
	BYTE		N06     Gs3 
	BYTE	W06
	BYTE		        Fs3 
	BYTE	W06
	BYTE		N42     Gs3 
	BYTE	W36
	BYTE	GoTo
	 POIN2	PokemonRangerGuardianSignsArceusBattleSme_7_B1
PokemonRangerGuardianSignsArceusBattleSme_7_B2:
// 021   ----------------------------------------
	BYTE	W06
	BYTE		N06     Gs3   v072
	BYTE	W18
	BYTE	FINE

//**************** Track 8 (Midi-Chn.8) ****************//

PokemonRangerGuardianSignsArceusBattleSme_8:
	BYTE	KEYSH   PokemonRangerGuardianSignsArceusBattleSme_key+0
PokemonRangerGuardianSignsArceusBattleSme_8_B1:
// 000   ----------------------------------------
	BYTE		VOICE   20
	BYTE		VOL     44*PokemonRangerGuardianSignsArceusBattleSme_mvl/mxv
	BYTE		PAN     c_v-20
	BYTE		MOD     0
	BYTE	W12
	BYTE		N12     Gs3   v096
	BYTE	W12
	BYTE		N06     An3   v112
	BYTE	W06
	BYTE		        Gs3 
	BYTE	W06
	BYTE		        Bn3 
	BYTE	W06
	BYTE		        An3 
	BYTE	W06
	BYTE		        Gs3 
	BYTE	W06
	BYTE		        Bn3 
	BYTE	W06
	BYTE		        An3 
	BYTE	W06
	BYTE		        Bn3 
	BYTE	W06
	BYTE		        Cn4 
	BYTE	W06
	BYTE		        Bn3 
	BYTE	W06
	BYTE		        An3 
	BYTE	W06
	BYTE		        Gs3 
	BYTE	W06
// 001   ----------------------------------------
	BYTE		        Fs3 
	BYTE	W06
	BYTE		        An3 
	BYTE	W06
	BYTE		        Gs3 
	BYTE	W06
	BYTE		        An3 
	BYTE	W06
	BYTE		        Bn3 
	BYTE	W06
	BYTE		        An3 
	BYTE	W06
	BYTE		        Gs3 
	BYTE	W06
	BYTE		        Fs3 
	BYTE	W06
	BYTE		        En3 
	BYTE	W06
	BYTE		        Gs3 
	BYTE	W06
	BYTE		        Fs3 
	BYTE	W06
	BYTE		        Gs3 
	BYTE	W06
	BYTE		        An3 
	BYTE	W06
	BYTE		        Gs3 
	BYTE	W06
	BYTE		        Fs3 
	BYTE	W06
	BYTE		        En3 
	BYTE	W06
// 002   ----------------------------------------
	BYTE		        Dn3 
	BYTE	W06
	BYTE		        Fs3 
	BYTE	W06
	BYTE		N12     En3 
	BYTE	W12
	BYTE		N06     Dn3 
	BYTE	W06
	BYTE		        En3 
	BYTE	W06
	BYTE		        Fn3 
	BYTE	W06
	BYTE		        En3 
	BYTE	W06
	BYTE		        Dn3 
	BYTE	W06
	BYTE		        Cn3 
	BYTE	W06
	BYTE		N12     Bn2 
	BYTE	W12
	BYTE		N12   
	BYTE	W12
	BYTE		        An2 
	BYTE	W12
// 003   ----------------------------------------
	BYTE		        Gs2 
	BYTE	W18
	BYTE		N06     En2 
	BYTE	W06
	BYTE		        Fs2 
	BYTE	W06
	BYTE		        Gs2 
	BYTE	W06
	BYTE		        An2 
	BYTE	W06
	BYTE		        Bn2 
	BYTE	W06
	BYTE		        An2 
	BYTE	W06
	BYTE		        En2 
	BYTE	W06
	BYTE		        Dn2 
	BYTE	W06
	BYTE		        Fn2 
	BYTE	W06
	BYTE		        Bn2 
	BYTE	W06
	BYTE		        An2 
	BYTE	W06
	BYTE		        Gs2 
	BYTE	W06
	BYTE		        En2 
	BYTE	W06
// 004   ----------------------------------------
	BYTE		        An2 
	BYTE	W06
	BYTE		        En2 
	BYTE	W06
	BYTE		        Dn3   v084
	BYTE	W06
	BYTE		        Cn3   v088
	BYTE	W06
	BYTE		        Bn2   v092
	BYTE	W06
	BYTE		        Cn3   v088
	BYTE	W06
	BYTE		        Bn2 
	BYTE	W06
	BYTE		        Dn3 
	BYTE	W06
	BYTE		        Cn3   v096
	BYTE	W06
	BYTE		        Bn2   v068
	BYTE	W06
	BYTE		        Gs2   v096
	BYTE	W06
	BYTE		        An2   v104
	BYTE	W06
	BYTE		        Bn2   v096
	BYTE	W06
	BYTE		        An2   v092
	BYTE	W06
	BYTE		        Gs2   v108
	BYTE	W06
	BYTE		        En2   v104
	BYTE	W06
// 005   ----------------------------------------
	BYTE		        Fs2   v100
	BYTE	W06
	BYTE		        Gs2   v112
	BYTE	W06
	BYTE		        An2 
	BYTE	W06
	BYTE		        En2 
	BYTE	W06
	BYTE		        Fs2 
	BYTE	W06
	BYTE		        Gs2 
	BYTE	W06
	BYTE		        An2 
	BYTE	W06
	BYTE		        Bn2 
	BYTE	W06
	BYTE		        Cn3 
	BYTE	W06
	BYTE		        An2 
	BYTE	W06
	BYTE		        Gs2 
	BYTE	W06
	BYTE		        An2 
	BYTE	W06
	BYTE		        Gs2 
	BYTE	W06
	BYTE		        Fs2 
	BYTE	W06
	BYTE		        Gs2 
	BYTE	W06
	BYTE		        En2 
	BYTE	W06
// 006   ----------------------------------------
	BYTE		        An2 
	BYTE	W06
	BYTE		        En2 
	BYTE	W06
	BYTE		        An2 
	BYTE	W06
	BYTE		        Bn2 
	BYTE	W06
	BYTE		        Cn3 
	BYTE	W06
	BYTE		        Bn2 
	BYTE	W06
	BYTE		        An2 
	BYTE	W06
	BYTE		        Cn3 
	BYTE	W06
	BYTE		N18     An2 
	BYTE	W18
	BYTE		N06     En2 
	BYTE	W06
	BYTE		        Bn2 
	BYTE	W06
	BYTE		        An2 
	BYTE	W06
	BYTE		        Gs2 
	BYTE	W06
	BYTE		        An2 
	BYTE	W06
// 007   ----------------------------------------
	BYTE		        Gs2 
	BYTE	W06
	BYTE		        Dn3 
	BYTE	W06
	BYTE		        Cn3 
	BYTE	W06
	BYTE		        Dn3 
	BYTE	W06
	BYTE		        Cn3 
	BYTE	W06
	BYTE		        Bn2 
	BYTE	W06
	BYTE		        Cn3 
	BYTE	W06
	BYTE		        Bn2 
	BYTE	W06
	BYTE		        An2 
	BYTE	W06
	BYTE		        Gs2 
	BYTE	W06
	BYTE		        An2 
	BYTE	W06
	BYTE		        Bn2 
	BYTE	W06
	BYTE		        Cn3 
	BYTE	W06
	BYTE		        Bn2 
	BYTE	W06
	BYTE		        An2 
	BYTE	W06
	BYTE		        Gn2 
	BYTE	W06
// 008   ----------------------------------------
	BYTE		        Fs2 
	BYTE	W06
	BYTE		        Cn3 
	BYTE	W06
	BYTE		        Bn2 
	BYTE	W06
	BYTE		        Dn3 
	BYTE	W06
	BYTE		        Cn3 
	BYTE	W06
	BYTE		        Bn2 
	BYTE	W06
	BYTE		        En2 
	BYTE	W06
	BYTE		        Bn2 
	BYTE	W06
	BYTE		        Cn3 
	BYTE	W06
	BYTE		        Dn3 
	BYTE	W06
	BYTE		        En3 
	BYTE	W06
	BYTE		        Dn3 
	BYTE	W06
	BYTE		        Cn3 
	BYTE	W06
	BYTE		        Bn2 
	BYTE	W06
	BYTE		        An2 
	BYTE	W06
	BYTE		        Bn2 
	BYTE	W06
// 009   ----------------------------------------
	BYTE		        Cn3 
	BYTE	W06
	BYTE		        An2 
	BYTE	W06
	BYTE		        Fn3 
	BYTE	W06
	BYTE		        Gn3 
	BYTE	W06
	BYTE		        Fn3 
	BYTE	W06
	BYTE		        En3 
	BYTE	W06
	BYTE		        Fn3 
	BYTE	W06
	BYTE		        En3 
	BYTE	W06
	BYTE		        Dn3 
	BYTE	W06
	BYTE		        Fn3 
	BYTE	W06
	BYTE		        Cn3 
	BYTE	W06
	BYTE		        Dn3 
	BYTE	W06
	BYTE		        En3 
	BYTE	W06
	BYTE		        Dn3 
	BYTE	W06
	BYTE		        Cn3 
	BYTE	W06
	BYTE		        Bn2 
	BYTE	W06
// 010   ----------------------------------------
	BYTE		        An2 
	BYTE	W06
	BYTE		        Cn3 
	BYTE	W06
	BYTE		N18     Bn2 
	BYTE	W18
	BYTE		N06     An2 
	BYTE	W06
	BYTE		        Bn2 
	BYTE	W06
	BYTE		        Cn3 
	BYTE	W06
	BYTE		        Dn3 
	BYTE	W06
	BYTE		        Cn3 
	BYTE	W06
	BYTE		        Bn2 
	BYTE	W06
	BYTE		        Cn3 
	BYTE	W06
	BYTE		        Bn2 
	BYTE	W06
	BYTE		        An2 
	BYTE	W06
	BYTE		N24     Bn2 
	BYTE	W12
// 011   ----------------------------------------
	BYTE	W72
	BYTE		N06     Cn3 
	BYTE	W06
	BYTE		        Bn2 
	BYTE	W06
	BYTE		N12     An2 
	BYTE	W12
// 012   ----------------------------------------
	BYTE		N06     Gn2 
	BYTE	W06
	BYTE		        Fs2 
	BYTE	W06
	BYTE		N09     Gn2 
	BYTE	W09
	BYTE		N03     Gn2   v072
	BYTE	W03
	BYTE		N09     Bn2   v112
	BYTE	W09
	BYTE		N03     Bn2   v072
	BYTE	W03
	BYTE		N09     As2   v112
	BYTE	W09
	BYTE		N03     As2   v072
	BYTE	W03
	BYTE		N09     Cs3   v112
	BYTE	W09
	BYTE		N03     Cs3   v072
	BYTE	W03
	BYTE		N06     Bn2   v112
	BYTE	W06
	BYTE		        Bn2   v072
	BYTE	W06
	BYTE		        Bn3   v112
	BYTE	W06
	BYTE		        Bn3   v072
	BYTE	W06
	BYTE		        En3   v112
	BYTE	W06
	BYTE		        En3   v072
	BYTE	W06
// 013   ----------------------------------------
	BYTE		        Gn3   v112
	BYTE	W06
	BYTE		        Gn3   v072
	BYTE	W06
	BYTE		N24     As2   v112
	BYTE	W24
	BYTE		N12     As2   v072
	BYTE	W12
	BYTE		        As2   v112
	BYTE	W12
	BYTE		N06     Bn2 
	BYTE	W06
	BYTE		        Cs3 
	BYTE	W06
	BYTE		        Dn3 
	BYTE	W06
	BYTE		        Cs3 
	BYTE	W06
	BYTE		        Bn2 
	BYTE	W06
	BYTE		        Cn3 
	BYTE	W06
// 014   ----------------------------------------
	BYTE		        Bn2 
	BYTE	W06
	BYTE		        An2 
	BYTE	W06
	BYTE		N24     Gn2 
	BYTE	W24
	BYTE		        Cn3 
	BYTE	W24
	BYTE		N12     Cn3   v052
	BYTE	W12
	BYTE		N06     Cn3   v112
	BYTE	W06
	BYTE		        Bn2 
	BYTE	W06
	BYTE		N12     An2 
	BYTE	W12
// 015   ----------------------------------------
	BYTE		N06     Gn2 
	BYTE	W06
	BYTE		        Fs2 
	BYTE	W06
	BYTE		        Gn2 
	BYTE	W06
	BYTE		        Gn2   v072
	BYTE	W06
	BYTE		        Bn2   v112
	BYTE	W06
	BYTE		        Bn2   v072
	BYTE	W06
	BYTE		        As2   v112
	BYTE	W06
	BYTE		        As2   v072
	BYTE	W06
	BYTE		        Cs3   v112
	BYTE	W06
	BYTE		        Cs3   v072
	BYTE	W06
	BYTE		        Bn2   v112
	BYTE	W06
	BYTE		        Bn2   v072
	BYTE	W06
	BYTE		        Bn1   v112
	BYTE	W06
	BYTE		        Bn1   v072
	BYTE	W06
	BYTE		        Cs2   v112
	BYTE	W06
	BYTE		        Bn1 
	BYTE	W06
// 016   ----------------------------------------
	BYTE		        Cs2 
	BYTE	W06
	BYTE		        Dn2 
	BYTE	W06
	BYTE		        En2 
	BYTE	W06
	BYTE		        Fs2 
	BYTE	W06
	BYTE		        En2 
	BYTE	W06
	BYTE		        Dn2 
	BYTE	W06
	BYTE		        Cs2 
	BYTE	W06
	BYTE		        Cs2   v072
	BYTE	W06
	BYTE		        Fs2   v112
	BYTE	W06
	BYTE		        Fs2   v072
	BYTE	W06
	BYTE		N24     Bn1   v112
	BYTE	W24
	BYTE		N12     Bn1   v072
	BYTE	W12
// 017   ----------------------------------------
	BYTE		N18     Bn2   v112
	BYTE	W18
	BYTE		N06     Bn2   v072
	BYTE	W06
	BYTE		N12     Gn2   v112
	BYTE	W12
	BYTE		N06     Bn2 
	BYTE	W06
	BYTE		        Bn2   v072
	BYTE	W06
	BYTE		N12     Bn2   v112
	BYTE	W12
	BYTE		N54     An2 
	BYTE	W36
// 018   ----------------------------------------
	BYTE	W18
	BYTE		N06     An2   v072
	BYTE	W06
	BYTE		N12     Fn2   v112
	BYTE	W12
	BYTE		N06     An2 
	BYTE	W06
	BYTE		        An2   v072
	BYTE	W06
	BYTE		N12     An2   v112
	BYTE	W12
	BYTE		N24     Bn2 
	BYTE	W24
	BYTE		N12     An2 
	BYTE	W12
// 019   ----------------------------------------
	BYTE		        Cn3 
	BYTE	W12
	BYTE		N24     Bn2 
	BYTE	W24
	BYTE		N12     An2 
	BYTE	W12
	BYTE		N24     Cn3 
	BYTE	W24
	BYTE		N12   
	BYTE	W12
	BYTE		        Bn2 
	BYTE	W12
// 020   ----------------------------------------
	BYTE		        An2 
	BYTE	W12
	BYTE		N90     Bn2 
	BYTE	W84
	BYTE	GoTo
	 POIN2	PokemonRangerGuardianSignsArceusBattleSme_8_B1
PokemonRangerGuardianSignsArceusBattleSme_8_B2:
// 021   ----------------------------------------
	BYTE	W06
	BYTE		N06     Bn2   v072
	BYTE	W18
	BYTE	FINE

//**************** Track 9 (Midi-Chn.9) ****************//

PokemonRangerGuardianSignsArceusBattleSme_9:
	BYTE	KEYSH   PokemonRangerGuardianSignsArceusBattleSme_key+0
PokemonRangerGuardianSignsArceusBattleSme_9_B1:
// 000   ----------------------------------------
	BYTE		VOICE   20
	BYTE		VOL     40*PokemonRangerGuardianSignsArceusBattleSme_mvl/mxv
	BYTE		PAN     c_v+0
	BYTE		MOD     0
	BYTE	W12
	BYTE		TIE     En0   v112
	BYTE		TIE     En1 
	BYTE	W84
// 001   ----------------------------------------
	BYTE	W96
// 002   ----------------------------------------
	BYTE	W12
	BYTE		EOT     En0 
	BYTE		        En1 
	BYTE		N54     En0 
	BYTE		N54     En1 
	BYTE	W54
	BYTE		N06     En0   v072
	BYTE		N06     En1 
	BYTE	W06
	BYTE		N10     Dn1   v112
	BYTE		N10     Dn2 
	BYTE	W10
	BYTE		N02     Dn1   v072
	BYTE		N02     Dn2 
	BYTE	W02
	BYTE		N10     Cn1   v112
	BYTE		N10     Cn2 
	BYTE	W10
	BYTE		N02     Cn1   v072
	BYTE		N02     Cn2 
	BYTE	W02
// 003   ----------------------------------------
	BYTE		N10     Bn0   v112
	BYTE		N10     Bn1 
	BYTE	W10
	BYTE		N02     Bn0   v072
	BYTE		N02     Bn1 
	BYTE	W02
	BYTE		N96     An0   v112
	BYTE		N96     An1 
	BYTE	W84
// 004   ----------------------------------------
	BYTE	W12
	BYTE		N56     En0 
	BYTE		N56     En1 
	BYTE	W56
	BYTE	W01
	BYTE		N03     En0   v072
	BYTE		N03     En1 
	BYTE	W03
	BYTE		N10     Fn1   v112
	BYTE		N10     Fn2 
	BYTE	W10
	BYTE		N02     Fn1   v072
	BYTE		N02     Fn2 
	BYTE	W02
	BYTE		N10     En1   v112
	BYTE		N10     En2 
	BYTE	W10
	BYTE		N02     En1   v072
	BYTE		N02     En2 
	BYTE	W02
// 005   ----------------------------------------
	BYTE		N10     Dn1   v112
	BYTE		N10     Dn2 
	BYTE	W10
	BYTE		N02     Dn1   v072
	BYTE		N02     Dn2 
	BYTE	W02
	BYTE		N44     Cn1   v112
	BYTE		N44     Cn2 
	BYTE	W44
	BYTE	W01
	BYTE		N03     Cn1   v072
	BYTE		N03     Cn2 
	BYTE	W03
	BYTE		N32     Bn0   v112
	BYTE		N32     Bn1 
	BYTE	W32
	BYTE	W01
	BYTE		N03     Bn0   v072
	BYTE		N03     Bn1 
	BYTE	W03
// 006   ----------------------------------------
	BYTE		N12     An0   v112
	BYTE		N12     An1 
	BYTE	W12
	BYTE		N48     En1 
	BYTE		N48     En2 
	BYTE	W48
	BYTE		N44     En0 
	BYTE		N44     En1 
	BYTE	W36
// 007   ----------------------------------------
	BYTE	W09
	BYTE		N03     En0   v072
	BYTE		N03     En1 
	BYTE	W03
	BYTE		N32     Fn1   v112
	BYTE		N32     Fn2 
	BYTE	W32
	BYTE	W01
	BYTE		N03     Fn1   v072
	BYTE		N03     Fn2 
	BYTE	W03
	BYTE		N10     En1   v112
	BYTE		N10     En2 
	BYTE	W10
	BYTE		N02     En1   v072
	BYTE		N02     En2 
	BYTE	W02
	BYTE		N48     Ds1   v112
	BYTE		N48     Ds2 
	BYTE	W36
// 008   ----------------------------------------
	BYTE	W12
	BYTE		N32     Dn1 
	BYTE		N32     Dn2 
	BYTE	W32
	BYTE	W01
	BYTE		N03     Dn1   v072
	BYTE		N03     Dn2 
	BYTE	W03
	BYTE		N10     Dn1   v112
	BYTE		N10     Dn2 
	BYTE	W10
	BYTE		N02     Dn1   v072
	BYTE		N02     Dn2 
	BYTE	W02
	BYTE		N32     Cn1   v112
	BYTE		N32     Cn2 
	BYTE	W32
	BYTE	W01
	BYTE		N03     Cn1   v072
	BYTE		N03     Cn2 
	BYTE	W03
// 009   ----------------------------------------
	BYTE		N10     Cn1   v112
	BYTE		N10     Cn2 
	BYTE	W10
	BYTE		N02     Cn1   v072
	BYTE		N02     Cn2 
	BYTE	W02
	BYTE		N32     Bn0   v112
	BYTE		N32     Bn1 
	BYTE	W32
	BYTE	W01
	BYTE		N03     Bn0   v072
	BYTE		N03     Bn1 
	BYTE	W03
	BYTE		N10     Bn0   v112
	BYTE		N10     Bn1 
	BYTE	W10
	BYTE		N02     Bn0   v072
	BYTE		N02     Bn1 
	BYTE	W02
	BYTE		N21     Fn1   v112
	BYTE		N21     Fn2 
	BYTE	W21
	BYTE		N03     Fn1   v072
	BYTE		N03     Fn2 
	BYTE	W03
	BYTE		N22     Fn1   v112
	BYTE		N22     Fn2 
	BYTE	W12
// 010   ----------------------------------------
	BYTE	W10
	BYTE		N02     Fn1   v072
	BYTE		N02     Fn2 
	BYTE	W02
	BYTE		N96     En1   v112
	BYTE		N96     En2 
	BYTE	W84
// 011   ----------------------------------------
	BYTE	W12
	BYTE		N24     An0 
	BYTE		N24     An1 
	BYTE	W12
	BYTE		N06     En2 
	BYTE		N06     En3 
	BYTE	W06
	BYTE		        En2   v072
	BYTE		N06     En3 
	BYTE	W06
	BYTE		        An1   v112
	BYTE		N06     An2 
	BYTE	W06
	BYTE		        An1   v072
	BYTE		N06     An2 
	BYTE	W06
	BYTE		        Cn2   v112
	BYTE		N06     Cn3 
	BYTE	W06
	BYTE		        Cn2   v072
	BYTE		N06     Cn3 
	BYTE	W06
	BYTE		N30     Ds1   v112
	BYTE		N30     Ds2 
	BYTE	W30
	BYTE		N06     Ds1   v072
	BYTE		N06     Ds2 
	BYTE	W06
// 012   ----------------------------------------
	BYTE		N12     Ds1   v112
	BYTE		N12     Ds2 
	BYTE	W12
	BYTE		N06     En1 
	BYTE		N06     En2 
	BYTE	W06
	BYTE		        Fs1 
	BYTE		N06     Fs2 
	BYTE	W06
	BYTE		        Gn1 
	BYTE		N06     Gn2 
	BYTE	W06
	BYTE		        Fs1 
	BYTE		N06     Fs2 
	BYTE	W06
	BYTE		        En1 
	BYTE		N06     En2 
	BYTE	W06
	BYTE		        Gn1 
	BYTE		N06     Gn2 
	BYTE	W06
	BYTE		        Fs1 
	BYTE		N06     Fs2 
	BYTE	W06
	BYTE		        En1 
	BYTE		N06     En2 
	BYTE	W06
	BYTE		N24     Dn1 
	BYTE		N24     Dn2 
	BYTE	W24
	BYTE		        Gn1 
	BYTE		N24     Gn2 
	BYTE	W12
// 013   ----------------------------------------
	BYTE	W12
	BYTE		N12     Gn1   v072
	BYTE		N12     Gn2 
	BYTE	W12
	BYTE		N06     Gn1   v112
	BYTE		N06     Gn2 
	BYTE	W06
	BYTE		        Fs1 
	BYTE		N06     Fs2 
	BYTE	W06
	BYTE		N12     En1 
	BYTE		N12     En2 
	BYTE	W12
	BYTE		N06     Dn1 
	BYTE		N06     Dn2 
	BYTE	W06
	BYTE		        Cs1 
	BYTE		N06     Cs2 
	BYTE	W06
	BYTE		        Dn1 
	BYTE		N06     Dn2 
	BYTE	W06
	BYTE		        Dn1   v072
	BYTE		N06     Dn2 
	BYTE	W06
	BYTE		        En1   v112
	BYTE		N06     En2 
	BYTE	W06
	BYTE		        En1   v072
	BYTE		N06     En2 
	BYTE	W06
	BYTE		        Ds1   v112
	BYTE		N06     Ds2 
	BYTE	W06
	BYTE		        Ds1   v072
	BYTE		N06     Ds2 
	BYTE	W06
// 014   ----------------------------------------
	BYTE		        Fs1   v112
	BYTE		N06     Fs2 
	BYTE	W06
	BYTE		        Fs1   v072
	BYTE		N06     Fs2 
	BYTE	W06
	BYTE		N24     En1   v112
	BYTE		N24     En2 
	BYTE	W24
	BYTE		N12     Fs1 
	BYTE		N12     Fs2 
	BYTE	W12
	BYTE		N06     Gn1 
	BYTE		N06     Gn2 
	BYTE	W06
	BYTE		        An1 
	BYTE		N06     An2 
	BYTE	W06
	BYTE		N30     Bn0 
	BYTE		N30     Bn1 
	BYTE	W30
	BYTE		N06     Bn0   v072
	BYTE		N06     Bn1 
	BYTE	W06
// 015   ----------------------------------------
	BYTE		N12     Bn0   v112
	BYTE		N12     Bn1 
	BYTE	W12
	BYTE		        En1 
	BYTE		N12     En2 
	BYTE	W12
	BYTE		        En1   v072
	BYTE		N12     En2 
	BYTE	W12
	BYTE		N08     Fs1   v112
	BYTE		N08     Fs2 
	BYTE	W08
	BYTE		N04     Fs1   v072
	BYTE		N04     Fs2 
	BYTE	W04
	BYTE		N08     As0   v112
	BYTE		N08     As1 
	BYTE	W08
	BYTE		N04     As0   v072
	BYTE		N04     As1 
	BYTE	W04
	BYTE		N24     Bn0   v112
	BYTE		N24     Bn1 
	BYTE	W24
	BYTE		        Bn0   v052
	BYTE		N24     Bn1 
	BYTE	W12
// 016   ----------------------------------------
	BYTE	W96
// 017   ----------------------------------------
	BYTE		N12     Ds1   v112
	BYTE		N12     Ds2 
	BYTE	W12
	BYTE		N24     En1 
	BYTE		N24     En2 
	BYTE	W24
	BYTE		N12     En1   v072
	BYTE		N12     En2 
	BYTE	W12
	BYTE		N06     Gn0   v112
	BYTE		N06     Gn1 
	BYTE	W06
	BYTE		        Gn0   v072
	BYTE		N06     Gn1 
	BYTE	W06
	BYTE		N24     An0   v112
	BYTE		N24     An1 
	BYTE	W24
	BYTE		N12     An0   v072
	BYTE		N12     An1 
	BYTE	W12
// 018   ----------------------------------------
	BYTE		N06     Cn1   v112
	BYTE		N06     Cn2 
	BYTE	W06
	BYTE		        Cn1   v072
	BYTE		N06     Cn2 
	BYTE	W06
	BYTE		N24     Dn1   v112
	BYTE		N24     Dn2 
	BYTE	W24
	BYTE		N12     Dn1   v072
	BYTE		N12     Dn2 
	BYTE	W12
	BYTE		N06     An0   v112
	BYTE		N06     An1 
	BYTE	W06
	BYTE		        An0   v072
	BYTE		N06     An1 
	BYTE	W06
	BYTE		N24     Gs0   v112
	BYTE		N24     Gs1 
	BYTE	W24
	BYTE		        An0 
	BYTE		N24     An1 
	BYTE	W12
// 019   ----------------------------------------
	BYTE	W12
	BYTE		        Bn0 
	BYTE		N24     Bn1 
	BYTE	W24
	BYTE		        Cn1 
	BYTE		N24     Cn2 
	BYTE	W24
	BYTE		N48     Fn0 
	BYTE		N48     Fn1 
	BYTE	W36
// 020   ----------------------------------------
	BYTE	W12
	BYTE		N90     En0 
	BYTE		N90     En1 
	BYTE	W84
	BYTE	GoTo
	 POIN2	PokemonRangerGuardianSignsArceusBattleSme_9_B1
PokemonRangerGuardianSignsArceusBattleSme_9_B2:
// 021   ----------------------------------------
	BYTE	W06
	BYTE		N06     En0   v072
	BYTE		N06     En1 
	BYTE	W18
	BYTE	FINE

//******************************************************//
	ALIGN 4

PokemonRangerGuardianSignsArceusBattleSme:
	BYTE	9	// NumTrks
	BYTE	0	// NumBlks
	BYTE	PokemonRangerGuardianSignsArceusBattleSme_pri	// Priority
	BYTE	PokemonRangerGuardianSignsArceusBattleSme_rev	// Reverb.

	POIN2	PokemonRangerGuardianSignsArceusBattleSme_grp

	POIN2	PokemonRangerGuardianSignsArceusBattleSme_1
	POIN2	PokemonRangerGuardianSignsArceusBattleSme_2
	POIN2	PokemonRangerGuardianSignsArceusBattleSme_3
	POIN2	PokemonRangerGuardianSignsArceusBattleSme_4
	POIN2	PokemonRangerGuardianSignsArceusBattleSme_5
	POIN2	PokemonRangerGuardianSignsArceusBattleSme_6
	POIN2	PokemonRangerGuardianSignsArceusBattleSme_7
	POIN2	PokemonRangerGuardianSignsArceusBattleSme_8
	POIN2	PokemonRangerGuardianSignsArceusBattleSme_9

	
