//Event file generated from Sappy .s format.
	#include "MPlayDef.event"

	#define	PokemonRSEVictoryRoadDolkar_grp  voicegroup000
	#define	PokemonRSEVictoryRoadDolkar_pri  0
	#define	PokemonRSEVictoryRoadDolkar_rev  0
	#define	PokemonRSEVictoryRoadDolkar_mvl  127
	#define	PokemonRSEVictoryRoadDolkar_key  0
	#define	PokemonRSEVictoryRoadDolkar_tbs  1
	#define	PokemonRSEVictoryRoadDolkar_exg  0
	#define	PokemonRSEVictoryRoadDolkar_cmp  1

	// .rodata
	//	PokemonRSEVictoryRoadDolkar
	ALIGN 4


//**************** Track 1 (Midi-Chn.0) ****************//

PokemonRSEVictoryRoadDolkar_001:
// 000   ----------------------------------------
 BYTE   KEYSH   PokemonRSEVictoryRoadDolkar_key+0
Label_0_018B3592:
 BYTE   TEMPO   134*PokemonRSEVictoryRoadDolkar_tbs/2
 BYTE   VOICE   60
 BYTE   VOL   80*PokemonRSEVictoryRoadDolkar_mvl/mxv
 BYTE   PAN   c_v+0
 BYTE   VOL   30*PokemonRSEVictoryRoadDolkar_mvl/mxv
 BYTE   N44  Gn2  v100
 BYTE   W05
 BYTE   VOL   31*PokemonRSEVictoryRoadDolkar_mvl/mxv
 BYTE   W08
 BYTE   Gs0
 BYTE   W11
 BYTE   Gs0
 BYTE   W08
 BYTE   An0
 BYTE   W01
 BYTE   As0
 BYTE   W03
 BYTE   As0
 BYTE   W01
 BYTE   Bn0
 BYTE   W03
 BYTE   Bn0
 BYTE   W01
 BYTE   Cn1
 BYTE   W03
 BYTE   Cs1
 BYTE   W04
 BYTE   Cs1
 BYTE   N44  Fs2
 BYTE   W01
 BYTE   VOL   39*PokemonRSEVictoryRoadDolkar_mvl/mxv
 BYTE   W03
 BYTE   En1
 BYTE   W01
 BYTE   Fs1
 BYTE   W03
 BYTE   Gs1
 BYTE   W01
 BYTE   An1
 BYTE   W03
 BYTE   Bn1
 BYTE   W01
 BYTE   Cn2
 BYTE   W03
 BYTE   Dn2
 BYTE   W01
 BYTE   En2
 BYTE   W03
 BYTE   Fs2
 BYTE   W08
 BYTE   Gs2
 BYTE   W01
 BYTE   Bn2
 BYTE   W03
 BYTE   Dn3
 BYTE   W01
 BYTE   Fs3
 BYTE   W03
 BYTE   Bn3
 BYTE   W04
 BYTE   Ds4
 BYTE   W05
 BYTE   Gs4
 BYTE   W03
// 001   ----------------------------------------
 BYTE   W96
// 002   ----------------------------------------
 BYTE   W48
 BYTE   N04  Fn3
 BYTE   W08
 BYTE   Cn3
 BYTE   W08
 BYTE   Fn3
 BYTE   W08
 BYTE   N24  Bn3
 BYTE   W16
 BYTE   BEND   c_v+30
 BYTE   W08
// 003   ----------------------------------------
 BYTE   En3
 BYTE   W96
// 004   ----------------------------------------
 BYTE   W44
 BYTE   W03
 BYTE   VOICE   14
 BYTE   W01
 BYTE   N44  Gs3
 BYTE   W44
 BYTE   W03
 BYTE   VOICE   60
 BYTE   W01
// 005   ----------------------------------------
Label_0_018B35F9:
 BYTE   N32  Cs3  v100
 BYTE   W40
 BYTE   N04  En3
 BYTE   W08
 BYTE   N44  Gs3
 BYTE   W48
 BYTE   PEND 
// 006   ----------------------------------------
Label_0_018B3604:
 BYTE   N32  Dn3  v100
 BYTE   W40
 BYTE   N04  Fs3
 BYTE   W08
 BYTE   N20  Bn3
 BYTE   W20
 BYTE   N02  An3
 BYTE   W02
 BYTE   Bn3
 BYTE   W02
 BYTE   N16  An3
 BYTE   W16
 BYTE   N04  Fs3
 BYTE   W08
 BYTE   PEND 
// 007   ----------------------------------------
Label_0_018B361A:
 BYTE   N92  Gs3  v100
 BYTE   W92
 BYTE   W03
 BYTE   VOICE   56
 BYTE   W01
 BYTE   PEND 
// 008   ----------------------------------------
Label_0_018B3623:
 BYTE   N04  Dn3  v100
 BYTE   W08
 BYTE   An2
 BYTE   W08
 BYTE   Dn3
 BYTE   W08
 BYTE   Fs3
 BYTE   W08
 BYTE   Dn3
 BYTE   W08
 BYTE   Fs3
 BYTE   W08
 BYTE   An3
 BYTE   W08
 BYTE   N02
 BYTE   W04
 BYTE   An3  v076
 BYTE   W04
 BYTE   N04  An3  v100
 BYTE   W08
 BYTE   N04
 BYTE   W08
 BYTE   Fs3
 BYTE   W08
 BYTE   Dn4
 BYTE   W07
 BYTE   VOICE   60
 BYTE   W01
 BYTE   PEND 
// 009   ----------------------------------------
Label_0_018B3646:
 BYTE   N04  Cs4  v100
 BYTE   W16
 BYTE   En4
 BYTE   W08
 BYTE   N36  Gs4
 BYTE   W40
 BYTE   N04  Gn4
 BYTE   W04
 BYTE   Fs4
 BYTE   W04
 BYTE   N24  En4
 BYTE   W24
 BYTE   PEND 
// 010   ----------------------------------------
Label_0_018B3658:
 BYTE   N04  Dn4  v100
 BYTE   W16
 BYTE   Fs4
 BYTE   W08
 BYTE   N16  An4
 BYTE   W16
 BYTE   N04  Gs4
 BYTE   W04
 BYTE   An4
 BYTE   W04
 BYTE   N24  Fs4
 BYTE   W24
 BYTE   N04  Bn4
 BYTE   W08
 BYTE   An4
 BYTE   W08
 BYTE   Fs4
 BYTE   W08
 BYTE   PEND 
// 011   ----------------------------------------
Label_0_018B3671:
 BYTE   N36  Gs4  v100
 BYTE   W40
 BYTE   N04  Fs4
 BYTE   W04
 BYTE   Gs4
 BYTE   W04
 BYTE   N36  En4
 BYTE   W40
 BYTE   N08  Gs4
 BYTE   W08
 BYTE   PEND 
// 012   ----------------------------------------
Label_0_018B3681:
 BYTE   N36  Fs4  v100
 BYTE   W40
 BYTE   N04  Dn4
 BYTE   W04
 BYTE   Fs4
 BYTE   W04
 BYTE   N24  Bn4
 BYTE   W24
 BYTE   An4
 BYTE   W23
 BYTE   VOICE   48
 BYTE   W01
 BYTE   PEND 
// 013   ----------------------------------------
Label_0_018B3693:
 BYTE   W24
 BYTE   N24  En5  v100
 BYTE   W24
 BYTE   Ds5
 BYTE   W24
 BYTE   Cn5
 BYTE   W24
 BYTE   PEND 
// 014   ----------------------------------------
Label_0_018B369D:
 BYTE   N24  Cs5  v100
 BYTE   W24
 BYTE   Gn4
 BYTE   W24
 BYTE   As4
 BYTE   W24
 BYTE   Cn5
 BYTE   W24
 BYTE   PEND 
// 015   ----------------------------------------
Label_0_018B36A8:
 BYTE   W24
 BYTE   N08  En5  v100
 BYTE   W08
 BYTE   Cs5
 BYTE   W08
 BYTE   Gs4
 BYTE   W08
 BYTE   Ds5
 BYTE   W08
 BYTE   Cn5
 BYTE   W08
 BYTE   Gn4
 BYTE   W08
 BYTE   Dn5
 BYTE   W08
 BYTE   Bn4
 BYTE   W08
 BYTE   Fs4
 BYTE   W08
 BYTE   PEND 
// 016   ----------------------------------------
Label_0_018B36BE:
 BYTE   N24  En5  v100
 BYTE   W24
 BYTE   Cs5
 BYTE   W24
 BYTE   En5
 BYTE   W24
 BYTE   Gn5
 BYTE   W23
 BYTE   VOICE   56
 BYTE   W01
 BYTE   PEND 
// 017   ----------------------------------------
Label_0_018B36CC:
 BYTE   N06  Gs5  v100
 BYTE   W24
 BYTE   Gs4
 BYTE   W24
 BYTE   N02
 BYTE   W08
 BYTE   N02
 BYTE   W04
 BYTE   Gn4
 BYTE   W04
 BYTE   N04  Gs4
 BYTE   W08
 BYTE   N04
 BYTE   W08
 BYTE   As4
 BYTE   W08
 BYTE   Cn5
 BYTE   W07
 BYTE   VOICE   73
 BYTE   W01
 BYTE   PEND 
// 018   ----------------------------------------
Label_0_018B36E5:
 BYTE   VOL   66*PokemonRSEVictoryRoadDolkar_mvl/mxv
 BYTE   N36  Cs4  v100
 BYTE   W24
 BYTE   VOL   62*PokemonRSEVictoryRoadDolkar_mvl/mxv
 BYTE   W04
 BYTE   Bn2
 BYTE   W04
 BYTE   Gs2
 BYTE   W04
 BYTE   Dn2
 BYTE   W04
 BYTE   An3
 BYTE   N04  En4
 BYTE   W08
 BYTE   N44  Gs4
 BYTE   W24
 BYTE   VOL   66*PokemonRSEVictoryRoadDolkar_mvl/mxv
 BYTE   W04
 BYTE   Dn3
 BYTE   W04
 BYTE   Bn2
 BYTE   W04
 BYTE   Gs2
 BYTE   W04
 BYTE   Dn2
 BYTE   W04
 BYTE   Gs1
 BYTE   W04
 BYTE   PEND 
// 019   ----------------------------------------
Label_0_018B3709:
 BYTE   VOL   69*PokemonRSEVictoryRoadDolkar_mvl/mxv
 BYTE   N36  Ds4  v100
 BYTE   W24
 BYTE   VOL   66*PokemonRSEVictoryRoadDolkar_mvl/mxv
 BYTE   W04
 BYTE   Dn3
 BYTE   W04
 BYTE   Bn2
 BYTE   W04
 BYTE   Fn2
 BYTE   W04
 BYTE   An3
 BYTE   N04  Fs4
 BYTE   W08
 BYTE   N24  Bn4
 BYTE   W24
 BYTE   N04  An4
 BYTE   W16
 BYTE   Fs4
 BYTE   W08
 BYTE   PEND 
// 020   ----------------------------------------
Label_0_018B3725:
 BYTE   N92  Gs4  v100
 BYTE   W48
 BYTE   VOL   66*PokemonRSEVictoryRoadDolkar_mvl/mxv
 BYTE   W04
 BYTE   Dn3
 BYTE   W04
 BYTE   Bn2
 BYTE   W04
 BYTE   Gs2
 BYTE   W04
 BYTE   Fn2
 BYTE   W04
 BYTE   Dn2
 BYTE   W04
 BYTE   Bn1
 BYTE   W04
 BYTE   Gs1
 BYTE   W04
 BYTE   Fs1
 BYTE   W04
 BYTE   Fn1
 BYTE   W04
 BYTE   En1
 BYTE   W04
 BYTE   Ds1
 BYTE   W03
 BYTE   VOICE   60
 BYTE   W01
 BYTE   PEND 
// 021   ----------------------------------------
Label_0_018B3746:
 BYTE   VOL   69*PokemonRSEVictoryRoadDolkar_mvl/mxv
 BYTE   N04  An4  v100
 BYTE   W16
 BYTE   En4
 BYTE   W08
 BYTE   N24  An4
 BYTE   W24
 BYTE   Bn4
 BYTE   W24
 BYTE   N08  Ds5
 BYTE   W08
 BYTE   N02  Dn5  v052
 BYTE   W02
 BYTE   Cs5
 BYTE   W02
 BYTE   Cn5
 BYTE   W02
 BYTE   Bn4
 BYTE   W02
 BYTE   N08  Cn4  v100
 BYTE   W07
 BYTE   VOICE   73
 BYTE   W01
 BYTE   PEND 
// 022   ----------------------------------------
Label_0_018B3768:
 BYTE   N08  Cs4  v100
 BYTE   W08
 BYTE   Cn4
 BYTE   W08
 BYTE   Cs4
 BYTE   W08
 BYTE   N04  En4
 BYTE   W16
 BYTE   Fs4
 BYTE   W08
 BYTE   N44  Gs4
 BYTE   W28
 BYTE   VOL   66*PokemonRSEVictoryRoadDolkar_mvl/mxv
 BYTE   W04
 BYTE   Dn3
 BYTE   W04
 BYTE   Gs2
 BYTE   W04
 BYTE   Dn2
 BYTE   W04
 BYTE   Gs1
 BYTE   W04
 BYTE   PEND 
// 023   ----------------------------------------
Label_0_018B3784:
 BYTE   VOL   69*PokemonRSEVictoryRoadDolkar_mvl/mxv
 BYTE   N08  Ds4  v100
 BYTE   W08
 BYTE   Dn4
 BYTE   W08
 BYTE   Ds4
 BYTE   W08
 BYTE   N04  Fs4
 BYTE   W16
 BYTE   Gs4
 BYTE   W08
 BYTE   N24  Bn4
 BYTE   W24
 BYTE   N04  An4
 BYTE   W16
 BYTE   Fs4
 BYTE   W08
 BYTE   PEND 
// 024   ----------------------------------------
Label_0_018B379C:
 BYTE   N08  Gs4  v100
 BYTE   W08
 BYTE   Gn4
 BYTE   W08
 BYTE   N78  Gs4
 BYTE   W32
 BYTE   VOL   66*PokemonRSEVictoryRoadDolkar_mvl/mxv
 BYTE   W04
 BYTE   Dn3
 BYTE   W04
 BYTE   Cs3
 BYTE   W04
 BYTE   Bn2
 BYTE   W04
 BYTE   An2
 BYTE   W04
 BYTE   Gs2
 BYTE   W04
 BYTE   Gn2
 BYTE   W04
 BYTE   Fs2
 BYTE   W04
 BYTE   En2
 BYTE   W04
 BYTE   Ds2
 BYTE   W04
 BYTE   Dn2
 BYTE   W04
 BYTE   Cs2
 BYTE   W03
 BYTE   VOICE   60
 BYTE   W01
 BYTE   PEND 
// 025   ----------------------------------------
Label_0_018B37C2:
 BYTE   VOL   69*PokemonRSEVictoryRoadDolkar_mvl/mxv
 BYTE   N04  An4  v100
 BYTE   W08
 BYTE   Gs4
 BYTE   W08
 BYTE   An4
 BYTE   W08
 BYTE   N04
 BYTE   W16
 BYTE   As4
 BYTE   W08
 BYTE   Bn4
 BYTE   W08
 BYTE   As4
 BYTE   W08
 BYTE   Bn4
 BYTE   W08
 BYTE   Cs5
 BYTE   W08
 BYTE   Ds5
 BYTE   W08
 BYTE   Fs5
 BYTE   W08
 BYTE   PEND 
// 026   ----------------------------------------
 BYTE   W96
// 027   ----------------------------------------
Label_0_018B37DE:
 BYTE   W48
 BYTE   N04  Gs3  v100
 BYTE   W08
 BYTE   Ds3
 BYTE   W08
 BYTE   Gs3
 BYTE   W08
 BYTE   N16  Dn4
 BYTE   W16
 BYTE   N04  Ds4
 BYTE   W08
 BYTE   PEND 
// 028   ----------------------------------------
 BYTE   W96
// 029   ----------------------------------------
 BYTE   W96
 BYTE   PATT
  POIN2 Label_0_018B35F9
 BYTE   PATT
  POIN2 Label_0_018B3604
 BYTE   PATT
  POIN2 Label_0_018B361A
 BYTE   PATT
  POIN2 Label_0_018B3623
 BYTE   PATT
  POIN2 Label_0_018B3646
 BYTE   PATT
  POIN2 Label_0_018B3658
 BYTE   PATT
  POIN2 Label_0_018B3671
 BYTE   PATT
  POIN2 Label_0_018B3681
 BYTE   PATT
  POIN2 Label_0_018B3693
 BYTE   PATT
  POIN2 Label_0_018B369D
 BYTE   PATT
  POIN2 Label_0_018B36A8
 BYTE   PATT
  POIN2 Label_0_018B36BE
 BYTE   PATT
  POIN2 Label_0_018B36CC
 BYTE   PATT
  POIN2 Label_0_018B36E5
 BYTE   PATT
  POIN2 Label_0_018B3709
 BYTE   PATT
  POIN2 Label_0_018B3725
 BYTE   PATT
  POIN2 Label_0_018B3746
 BYTE   PATT
  POIN2 Label_0_018B3768
 BYTE   PATT
  POIN2 Label_0_018B3784
 BYTE   PATT
  POIN2 Label_0_018B379C
 BYTE   PATT
  POIN2 Label_0_018B37C2
// 030   ----------------------------------------
 BYTE   W96
 BYTE   PATT
  POIN2 Label_0_018B37DE
// 031   ----------------------------------------
 BYTE   W96
// 032   ----------------------------------------
 BYTE   W96
// 033   ----------------------------------------
 BYTE   GoTo
  POIN2 Label_0_018B3592
 BYTE   FINE

//**************** Track 2 (Midi-Chn.1) ****************//

PokemonRSEVictoryRoadDolkar_002:
// 000   ----------------------------------------
 BYTE   KEYSH   PokemonRSEVictoryRoadDolkar_key+0
Label_1_018B386A:
 BYTE   VOICE   48
 BYTE   VOL   69*PokemonRSEVictoryRoadDolkar_mvl/mxv
 BYTE   PAN   c_v+0
 BYTE   VOL   16*PokemonRSEVictoryRoadDolkar_mvl/mxv
 BYTE   N44  Ds5  v076
 BYTE   W21
 BYTE   VOL   17*PokemonRSEVictoryRoadDolkar_mvl/mxv
 BYTE   W08
 BYTE   FnM1
 BYTE   W03
 BYTE   GnM1
 BYTE   W04
 BYTE   GsM1
 BYTE   W01
 BYTE   AsM1
 BYTE   W03
 BYTE   BnM1
 BYTE   W05
 BYTE   Cs0
 BYTE   W03
 BYTE   N44  En5
 BYTE   W01
 BYTE   VOL   26*PokemonRSEVictoryRoadDolkar_mvl/mxv
 BYTE   W03
 BYTE   En0
 BYTE   W05
 BYTE   Fn0
 BYTE   W03
 BYTE   Fs0
 BYTE   W01
 BYTE   Gn0
 BYTE   W03
 BYTE   Bn0
 BYTE   W01
 BYTE   Bn0
 BYTE   W03
 BYTE   Ds1
 BYTE   W01
 BYTE   Fn1
 BYTE   W03
 BYTE   Gn1
 BYTE   W01
 BYTE   Gs1
 BYTE   W03
 BYTE   Bn1
 BYTE   W01
 BYTE   Bn1
 BYTE   W18
 BYTE   VOICE   14
 BYTE   W01
// 001   ----------------------------------------
 BYTE   VOL   62*PokemonRSEVictoryRoadDolkar_mvl/mxv
 BYTE   N44  Fn4  v100
 BYTE   W48
 BYTE   N44
 BYTE   W48
// 002   ----------------------------------------
 BYTE   N24
 BYTE   W24
 BYTE   N24
 BYTE   W23
 BYTE   VOICE   56
 BYTE   W01
 BYTE   N04  Cn3
 BYTE   W08
 BYTE   Fn2
 BYTE   W08
 BYTE   Cn3
 BYTE   W08
 BYTE   N16  Ds3
 BYTE   W16
 BYTE   N04  En3
 BYTE   W07
 BYTE   VOICE   14
 BYTE   W01
// 003   ----------------------------------------
 BYTE   N44  Fn4
 BYTE   W48
 BYTE   N44
 BYTE   W48
// 004   ----------------------------------------
 BYTE   N24
 BYTE   W24
 BYTE   N24
 BYTE   W23
 BYTE   VOICE   48
 BYTE   W01
 BYTE   N04  Gs4
 BYTE   W04
 BYTE   Gn4
 BYTE   W04
 BYTE   Fs4
 BYTE   W04
 BYTE   Fn4
 BYTE   W04
 BYTE   En4
 BYTE   W04
 BYTE   Ds4
 BYTE   W04
 BYTE   Dn4
 BYTE   W04
 BYTE   Cs4
 BYTE   W04
 BYTE   Cn4
 BYTE   W04
 BYTE   Bn3
 BYTE   W04
 BYTE   As3
 BYTE   W04
 BYTE   An3
 BYTE   W03
 BYTE   VOICE   60
 BYTE   W01
// 005   ----------------------------------------
Label_1_018B38ED:
 BYTE   N04  En2  v100
 BYTE   W16
 BYTE   Cs2
 BYTE   W08
 BYTE   N24  Gs2
 BYTE   W24
 BYTE   N04  Cs3
 BYTE   W16
 BYTE   Gs2
 BYTE   W08
 BYTE   N24  En3
 BYTE   W24
 BYTE   PEND 
// 006   ----------------------------------------
Label_1_018B38FF:
 BYTE   N04  Dn2  v100
 BYTE   W16
 BYTE   An1
 BYTE   W08
 BYTE   N24  Fs2
 BYTE   W24
 BYTE   N04  An2
 BYTE   W16
 BYTE   Fs2
 BYTE   W08
 BYTE   N24  Dn3
 BYTE   W24
 BYTE   PEND 
// 007   ----------------------------------------
Label_1_018B3911:
 BYTE   N04  Gs2  v100
 BYTE   W08
 BYTE   An2
 BYTE   W08
 BYTE   Bn2
 BYTE   W08
 BYTE   An2
 BYTE   W08
 BYTE   Gs2
 BYTE   W08
 BYTE   Fs2
 BYTE   W08
 BYTE   Cs2
 BYTE   W08
 BYTE   Ds2
 BYTE   W08
 BYTE   En2
 BYTE   W08
 BYTE   N24  Gs2
 BYTE   W23
 BYTE   VOICE   56
 BYTE   W01
 BYTE   PEND 
// 008   ----------------------------------------
Label_1_018B392C:
 BYTE   N04  Fs2  v100
 BYTE   W08
 BYTE   Dn2
 BYTE   W08
 BYTE   Fs2
 BYTE   W08
 BYTE   An2
 BYTE   W08
 BYTE   Fs2
 BYTE   W08
 BYTE   An2
 BYTE   W08
 BYTE   Dn3
 BYTE   W08
 BYTE   N02
 BYTE   W04
 BYTE   Dn3  v076
 BYTE   W04
 BYTE   N04  Dn3  v100
 BYTE   W08
 BYTE   N04
 BYTE   W08
 BYTE   An2
 BYTE   W08
 BYTE   Fs3
 BYTE   W07
 BYTE   VOICE   48
 BYTE   W01
 BYTE   PEND 
// 009   ----------------------------------------
Label_1_018B394F:
 BYTE   N04  Gs3  v100
 BYTE   W16
 BYTE   En3
 BYTE   W08
 BYTE   N68  Cs4
 BYTE   W24
 BYTE   VOL   59*PokemonRSEVictoryRoadDolkar_mvl/mxv
 BYTE   W04
 BYTE   Gs2
 BYTE   W04
 BYTE   Fn2
 BYTE   W04
 BYTE   Dn2
 BYTE   W04
 BYTE   Bn1
 BYTE   W04
 BYTE   Gs1
 BYTE   W04
 BYTE   En1
 BYTE   W04
 BYTE   Cs1
 BYTE   W04
 BYTE   As0
 BYTE   W04
 BYTE   Gn0
 BYTE   W04
 BYTE   En0
 BYTE   W04
 BYTE   Cs0
 BYTE   W04
 BYTE   PEND 
// 010   ----------------------------------------
Label_1_018B3972:
 BYTE   VOL   62*PokemonRSEVictoryRoadDolkar_mvl/mxv
 BYTE   N04  An3  v100
 BYTE   W16
 BYTE   Fs3
 BYTE   W08
 BYTE   N16  Dn4
 BYTE   W16
 BYTE   N04  Cs4
 BYTE   W04
 BYTE   Dn4
 BYTE   W04
 BYTE   N24  An3
 BYTE   W24
 BYTE   N04  Bn3
 BYTE   W08
 BYTE   Cs4
 BYTE   W08
 BYTE   Dn4
 BYTE   W08
 BYTE   PEND 
// 011   ----------------------------------------
Label_1_018B398D:
 BYTE   N36  En4  v100
 BYTE   W40
 BYTE   N04  Ds4
 BYTE   W04
 BYTE   En4
 BYTE   W04
 BYTE   N36  Cs4
 BYTE   W40
 BYTE   N08  En4
 BYTE   W08
 BYTE   PEND 
// 012   ----------------------------------------
Label_1_018B399D:
 BYTE   N36  Fs4  v100
 BYTE   W40
 BYTE   N04  Dn4
 BYTE   W04
 BYTE   Fs4
 BYTE   W04
 BYTE   N24  Bn3
 BYTE   W24
 BYTE   Dn4
 BYTE   W23
 BYTE   VOICE   56
 BYTE   W01
 BYTE   PEND 
// 013   ----------------------------------------
Label_1_018B39AF:
 BYTE   W24
 BYTE   N24  Gn4  v100
 BYTE   W24
 BYTE   Fs4
 BYTE   W24
 BYTE   Ds4
 BYTE   W24
 BYTE   PEND 
// 014   ----------------------------------------
Label_1_018B39B9:
 BYTE   N24  Gn4  v100
 BYTE   W24
 BYTE   As3
 BYTE   W24
 BYTE   Cs4
 BYTE   W24
 BYTE   En4
 BYTE   W24
 BYTE   PEND 
// 015   ----------------------------------------
Label_1_018B39C4:
 BYTE   W24
 BYTE   N08  Gs4  v100
 BYTE   W08
 BYTE   En4
 BYTE   W08
 BYTE   Cs4
 BYTE   W08
 BYTE   Gn4
 BYTE   W08
 BYTE   Ds4
 BYTE   W08
 BYTE   Cn4
 BYTE   W08
 BYTE   Fs4
 BYTE   W08
 BYTE   Dn4
 BYTE   W08
 BYTE   Bn3
 BYTE   W08
 BYTE   PEND 
// 016   ----------------------------------------
Label_1_018B39DA:
 BYTE   N24  Cs4  v100
 BYTE   W24
 BYTE   As3
 BYTE   W24
 BYTE   Gn4
 BYTE   W24
 BYTE   N22  As4
 BYTE   W24
 BYTE   PEND 
// 017   ----------------------------------------
Label_1_018B39E6:
 BYTE   N06  Cn5  v100
 BYTE   W24
 BYTE   Cn4
 BYTE   W24
 BYTE   N02
 BYTE   W08
 BYTE   N02
 BYTE   W04
 BYTE   Bn3
 BYTE   W04
 BYTE   N04  Cn4
 BYTE   W08
 BYTE   N04
 BYTE   W08
 BYTE   Cs4
 BYTE   W08
 BYTE   Ds4
 BYTE   W07
 BYTE   VOICE   48
 BYTE   W01
 BYTE   PEND 
// 018   ----------------------------------------
Label_1_018B39FF:
 BYTE   N24  Gs3  v100
 BYTE   W24
 BYTE   N04  Gn3
 BYTE   W08
 BYTE   En3
 BYTE   W08
 BYTE   Cs3
 BYTE   W08
 BYTE   N44  En3
 BYTE   W48
 BYTE   PEND 
// 019   ----------------------------------------
Label_1_018B3A0E:
 BYTE   N24  Fs3  v100
 BYTE   W24
 BYTE   N04  Ds3
 BYTE   W08
 BYTE   Cs3
 BYTE   W08
 BYTE   Bn2
 BYTE   W08
 BYTE   N24  Fs2
 BYTE   W24
 BYTE   N04  Bn2
 BYTE   W10
 BYTE   Ds3
 BYTE   W06
 BYTE   Fs3
 BYTE   W08
 BYTE   PEND 
// 020   ----------------------------------------
Label_1_018B3A24:
 BYTE   N16  Gs3  v100
 BYTE   W16
 BYTE   N04  Gn3
 BYTE   W08
 BYTE   N24  En3
 BYTE   W24
 BYTE   Ds3
 BYTE   W24
 BYTE   Cs3
 BYTE   W23
 BYTE   VOICE   60
 BYTE   W01
 BYTE   PEND 
// 021   ----------------------------------------
Label_1_018B3A36:
 BYTE   N04  Cs4  v100
 BYTE   W16
 BYTE   An3
 BYTE   W08
 BYTE   N24  Cs4
 BYTE   W24
 BYTE   Ds4
 BYTE   W24
 BYTE   N08  Fs4
 BYTE   W08
 BYTE   N02  Fn4  v052
 BYTE   W02
 BYTE   En4
 BYTE   W02
 BYTE   Ds4
 BYTE   W02
 BYTE   Dn4
 BYTE   W02
 BYTE   N08  Ds3  v100
 BYTE   W08
 BYTE   PEND 
// 022   ----------------------------------------
Label_1_018B3A53:
 BYTE   N08  En3  v100
 BYTE   W08
 BYTE   Ds3
 BYTE   W08
 BYTE   En3
 BYTE   W08
 BYTE   N04  Gs3
 BYTE   W16
 BYTE   Cn4
 BYTE   W08
 BYTE   N24  Cs4
 BYTE   W24
 BYTE   Gs3
 BYTE   W24
 BYTE   PEND 
// 023   ----------------------------------------
Label_1_018B3A66:
 BYTE   N08  Fs3  v100
 BYTE   W08
 BYTE   Fn3
 BYTE   W08
 BYTE   Fs3
 BYTE   W08
 BYTE   N04  Bn3
 BYTE   W16
 BYTE   Ds4
 BYTE   W08
 BYTE   N24  Fs4
 BYTE   W24
 BYTE   N04  En4
 BYTE   W16
 BYTE   Bn3
 BYTE   W08
 BYTE   PEND 
// 024   ----------------------------------------
Label_1_018B3A7C:
 BYTE   N08  Cs4  v100
 BYTE   W08
 BYTE   Cn4
 BYTE   W08
 BYTE   N30  Cs4
 BYTE   W32
 BYTE   N24  En4
 BYTE   W24
 BYTE   N16  Fs4
 BYTE   W16
 BYTE   N08  En4
 BYTE   W08
 BYTE   PEND 
// 025   ----------------------------------------
Label_1_018B3A8F:
 BYTE   N04  Cs4  v100
 BYTE   W08
 BYTE   Cn4
 BYTE   W08
 BYTE   Cs4
 BYTE   W08
 BYTE   N04
 BYTE   W16
 BYTE   Dn4
 BYTE   W08
 BYTE   Ds4
 BYTE   W08
 BYTE   Dn4
 BYTE   W08
 BYTE   Ds4
 BYTE   W08
 BYTE   Fs4
 BYTE   W08
 BYTE   Gs4
 BYTE   W08
 BYTE   As4
 BYTE   W07
 BYTE   VOICE   14
 BYTE   W01
 BYTE   PEND 
// 026   ----------------------------------------
Label_1_018B3AAB:
 BYTE   N44  Gs4  v100
 BYTE   W48
 BYTE   N44
 BYTE   W48
 BYTE   PEND 
// 027   ----------------------------------------
Label_1_018B3AB2:
 BYTE   N24  Gs4  v100
 BYTE   W24
 BYTE   N24
 BYTE   W23
 BYTE   VOICE   56
 BYTE   W01
 BYTE   N04  Ds3
 BYTE   W08
 BYTE   Gs2
 BYTE   W08
 BYTE   Ds3
 BYTE   W08
 BYTE   N16  Fs3
 BYTE   W16
 BYTE   N04  Gn3
 BYTE   W07
 BYTE   VOICE   48
 BYTE   W01
 BYTE   PEND 
// 028   ----------------------------------------
Label_1_018B3ACC:
 BYTE   N08  Gs3  v100
 BYTE   W48
 BYTE   N08
 BYTE   W48
 BYTE   PEND 
// 029   ----------------------------------------
Label_1_018B3AD3:
 BYTE   N06  Gs3  v100
 BYTE   W24
 BYTE   N06
 BYTE   W24
 BYTE   N04  Bn4
 BYTE   W04
 BYTE   As4
 BYTE   W04
 BYTE   An4
 BYTE   W04
 BYTE   Gs4
 BYTE   W04
 BYTE   Gn4
 BYTE   W04
 BYTE   Fs4
 BYTE   W04
 BYTE   Fn4
 BYTE   W04
 BYTE   En4
 BYTE   W04
 BYTE   Ds4
 BYTE   W04
 BYTE   Dn4
 BYTE   W04
 BYTE   Cs4
 BYTE   W04
 BYTE   Cn4
 BYTE   W03
 BYTE   VOICE   60
 BYTE   W01
 BYTE   PEND 
 BYTE   PATT
  POIN2 Label_1_018B38ED
 BYTE   PATT
  POIN2 Label_1_018B38FF
 BYTE   PATT
  POIN2 Label_1_018B3911
 BYTE   PATT
  POIN2 Label_1_018B392C
 BYTE   PATT
  POIN2 Label_1_018B394F
 BYTE   PATT
  POIN2 Label_1_018B3972
 BYTE   PATT
  POIN2 Label_1_018B398D
 BYTE   PATT
  POIN2 Label_1_018B399D
 BYTE   PATT
  POIN2 Label_1_018B39AF
 BYTE   PATT
  POIN2 Label_1_018B39B9
 BYTE   PATT
  POIN2 Label_1_018B39C4
 BYTE   PATT
  POIN2 Label_1_018B39DA
 BYTE   PATT
  POIN2 Label_1_018B39E6
 BYTE   PATT
  POIN2 Label_1_018B39FF
 BYTE   PATT
  POIN2 Label_1_018B3A0E
 BYTE   PATT
  POIN2 Label_1_018B3A24
 BYTE   PATT
  POIN2 Label_1_018B3A36
 BYTE   PATT
  POIN2 Label_1_018B3A53
 BYTE   PATT
  POIN2 Label_1_018B3A66
 BYTE   PATT
  POIN2 Label_1_018B3A7C
 BYTE   PATT
  POIN2 Label_1_018B3A8F
 BYTE   PATT
  POIN2 Label_1_018B3AAB
 BYTE   PATT
  POIN2 Label_1_018B3AB2
 BYTE   PATT
  POIN2 Label_1_018B3ACC
 BYTE   PATT
  POIN2 Label_1_018B3AD3
// 030   ----------------------------------------
 BYTE   GoTo
  POIN2 Label_1_018B386A
 BYTE   FINE

//**************** Track 3 (Midi-Chn.2) ****************//

PokemonRSEVictoryRoadDolkar_003:
// 000   ----------------------------------------
 BYTE   KEYSH   PokemonRSEVictoryRoadDolkar_key+0
Label_2_018B3B7E:
 BYTE   VOICE   48
 BYTE   VOL   47*PokemonRSEVictoryRoadDolkar_mvl/mxv
 BYTE   PAN   c_v+0
 BYTE   N44  Ds3  v100
 BYTE   W07
 BYTE   VOL   31*PokemonRSEVictoryRoadDolkar_mvl/mxv
 BYTE   W11
 BYTE   Gs0
 BYTE   W08
 BYTE   Gs0
 BYTE   W01
 BYTE   An0
 BYTE   W02
 BYTE   As0
 BYTE   W03
 BYTE   As0
 BYTE   W04
 BYTE   Bn0
 BYTE   W02
 BYTE   Bn0
 BYTE   W03
 BYTE   Cn1
 BYTE   W03
 BYTE   Cs1
 BYTE   W04
 BYTE   Cs1
 BYTE   N44  En3
 BYTE   W02
 BYTE   VOL   39*PokemonRSEVictoryRoadDolkar_mvl/mxv
 BYTE   W03
 BYTE   En1
 BYTE   W03
 BYTE   Fs1
 BYTE   W04
 BYTE   Gs1
 BYTE   W02
 BYTE   An1
 BYTE   W03
 BYTE   Bn1
 BYTE   W03
 BYTE   Cn2
 BYTE   W04
 BYTE   Dn2
 BYTE   W02
 BYTE   En2
 BYTE   W06
 BYTE   Fs2
 BYTE   W04
 BYTE   Gs2
 BYTE   W02
 BYTE   As2
 BYTE   W03
 BYTE   Cn3
 BYTE   W03
 BYTE   Dn3
 BYTE   N02  Fn2
 BYTE   W02
 BYTE   N02
 BYTE   W01
 BYTE   VOICE   47
 BYTE   W01
// 001   ----------------------------------------
Label_2_018B3BC5:
 BYTE   N24  Fn1  v100
 BYTE   W48
 BYTE   N24
 BYTE   W44
 BYTE   N02  Fn2
 BYTE   W02
 BYTE   N02
 BYTE   W02
 BYTE   PEND 
// 002   ----------------------------------------
 BYTE   N20  Fn1
 BYTE   W24
 BYTE   N24
 BYTE   W24
 BYTE   N04  Gs2
 BYTE   W08
 BYTE   Fn2
 BYTE   W08
 BYTE   Gs2
 BYTE   W08
 BYTE   N16  Bn1
 BYTE   W16
 BYTE   N04  Cn2
 BYTE   W08
 BYTE   PATT
  POIN2 Label_2_018B3BC5
// 003   ----------------------------------------
 BYTE   N24  Fn1  v100
 BYTE   W24
 BYTE   N24
 BYTE   W23
 BYTE   VOICE   48
 BYTE   W01
 BYTE   N24  Gs3
 BYTE   W24
 BYTE   N04  Bn3
 BYTE   W04
 BYTE   As3
 BYTE   W04
 BYTE   An3
 BYTE   W04
 BYTE   Gs3
 BYTE   W04
 BYTE   Gn3
 BYTE   W04
 BYTE   Fs3
 BYTE   W03
 BYTE   VOICE   1
 BYTE   W01
// 004   ----------------------------------------
Label_2_018B3C04:
 BYTE   N02  Cs2  v100
 BYTE   W08
 BYTE   Ds2  v060
 BYTE   W08
 BYTE   En2
 BYTE   W08
 BYTE   Ds2  v100
 BYTE   W08
 BYTE   Cs2  v060
 BYTE   W08
 BYTE   Cn2
 BYTE   W08
 BYTE   Cs2  v100
 BYTE   W08
 BYTE   Ds2  v060
 BYTE   W08
 BYTE   En2
 BYTE   W08
 BYTE   Cs2  v100
 BYTE   W08
 BYTE   Ds2  v060
 BYTE   W08
 BYTE   En2
 BYTE   W08
 BYTE   PEND 
// 005   ----------------------------------------
Label_2_018B3C26:
 BYTE   N02  Dn2  v100
 BYTE   W08
 BYTE   En2  v060
 BYTE   W08
 BYTE   Fs2
 BYTE   W08
 BYTE   En2  v100
 BYTE   W08
 BYTE   Dn2  v060
 BYTE   W08
 BYTE   Cs2
 BYTE   W08
 BYTE   Dn2  v100
 BYTE   W08
 BYTE   En2  v060
 BYTE   W08
 BYTE   Fs2
 BYTE   W08
 BYTE   En2  v100
 BYTE   W08
 BYTE   Dn2  v060
 BYTE   W08
 BYTE   Cs2
 BYTE   W08
 BYTE   PEND 
// 006   ----------------------------------------
Label_2_018B3C48:
 BYTE   N02  Cs2  v100
 BYTE   W08
 BYTE   Ds2  v060
 BYTE   W08
 BYTE   En2
 BYTE   W08
 BYTE   Cs2  v100
 BYTE   W08
 BYTE   Ds2  v060
 BYTE   W08
 BYTE   En2
 BYTE   W08
 BYTE   Cs2  v100
 BYTE   W08
 BYTE   Ds2  v060
 BYTE   W08
 BYTE   En2
 BYTE   W08
 BYTE   Ds2  v100
 BYTE   W08
 BYTE   Cs2  v060
 BYTE   W08
 BYTE   Cn2
 BYTE   W08
 BYTE   PEND 
 BYTE   PATT
  POIN2 Label_2_018B3C26
 BYTE   PATT
  POIN2 Label_2_018B3C04
 BYTE   PATT
  POIN2 Label_2_018B3C26
 BYTE   PATT
  POIN2 Label_2_018B3C04
// 007   ----------------------------------------
Label_2_018B3C7E:
 BYTE   N02  Dn2  v100
 BYTE   W08
 BYTE   En2  v060
 BYTE   W08
 BYTE   Fs2
 BYTE   W08
 BYTE   En2  v100
 BYTE   W08
 BYTE   Dn2  v060
 BYTE   W08
 BYTE   Cs2
 BYTE   W08
 BYTE   Dn2  v100
 BYTE   W08
 BYTE   En2  v060
 BYTE   W08
 BYTE   Fs2
 BYTE   W07
 BYTE   VOICE   47
 BYTE   W01
 BYTE   N12  Gs1  v100
 BYTE   W12
 BYTE   N04  Cs2
 BYTE   W04
 BYTE   N04
 BYTE   W04
 BYTE   N04
 BYTE   W04
 BYTE   PEND 
// 008   ----------------------------------------
Label_2_018B3CA6:
 BYTE   N80  Cs2  v100
 BYTE   W84
 BYTE   N04
 BYTE   W04
 BYTE   N04
 BYTE   W04
 BYTE   N04
 BYTE   W04
 BYTE   PEND 
// 009   ----------------------------------------
Label_2_018B3CB1:
 BYTE   N68  Gn1  v100
 BYTE   W72
 BYTE   N04  Gn2  v056
 BYTE   W08
 BYTE   Gn2  v076
 BYTE   W08
 BYTE   Gn2  v100
 BYTE   W08
 BYTE   PEND 
 BYTE   PATT
  POIN2 Label_2_018B3CA6
 BYTE   PATT
  POIN2 Label_2_018B3CB1
// 010   ----------------------------------------
Label_2_018B3CCA:
 BYTE   N16  Gs2  v100
 BYTE   W24
 BYTE   Gs1
 BYTE   W24
 BYTE   N02
 BYTE   W08
 BYTE   N02
 BYTE   W04
 BYTE   Gn1
 BYTE   W04
 BYTE   N08  Gs1
 BYTE   W16
 BYTE   N16
 BYTE   W16
 BYTE   PEND 
// 011   ----------------------------------------
Label_2_018B3CDC:
 BYTE   N04  Cs2  v100
 BYTE   W16
 BYTE   Gs1
 BYTE   W08
 BYTE   Cs2
 BYTE   W40
 BYTE   Gs1  v076
 BYTE   W16
 BYTE   N16  Gs1  v100
 BYTE   W16
 BYTE   PEND 
// 012   ----------------------------------------
Label_2_018B3CEC:
 BYTE   N04  Bn1  v100
 BYTE   W16
 BYTE   Fs1
 BYTE   W08
 BYTE   Bn1
 BYTE   W24
 BYTE   Fs1
 BYTE   W16
 BYTE   Fs1  v076
 BYTE   W16
 BYTE   N16  Fs1  v100
 BYTE   W16
 BYTE   PEND 
// 013   ----------------------------------------
Label_2_018B3CFE:
 BYTE   N04  As1  v100
 BYTE   W16
 BYTE   Fs1
 BYTE   W08
 BYTE   As1
 BYTE   W24
 BYTE   Fs1
 BYTE   W16
 BYTE   Fs1  v076
 BYTE   W08
 BYTE   Fs1  v100
 BYTE   W16
 BYTE   As1
 BYTE   W08
 BYTE   PEND 
// 014   ----------------------------------------
Label_2_018B3D11:
 BYTE   N04  An1  v100
 BYTE   W16
 BYTE   En1
 BYTE   W08
 BYTE   An1
 BYTE   W40
 BYTE   Fs1
 BYTE   W08
 BYTE   N16
 BYTE   W24
 BYTE   PEND 
 BYTE   PATT
  POIN2 Label_2_018B3CDC
 BYTE   PATT
  POIN2 Label_2_018B3CEC
// 015   ----------------------------------------
Label_2_018B3D28:
 BYTE   N04  As1  v100
 BYTE   W24
 BYTE   N04
 BYTE   W24
 BYTE   N16  Fs1
 BYTE   W24
 BYTE   N16
 BYTE   W24
 BYTE   PEND 
// 016   ----------------------------------------
Label_2_018B3D34:
 BYTE   N04  An1  v100
 BYTE   W16
 BYTE   En1
 BYTE   W08
 BYTE   An1
 BYTE   W40
 BYTE   Fs1
 BYTE   W04
 BYTE   N04
 BYTE   W12
 BYTE   N12  Bn1
 BYTE   W16
 BYTE   PEND 
// 017   ----------------------------------------
Label_2_018B3D44:
 BYTE   N24  Gs1  v100
 BYTE   W48
 BYTE   N24
 BYTE   W44
 BYTE   N02  Gs2
 BYTE   W02
 BYTE   N02
 BYTE   W02
 BYTE   PEND 
// 018   ----------------------------------------
Label_2_018B3D50:
 BYTE   N20  Gs1  v100
 BYTE   W24
 BYTE   N24
 BYTE   W24
 BYTE   N04  Bn2
 BYTE   W08
 BYTE   Gs2
 BYTE   W08
 BYTE   Bn2
 BYTE   W08
 BYTE   N16  Dn2
 BYTE   W16
 BYTE   N04  Ds2
 BYTE   W08
 BYTE   PEND 
 BYTE   PATT
  POIN2 Label_2_018B3D44
// 019   ----------------------------------------
Label_2_018B3D69:
 BYTE   N24  Gs1  v100
 BYTE   W24
 BYTE   N24
 BYTE   W23
 BYTE   VOICE   48
 BYTE   W24
 BYTE   W01
 BYTE   N04  Dn4
 BYTE   W04
 BYTE   Cs4
 BYTE   W04
 BYTE   Cn4
 BYTE   W04
 BYTE   Bn3
 BYTE   W04
 BYTE   As3
 BYTE   W04
 BYTE   An3
 BYTE   W03
 BYTE   VOICE   1
 BYTE   W01
 BYTE   PEND 
 BYTE   PATT
  POIN2 Label_2_018B3C04
 BYTE   PATT
  POIN2 Label_2_018B3C26
 BYTE   PATT
  POIN2 Label_2_018B3C48
 BYTE   PATT
  POIN2 Label_2_018B3C26
 BYTE   PATT
  POIN2 Label_2_018B3C04
 BYTE   PATT
  POIN2 Label_2_018B3C26
 BYTE   PATT
  POIN2 Label_2_018B3C04
 BYTE   PATT
  POIN2 Label_2_018B3C7E
 BYTE   PATT
  POIN2 Label_2_018B3CA6
 BYTE   PATT
  POIN2 Label_2_018B3CB1
 BYTE   PATT
  POIN2 Label_2_018B3CA6
 BYTE   PATT
  POIN2 Label_2_018B3CB1
 BYTE   PATT
  POIN2 Label_2_018B3CCA
 BYTE   PATT
  POIN2 Label_2_018B3CDC
 BYTE   PATT
  POIN2 Label_2_018B3CEC
 BYTE   PATT
  POIN2 Label_2_018B3CFE
 BYTE   PATT
  POIN2 Label_2_018B3D11
 BYTE   PATT
  POIN2 Label_2_018B3CDC
 BYTE   PATT
  POIN2 Label_2_018B3CEC
 BYTE   PATT
  POIN2 Label_2_018B3D28
 BYTE   PATT
  POIN2 Label_2_018B3D34
 BYTE   PATT
  POIN2 Label_2_018B3D44
 BYTE   PATT
  POIN2 Label_2_018B3D50
 BYTE   PATT
  POIN2 Label_2_018B3D44
 BYTE   PATT
  POIN2 Label_2_018B3D69
// 020   ----------------------------------------
 BYTE   GoTo
  POIN2 Label_2_018B3B7E
 BYTE   FINE

//**************** Track 4 (Midi-Chn.3) ****************//

PokemonRSEVictoryRoadDolkar_004:
// 000   ----------------------------------------
 BYTE   KEYSH   PokemonRSEVictoryRoadDolkar_key+0
Label_3_018B3E0A:
 BYTE   VOICE   56
 BYTE   VOL   31*PokemonRSEVictoryRoadDolkar_mvl/mxv
 BYTE   PAN   c_v+0
 BYTE   N44  Ds4  v100
 BYTE   W05
 BYTE   VOL   30*PokemonRSEVictoryRoadDolkar_mvl/mxv
 BYTE   W08
 BYTE   Gn0
 BYTE   W11
 BYTE   Gs0
 BYTE   W08
 BYTE   Gs0
 BYTE   W01
 BYTE   An0
 BYTE   W03
 BYTE   As0
 BYTE   W01
 BYTE   As0
 BYTE   W03
 BYTE   Bn0
 BYTE   W01
 BYTE   Bn0
 BYTE   W03
 BYTE   Cn1
 BYTE   W04
 BYTE   Cs1
 BYTE   N44  En4
 BYTE   W01
 BYTE   VOL   37*PokemonRSEVictoryRoadDolkar_mvl/mxv
 BYTE   W03
 BYTE   Ds1
 BYTE   W01
 BYTE   En1
 BYTE   W03
 BYTE   Fs1
 BYTE   W01
 BYTE   Gs1
 BYTE   W03
 BYTE   An1
 BYTE   W01
 BYTE   Bn1
 BYTE   W03
 BYTE   Cn2
 BYTE   W01
 BYTE   Dn2
 BYTE   W03
 BYTE   En2
 BYTE   W08
 BYTE   Fs2
 BYTE   W01
 BYTE   Gs2
 BYTE   W03
 BYTE   As2
 BYTE   W01
 BYTE   Cn3
 BYTE   W03
 BYTE   Dn3
 BYTE   W04
 BYTE   En3
 BYTE   W05
 BYTE   Fs3
 BYTE   W03
// 001   ----------------------------------------
 BYTE   An3
 BYTE   N08  Fn4
 BYTE   W48
 BYTE   N08
 BYTE   W48
// 002   ----------------------------------------
 BYTE   N08
 BYTE   W24
 BYTE   N08
 BYTE   W24
 BYTE   N04  Ds4
 BYTE   W08
 BYTE   N02
 BYTE   W08
 BYTE   N02
 BYTE   W08
 BYTE   N04
 BYTE   W08
 BYTE   N02
 BYTE   W08
 BYTE   N04  En4
 BYTE   W08
// 003   ----------------------------------------
 BYTE   N08  Fn4
 BYTE   W48
 BYTE   N08
 BYTE   W48
// 004   ----------------------------------------
 BYTE   N08
 BYTE   W24
 BYTE   N08
 BYTE   W23
 BYTE   VOICE   48
 BYTE   W01
 BYTE   N04  Cs2
 BYTE   W04
 BYTE   Dn2
 BYTE   W04
 BYTE   Ds2
 BYTE   W04
 BYTE   En2
 BYTE   W04
 BYTE   Fn2
 BYTE   W04
 BYTE   Fs2
 BYTE   W04
 BYTE   Gn2
 BYTE   W04
 BYTE   Gs2
 BYTE   W04
 BYTE   An2
 BYTE   W04
 BYTE   As2
 BYTE   W04
 BYTE   Bn2
 BYTE   W04
 BYTE   Cn3
 BYTE   W03
 BYTE   VOICE   80
 BYTE   W01
// 005   ----------------------------------------
Label_3_018B3E90:
 BYTE   BEND   c_v+12
 BYTE   N04  Cs1  v096
 BYTE   W08
 BYTE   Ds1  v068
 BYTE   W08
 BYTE   En1
 BYTE   W08
 BYTE   Ds1  v096
 BYTE   W08
 BYTE   Cs1  v068
 BYTE   W08
 BYTE   Cn1
 BYTE   W08
 BYTE   Cs1  v096
 BYTE   W08
 BYTE   Ds1  v068
 BYTE   W08
 BYTE   En1
 BYTE   W08
 BYTE   Cs1  v096
 BYTE   W08
 BYTE   Ds1  v068
 BYTE   W08
 BYTE   En1
 BYTE   W08
 BYTE   PEND 
// 006   ----------------------------------------
Label_3_018B3EB4:
 BYTE   N04  Dn1  v096
 BYTE   W08
 BYTE   En1  v068
 BYTE   W08
 BYTE   Fs1
 BYTE   W08
 BYTE   En1  v096
 BYTE   W08
 BYTE   Dn1  v068
 BYTE   W08
 BYTE   Cs1
 BYTE   W08
 BYTE   Dn1  v096
 BYTE   W08
 BYTE   En1  v068
 BYTE   W08
 BYTE   Fs1
 BYTE   W08
 BYTE   En1  v096
 BYTE   W08
 BYTE   Dn1  v068
 BYTE   W08
 BYTE   Cs1
 BYTE   W08
 BYTE   PEND 
// 007   ----------------------------------------
Label_3_018B3ED6:
 BYTE   N04  Cs1  v096
 BYTE   W08
 BYTE   Ds1  v068
 BYTE   W08
 BYTE   En1
 BYTE   W08
 BYTE   Cs1  v096
 BYTE   W08
 BYTE   Ds1  v068
 BYTE   W08
 BYTE   En1
 BYTE   W08
 BYTE   Cs1  v096
 BYTE   W08
 BYTE   Ds1  v068
 BYTE   W08
 BYTE   En1
 BYTE   W08
 BYTE   Ds1  v096
 BYTE   W08
 BYTE   Cs1  v068
 BYTE   W08
 BYTE   Cn1
 BYTE   W08
 BYTE   PEND 
 BYTE   PATT
  POIN2 Label_3_018B3EB4
// 008   ----------------------------------------
Label_3_018B3EFD:
 BYTE   N04  Cs1  v096
 BYTE   W08
 BYTE   Ds1  v068
 BYTE   W08
 BYTE   En1
 BYTE   W08
 BYTE   Ds1  v096
 BYTE   W08
 BYTE   Cs1  v068
 BYTE   W08
 BYTE   Cn1
 BYTE   W08
 BYTE   Cs1  v096
 BYTE   W08
 BYTE   Ds1  v068
 BYTE   W08
 BYTE   En1
 BYTE   W08
 BYTE   Cs1  v096
 BYTE   W08
 BYTE   Ds1  v068
 BYTE   W08
 BYTE   En1
 BYTE   W08
 BYTE   PEND 
 BYTE   PATT
  POIN2 Label_3_018B3EB4
 BYTE   PATT
  POIN2 Label_3_018B3EFD
// 009   ----------------------------------------
Label_3_018B3F29:
 BYTE   N04  Dn1  v096
 BYTE   W08
 BYTE   En1  v068
 BYTE   W08
 BYTE   Fs1
 BYTE   W08
 BYTE   En1  v096
 BYTE   W08
 BYTE   Dn1  v068
 BYTE   W08
 BYTE   Cs1
 BYTE   W08
 BYTE   Dn1  v096
 BYTE   W08
 BYTE   En1  v068
 BYTE   W08
 BYTE   Fs1
 BYTE   W08
 BYTE   Gs1  v096
 BYTE   W24
 BYTE   PEND 
// 010   ----------------------------------------
 BYTE   BEND   c_v+0
 BYTE   W96
// 011   ----------------------------------------
Label_3_018B3F49:
 BYTE   W44
 BYTE   W03
 BYTE   VOICE   56
 BYTE   W01
 BYTE   N02  Gn4  v100
 BYTE   W08
 BYTE   N02
 BYTE   W04
 BYTE   Fs4
 BYTE   W04
 BYTE   N04  Gn4
 BYTE   W08
 BYTE   N04
 BYTE   W08
 BYTE   N04
 BYTE   W08
 BYTE   N04
 BYTE   W08
 BYTE   PEND 
// 012   ----------------------------------------
 BYTE   W96
// 013   ----------------------------------------
 BYTE   W96
// 014   ----------------------------------------
 BYTE   W96
// 015   ----------------------------------------
 BYTE   W96
// 016   ----------------------------------------
 BYTE   W96
// 017   ----------------------------------------
 BYTE   W96
// 018   ----------------------------------------
 BYTE   W96
// 019   ----------------------------------------
 BYTE   W96
// 020   ----------------------------------------
 BYTE   W96
// 021   ----------------------------------------
 BYTE   W96
// 022   ----------------------------------------
 BYTE   W96
// 023   ----------------------------------------
Label_3_018B3F6B:
 BYTE   N08  Gs5  v080
 BYTE   W08
 BYTE   N04  Gn5  v076
 BYTE   W04
 BYTE   Fs5  v072
 BYTE   W36
 BYTE   N08  Gs4  v100
 BYTE   W48
 BYTE   PEND 
// 024   ----------------------------------------
Label_3_018B3F7B:
 BYTE   N08  Gs4  v100
 BYTE   W24
 BYTE   N08
 BYTE   W24
 BYTE   N04  Fs4
 BYTE   W08
 BYTE   N02
 BYTE   W08
 BYTE   N02
 BYTE   W08
 BYTE   N04
 BYTE   W08
 BYTE   N02
 BYTE   W08
 BYTE   N04  Gn4
 BYTE   W07
 BYTE   VOICE   48
 BYTE   W01
 BYTE   PEND 
// 025   ----------------------------------------
Label_3_018B3F93:
 BYTE   N08  Gs4  v100
 BYTE   W48
 BYTE   N08
 BYTE   W48
 BYTE   PEND 
// 026   ----------------------------------------
Label_3_018B3F9A:
 BYTE   N08  Gs4  v100
 BYTE   W24
 BYTE   N08
 BYTE   W24
 BYTE   N04  En2
 BYTE   W04
 BYTE   Fn2
 BYTE   W04
 BYTE   Fs2
 BYTE   W04
 BYTE   Gn2
 BYTE   W04
 BYTE   Gs2
 BYTE   W04
 BYTE   An2
 BYTE   W04
 BYTE   As2
 BYTE   W04
 BYTE   Bn2
 BYTE   W04
 BYTE   Cn3
 BYTE   W04
 BYTE   Cs3
 BYTE   W04
 BYTE   Dn3
 BYTE   W04
 BYTE   Ds3
 BYTE   W03
 BYTE   VOICE   80
 BYTE   W01
 BYTE   PEND 
 BYTE   PATT
  POIN2 Label_3_018B3E90
 BYTE   PATT
  POIN2 Label_3_018B3EB4
 BYTE   PATT
  POIN2 Label_3_018B3ED6
 BYTE   PATT
  POIN2 Label_3_018B3EB4
 BYTE   PATT
  POIN2 Label_3_018B3EFD
 BYTE   PATT
  POIN2 Label_3_018B3EB4
 BYTE   PATT
  POIN2 Label_3_018B3EFD
 BYTE   PATT
  POIN2 Label_3_018B3F29
// 027   ----------------------------------------
 BYTE   BEND   c_v+0
 BYTE   W96
 BYTE   PATT
  POIN2 Label_3_018B3F49
// 028   ----------------------------------------
 BYTE   W96
// 029   ----------------------------------------
 BYTE   W96
// 030   ----------------------------------------
 BYTE   W96
// 031   ----------------------------------------
 BYTE   W96
// 032   ----------------------------------------
 BYTE   W96
// 033   ----------------------------------------
 BYTE   W96
// 034   ----------------------------------------
 BYTE   W96
// 035   ----------------------------------------
 BYTE   W96
// 036   ----------------------------------------
 BYTE   W96
// 037   ----------------------------------------
 BYTE   W96
// 038   ----------------------------------------
 BYTE   W96
 BYTE   PATT
  POIN2 Label_3_018B3F6B
 BYTE   PATT
  POIN2 Label_3_018B3F7B
 BYTE   PATT
  POIN2 Label_3_018B3F93
 BYTE   PATT
  POIN2 Label_3_018B3F9A
// 039   ----------------------------------------
 BYTE   GoTo
  POIN2 Label_3_018B3E0A
 BYTE   FINE

//**************** Track 5 (Midi-Chn.4) ****************//

PokemonRSEVictoryRoadDolkar_005:
// 000   ----------------------------------------
 BYTE   KEYSH   PokemonRSEVictoryRoadDolkar_key+0
Label_4_018B4016:
 BYTE   VOICE   0
 BYTE   VOL   62*PokemonRSEVictoryRoadDolkar_mvl/mxv
 BYTE   PAN   c_v+0
 BYTE   W96
// 001   ----------------------------------------
 BYTE   W96
// 002   ----------------------------------------
 BYTE   W96
// 003   ----------------------------------------
 BYTE   W96
// 004   ----------------------------------------
 BYTE   W96
// 005   ----------------------------------------
 BYTE   W96
// 006   ----------------------------------------
 BYTE   W96
// 007   ----------------------------------------
 BYTE   W96
// 008   ----------------------------------------
 BYTE   W96
// 009   ----------------------------------------
Label_4_018B4025:
 BYTE   W44
 BYTE   W03
 BYTE   VOICE   56
 BYTE   W01
 BYTE   N04  En3  v100
 BYTE   W16
 BYTE   Cs3
 BYTE   W08
 BYTE   N24  Gs3
 BYTE   W24
 BYTE   PEND 
// 010   ----------------------------------------
Label_4_018B4034:
 BYTE   N04  Fs3  v100
 BYTE   W16
 BYTE   Dn3
 BYTE   W08
 BYTE   N16  An3
 BYTE   W16
 BYTE   N04  Gs3
 BYTE   W04
 BYTE   An3
 BYTE   W04
 BYTE   N24  Dn3
 BYTE   W24
 BYTE   N04  Fs3
 BYTE   W08
 BYTE   En3
 BYTE   W08
 BYTE   Cn3
 BYTE   W08
 BYTE   PEND 
// 011   ----------------------------------------
Label_4_018B404D:
 BYTE   N44  Cs3  v100
 BYTE   W48
 BYTE   Gs3
 BYTE   W48
 BYTE   PEND 
// 012   ----------------------------------------
Label_4_018B4054:
 BYTE   N44  Dn3  v100
 BYTE   W48
 BYTE   N24  Bn3
 BYTE   W24
 BYTE   Fs3
 BYTE   W23
 BYTE   VOICE   14
 BYTE   W01
 BYTE   PEND 
// 013   ----------------------------------------
 BYTE   N92  Cs3  v076
 BYTE   W96
// 014   ----------------------------------------
 BYTE   Gn3
 BYTE   W96
// 015   ----------------------------------------
 BYTE   Cs3  v080
 BYTE   W96
// 016   ----------------------------------------
Label_4_018B406A:
 BYTE   N44  As3  v080
 BYTE   W48
 BYTE   Gn3  v076
 BYTE   W48
 BYTE   PEND 
// 017   ----------------------------------------
Label_4_018B4072:
 BYTE   N44  Gs3  v076
 BYTE   W48
 BYTE   Ds3  v100
 BYTE   W48
 BYTE   PEND 
// 018   ----------------------------------------
 BYTE   W96
// 019   ----------------------------------------
 BYTE   W96
// 020   ----------------------------------------
 BYTE   W96
// 021   ----------------------------------------
 BYTE   W96
// 022   ----------------------------------------
 BYTE   W96
// 023   ----------------------------------------
 BYTE   W96
// 024   ----------------------------------------
 BYTE   W96
// 025   ----------------------------------------
 BYTE   W96
// 026   ----------------------------------------
 BYTE   W96
// 027   ----------------------------------------
 BYTE   W96
// 028   ----------------------------------------
 BYTE   W96
// 029   ----------------------------------------
 BYTE   W96
// 030   ----------------------------------------
 BYTE   W96
// 031   ----------------------------------------
 BYTE   W96
// 032   ----------------------------------------
 BYTE   W96
// 033   ----------------------------------------
 BYTE   W96
 BYTE   PATT
  POIN2 Label_4_018B4025
 BYTE   PATT
  POIN2 Label_4_018B4034
 BYTE   PATT
  POIN2 Label_4_018B404D
 BYTE   PATT
  POIN2 Label_4_018B4054
// 034   ----------------------------------------
 BYTE   N92  Cs3  v076
 BYTE   W96
// 035   ----------------------------------------
 BYTE   Gn3
 BYTE   W96
// 036   ----------------------------------------
 BYTE   Cs3  v080
 BYTE   W96
 BYTE   PATT
  POIN2 Label_4_018B406A
 BYTE   PATT
  POIN2 Label_4_018B4072
// 037   ----------------------------------------
 BYTE   W96
// 038   ----------------------------------------
 BYTE   W96
// 039   ----------------------------------------
 BYTE   W96
// 040   ----------------------------------------
 BYTE   W96
// 041   ----------------------------------------
 BYTE   W96
// 042   ----------------------------------------
 BYTE   W96
// 043   ----------------------------------------
 BYTE   W96
// 044   ----------------------------------------
 BYTE   W96
// 045   ----------------------------------------
 BYTE   W96
// 046   ----------------------------------------
 BYTE   W96
// 047   ----------------------------------------
 BYTE   W96
// 048   ----------------------------------------
 BYTE   W96
// 049   ----------------------------------------
 BYTE   GoTo
  POIN2 Label_4_018B4016
 BYTE   FINE

//**************** Track 6 (Midi-Chn.5) ****************//

PokemonRSEVictoryRoadDolkar_006:
// 000   ----------------------------------------
 BYTE   KEYSH   PokemonRSEVictoryRoadDolkar_key+0
Label_5_018B40C6:
 BYTE   VOICE   89
 BYTE   VOL   44*PokemonRSEVictoryRoadDolkar_mvl/mxv
 BYTE   PAN   c_v+0
 BYTE   N44  Ds4  v076
 BYTE   W48
 BYTE   En4
 BYTE   W48
// 001   ----------------------------------------
Label_5_018B40D2:
 BYTE   N14  Fn1  v100
 BYTE   W48
 BYTE   N14
 BYTE   W48
 BYTE   PEND 
// 002   ----------------------------------------
 BYTE   N14
 BYTE   W24
 BYTE   N14
 BYTE   W24
 BYTE   N04
 BYTE   W08
 BYTE   N04
 BYTE   W08
 BYTE   N04
 BYTE   W08
 BYTE   N16  Bn0
 BYTE   W16
 BYTE   N04  Cn1
 BYTE   W08
 BYTE   PATT
  POIN2 Label_5_018B40D2
// 003   ----------------------------------------
 BYTE   N14  Fn1  v100
 BYTE   W24
 BYTE   N14
 BYTE   W24
 BYTE   N08  Gs1
 BYTE   W08
 BYTE   Gn1
 BYTE   W08
 BYTE   N04  Gs1
 BYTE   W08
 BYTE   N24
 BYTE   W23
 BYTE   VOICE   48
 BYTE   W01
// 004   ----------------------------------------
Label_5_018B4101:
 BYTE   N32  Cs4  v100
 BYTE   W40
 BYTE   N04  En4
 BYTE   W08
 BYTE   N44  Gs4
 BYTE   W48
 BYTE   PEND 
// 005   ----------------------------------------
Label_5_018B410C:
 BYTE   N32  Dn4  v100
 BYTE   W40
 BYTE   N04  Fs4
 BYTE   W08
 BYTE   N20  Bn4
 BYTE   W20
 BYTE   N02  An4
 BYTE   W02
 BYTE   Bn4
 BYTE   W02
 BYTE   N16  An4
 BYTE   W16
 BYTE   N04  Fs4
 BYTE   W08
 BYTE   PEND 
// 006   ----------------------------------------
Label_5_018B4122:
 BYTE   N92  Gs4  v100
 BYTE   W48
 BYTE   VOL   41*PokemonRSEVictoryRoadDolkar_mvl/mxv
 BYTE   W04
 BYTE   Ds1
 BYTE   W04
 BYTE   Cs1
 BYTE   W04
 BYTE   Bn0
 BYTE   W04
 BYTE   An0
 BYTE   W04
 BYTE   Gn0
 BYTE   W04
 BYTE   Fs0
 BYTE   W04
 BYTE   En0
 BYTE   W04
 BYTE   Ds0
 BYTE   W04
 BYTE   Dn0
 BYTE   W04
 BYTE   Cs0
 BYTE   W04
 BYTE   BnM1
 BYTE   W04
 BYTE   PEND 
// 007   ----------------------------------------
Label_5_018B4140:
 BYTE   VOL   44*PokemonRSEVictoryRoadDolkar_mvl/mxv
 BYTE   N04  Dn4  v100
 BYTE   W08
 BYTE   An3
 BYTE   W08
 BYTE   Dn4
 BYTE   W08
 BYTE   Fs4
 BYTE   W08
 BYTE   Dn4
 BYTE   W08
 BYTE   Fs4
 BYTE   W08
 BYTE   An4
 BYTE   W08
 BYTE   N02
 BYTE   W04
 BYTE   An4  v076
 BYTE   W04
 BYTE   N04  An4  v100
 BYTE   W08
 BYTE   N04
 BYTE   W08
 BYTE   Fs4
 BYTE   W08
 BYTE   Dn5
 BYTE   W08
 BYTE   PEND 
// 008   ----------------------------------------
 BYTE   W96
// 009   ----------------------------------------
 BYTE   W96
// 010   ----------------------------------------
 BYTE   W96
// 011   ----------------------------------------
Label_5_018B4165:
 BYTE   W68
 BYTE   W03
 BYTE   VOICE   89
 BYTE   W13
 BYTE   N02  Cs1  v100
 BYTE   W04
 BYTE   N02
 BYTE   W04
 BYTE   N02
 BYTE   W04
 BYTE   PEND 
// 012   ----------------------------------------
Label_5_018B4173:
 BYTE   N80  Cs1  v100
 BYTE   W88
 BYTE   N04  Cs2
 BYTE   W08
 BYTE   PEND 
// 013   ----------------------------------------
Label_5_018B417B:
 BYTE   N44  Gn2  v100
 BYTE   W48
 BYTE   N24  As1
 BYTE   W24
 BYTE   N04  Gn1
 BYTE   W08
 BYTE   En1
 BYTE   W08
 BYTE   Dn1
 BYTE   W08
 BYTE   PEND 
 BYTE   PATT
  POIN2 Label_5_018B4173
// 014   ----------------------------------------
Label_5_018B418F:
 BYTE   N44  Gn2  v100
 BYTE   W48
 BYTE   N24  As1
 BYTE   W24
 BYTE   N04  Cs2
 BYTE   W08
 BYTE   En2
 BYTE   W08
 BYTE   Gn2
 BYTE   W08
 BYTE   PEND 
// 015   ----------------------------------------
Label_5_018B419E:
 BYTE   N06  Gs2  v100
 BYTE   W24
 BYTE   Gs1
 BYTE   W24
 BYTE   N02
 BYTE   W08
 BYTE   N02
 BYTE   W04
 BYTE   Gn1
 BYTE   W04
 BYTE   N04  Gs1
 BYTE   W32
 BYTE   PEND 
// 016   ----------------------------------------
Label_5_018B41AE:
 BYTE   N04  Cs2  v100
 BYTE   W16
 BYTE   Gs1
 BYTE   W08
 BYTE   N24  Cs2
 BYTE   W24
 BYTE   N04  Gs1
 BYTE   W08
 BYTE   Cs2
 BYTE   W08
 BYTE   Gs1
 BYTE   W08
 BYTE   Cs1
 BYTE   W08
 BYTE   Gs1
 BYTE   W08
 BYTE   Cs2
 BYTE   W08
 BYTE   PEND 
// 017   ----------------------------------------
Label_5_018B41C5:
 BYTE   N04  Bn1  v100
 BYTE   W16
 BYTE   Fs1
 BYTE   W08
 BYTE   N24  Bn1
 BYTE   W24
 BYTE   N04  Fs1
 BYTE   W08
 BYTE   Bn1
 BYTE   W08
 BYTE   Fs1
 BYTE   W08
 BYTE   Bn0
 BYTE   W08
 BYTE   Fs1
 BYTE   W08
 BYTE   Bn1
 BYTE   W08
 BYTE   PEND 
// 018   ----------------------------------------
Label_5_018B41DC:
 BYTE   N04  As1  v100
 BYTE   W16
 BYTE   Fs1
 BYTE   W08
 BYTE   N24  As1
 BYTE   W24
 BYTE   N04  Fs1
 BYTE   W08
 BYTE   As1
 BYTE   W08
 BYTE   Fs1
 BYTE   W08
 BYTE   As0
 BYTE   W08
 BYTE   Fs1
 BYTE   W08
 BYTE   As1
 BYTE   W08
 BYTE   PEND 
// 019   ----------------------------------------
Label_5_018B41F3:
 BYTE   N04  An1  v100
 BYTE   W16
 BYTE   En1
 BYTE   W08
 BYTE   N24  An1
 BYTE   W24
 BYTE   N04  Fs1
 BYTE   W08
 BYTE   Bn1
 BYTE   W08
 BYTE   Fs1
 BYTE   W08
 BYTE   Bn0
 BYTE   W08
 BYTE   Fs1
 BYTE   W08
 BYTE   Bn1
 BYTE   W08
 BYTE   PEND 
 BYTE   PATT
  POIN2 Label_5_018B41AE
 BYTE   PATT
  POIN2 Label_5_018B41C5
 BYTE   PATT
  POIN2 Label_5_018B41DC
 BYTE   PATT
  POIN2 Label_5_018B41F3
// 020   ----------------------------------------
Label_5_018B421E:
 BYTE   N04  Gs1  v100
 BYTE   W48
 BYTE   N04
 BYTE   W48
 BYTE   PEND 
// 021   ----------------------------------------
Label_5_018B4225:
 BYTE   N04  Gs1  v100
 BYTE   W24
 BYTE   N04
 BYTE   W24
 BYTE   N04
 BYTE   W08
 BYTE   N04
 BYTE   W08
 BYTE   N04
 BYTE   W08
 BYTE   N16  Dn1
 BYTE   W16
 BYTE   N04  Ds1
 BYTE   W08
 BYTE   PEND 
 BYTE   PATT
  POIN2 Label_5_018B421E
// 022   ----------------------------------------
Label_5_018B423D:
 BYTE   N04  Gs1  v100
 BYTE   W24
 BYTE   N04
 BYTE   W68
 BYTE   W03
 BYTE   VOICE   48
 BYTE   W01
 BYTE   PEND 
 BYTE   PATT
  POIN2 Label_5_018B4101
 BYTE   PATT
  POIN2 Label_5_018B410C
 BYTE   PATT
  POIN2 Label_5_018B4122
 BYTE   PATT
  POIN2 Label_5_018B4140
// 023   ----------------------------------------
 BYTE   W96
// 024   ----------------------------------------
 BYTE   W96
// 025   ----------------------------------------
 BYTE   W96
 BYTE   PATT
  POIN2 Label_5_018B4165
 BYTE   PATT
  POIN2 Label_5_018B4173
 BYTE   PATT
  POIN2 Label_5_018B417B
 BYTE   PATT
  POIN2 Label_5_018B4173
 BYTE   PATT
  POIN2 Label_5_018B418F
 BYTE   PATT
  POIN2 Label_5_018B419E
 BYTE   PATT
  POIN2 Label_5_018B41AE
 BYTE   PATT
  POIN2 Label_5_018B41C5
 BYTE   PATT
  POIN2 Label_5_018B41DC
 BYTE   PATT
  POIN2 Label_5_018B41F3
 BYTE   PATT
  POIN2 Label_5_018B41AE
 BYTE   PATT
  POIN2 Label_5_018B41C5
 BYTE   PATT
  POIN2 Label_5_018B41DC
 BYTE   PATT
  POIN2 Label_5_018B41F3
 BYTE   PATT
  POIN2 Label_5_018B421E
 BYTE   PATT
  POIN2 Label_5_018B4225
 BYTE   PATT
  POIN2 Label_5_018B421E
 BYTE   PATT
  POIN2 Label_5_018B423D
// 026   ----------------------------------------
 BYTE   GoTo
  POIN2 Label_5_018B40C6
 BYTE   FINE

//**************** Track 7 (Midi-Chn.6) ****************//

PokemonRSEVictoryRoadDolkar_007:
// 000   ----------------------------------------
 BYTE   KEYSH   PokemonRSEVictoryRoadDolkar_key+0
Label_6_018B42C2:
 BYTE   VOICE   89
 BYTE   VOL   44*PokemonRSEVictoryRoadDolkar_mvl/mxv
 BYTE   PAN   c_v+0
 BYTE   VOL   21*PokemonRSEVictoryRoadDolkar_mvl/mxv
 BYTE   N44  Ds3  v088
 BYTE   W05
 BYTE   VOL   22*PokemonRSEVictoryRoadDolkar_mvl/mxv
 BYTE   W08
 BYTE   AsM1
 BYTE   W11
 BYTE   BnM1
 BYTE   W08
 BYTE   BnM1
 BYTE   W01
 BYTE   Cn0
 BYTE   W03
 BYTE   Cs0
 BYTE   W01
 BYTE   Cs0
 BYTE   W03
 BYTE   Dn0
 BYTE   W01
 BYTE   Ds0
 BYTE   W03
 BYTE   Ds0
 BYTE   W04
 BYTE   En0
 BYTE   N44  En3
 BYTE   W01
 BYTE   VOL   28*PokemonRSEVictoryRoadDolkar_mvl/mxv
 BYTE   W03
 BYTE   Fn0
 BYTE   W01
 BYTE   Fs0
 BYTE   W03
 BYTE   Fs0
 BYTE   W01
 BYTE   Gn0
 BYTE   W03
 BYTE   Gs0
 BYTE   W01
 BYTE   Gs0
 BYTE   W03
 BYTE   An0
 BYTE   W01
 BYTE   As0
 BYTE   W03
 BYTE   As0
 BYTE   W08
 BYTE   Bn0
 BYTE   W01
 BYTE   Cn1
 BYTE   W03
 BYTE   Cs1
 BYTE   W01
 BYTE   Ds1
 BYTE   W03
 BYTE   En1
 BYTE   W04
 BYTE   Fn1
 BYTE   W05
 BYTE   Fs1
 BYTE   W03
// 001   ----------------------------------------
 BYTE   Gs1
 BYTE   N04  Fn3  v100
 BYTE   W48
 BYTE   N04
 BYTE   W48
// 002   ----------------------------------------
 BYTE   N04
 BYTE   W24
 BYTE   N04
 BYTE   W24
 BYTE   N02  Ds3
 BYTE   W08
 BYTE   N02
 BYTE   W08
 BYTE   N02
 BYTE   W08
 BYTE   N02
 BYTE   W08
 BYTE   N02
 BYTE   W08
 BYTE   N04  En3
 BYTE   W08
// 003   ----------------------------------------
 BYTE   Fn3
 BYTE   W48
 BYTE   N04
 BYTE   W48
// 004   ----------------------------------------
 BYTE   N04
 BYTE   W24
 BYTE   N04
 BYTE   W72
// 005   ----------------------------------------
Label_6_018B432B:
 BYTE   N36  Gs2  v100
 BYTE   W40
 BYTE   N08  En2
 BYTE   W08
 BYTE   N24  Bn2
 BYTE   W24
 BYTE   Gs2
 BYTE   W24
 BYTE   PEND 
// 006   ----------------------------------------
Label_6_018B4338:
 BYTE   N36  Fs2  v100
 BYTE   W40
 BYTE   N08  Dn2
 BYTE   W08
 BYTE   N24  An2
 BYTE   W24
 BYTE   N16  Bn2
 BYTE   W16
 BYTE   N08  Dn3
 BYTE   W08
 BYTE   PEND 
// 007   ----------------------------------------
Label_6_018B4349:
 BYTE   N36  Cs3  v100
 BYTE   W40
 BYTE   N04  Gs2
 BYTE   W08
 BYTE   N24  Gn2
 BYTE   W24
 BYTE   Gs2
 BYTE   W24
 BYTE   PEND 
// 008   ----------------------------------------
 BYTE   N92  An2
 BYTE   W96
// 009   ----------------------------------------
Label_6_018B4359:
 BYTE   N04  Gs2  v100
 BYTE   W16
 BYTE   En2
 BYTE   W08
 BYTE   N44  Bn2
 BYTE   W48
 BYTE   N24  Cs3
 BYTE   W24
 BYTE   PEND 
// 010   ----------------------------------------
Label_6_018B4366:
 BYTE   N04  Dn3  v100
 BYTE   W16
 BYTE   An2
 BYTE   W08
 BYTE   N44  Fs2
 BYTE   W48
 BYTE   N24  An2
 BYTE   W24
 BYTE   PEND 
// 011   ----------------------------------------
Label_6_018B4373:
 BYTE   N36  En3  v100
 BYTE   W40
 BYTE   N04  Ds3
 BYTE   W04
 BYTE   En3
 BYTE   W04
 BYTE   N24  Cs3
 BYTE   W24
 BYTE   Gs2
 BYTE   W24
 BYTE   PEND 
// 012   ----------------------------------------
Label_6_018B4382:
 BYTE   N36  An2  v100
 BYTE   W40
 BYTE   N04  Gs2
 BYTE   W04
 BYTE   An2
 BYTE   W04
 BYTE   N24  Gs2
 BYTE   W24
 BYTE   Fs2
 BYTE   W24
 BYTE   PEND 
// 013   ----------------------------------------
Label_6_018B4391:
 BYTE   W24
 BYTE   N04  En2  v100
 BYTE   W08
 BYTE   Gs2
 BYTE   W08
 BYTE   Cs3
 BYTE   W08
 BYTE   En3
 BYTE   W08
 BYTE   Cs3
 BYTE   W08
 BYTE   Gs2
 BYTE   W08
 BYTE   En2
 BYTE   W08
 BYTE   Gs2
 BYTE   W08
 BYTE   Cs3
 BYTE   W08
 BYTE   PEND 
// 014   ----------------------------------------
Label_6_018B43A7:
 BYTE   N04  Cs3  v100
 BYTE   W08
 BYTE   As2
 BYTE   W08
 BYTE   Gn2
 BYTE   W08
 BYTE   En2
 BYTE   W08
 BYTE   Gn2
 BYTE   W08
 BYTE   As2
 BYTE   W08
 BYTE   N02  As3
 BYTE   W08
 BYTE   N02
 BYTE   W04
 BYTE   An3
 BYTE   W04
 BYTE   N04  As3
 BYTE   W08
 BYTE   N04
 BYTE   W08
 BYTE   N04
 BYTE   W08
 BYTE   N04
 BYTE   W08
 BYTE   PEND 
// 015   ----------------------------------------
Label_6_018B43C6:
 BYTE   W24
 BYTE   N04  En2  v100
 BYTE   W08
 BYTE   Gn2
 BYTE   W08
 BYTE   Bn2
 BYTE   W08
 BYTE   En3
 BYTE   W08
 BYTE   Bn2
 BYTE   W08
 BYTE   Gn2
 BYTE   W08
 BYTE   En2
 BYTE   W08
 BYTE   Gn2
 BYTE   W08
 BYTE   Bn2
 BYTE   W08
 BYTE   PEND 
// 016   ----------------------------------------
Label_6_018B43DC:
 BYTE   N04  Cs3  v100
 BYTE   W08
 BYTE   As2
 BYTE   W08
 BYTE   Gn2
 BYTE   W08
 BYTE   En2
 BYTE   W08
 BYTE   Gn2
 BYTE   W08
 BYTE   As2
 BYTE   W08
 BYTE   Cs3
 BYTE   W08
 BYTE   As2
 BYTE   W08
 BYTE   Gn2
 BYTE   W08
 BYTE   En2
 BYTE   W08
 BYTE   As2
 BYTE   W08
 BYTE   En3
 BYTE   W08
 BYTE   PEND 
// 017   ----------------------------------------
Label_6_018B43F7:
 BYTE   N06  Ds4  v088
 BYTE   W24
 BYTE   Ds3
 BYTE   W24
 BYTE   N02
 BYTE   W08
 BYTE   N02
 BYTE   W04
 BYTE   Dn3
 BYTE   W04
 BYTE   N04  Ds3
 BYTE   W08
 BYTE   Gs3
 BYTE   W08
 BYTE   As3
 BYTE   W08
 BYTE   Cn4
 BYTE   W08
 BYTE   PEND 
// 018   ----------------------------------------
Label_6_018B440D:
 BYTE   N02  Gs3  v088
 BYTE   W04
 BYTE   Ds3
 BYTE   W04
 BYTE   Bn2
 BYTE   W04
 BYTE   As2
 BYTE   W04
 BYTE   Gs2
 BYTE   W04
 BYTE   Gn2
 BYTE   W04
 BYTE   Gs2
 BYTE   W04
 BYTE   As2
 BYTE   W04
 BYTE   Bn2
 BYTE   W04
 BYTE   Ds3
 BYTE   W04
 BYTE   Gs3
 BYTE   W04
 BYTE   Bn3
 BYTE   W04
 BYTE   Ds4
 BYTE   W04
 BYTE   En4
 BYTE   W04
 BYTE   Fs4
 BYTE   W04
 BYTE   En4
 BYTE   W04
 BYTE   Ds4
 BYTE   W04
 BYTE   Cs4
 BYTE   W04
 BYTE   Bn3
 BYTE   W04
 BYTE   As3
 BYTE   W04
 BYTE   Gs3
 BYTE   W04
 BYTE   Fs3
 BYTE   W04
 BYTE   En3
 BYTE   W04
 BYTE   Fs3
 BYTE   W04
 BYTE   PEND 
// 019   ----------------------------------------
Label_6_018B4440:
 BYTE   N02  As3  v088
 BYTE   W04
 BYTE   Fs3
 BYTE   W04
 BYTE   Cs3
 BYTE   W04
 BYTE   Bn2
 BYTE   W04
 BYTE   As2
 BYTE   W04
 BYTE   Gs2
 BYTE   W04
 BYTE   Fs2
 BYTE   W04
 BYTE   Gs2
 BYTE   W04
 BYTE   As2
 BYTE   W04
 BYTE   Cs3
 BYTE   W04
 BYTE   Ds3
 BYTE   W04
 BYTE   Fn3
 BYTE   W04
 BYTE   Fs3
 BYTE   W04
 BYTE   Gs3
 BYTE   W04
 BYTE   As3
 BYTE   W04
 BYTE   Bn3
 BYTE   W04
 BYTE   Cs4
 BYTE   W04
 BYTE   En4
 BYTE   W04
 BYTE   Fn4
 BYTE   W04
 BYTE   Fs4
 BYTE   W04
 BYTE   Gs4
 BYTE   W04
 BYTE   Fs4
 BYTE   W04
 BYTE   Cs4
 BYTE   W04
 BYTE   As3
 BYTE   W04
 BYTE   PEND 
// 020   ----------------------------------------
Label_6_018B4473:
 BYTE   N02  Fn3  v088
 BYTE   W04
 BYTE   Ds3
 BYTE   W04
 BYTE   Cs3
 BYTE   W04
 BYTE   Bn2
 BYTE   W04
 BYTE   As2
 BYTE   W04
 BYTE   Gs2
 BYTE   W04
 BYTE   As2
 BYTE   W04
 BYTE   Bn2
 BYTE   W04
 BYTE   Cs3
 BYTE   W04
 BYTE   Ds3
 BYTE   W04
 BYTE   Fn3
 BYTE   W04
 BYTE   Fs3
 BYTE   W04
 BYTE   Gs3
 BYTE   W04
 BYTE   As3
 BYTE   W04
 BYTE   Bn3
 BYTE   W04
 BYTE   Cs4
 BYTE   W04
 BYTE   Ds4
 BYTE   W04
 BYTE   En4
 BYTE   W04
 BYTE   Fn4
 BYTE   W04
 BYTE   En4
 BYTE   W04
 BYTE   Ds4
 BYTE   W04
 BYTE   Cs4
 BYTE   W04
 BYTE   Bn3
 BYTE   W04
 BYTE   As3
 BYTE   W04
 BYTE   PEND 
// 021   ----------------------------------------
Label_6_018B44A6:
 BYTE   N04  En3  v088
 BYTE   W08
 BYTE   Cs3
 BYTE   W08
 BYTE   An2
 BYTE   W08
 BYTE   En2
 BYTE   W08
 BYTE   An2
 BYTE   W08
 BYTE   En3
 BYTE   W08
 BYTE   N24  Ds3
 BYTE   W24
 BYTE   N08  Fs3
 BYTE   W08
 BYTE   N02  Fn3  v052
 BYTE   W02
 BYTE   En3
 BYTE   W02
 BYTE   Ds3
 BYTE   W02
 BYTE   Dn3
 BYTE   W10
 BYTE   PEND 
// 022   ----------------------------------------
Label_6_018B44C5:
 BYTE   N02  Gs3  v088
 BYTE   W04
 BYTE   Fs3
 BYTE   W04
 BYTE   En3
 BYTE   W04
 BYTE   Ds3
 BYTE   W04
 BYTE   Cs3
 BYTE   W04
 BYTE   Bn2
 BYTE   W04
 BYTE   As2
 BYTE   W04
 BYTE   Bn2
 BYTE   W04
 BYTE   Cs3
 BYTE   W04
 BYTE   Ds3
 BYTE   W04
 BYTE   En3
 BYTE   W04
 BYTE   Fs3
 BYTE   W04
 BYTE   Gs3
 BYTE   W04
 BYTE   As3
 BYTE   W04
 BYTE   Bn3
 BYTE   W04
 BYTE   Cs4
 BYTE   W04
 BYTE   Bn3
 BYTE   W04
 BYTE   As3
 BYTE   W04
 BYTE   Gs3
 BYTE   W04
 BYTE   Fs3
 BYTE   W04
 BYTE   En3
 BYTE   W04
 BYTE   Ds3
 BYTE   W04
 BYTE   Cs3
 BYTE   W04
 BYTE   Bn2
 BYTE   W04
 BYTE   PEND 
// 023   ----------------------------------------
Label_6_018B44F8:
 BYTE   N02  Fs3  v088
 BYTE   W04
 BYTE   En3
 BYTE   W04
 BYTE   Ds3
 BYTE   W04
 BYTE   Cs3
 BYTE   W04
 BYTE   Bn2
 BYTE   W04
 BYTE   Cs3
 BYTE   W04
 BYTE   Ds3
 BYTE   W04
 BYTE   En3
 BYTE   W04
 BYTE   Fs3
 BYTE   W04
 BYTE   Gs3
 BYTE   W04
 BYTE   As3
 BYTE   W04
 BYTE   Bn3
 BYTE   W04
 BYTE   Cs4
 BYTE   W04
 BYTE   Ds4
 BYTE   W04
 BYTE   En4
 BYTE   W04
 BYTE   Fs4
 BYTE   W04
 BYTE   En4
 BYTE   W04
 BYTE   Cs4
 BYTE   W04
 BYTE   Bn3
 BYTE   W04
 BYTE   As3
 BYTE   W04
 BYTE   Gs3
 BYTE   W04
 BYTE   Fs3
 BYTE   W04
 BYTE   En3
 BYTE   W04
 BYTE   Ds3
 BYTE   W04
 BYTE   PEND 
// 024   ----------------------------------------
Label_6_018B452B:
 BYTE   N02  Fn3  v088
 BYTE   W04
 BYTE   Ds3
 BYTE   W04
 BYTE   Cs3
 BYTE   W04
 BYTE   Ds3
 BYTE   W04
 BYTE   Fn3
 BYTE   W04
 BYTE   Fs3
 BYTE   W04
 BYTE   Gs3
 BYTE   W04
 BYTE   As3
 BYTE   W04
 BYTE   Bn3
 BYTE   W04
 BYTE   Cs4
 BYTE   W04
 BYTE   Ds4
 BYTE   W04
 BYTE   Fn4
 BYTE   W04
 BYTE   Fs4
 BYTE   W04
 BYTE   Gs4
 BYTE   W04
 BYTE   As4
 BYTE   W04
 BYTE   Gs4
 BYTE   W04
 BYTE   Fs4
 BYTE   W04
 BYTE   En4
 BYTE   W04
 BYTE   Ds4
 BYTE   W04
 BYTE   Cs4
 BYTE   W04
 BYTE   Bn3
 BYTE   W04
 BYTE   As3
 BYTE   W04
 BYTE   Gs3
 BYTE   W04
 BYTE   Fs3
 BYTE   W04
 BYTE   PEND 
// 025   ----------------------------------------
Label_6_018B455E:
 BYTE   N16  Fs3  v088
 BYTE   W16
 BYTE   N04  Cs3
 BYTE   W08
 BYTE   Fs3
 BYTE   W16
 BYTE   An3
 BYTE   W08
 BYTE   N14  Gs3
 BYTE   W16
 BYTE   N04  Ds3
 BYTE   W08
 BYTE   Gs3
 BYTE   W16
 BYTE   Cn4
 BYTE   W08
 BYTE   PEND 
// 026   ----------------------------------------
Label_6_018B4574:
 BYTE   N04  Cn4  v088
 BYTE   W48
 BYTE   N04
 BYTE   W48
 BYTE   PEND 
// 027   ----------------------------------------
Label_6_018B457B:
 BYTE   N04  Cn4  v088
 BYTE   W24
 BYTE   N04
 BYTE   W24
 BYTE   N02  Fs3
 BYTE   W08
 BYTE   N02
 BYTE   W08
 BYTE   N02
 BYTE   W08
 BYTE   N02
 BYTE   W08
 BYTE   N02
 BYTE   W08
 BYTE   N04  Gn3
 BYTE   W08
 BYTE   PEND 
// 028   ----------------------------------------
Label_6_018B4590:
 BYTE   N04  Gs3  v088
 BYTE   W48
 BYTE   N04
 BYTE   W48
 BYTE   PEND 
// 029   ----------------------------------------
Label_6_018B4597:
 BYTE   N04  Gs3  v088
 BYTE   W24
 BYTE   N04
 BYTE   W72
 BYTE   PEND 
 BYTE   PATT
  POIN2 Label_6_018B432B
 BYTE   PATT
  POIN2 Label_6_018B4338
 BYTE   PATT
  POIN2 Label_6_018B4349
// 030   ----------------------------------------
 BYTE   N92  An2  v100
 BYTE   W96
 BYTE   PATT
  POIN2 Label_6_018B4359
 BYTE   PATT
  POIN2 Label_6_018B4366
 BYTE   PATT
  POIN2 Label_6_018B4373
 BYTE   PATT
  POIN2 Label_6_018B4382
 BYTE   PATT
  POIN2 Label_6_018B4391
 BYTE   PATT
  POIN2 Label_6_018B43A7
 BYTE   PATT
  POIN2 Label_6_018B43C6
 BYTE   PATT
  POIN2 Label_6_018B43DC
 BYTE   PATT
  POIN2 Label_6_018B43F7
 BYTE   PATT
  POIN2 Label_6_018B440D
 BYTE   PATT
  POIN2 Label_6_018B4440
 BYTE   PATT
  POIN2 Label_6_018B4473
 BYTE   PATT
  POIN2 Label_6_018B44A6
 BYTE   PATT
  POIN2 Label_6_018B44C5
 BYTE   PATT
  POIN2 Label_6_018B44F8
 BYTE   PATT
  POIN2 Label_6_018B452B
 BYTE   PATT
  POIN2 Label_6_018B455E
 BYTE   PATT
  POIN2 Label_6_018B4574
 BYTE   PATT
  POIN2 Label_6_018B457B
 BYTE   PATT
  POIN2 Label_6_018B4590
 BYTE   PATT
  POIN2 Label_6_018B4597
// 031   ----------------------------------------
 BYTE   GoTo
  POIN2 Label_6_018B42C2
 BYTE   FINE

//**************** Track 8 (Midi-Chn.7) ****************//

PokemonRSEVictoryRoadDolkar_008:
// 000   ----------------------------------------
 BYTE   KEYSH   PokemonRSEVictoryRoadDolkar_key+0
Label_7_018B4622:
 BYTE   VOICE   81
 BYTE   VOL   44*PokemonRSEVictoryRoadDolkar_mvl/mxv
 BYTE   PAN   c_v+0
 BYTE   W96
// 001   ----------------------------------------
Label_7_018B4629:
 BYTE   N04  Fn4  v100
 BYTE   W48
 BYTE   N04
 BYTE   W48
 BYTE   PEND 
// 002   ----------------------------------------
 BYTE   N04
 BYTE   W24
 BYTE   N04
 BYTE   W24
 BYTE   N02  Ds4
 BYTE   W08
 BYTE   N02
 BYTE   W08
 BYTE   N02
 BYTE   W08
 BYTE   En4
 BYTE   W08
 BYTE   N02
 BYTE   W08
 BYTE   N04
 BYTE   W08
 BYTE   PATT
  POIN2 Label_7_018B4629
// 003   ----------------------------------------
 BYTE   N04  Fn4  v100
 BYTE   W24
 BYTE   N04
 BYTE   W72
// 004   ----------------------------------------
Label_7_018B464C:
 BYTE   N36  En3  v100
 BYTE   W40
 BYTE   N08  Cs3
 BYTE   W08
 BYTE   N44  Gs3
 BYTE   W48
 BYTE   PEND 
// 005   ----------------------------------------
Label_7_018B4657:
 BYTE   N36  Fs3  v100
 BYTE   W40
 BYTE   N08  Dn3
 BYTE   W08
 BYTE   N24  Cs3
 BYTE   W24
 BYTE   N16  En3
 BYTE   W16
 BYTE   N08  Fs3
 BYTE   W08
 BYTE   PEND 
// 006   ----------------------------------------
Label_7_018B4668:
 BYTE   N36  Gs3  v100
 BYTE   W40
 BYTE   N04  En3
 BYTE   W08
 BYTE   N24  Ds3
 BYTE   W24
 BYTE   En3
 BYTE   W24
 BYTE   PEND 
// 007   ----------------------------------------
Label_7_018B4675:
 BYTE   BEND   c_v+0
 BYTE   N92  Dn3  v100
 BYTE   W72
 BYTE   BEND   c_v-2
 BYTE   W02
 BYTE   Cs3
 BYTE   W02
 BYTE   Bn2
 BYTE   W02
 BYTE   As2
 BYTE   W02
 BYTE   Gn2
 BYTE   W02
 BYTE   Fs2
 BYTE   W02
 BYTE   Fn2
 BYTE   W02
 BYTE   Ds2
 BYTE   W02
 BYTE   Cs2
 BYTE   W02
 BYTE   Bn1
 BYTE   W02
 BYTE   Gn1
 BYTE   W02
 BYTE   Fn1
 BYTE   W02
 BYTE   PEND 
// 008   ----------------------------------------
Label_7_018B4695:
 BYTE   BEND   c_v+0
 BYTE   N04  Cs3  v100
 BYTE   W16
 BYTE   Gs2
 BYTE   W08
 BYTE   N44  En3
 BYTE   W48
 BYTE   N24  Gs3
 BYTE   W24
 BYTE   PEND 
// 009   ----------------------------------------
Label_7_018B46A4:
 BYTE   N04  Fs3  v100
 BYTE   W16
 BYTE   Dn3
 BYTE   W08
 BYTE   N44  An3
 BYTE   W48
 BYTE   N24  Fs3
 BYTE   W24
 BYTE   PEND 
// 010   ----------------------------------------
Label_7_018B46B1:
 BYTE   N36  Cs4  v100
 BYTE   W40
 BYTE   N04  Cn4
 BYTE   W04
 BYTE   Cs4
 BYTE   W04
 BYTE   N24  Gs3
 BYTE   W24
 BYTE   En3
 BYTE   W24
 BYTE   PEND 
// 011   ----------------------------------------
Label_7_018B46C0:
 BYTE   N36  Fs3  v100
 BYTE   W40
 BYTE   N04  En3
 BYTE   W04
 BYTE   Fs3
 BYTE   W04
 BYTE   N24  Dn3
 BYTE   W24
 BYTE   Bn2
 BYTE   W24
 BYTE   PEND 
// 012   ----------------------------------------
Label_7_018B46CF:
 BYTE   W24
 BYTE   N04  Cs3  v100
 BYTE   W08
 BYTE   En3
 BYTE   W08
 BYTE   Gs3
 BYTE   W08
 BYTE   Cs4
 BYTE   W08
 BYTE   Gs3
 BYTE   W08
 BYTE   En3
 BYTE   W08
 BYTE   Cs3
 BYTE   W08
 BYTE   En3
 BYTE   W08
 BYTE   Gs3
 BYTE   W08
 BYTE   PEND 
// 013   ----------------------------------------
Label_7_018B46E5:
 BYTE   N04  As3  v100
 BYTE   W08
 BYTE   Gn3
 BYTE   W08
 BYTE   En3
 BYTE   W08
 BYTE   Cs3
 BYTE   W08
 BYTE   En3
 BYTE   W08
 BYTE   Gn3
 BYTE   W08
 BYTE   N02  Gn4
 BYTE   W08
 BYTE   N02
 BYTE   W04
 BYTE   Fs4
 BYTE   W04
 BYTE   N04  Gn4
 BYTE   W08
 BYTE   N04
 BYTE   W08
 BYTE   N04
 BYTE   W08
 BYTE   N04
 BYTE   W08
 BYTE   PEND 
 BYTE   PATT
  POIN2 Label_7_018B46CF
// 014   ----------------------------------------
Label_7_018B4709:
 BYTE   N04  As3  v100
 BYTE   W08
 BYTE   Gn3
 BYTE   W08
 BYTE   En3
 BYTE   W08
 BYTE   Cs3
 BYTE   W08
 BYTE   En3
 BYTE   W08
 BYTE   Gn3
 BYTE   W08
 BYTE   As3
 BYTE   W08
 BYTE   Gn3
 BYTE   W08
 BYTE   En3
 BYTE   W08
 BYTE   Cs3
 BYTE   W08
 BYTE   Gn3
 BYTE   W08
 BYTE   Cs4
 BYTE   W08
 BYTE   PEND 
// 015   ----------------------------------------
Label_7_018B4724:
 BYTE   N06  Gs4  v100
 BYTE   W24
 BYTE   Gs3
 BYTE   W24
 BYTE   N02
 BYTE   W08
 BYTE   N02
 BYTE   W04
 BYTE   Gn3
 BYTE   W04
 BYTE   N04  Gs3
 BYTE   W08
 BYTE   Ds3
 BYTE   W08
 BYTE   En3
 BYTE   W08
 BYTE   Fs3
 BYTE   W08
 BYTE   PEND 
// 016   ----------------------------------------
Label_7_018B473A:
 BYTE   N02  Cs4  v088
 BYTE   W04
 BYTE   Gs3
 BYTE   W04
 BYTE   En3
 BYTE   W04
 BYTE   Ds3
 BYTE   W04
 BYTE   Cs3
 BYTE   W04
 BYTE   Cn3
 BYTE   W04
 BYTE   Cs3
 BYTE   W04
 BYTE   Ds3
 BYTE   W04
 BYTE   En3
 BYTE   W04
 BYTE   Gs3
 BYTE   W04
 BYTE   Cs4
 BYTE   W04
 BYTE   En4
 BYTE   W04
 BYTE   Gs4
 BYTE   W04
 BYTE   An4
 BYTE   W04
 BYTE   Bn4
 BYTE   W04
 BYTE   An4
 BYTE   W04
 BYTE   Gs4
 BYTE   W04
 BYTE   Fs4
 BYTE   W04
 BYTE   En4
 BYTE   W04
 BYTE   Ds4
 BYTE   W04
 BYTE   Cs4
 BYTE   W04
 BYTE   Bn3
 BYTE   W04
 BYTE   An3
 BYTE   W04
 BYTE   Bn3
 BYTE   W04
 BYTE   PEND 
// 017   ----------------------------------------
Label_7_018B476D:
 BYTE   N02  Ds4  v088
 BYTE   W04
 BYTE   Bn3
 BYTE   W04
 BYTE   Fs3
 BYTE   W04
 BYTE   En3
 BYTE   W04
 BYTE   Ds3
 BYTE   W04
 BYTE   Cs3
 BYTE   W04
 BYTE   Bn2
 BYTE   W04
 BYTE   Cs3
 BYTE   W04
 BYTE   Ds3
 BYTE   W04
 BYTE   Fs3
 BYTE   W04
 BYTE   Gs3
 BYTE   W04
 BYTE   As3
 BYTE   W04
 BYTE   Bn3
 BYTE   W04
 BYTE   Cs4
 BYTE   W04
 BYTE   Ds4
 BYTE   W04
 BYTE   En4
 BYTE   W04
 BYTE   Fs4
 BYTE   W04
 BYTE   An4
 BYTE   W04
 BYTE   As4
 BYTE   W04
 BYTE   Bn4
 BYTE   W04
 BYTE   Cs5
 BYTE   W04
 BYTE   Bn4
 BYTE   W04
 BYTE   Fs4
 BYTE   W04
 BYTE   Ds4
 BYTE   W04
 BYTE   PEND 
// 018   ----------------------------------------
Label_7_018B47A0:
 BYTE   N02  As3  v088
 BYTE   W04
 BYTE   Gs3
 BYTE   W04
 BYTE   Fs3
 BYTE   W04
 BYTE   En3
 BYTE   W04
 BYTE   Ds3
 BYTE   W04
 BYTE   Cs3
 BYTE   W04
 BYTE   Ds3
 BYTE   W04
 BYTE   En3
 BYTE   W04
 BYTE   Fs3
 BYTE   W04
 BYTE   Gs3
 BYTE   W04
 BYTE   As3
 BYTE   W04
 BYTE   Bn3
 BYTE   W04
 BYTE   Cs4
 BYTE   W04
 BYTE   Ds4
 BYTE   W04
 BYTE   En4
 BYTE   W04
 BYTE   Fs4
 BYTE   W04
 BYTE   Gs4
 BYTE   W04
 BYTE   An4
 BYTE   W04
 BYTE   As4
 BYTE   W04
 BYTE   An4
 BYTE   W04
 BYTE   Gs4
 BYTE   W04
 BYTE   Fs4
 BYTE   W04
 BYTE   En4
 BYTE   W04
 BYTE   Ds4
 BYTE   W04
 BYTE   PEND 
// 019   ----------------------------------------
Label_7_018B47D3:
 BYTE   N04  An3  v088
 BYTE   W08
 BYTE   En3
 BYTE   W08
 BYTE   Cs3
 BYTE   W08
 BYTE   An2
 BYTE   W08
 BYTE   Cs3
 BYTE   W08
 BYTE   An3
 BYTE   W08
 BYTE   N24  Fs4
 BYTE   W24
 BYTE   N08  Bn4
 BYTE   W24
 BYTE   PEND 
// 020   ----------------------------------------
Label_7_018B47E8:
 BYTE   N02  Cs4  v088
 BYTE   W04
 BYTE   Bn3
 BYTE   W04
 BYTE   An3
 BYTE   W04
 BYTE   Gs3
 BYTE   W04
 BYTE   Fs3
 BYTE   W04
 BYTE   En3
 BYTE   W04
 BYTE   Ds3
 BYTE   W04
 BYTE   En3
 BYTE   W04
 BYTE   Fs3
 BYTE   W04
 BYTE   Gs3
 BYTE   W04
 BYTE   An3
 BYTE   W04
 BYTE   Bn3
 BYTE   W04
 BYTE   Cs4
 BYTE   W04
 BYTE   Ds4
 BYTE   W04
 BYTE   En4
 BYTE   W04
 BYTE   Fs4
 BYTE   W04
 BYTE   En4
 BYTE   W04
 BYTE   Ds4
 BYTE   W04
 BYTE   Cs4
 BYTE   W04
 BYTE   Bn3
 BYTE   W04
 BYTE   An3
 BYTE   W04
 BYTE   Gs3
 BYTE   W04
 BYTE   Fs3
 BYTE   W04
 BYTE   En3
 BYTE   W04
 BYTE   PEND 
// 021   ----------------------------------------
Label_7_018B481B:
 BYTE   N02  Bn3  v088
 BYTE   W04
 BYTE   An3
 BYTE   W04
 BYTE   Gs3
 BYTE   W04
 BYTE   Fs3
 BYTE   W04
 BYTE   En3
 BYTE   W04
 BYTE   Fs3
 BYTE   W04
 BYTE   Gs3
 BYTE   W04
 BYTE   An3
 BYTE   W04
 BYTE   Bn3
 BYTE   W04
 BYTE   Cs4
 BYTE   W04
 BYTE   Ds4
 BYTE   W04
 BYTE   En4
 BYTE   W04
 BYTE   Fs4
 BYTE   W04
 BYTE   Gs4
 BYTE   W04
 BYTE   An4
 BYTE   W04
 BYTE   Bn4
 BYTE   W04
 BYTE   An4
 BYTE   W04
 BYTE   Fs4
 BYTE   W04
 BYTE   En4
 BYTE   W04
 BYTE   Ds4
 BYTE   W04
 BYTE   Cs4
 BYTE   W04
 BYTE   Bn3
 BYTE   W04
 BYTE   An3
 BYTE   W04
 BYTE   Gs3
 BYTE   W04
 BYTE   PEND 
// 022   ----------------------------------------
Label_7_018B484E:
 BYTE   N02  As3  v088
 BYTE   W04
 BYTE   Gs3
 BYTE   W04
 BYTE   Fs3
 BYTE   W04
 BYTE   Gs3
 BYTE   W04
 BYTE   As3
 BYTE   W04
 BYTE   Bn3
 BYTE   W04
 BYTE   Cs4
 BYTE   W04
 BYTE   Ds4
 BYTE   W04
 BYTE   En4
 BYTE   W04
 BYTE   Fs4
 BYTE   W04
 BYTE   Gs4
 BYTE   W04
 BYTE   As4
 BYTE   W04
 BYTE   Bn4
 BYTE   W04
 BYTE   Cs5
 BYTE   W04
 BYTE   Ds5
 BYTE   W04
 BYTE   Cs5
 BYTE   W04
 BYTE   Bn4
 BYTE   W04
 BYTE   An4
 BYTE   W04
 BYTE   Gs4
 BYTE   W04
 BYTE   Fs4
 BYTE   W04
 BYTE   En4
 BYTE   W04
 BYTE   Ds4
 BYTE   W04
 BYTE   Cs4
 BYTE   W04
 BYTE   Bn3
 BYTE   W04
 BYTE   PEND 
// 023   ----------------------------------------
Label_7_018B4881:
 BYTE   N16  An3  v088
 BYTE   W16
 BYTE   N04  En3
 BYTE   W08
 BYTE   An3
 BYTE   W16
 BYTE   Cs4
 BYTE   W08
 BYTE   N16  Bn3
 BYTE   W16
 BYTE   N04  Fs3
 BYTE   W08
 BYTE   Bn3
 BYTE   W16
 BYTE   Ds4
 BYTE   W08
 BYTE   PEND 
// 024   ----------------------------------------
Label_7_018B4897:
 BYTE   N04  Gs4  v088
 BYTE   W48
 BYTE   N04
 BYTE   W48
 BYTE   PEND 
// 025   ----------------------------------------
Label_7_018B489E:
 BYTE   N04  Gs4  v088
 BYTE   W24
 BYTE   N04
 BYTE   W24
 BYTE   N02  Cs4
 BYTE   W08
 BYTE   N02
 BYTE   W08
 BYTE   N02
 BYTE   W08
 BYTE   Dn4
 BYTE   W08
 BYTE   N02
 BYTE   W08
 BYTE   N04
 BYTE   W08
 BYTE   PEND 
// 026   ----------------------------------------
Label_7_018B48B2:
 BYTE   N04  Gs1  v088
 BYTE   W48
 BYTE   N04
 BYTE   W48
 BYTE   PEND 
// 027   ----------------------------------------
Label_7_018B48B9:
 BYTE   N04  Gs1  v088
 BYTE   W24
 BYTE   N04
 BYTE   W72
 BYTE   PEND 
 BYTE   PATT
  POIN2 Label_7_018B464C
 BYTE   PATT
  POIN2 Label_7_018B4657
 BYTE   PATT
  POIN2 Label_7_018B4668
 BYTE   PATT
  POIN2 Label_7_018B4675
 BYTE   PATT
  POIN2 Label_7_018B4695
 BYTE   PATT
  POIN2 Label_7_018B46A4
 BYTE   PATT
  POIN2 Label_7_018B46B1
 BYTE   PATT
  POIN2 Label_7_018B46C0
 BYTE   PATT
  POIN2 Label_7_018B46CF
 BYTE   PATT
  POIN2 Label_7_018B46E5
 BYTE   PATT
  POIN2 Label_7_018B46CF
 BYTE   PATT
  POIN2 Label_7_018B4709
 BYTE   PATT
  POIN2 Label_7_018B4724
 BYTE   PATT
  POIN2 Label_7_018B473A
 BYTE   PATT
  POIN2 Label_7_018B476D
 BYTE   PATT
  POIN2 Label_7_018B47A0
 BYTE   PATT
  POIN2 Label_7_018B47D3
 BYTE   PATT
  POIN2 Label_7_018B47E8
 BYTE   PATT
  POIN2 Label_7_018B481B
 BYTE   PATT
  POIN2 Label_7_018B484E
 BYTE   PATT
  POIN2 Label_7_018B4881
 BYTE   PATT
  POIN2 Label_7_018B4897
 BYTE   PATT
  POIN2 Label_7_018B489E
 BYTE   PATT
  POIN2 Label_7_018B48B2
 BYTE   PATT
  POIN2 Label_7_018B48B9
// 028   ----------------------------------------
 BYTE   GoTo
  POIN2 Label_7_018B4622
 BYTE   FINE

//******************************************************//
	ALIGN 4

PokemonRSEVictoryRoadDolkar:
	BYTE	8	// NumTrks
	BYTE	0	// NumBlks
	BYTE	PokemonRSEVictoryRoadDolkar_pri	// Priority
	BYTE	PokemonRSEVictoryRoadDolkar_rev	// Reverb.
    
	POIN2	PokemonRSEVictoryRoadDolkar_grp
    
	POIN2	PokemonRSEVictoryRoadDolkar_001
	POIN2	PokemonRSEVictoryRoadDolkar_002
	POIN2	PokemonRSEVictoryRoadDolkar_003
	POIN2	PokemonRSEVictoryRoadDolkar_004
	POIN2	PokemonRSEVictoryRoadDolkar_005
	POIN2	PokemonRSEVictoryRoadDolkar_006
	POIN2	PokemonRSEVictoryRoadDolkar_007
	POIN2	PokemonRSEVictoryRoadDolkar_008

	
