//Event file generated from Sappy .s format.
	#include "MPlayDef.event"

	#define	PokemonSunandMoonEliteFourTak_grp  voicegroup000
	#define	PokemonSunandMoonEliteFourTak_pri  0
	#define	PokemonSunandMoonEliteFourTak_rev  0
	#define	PokemonSunandMoonEliteFourTak_mvl  127
	#define	PokemonSunandMoonEliteFourTak_key  0
	#define	PokemonSunandMoonEliteFourTak_tbs  1
	#define	PokemonSunandMoonEliteFourTak_exg  0
	#define	PokemonSunandMoonEliteFourTak_cmp  1

	// .rodata
	//	PokemonSunandMoonEliteFourTak
	ALIGN 4


//**************** Track 1 (Midi-Chn.0) ****************//

PokemonSunandMoonEliteFourTak_001:
//  #01 //000   ----------------------------------------
 BYTE   KEYSH   PokemonSunandMoonEliteFourTak_key+0
 BYTE   TEMPO   202*PokemonSunandMoonEliteFourTak_tbs/2
 BYTE   VOICE   124
 BYTE   VOL   58*PokemonSunandMoonEliteFourTak_mvl/mxv
 BYTE   BENDR  12
 BYTE   N11  Fn1  v080
 BYTE   W12
 BYTE   N05  Gn1
 BYTE   W06
 BYTE   Gn1
 BYTE   W06
 BYTE   N11  Fn1
 BYTE   W12
 BYTE   Fn1
 BYTE   W12
 BYTE   N05  Gn1
 BYTE   W06
 BYTE   Gn1
 BYTE   W06
 BYTE   N11  Fn1
 BYTE   W12
 BYTE   N05  Gn1
 BYTE   W06
 BYTE   Gn1
 BYTE   W06
 BYTE   N11  Fn1
 BYTE   W12
//  #01 //001   ----------------------------------------
Label_01026318:
 BYTE   N11  Fn1  v080
 BYTE   W12
 BYTE   N05  Gn1
 BYTE   W06
 BYTE   Gn1
 BYTE   W06
 BYTE   N11  Fn1
 BYTE   W12
 BYTE   Fn1
 BYTE   W12
 BYTE   N05  Gn1
 BYTE   W06
 BYTE   Gn1
 BYTE   W06
 BYTE   N11  Fn1
 BYTE   W12
 BYTE   N05  Gn1
 BYTE   W06
 BYTE   Gn1
 BYTE   W06
 BYTE   N11  Fn1
 BYTE   W12
 BYTE   PEND 
//  #01 //002   ----------------------------------------
 BYTE   PATT
  POIN2 Label_01026318
//  #01 //003   ----------------------------------------
 BYTE   N23  Fn1  v080
 BYTE   W24
 BYTE   Cn1  v041
 BYTE   W24
 BYTE   Cn1  v046
 BYTE   W24
 BYTE   Cn1  v052
 BYTE   W24
//  #01 //004   ----------------------------------------
Label_01026349:
 BYTE   N11  Fn1  v116
 BYTE   W12
 BYTE   N05  Gn1
 BYTE   W06
 BYTE   Gn1
 BYTE   W06
 BYTE   N11  Fn1
 BYTE   W12
 BYTE   Fn1
 BYTE   W12
 BYTE   N05  Gn1
 BYTE   W06
 BYTE   Gn1
 BYTE   W06
 BYTE   N11  Fn1
 BYTE   W12
 BYTE   N05  Gn1
 BYTE   W06
 BYTE   Gn1
 BYTE   W06
 BYTE   N11  Fn1
 BYTE   W12
 BYTE   PEND 
//  #01 //005   ----------------------------------------
 BYTE   PATT
  POIN2 Label_01026349
//  #01 //006   ----------------------------------------
 BYTE   PATT
  POIN2 Label_01026349
//  #01 //007   ----------------------------------------
 BYTE   N23  Fn1  v116
 BYTE   W24
 BYTE   Cn1  v059
 BYTE   W24
 BYTE   Cn1  v065
 BYTE   W24
 BYTE   Cn1  v072
 BYTE   W24
//  #01 //008   ----------------------------------------
Label_0102637F:
 BYTE   N11  Fn1  v127
 BYTE   W12
 BYTE   N05  Gn1
 BYTE   W06
 BYTE   Gn1
 BYTE   W06
 BYTE   N11  Fn1
 BYTE   W12
 BYTE   Fn1
 BYTE   W12
 BYTE   N05  Gn1
 BYTE   W06
 BYTE   Gn1
 BYTE   W06
 BYTE   N11  Fn1
 BYTE   W12
 BYTE   N05  Gn1
 BYTE   W06
 BYTE   Gn1
 BYTE   W06
 BYTE   N11  Fn1
 BYTE   W12
 BYTE   PEND 
//  #01 //009   ----------------------------------------
 BYTE   PATT
  POIN2 Label_0102637F
//  #01 //010   ----------------------------------------
 BYTE   PATT
  POIN2 Label_0102637F
//  #01 //011   ----------------------------------------
 BYTE   N23  Fn1  v127
 BYTE   W24
 BYTE   Dn1  v080
 BYTE   W12
 BYTE   N11  Cn1  v082
 BYTE   W12
 BYTE   Dn1  v087
 BYTE   N23  Cn1
 BYTE   W12
 BYTE   N11  Dn1  v091
 BYTE   W12
 BYTE   Cn1  v094
 BYTE   N05  Dn1
 BYTE   W06
 BYTE   Dn1  v097
 BYTE   W06
 BYTE   N11  Cn1  v098
 BYTE   N05  Dn1
 BYTE   W06
 BYTE   Dn1  v100
 BYTE   W06
//  #01 //012   ----------------------------------------
Label_010263CD:
 BYTE   N23  Cn1  v103
 BYTE   N56  An2  v103  gtp3
 BYTE   N11  Fs1
 BYTE   W12
 BYTE   Fs1
 BYTE   W12
 BYTE   Fs1
 BYTE   N11  Dn1
 BYTE   W12
 BYTE   N05  Fs1
 BYTE   W06
 BYTE   Fs1
 BYTE   W06
 BYTE   N11  Cn1
 BYTE   N11  Fs1
 BYTE   W12
 BYTE   Cn1
 BYTE   N11  Fs1
 BYTE   W12
 BYTE   Fs1
 BYTE   N11  Dn1
 BYTE   W12
 BYTE   Fs1
 BYTE   W12
//  #01 //013   ----------------------------------------
Label_010263F1:
 BYTE   N23  Cn1  v103
 BYTE   N11  Fs1
 BYTE   W12
 BYTE   Fs1
 BYTE   W12
 BYTE   Fs1
 BYTE   N11  Dn1
 BYTE   W12
 BYTE   N05  Fs1
 BYTE   W06
 BYTE   Fs1
 BYTE   W06
 BYTE   N11  Cn1
 BYTE   N11  Fs1
 BYTE   W12
 BYTE   Cn1
 BYTE   N11  Fs1
 BYTE   W12
 BYTE   Fs1
 BYTE   N11  Dn1
 BYTE   W12
 BYTE   Fs1
 BYTE   W12
 BYTE   PEND 
//  #01 //014   ----------------------------------------
 BYTE   PATT
  POIN2 Label_010263F1
//  #01 //015   ----------------------------------------
 BYTE   PATT
  POIN2 Label_010263F1
//  #01 //016   ----------------------------------------
Label_0102641C:
 BYTE   N11  Fs1  v103
 BYTE   N23  Cn1
 BYTE   W12
 BYTE   N11  Fs1
 BYTE   W12
 BYTE   Fs1
 BYTE   N11  Dn1
 BYTE   W12
 BYTE   N05  Fs1
 BYTE   W06
 BYTE   Fs1
 BYTE   W06
 BYTE   N11
 BYTE   N11  Cn1
 BYTE   W12
 BYTE   Fs1
 BYTE   N11  Cn1
 BYTE   W12
 BYTE   Fs1
 BYTE   N11  Dn1
 BYTE   W12
 BYTE   Fs1
 BYTE   W12
 BYTE   PEND 
//  #01 //017   ----------------------------------------
 BYTE   PATT
  POIN2 Label_0102641C
//  #01 //018   ----------------------------------------
 BYTE   PATT
  POIN2 Label_0102641C
//  #01 //019   ----------------------------------------
 BYTE   N11  Fs1  v103
 BYTE   N23  Cn1
 BYTE   W12
 BYTE   N11  Fs1
 BYTE   W12
 BYTE   Fs1
 BYTE   N11  Dn1
 BYTE   W12
 BYTE   N05  Fs1
 BYTE   N11  Cn1
 BYTE   W06
 BYTE   N05  Fs1
 BYTE   W06
 BYTE   N11  Dn1
 BYTE   N11  Fs1
 BYTE   W12
 BYTE   Fs1
 BYTE   N11  Cn1
 BYTE   W12
 BYTE   N05  Fs1
 BYTE   N05  Dn1
 BYTE   W06
 BYTE   Dn1
 BYTE   W06
 BYTE   N11  Cn1
 BYTE   N05  Dn1
 BYTE   W06
 BYTE   Dn1
 BYTE   W06
//  #01 //020   ----------------------------------------
 BYTE   N23  Cn1
 BYTE   N56  An2  v103  gtp3
 BYTE   N11  Fs1
 BYTE   N23  Ds2
 BYTE   W12
 BYTE   N11  Fs1
 BYTE   W12
 BYTE   Fs1
 BYTE   N11  Dn1
 BYTE   N23  Ds2
 BYTE   W12
 BYTE   N05  Fs1
 BYTE   W06
 BYTE   Fs1
 BYTE   W06
 BYTE   N11  Cn1
 BYTE   N11  Fs1
 BYTE   N23  Ds2
 BYTE   W12
 BYTE   N11  Cn1
 BYTE   N11  Fs1
 BYTE   W12
 BYTE   Fs1
 BYTE   N11  Dn1
 BYTE   N23  Ds2
 BYTE   W12
 BYTE   N11  Fs1
 BYTE   W12
//  #01 //021   ----------------------------------------
Label_010264A1:
 BYTE   N23  Cn1  v103
 BYTE   N11  Fs1
 BYTE   N23  Ds2
 BYTE   W12
 BYTE   N11  Fs1
 BYTE   W12
 BYTE   Fs1
 BYTE   N11  Dn1
 BYTE   N23  Ds2
 BYTE   W12
 BYTE   N05  Fs1
 BYTE   W06
 BYTE   Fs1
 BYTE   W06
 BYTE   N11  Cn1
 BYTE   N11  Fs1
 BYTE   N23  Ds2
 BYTE   W12
 BYTE   N11  Cn1
 BYTE   N11  Fs1
 BYTE   W12
 BYTE   Fs1
 BYTE   N11  Dn1
 BYTE   N23  Ds2
 BYTE   W12
 BYTE   N11  Fs1
 BYTE   W12
 BYTE   PEND 
//  #01 //022   ----------------------------------------
 BYTE   PATT
  POIN2 Label_010264A1
//  #01 //023   ----------------------------------------
 BYTE   N23  Cn1  v103
 BYTE   N11  Fs1
 BYTE   N23  Ds2
 BYTE   W12
 BYTE   N11  Fs1
 BYTE   W12
 BYTE   Fs1
 BYTE   N11  Dn1
 BYTE   N23  Ds2
 BYTE   W12
 BYTE   N05  Fs1
 BYTE   W06
 BYTE   Fs1
 BYTE   W06
 BYTE   N11  Cn1
 BYTE   N11  Fs1
 BYTE   N23  Ds2
 BYTE   W12
 BYTE   N11  Cn1
 BYTE   N11  Fs1
 BYTE   W12
 BYTE   Dn1
 BYTE   N11  Fs1
 BYTE   N23  Ds2
 BYTE   W12
 BYTE   N05  Fs1
 BYTE   W06
 BYTE   Dn1
 BYTE   W06
//  #01 //024   ----------------------------------------
 BYTE   N11  Fs1
 BYTE   N23  Cn1
 BYTE   N23  Ds2
 BYTE   W12
 BYTE   N11  Fs1
 BYTE   W12
 BYTE   Dn1
 BYTE   N11  Fs1
 BYTE   N23  Ds2
 BYTE   W12
 BYTE   N05  Fs1
 BYTE   W06
 BYTE   Fs1
 BYTE   W06
 BYTE   N11
 BYTE   N11  Cn1
 BYTE   N23  Ds2
 BYTE   W12
 BYTE   N11  Cn1
 BYTE   N11  Fs1
 BYTE   W12
 BYTE   Dn1
 BYTE   N11  Fs1
 BYTE   N23  Ds2
 BYTE   W12
 BYTE   N11  Fs1
 BYTE   W12
//  #01 //025   ----------------------------------------
 BYTE   Fs1
 BYTE   N23  Cn1
 BYTE   N23  Ds2
 BYTE   W12
 BYTE   N11  Fs1
 BYTE   W12
 BYTE   Dn1
 BYTE   N11  Fs1
 BYTE   N23  Ds2
 BYTE   W12
 BYTE   N05  Fs1
 BYTE   W06
 BYTE   Fs1
 BYTE   W06
 BYTE   N11
 BYTE   N11  Cn1
 BYTE   N23  Ds2
 BYTE   W12
 BYTE   N11  Fs1
 BYTE   N11  Cn1
 BYTE   W12
 BYTE   N23  Ds2
 BYTE   N11  Dn1
 BYTE   N11  Fs1
 BYTE   W12
 BYTE   Fs1
 BYTE   W12
//  #01 //026   ----------------------------------------
 BYTE   Fs1
 BYTE   N23  Cn1
 BYTE   N23  Ds2
 BYTE   W12
 BYTE   N11  Fs1
 BYTE   W12
 BYTE   N23  Ds2
 BYTE   N11  Dn1
 BYTE   N11  Fs1
 BYTE   W12
 BYTE   N05
 BYTE   W06
 BYTE   Fs1
 BYTE   W06
 BYTE   N11
 BYTE   N11  Cn1
 BYTE   N23  Ds2
 BYTE   W12
 BYTE   N11  Cn1
 BYTE   N11  Fs1
 BYTE   W12
 BYTE   N23  Ds2
 BYTE   N11  Dn1
 BYTE   N11  Fs1
 BYTE   W12
 BYTE   Fs1
 BYTE   W12
//  #01 //027   ----------------------------------------
 BYTE   Fs1
 BYTE   N23  Cn1
 BYTE   N23  Ds2
 BYTE   W12
 BYTE   N11  Fs1
 BYTE   W12
 BYTE   Fs1
 BYTE   N11  Dn1
 BYTE   N23  Ds2
 BYTE   W12
 BYTE   N05  Fs1
 BYTE   W06
 BYTE   Fs1
 BYTE   W06
 BYTE   N11
 BYTE   N11  Cn1
 BYTE   N23  Ds2
 BYTE   W12
 BYTE   N11  Cn1
 BYTE   N11  Fs1
 BYTE   W12
 BYTE   N05  Dn1
 BYTE   N05  Fs1
 BYTE   N23  Ds2
 BYTE   W06
 BYTE   N05  Dn1
 BYTE   W06
 BYTE   Dn1
 BYTE   W06
 BYTE   Dn1
 BYTE   W06
//  #01 //028   ----------------------------------------
 BYTE   N23  Cn1
 BYTE   TIE  An2
 BYTE   W24
 BYTE   N23  Cn1  v041
 BYTE   W24
 BYTE   Cn1
 BYTE   W24
 BYTE   Cn1
 BYTE   W24
//  #01 //029   ----------------------------------------
 BYTE   Cn1
 BYTE   W24
 BYTE   Cn1
 BYTE   W23
 BYTE   EOT
 BYTE   An2
 BYTE   W01
 BYTE   N23  Cn1
 BYTE   W24
 BYTE   Cn1
 BYTE   W24
//  #01 //030   ----------------------------------------
 BYTE   Cn1
 BYTE   W24
 BYTE   Cn1
 BYTE   W24
 BYTE   Cn1
 BYTE   W24
 BYTE   Cn1
 BYTE   W24
//  #01 //031   ----------------------------------------
 BYTE   Cn1
 BYTE   W24
 BYTE   N11
 BYTE   W12
 BYTE   N05
 BYTE   W06
 BYTE   Cn1
 BYTE   W06
 BYTE   N11
 BYTE   W12
 BYTE   N05
 BYTE   W06
 BYTE   Cn1
 BYTE   W06
 BYTE   N11
 BYTE   W12
 BYTE   Cn1
 BYTE   W12
//  #01 //032   ----------------------------------------
 BYTE   N05  Dn1
 BYTE   N23  Cn1
 BYTE   W06
 BYTE   N05  En1
 BYTE   W06
 BYTE   Dn1
 BYTE   W06
 BYTE   Dn1
 BYTE   W06
 BYTE   Dn1
 BYTE   N23  Cn1
 BYTE   W06
 BYTE   N05  En1
 BYTE   W06
 BYTE   En1
 BYTE   W06
 BYTE   En1
 BYTE   W06
 BYTE   Dn1
 BYTE   N23  Cn1
 BYTE   W06
 BYTE   N05  Dn1
 BYTE   W06
 BYTE   Dn1
 BYTE   W06
 BYTE   Dn1
 BYTE   W06
 BYTE   En1
 BYTE   N23  Cn1
 BYTE   W06
 BYTE   N05  En1
 BYTE   W06
 BYTE   Dn1
 BYTE   W06
 BYTE   En1
 BYTE   W06
//  #01 //033   ----------------------------------------
 BYTE   Dn1
 BYTE   N23  Cn1
 BYTE   W06
 BYTE   N05  En1
 BYTE   W06
 BYTE   Dn1
 BYTE   W06
 BYTE   Dn1
 BYTE   W06
 BYTE   Dn1
 BYTE   N11  Cn1
 BYTE   W06
 BYTE   N05  En1
 BYTE   W06
 BYTE   En1
 BYTE   N05  Cn1
 BYTE   W06
 BYTE   En1
 BYTE   N05  Cn1
 BYTE   W06
 BYTE   Dn1
 BYTE   N11  Cn1
 BYTE   W06
 BYTE   N05  En1
 BYTE   W06
 BYTE   Cn1
 BYTE   N05  Dn1
 BYTE   W06
 BYTE   Cn1
 BYTE   N05  Dn1
 BYTE   W06
 BYTE   En1
 BYTE   N11  Cn1
 BYTE   W06
 BYTE   N05  En1
 BYTE   W06
 BYTE   N11  Cn1
 BYTE   N05  Dn1
 BYTE   W06
 BYTE   Dn1
 BYTE   W06
//  #01 //034   ----------------------------------------
 BYTE   Dn1
 BYTE   N23  Cn1
 BYTE   W06
 BYTE   N05  En1
 BYTE   W06
 BYTE   Dn1
 BYTE   W06
 BYTE   Dn1
 BYTE   W06
 BYTE   Dn1
 BYTE   N23  Cn1
 BYTE   W06
 BYTE   N05  En1
 BYTE   W06
 BYTE   En1
 BYTE   W06
 BYTE   En1
 BYTE   W06
 BYTE   Dn1
 BYTE   N23  Cn1
 BYTE   W06
 BYTE   N05  Dn1
 BYTE   W06
 BYTE   Dn1
 BYTE   W06
 BYTE   Dn1
 BYTE   W06
 BYTE   N23  Cn1
 BYTE   N05  En1
 BYTE   W06
 BYTE   En1
 BYTE   W06
 BYTE   Dn1
 BYTE   W06
 BYTE   En1
 BYTE   W06
//  #01 //035   ----------------------------------------
 BYTE   N23  Cn1
 BYTE   N05  Dn1
 BYTE   W06
 BYTE   En1
 BYTE   W06
 BYTE   Dn1
 BYTE   W06
 BYTE   Dn1
 BYTE   W06
 BYTE   N11  Cn1
 BYTE   N05  Dn1
 BYTE   W06
 BYTE   En1
 BYTE   W06
 BYTE   Cn1
 BYTE   N05  En1
 BYTE   W06
 BYTE   Cn1
 BYTE   N05  En1
 BYTE   W06
 BYTE   N11  Cn1
 BYTE   N05  Dn1
 BYTE   W06
 BYTE   En1
 BYTE   W06
 BYTE   Dn1
 BYTE   N05  Cn1
 BYTE   W06
 BYTE   Dn1
 BYTE   N05  Cn1
 BYTE   W06
 BYTE   En1
 BYTE   N11  Cn1
 BYTE   W06
 BYTE   N05  En1
 BYTE   W06
 BYTE   N11  Cn1
 BYTE   N05  Dn1
 BYTE   W06
 BYTE   Dn1
 BYTE   W06
//  #01 //036   ----------------------------------------
 BYTE   N23  Cn1
 BYTE   N05  Dn1
 BYTE   W06
 BYTE   En1
 BYTE   W06
 BYTE   Dn1
 BYTE   W06
 BYTE   Dn1
 BYTE   W06
 BYTE   N23  Cn1
 BYTE   N05  Dn1
 BYTE   W06
 BYTE   En1
 BYTE   W06
 BYTE   En1
 BYTE   W06
 BYTE   En1
 BYTE   W06
 BYTE   N23  Cn1
 BYTE   N05  Dn1
 BYTE   W06
 BYTE   Dn1
 BYTE   W06
 BYTE   Dn1
 BYTE   W06
 BYTE   Dn1
 BYTE   W06
 BYTE   N23  Cn1
 BYTE   N05  En1
 BYTE   W06
 BYTE   En1
 BYTE   W06
 BYTE   Dn1
 BYTE   W06
 BYTE   En1
 BYTE   W06
//  #01 //037   ----------------------------------------
 BYTE   N23  Cn1
 BYTE   N05  Dn1
 BYTE   W06
 BYTE   En1
 BYTE   W06
 BYTE   Dn1
 BYTE   W06
 BYTE   Dn1
 BYTE   W06
 BYTE   Dn1
 BYTE   N11  Cn1
 BYTE   W06
 BYTE   N05  En1
 BYTE   W06
 BYTE   Cn1
 BYTE   N05  En1
 BYTE   W06
 BYTE   Cn1
 BYTE   N05  En1
 BYTE   W06
 BYTE   Dn1
 BYTE   N11  Cn1
 BYTE   W06
 BYTE   N05  En1
 BYTE   W06
 BYTE   Cn1
 BYTE   N05  Dn1
 BYTE   W06
 BYTE   Cn1
 BYTE   N05  Dn1
 BYTE   W06
 BYTE   En1
 BYTE   N11  Cn1
 BYTE   W06
 BYTE   N05  En1
 BYTE   W06
 BYTE   N11  Cn1
 BYTE   N05  Dn1
 BYTE   W06
 BYTE   Dn1
 BYTE   W06
//  #01 //038   ----------------------------------------
 BYTE   Dn1
 BYTE   N23  Cn1
 BYTE   W06
 BYTE   N05  En1
 BYTE   W06
 BYTE   Dn1
 BYTE   W06
 BYTE   Dn1
 BYTE   W06
 BYTE   N23  Cn1
 BYTE   N05  Dn1
 BYTE   W06
 BYTE   En1
 BYTE   W06
 BYTE   En1
 BYTE   W06
 BYTE   En1
 BYTE   W06
 BYTE   N23  Cn1
 BYTE   N05  Dn1
 BYTE   W06
 BYTE   Dn1
 BYTE   W06
 BYTE   Dn1
 BYTE   W06
 BYTE   Dn1
 BYTE   W06
 BYTE   N23  Cn1
 BYTE   N05  En1
 BYTE   W06
 BYTE   En1
 BYTE   W06
 BYTE   Dn1
 BYTE   W06
 BYTE   En1
 BYTE   W06
//  #01 //039   ----------------------------------------
 BYTE   N23  Cn1
 BYTE   N05  Dn1
 BYTE   W06
 BYTE   En1
 BYTE   W06
 BYTE   Dn1
 BYTE   W06
 BYTE   Dn1
 BYTE   W06
 BYTE   Dn1
 BYTE   N11  Cn1
 BYTE   W06
 BYTE   N05  En1
 BYTE   W06
 BYTE   En1
 BYTE   N05  Cn1
 BYTE   W06
 BYTE   En1
 BYTE   N05  Cn1
 BYTE   W06
 BYTE   N11
 BYTE   N05  Dn1
 BYTE   W06
 BYTE   En1
 BYTE   W06
 BYTE   Cn1
 BYTE   N05  Dn1
 BYTE   W06
 BYTE   Cn1
 BYTE   N05  Dn1
 BYTE   W06
 BYTE   N11  Cn1
 BYTE   N05  En1
 BYTE   W06
 BYTE   En1
 BYTE   W06
 BYTE   Dn1
 BYTE   N11  Cn1
 BYTE   W06
 BYTE   N05  Dn1
 BYTE   W06
//  #01 //040   ----------------------------------------
 BYTE   Dn1
 BYTE   N23  Cn1
 BYTE   W06
 BYTE   N05  En1
 BYTE   W06
 BYTE   Dn1  v042
 BYTE   W06
 BYTE   Dn1  v043
 BYTE   W06
 BYTE   N23  Cn1  v044
 BYTE   N05  Dn1
 BYTE   W06
 BYTE   En1
 BYTE   W06
 BYTE   En1  v045
 BYTE   W06
 BYTE   En1  v046
 BYTE   W06
 BYTE   Dn1  v047
 BYTE   N23  Cn1
 BYTE   W06
 BYTE   N05  Dn1
 BYTE   W06
 BYTE   Dn1  v048
 BYTE   W06
 BYTE   Dn1  v049
 BYTE   W06
 BYTE   En1  v050
 BYTE   N23  Cn1
 BYTE   W06
 BYTE   N05  En1
 BYTE   W06
 BYTE   Dn1  v052
 BYTE   W06
 BYTE   En1  v053
 BYTE   W06
//  #01 //041   ----------------------------------------
 BYTE   Dn1  v054
 BYTE   N23  Cn1
 BYTE   W06
 BYTE   N05  En1
 BYTE   W06
 BYTE   Dn1  v055
 BYTE   W06
 BYTE   Dn1  v056
 BYTE   W06
 BYTE   N23  Cn1  v058
 BYTE   N05  Dn1
 BYTE   W06
 BYTE   En1
 BYTE   W06
 BYTE   En1  v059
 BYTE   W06
 BYTE   En1  v060
 BYTE   W06
 BYTE   N23  Cn1  v061
 BYTE   N05  Dn1
 BYTE   W06
 BYTE   En1
 BYTE   W06
 BYTE   Dn1  v063
 BYTE   W06
 BYTE   Dn1  v064
 BYTE   W06
 BYTE   N23  Cn1  v065
 BYTE   N05  En1
 BYTE   W06
 BYTE   En1
 BYTE   W06
 BYTE   Dn1  v066
 BYTE   W06
 BYTE   Dn1  v068
 BYTE   W06
//  #01 //042   ----------------------------------------
 BYTE   N23  Cn1  v069
 BYTE   N05  Dn1
 BYTE   W06
 BYTE   En1
 BYTE   W06
 BYTE   Dn1  v070
 BYTE   W06
 BYTE   Dn1  v072
 BYTE   W06
 BYTE   Dn1  v073
 BYTE   N23  Cn1
 BYTE   W06
 BYTE   N05  En1
 BYTE   W06
 BYTE   En1  v074
 BYTE   W06
 BYTE   En1  v076
 BYTE   W06
 BYTE   Dn1  v077
 BYTE   N23  Cn1
 BYTE   W06
 BYTE   N05  Dn1
 BYTE   W06
 BYTE   Dn1  v078
 BYTE   W06
 BYTE   Dn1  v080
 BYTE   W06
 BYTE   N23  Cn1  v081
 BYTE   N05  En1
 BYTE   W06
 BYTE   En1
 BYTE   W06
 BYTE   Dn1  v082
 BYTE   W06
 BYTE   En1  v084
 BYTE   W06
//  #01 //043   ----------------------------------------
 BYTE   N23  Cn1  v085
 BYTE   N17  Cs2
 BYTE   N05  Dn1
 BYTE   W06
 BYTE   En1
 BYTE   W06
 BYTE   En1  v087
 BYTE   W06
 BYTE   En1  v088
 BYTE   W06
 BYTE   N23  Cn1  v090
 BYTE   N17  Cs2
 BYTE   N05  Dn1
 BYTE   W06
 BYTE   En1
 BYTE   W06
 BYTE   En1  v091
 BYTE   W06
 BYTE   En1  v092
 BYTE   W06
 BYTE   Dn1  v094
 BYTE   N17  Cs2
 BYTE   N11  Cn1
 BYTE   W06
 BYTE   N05  En1
 BYTE   W06
 BYTE   En1  v095
 BYTE   N11  Cn1
 BYTE   W06
 BYTE   N05  En1  v097
 BYTE   W06
 BYTE   N11  Cn1  v098
 BYTE   N17  Cs2
 BYTE   N05  Dn1
 BYTE   W06
 BYTE   En1
 BYTE   W06
 BYTE   N11  Cn1  v100
 BYTE   N05  En1
 BYTE   W06
 BYTE   En1  v101
 BYTE   W06
//  #01 //044   ----------------------------------------
 BYTE   N23  Ds2  v103
 BYTE   N23  Cn1
 BYTE   N56  An2  v103  gtp3
 BYTE   N23  Cs2
 BYTE   W12
 BYTE   N11  Fs1
 BYTE   W12
 BYTE   N23  Ds2
 BYTE   N11  Fs1
 BYTE   N11  Dn1
 BYTE   W12
 BYTE   N05  Fs1
 BYTE   W06
 BYTE   Fs1
 BYTE   W06
 BYTE   N23  Ds2
 BYTE   N11  Cn1
 BYTE   N11  Fs1
 BYTE   W12
 BYTE   Fs1
 BYTE   N11  Cn1
 BYTE   W12
 BYTE   N23  Ds2
 BYTE   N11  Dn1
 BYTE   N11  Fs1
 BYTE   W12
 BYTE   Fs1
 BYTE   W12
//  #01 //045   ----------------------------------------
 BYTE   N23  Ds2
 BYTE   N23  Cn1
 BYTE   N11  Fs1
 BYTE   W12
 BYTE   Fs1
 BYTE   W12
 BYTE   N23  Ds2
 BYTE   N11  Dn1
 BYTE   N11  Fs1
 BYTE   W12
 BYTE   N05
 BYTE   W06
 BYTE   Fs1
 BYTE   W06
 BYTE   N23  Ds2
 BYTE   N11  Fs1
 BYTE   N11  Cn1
 BYTE   W12
 BYTE   Cn1
 BYTE   N11  Fs1
 BYTE   W12
 BYTE   N23  Ds2
 BYTE   N11  Fs1
 BYTE   N11  Dn1
 BYTE   W12
 BYTE   Fs1
 BYTE   W12
//  #01 //046   ----------------------------------------
 BYTE   N23  Ds2
 BYTE   N11  Fs1
 BYTE   N23  Cn1
 BYTE   W12
 BYTE   N11  Fs1
 BYTE   W12
 BYTE   N23  Ds2
 BYTE   N11  Fs1
 BYTE   N11  Dn1
 BYTE   W12
 BYTE   N05  Fs1
 BYTE   W06
 BYTE   Fs1
 BYTE   W06
 BYTE   N23  Ds2
 BYTE   N11  Cn1
 BYTE   N11  Fs1
 BYTE   W12
 BYTE   Fs1
 BYTE   N11  Cn1
 BYTE   W12
 BYTE   N23  Ds2
 BYTE   N11  Fs1
 BYTE   N11  Dn1
 BYTE   W12
 BYTE   Fs1
 BYTE   W12
//  #01 //047   ----------------------------------------
 BYTE   N23  Ds2
 BYTE   N11  Fs1
 BYTE   N23  Cn1
 BYTE   W12
 BYTE   N11  Fs1
 BYTE   W12
 BYTE   N23  Ds2
 BYTE   N11  Fs1
 BYTE   N11  Dn1
 BYTE   W12
 BYTE   N05  Fs1
 BYTE   W06
 BYTE   Fs1
 BYTE   W06
 BYTE   N23  Ds2
 BYTE   N11  Fs1
 BYTE   N11  Cn1
 BYTE   W12
 BYTE   Fs1
 BYTE   N11  Cn1
 BYTE   W12
 BYTE   N23  Ds2
 BYTE   N11  Dn1
 BYTE   N11  Fs1
 BYTE   W12
 BYTE   Fs1
 BYTE   W12
//  #01 //048   ----------------------------------------
 BYTE   N23  Ds2
 BYTE   N23  Cn1
 BYTE   N56  An2  v103  gtp3
 BYTE   N11  Fs1
 BYTE   W12
 BYTE   Fs1
 BYTE   W12
 BYTE   N23  Ds2
 BYTE   N11  Fs1
 BYTE   N11  Dn1
 BYTE   W12
 BYTE   N05  Fs1
 BYTE   W06
 BYTE   Fs1
 BYTE   W06
 BYTE   N23  Ds2
 BYTE   N11  Cn1
 BYTE   N11  Fs1
 BYTE   W12
 BYTE   Fs1
 BYTE   N11  Cn1
 BYTE   W12
 BYTE   N23  Ds2
 BYTE   N11  Dn1
 BYTE   N11  Fs1
 BYTE   W12
 BYTE   Fs1
 BYTE   W12
//  #01 //049   ----------------------------------------
 BYTE   Fs1
 BYTE   N23  Cn1
 BYTE   N23  Ds2
 BYTE   W12
 BYTE   N11  Fs1
 BYTE   W12
 BYTE   N23  Ds2
 BYTE   N11  Fs1
 BYTE   N11  Dn1
 BYTE   W12
 BYTE   N05  Fs1
 BYTE   W06
 BYTE   Fs1
 BYTE   W06
 BYTE   N11
 BYTE   N11  Cn1
 BYTE   N23  Ds2
 BYTE   W12
 BYTE   N11  Cn1
 BYTE   N11  Fs1
 BYTE   W12
 BYTE   N23  Ds2
 BYTE   N11  Fs1
 BYTE   N11  Dn1
 BYTE   W12
 BYTE   Fs1
 BYTE   W12
//  #01 //050   ----------------------------------------
 BYTE   N23  Cn1
 BYTE   N11  Fs1
 BYTE   N23  Ds2
 BYTE   W12
 BYTE   N11  Fs1
 BYTE   W12
 BYTE   N23  Ds2
 BYTE   N11  Dn1
 BYTE   N11  Fs1
 BYTE   W12
 BYTE   N05
 BYTE   W06
 BYTE   Fs1
 BYTE   W06
 BYTE   N11  Cn1
 BYTE   N11  Fs1
 BYTE   N23  Ds2
 BYTE   W12
 BYTE   N11  Fs1
 BYTE   N11  Cn1
 BYTE   W12
 BYTE   N23  Ds2
 BYTE   N11  Fs1
 BYTE   N11  Dn1
 BYTE   W12
 BYTE   Fs1
 BYTE   W12
//  #01 //051   ----------------------------------------
 BYTE   Fs1
 BYTE   N23  Cn1
 BYTE   N23  Ds2
 BYTE   W12
 BYTE   N11  Fs1
 BYTE   W12
 BYTE   N23  Ds2
 BYTE   N11  Fs1
 BYTE   N11  Dn1
 BYTE   W12
 BYTE   N05  Fs1
 BYTE   W06
 BYTE   Fs1
 BYTE   W06
 BYTE   N11
 BYTE   N11  Cn1
 BYTE   N23  Ds2
 BYTE   W12
 BYTE   N11  Cn1
 BYTE   N11  Fs1
 BYTE   W12
 BYTE   N23  Ds2
 BYTE   N05  Dn1
 BYTE   W06
 BYTE   Dn1
 BYTE   W06
 BYTE   Dn1
 BYTE   W06
 BYTE   Dn1
 BYTE   W06
//  #01 //052   ----------------------------------------
 BYTE   GoTo
  POIN2 Label_010263CD
 BYTE   FINE

//**************** Track 2 (Midi-Chn.1) ****************//

PokemonSunandMoonEliteFourTak_002:
//  #02 //000   ----------------------------------------
 BYTE   KEYSH   PokemonSunandMoonEliteFourTak_key+0
 BYTE   VOICE   30
 BYTE   VOL   72*PokemonSunandMoonEliteFourTak_mvl/mxv
 BYTE   PAN   c_v+26
 BYTE   BENDR  12
 BYTE   W96
//  #02 //001   ----------------------------------------
 BYTE   W96
//  #02 //002   ----------------------------------------
 BYTE   W96
//  #02 //003   ----------------------------------------
 BYTE   W96
//  #02 //004   ----------------------------------------
 BYTE   W96
//  #02 //005   ----------------------------------------
 BYTE   W96
//  #02 //006   ----------------------------------------
 BYTE   W96
//  #02 //007   ----------------------------------------
 BYTE   W96
//  #02 //008   ----------------------------------------
 BYTE   W96
//  #02 //009   ----------------------------------------
 BYTE   W96
//  #02 //010   ----------------------------------------
 BYTE   W96
//  #02 //011   ----------------------------------------
 BYTE   W96
//  #02 //012   ----------------------------------------
Label_0100303A:
 BYTE   N11  En2  v103
 BYTE   N11  Bn1
 BYTE   W12
 BYTE   En2
 BYTE   N11  Bn1
 BYTE   W12
 BYTE   En2
 BYTE   N11  Bn1
 BYTE   W12
 BYTE   En2
 BYTE   N11  Bn1
 BYTE   W24
 BYTE   N23  En2
 BYTE   N23  Bn1
 BYTE   W24
 BYTE   N11  En2
 BYTE   N11  Bn1
 BYTE   W12
//  #02 //013   ----------------------------------------
 BYTE   Fn2
 BYTE   N11  Bn1
 BYTE   W12
 BYTE   Fn2
 BYTE   N11  Bn1
 BYTE   W12
 BYTE   Fn2
 BYTE   N11  Bn1
 BYTE   W12
 BYTE   Fn2
 BYTE   N11  Bn1
 BYTE   W24
 BYTE   N23  Fn2
 BYTE   N23  Bn1
 BYTE   W24
 BYTE   N11  Fn2
 BYTE   N11  Bn1
 BYTE   W12
//  #02 //014   ----------------------------------------
 BYTE   Gn2
 BYTE   N11  Bn1
 BYTE   W12
 BYTE   Gn2
 BYTE   N11  Bn1
 BYTE   W12
 BYTE   Gn2
 BYTE   N11  Bn1
 BYTE   W12
 BYTE   Gn2
 BYTE   N11  Bn1
 BYTE   W24
 BYTE   N23  Gn2
 BYTE   N23  Bn1
 BYTE   W24
 BYTE   N11  Gn2
 BYTE   N11  Bn1
 BYTE   W12
//  #02 //015   ----------------------------------------
 BYTE   Fn2
 BYTE   N11  Bn1
 BYTE   W96
//  #02 //016   ----------------------------------------
 BYTE   Bn1
 BYTE   N11  En2
 BYTE   W12
 BYTE   Bn1
 BYTE   N11  En2
 BYTE   W12
 BYTE   En2
 BYTE   N11  Bn1
 BYTE   W12
 BYTE   Bn1
 BYTE   N11  En2
 BYTE   W24
 BYTE   N23  Bn1
 BYTE   N23  En2
 BYTE   W24
 BYTE   N11  Bn1
 BYTE   N11  En2
 BYTE   W12
//  #02 //017   ----------------------------------------
 BYTE   Bn1
 BYTE   N11  Fn2
 BYTE   W12
 BYTE   Bn1
 BYTE   N11  Fn2
 BYTE   W12
 BYTE   Fn2
 BYTE   N11  Bn1
 BYTE   W12
 BYTE   Bn1
 BYTE   N11  Fn2
 BYTE   W24
 BYTE   N23  Bn1
 BYTE   N23  Fn2
 BYTE   W24
 BYTE   N11
 BYTE   N11  Bn1
 BYTE   W12
//  #02 //018   ----------------------------------------
 BYTE   Bn1
 BYTE   N11  Gn2
 BYTE   W12
 BYTE   Gn2
 BYTE   N11  Bn1
 BYTE   W12
 BYTE   Gn2
 BYTE   N11  Bn1
 BYTE   W12
 BYTE   Bn1
 BYTE   N11  Gn2
 BYTE   W24
 BYTE   N23  Bn1
 BYTE   N23  Gn2
 BYTE   W24
 BYTE   N11  Bn1
 BYTE   N11  Gn2
 BYTE   W12
//  #02 //019   ----------------------------------------
 BYTE   Bn1
 BYTE   N11  Fn2
 BYTE   W96
//  #02 //020   ----------------------------------------
Label_010030DF:
 BYTE   N32  En1  v103  gtp3
 BYTE   W36
 BYTE   Fn1
 BYTE   W36
 BYTE   N23  En1
 BYTE   W24
 BYTE   PEND 
//  #02 //021   ----------------------------------------
Label_010030EA:
 BYTE   N32  Gn1  v103  gtp3
 BYTE   W36
 BYTE   Gs1
 BYTE   W36
 BYTE   N23  Gn1
 BYTE   W24
 BYTE   PEND 
//  #02 //022   ----------------------------------------
Label_010030F5:
 BYTE   N23  As1  v103
 BYTE   W24
 BYTE   Gs1
 BYTE   W24
 BYTE   Gn1
 BYTE   W24
 BYTE   Fn1
 BYTE   W24
 BYTE   PEND 
//  #02 //023   ----------------------------------------
 BYTE   N32  En1  v103  gtp3
 BYTE   W36
 BYTE   Fn1
 BYTE   W36
 BYTE   N23  Gn1
 BYTE   W24
//  #02 //024   ----------------------------------------
 BYTE   PATT
  POIN2 Label_010030DF
//  #02 //025   ----------------------------------------
 BYTE   PATT
  POIN2 Label_010030EA
//  #02 //026   ----------------------------------------
 BYTE   PATT
  POIN2 Label_010030F5
//  #02 //027   ----------------------------------------
 BYTE   N32  Gn1  v103  gtp3
 BYTE   W36
 BYTE   Gs1
 BYTE   W36
 BYTE   N23  Ds2
 BYTE   W24
//  #02 //028   ----------------------------------------
 BYTE   N92  En2  v103  gtp3
 BYTE   W96
//  #02 //029   ----------------------------------------
 BYTE   W96
//  #02 //030   ----------------------------------------
 BYTE   W96
//  #02 //031   ----------------------------------------
 BYTE   W96
//  #02 //032   ----------------------------------------
 BYTE   W96
//  #02 //033   ----------------------------------------
 BYTE   W96
//  #02 //034   ----------------------------------------
 BYTE   W96
//  #02 //035   ----------------------------------------
 BYTE   W96
//  #02 //036   ----------------------------------------
 BYTE   W96
//  #02 //037   ----------------------------------------
 BYTE   W96
//  #02 //038   ----------------------------------------
 BYTE   W96
//  #02 //039   ----------------------------------------
 BYTE   W96
//  #02 //040   ----------------------------------------
 BYTE   W96
//  #02 //041   ----------------------------------------
 BYTE   W96
//  #02 //042   ----------------------------------------
 BYTE   W96
//  #02 //043   ----------------------------------------
 BYTE   W96
//  #02 //044   ----------------------------------------
 BYTE   N11
 BYTE   W12
 BYTE   N23  Ds2
 BYTE   W24
 BYTE   N11  As2
 BYTE   W12
 BYTE   N32  An2  v103  gtp3
 BYTE   W36
 BYTE   N11  Gs2
 BYTE   W12
//  #02 //045   ----------------------------------------
Label_01003147:
 BYTE   N11  Gn2  v103
 BYTE   W12
 BYTE   N23  Fs2
 BYTE   W24
 BYTE   N11  Dn2
 BYTE   W12
 BYTE   N23  Cs2
 BYTE   W24
 BYTE   Fn2
 BYTE   W24
 BYTE   PEND 
//  #02 //046   ----------------------------------------
 BYTE   N11  En2
 BYTE   W12
 BYTE   N23  Ds2
 BYTE   W24
 BYTE   N11  As2
 BYTE   W12
 BYTE   N23  An2
 BYTE   W24
 BYTE   N11  Gs2
 BYTE   W12
 BYTE   Gn2
 BYTE   W12
//  #02 //047   ----------------------------------------
 BYTE   PATT
  POIN2 Label_01003147
//  #02 //048   ----------------------------------------
 BYTE   N11  En3  v103
 BYTE   W12
 BYTE   N23  Ds3
 BYTE   W24
 BYTE   N11  As3
 BYTE   W12
 BYTE   N32  An3  v103  gtp3
 BYTE   W36
 BYTE   N11  Gs3
 BYTE   W12
//  #02 //049   ----------------------------------------
 BYTE   Gn3
 BYTE   W12
 BYTE   N23  Fs3
 BYTE   W24
 BYTE   N11  Dn3
 BYTE   W12
 BYTE   N23  Cs3
 BYTE   W24
 BYTE   Fn3
 BYTE   W24
//  #02 //050   ----------------------------------------
 BYTE   N11  En3
 BYTE   W12
 BYTE   N23  Ds3
 BYTE   W24
 BYTE   N11  As3
 BYTE   W12
 BYTE   N23  An3
 BYTE   W24
 BYTE   N11  Gs3
 BYTE   W12
 BYTE   Gn3
 BYTE   W12
//  #02 //051   ----------------------------------------
 BYTE   Gn3
 BYTE   W12
 BYTE   N23  Fs3
 BYTE   W24
 BYTE   N11  Dn3
 BYTE   W12
 BYTE   N23  Cs3
 BYTE   W24
 BYTE   Bn1
 BYTE   N23  Fn3
 BYTE   W24
//  #02 //052   ----------------------------------------
 BYTE   GoTo
  POIN2 Label_0100303A
 BYTE   FINE

//**************** Track 3 (Midi-Chn.2) ****************//

PokemonSunandMoonEliteFourTak_003:
//  #03 //000   ----------------------------------------
 BYTE   KEYSH   PokemonSunandMoonEliteFourTak_key+0
 BYTE   VOICE   28
 BYTE   VOL   91*PokemonSunandMoonEliteFourTak_mvl/mxv
 BYTE   PAN   c_v-26
 BYTE   BENDR  12
 BYTE   W96
//  #03 //001   ----------------------------------------
 BYTE   W96
//  #03 //002   ----------------------------------------
 BYTE   W96
//  #03 //003   ----------------------------------------
 BYTE   W96
//  #03 //004   ----------------------------------------
 BYTE   W96
//  #03 //005   ----------------------------------------
 BYTE   W96
//  #03 //006   ----------------------------------------
 BYTE   W96
//  #03 //007   ----------------------------------------
 BYTE   W96
//  #03 //008   ----------------------------------------
 BYTE   W96
//  #03 //009   ----------------------------------------
 BYTE   W96
//  #03 //010   ----------------------------------------
 BYTE   W96
//  #03 //011   ----------------------------------------
 BYTE   W96
//  #03 //012   ----------------------------------------
Label_010005E6:
 BYTE   W96
//  #03 //013   ----------------------------------------
 BYTE   W96
//  #03 //014   ----------------------------------------
 BYTE   W96
//  #03 //015   ----------------------------------------
 BYTE   W96
//  #03 //016   ----------------------------------------
 BYTE   W96
//  #03 //017   ----------------------------------------
 BYTE   W96
//  #03 //018   ----------------------------------------
 BYTE   W96
//  #03 //019   ----------------------------------------
 BYTE   W96
//  #03 //020   ----------------------------------------
 BYTE   W96
//  #03 //021   ----------------------------------------
 BYTE   W96
//  #03 //022   ----------------------------------------
 BYTE   W96
//  #03 //023   ----------------------------------------
 BYTE   W96
//  #03 //024   ----------------------------------------
 BYTE   W96
//  #03 //025   ----------------------------------------
 BYTE   W96
//  #03 //026   ----------------------------------------
 BYTE   W96
//  #03 //027   ----------------------------------------
 BYTE   W96
//  #03 //028   ----------------------------------------
Label_010005F6:
 BYTE   N11  Bn1  v059
 BYTE   W12
 BYTE   N02
 BYTE   W06
 BYTE   Bn1
 BYTE   W06
 BYTE   N11
 BYTE   W12
 BYTE   Bn1
 BYTE   W12
 BYTE   N02
 BYTE   W06
 BYTE   Bn1
 BYTE   W06
 BYTE   N11
 BYTE   W12
 BYTE   N02
 BYTE   W06
 BYTE   Bn1
 BYTE   W06
 BYTE   N11
 BYTE   W12
 BYTE   PEND 
//  #03 //029   ----------------------------------------
 BYTE   PATT
  POIN2 Label_010005F6
//  #03 //030   ----------------------------------------
 BYTE   PATT
  POIN2 Label_010005F6
//  #03 //031   ----------------------------------------
 BYTE   PATT
  POIN2 Label_010005F6
//  #03 //032   ----------------------------------------
 BYTE   PATT
  POIN2 Label_010005F6
//  #03 //033   ----------------------------------------
 BYTE   PATT
  POIN2 Label_010005F6
//  #03 //034   ----------------------------------------
 BYTE   PATT
  POIN2 Label_010005F6
//  #03 //035   ----------------------------------------
 BYTE   PATT
  POIN2 Label_010005F6
//  #03 //036   ----------------------------------------
 BYTE   PATT
  POIN2 Label_010005F6
//  #03 //037   ----------------------------------------
 BYTE   PATT
  POIN2 Label_010005F6
//  #03 //038   ----------------------------------------
 BYTE   PATT
  POIN2 Label_010005F6
//  #03 //039   ----------------------------------------
 BYTE   PATT
  POIN2 Label_010005F6
//  #03 //040   ----------------------------------------
 BYTE   N11  Bn1  v059
 BYTE   W12
 BYTE   N02  Bn1  v060
 BYTE   W06
 BYTE   Bn1
 BYTE   W06
 BYTE   N11  Bn1  v061
 BYTE   W12
 BYTE   Bn1  v063
 BYTE   W12
 BYTE   N02  Bn1  v064
 BYTE   W06
 BYTE   Bn1
 BYTE   W06
 BYTE   N11  Bn1  v065
 BYTE   W12
 BYTE   N02  Bn1  v066
 BYTE   W06
 BYTE   Bn1
 BYTE   W06
 BYTE   N11  Bn1  v068
 BYTE   W12
//  #03 //041   ----------------------------------------
 BYTE   Bn1  v069
 BYTE   W12
 BYTE   N02  Bn1  v070
 BYTE   W06
 BYTE   Bn1
 BYTE   W06
 BYTE   N11  Bn1  v072
 BYTE   W12
 BYTE   Bn1  v073
 BYTE   W12
 BYTE   N02  Bn1  v074
 BYTE   W06
 BYTE   Bn1
 BYTE   W06
 BYTE   N11  Bn1  v076
 BYTE   W12
 BYTE   N02  Bn1  v077
 BYTE   W06
 BYTE   Bn1
 BYTE   W06
 BYTE   N11  Bn1  v078
 BYTE   W12
//  #03 //042   ----------------------------------------
 BYTE   Bn1  v080
 BYTE   W12
 BYTE   N02  Bn1  v081
 BYTE   W06
 BYTE   Bn1
 BYTE   W06
 BYTE   N11  Bn1  v082
 BYTE   W12
 BYTE   Bn1  v084
 BYTE   W12
 BYTE   N02  Bn1  v085
 BYTE   W06
 BYTE   Bn1
 BYTE   W06
 BYTE   N11  Bn1  v087
 BYTE   W12
 BYTE   N02  Bn1  v088
 BYTE   W06
 BYTE   Bn1
 BYTE   W06
 BYTE   N11  Bn1  v090
 BYTE   W12
//  #03 //043   ----------------------------------------
 BYTE   Bn1  v091
 BYTE   W12
 BYTE   N02  Bn1  v092
 BYTE   W06
 BYTE   Bn1
 BYTE   W06
 BYTE   N11  Bn1  v094
 BYTE   W12
 BYTE   Bn1  v095
 BYTE   W12
 BYTE   N02  Bn1  v097
 BYTE   W06
 BYTE   Bn1
 BYTE   W06
 BYTE   N11  Bn1  v098
 BYTE   W12
 BYTE   N02  Bn1  v100
 BYTE   W06
 BYTE   Bn1
 BYTE   W06
 BYTE   N11  Bn1  v101
 BYTE   W12
//  #03 //044   ----------------------------------------
Label_010006D7:
 BYTE   N11  Bn1  v103
 BYTE   W12
 BYTE   Bn1
 BYTE   W12
 BYTE   Bn1
 BYTE   W12
 BYTE   Bn1
 BYTE   W12
 BYTE   Bn1
 BYTE   W12
 BYTE   Bn1
 BYTE   W12
 BYTE   Bn1
 BYTE   W12
 BYTE   Bn1
 BYTE   W12
 BYTE   PEND 
//  #03 //045   ----------------------------------------
 BYTE   PATT
  POIN2 Label_010006D7
//  #03 //046   ----------------------------------------
 BYTE   PATT
  POIN2 Label_010006D7
//  #03 //047   ----------------------------------------
 BYTE   PATT
  POIN2 Label_010006D7
//  #03 //048   ----------------------------------------
Label_010006F9:
 BYTE   N11  Cs2  v103
 BYTE   W12
 BYTE   Cs2
 BYTE   W12
 BYTE   Cs2
 BYTE   W12
 BYTE   Cs2
 BYTE   W12
 BYTE   Cs2
 BYTE   W12
 BYTE   Cs2
 BYTE   W12
 BYTE   Cs2
 BYTE   W12
 BYTE   Cs2
 BYTE   W12
 BYTE   PEND 
//  #03 //049   ----------------------------------------
 BYTE   PATT
  POIN2 Label_010006F9
//  #03 //050   ----------------------------------------
 BYTE   PATT
  POIN2 Label_010006F9
//  #03 //051   ----------------------------------------
 BYTE   PATT
  POIN2 Label_010006F9
//  #03 //052   ----------------------------------------
 BYTE   GoTo
  POIN2 Label_010005E6
 BYTE   FINE

//**************** Track 4 (Midi-Chn.3) ****************//

PokemonSunandMoonEliteFourTak_004:
//  #04 //000   ----------------------------------------
 BYTE   KEYSH   PokemonSunandMoonEliteFourTak_key+0
 BYTE   VOICE   36
 BYTE   VOL   69*PokemonSunandMoonEliteFourTak_mvl/mxv
 BYTE   BENDR  12
 BYTE   N11  En1  v041
 BYTE   W12
 BYTE   En0
 BYTE   W12
 BYTE   En0
 BYTE   W12
 BYTE   En1
 BYTE   W12
 BYTE   En0
 BYTE   W12
 BYTE   En0
 BYTE   W12
 BYTE   En1
 BYTE   W12
 BYTE   En0
 BYTE   W12
//  #04 //001   ----------------------------------------
 BYTE   En0
 BYTE   W12
 BYTE   En1
 BYTE   W12
 BYTE   En0
 BYTE   W12
 BYTE   En0
 BYTE   W12
 BYTE   En1
 BYTE   W12
 BYTE   En0
 BYTE   W12
 BYTE   En0
 BYTE   W12
 BYTE   En1
 BYTE   W12
//  #04 //002   ----------------------------------------
 BYTE   En1
 BYTE   W12
 BYTE   En0
 BYTE   W12
 BYTE   En0
 BYTE   W12
 BYTE   En1
 BYTE   W12
 BYTE   En0
 BYTE   W12
 BYTE   En1
 BYTE   W12
 BYTE   En0
 BYTE   W12
 BYTE   En0
 BYTE   W12
//  #04 //003   ----------------------------------------
 BYTE   Fn1
 BYTE   W96
//  #04 //004   ----------------------------------------
 BYTE   En1  v059
 BYTE   W12
 BYTE   En0
 BYTE   W12
 BYTE   En0
 BYTE   W12
 BYTE   En1
 BYTE   W12
 BYTE   En0
 BYTE   W12
 BYTE   En0
 BYTE   W12
 BYTE   En1
 BYTE   W12
 BYTE   En0
 BYTE   W12
//  #04 //005   ----------------------------------------
 BYTE   En0
 BYTE   W12
 BYTE   En1
 BYTE   W12
 BYTE   En0
 BYTE   W12
 BYTE   En0
 BYTE   W12
 BYTE   En1
 BYTE   W12
 BYTE   En0
 BYTE   W12
 BYTE   En0
 BYTE   W12
 BYTE   En1
 BYTE   W12
//  #04 //006   ----------------------------------------
 BYTE   En1
 BYTE   W12
 BYTE   En0
 BYTE   W12
 BYTE   En0
 BYTE   W12
 BYTE   En1
 BYTE   W12
 BYTE   En0
 BYTE   W12
 BYTE   En1
 BYTE   W12
 BYTE   En0
 BYTE   W12
 BYTE   En0
 BYTE   W12
//  #04 //007   ----------------------------------------
 BYTE   Fn1
 BYTE   W96
//  #04 //008   ----------------------------------------
 BYTE   En1  v080
 BYTE   W12
 BYTE   En0
 BYTE   W12
 BYTE   En0
 BYTE   W12
 BYTE   En1
 BYTE   W12
 BYTE   En0
 BYTE   W12
 BYTE   En0
 BYTE   W12
 BYTE   En1
 BYTE   W12
 BYTE   En0
 BYTE   W12
//  #04 //009   ----------------------------------------
 BYTE   En0
 BYTE   W12
 BYTE   En1
 BYTE   W12
 BYTE   En0
 BYTE   W12
 BYTE   En0
 BYTE   W12
 BYTE   En1
 BYTE   W12
 BYTE   En0
 BYTE   W12
 BYTE   En0
 BYTE   W12
 BYTE   En1
 BYTE   W12
//  #04 //010   ----------------------------------------
 BYTE   En1
 BYTE   W12
 BYTE   En0
 BYTE   W12
 BYTE   En0
 BYTE   W12
 BYTE   En1
 BYTE   W12
 BYTE   En0
 BYTE   W12
 BYTE   En1
 BYTE   W12
 BYTE   En0
 BYTE   W12
 BYTE   En0
 BYTE   W12
//  #04 //011   ----------------------------------------
 BYTE   Fn1
 BYTE   W96
//  #04 //012   ----------------------------------------
Label_01025C32:
 BYTE   N11  En1  v103
 BYTE   W12
 BYTE   Bn1
 BYTE   W12
 BYTE   En1
 BYTE   W12
 BYTE   Bn1
 BYTE   W12
 BYTE   Bn1
 BYTE   W12
 BYTE   En1
 BYTE   W12
 BYTE   Bn1
 BYTE   W12
 BYTE   En1
 BYTE   W12
//  #04 //013   ----------------------------------------
Label_01025C44:
 BYTE   N11  Fn1  v103
 BYTE   W12
 BYTE   Cn2
 BYTE   W12
 BYTE   Fn1
 BYTE   W12
 BYTE   Cn2
 BYTE   W12
 BYTE   Cn2
 BYTE   W12
 BYTE   Fn1
 BYTE   W12
 BYTE   Cn2
 BYTE   W12
 BYTE   Fn1
 BYTE   W12
 BYTE   PEND 
//  #04 //014   ----------------------------------------
Label_01025C57:
 BYTE   N11  Gn1  v103
 BYTE   W12
 BYTE   Dn2
 BYTE   W12
 BYTE   Gn1
 BYTE   W12
 BYTE   Dn2
 BYTE   W12
 BYTE   Dn2
 BYTE   W12
 BYTE   Gn1
 BYTE   W12
 BYTE   Dn2
 BYTE   W12
 BYTE   Gn1
 BYTE   W12
 BYTE   PEND 
//  #04 //015   ----------------------------------------
Label_01025C6A:
 BYTE   N11  Fn1  v103
 BYTE   W36
 BYTE   Gn1
 BYTE   W12
 BYTE   Fn1
 BYTE   W12
 BYTE   En1
 BYTE   W12
 BYTE   Dn1
 BYTE   W12
 BYTE   Fn1
 BYTE   W12
 BYTE   PEND 
//  #04 //016   ----------------------------------------
 BYTE   En1
 BYTE   W12
 BYTE   Bn1
 BYTE   W12
 BYTE   En1
 BYTE   W12
 BYTE   Bn1
 BYTE   W12
 BYTE   Bn1
 BYTE   W12
 BYTE   En1
 BYTE   W12
 BYTE   Bn1
 BYTE   W12
 BYTE   En1
 BYTE   W12
//  #04 //017   ----------------------------------------
 BYTE   PATT
  POIN2 Label_01025C44
//  #04 //018   ----------------------------------------
 BYTE   PATT
  POIN2 Label_01025C57
//  #04 //019   ----------------------------------------
 BYTE   PATT
  POIN2 Label_01025C6A
//  #04 //020   ----------------------------------------
Label_01025C98:
 BYTE   N11  En1  v103
 BYTE   W12
 BYTE   Bn1
 BYTE   W12
 BYTE   En1
 BYTE   W12
 BYTE   Bn1
 BYTE   W12
 BYTE   En1
 BYTE   W12
 BYTE   Bn1
 BYTE   W12
 BYTE   En1
 BYTE   W12
 BYTE   Bn1
 BYTE   W12
 BYTE   PEND 
//  #04 //021   ----------------------------------------
 BYTE   PATT
  POIN2 Label_01025C98
//  #04 //022   ----------------------------------------
 BYTE   PATT
  POIN2 Label_01025C98
//  #04 //023   ----------------------------------------
 BYTE   N11  En1  v103
 BYTE   W12
 BYTE   Bn1
 BYTE   W12
 BYTE   En1
 BYTE   W12
 BYTE   Bn1
 BYTE   W12
 BYTE   Ds2
 BYTE   W12
 BYTE   An1
 BYTE   W12
 BYTE   As1
 BYTE   W12
 BYTE   Bn1
 BYTE   W12
//  #04 //024   ----------------------------------------
 BYTE   PATT
  POIN2 Label_01025C98
//  #04 //025   ----------------------------------------
 BYTE   PATT
  POIN2 Label_01025C98
//  #04 //026   ----------------------------------------
 BYTE   PATT
  POIN2 Label_01025C98
//  #04 //027   ----------------------------------------
 BYTE   PATT
  POIN2 Label_01025C98
//  #04 //028   ----------------------------------------
Label_01025CDB:
 BYTE   N11  En1  v059
 BYTE   W12
 BYTE   Bn1
 BYTE   W12
 BYTE   En1
 BYTE   W12
 BYTE   Bn1
 BYTE   W12
 BYTE   En1
 BYTE   W12
 BYTE   Bn1
 BYTE   W12
 BYTE   En1
 BYTE   W12
 BYTE   Bn1
 BYTE   W12
 BYTE   PEND 
//  #04 //029   ----------------------------------------
 BYTE   PATT
  POIN2 Label_01025CDB
//  #04 //030   ----------------------------------------
 BYTE   PATT
  POIN2 Label_01025CDB
//  #04 //031   ----------------------------------------
Label_01025CF8:
 BYTE   N11  En1  v059
 BYTE   W12
 BYTE   Bn1
 BYTE   W12
 BYTE   Cn2
 BYTE   W12
 BYTE   Bn1
 BYTE   W12
 BYTE   Dn2
 BYTE   W12
 BYTE   Cs2
 BYTE   W12
 BYTE   Cn2
 BYTE   W12
 BYTE   Bn1
 BYTE   W12
 BYTE   PEND 
//  #04 //032   ----------------------------------------
 BYTE   PATT
  POIN2 Label_01025CDB
//  #04 //033   ----------------------------------------
 BYTE   PATT
  POIN2 Label_01025CF8
//  #04 //034   ----------------------------------------
 BYTE   PATT
  POIN2 Label_01025CDB
//  #04 //035   ----------------------------------------
 BYTE   PATT
  POIN2 Label_01025CF8
//  #04 //036   ----------------------------------------
 BYTE   PATT
  POIN2 Label_01025CDB
//  #04 //037   ----------------------------------------
 BYTE   PATT
  POIN2 Label_01025CF8
//  #04 //038   ----------------------------------------
 BYTE   PATT
  POIN2 Label_01025CDB
//  #04 //039   ----------------------------------------
 BYTE   PATT
  POIN2 Label_01025CF8
//  #04 //040   ----------------------------------------
 BYTE   N11  En1  v059
 BYTE   W12
 BYTE   Bn1  v060
 BYTE   W12
 BYTE   En1  v061
 BYTE   W12
 BYTE   Bn1  v063
 BYTE   W12
 BYTE   En1  v064
 BYTE   W12
 BYTE   Bn1  v065
 BYTE   W12
 BYTE   En1  v066
 BYTE   W12
 BYTE   Bn1  v068
 BYTE   W12
//  #04 //041   ----------------------------------------
 BYTE   En1  v069
 BYTE   W12
 BYTE   Bn1  v070
 BYTE   W12
 BYTE   En1  v072
 BYTE   W12
 BYTE   Bn1  v073
 BYTE   W12
 BYTE   En1  v074
 BYTE   W12
 BYTE   Bn1  v076
 BYTE   W12
 BYTE   En1  v077
 BYTE   W12
 BYTE   Bn1  v078
 BYTE   W12
//  #04 //042   ----------------------------------------
 BYTE   En1  v080
 BYTE   W12
 BYTE   Bn1  v081
 BYTE   W12
 BYTE   En1  v082
 BYTE   W12
 BYTE   Bn1  v084
 BYTE   W12
 BYTE   En1  v085
 BYTE   W12
 BYTE   Bn1  v087
 BYTE   W12
 BYTE   En1  v088
 BYTE   W12
 BYTE   Bn1  v090
 BYTE   W12
//  #04 //043   ----------------------------------------
 BYTE   En1  v091
 BYTE   W12
 BYTE   Bn1  v092
 BYTE   W12
 BYTE   En1  v094
 BYTE   W12
 BYTE   Bn1  v095
 BYTE   W12
 BYTE   En1  v097
 BYTE   W12
 BYTE   Bn1  v098
 BYTE   W12
 BYTE   En1  v100
 BYTE   W12
 BYTE   Bn1  v101
 BYTE   W12
//  #04 //044   ----------------------------------------
 BYTE   PATT
  POIN2 Label_01025C98
//  #04 //045   ----------------------------------------
 BYTE   PATT
  POIN2 Label_01025C98
//  #04 //046   ----------------------------------------
 BYTE   PATT
  POIN2 Label_01025C98
//  #04 //047   ----------------------------------------
 BYTE   N11  En1  v103
 BYTE   W12
 BYTE   Bn1
 BYTE   W12
 BYTE   En1
 BYTE   W12
 BYTE   Bn1
 BYTE   W12
 BYTE   En2
 BYTE   W12
 BYTE   As1
 BYTE   W12
 BYTE   Bn1
 BYTE   W12
 BYTE   As1
 BYTE   W12
//  #04 //048   ----------------------------------------
Label_01025DB5:
 BYTE   N11  En1  v103
 BYTE   W12
 BYTE   An1
 BYTE   W12
 BYTE   En1
 BYTE   W12
 BYTE   An1
 BYTE   W12
 BYTE   En1
 BYTE   W12
 BYTE   An1
 BYTE   W12
 BYTE   En1
 BYTE   W12
 BYTE   An1
 BYTE   W12
 BYTE   PEND 
//  #04 //049   ----------------------------------------
 BYTE   PATT
  POIN2 Label_01025DB5
//  #04 //050   ----------------------------------------
 BYTE   PATT
  POIN2 Label_01025DB5
//  #04 //051   ----------------------------------------
 BYTE   N11  En1  v103
 BYTE   W12
 BYTE   An1
 BYTE   W12
 BYTE   En1
 BYTE   W12
 BYTE   An1
 BYTE   W12
 BYTE   En1
 BYTE   W12
 BYTE   An1
 BYTE   W12
 BYTE   As1
 BYTE   W12
 BYTE   An1
 BYTE   W12
//  #04 //052   ----------------------------------------
 BYTE   GoTo
  POIN2 Label_01025C32
 BYTE   FINE

//**************** Track 5 (Midi-Chn.4) ****************//

PokemonSunandMoonEliteFourTak_005:
//  #05 //000   ----------------------------------------
 BYTE   KEYSH   PokemonSunandMoonEliteFourTak_key+0
 BYTE   VOICE   41
 BYTE   VOL   69*PokemonSunandMoonEliteFourTak_mvl/mxv
 BYTE   PAN   c_v-20
 BYTE   BENDR  12
 BYTE   W96
//  #05 //001   ----------------------------------------
 BYTE   W96
//  #05 //002   ----------------------------------------
 BYTE   W96
//  #05 //003   ----------------------------------------
 BYTE   W96
//  #05 //004   ----------------------------------------
 BYTE   N05  En3  v059
 BYTE   W12
 BYTE   Bn2
 BYTE   W12
 BYTE   En3  v060
 BYTE   W12
 BYTE   As3
 BYTE   W12
 BYTE   Bn3  v061
 BYTE   W12
 BYTE   Gn3
 BYTE   W12
 BYTE   Cn3  v063
 BYTE   W12
 BYTE   Ds3
 BYTE   W12
//  #05 //005   ----------------------------------------
 BYTE   En3  v064
 BYTE   W12
 BYTE   Bn2
 BYTE   W12
 BYTE   En3  v065
 BYTE   W12
 BYTE   As3
 BYTE   W12
 BYTE   Bn3  v066
 BYTE   W12
 BYTE   Gn3
 BYTE   W12
 BYTE   Cn3  v068
 BYTE   W12
 BYTE   Ds3
 BYTE   W12
//  #05 //006   ----------------------------------------
 BYTE   En3  v069
 BYTE   W12
 BYTE   Bn2
 BYTE   W12
 BYTE   En3  v070
 BYTE   W12
 BYTE   As3
 BYTE   W12
 BYTE   Bn3  v072
 BYTE   W12
 BYTE   Gn3
 BYTE   W12
 BYTE   Cn3  v073
 BYTE   W12
 BYTE   Ds3
 BYTE   W12
//  #05 //007   ----------------------------------------
 BYTE   En3  v074
 BYTE   W12
 BYTE   Bn2
 BYTE   W12
 BYTE   En3  v076
 BYTE   W12
 BYTE   As3
 BYTE   W12
 BYTE   Bn3  v077
 BYTE   W12
 BYTE   Gn3
 BYTE   W12
 BYTE   Cn3  v078
 BYTE   W12
 BYTE   Ds3
 BYTE   W12
//  #05 //008   ----------------------------------------
 BYTE   En3  v080
 BYTE   W12
 BYTE   Bn2
 BYTE   W12
 BYTE   En3  v081
 BYTE   W12
 BYTE   As3
 BYTE   W12
 BYTE   Bn3  v082
 BYTE   W12
 BYTE   Gn3
 BYTE   W12
 BYTE   Cn3  v084
 BYTE   W12
 BYTE   Ds3
 BYTE   W12
//  #05 //009   ----------------------------------------
 BYTE   En3  v085
 BYTE   W12
 BYTE   Bn2
 BYTE   W12
 BYTE   En3  v087
 BYTE   W12
 BYTE   As3
 BYTE   W12
 BYTE   Bn3  v088
 BYTE   W12
 BYTE   Gn3
 BYTE   W12
 BYTE   Cn3  v090
 BYTE   W12
 BYTE   Ds3
 BYTE   W12
//  #05 //010   ----------------------------------------
 BYTE   En3  v091
 BYTE   W12
 BYTE   Bn2
 BYTE   W12
 BYTE   En3  v092
 BYTE   W12
 BYTE   As3
 BYTE   W12
 BYTE   Bn3  v094
 BYTE   W12
 BYTE   Gn3
 BYTE   W12
 BYTE   Cn3  v095
 BYTE   W12
 BYTE   Ds3
 BYTE   W12
//  #05 //011   ----------------------------------------
 BYTE   En3  v097
 BYTE   W12
 BYTE   Bn2
 BYTE   W12
 BYTE   En3  v098
 BYTE   W12
 BYTE   As3
 BYTE   W12
 BYTE   Bn3  v100
 BYTE   W12
 BYTE   Gn3
 BYTE   W12
 BYTE   Cn3  v101
 BYTE   W12
 BYTE   Ds3
 BYTE   W12
//  #05 //012   ----------------------------------------
Label_01025E9B:
 BYTE   N11  En4  v103
 BYTE   N11  Bn3
 BYTE   W12
 BYTE   En4
 BYTE   N11  Bn3
 BYTE   W12
 BYTE   En4
 BYTE   N11  Bn3
 BYTE   W12
 BYTE   En4
 BYTE   N11  Bn3
 BYTE   W24
 BYTE   N23  En4
 BYTE   N23  Bn3
 BYTE   W24
 BYTE   N11  En4
 BYTE   N11  Bn3
 BYTE   W12
//  #05 //013   ----------------------------------------
 BYTE   Fn4
 BYTE   N11  Bn3
 BYTE   W12
 BYTE   Fn4
 BYTE   N11  Bn3
 BYTE   W12
 BYTE   Fn4
 BYTE   N11  Bn3
 BYTE   W12
 BYTE   Fn4
 BYTE   N11  Bn3
 BYTE   W24
 BYTE   N23  Fn4
 BYTE   N23  Bn3
 BYTE   W24
 BYTE   N11  Fn4
 BYTE   N11  Bn3
 BYTE   W12
//  #05 //014   ----------------------------------------
 BYTE   Gn4
 BYTE   N11  Bn3
 BYTE   W12
 BYTE   Gn4
 BYTE   N11  Bn3
 BYTE   W12
 BYTE   Gn4
 BYTE   N11  Bn3
 BYTE   W12
 BYTE   Gn4
 BYTE   N11  Bn3
 BYTE   W24
 BYTE   N23  Gn4
 BYTE   N23  Bn3
 BYTE   W24
 BYTE   N11  Gn4
 BYTE   N11  Bn3
 BYTE   W12
//  #05 //015   ----------------------------------------
 BYTE   Fn4
 BYTE   N11  Bn3
 BYTE   W96
//  #05 //016   ----------------------------------------
 BYTE   Bn3
 BYTE   N11  En4
 BYTE   W12
 BYTE   Bn3
 BYTE   N11  En4
 BYTE   W12
 BYTE   En4
 BYTE   N11  Bn3
 BYTE   W12
 BYTE   Bn3
 BYTE   N11  En4
 BYTE   W24
 BYTE   N23  Bn3
 BYTE   N23  En4
 BYTE   W24
 BYTE   N11  Bn3
 BYTE   N11  En4
 BYTE   W12
//  #05 //017   ----------------------------------------
 BYTE   Bn3
 BYTE   N11  Fn4
 BYTE   W12
 BYTE   Bn3
 BYTE   N11  Fn4
 BYTE   W12
 BYTE   Fn4
 BYTE   N11  Bn3
 BYTE   W12
 BYTE   Bn3
 BYTE   N11  Fn4
 BYTE   W24
 BYTE   N23  Bn3
 BYTE   N23  Fn4
 BYTE   W24
 BYTE   N11
 BYTE   N11  Bn3
 BYTE   W12
//  #05 //018   ----------------------------------------
 BYTE   Bn3
 BYTE   N11  Gn4
 BYTE   W12
 BYTE   Gn4
 BYTE   N11  Bn3
 BYTE   W12
 BYTE   Gn4
 BYTE   N11  Bn3
 BYTE   W12
 BYTE   Bn3
 BYTE   N11  Gn4
 BYTE   W24
 BYTE   N23  Bn3
 BYTE   N23  Gn4
 BYTE   W24
 BYTE   N11  Bn3
 BYTE   N11  Gn4
 BYTE   W12
//  #05 //019   ----------------------------------------
 BYTE   Bn3
 BYTE   N11  Fn4
 BYTE   W96
//  #05 //020   ----------------------------------------
 BYTE   W96
//  #05 //021   ----------------------------------------
 BYTE   W96
//  #05 //022   ----------------------------------------
 BYTE   W96
//  #05 //023   ----------------------------------------
 BYTE   W96
//  #05 //024   ----------------------------------------
 BYTE   W96
//  #05 //025   ----------------------------------------
 BYTE   W96
//  #05 //026   ----------------------------------------
 BYTE   W96
//  #05 //027   ----------------------------------------
 BYTE   W96
//  #05 //028   ----------------------------------------
 BYTE   W96
//  #05 //029   ----------------------------------------
 BYTE   W96
//  #05 //030   ----------------------------------------
 BYTE   W96
//  #05 //031   ----------------------------------------
 BYTE   W96
//  #05 //032   ----------------------------------------
 BYTE   W96
//  #05 //033   ----------------------------------------
 BYTE   W96
//  #05 //034   ----------------------------------------
 BYTE   W96
//  #05 //035   ----------------------------------------
 BYTE   W96
//  #05 //036   ----------------------------------------
Label_01025F50:
 BYTE   N05  En3  v103
 BYTE   W12
 BYTE   Bn2
 BYTE   W12
 BYTE   En3
 BYTE   W12
 BYTE   As3
 BYTE   W12
 BYTE   Bn3
 BYTE   W12
 BYTE   Gn3
 BYTE   W12
 BYTE   Cn3
 BYTE   W12
 BYTE   Ds3
 BYTE   W12
 BYTE   PEND 
//  #05 //037   ----------------------------------------
 BYTE   PATT
  POIN2 Label_01025F50
//  #05 //038   ----------------------------------------
 BYTE   PATT
  POIN2 Label_01025F50
//  #05 //039   ----------------------------------------
 BYTE   PATT
  POIN2 Label_01025F50
//  #05 //040   ----------------------------------------
 BYTE   N05  En3  v103
 BYTE   N05  En4
 BYTE   W12
 BYTE   Bn2
 BYTE   N05  Bn3
 BYTE   W12
 BYTE   En4
 BYTE   N05  En3
 BYTE   W12
 BYTE   As4
 BYTE   N05  As3
 BYTE   W12
 BYTE   Bn3
 BYTE   N05  Bn4
 BYTE   W12
 BYTE   Gn3
 BYTE   N05  Gn4
 BYTE   W12
 BYTE   Cn3
 BYTE   N05  Cn4
 BYTE   W12
 BYTE   Ds4
 BYTE   N05  Ds3
 BYTE   W12
//  #05 //041   ----------------------------------------
 BYTE   En3
 BYTE   N05  En4
 BYTE   W12
 BYTE   Bn2
 BYTE   N05  Bn3
 BYTE   W12
 BYTE   En4
 BYTE   N05  En3
 BYTE   W12
 BYTE   As4
 BYTE   N05  As3
 BYTE   W12
 BYTE   Bn4
 BYTE   N05  Bn3
 BYTE   W12
 BYTE   Gn4
 BYTE   N05  Gn3
 BYTE   W12
 BYTE   Cn4
 BYTE   N05  Cn3
 BYTE   W12
 BYTE   Ds4
 BYTE   N05  Ds3
 BYTE   W12
//  #05 //042   ----------------------------------------
 BYTE   En4
 BYTE   N05  En3
 BYTE   W12
 BYTE   Bn2
 BYTE   N05  Bn3
 BYTE   W12
 BYTE   En3
 BYTE   N05  En4
 BYTE   W12
 BYTE   As3
 BYTE   N05  As4
 BYTE   W12
 BYTE   Bn3
 BYTE   N05  Bn4
 BYTE   W12
 BYTE   Gn4
 BYTE   N05  Gn3
 BYTE   W12
 BYTE   Cn4
 BYTE   N05  Cn3
 BYTE   W12
 BYTE   Ds4
 BYTE   N05  Ds3
 BYTE   W12
//  #05 //043   ----------------------------------------
 BYTE   En4
 BYTE   N05  En3
 BYTE   W12
 BYTE   Bn3
 BYTE   N05  Bn2
 BYTE   W12
 BYTE   En4
 BYTE   N05  En3
 BYTE   W12
 BYTE   As3
 BYTE   N05  As4
 BYTE   W12
 BYTE   Bn3
 BYTE   N05  Bn4
 BYTE   W12
 BYTE   Gn3
 BYTE   N05  Gn4
 BYTE   W12
 BYTE   Cn4
 BYTE   N05  Cn3
 BYTE   W12
 BYTE   Ds4
 BYTE   N05  Ds3
 BYTE   W12
//  #05 //044   ----------------------------------------
 BYTE   N11  En4
 BYTE   N11  En3
 BYTE   W12
 BYTE   N23  Ds4
 BYTE   N23  Ds3
 BYTE   W24
 BYTE   N11  As4
 BYTE   N11  As3
 BYTE   W12
 BYTE   N32  An4  v103  gtp3
 BYTE   An3
 BYTE   W36
 BYTE   N11  Gs4
 BYTE   N11  Gs3
 BYTE   W12
//  #05 //045   ----------------------------------------
 BYTE   Gn4
 BYTE   N11  Gn3
 BYTE   W12
 BYTE   N23  Fs3
 BYTE   N23  Fs4
 BYTE   W24
 BYTE   N11  Dn3
 BYTE   N11  Dn4
 BYTE   W12
 BYTE   N23  Cs3
 BYTE   N23  Cs4
 BYTE   W24
 BYTE   Fn4
 BYTE   N23  Fn3
 BYTE   W24
//  #05 //046   ----------------------------------------
 BYTE   N11  En3
 BYTE   N11  En4
 BYTE   W12
 BYTE   N23  Ds3
 BYTE   N23  Ds4
 BYTE   W24
 BYTE   N11  As4
 BYTE   N11  As3
 BYTE   W12
 BYTE   N23  An4
 BYTE   N23  An3
 BYTE   W24
 BYTE   N11  Gs4
 BYTE   N11  Gs3
 BYTE   W12
 BYTE   Gn3
 BYTE   N11  Gn4
 BYTE   W12
//  #05 //047   ----------------------------------------
 BYTE   Gn3
 BYTE   N11  Gn4
 BYTE   W12
 BYTE   N23  Fs3
 BYTE   N23  Fs4
 BYTE   W24
 BYTE   N11  Dn4
 BYTE   N11  Dn3
 BYTE   W12
 BYTE   N23  Cs3
 BYTE   N23  Cs4
 BYTE   W24
 BYTE   Fn3
 BYTE   N23  Fn4
 BYTE   W24
//  #05 //048   ----------------------------------------
 BYTE   N11  As4
 BYTE   W12
 BYTE   N23  An4
 BYTE   N23  An3
 BYTE   W24
 BYTE   N11  En4
 BYTE   N11  En3
 BYTE   W12
 BYTE   N32  Ds4  v103  gtp3
 BYTE   Ds3
 BYTE   W36
 BYTE   N11  Dn3
 BYTE   N11  Dn4
 BYTE   W12
//  #05 //049   ----------------------------------------
 BYTE   Cs3
 BYTE   N11  Cs4
 BYTE   W12
 BYTE   N23  Cn3
 BYTE   N23  Cn4
 BYTE   W24
 BYTE   N11  Gs4
 BYTE   N11  Gs3
 BYTE   W12
 BYTE   N23  Gn3
 BYTE   N23  Gn4
 BYTE   W24
 BYTE   Bn4
 BYTE   N23  Bn3
 BYTE   W24
//  #05 //050   ----------------------------------------
 BYTE   N11  As4
 BYTE   N11  As3
 BYTE   W12
 BYTE   N23  An4
 BYTE   N23  An3
 BYTE   W24
 BYTE   N11  En3
 BYTE   N11  En4
 BYTE   W12
 BYTE   N23  Ds4
 BYTE   N23  Ds3
 BYTE   W24
 BYTE   N11  Dn4
 BYTE   N11  Dn3
 BYTE   W12
 BYTE   Cs4
 BYTE   N11  Cs3
 BYTE   W12
//  #05 //051   ----------------------------------------
 BYTE   Cs3
 BYTE   N11  Cs4
 BYTE   W12
 BYTE   N23  Cn3
 BYTE   N23  Cn4
 BYTE   W24
 BYTE   N11  Gs4
 BYTE   N11  Gs3
 BYTE   W12
 BYTE   N23  Gn3
 BYTE   N23  Gn4
 BYTE   W24
 BYTE   Bn4  v059
 BYTE   N23  Bn3  v103
 BYTE   W24
//  #05 //052   ----------------------------------------
 BYTE   GoTo
  POIN2 Label_01025E9B
 BYTE   FINE

//**************** Track 6 (Midi-Chn.5) ****************//

PokemonSunandMoonEliteFourTak_006:
//  #06 //000   ----------------------------------------
 BYTE   KEYSH   PokemonSunandMoonEliteFourTak_key+0
 BYTE   VOICE   81
 BYTE   VOL   76*PokemonSunandMoonEliteFourTak_mvl/mxv
 BYTE   PAN   c_v-64
 BYTE   BENDR  12
 BYTE   W96
//  #06 //001   ----------------------------------------
 BYTE   W96
//  #06 //002   ----------------------------------------
 BYTE   W96
//  #06 //003   ----------------------------------------
 BYTE   W96
//  #06 //004   ----------------------------------------
 BYTE   W96
//  #06 //005   ----------------------------------------
 BYTE   W96
//  #06 //006   ----------------------------------------
 BYTE   W96
//  #06 //007   ----------------------------------------
 BYTE   W96
//  #06 //008   ----------------------------------------
 BYTE   W96
//  #06 //009   ----------------------------------------
 BYTE   W96
//  #06 //010   ----------------------------------------
 BYTE   W96
//  #06 //011   ----------------------------------------
 BYTE   W96
//  #06 //012   ----------------------------------------
Label_010260DA:
 BYTE   N05  Cs3  v080
 BYTE   W06
 BYTE   Dn3
 BYTE   W06
 BYTE   Ds3
 BYTE   W06
 BYTE   En3
 BYTE   W06
 BYTE   Fn3
 BYTE   W06
 BYTE   Fs3
 BYTE   W06
 BYTE   Gn3
 BYTE   W06
 BYTE   Gs3
 BYTE   W06
 BYTE   An3
 BYTE   W06
 BYTE   As3
 BYTE   W06
 BYTE   Bn3
 BYTE   W06
 BYTE   Cn4
 BYTE   W06
 BYTE   Cs4
 BYTE   W06
 BYTE   Dn4
 BYTE   W06
 BYTE   Ds4
 BYTE   W06
 BYTE   En4
 BYTE   W06
//  #06 //013   ----------------------------------------
Label_010260FC:
 BYTE   N05  Fn4  v080
 BYTE   W06
 BYTE   En4
 BYTE   W06
 BYTE   Ds4
 BYTE   W06
 BYTE   Dn4
 BYTE   W06
 BYTE   Cs4
 BYTE   W06
 BYTE   Cn4
 BYTE   W06
 BYTE   Bn3
 BYTE   W06
 BYTE   As3
 BYTE   W06
 BYTE   An3
 BYTE   W06
 BYTE   Gs3
 BYTE   W06
 BYTE   Gn3
 BYTE   W06
 BYTE   Fs3
 BYTE   W06
 BYTE   Fn3
 BYTE   W06
 BYTE   En3
 BYTE   W06
 BYTE   Ds3
 BYTE   W06
 BYTE   Dn3
 BYTE   W06
 BYTE   PEND 
//  #06 //014   ----------------------------------------
Label_0102611F:
 BYTE   N05  En3  v080
 BYTE   W06
 BYTE   Fn3
 BYTE   W06
 BYTE   Fs3
 BYTE   W06
 BYTE   Gn3
 BYTE   W06
 BYTE   Gs3
 BYTE   W06
 BYTE   An3
 BYTE   W06
 BYTE   As3
 BYTE   W06
 BYTE   Bn3
 BYTE   W06
 BYTE   Cn4
 BYTE   W06
 BYTE   Cs4
 BYTE   W06
 BYTE   Dn4
 BYTE   W06
 BYTE   Ds4
 BYTE   W06
 BYTE   En4
 BYTE   W06
 BYTE   Fn4
 BYTE   W06
 BYTE   Fs4
 BYTE   W06
 BYTE   Gn4
 BYTE   W06
 BYTE   PEND 
//  #06 //015   ----------------------------------------
Label_01026142:
 BYTE   N05  Gs4  v080
 BYTE   W06
 BYTE   Gn4
 BYTE   W06
 BYTE   Fs4
 BYTE   W06
 BYTE   Fn4
 BYTE   W06
 BYTE   En4
 BYTE   W06
 BYTE   Ds4
 BYTE   W06
 BYTE   Dn4
 BYTE   W06
 BYTE   Cs4
 BYTE   W06
 BYTE   Cn4
 BYTE   W06
 BYTE   Bn3
 BYTE   W06
 BYTE   As3
 BYTE   W06
 BYTE   An3
 BYTE   W06
 BYTE   Gs3
 BYTE   W06
 BYTE   Gn3
 BYTE   W06
 BYTE   Fs3
 BYTE   W06
 BYTE   Fn3
 BYTE   W06
 BYTE   PEND 
//  #06 //016   ----------------------------------------
 BYTE   Cs3
 BYTE   W06
 BYTE   Dn3
 BYTE   W06
 BYTE   Ds3
 BYTE   W06
 BYTE   En3
 BYTE   W06
 BYTE   Fn3
 BYTE   W06
 BYTE   Fs3
 BYTE   W06
 BYTE   Gn3
 BYTE   W06
 BYTE   Gs3
 BYTE   W06
 BYTE   An3
 BYTE   W06
 BYTE   As3
 BYTE   W06
 BYTE   Bn3
 BYTE   W06
 BYTE   Cn4
 BYTE   W06
 BYTE   Cs4
 BYTE   W06
 BYTE   Dn4
 BYTE   W06
 BYTE   Ds4
 BYTE   W06
 BYTE   En4
 BYTE   W06
//  #06 //017   ----------------------------------------
 BYTE   PATT
  POIN2 Label_010260FC
//  #06 //018   ----------------------------------------
 BYTE   PATT
  POIN2 Label_0102611F
//  #06 //019   ----------------------------------------
 BYTE   PATT
  POIN2 Label_01026142
//  #06 //020   ----------------------------------------
 BYTE   W96
//  #06 //021   ----------------------------------------
 BYTE   W96
//  #06 //022   ----------------------------------------
 BYTE   W96
//  #06 //023   ----------------------------------------
 BYTE   W96
//  #06 //024   ----------------------------------------
 BYTE   W96
//  #06 //025   ----------------------------------------
 BYTE   W96
//  #06 //026   ----------------------------------------
 BYTE   W96
//  #06 //027   ----------------------------------------
 BYTE   W96
//  #06 //028   ----------------------------------------
 BYTE   W96
//  #06 //029   ----------------------------------------
 BYTE   W96
//  #06 //030   ----------------------------------------
 BYTE   W96
//  #06 //031   ----------------------------------------
 BYTE   W96
//  #06 //032   ----------------------------------------
 BYTE   W96
//  #06 //033   ----------------------------------------
 BYTE   W96
//  #06 //034   ----------------------------------------
 BYTE   W96
//  #06 //035   ----------------------------------------
 BYTE   W96
//  #06 //036   ----------------------------------------
 BYTE   W96
//  #06 //037   ----------------------------------------
 BYTE   W96
//  #06 //038   ----------------------------------------
 BYTE   W96
//  #06 //039   ----------------------------------------
 BYTE   W96
//  #06 //040   ----------------------------------------
 BYTE   W96
//  #06 //041   ----------------------------------------
 BYTE   W96
//  #06 //042   ----------------------------------------
 BYTE   W96
//  #06 //043   ----------------------------------------
 BYTE   W96
//  #06 //044   ----------------------------------------
 BYTE   W96
//  #06 //045   ----------------------------------------
 BYTE   W96
//  #06 //046   ----------------------------------------
 BYTE   W96
//  #06 //047   ----------------------------------------
 BYTE   W96
//  #06 //048   ----------------------------------------
 BYTE   W96
//  #06 //049   ----------------------------------------
 BYTE   W96
//  #06 //050   ----------------------------------------
 BYTE   W96
//  #06 //051   ----------------------------------------
 BYTE   W96
//  #06 //052   ----------------------------------------
 BYTE   GoTo
  POIN2 Label_010260DA
 BYTE   FINE

//**************** Track 7 (Midi-Chn.6) ****************//

PokemonSunandMoonEliteFourTak_007:
//  #07 //000   ----------------------------------------
 BYTE   KEYSH   PokemonSunandMoonEliteFourTak_key+0
 BYTE   VOICE   30
 BYTE   VOL   76*PokemonSunandMoonEliteFourTak_mvl/mxv
 BYTE   PAN   c_v+12
 BYTE   BENDR  12
 BYTE   W96
//  #07 //001   ----------------------------------------
 BYTE   W96
//  #07 //002   ----------------------------------------
 BYTE   W96
//  #07 //003   ----------------------------------------
 BYTE   W96
//  #07 //004   ----------------------------------------
 BYTE   W96
//  #07 //005   ----------------------------------------
 BYTE   W96
//  #07 //006   ----------------------------------------
 BYTE   W96
//  #07 //007   ----------------------------------------
 BYTE   W96
//  #07 //008   ----------------------------------------
 BYTE   W96
//  #07 //009   ----------------------------------------
 BYTE   W96
//  #07 //010   ----------------------------------------
 BYTE   W96
//  #07 //011   ----------------------------------------
 BYTE   W96
//  #07 //012   ----------------------------------------
Label_010261D2:
 BYTE   N11  En2  v103
 BYTE   W12
 BYTE   N02
 BYTE   W06
 BYTE   En2
 BYTE   W06
 BYTE   N11
 BYTE   W12
 BYTE   En2
 BYTE   W12
 BYTE   N02
 BYTE   W06
 BYTE   En2
 BYTE   W06
 BYTE   N11
 BYTE   W12
 BYTE   N02
 BYTE   W06
 BYTE   En2
 BYTE   W06
 BYTE   N11
 BYTE   W12
//  #07 //013   ----------------------------------------
Label_010261EA:
 BYTE   N11  En2  v103
 BYTE   W12
 BYTE   N02
 BYTE   W06
 BYTE   En2
 BYTE   W06
 BYTE   N11
 BYTE   W12
 BYTE   En2
 BYTE   W12
 BYTE   N02
 BYTE   W06
 BYTE   En2
 BYTE   W06
 BYTE   N11
 BYTE   W12
 BYTE   N02
 BYTE   W06
 BYTE   En2
 BYTE   W06
 BYTE   N11
 BYTE   W12
 BYTE   PEND 
//  #07 //014   ----------------------------------------
 BYTE   PATT
  POIN2 Label_010261EA
//  #07 //015   ----------------------------------------
 BYTE   PATT
  POIN2 Label_010261EA
//  #07 //016   ----------------------------------------
 BYTE   PATT
  POIN2 Label_010261EA
//  #07 //017   ----------------------------------------
 BYTE   PATT
  POIN2 Label_010261EA
//  #07 //018   ----------------------------------------
 BYTE   PATT
  POIN2 Label_010261EA
//  #07 //019   ----------------------------------------
 BYTE   PATT
  POIN2 Label_010261EA
//  #07 //020   ----------------------------------------
 BYTE   W96
//  #07 //021   ----------------------------------------
 BYTE   W96
//  #07 //022   ----------------------------------------
 BYTE   W96
//  #07 //023   ----------------------------------------
 BYTE   W96
//  #07 //024   ----------------------------------------
 BYTE   W96
//  #07 //025   ----------------------------------------
 BYTE   W96
//  #07 //026   ----------------------------------------
 BYTE   W96
//  #07 //027   ----------------------------------------
 BYTE   W96
//  #07 //028   ----------------------------------------
 BYTE   W96
//  #07 //029   ----------------------------------------
 BYTE   W96
//  #07 //030   ----------------------------------------
 BYTE   W96
//  #07 //031   ----------------------------------------
 BYTE   W96
//  #07 //032   ----------------------------------------
Label_0102622D:
 BYTE   N44  Bn0  v059  gtp3
 BYTE   En1
 BYTE   W48
 BYTE   Cn1
 BYTE   N44  Fn1  v059  gtp3
 BYTE   W48
 BYTE   PEND 
//  #07 //033   ----------------------------------------
 BYTE   Bn0
 BYTE   N44  En1  v059  gtp3
 BYTE   W96
//  #07 //034   ----------------------------------------
 BYTE   PATT
  POIN2 Label_0102622D
//  #07 //035   ----------------------------------------
 BYTE   N44  Dn1  v059  gtp3
 BYTE   Gn1
 BYTE   W96
//  #07 //036   ----------------------------------------
 BYTE   En1
 BYTE   N44  Bn0  v059  gtp3
 BYTE   W48
 BYTE   Fn1
 BYTE   N44  Cn1  v059  gtp3
 BYTE   W48
//  #07 //037   ----------------------------------------
 BYTE   En1
 BYTE   N44  Bn0  v059  gtp3
 BYTE   W96
//  #07 //038   ----------------------------------------
 BYTE   Bn0
 BYTE   N44  En1  v059  gtp3
 BYTE   W48
 BYTE   Fn1
 BYTE   N44  Cn1  v059  gtp3
 BYTE   W48
//  #07 //039   ----------------------------------------
 BYTE   N92  Gn1  v059  gtp3
 BYTE   Dn1
 BYTE   W96
//  #07 //040   ----------------------------------------
 BYTE   En1
 BYTE   N92  An1  v059  gtp3
 BYTE   W96
//  #07 //041   ----------------------------------------
 BYTE   N68  Bn0  v069  gtp3
 BYTE   Fs1
 BYTE   N68  Bn1  v069  gtp3
 BYTE   W72
 BYTE   N23  Ds2  v077
 BYTE   N23  As1
 BYTE   N23  Ds1
 BYTE   W24
//  #07 //042   ----------------------------------------
 BYTE   TIE  En2  v080
 BYTE   TIE  Bn1
 BYTE   TIE  En1
 BYTE   W96
//  #07 //043   ----------------------------------------
 BYTE   W92
 BYTE   W03
 BYTE   EOT
 BYTE   En2  v047
 BYTE   En1
 BYTE   W01
//  #07 //044   ----------------------------------------
 BYTE   W96
//  #07 //045   ----------------------------------------
 BYTE   W96
//  #07 //046   ----------------------------------------
 BYTE   W96
//  #07 //047   ----------------------------------------
 BYTE   W96
//  #07 //048   ----------------------------------------
 BYTE   W96
//  #07 //049   ----------------------------------------
 BYTE   W96
//  #07 //050   ----------------------------------------
 BYTE   W96
//  #07 //051   ----------------------------------------
 BYTE   W96
//  #07 //052   ----------------------------------------
 BYTE   GoTo
  POIN2 Label_010261D2
 BYTE   FINE

//**************** Track 8 (Midi-Chn.7) ****************//

PokemonSunandMoonEliteFourTak_008:
//  #08 //000   ----------------------------------------
 BYTE   KEYSH   PokemonSunandMoonEliteFourTak_key+0
 BYTE   VOICE   31
 BYTE   PAN   c_v+12
 BYTE   VOL   68*PokemonSunandMoonEliteFourTak_mvl/mxv
 BYTE   BENDR  12
 BYTE   W96
//  #08 //001   ----------------------------------------
 BYTE   W96
//  #08 //002   ----------------------------------------
 BYTE   W96
//  #08 //003   ----------------------------------------
 BYTE   W96
//  #08 //004   ----------------------------------------
 BYTE   W96
//  #08 //005   ----------------------------------------
 BYTE   W96
//  #08 //006   ----------------------------------------
 BYTE   W96
//  #08 //007   ----------------------------------------
 BYTE   W96
//  #08 //008   ----------------------------------------
 BYTE   W96
//  #08 //009   ----------------------------------------
 BYTE   W96
//  #08 //010   ----------------------------------------
 BYTE   W96
//  #08 //011   ----------------------------------------
 BYTE   W96
//  #08 //012   ----------------------------------------
Label_010262BA:
 BYTE   W96
//  #08 //013   ----------------------------------------
 BYTE   W96
//  #08 //014   ----------------------------------------
 BYTE   W96
//  #08 //015   ----------------------------------------
 BYTE   W96
//  #08 //016   ----------------------------------------
 BYTE   W96
//  #08 //017   ----------------------------------------
 BYTE   W96
//  #08 //018   ----------------------------------------
 BYTE   W96
//  #08 //019   ----------------------------------------
 BYTE   W96
//  #08 //020   ----------------------------------------
 BYTE   W96
//  #08 //021   ----------------------------------------
 BYTE   W96
//  #08 //022   ----------------------------------------
 BYTE   W96
//  #08 //023   ----------------------------------------
 BYTE   W96
//  #08 //024   ----------------------------------------
 BYTE   W96
//  #08 //025   ----------------------------------------
 BYTE   W96
//  #08 //026   ----------------------------------------
 BYTE   W96
//  #08 //027   ----------------------------------------
 BYTE   W96
//  #08 //028   ----------------------------------------
 BYTE   W96
//  #08 //029   ----------------------------------------
 BYTE   W96
//  #08 //030   ----------------------------------------
 BYTE   W96
//  #08 //031   ----------------------------------------
 BYTE   W96
//  #08 //032   ----------------------------------------
 BYTE   W96
//  #08 //033   ----------------------------------------
 BYTE   W96
//  #08 //034   ----------------------------------------
 BYTE   W96
//  #08 //035   ----------------------------------------
 BYTE   W96
//  #08 //036   ----------------------------------------
 BYTE   W96
//  #08 //037   ----------------------------------------
 BYTE   W96
//  #08 //038   ----------------------------------------
 BYTE   W96
//  #08 //039   ----------------------------------------
 BYTE   W96
//  #08 //040   ----------------------------------------
 BYTE   W96
//  #08 //041   ----------------------------------------
 BYTE   W96
//  #08 //042   ----------------------------------------
 BYTE   W96
//  #08 //043   ----------------------------------------
 BYTE   W72
 BYTE   N28  Cn3  v103  gtp1
 BYTE   W24
//  #08 //044   ----------------------------------------
 BYTE   W96
//  #08 //045   ----------------------------------------
 BYTE   W96
//  #08 //046   ----------------------------------------
 BYTE   W96
//  #08 //047   ----------------------------------------
 BYTE   W96
//  #08 //048   ----------------------------------------
 BYTE   W96
//  #08 //049   ----------------------------------------
 BYTE   W96
//  #08 //050   ----------------------------------------
 BYTE   W96
//  #08 //051   ----------------------------------------
 BYTE   W96
//  #08 //052   ----------------------------------------
 BYTE   GoTo
  POIN2 Label_010262BA
 BYTE   FINE

//******************************************************//
	ALIGN 4

PokemonSunandMoonEliteFourTak:
	BYTE	8	// NumTrks
	BYTE	0	// NumBlks
	BYTE	PokemonSunandMoonEliteFourTak_pri	// Priority
	BYTE	PokemonSunandMoonEliteFourTak_rev	// Reverb.
    
	POIN2	PokemonSunandMoonEliteFourTak_grp
    
	POIN2	PokemonSunandMoonEliteFourTak_001
	POIN2	PokemonSunandMoonEliteFourTak_002
	POIN2	PokemonSunandMoonEliteFourTak_003
	POIN2	PokemonSunandMoonEliteFourTak_004
	POIN2	PokemonSunandMoonEliteFourTak_005
	POIN2	PokemonSunandMoonEliteFourTak_006
	POIN2	PokemonSunandMoonEliteFourTak_007
	POIN2	PokemonSunandMoonEliteFourTak_008

	
