//Event file generated from Sappy .s format.
	#include "MPlayDef.event"

	#define	PokemonColosseumPyriteTownAReliableChair_grp  voicegroup000
	#define	PokemonColosseumPyriteTownAReliableChair_pri  0
	#define	PokemonColosseumPyriteTownAReliableChair_rev  0
	#define	PokemonColosseumPyriteTownAReliableChair_mvl  127
	#define	PokemonColosseumPyriteTownAReliableChair_key  0
	#define	PokemonColosseumPyriteTownAReliableChair_tbs  1
	#define	PokemonColosseumPyriteTownAReliableChair_exg  0
	#define	PokemonColosseumPyriteTownAReliableChair_cmp  1

	// .rodata
	//	PokemonColosseumPyriteTownAReliableChair
	ALIGN 4


//**************** Track 1 (Midi-Chn.0) ****************//

PokemonColosseumPyriteTownAReliableChair_001:
// 000   ----------------------------------------
 BYTE   KEYSH   PokemonColosseumPyriteTownAReliableChair_key+0
Label_0_010563B6:
 BYTE   TEMPO   124*PokemonColosseumPyriteTownAReliableChair_tbs/2
 BYTE   VOICE   2
 BYTE   MODT 0
 BYTE   CnM2
 BYTE   LFOS 0
 BYTE   Gs1
 BYTE   VOL   34*PokemonColosseumPyriteTownAReliableChair_mvl/mxv
 BYTE   N08  Cn1  v127
 BYTE   W15
 BYTE   N08
 BYTE   W09
 BYTE   N15  Ds1
 BYTE   W15
 BYTE   N06  Cn1
 BYTE   W24
 BYTE   N24  As0
 BYTE   W24
 BYTE   N08  Gn0
 BYTE   W09
// 001   ----------------------------------------
Label_0_010563D2:
 BYTE   N08  Cn1  v127
 BYTE   W15
 BYTE   N08
 BYTE   W09
 BYTE   N15  Ds1
 BYTE   W15
 BYTE   N06  Cn1
 BYTE   W24
 BYTE   N08  Ds1
 BYTE   W09
 BYTE   N15  Fn1
 BYTE   W15
 BYTE   N08  Gn1
 BYTE   W09
 BYTE   PEND 
// 002   ----------------------------------------
Label_0_010563E8:
 BYTE   N08  Cn1  v127
 BYTE   W15
 BYTE   N08
 BYTE   W09
 BYTE   N15  Ds1
 BYTE   W15
 BYTE   N06  Cn1
 BYTE   W24
 BYTE   N24  As0
 BYTE   W24
 BYTE   N08  Gn0
 BYTE   W09
 BYTE   PEND 
 BYTE   PATT
  POIN2 Label_0_010563D2
 BYTE   PATT
  POIN2 Label_0_010563E8
 BYTE   PATT
  POIN2 Label_0_010563D2
 BYTE   PATT
  POIN2 Label_0_010563E8
 BYTE   PATT
  POIN2 Label_0_010563D2
 BYTE   PATT
  POIN2 Label_0_010563E8
 BYTE   PATT
  POIN2 Label_0_010563D2
// 003   ----------------------------------------
 BYTE   N06  Cn1  v127
 BYTE   W48
 BYTE   N06
 BYTE   W48
// 004   ----------------------------------------
 BYTE   N15  Ds1
 BYTE   W15
 BYTE   N08  Cn1
 BYTE   W09
 BYTE   N15  Ds1
 BYTE   W15
 BYTE   N08  Fn1
 BYTE   W23
 BYTE   N32  Gn1
 BYTE   W32
 BYTE   W01
 BYTE   N06  Cn1
 BYTE   W01
// 005   ----------------------------------------
 BYTE   W44
 BYTE   W03
 BYTE   N06
 BYTE   W48
 BYTE   N15  Ds1
 BYTE   W01
// 006   ----------------------------------------
 BYTE   W15
 BYTE   N08  Cn1
 BYTE   W08
 BYTE   N15  Ds1
 BYTE   W16
 BYTE   N08  Fn1
 BYTE   W23
 BYTE   N30  Gn1
 BYTE   W30
 BYTE   N01
 BYTE   W04
// 007   ----------------------------------------
 BYTE   W22
 BYTE   N24
 BYTE   W24
 BYTE   As1
 BYTE   W24
 BYTE   N16  An1
 BYTE   W17
 BYTE   N23  Fn1
 BYTE   W09
// 008   ----------------------------------------
 BYTE   W14
 BYTE   N08  Gn1
 BYTE   W08
 BYTE   N48  Cn1
 BYTE   W48
 BYTE   N16  As0
 BYTE   W17
 BYTE   N07  Bn0
 BYTE   W07
 BYTE   N12  Cn1
 BYTE   W02
// 009   ----------------------------------------
Label_0_01056468:
 BYTE   W44
 BYTE   W02
 BYTE   N12  Cn1  v127
 BYTE   W48
 BYTE   W02
 BYTE   PEND 
// 010   ----------------------------------------
 BYTE   W13
 BYTE   N12
 BYTE   W24
 BYTE   N48
 BYTE   W56
 BYTE   W01
 BYTE   N12
 BYTE   W02
 BYTE   PATT
  POIN2 Label_0_01056468
// 011   ----------------------------------------
 BYTE   W13
 BYTE   N12  Cn1  v127
 BYTE   W24
 BYTE   N48
 BYTE   W56
 BYTE   W01
 BYTE   N24  Cn1  v088
 BYTE   W02
// 012   ----------------------------------------
 BYTE   W22
 BYTE   Gn1  v127
 BYTE   W24
 BYTE   Cn2
 BYTE   W24
 BYTE   N16  Gn1
 BYTE   W17
 BYTE   N30  Cn1
 BYTE   W09
// 013   ----------------------------------------
 BYTE   W22
 BYTE   N24  Gn1
 BYTE   W24
 BYTE   Cn2
 BYTE   W24
 BYTE   N15  Gn1
 BYTE   W16
 BYTE   N01  Cn1
 BYTE   N24  Fn1
 BYTE   W10
// 014   ----------------------------------------
 BYTE   W24
 BYTE   As0
 BYTE   W24
 BYTE   Cn1
 BYTE   W24
 BYTE   N15  Gn1
 BYTE   W15
 BYTE   N24  Fn1
 BYTE   W09
// 015   ----------------------------------------
 BYTE   W24
 BYTE   W01
 BYTE   As0
 BYTE   W24
 BYTE   Cn1
 BYTE   W24
 BYTE   Fn1
 BYTE   W23
// 016   ----------------------------------------
 BYTE   W02
 BYTE   Gs1
 BYTE   W24
 BYTE   Ds1
 BYTE   W24
 BYTE   Gs1
 BYTE   W24
 BYTE   N15  Ds1
 BYTE   W16
 BYTE   N24  As1
 BYTE   W06
// 017   ----------------------------------------
 BYTE   W24
 BYTE   W02
 BYTE   Fn1
 BYTE   W24
 BYTE   As1
 BYTE   W24
 BYTE   N15  Fn1
 BYTE   W16
 BYTE   N30  Gn1
 BYTE   W06
// 018   ----------------------------------------
 BYTE   W24
 BYTE   N24
 BYTE   W24
 BYTE   Cn2
 BYTE   W24
 BYTE   N15  Gn1
 BYTE   W15
 BYTE   N24  Cn2
 BYTE   W09
// 019   ----------------------------------------
 BYTE   W15
 BYTE   N08
 BYTE   W09
 BYTE   N24  Gn1
 BYTE   W24
 BYTE   GoTo
  POIN2 Label_0_010563B6
 BYTE   FINE

//**************** Track 2 (Midi-Chn.1) ****************//

PokemonColosseumPyriteTownAReliableChair_002:
// 000   ----------------------------------------
 BYTE   KEYSH   PokemonColosseumPyriteTownAReliableChair_key+0
Label_1_010564FE:
 BYTE   VOICE   1
 BYTE   MODT 0
 BYTE   CnM2
 BYTE   LFOS 0
 BYTE   Gs1
 BYTE   VOL   32*PokemonColosseumPyriteTownAReliableChair_mvl/mxv
 BYTE   PAN   c_v-37
 BYTE   W96
// 001   ----------------------------------------
 BYTE   W96
// 002   ----------------------------------------
 BYTE   W96
// 003   ----------------------------------------
 BYTE   W96
// 004   ----------------------------------------
Label_1_0105650C:
 BYTE   TIE  Fn2  v127
 BYTE   TIE  As2
 BYTE   TIE  Cn3
 BYTE   TIE  Ds3
 BYTE   W96
 BYTE   PEND 
// 005   ----------------------------------------
 BYTE   W48
 BYTE   EOT
 BYTE   Fn2  v058
 BYTE   Cn3  v063
 BYTE   W14
 BYTE   N12  Gn3  v072
 BYTE   N12  As3
 BYTE   N12  Cn4
 BYTE   N12  Gn4
 BYTE   N12  As4
 BYTE   N12  Cn5
 BYTE   W32
 BYTE   W02
// 006   ----------------------------------------
 BYTE   W96
// 007   ----------------------------------------
 BYTE   W96
// 008   ----------------------------------------
 BYTE   W60
 BYTE   W03
 BYTE   Gn3
 BYTE   N12  As3
 BYTE   N12  Cn4
 BYTE   N12  Gn4
 BYTE   N12  As4
 BYTE   N12  Cn5
 BYTE   W32
 BYTE   W01
// 009   ----------------------------------------
 BYTE   W96
// 010   ----------------------------------------
 BYTE   W96
// 011   ----------------------------------------
 BYTE   W96
// 012   ----------------------------------------
 BYTE   W96
// 013   ----------------------------------------
 BYTE   W96
 BYTE   PATT
  POIN2 Label_1_0105650C
// 014   ----------------------------------------
 BYTE   W48
 BYTE   EOT
 BYTE   Fn2  v058
 BYTE   Cn3  v063
 BYTE   W48
// 015   ----------------------------------------
 BYTE   W96
// 016   ----------------------------------------
 BYTE   W68
 BYTE   W02
 BYTE   N08  Cn4  v024
 BYTE   W09
 BYTE   N07  Ds4
 BYTE   W07
 BYTE   N08  Cn4
 BYTE   W08
 BYTE   Fn4  v080
 BYTE   W02
// 017   ----------------------------------------
 BYTE   W07
 BYTE   Fs4
 BYTE   W08
 BYTE   N07  Fn4
 BYTE   W07
 BYTE   N08  Ds4
 BYTE   W09
 BYTE   N07  Dn4
 BYTE   W07
 BYTE   N08  Cn4
 BYTE   W56
 BYTE   W02
// 018   ----------------------------------------
 BYTE   W22
 BYTE   Gn3
 BYTE   W09
 BYTE   Fs3
 BYTE   W08
 BYTE   N15  Fn3
 BYTE   W23
 BYTE   N32  Ds3
 BYTE   W32
 BYTE   W02
// 019   ----------------------------------------
 BYTE   W96
// 020   ----------------------------------------
 BYTE   W96
// 021   ----------------------------------------
 BYTE   W96
// 022   ----------------------------------------
 BYTE   W96
// 023   ----------------------------------------
 BYTE   W96
// 024   ----------------------------------------
 BYTE   W96
// 025   ----------------------------------------
 BYTE   W96
// 026   ----------------------------------------
 BYTE   W48
 BYTE   GoTo
  POIN2 Label_1_010564FE
 BYTE   FINE

//**************** Track 3 (Midi-Chn.2) ****************//

PokemonColosseumPyriteTownAReliableChair_003:
// 000   ----------------------------------------
 BYTE   KEYSH   PokemonColosseumPyriteTownAReliableChair_key+0
Label_2_0105659E:
 BYTE   VOICE   65
 BYTE   MODT 0
 BYTE   CnM2
 BYTE   LFOS 0
 BYTE   Gs1
 BYTE   VOL   29*PokemonColosseumPyriteTownAReliableChair_mvl/mxv
 BYTE   PAN   c_v-39
 BYTE   W96
// 001   ----------------------------------------
 BYTE   W96
// 002   ----------------------------------------
 BYTE   W96
// 003   ----------------------------------------
 BYTE   W96
// 004   ----------------------------------------
 BYTE   W96
// 005   ----------------------------------------
 BYTE   W72
 BYTE   N12  Cn3  v127
 BYTE   W08
 BYTE   Ds3
 BYTE   W07
 BYTE   Cn3
 BYTE   W09
// 006   ----------------------------------------
 BYTE   N36  Fs3
 BYTE   W36
 BYTE   N24  Fn3
 BYTE   W24
 BYTE   Ds3
 BYTE   W24
 BYTE   N12  Cn3  v108
 BYTE   W08
 BYTE   N15  As2
 BYTE   W04
// 007   ----------------------------------------
 BYTE   W12
 BYTE   N54  Cn3
 BYTE   W56
 BYTE   W02
 BYTE   N12  Gn2  v127
 BYTE   W08
 BYTE   As2
 BYTE   W08
 BYTE   Gn2
 BYTE   W09
 BYTE   N96  Cn3  v108
 BYTE   W01
// 008   ----------------------------------------
 BYTE   W96
// 009   ----------------------------------------
 BYTE   W92
 BYTE   W03
 BYTE   N07  Cn4  v127
 BYTE   W01
// 010   ----------------------------------------
Label_2_010565DD:
 BYTE   N08  Gn3  v127
 BYTE   W44
 BYTE   W03
 BYTE   N06  Cn4
 BYTE   W01
 BYTE   N08  Gn3
 BYTE   W44
 BYTE   W03
 BYTE   N15  Ds4
 BYTE   W01
 BYTE   PEND 
// 011   ----------------------------------------
 BYTE   As3
 BYTE   W15
 BYTE   N08  Gn3
 BYTE   N08  Cn4
 BYTE   W08
 BYTE   N07  Ds4
 BYTE   W01
 BYTE   N15  As3
 BYTE   W15
 BYTE   N08  Cn4
 BYTE   N08  Fn4
 BYTE   W23
 BYTE   N32  Dn4
 BYTE   N32  Gn4
 BYTE   W32
 BYTE   W01
 BYTE   N06  Cn4
 BYTE   W01
 BYTE   PATT
  POIN2 Label_2_010565DD
// 012   ----------------------------------------
 BYTE   N15  As3  v127
 BYTE   W15
 BYTE   N04  Gn3
 BYTE   N08  Cn4
 BYTE   W08
 BYTE   N15  Ds4
 BYTE   W01
 BYTE   As3
 BYTE   W15
 BYTE   N08  Cn4
 BYTE   N08  Fn4
 BYTE   W23
 BYTE   N32  Dn4
 BYTE   N32  Gn4
 BYTE   W32
 BYTE   W02
// 013   ----------------------------------------
 BYTE   W96
// 014   ----------------------------------------
 BYTE   W96
// 015   ----------------------------------------
 BYTE   W96
// 016   ----------------------------------------
 BYTE   W96
// 017   ----------------------------------------
 BYTE   W96
// 018   ----------------------------------------
 BYTE   W68
 BYTE   W03
 BYTE   N12  Gn3
 BYTE   W08
 BYTE   Cn4
 BYTE   W08
 BYTE   Ds4
 BYTE   W08
 BYTE   N24  Fs4
 BYTE   W01
// 019   ----------------------------------------
 BYTE   W23
 BYTE   N15  Fn4
 BYTE   W16
 BYTE   N12  Ds4
 BYTE   W24
 BYTE   N24  Cn4
 BYTE   W24
 BYTE   N08  As3
 BYTE   W08
 BYTE   N48  Cn4
 BYTE   W01
// 020   ----------------------------------------
 BYTE   W68
 BYTE   W03
 BYTE   N15  Ds4
 BYTE   W16
 BYTE   N56  Cn4
 BYTE   W09
// 021   ----------------------------------------
 BYTE   W68
 BYTE   W03
 BYTE   N15  As3
 BYTE   W16
 BYTE   N56  Cn4
 BYTE   W09
// 022   ----------------------------------------
 BYTE   W68
 BYTE   W03
 BYTE   N12  Gn3
 BYTE   W08
 BYTE   Cn4
 BYTE   W08
 BYTE   Fn4
 BYTE   W09
// 023   ----------------------------------------
 BYTE   N24  Ds4
 BYTE   W24
 BYTE   N15  Cn4
 BYTE   W15
 BYTE   N12  Ds4
 BYTE   W24
 BYTE   N24  Fn4
 BYTE   W24
 BYTE   Dn4
 BYTE   W09
// 024   ----------------------------------------
 BYTE   W15
 BYTE   As3
 BYTE   W24
 BYTE   Fn3
 BYTE   W24
 BYTE   As3
 BYTE   W24
 BYTE   TIE  Gn3
 BYTE   W09
// 025   ----------------------------------------
 BYTE   W96
// 026   ----------------------------------------
 BYTE   W44
 BYTE   W03
 BYTE   EOT
 BYTE   W01
 BYTE   GoTo
  POIN2 Label_2_0105659E
 BYTE   FINE

//**************** Track 4 (Midi-Chn.3) ****************//

PokemonColosseumPyriteTownAReliableChair_004:
// 000   ----------------------------------------
 BYTE   KEYSH   PokemonColosseumPyriteTownAReliableChair_key+0
Label_3_0105669A:
 BYTE   VOICE   18
 BYTE   MODT 0
 BYTE   CnM2
 BYTE   LFOS 0
 BYTE   Gs1
 BYTE   VOL   29*PokemonColosseumPyriteTownAReliableChair_mvl/mxv
 BYTE   PAN   c_v+26
 BYTE   W96
// 001   ----------------------------------------
 BYTE   W96
// 002   ----------------------------------------
 BYTE   W96
// 003   ----------------------------------------
 BYTE   W96
// 004   ----------------------------------------
 BYTE   W96
// 005   ----------------------------------------
 BYTE   W96
// 006   ----------------------------------------
 BYTE   W96
// 007   ----------------------------------------
 BYTE   W96
// 008   ----------------------------------------
 BYTE   W96
// 009   ----------------------------------------
 BYTE   W96
// 010   ----------------------------------------
 BYTE   W96
// 011   ----------------------------------------
 BYTE   W96
// 012   ----------------------------------------
 BYTE   W96
// 013   ----------------------------------------
 BYTE   W72
 BYTE   N03  Fs5  v127
 BYTE   W03
 BYTE   N02  Fn5
 BYTE   W03
 BYTE   N03  En5
 BYTE   W03
 BYTE   N02  Cn5
 BYTE   W03
 BYTE   Bn4
 BYTE   W02
 BYTE   N03  Gn4
 BYTE   W04
 BYTE   N02  Fn4
 BYTE   W02
 BYTE   N03  Dn4
 BYTE   W04
// 014   ----------------------------------------
 BYTE   W96
// 015   ----------------------------------------
 BYTE   W96
// 016   ----------------------------------------
 BYTE   N15  Cn4
 BYTE   W15
 BYTE   N08  Ds4
 BYTE   W09
 BYTE   N12  Cn4
 BYTE   W12
 BYTE   N03  Fn4
 BYTE   W03
 BYTE   N24  Fs4
 BYTE   W24
 BYTE   N07  Fn4
 BYTE   W07
 BYTE   N15  Ds4
 BYTE   W16
 BYTE   N08  Cn4
 BYTE   W08
 BYTE   N16  Ds4
 BYTE   W02
// 017   ----------------------------------------
 BYTE   W15
 BYTE   N15  Fn4
 BYTE   W22
 BYTE   N24  Gn4
 BYTE   W24
 BYTE   W01
 BYTE   N36  Cn5
 BYTE   W32
 BYTE   W02
// 018   ----------------------------------------
 BYTE   W20
 BYTE   N02  Dn5
 BYTE   W02
 BYTE   N15  Ds5
 BYTE   W16
 BYTE   N09  Cn5
 BYTE   W24
 BYTE   W01
 BYTE   N23  As4
 BYTE   W23
 BYTE   N08  Gn4
 BYTE   W08
 BYTE   N12  As4
 BYTE   W02
// 019   ----------------------------------------
 BYTE   W14
 BYTE   N08  Gn4
 BYTE   W08
 BYTE   N08
 BYTE   W09
 BYTE   Fs4
 BYTE   W08
 BYTE   N15  Fn4
 BYTE   W23
 BYTE   N32  Ds4
 BYTE   W32
 BYTE   W02
// 020   ----------------------------------------
Label_3_01056716:
 BYTE   W36
 BYTE   W03
 BYTE   N08  Ds4  v072
 BYTE   W24
 BYTE   N08
 BYTE   W24
 BYTE   N08
 BYTE   W09
 BYTE   PEND 
// 021   ----------------------------------------
Label_3_01056721:
 BYTE   W15
 BYTE   N08  Ds4  v072
 BYTE   W24
 BYTE   N08
 BYTE   W24
 BYTE   N08
 BYTE   W24
 BYTE   N08
 BYTE   W09
 BYTE   PEND 
// 022   ----------------------------------------
 BYTE   W36
 BYTE   W03
 BYTE   Fn4
 BYTE   W24
 BYTE   N08
 BYTE   W24
 BYTE   N08
 BYTE   W09
// 023   ----------------------------------------
 BYTE   W15
 BYTE   N08
 BYTE   W24
 BYTE   N08
 BYTE   W56
 BYTE   W01
 BYTE   PATT
  POIN2 Label_3_01056716
 BYTE   PATT
  POIN2 Label_3_01056721
// 024   ----------------------------------------
 BYTE   W96
// 025   ----------------------------------------
 BYTE   W48
 BYTE   GoTo
  POIN2 Label_3_0105669A
 BYTE   FINE

//**************** Track 5 (Midi-Chn.4) ****************//

PokemonColosseumPyriteTownAReliableChair_005:
// 000   ----------------------------------------
 BYTE   KEYSH   PokemonColosseumPyriteTownAReliableChair_key+0
Label_4_010574D6:
 BYTE   VOICE   71
 BYTE   MODT 0
 BYTE   CnM2
 BYTE   LFOS 0
 BYTE   Gs1
 BYTE   VOL   29*PokemonColosseumPyriteTownAReliableChair_mvl/mxv
 BYTE   PAN   c_v+37
 BYTE   W96
// 001   ----------------------------------------
 BYTE   W96
// 002   ----------------------------------------
 BYTE   W96
// 003   ----------------------------------------
 BYTE   W96
// 004   ----------------------------------------
 BYTE   W96
// 005   ----------------------------------------
 BYTE   W72
 BYTE   N12  Cn3  v127
 BYTE   W08
 BYTE   Ds3
 BYTE   W07
 BYTE   Cn3
 BYTE   W09
// 006   ----------------------------------------
 BYTE   N36  Fs3
 BYTE   W36
 BYTE   N24  Fn3
 BYTE   W24
 BYTE   Ds3
 BYTE   W24
 BYTE   N12  Cn3  v108
 BYTE   W08
 BYTE   N15  As2
 BYTE   W04
// 007   ----------------------------------------
 BYTE   W12
 BYTE   N54  Cn3
 BYTE   W56
 BYTE   W02
 BYTE   N12  Gn2  v127
 BYTE   W08
 BYTE   As2
 BYTE   W08
 BYTE   Gn2
 BYTE   W09
 BYTE   N96  Cn3  v108
 BYTE   W01
// 008   ----------------------------------------
 BYTE   W96
// 009   ----------------------------------------
 BYTE   W92
 BYTE   W03
 BYTE   N07  Cn4  v127
 BYTE   W01
// 010   ----------------------------------------
Label_4_01057515:
 BYTE   N08  Gn3  v127
 BYTE   W44
 BYTE   W03
 BYTE   N06  Cn4
 BYTE   W01
 BYTE   N08  Gn3
 BYTE   W44
 BYTE   W03
 BYTE   N15  Ds4
 BYTE   W01
 BYTE   PEND 
// 011   ----------------------------------------
 BYTE   As3
 BYTE   W15
 BYTE   N08  Gn3
 BYTE   N08  Cn4
 BYTE   W08
 BYTE   N07  Ds4
 BYTE   W01
 BYTE   N15  As3
 BYTE   W15
 BYTE   N08  Cn4
 BYTE   N08  Fn4
 BYTE   W23
 BYTE   N32  Dn4
 BYTE   N32  Gn4
 BYTE   W32
 BYTE   W01
 BYTE   N06  Cn4
 BYTE   W01
 BYTE   PATT
  POIN2 Label_4_01057515
// 012   ----------------------------------------
 BYTE   N15  As3  v127
 BYTE   W15
 BYTE   N04  Gn3
 BYTE   N08  Cn4
 BYTE   W08
 BYTE   N15  Ds4
 BYTE   W01
 BYTE   As3
 BYTE   W15
 BYTE   N08  Cn4
 BYTE   N08  Fn4
 BYTE   W23
 BYTE   N32  Dn4
 BYTE   N32  Gn4
 BYTE   W32
 BYTE   W02
// 013   ----------------------------------------
 BYTE   W96
// 014   ----------------------------------------
 BYTE   W96
// 015   ----------------------------------------
 BYTE   W96
// 016   ----------------------------------------
 BYTE   W96
// 017   ----------------------------------------
 BYTE   W96
// 018   ----------------------------------------
 BYTE   W68
 BYTE   W03
 BYTE   N12  Gn3
 BYTE   W08
 BYTE   Cn4
 BYTE   W08
 BYTE   Ds4
 BYTE   W08
 BYTE   N24  Fs4
 BYTE   W01
// 019   ----------------------------------------
 BYTE   W23
 BYTE   N15  Fn4
 BYTE   W16
 BYTE   N12  Ds4
 BYTE   W24
 BYTE   N24  Cn4
 BYTE   W24
 BYTE   N08  As3
 BYTE   W08
 BYTE   N48  Cn4
 BYTE   W01
// 020   ----------------------------------------
 BYTE   W68
 BYTE   W03
 BYTE   N15  Ds4
 BYTE   W16
 BYTE   N56  Cn4
 BYTE   W09
// 021   ----------------------------------------
 BYTE   W68
 BYTE   W03
 BYTE   N15  As3
 BYTE   W16
 BYTE   N56  Cn4
 BYTE   W09
// 022   ----------------------------------------
 BYTE   W68
 BYTE   W03
 BYTE   N12  Gn3
 BYTE   W08
 BYTE   Cn4
 BYTE   W08
 BYTE   Fn4
 BYTE   W09
// 023   ----------------------------------------
 BYTE   N24  Ds4
 BYTE   W24
 BYTE   N15  Cn4
 BYTE   W15
 BYTE   N12  Ds4
 BYTE   W24
 BYTE   N24  Fn4
 BYTE   W24
 BYTE   Dn4
 BYTE   W09
// 024   ----------------------------------------
 BYTE   W15
 BYTE   As3
 BYTE   W24
 BYTE   Fn3
 BYTE   W24
 BYTE   As3
 BYTE   W24
 BYTE   TIE  Gn3
 BYTE   W09
// 025   ----------------------------------------
 BYTE   W96
// 026   ----------------------------------------
 BYTE   W44
 BYTE   W03
 BYTE   EOT
 BYTE   W01
 BYTE   GoTo
  POIN2 Label_4_010574D6
 BYTE   FINE

//**************** Track 6 (Midi-Chn.5) ****************//

PokemonColosseumPyriteTownAReliableChair_006:
// 000   ----------------------------------------
 BYTE   KEYSH   PokemonColosseumPyriteTownAReliableChair_key+0
Label_5_010575D2:
 BYTE   VOICE   121
 BYTE   MODT 0
 BYTE   CnM2
 BYTE   LFOS 0
 BYTE   Gs1
 BYTE   VOL   61*PokemonColosseumPyriteTownAReliableChair_mvl/mxv
 BYTE   W24
 BYTE   N06  Cs1  v088
 BYTE   W48
 BYTE   N06
 BYTE   W24
// 001   ----------------------------------------
Label_5_010575E1:
 BYTE   W24
 BYTE   N06  Cs1  v088
 BYTE   W48
 BYTE   N06
 BYTE   W24
 BYTE   PEND 
 BYTE   PATT
  POIN2 Label_5_010575E1
 BYTE   PATT
  POIN2 Label_5_010575E1
// 002   ----------------------------------------
Label_5_010575F3:
 BYTE   N06  Gs1  v088
 BYTE   W24
 BYTE   Cs1
 BYTE   W24
 BYTE   Gs1
 BYTE   W24
 BYTE   Cs1
 BYTE   W24
 BYTE   PEND 
 BYTE   PATT
  POIN2 Label_5_010575F3
 BYTE   PATT
  POIN2 Label_5_010575F3
 BYTE   PATT
  POIN2 Label_5_010575F3
 BYTE   PATT
  POIN2 Label_5_010575F3
 BYTE   PATT
  POIN2 Label_5_010575F3
// 003   ----------------------------------------
 BYTE   N06  Gs1  v088
 BYTE   W07
 BYTE   N06
 BYTE   W07
 BYTE   N06
 BYTE   W10
 BYTE   N24  As1
 BYTE   W24
 BYTE   N06  Gs1
 BYTE   W07
 BYTE   N06
 BYTE   W07
 BYTE   N06
 BYTE   W10
 BYTE   N24  As1
 BYTE   W24
// 004   ----------------------------------------
 BYTE   N06  Gs1
 BYTE   W07
 BYTE   N06
 BYTE   W07
 BYTE   N06
 BYTE   W10
 BYTE   N24  As1
 BYTE   W48
 BYTE   N24
 BYTE   W24
// 005   ----------------------------------------
 BYTE   N06  Gs1
 BYTE   W07
 BYTE   N06
 BYTE   W08
 BYTE   N06
 BYTE   W09
 BYTE   N24  As1
 BYTE   W24
 BYTE   N06  Gs1
 BYTE   W07
 BYTE   N06
 BYTE   W08
 BYTE   N06
 BYTE   W09
 BYTE   N24  As1
 BYTE   W24
// 006   ----------------------------------------
 BYTE   N06  Gs1
 BYTE   W07
 BYTE   N06
 BYTE   W08
 BYTE   N06
 BYTE   W09
 BYTE   N24  As1
 BYTE   W48
 BYTE   N24
 BYTE   W24
// 007   ----------------------------------------
Label_5_01057658:
 BYTE   N06  Ds2  v088
 BYTE   W24
 BYTE   Cs1
 BYTE   W15
 BYTE   N05  Ds2
 BYTE   W09
 BYTE   N06
 BYTE   W24
 BYTE   Cs1
 BYTE   W15
 BYTE   Ds2
 BYTE   W09
 BYTE   PEND 
// 008   ----------------------------------------
Label_5_01057668:
 BYTE   N06  Ds2  v088
 BYTE   W24
 BYTE   Cs1
 BYTE   W15
 BYTE   Ds2
 BYTE   W09
 BYTE   N06
 BYTE   W24
 BYTE   Cs1
 BYTE   W15
 BYTE   Ds2
 BYTE   W09
 BYTE   PEND 
 BYTE   PATT
  POIN2 Label_5_010575F3
 BYTE   PATT
  POIN2 Label_5_010575F3
 BYTE   PATT
  POIN2 Label_5_010575F3
 BYTE   PATT
  POIN2 Label_5_010575F3
 BYTE   PATT
  POIN2 Label_5_01057668
// 009   ----------------------------------------
Label_5_01057690:
 BYTE   N06  Ds2  v088
 BYTE   W24
 BYTE   Cs1
 BYTE   W15
 BYTE   Ds2
 BYTE   W09
 BYTE   N06
 BYTE   W24
 BYTE   Cs1
 BYTE   W14
 BYTE   Ds2
 BYTE   W10
 BYTE   PEND 
// 010   ----------------------------------------
Label_5_0105769F:
 BYTE   N06  Ds2  v088
 BYTE   W24
 BYTE   Cs1
 BYTE   W14
 BYTE   Ds2
 BYTE   W10
 BYTE   N06
 BYTE   W24
 BYTE   Cs1
 BYTE   W14
 BYTE   Ds2
 BYTE   W10
 BYTE   PEND 
 BYTE   PATT
  POIN2 Label_5_0105769F
 BYTE   PATT
  POIN2 Label_5_01057658
 BYTE   PATT
  POIN2 Label_5_01057668
 BYTE   PATT
  POIN2 Label_5_01057690
// 011   ----------------------------------------
 BYTE   N06  Ds2  v088
 BYTE   W24
 BYTE   Cs1
 BYTE   W14
 BYTE   Ds2
 BYTE   W10
 BYTE   GoTo
  POIN2 Label_5_010575D2
 BYTE   FINE

//******************************************************//
	ALIGN 4

PokemonColosseumPyriteTownAReliableChair:
	BYTE	6	// NumTrks
	BYTE	0	// NumBlks
	BYTE	PokemonColosseumPyriteTownAReliableChair_pri	// Priority
	BYTE	PokemonColosseumPyriteTownAReliableChair_rev	// Reverb.
    
	POIN2	PokemonColosseumPyriteTownAReliableChair_grp
    
	POIN2	PokemonColosseumPyriteTownAReliableChair_001
	POIN2	PokemonColosseumPyriteTownAReliableChair_002
	POIN2	PokemonColosseumPyriteTownAReliableChair_003
	POIN2	PokemonColosseumPyriteTownAReliableChair_004
	POIN2	PokemonColosseumPyriteTownAReliableChair_005
	POIN2	PokemonColosseumPyriteTownAReliableChair_006

	
