	.include "MPlayDef.s"

	.equ	PokemonMysteryDungeonExplorersofSkyInTheMorningSun_grp, voicegroup000
	.equ	PokemonMysteryDungeonExplorersofSkyInTheMorningSun_pri, 0
	.equ	PokemonMysteryDungeonExplorersofSkyInTheMorningSun_rev, 0
	.equ	PokemonMysteryDungeonExplorersofSkyInTheMorningSun_mvl, 127
	.equ	PokemonMysteryDungeonExplorersofSkyInTheMorningSun_key, 0
	.equ	PokemonMysteryDungeonExplorersofSkyInTheMorningSun_tbs, 1
	.equ	PokemonMysteryDungeonExplorersofSkyInTheMorningSun_exg, 0
	.equ	PokemonMysteryDungeonExplorersofSkyInTheMorningSun_cmp, 1

	.section .rodata
	.global	PokemonMysteryDungeonExplorersofSkyInTheMorningSun
	.align	2


@**************** Track 1 (Midi-Chn.0) ****************@

PokemonMysteryDungeonExplorersofSkyInTheMorningSun_001:
@  #01 @000   ----------------------------------------
 .byte   KEYSH , PokemonMysteryDungeonExplorersofSkyInTheMorningSun_key+0
 .byte   TEMPO , 152*PokemonMysteryDungeonExplorersofSkyInTheMorningSun_tbs/2
 .byte   VOICE , 40
 .byte   MODT 0
 .byte   LFOS 44
 .byte   VOL , 34*PokemonMysteryDungeonExplorersofSkyInTheMorningSun_mvl/mxv
 .byte   PAN , c_v+0
 .byte   VOL , 34*PokemonMysteryDungeonExplorersofSkyInTheMorningSun_mvl/mxv
 .byte   BEND , c_v+0
 .byte   W96
@  #01 @001   ----------------------------------------
 .byte   W96
@  #01 @002   ----------------------------------------
 .byte   W96
@  #01 @003   ----------------------------------------
 .byte   W96
@  #01 @004   ----------------------------------------
 .byte   W96
@  #01 @005   ----------------------------------------
 .byte   W96
@  #01 @006   ----------------------------------------
 .byte   W96
@  #01 @007   ----------------------------------------
 .byte   W96
@  #01 @008   ----------------------------------------
Label_016859AA:
 .byte   W24
 .byte   VOL , 11*PokemonMysteryDungeonExplorersofSkyInTheMorningSun_mvl/mxv
 .byte   N92 ,Gn1 ,v084
 .byte   N92 ,An3 ,v060
 .byte   W06
 .byte   VOL , 16*PokemonMysteryDungeonExplorersofSkyInTheMorningSun_mvl/mxv
 .byte   W06
 .byte   VOL , 20*PokemonMysteryDungeonExplorersofSkyInTheMorningSun_mvl/mxv
 .byte   W06
 .byte   VOL , 24*PokemonMysteryDungeonExplorersofSkyInTheMorningSun_mvl/mxv
 .byte   W06
 .byte   VOL , 27*PokemonMysteryDungeonExplorersofSkyInTheMorningSun_mvl/mxv
 .byte   W06
 .byte   VOL , 30*PokemonMysteryDungeonExplorersofSkyInTheMorningSun_mvl/mxv
 .byte   W06
 .byte   VOL , 32*PokemonMysteryDungeonExplorersofSkyInTheMorningSun_mvl/mxv
 .byte   W06
 .byte   VOL , 34*PokemonMysteryDungeonExplorersofSkyInTheMorningSun_mvl/mxv
 .byte   W24
 .byte   W02
 .byte   VOL , 32*PokemonMysteryDungeonExplorersofSkyInTheMorningSun_mvl/mxv
 .byte   W04
 .byte   PEND 
@  #01 @009   ----------------------------------------
Label_016859C7:
 .byte   W08
 .byte   VOL , 30*PokemonMysteryDungeonExplorersofSkyInTheMorningSun_mvl/mxv
 .byte   W06
 .byte   VOL , 30*PokemonMysteryDungeonExplorersofSkyInTheMorningSun_mvl/mxv
 .byte   W06
 .byte   VOL , 28*PokemonMysteryDungeonExplorersofSkyInTheMorningSun_mvl/mxv
 .byte   W01
 .byte   VOL , 27*PokemonMysteryDungeonExplorersofSkyInTheMorningSun_mvl/mxv
 .byte   W03
 .byte   N92 ,An1 ,v084
 .byte   N92 ,Gn3 ,v060
 .byte   W03
 .byte   VOL , 27*PokemonMysteryDungeonExplorersofSkyInTheMorningSun_mvl/mxv
 .byte   W06
 .byte   VOL , 28*PokemonMysteryDungeonExplorersofSkyInTheMorningSun_mvl/mxv
 .byte   W06
 .byte   VOL , 32*PokemonMysteryDungeonExplorersofSkyInTheMorningSun_mvl/mxv
 .byte   W05
 .byte   VOL , 34*PokemonMysteryDungeonExplorersofSkyInTheMorningSun_mvl/mxv
 .byte   W40
 .byte   W01
 .byte   VOL , 34*PokemonMysteryDungeonExplorersofSkyInTheMorningSun_mvl/mxv
 .byte   W11
 .byte   PEND 
@  #01 @010   ----------------------------------------
Label_016859E5:
 .byte   W01
 .byte   VOL , 34*PokemonMysteryDungeonExplorersofSkyInTheMorningSun_mvl/mxv
 .byte   W06
 .byte   VOL , 33*PokemonMysteryDungeonExplorersofSkyInTheMorningSun_mvl/mxv
 .byte   W06
 .byte   VOL , 31*PokemonMysteryDungeonExplorersofSkyInTheMorningSun_mvl/mxv
 .byte   W06
 .byte   VOL , 30*PokemonMysteryDungeonExplorersofSkyInTheMorningSun_mvl/mxv
 .byte   W04
 .byte   VOL , 26*PokemonMysteryDungeonExplorersofSkyInTheMorningSun_mvl/mxv
 .byte   W01
 .byte   N92 ,Bn1 ,v084
 .byte   TIE ,Fs3 ,v060
 .byte   W05
 .byte   VOL , 28*PokemonMysteryDungeonExplorersofSkyInTheMorningSun_mvl/mxv
 .byte   W06
 .byte   VOL , 30*PokemonMysteryDungeonExplorersofSkyInTheMorningSun_mvl/mxv
 .byte   W06
 .byte   VOL , 30*PokemonMysteryDungeonExplorersofSkyInTheMorningSun_mvl/mxv
 .byte   W06
 .byte   VOL , 32*PokemonMysteryDungeonExplorersofSkyInTheMorningSun_mvl/mxv
 .byte   W06
 .byte   VOL , 33*PokemonMysteryDungeonExplorersofSkyInTheMorningSun_mvl/mxv
 .byte   W06
 .byte   VOL , 34*PokemonMysteryDungeonExplorersofSkyInTheMorningSun_mvl/mxv
 .byte   W06
 .byte   VOL , 34*PokemonMysteryDungeonExplorersofSkyInTheMorningSun_mvl/mxv
 .byte   W30
 .byte   W01
 .byte   PEND 
@  #01 @011   ----------------------------------------
Label_01685A09:
 .byte   W24
 .byte   N92 ,An1 ,v084
 .byte   W32
 .byte   VOL , 32*PokemonMysteryDungeonExplorersofSkyInTheMorningSun_mvl/mxv
 .byte   W24
 .byte   VOL , 32*PokemonMysteryDungeonExplorersofSkyInTheMorningSun_mvl/mxv
 .byte   W12
 .byte   VOL , 31*PokemonMysteryDungeonExplorersofSkyInTheMorningSun_mvl/mxv
 .byte   W04
 .byte   PEND 
@  #01 @012   ----------------------------------------
Label_01685A16:
 .byte   W02
 .byte   VOL , 30*PokemonMysteryDungeonExplorersofSkyInTheMorningSun_mvl/mxv
 .byte   W06
 .byte   VOL , 30*PokemonMysteryDungeonExplorersofSkyInTheMorningSun_mvl/mxv
 .byte   W06
 .byte   VOL , 30*PokemonMysteryDungeonExplorersofSkyInTheMorningSun_mvl/mxv
 .byte   W06
 .byte   VOL , 29*PokemonMysteryDungeonExplorersofSkyInTheMorningSun_mvl/mxv
 .byte   W03
 .byte   PEND 
 .byte   EOT
 .byte   Fs3
 .byte   W01
 .byte   TIE ,Gn1 ,v084
 .byte   TIE ,Fs3 ,v060
 .byte   W02
 .byte   VOL , 28*PokemonMysteryDungeonExplorersofSkyInTheMorningSun_mvl/mxv
 .byte   W01
 .byte   VOL , 28*PokemonMysteryDungeonExplorersofSkyInTheMorningSun_mvl/mxv
 .byte   W02
 .byte   VOL , 29*PokemonMysteryDungeonExplorersofSkyInTheMorningSun_mvl/mxv
 .byte   W06
 .byte   VOL , 30*PokemonMysteryDungeonExplorersofSkyInTheMorningSun_mvl/mxv
 .byte   W06
 .byte   VOL , 31*PokemonMysteryDungeonExplorersofSkyInTheMorningSun_mvl/mxv
 .byte   W06
 .byte   VOL , 32*PokemonMysteryDungeonExplorersofSkyInTheMorningSun_mvl/mxv
 .byte   W06
 .byte   VOL , 33*PokemonMysteryDungeonExplorersofSkyInTheMorningSun_mvl/mxv
 .byte   W06
 .byte   VOL , 34*PokemonMysteryDungeonExplorersofSkyInTheMorningSun_mvl/mxv
 .byte   W36
 .byte   W01
@  #01 @013   ----------------------------------------
Label_01685A3D:
 .byte   W60
 .byte   W02
 .byte   VOL , 32*PokemonMysteryDungeonExplorersofSkyInTheMorningSun_mvl/mxv
 .byte   W24
 .byte   VOL , 31*PokemonMysteryDungeonExplorersofSkyInTheMorningSun_mvl/mxv
 .byte   W06
 .byte   VOL , 30*PokemonMysteryDungeonExplorersofSkyInTheMorningSun_mvl/mxv
 .byte   W04
 .byte   PEND 
@  #01 @014   ----------------------------------------
Label_01685A47:
 .byte   W02
 .byte   VOL , 30*PokemonMysteryDungeonExplorersofSkyInTheMorningSun_mvl/mxv
 .byte   W06
 .byte   VOL , 30*PokemonMysteryDungeonExplorersofSkyInTheMorningSun_mvl/mxv
 .byte   W06
 .byte   VOL , 29*PokemonMysteryDungeonExplorersofSkyInTheMorningSun_mvl/mxv
 .byte   W06
 .byte   VOL , 28*PokemonMysteryDungeonExplorersofSkyInTheMorningSun_mvl/mxv
 .byte   W03
 .byte   PEND 
 .byte   EOT
 .byte   Gn1 ,v066
 .byte   W01
 .byte   VOL , 27*PokemonMysteryDungeonExplorersofSkyInTheMorningSun_mvl/mxv
 .byte   TIE ,An1 ,v084
 .byte   N92 ,Fs3 ,v060
 .byte   W01
 .byte   VOL , 26*PokemonMysteryDungeonExplorersofSkyInTheMorningSun_mvl/mxv
 .byte   W06
 .byte   VOL , 30*PokemonMysteryDungeonExplorersofSkyInTheMorningSun_mvl/mxv
 .byte   W06
 .byte   VOL , 32*PokemonMysteryDungeonExplorersofSkyInTheMorningSun_mvl/mxv
 .byte   W06
 .byte   VOL , 34*PokemonMysteryDungeonExplorersofSkyInTheMorningSun_mvl/mxv
 .byte   W06
 .byte   VOL , 34*PokemonMysteryDungeonExplorersofSkyInTheMorningSun_mvl/mxv
 .byte   W42
 .byte   W01
 .byte   VOL , 33*PokemonMysteryDungeonExplorersofSkyInTheMorningSun_mvl/mxv
 .byte   W04
@  #01 @015   ----------------------------------------
Label_01685A6D:
 .byte   W08
 .byte   VOL , 32*PokemonMysteryDungeonExplorersofSkyInTheMorningSun_mvl/mxv
 .byte   W06
 .byte   VOL , 30*PokemonMysteryDungeonExplorersofSkyInTheMorningSun_mvl/mxv
 .byte   W06
 .byte   VOL , 30*PokemonMysteryDungeonExplorersofSkyInTheMorningSun_mvl/mxv
 .byte   W04
 .byte   TIE ,En3 ,v060
 .byte   W02
 .byte   VOL , 27*PokemonMysteryDungeonExplorersofSkyInTheMorningSun_mvl/mxv
 .byte   W07
 .byte   VOL , 28*PokemonMysteryDungeonExplorersofSkyInTheMorningSun_mvl/mxv
 .byte   W06
 .byte   VOL , 31*PokemonMysteryDungeonExplorersofSkyInTheMorningSun_mvl/mxv
 .byte   W06
 .byte   VOL , 34*PokemonMysteryDungeonExplorersofSkyInTheMorningSun_mvl/mxv
 .byte   W06
 .byte   VOL , 34*PokemonMysteryDungeonExplorersofSkyInTheMorningSun_mvl/mxv
 .byte   W44
 .byte   W01
 .byte   PEND 
@  #01 @016   ----------------------------------------
Label_01685A86:
 .byte   W24
 .byte   VOL , 34*PokemonMysteryDungeonExplorersofSkyInTheMorningSun_mvl/mxv
 .byte   W06
 .byte   VOL , 32*PokemonMysteryDungeonExplorersofSkyInTheMorningSun_mvl/mxv
 .byte   W06
 .byte   VOL , 30*PokemonMysteryDungeonExplorersofSkyInTheMorningSun_mvl/mxv
 .byte   W06
 .byte   VOL , 30*PokemonMysteryDungeonExplorersofSkyInTheMorningSun_mvl/mxv
 .byte   W06
 .byte   VOL , 28*PokemonMysteryDungeonExplorersofSkyInTheMorningSun_mvl/mxv
 .byte   W06
 .byte   VOL , 27*PokemonMysteryDungeonExplorersofSkyInTheMorningSun_mvl/mxv
 .byte   W06
 .byte   VOL , 26*PokemonMysteryDungeonExplorersofSkyInTheMorningSun_mvl/mxv
 .byte   W06
 .byte   VOL , 23*PokemonMysteryDungeonExplorersofSkyInTheMorningSun_mvl/mxv
 .byte   W06
 .byte   VOL , 22*PokemonMysteryDungeonExplorersofSkyInTheMorningSun_mvl/mxv
 .byte   W06
 .byte   VOL , 21*PokemonMysteryDungeonExplorersofSkyInTheMorningSun_mvl/mxv
 .byte   W06
 .byte   VOL , 20*PokemonMysteryDungeonExplorersofSkyInTheMorningSun_mvl/mxv
 .byte   W06
 .byte   VOL , 19*PokemonMysteryDungeonExplorersofSkyInTheMorningSun_mvl/mxv
 .byte   W06
 .byte   PEND 
@  #01 @017   ----------------------------------------
Label_01685AA1:
 .byte   VOL , 18*PokemonMysteryDungeonExplorersofSkyInTheMorningSun_mvl/mxv
 .byte   W06
 .byte   VOL , 17*PokemonMysteryDungeonExplorersofSkyInTheMorningSun_mvl/mxv
 .byte   W06
 .byte   VOL , 15*PokemonMysteryDungeonExplorersofSkyInTheMorningSun_mvl/mxv
 .byte   W06
 .byte   VOL , 14*PokemonMysteryDungeonExplorersofSkyInTheMorningSun_mvl/mxv
 .byte   W06
 .byte   VOL , 13*PokemonMysteryDungeonExplorersofSkyInTheMorningSun_mvl/mxv
 .byte   W06
 .byte   VOL , 11*PokemonMysteryDungeonExplorersofSkyInTheMorningSun_mvl/mxv
 .byte   W06
 .byte   VOL , 11*PokemonMysteryDungeonExplorersofSkyInTheMorningSun_mvl/mxv
 .byte   W06
 .byte   VOL , 10*PokemonMysteryDungeonExplorersofSkyInTheMorningSun_mvl/mxv
 .byte   W06
 .byte   VOL , 9*PokemonMysteryDungeonExplorersofSkyInTheMorningSun_mvl/mxv
 .byte   W06
 .byte   VOL , 8*PokemonMysteryDungeonExplorersofSkyInTheMorningSun_mvl/mxv
 .byte   W06
 .byte   VOL , 7*PokemonMysteryDungeonExplorersofSkyInTheMorningSun_mvl/mxv
 .byte   W06
 .byte   VOL , 6*PokemonMysteryDungeonExplorersofSkyInTheMorningSun_mvl/mxv
 .byte   W06
 .byte   VOL , 6*PokemonMysteryDungeonExplorersofSkyInTheMorningSun_mvl/mxv
 .byte   W06
 .byte   VOL , 5*PokemonMysteryDungeonExplorersofSkyInTheMorningSun_mvl/mxv
 .byte   W06
 .byte   VOL , 4*PokemonMysteryDungeonExplorersofSkyInTheMorningSun_mvl/mxv
 .byte   W06
 .byte   VOL , 3*PokemonMysteryDungeonExplorersofSkyInTheMorningSun_mvl/mxv
 .byte   W06
 .byte   PEND 
@  #01 @018   ----------------------------------------
Label_01685AC3:
 .byte   VOL , 3*PokemonMysteryDungeonExplorersofSkyInTheMorningSun_mvl/mxv
 .byte   W06
 .byte   VOL , 2*PokemonMysteryDungeonExplorersofSkyInTheMorningSun_mvl/mxv
 .byte   W06
 .byte   VOL , 1*PokemonMysteryDungeonExplorersofSkyInTheMorningSun_mvl/mxv
 .byte   W11
 .byte   PEND 
 .byte   EOT
 .byte   An1 ,v064
 .byte   W01
Label_01685ACF:
 .byte   W72
@  #01 @019   ----------------------------------------
 .byte   W96
@  #01 @020   ----------------------------------------
 .byte   W96
@  #01 @021   ----------------------------------------
 .byte   W96
@  #01 @022   ----------------------------------------
 .byte   W96
@  #01 @023   ----------------------------------------
 .byte   W96
@  #01 @024   ----------------------------------------
 .byte   W96
@  #01 @025   ----------------------------------------
 .byte   W96
@  #01 @026   ----------------------------------------
 .byte   W96
@  #01 @027   ----------------------------------------
 .byte   W96
@  #01 @028   ----------------------------------------
 .byte   W96
@  #01 @029   ----------------------------------------
 .byte   W96
@  #01 @030   ----------------------------------------
 .byte   W96
@  #01 @031   ----------------------------------------
 .byte   W96
@  #01 @032   ----------------------------------------
 .byte   W96
@  #01 @033   ----------------------------------------
 .byte   W96
@  #01 @034   ----------------------------------------
 .byte   W24
 .byte   VOL , 20*PokemonMysteryDungeonExplorersofSkyInTheMorningSun_mvl/mxv
 .byte   TIE ,As2 ,v088
 .byte   TIE ,An3
 .byte   W06
 .byte   VOL , 20*PokemonMysteryDungeonExplorersofSkyInTheMorningSun_mvl/mxv
 .byte   W06
 .byte   VOL , 20*PokemonMysteryDungeonExplorersofSkyInTheMorningSun_mvl/mxv
 .byte   W06
 .byte   VOL , 21*PokemonMysteryDungeonExplorersofSkyInTheMorningSun_mvl/mxv
 .byte   W06
 .byte   VOL , 21*PokemonMysteryDungeonExplorersofSkyInTheMorningSun_mvl/mxv
 .byte   W06
 .byte   VOL , 22*PokemonMysteryDungeonExplorersofSkyInTheMorningSun_mvl/mxv
 .byte   W06
 .byte   VOL , 22*PokemonMysteryDungeonExplorersofSkyInTheMorningSun_mvl/mxv
 .byte   W06
 .byte   VOL , 23*PokemonMysteryDungeonExplorersofSkyInTheMorningSun_mvl/mxv
 .byte   W06
 .byte   VOL , 23*PokemonMysteryDungeonExplorersofSkyInTheMorningSun_mvl/mxv
 .byte   W06
 .byte   VOL , 23*PokemonMysteryDungeonExplorersofSkyInTheMorningSun_mvl/mxv
 .byte   W06
 .byte   VOL , 24*PokemonMysteryDungeonExplorersofSkyInTheMorningSun_mvl/mxv
 .byte   W06
 .byte   VOL , 24*PokemonMysteryDungeonExplorersofSkyInTheMorningSun_mvl/mxv
 .byte   W06
@  #01 @035   ----------------------------------------
 .byte   VOL , 26*PokemonMysteryDungeonExplorersofSkyInTheMorningSun_mvl/mxv
 .byte   W06
 .byte   VOL , 26*PokemonMysteryDungeonExplorersofSkyInTheMorningSun_mvl/mxv
 .byte   W06
 .byte   VOL , 26*PokemonMysteryDungeonExplorersofSkyInTheMorningSun_mvl/mxv
 .byte   W06
 .byte   VOL , 27*PokemonMysteryDungeonExplorersofSkyInTheMorningSun_mvl/mxv
 .byte   W06
 .byte   VOL , 27*PokemonMysteryDungeonExplorersofSkyInTheMorningSun_mvl/mxv
 .byte   W06
 .byte   VOL , 27*PokemonMysteryDungeonExplorersofSkyInTheMorningSun_mvl/mxv
 .byte   W06
 .byte   VOL , 28*PokemonMysteryDungeonExplorersofSkyInTheMorningSun_mvl/mxv
 .byte   W06
 .byte   VOL , 28*PokemonMysteryDungeonExplorersofSkyInTheMorningSun_mvl/mxv
 .byte   W06
 .byte   VOL , 29*PokemonMysteryDungeonExplorersofSkyInTheMorningSun_mvl/mxv
 .byte   W06
 .byte   VOL , 30*PokemonMysteryDungeonExplorersofSkyInTheMorningSun_mvl/mxv
 .byte   W06
 .byte   VOL , 30*PokemonMysteryDungeonExplorersofSkyInTheMorningSun_mvl/mxv
 .byte   W06
 .byte   VOL , 30*PokemonMysteryDungeonExplorersofSkyInTheMorningSun_mvl/mxv
 .byte   W06
 .byte   VOL , 31*PokemonMysteryDungeonExplorersofSkyInTheMorningSun_mvl/mxv
 .byte   W06
 .byte   VOL , 32*PokemonMysteryDungeonExplorersofSkyInTheMorningSun_mvl/mxv
 .byte   W06
 .byte   VOL , 32*PokemonMysteryDungeonExplorersofSkyInTheMorningSun_mvl/mxv
 .byte   W06
 .byte   VOL , 33*PokemonMysteryDungeonExplorersofSkyInTheMorningSun_mvl/mxv
 .byte   W06
@  #01 @036   ----------------------------------------
 .byte   VOL , 34*PokemonMysteryDungeonExplorersofSkyInTheMorningSun_mvl/mxv
 .byte   W06
 .byte   VOL , 34*PokemonMysteryDungeonExplorersofSkyInTheMorningSun_mvl/mxv
 .byte   W12
 .byte   VOL , 34*PokemonMysteryDungeonExplorersofSkyInTheMorningSun_mvl/mxv
 .byte   W05
 .byte   EOT
 .byte   As2 ,v069
 .byte   W01
 .byte   VOL , 33*PokemonMysteryDungeonExplorersofSkyInTheMorningSun_mvl/mxv
 .byte   TIE ,An2
 .byte   TIE ,An3
 .byte   W06
 .byte   VOL , 32*PokemonMysteryDungeonExplorersofSkyInTheMorningSun_mvl/mxv
 .byte   W06
 .byte   VOL , 32*PokemonMysteryDungeonExplorersofSkyInTheMorningSun_mvl/mxv
 .byte   W12
 .byte   VOL , 31*PokemonMysteryDungeonExplorersofSkyInTheMorningSun_mvl/mxv
 .byte   W06
 .byte   VOL , 30*PokemonMysteryDungeonExplorersofSkyInTheMorningSun_mvl/mxv
 .byte   W06
 .byte   VOL , 30*PokemonMysteryDungeonExplorersofSkyInTheMorningSun_mvl/mxv
 .byte   W06
 .byte   VOL , 30*PokemonMysteryDungeonExplorersofSkyInTheMorningSun_mvl/mxv
 .byte   W06
 .byte   VOL , 30*PokemonMysteryDungeonExplorersofSkyInTheMorningSun_mvl/mxv
 .byte   W06
 .byte   VOL , 29*PokemonMysteryDungeonExplorersofSkyInTheMorningSun_mvl/mxv
 .byte   W06
 .byte   VOL , 28*PokemonMysteryDungeonExplorersofSkyInTheMorningSun_mvl/mxv
 .byte   W06
 .byte   VOL , 28*PokemonMysteryDungeonExplorersofSkyInTheMorningSun_mvl/mxv
 .byte   W06
@  #01 @037   ----------------------------------------
 .byte   VOL , 28*PokemonMysteryDungeonExplorersofSkyInTheMorningSun_mvl/mxv
 .byte   W06
 .byte   VOL , 27*PokemonMysteryDungeonExplorersofSkyInTheMorningSun_mvl/mxv
 .byte   W12
 .byte   VOL , 27*PokemonMysteryDungeonExplorersofSkyInTheMorningSun_mvl/mxv
 .byte   W06
 .byte   VOL , 27*PokemonMysteryDungeonExplorersofSkyInTheMorningSun_mvl/mxv
 .byte   W06
 .byte   VOL , 26*PokemonMysteryDungeonExplorersofSkyInTheMorningSun_mvl/mxv
 .byte   W06
 .byte   VOL , 26*PokemonMysteryDungeonExplorersofSkyInTheMorningSun_mvl/mxv
 .byte   W06
 .byte   VOL , 26*PokemonMysteryDungeonExplorersofSkyInTheMorningSun_mvl/mxv
 .byte   W06
 .byte   VOL , 25*PokemonMysteryDungeonExplorersofSkyInTheMorningSun_mvl/mxv
 .byte   W06
 .byte   VOL , 24*PokemonMysteryDungeonExplorersofSkyInTheMorningSun_mvl/mxv
 .byte   W06
 .byte   VOL , 24*PokemonMysteryDungeonExplorersofSkyInTheMorningSun_mvl/mxv
 .byte   W06
 .byte   VOL , 23*PokemonMysteryDungeonExplorersofSkyInTheMorningSun_mvl/mxv
 .byte   W12
 .byte   VOL , 23*PokemonMysteryDungeonExplorersofSkyInTheMorningSun_mvl/mxv
 .byte   W06
 .byte   VOL , 23*PokemonMysteryDungeonExplorersofSkyInTheMorningSun_mvl/mxv
 .byte   W06
 .byte   VOL , 22*PokemonMysteryDungeonExplorersofSkyInTheMorningSun_mvl/mxv
 .byte   W06
@  #01 @038   ----------------------------------------
Label_01685B61:
 .byte   VOL , 22*PokemonMysteryDungeonExplorersofSkyInTheMorningSun_mvl/mxv
 .byte   W06
 .byte   VOL , 22*PokemonMysteryDungeonExplorersofSkyInTheMorningSun_mvl/mxv
 .byte   W06
 .byte   VOL , 21*PokemonMysteryDungeonExplorersofSkyInTheMorningSun_mvl/mxv
 .byte   W06
 .byte   VOL , 21*PokemonMysteryDungeonExplorersofSkyInTheMorningSun_mvl/mxv
 .byte   W05
 .byte   PEND 
 .byte   EOT
 .byte   An2 ,v069
 .byte   W01
 .byte   VOL , 20*PokemonMysteryDungeonExplorersofSkyInTheMorningSun_mvl/mxv
 .byte   N92 ,Gn2 ,v088
 .byte   N92 ,Fn3
 .byte   W06
 .byte   VOL , 21*PokemonMysteryDungeonExplorersofSkyInTheMorningSun_mvl/mxv
 .byte   W06
 .byte   VOL , 21*PokemonMysteryDungeonExplorersofSkyInTheMorningSun_mvl/mxv
 .byte   W06
 .byte   VOL , 22*PokemonMysteryDungeonExplorersofSkyInTheMorningSun_mvl/mxv
 .byte   W06
 .byte   VOL , 22*PokemonMysteryDungeonExplorersofSkyInTheMorningSun_mvl/mxv
 .byte   W06
 .byte   VOL , 22*PokemonMysteryDungeonExplorersofSkyInTheMorningSun_mvl/mxv
 .byte   W06
 .byte   VOL , 23*PokemonMysteryDungeonExplorersofSkyInTheMorningSun_mvl/mxv
 .byte   W06
 .byte   VOL , 23*PokemonMysteryDungeonExplorersofSkyInTheMorningSun_mvl/mxv
 .byte   W06
 .byte   VOL , 23*PokemonMysteryDungeonExplorersofSkyInTheMorningSun_mvl/mxv
 .byte   W06
 .byte   VOL , 24*PokemonMysteryDungeonExplorersofSkyInTheMorningSun_mvl/mxv
 .byte   W06
 .byte   VOL , 24*PokemonMysteryDungeonExplorersofSkyInTheMorningSun_mvl/mxv
 .byte   W06
 .byte   VOL , 25*PokemonMysteryDungeonExplorersofSkyInTheMorningSun_mvl/mxv
 .byte   W06
@  #01 @039   ----------------------------------------
 .byte   VOL , 26*PokemonMysteryDungeonExplorersofSkyInTheMorningSun_mvl/mxv
 .byte   W06
 .byte   VOL , 26*PokemonMysteryDungeonExplorersofSkyInTheMorningSun_mvl/mxv
 .byte   W06
 .byte   VOL , 26*PokemonMysteryDungeonExplorersofSkyInTheMorningSun_mvl/mxv
 .byte   W06
 .byte   VOL , 27*PokemonMysteryDungeonExplorersofSkyInTheMorningSun_mvl/mxv
 .byte   W06
 .byte   VOL , 27*PokemonMysteryDungeonExplorersofSkyInTheMorningSun_mvl/mxv
 .byte   N92 ,Cn2
 .byte   N92 ,En3
 .byte   W06
 .byte   VOL , 27*PokemonMysteryDungeonExplorersofSkyInTheMorningSun_mvl/mxv
 .byte   W06
 .byte   VOL , 28*PokemonMysteryDungeonExplorersofSkyInTheMorningSun_mvl/mxv
 .byte   W06
 .byte   VOL , 28*PokemonMysteryDungeonExplorersofSkyInTheMorningSun_mvl/mxv
 .byte   W06
 .byte   VOL , 28*PokemonMysteryDungeonExplorersofSkyInTheMorningSun_mvl/mxv
 .byte   W06
 .byte   VOL , 29*PokemonMysteryDungeonExplorersofSkyInTheMorningSun_mvl/mxv
 .byte   W06
 .byte   VOL , 30*PokemonMysteryDungeonExplorersofSkyInTheMorningSun_mvl/mxv
 .byte   W06
 .byte   VOL , 30*PokemonMysteryDungeonExplorersofSkyInTheMorningSun_mvl/mxv
 .byte   W06
 .byte   VOL , 30*PokemonMysteryDungeonExplorersofSkyInTheMorningSun_mvl/mxv
 .byte   W06
 .byte   VOL , 31*PokemonMysteryDungeonExplorersofSkyInTheMorningSun_mvl/mxv
 .byte   W06
 .byte   VOL , 32*PokemonMysteryDungeonExplorersofSkyInTheMorningSun_mvl/mxv
 .byte   W12
@  #01 @040   ----------------------------------------
 .byte   VOL , 32*PokemonMysteryDungeonExplorersofSkyInTheMorningSun_mvl/mxv
 .byte   W06
 .byte   VOL , 34*PokemonMysteryDungeonExplorersofSkyInTheMorningSun_mvl/mxv
 .byte   W06
 .byte   VOL , 34*PokemonMysteryDungeonExplorersofSkyInTheMorningSun_mvl/mxv
 .byte   W06
 .byte   VOL , 34*PokemonMysteryDungeonExplorersofSkyInTheMorningSun_mvl/mxv
 .byte   W06
 .byte   VOL , 34*PokemonMysteryDungeonExplorersofSkyInTheMorningSun_mvl/mxv
 .byte   N92 ,Dn2
 .byte   N92 ,Gn3
 .byte   W06
 .byte   VOL , 34*PokemonMysteryDungeonExplorersofSkyInTheMorningSun_mvl/mxv
 .byte   W06
 .byte   VOL , 34*PokemonMysteryDungeonExplorersofSkyInTheMorningSun_mvl/mxv
 .byte   W06
 .byte   VOL , 33*PokemonMysteryDungeonExplorersofSkyInTheMorningSun_mvl/mxv
 .byte   W06
 .byte   VOL , 32*PokemonMysteryDungeonExplorersofSkyInTheMorningSun_mvl/mxv
 .byte   W06
 .byte   VOL , 32*PokemonMysteryDungeonExplorersofSkyInTheMorningSun_mvl/mxv
 .byte   W06
 .byte   VOL , 31*PokemonMysteryDungeonExplorersofSkyInTheMorningSun_mvl/mxv
 .byte   W06
 .byte   VOL , 30*PokemonMysteryDungeonExplorersofSkyInTheMorningSun_mvl/mxv
 .byte   W06
 .byte   VOL , 30*PokemonMysteryDungeonExplorersofSkyInTheMorningSun_mvl/mxv
 .byte   W06
 .byte   VOL , 30*PokemonMysteryDungeonExplorersofSkyInTheMorningSun_mvl/mxv
 .byte   W06
 .byte   VOL , 30*PokemonMysteryDungeonExplorersofSkyInTheMorningSun_mvl/mxv
 .byte   W12
@  #01 @041   ----------------------------------------
 .byte   VOL , 29*PokemonMysteryDungeonExplorersofSkyInTheMorningSun_mvl/mxv
 .byte   W06
 .byte   VOL , 28*PokemonMysteryDungeonExplorersofSkyInTheMorningSun_mvl/mxv
 .byte   W06
 .byte   VOL , 28*PokemonMysteryDungeonExplorersofSkyInTheMorningSun_mvl/mxv
 .byte   W06
 .byte   VOL , 28*PokemonMysteryDungeonExplorersofSkyInTheMorningSun_mvl/mxv
 .byte   W06
 .byte   VOL , 27*PokemonMysteryDungeonExplorersofSkyInTheMorningSun_mvl/mxv
 .byte   N92 ,Dn2
 .byte   N92 ,Fs3
 .byte   W06
 .byte   VOL , 27*PokemonMysteryDungeonExplorersofSkyInTheMorningSun_mvl/mxv
 .byte   W06
 .byte   VOL , 27*PokemonMysteryDungeonExplorersofSkyInTheMorningSun_mvl/mxv
 .byte   W06
 .byte   VOL , 26*PokemonMysteryDungeonExplorersofSkyInTheMorningSun_mvl/mxv
 .byte   W06
 .byte   VOL , 26*PokemonMysteryDungeonExplorersofSkyInTheMorningSun_mvl/mxv
 .byte   W06
 .byte   VOL , 26*PokemonMysteryDungeonExplorersofSkyInTheMorningSun_mvl/mxv
 .byte   W06
 .byte   VOL , 25*PokemonMysteryDungeonExplorersofSkyInTheMorningSun_mvl/mxv
 .byte   W06
 .byte   VOL , 24*PokemonMysteryDungeonExplorersofSkyInTheMorningSun_mvl/mxv
 .byte   W06
 .byte   VOL , 24*PokemonMysteryDungeonExplorersofSkyInTheMorningSun_mvl/mxv
 .byte   W06
 .byte   VOL , 23*PokemonMysteryDungeonExplorersofSkyInTheMorningSun_mvl/mxv
 .byte   W06
 .byte   VOL , 23*PokemonMysteryDungeonExplorersofSkyInTheMorningSun_mvl/mxv
 .byte   W06
 .byte   VOL , 23*PokemonMysteryDungeonExplorersofSkyInTheMorningSun_mvl/mxv
 .byte   W06
@  #01 @042   ----------------------------------------
 .byte   VOL , 22*PokemonMysteryDungeonExplorersofSkyInTheMorningSun_mvl/mxv
 .byte   W06
 .byte   VOL , 22*PokemonMysteryDungeonExplorersofSkyInTheMorningSun_mvl/mxv
 .byte   W06
 .byte   VOL , 22*PokemonMysteryDungeonExplorersofSkyInTheMorningSun_mvl/mxv
 .byte   W06
 .byte   VOL , 21*PokemonMysteryDungeonExplorersofSkyInTheMorningSun_mvl/mxv
 .byte   W06
 .byte   N92 ,Ds2
 .byte   N92 ,Gn3
 .byte   W06
 .byte   VOL , 22*PokemonMysteryDungeonExplorersofSkyInTheMorningSun_mvl/mxv
 .byte   W06
 .byte   VOL , 22*PokemonMysteryDungeonExplorersofSkyInTheMorningSun_mvl/mxv
 .byte   W06
 .byte   VOL , 22*PokemonMysteryDungeonExplorersofSkyInTheMorningSun_mvl/mxv
 .byte   W06
 .byte   VOL , 23*PokemonMysteryDungeonExplorersofSkyInTheMorningSun_mvl/mxv
 .byte   W06
 .byte   VOL , 23*PokemonMysteryDungeonExplorersofSkyInTheMorningSun_mvl/mxv
 .byte   W06
 .byte   VOL , 23*PokemonMysteryDungeonExplorersofSkyInTheMorningSun_mvl/mxv
 .byte   W06
 .byte   VOL , 24*PokemonMysteryDungeonExplorersofSkyInTheMorningSun_mvl/mxv
 .byte   W06
 .byte   VOL , 24*PokemonMysteryDungeonExplorersofSkyInTheMorningSun_mvl/mxv
 .byte   W06
 .byte   VOL , 25*PokemonMysteryDungeonExplorersofSkyInTheMorningSun_mvl/mxv
 .byte   W06
 .byte   VOL , 26*PokemonMysteryDungeonExplorersofSkyInTheMorningSun_mvl/mxv
 .byte   W06
 .byte   VOL , 26*PokemonMysteryDungeonExplorersofSkyInTheMorningSun_mvl/mxv
 .byte   W06
@  #01 @043   ----------------------------------------
 .byte   VOL , 26*PokemonMysteryDungeonExplorersofSkyInTheMorningSun_mvl/mxv
 .byte   W06
 .byte   VOL , 27*PokemonMysteryDungeonExplorersofSkyInTheMorningSun_mvl/mxv
 .byte   W06
 .byte   VOL , 27*PokemonMysteryDungeonExplorersofSkyInTheMorningSun_mvl/mxv
 .byte   W06
 .byte   VOL , 27*PokemonMysteryDungeonExplorersofSkyInTheMorningSun_mvl/mxv
 .byte   W06
 .byte   VOL , 28*PokemonMysteryDungeonExplorersofSkyInTheMorningSun_mvl/mxv
 .byte   N92 ,Fn2
 .byte   N44 ,Fn3
 .byte   W06
 .byte   VOL , 28*PokemonMysteryDungeonExplorersofSkyInTheMorningSun_mvl/mxv
 .byte   W06
 .byte   VOL , 28*PokemonMysteryDungeonExplorersofSkyInTheMorningSun_mvl/mxv
 .byte   W06
 .byte   VOL , 29*PokemonMysteryDungeonExplorersofSkyInTheMorningSun_mvl/mxv
 .byte   W06
 .byte   VOL , 30*PokemonMysteryDungeonExplorersofSkyInTheMorningSun_mvl/mxv
 .byte   W06
 .byte   VOL , 30*PokemonMysteryDungeonExplorersofSkyInTheMorningSun_mvl/mxv
 .byte   W06
 .byte   VOL , 30*PokemonMysteryDungeonExplorersofSkyInTheMorningSun_mvl/mxv
 .byte   W06
 .byte   VOL , 30*PokemonMysteryDungeonExplorersofSkyInTheMorningSun_mvl/mxv
 .byte   W06
 .byte   VOL , 31*PokemonMysteryDungeonExplorersofSkyInTheMorningSun_mvl/mxv
 .byte   N44 ,An3
 .byte   W06
 .byte   VOL , 32*PokemonMysteryDungeonExplorersofSkyInTheMorningSun_mvl/mxv
 .byte   W06
 .byte   VOL , 32*PokemonMysteryDungeonExplorersofSkyInTheMorningSun_mvl/mxv
 .byte   W06
 .byte   VOL , 33*PokemonMysteryDungeonExplorersofSkyInTheMorningSun_mvl/mxv
 .byte   W06
@  #01 @044   ----------------------------------------
 .byte   VOL , 34*PokemonMysteryDungeonExplorersofSkyInTheMorningSun_mvl/mxv
 .byte   W06
 .byte   VOL , 34*PokemonMysteryDungeonExplorersofSkyInTheMorningSun_mvl/mxv
 .byte   W06
 .byte   VOL , 34*PokemonMysteryDungeonExplorersofSkyInTheMorningSun_mvl/mxv
 .byte   W12
 .byte   N92 ,Gn2
 .byte   N24 ,Cn4
 .byte   W06
 .byte   VOL , 34*PokemonMysteryDungeonExplorersofSkyInTheMorningSun_mvl/mxv
 .byte   W12
 .byte   VOL , 33*PokemonMysteryDungeonExplorersofSkyInTheMorningSun_mvl/mxv
 .byte   W06
 .byte   VOL , 32*PokemonMysteryDungeonExplorersofSkyInTheMorningSun_mvl/mxv
 .byte   N72 ,Bn3
 .byte   W06
 .byte   VOL , 32*PokemonMysteryDungeonExplorersofSkyInTheMorningSun_mvl/mxv
 .byte   W06
 .byte   VOL , 31*PokemonMysteryDungeonExplorersofSkyInTheMorningSun_mvl/mxv
 .byte   W06
 .byte   VOL , 30*PokemonMysteryDungeonExplorersofSkyInTheMorningSun_mvl/mxv
 .byte   W06
 .byte   VOL , 30*PokemonMysteryDungeonExplorersofSkyInTheMorningSun_mvl/mxv
 .byte   W06
 .byte   VOL , 30*PokemonMysteryDungeonExplorersofSkyInTheMorningSun_mvl/mxv
 .byte   W06
 .byte   VOL , 30*PokemonMysteryDungeonExplorersofSkyInTheMorningSun_mvl/mxv
 .byte   W06
 .byte   VOL , 29*PokemonMysteryDungeonExplorersofSkyInTheMorningSun_mvl/mxv
 .byte   W06
@  #01 @045   ----------------------------------------
 .byte   VOL , 28*PokemonMysteryDungeonExplorersofSkyInTheMorningSun_mvl/mxv
 .byte   W06
 .byte   VOL , 28*PokemonMysteryDungeonExplorersofSkyInTheMorningSun_mvl/mxv
 .byte   W06
 .byte   VOL , 28*PokemonMysteryDungeonExplorersofSkyInTheMorningSun_mvl/mxv
 .byte   W06
 .byte   VOL , 27*PokemonMysteryDungeonExplorersofSkyInTheMorningSun_mvl/mxv
 .byte   W06
 .byte   VOL , 27*PokemonMysteryDungeonExplorersofSkyInTheMorningSun_mvl/mxv
 .byte   N44 ,Gn2
 .byte   N44 ,Gn3
 .byte   W06
 .byte   VOL , 27*PokemonMysteryDungeonExplorersofSkyInTheMorningSun_mvl/mxv
 .byte   W06
 .byte   VOL , 26*PokemonMysteryDungeonExplorersofSkyInTheMorningSun_mvl/mxv
 .byte   W06
 .byte   VOL , 26*PokemonMysteryDungeonExplorersofSkyInTheMorningSun_mvl/mxv
 .byte   W06
 .byte   VOL , 26*PokemonMysteryDungeonExplorersofSkyInTheMorningSun_mvl/mxv
 .byte   W06
 .byte   VOL , 25*PokemonMysteryDungeonExplorersofSkyInTheMorningSun_mvl/mxv
 .byte   W12
 .byte   VOL , 24*PokemonMysteryDungeonExplorersofSkyInTheMorningSun_mvl/mxv
 .byte   W06
 .byte   VOL , 24*PokemonMysteryDungeonExplorersofSkyInTheMorningSun_mvl/mxv
 .byte   N44 ,Dn2
 .byte   N44 ,An3
 .byte   W06
 .byte   VOL , 23*PokemonMysteryDungeonExplorersofSkyInTheMorningSun_mvl/mxv
 .byte   W06
 .byte   VOL , 23*PokemonMysteryDungeonExplorersofSkyInTheMorningSun_mvl/mxv
 .byte   W06
 .byte   VOL , 23*PokemonMysteryDungeonExplorersofSkyInTheMorningSun_mvl/mxv
 .byte   W06
@  #01 @046   ----------------------------------------
 .byte   VOL , 22*PokemonMysteryDungeonExplorersofSkyInTheMorningSun_mvl/mxv
 .byte   W06
 .byte   VOL , 22*PokemonMysteryDungeonExplorersofSkyInTheMorningSun_mvl/mxv
 .byte   W06
 .byte   VOL , 22*PokemonMysteryDungeonExplorersofSkyInTheMorningSun_mvl/mxv
 .byte   W06
 .byte   VOL , 21*PokemonMysteryDungeonExplorersofSkyInTheMorningSun_mvl/mxv
 .byte   W06
 .byte   VOL , 21*PokemonMysteryDungeonExplorersofSkyInTheMorningSun_mvl/mxv
 .byte   TIE ,Ds2
 .byte   TIE ,Gn3
 .byte   W06
 .byte   VOL , 22*PokemonMysteryDungeonExplorersofSkyInTheMorningSun_mvl/mxv
 .byte   W06
 .byte   VOL , 22*PokemonMysteryDungeonExplorersofSkyInTheMorningSun_mvl/mxv
 .byte   W06
 .byte   VOL , 22*PokemonMysteryDungeonExplorersofSkyInTheMorningSun_mvl/mxv
 .byte   W06
 .byte   VOL , 23*PokemonMysteryDungeonExplorersofSkyInTheMorningSun_mvl/mxv
 .byte   W06
 .byte   VOL , 23*PokemonMysteryDungeonExplorersofSkyInTheMorningSun_mvl/mxv
 .byte   W06
 .byte   VOL , 23*PokemonMysteryDungeonExplorersofSkyInTheMorningSun_mvl/mxv
 .byte   W06
 .byte   VOL , 24*PokemonMysteryDungeonExplorersofSkyInTheMorningSun_mvl/mxv
 .byte   W06
 .byte   VOL , 24*PokemonMysteryDungeonExplorersofSkyInTheMorningSun_mvl/mxv
 .byte   W06
 .byte   VOL , 25*PokemonMysteryDungeonExplorersofSkyInTheMorningSun_mvl/mxv
 .byte   W06
 .byte   VOL , 26*PokemonMysteryDungeonExplorersofSkyInTheMorningSun_mvl/mxv
 .byte   W06
 .byte   VOL , 26*PokemonMysteryDungeonExplorersofSkyInTheMorningSun_mvl/mxv
 .byte   W06
@  #01 @047   ----------------------------------------
 .byte   VOL , 26*PokemonMysteryDungeonExplorersofSkyInTheMorningSun_mvl/mxv
 .byte   W06
 .byte   VOL , 27*PokemonMysteryDungeonExplorersofSkyInTheMorningSun_mvl/mxv
 .byte   W06
 .byte   VOL , 27*PokemonMysteryDungeonExplorersofSkyInTheMorningSun_mvl/mxv
 .byte   W06
 .byte   VOL , 27*PokemonMysteryDungeonExplorersofSkyInTheMorningSun_mvl/mxv
 .byte   W12
 .byte   VOL , 28*PokemonMysteryDungeonExplorersofSkyInTheMorningSun_mvl/mxv
 .byte   W06
 .byte   VOL , 28*PokemonMysteryDungeonExplorersofSkyInTheMorningSun_mvl/mxv
 .byte   W06
 .byte   VOL , 28*PokemonMysteryDungeonExplorersofSkyInTheMorningSun_mvl/mxv
 .byte   W06
 .byte   VOL , 29*PokemonMysteryDungeonExplorersofSkyInTheMorningSun_mvl/mxv
 .byte   W06
 .byte   VOL , 30*PokemonMysteryDungeonExplorersofSkyInTheMorningSun_mvl/mxv
 .byte   W06
 .byte   VOL , 30*PokemonMysteryDungeonExplorersofSkyInTheMorningSun_mvl/mxv
 .byte   W06
 .byte   VOL , 30*PokemonMysteryDungeonExplorersofSkyInTheMorningSun_mvl/mxv
 .byte   W06
 .byte   VOL , 30*PokemonMysteryDungeonExplorersofSkyInTheMorningSun_mvl/mxv
 .byte   W06
 .byte   VOL , 31*PokemonMysteryDungeonExplorersofSkyInTheMorningSun_mvl/mxv
 .byte   W06
 .byte   VOL , 32*PokemonMysteryDungeonExplorersofSkyInTheMorningSun_mvl/mxv
 .byte   W06
 .byte   VOL , 32*PokemonMysteryDungeonExplorersofSkyInTheMorningSun_mvl/mxv
 .byte   W06
@  #01 @048   ----------------------------------------
 .byte   VOL , 33*PokemonMysteryDungeonExplorersofSkyInTheMorningSun_mvl/mxv
 .byte   W06
 .byte   VOL , 34*PokemonMysteryDungeonExplorersofSkyInTheMorningSun_mvl/mxv
 .byte   W06
 .byte   VOL , 34*PokemonMysteryDungeonExplorersofSkyInTheMorningSun_mvl/mxv
 .byte   W06
 .byte   VOL , 34*PokemonMysteryDungeonExplorersofSkyInTheMorningSun_mvl/mxv
 .byte   W05
 .byte   EOT
 .byte   Ds2 ,v067
 .byte   W01
 .byte   TIE ,Cn2
 .byte   TIE ,Gn3
 .byte   W18
 .byte   VOL , 32*PokemonMysteryDungeonExplorersofSkyInTheMorningSun_mvl/mxv
 .byte   W06
 .byte   VOL , 32*PokemonMysteryDungeonExplorersofSkyInTheMorningSun_mvl/mxv
 .byte   W06
 .byte   VOL , 31*PokemonMysteryDungeonExplorersofSkyInTheMorningSun_mvl/mxv
 .byte   W06
 .byte   VOL , 30*PokemonMysteryDungeonExplorersofSkyInTheMorningSun_mvl/mxv
 .byte   W06
 .byte   VOL , 30*PokemonMysteryDungeonExplorersofSkyInTheMorningSun_mvl/mxv
 .byte   W06
 .byte   VOL , 30*PokemonMysteryDungeonExplorersofSkyInTheMorningSun_mvl/mxv
 .byte   W06
 .byte   VOL , 30*PokemonMysteryDungeonExplorersofSkyInTheMorningSun_mvl/mxv
 .byte   W06
 .byte   VOL , 29*PokemonMysteryDungeonExplorersofSkyInTheMorningSun_mvl/mxv
 .byte   W06
 .byte   VOL , 28*PokemonMysteryDungeonExplorersofSkyInTheMorningSun_mvl/mxv
 .byte   W06
@  #01 @049   ----------------------------------------
 .byte   VOL , 28*PokemonMysteryDungeonExplorersofSkyInTheMorningSun_mvl/mxv
 .byte   W12
 .byte   VOL , 28*PokemonMysteryDungeonExplorersofSkyInTheMorningSun_mvl/mxv
 .byte   W06
 .byte   VOL , 27*PokemonMysteryDungeonExplorersofSkyInTheMorningSun_mvl/mxv
 .byte   W06
 .byte   VOL , 27*PokemonMysteryDungeonExplorersofSkyInTheMorningSun_mvl/mxv
 .byte   W06
 .byte   VOL , 27*PokemonMysteryDungeonExplorersofSkyInTheMorningSun_mvl/mxv
 .byte   W06
 .byte   VOL , 26*PokemonMysteryDungeonExplorersofSkyInTheMorningSun_mvl/mxv
 .byte   W06
 .byte   VOL , 26*PokemonMysteryDungeonExplorersofSkyInTheMorningSun_mvl/mxv
 .byte   W06
 .byte   VOL , 26*PokemonMysteryDungeonExplorersofSkyInTheMorningSun_mvl/mxv
 .byte   W06
 .byte   VOL , 25*PokemonMysteryDungeonExplorersofSkyInTheMorningSun_mvl/mxv
 .byte   W06
 .byte   VOL , 24*PokemonMysteryDungeonExplorersofSkyInTheMorningSun_mvl/mxv
 .byte   W06
 .byte   VOL , 24*PokemonMysteryDungeonExplorersofSkyInTheMorningSun_mvl/mxv
 .byte   W06
 .byte   VOL , 23*PokemonMysteryDungeonExplorersofSkyInTheMorningSun_mvl/mxv
 .byte   W06
 .byte   VOL , 23*PokemonMysteryDungeonExplorersofSkyInTheMorningSun_mvl/mxv
 .byte   W06
 .byte   VOL , 23*PokemonMysteryDungeonExplorersofSkyInTheMorningSun_mvl/mxv
 .byte   W06
 .byte   VOL , 22*PokemonMysteryDungeonExplorersofSkyInTheMorningSun_mvl/mxv
 .byte   W06
@  #01 @050   ----------------------------------------
 .byte   PATT
  .word Label_01685B61
@  #01 @051   ----------------------------------------
 .byte   EOT
 .byte   Cn2 ,v067
 .byte   W01
 .byte   VOL , 20*PokemonMysteryDungeonExplorersofSkyInTheMorningSun_mvl/mxv
 .byte   TIE ,Dn2 ,v088
 .byte   TIE ,Fs3
 .byte   W06
 .byte   VOL , 21*PokemonMysteryDungeonExplorersofSkyInTheMorningSun_mvl/mxv
 .byte   W06
 .byte   VOL , 21*PokemonMysteryDungeonExplorersofSkyInTheMorningSun_mvl/mxv
 .byte   W06
 .byte   VOL , 21*PokemonMysteryDungeonExplorersofSkyInTheMorningSun_mvl/mxv
 .byte   W12
 .byte   VOL , 21*PokemonMysteryDungeonExplorersofSkyInTheMorningSun_mvl/mxv
 .byte   W06
 .byte   VOL , 22*PokemonMysteryDungeonExplorersofSkyInTheMorningSun_mvl/mxv
 .byte   W12
 .byte   VOL , 22*PokemonMysteryDungeonExplorersofSkyInTheMorningSun_mvl/mxv
 .byte   W06
 .byte   VOL , 22*PokemonMysteryDungeonExplorersofSkyInTheMorningSun_mvl/mxv
 .byte   W06
 .byte   VOL , 23*PokemonMysteryDungeonExplorersofSkyInTheMorningSun_mvl/mxv
 .byte   W12
 .byte   VOL , 23*PokemonMysteryDungeonExplorersofSkyInTheMorningSun_mvl/mxv
 .byte   W06
 .byte   VOL , 23*PokemonMysteryDungeonExplorersofSkyInTheMorningSun_mvl/mxv
 .byte   W12
 .byte   VOL , 24*PokemonMysteryDungeonExplorersofSkyInTheMorningSun_mvl/mxv
 .byte   W06
@  #01 @052   ----------------------------------------
 .byte   VOL , 24*PokemonMysteryDungeonExplorersofSkyInTheMorningSun_mvl/mxv
 .byte   W06
 .byte   VOL , 25*PokemonMysteryDungeonExplorersofSkyInTheMorningSun_mvl/mxv
 .byte   W12
 .byte   VOL , 26*PokemonMysteryDungeonExplorersofSkyInTheMorningSun_mvl/mxv
 .byte   W06
 .byte   VOL , 26*PokemonMysteryDungeonExplorersofSkyInTheMorningSun_mvl/mxv
 .byte   W06
 .byte   VOL , 26*PokemonMysteryDungeonExplorersofSkyInTheMorningSun_mvl/mxv
 .byte   W12
 .byte   VOL , 27*PokemonMysteryDungeonExplorersofSkyInTheMorningSun_mvl/mxv
 .byte   W06
 .byte   VOL , 27*PokemonMysteryDungeonExplorersofSkyInTheMorningSun_mvl/mxv
 .byte   W12
 .byte   VOL , 27*PokemonMysteryDungeonExplorersofSkyInTheMorningSun_mvl/mxv
 .byte   W06
 .byte   VOL , 28*PokemonMysteryDungeonExplorersofSkyInTheMorningSun_mvl/mxv
 .byte   W06
 .byte   VOL , 28*PokemonMysteryDungeonExplorersofSkyInTheMorningSun_mvl/mxv
 .byte   W12
 .byte   VOL , 28*PokemonMysteryDungeonExplorersofSkyInTheMorningSun_mvl/mxv
 .byte   W06
 .byte   VOL , 29*PokemonMysteryDungeonExplorersofSkyInTheMorningSun_mvl/mxv
 .byte   W12
@  #01 @053   ----------------------------------------
 .byte   VOL , 30*PokemonMysteryDungeonExplorersofSkyInTheMorningSun_mvl/mxv
 .byte   W06
 .byte   VOL , 30*PokemonMysteryDungeonExplorersofSkyInTheMorningSun_mvl/mxv
 .byte   W06
 .byte   VOL , 30*PokemonMysteryDungeonExplorersofSkyInTheMorningSun_mvl/mxv
 .byte   W12
 .byte   VOL , 30*PokemonMysteryDungeonExplorersofSkyInTheMorningSun_mvl/mxv
 .byte   W06
 .byte   VOL , 31*PokemonMysteryDungeonExplorersofSkyInTheMorningSun_mvl/mxv
 .byte   W06
 .byte   VOL , 32*PokemonMysteryDungeonExplorersofSkyInTheMorningSun_mvl/mxv
 .byte   W12
 .byte   VOL , 32*PokemonMysteryDungeonExplorersofSkyInTheMorningSun_mvl/mxv
 .byte   W06
 .byte   VOL , 33*PokemonMysteryDungeonExplorersofSkyInTheMorningSun_mvl/mxv
 .byte   W12
 .byte   VOL , 34*PokemonMysteryDungeonExplorersofSkyInTheMorningSun_mvl/mxv
 .byte   W06
 .byte   VOL , 34*PokemonMysteryDungeonExplorersofSkyInTheMorningSun_mvl/mxv
 .byte   W06
 .byte   VOL , 34*PokemonMysteryDungeonExplorersofSkyInTheMorningSun_mvl/mxv
 .byte   W11
 .byte   EOT
 .byte   Dn2 ,v066
 .byte   W01
 .byte   N12 ,Dn2 ,v028
 .byte   N12 ,Fs3
 .byte   W12
@  #01 @054   ----------------------------------------
 .byte   Dn2 ,v020
 .byte   N12 ,Fs3
 .byte   W12
 .byte   Dn2 ,v016
 .byte   N12 ,Fs3
 .byte   W12
 .byte   Dn2 ,v012
 .byte   N12 ,Fs3
 .byte   W12
 .byte   Dn2 ,v008
 .byte   N12 ,Fs3
 .byte   W24
 .byte   W24
 .byte   VOL , 24*PokemonMysteryDungeonExplorersofSkyInTheMorningSun_mvl/mxv
 .byte   N92 ,Gn1 ,v100
 .byte   N92 ,An3
 .byte   W04
 .byte   VOL , 24*PokemonMysteryDungeonExplorersofSkyInTheMorningSun_mvl/mxv
 .byte   W04
 .byte   VOL , 25*PokemonMysteryDungeonExplorersofSkyInTheMorningSun_mvl/mxv
 .byte   W04
@  #01 @055   ----------------------------------------
 .byte   VOL , 26*PokemonMysteryDungeonExplorersofSkyInTheMorningSun_mvl/mxv
 .byte   W04
 .byte   VOL , 26*PokemonMysteryDungeonExplorersofSkyInTheMorningSun_mvl/mxv
 .byte   W04
 .byte   VOL , 26*PokemonMysteryDungeonExplorersofSkyInTheMorningSun_mvl/mxv
 .byte   W04
 .byte   VOL , 27*PokemonMysteryDungeonExplorersofSkyInTheMorningSun_mvl/mxv
 .byte   W08
 .byte   VOL , 27*PokemonMysteryDungeonExplorersofSkyInTheMorningSun_mvl/mxv
 .byte   W08
 .byte   VOL , 28*PokemonMysteryDungeonExplorersofSkyInTheMorningSun_mvl/mxv
 .byte   W08
 .byte   VOL , 29*PokemonMysteryDungeonExplorersofSkyInTheMorningSun_mvl/mxv
 .byte   W04
 .byte   VOL , 30*PokemonMysteryDungeonExplorersofSkyInTheMorningSun_mvl/mxv
 .byte   W04
 .byte   VOL , 30*PokemonMysteryDungeonExplorersofSkyInTheMorningSun_mvl/mxv
 .byte   W04
 .byte   VOL , 30*PokemonMysteryDungeonExplorersofSkyInTheMorningSun_mvl/mxv
 .byte   W08
 .byte   VOL , 31*PokemonMysteryDungeonExplorersofSkyInTheMorningSun_mvl/mxv
 .byte   W04
 .byte   W04
 .byte   VOL , 32*PokemonMysteryDungeonExplorersofSkyInTheMorningSun_mvl/mxv
 .byte   W08
 .byte   VOL , 34*PokemonMysteryDungeonExplorersofSkyInTheMorningSun_mvl/mxv
 .byte   W08
 .byte   VOL , 34*PokemonMysteryDungeonExplorersofSkyInTheMorningSun_mvl/mxv
 .byte   W04
 .byte   N92 ,An1
 .byte   N92 ,Gn3
 .byte   W04
 .byte   VOL , 34*PokemonMysteryDungeonExplorersofSkyInTheMorningSun_mvl/mxv
 .byte   W08
@  #01 @056   ----------------------------------------
 .byte   VOL , 33*PokemonMysteryDungeonExplorersofSkyInTheMorningSun_mvl/mxv
 .byte   W04
 .byte   VOL , 32*PokemonMysteryDungeonExplorersofSkyInTheMorningSun_mvl/mxv
 .byte   W04
 .byte   VOL , 32*PokemonMysteryDungeonExplorersofSkyInTheMorningSun_mvl/mxv
 .byte   W04
 .byte   VOL , 31*PokemonMysteryDungeonExplorersofSkyInTheMorningSun_mvl/mxv
 .byte   W04
 .byte   VOL , 30*PokemonMysteryDungeonExplorersofSkyInTheMorningSun_mvl/mxv
 .byte   W04
 .byte   VOL , 30*PokemonMysteryDungeonExplorersofSkyInTheMorningSun_mvl/mxv
 .byte   W04
 .byte   VOL , 30*PokemonMysteryDungeonExplorersofSkyInTheMorningSun_mvl/mxv
 .byte   W04
 .byte   VOL , 30*PokemonMysteryDungeonExplorersofSkyInTheMorningSun_mvl/mxv
 .byte   W04
 .byte   VOL , 29*PokemonMysteryDungeonExplorersofSkyInTheMorningSun_mvl/mxv
 .byte   W04
 .byte   VOL , 28*PokemonMysteryDungeonExplorersofSkyInTheMorningSun_mvl/mxv
 .byte   W04
 .byte   VOL , 28*PokemonMysteryDungeonExplorersofSkyInTheMorningSun_mvl/mxv
 .byte   W04
 .byte   VOL , 28*PokemonMysteryDungeonExplorersofSkyInTheMorningSun_mvl/mxv
 .byte   W04
 .byte   VOL , 27*PokemonMysteryDungeonExplorersofSkyInTheMorningSun_mvl/mxv
 .byte   W04
 .byte   VOL , 27*PokemonMysteryDungeonExplorersofSkyInTheMorningSun_mvl/mxv
 .byte   W04
 .byte   VOL , 27*PokemonMysteryDungeonExplorersofSkyInTheMorningSun_mvl/mxv
 .byte   W04
 .byte   VOL , 26*PokemonMysteryDungeonExplorersofSkyInTheMorningSun_mvl/mxv
 .byte   W04
 .byte   VOL , 26*PokemonMysteryDungeonExplorersofSkyInTheMorningSun_mvl/mxv
 .byte   W04
 .byte   VOL , 26*PokemonMysteryDungeonExplorersofSkyInTheMorningSun_mvl/mxv
 .byte   W04
 .byte   VOL , 25*PokemonMysteryDungeonExplorersofSkyInTheMorningSun_mvl/mxv
 .byte   W04
 .byte   VOL , 24*PokemonMysteryDungeonExplorersofSkyInTheMorningSun_mvl/mxv
 .byte   W04
 .byte   VOL , 24*PokemonMysteryDungeonExplorersofSkyInTheMorningSun_mvl/mxv
 .byte   W04
 .byte   VOL , 23*PokemonMysteryDungeonExplorersofSkyInTheMorningSun_mvl/mxv
 .byte   N92 ,Bn1
 .byte   TIE ,Fs3
 .byte   W04
 .byte   VOL , 23*PokemonMysteryDungeonExplorersofSkyInTheMorningSun_mvl/mxv
 .byte   W04
 .byte   VOL , 23*PokemonMysteryDungeonExplorersofSkyInTheMorningSun_mvl/mxv
 .byte   W04
@  #01 @057   ----------------------------------------
 .byte   VOL , 23*PokemonMysteryDungeonExplorersofSkyInTheMorningSun_mvl/mxv
 .byte   W04
 .byte   VOL , 23*PokemonMysteryDungeonExplorersofSkyInTheMorningSun_mvl/mxv
 .byte   W04
 .byte   VOL , 24*PokemonMysteryDungeonExplorersofSkyInTheMorningSun_mvl/mxv
 .byte   W04
 .byte   VOL , 24*PokemonMysteryDungeonExplorersofSkyInTheMorningSun_mvl/mxv
 .byte   W04
 .byte   VOL , 26*PokemonMysteryDungeonExplorersofSkyInTheMorningSun_mvl/mxv
 .byte   W04
 .byte   VOL , 26*PokemonMysteryDungeonExplorersofSkyInTheMorningSun_mvl/mxv
 .byte   W04
 .byte   VOL , 26*PokemonMysteryDungeonExplorersofSkyInTheMorningSun_mvl/mxv
 .byte   W04
 .byte   VOL , 27*PokemonMysteryDungeonExplorersofSkyInTheMorningSun_mvl/mxv
 .byte   W04
 .byte   VOL , 27*PokemonMysteryDungeonExplorersofSkyInTheMorningSun_mvl/mxv
 .byte   W04
 .byte   VOL , 28*PokemonMysteryDungeonExplorersofSkyInTheMorningSun_mvl/mxv
 .byte   W04
 .byte   VOL , 28*PokemonMysteryDungeonExplorersofSkyInTheMorningSun_mvl/mxv
 .byte   W04
 .byte   VOL , 29*PokemonMysteryDungeonExplorersofSkyInTheMorningSun_mvl/mxv
 .byte   W04
 .byte   VOL , 30*PokemonMysteryDungeonExplorersofSkyInTheMorningSun_mvl/mxv
 .byte   W04
 .byte   VOL , 30*PokemonMysteryDungeonExplorersofSkyInTheMorningSun_mvl/mxv
 .byte   W04
 .byte   VOL , 30*PokemonMysteryDungeonExplorersofSkyInTheMorningSun_mvl/mxv
 .byte   W04
 .byte   VOL , 31*PokemonMysteryDungeonExplorersofSkyInTheMorningSun_mvl/mxv
 .byte   W04
 .byte   VOL , 32*PokemonMysteryDungeonExplorersofSkyInTheMorningSun_mvl/mxv
 .byte   W04
 .byte   VOL , 33*PokemonMysteryDungeonExplorersofSkyInTheMorningSun_mvl/mxv
 .byte   W04
 .byte   VOL , 34*PokemonMysteryDungeonExplorersofSkyInTheMorningSun_mvl/mxv
 .byte   W04
 .byte   VOL , 34*PokemonMysteryDungeonExplorersofSkyInTheMorningSun_mvl/mxv
 .byte   W08
 .byte   N92 ,An1
 .byte   W08
 .byte   VOL , 34*PokemonMysteryDungeonExplorersofSkyInTheMorningSun_mvl/mxv
 .byte   W04
@  #01 @058   ----------------------------------------
 .byte   VOL , 34*PokemonMysteryDungeonExplorersofSkyInTheMorningSun_mvl/mxv
 .byte   W04
 .byte   VOL , 33*PokemonMysteryDungeonExplorersofSkyInTheMorningSun_mvl/mxv
 .byte   W04
 .byte   VOL , 32*PokemonMysteryDungeonExplorersofSkyInTheMorningSun_mvl/mxv
 .byte   W04
 .byte   VOL , 31*PokemonMysteryDungeonExplorersofSkyInTheMorningSun_mvl/mxv
 .byte   W04
 .byte   VOL , 30*PokemonMysteryDungeonExplorersofSkyInTheMorningSun_mvl/mxv
 .byte   W04
 .byte   VOL , 30*PokemonMysteryDungeonExplorersofSkyInTheMorningSun_mvl/mxv
 .byte   W04
 .byte   VOL , 30*PokemonMysteryDungeonExplorersofSkyInTheMorningSun_mvl/mxv
 .byte   W04
 .byte   VOL , 30*PokemonMysteryDungeonExplorersofSkyInTheMorningSun_mvl/mxv
 .byte   W04
 .byte   VOL , 29*PokemonMysteryDungeonExplorersofSkyInTheMorningSun_mvl/mxv
 .byte   W04
 .byte   VOL , 28*PokemonMysteryDungeonExplorersofSkyInTheMorningSun_mvl/mxv
 .byte   W04
 .byte   VOL , 28*PokemonMysteryDungeonExplorersofSkyInTheMorningSun_mvl/mxv
 .byte   W04
 .byte   VOL , 27*PokemonMysteryDungeonExplorersofSkyInTheMorningSun_mvl/mxv
 .byte   W04
 .byte   VOL , 27*PokemonMysteryDungeonExplorersofSkyInTheMorningSun_mvl/mxv
 .byte   W04
 .byte   VOL , 27*PokemonMysteryDungeonExplorersofSkyInTheMorningSun_mvl/mxv
 .byte   W04
 .byte   VOL , 26*PokemonMysteryDungeonExplorersofSkyInTheMorningSun_mvl/mxv
 .byte   W04
 .byte   VOL , 26*PokemonMysteryDungeonExplorersofSkyInTheMorningSun_mvl/mxv
 .byte   W04
 .byte   VOL , 26*PokemonMysteryDungeonExplorersofSkyInTheMorningSun_mvl/mxv
 .byte   W04
 .byte   VOL , 25*PokemonMysteryDungeonExplorersofSkyInTheMorningSun_mvl/mxv
 .byte   W04
 .byte   VOL , 24*PokemonMysteryDungeonExplorersofSkyInTheMorningSun_mvl/mxv
 .byte   W04
 .byte   VOL , 23*PokemonMysteryDungeonExplorersofSkyInTheMorningSun_mvl/mxv
 .byte   W04
 .byte   VOL , 23*PokemonMysteryDungeonExplorersofSkyInTheMorningSun_mvl/mxv
 .byte   W03
 .byte   EOT
 .byte   Fs3
 .byte   W01
 .byte   VOL , 24*PokemonMysteryDungeonExplorersofSkyInTheMorningSun_mvl/mxv
 .byte   N92 ,Gn1
 .byte   N92 ,An3
 .byte   W04
 .byte   VOL , 25*PokemonMysteryDungeonExplorersofSkyInTheMorningSun_mvl/mxv
 .byte   W04
 .byte   VOL , 26*PokemonMysteryDungeonExplorersofSkyInTheMorningSun_mvl/mxv
 .byte   W08
@  #01 @059   ----------------------------------------
 .byte   VOL , 26*PokemonMysteryDungeonExplorersofSkyInTheMorningSun_mvl/mxv
 .byte   W08
 .byte   VOL , 27*PokemonMysteryDungeonExplorersofSkyInTheMorningSun_mvl/mxv
 .byte   W04
 .byte   VOL , 27*PokemonMysteryDungeonExplorersofSkyInTheMorningSun_mvl/mxv
 .byte   W04
 .byte   VOL , 27*PokemonMysteryDungeonExplorersofSkyInTheMorningSun_mvl/mxv
 .byte   W04
 .byte   VOL , 28*PokemonMysteryDungeonExplorersofSkyInTheMorningSun_mvl/mxv
 .byte   W04
 .byte   VOL , 28*PokemonMysteryDungeonExplorersofSkyInTheMorningSun_mvl/mxv
 .byte   W04
 .byte   VOL , 28*PokemonMysteryDungeonExplorersofSkyInTheMorningSun_mvl/mxv
 .byte   W04
 .byte   VOL , 29*PokemonMysteryDungeonExplorersofSkyInTheMorningSun_mvl/mxv
 .byte   W04
 .byte   VOL , 30*PokemonMysteryDungeonExplorersofSkyInTheMorningSun_mvl/mxv
 .byte   W04
 .byte   VOL , 30*PokemonMysteryDungeonExplorersofSkyInTheMorningSun_mvl/mxv
 .byte   W08
 .byte   VOL , 30*PokemonMysteryDungeonExplorersofSkyInTheMorningSun_mvl/mxv
 .byte   W04
 .byte   VOL , 30*PokemonMysteryDungeonExplorersofSkyInTheMorningSun_mvl/mxv
 .byte   W04
 .byte   VOL , 31*PokemonMysteryDungeonExplorersofSkyInTheMorningSun_mvl/mxv
 .byte   W04
 .byte   VOL , 32*PokemonMysteryDungeonExplorersofSkyInTheMorningSun_mvl/mxv
 .byte   W04
 .byte   VOL , 32*PokemonMysteryDungeonExplorersofSkyInTheMorningSun_mvl/mxv
 .byte   W04
 .byte   VOL , 33*PokemonMysteryDungeonExplorersofSkyInTheMorningSun_mvl/mxv
 .byte   W04
 .byte   VOL , 34*PokemonMysteryDungeonExplorersofSkyInTheMorningSun_mvl/mxv
 .byte   W04
 .byte   VOL , 34*PokemonMysteryDungeonExplorersofSkyInTheMorningSun_mvl/mxv
 .byte   W04
 .byte   VOL , 34*PokemonMysteryDungeonExplorersofSkyInTheMorningSun_mvl/mxv
 .byte   N92 ,An1
 .byte   N92 ,Gn3
 .byte   W04
 .byte   VOL , 34*PokemonMysteryDungeonExplorersofSkyInTheMorningSun_mvl/mxv
 .byte   W04
 .byte   VOL , 33*PokemonMysteryDungeonExplorersofSkyInTheMorningSun_mvl/mxv
 .byte   W04
 .byte   VOL , 32*PokemonMysteryDungeonExplorersofSkyInTheMorningSun_mvl/mxv
 .byte   W04
@  #01 @060   ----------------------------------------
 .byte   VOL , 31*PokemonMysteryDungeonExplorersofSkyInTheMorningSun_mvl/mxv
 .byte   W08
 .byte   VOL , 30*PokemonMysteryDungeonExplorersofSkyInTheMorningSun_mvl/mxv
 .byte   W04
 .byte   VOL , 30*PokemonMysteryDungeonExplorersofSkyInTheMorningSun_mvl/mxv
 .byte   W08
 .byte   VOL , 29*PokemonMysteryDungeonExplorersofSkyInTheMorningSun_mvl/mxv
 .byte   W04
 .byte   VOL , 28*PokemonMysteryDungeonExplorersofSkyInTheMorningSun_mvl/mxv
 .byte   W04
 .byte   VOL , 28*PokemonMysteryDungeonExplorersofSkyInTheMorningSun_mvl/mxv
 .byte   W04
 .byte   VOL , 28*PokemonMysteryDungeonExplorersofSkyInTheMorningSun_mvl/mxv
 .byte   W04
 .byte   VOL , 27*PokemonMysteryDungeonExplorersofSkyInTheMorningSun_mvl/mxv
 .byte   W04
 .byte   VOL , 27*PokemonMysteryDungeonExplorersofSkyInTheMorningSun_mvl/mxv
 .byte   W04
 .byte   VOL , 27*PokemonMysteryDungeonExplorersofSkyInTheMorningSun_mvl/mxv
 .byte   W04
 .byte   VOL , 26*PokemonMysteryDungeonExplorersofSkyInTheMorningSun_mvl/mxv
 .byte   W04
 .byte   VOL , 26*PokemonMysteryDungeonExplorersofSkyInTheMorningSun_mvl/mxv
 .byte   W04
 .byte   VOL , 26*PokemonMysteryDungeonExplorersofSkyInTheMorningSun_mvl/mxv
 .byte   W04
 .byte   VOL , 25*PokemonMysteryDungeonExplorersofSkyInTheMorningSun_mvl/mxv
 .byte   W04
 .byte   VOL , 24*PokemonMysteryDungeonExplorersofSkyInTheMorningSun_mvl/mxv
 .byte   W04
 .byte   VOL , 24*PokemonMysteryDungeonExplorersofSkyInTheMorningSun_mvl/mxv
 .byte   W04
 .byte   VOL , 23*PokemonMysteryDungeonExplorersofSkyInTheMorningSun_mvl/mxv
 .byte   W04
 .byte   VOL , 23*PokemonMysteryDungeonExplorersofSkyInTheMorningSun_mvl/mxv
 .byte   W04
 .byte   VOL , 24*PokemonMysteryDungeonExplorersofSkyInTheMorningSun_mvl/mxv
 .byte   N92 ,Bn1
 .byte   TIE ,Fs3
 .byte   W04
 .byte   VOL , 24*PokemonMysteryDungeonExplorersofSkyInTheMorningSun_mvl/mxv
 .byte   W04
 .byte   VOL , 25*PokemonMysteryDungeonExplorersofSkyInTheMorningSun_mvl/mxv
 .byte   W04
 .byte   VOL , 26*PokemonMysteryDungeonExplorersofSkyInTheMorningSun_mvl/mxv
 .byte   W04
@  #01 @061   ----------------------------------------
 .byte   VOL , 26*PokemonMysteryDungeonExplorersofSkyInTheMorningSun_mvl/mxv
 .byte   W04
 .byte   VOL , 26*PokemonMysteryDungeonExplorersofSkyInTheMorningSun_mvl/mxv
 .byte   W04
 .byte   VOL , 27*PokemonMysteryDungeonExplorersofSkyInTheMorningSun_mvl/mxv
 .byte   W08
 .byte   VOL , 27*PokemonMysteryDungeonExplorersofSkyInTheMorningSun_mvl/mxv
 .byte   W08
 .byte   VOL , 28*PokemonMysteryDungeonExplorersofSkyInTheMorningSun_mvl/mxv
 .byte   W04
 .byte   VOL , 28*PokemonMysteryDungeonExplorersofSkyInTheMorningSun_mvl/mxv
 .byte   W04
 .byte   VOL , 29*PokemonMysteryDungeonExplorersofSkyInTheMorningSun_mvl/mxv
 .byte   W04
 .byte   VOL , 30*PokemonMysteryDungeonExplorersofSkyInTheMorningSun_mvl/mxv
 .byte   W04
 .byte   VOL , 30*PokemonMysteryDungeonExplorersofSkyInTheMorningSun_mvl/mxv
 .byte   W04
 .byte   VOL , 30*PokemonMysteryDungeonExplorersofSkyInTheMorningSun_mvl/mxv
 .byte   W08
 .byte   VOL , 31*PokemonMysteryDungeonExplorersofSkyInTheMorningSun_mvl/mxv
 .byte   W04
 .byte   W04
 .byte   VOL , 32*PokemonMysteryDungeonExplorersofSkyInTheMorningSun_mvl/mxv
 .byte   W08
 .byte   VOL , 34*PokemonMysteryDungeonExplorersofSkyInTheMorningSun_mvl/mxv
 .byte   W08
 .byte   VOL , 34*PokemonMysteryDungeonExplorersofSkyInTheMorningSun_mvl/mxv
 .byte   W04
 .byte   N92 ,An1
 .byte   W04
 .byte   VOL , 34*PokemonMysteryDungeonExplorersofSkyInTheMorningSun_mvl/mxv
 .byte   W08
 .byte   VOL , 33*PokemonMysteryDungeonExplorersofSkyInTheMorningSun_mvl/mxv
 .byte   W04
@  #01 @062   ----------------------------------------
 .byte   VOL , 32*PokemonMysteryDungeonExplorersofSkyInTheMorningSun_mvl/mxv
 .byte   W04
 .byte   VOL , 32*PokemonMysteryDungeonExplorersofSkyInTheMorningSun_mvl/mxv
 .byte   W04
 .byte   VOL , 31*PokemonMysteryDungeonExplorersofSkyInTheMorningSun_mvl/mxv
 .byte   W04
 .byte   VOL , 30*PokemonMysteryDungeonExplorersofSkyInTheMorningSun_mvl/mxv
 .byte   W04
 .byte   VOL , 30*PokemonMysteryDungeonExplorersofSkyInTheMorningSun_mvl/mxv
 .byte   W04
 .byte   VOL , 30*PokemonMysteryDungeonExplorersofSkyInTheMorningSun_mvl/mxv
 .byte   W04
 .byte   VOL , 30*PokemonMysteryDungeonExplorersofSkyInTheMorningSun_mvl/mxv
 .byte   W04
 .byte   VOL , 29*PokemonMysteryDungeonExplorersofSkyInTheMorningSun_mvl/mxv
 .byte   W04
 .byte   VOL , 28*PokemonMysteryDungeonExplorersofSkyInTheMorningSun_mvl/mxv
 .byte   W04
 .byte   VOL , 28*PokemonMysteryDungeonExplorersofSkyInTheMorningSun_mvl/mxv
 .byte   W04
 .byte   VOL , 28*PokemonMysteryDungeonExplorersofSkyInTheMorningSun_mvl/mxv
 .byte   W04
 .byte   VOL , 27*PokemonMysteryDungeonExplorersofSkyInTheMorningSun_mvl/mxv
 .byte   W04
 .byte   VOL , 27*PokemonMysteryDungeonExplorersofSkyInTheMorningSun_mvl/mxv
 .byte   W04
 .byte   VOL , 27*PokemonMysteryDungeonExplorersofSkyInTheMorningSun_mvl/mxv
 .byte   W04
 .byte   W04
 .byte   VOL , 26*PokemonMysteryDungeonExplorersofSkyInTheMorningSun_mvl/mxv
 .byte   W04
 .byte   VOL , 26*PokemonMysteryDungeonExplorersofSkyInTheMorningSun_mvl/mxv
 .byte   W04
 .byte   VOL , 26*PokemonMysteryDungeonExplorersofSkyInTheMorningSun_mvl/mxv
 .byte   W04
 .byte   VOL , 24*PokemonMysteryDungeonExplorersofSkyInTheMorningSun_mvl/mxv
 .byte   W04
 .byte   VOL , 25*PokemonMysteryDungeonExplorersofSkyInTheMorningSun_mvl/mxv
 .byte   W03
 .byte   EOT
 .byte   Fs3
 .byte   W01
 .byte   VOL , 26*PokemonMysteryDungeonExplorersofSkyInTheMorningSun_mvl/mxv
 .byte   N92 ,Gn1
 .byte   N92 ,An3
 .byte   W08
 .byte   VOL , 26*PokemonMysteryDungeonExplorersofSkyInTheMorningSun_mvl/mxv
 .byte   W04
 .byte   VOL , 26*PokemonMysteryDungeonExplorersofSkyInTheMorningSun_mvl/mxv
 .byte   W04
@  #01 @063   ----------------------------------------
 .byte   VOL , 27*PokemonMysteryDungeonExplorersofSkyInTheMorningSun_mvl/mxv
 .byte   W04
 .byte   VOL , 27*PokemonMysteryDungeonExplorersofSkyInTheMorningSun_mvl/mxv
 .byte   W04
 .byte   VOL , 27*PokemonMysteryDungeonExplorersofSkyInTheMorningSun_mvl/mxv
 .byte   W04
 .byte   VOL , 28*PokemonMysteryDungeonExplorersofSkyInTheMorningSun_mvl/mxv
 .byte   W04
 .byte   VOL , 28*PokemonMysteryDungeonExplorersofSkyInTheMorningSun_mvl/mxv
 .byte   W08
 .byte   VOL , 28*PokemonMysteryDungeonExplorersofSkyInTheMorningSun_mvl/mxv
 .byte   W04
 .byte   VOL , 29*PokemonMysteryDungeonExplorersofSkyInTheMorningSun_mvl/mxv
 .byte   W04
 .byte   VOL , 30*PokemonMysteryDungeonExplorersofSkyInTheMorningSun_mvl/mxv
 .byte   W04
 .byte   VOL , 30*PokemonMysteryDungeonExplorersofSkyInTheMorningSun_mvl/mxv
 .byte   W04
 .byte   VOL , 30*PokemonMysteryDungeonExplorersofSkyInTheMorningSun_mvl/mxv
 .byte   W08
 .byte   VOL , 31*PokemonMysteryDungeonExplorersofSkyInTheMorningSun_mvl/mxv
 .byte   W08
 .byte   VOL , 32*PokemonMysteryDungeonExplorersofSkyInTheMorningSun_mvl/mxv
 .byte   W04
 .byte   VOL , 32*PokemonMysteryDungeonExplorersofSkyInTheMorningSun_mvl/mxv
 .byte   W04
 .byte   VOL , 33*PokemonMysteryDungeonExplorersofSkyInTheMorningSun_mvl/mxv
 .byte   W04
 .byte   VOL , 34*PokemonMysteryDungeonExplorersofSkyInTheMorningSun_mvl/mxv
 .byte   W04
 .byte   VOL , 34*PokemonMysteryDungeonExplorersofSkyInTheMorningSun_mvl/mxv
 .byte   W04
 .byte   VOL , 34*PokemonMysteryDungeonExplorersofSkyInTheMorningSun_mvl/mxv
 .byte   W04
 .byte   N92 ,An1
 .byte   N92 ,Gn3
 .byte   W04
 .byte   VOL , 34*PokemonMysteryDungeonExplorersofSkyInTheMorningSun_mvl/mxv
 .byte   W08
 .byte   VOL , 33*PokemonMysteryDungeonExplorersofSkyInTheMorningSun_mvl/mxv
 .byte   W04
@  #01 @064   ----------------------------------------
 .byte   VOL , 32*PokemonMysteryDungeonExplorersofSkyInTheMorningSun_mvl/mxv
 .byte   W04
 .byte   VOL , 32*PokemonMysteryDungeonExplorersofSkyInTheMorningSun_mvl/mxv
 .byte   W04
 .byte   VOL , 31*PokemonMysteryDungeonExplorersofSkyInTheMorningSun_mvl/mxv
 .byte   W04
 .byte   VOL , 30*PokemonMysteryDungeonExplorersofSkyInTheMorningSun_mvl/mxv
 .byte   W04
 .byte   VOL , 30*PokemonMysteryDungeonExplorersofSkyInTheMorningSun_mvl/mxv
 .byte   W04
 .byte   VOL , 30*PokemonMysteryDungeonExplorersofSkyInTheMorningSun_mvl/mxv
 .byte   W08
 .byte   VOL , 30*PokemonMysteryDungeonExplorersofSkyInTheMorningSun_mvl/mxv
 .byte   W04
 .byte   VOL , 29*PokemonMysteryDungeonExplorersofSkyInTheMorningSun_mvl/mxv
 .byte   W04
 .byte   VOL , 28*PokemonMysteryDungeonExplorersofSkyInTheMorningSun_mvl/mxv
 .byte   W04
 .byte   VOL , 28*PokemonMysteryDungeonExplorersofSkyInTheMorningSun_mvl/mxv
 .byte   W04
 .byte   VOL , 28*PokemonMysteryDungeonExplorersofSkyInTheMorningSun_mvl/mxv
 .byte   W04
 .byte   VOL , 27*PokemonMysteryDungeonExplorersofSkyInTheMorningSun_mvl/mxv
 .byte   W04
 .byte   VOL , 27*PokemonMysteryDungeonExplorersofSkyInTheMorningSun_mvl/mxv
 .byte   W04
 .byte   VOL , 27*PokemonMysteryDungeonExplorersofSkyInTheMorningSun_mvl/mxv
 .byte   W04
 .byte   VOL , 26*PokemonMysteryDungeonExplorersofSkyInTheMorningSun_mvl/mxv
 .byte   W08
 .byte   VOL , 26*PokemonMysteryDungeonExplorersofSkyInTheMorningSun_mvl/mxv
 .byte   W04
 .byte   VOL , 26*PokemonMysteryDungeonExplorersofSkyInTheMorningSun_mvl/mxv
 .byte   W04
 .byte   VOL , 25*PokemonMysteryDungeonExplorersofSkyInTheMorningSun_mvl/mxv
 .byte   W04
 .byte   VOL , 24*PokemonMysteryDungeonExplorersofSkyInTheMorningSun_mvl/mxv
 .byte   N92 ,Bn1
 .byte   TIE ,Fs3
 .byte   W04
 .byte   VOL , 24*PokemonMysteryDungeonExplorersofSkyInTheMorningSun_mvl/mxv
 .byte   W04
 .byte   VOL , 25*PokemonMysteryDungeonExplorersofSkyInTheMorningSun_mvl/mxv
 .byte   W04
 .byte   VOL , 26*PokemonMysteryDungeonExplorersofSkyInTheMorningSun_mvl/mxv
 .byte   W04
@  #01 @065   ----------------------------------------
 .byte   VOL , 26*PokemonMysteryDungeonExplorersofSkyInTheMorningSun_mvl/mxv
 .byte   W04
 .byte   VOL , 26*PokemonMysteryDungeonExplorersofSkyInTheMorningSun_mvl/mxv
 .byte   W04
 .byte   VOL , 27*PokemonMysteryDungeonExplorersofSkyInTheMorningSun_mvl/mxv
 .byte   W08
 .byte   VOL , 27*PokemonMysteryDungeonExplorersofSkyInTheMorningSun_mvl/mxv
 .byte   W08
 .byte   VOL , 28*PokemonMysteryDungeonExplorersofSkyInTheMorningSun_mvl/mxv
 .byte   W08
 .byte   VOL , 28*PokemonMysteryDungeonExplorersofSkyInTheMorningSun_mvl/mxv
 .byte   W04
 .byte   VOL , 29*PokemonMysteryDungeonExplorersofSkyInTheMorningSun_mvl/mxv
 .byte   W04
 .byte   VOL , 30*PokemonMysteryDungeonExplorersofSkyInTheMorningSun_mvl/mxv
 .byte   W04
 .byte   VOL , 30*PokemonMysteryDungeonExplorersofSkyInTheMorningSun_mvl/mxv
 .byte   W04
 .byte   VOL , 30*PokemonMysteryDungeonExplorersofSkyInTheMorningSun_mvl/mxv
 .byte   W04
 .byte   VOL , 30*PokemonMysteryDungeonExplorersofSkyInTheMorningSun_mvl/mxv
 .byte   W04
 .byte   VOL , 31*PokemonMysteryDungeonExplorersofSkyInTheMorningSun_mvl/mxv
 .byte   W04
 .byte   VOL , 32*PokemonMysteryDungeonExplorersofSkyInTheMorningSun_mvl/mxv
 .byte   W04
 .byte   VOL , 32*PokemonMysteryDungeonExplorersofSkyInTheMorningSun_mvl/mxv
 .byte   W04
 .byte   VOL , 33*PokemonMysteryDungeonExplorersofSkyInTheMorningSun_mvl/mxv
 .byte   W04
 .byte   VOL , 34*PokemonMysteryDungeonExplorersofSkyInTheMorningSun_mvl/mxv
 .byte   W04
 .byte   VOL , 34*PokemonMysteryDungeonExplorersofSkyInTheMorningSun_mvl/mxv
 .byte   W04
 .byte   VOL , 34*PokemonMysteryDungeonExplorersofSkyInTheMorningSun_mvl/mxv
 .byte   N92 ,An1
 .byte   W04
 .byte   VOL , 34*PokemonMysteryDungeonExplorersofSkyInTheMorningSun_mvl/mxv
 .byte   W08
 .byte   VOL , 33*PokemonMysteryDungeonExplorersofSkyInTheMorningSun_mvl/mxv
 .byte   W04
@  #01 @066   ----------------------------------------
 .byte   VOL , 32*PokemonMysteryDungeonExplorersofSkyInTheMorningSun_mvl/mxv
 .byte   W04
 .byte   VOL , 32*PokemonMysteryDungeonExplorersofSkyInTheMorningSun_mvl/mxv
 .byte   W04
 .byte   VOL , 31*PokemonMysteryDungeonExplorersofSkyInTheMorningSun_mvl/mxv
 .byte   W04
 .byte   VOL , 30*PokemonMysteryDungeonExplorersofSkyInTheMorningSun_mvl/mxv
 .byte   W04
 .byte   VOL , 30*PokemonMysteryDungeonExplorersofSkyInTheMorningSun_mvl/mxv
 .byte   W08
 .byte   VOL , 30*PokemonMysteryDungeonExplorersofSkyInTheMorningSun_mvl/mxv
 .byte   W04
 .byte   VOL , 30*PokemonMysteryDungeonExplorersofSkyInTheMorningSun_mvl/mxv
 .byte   W04
 .byte   VOL , 29*PokemonMysteryDungeonExplorersofSkyInTheMorningSun_mvl/mxv
 .byte   W04
 .byte   VOL , 28*PokemonMysteryDungeonExplorersofSkyInTheMorningSun_mvl/mxv
 .byte   W04
 .byte   VOL , 28*PokemonMysteryDungeonExplorersofSkyInTheMorningSun_mvl/mxv
 .byte   W08
 .byte   VOL , 28*PokemonMysteryDungeonExplorersofSkyInTheMorningSun_mvl/mxv
 .byte   W04
 .byte   VOL , 27*PokemonMysteryDungeonExplorersofSkyInTheMorningSun_mvl/mxv
 .byte   W04
 .byte   VOL , 27*PokemonMysteryDungeonExplorersofSkyInTheMorningSun_mvl/mxv
 .byte   W04
 .byte   VOL , 27*PokemonMysteryDungeonExplorersofSkyInTheMorningSun_mvl/mxv
 .byte   W04
 .byte   VOL , 26*PokemonMysteryDungeonExplorersofSkyInTheMorningSun_mvl/mxv
 .byte   W08
 .byte   VOL , 26*PokemonMysteryDungeonExplorersofSkyInTheMorningSun_mvl/mxv
 .byte   W04
 .byte   VOL , 26*PokemonMysteryDungeonExplorersofSkyInTheMorningSun_mvl/mxv
 .byte   W03
 .byte   EOT
 .byte   Fs3
 .byte   W01
 .byte   N92 ,Gn1
 .byte   TIE ,Fs3
 .byte   W04
 .byte   VOL , 26*PokemonMysteryDungeonExplorersofSkyInTheMorningSun_mvl/mxv
 .byte   W04
 .byte   VOL , 27*PokemonMysteryDungeonExplorersofSkyInTheMorningSun_mvl/mxv
 .byte   W04
 .byte   VOL , 27*PokemonMysteryDungeonExplorersofSkyInTheMorningSun_mvl/mxv
 .byte   W04
@  #01 @067   ----------------------------------------
 .byte   VOL , 27*PokemonMysteryDungeonExplorersofSkyInTheMorningSun_mvl/mxv
 .byte   W08
 .byte   VOL , 28*PokemonMysteryDungeonExplorersofSkyInTheMorningSun_mvl/mxv
 .byte   W04
 .byte   VOL , 28*PokemonMysteryDungeonExplorersofSkyInTheMorningSun_mvl/mxv
 .byte   W04
 .byte   VOL , 28*PokemonMysteryDungeonExplorersofSkyInTheMorningSun_mvl/mxv
 .byte   W04
 .byte   VOL , 29*PokemonMysteryDungeonExplorersofSkyInTheMorningSun_mvl/mxv
 .byte   W08
 .byte   VOL , 30*PokemonMysteryDungeonExplorersofSkyInTheMorningSun_mvl/mxv
 .byte   W04
 .byte   VOL , 30*PokemonMysteryDungeonExplorersofSkyInTheMorningSun_mvl/mxv
 .byte   W04
 .byte   VOL , 30*PokemonMysteryDungeonExplorersofSkyInTheMorningSun_mvl/mxv
 .byte   W08
 .byte   VOL , 30*PokemonMysteryDungeonExplorersofSkyInTheMorningSun_mvl/mxv
 .byte   W04
 .byte   VOL , 31*PokemonMysteryDungeonExplorersofSkyInTheMorningSun_mvl/mxv
 .byte   W04
 .byte   VOL , 32*PokemonMysteryDungeonExplorersofSkyInTheMorningSun_mvl/mxv
 .byte   W04
 .byte   VOL , 32*PokemonMysteryDungeonExplorersofSkyInTheMorningSun_mvl/mxv
 .byte   W08
 .byte   VOL , 33*PokemonMysteryDungeonExplorersofSkyInTheMorningSun_mvl/mxv
 .byte   W04
 .byte   VOL , 34*PokemonMysteryDungeonExplorersofSkyInTheMorningSun_mvl/mxv
 .byte   W04
 .byte   VOL , 34*PokemonMysteryDungeonExplorersofSkyInTheMorningSun_mvl/mxv
 .byte   W04
 .byte   VOL , 34*PokemonMysteryDungeonExplorersofSkyInTheMorningSun_mvl/mxv
 .byte   W04
 .byte   N92 ,Gs1
 .byte   W08
 .byte   VOL , 34*PokemonMysteryDungeonExplorersofSkyInTheMorningSun_mvl/mxv
 .byte   W04
 .byte   VOL , 34*PokemonMysteryDungeonExplorersofSkyInTheMorningSun_mvl/mxv
 .byte   W08
@  #01 @068   ----------------------------------------
 .byte   VOL , 33*PokemonMysteryDungeonExplorersofSkyInTheMorningSun_mvl/mxv
 .byte   W04
 .byte   VOL , 32*PokemonMysteryDungeonExplorersofSkyInTheMorningSun_mvl/mxv
 .byte   W08
 .byte   VOL , 32*PokemonMysteryDungeonExplorersofSkyInTheMorningSun_mvl/mxv
 .byte   W08
 .byte   VOL , 31*PokemonMysteryDungeonExplorersofSkyInTheMorningSun_mvl/mxv
 .byte   W08
 .byte   VOL , 30*PokemonMysteryDungeonExplorersofSkyInTheMorningSun_mvl/mxv
 .byte   W04
 .byte   VOL , 30*PokemonMysteryDungeonExplorersofSkyInTheMorningSun_mvl/mxv
 .byte   W08
 .byte   VOL , 30*PokemonMysteryDungeonExplorersofSkyInTheMorningSun_mvl/mxv
 .byte   W08
 .byte   VOL , 30*PokemonMysteryDungeonExplorersofSkyInTheMorningSun_mvl/mxv
 .byte   W04
 .byte   VOL , 29*PokemonMysteryDungeonExplorersofSkyInTheMorningSun_mvl/mxv
 .byte   W08
 .byte   VOL , 28*PokemonMysteryDungeonExplorersofSkyInTheMorningSun_mvl/mxv
 .byte   W04
 .byte   VOL , 28*PokemonMysteryDungeonExplorersofSkyInTheMorningSun_mvl/mxv
 .byte   W04
 .byte   VOL , 28*PokemonMysteryDungeonExplorersofSkyInTheMorningSun_mvl/mxv
 .byte   W04
 .byte   VOL , 29*PokemonMysteryDungeonExplorersofSkyInTheMorningSun_mvl/mxv
 .byte   W03
 .byte   EOT
 .byte   Fs3
 .byte   W01
 .byte   N92 ,An1
 .byte   N92 ,En3
 .byte   W04
 .byte   VOL , 30*PokemonMysteryDungeonExplorersofSkyInTheMorningSun_mvl/mxv
 .byte   W04
 .byte   VOL , 30*PokemonMysteryDungeonExplorersofSkyInTheMorningSun_mvl/mxv
 .byte   W04
 .byte   VOL , 30*PokemonMysteryDungeonExplorersofSkyInTheMorningSun_mvl/mxv
 .byte   W04
 .byte   VOL , 30*PokemonMysteryDungeonExplorersofSkyInTheMorningSun_mvl/mxv
 .byte   W04
@  #01 @069   ----------------------------------------
 .byte   VOL , 31*PokemonMysteryDungeonExplorersofSkyInTheMorningSun_mvl/mxv
 .byte   W08
 .byte   VOL , 32*PokemonMysteryDungeonExplorersofSkyInTheMorningSun_mvl/mxv
 .byte   W04
 .byte   VOL , 32*PokemonMysteryDungeonExplorersofSkyInTheMorningSun_mvl/mxv
 .byte   W04
 .byte   VOL , 33*PokemonMysteryDungeonExplorersofSkyInTheMorningSun_mvl/mxv
 .byte   W04
 .byte   VOL , 34*PokemonMysteryDungeonExplorersofSkyInTheMorningSun_mvl/mxv
 .byte   W04
 .byte   VOL , 34*PokemonMysteryDungeonExplorersofSkyInTheMorningSun_mvl/mxv
 .byte   W04
 .byte   VOL , 34*PokemonMysteryDungeonExplorersofSkyInTheMorningSun_mvl/mxv
 .byte   W04
 .byte   VOL , 34*PokemonMysteryDungeonExplorersofSkyInTheMorningSun_mvl/mxv
 .byte   W04
 .byte   VOL , 31*PokemonMysteryDungeonExplorersofSkyInTheMorningSun_mvl/mxv
 .byte   W04
 .byte   VOL , 30*PokemonMysteryDungeonExplorersofSkyInTheMorningSun_mvl/mxv
 .byte   W04
 .byte   VOL , 28*PokemonMysteryDungeonExplorersofSkyInTheMorningSun_mvl/mxv
 .byte   W04
 .byte   VOL , 26*PokemonMysteryDungeonExplorersofSkyInTheMorningSun_mvl/mxv
 .byte   W04
 .byte   VOL , 24*PokemonMysteryDungeonExplorersofSkyInTheMorningSun_mvl/mxv
 .byte   W04
 .byte   VOL , 23*PokemonMysteryDungeonExplorersofSkyInTheMorningSun_mvl/mxv
 .byte   W04
 .byte   VOL , 21*PokemonMysteryDungeonExplorersofSkyInTheMorningSun_mvl/mxv
 .byte   W04
 .byte   VOL , 19*PokemonMysteryDungeonExplorersofSkyInTheMorningSun_mvl/mxv
 .byte   W04
 .byte   VOL , 18*PokemonMysteryDungeonExplorersofSkyInTheMorningSun_mvl/mxv
 .byte   W04
 .byte   VOL , 17*PokemonMysteryDungeonExplorersofSkyInTheMorningSun_mvl/mxv
 .byte   W76
@  #01 @070   ----------------------------------------
 .byte   W96
@  #01 @071   ----------------------------------------
 .byte   W96
@  #01 @072   ----------------------------------------
 .byte   W96
@  #01 @073   ----------------------------------------
 .byte   W96
@  #01 @074   ----------------------------------------
 .byte   W96
@  #01 @075   ----------------------------------------
 .byte   W96
@  #01 @076   ----------------------------------------
 .byte   W96
@  #01 @077   ----------------------------------------
 .byte   W96
@  #01 @078   ----------------------------------------
 .byte   PATT
  .word Label_016859AA
@  #01 @079   ----------------------------------------
 .byte   PATT
  .word Label_016859C7
@  #01 @080   ----------------------------------------
 .byte   PATT
  .word Label_016859E5
@  #01 @081   ----------------------------------------
 .byte   PATT
  .word Label_01685A09
@  #01 @082   ----------------------------------------
 .byte   PATT
  .word Label_01685A16
@  #01 @083   ----------------------------------------
 .byte   EOT
 .byte   Fs3
 .byte   W01
 .byte   TIE ,Gn1 ,v084
 .byte   TIE ,Fs3 ,v060
 .byte   W02
 .byte   VOL , 28*PokemonMysteryDungeonExplorersofSkyInTheMorningSun_mvl/mxv
 .byte   W01
 .byte   VOL , 28*PokemonMysteryDungeonExplorersofSkyInTheMorningSun_mvl/mxv
 .byte   W02
 .byte   VOL , 29*PokemonMysteryDungeonExplorersofSkyInTheMorningSun_mvl/mxv
 .byte   W06
 .byte   VOL , 30*PokemonMysteryDungeonExplorersofSkyInTheMorningSun_mvl/mxv
 .byte   W06
 .byte   VOL , 31*PokemonMysteryDungeonExplorersofSkyInTheMorningSun_mvl/mxv
 .byte   W06
 .byte   VOL , 32*PokemonMysteryDungeonExplorersofSkyInTheMorningSun_mvl/mxv
 .byte   W06
 .byte   VOL , 33*PokemonMysteryDungeonExplorersofSkyInTheMorningSun_mvl/mxv
 .byte   W06
 .byte   VOL , 34*PokemonMysteryDungeonExplorersofSkyInTheMorningSun_mvl/mxv
 .byte   W36
 .byte   W01
@  #01 @084   ----------------------------------------
 .byte   PATT
  .word Label_01685A3D
@  #01 @085   ----------------------------------------
 .byte   PATT
  .word Label_01685A47
@  #01 @086   ----------------------------------------
 .byte   EOT
 .byte   Gn1 ,v066
 .byte   W01
 .byte   VOL , 27*PokemonMysteryDungeonExplorersofSkyInTheMorningSun_mvl/mxv
 .byte   TIE ,An1 ,v084
 .byte   N92 ,Fs3 ,v060
 .byte   W01
 .byte   VOL , 26*PokemonMysteryDungeonExplorersofSkyInTheMorningSun_mvl/mxv
 .byte   W06
 .byte   VOL , 30*PokemonMysteryDungeonExplorersofSkyInTheMorningSun_mvl/mxv
 .byte   W06
 .byte   VOL , 32*PokemonMysteryDungeonExplorersofSkyInTheMorningSun_mvl/mxv
 .byte   W06
 .byte   VOL , 34*PokemonMysteryDungeonExplorersofSkyInTheMorningSun_mvl/mxv
 .byte   W06
 .byte   VOL , 34*PokemonMysteryDungeonExplorersofSkyInTheMorningSun_mvl/mxv
 .byte   W42
 .byte   W01
 .byte   VOL , 33*PokemonMysteryDungeonExplorersofSkyInTheMorningSun_mvl/mxv
 .byte   W04
@  #01 @087   ----------------------------------------
 .byte   PATT
  .word Label_01685A6D
@  #01 @088   ----------------------------------------
 .byte   PATT
  .word Label_01685A86
@  #01 @089   ----------------------------------------
 .byte   PATT
  .word Label_01685AA1
@  #01 @090   ----------------------------------------
 .byte   PATT
  .word Label_01685AC3
@  #01 @091   ----------------------------------------
 .byte   EOT
 .byte   An1 ,v064
 .byte   W01
 .byte   GOTO
  .word Label_01685ACF
 .byte   FINE

@**************** Track 2 (Midi-Chn.1) ****************@

PokemonMysteryDungeonExplorersofSkyInTheMorningSun_002:
@  #02 @000   ----------------------------------------
 .byte   KEYSH , PokemonMysteryDungeonExplorersofSkyInTheMorningSun_key+0
 .byte   VOICE , 11
 .byte   MODT 0
 .byte   LFOS 44
 .byte   VOL , 48*PokemonMysteryDungeonExplorersofSkyInTheMorningSun_mvl/mxv
 .byte   PAN , c_v+0
 .byte   VOL , 15*PokemonMysteryDungeonExplorersofSkyInTheMorningSun_mvl/mxv
 .byte   PAN , c_v-64
 .byte   VOL , 15*PokemonMysteryDungeonExplorersofSkyInTheMorningSun_mvl/mxv
 .byte   BEND , c_v+0
 .byte   W12
 .byte   N17 ,Bn4 ,v116
 .byte   W24
 .byte   N30 ,Fs5
 .byte   W48
 .byte   N17
 .byte   W12
@  #02 @001   ----------------------------------------
Label_016860E6:
 .byte   W12
 .byte   N07 ,Gn5 ,v112
 .byte   W12
 .byte   N42 ,An5 ,v104
 .byte   W60
 .byte   N17 ,An5 ,v116
 .byte   W12
 .byte   PEND 
@  #02 @002   ----------------------------------------
Label_016860F4:
 .byte   W12
 .byte   N07 ,Cs6 ,v116
 .byte   W12
 .byte   TIE ,Dn6 ,v060
 .byte   W72
 .byte   PEND 
@  #02 @003   ----------------------------------------
 .byte   W80
 .byte   EOT
 .byte   W16
@  #02 @004   ----------------------------------------
 .byte   W12
 .byte   N17 ,Bn4 ,v116
 .byte   W24
 .byte   N30 ,Fs5
 .byte   W48
 .byte   N17
 .byte   W12
@  #02 @005   ----------------------------------------
 .byte   PATT
  .word Label_016860E6
@  #02 @006   ----------------------------------------
 .byte   PATT
  .word Label_016860F4
@  #02 @007   ----------------------------------------
 .byte   W80
 .byte   EOT
 .byte   Dn6
 .byte   W16
@  #02 @008   ----------------------------------------
 .byte   W96
@  #02 @009   ----------------------------------------
 .byte   W96
@  #02 @010   ----------------------------------------
 .byte   W96
@  #02 @011   ----------------------------------------
 .byte   W96
@  #02 @012   ----------------------------------------
 .byte   W96
@  #02 @013   ----------------------------------------
 .byte   W96
@  #02 @014   ----------------------------------------
 .byte   W96
@  #02 @015   ----------------------------------------
 .byte   W96
@  #02 @016   ----------------------------------------
 .byte   W24
 .byte   VOL , 37*PokemonMysteryDungeonExplorersofSkyInTheMorningSun_mvl/mxv
 .byte   PAN , c_v+0
 .byte   VOL , 37*PokemonMysteryDungeonExplorersofSkyInTheMorningSun_mvl/mxv
 .byte   BEND , c_v+0
 .byte   W72
@  #02 @017   ----------------------------------------
 .byte   W24
 .byte   VOL , 37*PokemonMysteryDungeonExplorersofSkyInTheMorningSun_mvl/mxv
 .byte   W60
 .byte   VOICE , 74
 .byte   W12
@  #02 @018   ----------------------------------------
 .byte   N24 ,Fs4 ,v127
 .byte   W24
Label_01686136:
 .byte   N36 ,Cs5 ,v127
 .byte   W36
 .byte   N12 ,Bn4
 .byte   W12
 .byte   Bn4 ,v060
 .byte   W12
 .byte   Bn4 ,v036
 .byte   W12
@  #02 @019   ----------------------------------------
 .byte   N72 ,Fs4 ,v127
 .byte   W42
 .byte   VOL , 37*PokemonMysteryDungeonExplorersofSkyInTheMorningSun_mvl/mxv
 .byte   W06
 .byte   VOL , 32*PokemonMysteryDungeonExplorersofSkyInTheMorningSun_mvl/mxv
 .byte   W06
 .byte   VOL , 28*PokemonMysteryDungeonExplorersofSkyInTheMorningSun_mvl/mxv
 .byte   W06
 .byte   VOL , 25*PokemonMysteryDungeonExplorersofSkyInTheMorningSun_mvl/mxv
 .byte   W06
 .byte   VOL , 22*PokemonMysteryDungeonExplorersofSkyInTheMorningSun_mvl/mxv
 .byte   W06
 .byte   VOL , 19*PokemonMysteryDungeonExplorersofSkyInTheMorningSun_mvl/mxv
 .byte   N24 ,Fs4 ,v060
 .byte   W24
@  #02 @020   ----------------------------------------
 .byte   Fs4 ,v036
 .byte   W24
 .byte   VOL , 37*PokemonMysteryDungeonExplorersofSkyInTheMorningSun_mvl/mxv
 .byte   N36 ,En4 ,v127
 .byte   W36
 .byte   N12 ,An4
 .byte   W12
 .byte   An4 ,v060
 .byte   W12
 .byte   An4 ,v036
 .byte   W12
@  #02 @021   ----------------------------------------
 .byte   N72 ,Fs4 ,v127
 .byte   W12
 .byte   VOL , 37*PokemonMysteryDungeonExplorersofSkyInTheMorningSun_mvl/mxv
 .byte   W06
 .byte   VOL , 34*PokemonMysteryDungeonExplorersofSkyInTheMorningSun_mvl/mxv
 .byte   W06
 .byte   VOL , 32*PokemonMysteryDungeonExplorersofSkyInTheMorningSun_mvl/mxv
 .byte   W06
 .byte   VOL , 30*PokemonMysteryDungeonExplorersofSkyInTheMorningSun_mvl/mxv
 .byte   W06
 .byte   VOL , 28*PokemonMysteryDungeonExplorersofSkyInTheMorningSun_mvl/mxv
 .byte   W06
 .byte   VOL , 27*PokemonMysteryDungeonExplorersofSkyInTheMorningSun_mvl/mxv
 .byte   W06
 .byte   VOL , 25*PokemonMysteryDungeonExplorersofSkyInTheMorningSun_mvl/mxv
 .byte   W06
 .byte   VOL , 23*PokemonMysteryDungeonExplorersofSkyInTheMorningSun_mvl/mxv
 .byte   W06
 .byte   VOL , 21*PokemonMysteryDungeonExplorersofSkyInTheMorningSun_mvl/mxv
 .byte   W06
 .byte   VOL , 20*PokemonMysteryDungeonExplorersofSkyInTheMorningSun_mvl/mxv
 .byte   W06
 .byte   VOL , 19*PokemonMysteryDungeonExplorersofSkyInTheMorningSun_mvl/mxv
 .byte   N12 ,Fs4 ,v060
 .byte   W06
 .byte   VOL , 17*PokemonMysteryDungeonExplorersofSkyInTheMorningSun_mvl/mxv
 .byte   W06
 .byte   VOL , 15*PokemonMysteryDungeonExplorersofSkyInTheMorningSun_mvl/mxv
 .byte   N12 ,Fs4 ,v036
 .byte   W12
@  #02 @022   ----------------------------------------
 .byte   VOL , 37*PokemonMysteryDungeonExplorersofSkyInTheMorningSun_mvl/mxv
 .byte   N24 ,Fs3 ,v127
 .byte   W24
 .byte   Bn3
 .byte   W24
 .byte   N12 ,Fs3
 .byte   W12
 .byte   N24 ,Cs4
 .byte   W24
 .byte   N12 ,Fs3
 .byte   W12
@  #02 @023   ----------------------------------------
 .byte   Fs3 ,v060
 .byte   W12
 .byte   N24 ,Dn4 ,v127
 .byte   W24
 .byte   N12 ,Fs3
 .byte   W12
 .byte   Fs3 ,v060
 .byte   W12
 .byte   N24 ,En4 ,v127
 .byte   W24
 .byte   N12 ,An4
 .byte   W12
@  #02 @024   ----------------------------------------
 .byte   An4 ,v060
 .byte   W12
 .byte   TIE ,Fs4 ,v127
 .byte   W30
 .byte   VOL , 36*PokemonMysteryDungeonExplorersofSkyInTheMorningSun_mvl/mxv
 .byte   W06
 .byte   VOL , 34*PokemonMysteryDungeonExplorersofSkyInTheMorningSun_mvl/mxv
 .byte   W06
 .byte   VOL , 31*PokemonMysteryDungeonExplorersofSkyInTheMorningSun_mvl/mxv
 .byte   W06
 .byte   VOL , 29*PokemonMysteryDungeonExplorersofSkyInTheMorningSun_mvl/mxv
 .byte   W06
 .byte   VOL , 28*PokemonMysteryDungeonExplorersofSkyInTheMorningSun_mvl/mxv
 .byte   W06
 .byte   VOL , 26*PokemonMysteryDungeonExplorersofSkyInTheMorningSun_mvl/mxv
 .byte   W06
 .byte   VOL , 23*PokemonMysteryDungeonExplorersofSkyInTheMorningSun_mvl/mxv
 .byte   W06
 .byte   VOL , 22*PokemonMysteryDungeonExplorersofSkyInTheMorningSun_mvl/mxv
 .byte   W06
 .byte   VOL , 20*PokemonMysteryDungeonExplorersofSkyInTheMorningSun_mvl/mxv
 .byte   W06
@  #02 @025   ----------------------------------------
 .byte   VOL , 19*PokemonMysteryDungeonExplorersofSkyInTheMorningSun_mvl/mxv
 .byte   W06
 .byte   VOL , 17*PokemonMysteryDungeonExplorersofSkyInTheMorningSun_mvl/mxv
 .byte   W06
 .byte   VOL , 15*PokemonMysteryDungeonExplorersofSkyInTheMorningSun_mvl/mxv
 .byte   W06
 .byte   VOL , 14*PokemonMysteryDungeonExplorersofSkyInTheMorningSun_mvl/mxv
 .byte   W06
 .byte   VOL , 12*PokemonMysteryDungeonExplorersofSkyInTheMorningSun_mvl/mxv
 .byte   W06
 .byte   VOL , 11*PokemonMysteryDungeonExplorersofSkyInTheMorningSun_mvl/mxv
 .byte   W06
 .byte   VOL , 10*PokemonMysteryDungeonExplorersofSkyInTheMorningSun_mvl/mxv
 .byte   W06
 .byte   VOL , 8*PokemonMysteryDungeonExplorersofSkyInTheMorningSun_mvl/mxv
 .byte   W06
 .byte   EOT
 .byte   N12 ,Fs4 ,v060
 .byte   W12
 .byte   Fs4 ,v036
 .byte   W12
 .byte   Fs4 ,v028
 .byte   W12
 .byte   Fs4 ,v020
 .byte   W12
@  #02 @026   ----------------------------------------
 .byte   VOL , 37*PokemonMysteryDungeonExplorersofSkyInTheMorningSun_mvl/mxv
 .byte   N24 ,Fs5 ,v112
 .byte   W24
 .byte   N36 ,Cs6
 .byte   W36
 .byte   N12 ,Bn5
 .byte   W12
 .byte   Bn5 ,v048
 .byte   W12
 .byte   Bn5 ,v028
 .byte   W12
@  #02 @027   ----------------------------------------
 .byte   N72 ,Fs5 ,v112
 .byte   W30
 .byte   VOL , 36*PokemonMysteryDungeonExplorersofSkyInTheMorningSun_mvl/mxv
 .byte   W06
 .byte   VOL , 34*PokemonMysteryDungeonExplorersofSkyInTheMorningSun_mvl/mxv
 .byte   W06
 .byte   VOL , 30*PokemonMysteryDungeonExplorersofSkyInTheMorningSun_mvl/mxv
 .byte   W06
 .byte   VOL , 28*PokemonMysteryDungeonExplorersofSkyInTheMorningSun_mvl/mxv
 .byte   W06
 .byte   VOL , 26*PokemonMysteryDungeonExplorersofSkyInTheMorningSun_mvl/mxv
 .byte   W06
 .byte   VOL , 23*PokemonMysteryDungeonExplorersofSkyInTheMorningSun_mvl/mxv
 .byte   W06
 .byte   VOL , 21*PokemonMysteryDungeonExplorersofSkyInTheMorningSun_mvl/mxv
 .byte   W06
 .byte   VOL , 19*PokemonMysteryDungeonExplorersofSkyInTheMorningSun_mvl/mxv
 .byte   N12 ,Fs5 ,v048
 .byte   W06
 .byte   VOL , 18*PokemonMysteryDungeonExplorersofSkyInTheMorningSun_mvl/mxv
 .byte   W06
 .byte   VOL , 15*PokemonMysteryDungeonExplorersofSkyInTheMorningSun_mvl/mxv
 .byte   N12 ,Fs5 ,v028
 .byte   W06
 .byte   VOL , 14*PokemonMysteryDungeonExplorersofSkyInTheMorningSun_mvl/mxv
 .byte   W06
@  #02 @028   ----------------------------------------
 .byte   N12 ,Fs5 ,v020
 .byte   W12
 .byte   Fs5 ,v012
 .byte   W12
 .byte   VOL , 37*PokemonMysteryDungeonExplorersofSkyInTheMorningSun_mvl/mxv
 .byte   N36 ,En5 ,v112
 .byte   W36
 .byte   N12 ,An5
 .byte   W12
 .byte   An5 ,v048
 .byte   W12
 .byte   An5 ,v028
 .byte   W12
@  #02 @029   ----------------------------------------
 .byte   N72 ,Fs5 ,v112
 .byte   W12
 .byte   VOL , 36*PokemonMysteryDungeonExplorersofSkyInTheMorningSun_mvl/mxv
 .byte   W06
 .byte   VOL , 32*PokemonMysteryDungeonExplorersofSkyInTheMorningSun_mvl/mxv
 .byte   W06
 .byte   VOL , 28*PokemonMysteryDungeonExplorersofSkyInTheMorningSun_mvl/mxv
 .byte   W06
 .byte   VOL , 25*PokemonMysteryDungeonExplorersofSkyInTheMorningSun_mvl/mxv
 .byte   W06
 .byte   VOL , 22*PokemonMysteryDungeonExplorersofSkyInTheMorningSun_mvl/mxv
 .byte   W06
 .byte   VOL , 19*PokemonMysteryDungeonExplorersofSkyInTheMorningSun_mvl/mxv
 .byte   W06
 .byte   VOL , 17*PokemonMysteryDungeonExplorersofSkyInTheMorningSun_mvl/mxv
 .byte   W06
 .byte   VOL , 14*PokemonMysteryDungeonExplorersofSkyInTheMorningSun_mvl/mxv
 .byte   W06
 .byte   VOL , 11*PokemonMysteryDungeonExplorersofSkyInTheMorningSun_mvl/mxv
 .byte   W12
 .byte   N12 ,Fs5 ,v048
 .byte   W12
 .byte   Fs5 ,v028
 .byte   W12
@  #02 @030   ----------------------------------------
 .byte   VOL , 37*PokemonMysteryDungeonExplorersofSkyInTheMorningSun_mvl/mxv
 .byte   N24 ,An4 ,v112
 .byte   W24
 .byte   Bn4
 .byte   W24
 .byte   N12 ,Fs5
 .byte   W12
 .byte   N24
 .byte   W24
 .byte   N12
 .byte   W12
@  #02 @031   ----------------------------------------
 .byte   Fs5 ,v048
 .byte   W12
 .byte   N24 ,Fs5 ,v112
 .byte   W24
 .byte   N12 ,En5
 .byte   W12
 .byte   En5 ,v048
 .byte   W12
 .byte   N24 ,Dn5 ,v112
 .byte   W24
 .byte   N12 ,En5
 .byte   W12
@  #02 @032   ----------------------------------------
 .byte   En5 ,v048
 .byte   W12
 .byte   TIE ,Dn5 ,v112
 .byte   W24
 .byte   VOL , 35*PokemonMysteryDungeonExplorersofSkyInTheMorningSun_mvl/mxv
 .byte   W06
 .byte   VOL , 34*PokemonMysteryDungeonExplorersofSkyInTheMorningSun_mvl/mxv
 .byte   W06
 .byte   VOL , 32*PokemonMysteryDungeonExplorersofSkyInTheMorningSun_mvl/mxv
 .byte   W06
 .byte   VOL , 30*PokemonMysteryDungeonExplorersofSkyInTheMorningSun_mvl/mxv
 .byte   W06
 .byte   VOL , 28*PokemonMysteryDungeonExplorersofSkyInTheMorningSun_mvl/mxv
 .byte   W06
 .byte   VOL , 27*PokemonMysteryDungeonExplorersofSkyInTheMorningSun_mvl/mxv
 .byte   W06
 .byte   VOL , 25*PokemonMysteryDungeonExplorersofSkyInTheMorningSun_mvl/mxv
 .byte   W06
 .byte   VOL , 23*PokemonMysteryDungeonExplorersofSkyInTheMorningSun_mvl/mxv
 .byte   W06
 .byte   VOL , 22*PokemonMysteryDungeonExplorersofSkyInTheMorningSun_mvl/mxv
 .byte   W06
 .byte   VOL , 21*PokemonMysteryDungeonExplorersofSkyInTheMorningSun_mvl/mxv
 .byte   W06
@  #02 @033   ----------------------------------------
 .byte   VOL , 20*PokemonMysteryDungeonExplorersofSkyInTheMorningSun_mvl/mxv
 .byte   W06
 .byte   VOL , 19*PokemonMysteryDungeonExplorersofSkyInTheMorningSun_mvl/mxv
 .byte   W06
 .byte   VOL , 17*PokemonMysteryDungeonExplorersofSkyInTheMorningSun_mvl/mxv
 .byte   W06
 .byte   VOL , 16*PokemonMysteryDungeonExplorersofSkyInTheMorningSun_mvl/mxv
 .byte   W06
 .byte   VOL , 14*PokemonMysteryDungeonExplorersofSkyInTheMorningSun_mvl/mxv
 .byte   W06
 .byte   VOL , 14*PokemonMysteryDungeonExplorersofSkyInTheMorningSun_mvl/mxv
 .byte   W06
 .byte   VOL , 12*PokemonMysteryDungeonExplorersofSkyInTheMorningSun_mvl/mxv
 .byte   W06
 .byte   VOL , 11*PokemonMysteryDungeonExplorersofSkyInTheMorningSun_mvl/mxv
 .byte   W06
 .byte   EOT
 .byte   VOL , 10*PokemonMysteryDungeonExplorersofSkyInTheMorningSun_mvl/mxv
 .byte   N12 ,Dn5 ,v048
 .byte   W06
 .byte   VOL , 9*PokemonMysteryDungeonExplorersofSkyInTheMorningSun_mvl/mxv
 .byte   W06
 .byte   VOL , 8*PokemonMysteryDungeonExplorersofSkyInTheMorningSun_mvl/mxv
 .byte   N12 ,Dn5 ,v028
 .byte   W12
 .byte   Dn5 ,v020
 .byte   W12
 .byte   Dn5 ,v012
 .byte   W12
@  #02 @034   ----------------------------------------
 .byte   W96
@  #02 @035   ----------------------------------------
 .byte   W96
@  #02 @036   ----------------------------------------
 .byte   W96
@  #02 @037   ----------------------------------------
 .byte   W96
@  #02 @038   ----------------------------------------
 .byte   W96
@  #02 @039   ----------------------------------------
 .byte   W96
@  #02 @040   ----------------------------------------
 .byte   W96
@  #02 @041   ----------------------------------------
 .byte   W96
@  #02 @042   ----------------------------------------
 .byte   W96
@  #02 @043   ----------------------------------------
 .byte   W96
@  #02 @044   ----------------------------------------
 .byte   W96
@  #02 @045   ----------------------------------------
 .byte   W96
@  #02 @046   ----------------------------------------
 .byte   W96
@  #02 @047   ----------------------------------------
 .byte   W96
@  #02 @048   ----------------------------------------
 .byte   W96
@  #02 @049   ----------------------------------------
 .byte   W96
@  #02 @050   ----------------------------------------
 .byte   W96
@  #02 @051   ----------------------------------------
 .byte   W96
@  #02 @052   ----------------------------------------
 .byte   W96
@  #02 @053   ----------------------------------------
 .byte   W24
 .byte   VOL , 37*PokemonMysteryDungeonExplorersofSkyInTheMorningSun_mvl/mxv
 .byte   W72
@  #02 @054   ----------------------------------------
 .byte   N12 ,Bn3 ,v088
 .byte   W12
 .byte   Bn3 ,v028
 .byte   W12
 .byte   N36 ,Fs4 ,v088
 .byte   W36
 .byte   N12 ,Fs4 ,v028
 .byte   W12
 .byte   Fs4 ,v088
 .byte   W12
 .byte   Fs4 ,v028
 .byte   W12
@  #02 @055   ----------------------------------------
 .byte   Gn4 ,v088
 .byte   W12
 .byte   N48 ,An4
 .byte   W48
 .byte   N12 ,An4 ,v028
 .byte   W12
 .byte   An4 ,v088
 .byte   W12
 .byte   An4 ,v028
 .byte   W12
@  #02 @056   ----------------------------------------
 .byte   Cs5 ,v088
 .byte   W12
 .byte   TIE ,Dn5
 .byte   W36
 .byte   VOL , 36*PokemonMysteryDungeonExplorersofSkyInTheMorningSun_mvl/mxv
 .byte   W16
 .byte   VOL , 35*PokemonMysteryDungeonExplorersofSkyInTheMorningSun_mvl/mxv
 .byte   W04
 .byte   VOL , 35*PokemonMysteryDungeonExplorersofSkyInTheMorningSun_mvl/mxv
 .byte   W20
 .byte   VOL , 35*PokemonMysteryDungeonExplorersofSkyInTheMorningSun_mvl/mxv
 .byte   W04
 .byte   VOL , 34*PokemonMysteryDungeonExplorersofSkyInTheMorningSun_mvl/mxv
 .byte   W04
@  #02 @057   ----------------------------------------
 .byte   VOL , 34*PokemonMysteryDungeonExplorersofSkyInTheMorningSun_mvl/mxv
 .byte   W08
 .byte   VOL , 34*PokemonMysteryDungeonExplorersofSkyInTheMorningSun_mvl/mxv
 .byte   W04
 .byte   VOL , 32*PokemonMysteryDungeonExplorersofSkyInTheMorningSun_mvl/mxv
 .byte   W04
 .byte   VOL , 32*PokemonMysteryDungeonExplorersofSkyInTheMorningSun_mvl/mxv
 .byte   W04
 .byte   VOL , 30*PokemonMysteryDungeonExplorersofSkyInTheMorningSun_mvl/mxv
 .byte   W04
 .byte   VOL , 30*PokemonMysteryDungeonExplorersofSkyInTheMorningSun_mvl/mxv
 .byte   W04
 .byte   VOL , 29*PokemonMysteryDungeonExplorersofSkyInTheMorningSun_mvl/mxv
 .byte   W04
 .byte   VOL , 28*PokemonMysteryDungeonExplorersofSkyInTheMorningSun_mvl/mxv
 .byte   W04
 .byte   VOL , 28*PokemonMysteryDungeonExplorersofSkyInTheMorningSun_mvl/mxv
 .byte   W04
 .byte   VOL , 27*PokemonMysteryDungeonExplorersofSkyInTheMorningSun_mvl/mxv
 .byte   W04
 .byte   VOL , 27*PokemonMysteryDungeonExplorersofSkyInTheMorningSun_mvl/mxv
 .byte   W04
 .byte   VOL , 25*PokemonMysteryDungeonExplorersofSkyInTheMorningSun_mvl/mxv
 .byte   W04
 .byte   VOL , 23*PokemonMysteryDungeonExplorersofSkyInTheMorningSun_mvl/mxv
 .byte   W04
 .byte   VOL , 23*PokemonMysteryDungeonExplorersofSkyInTheMorningSun_mvl/mxv
 .byte   W04
 .byte   VOL , 22*PokemonMysteryDungeonExplorersofSkyInTheMorningSun_mvl/mxv
 .byte   W04
 .byte   VOL , 20*PokemonMysteryDungeonExplorersofSkyInTheMorningSun_mvl/mxv
 .byte   W04
 .byte   VOL , 20*PokemonMysteryDungeonExplorersofSkyInTheMorningSun_mvl/mxv
 .byte   W04
 .byte   EOT
 .byte   VOL , 19*PokemonMysteryDungeonExplorersofSkyInTheMorningSun_mvl/mxv
 .byte   N12 ,Dn5 ,v028
 .byte   W04
 .byte   VOL , 18*PokemonMysteryDungeonExplorersofSkyInTheMorningSun_mvl/mxv
 .byte   W04
 .byte   VOL , 17*PokemonMysteryDungeonExplorersofSkyInTheMorningSun_mvl/mxv
 .byte   W04
 .byte   VOL , 15*PokemonMysteryDungeonExplorersofSkyInTheMorningSun_mvl/mxv
 .byte   N12 ,Dn5 ,v020
 .byte   W04
 .byte   VOL , 13*PokemonMysteryDungeonExplorersofSkyInTheMorningSun_mvl/mxv
 .byte   W04
 .byte   VOL , 17*PokemonMysteryDungeonExplorersofSkyInTheMorningSun_mvl/mxv
 .byte   W04
@  #02 @058   ----------------------------------------
 .byte   VOL , 18*PokemonMysteryDungeonExplorersofSkyInTheMorningSun_mvl/mxv
 .byte   N12 ,Bn4 ,v088
 .byte   W04
 .byte   VOL , 20*PokemonMysteryDungeonExplorersofSkyInTheMorningSun_mvl/mxv
 .byte   W04
 .byte   VOL , 20*PokemonMysteryDungeonExplorersofSkyInTheMorningSun_mvl/mxv
 .byte   W04
 .byte   VOL , 21*PokemonMysteryDungeonExplorersofSkyInTheMorningSun_mvl/mxv
 .byte   N12 ,Bn4 ,v028
 .byte   W04
 .byte   VOL , 22*PokemonMysteryDungeonExplorersofSkyInTheMorningSun_mvl/mxv
 .byte   W04
 .byte   VOL , 23*PokemonMysteryDungeonExplorersofSkyInTheMorningSun_mvl/mxv
 .byte   W04
 .byte   VOL , 24*PokemonMysteryDungeonExplorersofSkyInTheMorningSun_mvl/mxv
 .byte   N24 ,Fs5 ,v088
 .byte   W04
 .byte   VOL , 25*PokemonMysteryDungeonExplorersofSkyInTheMorningSun_mvl/mxv
 .byte   W04
 .byte   VOL , 26*PokemonMysteryDungeonExplorersofSkyInTheMorningSun_mvl/mxv
 .byte   W04
 .byte   VOL , 27*PokemonMysteryDungeonExplorersofSkyInTheMorningSun_mvl/mxv
 .byte   W04
 .byte   VOL , 28*PokemonMysteryDungeonExplorersofSkyInTheMorningSun_mvl/mxv
 .byte   W04
 .byte   VOL , 28*PokemonMysteryDungeonExplorersofSkyInTheMorningSun_mvl/mxv
 .byte   W04
 .byte   VOL , 28*PokemonMysteryDungeonExplorersofSkyInTheMorningSun_mvl/mxv
 .byte   N12 ,En5
 .byte   W04
 .byte   VOL , 29*PokemonMysteryDungeonExplorersofSkyInTheMorningSun_mvl/mxv
 .byte   W04
 .byte   VOL , 29*PokemonMysteryDungeonExplorersofSkyInTheMorningSun_mvl/mxv
 .byte   W04
 .byte   VOL , 30*PokemonMysteryDungeonExplorersofSkyInTheMorningSun_mvl/mxv
 .byte   N24
 .byte   W04
 .byte   VOL , 30*PokemonMysteryDungeonExplorersofSkyInTheMorningSun_mvl/mxv
 .byte   W04
 .byte   VOL , 31*PokemonMysteryDungeonExplorersofSkyInTheMorningSun_mvl/mxv
 .byte   W04
 .byte   VOL , 32*PokemonMysteryDungeonExplorersofSkyInTheMorningSun_mvl/mxv
 .byte   W04
 .byte   VOL , 32*PokemonMysteryDungeonExplorersofSkyInTheMorningSun_mvl/mxv
 .byte   W04
 .byte   VOL , 34*PokemonMysteryDungeonExplorersofSkyInTheMorningSun_mvl/mxv
 .byte   W04
 .byte   VOL , 34*PokemonMysteryDungeonExplorersofSkyInTheMorningSun_mvl/mxv
 .byte   N12 ,En5 ,v028
 .byte   W04
 .byte   VOL , 34*PokemonMysteryDungeonExplorersofSkyInTheMorningSun_mvl/mxv
 .byte   W04
 .byte   VOL , 35*PokemonMysteryDungeonExplorersofSkyInTheMorningSun_mvl/mxv
 .byte   W04
@  #02 @059   ----------------------------------------
 .byte   VOL , 35*PokemonMysteryDungeonExplorersofSkyInTheMorningSun_mvl/mxv
 .byte   N12 ,Bn4 ,v088
 .byte   W04
 .byte   VOL , 36*PokemonMysteryDungeonExplorersofSkyInTheMorningSun_mvl/mxv
 .byte   W04
 .byte   VOL , 37*PokemonMysteryDungeonExplorersofSkyInTheMorningSun_mvl/mxv
 .byte   W04
 .byte   N12 ,Bn4 ,v028
 .byte   W12
 .byte   N24 ,Fs5 ,v088
 .byte   W24
 .byte   N12 ,En5
 .byte   W12
 .byte   N24
 .byte   W24
 .byte   N12 ,En5 ,v028
 .byte   W12
@  #02 @060   ----------------------------------------
 .byte   Bn4 ,v088
 .byte   W12
 .byte   Bn4 ,v028
 .byte   W12
 .byte   N24 ,Gn5 ,v088
 .byte   W24
 .byte   N12 ,Fs5
 .byte   W12
 .byte   N24
 .byte   W04
 .byte   VOL , 35*PokemonMysteryDungeonExplorersofSkyInTheMorningSun_mvl/mxv
 .byte   W20
 .byte   N12 ,En5
 .byte   W04
 .byte   VOL , 35*PokemonMysteryDungeonExplorersofSkyInTheMorningSun_mvl/mxv
 .byte   W08
@  #02 @061   ----------------------------------------
 .byte   N12 ,En5 ,v028
 .byte   W04
 .byte   VOL , 34*PokemonMysteryDungeonExplorersofSkyInTheMorningSun_mvl/mxv
 .byte   W08
 .byte   VOL , 34*PokemonMysteryDungeonExplorersofSkyInTheMorningSun_mvl/mxv
 .byte   N60 ,Fs5 ,v088
 .byte   W04
 .byte   VOL , 34*PokemonMysteryDungeonExplorersofSkyInTheMorningSun_mvl/mxv
 .byte   W08
 .byte   VOL , 33*PokemonMysteryDungeonExplorersofSkyInTheMorningSun_mvl/mxv
 .byte   W04
 .byte   VOL , 32*PokemonMysteryDungeonExplorersofSkyInTheMorningSun_mvl/mxv
 .byte   W08
 .byte   VOL , 32*PokemonMysteryDungeonExplorersofSkyInTheMorningSun_mvl/mxv
 .byte   W04
 .byte   VOL , 31*PokemonMysteryDungeonExplorersofSkyInTheMorningSun_mvl/mxv
 .byte   W04
 .byte   VOL , 30*PokemonMysteryDungeonExplorersofSkyInTheMorningSun_mvl/mxv
 .byte   W04
 .byte   VOL , 30*PokemonMysteryDungeonExplorersofSkyInTheMorningSun_mvl/mxv
 .byte   W04
 .byte   VOL , 30*PokemonMysteryDungeonExplorersofSkyInTheMorningSun_mvl/mxv
 .byte   W04
 .byte   VOL , 29*PokemonMysteryDungeonExplorersofSkyInTheMorningSun_mvl/mxv
 .byte   W04
 .byte   VOL , 29*PokemonMysteryDungeonExplorersofSkyInTheMorningSun_mvl/mxv
 .byte   W04
 .byte   VOL , 28*PokemonMysteryDungeonExplorersofSkyInTheMorningSun_mvl/mxv
 .byte   W04
 .byte   VOL , 28*PokemonMysteryDungeonExplorersofSkyInTheMorningSun_mvl/mxv
 .byte   W04
 .byte   VOL , 28*PokemonMysteryDungeonExplorersofSkyInTheMorningSun_mvl/mxv
 .byte   N12 ,Fs5 ,v028
 .byte   W04
 .byte   VOL , 27*PokemonMysteryDungeonExplorersofSkyInTheMorningSun_mvl/mxv
 .byte   W04
 .byte   VOL , 27*PokemonMysteryDungeonExplorersofSkyInTheMorningSun_mvl/mxv
 .byte   W04
 .byte   VOL , 25*PokemonMysteryDungeonExplorersofSkyInTheMorningSun_mvl/mxv
 .byte   N12 ,Fs5 ,v020
 .byte   W04
 .byte   VOL , 25*PokemonMysteryDungeonExplorersofSkyInTheMorningSun_mvl/mxv
 .byte   W04
 .byte   VOL , 24*PokemonMysteryDungeonExplorersofSkyInTheMorningSun_mvl/mxv
 .byte   W04
@  #02 @062   ----------------------------------------
 .byte   VOL , 23*PokemonMysteryDungeonExplorersofSkyInTheMorningSun_mvl/mxv
 .byte   N12 ,Bn3 ,v088
 .byte   W04
 .byte   VOL , 22*PokemonMysteryDungeonExplorersofSkyInTheMorningSun_mvl/mxv
 .byte   W04
 .byte   VOL , 22*PokemonMysteryDungeonExplorersofSkyInTheMorningSun_mvl/mxv
 .byte   W04
 .byte   VOL , 21*PokemonMysteryDungeonExplorersofSkyInTheMorningSun_mvl/mxv
 .byte   N12 ,Bn3 ,v028
 .byte   W04
 .byte   VOL , 20*PokemonMysteryDungeonExplorersofSkyInTheMorningSun_mvl/mxv
 .byte   W04
 .byte   VOL , 20*PokemonMysteryDungeonExplorersofSkyInTheMorningSun_mvl/mxv
 .byte   W04
 .byte   VOL , 19*PokemonMysteryDungeonExplorersofSkyInTheMorningSun_mvl/mxv
 .byte   N36 ,Fs4 ,v088
 .byte   W04
 .byte   VOL , 20*PokemonMysteryDungeonExplorersofSkyInTheMorningSun_mvl/mxv
 .byte   W04
 .byte   VOL , 22*PokemonMysteryDungeonExplorersofSkyInTheMorningSun_mvl/mxv
 .byte   W04
 .byte   VOL , 24*PokemonMysteryDungeonExplorersofSkyInTheMorningSun_mvl/mxv
 .byte   W04
 .byte   VOL , 25*PokemonMysteryDungeonExplorersofSkyInTheMorningSun_mvl/mxv
 .byte   W04
 .byte   VOL , 27*PokemonMysteryDungeonExplorersofSkyInTheMorningSun_mvl/mxv
 .byte   W04
 .byte   VOL , 28*PokemonMysteryDungeonExplorersofSkyInTheMorningSun_mvl/mxv
 .byte   W04
 .byte   VOL , 28*PokemonMysteryDungeonExplorersofSkyInTheMorningSun_mvl/mxv
 .byte   W04
 .byte   VOL , 29*PokemonMysteryDungeonExplorersofSkyInTheMorningSun_mvl/mxv
 .byte   W04
 .byte   VOL , 29*PokemonMysteryDungeonExplorersofSkyInTheMorningSun_mvl/mxv
 .byte   N12 ,Fs4 ,v028
 .byte   W04
 .byte   VOL , 30*PokemonMysteryDungeonExplorersofSkyInTheMorningSun_mvl/mxv
 .byte   W04
 .byte   VOL , 30*PokemonMysteryDungeonExplorersofSkyInTheMorningSun_mvl/mxv
 .byte   W04
 .byte   VOL , 31*PokemonMysteryDungeonExplorersofSkyInTheMorningSun_mvl/mxv
 .byte   N12 ,Fs4 ,v088
 .byte   W04
 .byte   VOL , 32*PokemonMysteryDungeonExplorersofSkyInTheMorningSun_mvl/mxv
 .byte   W04
 .byte   VOL , 33*PokemonMysteryDungeonExplorersofSkyInTheMorningSun_mvl/mxv
 .byte   W04
 .byte   VOL , 34*PokemonMysteryDungeonExplorersofSkyInTheMorningSun_mvl/mxv
 .byte   N12 ,Fs4 ,v028
 .byte   W04
 .byte   VOL , 34*PokemonMysteryDungeonExplorersofSkyInTheMorningSun_mvl/mxv
 .byte   W04
 .byte   VOL , 34*PokemonMysteryDungeonExplorersofSkyInTheMorningSun_mvl/mxv
 .byte   W04
@  #02 @063   ----------------------------------------
 .byte   VOL , 35*PokemonMysteryDungeonExplorersofSkyInTheMorningSun_mvl/mxv
 .byte   N12 ,Gn4 ,v088
 .byte   W04
 .byte   VOL , 35*PokemonMysteryDungeonExplorersofSkyInTheMorningSun_mvl/mxv
 .byte   W04
 .byte   VOL , 37*PokemonMysteryDungeonExplorersofSkyInTheMorningSun_mvl/mxv
 .byte   W04
 .byte   N48 ,An4
 .byte   W48
 .byte   N12 ,An4 ,v028
 .byte   W12
 .byte   An4 ,v088
 .byte   W12
 .byte   An4 ,v028
 .byte   W12
@  #02 @064   ----------------------------------------
 .byte   Cs5 ,v088
 .byte   W12
 .byte   N60 ,Dn5
 .byte   W16
 .byte   VOL , 35*PokemonMysteryDungeonExplorersofSkyInTheMorningSun_mvl/mxv
 .byte   W04
 .byte   VOL , 30*PokemonMysteryDungeonExplorersofSkyInTheMorningSun_mvl/mxv
 .byte   W04
 .byte   VOL , 30*PokemonMysteryDungeonExplorersofSkyInTheMorningSun_mvl/mxv
 .byte   W04
 .byte   VOL , 28*PokemonMysteryDungeonExplorersofSkyInTheMorningSun_mvl/mxv
 .byte   W04
 .byte   VOL , 28*PokemonMysteryDungeonExplorersofSkyInTheMorningSun_mvl/mxv
 .byte   W04
 .byte   VOL , 27*PokemonMysteryDungeonExplorersofSkyInTheMorningSun_mvl/mxv
 .byte   W04
 .byte   VOL , 27*PokemonMysteryDungeonExplorersofSkyInTheMorningSun_mvl/mxv
 .byte   W04
 .byte   VOL , 26*PokemonMysteryDungeonExplorersofSkyInTheMorningSun_mvl/mxv
 .byte   W04
 .byte   VOL , 25*PokemonMysteryDungeonExplorersofSkyInTheMorningSun_mvl/mxv
 .byte   W04
 .byte   VOL , 24*PokemonMysteryDungeonExplorersofSkyInTheMorningSun_mvl/mxv
 .byte   W04
 .byte   VOL , 23*PokemonMysteryDungeonExplorersofSkyInTheMorningSun_mvl/mxv
 .byte   W04
 .byte   VOL , 23*PokemonMysteryDungeonExplorersofSkyInTheMorningSun_mvl/mxv
 .byte   N12 ,Cs5
 .byte   W04
 .byte   VOL , 23*PokemonMysteryDungeonExplorersofSkyInTheMorningSun_mvl/mxv
 .byte   W04
 .byte   VOL , 22*PokemonMysteryDungeonExplorersofSkyInTheMorningSun_mvl/mxv
 .byte   W04
 .byte   VOL , 22*PokemonMysteryDungeonExplorersofSkyInTheMorningSun_mvl/mxv
 .byte   N12 ,Cs5 ,v028
 .byte   W04
 .byte   VOL , 21*PokemonMysteryDungeonExplorersofSkyInTheMorningSun_mvl/mxv
 .byte   W04
 .byte   VOL , 21*PokemonMysteryDungeonExplorersofSkyInTheMorningSun_mvl/mxv
 .byte   W04
@  #02 @065   ----------------------------------------
 .byte   VOL , 20*PokemonMysteryDungeonExplorersofSkyInTheMorningSun_mvl/mxv
 .byte   N12 ,Dn5 ,v088
 .byte   W12
 .byte   VOL , 20*PokemonMysteryDungeonExplorersofSkyInTheMorningSun_mvl/mxv
 .byte   N60 ,Fs5
 .byte   W04
 .byte   VOL , 20*PokemonMysteryDungeonExplorersofSkyInTheMorningSun_mvl/mxv
 .byte   W16
 .byte   VOL , 20*PokemonMysteryDungeonExplorersofSkyInTheMorningSun_mvl/mxv
 .byte   W08
 .byte   VOL , 21*PokemonMysteryDungeonExplorersofSkyInTheMorningSun_mvl/mxv
 .byte   W08
 .byte   VOL , 21*PokemonMysteryDungeonExplorersofSkyInTheMorningSun_mvl/mxv
 .byte   W04
 .byte   VOL , 22*PokemonMysteryDungeonExplorersofSkyInTheMorningSun_mvl/mxv
 .byte   W04
 .byte   VOL , 22*PokemonMysteryDungeonExplorersofSkyInTheMorningSun_mvl/mxv
 .byte   W04
 .byte   VOL , 22*PokemonMysteryDungeonExplorersofSkyInTheMorningSun_mvl/mxv
 .byte   W04
 .byte   VOL , 23*PokemonMysteryDungeonExplorersofSkyInTheMorningSun_mvl/mxv
 .byte   W04
 .byte   VOL , 23*PokemonMysteryDungeonExplorersofSkyInTheMorningSun_mvl/mxv
 .byte   W04
 .byte   VOL , 23*PokemonMysteryDungeonExplorersofSkyInTheMorningSun_mvl/mxv
 .byte   N12 ,Fs5 ,v028
 .byte   W04
 .byte   VOL , 25*PokemonMysteryDungeonExplorersofSkyInTheMorningSun_mvl/mxv
 .byte   W04
 .byte   VOL , 25*PokemonMysteryDungeonExplorersofSkyInTheMorningSun_mvl/mxv
 .byte   W04
 .byte   VOL , 26*PokemonMysteryDungeonExplorersofSkyInTheMorningSun_mvl/mxv
 .byte   N12 ,Fs5 ,v020
 .byte   W04
 .byte   VOL , 27*PokemonMysteryDungeonExplorersofSkyInTheMorningSun_mvl/mxv
 .byte   W04
 .byte   VOL , 28*PokemonMysteryDungeonExplorersofSkyInTheMorningSun_mvl/mxv
 .byte   W04
@  #02 @066   ----------------------------------------
 .byte   VOL , 28*PokemonMysteryDungeonExplorersofSkyInTheMorningSun_mvl/mxv
 .byte   N12 ,Bn4 ,v088
 .byte   W04
 .byte   VOL , 28*PokemonMysteryDungeonExplorersofSkyInTheMorningSun_mvl/mxv
 .byte   W04
 .byte   VOL , 29*PokemonMysteryDungeonExplorersofSkyInTheMorningSun_mvl/mxv
 .byte   W04
 .byte   VOL , 30*PokemonMysteryDungeonExplorersofSkyInTheMorningSun_mvl/mxv
 .byte   N12 ,Bn4 ,v028
 .byte   W04
 .byte   VOL , 31*PokemonMysteryDungeonExplorersofSkyInTheMorningSun_mvl/mxv
 .byte   W04
 .byte   VOL , 32*PokemonMysteryDungeonExplorersofSkyInTheMorningSun_mvl/mxv
 .byte   W04
 .byte   VOL , 34*PokemonMysteryDungeonExplorersofSkyInTheMorningSun_mvl/mxv
 .byte   N24 ,Fs5 ,v088
 .byte   W04
 .byte   VOL , 35*PokemonMysteryDungeonExplorersofSkyInTheMorningSun_mvl/mxv
 .byte   W04
 .byte   VOL , 36*PokemonMysteryDungeonExplorersofSkyInTheMorningSun_mvl/mxv
 .byte   W16
 .byte   N12 ,En5
 .byte   W12
 .byte   N24
 .byte   W24
 .byte   N12 ,En5 ,v028
 .byte   W12
@  #02 @067   ----------------------------------------
 .byte   Bn4 ,v088
 .byte   W12
 .byte   Bn4 ,v028
 .byte   W12
 .byte   N24 ,Fs5 ,v088
 .byte   W24
 .byte   N12 ,En5
 .byte   W12
 .byte   N24
 .byte   W04
 .byte   VOL , 35*PokemonMysteryDungeonExplorersofSkyInTheMorningSun_mvl/mxv
 .byte   W16
 .byte   VOL , 35*PokemonMysteryDungeonExplorersofSkyInTheMorningSun_mvl/mxv
 .byte   W04
 .byte   N12 ,Dn5
 .byte   W12
@  #02 @068   ----------------------------------------
 .byte   VOL , 34*PokemonMysteryDungeonExplorersofSkyInTheMorningSun_mvl/mxv
 .byte   N12 ,Dn5 ,v028
 .byte   W04
 .byte   VOL , 34*PokemonMysteryDungeonExplorersofSkyInTheMorningSun_mvl/mxv
 .byte   W08
 .byte   VOL , 34*PokemonMysteryDungeonExplorersofSkyInTheMorningSun_mvl/mxv
 .byte   N84 ,En5 ,v088
 .byte   W08
 .byte   VOL , 33*PokemonMysteryDungeonExplorersofSkyInTheMorningSun_mvl/mxv
 .byte   W04
 .byte   VOL , 32*PokemonMysteryDungeonExplorersofSkyInTheMorningSun_mvl/mxv
 .byte   W04
 .byte   VOL , 32*PokemonMysteryDungeonExplorersofSkyInTheMorningSun_mvl/mxv
 .byte   W08
 .byte   VOL , 30*PokemonMysteryDungeonExplorersofSkyInTheMorningSun_mvl/mxv
 .byte   W08
 .byte   VOL , 30*PokemonMysteryDungeonExplorersofSkyInTheMorningSun_mvl/mxv
 .byte   W04
 .byte   VOL , 30*PokemonMysteryDungeonExplorersofSkyInTheMorningSun_mvl/mxv
 .byte   W04
 .byte   VOL , 29*PokemonMysteryDungeonExplorersofSkyInTheMorningSun_mvl/mxv
 .byte   W04
 .byte   VOL , 28*PokemonMysteryDungeonExplorersofSkyInTheMorningSun_mvl/mxv
 .byte   W04
 .byte   VOL , 28*PokemonMysteryDungeonExplorersofSkyInTheMorningSun_mvl/mxv
 .byte   W04
 .byte   VOL , 28*PokemonMysteryDungeonExplorersofSkyInTheMorningSun_mvl/mxv
 .byte   W04
 .byte   VOL , 27*PokemonMysteryDungeonExplorersofSkyInTheMorningSun_mvl/mxv
 .byte   W04
 .byte   VOL , 27*PokemonMysteryDungeonExplorersofSkyInTheMorningSun_mvl/mxv
 .byte   W04
 .byte   VOL , 26*PokemonMysteryDungeonExplorersofSkyInTheMorningSun_mvl/mxv
 .byte   W04
 .byte   VOL , 25*PokemonMysteryDungeonExplorersofSkyInTheMorningSun_mvl/mxv
 .byte   W04
 .byte   VOL , 24*PokemonMysteryDungeonExplorersofSkyInTheMorningSun_mvl/mxv
 .byte   W04
 .byte   VOL , 23*PokemonMysteryDungeonExplorersofSkyInTheMorningSun_mvl/mxv
 .byte   W04
 .byte   VOL , 23*PokemonMysteryDungeonExplorersofSkyInTheMorningSun_mvl/mxv
 .byte   W04
@  #02 @069   ----------------------------------------
 .byte   VOL , 22*PokemonMysteryDungeonExplorersofSkyInTheMorningSun_mvl/mxv
 .byte   N12 ,En5 ,v028
 .byte   W04
 .byte   VOL , 21*PokemonMysteryDungeonExplorersofSkyInTheMorningSun_mvl/mxv
 .byte   W04
 .byte   VOL , 20*PokemonMysteryDungeonExplorersofSkyInTheMorningSun_mvl/mxv
 .byte   W04
 .byte   VOL , 20*PokemonMysteryDungeonExplorersofSkyInTheMorningSun_mvl/mxv
 .byte   N12 ,En5 ,v020
 .byte   W04
 .byte   VOL , 19*PokemonMysteryDungeonExplorersofSkyInTheMorningSun_mvl/mxv
 .byte   W04
 .byte   VOL , 19*PokemonMysteryDungeonExplorersofSkyInTheMorningSun_mvl/mxv
 .byte   W04
 .byte   VOL , 18*PokemonMysteryDungeonExplorersofSkyInTheMorningSun_mvl/mxv
 .byte   N12 ,En5 ,v016
 .byte   W04
 .byte   VOL , 17*PokemonMysteryDungeonExplorersofSkyInTheMorningSun_mvl/mxv
 .byte   W04
 .byte   VOL , 16*PokemonMysteryDungeonExplorersofSkyInTheMorningSun_mvl/mxv
 .byte   W04
 .byte   VOL , 15*PokemonMysteryDungeonExplorersofSkyInTheMorningSun_mvl/mxv
 .byte   N12 ,En5 ,v012
 .byte   W04
 .byte   VOL , 14*PokemonMysteryDungeonExplorersofSkyInTheMorningSun_mvl/mxv
 .byte   W04
 .byte   VOL , 14*PokemonMysteryDungeonExplorersofSkyInTheMorningSun_mvl/mxv
 .byte   W04
 .byte   VOL , 13*PokemonMysteryDungeonExplorersofSkyInTheMorningSun_mvl/mxv
 .byte   W04
 .byte   VOL , 12*PokemonMysteryDungeonExplorersofSkyInTheMorningSun_mvl/mxv
 .byte   W04
 .byte   VOL , 11*PokemonMysteryDungeonExplorersofSkyInTheMorningSun_mvl/mxv
 .byte   W04
 .byte   VOL , 10*PokemonMysteryDungeonExplorersofSkyInTheMorningSun_mvl/mxv
 .byte   W36
@  #02 @070   ----------------------------------------
 .byte   W96
@  #02 @071   ----------------------------------------
 .byte   W96
@  #02 @072   ----------------------------------------
 .byte   W96
@  #02 @073   ----------------------------------------
 .byte   W96
@  #02 @074   ----------------------------------------
 .byte   W96
@  #02 @075   ----------------------------------------
 .byte   W96
@  #02 @076   ----------------------------------------
 .byte   W96
@  #02 @077   ----------------------------------------
 .byte   W96
@  #02 @078   ----------------------------------------
 .byte   W96
@  #02 @079   ----------------------------------------
 .byte   W96
@  #02 @080   ----------------------------------------
 .byte   W96
@  #02 @081   ----------------------------------------
 .byte   W96
@  #02 @082   ----------------------------------------
 .byte   W96
@  #02 @083   ----------------------------------------
 .byte   W96
@  #02 @084   ----------------------------------------
 .byte   W96
@  #02 @085   ----------------------------------------
 .byte   W96
@  #02 @086   ----------------------------------------
 .byte   W96
@  #02 @087   ----------------------------------------
 .byte   W24
 .byte   VOL , 37*PokemonMysteryDungeonExplorersofSkyInTheMorningSun_mvl/mxv
 .byte   W72
@  #02 @088   ----------------------------------------
 .byte   N24 ,Fs4 ,v127
 .byte   W24
 .byte   GOTO
  .word Label_01686136
 .byte   FINE

@**************** Track 3 (Midi-Chn.2) ****************@

PokemonMysteryDungeonExplorersofSkyInTheMorningSun_003:
@  #03 @000   ----------------------------------------
 .byte   KEYSH , PokemonMysteryDungeonExplorersofSkyInTheMorningSun_key+0
 .byte   VOICE , 49
 .byte   MODT 0
 .byte   LFOS 44
 .byte   VOL , 24*PokemonMysteryDungeonExplorersofSkyInTheMorningSun_mvl/mxv
 .byte   PAN , c_v+36
 .byte   VOL , 24*PokemonMysteryDungeonExplorersofSkyInTheMorningSun_mvl/mxv
 .byte   BEND , c_v+0
 .byte   W96
@  #03 @001   ----------------------------------------
 .byte   W96
@  #03 @002   ----------------------------------------
 .byte   W96
@  #03 @003   ----------------------------------------
 .byte   W96
@  #03 @004   ----------------------------------------
 .byte   W96
@  #03 @005   ----------------------------------------
 .byte   W96
@  #03 @006   ----------------------------------------
 .byte   W96
@  #03 @007   ----------------------------------------
 .byte   W96
@  #03 @008   ----------------------------------------
Label_01686584:
 .byte   W24
 .byte   VOL , 6*PokemonMysteryDungeonExplorersofSkyInTheMorningSun_mvl/mxv
 .byte   N92 ,Gn2 ,v028
 .byte   W06
 .byte   VOL , 11*PokemonMysteryDungeonExplorersofSkyInTheMorningSun_mvl/mxv
 .byte   W06
 .byte   VOL , 14*PokemonMysteryDungeonExplorersofSkyInTheMorningSun_mvl/mxv
 .byte   W06
 .byte   VOL , 17*PokemonMysteryDungeonExplorersofSkyInTheMorningSun_mvl/mxv
 .byte   W06
 .byte   VOL , 19*PokemonMysteryDungeonExplorersofSkyInTheMorningSun_mvl/mxv
 .byte   W06
 .byte   VOL , 22*PokemonMysteryDungeonExplorersofSkyInTheMorningSun_mvl/mxv
 .byte   W06
 .byte   VOL , 23*PokemonMysteryDungeonExplorersofSkyInTheMorningSun_mvl/mxv
 .byte   W06
 .byte   VOL , 23*PokemonMysteryDungeonExplorersofSkyInTheMorningSun_mvl/mxv
 .byte   W28
 .byte   W01
 .byte   VOL , 23*PokemonMysteryDungeonExplorersofSkyInTheMorningSun_mvl/mxv
 .byte   W01
 .byte   PEND 
@  #03 @009   ----------------------------------------
Label_0168659E:
 .byte   W05
 .byte   VOL , 23*PokemonMysteryDungeonExplorersofSkyInTheMorningSun_mvl/mxv
 .byte   W06
 .byte   VOL , 22*PokemonMysteryDungeonExplorersofSkyInTheMorningSun_mvl/mxv
 .byte   W07
 .byte   VOL , 20*PokemonMysteryDungeonExplorersofSkyInTheMorningSun_mvl/mxv
 .byte   W06
 .byte   VOL , 19*PokemonMysteryDungeonExplorersofSkyInTheMorningSun_mvl/mxv
 .byte   N92 ,An2 ,v028
 .byte   W01
 .byte   VOL , 19*PokemonMysteryDungeonExplorersofSkyInTheMorningSun_mvl/mxv
 .byte   W05
 .byte   VOL , 18*PokemonMysteryDungeonExplorersofSkyInTheMorningSun_mvl/mxv
 .byte   W06
 .byte   VOL , 20*PokemonMysteryDungeonExplorersofSkyInTheMorningSun_mvl/mxv
 .byte   W05
 .byte   VOL , 22*PokemonMysteryDungeonExplorersofSkyInTheMorningSun_mvl/mxv
 .byte   W06
 .byte   VOL , 23*PokemonMysteryDungeonExplorersofSkyInTheMorningSun_mvl/mxv
 .byte   W48
 .byte   VOL , 23*PokemonMysteryDungeonExplorersofSkyInTheMorningSun_mvl/mxv
 .byte   W01
 .byte   PEND 
@  #03 @010   ----------------------------------------
Label_016865B9:
 .byte   W05
 .byte   VOL , 23*PokemonMysteryDungeonExplorersofSkyInTheMorningSun_mvl/mxv
 .byte   W06
 .byte   VOL , 21*PokemonMysteryDungeonExplorersofSkyInTheMorningSun_mvl/mxv
 .byte   W01
 .byte   VOL , 20*PokemonMysteryDungeonExplorersofSkyInTheMorningSun_mvl/mxv
 .byte   W06
 .byte   VOL , 19*PokemonMysteryDungeonExplorersofSkyInTheMorningSun_mvl/mxv
 .byte   W06
 .byte   VOL , 19*PokemonMysteryDungeonExplorersofSkyInTheMorningSun_mvl/mxv
 .byte   N44 ,Fs2 ,v028
 .byte   W02
 .byte   VOL , 18*PokemonMysteryDungeonExplorersofSkyInTheMorningSun_mvl/mxv
 .byte   W04
 .byte   VOL , 17*PokemonMysteryDungeonExplorersofSkyInTheMorningSun_mvl/mxv
 .byte   W06
 .byte   VOL , 19*PokemonMysteryDungeonExplorersofSkyInTheMorningSun_mvl/mxv
 .byte   W01
 .byte   VOL , 21*PokemonMysteryDungeonExplorersofSkyInTheMorningSun_mvl/mxv
 .byte   W06
 .byte   VOL , 23*PokemonMysteryDungeonExplorersofSkyInTheMorningSun_mvl/mxv
 .byte   W06
 .byte   VOL , 24*PokemonMysteryDungeonExplorersofSkyInTheMorningSun_mvl/mxv
 .byte   W23
 .byte   N44 ,An2
 .byte   W24
 .byte   PEND 
@  #03 @011   ----------------------------------------
Label_016865D9:
 .byte   W24
 .byte   N92 ,An2 ,v020
 .byte   W42
 .byte   W01
 .byte   VOL , 23*PokemonMysteryDungeonExplorersofSkyInTheMorningSun_mvl/mxv
 .byte   W18
 .byte   VOL , 23*PokemonMysteryDungeonExplorersofSkyInTheMorningSun_mvl/mxv
 .byte   W06
 .byte   VOL , 22*PokemonMysteryDungeonExplorersofSkyInTheMorningSun_mvl/mxv
 .byte   W05
 .byte   PEND 
@  #03 @012   ----------------------------------------
Label_016865E7:
 .byte   W01
 .byte   VOL , 22*PokemonMysteryDungeonExplorersofSkyInTheMorningSun_mvl/mxv
 .byte   W06
 .byte   VOL , 21*PokemonMysteryDungeonExplorersofSkyInTheMorningSun_mvl/mxv
 .byte   W06
 .byte   VOL , 20*PokemonMysteryDungeonExplorersofSkyInTheMorningSun_mvl/mxv
 .byte   W06
 .byte   VOL , 19*PokemonMysteryDungeonExplorersofSkyInTheMorningSun_mvl/mxv
 .byte   W05
 .byte   VOL , 18*PokemonMysteryDungeonExplorersofSkyInTheMorningSun_mvl/mxv
 .byte   TIE ,Gn2 ,v024
 .byte   W06
 .byte   VOL , 18*PokemonMysteryDungeonExplorersofSkyInTheMorningSun_mvl/mxv
 .byte   W06
 .byte   VOL , 18*PokemonMysteryDungeonExplorersofSkyInTheMorningSun_mvl/mxv
 .byte   W06
 .byte   VOL , 19*PokemonMysteryDungeonExplorersofSkyInTheMorningSun_mvl/mxv
 .byte   W02
 .byte   VOL , 20*PokemonMysteryDungeonExplorersofSkyInTheMorningSun_mvl/mxv
 .byte   W06
 .byte   VOL , 22*PokemonMysteryDungeonExplorersofSkyInTheMorningSun_mvl/mxv
 .byte   W06
 .byte   VOL , 23*PokemonMysteryDungeonExplorersofSkyInTheMorningSun_mvl/mxv
 .byte   W06
 .byte   VOL , 23*PokemonMysteryDungeonExplorersofSkyInTheMorningSun_mvl/mxv
 .byte   W06
 .byte   VOL , 23*PokemonMysteryDungeonExplorersofSkyInTheMorningSun_mvl/mxv
 .byte   W28
 .byte   PEND 
@  #03 @013   ----------------------------------------
Label_01686608:
 .byte   W66
 .byte   VOL , 23*PokemonMysteryDungeonExplorersofSkyInTheMorningSun_mvl/mxv
 .byte   W12
 .byte   VOL , 23*PokemonMysteryDungeonExplorersofSkyInTheMorningSun_mvl/mxv
 .byte   W06
 .byte   VOL , 22*PokemonMysteryDungeonExplorersofSkyInTheMorningSun_mvl/mxv
 .byte   W06
 .byte   VOL , 22*PokemonMysteryDungeonExplorersofSkyInTheMorningSun_mvl/mxv
 .byte   W06
 .byte   PEND 
@  #03 @014   ----------------------------------------
Label_01686613:
 .byte   VOL , 20*PokemonMysteryDungeonExplorersofSkyInTheMorningSun_mvl/mxv
 .byte   W05
 .byte   VOL , 19*PokemonMysteryDungeonExplorersofSkyInTheMorningSun_mvl/mxv
 .byte   W12
 .byte   VOL , 19*PokemonMysteryDungeonExplorersofSkyInTheMorningSun_mvl/mxv
 .byte   W04
 .byte   VOL , 18*PokemonMysteryDungeonExplorersofSkyInTheMorningSun_mvl/mxv
 .byte   W02
 .byte   PEND 
 .byte   EOT
 .byte   Gn2
 .byte   W01
 .byte   N92 ,An2 ,v028
 .byte   W02
 .byte   VOL , 18*PokemonMysteryDungeonExplorersofSkyInTheMorningSun_mvl/mxv
 .byte   W06
 .byte   VOL , 18*PokemonMysteryDungeonExplorersofSkyInTheMorningSun_mvl/mxv
 .byte   W05
 .byte   VOL , 20*PokemonMysteryDungeonExplorersofSkyInTheMorningSun_mvl/mxv
 .byte   W04
 .byte   VOL , 22*PokemonMysteryDungeonExplorersofSkyInTheMorningSun_mvl/mxv
 .byte   W06
 .byte   VOL , 23*PokemonMysteryDungeonExplorersofSkyInTheMorningSun_mvl/mxv
 .byte   W06
 .byte   VOL , 24*PokemonMysteryDungeonExplorersofSkyInTheMorningSun_mvl/mxv
 .byte   W42
 .byte   W01
@  #03 @015   ----------------------------------------
Label_01686632:
 .byte   W02
 .byte   VOL , 23*PokemonMysteryDungeonExplorersofSkyInTheMorningSun_mvl/mxv
 .byte   W04
 .byte   VOL , 22*PokemonMysteryDungeonExplorersofSkyInTheMorningSun_mvl/mxv
 .byte   W06
 .byte   VOL , 22*PokemonMysteryDungeonExplorersofSkyInTheMorningSun_mvl/mxv
 .byte   W06
 .byte   VOL , 19*PokemonMysteryDungeonExplorersofSkyInTheMorningSun_mvl/mxv
 .byte   W02
 .byte   VOL , 18*PokemonMysteryDungeonExplorersofSkyInTheMorningSun_mvl/mxv
 .byte   W04
 .byte   TIE ,An2 ,v056
 .byte   W07
 .byte   VOL , 19*PokemonMysteryDungeonExplorersofSkyInTheMorningSun_mvl/mxv
 .byte   W07
 .byte   VOL , 21*PokemonMysteryDungeonExplorersofSkyInTheMorningSun_mvl/mxv
 .byte   W01
 .byte   VOL , 22*PokemonMysteryDungeonExplorersofSkyInTheMorningSun_mvl/mxv
 .byte   W06
 .byte   VOL , 23*PokemonMysteryDungeonExplorersofSkyInTheMorningSun_mvl/mxv
 .byte   W05
 .byte   VOL , 24*PokemonMysteryDungeonExplorersofSkyInTheMorningSun_mvl/mxv
 .byte   W44
 .byte   W02
 .byte   PEND 
@  #03 @016   ----------------------------------------
Label_0168664F:
 .byte   W24
 .byte   VOL , 23*PokemonMysteryDungeonExplorersofSkyInTheMorningSun_mvl/mxv
 .byte   W06
 .byte   VOL , 22*PokemonMysteryDungeonExplorersofSkyInTheMorningSun_mvl/mxv
 .byte   W06
 .byte   VOL , 22*PokemonMysteryDungeonExplorersofSkyInTheMorningSun_mvl/mxv
 .byte   W06
 .byte   VOL , 20*PokemonMysteryDungeonExplorersofSkyInTheMorningSun_mvl/mxv
 .byte   W06
 .byte   VOL , 19*PokemonMysteryDungeonExplorersofSkyInTheMorningSun_mvl/mxv
 .byte   W06
 .byte   VOL , 19*PokemonMysteryDungeonExplorersofSkyInTheMorningSun_mvl/mxv
 .byte   W06
 .byte   VOL , 18*PokemonMysteryDungeonExplorersofSkyInTheMorningSun_mvl/mxv
 .byte   W06
 .byte   VOL , 17*PokemonMysteryDungeonExplorersofSkyInTheMorningSun_mvl/mxv
 .byte   W06
 .byte   VOL , 16*PokemonMysteryDungeonExplorersofSkyInTheMorningSun_mvl/mxv
 .byte   W06
 .byte   VOL , 15*PokemonMysteryDungeonExplorersofSkyInTheMorningSun_mvl/mxv
 .byte   W06
 .byte   VOL , 14*PokemonMysteryDungeonExplorersofSkyInTheMorningSun_mvl/mxv
 .byte   W06
 .byte   VOL , 13*PokemonMysteryDungeonExplorersofSkyInTheMorningSun_mvl/mxv
 .byte   W06
 .byte   PEND 
@  #03 @017   ----------------------------------------
Label_0168666A:
 .byte   VOL , 13*PokemonMysteryDungeonExplorersofSkyInTheMorningSun_mvl/mxv
 .byte   W06
 .byte   VOL , 11*PokemonMysteryDungeonExplorersofSkyInTheMorningSun_mvl/mxv
 .byte   W06
 .byte   VOL , 11*PokemonMysteryDungeonExplorersofSkyInTheMorningSun_mvl/mxv
 .byte   W06
 .byte   VOL , 10*PokemonMysteryDungeonExplorersofSkyInTheMorningSun_mvl/mxv
 .byte   W06
 .byte   VOL , 10*PokemonMysteryDungeonExplorersofSkyInTheMorningSun_mvl/mxv
 .byte   W06
 .byte   VOL , 9*PokemonMysteryDungeonExplorersofSkyInTheMorningSun_mvl/mxv
 .byte   W06
 .byte   VOL , 8*PokemonMysteryDungeonExplorersofSkyInTheMorningSun_mvl/mxv
 .byte   W06
 .byte   VOL , 8*PokemonMysteryDungeonExplorersofSkyInTheMorningSun_mvl/mxv
 .byte   W06
 .byte   VOL , 7*PokemonMysteryDungeonExplorersofSkyInTheMorningSun_mvl/mxv
 .byte   W06
 .byte   VOL , 6*PokemonMysteryDungeonExplorersofSkyInTheMorningSun_mvl/mxv
 .byte   W06
 .byte   VOL , 6*PokemonMysteryDungeonExplorersofSkyInTheMorningSun_mvl/mxv
 .byte   W06
 .byte   VOL , 5*PokemonMysteryDungeonExplorersofSkyInTheMorningSun_mvl/mxv
 .byte   W06
 .byte   VOL , 5*PokemonMysteryDungeonExplorersofSkyInTheMorningSun_mvl/mxv
 .byte   W06
 .byte   VOL , 4*PokemonMysteryDungeonExplorersofSkyInTheMorningSun_mvl/mxv
 .byte   W06
 .byte   VOL , 3*PokemonMysteryDungeonExplorersofSkyInTheMorningSun_mvl/mxv
 .byte   W06
 .byte   VOL , 3*PokemonMysteryDungeonExplorersofSkyInTheMorningSun_mvl/mxv
 .byte   W06
 .byte   PEND 
@  #03 @018   ----------------------------------------
Label_0168668C:
 .byte   VOL , 2*PokemonMysteryDungeonExplorersofSkyInTheMorningSun_mvl/mxv
 .byte   W06
 .byte   VOL , 2*PokemonMysteryDungeonExplorersofSkyInTheMorningSun_mvl/mxv
 .byte   W06
 .byte   VOL , 2*PokemonMysteryDungeonExplorersofSkyInTheMorningSun_mvl/mxv
 .byte   W06
 .byte   VOL , 1*PokemonMysteryDungeonExplorersofSkyInTheMorningSun_mvl/mxv
 .byte   W05
 .byte   PEND 
 .byte   EOT
 .byte   An2
 .byte   W01
Label_01686699:
 .byte   W72
@  #03 @019   ----------------------------------------
 .byte   W96
@  #03 @020   ----------------------------------------
 .byte   W96
@  #03 @021   ----------------------------------------
 .byte   W96
@  #03 @022   ----------------------------------------
 .byte   W96
@  #03 @023   ----------------------------------------
 .byte   W96
@  #03 @024   ----------------------------------------
 .byte   W96
@  #03 @025   ----------------------------------------
 .byte   W96
@  #03 @026   ----------------------------------------
 .byte   W96
@  #03 @027   ----------------------------------------
 .byte   W96
@  #03 @028   ----------------------------------------
 .byte   W96
@  #03 @029   ----------------------------------------
 .byte   W96
@  #03 @030   ----------------------------------------
 .byte   W96
@  #03 @031   ----------------------------------------
 .byte   W96
@  #03 @032   ----------------------------------------
 .byte   W96
@  #03 @033   ----------------------------------------
 .byte   W96
@  #03 @034   ----------------------------------------
 .byte   W24
 .byte   VOL , 11*PokemonMysteryDungeonExplorersofSkyInTheMorningSun_mvl/mxv
 .byte   TIE ,Dn3 ,v060
 .byte   W06
 .byte   VOL , 11*PokemonMysteryDungeonExplorersofSkyInTheMorningSun_mvl/mxv
 .byte   W06
 .byte   VOL , 11*PokemonMysteryDungeonExplorersofSkyInTheMorningSun_mvl/mxv
 .byte   W06
 .byte   VOL , 12*PokemonMysteryDungeonExplorersofSkyInTheMorningSun_mvl/mxv
 .byte   W06
 .byte   VOL , 13*PokemonMysteryDungeonExplorersofSkyInTheMorningSun_mvl/mxv
 .byte   W06
 .byte   VOL , 13*PokemonMysteryDungeonExplorersofSkyInTheMorningSun_mvl/mxv
 .byte   W06
 .byte   VOL , 13*PokemonMysteryDungeonExplorersofSkyInTheMorningSun_mvl/mxv
 .byte   W06
 .byte   VOL , 14*PokemonMysteryDungeonExplorersofSkyInTheMorningSun_mvl/mxv
 .byte   W06
 .byte   VOL , 14*PokemonMysteryDungeonExplorersofSkyInTheMorningSun_mvl/mxv
 .byte   W06
 .byte   VOL , 14*PokemonMysteryDungeonExplorersofSkyInTheMorningSun_mvl/mxv
 .byte   W06
 .byte   VOL , 15*PokemonMysteryDungeonExplorersofSkyInTheMorningSun_mvl/mxv
 .byte   W06
 .byte   VOL , 15*PokemonMysteryDungeonExplorersofSkyInTheMorningSun_mvl/mxv
 .byte   W06
@  #03 @035   ----------------------------------------
 .byte   VOL , 16*PokemonMysteryDungeonExplorersofSkyInTheMorningSun_mvl/mxv
 .byte   W06
 .byte   VOL , 16*PokemonMysteryDungeonExplorersofSkyInTheMorningSun_mvl/mxv
 .byte   W06
 .byte   VOL , 17*PokemonMysteryDungeonExplorersofSkyInTheMorningSun_mvl/mxv
 .byte   W06
 .byte   VOL , 17*PokemonMysteryDungeonExplorersofSkyInTheMorningSun_mvl/mxv
 .byte   W06
 .byte   VOL , 18*PokemonMysteryDungeonExplorersofSkyInTheMorningSun_mvl/mxv
 .byte   W06
 .byte   VOL , 18*PokemonMysteryDungeonExplorersofSkyInTheMorningSun_mvl/mxv
 .byte   W06
 .byte   VOL , 18*PokemonMysteryDungeonExplorersofSkyInTheMorningSun_mvl/mxv
 .byte   W06
 .byte   VOL , 18*PokemonMysteryDungeonExplorersofSkyInTheMorningSun_mvl/mxv
 .byte   W06
 .byte   VOL , 19*PokemonMysteryDungeonExplorersofSkyInTheMorningSun_mvl/mxv
 .byte   W06
 .byte   VOL , 19*PokemonMysteryDungeonExplorersofSkyInTheMorningSun_mvl/mxv
 .byte   W06
 .byte   VOL , 19*PokemonMysteryDungeonExplorersofSkyInTheMorningSun_mvl/mxv
 .byte   W06
 .byte   VOL , 20*PokemonMysteryDungeonExplorersofSkyInTheMorningSun_mvl/mxv
 .byte   W06
 .byte   VOL , 20*PokemonMysteryDungeonExplorersofSkyInTheMorningSun_mvl/mxv
 .byte   W06
 .byte   VOL , 21*PokemonMysteryDungeonExplorersofSkyInTheMorningSun_mvl/mxv
 .byte   W06
 .byte   VOL , 22*PokemonMysteryDungeonExplorersofSkyInTheMorningSun_mvl/mxv
 .byte   W06
 .byte   VOL , 22*PokemonMysteryDungeonExplorersofSkyInTheMorningSun_mvl/mxv
 .byte   W06
@  #03 @036   ----------------------------------------
 .byte   VOL , 22*PokemonMysteryDungeonExplorersofSkyInTheMorningSun_mvl/mxv
 .byte   W06
 .byte   VOL , 23*PokemonMysteryDungeonExplorersofSkyInTheMorningSun_mvl/mxv
 .byte   W06
 .byte   VOL , 23*PokemonMysteryDungeonExplorersofSkyInTheMorningSun_mvl/mxv
 .byte   W06
 .byte   VOL , 23*PokemonMysteryDungeonExplorersofSkyInTheMorningSun_mvl/mxv
 .byte   W05
 .byte   EOT
 .byte   W01
 .byte   VOL , 23*PokemonMysteryDungeonExplorersofSkyInTheMorningSun_mvl/mxv
 .byte   TIE ,Cn3
 .byte   W06
 .byte   VOL , 23*PokemonMysteryDungeonExplorersofSkyInTheMorningSun_mvl/mxv
 .byte   W06
 .byte   VOL , 22*PokemonMysteryDungeonExplorersofSkyInTheMorningSun_mvl/mxv
 .byte   W06
 .byte   VOL , 22*PokemonMysteryDungeonExplorersofSkyInTheMorningSun_mvl/mxv
 .byte   W06
 .byte   VOL , 22*PokemonMysteryDungeonExplorersofSkyInTheMorningSun_mvl/mxv
 .byte   W06
 .byte   VOL , 22*PokemonMysteryDungeonExplorersofSkyInTheMorningSun_mvl/mxv
 .byte   W06
 .byte   VOL , 21*PokemonMysteryDungeonExplorersofSkyInTheMorningSun_mvl/mxv
 .byte   W06
 .byte   VOL , 20*PokemonMysteryDungeonExplorersofSkyInTheMorningSun_mvl/mxv
 .byte   W06
 .byte   VOL , 20*PokemonMysteryDungeonExplorersofSkyInTheMorningSun_mvl/mxv
 .byte   W06
 .byte   VOL , 20*PokemonMysteryDungeonExplorersofSkyInTheMorningSun_mvl/mxv
 .byte   W06
 .byte   VOL , 19*PokemonMysteryDungeonExplorersofSkyInTheMorningSun_mvl/mxv
 .byte   W06
 .byte   VOL , 19*PokemonMysteryDungeonExplorersofSkyInTheMorningSun_mvl/mxv
 .byte   W06
@  #03 @037   ----------------------------------------
 .byte   VOL , 19*PokemonMysteryDungeonExplorersofSkyInTheMorningSun_mvl/mxv
 .byte   W06
 .byte   VOL , 18*PokemonMysteryDungeonExplorersofSkyInTheMorningSun_mvl/mxv
 .byte   W12
 .byte   VOL , 18*PokemonMysteryDungeonExplorersofSkyInTheMorningSun_mvl/mxv
 .byte   W06
 .byte   VOL , 18*PokemonMysteryDungeonExplorersofSkyInTheMorningSun_mvl/mxv
 .byte   W06
 .byte   VOL , 17*PokemonMysteryDungeonExplorersofSkyInTheMorningSun_mvl/mxv
 .byte   W12
 .byte   VOL , 17*PokemonMysteryDungeonExplorersofSkyInTheMorningSun_mvl/mxv
 .byte   W06
 .byte   VOL , 16*PokemonMysteryDungeonExplorersofSkyInTheMorningSun_mvl/mxv
 .byte   W06
 .byte   VOL , 15*PokemonMysteryDungeonExplorersofSkyInTheMorningSun_mvl/mxv
 .byte   W06
 .byte   VOL , 15*PokemonMysteryDungeonExplorersofSkyInTheMorningSun_mvl/mxv
 .byte   W06
 .byte   VOL , 15*PokemonMysteryDungeonExplorersofSkyInTheMorningSun_mvl/mxv
 .byte   W06
 .byte   VOL , 14*PokemonMysteryDungeonExplorersofSkyInTheMorningSun_mvl/mxv
 .byte   W06
 .byte   VOL , 14*PokemonMysteryDungeonExplorersofSkyInTheMorningSun_mvl/mxv
 .byte   W06
 .byte   VOL , 14*PokemonMysteryDungeonExplorersofSkyInTheMorningSun_mvl/mxv
 .byte   W06
 .byte   VOL , 13*PokemonMysteryDungeonExplorersofSkyInTheMorningSun_mvl/mxv
 .byte   W06
@  #03 @038   ----------------------------------------
 .byte   VOL , 13*PokemonMysteryDungeonExplorersofSkyInTheMorningSun_mvl/mxv
 .byte   W06
 .byte   VOL , 13*PokemonMysteryDungeonExplorersofSkyInTheMorningSun_mvl/mxv
 .byte   W06
 .byte   VOL , 12*PokemonMysteryDungeonExplorersofSkyInTheMorningSun_mvl/mxv
 .byte   W06
 .byte   VOL , 13*PokemonMysteryDungeonExplorersofSkyInTheMorningSun_mvl/mxv
 .byte   W05
 .byte   EOT
 .byte   W01
 .byte   VOL , 13*PokemonMysteryDungeonExplorersofSkyInTheMorningSun_mvl/mxv
 .byte   N92 ,As2
 .byte   W12
 .byte   VOL , 13*PokemonMysteryDungeonExplorersofSkyInTheMorningSun_mvl/mxv
 .byte   W06
 .byte   VOL , 14*PokemonMysteryDungeonExplorersofSkyInTheMorningSun_mvl/mxv
 .byte   W06
 .byte   VOL , 14*PokemonMysteryDungeonExplorersofSkyInTheMorningSun_mvl/mxv
 .byte   W06
 .byte   VOL , 14*PokemonMysteryDungeonExplorersofSkyInTheMorningSun_mvl/mxv
 .byte   W06
 .byte   VOL , 14*PokemonMysteryDungeonExplorersofSkyInTheMorningSun_mvl/mxv
 .byte   W06
 .byte   VOL , 15*PokemonMysteryDungeonExplorersofSkyInTheMorningSun_mvl/mxv
 .byte   W06
 .byte   VOL , 15*PokemonMysteryDungeonExplorersofSkyInTheMorningSun_mvl/mxv
 .byte   W06
 .byte   VOL , 16*PokemonMysteryDungeonExplorersofSkyInTheMorningSun_mvl/mxv
 .byte   W06
 .byte   VOL , 16*PokemonMysteryDungeonExplorersofSkyInTheMorningSun_mvl/mxv
 .byte   W06
 .byte   VOL , 17*PokemonMysteryDungeonExplorersofSkyInTheMorningSun_mvl/mxv
 .byte   W06
@  #03 @039   ----------------------------------------
 .byte   VOL , 17*PokemonMysteryDungeonExplorersofSkyInTheMorningSun_mvl/mxv
 .byte   W06
 .byte   VOL , 17*PokemonMysteryDungeonExplorersofSkyInTheMorningSun_mvl/mxv
 .byte   W06
 .byte   VOL , 17*PokemonMysteryDungeonExplorersofSkyInTheMorningSun_mvl/mxv
 .byte   W06
 .byte   VOL , 18*PokemonMysteryDungeonExplorersofSkyInTheMorningSun_mvl/mxv
 .byte   W06
 .byte   VOL , 18*PokemonMysteryDungeonExplorersofSkyInTheMorningSun_mvl/mxv
 .byte   N92 ,Gn2
 .byte   W06
 .byte   VOL , 18*PokemonMysteryDungeonExplorersofSkyInTheMorningSun_mvl/mxv
 .byte   W06
 .byte   VOL , 18*PokemonMysteryDungeonExplorersofSkyInTheMorningSun_mvl/mxv
 .byte   W06
 .byte   VOL , 19*PokemonMysteryDungeonExplorersofSkyInTheMorningSun_mvl/mxv
 .byte   W06
 .byte   VOL , 19*PokemonMysteryDungeonExplorersofSkyInTheMorningSun_mvl/mxv
 .byte   W12
 .byte   VOL , 20*PokemonMysteryDungeonExplorersofSkyInTheMorningSun_mvl/mxv
 .byte   W06
 .byte   VOL , 20*PokemonMysteryDungeonExplorersofSkyInTheMorningSun_mvl/mxv
 .byte   W06
 .byte   VOL , 20*PokemonMysteryDungeonExplorersofSkyInTheMorningSun_mvl/mxv
 .byte   W06
 .byte   VOL , 21*PokemonMysteryDungeonExplorersofSkyInTheMorningSun_mvl/mxv
 .byte   W06
 .byte   VOL , 21*PokemonMysteryDungeonExplorersofSkyInTheMorningSun_mvl/mxv
 .byte   W06
 .byte   VOL , 22*PokemonMysteryDungeonExplorersofSkyInTheMorningSun_mvl/mxv
 .byte   W06
@  #03 @040   ----------------------------------------
 .byte   VOL , 22*PokemonMysteryDungeonExplorersofSkyInTheMorningSun_mvl/mxv
 .byte   W06
 .byte   VOL , 22*PokemonMysteryDungeonExplorersofSkyInTheMorningSun_mvl/mxv
 .byte   W06
 .byte   VOL , 23*PokemonMysteryDungeonExplorersofSkyInTheMorningSun_mvl/mxv
 .byte   W06
 .byte   VOL , 23*PokemonMysteryDungeonExplorersofSkyInTheMorningSun_mvl/mxv
 .byte   W06
 .byte   VOL , 23*PokemonMysteryDungeonExplorersofSkyInTheMorningSun_mvl/mxv
 .byte   N92 ,An2
 .byte   W06
 .byte   VOL , 24*PokemonMysteryDungeonExplorersofSkyInTheMorningSun_mvl/mxv
 .byte   W06
 .byte   VOL , 23*PokemonMysteryDungeonExplorersofSkyInTheMorningSun_mvl/mxv
 .byte   W06
 .byte   VOL , 23*PokemonMysteryDungeonExplorersofSkyInTheMorningSun_mvl/mxv
 .byte   W06
 .byte   VOL , 22*PokemonMysteryDungeonExplorersofSkyInTheMorningSun_mvl/mxv
 .byte   W06
 .byte   VOL , 22*PokemonMysteryDungeonExplorersofSkyInTheMorningSun_mvl/mxv
 .byte   W06
 .byte   VOL , 22*PokemonMysteryDungeonExplorersofSkyInTheMorningSun_mvl/mxv
 .byte   W06
 .byte   VOL , 22*PokemonMysteryDungeonExplorersofSkyInTheMorningSun_mvl/mxv
 .byte   W06
 .byte   VOL , 21*PokemonMysteryDungeonExplorersofSkyInTheMorningSun_mvl/mxv
 .byte   W06
 .byte   VOL , 21*PokemonMysteryDungeonExplorersofSkyInTheMorningSun_mvl/mxv
 .byte   W06
 .byte   VOL , 20*PokemonMysteryDungeonExplorersofSkyInTheMorningSun_mvl/mxv
 .byte   W06
 .byte   VOL , 20*PokemonMysteryDungeonExplorersofSkyInTheMorningSun_mvl/mxv
 .byte   W06
@  #03 @041   ----------------------------------------
 .byte   VOL , 20*PokemonMysteryDungeonExplorersofSkyInTheMorningSun_mvl/mxv
 .byte   W06
 .byte   VOL , 19*PokemonMysteryDungeonExplorersofSkyInTheMorningSun_mvl/mxv
 .byte   W12
 .byte   VOL , 19*PokemonMysteryDungeonExplorersofSkyInTheMorningSun_mvl/mxv
 .byte   W06
 .byte   VOL , 18*PokemonMysteryDungeonExplorersofSkyInTheMorningSun_mvl/mxv
 .byte   N92
 .byte   W06
 .byte   VOL , 18*PokemonMysteryDungeonExplorersofSkyInTheMorningSun_mvl/mxv
 .byte   W12
 .byte   VOL , 18*PokemonMysteryDungeonExplorersofSkyInTheMorningSun_mvl/mxv
 .byte   W06
 .byte   VOL , 18*PokemonMysteryDungeonExplorersofSkyInTheMorningSun_mvl/mxv
 .byte   W06
 .byte   VOL , 17*PokemonMysteryDungeonExplorersofSkyInTheMorningSun_mvl/mxv
 .byte   W06
 .byte   VOL , 17*PokemonMysteryDungeonExplorersofSkyInTheMorningSun_mvl/mxv
 .byte   W06
 .byte   VOL , 17*PokemonMysteryDungeonExplorersofSkyInTheMorningSun_mvl/mxv
 .byte   W06
 .byte   VOL , 17*PokemonMysteryDungeonExplorersofSkyInTheMorningSun_mvl/mxv
 .byte   W06
 .byte   VOL , 16*PokemonMysteryDungeonExplorersofSkyInTheMorningSun_mvl/mxv
 .byte   W06
 .byte   VOL , 16*PokemonMysteryDungeonExplorersofSkyInTheMorningSun_mvl/mxv
 .byte   W06
 .byte   VOL , 15*PokemonMysteryDungeonExplorersofSkyInTheMorningSun_mvl/mxv
 .byte   W06
@  #03 @042   ----------------------------------------
 .byte   VOL , 15*PokemonMysteryDungeonExplorersofSkyInTheMorningSun_mvl/mxv
 .byte   W06
 .byte   VOL , 15*PokemonMysteryDungeonExplorersofSkyInTheMorningSun_mvl/mxv
 .byte   W06
 .byte   VOL , 14*PokemonMysteryDungeonExplorersofSkyInTheMorningSun_mvl/mxv
 .byte   W06
 .byte   VOL , 14*PokemonMysteryDungeonExplorersofSkyInTheMorningSun_mvl/mxv
 .byte   W06
 .byte   VOL , 14*PokemonMysteryDungeonExplorersofSkyInTheMorningSun_mvl/mxv
 .byte   N44 ,Gn2
 .byte   W06
 .byte   VOL , 14*PokemonMysteryDungeonExplorersofSkyInTheMorningSun_mvl/mxv
 .byte   W06
 .byte   VOL , 14*PokemonMysteryDungeonExplorersofSkyInTheMorningSun_mvl/mxv
 .byte   W06
 .byte   VOL , 15*PokemonMysteryDungeonExplorersofSkyInTheMorningSun_mvl/mxv
 .byte   W06
 .byte   VOL , 15*PokemonMysteryDungeonExplorersofSkyInTheMorningSun_mvl/mxv
 .byte   W06
 .byte   VOL , 15*PokemonMysteryDungeonExplorersofSkyInTheMorningSun_mvl/mxv
 .byte   W06
 .byte   VOL , 16*PokemonMysteryDungeonExplorersofSkyInTheMorningSun_mvl/mxv
 .byte   W06
 .byte   VOL , 16*PokemonMysteryDungeonExplorersofSkyInTheMorningSun_mvl/mxv
 .byte   W06
 .byte   VOL , 17*PokemonMysteryDungeonExplorersofSkyInTheMorningSun_mvl/mxv
 .byte   N44 ,As2
 .byte   W06
 .byte   VOL , 17*PokemonMysteryDungeonExplorersofSkyInTheMorningSun_mvl/mxv
 .byte   W12
 .byte   VOL , 18*PokemonMysteryDungeonExplorersofSkyInTheMorningSun_mvl/mxv
 .byte   W06
@  #03 @043   ----------------------------------------
 .byte   VOL , 18*PokemonMysteryDungeonExplorersofSkyInTheMorningSun_mvl/mxv
 .byte   W06
 .byte   VOL , 18*PokemonMysteryDungeonExplorersofSkyInTheMorningSun_mvl/mxv
 .byte   W06
 .byte   VOL , 18*PokemonMysteryDungeonExplorersofSkyInTheMorningSun_mvl/mxv
 .byte   W06
 .byte   VOL , 18*PokemonMysteryDungeonExplorersofSkyInTheMorningSun_mvl/mxv
 .byte   W06
 .byte   VOL , 19*PokemonMysteryDungeonExplorersofSkyInTheMorningSun_mvl/mxv
 .byte   N44 ,An2
 .byte   W06
 .byte   VOL , 19*PokemonMysteryDungeonExplorersofSkyInTheMorningSun_mvl/mxv
 .byte   W06
 .byte   VOL , 19*PokemonMysteryDungeonExplorersofSkyInTheMorningSun_mvl/mxv
 .byte   W06
 .byte   VOL , 19*PokemonMysteryDungeonExplorersofSkyInTheMorningSun_mvl/mxv
 .byte   W06
 .byte   VOL , 20*PokemonMysteryDungeonExplorersofSkyInTheMorningSun_mvl/mxv
 .byte   W06
 .byte   VOL , 20*PokemonMysteryDungeonExplorersofSkyInTheMorningSun_mvl/mxv
 .byte   W06
 .byte   VOL , 20*PokemonMysteryDungeonExplorersofSkyInTheMorningSun_mvl/mxv
 .byte   W06
 .byte   VOL , 21*PokemonMysteryDungeonExplorersofSkyInTheMorningSun_mvl/mxv
 .byte   W06
 .byte   VOL , 21*PokemonMysteryDungeonExplorersofSkyInTheMorningSun_mvl/mxv
 .byte   N44 ,Cn3
 .byte   W06
 .byte   VOL , 22*PokemonMysteryDungeonExplorersofSkyInTheMorningSun_mvl/mxv
 .byte   W06
 .byte   VOL , 22*PokemonMysteryDungeonExplorersofSkyInTheMorningSun_mvl/mxv
 .byte   W06
 .byte   VOL , 22*PokemonMysteryDungeonExplorersofSkyInTheMorningSun_mvl/mxv
 .byte   W06
@  #03 @044   ----------------------------------------
 .byte   W06
 .byte   VOL , 23*PokemonMysteryDungeonExplorersofSkyInTheMorningSun_mvl/mxv
 .byte   W06
 .byte   VOL , 23*PokemonMysteryDungeonExplorersofSkyInTheMorningSun_mvl/mxv
 .byte   W06
 .byte   VOL , 23*PokemonMysteryDungeonExplorersofSkyInTheMorningSun_mvl/mxv
 .byte   W06
 .byte   VOL , 24*PokemonMysteryDungeonExplorersofSkyInTheMorningSun_mvl/mxv
 .byte   N24
 .byte   W06
 .byte   VOL , 23*PokemonMysteryDungeonExplorersofSkyInTheMorningSun_mvl/mxv
 .byte   W06
 .byte   VOL , 23*PokemonMysteryDungeonExplorersofSkyInTheMorningSun_mvl/mxv
 .byte   W06
 .byte   VOL , 22*PokemonMysteryDungeonExplorersofSkyInTheMorningSun_mvl/mxv
 .byte   W06
 .byte   N24 ,Bn2
 .byte   W06
 .byte   VOL , 22*PokemonMysteryDungeonExplorersofSkyInTheMorningSun_mvl/mxv
 .byte   W06
 .byte   VOL , 22*PokemonMysteryDungeonExplorersofSkyInTheMorningSun_mvl/mxv
 .byte   W06
 .byte   VOL , 21*PokemonMysteryDungeonExplorersofSkyInTheMorningSun_mvl/mxv
 .byte   W06
 .byte   VOL , 21*PokemonMysteryDungeonExplorersofSkyInTheMorningSun_mvl/mxv
 .byte   N44 ,An2
 .byte   W06
 .byte   VOL , 20*PokemonMysteryDungeonExplorersofSkyInTheMorningSun_mvl/mxv
 .byte   W06
 .byte   VOL , 20*PokemonMysteryDungeonExplorersofSkyInTheMorningSun_mvl/mxv
 .byte   W06
 .byte   VOL , 20*PokemonMysteryDungeonExplorersofSkyInTheMorningSun_mvl/mxv
 .byte   W06
@  #03 @045   ----------------------------------------
 .byte   VOL , 19*PokemonMysteryDungeonExplorersofSkyInTheMorningSun_mvl/mxv
 .byte   W06
 .byte   VOL , 19*PokemonMysteryDungeonExplorersofSkyInTheMorningSun_mvl/mxv
 .byte   W06
 .byte   VOL , 19*PokemonMysteryDungeonExplorersofSkyInTheMorningSun_mvl/mxv
 .byte   W06
 .byte   VOL , 19*PokemonMysteryDungeonExplorersofSkyInTheMorningSun_mvl/mxv
 .byte   W06
 .byte   VOL , 18*PokemonMysteryDungeonExplorersofSkyInTheMorningSun_mvl/mxv
 .byte   N44 ,Bn2
 .byte   W06
 .byte   VOL , 18*PokemonMysteryDungeonExplorersofSkyInTheMorningSun_mvl/mxv
 .byte   W06
 .byte   VOL , 18*PokemonMysteryDungeonExplorersofSkyInTheMorningSun_mvl/mxv
 .byte   W06
 .byte   VOL , 18*PokemonMysteryDungeonExplorersofSkyInTheMorningSun_mvl/mxv
 .byte   W06
 .byte   VOL , 18*PokemonMysteryDungeonExplorersofSkyInTheMorningSun_mvl/mxv
 .byte   W06
 .byte   VOL , 17*PokemonMysteryDungeonExplorersofSkyInTheMorningSun_mvl/mxv
 .byte   W06
 .byte   VOL , 17*PokemonMysteryDungeonExplorersofSkyInTheMorningSun_mvl/mxv
 .byte   W06
 .byte   VOL , 17*PokemonMysteryDungeonExplorersofSkyInTheMorningSun_mvl/mxv
 .byte   W06
 .byte   VOL , 17*PokemonMysteryDungeonExplorersofSkyInTheMorningSun_mvl/mxv
 .byte   N44 ,An2
 .byte   W06
 .byte   VOL , 16*PokemonMysteryDungeonExplorersofSkyInTheMorningSun_mvl/mxv
 .byte   W06
 .byte   VOL , 16*PokemonMysteryDungeonExplorersofSkyInTheMorningSun_mvl/mxv
 .byte   W06
 .byte   VOL , 15*PokemonMysteryDungeonExplorersofSkyInTheMorningSun_mvl/mxv
 .byte   W06
@  #03 @046   ----------------------------------------
 .byte   VOL , 15*PokemonMysteryDungeonExplorersofSkyInTheMorningSun_mvl/mxv
 .byte   W06
 .byte   VOL , 15*PokemonMysteryDungeonExplorersofSkyInTheMorningSun_mvl/mxv
 .byte   W06
 .byte   VOL , 14*PokemonMysteryDungeonExplorersofSkyInTheMorningSun_mvl/mxv
 .byte   W06
 .byte   VOL , 14*PokemonMysteryDungeonExplorersofSkyInTheMorningSun_mvl/mxv
 .byte   W06
 .byte   VOL , 14*PokemonMysteryDungeonExplorersofSkyInTheMorningSun_mvl/mxv
 .byte   TIE ,As2
 .byte   W06
 .byte   VOL , 14*PokemonMysteryDungeonExplorersofSkyInTheMorningSun_mvl/mxv
 .byte   W06
 .byte   VOL , 14*PokemonMysteryDungeonExplorersofSkyInTheMorningSun_mvl/mxv
 .byte   W06
 .byte   VOL , 14*PokemonMysteryDungeonExplorersofSkyInTheMorningSun_mvl/mxv
 .byte   W06
 .byte   VOL , 15*PokemonMysteryDungeonExplorersofSkyInTheMorningSun_mvl/mxv
 .byte   W06
 .byte   VOL , 15*PokemonMysteryDungeonExplorersofSkyInTheMorningSun_mvl/mxv
 .byte   W12
 .byte   VOL , 16*PokemonMysteryDungeonExplorersofSkyInTheMorningSun_mvl/mxv
 .byte   W06
 .byte   VOL , 17*PokemonMysteryDungeonExplorersofSkyInTheMorningSun_mvl/mxv
 .byte   W06
 .byte   VOL , 17*PokemonMysteryDungeonExplorersofSkyInTheMorningSun_mvl/mxv
 .byte   W06
 .byte   VOL , 17*PokemonMysteryDungeonExplorersofSkyInTheMorningSun_mvl/mxv
 .byte   W06
 .byte   VOL , 17*PokemonMysteryDungeonExplorersofSkyInTheMorningSun_mvl/mxv
 .byte   W06
@  #03 @047   ----------------------------------------
 .byte   VOL , 18*PokemonMysteryDungeonExplorersofSkyInTheMorningSun_mvl/mxv
 .byte   W06
 .byte   VOL , 18*PokemonMysteryDungeonExplorersofSkyInTheMorningSun_mvl/mxv
 .byte   W06
 .byte   VOL , 18*PokemonMysteryDungeonExplorersofSkyInTheMorningSun_mvl/mxv
 .byte   W06
 .byte   VOL , 18*PokemonMysteryDungeonExplorersofSkyInTheMorningSun_mvl/mxv
 .byte   W06
 .byte   VOL , 19*PokemonMysteryDungeonExplorersofSkyInTheMorningSun_mvl/mxv
 .byte   W06
 .byte   VOL , 19*PokemonMysteryDungeonExplorersofSkyInTheMorningSun_mvl/mxv
 .byte   W06
 .byte   VOL , 19*PokemonMysteryDungeonExplorersofSkyInTheMorningSun_mvl/mxv
 .byte   W06
 .byte   VOL , 19*PokemonMysteryDungeonExplorersofSkyInTheMorningSun_mvl/mxv
 .byte   W06
 .byte   VOL , 20*PokemonMysteryDungeonExplorersofSkyInTheMorningSun_mvl/mxv
 .byte   W06
 .byte   VOL , 20*PokemonMysteryDungeonExplorersofSkyInTheMorningSun_mvl/mxv
 .byte   W06
 .byte   VOL , 21*PokemonMysteryDungeonExplorersofSkyInTheMorningSun_mvl/mxv
 .byte   W12
 .byte   VOL , 22*PokemonMysteryDungeonExplorersofSkyInTheMorningSun_mvl/mxv
 .byte   W06
 .byte   VOL , 22*PokemonMysteryDungeonExplorersofSkyInTheMorningSun_mvl/mxv
 .byte   W06
 .byte   VOL , 22*PokemonMysteryDungeonExplorersofSkyInTheMorningSun_mvl/mxv
 .byte   W06
 .byte   VOL , 22*PokemonMysteryDungeonExplorersofSkyInTheMorningSun_mvl/mxv
 .byte   W06
@  #03 @048   ----------------------------------------
 .byte   VOL , 23*PokemonMysteryDungeonExplorersofSkyInTheMorningSun_mvl/mxv
 .byte   W06
 .byte   VOL , 23*PokemonMysteryDungeonExplorersofSkyInTheMorningSun_mvl/mxv
 .byte   W06
 .byte   VOL , 23*PokemonMysteryDungeonExplorersofSkyInTheMorningSun_mvl/mxv
 .byte   W06
 .byte   VOL , 24*PokemonMysteryDungeonExplorersofSkyInTheMorningSun_mvl/mxv
 .byte   W05
 .byte   EOT
 .byte   W01
 .byte   VOL , 23*PokemonMysteryDungeonExplorersofSkyInTheMorningSun_mvl/mxv
 .byte   TIE
 .byte   W06
 .byte   VOL , 23*PokemonMysteryDungeonExplorersofSkyInTheMorningSun_mvl/mxv
 .byte   W06
 .byte   VOL , 22*PokemonMysteryDungeonExplorersofSkyInTheMorningSun_mvl/mxv
 .byte   W12
 .byte   VOL , 22*PokemonMysteryDungeonExplorersofSkyInTheMorningSun_mvl/mxv
 .byte   W06
 .byte   VOL , 22*PokemonMysteryDungeonExplorersofSkyInTheMorningSun_mvl/mxv
 .byte   W06
 .byte   VOL , 21*PokemonMysteryDungeonExplorersofSkyInTheMorningSun_mvl/mxv
 .byte   W06
 .byte   VOL , 21*PokemonMysteryDungeonExplorersofSkyInTheMorningSun_mvl/mxv
 .byte   W06
 .byte   VOL , 20*PokemonMysteryDungeonExplorersofSkyInTheMorningSun_mvl/mxv
 .byte   W06
 .byte   VOL , 20*PokemonMysteryDungeonExplorersofSkyInTheMorningSun_mvl/mxv
 .byte   W06
 .byte   VOL , 20*PokemonMysteryDungeonExplorersofSkyInTheMorningSun_mvl/mxv
 .byte   W06
 .byte   VOL , 19*PokemonMysteryDungeonExplorersofSkyInTheMorningSun_mvl/mxv
 .byte   W06
@  #03 @049   ----------------------------------------
 .byte   VOL , 19*PokemonMysteryDungeonExplorersofSkyInTheMorningSun_mvl/mxv
 .byte   W06
 .byte   VOL , 19*PokemonMysteryDungeonExplorersofSkyInTheMorningSun_mvl/mxv
 .byte   W06
 .byte   VOL , 19*PokemonMysteryDungeonExplorersofSkyInTheMorningSun_mvl/mxv
 .byte   W06
 .byte   VOL , 18*PokemonMysteryDungeonExplorersofSkyInTheMorningSun_mvl/mxv
 .byte   W06
 .byte   VOL , 18*PokemonMysteryDungeonExplorersofSkyInTheMorningSun_mvl/mxv
 .byte   W06
 .byte   VOL , 18*PokemonMysteryDungeonExplorersofSkyInTheMorningSun_mvl/mxv
 .byte   W06
 .byte   VOL , 18*PokemonMysteryDungeonExplorersofSkyInTheMorningSun_mvl/mxv
 .byte   W06
 .byte   VOL , 18*PokemonMysteryDungeonExplorersofSkyInTheMorningSun_mvl/mxv
 .byte   W06
 .byte   VOL , 17*PokemonMysteryDungeonExplorersofSkyInTheMorningSun_mvl/mxv
 .byte   W06
 .byte   VOL , 17*PokemonMysteryDungeonExplorersofSkyInTheMorningSun_mvl/mxv
 .byte   W06
 .byte   VOL , 17*PokemonMysteryDungeonExplorersofSkyInTheMorningSun_mvl/mxv
 .byte   W06
 .byte   VOL , 17*PokemonMysteryDungeonExplorersofSkyInTheMorningSun_mvl/mxv
 .byte   W06
 .byte   VOL , 16*PokemonMysteryDungeonExplorersofSkyInTheMorningSun_mvl/mxv
 .byte   W06
 .byte   VOL , 16*PokemonMysteryDungeonExplorersofSkyInTheMorningSun_mvl/mxv
 .byte   W06
 .byte   VOL , 15*PokemonMysteryDungeonExplorersofSkyInTheMorningSun_mvl/mxv
 .byte   W06
 .byte   VOL , 15*PokemonMysteryDungeonExplorersofSkyInTheMorningSun_mvl/mxv
 .byte   W06
@  #03 @050   ----------------------------------------
 .byte   VOL , 15*PokemonMysteryDungeonExplorersofSkyInTheMorningSun_mvl/mxv
 .byte   W06
 .byte   VOL , 14*PokemonMysteryDungeonExplorersofSkyInTheMorningSun_mvl/mxv
 .byte   W06
 .byte   VOL , 14*PokemonMysteryDungeonExplorersofSkyInTheMorningSun_mvl/mxv
 .byte   W06
 .byte   VOL , 14*PokemonMysteryDungeonExplorersofSkyInTheMorningSun_mvl/mxv
 .byte   W05
 .byte   EOT
 .byte   W01
 .byte   VOL , 14*PokemonMysteryDungeonExplorersofSkyInTheMorningSun_mvl/mxv
 .byte   TIE ,An2
 .byte   W06
 .byte   VOL , 14*PokemonMysteryDungeonExplorersofSkyInTheMorningSun_mvl/mxv
 .byte   W06
 .byte   VOL , 14*PokemonMysteryDungeonExplorersofSkyInTheMorningSun_mvl/mxv
 .byte   W06
 .byte   VOL , 14*PokemonMysteryDungeonExplorersofSkyInTheMorningSun_mvl/mxv
 .byte   W06
 .byte   VOL , 14*PokemonMysteryDungeonExplorersofSkyInTheMorningSun_mvl/mxv
 .byte   W12
 .byte   VOL , 14*PokemonMysteryDungeonExplorersofSkyInTheMorningSun_mvl/mxv
 .byte   W06
 .byte   VOL , 15*PokemonMysteryDungeonExplorersofSkyInTheMorningSun_mvl/mxv
 .byte   W06
 .byte   VOL , 15*PokemonMysteryDungeonExplorersofSkyInTheMorningSun_mvl/mxv
 .byte   W06
 .byte   VOL , 15*PokemonMysteryDungeonExplorersofSkyInTheMorningSun_mvl/mxv
 .byte   W12
 .byte   VOL , 16*PokemonMysteryDungeonExplorersofSkyInTheMorningSun_mvl/mxv
 .byte   W06
@  #03 @051   ----------------------------------------
 .byte   VOL , 16*PokemonMysteryDungeonExplorersofSkyInTheMorningSun_mvl/mxv
 .byte   W06
 .byte   VOL , 17*PokemonMysteryDungeonExplorersofSkyInTheMorningSun_mvl/mxv
 .byte   W06
 .byte   VOL , 17*PokemonMysteryDungeonExplorersofSkyInTheMorningSun_mvl/mxv
 .byte   W06
 .byte   VOL , 17*PokemonMysteryDungeonExplorersofSkyInTheMorningSun_mvl/mxv
 .byte   W12
 .byte   VOL , 17*PokemonMysteryDungeonExplorersofSkyInTheMorningSun_mvl/mxv
 .byte   W06
 .byte   VOL , 18*PokemonMysteryDungeonExplorersofSkyInTheMorningSun_mvl/mxv
 .byte   W06
 .byte   VOL , 18*PokemonMysteryDungeonExplorersofSkyInTheMorningSun_mvl/mxv
 .byte   W06
 .byte   VOL , 18*PokemonMysteryDungeonExplorersofSkyInTheMorningSun_mvl/mxv
 .byte   W06
 .byte   VOL , 18*PokemonMysteryDungeonExplorersofSkyInTheMorningSun_mvl/mxv
 .byte   W12
 .byte   VOL , 18*PokemonMysteryDungeonExplorersofSkyInTheMorningSun_mvl/mxv
 .byte   W06
 .byte   VOL , 19*PokemonMysteryDungeonExplorersofSkyInTheMorningSun_mvl/mxv
 .byte   W06
 .byte   VOL , 19*PokemonMysteryDungeonExplorersofSkyInTheMorningSun_mvl/mxv
 .byte   W06
 .byte   VOL , 19*PokemonMysteryDungeonExplorersofSkyInTheMorningSun_mvl/mxv
 .byte   W12
@  #03 @052   ----------------------------------------
 .byte   VOL , 19*PokemonMysteryDungeonExplorersofSkyInTheMorningSun_mvl/mxv
 .byte   W06
 .byte   VOL , 20*PokemonMysteryDungeonExplorersofSkyInTheMorningSun_mvl/mxv
 .byte   W06
 .byte   VOL , 20*PokemonMysteryDungeonExplorersofSkyInTheMorningSun_mvl/mxv
 .byte   W06
 .byte   VOL , 20*PokemonMysteryDungeonExplorersofSkyInTheMorningSun_mvl/mxv
 .byte   W12
 .byte   VOL , 21*PokemonMysteryDungeonExplorersofSkyInTheMorningSun_mvl/mxv
 .byte   W06
 .byte   VOL , 21*PokemonMysteryDungeonExplorersofSkyInTheMorningSun_mvl/mxv
 .byte   W06
 .byte   VOL , 22*PokemonMysteryDungeonExplorersofSkyInTheMorningSun_mvl/mxv
 .byte   W06
 .byte   VOL , 22*PokemonMysteryDungeonExplorersofSkyInTheMorningSun_mvl/mxv
 .byte   W12
 .byte   VOL , 22*PokemonMysteryDungeonExplorersofSkyInTheMorningSun_mvl/mxv
 .byte   W06
 .byte   VOL , 22*PokemonMysteryDungeonExplorersofSkyInTheMorningSun_mvl/mxv
 .byte   W06
 .byte   VOL , 23*PokemonMysteryDungeonExplorersofSkyInTheMorningSun_mvl/mxv
 .byte   W06
 .byte   VOL , 23*PokemonMysteryDungeonExplorersofSkyInTheMorningSun_mvl/mxv
 .byte   W12
 .byte   VOL , 23*PokemonMysteryDungeonExplorersofSkyInTheMorningSun_mvl/mxv
 .byte   W06
@  #03 @053   ----------------------------------------
 .byte   VOL , 23*PokemonMysteryDungeonExplorersofSkyInTheMorningSun_mvl/mxv
 .byte   W06
 .byte   VOL , 24*PokemonMysteryDungeonExplorersofSkyInTheMorningSun_mvl/mxv
 .byte   W17
 .byte   EOT
 .byte   W01
 .byte   N12 ,An2 ,v012
 .byte   W12
 .byte   An2 ,v008
 .byte   W12
 .byte   An2 ,v004
 .byte   W12
 .byte   N12
 .byte   W12
 .byte   N12
 .byte   W24
@  #03 @054   ----------------------------------------
 .byte   W20
 .byte   VOL , 17*PokemonMysteryDungeonExplorersofSkyInTheMorningSun_mvl/mxv
 .byte   W04
 .byte   VOL , 18*PokemonMysteryDungeonExplorersofSkyInTheMorningSun_mvl/mxv
 .byte   N92 ,Gn2 ,v076
 .byte   W08
 .byte   VOL , 18*PokemonMysteryDungeonExplorersofSkyInTheMorningSun_mvl/mxv
 .byte   W04
 .byte   VOL , 18*PokemonMysteryDungeonExplorersofSkyInTheMorningSun_mvl/mxv
 .byte   W04
 .byte   VOL , 18*PokemonMysteryDungeonExplorersofSkyInTheMorningSun_mvl/mxv
 .byte   W04
 .byte   VOL , 18*PokemonMysteryDungeonExplorersofSkyInTheMorningSun_mvl/mxv
 .byte   W04
 .byte   VOL , 19*PokemonMysteryDungeonExplorersofSkyInTheMorningSun_mvl/mxv
 .byte   W08
 .byte   VOL , 19*PokemonMysteryDungeonExplorersofSkyInTheMorningSun_mvl/mxv
 .byte   W04
 .byte   VOL , 19*PokemonMysteryDungeonExplorersofSkyInTheMorningSun_mvl/mxv
 .byte   W04
 .byte   VOL , 19*PokemonMysteryDungeonExplorersofSkyInTheMorningSun_mvl/mxv
 .byte   W04
 .byte   VOL , 20*PokemonMysteryDungeonExplorersofSkyInTheMorningSun_mvl/mxv
 .byte   W04
 .byte   VOL , 20*PokemonMysteryDungeonExplorersofSkyInTheMorningSun_mvl/mxv
 .byte   W04
 .byte   VOL , 20*PokemonMysteryDungeonExplorersofSkyInTheMorningSun_mvl/mxv
 .byte   W08
 .byte   VOL , 21*PokemonMysteryDungeonExplorersofSkyInTheMorningSun_mvl/mxv
 .byte   W04
 .byte   VOL , 21*PokemonMysteryDungeonExplorersofSkyInTheMorningSun_mvl/mxv
 .byte   W04
 .byte   VOL , 22*PokemonMysteryDungeonExplorersofSkyInTheMorningSun_mvl/mxv
 .byte   W04
@  #03 @055   ----------------------------------------
 .byte   VOL , 22*PokemonMysteryDungeonExplorersofSkyInTheMorningSun_mvl/mxv
 .byte   W04
 .byte   VOL , 22*PokemonMysteryDungeonExplorersofSkyInTheMorningSun_mvl/mxv
 .byte   W08
 .byte   VOL , 22*PokemonMysteryDungeonExplorersofSkyInTheMorningSun_mvl/mxv
 .byte   W04
 .byte   VOL , 23*PokemonMysteryDungeonExplorersofSkyInTheMorningSun_mvl/mxv
 .byte   W04
 .byte   VOL , 23*PokemonMysteryDungeonExplorersofSkyInTheMorningSun_mvl/mxv
 .byte   W04
 .byte   VOL , 23*PokemonMysteryDungeonExplorersofSkyInTheMorningSun_mvl/mxv
 .byte   N92 ,An2
 .byte   W04
 .byte   VOL , 23*PokemonMysteryDungeonExplorersofSkyInTheMorningSun_mvl/mxv
 .byte   W04
 .byte   VOL , 24*PokemonMysteryDungeonExplorersofSkyInTheMorningSun_mvl/mxv
 .byte   W04
 .byte   VOL , 23*PokemonMysteryDungeonExplorersofSkyInTheMorningSun_mvl/mxv
 .byte   W08
 .byte   VOL , 23*PokemonMysteryDungeonExplorersofSkyInTheMorningSun_mvl/mxv
 .byte   W04
 .byte   VOL , 23*PokemonMysteryDungeonExplorersofSkyInTheMorningSun_mvl/mxv
 .byte   W04
 .byte   VOL , 22*PokemonMysteryDungeonExplorersofSkyInTheMorningSun_mvl/mxv
 .byte   W04
 .byte   VOL , 22*PokemonMysteryDungeonExplorersofSkyInTheMorningSun_mvl/mxv
 .byte   W04
 .byte   VOL , 22*PokemonMysteryDungeonExplorersofSkyInTheMorningSun_mvl/mxv
 .byte   W04
 .byte   VOL , 22*PokemonMysteryDungeonExplorersofSkyInTheMorningSun_mvl/mxv
 .byte   W04
 .byte   VOL , 21*PokemonMysteryDungeonExplorersofSkyInTheMorningSun_mvl/mxv
 .byte   W04
 .byte   VOL , 21*PokemonMysteryDungeonExplorersofSkyInTheMorningSun_mvl/mxv
 .byte   W04
 .byte   VOL , 20*PokemonMysteryDungeonExplorersofSkyInTheMorningSun_mvl/mxv
 .byte   W04
 .byte   VOL , 20*PokemonMysteryDungeonExplorersofSkyInTheMorningSun_mvl/mxv
 .byte   W04
 .byte   VOL , 20*PokemonMysteryDungeonExplorersofSkyInTheMorningSun_mvl/mxv
 .byte   W08
 .byte   VOL , 19*PokemonMysteryDungeonExplorersofSkyInTheMorningSun_mvl/mxv
 .byte   W04
@  #03 @056   ----------------------------------------
 .byte   W04
 .byte   VOL , 19*PokemonMysteryDungeonExplorersofSkyInTheMorningSun_mvl/mxv
 .byte   W08
 .byte   VOL , 18*PokemonMysteryDungeonExplorersofSkyInTheMorningSun_mvl/mxv
 .byte   W04
 .byte   VOL , 18*PokemonMysteryDungeonExplorersofSkyInTheMorningSun_mvl/mxv
 .byte   W04
 .byte   VOL , 18*PokemonMysteryDungeonExplorersofSkyInTheMorningSun_mvl/mxv
 .byte   W04
 .byte   VOL , 18*PokemonMysteryDungeonExplorersofSkyInTheMorningSun_mvl/mxv
 .byte   N44 ,Fs2
 .byte   W04
 .byte   VOL , 17*PokemonMysteryDungeonExplorersofSkyInTheMorningSun_mvl/mxv
 .byte   W04
 .byte   VOL , 18*PokemonMysteryDungeonExplorersofSkyInTheMorningSun_mvl/mxv
 .byte   W04
 .byte   VOL , 18*PokemonMysteryDungeonExplorersofSkyInTheMorningSun_mvl/mxv
 .byte   W04
 .byte   VOL , 18*PokemonMysteryDungeonExplorersofSkyInTheMorningSun_mvl/mxv
 .byte   W04
 .byte   VOL , 18*PokemonMysteryDungeonExplorersofSkyInTheMorningSun_mvl/mxv
 .byte   W04
 .byte   VOL , 18*PokemonMysteryDungeonExplorersofSkyInTheMorningSun_mvl/mxv
 .byte   W04
 .byte   VOL , 19*PokemonMysteryDungeonExplorersofSkyInTheMorningSun_mvl/mxv
 .byte   W04
 .byte   VOL , 19*PokemonMysteryDungeonExplorersofSkyInTheMorningSun_mvl/mxv
 .byte   W04
 .byte   VOL , 19*PokemonMysteryDungeonExplorersofSkyInTheMorningSun_mvl/mxv
 .byte   W04
 .byte   VOL , 19*PokemonMysteryDungeonExplorersofSkyInTheMorningSun_mvl/mxv
 .byte   W04
 .byte   VOL , 20*PokemonMysteryDungeonExplorersofSkyInTheMorningSun_mvl/mxv
 .byte   W04
 .byte   VOL , 20*PokemonMysteryDungeonExplorersofSkyInTheMorningSun_mvl/mxv
 .byte   N44 ,An2
 .byte   W04
 .byte   VOL , 20*PokemonMysteryDungeonExplorersofSkyInTheMorningSun_mvl/mxv
 .byte   W04
 .byte   VOL , 21*PokemonMysteryDungeonExplorersofSkyInTheMorningSun_mvl/mxv
 .byte   W04
 .byte   VOL , 21*PokemonMysteryDungeonExplorersofSkyInTheMorningSun_mvl/mxv
 .byte   W04
 .byte   VOL , 22*PokemonMysteryDungeonExplorersofSkyInTheMorningSun_mvl/mxv
 .byte   W04
 .byte   VOL , 22*PokemonMysteryDungeonExplorersofSkyInTheMorningSun_mvl/mxv
 .byte   W04
@  #03 @057   ----------------------------------------
 .byte   VOL , 22*PokemonMysteryDungeonExplorersofSkyInTheMorningSun_mvl/mxv
 .byte   W04
 .byte   VOL , 22*PokemonMysteryDungeonExplorersofSkyInTheMorningSun_mvl/mxv
 .byte   W04
 .byte   VOL , 23*PokemonMysteryDungeonExplorersofSkyInTheMorningSun_mvl/mxv
 .byte   W04
 .byte   VOL , 23*PokemonMysteryDungeonExplorersofSkyInTheMorningSun_mvl/mxv
 .byte   W08
 .byte   VOL , 24*PokemonMysteryDungeonExplorersofSkyInTheMorningSun_mvl/mxv
 .byte   W04
 .byte   N44
 .byte   W08
 .byte   VOL , 23*PokemonMysteryDungeonExplorersofSkyInTheMorningSun_mvl/mxv
 .byte   W04
 .byte   VOL , 23*PokemonMysteryDungeonExplorersofSkyInTheMorningSun_mvl/mxv
 .byte   W04
 .byte   VOL , 23*PokemonMysteryDungeonExplorersofSkyInTheMorningSun_mvl/mxv
 .byte   W04
 .byte   VOL , 22*PokemonMysteryDungeonExplorersofSkyInTheMorningSun_mvl/mxv
 .byte   W04
 .byte   VOL , 22*PokemonMysteryDungeonExplorersofSkyInTheMorningSun_mvl/mxv
 .byte   W04
 .byte   VOL , 22*PokemonMysteryDungeonExplorersofSkyInTheMorningSun_mvl/mxv
 .byte   W04
 .byte   VOL , 22*PokemonMysteryDungeonExplorersofSkyInTheMorningSun_mvl/mxv
 .byte   W08
 .byte   VOL , 21*PokemonMysteryDungeonExplorersofSkyInTheMorningSun_mvl/mxv
 .byte   W04
 .byte   VOL , 21*PokemonMysteryDungeonExplorersofSkyInTheMorningSun_mvl/mxv
 .byte   W04
 .byte   VOL , 20*PokemonMysteryDungeonExplorersofSkyInTheMorningSun_mvl/mxv
 .byte   N44 ,Fs2
 .byte   W04
 .byte   VOL , 20*PokemonMysteryDungeonExplorersofSkyInTheMorningSun_mvl/mxv
 .byte   W04
 .byte   VOL , 20*PokemonMysteryDungeonExplorersofSkyInTheMorningSun_mvl/mxv
 .byte   W08
 .byte   VOL , 19*PokemonMysteryDungeonExplorersofSkyInTheMorningSun_mvl/mxv
 .byte   W04
 .byte   VOL , 19*PokemonMysteryDungeonExplorersofSkyInTheMorningSun_mvl/mxv
 .byte   W04
@  #03 @058   ----------------------------------------
 .byte   VOL , 19*PokemonMysteryDungeonExplorersofSkyInTheMorningSun_mvl/mxv
 .byte   W04
 .byte   VOL , 19*PokemonMysteryDungeonExplorersofSkyInTheMorningSun_mvl/mxv
 .byte   W04
 .byte   VOL , 18*PokemonMysteryDungeonExplorersofSkyInTheMorningSun_mvl/mxv
 .byte   W08
 .byte   VOL , 18*PokemonMysteryDungeonExplorersofSkyInTheMorningSun_mvl/mxv
 .byte   W08
 .byte   VOL , 18*PokemonMysteryDungeonExplorersofSkyInTheMorningSun_mvl/mxv
 .byte   N92 ,Gn2
 .byte   W04
 .byte   VOL , 18*PokemonMysteryDungeonExplorersofSkyInTheMorningSun_mvl/mxv
 .byte   W04
 .byte   VOL , 17*PokemonMysteryDungeonExplorersofSkyInTheMorningSun_mvl/mxv
 .byte   W04
 .byte   VOL , 17*PokemonMysteryDungeonExplorersofSkyInTheMorningSun_mvl/mxv
 .byte   W04
 .byte   VOL , 18*PokemonMysteryDungeonExplorersofSkyInTheMorningSun_mvl/mxv
 .byte   W04
 .byte   VOL , 18*PokemonMysteryDungeonExplorersofSkyInTheMorningSun_mvl/mxv
 .byte   W04
 .byte   VOL , 18*PokemonMysteryDungeonExplorersofSkyInTheMorningSun_mvl/mxv
 .byte   W04
 .byte   VOL , 18*PokemonMysteryDungeonExplorersofSkyInTheMorningSun_mvl/mxv
 .byte   W04
 .byte   VOL , 19*PokemonMysteryDungeonExplorersofSkyInTheMorningSun_mvl/mxv
 .byte   W04
 .byte   VOL , 19*PokemonMysteryDungeonExplorersofSkyInTheMorningSun_mvl/mxv
 .byte   W04
 .byte   VOL , 19*PokemonMysteryDungeonExplorersofSkyInTheMorningSun_mvl/mxv
 .byte   W04
 .byte   VOL , 20*PokemonMysteryDungeonExplorersofSkyInTheMorningSun_mvl/mxv
 .byte   W04
 .byte   VOL , 20*PokemonMysteryDungeonExplorersofSkyInTheMorningSun_mvl/mxv
 .byte   W04
 .byte   VOL , 20*PokemonMysteryDungeonExplorersofSkyInTheMorningSun_mvl/mxv
 .byte   W04
 .byte   VOL , 21*PokemonMysteryDungeonExplorersofSkyInTheMorningSun_mvl/mxv
 .byte   W04
 .byte   VOL , 21*PokemonMysteryDungeonExplorersofSkyInTheMorningSun_mvl/mxv
 .byte   W04
 .byte   VOL , 22*PokemonMysteryDungeonExplorersofSkyInTheMorningSun_mvl/mxv
 .byte   W04
 .byte   VOL , 22*PokemonMysteryDungeonExplorersofSkyInTheMorningSun_mvl/mxv
 .byte   W04
@  #03 @059   ----------------------------------------
 .byte   VOL , 22*PokemonMysteryDungeonExplorersofSkyInTheMorningSun_mvl/mxv
 .byte   W04
 .byte   VOL , 23*PokemonMysteryDungeonExplorersofSkyInTheMorningSun_mvl/mxv
 .byte   W04
 .byte   VOL , 23*PokemonMysteryDungeonExplorersofSkyInTheMorningSun_mvl/mxv
 .byte   W04
 .byte   VOL , 23*PokemonMysteryDungeonExplorersofSkyInTheMorningSun_mvl/mxv
 .byte   W04
 .byte   VOL , 24*PokemonMysteryDungeonExplorersofSkyInTheMorningSun_mvl/mxv
 .byte   W04
 .byte   VOL , 23*PokemonMysteryDungeonExplorersofSkyInTheMorningSun_mvl/mxv
 .byte   W04
 .byte   N92 ,An2
 .byte   W04
 .byte   VOL , 23*PokemonMysteryDungeonExplorersofSkyInTheMorningSun_mvl/mxv
 .byte   W04
 .byte   VOL , 22*PokemonMysteryDungeonExplorersofSkyInTheMorningSun_mvl/mxv
 .byte   W04
 .byte   VOL , 22*PokemonMysteryDungeonExplorersofSkyInTheMorningSun_mvl/mxv
 .byte   W04
 .byte   VOL , 22*PokemonMysteryDungeonExplorersofSkyInTheMorningSun_mvl/mxv
 .byte   W04
 .byte   VOL , 22*PokemonMysteryDungeonExplorersofSkyInTheMorningSun_mvl/mxv
 .byte   W04
 .byte   VOL , 21*PokemonMysteryDungeonExplorersofSkyInTheMorningSun_mvl/mxv
 .byte   W04
 .byte   VOL , 21*PokemonMysteryDungeonExplorersofSkyInTheMorningSun_mvl/mxv
 .byte   W04
 .byte   VOL , 20*PokemonMysteryDungeonExplorersofSkyInTheMorningSun_mvl/mxv
 .byte   W04
 .byte   VOL , 20*PokemonMysteryDungeonExplorersofSkyInTheMorningSun_mvl/mxv
 .byte   W04
 .byte   VOL , 20*PokemonMysteryDungeonExplorersofSkyInTheMorningSun_mvl/mxv
 .byte   W04
 .byte   VOL , 19*PokemonMysteryDungeonExplorersofSkyInTheMorningSun_mvl/mxv
 .byte   W04
 .byte   VOL , 19*PokemonMysteryDungeonExplorersofSkyInTheMorningSun_mvl/mxv
 .byte   W04
 .byte   VOL , 19*PokemonMysteryDungeonExplorersofSkyInTheMorningSun_mvl/mxv
 .byte   W04
 .byte   VOL , 19*PokemonMysteryDungeonExplorersofSkyInTheMorningSun_mvl/mxv
 .byte   W04
 .byte   VOL , 18*PokemonMysteryDungeonExplorersofSkyInTheMorningSun_mvl/mxv
 .byte   W04
 .byte   VOL , 18*PokemonMysteryDungeonExplorersofSkyInTheMorningSun_mvl/mxv
 .byte   W08
@  #03 @060   ----------------------------------------
 .byte   VOL , 18*PokemonMysteryDungeonExplorersofSkyInTheMorningSun_mvl/mxv
 .byte   W04
 .byte   VOL , 17*PokemonMysteryDungeonExplorersofSkyInTheMorningSun_mvl/mxv
 .byte   W04
 .byte   VOL , 17*PokemonMysteryDungeonExplorersofSkyInTheMorningSun_mvl/mxv
 .byte   W04
 .byte   VOL , 17*PokemonMysteryDungeonExplorersofSkyInTheMorningSun_mvl/mxv
 .byte   W08
 .byte   VOL , 17*PokemonMysteryDungeonExplorersofSkyInTheMorningSun_mvl/mxv
 .byte   W04
 .byte   N44 ,Fs2
 .byte   W04
 .byte   VOL , 18*PokemonMysteryDungeonExplorersofSkyInTheMorningSun_mvl/mxv
 .byte   W08
 .byte   VOL , 18*PokemonMysteryDungeonExplorersofSkyInTheMorningSun_mvl/mxv
 .byte   W08
 .byte   VOL , 18*PokemonMysteryDungeonExplorersofSkyInTheMorningSun_mvl/mxv
 .byte   W04
 .byte   VOL , 19*PokemonMysteryDungeonExplorersofSkyInTheMorningSun_mvl/mxv
 .byte   W08
 .byte   VOL , 19*PokemonMysteryDungeonExplorersofSkyInTheMorningSun_mvl/mxv
 .byte   W08
 .byte   VOL , 20*PokemonMysteryDungeonExplorersofSkyInTheMorningSun_mvl/mxv
 .byte   W08
 .byte   VOL , 20*PokemonMysteryDungeonExplorersofSkyInTheMorningSun_mvl/mxv
 .byte   N44 ,An2
 .byte   W08
 .byte   VOL , 21*PokemonMysteryDungeonExplorersofSkyInTheMorningSun_mvl/mxv
 .byte   W04
 .byte   VOL , 22*PokemonMysteryDungeonExplorersofSkyInTheMorningSun_mvl/mxv
 .byte   W08
 .byte   VOL , 22*PokemonMysteryDungeonExplorersofSkyInTheMorningSun_mvl/mxv
 .byte   W04
@  #03 @061   ----------------------------------------
 .byte   W04
 .byte   VOL , 23*PokemonMysteryDungeonExplorersofSkyInTheMorningSun_mvl/mxv
 .byte   W08
 .byte   VOL , 23*PokemonMysteryDungeonExplorersofSkyInTheMorningSun_mvl/mxv
 .byte   W08
 .byte   VOL , 24*PokemonMysteryDungeonExplorersofSkyInTheMorningSun_mvl/mxv
 .byte   W04
 .byte   VOL , 23*PokemonMysteryDungeonExplorersofSkyInTheMorningSun_mvl/mxv
 .byte   N44
 .byte   W04
 .byte   VOL , 23*PokemonMysteryDungeonExplorersofSkyInTheMorningSun_mvl/mxv
 .byte   W04
 .byte   VOL , 23*PokemonMysteryDungeonExplorersofSkyInTheMorningSun_mvl/mxv
 .byte   W08
 .byte   VOL , 22*PokemonMysteryDungeonExplorersofSkyInTheMorningSun_mvl/mxv
 .byte   W04
 .byte   VOL , 22*PokemonMysteryDungeonExplorersofSkyInTheMorningSun_mvl/mxv
 .byte   W04
 .byte   VOL , 22*PokemonMysteryDungeonExplorersofSkyInTheMorningSun_mvl/mxv
 .byte   W04
 .byte   VOL , 22*PokemonMysteryDungeonExplorersofSkyInTheMorningSun_mvl/mxv
 .byte   W08
 .byte   VOL , 21*PokemonMysteryDungeonExplorersofSkyInTheMorningSun_mvl/mxv
 .byte   W04
 .byte   VOL , 21*PokemonMysteryDungeonExplorersofSkyInTheMorningSun_mvl/mxv
 .byte   W04
 .byte   VOL , 20*PokemonMysteryDungeonExplorersofSkyInTheMorningSun_mvl/mxv
 .byte   W04
 .byte   N44 ,Fs2
 .byte   W04
 .byte   VOL , 20*PokemonMysteryDungeonExplorersofSkyInTheMorningSun_mvl/mxv
 .byte   W04
 .byte   VOL , 20*PokemonMysteryDungeonExplorersofSkyInTheMorningSun_mvl/mxv
 .byte   W04
 .byte   VOL , 19*PokemonMysteryDungeonExplorersofSkyInTheMorningSun_mvl/mxv
 .byte   W04
 .byte   VOL , 19*PokemonMysteryDungeonExplorersofSkyInTheMorningSun_mvl/mxv
 .byte   W08
@  #03 @062   ----------------------------------------
 .byte   VOL , 19*PokemonMysteryDungeonExplorersofSkyInTheMorningSun_mvl/mxv
 .byte   W04
 .byte   VOL , 19*PokemonMysteryDungeonExplorersofSkyInTheMorningSun_mvl/mxv
 .byte   W04
 .byte   VOL , 18*PokemonMysteryDungeonExplorersofSkyInTheMorningSun_mvl/mxv
 .byte   W08
 .byte   VOL , 18*PokemonMysteryDungeonExplorersofSkyInTheMorningSun_mvl/mxv
 .byte   W04
 .byte   VOL , 18*PokemonMysteryDungeonExplorersofSkyInTheMorningSun_mvl/mxv
 .byte   W04
 .byte   VOL , 18*PokemonMysteryDungeonExplorersofSkyInTheMorningSun_mvl/mxv
 .byte   N92 ,Gn2
 .byte   W04
 .byte   VOL , 18*PokemonMysteryDungeonExplorersofSkyInTheMorningSun_mvl/mxv
 .byte   W04
 .byte   VOL , 18*PokemonMysteryDungeonExplorersofSkyInTheMorningSun_mvl/mxv
 .byte   W08
 .byte   VOL , 19*PokemonMysteryDungeonExplorersofSkyInTheMorningSun_mvl/mxv
 .byte   W04
 .byte   VOL , 19*PokemonMysteryDungeonExplorersofSkyInTheMorningSun_mvl/mxv
 .byte   W04
 .byte   VOL , 19*PokemonMysteryDungeonExplorersofSkyInTheMorningSun_mvl/mxv
 .byte   W08
 .byte   VOL , 20*PokemonMysteryDungeonExplorersofSkyInTheMorningSun_mvl/mxv
 .byte   W08
 .byte   VOL , 20*PokemonMysteryDungeonExplorersofSkyInTheMorningSun_mvl/mxv
 .byte   W04
 .byte   VOL , 20*PokemonMysteryDungeonExplorersofSkyInTheMorningSun_mvl/mxv
 .byte   W04
 .byte   VOL , 21*PokemonMysteryDungeonExplorersofSkyInTheMorningSun_mvl/mxv
 .byte   W04
 .byte   VOL , 21*PokemonMysteryDungeonExplorersofSkyInTheMorningSun_mvl/mxv
 .byte   W08
 .byte   VOL , 22*PokemonMysteryDungeonExplorersofSkyInTheMorningSun_mvl/mxv
 .byte   W04
 .byte   VOL , 22*PokemonMysteryDungeonExplorersofSkyInTheMorningSun_mvl/mxv
 .byte   W04
 .byte   VOL , 22*PokemonMysteryDungeonExplorersofSkyInTheMorningSun_mvl/mxv
 .byte   W04
@  #03 @063   ----------------------------------------
 .byte   VOL , 22*PokemonMysteryDungeonExplorersofSkyInTheMorningSun_mvl/mxv
 .byte   W04
 .byte   VOL , 23*PokemonMysteryDungeonExplorersofSkyInTheMorningSun_mvl/mxv
 .byte   W08
 .byte   VOL , 23*PokemonMysteryDungeonExplorersofSkyInTheMorningSun_mvl/mxv
 .byte   W04
 .byte   VOL , 23*PokemonMysteryDungeonExplorersofSkyInTheMorningSun_mvl/mxv
 .byte   W04
 .byte   VOL , 23*PokemonMysteryDungeonExplorersofSkyInTheMorningSun_mvl/mxv
 .byte   W04
 .byte   VOL , 24*PokemonMysteryDungeonExplorersofSkyInTheMorningSun_mvl/mxv
 .byte   N92 ,An2
 .byte   W04
 .byte   VOL , 24*PokemonMysteryDungeonExplorersofSkyInTheMorningSun_mvl/mxv
 .byte   W04
 .byte   VOL , 23*PokemonMysteryDungeonExplorersofSkyInTheMorningSun_mvl/mxv
 .byte   W04
 .byte   VOL , 23*PokemonMysteryDungeonExplorersofSkyInTheMorningSun_mvl/mxv
 .byte   W04
 .byte   VOL , 23*PokemonMysteryDungeonExplorersofSkyInTheMorningSun_mvl/mxv
 .byte   W04
 .byte   VOL , 23*PokemonMysteryDungeonExplorersofSkyInTheMorningSun_mvl/mxv
 .byte   W04
 .byte   VOL , 22*PokemonMysteryDungeonExplorersofSkyInTheMorningSun_mvl/mxv
 .byte   W04
 .byte   VOL , 22*PokemonMysteryDungeonExplorersofSkyInTheMorningSun_mvl/mxv
 .byte   W04
 .byte   VOL , 22*PokemonMysteryDungeonExplorersofSkyInTheMorningSun_mvl/mxv
 .byte   W04
 .byte   VOL , 22*PokemonMysteryDungeonExplorersofSkyInTheMorningSun_mvl/mxv
 .byte   W04
 .byte   VOL , 21*PokemonMysteryDungeonExplorersofSkyInTheMorningSun_mvl/mxv
 .byte   W04
 .byte   VOL , 21*PokemonMysteryDungeonExplorersofSkyInTheMorningSun_mvl/mxv
 .byte   W04
 .byte   VOL , 20*PokemonMysteryDungeonExplorersofSkyInTheMorningSun_mvl/mxv
 .byte   W04
 .byte   VOL , 20*PokemonMysteryDungeonExplorersofSkyInTheMorningSun_mvl/mxv
 .byte   W04
 .byte   VOL , 20*PokemonMysteryDungeonExplorersofSkyInTheMorningSun_mvl/mxv
 .byte   W08
 .byte   VOL , 19*PokemonMysteryDungeonExplorersofSkyInTheMorningSun_mvl/mxv
 .byte   W08
@  #03 @064   ----------------------------------------
 .byte   VOL , 19*PokemonMysteryDungeonExplorersofSkyInTheMorningSun_mvl/mxv
 .byte   W08
 .byte   VOL , 18*PokemonMysteryDungeonExplorersofSkyInTheMorningSun_mvl/mxv
 .byte   W04
 .byte   VOL , 18*PokemonMysteryDungeonExplorersofSkyInTheMorningSun_mvl/mxv
 .byte   W04
 .byte   VOL , 18*PokemonMysteryDungeonExplorersofSkyInTheMorningSun_mvl/mxv
 .byte   W04
 .byte   VOL , 18*PokemonMysteryDungeonExplorersofSkyInTheMorningSun_mvl/mxv
 .byte   W04
 .byte   VOL , 17*PokemonMysteryDungeonExplorersofSkyInTheMorningSun_mvl/mxv
 .byte   N44 ,Fs2
 .byte   W04
 .byte   VOL , 18*PokemonMysteryDungeonExplorersofSkyInTheMorningSun_mvl/mxv
 .byte   W04
 .byte   VOL , 18*PokemonMysteryDungeonExplorersofSkyInTheMorningSun_mvl/mxv
 .byte   W04
 .byte   VOL , 18*PokemonMysteryDungeonExplorersofSkyInTheMorningSun_mvl/mxv
 .byte   W04
 .byte   VOL , 18*PokemonMysteryDungeonExplorersofSkyInTheMorningSun_mvl/mxv
 .byte   W04
 .byte   VOL , 18*PokemonMysteryDungeonExplorersofSkyInTheMorningSun_mvl/mxv
 .byte   W04
 .byte   VOL , 19*PokemonMysteryDungeonExplorersofSkyInTheMorningSun_mvl/mxv
 .byte   W08
 .byte   VOL , 19*PokemonMysteryDungeonExplorersofSkyInTheMorningSun_mvl/mxv
 .byte   W08
 .byte   VOL , 20*PokemonMysteryDungeonExplorersofSkyInTheMorningSun_mvl/mxv
 .byte   W08
 .byte   VOL , 20*PokemonMysteryDungeonExplorersofSkyInTheMorningSun_mvl/mxv
 .byte   N44 ,An2
 .byte   W04
 .byte   VOL , 20*PokemonMysteryDungeonExplorersofSkyInTheMorningSun_mvl/mxv
 .byte   W04
 .byte   VOL , 21*PokemonMysteryDungeonExplorersofSkyInTheMorningSun_mvl/mxv
 .byte   W04
 .byte   VOL , 21*PokemonMysteryDungeonExplorersofSkyInTheMorningSun_mvl/mxv
 .byte   W04
 .byte   VOL , 22*PokemonMysteryDungeonExplorersofSkyInTheMorningSun_mvl/mxv
 .byte   W04
 .byte   VOL , 22*PokemonMysteryDungeonExplorersofSkyInTheMorningSun_mvl/mxv
 .byte   W04
@  #03 @065   ----------------------------------------
 .byte   VOL , 22*PokemonMysteryDungeonExplorersofSkyInTheMorningSun_mvl/mxv
 .byte   W04
 .byte   VOL , 22*PokemonMysteryDungeonExplorersofSkyInTheMorningSun_mvl/mxv
 .byte   W04
 .byte   VOL , 23*PokemonMysteryDungeonExplorersofSkyInTheMorningSun_mvl/mxv
 .byte   W04
 .byte   VOL , 23*PokemonMysteryDungeonExplorersofSkyInTheMorningSun_mvl/mxv
 .byte   W04
 .byte   VOL , 23*PokemonMysteryDungeonExplorersofSkyInTheMorningSun_mvl/mxv
 .byte   W04
 .byte   VOL , 23*PokemonMysteryDungeonExplorersofSkyInTheMorningSun_mvl/mxv
 .byte   W04
 .byte   VOL , 24*PokemonMysteryDungeonExplorersofSkyInTheMorningSun_mvl/mxv
 .byte   N44
 .byte   W04
 .byte   VOL , 23*PokemonMysteryDungeonExplorersofSkyInTheMorningSun_mvl/mxv
 .byte   W04
 .byte   VOL , 23*PokemonMysteryDungeonExplorersofSkyInTheMorningSun_mvl/mxv
 .byte   W08
 .byte   VOL , 22*PokemonMysteryDungeonExplorersofSkyInTheMorningSun_mvl/mxv
 .byte   W04
 .byte   VOL , 22*PokemonMysteryDungeonExplorersofSkyInTheMorningSun_mvl/mxv
 .byte   W04
 .byte   VOL , 22*PokemonMysteryDungeonExplorersofSkyInTheMorningSun_mvl/mxv
 .byte   W04
 .byte   VOL , 22*PokemonMysteryDungeonExplorersofSkyInTheMorningSun_mvl/mxv
 .byte   W08
 .byte   VOL , 21*PokemonMysteryDungeonExplorersofSkyInTheMorningSun_mvl/mxv
 .byte   W04
 .byte   VOL , 21*PokemonMysteryDungeonExplorersofSkyInTheMorningSun_mvl/mxv
 .byte   W04
 .byte   VOL , 20*PokemonMysteryDungeonExplorersofSkyInTheMorningSun_mvl/mxv
 .byte   W04
 .byte   VOL , 20*PokemonMysteryDungeonExplorersofSkyInTheMorningSun_mvl/mxv
 .byte   N44 ,Fs2
 .byte   W04
 .byte   VOL , 20*PokemonMysteryDungeonExplorersofSkyInTheMorningSun_mvl/mxv
 .byte   W08
 .byte   VOL , 19*PokemonMysteryDungeonExplorersofSkyInTheMorningSun_mvl/mxv
 .byte   W04
 .byte   VOL , 19*PokemonMysteryDungeonExplorersofSkyInTheMorningSun_mvl/mxv
 .byte   W04
 .byte   VOL , 19*PokemonMysteryDungeonExplorersofSkyInTheMorningSun_mvl/mxv
 .byte   W04
@  #03 @066   ----------------------------------------
 .byte   VOL , 19*PokemonMysteryDungeonExplorersofSkyInTheMorningSun_mvl/mxv
 .byte   W04
 .byte   VOL , 18*PokemonMysteryDungeonExplorersofSkyInTheMorningSun_mvl/mxv
 .byte   W08
 .byte   VOL , 18*PokemonMysteryDungeonExplorersofSkyInTheMorningSun_mvl/mxv
 .byte   W04
 .byte   VOL , 18*PokemonMysteryDungeonExplorersofSkyInTheMorningSun_mvl/mxv
 .byte   W04
 .byte   VOL , 18*PokemonMysteryDungeonExplorersofSkyInTheMorningSun_mvl/mxv
 .byte   W04
 .byte   VOL , 18*PokemonMysteryDungeonExplorersofSkyInTheMorningSun_mvl/mxv
 .byte   N92 ,Gn2
 .byte   W04
 .byte   VOL , 18*PokemonMysteryDungeonExplorersofSkyInTheMorningSun_mvl/mxv
 .byte   W04
 .byte   VOL , 18*PokemonMysteryDungeonExplorersofSkyInTheMorningSun_mvl/mxv
 .byte   W04
 .byte   VOL , 18*PokemonMysteryDungeonExplorersofSkyInTheMorningSun_mvl/mxv
 .byte   W08
 .byte   VOL , 19*PokemonMysteryDungeonExplorersofSkyInTheMorningSun_mvl/mxv
 .byte   W04
 .byte   VOL , 19*PokemonMysteryDungeonExplorersofSkyInTheMorningSun_mvl/mxv
 .byte   W04
 .byte   VOL , 19*PokemonMysteryDungeonExplorersofSkyInTheMorningSun_mvl/mxv
 .byte   W04
 .byte   VOL , 19*PokemonMysteryDungeonExplorersofSkyInTheMorningSun_mvl/mxv
 .byte   W04
 .byte   VOL , 20*PokemonMysteryDungeonExplorersofSkyInTheMorningSun_mvl/mxv
 .byte   W08
 .byte   VOL , 20*PokemonMysteryDungeonExplorersofSkyInTheMorningSun_mvl/mxv
 .byte   W04
 .byte   VOL , 20*PokemonMysteryDungeonExplorersofSkyInTheMorningSun_mvl/mxv
 .byte   W04
 .byte   VOL , 21*PokemonMysteryDungeonExplorersofSkyInTheMorningSun_mvl/mxv
 .byte   W04
 .byte   VOL , 21*PokemonMysteryDungeonExplorersofSkyInTheMorningSun_mvl/mxv
 .byte   W08
 .byte   VOL , 22*PokemonMysteryDungeonExplorersofSkyInTheMorningSun_mvl/mxv
 .byte   W04
 .byte   VOL , 22*PokemonMysteryDungeonExplorersofSkyInTheMorningSun_mvl/mxv
 .byte   W04
@  #03 @067   ----------------------------------------
 .byte   VOL , 22*PokemonMysteryDungeonExplorersofSkyInTheMorningSun_mvl/mxv
 .byte   W04
 .byte   VOL , 22*PokemonMysteryDungeonExplorersofSkyInTheMorningSun_mvl/mxv
 .byte   W04
 .byte   VOL , 23*PokemonMysteryDungeonExplorersofSkyInTheMorningSun_mvl/mxv
 .byte   W08
 .byte   VOL , 23*PokemonMysteryDungeonExplorersofSkyInTheMorningSun_mvl/mxv
 .byte   W04
 .byte   VOL , 23*PokemonMysteryDungeonExplorersofSkyInTheMorningSun_mvl/mxv
 .byte   W04
 .byte   VOL , 23*PokemonMysteryDungeonExplorersofSkyInTheMorningSun_mvl/mxv
 .byte   N92 ,Gs2
 .byte   W04
 .byte   VOL , 24*PokemonMysteryDungeonExplorersofSkyInTheMorningSun_mvl/mxv
 .byte   W68
@  #03 @068   ----------------------------------------
 .byte   W08
 .byte   VOL , 23*PokemonMysteryDungeonExplorersofSkyInTheMorningSun_mvl/mxv
 .byte   W04
 .byte   VOL , 23*PokemonMysteryDungeonExplorersofSkyInTheMorningSun_mvl/mxv
 .byte   W04
 .byte   VOL , 22*PokemonMysteryDungeonExplorersofSkyInTheMorningSun_mvl/mxv
 .byte   W04
 .byte   VOL , 22*PokemonMysteryDungeonExplorersofSkyInTheMorningSun_mvl/mxv
 .byte   W04
 .byte   VOL , 22*PokemonMysteryDungeonExplorersofSkyInTheMorningSun_mvl/mxv
 .byte   N92 ,An2
 .byte   W04
 .byte   VOL , 21*PokemonMysteryDungeonExplorersofSkyInTheMorningSun_mvl/mxv
 .byte   W04
 .byte   VOL , 20*PokemonMysteryDungeonExplorersofSkyInTheMorningSun_mvl/mxv
 .byte   W04
 .byte   VOL , 20*PokemonMysteryDungeonExplorersofSkyInTheMorningSun_mvl/mxv
 .byte   W04
 .byte   VOL , 19*PokemonMysteryDungeonExplorersofSkyInTheMorningSun_mvl/mxv
 .byte   W04
 .byte   VOL , 19*PokemonMysteryDungeonExplorersofSkyInTheMorningSun_mvl/mxv
 .byte   W04
 .byte   VOL , 19*PokemonMysteryDungeonExplorersofSkyInTheMorningSun_mvl/mxv
 .byte   W04
 .byte   VOL , 18*PokemonMysteryDungeonExplorersofSkyInTheMorningSun_mvl/mxv
 .byte   W04
 .byte   VOL , 18*PokemonMysteryDungeonExplorersofSkyInTheMorningSun_mvl/mxv
 .byte   W04
 .byte   VOL , 18*PokemonMysteryDungeonExplorersofSkyInTheMorningSun_mvl/mxv
 .byte   W04
 .byte   VOL , 18*PokemonMysteryDungeonExplorersofSkyInTheMorningSun_mvl/mxv
 .byte   W04
 .byte   VOL , 17*PokemonMysteryDungeonExplorersofSkyInTheMorningSun_mvl/mxv
 .byte   W04
 .byte   VOL , 17*PokemonMysteryDungeonExplorersofSkyInTheMorningSun_mvl/mxv
 .byte   W04
 .byte   VOL , 16*PokemonMysteryDungeonExplorersofSkyInTheMorningSun_mvl/mxv
 .byte   W04
 .byte   VOL , 16*PokemonMysteryDungeonExplorersofSkyInTheMorningSun_mvl/mxv
 .byte   W04
 .byte   VOL , 15*PokemonMysteryDungeonExplorersofSkyInTheMorningSun_mvl/mxv
 .byte   W04
 .byte   VOL , 15*PokemonMysteryDungeonExplorersofSkyInTheMorningSun_mvl/mxv
 .byte   W04
 .byte   VOL , 14*PokemonMysteryDungeonExplorersofSkyInTheMorningSun_mvl/mxv
 .byte   W04
@  #03 @069   ----------------------------------------
 .byte   VOL , 14*PokemonMysteryDungeonExplorersofSkyInTheMorningSun_mvl/mxv
 .byte   W04
 .byte   VOL , 14*PokemonMysteryDungeonExplorersofSkyInTheMorningSun_mvl/mxv
 .byte   W04
 .byte   VOL , 13*PokemonMysteryDungeonExplorersofSkyInTheMorningSun_mvl/mxv
 .byte   W04
 .byte   VOL , 13*PokemonMysteryDungeonExplorersofSkyInTheMorningSun_mvl/mxv
 .byte   W84
@  #03 @070   ----------------------------------------
 .byte   W96
@  #03 @071   ----------------------------------------
 .byte   W96
@  #03 @072   ----------------------------------------
 .byte   W96
@  #03 @073   ----------------------------------------
 .byte   W96
@  #03 @074   ----------------------------------------
 .byte   W96
@  #03 @075   ----------------------------------------
 .byte   W96
@  #03 @076   ----------------------------------------
 .byte   W96
@  #03 @077   ----------------------------------------
 .byte   W96
@  #03 @078   ----------------------------------------
 .byte   PATT
  .word Label_01686584
@  #03 @079   ----------------------------------------
 .byte   PATT
  .word Label_0168659E
@  #03 @080   ----------------------------------------
 .byte   PATT
  .word Label_016865B9
@  #03 @081   ----------------------------------------
 .byte   PATT
  .word Label_016865D9
@  #03 @082   ----------------------------------------
 .byte   PATT
  .word Label_016865E7
@  #03 @083   ----------------------------------------
 .byte   PATT
  .word Label_01686608
@  #03 @084   ----------------------------------------
 .byte   PATT
  .word Label_01686613
@  #03 @085   ----------------------------------------
 .byte   EOT
 .byte   Gn2
 .byte   W01
 .byte   N92 ,An2 ,v028
 .byte   W02
 .byte   VOL , 18*PokemonMysteryDungeonExplorersofSkyInTheMorningSun_mvl/mxv
 .byte   W06
 .byte   VOL , 18*PokemonMysteryDungeonExplorersofSkyInTheMorningSun_mvl/mxv
 .byte   W05
 .byte   VOL , 20*PokemonMysteryDungeonExplorersofSkyInTheMorningSun_mvl/mxv
 .byte   W04
 .byte   VOL , 22*PokemonMysteryDungeonExplorersofSkyInTheMorningSun_mvl/mxv
 .byte   W06
 .byte   VOL , 23*PokemonMysteryDungeonExplorersofSkyInTheMorningSun_mvl/mxv
 .byte   W06
 .byte   VOL , 24*PokemonMysteryDungeonExplorersofSkyInTheMorningSun_mvl/mxv
 .byte   W42
 .byte   W01
@  #03 @086   ----------------------------------------
 .byte   PATT
  .word Label_01686632
@  #03 @087   ----------------------------------------
 .byte   PATT
  .word Label_0168664F
@  #03 @088   ----------------------------------------
 .byte   PATT
  .word Label_0168666A
@  #03 @089   ----------------------------------------
 .byte   PATT
  .word Label_0168668C
@  #03 @090   ----------------------------------------
 .byte   EOT
 .byte   An2
 .byte   W01
 .byte   GOTO
  .word Label_01686699
 .byte   FINE

@**************** Track 4 (Midi-Chn.3) ****************@

PokemonMysteryDungeonExplorersofSkyInTheMorningSun_004:
@  #04 @000   ----------------------------------------
 .byte   KEYSH , PokemonMysteryDungeonExplorersofSkyInTheMorningSun_key+0
 .byte   VOICE , 46
 .byte   MODT 0
 .byte   LFOS 44
 .byte   VOL , 34*PokemonMysteryDungeonExplorersofSkyInTheMorningSun_mvl/mxv
 .byte   PAN , c_v+0
 .byte   VOL , 34*PokemonMysteryDungeonExplorersofSkyInTheMorningSun_mvl/mxv
 .byte   BEND , c_v+0
 .byte   W24
 .byte   N48 ,Gn2 ,v088
 .byte   W12
 .byte   N06 ,Gn3
 .byte   W12
 .byte   Bn3
 .byte   W12
 .byte   Fs4
 .byte   W36
@  #04 @001   ----------------------------------------
Label_01686C30:
 .byte   W24
 .byte   N48 ,An2 ,v088
 .byte   W12
 .byte   N06 ,An3
 .byte   W12
 .byte   Cs4
 .byte   W12
 .byte   Fs4
 .byte   W36
 .byte   PEND 
@  #04 @002   ----------------------------------------
Label_01686C3D:
 .byte   W24
 .byte   N48 ,Bn2 ,v088
 .byte   W12
 .byte   N06 ,An3
 .byte   W12
 .byte   Dn4
 .byte   W12
 .byte   Fs4
 .byte   W36
 .byte   PEND 
@  #04 @003   ----------------------------------------
 .byte   PATT
  .word Label_01686C30
@  #04 @004   ----------------------------------------
Label_01686C4F:
 .byte   W24
 .byte   N48 ,Gn2 ,v088
 .byte   W12
 .byte   N06 ,Gn3
 .byte   W12
 .byte   Bn3
 .byte   W12
 .byte   Fs4
 .byte   W36
 .byte   PEND 
@  #04 @005   ----------------------------------------
 .byte   PATT
  .word Label_01686C30
@  #04 @006   ----------------------------------------
 .byte   PATT
  .word Label_01686C3D
@  #04 @007   ----------------------------------------
 .byte   PATT
  .word Label_01686C30
@  #04 @008   ----------------------------------------
 .byte   PATT
  .word Label_01686C4F
@  #04 @009   ----------------------------------------
 .byte   PATT
  .word Label_01686C30
@  #04 @010   ----------------------------------------
 .byte   PATT
  .word Label_01686C3D
@  #04 @011   ----------------------------------------
 .byte   W24
 .byte   N48 ,An2 ,v088
 .byte   W12
 .byte   N06 ,An3
 .byte   W12
 .byte   Dn4
 .byte   W12
 .byte   Fs4
 .byte   W36
@  #04 @012   ----------------------------------------
Label_01686C86:
 .byte   W24
 .byte   N48 ,Gn2 ,v088
 .byte   W12
 .byte   N06 ,Gn3
 .byte   W12
 .byte   Bn3
 .byte   W12
 .byte   Dn4
 .byte   W24
 .byte   Bn3
 .byte   W12
 .byte   PEND 
@  #04 @013   ----------------------------------------
 .byte   W12
 .byte   Dn4
 .byte   W24
 .byte   N06
 .byte   W24
 .byte   An4
 .byte   W36
@  #04 @014   ----------------------------------------
Label_01686C9C:
 .byte   W24
 .byte   N48 ,An2 ,v088
 .byte   W12
 .byte   N06 ,Gn3
 .byte   W12
 .byte   An3
 .byte   W12
 .byte   Cs4
 .byte   W24
 .byte   An3
 .byte   W12
 .byte   PEND 
@  #04 @015   ----------------------------------------
Label_01686CAB:
 .byte   W12
 .byte   N06 ,En4 ,v088
 .byte   W24
 .byte   Cs4
 .byte   W24
 .byte   Fs4
 .byte   W24
 .byte   En4
 .byte   W12
 .byte   PEND 
@  #04 @016   ----------------------------------------
Label_01686CB7:
 .byte   W24
 .byte   N06 ,Cs4 ,v088
 .byte   W02
 .byte   En4
 .byte   W03
 .byte   An4
 .byte   W66
 .byte   W01
 .byte   PEND 
@  #04 @017   ----------------------------------------
 .byte   W96
@  #04 @018   ----------------------------------------
 .byte   W24
Label_01686CC4:
 .byte   N48 ,Bn2 ,v088
 .byte   W12
 .byte   N06 ,An3
 .byte   W12
 .byte   Dn4
 .byte   W12
 .byte   Fs4
 .byte   W36
@  #04 @019   ----------------------------------------
 .byte   PATT
  .word Label_01686C30
@  #04 @020   ----------------------------------------
 .byte   PATT
  .word Label_01686C4F
@  #04 @021   ----------------------------------------
Label_01686CD9:
 .byte   W24
 .byte   N48 ,Fs2 ,v088
 .byte   W12
 .byte   N06 ,An3
 .byte   W12
 .byte   Dn4
 .byte   W12
 .byte   An4
 .byte   W36
 .byte   PEND 
@  #04 @022   ----------------------------------------
 .byte   PATT
  .word Label_01686C4F
@  #04 @023   ----------------------------------------
 .byte   PATT
  .word Label_01686C30
@  #04 @024   ----------------------------------------
 .byte   W24
 .byte   N48 ,Bn2 ,v088
 .byte   W12
 .byte   N06 ,Bn3
 .byte   W12
 .byte   Dn4
 .byte   W12
 .byte   Fs4
 .byte   W36
@  #04 @025   ----------------------------------------
 .byte   W24
 .byte   N48 ,An2
 .byte   W12
 .byte   N06 ,An3
 .byte   W12
 .byte   Cs4
 .byte   W12
 .byte   An4
 .byte   W36
@  #04 @026   ----------------------------------------
 .byte   PATT
  .word Label_01686C3D
@  #04 @027   ----------------------------------------
 .byte   PATT
  .word Label_01686C30
@  #04 @028   ----------------------------------------
 .byte   PATT
  .word Label_01686C4F
@  #04 @029   ----------------------------------------
 .byte   PATT
  .word Label_01686CD9
@  #04 @030   ----------------------------------------
 .byte   PATT
  .word Label_01686C4F
@  #04 @031   ----------------------------------------
 .byte   PATT
  .word Label_01686C30
@  #04 @032   ----------------------------------------
 .byte   W24
 .byte   N48 ,Bn2 ,v088
 .byte   W12
 .byte   N06 ,An3
 .byte   W12
 .byte   Dn4
 .byte   W12
 .byte   Fs4
 .byte   W24
 .byte   An3
 .byte   W12
@  #04 @033   ----------------------------------------
 .byte   W12
 .byte   Bn3
 .byte   W84
@  #04 @034   ----------------------------------------
 .byte   W24
 .byte   N48 ,As2
 .byte   W12
 .byte   N06 ,Dn4
 .byte   W12
 .byte   As3
 .byte   W12
 .byte   Fn4
 .byte   W24
 .byte   Dn4
 .byte   W12
@  #04 @035   ----------------------------------------
 .byte   An4
 .byte   W24
 .byte   N48 ,As2
 .byte   W12
 .byte   N06 ,Dn4
 .byte   W12
 .byte   As3
 .byte   W12
 .byte   Fn4
 .byte   W24
 .byte   Dn4
 .byte   W12
@  #04 @036   ----------------------------------------
 .byte   An4
 .byte   W24
 .byte   N48 ,An2
 .byte   W12
 .byte   N06 ,Cn4
 .byte   W12
 .byte   An3
 .byte   W12
 .byte   Fn4
 .byte   W24
 .byte   Cn4
 .byte   W12
@  #04 @037   ----------------------------------------
 .byte   An4
 .byte   W24
 .byte   N48 ,An2
 .byte   W12
 .byte   N06 ,Cn4
 .byte   W12
 .byte   An3
 .byte   W12
 .byte   An4
 .byte   N06 ,Cn5
 .byte   W36
@  #04 @038   ----------------------------------------
 .byte   W24
 .byte   N48 ,Gn2
 .byte   W12
 .byte   N06 ,As3
 .byte   W12
 .byte   Gn3
 .byte   W12
 .byte   Dn4
 .byte   W24
 .byte   As3
 .byte   W12
@  #04 @039   ----------------------------------------
 .byte   Fn4
 .byte   W24
 .byte   N48 ,Cn3
 .byte   W12
 .byte   N06 ,Cn4
 .byte   W12
 .byte   Gn3
 .byte   W12
 .byte   En4
 .byte   W24
 .byte   Cn4
 .byte   W12
@  #04 @040   ----------------------------------------
 .byte   Gn4
 .byte   W24
 .byte   N48 ,Dn3
 .byte   W12
 .byte   N06 ,Dn4
 .byte   W12
 .byte   An3
 .byte   W12
 .byte   En4
 .byte   W24
 .byte   Dn4
 .byte   W12
@  #04 @041   ----------------------------------------
 .byte   An4
 .byte   W24
 .byte   N48 ,Dn3
 .byte   W12
 .byte   N06 ,En4
 .byte   W12
 .byte   Dn4
 .byte   W12
 .byte   An4
 .byte   W36
@  #04 @042   ----------------------------------------
 .byte   W24
 .byte   N96 ,As2
 .byte   W12
 .byte   N06 ,As3
 .byte   W12
 .byte   Dn4
 .byte   W12
 .byte   Gn4
 .byte   W36
@  #04 @043   ----------------------------------------
 .byte   W24
 .byte   N96 ,Cn3
 .byte   W12
 .byte   N06 ,Cn4
 .byte   W12
 .byte   Fn4
 .byte   W12
 .byte   An4
 .byte   W36
@  #04 @044   ----------------------------------------
 .byte   W24
 .byte   N96 ,Dn3
 .byte   W12
 .byte   N06 ,Dn4
 .byte   W12
 .byte   An3
 .byte   W12
 .byte   Gn4
 .byte   W24
 .byte   Dn4
 .byte   W12
@  #04 @045   ----------------------------------------
 .byte   An4
 .byte   W24
 .byte   N96 ,Gn2
 .byte   W12
 .byte   N06 ,Dn4
 .byte   W12
 .byte   Bn3
 .byte   W12
 .byte   Dn4
 .byte   N06 ,Gn4
 .byte   W36
@  #04 @046   ----------------------------------------
 .byte   W24
 .byte   N96 ,Ds2
 .byte   W12
 .byte   N06 ,Gn3
 .byte   W12
 .byte   Ds3
 .byte   W12
 .byte   Cn4
 .byte   W24
 .byte   Gn3
 .byte   W12
@  #04 @047   ----------------------------------------
 .byte   Ds4
 .byte   W24
 .byte   Ds3
 .byte   W12
 .byte   Ds4
 .byte   W12
 .byte   Cn4
 .byte   W12
 .byte   Gn4
 .byte   W24
 .byte   Ds4
 .byte   W12
@  #04 @048   ----------------------------------------
 .byte   As4
 .byte   W24
 .byte   N96 ,Cn2 ,v044
 .byte   W12
 .byte   N06 ,Gn3 ,v088
 .byte   W12
 .byte   Ds3
 .byte   W12
 .byte   Cn4
 .byte   W24
 .byte   Gn3
 .byte   W12
@  #04 @049   ----------------------------------------
 .byte   Ds4
 .byte   W24
 .byte   Cn3
 .byte   W12
 .byte   Cn4
 .byte   W12
 .byte   Gn3
 .byte   W12
 .byte   Ds4
 .byte   W24
 .byte   Cn4
 .byte   W12
@  #04 @050   ----------------------------------------
 .byte   Gn4
 .byte   W24
 .byte   N96 ,Dn2
 .byte   W12
 .byte   N06 ,Gn3
 .byte   W12
 .byte   Dn3
 .byte   W12
 .byte   Cn4
 .byte   W24
 .byte   Gn3
 .byte   W12
@  #04 @051   ----------------------------------------
 .byte   Dn4
 .byte   W24
 .byte   Dn3
 .byte   W12
 .byte   An3
 .byte   W12
 .byte   Gn3
 .byte   W12
 .byte   Dn4
 .byte   W24
 .byte   Cn4
 .byte   W12
@  #04 @052   ----------------------------------------
 .byte   Gn4
 .byte   W24
 .byte   Dn4
 .byte   W12
 .byte   Fs4
 .byte   W12
 .byte   Dn4
 .byte   W12
 .byte   An4
 .byte   W24
 .byte   Fs4
 .byte   W12
@  #04 @053   ----------------------------------------
 .byte   Cn5
 .byte   W24
 .byte   Dn4
 .byte   W01
 .byte   Fs4
 .byte   W02
 .byte   An4
 .byte   W01
 .byte   Dn5
 .byte   W68
@  #04 @054   ----------------------------------------
 .byte   W24
 .byte   N48 ,Gn2
 .byte   W12
 .byte   N06 ,Gn3
 .byte   W12
 .byte   Bn3
 .byte   W12
 .byte   Dn4
 .byte   W36
@  #04 @055   ----------------------------------------
Label_01686E43:
 .byte   W24
 .byte   N48 ,An2 ,v088
 .byte   W12
 .byte   N06 ,An3
 .byte   W12
 .byte   Cs4
 .byte   W12
 .byte   En4
 .byte   W36
 .byte   PEND 
@  #04 @056   ----------------------------------------
 .byte   PATT
  .word Label_01686C3D
@  #04 @057   ----------------------------------------
Label_01686E55:
 .byte   W24
 .byte   N48 ,An2 ,v088
 .byte   W12
 .byte   N06 ,Fs3
 .byte   W12
 .byte   Bn3
 .byte   W12
 .byte   Dn4
 .byte   W36
 .byte   PEND 
@  #04 @058   ----------------------------------------
 .byte   W24
 .byte   N48 ,Gn2
 .byte   W12
 .byte   N06 ,Gn3
 .byte   W12
 .byte   Bn3
 .byte   W12
 .byte   En4
 .byte   W36
@  #04 @059   ----------------------------------------
 .byte   PATT
  .word Label_01686E43
@  #04 @060   ----------------------------------------
 .byte   PATT
  .word Label_01686C3D
@  #04 @061   ----------------------------------------
 .byte   PATT
  .word Label_01686E55
@  #04 @062   ----------------------------------------
 .byte   W24
 .byte   W01
 .byte   N48 ,Gn2 ,v088
 .byte   W12
 .byte   N06 ,Gn3
 .byte   W12
 .byte   Bn3
 .byte   W12
 .byte   Dn4
 .byte   W32
 .byte   W03
@  #04 @063   ----------------------------------------
 .byte   W24
 .byte   W01
 .byte   N48 ,An2
 .byte   W12
 .byte   N06 ,An3
 .byte   W12
 .byte   Cs4
 .byte   W12
 .byte   En4
 .byte   W32
 .byte   W03
@  #04 @064   ----------------------------------------
 .byte   W24
 .byte   W01
 .byte   N48 ,Bn2
 .byte   W12
 .byte   N06 ,An3
 .byte   W12
 .byte   Dn4
 .byte   W12
 .byte   Fs4
 .byte   W32
 .byte   W03
@  #04 @065   ----------------------------------------
 .byte   W24
 .byte   W01
 .byte   N48 ,An2
 .byte   W12
 .byte   N06 ,Fs3
 .byte   W12
 .byte   Bn3
 .byte   W12
 .byte   Fs4
 .byte   W32
 .byte   W03
@  #04 @066   ----------------------------------------
 .byte   PATT
  .word Label_01686C86
@  #04 @067   ----------------------------------------
 .byte   N06 ,Fs4 ,v088
 .byte   W24
 .byte   N48 ,Gs2
 .byte   W12
 .byte   N06 ,Gs3
 .byte   W12
 .byte   Bn3
 .byte   W12
 .byte   Dn4
 .byte   W24
 .byte   Bn3
 .byte   W12
@  #04 @068   ----------------------------------------
 .byte   Fs4
 .byte   W24
 .byte   An3
 .byte   W01
 .byte   Cs4
 .byte   W02
 .byte   En4
 .byte   W68
 .byte   W01
@  #04 @069   ----------------------------------------
 .byte   W24
 .byte   Cs4
 .byte   W01
 .byte   En4
 .byte   W02
 .byte   Gn4
 .byte   W68
 .byte   W01
@  #04 @070   ----------------------------------------
 .byte   PATT
  .word Label_01686C4F
@  #04 @071   ----------------------------------------
 .byte   PATT
  .word Label_01686C30
@  #04 @072   ----------------------------------------
 .byte   PATT
  .word Label_01686C3D
@  #04 @073   ----------------------------------------
 .byte   PATT
  .word Label_01686C30
@  #04 @074   ----------------------------------------
 .byte   PATT
  .word Label_01686C4F
@  #04 @075   ----------------------------------------
 .byte   PATT
  .word Label_01686C30
@  #04 @076   ----------------------------------------
 .byte   PATT
  .word Label_01686C3D
@  #04 @077   ----------------------------------------
 .byte   PATT
  .word Label_01686C30
@  #04 @078   ----------------------------------------
 .byte   PATT
  .word Label_01686C4F
@  #04 @079   ----------------------------------------
 .byte   PATT
  .word Label_01686C30
@  #04 @080   ----------------------------------------
 .byte   PATT
  .word Label_01686C3D
@  #04 @081   ----------------------------------------
 .byte   PATT
  .word Label_01686C30
@  #04 @082   ----------------------------------------
 .byte   PATT
  .word Label_01686C86
@  #04 @083   ----------------------------------------
 .byte   W12
 .byte   N06 ,En4 ,v088
 .byte   W24
 .byte   Dn4
 .byte   W24
 .byte   An4
 .byte   W36
@  #04 @084   ----------------------------------------
 .byte   PATT
  .word Label_01686C9C
@  #04 @085   ----------------------------------------
 .byte   PATT
  .word Label_01686CAB
@  #04 @086   ----------------------------------------
 .byte   PATT
  .word Label_01686CB7
@  #04 @087   ----------------------------------------
 .byte   W96
@  #04 @088   ----------------------------------------
 .byte   W24
 .byte   GOTO
  .word Label_01686CC4
 .byte   FINE

@**************** Track 5 (Midi-Chn.4) ****************@

PokemonMysteryDungeonExplorersofSkyInTheMorningSun_005:
@  #05 @000   ----------------------------------------
 .byte   KEYSH , PokemonMysteryDungeonExplorersofSkyInTheMorningSun_key+0
 .byte   VOICE , 8
 .byte   MODT 0
 .byte   LFOS 44
 .byte   VOL , 44*PokemonMysteryDungeonExplorersofSkyInTheMorningSun_mvl/mxv
 .byte   PAN , c_v-24
 .byte   VOL , 44*PokemonMysteryDungeonExplorersofSkyInTheMorningSun_mvl/mxv
 .byte   BEND , c_v+0
 .byte   W96
@  #05 @001   ----------------------------------------
 .byte   W96
@  #05 @002   ----------------------------------------
 .byte   W96
@  #05 @003   ----------------------------------------
 .byte   W96
@  #05 @004   ----------------------------------------
 .byte   W96
@  #05 @005   ----------------------------------------
 .byte   W96
@  #05 @006   ----------------------------------------
 .byte   W96
@  #05 @007   ----------------------------------------
 .byte   W96
@  #05 @008   ----------------------------------------
Label_01686F50:
 .byte   W36
 .byte   N01 ,Fs4 ,v080
 .byte   W12
 .byte   En4
 .byte   W12
 .byte   Bn3
 .byte   W12
 .byte   Fs4
 .byte   W12
 .byte   En4
 .byte   W12
 .byte   PEND 
@  #05 @009   ----------------------------------------
Label_01686F5E:
 .byte   N01 ,Bn3 ,v080
 .byte   W12
 .byte   Fs4
 .byte   W24
 .byte   En4
 .byte   W24
 .byte   An3
 .byte   W36
 .byte   PEND 
@  #05 @010   ----------------------------------------
 .byte   PATT
  .word Label_01686F50
@  #05 @011   ----------------------------------------
Label_01686F6E:
 .byte   N01 ,Bn3 ,v080
 .byte   W12
 .byte   Fs4
 .byte   W24
 .byte   En4
 .byte   W24
 .byte   An4
 .byte   W36
 .byte   PEND 
@  #05 @012   ----------------------------------------
 .byte   PATT
  .word Label_01686F50
@  #05 @013   ----------------------------------------
 .byte   PATT
  .word Label_01686F6E
@  #05 @014   ----------------------------------------
Label_01686F83:
 .byte   W36
 .byte   N01 ,Fs4 ,v080
 .byte   W12
 .byte   En4
 .byte   W12
 .byte   An3
 .byte   W12
 .byte   Fs4
 .byte   W12
 .byte   En4
 .byte   W12
 .byte   PEND 
@  #05 @015   ----------------------------------------
Label_01686F91:
 .byte   N01 ,An3 ,v080
 .byte   W12
 .byte   En4
 .byte   W24
 .byte   Cs4
 .byte   W24
 .byte   Fs4
 .byte   W24
 .byte   En4
 .byte   W12
 .byte   PEND 
@  #05 @016   ----------------------------------------
 .byte   W24
 .byte   An4
 .byte   W72
@  #05 @017   ----------------------------------------
 .byte   W96
@  #05 @018   ----------------------------------------
 .byte   W24
Label_01686FA3:
 .byte   W72
@  #05 @019   ----------------------------------------
 .byte   W96
@  #05 @020   ----------------------------------------
 .byte   W96
@  #05 @021   ----------------------------------------
 .byte   W96
@  #05 @022   ----------------------------------------
 .byte   W96
@  #05 @023   ----------------------------------------
 .byte   W96
@  #05 @024   ----------------------------------------
 .byte   W96
@  #05 @025   ----------------------------------------
 .byte   W96
@  #05 @026   ----------------------------------------
 .byte   W96
@  #05 @027   ----------------------------------------
 .byte   W96
@  #05 @028   ----------------------------------------
 .byte   W96
@  #05 @029   ----------------------------------------
 .byte   W96
@  #05 @030   ----------------------------------------
 .byte   W96
@  #05 @031   ----------------------------------------
 .byte   W96
@  #05 @032   ----------------------------------------
 .byte   W96
@  #05 @033   ----------------------------------------
 .byte   W96
@  #05 @034   ----------------------------------------
 .byte   W24
 .byte   N05 ,En4 ,v088
 .byte   W12
 .byte   En4 ,v028
 .byte   W12
 .byte   En4 ,v008
 .byte   W12
 .byte   Dn4 ,v088
 .byte   W12
 .byte   Dn4 ,v028
 .byte   W12
 .byte   Dn4 ,v008
 .byte   W12
@  #05 @035   ----------------------------------------
 .byte   W96
@  #05 @036   ----------------------------------------
 .byte   W24
 .byte   Gn4 ,v088
 .byte   W12
 .byte   Gn4 ,v028
 .byte   W12
 .byte   Gn4 ,v008
 .byte   W12
 .byte   Fn4 ,v088
 .byte   W12
 .byte   Fn4 ,v028
 .byte   W12
 .byte   Fn4 ,v008
 .byte   W12
@  #05 @037   ----------------------------------------
 .byte   W96
@  #05 @038   ----------------------------------------
 .byte   W24
 .byte   As3 ,v088
 .byte   W12
 .byte   As3 ,v028
 .byte   W12
 .byte   As3 ,v008
 .byte   W12
 .byte   Dn4 ,v088
 .byte   W12
 .byte   Dn4 ,v028
 .byte   W12
 .byte   Dn4 ,v008
 .byte   W12
@  #05 @039   ----------------------------------------
 .byte   W24
 .byte   Cn4 ,v088
 .byte   W12
 .byte   Cn4 ,v028
 .byte   W12
 .byte   Cn4 ,v008
 .byte   W12
 .byte   En4 ,v088
 .byte   W12
 .byte   En4 ,v028
 .byte   W12
 .byte   En4 ,v008
 .byte   W12
@  #05 @040   ----------------------------------------
 .byte   W24
 .byte   Dn4 ,v088
 .byte   W12
 .byte   Dn4 ,v028
 .byte   W12
 .byte   Dn4 ,v008
 .byte   W12
 .byte   An4 ,v088
 .byte   W12
 .byte   An4 ,v028
 .byte   W12
 .byte   An4 ,v008
 .byte   W12
@  #05 @041   ----------------------------------------
 .byte   W12
 .byte   An4 ,v088
 .byte   W12
 .byte   An4 ,v028
 .byte   W12
 .byte   An4 ,v008
 .byte   W12
 .byte   An4 ,v048
 .byte   W12
 .byte   An4 ,v016
 .byte   W12
 .byte   An4 ,v008
 .byte   W12
 .byte   An4 ,v032
 .byte   W12
@  #05 @042   ----------------------------------------
 .byte   An4 ,v016
 .byte   W12
 .byte   An4 ,v008
 .byte   W12
 .byte   Dn4 ,v088
 .byte   N05 ,An4 ,v004
 .byte   W12
 .byte   Dn4 ,v028
 .byte   W12
 .byte   Dn4 ,v008
 .byte   W12
 .byte   As3 ,v088
 .byte   W12
 .byte   As3 ,v028
 .byte   W12
 .byte   As3 ,v008
 .byte   W12
@  #05 @043   ----------------------------------------
 .byte   W24
 .byte   Fn4 ,v088
 .byte   W12
 .byte   Fn4 ,v028
 .byte   W12
 .byte   Fn4 ,v008
 .byte   W12
 .byte   Cn4 ,v088
 .byte   W12
 .byte   Cn4 ,v028
 .byte   W12
 .byte   Cn4 ,v008
 .byte   W12
@  #05 @044   ----------------------------------------
 .byte   W24
 .byte   Gn4 ,v088
 .byte   W12
 .byte   Gn4 ,v028
 .byte   W12
 .byte   Gn4 ,v008
 .byte   W12
 .byte   Dn4 ,v088
 .byte   W12
 .byte   Dn4 ,v028
 .byte   W12
 .byte   Dn4 ,v008
 .byte   W12
@  #05 @045   ----------------------------------------
 .byte   W12
 .byte   Dn4 ,v088
 .byte   W12
 .byte   Dn4 ,v028
 .byte   W12
 .byte   Dn4 ,v008
 .byte   W60
@  #05 @046   ----------------------------------------
 .byte   W24
 .byte   Ds4 ,v088
 .byte   W12
 .byte   Ds4 ,v028
 .byte   W12
 .byte   Ds4 ,v008
 .byte   W12
 .byte   Cn4 ,v088
 .byte   W12
 .byte   Cn4 ,v028
 .byte   W12
 .byte   Cn4 ,v008
 .byte   W12
@  #05 @047   ----------------------------------------
 .byte   Gn4 ,v088
 .byte   W12
 .byte   Gn4 ,v028
 .byte   W12
 .byte   Gn4 ,v008
 .byte   W12
 .byte   Gn4 ,v048
 .byte   W12
 .byte   Gn4 ,v016
 .byte   W12
 .byte   Gn4 ,v008
 .byte   W12
 .byte   Gn4 ,v032
 .byte   W12
 .byte   Gn4 ,v016
 .byte   W12
@  #05 @048   ----------------------------------------
 .byte   Gn4 ,v008
 .byte   W12
 .byte   Gn4 ,v004
 .byte   W12
 .byte   Gn4 ,v088
 .byte   W12
 .byte   Gn4 ,v028
 .byte   W12
 .byte   Gn4 ,v008
 .byte   W12
 .byte   Ds4 ,v088
 .byte   W12
 .byte   Ds4 ,v028
 .byte   W12
 .byte   Ds4 ,v008
 .byte   W12
@  #05 @049   ----------------------------------------
 .byte   As4 ,v088
 .byte   W12
 .byte   As4 ,v028
 .byte   W12
 .byte   As4 ,v008
 .byte   W12
 .byte   As4 ,v048
 .byte   W12
 .byte   As4 ,v016
 .byte   W12
 .byte   As4 ,v008
 .byte   W12
 .byte   As4 ,v032
 .byte   W12
 .byte   As4 ,v016
 .byte   W12
@  #05 @050   ----------------------------------------
 .byte   As4 ,v008
 .byte   W12
 .byte   As4 ,v004
 .byte   W12
 .byte   An4 ,v088
 .byte   W12
 .byte   An4 ,v028
 .byte   W12
 .byte   An4 ,v008
 .byte   W12
 .byte   Gn4 ,v088
 .byte   W12
 .byte   Gn4 ,v028
 .byte   W12
 .byte   Gn4 ,v008
 .byte   W12
@  #05 @051   ----------------------------------------
 .byte   Dn5 ,v088
 .byte   W12
 .byte   Dn5 ,v028
 .byte   W12
 .byte   Dn5 ,v008
 .byte   W12
 .byte   Dn5 ,v048
 .byte   W12
 .byte   Dn5 ,v016
 .byte   W12
 .byte   Dn5 ,v008
 .byte   W12
 .byte   Dn5 ,v032
 .byte   W12
 .byte   Dn5 ,v016
 .byte   W12
@  #05 @052   ----------------------------------------
 .byte   Dn5 ,v008
 .byte   W12
 .byte   Dn5 ,v004
 .byte   W12
 .byte   Dn5 ,v088
 .byte   W12
 .byte   Dn5 ,v028
 .byte   W12
 .byte   Dn5 ,v008
 .byte   W12
 .byte   Cn5 ,v088
 .byte   W12
 .byte   Cn5 ,v028
 .byte   W12
 .byte   Cn5 ,v008
 .byte   W12
@  #05 @053   ----------------------------------------
 .byte   Gn5 ,v088
 .byte   W12
 .byte   Gn5 ,v028
 .byte   W12
 .byte   Fs5 ,v088
 .byte   W12
 .byte   Fs5 ,v028
 .byte   W12
 .byte   Fs5 ,v008
 .byte   W48
@  #05 @054   ----------------------------------------
 .byte   W96
@  #05 @055   ----------------------------------------
 .byte   W96
@  #05 @056   ----------------------------------------
 .byte   W96
@  #05 @057   ----------------------------------------
 .byte   W96
@  #05 @058   ----------------------------------------
 .byte   W96
@  #05 @059   ----------------------------------------
 .byte   W96
@  #05 @060   ----------------------------------------
 .byte   W96
@  #05 @061   ----------------------------------------
 .byte   W96
@  #05 @062   ----------------------------------------
 .byte   W96
@  #05 @063   ----------------------------------------
 .byte   W96
@  #05 @064   ----------------------------------------
 .byte   W96
@  #05 @065   ----------------------------------------
 .byte   W96
@  #05 @066   ----------------------------------------
 .byte   W96
@  #05 @067   ----------------------------------------
 .byte   W96
@  #05 @068   ----------------------------------------
 .byte   W96
@  #05 @069   ----------------------------------------
 .byte   W96
@  #05 @070   ----------------------------------------
 .byte   W24
 .byte   Fs5 ,v088
 .byte   W12
 .byte   Fs5 ,v028
 .byte   W12
 .byte   Fs5 ,v008
 .byte   W12
 .byte   En5 ,v088
 .byte   W12
 .byte   En5 ,v028
 .byte   W12
 .byte   En5 ,v008
 .byte   W12
@  #05 @071   ----------------------------------------
Label_0168714B:
 .byte   N05 ,An5 ,v088
 .byte   W12
 .byte   An5 ,v028
 .byte   W12
 .byte   An5 ,v008
 .byte   W12
 .byte   An5 ,v048
 .byte   W12
 .byte   An5 ,v016
 .byte   W12
 .byte   An5 ,v008
 .byte   W12
 .byte   An5 ,v032
 .byte   W12
 .byte   An5 ,v016
 .byte   W12
 .byte   PEND 
@  #05 @072   ----------------------------------------
Label_01687165:
 .byte   N05 ,An5 ,v008
 .byte   W12
 .byte   An5 ,v004
 .byte   W12
 .byte   Fs5 ,v088
 .byte   W12
 .byte   Fs5 ,v028
 .byte   W12
 .byte   Fs5 ,v008
 .byte   W12
 .byte   En5 ,v088
 .byte   W12
 .byte   En5 ,v028
 .byte   W12
 .byte   En5 ,v008
 .byte   W12
 .byte   PEND 
@  #05 @073   ----------------------------------------
Label_0168717F:
 .byte   N05 ,An4 ,v088
 .byte   W12
 .byte   An4 ,v028
 .byte   W12
 .byte   An4 ,v008
 .byte   W12
 .byte   An4 ,v048
 .byte   W12
 .byte   An4 ,v016
 .byte   W12
 .byte   An4 ,v008
 .byte   W12
 .byte   An4 ,v032
 .byte   W12
 .byte   An4 ,v016
 .byte   W12
 .byte   PEND 
@  #05 @074   ----------------------------------------
 .byte   An4 ,v008
 .byte   W12
 .byte   An4 ,v004
 .byte   W12
 .byte   Fs5 ,v088
 .byte   W12
 .byte   Fs5 ,v028
 .byte   W12
 .byte   Fs5 ,v008
 .byte   W12
 .byte   En5 ,v088
 .byte   W12
 .byte   En5 ,v028
 .byte   W12
 .byte   En5 ,v008
 .byte   W12
@  #05 @075   ----------------------------------------
 .byte   PATT
  .word Label_0168714B
@  #05 @076   ----------------------------------------
 .byte   PATT
  .word Label_01687165
@  #05 @077   ----------------------------------------
 .byte   PATT
  .word Label_0168717F
@  #05 @078   ----------------------------------------
 .byte   N05 ,An4 ,v008
 .byte   W12
 .byte   An4 ,v004
 .byte   W24
 .byte   N01 ,Fs4 ,v080
 .byte   W12
 .byte   En4
 .byte   W12
 .byte   Bn3
 .byte   W12
 .byte   Fs4
 .byte   W12
 .byte   En4
 .byte   W12
@  #05 @079   ----------------------------------------
 .byte   PATT
  .word Label_01686F5E
@  #05 @080   ----------------------------------------
 .byte   PATT
  .word Label_01686F50
@  #05 @081   ----------------------------------------
 .byte   PATT
  .word Label_01686F6E
@  #05 @082   ----------------------------------------
 .byte   PATT
  .word Label_01686F50
@  #05 @083   ----------------------------------------
 .byte   PATT
  .word Label_01686F6E
@  #05 @084   ----------------------------------------
 .byte   PATT
  .word Label_01686F83
@  #05 @085   ----------------------------------------
 .byte   PATT
  .word Label_01686F91
@  #05 @086   ----------------------------------------
 .byte   W24
 .byte   N01 ,An4 ,v080
 .byte   W72
@  #05 @087   ----------------------------------------
 .byte   W96
@  #05 @088   ----------------------------------------
 .byte   W24
 .byte   GOTO
  .word Label_01686FA3
 .byte   FINE

@**************** Track 6 (Midi-Chn.5) ****************@

PokemonMysteryDungeonExplorersofSkyInTheMorningSun_006:
@  #06 @000   ----------------------------------------
 .byte   KEYSH , PokemonMysteryDungeonExplorersofSkyInTheMorningSun_key+0
 .byte   VOICE , 76
 .byte   MODT 0
 .byte   LFOS 44
 .byte   VOL , 45*PokemonMysteryDungeonExplorersofSkyInTheMorningSun_mvl/mxv
 .byte   PAN , c_v-17
 .byte   VOL , 40*PokemonMysteryDungeonExplorersofSkyInTheMorningSun_mvl/mxv
 .byte   BEND , c_v+0
 .byte   W96
@  #06 @001   ----------------------------------------
 .byte   W96
@  #06 @002   ----------------------------------------
 .byte   W96
@  #06 @003   ----------------------------------------
 .byte   W96
@  #06 @004   ----------------------------------------
 .byte   W96
@  #06 @005   ----------------------------------------
 .byte   W96
@  #06 @006   ----------------------------------------
 .byte   W96
@  #06 @007   ----------------------------------------
 .byte   W24
 .byte   VOL , 40*PokemonMysteryDungeonExplorersofSkyInTheMorningSun_mvl/mxv
 .byte   W72
@  #06 @008   ----------------------------------------
 .byte   N24 ,Dn4 ,v104
 .byte   W24
 .byte   N36 ,An4
 .byte   W36
 .byte   N12 ,An4 ,v036
 .byte   W12
 .byte   N24 ,An4 ,v104
 .byte   W24
@  #06 @009   ----------------------------------------
 .byte   N12 ,Bn4
 .byte   W12
 .byte   N54 ,An4
 .byte   W54
 .byte   W01
 .byte   N01 ,An4 ,v072
 .byte   W05
 .byte   N42 ,Gn4 ,v092
 .byte   W24
@  #06 @010   ----------------------------------------
 .byte   W20
 .byte   N04 ,Gn4 ,v072
 .byte   W04
 .byte   N44 ,Fs4 ,v104
 .byte   W44
 .byte   N01 ,Fs4 ,v040
 .byte   W04
 .byte   N44 ,Bn4 ,v104
 .byte   W24
@  #06 @011   ----------------------------------------
 .byte   W20
 .byte   N03 ,Bn4 ,v040
 .byte   W04
 .byte   N42 ,Dn5 ,v104
 .byte   W42
 .byte   W01
 .byte   N01 ,Dn5 ,v040
 .byte   W05
 .byte   N42 ,En5 ,v104
 .byte   W24
@  #06 @012   ----------------------------------------
 .byte   W19
 .byte   N04 ,En5 ,v036
 .byte   W05
 .byte   N68 ,Fs5 ,v104
 .byte   W68
 .byte   N04 ,Fs5 ,v036
 .byte   W04
@  #06 @013   ----------------------------------------
Label_0168726D:
 .byte   N06 ,En5 ,v104
 .byte   W06
 .byte   En5 ,v032
 .byte   W06
 .byte   N84 ,En5 ,v104
 .byte   W84
 .byte   PEND 
@  #06 @014   ----------------------------------------
 .byte   N12 ,En5 ,v052
 .byte   W12
 .byte   En5 ,v028
 .byte   W12
 .byte   N60 ,Fs5 ,v104
 .byte   W60
 .byte   N12 ,Fs5 ,v036
 .byte   W12
@  #06 @015   ----------------------------------------
 .byte   PATT
  .word Label_0168726D
@  #06 @016   ----------------------------------------
 .byte   N12 ,En5 ,v044
 .byte   W12
 .byte   En5 ,v024
 .byte   W12
 .byte   TIE ,An5 ,v104
 .byte   W42
 .byte   VOL , 40*PokemonMysteryDungeonExplorersofSkyInTheMorningSun_mvl/mxv
 .byte   W06
 .byte   VOL , 37*PokemonMysteryDungeonExplorersofSkyInTheMorningSun_mvl/mxv
 .byte   W06
 .byte   VOL , 34*PokemonMysteryDungeonExplorersofSkyInTheMorningSun_mvl/mxv
 .byte   W06
 .byte   VOL , 32*PokemonMysteryDungeonExplorersofSkyInTheMorningSun_mvl/mxv
 .byte   W06
 .byte   VOL , 30*PokemonMysteryDungeonExplorersofSkyInTheMorningSun_mvl/mxv
 .byte   W06
@  #06 @017   ----------------------------------------
 .byte   VOL , 28*PokemonMysteryDungeonExplorersofSkyInTheMorningSun_mvl/mxv
 .byte   W06
 .byte   VOL , 25*PokemonMysteryDungeonExplorersofSkyInTheMorningSun_mvl/mxv
 .byte   W06
 .byte   VOL , 22*PokemonMysteryDungeonExplorersofSkyInTheMorningSun_mvl/mxv
 .byte   W06
 .byte   VOL , 21*PokemonMysteryDungeonExplorersofSkyInTheMorningSun_mvl/mxv
 .byte   W06
 .byte   VOL , 19*PokemonMysteryDungeonExplorersofSkyInTheMorningSun_mvl/mxv
 .byte   W06
 .byte   VOL , 17*PokemonMysteryDungeonExplorersofSkyInTheMorningSun_mvl/mxv
 .byte   W06
 .byte   VOL , 15*PokemonMysteryDungeonExplorersofSkyInTheMorningSun_mvl/mxv
 .byte   W06
 .byte   VOL , 14*PokemonMysteryDungeonExplorersofSkyInTheMorningSun_mvl/mxv
 .byte   W06
 .byte   VOL , 12*PokemonMysteryDungeonExplorersofSkyInTheMorningSun_mvl/mxv
 .byte   W06
 .byte   VOL , 10*PokemonMysteryDungeonExplorersofSkyInTheMorningSun_mvl/mxv
 .byte   W06
 .byte   VOL , 10*PokemonMysteryDungeonExplorersofSkyInTheMorningSun_mvl/mxv
 .byte   W06
 .byte   VOL , 8*PokemonMysteryDungeonExplorersofSkyInTheMorningSun_mvl/mxv
 .byte   W06
 .byte   EOT
 .byte   VOL , 6*PokemonMysteryDungeonExplorersofSkyInTheMorningSun_mvl/mxv
 .byte   W24
@  #06 @018   ----------------------------------------
 .byte   W24
Label_016872C0:
 .byte   VOL , 6*PokemonMysteryDungeonExplorersofSkyInTheMorningSun_mvl/mxv
 .byte   W72
@  #06 @019   ----------------------------------------
 .byte   W96
@  #06 @020   ----------------------------------------
 .byte   W96
@  #06 @021   ----------------------------------------
 .byte   W96
@  #06 @022   ----------------------------------------
 .byte   W96
@  #06 @023   ----------------------------------------
 .byte   W96
@  #06 @024   ----------------------------------------
 .byte   W96
@  #06 @025   ----------------------------------------
 .byte   W96
@  #06 @026   ----------------------------------------
 .byte   W96
@  #06 @027   ----------------------------------------
 .byte   W96
@  #06 @028   ----------------------------------------
 .byte   W96
@  #06 @029   ----------------------------------------
 .byte   W96
@  #06 @030   ----------------------------------------
 .byte   W96
@  #06 @031   ----------------------------------------
 .byte   W96
@  #06 @032   ----------------------------------------
 .byte   W96
@  #06 @033   ----------------------------------------
 .byte   W96
@  #06 @034   ----------------------------------------
 .byte   W96
@  #06 @035   ----------------------------------------
 .byte   W96
@  #06 @036   ----------------------------------------
 .byte   W96
@  #06 @037   ----------------------------------------
 .byte   W96
@  #06 @038   ----------------------------------------
 .byte   W96
@  #06 @039   ----------------------------------------
 .byte   W96
@  #06 @040   ----------------------------------------
 .byte   W96
@  #06 @041   ----------------------------------------
 .byte   W24
 .byte   VOL , 40*PokemonMysteryDungeonExplorersofSkyInTheMorningSun_mvl/mxv
 .byte   W48
 .byte   N12 ,Gn4 ,v127
 .byte   W12
 .byte   An4
 .byte   W12
@  #06 @042   ----------------------------------------
 .byte   As4
 .byte   W12
 .byte   Cn5
 .byte   W12
 .byte   Dn5
 .byte   W12
 .byte   Dn5 ,v060
 .byte   W12
 .byte   As4 ,v127
 .byte   W12
 .byte   N36
 .byte   W36
@  #06 @043   ----------------------------------------
 .byte   N24 ,As4 ,v060
 .byte   W24
 .byte   N12 ,Fn5 ,v127
 .byte   W12
 .byte   Fn5 ,v060
 .byte   W12
 .byte   Cn5 ,v127
 .byte   W12
 .byte   N36
 .byte   W36
@  #06 @044   ----------------------------------------
 .byte   N24 ,Cn5 ,v060
 .byte   W24
 .byte   Gn5 ,v127
 .byte   W24
 .byte   N12 ,Dn5
 .byte   W12
 .byte   N24
 .byte   W24
 .byte   N12 ,Cn5
 .byte   W12
@  #06 @045   ----------------------------------------
 .byte   Cn5 ,v060
 .byte   W12
 .byte   N60 ,Dn5 ,v127
 .byte   W24
 .byte   VOL , 40*PokemonMysteryDungeonExplorersofSkyInTheMorningSun_mvl/mxv
 .byte   W06
 .byte   VOL , 37*PokemonMysteryDungeonExplorersofSkyInTheMorningSun_mvl/mxv
 .byte   W06
 .byte   VOL , 34*PokemonMysteryDungeonExplorersofSkyInTheMorningSun_mvl/mxv
 .byte   W06
 .byte   VOL , 30*PokemonMysteryDungeonExplorersofSkyInTheMorningSun_mvl/mxv
 .byte   W06
 .byte   VOL , 28*PokemonMysteryDungeonExplorersofSkyInTheMorningSun_mvl/mxv
 .byte   W06
 .byte   VOL , 26*PokemonMysteryDungeonExplorersofSkyInTheMorningSun_mvl/mxv
 .byte   W06
 .byte   VOL , 23*PokemonMysteryDungeonExplorersofSkyInTheMorningSun_mvl/mxv
 .byte   N24 ,Dn5 ,v060
 .byte   W06
 .byte   VOL , 21*PokemonMysteryDungeonExplorersofSkyInTheMorningSun_mvl/mxv
 .byte   W06
 .byte   VOL , 18*PokemonMysteryDungeonExplorersofSkyInTheMorningSun_mvl/mxv
 .byte   W06
 .byte   VOL , 17*PokemonMysteryDungeonExplorersofSkyInTheMorningSun_mvl/mxv
 .byte   W06
@  #06 @046   ----------------------------------------
 .byte   VOL , 40*PokemonMysteryDungeonExplorersofSkyInTheMorningSun_mvl/mxv
 .byte   N24 ,Dn5 ,v127
 .byte   W24
 .byte   TIE ,Ds5
 .byte   W42
 .byte   VOL , 40*PokemonMysteryDungeonExplorersofSkyInTheMorningSun_mvl/mxv
 .byte   W06
 .byte   VOL , 39*PokemonMysteryDungeonExplorersofSkyInTheMorningSun_mvl/mxv
 .byte   W06
 .byte   VOL , 38*PokemonMysteryDungeonExplorersofSkyInTheMorningSun_mvl/mxv
 .byte   W06
 .byte   VOL , 38*PokemonMysteryDungeonExplorersofSkyInTheMorningSun_mvl/mxv
 .byte   W06
 .byte   VOL , 37*PokemonMysteryDungeonExplorersofSkyInTheMorningSun_mvl/mxv
 .byte   W06
@  #06 @047   ----------------------------------------
 .byte   W06
 .byte   VOL , 37*PokemonMysteryDungeonExplorersofSkyInTheMorningSun_mvl/mxv
 .byte   W06
 .byte   VOL , 37*PokemonMysteryDungeonExplorersofSkyInTheMorningSun_mvl/mxv
 .byte   W06
 .byte   VOL , 36*PokemonMysteryDungeonExplorersofSkyInTheMorningSun_mvl/mxv
 .byte   W06
 .byte   VOL , 35*PokemonMysteryDungeonExplorersofSkyInTheMorningSun_mvl/mxv
 .byte   W06
 .byte   VOL , 34*PokemonMysteryDungeonExplorersofSkyInTheMorningSun_mvl/mxv
 .byte   W06
 .byte   VOL , 34*PokemonMysteryDungeonExplorersofSkyInTheMorningSun_mvl/mxv
 .byte   W06
 .byte   VOL , 34*PokemonMysteryDungeonExplorersofSkyInTheMorningSun_mvl/mxv
 .byte   W06
 .byte   VOL , 33*PokemonMysteryDungeonExplorersofSkyInTheMorningSun_mvl/mxv
 .byte   W06
 .byte   VOL , 33*PokemonMysteryDungeonExplorersofSkyInTheMorningSun_mvl/mxv
 .byte   W06
 .byte   VOL , 32*PokemonMysteryDungeonExplorersofSkyInTheMorningSun_mvl/mxv
 .byte   W12
 .byte   VOL , 31*PokemonMysteryDungeonExplorersofSkyInTheMorningSun_mvl/mxv
 .byte   W06
 .byte   VOL , 30*PokemonMysteryDungeonExplorersofSkyInTheMorningSun_mvl/mxv
 .byte   W06
 .byte   VOL , 30*PokemonMysteryDungeonExplorersofSkyInTheMorningSun_mvl/mxv
 .byte   W06
 .byte   VOL , 30*PokemonMysteryDungeonExplorersofSkyInTheMorningSun_mvl/mxv
 .byte   W06
@  #06 @048   ----------------------------------------
 .byte   VOL , 30*PokemonMysteryDungeonExplorersofSkyInTheMorningSun_mvl/mxv
 .byte   W06
 .byte   VOL , 29*PokemonMysteryDungeonExplorersofSkyInTheMorningSun_mvl/mxv
 .byte   W06
 .byte   VOL , 29*PokemonMysteryDungeonExplorersofSkyInTheMorningSun_mvl/mxv
 .byte   W06
 .byte   VOL , 28*PokemonMysteryDungeonExplorersofSkyInTheMorningSun_mvl/mxv
 .byte   W06
 .byte   VOL , 28*PokemonMysteryDungeonExplorersofSkyInTheMorningSun_mvl/mxv
 .byte   W12
 .byte   VOL , 28*PokemonMysteryDungeonExplorersofSkyInTheMorningSun_mvl/mxv
 .byte   W06
 .byte   VOL , 27*PokemonMysteryDungeonExplorersofSkyInTheMorningSun_mvl/mxv
 .byte   W06
 .byte   VOL , 27*PokemonMysteryDungeonExplorersofSkyInTheMorningSun_mvl/mxv
 .byte   W06
 .byte   VOL , 26*PokemonMysteryDungeonExplorersofSkyInTheMorningSun_mvl/mxv
 .byte   W06
 .byte   VOL , 26*PokemonMysteryDungeonExplorersofSkyInTheMorningSun_mvl/mxv
 .byte   W06
 .byte   VOL , 28*PokemonMysteryDungeonExplorersofSkyInTheMorningSun_mvl/mxv
 .byte   W06
 .byte   VOL , 29*PokemonMysteryDungeonExplorersofSkyInTheMorningSun_mvl/mxv
 .byte   W06
 .byte   VOL , 30*PokemonMysteryDungeonExplorersofSkyInTheMorningSun_mvl/mxv
 .byte   W06
 .byte   VOL , 32*PokemonMysteryDungeonExplorersofSkyInTheMorningSun_mvl/mxv
 .byte   W06
 .byte   VOL , 34*PokemonMysteryDungeonExplorersofSkyInTheMorningSun_mvl/mxv
 .byte   W06
@  #06 @049   ----------------------------------------
 .byte   EOT
 .byte   VOL , 35*PokemonMysteryDungeonExplorersofSkyInTheMorningSun_mvl/mxv
 .byte   N24 ,Ds5 ,v060
 .byte   W06
 .byte   VOL , 37*PokemonMysteryDungeonExplorersofSkyInTheMorningSun_mvl/mxv
 .byte   W06
 .byte   VOL , 39*PokemonMysteryDungeonExplorersofSkyInTheMorningSun_mvl/mxv
 .byte   W12
 .byte   N24 ,Ds5 ,v127
 .byte   W24
 .byte   N12 ,Dn5
 .byte   W12
 .byte   Cn5
 .byte   W12
 .byte   Cn5 ,v060
 .byte   W12
 .byte   Ds5 ,v127
 .byte   W12
@  #06 @050   ----------------------------------------
 .byte   Ds5 ,v060
 .byte   W12
 .byte   TIE ,Dn5 ,v127
 .byte   W24
 .byte   VOL , 39*PokemonMysteryDungeonExplorersofSkyInTheMorningSun_mvl/mxv
 .byte   W12
 .byte   VOL , 38*PokemonMysteryDungeonExplorersofSkyInTheMorningSun_mvl/mxv
 .byte   W12
 .byte   VOL , 38*PokemonMysteryDungeonExplorersofSkyInTheMorningSun_mvl/mxv
 .byte   W06
 .byte   VOL , 37*PokemonMysteryDungeonExplorersofSkyInTheMorningSun_mvl/mxv
 .byte   W18
 .byte   VOL , 37*PokemonMysteryDungeonExplorersofSkyInTheMorningSun_mvl/mxv
 .byte   W12
@  #06 @051   ----------------------------------------
 .byte   VOL , 37*PokemonMysteryDungeonExplorersofSkyInTheMorningSun_mvl/mxv
 .byte   W06
 .byte   VOL , 36*PokemonMysteryDungeonExplorersofSkyInTheMorningSun_mvl/mxv
 .byte   W12
 .byte   VOL , 35*PokemonMysteryDungeonExplorersofSkyInTheMorningSun_mvl/mxv
 .byte   W12
 .byte   VOL , 34*PokemonMysteryDungeonExplorersofSkyInTheMorningSun_mvl/mxv
 .byte   W12
 .byte   VOL , 34*PokemonMysteryDungeonExplorersofSkyInTheMorningSun_mvl/mxv
 .byte   W12
 .byte   VOL , 34*PokemonMysteryDungeonExplorersofSkyInTheMorningSun_mvl/mxv
 .byte   W06
 .byte   VOL , 33*PokemonMysteryDungeonExplorersofSkyInTheMorningSun_mvl/mxv
 .byte   W12
 .byte   VOL , 33*PokemonMysteryDungeonExplorersofSkyInTheMorningSun_mvl/mxv
 .byte   W24
@  #06 @052   ----------------------------------------
 .byte   W18
 .byte   VOL , 31*PokemonMysteryDungeonExplorersofSkyInTheMorningSun_mvl/mxv
 .byte   W06
 .byte   VOL , 30*PokemonMysteryDungeonExplorersofSkyInTheMorningSun_mvl/mxv
 .byte   W06
 .byte   VOL , 29*PokemonMysteryDungeonExplorersofSkyInTheMorningSun_mvl/mxv
 .byte   W06
 .byte   VOL , 28*PokemonMysteryDungeonExplorersofSkyInTheMorningSun_mvl/mxv
 .byte   W06
 .byte   VOL , 27*PokemonMysteryDungeonExplorersofSkyInTheMorningSun_mvl/mxv
 .byte   W06
 .byte   VOL , 26*PokemonMysteryDungeonExplorersofSkyInTheMorningSun_mvl/mxv
 .byte   W06
 .byte   VOL , 24*PokemonMysteryDungeonExplorersofSkyInTheMorningSun_mvl/mxv
 .byte   W06
 .byte   VOL , 23*PokemonMysteryDungeonExplorersofSkyInTheMorningSun_mvl/mxv
 .byte   W06
 .byte   VOL , 22*PokemonMysteryDungeonExplorersofSkyInTheMorningSun_mvl/mxv
 .byte   W06
 .byte   VOL , 22*PokemonMysteryDungeonExplorersofSkyInTheMorningSun_mvl/mxv
 .byte   W06
 .byte   VOL , 20*PokemonMysteryDungeonExplorersofSkyInTheMorningSun_mvl/mxv
 .byte   W06
 .byte   VOL , 19*PokemonMysteryDungeonExplorersofSkyInTheMorningSun_mvl/mxv
 .byte   W06
 .byte   VOL , 18*PokemonMysteryDungeonExplorersofSkyInTheMorningSun_mvl/mxv
 .byte   W06
@  #06 @053   ----------------------------------------
 .byte   VOL , 18*PokemonMysteryDungeonExplorersofSkyInTheMorningSun_mvl/mxv
 .byte   W06
 .byte   VOL , 17*PokemonMysteryDungeonExplorersofSkyInTheMorningSun_mvl/mxv
 .byte   W06
 .byte   VOL , 15*PokemonMysteryDungeonExplorersofSkyInTheMorningSun_mvl/mxv
 .byte   W12
 .byte   EOT
 .byte   W72
@  #06 @054   ----------------------------------------
Label_016873DD:
 .byte   VOL , 40*PokemonMysteryDungeonExplorersofSkyInTheMorningSun_mvl/mxv
 .byte   N12 ,Bn3 ,v127
 .byte   W12
 .byte   Bn3 ,v060
 .byte   W12
 .byte   N36 ,Fs4 ,v127
 .byte   W36
 .byte   N12 ,Fs4 ,v060
 .byte   W12
 .byte   Fs4 ,v127
 .byte   W12
 .byte   Fs4 ,v060
 .byte   W12
 .byte   PEND 
@  #06 @055   ----------------------------------------
Label_016873F5:
 .byte   N12 ,Gn4 ,v127
 .byte   W12
 .byte   N48 ,An4
 .byte   W48
 .byte   N12 ,An4 ,v060
 .byte   W12
 .byte   An4 ,v127
 .byte   W12
 .byte   An4 ,v060
 .byte   W12
 .byte   PEND 
@  #06 @056   ----------------------------------------
 .byte   Cs5 ,v127
 .byte   W12
 .byte   TIE ,Dn5
 .byte   W54
 .byte   VOL , 39*PokemonMysteryDungeonExplorersofSkyInTheMorningSun_mvl/mxv
 .byte   W06
 .byte   VOL , 37*PokemonMysteryDungeonExplorersofSkyInTheMorningSun_mvl/mxv
 .byte   W06
 .byte   VOL , 35*PokemonMysteryDungeonExplorersofSkyInTheMorningSun_mvl/mxv
 .byte   W06
 .byte   VOL , 34*PokemonMysteryDungeonExplorersofSkyInTheMorningSun_mvl/mxv
 .byte   W06
 .byte   VOL , 32*PokemonMysteryDungeonExplorersofSkyInTheMorningSun_mvl/mxv
 .byte   W06
@  #06 @057   ----------------------------------------
 .byte   VOL , 30*PokemonMysteryDungeonExplorersofSkyInTheMorningSun_mvl/mxv
 .byte   W06
 .byte   VOL , 29*PokemonMysteryDungeonExplorersofSkyInTheMorningSun_mvl/mxv
 .byte   W06
 .byte   VOL , 27*PokemonMysteryDungeonExplorersofSkyInTheMorningSun_mvl/mxv
 .byte   W06
 .byte   VOL , 26*PokemonMysteryDungeonExplorersofSkyInTheMorningSun_mvl/mxv
 .byte   W06
 .byte   VOL , 23*PokemonMysteryDungeonExplorersofSkyInTheMorningSun_mvl/mxv
 .byte   W06
 .byte   VOL , 22*PokemonMysteryDungeonExplorersofSkyInTheMorningSun_mvl/mxv
 .byte   W06
 .byte   VOL , 21*PokemonMysteryDungeonExplorersofSkyInTheMorningSun_mvl/mxv
 .byte   W06
 .byte   VOL , 19*PokemonMysteryDungeonExplorersofSkyInTheMorningSun_mvl/mxv
 .byte   W06
 .byte   VOL , 18*PokemonMysteryDungeonExplorersofSkyInTheMorningSun_mvl/mxv
 .byte   W06
 .byte   VOL , 17*PokemonMysteryDungeonExplorersofSkyInTheMorningSun_mvl/mxv
 .byte   W06
 .byte   VOL , 15*PokemonMysteryDungeonExplorersofSkyInTheMorningSun_mvl/mxv
 .byte   W06
 .byte   VOL , 14*PokemonMysteryDungeonExplorersofSkyInTheMorningSun_mvl/mxv
 .byte   W06
 .byte   EOT
 .byte   VOL , 13*PokemonMysteryDungeonExplorersofSkyInTheMorningSun_mvl/mxv
 .byte   N24 ,Dn5 ,v060
 .byte   W24
@  #06 @058   ----------------------------------------
 .byte   VOL , 40*PokemonMysteryDungeonExplorersofSkyInTheMorningSun_mvl/mxv
 .byte   N12 ,Bn4 ,v127
 .byte   W12
 .byte   Bn4 ,v060
 .byte   W12
 .byte   N24 ,Fs5 ,v127
 .byte   W24
 .byte   N12 ,En5
 .byte   W12
 .byte   N24
 .byte   W24
 .byte   N12 ,En5 ,v060
 .byte   W12
@  #06 @059   ----------------------------------------
Label_0168744D:
 .byte   N12 ,Bn4 ,v127
 .byte   W24
 .byte   N24 ,Fs5
 .byte   W24
 .byte   N12 ,En5
 .byte   W12
 .byte   N24
 .byte   W24
 .byte   N12 ,En5 ,v060
 .byte   W12
 .byte   PEND 
@  #06 @060   ----------------------------------------
 .byte   Bn4 ,v127
 .byte   W24
 .byte   N24 ,Gn5
 .byte   W24
 .byte   N12 ,Fs5
 .byte   W12
 .byte   N24
 .byte   W24
 .byte   N12 ,En5
 .byte   W12
@  #06 @061   ----------------------------------------
 .byte   En5 ,v060
 .byte   W12
 .byte   N60 ,Fs5 ,v127
 .byte   W30
 .byte   VOL , 40*PokemonMysteryDungeonExplorersofSkyInTheMorningSun_mvl/mxv
 .byte   W03
 .byte   VOL , 38*PokemonMysteryDungeonExplorersofSkyInTheMorningSun_mvl/mxv
 .byte   W03
 .byte   VOL , 36*PokemonMysteryDungeonExplorersofSkyInTheMorningSun_mvl/mxv
 .byte   W03
 .byte   VOL , 34*PokemonMysteryDungeonExplorersofSkyInTheMorningSun_mvl/mxv
 .byte   W03
 .byte   VOL , 31*PokemonMysteryDungeonExplorersofSkyInTheMorningSun_mvl/mxv
 .byte   W03
 .byte   VOL , 30*PokemonMysteryDungeonExplorersofSkyInTheMorningSun_mvl/mxv
 .byte   W03
 .byte   VOL , 28*PokemonMysteryDungeonExplorersofSkyInTheMorningSun_mvl/mxv
 .byte   W03
 .byte   VOL , 27*PokemonMysteryDungeonExplorersofSkyInTheMorningSun_mvl/mxv
 .byte   W03
 .byte   VOL , 24*PokemonMysteryDungeonExplorersofSkyInTheMorningSun_mvl/mxv
 .byte   W03
 .byte   VOL , 23*PokemonMysteryDungeonExplorersofSkyInTheMorningSun_mvl/mxv
 .byte   W03
 .byte   VOL , 22*PokemonMysteryDungeonExplorersofSkyInTheMorningSun_mvl/mxv
 .byte   N24 ,Fs5 ,v060
 .byte   W03
 .byte   VOL , 20*PokemonMysteryDungeonExplorersofSkyInTheMorningSun_mvl/mxv
 .byte   W03
 .byte   VOL , 18*PokemonMysteryDungeonExplorersofSkyInTheMorningSun_mvl/mxv
 .byte   W03
 .byte   VOL , 17*PokemonMysteryDungeonExplorersofSkyInTheMorningSun_mvl/mxv
 .byte   W03
 .byte   VOL , 15*PokemonMysteryDungeonExplorersofSkyInTheMorningSun_mvl/mxv
 .byte   W03
 .byte   VOL , 14*PokemonMysteryDungeonExplorersofSkyInTheMorningSun_mvl/mxv
 .byte   W09
@  #06 @062   ----------------------------------------
 .byte   PATT
  .word Label_016873DD
@  #06 @063   ----------------------------------------
 .byte   PATT
  .word Label_016873F5
@  #06 @064   ----------------------------------------
 .byte   N12 ,Cs5 ,v127
 .byte   W12
 .byte   N60 ,Dn5
 .byte   W60
 .byte   N12 ,Cs5
 .byte   W12
 .byte   Cs5 ,v060
 .byte   W12
@  #06 @065   ----------------------------------------
 .byte   Dn5 ,v127
 .byte   W12
 .byte   N60 ,Fs5
 .byte   W60
 .byte   N24 ,Fs5 ,v060
 .byte   W24
@  #06 @066   ----------------------------------------
 .byte   PATT
  .word Label_0168744D
@  #06 @067   ----------------------------------------
 .byte   N12 ,Bn4 ,v127
 .byte   W12
 .byte   Bn4 ,v060
 .byte   W12
 .byte   N24 ,Fs5 ,v127
 .byte   W24
 .byte   N12 ,En5
 .byte   W12
 .byte   N24
 .byte   W24
 .byte   N12 ,Dn5
 .byte   W12
@  #06 @068   ----------------------------------------
 .byte   Dn5 ,v060
 .byte   W12
 .byte   N84 ,En5 ,v127
 .byte   W36
 .byte   VOL , 40*PokemonMysteryDungeonExplorersofSkyInTheMorningSun_mvl/mxv
 .byte   W06
 .byte   VOL , 37*PokemonMysteryDungeonExplorersofSkyInTheMorningSun_mvl/mxv
 .byte   W06
 .byte   VOL , 34*PokemonMysteryDungeonExplorersofSkyInTheMorningSun_mvl/mxv
 .byte   W06
 .byte   VOL , 30*PokemonMysteryDungeonExplorersofSkyInTheMorningSun_mvl/mxv
 .byte   W06
 .byte   VOL , 28*PokemonMysteryDungeonExplorersofSkyInTheMorningSun_mvl/mxv
 .byte   W06
 .byte   VOL , 26*PokemonMysteryDungeonExplorersofSkyInTheMorningSun_mvl/mxv
 .byte   W06
 .byte   VOL , 23*PokemonMysteryDungeonExplorersofSkyInTheMorningSun_mvl/mxv
 .byte   W06
 .byte   VOL , 21*PokemonMysteryDungeonExplorersofSkyInTheMorningSun_mvl/mxv
 .byte   W06
@  #06 @069   ----------------------------------------
 .byte   VOL , 18*PokemonMysteryDungeonExplorersofSkyInTheMorningSun_mvl/mxv
 .byte   N24 ,En5 ,v060
 .byte   W06
 .byte   VOL , 16*PokemonMysteryDungeonExplorersofSkyInTheMorningSun_mvl/mxv
 .byte   W06
 .byte   VOL , 14*PokemonMysteryDungeonExplorersofSkyInTheMorningSun_mvl/mxv
 .byte   W06
 .byte   VOL , 12*PokemonMysteryDungeonExplorersofSkyInTheMorningSun_mvl/mxv
 .byte   W78
@  #06 @070   ----------------------------------------
 .byte   W96
@  #06 @071   ----------------------------------------
 .byte   W96
@  #06 @072   ----------------------------------------
 .byte   W96
@  #06 @073   ----------------------------------------
 .byte   W96
@  #06 @074   ----------------------------------------
 .byte   W96
@  #06 @075   ----------------------------------------
 .byte   W96
@  #06 @076   ----------------------------------------
 .byte   W96
@  #06 @077   ----------------------------------------
 .byte   W24
 .byte   VOL , 40*PokemonMysteryDungeonExplorersofSkyInTheMorningSun_mvl/mxv
 .byte   W72
@  #06 @078   ----------------------------------------
 .byte   N24 ,Dn4 ,v127
 .byte   W24
 .byte   N36 ,An4
 .byte   W36
 .byte   N12 ,An4 ,v060
 .byte   W12
 .byte   N24 ,An4 ,v127
 .byte   W24
@  #06 @079   ----------------------------------------
 .byte   N12 ,Bn4
 .byte   W12
 .byte   N36 ,An4
 .byte   W36
 .byte   N24 ,An4 ,v060
 .byte   W24
 .byte   N48 ,Gn4 ,v127
 .byte   W24
@  #06 @080   ----------------------------------------
 .byte   W24
 .byte   N36 ,Fs4
 .byte   W36
 .byte   N12 ,Fs4 ,v060
 .byte   W12
 .byte   N36 ,Bn4 ,v127
 .byte   W24
@  #06 @081   ----------------------------------------
 .byte   W12
 .byte   N12 ,Bn4 ,v060
 .byte   W12
 .byte   N36 ,Dn5 ,v127
 .byte   W36
 .byte   N12 ,Dn5 ,v060
 .byte   W12
 .byte   N36 ,En5 ,v127
 .byte   W24
@  #06 @082   ----------------------------------------
 .byte   W12
 .byte   N12 ,En5 ,v060
 .byte   W12
 .byte   N60 ,Fs5 ,v127
 .byte   W60
 .byte   N12 ,Fs5 ,v060
 .byte   W12
@  #06 @083   ----------------------------------------
Label_01687546:
 .byte   N12 ,En5 ,v127
 .byte   W12
 .byte   N84
 .byte   W84
 .byte   PEND 
@  #06 @084   ----------------------------------------
 .byte   N24 ,En5 ,v060
 .byte   W24
 .byte   N60 ,Fs5 ,v127
 .byte   W60
 .byte   N12 ,Fs5 ,v060
 .byte   W12
@  #06 @085   ----------------------------------------
 .byte   PATT
  .word Label_01687546
@  #06 @086   ----------------------------------------
 .byte   N24 ,En5 ,v060
 .byte   W24
 .byte   TIE ,An5 ,v127
 .byte   W72
@  #06 @087   ----------------------------------------
 .byte   W72
 .byte   EOT
 .byte   N24 ,An5 ,v060
 .byte   W24
@  #06 @088   ----------------------------------------
 .byte   An5 ,v036
 .byte   W24
 .byte   GOTO
  .word Label_016872C0
 .byte   FINE

@**************** Track 7 (Midi-Chn.6) ****************@

PokemonMysteryDungeonExplorersofSkyInTheMorningSun_007:
@  #07 @000   ----------------------------------------
 .byte   KEYSH , PokemonMysteryDungeonExplorersofSkyInTheMorningSun_key+0
 .byte   VOICE , 10
 .byte   MODT 0
 .byte   LFOS 44
 .byte   VOL , 24*PokemonMysteryDungeonExplorersofSkyInTheMorningSun_mvl/mxv
 .byte   PAN , c_v+0
 .byte   VOL , 24*PokemonMysteryDungeonExplorersofSkyInTheMorningSun_mvl/mxv
 .byte   BEND , c_v+0
 .byte   W24
 .byte   N05 ,Fs5 ,v108
 .byte   W12
 .byte   Fs5 ,v044
 .byte   W12
 .byte   Fs5 ,v020
 .byte   W12
 .byte   En5 ,v108
 .byte   W12
 .byte   En5 ,v044
 .byte   W12
 .byte   En5 ,v020
 .byte   W12
@  #07 @001   ----------------------------------------
Label_0168759C:
 .byte   W12
 .byte   N05 ,An5 ,v108
 .byte   W12
 .byte   An5 ,v044
 .byte   W12
 .byte   An5 ,v020
 .byte   W12
 .byte   An5 ,v064
 .byte   W12
 .byte   An5 ,v028
 .byte   W12
 .byte   An5 ,v016
 .byte   W12
 .byte   An5 ,v048
 .byte   W12
 .byte   PEND 
@  #07 @002   ----------------------------------------
Label_016875B4:
 .byte   N05 ,An5 ,v028
 .byte   W12
 .byte   An5 ,v016
 .byte   W12
 .byte   Fs5 ,v108
 .byte   N05 ,An5 ,v012
 .byte   W12
 .byte   Fs5 ,v044
 .byte   W12
 .byte   Fs5 ,v020
 .byte   W12
 .byte   En5 ,v108
 .byte   W12
 .byte   En5 ,v044
 .byte   W12
 .byte   En5 ,v020
 .byte   W12
 .byte   PEND 
@  #07 @003   ----------------------------------------
Label_016875D1:
 .byte   N05 ,An4 ,v108
 .byte   W12
 .byte   An4 ,v044
 .byte   W12
 .byte   An4 ,v020
 .byte   W12
 .byte   An4 ,v064
 .byte   W12
 .byte   An4 ,v028
 .byte   W12
 .byte   An4 ,v016
 .byte   W12
 .byte   An4 ,v048
 .byte   W12
 .byte   An4 ,v028
 .byte   W12
 .byte   PEND 
@  #07 @004   ----------------------------------------
 .byte   An4 ,v016
 .byte   W12
 .byte   An4 ,v012
 .byte   W12
 .byte   Fs5 ,v108
 .byte   W12
 .byte   Fs5 ,v044
 .byte   W12
 .byte   Fs5 ,v020
 .byte   W12
 .byte   En5 ,v108
 .byte   W12
 .byte   En5 ,v044
 .byte   W12
 .byte   En5 ,v020
 .byte   W12
@  #07 @005   ----------------------------------------
 .byte   PATT
  .word Label_0168759C
@  #07 @006   ----------------------------------------
 .byte   PATT
  .word Label_016875B4
@  #07 @007   ----------------------------------------
 .byte   PATT
  .word Label_016875D1
@  #07 @008   ----------------------------------------
 .byte   N05 ,An4 ,v016
 .byte   W12
 .byte   An4 ,v012
 .byte   W84
@  #07 @009   ----------------------------------------
 .byte   W96
@  #07 @010   ----------------------------------------
 .byte   W96
@  #07 @011   ----------------------------------------
 .byte   W96
@  #07 @012   ----------------------------------------
 .byte   W96
@  #07 @013   ----------------------------------------
 .byte   W96
@  #07 @014   ----------------------------------------
 .byte   W96
@  #07 @015   ----------------------------------------
 .byte   W96
@  #07 @016   ----------------------------------------
 .byte   W96
@  #07 @017   ----------------------------------------
 .byte   W96
@  #07 @018   ----------------------------------------
 .byte   W24
Label_01687623:
 .byte   BENDR, 127
 .byte   W12
 .byte   N01 ,Fs5 ,v092
 .byte   W12
 .byte   En5
 .byte   W12
 .byte   Bn4
 .byte   W12
 .byte   Fs5
 .byte   W12
 .byte   En5
 .byte   W12
@  #07 @019   ----------------------------------------
Label_01687632:
 .byte   N01 ,Bn4 ,v092
 .byte   W12
 .byte   Fs5
 .byte   W24
 .byte   En5
 .byte   W24
 .byte   An5
 .byte   W36
 .byte   PEND 
@  #07 @020   ----------------------------------------
Label_0168763D:
 .byte   W36
 .byte   N01 ,Fs5 ,v092
 .byte   W12
 .byte   En5
 .byte   W12
 .byte   Bn4
 .byte   W12
 .byte   Fs5
 .byte   W12
 .byte   En5
 .byte   W12
 .byte   PEND 
@  #07 @021   ----------------------------------------
Label_0168764B:
 .byte   N01 ,Bn4 ,v092
 .byte   W12
 .byte   Fs5
 .byte   W24
 .byte   En5
 .byte   W24
 .byte   An4
 .byte   W36
 .byte   PEND 
@  #07 @022   ----------------------------------------
 .byte   PATT
  .word Label_0168763D
@  #07 @023   ----------------------------------------
 .byte   PATT
  .word Label_0168764B
@  #07 @024   ----------------------------------------
 .byte   PATT
  .word Label_0168763D
@  #07 @025   ----------------------------------------
 .byte   N01 ,Bn4 ,v092
 .byte   W12
 .byte   An5
 .byte   W24
 .byte   Gn5
 .byte   W24
 .byte   Fs5
 .byte   W24
 .byte   En5
 .byte   W12
@  #07 @026   ----------------------------------------
 .byte   PATT
  .word Label_0168763D
@  #07 @027   ----------------------------------------
 .byte   PATT
  .word Label_01687632
@  #07 @028   ----------------------------------------
 .byte   PATT
  .word Label_0168763D
@  #07 @029   ----------------------------------------
 .byte   PATT
  .word Label_0168764B
@  #07 @030   ----------------------------------------
 .byte   PATT
  .word Label_0168763D
@  #07 @031   ----------------------------------------
 .byte   PATT
  .word Label_0168764B
@  #07 @032   ----------------------------------------
 .byte   PATT
  .word Label_0168763D
@  #07 @033   ----------------------------------------
 .byte   W12
 .byte   N01 ,Bn4 ,v092
 .byte   W84
@  #07 @034   ----------------------------------------
 .byte   W96
@  #07 @035   ----------------------------------------
 .byte   W96
@  #07 @036   ----------------------------------------
 .byte   W96
@  #07 @037   ----------------------------------------
 .byte   W96
@  #07 @038   ----------------------------------------
 .byte   W96
@  #07 @039   ----------------------------------------
 .byte   W96
@  #07 @040   ----------------------------------------
 .byte   W96
@  #07 @041   ----------------------------------------
 .byte   W96
@  #07 @042   ----------------------------------------
 .byte   W96
@  #07 @043   ----------------------------------------
 .byte   W96
@  #07 @044   ----------------------------------------
 .byte   W96
@  #07 @045   ----------------------------------------
 .byte   W96
@  #07 @046   ----------------------------------------
 .byte   W96
@  #07 @047   ----------------------------------------
 .byte   W96
@  #07 @048   ----------------------------------------
 .byte   W96
@  #07 @049   ----------------------------------------
 .byte   W96
@  #07 @050   ----------------------------------------
 .byte   W96
@  #07 @051   ----------------------------------------
 .byte   W96
@  #07 @052   ----------------------------------------
 .byte   W96
@  #07 @053   ----------------------------------------
 .byte   W96
@  #07 @054   ----------------------------------------
Label_016876AD:
 .byte   W36
 .byte   N01 ,Fs5 ,v100
 .byte   W12
 .byte   En5
 .byte   W12
 .byte   Bn4
 .byte   W12
 .byte   Fs5
 .byte   W12
 .byte   En5
 .byte   W12
 .byte   PEND 
@  #07 @055   ----------------------------------------
Label_016876BB:
 .byte   N01 ,Bn4 ,v100
 .byte   W12
 .byte   Fs5
 .byte   W24
 .byte   En5
 .byte   W24
 .byte   An5
 .byte   W36
 .byte   PEND 
@  #07 @056   ----------------------------------------
 .byte   PATT
  .word Label_016876AD
@  #07 @057   ----------------------------------------
Label_016876CB:
 .byte   N01 ,Bn4 ,v100
 .byte   W12
 .byte   Fs5
 .byte   W24
 .byte   En5
 .byte   W24
 .byte   An4
 .byte   W36
 .byte   PEND 
@  #07 @058   ----------------------------------------
 .byte   PATT
  .word Label_016876AD
@  #07 @059   ----------------------------------------
 .byte   PATT
  .word Label_016876CB
@  #07 @060   ----------------------------------------
 .byte   PATT
  .word Label_016876AD
@  #07 @061   ----------------------------------------
Label_016876E5:
 .byte   N01 ,Bn4 ,v100
 .byte   W12
 .byte   An5
 .byte   W24
 .byte   Gn5
 .byte   W24
 .byte   Fs5
 .byte   W24
 .byte   En5
 .byte   W12
 .byte   PEND 
@  #07 @062   ----------------------------------------
 .byte   PATT
  .word Label_016876AD
@  #07 @063   ----------------------------------------
 .byte   PATT
  .word Label_016876BB
@  #07 @064   ----------------------------------------
 .byte   PATT
  .word Label_016876AD
@  #07 @065   ----------------------------------------
 .byte   PATT
  .word Label_016876CB
@  #07 @066   ----------------------------------------
 .byte   PATT
  .word Label_016876AD
@  #07 @067   ----------------------------------------
 .byte   N01 ,Bn4 ,v100
 .byte   W12
 .byte   Fs5
 .byte   W24
 .byte   En5
 .byte   W24
 .byte   Bn4
 .byte   W36
@  #07 @068   ----------------------------------------
 .byte   PATT
  .word Label_016876AD
@  #07 @069   ----------------------------------------
 .byte   W12
 .byte   N01 ,An5 ,v100
 .byte   W84
@  #07 @070   ----------------------------------------
 .byte   PATT
  .word Label_016876AD
@  #07 @071   ----------------------------------------
 .byte   PATT
  .word Label_016876BB
@  #07 @072   ----------------------------------------
 .byte   PATT
  .word Label_016876AD
@  #07 @073   ----------------------------------------
 .byte   PATT
  .word Label_016876CB
@  #07 @074   ----------------------------------------
 .byte   PATT
  .word Label_016876AD
@  #07 @075   ----------------------------------------
 .byte   PATT
  .word Label_016876CB
@  #07 @076   ----------------------------------------
 .byte   PATT
  .word Label_016876AD
@  #07 @077   ----------------------------------------
 .byte   PATT
  .word Label_016876E5
@  #07 @078   ----------------------------------------
 .byte   PATT
  .word Label_016876AD
@  #07 @079   ----------------------------------------
 .byte   PATT
  .word Label_016876BB
@  #07 @080   ----------------------------------------
 .byte   PATT
  .word Label_016876AD
@  #07 @081   ----------------------------------------
 .byte   PATT
  .word Label_016876CB
@  #07 @082   ----------------------------------------
 .byte   PATT
  .word Label_016876AD
@  #07 @083   ----------------------------------------
 .byte   PATT
  .word Label_016876BB
@  #07 @084   ----------------------------------------
 .byte   PATT
  .word Label_016876AD
@  #07 @085   ----------------------------------------
 .byte   W12
 .byte   N01 ,Fs5 ,v100
 .byte   W84
@  #07 @086   ----------------------------------------
 .byte   W96
@  #07 @087   ----------------------------------------
 .byte   W96
@  #07 @088   ----------------------------------------
 .byte   W24
 .byte   GOTO
  .word Label_01687623
 .byte   FINE

@**************** Track 8 (Midi-Chn.7) ****************@

PokemonMysteryDungeonExplorersofSkyInTheMorningSun_008:
@  #08 @000   ----------------------------------------
 .byte   KEYSH , PokemonMysteryDungeonExplorersofSkyInTheMorningSun_key+0
 .byte   VOICE , 74
 .byte   MODT 0
 .byte   LFOS 44
 .byte   VOL , 48*PokemonMysteryDungeonExplorersofSkyInTheMorningSun_mvl/mxv
 .byte   PAN , c_v+10
 .byte   VOL , 48*PokemonMysteryDungeonExplorersofSkyInTheMorningSun_mvl/mxv
 .byte   BEND , c_v+0
 .byte   W96
@  #08 @001   ----------------------------------------
 .byte   W96
@  #08 @002   ----------------------------------------
 .byte   W96
@  #08 @003   ----------------------------------------
 .byte   W96
@  #08 @004   ----------------------------------------
 .byte   W96
@  #08 @005   ----------------------------------------
 .byte   W96
@  #08 @006   ----------------------------------------
 .byte   W96
@  #08 @007   ----------------------------------------
 .byte   W96
@  #08 @008   ----------------------------------------
 .byte   W96
@  #08 @009   ----------------------------------------
 .byte   W96
@  #08 @010   ----------------------------------------
 .byte   W96
@  #08 @011   ----------------------------------------
 .byte   W96
@  #08 @012   ----------------------------------------
 .byte   W96
@  #08 @013   ----------------------------------------
 .byte   W96
@  #08 @014   ----------------------------------------
 .byte   W96
@  #08 @015   ----------------------------------------
 .byte   W96
@  #08 @016   ----------------------------------------
 .byte   W24
 .byte   VOL , 15*PokemonMysteryDungeonExplorersofSkyInTheMorningSun_mvl/mxv
 .byte   PAN , c_v-64
 .byte   VOL , 15*PokemonMysteryDungeonExplorersofSkyInTheMorningSun_mvl/mxv
 .byte   BEND , c_v+0
 .byte   W72
@  #08 @017   ----------------------------------------
 .byte   W48
 .byte   VOL , 15*PokemonMysteryDungeonExplorersofSkyInTheMorningSun_mvl/mxv
 .byte   W48
@  #08 @018   ----------------------------------------
 .byte   W24
Label_016877A7:
 .byte   N24 ,Fs4 ,v084
 .byte   W24
 .byte   N36 ,Cs5
 .byte   W36
 .byte   N12 ,Bn4
 .byte   W12
@  #08 @019   ----------------------------------------
 .byte   Bn4 ,v032
 .byte   W12
 .byte   Bn4 ,v016
 .byte   W12
 .byte   N72 ,Fs4 ,v084
 .byte   W42
 .byte   VOL , 15*PokemonMysteryDungeonExplorersofSkyInTheMorningSun_mvl/mxv
 .byte   W06
 .byte   VOL , 13*PokemonMysteryDungeonExplorersofSkyInTheMorningSun_mvl/mxv
 .byte   W06
 .byte   VOL , 11*PokemonMysteryDungeonExplorersofSkyInTheMorningSun_mvl/mxv
 .byte   W06
 .byte   VOL , 10*PokemonMysteryDungeonExplorersofSkyInTheMorningSun_mvl/mxv
 .byte   W06
 .byte   VOL , 9*PokemonMysteryDungeonExplorersofSkyInTheMorningSun_mvl/mxv
 .byte   W06
@  #08 @020   ----------------------------------------
 .byte   VOL , 8*PokemonMysteryDungeonExplorersofSkyInTheMorningSun_mvl/mxv
 .byte   N24 ,Fs4 ,v032
 .byte   W24
 .byte   Fs4 ,v016
 .byte   W24
 .byte   VOL , 15*PokemonMysteryDungeonExplorersofSkyInTheMorningSun_mvl/mxv
 .byte   N36 ,En4 ,v084
 .byte   W36
 .byte   N12 ,An4
 .byte   W12
@  #08 @021   ----------------------------------------
 .byte   An4 ,v032
 .byte   W12
 .byte   An4 ,v016
 .byte   W12
 .byte   N72 ,Fs4 ,v084
 .byte   W12
 .byte   VOL , 15*PokemonMysteryDungeonExplorersofSkyInTheMorningSun_mvl/mxv
 .byte   W06
 .byte   VOL , 14*PokemonMysteryDungeonExplorersofSkyInTheMorningSun_mvl/mxv
 .byte   W06
 .byte   VOL , 13*PokemonMysteryDungeonExplorersofSkyInTheMorningSun_mvl/mxv
 .byte   W06
 .byte   VOL , 12*PokemonMysteryDungeonExplorersofSkyInTheMorningSun_mvl/mxv
 .byte   W06
 .byte   VOL , 11*PokemonMysteryDungeonExplorersofSkyInTheMorningSun_mvl/mxv
 .byte   W06
 .byte   VOL , 11*PokemonMysteryDungeonExplorersofSkyInTheMorningSun_mvl/mxv
 .byte   W06
 .byte   VOL , 10*PokemonMysteryDungeonExplorersofSkyInTheMorningSun_mvl/mxv
 .byte   W06
 .byte   VOL , 10*PokemonMysteryDungeonExplorersofSkyInTheMorningSun_mvl/mxv
 .byte   W06
 .byte   VOL , 8*PokemonMysteryDungeonExplorersofSkyInTheMorningSun_mvl/mxv
 .byte   W06
 .byte   VOL , 8*PokemonMysteryDungeonExplorersofSkyInTheMorningSun_mvl/mxv
 .byte   W06
@  #08 @022   ----------------------------------------
 .byte   VOL , 7*PokemonMysteryDungeonExplorersofSkyInTheMorningSun_mvl/mxv
 .byte   N12 ,Fs4 ,v032
 .byte   W06
 .byte   VOL , 6*PokemonMysteryDungeonExplorersofSkyInTheMorningSun_mvl/mxv
 .byte   W06
 .byte   VOL , 6*PokemonMysteryDungeonExplorersofSkyInTheMorningSun_mvl/mxv
 .byte   N12 ,Fs4 ,v016
 .byte   W12
 .byte   VOL , 15*PokemonMysteryDungeonExplorersofSkyInTheMorningSun_mvl/mxv
 .byte   N24 ,Fs3 ,v084
 .byte   W24
 .byte   Bn3
 .byte   W24
 .byte   N12 ,Fs3
 .byte   W12
 .byte   N24 ,Cs4
 .byte   W12
@  #08 @023   ----------------------------------------
 .byte   W12
 .byte   N12 ,Fs3
 .byte   W12
 .byte   Fs3 ,v032
 .byte   W12
 .byte   N24 ,Dn4 ,v084
 .byte   W24
 .byte   N12 ,Fs3
 .byte   W12
 .byte   Fs3 ,v032
 .byte   W12
 .byte   N24 ,En4 ,v084
 .byte   W12
@  #08 @024   ----------------------------------------
 .byte   W12
 .byte   N12 ,An4
 .byte   W12
 .byte   An4 ,v032
 .byte   W12
 .byte   TIE ,Fs4 ,v084
 .byte   W30
 .byte   VOL , 14*PokemonMysteryDungeonExplorersofSkyInTheMorningSun_mvl/mxv
 .byte   W06
 .byte   VOL , 14*PokemonMysteryDungeonExplorersofSkyInTheMorningSun_mvl/mxv
 .byte   W06
 .byte   VOL , 13*PokemonMysteryDungeonExplorersofSkyInTheMorningSun_mvl/mxv
 .byte   W06
 .byte   VOL , 11*PokemonMysteryDungeonExplorersofSkyInTheMorningSun_mvl/mxv
 .byte   W06
 .byte   VOL , 11*PokemonMysteryDungeonExplorersofSkyInTheMorningSun_mvl/mxv
 .byte   W06
@  #08 @025   ----------------------------------------
 .byte   VOL , 10*PokemonMysteryDungeonExplorersofSkyInTheMorningSun_mvl/mxv
 .byte   W06
 .byte   VOL , 10*PokemonMysteryDungeonExplorersofSkyInTheMorningSun_mvl/mxv
 .byte   W06
 .byte   VOL , 9*PokemonMysteryDungeonExplorersofSkyInTheMorningSun_mvl/mxv
 .byte   W06
 .byte   VOL , 8*PokemonMysteryDungeonExplorersofSkyInTheMorningSun_mvl/mxv
 .byte   W06
 .byte   VOL , 7*PokemonMysteryDungeonExplorersofSkyInTheMorningSun_mvl/mxv
 .byte   W06
 .byte   VOL , 6*PokemonMysteryDungeonExplorersofSkyInTheMorningSun_mvl/mxv
 .byte   W06
 .byte   VOL , 6*PokemonMysteryDungeonExplorersofSkyInTheMorningSun_mvl/mxv
 .byte   W06
 .byte   VOL , 5*PokemonMysteryDungeonExplorersofSkyInTheMorningSun_mvl/mxv
 .byte   W06
 .byte   VOL , 5*PokemonMysteryDungeonExplorersofSkyInTheMorningSun_mvl/mxv
 .byte   W06
 .byte   VOL , 4*PokemonMysteryDungeonExplorersofSkyInTheMorningSun_mvl/mxv
 .byte   W06
 .byte   VOL , 3*PokemonMysteryDungeonExplorersofSkyInTheMorningSun_mvl/mxv
 .byte   W06
 .byte   VOL , 3*PokemonMysteryDungeonExplorersofSkyInTheMorningSun_mvl/mxv
 .byte   W06
 .byte   EOT
 .byte   N12 ,Fs4 ,v032
 .byte   W12
 .byte   Fs4 ,v016
 .byte   W12
@  #08 @026   ----------------------------------------
 .byte   Fs4 ,v008
 .byte   W12
 .byte   Fs4 ,v004
 .byte   W12
 .byte   VOL , 15*PokemonMysteryDungeonExplorersofSkyInTheMorningSun_mvl/mxv
 .byte   N24 ,Fs5 ,v084
 .byte   W24
 .byte   N36 ,Cs6
 .byte   W36
 .byte   N12 ,Bn5
 .byte   W12
@  #08 @027   ----------------------------------------
 .byte   Bn5 ,v032
 .byte   W12
 .byte   Bn5 ,v016
 .byte   W12
 .byte   N72 ,Fs5 ,v084
 .byte   W30
 .byte   VOL , 14*PokemonMysteryDungeonExplorersofSkyInTheMorningSun_mvl/mxv
 .byte   W06
 .byte   VOL , 13*PokemonMysteryDungeonExplorersofSkyInTheMorningSun_mvl/mxv
 .byte   W06
 .byte   VOL , 12*PokemonMysteryDungeonExplorersofSkyInTheMorningSun_mvl/mxv
 .byte   W06
 .byte   VOL , 11*PokemonMysteryDungeonExplorersofSkyInTheMorningSun_mvl/mxv
 .byte   W06
 .byte   VOL , 10*PokemonMysteryDungeonExplorersofSkyInTheMorningSun_mvl/mxv
 .byte   W06
 .byte   VOL , 10*PokemonMysteryDungeonExplorersofSkyInTheMorningSun_mvl/mxv
 .byte   W06
 .byte   VOL , 8*PokemonMysteryDungeonExplorersofSkyInTheMorningSun_mvl/mxv
 .byte   W06
@  #08 @028   ----------------------------------------
 .byte   VOL , 8*PokemonMysteryDungeonExplorersofSkyInTheMorningSun_mvl/mxv
 .byte   N12 ,Fs5 ,v032
 .byte   W06
 .byte   VOL , 6*PokemonMysteryDungeonExplorersofSkyInTheMorningSun_mvl/mxv
 .byte   W06
 .byte   VOL , 6*PokemonMysteryDungeonExplorersofSkyInTheMorningSun_mvl/mxv
 .byte   N12 ,Fs5 ,v016
 .byte   W06
 .byte   VOL , 5*PokemonMysteryDungeonExplorersofSkyInTheMorningSun_mvl/mxv
 .byte   W06
 .byte   N12 ,Fs5 ,v008
 .byte   W12
 .byte   Fs5 ,v004
 .byte   W12
 .byte   VOL , 15*PokemonMysteryDungeonExplorersofSkyInTheMorningSun_mvl/mxv
 .byte   N36 ,En5 ,v084
 .byte   W36
 .byte   N12 ,An5
 .byte   W12
@  #08 @029   ----------------------------------------
 .byte   An5 ,v032
 .byte   W12
 .byte   An5 ,v016
 .byte   W12
 .byte   N72 ,Fs5 ,v084
 .byte   W12
 .byte   VOL , 14*PokemonMysteryDungeonExplorersofSkyInTheMorningSun_mvl/mxv
 .byte   W06
 .byte   VOL , 13*PokemonMysteryDungeonExplorersofSkyInTheMorningSun_mvl/mxv
 .byte   W06
 .byte   VOL , 11*PokemonMysteryDungeonExplorersofSkyInTheMorningSun_mvl/mxv
 .byte   W06
 .byte   VOL , 10*PokemonMysteryDungeonExplorersofSkyInTheMorningSun_mvl/mxv
 .byte   W06
 .byte   VOL , 9*PokemonMysteryDungeonExplorersofSkyInTheMorningSun_mvl/mxv
 .byte   W06
 .byte   VOL , 8*PokemonMysteryDungeonExplorersofSkyInTheMorningSun_mvl/mxv
 .byte   W06
 .byte   VOL , 6*PokemonMysteryDungeonExplorersofSkyInTheMorningSun_mvl/mxv
 .byte   W06
 .byte   VOL , 5*PokemonMysteryDungeonExplorersofSkyInTheMorningSun_mvl/mxv
 .byte   W06
 .byte   VOL , 5*PokemonMysteryDungeonExplorersofSkyInTheMorningSun_mvl/mxv
 .byte   W12
@  #08 @030   ----------------------------------------
 .byte   N12 ,Fs5 ,v032
 .byte   W12
 .byte   Fs5 ,v016
 .byte   W12
 .byte   VOL , 15*PokemonMysteryDungeonExplorersofSkyInTheMorningSun_mvl/mxv
 .byte   N24 ,An4 ,v084
 .byte   W24
 .byte   Bn4
 .byte   W24
 .byte   N12 ,Fs5
 .byte   W12
 .byte   N24
 .byte   W12
@  #08 @031   ----------------------------------------
 .byte   W12
 .byte   N12
 .byte   W12
 .byte   Fs5 ,v032
 .byte   W12
 .byte   N24 ,Fs5 ,v084
 .byte   W24
 .byte   N12 ,En5
 .byte   W12
 .byte   En5 ,v112
 .byte   W12
 .byte   N24 ,Dn5 ,v084
 .byte   W12
@  #08 @032   ----------------------------------------
 .byte   W12
 .byte   N12 ,En5
 .byte   W12
 .byte   En5 ,v032
 .byte   W12
 .byte   TIE ,Dn5 ,v084
 .byte   W24
 .byte   VOL , 14*PokemonMysteryDungeonExplorersofSkyInTheMorningSun_mvl/mxv
 .byte   W06
 .byte   VOL , 14*PokemonMysteryDungeonExplorersofSkyInTheMorningSun_mvl/mxv
 .byte   W06
 .byte   VOL , 13*PokemonMysteryDungeonExplorersofSkyInTheMorningSun_mvl/mxv
 .byte   W06
 .byte   VOL , 12*PokemonMysteryDungeonExplorersofSkyInTheMorningSun_mvl/mxv
 .byte   W06
 .byte   VOL , 11*PokemonMysteryDungeonExplorersofSkyInTheMorningSun_mvl/mxv
 .byte   W06
 .byte   VOL , 11*PokemonMysteryDungeonExplorersofSkyInTheMorningSun_mvl/mxv
 .byte   W06
@  #08 @033   ----------------------------------------
 .byte   VOL , 10*PokemonMysteryDungeonExplorersofSkyInTheMorningSun_mvl/mxv
 .byte   W06
 .byte   VOL , 10*PokemonMysteryDungeonExplorersofSkyInTheMorningSun_mvl/mxv
 .byte   W06
 .byte   VOL , 9*PokemonMysteryDungeonExplorersofSkyInTheMorningSun_mvl/mxv
 .byte   W06
 .byte   VOL , 8*PokemonMysteryDungeonExplorersofSkyInTheMorningSun_mvl/mxv
 .byte   W06
 .byte   VOL , 8*PokemonMysteryDungeonExplorersofSkyInTheMorningSun_mvl/mxv
 .byte   W06
 .byte   VOL , 7*PokemonMysteryDungeonExplorersofSkyInTheMorningSun_mvl/mxv
 .byte   W06
 .byte   VOL , 6*PokemonMysteryDungeonExplorersofSkyInTheMorningSun_mvl/mxv
 .byte   W06
 .byte   VOL , 6*PokemonMysteryDungeonExplorersofSkyInTheMorningSun_mvl/mxv
 .byte   W06
 .byte   VOL , 6*PokemonMysteryDungeonExplorersofSkyInTheMorningSun_mvl/mxv
 .byte   W06
 .byte   VOL , 5*PokemonMysteryDungeonExplorersofSkyInTheMorningSun_mvl/mxv
 .byte   W06
 .byte   VOL , 5*PokemonMysteryDungeonExplorersofSkyInTheMorningSun_mvl/mxv
 .byte   W06
 .byte   VOL , 5*PokemonMysteryDungeonExplorersofSkyInTheMorningSun_mvl/mxv
 .byte   W06
 .byte   EOT
 .byte   VOL , 4*PokemonMysteryDungeonExplorersofSkyInTheMorningSun_mvl/mxv
 .byte   N12 ,Dn5 ,v032
 .byte   W06
 .byte   VOL , 3*PokemonMysteryDungeonExplorersofSkyInTheMorningSun_mvl/mxv
 .byte   W06
 .byte   VOL , 3*PokemonMysteryDungeonExplorersofSkyInTheMorningSun_mvl/mxv
 .byte   N12 ,Dn5 ,v016
 .byte   W12
@  #08 @034   ----------------------------------------
 .byte   Dn5 ,v008
 .byte   W12
 .byte   Dn5 ,v004
 .byte   W48
 .byte   VOL , 8*PokemonMysteryDungeonExplorersofSkyInTheMorningSun_mvl/mxv
 .byte   PAN , c_v+10
 .byte   VOL , 33*PokemonMysteryDungeonExplorersofSkyInTheMorningSun_mvl/mxv
 .byte   BEND , c_v+0
 .byte   W36
@  #08 @035   ----------------------------------------
 .byte   W24
 .byte   N06 ,En4 ,v127
 .byte   W36
 .byte   Dn4
 .byte   W36
@  #08 @036   ----------------------------------------
 .byte   W96
@  #08 @037   ----------------------------------------
 .byte   W24
 .byte   Gn4
 .byte   W36
 .byte   Fn4
 .byte   W36
@  #08 @038   ----------------------------------------
 .byte   W24
 .byte   As3
 .byte   W36
 .byte   Dn4
 .byte   W36
@  #08 @039   ----------------------------------------
 .byte   W24
 .byte   Cn4
 .byte   W36
 .byte   En4
 .byte   W36
@  #08 @040   ----------------------------------------
 .byte   W24
 .byte   Dn4
 .byte   W36
 .byte   An4
 .byte   W36
@  #08 @041   ----------------------------------------
 .byte   W12
 .byte   N06
 .byte   W84
@  #08 @042   ----------------------------------------
 .byte   W24
 .byte   Dn4
 .byte   W36
 .byte   As3
 .byte   W36
@  #08 @043   ----------------------------------------
 .byte   W24
 .byte   Fn4
 .byte   W36
 .byte   Cn4
 .byte   W36
@  #08 @044   ----------------------------------------
 .byte   W24
 .byte   Gn4
 .byte   W36
 .byte   Dn4
 .byte   W36
@  #08 @045   ----------------------------------------
 .byte   W12
 .byte   N06
 .byte   W84
@  #08 @046   ----------------------------------------
 .byte   W96
@  #08 @047   ----------------------------------------
 .byte   W24
 .byte   Ds4
 .byte   W36
 .byte   Cn4
 .byte   W36
@  #08 @048   ----------------------------------------
 .byte   Gn4
 .byte   W96
@  #08 @049   ----------------------------------------
 .byte   W24
 .byte   Cn4
 .byte   W36
 .byte   An3
 .byte   W36
@  #08 @050   ----------------------------------------
 .byte   Ds4
 .byte   W96
@  #08 @051   ----------------------------------------
 .byte   W24
 .byte   Dn4
 .byte   W36
 .byte   An3
 .byte   W36
@  #08 @052   ----------------------------------------
 .byte   Gn4
 .byte   W96
@  #08 @053   ----------------------------------------
 .byte   W96
@  #08 @054   ----------------------------------------
Label_01687982:
 .byte   W24
 .byte   N06 ,Fs4 ,v127
 .byte   W36
 .byte   En4
 .byte   W36
 .byte   PEND 
@  #08 @055   ----------------------------------------
 .byte   An4
 .byte   W96
@  #08 @056   ----------------------------------------
 .byte   PATT
  .word Label_01687982
@  #08 @057   ----------------------------------------
 .byte   N06 ,An3 ,v127
 .byte   W96
@  #08 @058   ----------------------------------------
 .byte   PATT
  .word Label_01687982
@  #08 @059   ----------------------------------------
 .byte   N06 ,An4 ,v127
 .byte   W96
@  #08 @060   ----------------------------------------
 .byte   PATT
  .word Label_01687982
@  #08 @061   ----------------------------------------
 .byte   N06 ,An3 ,v127
 .byte   W96
@  #08 @062   ----------------------------------------
 .byte   PATT
  .word Label_01687982
@  #08 @063   ----------------------------------------
 .byte   N06 ,An4 ,v127
 .byte   W96
@  #08 @064   ----------------------------------------
 .byte   PATT
  .word Label_01687982
@  #08 @065   ----------------------------------------
 .byte   N06 ,An3 ,v127
 .byte   W96
@  #08 @066   ----------------------------------------
 .byte   PATT
  .word Label_01687982
@  #08 @067   ----------------------------------------
 .byte   PATT
  .word Label_01687982
@  #08 @068   ----------------------------------------
 .byte   W24
 .byte   N06 ,En4 ,v127
 .byte   W72
@  #08 @069   ----------------------------------------
 .byte   W96
@  #08 @070   ----------------------------------------
Label_016879C9:
 .byte   W24
 .byte   N06 ,Fs4 ,v088
 .byte   W36
 .byte   En4
 .byte   W36
 .byte   PEND 
@  #08 @071   ----------------------------------------
 .byte   An4
 .byte   W96
@  #08 @072   ----------------------------------------
 .byte   PATT
  .word Label_016879C9
@  #08 @073   ----------------------------------------
 .byte   N06 ,An3 ,v040
 .byte   W96
@  #08 @074   ----------------------------------------
 .byte   PATT
  .word Label_016879C9
@  #08 @075   ----------------------------------------
 .byte   N06 ,An4 ,v088
 .byte   W96
@  #08 @076   ----------------------------------------
 .byte   PATT
  .word Label_016879C9
@  #08 @077   ----------------------------------------
 .byte   N06 ,An3 ,v040
 .byte   W96
@  #08 @078   ----------------------------------------
 .byte   W96
@  #08 @079   ----------------------------------------
 .byte   W96
@  #08 @080   ----------------------------------------
 .byte   W96
@  #08 @081   ----------------------------------------
 .byte   W96
@  #08 @082   ----------------------------------------
 .byte   W96
@  #08 @083   ----------------------------------------
 .byte   W96
@  #08 @084   ----------------------------------------
 .byte   W96
@  #08 @085   ----------------------------------------
 .byte   W96
@  #08 @086   ----------------------------------------
 .byte   W48
 .byte   VOL , 15*PokemonMysteryDungeonExplorersofSkyInTheMorningSun_mvl/mxv
 .byte   PAN , c_v-64
 .byte   VOL , 15*PokemonMysteryDungeonExplorersofSkyInTheMorningSun_mvl/mxv
 .byte   BEND , c_v+0
 .byte   W48
@  #08 @087   ----------------------------------------
 .byte   W96
@  #08 @088   ----------------------------------------
 .byte   W24
 .byte   GOTO
  .word Label_016877A7
 .byte   FINE

@**************** Track 9 (Midi-Chn.8) ****************@

PokemonMysteryDungeonExplorersofSkyInTheMorningSun_009:
@  #09 @000   ----------------------------------------
 .byte   KEYSH , PokemonMysteryDungeonExplorersofSkyInTheMorningSun_key+0
 .byte   VOICE , 11
 .byte   MODT 0
 .byte   LFOS 44
 .byte   VOL , 48*PokemonMysteryDungeonExplorersofSkyInTheMorningSun_mvl/mxv
 .byte   PAN , c_v+0
 .byte   VOL , 10*PokemonMysteryDungeonExplorersofSkyInTheMorningSun_mvl/mxv
 .byte   PAN , c_v+63
 .byte   VOL , 10*PokemonMysteryDungeonExplorersofSkyInTheMorningSun_mvl/mxv
 .byte   BEND , c_v+0
 .byte   W24
 .byte   N17 ,Bn4 ,v088
 .byte   W24
 .byte   N30 ,Fs5
 .byte   W48
@  #09 @001   ----------------------------------------
Label_01687A24:
 .byte   N17 ,Fs5 ,v088
 .byte   W24
 .byte   N07 ,Gn5 ,v084
 .byte   W12
 .byte   N42 ,An5 ,v076
 .byte   W60
 .byte   PEND 
@  #09 @002   ----------------------------------------
Label_01687A31:
 .byte   N17 ,An5 ,v088
 .byte   W24
 .byte   N07 ,Cs6
 .byte   W12
 .byte   TIE ,Dn6 ,v036
 .byte   W60
 .byte   PEND 
@  #09 @003   ----------------------------------------
 .byte   W92
 .byte   EOT
 .byte   W04
@  #09 @004   ----------------------------------------
 .byte   W24
 .byte   N17 ,Bn4 ,v088
 .byte   W24
 .byte   N30 ,Fs5
 .byte   W48
@  #09 @005   ----------------------------------------
 .byte   PATT
  .word Label_01687A24
@  #09 @006   ----------------------------------------
 .byte   PATT
  .word Label_01687A31
@  #09 @007   ----------------------------------------
 .byte   W92
 .byte   EOT
 .byte   Dn6
 .byte   W04
@  #09 @008   ----------------------------------------
 .byte   W96
@  #09 @009   ----------------------------------------
 .byte   W96
@  #09 @010   ----------------------------------------
 .byte   W96
@  #09 @011   ----------------------------------------
 .byte   W96
@  #09 @012   ----------------------------------------
 .byte   W96
@  #09 @013   ----------------------------------------
 .byte   W96
@  #09 @014   ----------------------------------------
 .byte   W96
@  #09 @015   ----------------------------------------
 .byte   W96
@  #09 @016   ----------------------------------------
 .byte   W96
@  #09 @017   ----------------------------------------
 .byte   W96
@  #09 @018   ----------------------------------------
 .byte   W24
Label_01687A61:
 .byte   PAN , c_v+63
 .byte   W72
@  #09 @019   ----------------------------------------
 .byte   W96
@  #09 @020   ----------------------------------------
 .byte   W96
@  #09 @021   ----------------------------------------
 .byte   W96
@  #09 @022   ----------------------------------------
 .byte   W96
@  #09 @023   ----------------------------------------
 .byte   W96
@  #09 @024   ----------------------------------------
 .byte   W96
@  #09 @025   ----------------------------------------
 .byte   W96
@  #09 @026   ----------------------------------------
 .byte   W96
@  #09 @027   ----------------------------------------
 .byte   W96
@  #09 @028   ----------------------------------------
 .byte   W96
@  #09 @029   ----------------------------------------
 .byte   W96
@  #09 @030   ----------------------------------------
 .byte   W96
@  #09 @031   ----------------------------------------
 .byte   W96
@  #09 @032   ----------------------------------------
 .byte   W24
 .byte   VOL , 10*PokemonMysteryDungeonExplorersofSkyInTheMorningSun_mvl/mxv
 .byte   PAN , c_v+0
 .byte   VOL , 48*PokemonMysteryDungeonExplorersofSkyInTheMorningSun_mvl/mxv
 .byte   BEND , c_v+0
 .byte   W72
@  #09 @033   ----------------------------------------
 .byte   W24
 .byte   VOL , 48*PokemonMysteryDungeonExplorersofSkyInTheMorningSun_mvl/mxv
 .byte   W48
 .byte   N12 ,Dn4 ,v108
 .byte   W12
 .byte   En4
 .byte   W12
@  #09 @034   ----------------------------------------
 .byte   Fs4
 .byte   W12
 .byte   Gn4
 .byte   W12
 .byte   N48 ,An4
 .byte   W48
 .byte   N12 ,An4 ,v060
 .byte   W12
 .byte   An4 ,v036
 .byte   W12
@  #09 @035   ----------------------------------------
 .byte   Dn4 ,v108
 .byte   W12
 .byte   N84
 .byte   W84
@  #09 @036   ----------------------------------------
 .byte   N12 ,Dn4 ,v060
 .byte   W12
 .byte   Dn4 ,v036
 .byte   W12
 .byte   N24 ,Cn4 ,v108
 .byte   W24
 .byte   N12 ,Fn4
 .byte   W12
 .byte   N24
 .byte   W24
 .byte   N12 ,Cn4
 .byte   W12
@  #09 @037   ----------------------------------------
 .byte   Cn4 ,v060
 .byte   W12
 .byte   N84 ,Cn4 ,v108
 .byte   W84
@  #09 @038   ----------------------------------------
 .byte   N12 ,Cn4 ,v060
 .byte   W12
 .byte   Cn4 ,v036
 .byte   W12
 .byte   N24 ,As3 ,v108
 .byte   W24
 .byte   N12 ,Fn4
 .byte   W12
 .byte   N24
 .byte   W24
 .byte   N12 ,Fn4 ,v060
 .byte   W12
@  #09 @039   ----------------------------------------
 .byte   Fn4 ,v036
 .byte   W12
 .byte   Fn4 ,v028
 .byte   W12
 .byte   N24 ,Cn4 ,v108
 .byte   W24
 .byte   N12 ,Gn4
 .byte   W12
 .byte   N24
 .byte   W24
 .byte   N12 ,Gn4 ,v060
 .byte   W12
@  #09 @040   ----------------------------------------
 .byte   Gn4 ,v036
 .byte   W12
 .byte   Gn4 ,v028
 .byte   W12
 .byte   N24 ,Dn4 ,v108
 .byte   W24
 .byte   N12 ,An4
 .byte   W12
 .byte   N24
 .byte   W24
 .byte   N12 ,Gn4
 .byte   W12
@  #09 @041   ----------------------------------------
 .byte   Gn4 ,v060
 .byte   W12
 .byte   N40 ,An4 ,v108
 .byte   W60
 .byte   N12 ,En4 ,v100
 .byte   N12 ,Gn4
 .byte   W12
 .byte   Fs4
 .byte   N12 ,An4
 .byte   W12
@  #09 @042   ----------------------------------------
 .byte   Gn4
 .byte   N12 ,As4
 .byte   W12
 .byte   An4
 .byte   N12 ,Cn5
 .byte   W12
 .byte   N24 ,As4
 .byte   N24 ,Dn5
 .byte   W24
 .byte   N12 ,Gn4
 .byte   N12 ,As4
 .byte   W12
 .byte   N36 ,Gn4
 .byte   N36 ,As4
 .byte   W36
@  #09 @043   ----------------------------------------
 .byte   N12 ,Gn4 ,v060
 .byte   N12 ,As4
 .byte   W12
 .byte   Gn4 ,v036
 .byte   N12 ,As4
 .byte   W12
 .byte   N24 ,Cn5 ,v100
 .byte   N24 ,Fn5
 .byte   W24
 .byte   N12 ,An4
 .byte   N12 ,Cn5
 .byte   W12
 .byte   N36 ,An4
 .byte   N36 ,Cn5
 .byte   W36
@  #09 @044   ----------------------------------------
 .byte   N12 ,An4 ,v060
 .byte   N12 ,Cn5
 .byte   W12
 .byte   An4 ,v036
 .byte   N12 ,Cn5
 .byte   W12
 .byte   N24 ,Cn5 ,v100
 .byte   N24 ,Gn5
 .byte   W24
 .byte   N12 ,Bn4
 .byte   N12 ,Dn5
 .byte   W12
 .byte   N24 ,Bn4
 .byte   N24 ,Dn5
 .byte   W24
 .byte   N12 ,An4
 .byte   N12 ,Cn5
 .byte   W12
@  #09 @045   ----------------------------------------
 .byte   An4 ,v060
 .byte   N12 ,Cn5
 .byte   W12
 .byte   N60 ,Bn4 ,v100
 .byte   N60 ,Dn5
 .byte   W60
 .byte   N12 ,Bn4 ,v060
 .byte   N12 ,Dn5
 .byte   W12
 .byte   Bn4 ,v036
 .byte   N12 ,Dn5
 .byte   W12
@  #09 @046   ----------------------------------------
 .byte   N24 ,Bn4 ,v100
 .byte   N24 ,Dn5
 .byte   W24
 .byte   TIE ,As4
 .byte   TIE ,Ds5
 .byte   W72
@  #09 @047   ----------------------------------------
 .byte   W96
@  #09 @048   ----------------------------------------
 .byte   W96
@  #09 @049   ----------------------------------------
 .byte   EOT
 .byte   As4 ,v087
 .byte   N12 ,As4 ,v060
 .byte   N12 ,Ds5
 .byte   W12
 .byte   As4 ,v036
 .byte   N12 ,Ds5
 .byte   W12
 .byte   N24 ,As4 ,v100
 .byte   N24 ,Ds5
 .byte   W24
 .byte   N12 ,As4
 .byte   N12 ,Dn5
 .byte   W12
 .byte   An4
 .byte   N12 ,Cn5
 .byte   W12
 .byte   An4 ,v060
 .byte   N12 ,Cn5
 .byte   W12
 .byte   As4 ,v100
 .byte   N12 ,Ds5
 .byte   W12
@  #09 @050   ----------------------------------------
 .byte   As4 ,v060
 .byte   N12 ,Ds5
 .byte   W12
 .byte   TIE ,An4 ,v100
 .byte   TIE ,Dn5
 .byte   W84
@  #09 @051   ----------------------------------------
 .byte   W96
@  #09 @052   ----------------------------------------
 .byte   W96
@  #09 @053   ----------------------------------------
 .byte   W24
 .byte   EOT
 .byte   An4 ,v086
 .byte   W72
@  #09 @054   ----------------------------------------
 .byte   N12 ,Bn3
 .byte   W12
 .byte   Bn3 ,v060
 .byte   W12
 .byte   N36 ,Fs4 ,v100
 .byte   W36
 .byte   N12 ,Fs4 ,v060
 .byte   W12
 .byte   Fs4 ,v100
 .byte   W12
 .byte   Fs4 ,v060
 .byte   W12
@  #09 @055   ----------------------------------------
Label_01687BBE:
 .byte   N12 ,Gn4 ,v100
 .byte   W12
 .byte   N48 ,An4
 .byte   W48
 .byte   N12 ,An4 ,v060
 .byte   W12
 .byte   An4 ,v100
 .byte   W12
 .byte   An4 ,v060
 .byte   W12
 .byte   PEND 
@  #09 @056   ----------------------------------------
 .byte   Cs5 ,v100
 .byte   W12
 .byte   TIE ,Dn5
 .byte   W36
 .byte   VOL , 48*PokemonMysteryDungeonExplorersofSkyInTheMorningSun_mvl/mxv
 .byte   W04
 .byte   VOL , 46*PokemonMysteryDungeonExplorersofSkyInTheMorningSun_mvl/mxv
 .byte   W04
 .byte   VOL , 45*PokemonMysteryDungeonExplorersofSkyInTheMorningSun_mvl/mxv
 .byte   W04
 .byte   VOL , 45*PokemonMysteryDungeonExplorersofSkyInTheMorningSun_mvl/mxv
 .byte   W04
 .byte   VOL , 44*PokemonMysteryDungeonExplorersofSkyInTheMorningSun_mvl/mxv
 .byte   W08
 .byte   VOL , 43*PokemonMysteryDungeonExplorersofSkyInTheMorningSun_mvl/mxv
 .byte   W04
 .byte   VOL , 43*PokemonMysteryDungeonExplorersofSkyInTheMorningSun_mvl/mxv
 .byte   W08
 .byte   VOL , 42*PokemonMysteryDungeonExplorersofSkyInTheMorningSun_mvl/mxv
 .byte   W08
 .byte   VOL , 41*PokemonMysteryDungeonExplorersofSkyInTheMorningSun_mvl/mxv
 .byte   W04
@  #09 @057   ----------------------------------------
 .byte   W08
 .byte   VOL , 40*PokemonMysteryDungeonExplorersofSkyInTheMorningSun_mvl/mxv
 .byte   W12
 .byte   VOL , 40*PokemonMysteryDungeonExplorersofSkyInTheMorningSun_mvl/mxv
 .byte   W04
 .byte   VOL , 40*PokemonMysteryDungeonExplorersofSkyInTheMorningSun_mvl/mxv
 .byte   W08
 .byte   VOL , 40*PokemonMysteryDungeonExplorersofSkyInTheMorningSun_mvl/mxv
 .byte   W08
 .byte   VOL , 39*PokemonMysteryDungeonExplorersofSkyInTheMorningSun_mvl/mxv
 .byte   W08
 .byte   VOL , 37*PokemonMysteryDungeonExplorersofSkyInTheMorningSun_mvl/mxv
 .byte   W04
 .byte   VOL , 37*PokemonMysteryDungeonExplorersofSkyInTheMorningSun_mvl/mxv
 .byte   W04
 .byte   VOL , 37*PokemonMysteryDungeonExplorersofSkyInTheMorningSun_mvl/mxv
 .byte   W04
 .byte   VOL , 36*PokemonMysteryDungeonExplorersofSkyInTheMorningSun_mvl/mxv
 .byte   W04
 .byte   VOL , 35*PokemonMysteryDungeonExplorersofSkyInTheMorningSun_mvl/mxv
 .byte   W04
 .byte   VOL , 34*PokemonMysteryDungeonExplorersofSkyInTheMorningSun_mvl/mxv
 .byte   W04
 .byte   EOT
 .byte   VOL , 33*PokemonMysteryDungeonExplorersofSkyInTheMorningSun_mvl/mxv
 .byte   N12 ,Dn5 ,v060
 .byte   W04
 .byte   VOL , 32*PokemonMysteryDungeonExplorersofSkyInTheMorningSun_mvl/mxv
 .byte   W04
 .byte   VOL , 30*PokemonMysteryDungeonExplorersofSkyInTheMorningSun_mvl/mxv
 .byte   W04
 .byte   VOL , 29*PokemonMysteryDungeonExplorersofSkyInTheMorningSun_mvl/mxv
 .byte   N12 ,Dn5 ,v036
 .byte   W04
 .byte   VOL , 27*PokemonMysteryDungeonExplorersofSkyInTheMorningSun_mvl/mxv
 .byte   W04
 .byte   VOL , 27*PokemonMysteryDungeonExplorersofSkyInTheMorningSun_mvl/mxv
 .byte   W04
@  #09 @058   ----------------------------------------
 .byte   VOL , 30*PokemonMysteryDungeonExplorersofSkyInTheMorningSun_mvl/mxv
 .byte   N12 ,Bn4 ,v100
 .byte   W04
 .byte   VOL , 32*PokemonMysteryDungeonExplorersofSkyInTheMorningSun_mvl/mxv
 .byte   W04
 .byte   VOL , 34*PokemonMysteryDungeonExplorersofSkyInTheMorningSun_mvl/mxv
 .byte   W04
 .byte   VOL , 34*PokemonMysteryDungeonExplorersofSkyInTheMorningSun_mvl/mxv
 .byte   N12 ,Bn4 ,v060
 .byte   W04
 .byte   VOL , 36*PokemonMysteryDungeonExplorersofSkyInTheMorningSun_mvl/mxv
 .byte   W04
 .byte   VOL , 37*PokemonMysteryDungeonExplorersofSkyInTheMorningSun_mvl/mxv
 .byte   W04
 .byte   VOL , 37*PokemonMysteryDungeonExplorersofSkyInTheMorningSun_mvl/mxv
 .byte   N24 ,Fs5 ,v100
 .byte   W04
 .byte   VOL , 37*PokemonMysteryDungeonExplorersofSkyInTheMorningSun_mvl/mxv
 .byte   W04
 .byte   VOL , 38*PokemonMysteryDungeonExplorersofSkyInTheMorningSun_mvl/mxv
 .byte   W04
 .byte   VOL , 39*PokemonMysteryDungeonExplorersofSkyInTheMorningSun_mvl/mxv
 .byte   W04
 .byte   VOL , 40*PokemonMysteryDungeonExplorersofSkyInTheMorningSun_mvl/mxv
 .byte   W04
 .byte   VOL , 40*PokemonMysteryDungeonExplorersofSkyInTheMorningSun_mvl/mxv
 .byte   W04
 .byte   VOL , 41*PokemonMysteryDungeonExplorersofSkyInTheMorningSun_mvl/mxv
 .byte   N12 ,En5
 .byte   W04
 .byte   VOL , 42*PokemonMysteryDungeonExplorersofSkyInTheMorningSun_mvl/mxv
 .byte   W04
 .byte   VOL , 43*PokemonMysteryDungeonExplorersofSkyInTheMorningSun_mvl/mxv
 .byte   W04
 .byte   VOL , 43*PokemonMysteryDungeonExplorersofSkyInTheMorningSun_mvl/mxv
 .byte   N24
 .byte   W04
 .byte   VOL , 44*PokemonMysteryDungeonExplorersofSkyInTheMorningSun_mvl/mxv
 .byte   W08
 .byte   VOL , 45*PokemonMysteryDungeonExplorersofSkyInTheMorningSun_mvl/mxv
 .byte   W04
 .byte   VOL , 45*PokemonMysteryDungeonExplorersofSkyInTheMorningSun_mvl/mxv
 .byte   W04
 .byte   VOL , 46*PokemonMysteryDungeonExplorersofSkyInTheMorningSun_mvl/mxv
 .byte   W04
 .byte   VOL , 46*PokemonMysteryDungeonExplorersofSkyInTheMorningSun_mvl/mxv
 .byte   N12 ,En5 ,v060
 .byte   W08
 .byte   VOL , 47*PokemonMysteryDungeonExplorersofSkyInTheMorningSun_mvl/mxv
 .byte   W04
@  #09 @059   ----------------------------------------
 .byte   VOL , 48*PokemonMysteryDungeonExplorersofSkyInTheMorningSun_mvl/mxv
 .byte   N12 ,Bn4 ,v100
 .byte   W12
 .byte   Bn4 ,v060
 .byte   W12
 .byte   N24 ,Fs5 ,v100
 .byte   W24
 .byte   N12 ,En5
 .byte   W12
 .byte   N24
 .byte   W24
 .byte   N12 ,En5 ,v060
 .byte   W12
@  #09 @060   ----------------------------------------
 .byte   Bn4 ,v100
 .byte   W12
 .byte   Bn4 ,v060
 .byte   W12
 .byte   N24 ,Gn5 ,v100
 .byte   W24
 .byte   N12 ,Fs5
 .byte   W12
 .byte   N24
 .byte   W24
 .byte   N12 ,En5
 .byte   W12
@  #09 @061   ----------------------------------------
 .byte   En5 ,v060
 .byte   W12
 .byte   N60 ,Fs5 ,v100
 .byte   W04
 .byte   VOL , 47*PokemonMysteryDungeonExplorersofSkyInTheMorningSun_mvl/mxv
 .byte   W16
 .byte   VOL , 46*PokemonMysteryDungeonExplorersofSkyInTheMorningSun_mvl/mxv
 .byte   W04
 .byte   VOL , 46*PokemonMysteryDungeonExplorersofSkyInTheMorningSun_mvl/mxv
 .byte   W04
 .byte   VOL , 45*PokemonMysteryDungeonExplorersofSkyInTheMorningSun_mvl/mxv
 .byte   W04
 .byte   VOL , 45*PokemonMysteryDungeonExplorersofSkyInTheMorningSun_mvl/mxv
 .byte   W04
 .byte   VOL , 43*PokemonMysteryDungeonExplorersofSkyInTheMorningSun_mvl/mxv
 .byte   W04
 .byte   VOL , 43*PokemonMysteryDungeonExplorersofSkyInTheMorningSun_mvl/mxv
 .byte   W04
 .byte   VOL , 41*PokemonMysteryDungeonExplorersofSkyInTheMorningSun_mvl/mxv
 .byte   W04
 .byte   VOL , 40*PokemonMysteryDungeonExplorersofSkyInTheMorningSun_mvl/mxv
 .byte   W04
 .byte   VOL , 39*PokemonMysteryDungeonExplorersofSkyInTheMorningSun_mvl/mxv
 .byte   W04
 .byte   VOL , 37*PokemonMysteryDungeonExplorersofSkyInTheMorningSun_mvl/mxv
 .byte   W04
 .byte   VOL , 37*PokemonMysteryDungeonExplorersofSkyInTheMorningSun_mvl/mxv
 .byte   N12 ,Fs5 ,v060
 .byte   W04
 .byte   VOL , 34*PokemonMysteryDungeonExplorersofSkyInTheMorningSun_mvl/mxv
 .byte   W04
 .byte   VOL , 33*PokemonMysteryDungeonExplorersofSkyInTheMorningSun_mvl/mxv
 .byte   W04
 .byte   VOL , 31*PokemonMysteryDungeonExplorersofSkyInTheMorningSun_mvl/mxv
 .byte   N12 ,Fs5 ,v036
 .byte   W04
 .byte   VOL , 29*PokemonMysteryDungeonExplorersofSkyInTheMorningSun_mvl/mxv
 .byte   W04
 .byte   VOL , 29*PokemonMysteryDungeonExplorersofSkyInTheMorningSun_mvl/mxv
 .byte   W04
@  #09 @062   ----------------------------------------
 .byte   VOL , 43*PokemonMysteryDungeonExplorersofSkyInTheMorningSun_mvl/mxv
 .byte   N12 ,Bn3 ,v100
 .byte   W04
 .byte   VOL , 45*PokemonMysteryDungeonExplorersofSkyInTheMorningSun_mvl/mxv
 .byte   W04
 .byte   VOL , 45*PokemonMysteryDungeonExplorersofSkyInTheMorningSun_mvl/mxv
 .byte   W04
 .byte   VOL , 46*PokemonMysteryDungeonExplorersofSkyInTheMorningSun_mvl/mxv
 .byte   N12 ,Bn3 ,v060
 .byte   W04
 .byte   VOL , 46*PokemonMysteryDungeonExplorersofSkyInTheMorningSun_mvl/mxv
 .byte   W08
 .byte   VOL , 47*PokemonMysteryDungeonExplorersofSkyInTheMorningSun_mvl/mxv
 .byte   N36 ,Fs4 ,v100
 .byte   W08
 .byte   VOL , 48*PokemonMysteryDungeonExplorersofSkyInTheMorningSun_mvl/mxv
 .byte   W28
 .byte   N12 ,Fs4 ,v060
 .byte   W12
 .byte   Fs4 ,v100
 .byte   W12
 .byte   Fs4 ,v060
 .byte   W12
@  #09 @063   ----------------------------------------
 .byte   PATT
  .word Label_01687BBE
@  #09 @064   ----------------------------------------
 .byte   N12 ,Cs5 ,v100
 .byte   W12
 .byte   N60 ,Dn5
 .byte   W60
 .byte   N12 ,Cs5
 .byte   W12
 .byte   Cs5 ,v060
 .byte   W12
@  #09 @065   ----------------------------------------
 .byte   Dn5 ,v100
 .byte   W12
 .byte   N60 ,Fs5
 .byte   W16
 .byte   VOL , 48*PokemonMysteryDungeonExplorersofSkyInTheMorningSun_mvl/mxv
 .byte   W08
 .byte   VOL , 47*PokemonMysteryDungeonExplorersofSkyInTheMorningSun_mvl/mxv
 .byte   W04
 .byte   VOL , 46*PokemonMysteryDungeonExplorersofSkyInTheMorningSun_mvl/mxv
 .byte   W04
 .byte   VOL , 46*PokemonMysteryDungeonExplorersofSkyInTheMorningSun_mvl/mxv
 .byte   W04
 .byte   VOL , 45*PokemonMysteryDungeonExplorersofSkyInTheMorningSun_mvl/mxv
 .byte   W04
 .byte   VOL , 44*PokemonMysteryDungeonExplorersofSkyInTheMorningSun_mvl/mxv
 .byte   W04
 .byte   VOL , 43*PokemonMysteryDungeonExplorersofSkyInTheMorningSun_mvl/mxv
 .byte   W04
 .byte   VOL , 40*PokemonMysteryDungeonExplorersofSkyInTheMorningSun_mvl/mxv
 .byte   W04
 .byte   VOL , 39*PokemonMysteryDungeonExplorersofSkyInTheMorningSun_mvl/mxv
 .byte   W04
 .byte   VOL , 37*PokemonMysteryDungeonExplorersofSkyInTheMorningSun_mvl/mxv
 .byte   W04
 .byte   VOL , 35*PokemonMysteryDungeonExplorersofSkyInTheMorningSun_mvl/mxv
 .byte   N12 ,Fs5 ,v060
 .byte   W04
 .byte   VOL , 33*PokemonMysteryDungeonExplorersofSkyInTheMorningSun_mvl/mxv
 .byte   W04
 .byte   VOL , 30*PokemonMysteryDungeonExplorersofSkyInTheMorningSun_mvl/mxv
 .byte   W04
 .byte   VOL , 28*PokemonMysteryDungeonExplorersofSkyInTheMorningSun_mvl/mxv
 .byte   N12 ,Fs5 ,v036
 .byte   W04
 .byte   VOL , 26*PokemonMysteryDungeonExplorersofSkyInTheMorningSun_mvl/mxv
 .byte   W08
@  #09 @066   ----------------------------------------
 .byte   VOL , 43*PokemonMysteryDungeonExplorersofSkyInTheMorningSun_mvl/mxv
 .byte   N12 ,Bn4 ,v100
 .byte   W04
 .byte   VOL , 44*PokemonMysteryDungeonExplorersofSkyInTheMorningSun_mvl/mxv
 .byte   W04
 .byte   VOL , 45*PokemonMysteryDungeonExplorersofSkyInTheMorningSun_mvl/mxv
 .byte   W04
 .byte   VOL , 45*PokemonMysteryDungeonExplorersofSkyInTheMorningSun_mvl/mxv
 .byte   N12 ,Bn4 ,v060
 .byte   W08
 .byte   VOL , 46*PokemonMysteryDungeonExplorersofSkyInTheMorningSun_mvl/mxv
 .byte   W04
 .byte   N24 ,Fs5 ,v100
 .byte   W04
 .byte   VOL , 46*PokemonMysteryDungeonExplorersofSkyInTheMorningSun_mvl/mxv
 .byte   W12
 .byte   VOL , 47*PokemonMysteryDungeonExplorersofSkyInTheMorningSun_mvl/mxv
 .byte   W08
 .byte   VOL , 48*PokemonMysteryDungeonExplorersofSkyInTheMorningSun_mvl/mxv
 .byte   N12 ,En5
 .byte   W12
 .byte   N24
 .byte   W24
 .byte   N12 ,En5 ,v060
 .byte   W12
@  #09 @067   ----------------------------------------
 .byte   Bn4 ,v100
 .byte   W12
 .byte   Bn4 ,v060
 .byte   W12
 .byte   N24 ,Fs5 ,v100
 .byte   W24
 .byte   N12 ,En5
 .byte   W12
 .byte   N24
 .byte   W24
 .byte   N12 ,Dn5
 .byte   W12
@  #09 @068   ----------------------------------------
 .byte   Dn5 ,v060
 .byte   W12
 .byte   N84 ,En5 ,v100
 .byte   W08
 .byte   VOL , 48*PokemonMysteryDungeonExplorersofSkyInTheMorningSun_mvl/mxv
 .byte   W04
 .byte   VOL , 46*PokemonMysteryDungeonExplorersofSkyInTheMorningSun_mvl/mxv
 .byte   W04
 .byte   VOL , 45*PokemonMysteryDungeonExplorersofSkyInTheMorningSun_mvl/mxv
 .byte   W04
 .byte   VOL , 45*PokemonMysteryDungeonExplorersofSkyInTheMorningSun_mvl/mxv
 .byte   W08
 .byte   VOL , 44*PokemonMysteryDungeonExplorersofSkyInTheMorningSun_mvl/mxv
 .byte   W08
 .byte   VOL , 43*PokemonMysteryDungeonExplorersofSkyInTheMorningSun_mvl/mxv
 .byte   W04
 .byte   VOL , 43*PokemonMysteryDungeonExplorersofSkyInTheMorningSun_mvl/mxv
 .byte   W12
 .byte   VOL , 42*PokemonMysteryDungeonExplorersofSkyInTheMorningSun_mvl/mxv
 .byte   W04
 .byte   VOL , 41*PokemonMysteryDungeonExplorersofSkyInTheMorningSun_mvl/mxv
 .byte   W12
 .byte   VOL , 40*PokemonMysteryDungeonExplorersofSkyInTheMorningSun_mvl/mxv
 .byte   W04
 .byte   VOL , 40*PokemonMysteryDungeonExplorersofSkyInTheMorningSun_mvl/mxv
 .byte   W04
 .byte   VOL , 40*PokemonMysteryDungeonExplorersofSkyInTheMorningSun_mvl/mxv
 .byte   W04
 .byte   VOL , 38*PokemonMysteryDungeonExplorersofSkyInTheMorningSun_mvl/mxv
 .byte   W04
@  #09 @069   ----------------------------------------
 .byte   VOL , 37*PokemonMysteryDungeonExplorersofSkyInTheMorningSun_mvl/mxv
 .byte   N12 ,En5 ,v060
 .byte   W04
 .byte   VOL , 37*PokemonMysteryDungeonExplorersofSkyInTheMorningSun_mvl/mxv
 .byte   W04
 .byte   VOL , 35*PokemonMysteryDungeonExplorersofSkyInTheMorningSun_mvl/mxv
 .byte   W04
 .byte   VOL , 34*PokemonMysteryDungeonExplorersofSkyInTheMorningSun_mvl/mxv
 .byte   N12 ,En5 ,v036
 .byte   W04
 .byte   VOL , 32*PokemonMysteryDungeonExplorersofSkyInTheMorningSun_mvl/mxv
 .byte   W04
 .byte   VOL , 30*PokemonMysteryDungeonExplorersofSkyInTheMorningSun_mvl/mxv
 .byte   W04
 .byte   VOL , 39*PokemonMysteryDungeonExplorersofSkyInTheMorningSun_mvl/mxv
 .byte   N24 ,Gn4 ,v100
 .byte   N24 ,Gn5
 .byte   W04
 .byte   VOL , 40*PokemonMysteryDungeonExplorersofSkyInTheMorningSun_mvl/mxv
 .byte   W04
 .byte   VOL , 42*PokemonMysteryDungeonExplorersofSkyInTheMorningSun_mvl/mxv
 .byte   W04
 .byte   VOL , 43*PokemonMysteryDungeonExplorersofSkyInTheMorningSun_mvl/mxv
 .byte   W08
 .byte   VOL , 43*PokemonMysteryDungeonExplorersofSkyInTheMorningSun_mvl/mxv
 .byte   W04
 .byte   VOL , 44*PokemonMysteryDungeonExplorersofSkyInTheMorningSun_mvl/mxv
 .byte   N12 ,Fs4
 .byte   N12 ,Fs5
 .byte   W04
 .byte   VOL , 45*PokemonMysteryDungeonExplorersofSkyInTheMorningSun_mvl/mxv
 .byte   W08
 .byte   VOL , 45*PokemonMysteryDungeonExplorersofSkyInTheMorningSun_mvl/mxv
 .byte   N24 ,Fs4
 .byte   N24 ,Fs5
 .byte   W08
 .byte   VOL , 46*PokemonMysteryDungeonExplorersofSkyInTheMorningSun_mvl/mxv
 .byte   W08
 .byte   VOL , 46*PokemonMysteryDungeonExplorersofSkyInTheMorningSun_mvl/mxv
 .byte   W08
 .byte   VOL , 47*PokemonMysteryDungeonExplorersofSkyInTheMorningSun_mvl/mxv
 .byte   N12 ,En4
 .byte   N12 ,En5
 .byte   W08
 .byte   VOL , 48*PokemonMysteryDungeonExplorersofSkyInTheMorningSun_mvl/mxv
 .byte   W04
@  #09 @070   ----------------------------------------
 .byte   N12 ,En4 ,v060
 .byte   N12 ,En5
 .byte   W12
 .byte   TIE ,Fs4 ,v100
 .byte   TIE ,Fs5
 .byte   W66
 .byte   VOL , 48*PokemonMysteryDungeonExplorersofSkyInTheMorningSun_mvl/mxv
 .byte   W06
 .byte   VOL , 45*PokemonMysteryDungeonExplorersofSkyInTheMorningSun_mvl/mxv
 .byte   W06
 .byte   VOL , 43*PokemonMysteryDungeonExplorersofSkyInTheMorningSun_mvl/mxv
 .byte   W06
@  #09 @071   ----------------------------------------
 .byte   VOL , 40*PokemonMysteryDungeonExplorersofSkyInTheMorningSun_mvl/mxv
 .byte   W06
 .byte   VOL , 38*PokemonMysteryDungeonExplorersofSkyInTheMorningSun_mvl/mxv
 .byte   W06
 .byte   VOL , 37*PokemonMysteryDungeonExplorersofSkyInTheMorningSun_mvl/mxv
 .byte   W06
 .byte   VOL , 34*PokemonMysteryDungeonExplorersofSkyInTheMorningSun_mvl/mxv
 .byte   W06
 .byte   VOL , 33*PokemonMysteryDungeonExplorersofSkyInTheMorningSun_mvl/mxv
 .byte   W06
 .byte   VOL , 30*PokemonMysteryDungeonExplorersofSkyInTheMorningSun_mvl/mxv
 .byte   W06
 .byte   VOL , 28*PokemonMysteryDungeonExplorersofSkyInTheMorningSun_mvl/mxv
 .byte   W06
 .byte   VOL , 27*PokemonMysteryDungeonExplorersofSkyInTheMorningSun_mvl/mxv
 .byte   W06
 .byte   VOL , 25*PokemonMysteryDungeonExplorersofSkyInTheMorningSun_mvl/mxv
 .byte   W06
 .byte   VOL , 23*PokemonMysteryDungeonExplorersofSkyInTheMorningSun_mvl/mxv
 .byte   W06
 .byte   VOL , 22*PokemonMysteryDungeonExplorersofSkyInTheMorningSun_mvl/mxv
 .byte   W06
 .byte   VOL , 19*PokemonMysteryDungeonExplorersofSkyInTheMorningSun_mvl/mxv
 .byte   W06
 .byte   VOL , 18*PokemonMysteryDungeonExplorersofSkyInTheMorningSun_mvl/mxv
 .byte   W06
 .byte   VOL , 17*PokemonMysteryDungeonExplorersofSkyInTheMorningSun_mvl/mxv
 .byte   W06
 .byte   VOL , 15*PokemonMysteryDungeonExplorersofSkyInTheMorningSun_mvl/mxv
 .byte   W06
 .byte   VOL , 14*PokemonMysteryDungeonExplorersofSkyInTheMorningSun_mvl/mxv
 .byte   W06
@  #09 @072   ----------------------------------------
 .byte   VOL , 12*PokemonMysteryDungeonExplorersofSkyInTheMorningSun_mvl/mxv
 .byte   W06
 .byte   VOL , 11*PokemonMysteryDungeonExplorersofSkyInTheMorningSun_mvl/mxv
 .byte   W06
 .byte   VOL , 10*PokemonMysteryDungeonExplorersofSkyInTheMorningSun_mvl/mxv
 .byte   W12
 .byte   EOT
 .byte   Fs4 ,v090
 .byte   W72
@  #09 @073   ----------------------------------------
 .byte   W96
@  #09 @074   ----------------------------------------
 .byte   W96
@  #09 @075   ----------------------------------------
 .byte   W96
@  #09 @076   ----------------------------------------
 .byte   W96
@  #09 @077   ----------------------------------------
 .byte   W96
@  #09 @078   ----------------------------------------
 .byte   W96
@  #09 @079   ----------------------------------------
 .byte   W96
@  #09 @080   ----------------------------------------
 .byte   W96
@  #09 @081   ----------------------------------------
 .byte   W96
@  #09 @082   ----------------------------------------
 .byte   W96
@  #09 @083   ----------------------------------------
 .byte   W96
@  #09 @084   ----------------------------------------
 .byte   W96
@  #09 @085   ----------------------------------------
 .byte   W96
@  #09 @086   ----------------------------------------
 .byte   W96
@  #09 @087   ----------------------------------------
 .byte   W96
@  #09 @088   ----------------------------------------
 .byte   W24
 .byte   GOTO
  .word Label_01687A61
 .byte   FINE

@**************** Track 10 (Midi-Chn.9) ****************@

PokemonMysteryDungeonExplorersofSkyInTheMorningSun_010:
@  #10 @000   ----------------------------------------
 .byte   KEYSH , PokemonMysteryDungeonExplorersofSkyInTheMorningSun_key+0
 .byte   VOICE , 65
 .byte   MODT 0
 .byte   LFOS 44
 .byte   VOL , 37*PokemonMysteryDungeonExplorersofSkyInTheMorningSun_mvl/mxv
 .byte   PAN , c_v-14
 .byte   VOL , 37*PokemonMysteryDungeonExplorersofSkyInTheMorningSun_mvl/mxv
 .byte   BEND , c_v+0
 .byte   W96
@  #10 @001   ----------------------------------------
 .byte   W96
@  #10 @002   ----------------------------------------
 .byte   W96
@  #10 @003   ----------------------------------------
 .byte   W96
@  #10 @004   ----------------------------------------
 .byte   W96
@  #10 @005   ----------------------------------------
 .byte   W96
@  #10 @006   ----------------------------------------
 .byte   W96
@  #10 @007   ----------------------------------------
 .byte   W72
 .byte   VOL , 37*PokemonMysteryDungeonExplorersofSkyInTheMorningSun_mvl/mxv
 .byte   W24
@  #10 @008   ----------------------------------------
 .byte   N24 ,Dn2 ,v064
 .byte   W24
 .byte   N48 ,An2
 .byte   W48
 .byte   N24
 .byte   W24
@  #10 @009   ----------------------------------------
 .byte   N12 ,Bn2
 .byte   W12
 .byte   N54 ,An2
 .byte   W54
 .byte   N05 ,An2 ,v024
 .byte   W06
 .byte   N42 ,Gn2 ,v064
 .byte   W24
@  #10 @010   ----------------------------------------
 .byte   W19
 .byte   N01 ,Gn2 ,v024
 .byte   W05
 .byte   N42 ,Fs2 ,v064
 .byte   W44
 .byte   N04 ,Fs2 ,v016
 .byte   W04
 .byte   N44 ,Bn2 ,v064
 .byte   W24
@  #10 @011   ----------------------------------------
 .byte   W20
 .byte   N01 ,Bn2 ,v016
 .byte   W04
 .byte   N44 ,Dn3 ,v064
 .byte   W44
 .byte   N04 ,Dn3 ,v016
 .byte   W04
 .byte   N44 ,En3 ,v064
 .byte   W24
@  #10 @012   ----------------------------------------
 .byte   W20
 .byte   N03 ,En3 ,v016
 .byte   W04
 .byte   N66 ,Fs3 ,v064
 .byte   W66
 .byte   N01 ,Fs3 ,v016
 .byte   W06
@  #10 @013   ----------------------------------------
 .byte   N12 ,En3 ,v064
 .byte   W12
 .byte   N84
 .byte   W84
@  #10 @014   ----------------------------------------
 .byte   N12 ,En3 ,v016
 .byte   W12
 .byte   En3 ,v004
 .byte   W12
 .byte   N60 ,Fs3 ,v064
 .byte   W60
 .byte   N12 ,Fs3 ,v016
 .byte   W12
@  #10 @015   ----------------------------------------
 .byte   En3 ,v064
 .byte   W12
 .byte   N84
 .byte   W84
@  #10 @016   ----------------------------------------
 .byte   N12 ,En3 ,v016
 .byte   W12
 .byte   En3 ,v004
 .byte   W12
 .byte   VOL , 37*PokemonMysteryDungeonExplorersofSkyInTheMorningSun_mvl/mxv
 .byte   TIE ,An3 ,v064
 .byte   W06
 .byte   VOL , 34*PokemonMysteryDungeonExplorersofSkyInTheMorningSun_mvl/mxv
 .byte   W06
 .byte   VOL , 32*PokemonMysteryDungeonExplorersofSkyInTheMorningSun_mvl/mxv
 .byte   W06
 .byte   VOL , 30*PokemonMysteryDungeonExplorersofSkyInTheMorningSun_mvl/mxv
 .byte   W06
 .byte   VOL , 28*PokemonMysteryDungeonExplorersofSkyInTheMorningSun_mvl/mxv
 .byte   W06
 .byte   VOL , 27*PokemonMysteryDungeonExplorersofSkyInTheMorningSun_mvl/mxv
 .byte   W06
 .byte   VOL , 25*PokemonMysteryDungeonExplorersofSkyInTheMorningSun_mvl/mxv
 .byte   W06
 .byte   VOL , 23*PokemonMysteryDungeonExplorersofSkyInTheMorningSun_mvl/mxv
 .byte   W06
 .byte   VOL , 22*PokemonMysteryDungeonExplorersofSkyInTheMorningSun_mvl/mxv
 .byte   W06
 .byte   VOL , 20*PokemonMysteryDungeonExplorersofSkyInTheMorningSun_mvl/mxv
 .byte   W06
 .byte   VOL , 19*PokemonMysteryDungeonExplorersofSkyInTheMorningSun_mvl/mxv
 .byte   W06
 .byte   VOL , 18*PokemonMysteryDungeonExplorersofSkyInTheMorningSun_mvl/mxv
 .byte   W06
@  #10 @017   ----------------------------------------
 .byte   VOL , 16*PokemonMysteryDungeonExplorersofSkyInTheMorningSun_mvl/mxv
 .byte   W06
 .byte   VOL , 14*PokemonMysteryDungeonExplorersofSkyInTheMorningSun_mvl/mxv
 .byte   W06
 .byte   VOL , 13*PokemonMysteryDungeonExplorersofSkyInTheMorningSun_mvl/mxv
 .byte   W06
 .byte   VOL , 12*PokemonMysteryDungeonExplorersofSkyInTheMorningSun_mvl/mxv
 .byte   W06
 .byte   VOL , 11*PokemonMysteryDungeonExplorersofSkyInTheMorningSun_mvl/mxv
 .byte   W06
 .byte   VOL , 10*PokemonMysteryDungeonExplorersofSkyInTheMorningSun_mvl/mxv
 .byte   W06
 .byte   VOL , 8*PokemonMysteryDungeonExplorersofSkyInTheMorningSun_mvl/mxv
 .byte   W06
 .byte   VOL , 8*PokemonMysteryDungeonExplorersofSkyInTheMorningSun_mvl/mxv
 .byte   W06
 .byte   EOT
 .byte   VOL , 6*PokemonMysteryDungeonExplorersofSkyInTheMorningSun_mvl/mxv
 .byte   N12 ,An3 ,v016
 .byte   W12
 .byte   An3 ,v004
 .byte   W36
@  #10 @018   ----------------------------------------
 .byte   W24
Label_01687EBA:
 .byte   VOL , 6*PokemonMysteryDungeonExplorersofSkyInTheMorningSun_mvl/mxv
 .byte   W72
@  #10 @019   ----------------------------------------
 .byte   W96
@  #10 @020   ----------------------------------------
 .byte   W96
@  #10 @021   ----------------------------------------
 .byte   W96
@  #10 @022   ----------------------------------------
 .byte   W96
@  #10 @023   ----------------------------------------
 .byte   W96
@  #10 @024   ----------------------------------------
 .byte   W96
@  #10 @025   ----------------------------------------
 .byte   W96
@  #10 @026   ----------------------------------------
 .byte   W96
@  #10 @027   ----------------------------------------
 .byte   W96
@  #10 @028   ----------------------------------------
 .byte   W96
@  #10 @029   ----------------------------------------
 .byte   W96
@  #10 @030   ----------------------------------------
 .byte   W96
@  #10 @031   ----------------------------------------
 .byte   W96
@  #10 @032   ----------------------------------------
 .byte   W96
@  #10 @033   ----------------------------------------
 .byte   W96
@  #10 @034   ----------------------------------------
 .byte   W96
@  #10 @035   ----------------------------------------
 .byte   W96
@  #10 @036   ----------------------------------------
 .byte   W96
@  #10 @037   ----------------------------------------
 .byte   W96
@  #10 @038   ----------------------------------------
 .byte   W96
@  #10 @039   ----------------------------------------
 .byte   W96
@  #10 @040   ----------------------------------------
 .byte   W96
@  #10 @041   ----------------------------------------
 .byte   W24
 .byte   VOL , 27*PokemonMysteryDungeonExplorersofSkyInTheMorningSun_mvl/mxv
 .byte   W48
 .byte   N12 ,Gn2 ,v080
 .byte   W12
 .byte   An2
 .byte   W12
@  #10 @042   ----------------------------------------
 .byte   As2
 .byte   W12
 .byte   Cn3
 .byte   W12
 .byte   N24 ,Dn3
 .byte   W24
 .byte   N12 ,As2
 .byte   W12
 .byte   N36
 .byte   W36
@  #10 @043   ----------------------------------------
 .byte   N12 ,As2 ,v040
 .byte   W12
 .byte   As2 ,v024
 .byte   W12
 .byte   Fn3 ,v080
 .byte   W12
 .byte   Fn3 ,v040
 .byte   W12
 .byte   Cn3 ,v080
 .byte   W12
 .byte   N36
 .byte   W36
@  #10 @044   ----------------------------------------
 .byte   N12 ,Cn3 ,v040
 .byte   W12
 .byte   Cn3 ,v024
 .byte   W12
 .byte   N24 ,Gn3 ,v080
 .byte   W24
 .byte   N12 ,Dn3
 .byte   W12
 .byte   N24
 .byte   W24
 .byte   N12 ,Cn3
 .byte   W12
@  #10 @045   ----------------------------------------
 .byte   Cn3 ,v040
 .byte   W12
 .byte   N60 ,Dn3 ,v080
 .byte   W60
 .byte   N12 ,Cn3 ,v040
 .byte   W12
 .byte   Cn3 ,v024
 .byte   W12
@  #10 @046   ----------------------------------------
 .byte   N24 ,Dn3 ,v080
 .byte   W24
 .byte   TIE ,Ds3
 .byte   W72
@  #10 @047   ----------------------------------------
 .byte   W96
@  #10 @048   ----------------------------------------
 .byte   W96
@  #10 @049   ----------------------------------------
 .byte   EOT
 .byte   N12 ,Ds3 ,v040
 .byte   W12
 .byte   Ds3 ,v024
 .byte   W12
 .byte   N24 ,Ds3 ,v080
 .byte   W24
 .byte   N12 ,Dn3
 .byte   W12
 .byte   Cn3
 .byte   W12
 .byte   Cn3 ,v040
 .byte   W12
 .byte   Ds3 ,v080
 .byte   W12
@  #10 @050   ----------------------------------------
 .byte   W12
 .byte   TIE ,Dn3
 .byte   N12 ,Ds3 ,v040
 .byte   W42
 .byte   VOL , 27*PokemonMysteryDungeonExplorersofSkyInTheMorningSun_mvl/mxv
 .byte   W06
 .byte   VOL , 26*PokemonMysteryDungeonExplorersofSkyInTheMorningSun_mvl/mxv
 .byte   W06
 .byte   VOL , 25*PokemonMysteryDungeonExplorersofSkyInTheMorningSun_mvl/mxv
 .byte   W06
 .byte   VOL , 24*PokemonMysteryDungeonExplorersofSkyInTheMorningSun_mvl/mxv
 .byte   W06
 .byte   VOL , 23*PokemonMysteryDungeonExplorersofSkyInTheMorningSun_mvl/mxv
 .byte   W06
 .byte   VOL , 23*PokemonMysteryDungeonExplorersofSkyInTheMorningSun_mvl/mxv
 .byte   W06
 .byte   VOL , 22*PokemonMysteryDungeonExplorersofSkyInTheMorningSun_mvl/mxv
 .byte   W06
@  #10 @051   ----------------------------------------
 .byte   VOL , 22*PokemonMysteryDungeonExplorersofSkyInTheMorningSun_mvl/mxv
 .byte   W06
 .byte   VOL , 21*PokemonMysteryDungeonExplorersofSkyInTheMorningSun_mvl/mxv
 .byte   W06
 .byte   VOL , 20*PokemonMysteryDungeonExplorersofSkyInTheMorningSun_mvl/mxv
 .byte   W06
 .byte   VOL , 20*PokemonMysteryDungeonExplorersofSkyInTheMorningSun_mvl/mxv
 .byte   W12
 .byte   VOL , 19*PokemonMysteryDungeonExplorersofSkyInTheMorningSun_mvl/mxv
 .byte   W06
 .byte   VOL , 18*PokemonMysteryDungeonExplorersofSkyInTheMorningSun_mvl/mxv
 .byte   W06
 .byte   VOL , 18*PokemonMysteryDungeonExplorersofSkyInTheMorningSun_mvl/mxv
 .byte   W06
 .byte   VOL , 17*PokemonMysteryDungeonExplorersofSkyInTheMorningSun_mvl/mxv
 .byte   W06
 .byte   VOL , 17*PokemonMysteryDungeonExplorersofSkyInTheMorningSun_mvl/mxv
 .byte   W06
 .byte   VOL , 16*PokemonMysteryDungeonExplorersofSkyInTheMorningSun_mvl/mxv
 .byte   W06
 .byte   VOL , 15*PokemonMysteryDungeonExplorersofSkyInTheMorningSun_mvl/mxv
 .byte   W06
 .byte   VOL , 15*PokemonMysteryDungeonExplorersofSkyInTheMorningSun_mvl/mxv
 .byte   W06
 .byte   VOL , 14*PokemonMysteryDungeonExplorersofSkyInTheMorningSun_mvl/mxv
 .byte   W06
 .byte   VOL , 14*PokemonMysteryDungeonExplorersofSkyInTheMorningSun_mvl/mxv
 .byte   W06
 .byte   VOL , 14*PokemonMysteryDungeonExplorersofSkyInTheMorningSun_mvl/mxv
 .byte   W06
@  #10 @052   ----------------------------------------
 .byte   VOL , 13*PokemonMysteryDungeonExplorersofSkyInTheMorningSun_mvl/mxv
 .byte   W06
 .byte   VOL , 12*PokemonMysteryDungeonExplorersofSkyInTheMorningSun_mvl/mxv
 .byte   W06
 .byte   VOL , 12*PokemonMysteryDungeonExplorersofSkyInTheMorningSun_mvl/mxv
 .byte   W06
 .byte   VOL , 11*PokemonMysteryDungeonExplorersofSkyInTheMorningSun_mvl/mxv
 .byte   W06
 .byte   VOL , 11*PokemonMysteryDungeonExplorersofSkyInTheMorningSun_mvl/mxv
 .byte   W06
 .byte   VOL , 11*PokemonMysteryDungeonExplorersofSkyInTheMorningSun_mvl/mxv
 .byte   W06
 .byte   VOL , 10*PokemonMysteryDungeonExplorersofSkyInTheMorningSun_mvl/mxv
 .byte   W06
 .byte   VOL , 10*PokemonMysteryDungeonExplorersofSkyInTheMorningSun_mvl/mxv
 .byte   W06
 .byte   VOL , 10*PokemonMysteryDungeonExplorersofSkyInTheMorningSun_mvl/mxv
 .byte   W06
 .byte   VOL , 8*PokemonMysteryDungeonExplorersofSkyInTheMorningSun_mvl/mxv
 .byte   W06
 .byte   VOL , 8*PokemonMysteryDungeonExplorersofSkyInTheMorningSun_mvl/mxv
 .byte   W06
 .byte   VOL , 8*PokemonMysteryDungeonExplorersofSkyInTheMorningSun_mvl/mxv
 .byte   W06
 .byte   VOL , 8*PokemonMysteryDungeonExplorersofSkyInTheMorningSun_mvl/mxv
 .byte   W06
 .byte   VOL , 7*PokemonMysteryDungeonExplorersofSkyInTheMorningSun_mvl/mxv
 .byte   W06
 .byte   VOL , 6*PokemonMysteryDungeonExplorersofSkyInTheMorningSun_mvl/mxv
 .byte   W06
 .byte   VOL , 6*PokemonMysteryDungeonExplorersofSkyInTheMorningSun_mvl/mxv
 .byte   W06
@  #10 @053   ----------------------------------------
 .byte   VOL , 6*PokemonMysteryDungeonExplorersofSkyInTheMorningSun_mvl/mxv
 .byte   W06
 .byte   VOL , 6*PokemonMysteryDungeonExplorersofSkyInTheMorningSun_mvl/mxv
 .byte   W06
 .byte   VOL , 5*PokemonMysteryDungeonExplorersofSkyInTheMorningSun_mvl/mxv
 .byte   W06
 .byte   VOL , 5*PokemonMysteryDungeonExplorersofSkyInTheMorningSun_mvl/mxv
 .byte   W06
 .byte   EOT
 .byte   Dn3
 .byte   VOL , 5*PokemonMysteryDungeonExplorersofSkyInTheMorningSun_mvl/mxv
 .byte   N12
 .byte   W06
 .byte   VOL , 4*PokemonMysteryDungeonExplorersofSkyInTheMorningSun_mvl/mxv
 .byte   W06
 .byte   VOL , 4*PokemonMysteryDungeonExplorersofSkyInTheMorningSun_mvl/mxv
 .byte   N12 ,Dn3 ,v024
 .byte   W12
 .byte   VOL , 3*PokemonMysteryDungeonExplorersofSkyInTheMorningSun_mvl/mxv
 .byte   W06
 .byte   VOL , 3*PokemonMysteryDungeonExplorersofSkyInTheMorningSun_mvl/mxv
 .byte   W06
 .byte   VOL , 3*PokemonMysteryDungeonExplorersofSkyInTheMorningSun_mvl/mxv
 .byte   W06
 .byte   VOL , 3*PokemonMysteryDungeonExplorersofSkyInTheMorningSun_mvl/mxv
 .byte   W06
 .byte   VOL , 2*PokemonMysteryDungeonExplorersofSkyInTheMorningSun_mvl/mxv
 .byte   W06
 .byte   VOL , 2*PokemonMysteryDungeonExplorersofSkyInTheMorningSun_mvl/mxv
 .byte   W06
 .byte   VOL , 1*PokemonMysteryDungeonExplorersofSkyInTheMorningSun_mvl/mxv
 .byte   W12
@  #10 @054   ----------------------------------------
 .byte   W96
@  #10 @055   ----------------------------------------
 .byte   W96
@  #10 @056   ----------------------------------------
 .byte   W08
 .byte   VOL , 37*PokemonMysteryDungeonExplorersofSkyInTheMorningSun_mvl/mxv
 .byte   W88
@  #10 @057   ----------------------------------------
 .byte   W96
@  #10 @058   ----------------------------------------
 .byte   W96
@  #10 @059   ----------------------------------------
 .byte   W96
@  #10 @060   ----------------------------------------
 .byte   W96
@  #10 @061   ----------------------------------------
 .byte   W96
@  #10 @062   ----------------------------------------
 .byte   W96
@  #10 @063   ----------------------------------------
 .byte   W96
@  #10 @064   ----------------------------------------
 .byte   W96
@  #10 @065   ----------------------------------------
 .byte   W96
@  #10 @066   ----------------------------------------
 .byte   W96
@  #10 @067   ----------------------------------------
 .byte   W96
@  #10 @068   ----------------------------------------
 .byte   W96
@  #10 @069   ----------------------------------------
 .byte   W96
@  #10 @070   ----------------------------------------
 .byte   W96
@  #10 @071   ----------------------------------------
 .byte   W96
@  #10 @072   ----------------------------------------
 .byte   W96
@  #10 @073   ----------------------------------------
 .byte   W96
@  #10 @074   ----------------------------------------
 .byte   W96
@  #10 @075   ----------------------------------------
 .byte   W96
@  #10 @076   ----------------------------------------
 .byte   W96
@  #10 @077   ----------------------------------------
 .byte   W24
 .byte   VOL , 37*PokemonMysteryDungeonExplorersofSkyInTheMorningSun_mvl/mxv
 .byte   W72
@  #10 @078   ----------------------------------------
 .byte   N24 ,Dn2 ,v080
 .byte   W24
 .byte   N48 ,An2
 .byte   W48
 .byte   N24
 .byte   W24
@  #10 @079   ----------------------------------------
 .byte   N12 ,Bn2
 .byte   W12
 .byte   N36 ,An2
 .byte   W36
 .byte   N12 ,An2 ,v040
 .byte   W12
 .byte   An2 ,v024
 .byte   W12
 .byte   N48 ,Gn2 ,v080
 .byte   W24
@  #10 @080   ----------------------------------------
 .byte   W24
 .byte   N36 ,Fs2
 .byte   W36
 .byte   N12 ,Fs2 ,v040
 .byte   W12
 .byte   N36 ,Bn2 ,v080
 .byte   W24
@  #10 @081   ----------------------------------------
 .byte   W12
 .byte   N12 ,Bn2 ,v040
 .byte   W12
 .byte   N36 ,Dn3 ,v080
 .byte   W36
 .byte   N12 ,Dn3 ,v040
 .byte   W12
 .byte   N36 ,En3 ,v080
 .byte   W24
@  #10 @082   ----------------------------------------
 .byte   W12
 .byte   N12 ,En3 ,v040
 .byte   W12
 .byte   N60 ,Fs3 ,v080
 .byte   W60
 .byte   N12 ,Fs3 ,v040
 .byte   W12
@  #10 @083   ----------------------------------------
 .byte   En3 ,v080
 .byte   W12
 .byte   N84
 .byte   W84
@  #10 @084   ----------------------------------------
 .byte   N12 ,En3 ,v040
 .byte   W12
 .byte   En3 ,v024
 .byte   W12
 .byte   N60 ,Fs3 ,v080
 .byte   W60
 .byte   N12 ,Fs3 ,v040
 .byte   W12
@  #10 @085   ----------------------------------------
 .byte   En3 ,v080
 .byte   W12
 .byte   N84
 .byte   W84
@  #10 @086   ----------------------------------------
 .byte   N12 ,En3 ,v040
 .byte   W12
 .byte   En3 ,v024
 .byte   W12
 .byte   TIE ,An3 ,v080
 .byte   W12
 .byte   VOL , 37*PokemonMysteryDungeonExplorersofSkyInTheMorningSun_mvl/mxv
 .byte   W06
 .byte   VOL , 35*PokemonMysteryDungeonExplorersofSkyInTheMorningSun_mvl/mxv
 .byte   W06
 .byte   VOL , 34*PokemonMysteryDungeonExplorersofSkyInTheMorningSun_mvl/mxv
 .byte   W06
 .byte   VOL , 31*PokemonMysteryDungeonExplorersofSkyInTheMorningSun_mvl/mxv
 .byte   W06
 .byte   VOL , 30*PokemonMysteryDungeonExplorersofSkyInTheMorningSun_mvl/mxv
 .byte   W06
 .byte   VOL , 28*PokemonMysteryDungeonExplorersofSkyInTheMorningSun_mvl/mxv
 .byte   W06
 .byte   VOL , 28*PokemonMysteryDungeonExplorersofSkyInTheMorningSun_mvl/mxv
 .byte   W06
 .byte   VOL , 27*PokemonMysteryDungeonExplorersofSkyInTheMorningSun_mvl/mxv
 .byte   W06
 .byte   VOL , 25*PokemonMysteryDungeonExplorersofSkyInTheMorningSun_mvl/mxv
 .byte   W06
 .byte   VOL , 23*PokemonMysteryDungeonExplorersofSkyInTheMorningSun_mvl/mxv
 .byte   W06
@  #10 @087   ----------------------------------------
 .byte   VOL , 22*PokemonMysteryDungeonExplorersofSkyInTheMorningSun_mvl/mxv
 .byte   W06
 .byte   VOL , 21*PokemonMysteryDungeonExplorersofSkyInTheMorningSun_mvl/mxv
 .byte   W06
 .byte   VOL , 20*PokemonMysteryDungeonExplorersofSkyInTheMorningSun_mvl/mxv
 .byte   W06
 .byte   VOL , 19*PokemonMysteryDungeonExplorersofSkyInTheMorningSun_mvl/mxv
 .byte   W06
 .byte   VOL , 18*PokemonMysteryDungeonExplorersofSkyInTheMorningSun_mvl/mxv
 .byte   W06
 .byte   VOL , 17*PokemonMysteryDungeonExplorersofSkyInTheMorningSun_mvl/mxv
 .byte   W06
 .byte   VOL , 15*PokemonMysteryDungeonExplorersofSkyInTheMorningSun_mvl/mxv
 .byte   W06
 .byte   VOL , 14*PokemonMysteryDungeonExplorersofSkyInTheMorningSun_mvl/mxv
 .byte   W06
 .byte   EOT
 .byte   VOL , 13*PokemonMysteryDungeonExplorersofSkyInTheMorningSun_mvl/mxv
 .byte   N12 ,An3 ,v040
 .byte   W06
 .byte   VOL , 12*PokemonMysteryDungeonExplorersofSkyInTheMorningSun_mvl/mxv
 .byte   W06
 .byte   VOL , 11*PokemonMysteryDungeonExplorersofSkyInTheMorningSun_mvl/mxv
 .byte   N12 ,An3 ,v024
 .byte   W06
 .byte   VOL , 10*PokemonMysteryDungeonExplorersofSkyInTheMorningSun_mvl/mxv
 .byte   W06
 .byte   VOL , 10*PokemonMysteryDungeonExplorersofSkyInTheMorningSun_mvl/mxv
 .byte   W06
 .byte   VOL , 8*PokemonMysteryDungeonExplorersofSkyInTheMorningSun_mvl/mxv
 .byte   W06
 .byte   VOL , 8*PokemonMysteryDungeonExplorersofSkyInTheMorningSun_mvl/mxv
 .byte   W06
 .byte   VOL , 7*PokemonMysteryDungeonExplorersofSkyInTheMorningSun_mvl/mxv
 .byte   W06
@  #10 @088   ----------------------------------------
 .byte   W24
 .byte   GOTO
  .word Label_01687EBA
 .byte   FINE

@**************** Track 11 (Midi-Chn.10) ****************@

PokemonMysteryDungeonExplorersofSkyInTheMorningSun_011:
@  #11 @000   ----------------------------------------
 .byte   KEYSH , PokemonMysteryDungeonExplorersofSkyInTheMorningSun_key+0
 .byte   VOICE , 13
 .byte   MODT 0
 .byte   LFOS 44
 .byte   VOL , 73*PokemonMysteryDungeonExplorersofSkyInTheMorningSun_mvl/mxv
 .byte   W96
@  #11 @001   ----------------------------------------
 .byte   W96
@  #11 @002   ----------------------------------------
 .byte   W96
@  #11 @003   ----------------------------------------
 .byte   W96
@  #11 @004   ----------------------------------------
 .byte   W96
@  #11 @005   ----------------------------------------
 .byte   W96
@  #11 @006   ----------------------------------------
 .byte   W24
 .byte   VOL , 12*PokemonMysteryDungeonExplorersofSkyInTheMorningSun_mvl/mxv
 .byte   PAN , c_v-64
 .byte   VOL , 12*PokemonMysteryDungeonExplorersofSkyInTheMorningSun_mvl/mxv
 .byte   BEND , c_v+0
 .byte   W72
@  #11 @007   ----------------------------------------
 .byte   W48
 .byte   VOL , 12*PokemonMysteryDungeonExplorersofSkyInTheMorningSun_mvl/mxv
 .byte   W48
@  #11 @008   ----------------------------------------
 .byte   W24
 .byte   N24 ,Dn4 ,v048
 .byte   W24
 .byte   N36 ,An4
 .byte   W36
 .byte   N12 ,An4 ,v008
 .byte   W12
@  #11 @009   ----------------------------------------
 .byte   N24 ,An4 ,v048
 .byte   W24
 .byte   N12 ,Bn4
 .byte   W12
 .byte   N36 ,An4
 .byte   W36
 .byte   N12
 .byte   W12
 .byte   An4 ,v016
 .byte   W12
@  #11 @010   ----------------------------------------
 .byte   N48 ,Gn4 ,v048
 .byte   W48
 .byte   N42 ,Fs4
 .byte   W42
 .byte   N01 ,Fs4 ,v012
 .byte   W06
@  #11 @011   ----------------------------------------
 .byte   N36 ,Bn4 ,v048
 .byte   W36
 .byte   N12 ,Bn4 ,v012
 .byte   W12
 .byte   N36 ,Dn5 ,v048
 .byte   W36
 .byte   N12 ,Dn5 ,v012
 .byte   W12
@  #11 @012   ----------------------------------------
 .byte   N36 ,En5 ,v048
 .byte   W36
 .byte   N12 ,En5 ,v012
 .byte   W12
 .byte   N60 ,Fs5 ,v048
 .byte   W48
@  #11 @013   ----------------------------------------
Label_016880DF:
 .byte   W12
 .byte   N12 ,Fs5 ,v012
 .byte   W12
 .byte   N06 ,En5 ,v048
 .byte   W06
 .byte   En5 ,v008
 .byte   W06
 .byte   N84 ,En5 ,v048
 .byte   W60
 .byte   PEND 
@  #11 @014   ----------------------------------------
 .byte   W24
 .byte   N12 ,En5 ,v020
 .byte   W12
 .byte   En5 ,v004
 .byte   W12
 .byte   N60 ,Fs5 ,v048
 .byte   W48
@  #11 @015   ----------------------------------------
 .byte   PATT
  .word Label_016880DF
@  #11 @016   ----------------------------------------
 .byte   W24
 .byte   N12 ,En5 ,v016
 .byte   W12
 .byte   En5 ,v004
 .byte   W12
 .byte   TIE ,An5 ,v048
 .byte   W42
 .byte   VOL , 12*PokemonMysteryDungeonExplorersofSkyInTheMorningSun_mvl/mxv
 .byte   W06
@  #11 @017   ----------------------------------------
 .byte   VOL , 11*PokemonMysteryDungeonExplorersofSkyInTheMorningSun_mvl/mxv
 .byte   W06
 .byte   VOL , 10*PokemonMysteryDungeonExplorersofSkyInTheMorningSun_mvl/mxv
 .byte   W06
 .byte   VOL , 10*PokemonMysteryDungeonExplorersofSkyInTheMorningSun_mvl/mxv
 .byte   W06
 .byte   VOL , 9*PokemonMysteryDungeonExplorersofSkyInTheMorningSun_mvl/mxv
 .byte   W06
 .byte   VOL , 8*PokemonMysteryDungeonExplorersofSkyInTheMorningSun_mvl/mxv
 .byte   W06
 .byte   VOL , 8*PokemonMysteryDungeonExplorersofSkyInTheMorningSun_mvl/mxv
 .byte   W06
 .byte   VOL , 6*PokemonMysteryDungeonExplorersofSkyInTheMorningSun_mvl/mxv
 .byte   W06
 .byte   VOL , 6*PokemonMysteryDungeonExplorersofSkyInTheMorningSun_mvl/mxv
 .byte   W06
 .byte   VOL , 6*PokemonMysteryDungeonExplorersofSkyInTheMorningSun_mvl/mxv
 .byte   W06
 .byte   VOL , 5*PokemonMysteryDungeonExplorersofSkyInTheMorningSun_mvl/mxv
 .byte   W06
 .byte   VOL , 5*PokemonMysteryDungeonExplorersofSkyInTheMorningSun_mvl/mxv
 .byte   W06
 .byte   VOL , 4*PokemonMysteryDungeonExplorersofSkyInTheMorningSun_mvl/mxv
 .byte   W06
 .byte   VOL , 3*PokemonMysteryDungeonExplorersofSkyInTheMorningSun_mvl/mxv
 .byte   W06
 .byte   VOL , 3*PokemonMysteryDungeonExplorersofSkyInTheMorningSun_mvl/mxv
 .byte   W06
 .byte   VOL , 3*PokemonMysteryDungeonExplorersofSkyInTheMorningSun_mvl/mxv
 .byte   W06
 .byte   VOL , 2*PokemonMysteryDungeonExplorersofSkyInTheMorningSun_mvl/mxv
 .byte   W06
@  #11 @018   ----------------------------------------
 .byte   EOT
 .byte   VOL , 1*PokemonMysteryDungeonExplorersofSkyInTheMorningSun_mvl/mxv
 .byte   W24
Label_01688134:
 .byte   PAN , c_v-64
 .byte   VOL , 1*PokemonMysteryDungeonExplorersofSkyInTheMorningSun_mvl/mxv
 .byte   BEND , c_v+0
 .byte   W72
@  #11 @019   ----------------------------------------
 .byte   W96
@  #11 @020   ----------------------------------------
 .byte   W96
@  #11 @021   ----------------------------------------
 .byte   W96
@  #11 @022   ----------------------------------------
 .byte   W96
@  #11 @023   ----------------------------------------
 .byte   W96
@  #11 @024   ----------------------------------------
 .byte   W96
@  #11 @025   ----------------------------------------
 .byte   W96
@  #11 @026   ----------------------------------------
 .byte   W96
@  #11 @027   ----------------------------------------
 .byte   W96
@  #11 @028   ----------------------------------------
 .byte   W96
@  #11 @029   ----------------------------------------
 .byte   W96
@  #11 @030   ----------------------------------------
 .byte   W96
@  #11 @031   ----------------------------------------
 .byte   W96
@  #11 @032   ----------------------------------------
 .byte   W24
 .byte   VOL , 12*PokemonMysteryDungeonExplorersofSkyInTheMorningSun_mvl/mxv
 .byte   PAN , c_v+0
 .byte   VOL , 48*PokemonMysteryDungeonExplorersofSkyInTheMorningSun_mvl/mxv
 .byte   BEND , c_v+0
 .byte   W72
@  #11 @033   ----------------------------------------
 .byte   W24
 .byte   VOL , 48*PokemonMysteryDungeonExplorersofSkyInTheMorningSun_mvl/mxv
 .byte   W52
 .byte   W01
 .byte   N12 ,Dn4 ,v056
 .byte   W12
 .byte   En4
 .byte   W07
@  #11 @034   ----------------------------------------
 .byte   W05
 .byte   Fs4
 .byte   W12
 .byte   Gn4
 .byte   W12
 .byte   N48 ,An4
 .byte   W48
 .byte   N12 ,An4 ,v020
 .byte   W12
 .byte   An4 ,v008
 .byte   W07
@  #11 @035   ----------------------------------------
 .byte   W05
 .byte   Dn4 ,v056
 .byte   W12
 .byte   N84
 .byte   W78
 .byte   W01
@  #11 @036   ----------------------------------------
 .byte   W05
 .byte   N12 ,Dn4 ,v020
 .byte   W12
 .byte   Dn4 ,v008
 .byte   W12
 .byte   N24 ,Cn4 ,v056
 .byte   W24
 .byte   N12 ,Fn4
 .byte   W12
 .byte   N24
 .byte   W24
 .byte   N12 ,Cn4
 .byte   W07
@  #11 @037   ----------------------------------------
 .byte   W05
 .byte   Cn4 ,v020
 .byte   W12
 .byte   N84 ,Cn4 ,v056
 .byte   W78
 .byte   W01
@  #11 @038   ----------------------------------------
 .byte   W05
 .byte   N12 ,Cn4 ,v020
 .byte   W12
 .byte   Cn4 ,v008
 .byte   W12
 .byte   N24 ,As3 ,v056
 .byte   W24
 .byte   N12 ,Fn4
 .byte   W12
 .byte   N24
 .byte   W24
 .byte   N12 ,Fn4 ,v020
 .byte   W07
@  #11 @039   ----------------------------------------
 .byte   W05
 .byte   Fn4 ,v008
 .byte   W15
 .byte   Fn4 ,v012
 .byte   W09
 .byte   N24 ,Cn4 ,v056
 .byte   W24
 .byte   N12 ,Gn4
 .byte   W12
 .byte   N24
 .byte   W24
 .byte   N12 ,Gn4 ,v020
 .byte   W07
@  #11 @040   ----------------------------------------
 .byte   W05
 .byte   Gn4 ,v008
 .byte   W15
 .byte   Gn4 ,v012
 .byte   W09
 .byte   N24 ,Dn4 ,v056
 .byte   W24
 .byte   N12 ,An4
 .byte   W12
 .byte   N24
 .byte   W24
 .byte   N12 ,Gn4
 .byte   W07
@  #11 @041   ----------------------------------------
 .byte   W05
 .byte   Gn4 ,v020
 .byte   W12
 .byte   N30 ,An4 ,v056
 .byte   W78
 .byte   W01
@  #11 @042   ----------------------------------------
 .byte   W96
@  #11 @043   ----------------------------------------
 .byte   W96
@  #11 @044   ----------------------------------------
 .byte   W96
@  #11 @045   ----------------------------------------
 .byte   W96
@  #11 @046   ----------------------------------------
 .byte   W96
@  #11 @047   ----------------------------------------
 .byte   W96
@  #11 @048   ----------------------------------------
 .byte   W96
@  #11 @049   ----------------------------------------
 .byte   W96
@  #11 @050   ----------------------------------------
 .byte   W96
@  #11 @051   ----------------------------------------
 .byte   W96
@  #11 @052   ----------------------------------------
 .byte   W96
@  #11 @053   ----------------------------------------
 .byte   W96
@  #11 @054   ----------------------------------------
 .byte   W96
@  #11 @055   ----------------------------------------
 .byte   W96
@  #11 @056   ----------------------------------------
 .byte   W96
@  #11 @057   ----------------------------------------
 .byte   W96
@  #11 @058   ----------------------------------------
 .byte   W96
@  #11 @059   ----------------------------------------
 .byte   W96
@  #11 @060   ----------------------------------------
 .byte   W96
@  #11 @061   ----------------------------------------
 .byte   W96
@  #11 @062   ----------------------------------------
 .byte   W96
@  #11 @063   ----------------------------------------
 .byte   W96
@  #11 @064   ----------------------------------------
 .byte   W96
@  #11 @065   ----------------------------------------
 .byte   W96
@  #11 @066   ----------------------------------------
 .byte   W96
@  #11 @067   ----------------------------------------
 .byte   W96
@  #11 @068   ----------------------------------------
 .byte   W96
@  #11 @069   ----------------------------------------
 .byte   W96
@  #11 @070   ----------------------------------------
 .byte   W96
@  #11 @071   ----------------------------------------
 .byte   W96
@  #11 @072   ----------------------------------------
 .byte   W96
@  #11 @073   ----------------------------------------
 .byte   W96
@  #11 @074   ----------------------------------------
 .byte   W96
@  #11 @075   ----------------------------------------
 .byte   W96
@  #11 @076   ----------------------------------------
 .byte   W96
@  #11 @077   ----------------------------------------
 .byte   W96
@  #11 @078   ----------------------------------------
 .byte   W96
@  #11 @079   ----------------------------------------
 .byte   W96
@  #11 @080   ----------------------------------------
 .byte   W96
@  #11 @081   ----------------------------------------
 .byte   W96
@  #11 @082   ----------------------------------------
 .byte   W96
@  #11 @083   ----------------------------------------
 .byte   W96
@  #11 @084   ----------------------------------------
 .byte   W96
@  #11 @085   ----------------------------------------
 .byte   W96
@  #11 @086   ----------------------------------------
 .byte   W96
@  #11 @087   ----------------------------------------
 .byte   W96
@  #11 @088   ----------------------------------------
 .byte   W24
 .byte   GOTO
  .word Label_01688134
 .byte   FINE

@**************** Track 12 (Midi-Chn.11) ****************@

PokemonMysteryDungeonExplorersofSkyInTheMorningSun_012:
@  #12 @000   ----------------------------------------
 .byte   KEYSH , PokemonMysteryDungeonExplorersofSkyInTheMorningSun_key+0
 .byte   VOICE , 48
 .byte   MODT 0
 .byte   LFOS 44
 .byte   VOL , 73*PokemonMysteryDungeonExplorersofSkyInTheMorningSun_mvl/mxv
 .byte   PAN , c_v-34
 .byte   VOL , 30*PokemonMysteryDungeonExplorersofSkyInTheMorningSun_mvl/mxv
 .byte   BEND , c_v+0
 .byte   W96
@  #12 @001   ----------------------------------------
 .byte   W96
@  #12 @002   ----------------------------------------
 .byte   W96
@  #12 @003   ----------------------------------------
 .byte   W96
@  #12 @004   ----------------------------------------
 .byte   W96
@  #12 @005   ----------------------------------------
 .byte   W96
@  #12 @006   ----------------------------------------
 .byte   W96
@  #12 @007   ----------------------------------------
 .byte   W96
@  #12 @008   ----------------------------------------
Label_01688224:
 .byte   W21
 .byte   VOL , 9*PokemonMysteryDungeonExplorersofSkyInTheMorningSun_mvl/mxv
 .byte   W03
 .byte   N92 ,Bn2 ,v072
 .byte   N92 ,Dn3 ,v052
 .byte   W03
 .byte   VOL , 13*PokemonMysteryDungeonExplorersofSkyInTheMorningSun_mvl/mxv
 .byte   W06
 .byte   VOL , 17*PokemonMysteryDungeonExplorersofSkyInTheMorningSun_mvl/mxv
 .byte   W06
 .byte   VOL , 20*PokemonMysteryDungeonExplorersofSkyInTheMorningSun_mvl/mxv
 .byte   W06
 .byte   VOL , 23*PokemonMysteryDungeonExplorersofSkyInTheMorningSun_mvl/mxv
 .byte   W06
 .byte   VOL , 27*PokemonMysteryDungeonExplorersofSkyInTheMorningSun_mvl/mxv
 .byte   W06
 .byte   VOL , 28*PokemonMysteryDungeonExplorersofSkyInTheMorningSun_mvl/mxv
 .byte   W06
 .byte   VOL , 30*PokemonMysteryDungeonExplorersofSkyInTheMorningSun_mvl/mxv
 .byte   W32
 .byte   W01
 .byte   PEND 
@  #12 @009   ----------------------------------------
Label_01688240:
 .byte   W05
 .byte   VOL , 29*PokemonMysteryDungeonExplorersofSkyInTheMorningSun_mvl/mxv
 .byte   W06
 .byte   VOL , 28*PokemonMysteryDungeonExplorersofSkyInTheMorningSun_mvl/mxv
 .byte   W06
 .byte   VOL , 24*PokemonMysteryDungeonExplorersofSkyInTheMorningSun_mvl/mxv
 .byte   W07
 .byte   N92 ,Cs3 ,v072
 .byte   N92 ,En3 ,v052
 .byte   W01
 .byte   VOL , 24*PokemonMysteryDungeonExplorersofSkyInTheMorningSun_mvl/mxv
 .byte   W06
 .byte   VOL , 27*PokemonMysteryDungeonExplorersofSkyInTheMorningSun_mvl/mxv
 .byte   W01
 .byte   VOL , 27*PokemonMysteryDungeonExplorersofSkyInTheMorningSun_mvl/mxv
 .byte   W03
 .byte   VOL , 27*PokemonMysteryDungeonExplorersofSkyInTheMorningSun_mvl/mxv
 .byte   W06
 .byte   VOL , 30*PokemonMysteryDungeonExplorersofSkyInTheMorningSun_mvl/mxv
 .byte   W04
 .byte   VOL , 30*PokemonMysteryDungeonExplorersofSkyInTheMorningSun_mvl/mxv
 .byte   W32
 .byte   W02
 .byte   VOL , 30*PokemonMysteryDungeonExplorersofSkyInTheMorningSun_mvl/mxv
 .byte   W12
 .byte   VOL , 30*PokemonMysteryDungeonExplorersofSkyInTheMorningSun_mvl/mxv
 .byte   W05
 .byte   PEND 
@  #12 @010   ----------------------------------------
Label_01688262:
 .byte   W01
 .byte   VOL , 29*PokemonMysteryDungeonExplorersofSkyInTheMorningSun_mvl/mxv
 .byte   W06
 .byte   VOL , 28*PokemonMysteryDungeonExplorersofSkyInTheMorningSun_mvl/mxv
 .byte   W06
 .byte   VOL , 28*PokemonMysteryDungeonExplorersofSkyInTheMorningSun_mvl/mxv
 .byte   W06
 .byte   VOL , 27*PokemonMysteryDungeonExplorersofSkyInTheMorningSun_mvl/mxv
 .byte   W05
 .byte   TIE ,Bn2 ,v072
 .byte   TIE ,Dn3 ,v052
 .byte   W01
 .byte   VOL , 25*PokemonMysteryDungeonExplorersofSkyInTheMorningSun_mvl/mxv
 .byte   W04
 .byte   VOL , 24*PokemonMysteryDungeonExplorersofSkyInTheMorningSun_mvl/mxv
 .byte   W06
 .byte   VOL , 26*PokemonMysteryDungeonExplorersofSkyInTheMorningSun_mvl/mxv
 .byte   W06
 .byte   VOL , 27*PokemonMysteryDungeonExplorersofSkyInTheMorningSun_mvl/mxv
 .byte   W06
 .byte   VOL , 28*PokemonMysteryDungeonExplorersofSkyInTheMorningSun_mvl/mxv
 .byte   W06
 .byte   VOL , 29*PokemonMysteryDungeonExplorersofSkyInTheMorningSun_mvl/mxv
 .byte   W06
 .byte   VOL , 29*PokemonMysteryDungeonExplorersofSkyInTheMorningSun_mvl/mxv
 .byte   W06
 .byte   VOL , 30*PokemonMysteryDungeonExplorersofSkyInTheMorningSun_mvl/mxv
 .byte   W30
 .byte   W01
 .byte   PEND 
@  #12 @011   ----------------------------------------
Label_01688286:
 .byte   W60
 .byte   W03
 .byte   VOL , 29*PokemonMysteryDungeonExplorersofSkyInTheMorningSun_mvl/mxv
 .byte   W24
 .byte   VOL , 28*PokemonMysteryDungeonExplorersofSkyInTheMorningSun_mvl/mxv
 .byte   W06
 .byte   VOL , 28*PokemonMysteryDungeonExplorersofSkyInTheMorningSun_mvl/mxv
 .byte   W03
 .byte   PEND 
@  #12 @012   ----------------------------------------
Label_01688290:
 .byte   W03
 .byte   VOL , 28*PokemonMysteryDungeonExplorersofSkyInTheMorningSun_mvl/mxv
 .byte   W06
 .byte   VOL , 27*PokemonMysteryDungeonExplorersofSkyInTheMorningSun_mvl/mxv
 .byte   W06
 .byte   VOL , 27*PokemonMysteryDungeonExplorersofSkyInTheMorningSun_mvl/mxv
 .byte   W06
 .byte   VOL , 23*PokemonMysteryDungeonExplorersofSkyInTheMorningSun_mvl/mxv
 .byte   W02
 .byte   PEND 
 .byte   EOT
 .byte   Bn2 ,v062
 .byte   W01
 .byte   TIE ,Bn2 ,v072
 .byte   TIE ,Dn3 ,v052
 .byte   W03
 .byte   VOL , 24*PokemonMysteryDungeonExplorersofSkyInTheMorningSun_mvl/mxv
 .byte   W06
 .byte   VOL , 26*PokemonMysteryDungeonExplorersofSkyInTheMorningSun_mvl/mxv
 .byte   W06
 .byte   VOL , 27*PokemonMysteryDungeonExplorersofSkyInTheMorningSun_mvl/mxv
 .byte   W06
 .byte   VOL , 28*PokemonMysteryDungeonExplorersofSkyInTheMorningSun_mvl/mxv
 .byte   W06
 .byte   VOL , 28*PokemonMysteryDungeonExplorersofSkyInTheMorningSun_mvl/mxv
 .byte   W06
 .byte   VOL , 29*PokemonMysteryDungeonExplorersofSkyInTheMorningSun_mvl/mxv
 .byte   W06
 .byte   VOL , 29*PokemonMysteryDungeonExplorersofSkyInTheMorningSun_mvl/mxv
 .byte   W32
 .byte   W01
@  #12 @013   ----------------------------------------
Label_016882B6:
 .byte   W68
 .byte   W03
 .byte   VOL , 28*PokemonMysteryDungeonExplorersofSkyInTheMorningSun_mvl/mxv
 .byte   W18
 .byte   VOL , 28*PokemonMysteryDungeonExplorersofSkyInTheMorningSun_mvl/mxv
 .byte   W07
 .byte   PEND 
@  #12 @014   ----------------------------------------
Label_016882BE:
 .byte   W05
 .byte   VOL , 27*PokemonMysteryDungeonExplorersofSkyInTheMorningSun_mvl/mxv
 .byte   W06
 .byte   VOL , 27*PokemonMysteryDungeonExplorersofSkyInTheMorningSun_mvl/mxv
 .byte   W06
 .byte   VOL , 27*PokemonMysteryDungeonExplorersofSkyInTheMorningSun_mvl/mxv
 .byte   W06
 .byte   PEND 
 .byte   EOT
 .byte   Bn2 ,v062
 .byte   W01
 .byte   N92 ,Cs3 ,v052
 .byte   W01
 .byte   VOL , 26*PokemonMysteryDungeonExplorersofSkyInTheMorningSun_mvl/mxv
 .byte   W06
 .byte   VOL , 27*PokemonMysteryDungeonExplorersofSkyInTheMorningSun_mvl/mxv
 .byte   W06
 .byte   VOL , 28*PokemonMysteryDungeonExplorersofSkyInTheMorningSun_mvl/mxv
 .byte   W06
 .byte   VOL , 29*PokemonMysteryDungeonExplorersofSkyInTheMorningSun_mvl/mxv
 .byte   W06
 .byte   VOL , 29*PokemonMysteryDungeonExplorersofSkyInTheMorningSun_mvl/mxv
 .byte   W44
 .byte   W02
 .byte   VOL , 30*PokemonMysteryDungeonExplorersofSkyInTheMorningSun_mvl/mxv
 .byte   W01
@  #12 @015   ----------------------------------------
Label_016882DD:
 .byte   W05
 .byte   VOL , 29*PokemonMysteryDungeonExplorersofSkyInTheMorningSun_mvl/mxv
 .byte   W06
 .byte   VOL , 28*PokemonMysteryDungeonExplorersofSkyInTheMorningSun_mvl/mxv
 .byte   W12
 .byte   VOL , 27*PokemonMysteryDungeonExplorersofSkyInTheMorningSun_mvl/mxv
 .byte   W01
 .byte   TIE ,Cs3 ,v052
 .byte   W05
 .byte   VOL , 25*PokemonMysteryDungeonExplorersofSkyInTheMorningSun_mvl/mxv
 .byte   W06
 .byte   VOL , 27*PokemonMysteryDungeonExplorersofSkyInTheMorningSun_mvl/mxv
 .byte   W06
 .byte   VOL , 27*PokemonMysteryDungeonExplorersofSkyInTheMorningSun_mvl/mxv
 .byte   W01
 .byte   VOL , 28*PokemonMysteryDungeonExplorersofSkyInTheMorningSun_mvl/mxv
 .byte   W02
 .byte   VOL , 30*PokemonMysteryDungeonExplorersofSkyInTheMorningSun_mvl/mxv
 .byte   W06
 .byte   VOL , 30*PokemonMysteryDungeonExplorersofSkyInTheMorningSun_mvl/mxv
 .byte   W44
 .byte   W02
 .byte   PEND 
@  #12 @016   ----------------------------------------
Label_016882F8:
 .byte   W24
 .byte   VOL , 30*PokemonMysteryDungeonExplorersofSkyInTheMorningSun_mvl/mxv
 .byte   W06
 .byte   VOL , 30*PokemonMysteryDungeonExplorersofSkyInTheMorningSun_mvl/mxv
 .byte   W06
 .byte   VOL , 28*PokemonMysteryDungeonExplorersofSkyInTheMorningSun_mvl/mxv
 .byte   W06
 .byte   VOL , 27*PokemonMysteryDungeonExplorersofSkyInTheMorningSun_mvl/mxv
 .byte   W06
 .byte   VOL , 27*PokemonMysteryDungeonExplorersofSkyInTheMorningSun_mvl/mxv
 .byte   W06
 .byte   VOL , 24*PokemonMysteryDungeonExplorersofSkyInTheMorningSun_mvl/mxv
 .byte   W06
 .byte   VOL , 23*PokemonMysteryDungeonExplorersofSkyInTheMorningSun_mvl/mxv
 .byte   W06
 .byte   VOL , 23*PokemonMysteryDungeonExplorersofSkyInTheMorningSun_mvl/mxv
 .byte   W06
 .byte   VOL , 21*PokemonMysteryDungeonExplorersofSkyInTheMorningSun_mvl/mxv
 .byte   W06
 .byte   VOL , 20*PokemonMysteryDungeonExplorersofSkyInTheMorningSun_mvl/mxv
 .byte   W06
 .byte   VOL , 19*PokemonMysteryDungeonExplorersofSkyInTheMorningSun_mvl/mxv
 .byte   W06
 .byte   VOL , 18*PokemonMysteryDungeonExplorersofSkyInTheMorningSun_mvl/mxv
 .byte   W06
 .byte   PEND 
@  #12 @017   ----------------------------------------
Label_01688313:
 .byte   VOL , 17*PokemonMysteryDungeonExplorersofSkyInTheMorningSun_mvl/mxv
 .byte   W06
 .byte   VOL , 17*PokemonMysteryDungeonExplorersofSkyInTheMorningSun_mvl/mxv
 .byte   W06
 .byte   VOL , 15*PokemonMysteryDungeonExplorersofSkyInTheMorningSun_mvl/mxv
 .byte   W06
 .byte   VOL , 14*PokemonMysteryDungeonExplorersofSkyInTheMorningSun_mvl/mxv
 .byte   W06
 .byte   VOL , 13*PokemonMysteryDungeonExplorersofSkyInTheMorningSun_mvl/mxv
 .byte   W06
 .byte   VOL , 13*PokemonMysteryDungeonExplorersofSkyInTheMorningSun_mvl/mxv
 .byte   W06
 .byte   VOL , 11*PokemonMysteryDungeonExplorersofSkyInTheMorningSun_mvl/mxv
 .byte   W06
 .byte   VOL , 11*PokemonMysteryDungeonExplorersofSkyInTheMorningSun_mvl/mxv
 .byte   W06
 .byte   VOL , 10*PokemonMysteryDungeonExplorersofSkyInTheMorningSun_mvl/mxv
 .byte   W06
 .byte   VOL , 10*PokemonMysteryDungeonExplorersofSkyInTheMorningSun_mvl/mxv
 .byte   W06
 .byte   VOL , 8*PokemonMysteryDungeonExplorersofSkyInTheMorningSun_mvl/mxv
 .byte   W06
 .byte   VOL , 8*PokemonMysteryDungeonExplorersofSkyInTheMorningSun_mvl/mxv
 .byte   W06
 .byte   VOL , 6*PokemonMysteryDungeonExplorersofSkyInTheMorningSun_mvl/mxv
 .byte   W06
 .byte   VOL , 6*PokemonMysteryDungeonExplorersofSkyInTheMorningSun_mvl/mxv
 .byte   W06
 .byte   VOL , 6*PokemonMysteryDungeonExplorersofSkyInTheMorningSun_mvl/mxv
 .byte   W06
 .byte   VOL , 5*PokemonMysteryDungeonExplorersofSkyInTheMorningSun_mvl/mxv
 .byte   W06
 .byte   PEND 
@  #12 @018   ----------------------------------------
Label_01688335:
 .byte   VOL , 5*PokemonMysteryDungeonExplorersofSkyInTheMorningSun_mvl/mxv
 .byte   W06
 .byte   VOL , 4*PokemonMysteryDungeonExplorersofSkyInTheMorningSun_mvl/mxv
 .byte   W06
 .byte   VOL , 3*PokemonMysteryDungeonExplorersofSkyInTheMorningSun_mvl/mxv
 .byte   W11
 .byte   PEND 
 .byte   EOT
 .byte   Cs3
 .byte   W01
Label_01688340:
 .byte   W72
@  #12 @019   ----------------------------------------
 .byte   W96
@  #12 @020   ----------------------------------------
 .byte   W96
@  #12 @021   ----------------------------------------
 .byte   W96
@  #12 @022   ----------------------------------------
 .byte   W96
@  #12 @023   ----------------------------------------
 .byte   W96
@  #12 @024   ----------------------------------------
 .byte   W96
@  #12 @025   ----------------------------------------
 .byte   W96
@  #12 @026   ----------------------------------------
 .byte   W96
@  #12 @027   ----------------------------------------
 .byte   W96
@  #12 @028   ----------------------------------------
 .byte   W96
@  #12 @029   ----------------------------------------
 .byte   W96
@  #12 @030   ----------------------------------------
 .byte   W96
@  #12 @031   ----------------------------------------
 .byte   W96
@  #12 @032   ----------------------------------------
 .byte   W96
@  #12 @033   ----------------------------------------
 .byte   W96
@  #12 @034   ----------------------------------------
 .byte   W24
 .byte   VOL , 16*PokemonMysteryDungeonExplorersofSkyInTheMorningSun_mvl/mxv
 .byte   TIE ,Fn3 ,v088
 .byte   W06
 .byte   VOL , 17*PokemonMysteryDungeonExplorersofSkyInTheMorningSun_mvl/mxv
 .byte   W06
 .byte   VOL , 17*PokemonMysteryDungeonExplorersofSkyInTheMorningSun_mvl/mxv
 .byte   W06
 .byte   VOL , 17*PokemonMysteryDungeonExplorersofSkyInTheMorningSun_mvl/mxv
 .byte   W06
 .byte   VOL , 18*PokemonMysteryDungeonExplorersofSkyInTheMorningSun_mvl/mxv
 .byte   W06
 .byte   VOL , 18*PokemonMysteryDungeonExplorersofSkyInTheMorningSun_mvl/mxv
 .byte   W12
 .byte   VOL , 19*PokemonMysteryDungeonExplorersofSkyInTheMorningSun_mvl/mxv
 .byte   W06
 .byte   VOL , 19*PokemonMysteryDungeonExplorersofSkyInTheMorningSun_mvl/mxv
 .byte   W06
 .byte   VOL , 19*PokemonMysteryDungeonExplorersofSkyInTheMorningSun_mvl/mxv
 .byte   W06
 .byte   VOL , 20*PokemonMysteryDungeonExplorersofSkyInTheMorningSun_mvl/mxv
 .byte   W06
 .byte   VOL , 20*PokemonMysteryDungeonExplorersofSkyInTheMorningSun_mvl/mxv
 .byte   W06
@  #12 @035   ----------------------------------------
 .byte   VOL , 21*PokemonMysteryDungeonExplorersofSkyInTheMorningSun_mvl/mxv
 .byte   W06
 .byte   VOL , 21*PokemonMysteryDungeonExplorersofSkyInTheMorningSun_mvl/mxv
 .byte   W06
 .byte   VOL , 22*PokemonMysteryDungeonExplorersofSkyInTheMorningSun_mvl/mxv
 .byte   W06
 .byte   VOL , 22*PokemonMysteryDungeonExplorersofSkyInTheMorningSun_mvl/mxv
 .byte   W06
 .byte   VOL , 23*PokemonMysteryDungeonExplorersofSkyInTheMorningSun_mvl/mxv
 .byte   W12
 .byte   VOL , 23*PokemonMysteryDungeonExplorersofSkyInTheMorningSun_mvl/mxv
 .byte   W06
 .byte   VOL , 24*PokemonMysteryDungeonExplorersofSkyInTheMorningSun_mvl/mxv
 .byte   W06
 .byte   VOL , 24*PokemonMysteryDungeonExplorersofSkyInTheMorningSun_mvl/mxv
 .byte   W06
 .byte   VOL , 25*PokemonMysteryDungeonExplorersofSkyInTheMorningSun_mvl/mxv
 .byte   W06
 .byte   VOL , 26*PokemonMysteryDungeonExplorersofSkyInTheMorningSun_mvl/mxv
 .byte   W06
 .byte   VOL , 27*PokemonMysteryDungeonExplorersofSkyInTheMorningSun_mvl/mxv
 .byte   W06
 .byte   VOL , 27*PokemonMysteryDungeonExplorersofSkyInTheMorningSun_mvl/mxv
 .byte   W06
 .byte   VOL , 27*PokemonMysteryDungeonExplorersofSkyInTheMorningSun_mvl/mxv
 .byte   W06
 .byte   VOL , 28*PokemonMysteryDungeonExplorersofSkyInTheMorningSun_mvl/mxv
 .byte   W06
 .byte   VOL , 28*PokemonMysteryDungeonExplorersofSkyInTheMorningSun_mvl/mxv
 .byte   W06
@  #12 @036   ----------------------------------------
 .byte   VOL , 28*PokemonMysteryDungeonExplorersofSkyInTheMorningSun_mvl/mxv
 .byte   W06
 .byte   VOL , 29*PokemonMysteryDungeonExplorersofSkyInTheMorningSun_mvl/mxv
 .byte   W06
 .byte   VOL , 30*PokemonMysteryDungeonExplorersofSkyInTheMorningSun_mvl/mxv
 .byte   W06
 .byte   VOL , 30*PokemonMysteryDungeonExplorersofSkyInTheMorningSun_mvl/mxv
 .byte   W05
 .byte   EOT
 .byte   W01
 .byte   VOL , 30*PokemonMysteryDungeonExplorersofSkyInTheMorningSun_mvl/mxv
 .byte   TIE
 .byte   W06
 .byte   VOL , 30*PokemonMysteryDungeonExplorersofSkyInTheMorningSun_mvl/mxv
 .byte   W06
 .byte   VOL , 29*PokemonMysteryDungeonExplorersofSkyInTheMorningSun_mvl/mxv
 .byte   W06
 .byte   VOL , 28*PokemonMysteryDungeonExplorersofSkyInTheMorningSun_mvl/mxv
 .byte   W12
 .byte   VOL , 28*PokemonMysteryDungeonExplorersofSkyInTheMorningSun_mvl/mxv
 .byte   W06
 .byte   VOL , 27*PokemonMysteryDungeonExplorersofSkyInTheMorningSun_mvl/mxv
 .byte   W06
 .byte   VOL , 27*PokemonMysteryDungeonExplorersofSkyInTheMorningSun_mvl/mxv
 .byte   W06
 .byte   VOL , 27*PokemonMysteryDungeonExplorersofSkyInTheMorningSun_mvl/mxv
 .byte   W06
 .byte   VOL , 27*PokemonMysteryDungeonExplorersofSkyInTheMorningSun_mvl/mxv
 .byte   W06
 .byte   VOL , 26*PokemonMysteryDungeonExplorersofSkyInTheMorningSun_mvl/mxv
 .byte   W06
 .byte   VOL , 25*PokemonMysteryDungeonExplorersofSkyInTheMorningSun_mvl/mxv
 .byte   W06
@  #12 @037   ----------------------------------------
 .byte   VOL , 24*PokemonMysteryDungeonExplorersofSkyInTheMorningSun_mvl/mxv
 .byte   W06
 .byte   VOL , 24*PokemonMysteryDungeonExplorersofSkyInTheMorningSun_mvl/mxv
 .byte   W06
 .byte   VOL , 23*PokemonMysteryDungeonExplorersofSkyInTheMorningSun_mvl/mxv
 .byte   W06
 .byte   VOL , 23*PokemonMysteryDungeonExplorersofSkyInTheMorningSun_mvl/mxv
 .byte   W06
 .byte   VOL , 23*PokemonMysteryDungeonExplorersofSkyInTheMorningSun_mvl/mxv
 .byte   W06
 .byte   VOL , 23*PokemonMysteryDungeonExplorersofSkyInTheMorningSun_mvl/mxv
 .byte   W06
 .byte   VOL , 22*PokemonMysteryDungeonExplorersofSkyInTheMorningSun_mvl/mxv
 .byte   W06
 .byte   VOL , 22*PokemonMysteryDungeonExplorersofSkyInTheMorningSun_mvl/mxv
 .byte   W06
 .byte   VOL , 21*PokemonMysteryDungeonExplorersofSkyInTheMorningSun_mvl/mxv
 .byte   W06
 .byte   VOL , 21*PokemonMysteryDungeonExplorersofSkyInTheMorningSun_mvl/mxv
 .byte   W06
 .byte   VOL , 20*PokemonMysteryDungeonExplorersofSkyInTheMorningSun_mvl/mxv
 .byte   W06
 .byte   VOL , 20*PokemonMysteryDungeonExplorersofSkyInTheMorningSun_mvl/mxv
 .byte   W06
 .byte   VOL , 20*PokemonMysteryDungeonExplorersofSkyInTheMorningSun_mvl/mxv
 .byte   W06
 .byte   VOL , 19*PokemonMysteryDungeonExplorersofSkyInTheMorningSun_mvl/mxv
 .byte   W06
 .byte   VOL , 19*PokemonMysteryDungeonExplorersofSkyInTheMorningSun_mvl/mxv
 .byte   W06
 .byte   VOL , 18*PokemonMysteryDungeonExplorersofSkyInTheMorningSun_mvl/mxv
 .byte   W06
@  #12 @038   ----------------------------------------
 .byte   VOL , 18*PokemonMysteryDungeonExplorersofSkyInTheMorningSun_mvl/mxv
 .byte   W06
 .byte   VOL , 18*PokemonMysteryDungeonExplorersofSkyInTheMorningSun_mvl/mxv
 .byte   W06
 .byte   VOL , 18*PokemonMysteryDungeonExplorersofSkyInTheMorningSun_mvl/mxv
 .byte   W06
 .byte   VOL , 17*PokemonMysteryDungeonExplorersofSkyInTheMorningSun_mvl/mxv
 .byte   W05
 .byte   EOT
 .byte   W01
 .byte   VOL , 17*PokemonMysteryDungeonExplorersofSkyInTheMorningSun_mvl/mxv
 .byte   N92 ,Dn3
 .byte   W06
 .byte   VOL , 17*PokemonMysteryDungeonExplorersofSkyInTheMorningSun_mvl/mxv
 .byte   W06
 .byte   VOL , 17*PokemonMysteryDungeonExplorersofSkyInTheMorningSun_mvl/mxv
 .byte   W06
 .byte   VOL , 18*PokemonMysteryDungeonExplorersofSkyInTheMorningSun_mvl/mxv
 .byte   W06
 .byte   VOL , 18*PokemonMysteryDungeonExplorersofSkyInTheMorningSun_mvl/mxv
 .byte   W06
 .byte   VOL , 18*PokemonMysteryDungeonExplorersofSkyInTheMorningSun_mvl/mxv
 .byte   W06
 .byte   VOL , 19*PokemonMysteryDungeonExplorersofSkyInTheMorningSun_mvl/mxv
 .byte   W06
 .byte   VOL , 19*PokemonMysteryDungeonExplorersofSkyInTheMorningSun_mvl/mxv
 .byte   W06
 .byte   VOL , 19*PokemonMysteryDungeonExplorersofSkyInTheMorningSun_mvl/mxv
 .byte   W06
 .byte   VOL , 20*PokemonMysteryDungeonExplorersofSkyInTheMorningSun_mvl/mxv
 .byte   W06
 .byte   VOL , 20*PokemonMysteryDungeonExplorersofSkyInTheMorningSun_mvl/mxv
 .byte   W06
 .byte   VOL , 21*PokemonMysteryDungeonExplorersofSkyInTheMorningSun_mvl/mxv
 .byte   W06
@  #12 @039   ----------------------------------------
 .byte   VOL , 21*PokemonMysteryDungeonExplorersofSkyInTheMorningSun_mvl/mxv
 .byte   W06
 .byte   VOL , 22*PokemonMysteryDungeonExplorersofSkyInTheMorningSun_mvl/mxv
 .byte   W06
 .byte   VOL , 22*PokemonMysteryDungeonExplorersofSkyInTheMorningSun_mvl/mxv
 .byte   W06
 .byte   VOL , 23*PokemonMysteryDungeonExplorersofSkyInTheMorningSun_mvl/mxv
 .byte   W06
 .byte   VOL , 23*PokemonMysteryDungeonExplorersofSkyInTheMorningSun_mvl/mxv
 .byte   N92
 .byte   W06
 .byte   VOL , 23*PokemonMysteryDungeonExplorersofSkyInTheMorningSun_mvl/mxv
 .byte   W06
 .byte   VOL , 23*PokemonMysteryDungeonExplorersofSkyInTheMorningSun_mvl/mxv
 .byte   W06
 .byte   VOL , 24*PokemonMysteryDungeonExplorersofSkyInTheMorningSun_mvl/mxv
 .byte   W06
 .byte   VOL , 24*PokemonMysteryDungeonExplorersofSkyInTheMorningSun_mvl/mxv
 .byte   W06
 .byte   VOL , 25*PokemonMysteryDungeonExplorersofSkyInTheMorningSun_mvl/mxv
 .byte   W06
 .byte   VOL , 26*PokemonMysteryDungeonExplorersofSkyInTheMorningSun_mvl/mxv
 .byte   W06
 .byte   VOL , 27*PokemonMysteryDungeonExplorersofSkyInTheMorningSun_mvl/mxv
 .byte   W06
 .byte   VOL , 27*PokemonMysteryDungeonExplorersofSkyInTheMorningSun_mvl/mxv
 .byte   W06
 .byte   VOL , 27*PokemonMysteryDungeonExplorersofSkyInTheMorningSun_mvl/mxv
 .byte   W06
 .byte   VOL , 27*PokemonMysteryDungeonExplorersofSkyInTheMorningSun_mvl/mxv
 .byte   W06
 .byte   VOL , 28*PokemonMysteryDungeonExplorersofSkyInTheMorningSun_mvl/mxv
 .byte   W06
@  #12 @040   ----------------------------------------
 .byte   VOL , 28*PokemonMysteryDungeonExplorersofSkyInTheMorningSun_mvl/mxv
 .byte   W06
 .byte   VOL , 29*PokemonMysteryDungeonExplorersofSkyInTheMorningSun_mvl/mxv
 .byte   W06
 .byte   VOL , 29*PokemonMysteryDungeonExplorersofSkyInTheMorningSun_mvl/mxv
 .byte   W06
 .byte   VOL , 30*PokemonMysteryDungeonExplorersofSkyInTheMorningSun_mvl/mxv
 .byte   W06
 .byte   VOL , 30*PokemonMysteryDungeonExplorersofSkyInTheMorningSun_mvl/mxv
 .byte   N92 ,En3
 .byte   W06
 .byte   VOL , 29*PokemonMysteryDungeonExplorersofSkyInTheMorningSun_mvl/mxv
 .byte   W06
 .byte   VOL , 29*PokemonMysteryDungeonExplorersofSkyInTheMorningSun_mvl/mxv
 .byte   W06
 .byte   VOL , 28*PokemonMysteryDungeonExplorersofSkyInTheMorningSun_mvl/mxv
 .byte   W06
 .byte   VOL , 28*PokemonMysteryDungeonExplorersofSkyInTheMorningSun_mvl/mxv
 .byte   W06
 .byte   VOL , 27*PokemonMysteryDungeonExplorersofSkyInTheMorningSun_mvl/mxv
 .byte   W06
 .byte   VOL , 27*PokemonMysteryDungeonExplorersofSkyInTheMorningSun_mvl/mxv
 .byte   W06
 .byte   VOL , 27*PokemonMysteryDungeonExplorersofSkyInTheMorningSun_mvl/mxv
 .byte   W06
 .byte   VOL , 27*PokemonMysteryDungeonExplorersofSkyInTheMorningSun_mvl/mxv
 .byte   W06
 .byte   VOL , 26*PokemonMysteryDungeonExplorersofSkyInTheMorningSun_mvl/mxv
 .byte   W06
 .byte   VOL , 25*PokemonMysteryDungeonExplorersofSkyInTheMorningSun_mvl/mxv
 .byte   W06
 .byte   VOL , 24*PokemonMysteryDungeonExplorersofSkyInTheMorningSun_mvl/mxv
 .byte   W06
@  #12 @041   ----------------------------------------
 .byte   VOL , 24*PokemonMysteryDungeonExplorersofSkyInTheMorningSun_mvl/mxv
 .byte   W06
 .byte   VOL , 23*PokemonMysteryDungeonExplorersofSkyInTheMorningSun_mvl/mxv
 .byte   W06
 .byte   VOL , 23*PokemonMysteryDungeonExplorersofSkyInTheMorningSun_mvl/mxv
 .byte   W12
 .byte   VOL , 22*PokemonMysteryDungeonExplorersofSkyInTheMorningSun_mvl/mxv
 .byte   N92 ,Dn3
 .byte   W06
 .byte   VOL , 22*PokemonMysteryDungeonExplorersofSkyInTheMorningSun_mvl/mxv
 .byte   W06
 .byte   VOL , 22*PokemonMysteryDungeonExplorersofSkyInTheMorningSun_mvl/mxv
 .byte   W06
 .byte   VOL , 21*PokemonMysteryDungeonExplorersofSkyInTheMorningSun_mvl/mxv
 .byte   W06
 .byte   VOL , 20*PokemonMysteryDungeonExplorersofSkyInTheMorningSun_mvl/mxv
 .byte   W06
 .byte   VOL , 20*PokemonMysteryDungeonExplorersofSkyInTheMorningSun_mvl/mxv
 .byte   W06
 .byte   VOL , 20*PokemonMysteryDungeonExplorersofSkyInTheMorningSun_mvl/mxv
 .byte   W06
 .byte   VOL , 19*PokemonMysteryDungeonExplorersofSkyInTheMorningSun_mvl/mxv
 .byte   W06
 .byte   VOL , 19*PokemonMysteryDungeonExplorersofSkyInTheMorningSun_mvl/mxv
 .byte   W06
 .byte   VOL , 18*PokemonMysteryDungeonExplorersofSkyInTheMorningSun_mvl/mxv
 .byte   W06
 .byte   VOL , 18*PokemonMysteryDungeonExplorersofSkyInTheMorningSun_mvl/mxv
 .byte   W06
 .byte   VOL , 18*PokemonMysteryDungeonExplorersofSkyInTheMorningSun_mvl/mxv
 .byte   W06
@  #12 @042   ----------------------------------------
 .byte   VOL , 18*PokemonMysteryDungeonExplorersofSkyInTheMorningSun_mvl/mxv
 .byte   W06
 .byte   VOL , 17*PokemonMysteryDungeonExplorersofSkyInTheMorningSun_mvl/mxv
 .byte   W06
 .byte   VOL , 17*PokemonMysteryDungeonExplorersofSkyInTheMorningSun_mvl/mxv
 .byte   W06
 .byte   VOL , 16*PokemonMysteryDungeonExplorersofSkyInTheMorningSun_mvl/mxv
 .byte   W06
 .byte   VOL , 17*PokemonMysteryDungeonExplorersofSkyInTheMorningSun_mvl/mxv
 .byte   N92
 .byte   W06
 .byte   VOL , 17*PokemonMysteryDungeonExplorersofSkyInTheMorningSun_mvl/mxv
 .byte   W06
 .byte   VOL , 17*PokemonMysteryDungeonExplorersofSkyInTheMorningSun_mvl/mxv
 .byte   W06
 .byte   VOL , 18*PokemonMysteryDungeonExplorersofSkyInTheMorningSun_mvl/mxv
 .byte   W06
 .byte   VOL , 18*PokemonMysteryDungeonExplorersofSkyInTheMorningSun_mvl/mxv
 .byte   W12
 .byte   VOL , 19*PokemonMysteryDungeonExplorersofSkyInTheMorningSun_mvl/mxv
 .byte   W06
 .byte   VOL , 19*PokemonMysteryDungeonExplorersofSkyInTheMorningSun_mvl/mxv
 .byte   W06
 .byte   VOL , 19*PokemonMysteryDungeonExplorersofSkyInTheMorningSun_mvl/mxv
 .byte   W06
 .byte   VOL , 20*PokemonMysteryDungeonExplorersofSkyInTheMorningSun_mvl/mxv
 .byte   W06
 .byte   VOL , 20*PokemonMysteryDungeonExplorersofSkyInTheMorningSun_mvl/mxv
 .byte   W06
 .byte   VOL , 21*PokemonMysteryDungeonExplorersofSkyInTheMorningSun_mvl/mxv
 .byte   W06
@  #12 @043   ----------------------------------------
 .byte   VOL , 21*PokemonMysteryDungeonExplorersofSkyInTheMorningSun_mvl/mxv
 .byte   W06
 .byte   VOL , 22*PokemonMysteryDungeonExplorersofSkyInTheMorningSun_mvl/mxv
 .byte   W06
 .byte   VOL , 22*PokemonMysteryDungeonExplorersofSkyInTheMorningSun_mvl/mxv
 .byte   W06
 .byte   VOL , 23*PokemonMysteryDungeonExplorersofSkyInTheMorningSun_mvl/mxv
 .byte   W06
 .byte   N44 ,Cn3
 .byte   W06
 .byte   VOL , 23*PokemonMysteryDungeonExplorersofSkyInTheMorningSun_mvl/mxv
 .byte   W06
 .byte   VOL , 24*PokemonMysteryDungeonExplorersofSkyInTheMorningSun_mvl/mxv
 .byte   W06
 .byte   VOL , 24*PokemonMysteryDungeonExplorersofSkyInTheMorningSun_mvl/mxv
 .byte   W06
 .byte   VOL , 25*PokemonMysteryDungeonExplorersofSkyInTheMorningSun_mvl/mxv
 .byte   W06
 .byte   VOL , 26*PokemonMysteryDungeonExplorersofSkyInTheMorningSun_mvl/mxv
 .byte   W06
 .byte   VOL , 27*PokemonMysteryDungeonExplorersofSkyInTheMorningSun_mvl/mxv
 .byte   W06
 .byte   VOL , 27*PokemonMysteryDungeonExplorersofSkyInTheMorningSun_mvl/mxv
 .byte   W06
 .byte   VOL , 27*PokemonMysteryDungeonExplorersofSkyInTheMorningSun_mvl/mxv
 .byte   N44 ,Fn3
 .byte   W06
 .byte   VOL , 28*PokemonMysteryDungeonExplorersofSkyInTheMorningSun_mvl/mxv
 .byte   W06
 .byte   VOL , 28*PokemonMysteryDungeonExplorersofSkyInTheMorningSun_mvl/mxv
 .byte   W06
 .byte   VOL , 28*PokemonMysteryDungeonExplorersofSkyInTheMorningSun_mvl/mxv
 .byte   W06
@  #12 @044   ----------------------------------------
 .byte   VOL , 29*PokemonMysteryDungeonExplorersofSkyInTheMorningSun_mvl/mxv
 .byte   W06
 .byte   VOL , 30*PokemonMysteryDungeonExplorersofSkyInTheMorningSun_mvl/mxv
 .byte   W06
 .byte   VOL , 30*PokemonMysteryDungeonExplorersofSkyInTheMorningSun_mvl/mxv
 .byte   W12
 .byte   N92 ,Dn3
 .byte   W06
 .byte   VOL , 30*PokemonMysteryDungeonExplorersofSkyInTheMorningSun_mvl/mxv
 .byte   W06
 .byte   VOL , 30*PokemonMysteryDungeonExplorersofSkyInTheMorningSun_mvl/mxv
 .byte   W06
 .byte   VOL , 29*PokemonMysteryDungeonExplorersofSkyInTheMorningSun_mvl/mxv
 .byte   W06
 .byte   VOL , 29*PokemonMysteryDungeonExplorersofSkyInTheMorningSun_mvl/mxv
 .byte   W06
 .byte   VOL , 28*PokemonMysteryDungeonExplorersofSkyInTheMorningSun_mvl/mxv
 .byte   W06
 .byte   VOL , 28*PokemonMysteryDungeonExplorersofSkyInTheMorningSun_mvl/mxv
 .byte   W06
 .byte   VOL , 28*PokemonMysteryDungeonExplorersofSkyInTheMorningSun_mvl/mxv
 .byte   W06
 .byte   VOL , 27*PokemonMysteryDungeonExplorersofSkyInTheMorningSun_mvl/mxv
 .byte   W06
 .byte   VOL , 27*PokemonMysteryDungeonExplorersofSkyInTheMorningSun_mvl/mxv
 .byte   W06
 .byte   VOL , 27*PokemonMysteryDungeonExplorersofSkyInTheMorningSun_mvl/mxv
 .byte   W12
@  #12 @045   ----------------------------------------
 .byte   VOL , 27*PokemonMysteryDungeonExplorersofSkyInTheMorningSun_mvl/mxv
 .byte   W06
 .byte   VOL , 26*PokemonMysteryDungeonExplorersofSkyInTheMorningSun_mvl/mxv
 .byte   W06
 .byte   VOL , 25*PokemonMysteryDungeonExplorersofSkyInTheMorningSun_mvl/mxv
 .byte   W06
 .byte   VOL , 25*PokemonMysteryDungeonExplorersofSkyInTheMorningSun_mvl/mxv
 .byte   W06
 .byte   VOL , 24*PokemonMysteryDungeonExplorersofSkyInTheMorningSun_mvl/mxv
 .byte   N44
 .byte   W06
 .byte   VOL , 24*PokemonMysteryDungeonExplorersofSkyInTheMorningSun_mvl/mxv
 .byte   W06
 .byte   VOL , 23*PokemonMysteryDungeonExplorersofSkyInTheMorningSun_mvl/mxv
 .byte   W06
 .byte   VOL , 23*PokemonMysteryDungeonExplorersofSkyInTheMorningSun_mvl/mxv
 .byte   W06
 .byte   VOL , 23*PokemonMysteryDungeonExplorersofSkyInTheMorningSun_mvl/mxv
 .byte   W12
 .byte   VOL , 23*PokemonMysteryDungeonExplorersofSkyInTheMorningSun_mvl/mxv
 .byte   W06
 .byte   VOL , 22*PokemonMysteryDungeonExplorersofSkyInTheMorningSun_mvl/mxv
 .byte   W06
 .byte   VOL , 22*PokemonMysteryDungeonExplorersofSkyInTheMorningSun_mvl/mxv
 .byte   N44
 .byte   W06
 .byte   VOL , 22*PokemonMysteryDungeonExplorersofSkyInTheMorningSun_mvl/mxv
 .byte   W06
 .byte   VOL , 21*PokemonMysteryDungeonExplorersofSkyInTheMorningSun_mvl/mxv
 .byte   W06
 .byte   VOL , 21*PokemonMysteryDungeonExplorersofSkyInTheMorningSun_mvl/mxv
 .byte   W06
@  #12 @046   ----------------------------------------
 .byte   VOL , 20*PokemonMysteryDungeonExplorersofSkyInTheMorningSun_mvl/mxv
 .byte   W06
 .byte   VOL , 20*PokemonMysteryDungeonExplorersofSkyInTheMorningSun_mvl/mxv
 .byte   W06
 .byte   VOL , 20*PokemonMysteryDungeonExplorersofSkyInTheMorningSun_mvl/mxv
 .byte   W06
 .byte   VOL , 18*PokemonMysteryDungeonExplorersofSkyInTheMorningSun_mvl/mxv
 .byte   W06
 .byte   VOL , 18*PokemonMysteryDungeonExplorersofSkyInTheMorningSun_mvl/mxv
 .byte   TIE ,Cn3
 .byte   W06
 .byte   VOL , 19*PokemonMysteryDungeonExplorersofSkyInTheMorningSun_mvl/mxv
 .byte   W06
 .byte   VOL , 19*PokemonMysteryDungeonExplorersofSkyInTheMorningSun_mvl/mxv
 .byte   W06
 .byte   VOL , 19*PokemonMysteryDungeonExplorersofSkyInTheMorningSun_mvl/mxv
 .byte   W06
 .byte   VOL , 20*PokemonMysteryDungeonExplorersofSkyInTheMorningSun_mvl/mxv
 .byte   W06
 .byte   VOL , 20*PokemonMysteryDungeonExplorersofSkyInTheMorningSun_mvl/mxv
 .byte   W06
 .byte   VOL , 20*PokemonMysteryDungeonExplorersofSkyInTheMorningSun_mvl/mxv
 .byte   W06
 .byte   VOL , 21*PokemonMysteryDungeonExplorersofSkyInTheMorningSun_mvl/mxv
 .byte   W06
 .byte   VOL , 21*PokemonMysteryDungeonExplorersofSkyInTheMorningSun_mvl/mxv
 .byte   W06
 .byte   VOL , 22*PokemonMysteryDungeonExplorersofSkyInTheMorningSun_mvl/mxv
 .byte   W06
 .byte   VOL , 22*PokemonMysteryDungeonExplorersofSkyInTheMorningSun_mvl/mxv
 .byte   W06
 .byte   VOL , 22*PokemonMysteryDungeonExplorersofSkyInTheMorningSun_mvl/mxv
 .byte   W06
@  #12 @047   ----------------------------------------
 .byte   VOL , 23*PokemonMysteryDungeonExplorersofSkyInTheMorningSun_mvl/mxv
 .byte   W06
 .byte   VOL , 23*PokemonMysteryDungeonExplorersofSkyInTheMorningSun_mvl/mxv
 .byte   W06
 .byte   VOL , 23*PokemonMysteryDungeonExplorersofSkyInTheMorningSun_mvl/mxv
 .byte   W06
 .byte   VOL , 23*PokemonMysteryDungeonExplorersofSkyInTheMorningSun_mvl/mxv
 .byte   W06
 .byte   VOL , 24*PokemonMysteryDungeonExplorersofSkyInTheMorningSun_mvl/mxv
 .byte   W06
 .byte   VOL , 24*PokemonMysteryDungeonExplorersofSkyInTheMorningSun_mvl/mxv
 .byte   W06
 .byte   VOL , 25*PokemonMysteryDungeonExplorersofSkyInTheMorningSun_mvl/mxv
 .byte   W06
 .byte   VOL , 25*PokemonMysteryDungeonExplorersofSkyInTheMorningSun_mvl/mxv
 .byte   W06
 .byte   VOL , 26*PokemonMysteryDungeonExplorersofSkyInTheMorningSun_mvl/mxv
 .byte   W06
 .byte   VOL , 27*PokemonMysteryDungeonExplorersofSkyInTheMorningSun_mvl/mxv
 .byte   W06
 .byte   VOL , 27*PokemonMysteryDungeonExplorersofSkyInTheMorningSun_mvl/mxv
 .byte   W06
 .byte   VOL , 27*PokemonMysteryDungeonExplorersofSkyInTheMorningSun_mvl/mxv
 .byte   W06
 .byte   VOL , 27*PokemonMysteryDungeonExplorersofSkyInTheMorningSun_mvl/mxv
 .byte   W06
 .byte   VOL , 28*PokemonMysteryDungeonExplorersofSkyInTheMorningSun_mvl/mxv
 .byte   W06
 .byte   VOL , 28*PokemonMysteryDungeonExplorersofSkyInTheMorningSun_mvl/mxv
 .byte   W06
 .byte   VOL , 28*PokemonMysteryDungeonExplorersofSkyInTheMorningSun_mvl/mxv
 .byte   W06
@  #12 @048   ----------------------------------------
 .byte   VOL , 29*PokemonMysteryDungeonExplorersofSkyInTheMorningSun_mvl/mxv
 .byte   W06
 .byte   VOL , 29*PokemonMysteryDungeonExplorersofSkyInTheMorningSun_mvl/mxv
 .byte   W06
 .byte   VOL , 30*PokemonMysteryDungeonExplorersofSkyInTheMorningSun_mvl/mxv
 .byte   W06
 .byte   VOL , 30*PokemonMysteryDungeonExplorersofSkyInTheMorningSun_mvl/mxv
 .byte   W05
 .byte   EOT
 .byte   W01
 .byte   VOL , 30*PokemonMysteryDungeonExplorersofSkyInTheMorningSun_mvl/mxv
 .byte   TIE ,Ds3
 .byte   W06
 .byte   VOL , 29*PokemonMysteryDungeonExplorersofSkyInTheMorningSun_mvl/mxv
 .byte   W06
 .byte   VOL , 28*PokemonMysteryDungeonExplorersofSkyInTheMorningSun_mvl/mxv
 .byte   W06
 .byte   VOL , 28*PokemonMysteryDungeonExplorersofSkyInTheMorningSun_mvl/mxv
 .byte   W06
 .byte   VOL , 28*PokemonMysteryDungeonExplorersofSkyInTheMorningSun_mvl/mxv
 .byte   W06
 .byte   VOL , 27*PokemonMysteryDungeonExplorersofSkyInTheMorningSun_mvl/mxv
 .byte   W06
 .byte   VOL , 27*PokemonMysteryDungeonExplorersofSkyInTheMorningSun_mvl/mxv
 .byte   W06
 .byte   VOL , 27*PokemonMysteryDungeonExplorersofSkyInTheMorningSun_mvl/mxv
 .byte   W06
 .byte   VOL , 26*PokemonMysteryDungeonExplorersofSkyInTheMorningSun_mvl/mxv
 .byte   W06
 .byte   VOL , 25*PokemonMysteryDungeonExplorersofSkyInTheMorningSun_mvl/mxv
 .byte   W06
 .byte   VOL , 24*PokemonMysteryDungeonExplorersofSkyInTheMorningSun_mvl/mxv
 .byte   W06
 .byte   VOL , 24*PokemonMysteryDungeonExplorersofSkyInTheMorningSun_mvl/mxv
 .byte   W06
@  #12 @049   ----------------------------------------
 .byte   VOL , 23*PokemonMysteryDungeonExplorersofSkyInTheMorningSun_mvl/mxv
 .byte   W06
 .byte   VOL , 23*PokemonMysteryDungeonExplorersofSkyInTheMorningSun_mvl/mxv
 .byte   W06
 .byte   VOL , 23*PokemonMysteryDungeonExplorersofSkyInTheMorningSun_mvl/mxv
 .byte   W06
 .byte   VOL , 22*PokemonMysteryDungeonExplorersofSkyInTheMorningSun_mvl/mxv
 .byte   W06
 .byte   VOL , 22*PokemonMysteryDungeonExplorersofSkyInTheMorningSun_mvl/mxv
 .byte   W06
 .byte   VOL , 22*PokemonMysteryDungeonExplorersofSkyInTheMorningSun_mvl/mxv
 .byte   W06
 .byte   VOL , 21*PokemonMysteryDungeonExplorersofSkyInTheMorningSun_mvl/mxv
 .byte   W06
 .byte   VOL , 21*PokemonMysteryDungeonExplorersofSkyInTheMorningSun_mvl/mxv
 .byte   W06
 .byte   VOL , 20*PokemonMysteryDungeonExplorersofSkyInTheMorningSun_mvl/mxv
 .byte   W06
 .byte   VOL , 20*PokemonMysteryDungeonExplorersofSkyInTheMorningSun_mvl/mxv
 .byte   W06
 .byte   VOL , 19*PokemonMysteryDungeonExplorersofSkyInTheMorningSun_mvl/mxv
 .byte   W06
 .byte   VOL , 19*PokemonMysteryDungeonExplorersofSkyInTheMorningSun_mvl/mxv
 .byte   W06
 .byte   VOL , 18*PokemonMysteryDungeonExplorersofSkyInTheMorningSun_mvl/mxv
 .byte   W06
 .byte   VOL , 18*PokemonMysteryDungeonExplorersofSkyInTheMorningSun_mvl/mxv
 .byte   W06
 .byte   VOL , 18*PokemonMysteryDungeonExplorersofSkyInTheMorningSun_mvl/mxv
 .byte   W06
 .byte   VOL , 18*PokemonMysteryDungeonExplorersofSkyInTheMorningSun_mvl/mxv
 .byte   W06
@  #12 @050   ----------------------------------------
 .byte   VOL , 17*PokemonMysteryDungeonExplorersofSkyInTheMorningSun_mvl/mxv
 .byte   W06
 .byte   VOL , 17*PokemonMysteryDungeonExplorersofSkyInTheMorningSun_mvl/mxv
 .byte   W06
 .byte   VOL , 17*PokemonMysteryDungeonExplorersofSkyInTheMorningSun_mvl/mxv
 .byte   W06
 .byte   VOL , 16*PokemonMysteryDungeonExplorersofSkyInTheMorningSun_mvl/mxv
 .byte   W05
 .byte   EOT
 .byte   W01
 .byte   VOL , 15*PokemonMysteryDungeonExplorersofSkyInTheMorningSun_mvl/mxv
 .byte   TIE ,Dn3
 .byte   W06
 .byte   VOL , 15*PokemonMysteryDungeonExplorersofSkyInTheMorningSun_mvl/mxv
 .byte   W06
 .byte   VOL , 16*PokemonMysteryDungeonExplorersofSkyInTheMorningSun_mvl/mxv
 .byte   W06
 .byte   VOL , 16*PokemonMysteryDungeonExplorersofSkyInTheMorningSun_mvl/mxv
 .byte   W06
 .byte   VOL , 17*PokemonMysteryDungeonExplorersofSkyInTheMorningSun_mvl/mxv
 .byte   W06
 .byte   VOL , 17*PokemonMysteryDungeonExplorersofSkyInTheMorningSun_mvl/mxv
 .byte   W06
 .byte   VOL , 17*PokemonMysteryDungeonExplorersofSkyInTheMorningSun_mvl/mxv
 .byte   W06
 .byte   VOL , 17*PokemonMysteryDungeonExplorersofSkyInTheMorningSun_mvl/mxv
 .byte   W06
 .byte   VOL , 18*PokemonMysteryDungeonExplorersofSkyInTheMorningSun_mvl/mxv
 .byte   W06
 .byte   VOL , 18*PokemonMysteryDungeonExplorersofSkyInTheMorningSun_mvl/mxv
 .byte   W06
 .byte   VOL , 18*PokemonMysteryDungeonExplorersofSkyInTheMorningSun_mvl/mxv
 .byte   W12
@  #12 @051   ----------------------------------------
 .byte   VOL , 19*PokemonMysteryDungeonExplorersofSkyInTheMorningSun_mvl/mxv
 .byte   W06
 .byte   VOL , 19*PokemonMysteryDungeonExplorersofSkyInTheMorningSun_mvl/mxv
 .byte   W06
 .byte   VOL , 19*PokemonMysteryDungeonExplorersofSkyInTheMorningSun_mvl/mxv
 .byte   W12
 .byte   VOL , 20*PokemonMysteryDungeonExplorersofSkyInTheMorningSun_mvl/mxv
 .byte   W06
 .byte   VOL , 20*PokemonMysteryDungeonExplorersofSkyInTheMorningSun_mvl/mxv
 .byte   W06
 .byte   VOL , 20*PokemonMysteryDungeonExplorersofSkyInTheMorningSun_mvl/mxv
 .byte   W06
 .byte   VOL , 21*PokemonMysteryDungeonExplorersofSkyInTheMorningSun_mvl/mxv
 .byte   W06
 .byte   VOL , 21*PokemonMysteryDungeonExplorersofSkyInTheMorningSun_mvl/mxv
 .byte   W06
 .byte   VOL , 22*PokemonMysteryDungeonExplorersofSkyInTheMorningSun_mvl/mxv
 .byte   W06
 .byte   VOL , 22*PokemonMysteryDungeonExplorersofSkyInTheMorningSun_mvl/mxv
 .byte   W06
 .byte   VOL , 22*PokemonMysteryDungeonExplorersofSkyInTheMorningSun_mvl/mxv
 .byte   W06
 .byte   VOL , 23*PokemonMysteryDungeonExplorersofSkyInTheMorningSun_mvl/mxv
 .byte   W06
 .byte   VOL , 23*PokemonMysteryDungeonExplorersofSkyInTheMorningSun_mvl/mxv
 .byte   W06
 .byte   VOL , 23*PokemonMysteryDungeonExplorersofSkyInTheMorningSun_mvl/mxv
 .byte   W06
 .byte   VOL , 23*PokemonMysteryDungeonExplorersofSkyInTheMorningSun_mvl/mxv
 .byte   W06
@  #12 @052   ----------------------------------------
 .byte   VOL , 24*PokemonMysteryDungeonExplorersofSkyInTheMorningSun_mvl/mxv
 .byte   W06
 .byte   VOL , 24*PokemonMysteryDungeonExplorersofSkyInTheMorningSun_mvl/mxv
 .byte   W12
 .byte   VOL , 25*PokemonMysteryDungeonExplorersofSkyInTheMorningSun_mvl/mxv
 .byte   W06
 .byte   VOL , 25*PokemonMysteryDungeonExplorersofSkyInTheMorningSun_mvl/mxv
 .byte   W06
 .byte   VOL , 26*PokemonMysteryDungeonExplorersofSkyInTheMorningSun_mvl/mxv
 .byte   W06
 .byte   VOL , 27*PokemonMysteryDungeonExplorersofSkyInTheMorningSun_mvl/mxv
 .byte   W06
 .byte   VOL , 27*PokemonMysteryDungeonExplorersofSkyInTheMorningSun_mvl/mxv
 .byte   W06
 .byte   VOL , 27*PokemonMysteryDungeonExplorersofSkyInTheMorningSun_mvl/mxv
 .byte   W06
 .byte   VOL , 27*PokemonMysteryDungeonExplorersofSkyInTheMorningSun_mvl/mxv
 .byte   W06
 .byte   VOL , 28*PokemonMysteryDungeonExplorersofSkyInTheMorningSun_mvl/mxv
 .byte   W06
 .byte   VOL , 28*PokemonMysteryDungeonExplorersofSkyInTheMorningSun_mvl/mxv
 .byte   W06
 .byte   VOL , 28*PokemonMysteryDungeonExplorersofSkyInTheMorningSun_mvl/mxv
 .byte   W06
 .byte   VOL , 29*PokemonMysteryDungeonExplorersofSkyInTheMorningSun_mvl/mxv
 .byte   W06
 .byte   VOL , 29*PokemonMysteryDungeonExplorersofSkyInTheMorningSun_mvl/mxv
 .byte   W06
 .byte   VOL , 30*PokemonMysteryDungeonExplorersofSkyInTheMorningSun_mvl/mxv
 .byte   W06
@  #12 @053   ----------------------------------------
 .byte   VOL , 30*PokemonMysteryDungeonExplorersofSkyInTheMorningSun_mvl/mxv
 .byte   W06
 .byte   VOL , 30*PokemonMysteryDungeonExplorersofSkyInTheMorningSun_mvl/mxv
 .byte   W17
 .byte   EOT
 .byte   W01
 .byte   N12 ,Dn3 ,v028
 .byte   W12
 .byte   Dn3 ,v020
 .byte   W12
 .byte   Dn3 ,v016
 .byte   W12
 .byte   Dn3 ,v012
 .byte   W12
 .byte   Dn3 ,v008
 .byte   W24
@  #12 @054   ----------------------------------------
 .byte   W24
 .byte   VOL , 20*PokemonMysteryDungeonExplorersofSkyInTheMorningSun_mvl/mxv
 .byte   N92 ,Bn2 ,v100
 .byte   N92 ,Dn3
 .byte   W04
 .byte   VOL , 20*PokemonMysteryDungeonExplorersofSkyInTheMorningSun_mvl/mxv
 .byte   W04
 .byte   VOL , 21*PokemonMysteryDungeonExplorersofSkyInTheMorningSun_mvl/mxv
 .byte   W04
 .byte   VOL , 22*PokemonMysteryDungeonExplorersofSkyInTheMorningSun_mvl/mxv
 .byte   W04
 .byte   VOL , 22*PokemonMysteryDungeonExplorersofSkyInTheMorningSun_mvl/mxv
 .byte   W04
 .byte   VOL , 23*PokemonMysteryDungeonExplorersofSkyInTheMorningSun_mvl/mxv
 .byte   W04
 .byte   VOL , 23*PokemonMysteryDungeonExplorersofSkyInTheMorningSun_mvl/mxv
 .byte   W04
 .byte   VOL , 23*PokemonMysteryDungeonExplorersofSkyInTheMorningSun_mvl/mxv
 .byte   W04
 .byte   VOL , 23*PokemonMysteryDungeonExplorersofSkyInTheMorningSun_mvl/mxv
 .byte   W04
 .byte   VOL , 24*PokemonMysteryDungeonExplorersofSkyInTheMorningSun_mvl/mxv
 .byte   W04
 .byte   VOL , 25*PokemonMysteryDungeonExplorersofSkyInTheMorningSun_mvl/mxv
 .byte   W04
 .byte   VOL , 25*PokemonMysteryDungeonExplorersofSkyInTheMorningSun_mvl/mxv
 .byte   W04
 .byte   VOL , 27*PokemonMysteryDungeonExplorersofSkyInTheMorningSun_mvl/mxv
 .byte   W04
 .byte   VOL , 27*PokemonMysteryDungeonExplorersofSkyInTheMorningSun_mvl/mxv
 .byte   W04
 .byte   VOL , 27*PokemonMysteryDungeonExplorersofSkyInTheMorningSun_mvl/mxv
 .byte   W04
 .byte   VOL , 28*PokemonMysteryDungeonExplorersofSkyInTheMorningSun_mvl/mxv
 .byte   W04
 .byte   VOL , 28*PokemonMysteryDungeonExplorersofSkyInTheMorningSun_mvl/mxv
 .byte   W04
 .byte   VOL , 28*PokemonMysteryDungeonExplorersofSkyInTheMorningSun_mvl/mxv
 .byte   W04
@  #12 @055   ----------------------------------------
 .byte   VOL , 29*PokemonMysteryDungeonExplorersofSkyInTheMorningSun_mvl/mxv
 .byte   W04
 .byte   VOL , 30*PokemonMysteryDungeonExplorersofSkyInTheMorningSun_mvl/mxv
 .byte   W04
 .byte   VOL , 30*PokemonMysteryDungeonExplorersofSkyInTheMorningSun_mvl/mxv
 .byte   W08
 .byte   VOL , 30*PokemonMysteryDungeonExplorersofSkyInTheMorningSun_mvl/mxv
 .byte   W04
 .byte   VOL , 30*PokemonMysteryDungeonExplorersofSkyInTheMorningSun_mvl/mxv
 .byte   W04
 .byte   VOL , 29*PokemonMysteryDungeonExplorersofSkyInTheMorningSun_mvl/mxv
 .byte   N92 ,Cs3
 .byte   N92 ,En3
 .byte   W04
 .byte   VOL , 29*PokemonMysteryDungeonExplorersofSkyInTheMorningSun_mvl/mxv
 .byte   W04
 .byte   VOL , 28*PokemonMysteryDungeonExplorersofSkyInTheMorningSun_mvl/mxv
 .byte   W04
 .byte   VOL , 28*PokemonMysteryDungeonExplorersofSkyInTheMorningSun_mvl/mxv
 .byte   W04
 .byte   VOL , 28*PokemonMysteryDungeonExplorersofSkyInTheMorningSun_mvl/mxv
 .byte   W04
 .byte   VOL , 27*PokemonMysteryDungeonExplorersofSkyInTheMorningSun_mvl/mxv
 .byte   W04
 .byte   VOL , 27*PokemonMysteryDungeonExplorersofSkyInTheMorningSun_mvl/mxv
 .byte   W04
 .byte   VOL , 27*PokemonMysteryDungeonExplorersofSkyInTheMorningSun_mvl/mxv
 .byte   W04
 .byte   VOL , 27*PokemonMysteryDungeonExplorersofSkyInTheMorningSun_mvl/mxv
 .byte   W04
 .byte   VOL , 26*PokemonMysteryDungeonExplorersofSkyInTheMorningSun_mvl/mxv
 .byte   W04
 .byte   VOL , 25*PokemonMysteryDungeonExplorersofSkyInTheMorningSun_mvl/mxv
 .byte   W04
 .byte   VOL , 25*PokemonMysteryDungeonExplorersofSkyInTheMorningSun_mvl/mxv
 .byte   W04
 .byte   VOL , 24*PokemonMysteryDungeonExplorersofSkyInTheMorningSun_mvl/mxv
 .byte   W04
 .byte   VOL , 24*PokemonMysteryDungeonExplorersofSkyInTheMorningSun_mvl/mxv
 .byte   W04
 .byte   VOL , 23*PokemonMysteryDungeonExplorersofSkyInTheMorningSun_mvl/mxv
 .byte   W04
 .byte   VOL , 23*PokemonMysteryDungeonExplorersofSkyInTheMorningSun_mvl/mxv
 .byte   W08
 .byte   VOL , 23*PokemonMysteryDungeonExplorersofSkyInTheMorningSun_mvl/mxv
 .byte   W04
@  #12 @056   ----------------------------------------
 .byte   W04
 .byte   VOL , 22*PokemonMysteryDungeonExplorersofSkyInTheMorningSun_mvl/mxv
 .byte   W08
 .byte   VOL , 21*PokemonMysteryDungeonExplorersofSkyInTheMorningSun_mvl/mxv
 .byte   W04
 .byte   VOL , 21*PokemonMysteryDungeonExplorersofSkyInTheMorningSun_mvl/mxv
 .byte   W04
 .byte   VOL , 21*PokemonMysteryDungeonExplorersofSkyInTheMorningSun_mvl/mxv
 .byte   W04
 .byte   TIE ,Bn2
 .byte   TIE ,Dn3
 .byte   W04
 .byte   VOL , 22*PokemonMysteryDungeonExplorersofSkyInTheMorningSun_mvl/mxv
 .byte   W08
 .byte   VOL , 22*PokemonMysteryDungeonExplorersofSkyInTheMorningSun_mvl/mxv
 .byte   W04
 .byte   VOL , 23*PokemonMysteryDungeonExplorersofSkyInTheMorningSun_mvl/mxv
 .byte   W04
 .byte   VOL , 23*PokemonMysteryDungeonExplorersofSkyInTheMorningSun_mvl/mxv
 .byte   W04
 .byte   VOL , 23*PokemonMysteryDungeonExplorersofSkyInTheMorningSun_mvl/mxv
 .byte   W04
 .byte   VOL , 23*PokemonMysteryDungeonExplorersofSkyInTheMorningSun_mvl/mxv
 .byte   W04
 .byte   VOL , 24*PokemonMysteryDungeonExplorersofSkyInTheMorningSun_mvl/mxv
 .byte   W04
 .byte   VOL , 24*PokemonMysteryDungeonExplorersofSkyInTheMorningSun_mvl/mxv
 .byte   W04
 .byte   VOL , 25*PokemonMysteryDungeonExplorersofSkyInTheMorningSun_mvl/mxv
 .byte   W04
 .byte   VOL , 25*PokemonMysteryDungeonExplorersofSkyInTheMorningSun_mvl/mxv
 .byte   W04
 .byte   VOL , 26*PokemonMysteryDungeonExplorersofSkyInTheMorningSun_mvl/mxv
 .byte   W04
 .byte   VOL , 27*PokemonMysteryDungeonExplorersofSkyInTheMorningSun_mvl/mxv
 .byte   W08
 .byte   VOL , 27*PokemonMysteryDungeonExplorersofSkyInTheMorningSun_mvl/mxv
 .byte   W08
 .byte   VOL , 27*PokemonMysteryDungeonExplorersofSkyInTheMorningSun_mvl/mxv
 .byte   W04
@  #12 @057   ----------------------------------------
 .byte   VOL , 28*PokemonMysteryDungeonExplorersofSkyInTheMorningSun_mvl/mxv
 .byte   W04
 .byte   VOL , 28*PokemonMysteryDungeonExplorersofSkyInTheMorningSun_mvl/mxv
 .byte   W04
 .byte   VOL , 28*PokemonMysteryDungeonExplorersofSkyInTheMorningSun_mvl/mxv
 .byte   W04
 .byte   VOL , 29*PokemonMysteryDungeonExplorersofSkyInTheMorningSun_mvl/mxv
 .byte   W04
 .byte   VOL , 29*PokemonMysteryDungeonExplorersofSkyInTheMorningSun_mvl/mxv
 .byte   W04
 .byte   VOL , 30*PokemonMysteryDungeonExplorersofSkyInTheMorningSun_mvl/mxv
 .byte   W04
 .byte   VOL , 29*PokemonMysteryDungeonExplorersofSkyInTheMorningSun_mvl/mxv
 .byte   W04
 .byte   VOL , 29*PokemonMysteryDungeonExplorersofSkyInTheMorningSun_mvl/mxv
 .byte   W08
 .byte   VOL , 28*PokemonMysteryDungeonExplorersofSkyInTheMorningSun_mvl/mxv
 .byte   W04
 .byte   VOL , 28*PokemonMysteryDungeonExplorersofSkyInTheMorningSun_mvl/mxv
 .byte   W04
 .byte   VOL , 28*PokemonMysteryDungeonExplorersofSkyInTheMorningSun_mvl/mxv
 .byte   W04
 .byte   VOL , 27*PokemonMysteryDungeonExplorersofSkyInTheMorningSun_mvl/mxv
 .byte   W08
 .byte   VOL , 27*PokemonMysteryDungeonExplorersofSkyInTheMorningSun_mvl/mxv
 .byte   W08
 .byte   VOL , 27*PokemonMysteryDungeonExplorersofSkyInTheMorningSun_mvl/mxv
 .byte   W04
 .byte   VOL , 27*PokemonMysteryDungeonExplorersofSkyInTheMorningSun_mvl/mxv
 .byte   W04
 .byte   VOL , 26*PokemonMysteryDungeonExplorersofSkyInTheMorningSun_mvl/mxv
 .byte   W08
 .byte   VOL , 25*PokemonMysteryDungeonExplorersofSkyInTheMorningSun_mvl/mxv
 .byte   W04
 .byte   VOL , 25*PokemonMysteryDungeonExplorersofSkyInTheMorningSun_mvl/mxv
 .byte   W04
 .byte   VOL , 24*PokemonMysteryDungeonExplorersofSkyInTheMorningSun_mvl/mxv
 .byte   W08
@  #12 @058   ----------------------------------------
 .byte   VOL , 24*PokemonMysteryDungeonExplorersofSkyInTheMorningSun_mvl/mxv
 .byte   W04
 .byte   VOL , 23*PokemonMysteryDungeonExplorersofSkyInTheMorningSun_mvl/mxv
 .byte   W08
 .byte   VOL , 23*PokemonMysteryDungeonExplorersofSkyInTheMorningSun_mvl/mxv
 .byte   W04
 .byte   VOL , 23*PokemonMysteryDungeonExplorersofSkyInTheMorningSun_mvl/mxv
 .byte   W04
 .byte   VOL , 23*PokemonMysteryDungeonExplorersofSkyInTheMorningSun_mvl/mxv
 .byte   W03
 .byte   EOT
 .byte   Bn2 ,v062
 .byte   W01
 .byte   VOL , 22*PokemonMysteryDungeonExplorersofSkyInTheMorningSun_mvl/mxv
 .byte   N92 ,Bn2
 .byte   N92 ,Dn3
 .byte   W04
 .byte   VOL , 23*PokemonMysteryDungeonExplorersofSkyInTheMorningSun_mvl/mxv
 .byte   W04
 .byte   VOL , 23*PokemonMysteryDungeonExplorersofSkyInTheMorningSun_mvl/mxv
 .byte   W04
 .byte   VOL , 23*PokemonMysteryDungeonExplorersofSkyInTheMorningSun_mvl/mxv
 .byte   W04
 .byte   VOL , 23*PokemonMysteryDungeonExplorersofSkyInTheMorningSun_mvl/mxv
 .byte   W08
 .byte   VOL , 24*PokemonMysteryDungeonExplorersofSkyInTheMorningSun_mvl/mxv
 .byte   W04
 .byte   VOL , 24*PokemonMysteryDungeonExplorersofSkyInTheMorningSun_mvl/mxv
 .byte   W04
 .byte   VOL , 25*PokemonMysteryDungeonExplorersofSkyInTheMorningSun_mvl/mxv
 .byte   W04
 .byte   VOL , 25*PokemonMysteryDungeonExplorersofSkyInTheMorningSun_mvl/mxv
 .byte   W04
 .byte   VOL , 26*PokemonMysteryDungeonExplorersofSkyInTheMorningSun_mvl/mxv
 .byte   W04
 .byte   VOL , 27*PokemonMysteryDungeonExplorersofSkyInTheMorningSun_mvl/mxv
 .byte   W04
 .byte   VOL , 27*PokemonMysteryDungeonExplorersofSkyInTheMorningSun_mvl/mxv
 .byte   W04
 .byte   VOL , 27*PokemonMysteryDungeonExplorersofSkyInTheMorningSun_mvl/mxv
 .byte   W04
 .byte   VOL , 27*PokemonMysteryDungeonExplorersofSkyInTheMorningSun_mvl/mxv
 .byte   W08
 .byte   VOL , 28*PokemonMysteryDungeonExplorersofSkyInTheMorningSun_mvl/mxv
 .byte   W04
 .byte   VOL , 28*PokemonMysteryDungeonExplorersofSkyInTheMorningSun_mvl/mxv
 .byte   W04
@  #12 @059   ----------------------------------------
 .byte   VOL , 28*PokemonMysteryDungeonExplorersofSkyInTheMorningSun_mvl/mxv
 .byte   W04
 .byte   VOL , 29*PokemonMysteryDungeonExplorersofSkyInTheMorningSun_mvl/mxv
 .byte   W04
 .byte   VOL , 29*PokemonMysteryDungeonExplorersofSkyInTheMorningSun_mvl/mxv
 .byte   W04
 .byte   VOL , 30*PokemonMysteryDungeonExplorersofSkyInTheMorningSun_mvl/mxv
 .byte   W04
 .byte   VOL , 30*PokemonMysteryDungeonExplorersofSkyInTheMorningSun_mvl/mxv
 .byte   W04
 .byte   VOL , 30*PokemonMysteryDungeonExplorersofSkyInTheMorningSun_mvl/mxv
 .byte   W04
 .byte   N92 ,Cs3
 .byte   N92 ,En3
 .byte   W04
 .byte   VOL , 30*PokemonMysteryDungeonExplorersofSkyInTheMorningSun_mvl/mxv
 .byte   W04
 .byte   VOL , 29*PokemonMysteryDungeonExplorersofSkyInTheMorningSun_mvl/mxv
 .byte   W04
 .byte   VOL , 29*PokemonMysteryDungeonExplorersofSkyInTheMorningSun_mvl/mxv
 .byte   W04
 .byte   VOL , 28*PokemonMysteryDungeonExplorersofSkyInTheMorningSun_mvl/mxv
 .byte   W04
 .byte   VOL , 28*PokemonMysteryDungeonExplorersofSkyInTheMorningSun_mvl/mxv
 .byte   W04
 .byte   VOL , 28*PokemonMysteryDungeonExplorersofSkyInTheMorningSun_mvl/mxv
 .byte   W04
 .byte   VOL , 27*PokemonMysteryDungeonExplorersofSkyInTheMorningSun_mvl/mxv
 .byte   W08
 .byte   VOL , 27*PokemonMysteryDungeonExplorersofSkyInTheMorningSun_mvl/mxv
 .byte   W04
 .byte   VOL , 27*PokemonMysteryDungeonExplorersofSkyInTheMorningSun_mvl/mxv
 .byte   W04
 .byte   VOL , 27*PokemonMysteryDungeonExplorersofSkyInTheMorningSun_mvl/mxv
 .byte   W04
 .byte   VOL , 26*PokemonMysteryDungeonExplorersofSkyInTheMorningSun_mvl/mxv
 .byte   W04
 .byte   VOL , 25*PokemonMysteryDungeonExplorersofSkyInTheMorningSun_mvl/mxv
 .byte   W04
 .byte   VOL , 25*PokemonMysteryDungeonExplorersofSkyInTheMorningSun_mvl/mxv
 .byte   W04
 .byte   VOL , 24*PokemonMysteryDungeonExplorersofSkyInTheMorningSun_mvl/mxv
 .byte   W08
 .byte   VOL , 23*PokemonMysteryDungeonExplorersofSkyInTheMorningSun_mvl/mxv
 .byte   W04
@  #12 @060   ----------------------------------------
 .byte   W04
 .byte   VOL , 23*PokemonMysteryDungeonExplorersofSkyInTheMorningSun_mvl/mxv
 .byte   W04
 .byte   VOL , 23*PokemonMysteryDungeonExplorersofSkyInTheMorningSun_mvl/mxv
 .byte   W04
 .byte   VOL , 23*PokemonMysteryDungeonExplorersofSkyInTheMorningSun_mvl/mxv
 .byte   W04
 .byte   VOL , 23*PokemonMysteryDungeonExplorersofSkyInTheMorningSun_mvl/mxv
 .byte   W08
 .byte   VOL , 23*PokemonMysteryDungeonExplorersofSkyInTheMorningSun_mvl/mxv
 .byte   TIE ,Bn2
 .byte   TIE ,Dn3
 .byte   W04
 .byte   VOL , 23*PokemonMysteryDungeonExplorersofSkyInTheMorningSun_mvl/mxv
 .byte   W04
 .byte   VOL , 23*PokemonMysteryDungeonExplorersofSkyInTheMorningSun_mvl/mxv
 .byte   W08
 .byte   VOL , 24*PokemonMysteryDungeonExplorersofSkyInTheMorningSun_mvl/mxv
 .byte   W04
 .byte   VOL , 24*PokemonMysteryDungeonExplorersofSkyInTheMorningSun_mvl/mxv
 .byte   W04
 .byte   VOL , 25*PokemonMysteryDungeonExplorersofSkyInTheMorningSun_mvl/mxv
 .byte   W04
 .byte   VOL , 25*PokemonMysteryDungeonExplorersofSkyInTheMorningSun_mvl/mxv
 .byte   W08
 .byte   VOL , 26*PokemonMysteryDungeonExplorersofSkyInTheMorningSun_mvl/mxv
 .byte   W04
 .byte   VOL , 27*PokemonMysteryDungeonExplorersofSkyInTheMorningSun_mvl/mxv
 .byte   W04
 .byte   VOL , 27*PokemonMysteryDungeonExplorersofSkyInTheMorningSun_mvl/mxv
 .byte   W04
 .byte   VOL , 27*PokemonMysteryDungeonExplorersofSkyInTheMorningSun_mvl/mxv
 .byte   W08
 .byte   VOL , 27*PokemonMysteryDungeonExplorersofSkyInTheMorningSun_mvl/mxv
 .byte   W04
 .byte   VOL , 28*PokemonMysteryDungeonExplorersofSkyInTheMorningSun_mvl/mxv
 .byte   W04
 .byte   VOL , 28*PokemonMysteryDungeonExplorersofSkyInTheMorningSun_mvl/mxv
 .byte   W08
@  #12 @061   ----------------------------------------
 .byte   VOL , 28*PokemonMysteryDungeonExplorersofSkyInTheMorningSun_mvl/mxv
 .byte   W04
 .byte   VOL , 29*PokemonMysteryDungeonExplorersofSkyInTheMorningSun_mvl/mxv
 .byte   W04
 .byte   VOL , 29*PokemonMysteryDungeonExplorersofSkyInTheMorningSun_mvl/mxv
 .byte   W04
 .byte   VOL , 30*PokemonMysteryDungeonExplorersofSkyInTheMorningSun_mvl/mxv
 .byte   W08
 .byte   VOL , 30*PokemonMysteryDungeonExplorersofSkyInTheMorningSun_mvl/mxv
 .byte   W04
 .byte   VOL , 30*PokemonMysteryDungeonExplorersofSkyInTheMorningSun_mvl/mxv
 .byte   W04
 .byte   VOL , 30*PokemonMysteryDungeonExplorersofSkyInTheMorningSun_mvl/mxv
 .byte   W04
 .byte   VOL , 29*PokemonMysteryDungeonExplorersofSkyInTheMorningSun_mvl/mxv
 .byte   W04
 .byte   VOL , 29*PokemonMysteryDungeonExplorersofSkyInTheMorningSun_mvl/mxv
 .byte   W04
 .byte   VOL , 28*PokemonMysteryDungeonExplorersofSkyInTheMorningSun_mvl/mxv
 .byte   W04
 .byte   VOL , 28*PokemonMysteryDungeonExplorersofSkyInTheMorningSun_mvl/mxv
 .byte   W08
 .byte   VOL , 28*PokemonMysteryDungeonExplorersofSkyInTheMorningSun_mvl/mxv
 .byte   W04
 .byte   VOL , 27*PokemonMysteryDungeonExplorersofSkyInTheMorningSun_mvl/mxv
 .byte   W04
 .byte   VOL , 27*PokemonMysteryDungeonExplorersofSkyInTheMorningSun_mvl/mxv
 .byte   W04
 .byte   VOL , 27*PokemonMysteryDungeonExplorersofSkyInTheMorningSun_mvl/mxv
 .byte   W04
 .byte   VOL , 27*PokemonMysteryDungeonExplorersofSkyInTheMorningSun_mvl/mxv
 .byte   W08
 .byte   VOL , 26*PokemonMysteryDungeonExplorersofSkyInTheMorningSun_mvl/mxv
 .byte   W04
 .byte   VOL , 25*PokemonMysteryDungeonExplorersofSkyInTheMorningSun_mvl/mxv
 .byte   W04
 .byte   VOL , 25*PokemonMysteryDungeonExplorersofSkyInTheMorningSun_mvl/mxv
 .byte   W04
 .byte   VOL , 24*PokemonMysteryDungeonExplorersofSkyInTheMorningSun_mvl/mxv
 .byte   W08
@  #12 @062   ----------------------------------------
 .byte   VOL , 23*PokemonMysteryDungeonExplorersofSkyInTheMorningSun_mvl/mxv
 .byte   W08
 .byte   VOL , 23*PokemonMysteryDungeonExplorersofSkyInTheMorningSun_mvl/mxv
 .byte   W04
 .byte   VOL , 23*PokemonMysteryDungeonExplorersofSkyInTheMorningSun_mvl/mxv
 .byte   W04
 .byte   VOL , 23*PokemonMysteryDungeonExplorersofSkyInTheMorningSun_mvl/mxv
 .byte   W07
 .byte   EOT
 .byte   Bn2 ,v062
 .byte   W01
 .byte   VOL , 23*PokemonMysteryDungeonExplorersofSkyInTheMorningSun_mvl/mxv
 .byte   N92 ,Bn2
 .byte   N92 ,Dn3
 .byte   W04
 .byte   VOL , 23*PokemonMysteryDungeonExplorersofSkyInTheMorningSun_mvl/mxv
 .byte   W04
 .byte   VOL , 23*PokemonMysteryDungeonExplorersofSkyInTheMorningSun_mvl/mxv
 .byte   W08
 .byte   VOL , 23*PokemonMysteryDungeonExplorersofSkyInTheMorningSun_mvl/mxv
 .byte   W04
 .byte   VOL , 24*PokemonMysteryDungeonExplorersofSkyInTheMorningSun_mvl/mxv
 .byte   W04
 .byte   VOL , 24*PokemonMysteryDungeonExplorersofSkyInTheMorningSun_mvl/mxv
 .byte   W08
 .byte   VOL , 25*PokemonMysteryDungeonExplorersofSkyInTheMorningSun_mvl/mxv
 .byte   W04
 .byte   VOL , 25*PokemonMysteryDungeonExplorersofSkyInTheMorningSun_mvl/mxv
 .byte   W04
 .byte   VOL , 26*PokemonMysteryDungeonExplorersofSkyInTheMorningSun_mvl/mxv
 .byte   W04
 .byte   VOL , 27*PokemonMysteryDungeonExplorersofSkyInTheMorningSun_mvl/mxv
 .byte   W04
 .byte   VOL , 27*PokemonMysteryDungeonExplorersofSkyInTheMorningSun_mvl/mxv
 .byte   W04
 .byte   VOL , 27*PokemonMysteryDungeonExplorersofSkyInTheMorningSun_mvl/mxv
 .byte   W08
 .byte   VOL , 27*PokemonMysteryDungeonExplorersofSkyInTheMorningSun_mvl/mxv
 .byte   W04
 .byte   VOL , 28*PokemonMysteryDungeonExplorersofSkyInTheMorningSun_mvl/mxv
 .byte   W04
 .byte   VOL , 28*PokemonMysteryDungeonExplorersofSkyInTheMorningSun_mvl/mxv
 .byte   W04
@  #12 @063   ----------------------------------------
 .byte   VOL , 28*PokemonMysteryDungeonExplorersofSkyInTheMorningSun_mvl/mxv
 .byte   W04
 .byte   VOL , 29*PokemonMysteryDungeonExplorersofSkyInTheMorningSun_mvl/mxv
 .byte   W08
 .byte   VOL , 29*PokemonMysteryDungeonExplorersofSkyInTheMorningSun_mvl/mxv
 .byte   W04
 .byte   VOL , 30*PokemonMysteryDungeonExplorersofSkyInTheMorningSun_mvl/mxv
 .byte   W04
 .byte   VOL , 30*PokemonMysteryDungeonExplorersofSkyInTheMorningSun_mvl/mxv
 .byte   W04
 .byte   VOL , 30*PokemonMysteryDungeonExplorersofSkyInTheMorningSun_mvl/mxv
 .byte   N92 ,Cs3
 .byte   N92 ,En3
 .byte   W04
 .byte   VOL , 30*PokemonMysteryDungeonExplorersofSkyInTheMorningSun_mvl/mxv
 .byte   W04
 .byte   VOL , 30*PokemonMysteryDungeonExplorersofSkyInTheMorningSun_mvl/mxv
 .byte   W04
 .byte   VOL , 29*PokemonMysteryDungeonExplorersofSkyInTheMorningSun_mvl/mxv
 .byte   W04
 .byte   VOL , 29*PokemonMysteryDungeonExplorersofSkyInTheMorningSun_mvl/mxv
 .byte   W08
 .byte   VOL , 28*PokemonMysteryDungeonExplorersofSkyInTheMorningSun_mvl/mxv
 .byte   W04
 .byte   VOL , 28*PokemonMysteryDungeonExplorersofSkyInTheMorningSun_mvl/mxv
 .byte   W04
 .byte   VOL , 28*PokemonMysteryDungeonExplorersofSkyInTheMorningSun_mvl/mxv
 .byte   W04
 .byte   VOL , 27*PokemonMysteryDungeonExplorersofSkyInTheMorningSun_mvl/mxv
 .byte   W04
 .byte   VOL , 27*PokemonMysteryDungeonExplorersofSkyInTheMorningSun_mvl/mxv
 .byte   W08
 .byte   VOL , 27*PokemonMysteryDungeonExplorersofSkyInTheMorningSun_mvl/mxv
 .byte   W04
 .byte   VOL , 27*PokemonMysteryDungeonExplorersofSkyInTheMorningSun_mvl/mxv
 .byte   W04
 .byte   VOL , 26*PokemonMysteryDungeonExplorersofSkyInTheMorningSun_mvl/mxv
 .byte   W04
 .byte   VOL , 25*PokemonMysteryDungeonExplorersofSkyInTheMorningSun_mvl/mxv
 .byte   W08
 .byte   VOL , 24*PokemonMysteryDungeonExplorersofSkyInTheMorningSun_mvl/mxv
 .byte   W04
@  #12 @064   ----------------------------------------
 .byte   W04
 .byte   VOL , 24*PokemonMysteryDungeonExplorersofSkyInTheMorningSun_mvl/mxv
 .byte   W04
 .byte   VOL , 23*PokemonMysteryDungeonExplorersofSkyInTheMorningSun_mvl/mxv
 .byte   W04
 .byte   VOL , 23*PokemonMysteryDungeonExplorersofSkyInTheMorningSun_mvl/mxv
 .byte   W08
 .byte   VOL , 23*PokemonMysteryDungeonExplorersofSkyInTheMorningSun_mvl/mxv
 .byte   W04
 .byte   VOL , 22*PokemonMysteryDungeonExplorersofSkyInTheMorningSun_mvl/mxv
 .byte   TIE ,Bn2
 .byte   TIE ,Dn3
 .byte   W04
 .byte   VOL , 23*PokemonMysteryDungeonExplorersofSkyInTheMorningSun_mvl/mxv
 .byte   W04
 .byte   VOL , 23*PokemonMysteryDungeonExplorersofSkyInTheMorningSun_mvl/mxv
 .byte   W04
 .byte   VOL , 23*PokemonMysteryDungeonExplorersofSkyInTheMorningSun_mvl/mxv
 .byte   W04
 .byte   VOL , 23*PokemonMysteryDungeonExplorersofSkyInTheMorningSun_mvl/mxv
 .byte   W08
 .byte   VOL , 24*PokemonMysteryDungeonExplorersofSkyInTheMorningSun_mvl/mxv
 .byte   W04
 .byte   VOL , 24*PokemonMysteryDungeonExplorersofSkyInTheMorningSun_mvl/mxv
 .byte   W04
 .byte   VOL , 25*PokemonMysteryDungeonExplorersofSkyInTheMorningSun_mvl/mxv
 .byte   W04
 .byte   VOL , 25*PokemonMysteryDungeonExplorersofSkyInTheMorningSun_mvl/mxv
 .byte   W04
 .byte   VOL , 26*PokemonMysteryDungeonExplorersofSkyInTheMorningSun_mvl/mxv
 .byte   W04
 .byte   VOL , 27*PokemonMysteryDungeonExplorersofSkyInTheMorningSun_mvl/mxv
 .byte   W04
 .byte   VOL , 27*PokemonMysteryDungeonExplorersofSkyInTheMorningSun_mvl/mxv
 .byte   W04
 .byte   VOL , 27*PokemonMysteryDungeonExplorersofSkyInTheMorningSun_mvl/mxv
 .byte   W04
 .byte   VOL , 27*PokemonMysteryDungeonExplorersofSkyInTheMorningSun_mvl/mxv
 .byte   W08
 .byte   VOL , 28*PokemonMysteryDungeonExplorersofSkyInTheMorningSun_mvl/mxv
 .byte   W04
 .byte   VOL , 28*PokemonMysteryDungeonExplorersofSkyInTheMorningSun_mvl/mxv
 .byte   W04
@  #12 @065   ----------------------------------------
 .byte   VOL , 28*PokemonMysteryDungeonExplorersofSkyInTheMorningSun_mvl/mxv
 .byte   W04
 .byte   VOL , 29*PokemonMysteryDungeonExplorersofSkyInTheMorningSun_mvl/mxv
 .byte   W04
 .byte   VOL , 29*PokemonMysteryDungeonExplorersofSkyInTheMorningSun_mvl/mxv
 .byte   W04
 .byte   VOL , 30*PokemonMysteryDungeonExplorersofSkyInTheMorningSun_mvl/mxv
 .byte   W04
 .byte   VOL , 30*PokemonMysteryDungeonExplorersofSkyInTheMorningSun_mvl/mxv
 .byte   W04
 .byte   VOL , 30*PokemonMysteryDungeonExplorersofSkyInTheMorningSun_mvl/mxv
 .byte   W04
 .byte   VOL , 30*PokemonMysteryDungeonExplorersofSkyInTheMorningSun_mvl/mxv
 .byte   W08
 .byte   VOL , 29*PokemonMysteryDungeonExplorersofSkyInTheMorningSun_mvl/mxv
 .byte   W04
 .byte   VOL , 29*PokemonMysteryDungeonExplorersofSkyInTheMorningSun_mvl/mxv
 .byte   W04
 .byte   VOL , 28*PokemonMysteryDungeonExplorersofSkyInTheMorningSun_mvl/mxv
 .byte   W04
 .byte   VOL , 28*PokemonMysteryDungeonExplorersofSkyInTheMorningSun_mvl/mxv
 .byte   W08
 .byte   VOL , 28*PokemonMysteryDungeonExplorersofSkyInTheMorningSun_mvl/mxv
 .byte   W04
 .byte   VOL , 27*PokemonMysteryDungeonExplorersofSkyInTheMorningSun_mvl/mxv
 .byte   W08
 .byte   VOL , 27*PokemonMysteryDungeonExplorersofSkyInTheMorningSun_mvl/mxv
 .byte   W04
 .byte   VOL , 27*PokemonMysteryDungeonExplorersofSkyInTheMorningSun_mvl/mxv
 .byte   W04
 .byte   VOL , 27*PokemonMysteryDungeonExplorersofSkyInTheMorningSun_mvl/mxv
 .byte   W08
 .byte   VOL , 26*PokemonMysteryDungeonExplorersofSkyInTheMorningSun_mvl/mxv
 .byte   W04
 .byte   VOL , 25*PokemonMysteryDungeonExplorersofSkyInTheMorningSun_mvl/mxv
 .byte   W04
 .byte   VOL , 25*PokemonMysteryDungeonExplorersofSkyInTheMorningSun_mvl/mxv
 .byte   W08
@  #12 @066   ----------------------------------------
 .byte   VOL , 24*PokemonMysteryDungeonExplorersofSkyInTheMorningSun_mvl/mxv
 .byte   W04
 .byte   VOL , 24*PokemonMysteryDungeonExplorersofSkyInTheMorningSun_mvl/mxv
 .byte   W04
 .byte   VOL , 23*PokemonMysteryDungeonExplorersofSkyInTheMorningSun_mvl/mxv
 .byte   W08
 .byte   VOL , 23*PokemonMysteryDungeonExplorersofSkyInTheMorningSun_mvl/mxv
 .byte   W04
 .byte   VOL , 23*PokemonMysteryDungeonExplorersofSkyInTheMorningSun_mvl/mxv
 .byte   W03
 .byte   EOT
 .byte   Bn2 ,v062
 .byte   W01
 .byte   VOL , 23*PokemonMysteryDungeonExplorersofSkyInTheMorningSun_mvl/mxv
 .byte   TIE ,Bn2
 .byte   TIE ,Dn3
 .byte   W04
 .byte   VOL , 23*PokemonMysteryDungeonExplorersofSkyInTheMorningSun_mvl/mxv
 .byte   W04
 .byte   VOL , 23*PokemonMysteryDungeonExplorersofSkyInTheMorningSun_mvl/mxv
 .byte   W04
 .byte   VOL , 23*PokemonMysteryDungeonExplorersofSkyInTheMorningSun_mvl/mxv
 .byte   W04
 .byte   VOL , 23*PokemonMysteryDungeonExplorersofSkyInTheMorningSun_mvl/mxv
 .byte   W08
 .byte   VOL , 24*PokemonMysteryDungeonExplorersofSkyInTheMorningSun_mvl/mxv
 .byte   W04
 .byte   VOL , 24*PokemonMysteryDungeonExplorersofSkyInTheMorningSun_mvl/mxv
 .byte   W04
 .byte   VOL , 25*PokemonMysteryDungeonExplorersofSkyInTheMorningSun_mvl/mxv
 .byte   W04
 .byte   VOL , 25*PokemonMysteryDungeonExplorersofSkyInTheMorningSun_mvl/mxv
 .byte   W08
 .byte   VOL , 26*PokemonMysteryDungeonExplorersofSkyInTheMorningSun_mvl/mxv
 .byte   W04
 .byte   VOL , 27*PokemonMysteryDungeonExplorersofSkyInTheMorningSun_mvl/mxv
 .byte   W04
 .byte   VOL , 27*PokemonMysteryDungeonExplorersofSkyInTheMorningSun_mvl/mxv
 .byte   W04
 .byte   VOL , 27*PokemonMysteryDungeonExplorersofSkyInTheMorningSun_mvl/mxv
 .byte   W04
 .byte   VOL , 27*PokemonMysteryDungeonExplorersofSkyInTheMorningSun_mvl/mxv
 .byte   W08
 .byte   VOL , 28*PokemonMysteryDungeonExplorersofSkyInTheMorningSun_mvl/mxv
 .byte   W04
@  #12 @067   ----------------------------------------
 .byte   VOL , 28*PokemonMysteryDungeonExplorersofSkyInTheMorningSun_mvl/mxv
 .byte   W04
 .byte   VOL , 28*PokemonMysteryDungeonExplorersofSkyInTheMorningSun_mvl/mxv
 .byte   W04
 .byte   VOL , 29*PokemonMysteryDungeonExplorersofSkyInTheMorningSun_mvl/mxv
 .byte   W08
 .byte   VOL , 29*PokemonMysteryDungeonExplorersofSkyInTheMorningSun_mvl/mxv
 .byte   W04
 .byte   VOL , 30*PokemonMysteryDungeonExplorersofSkyInTheMorningSun_mvl/mxv
 .byte   W04
 .byte   VOL , 30*PokemonMysteryDungeonExplorersofSkyInTheMorningSun_mvl/mxv
 .byte   W04
 .byte   VOL , 30*PokemonMysteryDungeonExplorersofSkyInTheMorningSun_mvl/mxv
 .byte   W08
 .byte   VOL , 29*PokemonMysteryDungeonExplorersofSkyInTheMorningSun_mvl/mxv
 .byte   W08
 .byte   VOL , 29*PokemonMysteryDungeonExplorersofSkyInTheMorningSun_mvl/mxv
 .byte   W08
 .byte   VOL , 28*PokemonMysteryDungeonExplorersofSkyInTheMorningSun_mvl/mxv
 .byte   W04
 .byte   VOL , 28*PokemonMysteryDungeonExplorersofSkyInTheMorningSun_mvl/mxv
 .byte   W08
 .byte   VOL , 28*PokemonMysteryDungeonExplorersofSkyInTheMorningSun_mvl/mxv
 .byte   W04
 .byte   VOL , 27*PokemonMysteryDungeonExplorersofSkyInTheMorningSun_mvl/mxv
 .byte   W08
 .byte   VOL , 27*PokemonMysteryDungeonExplorersofSkyInTheMorningSun_mvl/mxv
 .byte   W08
 .byte   VOL , 27*PokemonMysteryDungeonExplorersofSkyInTheMorningSun_mvl/mxv
 .byte   W04
 .byte   VOL , 27*PokemonMysteryDungeonExplorersofSkyInTheMorningSun_mvl/mxv
 .byte   W08
@  #12 @068   ----------------------------------------
 .byte   VOL , 26*PokemonMysteryDungeonExplorersofSkyInTheMorningSun_mvl/mxv
 .byte   W08
 .byte   VOL , 25*PokemonMysteryDungeonExplorersofSkyInTheMorningSun_mvl/mxv
 .byte   W08
 .byte   VOL , 25*PokemonMysteryDungeonExplorersofSkyInTheMorningSun_mvl/mxv
 .byte   W04
 .byte   VOL , 24*PokemonMysteryDungeonExplorersofSkyInTheMorningSun_mvl/mxv
 .byte   W03
 .byte   EOT
 .byte   Bn2 ,v062
 .byte   W01
 .byte   VOL , 24*PokemonMysteryDungeonExplorersofSkyInTheMorningSun_mvl/mxv
 .byte   N92 ,Cs3
 .byte   W04
 .byte   VOL , 25*PokemonMysteryDungeonExplorersofSkyInTheMorningSun_mvl/mxv
 .byte   W04
 .byte   VOL , 25*PokemonMysteryDungeonExplorersofSkyInTheMorningSun_mvl/mxv
 .byte   W04
 .byte   VOL , 27*PokemonMysteryDungeonExplorersofSkyInTheMorningSun_mvl/mxv
 .byte   W04
 .byte   VOL , 27*PokemonMysteryDungeonExplorersofSkyInTheMorningSun_mvl/mxv
 .byte   W04
 .byte   VOL , 27*PokemonMysteryDungeonExplorersofSkyInTheMorningSun_mvl/mxv
 .byte   W04
 .byte   VOL , 28*PokemonMysteryDungeonExplorersofSkyInTheMorningSun_mvl/mxv
 .byte   W04
 .byte   VOL , 29*PokemonMysteryDungeonExplorersofSkyInTheMorningSun_mvl/mxv
 .byte   W04
 .byte   VOL , 29*PokemonMysteryDungeonExplorersofSkyInTheMorningSun_mvl/mxv
 .byte   W04
 .byte   VOL , 30*PokemonMysteryDungeonExplorersofSkyInTheMorningSun_mvl/mxv
 .byte   W08
 .byte   VOL , 30*PokemonMysteryDungeonExplorersofSkyInTheMorningSun_mvl/mxv
 .byte   W04
 .byte   VOL , 29*PokemonMysteryDungeonExplorersofSkyInTheMorningSun_mvl/mxv
 .byte   W04
 .byte   VOL , 27*PokemonMysteryDungeonExplorersofSkyInTheMorningSun_mvl/mxv
 .byte   W04
 .byte   VOL , 26*PokemonMysteryDungeonExplorersofSkyInTheMorningSun_mvl/mxv
 .byte   W04
 .byte   VOL , 24*PokemonMysteryDungeonExplorersofSkyInTheMorningSun_mvl/mxv
 .byte   W04
 .byte   VOL , 23*PokemonMysteryDungeonExplorersofSkyInTheMorningSun_mvl/mxv
 .byte   W04
 .byte   VOL , 22*PokemonMysteryDungeonExplorersofSkyInTheMorningSun_mvl/mxv
 .byte   W04
@  #12 @069   ----------------------------------------
 .byte   VOL , 20*PokemonMysteryDungeonExplorersofSkyInTheMorningSun_mvl/mxv
 .byte   W04
 .byte   VOL , 19*PokemonMysteryDungeonExplorersofSkyInTheMorningSun_mvl/mxv
 .byte   W04
 .byte   VOL , 18*PokemonMysteryDungeonExplorersofSkyInTheMorningSun_mvl/mxv
 .byte   W04
 .byte   VOL , 17*PokemonMysteryDungeonExplorersofSkyInTheMorningSun_mvl/mxv
 .byte   W04
 .byte   VOL , 15*PokemonMysteryDungeonExplorersofSkyInTheMorningSun_mvl/mxv
 .byte   W80
@  #12 @070   ----------------------------------------
 .byte   W96
@  #12 @071   ----------------------------------------
 .byte   W96
@  #12 @072   ----------------------------------------
 .byte   W96
@  #12 @073   ----------------------------------------
 .byte   W96
@  #12 @074   ----------------------------------------
 .byte   W96
@  #12 @075   ----------------------------------------
 .byte   W96
@  #12 @076   ----------------------------------------
 .byte   W96
@  #12 @077   ----------------------------------------
 .byte   W96
@  #12 @078   ----------------------------------------
 .byte   PATT
  .word Label_01688224
@  #12 @079   ----------------------------------------
 .byte   PATT
  .word Label_01688240
@  #12 @080   ----------------------------------------
 .byte   PATT
  .word Label_01688262
@  #12 @081   ----------------------------------------
 .byte   PATT
  .word Label_01688286
@  #12 @082   ----------------------------------------
 .byte   PATT
  .word Label_01688290
@  #12 @083   ----------------------------------------
 .byte   EOT
 .byte   Bn2 ,v062
 .byte   W01
 .byte   TIE ,Bn2 ,v072
 .byte   TIE ,Dn3 ,v052
 .byte   W03
 .byte   VOL , 24*PokemonMysteryDungeonExplorersofSkyInTheMorningSun_mvl/mxv
 .byte   W06
 .byte   VOL , 26*PokemonMysteryDungeonExplorersofSkyInTheMorningSun_mvl/mxv
 .byte   W06
 .byte   VOL , 27*PokemonMysteryDungeonExplorersofSkyInTheMorningSun_mvl/mxv
 .byte   W06
 .byte   VOL , 28*PokemonMysteryDungeonExplorersofSkyInTheMorningSun_mvl/mxv
 .byte   W06
 .byte   VOL , 28*PokemonMysteryDungeonExplorersofSkyInTheMorningSun_mvl/mxv
 .byte   W06
 .byte   VOL , 29*PokemonMysteryDungeonExplorersofSkyInTheMorningSun_mvl/mxv
 .byte   W06
 .byte   VOL , 29*PokemonMysteryDungeonExplorersofSkyInTheMorningSun_mvl/mxv
 .byte   W32
 .byte   W01
@  #12 @084   ----------------------------------------
 .byte   PATT
  .word Label_016882B6
@  #12 @085   ----------------------------------------
 .byte   PATT
  .word Label_016882BE
@  #12 @086   ----------------------------------------
 .byte   EOT
 .byte   Bn2 ,v062
 .byte   W01
 .byte   N92 ,Cs3 ,v052
 .byte   W01
 .byte   VOL , 26*PokemonMysteryDungeonExplorersofSkyInTheMorningSun_mvl/mxv
 .byte   W06
 .byte   VOL , 27*PokemonMysteryDungeonExplorersofSkyInTheMorningSun_mvl/mxv
 .byte   W06
 .byte   VOL , 28*PokemonMysteryDungeonExplorersofSkyInTheMorningSun_mvl/mxv
 .byte   W06
 .byte   VOL , 29*PokemonMysteryDungeonExplorersofSkyInTheMorningSun_mvl/mxv
 .byte   W06
 .byte   VOL , 29*PokemonMysteryDungeonExplorersofSkyInTheMorningSun_mvl/mxv
 .byte   W44
 .byte   W02
 .byte   VOL , 30*PokemonMysteryDungeonExplorersofSkyInTheMorningSun_mvl/mxv
 .byte   W01
@  #12 @087   ----------------------------------------
 .byte   PATT
  .word Label_016882DD
@  #12 @088   ----------------------------------------
 .byte   PATT
  .word Label_016882F8
@  #12 @089   ----------------------------------------
 .byte   PATT
  .word Label_01688313
@  #12 @090   ----------------------------------------
 .byte   PATT
  .word Label_01688335
@  #12 @091   ----------------------------------------
 .byte   EOT
 .byte   Cs3
 .byte   W01
 .byte   GOTO
  .word Label_01688340
 .byte   FINE

@**************** Track 13 (Midi-Chn.12) ****************@

PokemonMysteryDungeonExplorersofSkyInTheMorningSun_013:
@  #13 @000   ----------------------------------------
 .byte   KEYSH , PokemonMysteryDungeonExplorersofSkyInTheMorningSun_key+0
 .byte   VOICE , 11
 .byte   MODT 0
 .byte   LFOS 44
 .byte   VOL , 33*PokemonMysteryDungeonExplorersofSkyInTheMorningSun_mvl/mxv
 .byte   PAN , c_v+0
 .byte   VOL , 33*PokemonMysteryDungeonExplorersofSkyInTheMorningSun_mvl/mxv
 .byte   BEND , c_v+0
 .byte   N17 ,Bn4 ,v116
 .byte   W24
 .byte   N30 ,Fs5
 .byte   W48
 .byte   N17
 .byte   W24
@  #13 @001   ----------------------------------------
Label_01688915:
 .byte   N07 ,Gn5 ,v112
 .byte   W12
 .byte   N42 ,An5 ,v104
 .byte   W60
 .byte   N17 ,An5 ,v116
 .byte   W24
 .byte   PEND 
@  #13 @002   ----------------------------------------
Label_01688922:
 .byte   N07 ,Cs6 ,v116
 .byte   W12
 .byte   TIE ,Dn6 ,v060
 .byte   W84
 .byte   PEND 
@  #13 @003   ----------------------------------------
 .byte   W68
 .byte   EOT
 .byte   W28
@  #13 @004   ----------------------------------------
 .byte   N17 ,Bn4 ,v116
 .byte   W24
 .byte   N30 ,Fs5
 .byte   W48
 .byte   N17
 .byte   W24
@  #13 @005   ----------------------------------------
 .byte   PATT
  .word Label_01688915
@  #13 @006   ----------------------------------------
 .byte   PATT
  .word Label_01688922
@  #13 @007   ----------------------------------------
 .byte   W68
 .byte   EOT
 .byte   Dn6
 .byte   W28
@  #13 @008   ----------------------------------------
 .byte   W96
@  #13 @009   ----------------------------------------
 .byte   W96
@  #13 @010   ----------------------------------------
 .byte   W96
@  #13 @011   ----------------------------------------
 .byte   W96
@  #13 @012   ----------------------------------------
 .byte   W96
@  #13 @013   ----------------------------------------
 .byte   W96
@  #13 @014   ----------------------------------------
 .byte   W96
@  #13 @015   ----------------------------------------
 .byte   W96
@  #13 @016   ----------------------------------------
 .byte   W24
 .byte   VOICE , 73
 .byte   VOL , 10*PokemonMysteryDungeonExplorersofSkyInTheMorningSun_mvl/mxv
 .byte   PAN , c_v+63
 .byte   VOL , 10*PokemonMysteryDungeonExplorersofSkyInTheMorningSun_mvl/mxv
 .byte   BEND , c_v+0
 .byte   W72
@  #13 @017   ----------------------------------------
 .byte   W36
 .byte   VOL , 10*PokemonMysteryDungeonExplorersofSkyInTheMorningSun_mvl/mxv
 .byte   W48
 .byte   VOICE , 74
 .byte   W12
@  #13 @018   ----------------------------------------
 .byte   W12
 .byte   N24 ,Fs4 ,v060
 .byte   W12
Label_01688965:
 .byte   W12
 .byte   N36 ,Cs5 ,v060
 .byte   W36
 .byte   N12 ,Bn4
 .byte   W12
 .byte   Bn4 ,v028
 .byte   W12
@  #13 @019   ----------------------------------------
 .byte   Bn4 ,v012
 .byte   W12
 .byte   N72 ,Fs4 ,v060
 .byte   W42
 .byte   VOL , 10*PokemonMysteryDungeonExplorersofSkyInTheMorningSun_mvl/mxv
 .byte   W06
 .byte   VOL , 9*PokemonMysteryDungeonExplorersofSkyInTheMorningSun_mvl/mxv
 .byte   W06
 .byte   VOL , 8*PokemonMysteryDungeonExplorersofSkyInTheMorningSun_mvl/mxv
 .byte   W06
 .byte   VOL , 6*PokemonMysteryDungeonExplorersofSkyInTheMorningSun_mvl/mxv
 .byte   W06
 .byte   VOL , 6*PokemonMysteryDungeonExplorersofSkyInTheMorningSun_mvl/mxv
 .byte   W06
 .byte   VOL , 5*PokemonMysteryDungeonExplorersofSkyInTheMorningSun_mvl/mxv
 .byte   N24 ,Fs4 ,v028
 .byte   W12
@  #13 @020   ----------------------------------------
 .byte   W12
 .byte   Fs4 ,v012
 .byte   W24
 .byte   VOL , 10*PokemonMysteryDungeonExplorersofSkyInTheMorningSun_mvl/mxv
 .byte   N36 ,En4 ,v060
 .byte   W36
 .byte   N12 ,An4
 .byte   W12
 .byte   An4 ,v028
 .byte   W12
@  #13 @021   ----------------------------------------
 .byte   An4 ,v012
 .byte   W12
 .byte   N72 ,Fs4 ,v060
 .byte   W12
 .byte   VOL , 10*PokemonMysteryDungeonExplorersofSkyInTheMorningSun_mvl/mxv
 .byte   W06
 .byte   VOL , 10*PokemonMysteryDungeonExplorersofSkyInTheMorningSun_mvl/mxv
 .byte   W06
 .byte   VOL , 8*PokemonMysteryDungeonExplorersofSkyInTheMorningSun_mvl/mxv
 .byte   W06
 .byte   VOL , 8*PokemonMysteryDungeonExplorersofSkyInTheMorningSun_mvl/mxv
 .byte   W06
 .byte   VOL , 8*PokemonMysteryDungeonExplorersofSkyInTheMorningSun_mvl/mxv
 .byte   W06
 .byte   VOL , 7*PokemonMysteryDungeonExplorersofSkyInTheMorningSun_mvl/mxv
 .byte   W06
 .byte   VOL , 6*PokemonMysteryDungeonExplorersofSkyInTheMorningSun_mvl/mxv
 .byte   W06
 .byte   VOL , 6*PokemonMysteryDungeonExplorersofSkyInTheMorningSun_mvl/mxv
 .byte   W06
 .byte   VOL , 6*PokemonMysteryDungeonExplorersofSkyInTheMorningSun_mvl/mxv
 .byte   W06
 .byte   VOL , 5*PokemonMysteryDungeonExplorersofSkyInTheMorningSun_mvl/mxv
 .byte   W06
 .byte   VOL , 5*PokemonMysteryDungeonExplorersofSkyInTheMorningSun_mvl/mxv
 .byte   N12 ,Fs4 ,v028
 .byte   W06
 .byte   VOL , 5*PokemonMysteryDungeonExplorersofSkyInTheMorningSun_mvl/mxv
 .byte   W06
@  #13 @022   ----------------------------------------
 .byte   VOL , 4*PokemonMysteryDungeonExplorersofSkyInTheMorningSun_mvl/mxv
 .byte   N12 ,Fs4 ,v012
 .byte   W12
 .byte   VOL , 10*PokemonMysteryDungeonExplorersofSkyInTheMorningSun_mvl/mxv
 .byte   N24 ,Fs3 ,v060
 .byte   W24
 .byte   Bn3
 .byte   W24
 .byte   N12 ,Fs3
 .byte   W12
 .byte   N24 ,Cs4
 .byte   W24
@  #13 @023   ----------------------------------------
 .byte   N12 ,Fs3
 .byte   W12
 .byte   Fs3 ,v028
 .byte   W12
 .byte   N24 ,Dn4 ,v060
 .byte   W24
 .byte   N12 ,Fs3
 .byte   W12
 .byte   Fs3 ,v028
 .byte   W12
 .byte   N24 ,En4 ,v060
 .byte   W24
@  #13 @024   ----------------------------------------
 .byte   N12 ,An4
 .byte   W12
 .byte   An4 ,v028
 .byte   W12
 .byte   TIE ,Fs4 ,v060
 .byte   W30
 .byte   VOL , 10*PokemonMysteryDungeonExplorersofSkyInTheMorningSun_mvl/mxv
 .byte   W06
 .byte   VOL , 10*PokemonMysteryDungeonExplorersofSkyInTheMorningSun_mvl/mxv
 .byte   W06
 .byte   VOL , 8*PokemonMysteryDungeonExplorersofSkyInTheMorningSun_mvl/mxv
 .byte   W06
 .byte   VOL , 8*PokemonMysteryDungeonExplorersofSkyInTheMorningSun_mvl/mxv
 .byte   W06
 .byte   VOL , 8*PokemonMysteryDungeonExplorersofSkyInTheMorningSun_mvl/mxv
 .byte   W06
 .byte   VOL , 6*PokemonMysteryDungeonExplorersofSkyInTheMorningSun_mvl/mxv
 .byte   W06
 .byte   VOL , 6*PokemonMysteryDungeonExplorersofSkyInTheMorningSun_mvl/mxv
 .byte   W06
@  #13 @025   ----------------------------------------
 .byte   VOL , 6*PokemonMysteryDungeonExplorersofSkyInTheMorningSun_mvl/mxv
 .byte   W06
 .byte   VOL , 5*PokemonMysteryDungeonExplorersofSkyInTheMorningSun_mvl/mxv
 .byte   W06
 .byte   VOL , 5*PokemonMysteryDungeonExplorersofSkyInTheMorningSun_mvl/mxv
 .byte   W06
 .byte   VOL , 5*PokemonMysteryDungeonExplorersofSkyInTheMorningSun_mvl/mxv
 .byte   W06
 .byte   VOL , 4*PokemonMysteryDungeonExplorersofSkyInTheMorningSun_mvl/mxv
 .byte   W06
 .byte   VOL , 3*PokemonMysteryDungeonExplorersofSkyInTheMorningSun_mvl/mxv
 .byte   W06
 .byte   VOL , 3*PokemonMysteryDungeonExplorersofSkyInTheMorningSun_mvl/mxv
 .byte   W06
 .byte   VOL , 3*PokemonMysteryDungeonExplorersofSkyInTheMorningSun_mvl/mxv
 .byte   W06
 .byte   VOL , 2*PokemonMysteryDungeonExplorersofSkyInTheMorningSun_mvl/mxv
 .byte   W06
 .byte   VOL , 2*PokemonMysteryDungeonExplorersofSkyInTheMorningSun_mvl/mxv
 .byte   W06
 .byte   EOT
 .byte   N12 ,Fs4 ,v028
 .byte   W12
 .byte   Fs4 ,v012
 .byte   W12
 .byte   Fs4 ,v008
 .byte   W12
@  #13 @026   ----------------------------------------
 .byte   Fs4 ,v004
 .byte   W12
 .byte   VOL , 10*PokemonMysteryDungeonExplorersofSkyInTheMorningSun_mvl/mxv
 .byte   N24 ,Fs5 ,v048
 .byte   W24
 .byte   N36 ,Cs6
 .byte   W36
 .byte   N12 ,Bn5
 .byte   W12
 .byte   Bn5 ,v020
 .byte   W12
@  #13 @027   ----------------------------------------
 .byte   Bn5 ,v008
 .byte   W12
 .byte   N72 ,Fs5 ,v048
 .byte   W30
 .byte   VOL , 10*PokemonMysteryDungeonExplorersofSkyInTheMorningSun_mvl/mxv
 .byte   W06
 .byte   VOL , 9*PokemonMysteryDungeonExplorersofSkyInTheMorningSun_mvl/mxv
 .byte   W06
 .byte   VOL , 8*PokemonMysteryDungeonExplorersofSkyInTheMorningSun_mvl/mxv
 .byte   W06
 .byte   VOL , 8*PokemonMysteryDungeonExplorersofSkyInTheMorningSun_mvl/mxv
 .byte   W06
 .byte   VOL , 6*PokemonMysteryDungeonExplorersofSkyInTheMorningSun_mvl/mxv
 .byte   W06
 .byte   VOL , 6*PokemonMysteryDungeonExplorersofSkyInTheMorningSun_mvl/mxv
 .byte   W06
 .byte   VOL , 6*PokemonMysteryDungeonExplorersofSkyInTheMorningSun_mvl/mxv
 .byte   W06
 .byte   VOL , 5*PokemonMysteryDungeonExplorersofSkyInTheMorningSun_mvl/mxv
 .byte   N12 ,Fs5 ,v020
 .byte   W06
 .byte   VOL , 5*PokemonMysteryDungeonExplorersofSkyInTheMorningSun_mvl/mxv
 .byte   W06
@  #13 @028   ----------------------------------------
 .byte   VOL , 4*PokemonMysteryDungeonExplorersofSkyInTheMorningSun_mvl/mxv
 .byte   N12 ,Fs5 ,v008
 .byte   W06
 .byte   VOL , 3*PokemonMysteryDungeonExplorersofSkyInTheMorningSun_mvl/mxv
 .byte   W06
 .byte   N12 ,Fs5 ,v004
 .byte   W24
 .byte   VOL , 10*PokemonMysteryDungeonExplorersofSkyInTheMorningSun_mvl/mxv
 .byte   N36 ,En5 ,v048
 .byte   W36
 .byte   N12 ,An5
 .byte   W12
 .byte   An5 ,v020
 .byte   W12
@  #13 @029   ----------------------------------------
 .byte   An5 ,v008
 .byte   W12
 .byte   N72 ,Fs5 ,v048
 .byte   W12
 .byte   VOL , 10*PokemonMysteryDungeonExplorersofSkyInTheMorningSun_mvl/mxv
 .byte   W06
 .byte   VOL , 8*PokemonMysteryDungeonExplorersofSkyInTheMorningSun_mvl/mxv
 .byte   W06
 .byte   VOL , 8*PokemonMysteryDungeonExplorersofSkyInTheMorningSun_mvl/mxv
 .byte   W06
 .byte   VOL , 6*PokemonMysteryDungeonExplorersofSkyInTheMorningSun_mvl/mxv
 .byte   W06
 .byte   VOL , 6*PokemonMysteryDungeonExplorersofSkyInTheMorningSun_mvl/mxv
 .byte   W06
 .byte   VOL , 5*PokemonMysteryDungeonExplorersofSkyInTheMorningSun_mvl/mxv
 .byte   W06
 .byte   VOL , 4*PokemonMysteryDungeonExplorersofSkyInTheMorningSun_mvl/mxv
 .byte   W06
 .byte   VOL , 3*PokemonMysteryDungeonExplorersofSkyInTheMorningSun_mvl/mxv
 .byte   W06
 .byte   VOL , 3*PokemonMysteryDungeonExplorersofSkyInTheMorningSun_mvl/mxv
 .byte   W12
 .byte   N12 ,Fs5 ,v020
 .byte   W12
@  #13 @030   ----------------------------------------
 .byte   Fs5 ,v008
 .byte   W12
 .byte   VOL , 10*PokemonMysteryDungeonExplorersofSkyInTheMorningSun_mvl/mxv
 .byte   N24 ,An4 ,v048
 .byte   W24
 .byte   Bn4
 .byte   W24
 .byte   N12 ,Fs5
 .byte   W12
 .byte   N24
 .byte   W24
@  #13 @031   ----------------------------------------
 .byte   N12
 .byte   W12
 .byte   Fs5 ,v020
 .byte   W12
 .byte   N24 ,Fs5 ,v048
 .byte   W24
 .byte   N12 ,En5
 .byte   W12
 .byte   En5 ,v020
 .byte   W12
 .byte   N24 ,Dn5 ,v048
 .byte   W24
@  #13 @032   ----------------------------------------
 .byte   N12 ,En5
 .byte   W12
 .byte   En5 ,v020
 .byte   W12
 .byte   TIE ,Dn5 ,v048
 .byte   W24
 .byte   VOL , 10*PokemonMysteryDungeonExplorersofSkyInTheMorningSun_mvl/mxv
 .byte   W06
 .byte   VOL , 10*PokemonMysteryDungeonExplorersofSkyInTheMorningSun_mvl/mxv
 .byte   W06
 .byte   VOL , 8*PokemonMysteryDungeonExplorersofSkyInTheMorningSun_mvl/mxv
 .byte   W06
 .byte   VOL , 8*PokemonMysteryDungeonExplorersofSkyInTheMorningSun_mvl/mxv
 .byte   W06
 .byte   VOL , 8*PokemonMysteryDungeonExplorersofSkyInTheMorningSun_mvl/mxv
 .byte   W06
 .byte   VOL , 7*PokemonMysteryDungeonExplorersofSkyInTheMorningSun_mvl/mxv
 .byte   W06
 .byte   VOL , 6*PokemonMysteryDungeonExplorersofSkyInTheMorningSun_mvl/mxv
 .byte   W06
 .byte   VOL , 6*PokemonMysteryDungeonExplorersofSkyInTheMorningSun_mvl/mxv
 .byte   W06
@  #13 @033   ----------------------------------------
 .byte   VOL , 6*PokemonMysteryDungeonExplorersofSkyInTheMorningSun_mvl/mxv
 .byte   W06
 .byte   VOL , 6*PokemonMysteryDungeonExplorersofSkyInTheMorningSun_mvl/mxv
 .byte   W06
 .byte   VOL , 5*PokemonMysteryDungeonExplorersofSkyInTheMorningSun_mvl/mxv
 .byte   W06
 .byte   VOL , 5*PokemonMysteryDungeonExplorersofSkyInTheMorningSun_mvl/mxv
 .byte   W06
 .byte   VOL , 5*PokemonMysteryDungeonExplorersofSkyInTheMorningSun_mvl/mxv
 .byte   W06
 .byte   VOL , 4*PokemonMysteryDungeonExplorersofSkyInTheMorningSun_mvl/mxv
 .byte   W06
 .byte   VOL , 4*PokemonMysteryDungeonExplorersofSkyInTheMorningSun_mvl/mxv
 .byte   W06
 .byte   VOL , 3*PokemonMysteryDungeonExplorersofSkyInTheMorningSun_mvl/mxv
 .byte   W06
 .byte   VOL , 3*PokemonMysteryDungeonExplorersofSkyInTheMorningSun_mvl/mxv
 .byte   W06
 .byte   VOL , 3*PokemonMysteryDungeonExplorersofSkyInTheMorningSun_mvl/mxv
 .byte   W06
 .byte   EOT
 .byte   VOL , 2*PokemonMysteryDungeonExplorersofSkyInTheMorningSun_mvl/mxv
 .byte   N12 ,Dn5 ,v020
 .byte   W06
 .byte   VOL , 2*PokemonMysteryDungeonExplorersofSkyInTheMorningSun_mvl/mxv
 .byte   W06
 .byte   VOL , 2*PokemonMysteryDungeonExplorersofSkyInTheMorningSun_mvl/mxv
 .byte   N12 ,Dn5 ,v008
 .byte   W12
 .byte   Dn5 ,v004
 .byte   W12
@  #13 @034   ----------------------------------------
 .byte   W96
@  #13 @035   ----------------------------------------
 .byte   W96
@  #13 @036   ----------------------------------------
 .byte   W96
@  #13 @037   ----------------------------------------
 .byte   W96
@  #13 @038   ----------------------------------------
 .byte   W96
@  #13 @039   ----------------------------------------
 .byte   W96
@  #13 @040   ----------------------------------------
 .byte   W96
@  #13 @041   ----------------------------------------
 .byte   W96
@  #13 @042   ----------------------------------------
 .byte   W96
@  #13 @043   ----------------------------------------
 .byte   W96
@  #13 @044   ----------------------------------------
 .byte   W96
@  #13 @045   ----------------------------------------
 .byte   W96
@  #13 @046   ----------------------------------------
 .byte   W96
@  #13 @047   ----------------------------------------
 .byte   W96
@  #13 @048   ----------------------------------------
 .byte   W96
@  #13 @049   ----------------------------------------
 .byte   W96
@  #13 @050   ----------------------------------------
 .byte   W96
@  #13 @051   ----------------------------------------
 .byte   W96
@  #13 @052   ----------------------------------------
 .byte   W96
@  #13 @053   ----------------------------------------
 .byte   W36
 .byte   VOL , 10*PokemonMysteryDungeonExplorersofSkyInTheMorningSun_mvl/mxv
 .byte   W60
@  #13 @054   ----------------------------------------
 .byte   W12
 .byte   N12 ,Bn3 ,v088
 .byte   W12
 .byte   Bn3 ,v028
 .byte   W12
 .byte   N36 ,Fs4 ,v088
 .byte   W36
 .byte   N12 ,Fs4 ,v028
 .byte   W12
 .byte   Fs4 ,v088
 .byte   W12
@  #13 @055   ----------------------------------------
Label_01688B0E:
 .byte   N12 ,Fs4 ,v028
 .byte   W12
 .byte   Gn4 ,v088
 .byte   W12
 .byte   N48 ,An4
 .byte   W48
 .byte   N12 ,An4 ,v028
 .byte   W12
 .byte   An4 ,v088
 .byte   W12
 .byte   PEND 
@  #13 @056   ----------------------------------------
 .byte   An4 ,v028
 .byte   W12
 .byte   Cs5 ,v088
 .byte   W12
 .byte   TIE ,Dn5
 .byte   W48
 .byte   VOL , 10*PokemonMysteryDungeonExplorersofSkyInTheMorningSun_mvl/mxv
 .byte   W04
 .byte   VOL , 10*PokemonMysteryDungeonExplorersofSkyInTheMorningSun_mvl/mxv
 .byte   W04
 .byte   VOL , 10*PokemonMysteryDungeonExplorersofSkyInTheMorningSun_mvl/mxv
 .byte   W08
 .byte   VOL , 10*PokemonMysteryDungeonExplorersofSkyInTheMorningSun_mvl/mxv
 .byte   W04
 .byte   VOL , 10*PokemonMysteryDungeonExplorersofSkyInTheMorningSun_mvl/mxv
 .byte   W04
@  #13 @057   ----------------------------------------
 .byte   VOL , 10*PokemonMysteryDungeonExplorersofSkyInTheMorningSun_mvl/mxv
 .byte   W04
 .byte   VOL , 9*PokemonMysteryDungeonExplorersofSkyInTheMorningSun_mvl/mxv
 .byte   W04
 .byte   VOL , 9*PokemonMysteryDungeonExplorersofSkyInTheMorningSun_mvl/mxv
 .byte   W04
 .byte   VOL , 9*PokemonMysteryDungeonExplorersofSkyInTheMorningSun_mvl/mxv
 .byte   W04
 .byte   VOL , 8*PokemonMysteryDungeonExplorersofSkyInTheMorningSun_mvl/mxv
 .byte   W08
 .byte   VOL , 8*PokemonMysteryDungeonExplorersofSkyInTheMorningSun_mvl/mxv
 .byte   W04
 .byte   VOL , 8*PokemonMysteryDungeonExplorersofSkyInTheMorningSun_mvl/mxv
 .byte   W04
 .byte   VOL , 8*PokemonMysteryDungeonExplorersofSkyInTheMorningSun_mvl/mxv
 .byte   W04
 .byte   VOL , 8*PokemonMysteryDungeonExplorersofSkyInTheMorningSun_mvl/mxv
 .byte   W04
 .byte   VOL , 8*PokemonMysteryDungeonExplorersofSkyInTheMorningSun_mvl/mxv
 .byte   W04
 .byte   VOL , 8*PokemonMysteryDungeonExplorersofSkyInTheMorningSun_mvl/mxv
 .byte   W04
 .byte   VOL , 8*PokemonMysteryDungeonExplorersofSkyInTheMorningSun_mvl/mxv
 .byte   W04
 .byte   VOL , 8*PokemonMysteryDungeonExplorersofSkyInTheMorningSun_mvl/mxv
 .byte   W08
 .byte   VOL , 8*PokemonMysteryDungeonExplorersofSkyInTheMorningSun_mvl/mxv
 .byte   W04
 .byte   VOL , 8*PokemonMysteryDungeonExplorersofSkyInTheMorningSun_mvl/mxv
 .byte   W04
 .byte   VOL , 7*PokemonMysteryDungeonExplorersofSkyInTheMorningSun_mvl/mxv
 .byte   W04
 .byte   VOL , 7*PokemonMysteryDungeonExplorersofSkyInTheMorningSun_mvl/mxv
 .byte   W04
 .byte   VOL , 7*PokemonMysteryDungeonExplorersofSkyInTheMorningSun_mvl/mxv
 .byte   W08
 .byte   EOT
 .byte   VOL , 6*PokemonMysteryDungeonExplorersofSkyInTheMorningSun_mvl/mxv
 .byte   N12 ,Dn5 ,v028
 .byte   W08
 .byte   VOL , 6*PokemonMysteryDungeonExplorersofSkyInTheMorningSun_mvl/mxv
 .byte   W04
@  #13 @058   ----------------------------------------
 .byte   VOL , 6*PokemonMysteryDungeonExplorersofSkyInTheMorningSun_mvl/mxv
 .byte   N12 ,Dn5 ,v020
 .byte   W04
 .byte   VOL , 6*PokemonMysteryDungeonExplorersofSkyInTheMorningSun_mvl/mxv
 .byte   W04
 .byte   VOL , 6*PokemonMysteryDungeonExplorersofSkyInTheMorningSun_mvl/mxv
 .byte   W04
 .byte   VOL , 6*PokemonMysteryDungeonExplorersofSkyInTheMorningSun_mvl/mxv
 .byte   N12 ,Bn4 ,v088
 .byte   W08
 .byte   VOL , 6*PokemonMysteryDungeonExplorersofSkyInTheMorningSun_mvl/mxv
 .byte   W04
 .byte   VOL , 8*PokemonMysteryDungeonExplorersofSkyInTheMorningSun_mvl/mxv
 .byte   N12 ,Bn4 ,v028
 .byte   W08
 .byte   VOL , 9*PokemonMysteryDungeonExplorersofSkyInTheMorningSun_mvl/mxv
 .byte   W04
 .byte   N24 ,Fs5 ,v088
 .byte   W04
 .byte   VOL , 9*PokemonMysteryDungeonExplorersofSkyInTheMorningSun_mvl/mxv
 .byte   W04
 .byte   VOL , 9*PokemonMysteryDungeonExplorersofSkyInTheMorningSun_mvl/mxv
 .byte   W08
 .byte   VOL , 10*PokemonMysteryDungeonExplorersofSkyInTheMorningSun_mvl/mxv
 .byte   W04
 .byte   VOL , 10*PokemonMysteryDungeonExplorersofSkyInTheMorningSun_mvl/mxv
 .byte   W04
 .byte   N12 ,En5
 .byte   W04
 .byte   VOL , 10*PokemonMysteryDungeonExplorersofSkyInTheMorningSun_mvl/mxv
 .byte   W08
 .byte   VOL , 10*PokemonMysteryDungeonExplorersofSkyInTheMorningSun_mvl/mxv
 .byte   N24
 .byte   W04
 .byte   VOL , 10*PokemonMysteryDungeonExplorersofSkyInTheMorningSun_mvl/mxv
 .byte   W08
 .byte   VOL , 10*PokemonMysteryDungeonExplorersofSkyInTheMorningSun_mvl/mxv
 .byte   W12
@  #13 @059   ----------------------------------------
Label_01688B97:
 .byte   N12 ,En5 ,v028
 .byte   W12
 .byte   Bn4 ,v088
 .byte   W12
 .byte   Bn4 ,v028
 .byte   W12
 .byte   N24 ,Fs5 ,v088
 .byte   W24
 .byte   N12 ,En5
 .byte   W12
 .byte   N24
 .byte   W24
 .byte   PEND 
@  #13 @060   ----------------------------------------
 .byte   N12 ,En5 ,v028
 .byte   W12
 .byte   Bn4 ,v088
 .byte   W12
 .byte   Bn4 ,v028
 .byte   W12
 .byte   N24 ,Gn5 ,v088
 .byte   W24
 .byte   N12 ,Fs5
 .byte   W12
 .byte   N24
 .byte   W24
@  #13 @061   ----------------------------------------
 .byte   N12 ,En5
 .byte   W12
 .byte   En5 ,v028
 .byte   W12
 .byte   N60 ,Fs5 ,v088
 .byte   W60
 .byte   N12 ,Fs5 ,v028
 .byte   W12
@  #13 @062   ----------------------------------------
 .byte   Fs5 ,v020
 .byte   W12
 .byte   Bn3 ,v088
 .byte   W12
 .byte   Bn3 ,v028
 .byte   W12
 .byte   N36 ,Fs4 ,v088
 .byte   W36
 .byte   N12 ,Fs4 ,v028
 .byte   W12
 .byte   Fs4 ,v088
 .byte   W12
@  #13 @063   ----------------------------------------
 .byte   PATT
  .word Label_01688B0E
@  #13 @064   ----------------------------------------
 .byte   N12 ,An4 ,v028
 .byte   W12
 .byte   Cs5 ,v088
 .byte   W12
 .byte   N60 ,Dn5
 .byte   W60
 .byte   N12 ,Cs5
 .byte   W12
@  #13 @065   ----------------------------------------
 .byte   Cs5 ,v028
 .byte   W12
 .byte   Dn5 ,v088
 .byte   W12
 .byte   N60 ,Fs5
 .byte   W60
 .byte   N12 ,Fs5 ,v028
 .byte   W12
@  #13 @066   ----------------------------------------
 .byte   Fs5 ,v020
 .byte   W12
 .byte   Bn4 ,v088
 .byte   W12
 .byte   Bn4 ,v028
 .byte   W12
 .byte   N24 ,Fs5 ,v088
 .byte   W24
 .byte   N12 ,En5
 .byte   W12
 .byte   N24
 .byte   W24
@  #13 @067   ----------------------------------------
 .byte   PATT
  .word Label_01688B97
@  #13 @068   ----------------------------------------
 .byte   N12 ,Dn5 ,v088
 .byte   W12
 .byte   Dn5 ,v028
 .byte   W12
 .byte   N84 ,En5 ,v088
 .byte   W72
@  #13 @069   ----------------------------------------
 .byte   W12
 .byte   N12 ,En5 ,v028
 .byte   W12
 .byte   En5 ,v020
 .byte   W12
 .byte   En5 ,v016
 .byte   W12
 .byte   En5 ,v012
 .byte   W48
@  #13 @070   ----------------------------------------
 .byte   W96
@  #13 @071   ----------------------------------------
 .byte   W96
@  #13 @072   ----------------------------------------
 .byte   W96
@  #13 @073   ----------------------------------------
 .byte   W96
@  #13 @074   ----------------------------------------
 .byte   W96
@  #13 @075   ----------------------------------------
 .byte   W96
@  #13 @076   ----------------------------------------
 .byte   W96
@  #13 @077   ----------------------------------------
 .byte   W96
@  #13 @078   ----------------------------------------
 .byte   W96
@  #13 @079   ----------------------------------------
 .byte   W96
@  #13 @080   ----------------------------------------
 .byte   W96
@  #13 @081   ----------------------------------------
 .byte   W96
@  #13 @082   ----------------------------------------
 .byte   W96
@  #13 @083   ----------------------------------------
 .byte   W96
@  #13 @084   ----------------------------------------
 .byte   W96
@  #13 @085   ----------------------------------------
 .byte   W96
@  #13 @086   ----------------------------------------
 .byte   W96
@  #13 @087   ----------------------------------------
 .byte   W96
@  #13 @088   ----------------------------------------
 .byte   W24
 .byte   GOTO
  .word Label_01688965
 .byte   FINE

@**************** Track 14 (Midi-Chn.13) ****************@

PokemonMysteryDungeonExplorersofSkyInTheMorningSun_014:
@  #14 @000   ----------------------------------------
 .byte   KEYSH , PokemonMysteryDungeonExplorersofSkyInTheMorningSun_key+0
 .byte   VOICE , 10
 .byte   MODT 0
 .byte   LFOS 44
 .byte   VOL , 12*PokemonMysteryDungeonExplorersofSkyInTheMorningSun_mvl/mxv
 .byte   PAN , c_v-64
 .byte   VOL , 12*PokemonMysteryDungeonExplorersofSkyInTheMorningSun_mvl/mxv
 .byte   BEND , c_v+0
 .byte   W36
 .byte   N05 ,Fs5 ,v080
 .byte   W12
 .byte   Fs5 ,v036
 .byte   W12
 .byte   Fs5 ,v016
 .byte   W12
 .byte   En5 ,v080
 .byte   W12
 .byte   En5 ,v036
 .byte   W12
@  #14 @001   ----------------------------------------
Label_01688C69:
 .byte   N05 ,En5 ,v016
 .byte   W24
 .byte   An5 ,v080
 .byte   W12
 .byte   An5 ,v036
 .byte   W12
 .byte   An5 ,v016
 .byte   W12
 .byte   An5 ,v052
 .byte   W12
 .byte   An5 ,v024
 .byte   W12
 .byte   An5 ,v012
 .byte   W12
 .byte   PEND 
@  #14 @002   ----------------------------------------
Label_01688C80:
 .byte   N05 ,An5 ,v044
 .byte   W12
 .byte   An5 ,v024
 .byte   W12
 .byte   An5 ,v012
 .byte   W12
 .byte   Fs5 ,v080
 .byte   N05 ,An5 ,v008
 .byte   W12
 .byte   Fs5 ,v036
 .byte   W12
 .byte   Fs5 ,v016
 .byte   W12
 .byte   En5 ,v080
 .byte   W12
 .byte   En5 ,v036
 .byte   W12
 .byte   PEND 
@  #14 @003   ----------------------------------------
Label_01688C9D:
 .byte   N05 ,En5 ,v016
 .byte   W12
 .byte   An4 ,v080
 .byte   W12
 .byte   An4 ,v036
 .byte   W12
 .byte   An4 ,v016
 .byte   W12
 .byte   An4 ,v052
 .byte   W12
 .byte   An4 ,v024
 .byte   W12
 .byte   An4 ,v012
 .byte   W12
 .byte   An4 ,v044
 .byte   W12
 .byte   PEND 
@  #14 @004   ----------------------------------------
 .byte   An4 ,v024
 .byte   W12
 .byte   An4 ,v012
 .byte   W12
 .byte   An4 ,v008
 .byte   W12
 .byte   Fs5 ,v080
 .byte   W12
 .byte   Fs5 ,v036
 .byte   W12
 .byte   Fs5 ,v016
 .byte   W12
 .byte   En5 ,v080
 .byte   W12
 .byte   En5 ,v036
 .byte   W12
@  #14 @005   ----------------------------------------
 .byte   PATT
  .word Label_01688C69
@  #14 @006   ----------------------------------------
 .byte   PATT
  .word Label_01688C80
@  #14 @007   ----------------------------------------
 .byte   PATT
  .word Label_01688C9D
@  #14 @008   ----------------------------------------
 .byte   N05 ,An4 ,v024
 .byte   W12
 .byte   An4 ,v012
 .byte   W12
 .byte   An4 ,v008
 .byte   W72
@  #14 @009   ----------------------------------------
 .byte   W96
@  #14 @010   ----------------------------------------
 .byte   W96
@  #14 @011   ----------------------------------------
 .byte   W96
@  #14 @012   ----------------------------------------
 .byte   W96
@  #14 @013   ----------------------------------------
 .byte   W96
@  #14 @014   ----------------------------------------
 .byte   W96
@  #14 @015   ----------------------------------------
 .byte   W96
@  #14 @016   ----------------------------------------
 .byte   W96
@  #14 @017   ----------------------------------------
 .byte   W96
@  #14 @018   ----------------------------------------
 .byte   W24
Label_01688CF2:
 .byte   W24
 .byte   N01 ,Fs5 ,v100
 .byte   W12
 .byte   En5
 .byte   W12
 .byte   Bn4
 .byte   W12
 .byte   Fs5
 .byte   W12
@  #14 @019   ----------------------------------------
Label_01688CFD:
 .byte   N01 ,En5 ,v100
 .byte   W12
 .byte   Bn4
 .byte   W12
 .byte   Fs5
 .byte   W24
 .byte   En5
 .byte   W24
 .byte   An5
 .byte   W24
 .byte   PEND 
@  #14 @020   ----------------------------------------
Label_01688D0A:
 .byte   W48
 .byte   N01 ,Fs5 ,v100
 .byte   W12
 .byte   En5
 .byte   W12
 .byte   Bn4
 .byte   W12
 .byte   Fs5
 .byte   W12
 .byte   PEND 
@  #14 @021   ----------------------------------------
Label_01688D16:
 .byte   N01 ,En5 ,v100
 .byte   W12
 .byte   Bn4
 .byte   W12
 .byte   Fs5
 .byte   W24
 .byte   En5
 .byte   W24
 .byte   An4
 .byte   W24
 .byte   PEND 
@  #14 @022   ----------------------------------------
 .byte   PATT
  .word Label_01688D0A
@  #14 @023   ----------------------------------------
 .byte   PATT
  .word Label_01688D16
@  #14 @024   ----------------------------------------
 .byte   PATT
  .word Label_01688D0A
@  #14 @025   ----------------------------------------
Label_01688D32:
 .byte   N01 ,En5 ,v100
 .byte   W12
 .byte   Bn4
 .byte   W12
 .byte   An5
 .byte   W24
 .byte   Gn5
 .byte   W24
 .byte   Fs5
 .byte   W24
 .byte   PEND 
@  #14 @026   ----------------------------------------
Label_01688D3F:
 .byte   N01 ,En5 ,v100
 .byte   W48
 .byte   Fs5
 .byte   W12
 .byte   En5
 .byte   W12
 .byte   Bn4
 .byte   W12
 .byte   Fs5
 .byte   W12
 .byte   PEND 
@  #14 @027   ----------------------------------------
 .byte   PATT
  .word Label_01688CFD
@  #14 @028   ----------------------------------------
 .byte   PATT
  .word Label_01688D0A
@  #14 @029   ----------------------------------------
 .byte   PATT
  .word Label_01688D16
@  #14 @030   ----------------------------------------
 .byte   PATT
  .word Label_01688D0A
@  #14 @031   ----------------------------------------
 .byte   PATT
  .word Label_01688D16
@  #14 @032   ----------------------------------------
 .byte   PATT
  .word Label_01688D0A
@  #14 @033   ----------------------------------------
 .byte   N01 ,En5 ,v100
 .byte   W24
 .byte   Bn4
 .byte   W72
@  #14 @034   ----------------------------------------
 .byte   W96
@  #14 @035   ----------------------------------------
 .byte   W96
@  #14 @036   ----------------------------------------
 .byte   W96
@  #14 @037   ----------------------------------------
 .byte   W96
@  #14 @038   ----------------------------------------
 .byte   W96
@  #14 @039   ----------------------------------------
 .byte   W96
@  #14 @040   ----------------------------------------
 .byte   W96
@  #14 @041   ----------------------------------------
 .byte   W96
@  #14 @042   ----------------------------------------
 .byte   W96
@  #14 @043   ----------------------------------------
 .byte   W96
@  #14 @044   ----------------------------------------
 .byte   W96
@  #14 @045   ----------------------------------------
 .byte   W96
@  #14 @046   ----------------------------------------
 .byte   W96
@  #14 @047   ----------------------------------------
 .byte   W96
@  #14 @048   ----------------------------------------
 .byte   W96
@  #14 @049   ----------------------------------------
 .byte   W96
@  #14 @050   ----------------------------------------
 .byte   W96
@  #14 @051   ----------------------------------------
 .byte   W96
@  #14 @052   ----------------------------------------
 .byte   W96
@  #14 @053   ----------------------------------------
 .byte   W96
@  #14 @054   ----------------------------------------
 .byte   PATT
  .word Label_01688D0A
@  #14 @055   ----------------------------------------
 .byte   PATT
  .word Label_01688CFD
@  #14 @056   ----------------------------------------
 .byte   PATT
  .word Label_01688D0A
@  #14 @057   ----------------------------------------
 .byte   PATT
  .word Label_01688D16
@  #14 @058   ----------------------------------------
 .byte   PATT
  .word Label_01688D0A
@  #14 @059   ----------------------------------------
 .byte   PATT
  .word Label_01688D16
@  #14 @060   ----------------------------------------
 .byte   PATT
  .word Label_01688D0A
@  #14 @061   ----------------------------------------
 .byte   PATT
  .word Label_01688D32
@  #14 @062   ----------------------------------------
 .byte   PATT
  .word Label_01688D3F
@  #14 @063   ----------------------------------------
 .byte   PATT
  .word Label_01688CFD
@  #14 @064   ----------------------------------------
 .byte   PATT
  .word Label_01688D0A
@  #14 @065   ----------------------------------------
 .byte   PATT
  .word Label_01688D16
@  #14 @066   ----------------------------------------
 .byte   PATT
  .word Label_01688D0A
@  #14 @067   ----------------------------------------
 .byte   N01 ,En5 ,v100
 .byte   W12
 .byte   Bn4
 .byte   W12
 .byte   Fs5
 .byte   W24
 .byte   En5
 .byte   W24
 .byte   Bn4
 .byte   W24
@  #14 @068   ----------------------------------------
 .byte   PATT
  .word Label_01688D0A
@  #14 @069   ----------------------------------------
 .byte   N01 ,En5 ,v100
 .byte   W24
 .byte   An5
 .byte   W72
@  #14 @070   ----------------------------------------
 .byte   PATT
  .word Label_01688D0A
@  #14 @071   ----------------------------------------
 .byte   PATT
  .word Label_01688CFD
@  #14 @072   ----------------------------------------
 .byte   PATT
  .word Label_01688D0A
@  #14 @073   ----------------------------------------
 .byte   PATT
  .word Label_01688D16
@  #14 @074   ----------------------------------------
 .byte   PATT
  .word Label_01688D0A
@  #14 @075   ----------------------------------------
 .byte   PATT
  .word Label_01688D16
@  #14 @076   ----------------------------------------
 .byte   PATT
  .word Label_01688D0A
@  #14 @077   ----------------------------------------
 .byte   PATT
  .word Label_01688D32
@  #14 @078   ----------------------------------------
 .byte   PATT
  .word Label_01688D3F
@  #14 @079   ----------------------------------------
 .byte   PATT
  .word Label_01688CFD
@  #14 @080   ----------------------------------------
 .byte   PATT
  .word Label_01688D0A
@  #14 @081   ----------------------------------------
 .byte   PATT
  .word Label_01688D16
@  #14 @082   ----------------------------------------
 .byte   PATT
  .word Label_01688D0A
@  #14 @083   ----------------------------------------
 .byte   PATT
  .word Label_01688CFD
@  #14 @084   ----------------------------------------
 .byte   PATT
  .word Label_01688D0A
@  #14 @085   ----------------------------------------
 .byte   N01 ,En5 ,v100
 .byte   W24
 .byte   Fs5
 .byte   W72
@  #14 @086   ----------------------------------------
 .byte   W96
@  #14 @087   ----------------------------------------
 .byte   W96
@  #14 @088   ----------------------------------------
 .byte   W24
 .byte   GOTO
  .word Label_01688CF2
 .byte   FINE

@**************** Track 15 (Midi-Chn.14) ****************@

PokemonMysteryDungeonExplorersofSkyInTheMorningSun_015:
@  #15 @000   ----------------------------------------
 .byte   KEYSH , PokemonMysteryDungeonExplorersofSkyInTheMorningSun_key+0
 .byte   VOICE , 73
 .byte   MODT 0
 .byte   LFOS 44
 .byte   PAN , c_v+48
 .byte   VOL , 14*PokemonMysteryDungeonExplorersofSkyInTheMorningSun_mvl/mxv
 .byte   W96
@  #15 @001   ----------------------------------------
 .byte   W96
@  #15 @002   ----------------------------------------
 .byte   W96
@  #15 @003   ----------------------------------------
 .byte   W96
@  #15 @004   ----------------------------------------
 .byte   W96
@  #15 @005   ----------------------------------------
 .byte   W96
@  #15 @006   ----------------------------------------
Label_01688E4A:
 .byte   W24
 .byte   VOL , 14*PokemonMysteryDungeonExplorersofSkyInTheMorningSun_mvl/mxv
 .byte   BEND , c_v+0
 .byte   W72
 .byte   PEND 
@  #15 @007   ----------------------------------------
 .byte   W36
 .byte   VOL , 14*PokemonMysteryDungeonExplorersofSkyInTheMorningSun_mvl/mxv
 .byte   W60
@  #15 @008   ----------------------------------------
Label_01688E55:
 .byte   W12
 .byte   N24 ,Dn4 ,v080
 .byte   W24
 .byte   N36 ,An4
 .byte   W36
 .byte   N12 ,An4 ,v024
 .byte   W12
 .byte   N24 ,An4 ,v080
 .byte   W12
 .byte   PEND 
@  #15 @009   ----------------------------------------
Label_01688E66:
 .byte   W12
 .byte   N12 ,Bn4 ,v080
 .byte   W12
 .byte   N36 ,An4
 .byte   W36
 .byte   N12
 .byte   W12
 .byte   An4 ,v032
 .byte   W12
 .byte   N48 ,Gn4 ,v080
 .byte   W12
 .byte   PEND 
@  #15 @010   ----------------------------------------
Label_01688E78:
 .byte   W36
 .byte   N42 ,Fs4 ,v080
 .byte   W42
 .byte   W01
 .byte   N05 ,Fs4 ,v028
 .byte   W05
 .byte   N36 ,Bn4 ,v080
 .byte   W12
 .byte   PEND 
@  #15 @011   ----------------------------------------
Label_01688E87:
 .byte   W24
 .byte   N12 ,Bn4 ,v024
 .byte   W12
 .byte   N36 ,Dn5 ,v080
 .byte   W36
 .byte   N12 ,Dn5 ,v028
 .byte   W12
 .byte   N36 ,En5 ,v080
 .byte   W12
 .byte   PEND 
@  #15 @012   ----------------------------------------
Label_01688E99:
 .byte   W24
 .byte   N12 ,En5 ,v024
 .byte   W12
 .byte   N60 ,Fs5 ,v080
 .byte   W60
 .byte   PEND 
@  #15 @013   ----------------------------------------
Label_01688EA3:
 .byte   N12 ,Fs5 ,v024
 .byte   W12
 .byte   N06 ,En5 ,v080
 .byte   W06
 .byte   En5 ,v020
 .byte   W06
 .byte   N84 ,En5 ,v080
 .byte   W72
 .byte   PEND 
@  #15 @014   ----------------------------------------
Label_01688EB3:
 .byte   W12
 .byte   N12 ,En5 ,v036
 .byte   W12
 .byte   En5 ,v016
 .byte   W12
 .byte   N60 ,Fs5 ,v080
 .byte   W60
 .byte   PEND 
@  #15 @015   ----------------------------------------
 .byte   PATT
  .word Label_01688EA3
@  #15 @016   ----------------------------------------
Label_01688EC5:
 .byte   W12
 .byte   N12 ,En5 ,v028
 .byte   W12
 .byte   En5 ,v012
 .byte   W12
 .byte   TIE ,An5 ,v080
 .byte   W42
 .byte   VOL , 13*PokemonMysteryDungeonExplorersofSkyInTheMorningSun_mvl/mxv
 .byte   W06
 .byte   VOL , 13*PokemonMysteryDungeonExplorersofSkyInTheMorningSun_mvl/mxv
 .byte   W06
 .byte   VOL , 11*PokemonMysteryDungeonExplorersofSkyInTheMorningSun_mvl/mxv
 .byte   W06
 .byte   PEND 
@  #15 @017   ----------------------------------------
Label_01688ED9:
 .byte   VOL , 11*PokemonMysteryDungeonExplorersofSkyInTheMorningSun_mvl/mxv
 .byte   W06
 .byte   VOL , 10*PokemonMysteryDungeonExplorersofSkyInTheMorningSun_mvl/mxv
 .byte   W06
 .byte   VOL , 10*PokemonMysteryDungeonExplorersofSkyInTheMorningSun_mvl/mxv
 .byte   W06
 .byte   VOL , 8*PokemonMysteryDungeonExplorersofSkyInTheMorningSun_mvl/mxv
 .byte   W06
 .byte   VOL , 8*PokemonMysteryDungeonExplorersofSkyInTheMorningSun_mvl/mxv
 .byte   W06
 .byte   VOL , 7*PokemonMysteryDungeonExplorersofSkyInTheMorningSun_mvl/mxv
 .byte   W06
 .byte   VOL , 6*PokemonMysteryDungeonExplorersofSkyInTheMorningSun_mvl/mxv
 .byte   W06
 .byte   VOL , 6*PokemonMysteryDungeonExplorersofSkyInTheMorningSun_mvl/mxv
 .byte   W06
 .byte   VOL , 5*PokemonMysteryDungeonExplorersofSkyInTheMorningSun_mvl/mxv
 .byte   W06
 .byte   VOL , 5*PokemonMysteryDungeonExplorersofSkyInTheMorningSun_mvl/mxv
 .byte   W06
 .byte   VOL , 4*PokemonMysteryDungeonExplorersofSkyInTheMorningSun_mvl/mxv
 .byte   W06
 .byte   VOL , 3*PokemonMysteryDungeonExplorersofSkyInTheMorningSun_mvl/mxv
 .byte   W06
 .byte   VOL , 3*PokemonMysteryDungeonExplorersofSkyInTheMorningSun_mvl/mxv
 .byte   W06
 .byte   VOL , 2*PokemonMysteryDungeonExplorersofSkyInTheMorningSun_mvl/mxv
 .byte   W06
 .byte   PEND 
 .byte   EOT
 .byte   An5
 .byte   VOL , 2*PokemonMysteryDungeonExplorersofSkyInTheMorningSun_mvl/mxv
 .byte   W12
@  #15 @018   ----------------------------------------
 .byte   W24
Label_01688EFD:
 .byte   W30
 .byte   VOL , 14*PokemonMysteryDungeonExplorersofSkyInTheMorningSun_mvl/mxv
 .byte   W42
@  #15 @019   ----------------------------------------
 .byte   W96
@  #15 @020   ----------------------------------------
 .byte   W96
@  #15 @021   ----------------------------------------
 .byte   W96
@  #15 @022   ----------------------------------------
 .byte   W96
@  #15 @023   ----------------------------------------
 .byte   W96
@  #15 @024   ----------------------------------------
 .byte   W96
@  #15 @025   ----------------------------------------
 .byte   W96
@  #15 @026   ----------------------------------------
 .byte   W96
@  #15 @027   ----------------------------------------
 .byte   W96
@  #15 @028   ----------------------------------------
 .byte   W96
@  #15 @029   ----------------------------------------
 .byte   W96
@  #15 @030   ----------------------------------------
 .byte   W96
@  #15 @031   ----------------------------------------
 .byte   W96
@  #15 @032   ----------------------------------------
 .byte   W96
@  #15 @033   ----------------------------------------
 .byte   W96
@  #15 @034   ----------------------------------------
 .byte   W96
@  #15 @035   ----------------------------------------
 .byte   W96
@  #15 @036   ----------------------------------------
 .byte   W96
@  #15 @037   ----------------------------------------
 .byte   W96
@  #15 @038   ----------------------------------------
 .byte   W96
@  #15 @039   ----------------------------------------
 .byte   W96
@  #15 @040   ----------------------------------------
 .byte   W96
@  #15 @041   ----------------------------------------
 .byte   W36
 .byte   VOL , 14*PokemonMysteryDungeonExplorersofSkyInTheMorningSun_mvl/mxv
 .byte   W48
 .byte   N12 ,Gn4 ,v127
 .byte   W12
@  #15 @042   ----------------------------------------
 .byte   An4
 .byte   W12
 .byte   As4
 .byte   W12
 .byte   Cn5
 .byte   W12
 .byte   Dn5
 .byte   W12
 .byte   Dn5 ,v060
 .byte   W12
 .byte   As4 ,v127
 .byte   W12
 .byte   N36
 .byte   W24
@  #15 @043   ----------------------------------------
 .byte   W12
 .byte   N24 ,As4 ,v060
 .byte   W24
 .byte   N12 ,Fn5 ,v127
 .byte   W12
 .byte   Fn5 ,v060
 .byte   W12
 .byte   Cn5 ,v127
 .byte   W12
 .byte   N36
 .byte   W24
@  #15 @044   ----------------------------------------
 .byte   W12
 .byte   N24 ,Cn5 ,v060
 .byte   W24
 .byte   Gn5 ,v127
 .byte   W24
 .byte   N12 ,Dn5
 .byte   W12
 .byte   N24
 .byte   W24
@  #15 @045   ----------------------------------------
 .byte   N12 ,Cn5
 .byte   W12
 .byte   Cn5 ,v060
 .byte   W12
 .byte   N60 ,Dn5 ,v127
 .byte   W24
 .byte   VOL , 14*PokemonMysteryDungeonExplorersofSkyInTheMorningSun_mvl/mxv
 .byte   W06
 .byte   VOL , 13*PokemonMysteryDungeonExplorersofSkyInTheMorningSun_mvl/mxv
 .byte   W06
 .byte   VOL , 11*PokemonMysteryDungeonExplorersofSkyInTheMorningSun_mvl/mxv
 .byte   W06
 .byte   VOL , 10*PokemonMysteryDungeonExplorersofSkyInTheMorningSun_mvl/mxv
 .byte   W06
 .byte   VOL , 10*PokemonMysteryDungeonExplorersofSkyInTheMorningSun_mvl/mxv
 .byte   W06
 .byte   VOL , 8*PokemonMysteryDungeonExplorersofSkyInTheMorningSun_mvl/mxv
 .byte   W06
 .byte   VOL , 8*PokemonMysteryDungeonExplorersofSkyInTheMorningSun_mvl/mxv
 .byte   N24 ,Dn5 ,v060
 .byte   W06
 .byte   VOL , 6*PokemonMysteryDungeonExplorersofSkyInTheMorningSun_mvl/mxv
 .byte   W06
@  #15 @046   ----------------------------------------
 .byte   VOL , 6*PokemonMysteryDungeonExplorersofSkyInTheMorningSun_mvl/mxv
 .byte   W06
 .byte   VOL , 5*PokemonMysteryDungeonExplorersofSkyInTheMorningSun_mvl/mxv
 .byte   W06
 .byte   VOL , 14*PokemonMysteryDungeonExplorersofSkyInTheMorningSun_mvl/mxv
 .byte   N24 ,Dn5 ,v127
 .byte   W24
 .byte   TIE ,Ds5
 .byte   W42
 .byte   VOL , 13*PokemonMysteryDungeonExplorersofSkyInTheMorningSun_mvl/mxv
 .byte   W06
 .byte   VOL , 13*PokemonMysteryDungeonExplorersofSkyInTheMorningSun_mvl/mxv
 .byte   W06
 .byte   VOL , 13*PokemonMysteryDungeonExplorersofSkyInTheMorningSun_mvl/mxv
 .byte   W06
@  #15 @047   ----------------------------------------
 .byte   VOL , 13*PokemonMysteryDungeonExplorersofSkyInTheMorningSun_mvl/mxv
 .byte   W06
 .byte   VOL , 13*PokemonMysteryDungeonExplorersofSkyInTheMorningSun_mvl/mxv
 .byte   W12
 .byte   VOL , 13*PokemonMysteryDungeonExplorersofSkyInTheMorningSun_mvl/mxv
 .byte   W06
 .byte   VOL , 12*PokemonMysteryDungeonExplorersofSkyInTheMorningSun_mvl/mxv
 .byte   W06
 .byte   VOL , 12*PokemonMysteryDungeonExplorersofSkyInTheMorningSun_mvl/mxv
 .byte   W06
 .byte   VOL , 11*PokemonMysteryDungeonExplorersofSkyInTheMorningSun_mvl/mxv
 .byte   W06
 .byte   VOL , 11*PokemonMysteryDungeonExplorersofSkyInTheMorningSun_mvl/mxv
 .byte   W06
 .byte   VOL , 11*PokemonMysteryDungeonExplorersofSkyInTheMorningSun_mvl/mxv
 .byte   W06
 .byte   VOL , 11*PokemonMysteryDungeonExplorersofSkyInTheMorningSun_mvl/mxv
 .byte   W06
 .byte   VOL , 11*PokemonMysteryDungeonExplorersofSkyInTheMorningSun_mvl/mxv
 .byte   W06
 .byte   VOL , 11*PokemonMysteryDungeonExplorersofSkyInTheMorningSun_mvl/mxv
 .byte   W06
 .byte   VOL , 11*PokemonMysteryDungeonExplorersofSkyInTheMorningSun_mvl/mxv
 .byte   W12
 .byte   VOL , 11*PokemonMysteryDungeonExplorersofSkyInTheMorningSun_mvl/mxv
 .byte   W06
 .byte   VOL , 10*PokemonMysteryDungeonExplorersofSkyInTheMorningSun_mvl/mxv
 .byte   W06
@  #15 @048   ----------------------------------------
 .byte   VOL , 10*PokemonMysteryDungeonExplorersofSkyInTheMorningSun_mvl/mxv
 .byte   W06
 .byte   VOL , 10*PokemonMysteryDungeonExplorersofSkyInTheMorningSun_mvl/mxv
 .byte   W06
 .byte   VOL , 10*PokemonMysteryDungeonExplorersofSkyInTheMorningSun_mvl/mxv
 .byte   W06
 .byte   VOL , 10*PokemonMysteryDungeonExplorersofSkyInTheMorningSun_mvl/mxv
 .byte   W06
 .byte   VOL , 10*PokemonMysteryDungeonExplorersofSkyInTheMorningSun_mvl/mxv
 .byte   W06
 .byte   VOL , 10*PokemonMysteryDungeonExplorersofSkyInTheMorningSun_mvl/mxv
 .byte   W06
 .byte   VOL , 10*PokemonMysteryDungeonExplorersofSkyInTheMorningSun_mvl/mxv
 .byte   W12
 .byte   VOL , 10*PokemonMysteryDungeonExplorersofSkyInTheMorningSun_mvl/mxv
 .byte   W06
 .byte   VOL , 9*PokemonMysteryDungeonExplorersofSkyInTheMorningSun_mvl/mxv
 .byte   W06
 .byte   VOL , 9*PokemonMysteryDungeonExplorersofSkyInTheMorningSun_mvl/mxv
 .byte   W06
 .byte   VOL , 9*PokemonMysteryDungeonExplorersofSkyInTheMorningSun_mvl/mxv
 .byte   W06
 .byte   VOL , 9*PokemonMysteryDungeonExplorersofSkyInTheMorningSun_mvl/mxv
 .byte   W06
 .byte   VOL , 10*PokemonMysteryDungeonExplorersofSkyInTheMorningSun_mvl/mxv
 .byte   W06
 .byte   VOL , 10*PokemonMysteryDungeonExplorersofSkyInTheMorningSun_mvl/mxv
 .byte   W06
 .byte   VOL , 10*PokemonMysteryDungeonExplorersofSkyInTheMorningSun_mvl/mxv
 .byte   W06
@  #15 @049   ----------------------------------------
 .byte   VOL , 11*PokemonMysteryDungeonExplorersofSkyInTheMorningSun_mvl/mxv
 .byte   W06
 .byte   VOL , 11*PokemonMysteryDungeonExplorersofSkyInTheMorningSun_mvl/mxv
 .byte   W06
 .byte   EOT
 .byte   VOL , 11*PokemonMysteryDungeonExplorersofSkyInTheMorningSun_mvl/mxv
 .byte   N24 ,Ds5 ,v060
 .byte   W06
 .byte   VOL , 13*PokemonMysteryDungeonExplorersofSkyInTheMorningSun_mvl/mxv
 .byte   W06
 .byte   VOL , 13*PokemonMysteryDungeonExplorersofSkyInTheMorningSun_mvl/mxv
 .byte   W12
 .byte   N24 ,Ds5 ,v127
 .byte   W24
 .byte   N12 ,Dn5
 .byte   W12
 .byte   Cn5
 .byte   W12
 .byte   Cn5 ,v060
 .byte   W12
@  #15 @050   ----------------------------------------
 .byte   Ds5 ,v127
 .byte   W12
 .byte   Ds5 ,v060
 .byte   W12
 .byte   TIE ,Dn5 ,v127
 .byte   W24
 .byte   VOL , 13*PokemonMysteryDungeonExplorersofSkyInTheMorningSun_mvl/mxv
 .byte   W12
 .byte   VOL , 13*PokemonMysteryDungeonExplorersofSkyInTheMorningSun_mvl/mxv
 .byte   W12
 .byte   VOL , 13*PokemonMysteryDungeonExplorersofSkyInTheMorningSun_mvl/mxv
 .byte   W06
 .byte   VOL , 13*PokemonMysteryDungeonExplorersofSkyInTheMorningSun_mvl/mxv
 .byte   W18
@  #15 @051   ----------------------------------------
 .byte   VOL , 13*PokemonMysteryDungeonExplorersofSkyInTheMorningSun_mvl/mxv
 .byte   W12
 .byte   VOL , 12*PokemonMysteryDungeonExplorersofSkyInTheMorningSun_mvl/mxv
 .byte   W06
 .byte   VOL , 12*PokemonMysteryDungeonExplorersofSkyInTheMorningSun_mvl/mxv
 .byte   W12
 .byte   VOL , 11*PokemonMysteryDungeonExplorersofSkyInTheMorningSun_mvl/mxv
 .byte   W12
 .byte   VOL , 11*PokemonMysteryDungeonExplorersofSkyInTheMorningSun_mvl/mxv
 .byte   W12
 .byte   VOL , 11*PokemonMysteryDungeonExplorersofSkyInTheMorningSun_mvl/mxv
 .byte   W12
 .byte   VOL , 11*PokemonMysteryDungeonExplorersofSkyInTheMorningSun_mvl/mxv
 .byte   W06
 .byte   VOL , 11*PokemonMysteryDungeonExplorersofSkyInTheMorningSun_mvl/mxv
 .byte   W12
 .byte   VOL , 11*PokemonMysteryDungeonExplorersofSkyInTheMorningSun_mvl/mxv
 .byte   W12
@  #15 @052   ----------------------------------------
 .byte   W30
 .byte   VOL , 11*PokemonMysteryDungeonExplorersofSkyInTheMorningSun_mvl/mxv
 .byte   W06
 .byte   VOL , 10*PokemonMysteryDungeonExplorersofSkyInTheMorningSun_mvl/mxv
 .byte   W06
 .byte   VOL , 10*PokemonMysteryDungeonExplorersofSkyInTheMorningSun_mvl/mxv
 .byte   W06
 .byte   VOL , 10*PokemonMysteryDungeonExplorersofSkyInTheMorningSun_mvl/mxv
 .byte   W06
 .byte   VOL , 9*PokemonMysteryDungeonExplorersofSkyInTheMorningSun_mvl/mxv
 .byte   W06
 .byte   VOL , 8*PokemonMysteryDungeonExplorersofSkyInTheMorningSun_mvl/mxv
 .byte   W06
 .byte   VOL , 8*PokemonMysteryDungeonExplorersofSkyInTheMorningSun_mvl/mxv
 .byte   W06
 .byte   VOL , 8*PokemonMysteryDungeonExplorersofSkyInTheMorningSun_mvl/mxv
 .byte   W06
 .byte   VOL , 8*PokemonMysteryDungeonExplorersofSkyInTheMorningSun_mvl/mxv
 .byte   W06
 .byte   VOL , 7*PokemonMysteryDungeonExplorersofSkyInTheMorningSun_mvl/mxv
 .byte   W06
 .byte   VOL , 6*PokemonMysteryDungeonExplorersofSkyInTheMorningSun_mvl/mxv
 .byte   W06
@  #15 @053   ----------------------------------------
 .byte   VOL , 6*PokemonMysteryDungeonExplorersofSkyInTheMorningSun_mvl/mxv
 .byte   W06
 .byte   VOL , 6*PokemonMysteryDungeonExplorersofSkyInTheMorningSun_mvl/mxv
 .byte   W06
 .byte   VOL , 6*PokemonMysteryDungeonExplorersofSkyInTheMorningSun_mvl/mxv
 .byte   W06
 .byte   VOL , 5*PokemonMysteryDungeonExplorersofSkyInTheMorningSun_mvl/mxv
 .byte   W06
 .byte   VOL , 5*PokemonMysteryDungeonExplorersofSkyInTheMorningSun_mvl/mxv
 .byte   W12
 .byte   EOT
 .byte   W60
@  #15 @054   ----------------------------------------
 .byte   W12
 .byte   VOL , 14*PokemonMysteryDungeonExplorersofSkyInTheMorningSun_mvl/mxv
 .byte   N12 ,Bn3
 .byte   W12
 .byte   Bn3 ,v060
 .byte   W12
 .byte   N36 ,Fs4 ,v127
 .byte   W36
 .byte   N12 ,Fs4 ,v060
 .byte   W12
 .byte   Fs4 ,v127
 .byte   W12
@  #15 @055   ----------------------------------------
Label_01689030:
 .byte   N12 ,Fs4 ,v060
 .byte   W12
 .byte   Gn4 ,v127
 .byte   W12
 .byte   N48 ,An4
 .byte   W48
 .byte   N12 ,An4 ,v060
 .byte   W12
 .byte   An4 ,v127
 .byte   W12
 .byte   PEND 
@  #15 @056   ----------------------------------------
 .byte   An4 ,v060
 .byte   W12
 .byte   Cs5 ,v127
 .byte   W12
 .byte   TIE ,Dn5
 .byte   W54
 .byte   VOL , 13*PokemonMysteryDungeonExplorersofSkyInTheMorningSun_mvl/mxv
 .byte   W06
 .byte   VOL , 13*PokemonMysteryDungeonExplorersofSkyInTheMorningSun_mvl/mxv
 .byte   W06
 .byte   VOL , 11*PokemonMysteryDungeonExplorersofSkyInTheMorningSun_mvl/mxv
 .byte   W06
@  #15 @057   ----------------------------------------
 .byte   VOL , 11*PokemonMysteryDungeonExplorersofSkyInTheMorningSun_mvl/mxv
 .byte   W06
 .byte   VOL , 11*PokemonMysteryDungeonExplorersofSkyInTheMorningSun_mvl/mxv
 .byte   W06
 .byte   VOL , 10*PokemonMysteryDungeonExplorersofSkyInTheMorningSun_mvl/mxv
 .byte   W06
 .byte   VOL , 10*PokemonMysteryDungeonExplorersofSkyInTheMorningSun_mvl/mxv
 .byte   W06
 .byte   VOL , 9*PokemonMysteryDungeonExplorersofSkyInTheMorningSun_mvl/mxv
 .byte   W06
 .byte   VOL , 8*PokemonMysteryDungeonExplorersofSkyInTheMorningSun_mvl/mxv
 .byte   W06
 .byte   VOL , 8*PokemonMysteryDungeonExplorersofSkyInTheMorningSun_mvl/mxv
 .byte   W06
 .byte   VOL , 8*PokemonMysteryDungeonExplorersofSkyInTheMorningSun_mvl/mxv
 .byte   W06
 .byte   VOL , 6*PokemonMysteryDungeonExplorersofSkyInTheMorningSun_mvl/mxv
 .byte   W06
 .byte   VOL , 6*PokemonMysteryDungeonExplorersofSkyInTheMorningSun_mvl/mxv
 .byte   W06
 .byte   VOL , 6*PokemonMysteryDungeonExplorersofSkyInTheMorningSun_mvl/mxv
 .byte   W06
 .byte   VOL , 6*PokemonMysteryDungeonExplorersofSkyInTheMorningSun_mvl/mxv
 .byte   W06
 .byte   VOL , 5*PokemonMysteryDungeonExplorersofSkyInTheMorningSun_mvl/mxv
 .byte   W06
 .byte   VOL , 5*PokemonMysteryDungeonExplorersofSkyInTheMorningSun_mvl/mxv
 .byte   W06
 .byte   EOT
 .byte   VOL , 4*PokemonMysteryDungeonExplorersofSkyInTheMorningSun_mvl/mxv
 .byte   N24 ,Dn5 ,v060
 .byte   W12
@  #15 @058   ----------------------------------------
 .byte   W12
 .byte   VOL , 14*PokemonMysteryDungeonExplorersofSkyInTheMorningSun_mvl/mxv
 .byte   N12 ,Bn4 ,v127
 .byte   W12
 .byte   Bn4 ,v060
 .byte   W12
 .byte   N24 ,Fs5 ,v127
 .byte   W24
 .byte   N12 ,En5
 .byte   W12
 .byte   N24
 .byte   W24
@  #15 @059   ----------------------------------------
 .byte   N12 ,En5 ,v060
 .byte   W12
 .byte   Bn4 ,v127
 .byte   W24
 .byte   N24 ,Fs5
 .byte   W24
 .byte   N12 ,En5
 .byte   W12
 .byte   N24
 .byte   W24
@  #15 @060   ----------------------------------------
 .byte   N12 ,En5 ,v060
 .byte   W12
 .byte   Bn4 ,v127
 .byte   W24
 .byte   N24 ,Gn5
 .byte   W24
 .byte   N12 ,Fs5
 .byte   W12
 .byte   N24
 .byte   W24
@  #15 @061   ----------------------------------------
 .byte   N12 ,En5
 .byte   W12
 .byte   En5 ,v060
 .byte   W12
 .byte   N60 ,Fs5 ,v127
 .byte   W30
 .byte   VOL , 13*PokemonMysteryDungeonExplorersofSkyInTheMorningSun_mvl/mxv
 .byte   W03
 .byte   VOL , 13*PokemonMysteryDungeonExplorersofSkyInTheMorningSun_mvl/mxv
 .byte   W03
 .byte   VOL , 12*PokemonMysteryDungeonExplorersofSkyInTheMorningSun_mvl/mxv
 .byte   W03
 .byte   VOL , 11*PokemonMysteryDungeonExplorersofSkyInTheMorningSun_mvl/mxv
 .byte   W03
 .byte   VOL , 11*PokemonMysteryDungeonExplorersofSkyInTheMorningSun_mvl/mxv
 .byte   W03
 .byte   VOL , 10*PokemonMysteryDungeonExplorersofSkyInTheMorningSun_mvl/mxv
 .byte   W03
 .byte   VOL , 10*PokemonMysteryDungeonExplorersofSkyInTheMorningSun_mvl/mxv
 .byte   W03
 .byte   VOL , 9*PokemonMysteryDungeonExplorersofSkyInTheMorningSun_mvl/mxv
 .byte   W03
 .byte   VOL , 8*PokemonMysteryDungeonExplorersofSkyInTheMorningSun_mvl/mxv
 .byte   W03
 .byte   VOL , 8*PokemonMysteryDungeonExplorersofSkyInTheMorningSun_mvl/mxv
 .byte   W03
 .byte   VOL , 7*PokemonMysteryDungeonExplorersofSkyInTheMorningSun_mvl/mxv
 .byte   N24 ,Fs5 ,v060
 .byte   W03
 .byte   VOL , 6*PokemonMysteryDungeonExplorersofSkyInTheMorningSun_mvl/mxv
 .byte   W03
 .byte   VOL , 6*PokemonMysteryDungeonExplorersofSkyInTheMorningSun_mvl/mxv
 .byte   W03
 .byte   VOL , 6*PokemonMysteryDungeonExplorersofSkyInTheMorningSun_mvl/mxv
 .byte   W03
@  #15 @062   ----------------------------------------
 .byte   VOL , 5*PokemonMysteryDungeonExplorersofSkyInTheMorningSun_mvl/mxv
 .byte   W03
 .byte   VOL , 5*PokemonMysteryDungeonExplorersofSkyInTheMorningSun_mvl/mxv
 .byte   W09
 .byte   VOL , 14*PokemonMysteryDungeonExplorersofSkyInTheMorningSun_mvl/mxv
 .byte   N12 ,Bn3 ,v127
 .byte   W12
 .byte   Bn3 ,v060
 .byte   W12
 .byte   N36 ,Fs4 ,v127
 .byte   W36
 .byte   N12 ,Fs4 ,v060
 .byte   W12
 .byte   Fs4 ,v127
 .byte   W12
@  #15 @063   ----------------------------------------
 .byte   PATT
  .word Label_01689030
@  #15 @064   ----------------------------------------
 .byte   N12 ,An4 ,v060
 .byte   W12
 .byte   Cs5 ,v127
 .byte   W12
 .byte   N60 ,Dn5
 .byte   W60
 .byte   N12 ,Cs5
 .byte   W12
@  #15 @065   ----------------------------------------
 .byte   Cs5 ,v060
 .byte   W12
 .byte   Dn5 ,v127
 .byte   W12
 .byte   N60 ,Fs5
 .byte   W60
 .byte   N24 ,Fs5 ,v060
 .byte   W12
@  #15 @066   ----------------------------------------
 .byte   W12
 .byte   N12 ,Bn4 ,v127
 .byte   W24
 .byte   N24 ,Fs5
 .byte   W24
 .byte   N12 ,En5
 .byte   W12
 .byte   N24
 .byte   W24
@  #15 @067   ----------------------------------------
 .byte   N12 ,En5 ,v060
 .byte   W12
 .byte   Bn4 ,v127
 .byte   W12
 .byte   Bn4 ,v060
 .byte   W12
 .byte   N24 ,Fs5 ,v127
 .byte   W24
 .byte   N12 ,En5
 .byte   W12
 .byte   N24
 .byte   W24
@  #15 @068   ----------------------------------------
 .byte   N12 ,Dn5
 .byte   W12
 .byte   Dn5 ,v060
 .byte   W12
 .byte   N84 ,En5 ,v127
 .byte   W36
 .byte   VOL , 14*PokemonMysteryDungeonExplorersofSkyInTheMorningSun_mvl/mxv
 .byte   W06
 .byte   VOL , 13*PokemonMysteryDungeonExplorersofSkyInTheMorningSun_mvl/mxv
 .byte   W06
 .byte   VOL , 11*PokemonMysteryDungeonExplorersofSkyInTheMorningSun_mvl/mxv
 .byte   W06
 .byte   VOL , 10*PokemonMysteryDungeonExplorersofSkyInTheMorningSun_mvl/mxv
 .byte   W06
 .byte   VOL , 10*PokemonMysteryDungeonExplorersofSkyInTheMorningSun_mvl/mxv
 .byte   W06
 .byte   VOL , 8*PokemonMysteryDungeonExplorersofSkyInTheMorningSun_mvl/mxv
 .byte   W06
@  #15 @069   ----------------------------------------
 .byte   VOL , 8*PokemonMysteryDungeonExplorersofSkyInTheMorningSun_mvl/mxv
 .byte   W06
 .byte   VOL , 6*PokemonMysteryDungeonExplorersofSkyInTheMorningSun_mvl/mxv
 .byte   W06
 .byte   VOL , 6*PokemonMysteryDungeonExplorersofSkyInTheMorningSun_mvl/mxv
 .byte   N24 ,En5 ,v060
 .byte   W06
 .byte   VOL , 5*PokemonMysteryDungeonExplorersofSkyInTheMorningSun_mvl/mxv
 .byte   W06
 .byte   VOL , 5*PokemonMysteryDungeonExplorersofSkyInTheMorningSun_mvl/mxv
 .byte   W06
 .byte   VOL , 4*PokemonMysteryDungeonExplorersofSkyInTheMorningSun_mvl/mxv
 .byte   W66
@  #15 @070   ----------------------------------------
 .byte   W96
@  #15 @071   ----------------------------------------
 .byte   W96
@  #15 @072   ----------------------------------------
 .byte   W96
@  #15 @073   ----------------------------------------
 .byte   W96
@  #15 @074   ----------------------------------------
 .byte   W96
@  #15 @075   ----------------------------------------
 .byte   W96
@  #15 @076   ----------------------------------------
 .byte   PATT
  .word Label_01688E4A
@  #15 @077   ----------------------------------------
 .byte   W36
 .byte   VOL , 14*PokemonMysteryDungeonExplorersofSkyInTheMorningSun_mvl/mxv
 .byte   W60
@  #15 @078   ----------------------------------------
 .byte   PATT
  .word Label_01688E55
@  #15 @079   ----------------------------------------
 .byte   PATT
  .word Label_01688E66
@  #15 @080   ----------------------------------------
 .byte   PATT
  .word Label_01688E78
@  #15 @081   ----------------------------------------
 .byte   PATT
  .word Label_01688E87
@  #15 @082   ----------------------------------------
 .byte   PATT
  .word Label_01688E99
@  #15 @083   ----------------------------------------
 .byte   PATT
  .word Label_01688EA3
@  #15 @084   ----------------------------------------
 .byte   PATT
  .word Label_01688EB3
@  #15 @085   ----------------------------------------
 .byte   PATT
  .word Label_01688EA3
@  #15 @086   ----------------------------------------
 .byte   PATT
  .word Label_01688EC5
@  #15 @087   ----------------------------------------
 .byte   PATT
  .word Label_01688ED9
@  #15 @088   ----------------------------------------
 .byte   EOT
 .byte   An5
 .byte   VOL , 2*PokemonMysteryDungeonExplorersofSkyInTheMorningSun_mvl/mxv
 .byte   W12
 .byte   W24
 .byte   GOTO
  .word Label_01688EFD
 .byte   FINE

@**************** Track 16 (Midi-Chn.15) ****************@

PokemonMysteryDungeonExplorersofSkyInTheMorningSun_016:
@  #16 @000   ----------------------------------------
 .byte   KEYSH , PokemonMysteryDungeonExplorersofSkyInTheMorningSun_key+0
 .byte   VOICE , 10
 .byte   MODT 0
 .byte   LFOS 44
 .byte   VOL , 7*PokemonMysteryDungeonExplorersofSkyInTheMorningSun_mvl/mxv
 .byte   PAN , c_v+63
 .byte   VOL , 7*PokemonMysteryDungeonExplorersofSkyInTheMorningSun_mvl/mxv
 .byte   BEND , c_v+0
 .byte   W48
 .byte   N05 ,Fs5 ,v068
 .byte   W12
 .byte   Fs5 ,v032
 .byte   W12
 .byte   Fs5 ,v012
 .byte   W12
 .byte   En5 ,v068
 .byte   W12
@  #16 @001   ----------------------------------------
Label_016891BA:
 .byte   N05 ,En5 ,v032
 .byte   W12
 .byte   En5 ,v012
 .byte   W24
 .byte   An5 ,v068
 .byte   W12
 .byte   An5 ,v032
 .byte   W12
 .byte   An5 ,v012
 .byte   W12
 .byte   An5 ,v056
 .byte   W12
 .byte   An5 ,v020
 .byte   W12
 .byte   PEND 
@  #16 @002   ----------------------------------------
Label_016891D1:
 .byte   N05 ,An5 ,v012
 .byte   W12
 .byte   An5 ,v040
 .byte   W12
 .byte   An5 ,v020
 .byte   W12
 .byte   An5 ,v012
 .byte   W12
 .byte   Fs5 ,v068
 .byte   N05 ,An5 ,v008
 .byte   W12
 .byte   Fs5 ,v032
 .byte   W12
 .byte   Fs5 ,v012
 .byte   W12
 .byte   En5 ,v068
 .byte   W12
 .byte   PEND 
@  #16 @003   ----------------------------------------
Label_016891EE:
 .byte   N05 ,En5 ,v032
 .byte   W12
 .byte   En5 ,v012
 .byte   W12
 .byte   An4 ,v068
 .byte   W12
 .byte   An4 ,v032
 .byte   W12
 .byte   An4 ,v012
 .byte   W12
 .byte   An4 ,v056
 .byte   W12
 .byte   An4 ,v020
 .byte   W12
 .byte   An4 ,v012
 .byte   W12
 .byte   PEND 
@  #16 @004   ----------------------------------------
 .byte   An4 ,v040
 .byte   W12
 .byte   An4 ,v020
 .byte   W12
 .byte   An4 ,v012
 .byte   W12
 .byte   An4 ,v008
 .byte   W12
 .byte   Fs5 ,v068
 .byte   W12
 .byte   Fs5 ,v032
 .byte   W12
 .byte   Fs5 ,v012
 .byte   W12
 .byte   En5 ,v068
 .byte   W12
@  #16 @005   ----------------------------------------
 .byte   PATT
  .word Label_016891BA
@  #16 @006   ----------------------------------------
 .byte   PATT
  .word Label_016891D1
@  #16 @007   ----------------------------------------
 .byte   PATT
  .word Label_016891EE
@  #16 @008   ----------------------------------------
 .byte   N05 ,An4 ,v040
 .byte   W12
 .byte   An4 ,v020
 .byte   W12
 .byte   An4 ,v012
 .byte   W12
 .byte   An4 ,v008
 .byte   W60
@  #16 @009   ----------------------------------------
 .byte   W96
@  #16 @010   ----------------------------------------
 .byte   W96
@  #16 @011   ----------------------------------------
 .byte   W96
@  #16 @012   ----------------------------------------
 .byte   W96
@  #16 @013   ----------------------------------------
 .byte   W96
@  #16 @014   ----------------------------------------
 .byte   W96
@  #16 @015   ----------------------------------------
 .byte   W96
@  #16 @016   ----------------------------------------
 .byte   W96
@  #16 @017   ----------------------------------------
 .byte   W96
@  #16 @018   ----------------------------------------
 .byte   W24
Label_01689246:
 .byte   W36
 .byte   N01 ,Fs5 ,v100
 .byte   W12
 .byte   En5
 .byte   W12
 .byte   Bn4
 .byte   W12
@  #16 @019   ----------------------------------------
Label_0168924F:
 .byte   N01 ,Fs5 ,v100
 .byte   W12
 .byte   En5
 .byte   W12
 .byte   Bn4
 .byte   W12
 .byte   Fs5
 .byte   W24
 .byte   En5
 .byte   W24
 .byte   An5
 .byte   W12
 .byte   PEND 
@  #16 @020   ----------------------------------------
Label_0168925E:
 .byte   W60
 .byte   N01 ,Fs5 ,v100
 .byte   W12
 .byte   En5
 .byte   W12
 .byte   Bn4
 .byte   W12
 .byte   PEND 
@  #16 @021   ----------------------------------------
Label_01689268:
 .byte   N01 ,Fs5 ,v100
 .byte   W12
 .byte   En5
 .byte   W12
 .byte   Bn4
 .byte   W12
 .byte   Fs5
 .byte   W24
 .byte   En5
 .byte   W24
 .byte   An4
 .byte   W12
 .byte   PEND 
@  #16 @022   ----------------------------------------
 .byte   PATT
  .word Label_0168925E
@  #16 @023   ----------------------------------------
 .byte   PATT
  .word Label_01689268
@  #16 @024   ----------------------------------------
 .byte   PATT
  .word Label_0168925E
@  #16 @025   ----------------------------------------
Label_01689286:
 .byte   N01 ,Fs5 ,v100
 .byte   W12
 .byte   En5
 .byte   W12
 .byte   Bn4
 .byte   W12
 .byte   An5
 .byte   W24
 .byte   Gn5
 .byte   W24
 .byte   Fs5
 .byte   W12
 .byte   PEND 
@  #16 @026   ----------------------------------------
Label_01689295:
 .byte   W12
 .byte   N01 ,En5 ,v100
 .byte   W48
 .byte   Fs5
 .byte   W12
 .byte   En5
 .byte   W12
 .byte   Bn4
 .byte   W12
 .byte   PEND 
@  #16 @027   ----------------------------------------
 .byte   PATT
  .word Label_0168924F
@  #16 @028   ----------------------------------------
 .byte   PATT
  .word Label_0168925E
@  #16 @029   ----------------------------------------
 .byte   PATT
  .word Label_01689268
@  #16 @030   ----------------------------------------
 .byte   PATT
  .word Label_0168925E
@  #16 @031   ----------------------------------------
 .byte   PATT
  .word Label_01689268
@  #16 @032   ----------------------------------------
 .byte   PATT
  .word Label_0168925E
@  #16 @033   ----------------------------------------
 .byte   N01 ,Fs5 ,v100
 .byte   W12
 .byte   En5
 .byte   W24
 .byte   Bn4
 .byte   W60
@  #16 @034   ----------------------------------------
 .byte   W96
@  #16 @035   ----------------------------------------
 .byte   W96
@  #16 @036   ----------------------------------------
 .byte   W96
@  #16 @037   ----------------------------------------
 .byte   W96
@  #16 @038   ----------------------------------------
 .byte   W96
@  #16 @039   ----------------------------------------
 .byte   W96
@  #16 @040   ----------------------------------------
 .byte   W96
@  #16 @041   ----------------------------------------
 .byte   W96
@  #16 @042   ----------------------------------------
 .byte   W96
@  #16 @043   ----------------------------------------
 .byte   W96
@  #16 @044   ----------------------------------------
 .byte   W96
@  #16 @045   ----------------------------------------
 .byte   W96
@  #16 @046   ----------------------------------------
 .byte   W96
@  #16 @047   ----------------------------------------
 .byte   W96
@  #16 @048   ----------------------------------------
 .byte   W96
@  #16 @049   ----------------------------------------
 .byte   W96
@  #16 @050   ----------------------------------------
 .byte   W96
@  #16 @051   ----------------------------------------
 .byte   W96
@  #16 @052   ----------------------------------------
 .byte   W96
@  #16 @053   ----------------------------------------
 .byte   W96
@  #16 @054   ----------------------------------------
 .byte   PATT
  .word Label_0168925E
@  #16 @055   ----------------------------------------
 .byte   PATT
  .word Label_0168924F
@  #16 @056   ----------------------------------------
 .byte   PATT
  .word Label_0168925E
@  #16 @057   ----------------------------------------
 .byte   PATT
  .word Label_01689268
@  #16 @058   ----------------------------------------
 .byte   PATT
  .word Label_0168925E
@  #16 @059   ----------------------------------------
 .byte   PATT
  .word Label_01689268
@  #16 @060   ----------------------------------------
 .byte   PATT
  .word Label_0168925E
@  #16 @061   ----------------------------------------
 .byte   PATT
  .word Label_01689286
@  #16 @062   ----------------------------------------
 .byte   PATT
  .word Label_01689295
@  #16 @063   ----------------------------------------
 .byte   PATT
  .word Label_0168924F
@  #16 @064   ----------------------------------------
 .byte   PATT
  .word Label_0168925E
@  #16 @065   ----------------------------------------
 .byte   PATT
  .word Label_01689268
@  #16 @066   ----------------------------------------
 .byte   PATT
  .word Label_0168925E
@  #16 @067   ----------------------------------------
 .byte   N01 ,Fs5 ,v100
 .byte   W12
 .byte   En5
 .byte   W12
 .byte   Bn4
 .byte   W12
 .byte   Fs5
 .byte   W24
 .byte   En5
 .byte   W24
 .byte   Bn4
 .byte   W12
@  #16 @068   ----------------------------------------
 .byte   PATT
  .word Label_0168925E
@  #16 @069   ----------------------------------------
 .byte   N01 ,Fs5 ,v100
 .byte   W12
 .byte   En5
 .byte   W24
 .byte   An5
 .byte   W60
@  #16 @070   ----------------------------------------
 .byte   PATT
  .word Label_0168925E
@  #16 @071   ----------------------------------------
 .byte   PATT
  .word Label_0168924F
@  #16 @072   ----------------------------------------
 .byte   PATT
  .word Label_0168925E
@  #16 @073   ----------------------------------------
 .byte   PATT
  .word Label_01689268
@  #16 @074   ----------------------------------------
 .byte   PATT
  .word Label_0168925E
@  #16 @075   ----------------------------------------
 .byte   PATT
  .word Label_01689268
@  #16 @076   ----------------------------------------
 .byte   PATT
  .word Label_0168925E
@  #16 @077   ----------------------------------------
 .byte   PATT
  .word Label_01689286
@  #16 @078   ----------------------------------------
 .byte   PATT
  .word Label_01689295
@  #16 @079   ----------------------------------------
 .byte   PATT
  .word Label_0168924F
@  #16 @080   ----------------------------------------
 .byte   PATT
  .word Label_0168925E
@  #16 @081   ----------------------------------------
 .byte   PATT
  .word Label_01689268
@  #16 @082   ----------------------------------------
 .byte   PATT
  .word Label_0168925E
@  #16 @083   ----------------------------------------
 .byte   PATT
  .word Label_0168924F
@  #16 @084   ----------------------------------------
 .byte   PATT
  .word Label_0168925E
@  #16 @085   ----------------------------------------
 .byte   N01 ,Fs5 ,v100
 .byte   W12
 .byte   En5
 .byte   W24
 .byte   Fs5
 .byte   W60
@  #16 @086   ----------------------------------------
 .byte   W96
@  #16 @087   ----------------------------------------
 .byte   W96
@  #16 @088   ----------------------------------------
 .byte   W24
 .byte   GOTO
  .word Label_01689246
 .byte   FINE

@******************************************************@
	.align	2

PokemonMysteryDungeonExplorersofSkyInTheMorningSun:
	.byte	16	@ NumTrks
	.byte	0	@ NumBlks
	.byte	PokemonMysteryDungeonExplorersofSkyInTheMorningSun_pri	@ Priority
	.byte	PokemonMysteryDungeonExplorersofSkyInTheMorningSun_rev	@ Reverb.
    
	.word	PokemonMysteryDungeonExplorersofSkyInTheMorningSun_grp
    
	.word	PokemonMysteryDungeonExplorersofSkyInTheMorningSun_001
	.word	PokemonMysteryDungeonExplorersofSkyInTheMorningSun_002
	.word	PokemonMysteryDungeonExplorersofSkyInTheMorningSun_003
	.word	PokemonMysteryDungeonExplorersofSkyInTheMorningSun_004
	.word	PokemonMysteryDungeonExplorersofSkyInTheMorningSun_005
	.word	PokemonMysteryDungeonExplorersofSkyInTheMorningSun_006
	.word	PokemonMysteryDungeonExplorersofSkyInTheMorningSun_007
	.word	PokemonMysteryDungeonExplorersofSkyInTheMorningSun_008
	.word	PokemonMysteryDungeonExplorersofSkyInTheMorningSun_009
	.word	PokemonMysteryDungeonExplorersofSkyInTheMorningSun_010
	.word	PokemonMysteryDungeonExplorersofSkyInTheMorningSun_011
	.word	PokemonMysteryDungeonExplorersofSkyInTheMorningSun_012
	.word	PokemonMysteryDungeonExplorersofSkyInTheMorningSun_013
	.word	PokemonMysteryDungeonExplorersofSkyInTheMorningSun_014
	.word	PokemonMysteryDungeonExplorersofSkyInTheMorningSun_015
	.word	PokemonMysteryDungeonExplorersofSkyInTheMorningSun_016

	.end
