//Event file generated from Sappy .s format.
	#include "MPlayDef.event"

	#define	PokemonMysteryDungeonExplorersofSkyInTheMorningSun_grp  voicegroup000
	#define	PokemonMysteryDungeonExplorersofSkyInTheMorningSun_pri  0
	#define	PokemonMysteryDungeonExplorersofSkyInTheMorningSun_rev  0
	#define	PokemonMysteryDungeonExplorersofSkyInTheMorningSun_mvl  127
	#define	PokemonMysteryDungeonExplorersofSkyInTheMorningSun_key  0
	#define	PokemonMysteryDungeonExplorersofSkyInTheMorningSun_tbs  1
	#define	PokemonMysteryDungeonExplorersofSkyInTheMorningSun_exg  0
	#define	PokemonMysteryDungeonExplorersofSkyInTheMorningSun_cmp  1

	// .rodata
	//	PokemonMysteryDungeonExplorersofSkyInTheMorningSun
	ALIGN 4


//**************** Track 1 (Midi-Chn.0) ****************//

PokemonMysteryDungeonExplorersofSkyInTheMorningSun_001:
//  #01 //000   ----------------------------------------
 BYTE   KEYSH   PokemonMysteryDungeonExplorersofSkyInTheMorningSun_key+0
 BYTE   TEMPO   152*PokemonMysteryDungeonExplorersofSkyInTheMorningSun_tbs/2
 BYTE   VOICE   40
 BYTE   MODT 0
 BYTE   LFOS 44
 BYTE   VOL   34*PokemonMysteryDungeonExplorersofSkyInTheMorningSun_mvl/mxv
 BYTE   PAN   c_v+0
 BYTE   VOL   34*PokemonMysteryDungeonExplorersofSkyInTheMorningSun_mvl/mxv
 BYTE   BEND   c_v+0
 BYTE   W96
//  #01 //001   ----------------------------------------
 BYTE   W96
//  #01 //002   ----------------------------------------
 BYTE   W96
//  #01 //003   ----------------------------------------
 BYTE   W96
//  #01 //004   ----------------------------------------
 BYTE   W96
//  #01 //005   ----------------------------------------
 BYTE   W96
//  #01 //006   ----------------------------------------
 BYTE   W96
//  #01 //007   ----------------------------------------
 BYTE   W96
//  #01 //008   ----------------------------------------
Label_016859AA:
 BYTE   W24
 BYTE   VOL   11*PokemonMysteryDungeonExplorersofSkyInTheMorningSun_mvl/mxv
 BYTE   N92  Gn1  v084
 BYTE   N92  An3  v060
 BYTE   W06
 BYTE   VOL   16*PokemonMysteryDungeonExplorersofSkyInTheMorningSun_mvl/mxv
 BYTE   W06
 BYTE   VOL   20*PokemonMysteryDungeonExplorersofSkyInTheMorningSun_mvl/mxv
 BYTE   W06
 BYTE   VOL   24*PokemonMysteryDungeonExplorersofSkyInTheMorningSun_mvl/mxv
 BYTE   W06
 BYTE   VOL   27*PokemonMysteryDungeonExplorersofSkyInTheMorningSun_mvl/mxv
 BYTE   W06
 BYTE   VOL   30*PokemonMysteryDungeonExplorersofSkyInTheMorningSun_mvl/mxv
 BYTE   W06
 BYTE   VOL   32*PokemonMysteryDungeonExplorersofSkyInTheMorningSun_mvl/mxv
 BYTE   W06
 BYTE   VOL   34*PokemonMysteryDungeonExplorersofSkyInTheMorningSun_mvl/mxv
 BYTE   W24
 BYTE   W02
 BYTE   VOL   32*PokemonMysteryDungeonExplorersofSkyInTheMorningSun_mvl/mxv
 BYTE   W04
 BYTE   PEND 
//  #01 //009   ----------------------------------------
Label_016859C7:
 BYTE   W08
 BYTE   VOL   30*PokemonMysteryDungeonExplorersofSkyInTheMorningSun_mvl/mxv
 BYTE   W06
 BYTE   VOL   30*PokemonMysteryDungeonExplorersofSkyInTheMorningSun_mvl/mxv
 BYTE   W06
 BYTE   VOL   28*PokemonMysteryDungeonExplorersofSkyInTheMorningSun_mvl/mxv
 BYTE   W01
 BYTE   VOL   27*PokemonMysteryDungeonExplorersofSkyInTheMorningSun_mvl/mxv
 BYTE   W03
 BYTE   N92  An1  v084
 BYTE   N92  Gn3  v060
 BYTE   W03
 BYTE   VOL   27*PokemonMysteryDungeonExplorersofSkyInTheMorningSun_mvl/mxv
 BYTE   W06
 BYTE   VOL   28*PokemonMysteryDungeonExplorersofSkyInTheMorningSun_mvl/mxv
 BYTE   W06
 BYTE   VOL   32*PokemonMysteryDungeonExplorersofSkyInTheMorningSun_mvl/mxv
 BYTE   W05
 BYTE   VOL   34*PokemonMysteryDungeonExplorersofSkyInTheMorningSun_mvl/mxv
 BYTE   W40
 BYTE   W01
 BYTE   VOL   34*PokemonMysteryDungeonExplorersofSkyInTheMorningSun_mvl/mxv
 BYTE   W11
 BYTE   PEND 
//  #01 //010   ----------------------------------------
Label_016859E5:
 BYTE   W01
 BYTE   VOL   34*PokemonMysteryDungeonExplorersofSkyInTheMorningSun_mvl/mxv
 BYTE   W06
 BYTE   VOL   33*PokemonMysteryDungeonExplorersofSkyInTheMorningSun_mvl/mxv
 BYTE   W06
 BYTE   VOL   31*PokemonMysteryDungeonExplorersofSkyInTheMorningSun_mvl/mxv
 BYTE   W06
 BYTE   VOL   30*PokemonMysteryDungeonExplorersofSkyInTheMorningSun_mvl/mxv
 BYTE   W04
 BYTE   VOL   26*PokemonMysteryDungeonExplorersofSkyInTheMorningSun_mvl/mxv
 BYTE   W01
 BYTE   N92  Bn1  v084
 BYTE   TIE  Fs3  v060
 BYTE   W05
 BYTE   VOL   28*PokemonMysteryDungeonExplorersofSkyInTheMorningSun_mvl/mxv
 BYTE   W06
 BYTE   VOL   30*PokemonMysteryDungeonExplorersofSkyInTheMorningSun_mvl/mxv
 BYTE   W06
 BYTE   VOL   30*PokemonMysteryDungeonExplorersofSkyInTheMorningSun_mvl/mxv
 BYTE   W06
 BYTE   VOL   32*PokemonMysteryDungeonExplorersofSkyInTheMorningSun_mvl/mxv
 BYTE   W06
 BYTE   VOL   33*PokemonMysteryDungeonExplorersofSkyInTheMorningSun_mvl/mxv
 BYTE   W06
 BYTE   VOL   34*PokemonMysteryDungeonExplorersofSkyInTheMorningSun_mvl/mxv
 BYTE   W06
 BYTE   VOL   34*PokemonMysteryDungeonExplorersofSkyInTheMorningSun_mvl/mxv
 BYTE   W30
 BYTE   W01
 BYTE   PEND 
//  #01 //011   ----------------------------------------
Label_01685A09:
 BYTE   W24
 BYTE   N92  An1  v084
 BYTE   W32
 BYTE   VOL   32*PokemonMysteryDungeonExplorersofSkyInTheMorningSun_mvl/mxv
 BYTE   W24
 BYTE   VOL   32*PokemonMysteryDungeonExplorersofSkyInTheMorningSun_mvl/mxv
 BYTE   W12
 BYTE   VOL   31*PokemonMysteryDungeonExplorersofSkyInTheMorningSun_mvl/mxv
 BYTE   W04
 BYTE   PEND 
//  #01 //012   ----------------------------------------
Label_01685A16:
 BYTE   W02
 BYTE   VOL   30*PokemonMysteryDungeonExplorersofSkyInTheMorningSun_mvl/mxv
 BYTE   W06
 BYTE   VOL   30*PokemonMysteryDungeonExplorersofSkyInTheMorningSun_mvl/mxv
 BYTE   W06
 BYTE   VOL   30*PokemonMysteryDungeonExplorersofSkyInTheMorningSun_mvl/mxv
 BYTE   W06
 BYTE   VOL   29*PokemonMysteryDungeonExplorersofSkyInTheMorningSun_mvl/mxv
 BYTE   W03
 BYTE   PEND 
 BYTE   EOT
 BYTE   Fs3
 BYTE   W01
 BYTE   TIE  Gn1  v084
 BYTE   TIE  Fs3  v060
 BYTE   W02
 BYTE   VOL   28*PokemonMysteryDungeonExplorersofSkyInTheMorningSun_mvl/mxv
 BYTE   W01
 BYTE   VOL   28*PokemonMysteryDungeonExplorersofSkyInTheMorningSun_mvl/mxv
 BYTE   W02
 BYTE   VOL   29*PokemonMysteryDungeonExplorersofSkyInTheMorningSun_mvl/mxv
 BYTE   W06
 BYTE   VOL   30*PokemonMysteryDungeonExplorersofSkyInTheMorningSun_mvl/mxv
 BYTE   W06
 BYTE   VOL   31*PokemonMysteryDungeonExplorersofSkyInTheMorningSun_mvl/mxv
 BYTE   W06
 BYTE   VOL   32*PokemonMysteryDungeonExplorersofSkyInTheMorningSun_mvl/mxv
 BYTE   W06
 BYTE   VOL   33*PokemonMysteryDungeonExplorersofSkyInTheMorningSun_mvl/mxv
 BYTE   W06
 BYTE   VOL   34*PokemonMysteryDungeonExplorersofSkyInTheMorningSun_mvl/mxv
 BYTE   W36
 BYTE   W01
//  #01 //013   ----------------------------------------
Label_01685A3D:
 BYTE   W60
 BYTE   W02
 BYTE   VOL   32*PokemonMysteryDungeonExplorersofSkyInTheMorningSun_mvl/mxv
 BYTE   W24
 BYTE   VOL   31*PokemonMysteryDungeonExplorersofSkyInTheMorningSun_mvl/mxv
 BYTE   W06
 BYTE   VOL   30*PokemonMysteryDungeonExplorersofSkyInTheMorningSun_mvl/mxv
 BYTE   W04
 BYTE   PEND 
//  #01 //014   ----------------------------------------
Label_01685A47:
 BYTE   W02
 BYTE   VOL   30*PokemonMysteryDungeonExplorersofSkyInTheMorningSun_mvl/mxv
 BYTE   W06
 BYTE   VOL   30*PokemonMysteryDungeonExplorersofSkyInTheMorningSun_mvl/mxv
 BYTE   W06
 BYTE   VOL   29*PokemonMysteryDungeonExplorersofSkyInTheMorningSun_mvl/mxv
 BYTE   W06
 BYTE   VOL   28*PokemonMysteryDungeonExplorersofSkyInTheMorningSun_mvl/mxv
 BYTE   W03
 BYTE   PEND 
 BYTE   EOT
 BYTE   Gn1  v066
 BYTE   W01
 BYTE   VOL   27*PokemonMysteryDungeonExplorersofSkyInTheMorningSun_mvl/mxv
 BYTE   TIE  An1  v084
 BYTE   N92  Fs3  v060
 BYTE   W01
 BYTE   VOL   26*PokemonMysteryDungeonExplorersofSkyInTheMorningSun_mvl/mxv
 BYTE   W06
 BYTE   VOL   30*PokemonMysteryDungeonExplorersofSkyInTheMorningSun_mvl/mxv
 BYTE   W06
 BYTE   VOL   32*PokemonMysteryDungeonExplorersofSkyInTheMorningSun_mvl/mxv
 BYTE   W06
 BYTE   VOL   34*PokemonMysteryDungeonExplorersofSkyInTheMorningSun_mvl/mxv
 BYTE   W06
 BYTE   VOL   34*PokemonMysteryDungeonExplorersofSkyInTheMorningSun_mvl/mxv
 BYTE   W42
 BYTE   W01
 BYTE   VOL   33*PokemonMysteryDungeonExplorersofSkyInTheMorningSun_mvl/mxv
 BYTE   W04
//  #01 //015   ----------------------------------------
Label_01685A6D:
 BYTE   W08
 BYTE   VOL   32*PokemonMysteryDungeonExplorersofSkyInTheMorningSun_mvl/mxv
 BYTE   W06
 BYTE   VOL   30*PokemonMysteryDungeonExplorersofSkyInTheMorningSun_mvl/mxv
 BYTE   W06
 BYTE   VOL   30*PokemonMysteryDungeonExplorersofSkyInTheMorningSun_mvl/mxv
 BYTE   W04
 BYTE   TIE  En3  v060
 BYTE   W02
 BYTE   VOL   27*PokemonMysteryDungeonExplorersofSkyInTheMorningSun_mvl/mxv
 BYTE   W07
 BYTE   VOL   28*PokemonMysteryDungeonExplorersofSkyInTheMorningSun_mvl/mxv
 BYTE   W06
 BYTE   VOL   31*PokemonMysteryDungeonExplorersofSkyInTheMorningSun_mvl/mxv
 BYTE   W06
 BYTE   VOL   34*PokemonMysteryDungeonExplorersofSkyInTheMorningSun_mvl/mxv
 BYTE   W06
 BYTE   VOL   34*PokemonMysteryDungeonExplorersofSkyInTheMorningSun_mvl/mxv
 BYTE   W44
 BYTE   W01
 BYTE   PEND 
//  #01 //016   ----------------------------------------
Label_01685A86:
 BYTE   W24
 BYTE   VOL   34*PokemonMysteryDungeonExplorersofSkyInTheMorningSun_mvl/mxv
 BYTE   W06
 BYTE   VOL   32*PokemonMysteryDungeonExplorersofSkyInTheMorningSun_mvl/mxv
 BYTE   W06
 BYTE   VOL   30*PokemonMysteryDungeonExplorersofSkyInTheMorningSun_mvl/mxv
 BYTE   W06
 BYTE   VOL   30*PokemonMysteryDungeonExplorersofSkyInTheMorningSun_mvl/mxv
 BYTE   W06
 BYTE   VOL   28*PokemonMysteryDungeonExplorersofSkyInTheMorningSun_mvl/mxv
 BYTE   W06
 BYTE   VOL   27*PokemonMysteryDungeonExplorersofSkyInTheMorningSun_mvl/mxv
 BYTE   W06
 BYTE   VOL   26*PokemonMysteryDungeonExplorersofSkyInTheMorningSun_mvl/mxv
 BYTE   W06
 BYTE   VOL   23*PokemonMysteryDungeonExplorersofSkyInTheMorningSun_mvl/mxv
 BYTE   W06
 BYTE   VOL   22*PokemonMysteryDungeonExplorersofSkyInTheMorningSun_mvl/mxv
 BYTE   W06
 BYTE   VOL   21*PokemonMysteryDungeonExplorersofSkyInTheMorningSun_mvl/mxv
 BYTE   W06
 BYTE   VOL   20*PokemonMysteryDungeonExplorersofSkyInTheMorningSun_mvl/mxv
 BYTE   W06
 BYTE   VOL   19*PokemonMysteryDungeonExplorersofSkyInTheMorningSun_mvl/mxv
 BYTE   W06
 BYTE   PEND 
//  #01 //017   ----------------------------------------
Label_01685AA1:
 BYTE   VOL   18*PokemonMysteryDungeonExplorersofSkyInTheMorningSun_mvl/mxv
 BYTE   W06
 BYTE   VOL   17*PokemonMysteryDungeonExplorersofSkyInTheMorningSun_mvl/mxv
 BYTE   W06
 BYTE   VOL   15*PokemonMysteryDungeonExplorersofSkyInTheMorningSun_mvl/mxv
 BYTE   W06
 BYTE   VOL   14*PokemonMysteryDungeonExplorersofSkyInTheMorningSun_mvl/mxv
 BYTE   W06
 BYTE   VOL   13*PokemonMysteryDungeonExplorersofSkyInTheMorningSun_mvl/mxv
 BYTE   W06
 BYTE   VOL   11*PokemonMysteryDungeonExplorersofSkyInTheMorningSun_mvl/mxv
 BYTE   W06
 BYTE   VOL   11*PokemonMysteryDungeonExplorersofSkyInTheMorningSun_mvl/mxv
 BYTE   W06
 BYTE   VOL   10*PokemonMysteryDungeonExplorersofSkyInTheMorningSun_mvl/mxv
 BYTE   W06
 BYTE   VOL   9*PokemonMysteryDungeonExplorersofSkyInTheMorningSun_mvl/mxv
 BYTE   W06
 BYTE   VOL   8*PokemonMysteryDungeonExplorersofSkyInTheMorningSun_mvl/mxv
 BYTE   W06
 BYTE   VOL   7*PokemonMysteryDungeonExplorersofSkyInTheMorningSun_mvl/mxv
 BYTE   W06
 BYTE   VOL   6*PokemonMysteryDungeonExplorersofSkyInTheMorningSun_mvl/mxv
 BYTE   W06
 BYTE   VOL   6*PokemonMysteryDungeonExplorersofSkyInTheMorningSun_mvl/mxv
 BYTE   W06
 BYTE   VOL   5*PokemonMysteryDungeonExplorersofSkyInTheMorningSun_mvl/mxv
 BYTE   W06
 BYTE   VOL   4*PokemonMysteryDungeonExplorersofSkyInTheMorningSun_mvl/mxv
 BYTE   W06
 BYTE   VOL   3*PokemonMysteryDungeonExplorersofSkyInTheMorningSun_mvl/mxv
 BYTE   W06
 BYTE   PEND 
//  #01 //018   ----------------------------------------
Label_01685AC3:
 BYTE   VOL   3*PokemonMysteryDungeonExplorersofSkyInTheMorningSun_mvl/mxv
 BYTE   W06
 BYTE   VOL   2*PokemonMysteryDungeonExplorersofSkyInTheMorningSun_mvl/mxv
 BYTE   W06
 BYTE   VOL   1*PokemonMysteryDungeonExplorersofSkyInTheMorningSun_mvl/mxv
 BYTE   W11
 BYTE   PEND 
 BYTE   EOT
 BYTE   An1  v064
 BYTE   W01
Label_01685ACF:
 BYTE   W72
//  #01 //019   ----------------------------------------
 BYTE   W96
//  #01 //020   ----------------------------------------
 BYTE   W96
//  #01 //021   ----------------------------------------
 BYTE   W96
//  #01 //022   ----------------------------------------
 BYTE   W96
//  #01 //023   ----------------------------------------
 BYTE   W96
//  #01 //024   ----------------------------------------
 BYTE   W96
//  #01 //025   ----------------------------------------
 BYTE   W96
//  #01 //026   ----------------------------------------
 BYTE   W96
//  #01 //027   ----------------------------------------
 BYTE   W96
//  #01 //028   ----------------------------------------
 BYTE   W96
//  #01 //029   ----------------------------------------
 BYTE   W96
//  #01 //030   ----------------------------------------
 BYTE   W96
//  #01 //031   ----------------------------------------
 BYTE   W96
//  #01 //032   ----------------------------------------
 BYTE   W96
//  #01 //033   ----------------------------------------
 BYTE   W96
//  #01 //034   ----------------------------------------
 BYTE   W24
 BYTE   VOL   20*PokemonMysteryDungeonExplorersofSkyInTheMorningSun_mvl/mxv
 BYTE   TIE  As2  v088
 BYTE   TIE  An3
 BYTE   W06
 BYTE   VOL   20*PokemonMysteryDungeonExplorersofSkyInTheMorningSun_mvl/mxv
 BYTE   W06
 BYTE   VOL   20*PokemonMysteryDungeonExplorersofSkyInTheMorningSun_mvl/mxv
 BYTE   W06
 BYTE   VOL   21*PokemonMysteryDungeonExplorersofSkyInTheMorningSun_mvl/mxv
 BYTE   W06
 BYTE   VOL   21*PokemonMysteryDungeonExplorersofSkyInTheMorningSun_mvl/mxv
 BYTE   W06
 BYTE   VOL   22*PokemonMysteryDungeonExplorersofSkyInTheMorningSun_mvl/mxv
 BYTE   W06
 BYTE   VOL   22*PokemonMysteryDungeonExplorersofSkyInTheMorningSun_mvl/mxv
 BYTE   W06
 BYTE   VOL   23*PokemonMysteryDungeonExplorersofSkyInTheMorningSun_mvl/mxv
 BYTE   W06
 BYTE   VOL   23*PokemonMysteryDungeonExplorersofSkyInTheMorningSun_mvl/mxv
 BYTE   W06
 BYTE   VOL   23*PokemonMysteryDungeonExplorersofSkyInTheMorningSun_mvl/mxv
 BYTE   W06
 BYTE   VOL   24*PokemonMysteryDungeonExplorersofSkyInTheMorningSun_mvl/mxv
 BYTE   W06
 BYTE   VOL   24*PokemonMysteryDungeonExplorersofSkyInTheMorningSun_mvl/mxv
 BYTE   W06
//  #01 //035   ----------------------------------------
 BYTE   VOL   26*PokemonMysteryDungeonExplorersofSkyInTheMorningSun_mvl/mxv
 BYTE   W06
 BYTE   VOL   26*PokemonMysteryDungeonExplorersofSkyInTheMorningSun_mvl/mxv
 BYTE   W06
 BYTE   VOL   26*PokemonMysteryDungeonExplorersofSkyInTheMorningSun_mvl/mxv
 BYTE   W06
 BYTE   VOL   27*PokemonMysteryDungeonExplorersofSkyInTheMorningSun_mvl/mxv
 BYTE   W06
 BYTE   VOL   27*PokemonMysteryDungeonExplorersofSkyInTheMorningSun_mvl/mxv
 BYTE   W06
 BYTE   VOL   27*PokemonMysteryDungeonExplorersofSkyInTheMorningSun_mvl/mxv
 BYTE   W06
 BYTE   VOL   28*PokemonMysteryDungeonExplorersofSkyInTheMorningSun_mvl/mxv
 BYTE   W06
 BYTE   VOL   28*PokemonMysteryDungeonExplorersofSkyInTheMorningSun_mvl/mxv
 BYTE   W06
 BYTE   VOL   29*PokemonMysteryDungeonExplorersofSkyInTheMorningSun_mvl/mxv
 BYTE   W06
 BYTE   VOL   30*PokemonMysteryDungeonExplorersofSkyInTheMorningSun_mvl/mxv
 BYTE   W06
 BYTE   VOL   30*PokemonMysteryDungeonExplorersofSkyInTheMorningSun_mvl/mxv
 BYTE   W06
 BYTE   VOL   30*PokemonMysteryDungeonExplorersofSkyInTheMorningSun_mvl/mxv
 BYTE   W06
 BYTE   VOL   31*PokemonMysteryDungeonExplorersofSkyInTheMorningSun_mvl/mxv
 BYTE   W06
 BYTE   VOL   32*PokemonMysteryDungeonExplorersofSkyInTheMorningSun_mvl/mxv
 BYTE   W06
 BYTE   VOL   32*PokemonMysteryDungeonExplorersofSkyInTheMorningSun_mvl/mxv
 BYTE   W06
 BYTE   VOL   33*PokemonMysteryDungeonExplorersofSkyInTheMorningSun_mvl/mxv
 BYTE   W06
//  #01 //036   ----------------------------------------
 BYTE   VOL   34*PokemonMysteryDungeonExplorersofSkyInTheMorningSun_mvl/mxv
 BYTE   W06
 BYTE   VOL   34*PokemonMysteryDungeonExplorersofSkyInTheMorningSun_mvl/mxv
 BYTE   W12
 BYTE   VOL   34*PokemonMysteryDungeonExplorersofSkyInTheMorningSun_mvl/mxv
 BYTE   W05
 BYTE   EOT
 BYTE   As2  v069
 BYTE   W01
 BYTE   VOL   33*PokemonMysteryDungeonExplorersofSkyInTheMorningSun_mvl/mxv
 BYTE   TIE  An2
 BYTE   TIE  An3
 BYTE   W06
 BYTE   VOL   32*PokemonMysteryDungeonExplorersofSkyInTheMorningSun_mvl/mxv
 BYTE   W06
 BYTE   VOL   32*PokemonMysteryDungeonExplorersofSkyInTheMorningSun_mvl/mxv
 BYTE   W12
 BYTE   VOL   31*PokemonMysteryDungeonExplorersofSkyInTheMorningSun_mvl/mxv
 BYTE   W06
 BYTE   VOL   30*PokemonMysteryDungeonExplorersofSkyInTheMorningSun_mvl/mxv
 BYTE   W06
 BYTE   VOL   30*PokemonMysteryDungeonExplorersofSkyInTheMorningSun_mvl/mxv
 BYTE   W06
 BYTE   VOL   30*PokemonMysteryDungeonExplorersofSkyInTheMorningSun_mvl/mxv
 BYTE   W06
 BYTE   VOL   30*PokemonMysteryDungeonExplorersofSkyInTheMorningSun_mvl/mxv
 BYTE   W06
 BYTE   VOL   29*PokemonMysteryDungeonExplorersofSkyInTheMorningSun_mvl/mxv
 BYTE   W06
 BYTE   VOL   28*PokemonMysteryDungeonExplorersofSkyInTheMorningSun_mvl/mxv
 BYTE   W06
 BYTE   VOL   28*PokemonMysteryDungeonExplorersofSkyInTheMorningSun_mvl/mxv
 BYTE   W06
//  #01 //037   ----------------------------------------
 BYTE   VOL   28*PokemonMysteryDungeonExplorersofSkyInTheMorningSun_mvl/mxv
 BYTE   W06
 BYTE   VOL   27*PokemonMysteryDungeonExplorersofSkyInTheMorningSun_mvl/mxv
 BYTE   W12
 BYTE   VOL   27*PokemonMysteryDungeonExplorersofSkyInTheMorningSun_mvl/mxv
 BYTE   W06
 BYTE   VOL   27*PokemonMysteryDungeonExplorersofSkyInTheMorningSun_mvl/mxv
 BYTE   W06
 BYTE   VOL   26*PokemonMysteryDungeonExplorersofSkyInTheMorningSun_mvl/mxv
 BYTE   W06
 BYTE   VOL   26*PokemonMysteryDungeonExplorersofSkyInTheMorningSun_mvl/mxv
 BYTE   W06
 BYTE   VOL   26*PokemonMysteryDungeonExplorersofSkyInTheMorningSun_mvl/mxv
 BYTE   W06
 BYTE   VOL   25*PokemonMysteryDungeonExplorersofSkyInTheMorningSun_mvl/mxv
 BYTE   W06
 BYTE   VOL   24*PokemonMysteryDungeonExplorersofSkyInTheMorningSun_mvl/mxv
 BYTE   W06
 BYTE   VOL   24*PokemonMysteryDungeonExplorersofSkyInTheMorningSun_mvl/mxv
 BYTE   W06
 BYTE   VOL   23*PokemonMysteryDungeonExplorersofSkyInTheMorningSun_mvl/mxv
 BYTE   W12
 BYTE   VOL   23*PokemonMysteryDungeonExplorersofSkyInTheMorningSun_mvl/mxv
 BYTE   W06
 BYTE   VOL   23*PokemonMysteryDungeonExplorersofSkyInTheMorningSun_mvl/mxv
 BYTE   W06
 BYTE   VOL   22*PokemonMysteryDungeonExplorersofSkyInTheMorningSun_mvl/mxv
 BYTE   W06
//  #01 //038   ----------------------------------------
Label_01685B61:
 BYTE   VOL   22*PokemonMysteryDungeonExplorersofSkyInTheMorningSun_mvl/mxv
 BYTE   W06
 BYTE   VOL   22*PokemonMysteryDungeonExplorersofSkyInTheMorningSun_mvl/mxv
 BYTE   W06
 BYTE   VOL   21*PokemonMysteryDungeonExplorersofSkyInTheMorningSun_mvl/mxv
 BYTE   W06
 BYTE   VOL   21*PokemonMysteryDungeonExplorersofSkyInTheMorningSun_mvl/mxv
 BYTE   W05
 BYTE   PEND 
 BYTE   EOT
 BYTE   An2  v069
 BYTE   W01
 BYTE   VOL   20*PokemonMysteryDungeonExplorersofSkyInTheMorningSun_mvl/mxv
 BYTE   N92  Gn2  v088
 BYTE   N92  Fn3
 BYTE   W06
 BYTE   VOL   21*PokemonMysteryDungeonExplorersofSkyInTheMorningSun_mvl/mxv
 BYTE   W06
 BYTE   VOL   21*PokemonMysteryDungeonExplorersofSkyInTheMorningSun_mvl/mxv
 BYTE   W06
 BYTE   VOL   22*PokemonMysteryDungeonExplorersofSkyInTheMorningSun_mvl/mxv
 BYTE   W06
 BYTE   VOL   22*PokemonMysteryDungeonExplorersofSkyInTheMorningSun_mvl/mxv
 BYTE   W06
 BYTE   VOL   22*PokemonMysteryDungeonExplorersofSkyInTheMorningSun_mvl/mxv
 BYTE   W06
 BYTE   VOL   23*PokemonMysteryDungeonExplorersofSkyInTheMorningSun_mvl/mxv
 BYTE   W06
 BYTE   VOL   23*PokemonMysteryDungeonExplorersofSkyInTheMorningSun_mvl/mxv
 BYTE   W06
 BYTE   VOL   23*PokemonMysteryDungeonExplorersofSkyInTheMorningSun_mvl/mxv
 BYTE   W06
 BYTE   VOL   24*PokemonMysteryDungeonExplorersofSkyInTheMorningSun_mvl/mxv
 BYTE   W06
 BYTE   VOL   24*PokemonMysteryDungeonExplorersofSkyInTheMorningSun_mvl/mxv
 BYTE   W06
 BYTE   VOL   25*PokemonMysteryDungeonExplorersofSkyInTheMorningSun_mvl/mxv
 BYTE   W06
//  #01 //039   ----------------------------------------
 BYTE   VOL   26*PokemonMysteryDungeonExplorersofSkyInTheMorningSun_mvl/mxv
 BYTE   W06
 BYTE   VOL   26*PokemonMysteryDungeonExplorersofSkyInTheMorningSun_mvl/mxv
 BYTE   W06
 BYTE   VOL   26*PokemonMysteryDungeonExplorersofSkyInTheMorningSun_mvl/mxv
 BYTE   W06
 BYTE   VOL   27*PokemonMysteryDungeonExplorersofSkyInTheMorningSun_mvl/mxv
 BYTE   W06
 BYTE   VOL   27*PokemonMysteryDungeonExplorersofSkyInTheMorningSun_mvl/mxv
 BYTE   N92  Cn2
 BYTE   N92  En3
 BYTE   W06
 BYTE   VOL   27*PokemonMysteryDungeonExplorersofSkyInTheMorningSun_mvl/mxv
 BYTE   W06
 BYTE   VOL   28*PokemonMysteryDungeonExplorersofSkyInTheMorningSun_mvl/mxv
 BYTE   W06
 BYTE   VOL   28*PokemonMysteryDungeonExplorersofSkyInTheMorningSun_mvl/mxv
 BYTE   W06
 BYTE   VOL   28*PokemonMysteryDungeonExplorersofSkyInTheMorningSun_mvl/mxv
 BYTE   W06
 BYTE   VOL   29*PokemonMysteryDungeonExplorersofSkyInTheMorningSun_mvl/mxv
 BYTE   W06
 BYTE   VOL   30*PokemonMysteryDungeonExplorersofSkyInTheMorningSun_mvl/mxv
 BYTE   W06
 BYTE   VOL   30*PokemonMysteryDungeonExplorersofSkyInTheMorningSun_mvl/mxv
 BYTE   W06
 BYTE   VOL   30*PokemonMysteryDungeonExplorersofSkyInTheMorningSun_mvl/mxv
 BYTE   W06
 BYTE   VOL   31*PokemonMysteryDungeonExplorersofSkyInTheMorningSun_mvl/mxv
 BYTE   W06
 BYTE   VOL   32*PokemonMysteryDungeonExplorersofSkyInTheMorningSun_mvl/mxv
 BYTE   W12
//  #01 //040   ----------------------------------------
 BYTE   VOL   32*PokemonMysteryDungeonExplorersofSkyInTheMorningSun_mvl/mxv
 BYTE   W06
 BYTE   VOL   34*PokemonMysteryDungeonExplorersofSkyInTheMorningSun_mvl/mxv
 BYTE   W06
 BYTE   VOL   34*PokemonMysteryDungeonExplorersofSkyInTheMorningSun_mvl/mxv
 BYTE   W06
 BYTE   VOL   34*PokemonMysteryDungeonExplorersofSkyInTheMorningSun_mvl/mxv
 BYTE   W06
 BYTE   VOL   34*PokemonMysteryDungeonExplorersofSkyInTheMorningSun_mvl/mxv
 BYTE   N92  Dn2
 BYTE   N92  Gn3
 BYTE   W06
 BYTE   VOL   34*PokemonMysteryDungeonExplorersofSkyInTheMorningSun_mvl/mxv
 BYTE   W06
 BYTE   VOL   34*PokemonMysteryDungeonExplorersofSkyInTheMorningSun_mvl/mxv
 BYTE   W06
 BYTE   VOL   33*PokemonMysteryDungeonExplorersofSkyInTheMorningSun_mvl/mxv
 BYTE   W06
 BYTE   VOL   32*PokemonMysteryDungeonExplorersofSkyInTheMorningSun_mvl/mxv
 BYTE   W06
 BYTE   VOL   32*PokemonMysteryDungeonExplorersofSkyInTheMorningSun_mvl/mxv
 BYTE   W06
 BYTE   VOL   31*PokemonMysteryDungeonExplorersofSkyInTheMorningSun_mvl/mxv
 BYTE   W06
 BYTE   VOL   30*PokemonMysteryDungeonExplorersofSkyInTheMorningSun_mvl/mxv
 BYTE   W06
 BYTE   VOL   30*PokemonMysteryDungeonExplorersofSkyInTheMorningSun_mvl/mxv
 BYTE   W06
 BYTE   VOL   30*PokemonMysteryDungeonExplorersofSkyInTheMorningSun_mvl/mxv
 BYTE   W06
 BYTE   VOL   30*PokemonMysteryDungeonExplorersofSkyInTheMorningSun_mvl/mxv
 BYTE   W12
//  #01 //041   ----------------------------------------
 BYTE   VOL   29*PokemonMysteryDungeonExplorersofSkyInTheMorningSun_mvl/mxv
 BYTE   W06
 BYTE   VOL   28*PokemonMysteryDungeonExplorersofSkyInTheMorningSun_mvl/mxv
 BYTE   W06
 BYTE   VOL   28*PokemonMysteryDungeonExplorersofSkyInTheMorningSun_mvl/mxv
 BYTE   W06
 BYTE   VOL   28*PokemonMysteryDungeonExplorersofSkyInTheMorningSun_mvl/mxv
 BYTE   W06
 BYTE   VOL   27*PokemonMysteryDungeonExplorersofSkyInTheMorningSun_mvl/mxv
 BYTE   N92  Dn2
 BYTE   N92  Fs3
 BYTE   W06
 BYTE   VOL   27*PokemonMysteryDungeonExplorersofSkyInTheMorningSun_mvl/mxv
 BYTE   W06
 BYTE   VOL   27*PokemonMysteryDungeonExplorersofSkyInTheMorningSun_mvl/mxv
 BYTE   W06
 BYTE   VOL   26*PokemonMysteryDungeonExplorersofSkyInTheMorningSun_mvl/mxv
 BYTE   W06
 BYTE   VOL   26*PokemonMysteryDungeonExplorersofSkyInTheMorningSun_mvl/mxv
 BYTE   W06
 BYTE   VOL   26*PokemonMysteryDungeonExplorersofSkyInTheMorningSun_mvl/mxv
 BYTE   W06
 BYTE   VOL   25*PokemonMysteryDungeonExplorersofSkyInTheMorningSun_mvl/mxv
 BYTE   W06
 BYTE   VOL   24*PokemonMysteryDungeonExplorersofSkyInTheMorningSun_mvl/mxv
 BYTE   W06
 BYTE   VOL   24*PokemonMysteryDungeonExplorersofSkyInTheMorningSun_mvl/mxv
 BYTE   W06
 BYTE   VOL   23*PokemonMysteryDungeonExplorersofSkyInTheMorningSun_mvl/mxv
 BYTE   W06
 BYTE   VOL   23*PokemonMysteryDungeonExplorersofSkyInTheMorningSun_mvl/mxv
 BYTE   W06
 BYTE   VOL   23*PokemonMysteryDungeonExplorersofSkyInTheMorningSun_mvl/mxv
 BYTE   W06
//  #01 //042   ----------------------------------------
 BYTE   VOL   22*PokemonMysteryDungeonExplorersofSkyInTheMorningSun_mvl/mxv
 BYTE   W06
 BYTE   VOL   22*PokemonMysteryDungeonExplorersofSkyInTheMorningSun_mvl/mxv
 BYTE   W06
 BYTE   VOL   22*PokemonMysteryDungeonExplorersofSkyInTheMorningSun_mvl/mxv
 BYTE   W06
 BYTE   VOL   21*PokemonMysteryDungeonExplorersofSkyInTheMorningSun_mvl/mxv
 BYTE   W06
 BYTE   N92  Ds2
 BYTE   N92  Gn3
 BYTE   W06
 BYTE   VOL   22*PokemonMysteryDungeonExplorersofSkyInTheMorningSun_mvl/mxv
 BYTE   W06
 BYTE   VOL   22*PokemonMysteryDungeonExplorersofSkyInTheMorningSun_mvl/mxv
 BYTE   W06
 BYTE   VOL   22*PokemonMysteryDungeonExplorersofSkyInTheMorningSun_mvl/mxv
 BYTE   W06
 BYTE   VOL   23*PokemonMysteryDungeonExplorersofSkyInTheMorningSun_mvl/mxv
 BYTE   W06
 BYTE   VOL   23*PokemonMysteryDungeonExplorersofSkyInTheMorningSun_mvl/mxv
 BYTE   W06
 BYTE   VOL   23*PokemonMysteryDungeonExplorersofSkyInTheMorningSun_mvl/mxv
 BYTE   W06
 BYTE   VOL   24*PokemonMysteryDungeonExplorersofSkyInTheMorningSun_mvl/mxv
 BYTE   W06
 BYTE   VOL   24*PokemonMysteryDungeonExplorersofSkyInTheMorningSun_mvl/mxv
 BYTE   W06
 BYTE   VOL   25*PokemonMysteryDungeonExplorersofSkyInTheMorningSun_mvl/mxv
 BYTE   W06
 BYTE   VOL   26*PokemonMysteryDungeonExplorersofSkyInTheMorningSun_mvl/mxv
 BYTE   W06
 BYTE   VOL   26*PokemonMysteryDungeonExplorersofSkyInTheMorningSun_mvl/mxv
 BYTE   W06
//  #01 //043   ----------------------------------------
 BYTE   VOL   26*PokemonMysteryDungeonExplorersofSkyInTheMorningSun_mvl/mxv
 BYTE   W06
 BYTE   VOL   27*PokemonMysteryDungeonExplorersofSkyInTheMorningSun_mvl/mxv
 BYTE   W06
 BYTE   VOL   27*PokemonMysteryDungeonExplorersofSkyInTheMorningSun_mvl/mxv
 BYTE   W06
 BYTE   VOL   27*PokemonMysteryDungeonExplorersofSkyInTheMorningSun_mvl/mxv
 BYTE   W06
 BYTE   VOL   28*PokemonMysteryDungeonExplorersofSkyInTheMorningSun_mvl/mxv
 BYTE   N92  Fn2
 BYTE   N44  Fn3
 BYTE   W06
 BYTE   VOL   28*PokemonMysteryDungeonExplorersofSkyInTheMorningSun_mvl/mxv
 BYTE   W06
 BYTE   VOL   28*PokemonMysteryDungeonExplorersofSkyInTheMorningSun_mvl/mxv
 BYTE   W06
 BYTE   VOL   29*PokemonMysteryDungeonExplorersofSkyInTheMorningSun_mvl/mxv
 BYTE   W06
 BYTE   VOL   30*PokemonMysteryDungeonExplorersofSkyInTheMorningSun_mvl/mxv
 BYTE   W06
 BYTE   VOL   30*PokemonMysteryDungeonExplorersofSkyInTheMorningSun_mvl/mxv
 BYTE   W06
 BYTE   VOL   30*PokemonMysteryDungeonExplorersofSkyInTheMorningSun_mvl/mxv
 BYTE   W06
 BYTE   VOL   30*PokemonMysteryDungeonExplorersofSkyInTheMorningSun_mvl/mxv
 BYTE   W06
 BYTE   VOL   31*PokemonMysteryDungeonExplorersofSkyInTheMorningSun_mvl/mxv
 BYTE   N44  An3
 BYTE   W06
 BYTE   VOL   32*PokemonMysteryDungeonExplorersofSkyInTheMorningSun_mvl/mxv
 BYTE   W06
 BYTE   VOL   32*PokemonMysteryDungeonExplorersofSkyInTheMorningSun_mvl/mxv
 BYTE   W06
 BYTE   VOL   33*PokemonMysteryDungeonExplorersofSkyInTheMorningSun_mvl/mxv
 BYTE   W06
//  #01 //044   ----------------------------------------
 BYTE   VOL   34*PokemonMysteryDungeonExplorersofSkyInTheMorningSun_mvl/mxv
 BYTE   W06
 BYTE   VOL   34*PokemonMysteryDungeonExplorersofSkyInTheMorningSun_mvl/mxv
 BYTE   W06
 BYTE   VOL   34*PokemonMysteryDungeonExplorersofSkyInTheMorningSun_mvl/mxv
 BYTE   W12
 BYTE   N92  Gn2
 BYTE   N24  Cn4
 BYTE   W06
 BYTE   VOL   34*PokemonMysteryDungeonExplorersofSkyInTheMorningSun_mvl/mxv
 BYTE   W12
 BYTE   VOL   33*PokemonMysteryDungeonExplorersofSkyInTheMorningSun_mvl/mxv
 BYTE   W06
 BYTE   VOL   32*PokemonMysteryDungeonExplorersofSkyInTheMorningSun_mvl/mxv
 BYTE   N72  Bn3
 BYTE   W06
 BYTE   VOL   32*PokemonMysteryDungeonExplorersofSkyInTheMorningSun_mvl/mxv
 BYTE   W06
 BYTE   VOL   31*PokemonMysteryDungeonExplorersofSkyInTheMorningSun_mvl/mxv
 BYTE   W06
 BYTE   VOL   30*PokemonMysteryDungeonExplorersofSkyInTheMorningSun_mvl/mxv
 BYTE   W06
 BYTE   VOL   30*PokemonMysteryDungeonExplorersofSkyInTheMorningSun_mvl/mxv
 BYTE   W06
 BYTE   VOL   30*PokemonMysteryDungeonExplorersofSkyInTheMorningSun_mvl/mxv
 BYTE   W06
 BYTE   VOL   30*PokemonMysteryDungeonExplorersofSkyInTheMorningSun_mvl/mxv
 BYTE   W06
 BYTE   VOL   29*PokemonMysteryDungeonExplorersofSkyInTheMorningSun_mvl/mxv
 BYTE   W06
//  #01 //045   ----------------------------------------
 BYTE   VOL   28*PokemonMysteryDungeonExplorersofSkyInTheMorningSun_mvl/mxv
 BYTE   W06
 BYTE   VOL   28*PokemonMysteryDungeonExplorersofSkyInTheMorningSun_mvl/mxv
 BYTE   W06
 BYTE   VOL   28*PokemonMysteryDungeonExplorersofSkyInTheMorningSun_mvl/mxv
 BYTE   W06
 BYTE   VOL   27*PokemonMysteryDungeonExplorersofSkyInTheMorningSun_mvl/mxv
 BYTE   W06
 BYTE   VOL   27*PokemonMysteryDungeonExplorersofSkyInTheMorningSun_mvl/mxv
 BYTE   N44  Gn2
 BYTE   N44  Gn3
 BYTE   W06
 BYTE   VOL   27*PokemonMysteryDungeonExplorersofSkyInTheMorningSun_mvl/mxv
 BYTE   W06
 BYTE   VOL   26*PokemonMysteryDungeonExplorersofSkyInTheMorningSun_mvl/mxv
 BYTE   W06
 BYTE   VOL   26*PokemonMysteryDungeonExplorersofSkyInTheMorningSun_mvl/mxv
 BYTE   W06
 BYTE   VOL   26*PokemonMysteryDungeonExplorersofSkyInTheMorningSun_mvl/mxv
 BYTE   W06
 BYTE   VOL   25*PokemonMysteryDungeonExplorersofSkyInTheMorningSun_mvl/mxv
 BYTE   W12
 BYTE   VOL   24*PokemonMysteryDungeonExplorersofSkyInTheMorningSun_mvl/mxv
 BYTE   W06
 BYTE   VOL   24*PokemonMysteryDungeonExplorersofSkyInTheMorningSun_mvl/mxv
 BYTE   N44  Dn2
 BYTE   N44  An3
 BYTE   W06
 BYTE   VOL   23*PokemonMysteryDungeonExplorersofSkyInTheMorningSun_mvl/mxv
 BYTE   W06
 BYTE   VOL   23*PokemonMysteryDungeonExplorersofSkyInTheMorningSun_mvl/mxv
 BYTE   W06
 BYTE   VOL   23*PokemonMysteryDungeonExplorersofSkyInTheMorningSun_mvl/mxv
 BYTE   W06
//  #01 //046   ----------------------------------------
 BYTE   VOL   22*PokemonMysteryDungeonExplorersofSkyInTheMorningSun_mvl/mxv
 BYTE   W06
 BYTE   VOL   22*PokemonMysteryDungeonExplorersofSkyInTheMorningSun_mvl/mxv
 BYTE   W06
 BYTE   VOL   22*PokemonMysteryDungeonExplorersofSkyInTheMorningSun_mvl/mxv
 BYTE   W06
 BYTE   VOL   21*PokemonMysteryDungeonExplorersofSkyInTheMorningSun_mvl/mxv
 BYTE   W06
 BYTE   VOL   21*PokemonMysteryDungeonExplorersofSkyInTheMorningSun_mvl/mxv
 BYTE   TIE  Ds2
 BYTE   TIE  Gn3
 BYTE   W06
 BYTE   VOL   22*PokemonMysteryDungeonExplorersofSkyInTheMorningSun_mvl/mxv
 BYTE   W06
 BYTE   VOL   22*PokemonMysteryDungeonExplorersofSkyInTheMorningSun_mvl/mxv
 BYTE   W06
 BYTE   VOL   22*PokemonMysteryDungeonExplorersofSkyInTheMorningSun_mvl/mxv
 BYTE   W06
 BYTE   VOL   23*PokemonMysteryDungeonExplorersofSkyInTheMorningSun_mvl/mxv
 BYTE   W06
 BYTE   VOL   23*PokemonMysteryDungeonExplorersofSkyInTheMorningSun_mvl/mxv
 BYTE   W06
 BYTE   VOL   23*PokemonMysteryDungeonExplorersofSkyInTheMorningSun_mvl/mxv
 BYTE   W06
 BYTE   VOL   24*PokemonMysteryDungeonExplorersofSkyInTheMorningSun_mvl/mxv
 BYTE   W06
 BYTE   VOL   24*PokemonMysteryDungeonExplorersofSkyInTheMorningSun_mvl/mxv
 BYTE   W06
 BYTE   VOL   25*PokemonMysteryDungeonExplorersofSkyInTheMorningSun_mvl/mxv
 BYTE   W06
 BYTE   VOL   26*PokemonMysteryDungeonExplorersofSkyInTheMorningSun_mvl/mxv
 BYTE   W06
 BYTE   VOL   26*PokemonMysteryDungeonExplorersofSkyInTheMorningSun_mvl/mxv
 BYTE   W06
//  #01 //047   ----------------------------------------
 BYTE   VOL   26*PokemonMysteryDungeonExplorersofSkyInTheMorningSun_mvl/mxv
 BYTE   W06
 BYTE   VOL   27*PokemonMysteryDungeonExplorersofSkyInTheMorningSun_mvl/mxv
 BYTE   W06
 BYTE   VOL   27*PokemonMysteryDungeonExplorersofSkyInTheMorningSun_mvl/mxv
 BYTE   W06
 BYTE   VOL   27*PokemonMysteryDungeonExplorersofSkyInTheMorningSun_mvl/mxv
 BYTE   W12
 BYTE   VOL   28*PokemonMysteryDungeonExplorersofSkyInTheMorningSun_mvl/mxv
 BYTE   W06
 BYTE   VOL   28*PokemonMysteryDungeonExplorersofSkyInTheMorningSun_mvl/mxv
 BYTE   W06
 BYTE   VOL   28*PokemonMysteryDungeonExplorersofSkyInTheMorningSun_mvl/mxv
 BYTE   W06
 BYTE   VOL   29*PokemonMysteryDungeonExplorersofSkyInTheMorningSun_mvl/mxv
 BYTE   W06
 BYTE   VOL   30*PokemonMysteryDungeonExplorersofSkyInTheMorningSun_mvl/mxv
 BYTE   W06
 BYTE   VOL   30*PokemonMysteryDungeonExplorersofSkyInTheMorningSun_mvl/mxv
 BYTE   W06
 BYTE   VOL   30*PokemonMysteryDungeonExplorersofSkyInTheMorningSun_mvl/mxv
 BYTE   W06
 BYTE   VOL   30*PokemonMysteryDungeonExplorersofSkyInTheMorningSun_mvl/mxv
 BYTE   W06
 BYTE   VOL   31*PokemonMysteryDungeonExplorersofSkyInTheMorningSun_mvl/mxv
 BYTE   W06
 BYTE   VOL   32*PokemonMysteryDungeonExplorersofSkyInTheMorningSun_mvl/mxv
 BYTE   W06
 BYTE   VOL   32*PokemonMysteryDungeonExplorersofSkyInTheMorningSun_mvl/mxv
 BYTE   W06
//  #01 //048   ----------------------------------------
 BYTE   VOL   33*PokemonMysteryDungeonExplorersofSkyInTheMorningSun_mvl/mxv
 BYTE   W06
 BYTE   VOL   34*PokemonMysteryDungeonExplorersofSkyInTheMorningSun_mvl/mxv
 BYTE   W06
 BYTE   VOL   34*PokemonMysteryDungeonExplorersofSkyInTheMorningSun_mvl/mxv
 BYTE   W06
 BYTE   VOL   34*PokemonMysteryDungeonExplorersofSkyInTheMorningSun_mvl/mxv
 BYTE   W05
 BYTE   EOT
 BYTE   Ds2  v067
 BYTE   W01
 BYTE   TIE  Cn2
 BYTE   TIE  Gn3
 BYTE   W18
 BYTE   VOL   32*PokemonMysteryDungeonExplorersofSkyInTheMorningSun_mvl/mxv
 BYTE   W06
 BYTE   VOL   32*PokemonMysteryDungeonExplorersofSkyInTheMorningSun_mvl/mxv
 BYTE   W06
 BYTE   VOL   31*PokemonMysteryDungeonExplorersofSkyInTheMorningSun_mvl/mxv
 BYTE   W06
 BYTE   VOL   30*PokemonMysteryDungeonExplorersofSkyInTheMorningSun_mvl/mxv
 BYTE   W06
 BYTE   VOL   30*PokemonMysteryDungeonExplorersofSkyInTheMorningSun_mvl/mxv
 BYTE   W06
 BYTE   VOL   30*PokemonMysteryDungeonExplorersofSkyInTheMorningSun_mvl/mxv
 BYTE   W06
 BYTE   VOL   30*PokemonMysteryDungeonExplorersofSkyInTheMorningSun_mvl/mxv
 BYTE   W06
 BYTE   VOL   29*PokemonMysteryDungeonExplorersofSkyInTheMorningSun_mvl/mxv
 BYTE   W06
 BYTE   VOL   28*PokemonMysteryDungeonExplorersofSkyInTheMorningSun_mvl/mxv
 BYTE   W06
//  #01 //049   ----------------------------------------
 BYTE   VOL   28*PokemonMysteryDungeonExplorersofSkyInTheMorningSun_mvl/mxv
 BYTE   W12
 BYTE   VOL   28*PokemonMysteryDungeonExplorersofSkyInTheMorningSun_mvl/mxv
 BYTE   W06
 BYTE   VOL   27*PokemonMysteryDungeonExplorersofSkyInTheMorningSun_mvl/mxv
 BYTE   W06
 BYTE   VOL   27*PokemonMysteryDungeonExplorersofSkyInTheMorningSun_mvl/mxv
 BYTE   W06
 BYTE   VOL   27*PokemonMysteryDungeonExplorersofSkyInTheMorningSun_mvl/mxv
 BYTE   W06
 BYTE   VOL   26*PokemonMysteryDungeonExplorersofSkyInTheMorningSun_mvl/mxv
 BYTE   W06
 BYTE   VOL   26*PokemonMysteryDungeonExplorersofSkyInTheMorningSun_mvl/mxv
 BYTE   W06
 BYTE   VOL   26*PokemonMysteryDungeonExplorersofSkyInTheMorningSun_mvl/mxv
 BYTE   W06
 BYTE   VOL   25*PokemonMysteryDungeonExplorersofSkyInTheMorningSun_mvl/mxv
 BYTE   W06
 BYTE   VOL   24*PokemonMysteryDungeonExplorersofSkyInTheMorningSun_mvl/mxv
 BYTE   W06
 BYTE   VOL   24*PokemonMysteryDungeonExplorersofSkyInTheMorningSun_mvl/mxv
 BYTE   W06
 BYTE   VOL   23*PokemonMysteryDungeonExplorersofSkyInTheMorningSun_mvl/mxv
 BYTE   W06
 BYTE   VOL   23*PokemonMysteryDungeonExplorersofSkyInTheMorningSun_mvl/mxv
 BYTE   W06
 BYTE   VOL   23*PokemonMysteryDungeonExplorersofSkyInTheMorningSun_mvl/mxv
 BYTE   W06
 BYTE   VOL   22*PokemonMysteryDungeonExplorersofSkyInTheMorningSun_mvl/mxv
 BYTE   W06
//  #01 //050   ----------------------------------------
 BYTE   PATT
  POIN2 Label_01685B61
//  #01 //051   ----------------------------------------
 BYTE   EOT
 BYTE   Cn2  v067
 BYTE   W01
 BYTE   VOL   20*PokemonMysteryDungeonExplorersofSkyInTheMorningSun_mvl/mxv
 BYTE   TIE  Dn2  v088
 BYTE   TIE  Fs3
 BYTE   W06
 BYTE   VOL   21*PokemonMysteryDungeonExplorersofSkyInTheMorningSun_mvl/mxv
 BYTE   W06
 BYTE   VOL   21*PokemonMysteryDungeonExplorersofSkyInTheMorningSun_mvl/mxv
 BYTE   W06
 BYTE   VOL   21*PokemonMysteryDungeonExplorersofSkyInTheMorningSun_mvl/mxv
 BYTE   W12
 BYTE   VOL   21*PokemonMysteryDungeonExplorersofSkyInTheMorningSun_mvl/mxv
 BYTE   W06
 BYTE   VOL   22*PokemonMysteryDungeonExplorersofSkyInTheMorningSun_mvl/mxv
 BYTE   W12
 BYTE   VOL   22*PokemonMysteryDungeonExplorersofSkyInTheMorningSun_mvl/mxv
 BYTE   W06
 BYTE   VOL   22*PokemonMysteryDungeonExplorersofSkyInTheMorningSun_mvl/mxv
 BYTE   W06
 BYTE   VOL   23*PokemonMysteryDungeonExplorersofSkyInTheMorningSun_mvl/mxv
 BYTE   W12
 BYTE   VOL   23*PokemonMysteryDungeonExplorersofSkyInTheMorningSun_mvl/mxv
 BYTE   W06
 BYTE   VOL   23*PokemonMysteryDungeonExplorersofSkyInTheMorningSun_mvl/mxv
 BYTE   W12
 BYTE   VOL   24*PokemonMysteryDungeonExplorersofSkyInTheMorningSun_mvl/mxv
 BYTE   W06
//  #01 //052   ----------------------------------------
 BYTE   VOL   24*PokemonMysteryDungeonExplorersofSkyInTheMorningSun_mvl/mxv
 BYTE   W06
 BYTE   VOL   25*PokemonMysteryDungeonExplorersofSkyInTheMorningSun_mvl/mxv
 BYTE   W12
 BYTE   VOL   26*PokemonMysteryDungeonExplorersofSkyInTheMorningSun_mvl/mxv
 BYTE   W06
 BYTE   VOL   26*PokemonMysteryDungeonExplorersofSkyInTheMorningSun_mvl/mxv
 BYTE   W06
 BYTE   VOL   26*PokemonMysteryDungeonExplorersofSkyInTheMorningSun_mvl/mxv
 BYTE   W12
 BYTE   VOL   27*PokemonMysteryDungeonExplorersofSkyInTheMorningSun_mvl/mxv
 BYTE   W06
 BYTE   VOL   27*PokemonMysteryDungeonExplorersofSkyInTheMorningSun_mvl/mxv
 BYTE   W12
 BYTE   VOL   27*PokemonMysteryDungeonExplorersofSkyInTheMorningSun_mvl/mxv
 BYTE   W06
 BYTE   VOL   28*PokemonMysteryDungeonExplorersofSkyInTheMorningSun_mvl/mxv
 BYTE   W06
 BYTE   VOL   28*PokemonMysteryDungeonExplorersofSkyInTheMorningSun_mvl/mxv
 BYTE   W12
 BYTE   VOL   28*PokemonMysteryDungeonExplorersofSkyInTheMorningSun_mvl/mxv
 BYTE   W06
 BYTE   VOL   29*PokemonMysteryDungeonExplorersofSkyInTheMorningSun_mvl/mxv
 BYTE   W12
//  #01 //053   ----------------------------------------
 BYTE   VOL   30*PokemonMysteryDungeonExplorersofSkyInTheMorningSun_mvl/mxv
 BYTE   W06
 BYTE   VOL   30*PokemonMysteryDungeonExplorersofSkyInTheMorningSun_mvl/mxv
 BYTE   W06
 BYTE   VOL   30*PokemonMysteryDungeonExplorersofSkyInTheMorningSun_mvl/mxv
 BYTE   W12
 BYTE   VOL   30*PokemonMysteryDungeonExplorersofSkyInTheMorningSun_mvl/mxv
 BYTE   W06
 BYTE   VOL   31*PokemonMysteryDungeonExplorersofSkyInTheMorningSun_mvl/mxv
 BYTE   W06
 BYTE   VOL   32*PokemonMysteryDungeonExplorersofSkyInTheMorningSun_mvl/mxv
 BYTE   W12
 BYTE   VOL   32*PokemonMysteryDungeonExplorersofSkyInTheMorningSun_mvl/mxv
 BYTE   W06
 BYTE   VOL   33*PokemonMysteryDungeonExplorersofSkyInTheMorningSun_mvl/mxv
 BYTE   W12
 BYTE   VOL   34*PokemonMysteryDungeonExplorersofSkyInTheMorningSun_mvl/mxv
 BYTE   W06
 BYTE   VOL   34*PokemonMysteryDungeonExplorersofSkyInTheMorningSun_mvl/mxv
 BYTE   W06
 BYTE   VOL   34*PokemonMysteryDungeonExplorersofSkyInTheMorningSun_mvl/mxv
 BYTE   W11
 BYTE   EOT
 BYTE   Dn2  v066
 BYTE   W01
 BYTE   N12  Dn2  v028
 BYTE   N12  Fs3
 BYTE   W12
//  #01 //054   ----------------------------------------
 BYTE   Dn2  v020
 BYTE   N12  Fs3
 BYTE   W12
 BYTE   Dn2  v016
 BYTE   N12  Fs3
 BYTE   W12
 BYTE   Dn2  v012
 BYTE   N12  Fs3
 BYTE   W12
 BYTE   Dn2  v008
 BYTE   N12  Fs3
 BYTE   W24
 BYTE   W24
 BYTE   VOL   24*PokemonMysteryDungeonExplorersofSkyInTheMorningSun_mvl/mxv
 BYTE   N92  Gn1  v100
 BYTE   N92  An3
 BYTE   W04
 BYTE   VOL   24*PokemonMysteryDungeonExplorersofSkyInTheMorningSun_mvl/mxv
 BYTE   W04
 BYTE   VOL   25*PokemonMysteryDungeonExplorersofSkyInTheMorningSun_mvl/mxv
 BYTE   W04
//  #01 //055   ----------------------------------------
 BYTE   VOL   26*PokemonMysteryDungeonExplorersofSkyInTheMorningSun_mvl/mxv
 BYTE   W04
 BYTE   VOL   26*PokemonMysteryDungeonExplorersofSkyInTheMorningSun_mvl/mxv
 BYTE   W04
 BYTE   VOL   26*PokemonMysteryDungeonExplorersofSkyInTheMorningSun_mvl/mxv
 BYTE   W04
 BYTE   VOL   27*PokemonMysteryDungeonExplorersofSkyInTheMorningSun_mvl/mxv
 BYTE   W08
 BYTE   VOL   27*PokemonMysteryDungeonExplorersofSkyInTheMorningSun_mvl/mxv
 BYTE   W08
 BYTE   VOL   28*PokemonMysteryDungeonExplorersofSkyInTheMorningSun_mvl/mxv
 BYTE   W08
 BYTE   VOL   29*PokemonMysteryDungeonExplorersofSkyInTheMorningSun_mvl/mxv
 BYTE   W04
 BYTE   VOL   30*PokemonMysteryDungeonExplorersofSkyInTheMorningSun_mvl/mxv
 BYTE   W04
 BYTE   VOL   30*PokemonMysteryDungeonExplorersofSkyInTheMorningSun_mvl/mxv
 BYTE   W04
 BYTE   VOL   30*PokemonMysteryDungeonExplorersofSkyInTheMorningSun_mvl/mxv
 BYTE   W08
 BYTE   VOL   31*PokemonMysteryDungeonExplorersofSkyInTheMorningSun_mvl/mxv
 BYTE   W04
 BYTE   W04
 BYTE   VOL   32*PokemonMysteryDungeonExplorersofSkyInTheMorningSun_mvl/mxv
 BYTE   W08
 BYTE   VOL   34*PokemonMysteryDungeonExplorersofSkyInTheMorningSun_mvl/mxv
 BYTE   W08
 BYTE   VOL   34*PokemonMysteryDungeonExplorersofSkyInTheMorningSun_mvl/mxv
 BYTE   W04
 BYTE   N92  An1
 BYTE   N92  Gn3
 BYTE   W04
 BYTE   VOL   34*PokemonMysteryDungeonExplorersofSkyInTheMorningSun_mvl/mxv
 BYTE   W08
//  #01 //056   ----------------------------------------
 BYTE   VOL   33*PokemonMysteryDungeonExplorersofSkyInTheMorningSun_mvl/mxv
 BYTE   W04
 BYTE   VOL   32*PokemonMysteryDungeonExplorersofSkyInTheMorningSun_mvl/mxv
 BYTE   W04
 BYTE   VOL   32*PokemonMysteryDungeonExplorersofSkyInTheMorningSun_mvl/mxv
 BYTE   W04
 BYTE   VOL   31*PokemonMysteryDungeonExplorersofSkyInTheMorningSun_mvl/mxv
 BYTE   W04
 BYTE   VOL   30*PokemonMysteryDungeonExplorersofSkyInTheMorningSun_mvl/mxv
 BYTE   W04
 BYTE   VOL   30*PokemonMysteryDungeonExplorersofSkyInTheMorningSun_mvl/mxv
 BYTE   W04
 BYTE   VOL   30*PokemonMysteryDungeonExplorersofSkyInTheMorningSun_mvl/mxv
 BYTE   W04
 BYTE   VOL   30*PokemonMysteryDungeonExplorersofSkyInTheMorningSun_mvl/mxv
 BYTE   W04
 BYTE   VOL   29*PokemonMysteryDungeonExplorersofSkyInTheMorningSun_mvl/mxv
 BYTE   W04
 BYTE   VOL   28*PokemonMysteryDungeonExplorersofSkyInTheMorningSun_mvl/mxv
 BYTE   W04
 BYTE   VOL   28*PokemonMysteryDungeonExplorersofSkyInTheMorningSun_mvl/mxv
 BYTE   W04
 BYTE   VOL   28*PokemonMysteryDungeonExplorersofSkyInTheMorningSun_mvl/mxv
 BYTE   W04
 BYTE   VOL   27*PokemonMysteryDungeonExplorersofSkyInTheMorningSun_mvl/mxv
 BYTE   W04
 BYTE   VOL   27*PokemonMysteryDungeonExplorersofSkyInTheMorningSun_mvl/mxv
 BYTE   W04
 BYTE   VOL   27*PokemonMysteryDungeonExplorersofSkyInTheMorningSun_mvl/mxv
 BYTE   W04
 BYTE   VOL   26*PokemonMysteryDungeonExplorersofSkyInTheMorningSun_mvl/mxv
 BYTE   W04
 BYTE   VOL   26*PokemonMysteryDungeonExplorersofSkyInTheMorningSun_mvl/mxv
 BYTE   W04
 BYTE   VOL   26*PokemonMysteryDungeonExplorersofSkyInTheMorningSun_mvl/mxv
 BYTE   W04
 BYTE   VOL   25*PokemonMysteryDungeonExplorersofSkyInTheMorningSun_mvl/mxv
 BYTE   W04
 BYTE   VOL   24*PokemonMysteryDungeonExplorersofSkyInTheMorningSun_mvl/mxv
 BYTE   W04
 BYTE   VOL   24*PokemonMysteryDungeonExplorersofSkyInTheMorningSun_mvl/mxv
 BYTE   W04
 BYTE   VOL   23*PokemonMysteryDungeonExplorersofSkyInTheMorningSun_mvl/mxv
 BYTE   N92  Bn1
 BYTE   TIE  Fs3
 BYTE   W04
 BYTE   VOL   23*PokemonMysteryDungeonExplorersofSkyInTheMorningSun_mvl/mxv
 BYTE   W04
 BYTE   VOL   23*PokemonMysteryDungeonExplorersofSkyInTheMorningSun_mvl/mxv
 BYTE   W04
//  #01 //057   ----------------------------------------
 BYTE   VOL   23*PokemonMysteryDungeonExplorersofSkyInTheMorningSun_mvl/mxv
 BYTE   W04
 BYTE   VOL   23*PokemonMysteryDungeonExplorersofSkyInTheMorningSun_mvl/mxv
 BYTE   W04
 BYTE   VOL   24*PokemonMysteryDungeonExplorersofSkyInTheMorningSun_mvl/mxv
 BYTE   W04
 BYTE   VOL   24*PokemonMysteryDungeonExplorersofSkyInTheMorningSun_mvl/mxv
 BYTE   W04
 BYTE   VOL   26*PokemonMysteryDungeonExplorersofSkyInTheMorningSun_mvl/mxv
 BYTE   W04
 BYTE   VOL   26*PokemonMysteryDungeonExplorersofSkyInTheMorningSun_mvl/mxv
 BYTE   W04
 BYTE   VOL   26*PokemonMysteryDungeonExplorersofSkyInTheMorningSun_mvl/mxv
 BYTE   W04
 BYTE   VOL   27*PokemonMysteryDungeonExplorersofSkyInTheMorningSun_mvl/mxv
 BYTE   W04
 BYTE   VOL   27*PokemonMysteryDungeonExplorersofSkyInTheMorningSun_mvl/mxv
 BYTE   W04
 BYTE   VOL   28*PokemonMysteryDungeonExplorersofSkyInTheMorningSun_mvl/mxv
 BYTE   W04
 BYTE   VOL   28*PokemonMysteryDungeonExplorersofSkyInTheMorningSun_mvl/mxv
 BYTE   W04
 BYTE   VOL   29*PokemonMysteryDungeonExplorersofSkyInTheMorningSun_mvl/mxv
 BYTE   W04
 BYTE   VOL   30*PokemonMysteryDungeonExplorersofSkyInTheMorningSun_mvl/mxv
 BYTE   W04
 BYTE   VOL   30*PokemonMysteryDungeonExplorersofSkyInTheMorningSun_mvl/mxv
 BYTE   W04
 BYTE   VOL   30*PokemonMysteryDungeonExplorersofSkyInTheMorningSun_mvl/mxv
 BYTE   W04
 BYTE   VOL   31*PokemonMysteryDungeonExplorersofSkyInTheMorningSun_mvl/mxv
 BYTE   W04
 BYTE   VOL   32*PokemonMysteryDungeonExplorersofSkyInTheMorningSun_mvl/mxv
 BYTE   W04
 BYTE   VOL   33*PokemonMysteryDungeonExplorersofSkyInTheMorningSun_mvl/mxv
 BYTE   W04
 BYTE   VOL   34*PokemonMysteryDungeonExplorersofSkyInTheMorningSun_mvl/mxv
 BYTE   W04
 BYTE   VOL   34*PokemonMysteryDungeonExplorersofSkyInTheMorningSun_mvl/mxv
 BYTE   W08
 BYTE   N92  An1
 BYTE   W08
 BYTE   VOL   34*PokemonMysteryDungeonExplorersofSkyInTheMorningSun_mvl/mxv
 BYTE   W04
//  #01 //058   ----------------------------------------
 BYTE   VOL   34*PokemonMysteryDungeonExplorersofSkyInTheMorningSun_mvl/mxv
 BYTE   W04
 BYTE   VOL   33*PokemonMysteryDungeonExplorersofSkyInTheMorningSun_mvl/mxv
 BYTE   W04
 BYTE   VOL   32*PokemonMysteryDungeonExplorersofSkyInTheMorningSun_mvl/mxv
 BYTE   W04
 BYTE   VOL   31*PokemonMysteryDungeonExplorersofSkyInTheMorningSun_mvl/mxv
 BYTE   W04
 BYTE   VOL   30*PokemonMysteryDungeonExplorersofSkyInTheMorningSun_mvl/mxv
 BYTE   W04
 BYTE   VOL   30*PokemonMysteryDungeonExplorersofSkyInTheMorningSun_mvl/mxv
 BYTE   W04
 BYTE   VOL   30*PokemonMysteryDungeonExplorersofSkyInTheMorningSun_mvl/mxv
 BYTE   W04
 BYTE   VOL   30*PokemonMysteryDungeonExplorersofSkyInTheMorningSun_mvl/mxv
 BYTE   W04
 BYTE   VOL   29*PokemonMysteryDungeonExplorersofSkyInTheMorningSun_mvl/mxv
 BYTE   W04
 BYTE   VOL   28*PokemonMysteryDungeonExplorersofSkyInTheMorningSun_mvl/mxv
 BYTE   W04
 BYTE   VOL   28*PokemonMysteryDungeonExplorersofSkyInTheMorningSun_mvl/mxv
 BYTE   W04
 BYTE   VOL   27*PokemonMysteryDungeonExplorersofSkyInTheMorningSun_mvl/mxv
 BYTE   W04
 BYTE   VOL   27*PokemonMysteryDungeonExplorersofSkyInTheMorningSun_mvl/mxv
 BYTE   W04
 BYTE   VOL   27*PokemonMysteryDungeonExplorersofSkyInTheMorningSun_mvl/mxv
 BYTE   W04
 BYTE   VOL   26*PokemonMysteryDungeonExplorersofSkyInTheMorningSun_mvl/mxv
 BYTE   W04
 BYTE   VOL   26*PokemonMysteryDungeonExplorersofSkyInTheMorningSun_mvl/mxv
 BYTE   W04
 BYTE   VOL   26*PokemonMysteryDungeonExplorersofSkyInTheMorningSun_mvl/mxv
 BYTE   W04
 BYTE   VOL   25*PokemonMysteryDungeonExplorersofSkyInTheMorningSun_mvl/mxv
 BYTE   W04
 BYTE   VOL   24*PokemonMysteryDungeonExplorersofSkyInTheMorningSun_mvl/mxv
 BYTE   W04
 BYTE   VOL   23*PokemonMysteryDungeonExplorersofSkyInTheMorningSun_mvl/mxv
 BYTE   W04
 BYTE   VOL   23*PokemonMysteryDungeonExplorersofSkyInTheMorningSun_mvl/mxv
 BYTE   W03
 BYTE   EOT
 BYTE   Fs3
 BYTE   W01
 BYTE   VOL   24*PokemonMysteryDungeonExplorersofSkyInTheMorningSun_mvl/mxv
 BYTE   N92  Gn1
 BYTE   N92  An3
 BYTE   W04
 BYTE   VOL   25*PokemonMysteryDungeonExplorersofSkyInTheMorningSun_mvl/mxv
 BYTE   W04
 BYTE   VOL   26*PokemonMysteryDungeonExplorersofSkyInTheMorningSun_mvl/mxv
 BYTE   W08
//  #01 //059   ----------------------------------------
 BYTE   VOL   26*PokemonMysteryDungeonExplorersofSkyInTheMorningSun_mvl/mxv
 BYTE   W08
 BYTE   VOL   27*PokemonMysteryDungeonExplorersofSkyInTheMorningSun_mvl/mxv
 BYTE   W04
 BYTE   VOL   27*PokemonMysteryDungeonExplorersofSkyInTheMorningSun_mvl/mxv
 BYTE   W04
 BYTE   VOL   27*PokemonMysteryDungeonExplorersofSkyInTheMorningSun_mvl/mxv
 BYTE   W04
 BYTE   VOL   28*PokemonMysteryDungeonExplorersofSkyInTheMorningSun_mvl/mxv
 BYTE   W04
 BYTE   VOL   28*PokemonMysteryDungeonExplorersofSkyInTheMorningSun_mvl/mxv
 BYTE   W04
 BYTE   VOL   28*PokemonMysteryDungeonExplorersofSkyInTheMorningSun_mvl/mxv
 BYTE   W04
 BYTE   VOL   29*PokemonMysteryDungeonExplorersofSkyInTheMorningSun_mvl/mxv
 BYTE   W04
 BYTE   VOL   30*PokemonMysteryDungeonExplorersofSkyInTheMorningSun_mvl/mxv
 BYTE   W04
 BYTE   VOL   30*PokemonMysteryDungeonExplorersofSkyInTheMorningSun_mvl/mxv
 BYTE   W08
 BYTE   VOL   30*PokemonMysteryDungeonExplorersofSkyInTheMorningSun_mvl/mxv
 BYTE   W04
 BYTE   VOL   30*PokemonMysteryDungeonExplorersofSkyInTheMorningSun_mvl/mxv
 BYTE   W04
 BYTE   VOL   31*PokemonMysteryDungeonExplorersofSkyInTheMorningSun_mvl/mxv
 BYTE   W04
 BYTE   VOL   32*PokemonMysteryDungeonExplorersofSkyInTheMorningSun_mvl/mxv
 BYTE   W04
 BYTE   VOL   32*PokemonMysteryDungeonExplorersofSkyInTheMorningSun_mvl/mxv
 BYTE   W04
 BYTE   VOL   33*PokemonMysteryDungeonExplorersofSkyInTheMorningSun_mvl/mxv
 BYTE   W04
 BYTE   VOL   34*PokemonMysteryDungeonExplorersofSkyInTheMorningSun_mvl/mxv
 BYTE   W04
 BYTE   VOL   34*PokemonMysteryDungeonExplorersofSkyInTheMorningSun_mvl/mxv
 BYTE   W04
 BYTE   VOL   34*PokemonMysteryDungeonExplorersofSkyInTheMorningSun_mvl/mxv
 BYTE   N92  An1
 BYTE   N92  Gn3
 BYTE   W04
 BYTE   VOL   34*PokemonMysteryDungeonExplorersofSkyInTheMorningSun_mvl/mxv
 BYTE   W04
 BYTE   VOL   33*PokemonMysteryDungeonExplorersofSkyInTheMorningSun_mvl/mxv
 BYTE   W04
 BYTE   VOL   32*PokemonMysteryDungeonExplorersofSkyInTheMorningSun_mvl/mxv
 BYTE   W04
//  #01 //060   ----------------------------------------
 BYTE   VOL   31*PokemonMysteryDungeonExplorersofSkyInTheMorningSun_mvl/mxv
 BYTE   W08
 BYTE   VOL   30*PokemonMysteryDungeonExplorersofSkyInTheMorningSun_mvl/mxv
 BYTE   W04
 BYTE   VOL   30*PokemonMysteryDungeonExplorersofSkyInTheMorningSun_mvl/mxv
 BYTE   W08
 BYTE   VOL   29*PokemonMysteryDungeonExplorersofSkyInTheMorningSun_mvl/mxv
 BYTE   W04
 BYTE   VOL   28*PokemonMysteryDungeonExplorersofSkyInTheMorningSun_mvl/mxv
 BYTE   W04
 BYTE   VOL   28*PokemonMysteryDungeonExplorersofSkyInTheMorningSun_mvl/mxv
 BYTE   W04
 BYTE   VOL   28*PokemonMysteryDungeonExplorersofSkyInTheMorningSun_mvl/mxv
 BYTE   W04
 BYTE   VOL   27*PokemonMysteryDungeonExplorersofSkyInTheMorningSun_mvl/mxv
 BYTE   W04
 BYTE   VOL   27*PokemonMysteryDungeonExplorersofSkyInTheMorningSun_mvl/mxv
 BYTE   W04
 BYTE   VOL   27*PokemonMysteryDungeonExplorersofSkyInTheMorningSun_mvl/mxv
 BYTE   W04
 BYTE   VOL   26*PokemonMysteryDungeonExplorersofSkyInTheMorningSun_mvl/mxv
 BYTE   W04
 BYTE   VOL   26*PokemonMysteryDungeonExplorersofSkyInTheMorningSun_mvl/mxv
 BYTE   W04
 BYTE   VOL   26*PokemonMysteryDungeonExplorersofSkyInTheMorningSun_mvl/mxv
 BYTE   W04
 BYTE   VOL   25*PokemonMysteryDungeonExplorersofSkyInTheMorningSun_mvl/mxv
 BYTE   W04
 BYTE   VOL   24*PokemonMysteryDungeonExplorersofSkyInTheMorningSun_mvl/mxv
 BYTE   W04
 BYTE   VOL   24*PokemonMysteryDungeonExplorersofSkyInTheMorningSun_mvl/mxv
 BYTE   W04
 BYTE   VOL   23*PokemonMysteryDungeonExplorersofSkyInTheMorningSun_mvl/mxv
 BYTE   W04
 BYTE   VOL   23*PokemonMysteryDungeonExplorersofSkyInTheMorningSun_mvl/mxv
 BYTE   W04
 BYTE   VOL   24*PokemonMysteryDungeonExplorersofSkyInTheMorningSun_mvl/mxv
 BYTE   N92  Bn1
 BYTE   TIE  Fs3
 BYTE   W04
 BYTE   VOL   24*PokemonMysteryDungeonExplorersofSkyInTheMorningSun_mvl/mxv
 BYTE   W04
 BYTE   VOL   25*PokemonMysteryDungeonExplorersofSkyInTheMorningSun_mvl/mxv
 BYTE   W04
 BYTE   VOL   26*PokemonMysteryDungeonExplorersofSkyInTheMorningSun_mvl/mxv
 BYTE   W04
//  #01 //061   ----------------------------------------
 BYTE   VOL   26*PokemonMysteryDungeonExplorersofSkyInTheMorningSun_mvl/mxv
 BYTE   W04
 BYTE   VOL   26*PokemonMysteryDungeonExplorersofSkyInTheMorningSun_mvl/mxv
 BYTE   W04
 BYTE   VOL   27*PokemonMysteryDungeonExplorersofSkyInTheMorningSun_mvl/mxv
 BYTE   W08
 BYTE   VOL   27*PokemonMysteryDungeonExplorersofSkyInTheMorningSun_mvl/mxv
 BYTE   W08
 BYTE   VOL   28*PokemonMysteryDungeonExplorersofSkyInTheMorningSun_mvl/mxv
 BYTE   W04
 BYTE   VOL   28*PokemonMysteryDungeonExplorersofSkyInTheMorningSun_mvl/mxv
 BYTE   W04
 BYTE   VOL   29*PokemonMysteryDungeonExplorersofSkyInTheMorningSun_mvl/mxv
 BYTE   W04
 BYTE   VOL   30*PokemonMysteryDungeonExplorersofSkyInTheMorningSun_mvl/mxv
 BYTE   W04
 BYTE   VOL   30*PokemonMysteryDungeonExplorersofSkyInTheMorningSun_mvl/mxv
 BYTE   W04
 BYTE   VOL   30*PokemonMysteryDungeonExplorersofSkyInTheMorningSun_mvl/mxv
 BYTE   W08
 BYTE   VOL   31*PokemonMysteryDungeonExplorersofSkyInTheMorningSun_mvl/mxv
 BYTE   W04
 BYTE   W04
 BYTE   VOL   32*PokemonMysteryDungeonExplorersofSkyInTheMorningSun_mvl/mxv
 BYTE   W08
 BYTE   VOL   34*PokemonMysteryDungeonExplorersofSkyInTheMorningSun_mvl/mxv
 BYTE   W08
 BYTE   VOL   34*PokemonMysteryDungeonExplorersofSkyInTheMorningSun_mvl/mxv
 BYTE   W04
 BYTE   N92  An1
 BYTE   W04
 BYTE   VOL   34*PokemonMysteryDungeonExplorersofSkyInTheMorningSun_mvl/mxv
 BYTE   W08
 BYTE   VOL   33*PokemonMysteryDungeonExplorersofSkyInTheMorningSun_mvl/mxv
 BYTE   W04
//  #01 //062   ----------------------------------------
 BYTE   VOL   32*PokemonMysteryDungeonExplorersofSkyInTheMorningSun_mvl/mxv
 BYTE   W04
 BYTE   VOL   32*PokemonMysteryDungeonExplorersofSkyInTheMorningSun_mvl/mxv
 BYTE   W04
 BYTE   VOL   31*PokemonMysteryDungeonExplorersofSkyInTheMorningSun_mvl/mxv
 BYTE   W04
 BYTE   VOL   30*PokemonMysteryDungeonExplorersofSkyInTheMorningSun_mvl/mxv
 BYTE   W04
 BYTE   VOL   30*PokemonMysteryDungeonExplorersofSkyInTheMorningSun_mvl/mxv
 BYTE   W04
 BYTE   VOL   30*PokemonMysteryDungeonExplorersofSkyInTheMorningSun_mvl/mxv
 BYTE   W04
 BYTE   VOL   30*PokemonMysteryDungeonExplorersofSkyInTheMorningSun_mvl/mxv
 BYTE   W04
 BYTE   VOL   29*PokemonMysteryDungeonExplorersofSkyInTheMorningSun_mvl/mxv
 BYTE   W04
 BYTE   VOL   28*PokemonMysteryDungeonExplorersofSkyInTheMorningSun_mvl/mxv
 BYTE   W04
 BYTE   VOL   28*PokemonMysteryDungeonExplorersofSkyInTheMorningSun_mvl/mxv
 BYTE   W04
 BYTE   VOL   28*PokemonMysteryDungeonExplorersofSkyInTheMorningSun_mvl/mxv
 BYTE   W04
 BYTE   VOL   27*PokemonMysteryDungeonExplorersofSkyInTheMorningSun_mvl/mxv
 BYTE   W04
 BYTE   VOL   27*PokemonMysteryDungeonExplorersofSkyInTheMorningSun_mvl/mxv
 BYTE   W04
 BYTE   VOL   27*PokemonMysteryDungeonExplorersofSkyInTheMorningSun_mvl/mxv
 BYTE   W04
 BYTE   W04
 BYTE   VOL   26*PokemonMysteryDungeonExplorersofSkyInTheMorningSun_mvl/mxv
 BYTE   W04
 BYTE   VOL   26*PokemonMysteryDungeonExplorersofSkyInTheMorningSun_mvl/mxv
 BYTE   W04
 BYTE   VOL   26*PokemonMysteryDungeonExplorersofSkyInTheMorningSun_mvl/mxv
 BYTE   W04
 BYTE   VOL   24*PokemonMysteryDungeonExplorersofSkyInTheMorningSun_mvl/mxv
 BYTE   W04
 BYTE   VOL   25*PokemonMysteryDungeonExplorersofSkyInTheMorningSun_mvl/mxv
 BYTE   W03
 BYTE   EOT
 BYTE   Fs3
 BYTE   W01
 BYTE   VOL   26*PokemonMysteryDungeonExplorersofSkyInTheMorningSun_mvl/mxv
 BYTE   N92  Gn1
 BYTE   N92  An3
 BYTE   W08
 BYTE   VOL   26*PokemonMysteryDungeonExplorersofSkyInTheMorningSun_mvl/mxv
 BYTE   W04
 BYTE   VOL   26*PokemonMysteryDungeonExplorersofSkyInTheMorningSun_mvl/mxv
 BYTE   W04
//  #01 //063   ----------------------------------------
 BYTE   VOL   27*PokemonMysteryDungeonExplorersofSkyInTheMorningSun_mvl/mxv
 BYTE   W04
 BYTE   VOL   27*PokemonMysteryDungeonExplorersofSkyInTheMorningSun_mvl/mxv
 BYTE   W04
 BYTE   VOL   27*PokemonMysteryDungeonExplorersofSkyInTheMorningSun_mvl/mxv
 BYTE   W04
 BYTE   VOL   28*PokemonMysteryDungeonExplorersofSkyInTheMorningSun_mvl/mxv
 BYTE   W04
 BYTE   VOL   28*PokemonMysteryDungeonExplorersofSkyInTheMorningSun_mvl/mxv
 BYTE   W08
 BYTE   VOL   28*PokemonMysteryDungeonExplorersofSkyInTheMorningSun_mvl/mxv
 BYTE   W04
 BYTE   VOL   29*PokemonMysteryDungeonExplorersofSkyInTheMorningSun_mvl/mxv
 BYTE   W04
 BYTE   VOL   30*PokemonMysteryDungeonExplorersofSkyInTheMorningSun_mvl/mxv
 BYTE   W04
 BYTE   VOL   30*PokemonMysteryDungeonExplorersofSkyInTheMorningSun_mvl/mxv
 BYTE   W04
 BYTE   VOL   30*PokemonMysteryDungeonExplorersofSkyInTheMorningSun_mvl/mxv
 BYTE   W08
 BYTE   VOL   31*PokemonMysteryDungeonExplorersofSkyInTheMorningSun_mvl/mxv
 BYTE   W08
 BYTE   VOL   32*PokemonMysteryDungeonExplorersofSkyInTheMorningSun_mvl/mxv
 BYTE   W04
 BYTE   VOL   32*PokemonMysteryDungeonExplorersofSkyInTheMorningSun_mvl/mxv
 BYTE   W04
 BYTE   VOL   33*PokemonMysteryDungeonExplorersofSkyInTheMorningSun_mvl/mxv
 BYTE   W04
 BYTE   VOL   34*PokemonMysteryDungeonExplorersofSkyInTheMorningSun_mvl/mxv
 BYTE   W04
 BYTE   VOL   34*PokemonMysteryDungeonExplorersofSkyInTheMorningSun_mvl/mxv
 BYTE   W04
 BYTE   VOL   34*PokemonMysteryDungeonExplorersofSkyInTheMorningSun_mvl/mxv
 BYTE   W04
 BYTE   N92  An1
 BYTE   N92  Gn3
 BYTE   W04
 BYTE   VOL   34*PokemonMysteryDungeonExplorersofSkyInTheMorningSun_mvl/mxv
 BYTE   W08
 BYTE   VOL   33*PokemonMysteryDungeonExplorersofSkyInTheMorningSun_mvl/mxv
 BYTE   W04
//  #01 //064   ----------------------------------------
 BYTE   VOL   32*PokemonMysteryDungeonExplorersofSkyInTheMorningSun_mvl/mxv
 BYTE   W04
 BYTE   VOL   32*PokemonMysteryDungeonExplorersofSkyInTheMorningSun_mvl/mxv
 BYTE   W04
 BYTE   VOL   31*PokemonMysteryDungeonExplorersofSkyInTheMorningSun_mvl/mxv
 BYTE   W04
 BYTE   VOL   30*PokemonMysteryDungeonExplorersofSkyInTheMorningSun_mvl/mxv
 BYTE   W04
 BYTE   VOL   30*PokemonMysteryDungeonExplorersofSkyInTheMorningSun_mvl/mxv
 BYTE   W04
 BYTE   VOL   30*PokemonMysteryDungeonExplorersofSkyInTheMorningSun_mvl/mxv
 BYTE   W08
 BYTE   VOL   30*PokemonMysteryDungeonExplorersofSkyInTheMorningSun_mvl/mxv
 BYTE   W04
 BYTE   VOL   29*PokemonMysteryDungeonExplorersofSkyInTheMorningSun_mvl/mxv
 BYTE   W04
 BYTE   VOL   28*PokemonMysteryDungeonExplorersofSkyInTheMorningSun_mvl/mxv
 BYTE   W04
 BYTE   VOL   28*PokemonMysteryDungeonExplorersofSkyInTheMorningSun_mvl/mxv
 BYTE   W04
 BYTE   VOL   28*PokemonMysteryDungeonExplorersofSkyInTheMorningSun_mvl/mxv
 BYTE   W04
 BYTE   VOL   27*PokemonMysteryDungeonExplorersofSkyInTheMorningSun_mvl/mxv
 BYTE   W04
 BYTE   VOL   27*PokemonMysteryDungeonExplorersofSkyInTheMorningSun_mvl/mxv
 BYTE   W04
 BYTE   VOL   27*PokemonMysteryDungeonExplorersofSkyInTheMorningSun_mvl/mxv
 BYTE   W04
 BYTE   VOL   26*PokemonMysteryDungeonExplorersofSkyInTheMorningSun_mvl/mxv
 BYTE   W08
 BYTE   VOL   26*PokemonMysteryDungeonExplorersofSkyInTheMorningSun_mvl/mxv
 BYTE   W04
 BYTE   VOL   26*PokemonMysteryDungeonExplorersofSkyInTheMorningSun_mvl/mxv
 BYTE   W04
 BYTE   VOL   25*PokemonMysteryDungeonExplorersofSkyInTheMorningSun_mvl/mxv
 BYTE   W04
 BYTE   VOL   24*PokemonMysteryDungeonExplorersofSkyInTheMorningSun_mvl/mxv
 BYTE   N92  Bn1
 BYTE   TIE  Fs3
 BYTE   W04
 BYTE   VOL   24*PokemonMysteryDungeonExplorersofSkyInTheMorningSun_mvl/mxv
 BYTE   W04
 BYTE   VOL   25*PokemonMysteryDungeonExplorersofSkyInTheMorningSun_mvl/mxv
 BYTE   W04
 BYTE   VOL   26*PokemonMysteryDungeonExplorersofSkyInTheMorningSun_mvl/mxv
 BYTE   W04
//  #01 //065   ----------------------------------------
 BYTE   VOL   26*PokemonMysteryDungeonExplorersofSkyInTheMorningSun_mvl/mxv
 BYTE   W04
 BYTE   VOL   26*PokemonMysteryDungeonExplorersofSkyInTheMorningSun_mvl/mxv
 BYTE   W04
 BYTE   VOL   27*PokemonMysteryDungeonExplorersofSkyInTheMorningSun_mvl/mxv
 BYTE   W08
 BYTE   VOL   27*PokemonMysteryDungeonExplorersofSkyInTheMorningSun_mvl/mxv
 BYTE   W08
 BYTE   VOL   28*PokemonMysteryDungeonExplorersofSkyInTheMorningSun_mvl/mxv
 BYTE   W08
 BYTE   VOL   28*PokemonMysteryDungeonExplorersofSkyInTheMorningSun_mvl/mxv
 BYTE   W04
 BYTE   VOL   29*PokemonMysteryDungeonExplorersofSkyInTheMorningSun_mvl/mxv
 BYTE   W04
 BYTE   VOL   30*PokemonMysteryDungeonExplorersofSkyInTheMorningSun_mvl/mxv
 BYTE   W04
 BYTE   VOL   30*PokemonMysteryDungeonExplorersofSkyInTheMorningSun_mvl/mxv
 BYTE   W04
 BYTE   VOL   30*PokemonMysteryDungeonExplorersofSkyInTheMorningSun_mvl/mxv
 BYTE   W04
 BYTE   VOL   30*PokemonMysteryDungeonExplorersofSkyInTheMorningSun_mvl/mxv
 BYTE   W04
 BYTE   VOL   31*PokemonMysteryDungeonExplorersofSkyInTheMorningSun_mvl/mxv
 BYTE   W04
 BYTE   VOL   32*PokemonMysteryDungeonExplorersofSkyInTheMorningSun_mvl/mxv
 BYTE   W04
 BYTE   VOL   32*PokemonMysteryDungeonExplorersofSkyInTheMorningSun_mvl/mxv
 BYTE   W04
 BYTE   VOL   33*PokemonMysteryDungeonExplorersofSkyInTheMorningSun_mvl/mxv
 BYTE   W04
 BYTE   VOL   34*PokemonMysteryDungeonExplorersofSkyInTheMorningSun_mvl/mxv
 BYTE   W04
 BYTE   VOL   34*PokemonMysteryDungeonExplorersofSkyInTheMorningSun_mvl/mxv
 BYTE   W04
 BYTE   VOL   34*PokemonMysteryDungeonExplorersofSkyInTheMorningSun_mvl/mxv
 BYTE   N92  An1
 BYTE   W04
 BYTE   VOL   34*PokemonMysteryDungeonExplorersofSkyInTheMorningSun_mvl/mxv
 BYTE   W08
 BYTE   VOL   33*PokemonMysteryDungeonExplorersofSkyInTheMorningSun_mvl/mxv
 BYTE   W04
//  #01 //066   ----------------------------------------
 BYTE   VOL   32*PokemonMysteryDungeonExplorersofSkyInTheMorningSun_mvl/mxv
 BYTE   W04
 BYTE   VOL   32*PokemonMysteryDungeonExplorersofSkyInTheMorningSun_mvl/mxv
 BYTE   W04
 BYTE   VOL   31*PokemonMysteryDungeonExplorersofSkyInTheMorningSun_mvl/mxv
 BYTE   W04
 BYTE   VOL   30*PokemonMysteryDungeonExplorersofSkyInTheMorningSun_mvl/mxv
 BYTE   W04
 BYTE   VOL   30*PokemonMysteryDungeonExplorersofSkyInTheMorningSun_mvl/mxv
 BYTE   W08
 BYTE   VOL   30*PokemonMysteryDungeonExplorersofSkyInTheMorningSun_mvl/mxv
 BYTE   W04
 BYTE   VOL   30*PokemonMysteryDungeonExplorersofSkyInTheMorningSun_mvl/mxv
 BYTE   W04
 BYTE   VOL   29*PokemonMysteryDungeonExplorersofSkyInTheMorningSun_mvl/mxv
 BYTE   W04
 BYTE   VOL   28*PokemonMysteryDungeonExplorersofSkyInTheMorningSun_mvl/mxv
 BYTE   W04
 BYTE   VOL   28*PokemonMysteryDungeonExplorersofSkyInTheMorningSun_mvl/mxv
 BYTE   W08
 BYTE   VOL   28*PokemonMysteryDungeonExplorersofSkyInTheMorningSun_mvl/mxv
 BYTE   W04
 BYTE   VOL   27*PokemonMysteryDungeonExplorersofSkyInTheMorningSun_mvl/mxv
 BYTE   W04
 BYTE   VOL   27*PokemonMysteryDungeonExplorersofSkyInTheMorningSun_mvl/mxv
 BYTE   W04
 BYTE   VOL   27*PokemonMysteryDungeonExplorersofSkyInTheMorningSun_mvl/mxv
 BYTE   W04
 BYTE   VOL   26*PokemonMysteryDungeonExplorersofSkyInTheMorningSun_mvl/mxv
 BYTE   W08
 BYTE   VOL   26*PokemonMysteryDungeonExplorersofSkyInTheMorningSun_mvl/mxv
 BYTE   W04
 BYTE   VOL   26*PokemonMysteryDungeonExplorersofSkyInTheMorningSun_mvl/mxv
 BYTE   W03
 BYTE   EOT
 BYTE   Fs3
 BYTE   W01
 BYTE   N92  Gn1
 BYTE   TIE  Fs3
 BYTE   W04
 BYTE   VOL   26*PokemonMysteryDungeonExplorersofSkyInTheMorningSun_mvl/mxv
 BYTE   W04
 BYTE   VOL   27*PokemonMysteryDungeonExplorersofSkyInTheMorningSun_mvl/mxv
 BYTE   W04
 BYTE   VOL   27*PokemonMysteryDungeonExplorersofSkyInTheMorningSun_mvl/mxv
 BYTE   W04
//  #01 //067   ----------------------------------------
 BYTE   VOL   27*PokemonMysteryDungeonExplorersofSkyInTheMorningSun_mvl/mxv
 BYTE   W08
 BYTE   VOL   28*PokemonMysteryDungeonExplorersofSkyInTheMorningSun_mvl/mxv
 BYTE   W04
 BYTE   VOL   28*PokemonMysteryDungeonExplorersofSkyInTheMorningSun_mvl/mxv
 BYTE   W04
 BYTE   VOL   28*PokemonMysteryDungeonExplorersofSkyInTheMorningSun_mvl/mxv
 BYTE   W04
 BYTE   VOL   29*PokemonMysteryDungeonExplorersofSkyInTheMorningSun_mvl/mxv
 BYTE   W08
 BYTE   VOL   30*PokemonMysteryDungeonExplorersofSkyInTheMorningSun_mvl/mxv
 BYTE   W04
 BYTE   VOL   30*PokemonMysteryDungeonExplorersofSkyInTheMorningSun_mvl/mxv
 BYTE   W04
 BYTE   VOL   30*PokemonMysteryDungeonExplorersofSkyInTheMorningSun_mvl/mxv
 BYTE   W08
 BYTE   VOL   30*PokemonMysteryDungeonExplorersofSkyInTheMorningSun_mvl/mxv
 BYTE   W04
 BYTE   VOL   31*PokemonMysteryDungeonExplorersofSkyInTheMorningSun_mvl/mxv
 BYTE   W04
 BYTE   VOL   32*PokemonMysteryDungeonExplorersofSkyInTheMorningSun_mvl/mxv
 BYTE   W04
 BYTE   VOL   32*PokemonMysteryDungeonExplorersofSkyInTheMorningSun_mvl/mxv
 BYTE   W08
 BYTE   VOL   33*PokemonMysteryDungeonExplorersofSkyInTheMorningSun_mvl/mxv
 BYTE   W04
 BYTE   VOL   34*PokemonMysteryDungeonExplorersofSkyInTheMorningSun_mvl/mxv
 BYTE   W04
 BYTE   VOL   34*PokemonMysteryDungeonExplorersofSkyInTheMorningSun_mvl/mxv
 BYTE   W04
 BYTE   VOL   34*PokemonMysteryDungeonExplorersofSkyInTheMorningSun_mvl/mxv
 BYTE   W04
 BYTE   N92  Gs1
 BYTE   W08
 BYTE   VOL   34*PokemonMysteryDungeonExplorersofSkyInTheMorningSun_mvl/mxv
 BYTE   W04
 BYTE   VOL   34*PokemonMysteryDungeonExplorersofSkyInTheMorningSun_mvl/mxv
 BYTE   W08
//  #01 //068   ----------------------------------------
 BYTE   VOL   33*PokemonMysteryDungeonExplorersofSkyInTheMorningSun_mvl/mxv
 BYTE   W04
 BYTE   VOL   32*PokemonMysteryDungeonExplorersofSkyInTheMorningSun_mvl/mxv
 BYTE   W08
 BYTE   VOL   32*PokemonMysteryDungeonExplorersofSkyInTheMorningSun_mvl/mxv
 BYTE   W08
 BYTE   VOL   31*PokemonMysteryDungeonExplorersofSkyInTheMorningSun_mvl/mxv
 BYTE   W08
 BYTE   VOL   30*PokemonMysteryDungeonExplorersofSkyInTheMorningSun_mvl/mxv
 BYTE   W04
 BYTE   VOL   30*PokemonMysteryDungeonExplorersofSkyInTheMorningSun_mvl/mxv
 BYTE   W08
 BYTE   VOL   30*PokemonMysteryDungeonExplorersofSkyInTheMorningSun_mvl/mxv
 BYTE   W08
 BYTE   VOL   30*PokemonMysteryDungeonExplorersofSkyInTheMorningSun_mvl/mxv
 BYTE   W04
 BYTE   VOL   29*PokemonMysteryDungeonExplorersofSkyInTheMorningSun_mvl/mxv
 BYTE   W08
 BYTE   VOL   28*PokemonMysteryDungeonExplorersofSkyInTheMorningSun_mvl/mxv
 BYTE   W04
 BYTE   VOL   28*PokemonMysteryDungeonExplorersofSkyInTheMorningSun_mvl/mxv
 BYTE   W04
 BYTE   VOL   28*PokemonMysteryDungeonExplorersofSkyInTheMorningSun_mvl/mxv
 BYTE   W04
 BYTE   VOL   29*PokemonMysteryDungeonExplorersofSkyInTheMorningSun_mvl/mxv
 BYTE   W03
 BYTE   EOT
 BYTE   Fs3
 BYTE   W01
 BYTE   N92  An1
 BYTE   N92  En3
 BYTE   W04
 BYTE   VOL   30*PokemonMysteryDungeonExplorersofSkyInTheMorningSun_mvl/mxv
 BYTE   W04
 BYTE   VOL   30*PokemonMysteryDungeonExplorersofSkyInTheMorningSun_mvl/mxv
 BYTE   W04
 BYTE   VOL   30*PokemonMysteryDungeonExplorersofSkyInTheMorningSun_mvl/mxv
 BYTE   W04
 BYTE   VOL   30*PokemonMysteryDungeonExplorersofSkyInTheMorningSun_mvl/mxv
 BYTE   W04
//  #01 //069   ----------------------------------------
 BYTE   VOL   31*PokemonMysteryDungeonExplorersofSkyInTheMorningSun_mvl/mxv
 BYTE   W08
 BYTE   VOL   32*PokemonMysteryDungeonExplorersofSkyInTheMorningSun_mvl/mxv
 BYTE   W04
 BYTE   VOL   32*PokemonMysteryDungeonExplorersofSkyInTheMorningSun_mvl/mxv
 BYTE   W04
 BYTE   VOL   33*PokemonMysteryDungeonExplorersofSkyInTheMorningSun_mvl/mxv
 BYTE   W04
 BYTE   VOL   34*PokemonMysteryDungeonExplorersofSkyInTheMorningSun_mvl/mxv
 BYTE   W04
 BYTE   VOL   34*PokemonMysteryDungeonExplorersofSkyInTheMorningSun_mvl/mxv
 BYTE   W04
 BYTE   VOL   34*PokemonMysteryDungeonExplorersofSkyInTheMorningSun_mvl/mxv
 BYTE   W04
 BYTE   VOL   34*PokemonMysteryDungeonExplorersofSkyInTheMorningSun_mvl/mxv
 BYTE   W04
 BYTE   VOL   31*PokemonMysteryDungeonExplorersofSkyInTheMorningSun_mvl/mxv
 BYTE   W04
 BYTE   VOL   30*PokemonMysteryDungeonExplorersofSkyInTheMorningSun_mvl/mxv
 BYTE   W04
 BYTE   VOL   28*PokemonMysteryDungeonExplorersofSkyInTheMorningSun_mvl/mxv
 BYTE   W04
 BYTE   VOL   26*PokemonMysteryDungeonExplorersofSkyInTheMorningSun_mvl/mxv
 BYTE   W04
 BYTE   VOL   24*PokemonMysteryDungeonExplorersofSkyInTheMorningSun_mvl/mxv
 BYTE   W04
 BYTE   VOL   23*PokemonMysteryDungeonExplorersofSkyInTheMorningSun_mvl/mxv
 BYTE   W04
 BYTE   VOL   21*PokemonMysteryDungeonExplorersofSkyInTheMorningSun_mvl/mxv
 BYTE   W04
 BYTE   VOL   19*PokemonMysteryDungeonExplorersofSkyInTheMorningSun_mvl/mxv
 BYTE   W04
 BYTE   VOL   18*PokemonMysteryDungeonExplorersofSkyInTheMorningSun_mvl/mxv
 BYTE   W04
 BYTE   VOL   17*PokemonMysteryDungeonExplorersofSkyInTheMorningSun_mvl/mxv
 BYTE   W76
//  #01 //070   ----------------------------------------
 BYTE   W96
//  #01 //071   ----------------------------------------
 BYTE   W96
//  #01 //072   ----------------------------------------
 BYTE   W96
//  #01 //073   ----------------------------------------
 BYTE   W96
//  #01 //074   ----------------------------------------
 BYTE   W96
//  #01 //075   ----------------------------------------
 BYTE   W96
//  #01 //076   ----------------------------------------
 BYTE   W96
//  #01 //077   ----------------------------------------
 BYTE   W96
//  #01 //078   ----------------------------------------
 BYTE   PATT
  POIN2 Label_016859AA
//  #01 //079   ----------------------------------------
 BYTE   PATT
  POIN2 Label_016859C7
//  #01 //080   ----------------------------------------
 BYTE   PATT
  POIN2 Label_016859E5
//  #01 //081   ----------------------------------------
 BYTE   PATT
  POIN2 Label_01685A09
//  #01 //082   ----------------------------------------
 BYTE   PATT
  POIN2 Label_01685A16
//  #01 //083   ----------------------------------------
 BYTE   EOT
 BYTE   Fs3
 BYTE   W01
 BYTE   TIE  Gn1  v084
 BYTE   TIE  Fs3  v060
 BYTE   W02
 BYTE   VOL   28*PokemonMysteryDungeonExplorersofSkyInTheMorningSun_mvl/mxv
 BYTE   W01
 BYTE   VOL   28*PokemonMysteryDungeonExplorersofSkyInTheMorningSun_mvl/mxv
 BYTE   W02
 BYTE   VOL   29*PokemonMysteryDungeonExplorersofSkyInTheMorningSun_mvl/mxv
 BYTE   W06
 BYTE   VOL   30*PokemonMysteryDungeonExplorersofSkyInTheMorningSun_mvl/mxv
 BYTE   W06
 BYTE   VOL   31*PokemonMysteryDungeonExplorersofSkyInTheMorningSun_mvl/mxv
 BYTE   W06
 BYTE   VOL   32*PokemonMysteryDungeonExplorersofSkyInTheMorningSun_mvl/mxv
 BYTE   W06
 BYTE   VOL   33*PokemonMysteryDungeonExplorersofSkyInTheMorningSun_mvl/mxv
 BYTE   W06
 BYTE   VOL   34*PokemonMysteryDungeonExplorersofSkyInTheMorningSun_mvl/mxv
 BYTE   W36
 BYTE   W01
//  #01 //084   ----------------------------------------
 BYTE   PATT
  POIN2 Label_01685A3D
//  #01 //085   ----------------------------------------
 BYTE   PATT
  POIN2 Label_01685A47
//  #01 //086   ----------------------------------------
 BYTE   EOT
 BYTE   Gn1  v066
 BYTE   W01
 BYTE   VOL   27*PokemonMysteryDungeonExplorersofSkyInTheMorningSun_mvl/mxv
 BYTE   TIE  An1  v084
 BYTE   N92  Fs3  v060
 BYTE   W01
 BYTE   VOL   26*PokemonMysteryDungeonExplorersofSkyInTheMorningSun_mvl/mxv
 BYTE   W06
 BYTE   VOL   30*PokemonMysteryDungeonExplorersofSkyInTheMorningSun_mvl/mxv
 BYTE   W06
 BYTE   VOL   32*PokemonMysteryDungeonExplorersofSkyInTheMorningSun_mvl/mxv
 BYTE   W06
 BYTE   VOL   34*PokemonMysteryDungeonExplorersofSkyInTheMorningSun_mvl/mxv
 BYTE   W06
 BYTE   VOL   34*PokemonMysteryDungeonExplorersofSkyInTheMorningSun_mvl/mxv
 BYTE   W42
 BYTE   W01
 BYTE   VOL   33*PokemonMysteryDungeonExplorersofSkyInTheMorningSun_mvl/mxv
 BYTE   W04
//  #01 //087   ----------------------------------------
 BYTE   PATT
  POIN2 Label_01685A6D
//  #01 //088   ----------------------------------------
 BYTE   PATT
  POIN2 Label_01685A86
//  #01 //089   ----------------------------------------
 BYTE   PATT
  POIN2 Label_01685AA1
//  #01 //090   ----------------------------------------
 BYTE   PATT
  POIN2 Label_01685AC3
//  #01 //091   ----------------------------------------
 BYTE   EOT
 BYTE   An1  v064
 BYTE   W01
 BYTE   GoTo
  POIN2 Label_01685ACF
 BYTE   FINE

//**************** Track 2 (Midi-Chn.1) ****************//

PokemonMysteryDungeonExplorersofSkyInTheMorningSun_002:
//  #02 //000   ----------------------------------------
 BYTE   KEYSH   PokemonMysteryDungeonExplorersofSkyInTheMorningSun_key+0
 BYTE   VOICE   11
 BYTE   MODT 0
 BYTE   LFOS 44
 BYTE   VOL   48*PokemonMysteryDungeonExplorersofSkyInTheMorningSun_mvl/mxv
 BYTE   PAN   c_v+0
 BYTE   VOL   15*PokemonMysteryDungeonExplorersofSkyInTheMorningSun_mvl/mxv
 BYTE   PAN   c_v-64
 BYTE   VOL   15*PokemonMysteryDungeonExplorersofSkyInTheMorningSun_mvl/mxv
 BYTE   BEND   c_v+0
 BYTE   W12
 BYTE   N17  Bn4  v116
 BYTE   W24
 BYTE   N30  Fs5
 BYTE   W48
 BYTE   N17
 BYTE   W12
//  #02 //001   ----------------------------------------
Label_016860E6:
 BYTE   W12
 BYTE   N07  Gn5  v112
 BYTE   W12
 BYTE   N42  An5  v104
 BYTE   W60
 BYTE   N17  An5  v116
 BYTE   W12
 BYTE   PEND 
//  #02 //002   ----------------------------------------
Label_016860F4:
 BYTE   W12
 BYTE   N07  Cs6  v116
 BYTE   W12
 BYTE   TIE  Dn6  v060
 BYTE   W72
 BYTE   PEND 
//  #02 //003   ----------------------------------------
 BYTE   W80
 BYTE   EOT
 BYTE   W16
//  #02 //004   ----------------------------------------
 BYTE   W12
 BYTE   N17  Bn4  v116
 BYTE   W24
 BYTE   N30  Fs5
 BYTE   W48
 BYTE   N17
 BYTE   W12
//  #02 //005   ----------------------------------------
 BYTE   PATT
  POIN2 Label_016860E6
//  #02 //006   ----------------------------------------
 BYTE   PATT
  POIN2 Label_016860F4
//  #02 //007   ----------------------------------------
 BYTE   W80
 BYTE   EOT
 BYTE   Dn6
 BYTE   W16
//  #02 //008   ----------------------------------------
 BYTE   W96
//  #02 //009   ----------------------------------------
 BYTE   W96
//  #02 //010   ----------------------------------------
 BYTE   W96
//  #02 //011   ----------------------------------------
 BYTE   W96
//  #02 //012   ----------------------------------------
 BYTE   W96
//  #02 //013   ----------------------------------------
 BYTE   W96
//  #02 //014   ----------------------------------------
 BYTE   W96
//  #02 //015   ----------------------------------------
 BYTE   W96
//  #02 //016   ----------------------------------------
 BYTE   W24
 BYTE   VOL   37*PokemonMysteryDungeonExplorersofSkyInTheMorningSun_mvl/mxv
 BYTE   PAN   c_v+0
 BYTE   VOL   37*PokemonMysteryDungeonExplorersofSkyInTheMorningSun_mvl/mxv
 BYTE   BEND   c_v+0
 BYTE   W72
//  #02 //017   ----------------------------------------
 BYTE   W24
 BYTE   VOL   37*PokemonMysteryDungeonExplorersofSkyInTheMorningSun_mvl/mxv
 BYTE   W60
 BYTE   VOICE   74
 BYTE   W12
//  #02 //018   ----------------------------------------
 BYTE   N24  Fs4  v127
 BYTE   W24
Label_01686136:
 BYTE   N36  Cs5  v127
 BYTE   W36
 BYTE   N12  Bn4
 BYTE   W12
 BYTE   Bn4  v060
 BYTE   W12
 BYTE   Bn4  v036
 BYTE   W12
//  #02 //019   ----------------------------------------
 BYTE   N72  Fs4  v127
 BYTE   W42
 BYTE   VOL   37*PokemonMysteryDungeonExplorersofSkyInTheMorningSun_mvl/mxv
 BYTE   W06
 BYTE   VOL   32*PokemonMysteryDungeonExplorersofSkyInTheMorningSun_mvl/mxv
 BYTE   W06
 BYTE   VOL   28*PokemonMysteryDungeonExplorersofSkyInTheMorningSun_mvl/mxv
 BYTE   W06
 BYTE   VOL   25*PokemonMysteryDungeonExplorersofSkyInTheMorningSun_mvl/mxv
 BYTE   W06
 BYTE   VOL   22*PokemonMysteryDungeonExplorersofSkyInTheMorningSun_mvl/mxv
 BYTE   W06
 BYTE   VOL   19*PokemonMysteryDungeonExplorersofSkyInTheMorningSun_mvl/mxv
 BYTE   N24  Fs4  v060
 BYTE   W24
//  #02 //020   ----------------------------------------
 BYTE   Fs4  v036
 BYTE   W24
 BYTE   VOL   37*PokemonMysteryDungeonExplorersofSkyInTheMorningSun_mvl/mxv
 BYTE   N36  En4  v127
 BYTE   W36
 BYTE   N12  An4
 BYTE   W12
 BYTE   An4  v060
 BYTE   W12
 BYTE   An4  v036
 BYTE   W12
//  #02 //021   ----------------------------------------
 BYTE   N72  Fs4  v127
 BYTE   W12
 BYTE   VOL   37*PokemonMysteryDungeonExplorersofSkyInTheMorningSun_mvl/mxv
 BYTE   W06
 BYTE   VOL   34*PokemonMysteryDungeonExplorersofSkyInTheMorningSun_mvl/mxv
 BYTE   W06
 BYTE   VOL   32*PokemonMysteryDungeonExplorersofSkyInTheMorningSun_mvl/mxv
 BYTE   W06
 BYTE   VOL   30*PokemonMysteryDungeonExplorersofSkyInTheMorningSun_mvl/mxv
 BYTE   W06
 BYTE   VOL   28*PokemonMysteryDungeonExplorersofSkyInTheMorningSun_mvl/mxv
 BYTE   W06
 BYTE   VOL   27*PokemonMysteryDungeonExplorersofSkyInTheMorningSun_mvl/mxv
 BYTE   W06
 BYTE   VOL   25*PokemonMysteryDungeonExplorersofSkyInTheMorningSun_mvl/mxv
 BYTE   W06
 BYTE   VOL   23*PokemonMysteryDungeonExplorersofSkyInTheMorningSun_mvl/mxv
 BYTE   W06
 BYTE   VOL   21*PokemonMysteryDungeonExplorersofSkyInTheMorningSun_mvl/mxv
 BYTE   W06
 BYTE   VOL   20*PokemonMysteryDungeonExplorersofSkyInTheMorningSun_mvl/mxv
 BYTE   W06
 BYTE   VOL   19*PokemonMysteryDungeonExplorersofSkyInTheMorningSun_mvl/mxv
 BYTE   N12  Fs4  v060
 BYTE   W06
 BYTE   VOL   17*PokemonMysteryDungeonExplorersofSkyInTheMorningSun_mvl/mxv
 BYTE   W06
 BYTE   VOL   15*PokemonMysteryDungeonExplorersofSkyInTheMorningSun_mvl/mxv
 BYTE   N12  Fs4  v036
 BYTE   W12
//  #02 //022   ----------------------------------------
 BYTE   VOL   37*PokemonMysteryDungeonExplorersofSkyInTheMorningSun_mvl/mxv
 BYTE   N24  Fs3  v127
 BYTE   W24
 BYTE   Bn3
 BYTE   W24
 BYTE   N12  Fs3
 BYTE   W12
 BYTE   N24  Cs4
 BYTE   W24
 BYTE   N12  Fs3
 BYTE   W12
//  #02 //023   ----------------------------------------
 BYTE   Fs3  v060
 BYTE   W12
 BYTE   N24  Dn4  v127
 BYTE   W24
 BYTE   N12  Fs3
 BYTE   W12
 BYTE   Fs3  v060
 BYTE   W12
 BYTE   N24  En4  v127
 BYTE   W24
 BYTE   N12  An4
 BYTE   W12
//  #02 //024   ----------------------------------------
 BYTE   An4  v060
 BYTE   W12
 BYTE   TIE  Fs4  v127
 BYTE   W30
 BYTE   VOL   36*PokemonMysteryDungeonExplorersofSkyInTheMorningSun_mvl/mxv
 BYTE   W06
 BYTE   VOL   34*PokemonMysteryDungeonExplorersofSkyInTheMorningSun_mvl/mxv
 BYTE   W06
 BYTE   VOL   31*PokemonMysteryDungeonExplorersofSkyInTheMorningSun_mvl/mxv
 BYTE   W06
 BYTE   VOL   29*PokemonMysteryDungeonExplorersofSkyInTheMorningSun_mvl/mxv
 BYTE   W06
 BYTE   VOL   28*PokemonMysteryDungeonExplorersofSkyInTheMorningSun_mvl/mxv
 BYTE   W06
 BYTE   VOL   26*PokemonMysteryDungeonExplorersofSkyInTheMorningSun_mvl/mxv
 BYTE   W06
 BYTE   VOL   23*PokemonMysteryDungeonExplorersofSkyInTheMorningSun_mvl/mxv
 BYTE   W06
 BYTE   VOL   22*PokemonMysteryDungeonExplorersofSkyInTheMorningSun_mvl/mxv
 BYTE   W06
 BYTE   VOL   20*PokemonMysteryDungeonExplorersofSkyInTheMorningSun_mvl/mxv
 BYTE   W06
//  #02 //025   ----------------------------------------
 BYTE   VOL   19*PokemonMysteryDungeonExplorersofSkyInTheMorningSun_mvl/mxv
 BYTE   W06
 BYTE   VOL   17*PokemonMysteryDungeonExplorersofSkyInTheMorningSun_mvl/mxv
 BYTE   W06
 BYTE   VOL   15*PokemonMysteryDungeonExplorersofSkyInTheMorningSun_mvl/mxv
 BYTE   W06
 BYTE   VOL   14*PokemonMysteryDungeonExplorersofSkyInTheMorningSun_mvl/mxv
 BYTE   W06
 BYTE   VOL   12*PokemonMysteryDungeonExplorersofSkyInTheMorningSun_mvl/mxv
 BYTE   W06
 BYTE   VOL   11*PokemonMysteryDungeonExplorersofSkyInTheMorningSun_mvl/mxv
 BYTE   W06
 BYTE   VOL   10*PokemonMysteryDungeonExplorersofSkyInTheMorningSun_mvl/mxv
 BYTE   W06
 BYTE   VOL   8*PokemonMysteryDungeonExplorersofSkyInTheMorningSun_mvl/mxv
 BYTE   W06
 BYTE   EOT
 BYTE   N12  Fs4  v060
 BYTE   W12
 BYTE   Fs4  v036
 BYTE   W12
 BYTE   Fs4  v028
 BYTE   W12
 BYTE   Fs4  v020
 BYTE   W12
//  #02 //026   ----------------------------------------
 BYTE   VOL   37*PokemonMysteryDungeonExplorersofSkyInTheMorningSun_mvl/mxv
 BYTE   N24  Fs5  v112
 BYTE   W24
 BYTE   N36  Cs6
 BYTE   W36
 BYTE   N12  Bn5
 BYTE   W12
 BYTE   Bn5  v048
 BYTE   W12
 BYTE   Bn5  v028
 BYTE   W12
//  #02 //027   ----------------------------------------
 BYTE   N72  Fs5  v112
 BYTE   W30
 BYTE   VOL   36*PokemonMysteryDungeonExplorersofSkyInTheMorningSun_mvl/mxv
 BYTE   W06
 BYTE   VOL   34*PokemonMysteryDungeonExplorersofSkyInTheMorningSun_mvl/mxv
 BYTE   W06
 BYTE   VOL   30*PokemonMysteryDungeonExplorersofSkyInTheMorningSun_mvl/mxv
 BYTE   W06
 BYTE   VOL   28*PokemonMysteryDungeonExplorersofSkyInTheMorningSun_mvl/mxv
 BYTE   W06
 BYTE   VOL   26*PokemonMysteryDungeonExplorersofSkyInTheMorningSun_mvl/mxv
 BYTE   W06
 BYTE   VOL   23*PokemonMysteryDungeonExplorersofSkyInTheMorningSun_mvl/mxv
 BYTE   W06
 BYTE   VOL   21*PokemonMysteryDungeonExplorersofSkyInTheMorningSun_mvl/mxv
 BYTE   W06
 BYTE   VOL   19*PokemonMysteryDungeonExplorersofSkyInTheMorningSun_mvl/mxv
 BYTE   N12  Fs5  v048
 BYTE   W06
 BYTE   VOL   18*PokemonMysteryDungeonExplorersofSkyInTheMorningSun_mvl/mxv
 BYTE   W06
 BYTE   VOL   15*PokemonMysteryDungeonExplorersofSkyInTheMorningSun_mvl/mxv
 BYTE   N12  Fs5  v028
 BYTE   W06
 BYTE   VOL   14*PokemonMysteryDungeonExplorersofSkyInTheMorningSun_mvl/mxv
 BYTE   W06
//  #02 //028   ----------------------------------------
 BYTE   N12  Fs5  v020
 BYTE   W12
 BYTE   Fs5  v012
 BYTE   W12
 BYTE   VOL   37*PokemonMysteryDungeonExplorersofSkyInTheMorningSun_mvl/mxv
 BYTE   N36  En5  v112
 BYTE   W36
 BYTE   N12  An5
 BYTE   W12
 BYTE   An5  v048
 BYTE   W12
 BYTE   An5  v028
 BYTE   W12
//  #02 //029   ----------------------------------------
 BYTE   N72  Fs5  v112
 BYTE   W12
 BYTE   VOL   36*PokemonMysteryDungeonExplorersofSkyInTheMorningSun_mvl/mxv
 BYTE   W06
 BYTE   VOL   32*PokemonMysteryDungeonExplorersofSkyInTheMorningSun_mvl/mxv
 BYTE   W06
 BYTE   VOL   28*PokemonMysteryDungeonExplorersofSkyInTheMorningSun_mvl/mxv
 BYTE   W06
 BYTE   VOL   25*PokemonMysteryDungeonExplorersofSkyInTheMorningSun_mvl/mxv
 BYTE   W06
 BYTE   VOL   22*PokemonMysteryDungeonExplorersofSkyInTheMorningSun_mvl/mxv
 BYTE   W06
 BYTE   VOL   19*PokemonMysteryDungeonExplorersofSkyInTheMorningSun_mvl/mxv
 BYTE   W06
 BYTE   VOL   17*PokemonMysteryDungeonExplorersofSkyInTheMorningSun_mvl/mxv
 BYTE   W06
 BYTE   VOL   14*PokemonMysteryDungeonExplorersofSkyInTheMorningSun_mvl/mxv
 BYTE   W06
 BYTE   VOL   11*PokemonMysteryDungeonExplorersofSkyInTheMorningSun_mvl/mxv
 BYTE   W12
 BYTE   N12  Fs5  v048
 BYTE   W12
 BYTE   Fs5  v028
 BYTE   W12
//  #02 //030   ----------------------------------------
 BYTE   VOL   37*PokemonMysteryDungeonExplorersofSkyInTheMorningSun_mvl/mxv
 BYTE   N24  An4  v112
 BYTE   W24
 BYTE   Bn4
 BYTE   W24
 BYTE   N12  Fs5
 BYTE   W12
 BYTE   N24
 BYTE   W24
 BYTE   N12
 BYTE   W12
//  #02 //031   ----------------------------------------
 BYTE   Fs5  v048
 BYTE   W12
 BYTE   N24  Fs5  v112
 BYTE   W24
 BYTE   N12  En5
 BYTE   W12
 BYTE   En5  v048
 BYTE   W12
 BYTE   N24  Dn5  v112
 BYTE   W24
 BYTE   N12  En5
 BYTE   W12
//  #02 //032   ----------------------------------------
 BYTE   En5  v048
 BYTE   W12
 BYTE   TIE  Dn5  v112
 BYTE   W24
 BYTE   VOL   35*PokemonMysteryDungeonExplorersofSkyInTheMorningSun_mvl/mxv
 BYTE   W06
 BYTE   VOL   34*PokemonMysteryDungeonExplorersofSkyInTheMorningSun_mvl/mxv
 BYTE   W06
 BYTE   VOL   32*PokemonMysteryDungeonExplorersofSkyInTheMorningSun_mvl/mxv
 BYTE   W06
 BYTE   VOL   30*PokemonMysteryDungeonExplorersofSkyInTheMorningSun_mvl/mxv
 BYTE   W06
 BYTE   VOL   28*PokemonMysteryDungeonExplorersofSkyInTheMorningSun_mvl/mxv
 BYTE   W06
 BYTE   VOL   27*PokemonMysteryDungeonExplorersofSkyInTheMorningSun_mvl/mxv
 BYTE   W06
 BYTE   VOL   25*PokemonMysteryDungeonExplorersofSkyInTheMorningSun_mvl/mxv
 BYTE   W06
 BYTE   VOL   23*PokemonMysteryDungeonExplorersofSkyInTheMorningSun_mvl/mxv
 BYTE   W06
 BYTE   VOL   22*PokemonMysteryDungeonExplorersofSkyInTheMorningSun_mvl/mxv
 BYTE   W06
 BYTE   VOL   21*PokemonMysteryDungeonExplorersofSkyInTheMorningSun_mvl/mxv
 BYTE   W06
//  #02 //033   ----------------------------------------
 BYTE   VOL   20*PokemonMysteryDungeonExplorersofSkyInTheMorningSun_mvl/mxv
 BYTE   W06
 BYTE   VOL   19*PokemonMysteryDungeonExplorersofSkyInTheMorningSun_mvl/mxv
 BYTE   W06
 BYTE   VOL   17*PokemonMysteryDungeonExplorersofSkyInTheMorningSun_mvl/mxv
 BYTE   W06
 BYTE   VOL   16*PokemonMysteryDungeonExplorersofSkyInTheMorningSun_mvl/mxv
 BYTE   W06
 BYTE   VOL   14*PokemonMysteryDungeonExplorersofSkyInTheMorningSun_mvl/mxv
 BYTE   W06
 BYTE   VOL   14*PokemonMysteryDungeonExplorersofSkyInTheMorningSun_mvl/mxv
 BYTE   W06
 BYTE   VOL   12*PokemonMysteryDungeonExplorersofSkyInTheMorningSun_mvl/mxv
 BYTE   W06
 BYTE   VOL   11*PokemonMysteryDungeonExplorersofSkyInTheMorningSun_mvl/mxv
 BYTE   W06
 BYTE   EOT
 BYTE   VOL   10*PokemonMysteryDungeonExplorersofSkyInTheMorningSun_mvl/mxv
 BYTE   N12  Dn5  v048
 BYTE   W06
 BYTE   VOL   9*PokemonMysteryDungeonExplorersofSkyInTheMorningSun_mvl/mxv
 BYTE   W06
 BYTE   VOL   8*PokemonMysteryDungeonExplorersofSkyInTheMorningSun_mvl/mxv
 BYTE   N12  Dn5  v028
 BYTE   W12
 BYTE   Dn5  v020
 BYTE   W12
 BYTE   Dn5  v012
 BYTE   W12
//  #02 //034   ----------------------------------------
 BYTE   W96
//  #02 //035   ----------------------------------------
 BYTE   W96
//  #02 //036   ----------------------------------------
 BYTE   W96
//  #02 //037   ----------------------------------------
 BYTE   W96
//  #02 //038   ----------------------------------------
 BYTE   W96
//  #02 //039   ----------------------------------------
 BYTE   W96
//  #02 //040   ----------------------------------------
 BYTE   W96
//  #02 //041   ----------------------------------------
 BYTE   W96
//  #02 //042   ----------------------------------------
 BYTE   W96
//  #02 //043   ----------------------------------------
 BYTE   W96
//  #02 //044   ----------------------------------------
 BYTE   W96
//  #02 //045   ----------------------------------------
 BYTE   W96
//  #02 //046   ----------------------------------------
 BYTE   W96
//  #02 //047   ----------------------------------------
 BYTE   W96
//  #02 //048   ----------------------------------------
 BYTE   W96
//  #02 //049   ----------------------------------------
 BYTE   W96
//  #02 //050   ----------------------------------------
 BYTE   W96
//  #02 //051   ----------------------------------------
 BYTE   W96
//  #02 //052   ----------------------------------------
 BYTE   W96
//  #02 //053   ----------------------------------------
 BYTE   W24
 BYTE   VOL   37*PokemonMysteryDungeonExplorersofSkyInTheMorningSun_mvl/mxv
 BYTE   W72
//  #02 //054   ----------------------------------------
 BYTE   N12  Bn3  v088
 BYTE   W12
 BYTE   Bn3  v028
 BYTE   W12
 BYTE   N36  Fs4  v088
 BYTE   W36
 BYTE   N12  Fs4  v028
 BYTE   W12
 BYTE   Fs4  v088
 BYTE   W12
 BYTE   Fs4  v028
 BYTE   W12
//  #02 //055   ----------------------------------------
 BYTE   Gn4  v088
 BYTE   W12
 BYTE   N48  An4
 BYTE   W48
 BYTE   N12  An4  v028
 BYTE   W12
 BYTE   An4  v088
 BYTE   W12
 BYTE   An4  v028
 BYTE   W12
//  #02 //056   ----------------------------------------
 BYTE   Cs5  v088
 BYTE   W12
 BYTE   TIE  Dn5
 BYTE   W36
 BYTE   VOL   36*PokemonMysteryDungeonExplorersofSkyInTheMorningSun_mvl/mxv
 BYTE   W16
 BYTE   VOL   35*PokemonMysteryDungeonExplorersofSkyInTheMorningSun_mvl/mxv
 BYTE   W04
 BYTE   VOL   35*PokemonMysteryDungeonExplorersofSkyInTheMorningSun_mvl/mxv
 BYTE   W20
 BYTE   VOL   35*PokemonMysteryDungeonExplorersofSkyInTheMorningSun_mvl/mxv
 BYTE   W04
 BYTE   VOL   34*PokemonMysteryDungeonExplorersofSkyInTheMorningSun_mvl/mxv
 BYTE   W04
//  #02 //057   ----------------------------------------
 BYTE   VOL   34*PokemonMysteryDungeonExplorersofSkyInTheMorningSun_mvl/mxv
 BYTE   W08
 BYTE   VOL   34*PokemonMysteryDungeonExplorersofSkyInTheMorningSun_mvl/mxv
 BYTE   W04
 BYTE   VOL   32*PokemonMysteryDungeonExplorersofSkyInTheMorningSun_mvl/mxv
 BYTE   W04
 BYTE   VOL   32*PokemonMysteryDungeonExplorersofSkyInTheMorningSun_mvl/mxv
 BYTE   W04
 BYTE   VOL   30*PokemonMysteryDungeonExplorersofSkyInTheMorningSun_mvl/mxv
 BYTE   W04
 BYTE   VOL   30*PokemonMysteryDungeonExplorersofSkyInTheMorningSun_mvl/mxv
 BYTE   W04
 BYTE   VOL   29*PokemonMysteryDungeonExplorersofSkyInTheMorningSun_mvl/mxv
 BYTE   W04
 BYTE   VOL   28*PokemonMysteryDungeonExplorersofSkyInTheMorningSun_mvl/mxv
 BYTE   W04
 BYTE   VOL   28*PokemonMysteryDungeonExplorersofSkyInTheMorningSun_mvl/mxv
 BYTE   W04
 BYTE   VOL   27*PokemonMysteryDungeonExplorersofSkyInTheMorningSun_mvl/mxv
 BYTE   W04
 BYTE   VOL   27*PokemonMysteryDungeonExplorersofSkyInTheMorningSun_mvl/mxv
 BYTE   W04
 BYTE   VOL   25*PokemonMysteryDungeonExplorersofSkyInTheMorningSun_mvl/mxv
 BYTE   W04
 BYTE   VOL   23*PokemonMysteryDungeonExplorersofSkyInTheMorningSun_mvl/mxv
 BYTE   W04
 BYTE   VOL   23*PokemonMysteryDungeonExplorersofSkyInTheMorningSun_mvl/mxv
 BYTE   W04
 BYTE   VOL   22*PokemonMysteryDungeonExplorersofSkyInTheMorningSun_mvl/mxv
 BYTE   W04
 BYTE   VOL   20*PokemonMysteryDungeonExplorersofSkyInTheMorningSun_mvl/mxv
 BYTE   W04
 BYTE   VOL   20*PokemonMysteryDungeonExplorersofSkyInTheMorningSun_mvl/mxv
 BYTE   W04
 BYTE   EOT
 BYTE   VOL   19*PokemonMysteryDungeonExplorersofSkyInTheMorningSun_mvl/mxv
 BYTE   N12  Dn5  v028
 BYTE   W04
 BYTE   VOL   18*PokemonMysteryDungeonExplorersofSkyInTheMorningSun_mvl/mxv
 BYTE   W04
 BYTE   VOL   17*PokemonMysteryDungeonExplorersofSkyInTheMorningSun_mvl/mxv
 BYTE   W04
 BYTE   VOL   15*PokemonMysteryDungeonExplorersofSkyInTheMorningSun_mvl/mxv
 BYTE   N12  Dn5  v020
 BYTE   W04
 BYTE   VOL   13*PokemonMysteryDungeonExplorersofSkyInTheMorningSun_mvl/mxv
 BYTE   W04
 BYTE   VOL   17*PokemonMysteryDungeonExplorersofSkyInTheMorningSun_mvl/mxv
 BYTE   W04
//  #02 //058   ----------------------------------------
 BYTE   VOL   18*PokemonMysteryDungeonExplorersofSkyInTheMorningSun_mvl/mxv
 BYTE   N12  Bn4  v088
 BYTE   W04
 BYTE   VOL   20*PokemonMysteryDungeonExplorersofSkyInTheMorningSun_mvl/mxv
 BYTE   W04
 BYTE   VOL   20*PokemonMysteryDungeonExplorersofSkyInTheMorningSun_mvl/mxv
 BYTE   W04
 BYTE   VOL   21*PokemonMysteryDungeonExplorersofSkyInTheMorningSun_mvl/mxv
 BYTE   N12  Bn4  v028
 BYTE   W04
 BYTE   VOL   22*PokemonMysteryDungeonExplorersofSkyInTheMorningSun_mvl/mxv
 BYTE   W04
 BYTE   VOL   23*PokemonMysteryDungeonExplorersofSkyInTheMorningSun_mvl/mxv
 BYTE   W04
 BYTE   VOL   24*PokemonMysteryDungeonExplorersofSkyInTheMorningSun_mvl/mxv
 BYTE   N24  Fs5  v088
 BYTE   W04
 BYTE   VOL   25*PokemonMysteryDungeonExplorersofSkyInTheMorningSun_mvl/mxv
 BYTE   W04
 BYTE   VOL   26*PokemonMysteryDungeonExplorersofSkyInTheMorningSun_mvl/mxv
 BYTE   W04
 BYTE   VOL   27*PokemonMysteryDungeonExplorersofSkyInTheMorningSun_mvl/mxv
 BYTE   W04
 BYTE   VOL   28*PokemonMysteryDungeonExplorersofSkyInTheMorningSun_mvl/mxv
 BYTE   W04
 BYTE   VOL   28*PokemonMysteryDungeonExplorersofSkyInTheMorningSun_mvl/mxv
 BYTE   W04
 BYTE   VOL   28*PokemonMysteryDungeonExplorersofSkyInTheMorningSun_mvl/mxv
 BYTE   N12  En5
 BYTE   W04
 BYTE   VOL   29*PokemonMysteryDungeonExplorersofSkyInTheMorningSun_mvl/mxv
 BYTE   W04
 BYTE   VOL   29*PokemonMysteryDungeonExplorersofSkyInTheMorningSun_mvl/mxv
 BYTE   W04
 BYTE   VOL   30*PokemonMysteryDungeonExplorersofSkyInTheMorningSun_mvl/mxv
 BYTE   N24
 BYTE   W04
 BYTE   VOL   30*PokemonMysteryDungeonExplorersofSkyInTheMorningSun_mvl/mxv
 BYTE   W04
 BYTE   VOL   31*PokemonMysteryDungeonExplorersofSkyInTheMorningSun_mvl/mxv
 BYTE   W04
 BYTE   VOL   32*PokemonMysteryDungeonExplorersofSkyInTheMorningSun_mvl/mxv
 BYTE   W04
 BYTE   VOL   32*PokemonMysteryDungeonExplorersofSkyInTheMorningSun_mvl/mxv
 BYTE   W04
 BYTE   VOL   34*PokemonMysteryDungeonExplorersofSkyInTheMorningSun_mvl/mxv
 BYTE   W04
 BYTE   VOL   34*PokemonMysteryDungeonExplorersofSkyInTheMorningSun_mvl/mxv
 BYTE   N12  En5  v028
 BYTE   W04
 BYTE   VOL   34*PokemonMysteryDungeonExplorersofSkyInTheMorningSun_mvl/mxv
 BYTE   W04
 BYTE   VOL   35*PokemonMysteryDungeonExplorersofSkyInTheMorningSun_mvl/mxv
 BYTE   W04
//  #02 //059   ----------------------------------------
 BYTE   VOL   35*PokemonMysteryDungeonExplorersofSkyInTheMorningSun_mvl/mxv
 BYTE   N12  Bn4  v088
 BYTE   W04
 BYTE   VOL   36*PokemonMysteryDungeonExplorersofSkyInTheMorningSun_mvl/mxv
 BYTE   W04
 BYTE   VOL   37*PokemonMysteryDungeonExplorersofSkyInTheMorningSun_mvl/mxv
 BYTE   W04
 BYTE   N12  Bn4  v028
 BYTE   W12
 BYTE   N24  Fs5  v088
 BYTE   W24
 BYTE   N12  En5
 BYTE   W12
 BYTE   N24
 BYTE   W24
 BYTE   N12  En5  v028
 BYTE   W12
//  #02 //060   ----------------------------------------
 BYTE   Bn4  v088
 BYTE   W12
 BYTE   Bn4  v028
 BYTE   W12
 BYTE   N24  Gn5  v088
 BYTE   W24
 BYTE   N12  Fs5
 BYTE   W12
 BYTE   N24
 BYTE   W04
 BYTE   VOL   35*PokemonMysteryDungeonExplorersofSkyInTheMorningSun_mvl/mxv
 BYTE   W20
 BYTE   N12  En5
 BYTE   W04
 BYTE   VOL   35*PokemonMysteryDungeonExplorersofSkyInTheMorningSun_mvl/mxv
 BYTE   W08
//  #02 //061   ----------------------------------------
 BYTE   N12  En5  v028
 BYTE   W04
 BYTE   VOL   34*PokemonMysteryDungeonExplorersofSkyInTheMorningSun_mvl/mxv
 BYTE   W08
 BYTE   VOL   34*PokemonMysteryDungeonExplorersofSkyInTheMorningSun_mvl/mxv
 BYTE   N60  Fs5  v088
 BYTE   W04
 BYTE   VOL   34*PokemonMysteryDungeonExplorersofSkyInTheMorningSun_mvl/mxv
 BYTE   W08
 BYTE   VOL   33*PokemonMysteryDungeonExplorersofSkyInTheMorningSun_mvl/mxv
 BYTE   W04
 BYTE   VOL   32*PokemonMysteryDungeonExplorersofSkyInTheMorningSun_mvl/mxv
 BYTE   W08
 BYTE   VOL   32*PokemonMysteryDungeonExplorersofSkyInTheMorningSun_mvl/mxv
 BYTE   W04
 BYTE   VOL   31*PokemonMysteryDungeonExplorersofSkyInTheMorningSun_mvl/mxv
 BYTE   W04
 BYTE   VOL   30*PokemonMysteryDungeonExplorersofSkyInTheMorningSun_mvl/mxv
 BYTE   W04
 BYTE   VOL   30*PokemonMysteryDungeonExplorersofSkyInTheMorningSun_mvl/mxv
 BYTE   W04
 BYTE   VOL   30*PokemonMysteryDungeonExplorersofSkyInTheMorningSun_mvl/mxv
 BYTE   W04
 BYTE   VOL   29*PokemonMysteryDungeonExplorersofSkyInTheMorningSun_mvl/mxv
 BYTE   W04
 BYTE   VOL   29*PokemonMysteryDungeonExplorersofSkyInTheMorningSun_mvl/mxv
 BYTE   W04
 BYTE   VOL   28*PokemonMysteryDungeonExplorersofSkyInTheMorningSun_mvl/mxv
 BYTE   W04
 BYTE   VOL   28*PokemonMysteryDungeonExplorersofSkyInTheMorningSun_mvl/mxv
 BYTE   W04
 BYTE   VOL   28*PokemonMysteryDungeonExplorersofSkyInTheMorningSun_mvl/mxv
 BYTE   N12  Fs5  v028
 BYTE   W04
 BYTE   VOL   27*PokemonMysteryDungeonExplorersofSkyInTheMorningSun_mvl/mxv
 BYTE   W04
 BYTE   VOL   27*PokemonMysteryDungeonExplorersofSkyInTheMorningSun_mvl/mxv
 BYTE   W04
 BYTE   VOL   25*PokemonMysteryDungeonExplorersofSkyInTheMorningSun_mvl/mxv
 BYTE   N12  Fs5  v020
 BYTE   W04
 BYTE   VOL   25*PokemonMysteryDungeonExplorersofSkyInTheMorningSun_mvl/mxv
 BYTE   W04
 BYTE   VOL   24*PokemonMysteryDungeonExplorersofSkyInTheMorningSun_mvl/mxv
 BYTE   W04
//  #02 //062   ----------------------------------------
 BYTE   VOL   23*PokemonMysteryDungeonExplorersofSkyInTheMorningSun_mvl/mxv
 BYTE   N12  Bn3  v088
 BYTE   W04
 BYTE   VOL   22*PokemonMysteryDungeonExplorersofSkyInTheMorningSun_mvl/mxv
 BYTE   W04
 BYTE   VOL   22*PokemonMysteryDungeonExplorersofSkyInTheMorningSun_mvl/mxv
 BYTE   W04
 BYTE   VOL   21*PokemonMysteryDungeonExplorersofSkyInTheMorningSun_mvl/mxv
 BYTE   N12  Bn3  v028
 BYTE   W04
 BYTE   VOL   20*PokemonMysteryDungeonExplorersofSkyInTheMorningSun_mvl/mxv
 BYTE   W04
 BYTE   VOL   20*PokemonMysteryDungeonExplorersofSkyInTheMorningSun_mvl/mxv
 BYTE   W04
 BYTE   VOL   19*PokemonMysteryDungeonExplorersofSkyInTheMorningSun_mvl/mxv
 BYTE   N36  Fs4  v088
 BYTE   W04
 BYTE   VOL   20*PokemonMysteryDungeonExplorersofSkyInTheMorningSun_mvl/mxv
 BYTE   W04
 BYTE   VOL   22*PokemonMysteryDungeonExplorersofSkyInTheMorningSun_mvl/mxv
 BYTE   W04
 BYTE   VOL   24*PokemonMysteryDungeonExplorersofSkyInTheMorningSun_mvl/mxv
 BYTE   W04
 BYTE   VOL   25*PokemonMysteryDungeonExplorersofSkyInTheMorningSun_mvl/mxv
 BYTE   W04
 BYTE   VOL   27*PokemonMysteryDungeonExplorersofSkyInTheMorningSun_mvl/mxv
 BYTE   W04
 BYTE   VOL   28*PokemonMysteryDungeonExplorersofSkyInTheMorningSun_mvl/mxv
 BYTE   W04
 BYTE   VOL   28*PokemonMysteryDungeonExplorersofSkyInTheMorningSun_mvl/mxv
 BYTE   W04
 BYTE   VOL   29*PokemonMysteryDungeonExplorersofSkyInTheMorningSun_mvl/mxv
 BYTE   W04
 BYTE   VOL   29*PokemonMysteryDungeonExplorersofSkyInTheMorningSun_mvl/mxv
 BYTE   N12  Fs4  v028
 BYTE   W04
 BYTE   VOL   30*PokemonMysteryDungeonExplorersofSkyInTheMorningSun_mvl/mxv
 BYTE   W04
 BYTE   VOL   30*PokemonMysteryDungeonExplorersofSkyInTheMorningSun_mvl/mxv
 BYTE   W04
 BYTE   VOL   31*PokemonMysteryDungeonExplorersofSkyInTheMorningSun_mvl/mxv
 BYTE   N12  Fs4  v088
 BYTE   W04
 BYTE   VOL   32*PokemonMysteryDungeonExplorersofSkyInTheMorningSun_mvl/mxv
 BYTE   W04
 BYTE   VOL   33*PokemonMysteryDungeonExplorersofSkyInTheMorningSun_mvl/mxv
 BYTE   W04
 BYTE   VOL   34*PokemonMysteryDungeonExplorersofSkyInTheMorningSun_mvl/mxv
 BYTE   N12  Fs4  v028
 BYTE   W04
 BYTE   VOL   34*PokemonMysteryDungeonExplorersofSkyInTheMorningSun_mvl/mxv
 BYTE   W04
 BYTE   VOL   34*PokemonMysteryDungeonExplorersofSkyInTheMorningSun_mvl/mxv
 BYTE   W04
//  #02 //063   ----------------------------------------
 BYTE   VOL   35*PokemonMysteryDungeonExplorersofSkyInTheMorningSun_mvl/mxv
 BYTE   N12  Gn4  v088
 BYTE   W04
 BYTE   VOL   35*PokemonMysteryDungeonExplorersofSkyInTheMorningSun_mvl/mxv
 BYTE   W04
 BYTE   VOL   37*PokemonMysteryDungeonExplorersofSkyInTheMorningSun_mvl/mxv
 BYTE   W04
 BYTE   N48  An4
 BYTE   W48
 BYTE   N12  An4  v028
 BYTE   W12
 BYTE   An4  v088
 BYTE   W12
 BYTE   An4  v028
 BYTE   W12
//  #02 //064   ----------------------------------------
 BYTE   Cs5  v088
 BYTE   W12
 BYTE   N60  Dn5
 BYTE   W16
 BYTE   VOL   35*PokemonMysteryDungeonExplorersofSkyInTheMorningSun_mvl/mxv
 BYTE   W04
 BYTE   VOL   30*PokemonMysteryDungeonExplorersofSkyInTheMorningSun_mvl/mxv
 BYTE   W04
 BYTE   VOL   30*PokemonMysteryDungeonExplorersofSkyInTheMorningSun_mvl/mxv
 BYTE   W04
 BYTE   VOL   28*PokemonMysteryDungeonExplorersofSkyInTheMorningSun_mvl/mxv
 BYTE   W04
 BYTE   VOL   28*PokemonMysteryDungeonExplorersofSkyInTheMorningSun_mvl/mxv
 BYTE   W04
 BYTE   VOL   27*PokemonMysteryDungeonExplorersofSkyInTheMorningSun_mvl/mxv
 BYTE   W04
 BYTE   VOL   27*PokemonMysteryDungeonExplorersofSkyInTheMorningSun_mvl/mxv
 BYTE   W04
 BYTE   VOL   26*PokemonMysteryDungeonExplorersofSkyInTheMorningSun_mvl/mxv
 BYTE   W04
 BYTE   VOL   25*PokemonMysteryDungeonExplorersofSkyInTheMorningSun_mvl/mxv
 BYTE   W04
 BYTE   VOL   24*PokemonMysteryDungeonExplorersofSkyInTheMorningSun_mvl/mxv
 BYTE   W04
 BYTE   VOL   23*PokemonMysteryDungeonExplorersofSkyInTheMorningSun_mvl/mxv
 BYTE   W04
 BYTE   VOL   23*PokemonMysteryDungeonExplorersofSkyInTheMorningSun_mvl/mxv
 BYTE   N12  Cs5
 BYTE   W04
 BYTE   VOL   23*PokemonMysteryDungeonExplorersofSkyInTheMorningSun_mvl/mxv
 BYTE   W04
 BYTE   VOL   22*PokemonMysteryDungeonExplorersofSkyInTheMorningSun_mvl/mxv
 BYTE   W04
 BYTE   VOL   22*PokemonMysteryDungeonExplorersofSkyInTheMorningSun_mvl/mxv
 BYTE   N12  Cs5  v028
 BYTE   W04
 BYTE   VOL   21*PokemonMysteryDungeonExplorersofSkyInTheMorningSun_mvl/mxv
 BYTE   W04
 BYTE   VOL   21*PokemonMysteryDungeonExplorersofSkyInTheMorningSun_mvl/mxv
 BYTE   W04
//  #02 //065   ----------------------------------------
 BYTE   VOL   20*PokemonMysteryDungeonExplorersofSkyInTheMorningSun_mvl/mxv
 BYTE   N12  Dn5  v088
 BYTE   W12
 BYTE   VOL   20*PokemonMysteryDungeonExplorersofSkyInTheMorningSun_mvl/mxv
 BYTE   N60  Fs5
 BYTE   W04
 BYTE   VOL   20*PokemonMysteryDungeonExplorersofSkyInTheMorningSun_mvl/mxv
 BYTE   W16
 BYTE   VOL   20*PokemonMysteryDungeonExplorersofSkyInTheMorningSun_mvl/mxv
 BYTE   W08
 BYTE   VOL   21*PokemonMysteryDungeonExplorersofSkyInTheMorningSun_mvl/mxv
 BYTE   W08
 BYTE   VOL   21*PokemonMysteryDungeonExplorersofSkyInTheMorningSun_mvl/mxv
 BYTE   W04
 BYTE   VOL   22*PokemonMysteryDungeonExplorersofSkyInTheMorningSun_mvl/mxv
 BYTE   W04
 BYTE   VOL   22*PokemonMysteryDungeonExplorersofSkyInTheMorningSun_mvl/mxv
 BYTE   W04
 BYTE   VOL   22*PokemonMysteryDungeonExplorersofSkyInTheMorningSun_mvl/mxv
 BYTE   W04
 BYTE   VOL   23*PokemonMysteryDungeonExplorersofSkyInTheMorningSun_mvl/mxv
 BYTE   W04
 BYTE   VOL   23*PokemonMysteryDungeonExplorersofSkyInTheMorningSun_mvl/mxv
 BYTE   W04
 BYTE   VOL   23*PokemonMysteryDungeonExplorersofSkyInTheMorningSun_mvl/mxv
 BYTE   N12  Fs5  v028
 BYTE   W04
 BYTE   VOL   25*PokemonMysteryDungeonExplorersofSkyInTheMorningSun_mvl/mxv
 BYTE   W04
 BYTE   VOL   25*PokemonMysteryDungeonExplorersofSkyInTheMorningSun_mvl/mxv
 BYTE   W04
 BYTE   VOL   26*PokemonMysteryDungeonExplorersofSkyInTheMorningSun_mvl/mxv
 BYTE   N12  Fs5  v020
 BYTE   W04
 BYTE   VOL   27*PokemonMysteryDungeonExplorersofSkyInTheMorningSun_mvl/mxv
 BYTE   W04
 BYTE   VOL   28*PokemonMysteryDungeonExplorersofSkyInTheMorningSun_mvl/mxv
 BYTE   W04
//  #02 //066   ----------------------------------------
 BYTE   VOL   28*PokemonMysteryDungeonExplorersofSkyInTheMorningSun_mvl/mxv
 BYTE   N12  Bn4  v088
 BYTE   W04
 BYTE   VOL   28*PokemonMysteryDungeonExplorersofSkyInTheMorningSun_mvl/mxv
 BYTE   W04
 BYTE   VOL   29*PokemonMysteryDungeonExplorersofSkyInTheMorningSun_mvl/mxv
 BYTE   W04
 BYTE   VOL   30*PokemonMysteryDungeonExplorersofSkyInTheMorningSun_mvl/mxv
 BYTE   N12  Bn4  v028
 BYTE   W04
 BYTE   VOL   31*PokemonMysteryDungeonExplorersofSkyInTheMorningSun_mvl/mxv
 BYTE   W04
 BYTE   VOL   32*PokemonMysteryDungeonExplorersofSkyInTheMorningSun_mvl/mxv
 BYTE   W04
 BYTE   VOL   34*PokemonMysteryDungeonExplorersofSkyInTheMorningSun_mvl/mxv
 BYTE   N24  Fs5  v088
 BYTE   W04
 BYTE   VOL   35*PokemonMysteryDungeonExplorersofSkyInTheMorningSun_mvl/mxv
 BYTE   W04
 BYTE   VOL   36*PokemonMysteryDungeonExplorersofSkyInTheMorningSun_mvl/mxv
 BYTE   W16
 BYTE   N12  En5
 BYTE   W12
 BYTE   N24
 BYTE   W24
 BYTE   N12  En5  v028
 BYTE   W12
//  #02 //067   ----------------------------------------
 BYTE   Bn4  v088
 BYTE   W12
 BYTE   Bn4  v028
 BYTE   W12
 BYTE   N24  Fs5  v088
 BYTE   W24
 BYTE   N12  En5
 BYTE   W12
 BYTE   N24
 BYTE   W04
 BYTE   VOL   35*PokemonMysteryDungeonExplorersofSkyInTheMorningSun_mvl/mxv
 BYTE   W16
 BYTE   VOL   35*PokemonMysteryDungeonExplorersofSkyInTheMorningSun_mvl/mxv
 BYTE   W04
 BYTE   N12  Dn5
 BYTE   W12
//  #02 //068   ----------------------------------------
 BYTE   VOL   34*PokemonMysteryDungeonExplorersofSkyInTheMorningSun_mvl/mxv
 BYTE   N12  Dn5  v028
 BYTE   W04
 BYTE   VOL   34*PokemonMysteryDungeonExplorersofSkyInTheMorningSun_mvl/mxv
 BYTE   W08
 BYTE   VOL   34*PokemonMysteryDungeonExplorersofSkyInTheMorningSun_mvl/mxv
 BYTE   N84  En5  v088
 BYTE   W08
 BYTE   VOL   33*PokemonMysteryDungeonExplorersofSkyInTheMorningSun_mvl/mxv
 BYTE   W04
 BYTE   VOL   32*PokemonMysteryDungeonExplorersofSkyInTheMorningSun_mvl/mxv
 BYTE   W04
 BYTE   VOL   32*PokemonMysteryDungeonExplorersofSkyInTheMorningSun_mvl/mxv
 BYTE   W08
 BYTE   VOL   30*PokemonMysteryDungeonExplorersofSkyInTheMorningSun_mvl/mxv
 BYTE   W08
 BYTE   VOL   30*PokemonMysteryDungeonExplorersofSkyInTheMorningSun_mvl/mxv
 BYTE   W04
 BYTE   VOL   30*PokemonMysteryDungeonExplorersofSkyInTheMorningSun_mvl/mxv
 BYTE   W04
 BYTE   VOL   29*PokemonMysteryDungeonExplorersofSkyInTheMorningSun_mvl/mxv
 BYTE   W04
 BYTE   VOL   28*PokemonMysteryDungeonExplorersofSkyInTheMorningSun_mvl/mxv
 BYTE   W04
 BYTE   VOL   28*PokemonMysteryDungeonExplorersofSkyInTheMorningSun_mvl/mxv
 BYTE   W04
 BYTE   VOL   28*PokemonMysteryDungeonExplorersofSkyInTheMorningSun_mvl/mxv
 BYTE   W04
 BYTE   VOL   27*PokemonMysteryDungeonExplorersofSkyInTheMorningSun_mvl/mxv
 BYTE   W04
 BYTE   VOL   27*PokemonMysteryDungeonExplorersofSkyInTheMorningSun_mvl/mxv
 BYTE   W04
 BYTE   VOL   26*PokemonMysteryDungeonExplorersofSkyInTheMorningSun_mvl/mxv
 BYTE   W04
 BYTE   VOL   25*PokemonMysteryDungeonExplorersofSkyInTheMorningSun_mvl/mxv
 BYTE   W04
 BYTE   VOL   24*PokemonMysteryDungeonExplorersofSkyInTheMorningSun_mvl/mxv
 BYTE   W04
 BYTE   VOL   23*PokemonMysteryDungeonExplorersofSkyInTheMorningSun_mvl/mxv
 BYTE   W04
 BYTE   VOL   23*PokemonMysteryDungeonExplorersofSkyInTheMorningSun_mvl/mxv
 BYTE   W04
//  #02 //069   ----------------------------------------
 BYTE   VOL   22*PokemonMysteryDungeonExplorersofSkyInTheMorningSun_mvl/mxv
 BYTE   N12  En5  v028
 BYTE   W04
 BYTE   VOL   21*PokemonMysteryDungeonExplorersofSkyInTheMorningSun_mvl/mxv
 BYTE   W04
 BYTE   VOL   20*PokemonMysteryDungeonExplorersofSkyInTheMorningSun_mvl/mxv
 BYTE   W04
 BYTE   VOL   20*PokemonMysteryDungeonExplorersofSkyInTheMorningSun_mvl/mxv
 BYTE   N12  En5  v020
 BYTE   W04
 BYTE   VOL   19*PokemonMysteryDungeonExplorersofSkyInTheMorningSun_mvl/mxv
 BYTE   W04
 BYTE   VOL   19*PokemonMysteryDungeonExplorersofSkyInTheMorningSun_mvl/mxv
 BYTE   W04
 BYTE   VOL   18*PokemonMysteryDungeonExplorersofSkyInTheMorningSun_mvl/mxv
 BYTE   N12  En5  v016
 BYTE   W04
 BYTE   VOL   17*PokemonMysteryDungeonExplorersofSkyInTheMorningSun_mvl/mxv
 BYTE   W04
 BYTE   VOL   16*PokemonMysteryDungeonExplorersofSkyInTheMorningSun_mvl/mxv
 BYTE   W04
 BYTE   VOL   15*PokemonMysteryDungeonExplorersofSkyInTheMorningSun_mvl/mxv
 BYTE   N12  En5  v012
 BYTE   W04
 BYTE   VOL   14*PokemonMysteryDungeonExplorersofSkyInTheMorningSun_mvl/mxv
 BYTE   W04
 BYTE   VOL   14*PokemonMysteryDungeonExplorersofSkyInTheMorningSun_mvl/mxv
 BYTE   W04
 BYTE   VOL   13*PokemonMysteryDungeonExplorersofSkyInTheMorningSun_mvl/mxv
 BYTE   W04
 BYTE   VOL   12*PokemonMysteryDungeonExplorersofSkyInTheMorningSun_mvl/mxv
 BYTE   W04
 BYTE   VOL   11*PokemonMysteryDungeonExplorersofSkyInTheMorningSun_mvl/mxv
 BYTE   W04
 BYTE   VOL   10*PokemonMysteryDungeonExplorersofSkyInTheMorningSun_mvl/mxv
 BYTE   W36
//  #02 //070   ----------------------------------------
 BYTE   W96
//  #02 //071   ----------------------------------------
 BYTE   W96
//  #02 //072   ----------------------------------------
 BYTE   W96
//  #02 //073   ----------------------------------------
 BYTE   W96
//  #02 //074   ----------------------------------------
 BYTE   W96
//  #02 //075   ----------------------------------------
 BYTE   W96
//  #02 //076   ----------------------------------------
 BYTE   W96
//  #02 //077   ----------------------------------------
 BYTE   W96
//  #02 //078   ----------------------------------------
 BYTE   W96
//  #02 //079   ----------------------------------------
 BYTE   W96
//  #02 //080   ----------------------------------------
 BYTE   W96
//  #02 //081   ----------------------------------------
 BYTE   W96
//  #02 //082   ----------------------------------------
 BYTE   W96
//  #02 //083   ----------------------------------------
 BYTE   W96
//  #02 //084   ----------------------------------------
 BYTE   W96
//  #02 //085   ----------------------------------------
 BYTE   W96
//  #02 //086   ----------------------------------------
 BYTE   W96
//  #02 //087   ----------------------------------------
 BYTE   W24
 BYTE   VOL   37*PokemonMysteryDungeonExplorersofSkyInTheMorningSun_mvl/mxv
 BYTE   W72
//  #02 //088   ----------------------------------------
 BYTE   N24  Fs4  v127
 BYTE   W24
 BYTE   GoTo
  POIN2 Label_01686136
 BYTE   FINE

//**************** Track 3 (Midi-Chn.2) ****************//

PokemonMysteryDungeonExplorersofSkyInTheMorningSun_003:
//  #03 //000   ----------------------------------------
 BYTE   KEYSH   PokemonMysteryDungeonExplorersofSkyInTheMorningSun_key+0
 BYTE   VOICE   49
 BYTE   MODT 0
 BYTE   LFOS 44
 BYTE   VOL   24*PokemonMysteryDungeonExplorersofSkyInTheMorningSun_mvl/mxv
 BYTE   PAN   c_v+36
 BYTE   VOL   24*PokemonMysteryDungeonExplorersofSkyInTheMorningSun_mvl/mxv
 BYTE   BEND   c_v+0
 BYTE   W96
//  #03 //001   ----------------------------------------
 BYTE   W96
//  #03 //002   ----------------------------------------
 BYTE   W96
//  #03 //003   ----------------------------------------
 BYTE   W96
//  #03 //004   ----------------------------------------
 BYTE   W96
//  #03 //005   ----------------------------------------
 BYTE   W96
//  #03 //006   ----------------------------------------
 BYTE   W96
//  #03 //007   ----------------------------------------
 BYTE   W96
//  #03 //008   ----------------------------------------
Label_01686584:
 BYTE   W24
 BYTE   VOL   6*PokemonMysteryDungeonExplorersofSkyInTheMorningSun_mvl/mxv
 BYTE   N92  Gn2  v028
 BYTE   W06
 BYTE   VOL   11*PokemonMysteryDungeonExplorersofSkyInTheMorningSun_mvl/mxv
 BYTE   W06
 BYTE   VOL   14*PokemonMysteryDungeonExplorersofSkyInTheMorningSun_mvl/mxv
 BYTE   W06
 BYTE   VOL   17*PokemonMysteryDungeonExplorersofSkyInTheMorningSun_mvl/mxv
 BYTE   W06
 BYTE   VOL   19*PokemonMysteryDungeonExplorersofSkyInTheMorningSun_mvl/mxv
 BYTE   W06
 BYTE   VOL   22*PokemonMysteryDungeonExplorersofSkyInTheMorningSun_mvl/mxv
 BYTE   W06
 BYTE   VOL   23*PokemonMysteryDungeonExplorersofSkyInTheMorningSun_mvl/mxv
 BYTE   W06
 BYTE   VOL   23*PokemonMysteryDungeonExplorersofSkyInTheMorningSun_mvl/mxv
 BYTE   W28
 BYTE   W01
 BYTE   VOL   23*PokemonMysteryDungeonExplorersofSkyInTheMorningSun_mvl/mxv
 BYTE   W01
 BYTE   PEND 
//  #03 //009   ----------------------------------------
Label_0168659E:
 BYTE   W05
 BYTE   VOL   23*PokemonMysteryDungeonExplorersofSkyInTheMorningSun_mvl/mxv
 BYTE   W06
 BYTE   VOL   22*PokemonMysteryDungeonExplorersofSkyInTheMorningSun_mvl/mxv
 BYTE   W07
 BYTE   VOL   20*PokemonMysteryDungeonExplorersofSkyInTheMorningSun_mvl/mxv
 BYTE   W06
 BYTE   VOL   19*PokemonMysteryDungeonExplorersofSkyInTheMorningSun_mvl/mxv
 BYTE   N92  An2  v028
 BYTE   W01
 BYTE   VOL   19*PokemonMysteryDungeonExplorersofSkyInTheMorningSun_mvl/mxv
 BYTE   W05
 BYTE   VOL   18*PokemonMysteryDungeonExplorersofSkyInTheMorningSun_mvl/mxv
 BYTE   W06
 BYTE   VOL   20*PokemonMysteryDungeonExplorersofSkyInTheMorningSun_mvl/mxv
 BYTE   W05
 BYTE   VOL   22*PokemonMysteryDungeonExplorersofSkyInTheMorningSun_mvl/mxv
 BYTE   W06
 BYTE   VOL   23*PokemonMysteryDungeonExplorersofSkyInTheMorningSun_mvl/mxv
 BYTE   W48
 BYTE   VOL   23*PokemonMysteryDungeonExplorersofSkyInTheMorningSun_mvl/mxv
 BYTE   W01
 BYTE   PEND 
//  #03 //010   ----------------------------------------
Label_016865B9:
 BYTE   W05
 BYTE   VOL   23*PokemonMysteryDungeonExplorersofSkyInTheMorningSun_mvl/mxv
 BYTE   W06
 BYTE   VOL   21*PokemonMysteryDungeonExplorersofSkyInTheMorningSun_mvl/mxv
 BYTE   W01
 BYTE   VOL   20*PokemonMysteryDungeonExplorersofSkyInTheMorningSun_mvl/mxv
 BYTE   W06
 BYTE   VOL   19*PokemonMysteryDungeonExplorersofSkyInTheMorningSun_mvl/mxv
 BYTE   W06
 BYTE   VOL   19*PokemonMysteryDungeonExplorersofSkyInTheMorningSun_mvl/mxv
 BYTE   N44  Fs2  v028
 BYTE   W02
 BYTE   VOL   18*PokemonMysteryDungeonExplorersofSkyInTheMorningSun_mvl/mxv
 BYTE   W04
 BYTE   VOL   17*PokemonMysteryDungeonExplorersofSkyInTheMorningSun_mvl/mxv
 BYTE   W06
 BYTE   VOL   19*PokemonMysteryDungeonExplorersofSkyInTheMorningSun_mvl/mxv
 BYTE   W01
 BYTE   VOL   21*PokemonMysteryDungeonExplorersofSkyInTheMorningSun_mvl/mxv
 BYTE   W06
 BYTE   VOL   23*PokemonMysteryDungeonExplorersofSkyInTheMorningSun_mvl/mxv
 BYTE   W06
 BYTE   VOL   24*PokemonMysteryDungeonExplorersofSkyInTheMorningSun_mvl/mxv
 BYTE   W23
 BYTE   N44  An2
 BYTE   W24
 BYTE   PEND 
//  #03 //011   ----------------------------------------
Label_016865D9:
 BYTE   W24
 BYTE   N92  An2  v020
 BYTE   W42
 BYTE   W01
 BYTE   VOL   23*PokemonMysteryDungeonExplorersofSkyInTheMorningSun_mvl/mxv
 BYTE   W18
 BYTE   VOL   23*PokemonMysteryDungeonExplorersofSkyInTheMorningSun_mvl/mxv
 BYTE   W06
 BYTE   VOL   22*PokemonMysteryDungeonExplorersofSkyInTheMorningSun_mvl/mxv
 BYTE   W05
 BYTE   PEND 
//  #03 //012   ----------------------------------------
Label_016865E7:
 BYTE   W01
 BYTE   VOL   22*PokemonMysteryDungeonExplorersofSkyInTheMorningSun_mvl/mxv
 BYTE   W06
 BYTE   VOL   21*PokemonMysteryDungeonExplorersofSkyInTheMorningSun_mvl/mxv
 BYTE   W06
 BYTE   VOL   20*PokemonMysteryDungeonExplorersofSkyInTheMorningSun_mvl/mxv
 BYTE   W06
 BYTE   VOL   19*PokemonMysteryDungeonExplorersofSkyInTheMorningSun_mvl/mxv
 BYTE   W05
 BYTE   VOL   18*PokemonMysteryDungeonExplorersofSkyInTheMorningSun_mvl/mxv
 BYTE   TIE  Gn2  v024
 BYTE   W06
 BYTE   VOL   18*PokemonMysteryDungeonExplorersofSkyInTheMorningSun_mvl/mxv
 BYTE   W06
 BYTE   VOL   18*PokemonMysteryDungeonExplorersofSkyInTheMorningSun_mvl/mxv
 BYTE   W06
 BYTE   VOL   19*PokemonMysteryDungeonExplorersofSkyInTheMorningSun_mvl/mxv
 BYTE   W02
 BYTE   VOL   20*PokemonMysteryDungeonExplorersofSkyInTheMorningSun_mvl/mxv
 BYTE   W06
 BYTE   VOL   22*PokemonMysteryDungeonExplorersofSkyInTheMorningSun_mvl/mxv
 BYTE   W06
 BYTE   VOL   23*PokemonMysteryDungeonExplorersofSkyInTheMorningSun_mvl/mxv
 BYTE   W06
 BYTE   VOL   23*PokemonMysteryDungeonExplorersofSkyInTheMorningSun_mvl/mxv
 BYTE   W06
 BYTE   VOL   23*PokemonMysteryDungeonExplorersofSkyInTheMorningSun_mvl/mxv
 BYTE   W28
 BYTE   PEND 
//  #03 //013   ----------------------------------------
Label_01686608:
 BYTE   W66
 BYTE   VOL   23*PokemonMysteryDungeonExplorersofSkyInTheMorningSun_mvl/mxv
 BYTE   W12
 BYTE   VOL   23*PokemonMysteryDungeonExplorersofSkyInTheMorningSun_mvl/mxv
 BYTE   W06
 BYTE   VOL   22*PokemonMysteryDungeonExplorersofSkyInTheMorningSun_mvl/mxv
 BYTE   W06
 BYTE   VOL   22*PokemonMysteryDungeonExplorersofSkyInTheMorningSun_mvl/mxv
 BYTE   W06
 BYTE   PEND 
//  #03 //014   ----------------------------------------
Label_01686613:
 BYTE   VOL   20*PokemonMysteryDungeonExplorersofSkyInTheMorningSun_mvl/mxv
 BYTE   W05
 BYTE   VOL   19*PokemonMysteryDungeonExplorersofSkyInTheMorningSun_mvl/mxv
 BYTE   W12
 BYTE   VOL   19*PokemonMysteryDungeonExplorersofSkyInTheMorningSun_mvl/mxv
 BYTE   W04
 BYTE   VOL   18*PokemonMysteryDungeonExplorersofSkyInTheMorningSun_mvl/mxv
 BYTE   W02
 BYTE   PEND 
 BYTE   EOT
 BYTE   Gn2
 BYTE   W01
 BYTE   N92  An2  v028
 BYTE   W02
 BYTE   VOL   18*PokemonMysteryDungeonExplorersofSkyInTheMorningSun_mvl/mxv
 BYTE   W06
 BYTE   VOL   18*PokemonMysteryDungeonExplorersofSkyInTheMorningSun_mvl/mxv
 BYTE   W05
 BYTE   VOL   20*PokemonMysteryDungeonExplorersofSkyInTheMorningSun_mvl/mxv
 BYTE   W04
 BYTE   VOL   22*PokemonMysteryDungeonExplorersofSkyInTheMorningSun_mvl/mxv
 BYTE   W06
 BYTE   VOL   23*PokemonMysteryDungeonExplorersofSkyInTheMorningSun_mvl/mxv
 BYTE   W06
 BYTE   VOL   24*PokemonMysteryDungeonExplorersofSkyInTheMorningSun_mvl/mxv
 BYTE   W42
 BYTE   W01
//  #03 //015   ----------------------------------------
Label_01686632:
 BYTE   W02
 BYTE   VOL   23*PokemonMysteryDungeonExplorersofSkyInTheMorningSun_mvl/mxv
 BYTE   W04
 BYTE   VOL   22*PokemonMysteryDungeonExplorersofSkyInTheMorningSun_mvl/mxv
 BYTE   W06
 BYTE   VOL   22*PokemonMysteryDungeonExplorersofSkyInTheMorningSun_mvl/mxv
 BYTE   W06
 BYTE   VOL   19*PokemonMysteryDungeonExplorersofSkyInTheMorningSun_mvl/mxv
 BYTE   W02
 BYTE   VOL   18*PokemonMysteryDungeonExplorersofSkyInTheMorningSun_mvl/mxv
 BYTE   W04
 BYTE   TIE  An2  v056
 BYTE   W07
 BYTE   VOL   19*PokemonMysteryDungeonExplorersofSkyInTheMorningSun_mvl/mxv
 BYTE   W07
 BYTE   VOL   21*PokemonMysteryDungeonExplorersofSkyInTheMorningSun_mvl/mxv
 BYTE   W01
 BYTE   VOL   22*PokemonMysteryDungeonExplorersofSkyInTheMorningSun_mvl/mxv
 BYTE   W06
 BYTE   VOL   23*PokemonMysteryDungeonExplorersofSkyInTheMorningSun_mvl/mxv
 BYTE   W05
 BYTE   VOL   24*PokemonMysteryDungeonExplorersofSkyInTheMorningSun_mvl/mxv
 BYTE   W44
 BYTE   W02
 BYTE   PEND 
//  #03 //016   ----------------------------------------
Label_0168664F:
 BYTE   W24
 BYTE   VOL   23*PokemonMysteryDungeonExplorersofSkyInTheMorningSun_mvl/mxv
 BYTE   W06
 BYTE   VOL   22*PokemonMysteryDungeonExplorersofSkyInTheMorningSun_mvl/mxv
 BYTE   W06
 BYTE   VOL   22*PokemonMysteryDungeonExplorersofSkyInTheMorningSun_mvl/mxv
 BYTE   W06
 BYTE   VOL   20*PokemonMysteryDungeonExplorersofSkyInTheMorningSun_mvl/mxv
 BYTE   W06
 BYTE   VOL   19*PokemonMysteryDungeonExplorersofSkyInTheMorningSun_mvl/mxv
 BYTE   W06
 BYTE   VOL   19*PokemonMysteryDungeonExplorersofSkyInTheMorningSun_mvl/mxv
 BYTE   W06
 BYTE   VOL   18*PokemonMysteryDungeonExplorersofSkyInTheMorningSun_mvl/mxv
 BYTE   W06
 BYTE   VOL   17*PokemonMysteryDungeonExplorersofSkyInTheMorningSun_mvl/mxv
 BYTE   W06
 BYTE   VOL   16*PokemonMysteryDungeonExplorersofSkyInTheMorningSun_mvl/mxv
 BYTE   W06
 BYTE   VOL   15*PokemonMysteryDungeonExplorersofSkyInTheMorningSun_mvl/mxv
 BYTE   W06
 BYTE   VOL   14*PokemonMysteryDungeonExplorersofSkyInTheMorningSun_mvl/mxv
 BYTE   W06
 BYTE   VOL   13*PokemonMysteryDungeonExplorersofSkyInTheMorningSun_mvl/mxv
 BYTE   W06
 BYTE   PEND 
//  #03 //017   ----------------------------------------
Label_0168666A:
 BYTE   VOL   13*PokemonMysteryDungeonExplorersofSkyInTheMorningSun_mvl/mxv
 BYTE   W06
 BYTE   VOL   11*PokemonMysteryDungeonExplorersofSkyInTheMorningSun_mvl/mxv
 BYTE   W06
 BYTE   VOL   11*PokemonMysteryDungeonExplorersofSkyInTheMorningSun_mvl/mxv
 BYTE   W06
 BYTE   VOL   10*PokemonMysteryDungeonExplorersofSkyInTheMorningSun_mvl/mxv
 BYTE   W06
 BYTE   VOL   10*PokemonMysteryDungeonExplorersofSkyInTheMorningSun_mvl/mxv
 BYTE   W06
 BYTE   VOL   9*PokemonMysteryDungeonExplorersofSkyInTheMorningSun_mvl/mxv
 BYTE   W06
 BYTE   VOL   8*PokemonMysteryDungeonExplorersofSkyInTheMorningSun_mvl/mxv
 BYTE   W06
 BYTE   VOL   8*PokemonMysteryDungeonExplorersofSkyInTheMorningSun_mvl/mxv
 BYTE   W06
 BYTE   VOL   7*PokemonMysteryDungeonExplorersofSkyInTheMorningSun_mvl/mxv
 BYTE   W06
 BYTE   VOL   6*PokemonMysteryDungeonExplorersofSkyInTheMorningSun_mvl/mxv
 BYTE   W06
 BYTE   VOL   6*PokemonMysteryDungeonExplorersofSkyInTheMorningSun_mvl/mxv
 BYTE   W06
 BYTE   VOL   5*PokemonMysteryDungeonExplorersofSkyInTheMorningSun_mvl/mxv
 BYTE   W06
 BYTE   VOL   5*PokemonMysteryDungeonExplorersofSkyInTheMorningSun_mvl/mxv
 BYTE   W06
 BYTE   VOL   4*PokemonMysteryDungeonExplorersofSkyInTheMorningSun_mvl/mxv
 BYTE   W06
 BYTE   VOL   3*PokemonMysteryDungeonExplorersofSkyInTheMorningSun_mvl/mxv
 BYTE   W06
 BYTE   VOL   3*PokemonMysteryDungeonExplorersofSkyInTheMorningSun_mvl/mxv
 BYTE   W06
 BYTE   PEND 
//  #03 //018   ----------------------------------------
Label_0168668C:
 BYTE   VOL   2*PokemonMysteryDungeonExplorersofSkyInTheMorningSun_mvl/mxv
 BYTE   W06
 BYTE   VOL   2*PokemonMysteryDungeonExplorersofSkyInTheMorningSun_mvl/mxv
 BYTE   W06
 BYTE   VOL   2*PokemonMysteryDungeonExplorersofSkyInTheMorningSun_mvl/mxv
 BYTE   W06
 BYTE   VOL   1*PokemonMysteryDungeonExplorersofSkyInTheMorningSun_mvl/mxv
 BYTE   W05
 BYTE   PEND 
 BYTE   EOT
 BYTE   An2
 BYTE   W01
Label_01686699:
 BYTE   W72
//  #03 //019   ----------------------------------------
 BYTE   W96
//  #03 //020   ----------------------------------------
 BYTE   W96
//  #03 //021   ----------------------------------------
 BYTE   W96
//  #03 //022   ----------------------------------------
 BYTE   W96
//  #03 //023   ----------------------------------------
 BYTE   W96
//  #03 //024   ----------------------------------------
 BYTE   W96
//  #03 //025   ----------------------------------------
 BYTE   W96
//  #03 //026   ----------------------------------------
 BYTE   W96
//  #03 //027   ----------------------------------------
 BYTE   W96
//  #03 //028   ----------------------------------------
 BYTE   W96
//  #03 //029   ----------------------------------------
 BYTE   W96
//  #03 //030   ----------------------------------------
 BYTE   W96
//  #03 //031   ----------------------------------------
 BYTE   W96
//  #03 //032   ----------------------------------------
 BYTE   W96
//  #03 //033   ----------------------------------------
 BYTE   W96
//  #03 //034   ----------------------------------------
 BYTE   W24
 BYTE   VOL   11*PokemonMysteryDungeonExplorersofSkyInTheMorningSun_mvl/mxv
 BYTE   TIE  Dn3  v060
 BYTE   W06
 BYTE   VOL   11*PokemonMysteryDungeonExplorersofSkyInTheMorningSun_mvl/mxv
 BYTE   W06
 BYTE   VOL   11*PokemonMysteryDungeonExplorersofSkyInTheMorningSun_mvl/mxv
 BYTE   W06
 BYTE   VOL   12*PokemonMysteryDungeonExplorersofSkyInTheMorningSun_mvl/mxv
 BYTE   W06
 BYTE   VOL   13*PokemonMysteryDungeonExplorersofSkyInTheMorningSun_mvl/mxv
 BYTE   W06
 BYTE   VOL   13*PokemonMysteryDungeonExplorersofSkyInTheMorningSun_mvl/mxv
 BYTE   W06
 BYTE   VOL   13*PokemonMysteryDungeonExplorersofSkyInTheMorningSun_mvl/mxv
 BYTE   W06
 BYTE   VOL   14*PokemonMysteryDungeonExplorersofSkyInTheMorningSun_mvl/mxv
 BYTE   W06
 BYTE   VOL   14*PokemonMysteryDungeonExplorersofSkyInTheMorningSun_mvl/mxv
 BYTE   W06
 BYTE   VOL   14*PokemonMysteryDungeonExplorersofSkyInTheMorningSun_mvl/mxv
 BYTE   W06
 BYTE   VOL   15*PokemonMysteryDungeonExplorersofSkyInTheMorningSun_mvl/mxv
 BYTE   W06
 BYTE   VOL   15*PokemonMysteryDungeonExplorersofSkyInTheMorningSun_mvl/mxv
 BYTE   W06
//  #03 //035   ----------------------------------------
 BYTE   VOL   16*PokemonMysteryDungeonExplorersofSkyInTheMorningSun_mvl/mxv
 BYTE   W06
 BYTE   VOL   16*PokemonMysteryDungeonExplorersofSkyInTheMorningSun_mvl/mxv
 BYTE   W06
 BYTE   VOL   17*PokemonMysteryDungeonExplorersofSkyInTheMorningSun_mvl/mxv
 BYTE   W06
 BYTE   VOL   17*PokemonMysteryDungeonExplorersofSkyInTheMorningSun_mvl/mxv
 BYTE   W06
 BYTE   VOL   18*PokemonMysteryDungeonExplorersofSkyInTheMorningSun_mvl/mxv
 BYTE   W06
 BYTE   VOL   18*PokemonMysteryDungeonExplorersofSkyInTheMorningSun_mvl/mxv
 BYTE   W06
 BYTE   VOL   18*PokemonMysteryDungeonExplorersofSkyInTheMorningSun_mvl/mxv
 BYTE   W06
 BYTE   VOL   18*PokemonMysteryDungeonExplorersofSkyInTheMorningSun_mvl/mxv
 BYTE   W06
 BYTE   VOL   19*PokemonMysteryDungeonExplorersofSkyInTheMorningSun_mvl/mxv
 BYTE   W06
 BYTE   VOL   19*PokemonMysteryDungeonExplorersofSkyInTheMorningSun_mvl/mxv
 BYTE   W06
 BYTE   VOL   19*PokemonMysteryDungeonExplorersofSkyInTheMorningSun_mvl/mxv
 BYTE   W06
 BYTE   VOL   20*PokemonMysteryDungeonExplorersofSkyInTheMorningSun_mvl/mxv
 BYTE   W06
 BYTE   VOL   20*PokemonMysteryDungeonExplorersofSkyInTheMorningSun_mvl/mxv
 BYTE   W06
 BYTE   VOL   21*PokemonMysteryDungeonExplorersofSkyInTheMorningSun_mvl/mxv
 BYTE   W06
 BYTE   VOL   22*PokemonMysteryDungeonExplorersofSkyInTheMorningSun_mvl/mxv
 BYTE   W06
 BYTE   VOL   22*PokemonMysteryDungeonExplorersofSkyInTheMorningSun_mvl/mxv
 BYTE   W06
//  #03 //036   ----------------------------------------
 BYTE   VOL   22*PokemonMysteryDungeonExplorersofSkyInTheMorningSun_mvl/mxv
 BYTE   W06
 BYTE   VOL   23*PokemonMysteryDungeonExplorersofSkyInTheMorningSun_mvl/mxv
 BYTE   W06
 BYTE   VOL   23*PokemonMysteryDungeonExplorersofSkyInTheMorningSun_mvl/mxv
 BYTE   W06
 BYTE   VOL   23*PokemonMysteryDungeonExplorersofSkyInTheMorningSun_mvl/mxv
 BYTE   W05
 BYTE   EOT
 BYTE   W01
 BYTE   VOL   23*PokemonMysteryDungeonExplorersofSkyInTheMorningSun_mvl/mxv
 BYTE   TIE  Cn3
 BYTE   W06
 BYTE   VOL   23*PokemonMysteryDungeonExplorersofSkyInTheMorningSun_mvl/mxv
 BYTE   W06
 BYTE   VOL   22*PokemonMysteryDungeonExplorersofSkyInTheMorningSun_mvl/mxv
 BYTE   W06
 BYTE   VOL   22*PokemonMysteryDungeonExplorersofSkyInTheMorningSun_mvl/mxv
 BYTE   W06
 BYTE   VOL   22*PokemonMysteryDungeonExplorersofSkyInTheMorningSun_mvl/mxv
 BYTE   W06
 BYTE   VOL   22*PokemonMysteryDungeonExplorersofSkyInTheMorningSun_mvl/mxv
 BYTE   W06
 BYTE   VOL   21*PokemonMysteryDungeonExplorersofSkyInTheMorningSun_mvl/mxv
 BYTE   W06
 BYTE   VOL   20*PokemonMysteryDungeonExplorersofSkyInTheMorningSun_mvl/mxv
 BYTE   W06
 BYTE   VOL   20*PokemonMysteryDungeonExplorersofSkyInTheMorningSun_mvl/mxv
 BYTE   W06
 BYTE   VOL   20*PokemonMysteryDungeonExplorersofSkyInTheMorningSun_mvl/mxv
 BYTE   W06
 BYTE   VOL   19*PokemonMysteryDungeonExplorersofSkyInTheMorningSun_mvl/mxv
 BYTE   W06
 BYTE   VOL   19*PokemonMysteryDungeonExplorersofSkyInTheMorningSun_mvl/mxv
 BYTE   W06
//  #03 //037   ----------------------------------------
 BYTE   VOL   19*PokemonMysteryDungeonExplorersofSkyInTheMorningSun_mvl/mxv
 BYTE   W06
 BYTE   VOL   18*PokemonMysteryDungeonExplorersofSkyInTheMorningSun_mvl/mxv
 BYTE   W12
 BYTE   VOL   18*PokemonMysteryDungeonExplorersofSkyInTheMorningSun_mvl/mxv
 BYTE   W06
 BYTE   VOL   18*PokemonMysteryDungeonExplorersofSkyInTheMorningSun_mvl/mxv
 BYTE   W06
 BYTE   VOL   17*PokemonMysteryDungeonExplorersofSkyInTheMorningSun_mvl/mxv
 BYTE   W12
 BYTE   VOL   17*PokemonMysteryDungeonExplorersofSkyInTheMorningSun_mvl/mxv
 BYTE   W06
 BYTE   VOL   16*PokemonMysteryDungeonExplorersofSkyInTheMorningSun_mvl/mxv
 BYTE   W06
 BYTE   VOL   15*PokemonMysteryDungeonExplorersofSkyInTheMorningSun_mvl/mxv
 BYTE   W06
 BYTE   VOL   15*PokemonMysteryDungeonExplorersofSkyInTheMorningSun_mvl/mxv
 BYTE   W06
 BYTE   VOL   15*PokemonMysteryDungeonExplorersofSkyInTheMorningSun_mvl/mxv
 BYTE   W06
 BYTE   VOL   14*PokemonMysteryDungeonExplorersofSkyInTheMorningSun_mvl/mxv
 BYTE   W06
 BYTE   VOL   14*PokemonMysteryDungeonExplorersofSkyInTheMorningSun_mvl/mxv
 BYTE   W06
 BYTE   VOL   14*PokemonMysteryDungeonExplorersofSkyInTheMorningSun_mvl/mxv
 BYTE   W06
 BYTE   VOL   13*PokemonMysteryDungeonExplorersofSkyInTheMorningSun_mvl/mxv
 BYTE   W06
//  #03 //038   ----------------------------------------
 BYTE   VOL   13*PokemonMysteryDungeonExplorersofSkyInTheMorningSun_mvl/mxv
 BYTE   W06
 BYTE   VOL   13*PokemonMysteryDungeonExplorersofSkyInTheMorningSun_mvl/mxv
 BYTE   W06
 BYTE   VOL   12*PokemonMysteryDungeonExplorersofSkyInTheMorningSun_mvl/mxv
 BYTE   W06
 BYTE   VOL   13*PokemonMysteryDungeonExplorersofSkyInTheMorningSun_mvl/mxv
 BYTE   W05
 BYTE   EOT
 BYTE   W01
 BYTE   VOL   13*PokemonMysteryDungeonExplorersofSkyInTheMorningSun_mvl/mxv
 BYTE   N92  As2
 BYTE   W12
 BYTE   VOL   13*PokemonMysteryDungeonExplorersofSkyInTheMorningSun_mvl/mxv
 BYTE   W06
 BYTE   VOL   14*PokemonMysteryDungeonExplorersofSkyInTheMorningSun_mvl/mxv
 BYTE   W06
 BYTE   VOL   14*PokemonMysteryDungeonExplorersofSkyInTheMorningSun_mvl/mxv
 BYTE   W06
 BYTE   VOL   14*PokemonMysteryDungeonExplorersofSkyInTheMorningSun_mvl/mxv
 BYTE   W06
 BYTE   VOL   14*PokemonMysteryDungeonExplorersofSkyInTheMorningSun_mvl/mxv
 BYTE   W06
 BYTE   VOL   15*PokemonMysteryDungeonExplorersofSkyInTheMorningSun_mvl/mxv
 BYTE   W06
 BYTE   VOL   15*PokemonMysteryDungeonExplorersofSkyInTheMorningSun_mvl/mxv
 BYTE   W06
 BYTE   VOL   16*PokemonMysteryDungeonExplorersofSkyInTheMorningSun_mvl/mxv
 BYTE   W06
 BYTE   VOL   16*PokemonMysteryDungeonExplorersofSkyInTheMorningSun_mvl/mxv
 BYTE   W06
 BYTE   VOL   17*PokemonMysteryDungeonExplorersofSkyInTheMorningSun_mvl/mxv
 BYTE   W06
//  #03 //039   ----------------------------------------
 BYTE   VOL   17*PokemonMysteryDungeonExplorersofSkyInTheMorningSun_mvl/mxv
 BYTE   W06
 BYTE   VOL   17*PokemonMysteryDungeonExplorersofSkyInTheMorningSun_mvl/mxv
 BYTE   W06
 BYTE   VOL   17*PokemonMysteryDungeonExplorersofSkyInTheMorningSun_mvl/mxv
 BYTE   W06
 BYTE   VOL   18*PokemonMysteryDungeonExplorersofSkyInTheMorningSun_mvl/mxv
 BYTE   W06
 BYTE   VOL   18*PokemonMysteryDungeonExplorersofSkyInTheMorningSun_mvl/mxv
 BYTE   N92  Gn2
 BYTE   W06
 BYTE   VOL   18*PokemonMysteryDungeonExplorersofSkyInTheMorningSun_mvl/mxv
 BYTE   W06
 BYTE   VOL   18*PokemonMysteryDungeonExplorersofSkyInTheMorningSun_mvl/mxv
 BYTE   W06
 BYTE   VOL   19*PokemonMysteryDungeonExplorersofSkyInTheMorningSun_mvl/mxv
 BYTE   W06
 BYTE   VOL   19*PokemonMysteryDungeonExplorersofSkyInTheMorningSun_mvl/mxv
 BYTE   W12
 BYTE   VOL   20*PokemonMysteryDungeonExplorersofSkyInTheMorningSun_mvl/mxv
 BYTE   W06
 BYTE   VOL   20*PokemonMysteryDungeonExplorersofSkyInTheMorningSun_mvl/mxv
 BYTE   W06
 BYTE   VOL   20*PokemonMysteryDungeonExplorersofSkyInTheMorningSun_mvl/mxv
 BYTE   W06
 BYTE   VOL   21*PokemonMysteryDungeonExplorersofSkyInTheMorningSun_mvl/mxv
 BYTE   W06
 BYTE   VOL   21*PokemonMysteryDungeonExplorersofSkyInTheMorningSun_mvl/mxv
 BYTE   W06
 BYTE   VOL   22*PokemonMysteryDungeonExplorersofSkyInTheMorningSun_mvl/mxv
 BYTE   W06
//  #03 //040   ----------------------------------------
 BYTE   VOL   22*PokemonMysteryDungeonExplorersofSkyInTheMorningSun_mvl/mxv
 BYTE   W06
 BYTE   VOL   22*PokemonMysteryDungeonExplorersofSkyInTheMorningSun_mvl/mxv
 BYTE   W06
 BYTE   VOL   23*PokemonMysteryDungeonExplorersofSkyInTheMorningSun_mvl/mxv
 BYTE   W06
 BYTE   VOL   23*PokemonMysteryDungeonExplorersofSkyInTheMorningSun_mvl/mxv
 BYTE   W06
 BYTE   VOL   23*PokemonMysteryDungeonExplorersofSkyInTheMorningSun_mvl/mxv
 BYTE   N92  An2
 BYTE   W06
 BYTE   VOL   24*PokemonMysteryDungeonExplorersofSkyInTheMorningSun_mvl/mxv
 BYTE   W06
 BYTE   VOL   23*PokemonMysteryDungeonExplorersofSkyInTheMorningSun_mvl/mxv
 BYTE   W06
 BYTE   VOL   23*PokemonMysteryDungeonExplorersofSkyInTheMorningSun_mvl/mxv
 BYTE   W06
 BYTE   VOL   22*PokemonMysteryDungeonExplorersofSkyInTheMorningSun_mvl/mxv
 BYTE   W06
 BYTE   VOL   22*PokemonMysteryDungeonExplorersofSkyInTheMorningSun_mvl/mxv
 BYTE   W06
 BYTE   VOL   22*PokemonMysteryDungeonExplorersofSkyInTheMorningSun_mvl/mxv
 BYTE   W06
 BYTE   VOL   22*PokemonMysteryDungeonExplorersofSkyInTheMorningSun_mvl/mxv
 BYTE   W06
 BYTE   VOL   21*PokemonMysteryDungeonExplorersofSkyInTheMorningSun_mvl/mxv
 BYTE   W06
 BYTE   VOL   21*PokemonMysteryDungeonExplorersofSkyInTheMorningSun_mvl/mxv
 BYTE   W06
 BYTE   VOL   20*PokemonMysteryDungeonExplorersofSkyInTheMorningSun_mvl/mxv
 BYTE   W06
 BYTE   VOL   20*PokemonMysteryDungeonExplorersofSkyInTheMorningSun_mvl/mxv
 BYTE   W06
//  #03 //041   ----------------------------------------
 BYTE   VOL   20*PokemonMysteryDungeonExplorersofSkyInTheMorningSun_mvl/mxv
 BYTE   W06
 BYTE   VOL   19*PokemonMysteryDungeonExplorersofSkyInTheMorningSun_mvl/mxv
 BYTE   W12
 BYTE   VOL   19*PokemonMysteryDungeonExplorersofSkyInTheMorningSun_mvl/mxv
 BYTE   W06
 BYTE   VOL   18*PokemonMysteryDungeonExplorersofSkyInTheMorningSun_mvl/mxv
 BYTE   N92
 BYTE   W06
 BYTE   VOL   18*PokemonMysteryDungeonExplorersofSkyInTheMorningSun_mvl/mxv
 BYTE   W12
 BYTE   VOL   18*PokemonMysteryDungeonExplorersofSkyInTheMorningSun_mvl/mxv
 BYTE   W06
 BYTE   VOL   18*PokemonMysteryDungeonExplorersofSkyInTheMorningSun_mvl/mxv
 BYTE   W06
 BYTE   VOL   17*PokemonMysteryDungeonExplorersofSkyInTheMorningSun_mvl/mxv
 BYTE   W06
 BYTE   VOL   17*PokemonMysteryDungeonExplorersofSkyInTheMorningSun_mvl/mxv
 BYTE   W06
 BYTE   VOL   17*PokemonMysteryDungeonExplorersofSkyInTheMorningSun_mvl/mxv
 BYTE   W06
 BYTE   VOL   17*PokemonMysteryDungeonExplorersofSkyInTheMorningSun_mvl/mxv
 BYTE   W06
 BYTE   VOL   16*PokemonMysteryDungeonExplorersofSkyInTheMorningSun_mvl/mxv
 BYTE   W06
 BYTE   VOL   16*PokemonMysteryDungeonExplorersofSkyInTheMorningSun_mvl/mxv
 BYTE   W06
 BYTE   VOL   15*PokemonMysteryDungeonExplorersofSkyInTheMorningSun_mvl/mxv
 BYTE   W06
//  #03 //042   ----------------------------------------
 BYTE   VOL   15*PokemonMysteryDungeonExplorersofSkyInTheMorningSun_mvl/mxv
 BYTE   W06
 BYTE   VOL   15*PokemonMysteryDungeonExplorersofSkyInTheMorningSun_mvl/mxv
 BYTE   W06
 BYTE   VOL   14*PokemonMysteryDungeonExplorersofSkyInTheMorningSun_mvl/mxv
 BYTE   W06
 BYTE   VOL   14*PokemonMysteryDungeonExplorersofSkyInTheMorningSun_mvl/mxv
 BYTE   W06
 BYTE   VOL   14*PokemonMysteryDungeonExplorersofSkyInTheMorningSun_mvl/mxv
 BYTE   N44  Gn2
 BYTE   W06
 BYTE   VOL   14*PokemonMysteryDungeonExplorersofSkyInTheMorningSun_mvl/mxv
 BYTE   W06
 BYTE   VOL   14*PokemonMysteryDungeonExplorersofSkyInTheMorningSun_mvl/mxv
 BYTE   W06
 BYTE   VOL   15*PokemonMysteryDungeonExplorersofSkyInTheMorningSun_mvl/mxv
 BYTE   W06
 BYTE   VOL   15*PokemonMysteryDungeonExplorersofSkyInTheMorningSun_mvl/mxv
 BYTE   W06
 BYTE   VOL   15*PokemonMysteryDungeonExplorersofSkyInTheMorningSun_mvl/mxv
 BYTE   W06
 BYTE   VOL   16*PokemonMysteryDungeonExplorersofSkyInTheMorningSun_mvl/mxv
 BYTE   W06
 BYTE   VOL   16*PokemonMysteryDungeonExplorersofSkyInTheMorningSun_mvl/mxv
 BYTE   W06
 BYTE   VOL   17*PokemonMysteryDungeonExplorersofSkyInTheMorningSun_mvl/mxv
 BYTE   N44  As2
 BYTE   W06
 BYTE   VOL   17*PokemonMysteryDungeonExplorersofSkyInTheMorningSun_mvl/mxv
 BYTE   W12
 BYTE   VOL   18*PokemonMysteryDungeonExplorersofSkyInTheMorningSun_mvl/mxv
 BYTE   W06
//  #03 //043   ----------------------------------------
 BYTE   VOL   18*PokemonMysteryDungeonExplorersofSkyInTheMorningSun_mvl/mxv
 BYTE   W06
 BYTE   VOL   18*PokemonMysteryDungeonExplorersofSkyInTheMorningSun_mvl/mxv
 BYTE   W06
 BYTE   VOL   18*PokemonMysteryDungeonExplorersofSkyInTheMorningSun_mvl/mxv
 BYTE   W06
 BYTE   VOL   18*PokemonMysteryDungeonExplorersofSkyInTheMorningSun_mvl/mxv
 BYTE   W06
 BYTE   VOL   19*PokemonMysteryDungeonExplorersofSkyInTheMorningSun_mvl/mxv
 BYTE   N44  An2
 BYTE   W06
 BYTE   VOL   19*PokemonMysteryDungeonExplorersofSkyInTheMorningSun_mvl/mxv
 BYTE   W06
 BYTE   VOL   19*PokemonMysteryDungeonExplorersofSkyInTheMorningSun_mvl/mxv
 BYTE   W06
 BYTE   VOL   19*PokemonMysteryDungeonExplorersofSkyInTheMorningSun_mvl/mxv
 BYTE   W06
 BYTE   VOL   20*PokemonMysteryDungeonExplorersofSkyInTheMorningSun_mvl/mxv
 BYTE   W06
 BYTE   VOL   20*PokemonMysteryDungeonExplorersofSkyInTheMorningSun_mvl/mxv
 BYTE   W06
 BYTE   VOL   20*PokemonMysteryDungeonExplorersofSkyInTheMorningSun_mvl/mxv
 BYTE   W06
 BYTE   VOL   21*PokemonMysteryDungeonExplorersofSkyInTheMorningSun_mvl/mxv
 BYTE   W06
 BYTE   VOL   21*PokemonMysteryDungeonExplorersofSkyInTheMorningSun_mvl/mxv
 BYTE   N44  Cn3
 BYTE   W06
 BYTE   VOL   22*PokemonMysteryDungeonExplorersofSkyInTheMorningSun_mvl/mxv
 BYTE   W06
 BYTE   VOL   22*PokemonMysteryDungeonExplorersofSkyInTheMorningSun_mvl/mxv
 BYTE   W06
 BYTE   VOL   22*PokemonMysteryDungeonExplorersofSkyInTheMorningSun_mvl/mxv
 BYTE   W06
//  #03 //044   ----------------------------------------
 BYTE   W06
 BYTE   VOL   23*PokemonMysteryDungeonExplorersofSkyInTheMorningSun_mvl/mxv
 BYTE   W06
 BYTE   VOL   23*PokemonMysteryDungeonExplorersofSkyInTheMorningSun_mvl/mxv
 BYTE   W06
 BYTE   VOL   23*PokemonMysteryDungeonExplorersofSkyInTheMorningSun_mvl/mxv
 BYTE   W06
 BYTE   VOL   24*PokemonMysteryDungeonExplorersofSkyInTheMorningSun_mvl/mxv
 BYTE   N24
 BYTE   W06
 BYTE   VOL   23*PokemonMysteryDungeonExplorersofSkyInTheMorningSun_mvl/mxv
 BYTE   W06
 BYTE   VOL   23*PokemonMysteryDungeonExplorersofSkyInTheMorningSun_mvl/mxv
 BYTE   W06
 BYTE   VOL   22*PokemonMysteryDungeonExplorersofSkyInTheMorningSun_mvl/mxv
 BYTE   W06
 BYTE   N24  Bn2
 BYTE   W06
 BYTE   VOL   22*PokemonMysteryDungeonExplorersofSkyInTheMorningSun_mvl/mxv
 BYTE   W06
 BYTE   VOL   22*PokemonMysteryDungeonExplorersofSkyInTheMorningSun_mvl/mxv
 BYTE   W06
 BYTE   VOL   21*PokemonMysteryDungeonExplorersofSkyInTheMorningSun_mvl/mxv
 BYTE   W06
 BYTE   VOL   21*PokemonMysteryDungeonExplorersofSkyInTheMorningSun_mvl/mxv
 BYTE   N44  An2
 BYTE   W06
 BYTE   VOL   20*PokemonMysteryDungeonExplorersofSkyInTheMorningSun_mvl/mxv
 BYTE   W06
 BYTE   VOL   20*PokemonMysteryDungeonExplorersofSkyInTheMorningSun_mvl/mxv
 BYTE   W06
 BYTE   VOL   20*PokemonMysteryDungeonExplorersofSkyInTheMorningSun_mvl/mxv
 BYTE   W06
//  #03 //045   ----------------------------------------
 BYTE   VOL   19*PokemonMysteryDungeonExplorersofSkyInTheMorningSun_mvl/mxv
 BYTE   W06
 BYTE   VOL   19*PokemonMysteryDungeonExplorersofSkyInTheMorningSun_mvl/mxv
 BYTE   W06
 BYTE   VOL   19*PokemonMysteryDungeonExplorersofSkyInTheMorningSun_mvl/mxv
 BYTE   W06
 BYTE   VOL   19*PokemonMysteryDungeonExplorersofSkyInTheMorningSun_mvl/mxv
 BYTE   W06
 BYTE   VOL   18*PokemonMysteryDungeonExplorersofSkyInTheMorningSun_mvl/mxv
 BYTE   N44  Bn2
 BYTE   W06
 BYTE   VOL   18*PokemonMysteryDungeonExplorersofSkyInTheMorningSun_mvl/mxv
 BYTE   W06
 BYTE   VOL   18*PokemonMysteryDungeonExplorersofSkyInTheMorningSun_mvl/mxv
 BYTE   W06
 BYTE   VOL   18*PokemonMysteryDungeonExplorersofSkyInTheMorningSun_mvl/mxv
 BYTE   W06
 BYTE   VOL   18*PokemonMysteryDungeonExplorersofSkyInTheMorningSun_mvl/mxv
 BYTE   W06
 BYTE   VOL   17*PokemonMysteryDungeonExplorersofSkyInTheMorningSun_mvl/mxv
 BYTE   W06
 BYTE   VOL   17*PokemonMysteryDungeonExplorersofSkyInTheMorningSun_mvl/mxv
 BYTE   W06
 BYTE   VOL   17*PokemonMysteryDungeonExplorersofSkyInTheMorningSun_mvl/mxv
 BYTE   W06
 BYTE   VOL   17*PokemonMysteryDungeonExplorersofSkyInTheMorningSun_mvl/mxv
 BYTE   N44  An2
 BYTE   W06
 BYTE   VOL   16*PokemonMysteryDungeonExplorersofSkyInTheMorningSun_mvl/mxv
 BYTE   W06
 BYTE   VOL   16*PokemonMysteryDungeonExplorersofSkyInTheMorningSun_mvl/mxv
 BYTE   W06
 BYTE   VOL   15*PokemonMysteryDungeonExplorersofSkyInTheMorningSun_mvl/mxv
 BYTE   W06
//  #03 //046   ----------------------------------------
 BYTE   VOL   15*PokemonMysteryDungeonExplorersofSkyInTheMorningSun_mvl/mxv
 BYTE   W06
 BYTE   VOL   15*PokemonMysteryDungeonExplorersofSkyInTheMorningSun_mvl/mxv
 BYTE   W06
 BYTE   VOL   14*PokemonMysteryDungeonExplorersofSkyInTheMorningSun_mvl/mxv
 BYTE   W06
 BYTE   VOL   14*PokemonMysteryDungeonExplorersofSkyInTheMorningSun_mvl/mxv
 BYTE   W06
 BYTE   VOL   14*PokemonMysteryDungeonExplorersofSkyInTheMorningSun_mvl/mxv
 BYTE   TIE  As2
 BYTE   W06
 BYTE   VOL   14*PokemonMysteryDungeonExplorersofSkyInTheMorningSun_mvl/mxv
 BYTE   W06
 BYTE   VOL   14*PokemonMysteryDungeonExplorersofSkyInTheMorningSun_mvl/mxv
 BYTE   W06
 BYTE   VOL   14*PokemonMysteryDungeonExplorersofSkyInTheMorningSun_mvl/mxv
 BYTE   W06
 BYTE   VOL   15*PokemonMysteryDungeonExplorersofSkyInTheMorningSun_mvl/mxv
 BYTE   W06
 BYTE   VOL   15*PokemonMysteryDungeonExplorersofSkyInTheMorningSun_mvl/mxv
 BYTE   W12
 BYTE   VOL   16*PokemonMysteryDungeonExplorersofSkyInTheMorningSun_mvl/mxv
 BYTE   W06
 BYTE   VOL   17*PokemonMysteryDungeonExplorersofSkyInTheMorningSun_mvl/mxv
 BYTE   W06
 BYTE   VOL   17*PokemonMysteryDungeonExplorersofSkyInTheMorningSun_mvl/mxv
 BYTE   W06
 BYTE   VOL   17*PokemonMysteryDungeonExplorersofSkyInTheMorningSun_mvl/mxv
 BYTE   W06
 BYTE   VOL   17*PokemonMysteryDungeonExplorersofSkyInTheMorningSun_mvl/mxv
 BYTE   W06
//  #03 //047   ----------------------------------------
 BYTE   VOL   18*PokemonMysteryDungeonExplorersofSkyInTheMorningSun_mvl/mxv
 BYTE   W06
 BYTE   VOL   18*PokemonMysteryDungeonExplorersofSkyInTheMorningSun_mvl/mxv
 BYTE   W06
 BYTE   VOL   18*PokemonMysteryDungeonExplorersofSkyInTheMorningSun_mvl/mxv
 BYTE   W06
 BYTE   VOL   18*PokemonMysteryDungeonExplorersofSkyInTheMorningSun_mvl/mxv
 BYTE   W06
 BYTE   VOL   19*PokemonMysteryDungeonExplorersofSkyInTheMorningSun_mvl/mxv
 BYTE   W06
 BYTE   VOL   19*PokemonMysteryDungeonExplorersofSkyInTheMorningSun_mvl/mxv
 BYTE   W06
 BYTE   VOL   19*PokemonMysteryDungeonExplorersofSkyInTheMorningSun_mvl/mxv
 BYTE   W06
 BYTE   VOL   19*PokemonMysteryDungeonExplorersofSkyInTheMorningSun_mvl/mxv
 BYTE   W06
 BYTE   VOL   20*PokemonMysteryDungeonExplorersofSkyInTheMorningSun_mvl/mxv
 BYTE   W06
 BYTE   VOL   20*PokemonMysteryDungeonExplorersofSkyInTheMorningSun_mvl/mxv
 BYTE   W06
 BYTE   VOL   21*PokemonMysteryDungeonExplorersofSkyInTheMorningSun_mvl/mxv
 BYTE   W12
 BYTE   VOL   22*PokemonMysteryDungeonExplorersofSkyInTheMorningSun_mvl/mxv
 BYTE   W06
 BYTE   VOL   22*PokemonMysteryDungeonExplorersofSkyInTheMorningSun_mvl/mxv
 BYTE   W06
 BYTE   VOL   22*PokemonMysteryDungeonExplorersofSkyInTheMorningSun_mvl/mxv
 BYTE   W06
 BYTE   VOL   22*PokemonMysteryDungeonExplorersofSkyInTheMorningSun_mvl/mxv
 BYTE   W06
//  #03 //048   ----------------------------------------
 BYTE   VOL   23*PokemonMysteryDungeonExplorersofSkyInTheMorningSun_mvl/mxv
 BYTE   W06
 BYTE   VOL   23*PokemonMysteryDungeonExplorersofSkyInTheMorningSun_mvl/mxv
 BYTE   W06
 BYTE   VOL   23*PokemonMysteryDungeonExplorersofSkyInTheMorningSun_mvl/mxv
 BYTE   W06
 BYTE   VOL   24*PokemonMysteryDungeonExplorersofSkyInTheMorningSun_mvl/mxv
 BYTE   W05
 BYTE   EOT
 BYTE   W01
 BYTE   VOL   23*PokemonMysteryDungeonExplorersofSkyInTheMorningSun_mvl/mxv
 BYTE   TIE
 BYTE   W06
 BYTE   VOL   23*PokemonMysteryDungeonExplorersofSkyInTheMorningSun_mvl/mxv
 BYTE   W06
 BYTE   VOL   22*PokemonMysteryDungeonExplorersofSkyInTheMorningSun_mvl/mxv
 BYTE   W12
 BYTE   VOL   22*PokemonMysteryDungeonExplorersofSkyInTheMorningSun_mvl/mxv
 BYTE   W06
 BYTE   VOL   22*PokemonMysteryDungeonExplorersofSkyInTheMorningSun_mvl/mxv
 BYTE   W06
 BYTE   VOL   21*PokemonMysteryDungeonExplorersofSkyInTheMorningSun_mvl/mxv
 BYTE   W06
 BYTE   VOL   21*PokemonMysteryDungeonExplorersofSkyInTheMorningSun_mvl/mxv
 BYTE   W06
 BYTE   VOL   20*PokemonMysteryDungeonExplorersofSkyInTheMorningSun_mvl/mxv
 BYTE   W06
 BYTE   VOL   20*PokemonMysteryDungeonExplorersofSkyInTheMorningSun_mvl/mxv
 BYTE   W06
 BYTE   VOL   20*PokemonMysteryDungeonExplorersofSkyInTheMorningSun_mvl/mxv
 BYTE   W06
 BYTE   VOL   19*PokemonMysteryDungeonExplorersofSkyInTheMorningSun_mvl/mxv
 BYTE   W06
//  #03 //049   ----------------------------------------
 BYTE   VOL   19*PokemonMysteryDungeonExplorersofSkyInTheMorningSun_mvl/mxv
 BYTE   W06
 BYTE   VOL   19*PokemonMysteryDungeonExplorersofSkyInTheMorningSun_mvl/mxv
 BYTE   W06
 BYTE   VOL   19*PokemonMysteryDungeonExplorersofSkyInTheMorningSun_mvl/mxv
 BYTE   W06
 BYTE   VOL   18*PokemonMysteryDungeonExplorersofSkyInTheMorningSun_mvl/mxv
 BYTE   W06
 BYTE   VOL   18*PokemonMysteryDungeonExplorersofSkyInTheMorningSun_mvl/mxv
 BYTE   W06
 BYTE   VOL   18*PokemonMysteryDungeonExplorersofSkyInTheMorningSun_mvl/mxv
 BYTE   W06
 BYTE   VOL   18*PokemonMysteryDungeonExplorersofSkyInTheMorningSun_mvl/mxv
 BYTE   W06
 BYTE   VOL   18*PokemonMysteryDungeonExplorersofSkyInTheMorningSun_mvl/mxv
 BYTE   W06
 BYTE   VOL   17*PokemonMysteryDungeonExplorersofSkyInTheMorningSun_mvl/mxv
 BYTE   W06
 BYTE   VOL   17*PokemonMysteryDungeonExplorersofSkyInTheMorningSun_mvl/mxv
 BYTE   W06
 BYTE   VOL   17*PokemonMysteryDungeonExplorersofSkyInTheMorningSun_mvl/mxv
 BYTE   W06
 BYTE   VOL   17*PokemonMysteryDungeonExplorersofSkyInTheMorningSun_mvl/mxv
 BYTE   W06
 BYTE   VOL   16*PokemonMysteryDungeonExplorersofSkyInTheMorningSun_mvl/mxv
 BYTE   W06
 BYTE   VOL   16*PokemonMysteryDungeonExplorersofSkyInTheMorningSun_mvl/mxv
 BYTE   W06
 BYTE   VOL   15*PokemonMysteryDungeonExplorersofSkyInTheMorningSun_mvl/mxv
 BYTE   W06
 BYTE   VOL   15*PokemonMysteryDungeonExplorersofSkyInTheMorningSun_mvl/mxv
 BYTE   W06
//  #03 //050   ----------------------------------------
 BYTE   VOL   15*PokemonMysteryDungeonExplorersofSkyInTheMorningSun_mvl/mxv
 BYTE   W06
 BYTE   VOL   14*PokemonMysteryDungeonExplorersofSkyInTheMorningSun_mvl/mxv
 BYTE   W06
 BYTE   VOL   14*PokemonMysteryDungeonExplorersofSkyInTheMorningSun_mvl/mxv
 BYTE   W06
 BYTE   VOL   14*PokemonMysteryDungeonExplorersofSkyInTheMorningSun_mvl/mxv
 BYTE   W05
 BYTE   EOT
 BYTE   W01
 BYTE   VOL   14*PokemonMysteryDungeonExplorersofSkyInTheMorningSun_mvl/mxv
 BYTE   TIE  An2
 BYTE   W06
 BYTE   VOL   14*PokemonMysteryDungeonExplorersofSkyInTheMorningSun_mvl/mxv
 BYTE   W06
 BYTE   VOL   14*PokemonMysteryDungeonExplorersofSkyInTheMorningSun_mvl/mxv
 BYTE   W06
 BYTE   VOL   14*PokemonMysteryDungeonExplorersofSkyInTheMorningSun_mvl/mxv
 BYTE   W06
 BYTE   VOL   14*PokemonMysteryDungeonExplorersofSkyInTheMorningSun_mvl/mxv
 BYTE   W12
 BYTE   VOL   14*PokemonMysteryDungeonExplorersofSkyInTheMorningSun_mvl/mxv
 BYTE   W06
 BYTE   VOL   15*PokemonMysteryDungeonExplorersofSkyInTheMorningSun_mvl/mxv
 BYTE   W06
 BYTE   VOL   15*PokemonMysteryDungeonExplorersofSkyInTheMorningSun_mvl/mxv
 BYTE   W06
 BYTE   VOL   15*PokemonMysteryDungeonExplorersofSkyInTheMorningSun_mvl/mxv
 BYTE   W12
 BYTE   VOL   16*PokemonMysteryDungeonExplorersofSkyInTheMorningSun_mvl/mxv
 BYTE   W06
//  #03 //051   ----------------------------------------
 BYTE   VOL   16*PokemonMysteryDungeonExplorersofSkyInTheMorningSun_mvl/mxv
 BYTE   W06
 BYTE   VOL   17*PokemonMysteryDungeonExplorersofSkyInTheMorningSun_mvl/mxv
 BYTE   W06
 BYTE   VOL   17*PokemonMysteryDungeonExplorersofSkyInTheMorningSun_mvl/mxv
 BYTE   W06
 BYTE   VOL   17*PokemonMysteryDungeonExplorersofSkyInTheMorningSun_mvl/mxv
 BYTE   W12
 BYTE   VOL   17*PokemonMysteryDungeonExplorersofSkyInTheMorningSun_mvl/mxv
 BYTE   W06
 BYTE   VOL   18*PokemonMysteryDungeonExplorersofSkyInTheMorningSun_mvl/mxv
 BYTE   W06
 BYTE   VOL   18*PokemonMysteryDungeonExplorersofSkyInTheMorningSun_mvl/mxv
 BYTE   W06
 BYTE   VOL   18*PokemonMysteryDungeonExplorersofSkyInTheMorningSun_mvl/mxv
 BYTE   W06
 BYTE   VOL   18*PokemonMysteryDungeonExplorersofSkyInTheMorningSun_mvl/mxv
 BYTE   W12
 BYTE   VOL   18*PokemonMysteryDungeonExplorersofSkyInTheMorningSun_mvl/mxv
 BYTE   W06
 BYTE   VOL   19*PokemonMysteryDungeonExplorersofSkyInTheMorningSun_mvl/mxv
 BYTE   W06
 BYTE   VOL   19*PokemonMysteryDungeonExplorersofSkyInTheMorningSun_mvl/mxv
 BYTE   W06
 BYTE   VOL   19*PokemonMysteryDungeonExplorersofSkyInTheMorningSun_mvl/mxv
 BYTE   W12
//  #03 //052   ----------------------------------------
 BYTE   VOL   19*PokemonMysteryDungeonExplorersofSkyInTheMorningSun_mvl/mxv
 BYTE   W06
 BYTE   VOL   20*PokemonMysteryDungeonExplorersofSkyInTheMorningSun_mvl/mxv
 BYTE   W06
 BYTE   VOL   20*PokemonMysteryDungeonExplorersofSkyInTheMorningSun_mvl/mxv
 BYTE   W06
 BYTE   VOL   20*PokemonMysteryDungeonExplorersofSkyInTheMorningSun_mvl/mxv
 BYTE   W12
 BYTE   VOL   21*PokemonMysteryDungeonExplorersofSkyInTheMorningSun_mvl/mxv
 BYTE   W06
 BYTE   VOL   21*PokemonMysteryDungeonExplorersofSkyInTheMorningSun_mvl/mxv
 BYTE   W06
 BYTE   VOL   22*PokemonMysteryDungeonExplorersofSkyInTheMorningSun_mvl/mxv
 BYTE   W06
 BYTE   VOL   22*PokemonMysteryDungeonExplorersofSkyInTheMorningSun_mvl/mxv
 BYTE   W12
 BYTE   VOL   22*PokemonMysteryDungeonExplorersofSkyInTheMorningSun_mvl/mxv
 BYTE   W06
 BYTE   VOL   22*PokemonMysteryDungeonExplorersofSkyInTheMorningSun_mvl/mxv
 BYTE   W06
 BYTE   VOL   23*PokemonMysteryDungeonExplorersofSkyInTheMorningSun_mvl/mxv
 BYTE   W06
 BYTE   VOL   23*PokemonMysteryDungeonExplorersofSkyInTheMorningSun_mvl/mxv
 BYTE   W12
 BYTE   VOL   23*PokemonMysteryDungeonExplorersofSkyInTheMorningSun_mvl/mxv
 BYTE   W06
//  #03 //053   ----------------------------------------
 BYTE   VOL   23*PokemonMysteryDungeonExplorersofSkyInTheMorningSun_mvl/mxv
 BYTE   W06
 BYTE   VOL   24*PokemonMysteryDungeonExplorersofSkyInTheMorningSun_mvl/mxv
 BYTE   W17
 BYTE   EOT
 BYTE   W01
 BYTE   N12  An2  v012
 BYTE   W12
 BYTE   An2  v008
 BYTE   W12
 BYTE   An2  v004
 BYTE   W12
 BYTE   N12
 BYTE   W12
 BYTE   N12
 BYTE   W24
//  #03 //054   ----------------------------------------
 BYTE   W20
 BYTE   VOL   17*PokemonMysteryDungeonExplorersofSkyInTheMorningSun_mvl/mxv
 BYTE   W04
 BYTE   VOL   18*PokemonMysteryDungeonExplorersofSkyInTheMorningSun_mvl/mxv
 BYTE   N92  Gn2  v076
 BYTE   W08
 BYTE   VOL   18*PokemonMysteryDungeonExplorersofSkyInTheMorningSun_mvl/mxv
 BYTE   W04
 BYTE   VOL   18*PokemonMysteryDungeonExplorersofSkyInTheMorningSun_mvl/mxv
 BYTE   W04
 BYTE   VOL   18*PokemonMysteryDungeonExplorersofSkyInTheMorningSun_mvl/mxv
 BYTE   W04
 BYTE   VOL   18*PokemonMysteryDungeonExplorersofSkyInTheMorningSun_mvl/mxv
 BYTE   W04
 BYTE   VOL   19*PokemonMysteryDungeonExplorersofSkyInTheMorningSun_mvl/mxv
 BYTE   W08
 BYTE   VOL   19*PokemonMysteryDungeonExplorersofSkyInTheMorningSun_mvl/mxv
 BYTE   W04
 BYTE   VOL   19*PokemonMysteryDungeonExplorersofSkyInTheMorningSun_mvl/mxv
 BYTE   W04
 BYTE   VOL   19*PokemonMysteryDungeonExplorersofSkyInTheMorningSun_mvl/mxv
 BYTE   W04
 BYTE   VOL   20*PokemonMysteryDungeonExplorersofSkyInTheMorningSun_mvl/mxv
 BYTE   W04
 BYTE   VOL   20*PokemonMysteryDungeonExplorersofSkyInTheMorningSun_mvl/mxv
 BYTE   W04
 BYTE   VOL   20*PokemonMysteryDungeonExplorersofSkyInTheMorningSun_mvl/mxv
 BYTE   W08
 BYTE   VOL   21*PokemonMysteryDungeonExplorersofSkyInTheMorningSun_mvl/mxv
 BYTE   W04
 BYTE   VOL   21*PokemonMysteryDungeonExplorersofSkyInTheMorningSun_mvl/mxv
 BYTE   W04
 BYTE   VOL   22*PokemonMysteryDungeonExplorersofSkyInTheMorningSun_mvl/mxv
 BYTE   W04
//  #03 //055   ----------------------------------------
 BYTE   VOL   22*PokemonMysteryDungeonExplorersofSkyInTheMorningSun_mvl/mxv
 BYTE   W04
 BYTE   VOL   22*PokemonMysteryDungeonExplorersofSkyInTheMorningSun_mvl/mxv
 BYTE   W08
 BYTE   VOL   22*PokemonMysteryDungeonExplorersofSkyInTheMorningSun_mvl/mxv
 BYTE   W04
 BYTE   VOL   23*PokemonMysteryDungeonExplorersofSkyInTheMorningSun_mvl/mxv
 BYTE   W04
 BYTE   VOL   23*PokemonMysteryDungeonExplorersofSkyInTheMorningSun_mvl/mxv
 BYTE   W04
 BYTE   VOL   23*PokemonMysteryDungeonExplorersofSkyInTheMorningSun_mvl/mxv
 BYTE   N92  An2
 BYTE   W04
 BYTE   VOL   23*PokemonMysteryDungeonExplorersofSkyInTheMorningSun_mvl/mxv
 BYTE   W04
 BYTE   VOL   24*PokemonMysteryDungeonExplorersofSkyInTheMorningSun_mvl/mxv
 BYTE   W04
 BYTE   VOL   23*PokemonMysteryDungeonExplorersofSkyInTheMorningSun_mvl/mxv
 BYTE   W08
 BYTE   VOL   23*PokemonMysteryDungeonExplorersofSkyInTheMorningSun_mvl/mxv
 BYTE   W04
 BYTE   VOL   23*PokemonMysteryDungeonExplorersofSkyInTheMorningSun_mvl/mxv
 BYTE   W04
 BYTE   VOL   22*PokemonMysteryDungeonExplorersofSkyInTheMorningSun_mvl/mxv
 BYTE   W04
 BYTE   VOL   22*PokemonMysteryDungeonExplorersofSkyInTheMorningSun_mvl/mxv
 BYTE   W04
 BYTE   VOL   22*PokemonMysteryDungeonExplorersofSkyInTheMorningSun_mvl/mxv
 BYTE   W04
 BYTE   VOL   22*PokemonMysteryDungeonExplorersofSkyInTheMorningSun_mvl/mxv
 BYTE   W04
 BYTE   VOL   21*PokemonMysteryDungeonExplorersofSkyInTheMorningSun_mvl/mxv
 BYTE   W04
 BYTE   VOL   21*PokemonMysteryDungeonExplorersofSkyInTheMorningSun_mvl/mxv
 BYTE   W04
 BYTE   VOL   20*PokemonMysteryDungeonExplorersofSkyInTheMorningSun_mvl/mxv
 BYTE   W04
 BYTE   VOL   20*PokemonMysteryDungeonExplorersofSkyInTheMorningSun_mvl/mxv
 BYTE   W04
 BYTE   VOL   20*PokemonMysteryDungeonExplorersofSkyInTheMorningSun_mvl/mxv
 BYTE   W08
 BYTE   VOL   19*PokemonMysteryDungeonExplorersofSkyInTheMorningSun_mvl/mxv
 BYTE   W04
//  #03 //056   ----------------------------------------
 BYTE   W04
 BYTE   VOL   19*PokemonMysteryDungeonExplorersofSkyInTheMorningSun_mvl/mxv
 BYTE   W08
 BYTE   VOL   18*PokemonMysteryDungeonExplorersofSkyInTheMorningSun_mvl/mxv
 BYTE   W04
 BYTE   VOL   18*PokemonMysteryDungeonExplorersofSkyInTheMorningSun_mvl/mxv
 BYTE   W04
 BYTE   VOL   18*PokemonMysteryDungeonExplorersofSkyInTheMorningSun_mvl/mxv
 BYTE   W04
 BYTE   VOL   18*PokemonMysteryDungeonExplorersofSkyInTheMorningSun_mvl/mxv
 BYTE   N44  Fs2
 BYTE   W04
 BYTE   VOL   17*PokemonMysteryDungeonExplorersofSkyInTheMorningSun_mvl/mxv
 BYTE   W04
 BYTE   VOL   18*PokemonMysteryDungeonExplorersofSkyInTheMorningSun_mvl/mxv
 BYTE   W04
 BYTE   VOL   18*PokemonMysteryDungeonExplorersofSkyInTheMorningSun_mvl/mxv
 BYTE   W04
 BYTE   VOL   18*PokemonMysteryDungeonExplorersofSkyInTheMorningSun_mvl/mxv
 BYTE   W04
 BYTE   VOL   18*PokemonMysteryDungeonExplorersofSkyInTheMorningSun_mvl/mxv
 BYTE   W04
 BYTE   VOL   18*PokemonMysteryDungeonExplorersofSkyInTheMorningSun_mvl/mxv
 BYTE   W04
 BYTE   VOL   19*PokemonMysteryDungeonExplorersofSkyInTheMorningSun_mvl/mxv
 BYTE   W04
 BYTE   VOL   19*PokemonMysteryDungeonExplorersofSkyInTheMorningSun_mvl/mxv
 BYTE   W04
 BYTE   VOL   19*PokemonMysteryDungeonExplorersofSkyInTheMorningSun_mvl/mxv
 BYTE   W04
 BYTE   VOL   19*PokemonMysteryDungeonExplorersofSkyInTheMorningSun_mvl/mxv
 BYTE   W04
 BYTE   VOL   20*PokemonMysteryDungeonExplorersofSkyInTheMorningSun_mvl/mxv
 BYTE   W04
 BYTE   VOL   20*PokemonMysteryDungeonExplorersofSkyInTheMorningSun_mvl/mxv
 BYTE   N44  An2
 BYTE   W04
 BYTE   VOL   20*PokemonMysteryDungeonExplorersofSkyInTheMorningSun_mvl/mxv
 BYTE   W04
 BYTE   VOL   21*PokemonMysteryDungeonExplorersofSkyInTheMorningSun_mvl/mxv
 BYTE   W04
 BYTE   VOL   21*PokemonMysteryDungeonExplorersofSkyInTheMorningSun_mvl/mxv
 BYTE   W04
 BYTE   VOL   22*PokemonMysteryDungeonExplorersofSkyInTheMorningSun_mvl/mxv
 BYTE   W04
 BYTE   VOL   22*PokemonMysteryDungeonExplorersofSkyInTheMorningSun_mvl/mxv
 BYTE   W04
//  #03 //057   ----------------------------------------
 BYTE   VOL   22*PokemonMysteryDungeonExplorersofSkyInTheMorningSun_mvl/mxv
 BYTE   W04
 BYTE   VOL   22*PokemonMysteryDungeonExplorersofSkyInTheMorningSun_mvl/mxv
 BYTE   W04
 BYTE   VOL   23*PokemonMysteryDungeonExplorersofSkyInTheMorningSun_mvl/mxv
 BYTE   W04
 BYTE   VOL   23*PokemonMysteryDungeonExplorersofSkyInTheMorningSun_mvl/mxv
 BYTE   W08
 BYTE   VOL   24*PokemonMysteryDungeonExplorersofSkyInTheMorningSun_mvl/mxv
 BYTE   W04
 BYTE   N44
 BYTE   W08
 BYTE   VOL   23*PokemonMysteryDungeonExplorersofSkyInTheMorningSun_mvl/mxv
 BYTE   W04
 BYTE   VOL   23*PokemonMysteryDungeonExplorersofSkyInTheMorningSun_mvl/mxv
 BYTE   W04
 BYTE   VOL   23*PokemonMysteryDungeonExplorersofSkyInTheMorningSun_mvl/mxv
 BYTE   W04
 BYTE   VOL   22*PokemonMysteryDungeonExplorersofSkyInTheMorningSun_mvl/mxv
 BYTE   W04
 BYTE   VOL   22*PokemonMysteryDungeonExplorersofSkyInTheMorningSun_mvl/mxv
 BYTE   W04
 BYTE   VOL   22*PokemonMysteryDungeonExplorersofSkyInTheMorningSun_mvl/mxv
 BYTE   W04
 BYTE   VOL   22*PokemonMysteryDungeonExplorersofSkyInTheMorningSun_mvl/mxv
 BYTE   W08
 BYTE   VOL   21*PokemonMysteryDungeonExplorersofSkyInTheMorningSun_mvl/mxv
 BYTE   W04
 BYTE   VOL   21*PokemonMysteryDungeonExplorersofSkyInTheMorningSun_mvl/mxv
 BYTE   W04
 BYTE   VOL   20*PokemonMysteryDungeonExplorersofSkyInTheMorningSun_mvl/mxv
 BYTE   N44  Fs2
 BYTE   W04
 BYTE   VOL   20*PokemonMysteryDungeonExplorersofSkyInTheMorningSun_mvl/mxv
 BYTE   W04
 BYTE   VOL   20*PokemonMysteryDungeonExplorersofSkyInTheMorningSun_mvl/mxv
 BYTE   W08
 BYTE   VOL   19*PokemonMysteryDungeonExplorersofSkyInTheMorningSun_mvl/mxv
 BYTE   W04
 BYTE   VOL   19*PokemonMysteryDungeonExplorersofSkyInTheMorningSun_mvl/mxv
 BYTE   W04
//  #03 //058   ----------------------------------------
 BYTE   VOL   19*PokemonMysteryDungeonExplorersofSkyInTheMorningSun_mvl/mxv
 BYTE   W04
 BYTE   VOL   19*PokemonMysteryDungeonExplorersofSkyInTheMorningSun_mvl/mxv
 BYTE   W04
 BYTE   VOL   18*PokemonMysteryDungeonExplorersofSkyInTheMorningSun_mvl/mxv
 BYTE   W08
 BYTE   VOL   18*PokemonMysteryDungeonExplorersofSkyInTheMorningSun_mvl/mxv
 BYTE   W08
 BYTE   VOL   18*PokemonMysteryDungeonExplorersofSkyInTheMorningSun_mvl/mxv
 BYTE   N92  Gn2
 BYTE   W04
 BYTE   VOL   18*PokemonMysteryDungeonExplorersofSkyInTheMorningSun_mvl/mxv
 BYTE   W04
 BYTE   VOL   17*PokemonMysteryDungeonExplorersofSkyInTheMorningSun_mvl/mxv
 BYTE   W04
 BYTE   VOL   17*PokemonMysteryDungeonExplorersofSkyInTheMorningSun_mvl/mxv
 BYTE   W04
 BYTE   VOL   18*PokemonMysteryDungeonExplorersofSkyInTheMorningSun_mvl/mxv
 BYTE   W04
 BYTE   VOL   18*PokemonMysteryDungeonExplorersofSkyInTheMorningSun_mvl/mxv
 BYTE   W04
 BYTE   VOL   18*PokemonMysteryDungeonExplorersofSkyInTheMorningSun_mvl/mxv
 BYTE   W04
 BYTE   VOL   18*PokemonMysteryDungeonExplorersofSkyInTheMorningSun_mvl/mxv
 BYTE   W04
 BYTE   VOL   19*PokemonMysteryDungeonExplorersofSkyInTheMorningSun_mvl/mxv
 BYTE   W04
 BYTE   VOL   19*PokemonMysteryDungeonExplorersofSkyInTheMorningSun_mvl/mxv
 BYTE   W04
 BYTE   VOL   19*PokemonMysteryDungeonExplorersofSkyInTheMorningSun_mvl/mxv
 BYTE   W04
 BYTE   VOL   20*PokemonMysteryDungeonExplorersofSkyInTheMorningSun_mvl/mxv
 BYTE   W04
 BYTE   VOL   20*PokemonMysteryDungeonExplorersofSkyInTheMorningSun_mvl/mxv
 BYTE   W04
 BYTE   VOL   20*PokemonMysteryDungeonExplorersofSkyInTheMorningSun_mvl/mxv
 BYTE   W04
 BYTE   VOL   21*PokemonMysteryDungeonExplorersofSkyInTheMorningSun_mvl/mxv
 BYTE   W04
 BYTE   VOL   21*PokemonMysteryDungeonExplorersofSkyInTheMorningSun_mvl/mxv
 BYTE   W04
 BYTE   VOL   22*PokemonMysteryDungeonExplorersofSkyInTheMorningSun_mvl/mxv
 BYTE   W04
 BYTE   VOL   22*PokemonMysteryDungeonExplorersofSkyInTheMorningSun_mvl/mxv
 BYTE   W04
//  #03 //059   ----------------------------------------
 BYTE   VOL   22*PokemonMysteryDungeonExplorersofSkyInTheMorningSun_mvl/mxv
 BYTE   W04
 BYTE   VOL   23*PokemonMysteryDungeonExplorersofSkyInTheMorningSun_mvl/mxv
 BYTE   W04
 BYTE   VOL   23*PokemonMysteryDungeonExplorersofSkyInTheMorningSun_mvl/mxv
 BYTE   W04
 BYTE   VOL   23*PokemonMysteryDungeonExplorersofSkyInTheMorningSun_mvl/mxv
 BYTE   W04
 BYTE   VOL   24*PokemonMysteryDungeonExplorersofSkyInTheMorningSun_mvl/mxv
 BYTE   W04
 BYTE   VOL   23*PokemonMysteryDungeonExplorersofSkyInTheMorningSun_mvl/mxv
 BYTE   W04
 BYTE   N92  An2
 BYTE   W04
 BYTE   VOL   23*PokemonMysteryDungeonExplorersofSkyInTheMorningSun_mvl/mxv
 BYTE   W04
 BYTE   VOL   22*PokemonMysteryDungeonExplorersofSkyInTheMorningSun_mvl/mxv
 BYTE   W04
 BYTE   VOL   22*PokemonMysteryDungeonExplorersofSkyInTheMorningSun_mvl/mxv
 BYTE   W04
 BYTE   VOL   22*PokemonMysteryDungeonExplorersofSkyInTheMorningSun_mvl/mxv
 BYTE   W04
 BYTE   VOL   22*PokemonMysteryDungeonExplorersofSkyInTheMorningSun_mvl/mxv
 BYTE   W04
 BYTE   VOL   21*PokemonMysteryDungeonExplorersofSkyInTheMorningSun_mvl/mxv
 BYTE   W04
 BYTE   VOL   21*PokemonMysteryDungeonExplorersofSkyInTheMorningSun_mvl/mxv
 BYTE   W04
 BYTE   VOL   20*PokemonMysteryDungeonExplorersofSkyInTheMorningSun_mvl/mxv
 BYTE   W04
 BYTE   VOL   20*PokemonMysteryDungeonExplorersofSkyInTheMorningSun_mvl/mxv
 BYTE   W04
 BYTE   VOL   20*PokemonMysteryDungeonExplorersofSkyInTheMorningSun_mvl/mxv
 BYTE   W04
 BYTE   VOL   19*PokemonMysteryDungeonExplorersofSkyInTheMorningSun_mvl/mxv
 BYTE   W04
 BYTE   VOL   19*PokemonMysteryDungeonExplorersofSkyInTheMorningSun_mvl/mxv
 BYTE   W04
 BYTE   VOL   19*PokemonMysteryDungeonExplorersofSkyInTheMorningSun_mvl/mxv
 BYTE   W04
 BYTE   VOL   19*PokemonMysteryDungeonExplorersofSkyInTheMorningSun_mvl/mxv
 BYTE   W04
 BYTE   VOL   18*PokemonMysteryDungeonExplorersofSkyInTheMorningSun_mvl/mxv
 BYTE   W04
 BYTE   VOL   18*PokemonMysteryDungeonExplorersofSkyInTheMorningSun_mvl/mxv
 BYTE   W08
//  #03 //060   ----------------------------------------
 BYTE   VOL   18*PokemonMysteryDungeonExplorersofSkyInTheMorningSun_mvl/mxv
 BYTE   W04
 BYTE   VOL   17*PokemonMysteryDungeonExplorersofSkyInTheMorningSun_mvl/mxv
 BYTE   W04
 BYTE   VOL   17*PokemonMysteryDungeonExplorersofSkyInTheMorningSun_mvl/mxv
 BYTE   W04
 BYTE   VOL   17*PokemonMysteryDungeonExplorersofSkyInTheMorningSun_mvl/mxv
 BYTE   W08
 BYTE   VOL   17*PokemonMysteryDungeonExplorersofSkyInTheMorningSun_mvl/mxv
 BYTE   W04
 BYTE   N44  Fs2
 BYTE   W04
 BYTE   VOL   18*PokemonMysteryDungeonExplorersofSkyInTheMorningSun_mvl/mxv
 BYTE   W08
 BYTE   VOL   18*PokemonMysteryDungeonExplorersofSkyInTheMorningSun_mvl/mxv
 BYTE   W08
 BYTE   VOL   18*PokemonMysteryDungeonExplorersofSkyInTheMorningSun_mvl/mxv
 BYTE   W04
 BYTE   VOL   19*PokemonMysteryDungeonExplorersofSkyInTheMorningSun_mvl/mxv
 BYTE   W08
 BYTE   VOL   19*PokemonMysteryDungeonExplorersofSkyInTheMorningSun_mvl/mxv
 BYTE   W08
 BYTE   VOL   20*PokemonMysteryDungeonExplorersofSkyInTheMorningSun_mvl/mxv
 BYTE   W08
 BYTE   VOL   20*PokemonMysteryDungeonExplorersofSkyInTheMorningSun_mvl/mxv
 BYTE   N44  An2
 BYTE   W08
 BYTE   VOL   21*PokemonMysteryDungeonExplorersofSkyInTheMorningSun_mvl/mxv
 BYTE   W04
 BYTE   VOL   22*PokemonMysteryDungeonExplorersofSkyInTheMorningSun_mvl/mxv
 BYTE   W08
 BYTE   VOL   22*PokemonMysteryDungeonExplorersofSkyInTheMorningSun_mvl/mxv
 BYTE   W04
//  #03 //061   ----------------------------------------
 BYTE   W04
 BYTE   VOL   23*PokemonMysteryDungeonExplorersofSkyInTheMorningSun_mvl/mxv
 BYTE   W08
 BYTE   VOL   23*PokemonMysteryDungeonExplorersofSkyInTheMorningSun_mvl/mxv
 BYTE   W08
 BYTE   VOL   24*PokemonMysteryDungeonExplorersofSkyInTheMorningSun_mvl/mxv
 BYTE   W04
 BYTE   VOL   23*PokemonMysteryDungeonExplorersofSkyInTheMorningSun_mvl/mxv
 BYTE   N44
 BYTE   W04
 BYTE   VOL   23*PokemonMysteryDungeonExplorersofSkyInTheMorningSun_mvl/mxv
 BYTE   W04
 BYTE   VOL   23*PokemonMysteryDungeonExplorersofSkyInTheMorningSun_mvl/mxv
 BYTE   W08
 BYTE   VOL   22*PokemonMysteryDungeonExplorersofSkyInTheMorningSun_mvl/mxv
 BYTE   W04
 BYTE   VOL   22*PokemonMysteryDungeonExplorersofSkyInTheMorningSun_mvl/mxv
 BYTE   W04
 BYTE   VOL   22*PokemonMysteryDungeonExplorersofSkyInTheMorningSun_mvl/mxv
 BYTE   W04
 BYTE   VOL   22*PokemonMysteryDungeonExplorersofSkyInTheMorningSun_mvl/mxv
 BYTE   W08
 BYTE   VOL   21*PokemonMysteryDungeonExplorersofSkyInTheMorningSun_mvl/mxv
 BYTE   W04
 BYTE   VOL   21*PokemonMysteryDungeonExplorersofSkyInTheMorningSun_mvl/mxv
 BYTE   W04
 BYTE   VOL   20*PokemonMysteryDungeonExplorersofSkyInTheMorningSun_mvl/mxv
 BYTE   W04
 BYTE   N44  Fs2
 BYTE   W04
 BYTE   VOL   20*PokemonMysteryDungeonExplorersofSkyInTheMorningSun_mvl/mxv
 BYTE   W04
 BYTE   VOL   20*PokemonMysteryDungeonExplorersofSkyInTheMorningSun_mvl/mxv
 BYTE   W04
 BYTE   VOL   19*PokemonMysteryDungeonExplorersofSkyInTheMorningSun_mvl/mxv
 BYTE   W04
 BYTE   VOL   19*PokemonMysteryDungeonExplorersofSkyInTheMorningSun_mvl/mxv
 BYTE   W08
//  #03 //062   ----------------------------------------
 BYTE   VOL   19*PokemonMysteryDungeonExplorersofSkyInTheMorningSun_mvl/mxv
 BYTE   W04
 BYTE   VOL   19*PokemonMysteryDungeonExplorersofSkyInTheMorningSun_mvl/mxv
 BYTE   W04
 BYTE   VOL   18*PokemonMysteryDungeonExplorersofSkyInTheMorningSun_mvl/mxv
 BYTE   W08
 BYTE   VOL   18*PokemonMysteryDungeonExplorersofSkyInTheMorningSun_mvl/mxv
 BYTE   W04
 BYTE   VOL   18*PokemonMysteryDungeonExplorersofSkyInTheMorningSun_mvl/mxv
 BYTE   W04
 BYTE   VOL   18*PokemonMysteryDungeonExplorersofSkyInTheMorningSun_mvl/mxv
 BYTE   N92  Gn2
 BYTE   W04
 BYTE   VOL   18*PokemonMysteryDungeonExplorersofSkyInTheMorningSun_mvl/mxv
 BYTE   W04
 BYTE   VOL   18*PokemonMysteryDungeonExplorersofSkyInTheMorningSun_mvl/mxv
 BYTE   W08
 BYTE   VOL   19*PokemonMysteryDungeonExplorersofSkyInTheMorningSun_mvl/mxv
 BYTE   W04
 BYTE   VOL   19*PokemonMysteryDungeonExplorersofSkyInTheMorningSun_mvl/mxv
 BYTE   W04
 BYTE   VOL   19*PokemonMysteryDungeonExplorersofSkyInTheMorningSun_mvl/mxv
 BYTE   W08
 BYTE   VOL   20*PokemonMysteryDungeonExplorersofSkyInTheMorningSun_mvl/mxv
 BYTE   W08
 BYTE   VOL   20*PokemonMysteryDungeonExplorersofSkyInTheMorningSun_mvl/mxv
 BYTE   W04
 BYTE   VOL   20*PokemonMysteryDungeonExplorersofSkyInTheMorningSun_mvl/mxv
 BYTE   W04
 BYTE   VOL   21*PokemonMysteryDungeonExplorersofSkyInTheMorningSun_mvl/mxv
 BYTE   W04
 BYTE   VOL   21*PokemonMysteryDungeonExplorersofSkyInTheMorningSun_mvl/mxv
 BYTE   W08
 BYTE   VOL   22*PokemonMysteryDungeonExplorersofSkyInTheMorningSun_mvl/mxv
 BYTE   W04
 BYTE   VOL   22*PokemonMysteryDungeonExplorersofSkyInTheMorningSun_mvl/mxv
 BYTE   W04
 BYTE   VOL   22*PokemonMysteryDungeonExplorersofSkyInTheMorningSun_mvl/mxv
 BYTE   W04
//  #03 //063   ----------------------------------------
 BYTE   VOL   22*PokemonMysteryDungeonExplorersofSkyInTheMorningSun_mvl/mxv
 BYTE   W04
 BYTE   VOL   23*PokemonMysteryDungeonExplorersofSkyInTheMorningSun_mvl/mxv
 BYTE   W08
 BYTE   VOL   23*PokemonMysteryDungeonExplorersofSkyInTheMorningSun_mvl/mxv
 BYTE   W04
 BYTE   VOL   23*PokemonMysteryDungeonExplorersofSkyInTheMorningSun_mvl/mxv
 BYTE   W04
 BYTE   VOL   23*PokemonMysteryDungeonExplorersofSkyInTheMorningSun_mvl/mxv
 BYTE   W04
 BYTE   VOL   24*PokemonMysteryDungeonExplorersofSkyInTheMorningSun_mvl/mxv
 BYTE   N92  An2
 BYTE   W04
 BYTE   VOL   24*PokemonMysteryDungeonExplorersofSkyInTheMorningSun_mvl/mxv
 BYTE   W04
 BYTE   VOL   23*PokemonMysteryDungeonExplorersofSkyInTheMorningSun_mvl/mxv
 BYTE   W04
 BYTE   VOL   23*PokemonMysteryDungeonExplorersofSkyInTheMorningSun_mvl/mxv
 BYTE   W04
 BYTE   VOL   23*PokemonMysteryDungeonExplorersofSkyInTheMorningSun_mvl/mxv
 BYTE   W04
 BYTE   VOL   23*PokemonMysteryDungeonExplorersofSkyInTheMorningSun_mvl/mxv
 BYTE   W04
 BYTE   VOL   22*PokemonMysteryDungeonExplorersofSkyInTheMorningSun_mvl/mxv
 BYTE   W04
 BYTE   VOL   22*PokemonMysteryDungeonExplorersofSkyInTheMorningSun_mvl/mxv
 BYTE   W04
 BYTE   VOL   22*PokemonMysteryDungeonExplorersofSkyInTheMorningSun_mvl/mxv
 BYTE   W04
 BYTE   VOL   22*PokemonMysteryDungeonExplorersofSkyInTheMorningSun_mvl/mxv
 BYTE   W04
 BYTE   VOL   21*PokemonMysteryDungeonExplorersofSkyInTheMorningSun_mvl/mxv
 BYTE   W04
 BYTE   VOL   21*PokemonMysteryDungeonExplorersofSkyInTheMorningSun_mvl/mxv
 BYTE   W04
 BYTE   VOL   20*PokemonMysteryDungeonExplorersofSkyInTheMorningSun_mvl/mxv
 BYTE   W04
 BYTE   VOL   20*PokemonMysteryDungeonExplorersofSkyInTheMorningSun_mvl/mxv
 BYTE   W04
 BYTE   VOL   20*PokemonMysteryDungeonExplorersofSkyInTheMorningSun_mvl/mxv
 BYTE   W08
 BYTE   VOL   19*PokemonMysteryDungeonExplorersofSkyInTheMorningSun_mvl/mxv
 BYTE   W08
//  #03 //064   ----------------------------------------
 BYTE   VOL   19*PokemonMysteryDungeonExplorersofSkyInTheMorningSun_mvl/mxv
 BYTE   W08
 BYTE   VOL   18*PokemonMysteryDungeonExplorersofSkyInTheMorningSun_mvl/mxv
 BYTE   W04
 BYTE   VOL   18*PokemonMysteryDungeonExplorersofSkyInTheMorningSun_mvl/mxv
 BYTE   W04
 BYTE   VOL   18*PokemonMysteryDungeonExplorersofSkyInTheMorningSun_mvl/mxv
 BYTE   W04
 BYTE   VOL   18*PokemonMysteryDungeonExplorersofSkyInTheMorningSun_mvl/mxv
 BYTE   W04
 BYTE   VOL   17*PokemonMysteryDungeonExplorersofSkyInTheMorningSun_mvl/mxv
 BYTE   N44  Fs2
 BYTE   W04
 BYTE   VOL   18*PokemonMysteryDungeonExplorersofSkyInTheMorningSun_mvl/mxv
 BYTE   W04
 BYTE   VOL   18*PokemonMysteryDungeonExplorersofSkyInTheMorningSun_mvl/mxv
 BYTE   W04
 BYTE   VOL   18*PokemonMysteryDungeonExplorersofSkyInTheMorningSun_mvl/mxv
 BYTE   W04
 BYTE   VOL   18*PokemonMysteryDungeonExplorersofSkyInTheMorningSun_mvl/mxv
 BYTE   W04
 BYTE   VOL   18*PokemonMysteryDungeonExplorersofSkyInTheMorningSun_mvl/mxv
 BYTE   W04
 BYTE   VOL   19*PokemonMysteryDungeonExplorersofSkyInTheMorningSun_mvl/mxv
 BYTE   W08
 BYTE   VOL   19*PokemonMysteryDungeonExplorersofSkyInTheMorningSun_mvl/mxv
 BYTE   W08
 BYTE   VOL   20*PokemonMysteryDungeonExplorersofSkyInTheMorningSun_mvl/mxv
 BYTE   W08
 BYTE   VOL   20*PokemonMysteryDungeonExplorersofSkyInTheMorningSun_mvl/mxv
 BYTE   N44  An2
 BYTE   W04
 BYTE   VOL   20*PokemonMysteryDungeonExplorersofSkyInTheMorningSun_mvl/mxv
 BYTE   W04
 BYTE   VOL   21*PokemonMysteryDungeonExplorersofSkyInTheMorningSun_mvl/mxv
 BYTE   W04
 BYTE   VOL   21*PokemonMysteryDungeonExplorersofSkyInTheMorningSun_mvl/mxv
 BYTE   W04
 BYTE   VOL   22*PokemonMysteryDungeonExplorersofSkyInTheMorningSun_mvl/mxv
 BYTE   W04
 BYTE   VOL   22*PokemonMysteryDungeonExplorersofSkyInTheMorningSun_mvl/mxv
 BYTE   W04
//  #03 //065   ----------------------------------------
 BYTE   VOL   22*PokemonMysteryDungeonExplorersofSkyInTheMorningSun_mvl/mxv
 BYTE   W04
 BYTE   VOL   22*PokemonMysteryDungeonExplorersofSkyInTheMorningSun_mvl/mxv
 BYTE   W04
 BYTE   VOL   23*PokemonMysteryDungeonExplorersofSkyInTheMorningSun_mvl/mxv
 BYTE   W04
 BYTE   VOL   23*PokemonMysteryDungeonExplorersofSkyInTheMorningSun_mvl/mxv
 BYTE   W04
 BYTE   VOL   23*PokemonMysteryDungeonExplorersofSkyInTheMorningSun_mvl/mxv
 BYTE   W04
 BYTE   VOL   23*PokemonMysteryDungeonExplorersofSkyInTheMorningSun_mvl/mxv
 BYTE   W04
 BYTE   VOL   24*PokemonMysteryDungeonExplorersofSkyInTheMorningSun_mvl/mxv
 BYTE   N44
 BYTE   W04
 BYTE   VOL   23*PokemonMysteryDungeonExplorersofSkyInTheMorningSun_mvl/mxv
 BYTE   W04
 BYTE   VOL   23*PokemonMysteryDungeonExplorersofSkyInTheMorningSun_mvl/mxv
 BYTE   W08
 BYTE   VOL   22*PokemonMysteryDungeonExplorersofSkyInTheMorningSun_mvl/mxv
 BYTE   W04
 BYTE   VOL   22*PokemonMysteryDungeonExplorersofSkyInTheMorningSun_mvl/mxv
 BYTE   W04
 BYTE   VOL   22*PokemonMysteryDungeonExplorersofSkyInTheMorningSun_mvl/mxv
 BYTE   W04
 BYTE   VOL   22*PokemonMysteryDungeonExplorersofSkyInTheMorningSun_mvl/mxv
 BYTE   W08
 BYTE   VOL   21*PokemonMysteryDungeonExplorersofSkyInTheMorningSun_mvl/mxv
 BYTE   W04
 BYTE   VOL   21*PokemonMysteryDungeonExplorersofSkyInTheMorningSun_mvl/mxv
 BYTE   W04
 BYTE   VOL   20*PokemonMysteryDungeonExplorersofSkyInTheMorningSun_mvl/mxv
 BYTE   W04
 BYTE   VOL   20*PokemonMysteryDungeonExplorersofSkyInTheMorningSun_mvl/mxv
 BYTE   N44  Fs2
 BYTE   W04
 BYTE   VOL   20*PokemonMysteryDungeonExplorersofSkyInTheMorningSun_mvl/mxv
 BYTE   W08
 BYTE   VOL   19*PokemonMysteryDungeonExplorersofSkyInTheMorningSun_mvl/mxv
 BYTE   W04
 BYTE   VOL   19*PokemonMysteryDungeonExplorersofSkyInTheMorningSun_mvl/mxv
 BYTE   W04
 BYTE   VOL   19*PokemonMysteryDungeonExplorersofSkyInTheMorningSun_mvl/mxv
 BYTE   W04
//  #03 //066   ----------------------------------------
 BYTE   VOL   19*PokemonMysteryDungeonExplorersofSkyInTheMorningSun_mvl/mxv
 BYTE   W04
 BYTE   VOL   18*PokemonMysteryDungeonExplorersofSkyInTheMorningSun_mvl/mxv
 BYTE   W08
 BYTE   VOL   18*PokemonMysteryDungeonExplorersofSkyInTheMorningSun_mvl/mxv
 BYTE   W04
 BYTE   VOL   18*PokemonMysteryDungeonExplorersofSkyInTheMorningSun_mvl/mxv
 BYTE   W04
 BYTE   VOL   18*PokemonMysteryDungeonExplorersofSkyInTheMorningSun_mvl/mxv
 BYTE   W04
 BYTE   VOL   18*PokemonMysteryDungeonExplorersofSkyInTheMorningSun_mvl/mxv
 BYTE   N92  Gn2
 BYTE   W04
 BYTE   VOL   18*PokemonMysteryDungeonExplorersofSkyInTheMorningSun_mvl/mxv
 BYTE   W04
 BYTE   VOL   18*PokemonMysteryDungeonExplorersofSkyInTheMorningSun_mvl/mxv
 BYTE   W04
 BYTE   VOL   18*PokemonMysteryDungeonExplorersofSkyInTheMorningSun_mvl/mxv
 BYTE   W08
 BYTE   VOL   19*PokemonMysteryDungeonExplorersofSkyInTheMorningSun_mvl/mxv
 BYTE   W04
 BYTE   VOL   19*PokemonMysteryDungeonExplorersofSkyInTheMorningSun_mvl/mxv
 BYTE   W04
 BYTE   VOL   19*PokemonMysteryDungeonExplorersofSkyInTheMorningSun_mvl/mxv
 BYTE   W04
 BYTE   VOL   19*PokemonMysteryDungeonExplorersofSkyInTheMorningSun_mvl/mxv
 BYTE   W04
 BYTE   VOL   20*PokemonMysteryDungeonExplorersofSkyInTheMorningSun_mvl/mxv
 BYTE   W08
 BYTE   VOL   20*PokemonMysteryDungeonExplorersofSkyInTheMorningSun_mvl/mxv
 BYTE   W04
 BYTE   VOL   20*PokemonMysteryDungeonExplorersofSkyInTheMorningSun_mvl/mxv
 BYTE   W04
 BYTE   VOL   21*PokemonMysteryDungeonExplorersofSkyInTheMorningSun_mvl/mxv
 BYTE   W04
 BYTE   VOL   21*PokemonMysteryDungeonExplorersofSkyInTheMorningSun_mvl/mxv
 BYTE   W08
 BYTE   VOL   22*PokemonMysteryDungeonExplorersofSkyInTheMorningSun_mvl/mxv
 BYTE   W04
 BYTE   VOL   22*PokemonMysteryDungeonExplorersofSkyInTheMorningSun_mvl/mxv
 BYTE   W04
//  #03 //067   ----------------------------------------
 BYTE   VOL   22*PokemonMysteryDungeonExplorersofSkyInTheMorningSun_mvl/mxv
 BYTE   W04
 BYTE   VOL   22*PokemonMysteryDungeonExplorersofSkyInTheMorningSun_mvl/mxv
 BYTE   W04
 BYTE   VOL   23*PokemonMysteryDungeonExplorersofSkyInTheMorningSun_mvl/mxv
 BYTE   W08
 BYTE   VOL   23*PokemonMysteryDungeonExplorersofSkyInTheMorningSun_mvl/mxv
 BYTE   W04
 BYTE   VOL   23*PokemonMysteryDungeonExplorersofSkyInTheMorningSun_mvl/mxv
 BYTE   W04
 BYTE   VOL   23*PokemonMysteryDungeonExplorersofSkyInTheMorningSun_mvl/mxv
 BYTE   N92  Gs2
 BYTE   W04
 BYTE   VOL   24*PokemonMysteryDungeonExplorersofSkyInTheMorningSun_mvl/mxv
 BYTE   W68
//  #03 //068   ----------------------------------------
 BYTE   W08
 BYTE   VOL   23*PokemonMysteryDungeonExplorersofSkyInTheMorningSun_mvl/mxv
 BYTE   W04
 BYTE   VOL   23*PokemonMysteryDungeonExplorersofSkyInTheMorningSun_mvl/mxv
 BYTE   W04
 BYTE   VOL   22*PokemonMysteryDungeonExplorersofSkyInTheMorningSun_mvl/mxv
 BYTE   W04
 BYTE   VOL   22*PokemonMysteryDungeonExplorersofSkyInTheMorningSun_mvl/mxv
 BYTE   W04
 BYTE   VOL   22*PokemonMysteryDungeonExplorersofSkyInTheMorningSun_mvl/mxv
 BYTE   N92  An2
 BYTE   W04
 BYTE   VOL   21*PokemonMysteryDungeonExplorersofSkyInTheMorningSun_mvl/mxv
 BYTE   W04
 BYTE   VOL   20*PokemonMysteryDungeonExplorersofSkyInTheMorningSun_mvl/mxv
 BYTE   W04
 BYTE   VOL   20*PokemonMysteryDungeonExplorersofSkyInTheMorningSun_mvl/mxv
 BYTE   W04
 BYTE   VOL   19*PokemonMysteryDungeonExplorersofSkyInTheMorningSun_mvl/mxv
 BYTE   W04
 BYTE   VOL   19*PokemonMysteryDungeonExplorersofSkyInTheMorningSun_mvl/mxv
 BYTE   W04
 BYTE   VOL   19*PokemonMysteryDungeonExplorersofSkyInTheMorningSun_mvl/mxv
 BYTE   W04
 BYTE   VOL   18*PokemonMysteryDungeonExplorersofSkyInTheMorningSun_mvl/mxv
 BYTE   W04
 BYTE   VOL   18*PokemonMysteryDungeonExplorersofSkyInTheMorningSun_mvl/mxv
 BYTE   W04
 BYTE   VOL   18*PokemonMysteryDungeonExplorersofSkyInTheMorningSun_mvl/mxv
 BYTE   W04
 BYTE   VOL   18*PokemonMysteryDungeonExplorersofSkyInTheMorningSun_mvl/mxv
 BYTE   W04
 BYTE   VOL   17*PokemonMysteryDungeonExplorersofSkyInTheMorningSun_mvl/mxv
 BYTE   W04
 BYTE   VOL   17*PokemonMysteryDungeonExplorersofSkyInTheMorningSun_mvl/mxv
 BYTE   W04
 BYTE   VOL   16*PokemonMysteryDungeonExplorersofSkyInTheMorningSun_mvl/mxv
 BYTE   W04
 BYTE   VOL   16*PokemonMysteryDungeonExplorersofSkyInTheMorningSun_mvl/mxv
 BYTE   W04
 BYTE   VOL   15*PokemonMysteryDungeonExplorersofSkyInTheMorningSun_mvl/mxv
 BYTE   W04
 BYTE   VOL   15*PokemonMysteryDungeonExplorersofSkyInTheMorningSun_mvl/mxv
 BYTE   W04
 BYTE   VOL   14*PokemonMysteryDungeonExplorersofSkyInTheMorningSun_mvl/mxv
 BYTE   W04
//  #03 //069   ----------------------------------------
 BYTE   VOL   14*PokemonMysteryDungeonExplorersofSkyInTheMorningSun_mvl/mxv
 BYTE   W04
 BYTE   VOL   14*PokemonMysteryDungeonExplorersofSkyInTheMorningSun_mvl/mxv
 BYTE   W04
 BYTE   VOL   13*PokemonMysteryDungeonExplorersofSkyInTheMorningSun_mvl/mxv
 BYTE   W04
 BYTE   VOL   13*PokemonMysteryDungeonExplorersofSkyInTheMorningSun_mvl/mxv
 BYTE   W84
//  #03 //070   ----------------------------------------
 BYTE   W96
//  #03 //071   ----------------------------------------
 BYTE   W96
//  #03 //072   ----------------------------------------
 BYTE   W96
//  #03 //073   ----------------------------------------
 BYTE   W96
//  #03 //074   ----------------------------------------
 BYTE   W96
//  #03 //075   ----------------------------------------
 BYTE   W96
//  #03 //076   ----------------------------------------
 BYTE   W96
//  #03 //077   ----------------------------------------
 BYTE   W96
//  #03 //078   ----------------------------------------
 BYTE   PATT
  POIN2 Label_01686584
//  #03 //079   ----------------------------------------
 BYTE   PATT
  POIN2 Label_0168659E
//  #03 //080   ----------------------------------------
 BYTE   PATT
  POIN2 Label_016865B9
//  #03 //081   ----------------------------------------
 BYTE   PATT
  POIN2 Label_016865D9
//  #03 //082   ----------------------------------------
 BYTE   PATT
  POIN2 Label_016865E7
//  #03 //083   ----------------------------------------
 BYTE   PATT
  POIN2 Label_01686608
//  #03 //084   ----------------------------------------
 BYTE   PATT
  POIN2 Label_01686613
//  #03 //085   ----------------------------------------
 BYTE   EOT
 BYTE   Gn2
 BYTE   W01
 BYTE   N92  An2  v028
 BYTE   W02
 BYTE   VOL   18*PokemonMysteryDungeonExplorersofSkyInTheMorningSun_mvl/mxv
 BYTE   W06
 BYTE   VOL   18*PokemonMysteryDungeonExplorersofSkyInTheMorningSun_mvl/mxv
 BYTE   W05
 BYTE   VOL   20*PokemonMysteryDungeonExplorersofSkyInTheMorningSun_mvl/mxv
 BYTE   W04
 BYTE   VOL   22*PokemonMysteryDungeonExplorersofSkyInTheMorningSun_mvl/mxv
 BYTE   W06
 BYTE   VOL   23*PokemonMysteryDungeonExplorersofSkyInTheMorningSun_mvl/mxv
 BYTE   W06
 BYTE   VOL   24*PokemonMysteryDungeonExplorersofSkyInTheMorningSun_mvl/mxv
 BYTE   W42
 BYTE   W01
//  #03 //086   ----------------------------------------
 BYTE   PATT
  POIN2 Label_01686632
//  #03 //087   ----------------------------------------
 BYTE   PATT
  POIN2 Label_0168664F
//  #03 //088   ----------------------------------------
 BYTE   PATT
  POIN2 Label_0168666A
//  #03 //089   ----------------------------------------
 BYTE   PATT
  POIN2 Label_0168668C
//  #03 //090   ----------------------------------------
 BYTE   EOT
 BYTE   An2
 BYTE   W01
 BYTE   GoTo
  POIN2 Label_01686699
 BYTE   FINE

//**************** Track 4 (Midi-Chn.3) ****************//

PokemonMysteryDungeonExplorersofSkyInTheMorningSun_004:
//  #04 //000   ----------------------------------------
 BYTE   KEYSH   PokemonMysteryDungeonExplorersofSkyInTheMorningSun_key+0
 BYTE   VOICE   46
 BYTE   MODT 0
 BYTE   LFOS 44
 BYTE   VOL   34*PokemonMysteryDungeonExplorersofSkyInTheMorningSun_mvl/mxv
 BYTE   PAN   c_v+0
 BYTE   VOL   34*PokemonMysteryDungeonExplorersofSkyInTheMorningSun_mvl/mxv
 BYTE   BEND   c_v+0
 BYTE   W24
 BYTE   N48  Gn2  v088
 BYTE   W12
 BYTE   N06  Gn3
 BYTE   W12
 BYTE   Bn3
 BYTE   W12
 BYTE   Fs4
 BYTE   W36
//  #04 //001   ----------------------------------------
Label_01686C30:
 BYTE   W24
 BYTE   N48  An2  v088
 BYTE   W12
 BYTE   N06  An3
 BYTE   W12
 BYTE   Cs4
 BYTE   W12
 BYTE   Fs4
 BYTE   W36
 BYTE   PEND 
//  #04 //002   ----------------------------------------
Label_01686C3D:
 BYTE   W24
 BYTE   N48  Bn2  v088
 BYTE   W12
 BYTE   N06  An3
 BYTE   W12
 BYTE   Dn4
 BYTE   W12
 BYTE   Fs4
 BYTE   W36
 BYTE   PEND 
//  #04 //003   ----------------------------------------
 BYTE   PATT
  POIN2 Label_01686C30
//  #04 //004   ----------------------------------------
Label_01686C4F:
 BYTE   W24
 BYTE   N48  Gn2  v088
 BYTE   W12
 BYTE   N06  Gn3
 BYTE   W12
 BYTE   Bn3
 BYTE   W12
 BYTE   Fs4
 BYTE   W36
 BYTE   PEND 
//  #04 //005   ----------------------------------------
 BYTE   PATT
  POIN2 Label_01686C30
//  #04 //006   ----------------------------------------
 BYTE   PATT
  POIN2 Label_01686C3D
//  #04 //007   ----------------------------------------
 BYTE   PATT
  POIN2 Label_01686C30
//  #04 //008   ----------------------------------------
 BYTE   PATT
  POIN2 Label_01686C4F
//  #04 //009   ----------------------------------------
 BYTE   PATT
  POIN2 Label_01686C30
//  #04 //010   ----------------------------------------
 BYTE   PATT
  POIN2 Label_01686C3D
//  #04 //011   ----------------------------------------
 BYTE   W24
 BYTE   N48  An2  v088
 BYTE   W12
 BYTE   N06  An3
 BYTE   W12
 BYTE   Dn4
 BYTE   W12
 BYTE   Fs4
 BYTE   W36
//  #04 //012   ----------------------------------------
Label_01686C86:
 BYTE   W24
 BYTE   N48  Gn2  v088
 BYTE   W12
 BYTE   N06  Gn3
 BYTE   W12
 BYTE   Bn3
 BYTE   W12
 BYTE   Dn4
 BYTE   W24
 BYTE   Bn3
 BYTE   W12
 BYTE   PEND 
//  #04 //013   ----------------------------------------
 BYTE   W12
 BYTE   Dn4
 BYTE   W24
 BYTE   N06
 BYTE   W24
 BYTE   An4
 BYTE   W36
//  #04 //014   ----------------------------------------
Label_01686C9C:
 BYTE   W24
 BYTE   N48  An2  v088
 BYTE   W12
 BYTE   N06  Gn3
 BYTE   W12
 BYTE   An3
 BYTE   W12
 BYTE   Cs4
 BYTE   W24
 BYTE   An3
 BYTE   W12
 BYTE   PEND 
//  #04 //015   ----------------------------------------
Label_01686CAB:
 BYTE   W12
 BYTE   N06  En4  v088
 BYTE   W24
 BYTE   Cs4
 BYTE   W24
 BYTE   Fs4
 BYTE   W24
 BYTE   En4
 BYTE   W12
 BYTE   PEND 
//  #04 //016   ----------------------------------------
Label_01686CB7:
 BYTE   W24
 BYTE   N06  Cs4  v088
 BYTE   W02
 BYTE   En4
 BYTE   W03
 BYTE   An4
 BYTE   W66
 BYTE   W01
 BYTE   PEND 
//  #04 //017   ----------------------------------------
 BYTE   W96
//  #04 //018   ----------------------------------------
 BYTE   W24
Label_01686CC4:
 BYTE   N48  Bn2  v088
 BYTE   W12
 BYTE   N06  An3
 BYTE   W12
 BYTE   Dn4
 BYTE   W12
 BYTE   Fs4
 BYTE   W36
//  #04 //019   ----------------------------------------
 BYTE   PATT
  POIN2 Label_01686C30
//  #04 //020   ----------------------------------------
 BYTE   PATT
  POIN2 Label_01686C4F
//  #04 //021   ----------------------------------------
Label_01686CD9:
 BYTE   W24
 BYTE   N48  Fs2  v088
 BYTE   W12
 BYTE   N06  An3
 BYTE   W12
 BYTE   Dn4
 BYTE   W12
 BYTE   An4
 BYTE   W36
 BYTE   PEND 
//  #04 //022   ----------------------------------------
 BYTE   PATT
  POIN2 Label_01686C4F
//  #04 //023   ----------------------------------------
 BYTE   PATT
  POIN2 Label_01686C30
//  #04 //024   ----------------------------------------
 BYTE   W24
 BYTE   N48  Bn2  v088
 BYTE   W12
 BYTE   N06  Bn3
 BYTE   W12
 BYTE   Dn4
 BYTE   W12
 BYTE   Fs4
 BYTE   W36
//  #04 //025   ----------------------------------------
 BYTE   W24
 BYTE   N48  An2
 BYTE   W12
 BYTE   N06  An3
 BYTE   W12
 BYTE   Cs4
 BYTE   W12
 BYTE   An4
 BYTE   W36
//  #04 //026   ----------------------------------------
 BYTE   PATT
  POIN2 Label_01686C3D
//  #04 //027   ----------------------------------------
 BYTE   PATT
  POIN2 Label_01686C30
//  #04 //028   ----------------------------------------
 BYTE   PATT
  POIN2 Label_01686C4F
//  #04 //029   ----------------------------------------
 BYTE   PATT
  POIN2 Label_01686CD9
//  #04 //030   ----------------------------------------
 BYTE   PATT
  POIN2 Label_01686C4F
//  #04 //031   ----------------------------------------
 BYTE   PATT
  POIN2 Label_01686C30
//  #04 //032   ----------------------------------------
 BYTE   W24
 BYTE   N48  Bn2  v088
 BYTE   W12
 BYTE   N06  An3
 BYTE   W12
 BYTE   Dn4
 BYTE   W12
 BYTE   Fs4
 BYTE   W24
 BYTE   An3
 BYTE   W12
//  #04 //033   ----------------------------------------
 BYTE   W12
 BYTE   Bn3
 BYTE   W84
//  #04 //034   ----------------------------------------
 BYTE   W24
 BYTE   N48  As2
 BYTE   W12
 BYTE   N06  Dn4
 BYTE   W12
 BYTE   As3
 BYTE   W12
 BYTE   Fn4
 BYTE   W24
 BYTE   Dn4
 BYTE   W12
//  #04 //035   ----------------------------------------
 BYTE   An4
 BYTE   W24
 BYTE   N48  As2
 BYTE   W12
 BYTE   N06  Dn4
 BYTE   W12
 BYTE   As3
 BYTE   W12
 BYTE   Fn4
 BYTE   W24
 BYTE   Dn4
 BYTE   W12
//  #04 //036   ----------------------------------------
 BYTE   An4
 BYTE   W24
 BYTE   N48  An2
 BYTE   W12
 BYTE   N06  Cn4
 BYTE   W12
 BYTE   An3
 BYTE   W12
 BYTE   Fn4
 BYTE   W24
 BYTE   Cn4
 BYTE   W12
//  #04 //037   ----------------------------------------
 BYTE   An4
 BYTE   W24
 BYTE   N48  An2
 BYTE   W12
 BYTE   N06  Cn4
 BYTE   W12
 BYTE   An3
 BYTE   W12
 BYTE   An4
 BYTE   N06  Cn5
 BYTE   W36
//  #04 //038   ----------------------------------------
 BYTE   W24
 BYTE   N48  Gn2
 BYTE   W12
 BYTE   N06  As3
 BYTE   W12
 BYTE   Gn3
 BYTE   W12
 BYTE   Dn4
 BYTE   W24
 BYTE   As3
 BYTE   W12
//  #04 //039   ----------------------------------------
 BYTE   Fn4
 BYTE   W24
 BYTE   N48  Cn3
 BYTE   W12
 BYTE   N06  Cn4
 BYTE   W12
 BYTE   Gn3
 BYTE   W12
 BYTE   En4
 BYTE   W24
 BYTE   Cn4
 BYTE   W12
//  #04 //040   ----------------------------------------
 BYTE   Gn4
 BYTE   W24
 BYTE   N48  Dn3
 BYTE   W12
 BYTE   N06  Dn4
 BYTE   W12
 BYTE   An3
 BYTE   W12
 BYTE   En4
 BYTE   W24
 BYTE   Dn4
 BYTE   W12
//  #04 //041   ----------------------------------------
 BYTE   An4
 BYTE   W24
 BYTE   N48  Dn3
 BYTE   W12
 BYTE   N06  En4
 BYTE   W12
 BYTE   Dn4
 BYTE   W12
 BYTE   An4
 BYTE   W36
//  #04 //042   ----------------------------------------
 BYTE   W24
 BYTE   N96  As2
 BYTE   W12
 BYTE   N06  As3
 BYTE   W12
 BYTE   Dn4
 BYTE   W12
 BYTE   Gn4
 BYTE   W36
//  #04 //043   ----------------------------------------
 BYTE   W24
 BYTE   N96  Cn3
 BYTE   W12
 BYTE   N06  Cn4
 BYTE   W12
 BYTE   Fn4
 BYTE   W12
 BYTE   An4
 BYTE   W36
//  #04 //044   ----------------------------------------
 BYTE   W24
 BYTE   N96  Dn3
 BYTE   W12
 BYTE   N06  Dn4
 BYTE   W12
 BYTE   An3
 BYTE   W12
 BYTE   Gn4
 BYTE   W24
 BYTE   Dn4
 BYTE   W12
//  #04 //045   ----------------------------------------
 BYTE   An4
 BYTE   W24
 BYTE   N96  Gn2
 BYTE   W12
 BYTE   N06  Dn4
 BYTE   W12
 BYTE   Bn3
 BYTE   W12
 BYTE   Dn4
 BYTE   N06  Gn4
 BYTE   W36
//  #04 //046   ----------------------------------------
 BYTE   W24
 BYTE   N96  Ds2
 BYTE   W12
 BYTE   N06  Gn3
 BYTE   W12
 BYTE   Ds3
 BYTE   W12
 BYTE   Cn4
 BYTE   W24
 BYTE   Gn3
 BYTE   W12
//  #04 //047   ----------------------------------------
 BYTE   Ds4
 BYTE   W24
 BYTE   Ds3
 BYTE   W12
 BYTE   Ds4
 BYTE   W12
 BYTE   Cn4
 BYTE   W12
 BYTE   Gn4
 BYTE   W24
 BYTE   Ds4
 BYTE   W12
//  #04 //048   ----------------------------------------
 BYTE   As4
 BYTE   W24
 BYTE   N96  Cn2  v044
 BYTE   W12
 BYTE   N06  Gn3  v088
 BYTE   W12
 BYTE   Ds3
 BYTE   W12
 BYTE   Cn4
 BYTE   W24
 BYTE   Gn3
 BYTE   W12
//  #04 //049   ----------------------------------------
 BYTE   Ds4
 BYTE   W24
 BYTE   Cn3
 BYTE   W12
 BYTE   Cn4
 BYTE   W12
 BYTE   Gn3
 BYTE   W12
 BYTE   Ds4
 BYTE   W24
 BYTE   Cn4
 BYTE   W12
//  #04 //050   ----------------------------------------
 BYTE   Gn4
 BYTE   W24
 BYTE   N96  Dn2
 BYTE   W12
 BYTE   N06  Gn3
 BYTE   W12
 BYTE   Dn3
 BYTE   W12
 BYTE   Cn4
 BYTE   W24
 BYTE   Gn3
 BYTE   W12
//  #04 //051   ----------------------------------------
 BYTE   Dn4
 BYTE   W24
 BYTE   Dn3
 BYTE   W12
 BYTE   An3
 BYTE   W12
 BYTE   Gn3
 BYTE   W12
 BYTE   Dn4
 BYTE   W24
 BYTE   Cn4
 BYTE   W12
//  #04 //052   ----------------------------------------
 BYTE   Gn4
 BYTE   W24
 BYTE   Dn4
 BYTE   W12
 BYTE   Fs4
 BYTE   W12
 BYTE   Dn4
 BYTE   W12
 BYTE   An4
 BYTE   W24
 BYTE   Fs4
 BYTE   W12
//  #04 //053   ----------------------------------------
 BYTE   Cn5
 BYTE   W24
 BYTE   Dn4
 BYTE   W01
 BYTE   Fs4
 BYTE   W02
 BYTE   An4
 BYTE   W01
 BYTE   Dn5
 BYTE   W68
//  #04 //054   ----------------------------------------
 BYTE   W24
 BYTE   N48  Gn2
 BYTE   W12
 BYTE   N06  Gn3
 BYTE   W12
 BYTE   Bn3
 BYTE   W12
 BYTE   Dn4
 BYTE   W36
//  #04 //055   ----------------------------------------
Label_01686E43:
 BYTE   W24
 BYTE   N48  An2  v088
 BYTE   W12
 BYTE   N06  An3
 BYTE   W12
 BYTE   Cs4
 BYTE   W12
 BYTE   En4
 BYTE   W36
 BYTE   PEND 
//  #04 //056   ----------------------------------------
 BYTE   PATT
  POIN2 Label_01686C3D
//  #04 //057   ----------------------------------------
Label_01686E55:
 BYTE   W24
 BYTE   N48  An2  v088
 BYTE   W12
 BYTE   N06  Fs3
 BYTE   W12
 BYTE   Bn3
 BYTE   W12
 BYTE   Dn4
 BYTE   W36
 BYTE   PEND 
//  #04 //058   ----------------------------------------
 BYTE   W24
 BYTE   N48  Gn2
 BYTE   W12
 BYTE   N06  Gn3
 BYTE   W12
 BYTE   Bn3
 BYTE   W12
 BYTE   En4
 BYTE   W36
//  #04 //059   ----------------------------------------
 BYTE   PATT
  POIN2 Label_01686E43
//  #04 //060   ----------------------------------------
 BYTE   PATT
  POIN2 Label_01686C3D
//  #04 //061   ----------------------------------------
 BYTE   PATT
  POIN2 Label_01686E55
//  #04 //062   ----------------------------------------
 BYTE   W24
 BYTE   W01
 BYTE   N48  Gn2  v088
 BYTE   W12
 BYTE   N06  Gn3
 BYTE   W12
 BYTE   Bn3
 BYTE   W12
 BYTE   Dn4
 BYTE   W32
 BYTE   W03
//  #04 //063   ----------------------------------------
 BYTE   W24
 BYTE   W01
 BYTE   N48  An2
 BYTE   W12
 BYTE   N06  An3
 BYTE   W12
 BYTE   Cs4
 BYTE   W12
 BYTE   En4
 BYTE   W32
 BYTE   W03
//  #04 //064   ----------------------------------------
 BYTE   W24
 BYTE   W01
 BYTE   N48  Bn2
 BYTE   W12
 BYTE   N06  An3
 BYTE   W12
 BYTE   Dn4
 BYTE   W12
 BYTE   Fs4
 BYTE   W32
 BYTE   W03
//  #04 //065   ----------------------------------------
 BYTE   W24
 BYTE   W01
 BYTE   N48  An2
 BYTE   W12
 BYTE   N06  Fs3
 BYTE   W12
 BYTE   Bn3
 BYTE   W12
 BYTE   Fs4
 BYTE   W32
 BYTE   W03
//  #04 //066   ----------------------------------------
 BYTE   PATT
  POIN2 Label_01686C86
//  #04 //067   ----------------------------------------
 BYTE   N06  Fs4  v088
 BYTE   W24
 BYTE   N48  Gs2
 BYTE   W12
 BYTE   N06  Gs3
 BYTE   W12
 BYTE   Bn3
 BYTE   W12
 BYTE   Dn4
 BYTE   W24
 BYTE   Bn3
 BYTE   W12
//  #04 //068   ----------------------------------------
 BYTE   Fs4
 BYTE   W24
 BYTE   An3
 BYTE   W01
 BYTE   Cs4
 BYTE   W02
 BYTE   En4
 BYTE   W68
 BYTE   W01
//  #04 //069   ----------------------------------------
 BYTE   W24
 BYTE   Cs4
 BYTE   W01
 BYTE   En4
 BYTE   W02
 BYTE   Gn4
 BYTE   W68
 BYTE   W01
//  #04 //070   ----------------------------------------
 BYTE   PATT
  POIN2 Label_01686C4F
//  #04 //071   ----------------------------------------
 BYTE   PATT
  POIN2 Label_01686C30
//  #04 //072   ----------------------------------------
 BYTE   PATT
  POIN2 Label_01686C3D
//  #04 //073   ----------------------------------------
 BYTE   PATT
  POIN2 Label_01686C30
//  #04 //074   ----------------------------------------
 BYTE   PATT
  POIN2 Label_01686C4F
//  #04 //075   ----------------------------------------
 BYTE   PATT
  POIN2 Label_01686C30
//  #04 //076   ----------------------------------------
 BYTE   PATT
  POIN2 Label_01686C3D
//  #04 //077   ----------------------------------------
 BYTE   PATT
  POIN2 Label_01686C30
//  #04 //078   ----------------------------------------
 BYTE   PATT
  POIN2 Label_01686C4F
//  #04 //079   ----------------------------------------
 BYTE   PATT
  POIN2 Label_01686C30
//  #04 //080   ----------------------------------------
 BYTE   PATT
  POIN2 Label_01686C3D
//  #04 //081   ----------------------------------------
 BYTE   PATT
  POIN2 Label_01686C30
//  #04 //082   ----------------------------------------
 BYTE   PATT
  POIN2 Label_01686C86
//  #04 //083   ----------------------------------------
 BYTE   W12
 BYTE   N06  En4  v088
 BYTE   W24
 BYTE   Dn4
 BYTE   W24
 BYTE   An4
 BYTE   W36
//  #04 //084   ----------------------------------------
 BYTE   PATT
  POIN2 Label_01686C9C
//  #04 //085   ----------------------------------------
 BYTE   PATT
  POIN2 Label_01686CAB
//  #04 //086   ----------------------------------------
 BYTE   PATT
  POIN2 Label_01686CB7
//  #04 //087   ----------------------------------------
 BYTE   W96
//  #04 //088   ----------------------------------------
 BYTE   W24
 BYTE   GoTo
  POIN2 Label_01686CC4
 BYTE   FINE

//**************** Track 5 (Midi-Chn.4) ****************//

PokemonMysteryDungeonExplorersofSkyInTheMorningSun_005:
//  #05 //000   ----------------------------------------
 BYTE   KEYSH   PokemonMysteryDungeonExplorersofSkyInTheMorningSun_key+0
 BYTE   VOICE   8
 BYTE   MODT 0
 BYTE   LFOS 44
 BYTE   VOL   44*PokemonMysteryDungeonExplorersofSkyInTheMorningSun_mvl/mxv
 BYTE   PAN   c_v-24
 BYTE   VOL   44*PokemonMysteryDungeonExplorersofSkyInTheMorningSun_mvl/mxv
 BYTE   BEND   c_v+0
 BYTE   W96
//  #05 //001   ----------------------------------------
 BYTE   W96
//  #05 //002   ----------------------------------------
 BYTE   W96
//  #05 //003   ----------------------------------------
 BYTE   W96
//  #05 //004   ----------------------------------------
 BYTE   W96
//  #05 //005   ----------------------------------------
 BYTE   W96
//  #05 //006   ----------------------------------------
 BYTE   W96
//  #05 //007   ----------------------------------------
 BYTE   W96
//  #05 //008   ----------------------------------------
Label_01686F50:
 BYTE   W36
 BYTE   N01  Fs4  v080
 BYTE   W12
 BYTE   En4
 BYTE   W12
 BYTE   Bn3
 BYTE   W12
 BYTE   Fs4
 BYTE   W12
 BYTE   En4
 BYTE   W12
 BYTE   PEND 
//  #05 //009   ----------------------------------------
Label_01686F5E:
 BYTE   N01  Bn3  v080
 BYTE   W12
 BYTE   Fs4
 BYTE   W24
 BYTE   En4
 BYTE   W24
 BYTE   An3
 BYTE   W36
 BYTE   PEND 
//  #05 //010   ----------------------------------------
 BYTE   PATT
  POIN2 Label_01686F50
//  #05 //011   ----------------------------------------
Label_01686F6E:
 BYTE   N01  Bn3  v080
 BYTE   W12
 BYTE   Fs4
 BYTE   W24
 BYTE   En4
 BYTE   W24
 BYTE   An4
 BYTE   W36
 BYTE   PEND 
//  #05 //012   ----------------------------------------
 BYTE   PATT
  POIN2 Label_01686F50
//  #05 //013   ----------------------------------------
 BYTE   PATT
  POIN2 Label_01686F6E
//  #05 //014   ----------------------------------------
Label_01686F83:
 BYTE   W36
 BYTE   N01  Fs4  v080
 BYTE   W12
 BYTE   En4
 BYTE   W12
 BYTE   An3
 BYTE   W12
 BYTE   Fs4
 BYTE   W12
 BYTE   En4
 BYTE   W12
 BYTE   PEND 
//  #05 //015   ----------------------------------------
Label_01686F91:
 BYTE   N01  An3  v080
 BYTE   W12
 BYTE   En4
 BYTE   W24
 BYTE   Cs4
 BYTE   W24
 BYTE   Fs4
 BYTE   W24
 BYTE   En4
 BYTE   W12
 BYTE   PEND 
//  #05 //016   ----------------------------------------
 BYTE   W24
 BYTE   An4
 BYTE   W72
//  #05 //017   ----------------------------------------
 BYTE   W96
//  #05 //018   ----------------------------------------
 BYTE   W24
Label_01686FA3:
 BYTE   W72
//  #05 //019   ----------------------------------------
 BYTE   W96
//  #05 //020   ----------------------------------------
 BYTE   W96
//  #05 //021   ----------------------------------------
 BYTE   W96
//  #05 //022   ----------------------------------------
 BYTE   W96
//  #05 //023   ----------------------------------------
 BYTE   W96
//  #05 //024   ----------------------------------------
 BYTE   W96
//  #05 //025   ----------------------------------------
 BYTE   W96
//  #05 //026   ----------------------------------------
 BYTE   W96
//  #05 //027   ----------------------------------------
 BYTE   W96
//  #05 //028   ----------------------------------------
 BYTE   W96
//  #05 //029   ----------------------------------------
 BYTE   W96
//  #05 //030   ----------------------------------------
 BYTE   W96
//  #05 //031   ----------------------------------------
 BYTE   W96
//  #05 //032   ----------------------------------------
 BYTE   W96
//  #05 //033   ----------------------------------------
 BYTE   W96
//  #05 //034   ----------------------------------------
 BYTE   W24
 BYTE   N05  En4  v088
 BYTE   W12
 BYTE   En4  v028
 BYTE   W12
 BYTE   En4  v008
 BYTE   W12
 BYTE   Dn4  v088
 BYTE   W12
 BYTE   Dn4  v028
 BYTE   W12
 BYTE   Dn4  v008
 BYTE   W12
//  #05 //035   ----------------------------------------
 BYTE   W96
//  #05 //036   ----------------------------------------
 BYTE   W24
 BYTE   Gn4  v088
 BYTE   W12
 BYTE   Gn4  v028
 BYTE   W12
 BYTE   Gn4  v008
 BYTE   W12
 BYTE   Fn4  v088
 BYTE   W12
 BYTE   Fn4  v028
 BYTE   W12
 BYTE   Fn4  v008
 BYTE   W12
//  #05 //037   ----------------------------------------
 BYTE   W96
//  #05 //038   ----------------------------------------
 BYTE   W24
 BYTE   As3  v088
 BYTE   W12
 BYTE   As3  v028
 BYTE   W12
 BYTE   As3  v008
 BYTE   W12
 BYTE   Dn4  v088
 BYTE   W12
 BYTE   Dn4  v028
 BYTE   W12
 BYTE   Dn4  v008
 BYTE   W12
//  #05 //039   ----------------------------------------
 BYTE   W24
 BYTE   Cn4  v088
 BYTE   W12
 BYTE   Cn4  v028
 BYTE   W12
 BYTE   Cn4  v008
 BYTE   W12
 BYTE   En4  v088
 BYTE   W12
 BYTE   En4  v028
 BYTE   W12
 BYTE   En4  v008
 BYTE   W12
//  #05 //040   ----------------------------------------
 BYTE   W24
 BYTE   Dn4  v088
 BYTE   W12
 BYTE   Dn4  v028
 BYTE   W12
 BYTE   Dn4  v008
 BYTE   W12
 BYTE   An4  v088
 BYTE   W12
 BYTE   An4  v028
 BYTE   W12
 BYTE   An4  v008
 BYTE   W12
//  #05 //041   ----------------------------------------
 BYTE   W12
 BYTE   An4  v088
 BYTE   W12
 BYTE   An4  v028
 BYTE   W12
 BYTE   An4  v008
 BYTE   W12
 BYTE   An4  v048
 BYTE   W12
 BYTE   An4  v016
 BYTE   W12
 BYTE   An4  v008
 BYTE   W12
 BYTE   An4  v032
 BYTE   W12
//  #05 //042   ----------------------------------------
 BYTE   An4  v016
 BYTE   W12
 BYTE   An4  v008
 BYTE   W12
 BYTE   Dn4  v088
 BYTE   N05  An4  v004
 BYTE   W12
 BYTE   Dn4  v028
 BYTE   W12
 BYTE   Dn4  v008
 BYTE   W12
 BYTE   As3  v088
 BYTE   W12
 BYTE   As3  v028
 BYTE   W12
 BYTE   As3  v008
 BYTE   W12
//  #05 //043   ----------------------------------------
 BYTE   W24
 BYTE   Fn4  v088
 BYTE   W12
 BYTE   Fn4  v028
 BYTE   W12
 BYTE   Fn4  v008
 BYTE   W12
 BYTE   Cn4  v088
 BYTE   W12
 BYTE   Cn4  v028
 BYTE   W12
 BYTE   Cn4  v008
 BYTE   W12
//  #05 //044   ----------------------------------------
 BYTE   W24
 BYTE   Gn4  v088
 BYTE   W12
 BYTE   Gn4  v028
 BYTE   W12
 BYTE   Gn4  v008
 BYTE   W12
 BYTE   Dn4  v088
 BYTE   W12
 BYTE   Dn4  v028
 BYTE   W12
 BYTE   Dn4  v008
 BYTE   W12
//  #05 //045   ----------------------------------------
 BYTE   W12
 BYTE   Dn4  v088
 BYTE   W12
 BYTE   Dn4  v028
 BYTE   W12
 BYTE   Dn4  v008
 BYTE   W60
//  #05 //046   ----------------------------------------
 BYTE   W24
 BYTE   Ds4  v088
 BYTE   W12
 BYTE   Ds4  v028
 BYTE   W12
 BYTE   Ds4  v008
 BYTE   W12
 BYTE   Cn4  v088
 BYTE   W12
 BYTE   Cn4  v028
 BYTE   W12
 BYTE   Cn4  v008
 BYTE   W12
//  #05 //047   ----------------------------------------
 BYTE   Gn4  v088
 BYTE   W12
 BYTE   Gn4  v028
 BYTE   W12
 BYTE   Gn4  v008
 BYTE   W12
 BYTE   Gn4  v048
 BYTE   W12
 BYTE   Gn4  v016
 BYTE   W12
 BYTE   Gn4  v008
 BYTE   W12
 BYTE   Gn4  v032
 BYTE   W12
 BYTE   Gn4  v016
 BYTE   W12
//  #05 //048   ----------------------------------------
 BYTE   Gn4  v008
 BYTE   W12
 BYTE   Gn4  v004
 BYTE   W12
 BYTE   Gn4  v088
 BYTE   W12
 BYTE   Gn4  v028
 BYTE   W12
 BYTE   Gn4  v008
 BYTE   W12
 BYTE   Ds4  v088
 BYTE   W12
 BYTE   Ds4  v028
 BYTE   W12
 BYTE   Ds4  v008
 BYTE   W12
//  #05 //049   ----------------------------------------
 BYTE   As4  v088
 BYTE   W12
 BYTE   As4  v028
 BYTE   W12
 BYTE   As4  v008
 BYTE   W12
 BYTE   As4  v048
 BYTE   W12
 BYTE   As4  v016
 BYTE   W12
 BYTE   As4  v008
 BYTE   W12
 BYTE   As4  v032
 BYTE   W12
 BYTE   As4  v016
 BYTE   W12
//  #05 //050   ----------------------------------------
 BYTE   As4  v008
 BYTE   W12
 BYTE   As4  v004
 BYTE   W12
 BYTE   An4  v088
 BYTE   W12
 BYTE   An4  v028
 BYTE   W12
 BYTE   An4  v008
 BYTE   W12
 BYTE   Gn4  v088
 BYTE   W12
 BYTE   Gn4  v028
 BYTE   W12
 BYTE   Gn4  v008
 BYTE   W12
//  #05 //051   ----------------------------------------
 BYTE   Dn5  v088
 BYTE   W12
 BYTE   Dn5  v028
 BYTE   W12
 BYTE   Dn5  v008
 BYTE   W12
 BYTE   Dn5  v048
 BYTE   W12
 BYTE   Dn5  v016
 BYTE   W12
 BYTE   Dn5  v008
 BYTE   W12
 BYTE   Dn5  v032
 BYTE   W12
 BYTE   Dn5  v016
 BYTE   W12
//  #05 //052   ----------------------------------------
 BYTE   Dn5  v008
 BYTE   W12
 BYTE   Dn5  v004
 BYTE   W12
 BYTE   Dn5  v088
 BYTE   W12
 BYTE   Dn5  v028
 BYTE   W12
 BYTE   Dn5  v008
 BYTE   W12
 BYTE   Cn5  v088
 BYTE   W12
 BYTE   Cn5  v028
 BYTE   W12
 BYTE   Cn5  v008
 BYTE   W12
//  #05 //053   ----------------------------------------
 BYTE   Gn5  v088
 BYTE   W12
 BYTE   Gn5  v028
 BYTE   W12
 BYTE   Fs5  v088
 BYTE   W12
 BYTE   Fs5  v028
 BYTE   W12
 BYTE   Fs5  v008
 BYTE   W48
//  #05 //054   ----------------------------------------
 BYTE   W96
//  #05 //055   ----------------------------------------
 BYTE   W96
//  #05 //056   ----------------------------------------
 BYTE   W96
//  #05 //057   ----------------------------------------
 BYTE   W96
//  #05 //058   ----------------------------------------
 BYTE   W96
//  #05 //059   ----------------------------------------
 BYTE   W96
//  #05 //060   ----------------------------------------
 BYTE   W96
//  #05 //061   ----------------------------------------
 BYTE   W96
//  #05 //062   ----------------------------------------
 BYTE   W96
//  #05 //063   ----------------------------------------
 BYTE   W96
//  #05 //064   ----------------------------------------
 BYTE   W96
//  #05 //065   ----------------------------------------
 BYTE   W96
//  #05 //066   ----------------------------------------
 BYTE   W96
//  #05 //067   ----------------------------------------
 BYTE   W96
//  #05 //068   ----------------------------------------
 BYTE   W96
//  #05 //069   ----------------------------------------
 BYTE   W96
//  #05 //070   ----------------------------------------
 BYTE   W24
 BYTE   Fs5  v088
 BYTE   W12
 BYTE   Fs5  v028
 BYTE   W12
 BYTE   Fs5  v008
 BYTE   W12
 BYTE   En5  v088
 BYTE   W12
 BYTE   En5  v028
 BYTE   W12
 BYTE   En5  v008
 BYTE   W12
//  #05 //071   ----------------------------------------
Label_0168714B:
 BYTE   N05  An5  v088
 BYTE   W12
 BYTE   An5  v028
 BYTE   W12
 BYTE   An5  v008
 BYTE   W12
 BYTE   An5  v048
 BYTE   W12
 BYTE   An5  v016
 BYTE   W12
 BYTE   An5  v008
 BYTE   W12
 BYTE   An5  v032
 BYTE   W12
 BYTE   An5  v016
 BYTE   W12
 BYTE   PEND 
//  #05 //072   ----------------------------------------
Label_01687165:
 BYTE   N05  An5  v008
 BYTE   W12
 BYTE   An5  v004
 BYTE   W12
 BYTE   Fs5  v088
 BYTE   W12
 BYTE   Fs5  v028
 BYTE   W12
 BYTE   Fs5  v008
 BYTE   W12
 BYTE   En5  v088
 BYTE   W12
 BYTE   En5  v028
 BYTE   W12
 BYTE   En5  v008
 BYTE   W12
 BYTE   PEND 
//  #05 //073   ----------------------------------------
Label_0168717F:
 BYTE   N05  An4  v088
 BYTE   W12
 BYTE   An4  v028
 BYTE   W12
 BYTE   An4  v008
 BYTE   W12
 BYTE   An4  v048
 BYTE   W12
 BYTE   An4  v016
 BYTE   W12
 BYTE   An4  v008
 BYTE   W12
 BYTE   An4  v032
 BYTE   W12
 BYTE   An4  v016
 BYTE   W12
 BYTE   PEND 
//  #05 //074   ----------------------------------------
 BYTE   An4  v008
 BYTE   W12
 BYTE   An4  v004
 BYTE   W12
 BYTE   Fs5  v088
 BYTE   W12
 BYTE   Fs5  v028
 BYTE   W12
 BYTE   Fs5  v008
 BYTE   W12
 BYTE   En5  v088
 BYTE   W12
 BYTE   En5  v028
 BYTE   W12
 BYTE   En5  v008
 BYTE   W12
//  #05 //075   ----------------------------------------
 BYTE   PATT
  POIN2 Label_0168714B
//  #05 //076   ----------------------------------------
 BYTE   PATT
  POIN2 Label_01687165
//  #05 //077   ----------------------------------------
 BYTE   PATT
  POIN2 Label_0168717F
//  #05 //078   ----------------------------------------
 BYTE   N05  An4  v008
 BYTE   W12
 BYTE   An4  v004
 BYTE   W24
 BYTE   N01  Fs4  v080
 BYTE   W12
 BYTE   En4
 BYTE   W12
 BYTE   Bn3
 BYTE   W12
 BYTE   Fs4
 BYTE   W12
 BYTE   En4
 BYTE   W12
//  #05 //079   ----------------------------------------
 BYTE   PATT
  POIN2 Label_01686F5E
//  #05 //080   ----------------------------------------
 BYTE   PATT
  POIN2 Label_01686F50
//  #05 //081   ----------------------------------------
 BYTE   PATT
  POIN2 Label_01686F6E
//  #05 //082   ----------------------------------------
 BYTE   PATT
  POIN2 Label_01686F50
//  #05 //083   ----------------------------------------
 BYTE   PATT
  POIN2 Label_01686F6E
//  #05 //084   ----------------------------------------
 BYTE   PATT
  POIN2 Label_01686F83
//  #05 //085   ----------------------------------------
 BYTE   PATT
  POIN2 Label_01686F91
//  #05 //086   ----------------------------------------
 BYTE   W24
 BYTE   N01  An4  v080
 BYTE   W72
//  #05 //087   ----------------------------------------
 BYTE   W96
//  #05 //088   ----------------------------------------
 BYTE   W24
 BYTE   GoTo
  POIN2 Label_01686FA3
 BYTE   FINE

//**************** Track 6 (Midi-Chn.5) ****************//

PokemonMysteryDungeonExplorersofSkyInTheMorningSun_006:
//  #06 //000   ----------------------------------------
 BYTE   KEYSH   PokemonMysteryDungeonExplorersofSkyInTheMorningSun_key+0
 BYTE   VOICE   76
 BYTE   MODT 0
 BYTE   LFOS 44
 BYTE   VOL   45*PokemonMysteryDungeonExplorersofSkyInTheMorningSun_mvl/mxv
 BYTE   PAN   c_v-17
 BYTE   VOL   40*PokemonMysteryDungeonExplorersofSkyInTheMorningSun_mvl/mxv
 BYTE   BEND   c_v+0
 BYTE   W96
//  #06 //001   ----------------------------------------
 BYTE   W96
//  #06 //002   ----------------------------------------
 BYTE   W96
//  #06 //003   ----------------------------------------
 BYTE   W96
//  #06 //004   ----------------------------------------
 BYTE   W96
//  #06 //005   ----------------------------------------
 BYTE   W96
//  #06 //006   ----------------------------------------
 BYTE   W96
//  #06 //007   ----------------------------------------
 BYTE   W24
 BYTE   VOL   40*PokemonMysteryDungeonExplorersofSkyInTheMorningSun_mvl/mxv
 BYTE   W72
//  #06 //008   ----------------------------------------
 BYTE   N24  Dn4  v104
 BYTE   W24
 BYTE   N36  An4
 BYTE   W36
 BYTE   N12  An4  v036
 BYTE   W12
 BYTE   N24  An4  v104
 BYTE   W24
//  #06 //009   ----------------------------------------
 BYTE   N12  Bn4
 BYTE   W12
 BYTE   N54  An4
 BYTE   W54
 BYTE   W01
 BYTE   N01  An4  v072
 BYTE   W05
 BYTE   N42  Gn4  v092
 BYTE   W24
//  #06 //010   ----------------------------------------
 BYTE   W20
 BYTE   N04  Gn4  v072
 BYTE   W04
 BYTE   N44  Fs4  v104
 BYTE   W44
 BYTE   N01  Fs4  v040
 BYTE   W04
 BYTE   N44  Bn4  v104
 BYTE   W24
//  #06 //011   ----------------------------------------
 BYTE   W20
 BYTE   N03  Bn4  v040
 BYTE   W04
 BYTE   N42  Dn5  v104
 BYTE   W42
 BYTE   W01
 BYTE   N01  Dn5  v040
 BYTE   W05
 BYTE   N42  En5  v104
 BYTE   W24
//  #06 //012   ----------------------------------------
 BYTE   W19
 BYTE   N04  En5  v036
 BYTE   W05
 BYTE   N68  Fs5  v104
 BYTE   W68
 BYTE   N04  Fs5  v036
 BYTE   W04
//  #06 //013   ----------------------------------------
Label_0168726D:
 BYTE   N06  En5  v104
 BYTE   W06
 BYTE   En5  v032
 BYTE   W06
 BYTE   N84  En5  v104
 BYTE   W84
 BYTE   PEND 
//  #06 //014   ----------------------------------------
 BYTE   N12  En5  v052
 BYTE   W12
 BYTE   En5  v028
 BYTE   W12
 BYTE   N60  Fs5  v104
 BYTE   W60
 BYTE   N12  Fs5  v036
 BYTE   W12
//  #06 //015   ----------------------------------------
 BYTE   PATT
  POIN2 Label_0168726D
//  #06 //016   ----------------------------------------
 BYTE   N12  En5  v044
 BYTE   W12
 BYTE   En5  v024
 BYTE   W12
 BYTE   TIE  An5  v104
 BYTE   W42
 BYTE   VOL   40*PokemonMysteryDungeonExplorersofSkyInTheMorningSun_mvl/mxv
 BYTE   W06
 BYTE   VOL   37*PokemonMysteryDungeonExplorersofSkyInTheMorningSun_mvl/mxv
 BYTE   W06
 BYTE   VOL   34*PokemonMysteryDungeonExplorersofSkyInTheMorningSun_mvl/mxv
 BYTE   W06
 BYTE   VOL   32*PokemonMysteryDungeonExplorersofSkyInTheMorningSun_mvl/mxv
 BYTE   W06
 BYTE   VOL   30*PokemonMysteryDungeonExplorersofSkyInTheMorningSun_mvl/mxv
 BYTE   W06
//  #06 //017   ----------------------------------------
 BYTE   VOL   28*PokemonMysteryDungeonExplorersofSkyInTheMorningSun_mvl/mxv
 BYTE   W06
 BYTE   VOL   25*PokemonMysteryDungeonExplorersofSkyInTheMorningSun_mvl/mxv
 BYTE   W06
 BYTE   VOL   22*PokemonMysteryDungeonExplorersofSkyInTheMorningSun_mvl/mxv
 BYTE   W06
 BYTE   VOL   21*PokemonMysteryDungeonExplorersofSkyInTheMorningSun_mvl/mxv
 BYTE   W06
 BYTE   VOL   19*PokemonMysteryDungeonExplorersofSkyInTheMorningSun_mvl/mxv
 BYTE   W06
 BYTE   VOL   17*PokemonMysteryDungeonExplorersofSkyInTheMorningSun_mvl/mxv
 BYTE   W06
 BYTE   VOL   15*PokemonMysteryDungeonExplorersofSkyInTheMorningSun_mvl/mxv
 BYTE   W06
 BYTE   VOL   14*PokemonMysteryDungeonExplorersofSkyInTheMorningSun_mvl/mxv
 BYTE   W06
 BYTE   VOL   12*PokemonMysteryDungeonExplorersofSkyInTheMorningSun_mvl/mxv
 BYTE   W06
 BYTE   VOL   10*PokemonMysteryDungeonExplorersofSkyInTheMorningSun_mvl/mxv
 BYTE   W06
 BYTE   VOL   10*PokemonMysteryDungeonExplorersofSkyInTheMorningSun_mvl/mxv
 BYTE   W06
 BYTE   VOL   8*PokemonMysteryDungeonExplorersofSkyInTheMorningSun_mvl/mxv
 BYTE   W06
 BYTE   EOT
 BYTE   VOL   6*PokemonMysteryDungeonExplorersofSkyInTheMorningSun_mvl/mxv
 BYTE   W24
//  #06 //018   ----------------------------------------
 BYTE   W24
Label_016872C0:
 BYTE   VOL   6*PokemonMysteryDungeonExplorersofSkyInTheMorningSun_mvl/mxv
 BYTE   W72
//  #06 //019   ----------------------------------------
 BYTE   W96
//  #06 //020   ----------------------------------------
 BYTE   W96
//  #06 //021   ----------------------------------------
 BYTE   W96
//  #06 //022   ----------------------------------------
 BYTE   W96
//  #06 //023   ----------------------------------------
 BYTE   W96
//  #06 //024   ----------------------------------------
 BYTE   W96
//  #06 //025   ----------------------------------------
 BYTE   W96
//  #06 //026   ----------------------------------------
 BYTE   W96
//  #06 //027   ----------------------------------------
 BYTE   W96
//  #06 //028   ----------------------------------------
 BYTE   W96
//  #06 //029   ----------------------------------------
 BYTE   W96
//  #06 //030   ----------------------------------------
 BYTE   W96
//  #06 //031   ----------------------------------------
 BYTE   W96
//  #06 //032   ----------------------------------------
 BYTE   W96
//  #06 //033   ----------------------------------------
 BYTE   W96
//  #06 //034   ----------------------------------------
 BYTE   W96
//  #06 //035   ----------------------------------------
 BYTE   W96
//  #06 //036   ----------------------------------------
 BYTE   W96
//  #06 //037   ----------------------------------------
 BYTE   W96
//  #06 //038   ----------------------------------------
 BYTE   W96
//  #06 //039   ----------------------------------------
 BYTE   W96
//  #06 //040   ----------------------------------------
 BYTE   W96
//  #06 //041   ----------------------------------------
 BYTE   W24
 BYTE   VOL   40*PokemonMysteryDungeonExplorersofSkyInTheMorningSun_mvl/mxv
 BYTE   W48
 BYTE   N12  Gn4  v127
 BYTE   W12
 BYTE   An4
 BYTE   W12
//  #06 //042   ----------------------------------------
 BYTE   As4
 BYTE   W12
 BYTE   Cn5
 BYTE   W12
 BYTE   Dn5
 BYTE   W12
 BYTE   Dn5  v060
 BYTE   W12
 BYTE   As4  v127
 BYTE   W12
 BYTE   N36
 BYTE   W36
//  #06 //043   ----------------------------------------
 BYTE   N24  As4  v060
 BYTE   W24
 BYTE   N12  Fn5  v127
 BYTE   W12
 BYTE   Fn5  v060
 BYTE   W12
 BYTE   Cn5  v127
 BYTE   W12
 BYTE   N36
 BYTE   W36
//  #06 //044   ----------------------------------------
 BYTE   N24  Cn5  v060
 BYTE   W24
 BYTE   Gn5  v127
 BYTE   W24
 BYTE   N12  Dn5
 BYTE   W12
 BYTE   N24
 BYTE   W24
 BYTE   N12  Cn5
 BYTE   W12
//  #06 //045   ----------------------------------------
 BYTE   Cn5  v060
 BYTE   W12
 BYTE   N60  Dn5  v127
 BYTE   W24
 BYTE   VOL   40*PokemonMysteryDungeonExplorersofSkyInTheMorningSun_mvl/mxv
 BYTE   W06
 BYTE   VOL   37*PokemonMysteryDungeonExplorersofSkyInTheMorningSun_mvl/mxv
 BYTE   W06
 BYTE   VOL   34*PokemonMysteryDungeonExplorersofSkyInTheMorningSun_mvl/mxv
 BYTE   W06
 BYTE   VOL   30*PokemonMysteryDungeonExplorersofSkyInTheMorningSun_mvl/mxv
 BYTE   W06
 BYTE   VOL   28*PokemonMysteryDungeonExplorersofSkyInTheMorningSun_mvl/mxv
 BYTE   W06
 BYTE   VOL   26*PokemonMysteryDungeonExplorersofSkyInTheMorningSun_mvl/mxv
 BYTE   W06
 BYTE   VOL   23*PokemonMysteryDungeonExplorersofSkyInTheMorningSun_mvl/mxv
 BYTE   N24  Dn5  v060
 BYTE   W06
 BYTE   VOL   21*PokemonMysteryDungeonExplorersofSkyInTheMorningSun_mvl/mxv
 BYTE   W06
 BYTE   VOL   18*PokemonMysteryDungeonExplorersofSkyInTheMorningSun_mvl/mxv
 BYTE   W06
 BYTE   VOL   17*PokemonMysteryDungeonExplorersofSkyInTheMorningSun_mvl/mxv
 BYTE   W06
//  #06 //046   ----------------------------------------
 BYTE   VOL   40*PokemonMysteryDungeonExplorersofSkyInTheMorningSun_mvl/mxv
 BYTE   N24  Dn5  v127
 BYTE   W24
 BYTE   TIE  Ds5
 BYTE   W42
 BYTE   VOL   40*PokemonMysteryDungeonExplorersofSkyInTheMorningSun_mvl/mxv
 BYTE   W06
 BYTE   VOL   39*PokemonMysteryDungeonExplorersofSkyInTheMorningSun_mvl/mxv
 BYTE   W06
 BYTE   VOL   38*PokemonMysteryDungeonExplorersofSkyInTheMorningSun_mvl/mxv
 BYTE   W06
 BYTE   VOL   38*PokemonMysteryDungeonExplorersofSkyInTheMorningSun_mvl/mxv
 BYTE   W06
 BYTE   VOL   37*PokemonMysteryDungeonExplorersofSkyInTheMorningSun_mvl/mxv
 BYTE   W06
//  #06 //047   ----------------------------------------
 BYTE   W06
 BYTE   VOL   37*PokemonMysteryDungeonExplorersofSkyInTheMorningSun_mvl/mxv
 BYTE   W06
 BYTE   VOL   37*PokemonMysteryDungeonExplorersofSkyInTheMorningSun_mvl/mxv
 BYTE   W06
 BYTE   VOL   36*PokemonMysteryDungeonExplorersofSkyInTheMorningSun_mvl/mxv
 BYTE   W06
 BYTE   VOL   35*PokemonMysteryDungeonExplorersofSkyInTheMorningSun_mvl/mxv
 BYTE   W06
 BYTE   VOL   34*PokemonMysteryDungeonExplorersofSkyInTheMorningSun_mvl/mxv
 BYTE   W06
 BYTE   VOL   34*PokemonMysteryDungeonExplorersofSkyInTheMorningSun_mvl/mxv
 BYTE   W06
 BYTE   VOL   34*PokemonMysteryDungeonExplorersofSkyInTheMorningSun_mvl/mxv
 BYTE   W06
 BYTE   VOL   33*PokemonMysteryDungeonExplorersofSkyInTheMorningSun_mvl/mxv
 BYTE   W06
 BYTE   VOL   33*PokemonMysteryDungeonExplorersofSkyInTheMorningSun_mvl/mxv
 BYTE   W06
 BYTE   VOL   32*PokemonMysteryDungeonExplorersofSkyInTheMorningSun_mvl/mxv
 BYTE   W12
 BYTE   VOL   31*PokemonMysteryDungeonExplorersofSkyInTheMorningSun_mvl/mxv
 BYTE   W06
 BYTE   VOL   30*PokemonMysteryDungeonExplorersofSkyInTheMorningSun_mvl/mxv
 BYTE   W06
 BYTE   VOL   30*PokemonMysteryDungeonExplorersofSkyInTheMorningSun_mvl/mxv
 BYTE   W06
 BYTE   VOL   30*PokemonMysteryDungeonExplorersofSkyInTheMorningSun_mvl/mxv
 BYTE   W06
//  #06 //048   ----------------------------------------
 BYTE   VOL   30*PokemonMysteryDungeonExplorersofSkyInTheMorningSun_mvl/mxv
 BYTE   W06
 BYTE   VOL   29*PokemonMysteryDungeonExplorersofSkyInTheMorningSun_mvl/mxv
 BYTE   W06
 BYTE   VOL   29*PokemonMysteryDungeonExplorersofSkyInTheMorningSun_mvl/mxv
 BYTE   W06
 BYTE   VOL   28*PokemonMysteryDungeonExplorersofSkyInTheMorningSun_mvl/mxv
 BYTE   W06
 BYTE   VOL   28*PokemonMysteryDungeonExplorersofSkyInTheMorningSun_mvl/mxv
 BYTE   W12
 BYTE   VOL   28*PokemonMysteryDungeonExplorersofSkyInTheMorningSun_mvl/mxv
 BYTE   W06
 BYTE   VOL   27*PokemonMysteryDungeonExplorersofSkyInTheMorningSun_mvl/mxv
 BYTE   W06
 BYTE   VOL   27*PokemonMysteryDungeonExplorersofSkyInTheMorningSun_mvl/mxv
 BYTE   W06
 BYTE   VOL   26*PokemonMysteryDungeonExplorersofSkyInTheMorningSun_mvl/mxv
 BYTE   W06
 BYTE   VOL   26*PokemonMysteryDungeonExplorersofSkyInTheMorningSun_mvl/mxv
 BYTE   W06
 BYTE   VOL   28*PokemonMysteryDungeonExplorersofSkyInTheMorningSun_mvl/mxv
 BYTE   W06
 BYTE   VOL   29*PokemonMysteryDungeonExplorersofSkyInTheMorningSun_mvl/mxv
 BYTE   W06
 BYTE   VOL   30*PokemonMysteryDungeonExplorersofSkyInTheMorningSun_mvl/mxv
 BYTE   W06
 BYTE   VOL   32*PokemonMysteryDungeonExplorersofSkyInTheMorningSun_mvl/mxv
 BYTE   W06
 BYTE   VOL   34*PokemonMysteryDungeonExplorersofSkyInTheMorningSun_mvl/mxv
 BYTE   W06
//  #06 //049   ----------------------------------------
 BYTE   EOT
 BYTE   VOL   35*PokemonMysteryDungeonExplorersofSkyInTheMorningSun_mvl/mxv
 BYTE   N24  Ds5  v060
 BYTE   W06
 BYTE   VOL   37*PokemonMysteryDungeonExplorersofSkyInTheMorningSun_mvl/mxv
 BYTE   W06
 BYTE   VOL   39*PokemonMysteryDungeonExplorersofSkyInTheMorningSun_mvl/mxv
 BYTE   W12
 BYTE   N24  Ds5  v127
 BYTE   W24
 BYTE   N12  Dn5
 BYTE   W12
 BYTE   Cn5
 BYTE   W12
 BYTE   Cn5  v060
 BYTE   W12
 BYTE   Ds5  v127
 BYTE   W12
//  #06 //050   ----------------------------------------
 BYTE   Ds5  v060
 BYTE   W12
 BYTE   TIE  Dn5  v127
 BYTE   W24
 BYTE   VOL   39*PokemonMysteryDungeonExplorersofSkyInTheMorningSun_mvl/mxv
 BYTE   W12
 BYTE   VOL   38*PokemonMysteryDungeonExplorersofSkyInTheMorningSun_mvl/mxv
 BYTE   W12
 BYTE   VOL   38*PokemonMysteryDungeonExplorersofSkyInTheMorningSun_mvl/mxv
 BYTE   W06
 BYTE   VOL   37*PokemonMysteryDungeonExplorersofSkyInTheMorningSun_mvl/mxv
 BYTE   W18
 BYTE   VOL   37*PokemonMysteryDungeonExplorersofSkyInTheMorningSun_mvl/mxv
 BYTE   W12
//  #06 //051   ----------------------------------------
 BYTE   VOL   37*PokemonMysteryDungeonExplorersofSkyInTheMorningSun_mvl/mxv
 BYTE   W06
 BYTE   VOL   36*PokemonMysteryDungeonExplorersofSkyInTheMorningSun_mvl/mxv
 BYTE   W12
 BYTE   VOL   35*PokemonMysteryDungeonExplorersofSkyInTheMorningSun_mvl/mxv
 BYTE   W12
 BYTE   VOL   34*PokemonMysteryDungeonExplorersofSkyInTheMorningSun_mvl/mxv
 BYTE   W12
 BYTE   VOL   34*PokemonMysteryDungeonExplorersofSkyInTheMorningSun_mvl/mxv
 BYTE   W12
 BYTE   VOL   34*PokemonMysteryDungeonExplorersofSkyInTheMorningSun_mvl/mxv
 BYTE   W06
 BYTE   VOL   33*PokemonMysteryDungeonExplorersofSkyInTheMorningSun_mvl/mxv
 BYTE   W12
 BYTE   VOL   33*PokemonMysteryDungeonExplorersofSkyInTheMorningSun_mvl/mxv
 BYTE   W24
//  #06 //052   ----------------------------------------
 BYTE   W18
 BYTE   VOL   31*PokemonMysteryDungeonExplorersofSkyInTheMorningSun_mvl/mxv
 BYTE   W06
 BYTE   VOL   30*PokemonMysteryDungeonExplorersofSkyInTheMorningSun_mvl/mxv
 BYTE   W06
 BYTE   VOL   29*PokemonMysteryDungeonExplorersofSkyInTheMorningSun_mvl/mxv
 BYTE   W06
 BYTE   VOL   28*PokemonMysteryDungeonExplorersofSkyInTheMorningSun_mvl/mxv
 BYTE   W06
 BYTE   VOL   27*PokemonMysteryDungeonExplorersofSkyInTheMorningSun_mvl/mxv
 BYTE   W06
 BYTE   VOL   26*PokemonMysteryDungeonExplorersofSkyInTheMorningSun_mvl/mxv
 BYTE   W06
 BYTE   VOL   24*PokemonMysteryDungeonExplorersofSkyInTheMorningSun_mvl/mxv
 BYTE   W06
 BYTE   VOL   23*PokemonMysteryDungeonExplorersofSkyInTheMorningSun_mvl/mxv
 BYTE   W06
 BYTE   VOL   22*PokemonMysteryDungeonExplorersofSkyInTheMorningSun_mvl/mxv
 BYTE   W06
 BYTE   VOL   22*PokemonMysteryDungeonExplorersofSkyInTheMorningSun_mvl/mxv
 BYTE   W06
 BYTE   VOL   20*PokemonMysteryDungeonExplorersofSkyInTheMorningSun_mvl/mxv
 BYTE   W06
 BYTE   VOL   19*PokemonMysteryDungeonExplorersofSkyInTheMorningSun_mvl/mxv
 BYTE   W06
 BYTE   VOL   18*PokemonMysteryDungeonExplorersofSkyInTheMorningSun_mvl/mxv
 BYTE   W06
//  #06 //053   ----------------------------------------
 BYTE   VOL   18*PokemonMysteryDungeonExplorersofSkyInTheMorningSun_mvl/mxv
 BYTE   W06
 BYTE   VOL   17*PokemonMysteryDungeonExplorersofSkyInTheMorningSun_mvl/mxv
 BYTE   W06
 BYTE   VOL   15*PokemonMysteryDungeonExplorersofSkyInTheMorningSun_mvl/mxv
 BYTE   W12
 BYTE   EOT
 BYTE   W72
//  #06 //054   ----------------------------------------
Label_016873DD:
 BYTE   VOL   40*PokemonMysteryDungeonExplorersofSkyInTheMorningSun_mvl/mxv
 BYTE   N12  Bn3  v127
 BYTE   W12
 BYTE   Bn3  v060
 BYTE   W12
 BYTE   N36  Fs4  v127
 BYTE   W36
 BYTE   N12  Fs4  v060
 BYTE   W12
 BYTE   Fs4  v127
 BYTE   W12
 BYTE   Fs4  v060
 BYTE   W12
 BYTE   PEND 
//  #06 //055   ----------------------------------------
Label_016873F5:
 BYTE   N12  Gn4  v127
 BYTE   W12
 BYTE   N48  An4
 BYTE   W48
 BYTE   N12  An4  v060
 BYTE   W12
 BYTE   An4  v127
 BYTE   W12
 BYTE   An4  v060
 BYTE   W12
 BYTE   PEND 
//  #06 //056   ----------------------------------------
 BYTE   Cs5  v127
 BYTE   W12
 BYTE   TIE  Dn5
 BYTE   W54
 BYTE   VOL   39*PokemonMysteryDungeonExplorersofSkyInTheMorningSun_mvl/mxv
 BYTE   W06
 BYTE   VOL   37*PokemonMysteryDungeonExplorersofSkyInTheMorningSun_mvl/mxv
 BYTE   W06
 BYTE   VOL   35*PokemonMysteryDungeonExplorersofSkyInTheMorningSun_mvl/mxv
 BYTE   W06
 BYTE   VOL   34*PokemonMysteryDungeonExplorersofSkyInTheMorningSun_mvl/mxv
 BYTE   W06
 BYTE   VOL   32*PokemonMysteryDungeonExplorersofSkyInTheMorningSun_mvl/mxv
 BYTE   W06
//  #06 //057   ----------------------------------------
 BYTE   VOL   30*PokemonMysteryDungeonExplorersofSkyInTheMorningSun_mvl/mxv
 BYTE   W06
 BYTE   VOL   29*PokemonMysteryDungeonExplorersofSkyInTheMorningSun_mvl/mxv
 BYTE   W06
 BYTE   VOL   27*PokemonMysteryDungeonExplorersofSkyInTheMorningSun_mvl/mxv
 BYTE   W06
 BYTE   VOL   26*PokemonMysteryDungeonExplorersofSkyInTheMorningSun_mvl/mxv
 BYTE   W06
 BYTE   VOL   23*PokemonMysteryDungeonExplorersofSkyInTheMorningSun_mvl/mxv
 BYTE   W06
 BYTE   VOL   22*PokemonMysteryDungeonExplorersofSkyInTheMorningSun_mvl/mxv
 BYTE   W06
 BYTE   VOL   21*PokemonMysteryDungeonExplorersofSkyInTheMorningSun_mvl/mxv
 BYTE   W06
 BYTE   VOL   19*PokemonMysteryDungeonExplorersofSkyInTheMorningSun_mvl/mxv
 BYTE   W06
 BYTE   VOL   18*PokemonMysteryDungeonExplorersofSkyInTheMorningSun_mvl/mxv
 BYTE   W06
 BYTE   VOL   17*PokemonMysteryDungeonExplorersofSkyInTheMorningSun_mvl/mxv
 BYTE   W06
 BYTE   VOL   15*PokemonMysteryDungeonExplorersofSkyInTheMorningSun_mvl/mxv
 BYTE   W06
 BYTE   VOL   14*PokemonMysteryDungeonExplorersofSkyInTheMorningSun_mvl/mxv
 BYTE   W06
 BYTE   EOT
 BYTE   VOL   13*PokemonMysteryDungeonExplorersofSkyInTheMorningSun_mvl/mxv
 BYTE   N24  Dn5  v060
 BYTE   W24
//  #06 //058   ----------------------------------------
 BYTE   VOL   40*PokemonMysteryDungeonExplorersofSkyInTheMorningSun_mvl/mxv
 BYTE   N12  Bn4  v127
 BYTE   W12
 BYTE   Bn4  v060
 BYTE   W12
 BYTE   N24  Fs5  v127
 BYTE   W24
 BYTE   N12  En5
 BYTE   W12
 BYTE   N24
 BYTE   W24
 BYTE   N12  En5  v060
 BYTE   W12
//  #06 //059   ----------------------------------------
Label_0168744D:
 BYTE   N12  Bn4  v127
 BYTE   W24
 BYTE   N24  Fs5
 BYTE   W24
 BYTE   N12  En5
 BYTE   W12
 BYTE   N24
 BYTE   W24
 BYTE   N12  En5  v060
 BYTE   W12
 BYTE   PEND 
//  #06 //060   ----------------------------------------
 BYTE   Bn4  v127
 BYTE   W24
 BYTE   N24  Gn5
 BYTE   W24
 BYTE   N12  Fs5
 BYTE   W12
 BYTE   N24
 BYTE   W24
 BYTE   N12  En5
 BYTE   W12
//  #06 //061   ----------------------------------------
 BYTE   En5  v060
 BYTE   W12
 BYTE   N60  Fs5  v127
 BYTE   W30
 BYTE   VOL   40*PokemonMysteryDungeonExplorersofSkyInTheMorningSun_mvl/mxv
 BYTE   W03
 BYTE   VOL   38*PokemonMysteryDungeonExplorersofSkyInTheMorningSun_mvl/mxv
 BYTE   W03
 BYTE   VOL   36*PokemonMysteryDungeonExplorersofSkyInTheMorningSun_mvl/mxv
 BYTE   W03
 BYTE   VOL   34*PokemonMysteryDungeonExplorersofSkyInTheMorningSun_mvl/mxv
 BYTE   W03
 BYTE   VOL   31*PokemonMysteryDungeonExplorersofSkyInTheMorningSun_mvl/mxv
 BYTE   W03
 BYTE   VOL   30*PokemonMysteryDungeonExplorersofSkyInTheMorningSun_mvl/mxv
 BYTE   W03
 BYTE   VOL   28*PokemonMysteryDungeonExplorersofSkyInTheMorningSun_mvl/mxv
 BYTE   W03
 BYTE   VOL   27*PokemonMysteryDungeonExplorersofSkyInTheMorningSun_mvl/mxv
 BYTE   W03
 BYTE   VOL   24*PokemonMysteryDungeonExplorersofSkyInTheMorningSun_mvl/mxv
 BYTE   W03
 BYTE   VOL   23*PokemonMysteryDungeonExplorersofSkyInTheMorningSun_mvl/mxv
 BYTE   W03
 BYTE   VOL   22*PokemonMysteryDungeonExplorersofSkyInTheMorningSun_mvl/mxv
 BYTE   N24  Fs5  v060
 BYTE   W03
 BYTE   VOL   20*PokemonMysteryDungeonExplorersofSkyInTheMorningSun_mvl/mxv
 BYTE   W03
 BYTE   VOL   18*PokemonMysteryDungeonExplorersofSkyInTheMorningSun_mvl/mxv
 BYTE   W03
 BYTE   VOL   17*PokemonMysteryDungeonExplorersofSkyInTheMorningSun_mvl/mxv
 BYTE   W03
 BYTE   VOL   15*PokemonMysteryDungeonExplorersofSkyInTheMorningSun_mvl/mxv
 BYTE   W03
 BYTE   VOL   14*PokemonMysteryDungeonExplorersofSkyInTheMorningSun_mvl/mxv
 BYTE   W09
//  #06 //062   ----------------------------------------
 BYTE   PATT
  POIN2 Label_016873DD
//  #06 //063   ----------------------------------------
 BYTE   PATT
  POIN2 Label_016873F5
//  #06 //064   ----------------------------------------
 BYTE   N12  Cs5  v127
 BYTE   W12
 BYTE   N60  Dn5
 BYTE   W60
 BYTE   N12  Cs5
 BYTE   W12
 BYTE   Cs5  v060
 BYTE   W12
//  #06 //065   ----------------------------------------
 BYTE   Dn5  v127
 BYTE   W12
 BYTE   N60  Fs5
 BYTE   W60
 BYTE   N24  Fs5  v060
 BYTE   W24
//  #06 //066   ----------------------------------------
 BYTE   PATT
  POIN2 Label_0168744D
//  #06 //067   ----------------------------------------
 BYTE   N12  Bn4  v127
 BYTE   W12
 BYTE   Bn4  v060
 BYTE   W12
 BYTE   N24  Fs5  v127
 BYTE   W24
 BYTE   N12  En5
 BYTE   W12
 BYTE   N24
 BYTE   W24
 BYTE   N12  Dn5
 BYTE   W12
//  #06 //068   ----------------------------------------
 BYTE   Dn5  v060
 BYTE   W12
 BYTE   N84  En5  v127
 BYTE   W36
 BYTE   VOL   40*PokemonMysteryDungeonExplorersofSkyInTheMorningSun_mvl/mxv
 BYTE   W06
 BYTE   VOL   37*PokemonMysteryDungeonExplorersofSkyInTheMorningSun_mvl/mxv
 BYTE   W06
 BYTE   VOL   34*PokemonMysteryDungeonExplorersofSkyInTheMorningSun_mvl/mxv
 BYTE   W06
 BYTE   VOL   30*PokemonMysteryDungeonExplorersofSkyInTheMorningSun_mvl/mxv
 BYTE   W06
 BYTE   VOL   28*PokemonMysteryDungeonExplorersofSkyInTheMorningSun_mvl/mxv
 BYTE   W06
 BYTE   VOL   26*PokemonMysteryDungeonExplorersofSkyInTheMorningSun_mvl/mxv
 BYTE   W06
 BYTE   VOL   23*PokemonMysteryDungeonExplorersofSkyInTheMorningSun_mvl/mxv
 BYTE   W06
 BYTE   VOL   21*PokemonMysteryDungeonExplorersofSkyInTheMorningSun_mvl/mxv
 BYTE   W06
//  #06 //069   ----------------------------------------
 BYTE   VOL   18*PokemonMysteryDungeonExplorersofSkyInTheMorningSun_mvl/mxv
 BYTE   N24  En5  v060
 BYTE   W06
 BYTE   VOL   16*PokemonMysteryDungeonExplorersofSkyInTheMorningSun_mvl/mxv
 BYTE   W06
 BYTE   VOL   14*PokemonMysteryDungeonExplorersofSkyInTheMorningSun_mvl/mxv
 BYTE   W06
 BYTE   VOL   12*PokemonMysteryDungeonExplorersofSkyInTheMorningSun_mvl/mxv
 BYTE   W78
//  #06 //070   ----------------------------------------
 BYTE   W96
//  #06 //071   ----------------------------------------
 BYTE   W96
//  #06 //072   ----------------------------------------
 BYTE   W96
//  #06 //073   ----------------------------------------
 BYTE   W96
//  #06 //074   ----------------------------------------
 BYTE   W96
//  #06 //075   ----------------------------------------
 BYTE   W96
//  #06 //076   ----------------------------------------
 BYTE   W96
//  #06 //077   ----------------------------------------
 BYTE   W24
 BYTE   VOL   40*PokemonMysteryDungeonExplorersofSkyInTheMorningSun_mvl/mxv
 BYTE   W72
//  #06 //078   ----------------------------------------
 BYTE   N24  Dn4  v127
 BYTE   W24
 BYTE   N36  An4
 BYTE   W36
 BYTE   N12  An4  v060
 BYTE   W12
 BYTE   N24  An4  v127
 BYTE   W24
//  #06 //079   ----------------------------------------
 BYTE   N12  Bn4
 BYTE   W12
 BYTE   N36  An4
 BYTE   W36
 BYTE   N24  An4  v060
 BYTE   W24
 BYTE   N48  Gn4  v127
 BYTE   W24
//  #06 //080   ----------------------------------------
 BYTE   W24
 BYTE   N36  Fs4
 BYTE   W36
 BYTE   N12  Fs4  v060
 BYTE   W12
 BYTE   N36  Bn4  v127
 BYTE   W24
//  #06 //081   ----------------------------------------
 BYTE   W12
 BYTE   N12  Bn4  v060
 BYTE   W12
 BYTE   N36  Dn5  v127
 BYTE   W36
 BYTE   N12  Dn5  v060
 BYTE   W12
 BYTE   N36  En5  v127
 BYTE   W24
//  #06 //082   ----------------------------------------
 BYTE   W12
 BYTE   N12  En5  v060
 BYTE   W12
 BYTE   N60  Fs5  v127
 BYTE   W60
 BYTE   N12  Fs5  v060
 BYTE   W12
//  #06 //083   ----------------------------------------
Label_01687546:
 BYTE   N12  En5  v127
 BYTE   W12
 BYTE   N84
 BYTE   W84
 BYTE   PEND 
//  #06 //084   ----------------------------------------
 BYTE   N24  En5  v060
 BYTE   W24
 BYTE   N60  Fs5  v127
 BYTE   W60
 BYTE   N12  Fs5  v060
 BYTE   W12
//  #06 //085   ----------------------------------------
 BYTE   PATT
  POIN2 Label_01687546
//  #06 //086   ----------------------------------------
 BYTE   N24  En5  v060
 BYTE   W24
 BYTE   TIE  An5  v127
 BYTE   W72
//  #06 //087   ----------------------------------------
 BYTE   W72
 BYTE   EOT
 BYTE   N24  An5  v060
 BYTE   W24
//  #06 //088   ----------------------------------------
 BYTE   An5  v036
 BYTE   W24
 BYTE   GoTo
  POIN2 Label_016872C0
 BYTE   FINE

//**************** Track 7 (Midi-Chn.6) ****************//

PokemonMysteryDungeonExplorersofSkyInTheMorningSun_007:
//  #07 //000   ----------------------------------------
 BYTE   KEYSH   PokemonMysteryDungeonExplorersofSkyInTheMorningSun_key+0
 BYTE   VOICE   10
 BYTE   MODT 0
 BYTE   LFOS 44
 BYTE   VOL   24*PokemonMysteryDungeonExplorersofSkyInTheMorningSun_mvl/mxv
 BYTE   PAN   c_v+0
 BYTE   VOL   24*PokemonMysteryDungeonExplorersofSkyInTheMorningSun_mvl/mxv
 BYTE   BEND   c_v+0
 BYTE   W24
 BYTE   N05  Fs5  v108
 BYTE   W12
 BYTE   Fs5  v044
 BYTE   W12
 BYTE   Fs5  v020
 BYTE   W12
 BYTE   En5  v108
 BYTE   W12
 BYTE   En5  v044
 BYTE   W12
 BYTE   En5  v020
 BYTE   W12
//  #07 //001   ----------------------------------------
Label_0168759C:
 BYTE   W12
 BYTE   N05  An5  v108
 BYTE   W12
 BYTE   An5  v044
 BYTE   W12
 BYTE   An5  v020
 BYTE   W12
 BYTE   An5  v064
 BYTE   W12
 BYTE   An5  v028
 BYTE   W12
 BYTE   An5  v016
 BYTE   W12
 BYTE   An5  v048
 BYTE   W12
 BYTE   PEND 
//  #07 //002   ----------------------------------------
Label_016875B4:
 BYTE   N05  An5  v028
 BYTE   W12
 BYTE   An5  v016
 BYTE   W12
 BYTE   Fs5  v108
 BYTE   N05  An5  v012
 BYTE   W12
 BYTE   Fs5  v044
 BYTE   W12
 BYTE   Fs5  v020
 BYTE   W12
 BYTE   En5  v108
 BYTE   W12
 BYTE   En5  v044
 BYTE   W12
 BYTE   En5  v020
 BYTE   W12
 BYTE   PEND 
//  #07 //003   ----------------------------------------
Label_016875D1:
 BYTE   N05  An4  v108
 BYTE   W12
 BYTE   An4  v044
 BYTE   W12
 BYTE   An4  v020
 BYTE   W12
 BYTE   An4  v064
 BYTE   W12
 BYTE   An4  v028
 BYTE   W12
 BYTE   An4  v016
 BYTE   W12
 BYTE   An4  v048
 BYTE   W12
 BYTE   An4  v028
 BYTE   W12
 BYTE   PEND 
//  #07 //004   ----------------------------------------
 BYTE   An4  v016
 BYTE   W12
 BYTE   An4  v012
 BYTE   W12
 BYTE   Fs5  v108
 BYTE   W12
 BYTE   Fs5  v044
 BYTE   W12
 BYTE   Fs5  v020
 BYTE   W12
 BYTE   En5  v108
 BYTE   W12
 BYTE   En5  v044
 BYTE   W12
 BYTE   En5  v020
 BYTE   W12
//  #07 //005   ----------------------------------------
 BYTE   PATT
  POIN2 Label_0168759C
//  #07 //006   ----------------------------------------
 BYTE   PATT
  POIN2 Label_016875B4
//  #07 //007   ----------------------------------------
 BYTE   PATT
  POIN2 Label_016875D1
//  #07 //008   ----------------------------------------
 BYTE   N05  An4  v016
 BYTE   W12
 BYTE   An4  v012
 BYTE   W84
//  #07 //009   ----------------------------------------
 BYTE   W96
//  #07 //010   ----------------------------------------
 BYTE   W96
//  #07 //011   ----------------------------------------
 BYTE   W96
//  #07 //012   ----------------------------------------
 BYTE   W96
//  #07 //013   ----------------------------------------
 BYTE   W96
//  #07 //014   ----------------------------------------
 BYTE   W96
//  #07 //015   ----------------------------------------
 BYTE   W96
//  #07 //016   ----------------------------------------
 BYTE   W96
//  #07 //017   ----------------------------------------
 BYTE   W96
//  #07 //018   ----------------------------------------
 BYTE   W24
Label_01687623:
 BYTE   BENDR  127
 BYTE   W12
 BYTE   N01  Fs5  v092
 BYTE   W12
 BYTE   En5
 BYTE   W12
 BYTE   Bn4
 BYTE   W12
 BYTE   Fs5
 BYTE   W12
 BYTE   En5
 BYTE   W12
//  #07 //019   ----------------------------------------
Label_01687632:
 BYTE   N01  Bn4  v092
 BYTE   W12
 BYTE   Fs5
 BYTE   W24
 BYTE   En5
 BYTE   W24
 BYTE   An5
 BYTE   W36
 BYTE   PEND 
//  #07 //020   ----------------------------------------
Label_0168763D:
 BYTE   W36
 BYTE   N01  Fs5  v092
 BYTE   W12
 BYTE   En5
 BYTE   W12
 BYTE   Bn4
 BYTE   W12
 BYTE   Fs5
 BYTE   W12
 BYTE   En5
 BYTE   W12
 BYTE   PEND 
//  #07 //021   ----------------------------------------
Label_0168764B:
 BYTE   N01  Bn4  v092
 BYTE   W12
 BYTE   Fs5
 BYTE   W24
 BYTE   En5
 BYTE   W24
 BYTE   An4
 BYTE   W36
 BYTE   PEND 
//  #07 //022   ----------------------------------------
 BYTE   PATT
  POIN2 Label_0168763D
//  #07 //023   ----------------------------------------
 BYTE   PATT
  POIN2 Label_0168764B
//  #07 //024   ----------------------------------------
 BYTE   PATT
  POIN2 Label_0168763D
//  #07 //025   ----------------------------------------
 BYTE   N01  Bn4  v092
 BYTE   W12
 BYTE   An5
 BYTE   W24
 BYTE   Gn5
 BYTE   W24
 BYTE   Fs5
 BYTE   W24
 BYTE   En5
 BYTE   W12
//  #07 //026   ----------------------------------------
 BYTE   PATT
  POIN2 Label_0168763D
//  #07 //027   ----------------------------------------
 BYTE   PATT
  POIN2 Label_01687632
//  #07 //028   ----------------------------------------
 BYTE   PATT
  POIN2 Label_0168763D
//  #07 //029   ----------------------------------------
 BYTE   PATT
  POIN2 Label_0168764B
//  #07 //030   ----------------------------------------
 BYTE   PATT
  POIN2 Label_0168763D
//  #07 //031   ----------------------------------------
 BYTE   PATT
  POIN2 Label_0168764B
//  #07 //032   ----------------------------------------
 BYTE   PATT
  POIN2 Label_0168763D
//  #07 //033   ----------------------------------------
 BYTE   W12
 BYTE   N01  Bn4  v092
 BYTE   W84
//  #07 //034   ----------------------------------------
 BYTE   W96
//  #07 //035   ----------------------------------------
 BYTE   W96
//  #07 //036   ----------------------------------------
 BYTE   W96
//  #07 //037   ----------------------------------------
 BYTE   W96
//  #07 //038   ----------------------------------------
 BYTE   W96
//  #07 //039   ----------------------------------------
 BYTE   W96
//  #07 //040   ----------------------------------------
 BYTE   W96
//  #07 //041   ----------------------------------------
 BYTE   W96
//  #07 //042   ----------------------------------------
 BYTE   W96
//  #07 //043   ----------------------------------------
 BYTE   W96
//  #07 //044   ----------------------------------------
 BYTE   W96
//  #07 //045   ----------------------------------------
 BYTE   W96
//  #07 //046   ----------------------------------------
 BYTE   W96
//  #07 //047   ----------------------------------------
 BYTE   W96
//  #07 //048   ----------------------------------------
 BYTE   W96
//  #07 //049   ----------------------------------------
 BYTE   W96
//  #07 //050   ----------------------------------------
 BYTE   W96
//  #07 //051   ----------------------------------------
 BYTE   W96
//  #07 //052   ----------------------------------------
 BYTE   W96
//  #07 //053   ----------------------------------------
 BYTE   W96
//  #07 //054   ----------------------------------------
Label_016876AD:
 BYTE   W36
 BYTE   N01  Fs5  v100
 BYTE   W12
 BYTE   En5
 BYTE   W12
 BYTE   Bn4
 BYTE   W12
 BYTE   Fs5
 BYTE   W12
 BYTE   En5
 BYTE   W12
 BYTE   PEND 
//  #07 //055   ----------------------------------------
Label_016876BB:
 BYTE   N01  Bn4  v100
 BYTE   W12
 BYTE   Fs5
 BYTE   W24
 BYTE   En5
 BYTE   W24
 BYTE   An5
 BYTE   W36
 BYTE   PEND 
//  #07 //056   ----------------------------------------
 BYTE   PATT
  POIN2 Label_016876AD
//  #07 //057   ----------------------------------------
Label_016876CB:
 BYTE   N01  Bn4  v100
 BYTE   W12
 BYTE   Fs5
 BYTE   W24
 BYTE   En5
 BYTE   W24
 BYTE   An4
 BYTE   W36
 BYTE   PEND 
//  #07 //058   ----------------------------------------
 BYTE   PATT
  POIN2 Label_016876AD
//  #07 //059   ----------------------------------------
 BYTE   PATT
  POIN2 Label_016876CB
//  #07 //060   ----------------------------------------
 BYTE   PATT
  POIN2 Label_016876AD
//  #07 //061   ----------------------------------------
Label_016876E5:
 BYTE   N01  Bn4  v100
 BYTE   W12
 BYTE   An5
 BYTE   W24
 BYTE   Gn5
 BYTE   W24
 BYTE   Fs5
 BYTE   W24
 BYTE   En5
 BYTE   W12
 BYTE   PEND 
//  #07 //062   ----------------------------------------
 BYTE   PATT
  POIN2 Label_016876AD
//  #07 //063   ----------------------------------------
 BYTE   PATT
  POIN2 Label_016876BB
//  #07 //064   ----------------------------------------
 BYTE   PATT
  POIN2 Label_016876AD
//  #07 //065   ----------------------------------------
 BYTE   PATT
  POIN2 Label_016876CB
//  #07 //066   ----------------------------------------
 BYTE   PATT
  POIN2 Label_016876AD
//  #07 //067   ----------------------------------------
 BYTE   N01  Bn4  v100
 BYTE   W12
 BYTE   Fs5
 BYTE   W24
 BYTE   En5
 BYTE   W24
 BYTE   Bn4
 BYTE   W36
//  #07 //068   ----------------------------------------
 BYTE   PATT
  POIN2 Label_016876AD
//  #07 //069   ----------------------------------------
 BYTE   W12
 BYTE   N01  An5  v100
 BYTE   W84
//  #07 //070   ----------------------------------------
 BYTE   PATT
  POIN2 Label_016876AD
//  #07 //071   ----------------------------------------
 BYTE   PATT
  POIN2 Label_016876BB
//  #07 //072   ----------------------------------------
 BYTE   PATT
  POIN2 Label_016876AD
//  #07 //073   ----------------------------------------
 BYTE   PATT
  POIN2 Label_016876CB
//  #07 //074   ----------------------------------------
 BYTE   PATT
  POIN2 Label_016876AD
//  #07 //075   ----------------------------------------
 BYTE   PATT
  POIN2 Label_016876CB
//  #07 //076   ----------------------------------------
 BYTE   PATT
  POIN2 Label_016876AD
//  #07 //077   ----------------------------------------
 BYTE   PATT
  POIN2 Label_016876E5
//  #07 //078   ----------------------------------------
 BYTE   PATT
  POIN2 Label_016876AD
//  #07 //079   ----------------------------------------
 BYTE   PATT
  POIN2 Label_016876BB
//  #07 //080   ----------------------------------------
 BYTE   PATT
  POIN2 Label_016876AD
//  #07 //081   ----------------------------------------
 BYTE   PATT
  POIN2 Label_016876CB
//  #07 //082   ----------------------------------------
 BYTE   PATT
  POIN2 Label_016876AD
//  #07 //083   ----------------------------------------
 BYTE   PATT
  POIN2 Label_016876BB
//  #07 //084   ----------------------------------------
 BYTE   PATT
  POIN2 Label_016876AD
//  #07 //085   ----------------------------------------
 BYTE   W12
 BYTE   N01  Fs5  v100
 BYTE   W84
//  #07 //086   ----------------------------------------
 BYTE   W96
//  #07 //087   ----------------------------------------
 BYTE   W96
//  #07 //088   ----------------------------------------
 BYTE   W24
 BYTE   GoTo
  POIN2 Label_01687623
 BYTE   FINE

//**************** Track 8 (Midi-Chn.7) ****************//

PokemonMysteryDungeonExplorersofSkyInTheMorningSun_008:
//  #08 //000   ----------------------------------------
 BYTE   KEYSH   PokemonMysteryDungeonExplorersofSkyInTheMorningSun_key+0
 BYTE   VOICE   74
 BYTE   MODT 0
 BYTE   LFOS 44
 BYTE   VOL   48*PokemonMysteryDungeonExplorersofSkyInTheMorningSun_mvl/mxv
 BYTE   PAN   c_v+10
 BYTE   VOL   48*PokemonMysteryDungeonExplorersofSkyInTheMorningSun_mvl/mxv
 BYTE   BEND   c_v+0
 BYTE   W96
//  #08 //001   ----------------------------------------
 BYTE   W96
//  #08 //002   ----------------------------------------
 BYTE   W96
//  #08 //003   ----------------------------------------
 BYTE   W96
//  #08 //004   ----------------------------------------
 BYTE   W96
//  #08 //005   ----------------------------------------
 BYTE   W96
//  #08 //006   ----------------------------------------
 BYTE   W96
//  #08 //007   ----------------------------------------
 BYTE   W96
//  #08 //008   ----------------------------------------
 BYTE   W96
//  #08 //009   ----------------------------------------
 BYTE   W96
//  #08 //010   ----------------------------------------
 BYTE   W96
//  #08 //011   ----------------------------------------
 BYTE   W96
//  #08 //012   ----------------------------------------
 BYTE   W96
//  #08 //013   ----------------------------------------
 BYTE   W96
//  #08 //014   ----------------------------------------
 BYTE   W96
//  #08 //015   ----------------------------------------
 BYTE   W96
//  #08 //016   ----------------------------------------
 BYTE   W24
 BYTE   VOL   15*PokemonMysteryDungeonExplorersofSkyInTheMorningSun_mvl/mxv
 BYTE   PAN   c_v-64
 BYTE   VOL   15*PokemonMysteryDungeonExplorersofSkyInTheMorningSun_mvl/mxv
 BYTE   BEND   c_v+0
 BYTE   W72
//  #08 //017   ----------------------------------------
 BYTE   W48
 BYTE   VOL   15*PokemonMysteryDungeonExplorersofSkyInTheMorningSun_mvl/mxv
 BYTE   W48
//  #08 //018   ----------------------------------------
 BYTE   W24
Label_016877A7:
 BYTE   N24  Fs4  v084
 BYTE   W24
 BYTE   N36  Cs5
 BYTE   W36
 BYTE   N12  Bn4
 BYTE   W12
//  #08 //019   ----------------------------------------
 BYTE   Bn4  v032
 BYTE   W12
 BYTE   Bn4  v016
 BYTE   W12
 BYTE   N72  Fs4  v084
 BYTE   W42
 BYTE   VOL   15*PokemonMysteryDungeonExplorersofSkyInTheMorningSun_mvl/mxv
 BYTE   W06
 BYTE   VOL   13*PokemonMysteryDungeonExplorersofSkyInTheMorningSun_mvl/mxv
 BYTE   W06
 BYTE   VOL   11*PokemonMysteryDungeonExplorersofSkyInTheMorningSun_mvl/mxv
 BYTE   W06
 BYTE   VOL   10*PokemonMysteryDungeonExplorersofSkyInTheMorningSun_mvl/mxv
 BYTE   W06
 BYTE   VOL   9*PokemonMysteryDungeonExplorersofSkyInTheMorningSun_mvl/mxv
 BYTE   W06
//  #08 //020   ----------------------------------------
 BYTE   VOL   8*PokemonMysteryDungeonExplorersofSkyInTheMorningSun_mvl/mxv
 BYTE   N24  Fs4  v032
 BYTE   W24
 BYTE   Fs4  v016
 BYTE   W24
 BYTE   VOL   15*PokemonMysteryDungeonExplorersofSkyInTheMorningSun_mvl/mxv
 BYTE   N36  En4  v084
 BYTE   W36
 BYTE   N12  An4
 BYTE   W12
//  #08 //021   ----------------------------------------
 BYTE   An4  v032
 BYTE   W12
 BYTE   An4  v016
 BYTE   W12
 BYTE   N72  Fs4  v084
 BYTE   W12
 BYTE   VOL   15*PokemonMysteryDungeonExplorersofSkyInTheMorningSun_mvl/mxv
 BYTE   W06
 BYTE   VOL   14*PokemonMysteryDungeonExplorersofSkyInTheMorningSun_mvl/mxv
 BYTE   W06
 BYTE   VOL   13*PokemonMysteryDungeonExplorersofSkyInTheMorningSun_mvl/mxv
 BYTE   W06
 BYTE   VOL   12*PokemonMysteryDungeonExplorersofSkyInTheMorningSun_mvl/mxv
 BYTE   W06
 BYTE   VOL   11*PokemonMysteryDungeonExplorersofSkyInTheMorningSun_mvl/mxv
 BYTE   W06
 BYTE   VOL   11*PokemonMysteryDungeonExplorersofSkyInTheMorningSun_mvl/mxv
 BYTE   W06
 BYTE   VOL   10*PokemonMysteryDungeonExplorersofSkyInTheMorningSun_mvl/mxv
 BYTE   W06
 BYTE   VOL   10*PokemonMysteryDungeonExplorersofSkyInTheMorningSun_mvl/mxv
 BYTE   W06
 BYTE   VOL   8*PokemonMysteryDungeonExplorersofSkyInTheMorningSun_mvl/mxv
 BYTE   W06
 BYTE   VOL   8*PokemonMysteryDungeonExplorersofSkyInTheMorningSun_mvl/mxv
 BYTE   W06
//  #08 //022   ----------------------------------------
 BYTE   VOL   7*PokemonMysteryDungeonExplorersofSkyInTheMorningSun_mvl/mxv
 BYTE   N12  Fs4  v032
 BYTE   W06
 BYTE   VOL   6*PokemonMysteryDungeonExplorersofSkyInTheMorningSun_mvl/mxv
 BYTE   W06
 BYTE   VOL   6*PokemonMysteryDungeonExplorersofSkyInTheMorningSun_mvl/mxv
 BYTE   N12  Fs4  v016
 BYTE   W12
 BYTE   VOL   15*PokemonMysteryDungeonExplorersofSkyInTheMorningSun_mvl/mxv
 BYTE   N24  Fs3  v084
 BYTE   W24
 BYTE   Bn3
 BYTE   W24
 BYTE   N12  Fs3
 BYTE   W12
 BYTE   N24  Cs4
 BYTE   W12
//  #08 //023   ----------------------------------------
 BYTE   W12
 BYTE   N12  Fs3
 BYTE   W12
 BYTE   Fs3  v032
 BYTE   W12
 BYTE   N24  Dn4  v084
 BYTE   W24
 BYTE   N12  Fs3
 BYTE   W12
 BYTE   Fs3  v032
 BYTE   W12
 BYTE   N24  En4  v084
 BYTE   W12
//  #08 //024   ----------------------------------------
 BYTE   W12
 BYTE   N12  An4
 BYTE   W12
 BYTE   An4  v032
 BYTE   W12
 BYTE   TIE  Fs4  v084
 BYTE   W30
 BYTE   VOL   14*PokemonMysteryDungeonExplorersofSkyInTheMorningSun_mvl/mxv
 BYTE   W06
 BYTE   VOL   14*PokemonMysteryDungeonExplorersofSkyInTheMorningSun_mvl/mxv
 BYTE   W06
 BYTE   VOL   13*PokemonMysteryDungeonExplorersofSkyInTheMorningSun_mvl/mxv
 BYTE   W06
 BYTE   VOL   11*PokemonMysteryDungeonExplorersofSkyInTheMorningSun_mvl/mxv
 BYTE   W06
 BYTE   VOL   11*PokemonMysteryDungeonExplorersofSkyInTheMorningSun_mvl/mxv
 BYTE   W06
//  #08 //025   ----------------------------------------
 BYTE   VOL   10*PokemonMysteryDungeonExplorersofSkyInTheMorningSun_mvl/mxv
 BYTE   W06
 BYTE   VOL   10*PokemonMysteryDungeonExplorersofSkyInTheMorningSun_mvl/mxv
 BYTE   W06
 BYTE   VOL   9*PokemonMysteryDungeonExplorersofSkyInTheMorningSun_mvl/mxv
 BYTE   W06
 BYTE   VOL   8*PokemonMysteryDungeonExplorersofSkyInTheMorningSun_mvl/mxv
 BYTE   W06
 BYTE   VOL   7*PokemonMysteryDungeonExplorersofSkyInTheMorningSun_mvl/mxv
 BYTE   W06
 BYTE   VOL   6*PokemonMysteryDungeonExplorersofSkyInTheMorningSun_mvl/mxv
 BYTE   W06
 BYTE   VOL   6*PokemonMysteryDungeonExplorersofSkyInTheMorningSun_mvl/mxv
 BYTE   W06
 BYTE   VOL   5*PokemonMysteryDungeonExplorersofSkyInTheMorningSun_mvl/mxv
 BYTE   W06
 BYTE   VOL   5*PokemonMysteryDungeonExplorersofSkyInTheMorningSun_mvl/mxv
 BYTE   W06
 BYTE   VOL   4*PokemonMysteryDungeonExplorersofSkyInTheMorningSun_mvl/mxv
 BYTE   W06
 BYTE   VOL   3*PokemonMysteryDungeonExplorersofSkyInTheMorningSun_mvl/mxv
 BYTE   W06
 BYTE   VOL   3*PokemonMysteryDungeonExplorersofSkyInTheMorningSun_mvl/mxv
 BYTE   W06
 BYTE   EOT
 BYTE   N12  Fs4  v032
 BYTE   W12
 BYTE   Fs4  v016
 BYTE   W12
//  #08 //026   ----------------------------------------
 BYTE   Fs4  v008
 BYTE   W12
 BYTE   Fs4  v004
 BYTE   W12
 BYTE   VOL   15*PokemonMysteryDungeonExplorersofSkyInTheMorningSun_mvl/mxv
 BYTE   N24  Fs5  v084
 BYTE   W24
 BYTE   N36  Cs6
 BYTE   W36
 BYTE   N12  Bn5
 BYTE   W12
//  #08 //027   ----------------------------------------
 BYTE   Bn5  v032
 BYTE   W12
 BYTE   Bn5  v016
 BYTE   W12
 BYTE   N72  Fs5  v084
 BYTE   W30
 BYTE   VOL   14*PokemonMysteryDungeonExplorersofSkyInTheMorningSun_mvl/mxv
 BYTE   W06
 BYTE   VOL   13*PokemonMysteryDungeonExplorersofSkyInTheMorningSun_mvl/mxv
 BYTE   W06
 BYTE   VOL   12*PokemonMysteryDungeonExplorersofSkyInTheMorningSun_mvl/mxv
 BYTE   W06
 BYTE   VOL   11*PokemonMysteryDungeonExplorersofSkyInTheMorningSun_mvl/mxv
 BYTE   W06
 BYTE   VOL   10*PokemonMysteryDungeonExplorersofSkyInTheMorningSun_mvl/mxv
 BYTE   W06
 BYTE   VOL   10*PokemonMysteryDungeonExplorersofSkyInTheMorningSun_mvl/mxv
 BYTE   W06
 BYTE   VOL   8*PokemonMysteryDungeonExplorersofSkyInTheMorningSun_mvl/mxv
 BYTE   W06
//  #08 //028   ----------------------------------------
 BYTE   VOL   8*PokemonMysteryDungeonExplorersofSkyInTheMorningSun_mvl/mxv
 BYTE   N12  Fs5  v032
 BYTE   W06
 BYTE   VOL   6*PokemonMysteryDungeonExplorersofSkyInTheMorningSun_mvl/mxv
 BYTE   W06
 BYTE   VOL   6*PokemonMysteryDungeonExplorersofSkyInTheMorningSun_mvl/mxv
 BYTE   N12  Fs5  v016
 BYTE   W06
 BYTE   VOL   5*PokemonMysteryDungeonExplorersofSkyInTheMorningSun_mvl/mxv
 BYTE   W06
 BYTE   N12  Fs5  v008
 BYTE   W12
 BYTE   Fs5  v004
 BYTE   W12
 BYTE   VOL   15*PokemonMysteryDungeonExplorersofSkyInTheMorningSun_mvl/mxv
 BYTE   N36  En5  v084
 BYTE   W36
 BYTE   N12  An5
 BYTE   W12
//  #08 //029   ----------------------------------------
 BYTE   An5  v032
 BYTE   W12
 BYTE   An5  v016
 BYTE   W12
 BYTE   N72  Fs5  v084
 BYTE   W12
 BYTE   VOL   14*PokemonMysteryDungeonExplorersofSkyInTheMorningSun_mvl/mxv
 BYTE   W06
 BYTE   VOL   13*PokemonMysteryDungeonExplorersofSkyInTheMorningSun_mvl/mxv
 BYTE   W06
 BYTE   VOL   11*PokemonMysteryDungeonExplorersofSkyInTheMorningSun_mvl/mxv
 BYTE   W06
 BYTE   VOL   10*PokemonMysteryDungeonExplorersofSkyInTheMorningSun_mvl/mxv
 BYTE   W06
 BYTE   VOL   9*PokemonMysteryDungeonExplorersofSkyInTheMorningSun_mvl/mxv
 BYTE   W06
 BYTE   VOL   8*PokemonMysteryDungeonExplorersofSkyInTheMorningSun_mvl/mxv
 BYTE   W06
 BYTE   VOL   6*PokemonMysteryDungeonExplorersofSkyInTheMorningSun_mvl/mxv
 BYTE   W06
 BYTE   VOL   5*PokemonMysteryDungeonExplorersofSkyInTheMorningSun_mvl/mxv
 BYTE   W06
 BYTE   VOL   5*PokemonMysteryDungeonExplorersofSkyInTheMorningSun_mvl/mxv
 BYTE   W12
//  #08 //030   ----------------------------------------
 BYTE   N12  Fs5  v032
 BYTE   W12
 BYTE   Fs5  v016
 BYTE   W12
 BYTE   VOL   15*PokemonMysteryDungeonExplorersofSkyInTheMorningSun_mvl/mxv
 BYTE   N24  An4  v084
 BYTE   W24
 BYTE   Bn4
 BYTE   W24
 BYTE   N12  Fs5
 BYTE   W12
 BYTE   N24
 BYTE   W12
//  #08 //031   ----------------------------------------
 BYTE   W12
 BYTE   N12
 BYTE   W12
 BYTE   Fs5  v032
 BYTE   W12
 BYTE   N24  Fs5  v084
 BYTE   W24
 BYTE   N12  En5
 BYTE   W12
 BYTE   En5  v112
 BYTE   W12
 BYTE   N24  Dn5  v084
 BYTE   W12
//  #08 //032   ----------------------------------------
 BYTE   W12
 BYTE   N12  En5
 BYTE   W12
 BYTE   En5  v032
 BYTE   W12
 BYTE   TIE  Dn5  v084
 BYTE   W24
 BYTE   VOL   14*PokemonMysteryDungeonExplorersofSkyInTheMorningSun_mvl/mxv
 BYTE   W06
 BYTE   VOL   14*PokemonMysteryDungeonExplorersofSkyInTheMorningSun_mvl/mxv
 BYTE   W06
 BYTE   VOL   13*PokemonMysteryDungeonExplorersofSkyInTheMorningSun_mvl/mxv
 BYTE   W06
 BYTE   VOL   12*PokemonMysteryDungeonExplorersofSkyInTheMorningSun_mvl/mxv
 BYTE   W06
 BYTE   VOL   11*PokemonMysteryDungeonExplorersofSkyInTheMorningSun_mvl/mxv
 BYTE   W06
 BYTE   VOL   11*PokemonMysteryDungeonExplorersofSkyInTheMorningSun_mvl/mxv
 BYTE   W06
//  #08 //033   ----------------------------------------
 BYTE   VOL   10*PokemonMysteryDungeonExplorersofSkyInTheMorningSun_mvl/mxv
 BYTE   W06
 BYTE   VOL   10*PokemonMysteryDungeonExplorersofSkyInTheMorningSun_mvl/mxv
 BYTE   W06
 BYTE   VOL   9*PokemonMysteryDungeonExplorersofSkyInTheMorningSun_mvl/mxv
 BYTE   W06
 BYTE   VOL   8*PokemonMysteryDungeonExplorersofSkyInTheMorningSun_mvl/mxv
 BYTE   W06
 BYTE   VOL   8*PokemonMysteryDungeonExplorersofSkyInTheMorningSun_mvl/mxv
 BYTE   W06
 BYTE   VOL   7*PokemonMysteryDungeonExplorersofSkyInTheMorningSun_mvl/mxv
 BYTE   W06
 BYTE   VOL   6*PokemonMysteryDungeonExplorersofSkyInTheMorningSun_mvl/mxv
 BYTE   W06
 BYTE   VOL   6*PokemonMysteryDungeonExplorersofSkyInTheMorningSun_mvl/mxv
 BYTE   W06
 BYTE   VOL   6*PokemonMysteryDungeonExplorersofSkyInTheMorningSun_mvl/mxv
 BYTE   W06
 BYTE   VOL   5*PokemonMysteryDungeonExplorersofSkyInTheMorningSun_mvl/mxv
 BYTE   W06
 BYTE   VOL   5*PokemonMysteryDungeonExplorersofSkyInTheMorningSun_mvl/mxv
 BYTE   W06
 BYTE   VOL   5*PokemonMysteryDungeonExplorersofSkyInTheMorningSun_mvl/mxv
 BYTE   W06
 BYTE   EOT
 BYTE   VOL   4*PokemonMysteryDungeonExplorersofSkyInTheMorningSun_mvl/mxv
 BYTE   N12  Dn5  v032
 BYTE   W06
 BYTE   VOL   3*PokemonMysteryDungeonExplorersofSkyInTheMorningSun_mvl/mxv
 BYTE   W06
 BYTE   VOL   3*PokemonMysteryDungeonExplorersofSkyInTheMorningSun_mvl/mxv
 BYTE   N12  Dn5  v016
 BYTE   W12
//  #08 //034   ----------------------------------------
 BYTE   Dn5  v008
 BYTE   W12
 BYTE   Dn5  v004
 BYTE   W48
 BYTE   VOL   8*PokemonMysteryDungeonExplorersofSkyInTheMorningSun_mvl/mxv
 BYTE   PAN   c_v+10
 BYTE   VOL   33*PokemonMysteryDungeonExplorersofSkyInTheMorningSun_mvl/mxv
 BYTE   BEND   c_v+0
 BYTE   W36
//  #08 //035   ----------------------------------------
 BYTE   W24
 BYTE   N06  En4  v127
 BYTE   W36
 BYTE   Dn4
 BYTE   W36
//  #08 //036   ----------------------------------------
 BYTE   W96
//  #08 //037   ----------------------------------------
 BYTE   W24
 BYTE   Gn4
 BYTE   W36
 BYTE   Fn4
 BYTE   W36
//  #08 //038   ----------------------------------------
 BYTE   W24
 BYTE   As3
 BYTE   W36
 BYTE   Dn4
 BYTE   W36
//  #08 //039   ----------------------------------------
 BYTE   W24
 BYTE   Cn4
 BYTE   W36
 BYTE   En4
 BYTE   W36
//  #08 //040   ----------------------------------------
 BYTE   W24
 BYTE   Dn4
 BYTE   W36
 BYTE   An4
 BYTE   W36
//  #08 //041   ----------------------------------------
 BYTE   W12
 BYTE   N06
 BYTE   W84
//  #08 //042   ----------------------------------------
 BYTE   W24
 BYTE   Dn4
 BYTE   W36
 BYTE   As3
 BYTE   W36
//  #08 //043   ----------------------------------------
 BYTE   W24
 BYTE   Fn4
 BYTE   W36
 BYTE   Cn4
 BYTE   W36
//  #08 //044   ----------------------------------------
 BYTE   W24
 BYTE   Gn4
 BYTE   W36
 BYTE   Dn4
 BYTE   W36
//  #08 //045   ----------------------------------------
 BYTE   W12
 BYTE   N06
 BYTE   W84
//  #08 //046   ----------------------------------------
 BYTE   W96
//  #08 //047   ----------------------------------------
 BYTE   W24
 BYTE   Ds4
 BYTE   W36
 BYTE   Cn4
 BYTE   W36
//  #08 //048   ----------------------------------------
 BYTE   Gn4
 BYTE   W96
//  #08 //049   ----------------------------------------
 BYTE   W24
 BYTE   Cn4
 BYTE   W36
 BYTE   An3
 BYTE   W36
//  #08 //050   ----------------------------------------
 BYTE   Ds4
 BYTE   W96
//  #08 //051   ----------------------------------------
 BYTE   W24
 BYTE   Dn4
 BYTE   W36
 BYTE   An3
 BYTE   W36
//  #08 //052   ----------------------------------------
 BYTE   Gn4
 BYTE   W96
//  #08 //053   ----------------------------------------
 BYTE   W96
//  #08 //054   ----------------------------------------
Label_01687982:
 BYTE   W24
 BYTE   N06  Fs4  v127
 BYTE   W36
 BYTE   En4
 BYTE   W36
 BYTE   PEND 
//  #08 //055   ----------------------------------------
 BYTE   An4
 BYTE   W96
//  #08 //056   ----------------------------------------
 BYTE   PATT
  POIN2 Label_01687982
//  #08 //057   ----------------------------------------
 BYTE   N06  An3  v127
 BYTE   W96
//  #08 //058   ----------------------------------------
 BYTE   PATT
  POIN2 Label_01687982
//  #08 //059   ----------------------------------------
 BYTE   N06  An4  v127
 BYTE   W96
//  #08 //060   ----------------------------------------
 BYTE   PATT
  POIN2 Label_01687982
//  #08 //061   ----------------------------------------
 BYTE   N06  An3  v127
 BYTE   W96
//  #08 //062   ----------------------------------------
 BYTE   PATT
  POIN2 Label_01687982
//  #08 //063   ----------------------------------------
 BYTE   N06  An4  v127
 BYTE   W96
//  #08 //064   ----------------------------------------
 BYTE   PATT
  POIN2 Label_01687982
//  #08 //065   ----------------------------------------
 BYTE   N06  An3  v127
 BYTE   W96
//  #08 //066   ----------------------------------------
 BYTE   PATT
  POIN2 Label_01687982
//  #08 //067   ----------------------------------------
 BYTE   PATT
  POIN2 Label_01687982
//  #08 //068   ----------------------------------------
 BYTE   W24
 BYTE   N06  En4  v127
 BYTE   W72
//  #08 //069   ----------------------------------------
 BYTE   W96
//  #08 //070   ----------------------------------------
Label_016879C9:
 BYTE   W24
 BYTE   N06  Fs4  v088
 BYTE   W36
 BYTE   En4
 BYTE   W36
 BYTE   PEND 
//  #08 //071   ----------------------------------------
 BYTE   An4
 BYTE   W96
//  #08 //072   ----------------------------------------
 BYTE   PATT
  POIN2 Label_016879C9
//  #08 //073   ----------------------------------------
 BYTE   N06  An3  v040
 BYTE   W96
//  #08 //074   ----------------------------------------
 BYTE   PATT
  POIN2 Label_016879C9
//  #08 //075   ----------------------------------------
 BYTE   N06  An4  v088
 BYTE   W96
//  #08 //076   ----------------------------------------
 BYTE   PATT
  POIN2 Label_016879C9
//  #08 //077   ----------------------------------------
 BYTE   N06  An3  v040
 BYTE   W96
//  #08 //078   ----------------------------------------
 BYTE   W96
//  #08 //079   ----------------------------------------
 BYTE   W96
//  #08 //080   ----------------------------------------
 BYTE   W96
//  #08 //081   ----------------------------------------
 BYTE   W96
//  #08 //082   ----------------------------------------
 BYTE   W96
//  #08 //083   ----------------------------------------
 BYTE   W96
//  #08 //084   ----------------------------------------
 BYTE   W96
//  #08 //085   ----------------------------------------
 BYTE   W96
//  #08 //086   ----------------------------------------
 BYTE   W48
 BYTE   VOL   15*PokemonMysteryDungeonExplorersofSkyInTheMorningSun_mvl/mxv
 BYTE   PAN   c_v-64
 BYTE   VOL   15*PokemonMysteryDungeonExplorersofSkyInTheMorningSun_mvl/mxv
 BYTE   BEND   c_v+0
 BYTE   W48
//  #08 //087   ----------------------------------------
 BYTE   W96
//  #08 //088   ----------------------------------------
 BYTE   W24
 BYTE   GoTo
  POIN2 Label_016877A7
 BYTE   FINE

//**************** Track 9 (Midi-Chn.8) ****************//

PokemonMysteryDungeonExplorersofSkyInTheMorningSun_009:
//  #09 //000   ----------------------------------------
 BYTE   KEYSH   PokemonMysteryDungeonExplorersofSkyInTheMorningSun_key+0
 BYTE   VOICE   11
 BYTE   MODT 0
 BYTE   LFOS 44
 BYTE   VOL   48*PokemonMysteryDungeonExplorersofSkyInTheMorningSun_mvl/mxv
 BYTE   PAN   c_v+0
 BYTE   VOL   10*PokemonMysteryDungeonExplorersofSkyInTheMorningSun_mvl/mxv
 BYTE   PAN   c_v+63
 BYTE   VOL   10*PokemonMysteryDungeonExplorersofSkyInTheMorningSun_mvl/mxv
 BYTE   BEND   c_v+0
 BYTE   W24
 BYTE   N17  Bn4  v088
 BYTE   W24
 BYTE   N30  Fs5
 BYTE   W48
//  #09 //001   ----------------------------------------
Label_01687A24:
 BYTE   N17  Fs5  v088
 BYTE   W24
 BYTE   N07  Gn5  v084
 BYTE   W12
 BYTE   N42  An5  v076
 BYTE   W60
 BYTE   PEND 
//  #09 //002   ----------------------------------------
Label_01687A31:
 BYTE   N17  An5  v088
 BYTE   W24
 BYTE   N07  Cs6
 BYTE   W12
 BYTE   TIE  Dn6  v036
 BYTE   W60
 BYTE   PEND 
//  #09 //003   ----------------------------------------
 BYTE   W92
 BYTE   EOT
 BYTE   W04
//  #09 //004   ----------------------------------------
 BYTE   W24
 BYTE   N17  Bn4  v088
 BYTE   W24
 BYTE   N30  Fs5
 BYTE   W48
//  #09 //005   ----------------------------------------
 BYTE   PATT
  POIN2 Label_01687A24
//  #09 //006   ----------------------------------------
 BYTE   PATT
  POIN2 Label_01687A31
//  #09 //007   ----------------------------------------
 BYTE   W92
 BYTE   EOT
 BYTE   Dn6
 BYTE   W04
//  #09 //008   ----------------------------------------
 BYTE   W96
//  #09 //009   ----------------------------------------
 BYTE   W96
//  #09 //010   ----------------------------------------
 BYTE   W96
//  #09 //011   ----------------------------------------
 BYTE   W96
//  #09 //012   ----------------------------------------
 BYTE   W96
//  #09 //013   ----------------------------------------
 BYTE   W96
//  #09 //014   ----------------------------------------
 BYTE   W96
//  #09 //015   ----------------------------------------
 BYTE   W96
//  #09 //016   ----------------------------------------
 BYTE   W96
//  #09 //017   ----------------------------------------
 BYTE   W96
//  #09 //018   ----------------------------------------
 BYTE   W24
Label_01687A61:
 BYTE   PAN   c_v+63
 BYTE   W72
//  #09 //019   ----------------------------------------
 BYTE   W96
//  #09 //020   ----------------------------------------
 BYTE   W96
//  #09 //021   ----------------------------------------
 BYTE   W96
//  #09 //022   ----------------------------------------
 BYTE   W96
//  #09 //023   ----------------------------------------
 BYTE   W96
//  #09 //024   ----------------------------------------
 BYTE   W96
//  #09 //025   ----------------------------------------
 BYTE   W96
//  #09 //026   ----------------------------------------
 BYTE   W96
//  #09 //027   ----------------------------------------
 BYTE   W96
//  #09 //028   ----------------------------------------
 BYTE   W96
//  #09 //029   ----------------------------------------
 BYTE   W96
//  #09 //030   ----------------------------------------
 BYTE   W96
//  #09 //031   ----------------------------------------
 BYTE   W96
//  #09 //032   ----------------------------------------
 BYTE   W24
 BYTE   VOL   10*PokemonMysteryDungeonExplorersofSkyInTheMorningSun_mvl/mxv
 BYTE   PAN   c_v+0
 BYTE   VOL   48*PokemonMysteryDungeonExplorersofSkyInTheMorningSun_mvl/mxv
 BYTE   BEND   c_v+0
 BYTE   W72
//  #09 //033   ----------------------------------------
 BYTE   W24
 BYTE   VOL   48*PokemonMysteryDungeonExplorersofSkyInTheMorningSun_mvl/mxv
 BYTE   W48
 BYTE   N12  Dn4  v108
 BYTE   W12
 BYTE   En4
 BYTE   W12
//  #09 //034   ----------------------------------------
 BYTE   Fs4
 BYTE   W12
 BYTE   Gn4
 BYTE   W12
 BYTE   N48  An4
 BYTE   W48
 BYTE   N12  An4  v060
 BYTE   W12
 BYTE   An4  v036
 BYTE   W12
//  #09 //035   ----------------------------------------
 BYTE   Dn4  v108
 BYTE   W12
 BYTE   N84
 BYTE   W84
//  #09 //036   ----------------------------------------
 BYTE   N12  Dn4  v060
 BYTE   W12
 BYTE   Dn4  v036
 BYTE   W12
 BYTE   N24  Cn4  v108
 BYTE   W24
 BYTE   N12  Fn4
 BYTE   W12
 BYTE   N24
 BYTE   W24
 BYTE   N12  Cn4
 BYTE   W12
//  #09 //037   ----------------------------------------
 BYTE   Cn4  v060
 BYTE   W12
 BYTE   N84  Cn4  v108
 BYTE   W84
//  #09 //038   ----------------------------------------
 BYTE   N12  Cn4  v060
 BYTE   W12
 BYTE   Cn4  v036
 BYTE   W12
 BYTE   N24  As3  v108
 BYTE   W24
 BYTE   N12  Fn4
 BYTE   W12
 BYTE   N24
 BYTE   W24
 BYTE   N12  Fn4  v060
 BYTE   W12
//  #09 //039   ----------------------------------------
 BYTE   Fn4  v036
 BYTE   W12
 BYTE   Fn4  v028
 BYTE   W12
 BYTE   N24  Cn4  v108
 BYTE   W24
 BYTE   N12  Gn4
 BYTE   W12
 BYTE   N24
 BYTE   W24
 BYTE   N12  Gn4  v060
 BYTE   W12
//  #09 //040   ----------------------------------------
 BYTE   Gn4  v036
 BYTE   W12
 BYTE   Gn4  v028
 BYTE   W12
 BYTE   N24  Dn4  v108
 BYTE   W24
 BYTE   N12  An4
 BYTE   W12
 BYTE   N24
 BYTE   W24
 BYTE   N12  Gn4
 BYTE   W12
//  #09 //041   ----------------------------------------
 BYTE   Gn4  v060
 BYTE   W12
 BYTE   N40  An4  v108
 BYTE   W60
 BYTE   N12  En4  v100
 BYTE   N12  Gn4
 BYTE   W12
 BYTE   Fs4
 BYTE   N12  An4
 BYTE   W12
//  #09 //042   ----------------------------------------
 BYTE   Gn4
 BYTE   N12  As4
 BYTE   W12
 BYTE   An4
 BYTE   N12  Cn5
 BYTE   W12
 BYTE   N24  As4
 BYTE   N24  Dn5
 BYTE   W24
 BYTE   N12  Gn4
 BYTE   N12  As4
 BYTE   W12
 BYTE   N36  Gn4
 BYTE   N36  As4
 BYTE   W36
//  #09 //043   ----------------------------------------
 BYTE   N12  Gn4  v060
 BYTE   N12  As4
 BYTE   W12
 BYTE   Gn4  v036
 BYTE   N12  As4
 BYTE   W12
 BYTE   N24  Cn5  v100
 BYTE   N24  Fn5
 BYTE   W24
 BYTE   N12  An4
 BYTE   N12  Cn5
 BYTE   W12
 BYTE   N36  An4
 BYTE   N36  Cn5
 BYTE   W36
//  #09 //044   ----------------------------------------
 BYTE   N12  An4  v060
 BYTE   N12  Cn5
 BYTE   W12
 BYTE   An4  v036
 BYTE   N12  Cn5
 BYTE   W12
 BYTE   N24  Cn5  v100
 BYTE   N24  Gn5
 BYTE   W24
 BYTE   N12  Bn4
 BYTE   N12  Dn5
 BYTE   W12
 BYTE   N24  Bn4
 BYTE   N24  Dn5
 BYTE   W24
 BYTE   N12  An4
 BYTE   N12  Cn5
 BYTE   W12
//  #09 //045   ----------------------------------------
 BYTE   An4  v060
 BYTE   N12  Cn5
 BYTE   W12
 BYTE   N60  Bn4  v100
 BYTE   N60  Dn5
 BYTE   W60
 BYTE   N12  Bn4  v060
 BYTE   N12  Dn5
 BYTE   W12
 BYTE   Bn4  v036
 BYTE   N12  Dn5
 BYTE   W12
//  #09 //046   ----------------------------------------
 BYTE   N24  Bn4  v100
 BYTE   N24  Dn5
 BYTE   W24
 BYTE   TIE  As4
 BYTE   TIE  Ds5
 BYTE   W72
//  #09 //047   ----------------------------------------
 BYTE   W96
//  #09 //048   ----------------------------------------
 BYTE   W96
//  #09 //049   ----------------------------------------
 BYTE   EOT
 BYTE   As4  v087
 BYTE   N12  As4  v060
 BYTE   N12  Ds5
 BYTE   W12
 BYTE   As4  v036
 BYTE   N12  Ds5
 BYTE   W12
 BYTE   N24  As4  v100
 BYTE   N24  Ds5
 BYTE   W24
 BYTE   N12  As4
 BYTE   N12  Dn5
 BYTE   W12
 BYTE   An4
 BYTE   N12  Cn5
 BYTE   W12
 BYTE   An4  v060
 BYTE   N12  Cn5
 BYTE   W12
 BYTE   As4  v100
 BYTE   N12  Ds5
 BYTE   W12
//  #09 //050   ----------------------------------------
 BYTE   As4  v060
 BYTE   N12  Ds5
 BYTE   W12
 BYTE   TIE  An4  v100
 BYTE   TIE  Dn5
 BYTE   W84
//  #09 //051   ----------------------------------------
 BYTE   W96
//  #09 //052   ----------------------------------------
 BYTE   W96
//  #09 //053   ----------------------------------------
 BYTE   W24
 BYTE   EOT
 BYTE   An4  v086
 BYTE   W72
//  #09 //054   ----------------------------------------
 BYTE   N12  Bn3
 BYTE   W12
 BYTE   Bn3  v060
 BYTE   W12
 BYTE   N36  Fs4  v100
 BYTE   W36
 BYTE   N12  Fs4  v060
 BYTE   W12
 BYTE   Fs4  v100
 BYTE   W12
 BYTE   Fs4  v060
 BYTE   W12
//  #09 //055   ----------------------------------------
Label_01687BBE:
 BYTE   N12  Gn4  v100
 BYTE   W12
 BYTE   N48  An4
 BYTE   W48
 BYTE   N12  An4  v060
 BYTE   W12
 BYTE   An4  v100
 BYTE   W12
 BYTE   An4  v060
 BYTE   W12
 BYTE   PEND 
//  #09 //056   ----------------------------------------
 BYTE   Cs5  v100
 BYTE   W12
 BYTE   TIE  Dn5
 BYTE   W36
 BYTE   VOL   48*PokemonMysteryDungeonExplorersofSkyInTheMorningSun_mvl/mxv
 BYTE   W04
 BYTE   VOL   46*PokemonMysteryDungeonExplorersofSkyInTheMorningSun_mvl/mxv
 BYTE   W04
 BYTE   VOL   45*PokemonMysteryDungeonExplorersofSkyInTheMorningSun_mvl/mxv
 BYTE   W04
 BYTE   VOL   45*PokemonMysteryDungeonExplorersofSkyInTheMorningSun_mvl/mxv
 BYTE   W04
 BYTE   VOL   44*PokemonMysteryDungeonExplorersofSkyInTheMorningSun_mvl/mxv
 BYTE   W08
 BYTE   VOL   43*PokemonMysteryDungeonExplorersofSkyInTheMorningSun_mvl/mxv
 BYTE   W04
 BYTE   VOL   43*PokemonMysteryDungeonExplorersofSkyInTheMorningSun_mvl/mxv
 BYTE   W08
 BYTE   VOL   42*PokemonMysteryDungeonExplorersofSkyInTheMorningSun_mvl/mxv
 BYTE   W08
 BYTE   VOL   41*PokemonMysteryDungeonExplorersofSkyInTheMorningSun_mvl/mxv
 BYTE   W04
//  #09 //057   ----------------------------------------
 BYTE   W08
 BYTE   VOL   40*PokemonMysteryDungeonExplorersofSkyInTheMorningSun_mvl/mxv
 BYTE   W12
 BYTE   VOL   40*PokemonMysteryDungeonExplorersofSkyInTheMorningSun_mvl/mxv
 BYTE   W04
 BYTE   VOL   40*PokemonMysteryDungeonExplorersofSkyInTheMorningSun_mvl/mxv
 BYTE   W08
 BYTE   VOL   40*PokemonMysteryDungeonExplorersofSkyInTheMorningSun_mvl/mxv
 BYTE   W08
 BYTE   VOL   39*PokemonMysteryDungeonExplorersofSkyInTheMorningSun_mvl/mxv
 BYTE   W08
 BYTE   VOL   37*PokemonMysteryDungeonExplorersofSkyInTheMorningSun_mvl/mxv
 BYTE   W04
 BYTE   VOL   37*PokemonMysteryDungeonExplorersofSkyInTheMorningSun_mvl/mxv
 BYTE   W04
 BYTE   VOL   37*PokemonMysteryDungeonExplorersofSkyInTheMorningSun_mvl/mxv
 BYTE   W04
 BYTE   VOL   36*PokemonMysteryDungeonExplorersofSkyInTheMorningSun_mvl/mxv
 BYTE   W04
 BYTE   VOL   35*PokemonMysteryDungeonExplorersofSkyInTheMorningSun_mvl/mxv
 BYTE   W04
 BYTE   VOL   34*PokemonMysteryDungeonExplorersofSkyInTheMorningSun_mvl/mxv
 BYTE   W04
 BYTE   EOT
 BYTE   VOL   33*PokemonMysteryDungeonExplorersofSkyInTheMorningSun_mvl/mxv
 BYTE   N12  Dn5  v060
 BYTE   W04
 BYTE   VOL   32*PokemonMysteryDungeonExplorersofSkyInTheMorningSun_mvl/mxv
 BYTE   W04
 BYTE   VOL   30*PokemonMysteryDungeonExplorersofSkyInTheMorningSun_mvl/mxv
 BYTE   W04
 BYTE   VOL   29*PokemonMysteryDungeonExplorersofSkyInTheMorningSun_mvl/mxv
 BYTE   N12  Dn5  v036
 BYTE   W04
 BYTE   VOL   27*PokemonMysteryDungeonExplorersofSkyInTheMorningSun_mvl/mxv
 BYTE   W04
 BYTE   VOL   27*PokemonMysteryDungeonExplorersofSkyInTheMorningSun_mvl/mxv
 BYTE   W04
//  #09 //058   ----------------------------------------
 BYTE   VOL   30*PokemonMysteryDungeonExplorersofSkyInTheMorningSun_mvl/mxv
 BYTE   N12  Bn4  v100
 BYTE   W04
 BYTE   VOL   32*PokemonMysteryDungeonExplorersofSkyInTheMorningSun_mvl/mxv
 BYTE   W04
 BYTE   VOL   34*PokemonMysteryDungeonExplorersofSkyInTheMorningSun_mvl/mxv
 BYTE   W04
 BYTE   VOL   34*PokemonMysteryDungeonExplorersofSkyInTheMorningSun_mvl/mxv
 BYTE   N12  Bn4  v060
 BYTE   W04
 BYTE   VOL   36*PokemonMysteryDungeonExplorersofSkyInTheMorningSun_mvl/mxv
 BYTE   W04
 BYTE   VOL   37*PokemonMysteryDungeonExplorersofSkyInTheMorningSun_mvl/mxv
 BYTE   W04
 BYTE   VOL   37*PokemonMysteryDungeonExplorersofSkyInTheMorningSun_mvl/mxv
 BYTE   N24  Fs5  v100
 BYTE   W04
 BYTE   VOL   37*PokemonMysteryDungeonExplorersofSkyInTheMorningSun_mvl/mxv
 BYTE   W04
 BYTE   VOL   38*PokemonMysteryDungeonExplorersofSkyInTheMorningSun_mvl/mxv
 BYTE   W04
 BYTE   VOL   39*PokemonMysteryDungeonExplorersofSkyInTheMorningSun_mvl/mxv
 BYTE   W04
 BYTE   VOL   40*PokemonMysteryDungeonExplorersofSkyInTheMorningSun_mvl/mxv
 BYTE   W04
 BYTE   VOL   40*PokemonMysteryDungeonExplorersofSkyInTheMorningSun_mvl/mxv
 BYTE   W04
 BYTE   VOL   41*PokemonMysteryDungeonExplorersofSkyInTheMorningSun_mvl/mxv
 BYTE   N12  En5
 BYTE   W04
 BYTE   VOL   42*PokemonMysteryDungeonExplorersofSkyInTheMorningSun_mvl/mxv
 BYTE   W04
 BYTE   VOL   43*PokemonMysteryDungeonExplorersofSkyInTheMorningSun_mvl/mxv
 BYTE   W04
 BYTE   VOL   43*PokemonMysteryDungeonExplorersofSkyInTheMorningSun_mvl/mxv
 BYTE   N24
 BYTE   W04
 BYTE   VOL   44*PokemonMysteryDungeonExplorersofSkyInTheMorningSun_mvl/mxv
 BYTE   W08
 BYTE   VOL   45*PokemonMysteryDungeonExplorersofSkyInTheMorningSun_mvl/mxv
 BYTE   W04
 BYTE   VOL   45*PokemonMysteryDungeonExplorersofSkyInTheMorningSun_mvl/mxv
 BYTE   W04
 BYTE   VOL   46*PokemonMysteryDungeonExplorersofSkyInTheMorningSun_mvl/mxv
 BYTE   W04
 BYTE   VOL   46*PokemonMysteryDungeonExplorersofSkyInTheMorningSun_mvl/mxv
 BYTE   N12  En5  v060
 BYTE   W08
 BYTE   VOL   47*PokemonMysteryDungeonExplorersofSkyInTheMorningSun_mvl/mxv
 BYTE   W04
//  #09 //059   ----------------------------------------
 BYTE   VOL   48*PokemonMysteryDungeonExplorersofSkyInTheMorningSun_mvl/mxv
 BYTE   N12  Bn4  v100
 BYTE   W12
 BYTE   Bn4  v060
 BYTE   W12
 BYTE   N24  Fs5  v100
 BYTE   W24
 BYTE   N12  En5
 BYTE   W12
 BYTE   N24
 BYTE   W24
 BYTE   N12  En5  v060
 BYTE   W12
//  #09 //060   ----------------------------------------
 BYTE   Bn4  v100
 BYTE   W12
 BYTE   Bn4  v060
 BYTE   W12
 BYTE   N24  Gn5  v100
 BYTE   W24
 BYTE   N12  Fs5
 BYTE   W12
 BYTE   N24
 BYTE   W24
 BYTE   N12  En5
 BYTE   W12
//  #09 //061   ----------------------------------------
 BYTE   En5  v060
 BYTE   W12
 BYTE   N60  Fs5  v100
 BYTE   W04
 BYTE   VOL   47*PokemonMysteryDungeonExplorersofSkyInTheMorningSun_mvl/mxv
 BYTE   W16
 BYTE   VOL   46*PokemonMysteryDungeonExplorersofSkyInTheMorningSun_mvl/mxv
 BYTE   W04
 BYTE   VOL   46*PokemonMysteryDungeonExplorersofSkyInTheMorningSun_mvl/mxv
 BYTE   W04
 BYTE   VOL   45*PokemonMysteryDungeonExplorersofSkyInTheMorningSun_mvl/mxv
 BYTE   W04
 BYTE   VOL   45*PokemonMysteryDungeonExplorersofSkyInTheMorningSun_mvl/mxv
 BYTE   W04
 BYTE   VOL   43*PokemonMysteryDungeonExplorersofSkyInTheMorningSun_mvl/mxv
 BYTE   W04
 BYTE   VOL   43*PokemonMysteryDungeonExplorersofSkyInTheMorningSun_mvl/mxv
 BYTE   W04
 BYTE   VOL   41*PokemonMysteryDungeonExplorersofSkyInTheMorningSun_mvl/mxv
 BYTE   W04
 BYTE   VOL   40*PokemonMysteryDungeonExplorersofSkyInTheMorningSun_mvl/mxv
 BYTE   W04
 BYTE   VOL   39*PokemonMysteryDungeonExplorersofSkyInTheMorningSun_mvl/mxv
 BYTE   W04
 BYTE   VOL   37*PokemonMysteryDungeonExplorersofSkyInTheMorningSun_mvl/mxv
 BYTE   W04
 BYTE   VOL   37*PokemonMysteryDungeonExplorersofSkyInTheMorningSun_mvl/mxv
 BYTE   N12  Fs5  v060
 BYTE   W04
 BYTE   VOL   34*PokemonMysteryDungeonExplorersofSkyInTheMorningSun_mvl/mxv
 BYTE   W04
 BYTE   VOL   33*PokemonMysteryDungeonExplorersofSkyInTheMorningSun_mvl/mxv
 BYTE   W04
 BYTE   VOL   31*PokemonMysteryDungeonExplorersofSkyInTheMorningSun_mvl/mxv
 BYTE   N12  Fs5  v036
 BYTE   W04
 BYTE   VOL   29*PokemonMysteryDungeonExplorersofSkyInTheMorningSun_mvl/mxv
 BYTE   W04
 BYTE   VOL   29*PokemonMysteryDungeonExplorersofSkyInTheMorningSun_mvl/mxv
 BYTE   W04
//  #09 //062   ----------------------------------------
 BYTE   VOL   43*PokemonMysteryDungeonExplorersofSkyInTheMorningSun_mvl/mxv
 BYTE   N12  Bn3  v100
 BYTE   W04
 BYTE   VOL   45*PokemonMysteryDungeonExplorersofSkyInTheMorningSun_mvl/mxv
 BYTE   W04
 BYTE   VOL   45*PokemonMysteryDungeonExplorersofSkyInTheMorningSun_mvl/mxv
 BYTE   W04
 BYTE   VOL   46*PokemonMysteryDungeonExplorersofSkyInTheMorningSun_mvl/mxv
 BYTE   N12  Bn3  v060
 BYTE   W04
 BYTE   VOL   46*PokemonMysteryDungeonExplorersofSkyInTheMorningSun_mvl/mxv
 BYTE   W08
 BYTE   VOL   47*PokemonMysteryDungeonExplorersofSkyInTheMorningSun_mvl/mxv
 BYTE   N36  Fs4  v100
 BYTE   W08
 BYTE   VOL   48*PokemonMysteryDungeonExplorersofSkyInTheMorningSun_mvl/mxv
 BYTE   W28
 BYTE   N12  Fs4  v060
 BYTE   W12
 BYTE   Fs4  v100
 BYTE   W12
 BYTE   Fs4  v060
 BYTE   W12
//  #09 //063   ----------------------------------------
 BYTE   PATT
  POIN2 Label_01687BBE
//  #09 //064   ----------------------------------------
 BYTE   N12  Cs5  v100
 BYTE   W12
 BYTE   N60  Dn5
 BYTE   W60
 BYTE   N12  Cs5
 BYTE   W12
 BYTE   Cs5  v060
 BYTE   W12
//  #09 //065   ----------------------------------------
 BYTE   Dn5  v100
 BYTE   W12
 BYTE   N60  Fs5
 BYTE   W16
 BYTE   VOL   48*PokemonMysteryDungeonExplorersofSkyInTheMorningSun_mvl/mxv
 BYTE   W08
 BYTE   VOL   47*PokemonMysteryDungeonExplorersofSkyInTheMorningSun_mvl/mxv
 BYTE   W04
 BYTE   VOL   46*PokemonMysteryDungeonExplorersofSkyInTheMorningSun_mvl/mxv
 BYTE   W04
 BYTE   VOL   46*PokemonMysteryDungeonExplorersofSkyInTheMorningSun_mvl/mxv
 BYTE   W04
 BYTE   VOL   45*PokemonMysteryDungeonExplorersofSkyInTheMorningSun_mvl/mxv
 BYTE   W04
 BYTE   VOL   44*PokemonMysteryDungeonExplorersofSkyInTheMorningSun_mvl/mxv
 BYTE   W04
 BYTE   VOL   43*PokemonMysteryDungeonExplorersofSkyInTheMorningSun_mvl/mxv
 BYTE   W04
 BYTE   VOL   40*PokemonMysteryDungeonExplorersofSkyInTheMorningSun_mvl/mxv
 BYTE   W04
 BYTE   VOL   39*PokemonMysteryDungeonExplorersofSkyInTheMorningSun_mvl/mxv
 BYTE   W04
 BYTE   VOL   37*PokemonMysteryDungeonExplorersofSkyInTheMorningSun_mvl/mxv
 BYTE   W04
 BYTE   VOL   35*PokemonMysteryDungeonExplorersofSkyInTheMorningSun_mvl/mxv
 BYTE   N12  Fs5  v060
 BYTE   W04
 BYTE   VOL   33*PokemonMysteryDungeonExplorersofSkyInTheMorningSun_mvl/mxv
 BYTE   W04
 BYTE   VOL   30*PokemonMysteryDungeonExplorersofSkyInTheMorningSun_mvl/mxv
 BYTE   W04
 BYTE   VOL   28*PokemonMysteryDungeonExplorersofSkyInTheMorningSun_mvl/mxv
 BYTE   N12  Fs5  v036
 BYTE   W04
 BYTE   VOL   26*PokemonMysteryDungeonExplorersofSkyInTheMorningSun_mvl/mxv
 BYTE   W08
//  #09 //066   ----------------------------------------
 BYTE   VOL   43*PokemonMysteryDungeonExplorersofSkyInTheMorningSun_mvl/mxv
 BYTE   N12  Bn4  v100
 BYTE   W04
 BYTE   VOL   44*PokemonMysteryDungeonExplorersofSkyInTheMorningSun_mvl/mxv
 BYTE   W04
 BYTE   VOL   45*PokemonMysteryDungeonExplorersofSkyInTheMorningSun_mvl/mxv
 BYTE   W04
 BYTE   VOL   45*PokemonMysteryDungeonExplorersofSkyInTheMorningSun_mvl/mxv
 BYTE   N12  Bn4  v060
 BYTE   W08
 BYTE   VOL   46*PokemonMysteryDungeonExplorersofSkyInTheMorningSun_mvl/mxv
 BYTE   W04
 BYTE   N24  Fs5  v100
 BYTE   W04
 BYTE   VOL   46*PokemonMysteryDungeonExplorersofSkyInTheMorningSun_mvl/mxv
 BYTE   W12
 BYTE   VOL   47*PokemonMysteryDungeonExplorersofSkyInTheMorningSun_mvl/mxv
 BYTE   W08
 BYTE   VOL   48*PokemonMysteryDungeonExplorersofSkyInTheMorningSun_mvl/mxv
 BYTE   N12  En5
 BYTE   W12
 BYTE   N24
 BYTE   W24
 BYTE   N12  En5  v060
 BYTE   W12
//  #09 //067   ----------------------------------------
 BYTE   Bn4  v100
 BYTE   W12
 BYTE   Bn4  v060
 BYTE   W12
 BYTE   N24  Fs5  v100
 BYTE   W24
 BYTE   N12  En5
 BYTE   W12
 BYTE   N24
 BYTE   W24
 BYTE   N12  Dn5
 BYTE   W12
//  #09 //068   ----------------------------------------
 BYTE   Dn5  v060
 BYTE   W12
 BYTE   N84  En5  v100
 BYTE   W08
 BYTE   VOL   48*PokemonMysteryDungeonExplorersofSkyInTheMorningSun_mvl/mxv
 BYTE   W04
 BYTE   VOL   46*PokemonMysteryDungeonExplorersofSkyInTheMorningSun_mvl/mxv
 BYTE   W04
 BYTE   VOL   45*PokemonMysteryDungeonExplorersofSkyInTheMorningSun_mvl/mxv
 BYTE   W04
 BYTE   VOL   45*PokemonMysteryDungeonExplorersofSkyInTheMorningSun_mvl/mxv
 BYTE   W08
 BYTE   VOL   44*PokemonMysteryDungeonExplorersofSkyInTheMorningSun_mvl/mxv
 BYTE   W08
 BYTE   VOL   43*PokemonMysteryDungeonExplorersofSkyInTheMorningSun_mvl/mxv
 BYTE   W04
 BYTE   VOL   43*PokemonMysteryDungeonExplorersofSkyInTheMorningSun_mvl/mxv
 BYTE   W12
 BYTE   VOL   42*PokemonMysteryDungeonExplorersofSkyInTheMorningSun_mvl/mxv
 BYTE   W04
 BYTE   VOL   41*PokemonMysteryDungeonExplorersofSkyInTheMorningSun_mvl/mxv
 BYTE   W12
 BYTE   VOL   40*PokemonMysteryDungeonExplorersofSkyInTheMorningSun_mvl/mxv
 BYTE   W04
 BYTE   VOL   40*PokemonMysteryDungeonExplorersofSkyInTheMorningSun_mvl/mxv
 BYTE   W04
 BYTE   VOL   40*PokemonMysteryDungeonExplorersofSkyInTheMorningSun_mvl/mxv
 BYTE   W04
 BYTE   VOL   38*PokemonMysteryDungeonExplorersofSkyInTheMorningSun_mvl/mxv
 BYTE   W04
//  #09 //069   ----------------------------------------
 BYTE   VOL   37*PokemonMysteryDungeonExplorersofSkyInTheMorningSun_mvl/mxv
 BYTE   N12  En5  v060
 BYTE   W04
 BYTE   VOL   37*PokemonMysteryDungeonExplorersofSkyInTheMorningSun_mvl/mxv
 BYTE   W04
 BYTE   VOL   35*PokemonMysteryDungeonExplorersofSkyInTheMorningSun_mvl/mxv
 BYTE   W04
 BYTE   VOL   34*PokemonMysteryDungeonExplorersofSkyInTheMorningSun_mvl/mxv
 BYTE   N12  En5  v036
 BYTE   W04
 BYTE   VOL   32*PokemonMysteryDungeonExplorersofSkyInTheMorningSun_mvl/mxv
 BYTE   W04
 BYTE   VOL   30*PokemonMysteryDungeonExplorersofSkyInTheMorningSun_mvl/mxv
 BYTE   W04
 BYTE   VOL   39*PokemonMysteryDungeonExplorersofSkyInTheMorningSun_mvl/mxv
 BYTE   N24  Gn4  v100
 BYTE   N24  Gn5
 BYTE   W04
 BYTE   VOL   40*PokemonMysteryDungeonExplorersofSkyInTheMorningSun_mvl/mxv
 BYTE   W04
 BYTE   VOL   42*PokemonMysteryDungeonExplorersofSkyInTheMorningSun_mvl/mxv
 BYTE   W04
 BYTE   VOL   43*PokemonMysteryDungeonExplorersofSkyInTheMorningSun_mvl/mxv
 BYTE   W08
 BYTE   VOL   43*PokemonMysteryDungeonExplorersofSkyInTheMorningSun_mvl/mxv
 BYTE   W04
 BYTE   VOL   44*PokemonMysteryDungeonExplorersofSkyInTheMorningSun_mvl/mxv
 BYTE   N12  Fs4
 BYTE   N12  Fs5
 BYTE   W04
 BYTE   VOL   45*PokemonMysteryDungeonExplorersofSkyInTheMorningSun_mvl/mxv
 BYTE   W08
 BYTE   VOL   45*PokemonMysteryDungeonExplorersofSkyInTheMorningSun_mvl/mxv
 BYTE   N24  Fs4
 BYTE   N24  Fs5
 BYTE   W08
 BYTE   VOL   46*PokemonMysteryDungeonExplorersofSkyInTheMorningSun_mvl/mxv
 BYTE   W08
 BYTE   VOL   46*PokemonMysteryDungeonExplorersofSkyInTheMorningSun_mvl/mxv
 BYTE   W08
 BYTE   VOL   47*PokemonMysteryDungeonExplorersofSkyInTheMorningSun_mvl/mxv
 BYTE   N12  En4
 BYTE   N12  En5
 BYTE   W08
 BYTE   VOL   48*PokemonMysteryDungeonExplorersofSkyInTheMorningSun_mvl/mxv
 BYTE   W04
//  #09 //070   ----------------------------------------
 BYTE   N12  En4  v060
 BYTE   N12  En5
 BYTE   W12
 BYTE   TIE  Fs4  v100
 BYTE   TIE  Fs5
 BYTE   W66
 BYTE   VOL   48*PokemonMysteryDungeonExplorersofSkyInTheMorningSun_mvl/mxv
 BYTE   W06
 BYTE   VOL   45*PokemonMysteryDungeonExplorersofSkyInTheMorningSun_mvl/mxv
 BYTE   W06
 BYTE   VOL   43*PokemonMysteryDungeonExplorersofSkyInTheMorningSun_mvl/mxv
 BYTE   W06
//  #09 //071   ----------------------------------------
 BYTE   VOL   40*PokemonMysteryDungeonExplorersofSkyInTheMorningSun_mvl/mxv
 BYTE   W06
 BYTE   VOL   38*PokemonMysteryDungeonExplorersofSkyInTheMorningSun_mvl/mxv
 BYTE   W06
 BYTE   VOL   37*PokemonMysteryDungeonExplorersofSkyInTheMorningSun_mvl/mxv
 BYTE   W06
 BYTE   VOL   34*PokemonMysteryDungeonExplorersofSkyInTheMorningSun_mvl/mxv
 BYTE   W06
 BYTE   VOL   33*PokemonMysteryDungeonExplorersofSkyInTheMorningSun_mvl/mxv
 BYTE   W06
 BYTE   VOL   30*PokemonMysteryDungeonExplorersofSkyInTheMorningSun_mvl/mxv
 BYTE   W06
 BYTE   VOL   28*PokemonMysteryDungeonExplorersofSkyInTheMorningSun_mvl/mxv
 BYTE   W06
 BYTE   VOL   27*PokemonMysteryDungeonExplorersofSkyInTheMorningSun_mvl/mxv
 BYTE   W06
 BYTE   VOL   25*PokemonMysteryDungeonExplorersofSkyInTheMorningSun_mvl/mxv
 BYTE   W06
 BYTE   VOL   23*PokemonMysteryDungeonExplorersofSkyInTheMorningSun_mvl/mxv
 BYTE   W06
 BYTE   VOL   22*PokemonMysteryDungeonExplorersofSkyInTheMorningSun_mvl/mxv
 BYTE   W06
 BYTE   VOL   19*PokemonMysteryDungeonExplorersofSkyInTheMorningSun_mvl/mxv
 BYTE   W06
 BYTE   VOL   18*PokemonMysteryDungeonExplorersofSkyInTheMorningSun_mvl/mxv
 BYTE   W06
 BYTE   VOL   17*PokemonMysteryDungeonExplorersofSkyInTheMorningSun_mvl/mxv
 BYTE   W06
 BYTE   VOL   15*PokemonMysteryDungeonExplorersofSkyInTheMorningSun_mvl/mxv
 BYTE   W06
 BYTE   VOL   14*PokemonMysteryDungeonExplorersofSkyInTheMorningSun_mvl/mxv
 BYTE   W06
//  #09 //072   ----------------------------------------
 BYTE   VOL   12*PokemonMysteryDungeonExplorersofSkyInTheMorningSun_mvl/mxv
 BYTE   W06
 BYTE   VOL   11*PokemonMysteryDungeonExplorersofSkyInTheMorningSun_mvl/mxv
 BYTE   W06
 BYTE   VOL   10*PokemonMysteryDungeonExplorersofSkyInTheMorningSun_mvl/mxv
 BYTE   W12
 BYTE   EOT
 BYTE   Fs4  v090
 BYTE   W72
//  #09 //073   ----------------------------------------
 BYTE   W96
//  #09 //074   ----------------------------------------
 BYTE   W96
//  #09 //075   ----------------------------------------
 BYTE   W96
//  #09 //076   ----------------------------------------
 BYTE   W96
//  #09 //077   ----------------------------------------
 BYTE   W96
//  #09 //078   ----------------------------------------
 BYTE   W96
//  #09 //079   ----------------------------------------
 BYTE   W96
//  #09 //080   ----------------------------------------
 BYTE   W96
//  #09 //081   ----------------------------------------
 BYTE   W96
//  #09 //082   ----------------------------------------
 BYTE   W96
//  #09 //083   ----------------------------------------
 BYTE   W96
//  #09 //084   ----------------------------------------
 BYTE   W96
//  #09 //085   ----------------------------------------
 BYTE   W96
//  #09 //086   ----------------------------------------
 BYTE   W96
//  #09 //087   ----------------------------------------
 BYTE   W96
//  #09 //088   ----------------------------------------
 BYTE   W24
 BYTE   GoTo
  POIN2 Label_01687A61
 BYTE   FINE

//**************** Track 10 (Midi-Chn.9) ****************//

PokemonMysteryDungeonExplorersofSkyInTheMorningSun_010:
//  #10 //000   ----------------------------------------
 BYTE   KEYSH   PokemonMysteryDungeonExplorersofSkyInTheMorningSun_key+0
 BYTE   VOICE   65
 BYTE   MODT 0
 BYTE   LFOS 44
 BYTE   VOL   37*PokemonMysteryDungeonExplorersofSkyInTheMorningSun_mvl/mxv
 BYTE   PAN   c_v-14
 BYTE   VOL   37*PokemonMysteryDungeonExplorersofSkyInTheMorningSun_mvl/mxv
 BYTE   BEND   c_v+0
 BYTE   W96
//  #10 //001   ----------------------------------------
 BYTE   W96
//  #10 //002   ----------------------------------------
 BYTE   W96
//  #10 //003   ----------------------------------------
 BYTE   W96
//  #10 //004   ----------------------------------------
 BYTE   W96
//  #10 //005   ----------------------------------------
 BYTE   W96
//  #10 //006   ----------------------------------------
 BYTE   W96
//  #10 //007   ----------------------------------------
 BYTE   W72
 BYTE   VOL   37*PokemonMysteryDungeonExplorersofSkyInTheMorningSun_mvl/mxv
 BYTE   W24
//  #10 //008   ----------------------------------------
 BYTE   N24  Dn2  v064
 BYTE   W24
 BYTE   N48  An2
 BYTE   W48
 BYTE   N24
 BYTE   W24
//  #10 //009   ----------------------------------------
 BYTE   N12  Bn2
 BYTE   W12
 BYTE   N54  An2
 BYTE   W54
 BYTE   N05  An2  v024
 BYTE   W06
 BYTE   N42  Gn2  v064
 BYTE   W24
//  #10 //010   ----------------------------------------
 BYTE   W19
 BYTE   N01  Gn2  v024
 BYTE   W05
 BYTE   N42  Fs2  v064
 BYTE   W44
 BYTE   N04  Fs2  v016
 BYTE   W04
 BYTE   N44  Bn2  v064
 BYTE   W24
//  #10 //011   ----------------------------------------
 BYTE   W20
 BYTE   N01  Bn2  v016
 BYTE   W04
 BYTE   N44  Dn3  v064
 BYTE   W44
 BYTE   N04  Dn3  v016
 BYTE   W04
 BYTE   N44  En3  v064
 BYTE   W24
//  #10 //012   ----------------------------------------
 BYTE   W20
 BYTE   N03  En3  v016
 BYTE   W04
 BYTE   N66  Fs3  v064
 BYTE   W66
 BYTE   N01  Fs3  v016
 BYTE   W06
//  #10 //013   ----------------------------------------
 BYTE   N12  En3  v064
 BYTE   W12
 BYTE   N84
 BYTE   W84
//  #10 //014   ----------------------------------------
 BYTE   N12  En3  v016
 BYTE   W12
 BYTE   En3  v004
 BYTE   W12
 BYTE   N60  Fs3  v064
 BYTE   W60
 BYTE   N12  Fs3  v016
 BYTE   W12
//  #10 //015   ----------------------------------------
 BYTE   En3  v064
 BYTE   W12
 BYTE   N84
 BYTE   W84
//  #10 //016   ----------------------------------------
 BYTE   N12  En3  v016
 BYTE   W12
 BYTE   En3  v004
 BYTE   W12
 BYTE   VOL   37*PokemonMysteryDungeonExplorersofSkyInTheMorningSun_mvl/mxv
 BYTE   TIE  An3  v064
 BYTE   W06
 BYTE   VOL   34*PokemonMysteryDungeonExplorersofSkyInTheMorningSun_mvl/mxv
 BYTE   W06
 BYTE   VOL   32*PokemonMysteryDungeonExplorersofSkyInTheMorningSun_mvl/mxv
 BYTE   W06
 BYTE   VOL   30*PokemonMysteryDungeonExplorersofSkyInTheMorningSun_mvl/mxv
 BYTE   W06
 BYTE   VOL   28*PokemonMysteryDungeonExplorersofSkyInTheMorningSun_mvl/mxv
 BYTE   W06
 BYTE   VOL   27*PokemonMysteryDungeonExplorersofSkyInTheMorningSun_mvl/mxv
 BYTE   W06
 BYTE   VOL   25*PokemonMysteryDungeonExplorersofSkyInTheMorningSun_mvl/mxv
 BYTE   W06
 BYTE   VOL   23*PokemonMysteryDungeonExplorersofSkyInTheMorningSun_mvl/mxv
 BYTE   W06
 BYTE   VOL   22*PokemonMysteryDungeonExplorersofSkyInTheMorningSun_mvl/mxv
 BYTE   W06
 BYTE   VOL   20*PokemonMysteryDungeonExplorersofSkyInTheMorningSun_mvl/mxv
 BYTE   W06
 BYTE   VOL   19*PokemonMysteryDungeonExplorersofSkyInTheMorningSun_mvl/mxv
 BYTE   W06
 BYTE   VOL   18*PokemonMysteryDungeonExplorersofSkyInTheMorningSun_mvl/mxv
 BYTE   W06
//  #10 //017   ----------------------------------------
 BYTE   VOL   16*PokemonMysteryDungeonExplorersofSkyInTheMorningSun_mvl/mxv
 BYTE   W06
 BYTE   VOL   14*PokemonMysteryDungeonExplorersofSkyInTheMorningSun_mvl/mxv
 BYTE   W06
 BYTE   VOL   13*PokemonMysteryDungeonExplorersofSkyInTheMorningSun_mvl/mxv
 BYTE   W06
 BYTE   VOL   12*PokemonMysteryDungeonExplorersofSkyInTheMorningSun_mvl/mxv
 BYTE   W06
 BYTE   VOL   11*PokemonMysteryDungeonExplorersofSkyInTheMorningSun_mvl/mxv
 BYTE   W06
 BYTE   VOL   10*PokemonMysteryDungeonExplorersofSkyInTheMorningSun_mvl/mxv
 BYTE   W06
 BYTE   VOL   8*PokemonMysteryDungeonExplorersofSkyInTheMorningSun_mvl/mxv
 BYTE   W06
 BYTE   VOL   8*PokemonMysteryDungeonExplorersofSkyInTheMorningSun_mvl/mxv
 BYTE   W06
 BYTE   EOT
 BYTE   VOL   6*PokemonMysteryDungeonExplorersofSkyInTheMorningSun_mvl/mxv
 BYTE   N12  An3  v016
 BYTE   W12
 BYTE   An3  v004
 BYTE   W36
//  #10 //018   ----------------------------------------
 BYTE   W24
Label_01687EBA:
 BYTE   VOL   6*PokemonMysteryDungeonExplorersofSkyInTheMorningSun_mvl/mxv
 BYTE   W72
//  #10 //019   ----------------------------------------
 BYTE   W96
//  #10 //020   ----------------------------------------
 BYTE   W96
//  #10 //021   ----------------------------------------
 BYTE   W96
//  #10 //022   ----------------------------------------
 BYTE   W96
//  #10 //023   ----------------------------------------
 BYTE   W96
//  #10 //024   ----------------------------------------
 BYTE   W96
//  #10 //025   ----------------------------------------
 BYTE   W96
//  #10 //026   ----------------------------------------
 BYTE   W96
//  #10 //027   ----------------------------------------
 BYTE   W96
//  #10 //028   ----------------------------------------
 BYTE   W96
//  #10 //029   ----------------------------------------
 BYTE   W96
//  #10 //030   ----------------------------------------
 BYTE   W96
//  #10 //031   ----------------------------------------
 BYTE   W96
//  #10 //032   ----------------------------------------
 BYTE   W96
//  #10 //033   ----------------------------------------
 BYTE   W96
//  #10 //034   ----------------------------------------
 BYTE   W96
//  #10 //035   ----------------------------------------
 BYTE   W96
//  #10 //036   ----------------------------------------
 BYTE   W96
//  #10 //037   ----------------------------------------
 BYTE   W96
//  #10 //038   ----------------------------------------
 BYTE   W96
//  #10 //039   ----------------------------------------
 BYTE   W96
//  #10 //040   ----------------------------------------
 BYTE   W96
//  #10 //041   ----------------------------------------
 BYTE   W24
 BYTE   VOL   27*PokemonMysteryDungeonExplorersofSkyInTheMorningSun_mvl/mxv
 BYTE   W48
 BYTE   N12  Gn2  v080
 BYTE   W12
 BYTE   An2
 BYTE   W12
//  #10 //042   ----------------------------------------
 BYTE   As2
 BYTE   W12
 BYTE   Cn3
 BYTE   W12
 BYTE   N24  Dn3
 BYTE   W24
 BYTE   N12  As2
 BYTE   W12
 BYTE   N36
 BYTE   W36
//  #10 //043   ----------------------------------------
 BYTE   N12  As2  v040
 BYTE   W12
 BYTE   As2  v024
 BYTE   W12
 BYTE   Fn3  v080
 BYTE   W12
 BYTE   Fn3  v040
 BYTE   W12
 BYTE   Cn3  v080
 BYTE   W12
 BYTE   N36
 BYTE   W36
//  #10 //044   ----------------------------------------
 BYTE   N12  Cn3  v040
 BYTE   W12
 BYTE   Cn3  v024
 BYTE   W12
 BYTE   N24  Gn3  v080
 BYTE   W24
 BYTE   N12  Dn3
 BYTE   W12
 BYTE   N24
 BYTE   W24
 BYTE   N12  Cn3
 BYTE   W12
//  #10 //045   ----------------------------------------
 BYTE   Cn3  v040
 BYTE   W12
 BYTE   N60  Dn3  v080
 BYTE   W60
 BYTE   N12  Cn3  v040
 BYTE   W12
 BYTE   Cn3  v024
 BYTE   W12
//  #10 //046   ----------------------------------------
 BYTE   N24  Dn3  v080
 BYTE   W24
 BYTE   TIE  Ds3
 BYTE   W72
//  #10 //047   ----------------------------------------
 BYTE   W96
//  #10 //048   ----------------------------------------
 BYTE   W96
//  #10 //049   ----------------------------------------
 BYTE   EOT
 BYTE   N12  Ds3  v040
 BYTE   W12
 BYTE   Ds3  v024
 BYTE   W12
 BYTE   N24  Ds3  v080
 BYTE   W24
 BYTE   N12  Dn3
 BYTE   W12
 BYTE   Cn3
 BYTE   W12
 BYTE   Cn3  v040
 BYTE   W12
 BYTE   Ds3  v080
 BYTE   W12
//  #10 //050   ----------------------------------------
 BYTE   W12
 BYTE   TIE  Dn3
 BYTE   N12  Ds3  v040
 BYTE   W42
 BYTE   VOL   27*PokemonMysteryDungeonExplorersofSkyInTheMorningSun_mvl/mxv
 BYTE   W06
 BYTE   VOL   26*PokemonMysteryDungeonExplorersofSkyInTheMorningSun_mvl/mxv
 BYTE   W06
 BYTE   VOL   25*PokemonMysteryDungeonExplorersofSkyInTheMorningSun_mvl/mxv
 BYTE   W06
 BYTE   VOL   24*PokemonMysteryDungeonExplorersofSkyInTheMorningSun_mvl/mxv
 BYTE   W06
 BYTE   VOL   23*PokemonMysteryDungeonExplorersofSkyInTheMorningSun_mvl/mxv
 BYTE   W06
 BYTE   VOL   23*PokemonMysteryDungeonExplorersofSkyInTheMorningSun_mvl/mxv
 BYTE   W06
 BYTE   VOL   22*PokemonMysteryDungeonExplorersofSkyInTheMorningSun_mvl/mxv
 BYTE   W06
//  #10 //051   ----------------------------------------
 BYTE   VOL   22*PokemonMysteryDungeonExplorersofSkyInTheMorningSun_mvl/mxv
 BYTE   W06
 BYTE   VOL   21*PokemonMysteryDungeonExplorersofSkyInTheMorningSun_mvl/mxv
 BYTE   W06
 BYTE   VOL   20*PokemonMysteryDungeonExplorersofSkyInTheMorningSun_mvl/mxv
 BYTE   W06
 BYTE   VOL   20*PokemonMysteryDungeonExplorersofSkyInTheMorningSun_mvl/mxv
 BYTE   W12
 BYTE   VOL   19*PokemonMysteryDungeonExplorersofSkyInTheMorningSun_mvl/mxv
 BYTE   W06
 BYTE   VOL   18*PokemonMysteryDungeonExplorersofSkyInTheMorningSun_mvl/mxv
 BYTE   W06
 BYTE   VOL   18*PokemonMysteryDungeonExplorersofSkyInTheMorningSun_mvl/mxv
 BYTE   W06
 BYTE   VOL   17*PokemonMysteryDungeonExplorersofSkyInTheMorningSun_mvl/mxv
 BYTE   W06
 BYTE   VOL   17*PokemonMysteryDungeonExplorersofSkyInTheMorningSun_mvl/mxv
 BYTE   W06
 BYTE   VOL   16*PokemonMysteryDungeonExplorersofSkyInTheMorningSun_mvl/mxv
 BYTE   W06
 BYTE   VOL   15*PokemonMysteryDungeonExplorersofSkyInTheMorningSun_mvl/mxv
 BYTE   W06
 BYTE   VOL   15*PokemonMysteryDungeonExplorersofSkyInTheMorningSun_mvl/mxv
 BYTE   W06
 BYTE   VOL   14*PokemonMysteryDungeonExplorersofSkyInTheMorningSun_mvl/mxv
 BYTE   W06
 BYTE   VOL   14*PokemonMysteryDungeonExplorersofSkyInTheMorningSun_mvl/mxv
 BYTE   W06
 BYTE   VOL   14*PokemonMysteryDungeonExplorersofSkyInTheMorningSun_mvl/mxv
 BYTE   W06
//  #10 //052   ----------------------------------------
 BYTE   VOL   13*PokemonMysteryDungeonExplorersofSkyInTheMorningSun_mvl/mxv
 BYTE   W06
 BYTE   VOL   12*PokemonMysteryDungeonExplorersofSkyInTheMorningSun_mvl/mxv
 BYTE   W06
 BYTE   VOL   12*PokemonMysteryDungeonExplorersofSkyInTheMorningSun_mvl/mxv
 BYTE   W06
 BYTE   VOL   11*PokemonMysteryDungeonExplorersofSkyInTheMorningSun_mvl/mxv
 BYTE   W06
 BYTE   VOL   11*PokemonMysteryDungeonExplorersofSkyInTheMorningSun_mvl/mxv
 BYTE   W06
 BYTE   VOL   11*PokemonMysteryDungeonExplorersofSkyInTheMorningSun_mvl/mxv
 BYTE   W06
 BYTE   VOL   10*PokemonMysteryDungeonExplorersofSkyInTheMorningSun_mvl/mxv
 BYTE   W06
 BYTE   VOL   10*PokemonMysteryDungeonExplorersofSkyInTheMorningSun_mvl/mxv
 BYTE   W06
 BYTE   VOL   10*PokemonMysteryDungeonExplorersofSkyInTheMorningSun_mvl/mxv
 BYTE   W06
 BYTE   VOL   8*PokemonMysteryDungeonExplorersofSkyInTheMorningSun_mvl/mxv
 BYTE   W06
 BYTE   VOL   8*PokemonMysteryDungeonExplorersofSkyInTheMorningSun_mvl/mxv
 BYTE   W06
 BYTE   VOL   8*PokemonMysteryDungeonExplorersofSkyInTheMorningSun_mvl/mxv
 BYTE   W06
 BYTE   VOL   8*PokemonMysteryDungeonExplorersofSkyInTheMorningSun_mvl/mxv
 BYTE   W06
 BYTE   VOL   7*PokemonMysteryDungeonExplorersofSkyInTheMorningSun_mvl/mxv
 BYTE   W06
 BYTE   VOL   6*PokemonMysteryDungeonExplorersofSkyInTheMorningSun_mvl/mxv
 BYTE   W06
 BYTE   VOL   6*PokemonMysteryDungeonExplorersofSkyInTheMorningSun_mvl/mxv
 BYTE   W06
//  #10 //053   ----------------------------------------
 BYTE   VOL   6*PokemonMysteryDungeonExplorersofSkyInTheMorningSun_mvl/mxv
 BYTE   W06
 BYTE   VOL   6*PokemonMysteryDungeonExplorersofSkyInTheMorningSun_mvl/mxv
 BYTE   W06
 BYTE   VOL   5*PokemonMysteryDungeonExplorersofSkyInTheMorningSun_mvl/mxv
 BYTE   W06
 BYTE   VOL   5*PokemonMysteryDungeonExplorersofSkyInTheMorningSun_mvl/mxv
 BYTE   W06
 BYTE   EOT
 BYTE   Dn3
 BYTE   VOL   5*PokemonMysteryDungeonExplorersofSkyInTheMorningSun_mvl/mxv
 BYTE   N12
 BYTE   W06
 BYTE   VOL   4*PokemonMysteryDungeonExplorersofSkyInTheMorningSun_mvl/mxv
 BYTE   W06
 BYTE   VOL   4*PokemonMysteryDungeonExplorersofSkyInTheMorningSun_mvl/mxv
 BYTE   N12  Dn3  v024
 BYTE   W12
 BYTE   VOL   3*PokemonMysteryDungeonExplorersofSkyInTheMorningSun_mvl/mxv
 BYTE   W06
 BYTE   VOL   3*PokemonMysteryDungeonExplorersofSkyInTheMorningSun_mvl/mxv
 BYTE   W06
 BYTE   VOL   3*PokemonMysteryDungeonExplorersofSkyInTheMorningSun_mvl/mxv
 BYTE   W06
 BYTE   VOL   3*PokemonMysteryDungeonExplorersofSkyInTheMorningSun_mvl/mxv
 BYTE   W06
 BYTE   VOL   2*PokemonMysteryDungeonExplorersofSkyInTheMorningSun_mvl/mxv
 BYTE   W06
 BYTE   VOL   2*PokemonMysteryDungeonExplorersofSkyInTheMorningSun_mvl/mxv
 BYTE   W06
 BYTE   VOL   1*PokemonMysteryDungeonExplorersofSkyInTheMorningSun_mvl/mxv
 BYTE   W12
//  #10 //054   ----------------------------------------
 BYTE   W96
//  #10 //055   ----------------------------------------
 BYTE   W96
//  #10 //056   ----------------------------------------
 BYTE   W08
 BYTE   VOL   37*PokemonMysteryDungeonExplorersofSkyInTheMorningSun_mvl/mxv
 BYTE   W88
//  #10 //057   ----------------------------------------
 BYTE   W96
//  #10 //058   ----------------------------------------
 BYTE   W96
//  #10 //059   ----------------------------------------
 BYTE   W96
//  #10 //060   ----------------------------------------
 BYTE   W96
//  #10 //061   ----------------------------------------
 BYTE   W96
//  #10 //062   ----------------------------------------
 BYTE   W96
//  #10 //063   ----------------------------------------
 BYTE   W96
//  #10 //064   ----------------------------------------
 BYTE   W96
//  #10 //065   ----------------------------------------
 BYTE   W96
//  #10 //066   ----------------------------------------
 BYTE   W96
//  #10 //067   ----------------------------------------
 BYTE   W96
//  #10 //068   ----------------------------------------
 BYTE   W96
//  #10 //069   ----------------------------------------
 BYTE   W96
//  #10 //070   ----------------------------------------
 BYTE   W96
//  #10 //071   ----------------------------------------
 BYTE   W96
//  #10 //072   ----------------------------------------
 BYTE   W96
//  #10 //073   ----------------------------------------
 BYTE   W96
//  #10 //074   ----------------------------------------
 BYTE   W96
//  #10 //075   ----------------------------------------
 BYTE   W96
//  #10 //076   ----------------------------------------
 BYTE   W96
//  #10 //077   ----------------------------------------
 BYTE   W24
 BYTE   VOL   37*PokemonMysteryDungeonExplorersofSkyInTheMorningSun_mvl/mxv
 BYTE   W72
//  #10 //078   ----------------------------------------
 BYTE   N24  Dn2  v080
 BYTE   W24
 BYTE   N48  An2
 BYTE   W48
 BYTE   N24
 BYTE   W24
//  #10 //079   ----------------------------------------
 BYTE   N12  Bn2
 BYTE   W12
 BYTE   N36  An2
 BYTE   W36
 BYTE   N12  An2  v040
 BYTE   W12
 BYTE   An2  v024
 BYTE   W12
 BYTE   N48  Gn2  v080
 BYTE   W24
//  #10 //080   ----------------------------------------
 BYTE   W24
 BYTE   N36  Fs2
 BYTE   W36
 BYTE   N12  Fs2  v040
 BYTE   W12
 BYTE   N36  Bn2  v080
 BYTE   W24
//  #10 //081   ----------------------------------------
 BYTE   W12
 BYTE   N12  Bn2  v040
 BYTE   W12
 BYTE   N36  Dn3  v080
 BYTE   W36
 BYTE   N12  Dn3  v040
 BYTE   W12
 BYTE   N36  En3  v080
 BYTE   W24
//  #10 //082   ----------------------------------------
 BYTE   W12
 BYTE   N12  En3  v040
 BYTE   W12
 BYTE   N60  Fs3  v080
 BYTE   W60
 BYTE   N12  Fs3  v040
 BYTE   W12
//  #10 //083   ----------------------------------------
 BYTE   En3  v080
 BYTE   W12
 BYTE   N84
 BYTE   W84
//  #10 //084   ----------------------------------------
 BYTE   N12  En3  v040
 BYTE   W12
 BYTE   En3  v024
 BYTE   W12
 BYTE   N60  Fs3  v080
 BYTE   W60
 BYTE   N12  Fs3  v040
 BYTE   W12
//  #10 //085   ----------------------------------------
 BYTE   En3  v080
 BYTE   W12
 BYTE   N84
 BYTE   W84
//  #10 //086   ----------------------------------------
 BYTE   N12  En3  v040
 BYTE   W12
 BYTE   En3  v024
 BYTE   W12
 BYTE   TIE  An3  v080
 BYTE   W12
 BYTE   VOL   37*PokemonMysteryDungeonExplorersofSkyInTheMorningSun_mvl/mxv
 BYTE   W06
 BYTE   VOL   35*PokemonMysteryDungeonExplorersofSkyInTheMorningSun_mvl/mxv
 BYTE   W06
 BYTE   VOL   34*PokemonMysteryDungeonExplorersofSkyInTheMorningSun_mvl/mxv
 BYTE   W06
 BYTE   VOL   31*PokemonMysteryDungeonExplorersofSkyInTheMorningSun_mvl/mxv
 BYTE   W06
 BYTE   VOL   30*PokemonMysteryDungeonExplorersofSkyInTheMorningSun_mvl/mxv
 BYTE   W06
 BYTE   VOL   28*PokemonMysteryDungeonExplorersofSkyInTheMorningSun_mvl/mxv
 BYTE   W06
 BYTE   VOL   28*PokemonMysteryDungeonExplorersofSkyInTheMorningSun_mvl/mxv
 BYTE   W06
 BYTE   VOL   27*PokemonMysteryDungeonExplorersofSkyInTheMorningSun_mvl/mxv
 BYTE   W06
 BYTE   VOL   25*PokemonMysteryDungeonExplorersofSkyInTheMorningSun_mvl/mxv
 BYTE   W06
 BYTE   VOL   23*PokemonMysteryDungeonExplorersofSkyInTheMorningSun_mvl/mxv
 BYTE   W06
//  #10 //087   ----------------------------------------
 BYTE   VOL   22*PokemonMysteryDungeonExplorersofSkyInTheMorningSun_mvl/mxv
 BYTE   W06
 BYTE   VOL   21*PokemonMysteryDungeonExplorersofSkyInTheMorningSun_mvl/mxv
 BYTE   W06
 BYTE   VOL   20*PokemonMysteryDungeonExplorersofSkyInTheMorningSun_mvl/mxv
 BYTE   W06
 BYTE   VOL   19*PokemonMysteryDungeonExplorersofSkyInTheMorningSun_mvl/mxv
 BYTE   W06
 BYTE   VOL   18*PokemonMysteryDungeonExplorersofSkyInTheMorningSun_mvl/mxv
 BYTE   W06
 BYTE   VOL   17*PokemonMysteryDungeonExplorersofSkyInTheMorningSun_mvl/mxv
 BYTE   W06
 BYTE   VOL   15*PokemonMysteryDungeonExplorersofSkyInTheMorningSun_mvl/mxv
 BYTE   W06
 BYTE   VOL   14*PokemonMysteryDungeonExplorersofSkyInTheMorningSun_mvl/mxv
 BYTE   W06
 BYTE   EOT
 BYTE   VOL   13*PokemonMysteryDungeonExplorersofSkyInTheMorningSun_mvl/mxv
 BYTE   N12  An3  v040
 BYTE   W06
 BYTE   VOL   12*PokemonMysteryDungeonExplorersofSkyInTheMorningSun_mvl/mxv
 BYTE   W06
 BYTE   VOL   11*PokemonMysteryDungeonExplorersofSkyInTheMorningSun_mvl/mxv
 BYTE   N12  An3  v024
 BYTE   W06
 BYTE   VOL   10*PokemonMysteryDungeonExplorersofSkyInTheMorningSun_mvl/mxv
 BYTE   W06
 BYTE   VOL   10*PokemonMysteryDungeonExplorersofSkyInTheMorningSun_mvl/mxv
 BYTE   W06
 BYTE   VOL   8*PokemonMysteryDungeonExplorersofSkyInTheMorningSun_mvl/mxv
 BYTE   W06
 BYTE   VOL   8*PokemonMysteryDungeonExplorersofSkyInTheMorningSun_mvl/mxv
 BYTE   W06
 BYTE   VOL   7*PokemonMysteryDungeonExplorersofSkyInTheMorningSun_mvl/mxv
 BYTE   W06
//  #10 //088   ----------------------------------------
 BYTE   W24
 BYTE   GoTo
  POIN2 Label_01687EBA
 BYTE   FINE

//**************** Track 11 (Midi-Chn.10) ****************//

PokemonMysteryDungeonExplorersofSkyInTheMorningSun_011:
//  #11 //000   ----------------------------------------
 BYTE   KEYSH   PokemonMysteryDungeonExplorersofSkyInTheMorningSun_key+0
 BYTE   VOICE   13
 BYTE   MODT 0
 BYTE   LFOS 44
 BYTE   VOL   73*PokemonMysteryDungeonExplorersofSkyInTheMorningSun_mvl/mxv
 BYTE   W96
//  #11 //001   ----------------------------------------
 BYTE   W96
//  #11 //002   ----------------------------------------
 BYTE   W96
//  #11 //003   ----------------------------------------
 BYTE   W96
//  #11 //004   ----------------------------------------
 BYTE   W96
//  #11 //005   ----------------------------------------
 BYTE   W96
//  #11 //006   ----------------------------------------
 BYTE   W24
 BYTE   VOL   12*PokemonMysteryDungeonExplorersofSkyInTheMorningSun_mvl/mxv
 BYTE   PAN   c_v-64
 BYTE   VOL   12*PokemonMysteryDungeonExplorersofSkyInTheMorningSun_mvl/mxv
 BYTE   BEND   c_v+0
 BYTE   W72
//  #11 //007   ----------------------------------------
 BYTE   W48
 BYTE   VOL   12*PokemonMysteryDungeonExplorersofSkyInTheMorningSun_mvl/mxv
 BYTE   W48
//  #11 //008   ----------------------------------------
 BYTE   W24
 BYTE   N24  Dn4  v048
 BYTE   W24
 BYTE   N36  An4
 BYTE   W36
 BYTE   N12  An4  v008
 BYTE   W12
//  #11 //009   ----------------------------------------
 BYTE   N24  An4  v048
 BYTE   W24
 BYTE   N12  Bn4
 BYTE   W12
 BYTE   N36  An4
 BYTE   W36
 BYTE   N12
 BYTE   W12
 BYTE   An4  v016
 BYTE   W12
//  #11 //010   ----------------------------------------
 BYTE   N48  Gn4  v048
 BYTE   W48
 BYTE   N42  Fs4
 BYTE   W42
 BYTE   N01  Fs4  v012
 BYTE   W06
//  #11 //011   ----------------------------------------
 BYTE   N36  Bn4  v048
 BYTE   W36
 BYTE   N12  Bn4  v012
 BYTE   W12
 BYTE   N36  Dn5  v048
 BYTE   W36
 BYTE   N12  Dn5  v012
 BYTE   W12
//  #11 //012   ----------------------------------------
 BYTE   N36  En5  v048
 BYTE   W36
 BYTE   N12  En5  v012
 BYTE   W12
 BYTE   N60  Fs5  v048
 BYTE   W48
//  #11 //013   ----------------------------------------
Label_016880DF:
 BYTE   W12
 BYTE   N12  Fs5  v012
 BYTE   W12
 BYTE   N06  En5  v048
 BYTE   W06
 BYTE   En5  v008
 BYTE   W06
 BYTE   N84  En5  v048
 BYTE   W60
 BYTE   PEND 
//  #11 //014   ----------------------------------------
 BYTE   W24
 BYTE   N12  En5  v020
 BYTE   W12
 BYTE   En5  v004
 BYTE   W12
 BYTE   N60  Fs5  v048
 BYTE   W48
//  #11 //015   ----------------------------------------
 BYTE   PATT
  POIN2 Label_016880DF
//  #11 //016   ----------------------------------------
 BYTE   W24
 BYTE   N12  En5  v016
 BYTE   W12
 BYTE   En5  v004
 BYTE   W12
 BYTE   TIE  An5  v048
 BYTE   W42
 BYTE   VOL   12*PokemonMysteryDungeonExplorersofSkyInTheMorningSun_mvl/mxv
 BYTE   W06
//  #11 //017   ----------------------------------------
 BYTE   VOL   11*PokemonMysteryDungeonExplorersofSkyInTheMorningSun_mvl/mxv
 BYTE   W06
 BYTE   VOL   10*PokemonMysteryDungeonExplorersofSkyInTheMorningSun_mvl/mxv
 BYTE   W06
 BYTE   VOL   10*PokemonMysteryDungeonExplorersofSkyInTheMorningSun_mvl/mxv
 BYTE   W06
 BYTE   VOL   9*PokemonMysteryDungeonExplorersofSkyInTheMorningSun_mvl/mxv
 BYTE   W06
 BYTE   VOL   8*PokemonMysteryDungeonExplorersofSkyInTheMorningSun_mvl/mxv
 BYTE   W06
 BYTE   VOL   8*PokemonMysteryDungeonExplorersofSkyInTheMorningSun_mvl/mxv
 BYTE   W06
 BYTE   VOL   6*PokemonMysteryDungeonExplorersofSkyInTheMorningSun_mvl/mxv
 BYTE   W06
 BYTE   VOL   6*PokemonMysteryDungeonExplorersofSkyInTheMorningSun_mvl/mxv
 BYTE   W06
 BYTE   VOL   6*PokemonMysteryDungeonExplorersofSkyInTheMorningSun_mvl/mxv
 BYTE   W06
 BYTE   VOL   5*PokemonMysteryDungeonExplorersofSkyInTheMorningSun_mvl/mxv
 BYTE   W06
 BYTE   VOL   5*PokemonMysteryDungeonExplorersofSkyInTheMorningSun_mvl/mxv
 BYTE   W06
 BYTE   VOL   4*PokemonMysteryDungeonExplorersofSkyInTheMorningSun_mvl/mxv
 BYTE   W06
 BYTE   VOL   3*PokemonMysteryDungeonExplorersofSkyInTheMorningSun_mvl/mxv
 BYTE   W06
 BYTE   VOL   3*PokemonMysteryDungeonExplorersofSkyInTheMorningSun_mvl/mxv
 BYTE   W06
 BYTE   VOL   3*PokemonMysteryDungeonExplorersofSkyInTheMorningSun_mvl/mxv
 BYTE   W06
 BYTE   VOL   2*PokemonMysteryDungeonExplorersofSkyInTheMorningSun_mvl/mxv
 BYTE   W06
//  #11 //018   ----------------------------------------
 BYTE   EOT
 BYTE   VOL   1*PokemonMysteryDungeonExplorersofSkyInTheMorningSun_mvl/mxv
 BYTE   W24
Label_01688134:
 BYTE   PAN   c_v-64
 BYTE   VOL   1*PokemonMysteryDungeonExplorersofSkyInTheMorningSun_mvl/mxv
 BYTE   BEND   c_v+0
 BYTE   W72
//  #11 //019   ----------------------------------------
 BYTE   W96
//  #11 //020   ----------------------------------------
 BYTE   W96
//  #11 //021   ----------------------------------------
 BYTE   W96
//  #11 //022   ----------------------------------------
 BYTE   W96
//  #11 //023   ----------------------------------------
 BYTE   W96
//  #11 //024   ----------------------------------------
 BYTE   W96
//  #11 //025   ----------------------------------------
 BYTE   W96
//  #11 //026   ----------------------------------------
 BYTE   W96
//  #11 //027   ----------------------------------------
 BYTE   W96
//  #11 //028   ----------------------------------------
 BYTE   W96
//  #11 //029   ----------------------------------------
 BYTE   W96
//  #11 //030   ----------------------------------------
 BYTE   W96
//  #11 //031   ----------------------------------------
 BYTE   W96
//  #11 //032   ----------------------------------------
 BYTE   W24
 BYTE   VOL   12*PokemonMysteryDungeonExplorersofSkyInTheMorningSun_mvl/mxv
 BYTE   PAN   c_v+0
 BYTE   VOL   48*PokemonMysteryDungeonExplorersofSkyInTheMorningSun_mvl/mxv
 BYTE   BEND   c_v+0
 BYTE   W72
//  #11 //033   ----------------------------------------
 BYTE   W24
 BYTE   VOL   48*PokemonMysteryDungeonExplorersofSkyInTheMorningSun_mvl/mxv
 BYTE   W52
 BYTE   W01
 BYTE   N12  Dn4  v056
 BYTE   W12
 BYTE   En4
 BYTE   W07
//  #11 //034   ----------------------------------------
 BYTE   W05
 BYTE   Fs4
 BYTE   W12
 BYTE   Gn4
 BYTE   W12
 BYTE   N48  An4
 BYTE   W48
 BYTE   N12  An4  v020
 BYTE   W12
 BYTE   An4  v008
 BYTE   W07
//  #11 //035   ----------------------------------------
 BYTE   W05
 BYTE   Dn4  v056
 BYTE   W12
 BYTE   N84
 BYTE   W78
 BYTE   W01
//  #11 //036   ----------------------------------------
 BYTE   W05
 BYTE   N12  Dn4  v020
 BYTE   W12
 BYTE   Dn4  v008
 BYTE   W12
 BYTE   N24  Cn4  v056
 BYTE   W24
 BYTE   N12  Fn4
 BYTE   W12
 BYTE   N24
 BYTE   W24
 BYTE   N12  Cn4
 BYTE   W07
//  #11 //037   ----------------------------------------
 BYTE   W05
 BYTE   Cn4  v020
 BYTE   W12
 BYTE   N84  Cn4  v056
 BYTE   W78
 BYTE   W01
//  #11 //038   ----------------------------------------
 BYTE   W05
 BYTE   N12  Cn4  v020
 BYTE   W12
 BYTE   Cn4  v008
 BYTE   W12
 BYTE   N24  As3  v056
 BYTE   W24
 BYTE   N12  Fn4
 BYTE   W12
 BYTE   N24
 BYTE   W24
 BYTE   N12  Fn4  v020
 BYTE   W07
//  #11 //039   ----------------------------------------
 BYTE   W05
 BYTE   Fn4  v008
 BYTE   W15
 BYTE   Fn4  v012
 BYTE   W09
 BYTE   N24  Cn4  v056
 BYTE   W24
 BYTE   N12  Gn4
 BYTE   W12
 BYTE   N24
 BYTE   W24
 BYTE   N12  Gn4  v020
 BYTE   W07
//  #11 //040   ----------------------------------------
 BYTE   W05
 BYTE   Gn4  v008
 BYTE   W15
 BYTE   Gn4  v012
 BYTE   W09
 BYTE   N24  Dn4  v056
 BYTE   W24
 BYTE   N12  An4
 BYTE   W12
 BYTE   N24
 BYTE   W24
 BYTE   N12  Gn4
 BYTE   W07
//  #11 //041   ----------------------------------------
 BYTE   W05
 BYTE   Gn4  v020
 BYTE   W12
 BYTE   N30  An4  v056
 BYTE   W78
 BYTE   W01
//  #11 //042   ----------------------------------------
 BYTE   W96
//  #11 //043   ----------------------------------------
 BYTE   W96
//  #11 //044   ----------------------------------------
 BYTE   W96
//  #11 //045   ----------------------------------------
 BYTE   W96
//  #11 //046   ----------------------------------------
 BYTE   W96
//  #11 //047   ----------------------------------------
 BYTE   W96
//  #11 //048   ----------------------------------------
 BYTE   W96
//  #11 //049   ----------------------------------------
 BYTE   W96
//  #11 //050   ----------------------------------------
 BYTE   W96
//  #11 //051   ----------------------------------------
 BYTE   W96
//  #11 //052   ----------------------------------------
 BYTE   W96
//  #11 //053   ----------------------------------------
 BYTE   W96
//  #11 //054   ----------------------------------------
 BYTE   W96
//  #11 //055   ----------------------------------------
 BYTE   W96
//  #11 //056   ----------------------------------------
 BYTE   W96
//  #11 //057   ----------------------------------------
 BYTE   W96
//  #11 //058   ----------------------------------------
 BYTE   W96
//  #11 //059   ----------------------------------------
 BYTE   W96
//  #11 //060   ----------------------------------------
 BYTE   W96
//  #11 //061   ----------------------------------------
 BYTE   W96
//  #11 //062   ----------------------------------------
 BYTE   W96
//  #11 //063   ----------------------------------------
 BYTE   W96
//  #11 //064   ----------------------------------------
 BYTE   W96
//  #11 //065   ----------------------------------------
 BYTE   W96
//  #11 //066   ----------------------------------------
 BYTE   W96
//  #11 //067   ----------------------------------------
 BYTE   W96
//  #11 //068   ----------------------------------------
 BYTE   W96
//  #11 //069   ----------------------------------------
 BYTE   W96
//  #11 //070   ----------------------------------------
 BYTE   W96
//  #11 //071   ----------------------------------------
 BYTE   W96
//  #11 //072   ----------------------------------------
 BYTE   W96
//  #11 //073   ----------------------------------------
 BYTE   W96
//  #11 //074   ----------------------------------------
 BYTE   W96
//  #11 //075   ----------------------------------------
 BYTE   W96
//  #11 //076   ----------------------------------------
 BYTE   W96
//  #11 //077   ----------------------------------------
 BYTE   W96
//  #11 //078   ----------------------------------------
 BYTE   W96
//  #11 //079   ----------------------------------------
 BYTE   W96
//  #11 //080   ----------------------------------------
 BYTE   W96
//  #11 //081   ----------------------------------------
 BYTE   W96
//  #11 //082   ----------------------------------------
 BYTE   W96
//  #11 //083   ----------------------------------------
 BYTE   W96
//  #11 //084   ----------------------------------------
 BYTE   W96
//  #11 //085   ----------------------------------------
 BYTE   W96
//  #11 //086   ----------------------------------------
 BYTE   W96
//  #11 //087   ----------------------------------------
 BYTE   W96
//  #11 //088   ----------------------------------------
 BYTE   W24
 BYTE   GoTo
  POIN2 Label_01688134
 BYTE   FINE

//**************** Track 12 (Midi-Chn.11) ****************//

PokemonMysteryDungeonExplorersofSkyInTheMorningSun_012:
//  #12 //000   ----------------------------------------
 BYTE   KEYSH   PokemonMysteryDungeonExplorersofSkyInTheMorningSun_key+0
 BYTE   VOICE   48
 BYTE   MODT 0
 BYTE   LFOS 44
 BYTE   VOL   73*PokemonMysteryDungeonExplorersofSkyInTheMorningSun_mvl/mxv
 BYTE   PAN   c_v-34
 BYTE   VOL   30*PokemonMysteryDungeonExplorersofSkyInTheMorningSun_mvl/mxv
 BYTE   BEND   c_v+0
 BYTE   W96
//  #12 //001   ----------------------------------------
 BYTE   W96
//  #12 //002   ----------------------------------------
 BYTE   W96
//  #12 //003   ----------------------------------------
 BYTE   W96
//  #12 //004   ----------------------------------------
 BYTE   W96
//  #12 //005   ----------------------------------------
 BYTE   W96
//  #12 //006   ----------------------------------------
 BYTE   W96
//  #12 //007   ----------------------------------------
 BYTE   W96
//  #12 //008   ----------------------------------------
Label_01688224:
 BYTE   W21
 BYTE   VOL   9*PokemonMysteryDungeonExplorersofSkyInTheMorningSun_mvl/mxv
 BYTE   W03
 BYTE   N92  Bn2  v072
 BYTE   N92  Dn3  v052
 BYTE   W03
 BYTE   VOL   13*PokemonMysteryDungeonExplorersofSkyInTheMorningSun_mvl/mxv
 BYTE   W06
 BYTE   VOL   17*PokemonMysteryDungeonExplorersofSkyInTheMorningSun_mvl/mxv
 BYTE   W06
 BYTE   VOL   20*PokemonMysteryDungeonExplorersofSkyInTheMorningSun_mvl/mxv
 BYTE   W06
 BYTE   VOL   23*PokemonMysteryDungeonExplorersofSkyInTheMorningSun_mvl/mxv
 BYTE   W06
 BYTE   VOL   27*PokemonMysteryDungeonExplorersofSkyInTheMorningSun_mvl/mxv
 BYTE   W06
 BYTE   VOL   28*PokemonMysteryDungeonExplorersofSkyInTheMorningSun_mvl/mxv
 BYTE   W06
 BYTE   VOL   30*PokemonMysteryDungeonExplorersofSkyInTheMorningSun_mvl/mxv
 BYTE   W32
 BYTE   W01
 BYTE   PEND 
//  #12 //009   ----------------------------------------
Label_01688240:
 BYTE   W05
 BYTE   VOL   29*PokemonMysteryDungeonExplorersofSkyInTheMorningSun_mvl/mxv
 BYTE   W06
 BYTE   VOL   28*PokemonMysteryDungeonExplorersofSkyInTheMorningSun_mvl/mxv
 BYTE   W06
 BYTE   VOL   24*PokemonMysteryDungeonExplorersofSkyInTheMorningSun_mvl/mxv
 BYTE   W07
 BYTE   N92  Cs3  v072
 BYTE   N92  En3  v052
 BYTE   W01
 BYTE   VOL   24*PokemonMysteryDungeonExplorersofSkyInTheMorningSun_mvl/mxv
 BYTE   W06
 BYTE   VOL   27*PokemonMysteryDungeonExplorersofSkyInTheMorningSun_mvl/mxv
 BYTE   W01
 BYTE   VOL   27*PokemonMysteryDungeonExplorersofSkyInTheMorningSun_mvl/mxv
 BYTE   W03
 BYTE   VOL   27*PokemonMysteryDungeonExplorersofSkyInTheMorningSun_mvl/mxv
 BYTE   W06
 BYTE   VOL   30*PokemonMysteryDungeonExplorersofSkyInTheMorningSun_mvl/mxv
 BYTE   W04
 BYTE   VOL   30*PokemonMysteryDungeonExplorersofSkyInTheMorningSun_mvl/mxv
 BYTE   W32
 BYTE   W02
 BYTE   VOL   30*PokemonMysteryDungeonExplorersofSkyInTheMorningSun_mvl/mxv
 BYTE   W12
 BYTE   VOL   30*PokemonMysteryDungeonExplorersofSkyInTheMorningSun_mvl/mxv
 BYTE   W05
 BYTE   PEND 
//  #12 //010   ----------------------------------------
Label_01688262:
 BYTE   W01
 BYTE   VOL   29*PokemonMysteryDungeonExplorersofSkyInTheMorningSun_mvl/mxv
 BYTE   W06
 BYTE   VOL   28*PokemonMysteryDungeonExplorersofSkyInTheMorningSun_mvl/mxv
 BYTE   W06
 BYTE   VOL   28*PokemonMysteryDungeonExplorersofSkyInTheMorningSun_mvl/mxv
 BYTE   W06
 BYTE   VOL   27*PokemonMysteryDungeonExplorersofSkyInTheMorningSun_mvl/mxv
 BYTE   W05
 BYTE   TIE  Bn2  v072
 BYTE   TIE  Dn3  v052
 BYTE   W01
 BYTE   VOL   25*PokemonMysteryDungeonExplorersofSkyInTheMorningSun_mvl/mxv
 BYTE   W04
 BYTE   VOL   24*PokemonMysteryDungeonExplorersofSkyInTheMorningSun_mvl/mxv
 BYTE   W06
 BYTE   VOL   26*PokemonMysteryDungeonExplorersofSkyInTheMorningSun_mvl/mxv
 BYTE   W06
 BYTE   VOL   27*PokemonMysteryDungeonExplorersofSkyInTheMorningSun_mvl/mxv
 BYTE   W06
 BYTE   VOL   28*PokemonMysteryDungeonExplorersofSkyInTheMorningSun_mvl/mxv
 BYTE   W06
 BYTE   VOL   29*PokemonMysteryDungeonExplorersofSkyInTheMorningSun_mvl/mxv
 BYTE   W06
 BYTE   VOL   29*PokemonMysteryDungeonExplorersofSkyInTheMorningSun_mvl/mxv
 BYTE   W06
 BYTE   VOL   30*PokemonMysteryDungeonExplorersofSkyInTheMorningSun_mvl/mxv
 BYTE   W30
 BYTE   W01
 BYTE   PEND 
//  #12 //011   ----------------------------------------
Label_01688286:
 BYTE   W60
 BYTE   W03
 BYTE   VOL   29*PokemonMysteryDungeonExplorersofSkyInTheMorningSun_mvl/mxv
 BYTE   W24
 BYTE   VOL   28*PokemonMysteryDungeonExplorersofSkyInTheMorningSun_mvl/mxv
 BYTE   W06
 BYTE   VOL   28*PokemonMysteryDungeonExplorersofSkyInTheMorningSun_mvl/mxv
 BYTE   W03
 BYTE   PEND 
//  #12 //012   ----------------------------------------
Label_01688290:
 BYTE   W03
 BYTE   VOL   28*PokemonMysteryDungeonExplorersofSkyInTheMorningSun_mvl/mxv
 BYTE   W06
 BYTE   VOL   27*PokemonMysteryDungeonExplorersofSkyInTheMorningSun_mvl/mxv
 BYTE   W06
 BYTE   VOL   27*PokemonMysteryDungeonExplorersofSkyInTheMorningSun_mvl/mxv
 BYTE   W06
 BYTE   VOL   23*PokemonMysteryDungeonExplorersofSkyInTheMorningSun_mvl/mxv
 BYTE   W02
 BYTE   PEND 
 BYTE   EOT
 BYTE   Bn2  v062
 BYTE   W01
 BYTE   TIE  Bn2  v072
 BYTE   TIE  Dn3  v052
 BYTE   W03
 BYTE   VOL   24*PokemonMysteryDungeonExplorersofSkyInTheMorningSun_mvl/mxv
 BYTE   W06
 BYTE   VOL   26*PokemonMysteryDungeonExplorersofSkyInTheMorningSun_mvl/mxv
 BYTE   W06
 BYTE   VOL   27*PokemonMysteryDungeonExplorersofSkyInTheMorningSun_mvl/mxv
 BYTE   W06
 BYTE   VOL   28*PokemonMysteryDungeonExplorersofSkyInTheMorningSun_mvl/mxv
 BYTE   W06
 BYTE   VOL   28*PokemonMysteryDungeonExplorersofSkyInTheMorningSun_mvl/mxv
 BYTE   W06
 BYTE   VOL   29*PokemonMysteryDungeonExplorersofSkyInTheMorningSun_mvl/mxv
 BYTE   W06
 BYTE   VOL   29*PokemonMysteryDungeonExplorersofSkyInTheMorningSun_mvl/mxv
 BYTE   W32
 BYTE   W01
//  #12 //013   ----------------------------------------
Label_016882B6:
 BYTE   W68
 BYTE   W03
 BYTE   VOL   28*PokemonMysteryDungeonExplorersofSkyInTheMorningSun_mvl/mxv
 BYTE   W18
 BYTE   VOL   28*PokemonMysteryDungeonExplorersofSkyInTheMorningSun_mvl/mxv
 BYTE   W07
 BYTE   PEND 
//  #12 //014   ----------------------------------------
Label_016882BE:
 BYTE   W05
 BYTE   VOL   27*PokemonMysteryDungeonExplorersofSkyInTheMorningSun_mvl/mxv
 BYTE   W06
 BYTE   VOL   27*PokemonMysteryDungeonExplorersofSkyInTheMorningSun_mvl/mxv
 BYTE   W06
 BYTE   VOL   27*PokemonMysteryDungeonExplorersofSkyInTheMorningSun_mvl/mxv
 BYTE   W06
 BYTE   PEND 
 BYTE   EOT
 BYTE   Bn2  v062
 BYTE   W01
 BYTE   N92  Cs3  v052
 BYTE   W01
 BYTE   VOL   26*PokemonMysteryDungeonExplorersofSkyInTheMorningSun_mvl/mxv
 BYTE   W06
 BYTE   VOL   27*PokemonMysteryDungeonExplorersofSkyInTheMorningSun_mvl/mxv
 BYTE   W06
 BYTE   VOL   28*PokemonMysteryDungeonExplorersofSkyInTheMorningSun_mvl/mxv
 BYTE   W06
 BYTE   VOL   29*PokemonMysteryDungeonExplorersofSkyInTheMorningSun_mvl/mxv
 BYTE   W06
 BYTE   VOL   29*PokemonMysteryDungeonExplorersofSkyInTheMorningSun_mvl/mxv
 BYTE   W44
 BYTE   W02
 BYTE   VOL   30*PokemonMysteryDungeonExplorersofSkyInTheMorningSun_mvl/mxv
 BYTE   W01
//  #12 //015   ----------------------------------------
Label_016882DD:
 BYTE   W05
 BYTE   VOL   29*PokemonMysteryDungeonExplorersofSkyInTheMorningSun_mvl/mxv
 BYTE   W06
 BYTE   VOL   28*PokemonMysteryDungeonExplorersofSkyInTheMorningSun_mvl/mxv
 BYTE   W12
 BYTE   VOL   27*PokemonMysteryDungeonExplorersofSkyInTheMorningSun_mvl/mxv
 BYTE   W01
 BYTE   TIE  Cs3  v052
 BYTE   W05
 BYTE   VOL   25*PokemonMysteryDungeonExplorersofSkyInTheMorningSun_mvl/mxv
 BYTE   W06
 BYTE   VOL   27*PokemonMysteryDungeonExplorersofSkyInTheMorningSun_mvl/mxv
 BYTE   W06
 BYTE   VOL   27*PokemonMysteryDungeonExplorersofSkyInTheMorningSun_mvl/mxv
 BYTE   W01
 BYTE   VOL   28*PokemonMysteryDungeonExplorersofSkyInTheMorningSun_mvl/mxv
 BYTE   W02
 BYTE   VOL   30*PokemonMysteryDungeonExplorersofSkyInTheMorningSun_mvl/mxv
 BYTE   W06
 BYTE   VOL   30*PokemonMysteryDungeonExplorersofSkyInTheMorningSun_mvl/mxv
 BYTE   W44
 BYTE   W02
 BYTE   PEND 
//  #12 //016   ----------------------------------------
Label_016882F8:
 BYTE   W24
 BYTE   VOL   30*PokemonMysteryDungeonExplorersofSkyInTheMorningSun_mvl/mxv
 BYTE   W06
 BYTE   VOL   30*PokemonMysteryDungeonExplorersofSkyInTheMorningSun_mvl/mxv
 BYTE   W06
 BYTE   VOL   28*PokemonMysteryDungeonExplorersofSkyInTheMorningSun_mvl/mxv
 BYTE   W06
 BYTE   VOL   27*PokemonMysteryDungeonExplorersofSkyInTheMorningSun_mvl/mxv
 BYTE   W06
 BYTE   VOL   27*PokemonMysteryDungeonExplorersofSkyInTheMorningSun_mvl/mxv
 BYTE   W06
 BYTE   VOL   24*PokemonMysteryDungeonExplorersofSkyInTheMorningSun_mvl/mxv
 BYTE   W06
 BYTE   VOL   23*PokemonMysteryDungeonExplorersofSkyInTheMorningSun_mvl/mxv
 BYTE   W06
 BYTE   VOL   23*PokemonMysteryDungeonExplorersofSkyInTheMorningSun_mvl/mxv
 BYTE   W06
 BYTE   VOL   21*PokemonMysteryDungeonExplorersofSkyInTheMorningSun_mvl/mxv
 BYTE   W06
 BYTE   VOL   20*PokemonMysteryDungeonExplorersofSkyInTheMorningSun_mvl/mxv
 BYTE   W06
 BYTE   VOL   19*PokemonMysteryDungeonExplorersofSkyInTheMorningSun_mvl/mxv
 BYTE   W06
 BYTE   VOL   18*PokemonMysteryDungeonExplorersofSkyInTheMorningSun_mvl/mxv
 BYTE   W06
 BYTE   PEND 
//  #12 //017   ----------------------------------------
Label_01688313:
 BYTE   VOL   17*PokemonMysteryDungeonExplorersofSkyInTheMorningSun_mvl/mxv
 BYTE   W06
 BYTE   VOL   17*PokemonMysteryDungeonExplorersofSkyInTheMorningSun_mvl/mxv
 BYTE   W06
 BYTE   VOL   15*PokemonMysteryDungeonExplorersofSkyInTheMorningSun_mvl/mxv
 BYTE   W06
 BYTE   VOL   14*PokemonMysteryDungeonExplorersofSkyInTheMorningSun_mvl/mxv
 BYTE   W06
 BYTE   VOL   13*PokemonMysteryDungeonExplorersofSkyInTheMorningSun_mvl/mxv
 BYTE   W06
 BYTE   VOL   13*PokemonMysteryDungeonExplorersofSkyInTheMorningSun_mvl/mxv
 BYTE   W06
 BYTE   VOL   11*PokemonMysteryDungeonExplorersofSkyInTheMorningSun_mvl/mxv
 BYTE   W06
 BYTE   VOL   11*PokemonMysteryDungeonExplorersofSkyInTheMorningSun_mvl/mxv
 BYTE   W06
 BYTE   VOL   10*PokemonMysteryDungeonExplorersofSkyInTheMorningSun_mvl/mxv
 BYTE   W06
 BYTE   VOL   10*PokemonMysteryDungeonExplorersofSkyInTheMorningSun_mvl/mxv
 BYTE   W06
 BYTE   VOL   8*PokemonMysteryDungeonExplorersofSkyInTheMorningSun_mvl/mxv
 BYTE   W06
 BYTE   VOL   8*PokemonMysteryDungeonExplorersofSkyInTheMorningSun_mvl/mxv
 BYTE   W06
 BYTE   VOL   6*PokemonMysteryDungeonExplorersofSkyInTheMorningSun_mvl/mxv
 BYTE   W06
 BYTE   VOL   6*PokemonMysteryDungeonExplorersofSkyInTheMorningSun_mvl/mxv
 BYTE   W06
 BYTE   VOL   6*PokemonMysteryDungeonExplorersofSkyInTheMorningSun_mvl/mxv
 BYTE   W06
 BYTE   VOL   5*PokemonMysteryDungeonExplorersofSkyInTheMorningSun_mvl/mxv
 BYTE   W06
 BYTE   PEND 
//  #12 //018   ----------------------------------------
Label_01688335:
 BYTE   VOL   5*PokemonMysteryDungeonExplorersofSkyInTheMorningSun_mvl/mxv
 BYTE   W06
 BYTE   VOL   4*PokemonMysteryDungeonExplorersofSkyInTheMorningSun_mvl/mxv
 BYTE   W06
 BYTE   VOL   3*PokemonMysteryDungeonExplorersofSkyInTheMorningSun_mvl/mxv
 BYTE   W11
 BYTE   PEND 
 BYTE   EOT
 BYTE   Cs3
 BYTE   W01
Label_01688340:
 BYTE   W72
//  #12 //019   ----------------------------------------
 BYTE   W96
//  #12 //020   ----------------------------------------
 BYTE   W96
//  #12 //021   ----------------------------------------
 BYTE   W96
//  #12 //022   ----------------------------------------
 BYTE   W96
//  #12 //023   ----------------------------------------
 BYTE   W96
//  #12 //024   ----------------------------------------
 BYTE   W96
//  #12 //025   ----------------------------------------
 BYTE   W96
//  #12 //026   ----------------------------------------
 BYTE   W96
//  #12 //027   ----------------------------------------
 BYTE   W96
//  #12 //028   ----------------------------------------
 BYTE   W96
//  #12 //029   ----------------------------------------
 BYTE   W96
//  #12 //030   ----------------------------------------
 BYTE   W96
//  #12 //031   ----------------------------------------
 BYTE   W96
//  #12 //032   ----------------------------------------
 BYTE   W96
//  #12 //033   ----------------------------------------
 BYTE   W96
//  #12 //034   ----------------------------------------
 BYTE   W24
 BYTE   VOL   16*PokemonMysteryDungeonExplorersofSkyInTheMorningSun_mvl/mxv
 BYTE   TIE  Fn3  v088
 BYTE   W06
 BYTE   VOL   17*PokemonMysteryDungeonExplorersofSkyInTheMorningSun_mvl/mxv
 BYTE   W06
 BYTE   VOL   17*PokemonMysteryDungeonExplorersofSkyInTheMorningSun_mvl/mxv
 BYTE   W06
 BYTE   VOL   17*PokemonMysteryDungeonExplorersofSkyInTheMorningSun_mvl/mxv
 BYTE   W06
 BYTE   VOL   18*PokemonMysteryDungeonExplorersofSkyInTheMorningSun_mvl/mxv
 BYTE   W06
 BYTE   VOL   18*PokemonMysteryDungeonExplorersofSkyInTheMorningSun_mvl/mxv
 BYTE   W12
 BYTE   VOL   19*PokemonMysteryDungeonExplorersofSkyInTheMorningSun_mvl/mxv
 BYTE   W06
 BYTE   VOL   19*PokemonMysteryDungeonExplorersofSkyInTheMorningSun_mvl/mxv
 BYTE   W06
 BYTE   VOL   19*PokemonMysteryDungeonExplorersofSkyInTheMorningSun_mvl/mxv
 BYTE   W06
 BYTE   VOL   20*PokemonMysteryDungeonExplorersofSkyInTheMorningSun_mvl/mxv
 BYTE   W06
 BYTE   VOL   20*PokemonMysteryDungeonExplorersofSkyInTheMorningSun_mvl/mxv
 BYTE   W06
//  #12 //035   ----------------------------------------
 BYTE   VOL   21*PokemonMysteryDungeonExplorersofSkyInTheMorningSun_mvl/mxv
 BYTE   W06
 BYTE   VOL   21*PokemonMysteryDungeonExplorersofSkyInTheMorningSun_mvl/mxv
 BYTE   W06
 BYTE   VOL   22*PokemonMysteryDungeonExplorersofSkyInTheMorningSun_mvl/mxv
 BYTE   W06
 BYTE   VOL   22*PokemonMysteryDungeonExplorersofSkyInTheMorningSun_mvl/mxv
 BYTE   W06
 BYTE   VOL   23*PokemonMysteryDungeonExplorersofSkyInTheMorningSun_mvl/mxv
 BYTE   W12
 BYTE   VOL   23*PokemonMysteryDungeonExplorersofSkyInTheMorningSun_mvl/mxv
 BYTE   W06
 BYTE   VOL   24*PokemonMysteryDungeonExplorersofSkyInTheMorningSun_mvl/mxv
 BYTE   W06
 BYTE   VOL   24*PokemonMysteryDungeonExplorersofSkyInTheMorningSun_mvl/mxv
 BYTE   W06
 BYTE   VOL   25*PokemonMysteryDungeonExplorersofSkyInTheMorningSun_mvl/mxv
 BYTE   W06
 BYTE   VOL   26*PokemonMysteryDungeonExplorersofSkyInTheMorningSun_mvl/mxv
 BYTE   W06
 BYTE   VOL   27*PokemonMysteryDungeonExplorersofSkyInTheMorningSun_mvl/mxv
 BYTE   W06
 BYTE   VOL   27*PokemonMysteryDungeonExplorersofSkyInTheMorningSun_mvl/mxv
 BYTE   W06
 BYTE   VOL   27*PokemonMysteryDungeonExplorersofSkyInTheMorningSun_mvl/mxv
 BYTE   W06
 BYTE   VOL   28*PokemonMysteryDungeonExplorersofSkyInTheMorningSun_mvl/mxv
 BYTE   W06
 BYTE   VOL   28*PokemonMysteryDungeonExplorersofSkyInTheMorningSun_mvl/mxv
 BYTE   W06
//  #12 //036   ----------------------------------------
 BYTE   VOL   28*PokemonMysteryDungeonExplorersofSkyInTheMorningSun_mvl/mxv
 BYTE   W06
 BYTE   VOL   29*PokemonMysteryDungeonExplorersofSkyInTheMorningSun_mvl/mxv
 BYTE   W06
 BYTE   VOL   30*PokemonMysteryDungeonExplorersofSkyInTheMorningSun_mvl/mxv
 BYTE   W06
 BYTE   VOL   30*PokemonMysteryDungeonExplorersofSkyInTheMorningSun_mvl/mxv
 BYTE   W05
 BYTE   EOT
 BYTE   W01
 BYTE   VOL   30*PokemonMysteryDungeonExplorersofSkyInTheMorningSun_mvl/mxv
 BYTE   TIE
 BYTE   W06
 BYTE   VOL   30*PokemonMysteryDungeonExplorersofSkyInTheMorningSun_mvl/mxv
 BYTE   W06
 BYTE   VOL   29*PokemonMysteryDungeonExplorersofSkyInTheMorningSun_mvl/mxv
 BYTE   W06
 BYTE   VOL   28*PokemonMysteryDungeonExplorersofSkyInTheMorningSun_mvl/mxv
 BYTE   W12
 BYTE   VOL   28*PokemonMysteryDungeonExplorersofSkyInTheMorningSun_mvl/mxv
 BYTE   W06
 BYTE   VOL   27*PokemonMysteryDungeonExplorersofSkyInTheMorningSun_mvl/mxv
 BYTE   W06
 BYTE   VOL   27*PokemonMysteryDungeonExplorersofSkyInTheMorningSun_mvl/mxv
 BYTE   W06
 BYTE   VOL   27*PokemonMysteryDungeonExplorersofSkyInTheMorningSun_mvl/mxv
 BYTE   W06
 BYTE   VOL   27*PokemonMysteryDungeonExplorersofSkyInTheMorningSun_mvl/mxv
 BYTE   W06
 BYTE   VOL   26*PokemonMysteryDungeonExplorersofSkyInTheMorningSun_mvl/mxv
 BYTE   W06
 BYTE   VOL   25*PokemonMysteryDungeonExplorersofSkyInTheMorningSun_mvl/mxv
 BYTE   W06
//  #12 //037   ----------------------------------------
 BYTE   VOL   24*PokemonMysteryDungeonExplorersofSkyInTheMorningSun_mvl/mxv
 BYTE   W06
 BYTE   VOL   24*PokemonMysteryDungeonExplorersofSkyInTheMorningSun_mvl/mxv
 BYTE   W06
 BYTE   VOL   23*PokemonMysteryDungeonExplorersofSkyInTheMorningSun_mvl/mxv
 BYTE   W06
 BYTE   VOL   23*PokemonMysteryDungeonExplorersofSkyInTheMorningSun_mvl/mxv
 BYTE   W06
 BYTE   VOL   23*PokemonMysteryDungeonExplorersofSkyInTheMorningSun_mvl/mxv
 BYTE   W06
 BYTE   VOL   23*PokemonMysteryDungeonExplorersofSkyInTheMorningSun_mvl/mxv
 BYTE   W06
 BYTE   VOL   22*PokemonMysteryDungeonExplorersofSkyInTheMorningSun_mvl/mxv
 BYTE   W06
 BYTE   VOL   22*PokemonMysteryDungeonExplorersofSkyInTheMorningSun_mvl/mxv
 BYTE   W06
 BYTE   VOL   21*PokemonMysteryDungeonExplorersofSkyInTheMorningSun_mvl/mxv
 BYTE   W06
 BYTE   VOL   21*PokemonMysteryDungeonExplorersofSkyInTheMorningSun_mvl/mxv
 BYTE   W06
 BYTE   VOL   20*PokemonMysteryDungeonExplorersofSkyInTheMorningSun_mvl/mxv
 BYTE   W06
 BYTE   VOL   20*PokemonMysteryDungeonExplorersofSkyInTheMorningSun_mvl/mxv
 BYTE   W06
 BYTE   VOL   20*PokemonMysteryDungeonExplorersofSkyInTheMorningSun_mvl/mxv
 BYTE   W06
 BYTE   VOL   19*PokemonMysteryDungeonExplorersofSkyInTheMorningSun_mvl/mxv
 BYTE   W06
 BYTE   VOL   19*PokemonMysteryDungeonExplorersofSkyInTheMorningSun_mvl/mxv
 BYTE   W06
 BYTE   VOL   18*PokemonMysteryDungeonExplorersofSkyInTheMorningSun_mvl/mxv
 BYTE   W06
//  #12 //038   ----------------------------------------
 BYTE   VOL   18*PokemonMysteryDungeonExplorersofSkyInTheMorningSun_mvl/mxv
 BYTE   W06
 BYTE   VOL   18*PokemonMysteryDungeonExplorersofSkyInTheMorningSun_mvl/mxv
 BYTE   W06
 BYTE   VOL   18*PokemonMysteryDungeonExplorersofSkyInTheMorningSun_mvl/mxv
 BYTE   W06
 BYTE   VOL   17*PokemonMysteryDungeonExplorersofSkyInTheMorningSun_mvl/mxv
 BYTE   W05
 BYTE   EOT
 BYTE   W01
 BYTE   VOL   17*PokemonMysteryDungeonExplorersofSkyInTheMorningSun_mvl/mxv
 BYTE   N92  Dn3
 BYTE   W06
 BYTE   VOL   17*PokemonMysteryDungeonExplorersofSkyInTheMorningSun_mvl/mxv
 BYTE   W06
 BYTE   VOL   17*PokemonMysteryDungeonExplorersofSkyInTheMorningSun_mvl/mxv
 BYTE   W06
 BYTE   VOL   18*PokemonMysteryDungeonExplorersofSkyInTheMorningSun_mvl/mxv
 BYTE   W06
 BYTE   VOL   18*PokemonMysteryDungeonExplorersofSkyInTheMorningSun_mvl/mxv
 BYTE   W06
 BYTE   VOL   18*PokemonMysteryDungeonExplorersofSkyInTheMorningSun_mvl/mxv
 BYTE   W06
 BYTE   VOL   19*PokemonMysteryDungeonExplorersofSkyInTheMorningSun_mvl/mxv
 BYTE   W06
 BYTE   VOL   19*PokemonMysteryDungeonExplorersofSkyInTheMorningSun_mvl/mxv
 BYTE   W06
 BYTE   VOL   19*PokemonMysteryDungeonExplorersofSkyInTheMorningSun_mvl/mxv
 BYTE   W06
 BYTE   VOL   20*PokemonMysteryDungeonExplorersofSkyInTheMorningSun_mvl/mxv
 BYTE   W06
 BYTE   VOL   20*PokemonMysteryDungeonExplorersofSkyInTheMorningSun_mvl/mxv
 BYTE   W06
 BYTE   VOL   21*PokemonMysteryDungeonExplorersofSkyInTheMorningSun_mvl/mxv
 BYTE   W06
//  #12 //039   ----------------------------------------
 BYTE   VOL   21*PokemonMysteryDungeonExplorersofSkyInTheMorningSun_mvl/mxv
 BYTE   W06
 BYTE   VOL   22*PokemonMysteryDungeonExplorersofSkyInTheMorningSun_mvl/mxv
 BYTE   W06
 BYTE   VOL   22*PokemonMysteryDungeonExplorersofSkyInTheMorningSun_mvl/mxv
 BYTE   W06
 BYTE   VOL   23*PokemonMysteryDungeonExplorersofSkyInTheMorningSun_mvl/mxv
 BYTE   W06
 BYTE   VOL   23*PokemonMysteryDungeonExplorersofSkyInTheMorningSun_mvl/mxv
 BYTE   N92
 BYTE   W06
 BYTE   VOL   23*PokemonMysteryDungeonExplorersofSkyInTheMorningSun_mvl/mxv
 BYTE   W06
 BYTE   VOL   23*PokemonMysteryDungeonExplorersofSkyInTheMorningSun_mvl/mxv
 BYTE   W06
 BYTE   VOL   24*PokemonMysteryDungeonExplorersofSkyInTheMorningSun_mvl/mxv
 BYTE   W06
 BYTE   VOL   24*PokemonMysteryDungeonExplorersofSkyInTheMorningSun_mvl/mxv
 BYTE   W06
 BYTE   VOL   25*PokemonMysteryDungeonExplorersofSkyInTheMorningSun_mvl/mxv
 BYTE   W06
 BYTE   VOL   26*PokemonMysteryDungeonExplorersofSkyInTheMorningSun_mvl/mxv
 BYTE   W06
 BYTE   VOL   27*PokemonMysteryDungeonExplorersofSkyInTheMorningSun_mvl/mxv
 BYTE   W06
 BYTE   VOL   27*PokemonMysteryDungeonExplorersofSkyInTheMorningSun_mvl/mxv
 BYTE   W06
 BYTE   VOL   27*PokemonMysteryDungeonExplorersofSkyInTheMorningSun_mvl/mxv
 BYTE   W06
 BYTE   VOL   27*PokemonMysteryDungeonExplorersofSkyInTheMorningSun_mvl/mxv
 BYTE   W06
 BYTE   VOL   28*PokemonMysteryDungeonExplorersofSkyInTheMorningSun_mvl/mxv
 BYTE   W06
//  #12 //040   ----------------------------------------
 BYTE   VOL   28*PokemonMysteryDungeonExplorersofSkyInTheMorningSun_mvl/mxv
 BYTE   W06
 BYTE   VOL   29*PokemonMysteryDungeonExplorersofSkyInTheMorningSun_mvl/mxv
 BYTE   W06
 BYTE   VOL   29*PokemonMysteryDungeonExplorersofSkyInTheMorningSun_mvl/mxv
 BYTE   W06
 BYTE   VOL   30*PokemonMysteryDungeonExplorersofSkyInTheMorningSun_mvl/mxv
 BYTE   W06
 BYTE   VOL   30*PokemonMysteryDungeonExplorersofSkyInTheMorningSun_mvl/mxv
 BYTE   N92  En3
 BYTE   W06
 BYTE   VOL   29*PokemonMysteryDungeonExplorersofSkyInTheMorningSun_mvl/mxv
 BYTE   W06
 BYTE   VOL   29*PokemonMysteryDungeonExplorersofSkyInTheMorningSun_mvl/mxv
 BYTE   W06
 BYTE   VOL   28*PokemonMysteryDungeonExplorersofSkyInTheMorningSun_mvl/mxv
 BYTE   W06
 BYTE   VOL   28*PokemonMysteryDungeonExplorersofSkyInTheMorningSun_mvl/mxv
 BYTE   W06
 BYTE   VOL   27*PokemonMysteryDungeonExplorersofSkyInTheMorningSun_mvl/mxv
 BYTE   W06
 BYTE   VOL   27*PokemonMysteryDungeonExplorersofSkyInTheMorningSun_mvl/mxv
 BYTE   W06
 BYTE   VOL   27*PokemonMysteryDungeonExplorersofSkyInTheMorningSun_mvl/mxv
 BYTE   W06
 BYTE   VOL   27*PokemonMysteryDungeonExplorersofSkyInTheMorningSun_mvl/mxv
 BYTE   W06
 BYTE   VOL   26*PokemonMysteryDungeonExplorersofSkyInTheMorningSun_mvl/mxv
 BYTE   W06
 BYTE   VOL   25*PokemonMysteryDungeonExplorersofSkyInTheMorningSun_mvl/mxv
 BYTE   W06
 BYTE   VOL   24*PokemonMysteryDungeonExplorersofSkyInTheMorningSun_mvl/mxv
 BYTE   W06
//  #12 //041   ----------------------------------------
 BYTE   VOL   24*PokemonMysteryDungeonExplorersofSkyInTheMorningSun_mvl/mxv
 BYTE   W06
 BYTE   VOL   23*PokemonMysteryDungeonExplorersofSkyInTheMorningSun_mvl/mxv
 BYTE   W06
 BYTE   VOL   23*PokemonMysteryDungeonExplorersofSkyInTheMorningSun_mvl/mxv
 BYTE   W12
 BYTE   VOL   22*PokemonMysteryDungeonExplorersofSkyInTheMorningSun_mvl/mxv
 BYTE   N92  Dn3
 BYTE   W06
 BYTE   VOL   22*PokemonMysteryDungeonExplorersofSkyInTheMorningSun_mvl/mxv
 BYTE   W06
 BYTE   VOL   22*PokemonMysteryDungeonExplorersofSkyInTheMorningSun_mvl/mxv
 BYTE   W06
 BYTE   VOL   21*PokemonMysteryDungeonExplorersofSkyInTheMorningSun_mvl/mxv
 BYTE   W06
 BYTE   VOL   20*PokemonMysteryDungeonExplorersofSkyInTheMorningSun_mvl/mxv
 BYTE   W06
 BYTE   VOL   20*PokemonMysteryDungeonExplorersofSkyInTheMorningSun_mvl/mxv
 BYTE   W06
 BYTE   VOL   20*PokemonMysteryDungeonExplorersofSkyInTheMorningSun_mvl/mxv
 BYTE   W06
 BYTE   VOL   19*PokemonMysteryDungeonExplorersofSkyInTheMorningSun_mvl/mxv
 BYTE   W06
 BYTE   VOL   19*PokemonMysteryDungeonExplorersofSkyInTheMorningSun_mvl/mxv
 BYTE   W06
 BYTE   VOL   18*PokemonMysteryDungeonExplorersofSkyInTheMorningSun_mvl/mxv
 BYTE   W06
 BYTE   VOL   18*PokemonMysteryDungeonExplorersofSkyInTheMorningSun_mvl/mxv
 BYTE   W06
 BYTE   VOL   18*PokemonMysteryDungeonExplorersofSkyInTheMorningSun_mvl/mxv
 BYTE   W06
//  #12 //042   ----------------------------------------
 BYTE   VOL   18*PokemonMysteryDungeonExplorersofSkyInTheMorningSun_mvl/mxv
 BYTE   W06
 BYTE   VOL   17*PokemonMysteryDungeonExplorersofSkyInTheMorningSun_mvl/mxv
 BYTE   W06
 BYTE   VOL   17*PokemonMysteryDungeonExplorersofSkyInTheMorningSun_mvl/mxv
 BYTE   W06
 BYTE   VOL   16*PokemonMysteryDungeonExplorersofSkyInTheMorningSun_mvl/mxv
 BYTE   W06
 BYTE   VOL   17*PokemonMysteryDungeonExplorersofSkyInTheMorningSun_mvl/mxv
 BYTE   N92
 BYTE   W06
 BYTE   VOL   17*PokemonMysteryDungeonExplorersofSkyInTheMorningSun_mvl/mxv
 BYTE   W06
 BYTE   VOL   17*PokemonMysteryDungeonExplorersofSkyInTheMorningSun_mvl/mxv
 BYTE   W06
 BYTE   VOL   18*PokemonMysteryDungeonExplorersofSkyInTheMorningSun_mvl/mxv
 BYTE   W06
 BYTE   VOL   18*PokemonMysteryDungeonExplorersofSkyInTheMorningSun_mvl/mxv
 BYTE   W12
 BYTE   VOL   19*PokemonMysteryDungeonExplorersofSkyInTheMorningSun_mvl/mxv
 BYTE   W06
 BYTE   VOL   19*PokemonMysteryDungeonExplorersofSkyInTheMorningSun_mvl/mxv
 BYTE   W06
 BYTE   VOL   19*PokemonMysteryDungeonExplorersofSkyInTheMorningSun_mvl/mxv
 BYTE   W06
 BYTE   VOL   20*PokemonMysteryDungeonExplorersofSkyInTheMorningSun_mvl/mxv
 BYTE   W06
 BYTE   VOL   20*PokemonMysteryDungeonExplorersofSkyInTheMorningSun_mvl/mxv
 BYTE   W06
 BYTE   VOL   21*PokemonMysteryDungeonExplorersofSkyInTheMorningSun_mvl/mxv
 BYTE   W06
//  #12 //043   ----------------------------------------
 BYTE   VOL   21*PokemonMysteryDungeonExplorersofSkyInTheMorningSun_mvl/mxv
 BYTE   W06
 BYTE   VOL   22*PokemonMysteryDungeonExplorersofSkyInTheMorningSun_mvl/mxv
 BYTE   W06
 BYTE   VOL   22*PokemonMysteryDungeonExplorersofSkyInTheMorningSun_mvl/mxv
 BYTE   W06
 BYTE   VOL   23*PokemonMysteryDungeonExplorersofSkyInTheMorningSun_mvl/mxv
 BYTE   W06
 BYTE   N44  Cn3
 BYTE   W06
 BYTE   VOL   23*PokemonMysteryDungeonExplorersofSkyInTheMorningSun_mvl/mxv
 BYTE   W06
 BYTE   VOL   24*PokemonMysteryDungeonExplorersofSkyInTheMorningSun_mvl/mxv
 BYTE   W06
 BYTE   VOL   24*PokemonMysteryDungeonExplorersofSkyInTheMorningSun_mvl/mxv
 BYTE   W06
 BYTE   VOL   25*PokemonMysteryDungeonExplorersofSkyInTheMorningSun_mvl/mxv
 BYTE   W06
 BYTE   VOL   26*PokemonMysteryDungeonExplorersofSkyInTheMorningSun_mvl/mxv
 BYTE   W06
 BYTE   VOL   27*PokemonMysteryDungeonExplorersofSkyInTheMorningSun_mvl/mxv
 BYTE   W06
 BYTE   VOL   27*PokemonMysteryDungeonExplorersofSkyInTheMorningSun_mvl/mxv
 BYTE   W06
 BYTE   VOL   27*PokemonMysteryDungeonExplorersofSkyInTheMorningSun_mvl/mxv
 BYTE   N44  Fn3
 BYTE   W06
 BYTE   VOL   28*PokemonMysteryDungeonExplorersofSkyInTheMorningSun_mvl/mxv
 BYTE   W06
 BYTE   VOL   28*PokemonMysteryDungeonExplorersofSkyInTheMorningSun_mvl/mxv
 BYTE   W06
 BYTE   VOL   28*PokemonMysteryDungeonExplorersofSkyInTheMorningSun_mvl/mxv
 BYTE   W06
//  #12 //044   ----------------------------------------
 BYTE   VOL   29*PokemonMysteryDungeonExplorersofSkyInTheMorningSun_mvl/mxv
 BYTE   W06
 BYTE   VOL   30*PokemonMysteryDungeonExplorersofSkyInTheMorningSun_mvl/mxv
 BYTE   W06
 BYTE   VOL   30*PokemonMysteryDungeonExplorersofSkyInTheMorningSun_mvl/mxv
 BYTE   W12
 BYTE   N92  Dn3
 BYTE   W06
 BYTE   VOL   30*PokemonMysteryDungeonExplorersofSkyInTheMorningSun_mvl/mxv
 BYTE   W06
 BYTE   VOL   30*PokemonMysteryDungeonExplorersofSkyInTheMorningSun_mvl/mxv
 BYTE   W06
 BYTE   VOL   29*PokemonMysteryDungeonExplorersofSkyInTheMorningSun_mvl/mxv
 BYTE   W06
 BYTE   VOL   29*PokemonMysteryDungeonExplorersofSkyInTheMorningSun_mvl/mxv
 BYTE   W06
 BYTE   VOL   28*PokemonMysteryDungeonExplorersofSkyInTheMorningSun_mvl/mxv
 BYTE   W06
 BYTE   VOL   28*PokemonMysteryDungeonExplorersofSkyInTheMorningSun_mvl/mxv
 BYTE   W06
 BYTE   VOL   28*PokemonMysteryDungeonExplorersofSkyInTheMorningSun_mvl/mxv
 BYTE   W06
 BYTE   VOL   27*PokemonMysteryDungeonExplorersofSkyInTheMorningSun_mvl/mxv
 BYTE   W06
 BYTE   VOL   27*PokemonMysteryDungeonExplorersofSkyInTheMorningSun_mvl/mxv
 BYTE   W06
 BYTE   VOL   27*PokemonMysteryDungeonExplorersofSkyInTheMorningSun_mvl/mxv
 BYTE   W12
//  #12 //045   ----------------------------------------
 BYTE   VOL   27*PokemonMysteryDungeonExplorersofSkyInTheMorningSun_mvl/mxv
 BYTE   W06
 BYTE   VOL   26*PokemonMysteryDungeonExplorersofSkyInTheMorningSun_mvl/mxv
 BYTE   W06
 BYTE   VOL   25*PokemonMysteryDungeonExplorersofSkyInTheMorningSun_mvl/mxv
 BYTE   W06
 BYTE   VOL   25*PokemonMysteryDungeonExplorersofSkyInTheMorningSun_mvl/mxv
 BYTE   W06
 BYTE   VOL   24*PokemonMysteryDungeonExplorersofSkyInTheMorningSun_mvl/mxv
 BYTE   N44
 BYTE   W06
 BYTE   VOL   24*PokemonMysteryDungeonExplorersofSkyInTheMorningSun_mvl/mxv
 BYTE   W06
 BYTE   VOL   23*PokemonMysteryDungeonExplorersofSkyInTheMorningSun_mvl/mxv
 BYTE   W06
 BYTE   VOL   23*PokemonMysteryDungeonExplorersofSkyInTheMorningSun_mvl/mxv
 BYTE   W06
 BYTE   VOL   23*PokemonMysteryDungeonExplorersofSkyInTheMorningSun_mvl/mxv
 BYTE   W12
 BYTE   VOL   23*PokemonMysteryDungeonExplorersofSkyInTheMorningSun_mvl/mxv
 BYTE   W06
 BYTE   VOL   22*PokemonMysteryDungeonExplorersofSkyInTheMorningSun_mvl/mxv
 BYTE   W06
 BYTE   VOL   22*PokemonMysteryDungeonExplorersofSkyInTheMorningSun_mvl/mxv
 BYTE   N44
 BYTE   W06
 BYTE   VOL   22*PokemonMysteryDungeonExplorersofSkyInTheMorningSun_mvl/mxv
 BYTE   W06
 BYTE   VOL   21*PokemonMysteryDungeonExplorersofSkyInTheMorningSun_mvl/mxv
 BYTE   W06
 BYTE   VOL   21*PokemonMysteryDungeonExplorersofSkyInTheMorningSun_mvl/mxv
 BYTE   W06
//  #12 //046   ----------------------------------------
 BYTE   VOL   20*PokemonMysteryDungeonExplorersofSkyInTheMorningSun_mvl/mxv
 BYTE   W06
 BYTE   VOL   20*PokemonMysteryDungeonExplorersofSkyInTheMorningSun_mvl/mxv
 BYTE   W06
 BYTE   VOL   20*PokemonMysteryDungeonExplorersofSkyInTheMorningSun_mvl/mxv
 BYTE   W06
 BYTE   VOL   18*PokemonMysteryDungeonExplorersofSkyInTheMorningSun_mvl/mxv
 BYTE   W06
 BYTE   VOL   18*PokemonMysteryDungeonExplorersofSkyInTheMorningSun_mvl/mxv
 BYTE   TIE  Cn3
 BYTE   W06
 BYTE   VOL   19*PokemonMysteryDungeonExplorersofSkyInTheMorningSun_mvl/mxv
 BYTE   W06
 BYTE   VOL   19*PokemonMysteryDungeonExplorersofSkyInTheMorningSun_mvl/mxv
 BYTE   W06
 BYTE   VOL   19*PokemonMysteryDungeonExplorersofSkyInTheMorningSun_mvl/mxv
 BYTE   W06
 BYTE   VOL   20*PokemonMysteryDungeonExplorersofSkyInTheMorningSun_mvl/mxv
 BYTE   W06
 BYTE   VOL   20*PokemonMysteryDungeonExplorersofSkyInTheMorningSun_mvl/mxv
 BYTE   W06
 BYTE   VOL   20*PokemonMysteryDungeonExplorersofSkyInTheMorningSun_mvl/mxv
 BYTE   W06
 BYTE   VOL   21*PokemonMysteryDungeonExplorersofSkyInTheMorningSun_mvl/mxv
 BYTE   W06
 BYTE   VOL   21*PokemonMysteryDungeonExplorersofSkyInTheMorningSun_mvl/mxv
 BYTE   W06
 BYTE   VOL   22*PokemonMysteryDungeonExplorersofSkyInTheMorningSun_mvl/mxv
 BYTE   W06
 BYTE   VOL   22*PokemonMysteryDungeonExplorersofSkyInTheMorningSun_mvl/mxv
 BYTE   W06
 BYTE   VOL   22*PokemonMysteryDungeonExplorersofSkyInTheMorningSun_mvl/mxv
 BYTE   W06
//  #12 //047   ----------------------------------------
 BYTE   VOL   23*PokemonMysteryDungeonExplorersofSkyInTheMorningSun_mvl/mxv
 BYTE   W06
 BYTE   VOL   23*PokemonMysteryDungeonExplorersofSkyInTheMorningSun_mvl/mxv
 BYTE   W06
 BYTE   VOL   23*PokemonMysteryDungeonExplorersofSkyInTheMorningSun_mvl/mxv
 BYTE   W06
 BYTE   VOL   23*PokemonMysteryDungeonExplorersofSkyInTheMorningSun_mvl/mxv
 BYTE   W06
 BYTE   VOL   24*PokemonMysteryDungeonExplorersofSkyInTheMorningSun_mvl/mxv
 BYTE   W06
 BYTE   VOL   24*PokemonMysteryDungeonExplorersofSkyInTheMorningSun_mvl/mxv
 BYTE   W06
 BYTE   VOL   25*PokemonMysteryDungeonExplorersofSkyInTheMorningSun_mvl/mxv
 BYTE   W06
 BYTE   VOL   25*PokemonMysteryDungeonExplorersofSkyInTheMorningSun_mvl/mxv
 BYTE   W06
 BYTE   VOL   26*PokemonMysteryDungeonExplorersofSkyInTheMorningSun_mvl/mxv
 BYTE   W06
 BYTE   VOL   27*PokemonMysteryDungeonExplorersofSkyInTheMorningSun_mvl/mxv
 BYTE   W06
 BYTE   VOL   27*PokemonMysteryDungeonExplorersofSkyInTheMorningSun_mvl/mxv
 BYTE   W06
 BYTE   VOL   27*PokemonMysteryDungeonExplorersofSkyInTheMorningSun_mvl/mxv
 BYTE   W06
 BYTE   VOL   27*PokemonMysteryDungeonExplorersofSkyInTheMorningSun_mvl/mxv
 BYTE   W06
 BYTE   VOL   28*PokemonMysteryDungeonExplorersofSkyInTheMorningSun_mvl/mxv
 BYTE   W06
 BYTE   VOL   28*PokemonMysteryDungeonExplorersofSkyInTheMorningSun_mvl/mxv
 BYTE   W06
 BYTE   VOL   28*PokemonMysteryDungeonExplorersofSkyInTheMorningSun_mvl/mxv
 BYTE   W06
//  #12 //048   ----------------------------------------
 BYTE   VOL   29*PokemonMysteryDungeonExplorersofSkyInTheMorningSun_mvl/mxv
 BYTE   W06
 BYTE   VOL   29*PokemonMysteryDungeonExplorersofSkyInTheMorningSun_mvl/mxv
 BYTE   W06
 BYTE   VOL   30*PokemonMysteryDungeonExplorersofSkyInTheMorningSun_mvl/mxv
 BYTE   W06
 BYTE   VOL   30*PokemonMysteryDungeonExplorersofSkyInTheMorningSun_mvl/mxv
 BYTE   W05
 BYTE   EOT
 BYTE   W01
 BYTE   VOL   30*PokemonMysteryDungeonExplorersofSkyInTheMorningSun_mvl/mxv
 BYTE   TIE  Ds3
 BYTE   W06
 BYTE   VOL   29*PokemonMysteryDungeonExplorersofSkyInTheMorningSun_mvl/mxv
 BYTE   W06
 BYTE   VOL   28*PokemonMysteryDungeonExplorersofSkyInTheMorningSun_mvl/mxv
 BYTE   W06
 BYTE   VOL   28*PokemonMysteryDungeonExplorersofSkyInTheMorningSun_mvl/mxv
 BYTE   W06
 BYTE   VOL   28*PokemonMysteryDungeonExplorersofSkyInTheMorningSun_mvl/mxv
 BYTE   W06
 BYTE   VOL   27*PokemonMysteryDungeonExplorersofSkyInTheMorningSun_mvl/mxv
 BYTE   W06
 BYTE   VOL   27*PokemonMysteryDungeonExplorersofSkyInTheMorningSun_mvl/mxv
 BYTE   W06
 BYTE   VOL   27*PokemonMysteryDungeonExplorersofSkyInTheMorningSun_mvl/mxv
 BYTE   W06
 BYTE   VOL   26*PokemonMysteryDungeonExplorersofSkyInTheMorningSun_mvl/mxv
 BYTE   W06
 BYTE   VOL   25*PokemonMysteryDungeonExplorersofSkyInTheMorningSun_mvl/mxv
 BYTE   W06
 BYTE   VOL   24*PokemonMysteryDungeonExplorersofSkyInTheMorningSun_mvl/mxv
 BYTE   W06
 BYTE   VOL   24*PokemonMysteryDungeonExplorersofSkyInTheMorningSun_mvl/mxv
 BYTE   W06
//  #12 //049   ----------------------------------------
 BYTE   VOL   23*PokemonMysteryDungeonExplorersofSkyInTheMorningSun_mvl/mxv
 BYTE   W06
 BYTE   VOL   23*PokemonMysteryDungeonExplorersofSkyInTheMorningSun_mvl/mxv
 BYTE   W06
 BYTE   VOL   23*PokemonMysteryDungeonExplorersofSkyInTheMorningSun_mvl/mxv
 BYTE   W06
 BYTE   VOL   22*PokemonMysteryDungeonExplorersofSkyInTheMorningSun_mvl/mxv
 BYTE   W06
 BYTE   VOL   22*PokemonMysteryDungeonExplorersofSkyInTheMorningSun_mvl/mxv
 BYTE   W06
 BYTE   VOL   22*PokemonMysteryDungeonExplorersofSkyInTheMorningSun_mvl/mxv
 BYTE   W06
 BYTE   VOL   21*PokemonMysteryDungeonExplorersofSkyInTheMorningSun_mvl/mxv
 BYTE   W06
 BYTE   VOL   21*PokemonMysteryDungeonExplorersofSkyInTheMorningSun_mvl/mxv
 BYTE   W06
 BYTE   VOL   20*PokemonMysteryDungeonExplorersofSkyInTheMorningSun_mvl/mxv
 BYTE   W06
 BYTE   VOL   20*PokemonMysteryDungeonExplorersofSkyInTheMorningSun_mvl/mxv
 BYTE   W06
 BYTE   VOL   19*PokemonMysteryDungeonExplorersofSkyInTheMorningSun_mvl/mxv
 BYTE   W06
 BYTE   VOL   19*PokemonMysteryDungeonExplorersofSkyInTheMorningSun_mvl/mxv
 BYTE   W06
 BYTE   VOL   18*PokemonMysteryDungeonExplorersofSkyInTheMorningSun_mvl/mxv
 BYTE   W06
 BYTE   VOL   18*PokemonMysteryDungeonExplorersofSkyInTheMorningSun_mvl/mxv
 BYTE   W06
 BYTE   VOL   18*PokemonMysteryDungeonExplorersofSkyInTheMorningSun_mvl/mxv
 BYTE   W06
 BYTE   VOL   18*PokemonMysteryDungeonExplorersofSkyInTheMorningSun_mvl/mxv
 BYTE   W06
//  #12 //050   ----------------------------------------
 BYTE   VOL   17*PokemonMysteryDungeonExplorersofSkyInTheMorningSun_mvl/mxv
 BYTE   W06
 BYTE   VOL   17*PokemonMysteryDungeonExplorersofSkyInTheMorningSun_mvl/mxv
 BYTE   W06
 BYTE   VOL   17*PokemonMysteryDungeonExplorersofSkyInTheMorningSun_mvl/mxv
 BYTE   W06
 BYTE   VOL   16*PokemonMysteryDungeonExplorersofSkyInTheMorningSun_mvl/mxv
 BYTE   W05
 BYTE   EOT
 BYTE   W01
 BYTE   VOL   15*PokemonMysteryDungeonExplorersofSkyInTheMorningSun_mvl/mxv
 BYTE   TIE  Dn3
 BYTE   W06
 BYTE   VOL   15*PokemonMysteryDungeonExplorersofSkyInTheMorningSun_mvl/mxv
 BYTE   W06
 BYTE   VOL   16*PokemonMysteryDungeonExplorersofSkyInTheMorningSun_mvl/mxv
 BYTE   W06
 BYTE   VOL   16*PokemonMysteryDungeonExplorersofSkyInTheMorningSun_mvl/mxv
 BYTE   W06
 BYTE   VOL   17*PokemonMysteryDungeonExplorersofSkyInTheMorningSun_mvl/mxv
 BYTE   W06
 BYTE   VOL   17*PokemonMysteryDungeonExplorersofSkyInTheMorningSun_mvl/mxv
 BYTE   W06
 BYTE   VOL   17*PokemonMysteryDungeonExplorersofSkyInTheMorningSun_mvl/mxv
 BYTE   W06
 BYTE   VOL   17*PokemonMysteryDungeonExplorersofSkyInTheMorningSun_mvl/mxv
 BYTE   W06
 BYTE   VOL   18*PokemonMysteryDungeonExplorersofSkyInTheMorningSun_mvl/mxv
 BYTE   W06
 BYTE   VOL   18*PokemonMysteryDungeonExplorersofSkyInTheMorningSun_mvl/mxv
 BYTE   W06
 BYTE   VOL   18*PokemonMysteryDungeonExplorersofSkyInTheMorningSun_mvl/mxv
 BYTE   W12
//  #12 //051   ----------------------------------------
 BYTE   VOL   19*PokemonMysteryDungeonExplorersofSkyInTheMorningSun_mvl/mxv
 BYTE   W06
 BYTE   VOL   19*PokemonMysteryDungeonExplorersofSkyInTheMorningSun_mvl/mxv
 BYTE   W06
 BYTE   VOL   19*PokemonMysteryDungeonExplorersofSkyInTheMorningSun_mvl/mxv
 BYTE   W12
 BYTE   VOL   20*PokemonMysteryDungeonExplorersofSkyInTheMorningSun_mvl/mxv
 BYTE   W06
 BYTE   VOL   20*PokemonMysteryDungeonExplorersofSkyInTheMorningSun_mvl/mxv
 BYTE   W06
 BYTE   VOL   20*PokemonMysteryDungeonExplorersofSkyInTheMorningSun_mvl/mxv
 BYTE   W06
 BYTE   VOL   21*PokemonMysteryDungeonExplorersofSkyInTheMorningSun_mvl/mxv
 BYTE   W06
 BYTE   VOL   21*PokemonMysteryDungeonExplorersofSkyInTheMorningSun_mvl/mxv
 BYTE   W06
 BYTE   VOL   22*PokemonMysteryDungeonExplorersofSkyInTheMorningSun_mvl/mxv
 BYTE   W06
 BYTE   VOL   22*PokemonMysteryDungeonExplorersofSkyInTheMorningSun_mvl/mxv
 BYTE   W06
 BYTE   VOL   22*PokemonMysteryDungeonExplorersofSkyInTheMorningSun_mvl/mxv
 BYTE   W06
 BYTE   VOL   23*PokemonMysteryDungeonExplorersofSkyInTheMorningSun_mvl/mxv
 BYTE   W06
 BYTE   VOL   23*PokemonMysteryDungeonExplorersofSkyInTheMorningSun_mvl/mxv
 BYTE   W06
 BYTE   VOL   23*PokemonMysteryDungeonExplorersofSkyInTheMorningSun_mvl/mxv
 BYTE   W06
 BYTE   VOL   23*PokemonMysteryDungeonExplorersofSkyInTheMorningSun_mvl/mxv
 BYTE   W06
//  #12 //052   ----------------------------------------
 BYTE   VOL   24*PokemonMysteryDungeonExplorersofSkyInTheMorningSun_mvl/mxv
 BYTE   W06
 BYTE   VOL   24*PokemonMysteryDungeonExplorersofSkyInTheMorningSun_mvl/mxv
 BYTE   W12
 BYTE   VOL   25*PokemonMysteryDungeonExplorersofSkyInTheMorningSun_mvl/mxv
 BYTE   W06
 BYTE   VOL   25*PokemonMysteryDungeonExplorersofSkyInTheMorningSun_mvl/mxv
 BYTE   W06
 BYTE   VOL   26*PokemonMysteryDungeonExplorersofSkyInTheMorningSun_mvl/mxv
 BYTE   W06
 BYTE   VOL   27*PokemonMysteryDungeonExplorersofSkyInTheMorningSun_mvl/mxv
 BYTE   W06
 BYTE   VOL   27*PokemonMysteryDungeonExplorersofSkyInTheMorningSun_mvl/mxv
 BYTE   W06
 BYTE   VOL   27*PokemonMysteryDungeonExplorersofSkyInTheMorningSun_mvl/mxv
 BYTE   W06
 BYTE   VOL   27*PokemonMysteryDungeonExplorersofSkyInTheMorningSun_mvl/mxv
 BYTE   W06
 BYTE   VOL   28*PokemonMysteryDungeonExplorersofSkyInTheMorningSun_mvl/mxv
 BYTE   W06
 BYTE   VOL   28*PokemonMysteryDungeonExplorersofSkyInTheMorningSun_mvl/mxv
 BYTE   W06
 BYTE   VOL   28*PokemonMysteryDungeonExplorersofSkyInTheMorningSun_mvl/mxv
 BYTE   W06
 BYTE   VOL   29*PokemonMysteryDungeonExplorersofSkyInTheMorningSun_mvl/mxv
 BYTE   W06
 BYTE   VOL   29*PokemonMysteryDungeonExplorersofSkyInTheMorningSun_mvl/mxv
 BYTE   W06
 BYTE   VOL   30*PokemonMysteryDungeonExplorersofSkyInTheMorningSun_mvl/mxv
 BYTE   W06
//  #12 //053   ----------------------------------------
 BYTE   VOL   30*PokemonMysteryDungeonExplorersofSkyInTheMorningSun_mvl/mxv
 BYTE   W06
 BYTE   VOL   30*PokemonMysteryDungeonExplorersofSkyInTheMorningSun_mvl/mxv
 BYTE   W17
 BYTE   EOT
 BYTE   W01
 BYTE   N12  Dn3  v028
 BYTE   W12
 BYTE   Dn3  v020
 BYTE   W12
 BYTE   Dn3  v016
 BYTE   W12
 BYTE   Dn3  v012
 BYTE   W12
 BYTE   Dn3  v008
 BYTE   W24
//  #12 //054   ----------------------------------------
 BYTE   W24
 BYTE   VOL   20*PokemonMysteryDungeonExplorersofSkyInTheMorningSun_mvl/mxv
 BYTE   N92  Bn2  v100
 BYTE   N92  Dn3
 BYTE   W04
 BYTE   VOL   20*PokemonMysteryDungeonExplorersofSkyInTheMorningSun_mvl/mxv
 BYTE   W04
 BYTE   VOL   21*PokemonMysteryDungeonExplorersofSkyInTheMorningSun_mvl/mxv
 BYTE   W04
 BYTE   VOL   22*PokemonMysteryDungeonExplorersofSkyInTheMorningSun_mvl/mxv
 BYTE   W04
 BYTE   VOL   22*PokemonMysteryDungeonExplorersofSkyInTheMorningSun_mvl/mxv
 BYTE   W04
 BYTE   VOL   23*PokemonMysteryDungeonExplorersofSkyInTheMorningSun_mvl/mxv
 BYTE   W04
 BYTE   VOL   23*PokemonMysteryDungeonExplorersofSkyInTheMorningSun_mvl/mxv
 BYTE   W04
 BYTE   VOL   23*PokemonMysteryDungeonExplorersofSkyInTheMorningSun_mvl/mxv
 BYTE   W04
 BYTE   VOL   23*PokemonMysteryDungeonExplorersofSkyInTheMorningSun_mvl/mxv
 BYTE   W04
 BYTE   VOL   24*PokemonMysteryDungeonExplorersofSkyInTheMorningSun_mvl/mxv
 BYTE   W04
 BYTE   VOL   25*PokemonMysteryDungeonExplorersofSkyInTheMorningSun_mvl/mxv
 BYTE   W04
 BYTE   VOL   25*PokemonMysteryDungeonExplorersofSkyInTheMorningSun_mvl/mxv
 BYTE   W04
 BYTE   VOL   27*PokemonMysteryDungeonExplorersofSkyInTheMorningSun_mvl/mxv
 BYTE   W04
 BYTE   VOL   27*PokemonMysteryDungeonExplorersofSkyInTheMorningSun_mvl/mxv
 BYTE   W04
 BYTE   VOL   27*PokemonMysteryDungeonExplorersofSkyInTheMorningSun_mvl/mxv
 BYTE   W04
 BYTE   VOL   28*PokemonMysteryDungeonExplorersofSkyInTheMorningSun_mvl/mxv
 BYTE   W04
 BYTE   VOL   28*PokemonMysteryDungeonExplorersofSkyInTheMorningSun_mvl/mxv
 BYTE   W04
 BYTE   VOL   28*PokemonMysteryDungeonExplorersofSkyInTheMorningSun_mvl/mxv
 BYTE   W04
//  #12 //055   ----------------------------------------
 BYTE   VOL   29*PokemonMysteryDungeonExplorersofSkyInTheMorningSun_mvl/mxv
 BYTE   W04
 BYTE   VOL   30*PokemonMysteryDungeonExplorersofSkyInTheMorningSun_mvl/mxv
 BYTE   W04
 BYTE   VOL   30*PokemonMysteryDungeonExplorersofSkyInTheMorningSun_mvl/mxv
 BYTE   W08
 BYTE   VOL   30*PokemonMysteryDungeonExplorersofSkyInTheMorningSun_mvl/mxv
 BYTE   W04
 BYTE   VOL   30*PokemonMysteryDungeonExplorersofSkyInTheMorningSun_mvl/mxv
 BYTE   W04
 BYTE   VOL   29*PokemonMysteryDungeonExplorersofSkyInTheMorningSun_mvl/mxv
 BYTE   N92  Cs3
 BYTE   N92  En3
 BYTE   W04
 BYTE   VOL   29*PokemonMysteryDungeonExplorersofSkyInTheMorningSun_mvl/mxv
 BYTE   W04
 BYTE   VOL   28*PokemonMysteryDungeonExplorersofSkyInTheMorningSun_mvl/mxv
 BYTE   W04
 BYTE   VOL   28*PokemonMysteryDungeonExplorersofSkyInTheMorningSun_mvl/mxv
 BYTE   W04
 BYTE   VOL   28*PokemonMysteryDungeonExplorersofSkyInTheMorningSun_mvl/mxv
 BYTE   W04
 BYTE   VOL   27*PokemonMysteryDungeonExplorersofSkyInTheMorningSun_mvl/mxv
 BYTE   W04
 BYTE   VOL   27*PokemonMysteryDungeonExplorersofSkyInTheMorningSun_mvl/mxv
 BYTE   W04
 BYTE   VOL   27*PokemonMysteryDungeonExplorersofSkyInTheMorningSun_mvl/mxv
 BYTE   W04
 BYTE   VOL   27*PokemonMysteryDungeonExplorersofSkyInTheMorningSun_mvl/mxv
 BYTE   W04
 BYTE   VOL   26*PokemonMysteryDungeonExplorersofSkyInTheMorningSun_mvl/mxv
 BYTE   W04
 BYTE   VOL   25*PokemonMysteryDungeonExplorersofSkyInTheMorningSun_mvl/mxv
 BYTE   W04
 BYTE   VOL   25*PokemonMysteryDungeonExplorersofSkyInTheMorningSun_mvl/mxv
 BYTE   W04
 BYTE   VOL   24*PokemonMysteryDungeonExplorersofSkyInTheMorningSun_mvl/mxv
 BYTE   W04
 BYTE   VOL   24*PokemonMysteryDungeonExplorersofSkyInTheMorningSun_mvl/mxv
 BYTE   W04
 BYTE   VOL   23*PokemonMysteryDungeonExplorersofSkyInTheMorningSun_mvl/mxv
 BYTE   W04
 BYTE   VOL   23*PokemonMysteryDungeonExplorersofSkyInTheMorningSun_mvl/mxv
 BYTE   W08
 BYTE   VOL   23*PokemonMysteryDungeonExplorersofSkyInTheMorningSun_mvl/mxv
 BYTE   W04
//  #12 //056   ----------------------------------------
 BYTE   W04
 BYTE   VOL   22*PokemonMysteryDungeonExplorersofSkyInTheMorningSun_mvl/mxv
 BYTE   W08
 BYTE   VOL   21*PokemonMysteryDungeonExplorersofSkyInTheMorningSun_mvl/mxv
 BYTE   W04
 BYTE   VOL   21*PokemonMysteryDungeonExplorersofSkyInTheMorningSun_mvl/mxv
 BYTE   W04
 BYTE   VOL   21*PokemonMysteryDungeonExplorersofSkyInTheMorningSun_mvl/mxv
 BYTE   W04
 BYTE   TIE  Bn2
 BYTE   TIE  Dn3
 BYTE   W04
 BYTE   VOL   22*PokemonMysteryDungeonExplorersofSkyInTheMorningSun_mvl/mxv
 BYTE   W08
 BYTE   VOL   22*PokemonMysteryDungeonExplorersofSkyInTheMorningSun_mvl/mxv
 BYTE   W04
 BYTE   VOL   23*PokemonMysteryDungeonExplorersofSkyInTheMorningSun_mvl/mxv
 BYTE   W04
 BYTE   VOL   23*PokemonMysteryDungeonExplorersofSkyInTheMorningSun_mvl/mxv
 BYTE   W04
 BYTE   VOL   23*PokemonMysteryDungeonExplorersofSkyInTheMorningSun_mvl/mxv
 BYTE   W04
 BYTE   VOL   23*PokemonMysteryDungeonExplorersofSkyInTheMorningSun_mvl/mxv
 BYTE   W04
 BYTE   VOL   24*PokemonMysteryDungeonExplorersofSkyInTheMorningSun_mvl/mxv
 BYTE   W04
 BYTE   VOL   24*PokemonMysteryDungeonExplorersofSkyInTheMorningSun_mvl/mxv
 BYTE   W04
 BYTE   VOL   25*PokemonMysteryDungeonExplorersofSkyInTheMorningSun_mvl/mxv
 BYTE   W04
 BYTE   VOL   25*PokemonMysteryDungeonExplorersofSkyInTheMorningSun_mvl/mxv
 BYTE   W04
 BYTE   VOL   26*PokemonMysteryDungeonExplorersofSkyInTheMorningSun_mvl/mxv
 BYTE   W04
 BYTE   VOL   27*PokemonMysteryDungeonExplorersofSkyInTheMorningSun_mvl/mxv
 BYTE   W08
 BYTE   VOL   27*PokemonMysteryDungeonExplorersofSkyInTheMorningSun_mvl/mxv
 BYTE   W08
 BYTE   VOL   27*PokemonMysteryDungeonExplorersofSkyInTheMorningSun_mvl/mxv
 BYTE   W04
//  #12 //057   ----------------------------------------
 BYTE   VOL   28*PokemonMysteryDungeonExplorersofSkyInTheMorningSun_mvl/mxv
 BYTE   W04
 BYTE   VOL   28*PokemonMysteryDungeonExplorersofSkyInTheMorningSun_mvl/mxv
 BYTE   W04
 BYTE   VOL   28*PokemonMysteryDungeonExplorersofSkyInTheMorningSun_mvl/mxv
 BYTE   W04
 BYTE   VOL   29*PokemonMysteryDungeonExplorersofSkyInTheMorningSun_mvl/mxv
 BYTE   W04
 BYTE   VOL   29*PokemonMysteryDungeonExplorersofSkyInTheMorningSun_mvl/mxv
 BYTE   W04
 BYTE   VOL   30*PokemonMysteryDungeonExplorersofSkyInTheMorningSun_mvl/mxv
 BYTE   W04
 BYTE   VOL   29*PokemonMysteryDungeonExplorersofSkyInTheMorningSun_mvl/mxv
 BYTE   W04
 BYTE   VOL   29*PokemonMysteryDungeonExplorersofSkyInTheMorningSun_mvl/mxv
 BYTE   W08
 BYTE   VOL   28*PokemonMysteryDungeonExplorersofSkyInTheMorningSun_mvl/mxv
 BYTE   W04
 BYTE   VOL   28*PokemonMysteryDungeonExplorersofSkyInTheMorningSun_mvl/mxv
 BYTE   W04
 BYTE   VOL   28*PokemonMysteryDungeonExplorersofSkyInTheMorningSun_mvl/mxv
 BYTE   W04
 BYTE   VOL   27*PokemonMysteryDungeonExplorersofSkyInTheMorningSun_mvl/mxv
 BYTE   W08
 BYTE   VOL   27*PokemonMysteryDungeonExplorersofSkyInTheMorningSun_mvl/mxv
 BYTE   W08
 BYTE   VOL   27*PokemonMysteryDungeonExplorersofSkyInTheMorningSun_mvl/mxv
 BYTE   W04
 BYTE   VOL   27*PokemonMysteryDungeonExplorersofSkyInTheMorningSun_mvl/mxv
 BYTE   W04
 BYTE   VOL   26*PokemonMysteryDungeonExplorersofSkyInTheMorningSun_mvl/mxv
 BYTE   W08
 BYTE   VOL   25*PokemonMysteryDungeonExplorersofSkyInTheMorningSun_mvl/mxv
 BYTE   W04
 BYTE   VOL   25*PokemonMysteryDungeonExplorersofSkyInTheMorningSun_mvl/mxv
 BYTE   W04
 BYTE   VOL   24*PokemonMysteryDungeonExplorersofSkyInTheMorningSun_mvl/mxv
 BYTE   W08
//  #12 //058   ----------------------------------------
 BYTE   VOL   24*PokemonMysteryDungeonExplorersofSkyInTheMorningSun_mvl/mxv
 BYTE   W04
 BYTE   VOL   23*PokemonMysteryDungeonExplorersofSkyInTheMorningSun_mvl/mxv
 BYTE   W08
 BYTE   VOL   23*PokemonMysteryDungeonExplorersofSkyInTheMorningSun_mvl/mxv
 BYTE   W04
 BYTE   VOL   23*PokemonMysteryDungeonExplorersofSkyInTheMorningSun_mvl/mxv
 BYTE   W04
 BYTE   VOL   23*PokemonMysteryDungeonExplorersofSkyInTheMorningSun_mvl/mxv
 BYTE   W03
 BYTE   EOT
 BYTE   Bn2  v062
 BYTE   W01
 BYTE   VOL   22*PokemonMysteryDungeonExplorersofSkyInTheMorningSun_mvl/mxv
 BYTE   N92  Bn2
 BYTE   N92  Dn3
 BYTE   W04
 BYTE   VOL   23*PokemonMysteryDungeonExplorersofSkyInTheMorningSun_mvl/mxv
 BYTE   W04
 BYTE   VOL   23*PokemonMysteryDungeonExplorersofSkyInTheMorningSun_mvl/mxv
 BYTE   W04
 BYTE   VOL   23*PokemonMysteryDungeonExplorersofSkyInTheMorningSun_mvl/mxv
 BYTE   W04
 BYTE   VOL   23*PokemonMysteryDungeonExplorersofSkyInTheMorningSun_mvl/mxv
 BYTE   W08
 BYTE   VOL   24*PokemonMysteryDungeonExplorersofSkyInTheMorningSun_mvl/mxv
 BYTE   W04
 BYTE   VOL   24*PokemonMysteryDungeonExplorersofSkyInTheMorningSun_mvl/mxv
 BYTE   W04
 BYTE   VOL   25*PokemonMysteryDungeonExplorersofSkyInTheMorningSun_mvl/mxv
 BYTE   W04
 BYTE   VOL   25*PokemonMysteryDungeonExplorersofSkyInTheMorningSun_mvl/mxv
 BYTE   W04
 BYTE   VOL   26*PokemonMysteryDungeonExplorersofSkyInTheMorningSun_mvl/mxv
 BYTE   W04
 BYTE   VOL   27*PokemonMysteryDungeonExplorersofSkyInTheMorningSun_mvl/mxv
 BYTE   W04
 BYTE   VOL   27*PokemonMysteryDungeonExplorersofSkyInTheMorningSun_mvl/mxv
 BYTE   W04
 BYTE   VOL   27*PokemonMysteryDungeonExplorersofSkyInTheMorningSun_mvl/mxv
 BYTE   W04
 BYTE   VOL   27*PokemonMysteryDungeonExplorersofSkyInTheMorningSun_mvl/mxv
 BYTE   W08
 BYTE   VOL   28*PokemonMysteryDungeonExplorersofSkyInTheMorningSun_mvl/mxv
 BYTE   W04
 BYTE   VOL   28*PokemonMysteryDungeonExplorersofSkyInTheMorningSun_mvl/mxv
 BYTE   W04
//  #12 //059   ----------------------------------------
 BYTE   VOL   28*PokemonMysteryDungeonExplorersofSkyInTheMorningSun_mvl/mxv
 BYTE   W04
 BYTE   VOL   29*PokemonMysteryDungeonExplorersofSkyInTheMorningSun_mvl/mxv
 BYTE   W04
 BYTE   VOL   29*PokemonMysteryDungeonExplorersofSkyInTheMorningSun_mvl/mxv
 BYTE   W04
 BYTE   VOL   30*PokemonMysteryDungeonExplorersofSkyInTheMorningSun_mvl/mxv
 BYTE   W04
 BYTE   VOL   30*PokemonMysteryDungeonExplorersofSkyInTheMorningSun_mvl/mxv
 BYTE   W04
 BYTE   VOL   30*PokemonMysteryDungeonExplorersofSkyInTheMorningSun_mvl/mxv
 BYTE   W04
 BYTE   N92  Cs3
 BYTE   N92  En3
 BYTE   W04
 BYTE   VOL   30*PokemonMysteryDungeonExplorersofSkyInTheMorningSun_mvl/mxv
 BYTE   W04
 BYTE   VOL   29*PokemonMysteryDungeonExplorersofSkyInTheMorningSun_mvl/mxv
 BYTE   W04
 BYTE   VOL   29*PokemonMysteryDungeonExplorersofSkyInTheMorningSun_mvl/mxv
 BYTE   W04
 BYTE   VOL   28*PokemonMysteryDungeonExplorersofSkyInTheMorningSun_mvl/mxv
 BYTE   W04
 BYTE   VOL   28*PokemonMysteryDungeonExplorersofSkyInTheMorningSun_mvl/mxv
 BYTE   W04
 BYTE   VOL   28*PokemonMysteryDungeonExplorersofSkyInTheMorningSun_mvl/mxv
 BYTE   W04
 BYTE   VOL   27*PokemonMysteryDungeonExplorersofSkyInTheMorningSun_mvl/mxv
 BYTE   W08
 BYTE   VOL   27*PokemonMysteryDungeonExplorersofSkyInTheMorningSun_mvl/mxv
 BYTE   W04
 BYTE   VOL   27*PokemonMysteryDungeonExplorersofSkyInTheMorningSun_mvl/mxv
 BYTE   W04
 BYTE   VOL   27*PokemonMysteryDungeonExplorersofSkyInTheMorningSun_mvl/mxv
 BYTE   W04
 BYTE   VOL   26*PokemonMysteryDungeonExplorersofSkyInTheMorningSun_mvl/mxv
 BYTE   W04
 BYTE   VOL   25*PokemonMysteryDungeonExplorersofSkyInTheMorningSun_mvl/mxv
 BYTE   W04
 BYTE   VOL   25*PokemonMysteryDungeonExplorersofSkyInTheMorningSun_mvl/mxv
 BYTE   W04
 BYTE   VOL   24*PokemonMysteryDungeonExplorersofSkyInTheMorningSun_mvl/mxv
 BYTE   W08
 BYTE   VOL   23*PokemonMysteryDungeonExplorersofSkyInTheMorningSun_mvl/mxv
 BYTE   W04
//  #12 //060   ----------------------------------------
 BYTE   W04
 BYTE   VOL   23*PokemonMysteryDungeonExplorersofSkyInTheMorningSun_mvl/mxv
 BYTE   W04
 BYTE   VOL   23*PokemonMysteryDungeonExplorersofSkyInTheMorningSun_mvl/mxv
 BYTE   W04
 BYTE   VOL   23*PokemonMysteryDungeonExplorersofSkyInTheMorningSun_mvl/mxv
 BYTE   W04
 BYTE   VOL   23*PokemonMysteryDungeonExplorersofSkyInTheMorningSun_mvl/mxv
 BYTE   W08
 BYTE   VOL   23*PokemonMysteryDungeonExplorersofSkyInTheMorningSun_mvl/mxv
 BYTE   TIE  Bn2
 BYTE   TIE  Dn3
 BYTE   W04
 BYTE   VOL   23*PokemonMysteryDungeonExplorersofSkyInTheMorningSun_mvl/mxv
 BYTE   W04
 BYTE   VOL   23*PokemonMysteryDungeonExplorersofSkyInTheMorningSun_mvl/mxv
 BYTE   W08
 BYTE   VOL   24*PokemonMysteryDungeonExplorersofSkyInTheMorningSun_mvl/mxv
 BYTE   W04
 BYTE   VOL   24*PokemonMysteryDungeonExplorersofSkyInTheMorningSun_mvl/mxv
 BYTE   W04
 BYTE   VOL   25*PokemonMysteryDungeonExplorersofSkyInTheMorningSun_mvl/mxv
 BYTE   W04
 BYTE   VOL   25*PokemonMysteryDungeonExplorersofSkyInTheMorningSun_mvl/mxv
 BYTE   W08
 BYTE   VOL   26*PokemonMysteryDungeonExplorersofSkyInTheMorningSun_mvl/mxv
 BYTE   W04
 BYTE   VOL   27*PokemonMysteryDungeonExplorersofSkyInTheMorningSun_mvl/mxv
 BYTE   W04
 BYTE   VOL   27*PokemonMysteryDungeonExplorersofSkyInTheMorningSun_mvl/mxv
 BYTE   W04
 BYTE   VOL   27*PokemonMysteryDungeonExplorersofSkyInTheMorningSun_mvl/mxv
 BYTE   W08
 BYTE   VOL   27*PokemonMysteryDungeonExplorersofSkyInTheMorningSun_mvl/mxv
 BYTE   W04
 BYTE   VOL   28*PokemonMysteryDungeonExplorersofSkyInTheMorningSun_mvl/mxv
 BYTE   W04
 BYTE   VOL   28*PokemonMysteryDungeonExplorersofSkyInTheMorningSun_mvl/mxv
 BYTE   W08
//  #12 //061   ----------------------------------------
 BYTE   VOL   28*PokemonMysteryDungeonExplorersofSkyInTheMorningSun_mvl/mxv
 BYTE   W04
 BYTE   VOL   29*PokemonMysteryDungeonExplorersofSkyInTheMorningSun_mvl/mxv
 BYTE   W04
 BYTE   VOL   29*PokemonMysteryDungeonExplorersofSkyInTheMorningSun_mvl/mxv
 BYTE   W04
 BYTE   VOL   30*PokemonMysteryDungeonExplorersofSkyInTheMorningSun_mvl/mxv
 BYTE   W08
 BYTE   VOL   30*PokemonMysteryDungeonExplorersofSkyInTheMorningSun_mvl/mxv
 BYTE   W04
 BYTE   VOL   30*PokemonMysteryDungeonExplorersofSkyInTheMorningSun_mvl/mxv
 BYTE   W04
 BYTE   VOL   30*PokemonMysteryDungeonExplorersofSkyInTheMorningSun_mvl/mxv
 BYTE   W04
 BYTE   VOL   29*PokemonMysteryDungeonExplorersofSkyInTheMorningSun_mvl/mxv
 BYTE   W04
 BYTE   VOL   29*PokemonMysteryDungeonExplorersofSkyInTheMorningSun_mvl/mxv
 BYTE   W04
 BYTE   VOL   28*PokemonMysteryDungeonExplorersofSkyInTheMorningSun_mvl/mxv
 BYTE   W04
 BYTE   VOL   28*PokemonMysteryDungeonExplorersofSkyInTheMorningSun_mvl/mxv
 BYTE   W08
 BYTE   VOL   28*PokemonMysteryDungeonExplorersofSkyInTheMorningSun_mvl/mxv
 BYTE   W04
 BYTE   VOL   27*PokemonMysteryDungeonExplorersofSkyInTheMorningSun_mvl/mxv
 BYTE   W04
 BYTE   VOL   27*PokemonMysteryDungeonExplorersofSkyInTheMorningSun_mvl/mxv
 BYTE   W04
 BYTE   VOL   27*PokemonMysteryDungeonExplorersofSkyInTheMorningSun_mvl/mxv
 BYTE   W04
 BYTE   VOL   27*PokemonMysteryDungeonExplorersofSkyInTheMorningSun_mvl/mxv
 BYTE   W08
 BYTE   VOL   26*PokemonMysteryDungeonExplorersofSkyInTheMorningSun_mvl/mxv
 BYTE   W04
 BYTE   VOL   25*PokemonMysteryDungeonExplorersofSkyInTheMorningSun_mvl/mxv
 BYTE   W04
 BYTE   VOL   25*PokemonMysteryDungeonExplorersofSkyInTheMorningSun_mvl/mxv
 BYTE   W04
 BYTE   VOL   24*PokemonMysteryDungeonExplorersofSkyInTheMorningSun_mvl/mxv
 BYTE   W08
//  #12 //062   ----------------------------------------
 BYTE   VOL   23*PokemonMysteryDungeonExplorersofSkyInTheMorningSun_mvl/mxv
 BYTE   W08
 BYTE   VOL   23*PokemonMysteryDungeonExplorersofSkyInTheMorningSun_mvl/mxv
 BYTE   W04
 BYTE   VOL   23*PokemonMysteryDungeonExplorersofSkyInTheMorningSun_mvl/mxv
 BYTE   W04
 BYTE   VOL   23*PokemonMysteryDungeonExplorersofSkyInTheMorningSun_mvl/mxv
 BYTE   W07
 BYTE   EOT
 BYTE   Bn2  v062
 BYTE   W01
 BYTE   VOL   23*PokemonMysteryDungeonExplorersofSkyInTheMorningSun_mvl/mxv
 BYTE   N92  Bn2
 BYTE   N92  Dn3
 BYTE   W04
 BYTE   VOL   23*PokemonMysteryDungeonExplorersofSkyInTheMorningSun_mvl/mxv
 BYTE   W04
 BYTE   VOL   23*PokemonMysteryDungeonExplorersofSkyInTheMorningSun_mvl/mxv
 BYTE   W08
 BYTE   VOL   23*PokemonMysteryDungeonExplorersofSkyInTheMorningSun_mvl/mxv
 BYTE   W04
 BYTE   VOL   24*PokemonMysteryDungeonExplorersofSkyInTheMorningSun_mvl/mxv
 BYTE   W04
 BYTE   VOL   24*PokemonMysteryDungeonExplorersofSkyInTheMorningSun_mvl/mxv
 BYTE   W08
 BYTE   VOL   25*PokemonMysteryDungeonExplorersofSkyInTheMorningSun_mvl/mxv
 BYTE   W04
 BYTE   VOL   25*PokemonMysteryDungeonExplorersofSkyInTheMorningSun_mvl/mxv
 BYTE   W04
 BYTE   VOL   26*PokemonMysteryDungeonExplorersofSkyInTheMorningSun_mvl/mxv
 BYTE   W04
 BYTE   VOL   27*PokemonMysteryDungeonExplorersofSkyInTheMorningSun_mvl/mxv
 BYTE   W04
 BYTE   VOL   27*PokemonMysteryDungeonExplorersofSkyInTheMorningSun_mvl/mxv
 BYTE   W04
 BYTE   VOL   27*PokemonMysteryDungeonExplorersofSkyInTheMorningSun_mvl/mxv
 BYTE   W08
 BYTE   VOL   27*PokemonMysteryDungeonExplorersofSkyInTheMorningSun_mvl/mxv
 BYTE   W04
 BYTE   VOL   28*PokemonMysteryDungeonExplorersofSkyInTheMorningSun_mvl/mxv
 BYTE   W04
 BYTE   VOL   28*PokemonMysteryDungeonExplorersofSkyInTheMorningSun_mvl/mxv
 BYTE   W04
//  #12 //063   ----------------------------------------
 BYTE   VOL   28*PokemonMysteryDungeonExplorersofSkyInTheMorningSun_mvl/mxv
 BYTE   W04
 BYTE   VOL   29*PokemonMysteryDungeonExplorersofSkyInTheMorningSun_mvl/mxv
 BYTE   W08
 BYTE   VOL   29*PokemonMysteryDungeonExplorersofSkyInTheMorningSun_mvl/mxv
 BYTE   W04
 BYTE   VOL   30*PokemonMysteryDungeonExplorersofSkyInTheMorningSun_mvl/mxv
 BYTE   W04
 BYTE   VOL   30*PokemonMysteryDungeonExplorersofSkyInTheMorningSun_mvl/mxv
 BYTE   W04
 BYTE   VOL   30*PokemonMysteryDungeonExplorersofSkyInTheMorningSun_mvl/mxv
 BYTE   N92  Cs3
 BYTE   N92  En3
 BYTE   W04
 BYTE   VOL   30*PokemonMysteryDungeonExplorersofSkyInTheMorningSun_mvl/mxv
 BYTE   W04
 BYTE   VOL   30*PokemonMysteryDungeonExplorersofSkyInTheMorningSun_mvl/mxv
 BYTE   W04
 BYTE   VOL   29*PokemonMysteryDungeonExplorersofSkyInTheMorningSun_mvl/mxv
 BYTE   W04
 BYTE   VOL   29*PokemonMysteryDungeonExplorersofSkyInTheMorningSun_mvl/mxv
 BYTE   W08
 BYTE   VOL   28*PokemonMysteryDungeonExplorersofSkyInTheMorningSun_mvl/mxv
 BYTE   W04
 BYTE   VOL   28*PokemonMysteryDungeonExplorersofSkyInTheMorningSun_mvl/mxv
 BYTE   W04
 BYTE   VOL   28*PokemonMysteryDungeonExplorersofSkyInTheMorningSun_mvl/mxv
 BYTE   W04
 BYTE   VOL   27*PokemonMysteryDungeonExplorersofSkyInTheMorningSun_mvl/mxv
 BYTE   W04
 BYTE   VOL   27*PokemonMysteryDungeonExplorersofSkyInTheMorningSun_mvl/mxv
 BYTE   W08
 BYTE   VOL   27*PokemonMysteryDungeonExplorersofSkyInTheMorningSun_mvl/mxv
 BYTE   W04
 BYTE   VOL   27*PokemonMysteryDungeonExplorersofSkyInTheMorningSun_mvl/mxv
 BYTE   W04
 BYTE   VOL   26*PokemonMysteryDungeonExplorersofSkyInTheMorningSun_mvl/mxv
 BYTE   W04
 BYTE   VOL   25*PokemonMysteryDungeonExplorersofSkyInTheMorningSun_mvl/mxv
 BYTE   W08
 BYTE   VOL   24*PokemonMysteryDungeonExplorersofSkyInTheMorningSun_mvl/mxv
 BYTE   W04
//  #12 //064   ----------------------------------------
 BYTE   W04
 BYTE   VOL   24*PokemonMysteryDungeonExplorersofSkyInTheMorningSun_mvl/mxv
 BYTE   W04
 BYTE   VOL   23*PokemonMysteryDungeonExplorersofSkyInTheMorningSun_mvl/mxv
 BYTE   W04
 BYTE   VOL   23*PokemonMysteryDungeonExplorersofSkyInTheMorningSun_mvl/mxv
 BYTE   W08
 BYTE   VOL   23*PokemonMysteryDungeonExplorersofSkyInTheMorningSun_mvl/mxv
 BYTE   W04
 BYTE   VOL   22*PokemonMysteryDungeonExplorersofSkyInTheMorningSun_mvl/mxv
 BYTE   TIE  Bn2
 BYTE   TIE  Dn3
 BYTE   W04
 BYTE   VOL   23*PokemonMysteryDungeonExplorersofSkyInTheMorningSun_mvl/mxv
 BYTE   W04
 BYTE   VOL   23*PokemonMysteryDungeonExplorersofSkyInTheMorningSun_mvl/mxv
 BYTE   W04
 BYTE   VOL   23*PokemonMysteryDungeonExplorersofSkyInTheMorningSun_mvl/mxv
 BYTE   W04
 BYTE   VOL   23*PokemonMysteryDungeonExplorersofSkyInTheMorningSun_mvl/mxv
 BYTE   W08
 BYTE   VOL   24*PokemonMysteryDungeonExplorersofSkyInTheMorningSun_mvl/mxv
 BYTE   W04
 BYTE   VOL   24*PokemonMysteryDungeonExplorersofSkyInTheMorningSun_mvl/mxv
 BYTE   W04
 BYTE   VOL   25*PokemonMysteryDungeonExplorersofSkyInTheMorningSun_mvl/mxv
 BYTE   W04
 BYTE   VOL   25*PokemonMysteryDungeonExplorersofSkyInTheMorningSun_mvl/mxv
 BYTE   W04
 BYTE   VOL   26*PokemonMysteryDungeonExplorersofSkyInTheMorningSun_mvl/mxv
 BYTE   W04
 BYTE   VOL   27*PokemonMysteryDungeonExplorersofSkyInTheMorningSun_mvl/mxv
 BYTE   W04
 BYTE   VOL   27*PokemonMysteryDungeonExplorersofSkyInTheMorningSun_mvl/mxv
 BYTE   W04
 BYTE   VOL   27*PokemonMysteryDungeonExplorersofSkyInTheMorningSun_mvl/mxv
 BYTE   W04
 BYTE   VOL   27*PokemonMysteryDungeonExplorersofSkyInTheMorningSun_mvl/mxv
 BYTE   W08
 BYTE   VOL   28*PokemonMysteryDungeonExplorersofSkyInTheMorningSun_mvl/mxv
 BYTE   W04
 BYTE   VOL   28*PokemonMysteryDungeonExplorersofSkyInTheMorningSun_mvl/mxv
 BYTE   W04
//  #12 //065   ----------------------------------------
 BYTE   VOL   28*PokemonMysteryDungeonExplorersofSkyInTheMorningSun_mvl/mxv
 BYTE   W04
 BYTE   VOL   29*PokemonMysteryDungeonExplorersofSkyInTheMorningSun_mvl/mxv
 BYTE   W04
 BYTE   VOL   29*PokemonMysteryDungeonExplorersofSkyInTheMorningSun_mvl/mxv
 BYTE   W04
 BYTE   VOL   30*PokemonMysteryDungeonExplorersofSkyInTheMorningSun_mvl/mxv
 BYTE   W04
 BYTE   VOL   30*PokemonMysteryDungeonExplorersofSkyInTheMorningSun_mvl/mxv
 BYTE   W04
 BYTE   VOL   30*PokemonMysteryDungeonExplorersofSkyInTheMorningSun_mvl/mxv
 BYTE   W04
 BYTE   VOL   30*PokemonMysteryDungeonExplorersofSkyInTheMorningSun_mvl/mxv
 BYTE   W08
 BYTE   VOL   29*PokemonMysteryDungeonExplorersofSkyInTheMorningSun_mvl/mxv
 BYTE   W04
 BYTE   VOL   29*PokemonMysteryDungeonExplorersofSkyInTheMorningSun_mvl/mxv
 BYTE   W04
 BYTE   VOL   28*PokemonMysteryDungeonExplorersofSkyInTheMorningSun_mvl/mxv
 BYTE   W04
 BYTE   VOL   28*PokemonMysteryDungeonExplorersofSkyInTheMorningSun_mvl/mxv
 BYTE   W08
 BYTE   VOL   28*PokemonMysteryDungeonExplorersofSkyInTheMorningSun_mvl/mxv
 BYTE   W04
 BYTE   VOL   27*PokemonMysteryDungeonExplorersofSkyInTheMorningSun_mvl/mxv
 BYTE   W08
 BYTE   VOL   27*PokemonMysteryDungeonExplorersofSkyInTheMorningSun_mvl/mxv
 BYTE   W04
 BYTE   VOL   27*PokemonMysteryDungeonExplorersofSkyInTheMorningSun_mvl/mxv
 BYTE   W04
 BYTE   VOL   27*PokemonMysteryDungeonExplorersofSkyInTheMorningSun_mvl/mxv
 BYTE   W08
 BYTE   VOL   26*PokemonMysteryDungeonExplorersofSkyInTheMorningSun_mvl/mxv
 BYTE   W04
 BYTE   VOL   25*PokemonMysteryDungeonExplorersofSkyInTheMorningSun_mvl/mxv
 BYTE   W04
 BYTE   VOL   25*PokemonMysteryDungeonExplorersofSkyInTheMorningSun_mvl/mxv
 BYTE   W08
//  #12 //066   ----------------------------------------
 BYTE   VOL   24*PokemonMysteryDungeonExplorersofSkyInTheMorningSun_mvl/mxv
 BYTE   W04
 BYTE   VOL   24*PokemonMysteryDungeonExplorersofSkyInTheMorningSun_mvl/mxv
 BYTE   W04
 BYTE   VOL   23*PokemonMysteryDungeonExplorersofSkyInTheMorningSun_mvl/mxv
 BYTE   W08
 BYTE   VOL   23*PokemonMysteryDungeonExplorersofSkyInTheMorningSun_mvl/mxv
 BYTE   W04
 BYTE   VOL   23*PokemonMysteryDungeonExplorersofSkyInTheMorningSun_mvl/mxv
 BYTE   W03
 BYTE   EOT
 BYTE   Bn2  v062
 BYTE   W01
 BYTE   VOL   23*PokemonMysteryDungeonExplorersofSkyInTheMorningSun_mvl/mxv
 BYTE   TIE  Bn2
 BYTE   TIE  Dn3
 BYTE   W04
 BYTE   VOL   23*PokemonMysteryDungeonExplorersofSkyInTheMorningSun_mvl/mxv
 BYTE   W04
 BYTE   VOL   23*PokemonMysteryDungeonExplorersofSkyInTheMorningSun_mvl/mxv
 BYTE   W04
 BYTE   VOL   23*PokemonMysteryDungeonExplorersofSkyInTheMorningSun_mvl/mxv
 BYTE   W04
 BYTE   VOL   23*PokemonMysteryDungeonExplorersofSkyInTheMorningSun_mvl/mxv
 BYTE   W08
 BYTE   VOL   24*PokemonMysteryDungeonExplorersofSkyInTheMorningSun_mvl/mxv
 BYTE   W04
 BYTE   VOL   24*PokemonMysteryDungeonExplorersofSkyInTheMorningSun_mvl/mxv
 BYTE   W04
 BYTE   VOL   25*PokemonMysteryDungeonExplorersofSkyInTheMorningSun_mvl/mxv
 BYTE   W04
 BYTE   VOL   25*PokemonMysteryDungeonExplorersofSkyInTheMorningSun_mvl/mxv
 BYTE   W08
 BYTE   VOL   26*PokemonMysteryDungeonExplorersofSkyInTheMorningSun_mvl/mxv
 BYTE   W04
 BYTE   VOL   27*PokemonMysteryDungeonExplorersofSkyInTheMorningSun_mvl/mxv
 BYTE   W04
 BYTE   VOL   27*PokemonMysteryDungeonExplorersofSkyInTheMorningSun_mvl/mxv
 BYTE   W04
 BYTE   VOL   27*PokemonMysteryDungeonExplorersofSkyInTheMorningSun_mvl/mxv
 BYTE   W04
 BYTE   VOL   27*PokemonMysteryDungeonExplorersofSkyInTheMorningSun_mvl/mxv
 BYTE   W08
 BYTE   VOL   28*PokemonMysteryDungeonExplorersofSkyInTheMorningSun_mvl/mxv
 BYTE   W04
//  #12 //067   ----------------------------------------
 BYTE   VOL   28*PokemonMysteryDungeonExplorersofSkyInTheMorningSun_mvl/mxv
 BYTE   W04
 BYTE   VOL   28*PokemonMysteryDungeonExplorersofSkyInTheMorningSun_mvl/mxv
 BYTE   W04
 BYTE   VOL   29*PokemonMysteryDungeonExplorersofSkyInTheMorningSun_mvl/mxv
 BYTE   W08
 BYTE   VOL   29*PokemonMysteryDungeonExplorersofSkyInTheMorningSun_mvl/mxv
 BYTE   W04
 BYTE   VOL   30*PokemonMysteryDungeonExplorersofSkyInTheMorningSun_mvl/mxv
 BYTE   W04
 BYTE   VOL   30*PokemonMysteryDungeonExplorersofSkyInTheMorningSun_mvl/mxv
 BYTE   W04
 BYTE   VOL   30*PokemonMysteryDungeonExplorersofSkyInTheMorningSun_mvl/mxv
 BYTE   W08
 BYTE   VOL   29*PokemonMysteryDungeonExplorersofSkyInTheMorningSun_mvl/mxv
 BYTE   W08
 BYTE   VOL   29*PokemonMysteryDungeonExplorersofSkyInTheMorningSun_mvl/mxv
 BYTE   W08
 BYTE   VOL   28*PokemonMysteryDungeonExplorersofSkyInTheMorningSun_mvl/mxv
 BYTE   W04
 BYTE   VOL   28*PokemonMysteryDungeonExplorersofSkyInTheMorningSun_mvl/mxv
 BYTE   W08
 BYTE   VOL   28*PokemonMysteryDungeonExplorersofSkyInTheMorningSun_mvl/mxv
 BYTE   W04
 BYTE   VOL   27*PokemonMysteryDungeonExplorersofSkyInTheMorningSun_mvl/mxv
 BYTE   W08
 BYTE   VOL   27*PokemonMysteryDungeonExplorersofSkyInTheMorningSun_mvl/mxv
 BYTE   W08
 BYTE   VOL   27*PokemonMysteryDungeonExplorersofSkyInTheMorningSun_mvl/mxv
 BYTE   W04
 BYTE   VOL   27*PokemonMysteryDungeonExplorersofSkyInTheMorningSun_mvl/mxv
 BYTE   W08
//  #12 //068   ----------------------------------------
 BYTE   VOL   26*PokemonMysteryDungeonExplorersofSkyInTheMorningSun_mvl/mxv
 BYTE   W08
 BYTE   VOL   25*PokemonMysteryDungeonExplorersofSkyInTheMorningSun_mvl/mxv
 BYTE   W08
 BYTE   VOL   25*PokemonMysteryDungeonExplorersofSkyInTheMorningSun_mvl/mxv
 BYTE   W04
 BYTE   VOL   24*PokemonMysteryDungeonExplorersofSkyInTheMorningSun_mvl/mxv
 BYTE   W03
 BYTE   EOT
 BYTE   Bn2  v062
 BYTE   W01
 BYTE   VOL   24*PokemonMysteryDungeonExplorersofSkyInTheMorningSun_mvl/mxv
 BYTE   N92  Cs3
 BYTE   W04
 BYTE   VOL   25*PokemonMysteryDungeonExplorersofSkyInTheMorningSun_mvl/mxv
 BYTE   W04
 BYTE   VOL   25*PokemonMysteryDungeonExplorersofSkyInTheMorningSun_mvl/mxv
 BYTE   W04
 BYTE   VOL   27*PokemonMysteryDungeonExplorersofSkyInTheMorningSun_mvl/mxv
 BYTE   W04
 BYTE   VOL   27*PokemonMysteryDungeonExplorersofSkyInTheMorningSun_mvl/mxv
 BYTE   W04
 BYTE   VOL   27*PokemonMysteryDungeonExplorersofSkyInTheMorningSun_mvl/mxv
 BYTE   W04
 BYTE   VOL   28*PokemonMysteryDungeonExplorersofSkyInTheMorningSun_mvl/mxv
 BYTE   W04
 BYTE   VOL   29*PokemonMysteryDungeonExplorersofSkyInTheMorningSun_mvl/mxv
 BYTE   W04
 BYTE   VOL   29*PokemonMysteryDungeonExplorersofSkyInTheMorningSun_mvl/mxv
 BYTE   W04
 BYTE   VOL   30*PokemonMysteryDungeonExplorersofSkyInTheMorningSun_mvl/mxv
 BYTE   W08
 BYTE   VOL   30*PokemonMysteryDungeonExplorersofSkyInTheMorningSun_mvl/mxv
 BYTE   W04
 BYTE   VOL   29*PokemonMysteryDungeonExplorersofSkyInTheMorningSun_mvl/mxv
 BYTE   W04
 BYTE   VOL   27*PokemonMysteryDungeonExplorersofSkyInTheMorningSun_mvl/mxv
 BYTE   W04
 BYTE   VOL   26*PokemonMysteryDungeonExplorersofSkyInTheMorningSun_mvl/mxv
 BYTE   W04
 BYTE   VOL   24*PokemonMysteryDungeonExplorersofSkyInTheMorningSun_mvl/mxv
 BYTE   W04
 BYTE   VOL   23*PokemonMysteryDungeonExplorersofSkyInTheMorningSun_mvl/mxv
 BYTE   W04
 BYTE   VOL   22*PokemonMysteryDungeonExplorersofSkyInTheMorningSun_mvl/mxv
 BYTE   W04
//  #12 //069   ----------------------------------------
 BYTE   VOL   20*PokemonMysteryDungeonExplorersofSkyInTheMorningSun_mvl/mxv
 BYTE   W04
 BYTE   VOL   19*PokemonMysteryDungeonExplorersofSkyInTheMorningSun_mvl/mxv
 BYTE   W04
 BYTE   VOL   18*PokemonMysteryDungeonExplorersofSkyInTheMorningSun_mvl/mxv
 BYTE   W04
 BYTE   VOL   17*PokemonMysteryDungeonExplorersofSkyInTheMorningSun_mvl/mxv
 BYTE   W04
 BYTE   VOL   15*PokemonMysteryDungeonExplorersofSkyInTheMorningSun_mvl/mxv
 BYTE   W80
//  #12 //070   ----------------------------------------
 BYTE   W96
//  #12 //071   ----------------------------------------
 BYTE   W96
//  #12 //072   ----------------------------------------
 BYTE   W96
//  #12 //073   ----------------------------------------
 BYTE   W96
//  #12 //074   ----------------------------------------
 BYTE   W96
//  #12 //075   ----------------------------------------
 BYTE   W96
//  #12 //076   ----------------------------------------
 BYTE   W96
//  #12 //077   ----------------------------------------
 BYTE   W96
//  #12 //078   ----------------------------------------
 BYTE   PATT
  POIN2 Label_01688224
//  #12 //079   ----------------------------------------
 BYTE   PATT
  POIN2 Label_01688240
//  #12 //080   ----------------------------------------
 BYTE   PATT
  POIN2 Label_01688262
//  #12 //081   ----------------------------------------
 BYTE   PATT
  POIN2 Label_01688286
//  #12 //082   ----------------------------------------
 BYTE   PATT
  POIN2 Label_01688290
//  #12 //083   ----------------------------------------
 BYTE   EOT
 BYTE   Bn2  v062
 BYTE   W01
 BYTE   TIE  Bn2  v072
 BYTE   TIE  Dn3  v052
 BYTE   W03
 BYTE   VOL   24*PokemonMysteryDungeonExplorersofSkyInTheMorningSun_mvl/mxv
 BYTE   W06
 BYTE   VOL   26*PokemonMysteryDungeonExplorersofSkyInTheMorningSun_mvl/mxv
 BYTE   W06
 BYTE   VOL   27*PokemonMysteryDungeonExplorersofSkyInTheMorningSun_mvl/mxv
 BYTE   W06
 BYTE   VOL   28*PokemonMysteryDungeonExplorersofSkyInTheMorningSun_mvl/mxv
 BYTE   W06
 BYTE   VOL   28*PokemonMysteryDungeonExplorersofSkyInTheMorningSun_mvl/mxv
 BYTE   W06
 BYTE   VOL   29*PokemonMysteryDungeonExplorersofSkyInTheMorningSun_mvl/mxv
 BYTE   W06
 BYTE   VOL   29*PokemonMysteryDungeonExplorersofSkyInTheMorningSun_mvl/mxv
 BYTE   W32
 BYTE   W01
//  #12 //084   ----------------------------------------
 BYTE   PATT
  POIN2 Label_016882B6
//  #12 //085   ----------------------------------------
 BYTE   PATT
  POIN2 Label_016882BE
//  #12 //086   ----------------------------------------
 BYTE   EOT
 BYTE   Bn2  v062
 BYTE   W01
 BYTE   N92  Cs3  v052
 BYTE   W01
 BYTE   VOL   26*PokemonMysteryDungeonExplorersofSkyInTheMorningSun_mvl/mxv
 BYTE   W06
 BYTE   VOL   27*PokemonMysteryDungeonExplorersofSkyInTheMorningSun_mvl/mxv
 BYTE   W06
 BYTE   VOL   28*PokemonMysteryDungeonExplorersofSkyInTheMorningSun_mvl/mxv
 BYTE   W06
 BYTE   VOL   29*PokemonMysteryDungeonExplorersofSkyInTheMorningSun_mvl/mxv
 BYTE   W06
 BYTE   VOL   29*PokemonMysteryDungeonExplorersofSkyInTheMorningSun_mvl/mxv
 BYTE   W44
 BYTE   W02
 BYTE   VOL   30*PokemonMysteryDungeonExplorersofSkyInTheMorningSun_mvl/mxv
 BYTE   W01
//  #12 //087   ----------------------------------------
 BYTE   PATT
  POIN2 Label_016882DD
//  #12 //088   ----------------------------------------
 BYTE   PATT
  POIN2 Label_016882F8
//  #12 //089   ----------------------------------------
 BYTE   PATT
  POIN2 Label_01688313
//  #12 //090   ----------------------------------------
 BYTE   PATT
  POIN2 Label_01688335
//  #12 //091   ----------------------------------------
 BYTE   EOT
 BYTE   Cs3
 BYTE   W01
 BYTE   GoTo
  POIN2 Label_01688340
 BYTE   FINE

//**************** Track 13 (Midi-Chn.12) ****************//

PokemonMysteryDungeonExplorersofSkyInTheMorningSun_013:
//  #13 //000   ----------------------------------------
 BYTE   KEYSH   PokemonMysteryDungeonExplorersofSkyInTheMorningSun_key+0
 BYTE   VOICE   11
 BYTE   MODT 0
 BYTE   LFOS 44
 BYTE   VOL   33*PokemonMysteryDungeonExplorersofSkyInTheMorningSun_mvl/mxv
 BYTE   PAN   c_v+0
 BYTE   VOL   33*PokemonMysteryDungeonExplorersofSkyInTheMorningSun_mvl/mxv
 BYTE   BEND   c_v+0
 BYTE   N17  Bn4  v116
 BYTE   W24
 BYTE   N30  Fs5
 BYTE   W48
 BYTE   N17
 BYTE   W24
//  #13 //001   ----------------------------------------
Label_01688915:
 BYTE   N07  Gn5  v112
 BYTE   W12
 BYTE   N42  An5  v104
 BYTE   W60
 BYTE   N17  An5  v116
 BYTE   W24
 BYTE   PEND 
//  #13 //002   ----------------------------------------
Label_01688922:
 BYTE   N07  Cs6  v116
 BYTE   W12
 BYTE   TIE  Dn6  v060
 BYTE   W84
 BYTE   PEND 
//  #13 //003   ----------------------------------------
 BYTE   W68
 BYTE   EOT
 BYTE   W28
//  #13 //004   ----------------------------------------
 BYTE   N17  Bn4  v116
 BYTE   W24
 BYTE   N30  Fs5
 BYTE   W48
 BYTE   N17
 BYTE   W24
//  #13 //005   ----------------------------------------
 BYTE   PATT
  POIN2 Label_01688915
//  #13 //006   ----------------------------------------
 BYTE   PATT
  POIN2 Label_01688922
//  #13 //007   ----------------------------------------
 BYTE   W68
 BYTE   EOT
 BYTE   Dn6
 BYTE   W28
//  #13 //008   ----------------------------------------
 BYTE   W96
//  #13 //009   ----------------------------------------
 BYTE   W96
//  #13 //010   ----------------------------------------
 BYTE   W96
//  #13 //011   ----------------------------------------
 BYTE   W96
//  #13 //012   ----------------------------------------
 BYTE   W96
//  #13 //013   ----------------------------------------
 BYTE   W96
//  #13 //014   ----------------------------------------
 BYTE   W96
//  #13 //015   ----------------------------------------
 BYTE   W96
//  #13 //016   ----------------------------------------
 BYTE   W24
 BYTE   VOICE   73
 BYTE   VOL   10*PokemonMysteryDungeonExplorersofSkyInTheMorningSun_mvl/mxv
 BYTE   PAN   c_v+63
 BYTE   VOL   10*PokemonMysteryDungeonExplorersofSkyInTheMorningSun_mvl/mxv
 BYTE   BEND   c_v+0
 BYTE   W72
//  #13 //017   ----------------------------------------
 BYTE   W36
 BYTE   VOL   10*PokemonMysteryDungeonExplorersofSkyInTheMorningSun_mvl/mxv
 BYTE   W48
 BYTE   VOICE   74
 BYTE   W12
//  #13 //018   ----------------------------------------
 BYTE   W12
 BYTE   N24  Fs4  v060
 BYTE   W12
Label_01688965:
 BYTE   W12
 BYTE   N36  Cs5  v060
 BYTE   W36
 BYTE   N12  Bn4
 BYTE   W12
 BYTE   Bn4  v028
 BYTE   W12
//  #13 //019   ----------------------------------------
 BYTE   Bn4  v012
 BYTE   W12
 BYTE   N72  Fs4  v060
 BYTE   W42
 BYTE   VOL   10*PokemonMysteryDungeonExplorersofSkyInTheMorningSun_mvl/mxv
 BYTE   W06
 BYTE   VOL   9*PokemonMysteryDungeonExplorersofSkyInTheMorningSun_mvl/mxv
 BYTE   W06
 BYTE   VOL   8*PokemonMysteryDungeonExplorersofSkyInTheMorningSun_mvl/mxv
 BYTE   W06
 BYTE   VOL   6*PokemonMysteryDungeonExplorersofSkyInTheMorningSun_mvl/mxv
 BYTE   W06
 BYTE   VOL   6*PokemonMysteryDungeonExplorersofSkyInTheMorningSun_mvl/mxv
 BYTE   W06
 BYTE   VOL   5*PokemonMysteryDungeonExplorersofSkyInTheMorningSun_mvl/mxv
 BYTE   N24  Fs4  v028
 BYTE   W12
//  #13 //020   ----------------------------------------
 BYTE   W12
 BYTE   Fs4  v012
 BYTE   W24
 BYTE   VOL   10*PokemonMysteryDungeonExplorersofSkyInTheMorningSun_mvl/mxv
 BYTE   N36  En4  v060
 BYTE   W36
 BYTE   N12  An4
 BYTE   W12
 BYTE   An4  v028
 BYTE   W12
//  #13 //021   ----------------------------------------
 BYTE   An4  v012
 BYTE   W12
 BYTE   N72  Fs4  v060
 BYTE   W12
 BYTE   VOL   10*PokemonMysteryDungeonExplorersofSkyInTheMorningSun_mvl/mxv
 BYTE   W06
 BYTE   VOL   10*PokemonMysteryDungeonExplorersofSkyInTheMorningSun_mvl/mxv
 BYTE   W06
 BYTE   VOL   8*PokemonMysteryDungeonExplorersofSkyInTheMorningSun_mvl/mxv
 BYTE   W06
 BYTE   VOL   8*PokemonMysteryDungeonExplorersofSkyInTheMorningSun_mvl/mxv
 BYTE   W06
 BYTE   VOL   8*PokemonMysteryDungeonExplorersofSkyInTheMorningSun_mvl/mxv
 BYTE   W06
 BYTE   VOL   7*PokemonMysteryDungeonExplorersofSkyInTheMorningSun_mvl/mxv
 BYTE   W06
 BYTE   VOL   6*PokemonMysteryDungeonExplorersofSkyInTheMorningSun_mvl/mxv
 BYTE   W06
 BYTE   VOL   6*PokemonMysteryDungeonExplorersofSkyInTheMorningSun_mvl/mxv
 BYTE   W06
 BYTE   VOL   6*PokemonMysteryDungeonExplorersofSkyInTheMorningSun_mvl/mxv
 BYTE   W06
 BYTE   VOL   5*PokemonMysteryDungeonExplorersofSkyInTheMorningSun_mvl/mxv
 BYTE   W06
 BYTE   VOL   5*PokemonMysteryDungeonExplorersofSkyInTheMorningSun_mvl/mxv
 BYTE   N12  Fs4  v028
 BYTE   W06
 BYTE   VOL   5*PokemonMysteryDungeonExplorersofSkyInTheMorningSun_mvl/mxv
 BYTE   W06
//  #13 //022   ----------------------------------------
 BYTE   VOL   4*PokemonMysteryDungeonExplorersofSkyInTheMorningSun_mvl/mxv
 BYTE   N12  Fs4  v012
 BYTE   W12
 BYTE   VOL   10*PokemonMysteryDungeonExplorersofSkyInTheMorningSun_mvl/mxv
 BYTE   N24  Fs3  v060
 BYTE   W24
 BYTE   Bn3
 BYTE   W24
 BYTE   N12  Fs3
 BYTE   W12
 BYTE   N24  Cs4
 BYTE   W24
//  #13 //023   ----------------------------------------
 BYTE   N12  Fs3
 BYTE   W12
 BYTE   Fs3  v028
 BYTE   W12
 BYTE   N24  Dn4  v060
 BYTE   W24
 BYTE   N12  Fs3
 BYTE   W12
 BYTE   Fs3  v028
 BYTE   W12
 BYTE   N24  En4  v060
 BYTE   W24
//  #13 //024   ----------------------------------------
 BYTE   N12  An4
 BYTE   W12
 BYTE   An4  v028
 BYTE   W12
 BYTE   TIE  Fs4  v060
 BYTE   W30
 BYTE   VOL   10*PokemonMysteryDungeonExplorersofSkyInTheMorningSun_mvl/mxv
 BYTE   W06
 BYTE   VOL   10*PokemonMysteryDungeonExplorersofSkyInTheMorningSun_mvl/mxv
 BYTE   W06
 BYTE   VOL   8*PokemonMysteryDungeonExplorersofSkyInTheMorningSun_mvl/mxv
 BYTE   W06
 BYTE   VOL   8*PokemonMysteryDungeonExplorersofSkyInTheMorningSun_mvl/mxv
 BYTE   W06
 BYTE   VOL   8*PokemonMysteryDungeonExplorersofSkyInTheMorningSun_mvl/mxv
 BYTE   W06
 BYTE   VOL   6*PokemonMysteryDungeonExplorersofSkyInTheMorningSun_mvl/mxv
 BYTE   W06
 BYTE   VOL   6*PokemonMysteryDungeonExplorersofSkyInTheMorningSun_mvl/mxv
 BYTE   W06
//  #13 //025   ----------------------------------------
 BYTE   VOL   6*PokemonMysteryDungeonExplorersofSkyInTheMorningSun_mvl/mxv
 BYTE   W06
 BYTE   VOL   5*PokemonMysteryDungeonExplorersofSkyInTheMorningSun_mvl/mxv
 BYTE   W06
 BYTE   VOL   5*PokemonMysteryDungeonExplorersofSkyInTheMorningSun_mvl/mxv
 BYTE   W06
 BYTE   VOL   5*PokemonMysteryDungeonExplorersofSkyInTheMorningSun_mvl/mxv
 BYTE   W06
 BYTE   VOL   4*PokemonMysteryDungeonExplorersofSkyInTheMorningSun_mvl/mxv
 BYTE   W06
 BYTE   VOL   3*PokemonMysteryDungeonExplorersofSkyInTheMorningSun_mvl/mxv
 BYTE   W06
 BYTE   VOL   3*PokemonMysteryDungeonExplorersofSkyInTheMorningSun_mvl/mxv
 BYTE   W06
 BYTE   VOL   3*PokemonMysteryDungeonExplorersofSkyInTheMorningSun_mvl/mxv
 BYTE   W06
 BYTE   VOL   2*PokemonMysteryDungeonExplorersofSkyInTheMorningSun_mvl/mxv
 BYTE   W06
 BYTE   VOL   2*PokemonMysteryDungeonExplorersofSkyInTheMorningSun_mvl/mxv
 BYTE   W06
 BYTE   EOT
 BYTE   N12  Fs4  v028
 BYTE   W12
 BYTE   Fs4  v012
 BYTE   W12
 BYTE   Fs4  v008
 BYTE   W12
//  #13 //026   ----------------------------------------
 BYTE   Fs4  v004
 BYTE   W12
 BYTE   VOL   10*PokemonMysteryDungeonExplorersofSkyInTheMorningSun_mvl/mxv
 BYTE   N24  Fs5  v048
 BYTE   W24
 BYTE   N36  Cs6
 BYTE   W36
 BYTE   N12  Bn5
 BYTE   W12
 BYTE   Bn5  v020
 BYTE   W12
//  #13 //027   ----------------------------------------
 BYTE   Bn5  v008
 BYTE   W12
 BYTE   N72  Fs5  v048
 BYTE   W30
 BYTE   VOL   10*PokemonMysteryDungeonExplorersofSkyInTheMorningSun_mvl/mxv
 BYTE   W06
 BYTE   VOL   9*PokemonMysteryDungeonExplorersofSkyInTheMorningSun_mvl/mxv
 BYTE   W06
 BYTE   VOL   8*PokemonMysteryDungeonExplorersofSkyInTheMorningSun_mvl/mxv
 BYTE   W06
 BYTE   VOL   8*PokemonMysteryDungeonExplorersofSkyInTheMorningSun_mvl/mxv
 BYTE   W06
 BYTE   VOL   6*PokemonMysteryDungeonExplorersofSkyInTheMorningSun_mvl/mxv
 BYTE   W06
 BYTE   VOL   6*PokemonMysteryDungeonExplorersofSkyInTheMorningSun_mvl/mxv
 BYTE   W06
 BYTE   VOL   6*PokemonMysteryDungeonExplorersofSkyInTheMorningSun_mvl/mxv
 BYTE   W06
 BYTE   VOL   5*PokemonMysteryDungeonExplorersofSkyInTheMorningSun_mvl/mxv
 BYTE   N12  Fs5  v020
 BYTE   W06
 BYTE   VOL   5*PokemonMysteryDungeonExplorersofSkyInTheMorningSun_mvl/mxv
 BYTE   W06
//  #13 //028   ----------------------------------------
 BYTE   VOL   4*PokemonMysteryDungeonExplorersofSkyInTheMorningSun_mvl/mxv
 BYTE   N12  Fs5  v008
 BYTE   W06
 BYTE   VOL   3*PokemonMysteryDungeonExplorersofSkyInTheMorningSun_mvl/mxv
 BYTE   W06
 BYTE   N12  Fs5  v004
 BYTE   W24
 BYTE   VOL   10*PokemonMysteryDungeonExplorersofSkyInTheMorningSun_mvl/mxv
 BYTE   N36  En5  v048
 BYTE   W36
 BYTE   N12  An5
 BYTE   W12
 BYTE   An5  v020
 BYTE   W12
//  #13 //029   ----------------------------------------
 BYTE   An5  v008
 BYTE   W12
 BYTE   N72  Fs5  v048
 BYTE   W12
 BYTE   VOL   10*PokemonMysteryDungeonExplorersofSkyInTheMorningSun_mvl/mxv
 BYTE   W06
 BYTE   VOL   8*PokemonMysteryDungeonExplorersofSkyInTheMorningSun_mvl/mxv
 BYTE   W06
 BYTE   VOL   8*PokemonMysteryDungeonExplorersofSkyInTheMorningSun_mvl/mxv
 BYTE   W06
 BYTE   VOL   6*PokemonMysteryDungeonExplorersofSkyInTheMorningSun_mvl/mxv
 BYTE   W06
 BYTE   VOL   6*PokemonMysteryDungeonExplorersofSkyInTheMorningSun_mvl/mxv
 BYTE   W06
 BYTE   VOL   5*PokemonMysteryDungeonExplorersofSkyInTheMorningSun_mvl/mxv
 BYTE   W06
 BYTE   VOL   4*PokemonMysteryDungeonExplorersofSkyInTheMorningSun_mvl/mxv
 BYTE   W06
 BYTE   VOL   3*PokemonMysteryDungeonExplorersofSkyInTheMorningSun_mvl/mxv
 BYTE   W06
 BYTE   VOL   3*PokemonMysteryDungeonExplorersofSkyInTheMorningSun_mvl/mxv
 BYTE   W12
 BYTE   N12  Fs5  v020
 BYTE   W12
//  #13 //030   ----------------------------------------
 BYTE   Fs5  v008
 BYTE   W12
 BYTE   VOL   10*PokemonMysteryDungeonExplorersofSkyInTheMorningSun_mvl/mxv
 BYTE   N24  An4  v048
 BYTE   W24
 BYTE   Bn4
 BYTE   W24
 BYTE   N12  Fs5
 BYTE   W12
 BYTE   N24
 BYTE   W24
//  #13 //031   ----------------------------------------
 BYTE   N12
 BYTE   W12
 BYTE   Fs5  v020
 BYTE   W12
 BYTE   N24  Fs5  v048
 BYTE   W24
 BYTE   N12  En5
 BYTE   W12
 BYTE   En5  v020
 BYTE   W12
 BYTE   N24  Dn5  v048
 BYTE   W24
//  #13 //032   ----------------------------------------
 BYTE   N12  En5
 BYTE   W12
 BYTE   En5  v020
 BYTE   W12
 BYTE   TIE  Dn5  v048
 BYTE   W24
 BYTE   VOL   10*PokemonMysteryDungeonExplorersofSkyInTheMorningSun_mvl/mxv
 BYTE   W06
 BYTE   VOL   10*PokemonMysteryDungeonExplorersofSkyInTheMorningSun_mvl/mxv
 BYTE   W06
 BYTE   VOL   8*PokemonMysteryDungeonExplorersofSkyInTheMorningSun_mvl/mxv
 BYTE   W06
 BYTE   VOL   8*PokemonMysteryDungeonExplorersofSkyInTheMorningSun_mvl/mxv
 BYTE   W06
 BYTE   VOL   8*PokemonMysteryDungeonExplorersofSkyInTheMorningSun_mvl/mxv
 BYTE   W06
 BYTE   VOL   7*PokemonMysteryDungeonExplorersofSkyInTheMorningSun_mvl/mxv
 BYTE   W06
 BYTE   VOL   6*PokemonMysteryDungeonExplorersofSkyInTheMorningSun_mvl/mxv
 BYTE   W06
 BYTE   VOL   6*PokemonMysteryDungeonExplorersofSkyInTheMorningSun_mvl/mxv
 BYTE   W06
//  #13 //033   ----------------------------------------
 BYTE   VOL   6*PokemonMysteryDungeonExplorersofSkyInTheMorningSun_mvl/mxv
 BYTE   W06
 BYTE   VOL   6*PokemonMysteryDungeonExplorersofSkyInTheMorningSun_mvl/mxv
 BYTE   W06
 BYTE   VOL   5*PokemonMysteryDungeonExplorersofSkyInTheMorningSun_mvl/mxv
 BYTE   W06
 BYTE   VOL   5*PokemonMysteryDungeonExplorersofSkyInTheMorningSun_mvl/mxv
 BYTE   W06
 BYTE   VOL   5*PokemonMysteryDungeonExplorersofSkyInTheMorningSun_mvl/mxv
 BYTE   W06
 BYTE   VOL   4*PokemonMysteryDungeonExplorersofSkyInTheMorningSun_mvl/mxv
 BYTE   W06
 BYTE   VOL   4*PokemonMysteryDungeonExplorersofSkyInTheMorningSun_mvl/mxv
 BYTE   W06
 BYTE   VOL   3*PokemonMysteryDungeonExplorersofSkyInTheMorningSun_mvl/mxv
 BYTE   W06
 BYTE   VOL   3*PokemonMysteryDungeonExplorersofSkyInTheMorningSun_mvl/mxv
 BYTE   W06
 BYTE   VOL   3*PokemonMysteryDungeonExplorersofSkyInTheMorningSun_mvl/mxv
 BYTE   W06
 BYTE   EOT
 BYTE   VOL   2*PokemonMysteryDungeonExplorersofSkyInTheMorningSun_mvl/mxv
 BYTE   N12  Dn5  v020
 BYTE   W06
 BYTE   VOL   2*PokemonMysteryDungeonExplorersofSkyInTheMorningSun_mvl/mxv
 BYTE   W06
 BYTE   VOL   2*PokemonMysteryDungeonExplorersofSkyInTheMorningSun_mvl/mxv
 BYTE   N12  Dn5  v008
 BYTE   W12
 BYTE   Dn5  v004
 BYTE   W12
//  #13 //034   ----------------------------------------
 BYTE   W96
//  #13 //035   ----------------------------------------
 BYTE   W96
//  #13 //036   ----------------------------------------
 BYTE   W96
//  #13 //037   ----------------------------------------
 BYTE   W96
//  #13 //038   ----------------------------------------
 BYTE   W96
//  #13 //039   ----------------------------------------
 BYTE   W96
//  #13 //040   ----------------------------------------
 BYTE   W96
//  #13 //041   ----------------------------------------
 BYTE   W96
//  #13 //042   ----------------------------------------
 BYTE   W96
//  #13 //043   ----------------------------------------
 BYTE   W96
//  #13 //044   ----------------------------------------
 BYTE   W96
//  #13 //045   ----------------------------------------
 BYTE   W96
//  #13 //046   ----------------------------------------
 BYTE   W96
//  #13 //047   ----------------------------------------
 BYTE   W96
//  #13 //048   ----------------------------------------
 BYTE   W96
//  #13 //049   ----------------------------------------
 BYTE   W96
//  #13 //050   ----------------------------------------
 BYTE   W96
//  #13 //051   ----------------------------------------
 BYTE   W96
//  #13 //052   ----------------------------------------
 BYTE   W96
//  #13 //053   ----------------------------------------
 BYTE   W36
 BYTE   VOL   10*PokemonMysteryDungeonExplorersofSkyInTheMorningSun_mvl/mxv
 BYTE   W60
//  #13 //054   ----------------------------------------
 BYTE   W12
 BYTE   N12  Bn3  v088
 BYTE   W12
 BYTE   Bn3  v028
 BYTE   W12
 BYTE   N36  Fs4  v088
 BYTE   W36
 BYTE   N12  Fs4  v028
 BYTE   W12
 BYTE   Fs4  v088
 BYTE   W12
//  #13 //055   ----------------------------------------
Label_01688B0E:
 BYTE   N12  Fs4  v028
 BYTE   W12
 BYTE   Gn4  v088
 BYTE   W12
 BYTE   N48  An4
 BYTE   W48
 BYTE   N12  An4  v028
 BYTE   W12
 BYTE   An4  v088
 BYTE   W12
 BYTE   PEND 
//  #13 //056   ----------------------------------------
 BYTE   An4  v028
 BYTE   W12
 BYTE   Cs5  v088
 BYTE   W12
 BYTE   TIE  Dn5
 BYTE   W48
 BYTE   VOL   10*PokemonMysteryDungeonExplorersofSkyInTheMorningSun_mvl/mxv
 BYTE   W04
 BYTE   VOL   10*PokemonMysteryDungeonExplorersofSkyInTheMorningSun_mvl/mxv
 BYTE   W04
 BYTE   VOL   10*PokemonMysteryDungeonExplorersofSkyInTheMorningSun_mvl/mxv
 BYTE   W08
 BYTE   VOL   10*PokemonMysteryDungeonExplorersofSkyInTheMorningSun_mvl/mxv
 BYTE   W04
 BYTE   VOL   10*PokemonMysteryDungeonExplorersofSkyInTheMorningSun_mvl/mxv
 BYTE   W04
//  #13 //057   ----------------------------------------
 BYTE   VOL   10*PokemonMysteryDungeonExplorersofSkyInTheMorningSun_mvl/mxv
 BYTE   W04
 BYTE   VOL   9*PokemonMysteryDungeonExplorersofSkyInTheMorningSun_mvl/mxv
 BYTE   W04
 BYTE   VOL   9*PokemonMysteryDungeonExplorersofSkyInTheMorningSun_mvl/mxv
 BYTE   W04
 BYTE   VOL   9*PokemonMysteryDungeonExplorersofSkyInTheMorningSun_mvl/mxv
 BYTE   W04
 BYTE   VOL   8*PokemonMysteryDungeonExplorersofSkyInTheMorningSun_mvl/mxv
 BYTE   W08
 BYTE   VOL   8*PokemonMysteryDungeonExplorersofSkyInTheMorningSun_mvl/mxv
 BYTE   W04
 BYTE   VOL   8*PokemonMysteryDungeonExplorersofSkyInTheMorningSun_mvl/mxv
 BYTE   W04
 BYTE   VOL   8*PokemonMysteryDungeonExplorersofSkyInTheMorningSun_mvl/mxv
 BYTE   W04
 BYTE   VOL   8*PokemonMysteryDungeonExplorersofSkyInTheMorningSun_mvl/mxv
 BYTE   W04
 BYTE   VOL   8*PokemonMysteryDungeonExplorersofSkyInTheMorningSun_mvl/mxv
 BYTE   W04
 BYTE   VOL   8*PokemonMysteryDungeonExplorersofSkyInTheMorningSun_mvl/mxv
 BYTE   W04
 BYTE   VOL   8*PokemonMysteryDungeonExplorersofSkyInTheMorningSun_mvl/mxv
 BYTE   W04
 BYTE   VOL   8*PokemonMysteryDungeonExplorersofSkyInTheMorningSun_mvl/mxv
 BYTE   W08
 BYTE   VOL   8*PokemonMysteryDungeonExplorersofSkyInTheMorningSun_mvl/mxv
 BYTE   W04
 BYTE   VOL   8*PokemonMysteryDungeonExplorersofSkyInTheMorningSun_mvl/mxv
 BYTE   W04
 BYTE   VOL   7*PokemonMysteryDungeonExplorersofSkyInTheMorningSun_mvl/mxv
 BYTE   W04
 BYTE   VOL   7*PokemonMysteryDungeonExplorersofSkyInTheMorningSun_mvl/mxv
 BYTE   W04
 BYTE   VOL   7*PokemonMysteryDungeonExplorersofSkyInTheMorningSun_mvl/mxv
 BYTE   W08
 BYTE   EOT
 BYTE   VOL   6*PokemonMysteryDungeonExplorersofSkyInTheMorningSun_mvl/mxv
 BYTE   N12  Dn5  v028
 BYTE   W08
 BYTE   VOL   6*PokemonMysteryDungeonExplorersofSkyInTheMorningSun_mvl/mxv
 BYTE   W04
//  #13 //058   ----------------------------------------
 BYTE   VOL   6*PokemonMysteryDungeonExplorersofSkyInTheMorningSun_mvl/mxv
 BYTE   N12  Dn5  v020
 BYTE   W04
 BYTE   VOL   6*PokemonMysteryDungeonExplorersofSkyInTheMorningSun_mvl/mxv
 BYTE   W04
 BYTE   VOL   6*PokemonMysteryDungeonExplorersofSkyInTheMorningSun_mvl/mxv
 BYTE   W04
 BYTE   VOL   6*PokemonMysteryDungeonExplorersofSkyInTheMorningSun_mvl/mxv
 BYTE   N12  Bn4  v088
 BYTE   W08
 BYTE   VOL   6*PokemonMysteryDungeonExplorersofSkyInTheMorningSun_mvl/mxv
 BYTE   W04
 BYTE   VOL   8*PokemonMysteryDungeonExplorersofSkyInTheMorningSun_mvl/mxv
 BYTE   N12  Bn4  v028
 BYTE   W08
 BYTE   VOL   9*PokemonMysteryDungeonExplorersofSkyInTheMorningSun_mvl/mxv
 BYTE   W04
 BYTE   N24  Fs5  v088
 BYTE   W04
 BYTE   VOL   9*PokemonMysteryDungeonExplorersofSkyInTheMorningSun_mvl/mxv
 BYTE   W04
 BYTE   VOL   9*PokemonMysteryDungeonExplorersofSkyInTheMorningSun_mvl/mxv
 BYTE   W08
 BYTE   VOL   10*PokemonMysteryDungeonExplorersofSkyInTheMorningSun_mvl/mxv
 BYTE   W04
 BYTE   VOL   10*PokemonMysteryDungeonExplorersofSkyInTheMorningSun_mvl/mxv
 BYTE   W04
 BYTE   N12  En5
 BYTE   W04
 BYTE   VOL   10*PokemonMysteryDungeonExplorersofSkyInTheMorningSun_mvl/mxv
 BYTE   W08
 BYTE   VOL   10*PokemonMysteryDungeonExplorersofSkyInTheMorningSun_mvl/mxv
 BYTE   N24
 BYTE   W04
 BYTE   VOL   10*PokemonMysteryDungeonExplorersofSkyInTheMorningSun_mvl/mxv
 BYTE   W08
 BYTE   VOL   10*PokemonMysteryDungeonExplorersofSkyInTheMorningSun_mvl/mxv
 BYTE   W12
//  #13 //059   ----------------------------------------
Label_01688B97:
 BYTE   N12  En5  v028
 BYTE   W12
 BYTE   Bn4  v088
 BYTE   W12
 BYTE   Bn4  v028
 BYTE   W12
 BYTE   N24  Fs5  v088
 BYTE   W24
 BYTE   N12  En5
 BYTE   W12
 BYTE   N24
 BYTE   W24
 BYTE   PEND 
//  #13 //060   ----------------------------------------
 BYTE   N12  En5  v028
 BYTE   W12
 BYTE   Bn4  v088
 BYTE   W12
 BYTE   Bn4  v028
 BYTE   W12
 BYTE   N24  Gn5  v088
 BYTE   W24
 BYTE   N12  Fs5
 BYTE   W12
 BYTE   N24
 BYTE   W24
//  #13 //061   ----------------------------------------
 BYTE   N12  En5
 BYTE   W12
 BYTE   En5  v028
 BYTE   W12
 BYTE   N60  Fs5  v088
 BYTE   W60
 BYTE   N12  Fs5  v028
 BYTE   W12
//  #13 //062   ----------------------------------------
 BYTE   Fs5  v020
 BYTE   W12
 BYTE   Bn3  v088
 BYTE   W12
 BYTE   Bn3  v028
 BYTE   W12
 BYTE   N36  Fs4  v088
 BYTE   W36
 BYTE   N12  Fs4  v028
 BYTE   W12
 BYTE   Fs4  v088
 BYTE   W12
//  #13 //063   ----------------------------------------
 BYTE   PATT
  POIN2 Label_01688B0E
//  #13 //064   ----------------------------------------
 BYTE   N12  An4  v028
 BYTE   W12
 BYTE   Cs5  v088
 BYTE   W12
 BYTE   N60  Dn5
 BYTE   W60
 BYTE   N12  Cs5
 BYTE   W12
//  #13 //065   ----------------------------------------
 BYTE   Cs5  v028
 BYTE   W12
 BYTE   Dn5  v088
 BYTE   W12
 BYTE   N60  Fs5
 BYTE   W60
 BYTE   N12  Fs5  v028
 BYTE   W12
//  #13 //066   ----------------------------------------
 BYTE   Fs5  v020
 BYTE   W12
 BYTE   Bn4  v088
 BYTE   W12
 BYTE   Bn4  v028
 BYTE   W12
 BYTE   N24  Fs5  v088
 BYTE   W24
 BYTE   N12  En5
 BYTE   W12
 BYTE   N24
 BYTE   W24
//  #13 //067   ----------------------------------------
 BYTE   PATT
  POIN2 Label_01688B97
//  #13 //068   ----------------------------------------
 BYTE   N12  Dn5  v088
 BYTE   W12
 BYTE   Dn5  v028
 BYTE   W12
 BYTE   N84  En5  v088
 BYTE   W72
//  #13 //069   ----------------------------------------
 BYTE   W12
 BYTE   N12  En5  v028
 BYTE   W12
 BYTE   En5  v020
 BYTE   W12
 BYTE   En5  v016
 BYTE   W12
 BYTE   En5  v012
 BYTE   W48
//  #13 //070   ----------------------------------------
 BYTE   W96
//  #13 //071   ----------------------------------------
 BYTE   W96
//  #13 //072   ----------------------------------------
 BYTE   W96
//  #13 //073   ----------------------------------------
 BYTE   W96
//  #13 //074   ----------------------------------------
 BYTE   W96
//  #13 //075   ----------------------------------------
 BYTE   W96
//  #13 //076   ----------------------------------------
 BYTE   W96
//  #13 //077   ----------------------------------------
 BYTE   W96
//  #13 //078   ----------------------------------------
 BYTE   W96
//  #13 //079   ----------------------------------------
 BYTE   W96
//  #13 //080   ----------------------------------------
 BYTE   W96
//  #13 //081   ----------------------------------------
 BYTE   W96
//  #13 //082   ----------------------------------------
 BYTE   W96
//  #13 //083   ----------------------------------------
 BYTE   W96
//  #13 //084   ----------------------------------------
 BYTE   W96
//  #13 //085   ----------------------------------------
 BYTE   W96
//  #13 //086   ----------------------------------------
 BYTE   W96
//  #13 //087   ----------------------------------------
 BYTE   W96
//  #13 //088   ----------------------------------------
 BYTE   W24
 BYTE   GoTo
  POIN2 Label_01688965
 BYTE   FINE

//**************** Track 14 (Midi-Chn.13) ****************//

PokemonMysteryDungeonExplorersofSkyInTheMorningSun_014:
//  #14 //000   ----------------------------------------
 BYTE   KEYSH   PokemonMysteryDungeonExplorersofSkyInTheMorningSun_key+0
 BYTE   VOICE   10
 BYTE   MODT 0
 BYTE   LFOS 44
 BYTE   VOL   12*PokemonMysteryDungeonExplorersofSkyInTheMorningSun_mvl/mxv
 BYTE   PAN   c_v-64
 BYTE   VOL   12*PokemonMysteryDungeonExplorersofSkyInTheMorningSun_mvl/mxv
 BYTE   BEND   c_v+0
 BYTE   W36
 BYTE   N05  Fs5  v080
 BYTE   W12
 BYTE   Fs5  v036
 BYTE   W12
 BYTE   Fs5  v016
 BYTE   W12
 BYTE   En5  v080
 BYTE   W12
 BYTE   En5  v036
 BYTE   W12
//  #14 //001   ----------------------------------------
Label_01688C69:
 BYTE   N05  En5  v016
 BYTE   W24
 BYTE   An5  v080
 BYTE   W12
 BYTE   An5  v036
 BYTE   W12
 BYTE   An5  v016
 BYTE   W12
 BYTE   An5  v052
 BYTE   W12
 BYTE   An5  v024
 BYTE   W12
 BYTE   An5  v012
 BYTE   W12
 BYTE   PEND 
//  #14 //002   ----------------------------------------
Label_01688C80:
 BYTE   N05  An5  v044
 BYTE   W12
 BYTE   An5  v024
 BYTE   W12
 BYTE   An5  v012
 BYTE   W12
 BYTE   Fs5  v080
 BYTE   N05  An5  v008
 BYTE   W12
 BYTE   Fs5  v036
 BYTE   W12
 BYTE   Fs5  v016
 BYTE   W12
 BYTE   En5  v080
 BYTE   W12
 BYTE   En5  v036
 BYTE   W12
 BYTE   PEND 
//  #14 //003   ----------------------------------------
Label_01688C9D:
 BYTE   N05  En5  v016
 BYTE   W12
 BYTE   An4  v080
 BYTE   W12
 BYTE   An4  v036
 BYTE   W12
 BYTE   An4  v016
 BYTE   W12
 BYTE   An4  v052
 BYTE   W12
 BYTE   An4  v024
 BYTE   W12
 BYTE   An4  v012
 BYTE   W12
 BYTE   An4  v044
 BYTE   W12
 BYTE   PEND 
//  #14 //004   ----------------------------------------
 BYTE   An4  v024
 BYTE   W12
 BYTE   An4  v012
 BYTE   W12
 BYTE   An4  v008
 BYTE   W12
 BYTE   Fs5  v080
 BYTE   W12
 BYTE   Fs5  v036
 BYTE   W12
 BYTE   Fs5  v016
 BYTE   W12
 BYTE   En5  v080
 BYTE   W12
 BYTE   En5  v036
 BYTE   W12
//  #14 //005   ----------------------------------------
 BYTE   PATT
  POIN2 Label_01688C69
//  #14 //006   ----------------------------------------
 BYTE   PATT
  POIN2 Label_01688C80
//  #14 //007   ----------------------------------------
 BYTE   PATT
  POIN2 Label_01688C9D
//  #14 //008   ----------------------------------------
 BYTE   N05  An4  v024
 BYTE   W12
 BYTE   An4  v012
 BYTE   W12
 BYTE   An4  v008
 BYTE   W72
//  #14 //009   ----------------------------------------
 BYTE   W96
//  #14 //010   ----------------------------------------
 BYTE   W96
//  #14 //011   ----------------------------------------
 BYTE   W96
//  #14 //012   ----------------------------------------
 BYTE   W96
//  #14 //013   ----------------------------------------
 BYTE   W96
//  #14 //014   ----------------------------------------
 BYTE   W96
//  #14 //015   ----------------------------------------
 BYTE   W96
//  #14 //016   ----------------------------------------
 BYTE   W96
//  #14 //017   ----------------------------------------
 BYTE   W96
//  #14 //018   ----------------------------------------
 BYTE   W24
Label_01688CF2:
 BYTE   W24
 BYTE   N01  Fs5  v100
 BYTE   W12
 BYTE   En5
 BYTE   W12
 BYTE   Bn4
 BYTE   W12
 BYTE   Fs5
 BYTE   W12
//  #14 //019   ----------------------------------------
Label_01688CFD:
 BYTE   N01  En5  v100
 BYTE   W12
 BYTE   Bn4
 BYTE   W12
 BYTE   Fs5
 BYTE   W24
 BYTE   En5
 BYTE   W24
 BYTE   An5
 BYTE   W24
 BYTE   PEND 
//  #14 //020   ----------------------------------------
Label_01688D0A:
 BYTE   W48
 BYTE   N01  Fs5  v100
 BYTE   W12
 BYTE   En5
 BYTE   W12
 BYTE   Bn4
 BYTE   W12
 BYTE   Fs5
 BYTE   W12
 BYTE   PEND 
//  #14 //021   ----------------------------------------
Label_01688D16:
 BYTE   N01  En5  v100
 BYTE   W12
 BYTE   Bn4
 BYTE   W12
 BYTE   Fs5
 BYTE   W24
 BYTE   En5
 BYTE   W24
 BYTE   An4
 BYTE   W24
 BYTE   PEND 
//  #14 //022   ----------------------------------------
 BYTE   PATT
  POIN2 Label_01688D0A
//  #14 //023   ----------------------------------------
 BYTE   PATT
  POIN2 Label_01688D16
//  #14 //024   ----------------------------------------
 BYTE   PATT
  POIN2 Label_01688D0A
//  #14 //025   ----------------------------------------
Label_01688D32:
 BYTE   N01  En5  v100
 BYTE   W12
 BYTE   Bn4
 BYTE   W12
 BYTE   An5
 BYTE   W24
 BYTE   Gn5
 BYTE   W24
 BYTE   Fs5
 BYTE   W24
 BYTE   PEND 
//  #14 //026   ----------------------------------------
Label_01688D3F:
 BYTE   N01  En5  v100
 BYTE   W48
 BYTE   Fs5
 BYTE   W12
 BYTE   En5
 BYTE   W12
 BYTE   Bn4
 BYTE   W12
 BYTE   Fs5
 BYTE   W12
 BYTE   PEND 
//  #14 //027   ----------------------------------------
 BYTE   PATT
  POIN2 Label_01688CFD
//  #14 //028   ----------------------------------------
 BYTE   PATT
  POIN2 Label_01688D0A
//  #14 //029   ----------------------------------------
 BYTE   PATT
  POIN2 Label_01688D16
//  #14 //030   ----------------------------------------
 BYTE   PATT
  POIN2 Label_01688D0A
//  #14 //031   ----------------------------------------
 BYTE   PATT
  POIN2 Label_01688D16
//  #14 //032   ----------------------------------------
 BYTE   PATT
  POIN2 Label_01688D0A
//  #14 //033   ----------------------------------------
 BYTE   N01  En5  v100
 BYTE   W24
 BYTE   Bn4
 BYTE   W72
//  #14 //034   ----------------------------------------
 BYTE   W96
//  #14 //035   ----------------------------------------
 BYTE   W96
//  #14 //036   ----------------------------------------
 BYTE   W96
//  #14 //037   ----------------------------------------
 BYTE   W96
//  #14 //038   ----------------------------------------
 BYTE   W96
//  #14 //039   ----------------------------------------
 BYTE   W96
//  #14 //040   ----------------------------------------
 BYTE   W96
//  #14 //041   ----------------------------------------
 BYTE   W96
//  #14 //042   ----------------------------------------
 BYTE   W96
//  #14 //043   ----------------------------------------
 BYTE   W96
//  #14 //044   ----------------------------------------
 BYTE   W96
//  #14 //045   ----------------------------------------
 BYTE   W96
//  #14 //046   ----------------------------------------
 BYTE   W96
//  #14 //047   ----------------------------------------
 BYTE   W96
//  #14 //048   ----------------------------------------
 BYTE   W96
//  #14 //049   ----------------------------------------
 BYTE   W96
//  #14 //050   ----------------------------------------
 BYTE   W96
//  #14 //051   ----------------------------------------
 BYTE   W96
//  #14 //052   ----------------------------------------
 BYTE   W96
//  #14 //053   ----------------------------------------
 BYTE   W96
//  #14 //054   ----------------------------------------
 BYTE   PATT
  POIN2 Label_01688D0A
//  #14 //055   ----------------------------------------
 BYTE   PATT
  POIN2 Label_01688CFD
//  #14 //056   ----------------------------------------
 BYTE   PATT
  POIN2 Label_01688D0A
//  #14 //057   ----------------------------------------
 BYTE   PATT
  POIN2 Label_01688D16
//  #14 //058   ----------------------------------------
 BYTE   PATT
  POIN2 Label_01688D0A
//  #14 //059   ----------------------------------------
 BYTE   PATT
  POIN2 Label_01688D16
//  #14 //060   ----------------------------------------
 BYTE   PATT
  POIN2 Label_01688D0A
//  #14 //061   ----------------------------------------
 BYTE   PATT
  POIN2 Label_01688D32
//  #14 //062   ----------------------------------------
 BYTE   PATT
  POIN2 Label_01688D3F
//  #14 //063   ----------------------------------------
 BYTE   PATT
  POIN2 Label_01688CFD
//  #14 //064   ----------------------------------------
 BYTE   PATT
  POIN2 Label_01688D0A
//  #14 //065   ----------------------------------------
 BYTE   PATT
  POIN2 Label_01688D16
//  #14 //066   ----------------------------------------
 BYTE   PATT
  POIN2 Label_01688D0A
//  #14 //067   ----------------------------------------
 BYTE   N01  En5  v100
 BYTE   W12
 BYTE   Bn4
 BYTE   W12
 BYTE   Fs5
 BYTE   W24
 BYTE   En5
 BYTE   W24
 BYTE   Bn4
 BYTE   W24
//  #14 //068   ----------------------------------------
 BYTE   PATT
  POIN2 Label_01688D0A
//  #14 //069   ----------------------------------------
 BYTE   N01  En5  v100
 BYTE   W24
 BYTE   An5
 BYTE   W72
//  #14 //070   ----------------------------------------
 BYTE   PATT
  POIN2 Label_01688D0A
//  #14 //071   ----------------------------------------
 BYTE   PATT
  POIN2 Label_01688CFD
//  #14 //072   ----------------------------------------
 BYTE   PATT
  POIN2 Label_01688D0A
//  #14 //073   ----------------------------------------
 BYTE   PATT
  POIN2 Label_01688D16
//  #14 //074   ----------------------------------------
 BYTE   PATT
  POIN2 Label_01688D0A
//  #14 //075   ----------------------------------------
 BYTE   PATT
  POIN2 Label_01688D16
//  #14 //076   ----------------------------------------
 BYTE   PATT
  POIN2 Label_01688D0A
//  #14 //077   ----------------------------------------
 BYTE   PATT
  POIN2 Label_01688D32
//  #14 //078   ----------------------------------------
 BYTE   PATT
  POIN2 Label_01688D3F
//  #14 //079   ----------------------------------------
 BYTE   PATT
  POIN2 Label_01688CFD
//  #14 //080   ----------------------------------------
 BYTE   PATT
  POIN2 Label_01688D0A
//  #14 //081   ----------------------------------------
 BYTE   PATT
  POIN2 Label_01688D16
//  #14 //082   ----------------------------------------
 BYTE   PATT
  POIN2 Label_01688D0A
//  #14 //083   ----------------------------------------
 BYTE   PATT
  POIN2 Label_01688CFD
//  #14 //084   ----------------------------------------
 BYTE   PATT
  POIN2 Label_01688D0A
//  #14 //085   ----------------------------------------
 BYTE   N01  En5  v100
 BYTE   W24
 BYTE   Fs5
 BYTE   W72
//  #14 //086   ----------------------------------------
 BYTE   W96
//  #14 //087   ----------------------------------------
 BYTE   W96
//  #14 //088   ----------------------------------------
 BYTE   W24
 BYTE   GoTo
  POIN2 Label_01688CF2
 BYTE   FINE

//**************** Track 15 (Midi-Chn.14) ****************//

PokemonMysteryDungeonExplorersofSkyInTheMorningSun_015:
//  #15 //000   ----------------------------------------
 BYTE   KEYSH   PokemonMysteryDungeonExplorersofSkyInTheMorningSun_key+0
 BYTE   VOICE   73
 BYTE   MODT 0
 BYTE   LFOS 44
 BYTE   PAN   c_v+48
 BYTE   VOL   14*PokemonMysteryDungeonExplorersofSkyInTheMorningSun_mvl/mxv
 BYTE   W96
//  #15 //001   ----------------------------------------
 BYTE   W96
//  #15 //002   ----------------------------------------
 BYTE   W96
//  #15 //003   ----------------------------------------
 BYTE   W96
//  #15 //004   ----------------------------------------
 BYTE   W96
//  #15 //005   ----------------------------------------
 BYTE   W96
//  #15 //006   ----------------------------------------
Label_01688E4A:
 BYTE   W24
 BYTE   VOL   14*PokemonMysteryDungeonExplorersofSkyInTheMorningSun_mvl/mxv
 BYTE   BEND   c_v+0
 BYTE   W72
 BYTE   PEND 
//  #15 //007   ----------------------------------------
 BYTE   W36
 BYTE   VOL   14*PokemonMysteryDungeonExplorersofSkyInTheMorningSun_mvl/mxv
 BYTE   W60
//  #15 //008   ----------------------------------------
Label_01688E55:
 BYTE   W12
 BYTE   N24  Dn4  v080
 BYTE   W24
 BYTE   N36  An4
 BYTE   W36
 BYTE   N12  An4  v024
 BYTE   W12
 BYTE   N24  An4  v080
 BYTE   W12
 BYTE   PEND 
//  #15 //009   ----------------------------------------
Label_01688E66:
 BYTE   W12
 BYTE   N12  Bn4  v080
 BYTE   W12
 BYTE   N36  An4
 BYTE   W36
 BYTE   N12
 BYTE   W12
 BYTE   An4  v032
 BYTE   W12
 BYTE   N48  Gn4  v080
 BYTE   W12
 BYTE   PEND 
//  #15 //010   ----------------------------------------
Label_01688E78:
 BYTE   W36
 BYTE   N42  Fs4  v080
 BYTE   W42
 BYTE   W01
 BYTE   N05  Fs4  v028
 BYTE   W05
 BYTE   N36  Bn4  v080
 BYTE   W12
 BYTE   PEND 
//  #15 //011   ----------------------------------------
Label_01688E87:
 BYTE   W24
 BYTE   N12  Bn4  v024
 BYTE   W12
 BYTE   N36  Dn5  v080
 BYTE   W36
 BYTE   N12  Dn5  v028
 BYTE   W12
 BYTE   N36  En5  v080
 BYTE   W12
 BYTE   PEND 
//  #15 //012   ----------------------------------------
Label_01688E99:
 BYTE   W24
 BYTE   N12  En5  v024
 BYTE   W12
 BYTE   N60  Fs5  v080
 BYTE   W60
 BYTE   PEND 
//  #15 //013   ----------------------------------------
Label_01688EA3:
 BYTE   N12  Fs5  v024
 BYTE   W12
 BYTE   N06  En5  v080
 BYTE   W06
 BYTE   En5  v020
 BYTE   W06
 BYTE   N84  En5  v080
 BYTE   W72
 BYTE   PEND 
//  #15 //014   ----------------------------------------
Label_01688EB3:
 BYTE   W12
 BYTE   N12  En5  v036
 BYTE   W12
 BYTE   En5  v016
 BYTE   W12
 BYTE   N60  Fs5  v080
 BYTE   W60
 BYTE   PEND 
//  #15 //015   ----------------------------------------
 BYTE   PATT
  POIN2 Label_01688EA3
//  #15 //016   ----------------------------------------
Label_01688EC5:
 BYTE   W12
 BYTE   N12  En5  v028
 BYTE   W12
 BYTE   En5  v012
 BYTE   W12
 BYTE   TIE  An5  v080
 BYTE   W42
 BYTE   VOL   13*PokemonMysteryDungeonExplorersofSkyInTheMorningSun_mvl/mxv
 BYTE   W06
 BYTE   VOL   13*PokemonMysteryDungeonExplorersofSkyInTheMorningSun_mvl/mxv
 BYTE   W06
 BYTE   VOL   11*PokemonMysteryDungeonExplorersofSkyInTheMorningSun_mvl/mxv
 BYTE   W06
 BYTE   PEND 
//  #15 //017   ----------------------------------------
Label_01688ED9:
 BYTE   VOL   11*PokemonMysteryDungeonExplorersofSkyInTheMorningSun_mvl/mxv
 BYTE   W06
 BYTE   VOL   10*PokemonMysteryDungeonExplorersofSkyInTheMorningSun_mvl/mxv
 BYTE   W06
 BYTE   VOL   10*PokemonMysteryDungeonExplorersofSkyInTheMorningSun_mvl/mxv
 BYTE   W06
 BYTE   VOL   8*PokemonMysteryDungeonExplorersofSkyInTheMorningSun_mvl/mxv
 BYTE   W06
 BYTE   VOL   8*PokemonMysteryDungeonExplorersofSkyInTheMorningSun_mvl/mxv
 BYTE   W06
 BYTE   VOL   7*PokemonMysteryDungeonExplorersofSkyInTheMorningSun_mvl/mxv
 BYTE   W06
 BYTE   VOL   6*PokemonMysteryDungeonExplorersofSkyInTheMorningSun_mvl/mxv
 BYTE   W06
 BYTE   VOL   6*PokemonMysteryDungeonExplorersofSkyInTheMorningSun_mvl/mxv
 BYTE   W06
 BYTE   VOL   5*PokemonMysteryDungeonExplorersofSkyInTheMorningSun_mvl/mxv
 BYTE   W06
 BYTE   VOL   5*PokemonMysteryDungeonExplorersofSkyInTheMorningSun_mvl/mxv
 BYTE   W06
 BYTE   VOL   4*PokemonMysteryDungeonExplorersofSkyInTheMorningSun_mvl/mxv
 BYTE   W06
 BYTE   VOL   3*PokemonMysteryDungeonExplorersofSkyInTheMorningSun_mvl/mxv
 BYTE   W06
 BYTE   VOL   3*PokemonMysteryDungeonExplorersofSkyInTheMorningSun_mvl/mxv
 BYTE   W06
 BYTE   VOL   2*PokemonMysteryDungeonExplorersofSkyInTheMorningSun_mvl/mxv
 BYTE   W06
 BYTE   PEND 
 BYTE   EOT
 BYTE   An5
 BYTE   VOL   2*PokemonMysteryDungeonExplorersofSkyInTheMorningSun_mvl/mxv
 BYTE   W12
//  #15 //018   ----------------------------------------
 BYTE   W24
Label_01688EFD:
 BYTE   W30
 BYTE   VOL   14*PokemonMysteryDungeonExplorersofSkyInTheMorningSun_mvl/mxv
 BYTE   W42
//  #15 //019   ----------------------------------------
 BYTE   W96
//  #15 //020   ----------------------------------------
 BYTE   W96
//  #15 //021   ----------------------------------------
 BYTE   W96
//  #15 //022   ----------------------------------------
 BYTE   W96
//  #15 //023   ----------------------------------------
 BYTE   W96
//  #15 //024   ----------------------------------------
 BYTE   W96
//  #15 //025   ----------------------------------------
 BYTE   W96
//  #15 //026   ----------------------------------------
 BYTE   W96
//  #15 //027   ----------------------------------------
 BYTE   W96
//  #15 //028   ----------------------------------------
 BYTE   W96
//  #15 //029   ----------------------------------------
 BYTE   W96
//  #15 //030   ----------------------------------------
 BYTE   W96
//  #15 //031   ----------------------------------------
 BYTE   W96
//  #15 //032   ----------------------------------------
 BYTE   W96
//  #15 //033   ----------------------------------------
 BYTE   W96
//  #15 //034   ----------------------------------------
 BYTE   W96
//  #15 //035   ----------------------------------------
 BYTE   W96
//  #15 //036   ----------------------------------------
 BYTE   W96
//  #15 //037   ----------------------------------------
 BYTE   W96
//  #15 //038   ----------------------------------------
 BYTE   W96
//  #15 //039   ----------------------------------------
 BYTE   W96
//  #15 //040   ----------------------------------------
 BYTE   W96
//  #15 //041   ----------------------------------------
 BYTE   W36
 BYTE   VOL   14*PokemonMysteryDungeonExplorersofSkyInTheMorningSun_mvl/mxv
 BYTE   W48
 BYTE   N12  Gn4  v127
 BYTE   W12
//  #15 //042   ----------------------------------------
 BYTE   An4
 BYTE   W12
 BYTE   As4
 BYTE   W12
 BYTE   Cn5
 BYTE   W12
 BYTE   Dn5
 BYTE   W12
 BYTE   Dn5  v060
 BYTE   W12
 BYTE   As4  v127
 BYTE   W12
 BYTE   N36
 BYTE   W24
//  #15 //043   ----------------------------------------
 BYTE   W12
 BYTE   N24  As4  v060
 BYTE   W24
 BYTE   N12  Fn5  v127
 BYTE   W12
 BYTE   Fn5  v060
 BYTE   W12
 BYTE   Cn5  v127
 BYTE   W12
 BYTE   N36
 BYTE   W24
//  #15 //044   ----------------------------------------
 BYTE   W12
 BYTE   N24  Cn5  v060
 BYTE   W24
 BYTE   Gn5  v127
 BYTE   W24
 BYTE   N12  Dn5
 BYTE   W12
 BYTE   N24
 BYTE   W24
//  #15 //045   ----------------------------------------
 BYTE   N12  Cn5
 BYTE   W12
 BYTE   Cn5  v060
 BYTE   W12
 BYTE   N60  Dn5  v127
 BYTE   W24
 BYTE   VOL   14*PokemonMysteryDungeonExplorersofSkyInTheMorningSun_mvl/mxv
 BYTE   W06
 BYTE   VOL   13*PokemonMysteryDungeonExplorersofSkyInTheMorningSun_mvl/mxv
 BYTE   W06
 BYTE   VOL   11*PokemonMysteryDungeonExplorersofSkyInTheMorningSun_mvl/mxv
 BYTE   W06
 BYTE   VOL   10*PokemonMysteryDungeonExplorersofSkyInTheMorningSun_mvl/mxv
 BYTE   W06
 BYTE   VOL   10*PokemonMysteryDungeonExplorersofSkyInTheMorningSun_mvl/mxv
 BYTE   W06
 BYTE   VOL   8*PokemonMysteryDungeonExplorersofSkyInTheMorningSun_mvl/mxv
 BYTE   W06
 BYTE   VOL   8*PokemonMysteryDungeonExplorersofSkyInTheMorningSun_mvl/mxv
 BYTE   N24  Dn5  v060
 BYTE   W06
 BYTE   VOL   6*PokemonMysteryDungeonExplorersofSkyInTheMorningSun_mvl/mxv
 BYTE   W06
//  #15 //046   ----------------------------------------
 BYTE   VOL   6*PokemonMysteryDungeonExplorersofSkyInTheMorningSun_mvl/mxv
 BYTE   W06
 BYTE   VOL   5*PokemonMysteryDungeonExplorersofSkyInTheMorningSun_mvl/mxv
 BYTE   W06
 BYTE   VOL   14*PokemonMysteryDungeonExplorersofSkyInTheMorningSun_mvl/mxv
 BYTE   N24  Dn5  v127
 BYTE   W24
 BYTE   TIE  Ds5
 BYTE   W42
 BYTE   VOL   13*PokemonMysteryDungeonExplorersofSkyInTheMorningSun_mvl/mxv
 BYTE   W06
 BYTE   VOL   13*PokemonMysteryDungeonExplorersofSkyInTheMorningSun_mvl/mxv
 BYTE   W06
 BYTE   VOL   13*PokemonMysteryDungeonExplorersofSkyInTheMorningSun_mvl/mxv
 BYTE   W06
//  #15 //047   ----------------------------------------
 BYTE   VOL   13*PokemonMysteryDungeonExplorersofSkyInTheMorningSun_mvl/mxv
 BYTE   W06
 BYTE   VOL   13*PokemonMysteryDungeonExplorersofSkyInTheMorningSun_mvl/mxv
 BYTE   W12
 BYTE   VOL   13*PokemonMysteryDungeonExplorersofSkyInTheMorningSun_mvl/mxv
 BYTE   W06
 BYTE   VOL   12*PokemonMysteryDungeonExplorersofSkyInTheMorningSun_mvl/mxv
 BYTE   W06
 BYTE   VOL   12*PokemonMysteryDungeonExplorersofSkyInTheMorningSun_mvl/mxv
 BYTE   W06
 BYTE   VOL   11*PokemonMysteryDungeonExplorersofSkyInTheMorningSun_mvl/mxv
 BYTE   W06
 BYTE   VOL   11*PokemonMysteryDungeonExplorersofSkyInTheMorningSun_mvl/mxv
 BYTE   W06
 BYTE   VOL   11*PokemonMysteryDungeonExplorersofSkyInTheMorningSun_mvl/mxv
 BYTE   W06
 BYTE   VOL   11*PokemonMysteryDungeonExplorersofSkyInTheMorningSun_mvl/mxv
 BYTE   W06
 BYTE   VOL   11*PokemonMysteryDungeonExplorersofSkyInTheMorningSun_mvl/mxv
 BYTE   W06
 BYTE   VOL   11*PokemonMysteryDungeonExplorersofSkyInTheMorningSun_mvl/mxv
 BYTE   W06
 BYTE   VOL   11*PokemonMysteryDungeonExplorersofSkyInTheMorningSun_mvl/mxv
 BYTE   W12
 BYTE   VOL   11*PokemonMysteryDungeonExplorersofSkyInTheMorningSun_mvl/mxv
 BYTE   W06
 BYTE   VOL   10*PokemonMysteryDungeonExplorersofSkyInTheMorningSun_mvl/mxv
 BYTE   W06
//  #15 //048   ----------------------------------------
 BYTE   VOL   10*PokemonMysteryDungeonExplorersofSkyInTheMorningSun_mvl/mxv
 BYTE   W06
 BYTE   VOL   10*PokemonMysteryDungeonExplorersofSkyInTheMorningSun_mvl/mxv
 BYTE   W06
 BYTE   VOL   10*PokemonMysteryDungeonExplorersofSkyInTheMorningSun_mvl/mxv
 BYTE   W06
 BYTE   VOL   10*PokemonMysteryDungeonExplorersofSkyInTheMorningSun_mvl/mxv
 BYTE   W06
 BYTE   VOL   10*PokemonMysteryDungeonExplorersofSkyInTheMorningSun_mvl/mxv
 BYTE   W06
 BYTE   VOL   10*PokemonMysteryDungeonExplorersofSkyInTheMorningSun_mvl/mxv
 BYTE   W06
 BYTE   VOL   10*PokemonMysteryDungeonExplorersofSkyInTheMorningSun_mvl/mxv
 BYTE   W12
 BYTE   VOL   10*PokemonMysteryDungeonExplorersofSkyInTheMorningSun_mvl/mxv
 BYTE   W06
 BYTE   VOL   9*PokemonMysteryDungeonExplorersofSkyInTheMorningSun_mvl/mxv
 BYTE   W06
 BYTE   VOL   9*PokemonMysteryDungeonExplorersofSkyInTheMorningSun_mvl/mxv
 BYTE   W06
 BYTE   VOL   9*PokemonMysteryDungeonExplorersofSkyInTheMorningSun_mvl/mxv
 BYTE   W06
 BYTE   VOL   9*PokemonMysteryDungeonExplorersofSkyInTheMorningSun_mvl/mxv
 BYTE   W06
 BYTE   VOL   10*PokemonMysteryDungeonExplorersofSkyInTheMorningSun_mvl/mxv
 BYTE   W06
 BYTE   VOL   10*PokemonMysteryDungeonExplorersofSkyInTheMorningSun_mvl/mxv
 BYTE   W06
 BYTE   VOL   10*PokemonMysteryDungeonExplorersofSkyInTheMorningSun_mvl/mxv
 BYTE   W06
//  #15 //049   ----------------------------------------
 BYTE   VOL   11*PokemonMysteryDungeonExplorersofSkyInTheMorningSun_mvl/mxv
 BYTE   W06
 BYTE   VOL   11*PokemonMysteryDungeonExplorersofSkyInTheMorningSun_mvl/mxv
 BYTE   W06
 BYTE   EOT
 BYTE   VOL   11*PokemonMysteryDungeonExplorersofSkyInTheMorningSun_mvl/mxv
 BYTE   N24  Ds5  v060
 BYTE   W06
 BYTE   VOL   13*PokemonMysteryDungeonExplorersofSkyInTheMorningSun_mvl/mxv
 BYTE   W06
 BYTE   VOL   13*PokemonMysteryDungeonExplorersofSkyInTheMorningSun_mvl/mxv
 BYTE   W12
 BYTE   N24  Ds5  v127
 BYTE   W24
 BYTE   N12  Dn5
 BYTE   W12
 BYTE   Cn5
 BYTE   W12
 BYTE   Cn5  v060
 BYTE   W12
//  #15 //050   ----------------------------------------
 BYTE   Ds5  v127
 BYTE   W12
 BYTE   Ds5  v060
 BYTE   W12
 BYTE   TIE  Dn5  v127
 BYTE   W24
 BYTE   VOL   13*PokemonMysteryDungeonExplorersofSkyInTheMorningSun_mvl/mxv
 BYTE   W12
 BYTE   VOL   13*PokemonMysteryDungeonExplorersofSkyInTheMorningSun_mvl/mxv
 BYTE   W12
 BYTE   VOL   13*PokemonMysteryDungeonExplorersofSkyInTheMorningSun_mvl/mxv
 BYTE   W06
 BYTE   VOL   13*PokemonMysteryDungeonExplorersofSkyInTheMorningSun_mvl/mxv
 BYTE   W18
//  #15 //051   ----------------------------------------
 BYTE   VOL   13*PokemonMysteryDungeonExplorersofSkyInTheMorningSun_mvl/mxv
 BYTE   W12
 BYTE   VOL   12*PokemonMysteryDungeonExplorersofSkyInTheMorningSun_mvl/mxv
 BYTE   W06
 BYTE   VOL   12*PokemonMysteryDungeonExplorersofSkyInTheMorningSun_mvl/mxv
 BYTE   W12
 BYTE   VOL   11*PokemonMysteryDungeonExplorersofSkyInTheMorningSun_mvl/mxv
 BYTE   W12
 BYTE   VOL   11*PokemonMysteryDungeonExplorersofSkyInTheMorningSun_mvl/mxv
 BYTE   W12
 BYTE   VOL   11*PokemonMysteryDungeonExplorersofSkyInTheMorningSun_mvl/mxv
 BYTE   W12
 BYTE   VOL   11*PokemonMysteryDungeonExplorersofSkyInTheMorningSun_mvl/mxv
 BYTE   W06
 BYTE   VOL   11*PokemonMysteryDungeonExplorersofSkyInTheMorningSun_mvl/mxv
 BYTE   W12
 BYTE   VOL   11*PokemonMysteryDungeonExplorersofSkyInTheMorningSun_mvl/mxv
 BYTE   W12
//  #15 //052   ----------------------------------------
 BYTE   W30
 BYTE   VOL   11*PokemonMysteryDungeonExplorersofSkyInTheMorningSun_mvl/mxv
 BYTE   W06
 BYTE   VOL   10*PokemonMysteryDungeonExplorersofSkyInTheMorningSun_mvl/mxv
 BYTE   W06
 BYTE   VOL   10*PokemonMysteryDungeonExplorersofSkyInTheMorningSun_mvl/mxv
 BYTE   W06
 BYTE   VOL   10*PokemonMysteryDungeonExplorersofSkyInTheMorningSun_mvl/mxv
 BYTE   W06
 BYTE   VOL   9*PokemonMysteryDungeonExplorersofSkyInTheMorningSun_mvl/mxv
 BYTE   W06
 BYTE   VOL   8*PokemonMysteryDungeonExplorersofSkyInTheMorningSun_mvl/mxv
 BYTE   W06
 BYTE   VOL   8*PokemonMysteryDungeonExplorersofSkyInTheMorningSun_mvl/mxv
 BYTE   W06
 BYTE   VOL   8*PokemonMysteryDungeonExplorersofSkyInTheMorningSun_mvl/mxv
 BYTE   W06
 BYTE   VOL   8*PokemonMysteryDungeonExplorersofSkyInTheMorningSun_mvl/mxv
 BYTE   W06
 BYTE   VOL   7*PokemonMysteryDungeonExplorersofSkyInTheMorningSun_mvl/mxv
 BYTE   W06
 BYTE   VOL   6*PokemonMysteryDungeonExplorersofSkyInTheMorningSun_mvl/mxv
 BYTE   W06
//  #15 //053   ----------------------------------------
 BYTE   VOL   6*PokemonMysteryDungeonExplorersofSkyInTheMorningSun_mvl/mxv
 BYTE   W06
 BYTE   VOL   6*PokemonMysteryDungeonExplorersofSkyInTheMorningSun_mvl/mxv
 BYTE   W06
 BYTE   VOL   6*PokemonMysteryDungeonExplorersofSkyInTheMorningSun_mvl/mxv
 BYTE   W06
 BYTE   VOL   5*PokemonMysteryDungeonExplorersofSkyInTheMorningSun_mvl/mxv
 BYTE   W06
 BYTE   VOL   5*PokemonMysteryDungeonExplorersofSkyInTheMorningSun_mvl/mxv
 BYTE   W12
 BYTE   EOT
 BYTE   W60
//  #15 //054   ----------------------------------------
 BYTE   W12
 BYTE   VOL   14*PokemonMysteryDungeonExplorersofSkyInTheMorningSun_mvl/mxv
 BYTE   N12  Bn3
 BYTE   W12
 BYTE   Bn3  v060
 BYTE   W12
 BYTE   N36  Fs4  v127
 BYTE   W36
 BYTE   N12  Fs4  v060
 BYTE   W12
 BYTE   Fs4  v127
 BYTE   W12
//  #15 //055   ----------------------------------------
Label_01689030:
 BYTE   N12  Fs4  v060
 BYTE   W12
 BYTE   Gn4  v127
 BYTE   W12
 BYTE   N48  An4
 BYTE   W48
 BYTE   N12  An4  v060
 BYTE   W12
 BYTE   An4  v127
 BYTE   W12
 BYTE   PEND 
//  #15 //056   ----------------------------------------
 BYTE   An4  v060
 BYTE   W12
 BYTE   Cs5  v127
 BYTE   W12
 BYTE   TIE  Dn5
 BYTE   W54
 BYTE   VOL   13*PokemonMysteryDungeonExplorersofSkyInTheMorningSun_mvl/mxv
 BYTE   W06
 BYTE   VOL   13*PokemonMysteryDungeonExplorersofSkyInTheMorningSun_mvl/mxv
 BYTE   W06
 BYTE   VOL   11*PokemonMysteryDungeonExplorersofSkyInTheMorningSun_mvl/mxv
 BYTE   W06
//  #15 //057   ----------------------------------------
 BYTE   VOL   11*PokemonMysteryDungeonExplorersofSkyInTheMorningSun_mvl/mxv
 BYTE   W06
 BYTE   VOL   11*PokemonMysteryDungeonExplorersofSkyInTheMorningSun_mvl/mxv
 BYTE   W06
 BYTE   VOL   10*PokemonMysteryDungeonExplorersofSkyInTheMorningSun_mvl/mxv
 BYTE   W06
 BYTE   VOL   10*PokemonMysteryDungeonExplorersofSkyInTheMorningSun_mvl/mxv
 BYTE   W06
 BYTE   VOL   9*PokemonMysteryDungeonExplorersofSkyInTheMorningSun_mvl/mxv
 BYTE   W06
 BYTE   VOL   8*PokemonMysteryDungeonExplorersofSkyInTheMorningSun_mvl/mxv
 BYTE   W06
 BYTE   VOL   8*PokemonMysteryDungeonExplorersofSkyInTheMorningSun_mvl/mxv
 BYTE   W06
 BYTE   VOL   8*PokemonMysteryDungeonExplorersofSkyInTheMorningSun_mvl/mxv
 BYTE   W06
 BYTE   VOL   6*PokemonMysteryDungeonExplorersofSkyInTheMorningSun_mvl/mxv
 BYTE   W06
 BYTE   VOL   6*PokemonMysteryDungeonExplorersofSkyInTheMorningSun_mvl/mxv
 BYTE   W06
 BYTE   VOL   6*PokemonMysteryDungeonExplorersofSkyInTheMorningSun_mvl/mxv
 BYTE   W06
 BYTE   VOL   6*PokemonMysteryDungeonExplorersofSkyInTheMorningSun_mvl/mxv
 BYTE   W06
 BYTE   VOL   5*PokemonMysteryDungeonExplorersofSkyInTheMorningSun_mvl/mxv
 BYTE   W06
 BYTE   VOL   5*PokemonMysteryDungeonExplorersofSkyInTheMorningSun_mvl/mxv
 BYTE   W06
 BYTE   EOT
 BYTE   VOL   4*PokemonMysteryDungeonExplorersofSkyInTheMorningSun_mvl/mxv
 BYTE   N24  Dn5  v060
 BYTE   W12
//  #15 //058   ----------------------------------------
 BYTE   W12
 BYTE   VOL   14*PokemonMysteryDungeonExplorersofSkyInTheMorningSun_mvl/mxv
 BYTE   N12  Bn4  v127
 BYTE   W12
 BYTE   Bn4  v060
 BYTE   W12
 BYTE   N24  Fs5  v127
 BYTE   W24
 BYTE   N12  En5
 BYTE   W12
 BYTE   N24
 BYTE   W24
//  #15 //059   ----------------------------------------
 BYTE   N12  En5  v060
 BYTE   W12
 BYTE   Bn4  v127
 BYTE   W24
 BYTE   N24  Fs5
 BYTE   W24
 BYTE   N12  En5
 BYTE   W12
 BYTE   N24
 BYTE   W24
//  #15 //060   ----------------------------------------
 BYTE   N12  En5  v060
 BYTE   W12
 BYTE   Bn4  v127
 BYTE   W24
 BYTE   N24  Gn5
 BYTE   W24
 BYTE   N12  Fs5
 BYTE   W12
 BYTE   N24
 BYTE   W24
//  #15 //061   ----------------------------------------
 BYTE   N12  En5
 BYTE   W12
 BYTE   En5  v060
 BYTE   W12
 BYTE   N60  Fs5  v127
 BYTE   W30
 BYTE   VOL   13*PokemonMysteryDungeonExplorersofSkyInTheMorningSun_mvl/mxv
 BYTE   W03
 BYTE   VOL   13*PokemonMysteryDungeonExplorersofSkyInTheMorningSun_mvl/mxv
 BYTE   W03
 BYTE   VOL   12*PokemonMysteryDungeonExplorersofSkyInTheMorningSun_mvl/mxv
 BYTE   W03
 BYTE   VOL   11*PokemonMysteryDungeonExplorersofSkyInTheMorningSun_mvl/mxv
 BYTE   W03
 BYTE   VOL   11*PokemonMysteryDungeonExplorersofSkyInTheMorningSun_mvl/mxv
 BYTE   W03
 BYTE   VOL   10*PokemonMysteryDungeonExplorersofSkyInTheMorningSun_mvl/mxv
 BYTE   W03
 BYTE   VOL   10*PokemonMysteryDungeonExplorersofSkyInTheMorningSun_mvl/mxv
 BYTE   W03
 BYTE   VOL   9*PokemonMysteryDungeonExplorersofSkyInTheMorningSun_mvl/mxv
 BYTE   W03
 BYTE   VOL   8*PokemonMysteryDungeonExplorersofSkyInTheMorningSun_mvl/mxv
 BYTE   W03
 BYTE   VOL   8*PokemonMysteryDungeonExplorersofSkyInTheMorningSun_mvl/mxv
 BYTE   W03
 BYTE   VOL   7*PokemonMysteryDungeonExplorersofSkyInTheMorningSun_mvl/mxv
 BYTE   N24  Fs5  v060
 BYTE   W03
 BYTE   VOL   6*PokemonMysteryDungeonExplorersofSkyInTheMorningSun_mvl/mxv
 BYTE   W03
 BYTE   VOL   6*PokemonMysteryDungeonExplorersofSkyInTheMorningSun_mvl/mxv
 BYTE   W03
 BYTE   VOL   6*PokemonMysteryDungeonExplorersofSkyInTheMorningSun_mvl/mxv
 BYTE   W03
//  #15 //062   ----------------------------------------
 BYTE   VOL   5*PokemonMysteryDungeonExplorersofSkyInTheMorningSun_mvl/mxv
 BYTE   W03
 BYTE   VOL   5*PokemonMysteryDungeonExplorersofSkyInTheMorningSun_mvl/mxv
 BYTE   W09
 BYTE   VOL   14*PokemonMysteryDungeonExplorersofSkyInTheMorningSun_mvl/mxv
 BYTE   N12  Bn3  v127
 BYTE   W12
 BYTE   Bn3  v060
 BYTE   W12
 BYTE   N36  Fs4  v127
 BYTE   W36
 BYTE   N12  Fs4  v060
 BYTE   W12
 BYTE   Fs4  v127
 BYTE   W12
//  #15 //063   ----------------------------------------
 BYTE   PATT
  POIN2 Label_01689030
//  #15 //064   ----------------------------------------
 BYTE   N12  An4  v060
 BYTE   W12
 BYTE   Cs5  v127
 BYTE   W12
 BYTE   N60  Dn5
 BYTE   W60
 BYTE   N12  Cs5
 BYTE   W12
//  #15 //065   ----------------------------------------
 BYTE   Cs5  v060
 BYTE   W12
 BYTE   Dn5  v127
 BYTE   W12
 BYTE   N60  Fs5
 BYTE   W60
 BYTE   N24  Fs5  v060
 BYTE   W12
//  #15 //066   ----------------------------------------
 BYTE   W12
 BYTE   N12  Bn4  v127
 BYTE   W24
 BYTE   N24  Fs5
 BYTE   W24
 BYTE   N12  En5
 BYTE   W12
 BYTE   N24
 BYTE   W24
//  #15 //067   ----------------------------------------
 BYTE   N12  En5  v060
 BYTE   W12
 BYTE   Bn4  v127
 BYTE   W12
 BYTE   Bn4  v060
 BYTE   W12
 BYTE   N24  Fs5  v127
 BYTE   W24
 BYTE   N12  En5
 BYTE   W12
 BYTE   N24
 BYTE   W24
//  #15 //068   ----------------------------------------
 BYTE   N12  Dn5
 BYTE   W12
 BYTE   Dn5  v060
 BYTE   W12
 BYTE   N84  En5  v127
 BYTE   W36
 BYTE   VOL   14*PokemonMysteryDungeonExplorersofSkyInTheMorningSun_mvl/mxv
 BYTE   W06
 BYTE   VOL   13*PokemonMysteryDungeonExplorersofSkyInTheMorningSun_mvl/mxv
 BYTE   W06
 BYTE   VOL   11*PokemonMysteryDungeonExplorersofSkyInTheMorningSun_mvl/mxv
 BYTE   W06
 BYTE   VOL   10*PokemonMysteryDungeonExplorersofSkyInTheMorningSun_mvl/mxv
 BYTE   W06
 BYTE   VOL   10*PokemonMysteryDungeonExplorersofSkyInTheMorningSun_mvl/mxv
 BYTE   W06
 BYTE   VOL   8*PokemonMysteryDungeonExplorersofSkyInTheMorningSun_mvl/mxv
 BYTE   W06
//  #15 //069   ----------------------------------------
 BYTE   VOL   8*PokemonMysteryDungeonExplorersofSkyInTheMorningSun_mvl/mxv
 BYTE   W06
 BYTE   VOL   6*PokemonMysteryDungeonExplorersofSkyInTheMorningSun_mvl/mxv
 BYTE   W06
 BYTE   VOL   6*PokemonMysteryDungeonExplorersofSkyInTheMorningSun_mvl/mxv
 BYTE   N24  En5  v060
 BYTE   W06
 BYTE   VOL   5*PokemonMysteryDungeonExplorersofSkyInTheMorningSun_mvl/mxv
 BYTE   W06
 BYTE   VOL   5*PokemonMysteryDungeonExplorersofSkyInTheMorningSun_mvl/mxv
 BYTE   W06
 BYTE   VOL   4*PokemonMysteryDungeonExplorersofSkyInTheMorningSun_mvl/mxv
 BYTE   W66
//  #15 //070   ----------------------------------------
 BYTE   W96
//  #15 //071   ----------------------------------------
 BYTE   W96
//  #15 //072   ----------------------------------------
 BYTE   W96
//  #15 //073   ----------------------------------------
 BYTE   W96
//  #15 //074   ----------------------------------------
 BYTE   W96
//  #15 //075   ----------------------------------------
 BYTE   W96
//  #15 //076   ----------------------------------------
 BYTE   PATT
  POIN2 Label_01688E4A
//  #15 //077   ----------------------------------------
 BYTE   W36
 BYTE   VOL   14*PokemonMysteryDungeonExplorersofSkyInTheMorningSun_mvl/mxv
 BYTE   W60
//  #15 //078   ----------------------------------------
 BYTE   PATT
  POIN2 Label_01688E55
//  #15 //079   ----------------------------------------
 BYTE   PATT
  POIN2 Label_01688E66
//  #15 //080   ----------------------------------------
 BYTE   PATT
  POIN2 Label_01688E78
//  #15 //081   ----------------------------------------
 BYTE   PATT
  POIN2 Label_01688E87
//  #15 //082   ----------------------------------------
 BYTE   PATT
  POIN2 Label_01688E99
//  #15 //083   ----------------------------------------
 BYTE   PATT
  POIN2 Label_01688EA3
//  #15 //084   ----------------------------------------
 BYTE   PATT
  POIN2 Label_01688EB3
//  #15 //085   ----------------------------------------
 BYTE   PATT
  POIN2 Label_01688EA3
//  #15 //086   ----------------------------------------
 BYTE   PATT
  POIN2 Label_01688EC5
//  #15 //087   ----------------------------------------
 BYTE   PATT
  POIN2 Label_01688ED9
//  #15 //088   ----------------------------------------
 BYTE   EOT
 BYTE   An5
 BYTE   VOL   2*PokemonMysteryDungeonExplorersofSkyInTheMorningSun_mvl/mxv
 BYTE   W12
 BYTE   W24
 BYTE   GoTo
  POIN2 Label_01688EFD
 BYTE   FINE

//**************** Track 16 (Midi-Chn.15) ****************//

PokemonMysteryDungeonExplorersofSkyInTheMorningSun_016:
//  #16 //000   ----------------------------------------
 BYTE   KEYSH   PokemonMysteryDungeonExplorersofSkyInTheMorningSun_key+0
 BYTE   VOICE   10
 BYTE   MODT 0
 BYTE   LFOS 44
 BYTE   VOL   7*PokemonMysteryDungeonExplorersofSkyInTheMorningSun_mvl/mxv
 BYTE   PAN   c_v+63
 BYTE   VOL   7*PokemonMysteryDungeonExplorersofSkyInTheMorningSun_mvl/mxv
 BYTE   BEND   c_v+0
 BYTE   W48
 BYTE   N05  Fs5  v068
 BYTE   W12
 BYTE   Fs5  v032
 BYTE   W12
 BYTE   Fs5  v012
 BYTE   W12
 BYTE   En5  v068
 BYTE   W12
//  #16 //001   ----------------------------------------
Label_016891BA:
 BYTE   N05  En5  v032
 BYTE   W12
 BYTE   En5  v012
 BYTE   W24
 BYTE   An5  v068
 BYTE   W12
 BYTE   An5  v032
 BYTE   W12
 BYTE   An5  v012
 BYTE   W12
 BYTE   An5  v056
 BYTE   W12
 BYTE   An5  v020
 BYTE   W12
 BYTE   PEND 
//  #16 //002   ----------------------------------------
Label_016891D1:
 BYTE   N05  An5  v012
 BYTE   W12
 BYTE   An5  v040
 BYTE   W12
 BYTE   An5  v020
 BYTE   W12
 BYTE   An5  v012
 BYTE   W12
 BYTE   Fs5  v068
 BYTE   N05  An5  v008
 BYTE   W12
 BYTE   Fs5  v032
 BYTE   W12
 BYTE   Fs5  v012
 BYTE   W12
 BYTE   En5  v068
 BYTE   W12
 BYTE   PEND 
//  #16 //003   ----------------------------------------
Label_016891EE:
 BYTE   N05  En5  v032
 BYTE   W12
 BYTE   En5  v012
 BYTE   W12
 BYTE   An4  v068
 BYTE   W12
 BYTE   An4  v032
 BYTE   W12
 BYTE   An4  v012
 BYTE   W12
 BYTE   An4  v056
 BYTE   W12
 BYTE   An4  v020
 BYTE   W12
 BYTE   An4  v012
 BYTE   W12
 BYTE   PEND 
//  #16 //004   ----------------------------------------
 BYTE   An4  v040
 BYTE   W12
 BYTE   An4  v020
 BYTE   W12
 BYTE   An4  v012
 BYTE   W12
 BYTE   An4  v008
 BYTE   W12
 BYTE   Fs5  v068
 BYTE   W12
 BYTE   Fs5  v032
 BYTE   W12
 BYTE   Fs5  v012
 BYTE   W12
 BYTE   En5  v068
 BYTE   W12
//  #16 //005   ----------------------------------------
 BYTE   PATT
  POIN2 Label_016891BA
//  #16 //006   ----------------------------------------
 BYTE   PATT
  POIN2 Label_016891D1
//  #16 //007   ----------------------------------------
 BYTE   PATT
  POIN2 Label_016891EE
//  #16 //008   ----------------------------------------
 BYTE   N05  An4  v040
 BYTE   W12
 BYTE   An4  v020
 BYTE   W12
 BYTE   An4  v012
 BYTE   W12
 BYTE   An4  v008
 BYTE   W60
//  #16 //009   ----------------------------------------
 BYTE   W96
//  #16 //010   ----------------------------------------
 BYTE   W96
//  #16 //011   ----------------------------------------
 BYTE   W96
//  #16 //012   ----------------------------------------
 BYTE   W96
//  #16 //013   ----------------------------------------
 BYTE   W96
//  #16 //014   ----------------------------------------
 BYTE   W96
//  #16 //015   ----------------------------------------
 BYTE   W96
//  #16 //016   ----------------------------------------
 BYTE   W96
//  #16 //017   ----------------------------------------
 BYTE   W96
//  #16 //018   ----------------------------------------
 BYTE   W24
Label_01689246:
 BYTE   W36
 BYTE   N01  Fs5  v100
 BYTE   W12
 BYTE   En5
 BYTE   W12
 BYTE   Bn4
 BYTE   W12
//  #16 //019   ----------------------------------------
Label_0168924F:
 BYTE   N01  Fs5  v100
 BYTE   W12
 BYTE   En5
 BYTE   W12
 BYTE   Bn4
 BYTE   W12
 BYTE   Fs5
 BYTE   W24
 BYTE   En5
 BYTE   W24
 BYTE   An5
 BYTE   W12
 BYTE   PEND 
//  #16 //020   ----------------------------------------
Label_0168925E:
 BYTE   W60
 BYTE   N01  Fs5  v100
 BYTE   W12
 BYTE   En5
 BYTE   W12
 BYTE   Bn4
 BYTE   W12
 BYTE   PEND 
//  #16 //021   ----------------------------------------
Label_01689268:
 BYTE   N01  Fs5  v100
 BYTE   W12
 BYTE   En5
 BYTE   W12
 BYTE   Bn4
 BYTE   W12
 BYTE   Fs5
 BYTE   W24
 BYTE   En5
 BYTE   W24
 BYTE   An4
 BYTE   W12
 BYTE   PEND 
//  #16 //022   ----------------------------------------
 BYTE   PATT
  POIN2 Label_0168925E
//  #16 //023   ----------------------------------------
 BYTE   PATT
  POIN2 Label_01689268
//  #16 //024   ----------------------------------------
 BYTE   PATT
  POIN2 Label_0168925E
//  #16 //025   ----------------------------------------
Label_01689286:
 BYTE   N01  Fs5  v100
 BYTE   W12
 BYTE   En5
 BYTE   W12
 BYTE   Bn4
 BYTE   W12
 BYTE   An5
 BYTE   W24
 BYTE   Gn5
 BYTE   W24
 BYTE   Fs5
 BYTE   W12
 BYTE   PEND 
//  #16 //026   ----------------------------------------
Label_01689295:
 BYTE   W12
 BYTE   N01  En5  v100
 BYTE   W48
 BYTE   Fs5
 BYTE   W12
 BYTE   En5
 BYTE   W12
 BYTE   Bn4
 BYTE   W12
 BYTE   PEND 
//  #16 //027   ----------------------------------------
 BYTE   PATT
  POIN2 Label_0168924F
//  #16 //028   ----------------------------------------
 BYTE   PATT
  POIN2 Label_0168925E
//  #16 //029   ----------------------------------------
 BYTE   PATT
  POIN2 Label_01689268
//  #16 //030   ----------------------------------------
 BYTE   PATT
  POIN2 Label_0168925E
//  #16 //031   ----------------------------------------
 BYTE   PATT
  POIN2 Label_01689268
//  #16 //032   ----------------------------------------
 BYTE   PATT
  POIN2 Label_0168925E
//  #16 //033   ----------------------------------------
 BYTE   N01  Fs5  v100
 BYTE   W12
 BYTE   En5
 BYTE   W24
 BYTE   Bn4
 BYTE   W60
//  #16 //034   ----------------------------------------
 BYTE   W96
//  #16 //035   ----------------------------------------
 BYTE   W96
//  #16 //036   ----------------------------------------
 BYTE   W96
//  #16 //037   ----------------------------------------
 BYTE   W96
//  #16 //038   ----------------------------------------
 BYTE   W96
//  #16 //039   ----------------------------------------
 BYTE   W96
//  #16 //040   ----------------------------------------
 BYTE   W96
//  #16 //041   ----------------------------------------
 BYTE   W96
//  #16 //042   ----------------------------------------
 BYTE   W96
//  #16 //043   ----------------------------------------
 BYTE   W96
//  #16 //044   ----------------------------------------
 BYTE   W96
//  #16 //045   ----------------------------------------
 BYTE   W96
//  #16 //046   ----------------------------------------
 BYTE   W96
//  #16 //047   ----------------------------------------
 BYTE   W96
//  #16 //048   ----------------------------------------
 BYTE   W96
//  #16 //049   ----------------------------------------
 BYTE   W96
//  #16 //050   ----------------------------------------
 BYTE   W96
//  #16 //051   ----------------------------------------
 BYTE   W96
//  #16 //052   ----------------------------------------
 BYTE   W96
//  #16 //053   ----------------------------------------
 BYTE   W96
//  #16 //054   ----------------------------------------
 BYTE   PATT
  POIN2 Label_0168925E
//  #16 //055   ----------------------------------------
 BYTE   PATT
  POIN2 Label_0168924F
//  #16 //056   ----------------------------------------
 BYTE   PATT
  POIN2 Label_0168925E
//  #16 //057   ----------------------------------------
 BYTE   PATT
  POIN2 Label_01689268
//  #16 //058   ----------------------------------------
 BYTE   PATT
  POIN2 Label_0168925E
//  #16 //059   ----------------------------------------
 BYTE   PATT
  POIN2 Label_01689268
//  #16 //060   ----------------------------------------
 BYTE   PATT
  POIN2 Label_0168925E
//  #16 //061   ----------------------------------------
 BYTE   PATT
  POIN2 Label_01689286
//  #16 //062   ----------------------------------------
 BYTE   PATT
  POIN2 Label_01689295
//  #16 //063   ----------------------------------------
 BYTE   PATT
  POIN2 Label_0168924F
//  #16 //064   ----------------------------------------
 BYTE   PATT
  POIN2 Label_0168925E
//  #16 //065   ----------------------------------------
 BYTE   PATT
  POIN2 Label_01689268
//  #16 //066   ----------------------------------------
 BYTE   PATT
  POIN2 Label_0168925E
//  #16 //067   ----------------------------------------
 BYTE   N01  Fs5  v100
 BYTE   W12
 BYTE   En5
 BYTE   W12
 BYTE   Bn4
 BYTE   W12
 BYTE   Fs5
 BYTE   W24
 BYTE   En5
 BYTE   W24
 BYTE   Bn4
 BYTE   W12
//  #16 //068   ----------------------------------------
 BYTE   PATT
  POIN2 Label_0168925E
//  #16 //069   ----------------------------------------
 BYTE   N01  Fs5  v100
 BYTE   W12
 BYTE   En5
 BYTE   W24
 BYTE   An5
 BYTE   W60
//  #16 //070   ----------------------------------------
 BYTE   PATT
  POIN2 Label_0168925E
//  #16 //071   ----------------------------------------
 BYTE   PATT
  POIN2 Label_0168924F
//  #16 //072   ----------------------------------------
 BYTE   PATT
  POIN2 Label_0168925E
//  #16 //073   ----------------------------------------
 BYTE   PATT
  POIN2 Label_01689268
//  #16 //074   ----------------------------------------
 BYTE   PATT
  POIN2 Label_0168925E
//  #16 //075   ----------------------------------------
 BYTE   PATT
  POIN2 Label_01689268
//  #16 //076   ----------------------------------------
 BYTE   PATT
  POIN2 Label_0168925E
//  #16 //077   ----------------------------------------
 BYTE   PATT
  POIN2 Label_01689286
//  #16 //078   ----------------------------------------
 BYTE   PATT
  POIN2 Label_01689295
//  #16 //079   ----------------------------------------
 BYTE   PATT
  POIN2 Label_0168924F
//  #16 //080   ----------------------------------------
 BYTE   PATT
  POIN2 Label_0168925E
//  #16 //081   ----------------------------------------
 BYTE   PATT
  POIN2 Label_01689268
//  #16 //082   ----------------------------------------
 BYTE   PATT
  POIN2 Label_0168925E
//  #16 //083   ----------------------------------------
 BYTE   PATT
  POIN2 Label_0168924F
//  #16 //084   ----------------------------------------
 BYTE   PATT
  POIN2 Label_0168925E
//  #16 //085   ----------------------------------------
 BYTE   N01  Fs5  v100
 BYTE   W12
 BYTE   En5
 BYTE   W24
 BYTE   Fs5
 BYTE   W60
//  #16 //086   ----------------------------------------
 BYTE   W96
//  #16 //087   ----------------------------------------
 BYTE   W96
//  #16 //088   ----------------------------------------
 BYTE   W24
 BYTE   GoTo
  POIN2 Label_01689246
 BYTE   FINE

//******************************************************//
	ALIGN 4

PokemonMysteryDungeonExplorersofSkyInTheMorningSun:
	BYTE	16	// NumTrks
	BYTE	0	// NumBlks
	BYTE	PokemonMysteryDungeonExplorersofSkyInTheMorningSun_pri	// Priority
	BYTE	PokemonMysteryDungeonExplorersofSkyInTheMorningSun_rev	// Reverb.
    
	POIN2	PokemonMysteryDungeonExplorersofSkyInTheMorningSun_grp
    
	POIN2	PokemonMysteryDungeonExplorersofSkyInTheMorningSun_001
	POIN2	PokemonMysteryDungeonExplorersofSkyInTheMorningSun_002
	POIN2	PokemonMysteryDungeonExplorersofSkyInTheMorningSun_003
	POIN2	PokemonMysteryDungeonExplorersofSkyInTheMorningSun_004
	POIN2	PokemonMysteryDungeonExplorersofSkyInTheMorningSun_005
	POIN2	PokemonMysteryDungeonExplorersofSkyInTheMorningSun_006
	POIN2	PokemonMysteryDungeonExplorersofSkyInTheMorningSun_007
	POIN2	PokemonMysteryDungeonExplorersofSkyInTheMorningSun_008
	POIN2	PokemonMysteryDungeonExplorersofSkyInTheMorningSun_009
	POIN2	PokemonMysteryDungeonExplorersofSkyInTheMorningSun_010
	POIN2	PokemonMysteryDungeonExplorersofSkyInTheMorningSun_011
	POIN2	PokemonMysteryDungeonExplorersofSkyInTheMorningSun_012
	POIN2	PokemonMysteryDungeonExplorersofSkyInTheMorningSun_013
	POIN2	PokemonMysteryDungeonExplorersofSkyInTheMorningSun_014
	POIN2	PokemonMysteryDungeonExplorersofSkyInTheMorningSun_015
	POIN2	PokemonMysteryDungeonExplorersofSkyInTheMorningSun_016

	
