//Event file generated from Sappy .s format.
	#include "MPlayDef.event"

	#define	PokemonGSGoldenrodCityAReliableChair_grp  voicegroup000
	#define	PokemonGSGoldenrodCityAReliableChair_pri  0
	#define	PokemonGSGoldenrodCityAReliableChair_rev  0
	#define	PokemonGSGoldenrodCityAReliableChair_mvl  127
	#define	PokemonGSGoldenrodCityAReliableChair_key  0
	#define	PokemonGSGoldenrodCityAReliableChair_tbs  1
	#define	PokemonGSGoldenrodCityAReliableChair_exg  0
	#define	PokemonGSGoldenrodCityAReliableChair_cmp  1

	// .rodata
	//	PokemonGSGoldenrodCityAReliableChair
	ALIGN 4


//**************** Track 1 (Midi-Chn.0) ****************//

PokemonGSGoldenrodCityAReliableChair_001:
// 000   ----------------------------------------
 BYTE   KEYSH   PokemonGSGoldenrodCityAReliableChair_key+0
Label_0_0147B9FA:
 BYTE   TEMPO   114*PokemonGSGoldenrodCityAReliableChair_tbs/2
 BYTE   VOICE   46
 BYTE   VOL   54*PokemonGSGoldenrodCityAReliableChair_mvl/mxv
 BYTE   PAN   c_v-40
 BYTE   N24  Fn4  v104
 BYTE   W24
 BYTE   Cs4
 BYTE   W24
 BYTE   Ds4
 BYTE   W24
 BYTE   Cn4
 BYTE   W24
// 001   ----------------------------------------
Label_0_0147BA0C:
 BYTE   N12  Cs4  v104
 BYTE   W12
 BYTE   Cn4
 BYTE   W12
 BYTE   As3
 BYTE   W12
 BYTE   Cn4
 BYTE   W12
 BYTE   N36  Gs3
 BYTE   W36
 BYTE   N06
 BYTE   W06
 BYTE   An3
 BYTE   W06
 BYTE   PEND 
// 002   ----------------------------------------
Label_0_0147BA1E:
 BYTE   N24  As3  v104
 BYTE   W24
 BYTE   Cs4
 BYTE   W24
 BYTE   N12  As3
 BYTE   W12
 BYTE   As4
 BYTE   W12
 BYTE   Gs4
 BYTE   W12
 BYTE   Fs4
 BYTE   W12
 BYTE   PEND 
// 003   ----------------------------------------
Label_0_0147BA2E:
 BYTE   N12  Fn4  v104
 BYTE   W12
 BYTE   Fs4
 BYTE   W12
 BYTE   Gs4
 BYTE   W12
 BYTE   Fn4
 BYTE   W12
 BYTE   N36  Ds4
 BYTE   W48
 BYTE   PEND 
// 004   ----------------------------------------
Label_0_0147BA3C:
 BYTE   N24  Fn4  v104
 BYTE   W24
 BYTE   Cs4
 BYTE   W24
 BYTE   Ds4
 BYTE   W24
 BYTE   Cn4
 BYTE   W24
 BYTE   PEND 
 BYTE   PATT
  POIN2 Label_0_0147BA0C
 BYTE   PATT
  POIN2 Label_0_0147BA1E
// 005   ----------------------------------------
Label_0_0147BA51:
 BYTE   N12  Gs4  v104
 BYTE   W12
 BYTE   As4
 BYTE   W12
 BYTE   Cn5
 BYTE   W12
 BYTE   Cs5
 BYTE   W12
 BYTE   N36  Ds5
 BYTE   W48
 BYTE   PEND 
// 006   ----------------------------------------
Label_0_0147BA5F:
 BYTE   N36  Cs5  v104
 BYTE   W36
 BYTE   Fn5
 BYTE   W36
 BYTE   N24  Cs5
 BYTE   W24
 BYTE   PEND 
// 007   ----------------------------------------
Label_0_0147BA69:
 BYTE   N36  Cn5  v104
 BYTE   W36
 BYTE   Ds5
 BYTE   W36
 BYTE   N12  Cn5
 BYTE   W12
 BYTE   N06  Gs4
 BYTE   W06
 BYTE   An4
 BYTE   W06
 BYTE   PEND 
// 008   ----------------------------------------
Label_0_0147BA78:
 BYTE   N36  As4  v104
 BYTE   W36
 BYTE   Cs5
 BYTE   W36
 BYTE   N24  As4
 BYTE   W24
 BYTE   PEND 
// 009   ----------------------------------------
Label_0_0147BA82:
 BYTE   N24  Cn5  v104
 BYTE   W24
 BYTE   N12  Ds5
 BYTE   W12
 BYTE   Gs4
 BYTE   W12
 BYTE   As4
 BYTE   W12
 BYTE   Bn4
 BYTE   W12
 BYTE   N24  Cn5
 BYTE   W24
 BYTE   PEND 
 BYTE   PATT
  POIN2 Label_0_0147BA5F
 BYTE   PATT
  POIN2 Label_0_0147BA69
 BYTE   PATT
  POIN2 Label_0_0147BA78
// 010   ----------------------------------------
Label_0_0147BAA2:
 BYTE   N24  Cn5  v104
 BYTE   W24
 BYTE   N12  Ds5
 BYTE   W12
 BYTE   Fn5
 BYTE   W12
 BYTE   Ds5
 BYTE   W12
 BYTE   Cs5
 BYTE   W12
 BYTE   Cn5
 BYTE   W12
 BYTE   Gs4
 BYTE   W12
 BYTE   PEND 
 BYTE   PATT
  POIN2 Label_0_0147BA3C
 BYTE   PATT
  POIN2 Label_0_0147BA0C
 BYTE   PATT
  POIN2 Label_0_0147BA1E
 BYTE   PATT
  POIN2 Label_0_0147BA2E
 BYTE   PATT
  POIN2 Label_0_0147BA3C
 BYTE   PATT
  POIN2 Label_0_0147BA0C
 BYTE   PATT
  POIN2 Label_0_0147BA1E
 BYTE   PATT
  POIN2 Label_0_0147BA51
 BYTE   PATT
  POIN2 Label_0_0147BA5F
 BYTE   PATT
  POIN2 Label_0_0147BA69
 BYTE   PATT
  POIN2 Label_0_0147BA78
 BYTE   PATT
  POIN2 Label_0_0147BA82
 BYTE   PATT
  POIN2 Label_0_0147BA5F
 BYTE   PATT
  POIN2 Label_0_0147BA69
 BYTE   PATT
  POIN2 Label_0_0147BA78
 BYTE   PATT
  POIN2 Label_0_0147BAA2
// 011   ----------------------------------------
 BYTE   GoTo
  POIN2 Label_0_0147B9FA
 BYTE   FINE

//**************** Track 2 (Midi-Chn.1) ****************//

PokemonGSGoldenrodCityAReliableChair_002:
// 000   ----------------------------------------
 BYTE   KEYSH   PokemonGSGoldenrodCityAReliableChair_key+0
Label_1_0147BB0E:
 BYTE   VOICE   4
 BYTE   VOL   32*PokemonGSGoldenrodCityAReliableChair_mvl/mxv
 BYTE   PAN   c_v+40
 BYTE   W96
// 001   ----------------------------------------
 BYTE   W96
// 002   ----------------------------------------
 BYTE   W96
// 003   ----------------------------------------
 BYTE   W96
// 004   ----------------------------------------
Label_1_0147BB18:
 BYTE   N12  Cs4  v108
 BYTE   W12
 BYTE   Gs3
 BYTE   W24
 BYTE   N12
 BYTE   W12
 BYTE   Cn4
 BYTE   W12
 BYTE   Gs3
 BYTE   W24
 BYTE   N12
 BYTE   W12
 BYTE   PEND 
// 005   ----------------------------------------
Label_1_0147BB27:
 BYTE   N12  As3  v108
 BYTE   W12
 BYTE   Fn3
 BYTE   W12
 BYTE   Cs3
 BYTE   W12
 BYTE   Fn3
 BYTE   W12
 BYTE   Ds3
 BYTE   W12
 BYTE   Cn3
 BYTE   W12
 BYTE   Cs3
 BYTE   W12
 BYTE   Ds3
 BYTE   W12
 BYTE   PEND 
// 006   ----------------------------------------
Label_1_0147BB3A:
 BYTE   N12  Fs3  v108
 BYTE   W12
 BYTE   Cs3
 BYTE   W24
 BYTE   N12
 BYTE   W12
 BYTE   Fs3
 BYTE   W12
 BYTE   Cs3
 BYTE   W12
 BYTE   Fs3
 BYTE   W12
 BYTE   As3
 BYTE   W12
 BYTE   PEND 
// 007   ----------------------------------------
Label_1_0147BB4B:
 BYTE   N12  Cs3  v108
 BYTE   W12
 BYTE   Ds3
 BYTE   W12
 BYTE   Gs3
 BYTE   W12
 BYTE   Cs4
 BYTE   W12
 BYTE   N06  Gs3
 BYTE   W06
 BYTE   Cn4
 BYTE   W06
 BYTE   Ds4
 BYTE   W06
 BYTE   Fs4
 BYTE   W06
 BYTE   Ds4
 BYTE   W06
 BYTE   Fs4
 BYTE   W06
 BYTE   Gs4
 BYTE   W06
 BYTE   Cn5
 BYTE   W06
 BYTE   PEND 
// 008   ----------------------------------------
Label_1_0147BB67:
 BYTE   N06  Fn4  v108
 BYTE   W06
 BYTE   Cs4
 BYTE   W06
 BYTE   Gs3
 BYTE   W06
 BYTE   Cs4
 BYTE   W06
 BYTE   Fn4
 BYTE   W06
 BYTE   Gs4
 BYTE   W06
 BYTE   Fn4
 BYTE   W06
 BYTE   Gs4
 BYTE   W06
 BYTE   Cs4
 BYTE   W06
 BYTE   Gs3
 BYTE   W06
 BYTE   Fn3
 BYTE   W06
 BYTE   Gs3
 BYTE   W06
 BYTE   Cs4
 BYTE   W06
 BYTE   Fn4
 BYTE   W06
 BYTE   Cs4
 BYTE   W06
 BYTE   Fn4
 BYTE   W06
 BYTE   PEND 
// 009   ----------------------------------------
Label_1_0147BB8A:
 BYTE   N06  Ds4  v108
 BYTE   W06
 BYTE   Cn4
 BYTE   W06
 BYTE   Gs3
 BYTE   W06
 BYTE   Cn4
 BYTE   W06
 BYTE   Ds4
 BYTE   W06
 BYTE   Fs4
 BYTE   W06
 BYTE   Ds4
 BYTE   W06
 BYTE   Fs4
 BYTE   W06
 BYTE   Cn4
 BYTE   W06
 BYTE   Gs3
 BYTE   W06
 BYTE   Fs3
 BYTE   W06
 BYTE   Gs3
 BYTE   W06
 BYTE   Cn4
 BYTE   W06
 BYTE   Ds4
 BYTE   W06
 BYTE   Cn4
 BYTE   W06
 BYTE   Ds4
 BYTE   W06
 BYTE   PEND 
// 010   ----------------------------------------
Label_1_0147BBAD:
 BYTE   N06  Cs4  v108
 BYTE   W06
 BYTE   As3
 BYTE   W06
 BYTE   Fs3
 BYTE   W06
 BYTE   As3
 BYTE   W06
 BYTE   Cs4
 BYTE   W06
 BYTE   Fn4
 BYTE   W06
 BYTE   Cs4
 BYTE   W06
 BYTE   Fn4
 BYTE   W06
 BYTE   As3
 BYTE   W06
 BYTE   Fs3
 BYTE   W06
 BYTE   Cs3
 BYTE   W06
 BYTE   Fs3
 BYTE   W06
 BYTE   As3
 BYTE   W06
 BYTE   Cs4
 BYTE   W06
 BYTE   As3
 BYTE   W06
 BYTE   Cs4
 BYTE   W06
 BYTE   PEND 
// 011   ----------------------------------------
Label_1_0147BBD0:
 BYTE   N06  Ds4  v108
 BYTE   W06
 BYTE   Cn4
 BYTE   W06
 BYTE   Gs3
 BYTE   W06
 BYTE   Cn4
 BYTE   W06
 BYTE   Ds4
 BYTE   W06
 BYTE   Fs4
 BYTE   W06
 BYTE   N12  Ds4
 BYTE   W12
 BYTE   Fn4
 BYTE   W12
 BYTE   Fs4
 BYTE   W12
 BYTE   N24  Gs4
 BYTE   W24
 BYTE   PEND 
 BYTE   PATT
  POIN2 Label_1_0147BB67
 BYTE   PATT
  POIN2 Label_1_0147BB8A
 BYTE   PATT
  POIN2 Label_1_0147BBAD
// 012   ----------------------------------------
Label_1_0147BBF8:
 BYTE   N06  Ds4  v108
 BYTE   W06
 BYTE   Cn4
 BYTE   W06
 BYTE   Gs3
 BYTE   W06
 BYTE   Cn4
 BYTE   W06
 BYTE   Ds4
 BYTE   W06
 BYTE   Fs4
 BYTE   W06
 BYTE   Ds4
 BYTE   W06
 BYTE   Fs4
 BYTE   W06
 BYTE   N12  Cn5
 BYTE   W12
 BYTE   Gs4
 BYTE   W12
 BYTE   Fs4
 BYTE   W12
 BYTE   Ds4
 BYTE   W12
 BYTE   PEND 
 BYTE   PATT
  POIN2 Label_1_0147BB18
 BYTE   PATT
  POIN2 Label_1_0147BB27
 BYTE   PATT
  POIN2 Label_1_0147BB3A
// 013   ----------------------------------------
 BYTE   N12  Cs3  v108
 BYTE   W12
 BYTE   Ds3
 BYTE   W12
 BYTE   Gs3
 BYTE   W12
 BYTE   Cs4
 BYTE   W12
 BYTE   N24  Cn4
 BYTE   W24
 BYTE   N12  Gs3
 BYTE   W12
 BYTE   Cn4
 BYTE   W12
 BYTE   PATT
  POIN2 Label_1_0147BB18
 BYTE   PATT
  POIN2 Label_1_0147BB27
 BYTE   PATT
  POIN2 Label_1_0147BB3A
 BYTE   PATT
  POIN2 Label_1_0147BB4B
 BYTE   PATT
  POIN2 Label_1_0147BB67
 BYTE   PATT
  POIN2 Label_1_0147BB8A
 BYTE   PATT
  POIN2 Label_1_0147BBAD
 BYTE   PATT
  POIN2 Label_1_0147BBD0
 BYTE   PATT
  POIN2 Label_1_0147BB67
 BYTE   PATT
  POIN2 Label_1_0147BB8A
 BYTE   PATT
  POIN2 Label_1_0147BBAD
 BYTE   PATT
  POIN2 Label_1_0147BBF8
// 014   ----------------------------------------
 BYTE   GoTo
  POIN2 Label_1_0147BB0E
 BYTE   FINE

//**************** Track 3 (Midi-Chn.2) ****************//

PokemonGSGoldenrodCityAReliableChair_003:
// 000   ----------------------------------------
 BYTE   KEYSH   PokemonGSGoldenrodCityAReliableChair_key+0
Label_2_0147BC7A:
 BYTE   VOICE   39
 BYTE   VOL   54*PokemonGSGoldenrodCityAReliableChair_mvl/mxv
 BYTE   PAN   c_v+0
 BYTE   N24  Cs3  v104
 BYTE   W36
 BYTE   N06
 BYTE   W12
 BYTE   N24  Cn3
 BYTE   W36
 BYTE   N06
 BYTE   W12
// 001   ----------------------------------------
Label_2_0147BC8B:
 BYTE   N24  As2  v104
 BYTE   W36
 BYTE   N06
 BYTE   W12
 BYTE   N24  Gs2
 BYTE   W36
 BYTE   N06
 BYTE   W12
 BYTE   PEND 
// 002   ----------------------------------------
Label_2_0147BC97:
 BYTE   N24  Fs2  v104
 BYTE   W36
 BYTE   N06
 BYTE   W12
 BYTE   N24  Ds3
 BYTE   W36
 BYTE   N06
 BYTE   W12
 BYTE   PEND 
// 003   ----------------------------------------
Label_2_0147BCA3:
 BYTE   N24  Gs3  v104
 BYTE   W36
 BYTE   N06
 BYTE   W12
 BYTE   Gs2
 BYTE   W12
 BYTE   N24
 BYTE   W24
 BYTE   N12  Gs3
 BYTE   W12
 BYTE   PEND 
// 004   ----------------------------------------
Label_2_0147BCB1:
 BYTE   N24  Cs3  v104
 BYTE   W36
 BYTE   N06
 BYTE   W12
 BYTE   N24  Cn3
 BYTE   W36
 BYTE   N06
 BYTE   W12
 BYTE   PEND 
 BYTE   PATT
  POIN2 Label_2_0147BC8B
 BYTE   PATT
  POIN2 Label_2_0147BC97
 BYTE   PATT
  POIN2 Label_2_0147BCA3
// 005   ----------------------------------------
Label_2_0147BCCC:
 BYTE   N06  Cs3  v104
 BYTE   W12
 BYTE   Cs4
 BYTE   W06
 BYTE   Cs3
 BYTE   W18
 BYTE   N06
 BYTE   W36
 BYTE   Cn4
 BYTE   W06
 BYTE   Cs4
 BYTE   W06
 BYTE   N12  Gs3
 BYTE   W12
 BYTE   PEND 
// 006   ----------------------------------------
Label_2_0147BCDE:
 BYTE   N06  Cn3  v104
 BYTE   W12
 BYTE   Cn4
 BYTE   W06
 BYTE   Cn3
 BYTE   W18
 BYTE   N06
 BYTE   W36
 BYTE   Bn3
 BYTE   W06
 BYTE   Cn4
 BYTE   W06
 BYTE   N12  Gs3
 BYTE   W12
 BYTE   PEND 
// 007   ----------------------------------------
Label_2_0147BCF0:
 BYTE   N06  As2  v104
 BYTE   W12
 BYTE   As3
 BYTE   W06
 BYTE   As2
 BYTE   W18
 BYTE   N06
 BYTE   W36
 BYTE   An3
 BYTE   W06
 BYTE   As3
 BYTE   W06
 BYTE   N12  Fs3
 BYTE   W12
 BYTE   PEND 
// 008   ----------------------------------------
Label_2_0147BD02:
 BYTE   N06  Gs2  v104
 BYTE   W12
 BYTE   Gs3
 BYTE   W06
 BYTE   Gs2
 BYTE   W18
 BYTE   N06
 BYTE   W24
 BYTE   Cn3
 BYTE   W06
 BYTE   Ds3
 BYTE   W06
 BYTE   N12  Gn3
 BYTE   W12
 BYTE   Ds3
 BYTE   W12
 BYTE   PEND 
 BYTE   PATT
  POIN2 Label_2_0147BCCC
 BYTE   PATT
  POIN2 Label_2_0147BCDE
 BYTE   PATT
  POIN2 Label_2_0147BCF0
// 009   ----------------------------------------
Label_2_0147BD25:
 BYTE   N06  Gs2  v104
 BYTE   W12
 BYTE   Gs3
 BYTE   W06
 BYTE   Gs2
 BYTE   W18
 BYTE   N06
 BYTE   W12
 BYTE   N24  Gs3
 BYTE   W24
 BYTE   N12  Ds3
 BYTE   W12
 BYTE   Gs2
 BYTE   W12
 BYTE   PEND 
 BYTE   PATT
  POIN2 Label_2_0147BCB1
 BYTE   PATT
  POIN2 Label_2_0147BC8B
 BYTE   PATT
  POIN2 Label_2_0147BC97
 BYTE   PATT
  POIN2 Label_2_0147BCA3
 BYTE   PATT
  POIN2 Label_2_0147BCB1
 BYTE   PATT
  POIN2 Label_2_0147BC8B
 BYTE   PATT
  POIN2 Label_2_0147BC97
 BYTE   PATT
  POIN2 Label_2_0147BCA3
 BYTE   PATT
  POIN2 Label_2_0147BCCC
 BYTE   PATT
  POIN2 Label_2_0147BCDE
 BYTE   PATT
  POIN2 Label_2_0147BCF0
 BYTE   PATT
  POIN2 Label_2_0147BD02
 BYTE   PATT
  POIN2 Label_2_0147BCCC
 BYTE   PATT
  POIN2 Label_2_0147BCDE
 BYTE   PATT
  POIN2 Label_2_0147BCF0
 BYTE   PATT
  POIN2 Label_2_0147BD25
// 010   ----------------------------------------
 BYTE   GoTo
  POIN2 Label_2_0147BC7A
 BYTE   FINE

//**************** Track 4 (Midi-Chn.3) ****************//

PokemonGSGoldenrodCityAReliableChair_004:
// 000   ----------------------------------------
 BYTE   KEYSH   PokemonGSGoldenrodCityAReliableChair_key+0
Label_3_0147BD92:
 BYTE   VOICE   121
 BYTE   VOL   52*PokemonGSGoldenrodCityAReliableChair_mvl/mxv
 BYTE   PAN   c_v+0
 BYTE   W96
// 001   ----------------------------------------
 BYTE   W96
// 002   ----------------------------------------
 BYTE   W96
// 003   ----------------------------------------
 BYTE   W48
 BYTE   N06  Fs1  v100
 BYTE   W12
 BYTE   As1
 BYTE   W12
 BYTE   Fs1
 BYTE   W06
 BYTE   N06
 BYTE   W06
 BYTE   As1
 BYTE   W12
// 004   ----------------------------------------
Label_3_0147BDA8:
 BYTE   N06  Cn1  v100
 BYTE   N06  Fs1
 BYTE   W12
 BYTE   As1
 BYTE   W12
 BYTE   Fs1
 BYTE   W12
 BYTE   As1
 BYTE   W12
 BYTE   Cn1
 BYTE   N06  Fs1
 BYTE   W12
 BYTE   As1
 BYTE   W12
 BYTE   Fs1
 BYTE   W12
 BYTE   As1
 BYTE   W12
 BYTE   PEND 
// 005   ----------------------------------------
Label_3_0147BDBF:
 BYTE   N06  Cn1  v100
 BYTE   N06  Fs1
 BYTE   W12
 BYTE   As1
 BYTE   W12
 BYTE   Fs1
 BYTE   W12
 BYTE   As1
 BYTE   W12
 BYTE   Cn1
 BYTE   N06  Fs1
 BYTE   W12
 BYTE   As1
 BYTE   W12
 BYTE   Fs1
 BYTE   W06
 BYTE   N06
 BYTE   W06
 BYTE   As1
 BYTE   W12
 BYTE   PEND 
 BYTE   PATT
  POIN2 Label_3_0147BDA8
 BYTE   PATT
  POIN2 Label_3_0147BDBF
// 006   ----------------------------------------
Label_3_0147BDE2:
 BYTE   N06  Cn1  v100
 BYTE   N06  Fs1
 BYTE   W18
 BYTE   Cn1
 BYTE   N06  Fs1
 BYTE   W18
 BYTE   Cn1
 BYTE   N06  Fs1
 BYTE   W24
 BYTE   N06
 BYTE   W06
 BYTE   N06
 BYTE   W06
 BYTE   Dn1
 BYTE   N06  As1
 BYTE   W12
 BYTE   Fs1
 BYTE   W12
 BYTE   PEND 
 BYTE   PATT
  POIN2 Label_3_0147BDE2
 BYTE   PATT
  POIN2 Label_3_0147BDE2
 BYTE   PATT
  POIN2 Label_3_0147BDE2
 BYTE   PATT
  POIN2 Label_3_0147BDE2
 BYTE   PATT
  POIN2 Label_3_0147BDE2
 BYTE   PATT
  POIN2 Label_3_0147BDE2
 BYTE   PATT
  POIN2 Label_3_0147BDE2
 BYTE   PATT
  POIN2 Label_3_0147BDA8
 BYTE   PATT
  POIN2 Label_3_0147BDBF
 BYTE   PATT
  POIN2 Label_3_0147BDA8
 BYTE   PATT
  POIN2 Label_3_0147BDBF
 BYTE   PATT
  POIN2 Label_3_0147BDA8
 BYTE   PATT
  POIN2 Label_3_0147BDBF
 BYTE   PATT
  POIN2 Label_3_0147BDA8
 BYTE   PATT
  POIN2 Label_3_0147BDBF
 BYTE   PATT
  POIN2 Label_3_0147BDE2
 BYTE   PATT
  POIN2 Label_3_0147BDE2
 BYTE   PATT
  POIN2 Label_3_0147BDE2
 BYTE   PATT
  POIN2 Label_3_0147BDE2
 BYTE   PATT
  POIN2 Label_3_0147BDE2
 BYTE   PATT
  POIN2 Label_3_0147BDE2
 BYTE   PATT
  POIN2 Label_3_0147BDE2
 BYTE   PATT
  POIN2 Label_3_0147BDE2
// 007   ----------------------------------------
 BYTE   GoTo
  POIN2 Label_3_0147BD92
 BYTE   FINE

//******************************************************//
	ALIGN 4

PokemonGSGoldenrodCityAReliableChair:
	BYTE	4	// NumTrks
	BYTE	0	// NumBlks
	BYTE	PokemonGSGoldenrodCityAReliableChair_pri	// Priority
	BYTE	PokemonGSGoldenrodCityAReliableChair_rev	// Reverb.
    
	POIN2	PokemonGSGoldenrodCityAReliableChair_grp
    
	POIN2	PokemonGSGoldenrodCityAReliableChair_001
	POIN2	PokemonGSGoldenrodCityAReliableChair_002
	POIN2	PokemonGSGoldenrodCityAReliableChair_003
	POIN2	PokemonGSGoldenrodCityAReliableChair_004

	
