//Event file generated from Sappy .s format.
	#include "MPlayDef.event"

	#define	PokemonRSEEncounterChampionMeatOfJustice_grp  voicegroup000
	#define	PokemonRSEEncounterChampionMeatOfJustice_pri  0
	#define	PokemonRSEEncounterChampionMeatOfJustice_rev  0
	#define	PokemonRSEEncounterChampionMeatOfJustice_mvl  127
	#define	PokemonRSEEncounterChampionMeatOfJustice_key  0
	#define	PokemonRSEEncounterChampionMeatOfJustice_tbs  1
	#define	PokemonRSEEncounterChampionMeatOfJustice_exg  0
	#define	PokemonRSEEncounterChampionMeatOfJustice_cmp  1

	// .rodata
	//	PokemonRSEEncounterChampionMeatOfJustice
	ALIGN 4


//**************** Track 1 (Midi-Chn.0) ****************//

PokemonRSEEncounterChampionMeatOfJustice_001:
// 000   ----------------------------------------
 BYTE   KEYSH   PokemonRSEEncounterChampionMeatOfJustice_key+0
 BYTE   TEMPO   142*PokemonRSEEncounterChampionMeatOfJustice_tbs/2
 BYTE   VOICE   36
 BYTE   VOL   80*PokemonRSEEncounterChampionMeatOfJustice_mvl/mxv
 BYTE   PAN   c_v+0
 BYTE   BEND   c_v+0
 BYTE   N05  An0  v100
 BYTE   W12
 BYTE   N06
 BYTE   W12
 BYTE   N12
 BYTE   W06
 BYTE   BEND   c_v+10
 BYTE   W06
 BYTE   BEND   c_v+0
 BYTE   N03
 BYTE   W06
 BYTE   N03
 BYTE   W06
 BYTE   N06  Cn1
 BYTE   W06
 BYTE   N18  An0
 BYTE   W18
 BYTE   N12
 BYTE   W12
 BYTE   An1
 BYTE   W12
// 001   ----------------------------------------
 BYTE   BEND   c_v+0
 BYTE   N12  Gn2
 BYTE   W06
 BYTE   BEND   c_v+9
 BYTE   W06
 BYTE   BEND   c_v+0
 BYTE   N12  Ds2
 BYTE   W06
 BYTE   BEND   c_v+5
 BYTE   W06
 BYTE   BEND   c_v+0
 BYTE   N12  Bn1
 BYTE   W06
 BYTE   BEND   c_v+9
 BYTE   W06
 BYTE   BEND   c_v+0
 BYTE   N12  Gn1
 BYTE   W06
 BYTE   BEND   c_v+5
 BYTE   W06
 BYTE   BEND   c_v-6
 BYTE   N12  En1
 BYTE   W06
 BYTE   BEND   c_v+0
 BYTE   W06
 BYTE   N03
 BYTE   W06
 BYTE   BEND   c_v-5
 BYTE   N12
 BYTE   W06
 BYTE   BEND   c_v+0
 BYTE   W06
 BYTE   N03
 BYTE   W06
 BYTE   BEND   c_v-5
 BYTE   N12
 BYTE   W06
 BYTE   BEND   c_v+0
 BYTE   W06
// 002   ----------------------------------------
Label_0_014E5AF8:
 BYTE   BEND   c_v+0
 BYTE   N18  An0  v100
 BYTE   W18
 BYTE   N06  En1
 BYTE   W18
 BYTE   N12  Bn1
 BYTE   W06
 BYTE   BEND   c_v+5
 BYTE   W06
 BYTE   BEND   c_v+63
 BYTE   N18  An0
 BYTE   W06
 BYTE   BEND   c_v+1
 BYTE   W12
 BYTE   N06  En1
 BYTE   W18
 BYTE   N12  Dn2
 BYTE   W06
 BYTE   BEND   c_v-10
 BYTE   W06
 BYTE   PEND 
// 003   ----------------------------------------
Label_0_014E5B18:
 BYTE   BEND   c_v+0
 BYTE   N12  Gn1  v100
 BYTE   W06
 BYTE   BEND   c_v+10
 BYTE   W06
 BYTE   BEND   c_v+0
 BYTE   W06
 BYTE   BEND   c_v+0
 BYTE   N12
 BYTE   W06
 BYTE   BEND   c_v+10
 BYTE   W06
 BYTE   BEND   c_v+0
 BYTE   W06
 BYTE   BEND   c_v+0
 BYTE   N12
 BYTE   W06
 BYTE   BEND   c_v+10
 BYTE   W06
 BYTE   BEND   c_v+0
 BYTE   N03  An0
 BYTE   W06
 BYTE   N03
 BYTE   W06
 BYTE   N12  Gn1
 BYTE   W06
 BYTE   BEND   c_v+9
 BYTE   W06
 BYTE   BEND   c_v+0
 BYTE   N12  Ds1
 BYTE   W06
 BYTE   BEND   c_v+4
 BYTE   W06
 BYTE   BEND   c_v+0
 BYTE   N12  Bn0
 BYTE   W06
 BYTE   BEND   c_v+4
 BYTE   W06
 BYTE   PEND 
// 004   ----------------------------------------
 BYTE   PATT
  POIN2 Label_0_014E5AF8
// 005   ----------------------------------------
Label_0_014E5B51:
 BYTE   BEND   c_v+0
 BYTE   N12  Gn1  v100
 BYTE   W06
 BYTE   BEND   c_v+10
 BYTE   W06
 BYTE   BEND   c_v+0
 BYTE   W06
 BYTE   BEND   c_v+0
 BYTE   N12
 BYTE   W06
 BYTE   BEND   c_v+10
 BYTE   W06
 BYTE   BEND   c_v+0
 BYTE   W06
 BYTE   BEND   c_v+0
 BYTE   N12
 BYTE   W06
 BYTE   BEND   c_v+10
 BYTE   W06
 BYTE   BEND   c_v+0
 BYTE   N03  An0
 BYTE   W06
 BYTE   N03
 BYTE   W06
 BYTE   N12  Dn1
 BYTE   W06
 BYTE   BEND   c_v+9
 BYTE   W06
 BYTE   BEND   c_v+0
 BYTE   N12  Gn1
 BYTE   W06
 BYTE   BEND   c_v+9
 BYTE   W06
 BYTE   BEND   c_v+0
 BYTE   N12  Dn1
 BYTE   W06
 BYTE   BEND   c_v+9
 BYTE   W06
 BYTE   PEND 
// 006   ----------------------------------------
Label_0_014E5B85:
 BYTE   BEND   c_v+0
 BYTE   N18  Gn0  v100
 BYTE   W18
 BYTE   N06  Dn1
 BYTE   W18
 BYTE   N12  An1
 BYTE   W06
 BYTE   BEND   c_v+5
 BYTE   W06
 BYTE   BEND   c_v+63
 BYTE   N18  Gn0
 BYTE   W06
 BYTE   BEND   c_v+1
 BYTE   W12
 BYTE   N06  Dn1
 BYTE   W18
 BYTE   N12  Cn2
 BYTE   W06
 BYTE   BEND   c_v-10
 BYTE   W06
 BYTE   PEND 
// 007   ----------------------------------------
Label_0_014E5BA5:
 BYTE   BEND   c_v+0
 BYTE   N12  Fn1  v100
 BYTE   W06
 BYTE   BEND   c_v+10
 BYTE   W06
 BYTE   BEND   c_v+0
 BYTE   W06
 BYTE   BEND   c_v+0
 BYTE   N12
 BYTE   W06
 BYTE   BEND   c_v+10
 BYTE   W06
 BYTE   BEND   c_v+0
 BYTE   W06
 BYTE   BEND   c_v+0
 BYTE   N12
 BYTE   W06
 BYTE   BEND   c_v+10
 BYTE   W06
 BYTE   BEND   c_v+0
 BYTE   N03  Gn0
 BYTE   W06
 BYTE   N03
 BYTE   W06
 BYTE   N12  Fn1
 BYTE   W06
 BYTE   BEND   c_v+9
 BYTE   W06
 BYTE   BEND   c_v+0
 BYTE   N12  Cs1
 BYTE   W06
 BYTE   BEND   c_v+4
 BYTE   W06
 BYTE   BEND   c_v+0
 BYTE   N12  An0
 BYTE   W06
 BYTE   BEND   c_v+4
 BYTE   W06
 BYTE   PEND 
// 008   ----------------------------------------
 BYTE   PATT
  POIN2 Label_0_014E5B85
// 009   ----------------------------------------
Label_0_014E5BDE:
 BYTE   BEND   c_v+0
 BYTE   N15  Gn0  v100
 BYTE   W18
 BYTE   N03
 BYTE   W06
 BYTE   N12  Fs1
 BYTE   W06
 BYTE   BEND   c_v+10
 BYTE   W06
 BYTE   BEND   c_v+1
 BYTE   N12  Gn0
 BYTE   W60
 BYTE   PEND 
// 010   ----------------------------------------
Label_0_014E5BF1:
 BYTE   BEND   c_v-5
 BYTE   N12  Fn1  v100
 BYTE   W06
 BYTE   BEND   c_v+0
 BYTE   W12
 BYTE   N03
 BYTE   W18
 BYTE   N06
 BYTE   W12
 BYTE   BEND   c_v-5
 BYTE   N12
 BYTE   W06
 BYTE   BEND   c_v+0
 BYTE   W12
 BYTE   N03
 BYTE   W18
 BYTE   N06
 BYTE   W12
 BYTE   PEND 
// 011   ----------------------------------------
Label_0_014E5C0A:
 BYTE   BEND   c_v-5
 BYTE   N12  Fn1  v100
 BYTE   W06
 BYTE   BEND   c_v+0
 BYTE   W12
 BYTE   N03
 BYTE   W18
 BYTE   N06
 BYTE   W12
 BYTE   BEND   c_v-5
 BYTE   N03
 BYTE   W06
 BYTE   BEND   c_v+0
 BYTE   N09
 BYTE   W12
 BYTE   N03
 BYTE   W18
 BYTE   N06
 BYTE   W12
 BYTE   PEND 
// 012   ----------------------------------------
Label_0_014E5C24:
 BYTE   BEND   c_v-5
 BYTE   N12  En1  v100
 BYTE   W06
 BYTE   BEND   c_v+0
 BYTE   W12
 BYTE   N03
 BYTE   W18
 BYTE   N06
 BYTE   W12
 BYTE   BEND   c_v-5
 BYTE   N12
 BYTE   W06
 BYTE   BEND   c_v+0
 BYTE   W12
 BYTE   N03
 BYTE   W18
 BYTE   N06
 BYTE   W12
 BYTE   PEND 
// 013   ----------------------------------------
Label_0_014E5C3D:
 BYTE   BEND   c_v-5
 BYTE   N12  An1  v100
 BYTE   W06
 BYTE   BEND   c_v+0
 BYTE   W12
 BYTE   N03  An2
 BYTE   W06
 BYTE   N06  An1
 BYTE   W06
 BYTE   N03  An2
 BYTE   W06
 BYTE   BEND   c_v-5
 BYTE   N12  An1
 BYTE   W06
 BYTE   BEND   c_v+0
 BYTE   W06
 BYTE   N12  Gn2
 BYTE   W06
 BYTE   BEND   c_v+9
 BYTE   W06
 BYTE   BEND   c_v+0
 BYTE   N12  Ds2
 BYTE   W06
 BYTE   BEND   c_v+4
 BYTE   W06
 BYTE   BEND   c_v+0
 BYTE   N12  Bn1
 BYTE   W06
 BYTE   BEND   c_v+4
 BYTE   W06
 BYTE   BEND   c_v+0
 BYTE   N12  Gn2
 BYTE   W06
 BYTE   BEND   c_v+9
 BYTE   W06
 BYTE   PEND 
// 014   ----------------------------------------
Label_0_014E5C73:
 BYTE   BEND   c_v-5
 BYTE   N12  Fn1  v100
 BYTE   W06
 BYTE   BEND   c_v+0
 BYTE   W12
 BYTE   N03  Fn2
 BYTE   W06
 BYTE   N06  Fn1
 BYTE   W06
 BYTE   N03  Fn2
 BYTE   W06
 BYTE   BEND   c_v-5
 BYTE   N12  Fn1
 BYTE   W06
 BYTE   BEND   c_v+0
 BYTE   W06
 BYTE   N12  En2
 BYTE   W06
 BYTE   BEND   c_v+4
 BYTE   W06
 BYTE   BEND   c_v+0
 BYTE   N12  Bn1
 BYTE   W06
 BYTE   BEND   c_v+4
 BYTE   W06
 BYTE   BEND   c_v+0
 BYTE   N12  Gn1
 BYTE   W06
 BYTE   BEND   c_v+4
 BYTE   W06
 BYTE   BEND   c_v+0
 BYTE   N12  En2
 BYTE   W06
 BYTE   BEND   c_v+4
 BYTE   W06
 BYTE   PEND 
// 015   ----------------------------------------
Label_0_014E5CA9:
 BYTE   BEND   c_v-5
 BYTE   N12  Fs1  v100
 BYTE   W06
 BYTE   BEND   c_v+0
 BYTE   W12
 BYTE   N03  Fs2
 BYTE   W06
 BYTE   N06  Fs1
 BYTE   W06
 BYTE   N03  Fs2
 BYTE   W06
 BYTE   BEND   c_v-5
 BYTE   N12  Fs1
 BYTE   W06
 BYTE   BEND   c_v+0
 BYTE   W06
 BYTE   N12  En2
 BYTE   W06
 BYTE   BEND   c_v+9
 BYTE   W06
 BYTE   BEND   c_v+0
 BYTE   N12  Bn1
 BYTE   W06
 BYTE   BEND   c_v+4
 BYTE   W06
 BYTE   BEND   c_v+0
 BYTE   N12  Gn1
 BYTE   W06
 BYTE   BEND   c_v+9
 BYTE   W06
 BYTE   BEND   c_v+0
 BYTE   N12  En1
 BYTE   W06
 BYTE   BEND   c_v+9
 BYTE   W06
 BYTE   PEND 
// 016   ----------------------------------------
Label_0_014E5CDF:
 BYTE   BEND   c_v+0
 BYTE   N06  Gn1  v100
 BYTE   W06
 BYTE   N03
 BYTE   W06
 BYTE   N12  Fn2
 BYTE   W06
 BYTE   BEND   c_v+9
 BYTE   W06
 BYTE   BEND   c_v+0
 BYTE   N12  Cs2
 BYTE   W06
 BYTE   BEND   c_v+4
 BYTE   W06
 BYTE   BEND   c_v+0
 BYTE   N12  As1
 BYTE   W06
 BYTE   BEND   c_v+4
 BYTE   W06
 BYTE   BEND   c_v-5
 BYTE   N12  Gn1
 BYTE   W06
 BYTE   BEND   c_v+0
 BYTE   W06
 BYTE   N03
 BYTE   W12
 BYTE   N12  Fn2
 BYTE   W06
 BYTE   BEND   c_v+9
 BYTE   W06
 BYTE   BEND   c_v+0
 BYTE   N03  Gn1
 BYTE   W06
 BYTE   N03
 BYTE   W06
 BYTE   PEND 
// 017   ----------------------------------------
Label_0_014E5D11:
 BYTE   BEND   c_v-5
 BYTE   N12  Gs1  v100
 BYTE   W06
 BYTE   BEND   c_v+0
 BYTE   W06
 BYTE   N12  Fs2
 BYTE   W06
 BYTE   BEND   c_v+9
 BYTE   W06
 BYTE   BEND   c_v+0
 BYTE   N12  Ds2
 BYTE   W06
 BYTE   BEND   c_v+4
 BYTE   W06
 BYTE   BEND   c_v+0
 BYTE   N12  Bn1
 BYTE   W06
 BYTE   BEND   c_v+9
 BYTE   W06
 BYTE   BEND   c_v+0
 BYTE   N12  Fs1
 BYTE   W06
 BYTE   BEND   c_v+9
 BYTE   W06
 BYTE   BEND   c_v+0
 BYTE   W06
 BYTE   N06  En1
 BYTE   W06
 BYTE   N03
 BYTE   W06
 BYTE   N03
 BYTE   W06
 BYTE   N12  Dn2
 BYTE   W06
 BYTE   BEND   c_v+9
 BYTE   W06
 BYTE   PEND 
// 018   ----------------------------------------
 BYTE   PATT
  POIN2 Label_0_014E5AF8
// 019   ----------------------------------------
 BYTE   PATT
  POIN2 Label_0_014E5B18
// 020   ----------------------------------------
 BYTE   PATT
  POIN2 Label_0_014E5AF8
// 021   ----------------------------------------
 BYTE   PATT
  POIN2 Label_0_014E5B51
// 022   ----------------------------------------
 BYTE   PATT
  POIN2 Label_0_014E5B85
// 023   ----------------------------------------
 BYTE   PATT
  POIN2 Label_0_014E5BA5
// 024   ----------------------------------------
 BYTE   PATT
  POIN2 Label_0_014E5B85
// 025   ----------------------------------------
 BYTE   PATT
  POIN2 Label_0_014E5BDE
// 026   ----------------------------------------
 BYTE   PATT
  POIN2 Label_0_014E5BF1
// 027   ----------------------------------------
 BYTE   PATT
  POIN2 Label_0_014E5C0A
// 028   ----------------------------------------
 BYTE   PATT
  POIN2 Label_0_014E5C24
// 029   ----------------------------------------
 BYTE   PATT
  POIN2 Label_0_014E5C3D
// 030   ----------------------------------------
 BYTE   PATT
  POIN2 Label_0_014E5C73
// 031   ----------------------------------------
 BYTE   PATT
  POIN2 Label_0_014E5CA9
// 032   ----------------------------------------
 BYTE   PATT
  POIN2 Label_0_014E5CDF
// 033   ----------------------------------------
 BYTE   GoTo
  POIN2 Label_0_014E5D11
// 034   ----------------------------------------
 BYTE   PATT
  POIN2 Label_0_014E5D11
 BYTE   FINE

//**************** Track 2 (Midi-Chn.1) ****************//

PokemonRSEEncounterChampionMeatOfJustice_002:
// 000   ----------------------------------------
 BYTE   KEYSH   PokemonRSEEncounterChampionMeatOfJustice_key+0
 BYTE   VOICE   110
 BYTE   VOL   64*PokemonRSEEncounterChampionMeatOfJustice_mvl/mxv
 BYTE   PAN   c_v+0
 BYTE   N06  Cn5  v100
 BYTE   W12
 BYTE   An4
 BYTE   W12
 BYTE   N03  Cn4
 BYTE   W06
 BYTE   N06  Cn5
 BYTE   W12
 BYTE   An4
 BYTE   W06
 BYTE   N03  Ds4
 BYTE   W06
 BYTE   N18  Ds5
 BYTE   W18
 BYTE   N06  Dn5
 BYTE   W12
 BYTE   Cn5
 BYTE   W12
// 001   ----------------------------------------
 BYTE   W96
// 002   ----------------------------------------
Label_1_014E54AA:
 BYTE   N03  Cs4  v100
 BYTE   W03
 BYTE   Dn4
 BYTE   W03
 BYTE   Ds4
 BYTE   W03
 BYTE   En4
 BYTE   W03
 BYTE   Fn4
 BYTE   W03
 BYTE   Fs4
 BYTE   W03
 BYTE   Gn4
 BYTE   W03
 BYTE   Gs4
 BYTE   W03
 BYTE   N06  An4
 BYTE   W06
 BYTE   N03  Cn5
 BYTE   W06
 BYTE   N12  Gs4
 BYTE   W12
 BYTE   N18  Ds5
 BYTE   W18
 BYTE   N06  En5
 BYTE   W28
 BYTE   W01
 BYTE   VOICE   38
 BYTE   W01
 BYTE   PEND 
// 003   ----------------------------------------
Label_1_014E54D0:
 BYTE   N06  Gn1  v100
 BYTE   W06
 BYTE   N03  An1
 BYTE   W06
 BYTE   N03
 BYTE   W06
 BYTE   N06  Gn1
 BYTE   W06
 BYTE   N03  An1
 BYTE   W06
 BYTE   N03
 BYTE   W06
 BYTE   N06  Gn1
 BYTE   W06
 BYTE   An1
 BYTE   W06
 BYTE   Dn1
 BYTE   W06
 BYTE   N03  En1
 BYTE   W06
 BYTE   N06  Gn1
 BYTE   W06
 BYTE   N03  Gs1
 BYTE   W06
 BYTE   N06  Bn1
 BYTE   W06
 BYTE   Cn2
 BYTE   W06
 BYTE   Gn1
 BYTE   W06
 BYTE   Gs1
 BYTE   W05
 BYTE   VOICE   110
 BYTE   W01
 BYTE   PEND 
// 004   ----------------------------------------
Label_1_014E54FE:
 BYTE   N03  Cs4  v100
 BYTE   W03
 BYTE   Dn4
 BYTE   W03
 BYTE   Ds4
 BYTE   W03
 BYTE   En4
 BYTE   W03
 BYTE   Fn4
 BYTE   W03
 BYTE   Fs4
 BYTE   W03
 BYTE   Gn4
 BYTE   W03
 BYTE   Gs4
 BYTE   W03
 BYTE   N06  An4
 BYTE   W06
 BYTE   N03  Cn5
 BYTE   W12
 BYTE   N06  Gs4
 BYTE   W06
 BYTE   N18  Ds5
 BYTE   W18
 BYTE   N06  En5
 BYTE   W28
 BYTE   W01
 BYTE   VOICE   38
 BYTE   W01
 BYTE   PEND 
// 005   ----------------------------------------
Label_1_014E5524:
 BYTE   N06  Gn1  v100
 BYTE   W06
 BYTE   N03  An1
 BYTE   W06
 BYTE   N03
 BYTE   W06
 BYTE   N06  Gn1
 BYTE   W06
 BYTE   N03  An1
 BYTE   W06
 BYTE   N03
 BYTE   W06
 BYTE   N06  Gn1
 BYTE   W06
 BYTE   An1
 BYTE   W06
 BYTE   Dn1
 BYTE   W06
 BYTE   N03  En1
 BYTE   W06
 BYTE   N06  Gn1
 BYTE   W06
 BYTE   N03  Gs1
 BYTE   W06
 BYTE   N06  Bn1
 BYTE   W06
 BYTE   Cn2
 BYTE   W06
 BYTE   Gn1
 BYTE   W06
 BYTE   Gs1
 BYTE   W05
 BYTE   VOICE   67
 BYTE   W01
 BYTE   PEND 
// 006   ----------------------------------------
Label_1_014E5552:
 BYTE   N03  Bn3  v100
 BYTE   W03
 BYTE   Cn4
 BYTE   W03
 BYTE   Cs4
 BYTE   W03
 BYTE   Dn4
 BYTE   W03
 BYTE   Ds4
 BYTE   W03
 BYTE   En4
 BYTE   W03
 BYTE   Fn4
 BYTE   W03
 BYTE   Fs4
 BYTE   W03
 BYTE   N06  Gn4
 BYTE   W06
 BYTE   N03  As4
 BYTE   W06
 BYTE   N12  Fs4
 BYTE   W12
 BYTE   N18  Cs5
 BYTE   W18
 BYTE   N06  Dn5
 BYTE   W28
 BYTE   W01
 BYTE   VOICE   38
 BYTE   W01
 BYTE   PEND 
// 007   ----------------------------------------
Label_1_014E5578:
 BYTE   N06  Fn1  v100
 BYTE   W06
 BYTE   N03  Gn1
 BYTE   W06
 BYTE   N03
 BYTE   W06
 BYTE   N06  Fn1
 BYTE   W06
 BYTE   N03  Gn1
 BYTE   W06
 BYTE   N03
 BYTE   W06
 BYTE   N06  Fn1
 BYTE   W06
 BYTE   Gn1
 BYTE   W06
 BYTE   Cn1
 BYTE   W06
 BYTE   N03  Dn1
 BYTE   W06
 BYTE   N06  Fn1
 BYTE   W06
 BYTE   N03  Fs1
 BYTE   W06
 BYTE   N06  An1
 BYTE   W06
 BYTE   As1
 BYTE   W06
 BYTE   Fn1
 BYTE   W06
 BYTE   Fs1
 BYTE   W05
 BYTE   VOICE   67
 BYTE   W01
 BYTE   PEND 
// 008   ----------------------------------------
Label_1_014E55A6:
 BYTE   N03  Bn3  v100
 BYTE   W03
 BYTE   Cn4
 BYTE   W03
 BYTE   Cs4
 BYTE   W03
 BYTE   Dn4
 BYTE   W03
 BYTE   Ds4
 BYTE   W03
 BYTE   En4
 BYTE   W03
 BYTE   Fn4
 BYTE   W03
 BYTE   Fs4
 BYTE   W03
 BYTE   N06  Gn4
 BYTE   W06
 BYTE   N03  As4
 BYTE   W12
 BYTE   N06  Fs4
 BYTE   W06
 BYTE   N18  Cs5
 BYTE   W18
 BYTE   N06  Dn5
 BYTE   W30
 BYTE   PEND 
// 009   ----------------------------------------
Label_1_014E55C8:
 BYTE   W48
 BYTE   N06  Gn5  v100
 BYTE   W06
 BYTE   N03  Dn5
 BYTE   W06
 BYTE   N06  As4
 BYTE   W06
 BYTE   N03  Gn4
 BYTE   W06
 BYTE   N06  Cs5
 BYTE   W06
 BYTE   N03  Dn5
 BYTE   W05
 BYTE   VOICE   24
 BYTE   W01
 BYTE   N06  Bn4
 BYTE   W06
 BYTE   Dn5
 BYTE   W06
 BYTE   PEND 
// 010   ----------------------------------------
Label_1_014E55E5:
 BYTE   N72  En5  v100
 BYTE   W36
 BYTE   VOL   61*PokemonRSEEncounterChampionMeatOfJustice_mvl/mxv
 BYTE   W02
 BYTE   VOL   57*PokemonRSEEncounterChampionMeatOfJustice_mvl/mxv
 BYTE   W03
 BYTE   VOL   54*PokemonRSEEncounterChampionMeatOfJustice_mvl/mxv
 BYTE   W03
 BYTE   VOL   51*PokemonRSEEncounterChampionMeatOfJustice_mvl/mxv
 BYTE   W04
 BYTE   VOL   48*PokemonRSEEncounterChampionMeatOfJustice_mvl/mxv
 BYTE   W02
 BYTE   VOL   45*PokemonRSEEncounterChampionMeatOfJustice_mvl/mxv
 BYTE   W03
 BYTE   VOL   42*PokemonRSEEncounterChampionMeatOfJustice_mvl/mxv
 BYTE   W03
 BYTE   VOL   39*PokemonRSEEncounterChampionMeatOfJustice_mvl/mxv
 BYTE   W04
 BYTE   VOL   35*PokemonRSEEncounterChampionMeatOfJustice_mvl/mxv
 BYTE   W02
 BYTE   VOL   32*PokemonRSEEncounterChampionMeatOfJustice_mvl/mxv
 BYTE   W03
 BYTE   VOL   29*PokemonRSEEncounterChampionMeatOfJustice_mvl/mxv
 BYTE   W03
 BYTE   VOL   26*PokemonRSEEncounterChampionMeatOfJustice_mvl/mxv
 BYTE   W04
 BYTE   VOL   64*PokemonRSEEncounterChampionMeatOfJustice_mvl/mxv
 BYTE   N12
 BYTE   W12
 BYTE   N06  Fn5
 BYTE   W06
 BYTE   En5
 BYTE   W06
 BYTE   PEND 
// 011   ----------------------------------------
Label_1_014E560B:
 BYTE   N12  Gs5  v100
 BYTE   W12
 BYTE   Gn5
 BYTE   W12
 BYTE   N03  Fn5
 BYTE   W03
 BYTE   Gn5
 BYTE   W03
 BYTE   N12  Fn5
 BYTE   W12
 BYTE   N06  En5
 BYTE   W06
 BYTE   VOL   59*PokemonRSEEncounterChampionMeatOfJustice_mvl/mxv
 BYTE   N36  Dn5
 BYTE   W02
 BYTE   VOL   55*PokemonRSEEncounterChampionMeatOfJustice_mvl/mxv
 BYTE   W06
 BYTE   VOL   51*PokemonRSEEncounterChampionMeatOfJustice_mvl/mxv
 BYTE   W04
 BYTE   VOL   47*PokemonRSEEncounterChampionMeatOfJustice_mvl/mxv
 BYTE   W02
 BYTE   VOL   42*PokemonRSEEncounterChampionMeatOfJustice_mvl/mxv
 BYTE   W03
 BYTE   VOL   39*PokemonRSEEncounterChampionMeatOfJustice_mvl/mxv
 BYTE   W03
 BYTE   VOL   32*PokemonRSEEncounterChampionMeatOfJustice_mvl/mxv
 BYTE   W04
 BYTE   VOL   64*PokemonRSEEncounterChampionMeatOfJustice_mvl/mxv
 BYTE   W12
 BYTE   N06  Bn4
 BYTE   W06
 BYTE   Cn5
 BYTE   W06
 BYTE   PEND 
// 012   ----------------------------------------
Label_1_014E5636:
 BYTE   N36  Dn5  v100
 BYTE   W36
 BYTE   N06  En5
 BYTE   W06
 BYTE   Fn5
 BYTE   W06
 BYTE   N36  En5
 BYTE   W36
 BYTE   N06
 BYTE   W06
 BYTE   Fn5
 BYTE   W06
 BYTE   PEND 
// 013   ----------------------------------------
Label_1_014E5647:
 BYTE   N48  En5  v100
 BYTE   W24
 BYTE   VOL   59*PokemonRSEEncounterChampionMeatOfJustice_mvl/mxv
 BYTE   W02
 BYTE   VOL   55*PokemonRSEEncounterChampionMeatOfJustice_mvl/mxv
 BYTE   W03
 BYTE   VOL   51*PokemonRSEEncounterChampionMeatOfJustice_mvl/mxv
 BYTE   W03
 BYTE   VOL   47*PokemonRSEEncounterChampionMeatOfJustice_mvl/mxv
 BYTE   W04
 BYTE   VOL   42*PokemonRSEEncounterChampionMeatOfJustice_mvl/mxv
 BYTE   W02
 BYTE   VOL   39*PokemonRSEEncounterChampionMeatOfJustice_mvl/mxv
 BYTE   W03
 BYTE   VOL   32*PokemonRSEEncounterChampionMeatOfJustice_mvl/mxv
 BYTE   W07
 BYTE   VOL   64*PokemonRSEEncounterChampionMeatOfJustice_mvl/mxv
 BYTE   N03  Cs5
 BYTE   W03
 BYTE   Dn5
 BYTE   W03
 BYTE   N06  Cs5
 BYTE   W06
 BYTE   N12  Bn4
 BYTE   W12
 BYTE   N06  Cs5
 BYTE   W06
 BYTE   N18  En5
 BYTE   W18
 BYTE   PEND 
// 014   ----------------------------------------
Label_1_014E566D:
 BYTE   N18  En5  v100
 BYTE   W18
 BYTE   Fn5
 BYTE   W18
 BYTE   N48  Dn5
 BYTE   W24
 BYTE   VOL   59*PokemonRSEEncounterChampionMeatOfJustice_mvl/mxv
 BYTE   W02
 BYTE   VOL   55*PokemonRSEEncounterChampionMeatOfJustice_mvl/mxv
 BYTE   W03
 BYTE   VOL   51*PokemonRSEEncounterChampionMeatOfJustice_mvl/mxv
 BYTE   W03
 BYTE   VOL   47*PokemonRSEEncounterChampionMeatOfJustice_mvl/mxv
 BYTE   W04
 BYTE   VOL   42*PokemonRSEEncounterChampionMeatOfJustice_mvl/mxv
 BYTE   W02
 BYTE   VOL   39*PokemonRSEEncounterChampionMeatOfJustice_mvl/mxv
 BYTE   W03
 BYTE   VOL   32*PokemonRSEEncounterChampionMeatOfJustice_mvl/mxv
 BYTE   W03
 BYTE   VOL   26*PokemonRSEEncounterChampionMeatOfJustice_mvl/mxv
 BYTE   W04
 BYTE   VOL   64*PokemonRSEEncounterChampionMeatOfJustice_mvl/mxv
 BYTE   N06  An4
 BYTE   W06
 BYTE   N06
 BYTE   W06
 BYTE   PEND 
// 015   ----------------------------------------
Label_1_014E568E:
 BYTE   N18  En5  v100
 BYTE   W18
 BYTE   Fn5
 BYTE   W18
 BYTE   N48  Dn5
 BYTE   W12
 BYTE   VOL   24*PokemonRSEEncounterChampionMeatOfJustice_mvl/mxv
 BYTE   W02
 BYTE   VOL   23*PokemonRSEEncounterChampionMeatOfJustice_mvl/mxv
 BYTE   W03
 BYTE   VOL   20*PokemonRSEEncounterChampionMeatOfJustice_mvl/mxv
 BYTE   W03
 BYTE   VOL   18*PokemonRSEEncounterChampionMeatOfJustice_mvl/mxv
 BYTE   W04
 BYTE   VOL   17*PokemonRSEEncounterChampionMeatOfJustice_mvl/mxv
 BYTE   W02
 BYTE   VOL   15*PokemonRSEEncounterChampionMeatOfJustice_mvl/mxv
 BYTE   W03
 BYTE   VOL   14*PokemonRSEEncounterChampionMeatOfJustice_mvl/mxv
 BYTE   W03
 BYTE   VOL   12*PokemonRSEEncounterChampionMeatOfJustice_mvl/mxv
 BYTE   W04
 BYTE   VOL   8*PokemonRSEEncounterChampionMeatOfJustice_mvl/mxv
 BYTE   W02
 BYTE   VOL   5*PokemonRSEEncounterChampionMeatOfJustice_mvl/mxv
 BYTE   W10
 BYTE   VOL   64*PokemonRSEEncounterChampionMeatOfJustice_mvl/mxv
 BYTE   N06  Cn5
 BYTE   W06
 BYTE   TIE  Gn5
 BYTE   W06
 BYTE   PEND 
// 016   ----------------------------------------
Label_1_014E56B4:
 BYTE   W24
 BYTE   VOL   61*PokemonRSEEncounterChampionMeatOfJustice_mvl/mxv
 BYTE   W02
 BYTE   VOL   57*PokemonRSEEncounterChampionMeatOfJustice_mvl/mxv
 BYTE   W03
 BYTE   VOL   54*PokemonRSEEncounterChampionMeatOfJustice_mvl/mxv
 BYTE   W03
 BYTE   VOL   51*PokemonRSEEncounterChampionMeatOfJustice_mvl/mxv
 BYTE   W04
 BYTE   VOL   48*PokemonRSEEncounterChampionMeatOfJustice_mvl/mxv
 BYTE   W05
 BYTE   VOL   45*PokemonRSEEncounterChampionMeatOfJustice_mvl/mxv
 BYTE   W03
 BYTE   VOL   42*PokemonRSEEncounterChampionMeatOfJustice_mvl/mxv
 BYTE   W06
 BYTE   VOL   39*PokemonRSEEncounterChampionMeatOfJustice_mvl/mxv
 BYTE   W06
 BYTE   VOL   35*PokemonRSEEncounterChampionMeatOfJustice_mvl/mxv
 BYTE   W06
 BYTE   VOL   32*PokemonRSEEncounterChampionMeatOfJustice_mvl/mxv
 BYTE   W03
 BYTE   VOL   29*PokemonRSEEncounterChampionMeatOfJustice_mvl/mxv
 BYTE   W03
 BYTE   VOL   26*PokemonRSEEncounterChampionMeatOfJustice_mvl/mxv
 BYTE   W06
 BYTE   VOL   23*PokemonRSEEncounterChampionMeatOfJustice_mvl/mxv
 BYTE   W03
 BYTE   VOL   22*PokemonRSEEncounterChampionMeatOfJustice_mvl/mxv
 BYTE   W03
 BYTE   VOL   20*PokemonRSEEncounterChampionMeatOfJustice_mvl/mxv
 BYTE   W04
 BYTE   VOL   18*PokemonRSEEncounterChampionMeatOfJustice_mvl/mxv
 BYTE   W02
 BYTE   VOL   17*PokemonRSEEncounterChampionMeatOfJustice_mvl/mxv
 BYTE   W03
 BYTE   VOL   15*PokemonRSEEncounterChampionMeatOfJustice_mvl/mxv
 BYTE   W03
 BYTE   VOL   13*PokemonRSEEncounterChampionMeatOfJustice_mvl/mxv
 BYTE   W04
 BYTE   PEND 
// 017   ----------------------------------------
Label_1_014E56DD:
 BYTE   VOL   13*PokemonRSEEncounterChampionMeatOfJustice_mvl/mxv
 BYTE   W05
 BYTE   VOL   12*PokemonRSEEncounterChampionMeatOfJustice_mvl/mxv
 BYTE   W30
 BYTE   W01
 BYTE   VOL   13*PokemonRSEEncounterChampionMeatOfJustice_mvl/mxv
 BYTE   W02
 BYTE   VOL   17*PokemonRSEEncounterChampionMeatOfJustice_mvl/mxv
 BYTE   W03
 BYTE   VOL   20*PokemonRSEEncounterChampionMeatOfJustice_mvl/mxv
 BYTE   W03
 BYTE   VOL   23*PokemonRSEEncounterChampionMeatOfJustice_mvl/mxv
 BYTE   W04
 BYTE   VOL   26*PokemonRSEEncounterChampionMeatOfJustice_mvl/mxv
 BYTE   W02
 BYTE   VOL   29*PokemonRSEEncounterChampionMeatOfJustice_mvl/mxv
 BYTE   W03
 BYTE   VOL   32*PokemonRSEEncounterChampionMeatOfJustice_mvl/mxv
 BYTE   W03
 BYTE   VOL   39*PokemonRSEEncounterChampionMeatOfJustice_mvl/mxv
 BYTE   W04
 BYTE   VOL   45*PokemonRSEEncounterChampionMeatOfJustice_mvl/mxv
 BYTE   W02
 BYTE   VOL   51*PokemonRSEEncounterChampionMeatOfJustice_mvl/mxv
 BYTE   W03
 BYTE   VOL   57*PokemonRSEEncounterChampionMeatOfJustice_mvl/mxv
 BYTE   W03
 BYTE   VOL   64*PokemonRSEEncounterChampionMeatOfJustice_mvl/mxv
 BYTE   W24
 BYTE   W03
 BYTE   VOICE   110
 BYTE   W01
 BYTE   PEND 
// 018   ----------------------------------------
 BYTE   EOT
 BYTE   Gn5
// 019   ----------------------------------------
 BYTE   PATT
  POIN2 Label_1_014E54AA
// 020   ----------------------------------------
 BYTE   PATT
  POIN2 Label_1_014E54D0
// 021   ----------------------------------------
 BYTE   PATT
  POIN2 Label_1_014E54FE
// 022   ----------------------------------------
 BYTE   PATT
  POIN2 Label_1_014E5524
// 023   ----------------------------------------
 BYTE   PATT
  POIN2 Label_1_014E5552
// 024   ----------------------------------------
 BYTE   PATT
  POIN2 Label_1_014E5578
// 025   ----------------------------------------
 BYTE   PATT
  POIN2 Label_1_014E55A6
// 026   ----------------------------------------
 BYTE   PATT
  POIN2 Label_1_014E55C8
// 027   ----------------------------------------
 BYTE   PATT
  POIN2 Label_1_014E55E5
// 028   ----------------------------------------
 BYTE   PATT
  POIN2 Label_1_014E560B
// 029   ----------------------------------------
 BYTE   PATT
  POIN2 Label_1_014E5636
// 030   ----------------------------------------
 BYTE   PATT
  POIN2 Label_1_014E5647
// 031   ----------------------------------------
 BYTE   PATT
  POIN2 Label_1_014E566D
// 032   ----------------------------------------
 BYTE   PATT
  POIN2 Label_1_014E568E
// 033   ----------------------------------------
 BYTE   PATT
  POIN2 Label_1_014E56B4
// 034   ----------------------------------------
 BYTE   GoTo
  POIN2 Label_1_014E56DD
// 035   ----------------------------------------
 BYTE   PATT
  POIN2 Label_1_014E56DD
// 036   ----------------------------------------
 BYTE   EOT
 BYTE   Gn5
 BYTE   FINE

//**************** Track 3 (Midi-Chn.2) ****************//

PokemonRSEEncounterChampionMeatOfJustice_003:
// 000   ----------------------------------------
 BYTE   KEYSH   PokemonRSEEncounterChampionMeatOfJustice_key+0
 BYTE   VOICE   110
 BYTE   VOL   64*PokemonRSEEncounterChampionMeatOfJustice_mvl/mxv
 BYTE   PAN   c_v+0
 BYTE   N06  Ds4  v100
 BYTE   W12
 BYTE   Cn4
 BYTE   W12
 BYTE   N03  Ds3
 BYTE   W06
 BYTE   N06  Ds4
 BYTE   W12
 BYTE   Cn4
 BYTE   W06
 BYTE   N03  Ds3
 BYTE   W06
 BYTE   N18  Gn4
 BYTE   W18
 BYTE   N06  Fs4
 BYTE   W12
 BYTE   En4
 BYTE   W12
// 001   ----------------------------------------
Label_2_014E3EE5:
 BYTE   W92
 BYTE   W03
 BYTE   VOICE   110
 BYTE   W01
 BYTE   PEND 
// 002   ----------------------------------------
Label_2_014E3EEB:
 BYTE   N03  En3  v100
 BYTE   W03
 BYTE   Fn3
 BYTE   W03
 BYTE   Fs3
 BYTE   W03
 BYTE   Gn3
 BYTE   W03
 BYTE   Gs3
 BYTE   W03
 BYTE   An3
 BYTE   W03
 BYTE   As3
 BYTE   W03
 BYTE   Bn3
 BYTE   W03
 BYTE   N06  Cn4
 BYTE   W06
 BYTE   N03  En4
 BYTE   W06
 BYTE   N12  Bn3
 BYTE   W12
 BYTE   N18  Gs4
 BYTE   W18
 BYTE   N06  An4
 BYTE   W28
 BYTE   W01
 BYTE   VOICE   47
 BYTE   W01
 BYTE   PEND 
// 003   ----------------------------------------
Label_2_014E3F11:
 BYTE   N06  An2  v100
 BYTE   W18
 BYTE   N06
 BYTE   W18
 BYTE   N06
 BYTE   W12
 BYTE   En3
 BYTE   W12
 BYTE   N06
 BYTE   W12
 BYTE   Ds3
 BYTE   W06
 BYTE   En3
 BYTE   W06
 BYTE   Gs2
 BYTE   W11
 BYTE   VOICE   110
 BYTE   W01
 BYTE   PEND 
// 004   ----------------------------------------
Label_2_014E3F27:
 BYTE   N03  Cs2  v100
 BYTE   W03
 BYTE   Fn3
 BYTE   W03
 BYTE   Fs3
 BYTE   W03
 BYTE   Gn3
 BYTE   W03
 BYTE   Gs3
 BYTE   W03
 BYTE   An3
 BYTE   W03
 BYTE   As3
 BYTE   W03
 BYTE   Bn3
 BYTE   W03
 BYTE   N06  Cn4
 BYTE   W06
 BYTE   N03  En4
 BYTE   W12
 BYTE   N06  Bn3
 BYTE   W06
 BYTE   N18  Gs4
 BYTE   W18
 BYTE   N06  An4
 BYTE   W28
 BYTE   W01
 BYTE   VOICE   47
 BYTE   W01
 BYTE   PEND 
// 005   ----------------------------------------
 BYTE   PATT
  POIN2 Label_2_014E3F11
// 006   ----------------------------------------
Label_2_014E3F52:
 BYTE   N03  Dn3  v100
 BYTE   W03
 BYTE   Ds3
 BYTE   W03
 BYTE   En3
 BYTE   W03
 BYTE   Fn3
 BYTE   W03
 BYTE   Fs3
 BYTE   W03
 BYTE   Gn3
 BYTE   W03
 BYTE   Gs3
 BYTE   W03
 BYTE   An3
 BYTE   W02
 BYTE   VOICE   38
 BYTE   W01
 BYTE   N06  As3
 BYTE   W06
 BYTE   N03  Dn4
 BYTE   W06
 BYTE   N12  An3
 BYTE   W12
 BYTE   N18  Fs4
 BYTE   W18
 BYTE   N06  Gn4
 BYTE   W28
 BYTE   W01
 BYTE   VOICE   47
 BYTE   W01
 BYTE   PEND 
// 007   ----------------------------------------
Label_2_014E3F7B:
 BYTE   N06  Gn2  v100
 BYTE   W18
 BYTE   N06
 BYTE   W18
 BYTE   N06
 BYTE   W12
 BYTE   Dn3
 BYTE   W12
 BYTE   N06
 BYTE   W12
 BYTE   Cs3
 BYTE   W06
 BYTE   Dn3
 BYTE   W06
 BYTE   Fs2
 BYTE   W11
 BYTE   VOICE   110
 BYTE   W01
 BYTE   PEND 
// 008   ----------------------------------------
Label_2_014E3F91:
 BYTE   N03  Bn1  v100
 BYTE   W03
 BYTE   Ds3
 BYTE   W03
 BYTE   En3
 BYTE   W03
 BYTE   Fn3
 BYTE   W03
 BYTE   Fs3
 BYTE   W03
 BYTE   Gn3
 BYTE   W03
 BYTE   Gs3
 BYTE   W03
 BYTE   An3
 BYTE   W02
 BYTE   VOICE   38
 BYTE   W01
 BYTE   N06  As3
 BYTE   W06
 BYTE   N03  Dn4
 BYTE   W12
 BYTE   N06  An3
 BYTE   W06
 BYTE   N18  Fs4
 BYTE   W18
 BYTE   N06  Gn4
 BYTE   W28
 BYTE   W01
 BYTE   VOICE   67
 BYTE   W01
 BYTE   PEND 
// 009   ----------------------------------------
Label_2_014E3FBA:
 BYTE   W48
 BYTE   N06  As4  v100
 BYTE   W06
 BYTE   N03  Gn4
 BYTE   W06
 BYTE   N06  Dn4
 BYTE   W06
 BYTE   N03  As3
 BYTE   W06
 BYTE   N06  Fs4
 BYTE   W06
 BYTE   N03  Gn4
 BYTE   W06
 BYTE   N06  As3
 BYTE   W06
 BYTE   Gn4
 BYTE   W06
 BYTE   PEND 
// 010   ----------------------------------------
 BYTE   W96
// 011   ----------------------------------------
 BYTE   W96
// 012   ----------------------------------------
 BYTE   W96
// 013   ----------------------------------------
 BYTE   W96
// 014   ----------------------------------------
 BYTE   W96
// 015   ----------------------------------------
 BYTE   W96
// 016   ----------------------------------------
 BYTE   W96
// 017   ----------------------------------------
Label_2_014E3FDB:
// 018   ----------------------------------------
 BYTE   PATT
  POIN2 Label_2_014E3EE5
// 019   ----------------------------------------
 BYTE   PATT
  POIN2 Label_2_014E3EEB
// 020   ----------------------------------------
 BYTE   PATT
  POIN2 Label_2_014E3F11
// 021   ----------------------------------------
 BYTE   PATT
  POIN2 Label_2_014E3F27
// 022   ----------------------------------------
 BYTE   PATT
  POIN2 Label_2_014E3F11
// 023   ----------------------------------------
 BYTE   PATT
  POIN2 Label_2_014E3F52
// 024   ----------------------------------------
 BYTE   PATT
  POIN2 Label_2_014E3F7B
// 025   ----------------------------------------
 BYTE   PATT
  POIN2 Label_2_014E3F91
// 026   ----------------------------------------
 BYTE   PATT
  POIN2 Label_2_014E3FBA
// 027   ----------------------------------------
 BYTE   W96
// 028   ----------------------------------------
 BYTE   W96
// 029   ----------------------------------------
 BYTE   W96
// 030   ----------------------------------------
 BYTE   W96
// 031   ----------------------------------------
 BYTE   W96
// 032   ----------------------------------------
 BYTE   W96
// 033   ----------------------------------------
 BYTE   W96
// 034   ----------------------------------------
 BYTE   GoTo
  POIN2 Label_2_014E3FDB
// 035   ----------------------------------------
 BYTE   PATT
  POIN2 Label_2_014E3EE5
 BYTE   FINE

//**************** Track 4 (Midi-Chn.3) ****************//

PokemonRSEEncounterChampionMeatOfJustice_004:
// 000   ----------------------------------------
 BYTE   KEYSH   PokemonRSEEncounterChampionMeatOfJustice_key+0
 BYTE   VOICE   73
 BYTE   VOL   56*PokemonRSEEncounterChampionMeatOfJustice_mvl/mxv
 BYTE   PAN   c_v+0
 BYTE   W96
// 001   ----------------------------------------
Label_3_014E4331:
 BYTE   N06  En5  v100
 BYTE   W06
 BYTE   Dn5
 BYTE   W06
 BYTE   Bn4
 BYTE   W06
 BYTE   Gs4
 BYTE   W06
 BYTE   En4
 BYTE   W06
 BYTE   Ds4
 BYTE   W06
 BYTE   En4
 BYTE   W06
 BYTE   Fs4
 BYTE   W06
 BYTE   Gs4
 BYTE   W06
 BYTE   Fs4
 BYTE   W06
 BYTE   Gs4
 BYTE   W06
 BYTE   An4
 BYTE   W06
 BYTE   Bn4
 BYTE   W06
 BYTE   An4
 BYTE   W06
 BYTE   Bn4
 BYTE   W06
 BYTE   Dn5
 BYTE   W06
 BYTE   PEND 
// 002   ----------------------------------------
 BYTE   W96
// 003   ----------------------------------------
 BYTE   W96
// 004   ----------------------------------------
 BYTE   W96
// 005   ----------------------------------------
 BYTE   W96
// 006   ----------------------------------------
 BYTE   W96
// 007   ----------------------------------------
 BYTE   W96
// 008   ----------------------------------------
 BYTE   W96
// 009   ----------------------------------------
Label_3_014E435B:
 BYTE   VOL   8*PokemonRSEEncounterChampionMeatOfJustice_mvl/mxv
 BYTE   N44  Dn3  v100
 BYTE   W24
 BYTE   VOL   9*PokemonRSEEncounterChampionMeatOfJustice_mvl/mxv
 BYTE   W02
 BYTE   VOL   10*PokemonRSEEncounterChampionMeatOfJustice_mvl/mxv
 BYTE   W03
 BYTE   VOL   12*PokemonRSEEncounterChampionMeatOfJustice_mvl/mxv
 BYTE   W03
 BYTE   VOL   13*PokemonRSEEncounterChampionMeatOfJustice_mvl/mxv
 BYTE   W04
 BYTE   VOL   14*PokemonRSEEncounterChampionMeatOfJustice_mvl/mxv
 BYTE   W02
 BYTE   VOL   15*PokemonRSEEncounterChampionMeatOfJustice_mvl/mxv
 BYTE   W03
 BYTE   VOL   19*PokemonRSEEncounterChampionMeatOfJustice_mvl/mxv
 BYTE   W07
 BYTE   VOL   22*PokemonRSEEncounterChampionMeatOfJustice_mvl/mxv
 BYTE   N06  En3
 BYTE   W02
 BYTE   VOL   25*PokemonRSEEncounterChampionMeatOfJustice_mvl/mxv
 BYTE   W03
 BYTE   VOL   28*PokemonRSEEncounterChampionMeatOfJustice_mvl/mxv
 BYTE   W01
 BYTE   N06  Fn3
 BYTE   W02
 BYTE   VOL   31*PokemonRSEEncounterChampionMeatOfJustice_mvl/mxv
 BYTE   W04
 BYTE   VOL   34*PokemonRSEEncounterChampionMeatOfJustice_mvl/mxv
 BYTE   N06  Gn3
 BYTE   W03
 BYTE   VOL   37*PokemonRSEEncounterChampionMeatOfJustice_mvl/mxv
 BYTE   W02
 BYTE   VOL   41*PokemonRSEEncounterChampionMeatOfJustice_mvl/mxv
 BYTE   W01
 BYTE   N06  An3
 BYTE   W02
 BYTE   VOL   44*PokemonRSEEncounterChampionMeatOfJustice_mvl/mxv
 BYTE   W04
 BYTE   VOL   47*PokemonRSEEncounterChampionMeatOfJustice_mvl/mxv
 BYTE   N06  As3
 BYTE   W02
 BYTE   VOL   50*PokemonRSEEncounterChampionMeatOfJustice_mvl/mxv
 BYTE   W03
 BYTE   VOL   56*PokemonRSEEncounterChampionMeatOfJustice_mvl/mxv
 BYTE   W01
 BYTE   N06  Cn4
 BYTE   W02
 BYTE   VOL   33*PokemonRSEEncounterChampionMeatOfJustice_mvl/mxv
 BYTE   W04
 BYTE   VOL   63*PokemonRSEEncounterChampionMeatOfJustice_mvl/mxv
 BYTE   N06  Dn4
 BYTE   W02
 BYTE   VOL   69*PokemonRSEEncounterChampionMeatOfJustice_mvl/mxv
 BYTE   W04
 BYTE   N06  Cs4
 BYTE   W06
 BYTE   PEND 
// 010   ----------------------------------------
Label_3_014E43A8:
 BYTE   VOL   56*PokemonRSEEncounterChampionMeatOfJustice_mvl/mxv
 BYTE   N80  Cn4  v100
 BYTE   W48
 BYTE   VOL   53*PokemonRSEEncounterChampionMeatOfJustice_mvl/mxv
 BYTE   W02
 BYTE   VOL   50*PokemonRSEEncounterChampionMeatOfJustice_mvl/mxv
 BYTE   W03
 BYTE   VOL   47*PokemonRSEEncounterChampionMeatOfJustice_mvl/mxv
 BYTE   W03
 BYTE   VOL   44*PokemonRSEEncounterChampionMeatOfJustice_mvl/mxv
 BYTE   W04
 BYTE   VOL   41*PokemonRSEEncounterChampionMeatOfJustice_mvl/mxv
 BYTE   W02
 BYTE   VOL   37*PokemonRSEEncounterChampionMeatOfJustice_mvl/mxv
 BYTE   W03
 BYTE   VOL   34*PokemonRSEEncounterChampionMeatOfJustice_mvl/mxv
 BYTE   W03
 BYTE   VOL   31*PokemonRSEEncounterChampionMeatOfJustice_mvl/mxv
 BYTE   W04
 BYTE   VOL   28*PokemonRSEEncounterChampionMeatOfJustice_mvl/mxv
 BYTE   W02
 BYTE   VOL   25*PokemonRSEEncounterChampionMeatOfJustice_mvl/mxv
 BYTE   W01
 BYTE   VOL   22*PokemonRSEEncounterChampionMeatOfJustice_mvl/mxv
 BYTE   W06
 BYTE   VOL   19*PokemonRSEEncounterChampionMeatOfJustice_mvl/mxv
 BYTE   W03
 BYTE   VOL   56*PokemonRSEEncounterChampionMeatOfJustice_mvl/mxv
 BYTE   N06  Cs4
 BYTE   W06
 BYTE   Cn4
 BYTE   W06
 BYTE   PEND 
// 011   ----------------------------------------
Label_3_014E43CE:
 BYTE   N92  Bn3  v100
 BYTE   W48
 BYTE   VOL   53*PokemonRSEEncounterChampionMeatOfJustice_mvl/mxv
 BYTE   W05
 BYTE   VOL   50*PokemonRSEEncounterChampionMeatOfJustice_mvl/mxv
 BYTE   W03
 BYTE   VOL   47*PokemonRSEEncounterChampionMeatOfJustice_mvl/mxv
 BYTE   W04
 BYTE   VOL   44*PokemonRSEEncounterChampionMeatOfJustice_mvl/mxv
 BYTE   W02
 BYTE   VOL   41*PokemonRSEEncounterChampionMeatOfJustice_mvl/mxv
 BYTE   W03
 BYTE   VOL   37*PokemonRSEEncounterChampionMeatOfJustice_mvl/mxv
 BYTE   W03
 BYTE   VOL   34*PokemonRSEEncounterChampionMeatOfJustice_mvl/mxv
 BYTE   W04
 BYTE   VOL   31*PokemonRSEEncounterChampionMeatOfJustice_mvl/mxv
 BYTE   W02
 BYTE   VOL   28*PokemonRSEEncounterChampionMeatOfJustice_mvl/mxv
 BYTE   W03
 BYTE   VOL   25*PokemonRSEEncounterChampionMeatOfJustice_mvl/mxv
 BYTE   W03
 BYTE   VOL   22*PokemonRSEEncounterChampionMeatOfJustice_mvl/mxv
 BYTE   W04
 BYTE   VOL   19*PokemonRSEEncounterChampionMeatOfJustice_mvl/mxv
 BYTE   W02
 BYTE   VOL   15*PokemonRSEEncounterChampionMeatOfJustice_mvl/mxv
 BYTE   W03
 BYTE   VOL   12*PokemonRSEEncounterChampionMeatOfJustice_mvl/mxv
 BYTE   W07
 BYTE   PEND 
// 012   ----------------------------------------
Label_3_014E43F0:
 BYTE   VOL   56*PokemonRSEEncounterChampionMeatOfJustice_mvl/mxv
 BYTE   N44  Bn3  v100
 BYTE   W24
 BYTE   VOL   53*PokemonRSEEncounterChampionMeatOfJustice_mvl/mxv
 BYTE   W02
 BYTE   VOL   50*PokemonRSEEncounterChampionMeatOfJustice_mvl/mxv
 BYTE   W03
 BYTE   VOL   47*PokemonRSEEncounterChampionMeatOfJustice_mvl/mxv
 BYTE   W01
 BYTE   VOL   44*PokemonRSEEncounterChampionMeatOfJustice_mvl/mxv
 BYTE   W02
 BYTE   VOL   41*PokemonRSEEncounterChampionMeatOfJustice_mvl/mxv
 BYTE   W04
 BYTE   VOL   37*PokemonRSEEncounterChampionMeatOfJustice_mvl/mxv
 BYTE   W02
 BYTE   VOL   34*PokemonRSEEncounterChampionMeatOfJustice_mvl/mxv
 BYTE   W03
 BYTE   VOL   31*PokemonRSEEncounterChampionMeatOfJustice_mvl/mxv
 BYTE   W07
 BYTE   VOL   56*PokemonRSEEncounterChampionMeatOfJustice_mvl/mxv
 BYTE   N44  As3
 BYTE   W24
 BYTE   VOL   53*PokemonRSEEncounterChampionMeatOfJustice_mvl/mxv
 BYTE   W02
 BYTE   VOL   50*PokemonRSEEncounterChampionMeatOfJustice_mvl/mxv
 BYTE   W03
 BYTE   VOL   47*PokemonRSEEncounterChampionMeatOfJustice_mvl/mxv
 BYTE   W03
 BYTE   VOL   44*PokemonRSEEncounterChampionMeatOfJustice_mvl/mxv
 BYTE   W04
 BYTE   VOL   41*PokemonRSEEncounterChampionMeatOfJustice_mvl/mxv
 BYTE   W02
 BYTE   VOL   37*PokemonRSEEncounterChampionMeatOfJustice_mvl/mxv
 BYTE   W03
 BYTE   VOL   34*PokemonRSEEncounterChampionMeatOfJustice_mvl/mxv
 BYTE   W07
 BYTE   PEND 
// 013   ----------------------------------------
Label_3_014E441B:
 BYTE   VOL   56*PokemonRSEEncounterChampionMeatOfJustice_mvl/mxv
 BYTE   N24  An4  v100
 BYTE   W24
 BYTE   Gn4
 BYTE   W24
 BYTE   N12  Fn4
 BYTE   W12
 BYTE   N06  Gn4
 BYTE   W06
 BYTE   Fn4
 BYTE   W06
 BYTE   N03  En4
 BYTE   W03
 BYTE   Fn4
 BYTE   W03
 BYTE   N06  En4
 BYTE   W06
 BYTE   Gn4
 BYTE   W06
 BYTE   An4
 BYTE   W06
 BYTE   PEND 
// 014   ----------------------------------------
Label_3_014E4438:
 BYTE   N18  Bn4  v100
 BYTE   W18
 BYTE   N06  Cn5
 BYTE   W21
 BYTE   N42  An4
 BYTE   W21
 BYTE   VOL   53*PokemonRSEEncounterChampionMeatOfJustice_mvl/mxv
 BYTE   W02
 BYTE   VOL   50*PokemonRSEEncounterChampionMeatOfJustice_mvl/mxv
 BYTE   W03
 BYTE   VOL   47*PokemonRSEEncounterChampionMeatOfJustice_mvl/mxv
 BYTE   W03
 BYTE   VOL   44*PokemonRSEEncounterChampionMeatOfJustice_mvl/mxv
 BYTE   W04
 BYTE   VOL   41*PokemonRSEEncounterChampionMeatOfJustice_mvl/mxv
 BYTE   W02
 BYTE   VOL   37*PokemonRSEEncounterChampionMeatOfJustice_mvl/mxv
 BYTE   W03
 BYTE   VOL   34*PokemonRSEEncounterChampionMeatOfJustice_mvl/mxv
 BYTE   W03
 BYTE   VOL   31*PokemonRSEEncounterChampionMeatOfJustice_mvl/mxv
 BYTE   W04
 BYTE   VOL   56*PokemonRSEEncounterChampionMeatOfJustice_mvl/mxv
 BYTE   N03  Fn4
 BYTE   W06
 BYTE   N03
 BYTE   W06
 BYTE   PEND 
// 015   ----------------------------------------
Label_3_014E445A:
 BYTE   N18  Bn4  v100
 BYTE   W18
 BYTE   N06  Cn5
 BYTE   W18
 BYTE   N44  An4
 BYTE   W24
 BYTE   VOL   53*PokemonRSEEncounterChampionMeatOfJustice_mvl/mxv
 BYTE   W02
 BYTE   VOL   50*PokemonRSEEncounterChampionMeatOfJustice_mvl/mxv
 BYTE   W03
 BYTE   VOL   47*PokemonRSEEncounterChampionMeatOfJustice_mvl/mxv
 BYTE   W03
 BYTE   VOL   44*PokemonRSEEncounterChampionMeatOfJustice_mvl/mxv
 BYTE   W04
 BYTE   VOL   41*PokemonRSEEncounterChampionMeatOfJustice_mvl/mxv
 BYTE   W02
 BYTE   VOL   37*PokemonRSEEncounterChampionMeatOfJustice_mvl/mxv
 BYTE   W03
 BYTE   VOL   34*PokemonRSEEncounterChampionMeatOfJustice_mvl/mxv
 BYTE   W03
 BYTE   VOL   31*PokemonRSEEncounterChampionMeatOfJustice_mvl/mxv
 BYTE   W04
 BYTE   VOL   56*PokemonRSEEncounterChampionMeatOfJustice_mvl/mxv
 BYTE   N06  Fs4
 BYTE   W06
 BYTE   N42  Gn4
 BYTE   W06
 BYTE   PEND 
// 016   ----------------------------------------
Label_3_014E447D:
 BYTE   W12
 BYTE   VOL   53*PokemonRSEEncounterChampionMeatOfJustice_mvl/mxv
 BYTE   W02
 BYTE   VOL   50*PokemonRSEEncounterChampionMeatOfJustice_mvl/mxv
 BYTE   W03
 BYTE   VOL   47*PokemonRSEEncounterChampionMeatOfJustice_mvl/mxv
 BYTE   W03
 BYTE   VOL   44*PokemonRSEEncounterChampionMeatOfJustice_mvl/mxv
 BYTE   W04
 BYTE   VOL   41*PokemonRSEEncounterChampionMeatOfJustice_mvl/mxv
 BYTE   W02
 BYTE   VOL   37*PokemonRSEEncounterChampionMeatOfJustice_mvl/mxv
 BYTE   W03
 BYTE   VOL   34*PokemonRSEEncounterChampionMeatOfJustice_mvl/mxv
 BYTE   W03
 BYTE   VOL   31*PokemonRSEEncounterChampionMeatOfJustice_mvl/mxv
 BYTE   W04
 BYTE   VOL   56*PokemonRSEEncounterChampionMeatOfJustice_mvl/mxv
 BYTE   N06  Fs4  v100
 BYTE   W06
 BYTE   Gn4
 BYTE   W06
 BYTE   N32  Bn4
 BYTE   W15
 BYTE   VOL   53*PokemonRSEEncounterChampionMeatOfJustice_mvl/mxv
 BYTE   W02
 BYTE   VOL   50*PokemonRSEEncounterChampionMeatOfJustice_mvl/mxv
 BYTE   W03
 BYTE   VOL   47*PokemonRSEEncounterChampionMeatOfJustice_mvl/mxv
 BYTE   W04
 BYTE   VOL   44*PokemonRSEEncounterChampionMeatOfJustice_mvl/mxv
 BYTE   W02
 BYTE   VOL   41*PokemonRSEEncounterChampionMeatOfJustice_mvl/mxv
 BYTE   W03
 BYTE   VOL   37*PokemonRSEEncounterChampionMeatOfJustice_mvl/mxv
 BYTE   W03
 BYTE   VOL   34*PokemonRSEEncounterChampionMeatOfJustice_mvl/mxv
 BYTE   W04
 BYTE   VOL   56*PokemonRSEEncounterChampionMeatOfJustice_mvl/mxv
 BYTE   N06  Gs4
 BYTE   W06
 BYTE   Bn4
 BYTE   W06
 BYTE   PEND 
// 017   ----------------------------------------
Label_3_014E44AF:
// 018   ----------------------------------------
 BYTE   PATT
  POIN2 Label_3_014E4331
// 019   ----------------------------------------
 BYTE   W96
// 020   ----------------------------------------
 BYTE   W96
// 021   ----------------------------------------
 BYTE   W96
// 022   ----------------------------------------
 BYTE   W96
// 023   ----------------------------------------
 BYTE   W96
// 024   ----------------------------------------
 BYTE   W96
// 025   ----------------------------------------
 BYTE   W96
// 026   ----------------------------------------
 BYTE   PATT
  POIN2 Label_3_014E435B
// 027   ----------------------------------------
 BYTE   PATT
  POIN2 Label_3_014E43A8
// 028   ----------------------------------------
 BYTE   PATT
  POIN2 Label_3_014E43CE
// 029   ----------------------------------------
 BYTE   PATT
  POIN2 Label_3_014E43F0
// 030   ----------------------------------------
 BYTE   PATT
  POIN2 Label_3_014E441B
// 031   ----------------------------------------
 BYTE   PATT
  POIN2 Label_3_014E4438
// 032   ----------------------------------------
 BYTE   PATT
  POIN2 Label_3_014E445A
// 033   ----------------------------------------
 BYTE   PATT
  POIN2 Label_3_014E447D
// 034   ----------------------------------------
 BYTE   GoTo
  POIN2 Label_3_014E44AF
// 035   ----------------------------------------
 BYTE   PATT
  POIN2 Label_3_014E4331
 BYTE   FINE

//**************** Track 5 (Midi-Chn.4) ****************//

PokemonRSEEncounterChampionMeatOfJustice_005:
// 000   ----------------------------------------
 BYTE   KEYSH   PokemonRSEEncounterChampionMeatOfJustice_key+0
 BYTE   VOICE   52
 BYTE   VOL   56*PokemonRSEEncounterChampionMeatOfJustice_mvl/mxv
 BYTE   PAN   c_v+0
 BYTE   W96
// 001   ----------------------------------------
 BYTE   VOL   34*PokemonRSEEncounterChampionMeatOfJustice_mvl/mxv
 BYTE   N92  Dn3  v100
 BYTE   W08
 BYTE   VOL   37*PokemonRSEEncounterChampionMeatOfJustice_mvl/mxv
 BYTE   W12
 BYTE   VOL   40*PokemonRSEEncounterChampionMeatOfJustice_mvl/mxv
 BYTE   W12
 BYTE   VOL   43*PokemonRSEEncounterChampionMeatOfJustice_mvl/mxv
 BYTE   W21
 BYTE   VOL   46*PokemonRSEEncounterChampionMeatOfJustice_mvl/mxv
 BYTE   W03
 BYTE   VOL   50*PokemonRSEEncounterChampionMeatOfJustice_mvl/mxv
 BYTE   W06
 BYTE   VOL   53*PokemonRSEEncounterChampionMeatOfJustice_mvl/mxv
 BYTE   W03
 BYTE   VOL   56*PokemonRSEEncounterChampionMeatOfJustice_mvl/mxv
 BYTE   W03
 BYTE   VOL   59*PokemonRSEEncounterChampionMeatOfJustice_mvl/mxv
 BYTE   W04
 BYTE   VOL   62*PokemonRSEEncounterChampionMeatOfJustice_mvl/mxv
 BYTE   W02
 BYTE   VOL   65*PokemonRSEEncounterChampionMeatOfJustice_mvl/mxv
 BYTE   W03
 BYTE   VOL   68*PokemonRSEEncounterChampionMeatOfJustice_mvl/mxv
 BYTE   W03
 BYTE   VOL   72*PokemonRSEEncounterChampionMeatOfJustice_mvl/mxv
 BYTE   W15
 BYTE   VOICE   30
 BYTE   W01
// 002   ----------------------------------------
 BYTE   VOL   56*PokemonRSEEncounterChampionMeatOfJustice_mvl/mxv
 BYTE   N06  Gn2
 BYTE   W06
 BYTE   N03  An2
 BYTE   W12
 BYTE   N03
 BYTE   W06
 BYTE   N06
 BYTE   W06
 BYTE   N03
 BYTE   W06
 BYTE   Gs2
 BYTE   W06
 BYTE   An2
 BYTE   W06
 BYTE   N06  Gs2
 BYTE   W06
 BYTE   N03  An2
 BYTE   W06
 BYTE   N03
 BYTE   W06
 BYTE   N06  Gs2
 BYTE   W06
 BYTE   N03  An2
 BYTE   W06
 BYTE   N03
 BYTE   W06
 BYTE   N06
 BYTE   W06
 BYTE   Gs2
 BYTE   W06
// 003   ----------------------------------------
Label_4_014E4BC5:
 BYTE   N06  Bn1  v100
 BYTE   W06
 BYTE   N03  Cn2
 BYTE   W06
 BYTE   N03
 BYTE   W06
 BYTE   N06  Bn1
 BYTE   W06
 BYTE   N03  Cn2
 BYTE   W06
 BYTE   N03
 BYTE   W06
 BYTE   N06  Bn1
 BYTE   W06
 BYTE   Cn2
 BYTE   W06
 BYTE   Gn1
 BYTE   W06
 BYTE   N03  An1
 BYTE   W06
 BYTE   N06  Bn1
 BYTE   W06
 BYTE   N03  Cn2
 BYTE   W06
 BYTE   N06  Ds2
 BYTE   W06
 BYTE   En2
 BYTE   W06
 BYTE   Bn1
 BYTE   W06
 BYTE   Cn2
 BYTE   W06
 BYTE   PEND 
// 004   ----------------------------------------
Label_4_014E4BF0:
 BYTE   N06  Gn2  v100
 BYTE   W06
 BYTE   N03  An2
 BYTE   W12
 BYTE   N03
 BYTE   W06
 BYTE   N06
 BYTE   W06
 BYTE   N03
 BYTE   W06
 BYTE   Gn2
 BYTE   W06
 BYTE   An2
 BYTE   W06
 BYTE   Cs3
 BYTE   W03
 BYTE   Ds3
 BYTE   W03
 BYTE   En3
 BYTE   W03
 BYTE   Fn3
 BYTE   W03
 BYTE   Gn3
 BYTE   W03
 BYTE   Gs3
 BYTE   W03
 BYTE   As3
 BYTE   W03
 BYTE   Bn3
 BYTE   W03
 BYTE   N24  Cn4
 BYTE   W24
 BYTE   PEND 
// 005   ----------------------------------------
 BYTE   W96
// 006   ----------------------------------------
Label_4_014E4C16:
 BYTE   N06  Fn2  v100
 BYTE   W06
 BYTE   N03  Gn2
 BYTE   W12
 BYTE   N03
 BYTE   W06
 BYTE   N06
 BYTE   W06
 BYTE   N03
 BYTE   W06
 BYTE   Fs2
 BYTE   W06
 BYTE   Gn2
 BYTE   W06
 BYTE   N06  Fs2
 BYTE   W06
 BYTE   N03  Gn2
 BYTE   W06
 BYTE   N03
 BYTE   W06
 BYTE   N06  Fs2
 BYTE   W06
 BYTE   N03  Gn2
 BYTE   W06
 BYTE   N03
 BYTE   W06
 BYTE   N06
 BYTE   W06
 BYTE   Fs2
 BYTE   W06
 BYTE   PEND 
// 007   ----------------------------------------
Label_4_014E4C3C:
 BYTE   N06  An1  v100
 BYTE   W06
 BYTE   N03  As1
 BYTE   W06
 BYTE   N03
 BYTE   W06
 BYTE   N06  An1
 BYTE   W06
 BYTE   N03  As1
 BYTE   W06
 BYTE   N03
 BYTE   W06
 BYTE   N06  An1
 BYTE   W06
 BYTE   As1
 BYTE   W06
 BYTE   Fn1
 BYTE   W06
 BYTE   N03  Gn1
 BYTE   W06
 BYTE   N06  An1
 BYTE   W06
 BYTE   N03  As1
 BYTE   W06
 BYTE   N06  Cs2
 BYTE   W06
 BYTE   Dn2
 BYTE   W06
 BYTE   An1
 BYTE   W06
 BYTE   As1
 BYTE   W06
 BYTE   PEND 
// 008   ----------------------------------------
Label_4_014E4C67:
 BYTE   N06  Fn2  v100
 BYTE   W06
 BYTE   N03  Gn2
 BYTE   W12
 BYTE   N03
 BYTE   W06
 BYTE   N06
 BYTE   W06
 BYTE   N03
 BYTE   W06
 BYTE   Fn2
 BYTE   W06
 BYTE   Gn2
 BYTE   W06
 BYTE   Bn2
 BYTE   W03
 BYTE   Cs3
 BYTE   W03
 BYTE   Dn3
 BYTE   W03
 BYTE   Ds3
 BYTE   W03
 BYTE   Fn3
 BYTE   W03
 BYTE   Fs3
 BYTE   W03
 BYTE   Gs3
 BYTE   W03
 BYTE   An3
 BYTE   W03
 BYTE   TIE  As3
 BYTE   W24
 BYTE   PEND 
// 009   ----------------------------------------
Label_4_014E4C8C:
 BYTE   W48
 BYTE   VOL   50*PokemonRSEEncounterChampionMeatOfJustice_mvl/mxv
 BYTE   W02
 BYTE   VOL   53*PokemonRSEEncounterChampionMeatOfJustice_mvl/mxv
 BYTE   W03
 BYTE   VOL   56*PokemonRSEEncounterChampionMeatOfJustice_mvl/mxv
 BYTE   W03
 BYTE   VOL   62*PokemonRSEEncounterChampionMeatOfJustice_mvl/mxv
 BYTE   W04
 BYTE   VOL   68*PokemonRSEEncounterChampionMeatOfJustice_mvl/mxv
 BYTE   W02
 BYTE   VOL   75*PokemonRSEEncounterChampionMeatOfJustice_mvl/mxv
 BYTE   W03
 BYTE   VOL   81*PokemonRSEEncounterChampionMeatOfJustice_mvl/mxv
 BYTE   W03
 BYTE   VOL   86*PokemonRSEEncounterChampionMeatOfJustice_mvl/mxv
 BYTE   W16
 BYTE   PEND 
 BYTE   EOT
 BYTE   As3
 BYTE   VOL   56*PokemonRSEEncounterChampionMeatOfJustice_mvl/mxv
 BYTE   N06  Gn4  v100
 BYTE   W06
 BYTE   Fn4
 BYTE   W05
 BYTE   VOICE   52
 BYTE   W01
// 010   ----------------------------------------
Label_4_014E4CAC:
 BYTE   N80  En4  v100
 BYTE   W84
 BYTE   N06  Fn4
 BYTE   W06
 BYTE   En4
 BYTE   W06
 BYTE   PEND 
// 011   ----------------------------------------
Label_4_014E4CB6:
 BYTE   N80  Dn4  v100
 BYTE   W84
 BYTE   N06  Bn3
 BYTE   W06
 BYTE   Cn4
 BYTE   W06
 BYTE   PEND 
// 012   ----------------------------------------
Label_4_014E4CC0:
 BYTE   N32  Dn4  v100
 BYTE   W42
 BYTE   N06  Cn4
 BYTE   W06
 BYTE   N44  Dn4
 BYTE   W48
 BYTE   PEND 
// 013   ----------------------------------------
Label_4_014E4CCB:
 BYTE   N80  Cs4  v100
 BYTE   W84
 BYTE   N06  Cn4
 BYTE   W06
 BYTE   Cs4
 BYTE   W06
 BYTE   PEND 
// 014   ----------------------------------------
Label_4_014E4CD5:
 BYTE   N30  Cn4  v100
 BYTE   W30
 BYTE   N06  Bn3
 BYTE   W06
 BYTE   Cn4
 BYTE   W06
 BYTE   Dn4
 BYTE   W06
 BYTE   N32  En4
 BYTE   W36
 BYTE   N06  Ds4
 BYTE   W06
 BYTE   Dn4
 BYTE   W06
 BYTE   PEND 
// 015   ----------------------------------------
Label_4_014E4CE9:
 BYTE   N54  Cn4  v100
 BYTE   W54
 BYTE   N06  Bn3
 BYTE   W06
 BYTE   Cn4
 BYTE   W06
 BYTE   Dn4
 BYTE   W06
 BYTE   N03  Ds4
 BYTE   W03
 BYTE   En4
 BYTE   W03
 BYTE   N06  Ds4
 BYTE   W06
 BYTE   Dn4
 BYTE   W06
 BYTE   Cn4
 BYTE   W06
 BYTE   PEND 
// 016   ----------------------------------------
Label_4_014E4D01:
 BYTE   N32  Gn4  v100
 BYTE   W36
 BYTE   N06  Fs4
 BYTE   W06
 BYTE   Gn4
 BYTE   W06
 BYTE   N32  Dn4
 BYTE   W36
 BYTE   N06  Bn3
 BYTE   W06
 BYTE   Dn4
 BYTE   W06
 BYTE   PEND 
// 017   ----------------------------------------
Label_4_014E4D13:
 BYTE   N32  En4  v100
 BYTE   W36
 BYTE   N06  Ds4
 BYTE   W06
 BYTE   En4
 BYTE   W06
 BYTE   N24  Bn3
 BYTE   W24
 BYTE   N03  Gs3
 BYTE   W03
 BYTE   Bn3
 BYTE   W03
 BYTE   Dn4
 BYTE   W03
 BYTE   En4
 BYTE   W03
 BYTE   Bn3
 BYTE   W03
 BYTE   Dn4
 BYTE   W03
 BYTE   En4
 BYTE   W03
 BYTE   Gs4
 BYTE   W02
 BYTE   VOICE   30
 BYTE   W01
 BYTE   PEND 
// 018   ----------------------------------------
 BYTE   N06  Gn2
 BYTE   W06
 BYTE   N03  An2
 BYTE   W12
 BYTE   N03
 BYTE   W06
 BYTE   N06
 BYTE   W06
 BYTE   N03
 BYTE   W06
 BYTE   Gs2
 BYTE   W06
 BYTE   An2
 BYTE   W06
 BYTE   N06  Gs2
 BYTE   W06
 BYTE   N03  An2
 BYTE   W06
 BYTE   N03
 BYTE   W06
 BYTE   N06  Gs2
 BYTE   W06
 BYTE   N03  An2
 BYTE   W06
 BYTE   N03
 BYTE   W06
 BYTE   N06
 BYTE   W06
 BYTE   Gs2
 BYTE   W06
// 019   ----------------------------------------
 BYTE   PATT
  POIN2 Label_4_014E4BC5
// 020   ----------------------------------------
 BYTE   PATT
  POIN2 Label_4_014E4BF0
// 021   ----------------------------------------
 BYTE   W96
// 022   ----------------------------------------
 BYTE   PATT
  POIN2 Label_4_014E4C16
// 023   ----------------------------------------
 BYTE   PATT
  POIN2 Label_4_014E4C3C
// 024   ----------------------------------------
 BYTE   PATT
  POIN2 Label_4_014E4C67
// 025   ----------------------------------------
 BYTE   PATT
  POIN2 Label_4_014E4C8C
// 026   ----------------------------------------
 BYTE   EOT
 BYTE   As3
 BYTE   VOL   56*PokemonRSEEncounterChampionMeatOfJustice_mvl/mxv
 BYTE   N06  Gn4  v100
 BYTE   W06
 BYTE   Fn4
 BYTE   W05
 BYTE   VOICE   52
 BYTE   W01
// 027   ----------------------------------------
 BYTE   PATT
  POIN2 Label_4_014E4CAC
// 028   ----------------------------------------
 BYTE   PATT
  POIN2 Label_4_014E4CB6
// 029   ----------------------------------------
 BYTE   PATT
  POIN2 Label_4_014E4CC0
// 030   ----------------------------------------
 BYTE   PATT
  POIN2 Label_4_014E4CCB
// 031   ----------------------------------------
 BYTE   PATT
  POIN2 Label_4_014E4CD5
// 032   ----------------------------------------
 BYTE   PATT
  POIN2 Label_4_014E4CE9
// 033   ----------------------------------------
 BYTE   PATT
  POIN2 Label_4_014E4D01
// 034   ----------------------------------------
 BYTE   GoTo
  POIN2 Label_4_014E4D13
// 035   ----------------------------------------
 BYTE   PATT
  POIN2 Label_4_014E4D13
 BYTE   FINE

//**************** Track 6 (Midi-Chn.5) ****************//

PokemonRSEEncounterChampionMeatOfJustice_006:
// 000   ----------------------------------------
 BYTE   KEYSH   PokemonRSEEncounterChampionMeatOfJustice_key+0
 BYTE   VOICE   52
 BYTE   VOL   50*PokemonRSEEncounterChampionMeatOfJustice_mvl/mxv
 BYTE   PAN   c_v+0
 BYTE   W96
// 001   ----------------------------------------
 BYTE   VOL   28*PokemonRSEEncounterChampionMeatOfJustice_mvl/mxv
 BYTE   N92  Bn3  v100
 BYTE   W08
 BYTE   VOL   31*PokemonRSEEncounterChampionMeatOfJustice_mvl/mxv
 BYTE   W12
 BYTE   VOL   34*PokemonRSEEncounterChampionMeatOfJustice_mvl/mxv
 BYTE   W12
 BYTE   VOL   37*PokemonRSEEncounterChampionMeatOfJustice_mvl/mxv
 BYTE   W21
 BYTE   VOL   40*PokemonRSEEncounterChampionMeatOfJustice_mvl/mxv
 BYTE   W03
 BYTE   VOL   44*PokemonRSEEncounterChampionMeatOfJustice_mvl/mxv
 BYTE   W06
 BYTE   VOL   47*PokemonRSEEncounterChampionMeatOfJustice_mvl/mxv
 BYTE   W03
 BYTE   VOL   50*PokemonRSEEncounterChampionMeatOfJustice_mvl/mxv
 BYTE   W03
 BYTE   VOL   53*PokemonRSEEncounterChampionMeatOfJustice_mvl/mxv
 BYTE   W04
 BYTE   VOL   56*PokemonRSEEncounterChampionMeatOfJustice_mvl/mxv
 BYTE   W02
 BYTE   VOL   59*PokemonRSEEncounterChampionMeatOfJustice_mvl/mxv
 BYTE   W03
 BYTE   VOL   62*PokemonRSEEncounterChampionMeatOfJustice_mvl/mxv
 BYTE   W03
 BYTE   VOL   66*PokemonRSEEncounterChampionMeatOfJustice_mvl/mxv
 BYTE   W15
 BYTE   VOICE   127
 BYTE   W01
// 002   ----------------------------------------
 BYTE   VOL   50*PokemonRSEEncounterChampionMeatOfJustice_mvl/mxv
 BYTE   N09  Cn6
 BYTE   W12
 BYTE   N06
 BYTE   W12
 BYTE   N03
 BYTE   W06
 BYTE   N12
 BYTE   W12
 BYTE   N03
 BYTE   W12
 BYTE   N03
 BYTE   W12
 BYTE   N03
 BYTE   W06
 BYTE   N06
 BYTE   W12
 BYTE   N06
 BYTE   W12
// 003   ----------------------------------------
Label_5_014DEBD8:
 BYTE   N06  An6  v100
 BYTE   W12
 BYTE   N06
 BYTE   W12
 BYTE   N03  An5
 BYTE   W06
 BYTE   N06  An6
 BYTE   W12
 BYTE   N06
 BYTE   W18
 BYTE   N03
 BYTE   W06
 BYTE   N03
 BYTE   W06
 BYTE   An5
 BYTE   W06
 BYTE   N06  An6
 BYTE   W12
 BYTE   N03  An5
 BYTE   W06
 BYTE   PEND 
// 004   ----------------------------------------
Label_5_014DEBF3:
 BYTE   N09  Cn6  v100
 BYTE   W12
 BYTE   N06
 BYTE   W12
 BYTE   N03
 BYTE   W06
 BYTE   N12
 BYTE   W12
 BYTE   N03
 BYTE   W12
 BYTE   N03
 BYTE   W12
 BYTE   N03
 BYTE   W06
 BYTE   N06
 BYTE   W12
 BYTE   N06
 BYTE   W12
 BYTE   PEND 
// 005   ----------------------------------------
 BYTE   PATT
  POIN2 Label_5_014DEBD8
// 006   ----------------------------------------
Label_5_014DEC0D:
 BYTE   N09  As5  v100
 BYTE   W12
 BYTE   N06
 BYTE   W12
 BYTE   N03
 BYTE   W06
 BYTE   N12
 BYTE   W12
 BYTE   N03
 BYTE   W12
 BYTE   N03
 BYTE   W12
 BYTE   N03
 BYTE   W06
 BYTE   N06
 BYTE   W12
 BYTE   N06
 BYTE   W12
 BYTE   PEND 
// 007   ----------------------------------------
Label_5_014DEC22:
 BYTE   N06  Gn6  v100
 BYTE   W12
 BYTE   N06
 BYTE   W12
 BYTE   N03  Gn5
 BYTE   W06
 BYTE   N06  Gn6
 BYTE   W12
 BYTE   N06
 BYTE   W18
 BYTE   N03
 BYTE   W06
 BYTE   N03
 BYTE   W06
 BYTE   Gn5
 BYTE   W06
 BYTE   N06  Gn6
 BYTE   W12
 BYTE   N03  Gn5
 BYTE   W06
 BYTE   PEND 
// 008   ----------------------------------------
 BYTE   PATT
  POIN2 Label_5_014DEC0D
// 009   ----------------------------------------
Label_5_014DEC42:
 BYTE   N06  Gn6  v100
 BYTE   W12
 BYTE   N06
 BYTE   W12
 BYTE   N03  Gn5
 BYTE   W06
 BYTE   N06  Gn6
 BYTE   W12
 BYTE   N06
 BYTE   W18
 BYTE   N03
 BYTE   W06
 BYTE   N03
 BYTE   W06
 BYTE   Gn5
 BYTE   W06
 BYTE   N06  Gn6
 BYTE   W05
 BYTE   VOICE   52
 BYTE   W01
 BYTE   N06  Gn3
 BYTE   W06
 BYTE   N03  Gs3
 BYTE   N03  Gn5
 BYTE   W06
 BYTE   PEND 
// 010   ----------------------------------------
Label_5_014DEC65:
 BYTE   N80  An3  v100
 BYTE   W84
 BYTE   N06  As3
 BYTE   W06
 BYTE   An3
 BYTE   W06
 BYTE   PEND 
// 011   ----------------------------------------
Label_5_014DEC6F:
 BYTE   N80  Gs3  v100
 BYTE   W84
 BYTE   N06  En3
 BYTE   W06
 BYTE   Fn3
 BYTE   W06
 BYTE   PEND 
// 012   ----------------------------------------
Label_5_014DEC79:
 BYTE   N32  Gn3  v100
 BYTE   W36
 BYTE   N06  En3
 BYTE   N06  Bn3
 BYTE   W06
 BYTE   Fn3
 BYTE   W06
 BYTE   N44  Gn3
 BYTE   W48
 BYTE   PEND 
// 013   ----------------------------------------
Label_5_014DEC88:
 BYTE   N80  An3  v100
 BYTE   W84
 BYTE   N06  Fs3
 BYTE   W06
 BYTE   Gs3
 BYTE   W06
 BYTE   PEND 
// 014   ----------------------------------------
Label_5_014DEC92:
 BYTE   N30  An3  v100
 BYTE   W30
 BYTE   N06  Gn3
 BYTE   W06
 BYTE   An3
 BYTE   W06
 BYTE   Bn3
 BYTE   W06
 BYTE   N32  Cn4
 BYTE   W36
 BYTE   N06  Bn3
 BYTE   W06
 BYTE   An3
 BYTE   W06
 BYTE   PEND 
// 015   ----------------------------------------
Label_5_014DECA6:
 BYTE   N54  Fs3  v100
 BYTE   W54
 BYTE   N06
 BYTE   W06
 BYTE   An3
 BYTE   W06
 BYTE   Bn3
 BYTE   W06
 BYTE   N03  Cn4
 BYTE   W03
 BYTE   Dn4
 BYTE   W03
 BYTE   N06  Cn4
 BYTE   W06
 BYTE   Bn3
 BYTE   W06
 BYTE   An3
 BYTE   W06
 BYTE   PEND 
// 016   ----------------------------------------
Label_5_014DECBD:
 BYTE   N32  Dn4  v100
 BYTE   W36
 BYTE   N06  Bn3
 BYTE   W06
 BYTE   N03  Dn4
 BYTE   W03
 BYTE   N32  Gn3
 BYTE   W36
 BYTE   W03
 BYTE   N06  En3
 BYTE   W06
 BYTE   Gs3
 BYTE   W06
 BYTE   PEND 
// 017   ----------------------------------------
Label_5_014DECD1:
 BYTE   N32  Bn3  v100
 BYTE   W36
 BYTE   N06  As3
 BYTE   W06
 BYTE   Bn3
 BYTE   W06
 BYTE   N24  Gs3
 BYTE   W24
 BYTE   N03  En3
 BYTE   W03
 BYTE   Gs3
 BYTE   W03
 BYTE   Bn3
 BYTE   W03
 BYTE   Dn4
 BYTE   W03
 BYTE   Gs3
 BYTE   W03
 BYTE   Bn3
 BYTE   W03
 BYTE   Dn4
 BYTE   W03
 BYTE   En4
 BYTE   W02
 BYTE   VOICE   127
 BYTE   W01
 BYTE   PEND 
// 018   ----------------------------------------
 BYTE   PATT
  POIN2 Label_5_014DEBF3
// 019   ----------------------------------------
 BYTE   PATT
  POIN2 Label_5_014DEBD8
// 020   ----------------------------------------
 BYTE   PATT
  POIN2 Label_5_014DEBF3
// 021   ----------------------------------------
 BYTE   PATT
  POIN2 Label_5_014DEBD8
// 022   ----------------------------------------
 BYTE   PATT
  POIN2 Label_5_014DEC0D
// 023   ----------------------------------------
 BYTE   PATT
  POIN2 Label_5_014DEC22
// 024   ----------------------------------------
 BYTE   PATT
  POIN2 Label_5_014DEC0D
// 025   ----------------------------------------
 BYTE   PATT
  POIN2 Label_5_014DEC42
// 026   ----------------------------------------
 BYTE   PATT
  POIN2 Label_5_014DEC65
// 027   ----------------------------------------
 BYTE   PATT
  POIN2 Label_5_014DEC6F
// 028   ----------------------------------------
 BYTE   PATT
  POIN2 Label_5_014DEC79
// 029   ----------------------------------------
 BYTE   PATT
  POIN2 Label_5_014DEC88
// 030   ----------------------------------------
 BYTE   PATT
  POIN2 Label_5_014DEC92
// 031   ----------------------------------------
 BYTE   PATT
  POIN2 Label_5_014DECA6
// 032   ----------------------------------------
 BYTE   PATT
  POIN2 Label_5_014DECBD
// 033   ----------------------------------------
 BYTE   GoTo
  POIN2 Label_5_014DECD1
// 034   ----------------------------------------
 BYTE   PATT
  POIN2 Label_5_014DECD1
 BYTE   FINE

//**************** Track 7 (Midi-Chn.6) ****************//

PokemonRSEEncounterChampionMeatOfJustice_007:
// 000   ----------------------------------------
 BYTE   KEYSH   PokemonRSEEncounterChampionMeatOfJustice_key+0
 BYTE   VOICE   63
 BYTE   VOL   56*PokemonRSEEncounterChampionMeatOfJustice_mvl/mxv
 BYTE   PAN   c_v+0
 BYTE   W96
// 001   ----------------------------------------
 BYTE   W96
// 002   ----------------------------------------
Label_6_014E4E4E:
 BYTE   N06  Bn1  v100
 BYTE   W06
 BYTE   N03  Cn2
 BYTE   W12
 BYTE   N03
 BYTE   W06
 BYTE   N06
 BYTE   W06
 BYTE   N03
 BYTE   W06
 BYTE   Bn1
 BYTE   W06
 BYTE   Cn2
 BYTE   W06
 BYTE   N06  Bn1
 BYTE   W06
 BYTE   N03  Cn2
 BYTE   W06
 BYTE   N03
 BYTE   W06
 BYTE   N06  Bn1
 BYTE   W06
 BYTE   N03  Cn2
 BYTE   W06
 BYTE   N03
 BYTE   W06
 BYTE   N06
 BYTE   W06
 BYTE   Bn1
 BYTE   W06
 BYTE   PEND 
// 003   ----------------------------------------
Label_6_014E4E74:
 BYTE   BEND   c_v+0
 BYTE   N06  Gn1  v100
 BYTE   W06
 BYTE   N03  An1
 BYTE   W06
 BYTE   N03
 BYTE   W06
 BYTE   N06  Gn1
 BYTE   W06
 BYTE   N03  An1
 BYTE   W06
 BYTE   N03
 BYTE   W06
 BYTE   N06  Gn1
 BYTE   W06
 BYTE   An1
 BYTE   W06
 BYTE   Dn1
 BYTE   W06
 BYTE   N03  En1
 BYTE   W06
 BYTE   N06  Gn1
 BYTE   W06
 BYTE   N03  Gs1
 BYTE   W06
 BYTE   N06  Bn1
 BYTE   W06
 BYTE   Cn2
 BYTE   W06
 BYTE   Gn1
 BYTE   W06
 BYTE   Gs1
 BYTE   W06
 BYTE   PEND 
// 004   ----------------------------------------
Label_6_014E4EA1:
 BYTE   N06  Bn1  v100
 BYTE   W06
 BYTE   N03  Cn2
 BYTE   W12
 BYTE   N03
 BYTE   W06
 BYTE   N06
 BYTE   W06
 BYTE   N03
 BYTE   W06
 BYTE   Bn1
 BYTE   W06
 BYTE   Cn2
 BYTE   W06
 BYTE   Fn2
 BYTE   W03
 BYTE   Gn2
 BYTE   W03
 BYTE   Gs2
 BYTE   W03
 BYTE   An2
 BYTE   W03
 BYTE   Bn2
 BYTE   W03
 BYTE   Cn3
 BYTE   W03
 BYTE   Dn3
 BYTE   W03
 BYTE   Ds3
 BYTE   W03
 BYTE   N24  En3
 BYTE   W03
 BYTE   BEND   c_v-6
 BYTE   W03
 BYTE   BEND   c_v-11
 BYTE   W03
 BYTE   BEND   c_v-20
 BYTE   W03
 BYTE   BEND   c_v-26
 BYTE   W03
 BYTE   BEND   c_v-32
 BYTE   W03
 BYTE   BEND   c_v-40
 BYTE   W03
 BYTE   BEND   c_v-50
 BYTE   W03
 BYTE   PEND 
// 005   ----------------------------------------
 BYTE   PATT
  POIN2 Label_6_014E4E74
// 006   ----------------------------------------
Label_6_014E4EDA:
 BYTE   N06  An1  v100
 BYTE   W06
 BYTE   N03  As1
 BYTE   W12
 BYTE   N03
 BYTE   W06
 BYTE   N06
 BYTE   W06
 BYTE   N03
 BYTE   W06
 BYTE   An1
 BYTE   W06
 BYTE   As1
 BYTE   W06
 BYTE   N06  An1
 BYTE   W06
 BYTE   N03  As1
 BYTE   W06
 BYTE   N03
 BYTE   W06
 BYTE   N06  An1
 BYTE   W06
 BYTE   N03  As1
 BYTE   W06
 BYTE   N03
 BYTE   W06
 BYTE   N06
 BYTE   W06
 BYTE   An1
 BYTE   W06
 BYTE   PEND 
// 007   ----------------------------------------
Label_6_014E4F00:
 BYTE   N06  Fn1  v100
 BYTE   W06
 BYTE   N03  Gn1
 BYTE   W06
 BYTE   N03
 BYTE   W06
 BYTE   N06  Fn1
 BYTE   W06
 BYTE   N03  Gn1
 BYTE   W06
 BYTE   N03
 BYTE   W06
 BYTE   N06  Fn1
 BYTE   W06
 BYTE   Gn1
 BYTE   W06
 BYTE   Cn1
 BYTE   W06
 BYTE   N03  Dn1
 BYTE   W06
 BYTE   N06  Fn1
 BYTE   W06
 BYTE   N03  Fs1
 BYTE   W06
 BYTE   N06  An1
 BYTE   W06
 BYTE   As1
 BYTE   W06
 BYTE   Fn1
 BYTE   W06
 BYTE   Fs1
 BYTE   W06
 BYTE   PEND 
// 008   ----------------------------------------
Label_6_014E4F2B:
 BYTE   N06  An1  v100
 BYTE   W06
 BYTE   N03  As1
 BYTE   W12
 BYTE   N03
 BYTE   W06
 BYTE   N06
 BYTE   W06
 BYTE   N03
 BYTE   W06
 BYTE   An1
 BYTE   W06
 BYTE   As1
 BYTE   W06
 BYTE   Ds2
 BYTE   W03
 BYTE   Fn2
 BYTE   W03
 BYTE   Fs2
 BYTE   W03
 BYTE   Gn2
 BYTE   W03
 BYTE   An2
 BYTE   W03
 BYTE   As2
 BYTE   W03
 BYTE   Cn3
 BYTE   W03
 BYTE   Cs3
 BYTE   W03
 BYTE   N24  Dn3
 BYTE   W03
 BYTE   BEND   c_v-6
 BYTE   W03
 BYTE   BEND   c_v-11
 BYTE   W03
 BYTE   BEND   c_v-20
 BYTE   W03
 BYTE   BEND   c_v-26
 BYTE   W03
 BYTE   BEND   c_v-32
 BYTE   W03
 BYTE   BEND   c_v-40
 BYTE   W03
 BYTE   BEND   c_v-50
 BYTE   W03
 BYTE   PEND 
// 009   ----------------------------------------
Label_6_014E4F5F:
 BYTE   BEND   c_v+0
 BYTE   W72
 BYTE   BEND   c_v+2
 BYTE   W12
 BYTE   N06  Bn4  v100
 BYTE   W06
 BYTE   Dn5
 BYTE   W06
 BYTE   PEND 
// 010   ----------------------------------------
Label_6_014E4F6B:
 BYTE   N66  En5  v100
 BYTE   W72
 BYTE   N06
 BYTE   W12
 BYTE   Fn5
 BYTE   W06
 BYTE   En5
 BYTE   W06
 BYTE   PEND 
// 011   ----------------------------------------
Label_6_014E4F76:
 BYTE   N06  Gs5  v100
 BYTE   W12
 BYTE   Gn5
 BYTE   W12
 BYTE   N03  Fn5
 BYTE   W03
 BYTE   Gn5
 BYTE   W03
 BYTE   N06  Fn5
 BYTE   W12
 BYTE   En5
 BYTE   W06
 BYTE   N32  Dn5
 BYTE   W36
 BYTE   N06  Bn4
 BYTE   W06
 BYTE   Cn5
 BYTE   W06
 BYTE   PEND 
// 012   ----------------------------------------
Label_6_014E4F8F:
 BYTE   N30  Dn5  v100
 BYTE   W36
 BYTE   N06  En5
 BYTE   W06
 BYTE   Fn5
 BYTE   W06
 BYTE   N30  En5
 BYTE   W36
 BYTE   N06
 BYTE   W06
 BYTE   Fn5
 BYTE   W06
 BYTE   PEND 
// 013   ----------------------------------------
Label_6_014E4FA0:
 BYTE   N44  En5  v100
 BYTE   W48
 BYTE   N03  Cs5
 BYTE   W03
 BYTE   Dn5
 BYTE   W03
 BYTE   N06  Cs5
 BYTE   W06
 BYTE   Bn4
 BYTE   W12
 BYTE   Cs5
 BYTE   W06
 BYTE   En5
 BYTE   W18
 BYTE   PEND 
// 014   ----------------------------------------
Label_6_014E4FB3:
 BYTE   N18  En5  v100
 BYTE   W18
 BYTE   N06  Fn5
 BYTE   W18
 BYTE   N44  Dn5
 BYTE   W48
 BYTE   N03  An4
 BYTE   W06
 BYTE   N03
 BYTE   W06
 BYTE   PEND 
// 015   ----------------------------------------
Label_6_014E4FC3:
 BYTE   N18  En5  v100
 BYTE   W18
 BYTE   N06  Fn5
 BYTE   W18
 BYTE   N44  Dn5
 BYTE   W48
 BYTE   N06  Cn5
 BYTE   W06
 BYTE   TIE  Gn5
 BYTE   W06
 BYTE   PEND 
// 016   ----------------------------------------
 BYTE   W96
// 017   ----------------------------------------
Label_6_014E4FD5:
 BYTE   W72
 BYTE   EOT
 BYTE   Gn5
 BYTE   N03  Fn5  v100
 BYTE   W03
 BYTE   En5
 BYTE   W03
 BYTE   Dn5
 BYTE   W03
 BYTE   Cn5
 BYTE   W03
 BYTE   Bn4
 BYTE   W03
 BYTE   An4
 BYTE   W03
 BYTE   Gs4
 BYTE   W03
 BYTE   Gn4
 BYTE   W03
// 018   ----------------------------------------
 BYTE   PATT
  POIN2 Label_6_014E4E4E
// 019   ----------------------------------------
 BYTE   PATT
  POIN2 Label_6_014E4E74
// 020   ----------------------------------------
 BYTE   PATT
  POIN2 Label_6_014E4EA1
// 021   ----------------------------------------
 BYTE   PATT
  POIN2 Label_6_014E4E74
// 022   ----------------------------------------
 BYTE   PATT
  POIN2 Label_6_014E4EDA
// 023   ----------------------------------------
 BYTE   PATT
  POIN2 Label_6_014E4F00
// 024   ----------------------------------------
 BYTE   PATT
  POIN2 Label_6_014E4F2B
// 025   ----------------------------------------
 BYTE   PATT
  POIN2 Label_6_014E4F5F
// 026   ----------------------------------------
 BYTE   PATT
  POIN2 Label_6_014E4F6B
// 027   ----------------------------------------
 BYTE   PATT
  POIN2 Label_6_014E4F76
// 028   ----------------------------------------
 BYTE   PATT
  POIN2 Label_6_014E4F8F
// 029   ----------------------------------------
 BYTE   PATT
  POIN2 Label_6_014E4FA0
// 030   ----------------------------------------
 BYTE   PATT
  POIN2 Label_6_014E4FB3
// 031   ----------------------------------------
 BYTE   PATT
  POIN2 Label_6_014E4FC3
// 032   ----------------------------------------
 BYTE   W96
// 033   ----------------------------------------
 BYTE   GoTo
  POIN2 Label_6_014E4FD5
// 034   ----------------------------------------
 BYTE   W72
 BYTE   EOT
 BYTE   Gn5
 BYTE   N03  Fn5  v100
 BYTE   W03
 BYTE   En5
 BYTE   W03
 BYTE   Dn5
 BYTE   W03
 BYTE   Cn5
 BYTE   W03
 BYTE   Bn4
 BYTE   W03
 BYTE   An4
 BYTE   W03
 BYTE   Gs4
 BYTE   W03
 BYTE   Gn4
 BYTE   W03
 BYTE   FINE

//**************** Track 8 (Midi-Chn.7) ****************//

PokemonRSEEncounterChampionMeatOfJustice_008:
// 000   ----------------------------------------
 BYTE   KEYSH   PokemonRSEEncounterChampionMeatOfJustice_key+0
 BYTE   VOICE   39
 BYTE   VOL   80*PokemonRSEEncounterChampionMeatOfJustice_mvl/mxv
 BYTE   PAN   c_v+0
 BYTE   BEND   c_v+0
 BYTE   N05  An0  v100
 BYTE   W12
 BYTE   N06
 BYTE   W12
 BYTE   N12
 BYTE   W06
 BYTE   BEND   c_v+10
 BYTE   W06
 BYTE   BEND   c_v+0
 BYTE   N03
 BYTE   W06
 BYTE   N03
 BYTE   W06
 BYTE   N06  Cn1
 BYTE   W06
 BYTE   N18  An0
 BYTE   W18
 BYTE   N12
 BYTE   W12
 BYTE   An1
 BYTE   W12
// 001   ----------------------------------------
 BYTE   BEND   c_v+0
 BYTE   N12  Gn2
 BYTE   W06
 BYTE   BEND   c_v+9
 BYTE   W06
 BYTE   BEND   c_v+0
 BYTE   N12  Ds2
 BYTE   W06
 BYTE   BEND   c_v+5
 BYTE   W06
 BYTE   BEND   c_v+0
 BYTE   N12  Bn1
 BYTE   W06
 BYTE   BEND   c_v+9
 BYTE   W06
 BYTE   BEND   c_v+0
 BYTE   N12  Gn1
 BYTE   W06
 BYTE   BEND   c_v+5
 BYTE   W06
 BYTE   BEND   c_v-6
 BYTE   N12  En1
 BYTE   W06
 BYTE   BEND   c_v+0
 BYTE   W06
 BYTE   N03
 BYTE   W06
 BYTE   BEND   c_v-5
 BYTE   N12
 BYTE   W06
 BYTE   BEND   c_v+0
 BYTE   W06
 BYTE   N03
 BYTE   W06
 BYTE   BEND   c_v-5
 BYTE   N12
 BYTE   W06
 BYTE   BEND   c_v+0
 BYTE   W06
// 002   ----------------------------------------
Label_7_014E5DF6:
 BYTE   BEND   c_v+0
 BYTE   N18  An0  v100
 BYTE   W18
 BYTE   N06  En1
 BYTE   W18
 BYTE   N12  Bn1
 BYTE   W06
 BYTE   BEND   c_v+5
 BYTE   W06
 BYTE   BEND   c_v+63
 BYTE   N18  An0
 BYTE   W06
 BYTE   BEND   c_v+1
 BYTE   W12
 BYTE   N06  En1
 BYTE   W18
 BYTE   N12  Dn2
 BYTE   W06
 BYTE   BEND   c_v-10
 BYTE   W06
 BYTE   PEND 
// 003   ----------------------------------------
Label_7_014E5E16:
 BYTE   BEND   c_v+0
 BYTE   N12  Gn1  v100
 BYTE   W06
 BYTE   BEND   c_v+10
 BYTE   W06
 BYTE   BEND   c_v+0
 BYTE   W06
 BYTE   BEND   c_v+0
 BYTE   N12
 BYTE   W06
 BYTE   BEND   c_v+10
 BYTE   W06
 BYTE   BEND   c_v+0
 BYTE   W06
 BYTE   BEND   c_v+0
 BYTE   N12
 BYTE   W06
 BYTE   BEND   c_v+10
 BYTE   W06
 BYTE   BEND   c_v+0
 BYTE   N03  An0
 BYTE   W06
 BYTE   N03
 BYTE   W06
 BYTE   N12  Gn1
 BYTE   W06
 BYTE   BEND   c_v+9
 BYTE   W06
 BYTE   BEND   c_v+0
 BYTE   N12  Ds1
 BYTE   W06
 BYTE   BEND   c_v+4
 BYTE   W06
 BYTE   BEND   c_v+0
 BYTE   N12  Bn0
 BYTE   W06
 BYTE   BEND   c_v+4
 BYTE   W06
 BYTE   PEND 
// 004   ----------------------------------------
 BYTE   PATT
  POIN2 Label_7_014E5DF6
// 005   ----------------------------------------
Label_7_014E5E4F:
 BYTE   BEND   c_v+0
 BYTE   N12  Gn1  v100
 BYTE   W06
 BYTE   BEND   c_v+10
 BYTE   W06
 BYTE   BEND   c_v+0
 BYTE   W06
 BYTE   BEND   c_v+0
 BYTE   N12
 BYTE   W06
 BYTE   BEND   c_v+10
 BYTE   W06
 BYTE   BEND   c_v+0
 BYTE   W06
 BYTE   BEND   c_v+0
 BYTE   N12
 BYTE   W06
 BYTE   BEND   c_v+10
 BYTE   W06
 BYTE   BEND   c_v+0
 BYTE   N03  An0
 BYTE   W06
 BYTE   N03
 BYTE   W06
 BYTE   N12  Dn1
 BYTE   W06
 BYTE   BEND   c_v+9
 BYTE   W06
 BYTE   BEND   c_v+0
 BYTE   N12  Gn1
 BYTE   W06
 BYTE   BEND   c_v+9
 BYTE   W06
 BYTE   BEND   c_v+0
 BYTE   N12  Dn1
 BYTE   W06
 BYTE   BEND   c_v+9
 BYTE   W06
 BYTE   PEND 
// 006   ----------------------------------------
Label_7_014E5E83:
 BYTE   BEND   c_v+0
 BYTE   N18  Gn0  v100
 BYTE   W18
 BYTE   N06  Dn1
 BYTE   W18
 BYTE   N12  An1
 BYTE   W06
 BYTE   BEND   c_v+5
 BYTE   W06
 BYTE   BEND   c_v+63
 BYTE   N18  Gn0
 BYTE   W06
 BYTE   BEND   c_v+1
 BYTE   W12
 BYTE   N06  Dn1
 BYTE   W18
 BYTE   N12  Cn2
 BYTE   W06
 BYTE   BEND   c_v-10
 BYTE   W06
 BYTE   PEND 
// 007   ----------------------------------------
Label_7_014E5EA3:
 BYTE   BEND   c_v+0
 BYTE   N12  Fn1  v100
 BYTE   W06
 BYTE   BEND   c_v+10
 BYTE   W06
 BYTE   BEND   c_v+0
 BYTE   W06
 BYTE   BEND   c_v+0
 BYTE   N12
 BYTE   W06
 BYTE   BEND   c_v+10
 BYTE   W06
 BYTE   BEND   c_v+0
 BYTE   W06
 BYTE   BEND   c_v+0
 BYTE   N12
 BYTE   W06
 BYTE   BEND   c_v+10
 BYTE   W06
 BYTE   BEND   c_v+0
 BYTE   N03  Gn0
 BYTE   W06
 BYTE   N03
 BYTE   W06
 BYTE   N12  Fn1
 BYTE   W06
 BYTE   BEND   c_v+9
 BYTE   W06
 BYTE   BEND   c_v+0
 BYTE   N12  Cs1
 BYTE   W06
 BYTE   BEND   c_v+4
 BYTE   W06
 BYTE   BEND   c_v+0
 BYTE   N12  An0
 BYTE   W06
 BYTE   BEND   c_v+4
 BYTE   W06
 BYTE   PEND 
// 008   ----------------------------------------
 BYTE   PATT
  POIN2 Label_7_014E5E83
// 009   ----------------------------------------
Label_7_014E5EDC:
 BYTE   BEND   c_v+0
 BYTE   N15  Gn0  v100
 BYTE   W18
 BYTE   N03
 BYTE   W06
 BYTE   N12  Fs1
 BYTE   W06
 BYTE   BEND   c_v+10
 BYTE   W06
 BYTE   BEND   c_v+1
 BYTE   N12  Gn0
 BYTE   W60
 BYTE   PEND 
// 010   ----------------------------------------
Label_7_014E5EEF:
 BYTE   BEND   c_v-5
 BYTE   N12  Fn1  v100
 BYTE   W06
 BYTE   BEND   c_v+0
 BYTE   W12
 BYTE   N03
 BYTE   W18
 BYTE   N06
 BYTE   W12
 BYTE   BEND   c_v-5
 BYTE   N12
 BYTE   W06
 BYTE   BEND   c_v+0
 BYTE   W12
 BYTE   N03
 BYTE   W18
 BYTE   N06
 BYTE   W12
 BYTE   PEND 
// 011   ----------------------------------------
Label_7_014E5F08:
 BYTE   BEND   c_v-5
 BYTE   N12  Fn1  v100
 BYTE   W06
 BYTE   BEND   c_v+0
 BYTE   W12
 BYTE   N03
 BYTE   W18
 BYTE   N06
 BYTE   W12
 BYTE   BEND   c_v-5
 BYTE   N03
 BYTE   W06
 BYTE   BEND   c_v+0
 BYTE   N09
 BYTE   W12
 BYTE   N03
 BYTE   W18
 BYTE   N06
 BYTE   W12
 BYTE   PEND 
// 012   ----------------------------------------
Label_7_014E5F22:
 BYTE   BEND   c_v-5
 BYTE   N12  En1  v100
 BYTE   W06
 BYTE   BEND   c_v+0
 BYTE   W12
 BYTE   N03
 BYTE   W18
 BYTE   N06
 BYTE   W12
 BYTE   BEND   c_v-5
 BYTE   N12
 BYTE   W06
 BYTE   BEND   c_v+0
 BYTE   W12
 BYTE   N03
 BYTE   W18
 BYTE   N06
 BYTE   W12
 BYTE   PEND 
// 013   ----------------------------------------
Label_7_014E5F3B:
 BYTE   BEND   c_v-5
 BYTE   N12  An1  v100
 BYTE   W06
 BYTE   BEND   c_v+0
 BYTE   W12
 BYTE   N03  An2
 BYTE   W06
 BYTE   N06  An1
 BYTE   W06
 BYTE   N03  An2
 BYTE   W06
 BYTE   BEND   c_v-5
 BYTE   N12  An1
 BYTE   W06
 BYTE   BEND   c_v+0
 BYTE   W06
 BYTE   N12  Gn2
 BYTE   W06
 BYTE   BEND   c_v+9
 BYTE   W06
 BYTE   BEND   c_v+0
 BYTE   N12  Ds2
 BYTE   W06
 BYTE   BEND   c_v+4
 BYTE   W06
 BYTE   BEND   c_v+0
 BYTE   N12  Bn1
 BYTE   W06
 BYTE   BEND   c_v+4
 BYTE   W06
 BYTE   BEND   c_v+0
 BYTE   N12  Gn2
 BYTE   W06
 BYTE   BEND   c_v+9
 BYTE   W06
 BYTE   PEND 
// 014   ----------------------------------------
Label_7_014E5F71:
 BYTE   BEND   c_v-5
 BYTE   N12  Fn1  v100
 BYTE   W06
 BYTE   BEND   c_v+0
 BYTE   W12
 BYTE   N03  Fn2
 BYTE   W06
 BYTE   N06  Fn1
 BYTE   W06
 BYTE   N03  Fn2
 BYTE   W06
 BYTE   BEND   c_v-5
 BYTE   N12  Fn1
 BYTE   W06
 BYTE   BEND   c_v+0
 BYTE   W06
 BYTE   N12  En2
 BYTE   W06
 BYTE   BEND   c_v+4
 BYTE   W06
 BYTE   BEND   c_v+0
 BYTE   N12  Bn1
 BYTE   W06
 BYTE   BEND   c_v+4
 BYTE   W06
 BYTE   BEND   c_v+0
 BYTE   N12  Gn1
 BYTE   W06
 BYTE   BEND   c_v+4
 BYTE   W06
 BYTE   BEND   c_v+0
 BYTE   N12  En2
 BYTE   W06
 BYTE   BEND   c_v+4
 BYTE   W06
 BYTE   PEND 
// 015   ----------------------------------------
Label_7_014E5FA7:
 BYTE   BEND   c_v-5
 BYTE   N12  Fs1  v100
 BYTE   W06
 BYTE   BEND   c_v+0
 BYTE   W12
 BYTE   N03  Fs2
 BYTE   W06
 BYTE   N06  Fs1
 BYTE   W06
 BYTE   N03  Fs2
 BYTE   W06
 BYTE   BEND   c_v-5
 BYTE   N12  Fs1
 BYTE   W06
 BYTE   BEND   c_v+0
 BYTE   W06
 BYTE   N12  En2
 BYTE   W06
 BYTE   BEND   c_v+9
 BYTE   W06
 BYTE   BEND   c_v+0
 BYTE   N12  Bn1
 BYTE   W06
 BYTE   BEND   c_v+4
 BYTE   W06
 BYTE   BEND   c_v+0
 BYTE   N12  Gn1
 BYTE   W06
 BYTE   BEND   c_v+9
 BYTE   W06
 BYTE   BEND   c_v+0
 BYTE   N12  En1
 BYTE   W06
 BYTE   BEND   c_v+9
 BYTE   W06
 BYTE   PEND 
// 016   ----------------------------------------
Label_7_014E5FDD:
 BYTE   BEND   c_v+0
 BYTE   N06  Gn1  v100
 BYTE   W06
 BYTE   N03
 BYTE   W06
 BYTE   N12  Fn2
 BYTE   W06
 BYTE   BEND   c_v+9
 BYTE   W06
 BYTE   BEND   c_v+0
 BYTE   N12  Cs2
 BYTE   W06
 BYTE   BEND   c_v+4
 BYTE   W06
 BYTE   BEND   c_v+0
 BYTE   N12  As1
 BYTE   W06
 BYTE   BEND   c_v+4
 BYTE   W06
 BYTE   BEND   c_v-5
 BYTE   N12  Gn1
 BYTE   W06
 BYTE   BEND   c_v+0
 BYTE   W06
 BYTE   N03
 BYTE   W12
 BYTE   N12  Fn2
 BYTE   W06
 BYTE   BEND   c_v+9
 BYTE   W06
 BYTE   BEND   c_v+0
 BYTE   N03  Gn1
 BYTE   W06
 BYTE   N03
 BYTE   W06
 BYTE   PEND 
// 017   ----------------------------------------
Label_7_014E600F:
 BYTE   BEND   c_v-5
 BYTE   N12  Gs1  v100
 BYTE   W06
 BYTE   BEND   c_v+0
 BYTE   W06
 BYTE   N12  Fs2
 BYTE   W06
 BYTE   BEND   c_v+9
 BYTE   W06
 BYTE   BEND   c_v+0
 BYTE   N12  Ds2
 BYTE   W06
 BYTE   BEND   c_v+4
 BYTE   W06
 BYTE   BEND   c_v+0
 BYTE   N12  Bn1
 BYTE   W06
 BYTE   BEND   c_v+9
 BYTE   W06
 BYTE   BEND   c_v+0
 BYTE   N12  Fs1
 BYTE   W06
 BYTE   BEND   c_v+9
 BYTE   W06
 BYTE   BEND   c_v+0
 BYTE   W06
 BYTE   N06  En1
 BYTE   W06
 BYTE   N03
 BYTE   W06
 BYTE   N03
 BYTE   W06
 BYTE   N12  Dn2
 BYTE   W06
 BYTE   BEND   c_v+9
 BYTE   W06
 BYTE   PEND 
// 018   ----------------------------------------
 BYTE   PATT
  POIN2 Label_7_014E5DF6
// 019   ----------------------------------------
 BYTE   PATT
  POIN2 Label_7_014E5E16
// 020   ----------------------------------------
 BYTE   PATT
  POIN2 Label_7_014E5DF6
// 021   ----------------------------------------
 BYTE   PATT
  POIN2 Label_7_014E5E4F
// 022   ----------------------------------------
 BYTE   PATT
  POIN2 Label_7_014E5E83
// 023   ----------------------------------------
 BYTE   PATT
  POIN2 Label_7_014E5EA3
// 024   ----------------------------------------
 BYTE   PATT
  POIN2 Label_7_014E5E83
// 025   ----------------------------------------
 BYTE   PATT
  POIN2 Label_7_014E5EDC
// 026   ----------------------------------------
 BYTE   PATT
  POIN2 Label_7_014E5EEF
// 027   ----------------------------------------
 BYTE   PATT
  POIN2 Label_7_014E5F08
// 028   ----------------------------------------
 BYTE   PATT
  POIN2 Label_7_014E5F22
// 029   ----------------------------------------
 BYTE   PATT
  POIN2 Label_7_014E5F3B
// 030   ----------------------------------------
 BYTE   PATT
  POIN2 Label_7_014E5F71
// 031   ----------------------------------------
 BYTE   PATT
  POIN2 Label_7_014E5FA7
// 032   ----------------------------------------
 BYTE   PATT
  POIN2 Label_7_014E5FDD
// 033   ----------------------------------------
 BYTE   GoTo
  POIN2 Label_7_014E600F
// 034   ----------------------------------------
 BYTE   PATT
  POIN2 Label_7_014E600F
 BYTE   FINE

//**************** Track 9 (Midi-Chn.8) ****************//

PokemonRSEEncounterChampionMeatOfJustice_009:
// 000   ----------------------------------------
 BYTE   KEYSH   PokemonRSEEncounterChampionMeatOfJustice_key+0
 BYTE   VOICE   127
 BYTE   VOL   56*PokemonRSEEncounterChampionMeatOfJustice_mvl/mxv
 BYTE   PAN   c_v+0
 BYTE   N03  Dn1  v100
 BYTE   N03  Gs1
 BYTE   W06
 BYTE   N03
 BYTE   W06
 BYTE   Dn1
 BYTE   N03  Fs1
 BYTE   W06
 BYTE   Gs1
 BYTE   W06
 BYTE   Cn1
 BYTE   N03  Gs1
 BYTE   W06
 BYTE   Dn1
 BYTE   N03  Gs1
 BYTE   W06
 BYTE   N03
 BYTE   W06
 BYTE   Dn1
 BYTE   N03  Gs1
 BYTE   W06
 BYTE   Cn1
 BYTE   N03  Gs1
 BYTE   W06
 BYTE   N03
 BYTE   N03  An2
 BYTE   W06
 BYTE   Gs1
 BYTE   W06
 BYTE   N03
 BYTE   W06
 BYTE   N03
 BYTE   W06
 BYTE   N03
 BYTE   W06
 BYTE   Fs1
 BYTE   W06
 BYTE   Gs1
 BYTE   W06
// 001   ----------------------------------------
 BYTE   N03
 BYTE   W06
 BYTE   N03
 BYTE   W06
 BYTE   Fs1
 BYTE   W06
 BYTE   Gs1
 BYTE   W06
 BYTE   N03
 BYTE   W06
 BYTE   N03
 BYTE   W06
 BYTE   N03
 BYTE   W06
 BYTE   N03
 BYTE   W06
 BYTE   N03
 BYTE   W06
 BYTE   N03
 BYTE   W06
 BYTE   N03
 BYTE   W06
 BYTE   N03
 BYTE   W06
 BYTE   Fs1
 BYTE   W12
 BYTE   Gs1
 BYTE   W06
 BYTE   N03
 BYTE   W06
// 002   ----------------------------------------
Label_8_014E6412:
 BYTE   N03  Gs1  v100
 BYTE   W06
 BYTE   N03
 BYTE   W06
 BYTE   Fs1
 BYTE   W06
 BYTE   Cn1
 BYTE   N03  Gs1
 BYTE   W06
 BYTE   Dn1
 BYTE   N03  Gs1
 BYTE   W06
 BYTE   N03
 BYTE   W06
 BYTE   Cn1
 BYTE   N03  Gs1
 BYTE   W06
 BYTE   N03
 BYTE   N03  En3
 BYTE   W06
 BYTE   Gs1
 BYTE   W06
 BYTE   N03
 BYTE   N03  En3
 BYTE   W06
 BYTE   Gs1
 BYTE   W06
 BYTE   Cn1
 BYTE   N03  Gs1
 BYTE   W06
 BYTE   Dn1
 BYTE   N03  Gs1
 BYTE   W06
 BYTE   N03
 BYTE   W06
 BYTE   Fs1
 BYTE   W06
 BYTE   Gs1
 BYTE   N03  Dn3
 BYTE   W06
 BYTE   PEND 
// 003   ----------------------------------------
Label_8_014E6445:
 BYTE   N03  Cn1  v100
 BYTE   N03  Fs1
 BYTE   W06
 BYTE   Gs1
 BYTE   W06
 BYTE   N03
 BYTE   W06
 BYTE   Cn1
 BYTE   N03  Fs1
 BYTE   W06
 BYTE   Gs1
 BYTE   W06
 BYTE   Dn1
 BYTE   N03  Gs1
 BYTE   W06
 BYTE   Cn1
 BYTE   N03  Fs1
 BYTE   W06
 BYTE   Gs1
 BYTE   N03  En3
 BYTE   W06
 BYTE   Cn1
 BYTE   N03  Gs1
 BYTE   W06
 BYTE   N03
 BYTE   N03  En3
 BYTE   W06
 BYTE   Gs1
 BYTE   W06
 BYTE   Cn1
 BYTE   N03  Gs1
 BYTE   W06
 BYTE   Dn1
 BYTE   N03  Gs1
 BYTE   W06
 BYTE   N03
 BYTE   W06
 BYTE   Fs1
 BYTE   N03  Dn3
 BYTE   W06
 BYTE   Cn1
 BYTE   N03  Gs1
 BYTE   W06
 BYTE   PEND 
// 004   ----------------------------------------
Label_8_014E647E:
 BYTE   N03  Cn1  v100
 BYTE   N03  Gs1
 BYTE   W06
 BYTE   N03
 BYTE   W06
 BYTE   Fs1
 BYTE   W06
 BYTE   Cn1
 BYTE   N03  Gs1
 BYTE   W06
 BYTE   Dn1
 BYTE   N03  Gs1
 BYTE   W06
 BYTE   N03
 BYTE   W06
 BYTE   Cn1
 BYTE   N03  Gs1
 BYTE   W06
 BYTE   N03
 BYTE   N03  En3
 BYTE   W06
 BYTE   Gs1
 BYTE   W06
 BYTE   N03
 BYTE   N03  En3
 BYTE   W06
 BYTE   Fs1
 BYTE   W06
 BYTE   Cn1
 BYTE   N03  Gs1
 BYTE   W06
 BYTE   Dn1
 BYTE   N03  Gs1
 BYTE   W06
 BYTE   N03
 BYTE   W06
 BYTE   Fs1
 BYTE   W06
 BYTE   Gs1
 BYTE   N03  Dn3
 BYTE   W06
 BYTE   PEND 
// 005   ----------------------------------------
Label_8_014E64B3:
 BYTE   N03  Cn1  v100
 BYTE   N03  Fs1
 BYTE   W06
 BYTE   Gs1
 BYTE   W06
 BYTE   N03
 BYTE   W06
 BYTE   Cn1
 BYTE   N03  Fs1
 BYTE   W06
 BYTE   Gs1
 BYTE   W06
 BYTE   Dn1
 BYTE   N03  Gs1
 BYTE   W06
 BYTE   Cn1
 BYTE   N03  Fs1
 BYTE   W06
 BYTE   Gs1
 BYTE   N03  En3
 BYTE   W06
 BYTE   Cn1
 BYTE   N03  Gs1
 BYTE   W06
 BYTE   Dn1
 BYTE   N03  Gs1
 BYTE   W06
 BYTE   N03
 BYTE   W06
 BYTE   Cn1
 BYTE   N03  Gs1
 BYTE   W06
 BYTE   Dn1
 BYTE   N03  Gs1
 BYTE   W06
 BYTE   N03
 BYTE   W06
 BYTE   En1
 BYTE   N03  Fs1
 BYTE   W06
 BYTE   Cn1
 BYTE   N03  Gs1
 BYTE   W06
 BYTE   PEND 
// 006   ----------------------------------------
Label_8_014E64EC:
 BYTE   N03  Cn1  v100
 BYTE   N03  Gs1
 BYTE   W06
 BYTE   N03
 BYTE   W06
 BYTE   Fs1
 BYTE   W06
 BYTE   Cn1
 BYTE   N03  Gs1
 BYTE   W06
 BYTE   Dn1
 BYTE   N03  Gs1
 BYTE   W06
 BYTE   N03
 BYTE   W06
 BYTE   Cn1
 BYTE   N03  Gs1
 BYTE   W06
 BYTE   N03
 BYTE   N03  En3
 BYTE   W06
 BYTE   Gs1
 BYTE   W06
 BYTE   N03
 BYTE   N03  En3
 BYTE   W06
 BYTE   Gs1
 BYTE   W06
 BYTE   Cn1
 BYTE   N03  Gs1
 BYTE   W06
 BYTE   Dn1
 BYTE   N03  Gs1
 BYTE   W06
 BYTE   N03
 BYTE   W06
 BYTE   Fs1
 BYTE   W06
 BYTE   Gs1
 BYTE   N03  Dn3
 BYTE   W06
 BYTE   PEND 
// 007   ----------------------------------------
Label_8_014E6521:
 BYTE   N03  Cn1  v100
 BYTE   N03  Fs1
 BYTE   W06
 BYTE   Gs1
 BYTE   W06
 BYTE   N03
 BYTE   W06
 BYTE   Cn1
 BYTE   N03  Fs1
 BYTE   W06
 BYTE   Gs1
 BYTE   W06
 BYTE   Dn1
 BYTE   N03  Gs1
 BYTE   W06
 BYTE   Cn1
 BYTE   N03  Fs1
 BYTE   W06
 BYTE   Gs1
 BYTE   N03  En3
 BYTE   W06
 BYTE   Cn1
 BYTE   N03  Gs1
 BYTE   W06
 BYTE   N03
 BYTE   N03  En3
 BYTE   W06
 BYTE   Gs1
 BYTE   W06
 BYTE   Cn1
 BYTE   N03  Gs1
 BYTE   W06
 BYTE   Dn1
 BYTE   N03  Gs1
 BYTE   W06
 BYTE   N03
 BYTE   W06
 BYTE   En1
 BYTE   N03  Fs1
 BYTE   W06
 BYTE   Cn1
 BYTE   N03  Gs1
 BYTE   W06
 BYTE   PEND 
// 008   ----------------------------------------
 BYTE   PATT
  POIN2 Label_8_014E647E
// 009   ----------------------------------------
 BYTE   PATT
  POIN2 Label_8_014E647E
// 010   ----------------------------------------
Label_8_014E6564:
 BYTE   N03  Cn1  v100
 BYTE   N03  Fs1
 BYTE   W12
 BYTE   Gs1
 BYTE   W06
 BYTE   Cn1
 BYTE   N03  Gs1
 BYTE   W06
 BYTE   N03
 BYTE   W06
 BYTE   Fs1
 BYTE   W06
 BYTE   Cn1
 BYTE   W06
 BYTE   Fs1
 BYTE   W06
 BYTE   Cn1
 BYTE   N03  Gs1
 BYTE   W06
 BYTE   Fs1
 BYTE   W12
 BYTE   Cn1
 BYTE   N03  Gs1
 BYTE   W06
 BYTE   Fs1
 BYTE   W12
 BYTE   Cn1
 BYTE   N03  Fs1
 BYTE   W06
 BYTE   Gs1
 BYTE   W06
 BYTE   PEND 
// 011   ----------------------------------------
Label_8_014E658B:
 BYTE   N03  Cn1  v100
 BYTE   N03  Fs1
 BYTE   W12
 BYTE   Gs1
 BYTE   W06
 BYTE   Cn1
 BYTE   N03  Gs1
 BYTE   W06
 BYTE   N03
 BYTE   W06
 BYTE   Fs1
 BYTE   W06
 BYTE   Cn1
 BYTE   W06
 BYTE   Fs1
 BYTE   W06
 BYTE   Cn1
 BYTE   N03  Gs1
 BYTE   W06
 BYTE   Cn1
 BYTE   N03  Fs1
 BYTE   W12
 BYTE   Cn1
 BYTE   N03  Gs1
 BYTE   W06
 BYTE   Fs1
 BYTE   W12
 BYTE   Cn1
 BYTE   N03  Fs1
 BYTE   W06
 BYTE   Gs1
 BYTE   W06
 BYTE   PEND 
// 012   ----------------------------------------
 BYTE   PATT
  POIN2 Label_8_014E6564
// 013   ----------------------------------------
Label_8_014E65B9:
 BYTE   N03  Cn1  v100
 BYTE   N03  Fs1
 BYTE   W12
 BYTE   Gs1
 BYTE   W06
 BYTE   Cn1
 BYTE   N03  Gs1
 BYTE   W06
 BYTE   Cn1
 BYTE   N03  Gs1
 BYTE   W06
 BYTE   Dn1
 BYTE   N03  Fs1
 BYTE   W12
 BYTE   Cn1
 BYTE   N03  Fs1
 BYTE   W06
 BYTE   Cn1
 BYTE   N03  Gs1
 BYTE   W06
 BYTE   Fs1
 BYTE   W12
 BYTE   Cn1
 BYTE   N03  Gs1
 BYTE   W06
 BYTE   Fs1
 BYTE   W12
 BYTE   Cn1
 BYTE   N03  Fs1
 BYTE   W06
 BYTE   Gs1
 BYTE   W06
 BYTE   PEND 
// 014   ----------------------------------------
Label_8_014E65E4:
 BYTE   N03  Cn1  v100
 BYTE   N03  Gs1
 BYTE   W12
 BYTE   N03
 BYTE   W06
 BYTE   Cn1
 BYTE   N03  Gs1
 BYTE   W06
 BYTE   Dn1
 BYTE   N03  Gs1
 BYTE   W06
 BYTE   Cn1
 BYTE   W06
 BYTE   Fs1
 BYTE   W06
 BYTE   Cn1
 BYTE   N03  Gs1
 BYTE   W06
 BYTE   Cn1
 BYTE   N03  Gs1
 BYTE   W12
 BYTE   Cn1
 BYTE   N03  Gs1
 BYTE   W06
 BYTE   N03
 BYTE   W06
 BYTE   Dn1
 BYTE   N03  Gs1
 BYTE   W06
 BYTE   Cn1
 BYTE   N03  Gs1
 BYTE   W06
 BYTE   Fs1
 BYTE   W06
 BYTE   Cn1
 BYTE   N03  Gs1
 BYTE   W06
 BYTE   PEND 
// 015   ----------------------------------------
 BYTE   PATT
  POIN2 Label_8_014E65E4
// 016   ----------------------------------------
Label_8_014E661A:
 BYTE   N03  Dn1  v100
 BYTE   N03  Gs1
 BYTE   W12
 BYTE   Dn1
 BYTE   N03  Gs1
 BYTE   W06
 BYTE   Cn1
 BYTE   N03  Gs1
 BYTE   W06
 BYTE   Cn1
 BYTE   N03  Gs1
 BYTE   W06
 BYTE   Dn1
 BYTE   W06
 BYTE   Fs1
 BYTE   W06
 BYTE   Cn1
 BYTE   N03  Gs1
 BYTE   W06
 BYTE   Cn1
 BYTE   N03  Gs1
 BYTE   W06
 BYTE   Cn1
 BYTE   W06
 BYTE   N03
 BYTE   N03  Gs1
 BYTE   W06
 BYTE   N03
 BYTE   W06
 BYTE   Dn1
 BYTE   N03  Gs1
 BYTE   W06
 BYTE   Cn1
 BYTE   N03  Gs1
 BYTE   W06
 BYTE   Fs1
 BYTE   W06
 BYTE   Cn1
 BYTE   N03  Gs1
 BYTE   W06
 BYTE   PEND 
// 017   ----------------------------------------
Label_8_014E664F:
 BYTE   N03  Cn1  v100
 BYTE   N03  Gs1
 BYTE   W12
 BYTE   Dn1
 BYTE   N03  Gs1
 BYTE   W06
 BYTE   Cn1
 BYTE   N03  Gs1
 BYTE   W06
 BYTE   Cn1
 BYTE   N03  Gs1
 BYTE   W06
 BYTE   Dn1
 BYTE   W06
 BYTE   Fs1
 BYTE   W06
 BYTE   Cn1
 BYTE   N03  Gs1
 BYTE   W06
 BYTE   Dn1
 BYTE   N03  Gs1
 BYTE   W06
 BYTE   Cn1
 BYTE   W06
 BYTE   Dn1
 BYTE   N03  Gs1
 BYTE   W06
 BYTE   N03
 BYTE   W06
 BYTE   Dn1
 BYTE   N03  Gs1
 BYTE   W06
 BYTE   Dn1
 BYTE   N03  Gs1
 BYTE   W06
 BYTE   En1
 BYTE   N03  Fs1
 BYTE   W06
 BYTE   Cn1
 BYTE   N03  Gs1
 BYTE   W06
 BYTE   PEND 
// 018   ----------------------------------------
 BYTE   PATT
  POIN2 Label_8_014E6412
// 019   ----------------------------------------
 BYTE   PATT
  POIN2 Label_8_014E6445
// 020   ----------------------------------------
 BYTE   PATT
  POIN2 Label_8_014E647E
// 021   ----------------------------------------
 BYTE   PATT
  POIN2 Label_8_014E64B3
// 022   ----------------------------------------
 BYTE   PATT
  POIN2 Label_8_014E64EC
// 023   ----------------------------------------
 BYTE   PATT
  POIN2 Label_8_014E6521
// 024   ----------------------------------------
 BYTE   PATT
  POIN2 Label_8_014E647E
// 025   ----------------------------------------
 BYTE   PATT
  POIN2 Label_8_014E647E
// 026   ----------------------------------------
 BYTE   PATT
  POIN2 Label_8_014E6564
// 027   ----------------------------------------
 BYTE   PATT
  POIN2 Label_8_014E658B
// 028   ----------------------------------------
 BYTE   PATT
  POIN2 Label_8_014E6564
// 029   ----------------------------------------
 BYTE   PATT
  POIN2 Label_8_014E65B9
// 030   ----------------------------------------
 BYTE   PATT
  POIN2 Label_8_014E65E4
// 031   ----------------------------------------
 BYTE   PATT
  POIN2 Label_8_014E65E4
// 032   ----------------------------------------
 BYTE   PATT
  POIN2 Label_8_014E661A
// 033   ----------------------------------------
 BYTE   GoTo
  POIN2 Label_8_014E664F
// 034   ----------------------------------------
 BYTE   PATT
  POIN2 Label_8_014E664F
 BYTE   FINE

//******************************************************//
	ALIGN 4

PokemonRSEEncounterChampionMeatOfJustice:
	BYTE	9	// NumTrks
	BYTE	0	// NumBlks
	BYTE	PokemonRSEEncounterChampionMeatOfJustice_pri	// Priority
	BYTE	PokemonRSEEncounterChampionMeatOfJustice_rev	// Reverb.
    
	POIN2	PokemonRSEEncounterChampionMeatOfJustice_grp
    
	POIN2	PokemonRSEEncounterChampionMeatOfJustice_001
	POIN2	PokemonRSEEncounterChampionMeatOfJustice_002
	POIN2	PokemonRSEEncounterChampionMeatOfJustice_003
	POIN2	PokemonRSEEncounterChampionMeatOfJustice_004
	POIN2	PokemonRSEEncounterChampionMeatOfJustice_005
	POIN2	PokemonRSEEncounterChampionMeatOfJustice_006
	POIN2	PokemonRSEEncounterChampionMeatOfJustice_007
	POIN2	PokemonRSEEncounterChampionMeatOfJustice_008
	POIN2	PokemonRSEEncounterChampionMeatOfJustice_009

	
