//Event file generated from Sappy .s format.
	#include "MPlayDef.event"

	#define	PokemonTCG2RonaldsThemePandan_grp  voicegroup000
	#define	PokemonTCG2RonaldsThemePandan_pri  0
	#define	PokemonTCG2RonaldsThemePandan_rev  0
	#define	PokemonTCG2RonaldsThemePandan_mvl  127
	#define	PokemonTCG2RonaldsThemePandan_key  0
	#define	PokemonTCG2RonaldsThemePandan_tbs  1
	#define	PokemonTCG2RonaldsThemePandan_exg  0
	#define	PokemonTCG2RonaldsThemePandan_cmp  1

	// .rodata
	//	PokemonTCG2RonaldsThemePandan
	ALIGN 4


//**************** Track 1 (Midi-Chn.0) ****************//

PokemonTCG2RonaldsThemePandan_001:
// 000   ----------------------------------------
 BYTE   VOL   75*PokemonTCG2RonaldsThemePandan_mvl/mxv
 BYTE   KEYSH   PokemonTCG2RonaldsThemePandan_key+0
 BYTE   TEMPO   130*PokemonTCG2RonaldsThemePandan_tbs/2
 BYTE   VOICE   36
 BYTE   W88
 BYTE   W01
Label_0_01891216:
 BYTE   W07
// 001   ----------------------------------------
Label_0_01891217:
 BYTE   N17  Gn1  v127
 BYTE   W18
 BYTE   N05
 BYTE   W06
 BYTE   N04
 BYTE   W06
 BYTE   Fn1
 BYTE   W06
 BYTE   N04
 BYTE   W06
 BYTE   Fs1
 BYTE   W06
 BYTE   Gn1
 BYTE   W06
 BYTE   N04
 BYTE   W12
 BYTE   Fn1
 BYTE   W06
 BYTE   Gn1
 BYTE   W12
 BYTE   N24  Cn2
 BYTE   W12
 BYTE   PEND 
// 002   ----------------------------------------
Label_0_01891231:
 BYTE   W18
 BYTE   N04  Cn2  v127
 BYTE   W06
 BYTE   N11  En1
 BYTE   W12
 BYTE   N04
 BYTE   W06
 BYTE   N11  Fn1
 BYTE   W12
 BYTE   N04
 BYTE   W06
 BYTE   N12  Fs1
 BYTE   W12
 BYTE   Gn1
 BYTE   W12
 BYTE   N04  As1
 BYTE   W06
 BYTE   An1
 BYTE   W06
 BYTE   PEND 
// 003   ----------------------------------------
Label_0_0189124B:
 BYTE   N17  Gn1  v127
 BYTE   W18
 BYTE   N06
 BYTE   W06
 BYTE   N04  As2
 BYTE   W06
 BYTE   Fn1
 BYTE   W06
 BYTE   N04
 BYTE   W06
 BYTE   Fs1
 BYTE   W06
 BYTE   Gn1
 BYTE   W06
 BYTE   N04
 BYTE   W12
 BYTE   Fn1
 BYTE   W06
 BYTE   Gn1
 BYTE   W12
 BYTE   N24  Cn2
 BYTE   W12
 BYTE   PEND 
// 004   ----------------------------------------
Label_0_01891266:
 BYTE   W18
 BYTE   N04  Cn2  v127
 BYTE   W06
 BYTE   N11  En1
 BYTE   W12
 BYTE   N04
 BYTE   W06
 BYTE   N11  Fn1
 BYTE   W12
 BYTE   N04
 BYTE   W06
 BYTE   N12  Fs1
 BYTE   W12
 BYTE   Gn1
 BYTE   W12
 BYTE   N04  Cn2
 BYTE   W12
 BYTE   PEND 
 BYTE   PATT
  POIN2 Label_0_01891217
 BYTE   PATT
  POIN2 Label_0_01891231
 BYTE   PATT
  POIN2 Label_0_0189124B
 BYTE   PATT
  POIN2 Label_0_01891266
// 005   ----------------------------------------
Label_0_01891292:
 BYTE   N17  Gn1  v127
 BYTE   W18
 BYTE   N04
 BYTE   W06
 BYTE   Dn2
 BYTE   W06
 BYTE   Gn1
 BYTE   W06
 BYTE   Dn2
 BYTE   W06
 BYTE   Gn2
 BYTE   W06
 BYTE   Gn1
 BYTE   W06
 BYTE   N04
 BYTE   W06
 BYTE   Dn2
 BYTE   W06
 BYTE   Gn1
 BYTE   W06
 BYTE   N12  Dn2
 BYTE   W12
 BYTE   N17  Cn2
 BYTE   W12
 BYTE   PEND 
// 006   ----------------------------------------
Label_0_018912AF:
 BYTE   W06
 BYTE   N04  Cn2  v127
 BYTE   W06
 BYTE   N04
 BYTE   W06
 BYTE   Gn1
 BYTE   W06
 BYTE   N11  En1
 BYTE   W12
 BYTE   N04
 BYTE   W06
 BYTE   Fn1
 BYTE   W12
 BYTE   N04
 BYTE   W06
 BYTE   N12  Fs1
 BYTE   W12
 BYTE   Gn1
 BYTE   W12
 BYTE   N04  Cn2
 BYTE   W12
 BYTE   PEND 
 BYTE   PATT
  POIN2 Label_0_01891292
 BYTE   PATT
  POIN2 Label_0_018912AF
 BYTE   PATT
  POIN2 Label_0_01891292
 BYTE   PATT
  POIN2 Label_0_018912AF
 BYTE   PATT
  POIN2 Label_0_01891292
 BYTE   PATT
  POIN2 Label_0_018912AF
 BYTE   PATT
  POIN2 Label_0_01891292
 BYTE   PATT
  POIN2 Label_0_018912AF
 BYTE   PATT
  POIN2 Label_0_01891292
 BYTE   PATT
  POIN2 Label_0_018912AF
 BYTE   PATT
  POIN2 Label_0_01891292
 BYTE   PATT
  POIN2 Label_0_018912AF
 BYTE   PATT
  POIN2 Label_0_01891292
 BYTE   PATT
  POIN2 Label_0_018912AF
 BYTE   PATT
  POIN2 Label_0_01891292
 BYTE   PATT
  POIN2 Label_0_018912AF
 BYTE   PATT
  POIN2 Label_0_01891292
 BYTE   PATT
  POIN2 Label_0_018912AF
 BYTE   PATT
  POIN2 Label_0_01891292
 BYTE   PATT
  POIN2 Label_0_018912AF
 BYTE   PATT
  POIN2 Label_0_01891292
 BYTE   PATT
  POIN2 Label_0_018912AF
 BYTE   PATT
  POIN2 Label_0_01891292
 BYTE   PATT
  POIN2 Label_0_018912AF
 BYTE   PATT
  POIN2 Label_0_01891292
 BYTE   PATT
  POIN2 Label_0_018912AF
 BYTE   PATT
  POIN2 Label_0_01891292
 BYTE   PATT
  POIN2 Label_0_018912AF
 BYTE   PATT
  POIN2 Label_0_01891292
 BYTE   PATT
  POIN2 Label_0_018912AF
// 007   ----------------------------------------
Label_0_01891360:
 BYTE   N17  Ds1  v127
 BYTE   W18
 BYTE   N04
 BYTE   W06
 BYTE   As1
 BYTE   W06
 BYTE   Ds1
 BYTE   W06
 BYTE   As1
 BYTE   W06
 BYTE   Cn2
 BYTE   W12
 BYTE   Dn2
 BYTE   W06
 BYTE   As1
 BYTE   W06
 BYTE   Fn1
 BYTE   W06
 BYTE   N12  Ds1
 BYTE   W12
 BYTE   N18  Dn1
 BYTE   W12
 BYTE   PEND 
// 008   ----------------------------------------
Label_0_0189137B:
 BYTE   W06
 BYTE   N04  An1  v127
 BYTE   W06
 BYTE   Cn2
 BYTE   W06
 BYTE   Dn2
 BYTE   W06
 BYTE   N12  Dn1
 BYTE   W12
 BYTE   N04  An1
 BYTE   W06
 BYTE   Cn2
 BYTE   W12
 BYTE   N18  Dn2
 BYTE   W18
 BYTE   N12  Cn2
 BYTE   W12
 BYTE   N04  Dn2
 BYTE   W12
 BYTE   PEND 
// 009   ----------------------------------------
Label_0_01891396:
 BYTE   N17  Cn1  v127
 BYTE   W18
 BYTE   N04
 BYTE   W06
 BYTE   Gn1
 BYTE   W06
 BYTE   An1
 BYTE   W06
 BYTE   As1
 BYTE   W06
 BYTE   Cn2
 BYTE   W06
 BYTE   Cn1
 BYTE   W06
 BYTE   N04
 BYTE   W06
 BYTE   Cn2
 BYTE   W06
 BYTE   Gn1
 BYTE   W06
 BYTE   Cn1
 BYTE   W12
 BYTE   N17  Dn1
 BYTE   W12
 BYTE   PEND 
// 010   ----------------------------------------
Label_0_018913B2:
 BYTE   W06
 BYTE   N04  Dn1  v127
 BYTE   W06
 BYTE   An1
 BYTE   W06
 BYTE   Cn2
 BYTE   W06
 BYTE   N12  Dn1
 BYTE   W12
 BYTE   N04  An1
 BYTE   W06
 BYTE   Cn2
 BYTE   W12
 BYTE   N18  Dn2
 BYTE   W18
 BYTE   N12  An1
 BYTE   W12
 BYTE   N04  Dn1
 BYTE   W12
 BYTE   PEND 
// 011   ----------------------------------------
Label_0_018913CD:
 BYTE   N17  Ds1  v127
 BYTE   W18
 BYTE   N04
 BYTE   W06
 BYTE   As1
 BYTE   W06
 BYTE   Ds1
 BYTE   W06
 BYTE   As1
 BYTE   W06
 BYTE   Cn2
 BYTE   W12
 BYTE   Dn2
 BYTE   W06
 BYTE   As1
 BYTE   W06
 BYTE   Fn1
 BYTE   W06
 BYTE   N12  Ds1
 BYTE   W12
 BYTE   N18  Gs1
 BYTE   W12
 BYTE   PEND 
// 012   ----------------------------------------
Label_0_018913E8:
 BYTE   W06
 BYTE   N04  Ds2  v127
 BYTE   W06
 BYTE   Fs2
 BYTE   W06
 BYTE   Gs2
 BYTE   W06
 BYTE   N12  Gs1
 BYTE   W12
 BYTE   N04  Ds2
 BYTE   W06
 BYTE   Fs2
 BYTE   W12
 BYTE   N18  Gs2
 BYTE   W18
 BYTE   N12  Fs2
 BYTE   W12
 BYTE   N04  Ds2
 BYTE   W12
 BYTE   PEND 
// 013   ----------------------------------------
Label_0_01891403:
 BYTE   N17  An1  v127
 BYTE   W18
 BYTE   N04
 BYTE   W06
 BYTE   Gn2
 BYTE   W06
 BYTE   En2
 BYTE   W06
 BYTE   An1
 BYTE   W06
 BYTE   En1
 BYTE   W06
 BYTE   An1
 BYTE   W06
 BYTE   N04
 BYTE   W06
 BYTE   Gn2
 BYTE   W06
 BYTE   En2
 BYTE   W06
 BYTE   An1
 BYTE   W12
 BYTE   N72  Gs1
 BYTE   W12
 BYTE   PEND 
// 014   ----------------------------------------
 BYTE   W96
 BYTE   PATT
  POIN2 Label_0_01891217
 BYTE   PATT
  POIN2 Label_0_01891231
 BYTE   PATT
  POIN2 Label_0_0189124B
 BYTE   PATT
  POIN2 Label_0_01891266
 BYTE   PATT
  POIN2 Label_0_01891217
 BYTE   PATT
  POIN2 Label_0_01891231
 BYTE   PATT
  POIN2 Label_0_0189124B
 BYTE   PATT
  POIN2 Label_0_01891266
 BYTE   PATT
  POIN2 Label_0_01891292
 BYTE   PATT
  POIN2 Label_0_018912AF
 BYTE   PATT
  POIN2 Label_0_01891292
 BYTE   PATT
  POIN2 Label_0_018912AF
 BYTE   PATT
  POIN2 Label_0_01891292
 BYTE   PATT
  POIN2 Label_0_018912AF
 BYTE   PATT
  POIN2 Label_0_01891292
 BYTE   PATT
  POIN2 Label_0_018912AF
 BYTE   PATT
  POIN2 Label_0_01891292
 BYTE   PATT
  POIN2 Label_0_018912AF
 BYTE   PATT
  POIN2 Label_0_01891292
 BYTE   PATT
  POIN2 Label_0_018912AF
 BYTE   PATT
  POIN2 Label_0_01891292
 BYTE   PATT
  POIN2 Label_0_018912AF
 BYTE   PATT
  POIN2 Label_0_01891292
 BYTE   PATT
  POIN2 Label_0_018912AF
 BYTE   PATT
  POIN2 Label_0_01891292
 BYTE   PATT
  POIN2 Label_0_018912AF
 BYTE   PATT
  POIN2 Label_0_01891292
 BYTE   PATT
  POIN2 Label_0_018912AF
 BYTE   PATT
  POIN2 Label_0_01891292
 BYTE   PATT
  POIN2 Label_0_018912AF
 BYTE   PATT
  POIN2 Label_0_01891292
 BYTE   PATT
  POIN2 Label_0_018912AF
 BYTE   PATT
  POIN2 Label_0_01891292
 BYTE   PATT
  POIN2 Label_0_018912AF
 BYTE   PATT
  POIN2 Label_0_01891292
 BYTE   PATT
  POIN2 Label_0_018912AF
 BYTE   PATT
  POIN2 Label_0_01891292
 BYTE   PATT
  POIN2 Label_0_018912AF
 BYTE   PATT
  POIN2 Label_0_01891292
 BYTE   PATT
  POIN2 Label_0_018912AF
 BYTE   PATT
  POIN2 Label_0_01891360
 BYTE   PATT
  POIN2 Label_0_0189137B
 BYTE   PATT
  POIN2 Label_0_01891396
 BYTE   PATT
  POIN2 Label_0_018913B2
 BYTE   PATT
  POIN2 Label_0_018913CD
 BYTE   PATT
  POIN2 Label_0_018913E8
 BYTE   PATT
  POIN2 Label_0_01891403
// 015   ----------------------------------------
 BYTE   W56
 BYTE   W03
 BYTE   GoTo
  POIN2 Label_0_01891216
// 016   ----------------------------------------
 BYTE   W01
 BYTE   VOL   57*PokemonTCG2RonaldsThemePandan_mvl/mxv
 BYTE   PAN   c_v+0
 BYTE   W36
 BYTE   FINE

//**************** Track 2 (Midi-Chn.1) ****************//

PokemonTCG2RonaldsThemePandan_002:
// 000   ----------------------------------------
 BYTE   KEYSH   PokemonTCG2RonaldsThemePandan_key+0
 BYTE   VOICE   73
 BYTE   PAN   c_v-1
 BYTE   VOL   57*PokemonTCG2RonaldsThemePandan_mvl/mxv
 BYTE   W88
 BYTE   W01
Label_1_01891526:
 BYTE   W07
// 001   ----------------------------------------
Label_1_01891527:
 BYTE   N04  As2  v127
 BYTE   N04  Dn3
 BYTE   W06
 BYTE   N02  Gn2  v100
 BYTE   N02  Dn3
 BYTE   W06
 BYTE   N04  As2  v127
 BYTE   N04  Dn3
 BYTE   W06
 BYTE   Gn2  v104
 BYTE   N04  As2
 BYTE   W06
 BYTE   Dn3  v108
 BYTE   N04  Fn3  v088
 BYTE   W06
 BYTE   Gn2  v127
 BYTE   N04  As2  v080
 BYTE   W06
 BYTE   N04
 BYTE   N04  Dn3  v064
 BYTE   W06
 BYTE   As2  v127
 BYTE   W12
 BYTE   N02  As2  v100
 BYTE   W03
 BYTE   Cn3
 BYTE   W03
 BYTE   N04  As2  v127
 BYTE   N04  Dn3
 BYTE   W18
 BYTE   N02  Gn2  v100
 BYTE   W03
 BYTE   As2
 BYTE   W03
 BYTE   N04  Gn2  v127
 BYTE   N04  Cn3
 BYTE   W12
 BYTE   PEND 
// 002   ----------------------------------------
Label_1_0189156B:
 BYTE   W06
 BYTE   N02  Gn2  v100
 BYTE   W06
 BYTE   N04  As2  v127
 BYTE   N04  Cn3
 BYTE   W06
 BYTE   N02  Gn2  v100
 BYTE   W06
 BYTE   As2
 BYTE   W06
 BYTE   Gn2
 BYTE   W06
 BYTE   N04  Dn3  v127
 BYTE   N04  Fn3
 BYTE   W06
 BYTE   N02  Cn3  v100
 BYTE   W06
 BYTE   Gn2
 BYTE   W06
 BYTE   Cn3
 BYTE   W06
 BYTE   N36  Cn3  v127
 BYTE   N36  En3
 BYTE   W36
 BYTE   PEND 
// 003   ----------------------------------------
Label_1_01891593:
 BYTE   N04  As2  v127
 BYTE   N04  Dn3
 BYTE   W06
 BYTE   N02  Gn2  v100
 BYTE   N02  Dn3
 BYTE   W06
 BYTE   N04  Dn3  v127
 BYTE   N02  Gn3  v108
 BYTE   W06
 BYTE   N04  Gn2  v104
 BYTE   N04  As2
 BYTE   W06
 BYTE   Dn3  v108
 BYTE   N04  Fn3  v088
 BYTE   W06
 BYTE   Gn2  v127
 BYTE   N04  As2  v080
 BYTE   W06
 BYTE   N04
 BYTE   N04  Dn3  v064
 BYTE   W06
 BYTE   As2  v127
 BYTE   W12
 BYTE   N02  Dn3  v108
 BYTE   W03
 BYTE   En3
 BYTE   W03
 BYTE   N04  Dn3  v127
 BYTE   N04  Fn3
 BYTE   W18
 BYTE   N02  Gn2  v100
 BYTE   W03
 BYTE   As2
 BYTE   W03
 BYTE   N04  Gn2  v127
 BYTE   N04  Cn3
 BYTE   W12
 BYTE   PEND 
// 004   ----------------------------------------
Label_1_018915D9:
 BYTE   W06
 BYTE   N02  Gn2  v100
 BYTE   W06
 BYTE   N04  Cn3  v127
 BYTE   N04  Fn3  v100
 BYTE   W06
 BYTE   N02  Gn2
 BYTE   W06
 BYTE   As2
 BYTE   W06
 BYTE   Gn2
 BYTE   W06
 BYTE   N04  Fn3  v127
 BYTE   N04  An3
 BYTE   W06
 BYTE   N02  Cn3  v100
 BYTE   W06
 BYTE   Gn2
 BYTE   W06
 BYTE   Cn3
 BYTE   W06
 BYTE   N36  En3  v127
 BYTE   N36  Gn3
 BYTE   W36
 BYTE   PEND 
 BYTE   PATT
  POIN2 Label_1_01891527
 BYTE   PATT
  POIN2 Label_1_0189156B
 BYTE   PATT
  POIN2 Label_1_01891593
 BYTE   PATT
  POIN2 Label_1_018915D9
// 005   ----------------------------------------
Label_1_01891615:
 BYTE   W24
 BYTE   N04  As2  v127
 BYTE   N04  Dn3
 BYTE   W36
 BYTE   As2
 BYTE   N04  Dn3
 BYTE   W24
 BYTE   An2
 BYTE   N04  Cn3
 BYTE   W12
 BYTE   PEND 
// 006   ----------------------------------------
Label_1_01891625:
 BYTE   W12
 BYTE   N04  As2  v127
 BYTE   N04  Dn3
 BYTE   W24
 BYTE   As2
 BYTE   N04  Dn3
 BYTE   W24
 BYTE   N36  Cn3
 BYTE   W36
 BYTE   PEND 
// 007   ----------------------------------------
Label_1_01891634:
 BYTE   W24
 BYTE   N04  As2  v127
 BYTE   N04  Dn3
 BYTE   N04  Fn3
 BYTE   W36
 BYTE   As2
 BYTE   N04  Dn3
 BYTE   N04  Fn3
 BYTE   W24
 BYTE   Gn2
 BYTE   N04  As2
 BYTE   N04  En3
 BYTE   W12
 BYTE   PEND 
// 008   ----------------------------------------
Label_1_0189164A:
 BYTE   W12
 BYTE   N04  As2  v127
 BYTE   N04  Dn3
 BYTE   N04  Fn3
 BYTE   W24
 BYTE   Dn3
 BYTE   N04  Fn3
 BYTE   N04  An3
 BYTE   W24
 BYTE   N36  Cn3  v084
 BYTE   N36  En3  v127
 BYTE   N36  Gn3
 BYTE   W36
 BYTE   PEND 
 BYTE   PATT
  POIN2 Label_1_01891615
 BYTE   PATT
  POIN2 Label_1_01891625
 BYTE   PATT
  POIN2 Label_1_01891634
 BYTE   PATT
  POIN2 Label_1_0189164A
 BYTE   PATT
  POIN2 Label_1_01891615
 BYTE   PATT
  POIN2 Label_1_01891625
 BYTE   PATT
  POIN2 Label_1_01891634
 BYTE   PATT
  POIN2 Label_1_0189164A
 BYTE   PATT
  POIN2 Label_1_01891615
 BYTE   PATT
  POIN2 Label_1_01891625
 BYTE   PATT
  POIN2 Label_1_01891634
 BYTE   PATT
  POIN2 Label_1_0189164A
// 009   ----------------------------------------
Label_1_0189169F:
 BYTE   W24
 BYTE   N04  As2  v127
 BYTE   N04  Dn3
 BYTE   W36
 BYTE   As2
 BYTE   N04  Dn3
 BYTE   W24
 BYTE   Gn2
 BYTE   W12
 BYTE   PEND 
 BYTE   PATT
  POIN2 Label_1_01891625
// 010   ----------------------------------------
Label_1_018916B2:
 BYTE   W24
 BYTE   N04  As2  v127
 BYTE   N04  Dn3
 BYTE   N04  Fn3
 BYTE   W36
 BYTE   As2
 BYTE   N04  Dn3
 BYTE   W24
 BYTE   Gn2
 BYTE   N04  As2
 BYTE   W12
 BYTE   PEND 
// 011   ----------------------------------------
Label_1_018916C4:
 BYTE   W12
 BYTE   N04  Dn3  v127
 BYTE   N04  Fn3
 BYTE   W24
 BYTE   N04
 BYTE   N04  An3
 BYTE   W24
 BYTE   N36  Gn3
 BYTE   W36
 BYTE   PEND 
 BYTE   PATT
  POIN2 Label_1_0189169F
 BYTE   PATT
  POIN2 Label_1_01891625
 BYTE   PATT
  POIN2 Label_1_018916B2
 BYTE   PATT
  POIN2 Label_1_018916C4
 BYTE   PATT
  POIN2 Label_1_0189169F
 BYTE   PATT
  POIN2 Label_1_01891625
 BYTE   PATT
  POIN2 Label_1_018916B2
 BYTE   PATT
  POIN2 Label_1_018916C4
 BYTE   PATT
  POIN2 Label_1_0189169F
 BYTE   PATT
  POIN2 Label_1_01891625
 BYTE   PATT
  POIN2 Label_1_01891634
 BYTE   PATT
  POIN2 Label_1_0189164A
 BYTE   PATT
  POIN2 Label_1_01891615
// 012   ----------------------------------------
Label_1_01891714:
 BYTE   W12
 BYTE   N04  An2  v127
 BYTE   N04  Dn3
 BYTE   W24
 BYTE   An2
 BYTE   N04  Dn3
 BYTE   W24
 BYTE   N36  An2
 BYTE   N36  Cn3
 BYTE   W36
 BYTE   PEND 
 BYTE   PATT
  POIN2 Label_1_01891615
// 013   ----------------------------------------
Label_1_0189172A:
 BYTE   W12
 BYTE   N04  As2  v127
 BYTE   N04  Dn3
 BYTE   W24
 BYTE   N04
 BYTE   N04  Fn3
 BYTE   N04  An3
 BYTE   W24
 BYTE   N36  Fn3
 BYTE   W36
 BYTE   PEND 
// 014   ----------------------------------------
Label_1_0189173B:
 BYTE   W24
 BYTE   N04  As2  v127
 BYTE   N04  Dn3
 BYTE   W36
 BYTE   As2
 BYTE   N04  Dn3
 BYTE   W24
 BYTE   Cn3
 BYTE   W12
 BYTE   PEND 
// 015   ----------------------------------------
Label_1_01891749:
 BYTE   W12
 BYTE   N04  Gs2  v127
 BYTE   N04  Dn3
 BYTE   W24
 BYTE   Gs2
 BYTE   N04  Dn3
 BYTE   W24
 BYTE   N23  Gs2
 BYTE   N24  Cn3
 BYTE   W24
 BYTE   N04  Gs2
 BYTE   N04  Cs3
 BYTE   W12
 BYTE   PEND 
// 016   ----------------------------------------
Label_1_0189175F:
 BYTE   W24
 BYTE   N04  An2  v127
 BYTE   N04  Dn3
 BYTE   W36
 BYTE   An2
 BYTE   N04  Dn3
 BYTE   W24
 BYTE   N84  Gs2
 BYTE   N84  Bn2  v076
 BYTE   N84  Dn3  v127
 BYTE   W11
 BYTE   W01
 BYTE   PEND 
// 017   ----------------------------------------
 BYTE   W02
 BYTE   W04
 BYTE   W03
 BYTE   W03
 BYTE   W02
 BYTE   W03
 BYTE   W03
 BYTE   W03
 BYTE   W03
 BYTE   W03
 BYTE   W03
 BYTE   W04
 BYTE   W03
 BYTE   W04
 BYTE   W04
 BYTE   W03
 BYTE   W01
 BYTE   W03
 BYTE   W03
 BYTE   W02
 BYTE   W03
 BYTE   W03
 BYTE   W24
 BYTE   W01
 BYTE   W01
 BYTE   W01
 BYTE   W04
// 018   ----------------------------------------
 BYTE   N04  As2
 BYTE   N04  Dn3
 BYTE   W06
 BYTE   N02  Gn2  v100
 BYTE   N02  Dn3
 BYTE   W06
 BYTE   N04  As2  v127
 BYTE   N04  Dn3
 BYTE   W06
 BYTE   Gn2  v104
 BYTE   N04  As2
 BYTE   W06
 BYTE   Dn3  v108
 BYTE   N04  Fn3  v088
 BYTE   W06
 BYTE   Gn2  v127
 BYTE   N04  As2  v080
 BYTE   W06
 BYTE   N04
 BYTE   N04  Dn3  v064
 BYTE   W06
 BYTE   As2  v127
 BYTE   W12
 BYTE   N02  As2  v100
 BYTE   W03
 BYTE   Cn3
 BYTE   W03
 BYTE   N04  As2  v127
 BYTE   N04  Dn3
 BYTE   W18
 BYTE   N02  Gn2  v100
 BYTE   W03
 BYTE   As2
 BYTE   W03
 BYTE   N04  Gn2  v127
 BYTE   N04  Cn3
 BYTE   W12
 BYTE   PATT
  POIN2 Label_1_0189156B
 BYTE   PATT
  POIN2 Label_1_01891593
 BYTE   PATT
  POIN2 Label_1_018915D9
 BYTE   PATT
  POIN2 Label_1_01891527
 BYTE   PATT
  POIN2 Label_1_0189156B
 BYTE   PATT
  POIN2 Label_1_01891593
 BYTE   PATT
  POIN2 Label_1_018915D9
 BYTE   PATT
  POIN2 Label_1_01891615
 BYTE   PATT
  POIN2 Label_1_01891625
 BYTE   PATT
  POIN2 Label_1_01891634
 BYTE   PATT
  POIN2 Label_1_0189164A
 BYTE   PATT
  POIN2 Label_1_01891615
 BYTE   PATT
  POIN2 Label_1_01891625
 BYTE   PATT
  POIN2 Label_1_01891634
 BYTE   PATT
  POIN2 Label_1_0189164A
 BYTE   PATT
  POIN2 Label_1_01891615
 BYTE   PATT
  POIN2 Label_1_01891625
 BYTE   PATT
  POIN2 Label_1_01891634
 BYTE   PATT
  POIN2 Label_1_0189164A
 BYTE   PATT
  POIN2 Label_1_01891615
 BYTE   PATT
  POIN2 Label_1_01891625
 BYTE   PATT
  POIN2 Label_1_01891634
 BYTE   PATT
  POIN2 Label_1_0189164A
 BYTE   PATT
  POIN2 Label_1_0189169F
 BYTE   PATT
  POIN2 Label_1_01891625
 BYTE   PATT
  POIN2 Label_1_018916B2
 BYTE   PATT
  POIN2 Label_1_018916C4
 BYTE   PATT
  POIN2 Label_1_0189169F
 BYTE   PATT
  POIN2 Label_1_01891625
 BYTE   PATT
  POIN2 Label_1_018916B2
 BYTE   PATT
  POIN2 Label_1_018916C4
 BYTE   PATT
  POIN2 Label_1_0189169F
 BYTE   PATT
  POIN2 Label_1_01891625
 BYTE   PATT
  POIN2 Label_1_018916B2
 BYTE   PATT
  POIN2 Label_1_018916C4
 BYTE   PATT
  POIN2 Label_1_0189169F
 BYTE   PATT
  POIN2 Label_1_01891625
 BYTE   PATT
  POIN2 Label_1_01891634
 BYTE   PATT
  POIN2 Label_1_0189164A
 BYTE   PATT
  POIN2 Label_1_01891615
 BYTE   PATT
  POIN2 Label_1_01891714
 BYTE   PATT
  POIN2 Label_1_01891615
 BYTE   PATT
  POIN2 Label_1_0189172A
 BYTE   PATT
  POIN2 Label_1_0189173B
 BYTE   PATT
  POIN2 Label_1_01891749
 BYTE   PATT
  POIN2 Label_1_0189175F
// 019   ----------------------------------------
 BYTE   W02
 BYTE   W04
 BYTE   W03
 BYTE   W03
 BYTE   W02
 BYTE   W03
 BYTE   W03
 BYTE   W03
 BYTE   W03
 BYTE   W03
 BYTE   W03
 BYTE   W04
 BYTE   W03
 BYTE   W04
 BYTE   W04
 BYTE   W03
 BYTE   W01
 BYTE   W03
 BYTE   W03
 BYTE   W02
 BYTE   GoTo
  POIN2 Label_1_01891526
// 020   ----------------------------------------
 BYTE   W03
 BYTE   W03
 BYTE   W24
 BYTE   W01
 BYTE   W01
 BYTE   W01
 BYTE   W04
 BYTE   FINE

//**************** Track 3 (Midi-Chn.2) ****************//

PokemonTCG2RonaldsThemePandan_003:
// 000   ----------------------------------------
 BYTE   KEYSH   PokemonTCG2RonaldsThemePandan_key+0
 BYTE   VOICE   61
 BYTE   VOL   32*PokemonTCG2RonaldsThemePandan_mvl/mxv
 BYTE   PAN   c_v+0
 BYTE   W88
 BYTE   W01
Label_2_018918E6:
 BYTE   W07
// 001   ----------------------------------------
 BYTE   W96
// 002   ----------------------------------------
 BYTE   W96
// 003   ----------------------------------------
 BYTE   W96
// 004   ----------------------------------------
 BYTE   W96
// 005   ----------------------------------------
 BYTE   W96
// 006   ----------------------------------------
 BYTE   W96
// 007   ----------------------------------------
 BYTE   W96
// 008   ----------------------------------------
 BYTE   W96
// 009   ----------------------------------------
 BYTE   W96
// 010   ----------------------------------------
 BYTE   W96
// 011   ----------------------------------------
 BYTE   W96
// 012   ----------------------------------------
 BYTE   W96
// 013   ----------------------------------------
 BYTE   W96
// 014   ----------------------------------------
 BYTE   W96
// 015   ----------------------------------------
 BYTE   W96
// 016   ----------------------------------------
 BYTE   W96
// 017   ----------------------------------------
 BYTE   W96
// 018   ----------------------------------------
 BYTE   W96
// 019   ----------------------------------------
 BYTE   W96
// 020   ----------------------------------------
 BYTE   W96
// 021   ----------------------------------------
 BYTE   W96
// 022   ----------------------------------------
 BYTE   W96
// 023   ----------------------------------------
 BYTE   W96
// 024   ----------------------------------------
 BYTE   W96
// 025   ----------------------------------------
 BYTE   W96
// 026   ----------------------------------------
 BYTE   W96
// 027   ----------------------------------------
 BYTE   W96
// 028   ----------------------------------------
 BYTE   W96
// 029   ----------------------------------------
 BYTE   W96
// 030   ----------------------------------------
 BYTE   W96
// 031   ----------------------------------------
 BYTE   W96
// 032   ----------------------------------------
 BYTE   W96
// 033   ----------------------------------------
 BYTE   W96
// 034   ----------------------------------------
 BYTE   W96
// 035   ----------------------------------------
 BYTE   W96
// 036   ----------------------------------------
 BYTE   W96
// 037   ----------------------------------------
 BYTE   W96
// 038   ----------------------------------------
 BYTE   W96
// 039   ----------------------------------------
 BYTE   W96
// 040   ----------------------------------------
 BYTE   W96
// 041   ----------------------------------------
Label_2_0189190F:
 BYTE   N12  Gn3  v127
 BYTE   W12
 BYTE   N03  As3
 BYTE   W12
 BYTE   N12  Gn3
 BYTE   W12
 BYTE   N01  As3
 BYTE   W01
 BYTE   Cn4
 BYTE   W02
 BYTE   N09  Dn4
 BYTE   W21
 BYTE   N12  As3
 BYTE   W24
 BYTE   Cn4
 BYTE   W12
 BYTE   PEND 
// 042   ----------------------------------------
Label_2_01891927:
 BYTE   W12
 BYTE   N12  As3  v127
 BYTE   W12
 BYTE   Cn4
 BYTE   W12
 BYTE   N03  As3
 BYTE   W12
 BYTE   N04  Dn4
 BYTE   W04
 BYTE   Cn4
 BYTE   W05
 BYTE   N03  As3
 BYTE   W03
 BYTE   N12  Gn3
 BYTE   W12
 BYTE   N01  An3
 BYTE   W01
 BYTE   As3
 BYTE   W02
 BYTE   N09  Cn4
 BYTE   W09
 BYTE   N06  As3
 BYTE   W12
 BYTE   PEND 
// 043   ----------------------------------------
Label_2_01891948:
 BYTE   W12
 BYTE   N03  Gn4  v127
 BYTE   W12
 BYTE   N04  Cn4
 BYTE   W04
 BYTE   Cs4
 BYTE   W05
 BYTE   N03  As3
 BYTE   W03
 BYTE   N06  Gn3
 BYTE   W12
 BYTE   N12  Cn4
 BYTE   W12
 BYTE   N03  As3
 BYTE   W12
 BYTE   N06  Gn3
 BYTE   W12
 BYTE   N01  Ds4
 BYTE   W01
 BYTE   N07  Fn4
 BYTE   W11
 BYTE   PEND 
// 044   ----------------------------------------
Label_2_01891968:
 BYTE   W12
 BYTE   N09  Ds4  v127
 BYTE   W24
 BYTE   N07  Dn4
 BYTE   W24
 BYTE   Cn4
 BYTE   W24
 BYTE   N06  Cs4
 BYTE   W12
 BYTE   PEND 
// 045   ----------------------------------------
Label_2_01891976:
 BYTE   N12  Dn4  v127
 BYTE   W12
 BYTE   N06  As3
 BYTE   W12
 BYTE   Gn3
 BYTE   W12
 BYTE   N36  As3
 BYTE   W60
 BYTE   PEND 
// 046   ----------------------------------------
Label_2_01891983:
 BYTE   W24
 BYTE   N24  Cn4  v127
 BYTE   W24
 BYTE   N01  Dn4
 BYTE   W01
 BYTE   Ds4
 BYTE   W02
 BYTE   N15  Fn4
 BYTE   W15
 BYTE   N18  Dn4
 BYTE   W18
 BYTE   N06  Cn4
 BYTE   W11
 BYTE   BEND   c_v-64
 BYTE   W01
 BYTE   PEND 
// 047   ----------------------------------------
Label_2_0189199A:
 BYTE   N84  Dn4  v127
 BYTE   W05
 BYTE   BEND   c_v+0
 BYTE   W17
 BYTE   MOD 0
 BYTE   En1
 BYTE   W72
 BYTE   W02
 BYTE   PEND 
// 048   ----------------------------------------
 BYTE   W23
 BYTE   CnM2
 BYTE   W72
 BYTE   W01
// 049   ----------------------------------------
 BYTE   W96
// 050   ----------------------------------------
 BYTE   W96
// 051   ----------------------------------------
 BYTE   W96
// 052   ----------------------------------------
 BYTE   W96
// 053   ----------------------------------------
 BYTE   W96
// 054   ----------------------------------------
 BYTE   W96
// 055   ----------------------------------------
 BYTE   W96
// 056   ----------------------------------------
 BYTE   W96
// 057   ----------------------------------------
 BYTE   W96
// 058   ----------------------------------------
 BYTE   W96
// 059   ----------------------------------------
 BYTE   W96
// 060   ----------------------------------------
 BYTE   W96
// 061   ----------------------------------------
 BYTE   W96
// 062   ----------------------------------------
 BYTE   W96
// 063   ----------------------------------------
 BYTE   W96
// 064   ----------------------------------------
 BYTE   W96
// 065   ----------------------------------------
 BYTE   W96
// 066   ----------------------------------------
 BYTE   W96
// 067   ----------------------------------------
 BYTE   W96
// 068   ----------------------------------------
 BYTE   W96
// 069   ----------------------------------------
 BYTE   W96
// 070   ----------------------------------------
 BYTE   W96
// 071   ----------------------------------------
 BYTE   W96
// 072   ----------------------------------------
 BYTE   W96
// 073   ----------------------------------------
 BYTE   W96
// 074   ----------------------------------------
 BYTE   W96
// 075   ----------------------------------------
 BYTE   W96
// 076   ----------------------------------------
 BYTE   W96
// 077   ----------------------------------------
 BYTE   W96
// 078   ----------------------------------------
 BYTE   W96
// 079   ----------------------------------------
 BYTE   W96
// 080   ----------------------------------------
 BYTE   W96
// 081   ----------------------------------------
 BYTE   W96
// 082   ----------------------------------------
 BYTE   W96
// 083   ----------------------------------------
 BYTE   W96
// 084   ----------------------------------------
 BYTE   W96
// 085   ----------------------------------------
 BYTE   W96
// 086   ----------------------------------------
 BYTE   W96
// 087   ----------------------------------------
 BYTE   W96
// 088   ----------------------------------------
 BYTE   W96
 BYTE   PATT
  POIN2 Label_2_0189190F
 BYTE   PATT
  POIN2 Label_2_01891927
 BYTE   PATT
  POIN2 Label_2_01891948
 BYTE   PATT
  POIN2 Label_2_01891968
 BYTE   PATT
  POIN2 Label_2_01891976
 BYTE   PATT
  POIN2 Label_2_01891983
 BYTE   PATT
  POIN2 Label_2_0189199A
// 089   ----------------------------------------
 BYTE   W23
 BYTE   MOD 0
 BYTE   CnM2
 BYTE   W36
 BYTE   GoTo
  POIN2 Label_2_018918E6
// 090   ----------------------------------------
 BYTE   W36
 BYTE   W01
 BYTE   FINE

//**************** Track 4 (Midi-Chn.3) ****************//

PokemonTCG2RonaldsThemePandan_004:
// 000   ----------------------------------------
 BYTE   KEYSH   PokemonTCG2RonaldsThemePandan_key+0
 BYTE   VOICE   73
 BYTE   PAN   c_v-1
 BYTE   VOL   59*PokemonTCG2RonaldsThemePandan_mvl/mxv
 BYTE   W88
 BYTE   W01
Label_3_01891A0E:
 BYTE   W07
// 001   ----------------------------------------
 BYTE   W96
// 002   ----------------------------------------
 BYTE   W96
// 003   ----------------------------------------
 BYTE   W96
// 004   ----------------------------------------
 BYTE   W96
// 005   ----------------------------------------
 BYTE   W96
// 006   ----------------------------------------
 BYTE   W96
// 007   ----------------------------------------
 BYTE   W96
// 008   ----------------------------------------
 BYTE   W96
// 009   ----------------------------------------
Label_3_01891A17:
 BYTE   W24
 BYTE   N01  Gn4  v127
 BYTE   W01
 BYTE   N04  An4
 BYTE   W23
 BYTE   N12  Fn4
 BYTE   W12
 BYTE   N06  Dn4
 BYTE   W24
 BYTE   En4
 BYTE   W12
 BYTE   PEND 
// 010   ----------------------------------------
Label_3_01891A28:
 BYTE   W12
 BYTE   N12  Fn4  v127
 BYTE   W12
 BYTE   Gn4
 BYTE   W12
 BYTE   N06  En4
 BYTE   W24
 BYTE   Cn4
 BYTE   W24
 BYTE   N03
 BYTE   W03
 BYTE   N36  Dn4
 BYTE   W09
 BYTE   PEND 
// 011   ----------------------------------------
 BYTE   W96
// 012   ----------------------------------------
 BYTE   W96
 BYTE   PATT
  POIN2 Label_3_01891A17
 BYTE   PATT
  POIN2 Label_3_01891A28
// 013   ----------------------------------------
 BYTE   W96
// 014   ----------------------------------------
 BYTE   W96
// 015   ----------------------------------------
Label_3_01891A48:
 BYTE   N03  Dn4  v127
 BYTE   W03
 BYTE   N09  En4
 BYTE   W09
 BYTE   N06  Fn4
 BYTE   W12
 BYTE   Gn4
 BYTE   W12
 BYTE   En4
 BYTE   W24
 BYTE   Cn4
 BYTE   W24
 BYTE   Dn4
 BYTE   W12
 BYTE   PEND 
// 016   ----------------------------------------
Label_3_01891A5B:
 BYTE   W12
 BYTE   N12  En4  v127
 BYTE   W12
 BYTE   N06  Fn4
 BYTE   W12
 BYTE   N12  Gn4
 BYTE   W12
 BYTE   En4
 BYTE   W12
 BYTE   N06  Cn4
 BYTE   W24
 BYTE   N03
 BYTE   W03
 BYTE   N32  Dn4
 BYTE   W09
 BYTE   PEND 
// 017   ----------------------------------------
 BYTE   W96
// 018   ----------------------------------------
 BYTE   W96
 BYTE   PATT
  POIN2 Label_3_01891A48
 BYTE   PATT
  POIN2 Label_3_01891A5B
// 019   ----------------------------------------
 BYTE   W96
// 020   ----------------------------------------
 BYTE   W96
// 021   ----------------------------------------
Label_3_01891A7F:
 BYTE   W24
 BYTE   N01  En4  v127
 BYTE   N01  Gn4
 BYTE   W01
 BYTE   N04  Fn4
 BYTE   N04  An4
 BYTE   W23
 BYTE   N11  Dn4
 BYTE   N12  Fn4
 BYTE   W12
 BYTE   N06  As3
 BYTE   N06  Dn4
 BYTE   W24
 BYTE   Cn4
 BYTE   N06  En4
 BYTE   W12
 BYTE   PEND 
// 022   ----------------------------------------
Label_3_01891A9A:
 BYTE   W12
 BYTE   N12  Dn4  v127
 BYTE   N12  Fn4
 BYTE   W12
 BYTE   N11  En4
 BYTE   N12  Gn4
 BYTE   W12
 BYTE   N06  Cn4
 BYTE   N06  En4
 BYTE   W24
 BYTE   An3
 BYTE   N06  Cn4
 BYTE   W24
 BYTE   As3
 BYTE   N06  Dn4
 BYTE   W12
 BYTE   PEND 
// 023   ----------------------------------------
 BYTE   W96
// 024   ----------------------------------------
 BYTE   W96
 BYTE   PATT
  POIN2 Label_3_01891A7F
 BYTE   PATT
  POIN2 Label_3_01891A9A
// 025   ----------------------------------------
 BYTE   W96
// 026   ----------------------------------------
 BYTE   W96
// 027   ----------------------------------------
Label_3_01891AC2:
 BYTE   N12  Cn4  v127
 BYTE   N12  En4
 BYTE   W12
 BYTE   N06  Dn4
 BYTE   N06  Fn4
 BYTE   W12
 BYTE   En4
 BYTE   N06  Gn4
 BYTE   W12
 BYTE   Cn4
 BYTE   N06  En4
 BYTE   W24
 BYTE   An3
 BYTE   N06  Cn4
 BYTE   W24
 BYTE   As3
 BYTE   N06  Dn4
 BYTE   W12
 BYTE   PEND 
// 028   ----------------------------------------
Label_3_01891ADE:
 BYTE   W12
 BYTE   N12  Cn4  v127
 BYTE   N12  En4
 BYTE   W12
 BYTE   N06  Dn4
 BYTE   N06  Fn4
 BYTE   W12
 BYTE   N11  En4
 BYTE   N12  Gn4
 BYTE   W12
 BYTE   N11  Cn4
 BYTE   N12  En4
 BYTE   W12
 BYTE   N06  An3
 BYTE   N06  Cn4
 BYTE   W24
 BYTE   N09  As3
 BYTE   N09  Dn4
 BYTE   W12
 BYTE   PEND 
// 029   ----------------------------------------
 BYTE   W96
// 030   ----------------------------------------
 BYTE   W96
 BYTE   PATT
  POIN2 Label_3_01891AC2
// 031   ----------------------------------------
Label_3_01891B06:
 BYTE   W12
 BYTE   N12  Cn4  v127
 BYTE   N12  En4
 BYTE   W12
 BYTE   N06  Dn4
 BYTE   N06  Fn4
 BYTE   W12
 BYTE   N11  En4
 BYTE   N12  Gn4
 BYTE   W12
 BYTE   N11  Cn4
 BYTE   N12  En4
 BYTE   W12
 BYTE   N06  An3
 BYTE   N06  Cn4
 BYTE   W24
 BYTE   As3
 BYTE   N06  Dn4
 BYTE   W12
 BYTE   PEND 
// 032   ----------------------------------------
Label_3_01891B26:
 BYTE   W12
 BYTE   N01  Fs3  v127
 BYTE   W01
 BYTE   N10  Fn3
 BYTE   N10  Gs3
 BYTE   W11
 BYTE   N06  En3
 BYTE   N06  Gn3
 BYTE   W12
 BYTE   N48  Dn3
 BYTE   N48  Fn3
 BYTE   W60
 BYTE   PEND 
// 033   ----------------------------------------
 BYTE   W96
// 034   ----------------------------------------
 BYTE   W96
// 035   ----------------------------------------
 BYTE   W96
// 036   ----------------------------------------
 BYTE   W96
// 037   ----------------------------------------
 BYTE   W96
// 038   ----------------------------------------
 BYTE   W96
// 039   ----------------------------------------
 BYTE   W96
// 040   ----------------------------------------
 BYTE   W96
// 041   ----------------------------------------
 BYTE   W96
// 042   ----------------------------------------
 BYTE   W96
// 043   ----------------------------------------
 BYTE   W96
// 044   ----------------------------------------
 BYTE   W96
// 045   ----------------------------------------
 BYTE   W96
// 046   ----------------------------------------
 BYTE   W96
// 047   ----------------------------------------
 BYTE   W96
// 048   ----------------------------------------
 BYTE   W96
// 049   ----------------------------------------
 BYTE   W96
 BYTE   PATT
  POIN2 Label_3_01891A17
 BYTE   PATT
  POIN2 Label_3_01891A28
// 050   ----------------------------------------
 BYTE   W96
// 051   ----------------------------------------
 BYTE   W96
 BYTE   PATT
  POIN2 Label_3_01891A17
 BYTE   PATT
  POIN2 Label_3_01891A28
// 052   ----------------------------------------
 BYTE   W96
// 053   ----------------------------------------
 BYTE   W96
 BYTE   PATT
  POIN2 Label_3_01891A48
 BYTE   PATT
  POIN2 Label_3_01891A5B
// 054   ----------------------------------------
 BYTE   W96
// 055   ----------------------------------------
 BYTE   W96
 BYTE   PATT
  POIN2 Label_3_01891A48
 BYTE   PATT
  POIN2 Label_3_01891A5B
// 056   ----------------------------------------
 BYTE   W96
// 057   ----------------------------------------
 BYTE   W96
 BYTE   PATT
  POIN2 Label_3_01891A7F
 BYTE   PATT
  POIN2 Label_3_01891A9A
// 058   ----------------------------------------
 BYTE   W96
// 059   ----------------------------------------
 BYTE   W96
 BYTE   PATT
  POIN2 Label_3_01891A7F
 BYTE   PATT
  POIN2 Label_3_01891A9A
// 060   ----------------------------------------
 BYTE   W96
// 061   ----------------------------------------
 BYTE   W96
 BYTE   PATT
  POIN2 Label_3_01891AC2
 BYTE   PATT
  POIN2 Label_3_01891ADE
// 062   ----------------------------------------
 BYTE   W96
// 063   ----------------------------------------
 BYTE   W96
 BYTE   PATT
  POIN2 Label_3_01891AC2
 BYTE   PATT
  POIN2 Label_3_01891B06
 BYTE   PATT
  POIN2 Label_3_01891B26
// 064   ----------------------------------------
 BYTE   W96
// 065   ----------------------------------------
 BYTE   W96
// 066   ----------------------------------------
 BYTE   W96
// 067   ----------------------------------------
 BYTE   W96
// 068   ----------------------------------------
 BYTE   W96
// 069   ----------------------------------------
 BYTE   W96
// 070   ----------------------------------------
 BYTE   W96
// 071   ----------------------------------------
 BYTE   W96
// 072   ----------------------------------------
 BYTE   W56
 BYTE   W03
 BYTE   GoTo
  POIN2 Label_3_01891A0E
// 073   ----------------------------------------
 BYTE   W36
 BYTE   W01
 BYTE   FINE

//**************** Track 5 (Midi-Chn.4) ****************//

PokemonTCG2RonaldsThemePandan_005:
// 000   ----------------------------------------
 BYTE   KEYSH   PokemonTCG2RonaldsThemePandan_key+0
 BYTE   VOICE   74
 BYTE   PAN   c_v-1
 BYTE   VOL   58*PokemonTCG2RonaldsThemePandan_mvl/mxv
 BYTE   W88
 BYTE   W01
Label_4_01891BCE:
 BYTE   W07
// 001   ----------------------------------------
 BYTE   W96
// 002   ----------------------------------------
 BYTE   W96
// 003   ----------------------------------------
 BYTE   W96
// 004   ----------------------------------------
 BYTE   W96
// 005   ----------------------------------------
 BYTE   W96
// 006   ----------------------------------------
 BYTE   W96
// 007   ----------------------------------------
 BYTE   W96
// 008   ----------------------------------------
 BYTE   W96
// 009   ----------------------------------------
 BYTE   W96
// 010   ----------------------------------------
 BYTE   W96
// 011   ----------------------------------------
 BYTE   W96
// 012   ----------------------------------------
 BYTE   W96
// 013   ----------------------------------------
 BYTE   W96
// 014   ----------------------------------------
 BYTE   W96
// 015   ----------------------------------------
 BYTE   W96
// 016   ----------------------------------------
 BYTE   W96
// 017   ----------------------------------------
 BYTE   W96
// 018   ----------------------------------------
 BYTE   W96
// 019   ----------------------------------------
 BYTE   W96
// 020   ----------------------------------------
 BYTE   W96
// 021   ----------------------------------------
 BYTE   W96
// 022   ----------------------------------------
 BYTE   W96
// 023   ----------------------------------------
 BYTE   W96
// 024   ----------------------------------------
 BYTE   W96
// 025   ----------------------------------------
 BYTE   W96
// 026   ----------------------------------------
 BYTE   W96
// 027   ----------------------------------------
Label_4_01891BE9:
 BYTE   W06
 BYTE   N04  Gn3  v127
 BYTE   W06
 BYTE   Fn4
 BYTE   W06
 BYTE   Gn3
 BYTE   W06
 BYTE   En4
 BYTE   W06
 BYTE   Gn3
 BYTE   W06
 BYTE   Dn4
 BYTE   W06
 BYTE   Gn3
 BYTE   W06
 BYTE   N12  Cn4
 BYTE   W03
 BYTE   BEND   c_v+29
 BYTE   W05
 BYTE   En3
 BYTE   W04
 BYTE   N04  As3
 BYTE   W06
 BYTE   Cn4
 BYTE   W06
 BYTE   As3
 BYTE   W06
 BYTE   Gn3
 BYTE   W06
 BYTE   Fn3
 BYTE   W06
 BYTE   Fs3
 BYTE   W06
 BYTE   PEND 
// 028   ----------------------------------------
Label_4_01891C10:
 BYTE   N04  Gn3  v127
 BYTE   W06
 BYTE   Cs3
 BYTE   W06
 BYTE   Cn3
 BYTE   W06
 BYTE   As2
 BYTE   W06
 BYTE   N10  Cn3
 BYTE   W04
 BYTE   BEND   c_v+29
 BYTE   W03
 BYTE   En3
 BYTE   W05
 BYTE   N04  As2
 BYTE   W06
 BYTE   Cn3
 BYTE   W06
 BYTE   As2
 BYTE   W06
 BYTE   Gn2
 BYTE   W06
 BYTE   Fn2
 BYTE   W06
 BYTE   Fs2
 BYTE   W06
 BYTE   N06  Gn2
 BYTE   W06
 BYTE   As2
 BYTE   W06
 BYTE   Cn3
 BYTE   W06
 BYTE   N04  Dn3
 BYTE   W06
 BYTE   PEND 
// 029   ----------------------------------------
 BYTE   W96
// 030   ----------------------------------------
 BYTE   W96
 BYTE   PATT
  POIN2 Label_4_01891BE9
// 031   ----------------------------------------
Label_4_01891C41:
 BYTE   N04  Gn3  v127
 BYTE   W06
 BYTE   As3
 BYTE   W06
 BYTE   Cn4
 BYTE   W06
 BYTE   As3
 BYTE   W06
 BYTE   N12  Cn4
 BYTE   W03
 BYTE   BEND   c_v+29
 BYTE   W05
 BYTE   En3
 BYTE   W04
 BYTE   N04  As3
 BYTE   W06
 BYTE   Fn3
 BYTE   W06
 BYTE   Gn3
 BYTE   W06
 BYTE   Cs3
 BYTE   W06
 BYTE   Cn3
 BYTE   W06
 BYTE   As2
 BYTE   W06
 BYTE   N12  Cn3
 BYTE   W03
 BYTE   BEND   c_v+29
 BYTE   W05
 BYTE   En3
 BYTE   W04
 BYTE   N04  As2
 BYTE   W06
 BYTE   Gn2
 BYTE   W06
 BYTE   PEND 
// 032   ----------------------------------------
 BYTE   W96
// 033   ----------------------------------------
 BYTE   W96
// 034   ----------------------------------------
Label_4_01891C70:
 BYTE   W12
 BYTE   N04  Fn4  v127
 BYTE   W12
 BYTE   N12  En4
 BYTE   W03
 BYTE   BEND   c_v+29
 BYTE   W05
 BYTE   En3
 BYTE   W04
 BYTE   N04  Dn4
 BYTE   W12
 BYTE   En4
 BYTE   W06
 BYTE   Cn4
 BYTE   W06
 BYTE   Gn3
 BYTE   W06
 BYTE   Cn4
 BYTE   W06
 BYTE   Cs4
 BYTE   W06
 BYTE   Dn4
 BYTE   W06
 BYTE   As3
 BYTE   W06
 BYTE   Gn3
 BYTE   W06
 BYTE   PEND 
// 035   ----------------------------------------
Label_4_01891C91:
 BYTE   W06
 BYTE   N04  Fn3  v127
 BYTE   W06
 BYTE   Fs3
 BYTE   W06
 BYTE   Gn3
 BYTE   W06
 BYTE   As3
 BYTE   W06
 BYTE   Gn3
 BYTE   W06
 BYTE   As3
 BYTE   W06
 BYTE   Cn4
 BYTE   W06
 BYTE   Cs4
 BYTE   W06
 BYTE   Dn4
 BYTE   W06
 BYTE   Fn4
 BYTE   W06
 BYTE   Dn4
 BYTE   W06
 BYTE   Fn4
 BYTE   W06
 BYTE   Dn4
 BYTE   W06
 BYTE   Gn2
 BYTE   W06
 BYTE   Dn3
 BYTE   W06
 BYTE   PEND 
// 036   ----------------------------------------
 BYTE   W96
// 037   ----------------------------------------
 BYTE   W96
// 038   ----------------------------------------
 BYTE   W96
// 039   ----------------------------------------
 BYTE   W96
// 040   ----------------------------------------
 BYTE   W96
// 041   ----------------------------------------
 BYTE   W96
// 042   ----------------------------------------
 BYTE   W96
// 043   ----------------------------------------
 BYTE   W96
// 044   ----------------------------------------
 BYTE   W96
// 045   ----------------------------------------
 BYTE   W96
// 046   ----------------------------------------
 BYTE   W96
// 047   ----------------------------------------
 BYTE   W96
// 048   ----------------------------------------
 BYTE   W96
// 049   ----------------------------------------
 BYTE   W96
// 050   ----------------------------------------
 BYTE   W96
// 051   ----------------------------------------
 BYTE   W96
// 052   ----------------------------------------
 BYTE   W96
// 053   ----------------------------------------
 BYTE   W96
// 054   ----------------------------------------
 BYTE   W96
// 055   ----------------------------------------
 BYTE   W96
// 056   ----------------------------------------
 BYTE   W96
// 057   ----------------------------------------
 BYTE   W96
// 058   ----------------------------------------
 BYTE   W96
// 059   ----------------------------------------
 BYTE   W96
// 060   ----------------------------------------
 BYTE   W96
// 061   ----------------------------------------
 BYTE   W96
// 062   ----------------------------------------
 BYTE   W96
// 063   ----------------------------------------
 BYTE   W96
// 064   ----------------------------------------
 BYTE   W96
// 065   ----------------------------------------
 BYTE   W96
// 066   ----------------------------------------
 BYTE   W96
// 067   ----------------------------------------
 BYTE   W96
// 068   ----------------------------------------
 BYTE   W96
// 069   ----------------------------------------
 BYTE   W96
// 070   ----------------------------------------
 BYTE   W96
// 071   ----------------------------------------
 BYTE   W96
// 072   ----------------------------------------
 BYTE   W96
// 073   ----------------------------------------
 BYTE   W96
 BYTE   PATT
  POIN2 Label_4_01891BE9
 BYTE   PATT
  POIN2 Label_4_01891C10
// 074   ----------------------------------------
 BYTE   W96
// 075   ----------------------------------------
 BYTE   W96
 BYTE   PATT
  POIN2 Label_4_01891BE9
 BYTE   PATT
  POIN2 Label_4_01891C41
// 076   ----------------------------------------
 BYTE   W96
// 077   ----------------------------------------
 BYTE   W96
 BYTE   PATT
  POIN2 Label_4_01891C70
 BYTE   PATT
  POIN2 Label_4_01891C91
// 078   ----------------------------------------
 BYTE   W96
// 079   ----------------------------------------
 BYTE   W96
// 080   ----------------------------------------
 BYTE   W96
// 081   ----------------------------------------
 BYTE   W96
// 082   ----------------------------------------
 BYTE   W96
// 083   ----------------------------------------
 BYTE   W96
// 084   ----------------------------------------
 BYTE   W96
// 085   ----------------------------------------
 BYTE   W96
// 086   ----------------------------------------
 BYTE   W96
// 087   ----------------------------------------
 BYTE   W96
// 088   ----------------------------------------
 BYTE   W96
// 089   ----------------------------------------
 BYTE   W56
 BYTE   W03
 BYTE   GoTo
  POIN2 Label_4_01891BCE
// 090   ----------------------------------------
 BYTE   W36
 BYTE   W01
 BYTE   FINE

//**************** Track 6 (Midi-Chn.5) ****************//

PokemonTCG2RonaldsThemePandan_006:
// 000   ----------------------------------------
 BYTE   KEYSH   PokemonTCG2RonaldsThemePandan_key+0
 BYTE   VOICE   121
 BYTE   VOL   42*PokemonTCG2RonaldsThemePandan_mvl/mxv
 BYTE   PAN   c_v+0
 BYTE   W88
 BYTE   W01
Label_5_01891D1A:
 BYTE   W07
// 001   ----------------------------------------
Label_5_01891D1B:
 BYTE   N06  Cn1  v116
 BYTE   N06  Fs1
 BYTE   N06  Ds2  v088
 BYTE   W12
 BYTE   N05  Fs1  v116
 BYTE   W06
 BYTE   N06  Cn1
 BYTE   N06  Fs1
 BYTE   N06  Ds2  v088
 BYTE   W06
 BYTE   As1
 BYTE   N06  Fs2  v127
 BYTE   W06
 BYTE   N05  Cn1  v100
 BYTE   N05  Fs1  v116
 BYTE   W06
 BYTE   Cn1
 BYTE   N06  Fs1
 BYTE   N06  Ds2  v088
 BYTE   W06
 BYTE   N05  Cn1  v100
 BYTE   W06
 BYTE   Cn1  v116
 BYTE   N05  Fs1
 BYTE   W06
 BYTE   N06  Cn1
 BYTE   N06  Fs1
 BYTE   W06
 BYTE   Ds2  v088
 BYTE   W06
 BYTE   Cn1  v116
 BYTE   N06  Fs1
 BYTE   W06
 BYTE   As1  v088
 BYTE   N06  Fs2  v127
 BYTE   W12
 BYTE   Cn1  v116
 BYTE   N06  Fs1
 BYTE   N06  Ds2  v088
 BYTE   W12
 BYTE   PEND 
// 002   ----------------------------------------
Label_5_01891D68:
 BYTE   W12
 BYTE   N06  Cn1  v116
 BYTE   N06  Fs1
 BYTE   N06  Ds2  v088
 BYTE   W12
 BYTE   As1
 BYTE   N06  Ds2
 BYTE   N06  Fs2  v127
 BYTE   W12
 BYTE   Fs1  v116
 BYTE   N06  Ds2  v088
 BYTE   W06
 BYTE   Cn1  v116
 BYTE   N06  As1  v088
 BYTE   W06
 BYTE   Ds2
 BYTE   W06
 BYTE   N05  Cn1  v116
 BYTE   W06
 BYTE   N06
 BYTE   N05  Fs1
 BYTE   W06
 BYTE   N05
 BYTE   W06
 BYTE   N05
 BYTE   N06  Ds2  v088
 BYTE   N06  Fs2  v127
 BYTE   W06
 BYTE   Fs1  v116
 BYTE   W06
 BYTE   Cn1
 BYTE   N06  As1  v088
 BYTE   W06
 BYTE   N05  Fs1  v116
 BYTE   N06  Fs2  v127
 BYTE   W06
 BYTE   PEND 
 BYTE   PATT
  POIN2 Label_5_01891D1B
// 003   ----------------------------------------
Label_5_01891DAE:
 BYTE   W12
 BYTE   N06  Cn1  v116
 BYTE   N06  Fs1
 BYTE   N06  Ds2  v088
 BYTE   W12
 BYTE   As1
 BYTE   N06  Ds2
 BYTE   N06  Fs2  v127
 BYTE   W12
 BYTE   Fs1  v116
 BYTE   N06  Ds2  v088
 BYTE   W06
 BYTE   Cn1  v116
 BYTE   N06  As1  v088
 BYTE   W06
 BYTE   Ds2
 BYTE   W06
 BYTE   N05  Cn1  v116
 BYTE   W06
 BYTE   N06
 BYTE   N05  Fs1
 BYTE   W06
 BYTE   N05
 BYTE   W06
 BYTE   N05
 BYTE   N06  Ds2  v088
 BYTE   N05  Fs2  v127
 BYTE   W06
 BYTE   N06  Fs1  v116
 BYTE   N06  Fs2  v127
 BYTE   W06
 BYTE   Cn1  v116
 BYTE   N06  As1  v088
 BYTE   W06
 BYTE   N05  Fs1  v116
 BYTE   N06  Fs2  v127
 BYTE   W06
 BYTE   PEND 
// 004   ----------------------------------------
Label_5_01891DF4:
 BYTE   N06  Cn1  v116
 BYTE   N06  Fs1
 BYTE   N06  Cs2  v100
 BYTE   N06  Ds2  v088
 BYTE   W12
 BYTE   N05  Fs1  v116
 BYTE   W06
 BYTE   N06  Cn1
 BYTE   N06  Fs1
 BYTE   N06  Ds2  v088
 BYTE   W06
 BYTE   As1
 BYTE   N06  Fs2  v127
 BYTE   W06
 BYTE   N05  Cn1  v100
 BYTE   N05  Fs1  v116
 BYTE   W06
 BYTE   Cn1
 BYTE   N06  Fs1
 BYTE   N06  Ds2  v088
 BYTE   W06
 BYTE   N05  Cn1  v100
 BYTE   W06
 BYTE   Cn1  v116
 BYTE   N05  Fs1
 BYTE   W06
 BYTE   N06  Cn1
 BYTE   N06  Fs1
 BYTE   W06
 BYTE   Ds2  v088
 BYTE   W06
 BYTE   Cn1  v116
 BYTE   N06  Fs1
 BYTE   W06
 BYTE   As1  v088
 BYTE   N06  Fs2  v127
 BYTE   W12
 BYTE   Cn1  v116
 BYTE   N06  Fs1
 BYTE   N06  Ds2  v088
 BYTE   W12
 BYTE   PEND 
 BYTE   PATT
  POIN2 Label_5_01891D68
 BYTE   PATT
  POIN2 Label_5_01891D1B
 BYTE   PATT
  POIN2 Label_5_01891DAE
// 005   ----------------------------------------
Label_5_01891E53:
 BYTE   N06  Cn1  v120
 BYTE   N05  Fs1  v116
 BYTE   N06  Cs2  v088
 BYTE   N06  Ds2  v096
 BYTE   W06
 BYTE   N05  Fs1  v120
 BYTE   W06
 BYTE   N06  Fs1  v116
 BYTE   N06  Ds2  v096
 BYTE   W12
 BYTE   As1
 BYTE   N06  Fs2  v127
 BYTE   W06
 BYTE   Fs1  v116
 BYTE   W06
 BYTE   Cn1  v120
 BYTE   N06  Ds2  v096
 BYTE   W12
 BYTE   Fs1  v120
 BYTE   N06  Ds2  v096
 BYTE   W12
 BYTE   Cn1  v116
 BYTE   N06  Fs1
 BYTE   N06  Ds2  v096
 BYTE   W12
 BYTE   As1
 BYTE   N06  Fs2  v127
 BYTE   W12
 BYTE   Cn1  v120
 BYTE   N06  Fs1  v116
 BYTE   N06  Ds2  v096
 BYTE   W12
 BYTE   PEND 
// 006   ----------------------------------------
Label_5_01891E96:
 BYTE   W12
 BYTE   N06  Cn1  v120
 BYTE   N06  Fs1  v116
 BYTE   N06  Ds2  v096
 BYTE   W12
 BYTE   As1
 BYTE   N06  Fs2  v127
 BYTE   W12
 BYTE   N05  Fs1  v116
 BYTE   N06  Ds2  v096
 BYTE   W06
 BYTE   Cn1  v120
 BYTE   N06  Fs1  v116
 BYTE   W12
 BYTE   N05
 BYTE   N06  Fs2  v088
 BYTE   W06
 BYTE   Cn1  v120
 BYTE   N06  Fs1  v116
 BYTE   N06  Ds2  v096
 BYTE   W12
 BYTE   As1
 BYTE   N06  Ds2
 BYTE   N06  Fs2  v127
 BYTE   W12
 BYTE   Cn1  v120
 BYTE   N05  Fs1  v116
 BYTE   N06  Ds2  v096
 BYTE   W06
 BYTE   N05  Fs1  v116
 BYTE   N06  Fs2  v127
 BYTE   W06
 BYTE   PEND 
// 007   ----------------------------------------
Label_5_01891ED9:
 BYTE   N06  Cn1  v120
 BYTE   N05  Fs1  v116
 BYTE   N06  Ds2  v096
 BYTE   W06
 BYTE   N05  Fs1  v120
 BYTE   W06
 BYTE   N06  Fs1  v116
 BYTE   N06  Ds2  v096
 BYTE   W12
 BYTE   As1
 BYTE   N06  Fs2  v127
 BYTE   W06
 BYTE   Fs1  v116
 BYTE   W06
 BYTE   Cn1  v120
 BYTE   N06  Ds2  v096
 BYTE   W12
 BYTE   Fs1  v120
 BYTE   N06  Ds2  v096
 BYTE   W12
 BYTE   Cn1  v116
 BYTE   N06  Fs1
 BYTE   N06  Ds2  v096
 BYTE   W12
 BYTE   As1
 BYTE   N06  Fs2  v127
 BYTE   W12
 BYTE   Cn1  v120
 BYTE   N06  Fs1  v116
 BYTE   N06  Ds2  v096
 BYTE   W12
 BYTE   PEND 
 BYTE   PATT
  POIN2 Label_5_01891E96
 BYTE   PATT
  POIN2 Label_5_01891E53
 BYTE   PATT
  POIN2 Label_5_01891E96
 BYTE   PATT
  POIN2 Label_5_01891ED9
 BYTE   PATT
  POIN2 Label_5_01891E96
 BYTE   PATT
  POIN2 Label_5_01891E53
 BYTE   PATT
  POIN2 Label_5_01891E96
 BYTE   PATT
  POIN2 Label_5_01891ED9
 BYTE   PATT
  POIN2 Label_5_01891E96
 BYTE   PATT
  POIN2 Label_5_01891E53
 BYTE   PATT
  POIN2 Label_5_01891E96
 BYTE   PATT
  POIN2 Label_5_01891ED9
 BYTE   PATT
  POIN2 Label_5_01891E96
// 008   ----------------------------------------
Label_5_01891F5A:
 BYTE   N06  Cn1  v120
 BYTE   N05  Fs1  v116
 BYTE   N06  Cs2  v088
 BYTE   N06  Ds2  v096
 BYTE   W06
 BYTE   N05  Fs1  v120
 BYTE   W06
 BYTE   N06  Fs1  v116
 BYTE   N06  Ds2  v096
 BYTE   W12
 BYTE   Ds1  v127
 BYTE   N06  En1  v092
 BYTE   N06  As1  v096
 BYTE   W06
 BYTE   N05  Fs1  v116
 BYTE   W06
 BYTE   N06  Cn1  v120
 BYTE   N06  Fs1  v108
 BYTE   N06  Ds2  v096
 BYTE   W12
 BYTE   N05  Fs1  v120
 BYTE   N06  Ds2  v096
 BYTE   W06
 BYTE   N05  Fs1  v108
 BYTE   W06
 BYTE   N06  Cn1  v116
 BYTE   N06  Fs1
 BYTE   N06  Ds2  v096
 BYTE   W12
 BYTE   Ds1  v127
 BYTE   N06  En1  v092
 BYTE   N06  As1  v096
 BYTE   W12
 BYTE   Cn1  v120
 BYTE   N06  Fs1  v116
 BYTE   N06  Ds2  v096
 BYTE   W12
 BYTE   PEND 
// 009   ----------------------------------------
Label_5_01891FB0:
 BYTE   N05  Fs1  v108
 BYTE   W06
 BYTE   N05
 BYTE   W06
 BYTE   N06  Cn1  v120
 BYTE   N06  Fs1  v116
 BYTE   N06  Ds2  v096
 BYTE   W12
 BYTE   Ds1  v127
 BYTE   N06  En1  v092
 BYTE   N06  As1  v096
 BYTE   W12
 BYTE   N05  Fs1  v116
 BYTE   N06  Ds2  v096
 BYTE   W06
 BYTE   Cn1  v120
 BYTE   N06  Fs1  v116
 BYTE   W12
 BYTE   Ds1  v127
 BYTE   N05  Fs1  v116
 BYTE   W06
 BYTE   N06  Cn1  v120
 BYTE   N06  Fs1  v116
 BYTE   N06  Ds2  v096
 BYTE   W12
 BYTE   Ds1  v127
 BYTE   N06  En1  v092
 BYTE   N06  As1  v096
 BYTE   N06  Ds2
 BYTE   W06
 BYTE   N05  Fs1  v108
 BYTE   W06
 BYTE   N06  Cn1  v120
 BYTE   N05  Fs1  v116
 BYTE   N06  Ds2  v096
 BYTE   W06
 BYTE   Ds1  v127
 BYTE   N06  En1  v092
 BYTE   N05  Fs1  v116
 BYTE   W06
 BYTE   PEND 
// 010   ----------------------------------------
Label_5_01892009:
 BYTE   N06  Cn1  v120
 BYTE   N05  Fs1  v116
 BYTE   N06  Ds2  v096
 BYTE   W06
 BYTE   N05  Fs1  v120
 BYTE   W06
 BYTE   N06  Fs1  v116
 BYTE   N06  Ds2  v096
 BYTE   W12
 BYTE   Ds1  v127
 BYTE   N06  En1  v092
 BYTE   N06  As1  v096
 BYTE   W06
 BYTE   N05  Fs1  v116
 BYTE   W06
 BYTE   N06  Cn1  v120
 BYTE   N06  Fs1  v108
 BYTE   N06  Ds2  v096
 BYTE   W12
 BYTE   N05  Fs1  v120
 BYTE   N06  Ds2  v096
 BYTE   W06
 BYTE   N05  Fs1  v108
 BYTE   W06
 BYTE   N06  Cn1  v116
 BYTE   N06  Fs1
 BYTE   N06  Ds2  v096
 BYTE   W12
 BYTE   Ds1  v127
 BYTE   N06  En1  v092
 BYTE   N06  As1  v096
 BYTE   W12
 BYTE   Cn1  v120
 BYTE   N06  Fs1  v116
 BYTE   N06  Ds2  v096
 BYTE   W12
 BYTE   PEND 
 BYTE   PATT
  POIN2 Label_5_01891FB0
 BYTE   PATT
  POIN2 Label_5_01891F5A
 BYTE   PATT
  POIN2 Label_5_01891FB0
 BYTE   PATT
  POIN2 Label_5_01892009
 BYTE   PATT
  POIN2 Label_5_01891FB0
 BYTE   PATT
  POIN2 Label_5_01891F5A
 BYTE   PATT
  POIN2 Label_5_01891FB0
 BYTE   PATT
  POIN2 Label_5_01892009
 BYTE   PATT
  POIN2 Label_5_01891FB0
 BYTE   PATT
  POIN2 Label_5_01891F5A
 BYTE   PATT
  POIN2 Label_5_01891FB0
 BYTE   PATT
  POIN2 Label_5_01892009
// 011   ----------------------------------------
Label_5_01892098:
 BYTE   N05  Fs1  v108
 BYTE   W06
 BYTE   N05
 BYTE   W06
 BYTE   N06  Cn1  v120
 BYTE   N06  Fs1  v116
 BYTE   N06  Ds2  v096
 BYTE   W12
 BYTE   Ds1  v127
 BYTE   N06  En1  v092
 BYTE   N06  As1  v096
 BYTE   W12
 BYTE   N05  Fs1  v116
 BYTE   N06  Ds2  v096
 BYTE   W06
 BYTE   Cn1  v120
 BYTE   N06  Fs1  v116
 BYTE   W12
 BYTE   Ds1  v127
 BYTE   N05  Fs1  v116
 BYTE   W06
 BYTE   N06  Cn1  v120
 BYTE   N06  Fs1  v116
 BYTE   N06  Ds2  v096
 BYTE   W12
 BYTE   N05  Ds1  v127
 BYTE   N05  En1  v092
 BYTE   N06  As1  v096
 BYTE   N06  Ds2
 BYTE   W06
 BYTE   N05  Ds1  v127
 BYTE   N05  En1  v088
 BYTE   N05  Fs1  v108
 BYTE   W06
 BYTE   Ds1  v127
 BYTE   N05  En1  v088
 BYTE   N05  Fs1  v116
 BYTE   N06  Ds2  v096
 BYTE   W06
 BYTE   Ds1  v127
 BYTE   N06  En1  v092
 BYTE   N05  Fs1  v116
 BYTE   W06
 BYTE   PEND 
// 012   ----------------------------------------
Label_5_018920FA:
 BYTE   N06  Cn1  v116
 BYTE   N06  Fs1  v108
 BYTE   N06  Cs2
 BYTE   N06  Ds2
 BYTE   W12
 BYTE   Cn1  v116
 BYTE   N06  Fs1  v108
 BYTE   N06  Ds2
 BYTE   W12
 BYTE   Ds1  v127
 BYTE   N06  En1  v084
 BYTE   N06  As1  v092
 BYTE   N06  Ds2  v108
 BYTE   W12
 BYTE   N05  Cn1  v116
 BYTE   N05  Fs1  v108
 BYTE   N06  Ds2
 BYTE   W06
 BYTE   Cn1  v116
 BYTE   N05  Fs1  v108
 BYTE   W06
 BYTE   N06
 BYTE   N06  Ds2
 BYTE   W12
 BYTE   Cn1  v116
 BYTE   N06  Fs1  v108
 BYTE   N06  Ds2
 BYTE   W12
 BYTE   Ds1  v127
 BYTE   N06  En1  v084
 BYTE   N06  Fs1  v108
 BYTE   N06  Ds2
 BYTE   W12
 BYTE   Cn1  v116
 BYTE   N06  As1  v092
 BYTE   N06  Ds2  v108
 BYTE   N06  En2
 BYTE   W12
 BYTE   PEND 
// 013   ----------------------------------------
Label_5_0189214B:
 BYTE   W12
 BYTE   N06  Cn1  v116
 BYTE   N06  Fs1  v108
 BYTE   N06  Ds2
 BYTE   W12
 BYTE   Ds1  v127
 BYTE   N06  En1  v084
 BYTE   N06  Fs1  v108
 BYTE   N06  Ds2
 BYTE   W12
 BYTE   Cn1  v116
 BYTE   N05  Fs1  v108
 BYTE   N06  Ds2
 BYTE   W06
 BYTE   Ds1  v127
 BYTE   N06  En1  v084
 BYTE   N06  Fs1  v108
 BYTE   W06
 BYTE   Ds2
 BYTE   W06
 BYTE   Ds1  v127
 BYTE   N06  En1  v084
 BYTE   N05  Fs1  v108
 BYTE   W06
 BYTE   N06  Cn1  v116
 BYTE   N06  Fs1  v108
 BYTE   N06  Ds2
 BYTE   W12
 BYTE   Ds1  v127
 BYTE   N06  En1  v084
 BYTE   N06  Fs1  v108
 BYTE   N06  Ds2
 BYTE   W12
 BYTE   Cn1  v116
 BYTE   N06  Fs1  v108
 BYTE   N06  Ds2
 BYTE   W06
 BYTE   Ds1  v127
 BYTE   N06  En1  v084
 BYTE   W06
 BYTE   PEND 
 BYTE   PATT
  POIN2 Label_5_018920FA
// 014   ----------------------------------------
Label_5_018921A4:
 BYTE   W12
 BYTE   N06  Cn1  v116
 BYTE   N06  Fs1  v108
 BYTE   N06  Ds2
 BYTE   W12
 BYTE   Ds1  v127
 BYTE   N06  En1  v084
 BYTE   N06  Fs1  v108
 BYTE   N06  Ds2
 BYTE   W12
 BYTE   Cn1  v116
 BYTE   N05  Fs1  v108
 BYTE   N06  Ds2
 BYTE   W06
 BYTE   Ds1  v127
 BYTE   N06  En1  v084
 BYTE   N06  Fs1  v108
 BYTE   W06
 BYTE   Ds2
 BYTE   W06
 BYTE   Ds1  v127
 BYTE   N06  En1  v084
 BYTE   N05  Fs1  v108
 BYTE   W06
 BYTE   N06  Cn1  v116
 BYTE   N06  Fs1  v108
 BYTE   N06  Ds2
 BYTE   W12
 BYTE   N05  Ds1  v127
 BYTE   N05  En1  v084
 BYTE   N06  Fs1  v108
 BYTE   N06  Ds2
 BYTE   W06
 BYTE   N05  Ds1  v127
 BYTE   N05  En1  v100
 BYTE   W06
 BYTE   Ds1  v127
 BYTE   N05  En1  v100
 BYTE   N06  Fs1  v108
 BYTE   N06  Ds2
 BYTE   W06
 BYTE   Ds1  v127
 BYTE   N06  En1  v084
 BYTE   W06
 BYTE   PEND 
 BYTE   PATT
  POIN2 Label_5_018920FA
 BYTE   PATT
  POIN2 Label_5_0189214B
// 015   ----------------------------------------
Label_5_0189220D:
 BYTE   N06  Cn1  v116
 BYTE   N06  Fs1  v108
 BYTE   N06  Ds2
 BYTE   W12
 BYTE   Cn1  v116
 BYTE   N06  Fs1  v108
 BYTE   N06  Ds2
 BYTE   W12
 BYTE   Ds1  v127
 BYTE   N06  En1  v084
 BYTE   N06  As1  v092
 BYTE   N06  Ds2  v108
 BYTE   W12
 BYTE   N05  Cn1  v116
 BYTE   N05  Fs1  v108
 BYTE   N06  Ds2
 BYTE   W06
 BYTE   Cn1  v116
 BYTE   N05  Fs1  v108
 BYTE   W06
 BYTE   N06
 BYTE   N06  Ds2
 BYTE   W12
 BYTE   Cn1  v116
 BYTE   N06  Fs1  v108
 BYTE   N06  Ds2
 BYTE   W12
 BYTE   Ds1  v127
 BYTE   N06  En1  v084
 BYTE   N06  Fs1  v108
 BYTE   N06  Ds2
 BYTE   W12
 BYTE   Cn1  v116
 BYTE   N06  As1  v092
 BYTE   N06  Ds2  v108
 BYTE   N06  En2
 BYTE   W12
 BYTE   PEND 
// 016   ----------------------------------------
 BYTE   W48
 BYTE   N48  En0  v127
 BYTE   W48
 BYTE   PATT
  POIN2 Label_5_01891D1B
 BYTE   PATT
  POIN2 Label_5_01891D68
 BYTE   PATT
  POIN2 Label_5_01891D1B
 BYTE   PATT
  POIN2 Label_5_01891DAE
 BYTE   PATT
  POIN2 Label_5_01891DF4
 BYTE   PATT
  POIN2 Label_5_01891D68
 BYTE   PATT
  POIN2 Label_5_01891D1B
 BYTE   PATT
  POIN2 Label_5_01891DAE
 BYTE   PATT
  POIN2 Label_5_01891E53
 BYTE   PATT
  POIN2 Label_5_01891E96
 BYTE   PATT
  POIN2 Label_5_01891ED9
 BYTE   PATT
  POIN2 Label_5_01891E96
 BYTE   PATT
  POIN2 Label_5_01891E53
 BYTE   PATT
  POIN2 Label_5_01891E96
 BYTE   PATT
  POIN2 Label_5_01891ED9
 BYTE   PATT
  POIN2 Label_5_01891E96
 BYTE   PATT
  POIN2 Label_5_01891E53
 BYTE   PATT
  POIN2 Label_5_01891E96
 BYTE   PATT
  POIN2 Label_5_01891ED9
 BYTE   PATT
  POIN2 Label_5_01891E96
 BYTE   PATT
  POIN2 Label_5_01891E53
 BYTE   PATT
  POIN2 Label_5_01891E96
 BYTE   PATT
  POIN2 Label_5_01891ED9
 BYTE   PATT
  POIN2 Label_5_01891E96
 BYTE   PATT
  POIN2 Label_5_01891F5A
 BYTE   PATT
  POIN2 Label_5_01891FB0
 BYTE   PATT
  POIN2 Label_5_01892009
 BYTE   PATT
  POIN2 Label_5_01891FB0
 BYTE   PATT
  POIN2 Label_5_01891F5A
 BYTE   PATT
  POIN2 Label_5_01891FB0
 BYTE   PATT
  POIN2 Label_5_01892009
 BYTE   PATT
  POIN2 Label_5_01891FB0
 BYTE   PATT
  POIN2 Label_5_01891F5A
 BYTE   PATT
  POIN2 Label_5_01891FB0
 BYTE   PATT
  POIN2 Label_5_01892009
 BYTE   PATT
  POIN2 Label_5_01891FB0
 BYTE   PATT
  POIN2 Label_5_01891F5A
 BYTE   PATT
  POIN2 Label_5_01891FB0
 BYTE   PATT
  POIN2 Label_5_01892009
 BYTE   PATT
  POIN2 Label_5_01892098
 BYTE   PATT
  POIN2 Label_5_018920FA
 BYTE   PATT
  POIN2 Label_5_0189214B
 BYTE   PATT
  POIN2 Label_5_018920FA
 BYTE   PATT
  POIN2 Label_5_018921A4
 BYTE   PATT
  POIN2 Label_5_018920FA
 BYTE   PATT
  POIN2 Label_5_0189214B
 BYTE   PATT
  POIN2 Label_5_0189220D
// 017   ----------------------------------------
 BYTE   W56
 BYTE   W03
 BYTE   GoTo
  POIN2 Label_5_01891D1A
// 018   ----------------------------------------
 BYTE   W36
 BYTE   W01
 BYTE   FINE

//**************** Track 7 (Midi-Chn.6) ****************//

PokemonTCG2RonaldsThemePandan_007:
// 000   ----------------------------------------
 BYTE   KEYSH   PokemonTCG2RonaldsThemePandan_key+0
 BYTE   VOICE   4
 BYTE   PAN   c_v+0
 BYTE   VOL   24*PokemonTCG2RonaldsThemePandan_mvl/mxv
 BYTE   W88
 BYTE   W01
Label_6_01892362:
 BYTE   W07
// 001   ----------------------------------------
Label_6_01892363:
 BYTE   N78  As2  v127
 BYTE   N78  Dn3
 BYTE   N78  Fn3
 BYTE   W84
 BYTE   TIE  Cn3
 BYTE   TIE  En3
 BYTE   TIE  Gn3
 BYTE   W12
 BYTE   PEND 
// 002   ----------------------------------------
 BYTE   W96
// 003   ----------------------------------------
 BYTE   EOT
 BYTE   Cn3  v064
 BYTE   Gn3
Label_6_01892378:
 BYTE   N78  As2  v127
 BYTE   N78  Dn3
 BYTE   N78  Fn3
 BYTE   N78  An3
 BYTE   W84
 BYTE   TIE  Cn3
 BYTE   TIE  En3
 BYTE   TIE  Gn3
 BYTE   W12
 BYTE   PEND 
// 004   ----------------------------------------
 BYTE   W96
// 005   ----------------------------------------
 BYTE   EOT
 BYTE   Cn3  v064
 BYTE   Gn3
 BYTE   PATT
  POIN2 Label_6_01892363
// 006   ----------------------------------------
 BYTE   W96
// 007   ----------------------------------------
 BYTE   EOT
 BYTE   Cn3  v064
 BYTE   Gn3
Label_6_01892399:
 BYTE   N78  As2  v127
 BYTE   N78  Dn3
 BYTE   N78  Fn3
 BYTE   N78  An3
 BYTE   W84
 BYTE   TIE  Cn3
 BYTE   TIE  En3
 BYTE   TIE  Gn3
 BYTE   TIE  Cn4
 BYTE   W12
 BYTE   PEND 
// 008   ----------------------------------------
 BYTE   W96
// 009   ----------------------------------------
 BYTE   EOT
 BYTE   Cn3  v064
 BYTE   Gn3  v072
Label_6_018923B3:
 BYTE   N84  As2  v127
 BYTE   N84  Dn3
 BYTE   W84
 BYTE   TIE  Cn3
 BYTE   TIE  En3
 BYTE   W12
 BYTE   PEND 
// 010   ----------------------------------------
 BYTE   W96
// 011   ----------------------------------------
 BYTE   EOT
 BYTE   Cn3  v064
Label_6_018923C3:
 BYTE   N84  As2  v127
 BYTE   N84  Dn3
 BYTE   N84  Fn3
 BYTE   W84
 BYTE   TIE  Gn2
 BYTE   TIE  Cn3
 BYTE   TIE  En3
 BYTE   W12
 BYTE   PEND 
// 012   ----------------------------------------
 BYTE   W96
// 013   ----------------------------------------
 BYTE   EOT
 BYTE   Gn2  v060
 BYTE   En3
 BYTE   PATT
  POIN2 Label_6_018923B3
// 014   ----------------------------------------
 BYTE   W96
// 015   ----------------------------------------
 BYTE   EOT
 BYTE   Cn3  v064
Label_6_018923E1:
 BYTE   N84  As2  v127
 BYTE   N84  Dn3
 BYTE   N84  Fn3
 BYTE   W84
 BYTE   TIE  Cn3
 BYTE   TIE  En3
 BYTE   TIE  Gn3
 BYTE   W12
 BYTE   PEND 
// 016   ----------------------------------------
 BYTE   W96
// 017   ----------------------------------------
 BYTE   EOT
 BYTE   Cn3  v064
 BYTE   Gn3
Label_6_018923F6:
 BYTE   N84  As2  v127
 BYTE   N84  Dn3
 BYTE   N84  An3
 BYTE   W84
 BYTE   TIE  Cn3
 BYTE   TIE  En3
 BYTE   TIE  Gn3
 BYTE   W12
 BYTE   PEND 
// 018   ----------------------------------------
 BYTE   W96
// 019   ----------------------------------------
 BYTE   EOT
 BYTE   Cn3  v064
 BYTE   Gn3
 BYTE   PATT
  POIN2 Label_6_018923C3
// 020   ----------------------------------------
 BYTE   W96
// 021   ----------------------------------------
 BYTE   EOT
 BYTE   Gn2  v060
 BYTE   En3
 BYTE   PATT
  POIN2 Label_6_018923B3
// 022   ----------------------------------------
 BYTE   W96
// 023   ----------------------------------------
 BYTE   EOT
 BYTE   Cn3  v064
 BYTE   PATT
  POIN2 Label_6_018923E1
// 024   ----------------------------------------
 BYTE   W96
// 025   ----------------------------------------
 BYTE   EOT
 BYTE   Cn3  v064
 BYTE   Gn3
 BYTE   PATT
  POIN2 Label_6_018923B3
// 026   ----------------------------------------
 BYTE   W96
// 027   ----------------------------------------
 BYTE   EOT
 BYTE   Cn3  v064
 BYTE   PATT
  POIN2 Label_6_018923C3
// 028   ----------------------------------------
 BYTE   W96
// 029   ----------------------------------------
 BYTE   EOT
 BYTE   Gn2  v060
 BYTE   En3
 BYTE   PATT
  POIN2 Label_6_018923B3
// 030   ----------------------------------------
 BYTE   W96
// 031   ----------------------------------------
 BYTE   EOT
 BYTE   Cn3  v064
 BYTE   PATT
  POIN2 Label_6_018923E1
// 032   ----------------------------------------
 BYTE   W96
// 033   ----------------------------------------
 BYTE   EOT
 BYTE   Cn3  v064
 BYTE   Gn3
 BYTE   PATT
  POIN2 Label_6_018923F6
// 034   ----------------------------------------
 BYTE   W96
// 035   ----------------------------------------
 BYTE   EOT
 BYTE   Cn3  v064
 BYTE   Gn3
 BYTE   PATT
  POIN2 Label_6_018923C3
// 036   ----------------------------------------
 BYTE   W96
// 037   ----------------------------------------
 BYTE   EOT
 BYTE   Gn2  v060
 BYTE   En3
 BYTE   PATT
  POIN2 Label_6_018923E1
// 038   ----------------------------------------
 BYTE   W96
// 039   ----------------------------------------
 BYTE   EOT
 BYTE   Cn3  v064
 BYTE   Gn3
Label_6_0189246C:
 BYTE   N84  As2  v127
 BYTE   N84  Dn3
 BYTE   N84  Fn3
 BYTE   N84  As3
 BYTE   W84
 BYTE   TIE  Cn3
 BYTE   TIE  En3
 BYTE   TIE  Gn3
 BYTE   TIE  Cn4
 BYTE   W12
 BYTE   PEND 
// 040   ----------------------------------------
 BYTE   W96
// 041   ----------------------------------------
 BYTE   EOT
 BYTE   Cn3  v064
 BYTE   Gn3  v072
 BYTE   W96
// 042   ----------------------------------------
 BYTE   W96
// 043   ----------------------------------------
 BYTE   W96
// 044   ----------------------------------------
 BYTE   W96
// 045   ----------------------------------------
 BYTE   W96
// 046   ----------------------------------------
 BYTE   W96
// 047   ----------------------------------------
 BYTE   W96
// 048   ----------------------------------------
 BYTE   W96
 BYTE   PATT
  POIN2 Label_6_01892363
// 049   ----------------------------------------
 BYTE   W96
// 050   ----------------------------------------
 BYTE   EOT
 BYTE   Cn3  v064
 BYTE   Gn3
 BYTE   PATT
  POIN2 Label_6_01892378
// 051   ----------------------------------------
 BYTE   W96
// 052   ----------------------------------------
 BYTE   EOT
 BYTE   Cn3  v064
 BYTE   Gn3
 BYTE   PATT
  POIN2 Label_6_01892363
// 053   ----------------------------------------
 BYTE   W96
// 054   ----------------------------------------
 BYTE   EOT
 BYTE   Cn3  v064
 BYTE   Gn3
 BYTE   PATT
  POIN2 Label_6_01892399
// 055   ----------------------------------------
 BYTE   W96
// 056   ----------------------------------------
 BYTE   EOT
 BYTE   Cn3  v064
 BYTE   Gn3  v072
 BYTE   PATT
  POIN2 Label_6_018923B3
// 057   ----------------------------------------
 BYTE   W96
// 058   ----------------------------------------
 BYTE   EOT
 BYTE   Cn3  v064
 BYTE   PATT
  POIN2 Label_6_018923C3
// 059   ----------------------------------------
 BYTE   W96
// 060   ----------------------------------------
 BYTE   EOT
 BYTE   Gn2  v060
 BYTE   En3
 BYTE   PATT
  POIN2 Label_6_018923B3
// 061   ----------------------------------------
 BYTE   W96
// 062   ----------------------------------------
 BYTE   EOT
 BYTE   Cn3  v064
 BYTE   PATT
  POIN2 Label_6_018923E1
// 063   ----------------------------------------
 BYTE   W96
// 064   ----------------------------------------
 BYTE   EOT
 BYTE   Cn3  v064
 BYTE   Gn3
 BYTE   PATT
  POIN2 Label_6_018923F6
// 065   ----------------------------------------
 BYTE   W96
// 066   ----------------------------------------
 BYTE   EOT
 BYTE   Cn3  v064
 BYTE   Gn3
 BYTE   PATT
  POIN2 Label_6_018923C3
// 067   ----------------------------------------
 BYTE   W96
// 068   ----------------------------------------
 BYTE   EOT
 BYTE   Gn2  v060
 BYTE   En3
 BYTE   PATT
  POIN2 Label_6_018923B3
// 069   ----------------------------------------
 BYTE   W96
// 070   ----------------------------------------
 BYTE   EOT
 BYTE   Cn3  v064
 BYTE   PATT
  POIN2 Label_6_018923E1
// 071   ----------------------------------------
 BYTE   W96
// 072   ----------------------------------------
 BYTE   EOT
 BYTE   Cn3  v064
 BYTE   Gn3
 BYTE   PATT
  POIN2 Label_6_018923B3
// 073   ----------------------------------------
 BYTE   W96
// 074   ----------------------------------------
 BYTE   EOT
 BYTE   Cn3  v064
 BYTE   PATT
  POIN2 Label_6_018923C3
// 075   ----------------------------------------
 BYTE   W96
// 076   ----------------------------------------
 BYTE   EOT
 BYTE   Gn2  v060
 BYTE   En3
 BYTE   PATT
  POIN2 Label_6_018923B3
// 077   ----------------------------------------
 BYTE   W96
// 078   ----------------------------------------
 BYTE   EOT
 BYTE   Cn3  v064
 BYTE   PATT
  POIN2 Label_6_018923E1
// 079   ----------------------------------------
 BYTE   W96
// 080   ----------------------------------------
 BYTE   EOT
 BYTE   Cn3  v064
 BYTE   Gn3
 BYTE   PATT
  POIN2 Label_6_018923F6
// 081   ----------------------------------------
 BYTE   W96
// 082   ----------------------------------------
 BYTE   EOT
 BYTE   Cn3  v064
 BYTE   Gn3
 BYTE   PATT
  POIN2 Label_6_018923C3
// 083   ----------------------------------------
 BYTE   W96
// 084   ----------------------------------------
 BYTE   EOT
 BYTE   Gn2  v060
 BYTE   En3
 BYTE   PATT
  POIN2 Label_6_018923E1
// 085   ----------------------------------------
 BYTE   W96
// 086   ----------------------------------------
 BYTE   EOT
 BYTE   Cn3  v064
 BYTE   Gn3
 BYTE   PATT
  POIN2 Label_6_0189246C
// 087   ----------------------------------------
 BYTE   W96
// 088   ----------------------------------------
 BYTE   EOT
 BYTE   Cn3  v064
 BYTE   Gn3  v072
 BYTE   W96
// 089   ----------------------------------------
 BYTE   W96
// 090   ----------------------------------------
 BYTE   W96
// 091   ----------------------------------------
 BYTE   W96
// 092   ----------------------------------------
 BYTE   W96
// 093   ----------------------------------------
 BYTE   W96
// 094   ----------------------------------------
 BYTE   W96
// 095   ----------------------------------------
 BYTE   W56
 BYTE   W03
 BYTE   GoTo
  POIN2 Label_6_01892362
// 096   ----------------------------------------
 BYTE   W36
 BYTE   W01
 BYTE   FINE

//**************** Track 8 (Midi-Chn.7) ****************//

PokemonTCG2RonaldsThemePandan_008:
// 000   ----------------------------------------
 BYTE   KEYSH   PokemonTCG2RonaldsThemePandan_key+0
 BYTE   VOICE   4
 BYTE   VOL   26*PokemonTCG2RonaldsThemePandan_mvl/mxv
 BYTE   PAN   c_v+0
 BYTE   W88
 BYTE   W01
Label_7_0189256E:
 BYTE   W07
// 001   ----------------------------------------
 BYTE   W96
// 002   ----------------------------------------
 BYTE   W96
// 003   ----------------------------------------
 BYTE   W96
// 004   ----------------------------------------
 BYTE   W96
// 005   ----------------------------------------
 BYTE   W96
// 006   ----------------------------------------
 BYTE   W96
// 007   ----------------------------------------
 BYTE   W96
// 008   ----------------------------------------
 BYTE   W96
// 009   ----------------------------------------
 BYTE   W96
// 010   ----------------------------------------
 BYTE   W96
// 011   ----------------------------------------
 BYTE   W96
// 012   ----------------------------------------
 BYTE   W96
// 013   ----------------------------------------
 BYTE   W96
// 014   ----------------------------------------
 BYTE   W96
// 015   ----------------------------------------
 BYTE   W96
// 016   ----------------------------------------
 BYTE   W96
// 017   ----------------------------------------
 BYTE   W96
// 018   ----------------------------------------
 BYTE   W96
// 019   ----------------------------------------
 BYTE   W96
// 020   ----------------------------------------
 BYTE   W96
// 021   ----------------------------------------
 BYTE   W96
// 022   ----------------------------------------
 BYTE   W96
// 023   ----------------------------------------
 BYTE   W96
// 024   ----------------------------------------
 BYTE   W96
// 025   ----------------------------------------
Label_7_01892587:
 BYTE   N84  As2  v127
 BYTE   N84  Dn3
 BYTE   W84
 BYTE   TIE  Cn3
 BYTE   TIE  En3
 BYTE   W12
 BYTE   PEND 
// 026   ----------------------------------------
 BYTE   W96
// 027   ----------------------------------------
 BYTE   EOT
 BYTE   Cn3  v064
Label_7_01892597:
 BYTE   N84  As2  v127
 BYTE   N84  Dn3
 BYTE   N84  Fn3
 BYTE   W84
 BYTE   TIE  Gn2
 BYTE   TIE  Cn3
 BYTE   TIE  En3
 BYTE   W12
 BYTE   PEND 
// 028   ----------------------------------------
 BYTE   W96
// 029   ----------------------------------------
 BYTE   EOT
 BYTE   Gn2  v060
 BYTE   En3
 BYTE   PATT
  POIN2 Label_7_01892587
// 030   ----------------------------------------
 BYTE   W96
// 031   ----------------------------------------
 BYTE   EOT
 BYTE   Cn3  v064
Label_7_018925B5:
 BYTE   N84  As2  v127
 BYTE   N84  Dn3
 BYTE   N84  Fn3
 BYTE   W84
 BYTE   TIE  Cn3
 BYTE   TIE  En3
 BYTE   TIE  Gn3
 BYTE   W12
 BYTE   PEND 
// 032   ----------------------------------------
 BYTE   W96
// 033   ----------------------------------------
 BYTE   EOT
 BYTE   Cn3  v064
 BYTE   Gn3
Label_7_018925CA:
 BYTE   N84  As2  v127
 BYTE   N84  Dn3
 BYTE   N84  An3
 BYTE   W84
 BYTE   TIE  Cn3
 BYTE   TIE  En3
 BYTE   TIE  Gn3
 BYTE   W12
 BYTE   PEND 
// 034   ----------------------------------------
 BYTE   W96
// 035   ----------------------------------------
 BYTE   EOT
 BYTE   Cn3  v064
 BYTE   Gn3
 BYTE   PATT
  POIN2 Label_7_01892597
// 036   ----------------------------------------
 BYTE   W96
// 037   ----------------------------------------
 BYTE   EOT
 BYTE   Gn2  v060
 BYTE   En3
 BYTE   PATT
  POIN2 Label_7_018925B5
// 038   ----------------------------------------
 BYTE   W96
// 039   ----------------------------------------
 BYTE   EOT
 BYTE   Cn3  v064
 BYTE   Gn3
Label_7_018925F3:
 BYTE   N84  As2  v127
 BYTE   N84  Dn3
 BYTE   N84  Fn3
 BYTE   N84  As3
 BYTE   W84
 BYTE   TIE  Cn3
 BYTE   TIE  En3
 BYTE   TIE  Gn3
 BYTE   TIE  Cn4
 BYTE   W12
 BYTE   PEND 
// 040   ----------------------------------------
 BYTE   W96
// 041   ----------------------------------------
 BYTE   EOT
 BYTE   Cn3  v064
 BYTE   Gn3  v072
Label_7_0189260D:
 BYTE   N84  As2  v127
 BYTE   N84  Ds3
 BYTE   N80  Fn3
 BYTE   W84
 BYTE   TIE  An2
 BYTE   TIE  Dn3
 BYTE   TIE  Fn3
 BYTE   W12
 BYTE   PEND 
// 042   ----------------------------------------
 BYTE   W92
 BYTE   W03
 BYTE   EOT
 BYTE   W01
// 043   ----------------------------------------
 BYTE   EOT
 BYTE   An2  v062
Label_7_01892624:
 BYTE   N84  Gn2  v127
 BYTE   N84  Cn3
 BYTE   N80  Fn3
 BYTE   W84
 BYTE   TIE  An2
 BYTE   TIE  Dn3
 BYTE   TIE  Fn3
 BYTE   W12
 BYTE   PEND 
// 044   ----------------------------------------
 BYTE   W92
 BYTE   W03
 BYTE   EOT
 BYTE   Dn3  v065
 BYTE   W01
// 045   ----------------------------------------
 BYTE   An2
Label_7_0189263B:
 BYTE   N84  As2  v127
 BYTE   N84  Dn3
 BYTE   N84  Fn3
 BYTE   W84
 BYTE   TIE  Gs2
 BYTE   TIE  Cn3
 BYTE   TIE  Ds3
 BYTE   W12
 BYTE   PEND 
// 046   ----------------------------------------
 BYTE   W92
 BYTE   W03
 BYTE   EOT
 BYTE   Cn3
 BYTE   W01
// 047   ----------------------------------------
 BYTE   Gs2  v063
Label_7_01892652:
 BYTE   N84  An2  v127
 BYTE   N80  Cn3
 BYTE   N80  Dn3
 BYTE   W84
 BYTE   N96  Gs2
 BYTE   N96  Cn3
 BYTE   N96  Dn3
 BYTE   W12
 BYTE   PEND 
// 048   ----------------------------------------
 BYTE   W96
// 049   ----------------------------------------
 BYTE   W96
// 050   ----------------------------------------
 BYTE   W96
// 051   ----------------------------------------
 BYTE   W96
// 052   ----------------------------------------
 BYTE   W96
// 053   ----------------------------------------
 BYTE   W96
// 054   ----------------------------------------
 BYTE   W96
// 055   ----------------------------------------
 BYTE   W96
// 056   ----------------------------------------
 BYTE   W96
// 057   ----------------------------------------
 BYTE   W96
// 058   ----------------------------------------
 BYTE   W96
// 059   ----------------------------------------
 BYTE   W96
// 060   ----------------------------------------
 BYTE   W96
// 061   ----------------------------------------
 BYTE   W96
// 062   ----------------------------------------
 BYTE   W96
// 063   ----------------------------------------
 BYTE   W96
// 064   ----------------------------------------
 BYTE   W96
// 065   ----------------------------------------
 BYTE   W96
// 066   ----------------------------------------
 BYTE   W96
// 067   ----------------------------------------
 BYTE   W96
// 068   ----------------------------------------
 BYTE   W96
// 069   ----------------------------------------
 BYTE   W96
// 070   ----------------------------------------
 BYTE   W96
// 071   ----------------------------------------
 BYTE   W96
// 072   ----------------------------------------
 BYTE   W96
 BYTE   PATT
  POIN2 Label_7_01892587
// 073   ----------------------------------------
 BYTE   W96
// 074   ----------------------------------------
 BYTE   EOT
 BYTE   Cn3  v064
 BYTE   PATT
  POIN2 Label_7_01892597
// 075   ----------------------------------------
 BYTE   W96
// 076   ----------------------------------------
 BYTE   EOT
 BYTE   Gn2  v060
 BYTE   En3
 BYTE   PATT
  POIN2 Label_7_01892587
// 077   ----------------------------------------
 BYTE   W96
// 078   ----------------------------------------
 BYTE   EOT
 BYTE   Cn3  v064
 BYTE   PATT
  POIN2 Label_7_018925B5
// 079   ----------------------------------------
 BYTE   W96
// 080   ----------------------------------------
 BYTE   EOT
 BYTE   Cn3  v064
 BYTE   Gn3
 BYTE   PATT
  POIN2 Label_7_018925CA
// 081   ----------------------------------------
 BYTE   W96
// 082   ----------------------------------------
 BYTE   EOT
 BYTE   Cn3  v064
 BYTE   Gn3
 BYTE   PATT
  POIN2 Label_7_01892597
// 083   ----------------------------------------
 BYTE   W96
// 084   ----------------------------------------
 BYTE   EOT
 BYTE   Gn2  v060
 BYTE   En3
 BYTE   PATT
  POIN2 Label_7_018925B5
// 085   ----------------------------------------
 BYTE   W96
// 086   ----------------------------------------
 BYTE   EOT
 BYTE   Cn3  v064
 BYTE   Gn3
 BYTE   PATT
  POIN2 Label_7_018925F3
// 087   ----------------------------------------
 BYTE   W96
// 088   ----------------------------------------
 BYTE   EOT
 BYTE   Cn3  v064
 BYTE   Gn3  v072
 BYTE   PATT
  POIN2 Label_7_0189260D
// 089   ----------------------------------------
 BYTE   W92
 BYTE   W03
 BYTE   EOT
 BYTE   Fn3
 BYTE   W01
// 090   ----------------------------------------
 BYTE   An2  v062
 BYTE   PATT
  POIN2 Label_7_01892624
// 091   ----------------------------------------
 BYTE   W92
 BYTE   W03
 BYTE   EOT
 BYTE   Dn3  v065
 BYTE   W01
// 092   ----------------------------------------
 BYTE   An2
 BYTE   PATT
  POIN2 Label_7_0189263B
// 093   ----------------------------------------
 BYTE   W92
 BYTE   W03
 BYTE   EOT
 BYTE   Cn3
 BYTE   W01
// 094   ----------------------------------------
 BYTE   Gs2  v063
 BYTE   PATT
  POIN2 Label_7_01892652
// 095   ----------------------------------------
 BYTE   W56
 BYTE   W03
 BYTE   GoTo
  POIN2 Label_7_0189256E
// 096   ----------------------------------------
 BYTE   W36
 BYTE   W01
 BYTE   FINE

//******************************************************//
	ALIGN 4

PokemonTCG2RonaldsThemePandan:
	BYTE	8	// NumTrks
	BYTE	0	// NumBlks
	BYTE	PokemonTCG2RonaldsThemePandan_pri	// Priority
	BYTE	PokemonTCG2RonaldsThemePandan_rev	// Reverb.
    
	POIN2	PokemonTCG2RonaldsThemePandan_grp
    
	POIN2	PokemonTCG2RonaldsThemePandan_001
	POIN2	PokemonTCG2RonaldsThemePandan_002
	POIN2	PokemonTCG2RonaldsThemePandan_003
	POIN2	PokemonTCG2RonaldsThemePandan_004
	POIN2	PokemonTCG2RonaldsThemePandan_005
	POIN2	PokemonTCG2RonaldsThemePandan_006
	POIN2	PokemonTCG2RonaldsThemePandan_007
	POIN2	PokemonTCG2RonaldsThemePandan_008

	
