//Event file generated from Sappy .s format.
	#include "MPlayDef.event"

	#define	PokemonRangerGuardianSignsRangerSignSme_grp  voicegroup000
	#define	PokemonRangerGuardianSignsRangerSignSme_pri  0
	#define	PokemonRangerGuardianSignsRangerSignSme_rev  0
	#define	PokemonRangerGuardianSignsRangerSignSme_mvl  127
	#define	PokemonRangerGuardianSignsRangerSignSme_key  0
	#define	PokemonRangerGuardianSignsRangerSignSme_tbs  1
	#define	PokemonRangerGuardianSignsRangerSignSme_exg  0
	#define	PokemonRangerGuardianSignsRangerSignSme_cmp  1

	// .rodata
	//	PokemonRangerGuardianSignsRangerSignSme
	ALIGN 4


//**************** Track 1 (Midi-Chn.0) ****************//

PokemonRangerGuardianSignsRangerSignSme_001:
//  #01 //000   ----------------------------------------
 BYTE   KEYSH   PokemonRangerGuardianSignsRangerSignSme_key+0
 BYTE   TEMPO   168*PokemonRangerGuardianSignsRangerSignSme_tbs/2
 BYTE   VOICE   123
 BYTE   VOL   58*PokemonRangerGuardianSignsRangerSignSme_mvl/mxv
 BYTE   PAN   c_v-11
 BYTE   N06  Cn1  v100
 BYTE   N06  Fs1  v088
 BYTE   W06
 BYTE   N03  Dn1  v021
 BYTE   W03
 BYTE   Dn1  v039
 BYTE   W03
 BYTE   N06  Dn1  v098
 BYTE   W06
 BYTE   Dn1
 BYTE   W06
Label_0100583A:
 BYTE   N06  Cn1  v110
 BYTE   W36
 BYTE   Fs1  v090
 BYTE   N12  Cs1  v085
 BYTE   W12
 BYTE   N06  Fs1  v030
 BYTE   W12
 BYTE   N12  Cs1  v085
 BYTE   N06  Fs1  v091
 BYTE   W12
//  #01 //001   ----------------------------------------
 BYTE   Fs1  v040
 BYTE   W12
 BYTE   N12  Cs1  v085
 BYTE   N06  Fs1  v091
 BYTE   W12
 BYTE   Cn1  v111
 BYTE   W12
 BYTE   N12  Cs1  v100
 BYTE   N06  Fs1  v088
 BYTE   W12
 BYTE   Fs1  v024
 BYTE   W12
 BYTE   Fs1  v090
 BYTE   N12  Cs1  v085
 BYTE   W12
 BYTE   N06  Fs1  v030
 BYTE   W12
 BYTE   N12  Cs1  v085
 BYTE   N06  Fs1  v091
 BYTE   W12
//  #01 //002   ----------------------------------------
 BYTE   Fs1  v053
 BYTE   W12
 BYTE   N12  Cs1  v085
 BYTE   N06  Fs1  v091
 BYTE   W12
 BYTE   Fs1  v040
 BYTE   N06  Cn1  v111
 BYTE   W12
 BYTE   N12  Cs1  v100
 BYTE   N06  Fs1  v088
 BYTE   W12
 BYTE   Fs1  v024
 BYTE   W12
 BYTE   Fs1  v090
 BYTE   N12  Cs1  v085
 BYTE   W12
 BYTE   N06  Fs1  v030
 BYTE   W12
 BYTE   N12  Cs1  v085
 BYTE   N06  Fs1  v091
 BYTE   W12
//  #01 //003   ----------------------------------------
 BYTE   Cn1  v099
 BYTE   N06  Fs1  v040
 BYTE   W12
 BYTE   N12  Cs1  v085
 BYTE   N06  Fs1  v091
 BYTE   W12
 BYTE   Fs1  v045
 BYTE   W12
 BYTE   N12  Cs1  v100
 BYTE   N06  Fs1  v088
 BYTE   W12
 BYTE   Fs1  v024
 BYTE   W12
 BYTE   Fs1  v090
 BYTE   N12  Cs1  v085
 BYTE   W12
 BYTE   N06  Cn1  v111
 BYTE   N06  Fs1  v030
 BYTE   W12
 BYTE   Fs1  v090
 BYTE   N12  Cs1  v085
 BYTE   N06  Bn1  v075
 BYTE   W06
 BYTE   Bn1  v087
 BYTE   W06
//  #01 //004   ----------------------------------------
 BYTE   N12  Bn1  v122
 BYTE   W12
 BYTE   An1  v100
 BYTE   W12
 BYTE   N06  Cn1  v111
 BYTE   W36
 BYTE   Cn1  v092
 BYTE   W24
 BYTE   Cn1  v100
 BYTE   N06  Fs1  v088
 BYTE   W12
//  #01 //005   ----------------------------------------
 BYTE   W12
 BYTE   Cn1  v098
 BYTE   N06  Fs1  v088
 BYTE   W12
 BYTE   Fs1  v045
 BYTE   W12
 BYTE   Cn1  v111
 BYTE   N06  Fs1  v085
 BYTE   W12
 BYTE   Fs1  v024
 BYTE   W12
 BYTE   Cn1  v092
 BYTE   N06  Fs1  v087
 BYTE   W12
 BYTE   Fs1  v030
 BYTE   W12
 BYTE   Cn1  v100
 BYTE   N06  Fs1  v088
 BYTE   W12
//  #01 //006   ----------------------------------------
 BYTE   N12  Cs1  v100
 BYTE   W12
 BYTE   N06  Cn1  v098
 BYTE   N06  Fs1  v088
 BYTE   W24
 BYTE   Cn1  v111
 BYTE   N06  Fs1  v088
 BYTE   W12
 BYTE   Fs1  v040
 BYTE   N12  Dn1  v100
 BYTE   W12
 BYTE   N24  An1  v104
 BYTE   W24
 BYTE   N12  Dn1  v100
 BYTE   W12
//  #01 //007   ----------------------------------------
 BYTE   Gn1  v104
 BYTE   W12
 BYTE   N06  Cn1  v098
 BYTE   W12
 BYTE   N12  An1  v122
 BYTE   W12
 BYTE   N06  Cn1  v111
 BYTE   W12
 BYTE   N12  Fn1  v122
 BYTE   W12
 BYTE   N06  Cn1  v092
 BYTE   W12
 BYTE   N03  Dn1  v039
 BYTE   W03
 BYTE   Dn1
 BYTE   W03
 BYTE   Dn1  v069
 BYTE   W03
 BYTE   Dn1
 BYTE   W03
 BYTE   N06  Cn1  v100
 BYTE   N12  Dn1  v122
 BYTE   W12
//  #01 //008   ----------------------------------------
 BYTE   An1
 BYTE   W12
 BYTE   N06  Cn1  v100
 BYTE   W12
 BYTE   GoTo
  POIN2 Label_0100583A
//  #01 //009   ----------------------------------------
 BYTE   W20
 BYTE   FINE

//**************** Track 2 (Midi-Chn.1) ****************//

PokemonRangerGuardianSignsRangerSignSme_002:
//  #02 //000   ----------------------------------------
 BYTE   KEYSH   PokemonRangerGuardianSignsRangerSignSme_key+0
 BYTE   VOICE   116
 BYTE   VOL   59*PokemonRangerGuardianSignsRangerSignSme_mvl/mxv
 BYTE   W24
Label_01004D2B:
 BYTE   PAN   c_v-30
 BYTE   N12  Bn1  v083
 BYTE   W12
 BYTE   N06  En2
 BYTE   W06
 BYTE   En2
 BYTE   W06
 BYTE   En2
 BYTE   W06
 BYTE   En2
 BYTE   W06
 BYTE   N12  En2  v088
 BYTE   W12
 BYTE   Bn1  v083
 BYTE   W12
 BYTE   En2  v088
 BYTE   W12
//  #02 //001   ----------------------------------------
Label_01004D44:
 BYTE   N12  Bn1  v083
 BYTE   W12
 BYTE   En2  v088
 BYTE   W12
 BYTE   Bn1  v083
 BYTE   W12
 BYTE   En2  v088
 BYTE   W12
 BYTE   Bn1  v083
 BYTE   W12
 BYTE   En2  v088
 BYTE   W12
 BYTE   Bn1  v083
 BYTE   W12
 BYTE   En2  v088
 BYTE   W12
 BYTE   PEND 
//  #02 //002   ----------------------------------------
 BYTE   PATT
  POIN2 Label_01004D44
//  #02 //003   ----------------------------------------
 BYTE   PATT
  POIN2 Label_01004D44
//  #02 //004   ----------------------------------------
 BYTE   N12  Bn1  v083
 BYTE   W12
 BYTE   En2  v088
 BYTE   W12
 BYTE   Bn1  v083
 BYTE   W12
 BYTE   N06  En2
 BYTE   W06
 BYTE   En2
 BYTE   W06
 BYTE   En2
 BYTE   W06
 BYTE   En2
 BYTE   W06
 BYTE   N12  En2  v088
 BYTE   W12
 BYTE   Bn1  v083
 BYTE   W12
 BYTE   En2  v088
 BYTE   W12
//  #02 //005   ----------------------------------------
 BYTE   PATT
  POIN2 Label_01004D44
//  #02 //006   ----------------------------------------
 BYTE   PATT
  POIN2 Label_01004D44
//  #02 //007   ----------------------------------------
 BYTE   PATT
  POIN2 Label_01004D44
//  #02 //008   ----------------------------------------
 BYTE   N12  Bn1  v083
 BYTE   W12
 BYTE   En2  v088
 BYTE   W12
 BYTE   GoTo
  POIN2 Label_01004D2B
//  #02 //009   ----------------------------------------
 BYTE   W20
 BYTE   FINE

//**************** Track 3 (Midi-Chn.2) ****************//

PokemonRangerGuardianSignsRangerSignSme_003:
//  #03 //000   ----------------------------------------
 BYTE   KEYSH   PokemonRangerGuardianSignsRangerSignSme_key+0
 BYTE   VOICE   34
 BYTE   VOL   68*PokemonRangerGuardianSignsRangerSignSme_mvl/mxv
 BYTE   W24
Label_0100559B:
 BYTE   PAN   c_v-8
 BYTE   N96  En1  v121
 BYTE   W72
//  #03 //001   ----------------------------------------
 BYTE   W24
 BYTE   Fs1  v112
 BYTE   W72
//  #03 //002   ----------------------------------------
 BYTE   W24
 BYTE   N68  An1  v115  gtp2
 BYTE   W72
//  #03 //003   ----------------------------------------
 BYTE   N06  An1  v127
 BYTE   W12
 BYTE   N12  Bn1  v102
 BYTE   W12
 BYTE   Gn1
 BYTE   W12
 BYTE   An1
 BYTE   W12
 BYTE   Cn2
 BYTE   W12
 BYTE   En2
 BYTE   W12
 BYTE   Ds2
 BYTE   W24
//  #03 //004   ----------------------------------------
 BYTE   Bn1
 BYTE   W24
 BYTE   N92  En2  v110  gtp2
 BYTE   W72
//  #03 //005   ----------------------------------------
 BYTE   W24
 BYTE   TIE  Dn2  v105
 BYTE   W72
//  #03 //006   ----------------------------------------
 BYTE   W36
 BYTE   EOT
 BYTE   N72  An1  v117
 BYTE   W60
//  #03 //007   ----------------------------------------
 BYTE   W24
 BYTE   N12  Gn1  v102
 BYTE   W12
 BYTE   An1
 BYTE   W12
 BYTE   Gn1
 BYTE   W12
 BYTE   An1
 BYTE   W12
 BYTE   Bn1
 BYTE   W24
//  #03 //008   ----------------------------------------
 BYTE   Dn2
 BYTE   W24
 BYTE   GoTo
  POIN2 Label_0100559B
//  #03 //009   ----------------------------------------
 BYTE   W20
 BYTE   FINE

//**************** Track 4 (Midi-Chn.3) ****************//

PokemonRangerGuardianSignsRangerSignSme_004:
//  #04 //000   ----------------------------------------
 BYTE   KEYSH   PokemonRangerGuardianSignsRangerSignSme_key+0
 BYTE   VOICE   30
 BYTE   VOL   17*PokemonRangerGuardianSignsRangerSignSme_mvl/mxv
 BYTE   W24
Label_010061B7:
 BYTE   PAN   c_v-48
 BYTE   W01
 BYTE   TIE  Bn1  v125
 BYTE   W68
 BYTE   W03
//  #04 //001   ----------------------------------------
 BYTE   W96
//  #04 //002   ----------------------------------------
 BYTE   W32
 BYTE   W02
 BYTE   EOT
 BYTE   W60
 BYTE   W02
//  #04 //003   ----------------------------------------
 BYTE   W24
 BYTE   N08  Gn1  v107
 BYTE   W13
 BYTE   N12  Cn3  v085
 BYTE   W01
 BYTE   BEND   c_v-1
 BYTE   W02
 BYTE   BEND   c_v-3
 BYTE   W03
 BYTE   BEND   c_v-2
 BYTE   W03
 BYTE   BEND   c_v+0
 BYTE   W03
 BYTE   N12  En3  v107
 BYTE   W01
 BYTE   BEND   c_v+1
 BYTE   W03
 BYTE   BEND   c_v-1
 BYTE   W02
 BYTE   BEND   c_v-2
 BYTE   W03
 BYTE   BEND   c_v+0
 BYTE   W03
 BYTE   N24  Fs3
 BYTE   W04
 BYTE   BEND   c_v-3
 BYTE   W01
 BYTE   BEND   c_v+0
 BYTE   W01
 BYTE   BEND   c_v+4
 BYTE   W01
 BYTE   BEND   c_v+21
 BYTE   W01
 BYTE   BEND   c_v+46
 BYTE   W02
 BYTE   BEND   c_v+44
 BYTE   W01
 BYTE   BEND   c_v+42
 BYTE   W01
 BYTE   BEND   c_v+41
 BYTE   W01
 BYTE   BEND   c_v+21
 BYTE   W01
 BYTE   BEND   c_v+11
 BYTE   W01
 BYTE   BEND   c_v+4
 BYTE   W02
 BYTE   BEND   c_v+6
 BYTE   W03
 BYTE   BEND   c_v+5
 BYTE   W02
 BYTE   BEND   c_v+0
 BYTE   W13
//  #04 //004   ----------------------------------------
 BYTE   N14  Ds3
 BYTE   W24
 BYTE   TIE  En3
 BYTE   W03
 BYTE   BEND   c_v-3
 BYTE   W03
 BYTE   BEND   c_v-4
 BYTE   W02
 BYTE   BEND   c_v-3
 BYTE   W01
 BYTE   BEND   c_v-1
 BYTE   W03
 BYTE   BEND   c_v+0
 BYTE   W02
 BYTE   BEND   c_v-2
 BYTE   W01
 BYTE   BEND   c_v+1
 BYTE   W01
 BYTE   BEND   c_v+4
 BYTE   W01
 BYTE   BEND   c_v+7
 BYTE   W04
 BYTE   BEND   c_v+6
 BYTE   W01
 BYTE   BEND   c_v+5
 BYTE   W02
 BYTE   BEND   c_v+3
 BYTE   W01
 BYTE   BEND   c_v+1
 BYTE   W03
 BYTE   BEND   c_v+2
 BYTE   W01
 BYTE   BEND   c_v+3
 BYTE   W01
 BYTE   BEND   c_v+5
 BYTE   W01
 BYTE   BEND   c_v+6
 BYTE   W05
 BYTE   BEND   c_v+5
 BYTE   W01
 BYTE   BEND   c_v+3
 BYTE   W02
 BYTE   BEND   c_v+2
 BYTE   W06
 BYTE   BEND   c_v+3
 BYTE   W01
 BYTE   BEND   c_v+4
 BYTE   W02
 BYTE   BEND   c_v+5
 BYTE   W02
 BYTE   BEND   c_v+6
 BYTE   W03
 BYTE   BEND   c_v+7
 BYTE   W03
 BYTE   BEND   c_v+6
 BYTE   W01
 BYTE   BEND   c_v+5
 BYTE   W01
 BYTE   BEND   c_v+3
 BYTE   W01
 BYTE   BEND   c_v+2
 BYTE   W02
 BYTE   BEND   c_v+3
 BYTE   W01
 BYTE   BEND   c_v+6
 BYTE   W02
 BYTE   BEND   c_v+7
 BYTE   W03
 BYTE   BEND   c_v+6
 BYTE   W03
 BYTE   BEND   c_v+4
 BYTE   W02
//  #04 //005   ----------------------------------------
 BYTE   W01
 BYTE   BEND   c_v+2
 BYTE   W01
 BYTE   BEND   c_v+1
 BYTE   W01
 BYTE   BEND   c_v+14
 BYTE   W01
 BYTE   BEND   c_v+11
 BYTE   W01
 BYTE   BEND   c_v+9
 BYTE   W01
 BYTE   BEND   c_v+7
 BYTE   W01
 BYTE   BEND   c_v+6
 BYTE   W01
 BYTE   BEND   c_v+5
 BYTE   W02
 BYTE   BEND   c_v+1
 BYTE   W01
 BYTE   BEND   c_v+12
 BYTE   W02
 BYTE   BEND   c_v+10
 BYTE   W01
 BYTE   BEND   c_v+8
 BYTE   W02
 BYTE   BEND   c_v+11
 BYTE   W01
 BYTE   BEND   c_v+15
 BYTE   W01
 BYTE   BEND   c_v+11
 BYTE   W01
 BYTE   BEND   c_v+10
 BYTE   W01
 BYTE   BEND   c_v+9
 BYTE   W01
 BYTE   BEND   c_v+7
 BYTE   W01
 BYTE   BEND   c_v+6
 BYTE   W01
 BYTE   BEND   c_v+4
 BYTE   W01
 BYTE   BEND   c_v+1
 BYTE   W01
 BYTE   BEND   c_v-1
 BYTE   W01
 BYTE   BEND   c_v+4
 BYTE   W02
 BYTE   BEND   c_v+13
 BYTE   W01
 BYTE   BEND   c_v+6
 BYTE   W01
 BYTE   BEND   c_v+4
 BYTE   W01
 BYTE   BEND   c_v+2
 BYTE   W01
 BYTE   BEND   c_v+1
 BYTE   W01
 BYTE   BEND   c_v-1
 BYTE   W02
 BYTE   EOT
 BYTE   BEND   c_v+0
 BYTE   W01
 BYTE   BEND   c_v+8
 BYTE   W03
 BYTE   BEND   c_v+10
 BYTE   W01
 BYTE   BEND   c_v+5
 BYTE   W02
 BYTE   BEND   c_v+0
 BYTE   W54
//  #04 //006   ----------------------------------------
 BYTE   W96
//  #04 //007   ----------------------------------------
 BYTE   N08  Bn1  v120
 BYTE   W12
 BYTE   N80  Bn0  v115  gtp2
 BYTE   W28
 BYTE   BEND   c_v-1
 BYTE   W03
 BYTE   BEND   c_v+26
 BYTE   W02
 BYTE   BEND   c_v+43
 BYTE   W03
 BYTE   BEND   c_v+38
 BYTE   W02
 BYTE   BEND   c_v-1
 BYTE   W09
 BYTE   BEND   c_v+0
 BYTE   W05
 BYTE   BEND   c_v+3
 BYTE   W02
 BYTE   BEND   c_v+2
 BYTE   W03
 BYTE   BEND   c_v-1
 BYTE   W02
 BYTE   BEND   c_v+0
 BYTE   W06
 BYTE   BEND   c_v-5
 BYTE   W03
 BYTE   BEND   c_v-4
 BYTE   W02
 BYTE   BEND   c_v-3
 BYTE   W06
 BYTE   BEND   c_v-18
 BYTE   W02
 BYTE   BEND   c_v+0
 BYTE   W06
//  #04 //008   ----------------------------------------
 BYTE   N08  Dn1  v127
 BYTE   W03
 BYTE   BEND   c_v+1
 BYTE   W06
 BYTE   BEND   c_v+0
 BYTE   W15
 BYTE   GoTo
  POIN2 Label_010061B7
//  #04 //009   ----------------------------------------
 BYTE   W20
 BYTE   FINE

//**************** Track 5 (Midi-Chn.4) ****************//

PokemonRangerGuardianSignsRangerSignSme_005:
//  #05 //000   ----------------------------------------
 BYTE   KEYSH   PokemonRangerGuardianSignsRangerSignSme_key+0
 BYTE   VOICE   30
 BYTE   VOL   17*PokemonRangerGuardianSignsRangerSignSme_mvl/mxv
 BYTE   W24
Label_01006037:
 BYTE   PAN   c_v+42
 BYTE   TIE  En1  v120
 BYTE   W72
//  #05 //001   ----------------------------------------
 BYTE   W96
//  #05 //002   ----------------------------------------
 BYTE   W32
 BYTE   EOT
 BYTE   W64
//  #05 //003   ----------------------------------------
 BYTE   W24
 BYTE   N08  Bn1
 BYTE   W13
 BYTE   N07  En2  v105
 BYTE   W01
 BYTE   BEND   c_v-1
 BYTE   W02
 BYTE   BEND   c_v-3
 BYTE   W03
 BYTE   BEND   c_v-2
 BYTE   W03
 BYTE   BEND   c_v+0
 BYTE   W03
 BYTE   N12  Gn2  v127
 BYTE   W01
 BYTE   BEND   c_v+1
 BYTE   W03
 BYTE   BEND   c_v-1
 BYTE   W02
 BYTE   BEND   c_v-2
 BYTE   W03
 BYTE   BEND   c_v+0
 BYTE   W03
 BYTE   N24  An2
 BYTE   W04
 BYTE   BEND   c_v-3
 BYTE   W01
 BYTE   BEND   c_v+0
 BYTE   W01
 BYTE   BEND   c_v+4
 BYTE   W01
 BYTE   BEND   c_v+28
 BYTE   W01
 BYTE   BEND   c_v+63
 BYTE   W05
 BYTE   BEND   c_v+31
 BYTE   W01
 BYTE   BEND   c_v+14
 BYTE   W01
 BYTE   BEND   c_v+4
 BYTE   W02
 BYTE   BEND   c_v+6
 BYTE   W03
 BYTE   BEND   c_v+5
 BYTE   W02
 BYTE   BEND   c_v+0
 BYTE   W13
//  #05 //004   ----------------------------------------
 BYTE   N14  Fn2
 BYTE   W01
 BYTE   BEND   c_v+17
 BYTE   W01
 BYTE   BEND   c_v+36
 BYTE   W03
 BYTE   BEND   c_v+34
 BYTE   W09
 BYTE   BEND   c_v+33
 BYTE   W01
 BYTE   BEND   c_v+15
 BYTE   W01
 BYTE   BEND   c_v+0
 BYTE   W08
 BYTE   TIE  Gn2
 BYTE   W03
 BYTE   BEND   c_v-3
 BYTE   W03
 BYTE   BEND   c_v-4
 BYTE   W02
 BYTE   BEND   c_v-3
 BYTE   W01
 BYTE   BEND   c_v-1
 BYTE   W03
 BYTE   BEND   c_v+0
 BYTE   W02
 BYTE   BEND   c_v-2
 BYTE   W02
 BYTE   BEND   c_v+3
 BYTE   W01
 BYTE   BEND   c_v+4
 BYTE   W02
 BYTE   BEND   c_v+3
 BYTE   W03
 BYTE   BEND   c_v+4
 BYTE   W01
 BYTE   BEND   c_v+5
 BYTE   W01
 BYTE   BEND   c_v+6
 BYTE   W02
 BYTE   BEND   c_v+5
 BYTE   W01
 BYTE   BEND   c_v+4
 BYTE   W06
 BYTE   BEND   c_v+3
 BYTE   W03
 BYTE   BEND   c_v+4
 BYTE   W01
 BYTE   BEND   c_v+5
 BYTE   W04
 BYTE   BEND   c_v+6
 BYTE   W03
 BYTE   BEND   c_v+4
 BYTE   W02
 BYTE   BEND   c_v+3
 BYTE   W01
 BYTE   BEND   c_v+2
 BYTE   W07
 BYTE   BEND   c_v+3
 BYTE   W02
 BYTE   BEND   c_v+2
 BYTE   W02
 BYTE   BEND   c_v+3
 BYTE   W11
 BYTE   BEND   c_v+2
 BYTE   W02
 BYTE   BEND   c_v+1
 BYTE   W01
//  #05 //005   ----------------------------------------
 BYTE   W02
 BYTE   BEND   c_v+2
 BYTE   W01
 BYTE   BEND   c_v+4
 BYTE   W01
 BYTE   BEND   c_v+2
 BYTE   W05
 BYTE   BEND   c_v+3
 BYTE   W03
 BYTE   BEND   c_v+4
 BYTE   W01
 BYTE   BEND   c_v+5
 BYTE   W04
 BYTE   BEND   c_v+4
 BYTE   W01
 BYTE   BEND   c_v+1
 BYTE   W02
 BYTE   BEND   c_v+2
 BYTE   W01
 BYTE   BEND   c_v+3
 BYTE   W01
 BYTE   BEND   c_v+5
 BYTE   W01
 BYTE   BEND   c_v+6
 BYTE   W01
 BYTE   BEND   c_v+5
 BYTE   W03
 BYTE   BEND   c_v+4
 BYTE   W01
 BYTE   BEND   c_v+3
 BYTE   W03
 BYTE   BEND   c_v+4
 BYTE   W02
 BYTE   BEND   c_v+5
 BYTE   W05
 BYTE   BEND   c_v+4
 BYTE   W01
 BYTE   BEND   c_v+3
 BYTE   W02
 BYTE   EOT
 BYTE   BEND   c_v+2
 BYTE   W01
 BYTE   BEND   c_v+0
 BYTE   W54
//  #05 //006   ----------------------------------------
 BYTE   W96
//  #05 //007   ----------------------------------------
 BYTE   W01
 BYTE   N08  En1  v120
 BYTE   W12
 BYTE   N80  Gn0  v118  gtp2
 BYTE   W24
 BYTE   W03
 BYTE   BEND   c_v-1
 BYTE   W01
 BYTE   BEND   c_v+13
 BYTE   W01
 BYTE   BEND   c_v+21
 BYTE   W01
 BYTE   BEND   c_v+30
 BYTE   W01
 BYTE   BEND   c_v+35
 BYTE   W01
 BYTE   BEND   c_v+43
 BYTE   W02
 BYTE   BEND   c_v+41
 BYTE   W01
 BYTE   BEND   c_v+38
 BYTE   W01
 BYTE   BEND   c_v+22
 BYTE   W01
 BYTE   BEND   c_v-1
 BYTE   W09
 BYTE   BEND   c_v+0
 BYTE   W03
 BYTE   BEND   c_v+1
 BYTE   W02
 BYTE   BEND   c_v+3
 BYTE   W02
 BYTE   BEND   c_v+2
 BYTE   W02
 BYTE   BEND   c_v+1
 BYTE   W01
 BYTE   BEND   c_v-1
 BYTE   W02
 BYTE   BEND   c_v+0
 BYTE   W03
 BYTE   BEND   c_v-2
 BYTE   W03
 BYTE   BEND   c_v-5
 BYTE   W03
 BYTE   BEND   c_v-4
 BYTE   W02
 BYTE   BEND   c_v-3
 BYTE   W04
 BYTE   BEND   c_v-7
 BYTE   W01
 BYTE   BEND   c_v-15
 BYTE   W01
 BYTE   BEND   c_v-18
 BYTE   W01
 BYTE   BEND   c_v-4
 BYTE   W01
 BYTE   BEND   c_v+0
 BYTE   W06
//  #05 //008   ----------------------------------------
 BYTE   N08  Dn2  v127
 BYTE   N07  An2
 BYTE   W03
 BYTE   BEND   c_v+1
 BYTE   W06
 BYTE   BEND   c_v+0
 BYTE   W15
 BYTE   GoTo
  POIN2 Label_01006037
//  #05 //009   ----------------------------------------
 BYTE   W20
 BYTE   FINE

//**************** Track 6 (Midi-Chn.5) ****************//

PokemonRangerGuardianSignsRangerSignSme_006:
//  #06 //000   ----------------------------------------
 BYTE   KEYSH   PokemonRangerGuardianSignsRangerSignSme_key+0
 BYTE   VOICE   56
 BYTE   VOL   115*PokemonRangerGuardianSignsRangerSignSme_mvl/mxv
 BYTE   W24
Label_010055EF:
 BYTE   PAN   c_v-13
 BYTE   N68  En3  v062  gtp1
 BYTE   W72
//  #06 //001   ----------------------------------------
 BYTE   N04  En3  v078
 BYTE   W24
 BYTE   N90  Fs3  v062
 BYTE   W72
//  #06 //002   ----------------------------------------
 BYTE   W24
 BYTE   N68  An3  v062  gtp1
 BYTE   W72
//  #06 //003   ----------------------------------------
 BYTE   N13  An3  v061
 BYTE   W12
 BYTE   N04  Bn3  v078
 BYTE   W12
 BYTE   N68  Cn4  v062
 BYTE   W72
//  #06 //004   ----------------------------------------
 BYTE   N04  Bn3  v078
 BYTE   W24
 BYTE   N68  En4  v062  gtp1
 BYTE   W72
//  #06 //005   ----------------------------------------
 BYTE   N04  En4  v078
 BYTE   W24
 BYTE   N92  Dn4  v065  gtp2
 BYTE   W72
//  #06 //006   ----------------------------------------
 BYTE   W36
 BYTE   N54  Cn4  v065  gtp1
 BYTE   W60
//  #06 //007   ----------------------------------------
 BYTE   N04  Cn4  v079
 BYTE   W24
 BYTE   N66  En4  v065
 BYTE   W72
//  #06 //008   ----------------------------------------
 BYTE   N12  Ds3  v079
 BYTE   W12
 BYTE   N04  Bn2  v078
 BYTE   W12
 BYTE   GoTo
  POIN2 Label_010055EF
//  #06 //009   ----------------------------------------
 BYTE   W20
 BYTE   FINE

//**************** Track 7 (Midi-Chn.6) ****************//

PokemonRangerGuardianSignsRangerSignSme_007:
//  #07 //000   ----------------------------------------
 BYTE   KEYSH   PokemonRangerGuardianSignsRangerSignSme_key+0
 BYTE   VOICE   56
 BYTE   VOL   114*PokemonRangerGuardianSignsRangerSignSme_mvl/mxv
 BYTE   W24
Label_0100530F:
 BYTE   PAN   c_v-13
 BYTE   N66  Gn2  v065  gtp1
 BYTE   N68  Bn2  v063
 BYTE   W72
//  #07 //001   ----------------------------------------
 BYTE   N04  Gn2  v079
 BYTE   N04  Bn2  v086
 BYTE   W24
 BYTE   N88  An2  v065
 BYTE   N88  Dn3  v056  gtp1
 BYTE   W72
//  #07 //002   ----------------------------------------
 BYTE   W24
 BYTE   N66  Cn3  v065  gtp1
 BYTE   N68  En3  v063
 BYTE   W72
//  #07 //003   ----------------------------------------
 BYTE   N13  Cn3  v062
 BYTE   N13  En3  v069
 BYTE   W12
 BYTE   N04  Dn3  v074
 BYTE   N04  Fs3  v067
 BYTE   W12
 BYTE   N66  En3  v065
 BYTE   N66  Gn3  v056  gtp1
 BYTE   W72
//  #07 //004   ----------------------------------------
 BYTE   N04  Ds3  v074
 BYTE   N04  Fs3  v067
 BYTE   W24
 BYTE   N66  Gn3  v065  gtp1
 BYTE   N68  Bn3  v063
 BYTE   W72
//  #07 //005   ----------------------------------------
 BYTE   N04  Gn3  v074
 BYTE   N04  Bn3  v067
 BYTE   W24
 BYTE   N96  Fs3  v066
 BYTE   N92  An3  v066  gtp3
 BYTE   W72
//  #07 //006   ----------------------------------------
 BYTE   W36
 BYTE   N56  En3  v065
 BYTE   N56  An3  v064  gtp1
 BYTE   W60
//  #07 //007   ----------------------------------------
 BYTE   N04  En3  v062
 BYTE   N04  An3  v081
 BYTE   W24
 BYTE   N66  Gn3  v066  gtp1
 BYTE   N68  Cn4
 BYTE   W72
//  #07 //008   ----------------------------------------
 BYTE   N11  Fs2  v073
 BYTE   N12  Bn2  v078
 BYTE   W12
 BYTE   N04  Ds2  v079
 BYTE   N04  Fs2  v063
 BYTE   W12
 BYTE   GoTo
  POIN2 Label_0100530F
//  #07 //009   ----------------------------------------
 BYTE   W20
 BYTE   FINE

//**************** Track 8 (Midi-Chn.7) ****************//

PokemonRangerGuardianSignsRangerSignSme_008:
//  #08 //000   ----------------------------------------
 BYTE   KEYSH   PokemonRangerGuardianSignsRangerSignSme_key+0
 BYTE   VOICE   60
 BYTE   VOL   24*PokemonRangerGuardianSignsRangerSignSme_mvl/mxv
 BYTE   W24
Label_0100539B:
 BYTE   PAN   c_v+5
 BYTE   W60
 BYTE   N32  Bn1  v082  gtp2
 BYTE   W12
//  #08 //001   ----------------------------------------
 BYTE   W20
 BYTE   N05  Cn2  v066
 BYTE   W04
 BYTE   N04  Dn2  v077
 BYTE   W03
 BYTE   N03  En2  v067
 BYTE   W02
 BYTE   Fn2  v068
 BYTE   W02
 BYTE   N04  Gn2  v075
 BYTE   W03
 BYTE   An2  v084
 BYTE   W02
 BYTE   TIE  Bn2  v071
 BYTE   W60
//  #08 //002   ----------------------------------------
 BYTE   W96
//  #08 //003   ----------------------------------------
 BYTE   W92
 BYTE   W02
 BYTE   VOL   23*PokemonRangerGuardianSignsRangerSignSme_mvl/mxv
 BYTE   W02
//  #08 //004   ----------------------------------------
 BYTE   W09
 BYTE   VOL   22*PokemonRangerGuardianSignsRangerSignSme_mvl/mxv
 BYTE   W07
 BYTE   VOL   21*PokemonRangerGuardianSignsRangerSignSme_mvl/mxv
 BYTE   W05
 BYTE   VOL   20*PokemonRangerGuardianSignsRangerSignSme_mvl/mxv
 BYTE   W01
 BYTE   VOL   19*PokemonRangerGuardianSignsRangerSignSme_mvl/mxv
 BYTE   W03
 BYTE   VOL   18*PokemonRangerGuardianSignsRangerSignSme_mvl/mxv
 BYTE   W02
 BYTE   VOL   17*PokemonRangerGuardianSignsRangerSignSme_mvl/mxv
 BYTE   W01
 BYTE   VOL   16*PokemonRangerGuardianSignsRangerSignSme_mvl/mxv
 BYTE   W02
 BYTE   VOL   15*PokemonRangerGuardianSignsRangerSignSme_mvl/mxv
 BYTE   W01
 BYTE   VOL   13*PokemonRangerGuardianSignsRangerSignSme_mvl/mxv
 BYTE   W02
 BYTE   VOL   10*PokemonRangerGuardianSignsRangerSignSme_mvl/mxv
 BYTE   W01
 BYTE   EOT
 BYTE   VOL   7*PokemonRangerGuardianSignsRangerSignSme_mvl/mxv
 BYTE   W02
 BYTE   VOL   0*PokemonRangerGuardianSignsRangerSignSme_mvl/mxv
 BYTE   W01
 BYTE   VOL   2*PokemonRangerGuardianSignsRangerSignSme_mvl/mxv
 BYTE   W01
 BYTE   VOL   5*PokemonRangerGuardianSignsRangerSignSme_mvl/mxv
 BYTE   W01
 BYTE   VOL   6*PokemonRangerGuardianSignsRangerSignSme_mvl/mxv
 BYTE   W01
 BYTE   VOL   8*PokemonRangerGuardianSignsRangerSignSme_mvl/mxv
 BYTE   W01
 BYTE   VOL   11*PokemonRangerGuardianSignsRangerSignSme_mvl/mxv
 BYTE   W01
 BYTE   VOL   13*PokemonRangerGuardianSignsRangerSignSme_mvl/mxv
 BYTE   W01
 BYTE   VOL   14*PokemonRangerGuardianSignsRangerSignSme_mvl/mxv
 BYTE   W01
 BYTE   VOL   18*PokemonRangerGuardianSignsRangerSignSme_mvl/mxv
 BYTE   W01
 BYTE   VOL   19*PokemonRangerGuardianSignsRangerSignSme_mvl/mxv
 BYTE   W01
 BYTE   VOL   21*PokemonRangerGuardianSignsRangerSignSme_mvl/mxv
 BYTE   W01
 BYTE   VOL   24*PokemonRangerGuardianSignsRangerSignSme_mvl/mxv
 BYTE   W36
 BYTE   W01
 BYTE   N32  Bn2  v078  gtp2
 BYTE   W12
//  #08 //005   ----------------------------------------
 BYTE   W20
 BYTE   N05  Cn3  v066
 BYTE   W04
 BYTE   N04  Dn3  v077
 BYTE   W03
 BYTE   N03  En3  v067
 BYTE   W02
 BYTE   Fn3  v068
 BYTE   W02
 BYTE   N04  Gn3  v075
 BYTE   W03
 BYTE   An3  v084
 BYTE   W02
 BYTE   TIE  Bn3  v062
 BYTE   W60
//  #08 //006   ----------------------------------------
 BYTE   W96
//  #08 //007   ----------------------------------------
 BYTE   W92
 BYTE   W02
 BYTE   EOT
 BYTE   W02
//  #08 //008   ----------------------------------------
 BYTE   W24
 BYTE   GoTo
  POIN2 Label_0100539B
//  #08 //009   ----------------------------------------
 BYTE   W20
 BYTE   FINE

//******************************************************//
	ALIGN 4

PokemonRangerGuardianSignsRangerSignSme:
	BYTE	8	// NumTrks
	BYTE	0	// NumBlks
	BYTE	PokemonRangerGuardianSignsRangerSignSme_pri	// Priority
	BYTE	PokemonRangerGuardianSignsRangerSignSme_rev	// Reverb.
    
	POIN2	PokemonRangerGuardianSignsRangerSignSme_grp
    
	POIN2	PokemonRangerGuardianSignsRangerSignSme_001
	POIN2	PokemonRangerGuardianSignsRangerSignSme_002
	POIN2	PokemonRangerGuardianSignsRangerSignSme_003
	POIN2	PokemonRangerGuardianSignsRangerSignSme_004
	POIN2	PokemonRangerGuardianSignsRangerSignSme_005
	POIN2	PokemonRangerGuardianSignsRangerSignSme_006
	POIN2	PokemonRangerGuardianSignsRangerSignSme_007
	POIN2	PokemonRangerGuardianSignsRangerSignSme_008

	
