//Event file generated from Sappy .s format.
	#include "MPlayDef.event"

	#define	EarthBoundSmilesandTearsMrGreen3339_grp  voicegroup000
	#define	EarthBoundSmilesandTearsMrGreen3339_pri  10
	#define	EarthBoundSmilesandTearsMrGreen3339_rev  128
	#define	EarthBoundSmilesandTearsMrGreen3339_mvl  127
	#define	EarthBoundSmilesandTearsMrGreen3339_key  0
	#define	EarthBoundSmilesandTearsMrGreen3339_tbs  1
	#define	EarthBoundSmilesandTearsMrGreen3339_exg  0
	#define	EarthBoundSmilesandTearsMrGreen3339_cmp  1

	// .rodata
	//	EarthBoundSmilesandTearsMrGreen3339
	ALIGN 4


//**************** Track 1 (Midi-Chn.0) ****************//

EarthBoundSmilesandTearsMrGreen3339_001:
// 000   ----------------------------------------
 BYTE   VOL   65*EarthBoundSmilesandTearsMrGreen3339_mvl/mxv
 BYTE   KEYSH   EarthBoundSmilesandTearsMrGreen3339_key+0
 BYTE   TEMPO   74*EarthBoundSmilesandTearsMrGreen3339_tbs/2
 BYTE   VOICE   1
 BYTE   W96
// 001   ----------------------------------------
 BYTE   W96
// 002   ----------------------------------------
 BYTE   W96
// 003   ----------------------------------------
 BYTE   W96
// 004   ----------------------------------------
 BYTE   W54
Label_0_0100FD5D:
 BYTE   W06
 BYTE   N12  Dn3  v127
 BYTE   W12
 BYTE   Gn3
 BYTE   W12
 BYTE   An3
 BYTE   W12
// 005   ----------------------------------------
 BYTE   N24  Bn3
 BYTE   W24
 BYTE   N12
 BYTE   W12
 BYTE   Dn4
 BYTE   W12
 BYTE   N24  An3
 BYTE   W24
 BYTE   N12
 BYTE   W12
 BYTE   Bn3
 BYTE   W12
// 006   ----------------------------------------
 BYTE   N72  Gn3
 BYTE   W72
 BYTE   N12  Bn3
 BYTE   W12
 BYTE   An3
 BYTE   W12
// 007   ----------------------------------------
 BYTE   N24  Gn3
 BYTE   W24
 BYTE   N12  Bn3
 BYTE   W12
 BYTE   Dn4
 BYTE   W12
 BYTE   N24  Cs4
 BYTE   W24
 BYTE   N12
 BYTE   W12
 BYTE   Dn4
 BYTE   W12
// 008   ----------------------------------------
 BYTE   N72
 BYTE   W84
 BYTE   N12  Bn3
 BYTE   W12
// 009   ----------------------------------------
 BYTE   N36  Gn3
 BYTE   W36
 BYTE   N12  Bn3
 BYTE   W12
 BYTE   N24  An3
 BYTE   W24
 BYTE   Dn4
 BYTE   W24
// 010   ----------------------------------------
 BYTE   N36  En4
 BYTE   W36
 BYTE   N06  Bn3
 BYTE   W06
 BYTE   An3
 BYTE   W06
 BYTE   N36  Gn3
 BYTE   W36
 BYTE   N12  En3
 BYTE   W12
// 011   ----------------------------------------
 BYTE   N36  Gn3
 BYTE   W36
 BYTE   N12  Bn3
 BYTE   W12
 BYTE   N24  An3
 BYTE   W24
 BYTE   N12  Gn3
 BYTE   W12
 BYTE   Fs3
 BYTE   W12
// 012   ----------------------------------------
 BYTE   N72  Gn3
 BYTE   W96
// 013   ----------------------------------------
 BYTE   W96
// 014   ----------------------------------------
 BYTE   W96
// 015   ----------------------------------------
 BYTE   W96
// 016   ----------------------------------------
 BYTE   W96
// 017   ----------------------------------------
 BYTE   W96
// 018   ----------------------------------------
 BYTE   W96
// 019   ----------------------------------------
 BYTE   W96
// 020   ----------------------------------------
 BYTE   W96
// 021   ----------------------------------------
 BYTE   W96
// 022   ----------------------------------------
 BYTE   W96
// 023   ----------------------------------------
 BYTE   W96
// 024   ----------------------------------------
 BYTE   W96
// 025   ----------------------------------------
 BYTE   W96
// 026   ----------------------------------------
 BYTE   W96
// 027   ----------------------------------------
 BYTE   W96
// 028   ----------------------------------------
 BYTE   W96
// 029   ----------------------------------------
 BYTE   W96
// 030   ----------------------------------------
 BYTE   W96
// 031   ----------------------------------------
 BYTE   W96
// 032   ----------------------------------------
 BYTE   W96
// 033   ----------------------------------------
 BYTE   W96
// 034   ----------------------------------------
 BYTE   W96
// 035   ----------------------------------------
 BYTE   W96
// 036   ----------------------------------------
 BYTE   W96
// 037   ----------------------------------------
 BYTE   W96
// 038   ----------------------------------------
 BYTE   W96
// 039   ----------------------------------------
 BYTE   W96
// 040   ----------------------------------------
 BYTE   W96
// 041   ----------------------------------------
 BYTE   W96
// 042   ----------------------------------------
 BYTE   W96
// 043   ----------------------------------------
 BYTE   W96
// 044   ----------------------------------------
 BYTE   W96
// 045   ----------------------------------------
 BYTE   W96
// 046   ----------------------------------------
 BYTE   W96
// 047   ----------------------------------------
 BYTE   W96
// 048   ----------------------------------------
 BYTE   W96
// 049   ----------------------------------------
 BYTE   W96
// 050   ----------------------------------------
 BYTE   W96
// 051   ----------------------------------------
 BYTE   W96
// 052   ----------------------------------------
 BYTE   W96
// 053   ----------------------------------------
 BYTE   W96
// 054   ----------------------------------------
 BYTE   W96
// 055   ----------------------------------------
 BYTE   W96
// 056   ----------------------------------------
 BYTE   W96
// 057   ----------------------------------------
 BYTE   W96
// 058   ----------------------------------------
 BYTE   W96
// 059   ----------------------------------------
 BYTE   W96
// 060   ----------------------------------------
 BYTE   W96
// 061   ----------------------------------------
 BYTE   W96
// 062   ----------------------------------------
 BYTE   W96
// 063   ----------------------------------------
 BYTE   W96
// 064   ----------------------------------------
 BYTE   W96
// 065   ----------------------------------------
 BYTE   W96
// 066   ----------------------------------------
 BYTE   W96
// 067   ----------------------------------------
 BYTE   W96
// 068   ----------------------------------------
 BYTE   W96
// 069   ----------------------------------------
 BYTE   W96
// 070   ----------------------------------------
 BYTE   W96
// 071   ----------------------------------------
 BYTE   W96
// 072   ----------------------------------------
 BYTE   W96
// 073   ----------------------------------------
 BYTE   W96
// 074   ----------------------------------------
 BYTE   W96
// 075   ----------------------------------------
 BYTE   W96
// 076   ----------------------------------------
 BYTE   W96
// 077   ----------------------------------------
 BYTE   W96
// 078   ----------------------------------------
 BYTE   W96
// 079   ----------------------------------------
 BYTE   W96
// 080   ----------------------------------------
 BYTE   W96
// 081   ----------------------------------------
 BYTE   W96
// 082   ----------------------------------------
 BYTE   W96
// 083   ----------------------------------------
 BYTE   W96
// 084   ----------------------------------------
 BYTE   N24
 BYTE   W24
 BYTE   Bn3
 BYTE   W24
 BYTE   Dn4
 BYTE   W24
 BYTE   Bn3
 BYTE   W24
// 085   ----------------------------------------
 BYTE   Dn4
 BYTE   W24
 BYTE   Bn3
 BYTE   W24
 BYTE   N96  Gn4
 BYTE   W48
// 086   ----------------------------------------
 BYTE   W48
 BYTE   GoTo
  POIN2 Label_0_0100FD5D
 BYTE   FINE

//**************** Track 2 (Midi-Chn.1) ****************//

EarthBoundSmilesandTearsMrGreen3339_002:
// 000   ----------------------------------------
 BYTE   VOL   65*EarthBoundSmilesandTearsMrGreen3339_mvl/mxv
 BYTE   KEYSH   EarthBoundSmilesandTearsMrGreen3339_key+0
 BYTE   VOICE   2
 BYTE   W96
// 001   ----------------------------------------
 BYTE   W96
// 002   ----------------------------------------
 BYTE   W96
// 003   ----------------------------------------
 BYTE   W96
// 004   ----------------------------------------
 BYTE   W54
Label_1_0100FE22:
 BYTE   W42
// 005   ----------------------------------------
Label_1_0100FE23:
 BYTE   N36  Gn1  v127
 BYTE   W36
 BYTE   N12
 BYTE   W12
 BYTE   N36  Fs1
 BYTE   W36
 BYTE   N12
 BYTE   W12
 BYTE   PEND 
// 006   ----------------------------------------
Label_1_0100FE2F:
 BYTE   N36  En1  v127
 BYTE   W36
 BYTE   N12
 BYTE   W12
 BYTE   N36  Dn1
 BYTE   W36
 BYTE   N12
 BYTE   W12
 BYTE   PEND 
// 007   ----------------------------------------
Label_1_0100FE3B:
 BYTE   N36  Cn1  v127
 BYTE   W36
 BYTE   N12
 BYTE   W12
 BYTE   N36  Dn1
 BYTE   W36
 BYTE   N12
 BYTE   W12
 BYTE   PEND 
// 008   ----------------------------------------
Label_1_0100FE47:
 BYTE   N36  Gn1  v127
 BYTE   W36
 BYTE   N12  Dn1
 BYTE   W12
 BYTE   N48  Gn0
 BYTE   W48
 BYTE   PEND 
 BYTE   PATT
  POIN2 Label_1_0100FE23
 BYTE   PATT
  POIN2 Label_1_0100FE2F
 BYTE   PATT
  POIN2 Label_1_0100FE3B
// 009   ----------------------------------------
 BYTE   N96  Gn1  v127
 BYTE   W96
// 010   ----------------------------------------
Label_1_0100FE65:
 BYTE   N48  Gn1  v127
 BYTE   W48
 BYTE   N24  Cn1
 BYTE   W24
 BYTE   Dn1
 BYTE   W24
 BYTE   PEND 
// 011   ----------------------------------------
Label_1_0100FE6F:
 BYTE   N48  Gn1  v127
 BYTE   W48
 BYTE   N12
 BYTE   W12
 BYTE   N12
 BYTE   W12
 BYTE   Fs1
 BYTE   W12
 BYTE   N12
 BYTE   W12
 BYTE   PEND 
// 012   ----------------------------------------
Label_1_0100FE7C:
 BYTE   N24  En1  v127
 BYTE   W24
 BYTE   Dn1
 BYTE   W24
 BYTE   N12  Cs1
 BYTE   W12
 BYTE   Bn0
 BYTE   W12
 BYTE   N24  An0
 BYTE   W24
 BYTE   PEND 
// 013   ----------------------------------------
Label_1_0100FE8B:
 BYTE   N36  Dn1  v127
 BYTE   W36
 BYTE   N12  An0
 BYTE   W12
 BYTE   N48  Dn0
 BYTE   W48
 BYTE   PEND 
// 014   ----------------------------------------
Label_1_0100FE96:
 BYTE   W01
 BYTE   N36  Gn1  v127
 BYTE   W36
 BYTE   N12
 BYTE   W12
 BYTE   N36  Fs1
 BYTE   W36
 BYTE   N12
 BYTE   W11
 BYTE   PEND 
// 015   ----------------------------------------
Label_1_0100FEA3:
 BYTE   W01
 BYTE   N12  En1  v127
 BYTE   W12
 BYTE   Bn1
 BYTE   W12
 BYTE   N24  En1
 BYTE   W24
 BYTE   N12  Dn1
 BYTE   W12
 BYTE   An1
 BYTE   W12
 BYTE   N24  Dn1
 BYTE   W23
 BYTE   PEND 
// 016   ----------------------------------------
Label_1_0100FEB6:
 BYTE   W01
 BYTE   N36  Cn1  v127
 BYTE   W36
 BYTE   N12
 BYTE   W12
 BYTE   N36  Dn1
 BYTE   W36
 BYTE   N12
 BYTE   W11
 BYTE   PEND 
// 017   ----------------------------------------
Label_1_0100FEC3:
 BYTE   W01
 BYTE   N24  Gn1  v127
 BYTE   W24
 BYTE   N12  Dn1
 BYTE   W12
 BYTE   N48  En1
 BYTE   W48
 BYTE   N06  Gn1
 BYTE   W06
 BYTE   An1
 BYTE   W05
 BYTE   PEND 
// 018   ----------------------------------------
Label_1_0100FED4:
 BYTE   W01
 BYTE   N24  Bn1  v127
 BYTE   W24
 BYTE   N12  Dn2
 BYTE   W12
 BYTE   N48  Gn1
 BYTE   W56
 BYTE   W03
 BYTE   PEND 
// 019   ----------------------------------------
Label_1_0100FEE1:
 BYTE   N12  Cn2  v127
 BYTE   W12
 BYTE   N24
 BYTE   W24
 BYTE   N12
 BYTE   W12
 BYTE   Dn2
 BYTE   W12
 BYTE   N24
 BYTE   W24
 BYTE   N12
 BYTE   W12
 BYTE   PEND 
// 020   ----------------------------------------
Label_1_0100FEF0:
 BYTE   N36  Gn2  v127
 BYTE   W36
 BYTE   N12  Dn2
 BYTE   W12
 BYTE   Gn2
 BYTE   W12
 BYTE   N12
 BYTE   W12
 BYTE   Fs2
 BYTE   W12
 BYTE   N12
 BYTE   W12
 BYTE   PEND 
// 021   ----------------------------------------
Label_1_0100FF00:
 BYTE   N24  En2  v127
 BYTE   W24
 BYTE   Dn2
 BYTE   W24
 BYTE   N12  Cs2
 BYTE   W12
 BYTE   Bn1
 BYTE   W12
 BYTE   N24  An1
 BYTE   W24
 BYTE   PEND 
// 022   ----------------------------------------
 BYTE   N48  Dn2
 BYTE   W96
 BYTE   PATT
  POIN2 Label_1_0100FE23
 BYTE   PATT
  POIN2 Label_1_0100FE2F
 BYTE   PATT
  POIN2 Label_1_0100FE3B
// 023   ----------------------------------------
 BYTE   N48  Gn1  v127
 BYTE   W96
 BYTE   PATT
  POIN2 Label_1_0100FE23
// 024   ----------------------------------------
Label_1_0100FF2A:
 BYTE   N36  Fn1  v127
 BYTE   W36
 BYTE   N12
 BYTE   W12
 BYTE   N36  En1
 BYTE   W36
 BYTE   N12
 BYTE   W12
 BYTE   PEND 
// 025   ----------------------------------------
Label_1_0100FF36:
 BYTE   N36  Ds1  v127
 BYTE   W36
 BYTE   N12
 BYTE   W12
 BYTE   N36  Dn1
 BYTE   W36
 BYTE   N12
 BYTE   W12
 BYTE   PEND 
 BYTE   PATT
  POIN2 Label_1_0100FF36
 BYTE   PATT
  POIN2 Label_1_0100FE23
 BYTE   PATT
  POIN2 Label_1_0100FF2A
 BYTE   PATT
  POIN2 Label_1_0100FF36
 BYTE   PATT
  POIN2 Label_1_0100FF36
// 026   ----------------------------------------
 BYTE   W96
// 027   ----------------------------------------
 BYTE   W96
// 028   ----------------------------------------
 BYTE   N12  Gn1  v127
 BYTE   W12
 BYTE   N72
 BYTE   W84
// 029   ----------------------------------------
 BYTE   W96
// 030   ----------------------------------------
 BYTE   N12
 BYTE   W12
 BYTE   N72  Gn0
 BYTE   W84
// 031   ----------------------------------------
 BYTE   N48  Bn1
 BYTE   W48
 BYTE   N24  Cn2
 BYTE   W24
 BYTE   Dn2
 BYTE   W24
// 032   ----------------------------------------
 BYTE   N12  Gn1
 BYTE   W12
 BYTE   N24
 BYTE   W30
 BYTE   N06
 BYTE   W06
 BYTE   N12  Fs1
 BYTE   W12
 BYTE   N24
 BYTE   W30
 BYTE   N06
 BYTE   W06
// 033   ----------------------------------------
 BYTE   N12  Fn1
 BYTE   W12
 BYTE   N24
 BYTE   W30
 BYTE   N06
 BYTE   W06
 BYTE   N36  En1
 BYTE   W36
 BYTE   N12
 BYTE   W12
// 034   ----------------------------------------
 BYTE   W11
 BYTE   N24  Gn1
 BYTE   W30
 BYTE   N06
 BYTE   W06
 BYTE   N12  Fs1
 BYTE   W12
 BYTE   N24
 BYTE   W30
 BYTE   N06
 BYTE   W06
 BYTE   N12  Fn1
 BYTE   W01
// 035   ----------------------------------------
 BYTE   W11
 BYTE   N24
 BYTE   W30
 BYTE   N06
 BYTE   W06
 BYTE   N36  En1
 BYTE   W36
 BYTE   N12
 BYTE   W12
 BYTE   N01  Gn1
 BYTE   W01
// 036   ----------------------------------------
 BYTE   W96
// 037   ----------------------------------------
 BYTE   W96
// 038   ----------------------------------------
 BYTE   W96
// 039   ----------------------------------------
 BYTE   W96
// 040   ----------------------------------------
 BYTE   N24
 BYTE   W24
 BYTE   N12  Dn1
 BYTE   W12
 BYTE   N48  En1
 BYTE   W48
 BYTE   N06  Gn1
 BYTE   W06
 BYTE   An1
 BYTE   W06
// 041   ----------------------------------------
 BYTE   N24  Bn1
 BYTE   W24
 BYTE   N12  Dn2
 BYTE   W12
 BYTE   N48  Gn1
 BYTE   W56
 BYTE   W02
 BYTE   N01  Cn2
 BYTE   W02
 BYTE   PATT
  POIN2 Label_1_0100FE65
 BYTE   PATT
  POIN2 Label_1_0100FE6F
 BYTE   PATT
  POIN2 Label_1_0100FE7C
 BYTE   PATT
  POIN2 Label_1_0100FE8B
 BYTE   PATT
  POIN2 Label_1_0100FE96
 BYTE   PATT
  POIN2 Label_1_0100FEA3
 BYTE   PATT
  POIN2 Label_1_0100FEB6
 BYTE   PATT
  POIN2 Label_1_0100FEC3
 BYTE   PATT
  POIN2 Label_1_0100FED4
// 042   ----------------------------------------
 BYTE   W01
 BYTE   N12  Cn2  v127
 BYTE   W12
 BYTE   N24
 BYTE   W24
 BYTE   N12
 BYTE   W12
 BYTE   Dn2
 BYTE   W12
 BYTE   N24
 BYTE   W24
 BYTE   N12
 BYTE   W11
// 043   ----------------------------------------
 BYTE   W01
 BYTE   N36  Gn2
 BYTE   W36
 BYTE   N12  Dn2
 BYTE   W12
 BYTE   Gn2
 BYTE   W12
 BYTE   N12
 BYTE   W12
 BYTE   Fs2
 BYTE   W12
 BYTE   N12
 BYTE   W11
// 044   ----------------------------------------
 BYTE   W01
 BYTE   N24  En2
 BYTE   W24
 BYTE   Dn2
 BYTE   W24
 BYTE   N12  Cs2
 BYTE   W12
 BYTE   Bn1
 BYTE   W12
 BYTE   N24  An1
 BYTE   W23
// 045   ----------------------------------------
 BYTE   W01
 BYTE   N48  Dn2
 BYTE   W92
 BYTE   W03
 BYTE   PATT
  POIN2 Label_1_0100FE96
// 046   ----------------------------------------
 BYTE   W01
 BYTE   N36  En1  v127
 BYTE   W36
 BYTE   N12
 BYTE   W12
 BYTE   N36  Dn1
 BYTE   W36
 BYTE   N12
 BYTE   W11
 BYTE   PATT
  POIN2 Label_1_0100FEB6
// 047   ----------------------------------------
 BYTE   W01
 BYTE   N48  Gn1  v127
 BYTE   W92
 BYTE   W03
 BYTE   PATT
  POIN2 Label_1_0100FEE1
 BYTE   PATT
  POIN2 Label_1_0100FEF0
 BYTE   PATT
  POIN2 Label_1_0100FF00
// 048   ----------------------------------------
 BYTE   N48  Dn2  v127
 BYTE   W96
 BYTE   PATT
  POIN2 Label_1_0100FE23
 BYTE   PATT
  POIN2 Label_1_0100FE2F
 BYTE   PATT
  POIN2 Label_1_0100FE3B
 BYTE   PATT
  POIN2 Label_1_0100FE47
 BYTE   PATT
  POIN2 Label_1_0100FE2F
// 049   ----------------------------------------
 BYTE   N36  Gn1  v127
 BYTE   W36
 BYTE   N12
 BYTE   W12
 BYTE   N48  Fs1
 BYTE   W48
// 050   ----------------------------------------
 BYTE   W96
// 051   ----------------------------------------
 BYTE   W96
// 052   ----------------------------------------
 BYTE   W96
// 053   ----------------------------------------
 BYTE   W96
// 054   ----------------------------------------
 BYTE   W96
// 055   ----------------------------------------
 BYTE   W48
 BYTE   GoTo
  POIN2 Label_1_0100FE22
 BYTE   FINE

//**************** Track 3 (Midi-Chn.2) ****************//

EarthBoundSmilesandTearsMrGreen3339_003:
// 000   ----------------------------------------
 BYTE   VOL   65*EarthBoundSmilesandTearsMrGreen3339_mvl/mxv
 BYTE   KEYSH   EarthBoundSmilesandTearsMrGreen3339_key+0
 BYTE   VOICE   3
 BYTE   W96
// 001   ----------------------------------------
 BYTE   W96
// 002   ----------------------------------------
 BYTE   W96
// 003   ----------------------------------------
 BYTE   W96
// 004   ----------------------------------------
 BYTE   W54
Label_2_0101008C:
 BYTE   W42
// 005   ----------------------------------------
 BYTE   W96
// 006   ----------------------------------------
 BYTE   W96
// 007   ----------------------------------------
 BYTE   W96
// 008   ----------------------------------------
 BYTE   W96
// 009   ----------------------------------------
 BYTE   W96
// 010   ----------------------------------------
 BYTE   W96
// 011   ----------------------------------------
 BYTE   W96
// 012   ----------------------------------------
 BYTE   W96
// 013   ----------------------------------------
 BYTE   W96
// 014   ----------------------------------------
 BYTE   W96
// 015   ----------------------------------------
 BYTE   W96
// 016   ----------------------------------------
 BYTE   W96
// 017   ----------------------------------------
 BYTE   W96
// 018   ----------------------------------------
 BYTE   W96
// 019   ----------------------------------------
 BYTE   W96
// 020   ----------------------------------------
 BYTE   W96
// 021   ----------------------------------------
Label_2_0101009D:
 BYTE   W60
 BYTE   N12  Gn3  v127
 BYTE   W12
 BYTE   Bn3
 BYTE   W12
 BYTE   Dn4
 BYTE   W12
 BYTE   PEND 
// 022   ----------------------------------------
Label_2_010100A7:
 BYTE   N24  En4  v127
 BYTE   W24
 BYTE   Gn4
 BYTE   W24
 BYTE   N36  Fs4
 BYTE   W36
 BYTE   N12  Dn4
 BYTE   W12
 BYTE   PEND 
// 023   ----------------------------------------
Label_2_010100B4:
 BYTE   N12  Bn3  v127
 BYTE   W12
 BYTE   Dn4
 BYTE   W12
 BYTE   N48  Bn3
 BYTE   W48
 BYTE   N12  An3
 BYTE   W12
 BYTE   Bn3
 BYTE   W12
 BYTE   PEND 
// 024   ----------------------------------------
Label_2_010100C3:
 BYTE   N24  Gn3  v127
 BYTE   W24
 BYTE   Bn3
 BYTE   W24
 BYTE   N36  An3
 BYTE   W36
 BYTE   N12  Gn3
 BYTE   W12
 BYTE   PEND 
// 025   ----------------------------------------
Label_2_010100D0:
 BYTE   N36  Gn3  v127
 BYTE   W36
 BYTE   N12  Fs3
 BYTE   W12
 BYTE   N36
 BYTE   W48
 BYTE   PEND 
// 026   ----------------------------------------
Label_2_010100DA:
 BYTE   N24  En4  v127
 BYTE   W24
 BYTE   Gn4
 BYTE   W24
 BYTE   N36  Fs4
 BYTE   W36
 BYTE   N06  Gn4
 BYTE   W06
 BYTE   An4
 BYTE   W06
 BYTE   PEND 
// 027   ----------------------------------------
Label_2_010100E9:
 BYTE   N12  Bn4  v127
 BYTE   W12
 BYTE   Dn5
 BYTE   W12
 BYTE   An4
 BYTE   W12
 BYTE   Bn4
 BYTE   W12
 BYTE   N36  Gn4
 BYTE   W36
 BYTE   N12  En4
 BYTE   W12
 BYTE   PEND 
// 028   ----------------------------------------
Label_2_010100FA:
 BYTE   N36  Gn4  v127
 BYTE   W36
 BYTE   N12  Bn4
 BYTE   W12
 BYTE   N24  An4
 BYTE   W24
 BYTE   N12  Gn4
 BYTE   W12
 BYTE   Fs4
 BYTE   W12
 BYTE   PEND 
// 029   ----------------------------------------
 BYTE   N72  Gn4
 BYTE   W96
// 030   ----------------------------------------
 BYTE   W96
// 031   ----------------------------------------
 BYTE   W96
// 032   ----------------------------------------
 BYTE   W96
// 033   ----------------------------------------
 BYTE   W96
// 034   ----------------------------------------
 BYTE   W96
// 035   ----------------------------------------
 BYTE   W96
// 036   ----------------------------------------
 BYTE   W96
// 037   ----------------------------------------
 BYTE   W96
// 038   ----------------------------------------
 BYTE   W96
// 039   ----------------------------------------
 BYTE   W96
// 040   ----------------------------------------
 BYTE   W96
// 041   ----------------------------------------
 BYTE   W96
// 042   ----------------------------------------
 BYTE   W96
// 043   ----------------------------------------
 BYTE   W96
// 044   ----------------------------------------
 BYTE   W96
// 045   ----------------------------------------
 BYTE   W96
// 046   ----------------------------------------
 BYTE   W96
// 047   ----------------------------------------
 BYTE   W96
// 048   ----------------------------------------
 BYTE   W96
// 049   ----------------------------------------
 BYTE   W96
// 050   ----------------------------------------
 BYTE   W96
// 051   ----------------------------------------
 BYTE   W96
// 052   ----------------------------------------
 BYTE   W96
// 053   ----------------------------------------
 BYTE   W60
 BYTE   N12  Dn3
 BYTE   W12
 BYTE   Gn3
 BYTE   W12
 BYTE   An3
 BYTE   W12
// 054   ----------------------------------------
 BYTE   N24  Bn3
 BYTE   W24
 BYTE   N12
 BYTE   W12
 BYTE   Dn4
 BYTE   W12
 BYTE   N24  An3
 BYTE   W24
 BYTE   N12
 BYTE   W12
 BYTE   Bn3
 BYTE   W12
// 055   ----------------------------------------
 BYTE   N72  Gn3
 BYTE   W72
 BYTE   N12  Bn3
 BYTE   W12
 BYTE   An3
 BYTE   W12
// 056   ----------------------------------------
 BYTE   N24  Gn3
 BYTE   W24
 BYTE   N12  Bn3
 BYTE   W12
 BYTE   Dn4
 BYTE   W12
 BYTE   N24  Cs4
 BYTE   W24
 BYTE   N12
 BYTE   W12
 BYTE   Dn4
 BYTE   W12
// 057   ----------------------------------------
 BYTE   N72
 BYTE   W84
 BYTE   N12  Bn3
 BYTE   W12
// 058   ----------------------------------------
 BYTE   N36  Gn3
 BYTE   W36
 BYTE   N12  Bn3
 BYTE   W12
 BYTE   N24  An3
 BYTE   W24
 BYTE   Dn4
 BYTE   W24
// 059   ----------------------------------------
 BYTE   N36  En4
 BYTE   W36
 BYTE   N06  Bn3
 BYTE   W06
 BYTE   An3
 BYTE   W06
 BYTE   N36  Gn3
 BYTE   W36
 BYTE   N12  En3
 BYTE   W12
// 060   ----------------------------------------
 BYTE   N36  Gn3
 BYTE   W36
 BYTE   N12  Bn3
 BYTE   W12
 BYTE   N24  An3
 BYTE   W24
 BYTE   N12  Gn3
 BYTE   W12
 BYTE   Fs3
 BYTE   W12
// 061   ----------------------------------------
 BYTE   N72  Gn3
 BYTE   W96
 BYTE   PATT
  POIN2 Label_2_0101009D
 BYTE   PATT
  POIN2 Label_2_010100A7
 BYTE   PATT
  POIN2 Label_2_010100B4
 BYTE   PATT
  POIN2 Label_2_010100C3
 BYTE   PATT
  POIN2 Label_2_010100D0
 BYTE   PATT
  POIN2 Label_2_010100DA
 BYTE   PATT
  POIN2 Label_2_010100E9
 BYTE   PATT
  POIN2 Label_2_010100FA
// 062   ----------------------------------------
 BYTE   N60  Gn4  v127
 BYTE   W60
 BYTE   N12  Dn3
 BYTE   W12
 BYTE   Bn3
 BYTE   W12
 BYTE   Dn4
 BYTE   W12
 BYTE   PATT
  POIN2 Label_2_010100A7
 BYTE   PATT
  POIN2 Label_2_010100B4
 BYTE   PATT
  POIN2 Label_2_010100C3
 BYTE   PATT
  POIN2 Label_2_010100D0
 BYTE   PATT
  POIN2 Label_2_010100DA
 BYTE   PATT
  POIN2 Label_2_010100E9
// 063   ----------------------------------------
 BYTE   N36  Gn4  v127
 BYTE   W36
 BYTE   N12  Bn4
 BYTE   W12
 BYTE   N24  An4
 BYTE   W24
 BYTE   N12  Gn4
 BYTE   W12
 BYTE   An4
 BYTE   W12
// 064   ----------------------------------------
 BYTE   N24  Bn4
 BYTE   W24
 BYTE   Cn5
 BYTE   W24
 BYTE   Dn5
 BYTE   W24
 BYTE   N12  Bn4
 BYTE   W12
 BYTE   Dn5
 BYTE   W12
// 065   ----------------------------------------
 BYTE   N24  En4
 BYTE   W24
 BYTE   Gn4
 BYTE   W24
 BYTE   Fs4
 BYTE   W24
 BYTE   N12  Gn4
 BYTE   W12
 BYTE   An4
 BYTE   W12
// 066   ----------------------------------------
 BYTE   Bn4
 BYTE   W12
 BYTE   Dn5
 BYTE   W12
 BYTE   An4
 BYTE   W12
 BYTE   Bn4
 BYTE   W12
 BYTE   N72  Gn4
 BYTE   W48
// 067   ----------------------------------------
 BYTE   W24
 BYTE   N24  En4
 BYTE   W24
 BYTE   N48  Gn4
 BYTE   W48
// 068   ----------------------------------------
 BYTE   N24
 BYTE   W24
 BYTE   Bn4
 BYTE   W24
 BYTE   N48  An4
 BYTE   W48
// 069   ----------------------------------------
 BYTE   Gn4
 BYTE   W48
 BYTE   Fs4
 BYTE   W48
// 070   ----------------------------------------
 BYTE   TIE  Gn4
 BYTE   W96
// 071   ----------------------------------------
 BYTE   W96
// 072   ----------------------------------------
 BYTE   EOT
 BYTE   W48
 BYTE   GoTo
  POIN2 Label_2_0101008C
 BYTE   FINE

//**************** Track 4 (Midi-Chn.3) ****************//

EarthBoundSmilesandTearsMrGreen3339_004:
// 000   ----------------------------------------
 BYTE   VOL   65*EarthBoundSmilesandTearsMrGreen3339_mvl/mxv
 BYTE   KEYSH   EarthBoundSmilesandTearsMrGreen3339_key+0
 BYTE   VOICE   4
 BYTE   N12  Bn3  v127
 BYTE   W12
 BYTE   Dn4
 BYTE   W12
 BYTE   Gn4
 BYTE   W12
 BYTE   Cn4
 BYTE   W12
 BYTE   Dn4
 BYTE   W12
 BYTE   Gn4
 BYTE   W12
 BYTE   Cn4
 BYTE   W12
 BYTE   Dn4
 BYTE   W12
// 001   ----------------------------------------
Label_3_01010239:
 BYTE   N12  Bn3  v127
 BYTE   W12
 BYTE   Dn4
 BYTE   W12
 BYTE   Gn4
 BYTE   W12
 BYTE   Cn4
 BYTE   W12
 BYTE   Dn4
 BYTE   W12
 BYTE   Gn4
 BYTE   W12
 BYTE   Cn4
 BYTE   W12
 BYTE   Dn4
 BYTE   W12
 BYTE   PEND 
 BYTE   PATT
  POIN2 Label_3_01010239
 BYTE   PATT
  POIN2 Label_3_01010239
// 002   ----------------------------------------
 BYTE   N72  Gn4  v127
 BYTE   W54
Label_3_0101025A:
 BYTE   W42
// 003   ----------------------------------------
 BYTE   W96
// 004   ----------------------------------------
 BYTE   W96
// 005   ----------------------------------------
 BYTE   W96
// 006   ----------------------------------------
 BYTE   W96
// 007   ----------------------------------------
 BYTE   W96
// 008   ----------------------------------------
 BYTE   W96
// 009   ----------------------------------------
 BYTE   W96
// 010   ----------------------------------------
 BYTE   W96
// 011   ----------------------------------------
 BYTE   W96
// 012   ----------------------------------------
 BYTE   W96
// 013   ----------------------------------------
 BYTE   W96
// 014   ----------------------------------------
 BYTE   W96
// 015   ----------------------------------------
 BYTE   W96
// 016   ----------------------------------------
 BYTE   W96
// 017   ----------------------------------------
 BYTE   W96
// 018   ----------------------------------------
 BYTE   W96
// 019   ----------------------------------------
 BYTE   W96
// 020   ----------------------------------------
 BYTE   W96
// 021   ----------------------------------------
 BYTE   W96
// 022   ----------------------------------------
 BYTE   W96
// 023   ----------------------------------------
 BYTE   W96
// 024   ----------------------------------------
 BYTE   W96
// 025   ----------------------------------------
 BYTE   W96
// 026   ----------------------------------------
 BYTE   W96
// 027   ----------------------------------------
 BYTE   W96
// 028   ----------------------------------------
 BYTE   W96
// 029   ----------------------------------------
 BYTE   W96
// 030   ----------------------------------------
 BYTE   W96
// 031   ----------------------------------------
 BYTE   W96
// 032   ----------------------------------------
 BYTE   W96
// 033   ----------------------------------------
 BYTE   W96
// 034   ----------------------------------------
 BYTE   W96
// 035   ----------------------------------------
 BYTE   W96
// 036   ----------------------------------------
 BYTE   W96
// 037   ----------------------------------------
 BYTE   W96
// 038   ----------------------------------------
 BYTE   W96
// 039   ----------------------------------------
 BYTE   W96
// 040   ----------------------------------------
 BYTE   W96
// 041   ----------------------------------------
 BYTE   W96
// 042   ----------------------------------------
 BYTE   W96
// 043   ----------------------------------------
 BYTE   W96
// 044   ----------------------------------------
 BYTE   W96
// 045   ----------------------------------------
 BYTE   W96
// 046   ----------------------------------------
 BYTE   W96
// 047   ----------------------------------------
 BYTE   W96
// 048   ----------------------------------------
 BYTE   W96
// 049   ----------------------------------------
 BYTE   W96
// 050   ----------------------------------------
 BYTE   W96
// 051   ----------------------------------------
 BYTE   W96
// 052   ----------------------------------------
 BYTE   W96
// 053   ----------------------------------------
 BYTE   W96
// 054   ----------------------------------------
 BYTE   W96
// 055   ----------------------------------------
 BYTE   W96
// 056   ----------------------------------------
 BYTE   W96
// 057   ----------------------------------------
 BYTE   W96
// 058   ----------------------------------------
 BYTE   W96
// 059   ----------------------------------------
 BYTE   W96
// 060   ----------------------------------------
 BYTE   W96
// 061   ----------------------------------------
 BYTE   W96
// 062   ----------------------------------------
 BYTE   W96
// 063   ----------------------------------------
 BYTE   W96
// 064   ----------------------------------------
 BYTE   W96
// 065   ----------------------------------------
 BYTE   W96
// 066   ----------------------------------------
 BYTE   W96
// 067   ----------------------------------------
 BYTE   W96
// 068   ----------------------------------------
 BYTE   W96
// 069   ----------------------------------------
 BYTE   W96
// 070   ----------------------------------------
 BYTE   W96
// 071   ----------------------------------------
 BYTE   W96
// 072   ----------------------------------------
 BYTE   W96
// 073   ----------------------------------------
 BYTE   W96
// 074   ----------------------------------------
 BYTE   W96
// 075   ----------------------------------------
 BYTE   W96
// 076   ----------------------------------------
 BYTE   W96
// 077   ----------------------------------------
 BYTE   W96
// 078   ----------------------------------------
 BYTE   W96
// 079   ----------------------------------------
 BYTE   W96
// 080   ----------------------------------------
 BYTE   W96
// 081   ----------------------------------------
 BYTE   W96
// 082   ----------------------------------------
 BYTE   W96
// 083   ----------------------------------------
 BYTE   W96
// 084   ----------------------------------------
 BYTE   W48
 BYTE   GoTo
  POIN2 Label_3_0101025A
 BYTE   FINE

//**************** Track 5 (Midi-Chn.4) ****************//

EarthBoundSmilesandTearsMrGreen3339_005:
// 000   ----------------------------------------
 BYTE   VOL   65*EarthBoundSmilesandTearsMrGreen3339_mvl/mxv
 BYTE   KEYSH   EarthBoundSmilesandTearsMrGreen3339_key+0
 BYTE   VOICE   2
 BYTE   W96
// 001   ----------------------------------------
 BYTE   W96
// 002   ----------------------------------------
 BYTE   W96
// 003   ----------------------------------------
 BYTE   W96
// 004   ----------------------------------------
 BYTE   W54
Label_4_010102BE:
 BYTE   W42
// 005   ----------------------------------------
 BYTE   W96
// 006   ----------------------------------------
 BYTE   W96
// 007   ----------------------------------------
 BYTE   W96
// 008   ----------------------------------------
 BYTE   W96
// 009   ----------------------------------------
 BYTE   W96
// 010   ----------------------------------------
 BYTE   W96
// 011   ----------------------------------------
 BYTE   W96
// 012   ----------------------------------------
 BYTE   W96
// 013   ----------------------------------------
 BYTE   W96
// 014   ----------------------------------------
 BYTE   W96
// 015   ----------------------------------------
 BYTE   W96
// 016   ----------------------------------------
 BYTE   W96
// 017   ----------------------------------------
 BYTE   W96
// 018   ----------------------------------------
 BYTE   W96
// 019   ----------------------------------------
 BYTE   W96
// 020   ----------------------------------------
 BYTE   W96
// 021   ----------------------------------------
 BYTE   W96
// 022   ----------------------------------------
 BYTE   W96
// 023   ----------------------------------------
 BYTE   W96
// 024   ----------------------------------------
 BYTE   W96
// 025   ----------------------------------------
 BYTE   W96
// 026   ----------------------------------------
 BYTE   W96
// 027   ----------------------------------------
 BYTE   W96
// 028   ----------------------------------------
 BYTE   W96
// 029   ----------------------------------------
 BYTE   W96
// 030   ----------------------------------------
 BYTE   W96
// 031   ----------------------------------------
 BYTE   W96
// 032   ----------------------------------------
 BYTE   W96
// 033   ----------------------------------------
 BYTE   W96
// 034   ----------------------------------------
 BYTE   W96
// 035   ----------------------------------------
 BYTE   W96
// 036   ----------------------------------------
 BYTE   W96
// 037   ----------------------------------------
 BYTE   W96
// 038   ----------------------------------------
 BYTE   W96
// 039   ----------------------------------------
 BYTE   W96
// 040   ----------------------------------------
 BYTE   W96
// 041   ----------------------------------------
 BYTE   W96
// 042   ----------------------------------------
 BYTE   W96
// 043   ----------------------------------------
 BYTE   W96
// 044   ----------------------------------------
Label_4_010102E6:
 BYTE   N12  Gn1  v127
 BYTE   W12
 BYTE   N24
 BYTE   W30
 BYTE   N06
 BYTE   W06
 BYTE   N12  Fs1
 BYTE   W12
 BYTE   N24
 BYTE   W30
 BYTE   N06
 BYTE   W06
 BYTE   PEND 
// 045   ----------------------------------------
Label_4_010102F6:
 BYTE   N12  Fn1  v127
 BYTE   W12
 BYTE   N24
 BYTE   W30
 BYTE   N06
 BYTE   W06
 BYTE   N36  En1
 BYTE   W36
 BYTE   N12
 BYTE   W12
 BYTE   PEND 
 BYTE   PATT
  POIN2 Label_4_010102E6
 BYTE   PATT
  POIN2 Label_4_010102F6
 BYTE   PATT
  POIN2 Label_4_010102E6
 BYTE   PATT
  POIN2 Label_4_010102F6
 BYTE   PATT
  POIN2 Label_4_010102E6
 BYTE   PATT
  POIN2 Label_4_010102F6
// 046   ----------------------------------------
 BYTE   W96
// 047   ----------------------------------------
 BYTE   W96
// 048   ----------------------------------------
 BYTE   W96
// 049   ----------------------------------------
 BYTE   W96
// 050   ----------------------------------------
 BYTE   W96
// 051   ----------------------------------------
 BYTE   W96
// 052   ----------------------------------------
 BYTE   W96
// 053   ----------------------------------------
 BYTE   W96
// 054   ----------------------------------------
 BYTE   W96
// 055   ----------------------------------------
 BYTE   W96
// 056   ----------------------------------------
 BYTE   W96
// 057   ----------------------------------------
 BYTE   W96
// 058   ----------------------------------------
 BYTE   W96
// 059   ----------------------------------------
 BYTE   W96
// 060   ----------------------------------------
 BYTE   W96
// 061   ----------------------------------------
 BYTE   W96
// 062   ----------------------------------------
 BYTE   W96
// 063   ----------------------------------------
 BYTE   W96
// 064   ----------------------------------------
 BYTE   W96
// 065   ----------------------------------------
 BYTE   W96
// 066   ----------------------------------------
 BYTE   W96
// 067   ----------------------------------------
 BYTE   W96
// 068   ----------------------------------------
 BYTE   W96
// 069   ----------------------------------------
 BYTE   W96
// 070   ----------------------------------------
 BYTE   W96
// 071   ----------------------------------------
 BYTE   W96
// 072   ----------------------------------------
 BYTE   W96
// 073   ----------------------------------------
 BYTE   W96
// 074   ----------------------------------------
 BYTE   W96
// 075   ----------------------------------------
 BYTE   W96
// 076   ----------------------------------------
 BYTE   W96
// 077   ----------------------------------------
 BYTE   W96
// 078   ----------------------------------------
 BYTE   W96
// 079   ----------------------------------------
 BYTE   W96
// 080   ----------------------------------------
 BYTE   W48
 BYTE   GoTo
  POIN2 Label_4_010102BE
 BYTE   FINE

//**************** Track 6 (Midi-Chn.5) ****************//

EarthBoundSmilesandTearsMrGreen3339_006:
// 000   ----------------------------------------
 BYTE   VOL   65*EarthBoundSmilesandTearsMrGreen3339_mvl/mxv
 BYTE   KEYSH   EarthBoundSmilesandTearsMrGreen3339_key+0
 BYTE   VOICE   5
 BYTE   W96
// 001   ----------------------------------------
 BYTE   W96
// 002   ----------------------------------------
 BYTE   W96
// 003   ----------------------------------------
 BYTE   W96
// 004   ----------------------------------------
 BYTE   W54
Label_5_01010356:
 BYTE   W42
// 005   ----------------------------------------
 BYTE   W96
// 006   ----------------------------------------
 BYTE   W96
// 007   ----------------------------------------
 BYTE   W96
// 008   ----------------------------------------
 BYTE   W96
// 009   ----------------------------------------
 BYTE   W96
// 010   ----------------------------------------
 BYTE   W96
// 011   ----------------------------------------
 BYTE   W96
// 012   ----------------------------------------
 BYTE   W96
// 013   ----------------------------------------
 BYTE   W96
// 014   ----------------------------------------
 BYTE   W96
// 015   ----------------------------------------
 BYTE   W96
// 016   ----------------------------------------
 BYTE   W96
// 017   ----------------------------------------
 BYTE   W96
// 018   ----------------------------------------
 BYTE   W96
// 019   ----------------------------------------
 BYTE   W96
// 020   ----------------------------------------
 BYTE   W96
// 021   ----------------------------------------
 BYTE   W96
// 022   ----------------------------------------
 BYTE   W96
// 023   ----------------------------------------
 BYTE   W96
// 024   ----------------------------------------
 BYTE   W96
// 025   ----------------------------------------
 BYTE   W96
// 026   ----------------------------------------
 BYTE   W96
// 027   ----------------------------------------
 BYTE   W96
// 028   ----------------------------------------
 BYTE   W96
// 029   ----------------------------------------
 BYTE   W60
 BYTE   N12  Dn3  v127
 BYTE   W12
 BYTE   Gn3
 BYTE   W12
 BYTE   An3
 BYTE   W12
// 030   ----------------------------------------
Label_5_01010378:
 BYTE   N24  As3  v127
 BYTE   W24
 BYTE   N12
 BYTE   W12
 BYTE   Dn4
 BYTE   W12
 BYTE   N24  An3
 BYTE   W24
 BYTE   N12
 BYTE   W12
 BYTE   As3
 BYTE   W12
 BYTE   PEND 
// 031   ----------------------------------------
Label_5_01010388:
 BYTE   N48  Gn3  v127
 BYTE   W60
 BYTE   N12
 BYTE   W12
 BYTE   As3
 BYTE   W12
 BYTE   An3
 BYTE   W12
 BYTE   PEND 
// 032   ----------------------------------------
Label_5_01010393:
 BYTE   N24  Gn3  v127
 BYTE   W24
 BYTE   N12
 BYTE   W12
 BYTE   As3
 BYTE   W12
 BYTE   N48  An3
 BYTE   W48
 BYTE   PEND 
 BYTE   PATT
  POIN2 Label_5_01010393
 BYTE   PATT
  POIN2 Label_5_01010378
 BYTE   PATT
  POIN2 Label_5_01010388
 BYTE   PATT
  POIN2 Label_5_01010393
 BYTE   PATT
  POIN2 Label_5_01010393
// 033   ----------------------------------------
Label_5_010103B8:
 BYTE   N12  Bn4  v127
 BYTE   W12
 BYTE   N12
 BYTE   W12
 BYTE   Dn5
 BYTE   W12
 BYTE   Gn5
 BYTE   W12
 BYTE   An4
 BYTE   W12
 BYTE   N12
 BYTE   W12
 BYTE   Dn5
 BYTE   W12
 BYTE   Gn5
 BYTE   W12
 BYTE   PEND 
// 034   ----------------------------------------
Label_5_010103CB:
 BYTE   N12  Gn4  v127
 BYTE   W12
 BYTE   N12
 BYTE   W12
 BYTE   Dn5
 BYTE   W12
 BYTE   Gn5
 BYTE   W12
 BYTE   Gn4
 BYTE   W12
 BYTE   N12
 BYTE   W12
 BYTE   N09  An4
 BYTE   W09
 BYTE   N03
 BYTE   W03
 BYTE   N09
 BYTE   W09
 BYTE   N03
 BYTE   W03
 BYTE   PEND 
 BYTE   PATT
  POIN2 Label_5_010103B8
 BYTE   PATT
  POIN2 Label_5_010103CB
 BYTE   PATT
  POIN2 Label_5_010103B8
 BYTE   PATT
  POIN2 Label_5_010103CB
 BYTE   PATT
  POIN2 Label_5_010103B8
 BYTE   PATT
  POIN2 Label_5_010103CB
 BYTE   PATT
  POIN2 Label_5_010103B8
 BYTE   PATT
  POIN2 Label_5_010103CB
 BYTE   PATT
  POIN2 Label_5_010103B8
 BYTE   PATT
  POIN2 Label_5_010103CB
 BYTE   PATT
  POIN2 Label_5_010103B8
 BYTE   PATT
  POIN2 Label_5_010103CB
// 035   ----------------------------------------
Label_5_0101041F:
 BYTE   N12  Bn3  v127
 BYTE   W12
 BYTE   Dn4
 BYTE   W12
 BYTE   Gn4
 BYTE   W12
 BYTE   Cn4
 BYTE   W12
 BYTE   Dn4
 BYTE   W12
 BYTE   Gn4
 BYTE   W12
 BYTE   Cn4
 BYTE   W12
 BYTE   Dn4
 BYTE   W12
 BYTE   PEND 
 BYTE   PATT
  POIN2 Label_5_0101041F
// 036   ----------------------------------------
 BYTE   W96
// 037   ----------------------------------------
 BYTE   W96
// 038   ----------------------------------------
 BYTE   W96
// 039   ----------------------------------------
 BYTE   W96
// 040   ----------------------------------------
 BYTE   W96
// 041   ----------------------------------------
 BYTE   W96
// 042   ----------------------------------------
 BYTE   W96
// 043   ----------------------------------------
 BYTE   W96
// 044   ----------------------------------------
 BYTE   W96
// 045   ----------------------------------------
 BYTE   W96
// 046   ----------------------------------------
 BYTE   W96
// 047   ----------------------------------------
 BYTE   W96
// 048   ----------------------------------------
 BYTE   W96
// 049   ----------------------------------------
 BYTE   W96
// 050   ----------------------------------------
 BYTE   W96
// 051   ----------------------------------------
 BYTE   W96
// 052   ----------------------------------------
 BYTE   W96
// 053   ----------------------------------------
 BYTE   W96
// 054   ----------------------------------------
 BYTE   W96
// 055   ----------------------------------------
 BYTE   W96
// 056   ----------------------------------------
 BYTE   W96
// 057   ----------------------------------------
 BYTE   W96
// 058   ----------------------------------------
 BYTE   W96
// 059   ----------------------------------------
 BYTE   W96
// 060   ----------------------------------------
 BYTE   W96
// 061   ----------------------------------------
 BYTE   W96
// 062   ----------------------------------------
 BYTE   W96
// 063   ----------------------------------------
 BYTE   W96
// 064   ----------------------------------------
 BYTE   W96
// 065   ----------------------------------------
 BYTE   W96
// 066   ----------------------------------------
 BYTE   W96
// 067   ----------------------------------------
 BYTE   W96
// 068   ----------------------------------------
 BYTE   W48
 BYTE   GoTo
  POIN2 Label_5_01010356
 BYTE   FINE

//**************** Track 7 (Midi-Chn.6) ****************//

EarthBoundSmilesandTearsMrGreen3339_007:
// 000   ----------------------------------------
 BYTE   VOL   65*EarthBoundSmilesandTearsMrGreen3339_mvl/mxv
 BYTE   KEYSH   EarthBoundSmilesandTearsMrGreen3339_key+0
 BYTE   VOICE   5
 BYTE   W96
// 001   ----------------------------------------
 BYTE   W96
// 002   ----------------------------------------
 BYTE   W96
// 003   ----------------------------------------
 BYTE   W96
// 004   ----------------------------------------
 BYTE   W54
Label_6_01010469:
 BYTE   W42
// 005   ----------------------------------------
 BYTE   W96
// 006   ----------------------------------------
 BYTE   W96
// 007   ----------------------------------------
 BYTE   W96
// 008   ----------------------------------------
 BYTE   W96
// 009   ----------------------------------------
 BYTE   W96
// 010   ----------------------------------------
 BYTE   W96
// 011   ----------------------------------------
 BYTE   W96
// 012   ----------------------------------------
 BYTE   W96
// 013   ----------------------------------------
 BYTE   W96
// 014   ----------------------------------------
 BYTE   W96
// 015   ----------------------------------------
 BYTE   W96
// 016   ----------------------------------------
 BYTE   W96
// 017   ----------------------------------------
 BYTE   W96
// 018   ----------------------------------------
 BYTE   W96
// 019   ----------------------------------------
 BYTE   W96
// 020   ----------------------------------------
 BYTE   W96
// 021   ----------------------------------------
 BYTE   W96
// 022   ----------------------------------------
 BYTE   W96
// 023   ----------------------------------------
 BYTE   W96
// 024   ----------------------------------------
 BYTE   W96
// 025   ----------------------------------------
 BYTE   W96
// 026   ----------------------------------------
 BYTE   W96
// 027   ----------------------------------------
 BYTE   W96
// 028   ----------------------------------------
 BYTE   W96
// 029   ----------------------------------------
 BYTE   W96
// 030   ----------------------------------------
 BYTE   W96
// 031   ----------------------------------------
 BYTE   W96
// 032   ----------------------------------------
 BYTE   W96
// 033   ----------------------------------------
 BYTE   W96
// 034   ----------------------------------------
 BYTE   N24  Gn3  v127
 BYTE   W24
 BYTE   N12
 BYTE   W12
 BYTE   As3
 BYTE   W12
 BYTE   N24  Fs3
 BYTE   W24
 BYTE   N12
 BYTE   W12
 BYTE   Gn3
 BYTE   W12
// 035   ----------------------------------------
 BYTE   N48  As3
 BYTE   W60
 BYTE   N12
 BYTE   W12
 BYTE   N12
 BYTE   W12
 BYTE   An3
 BYTE   W12
// 036   ----------------------------------------
Label_6_0101049F:
 BYTE   N24  As3  v127
 BYTE   W24
 BYTE   N12
 BYTE   W12
 BYTE   En3
 BYTE   W12
 BYTE   N48  Fs3
 BYTE   W48
 BYTE   PEND 
 BYTE   PATT
  POIN2 Label_6_0101049F
// 037   ----------------------------------------
Label_6_010104B0:
 BYTE   N12  Bn3  v127
 BYTE   W12
 BYTE   Dn4
 BYTE   W12
 BYTE   Gn4
 BYTE   W12
 BYTE   Dn4
 BYTE   W12
 BYTE   An3
 BYTE   W12
 BYTE   Dn4
 BYTE   W12
 BYTE   Gn4
 BYTE   W12
 BYTE   Dn4
 BYTE   W12
 BYTE   PEND 
// 038   ----------------------------------------
Label_6_010104C3:
 BYTE   N12  Gn3  v127
 BYTE   W12
 BYTE   Dn4
 BYTE   W12
 BYTE   Gn4
 BYTE   W12
 BYTE   Dn4
 BYTE   W12
 BYTE   Gn3
 BYTE   W12
 BYTE   Dn4
 BYTE   W12
 BYTE   An3
 BYTE   W12
 BYTE   Dn4
 BYTE   W12
 BYTE   PEND 
 BYTE   PATT
  POIN2 Label_6_010104B0
 BYTE   PATT
  POIN2 Label_6_010104C3
 BYTE   PATT
  POIN2 Label_6_010104B0
 BYTE   PATT
  POIN2 Label_6_010104C3
// 039   ----------------------------------------
 BYTE   W96
// 040   ----------------------------------------
 BYTE   W96
// 041   ----------------------------------------
 BYTE   W96
// 042   ----------------------------------------
 BYTE   W96
// 043   ----------------------------------------
 BYTE   W96
// 044   ----------------------------------------
 BYTE   W96
// 045   ----------------------------------------
 BYTE   W96
// 046   ----------------------------------------
 BYTE   W96
// 047   ----------------------------------------
 BYTE   W96
// 048   ----------------------------------------
 BYTE   W96
// 049   ----------------------------------------
 BYTE   W96
// 050   ----------------------------------------
 BYTE   W96
// 051   ----------------------------------------
 BYTE   W96
// 052   ----------------------------------------
 BYTE   W96
// 053   ----------------------------------------
 BYTE   W96
// 054   ----------------------------------------
 BYTE   W96
// 055   ----------------------------------------
 BYTE   W96
// 056   ----------------------------------------
 BYTE   W96
// 057   ----------------------------------------
 BYTE   W96
// 058   ----------------------------------------
 BYTE   W96
// 059   ----------------------------------------
 BYTE   W96
// 060   ----------------------------------------
 BYTE   W96
// 061   ----------------------------------------
 BYTE   W96
// 062   ----------------------------------------
 BYTE   W96
// 063   ----------------------------------------
 BYTE   W96
// 064   ----------------------------------------
 BYTE   W96
// 065   ----------------------------------------
 BYTE   W96
// 066   ----------------------------------------
 BYTE   W96
// 067   ----------------------------------------
 BYTE   W96
// 068   ----------------------------------------
 BYTE   W96
// 069   ----------------------------------------
 BYTE   W96
// 070   ----------------------------------------
 BYTE   W96
// 071   ----------------------------------------
 BYTE   W96
// 072   ----------------------------------------
 BYTE   W96
// 073   ----------------------------------------
 BYTE   W96
// 074   ----------------------------------------
 BYTE   W96
// 075   ----------------------------------------
 BYTE   W96
// 076   ----------------------------------------
 BYTE   W96
// 077   ----------------------------------------
 BYTE   W96
// 078   ----------------------------------------
 BYTE   W96
// 079   ----------------------------------------
 BYTE   W96
// 080   ----------------------------------------
 BYTE   W96
// 081   ----------------------------------------
 BYTE   W48
 BYTE   GoTo
  POIN2 Label_6_01010469
 BYTE   FINE

//**************** Track 8 (Midi-Chn.7) ****************//

EarthBoundSmilesandTearsMrGreen3339_008:
// 000   ----------------------------------------
 BYTE   VOL   65*EarthBoundSmilesandTearsMrGreen3339_mvl/mxv
 BYTE   KEYSH   EarthBoundSmilesandTearsMrGreen3339_key+0
 BYTE   VOICE   6
 BYTE   W24
 BYTE   N96  Gn4  v127
 BYTE   W72
// 001   ----------------------------------------
 BYTE   W24
 BYTE   N96
 BYTE   W72
// 002   ----------------------------------------
 BYTE   W24
 BYTE   N96
 BYTE   W72
// 003   ----------------------------------------
 BYTE   W24
 BYTE   TIE
 BYTE   W72
// 004   ----------------------------------------
 BYTE   W48
 BYTE   EOT
 BYTE   W06
Label_7_01010532:
 BYTE   W42
// 005   ----------------------------------------
 BYTE   W96
// 006   ----------------------------------------
 BYTE   W96
// 007   ----------------------------------------
 BYTE   W96
// 008   ----------------------------------------
 BYTE   W96
// 009   ----------------------------------------
 BYTE   W96
// 010   ----------------------------------------
 BYTE   W96
// 011   ----------------------------------------
 BYTE   W96
// 012   ----------------------------------------
Label_7_0101053A:
 BYTE   W60
 BYTE   N12  Dn3  v127
 BYTE   W12
 BYTE   Gn3
 BYTE   W12
 BYTE   An3
 BYTE   W12
 BYTE   PEND 
// 013   ----------------------------------------
Label_7_01010544:
 BYTE   N24  Bn3  v127
 BYTE   W24
 BYTE   N12
 BYTE   W12
 BYTE   Dn4
 BYTE   W12
 BYTE   N24  An3
 BYTE   W24
 BYTE   N12
 BYTE   W12
 BYTE   Bn3
 BYTE   W12
 BYTE   PEND 
// 014   ----------------------------------------
Label_7_01010554:
 BYTE   N72  Gn3  v127
 BYTE   W72
 BYTE   N12  Bn3
 BYTE   W12
 BYTE   An3
 BYTE   W12
 BYTE   PEND 
// 015   ----------------------------------------
Label_7_0101055E:
 BYTE   N24  Gn3  v127
 BYTE   W24
 BYTE   N12  Bn3
 BYTE   W12
 BYTE   Dn4
 BYTE   W12
 BYTE   N24  Cs4
 BYTE   W24
 BYTE   N12
 BYTE   W12
 BYTE   Dn4
 BYTE   W12
 BYTE   PEND 
// 016   ----------------------------------------
Label_7_0101056F:
 BYTE   N72  Dn4  v127
 BYTE   W84
 BYTE   N12  Bn3
 BYTE   W12
 BYTE   PEND 
// 017   ----------------------------------------
Label_7_01010577:
 BYTE   N36  Gn3  v127
 BYTE   W36
 BYTE   N12  Bn3
 BYTE   W12
 BYTE   N24  An3
 BYTE   W24
 BYTE   Dn4
 BYTE   W24
 BYTE   PEND 
// 018   ----------------------------------------
Label_7_01010584:
 BYTE   N36  En4  v127
 BYTE   W36
 BYTE   N06  Bn3
 BYTE   W06
 BYTE   An3
 BYTE   W06
 BYTE   N36  Gn3
 BYTE   W36
 BYTE   N12  En3
 BYTE   W12
 BYTE   PEND 
// 019   ----------------------------------------
Label_7_01010594:
 BYTE   N36  Gn3  v127
 BYTE   W36
 BYTE   N12  Bn3
 BYTE   W12
 BYTE   N24  An3
 BYTE   W24
 BYTE   N12  Gn3
 BYTE   W12
 BYTE   Fs3
 BYTE   W12
 BYTE   PEND 
// 020   ----------------------------------------
 BYTE   N72  Gn3
 BYTE   W96
// 021   ----------------------------------------
 BYTE   W96
// 022   ----------------------------------------
 BYTE   W96
// 023   ----------------------------------------
 BYTE   W96
// 024   ----------------------------------------
 BYTE   W96
// 025   ----------------------------------------
 BYTE   W96
// 026   ----------------------------------------
 BYTE   W96
// 027   ----------------------------------------
 BYTE   W96
// 028   ----------------------------------------
 BYTE   W96
// 029   ----------------------------------------
 BYTE   W92
 BYTE   W02
 BYTE   N48  Dn3
 BYTE   N48  Gn3
 BYTE   N48  As3
 BYTE   W02
// 030   ----------------------------------------
Label_7_010105B8:
 BYTE   W44
 BYTE   W02
 BYTE   N48  Dn3  v127
 BYTE   N48  Fs3
 BYTE   N48  An3
 BYTE   W48
 BYTE   Dn3
 BYTE   N48  Gn3
 BYTE   N48  As3
 BYTE   W02
 BYTE   PEND 
// 031   ----------------------------------------
Label_7_010105C9:
 BYTE   W44
 BYTE   W02
 BYTE   N48  Dn3  v127
 BYTE   N48  Gn3
 BYTE   N48  As3
 BYTE   W48
 BYTE   Dn3
 BYTE   N48  Gn3
 BYTE   N48  As3
 BYTE   W02
 BYTE   PEND 
 BYTE   PATT
  POIN2 Label_7_010105B8
// 032   ----------------------------------------
 BYTE   W44
 BYTE   W02
 BYTE   N48  Dn3  v127
 BYTE   N48  Fs3
 BYTE   N48  An3
 BYTE   W48
 BYTE   En3
 BYTE   N48  Gn3
 BYTE   N48  As3
 BYTE   W02
 BYTE   PATT
  POIN2 Label_7_010105B8
 BYTE   PATT
  POIN2 Label_7_010105C9
 BYTE   PATT
  POIN2 Label_7_010105B8
// 033   ----------------------------------------
 BYTE   W44
 BYTE   W02
 BYTE   N48  Dn3  v127
 BYTE   N48  Fs3
 BYTE   N48  An3
 BYTE   W48
 BYTE   W02
// 034   ----------------------------------------
 BYTE   W96
// 035   ----------------------------------------
 BYTE   W96
// 036   ----------------------------------------
 BYTE   W96
// 037   ----------------------------------------
 BYTE   W96
// 038   ----------------------------------------
 BYTE   W96
// 039   ----------------------------------------
 BYTE   W96
// 040   ----------------------------------------
 BYTE   W96
// 041   ----------------------------------------
 BYTE   W96
// 042   ----------------------------------------
 BYTE   W96
// 043   ----------------------------------------
 BYTE   W96
// 044   ----------------------------------------
 BYTE   W01
 BYTE   N72  Gn3
 BYTE   W72
 BYTE   N08  An3
 BYTE   W08
 BYTE   As3
 BYTE   W08
 BYTE   N06  An3
 BYTE   W07
// 045   ----------------------------------------
 BYTE   N72  Gn3
 BYTE   W72
 BYTE   N08  An3
 BYTE   N08  An4
 BYTE   W08
 BYTE   As3
 BYTE   N08  As4
 BYTE   W08
 BYTE   An3
 BYTE   N08  An4
 BYTE   W08
// 046   ----------------------------------------
Label_7_0101062F:
 BYTE   N72  Gn3  v127
 BYTE   N72  Gn4
 BYTE   W72
 BYTE   N08  An3
 BYTE   N08  An4
 BYTE   W08
 BYTE   As3
 BYTE   N08  As4
 BYTE   W08
 BYTE   An3
 BYTE   N08  An4
 BYTE   W08
 BYTE   PEND 
 BYTE   PATT
  POIN2 Label_7_0101062F
// 047   ----------------------------------------
 BYTE   W96
 BYTE   PATT
  POIN2 Label_7_0101053A
 BYTE   PATT
  POIN2 Label_7_01010544
 BYTE   PATT
  POIN2 Label_7_01010554
 BYTE   PATT
  POIN2 Label_7_0101055E
 BYTE   PATT
  POIN2 Label_7_0101056F
 BYTE   PATT
  POIN2 Label_7_01010577
 BYTE   PATT
  POIN2 Label_7_01010584
 BYTE   PATT
  POIN2 Label_7_01010594
// 048   ----------------------------------------
 BYTE   N72  Gn3  v127
 BYTE   W96
// 049   ----------------------------------------
 BYTE   W60
 BYTE   N12
 BYTE   W12
 BYTE   Bn3
 BYTE   W12
 BYTE   Dn4
 BYTE   W12
// 050   ----------------------------------------
Label_7_0101067C:
 BYTE   N24  En4  v127
 BYTE   W24
 BYTE   Gn4
 BYTE   W24
 BYTE   N36  Fs4
 BYTE   W36
 BYTE   N12  Dn4
 BYTE   W12
 BYTE   PEND 
// 051   ----------------------------------------
Label_7_01010689:
 BYTE   N12  Bn3  v127
 BYTE   W12
 BYTE   Dn4
 BYTE   W12
 BYTE   N48  Bn3
 BYTE   W48
 BYTE   N12  An3
 BYTE   W12
 BYTE   Bn3
 BYTE   W12
 BYTE   PEND 
// 052   ----------------------------------------
Label_7_01010698:
 BYTE   N24  Gn3  v127
 BYTE   W24
 BYTE   Bn3
 BYTE   W24
 BYTE   N36  An3
 BYTE   W36
 BYTE   N12  Gn3
 BYTE   W12
 BYTE   PEND 
// 053   ----------------------------------------
Label_7_010106A5:
 BYTE   N36  Gn3  v127
 BYTE   W36
 BYTE   N12  Fs3
 BYTE   W12
 BYTE   N36
 BYTE   W48
 BYTE   PEND 
// 054   ----------------------------------------
Label_7_010106AF:
 BYTE   N24  En4  v127
 BYTE   W24
 BYTE   Gn4
 BYTE   W24
 BYTE   N36  Fs4
 BYTE   W36
 BYTE   N06  Gn4
 BYTE   W06
 BYTE   An4
 BYTE   W06
 BYTE   PEND 
// 055   ----------------------------------------
Label_7_010106BE:
 BYTE   N12  Bn4  v127
 BYTE   W12
 BYTE   Dn5
 BYTE   W12
 BYTE   An4
 BYTE   W12
 BYTE   Bn4
 BYTE   W12
 BYTE   N36  Gn4
 BYTE   W36
 BYTE   N12  En4
 BYTE   W12
 BYTE   PEND 
// 056   ----------------------------------------
 BYTE   N36  Gn4
 BYTE   W36
 BYTE   N12  Bn4
 BYTE   W12
 BYTE   N24  An4
 BYTE   W24
 BYTE   N12  Gn4
 BYTE   W12
 BYTE   Fs4
 BYTE   W12
// 057   ----------------------------------------
 BYTE   N48  Gn4
 BYTE   W60
 BYTE   N12  Dn3
 BYTE   W12
 BYTE   Bn3
 BYTE   W12
 BYTE   Dn4
 BYTE   W12
 BYTE   PATT
  POIN2 Label_7_0101067C
 BYTE   PATT
  POIN2 Label_7_01010689
 BYTE   PATT
  POIN2 Label_7_01010698
 BYTE   PATT
  POIN2 Label_7_010106A5
 BYTE   PATT
  POIN2 Label_7_010106AF
 BYTE   PATT
  POIN2 Label_7_010106BE
// 058   ----------------------------------------
 BYTE   N36  Gn4  v127
 BYTE   W36
 BYTE   N12  Bn4
 BYTE   W12
 BYTE   N24  An4
 BYTE   W24
 BYTE   N12  Gn4
 BYTE   W12
 BYTE   An4
 BYTE   W12
// 059   ----------------------------------------
 BYTE   N24  Bn4
 BYTE   W24
 BYTE   Cn5
 BYTE   W24
 BYTE   Dn5
 BYTE   W24
 BYTE   N12  Bn4
 BYTE   W12
 BYTE   Dn5
 BYTE   W12
// 060   ----------------------------------------
 BYTE   N24  En4
 BYTE   W24
 BYTE   Gn4
 BYTE   W24
 BYTE   Fs4
 BYTE   W24
 BYTE   N12  Gn4
 BYTE   W12
 BYTE   An4
 BYTE   W12
// 061   ----------------------------------------
 BYTE   Bn4
 BYTE   W12
 BYTE   Dn5
 BYTE   W12
 BYTE   An4
 BYTE   W12
 BYTE   Bn4
 BYTE   W12
 BYTE   N72  Gn4
 BYTE   W48
// 062   ----------------------------------------
 BYTE   W96
// 063   ----------------------------------------
 BYTE   W96
// 064   ----------------------------------------
 BYTE   W96
// 065   ----------------------------------------
 BYTE   W96
// 066   ----------------------------------------
 BYTE   W48
 BYTE   N96
 BYTE   W48
// 067   ----------------------------------------
 BYTE   W48
 BYTE   GoTo
  POIN2 Label_7_01010532
 BYTE   FINE

//**************** Track 9 (Midi-Chn.8) ****************//

EarthBoundSmilesandTearsMrGreen3339_009:
// 000   ----------------------------------------
 BYTE   VOL   65*EarthBoundSmilesandTearsMrGreen3339_mvl/mxv
 BYTE   KEYSH   EarthBoundSmilesandTearsMrGreen3339_key+0
 BYTE   VOICE   7
 BYTE   W96
// 001   ----------------------------------------
 BYTE   W96
// 002   ----------------------------------------
 BYTE   W96
// 003   ----------------------------------------
 BYTE   W96
// 004   ----------------------------------------
 BYTE   W54
Label_8_01010750:
 BYTE   W42
// 005   ----------------------------------------
 BYTE   W96
// 006   ----------------------------------------
 BYTE   W96
// 007   ----------------------------------------
 BYTE   W96
// 008   ----------------------------------------
 BYTE   W96
// 009   ----------------------------------------
 BYTE   W96
// 010   ----------------------------------------
 BYTE   W96
// 011   ----------------------------------------
 BYTE   W96
// 012   ----------------------------------------
 BYTE   W96
// 013   ----------------------------------------
 BYTE   W96
// 014   ----------------------------------------
 BYTE   W96
// 015   ----------------------------------------
 BYTE   W96
// 016   ----------------------------------------
 BYTE   W96
// 017   ----------------------------------------
 BYTE   W96
// 018   ----------------------------------------
 BYTE   W96
// 019   ----------------------------------------
 BYTE   W96
// 020   ----------------------------------------
 BYTE   W96
// 021   ----------------------------------------
 BYTE   W96
// 022   ----------------------------------------
 BYTE   W96
// 023   ----------------------------------------
 BYTE   W96
// 024   ----------------------------------------
 BYTE   W96
// 025   ----------------------------------------
 BYTE   W96
// 026   ----------------------------------------
 BYTE   W96
// 027   ----------------------------------------
 BYTE   W96
// 028   ----------------------------------------
 BYTE   W96
// 029   ----------------------------------------
 BYTE   W96
// 030   ----------------------------------------
 BYTE   W96
// 031   ----------------------------------------
 BYTE   W96
// 032   ----------------------------------------
 BYTE   W96
// 033   ----------------------------------------
 BYTE   W96
// 034   ----------------------------------------
 BYTE   W96
// 035   ----------------------------------------
 BYTE   W96
// 036   ----------------------------------------
 BYTE   W96
// 037   ----------------------------------------
 BYTE   W96
// 038   ----------------------------------------
 BYTE   W96
// 039   ----------------------------------------
 BYTE   W96
// 040   ----------------------------------------
 BYTE   W96
// 041   ----------------------------------------
 BYTE   W96
// 042   ----------------------------------------
 BYTE   W96
// 043   ----------------------------------------
 BYTE   W96
// 044   ----------------------------------------
 BYTE   W96
// 045   ----------------------------------------
 BYTE   W96
// 046   ----------------------------------------
 BYTE   W96
// 047   ----------------------------------------
 BYTE   W96
// 048   ----------------------------------------
 BYTE   W96
// 049   ----------------------------------------
 BYTE   W96
// 050   ----------------------------------------
 BYTE   W96
// 051   ----------------------------------------
 BYTE   W96
// 052   ----------------------------------------
 BYTE   W96
// 053   ----------------------------------------
 BYTE   W60
 BYTE   N12  Dn3  v127
 BYTE   W12
 BYTE   Gn3
 BYTE   W12
 BYTE   An3
 BYTE   W12
// 054   ----------------------------------------
 BYTE   N24  Bn3
 BYTE   W24
 BYTE   N12
 BYTE   W12
 BYTE   Dn4
 BYTE   W12
 BYTE   N24  An3
 BYTE   W24
 BYTE   N12
 BYTE   W12
 BYTE   Bn3
 BYTE   W12
// 055   ----------------------------------------
 BYTE   N72  Gn3
 BYTE   W72
 BYTE   N12  Bn3
 BYTE   W12
 BYTE   An3
 BYTE   W12
// 056   ----------------------------------------
 BYTE   N24  Gn3
 BYTE   W24
 BYTE   N12  Bn3
 BYTE   W12
 BYTE   Dn4
 BYTE   W12
 BYTE   N24  Cs4
 BYTE   W24
 BYTE   N12
 BYTE   W12
 BYTE   Dn4
 BYTE   W12
// 057   ----------------------------------------
 BYTE   N72
 BYTE   W84
 BYTE   N12  Bn3
 BYTE   W12
// 058   ----------------------------------------
 BYTE   N36  Gn3
 BYTE   W36
 BYTE   N12  Bn3
 BYTE   W12
 BYTE   N24  An3
 BYTE   W24
 BYTE   Dn4
 BYTE   W24
// 059   ----------------------------------------
 BYTE   N36  En4
 BYTE   W36
 BYTE   N06  Bn3
 BYTE   W06
 BYTE   An3
 BYTE   W06
 BYTE   N36  Gn3
 BYTE   W36
 BYTE   N12  En3
 BYTE   W12
// 060   ----------------------------------------
 BYTE   N36  Gn3
 BYTE   W36
 BYTE   N12  Bn3
 BYTE   W12
 BYTE   N24  An3
 BYTE   W24
 BYTE   N12  Gn3
 BYTE   W12
 BYTE   Fs3
 BYTE   W12
// 061   ----------------------------------------
 BYTE   N72  Gn3
 BYTE   W96
// 062   ----------------------------------------
 BYTE   W60
 BYTE   N12
 BYTE   W12
 BYTE   Bn3
 BYTE   W12
 BYTE   Dn4
 BYTE   W12
// 063   ----------------------------------------
 BYTE   N24  En4
 BYTE   W24
 BYTE   Gn4
 BYTE   W24
 BYTE   N36  Fs4
 BYTE   W36
 BYTE   N12  Dn4
 BYTE   W12
// 064   ----------------------------------------
 BYTE   Bn3
 BYTE   W12
 BYTE   Dn4
 BYTE   W12
 BYTE   N48  Bn3
 BYTE   W48
 BYTE   N12  An3
 BYTE   W12
 BYTE   Bn3
 BYTE   W12
// 065   ----------------------------------------
 BYTE   N24  Gn3
 BYTE   W24
 BYTE   Bn3
 BYTE   W24
 BYTE   N36  An3
 BYTE   W36
 BYTE   N12  Gn3
 BYTE   W12
// 066   ----------------------------------------
 BYTE   N36
 BYTE   W36
 BYTE   N12  Fs3
 BYTE   W12
 BYTE   N36
 BYTE   W48
// 067   ----------------------------------------
 BYTE   N24  En4
 BYTE   W24
 BYTE   Gn4
 BYTE   W24
 BYTE   N36  Fs4
 BYTE   W36
 BYTE   N06  Gn4
 BYTE   W06
 BYTE   An4
 BYTE   W06
// 068   ----------------------------------------
 BYTE   N12  Bn4
 BYTE   W12
 BYTE   Dn5
 BYTE   W12
 BYTE   An4
 BYTE   W12
 BYTE   Bn4
 BYTE   W12
 BYTE   N36  Gn4
 BYTE   W36
 BYTE   N12  En4
 BYTE   W12
// 069   ----------------------------------------
 BYTE   N36  Gn4
 BYTE   W36
 BYTE   N12  Bn4
 BYTE   W12
 BYTE   N24  An4
 BYTE   W24
 BYTE   N12  Gn4
 BYTE   W12
 BYTE   Fs4
 BYTE   W12
// 070   ----------------------------------------
 BYTE   N72  Gn4
 BYTE   W96
// 071   ----------------------------------------
 BYTE   W96
// 072   ----------------------------------------
 BYTE   W96
// 073   ----------------------------------------
 BYTE   W96
// 074   ----------------------------------------
 BYTE   W96
// 075   ----------------------------------------
 BYTE   W96
// 076   ----------------------------------------
 BYTE   W96
// 077   ----------------------------------------
 BYTE   W96
// 078   ----------------------------------------
 BYTE   W96
// 079   ----------------------------------------
 BYTE   W96
// 080   ----------------------------------------
 BYTE   W96
// 081   ----------------------------------------
 BYTE   W96
// 082   ----------------------------------------
 BYTE   W96
// 083   ----------------------------------------
 BYTE   W96
// 084   ----------------------------------------
 BYTE   W96
// 085   ----------------------------------------
 BYTE   W96
// 086   ----------------------------------------
 BYTE   W48
 BYTE   GoTo
  POIN2 Label_8_01010750
 BYTE   FINE

//**************** Track 10 (Midi-Chn.9) ****************//

EarthBoundSmilesandTearsMrGreen3339_010:
// 000   ----------------------------------------
 BYTE   KEYSH   EarthBoundSmilesandTearsMrGreen3339_key+0
 BYTE   VOICE   6
 BYTE   VOL   32*EarthBoundSmilesandTearsMrGreen3339_mvl/mxv
 BYTE   W96
// 001   ----------------------------------------
 BYTE   W96
// 002   ----------------------------------------
 BYTE   W96
// 003   ----------------------------------------
 BYTE   W96
// 004   ----------------------------------------
 BYTE   W54
Label_9_0101085C:
 BYTE   W42
// 005   ----------------------------------------
 BYTE   W96
// 006   ----------------------------------------
 BYTE   W96
// 007   ----------------------------------------
 BYTE   W96
// 008   ----------------------------------------
 BYTE   W96
// 009   ----------------------------------------
 BYTE   W96
// 010   ----------------------------------------
 BYTE   W96
// 011   ----------------------------------------
 BYTE   W96
// 012   ----------------------------------------
 BYTE   W96
// 013   ----------------------------------------
Label_9_01010865:
 BYTE   TIE  Dn4  v064
 BYTE   TIE  Gn4  v127
 BYTE   TIE  Bn4
 BYTE   W96
 BYTE   PEND 
// 014   ----------------------------------------
 BYTE   W96
// 015   ----------------------------------------
 BYTE   EOT
 BYTE   Dn4  v079
 BYTE   Bn4
Label_9_01010874:
 BYTE   N48  Dn4  v064
 BYTE   N48  Gn4  v127
 BYTE   N48  Cn5
 BYTE   W48
 BYTE   Gn3
 BYTE   N48  En4
 BYTE   N48  Gn4
 BYTE   W48
 BYTE   PEND 
// 016   ----------------------------------------
Label_9_01010884:
 BYTE   N48  Dn4  v127
 BYTE   N48  Gn4
 BYTE   N48  Bn4  v064
 BYTE   W48
 BYTE   Dn4  v127
 BYTE   N48  Fs4  v064
 BYTE   N48  An4  v127
 BYTE   W48
 BYTE   PEND 
// 017   ----------------------------------------
Label_9_01010897:
 BYTE   N48  Dn4  v064
 BYTE   N48  Gn4  v127
 BYTE   N48  Bn4
 BYTE   W48
 BYTE   Dn4  v064
 BYTE   N48  Fs4  v127
 BYTE   N48  An4
 BYTE   W48
 BYTE   PEND 
// 018   ----------------------------------------
Label_9_010108A9:
 BYTE   N48  Cn4  v127
 BYTE   N48  En4
 BYTE   N48  Gn4
 BYTE   W48
 BYTE   Dn4
 BYTE   N48  Gn4
 BYTE   N48  Bn4
 BYTE   W48
 BYTE   PEND 
// 019   ----------------------------------------
Label_9_010108B8:
 BYTE   N48  Cn4  v127
 BYTE   N48  En4
 BYTE   N48  Gn4
 BYTE   W48
 BYTE   Dn4
 BYTE   N48  Fs4
 BYTE   N48  An4
 BYTE   W48
 BYTE   PEND 
// 020   ----------------------------------------
Label_9_010108C7:
 BYTE   N96  Dn4  v127
 BYTE   N96  Gn4
 BYTE   N96  Bn4
 BYTE   W96
 BYTE   PEND 
// 021   ----------------------------------------
 BYTE   W96
 BYTE   PATT
  POIN2 Label_9_010108B8
// 022   ----------------------------------------
Label_9_010108D6:
 BYTE   N48  Dn4  v127
 BYTE   N48  Gn4
 BYTE   N48  Bn4
 BYTE   W48
 BYTE   N24  Dn4
 BYTE   N24  Gn4
 BYTE   N24  Bn4
 BYTE   W24
 BYTE   Dn4
 BYTE   N24  Fs4
 BYTE   N24  An4
 BYTE   W24
 BYTE   PEND 
// 023   ----------------------------------------
 BYTE   N48  Dn4
 BYTE   N48  Gn4
 BYTE   N48  Bn4
 BYTE   W48
 BYTE   An3
 BYTE   N48  Dn4
 BYTE   N48  Fs4
 BYTE   W48
// 024   ----------------------------------------
Label_9_010108F9:
 BYTE   N48  Cn4  v127
 BYTE   N48  Fs4
 BYTE   N48  An4
 BYTE   W48
 BYTE   Dn4
 BYTE   N48  Fs4
 BYTE   N48  An4
 BYTE   W48
 BYTE   PEND 
 BYTE   PATT
  POIN2 Label_9_010108B8
// 025   ----------------------------------------
Label_9_0101090D:
 BYTE   N48  Dn4  v127
 BYTE   N48  Gn4
 BYTE   N48  Bn4
 BYTE   W48
 BYTE   Gn3
 BYTE   N48  Bn3
 BYTE   N48  Dn4
 BYTE   W48
 BYTE   PEND 
 BYTE   PATT
  POIN2 Label_9_010108B8
// 026   ----------------------------------------
Label_9_01010921:
 BYTE   N96  Bn3  v127
 BYTE   N96  Dn4
 BYTE   N96  Gn4
 BYTE   W96
 BYTE   PEND 
// 027   ----------------------------------------
 BYTE   W96
// 028   ----------------------------------------
 BYTE   W96
// 029   ----------------------------------------
 BYTE   W96
// 030   ----------------------------------------
 BYTE   W96
// 031   ----------------------------------------
 BYTE   W96
// 032   ----------------------------------------
 BYTE   W96
// 033   ----------------------------------------
 BYTE   W96
// 034   ----------------------------------------
 BYTE   W96
// 035   ----------------------------------------
 BYTE   W96
// 036   ----------------------------------------
 BYTE   W96
// 037   ----------------------------------------
 BYTE   W96
// 038   ----------------------------------------
 BYTE   W96
// 039   ----------------------------------------
 BYTE   W96
// 040   ----------------------------------------
 BYTE   W96
// 041   ----------------------------------------
 BYTE   W96
// 042   ----------------------------------------
 BYTE   W96
// 043   ----------------------------------------
 BYTE   W96
// 044   ----------------------------------------
 BYTE   W96
// 045   ----------------------------------------
 BYTE   W96
// 046   ----------------------------------------
 BYTE   W96
// 047   ----------------------------------------
 BYTE   W96
// 048   ----------------------------------------
 BYTE   W96
// 049   ----------------------------------------
 BYTE   W96
// 050   ----------------------------------------
 BYTE   W96
 BYTE   PATT
  POIN2 Label_9_01010865
// 051   ----------------------------------------
 BYTE   W96
// 052   ----------------------------------------
 BYTE   EOT
 BYTE   Dn4  v079
 BYTE   Bn4
 BYTE   PATT
  POIN2 Label_9_01010874
 BYTE   PATT
  POIN2 Label_9_01010884
 BYTE   PATT
  POIN2 Label_9_01010897
 BYTE   PATT
  POIN2 Label_9_010108A9
 BYTE   PATT
  POIN2 Label_9_010108B8
 BYTE   PATT
  POIN2 Label_9_010108C7
// 053   ----------------------------------------
 BYTE   W96
 BYTE   PATT
  POIN2 Label_9_010108B8
 BYTE   PATT
  POIN2 Label_9_010108D6
 BYTE   PATT
  POIN2 Label_9_010108B8
 BYTE   PATT
  POIN2 Label_9_010108F9
 BYTE   PATT
  POIN2 Label_9_010108B8
 BYTE   PATT
  POIN2 Label_9_0101090D
 BYTE   PATT
  POIN2 Label_9_010108B8
 BYTE   PATT
  POIN2 Label_9_01010921
 BYTE   PATT
  POIN2 Label_9_010108B8
 BYTE   PATT
  POIN2 Label_9_010108D6
 BYTE   PATT
  POIN2 Label_9_010108B8
 BYTE   PATT
  POIN2 Label_9_010108F9
 BYTE   PATT
  POIN2 Label_9_010108B8
// 054   ----------------------------------------
 BYTE   N48  Dn4  v127
 BYTE   N48  Gn4
 BYTE   N48  Bn4
 BYTE   W48
 BYTE   Bn3
 BYTE   N48  En4
 BYTE   N48  Gn4
 BYTE   W48
 BYTE   PATT
  POIN2 Label_9_010108B8
// 055   ----------------------------------------
 BYTE   N48  Dn4  v127
 BYTE   N48  Gn4
 BYTE   N48  Bn4
 BYTE   W48
 BYTE   Dn4
 BYTE   N48  Gn4
 BYTE   N48  Bn4
 BYTE   W48
 BYTE   PATT
  POIN2 Label_9_010108B8
// 056   ----------------------------------------
 BYTE   N48  Dn4  v127
 BYTE   N48  Gn4
 BYTE   N48  Bn4
 BYTE   W96
// 057   ----------------------------------------
 BYTE   W96
// 058   ----------------------------------------
 BYTE   W96
// 059   ----------------------------------------
 BYTE   W96
// 060   ----------------------------------------
 BYTE   W96
// 061   ----------------------------------------
 BYTE   W96
// 062   ----------------------------------------
 BYTE   W48
 BYTE   GoTo
  POIN2 Label_9_0101085C
 BYTE   FINE

//**************** Track 11 (Midi-Chn.10) ****************//

EarthBoundSmilesandTearsMrGreen3339_011:
// 000   ----------------------------------------
 BYTE   VOL   65*EarthBoundSmilesandTearsMrGreen3339_mvl/mxv
 BYTE   KEYSH   EarthBoundSmilesandTearsMrGreen3339_key+0
 BYTE   VOICE   0
 BYTE   W96
// 001   ----------------------------------------
 BYTE   W96
// 002   ----------------------------------------
 BYTE   W96
// 003   ----------------------------------------
 BYTE   W96
// 004   ----------------------------------------
 BYTE   W54
Label_10_010109F1:
 BYTE   W42
// 005   ----------------------------------------
 BYTE   W96
// 006   ----------------------------------------
 BYTE   W96
// 007   ----------------------------------------
 BYTE   W96
// 008   ----------------------------------------
 BYTE   W96
// 009   ----------------------------------------
 BYTE   W96
// 010   ----------------------------------------
 BYTE   W96
// 011   ----------------------------------------
 BYTE   W96
// 012   ----------------------------------------
 BYTE   W96
// 013   ----------------------------------------
Label_10_010109FA:
 BYTE   N12  GsM2  v127
 BYTE   N12  AnM2
 BYTE   N06  AsM2
 BYTE   W06
 BYTE   N06
 BYTE   W06
 BYTE   N06
 BYTE   W06
 BYTE   N06
 BYTE   W06
 BYTE   N12  BnM2
 BYTE   N12  CnM1
 BYTE   N06  AsM2
 BYTE   W06
 BYTE   N06
 BYTE   W06
 BYTE   N06
 BYTE   W06
 BYTE   N06
 BYTE   W06
 BYTE   N12  GsM2
 BYTE   N12  AnM2
 BYTE   N06  AsM2
 BYTE   W06
 BYTE   N06
 BYTE   W06
 BYTE   N12  GsM2
 BYTE   N12  AnM2
 BYTE   N06  AsM2
 BYTE   W06
 BYTE   N06
 BYTE   W06
 BYTE   N12  BnM2
 BYTE   N12  CnM1
 BYTE   N06  AsM2
 BYTE   W06
 BYTE   N06
 BYTE   W06
 BYTE   N06
 BYTE   W06
 BYTE   N06
 BYTE   W06
 BYTE   PEND 
 BYTE   PATT
  POIN2 Label_10_010109FA
 BYTE   PATT
  POIN2 Label_10_010109FA
 BYTE   PATT
  POIN2 Label_10_010109FA
 BYTE   PATT
  POIN2 Label_10_010109FA
 BYTE   PATT
  POIN2 Label_10_010109FA
 BYTE   PATT
  POIN2 Label_10_010109FA
// 014   ----------------------------------------
 BYTE   W96
// 015   ----------------------------------------
 BYTE   W96
 BYTE   PATT
  POIN2 Label_10_010109FA
 BYTE   PATT
  POIN2 Label_10_010109FA
 BYTE   PATT
  POIN2 Label_10_010109FA
 BYTE   PATT
  POIN2 Label_10_010109FA
 BYTE   PATT
  POIN2 Label_10_010109FA
 BYTE   PATT
  POIN2 Label_10_010109FA
 BYTE   PATT
  POIN2 Label_10_010109FA
 BYTE   PATT
  POIN2 Label_10_010109FA
// 016   ----------------------------------------
 BYTE   W96
// 017   ----------------------------------------
 BYTE   W96
// 018   ----------------------------------------
 BYTE   W96
// 019   ----------------------------------------
 BYTE   W96
// 020   ----------------------------------------
 BYTE   W96
// 021   ----------------------------------------
 BYTE   W96
// 022   ----------------------------------------
 BYTE   W96
// 023   ----------------------------------------
 BYTE   W96
// 024   ----------------------------------------
 BYTE   W96
// 025   ----------------------------------------
 BYTE   W96
// 026   ----------------------------------------
 BYTE   W96
// 027   ----------------------------------------
 BYTE   W96
// 028   ----------------------------------------
 BYTE   W96
// 029   ----------------------------------------
 BYTE   W96
// 030   ----------------------------------------
Label_10_01010A8B:
 BYTE   N12  GsM2  v127
 BYTE   N12  AnM2
 BYTE   N06  AsM2
 BYTE   W06
 BYTE   N06
 BYTE   W06
 BYTE   N12  GsM2
 BYTE   N12  AnM2
 BYTE   N06  AsM2
 BYTE   W06
 BYTE   N06
 BYTE   W06
 BYTE   N12  BnM2
 BYTE   N12  CnM1
 BYTE   N06  AsM2
 BYTE   W06
 BYTE   N06
 BYTE   W06
 BYTE   GsM2
 BYTE   N06  AnM2
 BYTE   N06  AsM2
 BYTE   W06
 BYTE   GsM2
 BYTE   N06  AnM2
 BYTE   N06  AsM2
 BYTE   W06
 BYTE   N12  GsM2
 BYTE   N12  AnM2
 BYTE   N06  AsM2
 BYTE   W06
 BYTE   N06
 BYTE   W06
 BYTE   N12  GsM2
 BYTE   N12  AnM2
 BYTE   N06  AsM2
 BYTE   W06
 BYTE   N06
 BYTE   W06
 BYTE   N12  BnM2
 BYTE   N12  CnM1
 BYTE   N06  AsM2
 BYTE   W06
 BYTE   N06
 BYTE   W06
 BYTE   GsM2
 BYTE   N06  AnM2
 BYTE   N06  AsM2
 BYTE   W06
 BYTE   GsM2
 BYTE   N01  AnM2
 BYTE   N04  AsM2
 BYTE   W06
 BYTE   PEND 
 BYTE   PATT
  POIN2 Label_10_01010A8B
 BYTE   PATT
  POIN2 Label_10_01010A8B
 BYTE   PATT
  POIN2 Label_10_01010A8B
 BYTE   PATT
  POIN2 Label_10_01010A8B
 BYTE   PATT
  POIN2 Label_10_01010A8B
 BYTE   PATT
  POIN2 Label_10_01010A8B
 BYTE   PATT
  POIN2 Label_10_01010A8B
// 031   ----------------------------------------
 BYTE   W96
// 032   ----------------------------------------
 BYTE   W96
 BYTE   PATT
  POIN2 Label_10_010109FA
 BYTE   PATT
  POIN2 Label_10_010109FA
 BYTE   PATT
  POIN2 Label_10_010109FA
 BYTE   PATT
  POIN2 Label_10_010109FA
 BYTE   PATT
  POIN2 Label_10_010109FA
 BYTE   PATT
  POIN2 Label_10_010109FA
 BYTE   PATT
  POIN2 Label_10_010109FA
 BYTE   PATT
  POIN2 Label_10_010109FA
 BYTE   PATT
  POIN2 Label_10_010109FA
 BYTE   PATT
  POIN2 Label_10_010109FA
 BYTE   PATT
  POIN2 Label_10_010109FA
 BYTE   PATT
  POIN2 Label_10_010109FA
 BYTE   PATT
  POIN2 Label_10_010109FA
 BYTE   PATT
  POIN2 Label_10_010109FA
 BYTE   PATT
  POIN2 Label_10_010109FA
 BYTE   PATT
  POIN2 Label_10_010109FA
 BYTE   PATT
  POIN2 Label_10_010109FA
 BYTE   PATT
  POIN2 Label_10_010109FA
 BYTE   PATT
  POIN2 Label_10_010109FA
 BYTE   PATT
  POIN2 Label_10_010109FA
 BYTE   PATT
  POIN2 Label_10_010109FA
 BYTE   PATT
  POIN2 Label_10_010109FA
 BYTE   PATT
  POIN2 Label_10_010109FA
 BYTE   PATT
  POIN2 Label_10_010109FA
 BYTE   PATT
  POIN2 Label_10_010109FA
 BYTE   PATT
  POIN2 Label_10_010109FA
 BYTE   PATT
  POIN2 Label_10_010109FA
// 033   ----------------------------------------
Label_10_01010B87:
 BYTE   N24  GsM2  v127
 BYTE   N12  AsM2
 BYTE   W12
 BYTE   N12
 BYTE   W12
 BYTE   N24  GsM2
 BYTE   N12  AsM2
 BYTE   W12
 BYTE   N12
 BYTE   W12
 BYTE   N12
 BYTE   W12
 BYTE   N12
 BYTE   W12
 BYTE   N24  BnM2
 BYTE   N12  AsM2
 BYTE   W12
 BYTE   N12
 BYTE   W12
 BYTE   PEND 
// 034   ----------------------------------------
Label_10_01010BA2:
 BYTE   N24  GsM2  v127
 BYTE   N12  AsM2
 BYTE   W12
 BYTE   N12
 BYTE   W12
 BYTE   N24  GsM2
 BYTE   N12  AsM2
 BYTE   W12
 BYTE   N12
 BYTE   W12
 BYTE   N24  GsM2
 BYTE   N12  AsM2
 BYTE   W12
 BYTE   N12
 BYTE   W12
 BYTE   N24  BnM2
 BYTE   N12  AsM2
 BYTE   W12
 BYTE   N12
 BYTE   W12
 BYTE   PEND 
 BYTE   PATT
  POIN2 Label_10_01010B87
 BYTE   PATT
  POIN2 Label_10_01010BA2
// 035   ----------------------------------------
 BYTE   W96
// 036   ----------------------------------------
 BYTE   W48
 BYTE   GoTo
  POIN2 Label_10_010109F1
 BYTE   FINE

//******************************************************//
	ALIGN 4

EarthBoundSmilesandTearsMrGreen3339:
	BYTE	11	// NumTrks
	BYTE	0	// NumBlks
	BYTE	EarthBoundSmilesandTearsMrGreen3339_pri	// Priority
	BYTE	EarthBoundSmilesandTearsMrGreen3339_rev	// Reverb.
    
	POIN2	EarthBoundSmilesandTearsMrGreen3339_grp
    
	POIN2	EarthBoundSmilesandTearsMrGreen3339_001
	POIN2	EarthBoundSmilesandTearsMrGreen3339_002
	POIN2	EarthBoundSmilesandTearsMrGreen3339_003
	POIN2	EarthBoundSmilesandTearsMrGreen3339_004
	POIN2	EarthBoundSmilesandTearsMrGreen3339_005
	POIN2	EarthBoundSmilesandTearsMrGreen3339_006
	POIN2	EarthBoundSmilesandTearsMrGreen3339_007
	POIN2	EarthBoundSmilesandTearsMrGreen3339_008
	POIN2	EarthBoundSmilesandTearsMrGreen3339_009
	POIN2	EarthBoundSmilesandTearsMrGreen3339_010
	POIN2	EarthBoundSmilesandTearsMrGreen3339_011

	
