//Event file generated from Sappy .s format.
	#include "MPlayDef.event"

	#define	EarthboundBuySomethinWillYaDolkar_grp  voicegroup000
	#define	EarthboundBuySomethinWillYaDolkar_pri  0
	#define	EarthboundBuySomethinWillYaDolkar_rev  0
	#define	EarthboundBuySomethinWillYaDolkar_mvl  127
	#define	EarthboundBuySomethinWillYaDolkar_key  0
	#define	EarthboundBuySomethinWillYaDolkar_tbs  1
	#define	EarthboundBuySomethinWillYaDolkar_exg  0
	#define	EarthboundBuySomethinWillYaDolkar_cmp  1

	// .rodata
	//	EarthboundBuySomethinWillYaDolkar
	ALIGN 4


//**************** Track 1 (Midi-Chn.0) ****************//

EarthboundBuySomethinWillYaDolkar_001:
// 000   ----------------------------------------
 BYTE   KEYSH   EarthboundBuySomethinWillYaDolkar_key+0
Label_0_01907F72:
 BYTE   TEMPO   120*EarthboundBuySomethinWillYaDolkar_tbs/2
 BYTE   VOICE   105
 BYTE   VOL   46*EarthboundBuySomethinWillYaDolkar_mvl/mxv
 BYTE   PAN   c_v+0
 BYTE   W24
 BYTE   TEMPO   150*EarthboundBuySomethinWillYaDolkar_tbs/2
 BYTE   N12  As2  v112
 BYTE   W16
 BYTE   N05  Bn2  v100
 BYTE   W08
 BYTE   N12  Gn3  v112
 BYTE   W16
 BYTE   N05  As2  v124
 BYTE   W08
 BYTE   N12  Bn2  v112
 BYTE   W16
 BYTE   N05  Gn3  v120
 BYTE   W08
// 001   ----------------------------------------
 BYTE   N11  As2  v112
 BYTE   W16
 BYTE   N05  Bn2  v100
 BYTE   W08
 BYTE   N12  Gn3  v112
 BYTE   W16
 BYTE   N05  As2  v124
 BYTE   W08
 BYTE   N12  Bn2  v112
 BYTE   W16
 BYTE   N07  Gn3  v120
 BYTE   W08
 BYTE   N15  Fn3  v112
 BYTE   W16
 BYTE   N07  En3  v100
 BYTE   W08
// 002   ----------------------------------------
 BYTE   N15  Ds3  v112
 BYTE   W16
 BYTE   N07  Dn3  v100
 BYTE   W08
 BYTE   N15  Cn3  v112
 BYTE   W24
 BYTE   N15
 BYTE   W16
 BYTE   N07  Dn3  v120
 BYTE   W08
 BYTE   N15  Ds3  v112
 BYTE   W16
 BYTE   N07  En3  v100
 BYTE   W08
// 003   ----------------------------------------
 BYTE   N17  Cn4  v112
 BYTE   W24
 BYTE   As3
 BYTE   W24
 BYTE   An3
 BYTE   W24
 BYTE   N15  Ds3
 BYTE   W16
 BYTE   N07  En3  v120
 BYTE   W08
// 004   ----------------------------------------
 BYTE   N23  Cn3  v112
 BYTE   W40
 BYTE   N07  Bn3  v124
 BYTE   W08
 BYTE   N15  As3  v112
 BYTE   W16
 BYTE   N07  Bn3  v120
 BYTE   W08
 BYTE   N13  An3  v112
 BYTE   W16
 BYTE   N12  Gn3  v100
 BYTE   W08
// 005   ----------------------------------------
 BYTE   W16
 BYTE   N07  Bn3  v124
 BYTE   W08
 BYTE   N15  As3  v112
 BYTE   W16
 BYTE   N07  Bn3  v120
 BYTE   W08
 BYTE   N13  An3  v112
 BYTE   W16
 BYTE   N11  Gn3  v100
 BYTE   W24
 BYTE   N07  An3  v124
 BYTE   W08
// 006   ----------------------------------------
 BYTE   N13  Gn3  v112
 BYTE   W16
 BYTE   N07  An3  v120
 BYTE   W08
 BYTE   N15  Bn3  v112
 BYTE   W24
 BYTE   Cn4
 BYTE   W24
 BYTE   Fs3
 BYTE   W24
// 007   ----------------------------------------
 BYTE   Gn3
 BYTE   W24
 BYTE   N14  Ds3
 BYTE   W16
 BYTE   N07  En3  v100
 BYTE   W08
 BYTE   N14  Ds3  v112
 BYTE   W16
 BYTE   N07  En3  v100
 BYTE   W08
 BYTE   N15  Bn2  v112
 BYTE   W24
// 008   ----------------------------------------
 BYTE   Cn3
 BYTE   W24
 BYTE   Gn2
 BYTE   W16
 BYTE   N07  Fs2  v100
 BYTE   W08
 BYTE   N15  As2  v112
 BYTE   W16
 BYTE   N07  Bn2  v124
 BYTE   W08
 BYTE   N15  Dn3  v112
 BYTE   W16
 BYTE   N07  Bn2  v120
 BYTE   W08
// 009   ----------------------------------------
 BYTE   N15  Gn3  v112
 BYTE   W24
 BYTE   Fn3
 BYTE   W24
 BYTE   En3
 BYTE   W24
 BYTE   N14  Dn3
 BYTE   W16
 BYTE   N07  Ds3  v100
 BYTE   W08
// 010   ----------------------------------------
 BYTE   N14  En3  v112
 BYTE   W16
 BYTE   N07  Gn2  v100
 BYTE   W08
 BYTE   N15  Cn3  v112
 BYTE   W24
 BYTE   N15
 BYTE   W16
 BYTE   N07  Dn3  v124
 BYTE   W08
 BYTE   N15  Ds3  v112
 BYTE   W16
 BYTE   N07  En3  v124
 BYTE   W08
// 011   ----------------------------------------
 BYTE   N15  Cn4  v112
 BYTE   W24
 BYTE   As3
 BYTE   W24
 BYTE   An3
 BYTE   W24
 BYTE   Gn3
 BYTE   W24
// 012   ----------------------------------------
 BYTE   En3
 BYTE   W24
 BYTE   An3
 BYTE   W24
 BYTE   N15
 BYTE   W24
 BYTE   Bn3
 BYTE   W24
// 013   ----------------------------------------
 BYTE   An3
 BYTE   W24
 BYTE   N14  Gn3
 BYTE   W16
 BYTE   N07  Fs3  v100
 BYTE   W08
 BYTE   N14  Gn3  v112
 BYTE   W16
 BYTE   N23  An3  v100
 BYTE   W24
 BYTE   N07  Gn3
 BYTE   W08
// 014   ----------------------------------------
 BYTE   N14  En3  v112
 BYTE   W24
 BYTE   N15  Dn3
 BYTE   W24
 BYTE   N15
 BYTE   W24
 BYTE   N14  Gn3
 BYTE   W16
 BYTE   N07  Ds3  v100
 BYTE   W08
// 015   ----------------------------------------
 BYTE   N14  Dn3  v112
 BYTE   W24
 BYTE   N15  Cn3
 BYTE   W24
 BYTE   Gn2
 BYTE   W24
 BYTE   Cn3
 BYTE   W24
// 016   ----------------------------------------
 BYTE   W96
// 017   ----------------------------------------
 BYTE   W96
// 018   ----------------------------------------
 BYTE   W96
// 019   ----------------------------------------
 BYTE   W96
// 020   ----------------------------------------
 BYTE   W24
 BYTE   GoTo
  POIN2 Label_0_01907F72
// 021   ----------------------------------------
 BYTE   TEMPO   150*EarthboundBuySomethinWillYaDolkar_tbs/2
 BYTE   FINE

//**************** Track 2 (Midi-Chn.1) ****************//

EarthboundBuySomethinWillYaDolkar_002:
// 000   ----------------------------------------
 BYTE   KEYSH   EarthboundBuySomethinWillYaDolkar_key+0
Label_1_019080C6:
 BYTE   W06
 BYTE   VOICE   35
 BYTE   VOL   61*EarthboundBuySomethinWillYaDolkar_mvl/mxv
 BYTE   PAN   c_v+0
 BYTE   W18
 BYTE   N23  Gn0  v112
 BYTE   W48
 BYTE   N15  Gn1  v108
 BYTE   W24
// 001   ----------------------------------------
 BYTE   W24
 BYTE   N13  Gn0  v104
 BYTE   W24
 BYTE   N15  Gn0  v108
 BYTE   W24
 BYTE   N12  An0  v112
 BYTE   W24
// 002   ----------------------------------------
 BYTE   N13  Bn0  v108
 BYTE   W24
 BYTE   N14  Cn1  v116
 BYTE   W48
 BYTE   N12  Gn0
 BYTE   W24
// 003   ----------------------------------------
 BYTE   W24
 BYTE   N14  Cn1  v120
 BYTE   W24
 BYTE   N12  Cn1  v112
 BYTE   W24
 BYTE   N11  As0  v124
 BYTE   W24
// 004   ----------------------------------------
 BYTE   An0  v116
 BYTE   W24
 BYTE   N13  Gn0  v120
 BYTE   W48
 BYTE   N09  Gn1  v112
 BYTE   W24
// 005   ----------------------------------------
 BYTE   W24
 BYTE   N12  Gn0  v108
 BYTE   W48
 BYTE   N14  Gn1  v112
 BYTE   W24
// 006   ----------------------------------------
 BYTE   W24
 BYTE   N11  Cn2  v100
 BYTE   W72
// 007   ----------------------------------------
 BYTE   W96
// 008   ----------------------------------------
 BYTE   W24
 BYTE   N18  Gn0  v112
 BYTE   W48
 BYTE   N12  Dn1
 BYTE   W24
// 009   ----------------------------------------
 BYTE   W24
 BYTE   N11  Gn0
 BYTE   W48
 BYTE   N14  Dn1
 BYTE   W24
// 010   ----------------------------------------
 BYTE   W24
 BYTE   N13  Cn1
 BYTE   W48
 BYTE   Gn0  v108
 BYTE   W24
// 011   ----------------------------------------
 BYTE   W24
 BYTE   N12  Cn1
 BYTE   W24
 BYTE   N10  Cn1  v112
 BYTE   W24
 BYTE   N11  Dn1  v108
 BYTE   W24
// 012   ----------------------------------------
 BYTE   N12  En1  v100
 BYTE   W24
 BYTE   N10  Fn1  v112
 BYTE   W24
 BYTE   N09  Fn1  v116
 BYTE   W16
 BYTE   N02  Fn0  v120
 BYTE   W08
 BYTE   N12  Fs1  v124
 BYTE   W24
// 013   ----------------------------------------
 BYTE   N11  Fs1  v116
 BYTE   W16
 BYTE   N03  Fs0  v127
 BYTE   W08
 BYTE   N07  Gn1  v100
 BYTE   W24
 BYTE   Gn1  v112
 BYTE   W16
 BYTE   N03  Gn0  v124
 BYTE   W08
 BYTE   N11  An1  v112
 BYTE   W24
// 014   ----------------------------------------
 BYTE   N10
 BYTE   W24
 BYTE   N12  Dn1
 BYTE   W24
 BYTE   N08  Dn1  v120
 BYTE   W24
 BYTE   N10  Gn0  v112
 BYTE   W24
// 015   ----------------------------------------
 BYTE   N13  Gn0  v108
 BYTE   W24
 BYTE   N10  Cn1  v112
 BYTE   W24
 BYTE   N09  Gn0
 BYTE   W24
 BYTE   N11  Cn2
 BYTE   W24
// 016   ----------------------------------------
 BYTE   W24
 BYTE   N12  Gn0  v108
 BYTE   W48
 BYTE   N08  Dn1  v112
 BYTE   W24
// 017   ----------------------------------------
 BYTE   W24
 BYTE   N10  Gn0  v108
 BYTE   W24
 BYTE   N11
 BYTE   W24
 BYTE   N10  An0
 BYTE   W24
// 018   ----------------------------------------
 BYTE   N09  Bn0
 BYTE   W24
 BYTE   Cn1  v116
 BYTE   W48
 BYTE   N06  Gn1  v124
 BYTE   W24
// 019   ----------------------------------------
 BYTE   W24
 BYTE   Cn2  v112
 BYTE   W72
// 020   ----------------------------------------
 BYTE   W24
 BYTE   GoTo
  POIN2 Label_1_019080C6
 BYTE   FINE

//**************** Track 3 (Midi-Chn.2) ****************//

EarthboundBuySomethinWillYaDolkar_003:
// 000   ----------------------------------------
 BYTE   KEYSH   EarthboundBuySomethinWillYaDolkar_key+0
Label_2_019081AA:
 BYTE   W18
 BYTE   VOICE   127
 BYTE   VOL   46*EarthboundBuySomethinWillYaDolkar_mvl/mxv
 BYTE   PAN   c_v+32
 BYTE   BEND   c_v-16
 BYTE   W30
 BYTE   N07  Gs3  v120
 BYTE   W16
 BYTE   N06  Gs3  v127
 BYTE   W32
// 001   ----------------------------------------
Label_2_019081BC:
 BYTE   W36
 BYTE   N03  Gs3  v120
 BYTE   W04
 BYTE   Gs3  v100
 BYTE   W04
 BYTE   Gs3  v092
 BYTE   W04
 BYTE   N04  Gs3  v120
 BYTE   W16
 BYTE   Gs3  v127
 BYTE   W32
 BYTE   PEND 
// 002   ----------------------------------------
Label_2_019081CF:
 BYTE   W48
 BYTE   N07  Gs3  v120
 BYTE   W16
 BYTE   N06  Gs3  v127
 BYTE   W32
 BYTE   PEND 
 BYTE   PATT
  POIN2 Label_2_019081BC
 BYTE   PATT
  POIN2 Label_2_019081CF
 BYTE   PATT
  POIN2 Label_2_019081BC
// 003   ----------------------------------------
 BYTE   W24
 BYTE   N07  Gs3  v120
 BYTE   W72
// 004   ----------------------------------------
 BYTE   W96
 BYTE   PATT
  POIN2 Label_2_019081CF
 BYTE   PATT
  POIN2 Label_2_019081BC
 BYTE   PATT
  POIN2 Label_2_019081CF
 BYTE   PATT
  POIN2 Label_2_019081BC
// 005   ----------------------------------------
 BYTE   W24
 BYTE   N09  Gs3  v120
 BYTE   W24
 BYTE   N07
 BYTE   W16
 BYTE   N06  Gs3  v127
 BYTE   W08
 BYTE   N09  Gs3  v120
 BYTE   W24
// 006   ----------------------------------------
 BYTE   N07
 BYTE   W16
 BYTE   N06  Gs3  v127
 BYTE   W08
 BYTE   N07  Gs3  v120
 BYTE   W12
 BYTE   N03
 BYTE   W04
 BYTE   Gs3  v100
 BYTE   W04
 BYTE   Gs3  v092
 BYTE   W04
 BYTE   N06  Gs3  v120
 BYTE   W16
 BYTE   N04  Gs3  v127
 BYTE   W08
 BYTE   N07  Gs3  v120
 BYTE   W24
// 007   ----------------------------------------
 BYTE   N07
 BYTE   W48
 BYTE   N07
 BYTE   W16
 BYTE   N06  Gs3  v127
 BYTE   W32
// 008   ----------------------------------------
 BYTE   W24
 BYTE   N05  Gs3  v120
 BYTE   W24
 BYTE   N04
 BYTE   W48
 BYTE   PATT
  POIN2 Label_2_019081CF
 BYTE   PATT
  POIN2 Label_2_019081BC
 BYTE   PATT
  POIN2 Label_2_019081CF
// 009   ----------------------------------------
 BYTE   W48
 BYTE   N14  Gs3  v120
 BYTE   W16
 BYTE   Gs3  v127
 BYTE   W32
// 010   ----------------------------------------
 BYTE   W24
 BYTE   GoTo
  POIN2 Label_2_019081AA
 BYTE   FINE

//**************** Track 4 (Midi-Chn.3) ****************//

EarthboundBuySomethinWillYaDolkar_004:
// 000   ----------------------------------------
 BYTE   KEYSH   EarthboundBuySomethinWillYaDolkar_key+0
Label_3_0190825E:
 BYTE   W24
 BYTE   VOICE   127
 BYTE   VOL   45*EarthboundBuySomethinWillYaDolkar_mvl/mxv
 BYTE   PAN   c_v+0
 BYTE   BEND   c_v-64
 BYTE   W72
// 001   ----------------------------------------
 BYTE   N05  Ds4  v127
 BYTE   W96
// 002   ----------------------------------------
 BYTE   N05
 BYTE   W96
// 003   ----------------------------------------
 BYTE   N05
 BYTE   W96
// 004   ----------------------------------------
 BYTE   N05
 BYTE   W96
// 005   ----------------------------------------
 BYTE   N05
 BYTE   W96
// 006   ----------------------------------------
 BYTE   N05
 BYTE   W96
// 007   ----------------------------------------
 BYTE   W96
// 008   ----------------------------------------
 BYTE   W96
// 009   ----------------------------------------
 BYTE   N05
 BYTE   W96
// 010   ----------------------------------------
 BYTE   N05
 BYTE   W96
// 011   ----------------------------------------
 BYTE   N05
 BYTE   W96
// 012   ----------------------------------------
 BYTE   N05
 BYTE   W96
// 013   ----------------------------------------
 BYTE   W96
// 014   ----------------------------------------
 BYTE   W96
// 015   ----------------------------------------
 BYTE   N05
 BYTE   W72
 BYTE   N05
 BYTE   W24
// 016   ----------------------------------------
 BYTE   W96
// 017   ----------------------------------------
 BYTE   N05
 BYTE   W96
// 018   ----------------------------------------
 BYTE   N05
 BYTE   W96
// 019   ----------------------------------------
 BYTE   N05
 BYTE   W96
// 020   ----------------------------------------
 BYTE   N05
 BYTE   W24
 BYTE   GoTo
  POIN2 Label_3_0190825E
// 021   ----------------------------------------
 BYTE   VOICE   127
 BYTE   VOL   45*EarthboundBuySomethinWillYaDolkar_mvl/mxv
 BYTE   PAN   c_v+0
 BYTE   BEND   c_v-64
 BYTE   FINE

//**************** Track 5 (Midi-Chn.4) ****************//

EarthboundBuySomethinWillYaDolkar_005:
// 000   ----------------------------------------
 BYTE   KEYSH   EarthboundBuySomethinWillYaDolkar_key+0
Label_4_019082A2:
 BYTE   W32
 BYTE   VOICE   105
 BYTE   VOL   26*EarthboundBuySomethinWillYaDolkar_mvl/mxv
 BYTE   PAN   c_v-64
 BYTE   N12  As2  v112
 BYTE   W16
 BYTE   N05  Bn2  v100
 BYTE   W08
 BYTE   N12  Gn3  v112
 BYTE   W16
 BYTE   N05  As2  v124
 BYTE   W08
 BYTE   N12  Bn2  v112
 BYTE   W16
// 001   ----------------------------------------
 BYTE   N05  Gn3  v120
 BYTE   W08
 BYTE   N11  As2  v112
 BYTE   W16
 BYTE   N05  Bn2  v100
 BYTE   W08
 BYTE   N12  Gn3  v112
 BYTE   W16
 BYTE   N05  As2  v124
 BYTE   W08
 BYTE   N12  Bn2  v112
 BYTE   W16
 BYTE   N07  Gn3  v120
 BYTE   W08
 BYTE   N15  Fn3  v112
 BYTE   W16
// 002   ----------------------------------------
 BYTE   N07  En3  v100
 BYTE   W08
 BYTE   N15  Ds3  v112
 BYTE   W16
 BYTE   N07  Dn3  v100
 BYTE   W08
 BYTE   N15  Cn3  v112
 BYTE   W24
 BYTE   N15
 BYTE   W16
 BYTE   N07  Dn3  v120
 BYTE   W08
 BYTE   N15  Ds3  v112
 BYTE   W16
// 003   ----------------------------------------
 BYTE   N07  En3  v100
 BYTE   W08
 BYTE   N17  Cn4  v112
 BYTE   W24
 BYTE   As3
 BYTE   W24
 BYTE   An3
 BYTE   W24
 BYTE   N15  Ds3
 BYTE   W16
// 004   ----------------------------------------
 BYTE   N07  En3  v120
 BYTE   W08
 BYTE   N23  Cn3  v112
 BYTE   W40
 BYTE   N07  Bn3  v124
 BYTE   W08
 BYTE   N15  As3  v112
 BYTE   W16
 BYTE   N07  Bn3  v120
 BYTE   W08
 BYTE   N13  An3  v112
 BYTE   W16
// 005   ----------------------------------------
 BYTE   N12  Gn3  v100
 BYTE   W24
 BYTE   N07  Bn3  v124
 BYTE   W08
 BYTE   N15  As3  v112
 BYTE   W16
 BYTE   N07  Bn3  v120
 BYTE   W08
 BYTE   N13  An3  v112
 BYTE   W16
 BYTE   N11  Gn3  v100
 BYTE   W24
// 006   ----------------------------------------
 BYTE   N07  An3  v124
 BYTE   W08
 BYTE   N13  Gn3  v112
 BYTE   W16
 BYTE   N07  An3  v120
 BYTE   W07
 BYTE   VOL   34*EarthboundBuySomethinWillYaDolkar_mvl/mxv
 BYTE   W01
 BYTE   N15  Bn3  v112
 BYTE   W24
 BYTE   Cn4
 BYTE   W24
 BYTE   Fs3
 BYTE   W16
// 007   ----------------------------------------
 BYTE   W08
 BYTE   Gn3
 BYTE   W24
 BYTE   N14  Ds3
 BYTE   W16
 BYTE   N07  En3  v100
 BYTE   W08
 BYTE   N14  Ds3  v112
 BYTE   W16
 BYTE   N07  En3  v100
 BYTE   W08
 BYTE   N15  Bn2  v112
 BYTE   W16
// 008   ----------------------------------------
 BYTE   W08
 BYTE   Cn3
 BYTE   W23
 BYTE   VOL   26*EarthboundBuySomethinWillYaDolkar_mvl/mxv
 BYTE   W01
 BYTE   N15  Gn2
 BYTE   W16
 BYTE   N07  Fs2  v100
 BYTE   W08
 BYTE   N15  As2  v112
 BYTE   W16
 BYTE   N07  Bn2  v124
 BYTE   W08
 BYTE   N15  Dn3  v112
 BYTE   W16
// 009   ----------------------------------------
 BYTE   N07  Bn2  v120
 BYTE   W08
 BYTE   N15  Gn3  v112
 BYTE   W24
 BYTE   Fn3
 BYTE   W24
 BYTE   En3
 BYTE   W24
 BYTE   N14  Dn3
 BYTE   W16
// 010   ----------------------------------------
 BYTE   N07  Ds3  v100
 BYTE   W08
 BYTE   N14  En3  v112
 BYTE   W16
 BYTE   N07  Gn2  v100
 BYTE   W08
 BYTE   N15  Cn3  v112
 BYTE   W24
 BYTE   N15
 BYTE   W16
 BYTE   N07  Dn3  v124
 BYTE   W08
 BYTE   N15  Ds3  v112
 BYTE   W16
// 011   ----------------------------------------
 BYTE   N07  En3  v124
 BYTE   W08
 BYTE   N15  Cn4  v112
 BYTE   W24
 BYTE   As3
 BYTE   W24
 BYTE   An3
 BYTE   W24
 BYTE   Gn3
 BYTE   W16
// 012   ----------------------------------------
 BYTE   W08
 BYTE   En3
 BYTE   W24
 BYTE   An3
 BYTE   W24
 BYTE   N15
 BYTE   W24
 BYTE   Bn3
 BYTE   W16
// 013   ----------------------------------------
 BYTE   W08
 BYTE   An3
 BYTE   W24
 BYTE   N14  Gn3
 BYTE   W16
 BYTE   N07  Fs3  v100
 BYTE   W08
 BYTE   N14  Gn3  v112
 BYTE   W16
 BYTE   N23  An3  v100
 BYTE   W24
// 014   ----------------------------------------
 BYTE   N07  Gn3
 BYTE   W08
 BYTE   N14  En3  v112
 BYTE   W24
 BYTE   N15  Dn3
 BYTE   W24
 BYTE   N15
 BYTE   W24
 BYTE   N14  Gn3
 BYTE   W16
// 015   ----------------------------------------
 BYTE   N07  Ds3  v100
 BYTE   W08
 BYTE   N14  Dn3  v112
 BYTE   W24
 BYTE   N15  Cn3
 BYTE   W24
 BYTE   Gn2
 BYTE   W24
 BYTE   Cn3
 BYTE   W16
// 016   ----------------------------------------
 BYTE   W96
// 017   ----------------------------------------
 BYTE   W96
// 018   ----------------------------------------
 BYTE   W96
// 019   ----------------------------------------
 BYTE   W96
// 020   ----------------------------------------
 BYTE   W24
 BYTE   GoTo
  POIN2 Label_4_019082A2
 BYTE   FINE

//**************** Track 6 (Midi-Chn.5) ****************//

EarthboundBuySomethinWillYaDolkar_006:
// 000   ----------------------------------------
 BYTE   KEYSH   EarthboundBuySomethinWillYaDolkar_key+0
Label_5_019083FA:
 BYTE   W40
 BYTE   VOICE   105
 BYTE   VOL   19*EarthboundBuySomethinWillYaDolkar_mvl/mxv
 BYTE   PAN   c_v-64
 BYTE   N12  As2  v112
 BYTE   W16
 BYTE   N05  Bn2  v100
 BYTE   W08
 BYTE   N12  Gn3  v112
 BYTE   W16
 BYTE   N05  As2  v124
 BYTE   W08
 BYTE   N12  Bn2  v112
 BYTE   W08
// 001   ----------------------------------------
 BYTE   W08
 BYTE   N05  Gn3  v120
 BYTE   W08
 BYTE   N11  As2  v112
 BYTE   W16
 BYTE   N05  Bn2  v100
 BYTE   W08
 BYTE   N12  Gn3  v112
 BYTE   W16
 BYTE   N05  As2  v124
 BYTE   W08
 BYTE   N12  Bn2  v112
 BYTE   W16
 BYTE   N07  Gn3  v120
 BYTE   W08
 BYTE   N15  Fn3  v112
 BYTE   W08
// 002   ----------------------------------------
 BYTE   W08
 BYTE   N07  En3  v100
 BYTE   W08
 BYTE   N15  Ds3  v112
 BYTE   W16
 BYTE   N07  Dn3  v100
 BYTE   W08
 BYTE   N15  Cn3  v112
 BYTE   W24
 BYTE   N15
 BYTE   W16
 BYTE   N07  Dn3  v120
 BYTE   W08
 BYTE   N15  Ds3  v112
 BYTE   W08
// 003   ----------------------------------------
 BYTE   W08
 BYTE   N07  En3  v100
 BYTE   W08
 BYTE   N17  Cn4  v112
 BYTE   W24
 BYTE   As3
 BYTE   W24
 BYTE   An3
 BYTE   W24
 BYTE   N15  Ds3
 BYTE   W08
// 004   ----------------------------------------
 BYTE   W08
 BYTE   N07  En3  v120
 BYTE   W08
 BYTE   N23  Cn3  v112
 BYTE   W40
 BYTE   N07  Bn3  v124
 BYTE   W08
 BYTE   N15  As3  v112
 BYTE   W16
 BYTE   N07  Bn3  v120
 BYTE   W08
 BYTE   N13  An3  v112
 BYTE   W08
// 005   ----------------------------------------
 BYTE   W08
 BYTE   N12  Gn3  v100
 BYTE   W24
 BYTE   N07  Bn3  v124
 BYTE   W08
 BYTE   N15  As3  v112
 BYTE   W16
 BYTE   N07  Bn3  v120
 BYTE   W08
 BYTE   N13  An3  v112
 BYTE   W16
 BYTE   N11  Gn3  v100
 BYTE   W16
// 006   ----------------------------------------
 BYTE   W08
 BYTE   N07  An3  v124
 BYTE   W08
 BYTE   N13  Gn3  v112
 BYTE   W16
 BYTE   N07  An3  v120
 BYTE   W07
 BYTE   VOL   27*EarthboundBuySomethinWillYaDolkar_mvl/mxv
 BYTE   W01
 BYTE   N15  Bn3  v112
 BYTE   W24
 BYTE   Cn4
 BYTE   W24
 BYTE   Fs3
 BYTE   W08
// 007   ----------------------------------------
 BYTE   W16
 BYTE   Gn3
 BYTE   W24
 BYTE   N14  Ds3
 BYTE   W16
 BYTE   N07  En3  v100
 BYTE   W08
 BYTE   N14  Ds3  v112
 BYTE   W16
 BYTE   N07  En3  v100
 BYTE   W08
 BYTE   N15  Bn2  v112
 BYTE   W08
// 008   ----------------------------------------
 BYTE   W16
 BYTE   Cn3
 BYTE   W23
 BYTE   VOL   19*EarthboundBuySomethinWillYaDolkar_mvl/mxv
 BYTE   W01
 BYTE   N15  Gn2
 BYTE   W16
 BYTE   N07  Fs2  v100
 BYTE   W08
 BYTE   N15  As2  v112
 BYTE   W16
 BYTE   N07  Bn2  v124
 BYTE   W08
 BYTE   N15  Dn3  v112
 BYTE   W08
// 009   ----------------------------------------
 BYTE   W08
 BYTE   N07  Bn2  v120
 BYTE   W08
 BYTE   N15  Gn3  v112
 BYTE   W24
 BYTE   Fn3
 BYTE   W24
 BYTE   En3
 BYTE   W24
 BYTE   N14  Dn3
 BYTE   W08
// 010   ----------------------------------------
 BYTE   W08
 BYTE   N07  Ds3  v100
 BYTE   W08
 BYTE   N14  En3  v112
 BYTE   W16
 BYTE   N07  Gn2  v100
 BYTE   W08
 BYTE   N15  Cn3  v112
 BYTE   W24
 BYTE   N15
 BYTE   W16
 BYTE   N07  Dn3  v124
 BYTE   W08
 BYTE   N15  Ds3  v112
 BYTE   W08
// 011   ----------------------------------------
 BYTE   W08
 BYTE   N07  En3  v124
 BYTE   W08
 BYTE   N15  Cn4  v112
 BYTE   W24
 BYTE   As3
 BYTE   W24
 BYTE   An3
 BYTE   W24
 BYTE   Gn3
 BYTE   W08
// 012   ----------------------------------------
 BYTE   W16
 BYTE   En3
 BYTE   W24
 BYTE   An3
 BYTE   W24
 BYTE   N15
 BYTE   W24
 BYTE   Bn3
 BYTE   W08
// 013   ----------------------------------------
 BYTE   W16
 BYTE   An3
 BYTE   W24
 BYTE   N14  Gn3
 BYTE   W16
 BYTE   N07  Fs3  v100
 BYTE   W08
 BYTE   N14  Gn3  v112
 BYTE   W16
 BYTE   N23  An3  v100
 BYTE   W16
// 014   ----------------------------------------
 BYTE   W08
 BYTE   N07  Gn3
 BYTE   W08
 BYTE   N14  En3  v112
 BYTE   W24
 BYTE   N15  Dn3
 BYTE   W24
 BYTE   N15
 BYTE   W24
 BYTE   N14  Gn3
 BYTE   W08
// 015   ----------------------------------------
 BYTE   W08
 BYTE   N07  Ds3  v100
 BYTE   W08
 BYTE   N14  Dn3  v112
 BYTE   W24
 BYTE   N15  Cn3
 BYTE   W24
 BYTE   Gn2
 BYTE   W24
 BYTE   Cn3
 BYTE   W08
// 016   ----------------------------------------
 BYTE   W96
// 017   ----------------------------------------
 BYTE   W96
// 018   ----------------------------------------
 BYTE   W96
// 019   ----------------------------------------
 BYTE   W96
// 020   ----------------------------------------
 BYTE   W24
 BYTE   GoTo
  POIN2 Label_5_019083FA
 BYTE   FINE

//******************************************************//
	ALIGN 4

EarthboundBuySomethinWillYaDolkar:
	BYTE	6	// NumTrks
	BYTE	0	// NumBlks
	BYTE	EarthboundBuySomethinWillYaDolkar_pri	// Priority
	BYTE	EarthboundBuySomethinWillYaDolkar_rev	// Reverb.
    
	POIN2	EarthboundBuySomethinWillYaDolkar_grp
    
	POIN2	EarthboundBuySomethinWillYaDolkar_001
	POIN2	EarthboundBuySomethinWillYaDolkar_002
	POIN2	EarthboundBuySomethinWillYaDolkar_003
	POIN2	EarthboundBuySomethinWillYaDolkar_004
	POIN2	EarthboundBuySomethinWillYaDolkar_005
	POIN2	EarthboundBuySomethinWillYaDolkar_006

	
