//Event file generated from Sappy .s format.
	#include "MPlayDef.event"

	#define	EarthboundGiygas1AReliableChair_grp  voicegroup000
	#define	EarthboundGiygas1AReliableChair_pri  0
	#define	EarthboundGiygas1AReliableChair_rev  0
	#define	EarthboundGiygas1AReliableChair_mvl  127
	#define	EarthboundGiygas1AReliableChair_key  0
	#define	EarthboundGiygas1AReliableChair_tbs  1
	#define	EarthboundGiygas1AReliableChair_exg  0
	#define	EarthboundGiygas1AReliableChair_cmp  1

	// .rodata
	//	EarthboundGiygas1AReliableChair
	ALIGN 4


//**************** Track 1 (Midi-Chn.0) ****************//

EarthboundGiygas1AReliableChair_001:
// 000   ----------------------------------------
 BYTE   KEYSH   EarthboundGiygas1AReliableChair_key+0
Label_0_011EE11E:
 BYTE   TEMPO   122*EarthboundGiygas1AReliableChair_tbs/2
 BYTE   VOICE   80
 BYTE   MODT 0
 BYTE   CnM2
 BYTE   LFOS 0
 BYTE   Gs1
 BYTE   VOL   53*EarthboundGiygas1AReliableChair_mvl/mxv
 BYTE   N28  En3  v080
 BYTE   N28  An3
 BYTE   W32
 BYTE   W02
 BYTE   N48  Fn3
 BYTE   N48  As3
 BYTE   W60
 BYTE   N30  En3
 BYTE   N30  An3
 BYTE   W02
// 001   ----------------------------------------
 BYTE   W32
 BYTE   W02
 BYTE   N48  Gn3
 BYTE   N48  Cn4
 BYTE   W60
 BYTE   N30  En3
 BYTE   N30  An3
 BYTE   W02
// 002   ----------------------------------------
 BYTE   W32
 BYTE   W02
 BYTE   N48  Fn3
 BYTE   N48  As3
 BYTE   W60
 BYTE   N30  En3
 BYTE   N30  An3
 BYTE   W02
// 003   ----------------------------------------
 BYTE   W32
 BYTE   W02
 BYTE   N48  Gn3
 BYTE   N48  Cn4
 BYTE   W60
 BYTE   N06  An3
 BYTE   N06  Dn4
 BYTE   N06  Fn4
 BYTE   W02
// 004   ----------------------------------------
 BYTE   W04
 BYTE   An3
 BYTE   N06  Dn4
 BYTE   N06  Fn4
 BYTE   W12
 BYTE   An3
 BYTE   N06  Dn4
 BYTE   N06  Fn4
 BYTE   W06
 BYTE   An3
 BYTE   N06  Dn4
 BYTE   N06  Fn4
 BYTE   W12
 BYTE   An3
 BYTE   N06  Dn4
 BYTE   N06  Fn4
 BYTE   W06
 BYTE   An3
 BYTE   N06  Dn4
 BYTE   N06  Fn4
 BYTE   W12
 BYTE   An3
 BYTE   N06  Dn4
 BYTE   N06  Fn4
 BYTE   W06
 BYTE   An3
 BYTE   N06  Dn4
 BYTE   N06  Fn4
 BYTE   W12
 BYTE   An3
 BYTE   N06  Dn4
 BYTE   N06  Fn4
 BYTE   W12
 BYTE   An3
 BYTE   N06  Dn4
 BYTE   N06  Fn4
 BYTE   W12
 BYTE   N12  An2
 BYTE   W02
// 005   ----------------------------------------
 BYTE   W10
 BYTE   Bn2
 BYTE   W12
 BYTE   Cs3
 BYTE   W12
 BYTE   Dn3
 BYTE   W12
 BYTE   En3
 BYTE   W12
 BYTE   Dn3
 BYTE   W12
 BYTE   Cs3
 BYTE   W12
 BYTE   As3
 BYTE   W12
 BYTE   N06  An3
 BYTE   W02
// 006   ----------------------------------------
 BYTE   W04
 BYTE   Gn3
 BYTE   W06
 BYTE   Fn3
 BYTE   W06
 BYTE   Gn3
 BYTE   W06
 BYTE   Fn3
 BYTE   W06
 BYTE   En3
 BYTE   W06
 BYTE   Fn3
 BYTE   W06
 BYTE   En3
 BYTE   W06
 BYTE   Dn3
 BYTE   W06
 BYTE   En3
 BYTE   W06
 BYTE   Dn3
 BYTE   W06
 BYTE   Cs3
 BYTE   W06
 BYTE   Dn3
 BYTE   W06
 BYTE   An2
 BYTE   W06
 BYTE   Cs3
 BYTE   W06
 BYTE   En3
 BYTE   W06
 BYTE   N24  Fn2
 BYTE   N24  Dn3
 BYTE   W02
// 007   ----------------------------------------
Label_0_011EE1CF:
 BYTE   W22
 BYTE   N18  An2  v080
 BYTE   N18  Fn3
 BYTE   W18
 BYTE   N06  Fn2
 BYTE   N06  Dn3
 BYTE   W06
 BYTE   N48
 BYTE   N48  An3
 BYTE   W48
 BYTE   N24  Fn2
 BYTE   N24  Dn3
 BYTE   W02
 BYTE   PEND 
// 008   ----------------------------------------
Label_0_011EE1E5:
 BYTE   W22
 BYTE   N18  An2  v080
 BYTE   N18  Fn3
 BYTE   W18
 BYTE   N06  Fn2
 BYTE   N06  Dn3
 BYTE   W06
 BYTE   N48  En3
 BYTE   N48  As3
 BYTE   W48
 BYTE   N24  Gn2
 BYTE   N24  En3
 BYTE   W02
 BYTE   PEND 
// 009   ----------------------------------------
Label_0_011EE1FC:
 BYTE   W22
 BYTE   N18  As2  v080
 BYTE   N18  Gn3
 BYTE   W18
 BYTE   N06  Gn2
 BYTE   N06  En3
 BYTE   W06
 BYTE   N24
 BYTE   N24  Cs4
 BYTE   W24
 BYTE   Gn3
 BYTE   N24  En4
 BYTE   W24
 BYTE   N48  Dn4
 BYTE   W02
 BYTE   PEND 
// 010   ----------------------------------------
 BYTE   W44
 BYTE   W02
 BYTE   Cs4
 BYTE   W48
 BYTE   N24  Fn2
 BYTE   N24  Dn3
 BYTE   W02
 BYTE   PATT
  POIN2 Label_0_011EE1CF
 BYTE   PATT
  POIN2 Label_0_011EE1E5
 BYTE   PATT
  POIN2 Label_0_011EE1FC
// 011   ----------------------------------------
 BYTE   W44
 BYTE   W02
 BYTE   N48  Cs4  v080
 BYTE   W48
 BYTE   N06  Fn4
 BYTE   W02
// 012   ----------------------------------------
 BYTE   W04
 BYTE   Dn4
 BYTE   W06
 BYTE   An3
 BYTE   W06
 BYTE   Fn4
 BYTE   W06
 BYTE   Dn4
 BYTE   W06
 BYTE   An3
 BYTE   W06
 BYTE   Fn4
 BYTE   W06
 BYTE   Dn4
 BYTE   W06
 BYTE   An3
 BYTE   W06
 BYTE   Fn4
 BYTE   W06
 BYTE   Dn4
 BYTE   W06
 BYTE   An3
 BYTE   W06
 BYTE   Fn4
 BYTE   W06
 BYTE   Dn4
 BYTE   W06
 BYTE   An3
 BYTE   W06
 BYTE   Dn4
 BYTE   W06
 BYTE   En4
 BYTE   W02
// 013   ----------------------------------------
 BYTE   W04
 BYTE   Cs4
 BYTE   W06
 BYTE   An3
 BYTE   W06
 BYTE   En4
 BYTE   W06
 BYTE   Cs4
 BYTE   W06
 BYTE   An3
 BYTE   W06
 BYTE   En4
 BYTE   W06
 BYTE   Cs4
 BYTE   W06
 BYTE   An3
 BYTE   W06
 BYTE   En4
 BYTE   W06
 BYTE   Cs4
 BYTE   W06
 BYTE   An3
 BYTE   W06
 BYTE   En4
 BYTE   W06
 BYTE   Cs4
 BYTE   W06
 BYTE   An3
 BYTE   W06
 BYTE   En4
 BYTE   W06
 BYTE   Dn4
 BYTE   W02
// 014   ----------------------------------------
 BYTE   W04
 BYTE   An3
 BYTE   W06
 BYTE   Fn3
 BYTE   W06
 BYTE   Dn4
 BYTE   W06
 BYTE   An3
 BYTE   W06
 BYTE   Fn3
 BYTE   W06
 BYTE   Dn4
 BYTE   W06
 BYTE   An3
 BYTE   W06
 BYTE   Fn3
 BYTE   W06
 BYTE   Dn4
 BYTE   W06
 BYTE   An3
 BYTE   W06
 BYTE   Fn3
 BYTE   W06
 BYTE   Dn4
 BYTE   W06
 BYTE   An3
 BYTE   W06
 BYTE   Fn3
 BYTE   W06
 BYTE   Dn4
 BYTE   W06
 BYTE   Cs4
 BYTE   W02
// 015   ----------------------------------------
 BYTE   W04
 BYTE   Gn3
 BYTE   W06
 BYTE   En3
 BYTE   W06
 BYTE   Cs4
 BYTE   W06
 BYTE   Gn3
 BYTE   W06
 BYTE   En3
 BYTE   W06
 BYTE   Cs4
 BYTE   W06
 BYTE   Gn3
 BYTE   W06
 BYTE   En3
 BYTE   W06
 BYTE   Cs4
 BYTE   W06
 BYTE   Gn3
 BYTE   W06
 BYTE   En3
 BYTE   W06
 BYTE   Cs4
 BYTE   W06
 BYTE   Gn3
 BYTE   W06
 BYTE   En3
 BYTE   W06
 BYTE   Cs4
 BYTE   W06
 BYTE   Fn3
 BYTE   W02
// 016   ----------------------------------------
 BYTE   W04
 BYTE   Dn3
 BYTE   W06
 BYTE   Fn3
 BYTE   W06
 BYTE   An3
 BYTE   W06
 BYTE   Fn3
 BYTE   W06
 BYTE   Dn3
 BYTE   W06
 BYTE   Fn3
 BYTE   W06
 BYTE   An3
 BYTE   W06
 BYTE   Dn4
 BYTE   W06
 BYTE   An3
 BYTE   W06
 BYTE   Fn3
 BYTE   W06
 BYTE   Dn2
 BYTE   W06
 BYTE   An3
 BYTE   W06
 BYTE   Fn3
 BYTE   W06
 BYTE   Dn3
 BYTE   W06
 BYTE   Fn3
 BYTE   W06
 BYTE   Bn3
 BYTE   W02
// 017   ----------------------------------------
 BYTE   W04
 BYTE   Gn3
 BYTE   W06
 BYTE   Dn3
 BYTE   W06
 BYTE   Gs3
 BYTE   W06
 BYTE   Bn3
 BYTE   W06
 BYTE   Gn3
 BYTE   W06
 BYTE   Dn3
 BYTE   W06
 BYTE   Gs3
 BYTE   W06
 BYTE   Dn4
 BYTE   W06
 BYTE   Bn3
 BYTE   W06
 BYTE   Gs3
 BYTE   W06
 BYTE   En3
 BYTE   W06
 BYTE   Bn3
 BYTE   W06
 BYTE   Gs3
 BYTE   W06
 BYTE   En3
 BYTE   W06
 BYTE   Dn3
 BYTE   W06
 BYTE   Dn4
 BYTE   W02
// 018   ----------------------------------------
 BYTE   W04
 BYTE   Gs3
 BYTE   W06
 BYTE   En3
 BYTE   W06
 BYTE   Dn4
 BYTE   W06
 BYTE   Gs3
 BYTE   W06
 BYTE   En3
 BYTE   W06
 BYTE   Dn4
 BYTE   W06
 BYTE   En3
 BYTE   W06
 BYTE   Dn4
 BYTE   W06
 BYTE   An3
 BYTE   W06
 BYTE   En3
 BYTE   W06
 BYTE   Dn4
 BYTE   W06
 BYTE   An3
 BYTE   W06
 BYTE   En3
 BYTE   W06
 BYTE   Dn4
 BYTE   W06
 BYTE   En3
 BYTE   W06
 BYTE   Cs4
 BYTE   W02
// 019   ----------------------------------------
 BYTE   W04
 BYTE   Gn3
 BYTE   W06
 BYTE   En3
 BYTE   W06
 BYTE   Cs4
 BYTE   W06
 BYTE   Gn3
 BYTE   W06
 BYTE   En3
 BYTE   W06
 BYTE   Cs4
 BYTE   W06
 BYTE   Gn3
 BYTE   W06
 BYTE   En3
 BYTE   W06
 BYTE   Fn3
 BYTE   W06
 BYTE   En3
 BYTE   W06
 BYTE   Dn3
 BYTE   W06
 BYTE   Cs3
 BYTE   W06
 BYTE   Bn2
 BYTE   W06
 BYTE   Cs3
 BYTE   W06
 BYTE   An2
 BYTE   W06
 BYTE   N12
 BYTE   N12  Fn3
 BYTE   W02
// 020   ----------------------------------------
Label_0_011EE33F:
 BYTE   W32
 BYTE   W02
 BYTE   N36  Bn2  v080
 BYTE   N36  Gn3
 BYTE   W36
 BYTE   N12  Cn3
 BYTE   N12  An3
 BYTE   W12
 BYTE   Bn2
 BYTE   N12  Gn3
 BYTE   W12
 BYTE   An2
 BYTE   N12  Fn3
 BYTE   W02
 BYTE   PEND 
// 021   ----------------------------------------
 BYTE   W32
 BYTE   W02
 BYTE   Gn2
 BYTE   N12  En3
 BYTE   W60
 BYTE   An2
 BYTE   N12  Fn3
 BYTE   W02
 BYTE   PATT
  POIN2 Label_0_011EE33F
// 022   ----------------------------------------
 BYTE   W32
 BYTE   W02
 BYTE   N12  Gn2  v080
 BYTE   N12  En3
 BYTE   W56
 BYTE   GoTo
  POIN2 Label_0_011EE11E
// 023   ----------------------------------------
 BYTE   W06
 BYTE   W96
// 024   ----------------------------------------
 BYTE   TEMPO   128*EarthboundGiygas1AReliableChair_tbs/2
 BYTE   W96
// 025   ----------------------------------------
 BYTE   W96
// 026   ----------------------------------------
 BYTE   W96
// 027   ----------------------------------------
 BYTE   W96
// 028   ----------------------------------------
 BYTE   W96
// 029   ----------------------------------------
 BYTE   W96
// 030   ----------------------------------------
 BYTE   W96
// 031   ----------------------------------------
 BYTE   W96
// 032   ----------------------------------------
 BYTE   W96
// 033   ----------------------------------------
 BYTE   W96
// 034   ----------------------------------------
 BYTE   W96
// 035   ----------------------------------------
 BYTE   W96
// 036   ----------------------------------------
 BYTE   W96
// 037   ----------------------------------------
 BYTE   W96
// 038   ----------------------------------------
 BYTE   W96
// 039   ----------------------------------------
 BYTE   W96
// 040   ----------------------------------------
 BYTE   TEMPO   186*EarthboundGiygas1AReliableChair_tbs/2
 BYTE   W96
// 041   ----------------------------------------
Label_0_011EE388:
 BYTE   W24
 BYTE   W02
 BYTE   TEMPO   178*EarthboundGiygas1AReliableChair_tbs/2
 BYTE   W68
 BYTE   W02
 BYTE   PEND 
// 042   ----------------------------------------
 BYTE   TEMPO   188*EarthboundGiygas1AReliableChair_tbs/2
 BYTE   W96
// 043   ----------------------------------------
 BYTE   W48
 BYTE   TEMPO   180*EarthboundGiygas1AReliableChair_tbs/2
 BYTE   W48
// 044   ----------------------------------------
 BYTE   TEMPO   182*EarthboundGiygas1AReliableChair_tbs/2
 BYTE   W96
// 045   ----------------------------------------
 BYTE   W96
// 046   ----------------------------------------
 BYTE   W96
// 047   ----------------------------------------
 BYTE   W96
// 048   ----------------------------------------
 BYTE   W96
// 049   ----------------------------------------
 BYTE   W96
// 050   ----------------------------------------
 BYTE   W96
// 051   ----------------------------------------
 BYTE   W96
// 052   ----------------------------------------
 BYTE   W96
// 053   ----------------------------------------
 BYTE   W96
// 054   ----------------------------------------
 BYTE   W96
// 055   ----------------------------------------
 BYTE   W96
// 056   ----------------------------------------
 BYTE   TEMPO   186*EarthboundGiygas1AReliableChair_tbs/2
 BYTE   W96
 BYTE   PATT
  POIN2 Label_0_011EE388
// 057   ----------------------------------------
 BYTE   TEMPO   188*EarthboundGiygas1AReliableChair_tbs/2
 BYTE   W96
// 058   ----------------------------------------
 BYTE   W48
 BYTE   TEMPO   180*EarthboundGiygas1AReliableChair_tbs/2
 BYTE   W48
// 059   ----------------------------------------
 BYTE   W96
// 060   ----------------------------------------
 BYTE   W96
// 061   ----------------------------------------
 BYTE   TEMPO   104*EarthboundGiygas1AReliableChair_tbs/2
 BYTE   W96
// 062   ----------------------------------------
 BYTE   W96
// 063   ----------------------------------------
 BYTE   W96
// 064   ----------------------------------------
 BYTE   W96
// 065   ----------------------------------------
 BYTE   W96
// 066   ----------------------------------------
 BYTE   W96
// 067   ----------------------------------------
 BYTE   W96
// 068   ----------------------------------------
 BYTE   W96
// 069   ----------------------------------------
 BYTE   W96
// 070   ----------------------------------------
 BYTE   TEMPO   128*EarthboundGiygas1AReliableChair_tbs/2
 BYTE   W96
// 071   ----------------------------------------
 BYTE   W96
// 072   ----------------------------------------
 BYTE   W96
// 073   ----------------------------------------
 BYTE   W96
// 074   ----------------------------------------
 BYTE   W96
// 075   ----------------------------------------
 BYTE   W96
// 076   ----------------------------------------
 BYTE   W96
// 077   ----------------------------------------
 BYTE   W96
// 078   ----------------------------------------
 BYTE   W96
// 079   ----------------------------------------
 BYTE   W96
// 080   ----------------------------------------
 BYTE   W96
// 081   ----------------------------------------
 BYTE   W96
// 082   ----------------------------------------
 BYTE   W96
// 083   ----------------------------------------
 BYTE   W96
// 084   ----------------------------------------
 BYTE   W96
// 085   ----------------------------------------
 BYTE   W96
// 086   ----------------------------------------
 BYTE   TEMPO   186*EarthboundGiygas1AReliableChair_tbs/2
 BYTE   W96
 BYTE   PATT
  POIN2 Label_0_011EE388
// 087   ----------------------------------------
 BYTE   TEMPO   188*EarthboundGiygas1AReliableChair_tbs/2
 BYTE   W96
// 088   ----------------------------------------
 BYTE   W48
 BYTE   TEMPO   180*EarthboundGiygas1AReliableChair_tbs/2
 BYTE   W48
// 089   ----------------------------------------
 BYTE   TEMPO   182*EarthboundGiygas1AReliableChair_tbs/2
 BYTE   W96
// 090   ----------------------------------------
 BYTE   W96
// 091   ----------------------------------------
 BYTE   W96
// 092   ----------------------------------------
 BYTE   W96
// 093   ----------------------------------------
 BYTE   W96
// 094   ----------------------------------------
 BYTE   W96
// 095   ----------------------------------------
 BYTE   W96
// 096   ----------------------------------------
 BYTE   W96
// 097   ----------------------------------------
 BYTE   W96
// 098   ----------------------------------------
 BYTE   W96
// 099   ----------------------------------------
 BYTE   W96
// 100   ----------------------------------------
 BYTE   W96
// 101   ----------------------------------------
 BYTE   TEMPO   186*EarthboundGiygas1AReliableChair_tbs/2
 BYTE   W96
 BYTE   PATT
  POIN2 Label_0_011EE388
// 102   ----------------------------------------
 BYTE   TEMPO   188*EarthboundGiygas1AReliableChair_tbs/2
 BYTE   W96
// 103   ----------------------------------------
 BYTE   W48
 BYTE   TEMPO   180*EarthboundGiygas1AReliableChair_tbs/2
 BYTE   W48
// 104   ----------------------------------------
 BYTE   W96
// 105   ----------------------------------------
 BYTE   W96
// 106   ----------------------------------------
 BYTE   TEMPO   104*EarthboundGiygas1AReliableChair_tbs/2
 BYTE   W96
// 107   ----------------------------------------
 BYTE   W96
// 108   ----------------------------------------
 BYTE   W96
// 109   ----------------------------------------
 BYTE   W96
// 110   ----------------------------------------
 BYTE   W96
// 111   ----------------------------------------
 BYTE   W96
// 112   ----------------------------------------
 BYTE   W96
// 113   ----------------------------------------
 BYTE   W96
// 114   ----------------------------------------
 BYTE   W96
// 115   ----------------------------------------
 BYTE   TEMPO   128*EarthboundGiygas1AReliableChair_tbs/2
 BYTE   W96
// 116   ----------------------------------------
 BYTE   W96
// 117   ----------------------------------------
 BYTE   W96
// 118   ----------------------------------------
 BYTE   W96
// 119   ----------------------------------------
 BYTE   W96
// 120   ----------------------------------------
 BYTE   W96
// 121   ----------------------------------------
 BYTE   W96
// 122   ----------------------------------------
 BYTE   W96
// 123   ----------------------------------------
 BYTE   W96
// 124   ----------------------------------------
 BYTE   W96
// 125   ----------------------------------------
 BYTE   W96
// 126   ----------------------------------------
 BYTE   W96
// 127   ----------------------------------------
 BYTE   W96
// 128   ----------------------------------------
 BYTE   W96
// 129   ----------------------------------------
 BYTE   W96
// 130   ----------------------------------------
 BYTE   W96
// 131   ----------------------------------------
 BYTE   TEMPO   186*EarthboundGiygas1AReliableChair_tbs/2
 BYTE   W96
 BYTE   PATT
  POIN2 Label_0_011EE388
// 132   ----------------------------------------
 BYTE   TEMPO   188*EarthboundGiygas1AReliableChair_tbs/2
 BYTE   W96
// 133   ----------------------------------------
 BYTE   W48
 BYTE   TEMPO   180*EarthboundGiygas1AReliableChair_tbs/2
 BYTE   W48
// 134   ----------------------------------------
 BYTE   TEMPO   182*EarthboundGiygas1AReliableChair_tbs/2
 BYTE   W96
// 135   ----------------------------------------
 BYTE   W96
// 136   ----------------------------------------
 BYTE   W96
// 137   ----------------------------------------
 BYTE   W96
// 138   ----------------------------------------
 BYTE   W96
// 139   ----------------------------------------
 BYTE   W96
// 140   ----------------------------------------
 BYTE   W96
// 141   ----------------------------------------
 BYTE   W96
// 142   ----------------------------------------
 BYTE   W96
// 143   ----------------------------------------
 BYTE   W96
// 144   ----------------------------------------
 BYTE   W96
// 145   ----------------------------------------
 BYTE   W96
// 146   ----------------------------------------
 BYTE   TEMPO   186*EarthboundGiygas1AReliableChair_tbs/2
 BYTE   W96
 BYTE   PATT
  POIN2 Label_0_011EE388
// 147   ----------------------------------------
 BYTE   TEMPO   188*EarthboundGiygas1AReliableChair_tbs/2
 BYTE   W96
// 148   ----------------------------------------
 BYTE   W48
 BYTE   TEMPO   180*EarthboundGiygas1AReliableChair_tbs/2
 BYTE   W48
// 149   ----------------------------------------
 BYTE   W96
// 150   ----------------------------------------
 BYTE   W96
// 151   ----------------------------------------
 BYTE   TEMPO   104*EarthboundGiygas1AReliableChair_tbs/2
 BYTE   FINE

//**************** Track 2 (Midi-Chn.1) ****************//

EarthboundGiygas1AReliableChair_002:
// 000   ----------------------------------------
 BYTE   KEYSH   EarthboundGiygas1AReliableChair_key+0
Label_1_011EE452:
 BYTE   VOICE   80
 BYTE   MODT 0
 BYTE   CnM2
 BYTE   LFOS 0
 BYTE   Gs1
 BYTE   VOL   53*EarthboundGiygas1AReliableChair_mvl/mxv
 BYTE   N10  An1  v060
 BYTE   W10
 BYTE   N12  As1
 BYTE   W12
 BYTE   Bn1
 BYTE   W12
 BYTE   Cn2
 BYTE   W12
 BYTE   Cs2
 BYTE   W12
 BYTE   Cn2
 BYTE   W12
 BYTE   Bn1
 BYTE   W12
 BYTE   As1
 BYTE   W12
 BYTE   An1
 BYTE   W02
// 001   ----------------------------------------
Label_1_011EE46F:
 BYTE   W10
 BYTE   N12  As1  v060
 BYTE   W12
 BYTE   Bn1
 BYTE   W12
 BYTE   Cn2
 BYTE   W12
 BYTE   Cs2
 BYTE   W12
 BYTE   Cn2
 BYTE   W12
 BYTE   Bn1
 BYTE   W12
 BYTE   As1
 BYTE   W12
 BYTE   An1
 BYTE   W02
 BYTE   PEND 
 BYTE   PATT
  POIN2 Label_1_011EE46F
// 002   ----------------------------------------
 BYTE   W10
 BYTE   N12  As1  v060
 BYTE   W12
 BYTE   Bn1
 BYTE   W12
 BYTE   Cn2
 BYTE   W12
 BYTE   Cs2
 BYTE   W12
 BYTE   Cn2
 BYTE   W12
 BYTE   Bn1
 BYTE   W12
 BYTE   As1
 BYTE   W14
// 003   ----------------------------------------
 BYTE   W92
 BYTE   W02
 BYTE   N06  An2
 BYTE   W02
// 004   ----------------------------------------
 BYTE   W04
 BYTE   As2
 BYTE   W06
 BYTE   An2
 BYTE   W06
 BYTE   As2
 BYTE   W06
 BYTE   An2
 BYTE   W06
 BYTE   As2
 BYTE   W06
 BYTE   An2
 BYTE   W06
 BYTE   As2
 BYTE   W06
 BYTE   An2
 BYTE   W06
 BYTE   As2
 BYTE   W06
 BYTE   An2
 BYTE   W06
 BYTE   As2
 BYTE   W06
 BYTE   An2
 BYTE   W06
 BYTE   As2
 BYTE   W06
 BYTE   An2
 BYTE   W06
 BYTE   As2
 BYTE   W06
 BYTE   N24  Gn2
 BYTE   N24  Cs3
 BYTE   W02
// 005   ----------------------------------------
 BYTE   W22
 BYTE   N24
 BYTE   N24  Gn3
 BYTE   W24
 BYTE   An2
 BYTE   N24  En3
 BYTE   W24
 BYTE   Fn3
 BYTE   N24  Cs4
 BYTE   W24
 BYTE   N06  Dn2
 BYTE   W02
// 006   ----------------------------------------
Label_1_011EE4D2:
 BYTE   W04
 BYTE   N06  Dn2  v060
 BYTE   W06
 BYTE   An2
 BYTE   W06
 BYTE   N06
 BYTE   W06
 BYTE   Gs2
 BYTE   W06
 BYTE   N06
 BYTE   W06
 BYTE   Gn2
 BYTE   W06
 BYTE   N06
 BYTE   W06
 BYTE   Fs2
 BYTE   W06
 BYTE   N06
 BYTE   W06
 BYTE   Fn2
 BYTE   W06
 BYTE   N06
 BYTE   W06
 BYTE   En2
 BYTE   W06
 BYTE   N06
 BYTE   W06
 BYTE   Ds2
 BYTE   W06
 BYTE   N06
 BYTE   W06
 BYTE   Dn2
 BYTE   W02
 BYTE   PEND 
// 007   ----------------------------------------
Label_1_011EE4F6:
 BYTE   W04
 BYTE   N06  Dn2  v060
 BYTE   W06
 BYTE   Cn3
 BYTE   W06
 BYTE   N06
 BYTE   W06
 BYTE   Bn2
 BYTE   W06
 BYTE   N06
 BYTE   W06
 BYTE   As2
 BYTE   W06
 BYTE   N06
 BYTE   W06
 BYTE   An2
 BYTE   W06
 BYTE   N06
 BYTE   W06
 BYTE   Gs2
 BYTE   W06
 BYTE   N06
 BYTE   W06
 BYTE   Gn2
 BYTE   W06
 BYTE   N06
 BYTE   W06
 BYTE   Fs2
 BYTE   W06
 BYTE   N06
 BYTE   W06
 BYTE   En2
 BYTE   W02
 BYTE   PEND 
// 008   ----------------------------------------
Label_1_011EE51A:
 BYTE   W04
 BYTE   N06  En2  v060
 BYTE   W06
 BYTE   Dn3
 BYTE   W06
 BYTE   N06
 BYTE   W06
 BYTE   Cs3
 BYTE   W06
 BYTE   N06
 BYTE   W06
 BYTE   Cn3
 BYTE   W06
 BYTE   N06
 BYTE   W06
 BYTE   Bn2
 BYTE   W06
 BYTE   N06
 BYTE   W06
 BYTE   As2
 BYTE   W06
 BYTE   N06
 BYTE   W06
 BYTE   An2
 BYTE   W06
 BYTE   N06
 BYTE   W06
 BYTE   Gs2
 BYTE   W06
 BYTE   N06
 BYTE   W06
 BYTE   N12  Fn2
 BYTE   W02
 BYTE   PEND 
// 009   ----------------------------------------
 BYTE   W04
 BYTE   N06  Dn2
 BYTE   W06
 BYTE   N12  Fn3
 BYTE   W06
 BYTE   N06  Cs2
 BYTE   W06
 BYTE   N12  En3
 BYTE   W06
 BYTE   N06  As1
 BYTE   W06
 BYTE   N12  Dn3
 BYTE   W06
 BYTE   N06  An1
 BYTE   W06
 BYTE   N12  Cs3
 BYTE   W06
 BYTE   N06  Gn1
 BYTE   W06
 BYTE   N12  Bn3
 BYTE   W06
 BYTE   N06  Fn1
 BYTE   W06
 BYTE   N12  An3
 BYTE   W06
 BYTE   N06  En1
 BYTE   W06
 BYTE   N12  Gn3
 BYTE   W12
 BYTE   N06  Dn2
 BYTE   W02
 BYTE   PATT
  POIN2 Label_1_011EE4D2
 BYTE   PATT
  POIN2 Label_1_011EE4F6
 BYTE   PATT
  POIN2 Label_1_011EE51A
// 010   ----------------------------------------
 BYTE   W04
 BYTE   N06  Dn2  v060
 BYTE   W06
 BYTE   N12  Fn3
 BYTE   W06
 BYTE   N06  Cs2
 BYTE   W06
 BYTE   N12  En3
 BYTE   W06
 BYTE   N06  As1
 BYTE   W06
 BYTE   N12  Dn3
 BYTE   W06
 BYTE   N06  An1
 BYTE   W06
 BYTE   N12  Cs3
 BYTE   W06
 BYTE   N06  Gn1
 BYTE   W06
 BYTE   N12  Bn3
 BYTE   W06
 BYTE   N06  Fn1
 BYTE   W06
 BYTE   N12  An3
 BYTE   W06
 BYTE   N06  En1
 BYTE   W06
 BYTE   N12  Gn3
 BYTE   W12
 BYTE   N24  Dn2
 BYTE   W02
// 011   ----------------------------------------
Label_1_011EE5AB:
 BYTE   W22
 BYTE   N06  Dn2  v060
 BYTE   N24  An2
 BYTE   W18
 BYTE   N06  Dn2
 BYTE   W06
 BYTE   N24  Dn3
 BYTE   W24
 BYTE   N06  Dn2
 BYTE   N24  An2
 BYTE   W18
 BYTE   N06  Dn2
 BYTE   W06
 BYTE   N24
 BYTE   W02
 BYTE   PEND 
// 012   ----------------------------------------
 BYTE   W22
 BYTE   N06
 BYTE   N24  An2
 BYTE   W18
 BYTE   N06  Dn2
 BYTE   W06
 BYTE   N24  En3
 BYTE   W24
 BYTE   N06  Dn2
 BYTE   N24  An2
 BYTE   W18
 BYTE   N06  Dn2
 BYTE   W06
 BYTE   N24
 BYTE   W02
 BYTE   PATT
  POIN2 Label_1_011EE5AB
// 013   ----------------------------------------
 BYTE   W22
 BYTE   N06  Dn2  v060
 BYTE   N24  An2
 BYTE   W18
 BYTE   N06  Dn2
 BYTE   W06
 BYTE   N24  Cs3
 BYTE   W24
 BYTE   N06  Dn2
 BYTE   N24  An2
 BYTE   W18
 BYTE   N06  Dn2
 BYTE   W06
 BYTE   N96
 BYTE   N96  An2
 BYTE   W02
// 014   ----------------------------------------
 BYTE   W92
 BYTE   W02
 BYTE   Dn2
 BYTE   N96  An2
 BYTE   W02
// 015   ----------------------------------------
 BYTE   W92
 BYTE   W02
 BYTE   Gn2
 BYTE   N96  En3
 BYTE   W02
// 016   ----------------------------------------
 BYTE   W92
 BYTE   W02
 BYTE   An1
 BYTE   N96  En3  v044
 BYTE   W02
// 017   ----------------------------------------
 BYTE   W96
// 018   ----------------------------------------
Label_1_011EE60A:
 BYTE   W10
 BYTE   N06  Dn2  v060
 BYTE   W06
 BYTE   N06
 BYTE   W06
 BYTE   Dn1
 BYTE   W12
 BYTE   Dn2
 BYTE   W06
 BYTE   N06
 BYTE   W06
 BYTE   Dn1
 BYTE   W12
 BYTE   Dn2
 BYTE   W06
 BYTE   N06
 BYTE   W06
 BYTE   Dn1
 BYTE   W12
 BYTE   Dn2
 BYTE   W06
 BYTE   N06
 BYTE   W06
 BYTE   Dn1
 BYTE   W02
 BYTE   PEND 
 BYTE   PATT
  POIN2 Label_1_011EE60A
 BYTE   PATT
  POIN2 Label_1_011EE60A
// 019   ----------------------------------------
 BYTE   W10
 BYTE   N06  Dn2  v060
 BYTE   W06
 BYTE   N06
 BYTE   W06
 BYTE   Dn1
 BYTE   W12
 BYTE   Dn2
 BYTE   W06
 BYTE   N06
 BYTE   W06
 BYTE   Dn1
 BYTE   W12
 BYTE   Dn2
 BYTE   W06
 BYTE   N06
 BYTE   W06
 BYTE   Dn1
 BYTE   W12
 BYTE   Dn2
 BYTE   W06
 BYTE   N06
 BYTE   W02
 BYTE   GoTo
  POIN2 Label_1_011EE452
// 020   ----------------------------------------
 BYTE   W06
 BYTE   W96
// 021   ----------------------------------------
 BYTE   W96
// 022   ----------------------------------------
 BYTE   W96
// 023   ----------------------------------------
 BYTE   W96
// 024   ----------------------------------------
 BYTE   W96
// 025   ----------------------------------------
 BYTE   W96
// 026   ----------------------------------------
 BYTE   W96
// 027   ----------------------------------------
 BYTE   W96
// 028   ----------------------------------------
 BYTE   W96
// 029   ----------------------------------------
 BYTE   W96
// 030   ----------------------------------------
 BYTE   W96
// 031   ----------------------------------------
 BYTE   W96
// 032   ----------------------------------------
 BYTE   W96
// 033   ----------------------------------------
 BYTE   W96
// 034   ----------------------------------------
 BYTE   W96
// 035   ----------------------------------------
 BYTE   W96
// 036   ----------------------------------------
 BYTE   W96
// 037   ----------------------------------------
 BYTE   W96
// 038   ----------------------------------------
 BYTE   W96
// 039   ----------------------------------------
 BYTE   W96
// 040   ----------------------------------------
 BYTE   W96
// 041   ----------------------------------------
 BYTE   W96
// 042   ----------------------------------------
 BYTE   W96
// 043   ----------------------------------------
 BYTE   W96
// 044   ----------------------------------------
 BYTE   W96
// 045   ----------------------------------------
 BYTE   W96
// 046   ----------------------------------------
 BYTE   W96
// 047   ----------------------------------------
 BYTE   W96
// 048   ----------------------------------------
 BYTE   W96
// 049   ----------------------------------------
 BYTE   W96
// 050   ----------------------------------------
 BYTE   W96
// 051   ----------------------------------------
 BYTE   W96
// 052   ----------------------------------------
 BYTE   W96
// 053   ----------------------------------------
 BYTE   W96
// 054   ----------------------------------------
 BYTE   W96
// 055   ----------------------------------------
 BYTE   W96
// 056   ----------------------------------------
 BYTE   W96
// 057   ----------------------------------------
 BYTE   W96
// 058   ----------------------------------------
 BYTE   W96
// 059   ----------------------------------------
 BYTE   W96
// 060   ----------------------------------------
 BYTE   W96
// 061   ----------------------------------------
 BYTE   W96
// 062   ----------------------------------------
 BYTE   W96
// 063   ----------------------------------------
 BYTE   W96
// 064   ----------------------------------------
 BYTE   W96
// 065   ----------------------------------------
 BYTE   W96
// 066   ----------------------------------------
 BYTE   W96
// 067   ----------------------------------------
 BYTE   W96
// 068   ----------------------------------------
 BYTE   W96
// 069   ----------------------------------------
 BYTE   W96
// 070   ----------------------------------------
 BYTE   W96
// 071   ----------------------------------------
 BYTE   W96
// 072   ----------------------------------------
 BYTE   W96
// 073   ----------------------------------------
 BYTE   W96
// 074   ----------------------------------------
 BYTE   W96
// 075   ----------------------------------------
 BYTE   W96
// 076   ----------------------------------------
 BYTE   W96
// 077   ----------------------------------------
 BYTE   W96
// 078   ----------------------------------------
 BYTE   W96
// 079   ----------------------------------------
 BYTE   W96
// 080   ----------------------------------------
 BYTE   W96
// 081   ----------------------------------------
 BYTE   W96
// 082   ----------------------------------------
 BYTE   W96
// 083   ----------------------------------------
 BYTE   W96
// 084   ----------------------------------------
 BYTE   W96
// 085   ----------------------------------------
 BYTE   W96
// 086   ----------------------------------------
 BYTE   W96
// 087   ----------------------------------------
 BYTE   W96
// 088   ----------------------------------------
 BYTE   W96
// 089   ----------------------------------------
 BYTE   W96
// 090   ----------------------------------------
 BYTE   W96
// 091   ----------------------------------------
 BYTE   W96
// 092   ----------------------------------------
 BYTE   W96
// 093   ----------------------------------------
 BYTE   W96
// 094   ----------------------------------------
 BYTE   W96
// 095   ----------------------------------------
 BYTE   W96
// 096   ----------------------------------------
 BYTE   W96
// 097   ----------------------------------------
 BYTE   W96
// 098   ----------------------------------------
 BYTE   W96
// 099   ----------------------------------------
 BYTE   W96
// 100   ----------------------------------------
 BYTE   W96
// 101   ----------------------------------------
 BYTE   W96
// 102   ----------------------------------------
 BYTE   W96
// 103   ----------------------------------------
 BYTE   W96
// 104   ----------------------------------------
 BYTE   W96
// 105   ----------------------------------------
 BYTE   W96
// 106   ----------------------------------------
 BYTE   W96
// 107   ----------------------------------------
 BYTE   W96
// 108   ----------------------------------------
 BYTE   W96
// 109   ----------------------------------------
 BYTE   W96
// 110   ----------------------------------------
 BYTE   W96
// 111   ----------------------------------------
 BYTE   W96
// 112   ----------------------------------------
 BYTE   W96
// 113   ----------------------------------------
 BYTE   W96
// 114   ----------------------------------------
 BYTE   W96
// 115   ----------------------------------------
 BYTE   W96
// 116   ----------------------------------------
 BYTE   W96
// 117   ----------------------------------------
 BYTE   W96
// 118   ----------------------------------------
 BYTE   W96
// 119   ----------------------------------------
 BYTE   W96
// 120   ----------------------------------------
 BYTE   W96
// 121   ----------------------------------------
 BYTE   W96
// 122   ----------------------------------------
 BYTE   W96
// 123   ----------------------------------------
 BYTE   W96
// 124   ----------------------------------------
 BYTE   W96
// 125   ----------------------------------------
 BYTE   W96
// 126   ----------------------------------------
 BYTE   W96
// 127   ----------------------------------------
 BYTE   W96
// 128   ----------------------------------------
 BYTE   W96
// 129   ----------------------------------------
 BYTE   W96
// 130   ----------------------------------------
 BYTE   W96
// 131   ----------------------------------------
 BYTE   W96
// 132   ----------------------------------------
 BYTE   W96
// 133   ----------------------------------------
 BYTE   W96
// 134   ----------------------------------------
 BYTE   W96
// 135   ----------------------------------------
 BYTE   W96
// 136   ----------------------------------------
 BYTE   W96
// 137   ----------------------------------------
 BYTE   W96
// 138   ----------------------------------------
 BYTE   W96
// 139   ----------------------------------------
 BYTE   W96
// 140   ----------------------------------------
 BYTE   W96
// 141   ----------------------------------------
 BYTE   W96
// 142   ----------------------------------------
 BYTE   W96
// 143   ----------------------------------------
 BYTE   W96
// 144   ----------------------------------------
 BYTE   W96
// 145   ----------------------------------------
 BYTE   W96
// 146   ----------------------------------------
 BYTE   W96
// 147   ----------------------------------------
 BYTE   W96
// 148   ----------------------------------------
 BYTE   W96
// 149   ----------------------------------------
 BYTE   W96
// 150   ----------------------------------------
 BYTE   W96
// 151   ----------------------------------------
 BYTE   W96
// 152   ----------------------------------------
 BYTE   W96
 BYTE   FINE

//**************** Track 3 (Midi-Chn.2) ****************//

EarthboundGiygas1AReliableChair_003:
// 000   ----------------------------------------
 BYTE   KEYSH   EarthboundGiygas1AReliableChair_key+0
Label_2_011EE6DA:
 BYTE   VOICE   121
 BYTE   MODT 0
 BYTE   CnM2
 BYTE   LFOS 0
 BYTE   Gs1
 BYTE   VOL   53*EarthboundGiygas1AReliableChair_mvl/mxv
 BYTE   N04  Gs1  v060
 BYTE   W04
 BYTE   N06
 BYTE   W06
 BYTE   N12  Ds1
 BYTE   W12
 BYTE   N06  Gs1
 BYTE   W06
 BYTE   N06
 BYTE   W06
 BYTE   N12  Ds1
 BYTE   W12
 BYTE   N06  Gs1
 BYTE   W06
 BYTE   N06
 BYTE   W06
 BYTE   N12  Ds1
 BYTE   W12
 BYTE   N06  Gs1
 BYTE   W06
 BYTE   N06
 BYTE   W06
 BYTE   N12  Ds1
 BYTE   W12
 BYTE   N06  Gs1
 BYTE   W02
// 001   ----------------------------------------
Label_2_011EE706:
 BYTE   W04
 BYTE   N06  Gs1  v060
 BYTE   W06
 BYTE   N12  Ds1
 BYTE   W12
 BYTE   N06  Gs1
 BYTE   W06
 BYTE   N06
 BYTE   W06
 BYTE   N12  Ds1
 BYTE   W12
 BYTE   N06  Gs1
 BYTE   W06
 BYTE   N06
 BYTE   W06
 BYTE   N12  Ds1
 BYTE   W12
 BYTE   N06  Gs1
 BYTE   W06
 BYTE   N06
 BYTE   W06
 BYTE   N12  Ds1
 BYTE   W12
 BYTE   N06  Gs1
 BYTE   W02
 BYTE   PEND 
 BYTE   PATT
  POIN2 Label_2_011EE706
// 002   ----------------------------------------
 BYTE   W04
 BYTE   N06  Gs1  v060
 BYTE   W06
 BYTE   N12  Ds1
 BYTE   W12
 BYTE   N06  Gs1
 BYTE   W06
 BYTE   N06
 BYTE   W06
 BYTE   N12  Ds1
 BYTE   W12
 BYTE   N06  Gs1
 BYTE   W06
 BYTE   N06
 BYTE   W06
 BYTE   N12  Ds1
 BYTE   W12
 BYTE   N06  Gs1
 BYTE   W06
 BYTE   N06
 BYTE   W06
 BYTE   N12  Ds1
 BYTE   W12
 BYTE   N06
 BYTE   W02
// 003   ----------------------------------------
 BYTE   W04
 BYTE   N06
 BYTE   W12
 BYTE   N06
 BYTE   W06
 BYTE   N06
 BYTE   W12
 BYTE   N06
 BYTE   W06
 BYTE   N06
 BYTE   W12
 BYTE   N06
 BYTE   W06
 BYTE   N06
 BYTE   W12
 BYTE   N06
 BYTE   W12
 BYTE   N06
 BYTE   W12
 BYTE   Gs1
 BYTE   W02
 BYTE   PATT
  POIN2 Label_2_011EE706
 BYTE   PATT
  POIN2 Label_2_011EE706
 BYTE   PATT
  POIN2 Label_2_011EE706
 BYTE   PATT
  POIN2 Label_2_011EE706
 BYTE   PATT
  POIN2 Label_2_011EE706
 BYTE   PATT
  POIN2 Label_2_011EE706
 BYTE   PATT
  POIN2 Label_2_011EE706
 BYTE   PATT
  POIN2 Label_2_011EE706
 BYTE   PATT
  POIN2 Label_2_011EE706
 BYTE   PATT
  POIN2 Label_2_011EE706
 BYTE   PATT
  POIN2 Label_2_011EE706
 BYTE   PATT
  POIN2 Label_2_011EE706
 BYTE   PATT
  POIN2 Label_2_011EE706
 BYTE   PATT
  POIN2 Label_2_011EE706
 BYTE   PATT
  POIN2 Label_2_011EE706
 BYTE   PATT
  POIN2 Label_2_011EE706
 BYTE   PATT
  POIN2 Label_2_011EE706
// 004   ----------------------------------------
 BYTE   W04
 BYTE   N06  Gs1  v060
 BYTE   W06
 BYTE   N12  Ds1
 BYTE   W12
 BYTE   N06  Gs1
 BYTE   W06
 BYTE   N06
 BYTE   W06
 BYTE   N12  Ds1
 BYTE   W12
 BYTE   N06  Gs1
 BYTE   W06
 BYTE   N06
 BYTE   W06
 BYTE   N12  Ds1
 BYTE   W12
 BYTE   N06  Gs1
 BYTE   W06
 BYTE   N06
 BYTE   W06
 BYTE   N12  Ds1
 BYTE   W14
// 005   ----------------------------------------
Label_2_011EE7DB:
 BYTE   W10
 BYTE   N06  Ds1  v060
 BYTE   W06
 BYTE   N06
 BYTE   W06
 BYTE   N06
 BYTE   W12
 BYTE   N06
 BYTE   W06
 BYTE   N06
 BYTE   W06
 BYTE   N06
 BYTE   W12
 BYTE   N06
 BYTE   W06
 BYTE   N06
 BYTE   W06
 BYTE   N06
 BYTE   W12
 BYTE   N06
 BYTE   W06
 BYTE   N06
 BYTE   W06
 BYTE   N06
 BYTE   W02
 BYTE   PEND 
 BYTE   PATT
  POIN2 Label_2_011EE7DB
 BYTE   PATT
  POIN2 Label_2_011EE7DB
// 006   ----------------------------------------
 BYTE   W10
 BYTE   N06  Ds1  v060
 BYTE   W06
 BYTE   N06
 BYTE   W06
 BYTE   N06
 BYTE   W12
 BYTE   N06
 BYTE   W06
 BYTE   N06
 BYTE   W06
 BYTE   N06
 BYTE   W12
 BYTE   N06
 BYTE   W06
 BYTE   N06
 BYTE   W06
 BYTE   N06
 BYTE   W12
 BYTE   N06
 BYTE   W06
 BYTE   N02
 BYTE   W02
 BYTE   GoTo
  POIN2 Label_2_011EE6DA
// 007   ----------------------------------------
 BYTE   W06
 BYTE   W96
// 008   ----------------------------------------
 BYTE   W96
// 009   ----------------------------------------
 BYTE   W96
// 010   ----------------------------------------
 BYTE   W96
// 011   ----------------------------------------
 BYTE   W96
// 012   ----------------------------------------
 BYTE   W96
// 013   ----------------------------------------
 BYTE   W96
// 014   ----------------------------------------
 BYTE   W96
// 015   ----------------------------------------
 BYTE   W96
// 016   ----------------------------------------
 BYTE   W96
// 017   ----------------------------------------
 BYTE   W96
// 018   ----------------------------------------
 BYTE   W96
// 019   ----------------------------------------
 BYTE   W96
// 020   ----------------------------------------
 BYTE   W96
// 021   ----------------------------------------
 BYTE   W96
// 022   ----------------------------------------
 BYTE   W96
// 023   ----------------------------------------
 BYTE   W96
// 024   ----------------------------------------
 BYTE   W96
// 025   ----------------------------------------
 BYTE   W96
// 026   ----------------------------------------
 BYTE   W96
// 027   ----------------------------------------
 BYTE   W96
// 028   ----------------------------------------
 BYTE   W96
// 029   ----------------------------------------
 BYTE   W96
// 030   ----------------------------------------
 BYTE   W96
// 031   ----------------------------------------
 BYTE   W96
// 032   ----------------------------------------
 BYTE   W96
// 033   ----------------------------------------
 BYTE   W96
// 034   ----------------------------------------
 BYTE   W96
// 035   ----------------------------------------
 BYTE   W96
// 036   ----------------------------------------
 BYTE   W96
// 037   ----------------------------------------
 BYTE   W96
// 038   ----------------------------------------
 BYTE   W96
// 039   ----------------------------------------
 BYTE   W96
// 040   ----------------------------------------
 BYTE   W96
// 041   ----------------------------------------
 BYTE   W96
// 042   ----------------------------------------
 BYTE   W96
// 043   ----------------------------------------
 BYTE   W96
// 044   ----------------------------------------
 BYTE   W96
// 045   ----------------------------------------
 BYTE   W96
// 046   ----------------------------------------
 BYTE   W96
// 047   ----------------------------------------
 BYTE   W96
// 048   ----------------------------------------
 BYTE   W96
// 049   ----------------------------------------
 BYTE   W96
// 050   ----------------------------------------
 BYTE   W96
// 051   ----------------------------------------
 BYTE   W96
// 052   ----------------------------------------
 BYTE   W96
// 053   ----------------------------------------
 BYTE   W96
// 054   ----------------------------------------
 BYTE   W96
// 055   ----------------------------------------
 BYTE   W96
// 056   ----------------------------------------
 BYTE   W96
// 057   ----------------------------------------
 BYTE   W96
// 058   ----------------------------------------
 BYTE   W96
// 059   ----------------------------------------
 BYTE   W96
// 060   ----------------------------------------
 BYTE   W96
// 061   ----------------------------------------
 BYTE   W96
// 062   ----------------------------------------
 BYTE   W96
// 063   ----------------------------------------
 BYTE   W96
// 064   ----------------------------------------
 BYTE   W96
// 065   ----------------------------------------
 BYTE   W96
// 066   ----------------------------------------
 BYTE   W96
// 067   ----------------------------------------
 BYTE   W96
// 068   ----------------------------------------
 BYTE   W96
// 069   ----------------------------------------
 BYTE   W96
// 070   ----------------------------------------
 BYTE   W96
// 071   ----------------------------------------
 BYTE   W96
// 072   ----------------------------------------
 BYTE   W96
// 073   ----------------------------------------
 BYTE   W96
// 074   ----------------------------------------
 BYTE   W96
// 075   ----------------------------------------
 BYTE   W96
// 076   ----------------------------------------
 BYTE   W96
// 077   ----------------------------------------
 BYTE   W96
// 078   ----------------------------------------
 BYTE   W96
// 079   ----------------------------------------
 BYTE   W96
// 080   ----------------------------------------
 BYTE   W96
// 081   ----------------------------------------
 BYTE   W96
// 082   ----------------------------------------
 BYTE   W96
// 083   ----------------------------------------
 BYTE   W96
// 084   ----------------------------------------
 BYTE   W96
// 085   ----------------------------------------
 BYTE   W96
// 086   ----------------------------------------
 BYTE   W96
// 087   ----------------------------------------
 BYTE   W96
// 088   ----------------------------------------
 BYTE   W96
// 089   ----------------------------------------
 BYTE   W96
// 090   ----------------------------------------
 BYTE   W96
// 091   ----------------------------------------
 BYTE   W96
// 092   ----------------------------------------
 BYTE   W96
// 093   ----------------------------------------
 BYTE   W96
// 094   ----------------------------------------
 BYTE   W96
// 095   ----------------------------------------
 BYTE   W96
// 096   ----------------------------------------
 BYTE   W96
// 097   ----------------------------------------
 BYTE   W96
// 098   ----------------------------------------
 BYTE   W96
// 099   ----------------------------------------
 BYTE   W96
// 100   ----------------------------------------
 BYTE   W96
// 101   ----------------------------------------
 BYTE   W96
// 102   ----------------------------------------
 BYTE   W96
// 103   ----------------------------------------
 BYTE   W96
// 104   ----------------------------------------
 BYTE   W96
// 105   ----------------------------------------
 BYTE   W96
// 106   ----------------------------------------
 BYTE   W96
// 107   ----------------------------------------
 BYTE   W96
// 108   ----------------------------------------
 BYTE   W96
// 109   ----------------------------------------
 BYTE   W96
// 110   ----------------------------------------
 BYTE   W96
// 111   ----------------------------------------
 BYTE   W96
// 112   ----------------------------------------
 BYTE   W96
// 113   ----------------------------------------
 BYTE   W96
// 114   ----------------------------------------
 BYTE   W96
// 115   ----------------------------------------
 BYTE   W96
// 116   ----------------------------------------
 BYTE   W96
// 117   ----------------------------------------
 BYTE   W96
// 118   ----------------------------------------
 BYTE   W96
// 119   ----------------------------------------
 BYTE   W96
// 120   ----------------------------------------
 BYTE   W96
// 121   ----------------------------------------
 BYTE   W96
// 122   ----------------------------------------
 BYTE   W96
// 123   ----------------------------------------
 BYTE   W96
// 124   ----------------------------------------
 BYTE   W96
// 125   ----------------------------------------
 BYTE   W96
// 126   ----------------------------------------
 BYTE   W96
// 127   ----------------------------------------
 BYTE   W96
// 128   ----------------------------------------
 BYTE   W96
// 129   ----------------------------------------
 BYTE   W96
// 130   ----------------------------------------
 BYTE   W96
// 131   ----------------------------------------
 BYTE   W96
// 132   ----------------------------------------
 BYTE   W96
// 133   ----------------------------------------
 BYTE   W96
// 134   ----------------------------------------
 BYTE   W96
// 135   ----------------------------------------
 BYTE   W96
// 136   ----------------------------------------
 BYTE   W96
// 137   ----------------------------------------
 BYTE   W96
// 138   ----------------------------------------
 BYTE   W96
// 139   ----------------------------------------
 BYTE   W96
 BYTE   FINE

//******************************************************//
	ALIGN 4

EarthboundGiygas1AReliableChair:
	BYTE	3	// NumTrks
	BYTE	0	// NumBlks
	BYTE	EarthboundGiygas1AReliableChair_pri	// Priority
	BYTE	EarthboundGiygas1AReliableChair_rev	// Reverb.
    
	POIN2	EarthboundGiygas1AReliableChair_grp
    
	POIN2	EarthboundGiygas1AReliableChair_001
	POIN2	EarthboundGiygas1AReliableChair_002
	POIN2	EarthboundGiygas1AReliableChair_003

	
