//Event file generated from Sappy .s format.
	#include "MPlayDef.event"

	#define	MegamanBattleNetwork5vsNebulaGrayThegis_grp  voicegroup000
	#define	MegamanBattleNetwork5vsNebulaGrayThegis_pri  0
	#define	MegamanBattleNetwork5vsNebulaGrayThegis_rev  0
	#define	MegamanBattleNetwork5vsNebulaGrayThegis_mvl  127
	#define	MegamanBattleNetwork5vsNebulaGrayThegis_key  0
	#define	MegamanBattleNetwork5vsNebulaGrayThegis_tbs  1
	#define	MegamanBattleNetwork5vsNebulaGrayThegis_exg  0
	#define	MegamanBattleNetwork5vsNebulaGrayThegis_cmp  1

	// .rodata
	//	MegamanBattleNetwork5vsNebulaGrayThegis
	ALIGN 4


//**************** Track 1 (Midi-Chn.0) ****************//

MegamanBattleNetwork5vsNebulaGrayThegis_001:
// 000   ----------------------------------------
 BYTE   KEYSH   MegamanBattleNetwork5vsNebulaGrayThegis_key+0
 BYTE   TEMPO   150*MegamanBattleNetwork5vsNebulaGrayThegis_tbs/2
 BYTE   VOICE   123
 BYTE   PAN   c_v+0
 BYTE   VOL   49*MegamanBattleNetwork5vsNebulaGrayThegis_mvl/mxv
 BYTE   Cs2
 BYTE   PAN   c_v+0
 BYTE   N06  Gs1  v084
 BYTE   W04
 BYTE   W02
 BYTE   Gs1  v076
 BYTE   W06
 BYTE   Gs1  v127
 BYTE   W06
 BYTE   Gs1  v100
 BYTE   W01
 BYTE   W05
 BYTE   Gs1  v084
 BYTE   W02
 BYTE   W04
 BYTE   Gs1  v076
 BYTE   W04
 BYTE   W02
 BYTE   Gs1  v127
 BYTE   W05
 BYTE   W01
 BYTE   Gs1  v100
 BYTE   W06
 BYTE   Gs1  v084
 BYTE   W06
 BYTE   Gs1  v076
 BYTE   W01
 BYTE   W05
 BYTE   Gs1  v127
 BYTE   W03
 BYTE   W03
 BYTE   Gs1  v100
 BYTE   W04
 BYTE   W02
 BYTE   Gs1  v084
 BYTE   W05
 BYTE   W01
 BYTE   Gs1  v076
 BYTE   W06
 BYTE   Gs1  v127
 BYTE   W01
 BYTE   W05
 BYTE   Gs1  v100
 BYTE   W04
 BYTE   W02
// 001   ----------------------------------------
 BYTE   Gs1  v084
 BYTE   W02
 BYTE   W04
 BYTE   Gs1  v076
 BYTE   W04
 BYTE   W02
 BYTE   Gs1  v127
 BYTE   W05
 BYTE   W01
 BYTE   Gs1  v100
 BYTE   W06
 BYTE   Gs1  v084
 BYTE   W06
 BYTE   Gs1  v076
 BYTE   W01
 BYTE   W05
 BYTE   Gs1  v127
 BYTE   W03
 BYTE   W03
 BYTE   Gs1  v100
 BYTE   W04
 BYTE   W02
 BYTE   Gs1  v084
 BYTE   W05
 BYTE   W01
 BYTE   Gs1  v076
 BYTE   W06
 BYTE   Gs1  v127
 BYTE   W01
 BYTE   W05
 BYTE   Gs1  v100
 BYTE   W02
 BYTE   W04
 BYTE   Gs1  v084
 BYTE   W03
 BYTE   W03
 BYTE   Gs1  v076
 BYTE   W06
 BYTE   Gs1  v127
 BYTE   W04
 BYTE   W02
 BYTE   Gs1  v100
 BYTE   W02
 BYTE   W04
// 002   ----------------------------------------
 BYTE   Gs1  v084
 BYTE   W06
 BYTE   Gs1  v076
 BYTE   W02
 BYTE   W04
 BYTE   Gs1  v127
 BYTE   W04
 BYTE   W02
 BYTE   Gs1  v100
 BYTE   W06
 BYTE   Gs1  v084
 BYTE   W01
 BYTE   W05
 BYTE   Gs1  v076
 BYTE   W03
 BYTE   W03
 BYTE   Gs1  v127
 BYTE   W05
 BYTE   W01
 BYTE   Gs1  v100
 BYTE   W06
 BYTE   Gs1  v084
 BYTE   W01
 BYTE   W05
 BYTE   Gs1  v076
 BYTE   W04
 BYTE   W02
 BYTE   Gs1  v127
 BYTE   W06
 BYTE   Gs1  v100
 BYTE   W06
 BYTE   Gs1  v084
 BYTE   W02
 BYTE   W04
 BYTE   Gs1  v076
 BYTE   W04
 BYTE   W02
 BYTE   Gs1  v127
 BYTE   W06
 BYTE   Gs1  v100
 BYTE   W03
 BYTE   W03
// 003   ----------------------------------------
 BYTE   Gs1  v084
 BYTE   W02
 BYTE   W04
 BYTE   Gs1  v076
 BYTE   W04
 BYTE   W02
 BYTE   Gs1  v127
 BYTE   W06
 BYTE   Gs1  v100
 BYTE   W06
 BYTE   Gs1  v084
 BYTE   W02
 BYTE   W04
 BYTE   Gs1  v076
 BYTE   W04
 BYTE   W02
 BYTE   Gs1  v127
 BYTE   W05
 BYTE   W01
 BYTE   Gs1  v100
 BYTE   W06
 BYTE   En1  v072
 BYTE   N06  Gs1  v084
 BYTE   W01
 BYTE   W05
 BYTE   En1  v080
 BYTE   N06  Gs1  v076
 BYTE   W03
 BYTE   W03
 BYTE   En1  v088
 BYTE   N06  Gs1  v127
 BYTE   W05
 BYTE   W01
 BYTE   En1  v096
 BYTE   N06  Gs1  v100
 BYTE   W06
 BYTE   En1
 BYTE   N24  En2  v127
 BYTE   W06
 BYTE   N06  En1  v108
 BYTE   W06
 BYTE   En1  v116
 BYTE   W03
 BYTE   W03
 BYTE   En1  v127
 BYTE   W06
// 004   ----------------------------------------
Label_0_0125CA0B:
 BYTE   N06  Cn1  v127
 BYTE   N06  Cs2
 BYTE   N06  An2
 BYTE   W18
 BYTE   Cn1  v088
 BYTE   W06
 BYTE   Dn1  v127
 BYTE   W06
 BYTE   Gs1  v076
 BYTE   W06
 BYTE   Cn1  v127
 BYTE   N06  Gs1
 BYTE   W06
 BYTE   Gs1  v100
 BYTE   W06
 BYTE   Gs1  v084
 BYTE   W06
 BYTE   Dn1  v068
 BYTE   N06  Gs1  v076
 BYTE   W06
 BYTE   Dn1  v127
 BYTE   N06  Gs1
 BYTE   W06
 BYTE   Gs1  v100
 BYTE   W06
 BYTE   Cn1  v127
 BYTE   N06  Gs1  v084
 BYTE   W06
 BYTE   Gs1  v076
 BYTE   W06
 BYTE   Cn1  v080
 BYTE   N06  Gs1  v127
 BYTE   W06
 BYTE   Gs1  v100
 BYTE   W06
 BYTE   PEND 
// 005   ----------------------------------------
Label_0_0125CA48:
 BYTE   N06  Cn1  v127
 BYTE   N06  Gs1  v084
 BYTE   W06
 BYTE   Gs1  v076
 BYTE   W06
 BYTE   Gs1  v127
 BYTE   W06
 BYTE   Cn1  v088
 BYTE   N06  Gs1  v100
 BYTE   W06
 BYTE   Dn1  v127
 BYTE   N06  Gs1  v084
 BYTE   W06
 BYTE   Gs1  v076
 BYTE   W06
 BYTE   Cn1  v127
 BYTE   N06  Gs1
 BYTE   W06
 BYTE   Gs1  v100
 BYTE   W06
 BYTE   Gs1  v084
 BYTE   W06
 BYTE   Dn1  v068
 BYTE   N06  Gs1  v076
 BYTE   W06
 BYTE   Dn1  v127
 BYTE   N06  Gs1
 BYTE   W06
 BYTE   Gs1  v100
 BYTE   W06
 BYTE   Cn1  v127
 BYTE   N06  Gs1  v084
 BYTE   W06
 BYTE   Dn1  v100
 BYTE   N06  Gs1  v076
 BYTE   W06
 BYTE   Dn1  v127
 BYTE   N06  As1
 BYTE   W06
 BYTE   Cn1  v088
 BYTE   W06
 BYTE   PEND 
// 006   ----------------------------------------
Label_0_0125CA92:
 BYTE   N06  Cn1  v127
 BYTE   N06  Gs1  v084
 BYTE   W06
 BYTE   Gs1  v076
 BYTE   W06
 BYTE   Gs1  v127
 BYTE   W06
 BYTE   Cn1  v088
 BYTE   N06  Gs1  v100
 BYTE   W06
 BYTE   Dn1  v127
 BYTE   N06  Gs1  v084
 BYTE   W06
 BYTE   Gs1  v076
 BYTE   W06
 BYTE   Cn1  v127
 BYTE   N06  Gs1
 BYTE   W06
 BYTE   Gs1  v100
 BYTE   W06
 BYTE   Gs1  v084
 BYTE   W06
 BYTE   Dn1  v068
 BYTE   N06  Gs1  v076
 BYTE   W06
 BYTE   Dn1  v127
 BYTE   N06  Gs1
 BYTE   W06
 BYTE   Gs1  v100
 BYTE   W06
 BYTE   Cn1  v127
 BYTE   N06  Gs1  v084
 BYTE   W06
 BYTE   Gs1  v076
 BYTE   W06
 BYTE   Cn1  v088
 BYTE   N06  Gs1  v127
 BYTE   W06
 BYTE   Gs1  v100
 BYTE   W06
 BYTE   PEND 
// 007   ----------------------------------------
 BYTE   Cn1  v127
 BYTE   N06  Gs1  v084
 BYTE   W06
 BYTE   Gs1  v076
 BYTE   W06
 BYTE   Gs1  v127
 BYTE   W06
 BYTE   Cn1  v088
 BYTE   N06  Gs1  v100
 BYTE   W06
 BYTE   Dn1  v127
 BYTE   N06  Gs1  v084
 BYTE   W06
 BYTE   Gs1  v076
 BYTE   W06
 BYTE   Cn1  v127
 BYTE   N06  Gs1
 BYTE   W06
 BYTE   Gs1  v100
 BYTE   W06
 BYTE   Gs1  v084
 BYTE   W06
 BYTE   Dn1  v068
 BYTE   N06  Gs1  v076
 BYTE   W06
 BYTE   Dn1  v127
 BYTE   N06  Gs1
 BYTE   W06
 BYTE   Gs1  v100
 BYTE   W06
 BYTE   Cn1  v127
 BYTE   N06  Gs1  v084
 BYTE   W06
 BYTE   Dn1  v088
 BYTE   N06  Gs1  v076
 BYTE   W06
 BYTE   Dn1  v104
 BYTE   N06  As1  v127
 BYTE   W06
 BYTE   Dn1
 BYTE   W06
// 008   ----------------------------------------
 BYTE   PATT
  POIN2 Label_0_0125CA0B
// 009   ----------------------------------------
 BYTE   PATT
  POIN2 Label_0_0125CA48
// 010   ----------------------------------------
 BYTE   PATT
  POIN2 Label_0_0125CA92
// 011   ----------------------------------------
 BYTE   N06  Cn1  v127
 BYTE   N06  Gs1
 BYTE   W06
 BYTE   Gs1  v088
 BYTE   W06
 BYTE   Gs1  v076
 BYTE   W06
 BYTE   Cn1  v088
 BYTE   N06  Gs1  v127
 BYTE   W06
 BYTE   Dn1
 BYTE   N06  Gs1  v088
 BYTE   W06
 BYTE   Gs1  v076
 BYTE   W06
 BYTE   Cn1  v127
 BYTE   N06  Gs1
 BYTE   W06
 BYTE   Gs1  v088
 BYTE   W06
 BYTE   Gs1  v127
 BYTE   W06
 BYTE   Dn1  v084
 BYTE   N06  Gs1  v088
 BYTE   W06
 BYTE   Dn1  v108
 BYTE   W06
 BYTE   Dn1  v127
 BYTE   N06  Gs1  v096
 BYTE   W06
 BYTE   Cn1  v127
 BYTE   W06
 BYTE   Dn1  v084
 BYTE   N06  Gs1
 BYTE   W06
 BYTE   Dn1  v108
 BYTE   N06  As1  v127
 BYTE   W06
 BYTE   Dn1
 BYTE   W06
// 012   ----------------------------------------
 BYTE   Cn1
 BYTE   W06
Label_0_0125CB77:
 BYTE   N06  Dn1  v108
 BYTE   N06  Cs2  v127
 BYTE   N06  An2
 BYTE   W06
 BYTE   Cn1  v096
 BYTE   W12
 BYTE   Cn1  v080
 BYTE   N06  Cs2  v127
 BYTE   N06  An2
 BYTE   W06
 BYTE   Dn1  v076
 BYTE   W06
 BYTE   Dn1  v108
 BYTE   W06
 BYTE   Cn1  v127
 BYTE   W04
 BYTE   N01  Bn1  v080
 BYTE   N01  Cn2
 BYTE   W02
 BYTE   N06  As1  v127
 BYTE   N06  Bn1
 BYTE   N06  Cn2
 BYTE   W12
 BYTE   Cn1
 BYTE   N06  Gs1
 BYTE   W04
 BYTE   N01  An1  v080
 BYTE   N01  Bn1
 BYTE   W02
 BYTE   N06  Gs1  v088
 BYTE   N06  An1  v127
 BYTE   N06  Bn1
 BYTE   W06
 BYTE   Gs1  v112
 BYTE   W06
 BYTE   Gs1  v088
 BYTE   W04
 BYTE   N01  Gn1  v080
 BYTE   N01  An1
 BYTE   W02
 BYTE   N06  Gn1  v127
 BYTE   N06  An1
 BYTE   N06  As1
 BYTE   W12
// 013   ----------------------------------------
Label_0_0125CBC9:
 BYTE   N06  Cn1  v127
 BYTE   N06  Cs2
 BYTE   N06  An2
 BYTE   W18
 BYTE   Cn1  v088
 BYTE   W06
 BYTE   Dn1  v127
 BYTE   W06
 BYTE   Gs1  v076
 BYTE   W06
 BYTE   Cn1  v127
 BYTE   N06  Gs1
 BYTE   W06
 BYTE   Gs1  v100
 BYTE   W06
 BYTE   Gs1  v084
 BYTE   W06
 BYTE   Dn1  v068
 BYTE   N06  Gs1  v076
 BYTE   W06
 BYTE   Dn1  v127
 BYTE   N06  As1
 BYTE   W12
 BYTE   Cn1
 BYTE   N06  Gs1  v084
 BYTE   W06
 BYTE   Gs1  v076
 BYTE   W06
 BYTE   Cn1  v080
 BYTE   N06  Gs1  v127
 BYTE   W06
 BYTE   Gs1  v100
 BYTE   W06
 BYTE   PEND 
// 014   ----------------------------------------
Label_0_0125CC02:
 BYTE   N06  Cn1  v127
 BYTE   N06  Gs1  v084
 BYTE   W06
 BYTE   Gs1  v076
 BYTE   W06
 BYTE   Gs1  v127
 BYTE   W06
 BYTE   Cn1  v088
 BYTE   N06  Gs1  v100
 BYTE   W06
 BYTE   Dn1  v127
 BYTE   N06  Gs1  v084
 BYTE   W06
 BYTE   Gs1  v076
 BYTE   W06
 BYTE   Cn1  v127
 BYTE   N06  Gs1
 BYTE   W06
 BYTE   Gs1  v100
 BYTE   W06
 BYTE   Gs1  v084
 BYTE   W06
 BYTE   Dn1  v068
 BYTE   N06  Gs1  v076
 BYTE   W06
 BYTE   Dn1  v127
 BYTE   N06  As1
 BYTE   W12
 BYTE   Cn1
 BYTE   N06  Gs1  v084
 BYTE   W06
 BYTE   Dn1  v100
 BYTE   N06  Gs1  v076
 BYTE   W06
 BYTE   Dn1  v127
 BYTE   N06  As1
 BYTE   W06
 BYTE   Cn1  v088
 BYTE   N06  Gs1  v100
 BYTE   W06
 BYTE   PEND 
// 015   ----------------------------------------
Label_0_0125CC4B:
 BYTE   N06  Cn1  v127
 BYTE   N06  Gs1  v084
 BYTE   W06
 BYTE   Gs1  v076
 BYTE   W06
 BYTE   Gs1  v127
 BYTE   W06
 BYTE   Cn1  v088
 BYTE   N06  Gs1  v100
 BYTE   W06
 BYTE   Dn1  v127
 BYTE   N06  Gs1  v084
 BYTE   W06
 BYTE   Gs1  v076
 BYTE   W06
 BYTE   Cn1  v127
 BYTE   N06  Gs1
 BYTE   W06
 BYTE   Gs1  v100
 BYTE   W06
 BYTE   Gs1  v084
 BYTE   W06
 BYTE   Dn1  v068
 BYTE   N06  Gs1  v076
 BYTE   W06
 BYTE   Dn1  v127
 BYTE   N06  As1
 BYTE   W12
 BYTE   Cn1
 BYTE   N06  Gs1  v084
 BYTE   W06
 BYTE   Gs1  v076
 BYTE   W06
 BYTE   Cn1  v088
 BYTE   N06  Gs1  v127
 BYTE   W06
 BYTE   Gs1  v100
 BYTE   W06
 BYTE   PEND 
// 016   ----------------------------------------
 BYTE   Cn1  v127
 BYTE   N06  Gs1  v084
 BYTE   W06
 BYTE   Gs1  v076
 BYTE   W06
 BYTE   Gs1  v127
 BYTE   W06
 BYTE   Cn1  v088
 BYTE   N06  Gs1  v100
 BYTE   W06
 BYTE   Dn1  v127
 BYTE   N06  Gs1  v084
 BYTE   W06
 BYTE   Gs1  v076
 BYTE   W06
 BYTE   Cn1  v127
 BYTE   N06  Gs1
 BYTE   W06
 BYTE   Gs1  v100
 BYTE   W06
 BYTE   Gs1  v084
 BYTE   W06
 BYTE   Dn1  v068
 BYTE   N06  Gs1  v076
 BYTE   W06
 BYTE   Dn1  v127
 BYTE   N06  As1
 BYTE   W12
 BYTE   Cn1
 BYTE   N06  Gs1  v084
 BYTE   W06
 BYTE   Dn1  v088
 BYTE   N06  Gs1  v076
 BYTE   W06
 BYTE   Dn1  v104
 BYTE   N06  As1  v127
 BYTE   W06
 BYTE   Dn1
 BYTE   N06  Gs1  v100
 BYTE   W06
// 017   ----------------------------------------
 BYTE   Cn1  v127
 BYTE   N06  Cs2
 BYTE   N06  An2
 BYTE   W18
 BYTE   Cn1  v088
 BYTE   W06
 BYTE   Dn1  v127
 BYTE   W06
 BYTE   Gs1  v076
 BYTE   W06
 BYTE   Cn1  v127
 BYTE   N06  Gs1
 BYTE   W06
 BYTE   Gs1  v100
 BYTE   W06
 BYTE   Cs2  v127
 BYTE   N06  An2
 BYTE   W06
 BYTE   Dn1  v068
 BYTE   W06
 BYTE   Dn1  v127
 BYTE   W12
 BYTE   Cn1
 BYTE   N06  Gs1  v088
 BYTE   W06
 BYTE   Gs1  v076
 BYTE   W06
 BYTE   As1  v127
 BYTE   W12
// 018   ----------------------------------------
 BYTE   Cn1
 BYTE   N06  Cs2
 BYTE   N06  An2
 BYTE   W18
 BYTE   Cn1  v088
 BYTE   W06
 BYTE   Dn1  v127
 BYTE   N06  Gs1  v084
 BYTE   W06
 BYTE   Gs1  v076
 BYTE   W06
 BYTE   Cn1  v127
 BYTE   N06  Gs1
 BYTE   W06
 BYTE   Gs1  v100
 BYTE   W06
 BYTE   As1  v127
 BYTE   W06
 BYTE   Dn1  v068
 BYTE   W06
 BYTE   Dn1  v127
 BYTE   W06
 BYTE   As1
 BYTE   W06
 BYTE   Cn1
 BYTE   W06
 BYTE   Dn1  v076
 BYTE   W06
 BYTE   Dn1  v092
 BYTE   N06  Gs1  v127
 BYTE   W06
 BYTE   Dn1  v108
 BYTE   N06  Gs1  v100
 BYTE   W06
// 019   ----------------------------------------
 BYTE   Cn1  v127
 BYTE   N06  Dn1  v004
 BYTE   N06  Gs1  v084
 BYTE   W06
 BYTE   Dn1  v108
 BYTE   N06  Cs2  v127
 BYTE   N06  An2
 BYTE   W06
 BYTE   Cn1  v096
 BYTE   W12
 BYTE   Cs2  v127
 BYTE   N06  An2
 BYTE   W06
 BYTE   Dn1  v076
 BYTE   W06
 BYTE   Dn1  v108
 BYTE   W06
 BYTE   Cn1  v127
 BYTE   W04
 BYTE   N01  Bn1  v080
 BYTE   N01  Cn2
 BYTE   W02
 BYTE   N06  Bn1  v127
 BYTE   N06  Cn2
 BYTE   N06  Cs2
 BYTE   N06  An2
 BYTE   W12
 BYTE   Cn1
 BYTE   W04
 BYTE   N01  An1  v080
 BYTE   N01  Bn1
 BYTE   W02
 BYTE   N06  An1  v127
 BYTE   N06  Bn1
 BYTE   W06
 BYTE   N04  Gs1  v112
 BYTE   W04
 BYTE   Gs1  v076
 BYTE   W04
 BYTE   Gs1  v088
 BYTE   W02
 BYTE   N01  Gn1  v080
 BYTE   N01  An1
 BYTE   W02
 BYTE   N06  Gn1  v127
 BYTE   N06  An1
 BYTE   N06  As1
 BYTE   W12
// 020   ----------------------------------------
 BYTE   PATT
  POIN2 Label_0_0125CBC9
// 021   ----------------------------------------
 BYTE   PATT
  POIN2 Label_0_0125CC02
// 022   ----------------------------------------
 BYTE   PATT
  POIN2 Label_0_0125CC4B
// 023   ----------------------------------------
 BYTE   N06  Cn1  v127
 BYTE   N06  Gs1  v084
 BYTE   W06
 BYTE   Gs1  v076
 BYTE   W06
 BYTE   Gs1  v127
 BYTE   W06
 BYTE   Cn1  v088
 BYTE   N06  Gs1  v100
 BYTE   W06
 BYTE   Dn1  v127
 BYTE   N06  Gs1  v084
 BYTE   W06
 BYTE   Gs1  v076
 BYTE   W06
 BYTE   Cn1  v127
 BYTE   N06  Gs1
 BYTE   W06
 BYTE   Gs1  v100
 BYTE   W06
 BYTE   Gs1  v084
 BYTE   W06
 BYTE   Dn1
 BYTE   N06  Gs1  v076
 BYTE   W06
 BYTE   Dn1  v108
 BYTE   N06  As1  v127
 BYTE   W06
 BYTE   Dn1
 BYTE   W06
 BYTE   Dn1  v068
 BYTE   N06  Gs1  v004
 BYTE   N24  En2  v127
 BYTE   W06
 BYTE   N06  Dn1  v084
 BYTE   W06
 BYTE   Dn1  v108
 BYTE   W06
 BYTE   Dn1  v127
 BYTE   W06
// 024   ----------------------------------------
 BYTE   Cn1
 BYTE   N06  Cs2
 BYTE   N06  An2
 BYTE   W18
 BYTE   Ds0
 BYTE   W06
 BYTE   Dn1
 BYTE   N06  Ds1
 BYTE   N06  Gs1
 BYTE   W06
 BYTE   Gs1  v080
 BYTE   W06
 BYTE   Cn1  v127
 BYTE   N06  Gs1  v100
 BYTE   W06
 BYTE   As1  v127
 BYTE   W12
 BYTE   Dn1  v060
 BYTE   N06  Ds1
 BYTE   W06
 BYTE   Dn1  v127
 BYTE   N06  Ds1
 BYTE   N04  Gs1  v096
 BYTE   W04
 BYTE   Gs1  v112
 BYTE   W04
 BYTE   Gs1  v080
 BYTE   W04
 BYTE   N06  Cn1  v127
 BYTE   N06  Gs1
 BYTE   W06
 BYTE   Dn1  v088
 BYTE   N06  Ds1
 BYTE   N06  Gs1  v080
 BYTE   W06
 BYTE   Dn1  v127
 BYTE   N06  Ds1
 BYTE   N06  Gs1  v100
 BYTE   W06
 BYTE   Cn1  v080
 BYTE   N06  Cs2  v127
 BYTE   N06  An2
 BYTE   W06
// 025   ----------------------------------------
 BYTE   Cn1
 BYTE   W18
 BYTE   Cn1  v084
 BYTE   W06
 BYTE   Dn1  v080
 BYTE   N06  Ds1
 BYTE   N06  Gs1  v127
 BYTE   W06
 BYTE   Dn1  v104
 BYTE   N06  Ds1
 BYTE   N06  Gs1  v080
 BYTE   W06
 BYTE   Dn1  v127
 BYTE   N06  Ds1
 BYTE   N06  Gs1  v100
 BYTE   W06
 BYTE   Cn1  v127
 BYTE   N06  Cs2
 BYTE   N06  An2
 BYTE   W18
 BYTE   Dn1
 BYTE   N06  Ds1
 BYTE   W06
 BYTE   Cs2
 BYTE   N06  An2
 BYTE   W06
 BYTE   Cn1
 BYTE   W06
 BYTE   Dn1  v096
 BYTE   N06  Ds1
 BYTE   W06
 BYTE   Dn1  v127
 BYTE   N06  Ds1
 BYTE   N06  Gs1
 BYTE   W06
 BYTE   Gs1  v080
 BYTE   W06
// 026   ----------------------------------------
 BYTE   Cn1  v127
 BYTE   N06  Cs2
 BYTE   N06  An2
 BYTE   W18
 BYTE   Ds0  v076
 BYTE   W06
 BYTE   Dn1  v127
 BYTE   N06  Ds1
 BYTE   N06  Gs1
 BYTE   W06
 BYTE   Gs1  v080
 BYTE   W06
 BYTE   Cn1  v127
 BYTE   N06  Gs1  v100
 BYTE   W06
 BYTE   As1  v127
 BYTE   W12
 BYTE   Dn1  v060
 BYTE   N06  Ds1
 BYTE   W06
 BYTE   Dn1  v127
 BYTE   N06  Ds1
 BYTE   N04  Gs1  v096
 BYTE   W04
 BYTE   Gs1  v112
 BYTE   W04
 BYTE   Gs1  v080
 BYTE   W04
 BYTE   N06  Cn1  v127
 BYTE   N06  Gs1
 BYTE   W06
 BYTE   Dn1  v088
 BYTE   N06  Ds1
 BYTE   N06  Gs1  v080
 BYTE   W06
 BYTE   Dn1  v127
 BYTE   N06  Ds1
 BYTE   N06  Gs1  v100
 BYTE   W06
 BYTE   Cn1
 BYTE   N06  Cs2  v127
 BYTE   N06  An2
 BYTE   W06
// 027   ----------------------------------------
 BYTE   Cn1
 BYTE   W18
 BYTE   Cn1  v084
 BYTE   W06
 BYTE   Dn1  v080
 BYTE   N06  Ds1
 BYTE   N06  Gs1  v127
 BYTE   W06
 BYTE   Dn1  v104
 BYTE   N06  Ds1
 BYTE   N06  Gs1  v080
 BYTE   W06
 BYTE   Dn1  v127
 BYTE   N06  Ds1
 BYTE   N06  Gs1  v100
 BYTE   W06
 BYTE   Cn1  v127
 BYTE   N06  Cs2
 BYTE   N06  An2
 BYTE   W06
 BYTE   En1  v072
 BYTE   W06
 BYTE   En1  v080
 BYTE   W06
 BYTE   En1  v088
 BYTE   W06
 BYTE   En1  v096
 BYTE   W06
 BYTE   En1  v100
 BYTE   N24  En2  v127
 BYTE   W06
 BYTE   N06  En1  v108
 BYTE   W06
 BYTE   En1  v116
 BYTE   W06
 BYTE   En1  v127
 BYTE   W06
// 028   ----------------------------------------
 BYTE   W10
 BYTE   N04  Gs1
 BYTE   W04
 BYTE   Gs1  v080
 BYTE   W04
 BYTE   N06  As1  v127
 BYTE   W06
 BYTE   Cn1
 BYTE   N06  Cs2
 BYTE   N06  An2
 BYTE   W18
 BYTE   Cn1  v088
 BYTE   W06
 BYTE   Dn1  v127
 BYTE   W06
 BYTE   Gs1  v076
 BYTE   W06
 BYTE   Cn1  v127
 BYTE   N06  Gs1
 BYTE   W06
 BYTE   Gs1  v100
 BYTE   W06
 BYTE   Gs1  v084
 BYTE   W06
 BYTE   Dn1  v068
 BYTE   N06  Gs1  v076
 BYTE   W06
 BYTE   Dn1  v127
 BYTE   N06  Gs1
 BYTE   W06
 BYTE   Gs1  v100
 BYTE   W06
// 029   ----------------------------------------
Label_0_0125CF30:
 BYTE   N06  Cn1  v127
 BYTE   N06  Gs1  v084
 BYTE   W06
 BYTE   Gs1  v076
 BYTE   W06
 BYTE   Cn1  v080
 BYTE   N06  Gs1  v127
 BYTE   W06
 BYTE   Gs1  v100
 BYTE   W06
 BYTE   Cn1  v127
 BYTE   N06  Gs1  v084
 BYTE   W06
 BYTE   Gs1  v076
 BYTE   W06
 BYTE   Gs1  v127
 BYTE   W06
 BYTE   Cn1  v088
 BYTE   N06  Gs1  v100
 BYTE   W06
 BYTE   Dn1  v127
 BYTE   N06  Gs1  v084
 BYTE   W06
 BYTE   Gs1  v076
 BYTE   W06
 BYTE   Cn1  v127
 BYTE   N06  Gs1
 BYTE   W06
 BYTE   Gs1  v100
 BYTE   W06
 BYTE   Gs1  v084
 BYTE   W06
 BYTE   Dn1  v068
 BYTE   N06  Gs1  v076
 BYTE   W06
 BYTE   Dn1  v127
 BYTE   N06  Gs1
 BYTE   W06
 BYTE   Gs1  v100
 BYTE   W06
 BYTE   PEND 
// 030   ----------------------------------------
Label_0_0125CF78:
 BYTE   N06  Cn1  v127
 BYTE   N06  Gs1  v084
 BYTE   W06
 BYTE   Dn1  v100
 BYTE   N06  Gs1  v076
 BYTE   W06
 BYTE   Dn1  v127
 BYTE   N06  As1
 BYTE   W06
 BYTE   Cn1  v088
 BYTE   W06
 BYTE   Cn1  v127
 BYTE   N06  Gs1  v084
 BYTE   W06
 BYTE   Gs1  v076
 BYTE   W06
 BYTE   Gs1  v127
 BYTE   W06
 BYTE   Cn1  v088
 BYTE   N06  Gs1  v100
 BYTE   W06
 BYTE   Dn1  v127
 BYTE   N06  Gs1  v084
 BYTE   W06
 BYTE   Gs1  v076
 BYTE   W06
 BYTE   Cn1  v127
 BYTE   N06  Gs1
 BYTE   W06
 BYTE   Gs1  v100
 BYTE   W06
 BYTE   Gs1  v084
 BYTE   W06
 BYTE   Dn1  v068
 BYTE   N06  Gs1  v076
 BYTE   W06
 BYTE   Dn1  v127
 BYTE   N06  Gs1
 BYTE   W06
 BYTE   Gs1  v100
 BYTE   W06
 BYTE   PEND 
// 031   ----------------------------------------
 BYTE   Cn1  v127
 BYTE   N06  Gs1  v084
 BYTE   W06
 BYTE   Gs1  v076
 BYTE   W06
 BYTE   Cn1  v088
 BYTE   N06  Gs1  v127
 BYTE   W06
 BYTE   Gs1  v100
 BYTE   W06
 BYTE   Cn1  v127
 BYTE   N06  Gs1  v084
 BYTE   W06
 BYTE   Gs1  v076
 BYTE   W06
 BYTE   Gs1  v127
 BYTE   W06
 BYTE   Cn1  v088
 BYTE   N06  Gs1  v100
 BYTE   W06
 BYTE   Dn1  v127
 BYTE   N06  Gs1  v084
 BYTE   W06
 BYTE   Gs1  v076
 BYTE   W06
 BYTE   Cn1  v127
 BYTE   N06  Gs1
 BYTE   W06
 BYTE   Gs1  v100
 BYTE   W06
 BYTE   Gs1  v084
 BYTE   W06
 BYTE   Dn1  v068
 BYTE   N06  Gs1  v076
 BYTE   W06
 BYTE   Dn1  v127
 BYTE   N06  Gs1
 BYTE   W06
 BYTE   Gs1  v100
 BYTE   W06
// 032   ----------------------------------------
 BYTE   Cn1  v127
 BYTE   N06  Gs1  v084
 BYTE   W06
 BYTE   Dn1  v088
 BYTE   N06  Gs1  v076
 BYTE   W06
 BYTE   Dn1  v104
 BYTE   N06  As1  v127
 BYTE   W06
 BYTE   Dn1
 BYTE   W06
 BYTE   Cn1
 BYTE   N06  Cs2
 BYTE   N06  An2
 BYTE   W18
 BYTE   Cn1  v088
 BYTE   W06
 BYTE   Dn1  v127
 BYTE   W06
 BYTE   Gs1  v076
 BYTE   W06
 BYTE   Cn1  v127
 BYTE   N06  Gs1
 BYTE   W06
 BYTE   Gs1  v100
 BYTE   W06
 BYTE   Gs1  v084
 BYTE   W06
 BYTE   Dn1  v068
 BYTE   N06  Gs1  v076
 BYTE   W06
 BYTE   Dn1  v127
 BYTE   N06  Gs1
 BYTE   W06
 BYTE   Gs1  v100
 BYTE   W06
// 033   ----------------------------------------
 BYTE   PATT
  POIN2 Label_0_0125CF30
// 034   ----------------------------------------
 BYTE   PATT
  POIN2 Label_0_0125CF78
// 035   ----------------------------------------
 BYTE   N06  Cn1  v127
 BYTE   N06  Gs1  v084
 BYTE   W06
 BYTE   Gs1  v076
 BYTE   W06
 BYTE   Cn1  v088
 BYTE   N06  Gs1  v127
 BYTE   W06
 BYTE   Gs1  v100
 BYTE   W06
 BYTE   Cn1  v127
 BYTE   N06  Gs1
 BYTE   W06
 BYTE   Gs1  v088
 BYTE   W06
 BYTE   Gs1  v076
 BYTE   W06
 BYTE   Cn1  v088
 BYTE   N06  Gs1  v127
 BYTE   W06
 BYTE   Dn1
 BYTE   N06  Gs1  v088
 BYTE   W06
 BYTE   Gs1  v076
 BYTE   W06
 BYTE   Cn1  v127
 BYTE   N06  Gs1
 BYTE   W06
 BYTE   Gs1  v088
 BYTE   W06
 BYTE   Gs1  v127
 BYTE   W06
 BYTE   Dn1  v084
 BYTE   N06  Gs1  v088
 BYTE   W06
 BYTE   Dn1  v108
 BYTE   W06
 BYTE   Dn1  v127
 BYTE   N06  Gs1  v096
 BYTE   W06
// 036   ----------------------------------------
 BYTE   Cn1  v127
 BYTE   W06
 BYTE   Dn1  v084
 BYTE   N06  Gs1
 BYTE   W06
 BYTE   Dn1  v108
 BYTE   N06  As1  v127
 BYTE   W06
 BYTE   Dn1
 BYTE   W06
 BYTE   Cn1
 BYTE   W06
 BYTE   GoTo
  POIN2 Label_0_0125CB77
// 037   ----------------------------------------
 BYTE   N06  Dn1  v108
 BYTE   N06  Cs2  v127
 BYTE   N06  An2
 BYTE   W06
 BYTE   Cn1  v096
 BYTE   W12
 BYTE   Cn1  v080
 BYTE   N06  Cs2  v127
 BYTE   N06  An2
 BYTE   W06
 BYTE   Dn1  v076
 BYTE   W06
 BYTE   Dn1  v108
 BYTE   W06
 BYTE   Cn1  v127
 BYTE   W04
 BYTE   N01  Bn1  v080
 BYTE   N01  Cn2
 BYTE   W02
 BYTE   N06  As1  v127
 BYTE   N06  Bn1
 BYTE   N06  Cn2
 BYTE   W12
 BYTE   Cn1
 BYTE   N06  Gs1
 BYTE   W04
 BYTE   N01  An1  v080
 BYTE   N01  Bn1
 BYTE   W02
 BYTE   N06  Gs1  v088
 BYTE   N06  An1  v127
 BYTE   N06  Bn1
 BYTE   W06
 BYTE   Gs1  v112
 BYTE   W06
 BYTE   Gs1  v088
 BYTE   W04
 BYTE   N01  Gn1  v080
 BYTE   N01  An1
 BYTE   W02
 BYTE   N06  Gn1  v127
 BYTE   N06  An1
 BYTE   N06  As1
 BYTE   W12
 BYTE   Cn1
 BYTE   N06  Cs2
 BYTE   N06  An2
 BYTE   W18
// 038   ----------------------------------------
 BYTE   Cn1  v088
 BYTE   W06
 BYTE   Dn1  v127
 BYTE   W06
 BYTE   Gs1  v076
 BYTE   W06
 BYTE   Cn1  v127
 BYTE   N06  Gs1
 BYTE   W06
 BYTE   Gs1  v100
 BYTE   W06
 BYTE   Gs1  v084
 BYTE   W06
 BYTE   Dn1  v068
 BYTE   N06  Gs1  v076
 BYTE   W06
 BYTE   Dn1  v127
 BYTE   N06  As1
 BYTE   W12
Label_0_0125D122:
 BYTE   N06  Cn1  v127
 BYTE   N06  Gs1  v084
 BYTE   W06
 BYTE   Gs1  v076
 BYTE   W06
 BYTE   Cn1  v080
 BYTE   N06  Gs1  v127
 BYTE   W06
 BYTE   Gs1  v100
 BYTE   W06
 BYTE   Cn1  v127
 BYTE   N06  Gs1  v084
 BYTE   W06
 BYTE   Gs1  v076
 BYTE   W06
 BYTE   Gs1  v127
 BYTE   W06
// 039   ----------------------------------------
 BYTE   Cn1  v088
 BYTE   N06  Gs1  v100
 BYTE   W06
 BYTE   Dn1  v127
 BYTE   N06  Gs1  v084
 BYTE   W06
 BYTE   Gs1  v076
 BYTE   W06
 BYTE   Cn1  v127
 BYTE   N06  Gs1
 BYTE   W06
 BYTE   Gs1  v100
 BYTE   W06
 BYTE   Gs1  v084
 BYTE   W06
 BYTE   Dn1  v068
 BYTE   N06  Gs1  v076
 BYTE   W06
 BYTE   Dn1  v127
 BYTE   N06  As1
 BYTE   W12
 BYTE   PEND 
Label_0_0125D167:
 BYTE   N06  Cn1  v127
 BYTE   N06  Gs1  v084
 BYTE   W06
 BYTE   Dn1  v100
 BYTE   N06  Gs1  v076
 BYTE   W06
 BYTE   Dn1  v127
 BYTE   N06  As1
 BYTE   W06
 BYTE   Cn1  v088
 BYTE   N06  Gs1  v100
 BYTE   W06
 BYTE   Cn1  v127
 BYTE   N06  Gs1  v084
 BYTE   W06
 BYTE   Gs1  v076
 BYTE   W06
 BYTE   Gs1  v127
 BYTE   W06
// 040   ----------------------------------------
 BYTE   Cn1  v088
 BYTE   N06  Gs1  v100
 BYTE   W06
 BYTE   Dn1  v127
 BYTE   N06  Gs1  v084
 BYTE   W06
 BYTE   Gs1  v076
 BYTE   W06
 BYTE   Cn1  v127
 BYTE   N06  Gs1
 BYTE   W06
 BYTE   Gs1  v100
 BYTE   W06
 BYTE   Gs1  v084
 BYTE   W06
 BYTE   Dn1  v068
 BYTE   N06  Gs1  v076
 BYTE   W06
 BYTE   Dn1  v127
 BYTE   N06  As1
 BYTE   W12
 BYTE   PEND 
 BYTE   Cn1
 BYTE   N06  Gs1  v084
 BYTE   W06
 BYTE   Gs1  v076
 BYTE   W06
 BYTE   Cn1  v088
 BYTE   N06  Gs1  v127
 BYTE   W06
 BYTE   Gs1  v100
 BYTE   W06
 BYTE   Cn1  v127
 BYTE   N06  Gs1  v084
 BYTE   W06
 BYTE   Gs1  v076
 BYTE   W06
 BYTE   Gs1  v127
 BYTE   W06
// 041   ----------------------------------------
 BYTE   Cn1  v088
 BYTE   N06  Gs1  v100
 BYTE   W06
 BYTE   Dn1  v127
 BYTE   N06  Gs1  v084
 BYTE   W06
 BYTE   Gs1  v076
 BYTE   W06
 BYTE   Cn1  v127
 BYTE   N06  Gs1
 BYTE   W06
 BYTE   Gs1  v100
 BYTE   W06
 BYTE   Gs1  v084
 BYTE   W06
 BYTE   Dn1  v068
 BYTE   N06  Gs1  v076
 BYTE   W06
 BYTE   Dn1  v127
 BYTE   N06  As1
 BYTE   W12
 BYTE   Cn1
 BYTE   N06  Gs1  v084
 BYTE   W06
 BYTE   Dn1  v088
 BYTE   N06  Gs1  v076
 BYTE   W06
 BYTE   Dn1  v104
 BYTE   N06  As1  v127
 BYTE   W06
 BYTE   Dn1
 BYTE   N06  Gs1  v100
 BYTE   W06
 BYTE   Cn1  v127
 BYTE   N06  Cs2
 BYTE   N06  An2
 BYTE   W18
// 042   ----------------------------------------
 BYTE   Cn1  v088
 BYTE   W06
 BYTE   Dn1  v127
 BYTE   W06
 BYTE   Gs1  v076
 BYTE   W06
 BYTE   Cn1  v127
 BYTE   N06  Gs1
 BYTE   W06
 BYTE   Gs1  v100
 BYTE   W06
 BYTE   Cs2  v127
 BYTE   N06  An2
 BYTE   W06
 BYTE   Dn1  v068
 BYTE   W06
 BYTE   Dn1  v127
 BYTE   W12
 BYTE   Cn1
 BYTE   N06  Gs1  v088
 BYTE   W06
 BYTE   Gs1  v076
 BYTE   W06
 BYTE   As1  v127
 BYTE   W12
 BYTE   Cn1
 BYTE   N06  Cs2
 BYTE   N06  An2
 BYTE   W18
// 043   ----------------------------------------
 BYTE   Cn1  v088
 BYTE   W06
 BYTE   Dn1  v127
 BYTE   N06  Gs1  v084
 BYTE   W06
 BYTE   Gs1  v076
 BYTE   W06
 BYTE   Cn1  v127
 BYTE   N06  Gs1
 BYTE   W06
 BYTE   Gs1  v100
 BYTE   W06
 BYTE   As1  v127
 BYTE   W06
 BYTE   Dn1  v068
 BYTE   W06
 BYTE   Dn1  v127
 BYTE   W06
 BYTE   As1
 BYTE   W06
 BYTE   Cn1
 BYTE   W06
 BYTE   Dn1  v076
 BYTE   W06
 BYTE   Dn1  v092
 BYTE   N06  Gs1  v127
 BYTE   W06
 BYTE   Dn1  v108
 BYTE   N06  Gs1  v100
 BYTE   W06
 BYTE   Cn1  v127
 BYTE   N06  Dn1  v004
 BYTE   N06  Gs1  v084
 BYTE   W06
 BYTE   Dn1  v108
 BYTE   N06  Cs2  v127
 BYTE   N06  An2
 BYTE   W06
 BYTE   Cn1  v096
 BYTE   W12
// 044   ----------------------------------------
 BYTE   Cs2  v127
 BYTE   N06  An2
 BYTE   W06
 BYTE   Dn1  v076
 BYTE   W06
 BYTE   Dn1  v108
 BYTE   W06
 BYTE   Cn1  v127
 BYTE   W04
 BYTE   N01  Bn1  v080
 BYTE   N01  Cn2
 BYTE   W02
 BYTE   N06  Bn1  v127
 BYTE   N06  Cn2
 BYTE   N06  Cs2
 BYTE   N06  An2
 BYTE   W12
 BYTE   Cn1
 BYTE   W04
 BYTE   N01  An1  v080
 BYTE   N01  Bn1
 BYTE   W02
 BYTE   N06  An1  v127
 BYTE   N06  Bn1
 BYTE   W06
 BYTE   N04  Gs1  v112
 BYTE   W04
 BYTE   Gs1  v076
 BYTE   W04
 BYTE   Gs1  v088
 BYTE   W02
 BYTE   N01  Gn1  v080
 BYTE   N01  An1
 BYTE   W02
 BYTE   N06  Gn1  v127
 BYTE   N06  An1
 BYTE   N06  As1
 BYTE   W12
 BYTE   Cn1
 BYTE   N06  Cs2
 BYTE   N06  An2
 BYTE   W18
 BYTE   Cn1  v088
 BYTE   W06
// 045   ----------------------------------------
 BYTE   Dn1  v127
 BYTE   W06
 BYTE   Gs1  v076
 BYTE   W06
 BYTE   Cn1  v127
 BYTE   N06  Gs1
 BYTE   W06
 BYTE   Gs1  v100
 BYTE   W06
 BYTE   Gs1  v084
 BYTE   W06
 BYTE   Dn1  v068
 BYTE   N06  Gs1  v076
 BYTE   W06
 BYTE   Dn1  v127
 BYTE   N06  As1
 BYTE   W12
// 046   ----------------------------------------
 BYTE   PATT
  POIN2 Label_0_0125D122
// 047   ----------------------------------------
 BYTE   PATT
  POIN2 Label_0_0125D167
// 048   ----------------------------------------
 BYTE   N06  Cn1  v127
 BYTE   N06  Gs1  v084
 BYTE   W06
 BYTE   Gs1  v076
 BYTE   W06
 BYTE   Cn1  v088
 BYTE   N06  Gs1  v127
 BYTE   W06
 BYTE   Gs1  v100
 BYTE   W06
 BYTE   Cn1  v127
 BYTE   N06  Gs1  v084
 BYTE   W06
 BYTE   Gs1  v076
 BYTE   W06
 BYTE   Gs1  v127
 BYTE   W06
 BYTE   Cn1  v088
 BYTE   N06  Gs1  v100
 BYTE   W06
 BYTE   Dn1  v127
 BYTE   N06  Gs1  v084
 BYTE   W06
 BYTE   Gs1  v076
 BYTE   W06
 BYTE   Cn1  v127
 BYTE   N06  Gs1
 BYTE   W06
 BYTE   Gs1  v100
 BYTE   W06
 BYTE   Gs1  v084
 BYTE   W06
 BYTE   Dn1
 BYTE   N06  Gs1  v076
 BYTE   W06
 BYTE   Dn1  v108
 BYTE   N06  As1  v127
 BYTE   W06
 BYTE   Dn1
 BYTE   W06
// 049   ----------------------------------------
 BYTE   Dn1  v068
 BYTE   N06  Gs1  v004
 BYTE   N24  En2  v127
 BYTE   W06
 BYTE   N06  Dn1  v084
 BYTE   W06
 BYTE   Dn1  v108
 BYTE   W06
 BYTE   Dn1  v127
 BYTE   W06
 BYTE   Cn1
 BYTE   N06  Cs2
 BYTE   N06  An2
 BYTE   W18
 BYTE   Ds0
 BYTE   W06
 BYTE   Dn1
 BYTE   N06  Ds1
 BYTE   N06  Gs1
 BYTE   W06
 BYTE   Gs1  v080
 BYTE   W06
 BYTE   Cn1  v127
 BYTE   N06  Gs1  v100
 BYTE   W06
 BYTE   As1  v127
 BYTE   W12
 BYTE   Dn1  v060
 BYTE   N06  Ds1
 BYTE   W06
 BYTE   Dn1  v127
 BYTE   N06  Ds1
 BYTE   N04  Gs1  v096
 BYTE   W04
 BYTE   Gs1  v112
 BYTE   W04
 BYTE   Gs1  v080
 BYTE   W04
// 050   ----------------------------------------
 BYTE   N06  Cn1  v127
 BYTE   N06  Gs1
 BYTE   W06
 BYTE   Dn1  v088
 BYTE   N06  Ds1
 BYTE   N06  Gs1  v080
 BYTE   W06
 BYTE   Dn1  v127
 BYTE   N06  Ds1
 BYTE   N06  Gs1  v100
 BYTE   W06
 BYTE   Cn1  v080
 BYTE   N06  Cs2  v127
 BYTE   N06  An2
 BYTE   W06
 BYTE   Cn1
 BYTE   W18
 BYTE   Cn1  v084
 BYTE   W06
 BYTE   Dn1  v080
 BYTE   N06  Ds1
 BYTE   N06  Gs1  v127
 BYTE   W06
 BYTE   Dn1  v104
 BYTE   N06  Ds1
 BYTE   N06  Gs1  v080
 BYTE   W06
 BYTE   Dn1  v127
 BYTE   N06  Ds1
 BYTE   N06  Gs1  v100
 BYTE   W06
 BYTE   Cn1  v127
 BYTE   N06  Cs2
 BYTE   N06  An2
 BYTE   W18
 BYTE   Dn1
 BYTE   N06  Ds1
 BYTE   W06
 BYTE   Cs2
 BYTE   N06  An2
 BYTE   W06
// 051   ----------------------------------------
 BYTE   Cn1
 BYTE   W06
 BYTE   Dn1  v096
 BYTE   N06  Ds1
 BYTE   W06
 BYTE   Dn1  v127
 BYTE   N06  Ds1
 BYTE   N06  Gs1
 BYTE   W06
 BYTE   Gs1  v080
 BYTE   W06
 BYTE   Cn1  v127
 BYTE   N06  Cs2
 BYTE   N06  An2
 BYTE   W18
 BYTE   Ds0  v076
 BYTE   W06
 BYTE   Dn1  v127
 BYTE   N06  Ds1
 BYTE   N06  Gs1
 BYTE   W06
 BYTE   Gs1  v080
 BYTE   W06
 BYTE   Cn1  v127
 BYTE   N06  Gs1  v100
 BYTE   W06
 BYTE   As1  v127
 BYTE   W12
 BYTE   Dn1  v060
 BYTE   N06  Ds1
 BYTE   W06
 BYTE   Dn1  v127
 BYTE   N06  Ds1
 BYTE   N04  Gs1  v096
 BYTE   W04
 BYTE   Gs1  v112
 BYTE   W04
 BYTE   Gs1  v080
 BYTE   W04
// 052   ----------------------------------------
 BYTE   N06  Cn1  v127
 BYTE   N06  Gs1
 BYTE   W06
 BYTE   Dn1  v088
 BYTE   N06  Ds1
 BYTE   N06  Gs1  v080
 BYTE   W06
 BYTE   Dn1  v127
 BYTE   N06  Ds1
 BYTE   N06  Gs1  v100
 BYTE   W06
 BYTE   Cn1
 BYTE   N06  Cs2  v127
 BYTE   N06  An2
 BYTE   W06
 BYTE   Cn1
 BYTE   W18
 BYTE   Cn1  v084
 BYTE   W06
 BYTE   Dn1  v080
 BYTE   N06  Ds1
 BYTE   N06  Gs1  v127
 BYTE   W06
 BYTE   Dn1  v104
 BYTE   N06  Ds1
 BYTE   N06  Gs1  v080
 BYTE   W06
 BYTE   Dn1  v127
 BYTE   N06  Ds1
 BYTE   N06  Gs1  v100
 BYTE   W06
 BYTE   Cn1  v127
 BYTE   N06  Cs2
 BYTE   N06  An2
 BYTE   W06
 BYTE   En1  v072
 BYTE   W06
 BYTE   En1  v080
 BYTE   W06
 BYTE   En1  v088
 BYTE   W06
 BYTE   En1  v096
 BYTE   W06
// 053   ----------------------------------------
 BYTE   En1  v100
 BYTE   N24  En2  v127
 BYTE   W06
 BYTE   N06  En1  v108
 BYTE   W06
 BYTE   En1  v116
 BYTE   W06
 BYTE   En1  v127
 BYTE   W16
 BYTE   N04  Gs1
 BYTE   W04
 BYTE   Gs1  v080
 BYTE   W04
 BYTE   N06  As1  v127
 BYTE   W17
 BYTE   FINE

//**************** Track 2 (Midi-Chn.1) ****************//

MegamanBattleNetwork5vsNebulaGrayThegis_002:
// 000   ----------------------------------------
 BYTE   KEYSH   MegamanBattleNetwork5vsNebulaGrayThegis_key+0
 BYTE   VOICE   36
 BYTE   VOL   36*MegamanBattleNetwork5vsNebulaGrayThegis_mvl/mxv
 BYTE   N10  Gn1  v127
 BYTE   W18
 BYTE   Gs1
 BYTE   W18
 BYTE   Gn1
 BYTE   W18
 BYTE   Fn1
 BYTE   W18
 BYTE   Gs1
 BYTE   W12
 BYTE   Fn1
 BYTE   W12
// 001   ----------------------------------------
Label_1_0125E8EC:
 BYTE   N10  Gn1  v127
 BYTE   W18
 BYTE   Gs1
 BYTE   W18
 BYTE   Gn1
 BYTE   W18
 BYTE   Fn1
 BYTE   W18
 BYTE   Gs1
 BYTE   W12
 BYTE   As1
 BYTE   W12
 BYTE   PEND 
// 002   ----------------------------------------
Label_1_0125E8FB:
 BYTE   N10  Gn1  v127
 BYTE   W18
 BYTE   Gs1
 BYTE   W18
 BYTE   Gn1
 BYTE   W18
 BYTE   Fn1
 BYTE   W18
 BYTE   Gs1
 BYTE   W12
 BYTE   Fn1
 BYTE   W12
 BYTE   PEND 
// 003   ----------------------------------------
 BYTE   PATT
  POIN2 Label_1_0125E8EC
// 004   ----------------------------------------
 BYTE   PATT
  POIN2 Label_1_0125E8FB
// 005   ----------------------------------------
 BYTE   PATT
  POIN2 Label_1_0125E8EC
// 006   ----------------------------------------
 BYTE   PATT
  POIN2 Label_1_0125E8FB
// 007   ----------------------------------------
 BYTE   PATT
  POIN2 Label_1_0125E8EC
// 008   ----------------------------------------
 BYTE   PATT
  POIN2 Label_1_0125E8FB
// 009   ----------------------------------------
 BYTE   PATT
  POIN2 Label_1_0125E8EC
// 010   ----------------------------------------
 BYTE   PATT
  POIN2 Label_1_0125E8FB
// 011   ----------------------------------------
 BYTE   PATT
  POIN2 Label_1_0125E8EC
// 012   ----------------------------------------
 BYTE   N06  Bn0  v080
 BYTE   W06
Label_1_0125E93B:
 BYTE   N10  Bn1  v127
 BYTE   W18
 BYTE   N23
 BYTE   W24
 BYTE   N15  Bn0
 BYTE   W18
 BYTE   Bn1
 BYTE   W18
 BYTE   N10  Bn0
 BYTE   W12
// 013   ----------------------------------------
 BYTE   Ds1
 BYTE   W18
 BYTE   N10
 BYTE   W18
 BYTE   N18
 BYTE   W24
 BYTE   N06  Fn1
 BYTE   W06
 BYTE   Ds1
 BYTE   W06
 BYTE   As1
 BYTE   W06
 BYTE   Ds1
 BYTE   W06
 BYTE   As0
 BYTE   W06
 BYTE   Ds1
 BYTE   W06
// 014   ----------------------------------------
 BYTE   N10  Cs1
 BYTE   W18
 BYTE   N10
 BYTE   W18
 BYTE   N18
 BYTE   W24
 BYTE   N06  Ds1
 BYTE   W06
 BYTE   Cs1
 BYTE   W06
 BYTE   Gs1
 BYTE   W06
 BYTE   Cs1
 BYTE   W06
 BYTE   Gs0
 BYTE   W06
 BYTE   Cs1
 BYTE   W06
// 015   ----------------------------------------
 BYTE   N10  Bn0
 BYTE   W18
 BYTE   Bn1
 BYTE   W18
 BYTE   N18  Bn0
 BYTE   W24
 BYTE   N06  Cs1
 BYTE   W06
 BYTE   Bn1
 BYTE   W06
 BYTE   Fs2
 BYTE   W06
 BYTE   Bn1
 BYTE   W06
 BYTE   Fs1
 BYTE   W06
 BYTE   Bn0
 BYTE   W06
// 016   ----------------------------------------
 BYTE   N10  As0
 BYTE   W18
 BYTE   As1
 BYTE   W18
 BYTE   N18  As0
 BYTE   W24
 BYTE   N06  Cn1
 BYTE   W06
 BYTE   As1
 BYTE   W06
 BYTE   Fn2
 BYTE   W06
 BYTE   As1
 BYTE   W06
 BYTE   Fn1
 BYTE   W06
 BYTE   As0
 BYTE   W06
// 017   ----------------------------------------
 BYTE   N15  Gs0
 BYTE   W18
 BYTE   N11  Gs1
 BYTE   W12
 BYTE   N06  Gs0
 BYTE   W06
 BYTE   Gs1
 BYTE   W06
 BYTE   Gs0
 BYTE   W06
 BYTE   N15  As0
 BYTE   W18
 BYTE   N11  As1
 BYTE   W12
 BYTE   N06  As0
 BYTE   W06
 BYTE   As1
 BYTE   W06
 BYTE   As0
 BYTE   W06
// 018   ----------------------------------------
 BYTE   N15  Bn0
 BYTE   W18
 BYTE   N11  Bn1
 BYTE   W12
 BYTE   N06  Bn0
 BYTE   W06
 BYTE   Bn1
 BYTE   W06
 BYTE   Bn0
 BYTE   W06
 BYTE   N15  Cs1
 BYTE   W18
 BYTE   N11  Cs2
 BYTE   W12
 BYTE   N06  Cs1
 BYTE   W06
 BYTE   Cs2
 BYTE   W06
 BYTE   Cs1
 BYTE   W06
// 019   ----------------------------------------
 BYTE   Cn1  v080
 BYTE   W06
 BYTE   N10  Cn2  v127
 BYTE   W18
 BYTE   N23
 BYTE   W24
 BYTE   N15  Cn1
 BYTE   W18
 BYTE   Cn2
 BYTE   W18
 BYTE   N08  Cn1
 BYTE   W12
// 020   ----------------------------------------
 BYTE   N10  En1
 BYTE   W18
 BYTE   N10
 BYTE   W18
 BYTE   N18
 BYTE   W24
 BYTE   N06  Fs1
 BYTE   W06
 BYTE   En1
 BYTE   W06
 BYTE   Bn1
 BYTE   W06
 BYTE   En1
 BYTE   W06
 BYTE   Bn0
 BYTE   W06
 BYTE   En1
 BYTE   W06
// 021   ----------------------------------------
 BYTE   N10  Dn1
 BYTE   W18
 BYTE   N10
 BYTE   W18
 BYTE   N18
 BYTE   W24
 BYTE   N06  En1
 BYTE   W06
 BYTE   Dn1
 BYTE   W06
 BYTE   An1
 BYTE   W06
 BYTE   Dn1
 BYTE   W06
 BYTE   An0
 BYTE   W06
 BYTE   Dn1
 BYTE   W06
// 022   ----------------------------------------
 BYTE   N10  Cn1
 BYTE   W18
 BYTE   Cn2
 BYTE   W18
 BYTE   N18  Cn1
 BYTE   W24
 BYTE   N06  Dn1
 BYTE   W06
 BYTE   Cn1
 BYTE   W06
 BYTE   Gn1
 BYTE   W06
 BYTE   Cn1
 BYTE   W06
 BYTE   Gn0
 BYTE   W06
 BYTE   Cn1
 BYTE   W06
// 023   ----------------------------------------
 BYTE   N10  Fs1
 BYTE   W18
 BYTE   En1
 BYTE   W18
 BYTE   N18  Fs1
 BYTE   W24
 BYTE   N06  Gn1
 BYTE   W06
 BYTE   Fs1
 BYTE   W06
 BYTE   Cs1
 BYTE   W06
 BYTE   Fs1
 BYTE   W06
 BYTE   Cs2
 BYTE   W06
 BYTE   Fs1
 BYTE   W06
// 024   ----------------------------------------
 BYTE   N20  Bn1
 BYTE   W24
 BYTE   N06  Bn0
 BYTE   W06
 BYTE   An0
 BYTE   W06
 BYTE   Bn0
 BYTE   W06
 BYTE   N18  Dn1
 BYTE   W18
 BYTE   N12  Dn1  v068
 BYTE   W12
 BYTE   N06  Bn0  v127
 BYTE   W06
 BYTE   An0
 BYTE   W06
 BYTE   Bn0
 BYTE   W06
 BYTE   N18  En1
 BYTE   W06
// 025   ----------------------------------------
 BYTE   W12
 BYTE   N12  En1  v068
 BYTE   W12
 BYTE   N06  Bn0  v127
 BYTE   W06
 BYTE   An0
 BYTE   W06
 BYTE   Bn0
 BYTE   W06
 BYTE   N12  Fn1
 BYTE   W12
 BYTE   Fn1  v068
 BYTE   W12
 BYTE   En1  v127
 BYTE   W12
 BYTE   N06  En1  v068
 BYTE   W06
 BYTE   N10  Dn1  v127
 BYTE   W12
// 026   ----------------------------------------
 BYTE   N20  Bn0
 BYTE   W24
 BYTE   N06
 BYTE   W06
 BYTE   An0
 BYTE   W06
 BYTE   Bn0
 BYTE   W06
 BYTE   N18  Dn1
 BYTE   W18
 BYTE   N12  Dn1  v068
 BYTE   W12
 BYTE   N06  Bn0  v127
 BYTE   W06
 BYTE   An0
 BYTE   W06
 BYTE   Bn0
 BYTE   W06
 BYTE   N18  En1
 BYTE   W06
// 027   ----------------------------------------
 BYTE   W12
 BYTE   N12  En1  v068
 BYTE   W12
 BYTE   N06  Bn0  v127
 BYTE   W06
 BYTE   An0
 BYTE   W06
 BYTE   Bn0
 BYTE   W06
 BYTE   N12  Fn1
 BYTE   W12
 BYTE   Fn1  v068
 BYTE   W12
 BYTE   Fn1  v096
 BYTE   W12
 BYTE   N06  Fn1  v068
 BYTE   W06
 BYTE   N12  Fn1  v064
 BYTE   W12
// 028   ----------------------------------------
 BYTE   N10  Fn1  v048
 BYTE   W24
 BYTE   Gn1  v127
 BYTE   W18
 BYTE   Gs1
 BYTE   W18
 BYTE   Gn1
 BYTE   W18
 BYTE   Fn1
 BYTE   W18
// 029   ----------------------------------------
Label_1_0125EAB1:
 BYTE   N10  Gs1  v127
 BYTE   W12
 BYTE   Fn1
 BYTE   W12
 BYTE   Gn1
 BYTE   W18
 BYTE   Gs1
 BYTE   W18
 BYTE   Gn1
 BYTE   W18
 BYTE   Fn1
 BYTE   W18
 BYTE   PEND 
// 030   ----------------------------------------
Label_1_0125EAC0:
 BYTE   N10  Gs1  v127
 BYTE   W12
 BYTE   As1
 BYTE   W12
 BYTE   Gn1
 BYTE   W18
 BYTE   Gs1
 BYTE   W18
 BYTE   Gn1
 BYTE   W18
 BYTE   Fn1
 BYTE   W18
 BYTE   PEND 
// 031   ----------------------------------------
 BYTE   PATT
  POIN2 Label_1_0125EAB1
// 032   ----------------------------------------
 BYTE   PATT
  POIN2 Label_1_0125EAC0
// 033   ----------------------------------------
 BYTE   PATT
  POIN2 Label_1_0125EAB1
// 034   ----------------------------------------
 BYTE   PATT
  POIN2 Label_1_0125EAC0
// 035   ----------------------------------------
 BYTE   PATT
  POIN2 Label_1_0125EAB1
// 036   ----------------------------------------
 BYTE   N10  Gs1  v127
 BYTE   W12
 BYTE   As1
 BYTE   W12
 BYTE   N06  Bn0  v080
 BYTE   W06
 BYTE   GoTo
  POIN2 Label_1_0125E93B
// 037   ----------------------------------------
 BYTE   N10  Bn1  v127
 BYTE   W18
 BYTE   N23
 BYTE   W24
 BYTE   N15  Bn0
 BYTE   W18
 BYTE   Bn1
 BYTE   W06
 BYTE   W12
 BYTE   N10  Bn0
 BYTE   W12
 BYTE   Ds1
 BYTE   W18
// 038   ----------------------------------------
 BYTE   N10
 BYTE   W18
 BYTE   N18
 BYTE   W24
 BYTE   N06  Fn1
 BYTE   W06
 BYTE   Ds1
 BYTE   W06
 BYTE   As1
 BYTE   W06
 BYTE   Ds1
 BYTE   W06
 BYTE   As0
 BYTE   W06
 BYTE   Ds1
 BYTE   W06
 BYTE   N10  Cs1
 BYTE   W18
// 039   ----------------------------------------
 BYTE   N10
 BYTE   W18
 BYTE   N18
 BYTE   W24
 BYTE   N06  Ds1
 BYTE   W06
 BYTE   Cs1
 BYTE   W06
 BYTE   Gs1
 BYTE   W06
 BYTE   Cs1
 BYTE   W06
 BYTE   Gs0
 BYTE   W06
 BYTE   Cs1
 BYTE   W06
 BYTE   N10  Bn0
 BYTE   W18
// 040   ----------------------------------------
 BYTE   Bn1
 BYTE   W18
 BYTE   N18  Bn0
 BYTE   W24
 BYTE   N06  Cs1
 BYTE   W06
 BYTE   Bn1
 BYTE   W06
 BYTE   Fs2
 BYTE   W06
 BYTE   Bn1
 BYTE   W06
 BYTE   Fs1
 BYTE   W06
 BYTE   Bn0
 BYTE   W06
 BYTE   N10  As0
 BYTE   W18
// 041   ----------------------------------------
 BYTE   As1
 BYTE   W18
 BYTE   N18  As0
 BYTE   W24
 BYTE   N06  Cn1
 BYTE   W06
 BYTE   As1
 BYTE   W06
 BYTE   Fn2
 BYTE   W06
 BYTE   As1
 BYTE   W06
 BYTE   Fn1
 BYTE   W06
 BYTE   As0
 BYTE   W06
 BYTE   N15  Gs0
 BYTE   W18
// 042   ----------------------------------------
 BYTE   N11  Gs1
 BYTE   W12
 BYTE   N06  Gs0
 BYTE   W06
 BYTE   Gs1
 BYTE   W06
 BYTE   Gs0
 BYTE   W06
 BYTE   N15  As0
 BYTE   W18
 BYTE   N11  As1
 BYTE   W06
 BYTE   W06
 BYTE   N06  As0
 BYTE   W06
 BYTE   As1
 BYTE   W06
 BYTE   As0
 BYTE   W06
 BYTE   N15  Bn0
 BYTE   W18
// 043   ----------------------------------------
 BYTE   N11  Bn1
 BYTE   W12
 BYTE   N06  Bn0
 BYTE   W06
 BYTE   Bn1
 BYTE   W06
 BYTE   Bn0
 BYTE   W06
 BYTE   N15  Cs1
 BYTE   W18
 BYTE   N11  Cs2
 BYTE   W06
 BYTE   W06
 BYTE   N06  Cs1
 BYTE   W06
 BYTE   Cs2
 BYTE   W06
 BYTE   Cs1
 BYTE   W06
 BYTE   Cn1  v080
 BYTE   W06
 BYTE   N10  Cn2  v127
 BYTE   W18
// 044   ----------------------------------------
 BYTE   N23
 BYTE   W24
 BYTE   N15  Cn1
 BYTE   W18
 BYTE   Cn2
 BYTE   W06
 BYTE   W12
 BYTE   N08  Cn1
 BYTE   W12
 BYTE   N10  En1
 BYTE   W18
 BYTE   N10
 BYTE   W18
// 045   ----------------------------------------
 BYTE   N18
 BYTE   W24
 BYTE   N06  Fs1
 BYTE   W06
 BYTE   En1
 BYTE   W06
 BYTE   Bn1
 BYTE   W06
 BYTE   En1
 BYTE   W06
 BYTE   Bn0
 BYTE   W06
 BYTE   En1
 BYTE   W06
 BYTE   N10  Dn1
 BYTE   W18
 BYTE   N10
 BYTE   W18
// 046   ----------------------------------------
 BYTE   N18
 BYTE   W24
 BYTE   N06  En1
 BYTE   W06
 BYTE   Dn1
 BYTE   W06
 BYTE   An1
 BYTE   W06
 BYTE   Dn1
 BYTE   W06
 BYTE   An0
 BYTE   W06
 BYTE   Dn1
 BYTE   W06
 BYTE   N10  Cn1
 BYTE   W18
 BYTE   Cn2
 BYTE   W18
// 047   ----------------------------------------
 BYTE   N18  Cn1
 BYTE   W24
 BYTE   N06  Dn1
 BYTE   W06
 BYTE   Cn1
 BYTE   W06
 BYTE   Gn1
 BYTE   W06
 BYTE   Cn1
 BYTE   W06
 BYTE   Gn0
 BYTE   W06
 BYTE   Cn1
 BYTE   W06
 BYTE   N10  Fs1
 BYTE   W18
 BYTE   En1
 BYTE   W18
// 048   ----------------------------------------
 BYTE   N18  Fs1
 BYTE   W24
 BYTE   N06  Gn1
 BYTE   W06
 BYTE   Fs1
 BYTE   W06
 BYTE   Cs1
 BYTE   W06
 BYTE   Fs1
 BYTE   W06
 BYTE   Cs2
 BYTE   W06
 BYTE   Fs1
 BYTE   W06
 BYTE   N20  Bn1
 BYTE   W24
 BYTE   N06  Bn0
 BYTE   W06
 BYTE   An0
 BYTE   W06
// 049   ----------------------------------------
 BYTE   Bn0
 BYTE   W06
 BYTE   N18  Dn1
 BYTE   W18
 BYTE   N12  Dn1  v068
 BYTE   W12
 BYTE   N06  Bn0  v127
 BYTE   W06
 BYTE   An0
 BYTE   W06
 BYTE   Bn0
 BYTE   W06
 BYTE   N18  En1
 BYTE   W18
 BYTE   N12  En1  v068
 BYTE   W12
 BYTE   N06  Bn0  v127
 BYTE   W06
 BYTE   An0
 BYTE   W06
// 050   ----------------------------------------
 BYTE   Bn0
 BYTE   W06
 BYTE   N12  Fn1
 BYTE   W12
 BYTE   Fn1  v068
 BYTE   W12
 BYTE   En1  v127
 BYTE   W06
 BYTE   W06
 BYTE   N06  En1  v068
 BYTE   W06
 BYTE   N10  Dn1  v127
 BYTE   W12
 BYTE   N20  Bn0
 BYTE   W24
 BYTE   N06
 BYTE   W06
 BYTE   An0
 BYTE   W06
// 051   ----------------------------------------
 BYTE   Bn0
 BYTE   W06
 BYTE   N18  Dn1
 BYTE   W18
 BYTE   N12  Dn1  v068
 BYTE   W12
 BYTE   N06  Bn0  v127
 BYTE   W06
 BYTE   An0
 BYTE   W06
 BYTE   Bn0
 BYTE   W06
 BYTE   N18  En1
 BYTE   W18
 BYTE   N12  En1  v068
 BYTE   W12
 BYTE   N06  Bn0  v127
 BYTE   W06
 BYTE   An0
 BYTE   W06
// 052   ----------------------------------------
 BYTE   Bn0
 BYTE   W06
 BYTE   N12  Fn1
 BYTE   W12
 BYTE   Fn1  v068
 BYTE   W12
 BYTE   Fn1  v096
 BYTE   W06
 BYTE   W06
 BYTE   N06  Fn1  v068
 BYTE   W06
 BYTE   N12  Fn1  v064
 BYTE   W12
 BYTE   N10  Fn1  v048
 BYTE   W32
 BYTE   W03
 BYTE   FINE

//**************** Track 3 (Midi-Chn.2) ****************//

MegamanBattleNetwork5vsNebulaGrayThegis_003:
// 000   ----------------------------------------
 BYTE   KEYSH   MegamanBattleNetwork5vsNebulaGrayThegis_key+0
 BYTE   VOICE   1
 BYTE   VOL   34*MegamanBattleNetwork5vsNebulaGrayThegis_mvl/mxv
 BYTE   PAN   c_v-64
 BYTE   W96
// 001   ----------------------------------------
 BYTE   W96
// 002   ----------------------------------------
 BYTE   W96
// 003   ----------------------------------------
 BYTE   W48
 BYTE   N03  Gn2  v127
 BYTE   W03
 BYTE   Gn2  v068
 BYTE   W03
 BYTE   Cn3  v127
 BYTE   W03
 BYTE   Cn3  v068
 BYTE   W03
 BYTE   Fn3  v127
 BYTE   W03
 BYTE   Fn3  v068
 BYTE   W03
 BYTE   As3  v127
 BYTE   W03
 BYTE   As3  v068
 BYTE   W02
 BYTE   PAN   c_v+63
 BYTE   W01
 BYTE   N03  Ds4  v127
 BYTE   W03
 BYTE   Ds4  v068
 BYTE   W03
 BYTE   Gs4  v127
 BYTE   W03
 BYTE   Gs4  v068
 BYTE   W03
 BYTE   Cs5  v127
 BYTE   W03
 BYTE   Cs5  v068
 BYTE   W03
 BYTE   Fs5  v127
 BYTE   W03
 BYTE   Fs5  v068
 BYTE   W03
// 004   ----------------------------------------
Label_2_01262471:
 BYTE   W05
 BYTE   PAN   c_v+0
 BYTE   W01
 BYTE   N03  Gn1  v127
 BYTE   W03
 BYTE   Gn1  v068
 BYTE   W03
 BYTE   Dn2  v127
 BYTE   W03
 BYTE   Dn2  v068
 BYTE   W03
 BYTE   Gs2  v127
 BYTE   W03
 BYTE   Gs2  v068
 BYTE   W03
 BYTE   As2  v127
 BYTE   W03
 BYTE   As2  v068
 BYTE   W03
 BYTE   Dn3  v127
 BYTE   W03
 BYTE   Dn3  v068
 BYTE   W03
 BYTE   Fn3  v127
 BYTE   W03
 BYTE   Fn3  v068
 BYTE   W03
 BYTE   Gs3  v127
 BYTE   W03
 BYTE   Gs3  v068
 BYTE   W02
 BYTE   PAN   c_v-64
 BYTE   W01
 BYTE   N03  As3  v127
 BYTE   W03
 BYTE   As3  v068
 BYTE   W03
 BYTE   Dn4  v127
 BYTE   W03
 BYTE   Dn4  v068
 BYTE   W03
 BYTE   Fn4  v127
 BYTE   W03
 BYTE   Fn4  v068
 BYTE   W03
 BYTE   Gn4  v127
 BYTE   W03
 BYTE   Gn4  v068
 BYTE   W02
 BYTE   PAN   c_v+63
 BYTE   W01
 BYTE   N03  As4  v127
 BYTE   W03
 BYTE   As4  v068
 BYTE   W03
 BYTE   Dn5  v127
 BYTE   W03
 BYTE   Dn5  v068
 BYTE   W03
 BYTE   Gs5  v127
 BYTE   W03
 BYTE   Gs5  v068
 BYTE   W03
 BYTE   As5  v127
 BYTE   W03
 BYTE   As5  v068
 BYTE   W03
 BYTE   PEND 
// 005   ----------------------------------------
Label_2_012624D9:
 BYTE   W05
 BYTE   PAN   c_v+0
 BYTE   W01
 BYTE   N03  Gn1  v127
 BYTE   W03
 BYTE   Gn1  v068
 BYTE   W03
 BYTE   Dn2  v127
 BYTE   W03
 BYTE   Dn2  v068
 BYTE   W03
 BYTE   Gs2  v127
 BYTE   W03
 BYTE   Gs2  v068
 BYTE   W03
 BYTE   As2  v127
 BYTE   W03
 BYTE   As2  v068
 BYTE   W03
 BYTE   Dn3  v127
 BYTE   W03
 BYTE   Dn3  v068
 BYTE   W03
 BYTE   Fn3  v127
 BYTE   W03
 BYTE   Fn3  v068
 BYTE   W03
 BYTE   Gs3  v127
 BYTE   W03
 BYTE   Gs3  v068
 BYTE   W02
 BYTE   PAN   c_v-64
 BYTE   W01
 BYTE   N03  As3  v127
 BYTE   W03
 BYTE   As3  v068
 BYTE   W03
 BYTE   Fn3  v127
 BYTE   W03
 BYTE   Fn3  v068
 BYTE   W03
 BYTE   Dn3  v127
 BYTE   W03
 BYTE   Dn3  v068
 BYTE   W03
 BYTE   Gs2  v127
 BYTE   W03
 BYTE   Gs2  v068
 BYTE   W02
 BYTE   PAN   c_v+63
 BYTE   W01
 BYTE   N03  Fn2  v127
 BYTE   W03
 BYTE   Fn2  v068
 BYTE   W03
 BYTE   Gn2  v127
 BYTE   W03
 BYTE   Gn2  v068
 BYTE   W03
 BYTE   Fn2  v127
 BYTE   W03
 BYTE   Fn2  v068
 BYTE   W03
 BYTE   Gs2  v127
 BYTE   W03
 BYTE   Gs2  v068
 BYTE   W03
 BYTE   PEND 
// 006   ----------------------------------------
 BYTE   PATT
  POIN2 Label_2_01262471
// 007   ----------------------------------------
 BYTE   W05
 BYTE   PAN   c_v+0
 BYTE   W01
 BYTE   N03  Gn1  v127
 BYTE   W03
 BYTE   Gn1  v068
 BYTE   W03
 BYTE   Dn2  v127
 BYTE   W03
 BYTE   Dn2  v068
 BYTE   W03
 BYTE   As2  v127
 BYTE   W03
 BYTE   As2  v068
 BYTE   W03
 BYTE   Dn3  v127
 BYTE   W03
 BYTE   Dn3  v068
 BYTE   W03
 BYTE   Fn3  v127
 BYTE   W03
 BYTE   Fn3  v068
 BYTE   W03
 BYTE   Gs3  v127
 BYTE   W03
 BYTE   Gs3  v068
 BYTE   W03
 BYTE   Gn3  v127
 BYTE   W03
 BYTE   Gn3  v068
 BYTE   W02
 BYTE   PAN   c_v-64
 BYTE   W01
 BYTE   N03  Fn5  v127
 BYTE   W03
 BYTE   Fn5  v068
 BYTE   W03
 BYTE   Dn5  v127
 BYTE   W03
 BYTE   Dn5  v068
 BYTE   W03
 BYTE   As4  v127
 BYTE   W03
 BYTE   As4  v068
 BYTE   W03
 BYTE   Gs4  v127
 BYTE   W03
 BYTE   Gs4  v068
 BYTE   W02
 BYTE   PAN   c_v+63
 BYTE   W01
 BYTE   N03  Dn5  v127
 BYTE   W03
 BYTE   Dn5  v068
 BYTE   W03
 BYTE   As4  v127
 BYTE   W03
 BYTE   As4  v068
 BYTE   W03
 BYTE   Gs4  v127
 BYTE   W03
 BYTE   Gs4  v068
 BYTE   W03
 BYTE   Dn4  v127
 BYTE   W03
 BYTE   Dn4  v068
 BYTE   W03
// 008   ----------------------------------------
 BYTE   PATT
  POIN2 Label_2_01262471
// 009   ----------------------------------------
 BYTE   PATT
  POIN2 Label_2_012624D9
// 010   ----------------------------------------
 BYTE   W05
 BYTE   PAN   c_v+0
 BYTE   W01
 BYTE   N03  Gn1  v127
 BYTE   W03
 BYTE   Gn1  v068
 BYTE   W03
 BYTE   Dn2  v127
 BYTE   W03
 BYTE   Dn2  v068
 BYTE   W03
 BYTE   Gs2  v127
 BYTE   W03
 BYTE   Gs2  v068
 BYTE   W03
 BYTE   As2  v127
 BYTE   W03
 BYTE   As2  v068
 BYTE   W03
 BYTE   Dn3  v127
 BYTE   W03
 BYTE   Dn3  v068
 BYTE   W03
 BYTE   Fn3  v127
 BYTE   W03
 BYTE   Fn3  v068
 BYTE   W03
 BYTE   Gs3  v127
 BYTE   W03
 BYTE   Gs3  v068
 BYTE   W02
 BYTE   PAN   c_v-64
 BYTE   W01
 BYTE   N03  As3  v127
 BYTE   W03
 BYTE   As3  v068
 BYTE   W03
 BYTE   Dn4  v127
 BYTE   W03
 BYTE   Dn4  v068
 BYTE   W03
 BYTE   Fn4  v127
 BYTE   W03
 BYTE   Fn4  v068
 BYTE   W03
 BYTE   Gn4  v127
 BYTE   W03
 BYTE   Gn4  v068
 BYTE   W02
 BYTE   PAN   c_v+63
 BYTE   W01
 BYTE   N03  As4  v127
 BYTE   W03
 BYTE   As4  v068
 BYTE   W03
 BYTE   Dn5  v127
 BYTE   W03
 BYTE   Dn5  v068
 BYTE   W03
 BYTE   Gs5  v127
 BYTE   W03
 BYTE   Gs5  v068
 BYTE   W03
 BYTE   As5  v127
 BYTE   W03
 BYTE   As5  v068
 BYTE   W02
 BYTE   PAN   c_v+0
 BYTE   W01
// 011   ----------------------------------------
 BYTE   N06  Cn4  v127
 BYTE   W06
 BYTE   Cn4  v076
 BYTE   W06
 BYTE   Cn4  v060
 BYTE   W06
 BYTE   As3  v127
 BYTE   W06
 BYTE   As3  v076
 BYTE   W06
 BYTE   As3  v060
 BYTE   W06
 BYTE   Cs4  v127
 BYTE   W06
 BYTE   Cs4  v076
 BYTE   W06
 BYTE   Cn4  v127
 BYTE   W06
 BYTE   Cn4  v076
 BYTE   W06
 BYTE   Cn4  v060
 BYTE   W06
 BYTE   Cs4  v127
 BYTE   W06
 BYTE   Cs4  v076
 BYTE   W06
 BYTE   Cs4  v060
 BYTE   W06
 BYTE   Ds4  v127
 BYTE   W06
 BYTE   Ds4  v076
 BYTE   W06
// 012   ----------------------------------------
 BYTE   Ds4  v060
 BYTE   W06
Label_2_01262655:
 BYTE   N06  As4  v127
 BYTE   N06  As5  v064
 BYTE   W06
 BYTE   As4  v076
 BYTE   N06  As5  v040
 BYTE   W06
 BYTE   As4  v060
 BYTE   N06  As5  v024
 BYTE   W05
 BYTE   PAN   c_v-64
 BYTE   W01
 BYTE   N06  Ds3  v127
 BYTE   N06  Ds4  v064
 BYTE   W06
 BYTE   Fs3  v127
 BYTE   N06  Fs4  v064
 BYTE   W05
 BYTE   PAN   c_v+63
 BYTE   W01
 BYTE   N06  As3  v127
 BYTE   N06  As4  v064
 BYTE   W06
 BYTE   Fs4  v127
 BYTE   N06  Fs5  v064
 BYTE   W05
 BYTE   PAN   c_v-64
 BYTE   W01
 BYTE   N06  Bn4  v127
 BYTE   N06  Bn5  v064
 BYTE   W06
 BYTE   Fs4  v127
 BYTE   N06  Fs5  v064
 BYTE   W06
 BYTE   Ds4  v127
 BYTE   N06  Ds5  v064
 BYTE   W05
 BYTE   PAN   c_v+63
 BYTE   W01
 BYTE   N06  Fs4  v127
 BYTE   N06  Fs5  v064
 BYTE   W06
 BYTE   Ds4  v127
 BYTE   N06  Ds5  v064
 BYTE   W06
 BYTE   As3  v127
 BYTE   N06  As4  v064
 BYTE   W05
 BYTE   PAN   c_v-64
 BYTE   W01
 BYTE   N06  Ds3  v127
 BYTE   N06  Ds4  v064
 BYTE   W06
 BYTE   Fs3  v127
 BYTE   N06  Fs4  v064
 BYTE   W05
 BYTE   PAN   c_v+63
 BYTE   W01
// 013   ----------------------------------------
 BYTE   N06  As2  v127
 BYTE   N06  As3  v064
 BYTE   W06
 BYTE   Ds3  v127
 BYTE   N06  Ds4  v064
 BYTE   W06
 BYTE   Fs3  v127
 BYTE   N06  Fs4  v064
 BYTE   W06
 BYTE   As3  v127
 BYTE   N06  As4  v064
 BYTE   W06
 BYTE   Cs4  v127
 BYTE   N06  Cs5  v064
 BYTE   W06
 BYTE   Fs3  v127
 BYTE   N06  Fs4  v064
 BYTE   W06
 BYTE   As3  v127
 BYTE   N06  As4  v064
 BYTE   W06
 BYTE   Cs4  v127
 BYTE   N06  Cs5  v064
 BYTE   W05
 BYTE   PAN   c_v-64
 BYTE   W01
 BYTE   N06  Fs4  v127
 BYTE   N06  Fs5  v064
 BYTE   W06
 BYTE   Cs4  v127
 BYTE   N06  Cs5  v064
 BYTE   W06
 BYTE   Ds4  v127
 BYTE   N06  Ds5  v064
 BYTE   W06
 BYTE   Fs4  v127
 BYTE   N06  Fs5  v064
 BYTE   W06
 BYTE   As4  v127
 BYTE   N06  As5  v064
 BYTE   W06
 BYTE   Ds4  v127
 BYTE   N06  Ds5  v064
 BYTE   W06
 BYTE   Fs4  v127
 BYTE   N06  Fs5  v064
 BYTE   W06
 BYTE   As4  v127
 BYTE   N06  As5  v064
 BYTE   W05
 BYTE   PAN   c_v+63
 BYTE   W01
// 014   ----------------------------------------
 BYTE   N06  As2  v127
 BYTE   N06  As3  v064
 BYTE   W06
 BYTE   Ds3  v127
 BYTE   N06  Ds4  v064
 BYTE   W06
 BYTE   Fs3  v127
 BYTE   N06  Fs4  v064
 BYTE   W06
 BYTE   As3  v127
 BYTE   N06  As4  v064
 BYTE   W06
 BYTE   Cs4  v127
 BYTE   N06  Cs5  v064
 BYTE   W06
 BYTE   Fs3  v127
 BYTE   N06  Fs4  v064
 BYTE   W06
 BYTE   As3  v127
 BYTE   N06  As4  v064
 BYTE   W06
 BYTE   Cs4  v127
 BYTE   N06  Cs5  v064
 BYTE   W05
 BYTE   PAN   c_v-64
 BYTE   W01
 BYTE   N06  Fs4  v127
 BYTE   N06  Fs5  v064
 BYTE   W06
 BYTE   Cs4  v127
 BYTE   N06  Cs5  v064
 BYTE   W06
 BYTE   As3  v127
 BYTE   N06  As4  v064
 BYTE   W06
 BYTE   Fs3  v127
 BYTE   N06  Fs4  v064
 BYTE   W06
 BYTE   As3  v127
 BYTE   N06  As4  v064
 BYTE   W06
 BYTE   Fs3  v127
 BYTE   N06  Fs4  v064
 BYTE   W06
 BYTE   Ds3  v127
 BYTE   N06  Ds4  v064
 BYTE   W06
 BYTE   Cs3  v127
 BYTE   N06  Cs4  v064
 BYTE   W05
 BYTE   PAN   c_v+63
 BYTE   W01
// 015   ----------------------------------------
 BYTE   N06  Bn2  v127
 BYTE   N06  Bn3  v064
 BYTE   W06
 BYTE   Ds3  v127
 BYTE   N06  Ds4  v064
 BYTE   W06
 BYTE   Fs3  v127
 BYTE   N06  Fs4  v064
 BYTE   W06
 BYTE   As3  v127
 BYTE   N06  As4  v064
 BYTE   W06
 BYTE   Cs4  v127
 BYTE   N06  Cs5  v064
 BYTE   W06
 BYTE   Fs3  v127
 BYTE   N06  Fs4  v064
 BYTE   W06
 BYTE   As3  v127
 BYTE   N06  As4  v064
 BYTE   W06
 BYTE   Cs4  v127
 BYTE   N06  Cs5  v064
 BYTE   W05
 BYTE   PAN   c_v-64
 BYTE   W01
 BYTE   N06  Fs4  v127
 BYTE   N06  Fs5  v064
 BYTE   W06
 BYTE   Bn3  v127
 BYTE   N06  Bn4  v064
 BYTE   W06
 BYTE   Ds4  v127
 BYTE   N06  Ds5  v064
 BYTE   W06
 BYTE   Fs4  v127
 BYTE   N06  Fs5  v064
 BYTE   W06
 BYTE   As4  v127
 BYTE   N06  As5  v064
 BYTE   W06
 BYTE   Cs5  v127
 BYTE   N06  Cs6  v064
 BYTE   W06
 BYTE   Ds5  v127
 BYTE   N06  Ds6  v064
 BYTE   W06
 BYTE   Fs5  v127
 BYTE   N06  Fs6  v064
 BYTE   W05
 BYTE   PAN   c_v+63
 BYTE   W01
// 016   ----------------------------------------
 BYTE   N06  As2  v127
 BYTE   N06  As3  v064
 BYTE   W06
 BYTE   Cs3  v127
 BYTE   N06  Cs4  v064
 BYTE   W06
 BYTE   Fn3  v127
 BYTE   N06  Fn4  v064
 BYTE   W06
 BYTE   Gs3  v127
 BYTE   N06  Gs4  v064
 BYTE   W06
 BYTE   Cs4  v127
 BYTE   N06  Cs5  v064
 BYTE   W06
 BYTE   Fn3  v127
 BYTE   N06  Fn4  v064
 BYTE   W06
 BYTE   Gs3  v127
 BYTE   N06  Gs4  v064
 BYTE   W06
 BYTE   Cs4  v127
 BYTE   N06  Cs5  v064
 BYTE   W05
 BYTE   PAN   c_v-64
 BYTE   W01
 BYTE   N06  Fn4  v127
 BYTE   N06  Fn5  v064
 BYTE   W06
 BYTE   Cs4  v127
 BYTE   N06  Cs5  v064
 BYTE   W06
 BYTE   Gs3  v127
 BYTE   N06  Gs4  v064
 BYTE   W06
 BYTE   Fn3  v127
 BYTE   N06  Fn4  v064
 BYTE   W06
 BYTE   As2  v127
 BYTE   N06  As3  v064
 BYTE   W06
 BYTE   Fn3  v127
 BYTE   N06  Fn4  v064
 BYTE   W06
 BYTE   Cs3  v127
 BYTE   N06  Cs4  v064
 BYTE   W06
 BYTE   As2  v127
 BYTE   N06  As3  v064
 BYTE   W05
 BYTE   PAN   c_v+63
 BYTE   W01
// 017   ----------------------------------------
 BYTE   N06  Gs2  v127
 BYTE   N06  Gs3  v064
 BYTE   W06
 BYTE   Bn2  v127
 BYTE   N06  Bn3  v064
 BYTE   W06
 BYTE   Ds3  v127
 BYTE   N06  Ds4  v064
 BYTE   W05
 BYTE   PAN   c_v-64
 BYTE   W01
 BYTE   N06  Fs3  v127
 BYTE   N06  Fs4  v064
 BYTE   W06
 BYTE   As3  v127
 BYTE   N06  As4  v064
 BYTE   W06
 BYTE   Ds4  v127
 BYTE   N06  Ds5  v064
 BYTE   W05
 BYTE   PAN   c_v+63
 BYTE   W01
 BYTE   N06  Fs4  v127
 BYTE   N06  Fs5  v064
 BYTE   W06
 BYTE   As4  v127
 BYTE   N06  As5  v064
 BYTE   W05
 BYTE   PAN   c_v-64
 BYTE   W01
 BYTE   N06  As2  v127
 BYTE   N06  As3  v064
 BYTE   W06
 BYTE   Cs3  v127
 BYTE   N06  Cs4  v064
 BYTE   W06
 BYTE   Fn3  v127
 BYTE   N06  Fn4  v064
 BYTE   W05
 BYTE   PAN   c_v+63
 BYTE   W01
 BYTE   N06  Gs3  v127
 BYTE   N06  Gs4  v064
 BYTE   W06
 BYTE   Cn4  v127
 BYTE   N06  Cn5  v064
 BYTE   W06
 BYTE   Cs4  v127
 BYTE   N06  Cs5  v064
 BYTE   W05
 BYTE   PAN   c_v-64
 BYTE   W01
 BYTE   N06  Fn4  v127
 BYTE   N06  Fn5  v064
 BYTE   W06
 BYTE   Gs4  v127
 BYTE   N06  Gs5  v064
 BYTE   W05
 BYTE   PAN   c_v+63
 BYTE   W01
// 018   ----------------------------------------
 BYTE   N06  Bn2  v127
 BYTE   N06  Bn3  v064
 BYTE   W06
 BYTE   Dn3  v127
 BYTE   N06  Dn4  v064
 BYTE   W06
 BYTE   Fs3  v127
 BYTE   N06  Fs4  v064
 BYTE   W05
 BYTE   PAN   c_v-64
 BYTE   W01
 BYTE   N06  An3  v127
 BYTE   N06  An4  v064
 BYTE   W06
 BYTE   Cs4  v127
 BYTE   N06  Cs5  v064
 BYTE   W06
 BYTE   Dn4  v127
 BYTE   N06  Dn5  v064
 BYTE   W05
 BYTE   PAN   c_v+63
 BYTE   W01
 BYTE   N06  Fs4  v127
 BYTE   N06  Fs5  v064
 BYTE   W06
 BYTE   An4  v127
 BYTE   N06  An5  v064
 BYTE   W05
 BYTE   PAN   c_v-64
 BYTE   W01
 BYTE   N06  Cs3  v127
 BYTE   N06  Cs4  v064
 BYTE   W06
 BYTE   Fn3  v127
 BYTE   N06  Fn4  v064
 BYTE   W06
 BYTE   Bn3  v127
 BYTE   N06  Bn4  v064
 BYTE   W05
 BYTE   PAN   c_v+63
 BYTE   W01
 BYTE   N06  Cs4  v127
 BYTE   N06  Cs5  v064
 BYTE   W06
 BYTE   En4  v127
 BYTE   N06  En5  v064
 BYTE   W06
 BYTE   Fn4  v127
 BYTE   N06  Fn5  v064
 BYTE   W05
 BYTE   PAN   c_v-64
 BYTE   W01
 BYTE   N06  Bn4  v127
 BYTE   N06  Bn5  v064
 BYTE   W06
 BYTE   Cs5  v127
 BYTE   N06  Cs6  v064
 BYTE   W06
// 019   ----------------------------------------
 BYTE   Cs5  v076
 BYTE   N06  Cs6  v052
 BYTE   W05
 BYTE   PAN   c_v+0
 BYTE   W01
 BYTE   N06  Bn4  v127
 BYTE   N06  Bn5  v064
 BYTE   W06
 BYTE   Bn4  v076
 BYTE   N06  Bn5  v052
 BYTE   W06
 BYTE   Bn4  v060
 BYTE   N06  Bn5  v040
 BYTE   W05
 BYTE   PAN   c_v-64
 BYTE   W01
 BYTE   N06  En3  v127
 BYTE   N06  En4  v064
 BYTE   W06
 BYTE   Gn3  v127
 BYTE   N06  Gn4  v064
 BYTE   W05
 BYTE   PAN   c_v+63
 BYTE   W01
 BYTE   N06  Bn3  v127
 BYTE   N06  Bn4  v064
 BYTE   W06
 BYTE   Gn4  v127
 BYTE   N06  Gn5  v064
 BYTE   W05
 BYTE   PAN   c_v-64
 BYTE   W01
 BYTE   N06  Cn5  v127
 BYTE   N06  Cn6  v064
 BYTE   W06
 BYTE   Gn4  v127
 BYTE   N06  Gn5  v064
 BYTE   W06
 BYTE   En4  v127
 BYTE   N06  En5  v064
 BYTE   W05
 BYTE   PAN   c_v+63
 BYTE   W01
 BYTE   N06  Gn4  v127
 BYTE   N06  Gn5  v064
 BYTE   W06
 BYTE   En4  v127
 BYTE   N06  En5  v064
 BYTE   W06
 BYTE   Bn3  v127
 BYTE   N06  Bn4  v064
 BYTE   W05
 BYTE   PAN   c_v-64
 BYTE   W01
 BYTE   N06  En3  v127
 BYTE   N06  En4  v064
 BYTE   W06
 BYTE   Gn3  v127
 BYTE   N06  Gn4  v064
 BYTE   W05
 BYTE   PAN   c_v+63
 BYTE   W01
// 020   ----------------------------------------
 BYTE   N06  Bn2  v127
 BYTE   N06  Bn3  v064
 BYTE   W06
 BYTE   En3  v127
 BYTE   N06  En4  v064
 BYTE   W06
 BYTE   Gn3  v127
 BYTE   N06  Gn4  v064
 BYTE   W06
 BYTE   Bn3  v127
 BYTE   N06  Bn4  v064
 BYTE   W06
 BYTE   Dn4  v127
 BYTE   N06  Dn5  v064
 BYTE   W06
 BYTE   Gn3  v127
 BYTE   N06  Gn4  v064
 BYTE   W06
 BYTE   Bn3  v127
 BYTE   N06  Bn4  v064
 BYTE   W06
 BYTE   Dn4  v127
 BYTE   N06  Dn5  v064
 BYTE   W05
 BYTE   PAN   c_v-64
 BYTE   W01
 BYTE   N06  Gn4  v127
 BYTE   N06  Gn5  v064
 BYTE   W06
 BYTE   Dn4  v127
 BYTE   N06  Dn5  v064
 BYTE   W06
 BYTE   En4  v127
 BYTE   N06  En5  v064
 BYTE   W06
 BYTE   Gn4  v127
 BYTE   N06  Gn5  v064
 BYTE   W06
 BYTE   Bn4  v127
 BYTE   N06  Bn5  v064
 BYTE   W06
 BYTE   En4  v127
 BYTE   N06  En5  v064
 BYTE   W06
 BYTE   Gn4  v127
 BYTE   N06  Gn5  v064
 BYTE   W06
 BYTE   Bn4  v127
 BYTE   N06  Bn5  v064
 BYTE   W05
 BYTE   PAN   c_v+63
 BYTE   W01
// 021   ----------------------------------------
 BYTE   N06  Bn2  v127
 BYTE   N06  Bn3  v064
 BYTE   W06
 BYTE   En3  v127
 BYTE   N06  En4  v064
 BYTE   W06
 BYTE   Gn3  v127
 BYTE   N06  Gn4  v064
 BYTE   W06
 BYTE   Bn3  v127
 BYTE   N06  Bn4  v064
 BYTE   W06
 BYTE   Dn4  v127
 BYTE   N06  Dn5  v064
 BYTE   W06
 BYTE   Gn3  v127
 BYTE   N06  Gn4  v064
 BYTE   W06
 BYTE   Bn3  v127
 BYTE   N06  Bn4  v064
 BYTE   W06
 BYTE   Dn4  v127
 BYTE   N06  Dn5  v064
 BYTE   W05
 BYTE   PAN   c_v-64
 BYTE   W01
 BYTE   N06  Gn4  v127
 BYTE   N06  Gn5  v064
 BYTE   W06
 BYTE   Dn4  v127
 BYTE   N06  Dn5  v064
 BYTE   W06
 BYTE   Bn3  v127
 BYTE   N06  Bn4  v064
 BYTE   W06
 BYTE   Gn3  v127
 BYTE   N06  Gn4  v064
 BYTE   W06
 BYTE   Bn3  v127
 BYTE   N06  Bn4  v064
 BYTE   W06
 BYTE   Gn3  v127
 BYTE   N06  Gn4  v064
 BYTE   W06
 BYTE   En3  v127
 BYTE   N06  En4  v064
 BYTE   W06
 BYTE   Dn3  v127
 BYTE   N06  Dn4  v064
 BYTE   W05
 BYTE   PAN   c_v+63
 BYTE   W01
// 022   ----------------------------------------
 BYTE   N06  Cn3  v127
 BYTE   N06  Cn4  v064
 BYTE   W06
 BYTE   En3  v127
 BYTE   N06  En4  v064
 BYTE   W06
 BYTE   Gn3  v127
 BYTE   N06  Gn4  v064
 BYTE   W06
 BYTE   Bn3  v127
 BYTE   N06  Bn4  v064
 BYTE   W06
 BYTE   Dn4  v127
 BYTE   N06  Dn5  v064
 BYTE   W06
 BYTE   Gn3  v127
 BYTE   N06  Gn4  v064
 BYTE   W06
 BYTE   Bn3  v127
 BYTE   N06  Bn4  v064
 BYTE   W06
 BYTE   Dn4  v127
 BYTE   N06  Dn5  v064
 BYTE   W05
 BYTE   PAN   c_v-64
 BYTE   W01
 BYTE   N06  Gn4  v127
 BYTE   N06  Gn5  v064
 BYTE   W06
 BYTE   Cn4  v127
 BYTE   N06  Cn5  v064
 BYTE   W06
 BYTE   En4  v127
 BYTE   N06  En5  v064
 BYTE   W06
 BYTE   Gn4  v127
 BYTE   N06  Gn5  v064
 BYTE   W06
 BYTE   Bn4  v127
 BYTE   N06  Bn5  v064
 BYTE   W06
 BYTE   Dn5  v127
 BYTE   N06  Dn6  v064
 BYTE   W06
 BYTE   En5  v127
 BYTE   N06  En6  v064
 BYTE   W06
 BYTE   Gn5  v127
 BYTE   N06  Gn6  v064
 BYTE   W05
 BYTE   PAN   c_v+63
 BYTE   W01
// 023   ----------------------------------------
 BYTE   N06  Fs2  v127
 BYTE   N06  Fs3  v064
 BYTE   W06
 BYTE   As2  v127
 BYTE   N06  As3  v064
 BYTE   W06
 BYTE   En3  v127
 BYTE   N06  En4  v064
 BYTE   W06
 BYTE   Fs3  v127
 BYTE   N06  Fs4  v064
 BYTE   W06
 BYTE   An3  v127
 BYTE   N06  An4  v064
 BYTE   W06
 BYTE   As3  v127
 BYTE   N06  As4  v064
 BYTE   W06
 BYTE   En4  v127
 BYTE   N06  En5  v064
 BYTE   W06
 BYTE   Fs4  v127
 BYTE   N06  Fs5  v064
 BYTE   W05
 BYTE   PAN   c_v-64
 BYTE   W01
 BYTE   N06  As3  v127
 BYTE   N06  As4  v064
 BYTE   W06
 BYTE   En4  v127
 BYTE   N06  En5  v064
 BYTE   W06
 BYTE   Fs4  v127
 BYTE   N06  Fs5  v064
 BYTE   W05
 BYTE   PAN   c_v+63
 BYTE   W01
 BYTE   N06  As4  v127
 BYTE   N06  As5  v064
 BYTE   W06
 BYTE   En5  v127
 BYTE   N06  En6  v064
 BYTE   W06
 BYTE   Fs5  v127
 BYTE   N06  Fs6  v064
 BYTE   W05
 BYTE   PAN   c_v-64
 BYTE   W01
 BYTE   N06  An5  v127
 BYTE   N06  An6  v064
 BYTE   W06
 BYTE   As5  v127
 BYTE   N06  As6  v064
 BYTE   W05
 BYTE   PAN   c_v+0
 BYTE   W01
// 024   ----------------------------------------
 BYTE   N06  Fs4  v127
 BYTE   N06  Fs5  v064
 BYTE   W06
 BYTE   Fs4  v076
 BYTE   N06  Fs5  v052
 BYTE   W06
 BYTE   Fs4  v064
 BYTE   N06  Fs5  v040
 BYTE   W06
 BYTE   Fs4  v052
 BYTE   N06  Fs5  v028
 BYTE   W06
 BYTE   Fs3  v127
 BYTE   N06  Fs4  v064
 BYTE   W06
 BYTE   En3  v127
 BYTE   N06  En4  v064
 BYTE   W06
 BYTE   Fs3  v127
 BYTE   N06  Fs4  v064
 BYTE   W06
 BYTE   An3  v127
 BYTE   N06  An4  v064
 BYTE   W05
 BYTE   PAN   c_v-64
 BYTE   W01
 BYTE   N03  Bn3  v127
 BYTE   N03  Bn4  v064
 BYTE   W03
 BYTE   Bn3  v076
 BYTE   N03  Bn4  v052
 BYTE   W03
 BYTE   Fn3  v127
 BYTE   N03  Fn4  v064
 BYTE   W03
 BYTE   Fn3  v076
 BYTE   N03  Fn4  v052
 BYTE   W02
 BYTE   PAN   c_v+63
 BYTE   W01
 BYTE   N03  En3  v127
 BYTE   N03  En4  v064
 BYTE   W03
 BYTE   En3  v076
 BYTE   N03  En4  v052
 BYTE   W03
 BYTE   Dn3  v127
 BYTE   N03  Dn4  v064
 BYTE   W03
 BYTE   Dn3  v076
 BYTE   N03  Dn4  v052
 BYTE   W02
 BYTE   PAN   c_v+0
 BYTE   W01
 BYTE   N06  Fs3  v127
 BYTE   N06  Fs4  v064
 BYTE   W06
 BYTE   En3  v127
 BYTE   N06  En4  v064
 BYTE   W06
 BYTE   Fs3  v127
 BYTE   N06  Fs4  v064
 BYTE   W06
 BYTE   Gs3  v127
 BYTE   N06  Gs4  v064
 BYTE   W05
 BYTE   PAN   c_v+63
 BYTE   W01
// 025   ----------------------------------------
 BYTE   N03  Bn3  v127
 BYTE   N03  Bn4  v064
 BYTE   W03
 BYTE   Bn3  v076
 BYTE   N03  Bn4  v052
 BYTE   W03
 BYTE   En3  v127
 BYTE   N03  En4  v064
 BYTE   W03
 BYTE   En3  v076
 BYTE   N03  En4  v052
 BYTE   W02
 BYTE   PAN   c_v-64
 BYTE   W01
 BYTE   N03  Dn3  v127
 BYTE   N03  Dn4  v064
 BYTE   W03
 BYTE   Dn3  v076
 BYTE   N03  Dn4  v052
 BYTE   W03
 BYTE   Bn2  v127
 BYTE   N03  Bn3  v064
 BYTE   W03
 BYTE   Bn2  v076
 BYTE   N03  Bn3  v052
 BYTE   W02
 BYTE   PAN   c_v+0
 BYTE   W01
 BYTE   N06  Fs3  v127
 BYTE   N06  Fs4  v064
 BYTE   W06
 BYTE   En3  v127
 BYTE   N06  En4  v064
 BYTE   W06
 BYTE   Fs3  v127
 BYTE   N06  Fs4  v064
 BYTE   W06
 BYTE   Cn4  v127
 BYTE   N06  Cn5  v064
 BYTE   W05
 BYTE   PAN   c_v-64
 BYTE   W01
 BYTE   N06  Cn4  v076
 BYTE   N06  Cn5  v052
 BYTE   W06
 BYTE   Cn4  v064
 BYTE   N06  Cn5  v040
 BYTE   W06
 BYTE   Cn4  v052
 BYTE   N06  Cn5  v028
 BYTE   W05
 BYTE   PAN   c_v+63
 BYTE   W01
 BYTE   N06  Bn3  v127
 BYTE   N06  Bn4  v064
 BYTE   W06
 BYTE   Bn3  v076
 BYTE   N06  Bn4  v052
 BYTE   W06
 BYTE   Bn3  v064
 BYTE   N06  Bn4  v040
 BYTE   W05
 BYTE   PAN   c_v-64
 BYTE   W01
 BYTE   N06  An3  v127
 BYTE   N06  An4  v064
 BYTE   W06
 BYTE   An3  v076
 BYTE   N06  An4  v052
 BYTE   W05
 BYTE   PAN   c_v+0
 BYTE   W01
// 026   ----------------------------------------
 BYTE   N06  Fs4  v127
 BYTE   N06  Fs5  v064
 BYTE   W06
 BYTE   Fs4  v076
 BYTE   N06  Fs5  v052
 BYTE   W06
 BYTE   Fs4  v064
 BYTE   N06  Fs5  v040
 BYTE   W06
 BYTE   Fs4  v052
 BYTE   N06  Fs5  v028
 BYTE   W06
 BYTE   Fs3  v127
 BYTE   N06  Fs4  v064
 BYTE   W06
 BYTE   En3  v127
 BYTE   N06  En4  v064
 BYTE   W06
 BYTE   Fs3  v127
 BYTE   N06  Fs4  v064
 BYTE   W06
 BYTE   An3  v127
 BYTE   N06  An4  v064
 BYTE   W05
 BYTE   PAN   c_v-64
 BYTE   W01
 BYTE   N03  Bn3  v127
 BYTE   N03  Bn4  v064
 BYTE   W03
 BYTE   Bn3  v076
 BYTE   N03  Bn4  v052
 BYTE   W03
 BYTE   Fn3  v127
 BYTE   N03  Fn4  v064
 BYTE   W03
 BYTE   Fn3  v076
 BYTE   N03  Fn4  v052
 BYTE   W02
 BYTE   PAN   c_v+63
 BYTE   W01
 BYTE   N03  En3  v127
 BYTE   N03  En4  v064
 BYTE   W03
 BYTE   En3  v076
 BYTE   N03  En4  v052
 BYTE   W03
 BYTE   Dn3  v127
 BYTE   N03  Dn4  v064
 BYTE   W03
 BYTE   Dn3  v076
 BYTE   N03  Dn4  v052
 BYTE   W02
 BYTE   PAN   c_v+0
 BYTE   W01
 BYTE   N06  Fs3  v127
 BYTE   N06  Fs4  v064
 BYTE   W06
 BYTE   En3  v127
 BYTE   N06  En4  v064
 BYTE   W06
 BYTE   Fs3  v127
 BYTE   N06  Fs4  v064
 BYTE   W06
 BYTE   Bn3  v127
 BYTE   N06  Bn4  v064
 BYTE   W05
 BYTE   PAN   c_v+63
 BYTE   W01
// 027   ----------------------------------------
 BYTE   N03  Bn3  v127
 BYTE   N03  Bn4  v064
 BYTE   W03
 BYTE   Bn3  v076
 BYTE   N03  Bn4  v052
 BYTE   W03
 BYTE   En3  v127
 BYTE   N03  En4  v064
 BYTE   W03
 BYTE   En3  v076
 BYTE   N03  En4  v052
 BYTE   W02
 BYTE   PAN   c_v-64
 BYTE   W01
 BYTE   N03  Dn3  v127
 BYTE   N03  Dn4  v064
 BYTE   W03
 BYTE   Dn3  v076
 BYTE   N03  Dn4  v052
 BYTE   W03
 BYTE   Bn2  v127
 BYTE   N03  Bn3  v064
 BYTE   W03
 BYTE   Bn2  v076
 BYTE   N03  Bn3  v052
 BYTE   W02
 BYTE   PAN   c_v+0
 BYTE   W01
 BYTE   N06  Fs3  v127
 BYTE   N06  Fs4  v064
 BYTE   W06
 BYTE   En3  v127
 BYTE   N06  En4  v064
 BYTE   W06
 BYTE   Fs3  v127
 BYTE   N06  Fs4  v064
 BYTE   W06
 BYTE   Cn4  v127
 BYTE   N06  Cn5  v064
 BYTE   W05
 BYTE   PAN   c_v-64
 BYTE   W01
 BYTE   N03  Bn3  v127
 BYTE   N03  Bn4  v064
 BYTE   W03
 BYTE   Bn3  v076
 BYTE   N03  Bn4  v052
 BYTE   W03
 BYTE   Cn4  v127
 BYTE   N03  Cn5  v064
 BYTE   W03
 BYTE   Cn4  v076
 BYTE   N03  Cn5  v052
 BYTE   W03
 BYTE   Cs4  v127
 BYTE   N03  Cs5  v064
 BYTE   W03
 BYTE   Cs4  v076
 BYTE   N03  Cs5  v052
 BYTE   W02
 BYTE   PAN   c_v+63
 BYTE   W01
 BYTE   N03  Dn4  v127
 BYTE   N03  Dn5  v064
 BYTE   W03
 BYTE   Dn4  v076
 BYTE   N03  Dn5  v052
 BYTE   W03
 BYTE   Ds4  v127
 BYTE   N03  Ds5  v064
 BYTE   W03
 BYTE   Ds4  v076
 BYTE   N03  Ds5  v052
 BYTE   W03
 BYTE   En4  v127
 BYTE   N03  En5  v064
 BYTE   W03
 BYTE   En4  v076
 BYTE   N03  En5  v052
 BYTE   W02
 BYTE   PAN   c_v-64
 BYTE   W01
 BYTE   N03  Fn4  v127
 BYTE   N03  Fn5  v064
 BYTE   W03
 BYTE   Fn4  v076
 BYTE   N03  Fn5  v052
 BYTE   W03
 BYTE   Fs4  v127
 BYTE   N03  Fs5  v064
 BYTE   W03
 BYTE   Fs4  v076
 BYTE   N03  Fs5  v052
 BYTE   W03
// 028   ----------------------------------------
 BYTE   W28
 BYTE   W01
 BYTE   PAN   c_v+0
 BYTE   W01
 BYTE   N03  Gn1  v127
 BYTE   W03
 BYTE   Gn1  v068
 BYTE   W03
 BYTE   Dn2  v127
 BYTE   W03
 BYTE   Dn2  v068
 BYTE   W03
 BYTE   Gs2  v127
 BYTE   W03
 BYTE   Gs2  v068
 BYTE   W03
 BYTE   As2  v127
 BYTE   W03
 BYTE   As2  v068
 BYTE   W03
 BYTE   Dn3  v127
 BYTE   W03
 BYTE   Dn3  v068
 BYTE   W03
 BYTE   Fn3  v127
 BYTE   W03
 BYTE   Fn3  v068
 BYTE   W03
 BYTE   Gs3  v127
 BYTE   W03
 BYTE   Gs3  v068
 BYTE   W02
 BYTE   PAN   c_v-64
 BYTE   W01
 BYTE   N03  As3  v127
 BYTE   W03
 BYTE   As3  v068
 BYTE   W03
 BYTE   Dn4  v127
 BYTE   W03
 BYTE   Dn4  v068
 BYTE   W03
 BYTE   Fn4  v127
 BYTE   W03
 BYTE   Fn4  v068
 BYTE   W03
 BYTE   Gn4  v127
 BYTE   W03
 BYTE   Gn4  v068
 BYTE   W02
 BYTE   PAN   c_v+63
 BYTE   W01
// 029   ----------------------------------------
Label_2_01262E23:
 BYTE   N03  As4  v127
 BYTE   W03
 BYTE   As4  v068
 BYTE   W03
 BYTE   Dn5  v127
 BYTE   W03
 BYTE   Dn5  v068
 BYTE   W03
 BYTE   Gs5  v127
 BYTE   W03
 BYTE   Gs5  v068
 BYTE   W03
 BYTE   As5  v127
 BYTE   W03
 BYTE   As5  v068
 BYTE   W08
 BYTE   PAN   c_v+0
 BYTE   W01
 BYTE   N03  Gn1  v127
 BYTE   W03
 BYTE   Gn1  v068
 BYTE   W03
 BYTE   Dn2  v127
 BYTE   W03
 BYTE   Dn2  v068
 BYTE   W03
 BYTE   Gs2  v127
 BYTE   W03
 BYTE   Gs2  v068
 BYTE   W03
 BYTE   As2  v127
 BYTE   W03
 BYTE   As2  v068
 BYTE   W03
 BYTE   Dn3  v127
 BYTE   W03
 BYTE   Dn3  v068
 BYTE   W03
 BYTE   Fn3  v127
 BYTE   W03
 BYTE   Fn3  v068
 BYTE   W03
 BYTE   Gs3  v127
 BYTE   W03
 BYTE   Gs3  v068
 BYTE   W02
 BYTE   PAN   c_v-64
 BYTE   W01
 BYTE   N03  As3  v127
 BYTE   W03
 BYTE   As3  v068
 BYTE   W03
 BYTE   Fn3  v127
 BYTE   W03
 BYTE   Fn3  v068
 BYTE   W03
 BYTE   Dn3  v127
 BYTE   W03
 BYTE   Dn3  v068
 BYTE   W03
 BYTE   Gs2  v127
 BYTE   W03
 BYTE   Gs2  v068
 BYTE   W02
 BYTE   PAN   c_v+63
 BYTE   W01
 BYTE   PEND 
// 030   ----------------------------------------
Label_2_01262E8A:
 BYTE   N03  Fn2  v127
 BYTE   W03
 BYTE   Fn2  v068
 BYTE   W03
 BYTE   Gn2  v127
 BYTE   W03
 BYTE   Gn2  v068
 BYTE   W03
 BYTE   Fn2  v127
 BYTE   W03
 BYTE   Fn2  v068
 BYTE   W03
 BYTE   Gs2  v127
 BYTE   W03
 BYTE   Gs2  v068
 BYTE   W08
 BYTE   PAN   c_v+0
 BYTE   W01
 BYTE   N03  Gn1  v127
 BYTE   W03
 BYTE   Gn1  v068
 BYTE   W03
 BYTE   Dn2  v127
 BYTE   W03
 BYTE   Dn2  v068
 BYTE   W03
 BYTE   Gs2  v127
 BYTE   W03
 BYTE   Gs2  v068
 BYTE   W03
 BYTE   As2  v127
 BYTE   W03
 BYTE   As2  v068
 BYTE   W03
 BYTE   Dn3  v127
 BYTE   W03
 BYTE   Dn3  v068
 BYTE   W03
 BYTE   Fn3  v127
 BYTE   W03
 BYTE   Fn3  v068
 BYTE   W03
 BYTE   Gs3  v127
 BYTE   W03
 BYTE   Gs3  v068
 BYTE   W02
 BYTE   PAN   c_v-64
 BYTE   W01
 BYTE   N03  As3  v127
 BYTE   W03
 BYTE   As3  v068
 BYTE   W03
 BYTE   Dn4  v127
 BYTE   W03
 BYTE   Dn4  v068
 BYTE   W03
 BYTE   Fn4  v127
 BYTE   W03
 BYTE   Fn4  v068
 BYTE   W03
 BYTE   Gn4  v127
 BYTE   W03
 BYTE   Gn4  v068
 BYTE   W02
 BYTE   PAN   c_v+63
 BYTE   W01
 BYTE   PEND 
// 031   ----------------------------------------
 BYTE   N03  As4  v127
 BYTE   W03
 BYTE   As4  v068
 BYTE   W03
 BYTE   Dn5  v127
 BYTE   W03
 BYTE   Dn5  v068
 BYTE   W03
 BYTE   Gs5  v127
 BYTE   W03
 BYTE   Gs5  v068
 BYTE   W03
 BYTE   As5  v127
 BYTE   W03
 BYTE   As5  v068
 BYTE   W08
 BYTE   PAN   c_v+0
 BYTE   W01
 BYTE   N03  Gn1  v127
 BYTE   W03
 BYTE   Gn1  v068
 BYTE   W03
 BYTE   Dn2  v127
 BYTE   W03
 BYTE   Dn2  v068
 BYTE   W03
 BYTE   As2  v127
 BYTE   W03
 BYTE   As2  v068
 BYTE   W03
 BYTE   Dn3  v127
 BYTE   W03
 BYTE   Dn3  v068
 BYTE   W03
 BYTE   Fn3  v127
 BYTE   W03
 BYTE   Fn3  v068
 BYTE   W03
 BYTE   Gs3  v127
 BYTE   W03
 BYTE   Gs3  v068
 BYTE   W03
 BYTE   Gn3  v127
 BYTE   W03
 BYTE   Gn3  v068
 BYTE   W02
 BYTE   PAN   c_v-64
 BYTE   W01
 BYTE   N03  Fn5  v127
 BYTE   W03
 BYTE   Fn5  v068
 BYTE   W03
 BYTE   Dn5  v127
 BYTE   W03
 BYTE   Dn5  v068
 BYTE   W03
 BYTE   As4  v127
 BYTE   W03
 BYTE   As4  v068
 BYTE   W03
 BYTE   Gs4  v127
 BYTE   W03
 BYTE   Gs4  v068
 BYTE   W02
 BYTE   PAN   c_v+63
 BYTE   W01
// 032   ----------------------------------------
 BYTE   N03  Dn5  v127
 BYTE   W03
 BYTE   Dn5  v068
 BYTE   W03
 BYTE   As4  v127
 BYTE   W03
 BYTE   As4  v068
 BYTE   W03
 BYTE   Gs4  v127
 BYTE   W03
 BYTE   Gs4  v068
 BYTE   W03
 BYTE   Dn4  v127
 BYTE   W03
 BYTE   Dn4  v068
 BYTE   W08
 BYTE   PAN   c_v+0
 BYTE   W01
 BYTE   N03  Gn1  v127
 BYTE   W03
 BYTE   Gn1  v068
 BYTE   W03
 BYTE   Dn2  v127
 BYTE   W03
 BYTE   Dn2  v068
 BYTE   W03
 BYTE   Gs2  v127
 BYTE   W03
 BYTE   Gs2  v068
 BYTE   W03
 BYTE   As2  v127
 BYTE   W03
 BYTE   As2  v068
 BYTE   W03
 BYTE   Dn3  v127
 BYTE   W03
 BYTE   Dn3  v068
 BYTE   W03
 BYTE   Fn3  v127
 BYTE   W03
 BYTE   Fn3  v068
 BYTE   W03
 BYTE   Gs3  v127
 BYTE   W03
 BYTE   Gs3  v068
 BYTE   W02
 BYTE   PAN   c_v-64
 BYTE   W01
 BYTE   N03  As3  v127
 BYTE   W03
 BYTE   As3  v068
 BYTE   W03
 BYTE   Dn4  v127
 BYTE   W03
 BYTE   Dn4  v068
 BYTE   W03
 BYTE   Fn4  v127
 BYTE   W03
 BYTE   Fn4  v068
 BYTE   W03
 BYTE   Gn4  v127
 BYTE   W03
 BYTE   Gn4  v068
 BYTE   W02
 BYTE   PAN   c_v+63
 BYTE   W01
// 033   ----------------------------------------
 BYTE   PATT
  POIN2 Label_2_01262E23
// 034   ----------------------------------------
 BYTE   PATT
  POIN2 Label_2_01262E8A
// 035   ----------------------------------------
 BYTE   N03  As4  v127
 BYTE   W03
 BYTE   As4  v068
 BYTE   W03
 BYTE   Dn5  v127
 BYTE   W03
 BYTE   Dn5  v068
 BYTE   W03
 BYTE   Gs5  v127
 BYTE   W03
 BYTE   Gs5  v068
 BYTE   W03
 BYTE   As5  v127
 BYTE   W03
 BYTE   As5  v068
 BYTE   W02
 BYTE   PAN   c_v+0
 BYTE   W01
 BYTE   N06  Cn4  v127
 BYTE   W06
 BYTE   Cn4  v076
 BYTE   W06
 BYTE   Cn4  v060
 BYTE   W06
 BYTE   As3  v127
 BYTE   W06
 BYTE   As3  v076
 BYTE   W06
 BYTE   As3  v060
 BYTE   W06
 BYTE   Cs4  v127
 BYTE   W06
 BYTE   Cs4  v076
 BYTE   W06
 BYTE   Cn4  v127
 BYTE   W06
 BYTE   Cn4  v076
 BYTE   W06
 BYTE   Cn4  v060
 BYTE   W06
 BYTE   Cs4  v127
 BYTE   W06
// 036   ----------------------------------------
 BYTE   Cs4  v076
 BYTE   W06
 BYTE   Cs4  v060
 BYTE   W06
 BYTE   Ds4  v127
 BYTE   W06
 BYTE   Ds4  v076
 BYTE   W06
 BYTE   Ds4  v060
 BYTE   W05
 BYTE   W01
 BYTE   GoTo
  POIN2 Label_2_01262655
// 037   ----------------------------------------
 BYTE   N06  As4  v127
 BYTE   N06  As5  v064
 BYTE   W06
 BYTE   As4  v076
 BYTE   N06  As5  v040
 BYTE   W06
 BYTE   As4  v060
 BYTE   N06  As5  v024
 BYTE   W05
 BYTE   PAN   c_v-64
 BYTE   W01
 BYTE   N06  Ds3  v127
 BYTE   N06  Ds4  v064
 BYTE   W06
 BYTE   Fs3  v127
 BYTE   N06  Fs4  v064
 BYTE   W05
 BYTE   PAN   c_v+63
 BYTE   W01
 BYTE   N06  As3  v127
 BYTE   N06  As4  v064
 BYTE   W06
 BYTE   Fs4  v127
 BYTE   N06  Fs5  v064
 BYTE   W05
 BYTE   PAN   c_v-64
 BYTE   W01
 BYTE   N06  Bn4  v127
 BYTE   N06  Bn5  v064
 BYTE   W06
 BYTE   Fs4  v127
 BYTE   N06  Fs5  v064
 BYTE   W06
 BYTE   Ds4  v127
 BYTE   N06  Ds5  v064
 BYTE   W05
 BYTE   PAN   c_v+63
 BYTE   W01
 BYTE   N06  Fs4  v127
 BYTE   N06  Fs5  v064
 BYTE   W06
 BYTE   Ds4  v127
 BYTE   N06  Ds5  v064
 BYTE   W06
 BYTE   As3  v127
 BYTE   N06  As4  v064
 BYTE   W05
 BYTE   PAN   c_v-64
 BYTE   W01
 BYTE   N06  Ds3  v127
 BYTE   N06  Ds4  v064
 BYTE   W06
 BYTE   Fs3  v127
 BYTE   N06  Fs4  v064
 BYTE   W05
 BYTE   PAN   c_v+63
 BYTE   W01
 BYTE   N06  As2  v127
 BYTE   N06  As3  v064
 BYTE   W06
// 038   ----------------------------------------
 BYTE   Ds3  v127
 BYTE   N06  Ds4  v064
 BYTE   W06
 BYTE   Fs3  v127
 BYTE   N06  Fs4  v064
 BYTE   W06
 BYTE   As3  v127
 BYTE   N06  As4  v064
 BYTE   W06
 BYTE   Cs4  v127
 BYTE   N06  Cs5  v064
 BYTE   W06
 BYTE   Fs3  v127
 BYTE   N06  Fs4  v064
 BYTE   W06
 BYTE   As3  v127
 BYTE   N06  As4  v064
 BYTE   W06
 BYTE   Cs4  v127
 BYTE   N06  Cs5  v064
 BYTE   W05
 BYTE   PAN   c_v-64
 BYTE   W01
 BYTE   N06  Fs4  v127
 BYTE   N06  Fs5  v064
 BYTE   W06
 BYTE   Cs4  v127
 BYTE   N06  Cs5  v064
 BYTE   W06
 BYTE   Ds4  v127
 BYTE   N06  Ds5  v064
 BYTE   W06
 BYTE   Fs4  v127
 BYTE   N06  Fs5  v064
 BYTE   W06
 BYTE   As4  v127
 BYTE   N06  As5  v064
 BYTE   W06
 BYTE   Ds4  v127
 BYTE   N06  Ds5  v064
 BYTE   W06
 BYTE   Fs4  v127
 BYTE   N06  Fs5  v064
 BYTE   W06
 BYTE   As4  v127
 BYTE   N06  As5  v064
 BYTE   W05
 BYTE   PAN   c_v+63
 BYTE   W01
 BYTE   N06  As2  v127
 BYTE   N06  As3  v064
 BYTE   W06
// 039   ----------------------------------------
 BYTE   Ds3  v127
 BYTE   N06  Ds4  v064
 BYTE   W06
 BYTE   Fs3  v127
 BYTE   N06  Fs4  v064
 BYTE   W06
 BYTE   As3  v127
 BYTE   N06  As4  v064
 BYTE   W06
 BYTE   Cs4  v127
 BYTE   N06  Cs5  v064
 BYTE   W06
 BYTE   Fs3  v127
 BYTE   N06  Fs4  v064
 BYTE   W06
 BYTE   As3  v127
 BYTE   N06  As4  v064
 BYTE   W06
 BYTE   Cs4  v127
 BYTE   N06  Cs5  v064
 BYTE   W05
 BYTE   PAN   c_v-64
 BYTE   W01
 BYTE   N06  Fs4  v127
 BYTE   N06  Fs5  v064
 BYTE   W06
 BYTE   Cs4  v127
 BYTE   N06  Cs5  v064
 BYTE   W06
 BYTE   As3  v127
 BYTE   N06  As4  v064
 BYTE   W06
 BYTE   Fs3  v127
 BYTE   N06  Fs4  v064
 BYTE   W06
 BYTE   As3  v127
 BYTE   N06  As4  v064
 BYTE   W06
 BYTE   Fs3  v127
 BYTE   N06  Fs4  v064
 BYTE   W06
 BYTE   Ds3  v127
 BYTE   N06  Ds4  v064
 BYTE   W06
 BYTE   Cs3  v127
 BYTE   N06  Cs4  v064
 BYTE   W05
 BYTE   PAN   c_v+63
 BYTE   W01
 BYTE   N06  Bn2  v127
 BYTE   N06  Bn3  v064
 BYTE   W06
// 040   ----------------------------------------
 BYTE   Ds3  v127
 BYTE   N06  Ds4  v064
 BYTE   W06
 BYTE   Fs3  v127
 BYTE   N06  Fs4  v064
 BYTE   W06
 BYTE   As3  v127
 BYTE   N06  As4  v064
 BYTE   W06
 BYTE   Cs4  v127
 BYTE   N06  Cs5  v064
 BYTE   W06
 BYTE   Fs3  v127
 BYTE   N06  Fs4  v064
 BYTE   W06
 BYTE   As3  v127
 BYTE   N06  As4  v064
 BYTE   W06
 BYTE   Cs4  v127
 BYTE   N06  Cs5  v064
 BYTE   W05
 BYTE   PAN   c_v-64
 BYTE   W01
 BYTE   N06  Fs4  v127
 BYTE   N06  Fs5  v064
 BYTE   W06
 BYTE   Bn3  v127
 BYTE   N06  Bn4  v064
 BYTE   W06
 BYTE   Ds4  v127
 BYTE   N06  Ds5  v064
 BYTE   W06
 BYTE   Fs4  v127
 BYTE   N06  Fs5  v064
 BYTE   W06
 BYTE   As4  v127
 BYTE   N06  As5  v064
 BYTE   W06
 BYTE   Cs5  v127
 BYTE   N06  Cs6  v064
 BYTE   W06
 BYTE   Ds5  v127
 BYTE   N06  Ds6  v064
 BYTE   W06
 BYTE   Fs5  v127
 BYTE   N06  Fs6  v064
 BYTE   W05
 BYTE   PAN   c_v+63
 BYTE   W01
 BYTE   N06  As2  v127
 BYTE   N06  As3  v064
 BYTE   W06
// 041   ----------------------------------------
 BYTE   Cs3  v127
 BYTE   N06  Cs4  v064
 BYTE   W06
 BYTE   Fn3  v127
 BYTE   N06  Fn4  v064
 BYTE   W06
 BYTE   Gs3  v127
 BYTE   N06  Gs4  v064
 BYTE   W06
 BYTE   Cs4  v127
 BYTE   N06  Cs5  v064
 BYTE   W06
 BYTE   Fn3  v127
 BYTE   N06  Fn4  v064
 BYTE   W06
 BYTE   Gs3  v127
 BYTE   N06  Gs4  v064
 BYTE   W06
 BYTE   Cs4  v127
 BYTE   N06  Cs5  v064
 BYTE   W05
 BYTE   PAN   c_v-64
 BYTE   W01
 BYTE   N06  Fn4  v127
 BYTE   N06  Fn5  v064
 BYTE   W06
 BYTE   Cs4  v127
 BYTE   N06  Cs5  v064
 BYTE   W06
 BYTE   Gs3  v127
 BYTE   N06  Gs4  v064
 BYTE   W06
 BYTE   Fn3  v127
 BYTE   N06  Fn4  v064
 BYTE   W06
 BYTE   As2  v127
 BYTE   N06  As3  v064
 BYTE   W06
 BYTE   Fn3  v127
 BYTE   N06  Fn4  v064
 BYTE   W06
 BYTE   Cs3  v127
 BYTE   N06  Cs4  v064
 BYTE   W06
 BYTE   As2  v127
 BYTE   N06  As3  v064
 BYTE   W05
 BYTE   PAN   c_v+63
 BYTE   W01
 BYTE   N06  Gs2  v127
 BYTE   N06  Gs3  v064
 BYTE   W06
// 042   ----------------------------------------
 BYTE   Bn2  v127
 BYTE   N06  Bn3  v064
 BYTE   W06
 BYTE   Ds3  v127
 BYTE   N06  Ds4  v064
 BYTE   W05
 BYTE   PAN   c_v-64
 BYTE   W01
 BYTE   N06  Fs3  v127
 BYTE   N06  Fs4  v064
 BYTE   W06
 BYTE   As3  v127
 BYTE   N06  As4  v064
 BYTE   W06
 BYTE   Ds4  v127
 BYTE   N06  Ds5  v064
 BYTE   W05
 BYTE   PAN   c_v+63
 BYTE   W01
 BYTE   N06  Fs4  v127
 BYTE   N06  Fs5  v064
 BYTE   W06
 BYTE   As4  v127
 BYTE   N06  As5  v064
 BYTE   W05
 BYTE   PAN   c_v-64
 BYTE   W01
 BYTE   N06  As2  v127
 BYTE   N06  As3  v064
 BYTE   W06
 BYTE   Cs3  v127
 BYTE   N06  Cs4  v064
 BYTE   W06
 BYTE   Fn3  v127
 BYTE   N06  Fn4  v064
 BYTE   W05
 BYTE   PAN   c_v+63
 BYTE   W01
 BYTE   N06  Gs3  v127
 BYTE   N06  Gs4  v064
 BYTE   W06
 BYTE   Cn4  v127
 BYTE   N06  Cn5  v064
 BYTE   W06
 BYTE   Cs4  v127
 BYTE   N06  Cs5  v064
 BYTE   W05
 BYTE   PAN   c_v-64
 BYTE   W01
 BYTE   N06  Fn4  v127
 BYTE   N06  Fn5  v064
 BYTE   W06
 BYTE   Gs4  v127
 BYTE   N06  Gs5  v064
 BYTE   W05
 BYTE   PAN   c_v+63
 BYTE   W01
 BYTE   N06  Bn2  v127
 BYTE   N06  Bn3  v064
 BYTE   W06
// 043   ----------------------------------------
 BYTE   Dn3  v127
 BYTE   N06  Dn4  v064
 BYTE   W06
 BYTE   Fs3  v127
 BYTE   N06  Fs4  v064
 BYTE   W05
 BYTE   PAN   c_v-64
 BYTE   W01
 BYTE   N06  An3  v127
 BYTE   N06  An4  v064
 BYTE   W06
 BYTE   Cs4  v127
 BYTE   N06  Cs5  v064
 BYTE   W06
 BYTE   Dn4  v127
 BYTE   N06  Dn5  v064
 BYTE   W05
 BYTE   PAN   c_v+63
 BYTE   W01
 BYTE   N06  Fs4  v127
 BYTE   N06  Fs5  v064
 BYTE   W06
 BYTE   An4  v127
 BYTE   N06  An5  v064
 BYTE   W05
 BYTE   PAN   c_v-64
 BYTE   W01
 BYTE   N06  Cs3  v127
 BYTE   N06  Cs4  v064
 BYTE   W06
 BYTE   Fn3  v127
 BYTE   N06  Fn4  v064
 BYTE   W06
 BYTE   Bn3  v127
 BYTE   N06  Bn4  v064
 BYTE   W05
 BYTE   PAN   c_v+63
 BYTE   W01
 BYTE   N06  Cs4  v127
 BYTE   N06  Cs5  v064
 BYTE   W06
 BYTE   En4  v127
 BYTE   N06  En5  v064
 BYTE   W06
 BYTE   Fn4  v127
 BYTE   N06  Fn5  v064
 BYTE   W05
 BYTE   PAN   c_v-64
 BYTE   W01
 BYTE   N06  Bn4  v127
 BYTE   N06  Bn5  v064
 BYTE   W06
 BYTE   Cs5  v127
 BYTE   N06  Cs6  v064
 BYTE   W06
 BYTE   Cs5  v076
 BYTE   N06  Cs6  v052
 BYTE   W05
 BYTE   PAN   c_v+0
 BYTE   W01
// 044   ----------------------------------------
 BYTE   N06  Bn4  v127
 BYTE   N06  Bn5  v064
 BYTE   W06
 BYTE   Bn4  v076
 BYTE   N06  Bn5  v052
 BYTE   W06
 BYTE   Bn4  v060
 BYTE   N06  Bn5  v040
 BYTE   W05
 BYTE   PAN   c_v-64
 BYTE   W01
 BYTE   N06  En3  v127
 BYTE   N06  En4  v064
 BYTE   W06
 BYTE   Gn3  v127
 BYTE   N06  Gn4  v064
 BYTE   W05
 BYTE   PAN   c_v+63
 BYTE   W01
 BYTE   N06  Bn3  v127
 BYTE   N06  Bn4  v064
 BYTE   W06
 BYTE   Gn4  v127
 BYTE   N06  Gn5  v064
 BYTE   W05
 BYTE   PAN   c_v-64
 BYTE   W01
 BYTE   N06  Cn5  v127
 BYTE   N06  Cn6  v064
 BYTE   W06
 BYTE   Gn4  v127
 BYTE   N06  Gn5  v064
 BYTE   W06
 BYTE   En4  v127
 BYTE   N06  En5  v064
 BYTE   W05
 BYTE   PAN   c_v+63
 BYTE   W01
 BYTE   N06  Gn4  v127
 BYTE   N06  Gn5  v064
 BYTE   W06
 BYTE   En4  v127
 BYTE   N06  En5  v064
 BYTE   W06
 BYTE   Bn3  v127
 BYTE   N06  Bn4  v064
 BYTE   W05
 BYTE   PAN   c_v-64
 BYTE   W01
 BYTE   N06  En3  v127
 BYTE   N06  En4  v064
 BYTE   W06
 BYTE   Gn3  v127
 BYTE   N06  Gn4  v064
 BYTE   W05
 BYTE   PAN   c_v+63
 BYTE   W01
 BYTE   N06  Bn2  v127
 BYTE   N06  Bn3  v064
 BYTE   W06
// 045   ----------------------------------------
 BYTE   En3  v127
 BYTE   N06  En4  v064
 BYTE   W06
 BYTE   Gn3  v127
 BYTE   N06  Gn4  v064
 BYTE   W06
 BYTE   Bn3  v127
 BYTE   N06  Bn4  v064
 BYTE   W06
 BYTE   Dn4  v127
 BYTE   N06  Dn5  v064
 BYTE   W06
 BYTE   Gn3  v127
 BYTE   N06  Gn4  v064
 BYTE   W06
 BYTE   Bn3  v127
 BYTE   N06  Bn4  v064
 BYTE   W06
 BYTE   Dn4  v127
 BYTE   N06  Dn5  v064
 BYTE   W05
 BYTE   PAN   c_v-64
 BYTE   W01
 BYTE   N06  Gn4  v127
 BYTE   N06  Gn5  v064
 BYTE   W06
 BYTE   Dn4  v127
 BYTE   N06  Dn5  v064
 BYTE   W06
 BYTE   En4  v127
 BYTE   N06  En5  v064
 BYTE   W06
 BYTE   Gn4  v127
 BYTE   N06  Gn5  v064
 BYTE   W06
 BYTE   Bn4  v127
 BYTE   N06  Bn5  v064
 BYTE   W06
 BYTE   En4  v127
 BYTE   N06  En5  v064
 BYTE   W06
 BYTE   Gn4  v127
 BYTE   N06  Gn5  v064
 BYTE   W06
 BYTE   Bn4  v127
 BYTE   N06  Bn5  v064
 BYTE   W05
 BYTE   PAN   c_v+63
 BYTE   W01
 BYTE   N06  Bn2  v127
 BYTE   N06  Bn3  v064
 BYTE   W06
// 046   ----------------------------------------
 BYTE   En3  v127
 BYTE   N06  En4  v064
 BYTE   W06
 BYTE   Gn3  v127
 BYTE   N06  Gn4  v064
 BYTE   W06
 BYTE   Bn3  v127
 BYTE   N06  Bn4  v064
 BYTE   W06
 BYTE   Dn4  v127
 BYTE   N06  Dn5  v064
 BYTE   W06
 BYTE   Gn3  v127
 BYTE   N06  Gn4  v064
 BYTE   W06
 BYTE   Bn3  v127
 BYTE   N06  Bn4  v064
 BYTE   W06
 BYTE   Dn4  v127
 BYTE   N06  Dn5  v064
 BYTE   W05
 BYTE   PAN   c_v-64
 BYTE   W01
 BYTE   N06  Gn4  v127
 BYTE   N06  Gn5  v064
 BYTE   W06
 BYTE   Dn4  v127
 BYTE   N06  Dn5  v064
 BYTE   W06
 BYTE   Bn3  v127
 BYTE   N06  Bn4  v064
 BYTE   W06
 BYTE   Gn3  v127
 BYTE   N06  Gn4  v064
 BYTE   W06
 BYTE   Bn3  v127
 BYTE   N06  Bn4  v064
 BYTE   W06
 BYTE   Gn3  v127
 BYTE   N06  Gn4  v064
 BYTE   W06
 BYTE   En3  v127
 BYTE   N06  En4  v064
 BYTE   W06
 BYTE   Dn3  v127
 BYTE   N06  Dn4  v064
 BYTE   W05
 BYTE   PAN   c_v+63
 BYTE   W01
 BYTE   N06  Cn3  v127
 BYTE   N06  Cn4  v064
 BYTE   W06
// 047   ----------------------------------------
 BYTE   En3  v127
 BYTE   N06  En4  v064
 BYTE   W06
 BYTE   Gn3  v127
 BYTE   N06  Gn4  v064
 BYTE   W06
 BYTE   Bn3  v127
 BYTE   N06  Bn4  v064
 BYTE   W06
 BYTE   Dn4  v127
 BYTE   N06  Dn5  v064
 BYTE   W06
 BYTE   Gn3  v127
 BYTE   N06  Gn4  v064
 BYTE   W06
 BYTE   Bn3  v127
 BYTE   N06  Bn4  v064
 BYTE   W06
 BYTE   Dn4  v127
 BYTE   N06  Dn5  v064
 BYTE   W05
 BYTE   PAN   c_v-64
 BYTE   W01
 BYTE   N06  Gn4  v127
 BYTE   N06  Gn5  v064
 BYTE   W06
 BYTE   Cn4  v127
 BYTE   N06  Cn5  v064
 BYTE   W06
 BYTE   En4  v127
 BYTE   N06  En5  v064
 BYTE   W06
 BYTE   Gn4  v127
 BYTE   N06  Gn5  v064
 BYTE   W06
 BYTE   Bn4  v127
 BYTE   N06  Bn5  v064
 BYTE   W06
 BYTE   Dn5  v127
 BYTE   N06  Dn6  v064
 BYTE   W06
 BYTE   En5  v127
 BYTE   N06  En6  v064
 BYTE   W06
 BYTE   Gn5  v127
 BYTE   N06  Gn6  v064
 BYTE   W05
 BYTE   PAN   c_v+63
 BYTE   W01
 BYTE   N06  Fs2  v127
 BYTE   N06  Fs3  v064
 BYTE   W06
// 048   ----------------------------------------
 BYTE   As2  v127
 BYTE   N06  As3  v064
 BYTE   W06
 BYTE   En3  v127
 BYTE   N06  En4  v064
 BYTE   W06
 BYTE   Fs3  v127
 BYTE   N06  Fs4  v064
 BYTE   W06
 BYTE   An3  v127
 BYTE   N06  An4  v064
 BYTE   W06
 BYTE   As3  v127
 BYTE   N06  As4  v064
 BYTE   W06
 BYTE   En4  v127
 BYTE   N06  En5  v064
 BYTE   W06
 BYTE   Fs4  v127
 BYTE   N06  Fs5  v064
 BYTE   W05
 BYTE   PAN   c_v-64
 BYTE   W01
 BYTE   N06  As3  v127
 BYTE   N06  As4  v064
 BYTE   W06
 BYTE   En4  v127
 BYTE   N06  En5  v064
 BYTE   W06
 BYTE   Fs4  v127
 BYTE   N06  Fs5  v064
 BYTE   W05
 BYTE   PAN   c_v+63
 BYTE   W01
 BYTE   N06  As4  v127
 BYTE   N06  As5  v064
 BYTE   W06
 BYTE   En5  v127
 BYTE   N06  En6  v064
 BYTE   W06
 BYTE   Fs5  v127
 BYTE   N06  Fs6  v064
 BYTE   W05
 BYTE   PAN   c_v-64
 BYTE   W01
 BYTE   N06  An5  v127
 BYTE   N06  An6  v064
 BYTE   W06
 BYTE   As5  v127
 BYTE   N06  As6  v064
 BYTE   W05
 BYTE   PAN   c_v+0
 BYTE   W01
 BYTE   N06  Fs4  v127
 BYTE   N06  Fs5  v064
 BYTE   W06
// 049   ----------------------------------------
 BYTE   Fs4  v076
 BYTE   N06  Fs5  v052
 BYTE   W06
 BYTE   Fs4  v064
 BYTE   N06  Fs5  v040
 BYTE   W06
 BYTE   Fs4  v052
 BYTE   N06  Fs5  v028
 BYTE   W06
 BYTE   Fs3  v127
 BYTE   N06  Fs4  v064
 BYTE   W06
 BYTE   En3  v127
 BYTE   N06  En4  v064
 BYTE   W06
 BYTE   Fs3  v127
 BYTE   N06  Fs4  v064
 BYTE   W06
 BYTE   An3  v127
 BYTE   N06  An4  v064
 BYTE   W05
 BYTE   PAN   c_v-64
 BYTE   W01
 BYTE   N03  Bn3  v127
 BYTE   N03  Bn4  v064
 BYTE   W03
 BYTE   Bn3  v076
 BYTE   N03  Bn4  v052
 BYTE   W03
 BYTE   Fn3  v127
 BYTE   N03  Fn4  v064
 BYTE   W03
 BYTE   Fn3  v076
 BYTE   N03  Fn4  v052
 BYTE   W02
 BYTE   PAN   c_v+63
 BYTE   W01
 BYTE   N03  En3  v127
 BYTE   N03  En4  v064
 BYTE   W03
 BYTE   En3  v076
 BYTE   N03  En4  v052
 BYTE   W03
 BYTE   Dn3  v127
 BYTE   N03  Dn4  v064
 BYTE   W03
 BYTE   Dn3  v076
 BYTE   N03  Dn4  v052
 BYTE   W02
 BYTE   PAN   c_v+0
 BYTE   W01
 BYTE   N06  Fs3  v127
 BYTE   N06  Fs4  v064
 BYTE   W06
 BYTE   En3  v127
 BYTE   N06  En4  v064
 BYTE   W06
 BYTE   Fs3  v127
 BYTE   N06  Fs4  v064
 BYTE   W06
 BYTE   Gs3  v127
 BYTE   N06  Gs4  v064
 BYTE   W05
 BYTE   PAN   c_v+63
 BYTE   W01
 BYTE   N03  Bn3  v127
 BYTE   N03  Bn4  v064
 BYTE   W03
 BYTE   Bn3  v076
 BYTE   N03  Bn4  v052
 BYTE   W03
// 050   ----------------------------------------
 BYTE   En3  v127
 BYTE   N03  En4  v064
 BYTE   W03
 BYTE   En3  v076
 BYTE   N03  En4  v052
 BYTE   W02
 BYTE   PAN   c_v-64
 BYTE   W01
 BYTE   N03  Dn3  v127
 BYTE   N03  Dn4  v064
 BYTE   W03
 BYTE   Dn3  v076
 BYTE   N03  Dn4  v052
 BYTE   W03
 BYTE   Bn2  v127
 BYTE   N03  Bn3  v064
 BYTE   W03
 BYTE   Bn2  v076
 BYTE   N03  Bn3  v052
 BYTE   W02
 BYTE   PAN   c_v+0
 BYTE   W01
 BYTE   N06  Fs3  v127
 BYTE   N06  Fs4  v064
 BYTE   W06
 BYTE   En3  v127
 BYTE   N06  En4  v064
 BYTE   W06
 BYTE   Fs3  v127
 BYTE   N06  Fs4  v064
 BYTE   W06
 BYTE   Cn4  v127
 BYTE   N06  Cn5  v064
 BYTE   W05
 BYTE   PAN   c_v-64
 BYTE   W01
 BYTE   N06  Cn4  v076
 BYTE   N06  Cn5  v052
 BYTE   W06
 BYTE   Cn4  v064
 BYTE   N06  Cn5  v040
 BYTE   W06
 BYTE   Cn4  v052
 BYTE   N06  Cn5  v028
 BYTE   W05
 BYTE   PAN   c_v+63
 BYTE   W01
 BYTE   N06  Bn3  v127
 BYTE   N06  Bn4  v064
 BYTE   W06
 BYTE   Bn3  v076
 BYTE   N06  Bn4  v052
 BYTE   W06
 BYTE   Bn3  v064
 BYTE   N06  Bn4  v040
 BYTE   W05
 BYTE   PAN   c_v-64
 BYTE   W01
 BYTE   N06  An3  v127
 BYTE   N06  An4  v064
 BYTE   W06
 BYTE   An3  v076
 BYTE   N06  An4  v052
 BYTE   W05
 BYTE   PAN   c_v+0
 BYTE   W01
 BYTE   N06  Fs4  v127
 BYTE   N06  Fs5  v064
 BYTE   W06
// 051   ----------------------------------------
 BYTE   Fs4  v076
 BYTE   N06  Fs5  v052
 BYTE   W06
 BYTE   Fs4  v064
 BYTE   N06  Fs5  v040
 BYTE   W06
 BYTE   Fs4  v052
 BYTE   N06  Fs5  v028
 BYTE   W06
 BYTE   Fs3  v127
 BYTE   N06  Fs4  v064
 BYTE   W06
 BYTE   En3  v127
 BYTE   N06  En4  v064
 BYTE   W06
 BYTE   Fs3  v127
 BYTE   N06  Fs4  v064
 BYTE   W06
 BYTE   An3  v127
 BYTE   N06  An4  v064
 BYTE   W05
 BYTE   PAN   c_v-64
 BYTE   W01
 BYTE   N03  Bn3  v127
 BYTE   N03  Bn4  v064
 BYTE   W03
 BYTE   Bn3  v076
 BYTE   N03  Bn4  v052
 BYTE   W03
 BYTE   Fn3  v127
 BYTE   N03  Fn4  v064
 BYTE   W03
 BYTE   Fn3  v076
 BYTE   N03  Fn4  v052
 BYTE   W02
 BYTE   PAN   c_v+63
 BYTE   W01
 BYTE   N03  En3  v127
 BYTE   N03  En4  v064
 BYTE   W03
 BYTE   En3  v076
 BYTE   N03  En4  v052
 BYTE   W03
 BYTE   Dn3  v127
 BYTE   N03  Dn4  v064
 BYTE   W03
 BYTE   Dn3  v076
 BYTE   N03  Dn4  v052
 BYTE   W02
 BYTE   PAN   c_v+0
 BYTE   W01
 BYTE   N06  Fs3  v127
 BYTE   N06  Fs4  v064
 BYTE   W06
 BYTE   En3  v127
 BYTE   N06  En4  v064
 BYTE   W06
 BYTE   Fs3  v127
 BYTE   N06  Fs4  v064
 BYTE   W06
 BYTE   Bn3  v127
 BYTE   N06  Bn4  v064
 BYTE   W05
 BYTE   PAN   c_v+63
 BYTE   W01
 BYTE   N03  Bn3  v127
 BYTE   N03  Bn4  v064
 BYTE   W03
 BYTE   Bn3  v076
 BYTE   N03  Bn4  v052
 BYTE   W03
// 052   ----------------------------------------
 BYTE   En3  v127
 BYTE   N03  En4  v064
 BYTE   W03
 BYTE   En3  v076
 BYTE   N03  En4  v052
 BYTE   W02
 BYTE   PAN   c_v-64
 BYTE   W01
 BYTE   N03  Dn3  v127
 BYTE   N03  Dn4  v064
 BYTE   W03
 BYTE   Dn3  v076
 BYTE   N03  Dn4  v052
 BYTE   W03
 BYTE   Bn2  v127
 BYTE   N03  Bn3  v064
 BYTE   W03
 BYTE   Bn2  v076
 BYTE   N03  Bn3  v052
 BYTE   W02
 BYTE   PAN   c_v+0
 BYTE   W01
 BYTE   N06  Fs3  v127
 BYTE   N06  Fs4  v064
 BYTE   W06
 BYTE   En3  v127
 BYTE   N06  En4  v064
 BYTE   W06
 BYTE   Fs3  v127
 BYTE   N06  Fs4  v064
 BYTE   W06
 BYTE   Cn4  v127
 BYTE   N06  Cn5  v064
 BYTE   W05
 BYTE   PAN   c_v-64
 BYTE   W01
 BYTE   N03  Bn3  v127
 BYTE   N03  Bn4  v064
 BYTE   W03
 BYTE   Bn3  v076
 BYTE   N03  Bn4  v052
 BYTE   W03
 BYTE   Cn4  v127
 BYTE   N03  Cn5  v064
 BYTE   W03
 BYTE   Cn4  v076
 BYTE   N03  Cn5  v052
 BYTE   W03
 BYTE   Cs4  v127
 BYTE   N03  Cs5  v064
 BYTE   W03
 BYTE   Cs4  v076
 BYTE   N03  Cs5  v052
 BYTE   W02
 BYTE   PAN   c_v+63
 BYTE   W01
 BYTE   N03  Dn4  v127
 BYTE   N03  Dn5  v064
 BYTE   W03
 BYTE   Dn4  v076
 BYTE   N03  Dn5  v052
 BYTE   W03
 BYTE   Ds4  v127
 BYTE   N03  Ds5  v064
 BYTE   W03
 BYTE   Ds4  v076
 BYTE   N03  Ds5  v052
 BYTE   W03
 BYTE   En4  v127
 BYTE   N03  En5  v064
 BYTE   W03
 BYTE   En4  v076
 BYTE   N03  En5  v052
 BYTE   W02
 BYTE   PAN   c_v-64
 BYTE   W01
 BYTE   N03  Fn4  v127
 BYTE   N03  Fn5  v064
 BYTE   W03
 BYTE   Fn4  v076
 BYTE   N03  Fn5  v052
 BYTE   W03
 BYTE   Fs4  v127
 BYTE   N03  Fs5  v064
 BYTE   W03
 BYTE   Fs4  v076
 BYTE   N03  Fs5  v052
 BYTE   W36
// 053   ----------------------------------------
 BYTE   W02
 BYTE   FINE

//**************** Track 4 (Midi-Chn.3) ****************//

MegamanBattleNetwork5vsNebulaGrayThegis_004:
// 000   ----------------------------------------
 BYTE   KEYSH   MegamanBattleNetwork5vsNebulaGrayThegis_key+0
 BYTE   VOICE   30
 BYTE   VOL   47*MegamanBattleNetwork5vsNebulaGrayThegis_mvl/mxv
 BYTE   W96
// 001   ----------------------------------------
 BYTE   W96
// 002   ----------------------------------------
 BYTE   W96
// 003   ----------------------------------------
 BYTE   W96
// 004   ----------------------------------------
Label_3_0125C57A:
 BYTE   N72  Gn4  v127
 BYTE   N72  Gn5  v056
 BYTE   W72
 BYTE   N06  Gn4  v076
 BYTE   N06  Gn5  v036
 BYTE   W06
 BYTE   Gn4  v060
 BYTE   N06  Gn5  v028
 BYTE   W06
 BYTE   Fn4  v127
 BYTE   N06  Fn5  v056
 BYTE   W06
 BYTE   Ds4  v127
 BYTE   N06  Ds5  v056
 BYTE   W06
 BYTE   PEND 
// 005   ----------------------------------------
 BYTE   N42  Dn4  v127
 BYTE   N42  Dn5  v056
 BYTE   W42
 BYTE   N06  Dn4  v076
 BYTE   N06  Dn5  v040
 BYTE   W06
 BYTE   N24  Cn4  v127
 BYTE   N24  Cn5  v056
 BYTE   W24
 BYTE   Ds4  v127
 BYTE   N24  Ds5  v056
 BYTE   W24
// 006   ----------------------------------------
 BYTE   N72  Dn4  v127
 BYTE   N72  Dn5  v056
 BYTE   W72
 BYTE   N06  Dn4  v076
 BYTE   N06  Dn5  v036
 BYTE   W06
 BYTE   Dn4  v060
 BYTE   N06  Dn5  v028
 BYTE   W06
 BYTE   Cn4  v127
 BYTE   N06  Cn5  v056
 BYTE   W06
 BYTE   As3  v127
 BYTE   N06  As4  v056
 BYTE   W06
// 007   ----------------------------------------
 BYTE   N18  An3  v127
 BYTE   N18  An4  v056
 BYTE   W18
 BYTE   As3  v127
 BYTE   N18  As4  v056
 BYTE   W18
 BYTE   N12  Cn4  v127
 BYTE   N12  Cn5  v056
 BYTE   W12
 BYTE   N18  Fn3  v127
 BYTE   N18  Fn4  v056
 BYTE   W18
 BYTE   An3  v127
 BYTE   N18  An4  v056
 BYTE   W18
 BYTE   N06  Dn4  v127
 BYTE   N06  Dn5  v056
 BYTE   W06
 BYTE   Dn4  v076
 BYTE   N06  Dn5  v040
 BYTE   W06
// 008   ----------------------------------------
 BYTE   PATT
  POIN2 Label_3_0125C57A
// 009   ----------------------------------------
 BYTE   N42  Dn4  v127
 BYTE   N42  Dn5  v056
 BYTE   W42
 BYTE   N06  Dn4  v076
 BYTE   N06  Dn5  v040
 BYTE   W06
 BYTE   N24  Ds4  v127
 BYTE   N24  Ds5  v056
 BYTE   W24
 BYTE   Fn4  v127
 BYTE   N24  Fn5  v056
 BYTE   W24
// 010   ----------------------------------------
 BYTE   N72  Gn4  v127
 BYTE   N72  Gn5  v056
 BYTE   W72
 BYTE   N06  Gn4  v076
 BYTE   N06  Gn5  v036
 BYTE   W06
 BYTE   Gn4  v060
 BYTE   N06  Gn5  v028
 BYTE   W06
 BYTE   Fn4  v127
 BYTE   N06  Fn5  v056
 BYTE   W06
 BYTE   Gs4  v127
 BYTE   N06  Gs5  v056
 BYTE   W06
// 011   ----------------------------------------
 BYTE   Gn4  v127
 BYTE   N06  Gn5  v056
 BYTE   W06
 BYTE   Gn4  v076
 BYTE   N06  Gn5  v040
 BYTE   W06
 BYTE   Gn4  v052
 BYTE   N06  Gn5  v028
 BYTE   W06
 BYTE   Fn4  v127
 BYTE   N06  Fn5  v056
 BYTE   W06
 BYTE   Fn4  v076
 BYTE   N06  Fn5  v040
 BYTE   W06
 BYTE   Fn4  v052
 BYTE   N06  Fn5  v028
 BYTE   W06
 BYTE   Gs4  v127
 BYTE   N06  Gs5  v056
 BYTE   W06
 BYTE   Gs4  v076
 BYTE   N06  Gs5  v040
 BYTE   W06
 BYTE   Gn4  v127
 BYTE   N06  Gn5  v056
 BYTE   W06
 BYTE   Gn4  v076
 BYTE   N06  Gn5  v040
 BYTE   W06
 BYTE   Gn4  v052
 BYTE   N06  Gn5  v028
 BYTE   W06
 BYTE   Gs4  v127
 BYTE   N06  Gs5  v056
 BYTE   W06
 BYTE   Gs4  v076
 BYTE   N06  Gs5  v040
 BYTE   W06
 BYTE   Gs4  v052
 BYTE   N06  Gs5  v028
 BYTE   W06
 BYTE   As4  v127
 BYTE   N06  As5  v056
 BYTE   W06
 BYTE   As4  v076
 BYTE   N06  As5  v040
 BYTE   W06
// 012   ----------------------------------------
 BYTE   As4  v052
 BYTE   N06  As5  v028
 BYTE   W06
Label_3_0125C6AA:
 BYTE   W90
// 013   ----------------------------------------
 BYTE   W96
// 014   ----------------------------------------
 BYTE   W96
// 015   ----------------------------------------
 BYTE   W96
// 016   ----------------------------------------
 BYTE   W96
// 017   ----------------------------------------
 BYTE   W96
// 018   ----------------------------------------
 BYTE   W96
// 019   ----------------------------------------
 BYTE   W96
// 020   ----------------------------------------
 BYTE   W96
// 021   ----------------------------------------
 BYTE   W96
// 022   ----------------------------------------
 BYTE   W96
// 023   ----------------------------------------
 BYTE   W96
// 024   ----------------------------------------
 BYTE   W96
// 025   ----------------------------------------
 BYTE   W96
// 026   ----------------------------------------
 BYTE   W96
// 027   ----------------------------------------
 BYTE   W96
// 028   ----------------------------------------
 BYTE   W24
 BYTE   N72  Gn4  v127
 BYTE   N72  Gn5  v056
 BYTE   W72
// 029   ----------------------------------------
 BYTE   N06  Gn4  v076
 BYTE   N06  Gn5  v036
 BYTE   W06
 BYTE   Gn4  v060
 BYTE   N06  Gn5  v028
 BYTE   W06
 BYTE   Fn4  v127
 BYTE   N06  Fn5  v056
 BYTE   W06
 BYTE   Ds4  v127
 BYTE   N06  Ds5  v056
 BYTE   W06
 BYTE   N42  Dn4  v127
 BYTE   N42  Dn5  v056
 BYTE   W42
 BYTE   N06  Dn4  v076
 BYTE   N06  Dn5  v040
 BYTE   W06
 BYTE   N24  Cn4  v127
 BYTE   N24  Cn5  v056
 BYTE   W24
// 030   ----------------------------------------
 BYTE   Ds4  v127
 BYTE   N24  Ds5  v056
 BYTE   W24
 BYTE   N72  Dn4  v127
 BYTE   N72  Dn5  v056
 BYTE   W72
// 031   ----------------------------------------
 BYTE   N06  Dn4  v076
 BYTE   N06  Dn5  v036
 BYTE   W06
 BYTE   Dn4  v060
 BYTE   N06  Dn5  v028
 BYTE   W06
 BYTE   Cn4  v127
 BYTE   N06  Cn5  v056
 BYTE   W06
 BYTE   As3  v127
 BYTE   N06  As4  v056
 BYTE   W06
 BYTE   N18  An3  v127
 BYTE   N18  An4  v056
 BYTE   W18
 BYTE   As3  v127
 BYTE   N18  As4  v056
 BYTE   W18
 BYTE   N12  Cn4  v127
 BYTE   N12  Cn5  v056
 BYTE   W12
 BYTE   N18  Fn3  v127
 BYTE   N18  Fn4  v056
 BYTE   W18
 BYTE   An3  v127
 BYTE   N18  An4  v056
 BYTE   W06
// 032   ----------------------------------------
 BYTE   W12
 BYTE   N06  Dn4  v127
 BYTE   N06  Dn5  v056
 BYTE   W06
 BYTE   Dn4  v076
 BYTE   N06  Dn5  v040
 BYTE   W06
 BYTE   N72  Gn4  v127
 BYTE   N72  Gn5  v056
 BYTE   W72
// 033   ----------------------------------------
 BYTE   N06  Gn4  v076
 BYTE   N06  Gn5  v036
 BYTE   W06
 BYTE   Gn4  v060
 BYTE   N06  Gn5  v028
 BYTE   W06
 BYTE   Fn4  v127
 BYTE   N06  Fn5  v056
 BYTE   W06
 BYTE   Ds4  v127
 BYTE   N06  Ds5  v056
 BYTE   W06
 BYTE   N42  Dn4  v127
 BYTE   N42  Dn5  v056
 BYTE   W42
 BYTE   N06  Dn4  v076
 BYTE   N06  Dn5  v040
 BYTE   W06
 BYTE   N24  Ds4  v127
 BYTE   N24  Ds5  v056
 BYTE   W24
// 034   ----------------------------------------
 BYTE   Fn4  v127
 BYTE   N24  Fn5  v056
 BYTE   W24
 BYTE   N72  Gn4  v127
 BYTE   N72  Gn5  v056
 BYTE   W72
// 035   ----------------------------------------
 BYTE   N06  Gn4  v076
 BYTE   N06  Gn5  v036
 BYTE   W06
 BYTE   Gn4  v060
 BYTE   N06  Gn5  v028
 BYTE   W06
 BYTE   Fn4  v127
 BYTE   N06  Fn5  v056
 BYTE   W06
 BYTE   Gs4  v127
 BYTE   N06  Gs5  v056
 BYTE   W06
 BYTE   Gn4  v127
 BYTE   N06  Gn5  v056
 BYTE   W06
 BYTE   Gn4  v076
 BYTE   N06  Gn5  v040
 BYTE   W06
 BYTE   Gn4  v052
 BYTE   N06  Gn5  v028
 BYTE   W06
 BYTE   Fn4  v127
 BYTE   N06  Fn5  v056
 BYTE   W06
 BYTE   Fn4  v076
 BYTE   N06  Fn5  v040
 BYTE   W06
 BYTE   Fn4  v052
 BYTE   N06  Fn5  v028
 BYTE   W06
 BYTE   Gs4  v127
 BYTE   N06  Gs5  v056
 BYTE   W06
 BYTE   Gs4  v076
 BYTE   N06  Gs5  v040
 BYTE   W06
 BYTE   Gn4  v127
 BYTE   N06  Gn5  v056
 BYTE   W06
 BYTE   Gn4  v076
 BYTE   N06  Gn5  v040
 BYTE   W06
 BYTE   Gn4  v052
 BYTE   N06  Gn5  v028
 BYTE   W06
 BYTE   Gs4  v127
 BYTE   N06  Gs5  v056
 BYTE   W06
// 036   ----------------------------------------
 BYTE   Gs4  v076
 BYTE   N06  Gs5  v040
 BYTE   W06
 BYTE   Gs4  v052
 BYTE   N06  Gs5  v028
 BYTE   W06
 BYTE   As4  v127
 BYTE   N06  As5  v056
 BYTE   W06
 BYTE   As4  v076
 BYTE   N06  As5  v040
 BYTE   W06
 BYTE   As4  v052
 BYTE   N06  As5  v028
 BYTE   W06
 BYTE   GoTo
  POIN2 Label_3_0125C6AA
// 037   ----------------------------------------
 BYTE   W66
 BYTE   W96
// 038   ----------------------------------------
 BYTE   W96
// 039   ----------------------------------------
 BYTE   W96
// 040   ----------------------------------------
 BYTE   W96
// 041   ----------------------------------------
 BYTE   W96
// 042   ----------------------------------------
 BYTE   W96
// 043   ----------------------------------------
 BYTE   W96
// 044   ----------------------------------------
 BYTE   W96
// 045   ----------------------------------------
 BYTE   W96
// 046   ----------------------------------------
 BYTE   W96
// 047   ----------------------------------------
 BYTE   W96
// 048   ----------------------------------------
 BYTE   W96
// 049   ----------------------------------------
 BYTE   W96
// 050   ----------------------------------------
 BYTE   W96
// 051   ----------------------------------------
 BYTE   W96
// 052   ----------------------------------------
 BYTE   W56
 BYTE   W03
 BYTE   FINE

//**************** Track 5 (Midi-Chn.4) ****************//

MegamanBattleNetwork5vsNebulaGrayThegis_005:
// 000   ----------------------------------------
 BYTE   KEYSH   MegamanBattleNetwork5vsNebulaGrayThegis_key+0
 BYTE   VOICE   4
 BYTE   VOL   43*MegamanBattleNetwork5vsNebulaGrayThegis_mvl/mxv
 BYTE   W96
// 001   ----------------------------------------
 BYTE   W96
// 002   ----------------------------------------
 BYTE   W96
// 003   ----------------------------------------
 BYTE   W96
// 004   ----------------------------------------
 BYTE   W96
// 005   ----------------------------------------
 BYTE   W96
// 006   ----------------------------------------
 BYTE   W96
// 007   ----------------------------------------
 BYTE   W96
// 008   ----------------------------------------
 BYTE   W96
// 009   ----------------------------------------
 BYTE   W96
// 010   ----------------------------------------
 BYTE   W96
// 011   ----------------------------------------
 BYTE   W96
// 012   ----------------------------------------
 BYTE   W06
Label_4_0115FC6B:
 BYTE   N06  Cs5  v127
 BYTE   W06
 BYTE   Cs5  v076
 BYTE   W06
 BYTE   Cs5  v052
 BYTE   W06
 BYTE   N18  Cs5  v127
 BYTE   W18
 BYTE   N06  Cs5  v076
 BYTE   W06
 BYTE   N16  Bn4  v127
 BYTE   W18
 BYTE   As4
 BYTE   W18
 BYTE   N11  Gs4
 BYTE   W12
// 013   ----------------------------------------
Label_4_0115FC86:
 BYTE   N12  Fn4  v127
 BYTE   W12
 BYTE   Fs4
 BYTE   W12
 BYTE   Cs5
 BYTE   W12
 BYTE   N24  Gs4
 BYTE   W24
 BYTE   Fs4
 BYTE   W24
 BYTE   N06  Fn4
 BYTE   W06
 BYTE   Fn4  v076
 BYTE   W06
 BYTE   PEND 
// 014   ----------------------------------------
 BYTE   PATT
  POIN2 Label_4_0115FC86
// 015   ----------------------------------------
 BYTE   N18  Fn4  v127
 BYTE   W18
 BYTE   Fs4
 BYTE   W18
 BYTE   Ds4
 BYTE   W18
 BYTE   N06  Ds4  v076
 BYTE   W06
 BYTE   N12  Ds4  v127
 BYTE   W12
 BYTE   Fs4
 BYTE   W12
 BYTE   As4
 BYTE   W12
// 016   ----------------------------------------
 BYTE   N24  Gs4
 BYTE   W24
 BYTE   Fs4
 BYTE   W24
 BYTE   Fn4
 BYTE   W24
 BYTE   Cs4
 BYTE   W24
// 017   ----------------------------------------
 BYTE   N18  Ds4
 BYTE   W18
 BYTE   Fs4
 BYTE   W18
 BYTE   N06  As4
 BYTE   W06
 BYTE   As4  v076
 BYTE   W06
 BYTE   N18  Fn4  v127
 BYTE   W18
 BYTE   Gs4
 BYTE   W18
 BYTE   N06  Cn5
 BYTE   W06
 BYTE   Cn5  v076
 BYTE   W06
// 018   ----------------------------------------
 BYTE   N18  Fs4  v127
 BYTE   W18
 BYTE   An4
 BYTE   W18
 BYTE   N06  Cs5
 BYTE   W06
 BYTE   Cs5  v076
 BYTE   W06
 BYTE   En5  v127
 BYTE   W06
 BYTE   En5  v076
 BYTE   W06
 BYTE   Dn5  v127
 BYTE   W06
 BYTE   Dn5  v076
 BYTE   W06
 BYTE   Cs5  v127
 BYTE   W06
 BYTE   Cs5  v076
 BYTE   W06
 BYTE   Bn4  v127
 BYTE   W06
 BYTE   Bn4  v076
 BYTE   W06
// 019   ----------------------------------------
 BYTE   Bn4  v052
 BYTE   W06
 BYTE   Dn5  v127
 BYTE   W06
 BYTE   Dn5  v076
 BYTE   W06
 BYTE   Dn5  v052
 BYTE   W06
 BYTE   N18  Dn5  v127
 BYTE   W18
 BYTE   N06  Dn5  v076
 BYTE   W06
 BYTE   N16  Cn5  v127
 BYTE   W18
 BYTE   Bn4
 BYTE   W18
 BYTE   N11  An4
 BYTE   W12
// 020   ----------------------------------------
 BYTE   N12  Fs4
 BYTE   W12
 BYTE   Gn4
 BYTE   W12
 BYTE   Dn5
 BYTE   W12
 BYTE   N24  An4
 BYTE   W24
 BYTE   Gn4
 BYTE   W24
 BYTE   N06  Fs4
 BYTE   W06
 BYTE   Fs4  v076
 BYTE   W06
// 021   ----------------------------------------
 BYTE   N12  Fs4  v127
 BYTE   W12
 BYTE   Gn4
 BYTE   W12
 BYTE   Fs5
 BYTE   W12
 BYTE   N24  Bn4
 BYTE   W24
 BYTE   Cs5
 BYTE   W24
 BYTE   N06  Dn5
 BYTE   W06
 BYTE   Dn5  v076
 BYTE   W06
// 022   ----------------------------------------
 BYTE   N72  En5  v127
 BYTE   W72
 BYTE   N12  En5  v076
 BYTE   W12
 BYTE   En5  v052
 BYTE   W12
// 023   ----------------------------------------
 BYTE   N32  Dn5  v127
 BYTE   W36
 BYTE   Cs5
 BYTE   W36
 BYTE   N24  An4
 BYTE   W24
// 024   ----------------------------------------
 BYTE   N06  Bn4
 BYTE   W06
 BYTE   Bn4  v076
 BYTE   W06
 BYTE   Bn4  v064
 BYTE   W06
 BYTE   Bn4  v052
 BYTE   W06
 BYTE   Bn3  v127
 BYTE   W06
 BYTE   An3
 BYTE   W06
 BYTE   Bn3
 BYTE   W06
 BYTE   Dn4
 BYTE   W06
 BYTE   Dn4  v076
 BYTE   W06
 BYTE   Dn4  v064
 BYTE   W06
 BYTE   Dn4  v052
 BYTE   W06
 BYTE   Dn4  v048
 BYTE   W06
 BYTE   Bn3  v127
 BYTE   W06
 BYTE   An3
 BYTE   W06
 BYTE   Bn3
 BYTE   W06
 BYTE   En4
 BYTE   W06
// 025   ----------------------------------------
 BYTE   En4  v076
 BYTE   W06
 BYTE   En4  v064
 BYTE   W06
 BYTE   En4  v052
 BYTE   W06
 BYTE   En4  v048
 BYTE   W06
 BYTE   Bn3  v127
 BYTE   W06
 BYTE   An3
 BYTE   W06
 BYTE   Bn3
 BYTE   W06
 BYTE   Fn4
 BYTE   W06
 BYTE   Fn4  v076
 BYTE   W06
 BYTE   Fn4  v064
 BYTE   W06
 BYTE   Fn4  v052
 BYTE   W06
 BYTE   En4  v127
 BYTE   W06
 BYTE   En4  v076
 BYTE   W06
 BYTE   En4  v064
 BYTE   W06
 BYTE   Dn4  v127
 BYTE   W06
 BYTE   Dn4  v076
 BYTE   W06
// 026   ----------------------------------------
 BYTE   Bn3  v127
 BYTE   W06
 BYTE   Bn3  v076
 BYTE   W06
 BYTE   Bn3  v064
 BYTE   W06
 BYTE   Bn3  v052
 BYTE   W06
 BYTE   Bn3  v127
 BYTE   W06
 BYTE   An3
 BYTE   W06
 BYTE   Bn3
 BYTE   W06
 BYTE   Dn4
 BYTE   W06
 BYTE   Dn4  v076
 BYTE   W06
 BYTE   Dn4  v064
 BYTE   W06
 BYTE   Dn4  v052
 BYTE   W06
 BYTE   Dn4  v048
 BYTE   W06
 BYTE   Bn3  v127
 BYTE   W06
 BYTE   An3
 BYTE   W06
 BYTE   Bn3
 BYTE   W06
 BYTE   En4
 BYTE   W06
// 027   ----------------------------------------
 BYTE   En4  v076
 BYTE   W06
 BYTE   En4  v064
 BYTE   W06
 BYTE   En4  v052
 BYTE   W06
 BYTE   En4  v048
 BYTE   W06
 BYTE   Bn3  v127
 BYTE   W06
 BYTE   An3
 BYTE   W06
 BYTE   Bn3
 BYTE   W06
 BYTE   Fn4
 BYTE   W06
 BYTE   Fn4  v076
 BYTE   W06
 BYTE   Fn4  v064
 BYTE   W06
 BYTE   Fn4  v056
 BYTE   W06
 BYTE   Fn4  v096
 BYTE   W06
 BYTE   Fn4  v068
 BYTE   W06
 BYTE   Fn4  v060
 BYTE   W06
 BYTE   Fn4  v076
 BYTE   W06
 BYTE   Fn4  v060
 BYTE   W06
// 028   ----------------------------------------
 BYTE   W96
// 029   ----------------------------------------
 BYTE   W96
// 030   ----------------------------------------
 BYTE   W96
// 031   ----------------------------------------
 BYTE   W96
// 032   ----------------------------------------
 BYTE   W96
// 033   ----------------------------------------
 BYTE   W96
// 034   ----------------------------------------
 BYTE   W96
// 035   ----------------------------------------
 BYTE   W96
// 036   ----------------------------------------
 BYTE   W30
 BYTE   GoTo
  POIN2 Label_4_0115FC6B
// 037   ----------------------------------------
 BYTE   N06  Cs5  v127
 BYTE   W06
 BYTE   Cs5  v076
 BYTE   W06
 BYTE   Cs5  v052
 BYTE   W06
 BYTE   N18  Cs5  v127
 BYTE   W18
 BYTE   N06  Cs5  v076
 BYTE   W06
 BYTE   N16  Bn4  v127
 BYTE   W18
 BYTE   As4
 BYTE   W06
 BYTE   W12
 BYTE   N11  Gs4
 BYTE   W12
 BYTE   N12  Fn4
 BYTE   W12
// 038   ----------------------------------------
 BYTE   Fs4
 BYTE   W12
 BYTE   Cs5
 BYTE   W12
 BYTE   N24  Gs4
 BYTE   W24
 BYTE   Fs4
 BYTE   W12
 BYTE   W12
 BYTE   N06  Fn4
 BYTE   W06
 BYTE   Fn4  v076
 BYTE   W06
 BYTE   N12  Fn4  v127
 BYTE   W12
// 039   ----------------------------------------
 BYTE   Fs4
 BYTE   W12
 BYTE   Cs5
 BYTE   W12
 BYTE   N24  Gs4
 BYTE   W24
 BYTE   Fs4
 BYTE   W12
 BYTE   W12
 BYTE   N06  Fn4
 BYTE   W06
 BYTE   Fn4  v076
 BYTE   W06
 BYTE   N18  Fn4  v127
 BYTE   W18
// 040   ----------------------------------------
 BYTE   Fs4
 BYTE   W18
 BYTE   Ds4
 BYTE   W18
 BYTE   N06  Ds4  v076
 BYTE   W06
 BYTE   N12  Ds4  v127
 BYTE   W12
 BYTE   Fs4
 BYTE   W12
 BYTE   As4
 BYTE   W12
 BYTE   N24  Gs4
 BYTE   W24
// 041   ----------------------------------------
 BYTE   Fs4
 BYTE   W24
 BYTE   Fn4
 BYTE   W24
 BYTE   Cs4
 BYTE   W24
 BYTE   N18  Ds4
 BYTE   W18
 BYTE   Fs4
 BYTE   W18
// 042   ----------------------------------------
 BYTE   N06  As4
 BYTE   W06
 BYTE   As4  v076
 BYTE   W06
 BYTE   N18  Fn4  v127
 BYTE   W18
 BYTE   Gs4
 BYTE   W06
 BYTE   W12
 BYTE   N06  Cn5
 BYTE   W06
 BYTE   Cn5  v076
 BYTE   W06
 BYTE   N18  Fs4  v127
 BYTE   W18
 BYTE   An4
 BYTE   W18
// 043   ----------------------------------------
 BYTE   N06  Cs5
 BYTE   W06
 BYTE   Cs5  v076
 BYTE   W06
 BYTE   En5  v127
 BYTE   W06
 BYTE   En5  v076
 BYTE   W06
 BYTE   Dn5  v127
 BYTE   W06
 BYTE   Dn5  v076
 BYTE   W06
 BYTE   Cs5  v127
 BYTE   W06
 BYTE   Cs5  v076
 BYTE   W06
 BYTE   Bn4  v127
 BYTE   W06
 BYTE   Bn4  v076
 BYTE   W06
 BYTE   Bn4  v052
 BYTE   W06
 BYTE   Dn5  v127
 BYTE   W06
 BYTE   Dn5  v076
 BYTE   W06
 BYTE   Dn5  v052
 BYTE   W06
 BYTE   N18  Dn5  v127
 BYTE   W18
// 044   ----------------------------------------
 BYTE   N06  Dn5  v076
 BYTE   W06
 BYTE   N16  Cn5  v127
 BYTE   W18
 BYTE   Bn4
 BYTE   W06
 BYTE   W12
 BYTE   N11  An4
 BYTE   W12
 BYTE   N12  Fs4
 BYTE   W12
 BYTE   Gn4
 BYTE   W12
 BYTE   Dn5
 BYTE   W12
 BYTE   N24  An4
 BYTE   W24
// 045   ----------------------------------------
 BYTE   Gn4
 BYTE   W12
 BYTE   W12
 BYTE   N06  Fs4
 BYTE   W06
 BYTE   Fs4  v076
 BYTE   W06
 BYTE   N12  Fs4  v127
 BYTE   W12
 BYTE   Gn4
 BYTE   W12
 BYTE   Fs5
 BYTE   W12
 BYTE   N24  Bn4
 BYTE   W24
// 046   ----------------------------------------
 BYTE   Cs5
 BYTE   W12
 BYTE   W12
 BYTE   N06  Dn5
 BYTE   W06
 BYTE   Dn5  v076
 BYTE   W06
 BYTE   N72  En5  v127
 BYTE   W72
// 047   ----------------------------------------
 BYTE   N12  En5  v076
 BYTE   W12
 BYTE   En5  v052
 BYTE   W12
 BYTE   N32  Dn5  v127
 BYTE   W36
 BYTE   Cs5
 BYTE   W36
// 048   ----------------------------------------
 BYTE   N24  An4
 BYTE   W24
 BYTE   N06  Bn4
 BYTE   W06
 BYTE   Bn4  v076
 BYTE   W06
 BYTE   Bn4  v064
 BYTE   W06
 BYTE   Bn4  v052
 BYTE   W06
 BYTE   Bn3  v127
 BYTE   W06
 BYTE   An3
 BYTE   W06
 BYTE   Bn3
 BYTE   W06
 BYTE   Dn4
 BYTE   W06
 BYTE   Dn4  v076
 BYTE   W06
 BYTE   Dn4  v064
 BYTE   W06
 BYTE   Dn4  v052
 BYTE   W06
 BYTE   Dn4  v048
 BYTE   W06
// 049   ----------------------------------------
 BYTE   Bn3  v127
 BYTE   W06
 BYTE   An3
 BYTE   W06
 BYTE   Bn3
 BYTE   W06
 BYTE   En4
 BYTE   W06
 BYTE   En4  v076
 BYTE   W06
 BYTE   En4  v064
 BYTE   W06
 BYTE   En4  v052
 BYTE   W06
 BYTE   En4  v048
 BYTE   W06
 BYTE   Bn3  v127
 BYTE   W06
 BYTE   An3
 BYTE   W06
 BYTE   Bn3
 BYTE   W06
 BYTE   Fn4
 BYTE   W06
 BYTE   Fn4  v076
 BYTE   W06
 BYTE   Fn4  v064
 BYTE   W06
 BYTE   Fn4  v052
 BYTE   W06
 BYTE   En4  v127
 BYTE   W06
// 050   ----------------------------------------
 BYTE   En4  v076
 BYTE   W06
 BYTE   En4  v064
 BYTE   W06
 BYTE   Dn4  v127
 BYTE   W06
 BYTE   Dn4  v076
 BYTE   W06
 BYTE   Bn3  v127
 BYTE   W06
 BYTE   Bn3  v076
 BYTE   W06
 BYTE   Bn3  v064
 BYTE   W06
 BYTE   Bn3  v052
 BYTE   W06
 BYTE   Bn3  v127
 BYTE   W06
 BYTE   An3
 BYTE   W06
 BYTE   Bn3
 BYTE   W06
 BYTE   Dn4
 BYTE   W06
 BYTE   Dn4  v076
 BYTE   W06
 BYTE   Dn4  v064
 BYTE   W06
 BYTE   Dn4  v052
 BYTE   W06
 BYTE   Dn4  v048
 BYTE   W06
// 051   ----------------------------------------
 BYTE   Bn3  v127
 BYTE   W06
 BYTE   An3
 BYTE   W06
 BYTE   Bn3
 BYTE   W06
 BYTE   En4
 BYTE   W06
 BYTE   En4  v076
 BYTE   W06
 BYTE   En4  v064
 BYTE   W06
 BYTE   En4  v052
 BYTE   W06
 BYTE   En4  v048
 BYTE   W06
 BYTE   Bn3  v127
 BYTE   W06
 BYTE   An3
 BYTE   W06
 BYTE   Bn3
 BYTE   W06
 BYTE   Fn4
 BYTE   W06
 BYTE   Fn4  v076
 BYTE   W06
 BYTE   Fn4  v064
 BYTE   W06
 BYTE   Fn4  v056
 BYTE   W06
 BYTE   Fn4  v096
 BYTE   W06
// 052   ----------------------------------------
 BYTE   Fn4  v068
 BYTE   W06
 BYTE   Fn4  v060
 BYTE   W06
 BYTE   Fn4  v076
 BYTE   W06
 BYTE   Fn4  v060
 BYTE   W40
 BYTE   W01
 BYTE   FINE

//**************** Track 6 (Midi-Chn.5) ****************//

MegamanBattleNetwork5vsNebulaGrayThegis_006:
// 000   ----------------------------------------
 BYTE   KEYSH   MegamanBattleNetwork5vsNebulaGrayThegis_key+0
 BYTE   VOICE   40
 BYTE   VOL   38*MegamanBattleNetwork5vsNebulaGrayThegis_mvl/mxv
 BYTE   PAN   c_v+0
 BYTE   TIE  Dn3  v127
 BYTE   W96
// 001   ----------------------------------------
 BYTE   Gn3
 BYTE   W96
// 002   ----------------------------------------
 BYTE   EOT
 BYTE   Dn3
 BYTE   TIE  Cn4
 BYTE   W96
// 003   ----------------------------------------
 BYTE   EOT
 BYTE   Gn3
 BYTE   N42  Fn4
 BYTE   W48
 BYTE   N48  As4
 BYTE   W48
// 004   ----------------------------------------
 BYTE   EOT
 BYTE   Cn4
 BYTE   N90  Dn3
 BYTE   W96
// 005   ----------------------------------------
 BYTE   N42  Ds3
 BYTE   W48
 BYTE   Fn3
 BYTE   W48
// 006   ----------------------------------------
 BYTE   N90  Gn3
 BYTE   W96
// 007   ----------------------------------------
 BYTE   N42  Fn3
 BYTE   W48
 BYTE   Gs3
 BYTE   W48
// 008   ----------------------------------------
 BYTE   N90  Dn4
 BYTE   W96
// 009   ----------------------------------------
 BYTE   N42
 BYTE   W48
 BYTE   Cn4
 BYTE   W48
// 010   ----------------------------------------
 BYTE   N90  Dn4
 BYTE   W96
// 011   ----------------------------------------
 BYTE   W96
// 012   ----------------------------------------
 BYTE   W06
Label_5_01160705:
 BYTE   W90
// 013   ----------------------------------------
 BYTE   W96
// 014   ----------------------------------------
 BYTE   W96
// 015   ----------------------------------------
 BYTE   W96
// 016   ----------------------------------------
 BYTE   W96
// 017   ----------------------------------------
 BYTE   W96
// 018   ----------------------------------------
 BYTE   W48
 BYTE   N48  Fn3  v127
 BYTE   N48  Bn3
 BYTE   N48  Cs4
 BYTE   N48  En4
 BYTE   W01
 BYTE   W01
 BYTE   W01
 BYTE   W01
 BYTE   W01
 BYTE   W01
 BYTE   W01
 BYTE   W01
 BYTE   W01
 BYTE   W01
 BYTE   W01
 BYTE   W01
 BYTE   W01
 BYTE   W01
 BYTE   W01
 BYTE   W01
 BYTE   W01
 BYTE   W01
 BYTE   W01
 BYTE   W01
 BYTE   W01
 BYTE   W03
 BYTE   W02
 BYTE   W22
// 019   ----------------------------------------
 BYTE   N06  Fn3
 BYTE   N06  Bn3
 BYTE   N06  Cs4
 BYTE   N06  En4
 BYTE   W06
 BYTE   Fn3  v004
 BYTE   N06  Bn3
 BYTE   N06  Cs4
 BYTE   N06  En4
 BYTE   W90
// 020   ----------------------------------------
 BYTE   W96
// 021   ----------------------------------------
 BYTE   W96
// 022   ----------------------------------------
 BYTE   W96
// 023   ----------------------------------------
 BYTE   W96
// 024   ----------------------------------------
 BYTE   W44
 BYTE   W03
 BYTE   PAN   c_v-64
 BYTE   W01
 BYTE   N06  En5  v127
 BYTE   W06
 BYTE   En5  v096
 BYTE   W06
 BYTE   En5  v076
 BYTE   W05
 BYTE   PAN   c_v+63
 BYTE   W01
 BYTE   N06  Dn5  v127
 BYTE   W06
 BYTE   Dn5  v096
 BYTE   W06
 BYTE   Dn5  v076
 BYTE   W05
 BYTE   PAN   c_v-64
 BYTE   W01
 BYTE   N06  Bn4  v127
 BYTE   W06
 BYTE   Bn4  v096
 BYTE   W05
 BYTE   PAN   c_v+63
 BYTE   W01
// 025   ----------------------------------------
 BYTE   N06  Fn5  v127
 BYTE   W06
 BYTE   Fn5  v096
 BYTE   W06
 BYTE   Fn5  v076
 BYTE   W05
 BYTE   PAN   c_v-64
 BYTE   W01
 BYTE   N06  En5  v127
 BYTE   W06
 BYTE   En5  v096
 BYTE   W06
 BYTE   En5  v076
 BYTE   W05
 BYTE   PAN   c_v+63
 BYTE   W01
 BYTE   N06  Dn5  v127
 BYTE   W06
 BYTE   Dn5  v096
 BYTE   W05
 BYTE   PAN   c_v-64
 BYTE   W01
 BYTE   N06  En5  v127
 BYTE   W06
 BYTE   En5  v096
 BYTE   W06
 BYTE   En5  v076
 BYTE   W05
 BYTE   PAN   c_v+63
 BYTE   W01
 BYTE   N06  Dn5  v127
 BYTE   W06
 BYTE   Dn5  v096
 BYTE   W06
 BYTE   Dn5  v076
 BYTE   W05
 BYTE   PAN   c_v-64
 BYTE   W01
 BYTE   N06  An4  v127
 BYTE   W06
 BYTE   An4  v096
 BYTE   W06
// 026   ----------------------------------------
 BYTE   W44
 BYTE   W03
 BYTE   PAN   c_v+63
 BYTE   W01
 BYTE   N06  En5  v127
 BYTE   W06
 BYTE   En5  v096
 BYTE   W06
 BYTE   En5  v076
 BYTE   W05
 BYTE   PAN   c_v-64
 BYTE   W01
 BYTE   N06  Dn5  v127
 BYTE   W06
 BYTE   Dn5  v096
 BYTE   W06
 BYTE   Dn5  v076
 BYTE   W05
 BYTE   PAN   c_v+63
 BYTE   W01
 BYTE   N06  Bn4  v127
 BYTE   W06
 BYTE   Bn4  v096
 BYTE   W05
 BYTE   PAN   c_v-64
 BYTE   W01
// 027   ----------------------------------------
 BYTE   N06  Fn5  v127
 BYTE   W06
 BYTE   Fn5  v096
 BYTE   W06
 BYTE   Fn5  v076
 BYTE   W05
 BYTE   PAN   c_v+63
 BYTE   W01
 BYTE   N06  En5  v127
 BYTE   W06
 BYTE   En5  v096
 BYTE   W06
 BYTE   En5  v076
 BYTE   W05
 BYTE   PAN   c_v-64
 BYTE   W01
 BYTE   N06  Dn5  v127
 BYTE   W06
 BYTE   Dn5  v096
 BYTE   W54
// 028   ----------------------------------------
 BYTE   W23
 BYTE   PAN   c_v+0
 BYTE   W01
 BYTE   N90  Dn3  v127
 BYTE   W72
// 029   ----------------------------------------
 BYTE   W24
 BYTE   N42  Ds3
 BYTE   W48
 BYTE   Fn3
 BYTE   W24
// 030   ----------------------------------------
 BYTE   W24
 BYTE   N90  Gn3
 BYTE   W72
// 031   ----------------------------------------
 BYTE   W24
 BYTE   N42  Fn3
 BYTE   W48
 BYTE   Gs3
 BYTE   W24
// 032   ----------------------------------------
 BYTE   W24
 BYTE   N90  Dn4
 BYTE   W72
// 033   ----------------------------------------
 BYTE   W24
 BYTE   N42
 BYTE   W48
 BYTE   Cn4
 BYTE   W24
// 034   ----------------------------------------
 BYTE   W24
 BYTE   N90  Dn4
 BYTE   W72
// 035   ----------------------------------------
 BYTE   W96
// 036   ----------------------------------------
 BYTE   W30
 BYTE   GoTo
  POIN2 Label_5_01160705
// 037   ----------------------------------------
 BYTE   W66
 BYTE   W96
// 038   ----------------------------------------
 BYTE   W96
// 039   ----------------------------------------
 BYTE   W96
// 040   ----------------------------------------
 BYTE   W96
// 041   ----------------------------------------
 BYTE   W96
// 042   ----------------------------------------
 BYTE   W72
 BYTE   N48  Fn3  v127
 BYTE   N48  Bn3
 BYTE   N48  Cs4
 BYTE   N48  En4
 BYTE   W01
 BYTE   W01
 BYTE   W01
 BYTE   W01
 BYTE   W01
 BYTE   W01
 BYTE   W01
 BYTE   W01
 BYTE   W01
 BYTE   W01
 BYTE   W01
 BYTE   W01
 BYTE   W01
 BYTE   W01
 BYTE   W01
 BYTE   W01
 BYTE   W01
 BYTE   W01
 BYTE   W01
 BYTE   W01
 BYTE   W01
 BYTE   W03
// 043   ----------------------------------------
 BYTE   W02
 BYTE   W22
 BYTE   N06  Fn3
 BYTE   N06  Bn3
 BYTE   N06  Cs4
 BYTE   N06  En4
 BYTE   W06
 BYTE   Fn3  v004
 BYTE   N06  Bn3
 BYTE   N06  Cs4
 BYTE   N06  En4
 BYTE   W66
// 044   ----------------------------------------
 BYTE   W96
// 045   ----------------------------------------
 BYTE   W96
// 046   ----------------------------------------
 BYTE   W96
// 047   ----------------------------------------
 BYTE   W96
// 048   ----------------------------------------
 BYTE   W68
 BYTE   W03
 BYTE   PAN   c_v-64
 BYTE   W01
 BYTE   N06  En5  v127
 BYTE   W06
 BYTE   En5  v096
 BYTE   W06
 BYTE   En5  v076
 BYTE   W05
 BYTE   PAN   c_v+63
 BYTE   W01
 BYTE   N06  Dn5  v127
 BYTE   W06
// 049   ----------------------------------------
 BYTE   Dn5  v096
 BYTE   W06
 BYTE   Dn5  v076
 BYTE   W05
 BYTE   PAN   c_v-64
 BYTE   W01
 BYTE   N06  Bn4  v127
 BYTE   W06
 BYTE   Bn4  v096
 BYTE   W05
 BYTE   PAN   c_v+63
 BYTE   W01
 BYTE   N06  Fn5  v127
 BYTE   W06
 BYTE   Fn5  v096
 BYTE   W06
 BYTE   Fn5  v076
 BYTE   W05
 BYTE   PAN   c_v-64
 BYTE   W01
 BYTE   N06  En5  v127
 BYTE   W06
 BYTE   En5  v096
 BYTE   W06
 BYTE   En5  v076
 BYTE   W05
 BYTE   PAN   c_v+63
 BYTE   W01
 BYTE   N06  Dn5  v127
 BYTE   W06
 BYTE   Dn5  v096
 BYTE   W05
 BYTE   PAN   c_v-64
 BYTE   W01
 BYTE   N06  En5  v127
 BYTE   W06
 BYTE   En5  v096
 BYTE   W06
 BYTE   En5  v076
 BYTE   W05
 BYTE   PAN   c_v+63
 BYTE   W01
 BYTE   N06  Dn5  v127
 BYTE   W06
// 050   ----------------------------------------
 BYTE   Dn5  v096
 BYTE   W06
 BYTE   Dn5  v076
 BYTE   W05
 BYTE   PAN   c_v-64
 BYTE   W01
 BYTE   N06  An4  v127
 BYTE   W06
 BYTE   An4  v096
 BYTE   W52
 BYTE   W01
 BYTE   PAN   c_v+63
 BYTE   W01
 BYTE   N06  En5  v127
 BYTE   W06
 BYTE   En5  v096
 BYTE   W06
 BYTE   En5  v076
 BYTE   W05
 BYTE   PAN   c_v-64
 BYTE   W01
 BYTE   N06  Dn5  v127
 BYTE   W06
// 051   ----------------------------------------
 BYTE   Dn5  v096
 BYTE   W06
 BYTE   Dn5  v076
 BYTE   W05
 BYTE   PAN   c_v+63
 BYTE   W01
 BYTE   N06  Bn4  v127
 BYTE   W06
 BYTE   Bn4  v096
 BYTE   W05
 BYTE   PAN   c_v-64
 BYTE   W01
 BYTE   N06  Fn5  v127
 BYTE   W06
 BYTE   Fn5  v096
 BYTE   W06
 BYTE   Fn5  v076
 BYTE   W05
 BYTE   PAN   c_v+63
 BYTE   W01
 BYTE   N06  En5  v127
 BYTE   W06
 BYTE   En5  v096
 BYTE   W06
 BYTE   En5  v076
 BYTE   W05
 BYTE   PAN   c_v-64
 BYTE   W01
 BYTE   N06  Dn5  v127
 BYTE   W06
 BYTE   Dn5  v096
 BYTE   W30
// 052   ----------------------------------------
 BYTE   W56
 BYTE   W03
 BYTE   FINE

//**************** Track 7 (Midi-Chn.6) ****************//

MegamanBattleNetwork5vsNebulaGrayThegis_007:
// 000   ----------------------------------------
 BYTE   KEYSH   MegamanBattleNetwork5vsNebulaGrayThegis_key+0
 BYTE   VOICE   46
 BYTE   VOL   25*MegamanBattleNetwork5vsNebulaGrayThegis_mvl/mxv
 BYTE   W96
// 001   ----------------------------------------
 BYTE   W96
// 002   ----------------------------------------
 BYTE   W96
// 003   ----------------------------------------
 BYTE   W96
// 004   ----------------------------------------
Label_6_0125DC7E:
 BYTE   N12  Gn3  v068
 BYTE   N12  Dn4  v072
 BYTE   N12  Gn4  v127
 BYTE   W12
 BYTE   N06  Gn3  v028
 BYTE   N06  Dn4  v036
 BYTE   N06  Gn4  v056
 BYTE   W05
 BYTE   PAN   c_v+63
 BYTE   W01
 BYTE   N12  Gn3  v060
 BYTE   N12  Dn4
 BYTE   N12  Gn4  v100
 BYTE   W12
 BYTE   N06  Gn3  v020
 BYTE   N06  Dn4  v028
 BYTE   N06  Gn4  v048
 BYTE   W05
 BYTE   PAN   c_v-64
 BYTE   W01
 BYTE   N12  Gn3  v052
 BYTE   N12  Dn4  v056
 BYTE   N12  Gn4  v088
 BYTE   W12
 BYTE   N06  Gn3  v020
 BYTE   N06  Dn4
 BYTE   N06  Gn4  v040
 BYTE   W05
 BYTE   PAN   c_v+0
 BYTE   W01
 BYTE   N12  Gn3  v044
 BYTE   N12  Dn4  v048
 BYTE   N12  Gn4  v076
 BYTE   W12
 BYTE   Gn3  v016
 BYTE   N12  Dn4
 BYTE   N12  Gn4  v032
 BYTE   W30
 BYTE   PEND 
// 005   ----------------------------------------
Label_6_0125DCD4:
 BYTE   N12  Fn3  v068
 BYTE   N12  Cn4  v072
 BYTE   N12  Fn4  v127
 BYTE   W12
 BYTE   N06  Fn3  v028
 BYTE   N06  Cn4  v036
 BYTE   N06  Fn4  v056
 BYTE   W05
 BYTE   PAN   c_v+63
 BYTE   W01
 BYTE   N12  Fn3  v060
 BYTE   N12  Cn4
 BYTE   N12  Fn4  v100
 BYTE   W12
 BYTE   N06  Fn3  v020
 BYTE   N06  Cn4  v028
 BYTE   N06  Fn4  v048
 BYTE   W05
 BYTE   PAN   c_v-64
 BYTE   W01
 BYTE   N12  Fn3  v052
 BYTE   N12  Cn4  v056
 BYTE   N12  Fn4  v088
 BYTE   W12
 BYTE   N06  Fn3  v020
 BYTE   N06  Cn4
 BYTE   N06  Fn4  v040
 BYTE   W05
 BYTE   PAN   c_v+0
 BYTE   W01
 BYTE   N12  Fn3  v044
 BYTE   N12  Cn4  v048
 BYTE   N12  Fn4  v076
 BYTE   W12
 BYTE   Fn3  v016
 BYTE   N12  Cn4
 BYTE   N12  Fn4  v032
 BYTE   W30
 BYTE   PEND 
// 006   ----------------------------------------
 BYTE   PATT
  POIN2 Label_6_0125DC7E
// 007   ----------------------------------------
 BYTE   PATT
  POIN2 Label_6_0125DCD4
// 008   ----------------------------------------
 BYTE   PATT
  POIN2 Label_6_0125DC7E
// 009   ----------------------------------------
 BYTE   PATT
  POIN2 Label_6_0125DCD4
// 010   ----------------------------------------
 BYTE   PATT
  POIN2 Label_6_0125DC7E
// 011   ----------------------------------------
 BYTE   N12  Gn3  v068
 BYTE   N12  Dn4  v072
 BYTE   N12  Gn4  v127
 BYTE   W12
 BYTE   N06  Gn3  v028
 BYTE   N06  Dn4  v036
 BYTE   N06  Gn4  v056
 BYTE   W05
 BYTE   PAN   c_v+63
 BYTE   W01
 BYTE   N12  Fn3  v068
 BYTE   N12  Cn4  v072
 BYTE   N12  Fn4  v127
 BYTE   W12
 BYTE   N06  Fn3  v028
 BYTE   N06  Cn4  v036
 BYTE   N06  Fn4  v056
 BYTE   W05
 BYTE   PAN   c_v-64
 BYTE   W01
 BYTE   N12  Gs3  v068
 BYTE   N12  Ds4  v072
 BYTE   N12  Gs4  v127
 BYTE   W11
 BYTE   PAN   c_v+0
 BYTE   W01
 BYTE   N12  Gn3  v068
 BYTE   N12  Dn4  v072
 BYTE   N12  Gn4  v127
 BYTE   W12
 BYTE   N06  Gn3  v028
 BYTE   N06  Dn4  v036
 BYTE   N06  Gn4  v056
 BYTE   W06
 BYTE   N12  Gs3  v068
 BYTE   N12  Ds4  v072
 BYTE   N12  Gs4  v127
 BYTE   W12
 BYTE   N06  Gs3  v028
 BYTE   N06  Ds4  v036
 BYTE   N06  Gs4  v056
 BYTE   W06
 BYTE   N12  As3  v068
 BYTE   N12  Fn4  v072
 BYTE   N12  As4  v127
 BYTE   W12
// 012   ----------------------------------------
 BYTE   W05
 BYTE   PAN   c_v-64
 BYTE   W01
Label_6_0125DDB4:
 BYTE   N12  Cs3  v068
 BYTE   N12  Gs3  v072
 BYTE   N12  Cs4  v127
 BYTE   W12
 BYTE   N06  Cs3  v028
 BYTE   N06  Gs3  v036
 BYTE   N06  Cs4  v056
 BYTE   W05
 BYTE   PAN   c_v+63
 BYTE   W01
 BYTE   N12  Cs3  v068
 BYTE   N12  Gs3  v072
 BYTE   N12  Cs4  v127
 BYTE   W12
 BYTE   Cs3  v028
 BYTE   N12  Gs3  v036
 BYTE   N12  Cs4  v056
 BYTE   W60
// 013   ----------------------------------------
 BYTE   W96
// 014   ----------------------------------------
 BYTE   W96
// 015   ----------------------------------------
 BYTE   W96
// 016   ----------------------------------------
 BYTE   W96
// 017   ----------------------------------------
 BYTE   W96
// 018   ----------------------------------------
 BYTE   W96
// 019   ----------------------------------------
 BYTE   W05
 BYTE   PAN   c_v-64
 BYTE   W01
 BYTE   N12  Dn3  v068
 BYTE   N12  An3  v072
 BYTE   N12  Dn4  v127
 BYTE   W12
 BYTE   N06  Dn3  v028
 BYTE   N06  An3  v036
 BYTE   N06  Dn4  v056
 BYTE   W05
 BYTE   PAN   c_v+63
 BYTE   W01
 BYTE   N12  Dn3  v068
 BYTE   N12  An3  v072
 BYTE   N12  Dn4  v127
 BYTE   W12
 BYTE   Dn3  v028
 BYTE   N12  An3  v036
 BYTE   N12  Dn4  v056
 BYTE   W60
// 020   ----------------------------------------
 BYTE   W96
// 021   ----------------------------------------
 BYTE   W96
// 022   ----------------------------------------
 BYTE   W96
// 023   ----------------------------------------
 BYTE   W92
 BYTE   W03
 BYTE   PAN   c_v+0
 BYTE   W01
// 024   ----------------------------------------
Label_6_0125DE1A:
 BYTE   N12  Bn2  v068
 BYTE   N12  Fs3  v072
 BYTE   N12  Bn3  v127
 BYTE   W12
 BYTE   Bn2  v044
 BYTE   N12  Fs3  v048
 BYTE   N12  Bn3  v068
 BYTE   W12
 BYTE   Bn2  v032
 BYTE   N12  Fs3  v036
 BYTE   N12  Bn3  v056
 BYTE   W12
 BYTE   Bn2  v024
 BYTE   N12  Fs3  v028
 BYTE   N12  Bn3  v048
 BYTE   W60
 BYTE   PEND 
// 025   ----------------------------------------
 BYTE   W96
// 026   ----------------------------------------
 BYTE   PATT
  POIN2 Label_6_0125DE1A
// 027   ----------------------------------------
 BYTE   W96
// 028   ----------------------------------------
Label_6_0125DE47:
 BYTE   W24
 BYTE   N12  Gn3  v068
 BYTE   N12  Dn4  v072
 BYTE   N12  Gn4  v127
 BYTE   W12
 BYTE   N06  Gn3  v028
 BYTE   N06  Dn4  v036
 BYTE   N06  Gn4  v056
 BYTE   W05
 BYTE   PAN   c_v+63
 BYTE   W01
 BYTE   N12  Gn3  v060
 BYTE   N12  Dn4
 BYTE   N12  Gn4  v100
 BYTE   W12
 BYTE   N06  Gn3  v020
 BYTE   N06  Dn4  v028
 BYTE   N06  Gn4  v048
 BYTE   W05
 BYTE   PAN   c_v-64
 BYTE   W01
 BYTE   N12  Gn3  v052
 BYTE   N12  Dn4  v056
 BYTE   N12  Gn4  v088
 BYTE   W12
 BYTE   N06  Gn3  v020
 BYTE   N06  Dn4
 BYTE   N06  Gn4  v040
 BYTE   W05
 BYTE   PAN   c_v+0
 BYTE   W01
 BYTE   N12  Gn3  v044
 BYTE   N12  Dn4  v048
 BYTE   N12  Gn4  v076
 BYTE   W12
 BYTE   Gn3  v016
 BYTE   N12  Dn4
 BYTE   N12  Gn4  v032
 BYTE   W06
 BYTE   PEND 
// 029   ----------------------------------------
Label_6_0125DE9E:
 BYTE   W24
 BYTE   N12  Fn3  v068
 BYTE   N12  Cn4  v072
 BYTE   N12  Fn4  v127
 BYTE   W12
 BYTE   N06  Fn3  v028
 BYTE   N06  Cn4  v036
 BYTE   N06  Fn4  v056
 BYTE   W05
 BYTE   PAN   c_v+63
 BYTE   W01
 BYTE   N12  Fn3  v060
 BYTE   N12  Cn4
 BYTE   N12  Fn4  v100
 BYTE   W12
 BYTE   N06  Fn3  v020
 BYTE   N06  Cn4  v028
 BYTE   N06  Fn4  v048
 BYTE   W05
 BYTE   PAN   c_v-64
 BYTE   W01
 BYTE   N12  Fn3  v052
 BYTE   N12  Cn4  v056
 BYTE   N12  Fn4  v088
 BYTE   W12
 BYTE   N06  Fn3  v020
 BYTE   N06  Cn4
 BYTE   N06  Fn4  v040
 BYTE   W05
 BYTE   PAN   c_v+0
 BYTE   W01
 BYTE   N12  Fn3  v044
 BYTE   N12  Cn4  v048
 BYTE   N12  Fn4  v076
 BYTE   W12
 BYTE   Fn3  v016
 BYTE   N12  Cn4
 BYTE   N12  Fn4  v032
 BYTE   W06
 BYTE   PEND 
// 030   ----------------------------------------
 BYTE   PATT
  POIN2 Label_6_0125DE47
// 031   ----------------------------------------
 BYTE   PATT
  POIN2 Label_6_0125DE9E
// 032   ----------------------------------------
 BYTE   PATT
  POIN2 Label_6_0125DE47
// 033   ----------------------------------------
 BYTE   PATT
  POIN2 Label_6_0125DE9E
// 034   ----------------------------------------
 BYTE   PATT
  POIN2 Label_6_0125DE47
// 035   ----------------------------------------
 BYTE   W24
 BYTE   N12  Gn3  v068
 BYTE   N12  Dn4  v072
 BYTE   N12  Gn4  v127
 BYTE   W12
 BYTE   N06  Gn3  v028
 BYTE   N06  Dn4  v036
 BYTE   N06  Gn4  v056
 BYTE   W05
 BYTE   PAN   c_v+63
 BYTE   W01
 BYTE   N12  Fn3  v068
 BYTE   N12  Cn4  v072
 BYTE   N12  Fn4  v127
 BYTE   W12
 BYTE   N06  Fn3  v028
 BYTE   N06  Cn4  v036
 BYTE   N06  Fn4  v056
 BYTE   W05
 BYTE   PAN   c_v-64
 BYTE   W01
 BYTE   N12  Gs3  v068
 BYTE   N12  Ds4  v072
 BYTE   N12  Gs4  v127
 BYTE   W11
 BYTE   PAN   c_v+0
 BYTE   W01
 BYTE   N12  Gn3  v068
 BYTE   N12  Dn4  v072
 BYTE   N12  Gn4  v127
 BYTE   W12
 BYTE   N06  Gn3  v028
 BYTE   N06  Dn4  v036
 BYTE   N06  Gn4  v056
 BYTE   W06
 BYTE   N12  Gs3  v068
 BYTE   N12  Ds4  v072
 BYTE   N12  Gs4  v127
 BYTE   W06
// 036   ----------------------------------------
 BYTE   W06
 BYTE   N06  Gs3  v028
 BYTE   N06  Ds4  v036
 BYTE   N06  Gs4  v056
 BYTE   W06
 BYTE   N12  As3  v068
 BYTE   N12  Fn4  v072
 BYTE   N12  As4  v127
 BYTE   W17
 BYTE   PAN   c_v-64
 BYTE   W01
 BYTE   GoTo
  POIN2 Label_6_0125DDB4
// 037   ----------------------------------------
 BYTE   N12  Cs3  v068
 BYTE   N12  Gs3  v072
 BYTE   N12  Cs4  v127
 BYTE   W12
 BYTE   N06  Cs3  v028
 BYTE   N06  Gs3  v036
 BYTE   N06  Cs4  v056
 BYTE   W05
 BYTE   PAN   c_v+63
 BYTE   W01
 BYTE   N12  Cs3  v068
 BYTE   N12  Gs3  v072
 BYTE   N12  Cs4  v127
 BYTE   W12
 BYTE   Cs3  v028
 BYTE   N12  Gs3  v036
 BYTE   N12  Cs4  v056
 BYTE   W36
 BYTE   W96
// 038   ----------------------------------------
 BYTE   W96
// 039   ----------------------------------------
 BYTE   W96
// 040   ----------------------------------------
 BYTE   W96
// 041   ----------------------------------------
 BYTE   W96
// 042   ----------------------------------------
 BYTE   W96
// 043   ----------------------------------------
 BYTE   W28
 BYTE   W01
 BYTE   PAN   c_v-64
 BYTE   W01
 BYTE   N12  Dn3  v068
 BYTE   N12  An3  v072
 BYTE   N12  Dn4  v127
 BYTE   W12
 BYTE   N06  Dn3  v028
 BYTE   N06  An3  v036
 BYTE   N06  Dn4  v056
 BYTE   W05
 BYTE   PAN   c_v+63
 BYTE   W01
 BYTE   N12  Dn3  v068
 BYTE   N12  An3  v072
 BYTE   N12  Dn4  v127
 BYTE   W12
 BYTE   Dn3  v028
 BYTE   N12  An3  v036
 BYTE   N12  Dn4  v056
 BYTE   W36
// 044   ----------------------------------------
 BYTE   W96
// 045   ----------------------------------------
 BYTE   W96
// 046   ----------------------------------------
 BYTE   W96
// 047   ----------------------------------------
 BYTE   W96
// 048   ----------------------------------------
 BYTE   W23
 BYTE   PAN   c_v+0
 BYTE   W01
 BYTE   N12  Bn2  v068
 BYTE   N12  Fs3  v072
 BYTE   N12  Bn3  v127
 BYTE   W12
 BYTE   Bn2  v044
 BYTE   N12  Fs3  v048
 BYTE   N12  Bn3  v068
 BYTE   W12
 BYTE   Bn2  v032
 BYTE   N12  Fs3  v036
 BYTE   N12  Bn3  v056
 BYTE   W12
 BYTE   Bn2  v024
 BYTE   N12  Fs3  v028
 BYTE   N12  Bn3  v048
 BYTE   W36
// 049   ----------------------------------------
 BYTE   W96
// 050   ----------------------------------------
 BYTE   W24
 BYTE   Bn2  v068
 BYTE   N12  Fs3  v072
 BYTE   N12  Bn3  v127
 BYTE   W12
 BYTE   Bn2  v044
 BYTE   N12  Fs3  v048
 BYTE   N12  Bn3  v068
 BYTE   W12
 BYTE   Bn2  v032
 BYTE   N12  Fs3  v036
 BYTE   N12  Bn3  v056
 BYTE   W12
 BYTE   Bn2  v024
 BYTE   N12  Fs3  v028
 BYTE   N12  Bn3  v048
 BYTE   W36
// 051   ----------------------------------------
 BYTE   W96
// 052   ----------------------------------------
 BYTE   W56
 BYTE   W03
 BYTE   FINE

//**************** Track 8 (Midi-Chn.7) ****************//

MegamanBattleNetwork5vsNebulaGrayThegis_008:
// 000   ----------------------------------------
 BYTE   KEYSH   MegamanBattleNetwork5vsNebulaGrayThegis_key+0
 BYTE   VOICE   52
 BYTE   VOL   41*MegamanBattleNetwork5vsNebulaGrayThegis_mvl/mxv
 BYTE   W96
// 001   ----------------------------------------
 BYTE   W96
// 002   ----------------------------------------
 BYTE   W96
// 003   ----------------------------------------
 BYTE   W96
// 004   ----------------------------------------
 BYTE   W96
// 005   ----------------------------------------
 BYTE   W96
// 006   ----------------------------------------
 BYTE   W96
// 007   ----------------------------------------
 BYTE   W96
// 008   ----------------------------------------
 BYTE   W96
// 009   ----------------------------------------
 BYTE   W96
// 010   ----------------------------------------
 BYTE   W96
// 011   ----------------------------------------
 BYTE   W96
// 012   ----------------------------------------
 BYTE   W06
Label_7_0125E04F:
 BYTE   W90
// 013   ----------------------------------------
 BYTE   PAN   c_v-64
 BYTE   N90  Ds3  v127
 BYTE   N90  Fs3
 BYTE   N90  As3
 BYTE   W01
 BYTE   PAN   c_v-63
 BYTE   W01
 BYTE   DnM2
 BYTE   W01
 BYTE   EnM2
 BYTE   W01
 BYTE   FnM2
 BYTE   W02
 BYTE   FsM2
 BYTE   W01
 BYTE   GnM2
 BYTE   W01
 BYTE   GsM2
 BYTE   W01
 BYTE   AsM2
 BYTE   W01
 BYTE   BnM2
 BYTE   W02
 BYTE   CnM1
 BYTE   W01
 BYTE   CsM1
 BYTE   W01
 BYTE   DnM1
 BYTE   W01
 BYTE   EnM1
 BYTE   W01
 BYTE   FnM1
 BYTE   W02
 BYTE   FsM1
 BYTE   W01
 BYTE   GnM1
 BYTE   W01
 BYTE   GsM1
 BYTE   W01
 BYTE   AsM1
 BYTE   W01
 BYTE   BnM1
 BYTE   W02
 BYTE   Cn0
 BYTE   W01
 BYTE   Cs0
 BYTE   W01
 BYTE   Dn0
 BYTE   W01
 BYTE   En0
 BYTE   W01
 BYTE   Fn0
 BYTE   W02
 BYTE   Fs0
 BYTE   W01
 BYTE   Gn0
 BYTE   W01
 BYTE   Gs0
 BYTE   W01
 BYTE   As0
 BYTE   W01
 BYTE   Bn0
 BYTE   W02
 BYTE   Cn1
 BYTE   W01
 BYTE   Cs1
 BYTE   W01
 BYTE   Dn1
 BYTE   W01
 BYTE   En1
 BYTE   W01
 BYTE   Fn1
 BYTE   W02
 BYTE   Fs1
 BYTE   W01
 BYTE   Gn1
 BYTE   W01
 BYTE   Gs1
 BYTE   W01
 BYTE   As1
 BYTE   W01
 BYTE   Bn1
 BYTE   W02
 BYTE   Cn2
 BYTE   W01
 BYTE   Cs2
 BYTE   W01
 BYTE   Dn2
 BYTE   W01
 BYTE   En2
 BYTE   W01
 BYTE   Fn2
 BYTE   W02
 BYTE   Fs2
 BYTE   W01
 BYTE   Gn2
 BYTE   W01
 BYTE   Gs2
 BYTE   W01
 BYTE   As2
 BYTE   W01
 BYTE   Bn2
 BYTE   W02
 BYTE   Cn3
 BYTE   W01
 BYTE   Cs3
 BYTE   W01
 BYTE   Dn3
 BYTE   W01
 BYTE   En3
 BYTE   W01
 BYTE   Fn3
 BYTE   W02
 BYTE   Fs3
 BYTE   W01
 BYTE   Gn3
 BYTE   W01
 BYTE   Gs3
 BYTE   W01
 BYTE   As3
 BYTE   W01
 BYTE   Bn3
 BYTE   W02
 BYTE   Cn4
 BYTE   W01
 BYTE   Cs4
 BYTE   W01
 BYTE   Dn4
 BYTE   W01
 BYTE   En4
 BYTE   W01
 BYTE   Fn4
 BYTE   W02
 BYTE   Fs4
 BYTE   W01
 BYTE   Gn4
 BYTE   W01
 BYTE   Gs4
 BYTE   W01
 BYTE   As4
 BYTE   W01
 BYTE   Bn4
 BYTE   W02
 BYTE   Cn5
 BYTE   W01
 BYTE   Cs5
 BYTE   W01
 BYTE   Dn5
 BYTE   W01
 BYTE   En5
 BYTE   W01
 BYTE   Fn5
 BYTE   W02
 BYTE   Fs5
 BYTE   W01
 BYTE   Gn5
 BYTE   W01
 BYTE   Gs5
 BYTE   W01
 BYTE   As5
 BYTE   W01
 BYTE   Bn5
 BYTE   W02
// 014   ----------------------------------------
Label_7_0125E0F9:
 BYTE   PAN   c_v+63
 BYTE   N90  Cs3  v127
 BYTE   N90  Fn3
 BYTE   N90  Gs3
 BYTE   W01
 BYTE   PAN   c_v+62
 BYTE   W01
 BYTE   Fn8
 BYTE   W01
 BYTE   Ds8
 BYTE   W01
 BYTE   Dn8
 BYTE   W02
 BYTE   Cs8
 BYTE   W01
 BYTE   Cn8
 BYTE   W01
 BYTE   Bn7
 BYTE   W01
 BYTE   As7
 BYTE   W01
 BYTE   Gs7
 BYTE   W02
 BYTE   Gn7
 BYTE   W01
 BYTE   Fs7
 BYTE   W01
 BYTE   Fn7
 BYTE   W01
 BYTE   En7
 BYTE   W01
 BYTE   Dn7
 BYTE   W02
 BYTE   Cs7
 BYTE   W01
 BYTE   Cn7
 BYTE   W01
 BYTE   Bn6
 BYTE   W01
 BYTE   As6
 BYTE   W01
 BYTE   Gs6
 BYTE   W02
 BYTE   Gn6
 BYTE   W01
 BYTE   Fs6
 BYTE   W01
 BYTE   Fn6
 BYTE   W01
 BYTE   En6
 BYTE   W01
 BYTE   Ds6
 BYTE   W02
 BYTE   Cs6
 BYTE   W01
 BYTE   Cn6
 BYTE   W01
 BYTE   Bn5
 BYTE   W01
 BYTE   As5
 BYTE   W01
 BYTE   An5
 BYTE   W02
 BYTE   Gn5
 BYTE   W01
 BYTE   Fs5
 BYTE   W01
 BYTE   Fn5
 BYTE   W01
 BYTE   En5
 BYTE   W01
 BYTE   Ds5
 BYTE   W02
 BYTE   Cs5
 BYTE   W01
 BYTE   Cn5
 BYTE   W01
 BYTE   Bn4
 BYTE   W01
 BYTE   As4
 BYTE   W01
 BYTE   An4
 BYTE   W02
 BYTE   Gs4
 BYTE   W01
 BYTE   Fs4
 BYTE   W01
 BYTE   Fn4
 BYTE   W01
 BYTE   En4
 BYTE   W01
 BYTE   Ds4
 BYTE   W02
 BYTE   Dn4
 BYTE   W01
 BYTE   Cn4
 BYTE   W01
 BYTE   Bn3
 BYTE   W01
 BYTE   As3
 BYTE   W01
 BYTE   An3
 BYTE   W02
 BYTE   Gs3
 BYTE   W01
 BYTE   Fs3
 BYTE   W01
 BYTE   Fn3
 BYTE   W01
 BYTE   En3
 BYTE   W01
 BYTE   Ds3
 BYTE   W02
 BYTE   Dn3
 BYTE   W01
 BYTE   Cs3
 BYTE   W01
 BYTE   Bn2
 BYTE   W01
 BYTE   As2
 BYTE   W01
 BYTE   An2
 BYTE   W02
 BYTE   Gs2
 BYTE   W01
 BYTE   Gn2
 BYTE   W01
 BYTE   Fn2
 BYTE   W01
 BYTE   En2
 BYTE   W01
 BYTE   Ds2
 BYTE   W02
 BYTE   Dn2
 BYTE   W01
 BYTE   Cs2
 BYTE   W01
 BYTE   Bn1
 BYTE   W01
 BYTE   As1
 BYTE   W01
 BYTE   An1
 BYTE   W02
 BYTE   Gs1
 BYTE   W01
 BYTE   Gn1
 BYTE   W01
 BYTE   Fs1
 BYTE   W01
 BYTE   En1
 BYTE   W01
 BYTE   Ds1
 BYTE   W02
 BYTE   Dn1
 BYTE   W01
 BYTE   Cs1
 BYTE   W01
 BYTE   Cn1
 BYTE   W01
 BYTE   As0
 BYTE   W01
 BYTE   An0
 BYTE   W02
 BYTE   PEND 
// 015   ----------------------------------------
 BYTE   CnM2
 BYTE   N90  Bn2
 BYTE   N90  Ds3
 BYTE   N90  Fs3
 BYTE   W01
 BYTE   PAN   c_v-63
 BYTE   W01
 BYTE   DnM2
 BYTE   W01
 BYTE   EnM2
 BYTE   W01
 BYTE   FnM2
 BYTE   W02
 BYTE   FsM2
 BYTE   W01
 BYTE   GnM2
 BYTE   W01
 BYTE   GsM2
 BYTE   W01
 BYTE   AsM2
 BYTE   W01
 BYTE   BnM2
 BYTE   W02
 BYTE   CnM1
 BYTE   W01
 BYTE   CsM1
 BYTE   W01
 BYTE   DnM1
 BYTE   W01
 BYTE   EnM1
 BYTE   W01
 BYTE   FnM1
 BYTE   W02
 BYTE   FsM1
 BYTE   W01
 BYTE   GnM1
 BYTE   W01
 BYTE   GsM1
 BYTE   W01
 BYTE   AsM1
 BYTE   W01
 BYTE   BnM1
 BYTE   W02
 BYTE   Cn0
 BYTE   W01
 BYTE   Cs0
 BYTE   W01
 BYTE   Dn0
 BYTE   W01
 BYTE   En0
 BYTE   W01
 BYTE   Fn0
 BYTE   W02
 BYTE   Fs0
 BYTE   W01
 BYTE   Gn0
 BYTE   W01
 BYTE   Gs0
 BYTE   W01
 BYTE   As0
 BYTE   W01
 BYTE   Bn0
 BYTE   W02
 BYTE   Cn1
 BYTE   W01
 BYTE   Cs1
 BYTE   W01
 BYTE   Dn1
 BYTE   W01
 BYTE   En1
 BYTE   W01
 BYTE   Fn1
 BYTE   W02
 BYTE   Fs1
 BYTE   W01
 BYTE   Gn1
 BYTE   W01
 BYTE   Gs1
 BYTE   W01
 BYTE   As1
 BYTE   W01
 BYTE   Bn1
 BYTE   W02
 BYTE   Cn2
 BYTE   W01
 BYTE   Cs2
 BYTE   W01
 BYTE   Dn2
 BYTE   W01
 BYTE   En2
 BYTE   W01
 BYTE   Fn2
 BYTE   W02
 BYTE   Fs2
 BYTE   W01
 BYTE   Gn2
 BYTE   W01
 BYTE   Gs2
 BYTE   W01
 BYTE   As2
 BYTE   W01
 BYTE   Bn2
 BYTE   W02
 BYTE   Cn3
 BYTE   W01
 BYTE   Cs3
 BYTE   W01
 BYTE   Dn3
 BYTE   W01
 BYTE   En3
 BYTE   W01
 BYTE   Fn3
 BYTE   W02
 BYTE   Fs3
 BYTE   W01
 BYTE   Gn3
 BYTE   W01
 BYTE   Gs3
 BYTE   W01
 BYTE   As3
 BYTE   W01
 BYTE   Bn3
 BYTE   W02
 BYTE   Cn4
 BYTE   W01
 BYTE   Cs4
 BYTE   W01
 BYTE   Dn4
 BYTE   W01
 BYTE   En4
 BYTE   W01
 BYTE   Fn4
 BYTE   W02
 BYTE   Fs4
 BYTE   W01
 BYTE   Gn4
 BYTE   W01
 BYTE   Gs4
 BYTE   W01
 BYTE   As4
 BYTE   W01
 BYTE   Bn4
 BYTE   W02
 BYTE   Cn5
 BYTE   W01
 BYTE   Cs5
 BYTE   W01
 BYTE   Dn5
 BYTE   W01
 BYTE   En5
 BYTE   W01
 BYTE   Fn5
 BYTE   W02
 BYTE   Fs5
 BYTE   W01
 BYTE   Gn5
 BYTE   W01
 BYTE   Gs5
 BYTE   W01
 BYTE   As5
 BYTE   W01
 BYTE   Bn5
 BYTE   W02
// 016   ----------------------------------------
 BYTE   PATT
  POIN2 Label_7_0125E0F9
// 017   ----------------------------------------
 BYTE   W96
// 018   ----------------------------------------
 BYTE   W96
// 019   ----------------------------------------
 BYTE   W92
 BYTE   W03
 BYTE   PAN   c_v+63
 BYTE   W01
// 020   ----------------------------------------
 BYTE   N90  En3  v127
 BYTE   N90  Gn3
 BYTE   N90  Bn3
 BYTE   W01
 BYTE   PAN   c_v+62
 BYTE   W01
 BYTE   Fn8
 BYTE   W01
 BYTE   Ds8
 BYTE   W01
 BYTE   Dn8
 BYTE   W02
 BYTE   Cs8
 BYTE   W01
 BYTE   Cn8
 BYTE   W01
 BYTE   Bn7
 BYTE   W01
 BYTE   As7
 BYTE   W01
 BYTE   Gs7
 BYTE   W02
 BYTE   Gn7
 BYTE   W01
 BYTE   Fs7
 BYTE   W01
 BYTE   Fn7
 BYTE   W01
 BYTE   En7
 BYTE   W01
 BYTE   Dn7
 BYTE   W02
 BYTE   Cs7
 BYTE   W01
 BYTE   Cn7
 BYTE   W01
 BYTE   Bn6
 BYTE   W01
 BYTE   As6
 BYTE   W01
 BYTE   Gs6
 BYTE   W02
 BYTE   Gn6
 BYTE   W01
 BYTE   Fs6
 BYTE   W01
 BYTE   Fn6
 BYTE   W01
 BYTE   En6
 BYTE   W01
 BYTE   Ds6
 BYTE   W02
 BYTE   Cs6
 BYTE   W01
 BYTE   Cn6
 BYTE   W01
 BYTE   Bn5
 BYTE   W01
 BYTE   As5
 BYTE   W01
 BYTE   An5
 BYTE   W02
 BYTE   Gn5
 BYTE   W01
 BYTE   Fs5
 BYTE   W01
 BYTE   Fn5
 BYTE   W01
 BYTE   En5
 BYTE   W01
 BYTE   Ds5
 BYTE   W02
 BYTE   Cs5
 BYTE   W01
 BYTE   Cn5
 BYTE   W01
 BYTE   Bn4
 BYTE   W01
 BYTE   As4
 BYTE   W01
 BYTE   An4
 BYTE   W02
 BYTE   Gs4
 BYTE   W01
 BYTE   Fs4
 BYTE   W01
 BYTE   Fn4
 BYTE   W01
 BYTE   En4
 BYTE   W01
 BYTE   Ds4
 BYTE   W02
 BYTE   Dn4
 BYTE   W01
 BYTE   Cn4
 BYTE   W01
 BYTE   Bn3
 BYTE   W01
 BYTE   As3
 BYTE   W01
 BYTE   An3
 BYTE   W02
 BYTE   Gs3
 BYTE   W01
 BYTE   Fs3
 BYTE   W01
 BYTE   Fn3
 BYTE   W01
 BYTE   En3
 BYTE   W01
 BYTE   Ds3
 BYTE   W02
 BYTE   Dn3
 BYTE   W01
 BYTE   Cs3
 BYTE   W01
 BYTE   Bn2
 BYTE   W01
 BYTE   As2
 BYTE   W01
 BYTE   An2
 BYTE   W02
 BYTE   Gs2
 BYTE   W01
 BYTE   Gn2
 BYTE   W01
 BYTE   Fn2
 BYTE   W01
 BYTE   En2
 BYTE   W01
 BYTE   Ds2
 BYTE   W02
 BYTE   Dn2
 BYTE   W01
 BYTE   Cs2
 BYTE   W01
 BYTE   Bn1
 BYTE   W01
 BYTE   As1
 BYTE   W01
 BYTE   An1
 BYTE   W02
 BYTE   Gs1
 BYTE   W01
 BYTE   Gn1
 BYTE   W01
 BYTE   Fs1
 BYTE   W01
 BYTE   En1
 BYTE   W01
 BYTE   Ds1
 BYTE   W02
 BYTE   Dn1
 BYTE   W01
 BYTE   Cs1
 BYTE   W01
 BYTE   Cn1
 BYTE   W01
 BYTE   As0
 BYTE   W01
 BYTE   An0
 BYTE   W02
// 021   ----------------------------------------
 BYTE   CnM2
 BYTE   N90  Dn3
 BYTE   N90  Fs3
 BYTE   N90  An3
 BYTE   W01
 BYTE   PAN   c_v-63
 BYTE   W01
 BYTE   DnM2
 BYTE   W01
 BYTE   EnM2
 BYTE   W01
 BYTE   FnM2
 BYTE   W02
 BYTE   FsM2
 BYTE   W01
 BYTE   GnM2
 BYTE   W01
 BYTE   GsM2
 BYTE   W01
 BYTE   AsM2
 BYTE   W01
 BYTE   BnM2
 BYTE   W02
 BYTE   CnM1
 BYTE   W01
 BYTE   CsM1
 BYTE   W01
 BYTE   DnM1
 BYTE   W01
 BYTE   EnM1
 BYTE   W01
 BYTE   FnM1
 BYTE   W02
 BYTE   FsM1
 BYTE   W01
 BYTE   GnM1
 BYTE   W01
 BYTE   GsM1
 BYTE   W01
 BYTE   AsM1
 BYTE   W01
 BYTE   BnM1
 BYTE   W02
 BYTE   Cn0
 BYTE   W01
 BYTE   Cs0
 BYTE   W01
 BYTE   Dn0
 BYTE   W01
 BYTE   En0
 BYTE   W01
 BYTE   Fn0
 BYTE   W02
 BYTE   Fs0
 BYTE   W01
 BYTE   Gn0
 BYTE   W01
 BYTE   Gs0
 BYTE   W01
 BYTE   As0
 BYTE   W01
 BYTE   Bn0
 BYTE   W02
 BYTE   Cn1
 BYTE   W01
 BYTE   Cs1
 BYTE   W01
 BYTE   Dn1
 BYTE   W01
 BYTE   En1
 BYTE   W01
 BYTE   Fn1
 BYTE   W02
 BYTE   Fs1
 BYTE   W01
 BYTE   Gn1
 BYTE   W01
 BYTE   Gs1
 BYTE   W01
 BYTE   As1
 BYTE   W01
 BYTE   Bn1
 BYTE   W02
 BYTE   Cn2
 BYTE   W01
 BYTE   Cs2
 BYTE   W01
 BYTE   Dn2
 BYTE   W01
 BYTE   En2
 BYTE   W01
 BYTE   Fn2
 BYTE   W02
 BYTE   Fs2
 BYTE   W01
 BYTE   Gn2
 BYTE   W01
 BYTE   Gs2
 BYTE   W01
 BYTE   As2
 BYTE   W01
 BYTE   Bn2
 BYTE   W02
 BYTE   Cn3
 BYTE   W01
 BYTE   Cs3
 BYTE   W01
 BYTE   Dn3
 BYTE   W01
 BYTE   En3
 BYTE   W01
 BYTE   Fn3
 BYTE   W02
 BYTE   Fs3
 BYTE   W01
 BYTE   Gn3
 BYTE   W01
 BYTE   Gs3
 BYTE   W01
 BYTE   As3
 BYTE   W01
 BYTE   Bn3
 BYTE   W02
 BYTE   Cn4
 BYTE   W01
 BYTE   Cs4
 BYTE   W01
 BYTE   Dn4
 BYTE   W01
 BYTE   En4
 BYTE   W01
 BYTE   Fn4
 BYTE   W02
 BYTE   Fs4
 BYTE   W01
 BYTE   Gn4
 BYTE   W01
 BYTE   Gs4
 BYTE   W01
 BYTE   As4
 BYTE   W01
 BYTE   Bn4
 BYTE   W02
 BYTE   Cn5
 BYTE   W01
 BYTE   Cs5
 BYTE   W01
 BYTE   Dn5
 BYTE   W01
 BYTE   En5
 BYTE   W01
 BYTE   Fn5
 BYTE   W02
 BYTE   Fs5
 BYTE   W01
 BYTE   Gn5
 BYTE   W01
 BYTE   Gs5
 BYTE   W01
 BYTE   As5
 BYTE   W01
 BYTE   Bn5
 BYTE   W02
// 022   ----------------------------------------
 BYTE   Gn8
 BYTE   N90  Cn3
 BYTE   N90  En3
 BYTE   N90  Gn3
 BYTE   W01
 BYTE   PAN   c_v+62
 BYTE   W01
 BYTE   Fn8
 BYTE   W01
 BYTE   Ds8
 BYTE   W01
 BYTE   Dn8
 BYTE   W02
 BYTE   Cs8
 BYTE   W01
 BYTE   Cn8
 BYTE   W01
 BYTE   Bn7
 BYTE   W01
 BYTE   As7
 BYTE   W01
 BYTE   Gs7
 BYTE   W02
 BYTE   Gn7
 BYTE   W01
 BYTE   Fs7
 BYTE   W01
 BYTE   Fn7
 BYTE   W01
 BYTE   En7
 BYTE   W01
 BYTE   Dn7
 BYTE   W02
 BYTE   Cs7
 BYTE   W01
 BYTE   Cn7
 BYTE   W01
 BYTE   Bn6
 BYTE   W01
 BYTE   As6
 BYTE   W01
 BYTE   Gs6
 BYTE   W02
 BYTE   Gn6
 BYTE   W01
 BYTE   Fs6
 BYTE   W01
 BYTE   Fn6
 BYTE   W01
 BYTE   En6
 BYTE   W01
 BYTE   Ds6
 BYTE   W02
 BYTE   Cs6
 BYTE   W01
 BYTE   Cn6
 BYTE   W01
 BYTE   Bn5
 BYTE   W01
 BYTE   As5
 BYTE   W01
 BYTE   An5
 BYTE   W02
 BYTE   Gn5
 BYTE   W01
 BYTE   Fs5
 BYTE   W01
 BYTE   Fn5
 BYTE   W01
 BYTE   En5
 BYTE   W01
 BYTE   Ds5
 BYTE   W02
 BYTE   Cs5
 BYTE   W01
 BYTE   Cn5
 BYTE   W01
 BYTE   Bn4
 BYTE   W01
 BYTE   As4
 BYTE   W01
 BYTE   An4
 BYTE   W02
 BYTE   Gs4
 BYTE   W01
 BYTE   Fs4
 BYTE   W01
 BYTE   Fn4
 BYTE   W01
 BYTE   En4
 BYTE   W01
 BYTE   Ds4
 BYTE   W02
 BYTE   Dn4
 BYTE   W01
 BYTE   Cn4
 BYTE   W01
 BYTE   Bn3
 BYTE   W01
 BYTE   As3
 BYTE   W01
 BYTE   An3
 BYTE   W02
 BYTE   Gs3
 BYTE   W01
 BYTE   Fs3
 BYTE   W01
 BYTE   Fn3
 BYTE   W01
 BYTE   En3
 BYTE   W01
 BYTE   Ds3
 BYTE   W02
 BYTE   Dn3
 BYTE   W01
 BYTE   Cs3
 BYTE   W01
 BYTE   Bn2
 BYTE   W01
 BYTE   As2
 BYTE   W01
 BYTE   An2
 BYTE   W02
 BYTE   Gs2
 BYTE   W01
 BYTE   Gn2
 BYTE   W01
 BYTE   Fn2
 BYTE   W01
 BYTE   En2
 BYTE   W01
 BYTE   Ds2
 BYTE   W02
 BYTE   Dn2
 BYTE   W01
 BYTE   Cs2
 BYTE   W01
 BYTE   Bn1
 BYTE   W01
 BYTE   As1
 BYTE   W01
 BYTE   An1
 BYTE   W02
 BYTE   Gs1
 BYTE   W01
 BYTE   Gn1
 BYTE   W01
 BYTE   Fs1
 BYTE   W01
 BYTE   En1
 BYTE   W01
 BYTE   Ds1
 BYTE   W02
 BYTE   Dn1
 BYTE   W01
 BYTE   Cs1
 BYTE   W01
 BYTE   Cn1
 BYTE   W01
 BYTE   As0
 BYTE   W01
 BYTE   An0
 BYTE   W01
 BYTE   En3
 BYTE   W01
// 023   ----------------------------------------
 BYTE   N90  As2
 BYTE   N90  En3
 BYTE   N90  An3
 BYTE   W01
 BYTE   W01
 BYTE   W01
 BYTE   W01
 BYTE   W01
 BYTE   W02
 BYTE   W02
 BYTE   W02
 BYTE   W02
 BYTE   W01
 BYTE   W04
 BYTE   W01
 BYTE   W02
 BYTE   W03
 BYTE   W01
 BYTE   W02
 BYTE   W01
 BYTE   W01
 BYTE   W02
 BYTE   W02
 BYTE   W03
 BYTE   W01
 BYTE   W02
 BYTE   W03
 BYTE   W01
 BYTE   W02
 BYTE   W01
 BYTE   W03
 BYTE   W02
 BYTE   W01
 BYTE   W04
 BYTE   W01
 BYTE   W01
 BYTE   W01
 BYTE   W02
 BYTE   W02
 BYTE   W01
 BYTE   W02
 BYTE   W03
 BYTE   W01
 BYTE   W02
 BYTE   W02
 BYTE   W02
 BYTE   W01
 BYTE   W03
 BYTE   W16
// 024   ----------------------------------------
 BYTE   W96
// 025   ----------------------------------------
 BYTE   W96
// 026   ----------------------------------------
 BYTE   W96
// 027   ----------------------------------------
 BYTE   W96
// 028   ----------------------------------------
 BYTE   W96
// 029   ----------------------------------------
 BYTE   W96
// 030   ----------------------------------------
 BYTE   W96
// 031   ----------------------------------------
 BYTE   W96
// 032   ----------------------------------------
 BYTE   W96
// 033   ----------------------------------------
 BYTE   W96
// 034   ----------------------------------------
 BYTE   W96
// 035   ----------------------------------------
 BYTE   W96
// 036   ----------------------------------------
 BYTE   W30
 BYTE   GoTo
  POIN2 Label_7_0125E04F
// 037   ----------------------------------------
 BYTE   W66
 BYTE   W24
 BYTE   PAN   c_v-64
 BYTE   N90  Ds3  v127
 BYTE   N90  Fs3
 BYTE   N90  As3
 BYTE   W01
 BYTE   PAN   c_v-63
 BYTE   W01
 BYTE   DnM2
 BYTE   W01
 BYTE   EnM2
 BYTE   W01
 BYTE   FnM2
 BYTE   W02
// 038   ----------------------------------------
 BYTE   FsM2
 BYTE   W01
 BYTE   GnM2
 BYTE   W01
 BYTE   GsM2
 BYTE   W01
 BYTE   AsM2
 BYTE   W01
 BYTE   BnM2
 BYTE   W02
 BYTE   CnM1
 BYTE   W01
 BYTE   CsM1
 BYTE   W01
 BYTE   DnM1
 BYTE   W01
 BYTE   EnM1
 BYTE   W01
 BYTE   FnM1
 BYTE   W02
 BYTE   FsM1
 BYTE   W01
 BYTE   GnM1
 BYTE   W01
 BYTE   GsM1
 BYTE   W01
 BYTE   AsM1
 BYTE   W01
 BYTE   BnM1
 BYTE   W02
 BYTE   Cn0
 BYTE   W01
 BYTE   Cs0
 BYTE   W01
 BYTE   Dn0
 BYTE   W01
 BYTE   En0
 BYTE   W01
 BYTE   Fn0
 BYTE   W02
 BYTE   Fs0
 BYTE   W01
 BYTE   Gn0
 BYTE   W01
 BYTE   Gs0
 BYTE   W01
 BYTE   As0
 BYTE   W01
 BYTE   Bn0
 BYTE   W02
 BYTE   Cn1
 BYTE   W01
 BYTE   Cs1
 BYTE   W01
 BYTE   Dn1
 BYTE   W01
 BYTE   En1
 BYTE   W01
 BYTE   Fn1
 BYTE   W02
 BYTE   Fs1
 BYTE   W01
 BYTE   Gn1
 BYTE   W01
 BYTE   Gs1
 BYTE   W01
 BYTE   As1
 BYTE   W01
 BYTE   Bn1
 BYTE   W02
 BYTE   Cn2
 BYTE   W01
 BYTE   Cs2
 BYTE   W01
 BYTE   Dn2
 BYTE   W01
 BYTE   En2
 BYTE   W01
 BYTE   Fn2
 BYTE   W02
 BYTE   Fs2
 BYTE   W01
 BYTE   Gn2
 BYTE   W01
 BYTE   Gs2
 BYTE   W01
 BYTE   As2
 BYTE   W01
 BYTE   Bn2
 BYTE   W02
 BYTE   Cn3
 BYTE   W01
 BYTE   Cs3
 BYTE   W01
 BYTE   Dn3
 BYTE   W01
 BYTE   En3
 BYTE   W01
 BYTE   Fn3
 BYTE   W02
 BYTE   Fs3
 BYTE   W01
 BYTE   Gn3
 BYTE   W01
 BYTE   Gs3
 BYTE   W01
 BYTE   As3
 BYTE   W01
 BYTE   Bn3
 BYTE   W02
Label_7_0125E516:
 BYTE   PAN   c_v+8
 BYTE   W01
 BYTE   Cs4
 BYTE   W01
 BYTE   Dn4
 BYTE   W01
 BYTE   En4
 BYTE   W01
 BYTE   Fn4
 BYTE   W02
 BYTE   Fs4
 BYTE   W01
 BYTE   Gn4
 BYTE   W01
 BYTE   Gs4
 BYTE   W01
 BYTE   As4
 BYTE   W01
 BYTE   Bn4
 BYTE   W02
 BYTE   Cn5
 BYTE   W01
 BYTE   Cs5
 BYTE   W01
 BYTE   Dn5
 BYTE   W01
 BYTE   En5
 BYTE   W01
 BYTE   Fn5
 BYTE   W02
 BYTE   Fs5
 BYTE   W01
 BYTE   Gn5
 BYTE   W01
 BYTE   Gs5
 BYTE   W01
 BYTE   As5
 BYTE   W01
 BYTE   Bn5
 BYTE   W02
 BYTE   Gn8
 BYTE   N90  Cs3  v127
 BYTE   N90  Fn3
 BYTE   N90  Gs3
 BYTE   W01
 BYTE   PAN   c_v+62
 BYTE   W01
 BYTE   Fn8
 BYTE   W01
 BYTE   Ds8
 BYTE   W01
 BYTE   Dn8
 BYTE   W02
// 039   ----------------------------------------
 BYTE   Cs8
 BYTE   W01
 BYTE   Cn8
 BYTE   W01
 BYTE   Bn7
 BYTE   W01
 BYTE   As7
 BYTE   W01
 BYTE   Gs7
 BYTE   W02
 BYTE   Gn7
 BYTE   W01
 BYTE   Fs7
 BYTE   W01
 BYTE   Fn7
 BYTE   W01
 BYTE   En7
 BYTE   W01
 BYTE   Dn7
 BYTE   W02
 BYTE   Cs7
 BYTE   W01
 BYTE   Cn7
 BYTE   W01
 BYTE   Bn6
 BYTE   W01
 BYTE   As6
 BYTE   W01
 BYTE   Gs6
 BYTE   W02
 BYTE   Gn6
 BYTE   W01
 BYTE   Fs6
 BYTE   W01
 BYTE   Fn6
 BYTE   W01
 BYTE   En6
 BYTE   W01
 BYTE   Ds6
 BYTE   W02
 BYTE   Cs6
 BYTE   W01
 BYTE   Cn6
 BYTE   W01
 BYTE   Bn5
 BYTE   W01
 BYTE   As5
 BYTE   W01
 BYTE   An5
 BYTE   W02
 BYTE   Gn5
 BYTE   W01
 BYTE   Fs5
 BYTE   W01
 BYTE   Fn5
 BYTE   W01
 BYTE   En5
 BYTE   W01
 BYTE   Ds5
 BYTE   W02
 BYTE   Cs5
 BYTE   W01
 BYTE   Cn5
 BYTE   W01
 BYTE   Bn4
 BYTE   W01
 BYTE   As4
 BYTE   W01
 BYTE   An4
 BYTE   W02
 BYTE   Gs4
 BYTE   W01
 BYTE   Fs4
 BYTE   W01
 BYTE   Fn4
 BYTE   W01
 BYTE   En4
 BYTE   W01
 BYTE   Ds4
 BYTE   W02
 BYTE   Dn4
 BYTE   W01
 BYTE   Cn4
 BYTE   W01
 BYTE   Bn3
 BYTE   W01
 BYTE   As3
 BYTE   W01
 BYTE   An3
 BYTE   W02
 BYTE   Gs3
 BYTE   W01
 BYTE   Fs3
 BYTE   W01
 BYTE   Fn3
 BYTE   W01
 BYTE   En3
 BYTE   W01
 BYTE   Ds3
 BYTE   W02
 BYTE   Dn3
 BYTE   W01
 BYTE   Cs3
 BYTE   W01
 BYTE   Bn2
 BYTE   W01
 BYTE   As2
 BYTE   W01
 BYTE   An2
 BYTE   W02
 BYTE   PEND 
 BYTE   Gs2
 BYTE   W01
 BYTE   Gn2
 BYTE   W01
 BYTE   Fn2
 BYTE   W01
 BYTE   En2
 BYTE   W01
 BYTE   Ds2
 BYTE   W02
 BYTE   Dn2
 BYTE   W01
 BYTE   Cs2
 BYTE   W01
 BYTE   Bn1
 BYTE   W01
 BYTE   As1
 BYTE   W01
 BYTE   An1
 BYTE   W02
 BYTE   Gs1
 BYTE   W01
 BYTE   Gn1
 BYTE   W01
 BYTE   Fs1
 BYTE   W01
 BYTE   En1
 BYTE   W01
 BYTE   Ds1
 BYTE   W02
 BYTE   Dn1
 BYTE   W01
 BYTE   Cs1
 BYTE   W01
 BYTE   Cn1
 BYTE   W01
 BYTE   As0
 BYTE   W01
 BYTE   An0
 BYTE   W02
 BYTE   CnM2
 BYTE   N90  Bn2
 BYTE   N90  Ds3
 BYTE   N90  Fs3
 BYTE   W01
 BYTE   PAN   c_v-63
 BYTE   W01
 BYTE   DnM2
 BYTE   W01
 BYTE   EnM2
 BYTE   W01
 BYTE   FnM2
 BYTE   W02
// 040   ----------------------------------------
 BYTE   FsM2
 BYTE   W01
 BYTE   GnM2
 BYTE   W01
 BYTE   GsM2
 BYTE   W01
 BYTE   AsM2
 BYTE   W01
 BYTE   BnM2
 BYTE   W02
 BYTE   CnM1
 BYTE   W01
 BYTE   CsM1
 BYTE   W01
 BYTE   DnM1
 BYTE   W01
 BYTE   EnM1
 BYTE   W01
 BYTE   FnM1
 BYTE   W02
 BYTE   FsM1
 BYTE   W01
 BYTE   GnM1
 BYTE   W01
 BYTE   GsM1
 BYTE   W01
 BYTE   AsM1
 BYTE   W01
 BYTE   BnM1
 BYTE   W02
 BYTE   Cn0
 BYTE   W01
 BYTE   Cs0
 BYTE   W01
 BYTE   Dn0
 BYTE   W01
 BYTE   En0
 BYTE   W01
 BYTE   Fn0
 BYTE   W02
 BYTE   Fs0
 BYTE   W01
 BYTE   Gn0
 BYTE   W01
 BYTE   Gs0
 BYTE   W01
 BYTE   As0
 BYTE   W01
 BYTE   Bn0
 BYTE   W02
 BYTE   Cn1
 BYTE   W01
 BYTE   Cs1
 BYTE   W01
 BYTE   Dn1
 BYTE   W01
 BYTE   En1
 BYTE   W01
 BYTE   Fn1
 BYTE   W02
 BYTE   Fs1
 BYTE   W01
 BYTE   Gn1
 BYTE   W01
 BYTE   Gs1
 BYTE   W01
 BYTE   As1
 BYTE   W01
 BYTE   Bn1
 BYTE   W02
 BYTE   Cn2
 BYTE   W01
 BYTE   Cs2
 BYTE   W01
 BYTE   Dn2
 BYTE   W01
 BYTE   En2
 BYTE   W01
 BYTE   Fn2
 BYTE   W02
 BYTE   Fs2
 BYTE   W01
 BYTE   Gn2
 BYTE   W01
 BYTE   Gs2
 BYTE   W01
 BYTE   As2
 BYTE   W01
 BYTE   Bn2
 BYTE   W02
 BYTE   Cn3
 BYTE   W01
 BYTE   Cs3
 BYTE   W01
 BYTE   Dn3
 BYTE   W01
 BYTE   En3
 BYTE   W01
 BYTE   Fn3
 BYTE   W02
 BYTE   Fs3
 BYTE   W01
 BYTE   Gn3
 BYTE   W01
 BYTE   Gs3
 BYTE   W01
 BYTE   As3
 BYTE   W01
 BYTE   Bn3
 BYTE   W02
// 041   ----------------------------------------
 BYTE   PATT
  POIN2 Label_7_0125E516
// 042   ----------------------------------------
 BYTE   PAN   c_v-8
 BYTE   W01
 BYTE   Gn2
 BYTE   W01
 BYTE   Fn2
 BYTE   W01
 BYTE   En2
 BYTE   W01
 BYTE   Ds2
 BYTE   W02
 BYTE   Dn2
 BYTE   W01
 BYTE   Cs2
 BYTE   W01
 BYTE   Bn1
 BYTE   W01
 BYTE   As1
 BYTE   W01
 BYTE   An1
 BYTE   W02
 BYTE   Gs1
 BYTE   W01
 BYTE   Gn1
 BYTE   W01
 BYTE   Fs1
 BYTE   W01
 BYTE   En1
 BYTE   W01
 BYTE   Ds1
 BYTE   W02
 BYTE   Dn1
 BYTE   W01
 BYTE   Cs1
 BYTE   W01
 BYTE   Cn1
 BYTE   W01
 BYTE   As0
 BYTE   W01
 BYTE   An0
 BYTE   W72
 BYTE   W02
// 043   ----------------------------------------
 BYTE   W96
// 044   ----------------------------------------
 BYTE   W96
// 045   ----------------------------------------
 BYTE   W23
 BYTE   Gn8
 BYTE   W01
 BYTE   N90  En3  v127
 BYTE   N90  Gn3
 BYTE   N90  Bn3
 BYTE   W01
 BYTE   PAN   c_v+62
 BYTE   W01
 BYTE   Fn8
 BYTE   W01
 BYTE   Ds8
 BYTE   W01
 BYTE   Dn8
 BYTE   W02
 BYTE   Cs8
 BYTE   W01
 BYTE   Cn8
 BYTE   W01
 BYTE   Bn7
 BYTE   W01
 BYTE   As7
 BYTE   W01
 BYTE   Gs7
 BYTE   W02
 BYTE   Gn7
 BYTE   W01
 BYTE   Fs7
 BYTE   W01
 BYTE   Fn7
 BYTE   W01
 BYTE   En7
 BYTE   W01
 BYTE   Dn7
 BYTE   W02
 BYTE   Cs7
 BYTE   W01
 BYTE   Cn7
 BYTE   W01
 BYTE   Bn6
 BYTE   W01
 BYTE   As6
 BYTE   W01
 BYTE   Gs6
 BYTE   W02
 BYTE   Gn6
 BYTE   W01
 BYTE   Fs6
 BYTE   W01
 BYTE   Fn6
 BYTE   W01
 BYTE   En6
 BYTE   W01
 BYTE   Ds6
 BYTE   W02
 BYTE   Cs6
 BYTE   W01
 BYTE   Cn6
 BYTE   W01
 BYTE   Bn5
 BYTE   W01
 BYTE   As5
 BYTE   W01
 BYTE   An5
 BYTE   W02
 BYTE   Gn5
 BYTE   W01
 BYTE   Fs5
 BYTE   W01
 BYTE   Fn5
 BYTE   W01
 BYTE   En5
 BYTE   W01
 BYTE   Ds5
 BYTE   W02
 BYTE   Cs5
 BYTE   W01
 BYTE   Cn5
 BYTE   W01
 BYTE   Bn4
 BYTE   W01
 BYTE   As4
 BYTE   W01
 BYTE   An4
 BYTE   W02
 BYTE   Gs4
 BYTE   W01
 BYTE   Fs4
 BYTE   W01
 BYTE   Fn4
 BYTE   W01
 BYTE   En4
 BYTE   W01
 BYTE   Ds4
 BYTE   W02
 BYTE   Dn4
 BYTE   W01
 BYTE   Cn4
 BYTE   W01
 BYTE   Bn3
 BYTE   W01
 BYTE   As3
 BYTE   W01
 BYTE   An3
 BYTE   W02
 BYTE   Gs3
 BYTE   W01
 BYTE   Fs3
 BYTE   W01
 BYTE   Fn3
 BYTE   W01
 BYTE   En3
 BYTE   W01
 BYTE   Ds3
 BYTE   W02
 BYTE   Dn3
 BYTE   W01
 BYTE   Cs3
 BYTE   W01
 BYTE   Bn2
 BYTE   W01
 BYTE   As2
 BYTE   W01
 BYTE   An2
 BYTE   W02
// 046   ----------------------------------------
 BYTE   Gs2
 BYTE   W01
 BYTE   Gn2
 BYTE   W01
 BYTE   Fn2
 BYTE   W01
 BYTE   En2
 BYTE   W01
 BYTE   Ds2
 BYTE   W02
 BYTE   Dn2
 BYTE   W01
 BYTE   Cs2
 BYTE   W01
 BYTE   Bn1
 BYTE   W01
 BYTE   As1
 BYTE   W01
 BYTE   An1
 BYTE   W02
 BYTE   Gs1
 BYTE   W01
 BYTE   Gn1
 BYTE   W01
 BYTE   Fs1
 BYTE   W01
 BYTE   En1
 BYTE   W01
 BYTE   Ds1
 BYTE   W02
 BYTE   Dn1
 BYTE   W01
 BYTE   Cs1
 BYTE   W01
 BYTE   Cn1
 BYTE   W01
 BYTE   As0
 BYTE   W01
 BYTE   An0
 BYTE   W02
 BYTE   CnM2
 BYTE   N90  Dn3
 BYTE   N90  Fs3
 BYTE   N90  An3
 BYTE   W01
 BYTE   PAN   c_v-63
 BYTE   W01
 BYTE   DnM2
 BYTE   W01
 BYTE   EnM2
 BYTE   W01
 BYTE   FnM2
 BYTE   W02
 BYTE   FsM2
 BYTE   W01
 BYTE   GnM2
 BYTE   W01
 BYTE   GsM2
 BYTE   W01
 BYTE   AsM2
 BYTE   W01
 BYTE   BnM2
 BYTE   W02
 BYTE   CnM1
 BYTE   W01
 BYTE   CsM1
 BYTE   W01
 BYTE   DnM1
 BYTE   W01
 BYTE   EnM1
 BYTE   W01
 BYTE   FnM1
 BYTE   W02
 BYTE   FsM1
 BYTE   W01
 BYTE   GnM1
 BYTE   W01
 BYTE   GsM1
 BYTE   W01
 BYTE   AsM1
 BYTE   W01
 BYTE   BnM1
 BYTE   W02
 BYTE   Cn0
 BYTE   W01
 BYTE   Cs0
 BYTE   W01
 BYTE   Dn0
 BYTE   W01
 BYTE   En0
 BYTE   W01
 BYTE   Fn0
 BYTE   W02
 BYTE   Fs0
 BYTE   W01
 BYTE   Gn0
 BYTE   W01
 BYTE   Gs0
 BYTE   W01
 BYTE   As0
 BYTE   W01
 BYTE   Bn0
 BYTE   W02
 BYTE   Cn1
 BYTE   W01
 BYTE   Cs1
 BYTE   W01
 BYTE   Dn1
 BYTE   W01
 BYTE   En1
 BYTE   W01
 BYTE   Fn1
 BYTE   W02
 BYTE   Fs1
 BYTE   W01
 BYTE   Gn1
 BYTE   W01
 BYTE   Gs1
 BYTE   W01
 BYTE   As1
 BYTE   W01
 BYTE   Bn1
 BYTE   W02
 BYTE   Cn2
 BYTE   W01
 BYTE   Cs2
 BYTE   W01
 BYTE   Dn2
 BYTE   W01
 BYTE   En2
 BYTE   W01
 BYTE   Fn2
 BYTE   W02
 BYTE   Fs2
 BYTE   W01
 BYTE   Gn2
 BYTE   W01
 BYTE   Gs2
 BYTE   W01
 BYTE   As2
 BYTE   W01
 BYTE   Bn2
 BYTE   W02
 BYTE   Cn3
 BYTE   W01
 BYTE   Cs3
 BYTE   W01
 BYTE   Dn3
 BYTE   W01
 BYTE   En3
 BYTE   W01
 BYTE   Fn3
 BYTE   W02
 BYTE   Fs3
 BYTE   W01
 BYTE   Gn3
 BYTE   W01
 BYTE   Gs3
 BYTE   W01
 BYTE   As3
 BYTE   W01
 BYTE   Bn3
 BYTE   W02
// 047   ----------------------------------------
 BYTE   Cn4
 BYTE   W01
 BYTE   Cs4
 BYTE   W01
 BYTE   Dn4
 BYTE   W01
 BYTE   En4
 BYTE   W01
 BYTE   Fn4
 BYTE   W02
 BYTE   Fs4
 BYTE   W01
 BYTE   Gn4
 BYTE   W01
 BYTE   Gs4
 BYTE   W01
 BYTE   As4
 BYTE   W01
 BYTE   Bn4
 BYTE   W02
 BYTE   Cn5
 BYTE   W01
 BYTE   Cs5
 BYTE   W01
 BYTE   Dn5
 BYTE   W01
 BYTE   En5
 BYTE   W01
 BYTE   Fn5
 BYTE   W02
 BYTE   Fs5
 BYTE   W01
 BYTE   Gn5
 BYTE   W01
 BYTE   Gs5
 BYTE   W01
 BYTE   As5
 BYTE   W01
 BYTE   Bn5
 BYTE   W02
 BYTE   Gn8
 BYTE   N90  Cn3
 BYTE   N90  En3
 BYTE   N90  Gn3
 BYTE   W01
 BYTE   PAN   c_v+62
 BYTE   W01
 BYTE   Fn8
 BYTE   W01
 BYTE   Ds8
 BYTE   W01
 BYTE   Dn8
 BYTE   W02
 BYTE   Cs8
 BYTE   W01
 BYTE   Cn8
 BYTE   W01
 BYTE   Bn7
 BYTE   W01
 BYTE   As7
 BYTE   W01
 BYTE   Gs7
 BYTE   W02
 BYTE   Gn7
 BYTE   W01
 BYTE   Fs7
 BYTE   W01
 BYTE   Fn7
 BYTE   W01
 BYTE   En7
 BYTE   W01
 BYTE   Dn7
 BYTE   W02
 BYTE   Cs7
 BYTE   W01
 BYTE   Cn7
 BYTE   W01
 BYTE   Bn6
 BYTE   W01
 BYTE   As6
 BYTE   W01
 BYTE   Gs6
 BYTE   W02
 BYTE   Gn6
 BYTE   W01
 BYTE   Fs6
 BYTE   W01
 BYTE   Fn6
 BYTE   W01
 BYTE   En6
 BYTE   W01
 BYTE   Ds6
 BYTE   W02
 BYTE   Cs6
 BYTE   W01
 BYTE   Cn6
 BYTE   W01
 BYTE   Bn5
 BYTE   W01
 BYTE   As5
 BYTE   W01
 BYTE   An5
 BYTE   W02
 BYTE   Gn5
 BYTE   W01
 BYTE   Fs5
 BYTE   W01
 BYTE   Fn5
 BYTE   W01
 BYTE   En5
 BYTE   W01
 BYTE   Ds5
 BYTE   W02
 BYTE   Cs5
 BYTE   W01
 BYTE   Cn5
 BYTE   W01
 BYTE   Bn4
 BYTE   W01
 BYTE   As4
 BYTE   W01
 BYTE   An4
 BYTE   W02
 BYTE   Gs4
 BYTE   W01
 BYTE   Fs4
 BYTE   W01
 BYTE   Fn4
 BYTE   W01
 BYTE   En4
 BYTE   W01
 BYTE   Ds4
 BYTE   W02
 BYTE   Dn4
 BYTE   W01
 BYTE   Cn4
 BYTE   W01
 BYTE   Bn3
 BYTE   W01
 BYTE   As3
 BYTE   W01
 BYTE   An3
 BYTE   W02
 BYTE   Gs3
 BYTE   W01
 BYTE   Fs3
 BYTE   W01
 BYTE   Fn3
 BYTE   W01
 BYTE   En3
 BYTE   W01
 BYTE   Ds3
 BYTE   W02
 BYTE   Dn3
 BYTE   W01
 BYTE   Cs3
 BYTE   W01
 BYTE   Bn2
 BYTE   W01
 BYTE   As2
 BYTE   W01
 BYTE   An2
 BYTE   W02
// 048   ----------------------------------------
 BYTE   Gs2
 BYTE   W01
 BYTE   Gn2
 BYTE   W01
 BYTE   Fn2
 BYTE   W01
 BYTE   En2
 BYTE   W01
 BYTE   Ds2
 BYTE   W02
 BYTE   Dn2
 BYTE   W01
 BYTE   Cs2
 BYTE   W01
 BYTE   Bn1
 BYTE   W01
 BYTE   As1
 BYTE   W01
 BYTE   An1
 BYTE   W02
 BYTE   Gs1
 BYTE   W01
 BYTE   Gn1
 BYTE   W01
 BYTE   Fs1
 BYTE   W01
 BYTE   En1
 BYTE   W01
 BYTE   Ds1
 BYTE   W02
 BYTE   Dn1
 BYTE   W01
 BYTE   Cs1
 BYTE   W01
 BYTE   Cn1
 BYTE   W01
 BYTE   As0
 BYTE   W01
 BYTE   An0
 BYTE   W01
 BYTE   En3
 BYTE   W01
 BYTE   N90  As2
 BYTE   N90  En3
 BYTE   N90  An3
 BYTE   W01
 BYTE   W01
 BYTE   W01
 BYTE   W01
 BYTE   W01
 BYTE   W02
 BYTE   W02
 BYTE   W02
 BYTE   W02
 BYTE   W01
 BYTE   W04
 BYTE   W01
 BYTE   W02
 BYTE   W03
 BYTE   W01
 BYTE   W02
 BYTE   W01
 BYTE   W01
 BYTE   W02
 BYTE   W02
 BYTE   W03
 BYTE   W01
 BYTE   W02
 BYTE   W03
 BYTE   W01
 BYTE   W02
 BYTE   W01
 BYTE   W03
 BYTE   W02
 BYTE   W01
 BYTE   W04
 BYTE   W01
 BYTE   W01
 BYTE   W01
 BYTE   W02
 BYTE   W02
 BYTE   W01
 BYTE   W02
 BYTE   W03
 BYTE   W01
 BYTE   W02
// 049   ----------------------------------------
 BYTE   W02
 BYTE   W02
 BYTE   W01
 BYTE   W03
 BYTE   W88
// 050   ----------------------------------------
 BYTE   W96
// 051   ----------------------------------------
 BYTE   W96
// 052   ----------------------------------------
 BYTE   W96
// 053   ----------------------------------------
 BYTE   W56
 BYTE   W03
 BYTE   FINE

//**************** Track 9 (Midi-Chn.8) ****************//

MegamanBattleNetwork5vsNebulaGrayThegis_009:
// 000   ----------------------------------------
 BYTE   KEYSH   MegamanBattleNetwork5vsNebulaGrayThegis_key+0
 BYTE   VOICE   18
 BYTE   VOL   25*MegamanBattleNetwork5vsNebulaGrayThegis_mvl/mxv
 BYTE   W96
// 001   ----------------------------------------
 BYTE   W96
// 002   ----------------------------------------
 BYTE   W96
// 003   ----------------------------------------
 BYTE   W96
// 004   ----------------------------------------
 BYTE   W96
// 005   ----------------------------------------
 BYTE   W96
// 006   ----------------------------------------
 BYTE   W96
// 007   ----------------------------------------
 BYTE   W96
// 008   ----------------------------------------
 BYTE   W96
// 009   ----------------------------------------
 BYTE   W96
// 010   ----------------------------------------
 BYTE   W96
// 011   ----------------------------------------
 BYTE   W96
// 012   ----------------------------------------
 BYTE   W06
Label_8_011616BB:
 BYTE   W90
// 013   ----------------------------------------
 BYTE   W96
// 014   ----------------------------------------
 BYTE   W96
// 015   ----------------------------------------
 BYTE   W96
// 016   ----------------------------------------
 BYTE   W92
 BYTE   W03
 BYTE   PAN   c_v-64
 BYTE   W01
// 017   ----------------------------------------
 BYTE   N12  Bn3  v127
 BYTE   N12  Ds4
 BYTE   N12  Fs4
 BYTE   N12  As4
 BYTE   W17
 BYTE   PAN   c_v+63
 BYTE   W01
 BYTE   N12  Bn3
 BYTE   N12  Ds4
 BYTE   N12  Fs4
 BYTE   N12  As4
 BYTE   W17
 BYTE   PAN   c_v+0
 BYTE   W01
 BYTE   N12  Bn3
 BYTE   N12  Ds4
 BYTE   N12  Fs4
 BYTE   N12  As4
 BYTE   W11
 BYTE   PAN   c_v+63
 BYTE   W01
 BYTE   N12  Cs4
 BYTE   N12  Fn4
 BYTE   N12  Gs4
 BYTE   N12  Cn5
 BYTE   W17
 BYTE   PAN   c_v-64
 BYTE   W01
 BYTE   N12  Cs4
 BYTE   N12  Fn4
 BYTE   N12  Gs4
 BYTE   N12  Cn5
 BYTE   W17
 BYTE   PAN   c_v+0
 BYTE   W01
 BYTE   N12  Cs4
 BYTE   N12  Fn4
 BYTE   N12  Gs4
 BYTE   N12  Cn5
 BYTE   W11
 BYTE   PAN   c_v-64
 BYTE   W01
// 018   ----------------------------------------
 BYTE   N12  Dn4
 BYTE   N12  Fs4
 BYTE   N12  An4
 BYTE   N12  Cs5
 BYTE   W17
 BYTE   PAN   c_v+63
 BYTE   W01
 BYTE   N12  Dn4
 BYTE   N12  Fs4
 BYTE   N12  An4
 BYTE   N12  Cs5
 BYTE   W17
 BYTE   PAN   c_v+0
 BYTE   W01
 BYTE   N12  Dn4
 BYTE   N12  Fs4
 BYTE   N12  An4
 BYTE   N12  Cs5
 BYTE   W60
// 019   ----------------------------------------
 BYTE   W96
// 020   ----------------------------------------
 BYTE   W96
// 021   ----------------------------------------
 BYTE   W96
// 022   ----------------------------------------
 BYTE   W96
// 023   ----------------------------------------
 BYTE   W96
// 024   ----------------------------------------
 BYTE   W96
// 025   ----------------------------------------
 BYTE   W96
// 026   ----------------------------------------
 BYTE   W96
// 027   ----------------------------------------
 BYTE   W96
// 028   ----------------------------------------
 BYTE   W96
// 029   ----------------------------------------
 BYTE   W96
// 030   ----------------------------------------
 BYTE   W96
// 031   ----------------------------------------
 BYTE   W96
// 032   ----------------------------------------
 BYTE   W96
// 033   ----------------------------------------
 BYTE   W96
// 034   ----------------------------------------
 BYTE   W96
// 035   ----------------------------------------
 BYTE   W96
// 036   ----------------------------------------
 BYTE   W30
 BYTE   GoTo
  POIN2 Label_8_011616BB
// 037   ----------------------------------------
 BYTE   W66
 BYTE   W96
// 038   ----------------------------------------
 BYTE   W96
// 039   ----------------------------------------
 BYTE   W96
// 040   ----------------------------------------
 BYTE   W96
// 041   ----------------------------------------
 BYTE   W24
 BYTE   PAN   c_v-64
 BYTE   N12  Bn3  v127
 BYTE   N12  Ds4
 BYTE   N12  Fs4
 BYTE   N12  As4
 BYTE   W17
 BYTE   PAN   c_v+63
 BYTE   W01
 BYTE   N12  Bn3
 BYTE   N12  Ds4
 BYTE   N12  Fs4
 BYTE   N12  As4
 BYTE   W17
 BYTE   PAN   c_v+0
 BYTE   W01
 BYTE   N12  Bn3
 BYTE   N12  Ds4
 BYTE   N12  Fs4
 BYTE   N12  As4
 BYTE   W11
 BYTE   PAN   c_v+63
 BYTE   W01
 BYTE   N12  Cs4
 BYTE   N12  Fn4
 BYTE   N12  Gs4
 BYTE   N12  Cn5
 BYTE   W17
 BYTE   PAN   c_v-64
 BYTE   W01
 BYTE   N12  Cs4
 BYTE   N12  Fn4
 BYTE   N12  Gs4
 BYTE   N12  Cn5
 BYTE   W06
// 042   ----------------------------------------
 BYTE   W11
 BYTE   PAN   c_v+0
 BYTE   W01
 BYTE   N12  Cs4
 BYTE   N12  Fn4
 BYTE   N12  Gs4
 BYTE   N12  Cn5
 BYTE   W11
 BYTE   PAN   c_v-64
 BYTE   W01
 BYTE   N12  Dn4
 BYTE   N12  Fs4
 BYTE   N12  An4
 BYTE   N12  Cs5
 BYTE   W17
 BYTE   PAN   c_v+63
 BYTE   W01
 BYTE   N12  Dn4
 BYTE   N12  Fs4
 BYTE   N12  An4
 BYTE   N12  Cs5
 BYTE   W17
 BYTE   PAN   c_v+0
 BYTE   W01
 BYTE   N12  Dn4
 BYTE   N12  Fs4
 BYTE   N12  An4
 BYTE   N12  Cs5
 BYTE   W36
// 043   ----------------------------------------
 BYTE   W96
// 044   ----------------------------------------
 BYTE   W96
// 045   ----------------------------------------
 BYTE   W96
// 046   ----------------------------------------
 BYTE   W96
// 047   ----------------------------------------
 BYTE   W96
// 048   ----------------------------------------
 BYTE   W96
// 049   ----------------------------------------
 BYTE   W96
// 050   ----------------------------------------
 BYTE   W96
// 051   ----------------------------------------
 BYTE   W96
// 052   ----------------------------------------
 BYTE   W56
 BYTE   W03
 BYTE   FINE

//**************** Track 10 (Midi-Chn.9) ****************//

MegamanBattleNetwork5vsNebulaGrayThegis_010:
// 000   ----------------------------------------
 BYTE   KEYSH   MegamanBattleNetwork5vsNebulaGrayThegis_key+0
 BYTE   VOICE   28
 BYTE   VOL   38*MegamanBattleNetwork5vsNebulaGrayThegis_mvl/mxv
 BYTE   PAN   c_v+0
 BYTE   W96
// 001   ----------------------------------------
 BYTE   W96
// 002   ----------------------------------------
 BYTE   W96
// 003   ----------------------------------------
 BYTE   W96
// 004   ----------------------------------------
 BYTE   W96
// 005   ----------------------------------------
 BYTE   W96
// 006   ----------------------------------------
 BYTE   W96
// 007   ----------------------------------------
 BYTE   W96
// 008   ----------------------------------------
 BYTE   W96
// 009   ----------------------------------------
 BYTE   W96
// 010   ----------------------------------------
 BYTE   W96
// 011   ----------------------------------------
 BYTE   W96
// 012   ----------------------------------------
 BYTE   W06
Label_9_0115F6D5:
 BYTE   W90
// 013   ----------------------------------------
 BYTE   W96
// 014   ----------------------------------------
 BYTE   W96
// 015   ----------------------------------------
 BYTE   W96
// 016   ----------------------------------------
 BYTE   W96
// 017   ----------------------------------------
 BYTE   W96
// 018   ----------------------------------------
 BYTE   W96
// 019   ----------------------------------------
 BYTE   W96
// 020   ----------------------------------------
 BYTE   W96
// 021   ----------------------------------------
 BYTE   W96
// 022   ----------------------------------------
 BYTE   W96
// 023   ----------------------------------------
 BYTE   W96
// 024   ----------------------------------------
 BYTE   W96
// 025   ----------------------------------------
 BYTE   W96
// 026   ----------------------------------------
 BYTE   W96
// 027   ----------------------------------------
 BYTE   W60
 BYTE   N03  Cn1  v127
 BYTE   N03  Bn3  v076
 BYTE   N03  Fn4  v127
 BYTE   W06
 BYTE   Dn1
 BYTE   N03  Cn4  v076
 BYTE   N03  Gn4  v127
 BYTE   W05
 BYTE   PAN   c_v+32
 BYTE   W01
 BYTE   N03  En1
 BYTE   N03  Dn4  v076
 BYTE   N03  An4  v127
 BYTE   W05
 BYTE   PAN   c_v-32
 BYTE   W01
 BYTE   N03  Fn1
 BYTE   N03  En4  v076
 BYTE   N03  Bn4  v127
 BYTE   W05
 BYTE   PAN   c_v+63
 BYTE   W01
 BYTE   N03  Gn1
 BYTE   N03  Fn4  v076
 BYTE   N03  Cn5  v127
 BYTE   W05
 BYTE   PAN   c_v-64
 BYTE   W01
 BYTE   N03  An1
 BYTE   N03  Gn4  v076
 BYTE   N03  Dn5  v127
 BYTE   W06
// 028   ----------------------------------------
 BYTE   An1  v076
 BYTE   N03  Gn4  v032
 BYTE   N03  Dn5  v076
 BYTE   W96
// 029   ----------------------------------------
 BYTE   W96
// 030   ----------------------------------------
 BYTE   W96
// 031   ----------------------------------------
 BYTE   W96
// 032   ----------------------------------------
 BYTE   W96
// 033   ----------------------------------------
 BYTE   W96
// 034   ----------------------------------------
 BYTE   W96
// 035   ----------------------------------------
 BYTE   W96
// 036   ----------------------------------------
 BYTE   W30
 BYTE   GoTo
  POIN2 Label_9_0115F6D5
// 037   ----------------------------------------
 BYTE   W66
 BYTE   W96
// 038   ----------------------------------------
 BYTE   W96
// 039   ----------------------------------------
 BYTE   W96
// 040   ----------------------------------------
 BYTE   W96
// 041   ----------------------------------------
 BYTE   W96
// 042   ----------------------------------------
 BYTE   W96
// 043   ----------------------------------------
 BYTE   W96
// 044   ----------------------------------------
 BYTE   W96
// 045   ----------------------------------------
 BYTE   W96
// 046   ----------------------------------------
 BYTE   W96
// 047   ----------------------------------------
 BYTE   W96
// 048   ----------------------------------------
 BYTE   W96
// 049   ----------------------------------------
 BYTE   W96
// 050   ----------------------------------------
 BYTE   W96
// 051   ----------------------------------------
 BYTE   W84
 BYTE   N03  Cn1  v127
 BYTE   N03  Bn3  v076
 BYTE   N03  Fn4  v127
 BYTE   W06
 BYTE   Dn1
 BYTE   N03  Cn4  v076
 BYTE   N03  Gn4  v127
 BYTE   W05
 BYTE   PAN   c_v+32
 BYTE   W01
// 052   ----------------------------------------
 BYTE   N03  En1
 BYTE   N03  Dn4  v076
 BYTE   N03  An4  v127
 BYTE   W05
 BYTE   PAN   c_v-32
 BYTE   W01
 BYTE   N03  Fn1
 BYTE   N03  En4  v076
 BYTE   N03  Bn4  v127
 BYTE   W05
 BYTE   PAN   c_v+63
 BYTE   W01
 BYTE   N03  Gn1
 BYTE   N03  Fn4  v076
 BYTE   N03  Cn5  v127
 BYTE   W05
 BYTE   PAN   c_v-64
 BYTE   W01
 BYTE   N03  An1
 BYTE   N03  Gn4  v076
 BYTE   N03  Dn5  v127
 BYTE   W06
 BYTE   An1  v076
 BYTE   N03  Gn4  v032
 BYTE   N03  Dn5  v076
 BYTE   W32
 BYTE   W03
 BYTE   FINE

//**************** Track 11 (Midi-Chn.10) ****************//

MegamanBattleNetwork5vsNebulaGrayThegis_011:
// 000   ----------------------------------------
 BYTE   KEYSH   MegamanBattleNetwork5vsNebulaGrayThegis_key+0
 BYTE   VOICE   31
 BYTE   VOL   49*MegamanBattleNetwork5vsNebulaGrayThegis_mvl/mxv
 BYTE   W96
// 001   ----------------------------------------
 BYTE   W96
// 002   ----------------------------------------
 BYTE   W96
// 003   ----------------------------------------
 BYTE   W96
// 004   ----------------------------------------
 BYTE   W96
// 005   ----------------------------------------
 BYTE   W96
// 006   ----------------------------------------
 BYTE   W96
// 007   ----------------------------------------
 BYTE   W96
// 008   ----------------------------------------
 BYTE   W96
// 009   ----------------------------------------
 BYTE   W96
// 010   ----------------------------------------
 BYTE   W48
 BYTE   PAN   c_v+0
 BYTE   W48
// 011   ----------------------------------------
 BYTE   W96
// 012   ----------------------------------------
 BYTE   W06
Label_10_0125EC92:
 BYTE   W23
 BYTE   PAN   c_v-64
 BYTE   W16
 BYTE   CsM2
 BYTE   W01
 BYTE   DnM2
 BYTE   W02
 BYTE   BEND   c_v+0
 BYTE   N48  Ds2  v127
 BYTE   N48  Fn2
 BYTE   W01
 BYTE   BEND   c_v+0
 BYTE   W01
 BYTE   PAN   c_v-61
 BYTE   W02
 BYTE   EnM2
 BYTE   W03
 BYTE   FsM2
 BYTE   W01
 BYTE   GnM2
 BYTE   W01
 BYTE   AnM2
 BYTE   W02
 BYTE   BnM2
 BYTE   BEND   c_v+1
 BYTE   W01
 BYTE   PAN   c_v-51
 BYTE   BEND   c_v+4
 BYTE   W01
 BYTE   PAN   c_v-50
 BYTE   BEND   c_v+7
 BYTE   W01
 BYTE   PAN   c_v-47
 BYTE   BEND   c_v+9
 BYTE   W01
 BYTE   PAN   c_v-46
 BYTE   W01
 BYTE   GsM1
 BYTE   BEND   c_v+10
 BYTE   W01
 BYTE   PAN   c_v-42
 BYTE   BEND   c_v+12
 BYTE   W01
 BYTE   PAN   c_v-38
 BYTE   BEND   c_v+13
 BYTE   W01
 BYTE   PAN   c_v-36
 BYTE   BEND   c_v+15
 BYTE   W01
 BYTE   PAN   c_v-33
 BYTE   BEND   c_v+16
 BYTE   W01
 BYTE   PAN   c_v-31
 BYTE   W01
 BYTE   Cs1
 BYTE   BEND   c_v+17
 BYTE   W01
 BYTE   PAN   c_v-24
 BYTE   BEND   c_v+19
 BYTE   W01
 BYTE   PAN   c_v-20
 BYTE   BEND   c_v+20
 BYTE   W01
 BYTE   PAN   c_v-18
 BYTE   BEND   c_v+21
 BYTE   W01
 BYTE   PAN   c_v-16
 BYTE   BEND   c_v+22
 BYTE   W01
 BYTE   PAN   c_v-12
 BYTE   W01
 BYTE   Fn2
 BYTE   BEND   c_v+23
 BYTE   W01
 BYTE   PAN   c_v-7
 BYTE   BEND   c_v+24
 BYTE   W01
 BYTE   PAN   c_v-3
 BYTE   BEND   c_v+25
 BYTE   W01
 BYTE   PAN   c_v+3
 BYTE   BEND   c_v+26
 BYTE   W01
 BYTE   PAN   c_v+6
 BYTE   BEND   c_v+27
 BYTE   W01
 BYTE   PAN   c_v+12
 BYTE   W01
 BYTE   As4
 BYTE   BEND   c_v+28
 BYTE   W01
 BYTE   PAN   c_v+24
 BYTE   BEND   c_v+29
 BYTE   W01
 BYTE   PAN   c_v+28
 BYTE   BEND   c_v+29
 BYTE   W01
 BYTE   PAN   c_v+32
 BYTE   BEND   c_v+30
 BYTE   W01
 BYTE   PAN   c_v+35
 BYTE   BEND   c_v+31
 BYTE   W01
 BYTE   PAN   c_v+39
 BYTE   W01
 BYTE   Bn6
 BYTE   BEND   c_v+32
 BYTE   W01
 BYTE   PAN   c_v+45
 BYTE   BEND   c_v+32
 BYTE   W01
 BYTE   PAN   c_v+48
 BYTE   BEND   c_v+32
 BYTE   W01
 BYTE   PAN   c_v+52
 BYTE   BEND   c_v+33
 BYTE   W01
 BYTE   PAN   c_v+54
 BYTE   BEND   c_v+33
 BYTE   W01
 BYTE   PAN   c_v+59
 BYTE   W01
 BYTE   Gn8
 BYTE   BEND   c_v+33
 BYTE   W01
 BYTE   Cs6
 BYTE   W01
// 013   ----------------------------------------
 BYTE   Cs6
 BYTE   W01
 BYTE   Cs6
 BYTE   W01
 BYTE   Cs6
 BYTE   W02
 BYTE   Dn6
 BYTE   W01
 BYTE   Dn6
 BYTE   W01
 BYTE   Dn6
 BYTE   W01
 BYTE   Dn6
 BYTE   W01
 BYTE   Dn6
 BYTE   W88
// 014   ----------------------------------------
 BYTE   W96
// 015   ----------------------------------------
 BYTE   W96
// 016   ----------------------------------------
 BYTE   W96
// 017   ----------------------------------------
 BYTE   W96
// 018   ----------------------------------------
 BYTE   W48
 BYTE   En3
 BYTE   W01
 BYTE   En3
 BYTE   W02
 BYTE   Ds3
 BYTE   W44
 BYTE   W01
// 019   ----------------------------------------
 BYTE   W28
 BYTE   W01
 BYTE   PAN   c_v-64
 BYTE   W16
 BYTE   CsM2
 BYTE   W01
 BYTE   DnM2
 BYTE   W02
 BYTE   BEND   c_v+0
 BYTE   N48  Ds2
 BYTE   N48  Fn2
 BYTE   W01
 BYTE   BEND   c_v+0
 BYTE   W01
 BYTE   PAN   c_v-61
 BYTE   W02
 BYTE   EnM2
 BYTE   W03
 BYTE   FsM2
 BYTE   W01
 BYTE   GnM2
 BYTE   W01
 BYTE   AnM2
 BYTE   W02
 BYTE   BnM2
 BYTE   W01
 BYTE   CsM1
 BYTE   BEND   c_v+0
 BYTE   W01
 BYTE   PAN   c_v-50
 BYTE   BEND   c_v+2
 BYTE   W01
 BYTE   PAN   c_v-47
 BYTE   W01
 BYTE   FsM1
 BYTE   BEND   c_v+3
 BYTE   W01
 BYTE   PAN   c_v-44
 BYTE   BEND   c_v+5
 BYTE   W01
 BYTE   PAN   c_v-42
 BYTE   BEND   c_v+7
 BYTE   W01
 BYTE   PAN   c_v-38
 BYTE   BEND   c_v+9
 BYTE   W01
 BYTE   PAN   c_v-36
 BYTE   BEND   c_v+11
 BYTE   W01
 BYTE   PAN   c_v-33
 BYTE   W01
 BYTE   An0
 BYTE   BEND   c_v+13
 BYTE   W01
 BYTE   PAN   c_v-27
 BYTE   BEND   c_v+14
 BYTE   W01
 BYTE   PAN   c_v-24
 BYTE   BEND   c_v+16
 BYTE   W01
 BYTE   PAN   c_v-20
 BYTE   BEND   c_v+17
 BYTE   W01
 BYTE   PAN   c_v-18
 BYTE   BEND   c_v+19
 BYTE   W01
 BYTE   PAN   c_v-16
 BYTE   W01
 BYTE   En2
 BYTE   BEND   c_v+20
 BYTE   W01
 BYTE   PAN   c_v-11
 BYTE   BEND   c_v+22
 BYTE   W01
 BYTE   PAN   c_v-7
 BYTE   BEND   c_v+23
 BYTE   W01
 BYTE   PAN   c_v-3
 BYTE   BEND   c_v+24
 BYTE   W01
 BYTE   PAN   c_v+3
 BYTE   BEND   c_v+25
 BYTE   W01
 BYTE   PAN   c_v+6
 BYTE   W01
 BYTE   En4
 BYTE   BEND   c_v+27
 BYTE   W01
 BYTE   PAN   c_v+18
 BYTE   BEND   c_v+27
 BYTE   W01
 BYTE   PAN   c_v+24
 BYTE   BEND   c_v+28
 BYTE   W01
 BYTE   PAN   c_v+28
 BYTE   BEND   c_v+29
 BYTE   W01
 BYTE   PAN   c_v+32
 BYTE   BEND   c_v+30
 BYTE   W01
 BYTE   PAN   c_v+35
 BYTE   W01
 BYTE   Gn6
 BYTE   BEND   c_v+30
 BYTE   W01
 BYTE   PAN   c_v+43
 BYTE   BEND   c_v+31
 BYTE   W01
 BYTE   PAN   c_v+45
 BYTE   BEND   c_v+32
 BYTE   W01
 BYTE   PAN   c_v+48
 BYTE   BEND   c_v+33
 BYTE   W01
 BYTE   PAN   c_v+52
 BYTE   BEND   c_v+33
 BYTE   W01
 BYTE   PAN   c_v+54
 BYTE   W01
 BYTE   Ds8
 BYTE   BEND   c_v+34
 BYTE   W01
 BYTE   PAN   c_v+63
 BYTE   BEND   c_v+34
 BYTE   W01
 BYTE   Ds6
 BYTE   W01
// 020   ----------------------------------------
 BYTE   Ds6
 BYTE   W01
 BYTE   Ds6
 BYTE   W02
 BYTE   Ds6
 BYTE   W01
 BYTE   Ds6
 BYTE   W01
 BYTE   Ds6
 BYTE   W01
 BYTE   Ds6
 BYTE   W01
 BYTE   Ds6
 BYTE   W01
 BYTE   Ds6
 BYTE   W88
// 021   ----------------------------------------
 BYTE   W96
// 022   ----------------------------------------
 BYTE   W96
// 023   ----------------------------------------
 BYTE   W96
// 024   ----------------------------------------
 BYTE   W96
// 025   ----------------------------------------
 BYTE   W96
// 026   ----------------------------------------
 BYTE   W96
// 027   ----------------------------------------
 BYTE   W96
// 028   ----------------------------------------
 BYTE   W96
// 029   ----------------------------------------
 BYTE   W96
// 030   ----------------------------------------
 BYTE   W96
// 031   ----------------------------------------
 BYTE   W96
// 032   ----------------------------------------
 BYTE   W96
// 033   ----------------------------------------
 BYTE   W96
// 034   ----------------------------------------
 BYTE   W76
 BYTE   W01
 BYTE   PAN   c_v+0
 BYTE   W19
// 035   ----------------------------------------
 BYTE   W96
// 036   ----------------------------------------
 BYTE   W30
 BYTE   GoTo
  POIN2 Label_10_0125EC92
// 037   ----------------------------------------
 BYTE   W28
 BYTE   W01
 BYTE   PAN   c_v-64
 BYTE   W13
 BYTE   N48  Ds2  v127
 BYTE   N48  Fn2
 BYTE   W02
 BYTE   PAN   c_v-63
 BYTE   W02
 BYTE   DnM2
 BYTE   W01
 BYTE   BEND   c_v+0
 BYTE   W01
 BYTE   En3
 BYTE   W02
 BYTE   PAN   c_v-61
 BYTE   W02
 BYTE   EnM2
 BYTE   W02
 BYTE   FnM2
 BYTE   W01
 BYTE   GnM2
 BYTE   W02
 BYTE   AnM2
 BYTE   W01
 BYTE   AsM2
 BYTE   W01
 BYTE   BnM2
 BYTE   BEND   c_v+1
 BYTE   W01
 BYTE   PAN   c_v-51
 BYTE   W01
 BYTE   DsM1
 BYTE   BEND   c_v+3
 BYTE   W01
 BYTE   PAN   c_v-47
 BYTE   BEND   c_v+5
 BYTE   W01
 BYTE   PAN   c_v-46
 BYTE   BEND   c_v+7
 BYTE   W01
 BYTE   PAN   c_v-43
 BYTE   BEND   c_v+8
 BYTE   W01
 BYTE   PAN   c_v-41
 BYTE   BEND   c_v+9
 BYTE   W01
 BYTE   PAN   c_v-38
 BYTE   W01
 BYTE   En0
 BYTE   BEND   c_v+11
 BYTE   W01
 BYTE   PAN   c_v-32
 BYTE   BEND   c_v+13
 BYTE   W01
 BYTE   PAN   c_v-31
 BYTE   BEND   c_v+14
 BYTE   W01
 BYTE   PAN   c_v-26
 BYTE   BEND   c_v+16
 BYTE   W01
 BYTE   PAN   c_v-24
 BYTE   BEND   c_v+17
 BYTE   W01
 BYTE   PAN   c_v-20
 BYTE   W01
 BYTE   As1
 BYTE   BEND   c_v+19
 BYTE   W01
 BYTE   PAN   c_v-16
 BYTE   BEND   c_v+20
 BYTE   W01
 BYTE   PAN   c_v-12
 BYTE   BEND   c_v+22
 BYTE   W01
 BYTE   PAN   c_v-9
 BYTE   BEND   c_v+22
 BYTE   W01
 BYTE   PAN   c_v-6
 BYTE   BEND   c_v+23
 BYTE   W01
 BYTE   PAN   c_v-2
 BYTE   W01
 BYTE   Gn3
 BYTE   BEND   c_v+25
 BYTE   W01
 BYTE   PAN   c_v+7
 BYTE   BEND   c_v+26
 BYTE   W01
 BYTE   PAN   c_v+15
 BYTE   BEND   c_v+27
 BYTE   W01
 BYTE   PAN   c_v+18
 BYTE   BEND   c_v+28
 BYTE   W01
 BYTE   PAN   c_v+24
 BYTE   BEND   c_v+29
 BYTE   W01
 BYTE   PAN   c_v+29
 BYTE   W01
 BYTE   Cn6
 BYTE   BEND   c_v+30
 BYTE   W01
 BYTE   PAN   c_v+37
 BYTE   BEND   c_v+30
 BYTE   W01
 BYTE   PAN   c_v+40
 BYTE   BEND   c_v+31
 BYTE   W01
 BYTE   PAN   c_v+43
 BYTE   BEND   c_v+32
 BYTE   W01
 BYTE   PAN   c_v+47
 BYTE   BEND   c_v+33
 BYTE   W01
 BYTE   PAN   c_v+50
 BYTE   W01
 BYTE   Gs7
 BYTE   BEND   c_v+33
 BYTE   W01
 BYTE   PAN   c_v+56
 BYTE   BEND   c_v+33
 BYTE   W01
 BYTE   PAN   c_v+61
 BYTE   BEND   c_v+33
 BYTE   W01
 BYTE   PAN   c_v+63
 BYTE   BEND   c_v+33
 BYTE   W01
 BYTE   Dn6
 BYTE   W02
// 038   ----------------------------------------
 BYTE   Dn6
 BYTE   W01
 BYTE   Dn6
 BYTE   W01
 BYTE   Dn6
 BYTE   W01
 BYTE   Dn6
 BYTE   W01
 BYTE   Dn6
 BYTE   W02
 BYTE   Dn6
 BYTE   W01
 BYTE   Dn6
 BYTE   W01
 BYTE   Dn6
 BYTE   W01
 BYTE   Dn6
 BYTE   W01
 BYTE   Dn6
 BYTE   W02
 BYTE   Dn6
 BYTE   W01
 BYTE   Dn6
 BYTE   W52
 BYTE   W96
// 039   ----------------------------------------
 BYTE   W96
// 040   ----------------------------------------
 BYTE   W96
// 041   ----------------------------------------
 BYTE   W96
// 042   ----------------------------------------
 BYTE   W76
 BYTE   W01
 BYTE   En3
 BYTE   W01
 BYTE   En3
 BYTE   W03
 BYTE   Ds3
 BYTE   W15
// 043   ----------------------------------------
 BYTE   W56
 BYTE   W03
 BYTE   PAN   c_v-64
 BYTE   W13
 BYTE   N48  Ds2
 BYTE   N48  Fn2
 BYTE   W02
 BYTE   PAN   c_v-63
 BYTE   W02
 BYTE   DnM2
 BYTE   W01
 BYTE   BEND   c_v+0
 BYTE   W01
 BYTE   En3
 BYTE   W02
 BYTE   PAN   c_v-61
 BYTE   W02
 BYTE   EnM2
 BYTE   W02
 BYTE   FnM2
 BYTE   W01
 BYTE   GnM2
 BYTE   W02
 BYTE   AnM2
 BYTE   W01
 BYTE   AsM2
 BYTE   W01
 BYTE   BnM2
 BYTE   BEND   c_v+0
 BYTE   W01
 BYTE   PAN   c_v-51
 BYTE   BEND   c_v-1
 BYTE   W01
 BYTE   PAN   c_v-49
 BYTE   BEND   c_v+2
 BYTE   W01
 BYTE   PAN   c_v-47
 BYTE   BEND   c_v+3
 BYTE   W01
 BYTE   PAN   c_v-46
 BYTE   BEND   c_v+5
 BYTE   W01
 BYTE   PAN   c_v-43
 BYTE   BEND   c_v+8
 BYTE   W01
 BYTE   PAN   c_v-41
 BYTE   W01
// 044   ----------------------------------------
 BYTE   Dn0
 BYTE   BEND   c_v+10
 BYTE   W01
 BYTE   PAN   c_v-36
 BYTE   BEND   c_v+12
 BYTE   W01
 BYTE   PAN   c_v-32
 BYTE   BEND   c_v+13
 BYTE   W01
 BYTE   PAN   c_v-31
 BYTE   BEND   c_v+14
 BYTE   W01
 BYTE   PAN   c_v-26
 BYTE   BEND   c_v+16
 BYTE   W01
 BYTE   PAN   c_v-24
 BYTE   W01
 BYTE   Gs1
 BYTE   BEND   c_v+18
 BYTE   W01
 BYTE   PAN   c_v-18
 BYTE   BEND   c_v+18
 BYTE   W01
 BYTE   PAN   c_v-16
 BYTE   BEND   c_v+19
 BYTE   W01
 BYTE   PAN   c_v-12
 BYTE   BEND   c_v+20
 BYTE   W01
 BYTE   PAN   c_v-9
 BYTE   BEND   c_v+22
 BYTE   W01
 BYTE   PAN   c_v-6
 BYTE   W01
 BYTE   Dn3
 BYTE   BEND   c_v+23
 BYTE   W01
 BYTE   PAN   c_v+3
 BYTE   BEND   c_v+24
 BYTE   W01
 BYTE   PAN   c_v+7
 BYTE   BEND   c_v+25
 BYTE   W01
 BYTE   PAN   c_v+15
 BYTE   BEND   c_v+26
 BYTE   W01
 BYTE   PAN   c_v+18
 BYTE   BEND   c_v+27
 BYTE   W01
 BYTE   PAN   c_v+24
 BYTE   W01
 BYTE   An5
 BYTE   BEND   c_v+28
 BYTE   W01
 BYTE   PAN   c_v+32
 BYTE   BEND   c_v+29
 BYTE   W01
 BYTE   PAN   c_v+37
 BYTE   BEND   c_v+30
 BYTE   W01
 BYTE   PAN   c_v+40
 BYTE   BEND   c_v+30
 BYTE   W01
 BYTE   PAN   c_v+43
 BYTE   BEND   c_v+31
 BYTE   W01
 BYTE   PAN   c_v+47
 BYTE   W01
 BYTE   Fs7
 BYTE   BEND   c_v+32
 BYTE   W01
 BYTE   PAN   c_v+52
 BYTE   BEND   c_v+33
 BYTE   W01
 BYTE   PAN   c_v+56
 BYTE   BEND   c_v+34
 BYTE   W01
 BYTE   PAN   c_v+61
 BYTE   BEND   c_v+34
 BYTE   W01
 BYTE   PAN   c_v+63
 BYTE   BEND   c_v+34
 BYTE   W02
 BYTE   Dn6
 BYTE   W01
 BYTE   Dn6
 BYTE   W01
 BYTE   Dn6
 BYTE   W01
 BYTE   Dn6
 BYTE   W01
 BYTE   Dn6
 BYTE   W02
 BYTE   Dn6
 BYTE   W01
 BYTE   Ds6
 BYTE   W01
 BYTE   Ds6
 BYTE   W56
 BYTE   W02
// 045   ----------------------------------------
 BYTE   W96
// 046   ----------------------------------------
 BYTE   W96
// 047   ----------------------------------------
 BYTE   W96
// 048   ----------------------------------------
 BYTE   W96
// 049   ----------------------------------------
 BYTE   W96
// 050   ----------------------------------------
 BYTE   W96
// 051   ----------------------------------------
 BYTE   W96
// 052   ----------------------------------------
 BYTE   W56
 BYTE   W03
 BYTE   As5
 BYTE   FINE

//**************** Track 12 (Midi-Chn.11) ****************//

MegamanBattleNetwork5vsNebulaGrayThegis_012:
// 000   ----------------------------------------
 BYTE   KEYSH   MegamanBattleNetwork5vsNebulaGrayThegis_key+0
 BYTE   VOICE   36
 BYTE   VOL   25*MegamanBattleNetwork5vsNebulaGrayThegis_mvl/mxv
 BYTE   N10  Gn1  v127
 BYTE   W18
 BYTE   Gs1
 BYTE   W18
 BYTE   Gn1
 BYTE   W18
 BYTE   Fn1
 BYTE   W18
 BYTE   Gs1
 BYTE   W12
 BYTE   Fn1
 BYTE   W12
// 001   ----------------------------------------
Label_11_0125F940:
 BYTE   N10  Gn1  v127
 BYTE   W18
 BYTE   Gs1
 BYTE   W18
 BYTE   Gn1
 BYTE   W18
 BYTE   Fn1
 BYTE   W18
 BYTE   Gs1
 BYTE   W12
 BYTE   As1
 BYTE   W12
 BYTE   PEND 
// 002   ----------------------------------------
Label_11_0125F94F:
 BYTE   N10  Gn1  v127
 BYTE   W18
 BYTE   Gs1
 BYTE   W18
 BYTE   Gn1
 BYTE   W18
 BYTE   Fn1
 BYTE   W18
 BYTE   Gs1
 BYTE   W12
 BYTE   Fn1
 BYTE   W12
 BYTE   PEND 
// 003   ----------------------------------------
 BYTE   PATT
  POIN2 Label_11_0125F940
// 004   ----------------------------------------
 BYTE   PATT
  POIN2 Label_11_0125F94F
// 005   ----------------------------------------
 BYTE   PATT
  POIN2 Label_11_0125F940
// 006   ----------------------------------------
 BYTE   PATT
  POIN2 Label_11_0125F94F
// 007   ----------------------------------------
 BYTE   PATT
  POIN2 Label_11_0125F940
// 008   ----------------------------------------
 BYTE   PATT
  POIN2 Label_11_0125F94F
// 009   ----------------------------------------
 BYTE   PATT
  POIN2 Label_11_0125F940
// 010   ----------------------------------------
 BYTE   PATT
  POIN2 Label_11_0125F94F
// 011   ----------------------------------------
 BYTE   PATT
  POIN2 Label_11_0125F940
// 012   ----------------------------------------
 BYTE   N06  Bn0  v080
 BYTE   W06
Label_11_0125F98F:
 BYTE   N10  Bn1  v127
 BYTE   W18
 BYTE   N23
 BYTE   W24
 BYTE   N15  Bn0
 BYTE   W18
 BYTE   Bn1
 BYTE   W18
 BYTE   N10  Bn0
 BYTE   W12
// 013   ----------------------------------------
 BYTE   Ds1
 BYTE   W18
 BYTE   N10
 BYTE   W18
 BYTE   N18
 BYTE   W24
 BYTE   N06  Fn1
 BYTE   W06
 BYTE   Ds1
 BYTE   W06
 BYTE   As1
 BYTE   W06
 BYTE   Ds1
 BYTE   W06
 BYTE   As0
 BYTE   W06
 BYTE   Ds1
 BYTE   W06
// 014   ----------------------------------------
 BYTE   N10  Cs1
 BYTE   W18
 BYTE   N10
 BYTE   W18
 BYTE   N18
 BYTE   W24
 BYTE   N06  Ds1
 BYTE   W06
 BYTE   Cs1
 BYTE   W06
 BYTE   Gs1
 BYTE   W06
 BYTE   Cs1
 BYTE   W06
 BYTE   Gs0
 BYTE   W06
 BYTE   Cs1
 BYTE   W06
// 015   ----------------------------------------
 BYTE   N10  Bn0
 BYTE   W18
 BYTE   Bn1
 BYTE   W18
 BYTE   N18  Bn0
 BYTE   W24
 BYTE   N06  Cs1
 BYTE   W06
 BYTE   Bn1
 BYTE   W06
 BYTE   Fs2
 BYTE   W06
 BYTE   Bn1
 BYTE   W06
 BYTE   Fs1
 BYTE   W06
 BYTE   Bn0
 BYTE   W06
// 016   ----------------------------------------
 BYTE   N10  As0
 BYTE   W18
 BYTE   As1
 BYTE   W18
 BYTE   N18  As0
 BYTE   W24
 BYTE   N06  Cn1
 BYTE   W06
 BYTE   As1
 BYTE   W06
 BYTE   Fn2
 BYTE   W06
 BYTE   As1
 BYTE   W06
 BYTE   Fn1
 BYTE   W06
 BYTE   As0
 BYTE   W06
// 017   ----------------------------------------
 BYTE   N15  Gs0
 BYTE   W18
 BYTE   N11  Gs1
 BYTE   W12
 BYTE   N06  Gs0
 BYTE   W06
 BYTE   Gs1
 BYTE   W06
 BYTE   Gs0
 BYTE   W06
 BYTE   N15  As0
 BYTE   W18
 BYTE   N11  As1
 BYTE   W12
 BYTE   N06  As0
 BYTE   W06
 BYTE   As1
 BYTE   W06
 BYTE   As0
 BYTE   W06
// 018   ----------------------------------------
 BYTE   N15  Bn0
 BYTE   W18
 BYTE   N11  Bn1
 BYTE   W12
 BYTE   N06  Bn0
 BYTE   W06
 BYTE   Bn1
 BYTE   W06
 BYTE   Bn0
 BYTE   W06
 BYTE   N15  Cs1
 BYTE   W18
 BYTE   N11  Cs2
 BYTE   W12
 BYTE   N06  Cs1
 BYTE   W06
 BYTE   Cs2
 BYTE   W06
 BYTE   Cs1
 BYTE   W06
// 019   ----------------------------------------
 BYTE   Cn1  v080
 BYTE   W06
 BYTE   N10  Cn2  v127
 BYTE   W18
 BYTE   N23
 BYTE   W24
 BYTE   N15  Cn1
 BYTE   W18
 BYTE   Cn2
 BYTE   W18
 BYTE   N08  Cn1
 BYTE   W12
// 020   ----------------------------------------
 BYTE   N10  En1
 BYTE   W18
 BYTE   N10
 BYTE   W18
 BYTE   N18
 BYTE   W24
 BYTE   N06  Fs1
 BYTE   W06
 BYTE   En1
 BYTE   W06
 BYTE   Bn1
 BYTE   W06
 BYTE   En1
 BYTE   W06
 BYTE   Bn0
 BYTE   W06
 BYTE   En1
 BYTE   W06
// 021   ----------------------------------------
 BYTE   N10  Dn1
 BYTE   W18
 BYTE   N10
 BYTE   W18
 BYTE   N18
 BYTE   W24
 BYTE   N06  En1
 BYTE   W06
 BYTE   Dn1
 BYTE   W06
 BYTE   An1
 BYTE   W06
 BYTE   Dn1
 BYTE   W06
 BYTE   An0
 BYTE   W06
 BYTE   Dn1
 BYTE   W06
// 022   ----------------------------------------
 BYTE   N10  Cn1
 BYTE   W18
 BYTE   Cn2
 BYTE   W18
 BYTE   N18  Cn1
 BYTE   W24
 BYTE   N06  Dn1
 BYTE   W06
 BYTE   Cn1
 BYTE   W06
 BYTE   Gn1
 BYTE   W06
 BYTE   Cn1
 BYTE   W06
 BYTE   Gn0
 BYTE   W06
 BYTE   Cn1
 BYTE   W06
// 023   ----------------------------------------
 BYTE   N10  Fs1
 BYTE   W18
 BYTE   En1
 BYTE   W18
 BYTE   N18  Fs1
 BYTE   W24
 BYTE   N06  Gn1
 BYTE   W06
 BYTE   Fs1
 BYTE   W06
 BYTE   Cs1
 BYTE   W06
 BYTE   Fs1
 BYTE   W06
 BYTE   Cs2
 BYTE   W06
 BYTE   Fs1
 BYTE   W06
// 024   ----------------------------------------
 BYTE   N20  Bn1
 BYTE   W24
 BYTE   N06  Bn0
 BYTE   W06
 BYTE   An0
 BYTE   W06
 BYTE   Bn0
 BYTE   W06
 BYTE   N18  Dn1
 BYTE   W18
 BYTE   N12  Dn1  v068
 BYTE   W12
 BYTE   N06  Bn0  v127
 BYTE   W06
 BYTE   An0
 BYTE   W06
 BYTE   Bn0
 BYTE   W06
 BYTE   N18  En1
 BYTE   W06
// 025   ----------------------------------------
 BYTE   W12
 BYTE   N12  En1  v068
 BYTE   W12
 BYTE   N06  Bn0  v127
 BYTE   W06
 BYTE   An0
 BYTE   W06
 BYTE   Bn0
 BYTE   W06
 BYTE   N12  Fn1
 BYTE   W12
 BYTE   Fn1  v068
 BYTE   W12
 BYTE   En1  v127
 BYTE   W12
 BYTE   N06  En1  v068
 BYTE   W06
 BYTE   N10  Dn1  v127
 BYTE   W12
// 026   ----------------------------------------
 BYTE   N20  Bn0
 BYTE   W24
 BYTE   N06
 BYTE   W06
 BYTE   An0
 BYTE   W06
 BYTE   Bn0
 BYTE   W06
 BYTE   N18  Dn1
 BYTE   W18
 BYTE   N12  Dn1  v068
 BYTE   W12
 BYTE   N06  Bn0  v127
 BYTE   W06
 BYTE   An0
 BYTE   W06
 BYTE   Bn0
 BYTE   W06
 BYTE   N18  En1
 BYTE   W06
// 027   ----------------------------------------
 BYTE   W12
 BYTE   N12  En1  v068
 BYTE   W12
 BYTE   N06  Bn0  v127
 BYTE   W06
 BYTE   An0
 BYTE   W06
 BYTE   Bn0
 BYTE   W06
 BYTE   N12  Fn1
 BYTE   W12
 BYTE   Fn1  v068
 BYTE   W12
 BYTE   Fn1  v096
 BYTE   W12
 BYTE   N06  Fn1  v068
 BYTE   W06
 BYTE   N12  Fn1  v064
 BYTE   W12
// 028   ----------------------------------------
 BYTE   N10  Fn1  v048
 BYTE   W24
 BYTE   Gn1  v127
 BYTE   W18
 BYTE   Gs1
 BYTE   W18
 BYTE   Gn1
 BYTE   W18
 BYTE   Fn1
 BYTE   W18
// 029   ----------------------------------------
Label_11_0125FB05:
 BYTE   N10  Gs1  v127
 BYTE   W12
 BYTE   Fn1
 BYTE   W12
 BYTE   Gn1
 BYTE   W18
 BYTE   Gs1
 BYTE   W18
 BYTE   Gn1
 BYTE   W18
 BYTE   Fn1
 BYTE   W18
 BYTE   PEND 
// 030   ----------------------------------------
Label_11_0125FB14:
 BYTE   N10  Gs1  v127
 BYTE   W12
 BYTE   As1
 BYTE   W12
 BYTE   Gn1
 BYTE   W18
 BYTE   Gs1
 BYTE   W18
 BYTE   Gn1
 BYTE   W18
 BYTE   Fn1
 BYTE   W18
 BYTE   PEND 
// 031   ----------------------------------------
 BYTE   PATT
  POIN2 Label_11_0125FB05
// 032   ----------------------------------------
 BYTE   PATT
  POIN2 Label_11_0125FB14
// 033   ----------------------------------------
 BYTE   PATT
  POIN2 Label_11_0125FB05
// 034   ----------------------------------------
 BYTE   PATT
  POIN2 Label_11_0125FB14
// 035   ----------------------------------------
 BYTE   PATT
  POIN2 Label_11_0125FB05
// 036   ----------------------------------------
 BYTE   N10  Gs1  v127
 BYTE   W12
 BYTE   As1
 BYTE   W12
 BYTE   N06  Bn0  v080
 BYTE   W06
 BYTE   GoTo
  POIN2 Label_11_0125F98F
// 037   ----------------------------------------
 BYTE   N10  Bn1  v127
 BYTE   W18
 BYTE   N23
 BYTE   W24
 BYTE   N15  Bn0
 BYTE   W18
 BYTE   Bn1
 BYTE   W06
 BYTE   W12
 BYTE   N10  Bn0
 BYTE   W12
 BYTE   Ds1
 BYTE   W18
// 038   ----------------------------------------
 BYTE   N10
 BYTE   W18
 BYTE   N18
 BYTE   W24
 BYTE   N06  Fn1
 BYTE   W06
 BYTE   Ds1
 BYTE   W06
 BYTE   As1
 BYTE   W06
 BYTE   Ds1
 BYTE   W06
 BYTE   As0
 BYTE   W06
 BYTE   Ds1
 BYTE   W06
 BYTE   N10  Cs1
 BYTE   W18
// 039   ----------------------------------------
 BYTE   N10
 BYTE   W18
 BYTE   N18
 BYTE   W24
 BYTE   N06  Ds1
 BYTE   W06
 BYTE   Cs1
 BYTE   W06
 BYTE   Gs1
 BYTE   W06
 BYTE   Cs1
 BYTE   W06
 BYTE   Gs0
 BYTE   W06
 BYTE   Cs1
 BYTE   W06
 BYTE   N10  Bn0
 BYTE   W18
// 040   ----------------------------------------
 BYTE   Bn1
 BYTE   W18
 BYTE   N18  Bn0
 BYTE   W24
 BYTE   N06  Cs1
 BYTE   W06
 BYTE   Bn1
 BYTE   W06
 BYTE   Fs2
 BYTE   W06
 BYTE   Bn1
 BYTE   W06
 BYTE   Fs1
 BYTE   W06
 BYTE   Bn0
 BYTE   W06
 BYTE   N10  As0
 BYTE   W18
// 041   ----------------------------------------
 BYTE   As1
 BYTE   W18
 BYTE   N18  As0
 BYTE   W24
 BYTE   N06  Cn1
 BYTE   W06
 BYTE   As1
 BYTE   W06
 BYTE   Fn2
 BYTE   W06
 BYTE   As1
 BYTE   W06
 BYTE   Fn1
 BYTE   W06
 BYTE   As0
 BYTE   W06
 BYTE   N15  Gs0
 BYTE   W18
// 042   ----------------------------------------
 BYTE   N11  Gs1
 BYTE   W12
 BYTE   N06  Gs0
 BYTE   W06
 BYTE   Gs1
 BYTE   W06
 BYTE   Gs0
 BYTE   W06
 BYTE   N15  As0
 BYTE   W18
 BYTE   N11  As1
 BYTE   W06
 BYTE   W06
 BYTE   N06  As0
 BYTE   W06
 BYTE   As1
 BYTE   W06
 BYTE   As0
 BYTE   W06
 BYTE   N15  Bn0
 BYTE   W18
// 043   ----------------------------------------
 BYTE   N11  Bn1
 BYTE   W12
 BYTE   N06  Bn0
 BYTE   W06
 BYTE   Bn1
 BYTE   W06
 BYTE   Bn0
 BYTE   W06
 BYTE   N15  Cs1
 BYTE   W18
 BYTE   N11  Cs2
 BYTE   W06
 BYTE   W06
 BYTE   N06  Cs1
 BYTE   W06
 BYTE   Cs2
 BYTE   W06
 BYTE   Cs1
 BYTE   W06
 BYTE   Cn1  v080
 BYTE   W06
 BYTE   N10  Cn2  v127
 BYTE   W18
// 044   ----------------------------------------
 BYTE   N23
 BYTE   W24
 BYTE   N15  Cn1
 BYTE   W18
 BYTE   Cn2
 BYTE   W06
 BYTE   W12
 BYTE   N08  Cn1
 BYTE   W12
 BYTE   N10  En1
 BYTE   W18
 BYTE   N10
 BYTE   W18
// 045   ----------------------------------------
 BYTE   N18
 BYTE   W24
 BYTE   N06  Fs1
 BYTE   W06
 BYTE   En1
 BYTE   W06
 BYTE   Bn1
 BYTE   W06
 BYTE   En1
 BYTE   W06
 BYTE   Bn0
 BYTE   W06
 BYTE   En1
 BYTE   W06
 BYTE   N10  Dn1
 BYTE   W18
 BYTE   N10
 BYTE   W18
// 046   ----------------------------------------
 BYTE   N18
 BYTE   W24
 BYTE   N06  En1
 BYTE   W06
 BYTE   Dn1
 BYTE   W06
 BYTE   An1
 BYTE   W06
 BYTE   Dn1
 BYTE   W06
 BYTE   An0
 BYTE   W06
 BYTE   Dn1
 BYTE   W06
 BYTE   N10  Cn1
 BYTE   W18
 BYTE   Cn2
 BYTE   W18
// 047   ----------------------------------------
 BYTE   N18  Cn1
 BYTE   W24
 BYTE   N06  Dn1
 BYTE   W06
 BYTE   Cn1
 BYTE   W06
 BYTE   Gn1
 BYTE   W06
 BYTE   Cn1
 BYTE   W06
 BYTE   Gn0
 BYTE   W06
 BYTE   Cn1
 BYTE   W06
 BYTE   N10  Fs1
 BYTE   W18
 BYTE   En1
 BYTE   W18
// 048   ----------------------------------------
 BYTE   N18  Fs1
 BYTE   W24
 BYTE   N06  Gn1
 BYTE   W06
 BYTE   Fs1
 BYTE   W06
 BYTE   Cs1
 BYTE   W06
 BYTE   Fs1
 BYTE   W06
 BYTE   Cs2
 BYTE   W06
 BYTE   Fs1
 BYTE   W06
 BYTE   N20  Bn1
 BYTE   W24
 BYTE   N06  Bn0
 BYTE   W06
 BYTE   An0
 BYTE   W06
// 049   ----------------------------------------
 BYTE   Bn0
 BYTE   W06
 BYTE   N18  Dn1
 BYTE   W18
 BYTE   N12  Dn1  v068
 BYTE   W12
 BYTE   N06  Bn0  v127
 BYTE   W06
 BYTE   An0
 BYTE   W06
 BYTE   Bn0
 BYTE   W06
 BYTE   N18  En1
 BYTE   W18
 BYTE   N12  En1  v068
 BYTE   W12
 BYTE   N06  Bn0  v127
 BYTE   W06
 BYTE   An0
 BYTE   W06
// 050   ----------------------------------------
 BYTE   Bn0
 BYTE   W06
 BYTE   N12  Fn1
 BYTE   W12
 BYTE   Fn1  v068
 BYTE   W12
 BYTE   En1  v127
 BYTE   W06
 BYTE   W06
 BYTE   N06  En1  v068
 BYTE   W06
 BYTE   N10  Dn1  v127
 BYTE   W12
 BYTE   N20  Bn0
 BYTE   W24
 BYTE   N06
 BYTE   W06
 BYTE   An0
 BYTE   W06
// 051   ----------------------------------------
 BYTE   Bn0
 BYTE   W06
 BYTE   N18  Dn1
 BYTE   W18
 BYTE   N12  Dn1  v068
 BYTE   W12
 BYTE   N06  Bn0  v127
 BYTE   W06
 BYTE   An0
 BYTE   W06
 BYTE   Bn0
 BYTE   W06
 BYTE   N18  En1
 BYTE   W18
 BYTE   N12  En1  v068
 BYTE   W12
 BYTE   N06  Bn0  v127
 BYTE   W06
 BYTE   An0
 BYTE   W06
// 052   ----------------------------------------
 BYTE   Bn0
 BYTE   W06
 BYTE   N12  Fn1
 BYTE   W12
 BYTE   Fn1  v068
 BYTE   W12
 BYTE   Fn1  v096
 BYTE   W06
 BYTE   W06
 BYTE   N06  Fn1  v068
 BYTE   W06
 BYTE   N12  Fn1  v064
 BYTE   W12
 BYTE   N10  Fn1  v048
 BYTE   W32
 BYTE   W03
 BYTE   FINE

//******************************************************//
	ALIGN 4

MegamanBattleNetwork5vsNebulaGrayThegis:
	BYTE	12	// NumTrks
	BYTE	0	// NumBlks
	BYTE	MegamanBattleNetwork5vsNebulaGrayThegis_pri	// Priority
	BYTE	MegamanBattleNetwork5vsNebulaGrayThegis_rev	// Reverb.
    
	POIN2	MegamanBattleNetwork5vsNebulaGrayThegis_grp
    
	POIN2	MegamanBattleNetwork5vsNebulaGrayThegis_001
	POIN2	MegamanBattleNetwork5vsNebulaGrayThegis_002
	POIN2	MegamanBattleNetwork5vsNebulaGrayThegis_003
	POIN2	MegamanBattleNetwork5vsNebulaGrayThegis_004
	POIN2	MegamanBattleNetwork5vsNebulaGrayThegis_005
	POIN2	MegamanBattleNetwork5vsNebulaGrayThegis_006
	POIN2	MegamanBattleNetwork5vsNebulaGrayThegis_007
	POIN2	MegamanBattleNetwork5vsNebulaGrayThegis_008
	POIN2	MegamanBattleNetwork5vsNebulaGrayThegis_009
	POIN2	MegamanBattleNetwork5vsNebulaGrayThegis_010
	POIN2	MegamanBattleNetwork5vsNebulaGrayThegis_011
	POIN2	MegamanBattleNetwork5vsNebulaGrayThegis_012

	
