//Event file generated from Sappy .s format.
	#include "MPlayDef.event"

	#define	MegamanXChillPenguinPandan_grp  voicegroup000
	#define	MegamanXChillPenguinPandan_pri  0
	#define	MegamanXChillPenguinPandan_rev  0
	#define	MegamanXChillPenguinPandan_mvl  127
	#define	MegamanXChillPenguinPandan_key  0
	#define	MegamanXChillPenguinPandan_tbs  1
	#define	MegamanXChillPenguinPandan_exg  0
	#define	MegamanXChillPenguinPandan_cmp  1

	// .rodata
	//	MegamanXChillPenguinPandan
	ALIGN 4


//**************** Track 1 (Midi-Chn.0) ****************//

MegamanXChillPenguinPandan_001:
// 000   ----------------------------------------
 BYTE   KEYSH   MegamanXChillPenguinPandan_key+0
 BYTE   TEMPO   138*MegamanXChillPenguinPandan_tbs/2
 BYTE   VOICE   48
 BYTE   VOL   37*MegamanXChillPenguinPandan_mvl/mxv
 BYTE   PAN   c_v-64
 BYTE   EnM2
 BYTE   N06  Cn4  v100
 BYTE   W01
 BYTE   PAN   c_v-56
 BYTE   W01
 BYTE   DnM1
 BYTE   W01
 BYTE   GnM1
 BYTE   W01
 BYTE   Cs0
 BYTE   W01
 BYTE   Fn0
 BYTE   W01
 BYTE   Bn0
 BYTE   N06  Cn5
 BYTE   W01
 BYTE   PAN   c_v-24
 BYTE   W01
 BYTE   As1
 BYTE   W01
 BYTE   Dn2
 BYTE   W01
 BYTE   An2
 BYTE   W01
 BYTE   Cs3
 BYTE   W01
 BYTE   Gn3
 BYTE   N06  Fn4
 BYTE   W01
 BYTE   PAN   c_v+7
 BYTE   W01
 BYTE   Fs4
 BYTE   W01
 BYTE   As4
 BYTE   W01
 BYTE   En5
 BYTE   W01
 BYTE   An5
 BYTE   W01
 BYTE   Ds6
 BYTE   N06  Gn4
 BYTE   W01
 BYTE   PAN   c_v+39
 BYTE   W01
 BYTE   Dn7
 BYTE   W01
 BYTE   Fs7
 BYTE   W01
 BYTE   Cn8
 BYTE   W01
 BYTE   En8
 BYTE   W01
 BYTE   Ds8
 BYTE   N06  As4
 BYTE   W01
 BYTE   PAN   c_v+55
 BYTE   W01
 BYTE   Fn7
 BYTE   W01
 BYTE   Cn7
 BYTE   W01
 BYTE   Fs6
 BYTE   W01
 BYTE   Dn6
 BYTE   W01
 BYTE   Gs5
 BYTE   N06  Fn4
 BYTE   W01
 BYTE   PAN   c_v+23
 BYTE   W01
 BYTE   An4
 BYTE   W01
 BYTE   Fn4
 BYTE   W01
 BYTE   As3
 BYTE   W01
 BYTE   Fs3
 BYTE   W01
 BYTE   Cn3
 BYTE   N06  Cn4
 BYTE   W01
 BYTE   PAN   c_v-8
 BYTE   W01
 BYTE   Cs2
 BYTE   W01
 BYTE   An1
 BYTE   W01
 BYTE   Ds1
 BYTE   W01
 BYTE   As0
 BYTE   W01
 BYTE   En0
 BYTE   N06  Gn4
 BYTE   W01
 BYTE   PAN   c_v-40
 BYTE   W01
 BYTE   FnM1
 BYTE   W01
 BYTE   CsM1
 BYTE   W01
 BYTE   GnM2
 BYTE   W01
 BYTE   DsM2
 BYTE   W01
 BYTE   DsM2
 BYTE   N06  Fn4
 BYTE   W01
 BYTE   PAN   c_v-57
 BYTE   W01
 BYTE   CsM1
 BYTE   W01
 BYTE   FsM1
 BYTE   W01
 BYTE   Cn0
 BYTE   W01
 BYTE   En0
 BYTE   W01
 BYTE   Bn0
 BYTE   N06  As4
 BYTE   W01
 BYTE   PAN   c_v-25
 BYTE   W01
 BYTE   An1
 BYTE   W01
 BYTE   Dn2
 BYTE   W01
 BYTE   Gs2
 BYTE   W01
 BYTE   Cn3
 BYTE   W01
 BYTE   Gn3
 BYTE   N06  Cn5
 BYTE   W01
 BYTE   PAN   c_v+7
 BYTE   W01
 BYTE   Fn4
 BYTE   W01
 BYTE   As4
 BYTE   W01
 BYTE   En5
 BYTE   W01
 BYTE   Gs5
 BYTE   W01
 BYTE   Ds6
 BYTE   N06  Cn4
 BYTE   W01
 BYTE   PAN   c_v+39
 BYTE   W01
 BYTE   Cs7
 BYTE   W01
 BYTE   Fs7
 BYTE   W01
 BYTE   Cn8
 BYTE   W01
 BYTE   En8
 BYTE   W01
 BYTE   Ds8
 BYTE   N06  Fn4
 BYTE   W01
 BYTE   PAN   c_v+55
 BYTE   W01
 BYTE   Fn7
 BYTE   W01
 BYTE   Cn7
 BYTE   W01
 BYTE   Fs6
 BYTE   W01
 BYTE   Dn6
 BYTE   W01
 BYTE   Gs5
 BYTE   N06  As4
 BYTE   W01
 BYTE   PAN   c_v+23
 BYTE   W01
 BYTE   An4
 BYTE   W01
 BYTE   Fn4
 BYTE   W01
 BYTE   As3
 BYTE   W01
 BYTE   Fs3
 BYTE   W01
 BYTE   Cn3
 BYTE   N06  Fn4
 BYTE   W01
 BYTE   PAN   c_v-8
 BYTE   W01
 BYTE   Cs2
 BYTE   W01
 BYTE   An1
 BYTE   W01
 BYTE   Ds1
 BYTE   W01
 BYTE   As0
 BYTE   W01
 BYTE   En0
 BYTE   N06  Gn4
 BYTE   W01
 BYTE   PAN   c_v-40
 BYTE   W01
 BYTE   FnM1
 BYTE   W01
 BYTE   CsM1
 BYTE   W01
 BYTE   GnM2
 BYTE   W01
 BYTE   DsM2
 BYTE   W01
// 001   ----------------------------------------
Label_0_011758B3:
 BYTE   PAN   c_v-60
 BYTE   N06  Cn4  v100
 BYTE   W01
 BYTE   PAN   c_v-56
 BYTE   W01
 BYTE   DnM1
 BYTE   W01
 BYTE   GnM1
 BYTE   W01
 BYTE   Cs0
 BYTE   W01
 BYTE   Fn0
 BYTE   W01
 BYTE   Bn0
 BYTE   N06  Cn5
 BYTE   W01
 BYTE   PAN   c_v-24
 BYTE   W01
 BYTE   As1
 BYTE   W01
 BYTE   Dn2
 BYTE   W01
 BYTE   An2
 BYTE   W01
 BYTE   Cs3
 BYTE   W01
 BYTE   Gn3
 BYTE   N06  Fn4
 BYTE   W01
 BYTE   PAN   c_v+7
 BYTE   W01
 BYTE   Fs4
 BYTE   W01
 BYTE   As4
 BYTE   W01
 BYTE   En5
 BYTE   W01
 BYTE   An5
 BYTE   W01
 BYTE   Ds6
 BYTE   N06  Gn4
 BYTE   W01
 BYTE   PAN   c_v+39
 BYTE   W01
 BYTE   Dn7
 BYTE   W01
 BYTE   Fs7
 BYTE   W01
 BYTE   Cn8
 BYTE   W01
 BYTE   En8
 BYTE   W01
 BYTE   Ds8
 BYTE   N06  As4
 BYTE   W01
 BYTE   PAN   c_v+55
 BYTE   W01
 BYTE   Fn7
 BYTE   W01
 BYTE   Cn7
 BYTE   W01
 BYTE   Fs6
 BYTE   W01
 BYTE   Dn6
 BYTE   W01
 BYTE   Gs5
 BYTE   N06  Fn4
 BYTE   W01
 BYTE   PAN   c_v+23
 BYTE   W01
 BYTE   An4
 BYTE   W01
 BYTE   Fn4
 BYTE   W01
 BYTE   As3
 BYTE   W01
 BYTE   Fs3
 BYTE   W01
 BYTE   Cn3
 BYTE   N06  Cn4
 BYTE   W01
 BYTE   PAN   c_v-8
 BYTE   W01
 BYTE   Cs2
 BYTE   W01
 BYTE   An1
 BYTE   W01
 BYTE   Ds1
 BYTE   W01
 BYTE   As0
 BYTE   W01
 BYTE   En0
 BYTE   N06  Gn4
 BYTE   W01
 BYTE   PAN   c_v-40
 BYTE   W01
 BYTE   FnM1
 BYTE   W01
 BYTE   CsM1
 BYTE   W01
 BYTE   GnM2
 BYTE   W01
 BYTE   DsM2
 BYTE   W01
 BYTE   DsM2
 BYTE   N06  Fn4
 BYTE   W01
 BYTE   PAN   c_v-57
 BYTE   W01
 BYTE   CsM1
 BYTE   W01
 BYTE   FsM1
 BYTE   W01
 BYTE   Cn0
 BYTE   W01
 BYTE   En0
 BYTE   W01
 BYTE   Bn0
 BYTE   N06  As4
 BYTE   W01
 BYTE   PAN   c_v-25
 BYTE   W01
 BYTE   An1
 BYTE   W01
 BYTE   Dn2
 BYTE   W01
 BYTE   Gs2
 BYTE   W01
 BYTE   Cn3
 BYTE   W01
 BYTE   Gn3
 BYTE   N06  Cn5
 BYTE   W01
 BYTE   PAN   c_v+7
 BYTE   W01
 BYTE   Fn4
 BYTE   W01
 BYTE   As4
 BYTE   W01
 BYTE   En5
 BYTE   W01
 BYTE   Gs5
 BYTE   W01
 BYTE   Ds6
 BYTE   N06  Cn4
 BYTE   W01
 BYTE   PAN   c_v+39
 BYTE   W01
 BYTE   Cs7
 BYTE   W01
 BYTE   Fs7
 BYTE   W01
 BYTE   Cn8
 BYTE   W01
 BYTE   En8
 BYTE   W01
 BYTE   Ds8
 BYTE   N06  Fn4
 BYTE   W01
 BYTE   PAN   c_v+55
 BYTE   W01
 BYTE   Fn7
 BYTE   W01
 BYTE   Cn7
 BYTE   W01
 BYTE   Fs6
 BYTE   W01
 BYTE   Dn6
 BYTE   W01
 BYTE   Gs5
 BYTE   N06  As4
 BYTE   W01
 BYTE   PAN   c_v+23
 BYTE   W01
 BYTE   An4
 BYTE   W01
 BYTE   Fn4
 BYTE   W01
 BYTE   As3
 BYTE   W01
 BYTE   Fs3
 BYTE   W01
 BYTE   Cn3
 BYTE   N06  Fn4
 BYTE   W01
 BYTE   PAN   c_v-8
 BYTE   W01
 BYTE   Cs2
 BYTE   W01
 BYTE   An1
 BYTE   W01
 BYTE   Ds1
 BYTE   W01
 BYTE   As0
 BYTE   W01
 BYTE   En0
 BYTE   N06  Gn4
 BYTE   W01
 BYTE   PAN   c_v-40
 BYTE   W01
 BYTE   FnM1
 BYTE   W01
 BYTE   CsM1
 BYTE   W01
 BYTE   GnM2
 BYTE   W01
 BYTE   DsM2
 BYTE   W01
 BYTE   PEND 
// 002   ----------------------------------------
Label_0_011759A6:
 BYTE   PAN   c_v-64
 BYTE   N06  Cn4  v100
 BYTE   W01
 BYTE   PAN   c_v-60
 BYTE   W01
 BYTE   BnM2
 BYTE   W01
 BYTE   DsM1
 BYTE   W01
 BYTE   AsM1
 BYTE   W01
 BYTE   Dn0
 BYTE   W01
 BYTE   Gs0
 BYTE   N06  Cn5
 BYTE   W01
 BYTE   PAN   c_v-27
 BYTE   W01
 BYTE   Gn1
 BYTE   W01
 BYTE   Cn2
 BYTE   W01
 BYTE   Fs2
 BYTE   W01
 BYTE   Bn2
 BYTE   W01
 BYTE   Fn3
 BYTE   N06  Fn4
 BYTE   W01
 BYTE   PAN   c_v+6
 BYTE   W01
 BYTE   En4
 BYTE   W01
 BYTE   An4
 BYTE   W01
 BYTE   Ds5
 BYTE   W01
 BYTE   Gs5
 BYTE   W01
 BYTE   Dn6
 BYTE   N06  Gn4
 BYTE   W01
 BYTE   PAN   c_v+38
 BYTE   W01
 BYTE   Cs7
 BYTE   W01
 BYTE   Fn7
 BYTE   W01
 BYTE   Cn8
 BYTE   W01
 BYTE   En8
 BYTE   W01
 BYTE   Dn8
 BYTE   N06  As4
 BYTE   W01
 BYTE   PAN   c_v+54
 BYTE   W01
 BYTE   En7
 BYTE   W01
 BYTE   Bn6
 BYTE   W01
 BYTE   Fn6
 BYTE   W01
 BYTE   Cs6
 BYTE   W01
 BYTE   Fs5
 BYTE   N06  Fn4
 BYTE   W01
 BYTE   PAN   c_v+22
 BYTE   W01
 BYTE   Gs4
 BYTE   W01
 BYTE   Ds4
 BYTE   W01
 BYTE   An3
 BYTE   W01
 BYTE   Fn3
 BYTE   W01
 BYTE   As2
 BYTE   N06  Cn4
 BYTE   W01
 BYTE   PAN   c_v-10
 BYTE   W01
 BYTE   Cn2
 BYTE   W01
 BYTE   Gn1
 BYTE   W01
 BYTE   Cs1
 BYTE   W01
 BYTE   An0
 BYTE   W01
 BYTE   Dn0
 BYTE   N06  Gn4
 BYTE   W01
 BYTE   PAN   c_v-42
 BYTE   W01
 BYTE   EnM1
 BYTE   W01
 BYTE   BnM2
 BYTE   W01
 BYTE   FnM2
 BYTE   W01
 BYTE   CsM2
 BYTE   W01
 BYTE   CsM2
 BYTE   N06  Fn4
 BYTE   W01
 BYTE   PAN   c_v-59
 BYTE   W01
 BYTE   CnM1
 BYTE   W01
 BYTE   EnM1
 BYTE   W01
 BYTE   BnM1
 BYTE   W01
 BYTE   Ds0
 BYTE   W01
 BYTE   An0
 BYTE   N06  As4
 BYTE   W01
 BYTE   PAN   c_v-26
 BYTE   W01
 BYTE   Gs1
 BYTE   W01
 BYTE   Cs2
 BYTE   W01
 BYTE   Gn2
 BYTE   W01
 BYTE   Bn2
 BYTE   W01
 BYTE   Fs3
 BYTE   N06  Cn5
 BYTE   W01
 BYTE   PAN   c_v+6
 BYTE   W01
 BYTE   Fn4
 BYTE   W01
 BYTE   An4
 BYTE   W01
 BYTE   En5
 BYTE   W01
 BYTE   Gs5
 BYTE   W01
 BYTE   Dn6
 BYTE   N06  Cn4
 BYTE   W01
 BYTE   PAN   c_v+39
 BYTE   W01
 BYTE   Cs7
 BYTE   W01
 BYTE   Fs7
 BYTE   W01
 BYTE   Cn8
 BYTE   W01
 BYTE   En8
 BYTE   W01
 BYTE   Dn8
 BYTE   N06  Fn4
 BYTE   W01
 BYTE   PAN   c_v+54
 BYTE   W01
 BYTE   En7
 BYTE   W01
 BYTE   Bn6
 BYTE   W01
 BYTE   Fn6
 BYTE   W01
 BYTE   Cs6
 BYTE   W01
 BYTE   Fs5
 BYTE   N06  As4
 BYTE   W01
 BYTE   PAN   c_v+22
 BYTE   W01
 BYTE   Gs4
 BYTE   W01
 BYTE   Ds4
 BYTE   W01
 BYTE   An3
 BYTE   W01
 BYTE   Fn3
 BYTE   W01
 BYTE   As2
 BYTE   N06  Fn4
 BYTE   W01
 BYTE   PAN   c_v-10
 BYTE   W01
 BYTE   Cn2
 BYTE   W01
 BYTE   Gn1
 BYTE   W01
 BYTE   Cs1
 BYTE   W01
 BYTE   An0
 BYTE   W01
 BYTE   Dn0
 BYTE   N06  Gn4
 BYTE   W01
 BYTE   PAN   c_v-42
 BYTE   W01
 BYTE   EnM1
 BYTE   W01
 BYTE   BnM2
 BYTE   W01
 BYTE   FnM2
 BYTE   W01
 BYTE   CsM2
 BYTE   W01
 BYTE   PEND 
// 003   ----------------------------------------
Label_0_01175A99:
 BYTE   PAN   c_v-61
 BYTE   N06  Cn4  v100
 BYTE   W01
 BYTE   PAN   c_v-57
 BYTE   W01
 BYTE   CsM1
 BYTE   W01
 BYTE   FsM1
 BYTE   W01
 BYTE   Cn0
 BYTE   W01
 BYTE   En0
 BYTE   W01
 BYTE   Bn0
 BYTE   N06  Cn5
 BYTE   W01
 BYTE   PAN   c_v-25
 BYTE   W01
 BYTE   An1
 BYTE   W01
 BYTE   Dn2
 BYTE   W01
 BYTE   Gs2
 BYTE   W01
 BYTE   Cn3
 BYTE   W01
 BYTE   Gn3
 BYTE   N06  Fn4
 BYTE   W01
 BYTE   PAN   c_v+7
 BYTE   W01
 BYTE   Fn4
 BYTE   W01
 BYTE   As4
 BYTE   W01
 BYTE   En5
 BYTE   W01
 BYTE   Gs5
 BYTE   W01
 BYTE   Ds6
 BYTE   N06  Gn4
 BYTE   W01
 BYTE   PAN   c_v+39
 BYTE   W01
 BYTE   Cs7
 BYTE   W01
 BYTE   Fs7
 BYTE   W01
 BYTE   Cn8
 BYTE   W01
 BYTE   En8
 BYTE   W01
 BYTE   Dn8
 BYTE   N06  As4
 BYTE   W01
 BYTE   PAN   c_v+54
 BYTE   W01
 BYTE   En7
 BYTE   W01
 BYTE   Bn6
 BYTE   W01
 BYTE   Fn6
 BYTE   W01
 BYTE   Cs6
 BYTE   W01
 BYTE   Fs5
 BYTE   N06  Fn4
 BYTE   W01
 BYTE   PAN   c_v+22
 BYTE   W01
 BYTE   Gs4
 BYTE   W01
 BYTE   Ds4
 BYTE   W01
 BYTE   An3
 BYTE   W01
 BYTE   Fn3
 BYTE   W01
 BYTE   As2
 BYTE   N06  Cn4
 BYTE   W01
 BYTE   PAN   c_v-10
 BYTE   W01
 BYTE   Cn2
 BYTE   W01
 BYTE   Gn1
 BYTE   W01
 BYTE   Cs1
 BYTE   W01
 BYTE   An0
 BYTE   W01
 BYTE   Dn0
 BYTE   N06  Gn4
 BYTE   W01
 BYTE   PAN   c_v-42
 BYTE   W01
 BYTE   EnM1
 BYTE   W01
 BYTE   BnM2
 BYTE   W01
 BYTE   FnM2
 BYTE   W01
 BYTE   CsM2
 BYTE   W01
 BYTE   DnM2
 BYTE   N06  Fn4
 BYTE   W01
 BYTE   PAN   c_v-58
 BYTE   W01
 BYTE   CsM1
 BYTE   W01
 BYTE   FnM1
 BYTE   W01
 BYTE   BnM1
 BYTE   W01
 BYTE   En0
 BYTE   W01
 BYTE   As0
 BYTE   N06  As4
 BYTE   W01
 BYTE   PAN   c_v-26
 BYTE   W01
 BYTE   An1
 BYTE   W01
 BYTE   Cs2
 BYTE   W01
 BYTE   Gs2
 BYTE   W01
 BYTE   Cn3
 BYTE   W01
 BYTE   Fs3
 BYTE   N06  Cn5
 BYTE   W01
 BYTE   PAN   c_v+7
 BYTE   W01
 BYTE   Fn4
 BYTE   W01
 BYTE   An4
 BYTE   W01
 BYTE   En5
 BYTE   W01
 BYTE   Gs5
 BYTE   W01
 BYTE   Ds6
 BYTE   N06  Cn4
 BYTE   W01
 BYTE   PAN   c_v+39
 BYTE   W01
 BYTE   Cs7
 BYTE   W01
 BYTE   Fs7
 BYTE   W01
 BYTE   Cn8
 BYTE   W01
 BYTE   En8
 BYTE   W01
 BYTE   Dn8
 BYTE   N06  Fn4
 BYTE   W01
 BYTE   PAN   c_v+54
 BYTE   W01
 BYTE   En7
 BYTE   W01
 BYTE   Bn6
 BYTE   W01
 BYTE   Fn6
 BYTE   W01
 BYTE   Cs6
 BYTE   W01
 BYTE   Fs5
 BYTE   N06  As4
 BYTE   W01
 BYTE   PAN   c_v+22
 BYTE   W01
 BYTE   Gs4
 BYTE   W01
 BYTE   Ds4
 BYTE   W01
 BYTE   An3
 BYTE   W01
 BYTE   Fn3
 BYTE   W01
 BYTE   As2
 BYTE   N06  Fn4
 BYTE   W01
 BYTE   PAN   c_v-10
 BYTE   W01
 BYTE   Cn2
 BYTE   W01
 BYTE   Gn1
 BYTE   W01
 BYTE   Cs1
 BYTE   W01
 BYTE   An0
 BYTE   W01
 BYTE   Dn0
 BYTE   N06  Gn4
 BYTE   W01
 BYTE   PAN   c_v-42
 BYTE   W01
 BYTE   EnM1
 BYTE   W01
 BYTE   BnM2
 BYTE   W01
 BYTE   FnM2
 BYTE   W01
 BYTE   CsM2
 BYTE   W01
 BYTE   PEND 
// 004   ----------------------------------------
 BYTE   EnM2
 BYTE   N06  Cn4
 BYTE   W01
 BYTE   PAN   c_v-56
 BYTE   W01
 BYTE   DnM1
 BYTE   W01
 BYTE   GnM1
 BYTE   W01
 BYTE   Cs0
 BYTE   W01
 BYTE   Fn0
 BYTE   W01
 BYTE   Bn0
 BYTE   N06  Cn5
 BYTE   W01
 BYTE   PAN   c_v-24
 BYTE   W01
 BYTE   As1
 BYTE   W01
 BYTE   Dn2
 BYTE   W01
 BYTE   An2
 BYTE   W01
 BYTE   Cs3
 BYTE   W01
 BYTE   Gn3
 BYTE   N06  Fn4
 BYTE   W01
 BYTE   PAN   c_v+7
 BYTE   W01
 BYTE   Fs4
 BYTE   W01
 BYTE   As4
 BYTE   W01
 BYTE   En5
 BYTE   W01
 BYTE   An5
 BYTE   W01
 BYTE   Ds6
 BYTE   N06  Gn4
 BYTE   W01
 BYTE   PAN   c_v+39
 BYTE   W01
 BYTE   Dn7
 BYTE   W01
 BYTE   Fs7
 BYTE   W01
 BYTE   Cn8
 BYTE   W01
 BYTE   En8
 BYTE   W01
 BYTE   Ds8
 BYTE   N06  As4
 BYTE   W01
 BYTE   PAN   c_v+55
 BYTE   W01
 BYTE   Fn7
 BYTE   W01
 BYTE   Cn7
 BYTE   W01
 BYTE   Fs6
 BYTE   W01
 BYTE   Dn6
 BYTE   W01
 BYTE   Gs5
 BYTE   N06  Fn4
 BYTE   W01
 BYTE   PAN   c_v+23
 BYTE   W01
 BYTE   An4
 BYTE   W01
 BYTE   Fn4
 BYTE   W01
 BYTE   As3
 BYTE   W01
 BYTE   Fs3
 BYTE   W01
 BYTE   Cn3
 BYTE   N06  Cn4
 BYTE   W01
 BYTE   PAN   c_v-8
 BYTE   W01
 BYTE   Cs2
 BYTE   W01
 BYTE   An1
 BYTE   W01
 BYTE   Ds1
 BYTE   W01
 BYTE   As0
 BYTE   W01
 BYTE   En0
 BYTE   N06  Gn4
 BYTE   W01
 BYTE   PAN   c_v-40
 BYTE   W01
 BYTE   FnM1
 BYTE   W01
 BYTE   CsM1
 BYTE   W01
 BYTE   GnM2
 BYTE   W01
 BYTE   DsM2
 BYTE   W01
 BYTE   DsM2
 BYTE   N06  Fn4
 BYTE   W01
 BYTE   PAN   c_v-57
 BYTE   W01
 BYTE   CsM1
 BYTE   W01
 BYTE   FsM1
 BYTE   W01
 BYTE   Cn0
 BYTE   W01
 BYTE   En0
 BYTE   W01
 BYTE   Bn0
 BYTE   N06  As4
 BYTE   W01
 BYTE   PAN   c_v-25
 BYTE   W01
 BYTE   An1
 BYTE   W01
 BYTE   Dn2
 BYTE   W01
 BYTE   Gs2
 BYTE   W01
 BYTE   Cn3
 BYTE   W01
 BYTE   Gn3
 BYTE   N06  Cn5
 BYTE   W01
 BYTE   PAN   c_v+7
 BYTE   W01
 BYTE   Fn4
 BYTE   W01
 BYTE   As4
 BYTE   W01
 BYTE   En5
 BYTE   W01
 BYTE   Gs5
 BYTE   W01
 BYTE   Ds6
 BYTE   N06  Cn4
 BYTE   W01
 BYTE   PAN   c_v+39
 BYTE   W01
 BYTE   Cs7
 BYTE   W01
 BYTE   Fs7
 BYTE   W01
 BYTE   Cn8
 BYTE   W01
 BYTE   En8
 BYTE   W01
 BYTE   Dn8
 BYTE   N06  Fn4
 BYTE   W01
 BYTE   PAN   c_v+54
 BYTE   W01
 BYTE   Ds7
 BYTE   W01
 BYTE   Bn6
 BYTE   W01
 BYTE   Fn6
 BYTE   W01
 BYTE   Cn6
 BYTE   W01
 BYTE   Fs5
 BYTE   N06  As4
 BYTE   W01
 BYTE   PAN   c_v+22
 BYTE   W01
 BYTE   Gn4
 BYTE   W01
 BYTE   Ds4
 BYTE   W01
 BYTE   Gs3
 BYTE   W01
 BYTE   En3
 BYTE   W01
 BYTE   As2
 BYTE   N06  Fn4
 BYTE   W01
 BYTE   PAN   c_v-11
 BYTE   W01
 BYTE   Bn1
 BYTE   W01
 BYTE   Gn1
 BYTE   W01
 BYTE   Cn1
 BYTE   W01
 BYTE   Gs0
 BYTE   W01
 BYTE   Cs0
 BYTE   N06  Gn4
 BYTE   W01
 BYTE   PAN   c_v-43
 BYTE   W01
 BYTE   DsM1
 BYTE   W01
 BYTE   AsM2
 BYTE   W01
 BYTE   EnM2
 BYTE   W01
 BYTE   CnM2
 BYTE   W01
// 005   ----------------------------------------
 BYTE   DnM2
 BYTE   N06  Cn4
 BYTE   W01
 BYTE   PAN   c_v-58
 BYTE   W01
 BYTE   CsM1
 BYTE   W01
 BYTE   FnM1
 BYTE   W01
 BYTE   Cn0
 BYTE   W01
 BYTE   En0
 BYTE   W01
 BYTE   Bn0
 BYTE   N06  Cn5
 BYTE   W01
 BYTE   PAN   c_v-25
 BYTE   W01
 BYTE   As1
 BYTE   W01
 BYTE   Dn2
 BYTE   W01
 BYTE   An2
 BYTE   W01
 BYTE   Cs3
 BYTE   W01
 BYTE   Gn3
 BYTE   N06  Fn4
 BYTE   W01
 BYTE   PAN   c_v+8
 BYTE   W01
 BYTE   Fs4
 BYTE   W01
 BYTE   Bn4
 BYTE   W01
 BYTE   Fn5
 BYTE   W01
 BYTE   As5
 BYTE   W01
 BYTE   En6
 BYTE   N06  Gn4
 BYTE   W01
 BYTE   PAN   c_v+41
 BYTE   W01
 BYTE   Ds7
 BYTE   W01
 BYTE   Gs7
 BYTE   W01
 BYTE   Dn8
 BYTE   W01
 BYTE   Gn8
 BYTE   W01
 BYTE   Dn8
 BYTE   N06  As4
 BYTE   W01
 BYTE   PAN   c_v+54
 BYTE   W01
 BYTE   Ds7
 BYTE   W01
 BYTE   Bn6
 BYTE   W01
 BYTE   Fn6
 BYTE   W01
 BYTE   Cn6
 BYTE   W01
 BYTE   Fs5
 BYTE   N06  Fn4
 BYTE   W01
 BYTE   PAN   c_v+22
 BYTE   W01
 BYTE   Gn4
 BYTE   W01
 BYTE   Ds4
 BYTE   W01
 BYTE   Gs3
 BYTE   W01
 BYTE   En3
 BYTE   W01
 BYTE   As2
 BYTE   N06  Cn4
 BYTE   W01
 BYTE   PAN   c_v-11
 BYTE   W01
 BYTE   Bn1
 BYTE   W01
 BYTE   Gn1
 BYTE   W01
 BYTE   Cn1
 BYTE   W01
 BYTE   Gs0
 BYTE   W01
 BYTE   Cs0
 BYTE   N06  Gn4
 BYTE   W01
 BYTE   PAN   c_v-43
 BYTE   W01
 BYTE   DsM1
 BYTE   W01
 BYTE   AsM2
 BYTE   W01
 BYTE   EnM2
 BYTE   W01
 BYTE   CnM2
 BYTE   W01
 BYTE   CnM2
 BYTE   N06  Fn4
 BYTE   W01
 BYTE   PAN   c_v-60
 BYTE   W01
 BYTE   BnM2
 BYTE   W01
 BYTE   DsM1
 BYTE   W01
 BYTE   AsM1
 BYTE   W01
 BYTE   Dn0
 BYTE   W01
 BYTE   An0
 BYTE   N06  As4
 BYTE   W01
 BYTE   PAN   c_v-27
 BYTE   W01
 BYTE   Gs1
 BYTE   W01
 BYTE   Cn2
 BYTE   W01
 BYTE   Fs2
 BYTE   W01
 BYTE   Bn2
 BYTE   W01
 BYTE   Fn3
 BYTE   N06  Cn5
 BYTE   W01
 BYTE   PAN   c_v+6
 BYTE   W01
 BYTE   En4
 BYTE   W01
 BYTE   An4
 BYTE   W01
 BYTE   Ds5
 BYTE   W01
 BYTE   Gs5
 BYTE   W01
 BYTE   Dn6
 BYTE   N06  Cn4
 BYTE   W01
 BYTE   PAN   c_v+38
 BYTE   W01
 BYTE   Cs7
 BYTE   W01
 BYTE   Fn7
 BYTE   W01
 BYTE   Cn8
 BYTE   W01
 BYTE   En8
 BYTE   W01
 BYTE   Dn8
 BYTE   N06  Fn4
 BYTE   W01
 BYTE   PAN   c_v+54
 BYTE   W01
 BYTE   En7
 BYTE   W01
 BYTE   Bn6
 BYTE   W01
 BYTE   Fn6
 BYTE   W01
 BYTE   Cs6
 BYTE   W01
 BYTE   Fs5
 BYTE   N06  As4
 BYTE   W01
 BYTE   PAN   c_v+22
 BYTE   W01
 BYTE   Gs4
 BYTE   W01
 BYTE   Ds4
 BYTE   W01
 BYTE   An3
 BYTE   W01
 BYTE   Fn3
 BYTE   W01
 BYTE   As2
 BYTE   N06  Fn4
 BYTE   W01
 BYTE   PAN   c_v-10
 BYTE   W01
 BYTE   Cn2
 BYTE   W01
 BYTE   Gn1
 BYTE   W01
 BYTE   Cs1
 BYTE   W01
 BYTE   An0
 BYTE   W01
 BYTE   Dn0
 BYTE   N06  Gn4
 BYTE   W01
 BYTE   PAN   c_v-42
 BYTE   W01
 BYTE   EnM1
 BYTE   W01
 BYTE   BnM2
 BYTE   W01
 BYTE   FnM2
 BYTE   W01
 BYTE   CsM2
 BYTE   W01
// 006   ----------------------------------------
Label_0_01175D6C:
 BYTE   PAN   c_v-64
 BYTE   W96
// 007   ----------------------------------------
 BYTE   W96
// 008   ----------------------------------------
 BYTE   W96
// 009   ----------------------------------------
 BYTE   W24
 BYTE   En3
 BYTE   W06
 BYTE   N06  Fn4  v100
 BYTE   W06
 BYTE   As4
 BYTE   W06
 BYTE   Cn5
 BYTE   W06
 BYTE   Dn5
 BYTE   W06
 BYTE   Cn5
 BYTE   W06
 BYTE   As4
 BYTE   W06
 BYTE   Fn4
 BYTE   W06
 BYTE   Dn4
 BYTE   W06
 BYTE   As3
 BYTE   W06
 BYTE   Fn3
 BYTE   W06
 BYTE   Dn3
 BYTE   W06
// 010   ----------------------------------------
 BYTE   W96
// 011   ----------------------------------------
 BYTE   W96
// 012   ----------------------------------------
Label_0_01175D8E:
 BYTE   W84
 BYTE   PAN   c_v+30
 BYTE   N06  As3  v100
 BYTE   W01
 BYTE   PAN   c_v+28
 BYTE   W01
 BYTE   Fn5
 BYTE   W01
 BYTE   Ds5
 BYTE   W01
 BYTE   Cn5
 BYTE   W01
 BYTE   As4
 BYTE   W01
 BYTE   Fs4
 BYTE   N06  Cn4
 BYTE   W01
 BYTE   PAN   c_v+12
 BYTE   W01
 BYTE   Cs4
 BYTE   W01
 BYTE   Bn3
 BYTE   W01
 BYTE   Gs3
 BYTE   W01
 BYTE   Fs3
 BYTE   W01
 BYTE   PEND 
// 013   ----------------------------------------
Label_0_01175DB0:
 BYTE   PAN   c_v+0
 BYTE   N12  Dn4  v100
 BYTE   W12
 BYTE   N24  Ds4
 BYTE   W24
 BYTE   N12  Fn4
 BYTE   W12
 BYTE   Dn4
 BYTE   W12
 BYTE   N36  As3
 BYTE   W36
 BYTE   PEND 
// 014   ----------------------------------------
 BYTE   W96
// 015   ----------------------------------------
 BYTE   W96
// 016   ----------------------------------------
 BYTE   W96
// 017   ----------------------------------------
 BYTE   W96
// 018   ----------------------------------------
 BYTE   W96
// 019   ----------------------------------------
 BYTE   W96
// 020   ----------------------------------------
 BYTE   W96
// 021   ----------------------------------------
 BYTE   W96
// 022   ----------------------------------------
 BYTE   W96
// 023   ----------------------------------------
 BYTE   W96
// 024   ----------------------------------------
 BYTE   W96
// 025   ----------------------------------------
 BYTE   PATT
  POIN2 Label_0_011758B3
// 026   ----------------------------------------
 BYTE   PATT
  POIN2 Label_0_011758B3
// 027   ----------------------------------------
 BYTE   PATT
  POIN2 Label_0_011759A6
// 028   ----------------------------------------
 BYTE   PATT
  POIN2 Label_0_01175A99
// 029   ----------------------------------------
 BYTE   PAN   c_v-62
 BYTE   W96
// 030   ----------------------------------------
 BYTE   W96
// 031   ----------------------------------------
 BYTE   PATT
  POIN2 Label_0_01175D8E
// 032   ----------------------------------------
 BYTE   PATT
  POIN2 Label_0_01175DB0
// 033   ----------------------------------------
 BYTE   W96
// 034   ----------------------------------------
 BYTE   W96
// 035   ----------------------------------------
 BYTE   W96
// 036   ----------------------------------------
 BYTE   W96
// 037   ----------------------------------------
 BYTE   W96
// 038   ----------------------------------------
 BYTE   W96
// 039   ----------------------------------------
 BYTE   W96
// 040   ----------------------------------------
 BYTE   W96
// 041   ----------------------------------------
 BYTE   W96
// 042   ----------------------------------------
 BYTE   W96
// 043   ----------------------------------------
 BYTE   W96
// 044   ----------------------------------------
 BYTE   PATT
  POIN2 Label_0_011758B3
// 045   ----------------------------------------
 BYTE   PATT
  POIN2 Label_0_011758B3
// 046   ----------------------------------------
 BYTE   PATT
  POIN2 Label_0_011759A6
// 047   ----------------------------------------
 BYTE   PATT
  POIN2 Label_0_01175A99
// 048   ----------------------------------------
 BYTE   GoTo
  POIN2 Label_0_01175D6C
 BYTE   FINE

//**************** Track 2 (Midi-Chn.1) ****************//

MegamanXChillPenguinPandan_002:
// 000   ----------------------------------------
 BYTE   KEYSH   MegamanXChillPenguinPandan_key+0
 BYTE   VOICE   79
 BYTE   VOL   31*MegamanXChillPenguinPandan_mvl/mxv
 BYTE   PAN   c_v+0
 BYTE   W96
// 001   ----------------------------------------
 BYTE   W96
// 002   ----------------------------------------
 BYTE   W96
// 003   ----------------------------------------
 BYTE   W96
// 004   ----------------------------------------
 BYTE   W96
// 005   ----------------------------------------
 BYTE   W96
// 006   ----------------------------------------
Label_1_01175E22:
 BYTE   W96
// 007   ----------------------------------------
 BYTE   W96
// 008   ----------------------------------------
 BYTE   W96
// 009   ----------------------------------------
 BYTE   W96
// 010   ----------------------------------------
Label_1_01175E26:
 BYTE   BEND   c_v-57
 BYTE   N24  Gn4  v100
 BYTE   W01
 BYTE   BEND   c_v-48
 BYTE   W01
 BYTE   Fn0
 BYTE   W01
 BYTE   Dn1
 BYTE   W01
 BYTE   Ds2
 BYTE   W01
 BYTE   Bn2
 BYTE   W01
 BYTE   En3
 BYTE   W18
 BYTE   N12  Ds4
 BYTE   W12
 BYTE   N60  As4
 BYTE   W36
 BYTE   W01
 BYTE   W01
 BYTE   W01
 BYTE   W01
 BYTE   W01
 BYTE   W01
 BYTE   W01
 BYTE   W01
 BYTE   W01
 BYTE   W01
 BYTE   W01
 BYTE   W01
 BYTE   W01
 BYTE   W01
 BYTE   W01
 BYTE   W01
 BYTE   W01
 BYTE   W01
 BYTE   W01
 BYTE   W01
 BYTE   W01
 BYTE   W01
 BYTE   W01
 BYTE   W01
 BYTE   PEND 
// 011   ----------------------------------------
Label_1_01175E58:
 BYTE   W12
 BYTE   N12  Cn4  v100
 BYTE   W12
 BYTE   Ds4
 BYTE   W12
 BYTE   As4
 BYTE   W12
 BYTE   Gn4
 BYTE   W12
 BYTE   Ds4
 BYTE   W12
 BYTE   As4
 BYTE   W12
 BYTE   Gn4
 BYTE   W12
 BYTE   PEND 
// 012   ----------------------------------------
Label_1_01175E6A:
 BYTE   BEND   c_v-58
 BYTE   N24  Fn4  v100
 BYTE   W01
 BYTE   BEND   c_v-54
 BYTE   W01
 BYTE   EnM1
 BYTE   W01
 BYTE   GsM1
 BYTE   W01
 BYTE   Ds0
 BYTE   W01
 BYTE   Gn0
 BYTE   W01
 BYTE   Cs1
 BYTE   W01
 BYTE   Fn1
 BYTE   W01
 BYTE   Cn2
 BYTE   W01
 BYTE   En2
 BYTE   W01
 BYTE   As2
 BYTE   W01
 BYTE   Dn3
 BYTE   W01
 BYTE   En3
 BYTE   W12
 BYTE   N12  Dn4
 BYTE   W12
 BYTE   N48  As3
 BYTE   W36
 BYTE   W01
 BYTE   W01
 BYTE   W01
 BYTE   W01
 BYTE   W01
 BYTE   W01
 BYTE   W01
 BYTE   W01
 BYTE   W01
 BYTE   W01
 BYTE   W01
 BYTE   W01
 BYTE   W12
 BYTE   PEND 
// 013   ----------------------------------------
 BYTE   W96
// 014   ----------------------------------------
Label_1_01175E9E:
 BYTE   BEND   c_v-59
 BYTE   N24  Gn4  v100
 BYTE   W01
 BYTE   BEND   c_v-52
 BYTE   W01
 BYTE   AnM1
 BYTE   W01
 BYTE   En0
 BYTE   W01
 BYTE   Dn1
 BYTE   W01
 BYTE   Gs1
 BYTE   W01
 BYTE   Fs2
 BYTE   W01
 BYTE   Cn3
 BYTE   W01
 BYTE   En3
 BYTE   W16
 BYTE   N12  Ds4
 BYTE   W12
 BYTE   N72  As4
 BYTE   W48
 BYTE   W01
 BYTE   W01
 BYTE   W01
 BYTE   W01
 BYTE   W01
 BYTE   W01
 BYTE   W01
 BYTE   W01
 BYTE   W01
 BYTE   W01
 BYTE   W01
 BYTE   W01
 BYTE   PEND 
// 015   ----------------------------------------
Label_1_01175EC8:
 BYTE   W01
 BYTE   W01
 BYTE   W01
 BYTE   W01
 BYTE   W01
 BYTE   W01
 BYTE   W01
 BYTE   W01
 BYTE   W01
 BYTE   W01
 BYTE   W01
 BYTE   W01
 BYTE   N12  Cn4  v100
 BYTE   W12
 BYTE   Ds4
 BYTE   W12
 BYTE   Gn4
 BYTE   W12
 BYTE   N12
 BYTE   W12
 BYTE   Ds4
 BYTE   W12
 BYTE   As4
 BYTE   W12
 BYTE   Gn4
 BYTE   W12
 BYTE   PEND 
// 016   ----------------------------------------
Label_1_01175EE5:
 BYTE   BEND   c_v-60
 BYTE   N24  Dn5  v100
 BYTE   W01
 BYTE   BEND   c_v-55
 BYTE   W01
 BYTE   FnM1
 BYTE   W01
 BYTE   AsM1
 BYTE   W01
 BYTE   Fs0
 BYTE   W01
 BYTE   Bn0
 BYTE   W01
 BYTE   Gn1
 BYTE   W01
 BYTE   Cn2
 BYTE   W01
 BYTE   Gs2
 BYTE   W01
 BYTE   Cs3
 BYTE   W01
 BYTE   En3
 BYTE   W14
 BYTE   N12  As4
 BYTE   W12
 BYTE   N60  Fn5
 BYTE   W36
 BYTE   W01
 BYTE   W01
 BYTE   W01
 BYTE   W01
 BYTE   W01
 BYTE   W01
 BYTE   W01
 BYTE   W01
 BYTE   W01
 BYTE   W01
 BYTE   W01
 BYTE   W01
 BYTE   W01
 BYTE   W01
 BYTE   W01
 BYTE   W01
 BYTE   W01
 BYTE   W01
 BYTE   W01
 BYTE   W01
 BYTE   W01
 BYTE   W01
 BYTE   W01
 BYTE   W01
 BYTE   PEND 
// 017   ----------------------------------------
 BYTE   W96
// 018   ----------------------------------------
Label_1_01175F20:
 BYTE   BEND   c_v-57
 BYTE   N24  Gn4  v100
 BYTE   W01
 BYTE   BEND   c_v-48
 BYTE   W01
 BYTE   Fn0
 BYTE   W01
 BYTE   Dn1
 BYTE   W01
 BYTE   Ds2
 BYTE   W01
 BYTE   Bn2
 BYTE   W01
 BYTE   En3
 BYTE   W18
 BYTE   N12  Fn4
 BYTE   W12
 BYTE   N24  Gn4
 BYTE   W24
 BYTE   N12  Ds4
 BYTE   W12
 BYTE   As4
 BYTE   W12
 BYTE   Gs4
 BYTE   W12
 BYTE   PEND 
// 019   ----------------------------------------
Label_1_01175F41:
 BYTE   N12  Gn4  v100
 BYTE   W12
 BYTE   Fn4
 BYTE   W12
 BYTE   Ds4
 BYTE   W12
 BYTE   Dn4
 BYTE   W12
 BYTE   As3
 BYTE   W12
 BYTE   Cn4
 BYTE   W12
 BYTE   Dn4
 BYTE   W12
 BYTE   As3
 BYTE   W12
 BYTE   PEND 
// 020   ----------------------------------------
Label_1_01175F54:
 BYTE   BEND   c_v-28
 BYTE   N18  Ds4  v100
 BYTE   W01
 BYTE   BEND   c_v-24
 BYTE   W01
 BYTE   As1
 BYTE   W01
 BYTE   Ds2
 BYTE   W01
 BYTE   An2
 BYTE   W01
 BYTE   Cs3
 BYTE   W01
 BYTE   En3
 BYTE   W12
 BYTE   N18  Dn4
 BYTE   W18
 BYTE   N24  Ds4
 BYTE   W24
 BYTE   N12  Fn4
 BYTE   W12
 BYTE   Ds4
 BYTE   W12
 BYTE   Fn4
 BYTE   W12
 BYTE   PEND 
// 021   ----------------------------------------
Label_1_01175F75:
 BYTE   N18  Gn4  v100
 BYTE   W18
 BYTE   As4
 BYTE   W18
 BYTE   N12  Gs4
 BYTE   W12
 BYTE   N24  Gn4
 BYTE   W24
 BYTE   Fn4
 BYTE   W24
 BYTE   PEND 
// 022   ----------------------------------------
Label_1_01175F84:
 BYTE   BEND   c_v-61
 BYTE   N24  Gn4  v100
 BYTE   W01
 BYTE   BEND   c_v-56
 BYTE   W01
 BYTE   EnM1
 BYTE   W01
 BYTE   AnM1
 BYTE   W01
 BYTE   Fn0
 BYTE   W01
 BYTE   As0
 BYTE   W01
 BYTE   Fs1
 BYTE   W01
 BYTE   Cn2
 BYTE   W01
 BYTE   Gs2
 BYTE   W01
 BYTE   Cs3
 BYTE   W01
 BYTE   En3
 BYTE   W14
 BYTE   N12  Fn4
 BYTE   W12
 BYTE   N24  Gn4
 BYTE   W24
 BYTE   N12  Ds4
 BYTE   W12
 BYTE   As4
 BYTE   W12
 BYTE   Gs4
 BYTE   W12
 BYTE   PEND 
// 023   ----------------------------------------
Label_1_01175FAD:
 BYTE   N12  Gn4  v100
 BYTE   W12
 BYTE   Fn4
 BYTE   W12
 BYTE   Gn4
 BYTE   W12
 BYTE   Gs4
 BYTE   W12
 BYTE   Gn4
 BYTE   W12
 BYTE   Fn4
 BYTE   W12
 BYTE   Ds4
 BYTE   W12
 BYTE   Dn4
 BYTE   W12
 BYTE   PEND 
// 024   ----------------------------------------
Label_1_01175FC0:
 BYTE   N18  Fn4  v100
 BYTE   W18
 BYTE   Ds4
 BYTE   W18
 BYTE   N24  Dn4
 BYTE   W24
 BYTE   N12  Cn4
 BYTE   W12
 BYTE   Dn4
 BYTE   W12
 BYTE   Bn3
 BYTE   W12
 BYTE   PEND 
// 025   ----------------------------------------
 BYTE   TIE  Cn4
 BYTE   W96
// 026   ----------------------------------------
Label_1_01175FD4:
 BYTE   W01
 BYTE   W01
 BYTE   W01
 BYTE   W01
 BYTE   W01
 BYTE   W01
 BYTE   W01
 BYTE   W01
 BYTE   W01
 BYTE   W01
 BYTE   W01
 BYTE   W01
 BYTE   W01
 BYTE   W01
 BYTE   W01
 BYTE   W01
 BYTE   W01
 BYTE   W01
 BYTE   W01
 BYTE   W01
 BYTE   W01
 BYTE   W01
 BYTE   W01
 BYTE   W01
 BYTE   W01
 BYTE   W01
 BYTE   W01
 BYTE   W01
 BYTE   W01
 BYTE   W01
 BYTE   W01
 BYTE   W01
 BYTE   W01
 BYTE   W01
 BYTE   W01
 BYTE   W01
 BYTE   W01
 BYTE   W01
 BYTE   W01
 BYTE   W01
 BYTE   W01
 BYTE   W01
 BYTE   W01
 BYTE   W01
 BYTE   W01
 BYTE   W01
 BYTE   W01
 BYTE   W01
 BYTE   W01
 BYTE   W01
 BYTE   W01
 BYTE   W01
 BYTE   W01
 BYTE   W01
 BYTE   W01
 BYTE   W01
 BYTE   W02
 BYTE   W02
 BYTE   W02
 BYTE   W02
 BYTE   W02
 BYTE   W02
 BYTE   W02
 BYTE   W02
 BYTE   W02
 BYTE   W02
 BYTE   W01
 BYTE   W01
 BYTE   W01
 BYTE   W01
 BYTE   W01
 BYTE   W01
 BYTE   W01
 BYTE   W01
 BYTE   W01
 BYTE   W01
 BYTE   W01
 BYTE   W01
 BYTE   W01
 BYTE   W01
 BYTE   W01
 BYTE   W01
 BYTE   W01
 BYTE   W01
 BYTE   W01
 BYTE   W01
 BYTE   PEND 
// 027   ----------------------------------------
 BYTE   EOT
 BYTE   Cn4
 BYTE   W96
// 028   ----------------------------------------
 BYTE   W92
 BYTE   W03
 BYTE   W01
// 029   ----------------------------------------
 BYTE   PATT
  POIN2 Label_1_01175E26
// 030   ----------------------------------------
 BYTE   PATT
  POIN2 Label_1_01175E58
// 031   ----------------------------------------
 BYTE   PATT
  POIN2 Label_1_01175E6A
// 032   ----------------------------------------
 BYTE   W96
// 033   ----------------------------------------
 BYTE   PATT
  POIN2 Label_1_01175E9E
// 034   ----------------------------------------
 BYTE   PATT
  POIN2 Label_1_01175EC8
// 035   ----------------------------------------
 BYTE   PATT
  POIN2 Label_1_01175EE5
// 036   ----------------------------------------
 BYTE   W96
// 037   ----------------------------------------
 BYTE   PATT
  POIN2 Label_1_01175F20
// 038   ----------------------------------------
 BYTE   PATT
  POIN2 Label_1_01175F41
// 039   ----------------------------------------
 BYTE   PATT
  POIN2 Label_1_01175F54
// 040   ----------------------------------------
 BYTE   PATT
  POIN2 Label_1_01175F75
// 041   ----------------------------------------
 BYTE   PATT
  POIN2 Label_1_01175F84
// 042   ----------------------------------------
 BYTE   PATT
  POIN2 Label_1_01175FAD
// 043   ----------------------------------------
 BYTE   PATT
  POIN2 Label_1_01175FC0
// 044   ----------------------------------------
 BYTE   TIE  Cn4  v100
 BYTE   W96
// 045   ----------------------------------------
 BYTE   PATT
  POIN2 Label_1_01175FD4
// 046   ----------------------------------------
 BYTE   EOT
 BYTE   Cn4
 BYTE   W96
// 047   ----------------------------------------
 BYTE   W96
// 048   ----------------------------------------
 BYTE   GoTo
  POIN2 Label_1_01175E22
 BYTE   FINE

//**************** Track 3 (Midi-Chn.2) ****************//

MegamanXChillPenguinPandan_003:
// 000   ----------------------------------------
 BYTE   KEYSH   MegamanXChillPenguinPandan_key+0
 BYTE   VOICE   73
 BYTE   VOL   31*MegamanXChillPenguinPandan_mvl/mxv
 BYTE   PAN   c_v+0
 BYTE   W96
// 001   ----------------------------------------
 BYTE   W96
// 002   ----------------------------------------
 BYTE   TIE  Cn3  v100
 BYTE   W96
// 003   ----------------------------------------
 BYTE   W01
 BYTE   W01
 BYTE   W01
 BYTE   W01
 BYTE   W01
 BYTE   W01
 BYTE   W01
 BYTE   W01
 BYTE   W01
 BYTE   W01
 BYTE   W01
 BYTE   W01
 BYTE   W01
 BYTE   W01
 BYTE   W01
 BYTE   W01
 BYTE   W01
 BYTE   W01
 BYTE   W01
 BYTE   W01
 BYTE   W01
 BYTE   W01
 BYTE   W01
 BYTE   W01
 BYTE   W01
 BYTE   W01
 BYTE   W01
 BYTE   W01
 BYTE   W01
 BYTE   W01
 BYTE   W01
 BYTE   W01
 BYTE   W01
 BYTE   W01
 BYTE   W01
 BYTE   W01
 BYTE   W01
 BYTE   W01
 BYTE   W01
 BYTE   W01
 BYTE   W01
 BYTE   W01
 BYTE   W01
 BYTE   W01
 BYTE   W01
 BYTE   W01
 BYTE   W01
 BYTE   W01
 BYTE   W01
 BYTE   W01
 BYTE   W01
 BYTE   W01
 BYTE   W01
 BYTE   W01
 BYTE   W01
 BYTE   W01
 BYTE   W01
 BYTE   W01
 BYTE   W01
 BYTE   W01
 BYTE   W01
 BYTE   W01
 BYTE   W01
 BYTE   W01
 BYTE   W01
 BYTE   W01
 BYTE   W01
 BYTE   W01
 BYTE   W01
 BYTE   W01
 BYTE   W01
 BYTE   W01
 BYTE   W01
 BYTE   W01
 BYTE   W01
 BYTE   W01
 BYTE   W01
 BYTE   W01
 BYTE   W01
 BYTE   W01
 BYTE   W01
 BYTE   W01
 BYTE   W01
 BYTE   W01
 BYTE   W01
 BYTE   W01
 BYTE   W01
 BYTE   W01
 BYTE   W01
 BYTE   W01
 BYTE   W01
 BYTE   W01
 BYTE   W01
 BYTE   W01
 BYTE   W01
 BYTE   W01
// 004   ----------------------------------------
 BYTE   EOT
 BYTE   W96
// 005   ----------------------------------------
 BYTE   W96
// 006   ----------------------------------------
Label_2_011760F9:
 BYTE   N12  Cn4  v100
 BYTE   W24
 BYTE   Ds4
 BYTE   W24
 BYTE   Cn4
 BYTE   W24
 BYTE   An3
 BYTE   W12
 BYTE   Cn4
 BYTE   W12
// 007   ----------------------------------------
 BYTE   W12
 BYTE   N12
 BYTE   W12
 BYTE   Ds4
 BYTE   W24
 BYTE   Cn4
 BYTE   W24
 BYTE   An3
 BYTE   W12
 BYTE   N96  Cn4
 BYTE   W12
// 008   ----------------------------------------
 BYTE   W24
 BYTE   W01
 BYTE   W01
 BYTE   W01
 BYTE   W01
 BYTE   W02
 BYTE   W02
 BYTE   W01
 BYTE   W01
 BYTE   W01
 BYTE   W01
 BYTE   W01
 BYTE   W01
 BYTE   W01
 BYTE   W01
 BYTE   W01
 BYTE   W01
 BYTE   W01
 BYTE   W01
 BYTE   W01
 BYTE   W01
 BYTE   W01
 BYTE   W01
 BYTE   W02
 BYTE   W02
 BYTE   W01
 BYTE   W01
 BYTE   W01
 BYTE   W01
 BYTE   W01
 BYTE   W01
 BYTE   W01
 BYTE   W01
 BYTE   W01
 BYTE   W01
 BYTE   W01
 BYTE   W01
 BYTE   W01
 BYTE   W01
 BYTE   W01
 BYTE   W01
 BYTE   W02
 BYTE   W02
 BYTE   W01
 BYTE   W01
 BYTE   W01
 BYTE   W01
 BYTE   W01
 BYTE   W01
 BYTE   W01
 BYTE   W01
 BYTE   W01
 BYTE   W01
 BYTE   W01
 BYTE   W01
 BYTE   N48  Dn4
 BYTE   W12
// 009   ----------------------------------------
 BYTE   W36
 BYTE   N06  Fn4
 BYTE   W06
 BYTE   As4
 BYTE   W06
 BYTE   Cn5
 BYTE   W06
 BYTE   Dn5
 BYTE   W06
 BYTE   Cn5
 BYTE   W06
 BYTE   As4
 BYTE   W06
 BYTE   Fn4
 BYTE   W06
 BYTE   Dn4
 BYTE   W06
 BYTE   Cn4
 BYTE   W06
 BYTE   As3
 BYTE   W06
// 010   ----------------------------------------
Label_2_01176161:
 BYTE   W84
 BYTE   N06  Gn4  v100
 BYTE   W06
 BYTE   N06
 BYTE   W06
 BYTE   PEND 
// 011   ----------------------------------------
 BYTE   N06
 BYTE   W96
// 012   ----------------------------------------
 BYTE   W96
// 013   ----------------------------------------
 BYTE   W96
// 014   ----------------------------------------
 BYTE   PATT
  POIN2 Label_2_01176161
// 015   ----------------------------------------
 BYTE   N06  Gn4  v100
 BYTE   W96
// 016   ----------------------------------------
Label_2_01176176:
 BYTE   W84
 BYTE   N06  Fn4  v100
 BYTE   W06
 BYTE   N06
 BYTE   W06
 BYTE   PEND 
// 017   ----------------------------------------
Label_2_0117617E:
 BYTE   N06  Fn4  v100
 BYTE   W36
 BYTE   N06
 BYTE   W24
 BYTE   N06
 BYTE   W12
 BYTE   N06
 BYTE   W24
 BYTE   PEND 
// 018   ----------------------------------------
Label_2_01176189:
 BYTE   N06  Cn4  v100
 BYTE   W36
 BYTE   N18
 BYTE   W24
 BYTE   N06
 BYTE   W12
 BYTE   N06
 BYTE   W06
 BYTE   N06
 BYTE   W12
 BYTE   N06
 BYTE   W06
 BYTE   PEND 
// 019   ----------------------------------------
Label_2_01176198:
 BYTE   N06  As3  v100
 BYTE   W36
 BYTE   Dn4
 BYTE   W36
 BYTE   N06
 BYTE   W24
 BYTE   PEND 
// 020   ----------------------------------------
Label_2_011761A1:
 BYTE   N06  Cn4  v100
 BYTE   W06
 BYTE   N06
 BYTE   W30
 BYTE   N18
 BYTE   W24
 BYTE   N06
 BYTE   W12
 BYTE   N06
 BYTE   W06
 BYTE   N06
 BYTE   W18
 BYTE   PEND 
// 021   ----------------------------------------
Label_2_011761B0:
 BYTE   N06  Dn4  v100
 BYTE   W06
 BYTE   N06
 BYTE   W30
 BYTE   N18
 BYTE   W36
 BYTE   N06
 BYTE   W12
 BYTE   N06
 BYTE   W12
 BYTE   PEND 
// 022   ----------------------------------------
 BYTE   PATT
  POIN2 Label_2_01176189
// 023   ----------------------------------------
Label_2_011761C2:
 BYTE   N06  As3  v100
 BYTE   W36
 BYTE   N18
 BYTE   W36
 BYTE   N06
 BYTE   W06
 BYTE   N06
 BYTE   W18
 BYTE   PEND 
// 024   ----------------------------------------
Label_2_011761CD:
 BYTE   N06  Dn4  v100
 BYTE   W06
 BYTE   N06
 BYTE   W30
 BYTE   N18
 BYTE   W36
 BYTE   N06
 BYTE   W12
 BYTE   Bn3
 BYTE   W12
 BYTE   PEND 
// 025   ----------------------------------------
 BYTE   W96
// 026   ----------------------------------------
 BYTE   W96
// 027   ----------------------------------------
 BYTE   W96
// 028   ----------------------------------------
 BYTE   W96
// 029   ----------------------------------------
 BYTE   PATT
  POIN2 Label_2_01176161
// 030   ----------------------------------------
 BYTE   N06  Gn4  v100
 BYTE   W96
// 031   ----------------------------------------
 BYTE   W96
// 032   ----------------------------------------
 BYTE   W96
// 033   ----------------------------------------
 BYTE   PATT
  POIN2 Label_2_01176161
// 034   ----------------------------------------
 BYTE   N06  Gn4  v100
 BYTE   W96
// 035   ----------------------------------------
 BYTE   PATT
  POIN2 Label_2_01176176
// 036   ----------------------------------------
 BYTE   PATT
  POIN2 Label_2_0117617E
// 037   ----------------------------------------
 BYTE   PATT
  POIN2 Label_2_01176189
// 038   ----------------------------------------
 BYTE   PATT
  POIN2 Label_2_01176198
// 039   ----------------------------------------
 BYTE   PATT
  POIN2 Label_2_011761A1
// 040   ----------------------------------------
 BYTE   PATT
  POIN2 Label_2_011761B0
// 041   ----------------------------------------
 BYTE   PATT
  POIN2 Label_2_01176189
// 042   ----------------------------------------
 BYTE   PATT
  POIN2 Label_2_011761C2
// 043   ----------------------------------------
 BYTE   PATT
  POIN2 Label_2_011761CD
// 044   ----------------------------------------
 BYTE   W96
// 045   ----------------------------------------
 BYTE   W96
// 046   ----------------------------------------
 BYTE   W96
// 047   ----------------------------------------
 BYTE   W96
// 048   ----------------------------------------
 BYTE   GoTo
  POIN2 Label_2_011760F9
 BYTE   FINE

//**************** Track 4 (Midi-Chn.3) ****************//

MegamanXChillPenguinPandan_004:
// 000   ----------------------------------------
 BYTE   KEYSH   MegamanXChillPenguinPandan_key+0
 BYTE   VOICE   73
 BYTE   VOL   31*MegamanXChillPenguinPandan_mvl/mxv
 BYTE   PAN   c_v+32
 BYTE   W96
// 001   ----------------------------------------
 BYTE   W96
// 002   ----------------------------------------
 BYTE   N96  Ds3  v100
 BYTE   N96  Gn3
 BYTE   W96
// 003   ----------------------------------------
 BYTE   Cn3
 BYTE   N96  Gn3
 BYTE   N96  As3
 BYTE   W96
// 004   ----------------------------------------
 BYTE   Cn3
 BYTE   N96  Ds3
 BYTE   N96  An3
 BYTE   W96
// 005   ----------------------------------------
 BYTE   Cn3
 BYTE   N96  Ds3
 BYTE   N96  Gs3
 BYTE   W96
// 006   ----------------------------------------
Label_3_0117624E:
 BYTE   N18  Ds4  v100
 BYTE   N18  Gn4
 BYTE   W24
 BYTE   N18
 BYTE   N18  As4
 BYTE   W24
 BYTE   Fn4
 BYTE   N18  An4
 BYTE   W24
 BYTE   N12  Cn4
 BYTE   N12  Fn4
 BYTE   W12
 BYTE   Ds4
 BYTE   N12  Gn4
 BYTE   W12
// 007   ----------------------------------------
 BYTE   W12
 BYTE   Ds4
 BYTE   N12  Gn4
 BYTE   W12
 BYTE   N18
 BYTE   N18  As4
 BYTE   W24
 BYTE   Fn4
 BYTE   N18  An4
 BYTE   W24
 BYTE   N12  Ds4
 BYTE   N12  Fn4
 BYTE   W12
 BYTE   N96  Gs3
 BYTE   N96  Ds4
 BYTE   W12
// 008   ----------------------------------------
 BYTE   W24
 BYTE   W01
 BYTE   W01
 BYTE   W01
 BYTE   W01
 BYTE   W02
 BYTE   W02
 BYTE   W01
 BYTE   W01
 BYTE   W01
 BYTE   W01
 BYTE   W01
 BYTE   W01
 BYTE   W01
 BYTE   W01
 BYTE   W01
 BYTE   W01
 BYTE   W01
 BYTE   W01
 BYTE   W01
 BYTE   W01
 BYTE   W01
 BYTE   W01
 BYTE   W02
 BYTE   W02
 BYTE   W01
 BYTE   W01
 BYTE   W01
 BYTE   W01
 BYTE   W01
 BYTE   W01
 BYTE   W01
 BYTE   W01
 BYTE   W01
 BYTE   W01
 BYTE   W01
 BYTE   W01
 BYTE   W01
 BYTE   W01
 BYTE   W01
 BYTE   W01
 BYTE   W02
 BYTE   W02
 BYTE   W01
 BYTE   W01
 BYTE   W01
 BYTE   W01
 BYTE   W01
 BYTE   W01
 BYTE   W01
 BYTE   W01
 BYTE   W01
 BYTE   W01
 BYTE   W01
 BYTE   W01
 BYTE   TIE  As3
 BYTE   TIE  Fn4
 BYTE   W12
// 009   ----------------------------------------
 BYTE   W36
 BYTE   W01
 BYTE   W01
 BYTE   W01
 BYTE   W01
 BYTE   W02
 BYTE   W02
 BYTE   W01
 BYTE   W01
 BYTE   W01
 BYTE   W01
 BYTE   W01
 BYTE   W01
 BYTE   W01
 BYTE   W01
 BYTE   W01
 BYTE   W01
 BYTE   W01
 BYTE   W01
 BYTE   W01
 BYTE   W01
 BYTE   W01
 BYTE   W01
 BYTE   W02
 BYTE   W02
 BYTE   W01
 BYTE   W01
 BYTE   W01
 BYTE   W01
 BYTE   W01
 BYTE   W01
 BYTE   W01
 BYTE   W01
 BYTE   W01
 BYTE   W01
 BYTE   W01
 BYTE   W01
 BYTE   W01
 BYTE   W01
 BYTE   W01
 BYTE   W01
 BYTE   W02
 BYTE   W02
 BYTE   W01
 BYTE   W01
 BYTE   W01
 BYTE   W01
 BYTE   W01
 BYTE   W01
 BYTE   W01
 BYTE   W01
 BYTE   W01
 BYTE   W01
 BYTE   W01
 BYTE   W01
// 010   ----------------------------------------
 BYTE   EOT
 BYTE   As3  v077
Label_3_011762F2:
 BYTE   W48
 BYTE   W36
 BYTE   N06  As4  v100
 BYTE   W06
 BYTE   N06
 BYTE   W06
 BYTE   PEND 
// 011   ----------------------------------------
 BYTE   N06
 BYTE   W96
// 012   ----------------------------------------
 BYTE   W96
// 013   ----------------------------------------
 BYTE   W96
// 014   ----------------------------------------
Label_3_011762FF:
 BYTE   W84
 BYTE   N06  As4  v100
 BYTE   W06
 BYTE   N06
 BYTE   W06
 BYTE   PEND 
// 015   ----------------------------------------
 BYTE   N06
 BYTE   W96
// 016   ----------------------------------------
 BYTE   PATT
  POIN2 Label_3_011762FF
// 017   ----------------------------------------
Label_3_0117630E:
 BYTE   N06  As4  v100
 BYTE   W36
 BYTE   N06
 BYTE   W24
 BYTE   N06
 BYTE   W12
 BYTE   Bn4
 BYTE   W24
 BYTE   PEND 
// 018   ----------------------------------------
Label_3_01176319:
 BYTE   N12  Ds4  v100
 BYTE   W36
 BYTE   N12
 BYTE   W24
 BYTE   N06
 BYTE   W12
 BYTE   N06
 BYTE   W06
 BYTE   N06
 BYTE   W12
 BYTE   N06
 BYTE   W06
 BYTE   PEND 
// 019   ----------------------------------------
Label_3_01176328:
 BYTE   N12  Fn4  v100
 BYTE   W36
 BYTE   N12
 BYTE   W36
 BYTE   N06
 BYTE   W06
 BYTE   N06
 BYTE   W18
 BYTE   PEND 
// 020   ----------------------------------------
Label_3_01176333:
 BYTE   N06  Gn4  v100
 BYTE   W06
 BYTE   N06
 BYTE   W30
 BYTE   N18
 BYTE   W24
 BYTE   N06
 BYTE   W12
 BYTE   N06
 BYTE   W06
 BYTE   N06
 BYTE   W18
 BYTE   PEND 
// 021   ----------------------------------------
Label_3_01176342:
 BYTE   N06  Fn4  v100
 BYTE   W06
 BYTE   N06
 BYTE   W30
 BYTE   N12
 BYTE   W36
 BYTE   N06
 BYTE   W12
 BYTE   N06
 BYTE   W12
 BYTE   PEND 
// 022   ----------------------------------------
 BYTE   PATT
  POIN2 Label_3_01176319
// 023   ----------------------------------------
 BYTE   PATT
  POIN2 Label_3_01176328
// 024   ----------------------------------------
Label_3_01176359:
 BYTE   N06  Fn4  v100
 BYTE   W06
 BYTE   N06
 BYTE   W30
 BYTE   N18
 BYTE   W36
 BYTE   N06
 BYTE   W12
 BYTE   Dn4
 BYTE   W12
 BYTE   PEND 
// 025   ----------------------------------------
Label_3_01176366:
 BYTE   TIE  Cn3  v100
 BYTE   TIE  Cn4
 BYTE   TIE  Ds4
 BYTE   W96
 BYTE   PEND 
// 026   ----------------------------------------
Label_3_0117636F:
 BYTE   W01
 BYTE   W01
 BYTE   W01
 BYTE   W01
 BYTE   W01
 BYTE   W01
 BYTE   W01
 BYTE   W01
 BYTE   W01
 BYTE   W01
 BYTE   W01
 BYTE   W01
 BYTE   W01
 BYTE   W01
 BYTE   W01
 BYTE   W01
 BYTE   W01
 BYTE   W01
 BYTE   W01
 BYTE   W01
 BYTE   W01
 BYTE   W01
 BYTE   W01
 BYTE   W01
 BYTE   W01
 BYTE   W01
 BYTE   W01
 BYTE   W01
 BYTE   W01
 BYTE   W01
 BYTE   W01
 BYTE   W01
 BYTE   W01
 BYTE   W01
 BYTE   W01
 BYTE   W01
 BYTE   W01
 BYTE   W01
 BYTE   W01
 BYTE   W01
 BYTE   W01
 BYTE   W01
 BYTE   W01
 BYTE   W01
 BYTE   W01
 BYTE   W01
 BYTE   W01
 BYTE   W01
 BYTE   W01
 BYTE   W01
 BYTE   W01
 BYTE   W01
 BYTE   W01
 BYTE   W01
 BYTE   W01
 BYTE   W01
 BYTE   W01
 BYTE   W01
 BYTE   W02
 BYTE   W02
 BYTE   W02
 BYTE   W02
 BYTE   W02
 BYTE   W02
 BYTE   W02
 BYTE   W02
 BYTE   W02
 BYTE   W02
 BYTE   W01
 BYTE   W01
 BYTE   W01
 BYTE   W01
 BYTE   W01
 BYTE   W01
 BYTE   W01
 BYTE   W01
 BYTE   W01
 BYTE   W01
 BYTE   W01
 BYTE   W01
 BYTE   W01
 BYTE   W01
 BYTE   W01
 BYTE   W01
 BYTE   W01
 BYTE   W01
 BYTE   PEND 
// 027   ----------------------------------------
 BYTE   EOT
 BYTE   Cn3  v072
 BYTE   Ds4
 BYTE   W96
// 028   ----------------------------------------
 BYTE   W96
// 029   ----------------------------------------
 BYTE   PATT
  POIN2 Label_3_011762F2
// 030   ----------------------------------------
 BYTE   N06  As4  v100
 BYTE   W96
// 031   ----------------------------------------
 BYTE   W96
// 032   ----------------------------------------
 BYTE   W96
// 033   ----------------------------------------
 BYTE   PATT
  POIN2 Label_3_011762FF
// 034   ----------------------------------------
 BYTE   N06  As4  v100
 BYTE   W96
// 035   ----------------------------------------
 BYTE   PATT
  POIN2 Label_3_011762FF
// 036   ----------------------------------------
 BYTE   PATT
  POIN2 Label_3_0117630E
// 037   ----------------------------------------
 BYTE   PATT
  POIN2 Label_3_01176319
// 038   ----------------------------------------
 BYTE   PATT
  POIN2 Label_3_01176328
// 039   ----------------------------------------
 BYTE   PATT
  POIN2 Label_3_01176333
// 040   ----------------------------------------
 BYTE   PATT
  POIN2 Label_3_01176342
// 041   ----------------------------------------
 BYTE   PATT
  POIN2 Label_3_01176319
// 042   ----------------------------------------
 BYTE   PATT
  POIN2 Label_3_01176328
// 043   ----------------------------------------
 BYTE   PATT
  POIN2 Label_3_01176359
// 044   ----------------------------------------
 BYTE   PATT
  POIN2 Label_3_01176366
// 045   ----------------------------------------
 BYTE   PATT
  POIN2 Label_3_0117636F
// 046   ----------------------------------------
 BYTE   EOT
 BYTE   Cn3  v072
 BYTE   Ds4
 BYTE   W96
// 047   ----------------------------------------
 BYTE   W96
// 048   ----------------------------------------
 BYTE   GoTo
  POIN2 Label_3_0117624E
 BYTE   FINE

//**************** Track 5 (Midi-Chn.4) ****************//

MegamanXChillPenguinPandan_005:
// 000   ----------------------------------------
 BYTE   KEYSH   MegamanXChillPenguinPandan_key+0
 BYTE   VOICE   4
 BYTE   VOL   31*MegamanXChillPenguinPandan_mvl/mxv
 BYTE   PAN   c_v+0
 BYTE   W96
// 001   ----------------------------------------
 BYTE   W96
// 002   ----------------------------------------
 BYTE   W96
// 003   ----------------------------------------
 BYTE   W96
// 004   ----------------------------------------
 BYTE   W96
// 005   ----------------------------------------
 BYTE   W96
// 006   ----------------------------------------
Label_4_01176432:
 BYTE   W96
// 007   ----------------------------------------
 BYTE   W96
// 008   ----------------------------------------
 BYTE   W96
// 009   ----------------------------------------
 BYTE   W96
// 010   ----------------------------------------
Label_4_01176436:
 BYTE   TIE  Gn4  v100
 BYTE   W96
 BYTE   PEND 
// 011   ----------------------------------------
Label_4_0117643B:
 BYTE   W01
 BYTE   W01
 BYTE   W01
 BYTE   W01
 BYTE   W01
 BYTE   W01
 BYTE   W01
 BYTE   W01
 BYTE   W01
 BYTE   W01
 BYTE   W01
 BYTE   W01
 BYTE   W01
 BYTE   W01
 BYTE   W01
 BYTE   W01
 BYTE   W01
 BYTE   W01
 BYTE   W01
 BYTE   W01
 BYTE   W01
 BYTE   W01
 BYTE   W01
 BYTE   W01
 BYTE   W01
 BYTE   W01
 BYTE   W01
 BYTE   W01
 BYTE   W01
 BYTE   W01
 BYTE   W01
 BYTE   W01
 BYTE   W01
 BYTE   W01
 BYTE   W01
 BYTE   W01
 BYTE   W01
 BYTE   W01
 BYTE   W01
 BYTE   W01
 BYTE   W01
 BYTE   W01
 BYTE   W01
 BYTE   W01
 BYTE   W01
 BYTE   W01
 BYTE   W01
 BYTE   W01
 BYTE   W01
 BYTE   W01
 BYTE   W01
 BYTE   W01
 BYTE   W01
 BYTE   W01
 BYTE   W01
 BYTE   W01
 BYTE   W01
 BYTE   W01
 BYTE   W01
 BYTE   W01
 BYTE   W01
 BYTE   W01
 BYTE   W01
 BYTE   W01
 BYTE   W01
 BYTE   W01
 BYTE   W01
 BYTE   W01
 BYTE   W01
 BYTE   W01
 BYTE   W01
 BYTE   W01
 BYTE   W01
 BYTE   W01
 BYTE   W01
 BYTE   W01
 BYTE   W01
 BYTE   W01
 BYTE   W01
 BYTE   W01
 BYTE   W01
 BYTE   W01
 BYTE   W01
 BYTE   W01
 BYTE   W01
 BYTE   W01
 BYTE   W01
 BYTE   W01
 BYTE   W01
 BYTE   W01
 BYTE   W01
 BYTE   W01
 BYTE   W01
 BYTE   W01
 BYTE   W01
 BYTE   W01
 BYTE   PEND 
// 012   ----------------------------------------
 BYTE   EOT
 BYTE   Gn4
Label_4_0117649E:
 BYTE   TIE  Fn4  v100
 BYTE   W96
 BYTE   PEND 
// 013   ----------------------------------------
Label_4_011764A3:
 BYTE   W01
 BYTE   W01
 BYTE   W01
 BYTE   W01
 BYTE   W01
 BYTE   W01
 BYTE   W01
 BYTE   W01
 BYTE   W01
 BYTE   W01
 BYTE   W01
 BYTE   W01
 BYTE   W01
 BYTE   W01
 BYTE   W01
 BYTE   W01
 BYTE   W01
 BYTE   W01
 BYTE   W01
 BYTE   W01
 BYTE   W01
 BYTE   W01
 BYTE   W01
 BYTE   W01
 BYTE   W01
 BYTE   W01
 BYTE   W01
 BYTE   W01
 BYTE   W01
 BYTE   W01
 BYTE   W01
 BYTE   W01
 BYTE   W01
 BYTE   W01
 BYTE   W01
 BYTE   W01
 BYTE   W01
 BYTE   W01
 BYTE   W01
 BYTE   W01
 BYTE   W01
 BYTE   W01
 BYTE   W01
 BYTE   W01
 BYTE   W01
 BYTE   W01
 BYTE   W01
 BYTE   W01
 BYTE   W01
 BYTE   W01
 BYTE   W01
 BYTE   W01
 BYTE   W01
 BYTE   W01
 BYTE   W01
 BYTE   W01
 BYTE   W01
 BYTE   W01
 BYTE   W01
 BYTE   W01
 BYTE   W01
 BYTE   W01
 BYTE   W01
 BYTE   W01
 BYTE   W01
 BYTE   W01
 BYTE   W01
 BYTE   W01
 BYTE   W01
 BYTE   W01
 BYTE   W01
 BYTE   W01
 BYTE   W01
 BYTE   W01
 BYTE   W01
 BYTE   W01
 BYTE   W01
 BYTE   W01
 BYTE   W01
 BYTE   W01
 BYTE   W01
 BYTE   W01
 BYTE   W01
 BYTE   W01
 BYTE   W01
 BYTE   W01
 BYTE   W01
 BYTE   W01
 BYTE   W01
 BYTE   W01
 BYTE   W01
 BYTE   W01
 BYTE   W01
 BYTE   W01
 BYTE   W01
 BYTE   W01
 BYTE   PEND 
// 014   ----------------------------------------
 BYTE   EOT
 BYTE   Fn4
Label_4_01176506:
 BYTE   TIE  Gn4  v100
 BYTE   W96
 BYTE   PEND 
// 015   ----------------------------------------
 BYTE   PATT
  POIN2 Label_4_0117643B
// 016   ----------------------------------------
 BYTE   EOT
 BYTE   Gn4
// 017   ----------------------------------------
 BYTE   PATT
  POIN2 Label_4_0117649E
// 018   ----------------------------------------
 BYTE   PATT
  POIN2 Label_4_0117643B
// 019   ----------------------------------------
 BYTE   EOT
 BYTE   Fn4
Label_4_0117651E:
 BYTE   N96  Ds4  v100
 BYTE   W01
 BYTE   W02
 BYTE   W01
 BYTE   W02
 BYTE   W02
 BYTE   W01
 BYTE   W01
 BYTE   W02
 BYTE   W02
 BYTE   W01
 BYTE   W01
 BYTE   W02
 BYTE   W02
 BYTE   W01
 BYTE   W02
 BYTE   W01
 BYTE   W02
 BYTE   W01
 BYTE   W02
 BYTE   W01
 BYTE   W02
 BYTE   W01
 BYTE   W02
 BYTE   W01
 BYTE   W02
 BYTE   W02
 BYTE   W01
 BYTE   W01
 BYTE   W02
 BYTE   W02
 BYTE   W01
 BYTE   W01
 BYTE   W02
 BYTE   W02
 BYTE   W01
 BYTE   W02
 BYTE   W01
 BYTE   W02
 BYTE   W01
 BYTE   W02
 BYTE   W01
 BYTE   W02
 BYTE   W01
 BYTE   W02
 BYTE   W01
 BYTE   W02
 BYTE   W02
 BYTE   W01
 BYTE   W01
 BYTE   W02
 BYTE   W02
 BYTE   W01
 BYTE   W01
 BYTE   W02
 BYTE   W02
 BYTE   W01
 BYTE   W02
 BYTE   W01
 BYTE   W02
 BYTE   W01
 BYTE   W02
 BYTE   W01
 BYTE   W02
 BYTE   PEND 
// 020   ----------------------------------------
Label_4_01176561:
 BYTE   N96  Fn4  v100
 BYTE   W01
 BYTE   W02
 BYTE   W01
 BYTE   W02
 BYTE   W02
 BYTE   W01
 BYTE   W01
 BYTE   W02
 BYTE   W02
 BYTE   W01
 BYTE   W01
 BYTE   W02
 BYTE   W02
 BYTE   W01
 BYTE   W02
 BYTE   W01
 BYTE   W02
 BYTE   W01
 BYTE   W02
 BYTE   W01
 BYTE   W02
 BYTE   W01
 BYTE   W02
 BYTE   W01
 BYTE   W02
 BYTE   W02
 BYTE   W01
 BYTE   W01
 BYTE   W02
 BYTE   W02
 BYTE   W01
 BYTE   W01
 BYTE   W02
 BYTE   W02
 BYTE   W01
 BYTE   W02
 BYTE   W01
 BYTE   W02
 BYTE   W01
 BYTE   W02
 BYTE   W01
 BYTE   W02
 BYTE   W01
 BYTE   W02
 BYTE   W01
 BYTE   W02
 BYTE   W02
 BYTE   W01
 BYTE   W01
 BYTE   W02
 BYTE   W02
 BYTE   W01
 BYTE   W01
 BYTE   W02
 BYTE   W02
 BYTE   W01
 BYTE   W02
 BYTE   W01
 BYTE   W02
 BYTE   W01
 BYTE   W02
 BYTE   W01
 BYTE   W02
 BYTE   PEND 
// 021   ----------------------------------------
Label_4_011765A4:
 BYTE   N96  Cn4  v100
 BYTE   W01
 BYTE   W02
 BYTE   W01
 BYTE   W02
 BYTE   W02
 BYTE   W01
 BYTE   W01
 BYTE   W02
 BYTE   W02
 BYTE   W01
 BYTE   W01
 BYTE   W02
 BYTE   W02
 BYTE   W01
 BYTE   W02
 BYTE   W01
 BYTE   W02
 BYTE   W01
 BYTE   W02
 BYTE   W01
 BYTE   W02
 BYTE   W01
 BYTE   W02
 BYTE   W01
 BYTE   W02
 BYTE   W02
 BYTE   W01
 BYTE   W01
 BYTE   W02
 BYTE   W02
 BYTE   W01
 BYTE   W01
 BYTE   W02
 BYTE   W02
 BYTE   W01
 BYTE   W02
 BYTE   W01
 BYTE   W02
 BYTE   W01
 BYTE   W02
 BYTE   W01
 BYTE   W02
 BYTE   W01
 BYTE   W02
 BYTE   W01
 BYTE   W02
 BYTE   W02
 BYTE   W01
 BYTE   W01
 BYTE   W02
 BYTE   W02
 BYTE   W01
 BYTE   W01
 BYTE   W02
 BYTE   W02
 BYTE   W01
 BYTE   W02
 BYTE   W01
 BYTE   W02
 BYTE   W01
 BYTE   W02
 BYTE   W01
 BYTE   W02
 BYTE   PEND 
// 022   ----------------------------------------
Label_4_011765E7:
 BYTE   N72  Dn4  v100
 BYTE   W01
 BYTE   W01
 BYTE   W01
 BYTE   W01
 BYTE   W02
 BYTE   W01
 BYTE   W01
 BYTE   W01
 BYTE   W01
 BYTE   W01
 BYTE   W01
 BYTE   W02
 BYTE   W01
 BYTE   W01
 BYTE   W01
 BYTE   W01
 BYTE   W01
 BYTE   W01
 BYTE   W02
 BYTE   W01
 BYTE   W01
 BYTE   W01
 BYTE   W01
 BYTE   W01
 BYTE   W01
 BYTE   W02
 BYTE   W01
 BYTE   W01
 BYTE   W01
 BYTE   W01
 BYTE   W01
 BYTE   W01
 BYTE   W02
 BYTE   W01
 BYTE   W01
 BYTE   W01
 BYTE   W01
 BYTE   W01
 BYTE   W01
 BYTE   W02
 BYTE   W01
 BYTE   W01
 BYTE   W01
 BYTE   W01
 BYTE   W01
 BYTE   W01
 BYTE   W02
 BYTE   W01
 BYTE   W01
 BYTE   W01
 BYTE   W01
 BYTE   W01
 BYTE   W01
 BYTE   W02
 BYTE   W01
 BYTE   W01
 BYTE   W01
 BYTE   W01
 BYTE   W01
 BYTE   W01
 BYTE   W02
 BYTE   W01
 BYTE   W01
 BYTE   N24  Fn4
 BYTE   W24
 BYTE   PEND 
// 023   ----------------------------------------
 BYTE   PATT
  POIN2 Label_4_0117651E
// 024   ----------------------------------------
 BYTE   PATT
  POIN2 Label_4_01176561
// 025   ----------------------------------------
 BYTE   PATT
  POIN2 Label_4_011765E7
// 026   ----------------------------------------
 BYTE   W96
// 027   ----------------------------------------
 BYTE   W96
// 028   ----------------------------------------
 BYTE   W96
// 029   ----------------------------------------
 BYTE   W96
// 030   ----------------------------------------
 BYTE   PATT
  POIN2 Label_4_01176436
// 031   ----------------------------------------
 BYTE   PATT
  POIN2 Label_4_0117643B
// 032   ----------------------------------------
 BYTE   EOT
 BYTE   Gn4
// 033   ----------------------------------------
 BYTE   PATT
  POIN2 Label_4_0117649E
// 034   ----------------------------------------
 BYTE   PATT
  POIN2 Label_4_011764A3
// 035   ----------------------------------------
 BYTE   EOT
 BYTE   Fn4
// 036   ----------------------------------------
 BYTE   PATT
  POIN2 Label_4_01176506
// 037   ----------------------------------------
 BYTE   PATT
  POIN2 Label_4_0117643B
// 038   ----------------------------------------
 BYTE   EOT
 BYTE   Gn4
// 039   ----------------------------------------
 BYTE   PATT
  POIN2 Label_4_0117649E
// 040   ----------------------------------------
 BYTE   PATT
  POIN2 Label_4_0117643B
// 041   ----------------------------------------
 BYTE   EOT
 BYTE   Fn4
// 042   ----------------------------------------
 BYTE   PATT
  POIN2 Label_4_0117651E
// 043   ----------------------------------------
 BYTE   PATT
  POIN2 Label_4_01176561
// 044   ----------------------------------------
 BYTE   PATT
  POIN2 Label_4_011765A4
// 045   ----------------------------------------
 BYTE   PATT
  POIN2 Label_4_011765E7
// 046   ----------------------------------------
 BYTE   PATT
  POIN2 Label_4_0117651E
// 047   ----------------------------------------
 BYTE   PATT
  POIN2 Label_4_01176561
// 048   ----------------------------------------
 BYTE   PATT
  POIN2 Label_4_011765E7
// 049   ----------------------------------------
 BYTE   W96
// 050   ----------------------------------------
 BYTE   W96
// 051   ----------------------------------------
 BYTE   W96
// 052   ----------------------------------------
 BYTE   W96
// 053   ----------------------------------------
 BYTE   GoTo
  POIN2 Label_4_01176432
 BYTE   FINE

//**************** Track 6 (Midi-Chn.5) ****************//

MegamanXChillPenguinPandan_006:
// 000   ----------------------------------------
 BYTE   KEYSH   MegamanXChillPenguinPandan_key+0
 BYTE   VOICE   4
 BYTE   VOL   31*MegamanXChillPenguinPandan_mvl/mxv
 BYTE   PAN   c_v-32
 BYTE   W96
// 001   ----------------------------------------
 BYTE   W96
// 002   ----------------------------------------
 BYTE   W96
// 003   ----------------------------------------
 BYTE   W96
// 004   ----------------------------------------
 BYTE   W96
// 005   ----------------------------------------
 BYTE   W96
// 006   ----------------------------------------
Label_5_011766AE:
 BYTE   W96
// 007   ----------------------------------------
 BYTE   W96
// 008   ----------------------------------------
 BYTE   W96
// 009   ----------------------------------------
 BYTE   W96
// 010   ----------------------------------------
Label_5_011766B2:
 BYTE   TIE  Cn4  v100
 BYTE   W96
 BYTE   PEND 
// 011   ----------------------------------------
Label_5_011766B7:
 BYTE   W01
 BYTE   W01
 BYTE   W01
 BYTE   W01
 BYTE   W01
 BYTE   W01
 BYTE   W01
 BYTE   W01
 BYTE   W01
 BYTE   W01
 BYTE   W01
 BYTE   W01
 BYTE   W01
 BYTE   W01
 BYTE   W01
 BYTE   W01
 BYTE   W01
 BYTE   W01
 BYTE   W01
 BYTE   W01
 BYTE   W01
 BYTE   W01
 BYTE   W01
 BYTE   W01
 BYTE   W01
 BYTE   W01
 BYTE   W01
 BYTE   W01
 BYTE   W01
 BYTE   W01
 BYTE   W01
 BYTE   W01
 BYTE   W01
 BYTE   W01
 BYTE   W01
 BYTE   W01
 BYTE   W01
 BYTE   W01
 BYTE   W01
 BYTE   W01
 BYTE   W01
 BYTE   W01
 BYTE   W01
 BYTE   W01
 BYTE   W01
 BYTE   W01
 BYTE   W01
 BYTE   W01
 BYTE   W01
 BYTE   W01
 BYTE   W01
 BYTE   W01
 BYTE   W01
 BYTE   W01
 BYTE   W01
 BYTE   W01
 BYTE   W01
 BYTE   W01
 BYTE   W01
 BYTE   W01
 BYTE   W01
 BYTE   W01
 BYTE   W01
 BYTE   W01
 BYTE   W01
 BYTE   W01
 BYTE   W01
 BYTE   W01
 BYTE   W01
 BYTE   W01
 BYTE   W01
 BYTE   W01
 BYTE   W01
 BYTE   W01
 BYTE   W01
 BYTE   W01
 BYTE   W01
 BYTE   W01
 BYTE   W01
 BYTE   W01
 BYTE   W01
 BYTE   W01
 BYTE   W01
 BYTE   W01
 BYTE   W01
 BYTE   W01
 BYTE   W01
 BYTE   W01
 BYTE   W01
 BYTE   W01
 BYTE   W01
 BYTE   W01
 BYTE   W01
 BYTE   W01
 BYTE   W01
 BYTE   W01
 BYTE   PEND 
// 012   ----------------------------------------
 BYTE   EOT
 BYTE   Cn4
Label_5_0117671A:
 BYTE   TIE  Dn4  v100
 BYTE   W96
 BYTE   PEND 
// 013   ----------------------------------------
Label_5_0117671F:
 BYTE   W01
 BYTE   W01
 BYTE   W01
 BYTE   W01
 BYTE   W01
 BYTE   W01
 BYTE   W01
 BYTE   W01
 BYTE   W01
 BYTE   W01
 BYTE   W01
 BYTE   W01
 BYTE   W01
 BYTE   W01
 BYTE   W01
 BYTE   W01
 BYTE   W01
 BYTE   W01
 BYTE   W01
 BYTE   W01
 BYTE   W01
 BYTE   W01
 BYTE   W01
 BYTE   W01
 BYTE   W01
 BYTE   W01
 BYTE   W01
 BYTE   W01
 BYTE   W01
 BYTE   W01
 BYTE   W01
 BYTE   W01
 BYTE   W01
 BYTE   W01
 BYTE   W01
 BYTE   W01
 BYTE   W01
 BYTE   W01
 BYTE   W01
 BYTE   W01
 BYTE   W01
 BYTE   W01
 BYTE   W01
 BYTE   W01
 BYTE   W01
 BYTE   W01
 BYTE   W01
 BYTE   W01
 BYTE   W01
 BYTE   W01
 BYTE   W01
 BYTE   W01
 BYTE   W01
 BYTE   W01
 BYTE   W01
 BYTE   W01
 BYTE   W01
 BYTE   W01
 BYTE   W01
 BYTE   W01
 BYTE   W01
 BYTE   W01
 BYTE   W01
 BYTE   W01
 BYTE   W01
 BYTE   W01
 BYTE   W01
 BYTE   W01
 BYTE   W01
 BYTE   W01
 BYTE   W01
 BYTE   W01
 BYTE   W01
 BYTE   W01
 BYTE   W01
 BYTE   W01
 BYTE   W01
 BYTE   W01
 BYTE   W01
 BYTE   W01
 BYTE   W01
 BYTE   W01
 BYTE   W01
 BYTE   W01
 BYTE   W01
 BYTE   W01
 BYTE   W01
 BYTE   W01
 BYTE   W01
 BYTE   W01
 BYTE   W01
 BYTE   W01
 BYTE   W01
 BYTE   W01
 BYTE   W01
 BYTE   W01
 BYTE   PEND 
// 014   ----------------------------------------
 BYTE   EOT
 BYTE   Dn4
Label_5_01176782:
 BYTE   TIE  Cn4  v100
 BYTE   W96
 BYTE   PEND 
// 015   ----------------------------------------
 BYTE   PATT
  POIN2 Label_5_011766B7
// 016   ----------------------------------------
 BYTE   EOT
 BYTE   Cn4
// 017   ----------------------------------------
 BYTE   PATT
  POIN2 Label_5_0117671A
// 018   ----------------------------------------
 BYTE   PATT
  POIN2 Label_5_011766B7
// 019   ----------------------------------------
 BYTE   EOT
 BYTE   Dn4
 BYTE   W96
// 020   ----------------------------------------
 BYTE   W96
// 021   ----------------------------------------
 BYTE   W96
// 022   ----------------------------------------
 BYTE   W96
// 023   ----------------------------------------
 BYTE   W96
// 024   ----------------------------------------
 BYTE   W96
// 025   ----------------------------------------
 BYTE   W96
// 026   ----------------------------------------
Label_5_011767A1:
 BYTE   TIE  Ds4  v100
 BYTE   W96
 BYTE   PEND 
// 027   ----------------------------------------
Label_5_011767A6:
 BYTE   W01
 BYTE   W01
 BYTE   W01
 BYTE   W01
 BYTE   W01
 BYTE   W01
 BYTE   W01
 BYTE   W01
 BYTE   W01
 BYTE   W01
 BYTE   W01
 BYTE   W01
 BYTE   W01
 BYTE   W01
 BYTE   W01
 BYTE   W01
 BYTE   W01
 BYTE   W01
 BYTE   W01
 BYTE   W01
 BYTE   W01
 BYTE   W01
 BYTE   W01
 BYTE   W01
 BYTE   W01
 BYTE   W01
 BYTE   W01
 BYTE   W01
 BYTE   W01
 BYTE   W01
 BYTE   W01
 BYTE   W01
 BYTE   W01
 BYTE   W01
 BYTE   W01
 BYTE   W01
 BYTE   W01
 BYTE   W01
 BYTE   W01
 BYTE   W01
 BYTE   W01
 BYTE   W01
 BYTE   W01
 BYTE   W01
 BYTE   W01
 BYTE   W01
 BYTE   W01
 BYTE   W01
 BYTE   W01
 BYTE   W01
 BYTE   W01
 BYTE   W01
 BYTE   W01
 BYTE   W01
 BYTE   W01
 BYTE   W01
 BYTE   W01
 BYTE   W01
 BYTE   W02
 BYTE   W02
 BYTE   W02
 BYTE   W02
 BYTE   W02
 BYTE   W02
 BYTE   W02
 BYTE   W02
 BYTE   W02
 BYTE   W02
 BYTE   W01
 BYTE   W01
 BYTE   W01
 BYTE   W01
 BYTE   W01
 BYTE   W01
 BYTE   W01
 BYTE   W01
 BYTE   W01
 BYTE   W01
 BYTE   W01
 BYTE   W01
 BYTE   W01
 BYTE   W01
 BYTE   W01
 BYTE   W01
 BYTE   W01
 BYTE   W01
 BYTE   PEND 
// 028   ----------------------------------------
 BYTE   EOT
 BYTE   Ds4
 BYTE   W96
// 029   ----------------------------------------
 BYTE   W96
// 030   ----------------------------------------
 BYTE   PATT
  POIN2 Label_5_011766B2
// 031   ----------------------------------------
 BYTE   PATT
  POIN2 Label_5_011766B7
// 032   ----------------------------------------
 BYTE   EOT
 BYTE   Cn4
// 033   ----------------------------------------
 BYTE   PATT
  POIN2 Label_5_0117671A
// 034   ----------------------------------------
 BYTE   PATT
  POIN2 Label_5_0117671F
// 035   ----------------------------------------
 BYTE   EOT
 BYTE   Dn4
// 036   ----------------------------------------
 BYTE   PATT
  POIN2 Label_5_01176782
// 037   ----------------------------------------
 BYTE   PATT
  POIN2 Label_5_011766B7
// 038   ----------------------------------------
 BYTE   EOT
 BYTE   Cn4
// 039   ----------------------------------------
 BYTE   PATT
  POIN2 Label_5_0117671A
// 040   ----------------------------------------
 BYTE   PATT
  POIN2 Label_5_011766B7
// 041   ----------------------------------------
 BYTE   EOT
 BYTE   Dn4
 BYTE   W96
// 042   ----------------------------------------
 BYTE   W96
// 043   ----------------------------------------
 BYTE   W96
// 044   ----------------------------------------
 BYTE   W96
// 045   ----------------------------------------
 BYTE   W96
// 046   ----------------------------------------
 BYTE   W96
// 047   ----------------------------------------
 BYTE   W96
// 048   ----------------------------------------
 BYTE   PATT
  POIN2 Label_5_011767A1
// 049   ----------------------------------------
 BYTE   PATT
  POIN2 Label_5_011767A6
// 050   ----------------------------------------
 BYTE   EOT
 BYTE   Ds4
 BYTE   W96
// 051   ----------------------------------------
 BYTE   W96
// 052   ----------------------------------------
 BYTE   GoTo
  POIN2 Label_5_011766AE
 BYTE   FINE

//**************** Track 7 (Midi-Chn.6) ****************//

MegamanXChillPenguinPandan_007:
// 000   ----------------------------------------
 BYTE   KEYSH   MegamanXChillPenguinPandan_key+0
 BYTE   VOICE   36
 BYTE   VOL   37*MegamanXChillPenguinPandan_mvl/mxv
 BYTE   PAN   c_v+0
 BYTE   W96
// 001   ----------------------------------------
 BYTE   W96
// 002   ----------------------------------------
 BYTE   N06  Cn1  v100
 BYTE   W06
 BYTE   Cn2
 BYTE   W06
 BYTE   Fn1
 BYTE   W06
 BYTE   Gn1
 BYTE   W06
 BYTE   As1
 BYTE   W06
 BYTE   Fn1
 BYTE   W06
 BYTE   Cn1
 BYTE   W06
 BYTE   Gn1
 BYTE   W06
 BYTE   Fn1
 BYTE   W06
 BYTE   As1
 BYTE   W06
 BYTE   Cn2
 BYTE   W06
 BYTE   Cn1
 BYTE   W06
 BYTE   Fn1
 BYTE   W06
 BYTE   As1
 BYTE   W06
 BYTE   Fn1
 BYTE   W06
 BYTE   Gn1
 BYTE   W06
// 003   ----------------------------------------
Label_6_01176878:
 BYTE   N06  Cn1  v100
 BYTE   W06
 BYTE   Cn2
 BYTE   W06
 BYTE   Fn1
 BYTE   W06
 BYTE   Gn1
 BYTE   W06
 BYTE   As1
 BYTE   W06
 BYTE   Fn1
 BYTE   W06
 BYTE   Cn1
 BYTE   W06
 BYTE   Gn1
 BYTE   W06
 BYTE   Fn1
 BYTE   W06
 BYTE   As1
 BYTE   W06
 BYTE   Cn2
 BYTE   W06
 BYTE   Cn1
 BYTE   W06
 BYTE   Fn1
 BYTE   W06
 BYTE   As1
 BYTE   W06
 BYTE   Fn1
 BYTE   W06
 BYTE   Gn1
 BYTE   W06
 BYTE   PEND 
// 004   ----------------------------------------
 BYTE   PATT
  POIN2 Label_6_01176878
// 005   ----------------------------------------
 BYTE   PATT
  POIN2 Label_6_01176878
// 006   ----------------------------------------
Label_6_011768A5:
 BYTE   N24  Cn1  v100
 BYTE   W24
 BYTE   N24
 BYTE   W24
 BYTE   Fn1
 BYTE   W24
 BYTE   N12
 BYTE   W12
 BYTE   N24  Cn1
 BYTE   W12
// 007   ----------------------------------------
 BYTE   W12
 BYTE   N12
 BYTE   W12
 BYTE   N12
 BYTE   W12
 BYTE   N24  Fn1
 BYTE   W24
 BYTE   N36
 BYTE   W36
// 008   ----------------------------------------
 BYTE   N72  Gs0
 BYTE   W72
 BYTE   N12
 BYTE   W12
 BYTE   N72  As0
 BYTE   W12
// 009   ----------------------------------------
 BYTE   W60
 BYTE   N12
 BYTE   W12
 BYTE   N24  Dn1
 BYTE   W24
// 010   ----------------------------------------
Label_6_011768CA:
 BYTE   N36  Cn1  v100
 BYTE   W36
 BYTE   N24
 BYTE   W24
 BYTE   N06
 BYTE   W12
 BYTE   N24
 BYTE   W24
 BYTE   PEND 
// 011   ----------------------------------------
 BYTE   PATT
  POIN2 Label_6_011768CA
// 012   ----------------------------------------
Label_6_011768DA:
 BYTE   N36  As0  v100
 BYTE   W36
 BYTE   N24
 BYTE   W24
 BYTE   N06
 BYTE   W12
 BYTE   N24
 BYTE   W24
 BYTE   PEND 
// 013   ----------------------------------------
Label_6_011768E5:
 BYTE   N36  As0  v100
 BYTE   W36
 BYTE   N24
 BYTE   W24
 BYTE   N06
 BYTE   W12
 BYTE   N24  Bn0
 BYTE   W24
 BYTE   PEND 
// 014   ----------------------------------------
 BYTE   PATT
  POIN2 Label_6_011768CA
// 015   ----------------------------------------
 BYTE   PATT
  POIN2 Label_6_011768CA
// 016   ----------------------------------------
 BYTE   PATT
  POIN2 Label_6_011768DA
// 017   ----------------------------------------
 BYTE   PATT
  POIN2 Label_6_011768E5
// 018   ----------------------------------------
Label_6_01176905:
 BYTE   N12  Cn1  v100
 BYTE   W12
 BYTE   Gs0
 BYTE   W12
 BYTE   Ds1
 BYTE   W12
 BYTE   N24  Gs1
 BYTE   W24
 BYTE   N12  Gs0
 BYTE   W12
 BYTE   Gs1
 BYTE   W12
 BYTE   Ds1
 BYTE   W12
 BYTE   PEND 
// 019   ----------------------------------------
Label_6_01176918:
 BYTE   N12  Fn1  v100
 BYTE   W12
 BYTE   As0
 BYTE   W12
 BYTE   Dn1
 BYTE   W12
 BYTE   N24  Fn1
 BYTE   W24
 BYTE   N12  Dn1
 BYTE   W12
 BYTE   Fn1
 BYTE   W12
 BYTE   As0
 BYTE   W12
 BYTE   PEND 
// 020   ----------------------------------------
Label_6_0117692B:
 BYTE   N24  Gs0  v100
 BYTE   W36
 BYTE   N24
 BYTE   W24
 BYTE   N12
 BYTE   W12
 BYTE   N12
 BYTE   W12
 BYTE   N12
 BYTE   W12
 BYTE   PEND 
// 021   ----------------------------------------
Label_6_01176938:
 BYTE   N36  As0  v100
 BYTE   W36
 BYTE   Dn1
 BYTE   W36
 BYTE   N12  Fn1
 BYTE   W12
 BYTE   As0
 BYTE   W12
 BYTE   PEND 
// 022   ----------------------------------------
 BYTE   PATT
  POIN2 Label_6_01176905
// 023   ----------------------------------------
 BYTE   PATT
  POIN2 Label_6_01176918
// 024   ----------------------------------------
Label_6_0117694E:
 BYTE   N18  Cn1  v100
 BYTE   W18
 BYTE   N06
 BYTE   W06
 BYTE   N18
 BYTE   W18
 BYTE   N18
 BYTE   W18
 BYTE   N12
 BYTE   W12
 BYTE   N24
 BYTE   W24
 BYTE   PEND 
// 025   ----------------------------------------
 BYTE   PATT
  POIN2 Label_6_01176878
// 026   ----------------------------------------
 BYTE   PATT
  POIN2 Label_6_01176878
// 027   ----------------------------------------
 BYTE   PATT
  POIN2 Label_6_01176878
// 028   ----------------------------------------
 BYTE   PATT
  POIN2 Label_6_01176878
// 029   ----------------------------------------
 BYTE   PATT
  POIN2 Label_6_011768CA
// 030   ----------------------------------------
 BYTE   PATT
  POIN2 Label_6_011768CA
// 031   ----------------------------------------
 BYTE   PATT
  POIN2 Label_6_011768DA
// 032   ----------------------------------------
 BYTE   PATT
  POIN2 Label_6_011768E5
// 033   ----------------------------------------
 BYTE   PATT
  POIN2 Label_6_011768CA
// 034   ----------------------------------------
 BYTE   PATT
  POIN2 Label_6_011768CA
// 035   ----------------------------------------
 BYTE   PATT
  POIN2 Label_6_011768DA
// 036   ----------------------------------------
 BYTE   PATT
  POIN2 Label_6_011768E5
// 037   ----------------------------------------
 BYTE   PATT
  POIN2 Label_6_01176905
// 038   ----------------------------------------
 BYTE   PATT
  POIN2 Label_6_01176918
// 039   ----------------------------------------
 BYTE   PATT
  POIN2 Label_6_0117692B
// 040   ----------------------------------------
 BYTE   PATT
  POIN2 Label_6_01176938
// 041   ----------------------------------------
 BYTE   PATT
  POIN2 Label_6_01176905
// 042   ----------------------------------------
 BYTE   PATT
  POIN2 Label_6_01176918
// 043   ----------------------------------------
 BYTE   PATT
  POIN2 Label_6_0117694E
// 044   ----------------------------------------
 BYTE   PATT
  POIN2 Label_6_01176878
// 045   ----------------------------------------
 BYTE   PATT
  POIN2 Label_6_01176878
// 046   ----------------------------------------
 BYTE   PATT
  POIN2 Label_6_01176878
// 047   ----------------------------------------
 BYTE   PATT
  POIN2 Label_6_01176878
// 048   ----------------------------------------
 BYTE   GoTo
  POIN2 Label_6_011768A5
 BYTE   FINE

//**************** Track 8 (Midi-Chn.7) ****************//

MegamanXChillPenguinPandan_008:
// 000   ----------------------------------------
 BYTE   KEYSH   MegamanXChillPenguinPandan_key+0
 BYTE   VOICE   121
 BYTE   VOL   37*MegamanXChillPenguinPandan_mvl/mxv
 BYTE   PAN   c_v+0
 BYTE   W96
// 001   ----------------------------------------
 BYTE   W72
 BYTE   N12  Cn1  v100
 BYTE   W12
 BYTE   N06  Dn1
 BYTE   W06
 BYTE   N06
 BYTE   W06
// 002   ----------------------------------------
 BYTE   W24
 BYTE   N24  As1
 BYTE   W72
// 003   ----------------------------------------
 BYTE   Dn1
 BYTE   W96
// 004   ----------------------------------------
 BYTE   N12  Fs1
 BYTE   W12
 BYTE   N06
 BYTE   W06
 BYTE   N06
 BYTE   W06
 BYTE   N24  As1
 BYTE   W72
// 005   ----------------------------------------
 BYTE   N30  Cn1
 BYTE   N24  Cs2
 BYTE   N24  Ds2
 BYTE   W12
 BYTE   N12  Dn1
 BYTE   W12
 BYTE   N24
 BYTE   W06
 BYTE   N18  Cn1
 BYTE   W48
 BYTE   N06  Dn1
 BYTE   W06
 BYTE   N06
 BYTE   W06
 BYTE   N06
 BYTE   W06
// 006   ----------------------------------------
Label_7_01176A11:
 BYTE   N24  Cn1  v100
 BYTE   N12  Gs1
 BYTE   W24
 BYTE   N24  Cn1
 BYTE   W24
 BYTE   N24
 BYTE   W12
 BYTE   N12  Dn1
 BYTE   W12
 BYTE   Cn1
 BYTE   N12  Dn1
 BYTE   W12
 BYTE   Cn1
 BYTE   W12
// 007   ----------------------------------------
 BYTE   N12
 BYTE   N12  Gs1
 BYTE   W12
 BYTE   Cn1
 BYTE   W12
 BYTE   Dn1
 BYTE   W24
 BYTE   Cn1
 BYTE   W12
 BYTE   Dn1
 BYTE   W12
 BYTE   N12
 BYTE   W12
 BYTE   Cn1
 BYTE   W12
// 008   ----------------------------------------
 BYTE   As1
 BYTE   W12
 BYTE   N06  Gs1
 BYTE   W12
 BYTE   N12  As1
 BYTE   W12
 BYTE   N06  Gs1
 BYTE   W12
 BYTE   N12  As1
 BYTE   W12
 BYTE   N06  Gs1
 BYTE   W12
 BYTE   N12  Cn1
 BYTE   W12
 BYTE   Dn1
 BYTE   W12
// 009   ----------------------------------------
 BYTE   Cn1
 BYTE   N24  Cs2
 BYTE   N24  Ds2
 BYTE   W12
 BYTE   N12  Dn1
 BYTE   W12
 BYTE   N12
 BYTE   W06
 BYTE   N06  Cn1
 BYTE   W48
 BYTE   Dn1
 BYTE   W06
 BYTE   N06
 BYTE   W06
 BYTE   N06
 BYTE   W06
// 010   ----------------------------------------
Label_7_01176A5F:
 BYTE   N24  Cs2  v100
 BYTE   N24  Ds2
 BYTE   W18
 BYTE   N18  Cn1
 BYTE   W18
 BYTE   N24  Dn1
 BYTE   W24
 BYTE   N12  Cn1
 BYTE   W12
 BYTE   Dn1
 BYTE   W12
 BYTE   Cn1
 BYTE   W12
 BYTE   PEND 
// 011   ----------------------------------------
Label_7_01176A73:
 BYTE   N18  Cn1  v100
 BYTE   W18
 BYTE   N18
 BYTE   W18
 BYTE   N24
 BYTE   W24
 BYTE   N12
 BYTE   W12
 BYTE   Dn1
 BYTE   W12
 BYTE   Cn1
 BYTE   W12
 BYTE   PEND 
// 012   ----------------------------------------
 BYTE   PATT
  POIN2 Label_7_01176A73
// 013   ----------------------------------------
Label_7_01176A87:
 BYTE   N18  Cn1  v100
 BYTE   W18
 BYTE   N18
 BYTE   W18
 BYTE   N24
 BYTE   W24
 BYTE   N12
 BYTE   W12
 BYTE   N06  Dn1
 BYTE   W06
 BYTE   N06
 BYTE   W06
 BYTE   N12
 BYTE   W12
 BYTE   PEND 
// 014   ----------------------------------------
 BYTE   PATT
  POIN2 Label_7_01176A5F
// 015   ----------------------------------------
 BYTE   PATT
  POIN2 Label_7_01176A73
// 016   ----------------------------------------
 BYTE   PATT
  POIN2 Label_7_01176A73
// 017   ----------------------------------------
 BYTE   PATT
  POIN2 Label_7_01176A87
// 018   ----------------------------------------
Label_7_01176AAD:
 BYTE   N12  Cn1  v100
 BYTE   W24
 BYTE   N12
 BYTE   W12
 BYTE   As1
 BYTE   W24
 BYTE   Cn1
 BYTE   W12
 BYTE   Dn1
 BYTE   W18
 BYTE   N06  Cn1
 BYTE   W06
 BYTE   PEND 
// 019   ----------------------------------------
Label_7_01176ABD:
 BYTE   N06  Cn1  v100
 BYTE   W06
 BYTE   N06
 BYTE   W12
 BYTE   N06
 BYTE   W06
 BYTE   Dn1
 BYTE   W12
 BYTE   Cn1
 BYTE   W18
 BYTE   N06
 BYTE   W06
 BYTE   Dn1
 BYTE   W12
 BYTE   N06
 BYTE   W06
 BYTE   N06
 BYTE   W06
 BYTE   N06
 BYTE   W12
 BYTE   PEND 
// 020   ----------------------------------------
Label_7_01176AD4:
 BYTE   N06  Cn1  v100
 BYTE   W18
 BYTE   N06
 BYTE   W06
 BYTE   N06
 BYTE   W12
 BYTE   As1
 BYTE   W24
 BYTE   Cn1
 BYTE   W12
 BYTE   Dn1
 BYTE   W12
 BYTE   Cn1
 BYTE   W06
 BYTE   N06
 BYTE   W06
 BYTE   PEND 
// 021   ----------------------------------------
 BYTE   PATT
  POIN2 Label_7_01176ABD
// 022   ----------------------------------------
Label_7_01176AEC:
 BYTE   N06  Gs1  v100
 BYTE   W12
 BYTE   N12  As1
 BYTE   W12
 BYTE   N06  Gs1
 BYTE   W12
 BYTE   N12  As1
 BYTE   W12
 BYTE   N06  Gs1
 BYTE   W12
 BYTE   N12  As1
 BYTE   W12
 BYTE   N06  Gs1
 BYTE   W12
 BYTE   N12  As1
 BYTE   W12
 BYTE   PEND 
// 023   ----------------------------------------
 BYTE   PATT
  POIN2 Label_7_01176AEC
// 024   ----------------------------------------
Label_7_01176B0B:
 BYTE   N06  Cn1  v100
 BYTE   W06
 BYTE   N06
 BYTE   W12
 BYTE   N06
 BYTE   W06
 BYTE   Dn1
 BYTE   W12
 BYTE   N06
 BYTE   W42
 BYTE   N06
 BYTE   W06
 BYTE   N06
 BYTE   W12
 BYTE   PEND 
// 025   ----------------------------------------
 BYTE   N24  Cs2
 BYTE   N24  Ds2
 BYTE   W96
// 026   ----------------------------------------
Label_7_01176B21:
 BYTE   N24  Cs2  v100
 BYTE   N24  Ds2
 BYTE   N24  Gn2
 BYTE   W96
 BYTE   PEND 
// 027   ----------------------------------------
Label_7_01176B2A:
 BYTE   N03  Dn1  v100
 BYTE   W03
 BYTE   N03
 BYTE   W68
 BYTE   W01
 BYTE   N24  Cs2
 BYTE   N24  Ds2
 BYTE   W24
 BYTE   PEND 
// 028   ----------------------------------------
Label_7_01176B37:
 BYTE   N18  Cn1  v100
 BYTE   W18
 BYTE   N06
 BYTE   W06
 BYTE   Dn1
 BYTE   W18
 BYTE   Cn1
 BYTE   W06
 BYTE   Dn1
 BYTE   W06
 BYTE   N06
 BYTE   W30
 BYTE   N06
 BYTE   W06
 BYTE   N06
 BYTE   W06
 BYTE   PEND 
// 029   ----------------------------------------
 BYTE   PATT
  POIN2 Label_7_01176A5F
// 030   ----------------------------------------
 BYTE   PATT
  POIN2 Label_7_01176A73
// 031   ----------------------------------------
 BYTE   PATT
  POIN2 Label_7_01176A73
// 032   ----------------------------------------
 BYTE   PATT
  POIN2 Label_7_01176A87
// 033   ----------------------------------------
 BYTE   PATT
  POIN2 Label_7_01176A5F
// 034   ----------------------------------------
 BYTE   PATT
  POIN2 Label_7_01176A73
// 035   ----------------------------------------
 BYTE   PATT
  POIN2 Label_7_01176A73
// 036   ----------------------------------------
 BYTE   PATT
  POIN2 Label_7_01176A87
// 037   ----------------------------------------
 BYTE   PATT
  POIN2 Label_7_01176AAD
// 038   ----------------------------------------
 BYTE   PATT
  POIN2 Label_7_01176ABD
// 039   ----------------------------------------
 BYTE   PATT
  POIN2 Label_7_01176AD4
// 040   ----------------------------------------
 BYTE   PATT
  POIN2 Label_7_01176ABD
// 041   ----------------------------------------
 BYTE   PATT
  POIN2 Label_7_01176AEC
// 042   ----------------------------------------
 BYTE   PATT
  POIN2 Label_7_01176AEC
// 043   ----------------------------------------
 BYTE   PATT
  POIN2 Label_7_01176B0B
// 044   ----------------------------------------
 BYTE   N24  Cs2  v100
 BYTE   N24  Ds2
 BYTE   W96
// 045   ----------------------------------------
 BYTE   PATT
  POIN2 Label_7_01176B21
// 046   ----------------------------------------
 BYTE   PATT
  POIN2 Label_7_01176B2A
// 047   ----------------------------------------
 BYTE   PATT
  POIN2 Label_7_01176B37
// 048   ----------------------------------------
 BYTE   GoTo
  POIN2 Label_7_01176A11
 BYTE   FINE

//******************************************************//
	ALIGN 4

MegamanXChillPenguinPandan:
	BYTE	8	// NumTrks
	BYTE	0	// NumBlks
	BYTE	MegamanXChillPenguinPandan_pri	// Priority
	BYTE	MegamanXChillPenguinPandan_rev	// Reverb.
    
	POIN2	MegamanXChillPenguinPandan_grp
    
	POIN2	MegamanXChillPenguinPandan_001
	POIN2	MegamanXChillPenguinPandan_002
	POIN2	MegamanXChillPenguinPandan_003
	POIN2	MegamanXChillPenguinPandan_004
	POIN2	MegamanXChillPenguinPandan_005
	POIN2	MegamanXChillPenguinPandan_006
	POIN2	MegamanXChillPenguinPandan_007
	POIN2	MegamanXChillPenguinPandan_008

	
