//Event file generated from Sappy .s format.
	#include "MPlayDef.event"

	#define	Megaman6BlizzardManRandomWizard_grp  voicegroup000
	#define	Megaman6BlizzardManRandomWizard_pri  0
	#define	Megaman6BlizzardManRandomWizard_rev  0
	#define	Megaman6BlizzardManRandomWizard_mvl  127
	#define	Megaman6BlizzardManRandomWizard_key  0
	#define	Megaman6BlizzardManRandomWizard_tbs  1
	#define	Megaman6BlizzardManRandomWizard_exg  0
	#define	Megaman6BlizzardManRandomWizard_cmp  1

	// .rodata
	//	Megaman6BlizzardManRandomWizard
	ALIGN 4


//**************** Track 1 (Midi-Chn.0) ****************//

Megaman6BlizzardManRandomWizard_001:
// 000   ----------------------------------------
 BYTE   KEYSH   Megaman6BlizzardManRandomWizard_key+0
 BYTE   VOICE   11
 BYTE   VOL   38*Megaman6BlizzardManRandomWizard_mvl/mxv
 BYTE   N12  Dn1  v108
 BYTE   W12
 BYTE   Dn1
 BYTE   W12
 BYTE   N24
 BYTE   W24
Label_0_0100025A:
 BYTE   N11  Gn1  v108
 BYTE   W12
 BYTE   Gn1
 BYTE   W12
 BYTE   Gn1
 BYTE   W12
 BYTE   Gn1
 BYTE   W12
// 001   ----------------------------------------
Label_0_01000264:
 BYTE   N11  Gn1  v108
 BYTE   W12
 BYTE   Gn1
 BYTE   W12
 BYTE   Gn1
 BYTE   W12
 BYTE   Gn1
 BYTE   W12
 BYTE   Gn1
 BYTE   W12
 BYTE   Gn1
 BYTE   W12
 BYTE   Gn1
 BYTE   W12
 BYTE   Gn1
 BYTE   W12
 BYTE   PEND 
// 002   ----------------------------------------
Label_0_01000277:
 BYTE   N11  As1  v108
 BYTE   W12
 BYTE   An1
 BYTE   W12
 BYTE   Gn1
 BYTE   W12
 BYTE   Dn1
 BYTE   W12
 BYTE   Fn1
 BYTE   W12
 BYTE   Fn1
 BYTE   W12
 BYTE   Fn1
 BYTE   W12
 BYTE   Fn2
 BYTE   W12
 BYTE   PEND 
// 003   ----------------------------------------
Label_0_0100028A:
 BYTE   N11  Fn1  v108
 BYTE   W12
 BYTE   Fn1
 BYTE   W12
 BYTE   Fn1
 BYTE   W12
 BYTE   Fn1
 BYTE   W12
 BYTE   Fn1
 BYTE   W12
 BYTE   Fn1
 BYTE   W12
 BYTE   Fn1
 BYTE   W12
 BYTE   Fn1
 BYTE   W12
 BYTE   PEND 
// 004   ----------------------------------------
Label_0_0100029D:
 BYTE   N11  Dn1  v108
 BYTE   W12
 BYTE   Dn2
 BYTE   W12
 BYTE   Fn1
 BYTE   W12
 BYTE   Fn2
 BYTE   W12
 BYTE   Gn1
 BYTE   W12
 BYTE   Gn1
 BYTE   W12
 BYTE   Gn1
 BYTE   W12
 BYTE   Gn1
 BYTE   W12
 BYTE   PEND 
// 005   ----------------------------------------
 BYTE   PATT
  POIN2 Label_0_01000264
// 006   ----------------------------------------
 BYTE   PATT
  POIN2 Label_0_01000277
// 007   ----------------------------------------
 BYTE   PATT
  POIN2 Label_0_0100028A
// 008   ----------------------------------------
Label_0_010002BF:
 BYTE   N11  Fn1  v108
 BYTE   W12
 BYTE   Fn1
 BYTE   W12
 BYTE   N05  Fn2
 BYTE   W06
 BYTE   Fn1
 BYTE   W06
 BYTE   Ds2
 BYTE   W06
 BYTE   Fn2
 BYTE   W06
 BYTE   N11  Ds1
 BYTE   W12
 BYTE   Ds1
 BYTE   W12
 BYTE   N05  Ds2
 BYTE   W06
 BYTE   Ds1
 BYTE   W06
 BYTE   Dn2
 BYTE   W06
 BYTE   Ds2
 BYTE   W06
 BYTE   PEND 
// 009   ----------------------------------------
Label_0_010002DD:
 BYTE   N11  Ds1  v108
 BYTE   W12
 BYTE   Ds1
 BYTE   W12
 BYTE   N05  Ds2
 BYTE   W06
 BYTE   Ds1
 BYTE   W06
 BYTE   Dn2
 BYTE   W06
 BYTE   Ds2
 BYTE   W06
 BYTE   N11  Dn1
 BYTE   W12
 BYTE   Dn1
 BYTE   W12
 BYTE   N05  Dn2
 BYTE   W06
 BYTE   Dn1
 BYTE   W06
 BYTE   Cn2
 BYTE   W06
 BYTE   Dn2
 BYTE   W06
 BYTE   PEND 
// 010   ----------------------------------------
Label_0_010002FB:
 BYTE   N11  Dn1  v108
 BYTE   W12
 BYTE   Dn1
 BYTE   W12
 BYTE   N05  Dn2
 BYTE   W06
 BYTE   Dn1
 BYTE   W06
 BYTE   Cn2
 BYTE   W06
 BYTE   Dn2
 BYTE   W06
 BYTE   N11  Cn1
 BYTE   W12
 BYTE   Cn1
 BYTE   W12
 BYTE   N05  Cn2
 BYTE   W06
 BYTE   Cn1
 BYTE   W06
 BYTE   As1
 BYTE   W06
 BYTE   Cn2
 BYTE   W06
 BYTE   PEND 
// 011   ----------------------------------------
Label_0_01000319:
 BYTE   N11  Cn1  v108
 BYTE   W12
 BYTE   Cn1
 BYTE   W12
 BYTE   N05  Cn2
 BYTE   W06
 BYTE   Cn1
 BYTE   W06
 BYTE   As1
 BYTE   W06
 BYTE   Cn2
 BYTE   W06
 BYTE   N11  Cn1
 BYTE   W12
 BYTE   N05
 BYTE   W06
 BYTE   Cn1
 BYTE   W06
 BYTE   Cn2
 BYTE   W06
 BYTE   Cn1
 BYTE   W06
 BYTE   As1
 BYTE   W06
 BYTE   Cn2
 BYTE   W06
 BYTE   PEND 
// 012   ----------------------------------------
Label_0_01000338:
 BYTE   N05  Cn1  v108
 BYTE   W06
 BYTE   Cn1
 BYTE   W06
 BYTE   As1
 BYTE   W06
 BYTE   Cn2
 BYTE   W06
 BYTE   As1
 BYTE   W06
 BYTE   An1
 BYTE   W06
 BYTE   Gn1
 BYTE   W06
 BYTE   Fn1
 BYTE   W06
 BYTE   N11  Ds1
 BYTE   W12
 BYTE   Ds1
 BYTE   W12
 BYTE   N05  Ds2
 BYTE   W06
 BYTE   Ds1
 BYTE   W06
 BYTE   Dn2
 BYTE   W06
 BYTE   Ds2
 BYTE   W06
 BYTE   PEND 
// 013   ----------------------------------------
 BYTE   PATT
  POIN2 Label_0_010002DD
// 014   ----------------------------------------
 BYTE   PATT
  POIN2 Label_0_010002FB
// 015   ----------------------------------------
 BYTE   PATT
  POIN2 Label_0_01000319
// 016   ----------------------------------------
Label_0_01000368:
 BYTE   N20  Cn1  v108
 BYTE   W24
 BYTE   Dn1
 BYTE   W24
 BYTE   N11  As1
 BYTE   W12
 BYTE   As1
 BYTE   W12
 BYTE   As1
 BYTE   W12
 BYTE   As1
 BYTE   W12
 BYTE   PEND 
// 017   ----------------------------------------
Label_0_01000378:
 BYTE   N11  As1  v108
 BYTE   W12
 BYTE   As1
 BYTE   W12
 BYTE   As1
 BYTE   W12
 BYTE   As1
 BYTE   W12
 BYTE   Gs1
 BYTE   W12
 BYTE   Gs1
 BYTE   W12
 BYTE   Gs1
 BYTE   W12
 BYTE   Gs1
 BYTE   W12
 BYTE   PEND 
// 018   ----------------------------------------
Label_0_0100038B:
 BYTE   N11  Gs1  v108
 BYTE   W12
 BYTE   Gs1
 BYTE   W12
 BYTE   Gs1
 BYTE   W12
 BYTE   Gs1
 BYTE   W12
 BYTE   Gn1
 BYTE   W12
 BYTE   Gn1
 BYTE   W12
 BYTE   Gn1
 BYTE   W12
 BYTE   Gn1
 BYTE   W12
 BYTE   PEND 
// 019   ----------------------------------------
 BYTE   PATT
  POIN2 Label_0_01000264
// 020   ----------------------------------------
Label_0_010003A3:
 BYTE   N11  Gn1  v108
 BYTE   W12
 BYTE   Gn1
 BYTE   W12
 BYTE   Gs1
 BYTE   W12
 BYTE   Gs1
 BYTE   W12
 BYTE   As1
 BYTE   W12
 BYTE   As1
 BYTE   W12
 BYTE   As1
 BYTE   W12
 BYTE   As1
 BYTE   W12
 BYTE   PEND 
// 021   ----------------------------------------
 BYTE   PATT
  POIN2 Label_0_01000378
// 022   ----------------------------------------
Label_0_010003BB:
 BYTE   N11  Gs1  v108
 BYTE   W12
 BYTE   Gs1
 BYTE   W12
 BYTE   Gs1
 BYTE   W12
 BYTE   Gs1
 BYTE   W12
 BYTE   Dn1
 BYTE   W12
 BYTE   Dn1
 BYTE   W12
 BYTE   Dn1
 BYTE   W12
 BYTE   Dn1
 BYTE   W12
 BYTE   PEND 
// 023   ----------------------------------------
Label_0_010003CE:
 BYTE   N11  Dn1  v108
 BYTE   W12
 BYTE   Dn1
 BYTE   W12
 BYTE   Dn1
 BYTE   W12
 BYTE   Dn1
 BYTE   W12
 BYTE   Dn1
 BYTE   W12
 BYTE   Dn1
 BYTE   W12
 BYTE   Dn1
 BYTE   W12
 BYTE   Dn1
 BYTE   W12
 BYTE   PEND 
// 024   ----------------------------------------
Label_0_010003E1:
 BYTE   N11  Dn1  v108
 BYTE   W12
 BYTE   Dn1
 BYTE   W12
 BYTE   En1
 BYTE   W12
 BYTE   Fs1
 BYTE   W12
 BYTE   Gn1
 BYTE   W12
 BYTE   Gn1
 BYTE   W12
 BYTE   Gn1
 BYTE   W12
 BYTE   Gn1
 BYTE   W12
 BYTE   PEND 
// 025   ----------------------------------------
Label_0_010003F4:
 BYTE   N11  Gn1  v108
 BYTE   W12
 BYTE   Gn1
 BYTE   W12
 BYTE   Gn1
 BYTE   W12
 BYTE   Gn1
 BYTE   W12
 BYTE   Fn1
 BYTE   W12
 BYTE   Fn1
 BYTE   W12
 BYTE   Fn1
 BYTE   W12
 BYTE   Fn1
 BYTE   W12
 BYTE   PEND 
// 026   ----------------------------------------
Label_0_01000407:
 BYTE   N11  Fn1  v108
 BYTE   W12
 BYTE   Fn1
 BYTE   W12
 BYTE   Fn1
 BYTE   W12
 BYTE   Fn1
 BYTE   W12
 BYTE   Ds1
 BYTE   W12
 BYTE   Ds1
 BYTE   W12
 BYTE   Ds1
 BYTE   W12
 BYTE   Ds1
 BYTE   W12
 BYTE   PEND 
// 027   ----------------------------------------
Label_0_0100041A:
 BYTE   N11  Ds1  v108
 BYTE   W12
 BYTE   Ds1
 BYTE   W12
 BYTE   Ds1
 BYTE   W12
 BYTE   Ds1
 BYTE   W12
 BYTE   Dn1
 BYTE   W12
 BYTE   Dn1
 BYTE   W12
 BYTE   Dn1
 BYTE   W12
 BYTE   Dn1
 BYTE   W12
 BYTE   PEND 
// 028   ----------------------------------------
Label_0_0100042D:
 BYTE   N05  Dn1  v108
 BYTE   W06
 BYTE   Dn1
 BYTE   W06
 BYTE   Cn1
 BYTE   W06
 BYTE   Dn1
 BYTE   W06
 BYTE   Dn2
 BYTE   W06
 BYTE   Dn1
 BYTE   W06
 BYTE   Cn2
 BYTE   W06
 BYTE   Dn2
 BYTE   W06
 BYTE   N11  Ds1
 BYTE   W12
 BYTE   Ds1
 BYTE   W12
 BYTE   Ds1
 BYTE   W12
 BYTE   Ds1
 BYTE   W12
 BYTE   PEND 
// 029   ----------------------------------------
Label_0_01000449:
 BYTE   N05  Ds1  v108
 BYTE   W06
 BYTE   Ds1
 BYTE   W06
 BYTE   Ds2
 BYTE   W06
 BYTE   Ds1
 BYTE   W06
 BYTE   N11
 BYTE   W12
 BYTE   Ds1
 BYTE   W12
 BYTE   Fn1
 BYTE   W12
 BYTE   Fn1
 BYTE   W12
 BYTE   Fn1
 BYTE   W12
 BYTE   Fn1
 BYTE   W12
 BYTE   PEND 
// 030   ----------------------------------------
Label_0_01000460:
 BYTE   N05  Fn1  v108
 BYTE   W06
 BYTE   Fn1
 BYTE   W06
 BYTE   Fn2
 BYTE   W06
 BYTE   Fn1
 BYTE   W06
 BYTE   N11
 BYTE   W12
 BYTE   Fn1
 BYTE   W12
 BYTE   N05  Gn1
 BYTE   W06
 BYTE   Gn1
 BYTE   W06
 BYTE   Fn1
 BYTE   W06
 BYTE   Gn1
 BYTE   W06
 BYTE   Gn1
 BYTE   W06
 BYTE   Gn1
 BYTE   W06
 BYTE   Fn1
 BYTE   W06
 BYTE   Gn1
 BYTE   W06
 BYTE   PEND 
// 031   ----------------------------------------
Label_0_01000480:
 BYTE   N05  Gn1  v108
 BYTE   W06
 BYTE   Gn1
 BYTE   W06
 BYTE   Fn1
 BYTE   W06
 BYTE   Gn1
 BYTE   W06
 BYTE   Gn1
 BYTE   W06
 BYTE   Gn1
 BYTE   W06
 BYTE   Fn1
 BYTE   W06
 BYTE   Gn1
 BYTE   W06
 BYTE   Gn1
 BYTE   W06
 BYTE   Gn0
 BYTE   W06
 BYTE   Fn1
 BYTE   W06
 BYTE   Gn1
 BYTE   W06
 BYTE   Gn2
 BYTE   W06
 BYTE   Gn0
 BYTE   W06
 BYTE   Fn1
 BYTE   W06
 BYTE   Gn1
 BYTE   W06
 BYTE   PEND 
// 032   ----------------------------------------
 BYTE   Dn2
 BYTE   W06
 BYTE   Dn2
 BYTE   W06
 BYTE   Cn2
 BYTE   W06
 BYTE   Cn2
 BYTE   W06
 BYTE   As1
 BYTE   W06
 BYTE   As1
 BYTE   W06
 BYTE   An1
 BYTE   W06
 BYTE   An1
 BYTE   W06
 BYTE   N11  Gn1
 BYTE   W12
 BYTE   Gn1
 BYTE   W12
 BYTE   Gn1
 BYTE   W12
 BYTE   Gn1
 BYTE   W12
// 033   ----------------------------------------
 BYTE   PATT
  POIN2 Label_0_01000264
// 034   ----------------------------------------
 BYTE   PATT
  POIN2 Label_0_01000277
// 035   ----------------------------------------
 BYTE   PATT
  POIN2 Label_0_0100028A
// 036   ----------------------------------------
 BYTE   PATT
  POIN2 Label_0_0100029D
// 037   ----------------------------------------
 BYTE   PATT
  POIN2 Label_0_01000264
// 038   ----------------------------------------
 BYTE   PATT
  POIN2 Label_0_01000277
// 039   ----------------------------------------
 BYTE   PATT
  POIN2 Label_0_0100028A
// 040   ----------------------------------------
 BYTE   PATT
  POIN2 Label_0_010002BF
// 041   ----------------------------------------
 BYTE   PATT
  POIN2 Label_0_010002DD
// 042   ----------------------------------------
 BYTE   PATT
  POIN2 Label_0_010002FB
// 043   ----------------------------------------
 BYTE   PATT
  POIN2 Label_0_01000319
// 044   ----------------------------------------
 BYTE   PATT
  POIN2 Label_0_01000338
// 045   ----------------------------------------
 BYTE   PATT
  POIN2 Label_0_010002DD
// 046   ----------------------------------------
 BYTE   PATT
  POIN2 Label_0_010002FB
// 047   ----------------------------------------
 BYTE   PATT
  POIN2 Label_0_01000319
// 048   ----------------------------------------
 BYTE   PATT
  POIN2 Label_0_01000368
// 049   ----------------------------------------
 BYTE   PATT
  POIN2 Label_0_01000378
// 050   ----------------------------------------
 BYTE   PATT
  POIN2 Label_0_0100038B
// 051   ----------------------------------------
 BYTE   PATT
  POIN2 Label_0_01000264
// 052   ----------------------------------------
 BYTE   PATT
  POIN2 Label_0_010003A3
// 053   ----------------------------------------
 BYTE   PATT
  POIN2 Label_0_01000378
// 054   ----------------------------------------
 BYTE   PATT
  POIN2 Label_0_010003BB
// 055   ----------------------------------------
 BYTE   PATT
  POIN2 Label_0_010003CE
// 056   ----------------------------------------
 BYTE   PATT
  POIN2 Label_0_010003E1
// 057   ----------------------------------------
 BYTE   PATT
  POIN2 Label_0_010003F4
// 058   ----------------------------------------
 BYTE   PATT
  POIN2 Label_0_01000407
// 059   ----------------------------------------
 BYTE   PATT
  POIN2 Label_0_0100041A
// 060   ----------------------------------------
 BYTE   PATT
  POIN2 Label_0_0100042D
// 061   ----------------------------------------
 BYTE   PATT
  POIN2 Label_0_01000449
// 062   ----------------------------------------
 BYTE   PATT
  POIN2 Label_0_01000460
// 063   ----------------------------------------
 BYTE   PATT
  POIN2 Label_0_01000480
// 064   ----------------------------------------
 BYTE   N05  Dn2  v108
 BYTE   W06
 BYTE   Dn2
 BYTE   W06
 BYTE   Cn2
 BYTE   W06
 BYTE   Cn2
 BYTE   W06
 BYTE   As1
 BYTE   W06
 BYTE   As1
 BYTE   W06
 BYTE   An1
 BYTE   W06
 BYTE   An1
 BYTE   W06
 BYTE   N20  Gn0
 BYTE   GoTo
  POIN2 Label_0_0100025A
// 065   ----------------------------------------
 BYTE   W36
 BYTE   N11  Gn1
 BYTE   W12
 BYTE   W24
 BYTE   N32  Gn0  v108  gtp3
 BYTE   W36
// 066   ----------------------------------------
 BYTE   N32  Gn1
 BYTE   W36
 BYTE   N20  An1
 BYTE   W24
 BYTE   As1
 BYTE   W24
 BYTE   N11  Fn0
 BYTE   W12
// 067   ----------------------------------------
 BYTE   N20  Fn1
 BYTE   W24
 BYTE   Fn1
 BYTE   W12
 BYTE   W12
 BYTE   Fn0
 BYTE   W24
 BYTE   N54  Fn1
 BYTE   W60
// 068   ----------------------------------------
 BYTE   N20  Ds1
 BYTE   W24
 BYTE   Fn1
 BYTE   W24
 BYTE   Gn0
 BYTE   W48
// 069   ----------------------------------------
 BYTE   W42
 BYTE   FINE

//**************** Track 2 (Midi-Chn.1) ****************//

Megaman6BlizzardManRandomWizard_002:
// 000   ----------------------------------------
 BYTE   KEYSH   Megaman6BlizzardManRandomWizard_key+0
 BYTE   VOICE   41
 BYTE   VOL   63*Megaman6BlizzardManRandomWizard_mvl/mxv
 BYTE   W48
Label_1_54C6F2:
 BYTE   N20  Gn2  v108
 BYTE   W36
 BYTE   N11  As2
 BYTE   W12
// 001   ----------------------------------------
Label_1_54C6F9:
 BYTE   W24
 BYTE   N20  Dn3  v108
 BYTE   W36
 BYTE   N32  Fn3
 BYTE   W36
 BYTE   PEND 
// 002   ----------------------------------------
Label_1_54C702:
 BYTE   N20  En3  v108
 BYTE   W24
 BYTE   Dn3
 BYTE   W24
 BYTE   N11  En3
 BYTE   W12
 BYTE   N23  Fn3
 BYTE   W24
 BYTE   Fn3
 BYTE   W12
 BYTE   PEND 
// 003   ----------------------------------------
Label_1_54C711:
 BYTE   W12
 BYTE   N23  Cn3  v108
 BYTE   W24
 BYTE   N54  An2
 BYTE   W60
 BYTE   PEND 
// 004   ----------------------------------------
Label_1_54C71A:
 BYTE   N20  Gn2  v108
 BYTE   W24
 BYTE   Fn2
 BYTE   W24
 BYTE   Gn2
 BYTE   W36
 BYTE   N11  As2
 BYTE   W12
 BYTE   PEND 
// 005   ----------------------------------------
 BYTE   PATT
  POIN2 Label_1_54C6F9
// 006   ----------------------------------------
 BYTE   PATT
  POIN2 Label_1_54C702
// 007   ----------------------------------------
Label_1_54C730:
 BYTE   W12
 BYTE   N23  Cn3  v108
 BYTE   W24
 BYTE   N54  An3
 BYTE   W60
 BYTE   PEND 
// 008   ----------------------------------------
Label_1_54C739:
 BYTE   N20  Gn3  v108
 BYTE   W24
 BYTE   Fn3
 BYTE   W24
 BYTE   N56  Gn3  v108  gtp3
 BYTE   W48
 BYTE   PEND 
// 009   ----------------------------------------
Label_1_54C745:
 BYTE   W12
 BYTE   N23  As3  v108
 BYTE   W24
 BYTE   N11  Gn3
 BYTE   W12
 BYTE   N20  An3
 BYTE   W24
 BYTE   Fn3
 BYTE   W24
 BYTE   PEND 
// 010   ----------------------------------------
Label_1_54C753:
 BYTE   N20  Fn3  v108
 BYTE   W24
 BYTE   Dn3
 BYTE   W24
 BYTE   N11  Fn3
 BYTE   W12
 BYTE   N23  Gn3
 BYTE   W24
 BYTE   Gn3
 BYTE   W12
 BYTE   PEND 
// 011   ----------------------------------------
Label_1_54C762:
 BYTE   W12
 BYTE   N11  Fn3  v108
 BYTE   W12
 BYTE   En3
 BYTE   W12
 BYTE   Dn3
 BYTE   W12
 BYTE   N48  En3
 BYTE   W48
 BYTE   PEND 
// 012   ----------------------------------------
Label_1_54C76F:
 BYTE   N42  Cn3  v108
 BYTE   W48
 BYTE   N56  Gn3  v108  gtp3
 BYTE   W48
 BYTE   PEND 
// 013   ----------------------------------------
Label_1_54C779:
 BYTE   W12
 BYTE   N23  As3  v108
 BYTE   W24
 BYTE   N11  Gn3
 BYTE   W12
 BYTE   N24  An3
 BYTE   W24
 BYTE   Cn4
 BYTE   W24
 BYTE   PEND 
// 014   ----------------------------------------
Label_1_54C787:
 BYTE   N24  An3  v108
 BYTE   W24
 BYTE   Fn3
 BYTE   W24
 BYTE   N11
 BYTE   W12
 BYTE   N23  Gn3
 BYTE   W24
 BYTE   N80
 BYTE   W12
 BYTE   PEND 
// 015   ----------------------------------------
Label_1_54C795:
 BYTE   W72
 BYTE   N24  Cn3  v108
 BYTE   W24
 BYTE   PEND 
// 016   ----------------------------------------
Label_1_54C79B:
 BYTE   N24  Dn3  v108
 BYTE   W24
 BYTE   Cn3
 BYTE   W24
 BYTE   N48  Fn3
 BYTE   W48
 BYTE   PEND 
// 017   ----------------------------------------
Label_1_54C7A5:
 BYTE   N11  Ds3  v108
 BYTE   W12
 BYTE   N23  Dn3
 BYTE   W24
 BYTE   N32  Ds3
 BYTE   W36
 BYTE   N20  Dn3
 BYTE   W24
 BYTE   PEND 
// 018   ----------------------------------------
Label_1_54C7B3:
 BYTE   N20  Cn3  v108
 BYTE   W24
 BYTE   As2
 BYTE   W24
 BYTE   N11  Cn3
 BYTE   W12
 BYTE   N23  Dn3
 BYTE   W24
 BYTE   N80
 BYTE   W12
 BYTE   PEND 
// 019   ----------------------------------------
Label_1_54C7C2:
 BYTE   W72
 BYTE   N24  As2  v108
 BYTE   W24
 BYTE   PEND 
// 020   ----------------------------------------
Label_1_54C7C8:
 BYTE   N24  Dn3  v108
 BYTE   W24
 BYTE   N20  Ds3
 BYTE   W24
 BYTE   N42  Fn3
 BYTE   W48
 BYTE   PEND 
// 021   ----------------------------------------
Label_1_54C7D3:
 BYTE   N11  Ds3  v108
 BYTE   W12
 BYTE   N23  Dn3
 BYTE   W24
 BYTE   N32  Ds3
 BYTE   W36
 BYTE   N20
 BYTE   W24
 BYTE   PEND 
// 022   ----------------------------------------
Label_1_54C7E0:
 BYTE   N20  Fn3  v108
 BYTE   W24
 BYTE   Gn3
 BYTE   W24
 BYTE   N11
 BYTE   W12
 BYTE   N23  An3
 BYTE   W24
 BYTE   TIE
 BYTE   W12
 BYTE   PEND 
// 023   ----------------------------------------
 BYTE   W90
 BYTE   EOT
 BYTE   W06
// 024   ----------------------------------------
Label_1_54C7F1:
 BYTE   N20  As3  v108
 BYTE   W24
 BYTE   An3
 BYTE   W24
 BYTE   N11  As3
 BYTE   W12
 BYTE   An3
 BYTE   W12
 BYTE   As3
 BYTE   W12
 BYTE   N23  Cn4
 BYTE   W12
 BYTE   PEND 
// 025   ----------------------------------------
Label_1_54C802:
 BYTE   W12
 BYTE   N11  As3  v108
 BYTE   W12
 BYTE   N20  An3
 BYTE   W24
 BYTE   N11  As3
 BYTE   W12
 BYTE   An3
 BYTE   W12
 BYTE   As3
 BYTE   W12
 BYTE   N23  Cn4
 BYTE   W12
 BYTE   PEND 
// 026   ----------------------------------------
Label_1_54C815:
 BYTE   W12
 BYTE   N11  As3  v108
 BYTE   W12
 BYTE   An3
 BYTE   W12
 BYTE   N05
 BYTE   W06
 BYTE   Cn4
 BYTE   W06
 BYTE   N24  Dn4
 BYTE   W24
 BYTE   Cn4
 BYTE   W24
 BYTE   PEND 
// 027   ----------------------------------------
Label_1_54C826:
 BYTE   N24  As3  v108
 BYTE   W24
 BYTE   An3
 BYTE   W24
 BYTE   N32  Gn3
 BYTE   W36
 BYTE   N23  Fn3
 BYTE   W12
 BYTE   PEND 
// 028   ----------------------------------------
Label_1_54C833:
 BYTE   W12
 BYTE   N11  Fn3  v108
 BYTE   W12
 BYTE   Dn3
 BYTE   W12
 BYTE   Fn3
 BYTE   W12
 BYTE   N56  Gn3  v108  gtp3
 BYTE   W48
 BYTE   PEND 
// 029   ----------------------------------------
Label_1_54C842:
 BYTE   W12
 BYTE   N23  Fn3  v108
 BYTE   W24
 BYTE   N11  Gn3
 BYTE   W12
 BYTE   N56  Gn3  v108  gtp3
 BYTE   W48
 BYTE   PEND 
// 030   ----------------------------------------
Label_1_54C850:
 BYTE   W12
 BYTE   N23  Fn3  v108
 BYTE   W24
 BYTE   N11  Gn3
 BYTE   W12
 BYTE   TIE
 BYTE   W48
 BYTE   PEND 
// 031   ----------------------------------------
 BYTE   W96
// 032   ----------------------------------------
 BYTE   W42
 BYTE   EOT
 BYTE   W06
 BYTE   N20  Gn2
 BYTE   W36
 BYTE   N11  As2
 BYTE   W12
// 033   ----------------------------------------
 BYTE   PATT
  POIN2 Label_1_54C6F9
// 034   ----------------------------------------
 BYTE   PATT
  POIN2 Label_1_54C702
// 035   ----------------------------------------
 BYTE   PATT
  POIN2 Label_1_54C711
// 036   ----------------------------------------
 BYTE   PATT
  POIN2 Label_1_54C71A
// 037   ----------------------------------------
 BYTE   PATT
  POIN2 Label_1_54C6F9
// 038   ----------------------------------------
 BYTE   PATT
  POIN2 Label_1_54C702
// 039   ----------------------------------------
 BYTE   PATT
  POIN2 Label_1_54C730
// 040   ----------------------------------------
 BYTE   PATT
  POIN2 Label_1_54C739
// 041   ----------------------------------------
 BYTE   PATT
  POIN2 Label_1_54C745
// 042   ----------------------------------------
 BYTE   PATT
  POIN2 Label_1_54C753
// 043   ----------------------------------------
 BYTE   PATT
  POIN2 Label_1_54C762
// 044   ----------------------------------------
 BYTE   PATT
  POIN2 Label_1_54C76F
// 045   ----------------------------------------
 BYTE   PATT
  POIN2 Label_1_54C779
// 046   ----------------------------------------
 BYTE   PATT
  POIN2 Label_1_54C787
// 047   ----------------------------------------
 BYTE   PATT
  POIN2 Label_1_54C795
// 048   ----------------------------------------
 BYTE   PATT
  POIN2 Label_1_54C79B
// 049   ----------------------------------------
 BYTE   PATT
  POIN2 Label_1_54C7A5
// 050   ----------------------------------------
 BYTE   PATT
  POIN2 Label_1_54C7B3
// 051   ----------------------------------------
 BYTE   PATT
  POIN2 Label_1_54C7C2
// 052   ----------------------------------------
 BYTE   PATT
  POIN2 Label_1_54C7C8
// 053   ----------------------------------------
 BYTE   PATT
  POIN2 Label_1_54C7D3
// 054   ----------------------------------------
 BYTE   PATT
  POIN2 Label_1_54C7E0
// 055   ----------------------------------------
 BYTE   W90
 BYTE   EOT
 BYTE   An3
 BYTE   W06
// 056   ----------------------------------------
 BYTE   PATT
  POIN2 Label_1_54C7F1
// 057   ----------------------------------------
 BYTE   PATT
  POIN2 Label_1_54C802
// 058   ----------------------------------------
 BYTE   PATT
  POIN2 Label_1_54C815
// 059   ----------------------------------------
 BYTE   PATT
  POIN2 Label_1_54C826
// 060   ----------------------------------------
 BYTE   PATT
  POIN2 Label_1_54C833
// 061   ----------------------------------------
 BYTE   PATT
  POIN2 Label_1_54C842
// 062   ----------------------------------------
 BYTE   PATT
  POIN2 Label_1_54C850
// 063   ----------------------------------------
 BYTE   W96
// 064   ----------------------------------------
 BYTE   W42
 BYTE   EOT
 BYTE   Gn3
 BYTE   W06
 BYTE   N20  Dn2  v108
 BYTE   N20  Gn2
 BYTE   GoTo
  POIN2 Label_1_54C6F2
// 065   ----------------------------------------
 BYTE   W36
 BYTE   N11
 BYTE   N11  As2
 BYTE   W12
 BYTE   W24
 BYTE   N20
 BYTE   N20  Dn3
 BYTE   W36
// 066   ----------------------------------------
 BYTE   N32
 BYTE   N32  Fn3
 BYTE   W36
 BYTE   N20  Cn3
 BYTE   N20  En3
 BYTE   W24
 BYTE   As2
 BYTE   N20  Dn3
 BYTE   W24
 BYTE   N11  An2
 BYTE   N11  En3
 BYTE   W12
// 067   ----------------------------------------
 BYTE   N20  An2
 BYTE   N20  Fn3
 BYTE   W24
 BYTE   An2
 BYTE   N20  Fn3
 BYTE   W12
 BYTE   W12
 BYTE   An2
 BYTE   N20  Cn3
 BYTE   W24
 BYTE   N54  An2
 BYTE   N54  An3
 BYTE   W60
// 068   ----------------------------------------
 BYTE   N20  As2
 BYTE   N20  Gn3
 BYTE   W24
 BYTE   Cn3
 BYTE   N20  Fn3
 BYTE   W24
 BYTE   Dn3
 BYTE   N20  Gn3
 BYTE   W48
// 069   ----------------------------------------
 BYTE   W42
 BYTE   FINE

//**************** Track 3 (Midi-Chn.2) ****************//

Megaman6BlizzardManRandomWizard_003:
// 000   ----------------------------------------
 BYTE   KEYSH   Megaman6BlizzardManRandomWizard_key+0
 BYTE   VOICE   30
 BYTE   VOL   51*Megaman6BlizzardManRandomWizard_mvl/mxv
 BYTE   W48
Label_2_01000007:
 BYTE   W48
// 001   ----------------------------------------
 BYTE   W96
// 002   ----------------------------------------
 BYTE   W96
// 003   ----------------------------------------
 BYTE   W96
// 004   ----------------------------------------
 BYTE   W96
// 005   ----------------------------------------
 BYTE   W96
// 006   ----------------------------------------
 BYTE   W96
// 007   ----------------------------------------
 BYTE   W96
// 008   ----------------------------------------
 BYTE   W96
// 009   ----------------------------------------
 BYTE   W96
// 010   ----------------------------------------
 BYTE   W96
// 011   ----------------------------------------
 BYTE   W96
// 012   ----------------------------------------
 BYTE   W96
// 013   ----------------------------------------
 BYTE   W96
// 014   ----------------------------------------
 BYTE   W96
// 015   ----------------------------------------
 BYTE   W96
// 016   ----------------------------------------
 BYTE   W96
// 017   ----------------------------------------
 BYTE   W96
// 018   ----------------------------------------
 BYTE   W96
// 019   ----------------------------------------
 BYTE   W96
// 020   ----------------------------------------
 BYTE   W96
// 021   ----------------------------------------
 BYTE   W96
// 022   ----------------------------------------
 BYTE   W96
// 023   ----------------------------------------
 BYTE   W96
// 024   ----------------------------------------
 BYTE   W96
// 025   ----------------------------------------
 BYTE   W96
// 026   ----------------------------------------
 BYTE   W96
// 027   ----------------------------------------
 BYTE   W96
// 028   ----------------------------------------
 BYTE   W96
// 029   ----------------------------------------
 BYTE   W96
// 030   ----------------------------------------
 BYTE   W96
// 031   ----------------------------------------
 BYTE   W96
// 032   ----------------------------------------
 BYTE   W96
// 033   ----------------------------------------
Label_2_01000028:
 BYTE   W12
 BYTE   N11  Gn2  v092
 BYTE   W12
 BYTE   As2
 BYTE   W12
 BYTE   Dn3
 BYTE   W12
 BYTE   N42  Gn3
 BYTE   W48
 BYTE   PEND 
// 034   ----------------------------------------
Label_2_01000035:
 BYTE   N20  Fn3  v092
 BYTE   W24
 BYTE   Gn3
 BYTE   W24
 BYTE   N11
 BYTE   W12
 BYTE   N23  An3
 BYTE   W24
 BYTE   An3
 BYTE   W12
 BYTE   PEND 
// 035   ----------------------------------------
Label_2_01000043:
 BYTE   W12
 BYTE   N23  Fn3  v092
 BYTE   W24
 BYTE   N11  Cn3
 BYTE   W12
 BYTE   An2
 BYTE   W12
 BYTE   As2
 BYTE   W12
 BYTE   Cn3
 BYTE   W12
 BYTE   An2
 BYTE   W12
 BYTE   PEND 
// 036   ----------------------------------------
 BYTE   Dn3
 BYTE   W12
 BYTE   Cn3
 BYTE   W12
 BYTE   As2
 BYTE   W12
 BYTE   An2
 BYTE   W60
// 037   ----------------------------------------
 BYTE   PATT
  POIN2 Label_2_01000028
// 038   ----------------------------------------
 BYTE   PATT
  POIN2 Label_2_01000035
// 039   ----------------------------------------
 BYTE   PATT
  POIN2 Label_2_01000043
// 040   ----------------------------------------
 BYTE   N11  Dn3  v092
 BYTE   W12
 BYTE   Cn3
 BYTE   W12
 BYTE   As2
 BYTE   W12
 BYTE   An2
 BYTE   W12
 BYTE   Ds3
 BYTE   W12
 BYTE   Gn3
 BYTE   W12
 BYTE   As3
 BYTE   W12
 BYTE   Gn3
 BYTE   W12
// 041   ----------------------------------------
Label_2_0100007D:
 BYTE   N11  Dn4  v092
 BYTE   W12
 BYTE   As3
 BYTE   W12
 BYTE   Gn3
 BYTE   W12
 BYTE   As3
 BYTE   W12
 BYTE   Dn3
 BYTE   W12
 BYTE   Fn3
 BYTE   W12
 BYTE   An3
 BYTE   W12
 BYTE   Fn3
 BYTE   W12
 BYTE   PEND 
// 042   ----------------------------------------
Label_2_01000090:
 BYTE   N11  Cn4  v092
 BYTE   W12
 BYTE   An3
 BYTE   W12
 BYTE   Fn3
 BYTE   W12
 BYTE   An3
 BYTE   W12
 BYTE   Cn3
 BYTE   W12
 BYTE   En3
 BYTE   W12
 BYTE   Gn3
 BYTE   W12
 BYTE   En3
 BYTE   W12
 BYTE   PEND 
// 043   ----------------------------------------
 BYTE   Cn4
 BYTE   W12
 BYTE   Gn3
 BYTE   W12
 BYTE   En3
 BYTE   W12
 BYTE   Gn3
 BYTE   W12
 BYTE   Cn3
 BYTE   W12
 BYTE   En3
 BYTE   W12
 BYTE   Gn3
 BYTE   W12
 BYTE   En3
 BYTE   W12
// 044   ----------------------------------------
 BYTE   Cn4
 BYTE   W12
 BYTE   Gn3
 BYTE   W12
 BYTE   En3
 BYTE   W12
 BYTE   Cn3
 BYTE   W12
 BYTE   Ds3
 BYTE   W12
 BYTE   Gn3
 BYTE   W12
 BYTE   As3
 BYTE   W12
 BYTE   Gn3
 BYTE   W12
// 045   ----------------------------------------
 BYTE   PATT
  POIN2 Label_2_0100007D
// 046   ----------------------------------------
 BYTE   PATT
  POIN2 Label_2_01000090
// 047   ----------------------------------------
 BYTE   N11  Cn4  v092
 BYTE   W12
 BYTE   Gn3
 BYTE   W12
 BYTE   En3
 BYTE   W12
 BYTE   Gn3
 BYTE   W12
 BYTE   En3
 BYTE   W12
 BYTE   Cn3
 BYTE   W12
 BYTE   N20  Gn2
 BYTE   W24
// 048   ----------------------------------------
 BYTE   N05  Cn2
 BYTE   W06
 BYTE   Dn2
 BYTE   W06
 BYTE   En2
 BYTE   W06
 BYTE   Fn2
 BYTE   W06
 BYTE   Gn2
 BYTE   W06
 BYTE   An2
 BYTE   W06
 BYTE   As2
 BYTE   W06
 BYTE   Cn3
 BYTE   W06
 BYTE   N11  As2
 BYTE   W12
 BYTE   Fn2
 BYTE   W12
 BYTE   As2
 BYTE   W12
 BYTE   Dn3
 BYTE   W12
// 049   ----------------------------------------
Label_2_010000F8:
 BYTE   N11  Fn3  v092
 BYTE   W12
 BYTE   Dn3
 BYTE   W12
 BYTE   As2
 BYTE   W12
 BYTE   Fn2
 BYTE   W12
 BYTE   Gs2
 BYTE   W12
 BYTE   Ds2
 BYTE   W12
 BYTE   Gs2
 BYTE   W12
 BYTE   Cn3
 BYTE   W12
 BYTE   PEND 
// 050   ----------------------------------------
 BYTE   Ds3
 BYTE   W12
 BYTE   Cn3
 BYTE   W12
 BYTE   Gs2
 BYTE   W12
 BYTE   Ds2
 BYTE   W12
 BYTE   Gn2
 BYTE   W12
 BYTE   Dn2
 BYTE   W12
 BYTE   Gn2
 BYTE   W12
 BYTE   An2
 BYTE   W12
// 051   ----------------------------------------
 BYTE   As2
 BYTE   W12
 BYTE   Dn3
 BYTE   W12
 BYTE   Gn3
 BYTE   W12
 BYTE   As3
 BYTE   W12
 BYTE   Cn5
 BYTE   W12
 BYTE   N23  Dn5
 BYTE   W24
 BYTE   N60
 BYTE   W12
// 052   ----------------------------------------
 BYTE   W48
 BYTE   N11  As2
 BYTE   W12
 BYTE   Fn2
 BYTE   W12
 BYTE   As2
 BYTE   W12
 BYTE   Dn3
 BYTE   W12
// 053   ----------------------------------------
 BYTE   PATT
  POIN2 Label_2_010000F8
// 054   ----------------------------------------
 BYTE   N11  Ds3  v092
 BYTE   W12
 BYTE   Cn3
 BYTE   W12
 BYTE   Gs2
 BYTE   W12
 BYTE   Ds2
 BYTE   W12
 BYTE   An2
 BYTE   W12
 BYTE   Fs2
 BYTE   W12
 BYTE   An2
 BYTE   W12
 BYTE   Dn3
 BYTE   W12
// 055   ----------------------------------------
 BYTE   Fs3
 BYTE   W12
 BYTE   Dn3
 BYTE   W12
 BYTE   An2
 BYTE   W12
 BYTE   Fs2
 BYTE   W12
 BYTE   An2
 BYTE   W12
 BYTE   As2
 BYTE   W12
 BYTE   Cn3
 BYTE   W12
 BYTE   Dn3
 BYTE   W12
// 056   ----------------------------------------
 BYTE   N05  Ds3
 BYTE   W06
 BYTE   Fs3
 BYTE   W06
 BYTE   Gn3
 BYTE   W06
 BYTE   An3
 BYTE   W06
 BYTE   As3
 BYTE   W06
 BYTE   Cn4
 BYTE   W06
 BYTE   Dn4
 BYTE   W06
 BYTE   Ds4
 BYTE   W06
 BYTE   N32  Gn3
 BYTE   W36
 BYTE   N05
 BYTE   W06
 BYTE   An3
 BYTE   W06
// 057   ----------------------------------------
 BYTE   N11  As3
 BYTE   W12
 BYTE   An3
 BYTE   W12
 BYTE   Gn3
 BYTE   W12
 BYTE   Dn3
 BYTE   W12
 BYTE   N32  Fn3
 BYTE   W36
 BYTE   N05
 BYTE   W06
 BYTE   Gn3
 BYTE   W06
// 058   ----------------------------------------
 BYTE   N11  An3
 BYTE   W12
 BYTE   Gn3
 BYTE   W12
 BYTE   Fn3
 BYTE   W12
 BYTE   Cn3
 BYTE   W12
 BYTE   N32  Ds3
 BYTE   W36
 BYTE   N05
 BYTE   W06
 BYTE   Fn3
 BYTE   W06
// 059   ----------------------------------------
 BYTE   N11  Gn3
 BYTE   W12
 BYTE   Fn3
 BYTE   W12
 BYTE   Ds3
 BYTE   W12
 BYTE   As2
 BYTE   W12
 BYTE   Fn3
 BYTE   W12
 BYTE   Cn3
 BYTE   W12
 BYTE   Fn3
 BYTE   W12
 BYTE   N23  An3
 BYTE   W12
// 060   ----------------------------------------
 BYTE   W12
 BYTE   N11
 BYTE   W12
 BYTE   Fn3
 BYTE   W12
 BYTE   An3
 BYTE   W12
 BYTE   As3
 BYTE   W12
 BYTE   Gn3
 BYTE   W12
 BYTE   Ds3
 BYTE   W12
 BYTE   Gn3
 BYTE   W12
// 061   ----------------------------------------
 BYTE   As3
 BYTE   W12
 BYTE   N05  Ds3
 BYTE   W06
 BYTE   Fn3
 BYTE   W06
 BYTE   Gn3
 BYTE   W06
 BYTE   Fn3
 BYTE   W06
 BYTE   N11  Ds3
 BYTE   W12
 BYTE   An3
 BYTE   W12
 BYTE   Fn3
 BYTE   W12
 BYTE   Cn3
 BYTE   W12
 BYTE   Fn3
 BYTE   W12
// 062   ----------------------------------------
 BYTE   An3
 BYTE   W12
 BYTE   N05  Cn3
 BYTE   W06
 BYTE   Dn3
 BYTE   W06
 BYTE   Ds3
 BYTE   W06
 BYTE   Dn3
 BYTE   W06
 BYTE   N11  Cn3
 BYTE   W12
 BYTE   Gn3
 BYTE   W12
 BYTE   Dn3
 BYTE   W12
 BYTE   As2
 BYTE   W12
 BYTE   Dn3
 BYTE   W12
// 063   ----------------------------------------
 BYTE   Gn3
 BYTE   W12
 BYTE   Dn3
 BYTE   W12
 BYTE   As2
 BYTE   W12
 BYTE   Dn3
 BYTE   W12
 BYTE   Gn2
 BYTE   W12
 BYTE   N05  An2
 BYTE   W06
 BYTE   As2
 BYTE   W06
 BYTE   Cn3
 BYTE   W06
 BYTE   Dn3
 BYTE   W06
 BYTE   Ds3
 BYTE   W06
 BYTE   Fn3
 BYTE   W06
// 064   ----------------------------------------
 BYTE   Gn3
 BYTE   W06
 BYTE   An3
 BYTE   W06
 BYTE   As3
 BYTE   W06
 BYTE   Cn4
 BYTE   W06
 BYTE   Dn4
 BYTE   W06
 BYTE   Ds4
 BYTE   W06
 BYTE   Fn4
 BYTE   W06
 BYTE   Gn4
 BYTE   W06
 BYTE   GoTo
  POIN2 Label_2_01000007
// 065   ----------------------------------------
 BYTE   W48
// 066   ----------------------------------------
 BYTE   PATT
  POIN2 Label_2_01000028
// 067   ----------------------------------------
 BYTE   N20  Fn3  v092
 BYTE   W24
 BYTE   Gn3
 BYTE   W24
 BYTE   N11  Fn3
 BYTE   W12
 BYTE   N23
 BYTE   W24
 BYTE   Fn3
 BYTE   W12
// 068   ----------------------------------------
 BYTE   PATT
  POIN2 Label_2_01000043
// 069   ----------------------------------------
 BYTE   N11  Dn3  v092
 BYTE   W12
 BYTE   Cn3
 BYTE   W12
 BYTE   As2
 BYTE   W12
 BYTE   An2
 BYTE   W12
 BYTE   N20  Gn3
 BYTE   W48
// 070   ----------------------------------------
 BYTE   W42
 BYTE   FINE

//**************** Track 4 (Midi-Chn.3) ****************//

Megaman6BlizzardManRandomWizard_004:
// 000   ----------------------------------------
 BYTE   KEYSH   Megaman6BlizzardManRandomWizard_key+0
 BYTE   VOICE   38
 BYTE   VOL   38*Megaman6BlizzardManRandomWizard_mvl/mxv
 BYTE   N24  Cn3  v092
 BYTE   N24  Fn3
 BYTE   W24
 BYTE   An2
 BYTE   N24  Dn3
 BYTE   W24
Label_3_01002A64:
 BYTE   N08  Gn2  v092
 BYTE   N08  Dn3
 BYTE   N08  Gn3
 BYTE   W12
 BYTE   Gn2  v075
 BYTE   N08  Dn3
 BYTE   N08  Gn3
 BYTE   W12
 BYTE   Gn2
 BYTE   N08  Dn3
 BYTE   N08  Gn3
 BYTE   W12
 BYTE   Gn2  v092
 BYTE   N08  Dn3
 BYTE   N08  Gn3
 BYTE   W12
// 001   ----------------------------------------
Label_3_01002A80:
 BYTE   N08  Gn2  v075
 BYTE   N08  Dn3
 BYTE   N08  Gn3
 BYTE   W12
 BYTE   Gn2
 BYTE   N08  Dn3
 BYTE   N08  Gn3
 BYTE   W12
 BYTE   Gn2  v092
 BYTE   N08  Dn3
 BYTE   N08  Gn3
 BYTE   W12
 BYTE   Gn2  v075
 BYTE   N08  Dn3
 BYTE   N08  Gn3
 BYTE   W12
 BYTE   Gn2
 BYTE   N08  Dn3
 BYTE   N08  Gn3
 BYTE   W12
 BYTE   Gn2  v092
 BYTE   N08  Dn3
 BYTE   N08  Gn3
 BYTE   W12
 BYTE   Gn2  v075
 BYTE   N08  Dn3
 BYTE   N08  Gn3
 BYTE   W12
 BYTE   Gn2
 BYTE   N08  Dn3
 BYTE   N08  Gn3
 BYTE   W12
 BYTE   PEND 
// 002   ----------------------------------------
Label_3_01002AB7:
 BYTE   N08  Gn2  v092
 BYTE   N08  Dn3
 BYTE   N08  Gn3
 BYTE   W12
 BYTE   Gn2  v075
 BYTE   N08  Dn3
 BYTE   N08  Gn3
 BYTE   W12
 BYTE   Gn2  v092
 BYTE   N08  Dn3
 BYTE   N08  Gn3
 BYTE   W12
 BYTE   Gn2  v075
 BYTE   N08  Dn3
 BYTE   N08  Gn3
 BYTE   W12
 BYTE   Fn2  v092
 BYTE   N08  Cn3
 BYTE   N08  Fn3
 BYTE   W12
 BYTE   Fn2  v075
 BYTE   N08  Cn3
 BYTE   N08  Fn3
 BYTE   W12
 BYTE   Fn2
 BYTE   N08  Cn3
 BYTE   N08  Fn3
 BYTE   W12
 BYTE   Fn2  v092
 BYTE   N08  Cn3
 BYTE   N08  Fn3
 BYTE   W12
 BYTE   PEND 
// 003   ----------------------------------------
Label_3_01002AF0:
 BYTE   N08  Fn2  v075
 BYTE   N08  Cn3
 BYTE   N08  Fn3
 BYTE   W12
 BYTE   Fn2
 BYTE   N08  Cn3
 BYTE   N08  Fn3
 BYTE   W12
 BYTE   Fn2  v092
 BYTE   N08  Cn3
 BYTE   N08  Fn3
 BYTE   W12
 BYTE   Fn2  v075
 BYTE   N08  Cn3
 BYTE   N08  Fn3
 BYTE   W12
 BYTE   Fn2
 BYTE   N08  Cn3
 BYTE   N08  Fn3
 BYTE   W12
 BYTE   Fn2  v092
 BYTE   N08  Cn3
 BYTE   N08  Fn3
 BYTE   W12
 BYTE   Fn2  v075
 BYTE   N08  Cn3
 BYTE   N08  Fn3
 BYTE   W12
 BYTE   Fn2
 BYTE   N08  Cn3
 BYTE   N08  Fn3
 BYTE   W12
 BYTE   PEND 
// 004   ----------------------------------------
Label_3_01002B27:
 BYTE   N08  Fn2  v092
 BYTE   N08  Cn3
 BYTE   N08  Fn3
 BYTE   W12
 BYTE   Fn2  v075
 BYTE   N08  Cn3
 BYTE   N08  Fn3
 BYTE   W12
 BYTE   Fn2  v092
 BYTE   N08  Cn3
 BYTE   N08  Fn3
 BYTE   W12
 BYTE   Fn2  v075
 BYTE   N08  Cn3
 BYTE   N08  Fn3
 BYTE   W12
 BYTE   Gn2  v092
 BYTE   N08  Dn3
 BYTE   N08  Gn3
 BYTE   W12
 BYTE   Gn2  v075
 BYTE   N08  Dn3
 BYTE   N08  Gn3
 BYTE   W12
 BYTE   Gn2
 BYTE   N08  Dn3
 BYTE   N08  Gn3
 BYTE   W12
 BYTE   Gn2  v092
 BYTE   N08  Dn3
 BYTE   N08  Gn3
 BYTE   W12
 BYTE   PEND 
// 005   ----------------------------------------
 BYTE   PATT
  POIN2 Label_3_01002A80
// 006   ----------------------------------------
 BYTE   PATT
  POIN2 Label_3_01002AB7
// 007   ----------------------------------------
 BYTE   PATT
  POIN2 Label_3_01002AF0
// 008   ----------------------------------------
Label_3_01002B6F:
 BYTE   N08  Fn2  v092
 BYTE   N08  Cn3
 BYTE   N08  Fn3
 BYTE   W12
 BYTE   Fn2  v075
 BYTE   N08  Cn3
 BYTE   N08  Fn3
 BYTE   W12
 BYTE   Fn2  v092
 BYTE   N08  Cn3
 BYTE   N08  Fn3
 BYTE   W12
 BYTE   Fn2  v075
 BYTE   N08  Cn3
 BYTE   N08  Fn3
 BYTE   W60
 BYTE   PEND 
// 009   ----------------------------------------
 BYTE   W96
// 010   ----------------------------------------
 BYTE   W96
// 011   ----------------------------------------
 BYTE   W96
// 012   ----------------------------------------
Label_3_01002B90:
 BYTE   W48
 BYTE   N90  Ds2  v092
 BYTE   N90  As2
 BYTE   W48
 BYTE   PEND 
// 013   ----------------------------------------
Label_3_01002B98:
 BYTE   W48
 BYTE   N90  Dn2  v092
 BYTE   N90  An2
 BYTE   W48
 BYTE   PEND 
// 014   ----------------------------------------
Label_3_01002BA0:
 BYTE   W48
 BYTE   TIE  Cn2  v092
 BYTE   TIE  Gn2
 BYTE   W48
 BYTE   PEND 
// 015   ----------------------------------------
Label_3_01002BA8:
 BYTE   W90
 BYTE   EOT
 BYTE   Cn2  v055
 BYTE   W06
 BYTE   PEND 
// 016   ----------------------------------------
Label_3_01002BAE:
 BYTE   N20  Cn2  v092
 BYTE   N20  Gn2
 BYTE   W24
 BYTE   Dn2
 BYTE   N20  An2
 BYTE   W24
 BYTE   N90  Fn2
 BYTE   N90  As2
 BYTE   N90  Dn3
 BYTE   N90  Fn3
 BYTE   W48
 BYTE   PEND 
// 017   ----------------------------------------
Label_3_01002BC2:
 BYTE   W48
 BYTE   N90  Ds2  v092
 BYTE   N90  Gs2
 BYTE   N90  Cn3
 BYTE   N90  Ds3
 BYTE   W48
 BYTE   PEND 
// 018   ----------------------------------------
Label_3_01002BCE:
 BYTE   W48
 BYTE   TIE  Dn2  v092
 BYTE   TIE  Gn2
 BYTE   TIE  As2
 BYTE   TIE  Dn3
 BYTE   W48
 BYTE   PEND 
// 019   ----------------------------------------
Label_3_01002BDA:
 BYTE   W90
 BYTE   EOT
 BYTE   Dn2  v055
 BYTE   As2  v062
 BYTE   W06
 BYTE   PEND 
// 020   ----------------------------------------
Label_3_01002BE2:
 BYTE   N20  Dn2  v092
 BYTE   N20  Gn2
 BYTE   N20  As2
 BYTE   N20  Dn3
 BYTE   W24
 BYTE   Ds2
 BYTE   N20  Gs2
 BYTE   N20  Cn3
 BYTE   N20  Ds3
 BYTE   W24
 BYTE   N90  Fn2
 BYTE   N90  As2
 BYTE   N90  Dn3
 BYTE   N90  Fn3
 BYTE   W48
 BYTE   PEND 
// 021   ----------------------------------------
 BYTE   PATT
  POIN2 Label_3_01002BC2
// 022   ----------------------------------------
Label_3_01002C03:
 BYTE   W48
 BYTE   N90  Fs2  v092
 BYTE   N90  An2
 BYTE   N90  Dn3
 BYTE   N90  Fs3
 BYTE   W48
 BYTE   PEND 
// 023   ----------------------------------------
Label_3_01002C0F:
 BYTE   W48
 BYTE   N24  Fs2  v092
 BYTE   N24  An2
 BYTE   N24  Dn3
 BYTE   N24  Fs3
 BYTE   W24
 BYTE   Dn2
 BYTE   N24  Fs2
 BYTE   N24  An2
 BYTE   N24  Dn3
 BYTE   W24
 BYTE   PEND 
// 024   ----------------------------------------
Label_3_01002C23:
 BYTE   N20  Fs2  v092
 BYTE   N20  An2
 BYTE   N20  Dn3
 BYTE   N20  Fs3
 BYTE   W24
 BYTE   An2
 BYTE   N20  Dn3
 BYTE   N20  Fs3
 BYTE   N20  An3
 BYTE   W24
 BYTE   N08  Gn2
 BYTE   N08  Dn3
 BYTE   N08  Gn3
 BYTE   W12
 BYTE   Gn2  v075
 BYTE   N08  Dn3
 BYTE   N08  Gn3
 BYTE   W12
 BYTE   Gn2
 BYTE   N08  Dn3
 BYTE   N08  Gn3
 BYTE   W12
 BYTE   Gn2  v092
 BYTE   N08  Dn3
 BYTE   N08  Gn3
 BYTE   W12
 BYTE   PEND 
// 025   ----------------------------------------
Label_3_01002C51:
 BYTE   N08  Gn2  v075
 BYTE   N08  Dn3
 BYTE   N08  Gn3
 BYTE   W12
 BYTE   Gn2
 BYTE   N08  Dn3
 BYTE   N08  Gn3
 BYTE   W12
 BYTE   Gn2  v092
 BYTE   N08  Dn3
 BYTE   N08  Gn3
 BYTE   W12
 BYTE   Gn2  v075
 BYTE   N08  Dn3
 BYTE   N08  Gn3
 BYTE   W12
 BYTE   Fn2  v092
 BYTE   N08  Cn3
 BYTE   N08  Fn3
 BYTE   W12
 BYTE   Fn2  v075
 BYTE   N08  Cn3
 BYTE   N08  Fn3
 BYTE   W12
 BYTE   Fn2
 BYTE   N08  Cn3
 BYTE   N08  Fn3
 BYTE   W12
 BYTE   Fn2  v092
 BYTE   N08  Cn3
 BYTE   N08  Fn3
 BYTE   W12
 BYTE   PEND 
// 026   ----------------------------------------
Label_3_01002C89:
 BYTE   N08  Fn2  v075
 BYTE   N08  Cn3
 BYTE   N08  Fn3
 BYTE   W12
 BYTE   Fn2
 BYTE   N08  Cn3
 BYTE   N08  Fn3
 BYTE   W12
 BYTE   Fn2  v092
 BYTE   N08  Cn3
 BYTE   N08  Fn3
 BYTE   W12
 BYTE   Fn2  v075
 BYTE   N08  Cn3
 BYTE   N08  Fn3
 BYTE   W12
 BYTE   Ds2  v092
 BYTE   N08  As2
 BYTE   N08  Ds3
 BYTE   W12
 BYTE   Ds2  v075
 BYTE   N08  As2
 BYTE   N08  Ds3
 BYTE   W12
 BYTE   Ds2
 BYTE   N08  As2
 BYTE   N08  Ds3
 BYTE   W12
 BYTE   Ds2  v092
 BYTE   N08  As2
 BYTE   N08  Ds3
 BYTE   W12
 BYTE   PEND 
// 027   ----------------------------------------
Label_3_01002CC1:
 BYTE   N08  Ds2  v075
 BYTE   N08  As2
 BYTE   N08  Ds3
 BYTE   W12
 BYTE   Ds2
 BYTE   N08  As2
 BYTE   N08  Ds3
 BYTE   W12
 BYTE   Ds2  v092
 BYTE   N08  As2
 BYTE   N08  Ds3
 BYTE   W12
 BYTE   Ds2  v075
 BYTE   N08  As2
 BYTE   N08  Ds3
 BYTE   W12
 BYTE   Dn2  v092
 BYTE   N08  An2
 BYTE   N08  Dn3
 BYTE   W12
 BYTE   Dn2  v075
 BYTE   N08  An2
 BYTE   N08  Dn3
 BYTE   W12
 BYTE   Dn2
 BYTE   N08  An2
 BYTE   N08  Dn3
 BYTE   W12
 BYTE   Dn2  v092
 BYTE   N08  An2
 BYTE   N08  Dn3
 BYTE   W12
 BYTE   PEND 
// 028   ----------------------------------------
Label_3_01002CF9:
 BYTE   N08  Dn2  v075
 BYTE   N08  An2
 BYTE   N08  Dn3
 BYTE   W12
 BYTE   Dn2
 BYTE   N08  An2
 BYTE   N08  Dn3
 BYTE   W12
 BYTE   Dn2  v092
 BYTE   N08  An2
 BYTE   N08  Dn3
 BYTE   W12
 BYTE   Dn2  v075
 BYTE   N08  An2
 BYTE   N08  Dn3
 BYTE   W12
 BYTE   Ds2  v092
 BYTE   N08  As2
 BYTE   N08  Ds3
 BYTE   W12
 BYTE   Ds2  v075
 BYTE   N08  As2
 BYTE   N08  Ds3
 BYTE   W12
 BYTE   Ds2
 BYTE   N08  As2
 BYTE   N08  Ds3
 BYTE   W12
 BYTE   Ds2  v092
 BYTE   N08  As2
 BYTE   N08  Ds3
 BYTE   W12
 BYTE   PEND 
// 029   ----------------------------------------
Label_3_01002D31:
 BYTE   N08  Ds2  v075
 BYTE   N08  As2
 BYTE   N08  Ds3
 BYTE   W12
 BYTE   Ds2
 BYTE   N08  As2
 BYTE   N08  Ds3
 BYTE   W12
 BYTE   Ds2  v092
 BYTE   N08  As2
 BYTE   N08  Ds3
 BYTE   W12
 BYTE   Ds2  v075
 BYTE   N08  As2
 BYTE   N08  Ds3
 BYTE   W12
 BYTE   Fn2  v092
 BYTE   N08  Cn3
 BYTE   N08  Fn3
 BYTE   W12
 BYTE   Fn2  v075
 BYTE   N08  Cn3
 BYTE   N08  Fn3
 BYTE   W12
 BYTE   Fn2
 BYTE   N08  Cn3
 BYTE   N08  Fn3
 BYTE   W12
 BYTE   Fn2  v092
 BYTE   N08  Cn3
 BYTE   N08  Fn3
 BYTE   W12
 BYTE   PEND 
// 030   ----------------------------------------
Label_3_01002D69:
 BYTE   N08  Fn2  v075
 BYTE   N08  Cn3
 BYTE   N08  Fn3
 BYTE   W12
 BYTE   Fn2
 BYTE   N08  Cn3
 BYTE   N08  Fn3
 BYTE   W12
 BYTE   Fn2  v092
 BYTE   N08  Cn3
 BYTE   N08  Fn3
 BYTE   W12
 BYTE   Fn2  v075
 BYTE   N08  Cn3
 BYTE   N08  Fn3
 BYTE   W12
 BYTE   Gn2  v092
 BYTE   N08  Dn3
 BYTE   N08  Gn3
 BYTE   W12
 BYTE   Gn2  v075
 BYTE   N08  Dn3
 BYTE   N08  Gn3
 BYTE   W12
 BYTE   Gn2
 BYTE   N08  Dn3
 BYTE   N08  Gn3
 BYTE   W12
 BYTE   Gn2  v092
 BYTE   N08  Dn3
 BYTE   N08  Gn3
 BYTE   W12
 BYTE   PEND 
// 031   ----------------------------------------
Label_3_01002DA1:
 BYTE   N08  Gn2  v075
 BYTE   N08  Dn3
 BYTE   N08  Gn3
 BYTE   W12
 BYTE   Gn2
 BYTE   N08  Dn3
 BYTE   N08  Gn3
 BYTE   W12
 BYTE   Gn2  v092
 BYTE   N08  Dn3
 BYTE   N08  Gn3
 BYTE   W12
 BYTE   Gn2  v075
 BYTE   N08  Dn3
 BYTE   N08  Gn3
 BYTE   W12
 BYTE   N90  Gn2  v092
 BYTE   N90  Dn3
 BYTE   N90  Gn3
 BYTE   W48
 BYTE   PEND 
// 032   ----------------------------------------
 BYTE   W48
 BYTE   N08  Gn2
 BYTE   N08  Dn3
 BYTE   N08  Gn3
 BYTE   W12
 BYTE   Gn2  v075
 BYTE   N08  Dn3
 BYTE   N08  Gn3
 BYTE   W12
 BYTE   Gn2
 BYTE   N08  Dn3
 BYTE   N08  Gn3
 BYTE   W12
 BYTE   Gn2  v092
 BYTE   N08  Dn3
 BYTE   N08  Gn3
 BYTE   W12
// 033   ----------------------------------------
 BYTE   PATT
  POIN2 Label_3_01002A80
// 034   ----------------------------------------
 BYTE   PATT
  POIN2 Label_3_01002AB7
// 035   ----------------------------------------
 BYTE   PATT
  POIN2 Label_3_01002AF0
// 036   ----------------------------------------
 BYTE   PATT
  POIN2 Label_3_01002B27
// 037   ----------------------------------------
 BYTE   PATT
  POIN2 Label_3_01002A80
// 038   ----------------------------------------
 BYTE   PATT
  POIN2 Label_3_01002AB7
// 039   ----------------------------------------
 BYTE   PATT
  POIN2 Label_3_01002AF0
// 040   ----------------------------------------
 BYTE   PATT
  POIN2 Label_3_01002B6F
// 041   ----------------------------------------
 BYTE   W96
// 042   ----------------------------------------
 BYTE   W96
// 043   ----------------------------------------
 BYTE   W96
// 044   ----------------------------------------
 BYTE   PATT
  POIN2 Label_3_01002B90
// 045   ----------------------------------------
 BYTE   PATT
  POIN2 Label_3_01002B98
// 046   ----------------------------------------
 BYTE   PATT
  POIN2 Label_3_01002BA0
// 047   ----------------------------------------
 BYTE   PATT
  POIN2 Label_3_01002BA8
// 048   ----------------------------------------
 BYTE   PATT
  POIN2 Label_3_01002BAE
// 049   ----------------------------------------
 BYTE   PATT
  POIN2 Label_3_01002BC2
// 050   ----------------------------------------
 BYTE   PATT
  POIN2 Label_3_01002BCE
// 051   ----------------------------------------
 BYTE   PATT
  POIN2 Label_3_01002BDA
// 052   ----------------------------------------
 BYTE   PATT
  POIN2 Label_3_01002BE2
// 053   ----------------------------------------
 BYTE   PATT
  POIN2 Label_3_01002BC2
// 054   ----------------------------------------
 BYTE   PATT
  POIN2 Label_3_01002C03
// 055   ----------------------------------------
 BYTE   PATT
  POIN2 Label_3_01002C0F
// 056   ----------------------------------------
 BYTE   PATT
  POIN2 Label_3_01002C23
// 057   ----------------------------------------
 BYTE   PATT
  POIN2 Label_3_01002C51
// 058   ----------------------------------------
 BYTE   PATT
  POIN2 Label_3_01002C89
// 059   ----------------------------------------
 BYTE   PATT
  POIN2 Label_3_01002CC1
// 060   ----------------------------------------
 BYTE   PATT
  POIN2 Label_3_01002CF9
// 061   ----------------------------------------
 BYTE   PATT
  POIN2 Label_3_01002D31
// 062   ----------------------------------------
 BYTE   PATT
  POIN2 Label_3_01002D69
// 063   ----------------------------------------
 BYTE   PATT
  POIN2 Label_3_01002DA1
// 064   ----------------------------------------
 BYTE   W48
 BYTE   N11  Gn2  v092
 BYTE   N11  Dn3
 BYTE   N11  Gn3
 BYTE   GoTo
  POIN2 Label_3_01002A64
// 065   ----------------------------------------
 BYTE   W36
 BYTE   Gn2
 BYTE   N11  Dn3
 BYTE   N11  Gn3
 BYTE   W12
 BYTE   W24
 BYTE   Gn2
 BYTE   N11  Dn3
 BYTE   N11  Gn3
 BYTE   W36
// 066   ----------------------------------------
 BYTE   Gn2
 BYTE   N11  Dn3
 BYTE   N11  Gn3
 BYTE   W36
 BYTE   Gn2
 BYTE   N11  Dn3
 BYTE   N11  Gn3
 BYTE   W24
 BYTE   Gn2
 BYTE   N11  Dn3
 BYTE   N11  Gn3
 BYTE   W24
 BYTE   Fn2
 BYTE   N11  Cn3
 BYTE   N11  Fn3
 BYTE   W36
// 067   ----------------------------------------
 BYTE   Fn2
 BYTE   N11  Cn3
 BYTE   N11  Fn3
 BYTE   W12
 BYTE   W24
 BYTE   Fn2
 BYTE   N11  Cn3
 BYTE   N11  Fn3
 BYTE   W36
 BYTE   Fn2
 BYTE   N11  Cn3
 BYTE   N11  Fn3
 BYTE   W36
// 068   ----------------------------------------
 BYTE   Fn2
 BYTE   N11  Cn3
 BYTE   N11  Fn3
 BYTE   W24
 BYTE   Fn2
 BYTE   N11  Cn3
 BYTE   N11  Fn3
 BYTE   W24
 BYTE   N20  Gn2
 BYTE   N20  Dn3
 BYTE   N20  Gn3
 BYTE   W48
// 069   ----------------------------------------
 BYTE   W42
 BYTE   FINE

//**************** Track 5 (Midi-Chn.4) ****************//

Megaman6BlizzardManRandomWizard_005:
// 000   ----------------------------------------
 BYTE   KEYSH   Megaman6BlizzardManRandomWizard_key+0
 BYTE   VOICE   18
 BYTE   VOL   51*Megaman6BlizzardManRandomWizard_mvl/mxv
 BYTE   W48
Label_4_010025C3:
 BYTE   W48
// 001   ----------------------------------------
 BYTE   W96
// 002   ----------------------------------------
 BYTE   W96
// 003   ----------------------------------------
 BYTE   W96
// 004   ----------------------------------------
 BYTE   W96
// 005   ----------------------------------------
 BYTE   W96
// 006   ----------------------------------------
 BYTE   W96
// 007   ----------------------------------------
 BYTE   W96
// 008   ----------------------------------------
Label_4_010025CB:
 BYTE   W24
 BYTE   N01  Cs2  v092
 BYTE   W01
 BYTE   Dn2
 BYTE   N01  Ds2
 BYTE   W02
 BYTE   En2
 BYTE   N01  Fn2
 BYTE   W01
 BYTE   Fs2
 BYTE   N01  Gn2
 BYTE   W02
 BYTE   Gs2
 BYTE   N01  An2
 BYTE   W01
 BYTE   As2
 BYTE   N01  Bn2
 BYTE   W02
 BYTE   Cn3
 BYTE   N01  Cs3
 BYTE   W01
 BYTE   Dn3
 BYTE   N01  Ds3
 BYTE   W02
 BYTE   En3
 BYTE   N01  Fn3
 BYTE   W01
 BYTE   Fs3
 BYTE   N01  Gn3
 BYTE   W02
 BYTE   Gs3
 BYTE   N01  An3
 BYTE   W01
 BYTE   As3
 BYTE   N01  Bn3
 BYTE   W02
 BYTE   Cn4
 BYTE   N01  Cs4
 BYTE   W01
 BYTE   Dn4
 BYTE   N01  Ds4
 BYTE   W02
 BYTE   En4
 BYTE   N01  Fn4
 BYTE   W01
 BYTE   Fs4
 BYTE   N01  Gn4
 BYTE   W02
 BYTE   N90  As3
 BYTE   N90  Ds4
 BYTE   N90  Gn4
 BYTE   W48
 BYTE   PEND 
// 009   ----------------------------------------
Label_4_01002614:
 BYTE   W48
 BYTE   N90  An3  v092
 BYTE   N90  Dn4
 BYTE   N90  Fn4
 BYTE   W48
 BYTE   PEND 
// 010   ----------------------------------------
Label_4_0100261E:
 BYTE   W48
 BYTE   TIE  Gn3  v092
 BYTE   TIE  Cn4
 BYTE   TIE  En4
 BYTE   W48
 BYTE   PEND 
// 011   ----------------------------------------
 BYTE   W96
// 012   ----------------------------------------
Label_4_01002629:
 BYTE   W42
 BYTE   EOT
 BYTE   Gn3  v072
 BYTE   En4
 BYTE   W06
 BYTE   N90  As3  v092
 BYTE   N90  Ds4
 BYTE   N90  Gn4
 BYTE   W48
 BYTE   PEND 
// 013   ----------------------------------------
 BYTE   PATT
  POIN2 Label_4_01002614
// 014   ----------------------------------------
 BYTE   PATT
  POIN2 Label_4_0100261E
// 015   ----------------------------------------
Label_4_01002642:
 BYTE   W90
 BYTE   EOT
 BYTE   Gn3  v072
 BYTE   En4
 BYTE   W06
 BYTE   PEND 
// 016   ----------------------------------------
 BYTE   W96
// 017   ----------------------------------------
 BYTE   W96
// 018   ----------------------------------------
 BYTE   W96
// 019   ----------------------------------------
 BYTE   W96
// 020   ----------------------------------------
 BYTE   W96
// 021   ----------------------------------------
 BYTE   W96
// 022   ----------------------------------------
 BYTE   W96
// 023   ----------------------------------------
 BYTE   W96
// 024   ----------------------------------------
Label_4_01002651:
 BYTE   W24
 BYTE   N01  Cs2  v092
 BYTE   W01
 BYTE   Dn2
 BYTE   N01  Ds2
 BYTE   W02
 BYTE   En2
 BYTE   N01  Fn2
 BYTE   W01
 BYTE   Fs2
 BYTE   N01  Gn2
 BYTE   W02
 BYTE   Gs2
 BYTE   N01  An2
 BYTE   W01
 BYTE   As2
 BYTE   N01  Bn2
 BYTE   W02
 BYTE   Cn3
 BYTE   N01  Cs3
 BYTE   W01
 BYTE   Dn3
 BYTE   N01  Ds3
 BYTE   W02
 BYTE   En3
 BYTE   N01  Fn3
 BYTE   W01
 BYTE   Fs3
 BYTE   N01  Gn3
 BYTE   W02
 BYTE   Gs3
 BYTE   N01  An3
 BYTE   W01
 BYTE   As3
 BYTE   N01  Bn3
 BYTE   W02
 BYTE   Cn4
 BYTE   N01  Cs4
 BYTE   W01
 BYTE   Dn4
 BYTE   N01  Ds4
 BYTE   W02
 BYTE   En4
 BYTE   N01  Fn4
 BYTE   W01
 BYTE   Fs4
 BYTE   N01  Gn4
 BYTE   W02
 BYTE   N96  As3
 BYTE   N96  Dn4
 BYTE   N96  Gn4
 BYTE   W48
 BYTE   PEND 
// 025   ----------------------------------------
Label_4_0100269A:
 BYTE   W48
 BYTE   N96  An3  v092
 BYTE   N96  Cn4
 BYTE   N96  Fn4
 BYTE   W48
 BYTE   PEND 
// 026   ----------------------------------------
Label_4_010026A4:
 BYTE   W48
 BYTE   N96  Gn3  v092
 BYTE   N96  As3
 BYTE   N96  Ds4
 BYTE   W48
 BYTE   PEND 
// 027   ----------------------------------------
Label_4_010026AE:
 BYTE   W48
 BYTE   N96  Fn3  v092
 BYTE   N96  An3
 BYTE   N96  Dn4
 BYTE   W48
 BYTE   PEND 
// 028   ----------------------------------------
 BYTE   PATT
  POIN2 Label_4_010026A4
// 029   ----------------------------------------
 BYTE   PATT
  POIN2 Label_4_0100269A
// 030   ----------------------------------------
Label_4_010026C2:
 BYTE   W48
 BYTE   TIE  As3  v092
 BYTE   TIE  Dn4
 BYTE   TIE  Gn4
 BYTE   W48
 BYTE   PEND 
// 031   ----------------------------------------
 BYTE   W96
// 032   ----------------------------------------
 BYTE   W24
 BYTE   EOT
 BYTE   As3  v074
 BYTE   Gn4
 BYTE   N01  Cs2
 BYTE   W01
 BYTE   Dn2
 BYTE   N01  Ds2
 BYTE   W02
 BYTE   En2
 BYTE   N01  Fn2
 BYTE   W01
 BYTE   Fs2
 BYTE   N01  Gn2
 BYTE   W02
 BYTE   Gs2
 BYTE   N01  An2
 BYTE   W01
 BYTE   As2
 BYTE   N01  Bn2
 BYTE   W02
 BYTE   Cn3
 BYTE   N01  Cs3
 BYTE   W01
 BYTE   Dn3
 BYTE   N01  Ds3
 BYTE   W02
 BYTE   En3
 BYTE   N01  Fn3
 BYTE   W01
 BYTE   Fs3
 BYTE   N01  Gn3
 BYTE   W02
 BYTE   Gs3
 BYTE   N01  An3
 BYTE   W01
 BYTE   As3
 BYTE   N01  Bn3
 BYTE   W02
 BYTE   Cn4
 BYTE   N01  Cs4
 BYTE   W01
 BYTE   Dn4
 BYTE   N01  Ds4
 BYTE   W02
 BYTE   En4
 BYTE   N01  Fn4
 BYTE   W01
 BYTE   Fs4
 BYTE   N01  Gn4
 BYTE   W02
 BYTE   N11  As3
 BYTE   N11  Dn4
 BYTE   N11  Gn4
 BYTE   W48
// 033   ----------------------------------------
 BYTE   W96
// 034   ----------------------------------------
 BYTE   W96
// 035   ----------------------------------------
 BYTE   W96
// 036   ----------------------------------------
 BYTE   W96
// 037   ----------------------------------------
 BYTE   W96
// 038   ----------------------------------------
 BYTE   W96
// 039   ----------------------------------------
 BYTE   W96
// 040   ----------------------------------------
 BYTE   PATT
  POIN2 Label_4_010025CB
// 041   ----------------------------------------
 BYTE   PATT
  POIN2 Label_4_01002614
// 042   ----------------------------------------
 BYTE   PATT
  POIN2 Label_4_0100261E
// 043   ----------------------------------------
 BYTE   W96
// 044   ----------------------------------------
 BYTE   PATT
  POIN2 Label_4_01002629
// 045   ----------------------------------------
 BYTE   PATT
  POIN2 Label_4_01002614
// 046   ----------------------------------------
 BYTE   PATT
  POIN2 Label_4_0100261E
// 047   ----------------------------------------
 BYTE   PATT
  POIN2 Label_4_01002642
// 048   ----------------------------------------
 BYTE   W96
// 049   ----------------------------------------
 BYTE   W96
// 050   ----------------------------------------
 BYTE   W96
// 051   ----------------------------------------
 BYTE   W96
// 052   ----------------------------------------
 BYTE   W96
// 053   ----------------------------------------
 BYTE   W96
// 054   ----------------------------------------
 BYTE   W96
// 055   ----------------------------------------
 BYTE   W96
// 056   ----------------------------------------
 BYTE   PATT
  POIN2 Label_4_01002651
// 057   ----------------------------------------
 BYTE   PATT
  POIN2 Label_4_0100269A
// 058   ----------------------------------------
 BYTE   PATT
  POIN2 Label_4_010026A4
// 059   ----------------------------------------
 BYTE   PATT
  POIN2 Label_4_010026AE
// 060   ----------------------------------------
 BYTE   PATT
  POIN2 Label_4_010026A4
// 061   ----------------------------------------
 BYTE   PATT
  POIN2 Label_4_0100269A
// 062   ----------------------------------------
 BYTE   PATT
  POIN2 Label_4_010026C2
// 063   ----------------------------------------
 BYTE   W96
// 064   ----------------------------------------
 BYTE   W24
 BYTE   EOT
 BYTE   As3  v074
 BYTE   Gn4
 BYTE   N01  Cs2  v092
 BYTE   W01
 BYTE   Dn2
 BYTE   N01  Ds2
 BYTE   W02
 BYTE   En2
 BYTE   N01  Fn2
 BYTE   W01
 BYTE   Fs2
 BYTE   N01  Gn2
 BYTE   W02
 BYTE   Gs2
 BYTE   N01  An2
 BYTE   W01
 BYTE   As2
 BYTE   N01  Bn2
 BYTE   W02
 BYTE   Cn3
 BYTE   N01  Cs3
 BYTE   W01
 BYTE   Dn3
 BYTE   N01  Ds3
 BYTE   W02
 BYTE   En3
 BYTE   N01  Fn3
 BYTE   W01
 BYTE   Fs3
 BYTE   N01  Gn3
 BYTE   W02
 BYTE   Gs3
 BYTE   N01  An3
 BYTE   W01
 BYTE   As3
 BYTE   N01  Bn3
 BYTE   W02
 BYTE   Cn4
 BYTE   N01  Cs4
 BYTE   W01
 BYTE   Dn4
 BYTE   N01  Ds4
 BYTE   W02
 BYTE   En4
 BYTE   N01  Fn4
 BYTE   W01
 BYTE   Fs4
 BYTE   N01  Gn4
 BYTE   W02
 BYTE   N11  As3
 BYTE   N11  Dn4
 BYTE   N11  Gn4
 BYTE   GoTo
  POIN2 Label_4_010025C3
// 065   ----------------------------------------
 BYTE   W36
 BYTE   As3
 BYTE   N11  Dn4
 BYTE   N11  Gn4
 BYTE   W12
 BYTE   W24
 BYTE   As3
 BYTE   N11  Dn4
 BYTE   N11  Gn4
 BYTE   W36
// 066   ----------------------------------------
 BYTE   As3
 BYTE   N11  Dn4
 BYTE   N11  Gn4
 BYTE   W36
 BYTE   As3
 BYTE   N11  Dn4
 BYTE   N11  Gn4
 BYTE   W24
 BYTE   As3
 BYTE   N11  Dn4
 BYTE   N11  Gn4
 BYTE   W24
 BYTE   An3
 BYTE   N11  Cn4
 BYTE   N11  Fn4
 BYTE   W36
// 067   ----------------------------------------
 BYTE   An3
 BYTE   N11  Cn4
 BYTE   N11  Fn4
 BYTE   W12
 BYTE   W24
 BYTE   An3
 BYTE   N11  Cn4
 BYTE   N11  Fn4
 BYTE   W36
 BYTE   An3
 BYTE   N11  Cn4
 BYTE   N11  Fn4
 BYTE   W36
// 068   ----------------------------------------
 BYTE   An3
 BYTE   N11  Cn4
 BYTE   N11  Fn4
 BYTE   W24
 BYTE   An3
 BYTE   N11  Cn4
 BYTE   N11  Fn4
 BYTE   W24
 BYTE   N20  As3
 BYTE   N20  Dn4
 BYTE   N20  Gn4
 BYTE   W48
// 069   ----------------------------------------
 BYTE   W42
 BYTE   FINE

//**************** Track 6 (Midi-Chn.5) ****************//

Megaman6BlizzardManRandomWizard_006:
// 000   ----------------------------------------
 BYTE   KEYSH   Megaman6BlizzardManRandomWizard_key+0
 BYTE   VOICE   124
 BYTE   VOL   38*Megaman6BlizzardManRandomWizard_mvl/mxv
 BYTE   N02  En1  v108
 BYTE   N02  Cn2
 BYTE   W03
 BYTE   En1
 BYTE   W03
 BYTE   N05  Cn1
 BYTE   W06
 BYTE   Bn1
 BYTE   W06
 BYTE   An1
 BYTE   W06
 BYTE   En1
 BYTE   W06
 BYTE   Cn1
 BYTE   W06
 BYTE   En1
 BYTE   W06
 BYTE   En1
 BYTE   W06
Label_5_0100214D:
 BYTE   N20  Cn1  v108
 BYTE   N20  Cs2
 BYTE   N20  An2
 BYTE   W24
 BYTE   N11  En1
 BYTE   N11  En4
 BYTE   W12
 BYTE   Cn1
 BYTE   W12
// 001   ----------------------------------------
Label_5_0100215C:
 BYTE   N20  Cn1  v108
 BYTE   N20  En4
 BYTE   W24
 BYTE   En1
 BYTE   N20  En4
 BYTE   W24
 BYTE   N11  Cn1
 BYTE   N11  En4
 BYTE   W12
 BYTE   Cn1
 BYTE   W12
 BYTE   N20  En1
 BYTE   N20  En4
 BYTE   W24
 BYTE   PEND 
// 002   ----------------------------------------
Label_5_01002173:
 BYTE   N20  Cn1  v108
 BYTE   N20  En4
 BYTE   W24
 BYTE   N11  En1
 BYTE   N11  En4
 BYTE   W12
 BYTE   Cn1
 BYTE   W12
 BYTE   N20
 BYTE   N20  En4
 BYTE   W24
 BYTE   N11  En1
 BYTE   N11  En4
 BYTE   W12
 BYTE   Cn1
 BYTE   W12
 BYTE   PEND 
// 003   ----------------------------------------
Label_5_0100218C:
 BYTE   N20  Cn1  v108
 BYTE   N20  En4
 BYTE   W24
 BYTE   En1
 BYTE   N20  En4
 BYTE   W24
 BYTE   Cn1
 BYTE   N20  En4
 BYTE   W24
 BYTE   N11  En1
 BYTE   N11  En4
 BYTE   W12
 BYTE   Cn1
 BYTE   W12
 BYTE   PEND 
// 004   ----------------------------------------
Label_5_010021A2:
 BYTE   N05  En1  v108
 BYTE   W06
 BYTE   En1
 BYTE   W06
 BYTE   Cn1
 BYTE   W06
 BYTE   En1
 BYTE   W06
 BYTE   N11  Cn1
 BYTE   W12
 BYTE   N05  En1
 BYTE   W06
 BYTE   En1
 BYTE   W06
 BYTE   N20  Cn1
 BYTE   N20  Cs2
 BYTE   N20  An2
 BYTE   W24
 BYTE   N11  En1
 BYTE   N11  En4
 BYTE   W12
 BYTE   Cn1
 BYTE   W12
 BYTE   PEND 
// 005   ----------------------------------------
 BYTE   PATT
  POIN2 Label_5_0100215C
// 006   ----------------------------------------
 BYTE   PATT
  POIN2 Label_5_01002173
// 007   ----------------------------------------
Label_5_010021CD:
 BYTE   N20  Cn1  v108
 BYTE   N20  En4
 BYTE   W24
 BYTE   En1
 BYTE   N20  En4
 BYTE   W24
 BYTE   N05  En1
 BYTE   N05  En4
 BYTE   W06
 BYTE   En1
 BYTE   W06
 BYTE   N11  Cn1
 BYTE   W12
 BYTE   En1
 BYTE   N11  En4
 BYTE   W12
 BYTE   N05  Cn1
 BYTE   W06
 BYTE   Cn1
 BYTE   W06
 BYTE   PEND 
// 008   ----------------------------------------
Label_5_010021EB:
 BYTE   N05  En1  v108
 BYTE   N05  Gn2
 BYTE   W06
 BYTE   En1
 BYTE   W06
 BYTE   Cn1
 BYTE   W06
 BYTE   En1
 BYTE   W06
 BYTE   N11
 BYTE   W12
 BYTE   N05
 BYTE   N05  Gn2
 BYTE   W06
 BYTE   En1
 BYTE   W06
 BYTE   N11  Cn1
 BYTE   N11  En4
 BYTE   N11  Cs2
 BYTE   N11  An2
 BYTE   W12
 BYTE   En1
 BYTE   N11  En4
 BYTE   W12
 BYTE   N05  Cn1
 BYTE   N05  En4
 BYTE   W06
 BYTE   Cn1
 BYTE   W06
 BYTE   En1
 BYTE   N05  En4
 BYTE   W06
 BYTE   Cn1
 BYTE   W06
 BYTE   PEND 
// 009   ----------------------------------------
Label_5_0100221A:
 BYTE   N11  Cn1  v108
 BYTE   N11  En4
 BYTE   W12
 BYTE   En1
 BYTE   N11  En4
 BYTE   W12
 BYTE   N05  Cn1
 BYTE   N05  En4
 BYTE   W06
 BYTE   Cn1
 BYTE   W06
 BYTE   N11  En1
 BYTE   N11  En4
 BYTE   W12
 BYTE   Cn1
 BYTE   N11  En4
 BYTE   W12
 BYTE   En1
 BYTE   N11  En4
 BYTE   W12
 BYTE   N05  Cn1
 BYTE   N05  En4
 BYTE   W06
 BYTE   Cn1
 BYTE   W06
 BYTE   En1
 BYTE   N05  En4
 BYTE   W06
 BYTE   Cn1
 BYTE   W06
 BYTE   PEND 
// 010   ----------------------------------------
Label_5_01002246:
 BYTE   N11  Cn1  v108
 BYTE   N11  En4
 BYTE   W12
 BYTE   En1
 BYTE   N11  En4
 BYTE   W12
 BYTE   N05  Cn1
 BYTE   N05  En4
 BYTE   W06
 BYTE   Cn1
 BYTE   W06
 BYTE   En1
 BYTE   N05  En4
 BYTE   W06
 BYTE   Cn1
 BYTE   W06
 BYTE   N11
 BYTE   N11  En4
 BYTE   W12
 BYTE   En1
 BYTE   N11  En4
 BYTE   W12
 BYTE   N05  Cn1
 BYTE   N05  En4
 BYTE   W06
 BYTE   Cn1
 BYTE   W06
 BYTE   En1
 BYTE   N05  En4
 BYTE   W06
 BYTE   Cn1
 BYTE   W06
 BYTE   PEND 
// 011   ----------------------------------------
Label_5_01002273:
 BYTE   N11  Cn1  v108
 BYTE   N11  En4
 BYTE   W12
 BYTE   En1
 BYTE   N11  En4
 BYTE   W12
 BYTE   N05  Cn1
 BYTE   N05  En4
 BYTE   W06
 BYTE   Cn1
 BYTE   W06
 BYTE   N11  En1
 BYTE   N11  En4
 BYTE   W12
 BYTE   Cn1
 BYTE   N11  En4
 BYTE   W12
 BYTE   En1
 BYTE   N11  En4
 BYTE   W12
 BYTE   N05  Cn1
 BYTE   N05  En4
 BYTE   W06
 BYTE   Cn1
 BYTE   W06
 BYTE   En1
 BYTE   N05  En4
 BYTE   W06
 BYTE   En1
 BYTE   W06
 BYTE   PEND 
// 012   ----------------------------------------
Label_5_0100229F:
 BYTE   N05  Cn1  v108
 BYTE   W06
 BYTE   En1
 BYTE   W06
 BYTE   N11
 BYTE   W12
 BYTE   N05  Cn1
 BYTE   W06
 BYTE   N02  En1
 BYTE   W03
 BYTE   En1
 BYTE   W03
 BYTE   N05
 BYTE   W06
 BYTE   En1
 BYTE   W06
 BYTE   N11  Cn1
 BYTE   N11  En4
 BYTE   N11  Cs2
 BYTE   N11  An2
 BYTE   W12
 BYTE   En1
 BYTE   N11  En4
 BYTE   W12
 BYTE   N05  Cn1
 BYTE   N05  En4
 BYTE   W06
 BYTE   Cn1
 BYTE   W06
 BYTE   En1
 BYTE   N05  En4
 BYTE   W06
 BYTE   Cn1
 BYTE   W06
 BYTE   PEND 
// 013   ----------------------------------------
 BYTE   PATT
  POIN2 Label_5_0100221A
// 014   ----------------------------------------
 BYTE   PATT
  POIN2 Label_5_01002246
// 015   ----------------------------------------
 BYTE   PATT
  POIN2 Label_5_0100221A
// 016   ----------------------------------------
Label_5_010022DD:
 BYTE   N02  En1  v108
 BYTE   N02  Gn2
 BYTE   W03
 BYTE   En1
 BYTE   W03
 BYTE   N05  Cn1
 BYTE   W06
 BYTE   En1
 BYTE   W06
 BYTE   En1
 BYTE   W06
 BYTE   N11  Cn1
 BYTE   N11  En4
 BYTE   N11  Gn2
 BYTE   W12
 BYTE   N05  En1
 BYTE   W06
 BYTE   En1
 BYTE   W06
 BYTE   N20  Cn1
 BYTE   N20  Cs2
 BYTE   N20  An2
 BYTE   W24
 BYTE   N11  En1
 BYTE   N11  En4
 BYTE   W12
 BYTE   Cn1
 BYTE   W12
 BYTE   PEND 
// 017   ----------------------------------------
 BYTE   PATT
  POIN2 Label_5_0100215C
// 018   ----------------------------------------
 BYTE   PATT
  POIN2 Label_5_01002173
// 019   ----------------------------------------
 BYTE   PATT
  POIN2 Label_5_0100218C
// 020   ----------------------------------------
Label_5_01002316:
 BYTE   N02  En1  v108
 BYTE   W03
 BYTE   En1
 BYTE   W03
 BYTE   N05  Cn1
 BYTE   W06
 BYTE   En1
 BYTE   W06
 BYTE   En1
 BYTE   W06
 BYTE   N11
 BYTE   W12
 BYTE   N05
 BYTE   W06
 BYTE   En1
 BYTE   W06
 BYTE   N20  Cn1
 BYTE   N20  Cs2
 BYTE   N20  An2
 BYTE   W24
 BYTE   N11  En1
 BYTE   N11  En4
 BYTE   W12
 BYTE   Cn1
 BYTE   W12
 BYTE   PEND 
// 021   ----------------------------------------
 BYTE   PATT
  POIN2 Label_5_0100215C
// 022   ----------------------------------------
 BYTE   PATT
  POIN2 Label_5_01002173
// 023   ----------------------------------------
 BYTE   PATT
  POIN2 Label_5_0100218C
// 024   ----------------------------------------
Label_5_01002347:
 BYTE   N02  En1  v108
 BYTE   W03
 BYTE   En1
 BYTE   W03
 BYTE   N05  Cn1
 BYTE   W06
 BYTE   En1
 BYTE   W06
 BYTE   En1
 BYTE   W06
 BYTE   N11
 BYTE   W12
 BYTE   N05
 BYTE   W06
 BYTE   En1
 BYTE   W06
 BYTE   N20  Cn1
 BYTE   N20  En4
 BYTE   N20  Cs2
 BYTE   N20  An2
 BYTE   W24
 BYTE   N11  En1
 BYTE   N11  En4
 BYTE   W12
 BYTE   Cn1
 BYTE   W12
 BYTE   PEND 
// 025   ----------------------------------------
 BYTE   PATT
  POIN2 Label_5_0100218C
// 026   ----------------------------------------
 BYTE   PATT
  POIN2 Label_5_01002173
// 027   ----------------------------------------
 BYTE   PATT
  POIN2 Label_5_0100218C
// 028   ----------------------------------------
Label_5_0100237A:
 BYTE   N05  En1  v108
 BYTE   W06
 BYTE   Cn1
 BYTE   W06
 BYTE   N11  En1
 BYTE   W12
 BYTE   En1
 BYTE   W12
 BYTE   En1
 BYTE   W12
 BYTE   N20  Cn1
 BYTE   N20  En4
 BYTE   N20  Cs2
 BYTE   N20  An2
 BYTE   W24
 BYTE   N11  En1
 BYTE   N11  En4
 BYTE   W12
 BYTE   Cn1
 BYTE   W12
 BYTE   PEND 
// 029   ----------------------------------------
Label_5_01002398:
 BYTE   N20  Cn1  v108
 BYTE   N20  En4
 BYTE   W24
 BYTE   En1
 BYTE   N20  En4
 BYTE   W24
 BYTE   Cn1
 BYTE   N20  En4
 BYTE   N20  Cs2
 BYTE   N20  An2
 BYTE   W24
 BYTE   N11  En1
 BYTE   N11  En4
 BYTE   W12
 BYTE   Cn1
 BYTE   W12
 BYTE   PEND 
// 030   ----------------------------------------
Label_5_010023B2:
 BYTE   N20  Cn1  v108
 BYTE   N20  En4
 BYTE   W24
 BYTE   N11  En1
 BYTE   N11  En4
 BYTE   W12
 BYTE   Cn1
 BYTE   W12
 BYTE   N20
 BYTE   N20  En4
 BYTE   N20  Cs2
 BYTE   N20  An2
 BYTE   W24
 BYTE   N11  En1
 BYTE   N11  En4
 BYTE   W12
 BYTE   Cn1
 BYTE   W12
 BYTE   PEND 
// 031   ----------------------------------------
Label_5_010023CF:
 BYTE   N20  Cn1  v108
 BYTE   N20  En4
 BYTE   W24
 BYTE   N11  En1
 BYTE   N11  En4
 BYTE   W12
 BYTE   N05  Cn1
 BYTE   W06
 BYTE   Cn1
 BYTE   W06
 BYTE   En1
 BYTE   N05  En4
 BYTE   N05  Cs2
 BYTE   N05  An2
 BYTE   W06
 BYTE   Cn1
 BYTE   W06
 BYTE   N02  En1
 BYTE   W03
 BYTE   En1
 BYTE   W03
 BYTE   N05
 BYTE   W06
 BYTE   Cn1
 BYTE   N05  En4
 BYTE   W06
 BYTE   Cn1
 BYTE   W06
 BYTE   En1
 BYTE   W06
 BYTE   Cn1
 BYTE   W06
 BYTE   PEND 
// 032   ----------------------------------------
 BYTE   En1
 BYTE   N05  An2
 BYTE   W06
 BYTE   En1
 BYTE   W06
 BYTE   En1
 BYTE   W06
 BYTE   En1
 BYTE   W06
 BYTE   N02
 BYTE   N02  Cs2
 BYTE   W03
 BYTE   En1
 BYTE   W03
 BYTE   N05
 BYTE   W06
 BYTE   En1
 BYTE   W06
 BYTE   En1
 BYTE   W06
 BYTE   N20  Cn1
 BYTE   N20  Cs2
 BYTE   N20  An2
 BYTE   W24
 BYTE   N11  En1
 BYTE   N11  En4
 BYTE   W12
 BYTE   Cn1
 BYTE   W12
// 033   ----------------------------------------
 BYTE   PATT
  POIN2 Label_5_0100215C
// 034   ----------------------------------------
 BYTE   PATT
  POIN2 Label_5_01002173
// 035   ----------------------------------------
 BYTE   PATT
  POIN2 Label_5_0100218C
// 036   ----------------------------------------
 BYTE   PATT
  POIN2 Label_5_010021A2
// 037   ----------------------------------------
 BYTE   PATT
  POIN2 Label_5_0100215C
// 038   ----------------------------------------
 BYTE   PATT
  POIN2 Label_5_01002173
// 039   ----------------------------------------
 BYTE   PATT
  POIN2 Label_5_010021CD
// 040   ----------------------------------------
 BYTE   PATT
  POIN2 Label_5_010021EB
// 041   ----------------------------------------
 BYTE   PATT
  POIN2 Label_5_0100221A
// 042   ----------------------------------------
 BYTE   PATT
  POIN2 Label_5_01002246
// 043   ----------------------------------------
 BYTE   PATT
  POIN2 Label_5_01002273
// 044   ----------------------------------------
 BYTE   PATT
  POIN2 Label_5_0100229F
// 045   ----------------------------------------
 BYTE   PATT
  POIN2 Label_5_0100221A
// 046   ----------------------------------------
 BYTE   PATT
  POIN2 Label_5_01002246
// 047   ----------------------------------------
 BYTE   PATT
  POIN2 Label_5_0100221A
// 048   ----------------------------------------
 BYTE   PATT
  POIN2 Label_5_010022DD
// 049   ----------------------------------------
 BYTE   PATT
  POIN2 Label_5_0100215C
// 050   ----------------------------------------
 BYTE   PATT
  POIN2 Label_5_01002173
// 051   ----------------------------------------
 BYTE   PATT
  POIN2 Label_5_0100218C
// 052   ----------------------------------------
 BYTE   PATT
  POIN2 Label_5_01002316
// 053   ----------------------------------------
 BYTE   PATT
  POIN2 Label_5_0100215C
// 054   ----------------------------------------
 BYTE   PATT
  POIN2 Label_5_01002173
// 055   ----------------------------------------
 BYTE   PATT
  POIN2 Label_5_0100218C
// 056   ----------------------------------------
 BYTE   PATT
  POIN2 Label_5_01002347
// 057   ----------------------------------------
 BYTE   PATT
  POIN2 Label_5_0100218C
// 058   ----------------------------------------
 BYTE   PATT
  POIN2 Label_5_01002173
// 059   ----------------------------------------
 BYTE   PATT
  POIN2 Label_5_0100218C
// 060   ----------------------------------------
 BYTE   PATT
  POIN2 Label_5_0100237A
// 061   ----------------------------------------
 BYTE   PATT
  POIN2 Label_5_01002398
// 062   ----------------------------------------
 BYTE   PATT
  POIN2 Label_5_010023B2
// 063   ----------------------------------------
 BYTE   PATT
  POIN2 Label_5_010023CF
// 064   ----------------------------------------
 BYTE   N05  En1  v108
 BYTE   N05  An2
 BYTE   W06
 BYTE   En1
 BYTE   W06
 BYTE   En1
 BYTE   W06
 BYTE   En1
 BYTE   W06
 BYTE   N02
 BYTE   N02  Cs2
 BYTE   W03
 BYTE   En1
 BYTE   W03
 BYTE   N05
 BYTE   W06
 BYTE   En1
 BYTE   W06
 BYTE   En1
 BYTE   W06
 BYTE   N11  Cn1
 BYTE   N11  Cs2
 BYTE   GoTo
  POIN2 Label_5_0100214D
// 065   ----------------------------------------
 BYTE   W12
 BYTE   N05  En1
 BYTE   W06
 BYTE   En1
 BYTE   W06
 BYTE   N11
 BYTE   W12
 BYTE   Cn1
 BYTE   N11  An2
 BYTE   W12
 BYTE   N05  En1
 BYTE   W06
 BYTE   En1
 BYTE   W06
 BYTE   N11
 BYTE   W12
 BYTE   Cn1
 BYTE   N11  Cs2
 BYTE   W12
 BYTE   N05  En1
 BYTE   W06
 BYTE   En1
 BYTE   W06
// 066   ----------------------------------------
 BYTE   N11
 BYTE   W12
 BYTE   N05  Cn1
 BYTE   N05  An2
 BYTE   W06
 BYTE   En1
 BYTE   W06
 BYTE   En1
 BYTE   W06
 BYTE   En1
 BYTE   W06
 BYTE   Cn1
 BYTE   W06
 BYTE   Cn1
 BYTE   W06
 BYTE   En1
 BYTE   N05  Gn2
 BYTE   W06
 BYTE   En1
 BYTE   W06
 BYTE   N11  Cn1
 BYTE   W12
 BYTE   N02  En1
 BYTE   N02  Gn2
 BYTE   W03
 BYTE   En1
 BYTE   W03
 BYTE   N05
 BYTE   W06
 BYTE   En1
 BYTE   W06
 BYTE   En1
 BYTE   W06
// 067   ----------------------------------------
 BYTE   N02
 BYTE   N02  Cs2
 BYTE   W03
 BYTE   En1
 BYTE   W03
 BYTE   N05
 BYTE   W06
 BYTE   Cn1
 BYTE   W06
 BYTE   En1
 BYTE   W06
 BYTE   N11
 BYTE   W12
 BYTE   Cn1
 BYTE   N11  An2
 BYTE   W12
 BYTE   N20  En1
 BYTE   W24
 BYTE   N02
 BYTE   W03
 BYTE   En1
 BYTE   W03
 BYTE   N05
 BYTE   W06
 BYTE   N11
 BYTE   N11  Cs2
 BYTE   W12
// 068   ----------------------------------------
 BYTE   Cn1
 BYTE   N11  Gn2
 BYTE   W12
 BYTE   N05  En1
 BYTE   W06
 BYTE   En1
 BYTE   W06
 BYTE   N11
 BYTE   N11  En4
 BYTE   W12
 BYTE   Cn1
 BYTE   W12
 BYTE   N02  En1
 BYTE   N02  Gn2
 BYTE   W03
 BYTE   En1
 BYTE   W03
 BYTE   N05
 BYTE   W06
 BYTE   En1
 BYTE   W06
 BYTE   Cn1
 BYTE   W06
 BYTE   N02  En1
 BYTE   N02  Gn2
 BYTE   W03
 BYTE   En1
 BYTE   W03
 BYTE   N05  Cn1
 BYTE   W06
 BYTE   En1
 BYTE   W06
 BYTE   En1
 BYTE   W06
// 069   ----------------------------------------
 BYTE   N90
 BYTE   N90  En4
 BYTE   N90  Cs2
 BYTE   N90  Gn2
 BYTE   N90  An2
 BYTE   W48
 BYTE   W42
 BYTE   FINE

//******************************************************//
	ALIGN 4

Megaman6BlizzardManRandomWizard:
	BYTE	6	// NumTrks
	BYTE	0	// NumBlks
	BYTE	Megaman6BlizzardManRandomWizard_pri	// Priority
	BYTE	Megaman6BlizzardManRandomWizard_rev	// Reverb.
    
	POIN2	Megaman6BlizzardManRandomWizard_grp
    
	POIN2	Megaman6BlizzardManRandomWizard_001
	POIN2	Megaman6BlizzardManRandomWizard_002
	POIN2	Megaman6BlizzardManRandomWizard_003
	POIN2	Megaman6BlizzardManRandomWizard_004
	POIN2	Megaman6BlizzardManRandomWizard_005
	POIN2	Megaman6BlizzardManRandomWizard_006

	
