//Event file generated from Sappy .s format.
	#include "MPlayDef.event"

	#define	MegamanXBossRandomWizard_grp  voicegroup000
	#define	MegamanXBossRandomWizard_pri  0
	#define	MegamanXBossRandomWizard_rev  0
	#define	MegamanXBossRandomWizard_mvl  127
	#define	MegamanXBossRandomWizard_key  0
	#define	MegamanXBossRandomWizard_tbs  1
	#define	MegamanXBossRandomWizard_exg  0
	#define	MegamanXBossRandomWizard_cmp  1

	// .rodata
	//	MegamanXBossRandomWizard
	ALIGN 4


//**************** Track 1 (Midi-Chn.0) ****************//

MegamanXBossRandomWizard_001:
// 000   ----------------------------------------
 BYTE   KEYSH   MegamanXBossRandomWizard_key+0
 BYTE   TEMPO   174*MegamanXBossRandomWizard_tbs/2
 BYTE   VOICE   104
 BYTE   VOL   40*MegamanXBossRandomWizard_mvl/mxv
 BYTE   PAN   c_v+0
 BYTE   N11  An3  v092
 BYTE   W12
 BYTE   N11
 BYTE   W12
 BYTE   En4
 BYTE   N11  An4
 BYTE   W12
 BYTE   An3
 BYTE   W12
 BYTE   N11
 BYTE   W12
 BYTE   En4
 BYTE   N11  Gs4
 BYTE   W12
 BYTE   An3
 BYTE   W12
 BYTE   N11
 BYTE   W12
// 001   ----------------------------------------
Label_0_01000020:
 BYTE   N11  En4  v092
 BYTE   N11  Gn4
 BYTE   W12
 BYTE   An3
 BYTE   W12
 BYTE   N11
 BYTE   W12
 BYTE   En4
 BYTE   N11  Fs4
 BYTE   W12
 BYTE   An3
 BYTE   W12
 BYTE   N11
 BYTE   W12
 BYTE   N11
 BYTE   W12
 BYTE   Dn4
 BYTE   N11  Fn4
 BYTE   W12
 BYTE   PEND 
// 002   ----------------------------------------
Label_0_01000039:
 BYTE   N11  An3  v092
 BYTE   W12
 BYTE   N11
 BYTE   W12
 BYTE   En4
 BYTE   N11  An4
 BYTE   W12
 BYTE   An3
 BYTE   W12
 BYTE   N11
 BYTE   W12
 BYTE   En4
 BYTE   N11  Gs4
 BYTE   W12
 BYTE   An3
 BYTE   W12
 BYTE   N11
 BYTE   W12
 BYTE   PEND 
 BYTE   PATT
  POIN2 Label_0_01000020
// 003   ----------------------------------------
Label_0_01000055:
 BYTE   N11  Dn4  v092
 BYTE   W12
 BYTE   N11
 BYTE   W12
 BYTE   An4
 BYTE   N11  Dn5
 BYTE   W12
 BYTE   Dn4
 BYTE   W12
 BYTE   N11
 BYTE   W12
 BYTE   An4
 BYTE   N11  Cs5
 BYTE   W12
 BYTE   Dn4
 BYTE   W12
 BYTE   N11
 BYTE   W12
// 004   ----------------------------------------
 BYTE   An4
 BYTE   N11  Cn5
 BYTE   W12
 BYTE   Dn4
 BYTE   W12
 BYTE   N11
 BYTE   W12
 BYTE   An4
 BYTE   N11  Bn4
 BYTE   W12
 BYTE   Dn4
 BYTE   W12
 BYTE   N11
 BYTE   W12
 BYTE   N11
 BYTE   W12
 BYTE   Gn4
 BYTE   N11  As4
 BYTE   W12
 BYTE   PATT
  POIN2 Label_0_01000039
 BYTE   PATT
  POIN2 Label_0_01000020
// 005   ----------------------------------------
Label_0_0100008B:
 BYTE   N05  An4  v092
 BYTE   W06
 BYTE   Cn5
 BYTE   W06
 BYTE   En5
 BYTE   W06
 BYTE   An4
 BYTE   W06
 BYTE   Cn5
 BYTE   W06
 BYTE   En5
 BYTE   W06
 BYTE   An4
 BYTE   W06
 BYTE   Cn5
 BYTE   W06
 BYTE   En5
 BYTE   W06
 BYTE   An4
 BYTE   W06
 BYTE   Cn5
 BYTE   W06
 BYTE   En5
 BYTE   W06
 BYTE   An4
 BYTE   W06
 BYTE   Cn5
 BYTE   W06
 BYTE   En5
 BYTE   W06
 BYTE   Cn5
 BYTE   W06
 BYTE   PEND 
// 006   ----------------------------------------
 BYTE   Gs4
 BYTE   W06
 BYTE   Cn5
 BYTE   W06
 BYTE   Ds5
 BYTE   W06
 BYTE   Gs4
 BYTE   W06
 BYTE   Cn5
 BYTE   W06
 BYTE   Ds5
 BYTE   W06
 BYTE   Gs4
 BYTE   W06
 BYTE   Cn5
 BYTE   W06
 BYTE   Ds5
 BYTE   W06
 BYTE   Gs4
 BYTE   W06
 BYTE   Cn5
 BYTE   W06
 BYTE   Ds5
 BYTE   W06
 BYTE   Gs4
 BYTE   W06
 BYTE   Cn5
 BYTE   W06
 BYTE   Ds5
 BYTE   W06
 BYTE   Cn5
 BYTE   W06
// 007   ----------------------------------------
 BYTE   Gn4
 BYTE   W06
 BYTE   Bn4
 BYTE   W06
 BYTE   Dn5
 BYTE   W06
 BYTE   Gn4
 BYTE   W06
 BYTE   Bn4
 BYTE   W06
 BYTE   Dn5
 BYTE   W06
 BYTE   Gn4
 BYTE   W06
 BYTE   Bn4
 BYTE   W06
 BYTE   Dn5
 BYTE   W06
 BYTE   Gn4
 BYTE   W06
 BYTE   Bn4
 BYTE   W06
 BYTE   Dn5
 BYTE   W06
 BYTE   Gn4
 BYTE   W06
 BYTE   Bn4
 BYTE   W06
 BYTE   Dn5
 BYTE   W06
 BYTE   Bn4
 BYTE   W06
 BYTE   PATT
  POIN2 Label_0_0100008B
// 008   ----------------------------------------
 BYTE   N11  En4  v092
 BYTE   N11  Cn5
 BYTE   W12
 BYTE   En4
 BYTE   N11  Cn5
 BYTE   W12
 BYTE   En4
 BYTE   N11  Cn5
 BYTE   W12
 BYTE   En4
 BYTE   N11  Cn5
 BYTE   W12
 BYTE   Fn4
 BYTE   N11  Cs5
 BYTE   W12
 BYTE   Fn4
 BYTE   N11  Cs5
 BYTE   W12
 BYTE   Fn4
 BYTE   N11  Cs5
 BYTE   W12
 BYTE   Fn4
 BYTE   N11  Cs5
 BYTE   W12
// 009   ----------------------------------------
 BYTE   Fs4
 BYTE   N11  Dn5
 BYTE   W12
 BYTE   Fs4
 BYTE   N11  Dn5
 BYTE   W12
 BYTE   Fs4
 BYTE   N11  Dn5
 BYTE   W12
 BYTE   Fs4
 BYTE   N11  Dn5
 BYTE   W12
 BYTE   Gn4
 BYTE   N11  Ds5
 BYTE   W12
 BYTE   Gn4
 BYTE   N11  Ds5
 BYTE   W12
 BYTE   Gn4
 BYTE   N11  Ds5
 BYTE   W12
 BYTE   Gn4
 BYTE   N11  Ds5
 BYTE   W12
// 010   ----------------------------------------
 BYTE   Fs4
 BYTE   N11  Dn5
 BYTE   W12
 BYTE   Fs4
 BYTE   N11  Dn5
 BYTE   W12
 BYTE   Fs4
 BYTE   N11  Dn5
 BYTE   W12
 BYTE   Fs4
 BYTE   N11  Dn5
 BYTE   W12
 BYTE   Fn4
 BYTE   N11  Cs5
 BYTE   W12
 BYTE   Fn4
 BYTE   N11  Cs5
 BYTE   W12
 BYTE   Fn4
 BYTE   N11  Cs5
 BYTE   W12
 BYTE   Fn4
 BYTE   N11  Cs5
 BYTE   W12
// 011   ----------------------------------------
 BYTE   En4
 BYTE   N11  Cn5
 BYTE   W12
 BYTE   En4
 BYTE   N11  Cn5
 BYTE   W12
 BYTE   En4
 BYTE   N11  Cn5
 BYTE   W12
 BYTE   En4
 BYTE   N11  Cn5
 BYTE   W12
 BYTE   Ds4
 BYTE   N11  Bn4
 BYTE   W12
 BYTE   Ds4
 BYTE   N11  Bn4
 BYTE   W12
 BYTE   Ds4
 BYTE   N11  Bn4
 BYTE   W12
 BYTE   Dn4
 BYTE   N11  An4
 BYTE   W12
// 012   ----------------------------------------
 BYTE   N11
 BYTE   W12
 BYTE   Gn4
 BYTE   W12
 BYTE   En4
 BYTE   W12
 BYTE   Fn5
 BYTE   W12
 BYTE   En5
 BYTE   W12
 BYTE   Dn5
 BYTE   W12
 BYTE   N20  Cn5
 BYTE   W96
// 013   ----------------------------------------
 BYTE   W24
 BYTE   N11  En4
 BYTE   W12
 BYTE   Gn4
 BYTE   W12
 BYTE   An4
 BYTE   W12
 BYTE   Bn4
 BYTE   W12
 BYTE   En5
 BYTE   W12
 BYTE   Bn4
 BYTE   W12
// 014   ----------------------------------------
 BYTE   N20  An4
 BYTE   W96
// 015   ----------------------------------------
 BYTE   W24
 BYTE   PATT
  POIN2 Label_0_01000039
 BYTE   PATT
  POIN2 Label_0_01000020
 BYTE   PATT
  POIN2 Label_0_01000039
 BYTE   PATT
  POIN2 Label_0_01000020
// 016   ----------------------------------------
 BYTE   GoTo
  POIN2 Label_0_01000055
 BYTE   FINE

//**************** Track 2 (Midi-Chn.1) ****************//

MegamanXBossRandomWizard_002:
// 000   ----------------------------------------
 BYTE   KEYSH   MegamanXBossRandomWizard_key+0
 BYTE   VOICE   61
 BYTE   VOL   40*MegamanXBossRandomWizard_mvl/mxv
 BYTE   PAN   c_v+0
 BYTE   TIE  An2  v092
 BYTE   W96
// 001   ----------------------------------------
 BYTE   W80
 BYTE   W03
 BYTE   EOT
 BYTE   W01
 BYTE   N05  Gn2
 BYTE   W06
 BYTE   Gs2
 BYTE   W06
// 002   ----------------------------------------
 BYTE   TIE  An2
 BYTE   W96
// 003   ----------------------------------------
 BYTE   W80
 BYTE   W03
 BYTE   EOT
 BYTE   W01
 BYTE   N05  Dn3
 BYTE   W06
 BYTE   En3
 BYTE   W06
// 004   ----------------------------------------
Label_1_55E3BB:
 BYTE   TIE  Fn3  v092
 BYTE   W96
// 005   ----------------------------------------
 BYTE   W80
 BYTE   W03
 BYTE   EOT
 BYTE   W01
 BYTE   N05  En3
 BYTE   W06
 BYTE   Fn3
 BYTE   W06
// 006   ----------------------------------------
 BYTE   TIE  An2
 BYTE   W96
// 007   ----------------------------------------
 BYTE   W66
 BYTE   EOT
 BYTE   W06
 BYTE   N20  Bn2
 BYTE   W24
// 008   ----------------------------------------
 BYTE   N17  An3
 BYTE   W18
 BYTE   Gn3
 BYTE   W18
 BYTE   N20  En3
 BYTE   W24
 BYTE   N11  Gn3
 BYTE   W12
 BYTE   En3
 BYTE   W12
 BYTE   Cn3
 BYTE   W12
// 009   ----------------------------------------
 BYTE   N17  Dn3
 BYTE   W18
 BYTE   En3
 BYTE   W18
 BYTE   N20  Cn3
 BYTE   W60
// 010   ----------------------------------------
 BYTE   N17  Gn2
 BYTE   W18
 BYTE   Bn2
 BYTE   W18
 BYTE   N20  Cn3
 BYTE   W24
 BYTE   N11  Fn3
 BYTE   W12
 BYTE   Dn3
 BYTE   W12
 BYTE   Gn2
 BYTE   W12
// 011   ----------------------------------------
 BYTE   N17  An2
 BYTE   W18
 BYTE   En3
 BYTE   W18
 BYTE   N20  An3
 BYTE   W60
// 012   ----------------------------------------
 BYTE   TIE
 BYTE   W96
// 013   ----------------------------------------
 BYTE   W96
// 014   ----------------------------------------
 BYTE   W96
// 015   ----------------------------------------
 BYTE   W90
 BYTE   EOT
 BYTE   W06
// 016   ----------------------------------------
 BYTE   N11  Dn4
 BYTE   W12
 BYTE   Cn4
 BYTE   W12
 BYTE   Bn3
 BYTE   W12
 BYTE   Cn4
 BYTE   W12
 BYTE   Bn3
 BYTE   W12
 BYTE   Gn3
 BYTE   W12
 BYTE   N20  An3
 BYTE   W96
// 017   ----------------------------------------
 BYTE   W96
// 018   ----------------------------------------
 BYTE   W72
 BYTE   N42  Gn3
 BYTE   W48
// 019   ----------------------------------------
 BYTE   TIE  An2
 BYTE   W96
// 020   ----------------------------------------
 BYTE   W80
 BYTE   W03
 BYTE   EOT
 BYTE   W01
 BYTE   N05  Gn2
 BYTE   W06
 BYTE   Gs2
 BYTE   W06
// 021   ----------------------------------------
 BYTE   TIE  An2
 BYTE   W96
// 022   ----------------------------------------
 BYTE   W80
 BYTE   W03
 BYTE   EOT
 BYTE   W01
 BYTE   N05  Dn3
 BYTE   W06
 BYTE   En3
 BYTE   W06
// 023   ----------------------------------------
 BYTE   GoTo
  POIN2 Label_1_55E3BB
 BYTE   FINE

//**************** Track 3 (Midi-Chn.2) ****************//

MegamanXBossRandomWizard_003:
// 000   ----------------------------------------
 BYTE   KEYSH   MegamanXBossRandomWizard_key+0
 BYTE   VOICE   30
 BYTE   VOL   40*MegamanXBossRandomWizard_mvl/mxv
 BYTE   PAN   c_v+0
 BYTE   W96
// 001   ----------------------------------------
 BYTE   W96
// 002   ----------------------------------------
 BYTE   W96
// 003   ----------------------------------------
 BYTE   W96
// 004   ----------------------------------------
Label_2_55E0B8:
 BYTE   W96
// 005   ----------------------------------------
 BYTE   W96
// 006   ----------------------------------------
 BYTE   W96
// 007   ----------------------------------------
 BYTE   W96
// 008   ----------------------------------------
 BYTE   W96
// 009   ----------------------------------------
 BYTE   W96
// 010   ----------------------------------------
 BYTE   W96
// 011   ----------------------------------------
 BYTE   W96
// 012   ----------------------------------------
 BYTE   W96
// 013   ----------------------------------------
 BYTE   W96
// 014   ----------------------------------------
 BYTE   W96
// 015   ----------------------------------------
 BYTE   W96
// 016   ----------------------------------------
 BYTE   W72
 BYTE   W24
// 017   ----------------------------------------
 BYTE   N11  En3  v092
 BYTE   N11  Cn4
 BYTE   W12
 BYTE   N20  Dn3
 BYTE   N20  Bn3
 BYTE   W24
 BYTE   Cn3
 BYTE   N20  An3
 BYTE   W24
 BYTE   N23  Bn2
 BYTE   N23  Gn3
 BYTE   W12
 BYTE   W12
 BYTE   N11  Cn3
 BYTE   N11  An3
 BYTE   W12
// 018   ----------------------------------------
 BYTE   N66  Dn3
 BYTE   N66  An3
 BYTE   W72
 BYTE   W36
// 019   ----------------------------------------
 BYTE   N11
 BYTE   W12
 BYTE   Bn3
 BYTE   W12
 BYTE   Cn4
 BYTE   W12
 BYTE   Dn4
 BYTE   W12
 BYTE   Cn4
 BYTE   W12
 BYTE   Bn3
 BYTE   W12
 BYTE   Gn3
 BYTE   W12
 BYTE   TIE  An3
 BYTE   W96
// 020   ----------------------------------------
 BYTE   W90
 BYTE   EOT
 BYTE   W06
// 021   ----------------------------------------
 BYTE   W96
// 022   ----------------------------------------
 BYTE   W96
// 023   ----------------------------------------
 BYTE   GoTo
  POIN2 Label_2_55E0B8
 BYTE   FINE

//**************** Track 4 (Midi-Chn.3) ****************//

MegamanXBossRandomWizard_004:
// 000   ----------------------------------------
 BYTE   KEYSH   MegamanXBossRandomWizard_key+0
 BYTE   VOICE   36
 BYTE   VOL   40*MegamanXBossRandomWizard_mvl/mxv
 BYTE   PAN   c_v+0
 BYTE   N11  An0  v092
 BYTE   W12
 BYTE   N11
 BYTE   W12
 BYTE   Cn1
 BYTE   W12
 BYTE   An0
 BYTE   W12
 BYTE   Dn1
 BYTE   W12
 BYTE   Cn1
 BYTE   W12
 BYTE   Gn0
 BYTE   W12
 BYTE   An0
 BYTE   W12
// 001   ----------------------------------------
Label_3_55E677:
 BYTE   N11  Dn1  v092
 BYTE   W12
 BYTE   Cn1
 BYTE   W12
 BYTE   Gn0
 BYTE   W12
 BYTE   An0
 BYTE   W12
 BYTE   Ds1
 BYTE   W12
 BYTE   Dn1
 BYTE   W12
 BYTE   N05  Cn1
 BYTE   W06
 BYTE   Cn2
 BYTE   W06
 BYTE   Gn0
 BYTE   W06
 BYTE   Gs0
 BYTE   W06
 BYTE   PEND 
// 002   ----------------------------------------
Label_3_55E68F:
 BYTE   N11  An0  v092
 BYTE   W12
 BYTE   N11
 BYTE   W12
 BYTE   Cn1
 BYTE   W12
 BYTE   An0
 BYTE   W12
 BYTE   Dn1
 BYTE   W12
 BYTE   Cn1
 BYTE   W12
 BYTE   Gn0
 BYTE   W12
 BYTE   An0
 BYTE   W12
 BYTE   PEND 
// 003   ----------------------------------------
Label_3_55E6A2:
 BYTE   N11  Dn1  v092
 BYTE   W12
 BYTE   Cn1
 BYTE   W12
 BYTE   Gn0
 BYTE   W12
 BYTE   An0
 BYTE   W12
 BYTE   Ds1
 BYTE   W12
 BYTE   Dn1
 BYTE   W12
 BYTE   Cn1
 BYTE   W12
 BYTE   Gn0
 BYTE   W12
 BYTE   PEND 
// 004   ----------------------------------------
Label_3_55E6B5:
 BYTE   N11  Dn1  v092
 BYTE   W12
 BYTE   N11
 BYTE   W12
 BYTE   Fn1
 BYTE   W12
 BYTE   Dn1
 BYTE   W12
 BYTE   Gn1
 BYTE   W12
 BYTE   Fn1
 BYTE   W12
 BYTE   Cn1
 BYTE   W12
 BYTE   Dn1
 BYTE   W12
// 005   ----------------------------------------
 BYTE   Gn1
 BYTE   W12
 BYTE   Fn1
 BYTE   W12
 BYTE   Cn1
 BYTE   W12
 BYTE   Dn1
 BYTE   W12
 BYTE   Gs1
 BYTE   W12
 BYTE   Gn1
 BYTE   W12
 BYTE   Fn1
 BYTE   W12
 BYTE   Cn1
 BYTE   W12
 BYTE   PATT
  POIN2 Label_3_55E68F
 BYTE   PATT
  POIN2 Label_3_55E6A2
// 006   ----------------------------------------
 BYTE   N17  An0  v092
 BYTE   W18
 BYTE   Cn1
 BYTE   W18
 BYTE   N20  Ds1
 BYTE   W24
 BYTE   N11  Dn1
 BYTE   W12
 BYTE   Cn1
 BYTE   W12
 BYTE   Gn0
 BYTE   W12
// 007   ----------------------------------------
 BYTE   N17  An0
 BYTE   W18
 BYTE   Cn1
 BYTE   W18
 BYTE   N20  An0
 BYTE   W60
// 008   ----------------------------------------
 BYTE   N17  Gn0
 BYTE   W18
 BYTE   Bn0
 BYTE   W18
 BYTE   N20  Dn1
 BYTE   W24
 BYTE   N11  Gn0
 BYTE   W12
 BYTE   Dn1
 BYTE   W12
 BYTE   Gn0
 BYTE   W12
// 009   ----------------------------------------
 BYTE   N17  An0
 BYTE   W18
 BYTE   Cn1
 BYTE   W18
 BYTE   N20  An0
 BYTE   W42
 BYTE   N05  En1
 BYTE   W06
 BYTE   Gn1
 BYTE   W06
 BYTE   Gs1
 BYTE   W06
// 010   ----------------------------------------
Label_3_55E717:
 BYTE   N11  An1  v092
 BYTE   W12
 BYTE   N11
 BYTE   W12
 BYTE   N05
 BYTE   W06
 BYTE   N11
 BYTE   W12
 BYTE   N11
 BYTE   W12
 BYTE   N11
 BYTE   W12
 BYTE   N05
 BYTE   W06
 BYTE   N11
 BYTE   W12
 BYTE   N11
 BYTE   W12
 BYTE   PEND 
 BYTE   PATT
  POIN2 Label_3_55E717
 BYTE   PATT
  POIN2 Label_3_55E717
// 011   ----------------------------------------
 BYTE   N11  An1  v092
 BYTE   W12
 BYTE   N11
 BYTE   W12
 BYTE   N05
 BYTE   W06
 BYTE   N11
 BYTE   W12
 BYTE   N11
 BYTE   W12
 BYTE   N11
 BYTE   W12
 BYTE   N05
 BYTE   W06
 BYTE   N11  Cn2
 BYTE   W12
 BYTE   En2
 BYTE   W12
// 012   ----------------------------------------
 BYTE   Dn2
 BYTE   W12
 BYTE   Cn2
 BYTE   W12
 BYTE   Bn1
 BYTE   W12
 BYTE   Cn2
 BYTE   W12
 BYTE   Bn1
 BYTE   W12
 BYTE   Gn1
 BYTE   W12
 BYTE   N20  An1
 BYTE   W96
// 013   ----------------------------------------
 BYTE   W24
 BYTE   N11  Dn2
 BYTE   W12
 BYTE   Cn2
 BYTE   W12
 BYTE   Gn1
 BYTE   W12
 BYTE   An1
 BYTE   W12
 BYTE   Cn2
 BYTE   W12
 BYTE   Bn1
 BYTE   W12
// 014   ----------------------------------------
 BYTE   N20  An1
 BYTE   W96
// 015   ----------------------------------------
 BYTE   W12
 BYTE   N05  Gn0
 BYTE   W06
 BYTE   Gs0
 BYTE   W06
 BYTE   PATT
  POIN2 Label_3_55E68F
 BYTE   PATT
  POIN2 Label_3_55E677
 BYTE   PATT
  POIN2 Label_3_55E68F
 BYTE   PATT
  POIN2 Label_3_55E6A2
// 016   ----------------------------------------
 BYTE   GoTo
  POIN2 Label_3_55E6B5
 BYTE   FINE

//**************** Track 5 (Midi-Chn.4) ****************//

MegamanXBossRandomWizard_005:
// 000   ----------------------------------------
 BYTE   KEYSH   MegamanXBossRandomWizard_key+0
 BYTE   VOICE   40
 BYTE   VOL   40*MegamanXBossRandomWizard_mvl/mxv
 BYTE   PAN   c_v+0
 BYTE   N20  An2  v092
 BYTE   N20  An3
 BYTE   W96
// 001   ----------------------------------------
 BYTE   W96
// 002   ----------------------------------------
 BYTE   An2
 BYTE   N20  An3
 BYTE   W96
// 003   ----------------------------------------
 BYTE   W96
// 004   ----------------------------------------
Label_4_55E450:
 BYTE   N20  Fn2  v092
 BYTE   N20  Fn3
 BYTE   W96
// 005   ----------------------------------------
 BYTE   W96
// 006   ----------------------------------------
 BYTE   An2
 BYTE   N20  An3
 BYTE   W96
// 007   ----------------------------------------
 BYTE   W96
// 008   ----------------------------------------
 BYTE   An2
 BYTE   N20  An3
 BYTE   W96
// 009   ----------------------------------------
 BYTE   W84
 BYTE   N11  Gn2
 BYTE   N11  Gn3
 BYTE   W12
// 010   ----------------------------------------
 BYTE   N20  Gn1
 BYTE   N20  Gn2
 BYTE   W96
// 011   ----------------------------------------
 BYTE   W84
 BYTE   N11  An2
 BYTE   N11  An3
 BYTE   W12
// 012   ----------------------------------------
 BYTE   N20  An2
 BYTE   N20  An3
 BYTE   W96
// 013   ----------------------------------------
 BYTE   W96
// 014   ----------------------------------------
 BYTE   W96
// 015   ----------------------------------------
 BYTE   W96
// 016   ----------------------------------------
 BYTE   W72
 BYTE   W96
// 017   ----------------------------------------
 BYTE   W96
// 018   ----------------------------------------
 BYTE   W96
// 019   ----------------------------------------
 BYTE   W24
 BYTE   An2
 BYTE   N20  An3
 BYTE   W96
// 020   ----------------------------------------
 BYTE   W96
// 021   ----------------------------------------
 BYTE   An2
 BYTE   N20  An3
 BYTE   W96
// 022   ----------------------------------------
 BYTE   W96
// 023   ----------------------------------------
 BYTE   GoTo
  POIN2 Label_4_55E450
 BYTE   FINE

//**************** Track 6 (Midi-Chn.5) ****************//

MegamanXBossRandomWizard_006:
// 000   ----------------------------------------
 BYTE   KEYSH   MegamanXBossRandomWizard_key+0
 BYTE   VOICE   124
 BYTE   VOL   40*MegamanXBossRandomWizard_mvl/mxv
 BYTE   PAN   c_v+0
 BYTE   N11  Cn1  v092
 BYTE   W12
 BYTE   N11
 BYTE   W12
 BYTE   En1
 BYTE   W12
 BYTE   Cn1
 BYTE   W12
 BYTE   N11
 BYTE   W12
 BYTE   N11
 BYTE   W12
 BYTE   En1
 BYTE   W12
 BYTE   Cn1
 BYTE   W12
// 001   ----------------------------------------
Label_5_010001CA:
 BYTE   N11  Cn1  v092
 BYTE   W12
 BYTE   N11
 BYTE   W12
 BYTE   En1
 BYTE   W12
 BYTE   N05
 BYTE   W06
 BYTE   N05
 BYTE   W06
 BYTE   N11  Cn1
 BYTE   W12
 BYTE   N11
 BYTE   W12
 BYTE   En1
 BYTE   W12
 BYTE   Cn1
 BYTE   W12
 BYTE   PEND 
// 002   ----------------------------------------
Label_5_010001E0:
 BYTE   N11  Cn1  v092
 BYTE   W12
 BYTE   N11
 BYTE   W12
 BYTE   En1
 BYTE   W12
 BYTE   Cn1
 BYTE   W12
 BYTE   N11
 BYTE   W12
 BYTE   N11
 BYTE   W12
 BYTE   En1
 BYTE   W12
 BYTE   Cn1
 BYTE   W12
 BYTE   PEND 
// 003   ----------------------------------------
Label_5_010001F3:
 BYTE   N11  Cn1  v092
 BYTE   W12
 BYTE   N11
 BYTE   W12
 BYTE   En1
 BYTE   W12
 BYTE   N05
 BYTE   W06
 BYTE   N05
 BYTE   W06
 BYTE   N11  Cn1
 BYTE   W12
 BYTE   N11
 BYTE   W12
 BYTE   En1
 BYTE   W12
 BYTE   N05
 BYTE   W06
 BYTE   N05
 BYTE   W06
 BYTE   PEND 
// 004   ----------------------------------------
Label_5_0100020B:
 BYTE   PATT
  POIN2 Label_5_010001E0
 BYTE   PATT
  POIN2 Label_5_010001CA
 BYTE   PATT
  POIN2 Label_5_010001E0
 BYTE   PATT
  POIN2 Label_5_010001F3
 BYTE   PATT
  POIN2 Label_5_010001E0
 BYTE   PATT
  POIN2 Label_5_010001CA
 BYTE   PATT
  POIN2 Label_5_010001E0
 BYTE   PATT
  POIN2 Label_5_010001F3
 BYTE   PATT
  POIN2 Label_5_010001E0
 BYTE   PATT
  POIN2 Label_5_010001CA
 BYTE   PATT
  POIN2 Label_5_010001E0
 BYTE   PATT
  POIN2 Label_5_010001F3
// 005   ----------------------------------------
 BYTE   N11  Cn1  v092
 BYTE   W12
 BYTE   En1
 BYTE   W12
 BYTE   N11
 BYTE   W12
 BYTE   Cn1
 BYTE   W12
 BYTE   En1
 BYTE   W12
 BYTE   N11
 BYTE   W12
 BYTE   N90  Cn1
 BYTE   W96
// 006   ----------------------------------------
 BYTE   W24
 BYTE   N11  En1
 BYTE   W12
 BYTE   N11
 BYTE   W12
 BYTE   N11
 BYTE   W12
 BYTE   Cn1
 BYTE   W12
 BYTE   En1
 BYTE   W12
 BYTE   N11
 BYTE   W12
// 007   ----------------------------------------
 BYTE   N80  Cn1
 BYTE   W84
 BYTE   N05
 BYTE   W06
 BYTE   N05
 BYTE   W06
// 008   ----------------------------------------
 BYTE   N11  En1
 BYTE   W12
 BYTE   N05  Cn1
 BYTE   W06
 BYTE   N05
 BYTE   W06
 BYTE   PATT
  POIN2 Label_5_010001E0
 BYTE   PATT
  POIN2 Label_5_010001CA
 BYTE   PATT
  POIN2 Label_5_010001E0
 BYTE   PATT
  POIN2 Label_5_010001F3
// 009   ----------------------------------------
 BYTE   GoTo
  POIN2 Label_5_0100020B
 BYTE   FINE

//**************** Track 7 (Midi-Chn.6) ****************//

MegamanXBossRandomWizard_007:
// 000   ----------------------------------------
 BYTE   KEYSH   MegamanXBossRandomWizard_key+0
 BYTE   VOICE   124
 BYTE   VOL   40*MegamanXBossRandomWizard_mvl/mxv
 BYTE   PAN   c_v+0
 BYTE   N11  Fs1  v092
 BYTE   N11  As1
 BYTE   N11  Cs2
 BYTE   N11  Gn2
 BYTE   W12
 BYTE   Fs1
 BYTE   W12
 BYTE   As1
 BYTE   W12
 BYTE   Fs1
 BYTE   W12
 BYTE   N11
 BYTE   W12
 BYTE   N11
 BYTE   W12
 BYTE   As1
 BYTE   W12
 BYTE   Fs1
 BYTE   W12
// 001   ----------------------------------------
Label_6_010002B0:
 BYTE   N11  Fs1  v092
 BYTE   W12
 BYTE   N11
 BYTE   W12
 BYTE   As1
 BYTE   W12
 BYTE   Fs1
 BYTE   W12
 BYTE   N11
 BYTE   W12
 BYTE   N11
 BYTE   W12
 BYTE   As1
 BYTE   W12
 BYTE   Fs1
 BYTE   W12
 BYTE   PEND 
 BYTE   PATT
  POIN2 Label_6_010002B0
 BYTE   PATT
  POIN2 Label_6_010002B0
// 002   ----------------------------------------
Label_6_010002CD:
 BYTE   N11  Fs1  v092
 BYTE   N11  As1
 BYTE   N11  Cs2
 BYTE   N11  Gn2
 BYTE   W12
 BYTE   Fs1
 BYTE   W12
 BYTE   As1
 BYTE   W12
 BYTE   Fs1
 BYTE   W12
 BYTE   N11
 BYTE   W12
 BYTE   N11
 BYTE   W12
 BYTE   As1
 BYTE   W12
 BYTE   Fs1
 BYTE   W12
 BYTE   PEND 
 BYTE   PATT
  POIN2 Label_6_010002B0
 BYTE   PATT
  POIN2 Label_6_010002B0
 BYTE   PATT
  POIN2 Label_6_010002B0
 BYTE   PATT
  POIN2 Label_6_010002CD
 BYTE   PATT
  POIN2 Label_6_010002B0
 BYTE   PATT
  POIN2 Label_6_010002B0
 BYTE   PATT
  POIN2 Label_6_010002B0
 BYTE   PATT
  POIN2 Label_6_010002CD
 BYTE   PATT
  POIN2 Label_6_010002B0
 BYTE   PATT
  POIN2 Label_6_010002B0
 BYTE   PATT
  POIN2 Label_6_010002B0
// 003   ----------------------------------------
 BYTE   N11  As1  v092
 BYTE   N11  Cs2
 BYTE   N11  Gn2
 BYTE   W12
 BYTE   Fs1
 BYTE   W12
 BYTE   N11
 BYTE   W12
 BYTE   As1
 BYTE   N11  Cs2
 BYTE   N11  Gn2
 BYTE   W12
 BYTE   Fs1
 BYTE   W12
 BYTE   N11
 BYTE   W12
 BYTE   N20  As1
 BYTE   N20  Cs2
 BYTE   N20  Gn2
 BYTE   W24
// 004   ----------------------------------------
 BYTE   As1
 BYTE   W24
 BYTE   N20
 BYTE   W24
 BYTE   N20
 BYTE   W24
 BYTE   N20
 BYTE   W24
// 005   ----------------------------------------
 BYTE   N11
 BYTE   N11  Cs2
 BYTE   N11  Gn2
 BYTE   W12
 BYTE   Fs1
 BYTE   W12
 BYTE   N11
 BYTE   W12
 BYTE   As1
 BYTE   N11  Cs2
 BYTE   N11  Gn2
 BYTE   W12
 BYTE   Fs1
 BYTE   W12
 BYTE   N11
 BYTE   W12
 BYTE   N20  As1
 BYTE   N20  Cs2
 BYTE   N20  Gn2
 BYTE   W24
// 006   ----------------------------------------
 BYTE   As1
 BYTE   W24
 BYTE   N20
 BYTE   W24
 BYTE   N20
 BYTE   W24
 BYTE   N20
 BYTE   W24
 BYTE   PATT
  POIN2 Label_6_010002CD
 BYTE   PATT
  POIN2 Label_6_010002B0
 BYTE   PATT
  POIN2 Label_6_010002B0
 BYTE   PATT
  POIN2 Label_6_010002B0
// 007   ----------------------------------------
 BYTE   GoTo
  POIN2 Label_6_010002CD
 BYTE   FINE

//******************************************************//
	ALIGN 4

MegamanXBossRandomWizard:
	BYTE	7	// NumTrks
	BYTE	0	// NumBlks
	BYTE	MegamanXBossRandomWizard_pri	// Priority
	BYTE	MegamanXBossRandomWizard_rev	// Reverb.
    
	POIN2	MegamanXBossRandomWizard_grp
    
	POIN2	MegamanXBossRandomWizard_001
	POIN2	MegamanXBossRandomWizard_002
	POIN2	MegamanXBossRandomWizard_003
	POIN2	MegamanXBossRandomWizard_004
	POIN2	MegamanXBossRandomWizard_005
	POIN2	MegamanXBossRandomWizard_006
	POIN2	MegamanXBossRandomWizard_007

	
