//Event file generated from Sappy .s format.
	#include "MPlayDef.event"

	#define	Megaman2WilyStage7743_grp  voicegroup000
	#define	Megaman2WilyStage7743_pri  0
	#define	Megaman2WilyStage7743_rev  128
	#define	Megaman2WilyStage7743_mvl  127
	#define	Megaman2WilyStage7743_key  0
	#define	Megaman2WilyStage7743_tbs  1
	#define	Megaman2WilyStage7743_exg  0
	#define	Megaman2WilyStage7743_cmp  1

	// .rodata
	//	Megaman2WilyStage7743
	ALIGN 4


//**************** Track 1 (Midi-Chn.0) ****************//

Megaman2WilyStage7743_001:
// 000   ----------------------------------------
 BYTE   KEYSH   Megaman2WilyStage7743_key+0
Label_0_0190482E:
 BYTE   TEMPO   174*Megaman2WilyStage7743_tbs/2
 BYTE   VOICE   80
 BYTE   PAN   c_v+0
 BYTE   VOL   70*Megaman2WilyStage7743_mvl/mxv
 BYTE   N09  Cs3  v080
 BYTE   W12
 BYTE   N04  En3
 BYTE   W06
 BYTE   N04
 BYTE   W06
 BYTE   N09
 BYTE   W12
 BYTE   N04
 BYTE   W06
 BYTE   N04
 BYTE   W06
 BYTE   N11
 BYTE   W12
 BYTE   Cs3
 BYTE   W24
 BYTE   N04
 BYTE   W06
 BYTE   N04
 BYTE   W06
// 001   ----------------------------------------
Label_0_0190484D:
 BYTE   N09  En3  v080
 BYTE   W12
 BYTE   N04
 BYTE   W06
 BYTE   N04
 BYTE   W06
 BYTE   N09
 BYTE   W12
 BYTE   Cs3
 BYTE   W24
 BYTE   Gs3
 BYTE   W12
 BYTE   Fs3
 BYTE   W12
 BYTE   Gs3
 BYTE   W12
 BYTE   PEND 
// 002   ----------------------------------------
Label_0_01904860:
 BYTE   W12
 BYTE   N04  En3  v080
 BYTE   W06
 BYTE   N04
 BYTE   W06
 BYTE   N09
 BYTE   W12
 BYTE   N04
 BYTE   W06
 BYTE   N04
 BYTE   W06
 BYTE   N09
 BYTE   W12
 BYTE   Cs3
 BYTE   W24
 BYTE   Gs3
 BYTE   W12
 BYTE   PEND 
// 003   ----------------------------------------
Label_0_01904874:
 BYTE   W12
 BYTE   N09  Fs3  v080
 BYTE   W24
 BYTE   En3
 BYTE   W24
 BYTE   Fs3
 BYTE   W36
 BYTE   PEND 
// 004   ----------------------------------------
Label_0_0190487E:
 BYTE   W12
 BYTE   N04  Fs3  v080
 BYTE   W06
 BYTE   N04
 BYTE   W06
 BYTE   N09
 BYTE   W12
 BYTE   N04
 BYTE   W06
 BYTE   N04
 BYTE   W06
 BYTE   N09
 BYTE   W12
 BYTE   Ds3
 BYTE   W24
 BYTE   Gs3
 BYTE   W12
 BYTE   PEND 
// 005   ----------------------------------------
Label_0_01904892:
 BYTE   W12
 BYTE   N09  Fs3  v080
 BYTE   W24
 BYTE   En3
 BYTE   W24
 BYTE   Ds3
 BYTE   W24
 BYTE   Cs3
 BYTE   W12
 BYTE   PEND 
// 006   ----------------------------------------
Label_0_0190489E:
 BYTE   W12
 BYTE   N09  Cs3  v080
 BYTE   W12
 BYTE   Gs3
 BYTE   W12
 BYTE   Bn3
 BYTE   W12
 BYTE   N30  As3
 BYTE   W36
 BYTE   N09  Cs3
 BYTE   W12
 BYTE   PEND 
// 007   ----------------------------------------
 BYTE   W12
 BYTE   N09
 BYTE   W12
 BYTE   Gs3
 BYTE   W12
 BYTE   Bn3
 BYTE   W12
 BYTE   N23  As3
 BYTE   W24
 BYTE   N09  Ds4
 BYTE   W12
 BYTE   En4
 BYTE   W12
// 008   ----------------------------------------
 BYTE   W12
 BYTE   N04  En3
 BYTE   W06
 BYTE   N04
 BYTE   W06
 BYTE   N09
 BYTE   W12
 BYTE   N04
 BYTE   W06
 BYTE   N04
 BYTE   W06
 BYTE   N11
 BYTE   W12
 BYTE   Cs3
 BYTE   W24
 BYTE   N04
 BYTE   W06
 BYTE   N04
 BYTE   W06
// 009   ----------------------------------------
 BYTE   PATT
  POIN2 Label_0_0190484D
// 010   ----------------------------------------
 BYTE   PATT
  POIN2 Label_0_01904860
// 011   ----------------------------------------
 BYTE   PATT
  POIN2 Label_0_01904874
// 012   ----------------------------------------
 BYTE   PATT
  POIN2 Label_0_0190487E
// 013   ----------------------------------------
 BYTE   PATT
  POIN2 Label_0_01904892
// 014   ----------------------------------------
 BYTE   PATT
  POIN2 Label_0_0190489E
// 015   ----------------------------------------
 BYTE   W12
 BYTE   N09  Cs3  v080
 BYTE   W12
 BYTE   Gs3
 BYTE   W12
 BYTE   Bn3
 BYTE   W12
 BYTE   N23  As3
 BYTE   W24
 BYTE   N09  Bn3
 BYTE   W12
 BYTE   N68  Cs4
 BYTE   W12
// 016   ----------------------------------------
Label_0_01904901:
 BYTE   W72
 BYTE   N09  Bn3  v080
 BYTE   W12
 BYTE   N21  En4
 BYTE   W12
 BYTE   PEND 
// 017   ----------------------------------------
Label_0_0190490A:
 BYTE   W12
 BYTE   N19  Cs4  v080
 BYTE   W24
 BYTE   Bn3
 BYTE   W24
 BYTE   Cs4
 BYTE   W24
 BYTE   N48  Bn3
 BYTE   W12
 BYTE   PEND 
// 018   ----------------------------------------
Label_0_01904917:
 BYTE   W48
 BYTE   N09  Bn3  v080
 BYTE   W12
 BYTE   N32  Cs4
 BYTE   W36
 BYTE   PEND 
// 019   ----------------------------------------
Label_0_01904920:
 BYTE   N09  Gs3  v080
 BYTE   W12
 BYTE   An3
 BYTE   W12
 BYTE   Gs3
 BYTE   W12
 BYTE   En3
 BYTE   W24
 BYTE   N09
 BYTE   W12
 BYTE   Gs3
 BYTE   W12
 BYTE   Bn3
 BYTE   W12
 BYTE   PEND 
// 020   ----------------------------------------
Label_0_01904931:
 BYTE   N56  Cs4  v080
 BYTE   W72
 BYTE   N09  Bn3
 BYTE   W12
 BYTE   N21  En4
 BYTE   W12
 BYTE   PEND 
// 021   ----------------------------------------
Label_0_0190493C:
 BYTE   W12
 BYTE   N19  Cs4  v080
 BYTE   W24
 BYTE   Bn3
 BYTE   W24
 BYTE   Cs4
 BYTE   W24
 BYTE   N56  Bn3
 BYTE   W12
 BYTE   PEND 
// 022   ----------------------------------------
Label_0_01904949:
 BYTE   W48
 BYTE   N09  Bn3  v080
 BYTE   W12
 BYTE   Gs3
 BYTE   W12
 BYTE   Bn3
 BYTE   W12
 BYTE   Cn4
 BYTE   W12
 BYTE   PEND 
// 023   ----------------------------------------
 BYTE   W12
 BYTE   N09
 BYTE   W12
 BYTE   N09
 BYTE   W12
 BYTE   Ds4
 BYTE   W12
 BYTE   N44  Gs4
 BYTE   W48
// 024   ----------------------------------------
 BYTE   N56  Gs2
 BYTE   W72
 BYTE   N09  Fs2
 BYTE   W12
 BYTE   N21  Bn2
 BYTE   W12
// 025   ----------------------------------------
 BYTE   W12
 BYTE   N19  An2
 BYTE   W24
 BYTE   Gs2
 BYTE   W24
 BYTE   An2
 BYTE   W24
 BYTE   N68  Gs2
 BYTE   W12
// 026   ----------------------------------------
 BYTE   W72
 BYTE   N09  Fs2
 BYTE   W12
 BYTE   N21  Bn2
 BYTE   W12
// 027   ----------------------------------------
 BYTE   W12
 BYTE   N19  An2
 BYTE   W24
 BYTE   Gs2
 BYTE   W24
 BYTE   An2
 BYTE   W24
 BYTE   N48  En2
 BYTE   W12
// 028   ----------------------------------------
 BYTE   W48
 BYTE   N09
 BYTE   W12
 BYTE   Fs2
 BYTE   W12
 BYTE   Gs2
 BYTE   W12
 BYTE   N92  Ds2
 BYTE   W12
// 029   ----------------------------------------
 BYTE   W84
 BYTE   N09  Cs3
 BYTE   W12
// 030   ----------------------------------------
 BYTE   W12
 BYTE   N09
 BYTE   W12
 BYTE   Gs3
 BYTE   W12
 BYTE   Bn3
 BYTE   W12
 BYTE   N32  As3
 BYTE   W36
 BYTE   N09  Cs3
 BYTE   W12
// 031   ----------------------------------------
 BYTE   W12
 BYTE   N09
 BYTE   W12
 BYTE   Gs3
 BYTE   W12
 BYTE   Bn3
 BYTE   W12
 BYTE   As3
 BYTE   W24
 BYTE   Bn3
 BYTE   W12
 BYTE   N48  Cs4
 BYTE   W12
// 032   ----------------------------------------
 BYTE   W48
 BYTE   N19
 BYTE   W24
 BYTE   N09  Bn3
 BYTE   W12
 BYTE   Cs4
 BYTE   W12
// 033   ----------------------------------------
 BYTE   W12
 BYTE   N32  En4
 BYTE   W36
 BYTE   N09  Gs4
 BYTE   W12
 BYTE   Fs4
 BYTE   W12
 BYTE   En4
 BYTE   W12
 BYTE   Ds4
 BYTE   W12
// 034   ----------------------------------------
 BYTE   N36  Cs4
 BYTE   W48
 BYTE   N19
 BYTE   W24
 BYTE   N09  Bn3
 BYTE   W12
 BYTE   Cs4
 BYTE   W12
// 035   ----------------------------------------
 BYTE   W12
 BYTE   N32  En4
 BYTE   W36
 BYTE   N09
 BYTE   W12
 BYTE   Fs4
 BYTE   W12
 BYTE   N22  En4
 BYTE   W24
// 036   ----------------------------------------
 BYTE   N36  Ds4
 BYTE   W48
 BYTE   N09
 BYTE   W12
 BYTE   Cs4
 BYTE   W12
 BYTE   Bn3
 BYTE   W12
 BYTE   N21  Gs4
 BYTE   W12
// 037   ----------------------------------------
 BYTE   W12
 BYTE   N19  Fs4
 BYTE   W24
 BYTE   En4
 BYTE   W24
 BYTE   Ds4
 BYTE   W36
// 038   ----------------------------------------
 BYTE   N09
 BYTE   W12
 BYTE   En4
 BYTE   W12
 BYTE   Ds4
 BYTE   W12
 BYTE   N40  Cs4
 BYTE   W48
 BYTE   N09  Cs3
 BYTE   W12
// 039   ----------------------------------------
 BYTE   W12
 BYTE   N09
 BYTE   W12
 BYTE   Gs3
 BYTE   W12
 BYTE   Bn3
 BYTE   W12
 BYTE   As3
 BYTE   W24
 BYTE   Bn3
 BYTE   W12
 BYTE   N68  Cs4
 BYTE   W12
// 040   ----------------------------------------
 BYTE   PATT
  POIN2 Label_0_01904901
// 041   ----------------------------------------
 BYTE   PATT
  POIN2 Label_0_0190490A
// 042   ----------------------------------------
 BYTE   PATT
  POIN2 Label_0_01904917
// 043   ----------------------------------------
 BYTE   PATT
  POIN2 Label_0_01904920
// 044   ----------------------------------------
 BYTE   PATT
  POIN2 Label_0_01904931
// 045   ----------------------------------------
 BYTE   PATT
  POIN2 Label_0_0190493C
// 046   ----------------------------------------
 BYTE   PATT
  POIN2 Label_0_01904949
// 047   ----------------------------------------
 BYTE   W12
 BYTE   N09  Cn4  v080
 BYTE   W12
 BYTE   N09
 BYTE   W12
 BYTE   Ds4
 BYTE   W12
 BYTE   N28  Gs4
 BYTE   W36
 BYTE   N21  En3
 BYTE   W12
// 048   ----------------------------------------
Label_0_01904A38:
 BYTE   W12
 BYTE   N09  En3  v080
 BYTE   W12
 BYTE   N09
 BYTE   W12
 BYTE   Ds3
 BYTE   W12
 BYTE   N19  En3
 BYTE   W24
 BYTE   N09  Cs4
 BYTE   W12
 BYTE   N23  Bn3
 BYTE   W12
 BYTE   PEND 
// 049   ----------------------------------------
 BYTE   W12
 BYTE   N19  An3
 BYTE   W24
 BYTE   Gs3
 BYTE   W24
 BYTE   Fs3
 BYTE   W24
 BYTE   N09
 BYTE   W12
// 050   ----------------------------------------
 BYTE   W12
 BYTE   Gs3
 BYTE   W12
 BYTE   N09
 BYTE   W24
 BYTE   N09
 BYTE   W36
 BYTE   Fs3
 BYTE   W12
// 051   ----------------------------------------
 BYTE   W12
 BYTE   Gs3
 BYTE   W12
 BYTE   N09
 BYTE   W24
 BYTE   N09
 BYTE   W24
 BYTE   Fs3
 BYTE   W12
 BYTE   En3
 BYTE   W12
// 052   ----------------------------------------
 BYTE   PATT
  POIN2 Label_0_01904A38
// 053   ----------------------------------------
 BYTE   W12
 BYTE   N19  An3  v080
 BYTE   W24
 BYTE   Gs3
 BYTE   W24
 BYTE   Fs3
 BYTE   W36
// 054   ----------------------------------------
 BYTE   N09  Ds3
 BYTE   W12
 BYTE   En3
 BYTE   W12
 BYTE   Ds3
 BYTE   W12
 BYTE   TIE  Cs3
 BYTE   W60
// 055   ----------------------------------------
 BYTE   W76
 BYTE   EOT
 BYTE   W20
// 056   ----------------------------------------
 BYTE   GoTo
  POIN2 Label_0_0190482E
// 057   ----------------------------------------
 BYTE   W96
// 058   ----------------------------------------
 BYTE   W96
// 059   ----------------------------------------
 BYTE   W96
// 060   ----------------------------------------
 BYTE   W96
// 061   ----------------------------------------
 BYTE   W96
// 062   ----------------------------------------
 BYTE   W96
// 063   ----------------------------------------
 BYTE   W96
// 064   ----------------------------------------
 BYTE   W96
// 065   ----------------------------------------
 BYTE   W96
// 066   ----------------------------------------
 BYTE   W96
// 067   ----------------------------------------
 BYTE   W96
// 068   ----------------------------------------
 BYTE   W96
// 069   ----------------------------------------
 BYTE   W96
// 070   ----------------------------------------
 BYTE   W96
// 071   ----------------------------------------
 BYTE   W96
// 072   ----------------------------------------
 BYTE   W96
// 073   ----------------------------------------
 BYTE   W96
// 074   ----------------------------------------
 BYTE   W96
// 075   ----------------------------------------
 BYTE   W96
// 076   ----------------------------------------
 BYTE   W96
// 077   ----------------------------------------
 BYTE   W96
// 078   ----------------------------------------
 BYTE   W96
// 079   ----------------------------------------
 BYTE   W96
// 080   ----------------------------------------
 BYTE   W96
// 081   ----------------------------------------
 BYTE   W96
// 082   ----------------------------------------
 BYTE   W96
// 083   ----------------------------------------
 BYTE   W96
// 084   ----------------------------------------
 BYTE   W96
// 085   ----------------------------------------
 BYTE   W96
// 086   ----------------------------------------
 BYTE   W96
// 087   ----------------------------------------
 BYTE   W96
// 088   ----------------------------------------
 BYTE   W96
// 089   ----------------------------------------
 BYTE   W96
// 090   ----------------------------------------
 BYTE   W96
// 091   ----------------------------------------
 BYTE   W96
// 092   ----------------------------------------
 BYTE   W96
// 093   ----------------------------------------
 BYTE   W96
// 094   ----------------------------------------
 BYTE   W96
// 095   ----------------------------------------
 BYTE   W96
// 096   ----------------------------------------
 BYTE   W96
// 097   ----------------------------------------
 BYTE   W96
// 098   ----------------------------------------
 BYTE   W96
// 099   ----------------------------------------
 BYTE   W96
// 100   ----------------------------------------
 BYTE   W96
// 101   ----------------------------------------
 BYTE   W96
// 102   ----------------------------------------
 BYTE   W96
// 103   ----------------------------------------
 BYTE   W96
// 104   ----------------------------------------
 BYTE   W96
// 105   ----------------------------------------
 BYTE   W96
// 106   ----------------------------------------
 BYTE   W96
// 107   ----------------------------------------
 BYTE   W96
// 108   ----------------------------------------
 BYTE   W96
// 109   ----------------------------------------
 BYTE   W96
// 110   ----------------------------------------
 BYTE   W96
// 111   ----------------------------------------
 BYTE   W96
// 112   ----------------------------------------
 BYTE   W96
// 113   ----------------------------------------
 BYTE   W96
// 114   ----------------------------------------
 BYTE   W96
// 115   ----------------------------------------
 BYTE   W96
// 116   ----------------------------------------
 BYTE   W96
// 117   ----------------------------------------
 BYTE   W96
// 118   ----------------------------------------
 BYTE   W96
// 119   ----------------------------------------
 BYTE   W96
// 120   ----------------------------------------
 BYTE   W96
// 121   ----------------------------------------
 BYTE   W96
// 122   ----------------------------------------
 BYTE   W96
// 123   ----------------------------------------
 BYTE   W96
// 124   ----------------------------------------
 BYTE   W96
// 125   ----------------------------------------
 BYTE   W96
// 126   ----------------------------------------
 BYTE   W96
// 127   ----------------------------------------
 BYTE   W96
// 128   ----------------------------------------
 BYTE   W96
// 129   ----------------------------------------
 BYTE   W96
// 130   ----------------------------------------
 BYTE   W96
// 131   ----------------------------------------
 BYTE   W96
// 132   ----------------------------------------
 BYTE   W96
// 133   ----------------------------------------
 BYTE   W96
// 134   ----------------------------------------
 BYTE   W96
// 135   ----------------------------------------
 BYTE   W96
// 136   ----------------------------------------
 BYTE   W96
// 137   ----------------------------------------
 BYTE   W96
// 138   ----------------------------------------
 BYTE   W96
// 139   ----------------------------------------
 BYTE   W96
// 140   ----------------------------------------
 BYTE   W96
// 141   ----------------------------------------
 BYTE   W96
// 142   ----------------------------------------
 BYTE   W96
// 143   ----------------------------------------
 BYTE   W96
// 144   ----------------------------------------
 BYTE   W96
// 145   ----------------------------------------
 BYTE   W96
// 146   ----------------------------------------
 BYTE   W96
// 147   ----------------------------------------
 BYTE   W96
// 148   ----------------------------------------
 BYTE   W96
// 149   ----------------------------------------
 BYTE   W96
// 150   ----------------------------------------
 BYTE   W96
// 151   ----------------------------------------
 BYTE   W96
// 152   ----------------------------------------
 BYTE   W96
// 153   ----------------------------------------
 BYTE   W96
// 154   ----------------------------------------
 BYTE   W96
// 155   ----------------------------------------
 BYTE   W96
// 156   ----------------------------------------
 BYTE   W96
// 157   ----------------------------------------
 BYTE   W96
// 158   ----------------------------------------
 BYTE   W96
// 159   ----------------------------------------
 BYTE   W96
// 160   ----------------------------------------
 BYTE   W96
// 161   ----------------------------------------
 BYTE   W96
// 162   ----------------------------------------
 BYTE   W96
// 163   ----------------------------------------
 BYTE   W96
// 164   ----------------------------------------
 BYTE   W96
// 165   ----------------------------------------
 BYTE   W96
// 166   ----------------------------------------
 BYTE   W96
// 167   ----------------------------------------
 BYTE   W96
// 168   ----------------------------------------
 BYTE   W96
// 169   ----------------------------------------
 BYTE   W96
// 170   ----------------------------------------
 BYTE   W96
// 171   ----------------------------------------
 BYTE   W96
// 172   ----------------------------------------
 BYTE   W96
// 173   ----------------------------------------
 BYTE   W96
// 174   ----------------------------------------
 BYTE   W96
// 175   ----------------------------------------
 BYTE   W96
// 176   ----------------------------------------
 BYTE   W96
// 177   ----------------------------------------
 BYTE   W96
// 178   ----------------------------------------
 BYTE   W96
// 179   ----------------------------------------
 BYTE   W96
// 180   ----------------------------------------
 BYTE   W96
// 181   ----------------------------------------
 BYTE   W96
// 182   ----------------------------------------
 BYTE   W96
// 183   ----------------------------------------
 BYTE   W96
// 184   ----------------------------------------
 BYTE   W96
// 185   ----------------------------------------
 BYTE   W96
// 186   ----------------------------------------
 BYTE   W96
// 187   ----------------------------------------
 BYTE   W96
// 188   ----------------------------------------
 BYTE   W96
// 189   ----------------------------------------
 BYTE   W96
// 190   ----------------------------------------
 BYTE   W96
// 191   ----------------------------------------
 BYTE   W96
// 192   ----------------------------------------
 BYTE   W96
// 193   ----------------------------------------
 BYTE   W96
// 194   ----------------------------------------
 BYTE   W76
 BYTE   FINE

//**************** Track 2 (Midi-Chn.1) ****************//

Megaman2WilyStage7743_002:
// 000   ----------------------------------------
 BYTE   KEYSH   Megaman2WilyStage7743_key+0
Label_1_01904B72:
 BYTE   VOICE   80
 BYTE   PAN   c_v+0
 BYTE   VOL   54*Megaman2WilyStage7743_mvl/mxv
 BYTE   W12
 BYTE   N04  Cs3  v080
 BYTE   W06
 BYTE   N04
 BYTE   W06
 BYTE   N09
 BYTE   W12
 BYTE   N04
 BYTE   W06
 BYTE   N04
 BYTE   W06
 BYTE   N09
 BYTE   W12
 BYTE   Gs2
 BYTE   W24
 BYTE   N04
 BYTE   W06
 BYTE   N04
 BYTE   W06
// 001   ----------------------------------------
Label_1_01904B8D:
 BYTE   N09  Cs3  v080
 BYTE   W12
 BYTE   N04
 BYTE   W06
 BYTE   N04
 BYTE   W06
 BYTE   N09
 BYTE   W12
 BYTE   Gs2
 BYTE   W24
 BYTE   En3
 BYTE   W12
 BYTE   Ds3
 BYTE   W12
 BYTE   En3
 BYTE   W12
 BYTE   PEND 
// 002   ----------------------------------------
Label_1_01904BA0:
 BYTE   W12
 BYTE   N04  Cs3  v080
 BYTE   W06
 BYTE   N04
 BYTE   W06
 BYTE   N09
 BYTE   W12
 BYTE   N04
 BYTE   W06
 BYTE   N04
 BYTE   W06
 BYTE   N09
 BYTE   W12
 BYTE   Gs2
 BYTE   W24
 BYTE   En3
 BYTE   W12
 BYTE   PEND 
// 003   ----------------------------------------
Label_1_01904BB4:
 BYTE   W12
 BYTE   N09  Ds3  v080
 BYTE   W24
 BYTE   Cs3
 BYTE   W24
 BYTE   Ds3
 BYTE   W36
 BYTE   PEND 
// 004   ----------------------------------------
Label_1_01904BBE:
 BYTE   W12
 BYTE   N04  Ds3  v080
 BYTE   W06
 BYTE   N04
 BYTE   W06
 BYTE   N09
 BYTE   W12
 BYTE   N04
 BYTE   W06
 BYTE   N04
 BYTE   W06
 BYTE   N09
 BYTE   W12
 BYTE   Bn2
 BYTE   W24
 BYTE   En3
 BYTE   W12
 BYTE   PEND 
// 005   ----------------------------------------
Label_1_01904BD2:
 BYTE   W12
 BYTE   N09  Ds3  v080
 BYTE   W24
 BYTE   Cs3
 BYTE   W24
 BYTE   Bn2
 BYTE   W36
 BYTE   PEND 
// 006   ----------------------------------------
Label_1_01904BDC:
 BYTE   N09  Cs3  v080
 BYTE   W24
 BYTE   N09
 BYTE   W12
 BYTE   Gs3
 BYTE   W12
 BYTE   Bn3
 BYTE   W12
 BYTE   N30  As3
 BYTE   W36
 BYTE   PEND 
// 007   ----------------------------------------
Label_1_01904BEA:
 BYTE   N09  Cs3  v080
 BYTE   W24
 BYTE   N09
 BYTE   W12
 BYTE   Gs3
 BYTE   W12
 BYTE   Bn3
 BYTE   W12
 BYTE   As3
 BYTE   W12
 BYTE   Bn3
 BYTE   W12
 BYTE   Cs4
 BYTE   W12
 BYTE   PEND 
// 008   ----------------------------------------
 BYTE   W12
 BYTE   N04  Cs3
 BYTE   W06
 BYTE   N04
 BYTE   W06
 BYTE   N09
 BYTE   W12
 BYTE   N04
 BYTE   W06
 BYTE   N04
 BYTE   W06
 BYTE   N09
 BYTE   W12
 BYTE   Gs2
 BYTE   W24
 BYTE   N04
 BYTE   W06
 BYTE   N04
 BYTE   W06
// 009   ----------------------------------------
 BYTE   PATT
  POIN2 Label_1_01904B8D
// 010   ----------------------------------------
 BYTE   PATT
  POIN2 Label_1_01904BA0
// 011   ----------------------------------------
 BYTE   PATT
  POIN2 Label_1_01904BB4
// 012   ----------------------------------------
 BYTE   PATT
  POIN2 Label_1_01904BBE
// 013   ----------------------------------------
 BYTE   PATT
  POIN2 Label_1_01904BD2
// 014   ----------------------------------------
 BYTE   PATT
  POIN2 Label_1_01904BDC
// 015   ----------------------------------------
 BYTE   PATT
  POIN2 Label_1_01904BEA
// 016   ----------------------------------------
Label_1_01904C32:
 BYTE   W12
 BYTE   N56  Cs4  v080
 BYTE   W72
 BYTE   N09  Bn3
 BYTE   W12
 BYTE   PEND 
// 017   ----------------------------------------
Label_1_01904C3B:
 BYTE   N19  En4  v080
 BYTE   W24
 BYTE   Cs4
 BYTE   W24
 BYTE   Bn3
 BYTE   W24
 BYTE   Cs4
 BYTE   W24
 BYTE   PEND 
// 018   ----------------------------------------
Label_1_01904C46:
 BYTE   N48  Bn3  v080
 BYTE   W60
 BYTE   N09
 BYTE   W12
 BYTE   N32  Cs4
 BYTE   W24
 BYTE   PEND 
// 019   ----------------------------------------
Label_1_01904C50:
 BYTE   W12
 BYTE   N09  Gs3  v080
 BYTE   W12
 BYTE   An3
 BYTE   W12
 BYTE   Gs3
 BYTE   W12
 BYTE   En3
 BYTE   W24
 BYTE   N09
 BYTE   W12
 BYTE   Gs3
 BYTE   W12
 BYTE   PEND 
// 020   ----------------------------------------
Label_1_01904C60:
 BYTE   N09  Bn3  v080
 BYTE   W12
 BYTE   N56  Cs4
 BYTE   W72
 BYTE   N09  Bn3
 BYTE   W12
 BYTE   PEND 
// 021   ----------------------------------------
 BYTE   PATT
  POIN2 Label_1_01904C3B
// 022   ----------------------------------------
Label_1_01904C70:
 BYTE   N48  Bn3  v080
 BYTE   W60
 BYTE   N09
 BYTE   W12
 BYTE   Gs3
 BYTE   W12
 BYTE   Bn3
 BYTE   W12
 BYTE   PEND 
// 023   ----------------------------------------
 BYTE   Cn4
 BYTE   W24
 BYTE   N09
 BYTE   W12
 BYTE   N09
 BYTE   W12
 BYTE   Ds4
 BYTE   W12
 BYTE   N30  Gs4
 BYTE   W36
// 024   ----------------------------------------
Label_1_01904C86:
 BYTE   W12
 BYTE   N04  En3  v080
 BYTE   W06
 BYTE   N04
 BYTE   W06
 BYTE   N09
 BYTE   W12
 BYTE   N04
 BYTE   W06
 BYTE   N04
 BYTE   W06
 BYTE   N11
 BYTE   W12
 BYTE   Cs3
 BYTE   W24
 BYTE   N04
 BYTE   W06
 BYTE   N04
 BYTE   W06
 BYTE   PEND 
// 025   ----------------------------------------
Label_1_01904C9C:
 BYTE   N09  En3  v080
 BYTE   W12
 BYTE   N04
 BYTE   W06
 BYTE   N04
 BYTE   W06
 BYTE   N09
 BYTE   W12
 BYTE   Cs3
 BYTE   W24
 BYTE   Gs3
 BYTE   W12
 BYTE   Fs3
 BYTE   W12
 BYTE   Gs3
 BYTE   W12
 BYTE   PEND 
// 026   ----------------------------------------
Label_1_01904CAF:
 BYTE   W12
 BYTE   N04  En3  v080
 BYTE   W06
 BYTE   N04
 BYTE   W06
 BYTE   N09
 BYTE   W12
 BYTE   N04
 BYTE   W06
 BYTE   N04
 BYTE   W06
 BYTE   N09
 BYTE   W12
 BYTE   Cs3
 BYTE   W24
 BYTE   Gs3
 BYTE   W12
 BYTE   PEND 
// 027   ----------------------------------------
Label_1_01904CC3:
 BYTE   W12
 BYTE   N09  Fs3  v080
 BYTE   W24
 BYTE   En3
 BYTE   W24
 BYTE   Fs3
 BYTE   W36
 BYTE   PEND 
// 028   ----------------------------------------
Label_1_01904CCD:
 BYTE   W12
 BYTE   N04  Fs3  v080
 BYTE   W06
 BYTE   N04
 BYTE   W06
 BYTE   N09
 BYTE   W12
 BYTE   N04
 BYTE   W06
 BYTE   N04
 BYTE   W06
 BYTE   N09
 BYTE   W12
 BYTE   Ds3
 BYTE   W24
 BYTE   Gs3
 BYTE   W12
 BYTE   PEND 
// 029   ----------------------------------------
 BYTE   W12
 BYTE   Fs3
 BYTE   W24
 BYTE   En3
 BYTE   W24
 BYTE   Ds3
 BYTE   W36
// 030   ----------------------------------------
 BYTE   PATT
  POIN2 Label_1_01904BDC
// 031   ----------------------------------------
Label_1_01904CED:
 BYTE   N09  Cs3  v080
 BYTE   W24
 BYTE   N09
 BYTE   W12
 BYTE   Gs3
 BYTE   W12
 BYTE   Bn3
 BYTE   W12
 BYTE   As3
 BYTE   W12
 BYTE   Ds4
 BYTE   W12
 BYTE   En4
 BYTE   W12
 BYTE   PEND 
// 032   ----------------------------------------
 BYTE   PATT
  POIN2 Label_1_01904C86
// 033   ----------------------------------------
 BYTE   PATT
  POIN2 Label_1_01904C9C
// 034   ----------------------------------------
 BYTE   PATT
  POIN2 Label_1_01904CAF
// 035   ----------------------------------------
 BYTE   PATT
  POIN2 Label_1_01904CC3
// 036   ----------------------------------------
 BYTE   PATT
  POIN2 Label_1_01904CCD
// 037   ----------------------------------------
 BYTE   W12
 BYTE   N09  Fs3  v080
 BYTE   W24
 BYTE   En3
 BYTE   W24
 BYTE   Ds3
 BYTE   W24
 BYTE   Cs3
 BYTE   W12
// 038   ----------------------------------------
 BYTE   W12
 BYTE   N09
 BYTE   W12
 BYTE   Gs3
 BYTE   W12
 BYTE   Bn3
 BYTE   W12
 BYTE   N44  As3
 BYTE   W48
// 039   ----------------------------------------
 BYTE   PATT
  POIN2 Label_1_01904CED
// 040   ----------------------------------------
 BYTE   PATT
  POIN2 Label_1_01904C32
// 041   ----------------------------------------
 BYTE   PATT
  POIN2 Label_1_01904C3B
// 042   ----------------------------------------
 BYTE   PATT
  POIN2 Label_1_01904C46
// 043   ----------------------------------------
 BYTE   PATT
  POIN2 Label_1_01904C50
// 044   ----------------------------------------
 BYTE   PATT
  POIN2 Label_1_01904C60
// 045   ----------------------------------------
 BYTE   PATT
  POIN2 Label_1_01904C3B
// 046   ----------------------------------------
 BYTE   PATT
  POIN2 Label_1_01904C70
// 047   ----------------------------------------
 BYTE   N09  Cn4  v080
 BYTE   W24
 BYTE   N09
 BYTE   W12
 BYTE   N09
 BYTE   W12
 BYTE   Ds4
 BYTE   W12
 BYTE   N23  Gs4
 BYTE   W24
 BYTE   N21  Cs3
 BYTE   W12
// 048   ----------------------------------------
 BYTE   W12
 BYTE   N09
 BYTE   W12
 BYTE   N09
 BYTE   W12
 BYTE   Bn2
 BYTE   W12
 BYTE   N19  Cs3
 BYTE   W24
 BYTE   N09  An3
 BYTE   W12
 BYTE   N23  Fs3
 BYTE   W12
// 049   ----------------------------------------
 BYTE   W12
 BYTE   N19
 BYTE   W24
 BYTE   En3
 BYTE   W24
 BYTE   Ds3
 BYTE   W24
 BYTE   N09
 BYTE   W12
// 050   ----------------------------------------
 BYTE   W12
 BYTE   En3
 BYTE   W12
 BYTE   N09
 BYTE   W24
 BYTE   N09
 BYTE   W36
 BYTE   Ds3
 BYTE   W12
// 051   ----------------------------------------
 BYTE   W12
 BYTE   En3
 BYTE   W12
 BYTE   N09
 BYTE   W24
 BYTE   N09
 BYTE   W24
 BYTE   Ds3
 BYTE   W12
 BYTE   Cs3
 BYTE   W12
// 052   ----------------------------------------
 BYTE   W12
 BYTE   N09
 BYTE   W12
 BYTE   N09
 BYTE   W12
 BYTE   Bn2
 BYTE   W12
 BYTE   N22  Cs3
 BYTE   W24
 BYTE   N09  An3
 BYTE   W12
 BYTE   N23  Fs3
 BYTE   W12
// 053   ----------------------------------------
 BYTE   W12
 BYTE   N19
 BYTE   W24
 BYTE   En3
 BYTE   W24
 BYTE   Ds3
 BYTE   W36
// 054   ----------------------------------------
 BYTE   N09  Bn2
 BYTE   W12
 BYTE   Cs3
 BYTE   W12
 BYTE   Bn2
 BYTE   W12
 BYTE   TIE  Gs2
 BYTE   W60
// 055   ----------------------------------------
 BYTE   W76
 BYTE   EOT
 BYTE   W20
// 056   ----------------------------------------
 BYTE   GoTo
  POIN2 Label_1_01904B72
// 057   ----------------------------------------
 BYTE   W96
// 058   ----------------------------------------
 BYTE   W96
// 059   ----------------------------------------
 BYTE   W96
// 060   ----------------------------------------
 BYTE   W96
// 061   ----------------------------------------
 BYTE   W96
// 062   ----------------------------------------
 BYTE   W96
// 063   ----------------------------------------
 BYTE   W96
// 064   ----------------------------------------
 BYTE   W96
// 065   ----------------------------------------
 BYTE   W96
// 066   ----------------------------------------
 BYTE   W96
// 067   ----------------------------------------
 BYTE   W96
// 068   ----------------------------------------
 BYTE   W96
// 069   ----------------------------------------
 BYTE   W96
// 070   ----------------------------------------
 BYTE   W96
// 071   ----------------------------------------
 BYTE   W96
// 072   ----------------------------------------
 BYTE   W96
// 073   ----------------------------------------
 BYTE   W96
// 074   ----------------------------------------
 BYTE   W96
// 075   ----------------------------------------
 BYTE   W96
// 076   ----------------------------------------
 BYTE   W96
// 077   ----------------------------------------
 BYTE   W96
// 078   ----------------------------------------
 BYTE   W96
// 079   ----------------------------------------
 BYTE   W96
// 080   ----------------------------------------
 BYTE   W96
// 081   ----------------------------------------
 BYTE   W96
// 082   ----------------------------------------
 BYTE   W96
// 083   ----------------------------------------
 BYTE   W96
// 084   ----------------------------------------
 BYTE   W96
// 085   ----------------------------------------
 BYTE   W96
// 086   ----------------------------------------
 BYTE   W96
// 087   ----------------------------------------
 BYTE   W96
// 088   ----------------------------------------
 BYTE   W96
// 089   ----------------------------------------
 BYTE   W96
// 090   ----------------------------------------
 BYTE   W96
// 091   ----------------------------------------
 BYTE   W96
// 092   ----------------------------------------
 BYTE   W96
// 093   ----------------------------------------
 BYTE   W96
// 094   ----------------------------------------
 BYTE   W96
// 095   ----------------------------------------
 BYTE   W96
// 096   ----------------------------------------
 BYTE   W96
// 097   ----------------------------------------
 BYTE   W96
// 098   ----------------------------------------
 BYTE   W96
// 099   ----------------------------------------
 BYTE   W96
// 100   ----------------------------------------
 BYTE   W96
// 101   ----------------------------------------
 BYTE   W96
// 102   ----------------------------------------
 BYTE   W96
// 103   ----------------------------------------
 BYTE   W96
// 104   ----------------------------------------
 BYTE   W96
// 105   ----------------------------------------
 BYTE   W96
// 106   ----------------------------------------
 BYTE   W96
// 107   ----------------------------------------
 BYTE   W96
// 108   ----------------------------------------
 BYTE   W96
// 109   ----------------------------------------
 BYTE   W96
// 110   ----------------------------------------
 BYTE   W96
// 111   ----------------------------------------
 BYTE   W96
// 112   ----------------------------------------
 BYTE   W96
// 113   ----------------------------------------
 BYTE   W96
// 114   ----------------------------------------
 BYTE   W96
// 115   ----------------------------------------
 BYTE   W96
// 116   ----------------------------------------
 BYTE   W96
// 117   ----------------------------------------
 BYTE   W96
// 118   ----------------------------------------
 BYTE   W96
// 119   ----------------------------------------
 BYTE   W96
// 120   ----------------------------------------
 BYTE   W96
// 121   ----------------------------------------
 BYTE   W96
// 122   ----------------------------------------
 BYTE   W96
// 123   ----------------------------------------
 BYTE   W96
// 124   ----------------------------------------
 BYTE   W96
// 125   ----------------------------------------
 BYTE   W96
// 126   ----------------------------------------
 BYTE   W96
// 127   ----------------------------------------
 BYTE   W96
// 128   ----------------------------------------
 BYTE   W96
// 129   ----------------------------------------
 BYTE   W96
// 130   ----------------------------------------
 BYTE   W96
// 131   ----------------------------------------
 BYTE   W96
// 132   ----------------------------------------
 BYTE   W96
// 133   ----------------------------------------
 BYTE   W96
// 134   ----------------------------------------
 BYTE   W96
// 135   ----------------------------------------
 BYTE   W96
// 136   ----------------------------------------
 BYTE   W96
// 137   ----------------------------------------
 BYTE   W96
// 138   ----------------------------------------
 BYTE   W96
// 139   ----------------------------------------
 BYTE   W96
// 140   ----------------------------------------
 BYTE   W96
// 141   ----------------------------------------
 BYTE   W96
// 142   ----------------------------------------
 BYTE   W96
// 143   ----------------------------------------
 BYTE   W96
// 144   ----------------------------------------
 BYTE   W96
// 145   ----------------------------------------
 BYTE   W96
// 146   ----------------------------------------
 BYTE   W96
// 147   ----------------------------------------
 BYTE   W96
// 148   ----------------------------------------
 BYTE   W96
// 149   ----------------------------------------
 BYTE   W96
// 150   ----------------------------------------
 BYTE   W96
// 151   ----------------------------------------
 BYTE   W96
// 152   ----------------------------------------
 BYTE   W96
// 153   ----------------------------------------
 BYTE   W96
// 154   ----------------------------------------
 BYTE   W96
// 155   ----------------------------------------
 BYTE   W96
// 156   ----------------------------------------
 BYTE   W96
// 157   ----------------------------------------
 BYTE   W96
// 158   ----------------------------------------
 BYTE   W96
// 159   ----------------------------------------
 BYTE   W96
// 160   ----------------------------------------
 BYTE   W96
// 161   ----------------------------------------
 BYTE   W96
// 162   ----------------------------------------
 BYTE   W96
// 163   ----------------------------------------
 BYTE   W96
// 164   ----------------------------------------
 BYTE   W96
// 165   ----------------------------------------
 BYTE   W96
// 166   ----------------------------------------
 BYTE   W96
// 167   ----------------------------------------
 BYTE   W96
// 168   ----------------------------------------
 BYTE   W96
// 169   ----------------------------------------
 BYTE   W96
// 170   ----------------------------------------
 BYTE   W96
// 171   ----------------------------------------
 BYTE   W96
// 172   ----------------------------------------
 BYTE   W96
// 173   ----------------------------------------
 BYTE   W96
// 174   ----------------------------------------
 BYTE   W96
// 175   ----------------------------------------
 BYTE   W96
// 176   ----------------------------------------
 BYTE   W96
// 177   ----------------------------------------
 BYTE   W96
// 178   ----------------------------------------
 BYTE   W96
// 179   ----------------------------------------
 BYTE   W96
// 180   ----------------------------------------
 BYTE   W96
// 181   ----------------------------------------
 BYTE   W96
// 182   ----------------------------------------
 BYTE   W96
// 183   ----------------------------------------
 BYTE   W96
// 184   ----------------------------------------
 BYTE   W96
// 185   ----------------------------------------
 BYTE   W96
// 186   ----------------------------------------
 BYTE   W96
// 187   ----------------------------------------
 BYTE   W96
// 188   ----------------------------------------
 BYTE   W96
// 189   ----------------------------------------
 BYTE   W96
// 190   ----------------------------------------
 BYTE   W96
// 191   ----------------------------------------
 BYTE   W96
// 192   ----------------------------------------
 BYTE   W96
// 193   ----------------------------------------
 BYTE   W96
// 194   ----------------------------------------
 BYTE   W76
 BYTE   FINE

//**************** Track 3 (Midi-Chn.2) ****************//

Megaman2WilyStage7743_003:
// 000   ----------------------------------------
 BYTE   KEYSH   Megaman2WilyStage7743_key+0
Label_2_01904EAE:
 BYTE   VOICE   30
 BYTE   PAN   c_v+0
 BYTE   VOL   70*Megaman2WilyStage7743_mvl/mxv
 BYTE   N09  Cs3  v080
 BYTE   W12
 BYTE   N04
 BYTE   W06
 BYTE   N04
 BYTE   W06
 BYTE   N09
 BYTE   W12
 BYTE   N04
 BYTE   W06
 BYTE   N04
 BYTE   W06
 BYTE   N09
 BYTE   W12
 BYTE   N04
 BYTE   W06
 BYTE   N04
 BYTE   W06
 BYTE   N09
 BYTE   W12
 BYTE   N04
 BYTE   W06
 BYTE   N04
 BYTE   W06
// 001   ----------------------------------------
Label_2_01904ECE:
 BYTE   N09  Cs3  v080
 BYTE   W12
 BYTE   N04
 BYTE   W06
 BYTE   N04
 BYTE   W06
 BYTE   N09
 BYTE   W12
 BYTE   N04
 BYTE   W06
 BYTE   N04
 BYTE   W06
 BYTE   N09
 BYTE   W12
 BYTE   N04
 BYTE   W06
 BYTE   N04
 BYTE   W06
 BYTE   N09
 BYTE   W12
 BYTE   N04
 BYTE   W06
 BYTE   N04
 BYTE   W06
 BYTE   PEND 
// 002   ----------------------------------------
Label_2_01904EE9:
 BYTE   N09  An2  v080
 BYTE   W12
 BYTE   N04
 BYTE   W06
 BYTE   N04
 BYTE   W06
 BYTE   N09
 BYTE   W12
 BYTE   N04
 BYTE   W06
 BYTE   N04
 BYTE   W06
 BYTE   N09
 BYTE   W12
 BYTE   N04
 BYTE   W06
 BYTE   N04
 BYTE   W06
 BYTE   N09
 BYTE   W12
 BYTE   N04
 BYTE   W06
 BYTE   N04
 BYTE   W06
 BYTE   PEND 
// 003   ----------------------------------------
 BYTE   PATT
  POIN2 Label_2_01904EE9
// 004   ----------------------------------------
Label_2_01904F09:
 BYTE   N09  Bn2  v080
 BYTE   W12
 BYTE   N04
 BYTE   W06
 BYTE   N04
 BYTE   W06
 BYTE   N09
 BYTE   W12
 BYTE   N04
 BYTE   W06
 BYTE   N04
 BYTE   W06
 BYTE   N09
 BYTE   W12
 BYTE   N04
 BYTE   W06
 BYTE   N04
 BYTE   W06
 BYTE   N09
 BYTE   W12
 BYTE   N04
 BYTE   W06
 BYTE   N04
 BYTE   W06
 BYTE   PEND 
// 005   ----------------------------------------
 BYTE   PATT
  POIN2 Label_2_01904F09
// 006   ----------------------------------------
 BYTE   PATT
  POIN2 Label_2_01904ECE
// 007   ----------------------------------------
Label_2_01904F2E:
 BYTE   N09  Cs3  v080
 BYTE   W12
 BYTE   N04
 BYTE   W06
 BYTE   N04
 BYTE   W06
 BYTE   N09
 BYTE   W12
 BYTE   N04
 BYTE   W06
 BYTE   N04
 BYTE   W06
 BYTE   N09
 BYTE   W12
 BYTE   N04
 BYTE   W06
 BYTE   N04
 BYTE   W06
 BYTE   N09  Bn2
 BYTE   W12
 BYTE   Cs3
 BYTE   W12
 BYTE   PEND 
// 008   ----------------------------------------
 BYTE   PATT
  POIN2 Label_2_01904ECE
// 009   ----------------------------------------
 BYTE   PATT
  POIN2 Label_2_01904ECE
// 010   ----------------------------------------
 BYTE   PATT
  POIN2 Label_2_01904EE9
// 011   ----------------------------------------
 BYTE   PATT
  POIN2 Label_2_01904EE9
// 012   ----------------------------------------
 BYTE   PATT
  POIN2 Label_2_01904F09
// 013   ----------------------------------------
 BYTE   PATT
  POIN2 Label_2_01904F09
// 014   ----------------------------------------
 BYTE   PATT
  POIN2 Label_2_01904ECE
// 015   ----------------------------------------
 BYTE   PATT
  POIN2 Label_2_01904F2E
// 016   ----------------------------------------
Label_2_01904F70:
 BYTE   N09  Dn3  v080
 BYTE   W12
 BYTE   N04
 BYTE   W06
 BYTE   N04
 BYTE   W06
 BYTE   N09
 BYTE   W12
 BYTE   N04
 BYTE   W06
 BYTE   N04
 BYTE   W06
 BYTE   N09
 BYTE   W12
 BYTE   N04  An3
 BYTE   W06
 BYTE   N04
 BYTE   W06
 BYTE   Fs3
 BYTE   W06
 BYTE   N04
 BYTE   W06
 BYTE   N04
 BYTE   W12
 BYTE   PEND 
// 017   ----------------------------------------
Label_2_01904F8C:
 BYTE   W12
 BYTE   N04  Dn3  v080
 BYTE   W06
 BYTE   N04
 BYTE   W06
 BYTE   N09  Fs3
 BYTE   W12
 BYTE   N04  Dn3
 BYTE   W06
 BYTE   N04
 BYTE   W06
 BYTE   N09  Cs4
 BYTE   W12
 BYTE   Dn3
 BYTE   W12
 BYTE   An3
 BYTE   W12
 BYTE   N04  Dn3
 BYTE   W06
 BYTE   N04
 BYTE   W06
 BYTE   PEND 
// 018   ----------------------------------------
Label_2_01904FA8:
 BYTE   N09  Cs3  v080
 BYTE   W12
 BYTE   N04
 BYTE   W06
 BYTE   N04
 BYTE   W06
 BYTE   N09
 BYTE   W12
 BYTE   N04
 BYTE   W06
 BYTE   N04
 BYTE   W06
 BYTE   N09
 BYTE   W12
 BYTE   N04  Gs3
 BYTE   W06
 BYTE   N04
 BYTE   W06
 BYTE   En3
 BYTE   W06
 BYTE   N04
 BYTE   W06
 BYTE   Bn3
 BYTE   W12
 BYTE   PEND 
// 019   ----------------------------------------
Label_2_01904FC4:
 BYTE   W12
 BYTE   N04  Cs3  v080
 BYTE   W06
 BYTE   N04
 BYTE   W06
 BYTE   N09  En3
 BYTE   W12
 BYTE   N04  Cs3
 BYTE   W06
 BYTE   N04
 BYTE   W06
 BYTE   N09  Bn3
 BYTE   W12
 BYTE   N04  En3
 BYTE   W06
 BYTE   N04
 BYTE   W06
 BYTE   N09  Gs3
 BYTE   W12
 BYTE   N04  Cs3
 BYTE   W06
 BYTE   N04
 BYTE   W06
 BYTE   PEND 
// 020   ----------------------------------------
 BYTE   PATT
  POIN2 Label_2_01904F70
// 021   ----------------------------------------
 BYTE   PATT
  POIN2 Label_2_01904F8C
// 022   ----------------------------------------
Label_2_01904FEE:
 BYTE   N09  Bn2  v080
 BYTE   W12
 BYTE   N04
 BYTE   W06
 BYTE   N04
 BYTE   W06
 BYTE   N09
 BYTE   W12
 BYTE   N04
 BYTE   W06
 BYTE   N04
 BYTE   W06
 BYTE   N09
 BYTE   W12
 BYTE   N04
 BYTE   W06
 BYTE   N04
 BYTE   W06
 BYTE   N09
 BYTE   W12
 BYTE   Cn3
 BYTE   W12
 BYTE   PEND 
// 023   ----------------------------------------
 BYTE   W12
 BYTE   N09
 BYTE   W12
 BYTE   N09
 BYTE   W12
 BYTE   N09
 BYTE   W12
 BYTE   N28
 BYTE   W48
// 024   ----------------------------------------
 BYTE   PATT
  POIN2 Label_2_01904ECE
// 025   ----------------------------------------
 BYTE   PATT
  POIN2 Label_2_01904ECE
// 026   ----------------------------------------
 BYTE   PATT
  POIN2 Label_2_01904EE9
// 027   ----------------------------------------
 BYTE   PATT
  POIN2 Label_2_01904EE9
// 028   ----------------------------------------
 BYTE   PATT
  POIN2 Label_2_01904F09
// 029   ----------------------------------------
 BYTE   PATT
  POIN2 Label_2_01904F09
// 030   ----------------------------------------
 BYTE   PATT
  POIN2 Label_2_01904ECE
// 031   ----------------------------------------
 BYTE   PATT
  POIN2 Label_2_01904F2E
// 032   ----------------------------------------
 BYTE   PATT
  POIN2 Label_2_01904ECE
// 033   ----------------------------------------
 BYTE   PATT
  POIN2 Label_2_01904ECE
// 034   ----------------------------------------
 BYTE   PATT
  POIN2 Label_2_01904EE9
// 035   ----------------------------------------
 BYTE   PATT
  POIN2 Label_2_01904EE9
// 036   ----------------------------------------
 BYTE   PATT
  POIN2 Label_2_01904F09
// 037   ----------------------------------------
 BYTE   PATT
  POIN2 Label_2_01904F09
// 038   ----------------------------------------
 BYTE   PATT
  POIN2 Label_2_01904ECE
// 039   ----------------------------------------
 BYTE   PATT
  POIN2 Label_2_01904F2E
// 040   ----------------------------------------
 BYTE   PATT
  POIN2 Label_2_01904F70
// 041   ----------------------------------------
 BYTE   PATT
  POIN2 Label_2_01904F8C
// 042   ----------------------------------------
 BYTE   PATT
  POIN2 Label_2_01904FA8
// 043   ----------------------------------------
 BYTE   PATT
  POIN2 Label_2_01904FC4
// 044   ----------------------------------------
 BYTE   PATT
  POIN2 Label_2_01904F70
// 045   ----------------------------------------
 BYTE   PATT
  POIN2 Label_2_01904F8C
// 046   ----------------------------------------
 BYTE   PATT
  POIN2 Label_2_01904FEE
// 047   ----------------------------------------
 BYTE   W12
 BYTE   N09  Cn3  v080
 BYTE   W12
 BYTE   N09
 BYTE   W12
 BYTE   N09
 BYTE   W12
 BYTE   N28
 BYTE   W36
 BYTE   N21  An2
 BYTE   W12
// 048   ----------------------------------------
 BYTE   W12
 BYTE   N04
 BYTE   W06
 BYTE   N04
 BYTE   W06
 BYTE   N09
 BYTE   W12
 BYTE   N04
 BYTE   W06
 BYTE   N04
 BYTE   W06
 BYTE   N09
 BYTE   W12
 BYTE   N05
 BYTE   W06
 BYTE   N04
 BYTE   W06
 BYTE   N09
 BYTE   W12
 BYTE   N21  Bn2
 BYTE   W12
// 049   ----------------------------------------
 BYTE   W12
 BYTE   N04
 BYTE   W06
 BYTE   N04
 BYTE   W06
 BYTE   N09
 BYTE   W12
 BYTE   N04
 BYTE   W06
 BYTE   N04
 BYTE   W06
 BYTE   N09
 BYTE   W12
 BYTE   N04
 BYTE   W06
 BYTE   N04
 BYTE   W06
 BYTE   N09
 BYTE   W12
 BYTE   N21  Cs2
 BYTE   W12
// 050   ----------------------------------------
 BYTE   W12
 BYTE   N09  Cs3
 BYTE   W12
 BYTE   Ds2
 BYTE   W12
 BYTE   Ds3
 BYTE   W12
 BYTE   En2
 BYTE   W12
 BYTE   En3
 BYTE   W12
 BYTE   Ds2
 BYTE   W12
 BYTE   N21  Cs2
 BYTE   W12
// 051   ----------------------------------------
 BYTE   W12
 BYTE   N09  Cs3
 BYTE   W12
 BYTE   Ds2
 BYTE   W12
 BYTE   Ds3
 BYTE   W12
 BYTE   En2
 BYTE   W12
 BYTE   En3
 BYTE   W12
 BYTE   Ds2
 BYTE   W12
 BYTE   N21  An2
 BYTE   W12
// 052   ----------------------------------------
 BYTE   W12
 BYTE   N04
 BYTE   W06
 BYTE   N04
 BYTE   W06
 BYTE   N09
 BYTE   W12
 BYTE   N04
 BYTE   W06
 BYTE   N04
 BYTE   W06
 BYTE   N09
 BYTE   W12
 BYTE   N04
 BYTE   W06
 BYTE   N04
 BYTE   W06
 BYTE   N09
 BYTE   W12
 BYTE   N21  Bn2
 BYTE   W12
// 053   ----------------------------------------
 BYTE   W12
 BYTE   N04
 BYTE   W06
 BYTE   N04
 BYTE   W06
 BYTE   N09
 BYTE   W12
 BYTE   N04
 BYTE   W06
 BYTE   N04
 BYTE   W06
 BYTE   N09
 BYTE   W12
 BYTE   N04
 BYTE   W06
 BYTE   N04
 BYTE   W06
 BYTE   N09
 BYTE   W12
 BYTE   Cn3
 BYTE   W12
// 054   ----------------------------------------
 BYTE   Cs3
 BYTE   W72
 BYTE   Bn2
 BYTE   W12
 BYTE   Cs3
 BYTE   W12
// 055   ----------------------------------------
 BYTE   W12
 BYTE   Bn2
 BYTE   W12
 BYTE   N19  Cs3
 BYTE   W24
 BYTE   N09  Bn2
 BYTE   W12
 BYTE   Cn3
 BYTE   W12
 BYTE   N19  Cs3
 BYTE   W24
// 056   ----------------------------------------
 BYTE   GoTo
  POIN2 Label_2_01904EAE
// 057   ----------------------------------------
 BYTE   W96
// 058   ----------------------------------------
 BYTE   W96
// 059   ----------------------------------------
 BYTE   W96
// 060   ----------------------------------------
 BYTE   W96
// 061   ----------------------------------------
 BYTE   W96
// 062   ----------------------------------------
 BYTE   W96
// 063   ----------------------------------------
 BYTE   W96
// 064   ----------------------------------------
 BYTE   W96
// 065   ----------------------------------------
 BYTE   W96
// 066   ----------------------------------------
 BYTE   W96
// 067   ----------------------------------------
 BYTE   W96
// 068   ----------------------------------------
 BYTE   W96
// 069   ----------------------------------------
 BYTE   W96
// 070   ----------------------------------------
 BYTE   W96
// 071   ----------------------------------------
 BYTE   W96
// 072   ----------------------------------------
 BYTE   W96
// 073   ----------------------------------------
 BYTE   W96
// 074   ----------------------------------------
 BYTE   W96
// 075   ----------------------------------------
 BYTE   W96
// 076   ----------------------------------------
 BYTE   W96
// 077   ----------------------------------------
 BYTE   W96
// 078   ----------------------------------------
 BYTE   W96
// 079   ----------------------------------------
 BYTE   W96
// 080   ----------------------------------------
 BYTE   W96
// 081   ----------------------------------------
 BYTE   W96
// 082   ----------------------------------------
 BYTE   W96
// 083   ----------------------------------------
 BYTE   W96
// 084   ----------------------------------------
 BYTE   W96
// 085   ----------------------------------------
 BYTE   W96
// 086   ----------------------------------------
 BYTE   W96
// 087   ----------------------------------------
 BYTE   W96
// 088   ----------------------------------------
 BYTE   W96
// 089   ----------------------------------------
 BYTE   W96
// 090   ----------------------------------------
 BYTE   W96
// 091   ----------------------------------------
 BYTE   W96
// 092   ----------------------------------------
 BYTE   W96
// 093   ----------------------------------------
 BYTE   W96
// 094   ----------------------------------------
 BYTE   W96
// 095   ----------------------------------------
 BYTE   W96
// 096   ----------------------------------------
 BYTE   W96
// 097   ----------------------------------------
 BYTE   W96
// 098   ----------------------------------------
 BYTE   W96
// 099   ----------------------------------------
 BYTE   W96
// 100   ----------------------------------------
 BYTE   W96
// 101   ----------------------------------------
 BYTE   W96
// 102   ----------------------------------------
 BYTE   W96
// 103   ----------------------------------------
 BYTE   W96
// 104   ----------------------------------------
 BYTE   W96
// 105   ----------------------------------------
 BYTE   W96
// 106   ----------------------------------------
 BYTE   W96
// 107   ----------------------------------------
 BYTE   W96
// 108   ----------------------------------------
 BYTE   W96
// 109   ----------------------------------------
 BYTE   W96
// 110   ----------------------------------------
 BYTE   W96
// 111   ----------------------------------------
 BYTE   W96
// 112   ----------------------------------------
 BYTE   W96
// 113   ----------------------------------------
 BYTE   W96
// 114   ----------------------------------------
 BYTE   W96
// 115   ----------------------------------------
 BYTE   W96
// 116   ----------------------------------------
 BYTE   W96
// 117   ----------------------------------------
 BYTE   W96
// 118   ----------------------------------------
 BYTE   W96
// 119   ----------------------------------------
 BYTE   W96
// 120   ----------------------------------------
 BYTE   W96
// 121   ----------------------------------------
 BYTE   W96
// 122   ----------------------------------------
 BYTE   W96
// 123   ----------------------------------------
 BYTE   W96
// 124   ----------------------------------------
 BYTE   W96
// 125   ----------------------------------------
 BYTE   W96
// 126   ----------------------------------------
 BYTE   W96
// 127   ----------------------------------------
 BYTE   W96
// 128   ----------------------------------------
 BYTE   W96
// 129   ----------------------------------------
 BYTE   W96
// 130   ----------------------------------------
 BYTE   W96
// 131   ----------------------------------------
 BYTE   W96
// 132   ----------------------------------------
 BYTE   W96
// 133   ----------------------------------------
 BYTE   W96
// 134   ----------------------------------------
 BYTE   W96
// 135   ----------------------------------------
 BYTE   W96
// 136   ----------------------------------------
 BYTE   W96
// 137   ----------------------------------------
 BYTE   W96
// 138   ----------------------------------------
 BYTE   W96
// 139   ----------------------------------------
 BYTE   W96
// 140   ----------------------------------------
 BYTE   W96
// 141   ----------------------------------------
 BYTE   W96
// 142   ----------------------------------------
 BYTE   W96
// 143   ----------------------------------------
 BYTE   W96
// 144   ----------------------------------------
 BYTE   W96
// 145   ----------------------------------------
 BYTE   W96
// 146   ----------------------------------------
 BYTE   W96
// 147   ----------------------------------------
 BYTE   W96
// 148   ----------------------------------------
 BYTE   W96
// 149   ----------------------------------------
 BYTE   W96
// 150   ----------------------------------------
 BYTE   W96
// 151   ----------------------------------------
 BYTE   W96
// 152   ----------------------------------------
 BYTE   W96
// 153   ----------------------------------------
 BYTE   W96
// 154   ----------------------------------------
 BYTE   W96
// 155   ----------------------------------------
 BYTE   W96
// 156   ----------------------------------------
 BYTE   W96
// 157   ----------------------------------------
 BYTE   W96
// 158   ----------------------------------------
 BYTE   W96
// 159   ----------------------------------------
 BYTE   W96
// 160   ----------------------------------------
 BYTE   W96
// 161   ----------------------------------------
 BYTE   W96
// 162   ----------------------------------------
 BYTE   W96
// 163   ----------------------------------------
 BYTE   W96
// 164   ----------------------------------------
 BYTE   W96
// 165   ----------------------------------------
 BYTE   W96
// 166   ----------------------------------------
 BYTE   W96
// 167   ----------------------------------------
 BYTE   W96
// 168   ----------------------------------------
 BYTE   W96
// 169   ----------------------------------------
 BYTE   W96
// 170   ----------------------------------------
 BYTE   W96
// 171   ----------------------------------------
 BYTE   W96
// 172   ----------------------------------------
 BYTE   W96
// 173   ----------------------------------------
 BYTE   W96
// 174   ----------------------------------------
 BYTE   W96
// 175   ----------------------------------------
 BYTE   W96
// 176   ----------------------------------------
 BYTE   W96
// 177   ----------------------------------------
 BYTE   W96
// 178   ----------------------------------------
 BYTE   W96
// 179   ----------------------------------------
 BYTE   W96
// 180   ----------------------------------------
 BYTE   W96
// 181   ----------------------------------------
 BYTE   W96
// 182   ----------------------------------------
 BYTE   W96
// 183   ----------------------------------------
 BYTE   W96
// 184   ----------------------------------------
 BYTE   W96
// 185   ----------------------------------------
 BYTE   W96
// 186   ----------------------------------------
 BYTE   W96
// 187   ----------------------------------------
 BYTE   W96
// 188   ----------------------------------------
 BYTE   W96
// 189   ----------------------------------------
 BYTE   W96
// 190   ----------------------------------------
 BYTE   W96
// 191   ----------------------------------------
 BYTE   W96
// 192   ----------------------------------------
 BYTE   W96
// 193   ----------------------------------------
 BYTE   W96
// 194   ----------------------------------------
 BYTE   W76
 BYTE   FINE

//**************** Track 4 (Midi-Chn.3) ****************//

Megaman2WilyStage7743_004:
// 000   ----------------------------------------
 BYTE   KEYSH   Megaman2WilyStage7743_key+0
Label_3_0190536A:
 BYTE   VOICE   32
 BYTE   PAN   c_v+0
 BYTE   VOL   40*Megaman2WilyStage7743_mvl/mxv
 BYTE   N11  Cs2  v127
 BYTE   W12
 BYTE   N05
 BYTE   W06
 BYTE   N05
 BYTE   W06
 BYTE   N11
 BYTE   W12
 BYTE   N05
 BYTE   W06
 BYTE   N05
 BYTE   W06
 BYTE   N11
 BYTE   W12
 BYTE   N05
 BYTE   W06
 BYTE   N05
 BYTE   W06
 BYTE   N11
 BYTE   W12
 BYTE   N05
 BYTE   W06
 BYTE   N05
 BYTE   W06
// 001   ----------------------------------------
Label_3_0190538A:
 BYTE   N11  Cs2  v127
 BYTE   W12
 BYTE   N05
 BYTE   W06
 BYTE   N05
 BYTE   W06
 BYTE   N11
 BYTE   W12
 BYTE   N05
 BYTE   W06
 BYTE   N05
 BYTE   W06
 BYTE   N11
 BYTE   W12
 BYTE   N05
 BYTE   W06
 BYTE   N05
 BYTE   W06
 BYTE   N11
 BYTE   W12
 BYTE   N05
 BYTE   W06
 BYTE   N05
 BYTE   W06
 BYTE   PEND 
// 002   ----------------------------------------
Label_3_019053A5:
 BYTE   N11  An1  v127
 BYTE   W12
 BYTE   N05
 BYTE   W06
 BYTE   N05
 BYTE   W06
 BYTE   N11
 BYTE   W12
 BYTE   N05
 BYTE   W06
 BYTE   N05
 BYTE   W06
 BYTE   N11
 BYTE   W12
 BYTE   N05
 BYTE   W06
 BYTE   N05
 BYTE   W06
 BYTE   N11
 BYTE   W12
 BYTE   N05
 BYTE   W06
 BYTE   N05
 BYTE   W06
 BYTE   PEND 
// 003   ----------------------------------------
 BYTE   PATT
  POIN2 Label_3_019053A5
// 004   ----------------------------------------
Label_3_019053C5:
 BYTE   N11  Bn1  v127
 BYTE   W12
 BYTE   N05
 BYTE   W06
 BYTE   N05
 BYTE   W06
 BYTE   N11
 BYTE   W12
 BYTE   N05
 BYTE   W06
 BYTE   N05
 BYTE   W06
 BYTE   N11
 BYTE   W12
 BYTE   N05
 BYTE   W06
 BYTE   N05
 BYTE   W06
 BYTE   N11
 BYTE   W12
 BYTE   N05
 BYTE   W06
 BYTE   N05
 BYTE   W06
 BYTE   PEND 
// 005   ----------------------------------------
 BYTE   PATT
  POIN2 Label_3_019053C5
// 006   ----------------------------------------
 BYTE   PATT
  POIN2 Label_3_0190538A
// 007   ----------------------------------------
Label_3_019053EA:
 BYTE   N11  Cs2  v127
 BYTE   W12
 BYTE   N05
 BYTE   W06
 BYTE   N05
 BYTE   W06
 BYTE   N11
 BYTE   W12
 BYTE   N05
 BYTE   W06
 BYTE   N05
 BYTE   W06
 BYTE   N11
 BYTE   W12
 BYTE   N05
 BYTE   W06
 BYTE   N05
 BYTE   W06
 BYTE   N11  Bn1
 BYTE   W12
 BYTE   Cs2
 BYTE   W12
 BYTE   PEND 
// 008   ----------------------------------------
 BYTE   PATT
  POIN2 Label_3_0190538A
// 009   ----------------------------------------
 BYTE   PATT
  POIN2 Label_3_0190538A
// 010   ----------------------------------------
 BYTE   PATT
  POIN2 Label_3_019053A5
// 011   ----------------------------------------
 BYTE   PATT
  POIN2 Label_3_019053A5
// 012   ----------------------------------------
 BYTE   PATT
  POIN2 Label_3_019053C5
// 013   ----------------------------------------
 BYTE   PATT
  POIN2 Label_3_019053C5
// 014   ----------------------------------------
 BYTE   PATT
  POIN2 Label_3_0190538A
// 015   ----------------------------------------
 BYTE   PATT
  POIN2 Label_3_019053EA
// 016   ----------------------------------------
Label_3_0190542C:
 BYTE   N11  Dn2  v127
 BYTE   W12
 BYTE   N05
 BYTE   W06
 BYTE   N05
 BYTE   W06
 BYTE   N11
 BYTE   W12
 BYTE   N05
 BYTE   W06
 BYTE   N05
 BYTE   W06
 BYTE   N11
 BYTE   W12
 BYTE   N05
 BYTE   W06
 BYTE   N05
 BYTE   W06
 BYTE   N11
 BYTE   W12
 BYTE   N05
 BYTE   W06
 BYTE   N05
 BYTE   W06
 BYTE   PEND 
// 017   ----------------------------------------
 BYTE   PATT
  POIN2 Label_3_0190542C
// 018   ----------------------------------------
 BYTE   PATT
  POIN2 Label_3_0190538A
// 019   ----------------------------------------
 BYTE   PATT
  POIN2 Label_3_0190538A
// 020   ----------------------------------------
 BYTE   PATT
  POIN2 Label_3_0190542C
// 021   ----------------------------------------
 BYTE   PATT
  POIN2 Label_3_0190542C
// 022   ----------------------------------------
 BYTE   PATT
  POIN2 Label_3_019053C5
// 023   ----------------------------------------
Label_3_01905465:
 BYTE   N11  Cn2  v127
 BYTE   W12
 BYTE   N05
 BYTE   W06
 BYTE   N05
 BYTE   W06
 BYTE   N11
 BYTE   W12
 BYTE   N05
 BYTE   W06
 BYTE   N05
 BYTE   W06
 BYTE   N11
 BYTE   W12
 BYTE   N05
 BYTE   W06
 BYTE   N05
 BYTE   W06
 BYTE   N11
 BYTE   W12
 BYTE   N05
 BYTE   W06
 BYTE   N05
 BYTE   W06
 BYTE   PEND 
// 024   ----------------------------------------
 BYTE   PATT
  POIN2 Label_3_0190538A
// 025   ----------------------------------------
 BYTE   PATT
  POIN2 Label_3_0190538A
// 026   ----------------------------------------
 BYTE   PATT
  POIN2 Label_3_019053A5
// 027   ----------------------------------------
 BYTE   PATT
  POIN2 Label_3_019053A5
// 028   ----------------------------------------
 BYTE   PATT
  POIN2 Label_3_019053C5
// 029   ----------------------------------------
 BYTE   PATT
  POIN2 Label_3_019053C5
// 030   ----------------------------------------
 BYTE   PATT
  POIN2 Label_3_0190538A
// 031   ----------------------------------------
 BYTE   PATT
  POIN2 Label_3_019053EA
// 032   ----------------------------------------
 BYTE   PATT
  POIN2 Label_3_0190538A
// 033   ----------------------------------------
 BYTE   PATT
  POIN2 Label_3_0190538A
// 034   ----------------------------------------
 BYTE   PATT
  POIN2 Label_3_019053A5
// 035   ----------------------------------------
 BYTE   PATT
  POIN2 Label_3_019053A5
// 036   ----------------------------------------
 BYTE   PATT
  POIN2 Label_3_019053C5
// 037   ----------------------------------------
 BYTE   PATT
  POIN2 Label_3_019053C5
// 038   ----------------------------------------
 BYTE   PATT
  POIN2 Label_3_0190538A
// 039   ----------------------------------------
 BYTE   PATT
  POIN2 Label_3_019053EA
// 040   ----------------------------------------
 BYTE   PATT
  POIN2 Label_3_0190542C
// 041   ----------------------------------------
 BYTE   PATT
  POIN2 Label_3_0190542C
// 042   ----------------------------------------
 BYTE   PATT
  POIN2 Label_3_0190538A
// 043   ----------------------------------------
 BYTE   PATT
  POIN2 Label_3_0190538A
// 044   ----------------------------------------
 BYTE   PATT
  POIN2 Label_3_0190542C
// 045   ----------------------------------------
 BYTE   PATT
  POIN2 Label_3_0190542C
// 046   ----------------------------------------
 BYTE   PATT
  POIN2 Label_3_019053C5
// 047   ----------------------------------------
 BYTE   PATT
  POIN2 Label_3_01905465
// 048   ----------------------------------------
 BYTE   PATT
  POIN2 Label_3_019053A5
// 049   ----------------------------------------
 BYTE   N11  Bn1  v127
 BYTE   W12
 BYTE   N05
 BYTE   W06
 BYTE   N05
 BYTE   W06
 BYTE   N11
 BYTE   W12
 BYTE   N05
 BYTE   W06
 BYTE   N05
 BYTE   W06
 BYTE   N11
 BYTE   W12
 BYTE   N05
 BYTE   W06
 BYTE   N05
 BYTE   W06
 BYTE   N11
 BYTE   W12
 BYTE   N23  Cs1
 BYTE   W12
// 050   ----------------------------------------
 BYTE   W12
 BYTE   N11
 BYTE   W12
 BYTE   N20  Ds1
 BYTE   W24
 BYTE   En1
 BYTE   W24
 BYTE   N11  Ds1
 BYTE   W12
 BYTE   N23  Cs1
 BYTE   W12
// 051   ----------------------------------------
 BYTE   W12
 BYTE   N11
 BYTE   W12
 BYTE   N20  Ds1
 BYTE   W24
 BYTE   En1
 BYTE   W24
 BYTE   Ds1
 BYTE   W24
// 052   ----------------------------------------
 BYTE   PATT
  POIN2 Label_3_019053A5
// 053   ----------------------------------------
 BYTE   N11  Bn1  v127
 BYTE   W12
 BYTE   N05
 BYTE   W06
 BYTE   N05
 BYTE   W06
 BYTE   N11
 BYTE   W12
 BYTE   N05
 BYTE   W06
 BYTE   N05
 BYTE   W06
 BYTE   N11
 BYTE   W12
 BYTE   N05
 BYTE   W06
 BYTE   N05
 BYTE   W06
 BYTE   N11  Cn2
 BYTE   W12
 BYTE   N05
 BYTE   W06
 BYTE   N05
 BYTE   W06
// 054   ----------------------------------------
 BYTE   PATT
  POIN2 Label_3_0190538A
// 055   ----------------------------------------
 BYTE   PATT
  POIN2 Label_3_0190538A
// 056   ----------------------------------------
 BYTE   GoTo
  POIN2 Label_3_0190536A
// 057   ----------------------------------------
 BYTE   W96
// 058   ----------------------------------------
 BYTE   W96
// 059   ----------------------------------------
 BYTE   W96
// 060   ----------------------------------------
 BYTE   W96
// 061   ----------------------------------------
 BYTE   W96
// 062   ----------------------------------------
 BYTE   W96
// 063   ----------------------------------------
 BYTE   W96
// 064   ----------------------------------------
 BYTE   W96
// 065   ----------------------------------------
 BYTE   W96
// 066   ----------------------------------------
 BYTE   W96
// 067   ----------------------------------------
 BYTE   W96
// 068   ----------------------------------------
 BYTE   W96
// 069   ----------------------------------------
 BYTE   W96
// 070   ----------------------------------------
 BYTE   W96
// 071   ----------------------------------------
 BYTE   W96
// 072   ----------------------------------------
 BYTE   W96
// 073   ----------------------------------------
 BYTE   W96
// 074   ----------------------------------------
 BYTE   W96
// 075   ----------------------------------------
 BYTE   W96
// 076   ----------------------------------------
 BYTE   W96
// 077   ----------------------------------------
 BYTE   W96
// 078   ----------------------------------------
 BYTE   W96
// 079   ----------------------------------------
 BYTE   W96
// 080   ----------------------------------------
 BYTE   W96
// 081   ----------------------------------------
 BYTE   W96
// 082   ----------------------------------------
 BYTE   W96
// 083   ----------------------------------------
 BYTE   W96
// 084   ----------------------------------------
 BYTE   W96
// 085   ----------------------------------------
 BYTE   W96
// 086   ----------------------------------------
 BYTE   W96
// 087   ----------------------------------------
 BYTE   W96
// 088   ----------------------------------------
 BYTE   W96
// 089   ----------------------------------------
 BYTE   W96
// 090   ----------------------------------------
 BYTE   W96
// 091   ----------------------------------------
 BYTE   W96
// 092   ----------------------------------------
 BYTE   W96
// 093   ----------------------------------------
 BYTE   W96
// 094   ----------------------------------------
 BYTE   W96
// 095   ----------------------------------------
 BYTE   W96
// 096   ----------------------------------------
 BYTE   W96
// 097   ----------------------------------------
 BYTE   W96
// 098   ----------------------------------------
 BYTE   W96
// 099   ----------------------------------------
 BYTE   W96
// 100   ----------------------------------------
 BYTE   W96
// 101   ----------------------------------------
 BYTE   W96
// 102   ----------------------------------------
 BYTE   W96
// 103   ----------------------------------------
 BYTE   W96
// 104   ----------------------------------------
 BYTE   W96
// 105   ----------------------------------------
 BYTE   W96
// 106   ----------------------------------------
 BYTE   W96
// 107   ----------------------------------------
 BYTE   W96
// 108   ----------------------------------------
 BYTE   W96
// 109   ----------------------------------------
 BYTE   W96
// 110   ----------------------------------------
 BYTE   W96
// 111   ----------------------------------------
 BYTE   W96
// 112   ----------------------------------------
 BYTE   W96
// 113   ----------------------------------------
 BYTE   W96
// 114   ----------------------------------------
 BYTE   W96
// 115   ----------------------------------------
 BYTE   W96
// 116   ----------------------------------------
 BYTE   W96
// 117   ----------------------------------------
 BYTE   W96
// 118   ----------------------------------------
 BYTE   W96
// 119   ----------------------------------------
 BYTE   W96
// 120   ----------------------------------------
 BYTE   W96
// 121   ----------------------------------------
 BYTE   W96
// 122   ----------------------------------------
 BYTE   W96
// 123   ----------------------------------------
 BYTE   W96
// 124   ----------------------------------------
 BYTE   W96
// 125   ----------------------------------------
 BYTE   W96
// 126   ----------------------------------------
 BYTE   W96
// 127   ----------------------------------------
 BYTE   W96
// 128   ----------------------------------------
 BYTE   W96
// 129   ----------------------------------------
 BYTE   W96
// 130   ----------------------------------------
 BYTE   W96
// 131   ----------------------------------------
 BYTE   W96
// 132   ----------------------------------------
 BYTE   W96
// 133   ----------------------------------------
 BYTE   W96
// 134   ----------------------------------------
 BYTE   W96
// 135   ----------------------------------------
 BYTE   W96
// 136   ----------------------------------------
 BYTE   W96
// 137   ----------------------------------------
 BYTE   W96
// 138   ----------------------------------------
 BYTE   W96
// 139   ----------------------------------------
 BYTE   W96
// 140   ----------------------------------------
 BYTE   W96
// 141   ----------------------------------------
 BYTE   W96
// 142   ----------------------------------------
 BYTE   W96
// 143   ----------------------------------------
 BYTE   W96
// 144   ----------------------------------------
 BYTE   W96
// 145   ----------------------------------------
 BYTE   W96
// 146   ----------------------------------------
 BYTE   W96
// 147   ----------------------------------------
 BYTE   W96
// 148   ----------------------------------------
 BYTE   W96
// 149   ----------------------------------------
 BYTE   W96
// 150   ----------------------------------------
 BYTE   W96
// 151   ----------------------------------------
 BYTE   W96
// 152   ----------------------------------------
 BYTE   W96
// 153   ----------------------------------------
 BYTE   W96
// 154   ----------------------------------------
 BYTE   W96
// 155   ----------------------------------------
 BYTE   W96
// 156   ----------------------------------------
 BYTE   W96
// 157   ----------------------------------------
 BYTE   W96
// 158   ----------------------------------------
 BYTE   W96
// 159   ----------------------------------------
 BYTE   W96
// 160   ----------------------------------------
 BYTE   W96
// 161   ----------------------------------------
 BYTE   W96
// 162   ----------------------------------------
 BYTE   W96
// 163   ----------------------------------------
 BYTE   W96
// 164   ----------------------------------------
 BYTE   W96
// 165   ----------------------------------------
 BYTE   W96
// 166   ----------------------------------------
 BYTE   W96
// 167   ----------------------------------------
 BYTE   W96
// 168   ----------------------------------------
 BYTE   W96
// 169   ----------------------------------------
 BYTE   W96
// 170   ----------------------------------------
 BYTE   W96
// 171   ----------------------------------------
 BYTE   W96
// 172   ----------------------------------------
 BYTE   W96
// 173   ----------------------------------------
 BYTE   W96
// 174   ----------------------------------------
 BYTE   W96
// 175   ----------------------------------------
 BYTE   W96
// 176   ----------------------------------------
 BYTE   W96
// 177   ----------------------------------------
 BYTE   W96
// 178   ----------------------------------------
 BYTE   W96
// 179   ----------------------------------------
 BYTE   W96
// 180   ----------------------------------------
 BYTE   W96
// 181   ----------------------------------------
 BYTE   W96
// 182   ----------------------------------------
 BYTE   W96
// 183   ----------------------------------------
 BYTE   W96
// 184   ----------------------------------------
 BYTE   W96
// 185   ----------------------------------------
 BYTE   W96
// 186   ----------------------------------------
 BYTE   W96
// 187   ----------------------------------------
 BYTE   W96
// 188   ----------------------------------------
 BYTE   W96
// 189   ----------------------------------------
 BYTE   W96
// 190   ----------------------------------------
 BYTE   W96
// 191   ----------------------------------------
 BYTE   W96
// 192   ----------------------------------------
 BYTE   W96
// 193   ----------------------------------------
 BYTE   W92
 BYTE   W02
 BYTE   FINE

//**************** Track 5 (Midi-Chn.4) ****************//

Megaman2WilyStage7743_005:
// 000   ----------------------------------------
 BYTE   KEYSH   Megaman2WilyStage7743_key+0
Label_4_019055EA:
 BYTE   VOICE   29
 BYTE   PAN   c_v+0
 BYTE   VOL   54*Megaman2WilyStage7743_mvl/mxv
 BYTE   N09  Cs3  v080
 BYTE   W12
 BYTE   N04  En3
 BYTE   W06
 BYTE   N04
 BYTE   W06
 BYTE   N09
 BYTE   W12
 BYTE   N04
 BYTE   W06
 BYTE   N04
 BYTE   W06
 BYTE   N11
 BYTE   W12
 BYTE   Cs3
 BYTE   W24
 BYTE   N04
 BYTE   W06
 BYTE   N04
 BYTE   W06
// 001   ----------------------------------------
Label_4_01905607:
 BYTE   N09  En3  v080
 BYTE   W12
 BYTE   N04
 BYTE   W06
 BYTE   N04
 BYTE   W06
 BYTE   N09
 BYTE   W12
 BYTE   Cs3
 BYTE   W24
 BYTE   Gs3
 BYTE   W12
 BYTE   Fs3
 BYTE   W12
 BYTE   Gs3
 BYTE   W12
 BYTE   PEND 
// 002   ----------------------------------------
Label_4_0190561A:
 BYTE   W12
 BYTE   N04  En3  v080
 BYTE   W06
 BYTE   N04
 BYTE   W06
 BYTE   N09
 BYTE   W12
 BYTE   N04
 BYTE   W06
 BYTE   N04
 BYTE   W06
 BYTE   N09
 BYTE   W12
 BYTE   Cs3
 BYTE   W24
 BYTE   Gs3
 BYTE   W12
 BYTE   PEND 
// 003   ----------------------------------------
Label_4_0190562E:
 BYTE   W12
 BYTE   N09  Fs3  v080
 BYTE   W24
 BYTE   En3
 BYTE   W24
 BYTE   Fs3
 BYTE   W36
 BYTE   PEND 
// 004   ----------------------------------------
Label_4_01905638:
 BYTE   W12
 BYTE   N04  Fs3  v080
 BYTE   W06
 BYTE   N04
 BYTE   W06
 BYTE   N09
 BYTE   W12
 BYTE   N04
 BYTE   W06
 BYTE   N04
 BYTE   W06
 BYTE   N09
 BYTE   W12
 BYTE   Ds3
 BYTE   W24
 BYTE   Gs3
 BYTE   W12
 BYTE   PEND 
// 005   ----------------------------------------
Label_4_0190564C:
 BYTE   W12
 BYTE   N09  Fs3  v080
 BYTE   W24
 BYTE   En3
 BYTE   W24
 BYTE   Ds3
 BYTE   W24
 BYTE   Cs3
 BYTE   W12
 BYTE   PEND 
// 006   ----------------------------------------
Label_4_01905658:
 BYTE   W12
 BYTE   N09  Cs3  v080
 BYTE   W12
 BYTE   Gs3
 BYTE   W12
 BYTE   Bn3
 BYTE   W12
 BYTE   N30  As3
 BYTE   W36
 BYTE   N09  Cs3
 BYTE   W12
 BYTE   PEND 
// 007   ----------------------------------------
 BYTE   W12
 BYTE   N09
 BYTE   W12
 BYTE   Gs3
 BYTE   W12
 BYTE   Bn3
 BYTE   W12
 BYTE   N23  As3
 BYTE   W24
 BYTE   N09  Ds4
 BYTE   W12
 BYTE   En4
 BYTE   W12
// 008   ----------------------------------------
 BYTE   W12
 BYTE   N04  En3
 BYTE   W06
 BYTE   N04
 BYTE   W06
 BYTE   N09
 BYTE   W12
 BYTE   N04
 BYTE   W06
 BYTE   N04
 BYTE   W06
 BYTE   N11
 BYTE   W12
 BYTE   Cs3
 BYTE   W24
 BYTE   N04
 BYTE   W06
 BYTE   N04
 BYTE   W06
// 009   ----------------------------------------
 BYTE   PATT
  POIN2 Label_4_01905607
// 010   ----------------------------------------
 BYTE   PATT
  POIN2 Label_4_0190561A
// 011   ----------------------------------------
 BYTE   PATT
  POIN2 Label_4_0190562E
// 012   ----------------------------------------
 BYTE   PATT
  POIN2 Label_4_01905638
// 013   ----------------------------------------
 BYTE   PATT
  POIN2 Label_4_0190564C
// 014   ----------------------------------------
 BYTE   PATT
  POIN2 Label_4_01905658
// 015   ----------------------------------------
 BYTE   W12
 BYTE   N09  Cs3  v080
 BYTE   W12
 BYTE   Gs3
 BYTE   W12
 BYTE   Bn3
 BYTE   W12
 BYTE   N23  As3
 BYTE   W24
 BYTE   N09  Bn3
 BYTE   W12
 BYTE   N68  Cs4
 BYTE   W12
// 016   ----------------------------------------
Label_4_019056BB:
 BYTE   W72
 BYTE   N09  Bn3  v080
 BYTE   W12
 BYTE   N21  En4
 BYTE   W12
 BYTE   PEND 
// 017   ----------------------------------------
Label_4_019056C4:
 BYTE   W12
 BYTE   N19  Cs4  v080
 BYTE   W24
 BYTE   N24  Bn3
 BYTE   W24
 BYTE   N19  Cs4
 BYTE   W24
 BYTE   N48  Bn3
 BYTE   W12
 BYTE   PEND 
// 018   ----------------------------------------
Label_4_019056D3:
 BYTE   W48
 BYTE   N09  Bn3  v080
 BYTE   W12
 BYTE   N32  Cs4
 BYTE   W36
 BYTE   PEND 
// 019   ----------------------------------------
Label_4_019056DC:
 BYTE   N09  Gs3  v080
 BYTE   W12
 BYTE   An3
 BYTE   W12
 BYTE   Gs3
 BYTE   W12
 BYTE   En3
 BYTE   W24
 BYTE   N09
 BYTE   W12
 BYTE   Gs3
 BYTE   W12
 BYTE   Bn3
 BYTE   W12
 BYTE   PEND 
// 020   ----------------------------------------
Label_4_019056ED:
 BYTE   N56  Cs4  v080
 BYTE   W72
 BYTE   N09  Bn3
 BYTE   W12
 BYTE   N21  En4
 BYTE   W12
 BYTE   PEND 
// 021   ----------------------------------------
Label_4_019056F8:
 BYTE   W12
 BYTE   N19  Cs4  v080
 BYTE   W24
 BYTE   N24  Bn3
 BYTE   W24
 BYTE   N19  Cs4
 BYTE   W24
 BYTE   N56  Bn3
 BYTE   W12
 BYTE   PEND 
// 022   ----------------------------------------
Label_4_01905707:
 BYTE   W48
 BYTE   N09  Bn3  v080
 BYTE   W12
 BYTE   Gs3
 BYTE   W12
 BYTE   Bn3
 BYTE   W12
 BYTE   Cn4
 BYTE   W12
 BYTE   PEND 
// 023   ----------------------------------------
 BYTE   W12
 BYTE   N09
 BYTE   W12
 BYTE   N09
 BYTE   W12
 BYTE   Ds4
 BYTE   W12
 BYTE   N44  Gs4
 BYTE   W48
// 024   ----------------------------------------
 BYTE   W96
// 025   ----------------------------------------
 BYTE   W96
// 026   ----------------------------------------
 BYTE   W96
// 027   ----------------------------------------
 BYTE   W96
// 028   ----------------------------------------
 BYTE   W96
// 029   ----------------------------------------
 BYTE   W84
 BYTE   N09  Cs3
 BYTE   W12
// 030   ----------------------------------------
 BYTE   W12
 BYTE   N09
 BYTE   W12
 BYTE   Gs3
 BYTE   W12
 BYTE   Bn3
 BYTE   W12
 BYTE   N32  As3
 BYTE   W36
 BYTE   N09  Cs3
 BYTE   W12
// 031   ----------------------------------------
 BYTE   W12
 BYTE   N09
 BYTE   W12
 BYTE   Gs3
 BYTE   W12
 BYTE   Bn3
 BYTE   W12
 BYTE   As3
 BYTE   W24
 BYTE   Bn3
 BYTE   W24
// 032   ----------------------------------------
 BYTE   W96
// 033   ----------------------------------------
 BYTE   W96
// 034   ----------------------------------------
 BYTE   W96
// 035   ----------------------------------------
 BYTE   W96
// 036   ----------------------------------------
 BYTE   W96
// 037   ----------------------------------------
 BYTE   W96
// 038   ----------------------------------------
 BYTE   W84
 BYTE   Cs3
 BYTE   W12
// 039   ----------------------------------------
 BYTE   W12
 BYTE   N09
 BYTE   W12
 BYTE   Gs3
 BYTE   W12
 BYTE   Bn3
 BYTE   W12
 BYTE   As3
 BYTE   W24
 BYTE   Bn3
 BYTE   W12
 BYTE   N68  Cs4
 BYTE   W12
// 040   ----------------------------------------
 BYTE   PATT
  POIN2 Label_4_019056BB
// 041   ----------------------------------------
 BYTE   PATT
  POIN2 Label_4_019056C4
// 042   ----------------------------------------
 BYTE   PATT
  POIN2 Label_4_019056D3
// 043   ----------------------------------------
 BYTE   PATT
  POIN2 Label_4_019056DC
// 044   ----------------------------------------
 BYTE   PATT
  POIN2 Label_4_019056ED
// 045   ----------------------------------------
 BYTE   PATT
  POIN2 Label_4_019056F8
// 046   ----------------------------------------
 BYTE   PATT
  POIN2 Label_4_01905707
// 047   ----------------------------------------
 BYTE   W12
 BYTE   N09  Cn4  v080
 BYTE   W12
 BYTE   N09
 BYTE   W12
 BYTE   Ds4
 BYTE   W12
 BYTE   N28  Gs4
 BYTE   W36
 BYTE   N21  En3
 BYTE   W12
// 048   ----------------------------------------
Label_4_01905787:
 BYTE   W12
 BYTE   N09  En3  v080
 BYTE   W12
 BYTE   N09
 BYTE   W12
 BYTE   Ds3
 BYTE   W12
 BYTE   N19  En3
 BYTE   W24
 BYTE   N09  Cs4
 BYTE   W12
 BYTE   N23  Bn3
 BYTE   W12
 BYTE   PEND 
// 049   ----------------------------------------
 BYTE   W12
 BYTE   N19  An3
 BYTE   W24
 BYTE   N24  Gs3
 BYTE   W24
 BYTE   N19  Fs3
 BYTE   W24
 BYTE   N09
 BYTE   W12
// 050   ----------------------------------------
 BYTE   W12
 BYTE   Gs3
 BYTE   W12
 BYTE   N11
 BYTE   W24
 BYTE   N11
 BYTE   W36
 BYTE   N09  Fs3
 BYTE   W12
// 051   ----------------------------------------
 BYTE   W12
 BYTE   Gs3
 BYTE   W12
 BYTE   N09
 BYTE   W24
 BYTE   N09
 BYTE   W24
 BYTE   Fs3
 BYTE   W12
 BYTE   En3
 BYTE   W12
// 052   ----------------------------------------
 BYTE   PATT
  POIN2 Label_4_01905787
// 053   ----------------------------------------
 BYTE   W12
 BYTE   N19  An3  v080
 BYTE   W24
 BYTE   N24  Gs3
 BYTE   W24
 BYTE   N19  Fs3
 BYTE   W36
// 054   ----------------------------------------
 BYTE   N09  Ds3
 BYTE   W12
 BYTE   En3
 BYTE   W12
 BYTE   Ds3
 BYTE   W12
 BYTE   N60  Cs3
 BYTE   W60
// 055   ----------------------------------------
 BYTE   W96
// 056   ----------------------------------------
 BYTE   GoTo
  POIN2 Label_4_019055EA
// 057   ----------------------------------------
 BYTE   W96
// 058   ----------------------------------------
 BYTE   W96
// 059   ----------------------------------------
 BYTE   W96
// 060   ----------------------------------------
 BYTE   W96
// 061   ----------------------------------------
 BYTE   W96
// 062   ----------------------------------------
 BYTE   W96
// 063   ----------------------------------------
 BYTE   W96
// 064   ----------------------------------------
 BYTE   W96
// 065   ----------------------------------------
 BYTE   W96
// 066   ----------------------------------------
 BYTE   W96
// 067   ----------------------------------------
 BYTE   W96
// 068   ----------------------------------------
 BYTE   W96
// 069   ----------------------------------------
 BYTE   W96
// 070   ----------------------------------------
 BYTE   W96
// 071   ----------------------------------------
 BYTE   W96
// 072   ----------------------------------------
 BYTE   W96
// 073   ----------------------------------------
 BYTE   W96
// 074   ----------------------------------------
 BYTE   W96
// 075   ----------------------------------------
 BYTE   W96
// 076   ----------------------------------------
 BYTE   W96
// 077   ----------------------------------------
 BYTE   W96
// 078   ----------------------------------------
 BYTE   W96
// 079   ----------------------------------------
 BYTE   W96
// 080   ----------------------------------------
 BYTE   W96
// 081   ----------------------------------------
 BYTE   W96
// 082   ----------------------------------------
 BYTE   W96
// 083   ----------------------------------------
 BYTE   W96
// 084   ----------------------------------------
 BYTE   W96
// 085   ----------------------------------------
 BYTE   W96
// 086   ----------------------------------------
 BYTE   W96
// 087   ----------------------------------------
 BYTE   W96
// 088   ----------------------------------------
 BYTE   W96
// 089   ----------------------------------------
 BYTE   W96
// 090   ----------------------------------------
 BYTE   W96
// 091   ----------------------------------------
 BYTE   W96
// 092   ----------------------------------------
 BYTE   W96
// 093   ----------------------------------------
 BYTE   W96
// 094   ----------------------------------------
 BYTE   W96
// 095   ----------------------------------------
 BYTE   W96
// 096   ----------------------------------------
 BYTE   W96
// 097   ----------------------------------------
 BYTE   W96
// 098   ----------------------------------------
 BYTE   W96
// 099   ----------------------------------------
 BYTE   W96
// 100   ----------------------------------------
 BYTE   W96
// 101   ----------------------------------------
 BYTE   W96
// 102   ----------------------------------------
 BYTE   W96
// 103   ----------------------------------------
 BYTE   W96
// 104   ----------------------------------------
 BYTE   W96
// 105   ----------------------------------------
 BYTE   W96
// 106   ----------------------------------------
 BYTE   W96
// 107   ----------------------------------------
 BYTE   W96
// 108   ----------------------------------------
 BYTE   W96
// 109   ----------------------------------------
 BYTE   W96
// 110   ----------------------------------------
 BYTE   W96
// 111   ----------------------------------------
 BYTE   W96
// 112   ----------------------------------------
 BYTE   W96
// 113   ----------------------------------------
 BYTE   W96
// 114   ----------------------------------------
 BYTE   W96
// 115   ----------------------------------------
 BYTE   W96
// 116   ----------------------------------------
 BYTE   W96
// 117   ----------------------------------------
 BYTE   W96
// 118   ----------------------------------------
 BYTE   W96
// 119   ----------------------------------------
 BYTE   W96
// 120   ----------------------------------------
 BYTE   W96
// 121   ----------------------------------------
 BYTE   W96
// 122   ----------------------------------------
 BYTE   W96
// 123   ----------------------------------------
 BYTE   W96
// 124   ----------------------------------------
 BYTE   W96
// 125   ----------------------------------------
 BYTE   W96
// 126   ----------------------------------------
 BYTE   W96
// 127   ----------------------------------------
 BYTE   W96
// 128   ----------------------------------------
 BYTE   W96
// 129   ----------------------------------------
 BYTE   W96
// 130   ----------------------------------------
 BYTE   W96
// 131   ----------------------------------------
 BYTE   W96
// 132   ----------------------------------------
 BYTE   W96
// 133   ----------------------------------------
 BYTE   W96
// 134   ----------------------------------------
 BYTE   W96
// 135   ----------------------------------------
 BYTE   W96
// 136   ----------------------------------------
 BYTE   W96
// 137   ----------------------------------------
 BYTE   W96
// 138   ----------------------------------------
 BYTE   W96
// 139   ----------------------------------------
 BYTE   W96
// 140   ----------------------------------------
 BYTE   W96
// 141   ----------------------------------------
 BYTE   W96
// 142   ----------------------------------------
 BYTE   W96
// 143   ----------------------------------------
 BYTE   W96
// 144   ----------------------------------------
 BYTE   W96
// 145   ----------------------------------------
 BYTE   W96
// 146   ----------------------------------------
 BYTE   W96
// 147   ----------------------------------------
 BYTE   W96
// 148   ----------------------------------------
 BYTE   W96
// 149   ----------------------------------------
 BYTE   W96
// 150   ----------------------------------------
 BYTE   W96
// 151   ----------------------------------------
 BYTE   W96
// 152   ----------------------------------------
 BYTE   W96
// 153   ----------------------------------------
 BYTE   W96
// 154   ----------------------------------------
 BYTE   W96
// 155   ----------------------------------------
 BYTE   W96
// 156   ----------------------------------------
 BYTE   W96
// 157   ----------------------------------------
 BYTE   W96
// 158   ----------------------------------------
 BYTE   W96
// 159   ----------------------------------------
 BYTE   W96
// 160   ----------------------------------------
 BYTE   W96
// 161   ----------------------------------------
 BYTE   W96
// 162   ----------------------------------------
 BYTE   W96
// 163   ----------------------------------------
 BYTE   W96
// 164   ----------------------------------------
 BYTE   W96
// 165   ----------------------------------------
 BYTE   W96
// 166   ----------------------------------------
 BYTE   W96
// 167   ----------------------------------------
 BYTE   W96
// 168   ----------------------------------------
 BYTE   W96
// 169   ----------------------------------------
 BYTE   W96
// 170   ----------------------------------------
 BYTE   W96
// 171   ----------------------------------------
 BYTE   W96
// 172   ----------------------------------------
 BYTE   W96
// 173   ----------------------------------------
 BYTE   W96
// 174   ----------------------------------------
 BYTE   W96
// 175   ----------------------------------------
 BYTE   W96
// 176   ----------------------------------------
 BYTE   W96
// 177   ----------------------------------------
 BYTE   W96
// 178   ----------------------------------------
 BYTE   W96
// 179   ----------------------------------------
 BYTE   W96
// 180   ----------------------------------------
 BYTE   W96
// 181   ----------------------------------------
 BYTE   W96
// 182   ----------------------------------------
 BYTE   W96
// 183   ----------------------------------------
 BYTE   W76
 BYTE   FINE

//**************** Track 6 (Midi-Chn.5) ****************//

Megaman2WilyStage7743_006:
// 000   ----------------------------------------
 BYTE   KEYSH   Megaman2WilyStage7743_key+0
Label_5_01917636:
 BYTE   VOICE   65
 BYTE   PAN   c_v+0
 BYTE   VOL   60*Megaman2WilyStage7743_mvl/mxv
 BYTE   W96
// 001   ----------------------------------------
 BYTE   W96
// 002   ----------------------------------------
 BYTE   W96
// 003   ----------------------------------------
 BYTE   W96
// 004   ----------------------------------------
 BYTE   W96
// 005   ----------------------------------------
 BYTE   W96
// 006   ----------------------------------------
 BYTE   W96
// 007   ----------------------------------------
 BYTE   W96
// 008   ----------------------------------------
 BYTE   W96
// 009   ----------------------------------------
 BYTE   W96
// 010   ----------------------------------------
 BYTE   W96
// 011   ----------------------------------------
 BYTE   W96
// 012   ----------------------------------------
 BYTE   W96
// 013   ----------------------------------------
 BYTE   W96
// 014   ----------------------------------------
 BYTE   W96
// 015   ----------------------------------------
 BYTE   W96
// 016   ----------------------------------------
 BYTE   W96
// 017   ----------------------------------------
 BYTE   W96
// 018   ----------------------------------------
 BYTE   W96
// 019   ----------------------------------------
 BYTE   W96
// 020   ----------------------------------------
 BYTE   W96
// 021   ----------------------------------------
 BYTE   W96
// 022   ----------------------------------------
 BYTE   W96
// 023   ----------------------------------------
 BYTE   W96
// 024   ----------------------------------------
 BYTE   N56  Gs2  v080
 BYTE   W72
 BYTE   N09  Fs2
 BYTE   W12
 BYTE   N21  Bn2
 BYTE   W12
// 025   ----------------------------------------
 BYTE   W12
 BYTE   N19  An2
 BYTE   W24
 BYTE   N24  Gs2
 BYTE   W24
 BYTE   N19  An2
 BYTE   W24
 BYTE   N68  Gs2
 BYTE   W12
// 026   ----------------------------------------
 BYTE   W72
 BYTE   N09  Fs2
 BYTE   W12
 BYTE   N21  Bn2
 BYTE   W12
// 027   ----------------------------------------
 BYTE   W12
 BYTE   N19  An2
 BYTE   W24
 BYTE   N24  Gs2
 BYTE   W24
 BYTE   N19  An2
 BYTE   W24
 BYTE   N48  En2
 BYTE   W12
// 028   ----------------------------------------
 BYTE   W48
 BYTE   N09
 BYTE   W12
 BYTE   Fs2
 BYTE   W12
 BYTE   Gs2
 BYTE   W12
 BYTE   N78  Ds2
 BYTE   W12
// 029   ----------------------------------------
 BYTE   W96
// 030   ----------------------------------------
 BYTE   W96
// 031   ----------------------------------------
 BYTE   W84
 BYTE   N48  Cs4
 BYTE   W12
// 032   ----------------------------------------
 BYTE   W48
 BYTE   N19
 BYTE   W24
 BYTE   N09  Bn3
 BYTE   W12
 BYTE   Cs4
 BYTE   W12
// 033   ----------------------------------------
 BYTE   W12
 BYTE   N28  En4
 BYTE   W36
 BYTE   N09  Gs4
 BYTE   W12
 BYTE   Fs4
 BYTE   W12
 BYTE   En4
 BYTE   W12
 BYTE   Ds4
 BYTE   W12
// 034   ----------------------------------------
 BYTE   N36  Cs4
 BYTE   W48
 BYTE   N19
 BYTE   W24
 BYTE   N09  Bn3
 BYTE   W12
 BYTE   Cs4
 BYTE   W12
// 035   ----------------------------------------
 BYTE   W12
 BYTE   N28  En4
 BYTE   W36
 BYTE   N09
 BYTE   W12
 BYTE   Fs4
 BYTE   W12
 BYTE   N22  En4
 BYTE   W24
// 036   ----------------------------------------
 BYTE   N36  Ds4
 BYTE   W48
 BYTE   N09
 BYTE   W12
 BYTE   Cs4
 BYTE   W12
 BYTE   Bn3
 BYTE   W12
 BYTE   N21  Gs4
 BYTE   W12
// 037   ----------------------------------------
 BYTE   W12
 BYTE   N19  Fs4
 BYTE   W24
 BYTE   N24  En4
 BYTE   W24
 BYTE   N19  Ds4
 BYTE   W36
// 038   ----------------------------------------
 BYTE   N09
 BYTE   W12
 BYTE   En4
 BYTE   W12
 BYTE   Ds4
 BYTE   W12
 BYTE   N56  Cs4
 BYTE   W60
// 039   ----------------------------------------
 BYTE   W96
// 040   ----------------------------------------
 BYTE   W96
// 041   ----------------------------------------
 BYTE   W96
// 042   ----------------------------------------
 BYTE   W96
// 043   ----------------------------------------
 BYTE   W96
// 044   ----------------------------------------
 BYTE   W96
// 045   ----------------------------------------
 BYTE   W96
// 046   ----------------------------------------
 BYTE   W96
// 047   ----------------------------------------
 BYTE   W84
 BYTE   N21  An2
 BYTE   N21  Cs3
 BYTE   N21  En3
 BYTE   W12
// 048   ----------------------------------------
 BYTE   W12
 BYTE   N09  An2
 BYTE   N09  Cs3
 BYTE   N09  En3
 BYTE   W12
 BYTE   An2
 BYTE   N09  Cs3
 BYTE   N09  En3
 BYTE   W12
 BYTE   An2
 BYTE   N09  Bn2
 BYTE   N09  Ds3
 BYTE   W12
 BYTE   N22  An2
 BYTE   N22  Cs3
 BYTE   N22  En3
 BYTE   W24
 BYTE   N09  An2
 BYTE   N09  An3
 BYTE   N09  Cs4
 BYTE   W12
 BYTE   N21  Bn2
 BYTE   N21  Fs3
 BYTE   N21  Bn3
 BYTE   W12
// 049   ----------------------------------------
 BYTE   W12
 BYTE   N19  Bn2
 BYTE   N19  Fs3
 BYTE   N19  An3
 BYTE   W24
 BYTE   Bn2
 BYTE   N19  En3
 BYTE   N19  Gs3
 BYTE   W24
 BYTE   Bn2
 BYTE   N19  Ds3
 BYTE   N19  Fs3
 BYTE   W24
 BYTE   N09  Cs3
 BYTE   N09  Ds3
 BYTE   N09  Fs3
 BYTE   W12
// 050   ----------------------------------------
 BYTE   W12
 BYTE   Cs3
 BYTE   N09  En3
 BYTE   N09  Gs3
 BYTE   W12
 BYTE   N11  Cs3
 BYTE   N11  En3
 BYTE   N11  Gs3
 BYTE   W24
 BYTE   Cs3
 BYTE   N11  En3
 BYTE   N11  Gs3
 BYTE   W36
 BYTE   N09  Cs3
 BYTE   N09  Ds3
 BYTE   N09  Fs3
 BYTE   W12
// 051   ----------------------------------------
 BYTE   W12
 BYTE   Cs3
 BYTE   N09  En3
 BYTE   N09  Gs3
 BYTE   W12
 BYTE   N11  Cs3
 BYTE   N11  En3
 BYTE   N11  Gs3
 BYTE   W24
 BYTE   Cs3
 BYTE   N11  En3
 BYTE   N11  Gs3
 BYTE   W24
 BYTE   N09  Bn2
 BYTE   N09  Ds3
 BYTE   N09  Fs3
 BYTE   W12
 BYTE   An2
 BYTE   N09  Cs3
 BYTE   N09  En3
 BYTE   W12
// 052   ----------------------------------------
 BYTE   W12
 BYTE   An2
 BYTE   N09  Cs3
 BYTE   N09  En3
 BYTE   W12
 BYTE   An2
 BYTE   N09  Cs3
 BYTE   N09  En3
 BYTE   W12
 BYTE   An2
 BYTE   N09  Bn2
 BYTE   N09  Ds3
 BYTE   W12
 BYTE   N19  An2
 BYTE   N19  Cs3
 BYTE   N19  En3
 BYTE   W24
 BYTE   N09  An2
 BYTE   N09  An3
 BYTE   N09  Cs4
 BYTE   W12
 BYTE   N21  Bn2
 BYTE   N21  Gs3
 BYTE   N21  Bn3
 BYTE   W12
// 053   ----------------------------------------
 BYTE   W12
 BYTE   N19  Bn2
 BYTE   N19  Fs3
 BYTE   N19  An3
 BYTE   W24
 BYTE   Bn2
 BYTE   N19  En3
 BYTE   N19  Gs3
 BYTE   W24
 BYTE   N28  Bn2
 BYTE   N28  Ds3
 BYTE   N28  Fs3
 BYTE   W36
// 054   ----------------------------------------
 BYTE   N09  Bn2
 BYTE   N09  Ds3
 BYTE   W12
 BYTE   Cs3
 BYTE   N09  En3
 BYTE   W12
 BYTE   Bn2
 BYTE   N09  Ds3
 BYTE   W12
 BYTE   TIE  Gs2
 BYTE   TIE  Cs3
 BYTE   W60
// 055   ----------------------------------------
 BYTE   W76
 BYTE   EOT
 BYTE   Gs2  v061
 BYTE   W20
// 056   ----------------------------------------
 BYTE   GoTo
  POIN2 Label_5_01917636
// 057   ----------------------------------------
 BYTE   W96
// 058   ----------------------------------------
 BYTE   W96
// 059   ----------------------------------------
 BYTE   W96
// 060   ----------------------------------------
 BYTE   W96
// 061   ----------------------------------------
 BYTE   W96
// 062   ----------------------------------------
 BYTE   W96
// 063   ----------------------------------------
 BYTE   W96
// 064   ----------------------------------------
 BYTE   W96
// 065   ----------------------------------------
 BYTE   W96
// 066   ----------------------------------------
 BYTE   W96
// 067   ----------------------------------------
 BYTE   W96
// 068   ----------------------------------------
 BYTE   W96
// 069   ----------------------------------------
 BYTE   W96
// 070   ----------------------------------------
 BYTE   W96
// 071   ----------------------------------------
 BYTE   W96
// 072   ----------------------------------------
 BYTE   W96
// 073   ----------------------------------------
 BYTE   W96
// 074   ----------------------------------------
 BYTE   W96
// 075   ----------------------------------------
 BYTE   W96
// 076   ----------------------------------------
 BYTE   W96
// 077   ----------------------------------------
 BYTE   W96
// 078   ----------------------------------------
 BYTE   W96
// 079   ----------------------------------------
 BYTE   W96
// 080   ----------------------------------------
 BYTE   W96
// 081   ----------------------------------------
 BYTE   W96
// 082   ----------------------------------------
 BYTE   W96
// 083   ----------------------------------------
 BYTE   W96
// 084   ----------------------------------------
 BYTE   W96
// 085   ----------------------------------------
 BYTE   W96
// 086   ----------------------------------------
 BYTE   W96
// 087   ----------------------------------------
 BYTE   W96
// 088   ----------------------------------------
 BYTE   W96
// 089   ----------------------------------------
 BYTE   W96
// 090   ----------------------------------------
 BYTE   W96
// 091   ----------------------------------------
 BYTE   W96
// 092   ----------------------------------------
 BYTE   W96
// 093   ----------------------------------------
 BYTE   W96
// 094   ----------------------------------------
 BYTE   W96
// 095   ----------------------------------------
 BYTE   W96
// 096   ----------------------------------------
 BYTE   W96
// 097   ----------------------------------------
 BYTE   W96
// 098   ----------------------------------------
 BYTE   W96
// 099   ----------------------------------------
 BYTE   W96
// 100   ----------------------------------------
 BYTE   W96
// 101   ----------------------------------------
 BYTE   W96
// 102   ----------------------------------------
 BYTE   W96
// 103   ----------------------------------------
 BYTE   W96
// 104   ----------------------------------------
 BYTE   W96
// 105   ----------------------------------------
 BYTE   W96
// 106   ----------------------------------------
 BYTE   W96
// 107   ----------------------------------------
 BYTE   W96
// 108   ----------------------------------------
 BYTE   W96
// 109   ----------------------------------------
 BYTE   W96
// 110   ----------------------------------------
 BYTE   W96
// 111   ----------------------------------------
 BYTE   W96
// 112   ----------------------------------------
 BYTE   W96
// 113   ----------------------------------------
 BYTE   W96
// 114   ----------------------------------------
 BYTE   W96
// 115   ----------------------------------------
 BYTE   W96
// 116   ----------------------------------------
 BYTE   W96
// 117   ----------------------------------------
 BYTE   W96
// 118   ----------------------------------------
 BYTE   W96
// 119   ----------------------------------------
 BYTE   W96
// 120   ----------------------------------------
 BYTE   W96
// 121   ----------------------------------------
 BYTE   W96
// 122   ----------------------------------------
 BYTE   W96
// 123   ----------------------------------------
 BYTE   W96
// 124   ----------------------------------------
 BYTE   W96
// 125   ----------------------------------------
 BYTE   W96
// 126   ----------------------------------------
 BYTE   W96
// 127   ----------------------------------------
 BYTE   W96
// 128   ----------------------------------------
 BYTE   W96
// 129   ----------------------------------------
 BYTE   W96
// 130   ----------------------------------------
 BYTE   W96
// 131   ----------------------------------------
 BYTE   W96
// 132   ----------------------------------------
 BYTE   W96
// 133   ----------------------------------------
 BYTE   W96
// 134   ----------------------------------------
 BYTE   W96
// 135   ----------------------------------------
 BYTE   W96
// 136   ----------------------------------------
 BYTE   W96
// 137   ----------------------------------------
 BYTE   W96
// 138   ----------------------------------------
 BYTE   W96
// 139   ----------------------------------------
 BYTE   W96
// 140   ----------------------------------------
 BYTE   W96
// 141   ----------------------------------------
 BYTE   W96
// 142   ----------------------------------------
 BYTE   W96
// 143   ----------------------------------------
 BYTE   W96
// 144   ----------------------------------------
 BYTE   W96
// 145   ----------------------------------------
 BYTE   W96
// 146   ----------------------------------------
 BYTE   W96
// 147   ----------------------------------------
 BYTE   W96
// 148   ----------------------------------------
 BYTE   W96
// 149   ----------------------------------------
 BYTE   W96
// 150   ----------------------------------------
 BYTE   W96
// 151   ----------------------------------------
 BYTE   W96
// 152   ----------------------------------------
 BYTE   W96
// 153   ----------------------------------------
 BYTE   W96
// 154   ----------------------------------------
 BYTE   W96
// 155   ----------------------------------------
 BYTE   W96
// 156   ----------------------------------------
 BYTE   W96
// 157   ----------------------------------------
 BYTE   W96
// 158   ----------------------------------------
 BYTE   W96
// 159   ----------------------------------------
 BYTE   W96
// 160   ----------------------------------------
 BYTE   W96
// 161   ----------------------------------------
 BYTE   W96
// 162   ----------------------------------------
 BYTE   W96
// 163   ----------------------------------------
 BYTE   W96
// 164   ----------------------------------------
 BYTE   W96
// 165   ----------------------------------------
 BYTE   W96
// 166   ----------------------------------------
 BYTE   W96
// 167   ----------------------------------------
 BYTE   W96
// 168   ----------------------------------------
 BYTE   W96
// 169   ----------------------------------------
 BYTE   W96
// 170   ----------------------------------------
 BYTE   W96
// 171   ----------------------------------------
 BYTE   W96
// 172   ----------------------------------------
 BYTE   W96
// 173   ----------------------------------------
 BYTE   W96
// 174   ----------------------------------------
 BYTE   W96
// 175   ----------------------------------------
 BYTE   W96
// 176   ----------------------------------------
 BYTE   W96
// 177   ----------------------------------------
 BYTE   W96
// 178   ----------------------------------------
 BYTE   W96
// 179   ----------------------------------------
 BYTE   W96
// 180   ----------------------------------------
 BYTE   W96
// 181   ----------------------------------------
 BYTE   W96
// 182   ----------------------------------------
 BYTE   W96
// 183   ----------------------------------------
 BYTE   W90
 BYTE   W01
 BYTE   FINE

//**************** Track 7 (Midi-Chn.6) ****************//

Megaman2WilyStage7743_007:
// 000   ----------------------------------------
 BYTE   KEYSH   Megaman2WilyStage7743_key+0
Label_6_01917846:
 BYTE   VOICE   29
 BYTE   PAN   c_v+0
 BYTE   VOL   48*Megaman2WilyStage7743_mvl/mxv
 BYTE   W12
 BYTE   N04  Cs3  v080
 BYTE   W06
 BYTE   N04
 BYTE   W06
 BYTE   N09
 BYTE   W12
 BYTE   N04
 BYTE   W06
 BYTE   N04
 BYTE   W06
 BYTE   N09
 BYTE   W12
 BYTE   Gs2
 BYTE   W24
 BYTE   N04
 BYTE   W06
 BYTE   N04
 BYTE   W06
// 001   ----------------------------------------
Label_6_01917861:
 BYTE   N09  Cs3  v080
 BYTE   W12
 BYTE   N04
 BYTE   W06
 BYTE   N04
 BYTE   W06
 BYTE   N09
 BYTE   W12
 BYTE   Gs2
 BYTE   W24
 BYTE   En3
 BYTE   W12
 BYTE   Ds3
 BYTE   W12
 BYTE   En3
 BYTE   W12
 BYTE   PEND 
// 002   ----------------------------------------
Label_6_01917874:
 BYTE   W12
 BYTE   N04  Cs3  v080
 BYTE   W06
 BYTE   N04
 BYTE   W06
 BYTE   N09
 BYTE   W12
 BYTE   N04
 BYTE   W06
 BYTE   N04
 BYTE   W06
 BYTE   N09
 BYTE   W12
 BYTE   Gs2
 BYTE   W24
 BYTE   En3
 BYTE   W12
 BYTE   PEND 
// 003   ----------------------------------------
Label_6_01917888:
 BYTE   W12
 BYTE   N09  Ds3  v080
 BYTE   W24
 BYTE   Cs3
 BYTE   W24
 BYTE   Ds3
 BYTE   W36
 BYTE   PEND 
// 004   ----------------------------------------
Label_6_01917892:
 BYTE   W12
 BYTE   N04  Ds3  v080
 BYTE   W06
 BYTE   N04
 BYTE   W06
 BYTE   N09
 BYTE   W12
 BYTE   N04
 BYTE   W06
 BYTE   N04
 BYTE   W06
 BYTE   N09
 BYTE   W12
 BYTE   Bn2
 BYTE   W24
 BYTE   En3
 BYTE   W12
 BYTE   PEND 
// 005   ----------------------------------------
Label_6_019178A6:
 BYTE   W12
 BYTE   N09  Ds3  v080
 BYTE   W24
 BYTE   Cs3
 BYTE   W24
 BYTE   Bn2
 BYTE   W36
 BYTE   PEND 
// 006   ----------------------------------------
Label_6_019178B0:
 BYTE   N09  Cs3  v080
 BYTE   W24
 BYTE   N09
 BYTE   W12
 BYTE   Gs3
 BYTE   W12
 BYTE   Bn3
 BYTE   W12
 BYTE   N30  As3
 BYTE   W36
 BYTE   PEND 
// 007   ----------------------------------------
Label_6_019178BE:
 BYTE   N09  Cs3  v080
 BYTE   W24
 BYTE   N09
 BYTE   W12
 BYTE   Gs3
 BYTE   W12
 BYTE   Bn3
 BYTE   W12
 BYTE   As3
 BYTE   W12
 BYTE   Bn3
 BYTE   W12
 BYTE   Cs4
 BYTE   W12
 BYTE   PEND 
// 008   ----------------------------------------
 BYTE   W12
 BYTE   N04  Cs3
 BYTE   W06
 BYTE   N04
 BYTE   W06
 BYTE   N09
 BYTE   W12
 BYTE   N04
 BYTE   W06
 BYTE   N04
 BYTE   W06
 BYTE   N09
 BYTE   W12
 BYTE   Gs2
 BYTE   W24
 BYTE   N04
 BYTE   W06
 BYTE   N04
 BYTE   W06
// 009   ----------------------------------------
 BYTE   PATT
  POIN2 Label_6_01917861
// 010   ----------------------------------------
 BYTE   PATT
  POIN2 Label_6_01917874
// 011   ----------------------------------------
 BYTE   PATT
  POIN2 Label_6_01917888
// 012   ----------------------------------------
 BYTE   PATT
  POIN2 Label_6_01917892
// 013   ----------------------------------------
 BYTE   PATT
  POIN2 Label_6_019178A6
// 014   ----------------------------------------
 BYTE   PATT
  POIN2 Label_6_019178B0
// 015   ----------------------------------------
 BYTE   PATT
  POIN2 Label_6_019178BE
// 016   ----------------------------------------
Label_6_01917906:
 BYTE   W12
 BYTE   N56  Cs4  v080
 BYTE   W72
 BYTE   N09  Bn3
 BYTE   W12
 BYTE   PEND 
// 017   ----------------------------------------
Label_6_0191790F:
 BYTE   N19  En4  v080
 BYTE   W24
 BYTE   Cs4
 BYTE   W24
 BYTE   Bn3
 BYTE   W24
 BYTE   Cs4
 BYTE   W24
 BYTE   PEND 
// 018   ----------------------------------------
Label_6_0191791A:
 BYTE   N48  Bn3  v080
 BYTE   W60
 BYTE   N09
 BYTE   W12
 BYTE   N32  Cs4
 BYTE   W24
 BYTE   PEND 
// 019   ----------------------------------------
Label_6_01917924:
 BYTE   W12
 BYTE   N09  Gs3  v080
 BYTE   W12
 BYTE   An3
 BYTE   W12
 BYTE   Gs3
 BYTE   W12
 BYTE   En3
 BYTE   W24
 BYTE   N09
 BYTE   W12
 BYTE   Gs3
 BYTE   W12
 BYTE   PEND 
// 020   ----------------------------------------
Label_6_01917934:
 BYTE   N09  Bn3  v080
 BYTE   W12
 BYTE   N56  Cs4
 BYTE   W72
 BYTE   N09  Bn3
 BYTE   W12
 BYTE   PEND 
// 021   ----------------------------------------
 BYTE   PATT
  POIN2 Label_6_0191790F
// 022   ----------------------------------------
Label_6_01917944:
 BYTE   N48  Bn3  v080
 BYTE   W60
 BYTE   N09
 BYTE   W12
 BYTE   Gs3
 BYTE   W12
 BYTE   Bn3
 BYTE   W12
 BYTE   PEND 
// 023   ----------------------------------------
 BYTE   Cn4
 BYTE   W24
 BYTE   N09
 BYTE   W12
 BYTE   N09
 BYTE   W12
 BYTE   Ds4
 BYTE   W12
 BYTE   N30  Gs4
 BYTE   W36
// 024   ----------------------------------------
Label_6_0191795A:
 BYTE   W12
 BYTE   N04  En3  v080
 BYTE   W06
 BYTE   N04
 BYTE   W06
 BYTE   N09
 BYTE   W12
 BYTE   N04
 BYTE   W06
 BYTE   N04
 BYTE   W06
 BYTE   N11
 BYTE   W12
 BYTE   Cs3
 BYTE   W24
 BYTE   N04
 BYTE   W06
 BYTE   N04
 BYTE   W06
 BYTE   PEND 
// 025   ----------------------------------------
Label_6_01917970:
 BYTE   N09  En3  v080
 BYTE   W12
 BYTE   N04
 BYTE   W06
 BYTE   N04
 BYTE   W06
 BYTE   N09
 BYTE   W12
 BYTE   Cs3
 BYTE   W24
 BYTE   Gs3
 BYTE   W12
 BYTE   Fs3
 BYTE   W12
 BYTE   Gs3
 BYTE   W12
 BYTE   PEND 
// 026   ----------------------------------------
Label_6_01917983:
 BYTE   W12
 BYTE   N04  En3  v080
 BYTE   W06
 BYTE   N04
 BYTE   W06
 BYTE   N09
 BYTE   W12
 BYTE   N04
 BYTE   W06
 BYTE   N04
 BYTE   W06
 BYTE   N09
 BYTE   W12
 BYTE   Cs3
 BYTE   W24
 BYTE   Gs3
 BYTE   W12
 BYTE   PEND 
// 027   ----------------------------------------
Label_6_01917997:
 BYTE   W12
 BYTE   N09  Fs3  v080
 BYTE   W24
 BYTE   En3
 BYTE   W24
 BYTE   Fs3
 BYTE   W36
 BYTE   PEND 
// 028   ----------------------------------------
Label_6_019179A1:
 BYTE   W12
 BYTE   N04  Fs3  v080
 BYTE   W06
 BYTE   N04
 BYTE   W06
 BYTE   N09
 BYTE   W12
 BYTE   N04
 BYTE   W06
 BYTE   N04
 BYTE   W06
 BYTE   N09
 BYTE   W12
 BYTE   Ds3
 BYTE   W24
 BYTE   Gs3
 BYTE   W12
 BYTE   PEND 
// 029   ----------------------------------------
 BYTE   W12
 BYTE   Fs3
 BYTE   W24
 BYTE   En3
 BYTE   W24
 BYTE   Ds3
 BYTE   W36
// 030   ----------------------------------------
 BYTE   PATT
  POIN2 Label_6_019178B0
// 031   ----------------------------------------
Label_6_019179C1:
 BYTE   N09  Cs3  v080
 BYTE   W24
 BYTE   N09
 BYTE   W12
 BYTE   Gs3
 BYTE   W12
 BYTE   Bn3
 BYTE   W12
 BYTE   As3
 BYTE   W12
 BYTE   Ds4
 BYTE   W12
 BYTE   En4
 BYTE   W12
 BYTE   PEND 
// 032   ----------------------------------------
 BYTE   PATT
  POIN2 Label_6_0191795A
// 033   ----------------------------------------
 BYTE   PATT
  POIN2 Label_6_01917970
// 034   ----------------------------------------
 BYTE   PATT
  POIN2 Label_6_01917983
// 035   ----------------------------------------
 BYTE   PATT
  POIN2 Label_6_01917997
// 036   ----------------------------------------
 BYTE   PATT
  POIN2 Label_6_019179A1
// 037   ----------------------------------------
 BYTE   W12
 BYTE   N09  Fs3  v080
 BYTE   W24
 BYTE   En3
 BYTE   W24
 BYTE   Ds3
 BYTE   W24
 BYTE   Cs3
 BYTE   W12
// 038   ----------------------------------------
 BYTE   W12
 BYTE   N09
 BYTE   W12
 BYTE   Gs3
 BYTE   W12
 BYTE   Bn3
 BYTE   W12
 BYTE   N44  As3
 BYTE   W48
// 039   ----------------------------------------
 BYTE   PATT
  POIN2 Label_6_019179C1
// 040   ----------------------------------------
 BYTE   PATT
  POIN2 Label_6_01917906
// 041   ----------------------------------------
 BYTE   PATT
  POIN2 Label_6_0191790F
// 042   ----------------------------------------
 BYTE   PATT
  POIN2 Label_6_0191791A
// 043   ----------------------------------------
 BYTE   PATT
  POIN2 Label_6_01917924
// 044   ----------------------------------------
 BYTE   PATT
  POIN2 Label_6_01917934
// 045   ----------------------------------------
 BYTE   PATT
  POIN2 Label_6_0191790F
// 046   ----------------------------------------
 BYTE   PATT
  POIN2 Label_6_01917944
// 047   ----------------------------------------
 BYTE   N09  Cn4  v080
 BYTE   W24
 BYTE   N09
 BYTE   W12
 BYTE   N09
 BYTE   W12
 BYTE   Ds4
 BYTE   W12
 BYTE   N23  Gs4
 BYTE   W24
 BYTE   N21  Cs3
 BYTE   W12
// 048   ----------------------------------------
 BYTE   W12
 BYTE   N09
 BYTE   W12
 BYTE   N09
 BYTE   W12
 BYTE   Bn2
 BYTE   W12
 BYTE   N19  Cs3
 BYTE   W24
 BYTE   N09  An3
 BYTE   W12
 BYTE   N23  Fs3
 BYTE   W12
// 049   ----------------------------------------
 BYTE   W12
 BYTE   N19
 BYTE   W24
 BYTE   En3
 BYTE   W24
 BYTE   Ds3
 BYTE   W24
 BYTE   N09
 BYTE   W12
// 050   ----------------------------------------
 BYTE   W12
 BYTE   En3
 BYTE   W12
 BYTE   N09
 BYTE   W24
 BYTE   N09
 BYTE   W36
 BYTE   Ds3
 BYTE   W12
// 051   ----------------------------------------
 BYTE   W12
 BYTE   En3
 BYTE   W12
 BYTE   N09
 BYTE   W24
 BYTE   N09
 BYTE   W24
 BYTE   Ds3
 BYTE   W12
 BYTE   Cs3
 BYTE   W12
// 052   ----------------------------------------
 BYTE   W12
 BYTE   N09
 BYTE   W12
 BYTE   N09
 BYTE   W12
 BYTE   Bn2
 BYTE   W12
 BYTE   N22  Cs3
 BYTE   W24
 BYTE   N09  An3
 BYTE   W12
 BYTE   N23  Fs3
 BYTE   W12
// 053   ----------------------------------------
 BYTE   W12
 BYTE   N19
 BYTE   W24
 BYTE   En3
 BYTE   W24
 BYTE   Ds3
 BYTE   W36
// 054   ----------------------------------------
 BYTE   N09  Bn2
 BYTE   W12
 BYTE   Cs3
 BYTE   W12
 BYTE   Bn2
 BYTE   W12
 BYTE   TIE  Gs2
 BYTE   W60
// 055   ----------------------------------------
 BYTE   W76
 BYTE   EOT
 BYTE   W20
// 056   ----------------------------------------
 BYTE   GoTo
  POIN2 Label_6_01917846
// 057   ----------------------------------------
 BYTE   W96
// 058   ----------------------------------------
 BYTE   W96
// 059   ----------------------------------------
 BYTE   W96
// 060   ----------------------------------------
 BYTE   W96
// 061   ----------------------------------------
 BYTE   W96
// 062   ----------------------------------------
 BYTE   W96
// 063   ----------------------------------------
 BYTE   W96
// 064   ----------------------------------------
 BYTE   W96
// 065   ----------------------------------------
 BYTE   W96
// 066   ----------------------------------------
 BYTE   W96
// 067   ----------------------------------------
 BYTE   W96
// 068   ----------------------------------------
 BYTE   W96
// 069   ----------------------------------------
 BYTE   W96
// 070   ----------------------------------------
 BYTE   W96
// 071   ----------------------------------------
 BYTE   W96
// 072   ----------------------------------------
 BYTE   W96
// 073   ----------------------------------------
 BYTE   W96
// 074   ----------------------------------------
 BYTE   W96
// 075   ----------------------------------------
 BYTE   W96
// 076   ----------------------------------------
 BYTE   W96
// 077   ----------------------------------------
 BYTE   W96
// 078   ----------------------------------------
 BYTE   W96
// 079   ----------------------------------------
 BYTE   W96
// 080   ----------------------------------------
 BYTE   W96
// 081   ----------------------------------------
 BYTE   W96
// 082   ----------------------------------------
 BYTE   W96
// 083   ----------------------------------------
 BYTE   W96
// 084   ----------------------------------------
 BYTE   W96
// 085   ----------------------------------------
 BYTE   W96
// 086   ----------------------------------------
 BYTE   W96
// 087   ----------------------------------------
 BYTE   W96
// 088   ----------------------------------------
 BYTE   W96
// 089   ----------------------------------------
 BYTE   W96
// 090   ----------------------------------------
 BYTE   W96
// 091   ----------------------------------------
 BYTE   W96
// 092   ----------------------------------------
 BYTE   W96
// 093   ----------------------------------------
 BYTE   W96
// 094   ----------------------------------------
 BYTE   W96
// 095   ----------------------------------------
 BYTE   W96
// 096   ----------------------------------------
 BYTE   W96
// 097   ----------------------------------------
 BYTE   W96
// 098   ----------------------------------------
 BYTE   W96
// 099   ----------------------------------------
 BYTE   W96
// 100   ----------------------------------------
 BYTE   W96
// 101   ----------------------------------------
 BYTE   W96
// 102   ----------------------------------------
 BYTE   W96
// 103   ----------------------------------------
 BYTE   W96
// 104   ----------------------------------------
 BYTE   W96
// 105   ----------------------------------------
 BYTE   W96
// 106   ----------------------------------------
 BYTE   W96
// 107   ----------------------------------------
 BYTE   W96
// 108   ----------------------------------------
 BYTE   W96
// 109   ----------------------------------------
 BYTE   W96
// 110   ----------------------------------------
 BYTE   W96
// 111   ----------------------------------------
 BYTE   W96
// 112   ----------------------------------------
 BYTE   W96
// 113   ----------------------------------------
 BYTE   W96
// 114   ----------------------------------------
 BYTE   W96
// 115   ----------------------------------------
 BYTE   W96
// 116   ----------------------------------------
 BYTE   W96
// 117   ----------------------------------------
 BYTE   W96
// 118   ----------------------------------------
 BYTE   W96
// 119   ----------------------------------------
 BYTE   W96
// 120   ----------------------------------------
 BYTE   W96
// 121   ----------------------------------------
 BYTE   W96
// 122   ----------------------------------------
 BYTE   W96
// 123   ----------------------------------------
 BYTE   W96
// 124   ----------------------------------------
 BYTE   W96
// 125   ----------------------------------------
 BYTE   W96
// 126   ----------------------------------------
 BYTE   W96
// 127   ----------------------------------------
 BYTE   W96
// 128   ----------------------------------------
 BYTE   W96
// 129   ----------------------------------------
 BYTE   W96
// 130   ----------------------------------------
 BYTE   W96
// 131   ----------------------------------------
 BYTE   W96
// 132   ----------------------------------------
 BYTE   W96
// 133   ----------------------------------------
 BYTE   W96
// 134   ----------------------------------------
 BYTE   W96
// 135   ----------------------------------------
 BYTE   W96
// 136   ----------------------------------------
 BYTE   W96
// 137   ----------------------------------------
 BYTE   W96
// 138   ----------------------------------------
 BYTE   W96
// 139   ----------------------------------------
 BYTE   W96
// 140   ----------------------------------------
 BYTE   W96
// 141   ----------------------------------------
 BYTE   W96
// 142   ----------------------------------------
 BYTE   W96
// 143   ----------------------------------------
 BYTE   W96
// 144   ----------------------------------------
 BYTE   W96
// 145   ----------------------------------------
 BYTE   W96
// 146   ----------------------------------------
 BYTE   W96
// 147   ----------------------------------------
 BYTE   W96
// 148   ----------------------------------------
 BYTE   W96
// 149   ----------------------------------------
 BYTE   W96
// 150   ----------------------------------------
 BYTE   W96
// 151   ----------------------------------------
 BYTE   W96
// 152   ----------------------------------------
 BYTE   W96
// 153   ----------------------------------------
 BYTE   W96
// 154   ----------------------------------------
 BYTE   W96
// 155   ----------------------------------------
 BYTE   W96
// 156   ----------------------------------------
 BYTE   W96
// 157   ----------------------------------------
 BYTE   W96
// 158   ----------------------------------------
 BYTE   W96
// 159   ----------------------------------------
 BYTE   W96
// 160   ----------------------------------------
 BYTE   W96
// 161   ----------------------------------------
 BYTE   W96
// 162   ----------------------------------------
 BYTE   W96
// 163   ----------------------------------------
 BYTE   W96
// 164   ----------------------------------------
 BYTE   W96
// 165   ----------------------------------------
 BYTE   W96
// 166   ----------------------------------------
 BYTE   W96
// 167   ----------------------------------------
 BYTE   W96
// 168   ----------------------------------------
 BYTE   W96
// 169   ----------------------------------------
 BYTE   W96
// 170   ----------------------------------------
 BYTE   W96
// 171   ----------------------------------------
 BYTE   W96
// 172   ----------------------------------------
 BYTE   W96
// 173   ----------------------------------------
 BYTE   W96
// 174   ----------------------------------------
 BYTE   W96
// 175   ----------------------------------------
 BYTE   W96
// 176   ----------------------------------------
 BYTE   W96
// 177   ----------------------------------------
 BYTE   W96
// 178   ----------------------------------------
 BYTE   W96
// 179   ----------------------------------------
 BYTE   W96
// 180   ----------------------------------------
 BYTE   W96
// 181   ----------------------------------------
 BYTE   W96
// 182   ----------------------------------------
 BYTE   W76
 BYTE   FINE

//******************************************************//
	ALIGN 4

Megaman2WilyStage7743:
	BYTE	7	// NumTrks
	BYTE	0	// NumBlks
	BYTE	Megaman2WilyStage7743_pri	// Priority
	BYTE	Megaman2WilyStage7743_rev	// Reverb.
    
	POIN2	Megaman2WilyStage7743_grp
    
	POIN2	Megaman2WilyStage7743_001
	POIN2	Megaman2WilyStage7743_002
	POIN2	Megaman2WilyStage7743_003
	POIN2	Megaman2WilyStage7743_004
	POIN2	Megaman2WilyStage7743_005
	POIN2	Megaman2WilyStage7743_006
	POIN2	Megaman2WilyStage7743_007

	
