//Event file generated from Sappy .s format.
	#include "MPlayDef.event"

	#define	MegamanZXRockinOnTak_grp  voicegroup000
	#define	MegamanZXRockinOnTak_pri  0
	#define	MegamanZXRockinOnTak_rev  0
	#define	MegamanZXRockinOnTak_mvl  127
	#define	MegamanZXRockinOnTak_key  0
	#define	MegamanZXRockinOnTak_tbs  1
	#define	MegamanZXRockinOnTak_exg  0
	#define	MegamanZXRockinOnTak_cmp  1

	// .rodata
	//	MegamanZXRockinOnTak
	ALIGN 4


//**************** Track 1 (Midi-Chn.0) ****************//

MegamanZXRockinOnTak_001:
//  #01 //000   ----------------------------------------
 BYTE   KEYSH   MegamanZXRockinOnTak_key+0
 BYTE   TEMPO   130*MegamanZXRockinOnTak_tbs/2
 BYTE   VOICE   30
 BYTE   VOL   64*MegamanZXRockinOnTak_mvl/mxv
 BYTE   PAN   c_v+12
 BYTE   BENDR  12
 BYTE   W96
//  #01 //001   ----------------------------------------
 BYTE   W96
//  #01 //002   ----------------------------------------
 BYTE   W96
//  #01 //003   ----------------------------------------
 BYTE   W96
//  #01 //004   ----------------------------------------
Label_01003D60:
 BYTE   N05  Dn2  v116
 BYTE   W06
 BYTE   Cn2
 BYTE   W06
 BYTE   Dn2
 BYTE   W06
 BYTE   N11  Fn2
 BYTE   W12
 BYTE   N05  Dn2
 BYTE   W06
 BYTE   Cn2
 BYTE   W06
 BYTE   N11  Dn2
 BYTE   W12
 BYTE   N05  Cn2
 BYTE   W06
 BYTE   Dn2
 BYTE   W06
 BYTE   N11  Fn2
 BYTE   W12
 BYTE   N05  Dn2
 BYTE   W06
 BYTE   Cn2
 BYTE   W06
 BYTE   Cs2
 BYTE   W06
//  #01 //005   ----------------------------------------
Label_01003D82:
 BYTE   N05  Dn2  v116
 BYTE   W06
 BYTE   Cn2
 BYTE   W06
 BYTE   Dn2
 BYTE   W06
 BYTE   N11  Fn2
 BYTE   W12
 BYTE   N05  Dn2
 BYTE   W06
 BYTE   Cn2
 BYTE   W06
 BYTE   N11  Dn2
 BYTE   W12
 BYTE   N05  Gs2
 BYTE   W06
 BYTE   Gn2
 BYTE   W06
 BYTE   Fn2
 BYTE   W06
 BYTE   Gn2
 BYTE   W06
 BYTE   Fn2
 BYTE   W06
 BYTE   Dn2
 BYTE   W06
 BYTE   Cn2
 BYTE   W06
 BYTE   PEND 
//  #01 //006   ----------------------------------------
Label_01003DA5:
 BYTE   N05  Dn2  v116
 BYTE   W06
 BYTE   Cn2
 BYTE   W06
 BYTE   Dn2
 BYTE   W06
 BYTE   N11  Fn2
 BYTE   W12
 BYTE   N05  Dn2
 BYTE   W06
 BYTE   Cn2
 BYTE   W06
 BYTE   N11  Dn2
 BYTE   W12
 BYTE   N05  Cn2
 BYTE   W06
 BYTE   Dn2
 BYTE   W06
 BYTE   N11  Fn2
 BYTE   W12
 BYTE   N05  Dn2
 BYTE   W06
 BYTE   Cn2
 BYTE   W06
 BYTE   Cs2
 BYTE   W06
 BYTE   PEND 
//  #01 //007   ----------------------------------------
 BYTE   PATT
  POIN2 Label_01003D82
//  #01 //008   ----------------------------------------
 BYTE   PATT
  POIN2 Label_01003DA5
//  #01 //009   ----------------------------------------
 BYTE   PATT
  POIN2 Label_01003D82
//  #01 //010   ----------------------------------------
Label_01003DD7:
 BYTE   N05  Dn2  v116
 BYTE   W06
 BYTE   Dn2
 BYTE   W06
 BYTE   Dn2
 BYTE   W06
 BYTE   Dn2
 BYTE   W06
 BYTE   Dn2
 BYTE   W06
 BYTE   Dn2
 BYTE   W06
 BYTE   Dn2
 BYTE   W06
 BYTE   Dn2
 BYTE   W06
 BYTE   Dn2
 BYTE   W06
 BYTE   Dn2
 BYTE   W06
 BYTE   Dn2
 BYTE   W06
 BYTE   Dn2
 BYTE   W06
 BYTE   Dn2
 BYTE   W06
 BYTE   Dn2
 BYTE   W06
 BYTE   Dn2
 BYTE   W06
 BYTE   Dn2
 BYTE   W06
 BYTE   PEND 
//  #01 //011   ----------------------------------------
Label_01003DFA:
 BYTE   N05  Gs2  v116
 BYTE   W06
 BYTE   Gn2
 BYTE   W06
 BYTE   Dn2
 BYTE   W06
 BYTE   N11  Gs2
 BYTE   W12
 BYTE   N05  Gn2
 BYTE   W06
 BYTE   Dn2
 BYTE   W06
 BYTE   N11  Gs2
 BYTE   W12
 BYTE   N05  Gn2
 BYTE   W06
 BYTE   Dn2
 BYTE   W06
 BYTE   N11  Gs2
 BYTE   W12
 BYTE   N05  Gn2
 BYTE   W06
 BYTE   N11  Dn2
 BYTE   W12
 BYTE   PEND 
//  #01 //012   ----------------------------------------
 BYTE   PATT
  POIN2 Label_01003DA5
//  #01 //013   ----------------------------------------
 BYTE   PATT
  POIN2 Label_01003D82
//  #01 //014   ----------------------------------------
 BYTE   PATT
  POIN2 Label_01003DD7
//  #01 //015   ----------------------------------------
 BYTE   PATT
  POIN2 Label_01003DFA
//  #01 //016   ----------------------------------------
Label_01003E30:
 BYTE   N05  Ds2  v116
 BYTE   W06
 BYTE   Ds2
 BYTE   W06
 BYTE   Ds2
 BYTE   W06
 BYTE   Ds2
 BYTE   W06
 BYTE   Ds2
 BYTE   W06
 BYTE   Ds2
 BYTE   W06
 BYTE   Ds2
 BYTE   W06
 BYTE   Ds2
 BYTE   W06
 BYTE   Ds2
 BYTE   W06
 BYTE   Ds2
 BYTE   W06
 BYTE   Ds2
 BYTE   W06
 BYTE   Ds2
 BYTE   W06
 BYTE   Ds2
 BYTE   W06
 BYTE   Ds2
 BYTE   W06
 BYTE   As2
 BYTE   W06
 BYTE   Ds3
 BYTE   W06
 BYTE   PEND 
//  #01 //017   ----------------------------------------
Label_01003E53:
 BYTE   N05  Gs2  v116
 BYTE   W06
 BYTE   Gs2
 BYTE   W06
 BYTE   Gs2
 BYTE   W06
 BYTE   Gs2
 BYTE   W06
 BYTE   Gs2
 BYTE   W06
 BYTE   Gs2
 BYTE   W06
 BYTE   Gs2
 BYTE   W06
 BYTE   Gs2
 BYTE   W06
 BYTE   Gs2
 BYTE   W06
 BYTE   Gs2
 BYTE   W06
 BYTE   Gs2
 BYTE   W06
 BYTE   Gs2
 BYTE   W06
 BYTE   Ds3
 BYTE   W06
 BYTE   As2
 BYTE   W06
 BYTE   Gs2
 BYTE   W06
 BYTE   Ds2
 BYTE   W06
 BYTE   PEND 
//  #01 //018   ----------------------------------------
 BYTE   PATT
  POIN2 Label_01003DD7
//  #01 //019   ----------------------------------------
 BYTE   PATT
  POIN2 Label_01003DFA
//  #01 //020   ----------------------------------------
 BYTE   PATT
  POIN2 Label_01003E30
//  #01 //021   ----------------------------------------
 BYTE   PATT
  POIN2 Label_01003E53
//  #01 //022   ----------------------------------------
 BYTE   N05  Dn2  v116
 BYTE   W06
 BYTE   Dn2
 BYTE   W06
 BYTE   Dn2
 BYTE   W06
 BYTE   Dn2
 BYTE   W12
 BYTE   Dn2
 BYTE   W06
 BYTE   Dn2
 BYTE   W06
 BYTE   Dn2
 BYTE   W30
 BYTE   N23
 BYTE   W24
//  #01 //023   ----------------------------------------
Label_01003E9C:
 BYTE   N05  Gn2  v116
 BYTE   W06
 BYTE   Fn2
 BYTE   W06
 BYTE   Gn2
 BYTE   W06
 BYTE   N11  As2
 BYTE   W12
 BYTE   N05  Gn2
 BYTE   W06
 BYTE   Fn2
 BYTE   W06
 BYTE   N11  Gn2
 BYTE   W12
 BYTE   N05  Fn2
 BYTE   W06
 BYTE   Gn2
 BYTE   W06
 BYTE   N11  As2
 BYTE   W12
 BYTE   N05  Gn2
 BYTE   W06
 BYTE   Fn2
 BYTE   W06
 BYTE   Fs2
 BYTE   W06
 BYTE   PEND 
//  #01 //024   ----------------------------------------
Label_01003EBF:
 BYTE   N05  Gn2  v116
 BYTE   W06
 BYTE   Fn2
 BYTE   W06
 BYTE   Gn2
 BYTE   W06
 BYTE   N11  As2
 BYTE   W12
 BYTE   N05  Gn2
 BYTE   W06
 BYTE   Fn2
 BYTE   W06
 BYTE   N11  Gn2
 BYTE   W12
 BYTE   N05  Cs3
 BYTE   W06
 BYTE   Cn3
 BYTE   W06
 BYTE   As2
 BYTE   W06
 BYTE   Cn3
 BYTE   W06
 BYTE   As2
 BYTE   W06
 BYTE   Gn2
 BYTE   W06
 BYTE   Fn2
 BYTE   W06
 BYTE   PEND 
//  #01 //025   ----------------------------------------
Label_01003EE2:
 BYTE   N05  Gn2  v116
 BYTE   W06
 BYTE   Gn2
 BYTE   W06
 BYTE   Gn2
 BYTE   W06
 BYTE   Gn2
 BYTE   W06
 BYTE   Gn2
 BYTE   W06
 BYTE   Gn2
 BYTE   W06
 BYTE   Gn2
 BYTE   W06
 BYTE   Gn2
 BYTE   W06
 BYTE   Gn2
 BYTE   W06
 BYTE   Gn2
 BYTE   W06
 BYTE   Gn2
 BYTE   W06
 BYTE   Gn2
 BYTE   W06
 BYTE   Gn2
 BYTE   W06
 BYTE   Gn2
 BYTE   W06
 BYTE   Gn2
 BYTE   W06
 BYTE   Gn2
 BYTE   W06
 BYTE   PEND 
//  #01 //026   ----------------------------------------
Label_01003F05:
 BYTE   N05  Cs3  v116
 BYTE   W06
 BYTE   Cn3
 BYTE   W06
 BYTE   Gn2
 BYTE   W06
 BYTE   N11  Cs3
 BYTE   W12
 BYTE   N05  Cn3
 BYTE   W06
 BYTE   Gn2
 BYTE   W06
 BYTE   N11  Cs3
 BYTE   W12
 BYTE   N05  Cn3
 BYTE   W06
 BYTE   Gn2
 BYTE   W06
 BYTE   N11  Cs3
 BYTE   W12
 BYTE   N05  Cn3
 BYTE   W06
 BYTE   N11  Gn2
 BYTE   W12
 BYTE   PEND 
//  #01 //027   ----------------------------------------
 BYTE   PATT
  POIN2 Label_01003E9C
//  #01 //028   ----------------------------------------
 BYTE   PATT
  POIN2 Label_01003EBF
//  #01 //029   ----------------------------------------
 BYTE   PATT
  POIN2 Label_01003EE2
//  #01 //030   ----------------------------------------
 BYTE   PATT
  POIN2 Label_01003F05
//  #01 //031   ----------------------------------------
 BYTE   N05  An2  v116
 BYTE   W06
 BYTE   An2
 BYTE   W06
 BYTE   An2
 BYTE   W06
 BYTE   An2
 BYTE   W06
 BYTE   An2
 BYTE   W06
 BYTE   An2
 BYTE   W06
 BYTE   An2
 BYTE   W06
 BYTE   An2
 BYTE   W06
 BYTE   An2
 BYTE   W06
 BYTE   An2
 BYTE   W06
 BYTE   An2
 BYTE   W06
 BYTE   An2
 BYTE   W06
 BYTE   An2
 BYTE   W06
 BYTE   An2
 BYTE   W06
 BYTE   An2
 BYTE   W06
 BYTE   An2
 BYTE   W06
//  #01 //032   ----------------------------------------
 BYTE   An2
 BYTE   W06
 BYTE   An2
 BYTE   W06
 BYTE   An2
 BYTE   W06
 BYTE   N11
 BYTE   W12
 BYTE   N05
 BYTE   W06
 BYTE   An2
 BYTE   W06
 BYTE   N11
 BYTE   W12
 BYTE   N05
 BYTE   W06
 BYTE   An2
 BYTE   W06
 BYTE   An2
 BYTE   W06
 BYTE   An2
 BYTE   W06
 BYTE   An2
 BYTE   W06
 BYTE   An2
 BYTE   W06
 BYTE   An2
 BYTE   W06
//  #01 //033   ----------------------------------------
 BYTE   As2
 BYTE   W06
 BYTE   As2
 BYTE   W06
 BYTE   As2
 BYTE   W06
 BYTE   As2
 BYTE   W06
 BYTE   As2
 BYTE   W06
 BYTE   As2
 BYTE   W06
 BYTE   As2
 BYTE   W06
 BYTE   As2
 BYTE   W06
 BYTE   As2
 BYTE   W06
 BYTE   As2
 BYTE   W06
 BYTE   As2
 BYTE   W06
 BYTE   As2
 BYTE   W06
 BYTE   As2
 BYTE   W06
 BYTE   As2
 BYTE   W06
 BYTE   As2
 BYTE   W06
 BYTE   As2
 BYTE   W06
//  #01 //034   ----------------------------------------
 BYTE   Cn3
 BYTE   W06
 BYTE   Cn3
 BYTE   W06
 BYTE   Cn3
 BYTE   W06
 BYTE   N11
 BYTE   W12
 BYTE   N05
 BYTE   W06
 BYTE   Cn3
 BYTE   W06
 BYTE   N11
 BYTE   W12
 BYTE   N05
 BYTE   W06
 BYTE   Cn3
 BYTE   W06
 BYTE   Cn3
 BYTE   W06
 BYTE   Cn3
 BYTE   W06
 BYTE   Cn3
 BYTE   W06
 BYTE   Cn3
 BYTE   W06
 BYTE   Cn3
 BYTE   W06
//  #01 //035   ----------------------------------------
 BYTE   PATT
  POIN2 Label_01003DA5
//  #01 //036   ----------------------------------------
 BYTE   PATT
  POIN2 Label_01003D82
//  #01 //037   ----------------------------------------
 BYTE   PATT
  POIN2 Label_01003DA5
//  #01 //038   ----------------------------------------
 BYTE   PATT
  POIN2 Label_01003D82
//  #01 //039   ----------------------------------------
 BYTE   GoTo
  POIN2 Label_01003D60
 BYTE   FINE

//**************** Track 2 (Midi-Chn.1) ****************//

MegamanZXRockinOnTak_002:
//  #02 //000   ----------------------------------------
 BYTE   KEYSH   MegamanZXRockinOnTak_key+0
 BYTE   VOICE   18
 BYTE   VOL   73*MegamanZXRockinOnTak_mvl/mxv
 BYTE   PAN   c_v+24
 BYTE   BENDR  12
 BYTE   W96
//  #02 //001   ----------------------------------------
 BYTE   W96
//  #02 //002   ----------------------------------------
 BYTE   W96
//  #02 //003   ----------------------------------------
 BYTE   W96
//  #02 //004   ----------------------------------------
Label_01003032:
 BYTE   W96
//  #02 //005   ----------------------------------------
 BYTE   W96
//  #02 //006   ----------------------------------------
 BYTE   W96
//  #02 //007   ----------------------------------------
 BYTE   W96
//  #02 //008   ----------------------------------------
 BYTE   W96
//  #02 //009   ----------------------------------------
 BYTE   W96
//  #02 //010   ----------------------------------------
 BYTE   W96
//  #02 //011   ----------------------------------------
 BYTE   W96
//  #02 //012   ----------------------------------------
 BYTE   W96
//  #02 //013   ----------------------------------------
 BYTE   W96
//  #02 //014   ----------------------------------------
 BYTE   W96
//  #02 //015   ----------------------------------------
 BYTE   W96
//  #02 //016   ----------------------------------------
 BYTE   W96
//  #02 //017   ----------------------------------------
 BYTE   W96
//  #02 //018   ----------------------------------------
 BYTE   W96
//  #02 //019   ----------------------------------------
 BYTE   W96
//  #02 //020   ----------------------------------------
 BYTE   W96
//  #02 //021   ----------------------------------------
 BYTE   W96
//  #02 //022   ----------------------------------------
 BYTE   W96
//  #02 //023   ----------------------------------------
Label_01003045:
 BYTE   N96  Gn5  v116
 BYTE   N02  Fs5
 BYTE   W96
 BYTE   PEND 
//  #02 //024   ----------------------------------------
 BYTE   N48  Fn5
 BYTE   W48
 BYTE   En5
 BYTE   W48
//  #02 //025   ----------------------------------------
 BYTE   N96  Dn5
 BYTE   N02  Cs5
 BYTE   W96
//  #02 //026   ----------------------------------------
 BYTE   N04  Cs5  v085
 BYTE   W04
 BYTE   Cn5  v081
 BYTE   W04
 BYTE   Bn4  v078
 BYTE   W04
 BYTE   As4  v074
 BYTE   W04
 BYTE   An4  v072
 BYTE   W04
 BYTE   Gs4  v069
 BYTE   W04
 BYTE   Gn4  v065
 BYTE   W04
 BYTE   Fs4  v063
 BYTE   W04
 BYTE   Fn4  v059
 BYTE   W04
 BYTE   En4  v056
 BYTE   W04
 BYTE   Ds4  v054
 BYTE   W04
 BYTE   Dn4  v050
 BYTE   W04
 BYTE   Cs4  v048
 BYTE   W04
 BYTE   Cn4  v045
 BYTE   W04
 BYTE   Bn3  v043
 BYTE   W04
 BYTE   As3  v039
 BYTE   W04
 BYTE   An3  v037
 BYTE   W04
 BYTE   Gs3  v035
 BYTE   W04
 BYTE   Gn3  v032
 BYTE   W04
 BYTE   Fs3  v031
 BYTE   W04
 BYTE   Fn3  v028
 BYTE   W04
 BYTE   En3  v026
 BYTE   W04
 BYTE   Ds3  v023
 BYTE   W04
 BYTE   Dn3  v022
 BYTE   W04
//  #02 //027   ----------------------------------------
 BYTE   PATT
  POIN2 Label_01003045
//  #02 //028   ----------------------------------------
 BYTE   N48  Fn5  v116
 BYTE   W48
 BYTE   N44  En5
 BYTE   W42
 BYTE   N02  Fn5
 BYTE   W03
 BYTE   En5
 BYTE   W03
//  #02 //029   ----------------------------------------
 BYTE   N96  Dn5
 BYTE   W96
//  #02 //030   ----------------------------------------
 BYTE   N04  Cs5  v084
 BYTE   W04
 BYTE   Cn5  v081
 BYTE   W04
 BYTE   Bn4  v077
 BYTE   W04
 BYTE   As4  v074
 BYTE   W04
 BYTE   An4  v070
 BYTE   W04
 BYTE   Gs4  v068
 BYTE   W04
 BYTE   Gn4  v065
 BYTE   W04
 BYTE   Fs4  v061
 BYTE   W04
 BYTE   Fn4  v059
 BYTE   W04
 BYTE   En4  v055
 BYTE   W04
 BYTE   Ds4  v053
 BYTE   W04
 BYTE   Dn4  v050
 BYTE   W04
 BYTE   Cs4  v047
 BYTE   W04
 BYTE   Cn4  v045
 BYTE   W04
 BYTE   Bn3  v042
 BYTE   W04
 BYTE   As3  v039
 BYTE   W04
 BYTE   An3  v037
 BYTE   W04
 BYTE   Gs3  v034
 BYTE   W04
 BYTE   Gn3  v032
 BYTE   W04
 BYTE   Fs3  v031
 BYTE   W04
 BYTE   Fn3  v028
 BYTE   W04
 BYTE   En3  v026
 BYTE   W04
 BYTE   Ds3  v023
 BYTE   W04
 BYTE   Dn3  v022
 BYTE   W04
//  #02 //031   ----------------------------------------
 BYTE   W96
//  #02 //032   ----------------------------------------
 BYTE   W96
//  #02 //033   ----------------------------------------
 BYTE   W96
//  #02 //034   ----------------------------------------
 BYTE   W96
//  #02 //035   ----------------------------------------
 BYTE   W96
//  #02 //036   ----------------------------------------
 BYTE   W96
//  #02 //037   ----------------------------------------
 BYTE   W96
//  #02 //038   ----------------------------------------
 BYTE   W96
//  #02 //039   ----------------------------------------
 BYTE   GoTo
  POIN2 Label_01003032
 BYTE   FINE

//**************** Track 3 (Midi-Chn.2) ****************//

MegamanZXRockinOnTak_003:
//  #03 //000   ----------------------------------------
 BYTE   KEYSH   MegamanZXRockinOnTak_key+0
 BYTE   VOICE   61
 BYTE   VOL   73*MegamanZXRockinOnTak_mvl/mxv
 BYTE   PAN   c_v-34
 BYTE   BENDR  12
 BYTE   W96
//  #03 //001   ----------------------------------------
 BYTE   W96
//  #03 //002   ----------------------------------------
 BYTE   W96
//  #03 //003   ----------------------------------------
 BYTE   W96
//  #03 //004   ----------------------------------------
Label_01003FEE:
 BYTE   W96
//  #03 //005   ----------------------------------------
 BYTE   W96
//  #03 //006   ----------------------------------------
 BYTE   W96
//  #03 //007   ----------------------------------------
 BYTE   W96
//  #03 //008   ----------------------------------------
Label_01003FF2:
 BYTE   N05  An2  v116
 BYTE   N05  Dn3
 BYTE   W06
 BYTE   Gn2
 BYTE   N05  Cn3
 BYTE   W12
 BYTE   Dn3
 BYTE   N05  An2
 BYTE   W12
 BYTE   Cn3
 BYTE   N05  En3
 BYTE   W12
 BYTE   N08  Dn3
 BYTE   N08  Fn3
 BYTE   W12
 BYTE   N05  Dn3
 BYTE   N05  Fn3
 BYTE   W06
 BYTE   En3
 BYTE   N05  Cn3
 BYTE   W12
 BYTE   An2
 BYTE   N05  Dn3
 BYTE   W12
 BYTE   Gn2
 BYTE   N05  Cn3
 BYTE   W12
 BYTE   PEND 
//  #03 //009   ----------------------------------------
Label_0100401B:
 BYTE   N05  An2  v116
 BYTE   N05  Dn3
 BYTE   W06
 BYTE   Gn2
 BYTE   N05  Cn3
 BYTE   W12
 BYTE   Dn3
 BYTE   N05  An2
 BYTE   W12
 BYTE   N08  En3
 BYTE   N08  Cn3
 BYTE   W12
 BYTE   Dn3
 BYTE   N08  Fn3
 BYTE   W12
 BYTE   N05
 BYTE   N05  Dn3
 BYTE   W06
 BYTE   N08  En3
 BYTE   N08  Cn3
 BYTE   W12
 BYTE   N09  Gn3
 BYTE   N09  En3
 BYTE   W12
 BYTE   Fn3
 BYTE   N09  Dn3
 BYTE   W12
 BYTE   PEND 
//  #03 //010   ----------------------------------------
 BYTE   W96
//  #03 //011   ----------------------------------------
 BYTE   W96
//  #03 //012   ----------------------------------------
 BYTE   PATT
  POIN2 Label_01003FF2
//  #03 //013   ----------------------------------------
 BYTE   PATT
  POIN2 Label_0100401B
//  #03 //014   ----------------------------------------
 BYTE   W96
//  #03 //015   ----------------------------------------
 BYTE   W90
 BYTE   PAN   c_v-19
 BYTE   W06
//  #03 //016   ----------------------------------------
Label_01004056:
 BYTE   N06  Ds2  v116
 BYTE   W06
 BYTE   Gn2
 BYTE   W06
 BYTE   An2
 BYTE   W06
 BYTE   As2
 BYTE   W06
 BYTE   Ds3
 BYTE   W06
 BYTE   Gn3
 BYTE   W06
 BYTE   An3
 BYTE   W06
 BYTE   As3
 BYTE   W06
 BYTE   Ds4
 BYTE   W06
 BYTE   Gn4
 BYTE   W06
 BYTE   As3
 BYTE   W06
 BYTE   Ds4
 BYTE   W06
 BYTE   Gn3
 BYTE   W06
 BYTE   As3
 BYTE   W06
 BYTE   Ds3
 BYTE   W06
 BYTE   Gn3
 BYTE   W06
 BYTE   PEND 
//  #03 //017   ----------------------------------------
 BYTE   Gs1
 BYTE   W06
 BYTE   Cn2
 BYTE   W06
 BYTE   Dn2
 BYTE   W06
 BYTE   Ds2
 BYTE   W06
 BYTE   Gs2
 BYTE   W06
 BYTE   Cn3
 BYTE   W06
 BYTE   Dn3
 BYTE   W06
 BYTE   Ds3
 BYTE   W06
 BYTE   Gs3
 BYTE   W06
 BYTE   Cn4
 BYTE   W06
 BYTE   Ds3
 BYTE   W06
 BYTE   Gs3
 BYTE   W06
 BYTE   Cn3
 BYTE   W06
 BYTE   Ds3
 BYTE   W06
 BYTE   Gs2
 BYTE   W06
 BYTE   Cn3
 BYTE   W06
//  #03 //018   ----------------------------------------
 BYTE   W96
//  #03 //019   ----------------------------------------
 BYTE   W96
//  #03 //020   ----------------------------------------
 BYTE   PATT
  POIN2 Label_01004056
//  #03 //021   ----------------------------------------
 BYTE   N06  Gs1  v116
 BYTE   W06
 BYTE   Cn2
 BYTE   W06
 BYTE   Dn2
 BYTE   W06
 BYTE   Ds2
 BYTE   W06
 BYTE   Gs2
 BYTE   W06
 BYTE   Cn3
 BYTE   W06
 BYTE   Dn3
 BYTE   W06
 BYTE   Ds3
 BYTE   W06
 BYTE   Gs3
 BYTE   W06
 BYTE   Cn4
 BYTE   W06
 BYTE   Ds3
 BYTE   W06
 BYTE   Gs3
 BYTE   W06
 BYTE   Cn3
 BYTE   W06
 BYTE   Ds3
 BYTE   W06
 BYTE   Gs2
 BYTE   W06
 BYTE   Ds2
 BYTE   W06
//  #03 //022   ----------------------------------------
 BYTE   W96
//  #03 //023   ----------------------------------------
 BYTE   W96
//  #03 //024   ----------------------------------------
 BYTE   W96
//  #03 //025   ----------------------------------------
 BYTE   W96
//  #03 //026   ----------------------------------------
 BYTE   W96
//  #03 //027   ----------------------------------------
 BYTE   W96
//  #03 //028   ----------------------------------------
 BYTE   W96
//  #03 //029   ----------------------------------------
 BYTE   W96
//  #03 //030   ----------------------------------------
 BYTE   W96
//  #03 //031   ----------------------------------------
Label_010040CB:
 BYTE   N06  Cs1  v116
 BYTE   W06
 BYTE   En1
 BYTE   W06
 BYTE   Gn1
 BYTE   W06
 BYTE   An1
 BYTE   W06
 BYTE   Cs2
 BYTE   W06
 BYTE   En2
 BYTE   W06
 BYTE   Gn2
 BYTE   W06
 BYTE   An2
 BYTE   W06
 BYTE   Cs3
 BYTE   W06
 BYTE   En3
 BYTE   W06
 BYTE   An2
 BYTE   W06
 BYTE   Cs3
 BYTE   W06
 BYTE   En2
 BYTE   W06
 BYTE   An2
 BYTE   W06
 BYTE   Cs2
 BYTE   W06
 BYTE   En2
 BYTE   W06
 BYTE   PEND 
//  #03 //032   ----------------------------------------
 BYTE   PATT
  POIN2 Label_010040CB
//  #03 //033   ----------------------------------------
 BYTE   N06  Dn1  v116
 BYTE   W06
 BYTE   Fn1
 BYTE   W06
 BYTE   An1
 BYTE   W06
 BYTE   As1
 BYTE   W06
 BYTE   Dn2
 BYTE   W06
 BYTE   Fn2
 BYTE   W06
 BYTE   An2
 BYTE   W06
 BYTE   As2
 BYTE   W06
 BYTE   Dn3
 BYTE   W06
 BYTE   Fn3
 BYTE   W06
 BYTE   As2
 BYTE   W06
 BYTE   Dn3
 BYTE   W06
 BYTE   Fn2
 BYTE   W06
 BYTE   As2
 BYTE   W06
 BYTE   Dn2
 BYTE   W06
 BYTE   Fn2
 BYTE   W06
//  #03 //034   ----------------------------------------
 BYTE   En1
 BYTE   W06
 BYTE   Gn1
 BYTE   W06
 BYTE   As1
 BYTE   W06
 BYTE   Cn2
 BYTE   W06
 BYTE   En2
 BYTE   W06
 BYTE   Gn2
 BYTE   W06
 BYTE   As2
 BYTE   W06
 BYTE   Cn3
 BYTE   W06
 BYTE   En3
 BYTE   W06
 BYTE   Gn3
 BYTE   W06
 BYTE   Cn3
 BYTE   W06
 BYTE   En3
 BYTE   W06
 BYTE   Gn2
 BYTE   W06
 BYTE   Cn3
 BYTE   W06
 BYTE   En2
 BYTE   W06
 BYTE   Gn2
 BYTE   W06
//  #03 //035   ----------------------------------------
 BYTE   W96
//  #03 //036   ----------------------------------------
 BYTE   W96
//  #03 //037   ----------------------------------------
 BYTE   W96
//  #03 //038   ----------------------------------------
 BYTE   W96
//  #03 //039   ----------------------------------------
 BYTE   PAN   c_v-34
 BYTE   GoTo
  POIN2 Label_01003FEE
 BYTE   FINE

//**************** Track 4 (Midi-Chn.3) ****************//

MegamanZXRockinOnTak_004:
//  #04 //000   ----------------------------------------
 BYTE   KEYSH   MegamanZXRockinOnTak_key+0
 BYTE   VOICE   62
 BYTE   VOL   77*MegamanZXRockinOnTak_mvl/mxv
 BYTE   PAN   c_v+36
 BYTE   BENDR  12
 BYTE   W96
//  #04 //001   ----------------------------------------
 BYTE   W96
//  #04 //002   ----------------------------------------
 BYTE   W96
//  #04 //003   ----------------------------------------
 BYTE   W96
//  #04 //004   ----------------------------------------
Label_0100311A:
 BYTE   W96
//  #04 //005   ----------------------------------------
 BYTE   W96
//  #04 //006   ----------------------------------------
 BYTE   W96
//  #04 //007   ----------------------------------------
 BYTE   W96
//  #04 //008   ----------------------------------------
 BYTE   W96
//  #04 //009   ----------------------------------------
 BYTE   W96
//  #04 //010   ----------------------------------------
Label_01003120:
 BYTE   N05  An3  v085
 BYTE   N05  Dn3
 BYTE   N05  Dn4
 BYTE   W06
 BYTE   Cn4
 BYTE   N05  Gn3
 BYTE   N05  Cn3
 BYTE   W12
 BYTE   N07  Dn3
 BYTE   N07  An3
 BYTE   N07  Dn4
 BYTE   W12
 BYTE   N05  Gn3
 BYTE   N05  En4
 BYTE   N05  En3
 BYTE   W12
 BYTE   N08  An3
 BYTE   N08  Fn4
 BYTE   N08  Fn3
 BYTE   W12
 BYTE   N05  An3
 BYTE   N05  Fn4
 BYTE   N05  Fn3
 BYTE   W06
 BYTE   En4
 BYTE   N05  Gn3
 BYTE   N05  En3
 BYTE   W12
 BYTE   Dn4
 BYTE   N05  An3
 BYTE   N05  Dn3
 BYTE   W12
 BYTE   Cn4
 BYTE   N05  Gn3
 BYTE   N05  Cn3
 BYTE   W12
 BYTE   PEND 
//  #04 //011   ----------------------------------------
 BYTE   W96
//  #04 //012   ----------------------------------------
 BYTE   W96
//  #04 //013   ----------------------------------------
 BYTE   W96
//  #04 //014   ----------------------------------------
 BYTE   PATT
  POIN2 Label_01003120
//  #04 //015   ----------------------------------------
 BYTE   W96
//  #04 //016   ----------------------------------------
 BYTE   W96
//  #04 //017   ----------------------------------------
 BYTE   W96
//  #04 //018   ----------------------------------------
 BYTE   W96
//  #04 //019   ----------------------------------------
 BYTE   W96
//  #04 //020   ----------------------------------------
 BYTE   W96
//  #04 //021   ----------------------------------------
 BYTE   W96
//  #04 //022   ----------------------------------------
 BYTE   W96
//  #04 //023   ----------------------------------------
 BYTE   W96
//  #04 //024   ----------------------------------------
 BYTE   W96
//  #04 //025   ----------------------------------------
Label_0100316F:
 BYTE   W24
 BYTE   N17  Gn4  v116
 BYTE   N17  As3
 BYTE   W24
 BYTE   As3
 BYTE   N17  Fn4
 BYTE   W24
 BYTE   As3
 BYTE   N17  En4
 BYTE   W24
 BYTE   PEND 
//  #04 //026   ----------------------------------------
 BYTE   As3
 BYTE   N17  Fn4
 BYTE   W24
 BYTE   As3
 BYTE   N17  En4
 BYTE   W24
 BYTE   As3
 BYTE   N17  Fn4
 BYTE   W24
 BYTE   As3
 BYTE   N17  En4
 BYTE   W24
//  #04 //027   ----------------------------------------
 BYTE   W96
//  #04 //028   ----------------------------------------
 BYTE   W96
//  #04 //029   ----------------------------------------
 BYTE   PATT
  POIN2 Label_0100316F
//  #04 //030   ----------------------------------------
 BYTE   N17  As3  v116
 BYTE   N17  Fn4
 BYTE   W24
 BYTE   As3
 BYTE   N17  En4
 BYTE   W24
 BYTE   Fn4
 BYTE   N17  As3
 BYTE   W24
 BYTE   As3
 BYTE   N17  Gn4
 BYTE   W24
//  #04 //031   ----------------------------------------
 BYTE   W96
//  #04 //032   ----------------------------------------
 BYTE   W96
//  #04 //033   ----------------------------------------
 BYTE   W96
//  #04 //034   ----------------------------------------
 BYTE   W96
//  #04 //035   ----------------------------------------
 BYTE   W96
//  #04 //036   ----------------------------------------
 BYTE   W96
//  #04 //037   ----------------------------------------
 BYTE   W96
//  #04 //038   ----------------------------------------
 BYTE   W96
//  #04 //039   ----------------------------------------
 BYTE   GoTo
  POIN2 Label_0100311A
 BYTE   FINE

//**************** Track 5 (Midi-Chn.4) ****************//

MegamanZXRockinOnTak_005:
//  #05 //000   ----------------------------------------
 BYTE   KEYSH   MegamanZXRockinOnTak_key+0
 BYTE   VOICE   30
 BYTE   VOL   68*MegamanZXRockinOnTak_mvl/mxv
 BYTE   PAN   c_v-13
 BYTE   BENDR  12
 BYTE   N05  Dn1  v116
 BYTE   W06
 BYTE   Cn1
 BYTE   W06
 BYTE   Dn1
 BYTE   W06
 BYTE   N11  Fn1
 BYTE   W12
 BYTE   N05  Dn1
 BYTE   W06
 BYTE   Cn1
 BYTE   W06
 BYTE   N11  Dn1
 BYTE   W12
 BYTE   N05  Cn1
 BYTE   W06
 BYTE   Dn1
 BYTE   W06
 BYTE   N11  Fn1
 BYTE   W12
 BYTE   N05  Dn1
 BYTE   W06
 BYTE   Cn1
 BYTE   W06
 BYTE   Cs1
 BYTE   W06
//  #05 //001   ----------------------------------------
Label_010005FC:
 BYTE   N05  Dn1  v116
 BYTE   W06
 BYTE   Cn1
 BYTE   W06
 BYTE   Dn1
 BYTE   W06
 BYTE   N11  Fn1
 BYTE   W12
 BYTE   N05  Dn1
 BYTE   W06
 BYTE   Cn1
 BYTE   W06
 BYTE   N11  Dn1
 BYTE   W12
 BYTE   N05  Gs1
 BYTE   W06
 BYTE   Gn1
 BYTE   W06
 BYTE   Fn1
 BYTE   W06
 BYTE   Gn1
 BYTE   W06
 BYTE   Fn1
 BYTE   W06
 BYTE   Dn1
 BYTE   W06
 BYTE   Cn1
 BYTE   W06
 BYTE   PEND 
//  #05 //002   ----------------------------------------
Label_0100061F:
 BYTE   N05  Dn1  v116
 BYTE   W06
 BYTE   Cn1
 BYTE   W06
 BYTE   Dn1
 BYTE   W06
 BYTE   N11  Fn1
 BYTE   W12
 BYTE   N05  Dn1
 BYTE   W06
 BYTE   Cn1
 BYTE   W06
 BYTE   N11  Dn1
 BYTE   W12
 BYTE   N05  Cn1
 BYTE   W06
 BYTE   Dn1
 BYTE   W06
 BYTE   N11  Fn1
 BYTE   W12
 BYTE   N05  Dn1
 BYTE   W06
 BYTE   Cn1
 BYTE   W06
 BYTE   Cs1
 BYTE   W06
 BYTE   PEND 
//  #05 //003   ----------------------------------------
 BYTE   PATT
  POIN2 Label_010005FC
//  #05 //004   ----------------------------------------
Label_01000647:
 BYTE   N05  Dn1  v116
 BYTE   W06
 BYTE   Cn1
 BYTE   W06
 BYTE   Dn1
 BYTE   W06
 BYTE   N11  Fn1
 BYTE   W12
 BYTE   N05  Dn1
 BYTE   W06
 BYTE   Cn1
 BYTE   W06
 BYTE   N11  Dn1
 BYTE   W12
 BYTE   N05  Cn1
 BYTE   W06
 BYTE   Dn1
 BYTE   W06
 BYTE   N11  Fn1
 BYTE   W12
 BYTE   N05  Dn1
 BYTE   W06
 BYTE   Cn1
 BYTE   W06
 BYTE   Cs1
 BYTE   W06
//  #05 //005   ----------------------------------------
 BYTE   PATT
  POIN2 Label_010005FC
//  #05 //006   ----------------------------------------
 BYTE   PATT
  POIN2 Label_0100061F
//  #05 //007   ----------------------------------------
 BYTE   PATT
  POIN2 Label_010005FC
//  #05 //008   ----------------------------------------
 BYTE   PATT
  POIN2 Label_0100061F
//  #05 //009   ----------------------------------------
 BYTE   PATT
  POIN2 Label_010005FC
//  #05 //010   ----------------------------------------
 BYTE   W96
//  #05 //011   ----------------------------------------
 BYTE   W96
//  #05 //012   ----------------------------------------
 BYTE   PATT
  POIN2 Label_0100061F
//  #05 //013   ----------------------------------------
 BYTE   PATT
  POIN2 Label_010005FC
//  #05 //014   ----------------------------------------
 BYTE   W96
//  #05 //015   ----------------------------------------
 BYTE   W96
//  #05 //016   ----------------------------------------
 BYTE   N92  Ds1  v116  gtp3
 BYTE   W96
//  #05 //017   ----------------------------------------
 BYTE   Gs1
 BYTE   W96
//  #05 //018   ----------------------------------------
 BYTE   W96
//  #05 //019   ----------------------------------------
 BYTE   W96
//  #05 //020   ----------------------------------------
 BYTE   Ds1
 BYTE   W96
//  #05 //021   ----------------------------------------
 BYTE   Gs1
 BYTE   W96
//  #05 //022   ----------------------------------------
 BYTE   N05  Dn1
 BYTE   W06
 BYTE   Dn1
 BYTE   W06
 BYTE   Dn1
 BYTE   W06
 BYTE   Dn1
 BYTE   W12
 BYTE   Dn1
 BYTE   W06
 BYTE   Dn1
 BYTE   W06
 BYTE   Dn1
 BYTE   W30
 BYTE   N23
 BYTE   W24
//  #05 //023   ----------------------------------------
Label_010006AE:
 BYTE   N05  Gn1  v116
 BYTE   W06
 BYTE   Fn1
 BYTE   W06
 BYTE   Gn1
 BYTE   W06
 BYTE   N11  As1
 BYTE   W12
 BYTE   N05  Gn1
 BYTE   W06
 BYTE   Fn1
 BYTE   W06
 BYTE   N11  Gn1
 BYTE   W12
 BYTE   N05  Fn1
 BYTE   W06
 BYTE   Gn1
 BYTE   W06
 BYTE   N11  As1
 BYTE   W12
 BYTE   N05  Gn1
 BYTE   W06
 BYTE   Fn1
 BYTE   W06
 BYTE   Fs1
 BYTE   W06
 BYTE   PEND 
//  #05 //024   ----------------------------------------
Label_010006D1:
 BYTE   N05  Gn1  v116
 BYTE   W06
 BYTE   Fn1
 BYTE   W06
 BYTE   Gn1
 BYTE   W06
 BYTE   N11  As1
 BYTE   W12
 BYTE   N05  Gn1
 BYTE   W06
 BYTE   Fn1
 BYTE   W06
 BYTE   N11  Gn1
 BYTE   W12
 BYTE   N05  Cs2
 BYTE   W06
 BYTE   Cn2
 BYTE   W06
 BYTE   As1
 BYTE   W06
 BYTE   Cn2
 BYTE   W06
 BYTE   As1
 BYTE   W06
 BYTE   Gn1
 BYTE   W06
 BYTE   Fn1
 BYTE   W06
 BYTE   PEND 
//  #05 //025   ----------------------------------------
 BYTE   N92  Gn1  v116  gtp3
 BYTE   W96
//  #05 //026   ----------------------------------------
 BYTE   W96
//  #05 //027   ----------------------------------------
 BYTE   PATT
  POIN2 Label_010006AE
//  #05 //028   ----------------------------------------
 BYTE   PATT
  POIN2 Label_010006D1
//  #05 //029   ----------------------------------------
 BYTE   N92  Gn1  v116  gtp3
 BYTE   W96
//  #05 //030   ----------------------------------------
 BYTE   W96
//  #05 //031   ----------------------------------------
 BYTE   TIE  An1
 BYTE   W96
//  #05 //032   ----------------------------------------
 BYTE   W92
 BYTE   W03
 BYTE   EOT
 BYTE   W01
//  #05 //033   ----------------------------------------
 BYTE   N92  As1  v116  gtp3
 BYTE   W96
//  #05 //034   ----------------------------------------
 BYTE   Cn2
 BYTE   W96
//  #05 //035   ----------------------------------------
 BYTE   PATT
  POIN2 Label_0100061F
//  #05 //036   ----------------------------------------
 BYTE   PATT
  POIN2 Label_010005FC
//  #05 //037   ----------------------------------------
 BYTE   PATT
  POIN2 Label_0100061F
//  #05 //038   ----------------------------------------
 BYTE   PATT
  POIN2 Label_010005FC
//  #05 //039   ----------------------------------------
 BYTE   GoTo
  POIN2 Label_01000647
 BYTE   FINE

//**************** Track 6 (Midi-Chn.5) ****************//

MegamanZXRockinOnTak_006:
//  #06 //000   ----------------------------------------
 BYTE   KEYSH   MegamanZXRockinOnTak_key+0
 BYTE   VOICE   36
 BYTE   VOL   59*MegamanZXRockinOnTak_mvl/mxv
 BYTE   BENDR  12
 BYTE   W96
//  #06 //001   ----------------------------------------
 BYTE   W96
//  #06 //002   ----------------------------------------
 BYTE   W96
//  #06 //003   ----------------------------------------
 BYTE   W96
//  #06 //004   ----------------------------------------
Label_01004160:
 BYTE   W96
//  #06 //005   ----------------------------------------
 BYTE   W96
//  #06 //006   ----------------------------------------
 BYTE   W96
//  #06 //007   ----------------------------------------
 BYTE   W96
//  #06 //008   ----------------------------------------
 BYTE   W96
//  #06 //009   ----------------------------------------
Label_01004165:
 BYTE   W92
 BYTE   W02
 BYTE   N05  Dn1  v116
 BYTE   W02
 BYTE   PEND 
//  #06 //010   ----------------------------------------
Label_0100416C:
 BYTE   W04
 BYTE   N05  Dn1  v116
 BYTE   W06
 BYTE   Dn1
 BYTE   W06
 BYTE   Dn1
 BYTE   W06
 BYTE   Dn1
 BYTE   W06
 BYTE   Dn1
 BYTE   W06
 BYTE   Dn1
 BYTE   W06
 BYTE   Dn1
 BYTE   W06
 BYTE   Dn1
 BYTE   W06
 BYTE   Dn1
 BYTE   W06
 BYTE   Dn1
 BYTE   W06
 BYTE   Dn1
 BYTE   W06
 BYTE   Dn1
 BYTE   W06
 BYTE   Dn1
 BYTE   W06
 BYTE   Dn1
 BYTE   W06
 BYTE   Dn1
 BYTE   W08
 BYTE   PEND 
//  #06 //011   ----------------------------------------
Label_0100418E:
 BYTE   N06  Gs1  v116
 BYTE   W06
 BYTE   Gn1
 BYTE   W06
 BYTE   Dn1
 BYTE   W06
 BYTE   N12  Gs1
 BYTE   W12
 BYTE   N06  Gn1
 BYTE   W06
 BYTE   Dn1
 BYTE   W06
 BYTE   N12  Gs1
 BYTE   W12
 BYTE   N06  Gn1
 BYTE   W06
 BYTE   Dn1
 BYTE   W06
 BYTE   N12  Gs1
 BYTE   W12
 BYTE   N06  Gn1
 BYTE   W06
 BYTE   N12  Dn1
 BYTE   W12
 BYTE   PEND 
//  #06 //012   ----------------------------------------
 BYTE   W96
//  #06 //013   ----------------------------------------
 BYTE   PATT
  POIN2 Label_01004165
//  #06 //014   ----------------------------------------
 BYTE   PATT
  POIN2 Label_0100416C
//  #06 //015   ----------------------------------------
 BYTE   PATT
  POIN2 Label_0100418E
//  #06 //016   ----------------------------------------
 BYTE   W96
//  #06 //017   ----------------------------------------
 BYTE   PATT
  POIN2 Label_01004165
//  #06 //018   ----------------------------------------
 BYTE   PATT
  POIN2 Label_0100416C
//  #06 //019   ----------------------------------------
 BYTE   PATT
  POIN2 Label_0100418E
//  #06 //020   ----------------------------------------
 BYTE   W96
//  #06 //021   ----------------------------------------
 BYTE   W96
//  #06 //022   ----------------------------------------
 BYTE   W96
//  #06 //023   ----------------------------------------
 BYTE   W96
//  #06 //024   ----------------------------------------
 BYTE   W96
//  #06 //025   ----------------------------------------
 BYTE   W96
//  #06 //026   ----------------------------------------
Label_010041D6:
 BYTE   N06  Cs2  v116
 BYTE   W06
 BYTE   Cn2
 BYTE   W06
 BYTE   Gn1
 BYTE   W06
 BYTE   N12  Cs2
 BYTE   W12
 BYTE   N06  Cn2
 BYTE   W06
 BYTE   Gn1
 BYTE   W06
 BYTE   N12  Cs2
 BYTE   W12
 BYTE   N06  Cn2
 BYTE   W06
 BYTE   Gn1
 BYTE   W06
 BYTE   N12  Cs2
 BYTE   W12
 BYTE   N06  Cn2
 BYTE   W06
 BYTE   N12  Gn1
 BYTE   W12
 BYTE   PEND 
//  #06 //027   ----------------------------------------
 BYTE   W96
//  #06 //028   ----------------------------------------
 BYTE   W96
//  #06 //029   ----------------------------------------
 BYTE   W96
//  #06 //030   ----------------------------------------
 BYTE   PATT
  POIN2 Label_010041D6
//  #06 //031   ----------------------------------------
 BYTE   W96
//  #06 //032   ----------------------------------------
 BYTE   W96
//  #06 //033   ----------------------------------------
 BYTE   W96
//  #06 //034   ----------------------------------------
 BYTE   W96
//  #06 //035   ----------------------------------------
 BYTE   W96
//  #06 //036   ----------------------------------------
 BYTE   W96
//  #06 //037   ----------------------------------------
 BYTE   W96
//  #06 //038   ----------------------------------------
 BYTE   W96
//  #06 //039   ----------------------------------------
 BYTE   GoTo
  POIN2 Label_01004160
 BYTE   FINE

//**************** Track 7 (Midi-Chn.6) ****************//

MegamanZXRockinOnTak_007:
//  #07 //000   ----------------------------------------
 BYTE   KEYSH   MegamanZXRockinOnTak_key+0
 BYTE   VOICE   4
 BYTE   VOL   77*MegamanZXRockinOnTak_mvl/mxv
 BYTE   PAN   c_v+20
 BYTE   BENDR  12
 BYTE   W96
//  #07 //001   ----------------------------------------
 BYTE   W96
//  #07 //002   ----------------------------------------
 BYTE   W96
//  #07 //003   ----------------------------------------
 BYTE   W96
//  #07 //004   ----------------------------------------
Label_0100422E:
 BYTE   W96
//  #07 //005   ----------------------------------------
 BYTE   W96
//  #07 //006   ----------------------------------------
 BYTE   W96
//  #07 //007   ----------------------------------------
 BYTE   W96
//  #07 //008   ----------------------------------------
 BYTE   W96
//  #07 //009   ----------------------------------------
 BYTE   W96
//  #07 //010   ----------------------------------------
 BYTE   W96
//  #07 //011   ----------------------------------------
 BYTE   W96
//  #07 //012   ----------------------------------------
 BYTE   W96
//  #07 //013   ----------------------------------------
 BYTE   W96
//  #07 //014   ----------------------------------------
 BYTE   W96
//  #07 //015   ----------------------------------------
 BYTE   W96
//  #07 //016   ----------------------------------------
Label_0100423A:
 BYTE   N06  Gn2  v085
 BYTE   W06
 BYTE   As2
 BYTE   W06
 BYTE   Dn3
 BYTE   W06
 BYTE   Ds3
 BYTE   W06
 BYTE   Gn3
 BYTE   W06
 BYTE   As3
 BYTE   W06
 BYTE   Dn4
 BYTE   W06
 BYTE   Ds4
 BYTE   W06
 BYTE   Gn4
 BYTE   W06
 BYTE   As4
 BYTE   W06
 BYTE   Ds4
 BYTE   W06
 BYTE   Gn4
 BYTE   W06
 BYTE   As3
 BYTE   W06
 BYTE   Ds4
 BYTE   W06
 BYTE   Gn3
 BYTE   W06
 BYTE   As3
 BYTE   W06
 BYTE   PEND 
//  #07 //017   ----------------------------------------
 BYTE   Cn2
 BYTE   W06
 BYTE   Ds2
 BYTE   W06
 BYTE   Gn2
 BYTE   W06
 BYTE   Gs2
 BYTE   W06
 BYTE   Cn3
 BYTE   W06
 BYTE   Ds3
 BYTE   W06
 BYTE   Gn3
 BYTE   W06
 BYTE   Gs3
 BYTE   W06
 BYTE   Cn4
 BYTE   W06
 BYTE   Ds4
 BYTE   W06
 BYTE   Gs3
 BYTE   W06
 BYTE   Cn4
 BYTE   W06
 BYTE   Ds3
 BYTE   W06
 BYTE   Gs3
 BYTE   W06
 BYTE   Cn3
 BYTE   W06
 BYTE   Ds3
 BYTE   W06
//  #07 //018   ----------------------------------------
 BYTE   N05  Dn4  v116
 BYTE   W04
 BYTE   An3  v085
 BYTE   W05
 BYTE   Dn4  v091
 BYTE   W05
 BYTE   Cn4  v094
 BYTE   W05
 BYTE   An3  v097
 BYTE   W05
 BYTE   En4  v109
 BYTE   W04
 BYTE   An3  v088
 BYTE   W05
 BYTE   En4  v094
 BYTE   W05
 BYTE   Cn4
 BYTE   W05
 BYTE   An3  v085
 BYTE   W05
 BYTE   Fn4  v106
 BYTE   W04
 BYTE   An3  v091
 BYTE   W05
 BYTE   Fn4  v094
 BYTE   W05
 BYTE   Cn4  v091
 BYTE   W05
 BYTE   An3  v097
 BYTE   W05
 BYTE   Gn4  v109
 BYTE   W04
 BYTE   An3  v094
 BYTE   W05
 BYTE   Gn4  v088
 BYTE   W05
 BYTE   Cn4  v097
 BYTE   W05
 BYTE   An3  v090
 BYTE   W05
//  #07 //019   ----------------------------------------
 BYTE   BEND   c_v+5
 BYTE   N12  Gn3  v103
 BYTE   W01
 BYTE   BEND   c_v+6
 BYTE   W02
 BYTE   BEND   c_v+4
 BYTE   W01
 BYTE   BEND   c_v+3
 BYTE   W02
 BYTE   BEND   c_v+0
 BYTE   W06
 BYTE   N06  Dn3  v091
 BYTE   W06
 BYTE   BEND   c_v+5
 BYTE   N18  Gn3  v105
 BYTE   W12
 BYTE   BEND   c_v+0
 BYTE   W06
 BYTE   N06  Dn3  v088
 BYTE   W06
 BYTE   BEND   c_v+5
 BYTE   N18  Gn3  v103
 BYTE   W12
 BYTE   BEND   c_v+0
 BYTE   W06
 BYTE   N06  Dn3  v091
 BYTE   W06
 BYTE   BEND   c_v+5
 BYTE   N18  Gn3  v106
 BYTE   W12
 BYTE   BEND   c_v+0
 BYTE   W06
 BYTE   N12  Dn3  v090
 BYTE   W12
//  #07 //020   ----------------------------------------
 BYTE   PATT
  POIN2 Label_0100423A
//  #07 //021   ----------------------------------------
 BYTE   N06  Cn2  v085
 BYTE   W06
 BYTE   Ds2
 BYTE   W06
 BYTE   Gn2
 BYTE   W06
 BYTE   Gs2
 BYTE   W06
 BYTE   Cn3
 BYTE   W06
 BYTE   Ds3
 BYTE   W06
 BYTE   Gn3
 BYTE   W06
 BYTE   Gs3
 BYTE   W06
 BYTE   Cn4
 BYTE   W06
 BYTE   Ds4
 BYTE   W06
 BYTE   Gs3
 BYTE   W06
 BYTE   Cn4
 BYTE   W06
 BYTE   Ds3
 BYTE   W06
 BYTE   Gs3
 BYTE   W06
 BYTE   Cn3
 BYTE   W06
 BYTE   Gs2
 BYTE   W06
//  #07 //022   ----------------------------------------
 BYTE   W96
//  #07 //023   ----------------------------------------
 BYTE   W96
//  #07 //024   ----------------------------------------
 BYTE   W96
//  #07 //025   ----------------------------------------
 BYTE   W96
//  #07 //026   ----------------------------------------
 BYTE   W96
//  #07 //027   ----------------------------------------
 BYTE   W96
//  #07 //028   ----------------------------------------
 BYTE   W96
//  #07 //029   ----------------------------------------
 BYTE   W96
//  #07 //030   ----------------------------------------
 BYTE   W96
//  #07 //031   ----------------------------------------
Label_01004323:
 BYTE   N06  Cs2  v085
 BYTE   W06
 BYTE   En2
 BYTE   W06
 BYTE   Gn2
 BYTE   W06
 BYTE   An2
 BYTE   W06
 BYTE   Cs3
 BYTE   W06
 BYTE   En3
 BYTE   W06
 BYTE   Gn3
 BYTE   W06
 BYTE   An3
 BYTE   W06
 BYTE   Cs4
 BYTE   W06
 BYTE   En4
 BYTE   W06
 BYTE   An3
 BYTE   W06
 BYTE   Cs4
 BYTE   W06
 BYTE   En3
 BYTE   W06
 BYTE   An3
 BYTE   W06
 BYTE   Cs3
 BYTE   W06
 BYTE   En3
 BYTE   W06
 BYTE   PEND 
//  #07 //032   ----------------------------------------
 BYTE   PATT
  POIN2 Label_01004323
//  #07 //033   ----------------------------------------
 BYTE   N06  Dn2  v085
 BYTE   W06
 BYTE   Fn2
 BYTE   W06
 BYTE   An2
 BYTE   W06
 BYTE   As2
 BYTE   W06
 BYTE   Dn3
 BYTE   W06
 BYTE   Fn3
 BYTE   W06
 BYTE   An3
 BYTE   W06
 BYTE   As3
 BYTE   W06
 BYTE   Dn4
 BYTE   W06
 BYTE   Fn4
 BYTE   W06
 BYTE   As3
 BYTE   W06
 BYTE   Dn4
 BYTE   W06
 BYTE   Fn3
 BYTE   W06
 BYTE   As3
 BYTE   W06
 BYTE   Dn3
 BYTE   W06
 BYTE   Fn3
 BYTE   W06
//  #07 //034   ----------------------------------------
 BYTE   En2
 BYTE   W06
 BYTE   Gn2
 BYTE   W06
 BYTE   As2
 BYTE   W06
 BYTE   Cn3
 BYTE   W06
 BYTE   En3
 BYTE   W06
 BYTE   Gn3
 BYTE   W06
 BYTE   As3
 BYTE   W06
 BYTE   Cn4
 BYTE   W06
 BYTE   En4
 BYTE   W06
 BYTE   Gn4
 BYTE   W06
 BYTE   Cn4
 BYTE   W06
 BYTE   En4
 BYTE   W06
 BYTE   Gn3
 BYTE   W06
 BYTE   Cn4
 BYTE   W06
 BYTE   En3
 BYTE   W06
 BYTE   Gn3
 BYTE   W06
//  #07 //035   ----------------------------------------
 BYTE   W96
//  #07 //036   ----------------------------------------
 BYTE   W96
//  #07 //037   ----------------------------------------
 BYTE   W96
//  #07 //038   ----------------------------------------
 BYTE   W96
//  #07 //039   ----------------------------------------
 BYTE   GoTo
  POIN2 Label_0100422E
 BYTE   FINE

//**************** Track 8 (Midi-Chn.7) ****************//

MegamanZXRockinOnTak_008:
//  #08 //000   ----------------------------------------
 BYTE   KEYSH   MegamanZXRockinOnTak_key+0
 BYTE   VOICE   124
 BYTE   VOL   61*MegamanZXRockinOnTak_mvl/mxv
 BYTE   BENDR  12
 BYTE   N24  An2  v119
 BYTE   N06  Cn1  v085
 BYTE   W24
 BYTE   Cn1
 BYTE   W24
 BYTE   Cn1
 BYTE   W24
 BYTE   Cn1
 BYTE   W24
//  #08 //001   ----------------------------------------
 BYTE   Cn1
 BYTE   W24
 BYTE   Cn1
 BYTE   W24
 BYTE   Cn1
 BYTE   W24
 BYTE   Cn1
 BYTE   W18
 BYTE   N03  Gn1  v108
 BYTE   W03
 BYTE   Fn1
 BYTE   W03
//  #08 //002   ----------------------------------------
 BYTE   N18  As1  v078
 BYTE   N06  Cn1  v085
 BYTE   W24
 BYTE   Cn1
 BYTE   N18  As1  v078
 BYTE   W24
 BYTE   N06  Cn1  v085
 BYTE   N18  As1  v078
 BYTE   W24
 BYTE   N06  Cn1  v085
 BYTE   N18  As1  v078
 BYTE   W24
//  #08 //003   ----------------------------------------
 BYTE   N06  Cn1  v085
 BYTE   N18  As1  v078
 BYTE   W24
 BYTE   N06  Cn1  v085
 BYTE   N18  As1  v078
 BYTE   W24
 BYTE   N06  Cn1  v085
 BYTE   N18  As1  v078
 BYTE   W06
 BYTE   N06  An1  v108
 BYTE   W06
 BYTE   Gn1
 BYTE   W06
 BYTE   Fn1
 BYTE   W06
 BYTE   Dn1  v100
 BYTE   W06
 BYTE   Dn1
 BYTE   W06
 BYTE   Dn1
 BYTE   W06
 BYTE   Dn1
 BYTE   W06
//  #08 //004   ----------------------------------------
Label_01025BF3:
 BYTE   N24  An2  v119
 BYTE   N06  Cn1  v085
 BYTE   W06
 BYTE   Cn1
 BYTE   W06
 BYTE   Dn1  v100
 BYTE   N12  Ds2  v101
 BYTE   W06
 BYTE   N06  Cn1  v085
 BYTE   W06
 BYTE   N12  Ds2  v108
 BYTE   W06
 BYTE   N06  Cn1  v085
 BYTE   W06
 BYTE   Dn1  v100
 BYTE   N12  Ds2  v101
 BYTE   W06
 BYTE   N06  Cn1  v085
 BYTE   W06
 BYTE   N12  Ds2  v101
 BYTE   W06
 BYTE   N06  Cn1  v085
 BYTE   W06
 BYTE   Dn1  v100
 BYTE   N12  Ds2  v108
 BYTE   W06
 BYTE   N06  Cn1  v085
 BYTE   W06
 BYTE   N12  Ds2  v095
 BYTE   W06
 BYTE   N06  Cn1  v085
 BYTE   W06
 BYTE   Dn1  v100
 BYTE   N12  Ds2  v101
 BYTE   W06
 BYTE   N06  Cn1  v085
 BYTE   W06
//  #08 //005   ----------------------------------------
 BYTE   N12  Ds2  v101
 BYTE   N06  Cn1  v085
 BYTE   W06
 BYTE   Cn1
 BYTE   W06
 BYTE   Dn1  v100
 BYTE   N12  Ds2  v101
 BYTE   W06
 BYTE   N06  Cn1  v085
 BYTE   W06
 BYTE   N12  Ds2  v092
 BYTE   W06
 BYTE   N06  Cn1  v085
 BYTE   W06
 BYTE   Dn1  v100
 BYTE   N12  Ds2  v095
 BYTE   W06
 BYTE   N06  Cn1  v085
 BYTE   W06
 BYTE   N12  Ds2  v101
 BYTE   W06
 BYTE   N06  Cn1  v085
 BYTE   W06
 BYTE   Dn1  v100
 BYTE   N12  Ds2  v101
 BYTE   W06
 BYTE   N06  Cn1  v085
 BYTE   W06
 BYTE   N12  Ds2  v101
 BYTE   W06
 BYTE   N06  Cn1  v085
 BYTE   W06
 BYTE   Dn1  v100
 BYTE   N12  Ds2  v101
 BYTE   W06
 BYTE   N06  Cn1  v085
 BYTE   W06
//  #08 //006   ----------------------------------------
 BYTE   N12  Ds2  v111
 BYTE   N06  Cn1  v085
 BYTE   W06
 BYTE   Cn1
 BYTE   W06
 BYTE   Dn1  v100
 BYTE   N12  Ds2  v101
 BYTE   W06
 BYTE   N06  Cn1  v085
 BYTE   W06
 BYTE   N12  Ds2  v108
 BYTE   W06
 BYTE   N06  Cn1  v085
 BYTE   W06
 BYTE   Dn1  v100
 BYTE   N12  Ds2  v101
 BYTE   W06
 BYTE   N06  Cn1  v085
 BYTE   W06
 BYTE   N12  Ds2  v101
 BYTE   W06
 BYTE   N06  Cn1  v085
 BYTE   W06
 BYTE   Dn1  v100
 BYTE   N12  Ds2  v108
 BYTE   W06
 BYTE   N06  Cn1  v085
 BYTE   W06
 BYTE   N12  Ds2  v095
 BYTE   W06
 BYTE   N06  Cn1  v085
 BYTE   W06
 BYTE   Dn1  v100
 BYTE   N12  Ds2  v101
 BYTE   W06
 BYTE   N06  Cn1  v085
 BYTE   W06
//  #08 //007   ----------------------------------------
 BYTE   N12  Ds2  v101
 BYTE   N06  Cn1  v085
 BYTE   W06
 BYTE   Cn1
 BYTE   W06
 BYTE   Dn1  v100
 BYTE   N12  Ds2  v101
 BYTE   W06
 BYTE   N06  Cn1  v085
 BYTE   W06
 BYTE   N12  Ds2  v092
 BYTE   N06  Cn1  v085
 BYTE   W06
 BYTE   Cn1
 BYTE   W06
 BYTE   Dn1  v100
 BYTE   N12  Ds2  v095
 BYTE   W06
 BYTE   N06  Cn1  v085
 BYTE   W06
 BYTE   N12  Ds2  v101
 BYTE   N06  Cn1  v085
 BYTE   W06
 BYTE   Cn1
 BYTE   W06
 BYTE   Dn1  v100
 BYTE   N24  Ds2  v101
 BYTE   W06
 BYTE   N06  Dn1  v100
 BYTE   W06
 BYTE   Gn1  v108
 BYTE   N06  Cn1  v085
 BYTE   W06
 BYTE   Fn1  v108
 BYTE   N06  Cn1  v085
 BYTE   W06
 BYTE   Dn1  v100
 BYTE   N24  Ds2  v095
 BYTE   W06
 BYTE   N06  Dn1  v100
 BYTE   N06  Cn1  v085
 BYTE   W06
//  #08 //008   ----------------------------------------
 BYTE   N24  Cs2  v119
 BYTE   N06  Cn1  v085
 BYTE   W06
 BYTE   Cn1
 BYTE   W06
 BYTE   Dn1  v100
 BYTE   N12  Ds2  v101
 BYTE   W06
 BYTE   N06  Cn1  v085
 BYTE   W06
 BYTE   N12  Ds2  v108
 BYTE   W06
 BYTE   N06  Cn1  v085
 BYTE   W06
 BYTE   Dn1  v100
 BYTE   N12  Ds2  v101
 BYTE   W06
 BYTE   N06  Cn1  v085
 BYTE   W06
 BYTE   N12  Ds2  v101
 BYTE   W06
 BYTE   N06  Cn1  v085
 BYTE   W06
 BYTE   Dn1  v100
 BYTE   N12  Ds2  v108
 BYTE   W06
 BYTE   N06  Cn1  v085
 BYTE   W06
 BYTE   N12  Ds2  v095
 BYTE   W06
 BYTE   N06  Cn1  v085
 BYTE   W06
 BYTE   Dn1  v100
 BYTE   N12  Ds2  v101
 BYTE   W06
 BYTE   N06  Cn1  v085
 BYTE   W06
//  #08 //009   ----------------------------------------
 BYTE   N12  Ds2  v101
 BYTE   W06
 BYTE   N06  Cn1  v085
 BYTE   W06
 BYTE   Dn1  v100
 BYTE   N12  Ds2  v101
 BYTE   W06
 BYTE   N06  Cn1  v085
 BYTE   W06
 BYTE   N12  Ds2  v092
 BYTE   W06
 BYTE   N06  Cn1  v085
 BYTE   W06
 BYTE   Dn1  v100
 BYTE   N06  Ds2  v095
 BYTE   W06
 BYTE   Cn1  v085
 BYTE   N12  Ds2  v101
 BYTE   W06
 BYTE   N06  Cn1  v085
 BYTE   W06
 BYTE   Cn1
 BYTE   N06  Ds2  v101
 BYTE   W06
 BYTE   Dn1  v100
 BYTE   N12  Ds2  v108
 BYTE   W06
 BYTE   N06  Cn1  v085
 BYTE   W06
 BYTE   N12  Ds2  v101
 BYTE   W06
 BYTE   N06  Cn1  v085
 BYTE   W06
 BYTE   Dn1  v100
 BYTE   N24  Ds2  v101
 BYTE   W06
 BYTE   N06  Cn1  v085
 BYTE   W06
//  #08 //010   ----------------------------------------
Label_01025DB4:
 BYTE   N24  Cs2  v119
 BYTE   N06  Cn1  v085
 BYTE   W06
 BYTE   Cn1
 BYTE   W06
 BYTE   Dn1  v100
 BYTE   N12  Ds2  v101
 BYTE   W06
 BYTE   N06  Cn1  v085
 BYTE   W06
 BYTE   N12  Ds2  v108
 BYTE   N06  Cn1  v085
 BYTE   W06
 BYTE   Cn1
 BYTE   W06
 BYTE   Dn1  v100
 BYTE   N12  Ds2  v101
 BYTE   W06
 BYTE   N06  Cn1  v085
 BYTE   W06
 BYTE   N12  Ds2  v101
 BYTE   N06  Cn1  v085
 BYTE   W06
 BYTE   Cn1
 BYTE   W06
 BYTE   Dn1  v100
 BYTE   N12  Ds2  v108
 BYTE   W06
 BYTE   N06  Cn1  v085
 BYTE   W06
 BYTE   N12  Ds2  v095
 BYTE   N06  Cn1  v085
 BYTE   W06
 BYTE   Cn1
 BYTE   W06
 BYTE   Dn1  v100
 BYTE   N12  Ds2  v101
 BYTE   W06
 BYTE   N06  Cn1  v085
 BYTE   W06
 BYTE   PEND 
//  #08 //011   ----------------------------------------
 BYTE   Cn1
 BYTE   N12  Ds2  v101
 BYTE   W06
 BYTE   N06  Cn1  v085
 BYTE   W06
 BYTE   Dn1  v100
 BYTE   N12  Ds2  v101
 BYTE   W06
 BYTE   N06  Cn1  v085
 BYTE   W06
 BYTE   N12  Ds2  v092
 BYTE   N06  Cn1  v085
 BYTE   W06
 BYTE   Cn1
 BYTE   W06
 BYTE   Dn1  v100
 BYTE   N12  Ds2  v095
 BYTE   W06
 BYTE   N06  Cn1  v085
 BYTE   W06
 BYTE   N12  Ds2  v101
 BYTE   N06  Cn1  v085
 BYTE   W06
 BYTE   Cn1
 BYTE   W06
 BYTE   Dn1  v100
 BYTE   N06  Ds2  v101
 BYTE   W06
 BYTE   Cn1  v085
 BYTE   N12  Ds2  v108
 BYTE   W06
 BYTE   N06  Cn1  v085
 BYTE   W06
 BYTE   Cn1
 BYTE   N06  Ds2  v101
 BYTE   W06
 BYTE   Dn1  v100
 BYTE   N24  Ds2  v101
 BYTE   W06
 BYTE   N06  Cn1  v085
 BYTE   W06
//  #08 //012   ----------------------------------------
 BYTE   N24  An2  v119
 BYTE   N06  Cn1  v085
 BYTE   W06
 BYTE   Cn1
 BYTE   W06
 BYTE   Dn1  v100
 BYTE   N12  Ds2  v101
 BYTE   W06
 BYTE   N06  Cn1  v085
 BYTE   W06
 BYTE   N12  Ds2  v108
 BYTE   W06
 BYTE   N06  Cn1  v085
 BYTE   W06
 BYTE   Dn1  v100
 BYTE   N12  Ds2  v101
 BYTE   W06
 BYTE   N06  Cn1  v085
 BYTE   W06
 BYTE   N12  Ds2  v101
 BYTE   W06
 BYTE   N06  Cn1  v085
 BYTE   W06
 BYTE   Dn1  v100
 BYTE   N12  Ds2  v108
 BYTE   W06
 BYTE   N06  Cn1  v085
 BYTE   W06
 BYTE   N12  Ds2  v095
 BYTE   W06
 BYTE   N06  Cn1  v085
 BYTE   W06
 BYTE   Dn1  v100
 BYTE   N12  Ds2  v101
 BYTE   W06
 BYTE   N06  Cn1  v085
 BYTE   W06
//  #08 //013   ----------------------------------------
 BYTE   N12  Ds2  v101
 BYTE   W06
 BYTE   N06  Cn1  v085
 BYTE   W06
 BYTE   Dn1  v100
 BYTE   N12  Ds2  v101
 BYTE   W06
 BYTE   N06  Cn1  v085
 BYTE   W06
 BYTE   N12  Ds2  v092
 BYTE   N06  Cn1  v085
 BYTE   W06
 BYTE   Cn1
 BYTE   W06
 BYTE   Dn1  v100
 BYTE   N06  Ds2  v095
 BYTE   W06
 BYTE   Cn1  v085
 BYTE   N12  Ds2  v101
 BYTE   W06
 BYTE   N06  Cn1  v085
 BYTE   W06
 BYTE   Cn1
 BYTE   N06  Ds2  v101
 BYTE   W06
 BYTE   Dn1  v100
 BYTE   N12  Ds2  v108
 BYTE   W06
 BYTE   N06  Cn1  v085
 BYTE   W06
 BYTE   N12  Ds2  v101
 BYTE   W06
 BYTE   N06  Cn1  v085
 BYTE   W06
 BYTE   Dn1  v100
 BYTE   N24  Ds2  v101
 BYTE   W06
 BYTE   N06  Cn1  v085
 BYTE   W06
//  #08 //014   ----------------------------------------
 BYTE   PATT
  POIN2 Label_01025DB4
//  #08 //015   ----------------------------------------
 BYTE   N06  Cn1  v085
 BYTE   N12  Ds2  v101
 BYTE   W06
 BYTE   N06  Cn1  v085
 BYTE   W06
 BYTE   Dn1  v100
 BYTE   N12  Ds2  v101
 BYTE   W06
 BYTE   N06  Cn1  v085
 BYTE   W06
 BYTE   N12  Ds2  v092
 BYTE   N06  Cn1  v085
 BYTE   W06
 BYTE   Cn1
 BYTE   W06
 BYTE   Dn1  v100
 BYTE   N12  Ds2  v095
 BYTE   W06
 BYTE   N06  Cn1  v085
 BYTE   W06
 BYTE   N24  Ds2  v101
 BYTE   W06
 BYTE   N06  Cn1  v085
 BYTE   W06
 BYTE   Dn1  v100
 BYTE   N24  Cs2  v085
 BYTE   W06
 BYTE   N06  Cn1
 BYTE   W06
 BYTE   Cn1
 BYTE   N24  Ds2  v101
 BYTE   W06
 BYTE   N06  Cn1  v085
 BYTE   W06
 BYTE   Dn1  v100
 BYTE   N12  Cs2  v085
 BYTE   W06
 BYTE   N06  Cn1
 BYTE   W06
//  #08 //016   ----------------------------------------
Label_01025F34:
 BYTE   N24  An2  v119
 BYTE   N06  Cn1  v085
 BYTE   W06
 BYTE   Cn1
 BYTE   W06
 BYTE   Dn1  v100
 BYTE   N12  As1  v101
 BYTE   W06
 BYTE   N06  Cn1  v085
 BYTE   W06
 BYTE   N12  As1  v037
 BYTE   W06
 BYTE   N06  Cn1  v085
 BYTE   W06
 BYTE   Dn1  v100
 BYTE   N12  As1  v095
 BYTE   W06
 BYTE   N06  Cn1  v085
 BYTE   W06
 BYTE   N12  As1  v033
 BYTE   W06
 BYTE   N06  Cn1  v085
 BYTE   W06
 BYTE   Dn1  v100
 BYTE   N12  As1  v108
 BYTE   W06
 BYTE   N06  Cn1  v085
 BYTE   W06
 BYTE   N12  As1  v042
 BYTE   W06
 BYTE   N06  Cn1  v085
 BYTE   W06
 BYTE   Dn1  v100
 BYTE   N12  As1  v101
 BYTE   W06
 BYTE   N06  Cn1  v085
 BYTE   W06
 BYTE   PEND 
//  #08 //017   ----------------------------------------
 BYTE   Cn1
 BYTE   N12  As1  v037
 BYTE   W06
 BYTE   N06  Cn1  v085
 BYTE   W06
 BYTE   Dn1  v100
 BYTE   N12  As1  v108
 BYTE   W06
 BYTE   N06  Cn1  v085
 BYTE   W06
 BYTE   N12  As1  v042
 BYTE   W06
 BYTE   N06  Cn1  v085
 BYTE   W06
 BYTE   Dn1  v100
 BYTE   N12  As1  v108
 BYTE   W06
 BYTE   N06  Cn1  v085
 BYTE   W06
 BYTE   N12  As1  v042
 BYTE   W06
 BYTE   N06  Cn1  v085
 BYTE   W06
 BYTE   Dn1  v100
 BYTE   N12  As1  v108
 BYTE   W06
 BYTE   N06  Cn1  v085
 BYTE   W06
 BYTE   N12  As1  v042
 BYTE   W06
 BYTE   N06  Cn1  v085
 BYTE   W06
 BYTE   Dn1  v100
 BYTE   N12  As1  v111
 BYTE   W06
 BYTE   N06  Cn1  v085
 BYTE   W06
//  #08 //018   ----------------------------------------
 BYTE   Ds2  v116
 BYTE   N06  Cn1  v085
 BYTE   W06
 BYTE   Ds2  v106
 BYTE   N06  Cn1  v085
 BYTE   W06
 BYTE   Dn1  v100
 BYTE   N06  Ds2  v109
 BYTE   W06
 BYTE   N12  Ds2  v106
 BYTE   N06  Cn1  v085
 BYTE   W12
 BYTE   Ds2  v116
 BYTE   N06  Cn1  v085
 BYTE   W06
 BYTE   Dn1  v100
 BYTE   N06  Ds2  v116
 BYTE   W06
 BYTE   N12  Ds2  v112
 BYTE   N06  Cn1  v085
 BYTE   W12
 BYTE   Ds2  v106
 BYTE   N06  Cn1  v085
 BYTE   W06
 BYTE   Dn1  v100
 BYTE   N06  Ds2  v106
 BYTE   W06
 BYTE   N12  Ds2  v112
 BYTE   N06  Cn1  v085
 BYTE   W12
 BYTE   Ds2  v112
 BYTE   N06  Cn1  v085
 BYTE   W06
 BYTE   Dn1  v100
 BYTE   N06  Ds2  v112
 BYTE   W06
 BYTE   Cn1  v085
 BYTE   N06  Ds2  v112
 BYTE   W06
//  #08 //019   ----------------------------------------
 BYTE   N24  Cs2  v100
 BYTE   N06  Cn1  v085
 BYTE   W06
 BYTE   Cn1
 BYTE   W06
 BYTE   Dn1  v100
 BYTE   W06
 BYTE   N24  An2  v053
 BYTE   N06  Cn1  v085
 BYTE   W12
 BYTE   Cn1
 BYTE   W06
 BYTE   Dn1  v100
 BYTE   W06
 BYTE   N24  Cs2  v061
 BYTE   N06  Cn1  v085
 BYTE   W12
 BYTE   Cn1
 BYTE   W06
 BYTE   Dn1  v100
 BYTE   W06
 BYTE   N18  Cs2  v059
 BYTE   N06  Cn1  v085
 BYTE   W06
 BYTE   Cn1
 BYTE   W06
 BYTE   Cn1
 BYTE   W06
 BYTE   Dn1  v100
 BYTE   N06  Cs2  v052
 BYTE   W06
 BYTE   Cn1  v085
 BYTE   W06
//  #08 //020   ----------------------------------------
 BYTE   PATT
  POIN2 Label_01025F34
//  #08 //021   ----------------------------------------
 BYTE   N06  Cn1  v085
 BYTE   N12  As1  v037
 BYTE   W06
 BYTE   N06  Cn1  v085
 BYTE   W06
 BYTE   Dn1  v100
 BYTE   N12  As1  v108
 BYTE   W06
 BYTE   N06  Cn1  v085
 BYTE   W06
 BYTE   N12  As1  v042
 BYTE   W06
 BYTE   N06  Cn1  v085
 BYTE   W06
 BYTE   Dn1  v100
 BYTE   N12  As1  v108
 BYTE   W06
 BYTE   N06  Cn1  v085
 BYTE   W06
 BYTE   N12  As1  v042
 BYTE   W06
 BYTE   N06  Cn1  v085
 BYTE   W06
 BYTE   Dn1  v100
 BYTE   N12  As1  v108
 BYTE   W06
 BYTE   N06  Cn1  v085
 BYTE   W06
 BYTE   Cn1
 BYTE   N12  As1  v042
 BYTE   W06
 BYTE   N06  Cn1  v085
 BYTE   W06
 BYTE   Dn1  v100
 BYTE   N12  As1  v111
 BYTE   W06
 BYTE   N06  Cn1  v085
 BYTE   W06
//  #08 //022   ----------------------------------------
 BYTE   Dn1  v100
 BYTE   N06  Cn1  v085
 BYTE   W06
 BYTE   Dn1  v100
 BYTE   N06  Cn1  v085
 BYTE   W06
 BYTE   Dn1  v100
 BYTE   N06  Cn1  v085
 BYTE   W06
 BYTE   Dn1  v100
 BYTE   N06  Cn1  v085
 BYTE   W12
 BYTE   Dn1  v100
 BYTE   N06  Cn1  v085
 BYTE   W06
 BYTE   Dn1  v100
 BYTE   N06  Cn1  v085
 BYTE   W06
 BYTE   Dn1  v100
 BYTE   N06  Cn1  v085
 BYTE   W12
 BYTE   Dn1  v100
 BYTE   W06
 BYTE   Gn1  v108
 BYTE   W06
 BYTE   Fn1
 BYTE   W06
 BYTE   N03  Dn1  v100
 BYTE   W04
 BYTE   Bn1  v108
 BYTE   W04
 BYTE   An1
 BYTE   W04
 BYTE   An1
 BYTE   W04
 BYTE   Gn1
 BYTE   W04
 BYTE   Fn1
 BYTE   W04
//  #08 //023   ----------------------------------------
 BYTE   N24  An2  v119
 BYTE   N06  Cn1  v085
 BYTE   W12
 BYTE   N24  Ds2  v108
 BYTE   N06  Cn1  v085
 BYTE   W12
 BYTE   Dn1  v100
 BYTE   N24  Cs2  v116
 BYTE   W06
 BYTE   N06  Cn1  v085
 BYTE   W06
 BYTE   N12  Ds2  v108
 BYTE   W06
 BYTE   N06  Cn1  v085
 BYTE   W06
 BYTE   Dn1  v100
 BYTE   N12  Ds2  v108
 BYTE   W06
 BYTE   N06  Cn1  v085
 BYTE   W06
 BYTE   N12  Ds2  v114
 BYTE   W06
 BYTE   N06  Cn1  v085
 BYTE   W06
 BYTE   Dn1  v100
 BYTE   N12  Ds2  v101
 BYTE   W06
 BYTE   N06  Cn1  v085
 BYTE   W06
 BYTE   N12  Ds2  v108
 BYTE   W06
 BYTE   N06  Cn1  v085
 BYTE   W06
//  #08 //024   ----------------------------------------
Label_01026126:
 BYTE   N06  Dn1  v100
 BYTE   N12  Ds2  v108
 BYTE   W06
 BYTE   N06  Cn1  v085
 BYTE   W06
 BYTE   N12  Ds2  v108
 BYTE   W06
 BYTE   N06  Cn1  v085
 BYTE   W06
 BYTE   Dn1  v100
 BYTE   N12  Ds2  v098
 BYTE   W06
 BYTE   N06  Cn1  v085
 BYTE   W06
 BYTE   N12  Ds2  v101
 BYTE   W06
 BYTE   N06  Cn1  v085
 BYTE   W06
 BYTE   Dn1  v100
 BYTE   N12  Ds2  v108
 BYTE   W06
 BYTE   N06  Cn1  v085
 BYTE   W06
 BYTE   N12  Ds2  v108
 BYTE   N06  Cn1  v085
 BYTE   W06
 BYTE   Cn1
 BYTE   W06
 BYTE   Dn1  v100
 BYTE   N12  Ds2  v108
 BYTE   W06
 BYTE   N06  Cn1  v085
 BYTE   W06
 BYTE   N24  Ds2  v108
 BYTE   W06
 BYTE   N06  Cn1  v085
 BYTE   W06
 BYTE   PEND 
//  #08 //025   ----------------------------------------
 BYTE   N24  An2  v119
 BYTE   N06  Cn1  v085
 BYTE   W12
 BYTE   N24  Ds2  v108
 BYTE   N06  Cn1  v085
 BYTE   W12
 BYTE   Dn1  v100
 BYTE   N24  Cs2  v072
 BYTE   W06
 BYTE   N06  Cn1  v085
 BYTE   W06
 BYTE   N12  Ds2  v108
 BYTE   W06
 BYTE   N06  Cn1  v085
 BYTE   W06
 BYTE   Dn1  v100
 BYTE   N12  Ds2  v108
 BYTE   W06
 BYTE   N06  Cn1  v085
 BYTE   W06
 BYTE   N12  Ds2  v114
 BYTE   W06
 BYTE   N06  Cn1  v085
 BYTE   W06
 BYTE   Dn1  v100
 BYTE   N12  Ds2  v101
 BYTE   W06
 BYTE   N06  Cn1  v085
 BYTE   W06
 BYTE   N12  Ds2  v108
 BYTE   W06
 BYTE   N06  Cn1  v085
 BYTE   W06
//  #08 //026   ----------------------------------------
 BYTE   Dn1  v100
 BYTE   N12  Ds2  v108
 BYTE   W06
 BYTE   N06  Cn1  v085
 BYTE   W06
 BYTE   N12  Ds2  v108
 BYTE   W06
 BYTE   N06  Cn1  v085
 BYTE   W06
 BYTE   Dn1  v100
 BYTE   N12  Ds2  v098
 BYTE   W06
 BYTE   N06  Cn1  v085
 BYTE   W06
 BYTE   N12  Ds2  v101
 BYTE   W06
 BYTE   N06  Cn1  v085
 BYTE   W06
 BYTE   Dn1  v100
 BYTE   N12  Ds2  v108
 BYTE   W06
 BYTE   N06  Cn1  v085
 BYTE   W06
 BYTE   N12  Ds2  v108
 BYTE   N06  Cn1  v085
 BYTE   W06
 BYTE   Cn1
 BYTE   W06
 BYTE   Dn1  v100
 BYTE   N12  Ds2  v108
 BYTE   W06
 BYTE   N06  Fn1
 BYTE   N06  Cn1  v085
 BYTE   W06
 BYTE   N24  Ds2  v108
 BYTE   W06
 BYTE   N06  Cn1  v085
 BYTE   W06
//  #08 //027   ----------------------------------------
 BYTE   N24  An2  v119
 BYTE   N06  Cn1  v085
 BYTE   W12
 BYTE   N24  Ds2  v108
 BYTE   N06  Cn1  v085
 BYTE   W12
 BYTE   Dn1  v100
 BYTE   N24  Cs2  v085
 BYTE   W06
 BYTE   N06  Cn1
 BYTE   W06
 BYTE   N12  Ds2  v108
 BYTE   W06
 BYTE   N06  Cn1  v085
 BYTE   W06
 BYTE   Dn1  v100
 BYTE   N12  Ds2  v108
 BYTE   W06
 BYTE   N06  Cn1  v085
 BYTE   W06
 BYTE   N12  Ds2  v114
 BYTE   W06
 BYTE   N06  Cn1  v085
 BYTE   W06
 BYTE   Dn1  v100
 BYTE   N12  Ds2  v101
 BYTE   W06
 BYTE   N06  Cn1  v085
 BYTE   W06
 BYTE   N12  Ds2  v108
 BYTE   W06
 BYTE   N06  Cn1  v085
 BYTE   W06
//  #08 //028   ----------------------------------------
 BYTE   PATT
  POIN2 Label_01026126
//  #08 //029   ----------------------------------------
 BYTE   N24  An2  v119
 BYTE   N06  Cn1  v085
 BYTE   W12
 BYTE   N12  Ds2  v108
 BYTE   N06  Cn1  v085
 BYTE   W12
 BYTE   Dn1  v100
 BYTE   N12  Ds2  v114
 BYTE   W06
 BYTE   N06  Cn1  v085
 BYTE   W06
 BYTE   N12  Ds2  v108
 BYTE   W06
 BYTE   N06  Cn1  v085
 BYTE   W06
 BYTE   Dn1  v100
 BYTE   N12  Ds2  v108
 BYTE   W06
 BYTE   N06  Cn1  v085
 BYTE   W06
 BYTE   N12  Ds2  v114
 BYTE   W06
 BYTE   N06  Cn1  v085
 BYTE   W06
 BYTE   Dn1  v100
 BYTE   N12  Ds2  v101
 BYTE   W06
 BYTE   N06  Cn1  v085
 BYTE   W06
 BYTE   N24  Ds2  v108
 BYTE   W06
 BYTE   N06  Cn1  v085
 BYTE   W06
//  #08 //030   ----------------------------------------
 BYTE   Dn1  v100
 BYTE   N24  Cs2  v072
 BYTE   W06
 BYTE   N06  Cn1  v085
 BYTE   W06
 BYTE   N12  Ds2  v108
 BYTE   W06
 BYTE   N06  Cn1  v085
 BYTE   W06
 BYTE   Dn1  v100
 BYTE   N12  Ds2  v098
 BYTE   W06
 BYTE   N06  Cn1  v085
 BYTE   W06
 BYTE   N24  Ds2  v101
 BYTE   W06
 BYTE   N06  Cn1  v085
 BYTE   W06
 BYTE   Dn1  v100
 BYTE   N24  Cs2  v072
 BYTE   W06
 BYTE   N06  Cn1  v085
 BYTE   W06
 BYTE   N24  Ds2  v108
 BYTE   N06  Cn1  v085
 BYTE   W06
 BYTE   Cn1
 BYTE   W06
 BYTE   Dn1  v100
 BYTE   N24  Cs2  v109
 BYTE   W06
 BYTE   N06  Cn1  v085
 BYTE   W06
 BYTE   N24  Ds2  v108
 BYTE   W06
 BYTE   N06  Cn1  v085
 BYTE   W06
//  #08 //031   ----------------------------------------
Label_010262D5:
 BYTE   N24  An2  v119
 BYTE   N06  Cn1  v085
 BYTE   W12
 BYTE   N12  Ds2  v108
 BYTE   N06  Cn1  v085
 BYTE   W12
 BYTE   Dn1  v100
 BYTE   N12  Ds2  v114
 BYTE   W06
 BYTE   N06  Cn1  v085
 BYTE   W06
 BYTE   N12  Ds2  v108
 BYTE   W06
 BYTE   N06  Cn1  v085
 BYTE   W06
 BYTE   Dn1  v100
 BYTE   N12  Ds2  v108
 BYTE   W06
 BYTE   N06  Cn1  v085
 BYTE   W06
 BYTE   N12  Ds2  v114
 BYTE   W06
 BYTE   N06  Cn1  v085
 BYTE   W06
 BYTE   Dn1  v100
 BYTE   N12  Ds2  v101
 BYTE   W06
 BYTE   N06  Cn1  v085
 BYTE   W06
 BYTE   N12  Ds2  v108
 BYTE   W06
 BYTE   N06  Cn1  v085
 BYTE   W06
 BYTE   PEND 
//  #08 //032   ----------------------------------------
Label_0102631A:
 BYTE   N06  Dn1  v100
 BYTE   N12  Ds2  v108
 BYTE   W06
 BYTE   N06  Cn1  v085
 BYTE   W06
 BYTE   N12  Ds2  v108
 BYTE   W06
 BYTE   N06  Cn1  v085
 BYTE   W06
 BYTE   Dn1  v100
 BYTE   N12  Ds2  v098
 BYTE   W06
 BYTE   N06  Cn1  v085
 BYTE   W06
 BYTE   N12  Ds2  v101
 BYTE   W06
 BYTE   N06  Cn1  v085
 BYTE   W06
 BYTE   Dn1  v100
 BYTE   N12  Ds2  v108
 BYTE   W06
 BYTE   N06  Cn1  v085
 BYTE   W06
 BYTE   N12  Ds2  v108
 BYTE   W06
 BYTE   N06  Cn1  v085
 BYTE   W06
 BYTE   Dn1  v100
 BYTE   N12  Ds2  v108
 BYTE   W06
 BYTE   N06  Cn1  v085
 BYTE   W06
 BYTE   N24  Ds2  v108
 BYTE   W06
 BYTE   N06  Cn1  v085
 BYTE   W06
 BYTE   PEND 
//  #08 //033   ----------------------------------------
 BYTE   N24  An2  v119
 BYTE   N06  Cn1  v085
 BYTE   W12
 BYTE   N24  Ds2  v108
 BYTE   N06  Cn1  v085
 BYTE   W12
 BYTE   Dn1  v100
 BYTE   N24  Cs2  v116
 BYTE   W06
 BYTE   N06  Cn1  v085
 BYTE   W06
 BYTE   N12  Ds2  v108
 BYTE   W06
 BYTE   N06  Cn1  v085
 BYTE   W06
 BYTE   Dn1  v100
 BYTE   N12  Ds2  v108
 BYTE   W06
 BYTE   N06  Cn1  v085
 BYTE   W06
 BYTE   N12  Ds2  v114
 BYTE   W06
 BYTE   N06  Cn1  v085
 BYTE   W06
 BYTE   Dn1  v100
 BYTE   N12  Ds2  v101
 BYTE   W06
 BYTE   N06  Cn1  v085
 BYTE   W06
 BYTE   N24  Ds2  v108
 BYTE   W06
 BYTE   N06  Cn1  v085
 BYTE   W06
//  #08 //034   ----------------------------------------
 BYTE   Dn1  v100
 BYTE   N24  An2  v109
 BYTE   W06
 BYTE   N06  Cn1  v085
 BYTE   W06
 BYTE   N12  Ds2  v108
 BYTE   W06
 BYTE   N06  Cn1  v085
 BYTE   W06
 BYTE   Dn1  v100
 BYTE   N12  Ds2  v098
 BYTE   W06
 BYTE   N06  Cn1  v085
 BYTE   W06
 BYTE   N24  Ds2  v101
 BYTE   W06
 BYTE   N06  Cn1  v085
 BYTE   W06
 BYTE   Dn1  v100
 BYTE   N24  An2  v109
 BYTE   W06
 BYTE   N06  Cn1  v085
 BYTE   W06
 BYTE   N12  Ds2  v108
 BYTE   W06
 BYTE   N06  Cn1  v085
 BYTE   W06
 BYTE   Dn1  v100
 BYTE   N12  Ds2  v108
 BYTE   W06
 BYTE   N06  Cn1  v085
 BYTE   W06
 BYTE   N24  Ds2  v108
 BYTE   W06
 BYTE   N06  Cn1  v085
 BYTE   W06
//  #08 //035   ----------------------------------------
 BYTE   N24  An2  v119
 BYTE   N06  Cn1  v085
 BYTE   W12
 BYTE   N24  Ds2  v108
 BYTE   N06  Cn1  v085
 BYTE   W06
 BYTE   Cn1
 BYTE   W06
 BYTE   Dn1  v100
 BYTE   N24  Cs2  v116
 BYTE   W06
 BYTE   N06  Cn1  v085
 BYTE   W06
 BYTE   N12  Ds2  v108
 BYTE   W06
 BYTE   N06  Cn1  v085
 BYTE   W06
 BYTE   Dn1  v100
 BYTE   N12  Ds2  v108
 BYTE   W06
 BYTE   N06  Cn1  v085
 BYTE   W06
 BYTE   N12  Ds2  v114
 BYTE   W06
 BYTE   N06  Cn1  v085
 BYTE   W06
 BYTE   Dn1  v100
 BYTE   N12  Ds2  v101
 BYTE   W06
 BYTE   N06  Cn1  v085
 BYTE   W06
 BYTE   N12  Ds2  v108
 BYTE   W06
 BYTE   N06  Cn1  v085
 BYTE   W06
//  #08 //036   ----------------------------------------
 BYTE   PATT
  POIN2 Label_0102631A
//  #08 //037   ----------------------------------------
 BYTE   PATT
  POIN2 Label_010262D5
//  #08 //038   ----------------------------------------
 BYTE   N06  Dn1  v100
 BYTE   N12  Ds2  v108
 BYTE   W06
 BYTE   N06  Cn1  v085
 BYTE   W06
 BYTE   N12  Ds2  v108
 BYTE   W06
 BYTE   N06  Cn1  v085
 BYTE   W06
 BYTE   Dn1  v100
 BYTE   N12  Ds2  v098
 BYTE   W06
 BYTE   N06  Cn1  v085
 BYTE   W06
 BYTE   N12  Ds2  v101
 BYTE   W06
 BYTE   N06  Cn1  v085
 BYTE   W06
 BYTE   Dn1  v100
 BYTE   W06
 BYTE   Dn1
 BYTE   W06
 BYTE   Dn1
 BYTE   N06  Cn1  v085
 BYTE   W06
 BYTE   Dn1  v100
 BYTE   W06
 BYTE   Dn1
 BYTE   N06  Cn1  v085
 BYTE   W06
 BYTE   Dn1  v100
 BYTE   W06
 BYTE   Dn1
 BYTE   N06  Cn1  v085
 BYTE   W06
 BYTE   Dn1  v100
 BYTE   W06
//  #08 //039   ----------------------------------------
 BYTE   GoTo
  POIN2 Label_01025BF3
 BYTE   FINE

//******************************************************//
	ALIGN 4

MegamanZXRockinOnTak:
	BYTE	8	// NumTrks
	BYTE	0	// NumBlks
	BYTE	MegamanZXRockinOnTak_pri	// Priority
	BYTE	MegamanZXRockinOnTak_rev	// Reverb.
    
	POIN2	MegamanZXRockinOnTak_grp
    
	POIN2	MegamanZXRockinOnTak_001
	POIN2	MegamanZXRockinOnTak_002
	POIN2	MegamanZXRockinOnTak_003
	POIN2	MegamanZXRockinOnTak_004
	POIN2	MegamanZXRockinOnTak_005
	POIN2	MegamanZXRockinOnTak_006
	POIN2	MegamanZXRockinOnTak_007
	POIN2	MegamanZXRockinOnTak_008

	
