//Event file generated from Sappy .s format.
	#include "MPlayDef.event"

	#define	EarthboundTheJollyFlyingManPandan_grp  voicegroup000
	#define	EarthboundTheJollyFlyingManPandan_pri  10
	#define	EarthboundTheJollyFlyingManPandan_rev  0
	#define	EarthboundTheJollyFlyingManPandan_mvl  127
	#define	EarthboundTheJollyFlyingManPandan_key  0
	#define	EarthboundTheJollyFlyingManPandan_tbs  1
	#define	EarthboundTheJollyFlyingManPandan_exg  0
	#define	EarthboundTheJollyFlyingManPandan_cmp  1

	// .rodata
	//	EarthboundTheJollyFlyingManPandan
	ALIGN 4


//**************** Track 1 (Midi-Chn.0) ****************//

EarthboundTheJollyFlyingManPandan_001:
// 000   ----------------------------------------
Label_0_01152D78:
 BYTE   TEMPO   94*EarthboundTheJollyFlyingManPandan_tbs/2
 BYTE   KEYSH   EarthboundTheJollyFlyingManPandan_key+0
 BYTE   VOICE   24
 BYTE   VOL   19*EarthboundTheJollyFlyingManPandan_mvl/mxv
 BYTE   PAN   c_v+58
 BYTE   PAN   c_v-49
 BYTE   N01  Gn5  v076
 BYTE   W06
 BYTE   PAN   c_v-58
 BYTE   N01  Gn5  v051
 BYTE   W06
 BYTE   PAN   c_v+49
 BYTE   N01  Gn5  v126
 BYTE   W06
 BYTE   PAN   c_v+25
 BYTE   N01  Gn5  v126
 BYTE   W06
 BYTE   PAN   c_v+58
 BYTE   N01  Gn5  v076
 BYTE   W06
 BYTE   PAN   c_v-58
 BYTE   N01  Gn5  v051
 BYTE   W06
 BYTE   PAN   c_v+49
 BYTE   N01  Gn5  v126
 BYTE   W06
 BYTE   PAN   c_v+25
 BYTE   N01  Gn5  v126
 BYTE   W06
Label_0_01152DB2:
 BYTE   PAN   c_v+58
 BYTE   N01  Gn5  v076
 BYTE   W06
 BYTE   PAN   c_v-58
 BYTE   N01  Gn5  v051
 BYTE   W06
 BYTE   PAN   c_v+49
 BYTE   N01  Gn5  v126
 BYTE   W06
 BYTE   PAN   c_v+25
 BYTE   N01  Gn5  v126
 BYTE   W06
 BYTE   PAN   c_v+58
 BYTE   N01  Gn5  v076
 BYTE   W06
 BYTE   PAN   c_v-58
 BYTE   N01  Gn5  v051
 BYTE   W06
 BYTE   PAN   c_v+49
 BYTE   N01  Gn5  v126
 BYTE   W06
 BYTE   PAN   c_v+25
 BYTE   N01  Gn5  v126
 BYTE   W06
 BYTE   PEND 
 BYTE   PATT
  POIN2 Label_0_01152DB2
 BYTE   PATT
  POIN2 Label_0_01152DB2
 BYTE   PATT
  POIN2 Label_0_01152DB2
 BYTE   PATT
  POIN2 Label_0_01152DB2
 BYTE   PATT
  POIN2 Label_0_01152DB2
// 001   ----------------------------------------
 BYTE   PAN   c_v+58
 BYTE   N01  Gn5  v076
 BYTE   W06
 BYTE   PAN   c_v-58
 BYTE   N01  Gn5  v051
 BYTE   W06
 BYTE   PAN   c_v+49
 BYTE   N01  Gn5  v126
 BYTE   W06
 BYTE   PAN   c_v+25
 BYTE   N01  Gn5  v126
 BYTE   W06
 BYTE   PAN   c_v+58
 BYTE   N01  Gn5  v076
 BYTE   W06
 BYTE   PAN   c_v-58
 BYTE   N01  Gn5  v051
 BYTE   W06
 BYTE   PAN   c_v+49
 BYTE   N01  Gn5  v126
 BYTE   W06
 BYTE   PAN   c_v+25
 BYTE   N01  Gn5  v126
 BYTE   W06
 BYTE   PATT
  POIN2 Label_0_01152DB2
 BYTE   PATT
  POIN2 Label_0_01152DB2
 BYTE   PATT
  POIN2 Label_0_01152DB2
 BYTE   PATT
  POIN2 Label_0_01152DB2
 BYTE   PATT
  POIN2 Label_0_01152DB2
 BYTE   PATT
  POIN2 Label_0_01152DB2
 BYTE   PATT
  POIN2 Label_0_01152DB2
// 002   ----------------------------------------
 BYTE   PAN   c_v+58
 BYTE   N01  Gn5  v076
 BYTE   W06
 BYTE   PAN   c_v-58
 BYTE   N01  Gn5  v051
 BYTE   W06
 BYTE   PAN   c_v+49
 BYTE   N01  Gn5  v126
 BYTE   W06
 BYTE   PAN   c_v+25
 BYTE   N01  Gn5  v126
 BYTE   W06
 BYTE   PAN   c_v+58
 BYTE   N01  Gn5  v076
 BYTE   W06
 BYTE   PAN   c_v-58
 BYTE   N01  Gn5  v051
 BYTE   W06
 BYTE   PAN   c_v+49
 BYTE   N01  Gn5  v126
 BYTE   W04
 BYTE   W01
 BYTE   PAN   c_v+25
 BYTE   N01  Gn5  v126
 BYTE   W01
 BYTE   W01
 BYTE   W02
 BYTE   GoTo
  POIN2 Label_0_01152D78
 BYTE   FINE

//**************** Track 2 (Midi-Chn.1) ****************//

EarthboundTheJollyFlyingManPandan_002:
// 000   ----------------------------------------
Label_1_01152E88:
 BYTE   TEMPO   94*EarthboundTheJollyFlyingManPandan_tbs/2
 BYTE   KEYSH   EarthboundTheJollyFlyingManPandan_key+0
 BYTE   VOICE   31
 BYTE   VOL   53*EarthboundTheJollyFlyingManPandan_mvl/mxv
 BYTE   PAN   c_v-25
 BYTE   PAN   c_v+0
 BYTE   N05  Gn3  v114
 BYTE   W18
 BYTE   Gn3
 BYTE   W42
 BYTE   Gn3
 BYTE   W12
 BYTE   Gn3
 BYTE   W06
 BYTE   Gn3
 BYTE   W18
// 001   ----------------------------------------
 BYTE   Gn3
 BYTE   W18
 BYTE   Gn3
 BYTE   W30
 BYTE   Gn3
 BYTE   W18
 BYTE   Gn3
 BYTE   W06
 BYTE   VOICE   28
 BYTE   VOL   116*EarthboundTheJollyFlyingManPandan_mvl/mxv
 BYTE   PAN   c_v+49
 BYTE   N04  Gn1  v126
 BYTE   W06
 BYTE   Gn1
 BYTE   W06
 BYTE   Gn1
 BYTE   W12
// 002   ----------------------------------------
 BYTE   VOICE   31
 BYTE   VOL   53*EarthboundTheJollyFlyingManPandan_mvl/mxv
 BYTE   PAN   c_v-25
 BYTE   N05  Gn3  v114
 BYTE   W18
 BYTE   Gn3
 BYTE   W42
 BYTE   Gn3
 BYTE   W12
 BYTE   Gn3
 BYTE   W06
 BYTE   Gn3
 BYTE   W18
// 003   ----------------------------------------
 BYTE   Gn3
 BYTE   W18
 BYTE   Gn3
 BYTE   W30
 BYTE   Gn3
 BYTE   W18
 BYTE   Gn3
 BYTE   W06
 BYTE   VOICE   28
 BYTE   VOL   116*EarthboundTheJollyFlyingManPandan_mvl/mxv
 BYTE   PAN   c_v+49
 BYTE   N04  Gn1  v126
 BYTE   W06
 BYTE   Gn1
 BYTE   W06
 BYTE   Gn1
 BYTE   W12
// 004   ----------------------------------------
 BYTE   VOICE   0
 BYTE   VOL   59*EarthboundTheJollyFlyingManPandan_mvl/mxv
 BYTE   PAN   c_v+0
 BYTE   N21  Dn1  v114
 BYTE   W24
 BYTE   N05  Dn2
 BYTE   W12
 BYTE   Dn1
 BYTE   W36
 BYTE   N04
 BYTE   W06
 BYTE   Dn1
 BYTE   W06
 BYTE   Cn1
 BYTE   W06
 BYTE   Dn1
 BYTE   W06
// 005   ----------------------------------------
 BYTE   N21
 BYTE   W24
 BYTE   N05  Dn2
 BYTE   W12
 BYTE   Dn1
 BYTE   W24
 BYTE   N07  En2
 BYTE   W12
 BYTE   N21  Dn2
 BYTE   W24
// 006   ----------------------------------------
 BYTE   Dn1
 BYTE   W24
 BYTE   N05  Dn2
 BYTE   W12
 BYTE   Dn1
 BYTE   W36
 BYTE   N04
 BYTE   W06
 BYTE   Dn1
 BYTE   W06
 BYTE   Cn1
 BYTE   W06
 BYTE   Dn1
 BYTE   W06
// 007   ----------------------------------------
 BYTE   N21
 BYTE   W24
 BYTE   N05  Dn2
 BYTE   W12
 BYTE   Dn1
 BYTE   W24
 BYTE   N07  En2
 BYTE   W12
 BYTE   N21  Dn2
 BYTE   W16
 BYTE   W02
 BYTE   W01
 BYTE   W02
 BYTE   GoTo
  POIN2 Label_1_01152E88
 BYTE   FINE

//**************** Track 3 (Midi-Chn.2) ****************//

EarthboundTheJollyFlyingManPandan_003:
// 000   ----------------------------------------
Label_2_01152F28:
 BYTE   TEMPO   94*EarthboundTheJollyFlyingManPandan_tbs/2
 BYTE   KEYSH   EarthboundTheJollyFlyingManPandan_key+0
 BYTE   VOICE   75
 BYTE   VOL   40*EarthboundTheJollyFlyingManPandan_mvl/mxv
 BYTE   PAN   c_v+0
 BYTE   W12
 BYTE   N32  Gn1  v114
 BYTE   W36
 BYTE   N14
 BYTE   W18
 BYTE   Gn1
 BYTE   W18
 BYTE   N09
 BYTE   W24
// 001   ----------------------------------------
 BYTE   N14
 BYTE   W48
 BYTE   N09
 BYTE   W12
 BYTE   N19
 BYTE   W36
// 002   ----------------------------------------
 BYTE   N21
 BYTE   W36
 BYTE   N14
 BYTE   W18
 BYTE   Gn1
 BYTE   W18
 BYTE   N09
 BYTE   W24
// 003   ----------------------------------------
 BYTE   N14
 BYTE   W48
 BYTE   N09
 BYTE   W12
 BYTE   N19
 BYTE   W24
 BYTE   VOICE   75
 BYTE   VOL   53*EarthboundTheJollyFlyingManPandan_mvl/mxv
 BYTE   PAN   c_v+0
 BYTE   W12
// 004   ----------------------------------------
 BYTE   N32  Gn1  v114
 BYTE   W36
 BYTE   N14
 BYTE   W18
 BYTE   Gn1
 BYTE   W18
 BYTE   N09
 BYTE   W24
// 005   ----------------------------------------
 BYTE   N14
 BYTE   W48
 BYTE   N09
 BYTE   W12
 BYTE   N19
 BYTE   W36
// 006   ----------------------------------------
 BYTE   N21
 BYTE   W36
 BYTE   N14
 BYTE   W18
 BYTE   Gn1
 BYTE   W18
 BYTE   N09
 BYTE   W24
// 007   ----------------------------------------
 BYTE   N14
 BYTE   W48
 BYTE   N09
 BYTE   W12
 BYTE   N19
 BYTE   W16
 BYTE   W02
 BYTE   W01
 BYTE   W02
 BYTE   GoTo
  POIN2 Label_2_01152F28
 BYTE   FINE

//**************** Track 4 (Midi-Chn.3) ****************//

EarthboundTheJollyFlyingManPandan_004:
// 000   ----------------------------------------
Label_3_01152F80:
 BYTE   TEMPO   94*EarthboundTheJollyFlyingManPandan_tbs/2
 BYTE   KEYSH   EarthboundTheJollyFlyingManPandan_key+0
 BYTE   VOICE   32
 BYTE   VOL   31*EarthboundTheJollyFlyingManPandan_mvl/mxv
 BYTE   PAN   c_v+60
 BYTE   PAN   c_v+61
 BYTE   W01
 BYTE   PAN   c_v+59
 BYTE   PAN   c_v+58
 BYTE   PAN   c_v+57
 BYTE   W01
 BYTE   PAN   c_v+56
 BYTE   PAN   c_v+55
 BYTE   PAN   c_v+54
 BYTE   W01
 BYTE   PAN   c_v+53
 BYTE   PAN   c_v+52
 BYTE   PAN   c_v+51
 BYTE   W01
 BYTE   PAN   c_v+50
 BYTE   PAN   c_v+49
 BYTE   W01
 BYTE   PAN   c_v+48
 BYTE   PAN   c_v+47
 BYTE   PAN   c_v+46
 BYTE   W01
 BYTE   PAN   c_v+45
 BYTE   PAN   c_v+44
 BYTE   PAN   c_v+43
 BYTE   W01
 BYTE   PAN   c_v+42
 BYTE   PAN   c_v+41
 BYTE   PAN   c_v+40
 BYTE   W01
 BYTE   PAN   c_v+39
 BYTE   PAN   c_v+38
 BYTE   W01
 BYTE   PAN   c_v+37
 BYTE   PAN   c_v+36
 BYTE   PAN   c_v+35
 BYTE   W01
 BYTE   PAN   c_v+34
 BYTE   PAN   c_v+33
 BYTE   PAN   c_v+32
 BYTE   W01
 BYTE   PAN   c_v+31
 BYTE   PAN   c_v+30
 BYTE   PAN   c_v+29
 BYTE   W01
 BYTE   PAN   c_v+28
 BYTE   PAN   c_v+27
 BYTE   W01
 BYTE   PAN   c_v+26
 BYTE   PAN   c_v+25
 BYTE   N10  Fn1  v114
 BYTE   PAN   c_v+24
 BYTE   W01
 BYTE   PAN   c_v+23
 BYTE   PAN   c_v+22
 BYTE   PAN   c_v+21
 BYTE   W01
 BYTE   PAN   c_v+20
 BYTE   PAN   c_v+19
 BYTE   PAN   c_v+18
 BYTE   W01
 BYTE   PAN   c_v+17
 BYTE   PAN   c_v+16
 BYTE   W01
 BYTE   PAN   c_v+15
 BYTE   PAN   c_v+14
 BYTE   PAN   c_v+13
 BYTE   W01
 BYTE   PAN   c_v+12
 BYTE   PAN   c_v+11
 BYTE   PAN   c_v+10
 BYTE   W01
 BYTE   PAN   c_v+9
 BYTE   PAN   c_v+8
 BYTE   PAN   c_v+7
 BYTE   N05  Bn1  v114
 BYTE   W01
 BYTE   PAN   c_v+6
 BYTE   PAN   c_v+5
 BYTE   W01
 BYTE   PAN   c_v+4
 BYTE   PAN   c_v+3
 BYTE   PAN   c_v+2
 BYTE   W01
 BYTE   PAN   c_v+1
 BYTE   PAN   c_v+0
 BYTE   PAN   c_v-1
 BYTE   N05  Gs1  v114
 BYTE   PAN   c_v-2
 BYTE   PAN   c_v-3
 BYTE   PAN   c_v-4
 BYTE   W01
 BYTE   PAN   c_v-5
 BYTE   PAN   c_v-6
 BYTE   W01
 BYTE   PAN   c_v-7
 BYTE   PAN   c_v-8
 BYTE   PAN   c_v-9
 BYTE   W01
Label_3_01153038:
 BYTE   PAN   c_v-10
 BYTE   N21  Gs1  v114
 BYTE   PAN   c_v-11
 BYTE   PAN   c_v-12
 BYTE   W01
 BYTE   PAN   c_v-13
 BYTE   PAN   c_v-14
 BYTE   PAN   c_v-15
 BYTE   W01
 BYTE   PAN   c_v-16
 BYTE   PAN   c_v-17
 BYTE   W01
 BYTE   PAN   c_v-18
 BYTE   PAN   c_v-19
 BYTE   PAN   c_v-20
 BYTE   W01
 BYTE   PAN   c_v-21
 BYTE   PAN   c_v-22
 BYTE   PAN   c_v-23
 BYTE   W01
 BYTE   PAN   c_v-24
 BYTE   PAN   c_v-25
 BYTE   PAN   c_v-26
 BYTE   W01
 BYTE   PAN   c_v-27
 BYTE   PAN   c_v-28
 BYTE   W01
 BYTE   PAN   c_v-29
 BYTE   PAN   c_v-30
 BYTE   PAN   c_v-31
 BYTE   W01
 BYTE   PAN   c_v-32
 BYTE   PAN   c_v-33
 BYTE   PAN   c_v-34
 BYTE   W01
 BYTE   PAN   c_v-35
 BYTE   PAN   c_v-36
 BYTE   PAN   c_v-37
 BYTE   W01
 BYTE   PAN   c_v-38
 BYTE   PAN   c_v-39
 BYTE   W01
 BYTE   PAN   c_v-40
 BYTE   PAN   c_v-41
 BYTE   PAN   c_v-42
 BYTE   W01
 BYTE   PAN   c_v-43
 BYTE   PAN   c_v-44
 BYTE   PAN   c_v-45
 BYTE   N21  Gs1  v051
 BYTE   PAN   c_v-46
 BYTE   PAN   c_v-47
 BYTE   PAN   c_v-48
 BYTE   W01
 BYTE   PAN   c_v-49
 BYTE   W21
 BYTE   PEND 
Label_3_0115309D:
 BYTE   PAN   c_v+60
 BYTE   PAN   c_v+61
 BYTE   W01
 BYTE   PAN   c_v+59
 BYTE   PAN   c_v+58
 BYTE   PAN   c_v+57
 BYTE   W01
 BYTE   PAN   c_v+56
 BYTE   PAN   c_v+55
 BYTE   PAN   c_v+54
 BYTE   W01
 BYTE   PAN   c_v+53
 BYTE   PAN   c_v+52
 BYTE   PAN   c_v+51
 BYTE   W01
 BYTE   PAN   c_v+50
 BYTE   PAN   c_v+49
 BYTE   W01
 BYTE   PAN   c_v+48
 BYTE   PAN   c_v+47
 BYTE   PAN   c_v+46
 BYTE   W01
 BYTE   PAN   c_v+45
 BYTE   PAN   c_v+44
 BYTE   PAN   c_v+43
 BYTE   W01
 BYTE   PAN   c_v+42
 BYTE   PAN   c_v+41
 BYTE   PAN   c_v+40
 BYTE   W01
 BYTE   PAN   c_v+39
 BYTE   PAN   c_v+38
 BYTE   W01
 BYTE   PAN   c_v+37
 BYTE   PAN   c_v+36
 BYTE   PAN   c_v+35
 BYTE   W01
 BYTE   PAN   c_v+34
 BYTE   PAN   c_v+33
 BYTE   PAN   c_v+32
 BYTE   W01
 BYTE   PAN   c_v+31
 BYTE   PAN   c_v+30
 BYTE   PAN   c_v+29
 BYTE   W01
 BYTE   PAN   c_v+28
 BYTE   PAN   c_v+27
 BYTE   W01
 BYTE   PAN   c_v+26
 BYTE   PAN   c_v+25
 BYTE   N10  Fn1  v114
 BYTE   PAN   c_v+24
 BYTE   W01
 BYTE   PAN   c_v+23
 BYTE   PAN   c_v+22
 BYTE   PAN   c_v+21
 BYTE   W01
 BYTE   PAN   c_v+20
 BYTE   PAN   c_v+19
 BYTE   PAN   c_v+18
 BYTE   W01
 BYTE   PAN   c_v+17
 BYTE   PAN   c_v+16
 BYTE   W01
 BYTE   PAN   c_v+15
 BYTE   PAN   c_v+14
 BYTE   PAN   c_v+13
 BYTE   W01
 BYTE   PAN   c_v+12
 BYTE   PAN   c_v+11
 BYTE   PAN   c_v+10
 BYTE   W01
 BYTE   PAN   c_v+9
 BYTE   PAN   c_v+8
 BYTE   PAN   c_v+7
 BYTE   N05  Bn1  v114
 BYTE   W01
 BYTE   PAN   c_v+6
 BYTE   PAN   c_v+5
 BYTE   W01
 BYTE   PAN   c_v+4
 BYTE   PAN   c_v+3
 BYTE   PAN   c_v+2
 BYTE   W01
 BYTE   PAN   c_v+1
 BYTE   PAN   c_v+0
 BYTE   PAN   c_v-1
 BYTE   N05  Gs1  v114
 BYTE   PAN   c_v-2
 BYTE   PAN   c_v-3
 BYTE   PAN   c_v-4
 BYTE   W01
 BYTE   PAN   c_v-5
 BYTE   PAN   c_v-6
 BYTE   W01
 BYTE   PAN   c_v-7
 BYTE   PAN   c_v-8
 BYTE   PAN   c_v-9
 BYTE   W01
 BYTE   PEND 
 BYTE   PATT
  POIN2 Label_3_01153038
 BYTE   PATT
  POIN2 Label_3_0115309D
 BYTE   PATT
  POIN2 Label_3_01153038
 BYTE   PATT
  POIN2 Label_3_0115309D
// 001   ----------------------------------------
 BYTE   PAN   c_v-10
 BYTE   N21  Gs1  v114
 BYTE   PAN   c_v-11
 BYTE   PAN   c_v-12
 BYTE   W01
 BYTE   PAN   c_v-13
 BYTE   PAN   c_v-14
 BYTE   PAN   c_v-15
 BYTE   W01
 BYTE   PAN   c_v-16
 BYTE   PAN   c_v-17
 BYTE   W01
 BYTE   PAN   c_v-18
 BYTE   PAN   c_v-19
 BYTE   PAN   c_v-20
 BYTE   W01
 BYTE   PAN   c_v-21
 BYTE   PAN   c_v-22
 BYTE   PAN   c_v-23
 BYTE   W01
 BYTE   PAN   c_v-24
 BYTE   PAN   c_v-25
 BYTE   PAN   c_v-26
 BYTE   W01
 BYTE   PAN   c_v-27
 BYTE   PAN   c_v-28
 BYTE   W01
 BYTE   PAN   c_v-29
 BYTE   PAN   c_v-30
 BYTE   PAN   c_v-31
 BYTE   W01
 BYTE   PAN   c_v-32
 BYTE   PAN   c_v-33
 BYTE   PAN   c_v-34
 BYTE   W01
 BYTE   PAN   c_v-35
 BYTE   PAN   c_v-36
 BYTE   PAN   c_v-37
 BYTE   W01
 BYTE   PAN   c_v-38
 BYTE   PAN   c_v-39
 BYTE   W01
 BYTE   PAN   c_v-40
 BYTE   PAN   c_v-41
 BYTE   PAN   c_v-42
 BYTE   W01
 BYTE   PAN   c_v-43
 BYTE   PAN   c_v-44
 BYTE   PAN   c_v-45
 BYTE   N21  Gs1  v051
 BYTE   PAN   c_v-46
 BYTE   PAN   c_v-47
 BYTE   PAN   c_v-48
 BYTE   W01
 BYTE   PAN   c_v-49
 BYTE   W22
 BYTE   VOICE   106
 BYTE   VOL   27*EarthboundTheJollyFlyingManPandan_mvl/mxv
 BYTE   PAN   c_v-34
 BYTE   N23  Fs4  v114
 BYTE   W24
 BYTE   PAN   c_v+34
 BYTE   N17  Dn4  v102
 BYTE   W18
 BYTE   PAN   c_v-61
 BYTE   N05  Gn4  v114
 BYTE   W06
 BYTE   PAN   c_v+61
 BYTE   N23  Fn4  v102
 BYTE   W24
// 002   ----------------------------------------
 BYTE   PAN   c_v-49
 BYTE   N23  Dn4  v114
 BYTE   W24
 BYTE   PAN   c_v+49
 BYTE   N11  Fs4  v102
 BYTE   W12
 BYTE   PAN   c_v-25
 BYTE   N11  Fs4  v114
 BYTE   W12
 BYTE   PAN   c_v+25
 BYTE   N17  Dn4  v102
 BYTE   W18
 BYTE   PAN   c_v-58
 BYTE   N05  Gn4  v114
 BYTE   W06
 BYTE   PAN   c_v+58
 BYTE   N11  Fn4  v102
 BYTE   W12
 BYTE   PAN   c_v-25
 BYTE   N32  An4  v114
 BYTE   W16
// 003   ----------------------------------------
 BYTE   N03
 BYTE   W20
 BYTE   PAN   c_v+25
 BYTE   N23  Fs4  v102
 BYTE   W24
 BYTE   PAN   c_v-61
 BYTE   N17  Dn4  v114
 BYTE   W18
 BYTE   PAN   c_v+61
 BYTE   N05  Gn4  v102
 BYTE   W06
 BYTE   PAN   c_v-54
 BYTE   N23  Fn4  v114
 BYTE   W24
 BYTE   PAN   c_v+54
 BYTE   N23  Dn4  v102
 BYTE   W24
// 004   ----------------------------------------
 BYTE   PAN   c_v-25
 BYTE   N11  Fs4  v114
 BYTE   W12
 BYTE   PAN   c_v+25
 BYTE   N11  Fs4  v102
 BYTE   W12
 BYTE   PAN   c_v-61
 BYTE   N17  Dn4  v114
 BYTE   W18
 BYTE   PAN   c_v+61
 BYTE   N05  Gn4  v102
 BYTE   W06
 BYTE   PAN   c_v-25
 BYTE   N23  Fn4  v114
 BYTE   W24
 BYTE   PAN   c_v+25
 BYTE   N23  Dn4  v102
 BYTE   W16
 BYTE   W02
 BYTE   W01
 BYTE   W02
 BYTE   GoTo
  POIN2 Label_3_01152F80
 BYTE   FINE

//**************** Track 5 (Midi-Chn.4) ****************//

EarthboundTheJollyFlyingManPandan_005:
// 000   ----------------------------------------
Label_4_0115325C:
 BYTE   TEMPO   94*EarthboundTheJollyFlyingManPandan_tbs/2
 BYTE   KEYSH   EarthboundTheJollyFlyingManPandan_key+0
 BYTE   VOICE   33
 BYTE   VOL   31*EarthboundTheJollyFlyingManPandan_mvl/mxv
 BYTE   PAN   c_v+25
 BYTE   N05  An2  v114
 BYTE   W06
 BYTE   N01  An2  v076
 BYTE   W06
 BYTE   An2
 BYTE   W06
 BYTE   N05  An2  v114
 BYTE   W06
 BYTE   N01  An2  v076
 BYTE   W06
 BYTE   N05  An2  v114
 BYTE   W06
 BYTE   An2
 BYTE   W06
 BYTE   N01  An2  v076
 BYTE   W06
 BYTE   N05  Gs2  v114
 BYTE   W06
 BYTE   N01  Gs2  v076
 BYTE   W06
 BYTE   Gs2
 BYTE   W06
 BYTE   N05  Gs2  v114
 BYTE   W06
 BYTE   N01  Gs2  v076
 BYTE   W06
 BYTE   N05  Gs2  v114
 BYTE   W06
 BYTE   Gs2
 BYTE   W06
 BYTE   N01  Gs2  v076
 BYTE   W06
// 001   ----------------------------------------
Label_4_0115329E:
 BYTE   N05  An2  v114
 BYTE   W06
 BYTE   N01  An2  v076
 BYTE   W06
 BYTE   An2
 BYTE   W06
 BYTE   N05  An2  v114
 BYTE   W06
 BYTE   N01  An2  v076
 BYTE   W06
 BYTE   N05  An2  v114
 BYTE   W06
 BYTE   An2
 BYTE   W06
 BYTE   N01  An2  v076
 BYTE   W06
 BYTE   N05  Gs2  v114
 BYTE   W06
 BYTE   N01  Gs2  v076
 BYTE   W06
 BYTE   Gs2
 BYTE   W06
 BYTE   N05  Gs2  v114
 BYTE   W06
 BYTE   N01  Gs2  v076
 BYTE   W06
 BYTE   N05  Gs2  v114
 BYTE   W06
 BYTE   Gs2
 BYTE   W06
 BYTE   N01  Gs2  v076
 BYTE   W06
 BYTE   PEND 
 BYTE   PATT
  POIN2 Label_4_0115329E
 BYTE   PATT
  POIN2 Label_4_0115329E
// 002   ----------------------------------------
Label_4_011532E1:
 BYTE   N05  An2  v114
 BYTE   W06
 BYTE   N01  An2  v051
 BYTE   W06
 BYTE   An2
 BYTE   W06
 BYTE   N05  An2  v114
 BYTE   W06
 BYTE   N01  An2  v051
 BYTE   W06
 BYTE   N05  An2  v114
 BYTE   W06
 BYTE   An2
 BYTE   W06
 BYTE   N01  An2  v051
 BYTE   W06
 BYTE   N05  Gs2  v114
 BYTE   W06
 BYTE   N01  Gs2  v051
 BYTE   W06
 BYTE   Gs2
 BYTE   W06
 BYTE   N05  Gs2  v114
 BYTE   W06
 BYTE   N01  Gs2  v051
 BYTE   W06
 BYTE   N05  Gs2  v114
 BYTE   W06
 BYTE   Gs2
 BYTE   W06
 BYTE   N01  Gs2  v051
 BYTE   W06
 BYTE   PEND 
 BYTE   PATT
  POIN2 Label_4_011532E1
 BYTE   PATT
  POIN2 Label_4_011532E1
// 003   ----------------------------------------
 BYTE   N05  An2  v114
 BYTE   W06
 BYTE   N01  An2  v051
 BYTE   W06
 BYTE   An2
 BYTE   W06
 BYTE   N05  An2  v114
 BYTE   W06
 BYTE   N01  An2  v051
 BYTE   W06
 BYTE   N05  An2  v114
 BYTE   W06
 BYTE   An2
 BYTE   W06
 BYTE   N01  An2  v051
 BYTE   W06
 BYTE   N05  Gs2  v114
 BYTE   W06
 BYTE   N01  Gs2  v051
 BYTE   W06
 BYTE   Gs2
 BYTE   W06
 BYTE   N05  Gs2  v114
 BYTE   W06
 BYTE   N01  Gs2  v051
 BYTE   W06
 BYTE   N05  Gs2  v114
 BYTE   W06
 BYTE   Gs2
 BYTE   W04
 BYTE   W01
 BYTE   N01  Gs2  v051
 BYTE   W01
 BYTE   W01
 BYTE   W02
 BYTE   GoTo
  POIN2 Label_4_0115325C
 BYTE   FINE

//**************** Track 6 (Midi-Chn.5) ****************//

EarthboundTheJollyFlyingManPandan_006:
// 000   ----------------------------------------
Label_5_01153368:
 BYTE   TEMPO   94*EarthboundTheJollyFlyingManPandan_tbs/2
 BYTE   KEYSH   EarthboundTheJollyFlyingManPandan_key+0
 BYTE   VOICE   33
 BYTE   VOL   31*EarthboundTheJollyFlyingManPandan_mvl/mxv
 BYTE   PAN   c_v+14
 BYTE   N05  Dn3  v114
 BYTE   W06
 BYTE   N01  Dn3  v051
 BYTE   W06
 BYTE   Dn3
 BYTE   W06
 BYTE   N05  Dn3  v114
 BYTE   W06
 BYTE   N01  Dn3  v051
 BYTE   W06
 BYTE   N05  Dn3  v114
 BYTE   W06
 BYTE   Dn3
 BYTE   W06
 BYTE   N01  Dn3  v051
 BYTE   W06
 BYTE   N05  Dn3  v114
 BYTE   W06
 BYTE   N01  Dn3  v051
 BYTE   W06
 BYTE   Dn3
 BYTE   W06
 BYTE   N05  Dn3  v114
 BYTE   W06
 BYTE   N01  Dn3  v051
 BYTE   W06
 BYTE   N05  Dn3  v114
 BYTE   W06
 BYTE   Dn3
 BYTE   W06
 BYTE   N01  Dn3  v051
 BYTE   W06
// 001   ----------------------------------------
Label_5_011533AA:
 BYTE   N05  Dn3  v114
 BYTE   W06
 BYTE   N01  Dn3  v051
 BYTE   W06
 BYTE   Dn3
 BYTE   W06
 BYTE   N05  Dn3  v114
 BYTE   W06
 BYTE   N01  Dn3  v051
 BYTE   W06
 BYTE   N05  Dn3  v114
 BYTE   W06
 BYTE   Dn3
 BYTE   W06
 BYTE   N01  Dn3  v051
 BYTE   W06
 BYTE   N05  Dn3  v114
 BYTE   W06
 BYTE   N01  Dn3  v051
 BYTE   W06
 BYTE   Dn3
 BYTE   W06
 BYTE   N05  Dn3  v114
 BYTE   W06
 BYTE   N01  Dn3  v051
 BYTE   W06
 BYTE   N05  Dn3  v114
 BYTE   W06
 BYTE   Dn3
 BYTE   W06
 BYTE   N01  Dn3  v051
 BYTE   W06
 BYTE   PEND 
 BYTE   PATT
  POIN2 Label_5_011533AA
// 002   ----------------------------------------
 BYTE   N05  Dn3  v114
 BYTE   W06
 BYTE   N01  Dn3  v051
 BYTE   W06
 BYTE   Dn3
 BYTE   W06
 BYTE   N05  Dn3  v114
 BYTE   W06
 BYTE   N01  Dn3  v051
 BYTE   W06
 BYTE   N05  Dn3  v114
 BYTE   W06
 BYTE   Dn3
 BYTE   W06
 BYTE   N01  Dn3  v051
 BYTE   W06
 BYTE   N05  Dn3  v114
 BYTE   W06
 BYTE   N01  Dn3  v051
 BYTE   W06
 BYTE   Dn3
 BYTE   W06
 BYTE   N05  Dn3  v114
 BYTE   W06
 BYTE   N01  Dn3  v051
 BYTE   W06
 BYTE   N05  Dn3  v114
 BYTE   W06
 BYTE   Dn3
 BYTE   W06
 BYTE   N01  Dn3  v051
 BYTE   W06
// 003   ----------------------------------------
Label_5_01153420:
 BYTE   N05  Dn3  v114
 BYTE   W06
 BYTE   N01  Dn3  v076
 BYTE   W06
 BYTE   Dn3
 BYTE   W06
 BYTE   N05  Dn3  v114
 BYTE   W06
 BYTE   N01  Dn3  v076
 BYTE   W06
 BYTE   N05  Dn3  v114
 BYTE   W06
 BYTE   Dn3
 BYTE   W06
 BYTE   N01  Dn3  v076
 BYTE   W06
 BYTE   N05  Dn3  v114
 BYTE   W06
 BYTE   N01  Dn3  v076
 BYTE   W06
 BYTE   Dn3
 BYTE   W06
 BYTE   N05  Dn3  v114
 BYTE   W06
 BYTE   N01  Dn3  v076
 BYTE   W06
 BYTE   N05  Dn3  v114
 BYTE   W06
 BYTE   Dn3
 BYTE   W06
 BYTE   N01  Dn3  v076
 BYTE   W06
 BYTE   PEND 
 BYTE   PATT
  POIN2 Label_5_01153420
 BYTE   PATT
  POIN2 Label_5_01153420
// 004   ----------------------------------------
 BYTE   N05  Dn3  v114
 BYTE   W06
 BYTE   N01  Dn3  v076
 BYTE   W06
 BYTE   Dn3
 BYTE   W06
 BYTE   N05  Dn3  v114
 BYTE   W06
 BYTE   N01  Dn3  v076
 BYTE   W06
 BYTE   N05  Dn3  v114
 BYTE   W06
 BYTE   Dn3
 BYTE   W06
 BYTE   N01  Dn3  v076
 BYTE   W06
 BYTE   N05  Dn3  v114
 BYTE   W06
 BYTE   N01  Dn3  v076
 BYTE   W06
 BYTE   Dn3
 BYTE   W06
 BYTE   N05  Dn3  v114
 BYTE   W06
 BYTE   N01  Dn3  v076
 BYTE   W06
 BYTE   N05  Dn3  v114
 BYTE   W06
 BYTE   Dn3
 BYTE   W04
 BYTE   W02
 BYTE   N01  Dn3  v076
 BYTE   W01
 BYTE   W02
 BYTE   GoTo
  POIN2 Label_5_01153368
 BYTE   FINE

//**************** Track 7 (Midi-Chn.6) ****************//

EarthboundTheJollyFlyingManPandan_007:
// 000   ----------------------------------------
Label_6_011534A4:
 BYTE   TEMPO   94*EarthboundTheJollyFlyingManPandan_tbs/2
 BYTE   KEYSH   EarthboundTheJollyFlyingManPandan_key+0
 BYTE   VOICE   33
 BYTE   VOL   31*EarthboundTheJollyFlyingManPandan_mvl/mxv
 BYTE   PAN   c_v-14
 BYTE   W01
 BYTE   N05  Fs3  v114
 BYTE   W06
 BYTE   N01  Fs3  v051
 BYTE   W06
 BYTE   Fs3
 BYTE   W06
 BYTE   N05  Fs3  v114
 BYTE   W06
 BYTE   N01  Fs3  v051
 BYTE   W06
 BYTE   N05  Fs3  v114
 BYTE   W06
 BYTE   Fs3
 BYTE   W06
 BYTE   N01  Fs3  v051
 BYTE   W06
 BYTE   N05  Fn3  v114
 BYTE   W06
 BYTE   N01  Fn3  v051
 BYTE   W06
 BYTE   Fn3
 BYTE   W06
 BYTE   N05  Fn3  v114
 BYTE   W06
 BYTE   N01  Fn3  v051
 BYTE   W06
 BYTE   N05  Fn3  v114
 BYTE   W06
 BYTE   Fn3
 BYTE   W06
 BYTE   N01  Fn3  v051
 BYTE   W06
// 001   ----------------------------------------
Label_6_011534E7:
 BYTE   N05  Fs3  v114
 BYTE   W06
 BYTE   N01  Fs3  v051
 BYTE   W06
 BYTE   Fs3
 BYTE   W06
 BYTE   N05  Fs3  v114
 BYTE   W06
 BYTE   N01  Fs3  v051
 BYTE   W06
 BYTE   N05  Fs3  v114
 BYTE   W06
 BYTE   Fs3
 BYTE   W06
 BYTE   N01  Fs3  v051
 BYTE   W06
 BYTE   N05  Fn3  v114
 BYTE   W06
 BYTE   N01  Fn3  v051
 BYTE   W06
 BYTE   Fn3
 BYTE   W06
 BYTE   N05  Fn3  v114
 BYTE   W06
 BYTE   N01  Fn3  v051
 BYTE   W06
 BYTE   N05  Fn3  v114
 BYTE   W06
 BYTE   Fn3
 BYTE   W06
 BYTE   N01  Fn3  v051
 BYTE   W06
 BYTE   PEND 
 BYTE   PATT
  POIN2 Label_6_011534E7
// 002   ----------------------------------------
 BYTE   N05  Fs3  v114
 BYTE   W06
 BYTE   N01  Fs3  v051
 BYTE   W06
 BYTE   Fs3
 BYTE   W06
 BYTE   N05  Fs3  v114
 BYTE   W06
 BYTE   N01  Fs3  v051
 BYTE   W06
 BYTE   N05  Fs3  v114
 BYTE   W06
 BYTE   Fs3
 BYTE   W06
 BYTE   N01  Fs3  v051
 BYTE   W06
 BYTE   N05  Fn3  v114
 BYTE   W06
 BYTE   N01  Fn3  v051
 BYTE   W06
 BYTE   Fn3
 BYTE   W06
 BYTE   N05  Fn3  v114
 BYTE   W06
 BYTE   N01  Fn3  v051
 BYTE   W06
 BYTE   N05  Fn3  v114
 BYTE   W06
 BYTE   Fn3
 BYTE   W12
 BYTE   PATT
  POIN2 Label_6_011534E7
 BYTE   PATT
  POIN2 Label_6_011534E7
 BYTE   PATT
  POIN2 Label_6_011534E7
// 003   ----------------------------------------
 BYTE   N05  Fs3  v114
 BYTE   W06
 BYTE   N01  Fs3  v051
 BYTE   W06
 BYTE   Fs3
 BYTE   W06
 BYTE   N05  Fs3  v114
 BYTE   W06
 BYTE   N01  Fs3  v051
 BYTE   W06
 BYTE   N05  Fs3  v114
 BYTE   W06
 BYTE   Fs3
 BYTE   W06
 BYTE   N01  Fs3  v051
 BYTE   W06
 BYTE   N05  Fn3  v114
 BYTE   W06
 BYTE   N01  Fn3  v051
 BYTE   W06
 BYTE   Fn3
 BYTE   W06
 BYTE   N05  Fn3  v114
 BYTE   W06
 BYTE   N01  Fn3  v051
 BYTE   W06
 BYTE   N05  Fn3  v114
 BYTE   W06
 BYTE   Fn3
 BYTE   W03
 BYTE   W02
 BYTE   W01
 BYTE   W02
 BYTE   GoTo
  POIN2 Label_6_011534A4
 BYTE   FINE

//**************** Track 8 (Midi-Chn.7) ****************//

EarthboundTheJollyFlyingManPandan_008:
// 000   ----------------------------------------
Label_7_011535A8:
 BYTE   TEMPO   94*EarthboundTheJollyFlyingManPandan_tbs/2
 BYTE   KEYSH   EarthboundTheJollyFlyingManPandan_key+0
 BYTE   VOICE   75
 BYTE   VOL   31*EarthboundTheJollyFlyingManPandan_mvl/mxv
 BYTE   PAN   c_v+0
 BYTE   W96
// 001   ----------------------------------------
 BYTE   W78
 BYTE   N64  Dn4  v114
 BYTE   W32
// 002   ----------------------------------------
 BYTE   N01
 BYTE   W96
// 003   ----------------------------------------
 BYTE   W64
 BYTE   N17
 BYTE   W18
 BYTE   VOICE   31
 BYTE   VOICE   31
 BYTE   VOL   53*EarthboundTheJollyFlyingManPandan_mvl/mxv
 BYTE   PAN   c_v-25
 BYTE   PAN   c_v+0
 BYTE   N05  Gn3  v114
 BYTE   W18
// 004   ----------------------------------------
 BYTE   Gn3
 BYTE   W42
 BYTE   Gn3
 BYTE   W12
 BYTE   Gn3
 BYTE   W06
 BYTE   Gn3
 BYTE   W18
 BYTE   Gn3
 BYTE   W18
// 005   ----------------------------------------
 BYTE   Gn3
 BYTE   W30
 BYTE   Gn3
 BYTE   W18
 BYTE   Gn3
 BYTE   W06
 BYTE   VOICE   28
 BYTE   VOL   116*EarthboundTheJollyFlyingManPandan_mvl/mxv
 BYTE   PAN   c_v+49
 BYTE   N04  Gn1  v126
 BYTE   W06
 BYTE   Gn1
 BYTE   W06
 BYTE   Gn1
 BYTE   W12
 BYTE   VOICE   31
 BYTE   VOL   53*EarthboundTheJollyFlyingManPandan_mvl/mxv
 BYTE   PAN   c_v-25
 BYTE   N05  Gn3  v114
 BYTE   W18
// 006   ----------------------------------------
 BYTE   Gn3
 BYTE   W42
 BYTE   Gn3
 BYTE   W12
 BYTE   Gn3
 BYTE   W06
 BYTE   Gn3
 BYTE   W18
 BYTE   Gn3
 BYTE   W18
// 007   ----------------------------------------
 BYTE   Gn3
 BYTE   W30
 BYTE   Gn3
 BYTE   W18
 BYTE   Gn3
 BYTE   W06
 BYTE   VOICE   28
 BYTE   VOL   116*EarthboundTheJollyFlyingManPandan_mvl/mxv
 BYTE   PAN   c_v+49
 BYTE   N04  Gn1  v126
 BYTE   W06
 BYTE   Gn1
 BYTE   W06
 BYTE   Gn1
 BYTE   W04
 BYTE   W02
 BYTE   W01
 BYTE   W02
 BYTE   GoTo
  POIN2 Label_7_011535A8
 BYTE   FINE

//******************************************************//
	ALIGN 4

EarthboundTheJollyFlyingManPandan:
	BYTE	8	// NumTrks
	BYTE	0	// NumBlks
	BYTE	EarthboundTheJollyFlyingManPandan_pri	// Priority
	BYTE	EarthboundTheJollyFlyingManPandan_rev	// Reverb.
    
	POIN2	EarthboundTheJollyFlyingManPandan_grp
    
	POIN2	EarthboundTheJollyFlyingManPandan_001
	POIN2	EarthboundTheJollyFlyingManPandan_002
	POIN2	EarthboundTheJollyFlyingManPandan_003
	POIN2	EarthboundTheJollyFlyingManPandan_004
	POIN2	EarthboundTheJollyFlyingManPandan_005
	POIN2	EarthboundTheJollyFlyingManPandan_006
	POIN2	EarthboundTheJollyFlyingManPandan_007
	POIN2	EarthboundTheJollyFlyingManPandan_008

	
