//Event file generated from Sappy .s format.
	#include "MPlayDef.event"

	#define	EarthboundGiygas2AReliableChair_grp  voicegroup000
	#define	EarthboundGiygas2AReliableChair_pri  0
	#define	EarthboundGiygas2AReliableChair_rev  0
	#define	EarthboundGiygas2AReliableChair_mvl  127
	#define	EarthboundGiygas2AReliableChair_key  0
	#define	EarthboundGiygas2AReliableChair_tbs  1
	#define	EarthboundGiygas2AReliableChair_exg  0
	#define	EarthboundGiygas2AReliableChair_cmp  1

	// .rodata
	//	EarthboundGiygas2AReliableChair
	ALIGN 4


//**************** Track 1 (Midi-Chn.0) ****************//

EarthboundGiygas2AReliableChair_001:
// 000   ----------------------------------------
 BYTE   KEYSH   EarthboundGiygas2AReliableChair_key+0
Label_0_011ED7C6:
 BYTE   TEMPO   120*EarthboundGiygas2AReliableChair_tbs/2
 BYTE   VOICE   33
 BYTE   MODT 0
 BYTE   CnM2  v000
 BYTE   LFOS 0
 BYTE   CnM2  v044
 BYTE   VOL   53*EarthboundGiygas2AReliableChair_mvl/mxv
 BYTE   BEND   c_v+0
 BYTE   W03
 BYTE   N06  As0  v127
 BYTE   W06
 BYTE   N06
 BYTE   W06
 BYTE   Bn0
 BYTE   W06
 BYTE   N06
 BYTE   W06
 BYTE   Cn1
 BYTE   W06
 BYTE   N06
 BYTE   W06
 BYTE   Cs1
 BYTE   W06
 BYTE   N06
 BYTE   W06
 BYTE   Dn1
 BYTE   W06
 BYTE   N06
 BYTE   W06
 BYTE   Cs1
 BYTE   W06
 BYTE   N06
 BYTE   W06
 BYTE   Cn1
 BYTE   W06
 BYTE   N06
 BYTE   W06
 BYTE   Bn0
 BYTE   W06
 BYTE   N06
 BYTE   W03
// 001   ----------------------------------------
Label_0_011ED7F7:
 BYTE   W03
 BYTE   N06  As0  v127
 BYTE   W06
 BYTE   N06
 BYTE   W06
 BYTE   Bn0
 BYTE   W06
 BYTE   N06
 BYTE   W06
 BYTE   Cn1
 BYTE   W06
 BYTE   N06
 BYTE   W06
 BYTE   Cs1
 BYTE   W06
 BYTE   N06
 BYTE   W06
 BYTE   Dn1
 BYTE   W06
 BYTE   N06
 BYTE   W06
 BYTE   Cs1
 BYTE   W06
 BYTE   N06
 BYTE   W06
 BYTE   Cn1
 BYTE   W06
 BYTE   N06
 BYTE   W06
 BYTE   Bn0
 BYTE   W06
 BYTE   N06
 BYTE   W03
 BYTE   PEND 
 BYTE   PATT
  POIN2 Label_0_011ED7F7
 BYTE   PATT
  POIN2 Label_0_011ED7F7
 BYTE   PATT
  POIN2 Label_0_011ED7F7
 BYTE   PATT
  POIN2 Label_0_011ED7F7
 BYTE   PATT
  POIN2 Label_0_011ED7F7
// 002   ----------------------------------------
 BYTE   W03
 BYTE   N06  As0  v127
 BYTE   W06
 BYTE   N06
 BYTE   W06
 BYTE   Bn0
 BYTE   W06
 BYTE   N06
 BYTE   W06
 BYTE   Cn1
 BYTE   W06
 BYTE   N06
 BYTE   W06
 BYTE   Cs1
 BYTE   W06
 BYTE   N06
 BYTE   W06
 BYTE   Dn1
 BYTE   W06
 BYTE   N06
 BYTE   W06
 BYTE   Cs1
 BYTE   W06
 BYTE   N06
 BYTE   W06
 BYTE   Cn1
 BYTE   W06
 BYTE   N06
 BYTE   W06
 BYTE   Bn0
 BYTE   W06
 BYTE   N05
 BYTE   W03
// 003   ----------------------------------------
 BYTE   GoTo
  POIN2 Label_0_011ED7C6
// 004   ----------------------------------------
 BYTE   W03
 BYTE   FINE

//**************** Track 2 (Midi-Chn.1) ****************//

EarthboundGiygas2AReliableChair_002:
// 000   ----------------------------------------
 BYTE   KEYSH   EarthboundGiygas2AReliableChair_key+0
Label_1_011ED862:
 BYTE   VOICE   29
 BYTE   MODT 0
 BYTE   CnM2  v000
 BYTE   LFOS 0
 BYTE   CnM2  v044
 BYTE   VOL   53*EarthboundGiygas2AReliableChair_mvl/mxv
 BYTE   W03
 BYTE   BENDR  2
 BYTE   BEND   c_v+0
 BYTE   N36  Bn1  v127
 BYTE   N36  En2
 BYTE   W36
 BYTE   N60  Cn2
 BYTE   N60  Fn2
 BYTE   W56
 BYTE   W01
// 001   ----------------------------------------
Label_1_011ED87D:
 BYTE   W03
 BYTE   N36  Bn1  v127
 BYTE   N36  En2
 BYTE   W36
 BYTE   N60  Dn2
 BYTE   N60  Gn2
 BYTE   W36
 BYTE   BEND   c_v+0
 BYTE   W03
 BYTE   Bn2
 BYTE   W03
 BYTE   Gn2
 BYTE   W03
 BYTE   Bn1
 BYTE   W03
 BYTE   En1
 BYTE   W03
 BYTE   Gs0
 BYTE   W03
 BYTE   EnM1
 BYTE   W03
 BYTE   PEND 
// 002   ----------------------------------------
Label_1_011ED899:
 BYTE   BEND   c_v-64
 BYTE   W03
 BYTE   En3
 BYTE   N36  Bn1  v127
 BYTE   N36  En2
 BYTE   W36
 BYTE   N60  Cn2
 BYTE   N60  Fn2
 BYTE   W56
 BYTE   W01
 BYTE   PEND 
// 003   ----------------------------------------
 BYTE   W03
 BYTE   N36  Bn1
 BYTE   N36  En2
 BYTE   W36
 BYTE   N60  Ds2
 BYTE   N60  Gs2
 BYTE   W36
 BYTE   BEND   c_v+0
 BYTE   W03
 BYTE   Bn2
 BYTE   W03
 BYTE   Gn2
 BYTE   W03
 BYTE   Bn1
 BYTE   W03
 BYTE   En1
 BYTE   W03
 BYTE   Gs0
 BYTE   W03
 BYTE   EnM1
 BYTE   W03
 BYTE   PATT
  POIN2 Label_1_011ED899
 BYTE   PATT
  POIN2 Label_1_011ED87D
 BYTE   PATT
  POIN2 Label_1_011ED899
// 004   ----------------------------------------
 BYTE   W03
 BYTE   N36  Bn1  v127
 BYTE   N36  En2
 BYTE   W36
 BYTE   N56  Ds2
 BYTE   N56  Gs2
 BYTE   W36
 BYTE   BEND   c_v+0
 BYTE   W03
 BYTE   Bn2
 BYTE   W03
 BYTE   Gn2
 BYTE   W03
 BYTE   Bn1
 BYTE   W03
 BYTE   En1
 BYTE   W03
 BYTE   Gs0
 BYTE   W03
 BYTE   EnM1
 BYTE   W03
// 005   ----------------------------------------
 BYTE   GoTo
  POIN2 Label_1_011ED862
// 006   ----------------------------------------
 BYTE   BEND   c_v-64
 BYTE   W03
 BYTE   FINE

//**************** Track 3 (Midi-Chn.2) ****************//

EarthboundGiygas2AReliableChair_003:
// 000   ----------------------------------------
 BYTE   KEYSH   EarthboundGiygas2AReliableChair_key+0
Label_2_011ED8FA:
 BYTE   VOICE   121
 BYTE   MODT 0
 BYTE   CnM2  v000
 BYTE   LFOS 0
 BYTE   CnM2  v044
 BYTE   VOL   33*EarthboundGiygas2AReliableChair_mvl/mxv
 BYTE   N03  Ds1  v060
 BYTE   W03
 BYTE   N12  Dn1  v127
 BYTE   W24
 BYTE   N12
 BYTE   W24
 BYTE   N12
 BYTE   W24
 BYTE   N12
 BYTE   W21
// 001   ----------------------------------------
Label_2_011ED912:
 BYTE   W03
 BYTE   N12  Dn1  v127
 BYTE   W24
 BYTE   N12
 BYTE   W24
 BYTE   N12
 BYTE   W24
 BYTE   N12
 BYTE   W21
 BYTE   PEND 
 BYTE   PATT
  POIN2 Label_2_011ED912
// 002   ----------------------------------------
 BYTE   W03
 BYTE   N06  Dn1  v127
 BYTE   W06
 BYTE   N06
 BYTE   W18
 BYTE   N06
 BYTE   W06
 BYTE   N06
 BYTE   W18
 BYTE   N06
 BYTE   W06
 BYTE   Dn1  v068
 BYTE   W06
 BYTE   Dn1  v076
 BYTE   W06
 BYTE   Dn1  v084
 BYTE   W06
 BYTE   Dn1  v092
 BYTE   W06
 BYTE   Dn1  v100
 BYTE   W06
 BYTE   Dn1  v108
 BYTE   W06
 BYTE   Dn1  v120
 BYTE   W03
 BYTE   PATT
  POIN2 Label_2_011ED912
 BYTE   PATT
  POIN2 Label_2_011ED912
 BYTE   PATT
  POIN2 Label_2_011ED912
// 003   ----------------------------------------
 BYTE   W03
 BYTE   N06  Dn1  v127
 BYTE   W06
 BYTE   N06
 BYTE   W18
 BYTE   N06
 BYTE   W06
 BYTE   N06
 BYTE   W18
 BYTE   N06
 BYTE   W06
 BYTE   Dn1  v068
 BYTE   W06
 BYTE   Dn1  v076
 BYTE   W06
 BYTE   Dn1  v084
 BYTE   W06
 BYTE   Dn1  v092
 BYTE   W06
 BYTE   Dn1  v100
 BYTE   W06
 BYTE   Dn1  v108
 BYTE   W06
 BYTE   N05  Dn1  v120
 BYTE   W03
// 004   ----------------------------------------
 BYTE   GoTo
  POIN2 Label_2_011ED8FA
// 005   ----------------------------------------
 BYTE   W03
 BYTE   FINE

//******************************************************//
	ALIGN 4

EarthboundGiygas2AReliableChair:
	BYTE	3	// NumTrks
	BYTE	0	// NumBlks
	BYTE	EarthboundGiygas2AReliableChair_pri	// Priority
	BYTE	EarthboundGiygas2AReliableChair_rev	// Reverb.
    
	POIN2	EarthboundGiygas2AReliableChair_grp
    
	POIN2	EarthboundGiygas2AReliableChair_001
	POIN2	EarthboundGiygas2AReliableChair_002
	POIN2	EarthboundGiygas2AReliableChair_003

	
