//Event file generated from Sappy .s format.
	#include "MPlayDef.event"

	#define	MOTHER3FFFireMrGreen3339_grp  voicegroup000
	#define	MOTHER3FFFireMrGreen3339_pri  0
	#define	MOTHER3FFFireMrGreen3339_rev  0
	#define	MOTHER3FFFireMrGreen3339_mvl  127
	#define	MOTHER3FFFireMrGreen3339_key  0
	#define	MOTHER3FFFireMrGreen3339_tbs  1
	#define	MOTHER3FFFireMrGreen3339_exg  0
	#define	MOTHER3FFFireMrGreen3339_cmp  1

	// .rodata
	//	MOTHER3FFFireMrGreen3339
	ALIGN 4


//**************** Track 1 (Midi-Chn.0) ****************//

MOTHER3FFFireMrGreen3339_001:
// 000   ----------------------------------------
 BYTE   KEYSH   MOTHER3FFFireMrGreen3339_key+0
 BYTE   TEMPO   132*MOTHER3FFFireMrGreen3339_tbs/2
 BYTE   VOICE   29
 BYTE   VOL   47*MOTHER3FFFireMrGreen3339_mvl/mxv
 BYTE   N12  En1  v088
 BYTE   W12
 BYTE   En2
 BYTE   W12
 BYTE   N06
 BYTE   W06
 BYTE   Dn2
 BYTE   W06
 BYTE   N12  Bn1
 BYTE   W12
 BYTE   N06  Gn2
 BYTE   W06
 BYTE   An2
 BYTE   W06
 BYTE   Gn2
 BYTE   W06
 BYTE   N12  En2
 BYTE   W12
 BYTE   N06  Dn2
 BYTE   W06
 BYTE   Bn1
 BYTE   W06
 BYTE   An1
 BYTE   W06
// 001   ----------------------------------------
Label_0_013C84FA:
 BYTE   N12  En1  v088
 BYTE   W12
 BYTE   En2
 BYTE   W12
 BYTE   N06
 BYTE   W06
 BYTE   Dn2
 BYTE   W06
 BYTE   N12  Bn1
 BYTE   W12
 BYTE   N06  Gn2
 BYTE   W06
 BYTE   An2
 BYTE   W06
 BYTE   Gn2
 BYTE   W06
 BYTE   N12  En2
 BYTE   W12
 BYTE   N06  Dn2
 BYTE   W06
 BYTE   Bn1
 BYTE   W06
 BYTE   An1
 BYTE   W06
 BYTE   PEND 
 BYTE   PATT
  POIN2 Label_0_013C84FA
 BYTE   PATT
  POIN2 Label_0_013C84FA
// 002   ----------------------------------------
Label_0_013C8523:
 BYTE   PATT
  POIN2 Label_0_013C84FA
 BYTE   PATT
  POIN2 Label_0_013C84FA
// 003   ----------------------------------------
Label_0_013C852D:
 BYTE   N12  Gn1  v088
 BYTE   W12
 BYTE   Gn2
 BYTE   W12
 BYTE   N06
 BYTE   W06
 BYTE   Fn2
 BYTE   W06
 BYTE   N12  Dn2
 BYTE   W12
 BYTE   N06  Bn2
 BYTE   W06
 BYTE   Cn3
 BYTE   W06
 BYTE   Bn2
 BYTE   W06
 BYTE   N12  Gn2
 BYTE   W12
 BYTE   N06  En2
 BYTE   W06
 BYTE   Dn2
 BYTE   W06
 BYTE   An1
 BYTE   W06
 BYTE   PEND 
 BYTE   PATT
  POIN2 Label_0_013C852D
// 004   ----------------------------------------
 BYTE   W96
// 005   ----------------------------------------
 BYTE   W96
// 006   ----------------------------------------
 BYTE   W96
// 007   ----------------------------------------
 BYTE   W96
// 008   ----------------------------------------
 BYTE   W96
// 009   ----------------------------------------
 BYTE   W48
 BYTE   N12  En1  v088
 BYTE   W12
 BYTE   En2
 BYTE   W12
 BYTE   N06
 BYTE   W06
 BYTE   Dn2
 BYTE   W06
 BYTE   N12  Bn1
 BYTE   W12
// 010   ----------------------------------------
Label_0_013C8564:
 BYTE   N06  Gn2  v088
 BYTE   W06
 BYTE   An2
 BYTE   W06
 BYTE   Gn2
 BYTE   W06
 BYTE   N12  En2
 BYTE   W12
 BYTE   N06  Dn2
 BYTE   W06
 BYTE   Bn1
 BYTE   W06
 BYTE   An1
 BYTE   W06
 BYTE   N12  En1
 BYTE   W12
 BYTE   En2
 BYTE   W12
 BYTE   N06
 BYTE   W06
 BYTE   Dn2
 BYTE   W06
 BYTE   N12  Bn1
 BYTE   W12
 BYTE   PEND 
 BYTE   PATT
  POIN2 Label_0_013C8564
 BYTE   PATT
  POIN2 Label_0_013C8564
// 011   ----------------------------------------
 BYTE   N06  Gn2  v088
 BYTE   W06
 BYTE   An2
 BYTE   W06
 BYTE   Gn2
 BYTE   W06
 BYTE   N12  En2
 BYTE   W12
 BYTE   N06  Dn2
 BYTE   W06
 BYTE   Bn1
 BYTE   W06
 BYTE   GoTo
  POIN2 Label_0_013C8523
 BYTE   FINE

//**************** Track 2 (Midi-Chn.1) ****************//

MOTHER3FFFireMrGreen3339_002:
// 000   ----------------------------------------
 BYTE   VOL   65*MOTHER3FFFireMrGreen3339_mvl/mxv
 BYTE   KEYSH   MOTHER3FFFireMrGreen3339_key+0
 BYTE   VOICE   36
 BYTE   W96
// 001   ----------------------------------------
 BYTE   W48
 BYTE   N06  En1  v088
 BYTE   W06
 BYTE   Dn1
 BYTE   W06
 BYTE   Cn1
 BYTE   W06
 BYTE   En1
 BYTE   W06
 BYTE   Dn1
 BYTE   W06
 BYTE   Cn1
 BYTE   W06
 BYTE   Gn0
 BYTE   W06
 BYTE   Fn0
 BYTE   W06
// 002   ----------------------------------------
 BYTE   W96
// 003   ----------------------------------------
 BYTE   W96
// 004   ----------------------------------------
Label_1_013C85C0:
 BYTE   W96
// 005   ----------------------------------------
 BYTE   W96
// 006   ----------------------------------------
 BYTE   W96
// 007   ----------------------------------------
 BYTE   W96
// 008   ----------------------------------------
Label_1_013C85C4:
 BYTE   N24  Gn0  v088
 BYTE   W48
 BYTE   N24
 BYTE   W48
 BYTE   PEND 
 BYTE   PATT
  POIN2 Label_1_013C85C4
 BYTE   PATT
  POIN2 Label_1_013C85C4
 BYTE   PATT
  POIN2 Label_1_013C85C4
 BYTE   PATT
  POIN2 Label_1_013C85C4
// 009   ----------------------------------------
 BYTE   N24  Fs0  v088
 BYTE   W48
 BYTE   N24
 BYTE   W48
// 010   ----------------------------------------
 BYTE   W96
// 011   ----------------------------------------
 BYTE   N06  En1
 BYTE   W06
 BYTE   Dn1
 BYTE   W06
 BYTE   Cn1
 BYTE   W06
 BYTE   En1
 BYTE   W06
 BYTE   Dn1
 BYTE   W06
 BYTE   Cn1
 BYTE   W06
 BYTE   Gn0
 BYTE   W06
 BYTE   Fn0
 BYTE   W54
// 012   ----------------------------------------
 BYTE   W96
// 013   ----------------------------------------
 BYTE   W42
 BYTE   GoTo
  POIN2 Label_1_013C85C0
 BYTE   FINE

//**************** Track 3 (Midi-Chn.2) ****************//

MOTHER3FFFireMrGreen3339_003:
// 000   ----------------------------------------
 BYTE   VOL   65*MOTHER3FFFireMrGreen3339_mvl/mxv
 BYTE   KEYSH   MOTHER3FFFireMrGreen3339_key+0
 BYTE   VOICE   34
 BYTE   W96
// 001   ----------------------------------------
 BYTE   W96
// 002   ----------------------------------------
Label_2_013C8608:
 BYTE   N06  En0  v088
 BYTE   W06
 BYTE   N06
 BYTE   W06
 BYTE   N06
 BYTE   W06
 BYTE   N06
 BYTE   W06
 BYTE   N06
 BYTE   W06
 BYTE   N06
 BYTE   W06
 BYTE   N06
 BYTE   W06
 BYTE   N06
 BYTE   W06
 BYTE   N06
 BYTE   W06
 BYTE   N06
 BYTE   W06
 BYTE   N06
 BYTE   W06
 BYTE   N06
 BYTE   W06
 BYTE   N06
 BYTE   W06
 BYTE   N06
 BYTE   W06
 BYTE   N06
 BYTE   W06
 BYTE   N06
 BYTE   W06
 BYTE   PEND 
// 003   ----------------------------------------
Label_2_013C862B:
 BYTE   N06  En0  v088
 BYTE   W06
 BYTE   N06
 BYTE   W06
 BYTE   N06
 BYTE   W06
 BYTE   N06
 BYTE   W06
 BYTE   N06
 BYTE   W06
 BYTE   N06
 BYTE   W06
 BYTE   N06
 BYTE   W06
 BYTE   N06
 BYTE   W06
 BYTE   En1
 BYTE   W06
 BYTE   Dn1
 BYTE   W06
 BYTE   Cn1
 BYTE   W06
 BYTE   En1
 BYTE   W06
 BYTE   Dn1
 BYTE   W06
 BYTE   Cn1
 BYTE   W06
 BYTE   Gn0
 BYTE   W06
 BYTE   Fn0
 BYTE   W06
 BYTE   PEND 
// 004   ----------------------------------------
Label_2_013C864E:
 BYTE   PATT
  POIN2 Label_2_013C8608
 BYTE   PATT
  POIN2 Label_2_013C862B
 BYTE   PATT
  POIN2 Label_2_013C8608
 BYTE   PATT
  POIN2 Label_2_013C862B
// 005   ----------------------------------------
 BYTE   W96
// 006   ----------------------------------------
 BYTE   W96
// 007   ----------------------------------------
 BYTE   W96
// 008   ----------------------------------------
 BYTE   W48
 BYTE   N06  Gn0  v088
 BYTE   W06
 BYTE   Fs0
 BYTE   W06
 BYTE   Gn0
 BYTE   W06
 BYTE   Fs0
 BYTE   W06
 BYTE   Gn0
 BYTE   W06
 BYTE   Fs0
 BYTE   W06
 BYTE   Gn0
 BYTE   W06
 BYTE   Fs0
 BYTE   W06
// 009   ----------------------------------------
 BYTE   W96
// 010   ----------------------------------------
 BYTE   N06
 BYTE   W06
 BYTE   N06
 BYTE   W06
 BYTE   N06
 BYTE   W06
 BYTE   N06
 BYTE   W06
 BYTE   N06
 BYTE   W06
 BYTE   N06
 BYTE   W06
 BYTE   N06
 BYTE   W06
 BYTE   N06
 BYTE   W06
 BYTE   En0
 BYTE   W06
 BYTE   N06
 BYTE   W06
 BYTE   N06
 BYTE   W06
 BYTE   N06
 BYTE   W06
 BYTE   N06
 BYTE   W06
 BYTE   N06
 BYTE   W06
 BYTE   N06
 BYTE   W06
 BYTE   N06
 BYTE   W06
// 011   ----------------------------------------
 BYTE   W96
// 012   ----------------------------------------
 BYTE   W48
 BYTE   N06
 BYTE   W06
 BYTE   N06
 BYTE   W06
 BYTE   N06
 BYTE   W06
 BYTE   N06
 BYTE   W06
 BYTE   N06
 BYTE   W06
 BYTE   N06
 BYTE   W06
 BYTE   N06
 BYTE   W06
 BYTE   N06
 BYTE   W06
 BYTE   PATT
  POIN2 Label_2_013C8608
// 013   ----------------------------------------
 BYTE   N06  En1  v088
 BYTE   W06
 BYTE   Dn1
 BYTE   W06
 BYTE   Cn1
 BYTE   W06
 BYTE   En1
 BYTE   W06
 BYTE   Dn1
 BYTE   W06
 BYTE   Cn1
 BYTE   W06
 BYTE   Gn0
 BYTE   W06
 BYTE   GoTo
  POIN2 Label_2_013C864E
 BYTE   FINE

//**************** Track 4 (Midi-Chn.3) ****************//

MOTHER3FFFireMrGreen3339_004:
// 000   ----------------------------------------
 BYTE   KEYSH   MOTHER3FFFireMrGreen3339_key+0
 BYTE   VOICE   56
 BYTE   VOL   59*MOTHER3FFFireMrGreen3339_mvl/mxv
 BYTE   W96
// 001   ----------------------------------------
 BYTE   W96
// 002   ----------------------------------------
 BYTE   W96
// 003   ----------------------------------------
 BYTE   W90
 BYTE   N06  Dn3  v088
 BYTE   W06
// 004   ----------------------------------------
Label_3_013C86D6:
 BYTE   N24  En3  v088
 BYTE   W24
 BYTE   Fs3
 BYTE   W24
 BYTE   N48  Gn3
 BYTE   W42
 BYTE   N06  Dn3
 BYTE   W06
// 005   ----------------------------------------
 BYTE   N24  Gn3
 BYTE   W24
 BYTE   An3
 BYTE   W24
 BYTE   N48  Bn3
 BYTE   W42
 BYTE   N06  Fs3
 BYTE   W06
// 006   ----------------------------------------
 BYTE   N24  Gn3
 BYTE   W24
 BYTE   An3
 BYTE   W24
 BYTE   N48  Bn3
 BYTE   W42
 BYTE   N06  Gn3
 BYTE   W06
// 007   ----------------------------------------
 BYTE   N24  Bn3
 BYTE   W24
 BYTE   Cn4
 BYTE   W24
 BYTE   N48  Dn4
 BYTE   W48
// 008   ----------------------------------------
 BYTE   N18
 BYTE   W18
 BYTE   N06  En4
 BYTE   W06
 BYTE   Dn4
 BYTE   W12
 BYTE   Cs4
 BYTE   W12
 BYTE   Bn3
 BYTE   W12
 BYTE   Gn3
 BYTE   W12
 BYTE   N24  Bn3
 BYTE   W24
// 009   ----------------------------------------
 BYTE   N18
 BYTE   W18
 BYTE   N06  Cn4
 BYTE   W06
 BYTE   Dn4
 BYTE   W12
 BYTE   Cn4
 BYTE   W12
 BYTE   N48  Bn3
 BYTE   W48
// 010   ----------------------------------------
 BYTE   N18  Dn4
 BYTE   N18  Bn4
 BYTE   W18
 BYTE   N03  En4
 BYTE   N06  Cn5
 BYTE   W06
 BYTE   N12  Dn4
 BYTE   N12  Bn4
 BYTE   W12
 BYTE   N06  Cs4
 BYTE   N06  An4
 BYTE   W12
 BYTE   Bn3
 BYTE   N06  Gn4
 BYTE   W12
 BYTE   Gn3
 BYTE   N06  En4
 BYTE   W12
 BYTE   N24  Bn3
 BYTE   N24  Gn4
 BYTE   W24
// 011   ----------------------------------------
 BYTE   N18  Bn3
 BYTE   N18  Gn4
 BYTE   W18
 BYTE   N06  Cn4
 BYTE   N06  An4
 BYTE   W06
 BYTE   Dn4
 BYTE   N06  Bn4
 BYTE   W12
 BYTE   Cn4
 BYTE   N06  An4
 BYTE   W12
 BYTE   N48  Bn3
 BYTE   N48  Gn4
 BYTE   W48
// 012   ----------------------------------------
 BYTE   N36  Cn4
 BYTE   N36  En4
 BYTE   W36
 BYTE   N12  Bn3
 BYTE   N12  Dn4
 BYTE   W12
 BYTE   An3
 BYTE   N12  Cn4
 BYTE   W12
 BYTE   Gn3
 BYTE   N12  Bn3
 BYTE   W12
 BYTE   Dn3
 BYTE   N12  An3
 BYTE   W12
 BYTE   Cn3
 BYTE   N12  Gn3
 BYTE   W12
// 013   ----------------------------------------
 BYTE   N24  Fs3
 BYTE   N24  An3
 BYTE   W24
 BYTE   Gn3
 BYTE   N24  Bn3
 BYTE   W24
 BYTE   N96  Bn2
 BYTE   N96  En3
 BYTE   W48
// 014   ----------------------------------------
 BYTE   W96
// 015   ----------------------------------------
 BYTE   W96
// 016   ----------------------------------------
 BYTE   W96
// 017   ----------------------------------------
 BYTE   W42
 BYTE   GoTo
  POIN2 Label_3_013C86D6
 BYTE   FINE

//**************** Track 5 (Midi-Chn.4) ****************//

MOTHER3FFFireMrGreen3339_005:
// 000   ----------------------------------------
 BYTE   KEYSH   MOTHER3FFFireMrGreen3339_key+0
 BYTE   VOICE   81
 BYTE   VOL   40*MOTHER3FFFireMrGreen3339_mvl/mxv
 BYTE   N12  En1  v088
 BYTE   W12
 BYTE   En2
 BYTE   W12
 BYTE   N06
 BYTE   W06
 BYTE   Dn2
 BYTE   W06
 BYTE   N12  Bn1
 BYTE   W12
 BYTE   N06  Gn2
 BYTE   W06
 BYTE   An2
 BYTE   W06
 BYTE   Gn2
 BYTE   W06
 BYTE   N12  En2
 BYTE   W12
 BYTE   N06  Dn2
 BYTE   W06
 BYTE   Bn1
 BYTE   W06
 BYTE   An1
 BYTE   W06
// 001   ----------------------------------------
Label_4_013C87AC:
 BYTE   N12  En1  v088
 BYTE   W12
 BYTE   En2
 BYTE   W12
 BYTE   N06
 BYTE   W06
 BYTE   Dn2
 BYTE   W06
 BYTE   N12  Bn1
 BYTE   W12
 BYTE   N06  Gn2
 BYTE   W06
 BYTE   An2
 BYTE   W06
 BYTE   Gn2
 BYTE   W06
 BYTE   N12  En2
 BYTE   W12
 BYTE   N06  Dn2
 BYTE   W06
 BYTE   Bn1
 BYTE   W06
 BYTE   An1
 BYTE   W06
 BYTE   PEND 
 BYTE   PATT
  POIN2 Label_4_013C87AC
 BYTE   PATT
  POIN2 Label_4_013C87AC
// 002   ----------------------------------------
Label_4_013C87D5:
 BYTE   PATT
  POIN2 Label_4_013C87AC
 BYTE   PATT
  POIN2 Label_4_013C87AC
// 003   ----------------------------------------
Label_4_013C87DF:
 BYTE   N12  Gn1  v088
 BYTE   W12
 BYTE   Gn2
 BYTE   W12
 BYTE   N06
 BYTE   W06
 BYTE   Fn2
 BYTE   W06
 BYTE   N12  Dn2
 BYTE   W12
 BYTE   N06  Bn2
 BYTE   W06
 BYTE   Cn3
 BYTE   W06
 BYTE   Bn2
 BYTE   W06
 BYTE   N12  Gn2
 BYTE   W12
 BYTE   N06  En2
 BYTE   W06
 BYTE   Dn2
 BYTE   W06
 BYTE   An1
 BYTE   W06
 BYTE   PEND 
 BYTE   PATT
  POIN2 Label_4_013C87DF
// 004   ----------------------------------------
 BYTE   W96
// 005   ----------------------------------------
 BYTE   W96
// 006   ----------------------------------------
 BYTE   W96
// 007   ----------------------------------------
 BYTE   W96
// 008   ----------------------------------------
 BYTE   W96
// 009   ----------------------------------------
 BYTE   W48
 BYTE   N12  En1  v088
 BYTE   W12
 BYTE   En2
 BYTE   W12
 BYTE   N06
 BYTE   W06
 BYTE   Dn2
 BYTE   W06
 BYTE   N12  Bn1
 BYTE   W12
// 010   ----------------------------------------
Label_4_013C8816:
 BYTE   N06  Gn2  v088
 BYTE   W06
 BYTE   An2
 BYTE   W06
 BYTE   Gn2
 BYTE   W06
 BYTE   N12  En2
 BYTE   W12
 BYTE   N06  Dn2
 BYTE   W06
 BYTE   Bn1
 BYTE   W06
 BYTE   An1
 BYTE   W06
 BYTE   N12  En1
 BYTE   W12
 BYTE   En2
 BYTE   W12
 BYTE   N06
 BYTE   W06
 BYTE   Dn2
 BYTE   W06
 BYTE   N12  Bn1
 BYTE   W12
 BYTE   PEND 
 BYTE   PATT
  POIN2 Label_4_013C8816
 BYTE   PATT
  POIN2 Label_4_013C8816
// 011   ----------------------------------------
 BYTE   N06  Gn2  v088
 BYTE   W06
 BYTE   An2
 BYTE   W06
 BYTE   Gn2
 BYTE   W06
 BYTE   N12  En2
 BYTE   W12
 BYTE   N06  Dn2
 BYTE   W06
 BYTE   Bn1
 BYTE   W06
 BYTE   GoTo
  POIN2 Label_4_013C87D5
 BYTE   FINE

//**************** Track 6 (Midi-Chn.5) ****************//

MOTHER3FFFireMrGreen3339_006:
// 000   ----------------------------------------
 BYTE   KEYSH   MOTHER3FFFireMrGreen3339_key+0
 BYTE   VOICE   56
 BYTE   VOL   32*MOTHER3FFFireMrGreen3339_mvl/mxv
 BYTE   W96
// 001   ----------------------------------------
 BYTE   W96
// 002   ----------------------------------------
 BYTE   W96
// 003   ----------------------------------------
 BYTE   W90
 BYTE   N06  Dn3  v088
 BYTE   W06
// 004   ----------------------------------------
Label_5_013C8866:
 BYTE   N24  En3  v088
 BYTE   W24
 BYTE   Fs3
 BYTE   W24
 BYTE   N48  Gn3
 BYTE   W42
 BYTE   N06  Dn3
 BYTE   W06
// 005   ----------------------------------------
 BYTE   N24  Gn3
 BYTE   W24
 BYTE   An3
 BYTE   W24
 BYTE   N48  Bn3
 BYTE   W42
 BYTE   N06  Fs3
 BYTE   W06
// 006   ----------------------------------------
 BYTE   N24  Gn3
 BYTE   W24
 BYTE   An3
 BYTE   W24
 BYTE   N48  Bn3
 BYTE   W42
 BYTE   N06  Gn3
 BYTE   W06
// 007   ----------------------------------------
 BYTE   N24  Bn3
 BYTE   W24
 BYTE   Cn4
 BYTE   W24
 BYTE   N48  Dn4
 BYTE   W48
// 008   ----------------------------------------
 BYTE   N18
 BYTE   W18
 BYTE   N06  En4
 BYTE   W06
 BYTE   Dn4
 BYTE   W12
 BYTE   Cs4
 BYTE   W12
 BYTE   Bn3
 BYTE   W12
 BYTE   Gn3
 BYTE   W12
 BYTE   N24  Bn3
 BYTE   W24
// 009   ----------------------------------------
 BYTE   N18
 BYTE   W18
 BYTE   N06  Cn4
 BYTE   W06
 BYTE   Dn4
 BYTE   W12
 BYTE   Cn4
 BYTE   W12
 BYTE   N48  Bn3
 BYTE   W48
// 010   ----------------------------------------
 BYTE   N18  Dn4
 BYTE   N18  Bn4
 BYTE   W18
 BYTE   N03  En4
 BYTE   N06  Cn5
 BYTE   W06
 BYTE   N12  Dn4
 BYTE   N12  Bn4
 BYTE   W12
 BYTE   N06  Cs4
 BYTE   N06  An4
 BYTE   W12
 BYTE   Bn3
 BYTE   N06  Gn4
 BYTE   W12
 BYTE   Gn3
 BYTE   N06  En4
 BYTE   W12
 BYTE   N24  Bn3
 BYTE   N24  Gn4
 BYTE   W24
// 011   ----------------------------------------
 BYTE   N18  Bn3
 BYTE   N18  Gn4
 BYTE   W18
 BYTE   N06  Cn4
 BYTE   N06  An4
 BYTE   W06
 BYTE   Dn4
 BYTE   N06  Bn4
 BYTE   W12
 BYTE   Cn4
 BYTE   N06  An4
 BYTE   W12
 BYTE   N48  Bn3
 BYTE   N48  Gn4
 BYTE   W48
// 012   ----------------------------------------
 BYTE   N36  Cn4
 BYTE   N36  En4
 BYTE   W36
 BYTE   N12  Bn3
 BYTE   N12  Dn4
 BYTE   W12
 BYTE   An3
 BYTE   N12  Cn4
 BYTE   W12
 BYTE   Gn3
 BYTE   N12  Bn3
 BYTE   W12
 BYTE   Dn3
 BYTE   N12  An3
 BYTE   W12
 BYTE   Cn3
 BYTE   N12  Gn3
 BYTE   W12
// 013   ----------------------------------------
 BYTE   N24  Fs3
 BYTE   N24  An3
 BYTE   W24
 BYTE   Gn3
 BYTE   N24  Bn3
 BYTE   W24
 BYTE   N96  Bn2
 BYTE   N96  En3
 BYTE   W48
// 014   ----------------------------------------
 BYTE   W96
// 015   ----------------------------------------
 BYTE   W96
// 016   ----------------------------------------
 BYTE   W96
// 017   ----------------------------------------
 BYTE   W42
 BYTE   GoTo
  POIN2 Label_5_013C8866
 BYTE   FINE

//**************** Track 7 (Midi-Chn.6) ****************//

MOTHER3FFFireMrGreen3339_007:
// 000   ----------------------------------------
 BYTE   VOL   65*MOTHER3FFFireMrGreen3339_mvl/mxv
 BYTE   KEYSH   MOTHER3FFFireMrGreen3339_key+0
 BYTE   VOICE   127
 BYTE   W96
// 001   ----------------------------------------
 BYTE   N24  Fs1  v088
 BYTE   W24
 BYTE   N24
 BYTE   W24
 BYTE   N06  Bn0
 BYTE   N12  Dn1
 BYTE   N24  Fs1
 BYTE   W06
 BYTE   N06  Bn0
 BYTE   W06
 BYTE   N03
 BYTE   W03
 BYTE   N03
 BYTE   W03
 BYTE   N06
 BYTE   N12  Dn1
 BYTE   W06
 BYTE   N06  Bn0
 BYTE   N24  Fs1
 BYTE   W06
 BYTE   N03  Bn0
 BYTE   W03
 BYTE   N03
 BYTE   W03
 BYTE   N06
 BYTE   N12  Dn1
 BYTE   W06
 BYTE   N06  Bn0
 BYTE   W06
// 002   ----------------------------------------
Label_6_013C8948:
 BYTE   N06  Bn0  v088
 BYTE   N12  Fs1
 BYTE   N24  Cs2
 BYTE   W06
 BYTE   N06  Bn0
 BYTE   W06
 BYTE   N12  Dn1
 BYTE   N12  Fs1
 BYTE   W12
 BYTE   N06  Bn0
 BYTE   N12  Fs1
 BYTE   W06
 BYTE   N06  Bn0
 BYTE   W06
 BYTE   N12  Dn1
 BYTE   N12  Fs1
 BYTE   W12
 BYTE   N06  Bn0
 BYTE   N12  Fs1
 BYTE   W06
 BYTE   N06  Bn0
 BYTE   W06
 BYTE   N06
 BYTE   N12  Dn1
 BYTE   N12  Fs1
 BYTE   W06
 BYTE   N06  Bn0
 BYTE   W06
 BYTE   N12  Fs1
 BYTE   W06
 BYTE   N06  Bn0
 BYTE   W06
 BYTE   N06
 BYTE   N12  Dn1
 BYTE   N12  Fs1
 BYTE   W12
 BYTE   PEND 
// 003   ----------------------------------------
Label_6_013C8983:
 BYTE   N06  Bn0  v088
 BYTE   N12  Fs1
 BYTE   W06
 BYTE   N06  Bn0
 BYTE   W06
 BYTE   N12  Dn1
 BYTE   N12  Fs1
 BYTE   W12
 BYTE   N06  Bn0
 BYTE   N12  Fs1
 BYTE   W06
 BYTE   N06  Bn0
 BYTE   W06
 BYTE   N12  Dn1
 BYTE   N12  Fs1
 BYTE   W12
 BYTE   N06  Bn0
 BYTE   N12  Fs1
 BYTE   W06
 BYTE   N06  Bn0
 BYTE   W06
 BYTE   N06
 BYTE   N12  Dn1
 BYTE   N12  Fs1
 BYTE   W06
 BYTE   N06  Bn0
 BYTE   W06
 BYTE   N12  Fs1
 BYTE   W06
 BYTE   N06  Bn0
 BYTE   W06
 BYTE   N06
 BYTE   N12  Dn1
 BYTE   N12  Fs1
 BYTE   W12
 BYTE   PEND 
// 004   ----------------------------------------
Label_6_013C89BC:
 BYTE   PATT
  POIN2 Label_6_013C8948
 BYTE   PATT
  POIN2 Label_6_013C8983
 BYTE   PATT
  POIN2 Label_6_013C8948
 BYTE   PATT
  POIN2 Label_6_013C8983
 BYTE   PATT
  POIN2 Label_6_013C8948
// 005   ----------------------------------------
Label_6_013C89D5:
 BYTE   N06  Bn0  v088
 BYTE   N12  Fs1
 BYTE   W06
 BYTE   N06  Bn0
 BYTE   W06
 BYTE   N06
 BYTE   N12  Dn1
 BYTE   N12  Fs1
 BYTE   W06
 BYTE   N06  Bn0
 BYTE   W06
 BYTE   N06
 BYTE   N12  Fs1
 BYTE   W06
 BYTE   N06  Bn0
 BYTE   W06
 BYTE   N06
 BYTE   N12  Dn1
 BYTE   N12  Fs1
 BYTE   W06
 BYTE   N06  Bn0
 BYTE   W06
 BYTE   N06
 BYTE   N12  Fs1
 BYTE   W06
 BYTE   N06  Bn0
 BYTE   W06
 BYTE   N06
 BYTE   N12  Dn1
 BYTE   N12  Fs1
 BYTE   W06
 BYTE   N06  Bn0
 BYTE   W06
 BYTE   N06
 BYTE   N12  Fs1
 BYTE   W06
 BYTE   N06  Bn0
 BYTE   W06
 BYTE   N06
 BYTE   N12  Dn1
 BYTE   N12  Fs1
 BYTE   W06
 BYTE   N06  Bn0
 BYTE   W06
 BYTE   PEND 
// 006   ----------------------------------------
 BYTE   N06
 BYTE   N12  Fs1
 BYTE   N24  Cs2
 BYTE   W06
 BYTE   N06  Bn0
 BYTE   W06
 BYTE   N06
 BYTE   N12  Dn1
 BYTE   N12  Fs1
 BYTE   W06
 BYTE   N06  Bn0
 BYTE   W06
 BYTE   N06
 BYTE   N12  Fs1
 BYTE   W06
 BYTE   N06  Bn0
 BYTE   W06
 BYTE   N06
 BYTE   N12  Dn1
 BYTE   N12  Fs1
 BYTE   W06
 BYTE   N06  Bn0
 BYTE   W06
 BYTE   N06
 BYTE   N12  Fs1
 BYTE   W06
 BYTE   N06  Bn0
 BYTE   W06
 BYTE   N06
 BYTE   N12  Dn1
 BYTE   N12  Fs1
 BYTE   W06
 BYTE   N06  Bn0
 BYTE   W06
 BYTE   N06
 BYTE   N12  Fs1
 BYTE   W06
 BYTE   N06  Bn0
 BYTE   W06
 BYTE   N06
 BYTE   N12  Dn1
 BYTE   N12  Fs1
 BYTE   W06
 BYTE   N06  Bn0
 BYTE   W06
// 007   ----------------------------------------
 BYTE   N06
 BYTE   N12  Fs1
 BYTE   W06
 BYTE   N06  Bn0
 BYTE   W06
 BYTE   N06
 BYTE   N12  Dn1
 BYTE   N12  Fs1
 BYTE   W06
 BYTE   N06  Bn0
 BYTE   W06
 BYTE   N06
 BYTE   N12  Fs1
 BYTE   W06
 BYTE   N06  Bn0
 BYTE   W06
 BYTE   N06
 BYTE   N12  Dn1
 BYTE   N12  Fs1
 BYTE   W06
 BYTE   N06  Bn0
 BYTE   W06
 BYTE   N06
 BYTE   N12  Dn1
 BYTE   N12  Fs1
 BYTE   W06
 BYTE   N06  Bn0
 BYTE   W06
 BYTE   N06
 BYTE   N12  Dn1
 BYTE   N12  Fs1
 BYTE   W06
 BYTE   N06  Bn0
 BYTE   W06
 BYTE   N06
 BYTE   N12  Dn1
 BYTE   N12  Fs1
 BYTE   W06
 BYTE   N06  Bn0
 BYTE   W06
 BYTE   N06
 BYTE   N12  Dn1
 BYTE   N12  Fs1
 BYTE   W06
 BYTE   N06  Bn0
 BYTE   W06
 BYTE   PATT
  POIN2 Label_6_013C89D5
// 008   ----------------------------------------
 BYTE   N06  Bn0  v088
 BYTE   N12  Fs1
 BYTE   W06
 BYTE   N06  Bn0
 BYTE   W06
 BYTE   N06
 BYTE   N12  Dn1
 BYTE   N12  Fs1
 BYTE   W06
 BYTE   N06  Bn0
 BYTE   W06
 BYTE   N06
 BYTE   N12  Fs1
 BYTE   W06
 BYTE   N06  Bn0
 BYTE   W06
 BYTE   N06
 BYTE   N12  Dn1
 BYTE   N12  Fs1
 BYTE   W06
 BYTE   N06  Bn0
 BYTE   W06
 BYTE   N24  Cs2
 BYTE   W48
// 009   ----------------------------------------
 BYTE   W48
 BYTE   Fs1
 BYTE   W24
 BYTE   N24
 BYTE   W24
// 010   ----------------------------------------
 BYTE   N06  Bn0
 BYTE   N12  Dn1
 BYTE   N24  Fs1
 BYTE   W06
 BYTE   N06  Bn0
 BYTE   W06
 BYTE   N03
 BYTE   W03
 BYTE   N03
 BYTE   W03
 BYTE   N06
 BYTE   N12  Dn1
 BYTE   W06
 BYTE   N06  Bn0
 BYTE   N24  Fs1
 BYTE   W06
 BYTE   N03  Bn0
 BYTE   W03
 BYTE   N03
 BYTE   W03
 BYTE   N06
 BYTE   N12  Dn1
 BYTE   W06
 BYTE   N06  Bn0
 BYTE   W06
 BYTE   N06
 BYTE   N12  Fs1
 BYTE   N24  Cs2
 BYTE   W06
 BYTE   N06  Bn0
 BYTE   W06
 BYTE   N12  Dn1
 BYTE   N12  Fs1
 BYTE   W12
 BYTE   N06  Bn0
 BYTE   N12  Fs1
 BYTE   W06
 BYTE   N06  Bn0
 BYTE   W06
 BYTE   N12  Dn1
 BYTE   N12  Fs1
 BYTE   W12
// 011   ----------------------------------------
 BYTE   N06  Bn0
 BYTE   N12  Fs1
 BYTE   W06
 BYTE   N06  Bn0
 BYTE   W06
 BYTE   N06
 BYTE   N12  Dn1
 BYTE   N12  Fs1
 BYTE   W06
 BYTE   N06  Bn0
 BYTE   W06
 BYTE   N12  Fs1
 BYTE   W06
 BYTE   N06  Bn0
 BYTE   W06
 BYTE   N06
 BYTE   N12  Dn1
 BYTE   N12  Fs1
 BYTE   W12
 BYTE   N06  Bn0
 BYTE   N12  Fs1
 BYTE   W06
 BYTE   N06  Bn0
 BYTE   W06
 BYTE   N12  Dn1
 BYTE   N12  Fs1
 BYTE   W12
 BYTE   N06  Bn0
 BYTE   N12  Fs1
 BYTE   W06
 BYTE   N06  Bn0
 BYTE   W06
 BYTE   N12  Dn1
 BYTE   N12  Fs1
 BYTE   W12
// 012   ----------------------------------------
 BYTE   N06  Bn0
 BYTE   N12  Fs1
 BYTE   W06
 BYTE   N06  Bn0
 BYTE   W06
 BYTE   N06
 BYTE   N12  Dn1
 BYTE   N12  Fs1
 BYTE   W06
 BYTE   N06  Bn0
 BYTE   W06
 BYTE   N12  Fs1
 BYTE   W06
 BYTE   N06  Bn0
 BYTE   W06
 BYTE   N06
 BYTE   N06  Dn1
 BYTE   N06  Fs1
 BYTE   W06
 BYTE   GoTo
  POIN2 Label_6_013C89BC
 BYTE   FINE

//******************************************************//
	ALIGN 4

MOTHER3FFFireMrGreen3339:
	BYTE	7	// NumTrks
	BYTE	0	// NumBlks
	BYTE	MOTHER3FFFireMrGreen3339_pri	// Priority
	BYTE	MOTHER3FFFireMrGreen3339_rev	// Reverb.
    
	POIN2	MOTHER3FFFireMrGreen3339_grp
    
	POIN2	MOTHER3FFFireMrGreen3339_001
	POIN2	MOTHER3FFFireMrGreen3339_002
	POIN2	MOTHER3FFFireMrGreen3339_003
	POIN2	MOTHER3FFFireMrGreen3339_004
	POIN2	MOTHER3FFFireMrGreen3339_005
	POIN2	MOTHER3FFFireMrGreen3339_006
	POIN2	MOTHER3FFFireMrGreen3339_007

	
