//Event file generated from Sappy .s format.
	#include "MPlayDef.event"

	#define	MOTHER3ItsOverMrGreen3339_grp  voicegroup000
	#define	MOTHER3ItsOverMrGreen3339_pri  0
	#define	MOTHER3ItsOverMrGreen3339_rev  0
	#define	MOTHER3ItsOverMrGreen3339_mvl  127
	#define	MOTHER3ItsOverMrGreen3339_key  0
	#define	MOTHER3ItsOverMrGreen3339_tbs  1
	#define	MOTHER3ItsOverMrGreen3339_exg  0
	#define	MOTHER3ItsOverMrGreen3339_cmp  1

	// .rodata
	//	MOTHER3ItsOverMrGreen3339
	ALIGN 4


//**************** Track 1 (Midi-Chn.0) ****************//

MOTHER3ItsOverMrGreen3339_001:
// 000   ----------------------------------------
 BYTE   KEYSH   MOTHER3ItsOverMrGreen3339_key+0
 BYTE   TEMPO   66*MOTHER3ItsOverMrGreen3339_tbs/2
 BYTE   VOICE   79
 BYTE   VOL   35*MOTHER3ItsOverMrGreen3339_mvl/mxv
 BYTE   PAN   c_v+8
 BYTE   N88  Dn3  v127
 BYTE   W24
 BYTE   N72  Gn3
 BYTE   W24
 BYTE   N48  An3
 BYTE   W24
 BYTE   N24  Bn3
 BYTE   W24
// 001   ----------------------------------------
 BYTE   N84  Dn3  v124
 BYTE   W96
// 002   ----------------------------------------
 BYTE   N23  Bn2  v127
 BYTE   W24
 BYTE   N24  En3
 BYTE   W24
 BYTE   N23  Fs3
 BYTE   W24
 BYTE   Gn3  v124
 BYTE   W24
// 003   ----------------------------------------
 BYTE   N72  An3  v127
 BYTE   W96
// 004   ----------------------------------------
 BYTE   N21
 BYTE   W24
 BYTE   N23  An3  v124
 BYTE   W24
 BYTE   Bn3  v127
 BYTE   W24
 BYTE   An3
 BYTE   W24
// 005   ----------------------------------------
 BYTE   N21  Dn4
 BYTE   W24
 BYTE   N23  Bn3  v124
 BYTE   W24
 BYTE   N36  Gn3
 BYTE   W48
// 006   ----------------------------------------
 BYTE   N44  En3  v127
 BYTE   W48
 BYTE   N28  An3
 BYTE   W36
 BYTE   N11  Gn3  v124
 BYTE   W12
// 007   ----------------------------------------
 BYTE   N88
 BYTE   W96
// 008   ----------------------------------------
 BYTE   N44  Gn3  v127
 BYTE   W48
 BYTE   En4
 BYTE   W48
// 009   ----------------------------------------
 BYTE   N92  Dn4
 BYTE   W84
 BYTE   VOL   35*MOTHER3ItsOverMrGreen3339_mvl/mxv
 BYTE   W06
 BYTE   As0
 BYTE   W06
// 010   ----------------------------------------
 BYTE   As0
 BYTE   N44  En3
 BYTE   W06
 BYTE   VOL   34*MOTHER3ItsOverMrGreen3339_mvl/mxv
 BYTE   W06
 BYTE   An0
 BYTE   W06
 BYTE   An0
 BYTE   W06
 BYTE   Gs0
 BYTE   W06
 BYTE   Gs0
 BYTE   W06
 BYTE   Gs0
 BYTE   W06
 BYTE   Gn0
 BYTE   W06
 BYTE   Gn0
 BYTE   N44  Cn4
 BYTE   W06
 BYTE   VOL   30*MOTHER3ItsOverMrGreen3339_mvl/mxv
 BYTE   W06
 BYTE   Fs0
 BYTE   W06
 BYTE   Fs0
 BYTE   W06
 BYTE   Fn0
 BYTE   W06
 BYTE   Fn0
 BYTE   W06
 BYTE   En0
 BYTE   W06
 BYTE   En0
 BYTE   W06
// 011   ----------------------------------------
 BYTE   En0
 BYTE   N92  Bn3
 BYTE   W06
 BYTE   VOL   27*MOTHER3ItsOverMrGreen3339_mvl/mxv
 BYTE   W06
 BYTE   Dn0
 BYTE   W06
 BYTE   Dn0
 BYTE   W06
 BYTE   Dn0
 BYTE   W06
 BYTE   Cs0
 BYTE   W06
 BYTE   Cs0
 BYTE   W06
 BYTE   Cn0
 BYTE   W06
 BYTE   Cn0
 BYTE   W06
 BYTE   BnM1
 BYTE   W06
 BYTE   BnM1
 BYTE   W06
 BYTE   AsM1
 BYTE   W06
 BYTE   AnM1
 BYTE   W06
 BYTE   AnM1
 BYTE   W06
 BYTE   GsM1
 BYTE   W06
 BYTE   GnM1
 BYTE   W06
// 012   ----------------------------------------
 BYTE   FsM1
 BYTE   N44  An3
 BYTE   W06
 BYTE   VOL   18*MOTHER3ItsOverMrGreen3339_mvl/mxv
 BYTE   W06
 BYTE   FnM1
 BYTE   W06
 BYTE   EnM1
 BYTE   W06
 BYTE   DsM1
 BYTE   W06
 BYTE   DnM1
 BYTE   W06
 BYTE   DnM1
 BYTE   W06
 BYTE   CsM1
 BYTE   W06
 BYTE   CnM1
 BYTE   N32  Bn3
 BYTE   W06
 BYTE   VOL   11*MOTHER3ItsOverMrGreen3339_mvl/mxv
 BYTE   W06
 BYTE   AnM2
 BYTE   W06
 BYTE   AnM2
 BYTE   W06
 BYTE   GnM2
 BYTE   W06
 BYTE   FnM2
 BYTE   W06
 BYTE   CnM2
 BYTE   N11  An3
 BYTE   W06
 BYTE   VOL   0*MOTHER3ItsOverMrGreen3339_mvl/mxv
 BYTE   W06
// 013   ----------------------------------------
 BYTE   W96
// 014   ----------------------------------------
 BYTE   W96
// 015   ----------------------------------------
 BYTE   W96
// 016   ----------------------------------------
 BYTE   W96
// 017   ----------------------------------------
 BYTE   VOICE   78
 BYTE   N92  Gn3  v124
 BYTE   W48
 BYTE   VOL   0*MOTHER3ItsOverMrGreen3339_mvl/mxv
 BYTE   W06
 BYTE   FnM2
 BYTE   W06
 BYTE   GnM2
 BYTE   W06
 BYTE   AnM2
 BYTE   W06
 BYTE   AnM2
 BYTE   W06
 BYTE   BnM2
 BYTE   W06
 BYTE   CnM1
 BYTE   W06
 BYTE   CsM1
 BYTE   W06
// 018   ----------------------------------------
 BYTE   DnM1
 BYTE   N23  En3  v127
 BYTE   W06
 BYTE   VOL   14*MOTHER3ItsOverMrGreen3339_mvl/mxv
 BYTE   W06
 BYTE   DsM1
 BYTE   W06
 BYTE   EnM1
 BYTE   W06
 BYTE   FnM1
 BYTE   N23  An3
 BYTE   W06
 BYTE   VOL   18*MOTHER3ItsOverMrGreen3339_mvl/mxv
 BYTE   W06
 BYTE   FsM1
 BYTE   W06
 BYTE   GnM1
 BYTE   W06
 BYTE   GsM1
 BYTE   N23  Bn3
 BYTE   W06
 BYTE   VOL   21*MOTHER3ItsOverMrGreen3339_mvl/mxv
 BYTE   W06
 BYTE   AnM1
 BYTE   W06
 BYTE   AsM1
 BYTE   W06
 BYTE   BnM1
 BYTE   N23  Cn4  v124
 BYTE   W06
 BYTE   VOL   23*MOTHER3ItsOverMrGreen3339_mvl/mxv
 BYTE   W06
 BYTE   Cn0
 BYTE   W06
 BYTE   Cn0
 BYTE   W06
// 019   ----------------------------------------
 BYTE   Cs0
 BYTE   N92  Dn4  v127
 BYTE   W06
 BYTE   VOL   25*MOTHER3ItsOverMrGreen3339_mvl/mxv
 BYTE   W06
 BYTE   Dn0
 BYTE   W06
 BYTE   Dn0
 BYTE   W06
 BYTE   Dn0
 BYTE   W06
 BYTE   Ds0
 BYTE   W06
 BYTE   En0
 BYTE   W06
 BYTE   En0
 BYTE   W06
 BYTE   En0
 BYTE   W06
 BYTE   Fn0
 BYTE   W06
 BYTE   Fn0
 BYTE   W06
 BYTE   Fs0
 BYTE   W06
 BYTE   Fs0
 BYTE   W06
 BYTE   Fs0
 BYTE   W06
 BYTE   Gn0
 BYTE   W06
 BYTE   Gn0
 BYTE   W06
// 020   ----------------------------------------
 BYTE   Gs0
 BYTE   N23
 BYTE   W06
 BYTE   VOL   32*MOTHER3ItsOverMrGreen3339_mvl/mxv
 BYTE   W06
 BYTE   Gs0
 BYTE   W06
 BYTE   An0
 BYTE   W06
 BYTE   An0
 BYTE   N23  Dn4  v124
 BYTE   W06
 BYTE   VOL   34*MOTHER3ItsOverMrGreen3339_mvl/mxv
 BYTE   W06
 BYTE   As0
 BYTE   W06
 BYTE   As0
 BYTE   W06
 BYTE   Bn0
 BYTE   N23  En4  v127
 BYTE   W06
 BYTE   VOL   35*MOTHER3ItsOverMrGreen3339_mvl/mxv
 BYTE   W18
 BYTE   N23  Dn4
 BYTE   W24
// 021   ----------------------------------------
 BYTE   Gn4
 BYTE   W24
 BYTE   En4  v124
 BYTE   W24
 BYTE   N44  Cn4
 BYTE   W48
// 022   ----------------------------------------
 BYTE   An3  v127
 BYTE   W48
 BYTE   N32  Dn4
 BYTE   W36
 BYTE   N11  En4  v124
 BYTE   W12
// 023   ----------------------------------------
 BYTE   N92  Dn4
 BYTE   W96
// 024   ----------------------------------------
 BYTE   N88  Gn3  v127
 BYTE   W24
 BYTE   N72  Cn4
 BYTE   W24
 BYTE   N48  Dn4
 BYTE   W24
 BYTE   N24  En4
 BYTE   W24
// 025   ----------------------------------------
 BYTE   N92  Gn3  v124
 BYTE   W96
// 026   ----------------------------------------
 BYTE   N23  En3  v127
 BYTE   W24
 BYTE   An3
 BYTE   W24
 BYTE   Bn3
 BYTE   W24
 BYTE   Cn4  v124
 BYTE   W18
 BYTE   VOL   35*MOTHER3ItsOverMrGreen3339_mvl/mxv
 BYTE   W06
// 027   ----------------------------------------
 BYTE   As0
 BYTE   N92  Dn4  v127
 BYTE   W06
 BYTE   VOL   34*MOTHER3ItsOverMrGreen3339_mvl/mxv
 BYTE   W06
 BYTE   As0
 BYTE   W06
 BYTE   An0
 BYTE   W06
 BYTE   An0
 BYTE   W06
 BYTE   Gs0
 BYTE   W06
 BYTE   Gs0
 BYTE   W06
 BYTE   Gs0
 BYTE   W06
 BYTE   Gn0
 BYTE   W06
 BYTE   Gn0
 BYTE   W06
 BYTE   Fs0
 BYTE   W06
 BYTE   Fs0
 BYTE   W06
 BYTE   Fs0
 BYTE   W06
 BYTE   Fn0
 BYTE   W06
 BYTE   Fn0
 BYTE   W06
 BYTE   En0
 BYTE   W06
// 028   ----------------------------------------
 BYTE   En0
 BYTE   N23
 BYTE   W06
 BYTE   VOL   28*MOTHER3ItsOverMrGreen3339_mvl/mxv
 BYTE   W06
 BYTE   Ds0
 BYTE   W06
 BYTE   Dn0
 BYTE   W06
 BYTE   Dn0
 BYTE   N23  Dn4  v124
 BYTE   W06
 BYTE   VOL   26*MOTHER3ItsOverMrGreen3339_mvl/mxv
 BYTE   W06
 BYTE   Cs0
 BYTE   W06
 BYTE   Cs0
 BYTE   W06
 BYTE   Cn0
 BYTE   N23  En4  v127
 BYTE   W06
 BYTE   VOL   24*MOTHER3ItsOverMrGreen3339_mvl/mxv
 BYTE   W06
 BYTE   BnM1
 BYTE   W06
 BYTE   BnM1
 BYTE   W06
 BYTE   AsM1
 BYTE   N23  Dn4
 BYTE   W06
 BYTE   VOL   21*MOTHER3ItsOverMrGreen3339_mvl/mxv
 BYTE   W06
 BYTE   AnM1
 BYTE   W06
 BYTE   GsM1
 BYTE   W06
// 029   ----------------------------------------
 BYTE   GnM1
 BYTE   N23  Gn4
 BYTE   W06
 BYTE   VOL   18*MOTHER3ItsOverMrGreen3339_mvl/mxv
 BYTE   W06
 BYTE   FsM1
 BYTE   W06
 BYTE   FnM1
 BYTE   W06
 BYTE   EnM1
 BYTE   N23  En4  v124
 BYTE   W06
 BYTE   VOL   15*MOTHER3ItsOverMrGreen3339_mvl/mxv
 BYTE   W06
 BYTE   DnM1
 BYTE   W06
 BYTE   DnM1
 BYTE   W06
 BYTE   CsM1
 BYTE   N44  Cn4
 BYTE   W06
 BYTE   VOL   12*MOTHER3ItsOverMrGreen3339_mvl/mxv
 BYTE   W06
 BYTE   BnM2
 BYTE   W06
 BYTE   AnM2
 BYTE   W06
 BYTE   AnM2
 BYTE   W06
 BYTE   GnM2
 BYTE   W06
 BYTE   FnM2
 BYTE   W06
 BYTE   CnM2
 BYTE   W06
// 030   ----------------------------------------
 BYTE   CnM2
 BYTE   N44  An3  v127
 BYTE   W48
 BYTE   N32  Dn4
 BYTE   W36
 BYTE   N11  Cn4  v124
 BYTE   W12
// 031   ----------------------------------------
 BYTE   N92
 BYTE   W96
// 032   ----------------------------------------
Label_0_010FE829:
 BYTE   W96
// 033   ----------------------------------------
 BYTE   W96
// 034   ----------------------------------------
 BYTE   W96
// 035   ----------------------------------------
 BYTE   W96
// 036   ----------------------------------------
 BYTE   W96
// 037   ----------------------------------------
 BYTE   W96
// 038   ----------------------------------------
 BYTE   W96
// 039   ----------------------------------------
 BYTE   W96
// 040   ----------------------------------------
 BYTE   W96
// 041   ----------------------------------------
 BYTE   W96
// 042   ----------------------------------------
 BYTE   W96
// 043   ----------------------------------------
 BYTE   W96
// 044   ----------------------------------------
 BYTE   W96
// 045   ----------------------------------------
 BYTE   W96
// 046   ----------------------------------------
 BYTE   W96
// 047   ----------------------------------------
 BYTE   W96
// 048   ----------------------------------------
 BYTE   W96
// 049   ----------------------------------------
 BYTE   W96
// 050   ----------------------------------------
 BYTE   W96
// 051   ----------------------------------------
 BYTE   W96
// 052   ----------------------------------------
 BYTE   W96
// 053   ----------------------------------------
 BYTE   W96
// 054   ----------------------------------------
 BYTE   W96
// 055   ----------------------------------------
 BYTE   W96
// 056   ----------------------------------------
 BYTE   GoTo
  POIN2 Label_0_010FE829
 BYTE   FINE

//**************** Track 2 (Midi-Chn.1) ****************//

MOTHER3ItsOverMrGreen3339_002:
// 000   ----------------------------------------
 BYTE   KEYSH   MOTHER3ItsOverMrGreen3339_key+0
 BYTE   VOICE   79
 BYTE   VOL   29*MOTHER3ItsOverMrGreen3339_mvl/mxv
 BYTE   PAN   c_v-20
 BYTE   N92  Gn1  v127
 BYTE   W12
 BYTE   N80  Dn2
 BYTE   W12
 BYTE   N68  Bn2
 BYTE   W72
// 001   ----------------------------------------
 BYTE   N92  Bn1
 BYTE   W12
 BYTE   N80  Fs2
 BYTE   W12
 BYTE   N68  An2
 BYTE   W12
 BYTE   N56  Dn3
 BYTE   W60
// 002   ----------------------------------------
 BYTE   N92  En1
 BYTE   W12
 BYTE   N80  Bn1
 BYTE   W12
 BYTE   N68  Gn2
 BYTE   W72
// 003   ----------------------------------------
 BYTE   N92  An1
 BYTE   W12
 BYTE   N80  En2
 BYTE   W12
 BYTE   N68  Gn2
 BYTE   W12
 BYTE   N56  Cn3
 BYTE   W60
// 004   ----------------------------------------
 BYTE   N44  Dn2
 BYTE   W12
 BYTE   N32  Fs2
 BYTE   W12
 BYTE   N22  An2
 BYTE   W24
 BYTE   N44  Cn2
 BYTE   W12
 BYTE   N32  Fs2
 BYTE   W12
 BYTE   N22  An2
 BYTE   W24
// 005   ----------------------------------------
 BYTE   N44  Bn1
 BYTE   W12
 BYTE   N32  Dn2
 BYTE   W12
 BYTE   N22  Gn2
 BYTE   W24
 BYTE   N44  As1
 BYTE   W12
 BYTE   N32  Cs2
 BYTE   W12
 BYTE   N22  Gn2
 BYTE   W24
// 006   ----------------------------------------
 BYTE   N44  An1
 BYTE   W12
 BYTE   N32  En2
 BYTE   W12
 BYTE   N22  Gn2
 BYTE   W24
 BYTE   N44  Dn1
 BYTE   W12
 BYTE   N32  Cn2
 BYTE   W12
 BYTE   N22  Fs2
 BYTE   W24
// 007   ----------------------------------------
 BYTE   N92  Gn1
 BYTE   N92  Dn2
 BYTE   N44  Cn3
 BYTE   W48
 BYTE   Bn2
 BYTE   W48
// 008   ----------------------------------------
 BYTE   N92  Cn2
 BYTE   W12
 BYTE   N80  Gn2
 BYTE   W12
 BYTE   N68  Dn3
 BYTE   W12
 BYTE   N56  En3
 BYTE   W60
// 009   ----------------------------------------
 BYTE   N92  Gn1
 BYTE   W12
 BYTE   N80  Fs2
 BYTE   W12
 BYTE   N68  Bn2
 BYTE   W12
 BYTE   N56  Dn3
 BYTE   W60
// 010   ----------------------------------------
 BYTE   N44  An1
 BYTE   W12
 BYTE   N32  En2
 BYTE   W12
 BYTE   N23  Bn2
 BYTE   W12
 BYTE   N11  Cn3
 BYTE   W12
 BYTE   VOL   28*MOTHER3ItsOverMrGreen3339_mvl/mxv
 BYTE   N44  Dn2
 BYTE   W06
 BYTE   VOL   28*MOTHER3ItsOverMrGreen3339_mvl/mxv
 BYTE   W06
 BYTE   En0
 BYTE   N32  An2
 BYTE   W06
 BYTE   VOL   27*MOTHER3ItsOverMrGreen3339_mvl/mxv
 BYTE   W06
 BYTE   Dn0
 BYTE   N23  Cn3
 BYTE   W06
 BYTE   VOL   26*MOTHER3ItsOverMrGreen3339_mvl/mxv
 BYTE   W06
 BYTE   Dn0
 BYTE   N11  Dn3
 BYTE   W06
 BYTE   VOL   25*MOTHER3ItsOverMrGreen3339_mvl/mxv
 BYTE   W06
// 011   ----------------------------------------
 BYTE   Cs0
 BYTE   N92  Gn1
 BYTE   W06
 BYTE   VOL   24*MOTHER3ItsOverMrGreen3339_mvl/mxv
 BYTE   W06
 BYTE   Cn0
 BYTE   N80  Fs2
 BYTE   W06
 BYTE   VOL   23*MOTHER3ItsOverMrGreen3339_mvl/mxv
 BYTE   W06
 BYTE   BnM1
 BYTE   N68  Bn2
 BYTE   W06
 BYTE   VOL   22*MOTHER3ItsOverMrGreen3339_mvl/mxv
 BYTE   W06
 BYTE   AnM1
 BYTE   N56  Dn3
 BYTE   W06
 BYTE   VOL   21*MOTHER3ItsOverMrGreen3339_mvl/mxv
 BYTE   W06
 BYTE   GsM1
 BYTE   W06
 BYTE   GnM1
 BYTE   W06
 BYTE   FsM1
 BYTE   W06
 BYTE   FsM1
 BYTE   W06
 BYTE   FnM1
 BYTE   W06
 BYTE   EnM1
 BYTE   W06
 BYTE   DsM1
 BYTE   W06
 BYTE   DnM1
 BYTE   W06
// 012   ----------------------------------------
 BYTE   DnM1
 BYTE   N44  Fs1
 BYTE   W06
 BYTE   VOL   13*MOTHER3ItsOverMrGreen3339_mvl/mxv
 BYTE   W06
 BYTE   CnM1
 BYTE   N32  En2
 BYTE   W06
 BYTE   VOL   11*MOTHER3ItsOverMrGreen3339_mvl/mxv
 BYTE   W06
 BYTE   AnM2
 BYTE   N24  An2
 BYTE   W06
 BYTE   VOL   9*MOTHER3ItsOverMrGreen3339_mvl/mxv
 BYTE   W06
 BYTE   GnM2
 BYTE   N12  Cn3
 BYTE   W06
 BYTE   VOL   5*MOTHER3ItsOverMrGreen3339_mvl/mxv
 BYTE   W06
 BYTE   CnM2
 BYTE   N44  Bn1
 BYTE   W06
 BYTE   VOL   0*MOTHER3ItsOverMrGreen3339_mvl/mxv
 BYTE   W42
// 013   ----------------------------------------
 BYTE   W96
// 014   ----------------------------------------
 BYTE   W96
// 015   ----------------------------------------
 BYTE   W96
// 016   ----------------------------------------
 BYTE   W96
// 017   ----------------------------------------
 BYTE   W96
// 018   ----------------------------------------
 BYTE   VOICE   78
 BYTE   N92  An1
 BYTE   W12
 BYTE   N80  En2
 BYTE   W12
 BYTE   N68  Cn3
 BYTE   W24
 BYTE   VOL   0*MOTHER3ItsOverMrGreen3339_mvl/mxv
 BYTE   W06
 BYTE   FnM2
 BYTE   W06
 BYTE   GnM2
 BYTE   W06
 BYTE   AnM2
 BYTE   W06
 BYTE   AnM2
 BYTE   W06
 BYTE   BnM2
 BYTE   W06
 BYTE   CnM1
 BYTE   W06
 BYTE   CsM1
 BYTE   W06
// 019   ----------------------------------------
 BYTE   DnM1
 BYTE   N92  Dn2
 BYTE   W06
 BYTE   VOL   14*MOTHER3ItsOverMrGreen3339_mvl/mxv
 BYTE   W06
 BYTE   DsM1
 BYTE   N80  An2
 BYTE   W06
 BYTE   VOL   16*MOTHER3ItsOverMrGreen3339_mvl/mxv
 BYTE   W06
 BYTE   FnM1
 BYTE   N68  Cn3
 BYTE   W06
 BYTE   VOL   18*MOTHER3ItsOverMrGreen3339_mvl/mxv
 BYTE   W06
 BYTE   FsM1
 BYTE   N56  Fn3
 BYTE   W06
 BYTE   VOL   19*MOTHER3ItsOverMrGreen3339_mvl/mxv
 BYTE   W06
 BYTE   GsM1
 BYTE   W06
 BYTE   AnM1
 BYTE   W06
 BYTE   AnM1
 BYTE   W06
 BYTE   AsM1
 BYTE   W06
 BYTE   BnM1
 BYTE   W06
 BYTE   BnM1
 BYTE   W06
 BYTE   Cn0
 BYTE   W06
 BYTE   Cn0
 BYTE   W06
// 020   ----------------------------------------
 BYTE   Cs0
 BYTE   N44  Gn2
 BYTE   W06
 BYTE   VOL   25*MOTHER3ItsOverMrGreen3339_mvl/mxv
 BYTE   W06
 BYTE   Dn0
 BYTE   N32  Bn2
 BYTE   W06
 BYTE   VOL   26*MOTHER3ItsOverMrGreen3339_mvl/mxv
 BYTE   W06
 BYTE   Dn0
 BYTE   N22  Dn3
 BYTE   W06
 BYTE   VOL   27*MOTHER3ItsOverMrGreen3339_mvl/mxv
 BYTE   W06
 BYTE   En0
 BYTE   W06
 BYTE   En0
 BYTE   W06
 BYTE   En0
 BYTE   N44  Fn2
 BYTE   W06
 BYTE   VOL   29*MOTHER3ItsOverMrGreen3339_mvl/mxv
 BYTE   W06
 BYTE   N32  Bn2
 BYTE   W12
 BYTE   N22  Dn3
 BYTE   W24
// 021   ----------------------------------------
 BYTE   N44  En2
 BYTE   W12
 BYTE   N32  Gn2
 BYTE   W12
 BYTE   N22  Cn3
 BYTE   W24
 BYTE   N44  Ds2
 BYTE   W12
 BYTE   N32  Fs2
 BYTE   W12
 BYTE   N22  Cn3
 BYTE   W24
// 022   ----------------------------------------
 BYTE   N44  Dn2
 BYTE   W12
 BYTE   N32  An2
 BYTE   W12
 BYTE   N22  Cn3
 BYTE   W24
 BYTE   N44  Dn2
 BYTE   W12
 BYTE   N32  Fn2
 BYTE   W12
 BYTE   N22  An2
 BYTE   W24
// 023   ----------------------------------------
 BYTE   N44  Bn1
 BYTE   W12
 BYTE   N32  Fn2
 BYTE   W12
 BYTE   N68  Bn2
 BYTE   W12
 BYTE   N56  Dn3
 BYTE   W12
 BYTE   N44  Gn1
 BYTE   W48
// 024   ----------------------------------------
 BYTE   N92  Cn2
 BYTE   W12
 BYTE   N80  Gn2
 BYTE   W12
 BYTE   N68  En3
 BYTE   W72
// 025   ----------------------------------------
 BYTE   N92  En2
 BYTE   W12
 BYTE   N80  Bn2
 BYTE   W12
 BYTE   N68  Dn3
 BYTE   W12
 BYTE   N56  Gn3
 BYTE   W60
// 026   ----------------------------------------
 BYTE   N92  An1
 BYTE   W12
 BYTE   N80  En2
 BYTE   W12
 BYTE   N68  Cn3
 BYTE   W72
// 027   ----------------------------------------
 BYTE   N92  Dn2
 BYTE   W12
 BYTE   N80  An2
 BYTE   W12
 BYTE   N68  Cn3
 BYTE   W12
 BYTE   N56  Fn3
 BYTE   W54
 BYTE   VOL   28*MOTHER3ItsOverMrGreen3339_mvl/mxv
 BYTE   W06
// 028   ----------------------------------------
 BYTE   En0
 BYTE   N44  Gn2
 BYTE   W06
 BYTE   VOL   28*MOTHER3ItsOverMrGreen3339_mvl/mxv
 BYTE   W06
 BYTE   Ds0
 BYTE   N32  Bn2
 BYTE   W06
 BYTE   VOL   26*MOTHER3ItsOverMrGreen3339_mvl/mxv
 BYTE   W06
 BYTE   Dn0
 BYTE   N22  Dn3
 BYTE   W06
 BYTE   VOL   26*MOTHER3ItsOverMrGreen3339_mvl/mxv
 BYTE   W06
 BYTE   Cs0
 BYTE   W06
 BYTE   Cs0
 BYTE   W06
 BYTE   Cn0
 BYTE   N44  Fn2
 BYTE   W06
 BYTE   VOL   24*MOTHER3ItsOverMrGreen3339_mvl/mxv
 BYTE   W06
 BYTE   BnM1
 BYTE   N32  Bn2
 BYTE   W06
 BYTE   VOL   23*MOTHER3ItsOverMrGreen3339_mvl/mxv
 BYTE   W06
 BYTE   AsM1
 BYTE   N22  Dn3
 BYTE   W06
 BYTE   VOL   21*MOTHER3ItsOverMrGreen3339_mvl/mxv
 BYTE   W06
 BYTE   AnM1
 BYTE   W06
 BYTE   GsM1
 BYTE   W06
// 029   ----------------------------------------
 BYTE   GnM1
 BYTE   N44  En2
 BYTE   W06
 BYTE   VOL   18*MOTHER3ItsOverMrGreen3339_mvl/mxv
 BYTE   W06
 BYTE   FsM1
 BYTE   N32  Gn2
 BYTE   W06
 BYTE   VOL   17*MOTHER3ItsOverMrGreen3339_mvl/mxv
 BYTE   W06
 BYTE   EnM1
 BYTE   N22  Cn3
 BYTE   W06
 BYTE   VOL   15*MOTHER3ItsOverMrGreen3339_mvl/mxv
 BYTE   W06
 BYTE   DnM1
 BYTE   W06
 BYTE   DnM1
 BYTE   W06
 BYTE   CsM1
 BYTE   N44  Ds2
 BYTE   W06
 BYTE   VOL   12*MOTHER3ItsOverMrGreen3339_mvl/mxv
 BYTE   W06
 BYTE   BnM2
 BYTE   N32  Fs2
 BYTE   W06
 BYTE   VOL   9*MOTHER3ItsOverMrGreen3339_mvl/mxv
 BYTE   W06
 BYTE   AnM2
 BYTE   N22  Cn3
 BYTE   W06
 BYTE   VOL   7*MOTHER3ItsOverMrGreen3339_mvl/mxv
 BYTE   W06
 BYTE   FnM2
 BYTE   W06
 BYTE   CnM2
 BYTE   W06
// 030   ----------------------------------------
 BYTE   CnM2
 BYTE   N44  Dn2
 BYTE   W12
 BYTE   N32  An2
 BYTE   W12
 BYTE   N22  Cn3
 BYTE   W24
 BYTE   N44  Gn1
 BYTE   W12
 BYTE   N32  Fn2
 BYTE   W12
 BYTE   N22  Bn2
 BYTE   W24
// 031   ----------------------------------------
 BYTE   N92  Cn2
 BYTE   N92  Gn2
 BYTE   N44  Fn3
 BYTE   W48
 BYTE   En3
 BYTE   W48
// 032   ----------------------------------------
Label_1_010FEA9D:
 BYTE   W96
// 033   ----------------------------------------
 BYTE   W96
// 034   ----------------------------------------
 BYTE   W96
// 035   ----------------------------------------
 BYTE   W96
// 036   ----------------------------------------
 BYTE   W96
// 037   ----------------------------------------
 BYTE   W96
// 038   ----------------------------------------
 BYTE   W96
// 039   ----------------------------------------
 BYTE   W96
// 040   ----------------------------------------
 BYTE   W96
// 041   ----------------------------------------
 BYTE   W96
// 042   ----------------------------------------
 BYTE   W96
// 043   ----------------------------------------
 BYTE   W96
// 044   ----------------------------------------
 BYTE   W96
// 045   ----------------------------------------
 BYTE   W96
// 046   ----------------------------------------
 BYTE   W96
// 047   ----------------------------------------
 BYTE   W96
// 048   ----------------------------------------
 BYTE   W96
// 049   ----------------------------------------
 BYTE   W96
// 050   ----------------------------------------
 BYTE   W96
// 051   ----------------------------------------
 BYTE   W96
// 052   ----------------------------------------
 BYTE   W96
// 053   ----------------------------------------
 BYTE   W96
// 054   ----------------------------------------
 BYTE   W96
// 055   ----------------------------------------
 BYTE   W96
// 056   ----------------------------------------
 BYTE   GoTo
  POIN2 Label_1_010FEA9D
 BYTE   FINE

//**************** Track 3 (Midi-Chn.2) ****************//

MOTHER3ItsOverMrGreen3339_003:
// 000   ----------------------------------------
 BYTE   KEYSH   MOTHER3ItsOverMrGreen3339_key+0
 BYTE   W96
// 001   ----------------------------------------
 BYTE   W96
// 002   ----------------------------------------
 BYTE   W96
// 003   ----------------------------------------
 BYTE   W96
// 004   ----------------------------------------
 BYTE   W96
// 005   ----------------------------------------
 BYTE   W96
// 006   ----------------------------------------
 BYTE   W96
// 007   ----------------------------------------
 BYTE   W96
// 008   ----------------------------------------
 BYTE   W72
 BYTE   VOICE   74
 BYTE   VOL   0*MOTHER3ItsOverMrGreen3339_mvl/mxv
 BYTE   PAN   c_v+8
 BYTE   W24
// 009   ----------------------------------------
 BYTE   N92  Gn4  v127
 BYTE   W48
 BYTE   VOL   0*MOTHER3ItsOverMrGreen3339_mvl/mxv
 BYTE   W06
 BYTE   FnM2
 BYTE   W06
 BYTE   GnM2
 BYTE   W06
 BYTE   AnM2
 BYTE   W06
 BYTE   AnM2
 BYTE   W06
 BYTE   BnM2
 BYTE   W06
 BYTE   CnM1
 BYTE   W06
 BYTE   CsM1
 BYTE   W06
// 010   ----------------------------------------
 BYTE   DnM1
 BYTE   N44  An3
 BYTE   W06
 BYTE   VOL   14*MOTHER3ItsOverMrGreen3339_mvl/mxv
 BYTE   W06
 BYTE   DsM1
 BYTE   W06
 BYTE   EnM1
 BYTE   W06
 BYTE   FnM1
 BYTE   W06
 BYTE   FsM1
 BYTE   W06
 BYTE   FsM1
 BYTE   W06
 BYTE   GnM1
 BYTE   W06
 BYTE   GsM1
 BYTE   N44  Fn4
 BYTE   W06
 BYTE   VOL   21*MOTHER3ItsOverMrGreen3339_mvl/mxv
 BYTE   W06
 BYTE   AnM1
 BYTE   W06
 BYTE   AsM1
 BYTE   W06
 BYTE   BnM1
 BYTE   W06
 BYTE   BnM1
 BYTE   W06
 BYTE   Cn0
 BYTE   W06
 BYTE   Cn0
 BYTE   W06
// 011   ----------------------------------------
 BYTE   Cs0
 BYTE   N92  En4
 BYTE   W06
 BYTE   VOL   25*MOTHER3ItsOverMrGreen3339_mvl/mxv
 BYTE   W06
 BYTE   Dn0
 BYTE   W06
 BYTE   Dn0
 BYTE   W06
 BYTE   Dn0
 BYTE   W06
 BYTE   Ds0
 BYTE   W06
 BYTE   En0
 BYTE   W06
 BYTE   En0
 BYTE   W06
 BYTE   En0
 BYTE   W06
 BYTE   Fn0
 BYTE   W06
 BYTE   Fn0
 BYTE   W06
 BYTE   Fs0
 BYTE   W06
 BYTE   Fs0
 BYTE   W06
 BYTE   Fs0
 BYTE   W06
 BYTE   Gn0
 BYTE   W06
 BYTE   Gn0
 BYTE   W06
// 012   ----------------------------------------
 BYTE   Gs0
 BYTE   N44  Dn4
 BYTE   W06
 BYTE   VOL   32*MOTHER3ItsOverMrGreen3339_mvl/mxv
 BYTE   W06
 BYTE   Gs0
 BYTE   W06
 BYTE   An0
 BYTE   W06
 BYTE   An0
 BYTE   W06
 BYTE   As0
 BYTE   W06
 BYTE   As0
 BYTE   W06
 BYTE   As0
 BYTE   W06
 BYTE   Bn0
 BYTE   N32  En4
 BYTE   W06
 BYTE   VOL   35*MOTHER3ItsOverMrGreen3339_mvl/mxv
 BYTE   W30
 BYTE   N11  Dn4
 BYTE   W12
// 013   ----------------------------------------
Label_2_010FEB49:
 BYTE   N23  Dn4  v127
 BYTE   W24
 BYTE   N68  Cn4
 BYTE   W72
 BYTE   PEND 
// 014   ----------------------------------------
Label_2_010FEB51:
 BYTE   N44  An4  v127
 BYTE   W48
 BYTE   N32
 BYTE   W32
 BYTE   W02
 BYTE   N13
 BYTE   W14
 BYTE   PEND 
// 015   ----------------------------------------
 BYTE   N92  Gn4  v124
 BYTE   W96
// 016   ----------------------------------------
Label_2_010FEB5F:
 BYTE   N88  Gn3  v127
 BYTE   W24
 BYTE   N72  Cn4
 BYTE   W24
 BYTE   N48  Dn4
 BYTE   W24
 BYTE   N24  En4
 BYTE   W24
 BYTE   PEND 
// 017   ----------------------------------------
 BYTE   N92  Gn3  v124
 BYTE   W84
 BYTE   VOL   35*MOTHER3ItsOverMrGreen3339_mvl/mxv
 BYTE   W06
 BYTE   As0
 BYTE   W06
// 018   ----------------------------------------
 BYTE   As0
 BYTE   N23  En3  v127
 BYTE   W06
 BYTE   VOL   34*MOTHER3ItsOverMrGreen3339_mvl/mxv
 BYTE   W06
 BYTE   An0
 BYTE   W06
 BYTE   An0
 BYTE   W06
 BYTE   Gs0
 BYTE   N23  An3
 BYTE   W06
 BYTE   VOL   32*MOTHER3ItsOverMrGreen3339_mvl/mxv
 BYTE   W06
 BYTE   Gs0
 BYTE   W06
 BYTE   Gn0
 BYTE   W06
 BYTE   Gn0
 BYTE   N23  Bn3
 BYTE   W06
 BYTE   VOL   30*MOTHER3ItsOverMrGreen3339_mvl/mxv
 BYTE   W06
 BYTE   Fs0
 BYTE   W06
 BYTE   Fs0
 BYTE   W06
 BYTE   Fn0
 BYTE   N23  Cn4  v124
 BYTE   W06
 BYTE   VOL   29*MOTHER3ItsOverMrGreen3339_mvl/mxv
 BYTE   W06
 BYTE   En0
 BYTE   W06
 BYTE   En0
 BYTE   W06
// 019   ----------------------------------------
 BYTE   En0
 BYTE   N92  Dn4  v127
 BYTE   W06
 BYTE   VOL   27*MOTHER3ItsOverMrGreen3339_mvl/mxv
 BYTE   W06
 BYTE   Dn0
 BYTE   W06
 BYTE   Dn0
 BYTE   W06
 BYTE   Dn0
 BYTE   W06
 BYTE   Cs0
 BYTE   W06
 BYTE   Cs0
 BYTE   W06
 BYTE   Cn0
 BYTE   W06
 BYTE   Cn0
 BYTE   W06
 BYTE   BnM1
 BYTE   W06
 BYTE   BnM1
 BYTE   W06
 BYTE   AsM1
 BYTE   W06
 BYTE   AnM1
 BYTE   W06
 BYTE   AnM1
 BYTE   W06
 BYTE   GsM1
 BYTE   W06
 BYTE   GnM1
 BYTE   W06
// 020   ----------------------------------------
 BYTE   FsM1
 BYTE   N23
 BYTE   W06
 BYTE   VOL   18*MOTHER3ItsOverMrGreen3339_mvl/mxv
 BYTE   W06
 BYTE   FnM1
 BYTE   W06
 BYTE   EnM1
 BYTE   W06
 BYTE   DsM1
 BYTE   N23  Dn4  v124
 BYTE   W06
 BYTE   VOL   14*MOTHER3ItsOverMrGreen3339_mvl/mxv
 BYTE   W06
 BYTE   DnM1
 BYTE   W06
 BYTE   CsM1
 BYTE   W06
 BYTE   CnM1
 BYTE   N23  En4  v127
 BYTE   W06
 BYTE   VOL   11*MOTHER3ItsOverMrGreen3339_mvl/mxv
 BYTE   W06
 BYTE   AnM2
 BYTE   W06
 BYTE   AnM2
 BYTE   W06
 BYTE   GnM2
 BYTE   N23  Dn4
 BYTE   W06
 BYTE   VOL   5*MOTHER3ItsOverMrGreen3339_mvl/mxv
 BYTE   W06
 BYTE   CnM2
 BYTE   W06
 BYTE   CnM2
 BYTE   W06
// 021   ----------------------------------------
 BYTE   W96
// 022   ----------------------------------------
 BYTE   W96
// 023   ----------------------------------------
 BYTE   W96
// 024   ----------------------------------------
 BYTE   W96
// 025   ----------------------------------------
 BYTE   W96
// 026   ----------------------------------------
 BYTE   VOICE   4
 BYTE   W72
 BYTE   N23  Cn4  v124
 BYTE   W18
 BYTE   VOL   0*MOTHER3ItsOverMrGreen3339_mvl/mxv
 BYTE   W06
// 027   ----------------------------------------
 BYTE   FnM2
 BYTE   N92  Dn4  v127
 BYTE   W06
 BYTE   VOL   7*MOTHER3ItsOverMrGreen3339_mvl/mxv
 BYTE   W06
 BYTE   AnM2
 BYTE   W06
 BYTE   AnM2
 BYTE   W06
 BYTE   BnM2
 BYTE   W06
 BYTE   CnM1
 BYTE   W06
 BYTE   CsM1
 BYTE   W06
 BYTE   DnM1
 BYTE   W06
 BYTE   DnM1
 BYTE   W06
 BYTE   DsM1
 BYTE   W06
 BYTE   EnM1
 BYTE   W06
 BYTE   FnM1
 BYTE   W06
 BYTE   FsM1
 BYTE   W06
 BYTE   FsM1
 BYTE   W06
 BYTE   GnM1
 BYTE   W06
 BYTE   GsM1
 BYTE   W06
// 028   ----------------------------------------
 BYTE   AnM1
 BYTE   N23
 BYTE   W06
 BYTE   VOL   21*MOTHER3ItsOverMrGreen3339_mvl/mxv
 BYTE   W06
 BYTE   AsM1
 BYTE   W06
 BYTE   BnM1
 BYTE   W06
 BYTE   BnM1
 BYTE   N23  Dn4  v124
 BYTE   W06
 BYTE   VOL   24*MOTHER3ItsOverMrGreen3339_mvl/mxv
 BYTE   W06
 BYTE   Cn0
 BYTE   W06
 BYTE   Cs0
 BYTE   W06
 BYTE   Cs0
 BYTE   N23  En4  v127
 BYTE   W06
 BYTE   VOL   26*MOTHER3ItsOverMrGreen3339_mvl/mxv
 BYTE   W06
 BYTE   Dn0
 BYTE   W06
 BYTE   Dn0
 BYTE   W06
 BYTE   Ds0
 BYTE   N23  Dn4
 BYTE   W06
 BYTE   VOL   28*MOTHER3ItsOverMrGreen3339_mvl/mxv
 BYTE   W06
 BYTE   En0
 BYTE   W06
 BYTE   En0
 BYTE   W06
// 029   ----------------------------------------
 BYTE   Fn0
 BYTE   N23  Gn4
 BYTE   W06
 BYTE   VOL   29*MOTHER3ItsOverMrGreen3339_mvl/mxv
 BYTE   W06
 BYTE   Fs0
 BYTE   W06
 BYTE   Fs0
 BYTE   W06
 BYTE   Fs0
 BYTE   N23  En4  v124
 BYTE   W06
 BYTE   VOL   31*MOTHER3ItsOverMrGreen3339_mvl/mxv
 BYTE   W06
 BYTE   Gn0
 BYTE   W06
 BYTE   Gs0
 BYTE   W06
 BYTE   Gs0
 BYTE   N44  Cn4
 BYTE   W06
 BYTE   VOL   32*MOTHER3ItsOverMrGreen3339_mvl/mxv
 BYTE   W06
 BYTE   An0
 BYTE   W06
 BYTE   An0
 BYTE   W06
 BYTE   As0
 BYTE   W06
 BYTE   As0
 BYTE   W06
 BYTE   As0
 BYTE   W06
 BYTE   Bn0
 BYTE   W06
// 030   ----------------------------------------
 BYTE   Bn0
 BYTE   N44  An3  v127
 BYTE   W48
 BYTE   N32  Dn4
 BYTE   W36
 BYTE   N11  Cn4  v124
 BYTE   W12
// 031   ----------------------------------------
 BYTE   N92
 BYTE   W96
// 032   ----------------------------------------
Label_2_010FEC8D:
 BYTE   N44  Cn4  v127
 BYTE   W48
 BYTE   An4
 BYTE   W48
// 033   ----------------------------------------
 BYTE   N92  Gn4
 BYTE   W96
// 034   ----------------------------------------
 BYTE   N44  An3
 BYTE   W48
 BYTE   Fn4
 BYTE   W48
// 035   ----------------------------------------
 BYTE   N92  En4
 BYTE   W96
// 036   ----------------------------------------
 BYTE   N44  Dn4
 BYTE   W48
 BYTE   N32  En4
 BYTE   W36
 BYTE   N11  Dn4
 BYTE   W12
 BYTE   PATT
  POIN2 Label_2_010FEB49
 BYTE   PATT
  POIN2 Label_2_010FEB51
// 037   ----------------------------------------
 BYTE   N92  Gn4  v124
 BYTE   W96
 BYTE   PATT
  POIN2 Label_2_010FEB5F
// 038   ----------------------------------------
 BYTE   N92  Gn3  v124
 BYTE   W96
// 039   ----------------------------------------
Label_2_010FECBE:
 BYTE   N23  En3  v127
 BYTE   W24
 BYTE   An3
 BYTE   W24
 BYTE   Bn3
 BYTE   W24
 BYTE   Cn4  v124
 BYTE   W24
 BYTE   PEND 
// 040   ----------------------------------------
 BYTE   N92  Dn4  v127
 BYTE   W96
// 041   ----------------------------------------
Label_2_010FECCE:
 BYTE   N23  Dn4  v127
 BYTE   W24
 BYTE   Dn4  v124
 BYTE   W24
 BYTE   En4  v127
 BYTE   W24
 BYTE   Dn4
 BYTE   W24
 BYTE   PEND 
// 042   ----------------------------------------
Label_2_010FECDB:
 BYTE   N23  Gn4  v127
 BYTE   W24
 BYTE   En4  v124
 BYTE   W24
 BYTE   N44  Cn4
 BYTE   W48
 BYTE   PEND 
// 043   ----------------------------------------
 BYTE   An3  v127
 BYTE   W48
 BYTE   N32  Dn4
 BYTE   W36
 BYTE   N11  En4  v124
 BYTE   W12
// 044   ----------------------------------------
 BYTE   N92  Dn4
 BYTE   W96
 BYTE   PATT
  POIN2 Label_2_010FEB5F
// 045   ----------------------------------------
 BYTE   N92  Gn3  v124
 BYTE   W96
 BYTE   PATT
  POIN2 Label_2_010FECBE
// 046   ----------------------------------------
 BYTE   N92  Dn4  v127
 BYTE   W96
 BYTE   PATT
  POIN2 Label_2_010FECCE
 BYTE   PATT
  POIN2 Label_2_010FECDB
// 047   ----------------------------------------
 BYTE   N44  An3  v127
 BYTE   W48
 BYTE   N32  Dn4
 BYTE   W36
 BYTE   N11  Cn4  v124
 BYTE   W12
// 048   ----------------------------------------
 BYTE   N92
 BYTE   W96
// 049   ----------------------------------------
 BYTE   GoTo
  POIN2 Label_2_010FEC8D
 BYTE   FINE

//**************** Track 4 (Midi-Chn.3) ****************//

MOTHER3ItsOverMrGreen3339_004:
// 000   ----------------------------------------
 BYTE   KEYSH   MOTHER3ItsOverMrGreen3339_key+0
 BYTE   W96
// 001   ----------------------------------------
 BYTE   W96
// 002   ----------------------------------------
 BYTE   W96
// 003   ----------------------------------------
 BYTE   W96
// 004   ----------------------------------------
 BYTE   W96
// 005   ----------------------------------------
 BYTE   W96
// 006   ----------------------------------------
 BYTE   W96
// 007   ----------------------------------------
 BYTE   W72
 BYTE   VOICE   74
 BYTE   VOL   0*MOTHER3ItsOverMrGreen3339_mvl/mxv
 BYTE   PAN   c_v-20
 BYTE   W24
// 008   ----------------------------------------
 BYTE   W96
// 009   ----------------------------------------
 BYTE   W36
 BYTE   N56  Gn3  v127
 BYTE   W12
 BYTE   VOL   0*MOTHER3ItsOverMrGreen3339_mvl/mxv
 BYTE   W06
 BYTE   FnM2
 BYTE   W06
 BYTE   GnM2
 BYTE   W06
 BYTE   AnM2
 BYTE   W06
 BYTE   AnM2
 BYTE   W06
 BYTE   BnM2
 BYTE   W06
 BYTE   CnM1
 BYTE   W06
 BYTE   CsM1
 BYTE   W06
// 010   ----------------------------------------
 BYTE   DnM1
 BYTE   N44  Dn2
 BYTE   W06
 BYTE   VOL   14*MOTHER3ItsOverMrGreen3339_mvl/mxv
 BYTE   W06
 BYTE   DsM1
 BYTE   N32  An2
 BYTE   W06
 BYTE   VOL   16*MOTHER3ItsOverMrGreen3339_mvl/mxv
 BYTE   W06
 BYTE   FnM1
 BYTE   N23  En3
 BYTE   W06
 BYTE   VOL   18*MOTHER3ItsOverMrGreen3339_mvl/mxv
 BYTE   W06
 BYTE   FsM1
 BYTE   N11  Fn3
 BYTE   W06
 BYTE   VOL   19*MOTHER3ItsOverMrGreen3339_mvl/mxv
 BYTE   W06
 BYTE   GsM1
 BYTE   N44  Gn2
 BYTE   W06
 BYTE   VOL   21*MOTHER3ItsOverMrGreen3339_mvl/mxv
 BYTE   W06
 BYTE   AnM1
 BYTE   N32  Dn3
 BYTE   W06
 BYTE   VOL   22*MOTHER3ItsOverMrGreen3339_mvl/mxv
 BYTE   W06
 BYTE   BnM1
 BYTE   N23  Fn3
 BYTE   W06
 BYTE   VOL   23*MOTHER3ItsOverMrGreen3339_mvl/mxv
 BYTE   W06
 BYTE   Cn0
 BYTE   N11  Gn3
 BYTE   W06
 BYTE   VOL   24*MOTHER3ItsOverMrGreen3339_mvl/mxv
 BYTE   W06
// 011   ----------------------------------------
 BYTE   Cs0
 BYTE   N92  Cn2
 BYTE   W06
 BYTE   VOL   25*MOTHER3ItsOverMrGreen3339_mvl/mxv
 BYTE   W06
 BYTE   Dn0
 BYTE   N80  Bn2
 BYTE   W06
 BYTE   VOL   26*MOTHER3ItsOverMrGreen3339_mvl/mxv
 BYTE   W06
 BYTE   Dn0
 BYTE   N68  En3
 BYTE   W06
 BYTE   VOL   27*MOTHER3ItsOverMrGreen3339_mvl/mxv
 BYTE   W06
 BYTE   En0
 BYTE   N56  Gn3
 BYTE   W06
 BYTE   VOL   28*MOTHER3ItsOverMrGreen3339_mvl/mxv
 BYTE   W06
 BYTE   En0
 BYTE   W06
 BYTE   Fn0
 BYTE   W42
// 012   ----------------------------------------
Label_3_010FEDA4:
 BYTE   N44  Bn1  v127
 BYTE   W12
 BYTE   N32  An2
 BYTE   W12
 BYTE   N24  Dn3
 BYTE   W12
 BYTE   N12  Fn3
 BYTE   W12
 BYTE   N44  En2
 BYTE   W12
 BYTE   N32  Gs2
 BYTE   W12
 BYTE   N24  Bn2
 BYTE   W12
 BYTE   N12  Dn3
 BYTE   W12
 BYTE   PEND 
// 013   ----------------------------------------
Label_3_010FEDBE:
 BYTE   N92  An1  v127
 BYTE   W12
 BYTE   N68  En2
 BYTE   W12
 BYTE   N36  An2
 BYTE   W12
 BYTE   N12  Bn2
 BYTE   W12
 BYTE   N44  Cn3
 BYTE   W12
 BYTE   N32  Bn2
 BYTE   W12
 BYTE   N24  Gn2
 BYTE   W12
 BYTE   N12  En2
 BYTE   W12
 BYTE   PEND 
// 014   ----------------------------------------
Label_3_010FEDD8:
 BYTE   N92  Dn2  v127
 BYTE   W12
 BYTE   N68  Fs2
 BYTE   W12
 BYTE   N36  An2
 BYTE   W12
 BYTE   N12  Cn3
 BYTE   W12
 BYTE   N44  Dn3
 BYTE   W12
 BYTE   N32  Cn3
 BYTE   W12
 BYTE   N24  An2
 BYTE   W12
 BYTE   N12  Fs2
 BYTE   W12
 BYTE   PEND 
// 015   ----------------------------------------
Label_3_010FEDF2:
 BYTE   N92  Gn2  v127
 BYTE   W12
 BYTE   N80  Dn3
 BYTE   W12
 BYTE   N68  Fn3
 BYTE   W12
 BYTE   N56  An3
 BYTE   W12
 BYTE   N44  Bn3
 BYTE   W48
 BYTE   PEND 
// 016   ----------------------------------------
Label_3_010FEE03:
 BYTE   N92  Cn2  v127
 BYTE   W12
 BYTE   N80  Gn2
 BYTE   W12
 BYTE   N68  En3
 BYTE   W72
 BYTE   PEND 
// 017   ----------------------------------------
 BYTE   N92  En2
 BYTE   W12
 BYTE   N80  Bn2
 BYTE   W12
 BYTE   N68  Dn3
 BYTE   W12
 BYTE   N56  Gn3
 BYTE   W12
 BYTE   VOL   28*MOTHER3ItsOverMrGreen3339_mvl/mxv
 BYTE   W06
 BYTE   En0
 BYTE   W06
 BYTE   En0
 BYTE   W06
 BYTE   Ds0
 BYTE   W06
 BYTE   Dn0
 BYTE   W06
 BYTE   Dn0
 BYTE   W06
 BYTE   Dn0
 BYTE   W06
 BYTE   Cs0
 BYTE   W06
// 018   ----------------------------------------
 BYTE   Cs0
 BYTE   N92  An1
 BYTE   W06
 BYTE   VOL   24*MOTHER3ItsOverMrGreen3339_mvl/mxv
 BYTE   W06
 BYTE   Cn0
 BYTE   N80  En2
 BYTE   W06
 BYTE   VOL   23*MOTHER3ItsOverMrGreen3339_mvl/mxv
 BYTE   W06
 BYTE   BnM1
 BYTE   N68  Cn3
 BYTE   W06
 BYTE   VOL   22*MOTHER3ItsOverMrGreen3339_mvl/mxv
 BYTE   W06
 BYTE   AnM1
 BYTE   W06
 BYTE   AnM1
 BYTE   W06
 BYTE   GsM1
 BYTE   W06
 BYTE   GnM1
 BYTE   W06
 BYTE   FsM1
 BYTE   W06
 BYTE   FsM1
 BYTE   W06
 BYTE   FnM1
 BYTE   W06
 BYTE   EnM1
 BYTE   W06
 BYTE   DsM1
 BYTE   W06
 BYTE   DnM1
 BYTE   W06
// 019   ----------------------------------------
 BYTE   DnM1
 BYTE   N92  Dn2
 BYTE   W06
 BYTE   VOL   13*MOTHER3ItsOverMrGreen3339_mvl/mxv
 BYTE   W06
 BYTE   CnM1
 BYTE   N80  An2
 BYTE   W06
 BYTE   VOL   11*MOTHER3ItsOverMrGreen3339_mvl/mxv
 BYTE   W06
 BYTE   AnM2
 BYTE   N68  Cn3
 BYTE   W06
 BYTE   VOL   9*MOTHER3ItsOverMrGreen3339_mvl/mxv
 BYTE   W06
 BYTE   GnM2
 BYTE   N56  Fn3
 BYTE   W06
 BYTE   VOL   5*MOTHER3ItsOverMrGreen3339_mvl/mxv
 BYTE   W06
 BYTE   CnM2
 BYTE   W06
 BYTE   CnM2
 BYTE   W42
// 020   ----------------------------------------
 BYTE   W96
// 021   ----------------------------------------
 BYTE   W96
// 022   ----------------------------------------
 BYTE   W96
// 023   ----------------------------------------
 BYTE   W96
// 024   ----------------------------------------
 BYTE   W96
// 025   ----------------------------------------
 BYTE   W96
// 026   ----------------------------------------
 BYTE   W96
// 027   ----------------------------------------
 BYTE   VOICE   4
 BYTE   W36
 BYTE   N56
 BYTE   W54
 BYTE   VOL   0*MOTHER3ItsOverMrGreen3339_mvl/mxv
 BYTE   W06
// 028   ----------------------------------------
 BYTE   FnM2
 BYTE   N44  Gn2
 BYTE   W06
 BYTE   VOL   7*MOTHER3ItsOverMrGreen3339_mvl/mxv
 BYTE   W06
 BYTE   AnM2
 BYTE   N32  Bn2
 BYTE   W06
 BYTE   VOL   9*MOTHER3ItsOverMrGreen3339_mvl/mxv
 BYTE   W06
 BYTE   BnM2
 BYTE   N22  Dn3
 BYTE   W06
 BYTE   VOL   12*MOTHER3ItsOverMrGreen3339_mvl/mxv
 BYTE   W06
 BYTE   CsM1
 BYTE   W06
 BYTE   DnM1
 BYTE   W06
 BYTE   DnM1
 BYTE   N44  Fn2
 BYTE   W06
 BYTE   VOL   15*MOTHER3ItsOverMrGreen3339_mvl/mxv
 BYTE   W06
 BYTE   EnM1
 BYTE   N32  Bn2
 BYTE   W06
 BYTE   VOL   17*MOTHER3ItsOverMrGreen3339_mvl/mxv
 BYTE   W06
 BYTE   FsM1
 BYTE   N22  Dn3
 BYTE   W06
 BYTE   VOL   18*MOTHER3ItsOverMrGreen3339_mvl/mxv
 BYTE   W06
 BYTE   GnM1
 BYTE   W06
 BYTE   GsM1
 BYTE   W06
// 029   ----------------------------------------
 BYTE   AnM1
 BYTE   N44  En2
 BYTE   W06
 BYTE   VOL   21*MOTHER3ItsOverMrGreen3339_mvl/mxv
 BYTE   W06
 BYTE   AsM1
 BYTE   N32  Gn2
 BYTE   W06
 BYTE   VOL   23*MOTHER3ItsOverMrGreen3339_mvl/mxv
 BYTE   W06
 BYTE   BnM1
 BYTE   N22  Cn3
 BYTE   W06
 BYTE   VOL   24*MOTHER3ItsOverMrGreen3339_mvl/mxv
 BYTE   W06
 BYTE   Cn0
 BYTE   W06
 BYTE   Cs0
 BYTE   W06
 BYTE   Cs0
 BYTE   N44  Ds2
 BYTE   W06
 BYTE   VOL   26*MOTHER3ItsOverMrGreen3339_mvl/mxv
 BYTE   W06
 BYTE   Dn0
 BYTE   N32  Fs2
 BYTE   W06
 BYTE   VOL   26*MOTHER3ItsOverMrGreen3339_mvl/mxv
 BYTE   W06
 BYTE   Ds0
 BYTE   N22  Cn3
 BYTE   W06
 BYTE   VOL   28*MOTHER3ItsOverMrGreen3339_mvl/mxv
 BYTE   W06
 BYTE   En0
 BYTE   W06
 BYTE   En0
 BYTE   W06
// 030   ----------------------------------------
 BYTE   Fn0
 BYTE   N44  Dn2
 BYTE   W12
 BYTE   N32  An2
 BYTE   W12
 BYTE   N22  Cn3
 BYTE   W24
 BYTE   N44  Gn1
 BYTE   W12
 BYTE   N32  Fn2
 BYTE   W12
 BYTE   N22  Bn2
 BYTE   W24
// 031   ----------------------------------------
Label_3_010FEEFA:
 BYTE   N92  Cn2  v127
 BYTE   N92  Gn2
 BYTE   N44  Fn3
 BYTE   W48
 BYTE   En3
 BYTE   W48
 BYTE   PEND 
// 032   ----------------------------------------
Label_3_010FEF05:
 BYTE   N92  Fn2  v127
 BYTE   W12
 BYTE   N80  Cn3
 BYTE   W12
 BYTE   N68  Gn3
 BYTE   W12
 BYTE   N56  An3
 BYTE   W60
// 033   ----------------------------------------
Label_3_010FEF12:
 BYTE   N92  Cn2  v127
 BYTE   W12
 BYTE   N80  Bn2
 BYTE   W12
 BYTE   N68  En3
 BYTE   W12
 BYTE   N56  Gn3
 BYTE   W60
 BYTE   PEND 
// 034   ----------------------------------------
 BYTE   N44  Dn2
 BYTE   W12
 BYTE   N32  An2
 BYTE   W12
 BYTE   N23  En3
 BYTE   W12
 BYTE   N11  Fn3
 BYTE   W12
 BYTE   N44  Gn2
 BYTE   W12
 BYTE   N32  Dn3
 BYTE   W12
 BYTE   N23  Fn3
 BYTE   W12
 BYTE   N11  Gn3
 BYTE   W12
 BYTE   PATT
  POIN2 Label_3_010FEF12
 BYTE   PATT
  POIN2 Label_3_010FEDA4
 BYTE   PATT
  POIN2 Label_3_010FEDBE
 BYTE   PATT
  POIN2 Label_3_010FEDD8
 BYTE   PATT
  POIN2 Label_3_010FEDF2
 BYTE   PATT
  POIN2 Label_3_010FEE03
// 035   ----------------------------------------
Label_3_010FEF56:
 BYTE   N92  En2  v127
 BYTE   W12
 BYTE   N80  Bn2
 BYTE   W12
 BYTE   N68  Dn3
 BYTE   W12
 BYTE   N56  Gn3
 BYTE   W60
 BYTE   PEND 
// 036   ----------------------------------------
Label_3_010FEF64:
 BYTE   N92  An1  v127
 BYTE   W12
 BYTE   N80  En2
 BYTE   W12
 BYTE   N68  Cn3
 BYTE   W72
 BYTE   PEND 
// 037   ----------------------------------------
Label_3_010FEF6F:
 BYTE   N92  Dn2  v127
 BYTE   W12
 BYTE   N80  An2
 BYTE   W12
 BYTE   N68  Cn3
 BYTE   W12
 BYTE   N56  Fn3
 BYTE   W60
 BYTE   PEND 
// 038   ----------------------------------------
Label_3_010FEF7D:
 BYTE   N44  Gn2  v127
 BYTE   W12
 BYTE   N32  Bn2
 BYTE   W12
 BYTE   N22  Dn3
 BYTE   W24
 BYTE   N44  Fn2
 BYTE   W12
 BYTE   N32  Bn2
 BYTE   W12
 BYTE   N22  Dn3
 BYTE   W24
 BYTE   PEND 
// 039   ----------------------------------------
Label_3_010FEF91:
 BYTE   N44  En2  v127
 BYTE   W12
 BYTE   N32  Gn2
 BYTE   W12
 BYTE   N22  Cn3
 BYTE   W24
 BYTE   N44  Ds2
 BYTE   W12
 BYTE   N32  Fs2
 BYTE   W12
 BYTE   N22  Cn3
 BYTE   W24
 BYTE   PEND 
// 040   ----------------------------------------
 BYTE   N44  Dn2
 BYTE   W12
 BYTE   N32  An2
 BYTE   W12
 BYTE   N22  Cn3
 BYTE   W24
 BYTE   N44  Dn2
 BYTE   W12
 BYTE   N32  Fn2
 BYTE   W12
 BYTE   N22  An2
 BYTE   W24
// 041   ----------------------------------------
 BYTE   N44  Bn1
 BYTE   W12
 BYTE   N32  Fn2
 BYTE   W12
 BYTE   N68  Bn2
 BYTE   W12
 BYTE   N56  Dn3
 BYTE   W12
 BYTE   N44  Gn1
 BYTE   W48
 BYTE   PATT
  POIN2 Label_3_010FEE03
 BYTE   PATT
  POIN2 Label_3_010FEF56
 BYTE   PATT
  POIN2 Label_3_010FEF64
 BYTE   PATT
  POIN2 Label_3_010FEF6F
 BYTE   PATT
  POIN2 Label_3_010FEF7D
 BYTE   PATT
  POIN2 Label_3_010FEF91
// 042   ----------------------------------------
 BYTE   N44  Dn2  v127
 BYTE   W12
 BYTE   N32  An2
 BYTE   W12
 BYTE   N22  Cn3
 BYTE   W24
 BYTE   N44  Gn1
 BYTE   W12
 BYTE   N32  Fn2
 BYTE   W12
 BYTE   N22  Bn2
 BYTE   W24
 BYTE   PATT
  POIN2 Label_3_010FEEFA
// 043   ----------------------------------------
 BYTE   GoTo
  POIN2 Label_3_010FEF05
 BYTE   FINE

//**************** Track 5 (Midi-Chn.4) ****************//

MOTHER3ItsOverMrGreen3339_005:
// 000   ----------------------------------------
 BYTE   KEYSH   MOTHER3ItsOverMrGreen3339_key+0
 BYTE   W96
// 001   ----------------------------------------
 BYTE   W96
// 002   ----------------------------------------
 BYTE   W96
// 003   ----------------------------------------
 BYTE   W96
// 004   ----------------------------------------
 BYTE   W96
// 005   ----------------------------------------
 BYTE   W96
// 006   ----------------------------------------
 BYTE   W96
// 007   ----------------------------------------
 BYTE   W96
// 008   ----------------------------------------
 BYTE   W96
// 009   ----------------------------------------
 BYTE   W96
// 010   ----------------------------------------
 BYTE   W96
// 011   ----------------------------------------
 BYTE   W96
// 012   ----------------------------------------
 BYTE   W96
// 013   ----------------------------------------
 BYTE   W96
// 014   ----------------------------------------
 BYTE   W96
// 015   ----------------------------------------
 BYTE   W96
// 016   ----------------------------------------
 BYTE   W96
// 017   ----------------------------------------
 BYTE   W96
// 018   ----------------------------------------
 BYTE   W96
// 019   ----------------------------------------
 BYTE   W96
// 020   ----------------------------------------
 BYTE   W96
// 021   ----------------------------------------
 BYTE   W96
// 022   ----------------------------------------
 BYTE   W96
// 023   ----------------------------------------
 BYTE   W96
// 024   ----------------------------------------
 BYTE   W96
// 025   ----------------------------------------
 BYTE   W96
// 026   ----------------------------------------
 BYTE   W96
// 027   ----------------------------------------
 BYTE   W96
// 028   ----------------------------------------
 BYTE   W96
// 029   ----------------------------------------
 BYTE   W96
// 030   ----------------------------------------
 BYTE   W96
// 031   ----------------------------------------
 BYTE   W80
 BYTE   VOICE   4
 BYTE   VOL   22*MOTHER3ItsOverMrGreen3339_mvl/mxv
 BYTE   PAN   c_v-64
 BYTE   BEND   c_v+6
 BYTE   W16
// 032   ----------------------------------------
Label_4_010FF02F:
 BYTE   W08
 BYTE   N44  Cn4  v127
 BYTE   W48
 BYTE   An4
 BYTE   W40
// 033   ----------------------------------------
 BYTE   W08
 BYTE   N92  Gn4
 BYTE   W88
// 034   ----------------------------------------
 BYTE   W08
 BYTE   N44  An3
 BYTE   W48
 BYTE   Fn4
 BYTE   W40
// 035   ----------------------------------------
 BYTE   W08
 BYTE   N92  En4
 BYTE   W88
// 036   ----------------------------------------
 BYTE   W08
 BYTE   N44  Dn4
 BYTE   W48
 BYTE   N32  En4
 BYTE   W36
 BYTE   N11  Dn4
 BYTE   W04
// 037   ----------------------------------------
 BYTE   W08
 BYTE   N23
 BYTE   W24
 BYTE   N68  Cn4
 BYTE   W64
// 038   ----------------------------------------
 BYTE   W08
 BYTE   N44  An4
 BYTE   W48
 BYTE   N32
 BYTE   W32
 BYTE   W02
 BYTE   N13
 BYTE   W06
// 039   ----------------------------------------
 BYTE   W08
 BYTE   N92  Gn4  v124
 BYTE   W88
// 040   ----------------------------------------
Label_4_010FF062:
 BYTE   W08
 BYTE   N88  Gn3  v127
 BYTE   W24
 BYTE   N72  Cn4
 BYTE   W24
 BYTE   N48  Dn4
 BYTE   W24
 BYTE   N24  En4
 BYTE   W16
 BYTE   PEND 
// 041   ----------------------------------------
 BYTE   W08
 BYTE   N92  Gn3  v124
 BYTE   W88
// 042   ----------------------------------------
Label_4_010FF076:
 BYTE   W08
 BYTE   N23  En3  v127
 BYTE   W24
 BYTE   An3
 BYTE   W24
 BYTE   Bn3
 BYTE   W24
 BYTE   Cn4  v124
 BYTE   W16
 BYTE   PEND 
// 043   ----------------------------------------
 BYTE   W08
 BYTE   N92  Dn4  v127
 BYTE   W88
// 044   ----------------------------------------
Label_4_010FF088:
 BYTE   W08
 BYTE   N23  Dn4  v127
 BYTE   W24
 BYTE   Dn4  v124
 BYTE   W24
 BYTE   En4  v127
 BYTE   W24
 BYTE   Dn4
 BYTE   W16
 BYTE   PEND 
// 045   ----------------------------------------
Label_4_010FF096:
 BYTE   W08
 BYTE   N23  Gn4  v127
 BYTE   W24
 BYTE   En4  v124
 BYTE   W24
 BYTE   N44  Cn4
 BYTE   W40
 BYTE   PEND 
// 046   ----------------------------------------
 BYTE   W08
 BYTE   An3  v127
 BYTE   W48
 BYTE   N32  Dn4
 BYTE   W36
 BYTE   N11  En4  v124
 BYTE   W04
// 047   ----------------------------------------
 BYTE   W08
 BYTE   N92  Dn4
 BYTE   W88
 BYTE   PATT
  POIN2 Label_4_010FF062
// 048   ----------------------------------------
 BYTE   W08
 BYTE   N92  Gn3  v124
 BYTE   W88
 BYTE   PATT
  POIN2 Label_4_010FF076
// 049   ----------------------------------------
 BYTE   W08
 BYTE   N92  Dn4  v127
 BYTE   W88
 BYTE   PATT
  POIN2 Label_4_010FF088
 BYTE   PATT
  POIN2 Label_4_010FF096
// 050   ----------------------------------------
 BYTE   W08
 BYTE   N44  An3  v127
 BYTE   W48
 BYTE   N32  Dn4
 BYTE   W36
 BYTE   N11  Cn4  v124
 BYTE   W04
// 051   ----------------------------------------
 BYTE   W08
 BYTE   N84
 BYTE   W88
// 052   ----------------------------------------
 BYTE   GoTo
  POIN2 Label_4_010FF02F
 BYTE   FINE

//**************** Track 6 (Midi-Chn.5) ****************//

MOTHER3ItsOverMrGreen3339_006:
// 000   ----------------------------------------
 BYTE   KEYSH   MOTHER3ItsOverMrGreen3339_key+0
 BYTE   W96
// 001   ----------------------------------------
 BYTE   W96
// 002   ----------------------------------------
 BYTE   W96
// 003   ----------------------------------------
 BYTE   W96
// 004   ----------------------------------------
 BYTE   W96
// 005   ----------------------------------------
 BYTE   W96
// 006   ----------------------------------------
 BYTE   W96
// 007   ----------------------------------------
 BYTE   W96
// 008   ----------------------------------------
 BYTE   W96
// 009   ----------------------------------------
 BYTE   W96
// 010   ----------------------------------------
 BYTE   W96
// 011   ----------------------------------------
 BYTE   W96
// 012   ----------------------------------------
 BYTE   W96
// 013   ----------------------------------------
 BYTE   W96
// 014   ----------------------------------------
 BYTE   W96
// 015   ----------------------------------------
 BYTE   W96
// 016   ----------------------------------------
 BYTE   W96
// 017   ----------------------------------------
 BYTE   W96
// 018   ----------------------------------------
 BYTE   W96
// 019   ----------------------------------------
 BYTE   W96
// 020   ----------------------------------------
 BYTE   W96
// 021   ----------------------------------------
 BYTE   W96
// 022   ----------------------------------------
 BYTE   W96
// 023   ----------------------------------------
 BYTE   W96
// 024   ----------------------------------------
 BYTE   W96
// 025   ----------------------------------------
 BYTE   W96
// 026   ----------------------------------------
 BYTE   W96
// 027   ----------------------------------------
 BYTE   W96
// 028   ----------------------------------------
 BYTE   W96
// 029   ----------------------------------------
 BYTE   W96
// 030   ----------------------------------------
 BYTE   W96
// 031   ----------------------------------------
 BYTE   W90
 BYTE   VOICE   4
 BYTE   VOL   18*MOTHER3ItsOverMrGreen3339_mvl/mxv
 BYTE   PAN   c_v+26
 BYTE   BEND   c_v+4
 BYTE   W06
// 032   ----------------------------------------
Label_5_010FF10F:
 BYTE   W10
 BYTE   N92  Fn2  v127
 BYTE   W12
 BYTE   N80  Cn3
 BYTE   W12
 BYTE   N68  Gn3
 BYTE   W12
 BYTE   N56  An3
 BYTE   W48
 BYTE   W02
// 033   ----------------------------------------
Label_5_010FF11E:
 BYTE   W10
 BYTE   N92  Cn2  v127
 BYTE   W12
 BYTE   N80  Bn2
 BYTE   W12
 BYTE   N68  En3
 BYTE   W12
 BYTE   N56  Gn3
 BYTE   W48
 BYTE   W02
 BYTE   PEND 
// 034   ----------------------------------------
 BYTE   W10
 BYTE   N44  Dn2
 BYTE   W12
 BYTE   N32  An2
 BYTE   W12
 BYTE   N23  En3
 BYTE   W12
 BYTE   N11  Fn3
 BYTE   W12
 BYTE   N44  Gn2
 BYTE   W12
 BYTE   N32  Dn3
 BYTE   W12
 BYTE   N23  Fn3
 BYTE   W12
 BYTE   N11  Gn3
 BYTE   W02
 BYTE   PATT
  POIN2 Label_5_010FF11E
// 035   ----------------------------------------
 BYTE   W10
 BYTE   N44  Bn1  v127
 BYTE   W12
 BYTE   N32  An2
 BYTE   W12
 BYTE   N24  Dn3
 BYTE   W12
 BYTE   N12  Fn3
 BYTE   W12
 BYTE   N44  En2
 BYTE   W12
 BYTE   N32  Gs2
 BYTE   W12
 BYTE   N24  Bn2
 BYTE   W12
 BYTE   N12  Dn3
 BYTE   W02
// 036   ----------------------------------------
 BYTE   W10
 BYTE   N92  An1
 BYTE   W12
 BYTE   N68  En2
 BYTE   W12
 BYTE   N36  An2
 BYTE   W12
 BYTE   N12  Bn2
 BYTE   W12
 BYTE   N44  Cn3
 BYTE   W12
 BYTE   N32  Bn2
 BYTE   W12
 BYTE   N24  Gn2
 BYTE   W12
 BYTE   N12  En2
 BYTE   W02
// 037   ----------------------------------------
 BYTE   W10
 BYTE   N92  Dn2
 BYTE   W12
 BYTE   N68  Fs2
 BYTE   W12
 BYTE   N36  An2
 BYTE   W12
 BYTE   N12  Cn3
 BYTE   W12
 BYTE   N44  Dn3
 BYTE   W12
 BYTE   N32  Cn3
 BYTE   W12
 BYTE   N24  An2
 BYTE   W12
 BYTE   N12  Fs2
 BYTE   W02
// 038   ----------------------------------------
 BYTE   W10
 BYTE   N92  Gn2
 BYTE   W12
 BYTE   N80  Dn3
 BYTE   W12
 BYTE   N68  Fn3
 BYTE   W12
 BYTE   N56  An3
 BYTE   W12
 BYTE   N44  Bn3
 BYTE   W36
 BYTE   W02
// 039   ----------------------------------------
Label_5_010FF1A9:
 BYTE   W10
 BYTE   N92  Cn2  v127
 BYTE   W12
 BYTE   N80  Gn2
 BYTE   W12
 BYTE   N68  En3
 BYTE   W60
 BYTE   W02
 BYTE   PEND 
// 040   ----------------------------------------
Label_5_010FF1B6:
 BYTE   W10
 BYTE   N92  En2  v127
 BYTE   W12
 BYTE   N80  Bn2
 BYTE   W12
 BYTE   N68  Dn3
 BYTE   W12
 BYTE   N56  Gn3
 BYTE   W48
 BYTE   W02
 BYTE   PEND 
// 041   ----------------------------------------
Label_5_010FF1C6:
 BYTE   W10
 BYTE   N92  An1  v127
 BYTE   W12
 BYTE   N80  En2
 BYTE   W12
 BYTE   N68  Cn3
 BYTE   W60
 BYTE   W02
 BYTE   PEND 
// 042   ----------------------------------------
Label_5_010FF1D3:
 BYTE   W10
 BYTE   N92  Dn2  v127
 BYTE   W12
 BYTE   N80  An2
 BYTE   W12
 BYTE   N68  Cn3
 BYTE   W12
 BYTE   N56  Fn3
 BYTE   W48
 BYTE   W02
 BYTE   PEND 
// 043   ----------------------------------------
Label_5_010FF1E3:
 BYTE   W10
 BYTE   N44  Gn2  v127
 BYTE   W12
 BYTE   N32  Bn2
 BYTE   W12
 BYTE   N22  Dn3
 BYTE   W24
 BYTE   N44  Fn2
 BYTE   W12
 BYTE   N32  Bn2
 BYTE   W12
 BYTE   N22  Dn3
 BYTE   W14
 BYTE   PEND 
// 044   ----------------------------------------
Label_5_010FF1F8:
 BYTE   W10
 BYTE   N44  En2  v127
 BYTE   W12
 BYTE   N32  Gn2
 BYTE   W12
 BYTE   N22  Cn3
 BYTE   W24
 BYTE   N44  Ds2
 BYTE   W12
 BYTE   N32  Fs2
 BYTE   W12
 BYTE   N22  Cn3
 BYTE   W14
 BYTE   PEND 
// 045   ----------------------------------------
 BYTE   W10
 BYTE   N44  Dn2
 BYTE   W12
 BYTE   N32  An2
 BYTE   W12
 BYTE   N22  Cn3
 BYTE   W24
 BYTE   N44  Dn2
 BYTE   W12
 BYTE   N32  Fn2
 BYTE   W12
 BYTE   N22  An2
 BYTE   W14
// 046   ----------------------------------------
 BYTE   W10
 BYTE   N44  Bn1
 BYTE   W12
 BYTE   N32  Fn2
 BYTE   W12
 BYTE   N68  Bn2
 BYTE   W12
 BYTE   N56  Dn3
 BYTE   W12
 BYTE   N44  Gn1
 BYTE   W36
 BYTE   W02
 BYTE   PATT
  POIN2 Label_5_010FF1A9
 BYTE   PATT
  POIN2 Label_5_010FF1B6
 BYTE   PATT
  POIN2 Label_5_010FF1C6
 BYTE   PATT
  POIN2 Label_5_010FF1D3
 BYTE   PATT
  POIN2 Label_5_010FF1E3
 BYTE   PATT
  POIN2 Label_5_010FF1F8
// 047   ----------------------------------------
 BYTE   W10
 BYTE   N44  Dn2  v127
 BYTE   W12
 BYTE   N32  An2
 BYTE   W12
 BYTE   N22  Cn3
 BYTE   W24
 BYTE   N44  Gn1
 BYTE   W12
 BYTE   N32  Fn2
 BYTE   W12
 BYTE   N22  Bn2
 BYTE   W14
// 048   ----------------------------------------
 BYTE   W10
 BYTE   N80  Cn2
 BYTE   N80  Gn2
 BYTE   N44  Fn3
 BYTE   W48
 BYTE   N36  En3
 BYTE   W36
 BYTE   W02
// 049   ----------------------------------------
 BYTE   GoTo
  POIN2 Label_5_010FF10F
 BYTE   FINE

//**************** Track 7 (Midi-Chn.6) ****************//

MOTHER3ItsOverMrGreen3339_007:
// 000   ----------------------------------------
 BYTE   KEYSH   MOTHER3ItsOverMrGreen3339_key+0
 BYTE   W96
// 001   ----------------------------------------
 BYTE   W96
// 002   ----------------------------------------
 BYTE   W96
// 003   ----------------------------------------
 BYTE   W96
// 004   ----------------------------------------
 BYTE   W96
// 005   ----------------------------------------
 BYTE   W96
// 006   ----------------------------------------
 BYTE   W96
// 007   ----------------------------------------
 BYTE   W96
// 008   ----------------------------------------
 BYTE   W96
// 009   ----------------------------------------
 BYTE   W96
// 010   ----------------------------------------
 BYTE   W96
// 011   ----------------------------------------
 BYTE   W96
// 012   ----------------------------------------
 BYTE   W96
// 013   ----------------------------------------
 BYTE   W96
// 014   ----------------------------------------
 BYTE   W96
// 015   ----------------------------------------
 BYTE   W96
// 016   ----------------------------------------
 BYTE   W96
// 017   ----------------------------------------
 BYTE   W96
// 018   ----------------------------------------
 BYTE   W96
// 019   ----------------------------------------
 BYTE   W96
// 020   ----------------------------------------
 BYTE   W96
// 021   ----------------------------------------
 BYTE   W96
// 022   ----------------------------------------
 BYTE   W96
// 023   ----------------------------------------
 BYTE   W96
// 024   ----------------------------------------
 BYTE   W96
// 025   ----------------------------------------
 BYTE   W96
// 026   ----------------------------------------
 BYTE   W96
// 027   ----------------------------------------
 BYTE   W96
// 028   ----------------------------------------
 BYTE   W96
// 029   ----------------------------------------
 BYTE   W96
// 030   ----------------------------------------
 BYTE   W96
// 031   ----------------------------------------
 BYTE   W88
 BYTE   VOICE   4
 BYTE   VOL   18*MOTHER3ItsOverMrGreen3339_mvl/mxv
 BYTE   PAN   c_v+63
 BYTE   BEND   c_v-4
 BYTE   W08
// 032   ----------------------------------------
Label_6_010FF2A3:
 BYTE   W16
 BYTE   N44  Cn4  v127
 BYTE   W48
 BYTE   An4
 BYTE   W32
// 033   ----------------------------------------
 BYTE   W16
 BYTE   N92  Gn4
 BYTE   W80
// 034   ----------------------------------------
 BYTE   W16
 BYTE   N44  An3
 BYTE   W48
 BYTE   Fn4
 BYTE   W32
// 035   ----------------------------------------
 BYTE   W16
 BYTE   N92  En4
 BYTE   W80
// 036   ----------------------------------------
 BYTE   W16
 BYTE   N44  Dn4
 BYTE   W48
 BYTE   N32  En4
 BYTE   W32
// 037   ----------------------------------------
 BYTE   W04
 BYTE   N11  Dn4
 BYTE   W12
 BYTE   N23
 BYTE   W24
 BYTE   N68  Cn4
 BYTE   W56
// 038   ----------------------------------------
 BYTE   W16
 BYTE   N44  An4
 BYTE   W48
 BYTE   N32
 BYTE   W32
// 039   ----------------------------------------
 BYTE   W02
 BYTE   N13
 BYTE   W14
 BYTE   N92  Gn4  v124
 BYTE   W80
// 040   ----------------------------------------
Label_6_010FF2D5:
 BYTE   W16
 BYTE   N88  Gn3  v127
 BYTE   W24
 BYTE   N72  Cn4
 BYTE   W24
 BYTE   N48  Dn4
 BYTE   W24
 BYTE   N24  En4
 BYTE   W08
 BYTE   PEND 
// 041   ----------------------------------------
 BYTE   W16
 BYTE   N92  Gn3  v124
 BYTE   W80
// 042   ----------------------------------------
Label_6_010FF2E9:
 BYTE   W16
 BYTE   N23  En3  v127
 BYTE   W24
 BYTE   An3
 BYTE   W24
 BYTE   Bn3
 BYTE   W24
 BYTE   Cn4  v124
 BYTE   W08
 BYTE   PEND 
// 043   ----------------------------------------
 BYTE   W16
 BYTE   N92  Dn4  v127
 BYTE   W80
// 044   ----------------------------------------
Label_6_010FF2FB:
 BYTE   W16
 BYTE   N23  Dn4  v127
 BYTE   W24
 BYTE   Dn4  v124
 BYTE   W24
 BYTE   En4  v127
 BYTE   W24
 BYTE   Dn4
 BYTE   W08
 BYTE   PEND 
// 045   ----------------------------------------
Label_6_010FF309:
 BYTE   W16
 BYTE   N23  Gn4  v127
 BYTE   W24
 BYTE   En4  v124
 BYTE   W24
 BYTE   N44  Cn4
 BYTE   W32
 BYTE   PEND 
// 046   ----------------------------------------
Label_6_010FF315:
 BYTE   W16
 BYTE   N44  An3  v127
 BYTE   W48
 BYTE   N32  Dn4
 BYTE   W32
 BYTE   PEND 
// 047   ----------------------------------------
 BYTE   W04
 BYTE   N11  En4  v124
 BYTE   W12
 BYTE   N92  Dn4
 BYTE   W80
 BYTE   PATT
  POIN2 Label_6_010FF2D5
// 048   ----------------------------------------
 BYTE   W16
 BYTE   N92  Gn3  v124
 BYTE   W80
 BYTE   PATT
  POIN2 Label_6_010FF2E9
// 049   ----------------------------------------
 BYTE   W16
 BYTE   N92  Dn4  v127
 BYTE   W80
 BYTE   PATT
  POIN2 Label_6_010FF2FB
 BYTE   PATT
  POIN2 Label_6_010FF309
 BYTE   PATT
  POIN2 Label_6_010FF315
// 050   ----------------------------------------
 BYTE   W04
 BYTE   N11  Cn4  v124
 BYTE   W12
 BYTE   N78
 BYTE   W80
// 051   ----------------------------------------
 BYTE   GoTo
  POIN2 Label_6_010FF2A3
 BYTE   FINE

//******************************************************//
	ALIGN 4

MOTHER3ItsOverMrGreen3339:
	BYTE	7	// NumTrks
	BYTE	0	// NumBlks
	BYTE	MOTHER3ItsOverMrGreen3339_pri	// Priority
	BYTE	MOTHER3ItsOverMrGreen3339_rev	// Reverb.
    
	POIN2	MOTHER3ItsOverMrGreen3339_grp
    
	POIN2	MOTHER3ItsOverMrGreen3339_001
	POIN2	MOTHER3ItsOverMrGreen3339_002
	POIN2	MOTHER3ItsOverMrGreen3339_003
	POIN2	MOTHER3ItsOverMrGreen3339_004
	POIN2	MOTHER3ItsOverMrGreen3339_005
	POIN2	MOTHER3ItsOverMrGreen3339_006
	POIN2	MOTHER3ItsOverMrGreen3339_007

	
