//Event file generated from Sappy .s format.
	#include "MPlayDef.event"

	#define	MOTHER3MasterPorkysThemeMrGreen3339_grp  voicegroup000
	#define	MOTHER3MasterPorkysThemeMrGreen3339_pri  0
	#define	MOTHER3MasterPorkysThemeMrGreen3339_rev  0
	#define	MOTHER3MasterPorkysThemeMrGreen3339_mvl  127
	#define	MOTHER3MasterPorkysThemeMrGreen3339_key  0
	#define	MOTHER3MasterPorkysThemeMrGreen3339_tbs  1
	#define	MOTHER3MasterPorkysThemeMrGreen3339_exg  0
	#define	MOTHER3MasterPorkysThemeMrGreen3339_cmp  1

	// .rodata
	//	MOTHER3MasterPorkysThemeMrGreen3339
	ALIGN 4


//**************** Track 1 (Midi-Chn.0) ****************//

MOTHER3MasterPorkysThemeMrGreen3339_001:
// 000   ----------------------------------------
 BYTE   KEYSH   MOTHER3MasterPorkysThemeMrGreen3339_key+0
 BYTE   TEMPO   160*MOTHER3MasterPorkysThemeMrGreen3339_tbs/2
 BYTE   PAN   c_v-18
 BYTE   VOL   53*MOTHER3MasterPorkysThemeMrGreen3339_mvl/mxv
 BYTE   W96
// 001   ----------------------------------------
 BYTE   W96
// 002   ----------------------------------------
 BYTE   W96
// 003   ----------------------------------------
 BYTE   W96
// 004   ----------------------------------------
 BYTE   W96
// 005   ----------------------------------------
 BYTE   W96
// 006   ----------------------------------------
 BYTE   W96
// 007   ----------------------------------------
 BYTE   W96
// 008   ----------------------------------------
 BYTE   W96
// 009   ----------------------------------------
 BYTE   W96
// 010   ----------------------------------------
 BYTE   W96
// 011   ----------------------------------------
 BYTE   W96
// 012   ----------------------------------------
 BYTE   W96
// 013   ----------------------------------------
 BYTE   W96
// 014   ----------------------------------------
 BYTE   W96
// 015   ----------------------------------------
 BYTE   W96
// 016   ----------------------------------------
 BYTE   W96
// 017   ----------------------------------------
 BYTE   W96
// 018   ----------------------------------------
 BYTE   W96
// 019   ----------------------------------------
 BYTE   W96
// 020   ----------------------------------------
 BYTE   W96
// 021   ----------------------------------------
 BYTE   W96
// 022   ----------------------------------------
 BYTE   W96
// 023   ----------------------------------------
 BYTE   W96
// 024   ----------------------------------------
 BYTE   W96
// 025   ----------------------------------------
 BYTE   W96
// 026   ----------------------------------------
 BYTE   W96
// 027   ----------------------------------------
 BYTE   VOICE   60
 BYTE   N36  Ds2  v064
 BYTE   N36  As2
 BYTE   W36
 BYTE   N12  Ds2  v084
 BYTE   N12  Cn3
 BYTE   W12
 BYTE   N11  Ds2  v072
 BYTE   N11  As2
 BYTE   W24
 BYTE   Ds2  v076
 BYTE   N11  An2
 BYTE   W24
// 028   ----------------------------------------
 BYTE   As1  v072
 BYTE   N11  Gn2
 BYTE   W24
 BYTE   As1  v076
 BYTE   N11  Ds2
 BYTE   W24
 BYTE   N48  As1  v080
 BYTE   N48  Gn2
 BYTE   W48
// 029   ----------------------------------------
 BYTE   N36  As1  v072
 BYTE   N36  Gn2
 BYTE   W36
 BYTE   N05  Ds2  v084
 BYTE   N05  An2
 BYTE   W12
 BYTE   N11  Ds2  v080
 BYTE   N11  As2
 BYTE   W24
 BYTE   Ds2  v072
 BYTE   N11  An2
 BYTE   W24
// 030   ----------------------------------------
 BYTE   N96  Ds2  v076
 BYTE   N96  Gn2
 BYTE   W96
// 031   ----------------------------------------
 BYTE   W96
// 032   ----------------------------------------
 BYTE   W96
// 033   ----------------------------------------
 BYTE   N36  Fn3  v072
 BYTE   W36
 BYTE   N05  Ds3  v068
 BYTE   W12
 BYTE   Dn3
 BYTE   W12
 BYTE   Cn3  v072
 BYTE   W12
 BYTE   As2  v068
 BYTE   W12
 BYTE   Cn3  v084
 BYTE   W12
// 034   ----------------------------------------
 BYTE   W96
// 035   ----------------------------------------
 BYTE   W96
// 036   ----------------------------------------
 BYTE   W96
// 037   ----------------------------------------
 BYTE   W96
// 038   ----------------------------------------
 BYTE   W96
// 039   ----------------------------------------
 BYTE   W96
// 040   ----------------------------------------
 BYTE   W96
// 041   ----------------------------------------
 BYTE   W96
// 042   ----------------------------------------
 BYTE   W96
// 043   ----------------------------------------
 BYTE   W96
// 044   ----------------------------------------
 BYTE   W96
// 045   ----------------------------------------
 BYTE   W96
// 046   ----------------------------------------
 BYTE   W96
// 047   ----------------------------------------
 BYTE   W96
// 048   ----------------------------------------
 BYTE   W96
// 049   ----------------------------------------
 BYTE   W96
// 050   ----------------------------------------
 BYTE   W96
// 051   ----------------------------------------
 BYTE   W96
// 052   ----------------------------------------
 BYTE   W96
// 053   ----------------------------------------
 BYTE   W96
// 054   ----------------------------------------
 BYTE   W96
// 055   ----------------------------------------
 BYTE   W96
// 056   ----------------------------------------
 BYTE   W96
// 057   ----------------------------------------
 BYTE   W96
// 058   ----------------------------------------
 BYTE   W96
// 059   ----------------------------------------
 BYTE   W96
// 060   ----------------------------------------
 BYTE   W96
// 061   ----------------------------------------
 BYTE   W96
// 062   ----------------------------------------
 BYTE   W96
// 063   ----------------------------------------
 BYTE   W96
// 064   ----------------------------------------
 BYTE   W96
// 065   ----------------------------------------
 BYTE   W96
// 066   ----------------------------------------
 BYTE   W96
// 067   ----------------------------------------
 BYTE   W96
// 068   ----------------------------------------
 BYTE   W96
// 069   ----------------------------------------
 BYTE   W96
// 070   ----------------------------------------
 BYTE   W96
// 071   ----------------------------------------
 BYTE   W96
// 072   ----------------------------------------
 BYTE   W96
// 073   ----------------------------------------
 BYTE   W96
// 074   ----------------------------------------
 BYTE   W96
// 075   ----------------------------------------
 BYTE   W96
// 076   ----------------------------------------
 BYTE   W96
// 077   ----------------------------------------
 BYTE   W96
// 078   ----------------------------------------
 BYTE   W96
// 079   ----------------------------------------
 BYTE   W96
// 080   ----------------------------------------
 BYTE   W96
// 081   ----------------------------------------
 BYTE   W96
// 082   ----------------------------------------
 BYTE   W96
// 083   ----------------------------------------
 BYTE   W96
// 084   ----------------------------------------
 BYTE   W96
// 085   ----------------------------------------
 BYTE   W96
// 086   ----------------------------------------
 BYTE   W96
// 087   ----------------------------------------
 BYTE   W96
// 088   ----------------------------------------
 BYTE   W96
// 089   ----------------------------------------
 BYTE   W96
// 090   ----------------------------------------
 BYTE   W96
// 091   ----------------------------------------
 BYTE   W96
// 092   ----------------------------------------
 BYTE   W96
// 093   ----------------------------------------
 BYTE   W96
// 094   ----------------------------------------
 BYTE   W96
// 095   ----------------------------------------
 BYTE   W96
// 096   ----------------------------------------
 BYTE   W96
// 097   ----------------------------------------
 BYTE   W96
// 098   ----------------------------------------
 BYTE   W96
// 099   ----------------------------------------
 BYTE   W96
// 100   ----------------------------------------
 BYTE   W96
// 101   ----------------------------------------
 BYTE   W96
// 102   ----------------------------------------
 BYTE   W96
// 103   ----------------------------------------
 BYTE   W96
// 104   ----------------------------------------
 BYTE   W96
// 105   ----------------------------------------
 BYTE   W96
// 106   ----------------------------------------
 BYTE   W96
// 107   ----------------------------------------
 BYTE   W96
// 108   ----------------------------------------
 BYTE   W96
// 109   ----------------------------------------
 BYTE   W96
 BYTE   FINE

//**************** Track 2 (Midi-Chn.1) ****************//

MOTHER3MasterPorkysThemeMrGreen3339_002:
// 000   ----------------------------------------
 BYTE   KEYSH   MOTHER3MasterPorkysThemeMrGreen3339_key+0
 BYTE   VOICE   127
 BYTE   PAN   c_v+0
 BYTE   VOL   51*MOTHER3MasterPorkysThemeMrGreen3339_mvl/mxv
 BYTE   N48  Cn1  v068
 BYTE   N48  En2
 BYTE   W48
 BYTE   Cn1  v084
 BYTE   N48  An2
 BYTE   W48
// 001   ----------------------------------------
Label_1_010D3E97:
 BYTE   N96  Cn1  v068
 BYTE   N96  Cs2
 BYTE   N96  En2
 BYTE   W96
 BYTE   PEND 
// 002   ----------------------------------------
 BYTE   W96
// 003   ----------------------------------------
 BYTE   N24  Cn1  v064
 BYTE   N24  Cs2
 BYTE   W24
 BYTE   As1  v072
 BYTE   W24
 BYTE   N15  Cn1  v084
 BYTE   N15  En2
 BYTE   W15
 BYTE   N08  Cn1  v056
 BYTE   W09
 BYTE   N24  As1  v092
 BYTE   W24
// 004   ----------------------------------------
 BYTE   Cn1  v076
 BYTE   N24  As1
 BYTE   W24
 BYTE   N24
 BYTE   W24
 BYTE   N15  Cn1
 BYTE   N15  As1
 BYTE   W15
 BYTE   N08  Cn1  v060
 BYTE   W09
 BYTE   N24  As1  v092
 BYTE   W24
// 005   ----------------------------------------
 BYTE   Cn1  v080
 BYTE   N24  As1
 BYTE   W24
 BYTE   N24
 BYTE   W24
 BYTE   N15  Cn1  v076
 BYTE   N15  As1
 BYTE   W15
 BYTE   N08  Cn1  v056
 BYTE   W09
 BYTE   N24  As1  v096
 BYTE   W24
// 006   ----------------------------------------
 BYTE   Cn1  v076
 BYTE   N24  As1
 BYTE   W24
 BYTE   As1  v080
 BYTE   W24
 BYTE   N15  Cn1
 BYTE   N15  As1
 BYTE   W15
 BYTE   N08  Cn1  v056
 BYTE   W09
 BYTE   N24  As1  v092
 BYTE   W24
// 007   ----------------------------------------
 BYTE   Cn1  v084
 BYTE   N24  Cs2
 BYTE   W24
 BYTE   As1  v076
 BYTE   W24
 BYTE   N15  Cn1  v088
 BYTE   N15  En2
 BYTE   W15
 BYTE   N08  Cn1  v056
 BYTE   W09
 BYTE   N24  As1  v096
 BYTE   W24
// 008   ----------------------------------------
 BYTE   Cn1  v084
 BYTE   N24  As1
 BYTE   W24
 BYTE   As1  v080
 BYTE   W24
 BYTE   N15  Cn1  v084
 BYTE   N15  As1
 BYTE   W15
 BYTE   N08  Cn1  v056
 BYTE   W09
 BYTE   N24  As1  v096
 BYTE   W24
// 009   ----------------------------------------
 BYTE   Cn1  v084
 BYTE   N24  As1
 BYTE   W24
 BYTE   As1  v072
 BYTE   W24
 BYTE   N15  Cn1  v080
 BYTE   N15  As1
 BYTE   W15
 BYTE   N08  Cn1  v052
 BYTE   W09
 BYTE   N24  As1  v096
 BYTE   W24
// 010   ----------------------------------------
 BYTE   Cn1  v080
 BYTE   N24  As1
 BYTE   W24
 BYTE   As1  v076
 BYTE   W24
 BYTE   N15  Cn1
 BYTE   N15  As1
 BYTE   W15
 BYTE   N08  Cn1  v052
 BYTE   W09
 BYTE   N24  As1  v096
 BYTE   W24
// 011   ----------------------------------------
 BYTE   Cn1  v088
 BYTE   N24  Cs2
 BYTE   W24
 BYTE   As1  v068
 BYTE   W24
 BYTE   N15  Cn1  v088
 BYTE   N15  En2
 BYTE   W15
 BYTE   N08  Cn1  v056
 BYTE   W09
 BYTE   N24  As1  v096
 BYTE   W24
// 012   ----------------------------------------
 BYTE   Cn1  v080
 BYTE   N24  As1
 BYTE   W24
 BYTE   As1  v076
 BYTE   W24
 BYTE   N15  Cn1  v084
 BYTE   N15  As1
 BYTE   W15
 BYTE   N08  Cn1  v060
 BYTE   W09
 BYTE   N24  As1  v092
 BYTE   W24
// 013   ----------------------------------------
 BYTE   Cn1  v080
 BYTE   N24  As1
 BYTE   W24
 BYTE   N24
 BYTE   W24
 BYTE   N15  Cn1  v076
 BYTE   N15  As1
 BYTE   W15
 BYTE   N08  Cn1  v056
 BYTE   W09
 BYTE   N24  As1  v092
 BYTE   W24
// 014   ----------------------------------------
 BYTE   Cn1  v080
 BYTE   N24  As1
 BYTE   W24
 BYTE   N24
 BYTE   W24
 BYTE   N15  Cn1
 BYTE   N15  As1
 BYTE   W15
 BYTE   N08  Cn1  v056
 BYTE   W09
 BYTE   N24  As1  v092
 BYTE   W24
// 015   ----------------------------------------
 BYTE   Cn1  v088
 BYTE   N24  Cs2
 BYTE   W24
 BYTE   As1  v080
 BYTE   W24
 BYTE   N15  Cn1  v084
 BYTE   N15  En2
 BYTE   W15
 BYTE   N08  Cn1  v056
 BYTE   W09
 BYTE   N24  As1  v096
 BYTE   W24
// 016   ----------------------------------------
 BYTE   Cn1  v076
 BYTE   N24  As1
 BYTE   W24
 BYTE   N24
 BYTE   W24
 BYTE   N15  Cn1
 BYTE   N15  As1
 BYTE   W15
 BYTE   N08  Cn1  v056
 BYTE   W09
 BYTE   N24  As1  v092
 BYTE   W24
// 017   ----------------------------------------
 BYTE   Cn1  v084
 BYTE   N24  As1
 BYTE   W24
 BYTE   As1  v076
 BYTE   W24
 BYTE   N15  Cn1
 BYTE   N15  As1
 BYTE   W15
 BYTE   N08  Cn1  v052
 BYTE   W09
 BYTE   N24  As1  v096
 BYTE   W24
// 018   ----------------------------------------
 BYTE   Cn1  v080
 BYTE   N24  As1
 BYTE   W24
 BYTE   N24
 BYTE   W24
 BYTE   N15  Cn1  v076
 BYTE   N15  As1
 BYTE   W15
 BYTE   N08  Cn1  v056
 BYTE   W09
 BYTE   N24  As1  v100
 BYTE   W24
// 019   ----------------------------------------
 BYTE   Cn1  v084
 BYTE   N24  Cs2
 BYTE   W24
 BYTE   As1  v076
 BYTE   W24
 BYTE   N15  Cn1  v084
 BYTE   N15  En2
 BYTE   W15
 BYTE   N08  Cn1  v060
 BYTE   W09
 BYTE   N24  As1  v092
 BYTE   W24
// 020   ----------------------------------------
 BYTE   Cn1  v080
 BYTE   N24  As1
 BYTE   W24
 BYTE   As1  v076
 BYTE   W24
 BYTE   N15  Cn1  v072
 BYTE   N15  As1
 BYTE   W15
 BYTE   N08  Cn1  v052
 BYTE   W09
 BYTE   N24  As1  v096
 BYTE   W24
// 021   ----------------------------------------
 BYTE   Cn1  v080
 BYTE   N24  As1
 BYTE   W24
 BYTE   As1  v076
 BYTE   W24
 BYTE   N15  Cn1
 BYTE   N15  As1
 BYTE   W15
 BYTE   N08  Cn1  v060
 BYTE   W09
 BYTE   N24  As1  v092
 BYTE   W24
// 022   ----------------------------------------
 BYTE   Cn1  v080
 BYTE   N24  As1
 BYTE   W24
 BYTE   As1  v076
 BYTE   W24
 BYTE   N15  Cn1  v080
 BYTE   N15  As1
 BYTE   W15
 BYTE   N08  Cn1  v056
 BYTE   W09
 BYTE   N24  As1  v100
 BYTE   W24
// 023   ----------------------------------------
 BYTE   Cn1  v084
 BYTE   N24  Cs2
 BYTE   W24
 BYTE   As1  v076
 BYTE   W24
 BYTE   N15  Cn1  v092
 BYTE   N15  En2
 BYTE   W15
 BYTE   N08  Cn1  v060
 BYTE   W09
 BYTE   N24  As1  v092
 BYTE   W24
// 024   ----------------------------------------
 BYTE   Cn1  v076
 BYTE   N24  As1
 BYTE   W24
 BYTE   As1  v080
 BYTE   W24
 BYTE   N15  Cn1  v076
 BYTE   N15  As1
 BYTE   W15
 BYTE   N08  Cn1  v056
 BYTE   W09
 BYTE   N24  As1  v092
 BYTE   W24
// 025   ----------------------------------------
 BYTE   Cn1  v080
 BYTE   N24  As1
 BYTE   W24
 BYTE   As1  v084
 BYTE   W24
 BYTE   N15  Cn1  v076
 BYTE   N15  As1
 BYTE   W15
 BYTE   N08  Cn1  v060
 BYTE   W09
 BYTE   N24  As1  v092
 BYTE   W24
// 026   ----------------------------------------
 BYTE   Cn1  v080
 BYTE   N24  As1
 BYTE   W24
 BYTE   As1  v076
 BYTE   W24
 BYTE   N15  Cn1
 BYTE   N15  As1
 BYTE   W15
 BYTE   N08  Cn1  v056
 BYTE   W09
 BYTE   N24  As1  v096
 BYTE   W24
// 027   ----------------------------------------
 BYTE   N48  Cn1  v092
 BYTE   N48  En2
 BYTE   W48
 BYTE   Cn1  v080
 BYTE   N48  Cs2
 BYTE   N48  En2
 BYTE   N48  Gn2
 BYTE   W48
// 028   ----------------------------------------
 BYTE   W96
// 029   ----------------------------------------
 BYTE   Cn1  v068
 BYTE   N48  En2
 BYTE   W48
 BYTE   Cn1  v076
 BYTE   N48  Cs2
 BYTE   N48  En2
 BYTE   N48  Gn2
 BYTE   W48
// 030   ----------------------------------------
 BYTE   W96
// 031   ----------------------------------------
 BYTE   An2  v068
 BYTE   W96
// 032   ----------------------------------------
 BYTE   W96
// 033   ----------------------------------------
 BYTE   W96
// 034   ----------------------------------------
 BYTE   Bn0
 BYTE   N48  Cs2
 BYTE   W48
 BYTE   Cn1  v084
 BYTE   N48  En2
 BYTE   N48  Gn2
 BYTE   W48
// 035   ----------------------------------------
 BYTE   W96
// 036   ----------------------------------------
Label_1_010D40D4:
 BYTE   N48  Cn1  v068
 BYTE   N48  En2
 BYTE   W48
 BYTE   Cn1  v088
 BYTE   N48  An2
 BYTE   W48
 BYTE   PEND 
// 037   ----------------------------------------
 BYTE   N96  Cn1  v072
 BYTE   N96  Cs2
 BYTE   N96  En2
 BYTE   W96
// 038   ----------------------------------------
 BYTE   W96
// 039   ----------------------------------------
 BYTE   N12  Cn1
 BYTE   N12  Cs2
 BYTE   W12
 BYTE   Cn1  v056
 BYTE   W12
 BYTE   As1  v096
 BYTE   W12
 BYTE   Cn1  v064
 BYTE   W12
 BYTE   En2  v096
 BYTE   W24
 BYTE   Cn1  v068
 BYTE   N12  As1
 BYTE   W24
// 040   ----------------------------------------
Label_1_010D40FF:
 BYTE   N12  Cn1  v072
 BYTE   N12  As1
 BYTE   W24
 BYTE   As1  v068
 BYTE   W24
 BYTE   As1  v072
 BYTE   W24
 BYTE   N12
 BYTE   W24
 BYTE   PEND 
// 041   ----------------------------------------
 BYTE   Cn1
 BYTE   N12  As1
 BYTE   W24
 BYTE   N12
 BYTE   W12
 BYTE   Cn1  v052
 BYTE   W12
 BYTE   As1  v096
 BYTE   W24
 BYTE   Cn1  v068
 BYTE   N12  As1
 BYTE   W12
 BYTE   Cn1  v052
 BYTE   W12
// 042   ----------------------------------------
 BYTE   As1  v096
 BYTE   W12
 BYTE   Cn1  v056
 BYTE   W12
 BYTE   Cn1  v092
 BYTE   N12  As1
 BYTE   W24
 BYTE   As1  v076
 BYTE   W24
 BYTE   As1  v068
 BYTE   W24
// 043   ----------------------------------------
 BYTE   Cn1
 BYTE   N12  Cs2
 BYTE   W12
 BYTE   Cn1  v060
 BYTE   W12
 BYTE   As1  v096
 BYTE   W12
 BYTE   Cn1  v056
 BYTE   W12
 BYTE   En2  v088
 BYTE   W24
 BYTE   Cn1  v072
 BYTE   N12  As1
 BYTE   W24
// 044   ----------------------------------------
Label_1_010D4148:
 BYTE   N12  Cn1  v068
 BYTE   N12  As1
 BYTE   W24
 BYTE   N12
 BYTE   W24
 BYTE   N12
 BYTE   W24
 BYTE   N12
 BYTE   W24
 BYTE   PEND 
// 045   ----------------------------------------
 BYTE   Cn1
 BYTE   N12  As1
 BYTE   W24
 BYTE   N12
 BYTE   W12
 BYTE   Cn1  v056
 BYTE   W12
 BYTE   As1  v096
 BYTE   W24
 BYTE   Cn1  v068
 BYTE   N12  As1
 BYTE   W12
 BYTE   Cn1  v056
 BYTE   W12
// 046   ----------------------------------------
 BYTE   As1  v092
 BYTE   W12
 BYTE   Cn1  v060
 BYTE   W12
 BYTE   Cn1  v096
 BYTE   N12  As1
 BYTE   W24
 BYTE   As1  v068
 BYTE   W24
 BYTE   As1  v064
 BYTE   W24
// 047   ----------------------------------------
 BYTE   Cn1  v068
 BYTE   N12  As1
 BYTE   W12
 BYTE   Cn1  v056
 BYTE   W12
 BYTE   As1  v100
 BYTE   W12
 BYTE   N03  Cn1  v060
 BYTE   W03
 BYTE   N04  Cn1  v072
 BYTE   W04
 BYTE   Cn1  v076
 BYTE   W05
 BYTE   N12  En2  v096
 BYTE   W24
 BYTE   Cn1  v072
 BYTE   N12  As1
 BYTE   W24
// 048   ----------------------------------------
 BYTE   Cn1
 BYTE   N12  As1
 BYTE   W24
 BYTE   N12
 BYTE   W24
 BYTE   N12
 BYTE   W24
 BYTE   As1  v068
 BYTE   W24
// 049   ----------------------------------------
 BYTE   Cn1
 BYTE   N12  As1
 BYTE   W24
 BYTE   As1  v072
 BYTE   W12
 BYTE   Cn1  v052
 BYTE   W12
 BYTE   As1  v092
 BYTE   W24
 BYTE   Cn1  v068
 BYTE   N12  As1
 BYTE   W12
 BYTE   Cn1  v056
 BYTE   W12
// 050   ----------------------------------------
 BYTE   As1  v100
 BYTE   W12
 BYTE   Cn1  v056
 BYTE   W12
 BYTE   Cn1  v096
 BYTE   N12  As1
 BYTE   W24
 BYTE   As1  v068
 BYTE   W24
 BYTE   As1  v072
 BYTE   W24
// 051   ----------------------------------------
 BYTE   Cn1  v068
 BYTE   N12  Cs2
 BYTE   W12
 BYTE   Cn1  v052
 BYTE   W12
 BYTE   As1  v092
 BYTE   W12
 BYTE   Cn1  v064
 BYTE   W12
 BYTE   En2  v092
 BYTE   W24
 BYTE   Cn1  v068
 BYTE   N12  As1
 BYTE   W24
// 052   ----------------------------------------
 BYTE   Cn1
 BYTE   N12  As1
 BYTE   W24
 BYTE   N12
 BYTE   W24
 BYTE   As1  v064
 BYTE   W24
 BYTE   As1  v072
 BYTE   W24
// 053   ----------------------------------------
 BYTE   Cn1
 BYTE   N12  As1
 BYTE   W24
 BYTE   As1  v068
 BYTE   W12
 BYTE   Cn1  v056
 BYTE   W12
 BYTE   As1  v096
 BYTE   W24
 BYTE   Cn1  v068
 BYTE   N12  As1
 BYTE   W12
 BYTE   Cn1  v060
 BYTE   W12
// 054   ----------------------------------------
 BYTE   As1  v092
 BYTE   W12
 BYTE   Cn1  v060
 BYTE   W12
 BYTE   Cn1  v096
 BYTE   N12  As1
 BYTE   W24
 BYTE   As1  v072
 BYTE   W24
 BYTE   As1  v068
 BYTE   W24
// 055   ----------------------------------------
 BYTE   Cn1
 BYTE   N12  As1
 BYTE   W12
 BYTE   Cn1  v056
 BYTE   W12
 BYTE   As1  v092
 BYTE   W12
 BYTE   N03  Cn1  v060
 BYTE   W03
 BYTE   N04  Cn1  v072
 BYTE   W04
 BYTE   Cn1  v076
 BYTE   W05
 BYTE   N12  En2  v100
 BYTE   W24
 BYTE   Cn1  v072
 BYTE   N12  As1
 BYTE   W24
// 056   ----------------------------------------
Label_1_010D4230:
 BYTE   N12  Cn1  v068
 BYTE   N12  As1
 BYTE   W24
 BYTE   As1  v072
 BYTE   W24
 BYTE   N12
 BYTE   W24
 BYTE   N12
 BYTE   W24
 BYTE   PEND 
// 057   ----------------------------------------
 BYTE   Cn1  v068
 BYTE   N12  As1
 BYTE   W24
 BYTE   N12
 BYTE   W12
 BYTE   Cn1  v060
 BYTE   W12
 BYTE   As1  v096
 BYTE   W24
 BYTE   Cn1  v072
 BYTE   N12  As1
 BYTE   W12
 BYTE   Cn1  v056
 BYTE   W12
// 058   ----------------------------------------
 BYTE   As1  v096
 BYTE   W12
 BYTE   Cn1  v060
 BYTE   W12
 BYTE   Cn1  v096
 BYTE   N12  As1
 BYTE   W24
 BYTE   As1  v064
 BYTE   W24
 BYTE   As1  v068
 BYTE   W24
// 059   ----------------------------------------
 BYTE   Cn1  v072
 BYTE   N12  Cs2
 BYTE   W12
 BYTE   Cn1  v056
 BYTE   W12
 BYTE   As1  v092
 BYTE   W12
 BYTE   Cn1  v060
 BYTE   W12
 BYTE   En2  v096
 BYTE   W24
 BYTE   Cn1  v064
 BYTE   N12  As1
 BYTE   W24
// 060   ----------------------------------------
 BYTE   Cn1  v068
 BYTE   N12  As1
 BYTE   W24
 BYTE   N12
 BYTE   W24
 BYTE   As1  v072
 BYTE   W24
 BYTE   N12
 BYTE   W24
// 061   ----------------------------------------
 BYTE   Cn1
 BYTE   N12  As1
 BYTE   W24
 BYTE   As1  v064
 BYTE   W12
 BYTE   Cn1  v056
 BYTE   W12
 BYTE   As1  v092
 BYTE   W24
 BYTE   Cn1  v068
 BYTE   N12  As1
 BYTE   W12
 BYTE   Cn1  v052
 BYTE   W12
// 062   ----------------------------------------
 BYTE   As1  v100
 BYTE   W12
 BYTE   Cn1  v060
 BYTE   W12
 BYTE   Cn1  v092
 BYTE   N12  As1
 BYTE   W24
 BYTE   As1  v064
 BYTE   W24
 BYTE   As1  v068
 BYTE   W24
// 063   ----------------------------------------
 BYTE   Cn1
 BYTE   N12  As1
 BYTE   W12
 BYTE   Cn1  v052
 BYTE   W12
 BYTE   As1  v092
 BYTE   W12
 BYTE   N03  Cn1  v056
 BYTE   W03
 BYTE   N04  Cn1  v072
 BYTE   W04
 BYTE   Cn1  v076
 BYTE   W05
 BYTE   N12  En2  v100
 BYTE   W24
 BYTE   Cn1  v072
 BYTE   N12  As1
 BYTE   W24
// 064   ----------------------------------------
 BYTE   Cn1  v068
 BYTE   N12  As1
 BYTE   W24
 BYTE   N12
 BYTE   W24
 BYTE   N12
 BYTE   W24
 BYTE   As1  v072
 BYTE   W24
// 065   ----------------------------------------
 BYTE   Cn1
 BYTE   N12  As1
 BYTE   W24
 BYTE   N12
 BYTE   W12
 BYTE   Cn1  v056
 BYTE   W12
 BYTE   As1  v096
 BYTE   W24
 BYTE   Cn1  v068
 BYTE   N12  As1
 BYTE   W12
 BYTE   Cn1  v060
 BYTE   W12
// 066   ----------------------------------------
Label_1_010D42EA:
 BYTE   N12  As1  v092
 BYTE   W12
 BYTE   Cn1  v060
 BYTE   W12
 BYTE   Cn1  v096
 BYTE   N12  As1
 BYTE   W24
 BYTE   As1  v068
 BYTE   W24
 BYTE   N12
 BYTE   W24
 BYTE   PEND 
// 067   ----------------------------------------
 BYTE   Cn1
 BYTE   N12  Cs2
 BYTE   W12
 BYTE   Cn1  v056
 BYTE   W12
 BYTE   As1  v096
 BYTE   W12
 BYTE   Cn1  v056
 BYTE   W12
 BYTE   En2  v088
 BYTE   W24
 BYTE   Cn1  v072
 BYTE   N12  As1
 BYTE   W24
 BYTE   PATT
  POIN2 Label_1_010D4148
// 068   ----------------------------------------
 BYTE   N12  Cn1  v072
 BYTE   N12  As1
 BYTE   W24
 BYTE   As1  v068
 BYTE   W12
 BYTE   Cn1  v056
 BYTE   W12
 BYTE   As1  v092
 BYTE   W24
 BYTE   Cn1  v068
 BYTE   N12  As1
 BYTE   W12
 BYTE   Cn1  v052
 BYTE   W12
 BYTE   PATT
  POIN2 Label_1_010D42EA
// 069   ----------------------------------------
 BYTE   N12  Cn1  v072
 BYTE   N12  As1
 BYTE   W12
 BYTE   Cn1  v052
 BYTE   W12
 BYTE   As1  v088
 BYTE   W12
 BYTE   N03  Cn1  v060
 BYTE   W03
 BYTE   N04  Cn1  v076
 BYTE   W04
 BYTE   N04
 BYTE   W05
 BYTE   N12  En2  v104
 BYTE   W24
 BYTE   Cn1  v072
 BYTE   N12  As1
 BYTE   W24
 BYTE   PATT
  POIN2 Label_1_010D4148
// 070   ----------------------------------------
 BYTE   N12  Cn1  v068
 BYTE   N12  As1
 BYTE   W24
 BYTE   N12
 BYTE   W12
 BYTE   Cn1  v056
 BYTE   W12
 BYTE   As1  v092
 BYTE   W24
 BYTE   Cn1  v064
 BYTE   N12  As1
 BYTE   W12
 BYTE   Cn1  v056
 BYTE   W12
// 071   ----------------------------------------
 BYTE   As1  v096
 BYTE   W12
 BYTE   Cn1  v064
 BYTE   W12
 BYTE   Cn1  v092
 BYTE   N12  As1
 BYTE   W24
 BYTE   As1  v068
 BYTE   W24
 BYTE   N12
 BYTE   W24
// 072   ----------------------------------------
 BYTE   Cn1  v072
 BYTE   N12  Cs2
 BYTE   W12
 BYTE   Cn1  v056
 BYTE   W12
 BYTE   As1  v092
 BYTE   W12
 BYTE   Cn1  v060
 BYTE   W12
 BYTE   En2  v092
 BYTE   W24
 BYTE   Cn1  v068
 BYTE   N12  As1
 BYTE   W24
 BYTE   PATT
  POIN2 Label_1_010D4148
// 073   ----------------------------------------
 BYTE   N12  Cn1  v072
 BYTE   N12  As1
 BYTE   W24
 BYTE   As1  v068
 BYTE   W12
 BYTE   Cn1  v060
 BYTE   W12
 BYTE   As1  v092
 BYTE   W24
 BYTE   Cn1  v068
 BYTE   N12  As1
 BYTE   W12
 BYTE   Cn1  v056
 BYTE   W12
// 074   ----------------------------------------
 BYTE   As1  v096
 BYTE   W12
 BYTE   Cn1  v056
 BYTE   W12
 BYTE   Cn1  v092
 BYTE   N12  As1
 BYTE   W24
 BYTE   As1  v064
 BYTE   W24
 BYTE   As1  v072
 BYTE   W24
// 075   ----------------------------------------
 BYTE   Cn1
 BYTE   N12  As1
 BYTE   W12
 BYTE   Cn1  v052
 BYTE   W12
 BYTE   As1  v092
 BYTE   W12
 BYTE   N03  Cn1  v060
 BYTE   W03
 BYTE   N04  Cn1  v076
 BYTE   W04
 BYTE   Cn1  v080
 BYTE   W05
 BYTE   N12  En2  v100
 BYTE   W24
 BYTE   Cn1  v068
 BYTE   N12  As1
 BYTE   W24
 BYTE   PATT
  POIN2 Label_1_010D40FF
// 076   ----------------------------------------
 BYTE   N12  Cn1  v068
 BYTE   N12  As1
 BYTE   W24
 BYTE   N12
 BYTE   W12
 BYTE   Cn1  v052
 BYTE   W12
 BYTE   As1  v092
 BYTE   W24
 BYTE   Cn1  v068
 BYTE   N12  As1
 BYTE   W12
 BYTE   Cn1  v056
 BYTE   W12
// 077   ----------------------------------------
 BYTE   As1  v100
 BYTE   W12
 BYTE   Cn1  v060
 BYTE   W12
 BYTE   Cn1  v096
 BYTE   N12  As1
 BYTE   W24
 BYTE   As1  v068
 BYTE   W24
 BYTE   As1  v072
 BYTE   W24
// 078   ----------------------------------------
 BYTE   Cn1
 BYTE   N12  Cs2
 BYTE   W12
 BYTE   Cn1  v056
 BYTE   W12
 BYTE   As1  v096
 BYTE   W12
 BYTE   Cn1  v060
 BYTE   W12
 BYTE   En2  v092
 BYTE   W24
 BYTE   Cn1  v068
 BYTE   N12  As1
 BYTE   W24
// 079   ----------------------------------------
 BYTE   Cn1  v072
 BYTE   N12  As1
 BYTE   W24
 BYTE   N12
 BYTE   W24
 BYTE   As1  v068
 BYTE   W24
 BYTE   N12
 BYTE   W24
// 080   ----------------------------------------
 BYTE   Cn1  v064
 BYTE   N12  As1
 BYTE   W24
 BYTE   As1  v068
 BYTE   W12
 BYTE   Cn1  v056
 BYTE   W12
 BYTE   As1  v092
 BYTE   W24
 BYTE   Cn1  v072
 BYTE   N12  As1
 BYTE   W12
 BYTE   Cn1  v052
 BYTE   W12
// 081   ----------------------------------------
 BYTE   As1  v096
 BYTE   W12
 BYTE   Cn1  v060
 BYTE   W12
 BYTE   Cn1  v092
 BYTE   N12  As1
 BYTE   W24
 BYTE   As1  v068
 BYTE   W24
 BYTE   As1  v072
 BYTE   W24
// 082   ----------------------------------------
 BYTE   Cn1  v068
 BYTE   N12  As1
 BYTE   W12
 BYTE   Cn1  v056
 BYTE   W12
 BYTE   As1  v092
 BYTE   W12
 BYTE   N03  Cn1  v060
 BYTE   W03
 BYTE   N04  Cn1  v072
 BYTE   W04
 BYTE   Cn1  v076
 BYTE   W05
 BYTE   N12  En2  v096
 BYTE   W24
 BYTE   Cn1  v068
 BYTE   N12  As1
 BYTE   W24
// 083   ----------------------------------------
 BYTE   Cn1
 BYTE   N12  As1
 BYTE   W24
 BYTE   As1  v076
 BYTE   W24
 BYTE   As1  v072
 BYTE   W24
 BYTE   As1  v064
 BYTE   W24
// 084   ----------------------------------------
 BYTE   Cn1  v072
 BYTE   N12  As1
 BYTE   W24
 BYTE   N12
 BYTE   W12
 BYTE   Cn1  v052
 BYTE   W12
 BYTE   As1  v096
 BYTE   W24
 BYTE   Cn1  v072
 BYTE   N12  As1
 BYTE   W12
 BYTE   Cn1  v056
 BYTE   W12
// 085   ----------------------------------------
 BYTE   As1  v096
 BYTE   W12
 BYTE   Cn1  v060
 BYTE   W12
 BYTE   Cn1  v096
 BYTE   N12  As1
 BYTE   W24
 BYTE   As1  v068
 BYTE   W24
 BYTE   N12
 BYTE   W24
// 086   ----------------------------------------
 BYTE   Cn1
 BYTE   N12  Cs2
 BYTE   W12
 BYTE   Cn1  v056
 BYTE   W12
 BYTE   As1  v088
 BYTE   W12
 BYTE   Cn1  v064
 BYTE   W12
 BYTE   En2  v096
 BYTE   W24
 BYTE   Cn1  v068
 BYTE   N12  As1
 BYTE   W24
 BYTE   PATT
  POIN2 Label_1_010D4230
// 087   ----------------------------------------
 BYTE   N12  Cn1  v072
 BYTE   N12  As1
 BYTE   W24
 BYTE   As1  v068
 BYTE   W12
 BYTE   Cn1  v052
 BYTE   W12
 BYTE   As1  v096
 BYTE   W24
 BYTE   Cn1  v072
 BYTE   N12  As1
 BYTE   W12
 BYTE   Cn1  v056
 BYTE   W12
// 088   ----------------------------------------
Label_1_010D44D3:
 BYTE   N12  As1  v092
 BYTE   W12
 BYTE   Cn1  v060
 BYTE   W12
 BYTE   Cn1  v096
 BYTE   N12  As1
 BYTE   W24
 BYTE   As1  v068
 BYTE   W24
 BYTE   As1  v072
 BYTE   W24
 BYTE   PEND 
// 089   ----------------------------------------
 BYTE   Cn1  v068
 BYTE   N12  As1
 BYTE   W12
 BYTE   Cn1  v052
 BYTE   W12
 BYTE   As1  v096
 BYTE   W12
 BYTE   N03  Cn1  v064
 BYTE   W03
 BYTE   N04  Cn1  v076
 BYTE   W04
 BYTE   N04
 BYTE   W05
 BYTE   N12  En2  v096
 BYTE   W24
 BYTE   Cn1  v068
 BYTE   N12  As1
 BYTE   W24
// 090   ----------------------------------------
 BYTE   Cn1  v072
 BYTE   N12  As1
 BYTE   W24
 BYTE   As1  v068
 BYTE   W24
 BYTE   N12
 BYTE   W24
 BYTE   N12
 BYTE   W24
// 091   ----------------------------------------
 BYTE   Cn1
 BYTE   N12  As1
 BYTE   W24
 BYTE   As1  v072
 BYTE   W12
 BYTE   Cn1  v056
 BYTE   W12
 BYTE   As1  v096
 BYTE   W24
 BYTE   Cn1  v072
 BYTE   N12  As1
 BYTE   W12
 BYTE   Cn1  v056
 BYTE   W12
// 092   ----------------------------------------
 BYTE   As1  v096
 BYTE   W12
 BYTE   Cn1  v060
 BYTE   W12
 BYTE   Cn1  v096
 BYTE   N12  As1
 BYTE   W24
 BYTE   As1  v072
 BYTE   W24
 BYTE   As1  v068
 BYTE   W24
// 093   ----------------------------------------
 BYTE   Cn1
 BYTE   N12  Cs2
 BYTE   W12
 BYTE   Cn1  v056
 BYTE   W12
 BYTE   As1  v096
 BYTE   W12
 BYTE   Cn1  v060
 BYTE   W12
 BYTE   En2  v092
 BYTE   W24
 BYTE   Cn1  v072
 BYTE   N12  As1
 BYTE   W24
// 094   ----------------------------------------
 BYTE   Cn1  v068
 BYTE   N12  As1
 BYTE   W24
 BYTE   N12
 BYTE   W24
 BYTE   As1  v064
 BYTE   W24
 BYTE   N12
 BYTE   W24
// 095   ----------------------------------------
 BYTE   Cn1  v068
 BYTE   N12  As1
 BYTE   W24
 BYTE   N12
 BYTE   W12
 BYTE   Cn1  v060
 BYTE   W12
 BYTE   As1  v096
 BYTE   W24
 BYTE   Cn1  v068
 BYTE   N12  As1
 BYTE   W12
 BYTE   Cn1  v056
 BYTE   W12
// 096   ----------------------------------------
 BYTE   As1  v092
 BYTE   W12
 BYTE   Cn1  v060
 BYTE   W12
 BYTE   Cn1  v100
 BYTE   N12  As1
 BYTE   W24
 BYTE   As1  v068
 BYTE   W24
 BYTE   As1  v076
 BYTE   W24
// 097   ----------------------------------------
 BYTE   Cn1  v068
 BYTE   N12  As1
 BYTE   W12
 BYTE   Cn1  v056
 BYTE   W12
 BYTE   As1  v096
 BYTE   W12
 BYTE   N03  Cn1  v056
 BYTE   W03
 BYTE   N04  Cn1  v072
 BYTE   W04
 BYTE   Cn1  v076
 BYTE   W05
 BYTE   N12  En2  v092
 BYTE   W24
 BYTE   Cn1  v064
 BYTE   N12  As1
 BYTE   W24
// 098   ----------------------------------------
 BYTE   Cn1  v068
 BYTE   N12  As1
 BYTE   W24
 BYTE   As1  v072
 BYTE   W24
 BYTE   As1  v068
 BYTE   W24
 BYTE   N12
 BYTE   W24
// 099   ----------------------------------------
 BYTE   Cn1  v076
 BYTE   N12  As1
 BYTE   W24
 BYTE   As1  v068
 BYTE   W12
 BYTE   Cn1  v056
 BYTE   W12
 BYTE   As1  v088
 BYTE   W24
 BYTE   Cn1  v068
 BYTE   N12  As1
 BYTE   W12
 BYTE   Cn1  v056
 BYTE   W12
 BYTE   PATT
  POIN2 Label_1_010D44D3
 BYTE   PATT
  POIN2 Label_1_010D40D4
 BYTE   PATT
  POIN2 Label_1_010D3E97
// 100   ----------------------------------------
 BYTE   W96
 BYTE   FINE

//**************** Track 3 (Midi-Chn.2) ****************//

MOTHER3MasterPorkysThemeMrGreen3339_003:
// 000   ----------------------------------------
 BYTE   KEYSH   MOTHER3MasterPorkysThemeMrGreen3339_key+0
 BYTE   PAN   c_v-18
 BYTE   VOL   53*MOTHER3MasterPorkysThemeMrGreen3339_mvl/mxv
 BYTE   W96
// 001   ----------------------------------------
 BYTE   W96
// 002   ----------------------------------------
 BYTE   W96
// 003   ----------------------------------------
 BYTE   W96
// 004   ----------------------------------------
 BYTE   W96
// 005   ----------------------------------------
 BYTE   W96
// 006   ----------------------------------------
 BYTE   W96
// 007   ----------------------------------------
 BYTE   W96
// 008   ----------------------------------------
 BYTE   W96
// 009   ----------------------------------------
 BYTE   W96
// 010   ----------------------------------------
 BYTE   W96
// 011   ----------------------------------------
 BYTE   W96
// 012   ----------------------------------------
 BYTE   W96
// 013   ----------------------------------------
 BYTE   W96
// 014   ----------------------------------------
 BYTE   W96
// 015   ----------------------------------------
 BYTE   W96
// 016   ----------------------------------------
 BYTE   W96
// 017   ----------------------------------------
 BYTE   W96
// 018   ----------------------------------------
 BYTE   W96
// 019   ----------------------------------------
 BYTE   W96
// 020   ----------------------------------------
 BYTE   W96
// 021   ----------------------------------------
 BYTE   VOICE   60
 BYTE   TIE  Fn2  v080
 BYTE   W96
// 022   ----------------------------------------
 BYTE   W48
 BYTE   EOT
 BYTE   N48  Ds2  v100
 BYTE   W48
// 023   ----------------------------------------
 BYTE   TIE  As2  v108
 BYTE   W96
// 024   ----------------------------------------
 BYTE   W48
 BYTE   EOT
 BYTE   N48  Gs2  v092
 BYTE   W48
// 025   ----------------------------------------
 BYTE   Gn2  v096
 BYTE   W48
 BYTE   TIE  Ds2
 BYTE   W48
// 026   ----------------------------------------
 BYTE   N96  Ds3  v124
 BYTE   W96
// 027   ----------------------------------------
 BYTE   EOT
 BYTE   Ds2
 BYTE   N36  Ds3  v116
 BYTE   N36  As3
 BYTE   W36
 BYTE   N12  Ds3  v104
 BYTE   N12  Cn4
 BYTE   W12
 BYTE   N11  Ds3  v100
 BYTE   N11  As3
 BYTE   W24
 BYTE   Ds3  v092
 BYTE   N11  An3
 BYTE   W24
// 028   ----------------------------------------
 BYTE   As2
 BYTE   N11  Gn3
 BYTE   W24
 BYTE   As2
 BYTE   N11  Ds3
 BYTE   W24
 BYTE   N48  As2  v112
 BYTE   N48  Gn3
 BYTE   W48
// 029   ----------------------------------------
 BYTE   N36  As2  v100
 BYTE   N36  Gn3
 BYTE   W36
 BYTE   N05  Ds3
 BYTE   N05  An3
 BYTE   W12
 BYTE   N11  Ds3  v108
 BYTE   N11  As3
 BYTE   W24
 BYTE   Ds3  v096
 BYTE   N11  An3
 BYTE   W24
// 030   ----------------------------------------
 BYTE   N96  Ds3  v092
 BYTE   N96  Gn3
 BYTE   W96
// 031   ----------------------------------------
 BYTE   N36  Gs2  v104
 BYTE   N36  Gs3
 BYTE   W36
 BYTE   N05  Gn2  v092
 BYTE   N05  Gn3
 BYTE   W12
 BYTE   Fn2
 BYTE   N05  Fn3
 BYTE   W12
 BYTE   Ds2
 BYTE   N05  Ds3
 BYTE   W12
 BYTE   Dn2  v096
 BYTE   N05  Dn3
 BYTE   W12
 BYTE   Cn2
 BYTE   N05  Cn3
 BYTE   W12
// 032   ----------------------------------------
 BYTE   N36
 BYTE   W36
 BYTE   N05  As2
 BYTE   W12
 BYTE   Gs2
 BYTE   W12
 BYTE   Gn2  v100
 BYTE   W12
 BYTE   Fn2  v092
 BYTE   W12
 BYTE   Ds2  v100
 BYTE   W12
// 033   ----------------------------------------
 BYTE   N36  Cn3  v120
 BYTE   W36
 BYTE   N05  As2  v100
 BYTE   W12
 BYTE   Gs2  v092
 BYTE   W12
 BYTE   Gn2  v096
 BYTE   W12
 BYTE   Fn2
 BYTE   W12
 BYTE   Gn2  v104
 BYTE   W12
// 034   ----------------------------------------
 BYTE   W96
// 035   ----------------------------------------
 BYTE   W96
// 036   ----------------------------------------
 BYTE   W96
// 037   ----------------------------------------
 BYTE   W96
// 038   ----------------------------------------
 BYTE   W96
// 039   ----------------------------------------
 BYTE   W96
// 040   ----------------------------------------
 BYTE   W96
// 041   ----------------------------------------
 BYTE   W96
// 042   ----------------------------------------
 BYTE   W96
// 043   ----------------------------------------
 BYTE   W96
// 044   ----------------------------------------
 BYTE   W96
// 045   ----------------------------------------
 BYTE   W96
// 046   ----------------------------------------
 BYTE   W96
// 047   ----------------------------------------
 BYTE   W96
// 048   ----------------------------------------
 BYTE   W96
// 049   ----------------------------------------
 BYTE   W96
// 050   ----------------------------------------
 BYTE   W96
// 051   ----------------------------------------
 BYTE   W96
// 052   ----------------------------------------
 BYTE   W96
// 053   ----------------------------------------
 BYTE   W96
// 054   ----------------------------------------
 BYTE   W96
// 055   ----------------------------------------
 BYTE   W96
// 056   ----------------------------------------
 BYTE   W96
// 057   ----------------------------------------
 BYTE   W96
// 058   ----------------------------------------
 BYTE   W96
// 059   ----------------------------------------
 BYTE   W96
// 060   ----------------------------------------
 BYTE   W96
// 061   ----------------------------------------
 BYTE   W96
// 062   ----------------------------------------
 BYTE   W96
// 063   ----------------------------------------
 BYTE   W96
// 064   ----------------------------------------
 BYTE   W96
// 065   ----------------------------------------
 BYTE   W96
// 066   ----------------------------------------
 BYTE   W96
// 067   ----------------------------------------
 BYTE   W96
// 068   ----------------------------------------
 BYTE   W96
// 069   ----------------------------------------
 BYTE   W96
// 070   ----------------------------------------
 BYTE   W96
// 071   ----------------------------------------
 BYTE   W96
// 072   ----------------------------------------
 BYTE   W96
// 073   ----------------------------------------
 BYTE   W96
// 074   ----------------------------------------
 BYTE   W96
// 075   ----------------------------------------
 BYTE   W96
// 076   ----------------------------------------
 BYTE   W96
// 077   ----------------------------------------
 BYTE   W96
// 078   ----------------------------------------
 BYTE   W96
// 079   ----------------------------------------
 BYTE   W96
// 080   ----------------------------------------
 BYTE   W96
// 081   ----------------------------------------
 BYTE   W96
// 082   ----------------------------------------
 BYTE   W96
// 083   ----------------------------------------
 BYTE   W96
// 084   ----------------------------------------
 BYTE   W96
// 085   ----------------------------------------
 BYTE   W96
// 086   ----------------------------------------
 BYTE   W96
// 087   ----------------------------------------
 BYTE   W96
// 088   ----------------------------------------
 BYTE   W96
// 089   ----------------------------------------
 BYTE   W96
// 090   ----------------------------------------
 BYTE   W96
// 091   ----------------------------------------
 BYTE   W96
// 092   ----------------------------------------
 BYTE   W96
// 093   ----------------------------------------
 BYTE   W96
// 094   ----------------------------------------
 BYTE   W96
// 095   ----------------------------------------
 BYTE   W96
// 096   ----------------------------------------
 BYTE   W96
// 097   ----------------------------------------
 BYTE   W96
// 098   ----------------------------------------
 BYTE   W96
// 099   ----------------------------------------
 BYTE   W96
// 100   ----------------------------------------
 BYTE   W96
// 101   ----------------------------------------
 BYTE   W96
// 102   ----------------------------------------
 BYTE   W96
// 103   ----------------------------------------
 BYTE   W96
// 104   ----------------------------------------
 BYTE   W96
// 105   ----------------------------------------
 BYTE   W96
// 106   ----------------------------------------
 BYTE   W96
// 107   ----------------------------------------
 BYTE   W96
// 108   ----------------------------------------
 BYTE   W96
// 109   ----------------------------------------
 BYTE   W96
 BYTE   FINE

//**************** Track 4 (Midi-Chn.3) ****************//

MOTHER3MasterPorkysThemeMrGreen3339_004:
// 000   ----------------------------------------
 BYTE   KEYSH   MOTHER3MasterPorkysThemeMrGreen3339_key+0
 BYTE   PAN   c_v+17
 BYTE   VOL   53*MOTHER3MasterPorkysThemeMrGreen3339_mvl/mxv
 BYTE   W96
// 001   ----------------------------------------
 BYTE   W96
// 002   ----------------------------------------
 BYTE   W96
// 003   ----------------------------------------
 BYTE   W96
// 004   ----------------------------------------
 BYTE   W96
// 005   ----------------------------------------
 BYTE   W96
// 006   ----------------------------------------
 BYTE   W90
 BYTE   VOICE   56
 BYTE   N01  Fn4  v064
 BYTE   W03
 BYTE   An4  v084
 BYTE   W03
// 007   ----------------------------------------
 BYTE   N11  As4
 BYTE   W90
 BYTE   N01  An4  v072
 BYTE   W03
 BYTE   As4  v076
 BYTE   W03
// 008   ----------------------------------------
 BYTE   N11  Cn5  v084
 BYTE   W36
 BYTE   An4  v068
 BYTE   W36
 BYTE   N08  Fn4
 BYTE   W18
 BYTE   N01  Fn4  v076
 BYTE   W03
 BYTE   An4  v084
 BYTE   W03
// 009   ----------------------------------------
 BYTE   N11  As4
 BYTE   W90
 BYTE   N01  An4  v072
 BYTE   W03
 BYTE   As4  v084
 BYTE   W03
// 010   ----------------------------------------
 BYTE   N11  Cn5  v080
 BYTE   W36
 BYTE   An4  v072
 BYTE   W36
 BYTE   N08  Fn4
 BYTE   W24
// 011   ----------------------------------------
 BYTE   W96
// 012   ----------------------------------------
 BYTE   W96
// 013   ----------------------------------------
 BYTE   W96
// 014   ----------------------------------------
 BYTE   W96
// 015   ----------------------------------------
 BYTE   W96
// 016   ----------------------------------------
 BYTE   W96
// 017   ----------------------------------------
 BYTE   W96
// 018   ----------------------------------------
 BYTE   W96
// 019   ----------------------------------------
 BYTE   W96
// 020   ----------------------------------------
 BYTE   W96
// 021   ----------------------------------------
 BYTE   W96
// 022   ----------------------------------------
 BYTE   W96
// 023   ----------------------------------------
 BYTE   W96
// 024   ----------------------------------------
 BYTE   W96
// 025   ----------------------------------------
 BYTE   W96
// 026   ----------------------------------------
 BYTE   W96
// 027   ----------------------------------------
 BYTE   W96
// 028   ----------------------------------------
 BYTE   W24
 BYTE   N12  As3
 BYTE   N12  Ds4
 BYTE   W12
 BYTE   N05  Dn4  v080
 BYTE   N05  Fn4
 BYTE   W12
 BYTE   N12  Ds4  v084
 BYTE   N12  Gn4
 BYTE   W24
 BYTE   As3  v072
 BYTE   N12  Ds4
 BYTE   W12
 BYTE   N05  Dn4  v076
 BYTE   N05  Fn4
 BYTE   W12
// 029   ----------------------------------------
 BYTE   N12  Ds4  v088
 BYTE   N12  Gn4
 BYTE   W96
// 030   ----------------------------------------
 BYTE   W24
 BYTE   As3  v068
 BYTE   N12  Ds4
 BYTE   W12
 BYTE   N05  Dn4  v084
 BYTE   N05  Fn4
 BYTE   W12
 BYTE   N12  Ds4
 BYTE   N12  Gn4
 BYTE   W24
 BYTE   As3  v072
 BYTE   N12  Ds4
 BYTE   W12
 BYTE   N05  Dn4  v080
 BYTE   N05  Fn4
 BYTE   W12
// 031   ----------------------------------------
 BYTE   W96
// 032   ----------------------------------------
 BYTE   N36  Gs3  v064
 BYTE   W36
 BYTE   N05  Gn3  v072
 BYTE   W12
 BYTE   Fn3  v068
 BYTE   W12
 BYTE   Ds3
 BYTE   W12
 BYTE   Dn3  v080
 BYTE   W12
 BYTE   Cn3  v068
 BYTE   W12
// 033   ----------------------------------------
 BYTE   N36  Gs4  v096
 BYTE   W36
 BYTE   N05  Gn4  v076
 BYTE   W12
 BYTE   Fn4
 BYTE   W12
 BYTE   Ds4  v072
 BYTE   W12
 BYTE   Dn4  v080
 BYTE   W12
 BYTE   Ds4  v072
 BYTE   W12
// 034   ----------------------------------------
 BYTE   W96
// 035   ----------------------------------------
 BYTE   W96
// 036   ----------------------------------------
 BYTE   W96
// 037   ----------------------------------------
 BYTE   W96
// 038   ----------------------------------------
 BYTE   W96
// 039   ----------------------------------------
 BYTE   W96
// 040   ----------------------------------------
 BYTE   W96
// 041   ----------------------------------------
 BYTE   W96
// 042   ----------------------------------------
 BYTE   W96
// 043   ----------------------------------------
 BYTE   W96
// 044   ----------------------------------------
 BYTE   W96
// 045   ----------------------------------------
 BYTE   W96
// 046   ----------------------------------------
 BYTE   W96
// 047   ----------------------------------------
 BYTE   W96
// 048   ----------------------------------------
 BYTE   W96
// 049   ----------------------------------------
 BYTE   W96
// 050   ----------------------------------------
 BYTE   W96
// 051   ----------------------------------------
 BYTE   W96
// 052   ----------------------------------------
 BYTE   W96
// 053   ----------------------------------------
 BYTE   W96
// 054   ----------------------------------------
 BYTE   W96
// 055   ----------------------------------------
 BYTE   W96
// 056   ----------------------------------------
 BYTE   W96
// 057   ----------------------------------------
 BYTE   W96
// 058   ----------------------------------------
 BYTE   W96
// 059   ----------------------------------------
 BYTE   W96
// 060   ----------------------------------------
 BYTE   W96
// 061   ----------------------------------------
 BYTE   W96
// 062   ----------------------------------------
 BYTE   W96
// 063   ----------------------------------------
 BYTE   W96
// 064   ----------------------------------------
 BYTE   W24
 BYTE   N12  Ds4  v092
 BYTE   N12  Gn4
 BYTE   W12
 BYTE   Fn4  v108
 BYTE   N12  An4
 BYTE   W12
 BYTE   Gn4  v104
 BYTE   N12  As4
 BYTE   W24
 BYTE   Ds4  v092
 BYTE   N12  Gn4
 BYTE   W12
 BYTE   Fn4  v104
 BYTE   N12  An4
 BYTE   W12
// 065   ----------------------------------------
 BYTE   Gn4  v108
 BYTE   N12  As4
 BYTE   W96
// 066   ----------------------------------------
 BYTE   W42
 BYTE   N03  As4  v100
 BYTE   W03
 BYTE   Bn4  v104
 BYTE   W03
 BYTE   N12  Gn4  v108
 BYTE   N12  Cn5
 BYTE   W12
 BYTE   Gn4  v100
 BYTE   N12  Cn5
 BYTE   W36
// 067   ----------------------------------------
 BYTE   W96
// 068   ----------------------------------------
 BYTE   W24
 BYTE   Cn4  v088
 BYTE   N12  Ds4
 BYTE   W12
 BYTE   Dn4  v108
 BYTE   N12  Fn4
 BYTE   W12
 BYTE   Ds4
 BYTE   N12  Fs4
 BYTE   W24
 BYTE   Cn4  v096
 BYTE   N12  Ds4
 BYTE   W12
 BYTE   Dn4  v100
 BYTE   N12  Fn4
 BYTE   W12
// 069   ----------------------------------------
 BYTE   Ds4  v104
 BYTE   N12  Fs4
 BYTE   W96
// 070   ----------------------------------------
 BYTE   W12
 BYTE   Gs3  v092
 BYTE   N12  Cn4
 BYTE   W12
 BYTE   Cn4  v108
 BYTE   N12  Ds4
 BYTE   W12
 BYTE   Gs3  v092
 BYTE   N12  Cn4
 BYTE   W12
 BYTE   Ds4  v112
 BYTE   N12  Fs4
 BYTE   W12
 BYTE   Gs3  v092
 BYTE   N12  Cn4
 BYTE   W12
 BYTE   Fn4  v120
 BYTE   N12  Gs4
 BYTE   W12
 BYTE   Gs4  v112
 BYTE   N12  Cn5
 BYTE   W12
// 071   ----------------------------------------
 BYTE   W96
// 072   ----------------------------------------
 BYTE   W96
// 073   ----------------------------------------
 BYTE   W24
 BYTE   Gs4  v092
 BYTE   N12  Cn5
 BYTE   W36
 BYTE   Gs4  v096
 BYTE   N12  Cn5
 BYTE   W36
// 074   ----------------------------------------
 BYTE   W96
// 075   ----------------------------------------
 BYTE   W96
// 076   ----------------------------------------
 BYTE   W96
// 077   ----------------------------------------
 BYTE   W96
// 078   ----------------------------------------
 BYTE   W96
// 079   ----------------------------------------
 BYTE   W96
// 080   ----------------------------------------
 BYTE   W96
// 081   ----------------------------------------
 BYTE   W96
// 082   ----------------------------------------
 BYTE   W96
// 083   ----------------------------------------
 BYTE   W96
// 084   ----------------------------------------
 BYTE   W96
// 085   ----------------------------------------
 BYTE   W96
// 086   ----------------------------------------
 BYTE   W96
// 087   ----------------------------------------
 BYTE   W96
// 088   ----------------------------------------
 BYTE   W96
// 089   ----------------------------------------
 BYTE   W96
// 090   ----------------------------------------
 BYTE   W96
// 091   ----------------------------------------
 BYTE   W96
// 092   ----------------------------------------
 BYTE   W96
// 093   ----------------------------------------
 BYTE   W96
// 094   ----------------------------------------
 BYTE   W96
// 095   ----------------------------------------
 BYTE   W96
// 096   ----------------------------------------
 BYTE   W24
 BYTE   Ds4  v092
 BYTE   N12  Gn4
 BYTE   W12
 BYTE   Fn4  v104
 BYTE   N12  An4
 BYTE   W12
 BYTE   Gn4  v108
 BYTE   N12  As4
 BYTE   W24
 BYTE   Ds4  v092
 BYTE   N12  Gn4
 BYTE   W12
 BYTE   Fn4  v104
 BYTE   N12  An4
 BYTE   W12
// 097   ----------------------------------------
 BYTE   Gn4  v112
 BYTE   N12  As4
 BYTE   W96
// 098   ----------------------------------------
 BYTE   W42
 BYTE   N03  As4  v088
 BYTE   W03
 BYTE   Bn4  v104
 BYTE   W03
 BYTE   N12  Gn4  v108
 BYTE   N12  Cn5
 BYTE   W12
 BYTE   Gn4  v104
 BYTE   N12  Cn5
 BYTE   W36
// 099   ----------------------------------------
 BYTE   W96
// 100   ----------------------------------------
 BYTE   W24
 BYTE   Cn4  v092
 BYTE   N12  Ds4
 BYTE   W12
 BYTE   Dn4  v108
 BYTE   N12  Fn4
 BYTE   W12
 BYTE   Ds4
 BYTE   N12  Fs4
 BYTE   W24
 BYTE   Cn4  v092
 BYTE   N12  Ds4
 BYTE   W12
 BYTE   Dn4  v108
 BYTE   N12  Fn4
 BYTE   W12
// 101   ----------------------------------------
 BYTE   Ds4
 BYTE   N12  Fs4
 BYTE   W96
// 102   ----------------------------------------
 BYTE   W12
 BYTE   Gs3  v092
 BYTE   N12  Cn4
 BYTE   W12
 BYTE   Cn4  v108
 BYTE   N12  Ds4
 BYTE   W12
 BYTE   Gs3  v096
 BYTE   N12  Cn4
 BYTE   W12
 BYTE   Ds4  v116
 BYTE   N12  Fs4
 BYTE   W12
 BYTE   Gs3  v092
 BYTE   N12  Cn4
 BYTE   W12
 BYTE   Fn4  v116
 BYTE   N12  Gs4
 BYTE   W12
 BYTE   Gs4  v112
 BYTE   N12  Cn5
 BYTE   W12
// 103   ----------------------------------------
 BYTE   W96
// 104   ----------------------------------------
 BYTE   W96
// 105   ----------------------------------------
 BYTE   W24
 BYTE   Gs4  v096
 BYTE   N12  Cn5
 BYTE   W36
 BYTE   Gs4  v092
 BYTE   N12  Cn5
 BYTE   W36
// 106   ----------------------------------------
 BYTE   W96
// 107   ----------------------------------------
 BYTE   W96
// 108   ----------------------------------------
 BYTE   W96
// 109   ----------------------------------------
 BYTE   W96
 BYTE   FINE

//**************** Track 5 (Midi-Chn.4) ****************//

MOTHER3MasterPorkysThemeMrGreen3339_005:
// 000   ----------------------------------------
 BYTE   KEYSH   MOTHER3MasterPorkysThemeMrGreen3339_key+0
 BYTE   PAN   c_v+25
 BYTE   VOL   51*MOTHER3MasterPorkysThemeMrGreen3339_mvl/mxv
 BYTE   W96
// 001   ----------------------------------------
 BYTE   VOICE   47
 BYTE   N12  Gn1  v112
 BYTE   W12
 BYTE   N24  Gn1  v124
 BYTE   W24
 BYTE   N36  Gn1  v076
 BYTE   W60
// 002   ----------------------------------------
Label_4_010D48ED:
 BYTE   N12  Gn1  v116
 BYTE   W12
 BYTE   N24  Gn1  v120
 BYTE   W24
 BYTE   N36  Gn1  v076
 BYTE   W60
 BYTE   PEND 
// 003   ----------------------------------------
 BYTE   N07  Cn2  v108
 BYTE   W07
 BYTE   Gn1  v116
 BYTE   W08
 BYTE   N08  Cn2  v124
 BYTE   W09
 BYTE   N15  Gn2  v127
 BYTE   W15
 BYTE   N08  Gn1  v108
 BYTE   W09
 BYTE   N07  Cn2  v127
 BYTE   W07
 BYTE   Gn1  v112
 BYTE   W08
 BYTE   N08  Cn2  v124
 BYTE   W09
 BYTE   N15  Gn2  v127
 BYTE   W15
 BYTE   N08  Gn1  v112
 BYTE   W09
// 004   ----------------------------------------
 BYTE   N07  Cn2  v120
 BYTE   W07
 BYTE   Gn1  v116
 BYTE   W08
 BYTE   N08  Cn2  v124
 BYTE   W09
 BYTE   N15  Gn2  v127
 BYTE   W15
 BYTE   N08  Gn1  v108
 BYTE   W09
 BYTE   N07  Cn2  v124
 BYTE   W07
 BYTE   Gn1  v120
 BYTE   W08
 BYTE   N08  Cn2  v127
 BYTE   W09
 BYTE   N15  Gn2
 BYTE   W15
 BYTE   N08  Gn1  v112
 BYTE   W09
// 005   ----------------------------------------
 BYTE   N07  Cn2  v124
 BYTE   W07
 BYTE   Gn1  v120
 BYTE   W08
 BYTE   N08  Cn2  v124
 BYTE   W09
 BYTE   N15  Gn2  v127
 BYTE   W15
 BYTE   N08  Gn1  v108
 BYTE   W09
 BYTE   N07  Cn2  v127
 BYTE   W07
 BYTE   Gn1  v116
 BYTE   W08
 BYTE   N08  Cn2  v124
 BYTE   W09
 BYTE   N15  Gn2  v127
 BYTE   W15
 BYTE   N08  Gn1  v112
 BYTE   W09
// 006   ----------------------------------------
 BYTE   N07  Cn2  v127
 BYTE   W07
 BYTE   Gn1  v120
 BYTE   W08
 BYTE   N08  Cn2  v127
 BYTE   W09
 BYTE   N15  Gn2
 BYTE   W15
 BYTE   N08  Gn1  v112
 BYTE   W09
 BYTE   N07  Cn2  v120
 BYTE   W07
 BYTE   Gn1  v116
 BYTE   W08
 BYTE   N08  Cn2  v124
 BYTE   W09
 BYTE   N15  Gn2  v127
 BYTE   W15
 BYTE   N08  Gn1  v116
 BYTE   W09
// 007   ----------------------------------------
 BYTE   N07  Cn2  v124
 BYTE   W07
 BYTE   Gn1  v120
 BYTE   W08
 BYTE   N08  Cn2  v124
 BYTE   W09
 BYTE   N15  Gn2  v127
 BYTE   W15
 BYTE   N08  Gn1  v116
 BYTE   W09
 BYTE   N07  Cn2  v127
 BYTE   W07
 BYTE   Gn1  v116
 BYTE   W08
 BYTE   N08  Cn2  v127
 BYTE   W09
 BYTE   N15  Gn2  v124
 BYTE   W15
 BYTE   N08  Gn1  v112
 BYTE   W09
// 008   ----------------------------------------
 BYTE   N07  Cn2  v124
 BYTE   W07
 BYTE   Gn1  v116
 BYTE   W08
 BYTE   N08  Cn2  v124
 BYTE   W09
 BYTE   N15  Gn2  v127
 BYTE   W15
 BYTE   N08  Gn1  v112
 BYTE   W09
 BYTE   N07  Cn2  v120
 BYTE   W07
 BYTE   Gn1  v116
 BYTE   W08
 BYTE   N08  Cn2  v124
 BYTE   W09
 BYTE   N15  Gn2  v127
 BYTE   W15
 BYTE   N08  Gn1  v116
 BYTE   W09
// 009   ----------------------------------------
 BYTE   N07  Cn2  v120
 BYTE   W07
 BYTE   Gn1  v124
 BYTE   W08
 BYTE   N08  Cn2
 BYTE   W09
 BYTE   N15  Gn2  v127
 BYTE   W15
 BYTE   N08  Gn1  v116
 BYTE   W09
 BYTE   N07  Cn2  v124
 BYTE   W07
 BYTE   Gn1  v120
 BYTE   W08
 BYTE   N08  Cn2  v127
 BYTE   W09
 BYTE   N15  Gn2
 BYTE   W15
 BYTE   N08  Gn1  v112
 BYTE   W09
// 010   ----------------------------------------
 BYTE   N07  Cn2  v127
 BYTE   W07
 BYTE   Gn1  v120
 BYTE   W08
 BYTE   N08  Cn2  v127
 BYTE   W09
 BYTE   N15  Gn2  v124
 BYTE   W15
 BYTE   N08  Gn1  v112
 BYTE   W09
 BYTE   N07  Cn2  v127
 BYTE   W07
 BYTE   Gn1  v116
 BYTE   W08
 BYTE   N08  Cn2  v127
 BYTE   W09
 BYTE   N15  Gn2
 BYTE   W15
 BYTE   N08  Gn1  v112
 BYTE   W09
// 011   ----------------------------------------
 BYTE   N07  Cn2  v124
 BYTE   W07
 BYTE   Gn1  v116
 BYTE   W08
 BYTE   N08  Cn2  v127
 BYTE   W09
 BYTE   N15  Gn2
 BYTE   W15
 BYTE   N08  Gn1  v112
 BYTE   W09
 BYTE   N07  Cn2  v124
 BYTE   W07
 BYTE   Gn1  v120
 BYTE   W08
 BYTE   N08  Cn2  v124
 BYTE   W09
 BYTE   N15  Gn2  v127
 BYTE   W15
 BYTE   N08  Gn1  v116
 BYTE   W09
// 012   ----------------------------------------
 BYTE   N07  Cn2  v124
 BYTE   W07
 BYTE   Gn1  v120
 BYTE   W08
 BYTE   N08  Cn2  v127
 BYTE   W09
 BYTE   N15  Gn2
 BYTE   W15
 BYTE   N08  Gn1  v116
 BYTE   W09
 BYTE   N07  Cn2  v127
 BYTE   W07
 BYTE   Gn1  v120
 BYTE   W08
 BYTE   N08  Cn2  v124
 BYTE   W09
 BYTE   N15  Gn2  v127
 BYTE   W15
 BYTE   N08  Gn1  v108
 BYTE   W09
// 013   ----------------------------------------
 BYTE   N07  Cn2  v127
 BYTE   W07
 BYTE   Gn1  v116
 BYTE   W08
 BYTE   N08  Cn2  v127
 BYTE   W09
 BYTE   N15  Gn2
 BYTE   W15
 BYTE   N08  Gn1  v112
 BYTE   W09
 BYTE   N07  Cn2  v127
 BYTE   W07
 BYTE   Gn1  v120
 BYTE   W08
 BYTE   N08  Cn2  v124
 BYTE   W09
 BYTE   N15  Gn2  v127
 BYTE   W15
 BYTE   N08  Gn1  v112
 BYTE   W09
// 014   ----------------------------------------
 BYTE   N07  Cn2  v127
 BYTE   W07
 BYTE   Gn1  v120
 BYTE   W08
 BYTE   N08  Cn2  v127
 BYTE   W09
 BYTE   N15  Gn2
 BYTE   W15
 BYTE   N08  Gn1  v116
 BYTE   W09
 BYTE   N07  Cn2  v127
 BYTE   W07
 BYTE   Gn1  v120
 BYTE   W08
 BYTE   N08  Cn2  v124
 BYTE   W09
 BYTE   N15  Gn2  v127
 BYTE   W15
 BYTE   N08  Gn1  v112
 BYTE   W09
// 015   ----------------------------------------
 BYTE   N07  Ds2  v124
 BYTE   W07
 BYTE   As1  v116
 BYTE   W08
 BYTE   N08  Ds2  v124
 BYTE   W09
 BYTE   N15  As2  v127
 BYTE   W15
 BYTE   N08  As1  v112
 BYTE   W09
 BYTE   N07  Ds2  v120
 BYTE   W07
 BYTE   As1  v116
 BYTE   W08
 BYTE   N08  Ds2  v127
 BYTE   W09
 BYTE   N15  As2  v124
 BYTE   W15
 BYTE   N08  As1  v116
 BYTE   W09
// 016   ----------------------------------------
 BYTE   N07  Ds2  v124
 BYTE   W07
 BYTE   As1  v120
 BYTE   W08
 BYTE   N08  Ds2  v124
 BYTE   W09
 BYTE   N15  As2  v127
 BYTE   W15
 BYTE   N08  As1  v112
 BYTE   W09
 BYTE   N07  Ds2  v124
 BYTE   W07
 BYTE   As1  v120
 BYTE   W08
 BYTE   N08  Ds2  v124
 BYTE   W09
 BYTE   N15  As2  v127
 BYTE   W15
 BYTE   N08  As1  v112
 BYTE   W09
// 017   ----------------------------------------
 BYTE   N07  Ds2  v127
 BYTE   W07
 BYTE   As1  v120
 BYTE   W08
 BYTE   N08  Ds2  v127
 BYTE   W09
 BYTE   N15  As2
 BYTE   W15
 BYTE   N08  As1  v116
 BYTE   W09
 BYTE   N07  Ds2  v120
 BYTE   W07
 BYTE   As1  v116
 BYTE   W08
 BYTE   N08  Ds2  v120
 BYTE   W09
 BYTE   N15  As2  v127
 BYTE   W15
 BYTE   N08  As1  v112
 BYTE   W09
// 018   ----------------------------------------
 BYTE   N07  Ds2  v120
 BYTE   W07
 BYTE   As1  v116
 BYTE   W08
 BYTE   N08  Ds2  v124
 BYTE   W09
 BYTE   N15  As2
 BYTE   W15
 BYTE   N08  As1  v112
 BYTE   W09
 BYTE   N07  Ds2  v124
 BYTE   W07
 BYTE   As1  v120
 BYTE   W08
 BYTE   N08  Ds2  v127
 BYTE   W09
 BYTE   N15  As2
 BYTE   W15
 BYTE   N08  As1  v112
 BYTE   W09
// 019   ----------------------------------------
 BYTE   N07  Cn2  v120
 BYTE   W07
 BYTE   Gn1  v116
 BYTE   W08
 BYTE   N08  Cn2  v124
 BYTE   W09
 BYTE   N15  Gn2  v127
 BYTE   W15
 BYTE   N08  Gn1  v108
 BYTE   W09
 BYTE   N07  Cn2  v127
 BYTE   W07
 BYTE   Gn1  v112
 BYTE   W08
 BYTE   N08  Cn2  v124
 BYTE   W09
 BYTE   N15  Gn2  v127
 BYTE   W15
 BYTE   N08  Gn1  v112
 BYTE   W09
// 020   ----------------------------------------
 BYTE   N07  Cn2  v127
 BYTE   W07
 BYTE   Gn1  v120
 BYTE   W08
 BYTE   N08  Cn2  v124
 BYTE   W09
 BYTE   N15  Gn2  v127
 BYTE   W15
 BYTE   N08  Gn1  v112
 BYTE   W09
 BYTE   N07  Cn2  v120
 BYTE   W07
 BYTE   Gn1  v116
 BYTE   W08
 BYTE   N08  Cn2  v127
 BYTE   W09
 BYTE   N15  Gn2
 BYTE   W15
 BYTE   N08  Gn1  v112
 BYTE   W09
// 021   ----------------------------------------
 BYTE   N07  Cn2  v127
 BYTE   W07
 BYTE   Gn1  v120
 BYTE   W08
 BYTE   N08  Cn2  v124
 BYTE   W09
 BYTE   N15  Gn2  v127
 BYTE   W15
 BYTE   N08  Gn1  v112
 BYTE   W09
 BYTE   N07  Cn2  v124
 BYTE   W07
 BYTE   Gn1  v116
 BYTE   W08
 BYTE   N08  Cn2  v124
 BYTE   W09
 BYTE   N15  Gn2  v127
 BYTE   W15
 BYTE   N08  Gn1  v116
 BYTE   W09
// 022   ----------------------------------------
 BYTE   N07  Cn2  v127
 BYTE   W07
 BYTE   Gn1  v116
 BYTE   W08
 BYTE   N08  Cn2  v124
 BYTE   W09
 BYTE   N15  Gn2  v127
 BYTE   W15
 BYTE   N08  Gn1  v108
 BYTE   W09
 BYTE   N07  Cn2  v124
 BYTE   W07
 BYTE   Gn1  v116
 BYTE   W08
 BYTE   N08  Cn2  v124
 BYTE   W09
 BYTE   N15  Gn2  v127
 BYTE   W15
 BYTE   N08  Gn1  v112
 BYTE   W09
// 023   ----------------------------------------
 BYTE   N07  Ds2  v124
 BYTE   W07
 BYTE   As1  v116
 BYTE   W08
 BYTE   N08  Ds2  v124
 BYTE   W09
 BYTE   N15  As2  v127
 BYTE   W15
 BYTE   N08  As1  v112
 BYTE   W09
 BYTE   N07  Ds2  v124
 BYTE   W07
 BYTE   As1  v116
 BYTE   W08
 BYTE   N08  Ds2  v124
 BYTE   W09
 BYTE   N15  As2
 BYTE   W15
 BYTE   N08  As1  v116
 BYTE   W09
// 024   ----------------------------------------
 BYTE   N07  Ds2  v127
 BYTE   W07
 BYTE   As1  v120
 BYTE   W08
 BYTE   N08  Ds2  v127
 BYTE   W09
 BYTE   N15  As2  v124
 BYTE   W15
 BYTE   N08  As1  v112
 BYTE   W09
 BYTE   N07  Ds2  v120
 BYTE   W07
 BYTE   As1
 BYTE   W08
 BYTE   N08  Ds2  v124
 BYTE   W09
 BYTE   N15  As2  v127
 BYTE   W15
 BYTE   N08  As1  v108
 BYTE   W09
// 025   ----------------------------------------
 BYTE   N07  Ds2  v124
 BYTE   W07
 BYTE   As1  v116
 BYTE   W08
 BYTE   N08  Ds2  v120
 BYTE   W09
 BYTE   N15  As2  v127
 BYTE   W15
 BYTE   N08  As1  v112
 BYTE   W09
 BYTE   N07  Ds2  v127
 BYTE   W07
 BYTE   As1  v120
 BYTE   W08
 BYTE   N08  Ds2  v127
 BYTE   W09
 BYTE   N15  As2
 BYTE   W15
 BYTE   N08  As1  v116
 BYTE   W09
// 026   ----------------------------------------
 BYTE   N07  Ds2  v127
 BYTE   W07
 BYTE   As1  v120
 BYTE   W08
 BYTE   N08  Ds2  v124
 BYTE   W09
 BYTE   N15  As2  v127
 BYTE   W15
 BYTE   N08  As1  v116
 BYTE   W09
 BYTE   N07  Ds2  v124
 BYTE   W07
 BYTE   As1  v116
 BYTE   W08
 BYTE   N08  Ds2  v120
 BYTE   W09
 BYTE   N15  As2  v127
 BYTE   W15
 BYTE   N08  As1  v112
 BYTE   W09
// 027   ----------------------------------------
 BYTE   N48  Ds2  v104
 BYTE   W48
 BYTE   N48
 BYTE   W48
// 028   ----------------------------------------
 BYTE   W24
 BYTE   N07  As1  v096
 BYTE   W07
 BYTE   N07
 BYTE   W08
 BYTE   N08  As1  v104
 BYTE   W09
 BYTE   N24  En2  v108
 BYTE   W24
 BYTE   N07  As1  v100
 BYTE   W07
 BYTE   As1  v104
 BYTE   W08
 BYTE   N08
 BYTE   W09
// 029   ----------------------------------------
 BYTE   N48  Ds2  v108
 BYTE   W48
 BYTE   Ds2  v104
 BYTE   W48
// 030   ----------------------------------------
 BYTE   W24
 BYTE   N07  As1  v096
 BYTE   W07
 BYTE   As1  v100
 BYTE   W08
 BYTE   N08  As1  v104
 BYTE   W09
 BYTE   N24  En2  v108
 BYTE   W24
 BYTE   N07  As1  v092
 BYTE   W07
 BYTE   As1  v096
 BYTE   W08
 BYTE   N08  As1  v100
 BYTE   W09
// 031   ----------------------------------------
 BYTE   N48  Ds2  v108
 BYTE   W96
// 032   ----------------------------------------
 BYTE   W96
// 033   ----------------------------------------
 BYTE   W96
// 034   ----------------------------------------
 BYTE   Dn2  v092
 BYTE   W48
 BYTE   Gn1
 BYTE   W48
// 035   ----------------------------------------
 BYTE   N24  Cn2  v108
 BYTE   W24
 BYTE   N07  Gn1  v100
 BYTE   W07
 BYTE   Gn1  v104
 BYTE   W08
 BYTE   N08  Gn1  v100
 BYTE   W09
 BYTE   N24  Cn2  v108
 BYTE   W24
 BYTE   N07  Gn1  v096
 BYTE   W07
 BYTE   Gn1  v100
 BYTE   W08
 BYTE   N08  Gn1  v104
 BYTE   W09
// 036   ----------------------------------------
 BYTE   W96
// 037   ----------------------------------------
Label_4_010D4CE4:
 BYTE   N12  Gn1  v112
 BYTE   W12
 BYTE   N24  Gn1  v120
 BYTE   W24
 BYTE   N36  Gn1  v076
 BYTE   W60
 BYTE   PEND 
// 038   ----------------------------------------
 BYTE   N12  Gn1  v116
 BYTE   W12
 BYTE   N24  Gn1  v124
 BYTE   W24
 BYTE   N36  Gn1  v076
 BYTE   W60
// 039   ----------------------------------------
 BYTE   W96
// 040   ----------------------------------------
 BYTE   W96
// 041   ----------------------------------------
 BYTE   W96
// 042   ----------------------------------------
 BYTE   W96
// 043   ----------------------------------------
Label_4_010D4D01:
 BYTE   N48  Cn2  v072
 BYTE   W48
 BYTE   Cn2  v076
 BYTE   W48
 BYTE   PEND 
// 044   ----------------------------------------
 BYTE   W96
// 045   ----------------------------------------
 BYTE   Cn2  v068
 BYTE   W48
 BYTE   Cn2  v076
 BYTE   W48
// 046   ----------------------------------------
Label_4_010D4D10:
 BYTE   W72
 BYTE   N07  Gn1  v068
 BYTE   W07
 BYTE   Gn1  v080
 BYTE   W08
 BYTE   N08  Gn1  v076
 BYTE   W09
 BYTE   PEND 
// 047   ----------------------------------------
Label_4_010D4D1D:
 BYTE   N48  Cn2  v080
 BYTE   W48
 BYTE   Cn2  v076
 BYTE   W48
 BYTE   PEND 
// 048   ----------------------------------------
 BYTE   W96
 BYTE   PATT
  POIN2 Label_4_010D4D01
// 049   ----------------------------------------
 BYTE   W72
 BYTE   N07  Dn1  v072
 BYTE   W07
 BYTE   N07
 BYTE   W08
 BYTE   N08  Dn1  v080
 BYTE   W09
// 050   ----------------------------------------
Label_4_010D4D36:
 BYTE   N48  Gs1  v084
 BYTE   W48
 BYTE   Gs1  v076
 BYTE   W48
 BYTE   PEND 
// 051   ----------------------------------------
 BYTE   W96
// 052   ----------------------------------------
Label_4_010D4D3F:
 BYTE   N48  Gs1  v072
 BYTE   W48
 BYTE   Gs1  v080
 BYTE   W48
 BYTE   PEND 
// 053   ----------------------------------------
 BYTE   W72
 BYTE   N07  Ds2  v072
 BYTE   W07
 BYTE   N07
 BYTE   W08
 BYTE   N08  Ds2  v076
 BYTE   W09
// 054   ----------------------------------------
Label_4_010D4D52:
 BYTE   N48  Gs1  v072
 BYTE   W48
 BYTE   N48
 BYTE   W48
 BYTE   PEND 
// 055   ----------------------------------------
 BYTE   W96
// 056   ----------------------------------------
 BYTE   Gs1  v068
 BYTE   W48
 BYTE   Gs1  v080
 BYTE   W48
// 057   ----------------------------------------
 BYTE   W72
 BYTE   N07  Gn1  v076
 BYTE   W07
 BYTE   N07
 BYTE   W08
 BYTE   N08
 BYTE   W09
 BYTE   PATT
  POIN2 Label_4_010D4D1D
// 058   ----------------------------------------
 BYTE   W96
// 059   ----------------------------------------
 BYTE   N48  Cn2  v064
 BYTE   W48
 BYTE   Cn2  v072
 BYTE   W48
// 060   ----------------------------------------
 BYTE   W72
 BYTE   N07  Gn1  v068
 BYTE   W07
 BYTE   Gn1  v076
 BYTE   W08
 BYTE   N08  Gn1  v080
 BYTE   W09
// 061   ----------------------------------------
 BYTE   N48  Cn2
 BYTE   W48
 BYTE   N48
 BYTE   W48
// 062   ----------------------------------------
 BYTE   W96
// 063   ----------------------------------------
 BYTE   Cn2  v072
 BYTE   W48
 BYTE   Cn2  v080
 BYTE   W48
// 064   ----------------------------------------
 BYTE   W72
 BYTE   N07  Dn1  v072
 BYTE   W07
 BYTE   Dn1  v068
 BYTE   W08
 BYTE   N08  Dn1  v080
 BYTE   W09
 BYTE   PATT
  POIN2 Label_4_010D4D36
// 065   ----------------------------------------
 BYTE   W96
// 066   ----------------------------------------
Label_4_010D4DA0:
 BYTE   N48  Gs1  v068
 BYTE   W48
 BYTE   Gs1  v072
 BYTE   W48
 BYTE   PEND 
// 067   ----------------------------------------
 BYTE   W72
 BYTE   N07  Ds2
 BYTE   W07
 BYTE   Ds2  v080
 BYTE   W08
 BYTE   N08  Ds2  v076
 BYTE   W09
// 068   ----------------------------------------
Label_4_010D4DB3:
 BYTE   N48  Gs1  v068
 BYTE   W48
 BYTE   Gs1  v076
 BYTE   W48
 BYTE   PEND 
// 069   ----------------------------------------
 BYTE   W96
 BYTE   PATT
  POIN2 Label_4_010D4D3F
// 070   ----------------------------------------
 BYTE   W72
 BYTE   N07  Gn1  v072
 BYTE   W07
 BYTE   Gn1  v076
 BYTE   W08
 BYTE   N08
 BYTE   W09
 BYTE   PATT
  POIN2 Label_4_010D4D1D
// 071   ----------------------------------------
 BYTE   W96
// 072   ----------------------------------------
 BYTE   N48  Cn2  v068
 BYTE   W48
 BYTE   Cn2  v080
 BYTE   W48
// 073   ----------------------------------------
 BYTE   W72
 BYTE   N07  Gn1  v068
 BYTE   W07
 BYTE   Gn1  v072
 BYTE   W08
 BYTE   N08  Gn1  v076
 BYTE   W09
// 074   ----------------------------------------
 BYTE   N48  Cn2  v080
 BYTE   W48
 BYTE   Cn2  v072
 BYTE   W48
// 075   ----------------------------------------
 BYTE   W96
 BYTE   PATT
  POIN2 Label_4_010D4D01
// 076   ----------------------------------------
 BYTE   W72
 BYTE   N07  Dn1  v068
 BYTE   W07
 BYTE   Dn1  v080
 BYTE   W08
 BYTE   N08  Dn1  v076
 BYTE   W09
// 077   ----------------------------------------
 BYTE   N48  Gs1  v084
 BYTE   W48
 BYTE   Gs1  v072
 BYTE   W48
// 078   ----------------------------------------
 BYTE   W96
 BYTE   PATT
  POIN2 Label_4_010D4DA0
// 079   ----------------------------------------
 BYTE   W72
 BYTE   N07  Ds2  v068
 BYTE   W07
 BYTE   Ds2  v080
 BYTE   W08
 BYTE   N08  Ds2  v076
 BYTE   W09
// 080   ----------------------------------------
 BYTE   N48  Gs1  v072
 BYTE   W48
 BYTE   Gs1  v076
 BYTE   W48
// 081   ----------------------------------------
 BYTE   W96
 BYTE   PATT
  POIN2 Label_4_010D4DB3
 BYTE   PATT
  POIN2 Label_4_010D4D10
// 082   ----------------------------------------
Label_4_010D4E28:
 BYTE   N48  Cn2  v084
 BYTE   W48
 BYTE   Cn2  v076
 BYTE   W48
 BYTE   PEND 
// 083   ----------------------------------------
 BYTE   W96
// 084   ----------------------------------------
 BYTE   Cn2  v072
 BYTE   W48
 BYTE   N48
 BYTE   W48
// 085   ----------------------------------------
 BYTE   W72
 BYTE   N07  Gn1  v068
 BYTE   W07
 BYTE   Gn1  v072
 BYTE   W08
 BYTE   N08  Gn1  v080
 BYTE   W09
 BYTE   PATT
  POIN2 Label_4_010D4E28
// 086   ----------------------------------------
 BYTE   W96
// 087   ----------------------------------------
 BYTE   N48  Cn2  v064
 BYTE   W48
 BYTE   Cn2  v076
 BYTE   W48
// 088   ----------------------------------------
 BYTE   W72
 BYTE   N07  Dn1  v072
 BYTE   W07
 BYTE   Dn1  v076
 BYTE   W08
 BYTE   N08
 BYTE   W09
// 089   ----------------------------------------
 BYTE   N48  Gs1  v080
 BYTE   W48
 BYTE   Gs1  v076
 BYTE   W48
// 090   ----------------------------------------
 BYTE   W96
 BYTE   PATT
  POIN2 Label_4_010D4DB3
// 091   ----------------------------------------
 BYTE   W72
 BYTE   N07  Ds2  v064
 BYTE   W07
 BYTE   Ds2  v072
 BYTE   W08
 BYTE   N08
 BYTE   W09
 BYTE   PATT
  POIN2 Label_4_010D4D52
// 092   ----------------------------------------
 BYTE   W96
// 093   ----------------------------------------
 BYTE   N48  Gs1  v076
 BYTE   W48
 BYTE   N48
 BYTE   W48
// 094   ----------------------------------------
 BYTE   W72
 BYTE   N07  Gn1  v072
 BYTE   W07
 BYTE   N07
 BYTE   W08
 BYTE   N08  Gn1  v076
 BYTE   W09
// 095   ----------------------------------------
 BYTE   W96
 BYTE   PATT
  POIN2 Label_4_010D4CE4
 BYTE   PATT
  POIN2 Label_4_010D48ED
 BYTE   FINE

//**************** Track 6 (Midi-Chn.5) ****************//

MOTHER3MasterPorkysThemeMrGreen3339_006:
// 000   ----------------------------------------
 BYTE   KEYSH   MOTHER3MasterPorkysThemeMrGreen3339_key+0
 BYTE   VOICE   35
 BYTE   PAN   c_v+0
 BYTE   VOL   51*MOTHER3MasterPorkysThemeMrGreen3339_mvl/mxv
 BYTE   N12  As0  v127
 BYTE   N12  As1
 BYTE   W48
 BYTE   As0
 BYTE   N12  As1
 BYTE   W48
// 001   ----------------------------------------
Label_5_010D4EA6:
 BYTE   N48  Gn0  v100
 BYTE   W36
 BYTE   BEND   c_v+4
 BYTE   W01
 BYTE   Dn4
 BYTE   W01
 BYTE   Fs4
 BYTE   W01
 BYTE   Cn5
 BYTE   W01
 BYTE   Fs5
 BYTE   W01
 BYTE   As5
 BYTE   W01
 BYTE   En6
 BYTE   W01
 BYTE   As6
 BYTE   W01
 BYTE   Dn7
 BYTE   W01
 BYTE   Gs7
 BYTE   W01
 BYTE   Dn8
 BYTE   W01
 BYTE   Fs8
 BYTE   W01
 BYTE   En3
 BYTE   N36  Gn1  v127
 BYTE   W48
 BYTE   PEND 
 BYTE   PATT
  POIN2 Label_5_010D4EA6
// 002   ----------------------------------------
 BYTE   W96
// 003   ----------------------------------------
 BYTE   W96
// 004   ----------------------------------------
 BYTE   W96
// 005   ----------------------------------------
 BYTE   W96
// 006   ----------------------------------------
 BYTE   W96
// 007   ----------------------------------------
 BYTE   W96
// 008   ----------------------------------------
 BYTE   W96
// 009   ----------------------------------------
 BYTE   W96
// 010   ----------------------------------------
 BYTE   W96
// 011   ----------------------------------------
 BYTE   W96
// 012   ----------------------------------------
 BYTE   W96
// 013   ----------------------------------------
 BYTE   W96
// 014   ----------------------------------------
 BYTE   W96
// 015   ----------------------------------------
 BYTE   W96
// 016   ----------------------------------------
 BYTE   W96
// 017   ----------------------------------------
 BYTE   W96
// 018   ----------------------------------------
 BYTE   W96
// 019   ----------------------------------------
 BYTE   W96
// 020   ----------------------------------------
 BYTE   W96
// 021   ----------------------------------------
 BYTE   W96
// 022   ----------------------------------------
 BYTE   W96
// 023   ----------------------------------------
 BYTE   W96
// 024   ----------------------------------------
 BYTE   W96
// 025   ----------------------------------------
 BYTE   W96
// 026   ----------------------------------------
 BYTE   W96
// 027   ----------------------------------------
 BYTE   W96
// 028   ----------------------------------------
 BYTE   W96
// 029   ----------------------------------------
 BYTE   W96
// 030   ----------------------------------------
 BYTE   W96
// 031   ----------------------------------------
 BYTE   W96
// 032   ----------------------------------------
 BYTE   W96
// 033   ----------------------------------------
 BYTE   W96
// 034   ----------------------------------------
 BYTE   W96
// 035   ----------------------------------------
Label_5_010D4EEF:
 BYTE   N12  As0  v127
 BYTE   N12  As1
 BYTE   W48
 BYTE   As0
 BYTE   N12  As1
 BYTE   W48
 BYTE   PEND 
// 036   ----------------------------------------
Label_5_010D4EFA:
 BYTE   N48  Gn0  v104
 BYTE   W36
 BYTE   BEND   c_v+4
 BYTE   W01
 BYTE   Dn4
 BYTE   W01
 BYTE   Fs4
 BYTE   W01
 BYTE   Cn5
 BYTE   W01
 BYTE   Fs5
 BYTE   W01
 BYTE   As5
 BYTE   W01
 BYTE   En6
 BYTE   W01
 BYTE   As6
 BYTE   W01
 BYTE   Dn7
 BYTE   W01
 BYTE   Gs7
 BYTE   W01
 BYTE   Dn8
 BYTE   W01
 BYTE   Fs8
 BYTE   W01
 BYTE   En3
 BYTE   N36  Gn1  v127
 BYTE   W48
 BYTE   PEND 
 BYTE   PATT
  POIN2 Label_5_010D4EFA
// 037   ----------------------------------------
 BYTE   TIE  Cn1  v104
 BYTE   W96
// 038   ----------------------------------------
 BYTE   W96
// 039   ----------------------------------------
 BYTE   EOT
 BYTE   W96
// 040   ----------------------------------------
 BYTE   W96
// 041   ----------------------------------------
 BYTE   W96
// 042   ----------------------------------------
 BYTE   W96
// 043   ----------------------------------------
 BYTE   W96
// 044   ----------------------------------------
 BYTE   W96
// 045   ----------------------------------------
 BYTE   W96
// 046   ----------------------------------------
 BYTE   W96
// 047   ----------------------------------------
 BYTE   W96
// 048   ----------------------------------------
 BYTE   W96
// 049   ----------------------------------------
 BYTE   W96
// 050   ----------------------------------------
 BYTE   W96
// 051   ----------------------------------------
 BYTE   W96
// 052   ----------------------------------------
 BYTE   W96
// 053   ----------------------------------------
 BYTE   W96
// 054   ----------------------------------------
 BYTE   W96
// 055   ----------------------------------------
 BYTE   W96
// 056   ----------------------------------------
 BYTE   W96
// 057   ----------------------------------------
 BYTE   W96
// 058   ----------------------------------------
 BYTE   W96
// 059   ----------------------------------------
 BYTE   W96
// 060   ----------------------------------------
 BYTE   W96
// 061   ----------------------------------------
 BYTE   W96
// 062   ----------------------------------------
 BYTE   W96
// 063   ----------------------------------------
 BYTE   W96
// 064   ----------------------------------------
 BYTE   W96
// 065   ----------------------------------------
 BYTE   W96
// 066   ----------------------------------------
 BYTE   W96
// 067   ----------------------------------------
 BYTE   W96
// 068   ----------------------------------------
 BYTE   W96
// 069   ----------------------------------------
 BYTE   W96
// 070   ----------------------------------------
 BYTE   W96
// 071   ----------------------------------------
 BYTE   W96
// 072   ----------------------------------------
 BYTE   W96
// 073   ----------------------------------------
 BYTE   W96
// 074   ----------------------------------------
 BYTE   W96
// 075   ----------------------------------------
 BYTE   W96
// 076   ----------------------------------------
 BYTE   W96
// 077   ----------------------------------------
 BYTE   W96
// 078   ----------------------------------------
 BYTE   W96
// 079   ----------------------------------------
 BYTE   W96
// 080   ----------------------------------------
 BYTE   W96
// 081   ----------------------------------------
 BYTE   W96
// 082   ----------------------------------------
 BYTE   W96
// 083   ----------------------------------------
 BYTE   W96
// 084   ----------------------------------------
 BYTE   W96
// 085   ----------------------------------------
 BYTE   W96
// 086   ----------------------------------------
 BYTE   W96
// 087   ----------------------------------------
 BYTE   W96
// 088   ----------------------------------------
 BYTE   W96
// 089   ----------------------------------------
 BYTE   W96
// 090   ----------------------------------------
 BYTE   W96
// 091   ----------------------------------------
 BYTE   W96
// 092   ----------------------------------------
 BYTE   W96
// 093   ----------------------------------------
 BYTE   W96
// 094   ----------------------------------------
 BYTE   W96
// 095   ----------------------------------------
 BYTE   W96
// 096   ----------------------------------------
 BYTE   W96
// 097   ----------------------------------------
 BYTE   W96
// 098   ----------------------------------------
 BYTE   W96
// 099   ----------------------------------------
 BYTE   W96
// 100   ----------------------------------------
 BYTE   W96
// 101   ----------------------------------------
 BYTE   W96
// 102   ----------------------------------------
 BYTE   W96
// 103   ----------------------------------------
 BYTE   W96
// 104   ----------------------------------------
 BYTE   W96
 BYTE   PATT
  POIN2 Label_5_010D4EEF
 BYTE   PATT
  POIN2 Label_5_010D4EA6
// 105   ----------------------------------------
 BYTE   N48  Gn0  v104
 BYTE   W36
 BYTE   BEND   c_v+4
 BYTE   W01
 BYTE   Dn4
 BYTE   W01
 BYTE   Fs4
 BYTE   W01
 BYTE   Cn5
 BYTE   W01
 BYTE   Fs5
 BYTE   W01
 BYTE   As5
 BYTE   W01
 BYTE   En6
 BYTE   W01
 BYTE   As6
 BYTE   W01
 BYTE   Dn7
 BYTE   W01
 BYTE   Gs7
 BYTE   W01
 BYTE   Dn8
 BYTE   W01
 BYTE   Fs8
 BYTE   W01
 BYTE   En3
 BYTE   N36  Gn1  v124
 BYTE   W36
 BYTE   BEND   c_v+0
 BYTE   W12
 BYTE   FINE

//**************** Track 7 (Midi-Chn.6) ****************//

MOTHER3MasterPorkysThemeMrGreen3339_007:
// 000   ----------------------------------------
 BYTE   KEYSH   MOTHER3MasterPorkysThemeMrGreen3339_key+0
 BYTE   PAN   c_v+0
 BYTE   VOL   51*MOTHER3MasterPorkysThemeMrGreen3339_mvl/mxv
 BYTE   W96
// 001   ----------------------------------------
 BYTE   W96
// 002   ----------------------------------------
 BYTE   W96
// 003   ----------------------------------------
 BYTE   W96
// 004   ----------------------------------------
 BYTE   W96
// 005   ----------------------------------------
 BYTE   W96
// 006   ----------------------------------------
 BYTE   W96
// 007   ----------------------------------------
 BYTE   W96
// 008   ----------------------------------------
 BYTE   W96
// 009   ----------------------------------------
 BYTE   W96
// 010   ----------------------------------------
 BYTE   W96
// 011   ----------------------------------------
 BYTE   VOICE   78
 BYTE   N96  Cn4  v088
 BYTE   W24
 BYTE   BEND   c_v+0
 BYTE   W07
 BYTE   Dn2
 BYTE   W08
 BYTE   En3
 BYTE   W09
 BYTE   Dn2
 BYTE   W07
 BYTE   En3
 BYTE   W08
 BYTE   Dn2
 BYTE   W09
 BYTE   En3
 BYTE   W07
 BYTE   Dn2
 BYTE   W08
 BYTE   En3
 BYTE   W09
// 012   ----------------------------------------
 BYTE   N96  Dn4  v104
 BYTE   W32
 BYTE   W01
 BYTE   BEND   c_v+0
 BYTE   W06
 BYTE   En1
 BYTE   W09
 BYTE   En3
 BYTE   W03
 BYTE   En1
 BYTE   W04
 BYTE   En3
 BYTE   W04
 BYTE   En1
 BYTE   W04
 BYTE   En3
 BYTE   W04
 BYTE   En1
 BYTE   W05
 BYTE   En3
 BYTE   W02
 BYTE   En1
 BYTE   W04
 BYTE   En3
 BYTE   W03
 BYTE   En1
 BYTE   W06
 BYTE   En3
 BYTE   W09
// 013   ----------------------------------------
 BYTE   TIE  Ds4  v108
 BYTE   W24
 BYTE   BEND   c_v+0
 BYTE   W07
 BYTE   Dn2
 BYTE   W08
 BYTE   En3
 BYTE   W09
 BYTE   Dn2
 BYTE   W07
 BYTE   En3
 BYTE   W08
 BYTE   Dn2
 BYTE   W09
 BYTE   En3
 BYTE   W07
 BYTE   Dn2
 BYTE   W08
 BYTE   En3
 BYTE   W09
// 014   ----------------------------------------
Label_6_010D4FFD:
 BYTE   BEND   c_v+0
 BYTE   W07
 BYTE   En3
 BYTE   W08
 BYTE   Dn2
 BYTE   W09
 BYTE   En3
 BYTE   W07
 BYTE   Dn2
 BYTE   W08
 BYTE   En3
 BYTE   W12
 BYTE   En1
 BYTE   W08
 BYTE   En3
 BYTE   W06
 BYTE   En1
 BYTE   W09
 BYTE   En3
 BYTE   W09
 BYTE   En1
 BYTE   W08
 BYTE   En3
 BYTE   W05
 BYTE   PEND 
// 015   ----------------------------------------
 BYTE   EOT
 BYTE   Ds4
 BYTE   N96  Ds4  v096
 BYTE   W24
 BYTE   BEND   c_v+0
 BYTE   W07
 BYTE   Dn2
 BYTE   W08
 BYTE   En3
 BYTE   W09
 BYTE   Dn2
 BYTE   W07
 BYTE   En3
 BYTE   W08
 BYTE   Dn2
 BYTE   W09
 BYTE   En3
 BYTE   W07
 BYTE   Dn2
 BYTE   W08
 BYTE   En3
 BYTE   W09
// 016   ----------------------------------------
Label_6_010D5030:
 BYTE   N96  Fn4  v104
 BYTE   W32
 BYTE   W01
 BYTE   BEND   c_v+0
 BYTE   W06
 BYTE   En1
 BYTE   W09
 BYTE   En3
 BYTE   W03
 BYTE   En1
 BYTE   W04
 BYTE   En3
 BYTE   W04
 BYTE   En1
 BYTE   W04
 BYTE   En3
 BYTE   W04
 BYTE   En1
 BYTE   W05
 BYTE   En3
 BYTE   W02
 BYTE   En1
 BYTE   W04
 BYTE   En3
 BYTE   W03
 BYTE   En1
 BYTE   W06
 BYTE   En3
 BYTE   W09
 BYTE   PEND 
// 017   ----------------------------------------
 BYTE   TIE  Gn4
 BYTE   W24
 BYTE   BEND   c_v+0
 BYTE   W07
 BYTE   Dn2
 BYTE   W08
 BYTE   En3
 BYTE   W09
 BYTE   Dn2
 BYTE   W07
 BYTE   En3
 BYTE   W08
 BYTE   Dn2
 BYTE   W09
 BYTE   En3
 BYTE   W07
 BYTE   Dn2
 BYTE   W08
 BYTE   En3
 BYTE   W09
 BYTE   PATT
  POIN2 Label_6_010D4FFD
// 018   ----------------------------------------
 BYTE   EOT
 BYTE   Gn4
 BYTE   N96  Cn4  v080
 BYTE   W24
 BYTE   BEND   c_v+0
 BYTE   W07
 BYTE   Dn2
 BYTE   W08
 BYTE   En3
 BYTE   W09
 BYTE   Dn2
 BYTE   W07
 BYTE   En3
 BYTE   W08
 BYTE   Dn2
 BYTE   W09
 BYTE   En3
 BYTE   W07
 BYTE   Dn2
 BYTE   W08
 BYTE   En3
 BYTE   W09
// 019   ----------------------------------------
 BYTE   N96  Dn4  v100
 BYTE   W32
 BYTE   W01
 BYTE   BEND   c_v+0
 BYTE   W06
 BYTE   En1
 BYTE   W09
 BYTE   En3
 BYTE   W03
 BYTE   En1
 BYTE   W04
 BYTE   En3
 BYTE   W04
 BYTE   En1
 BYTE   W04
 BYTE   En3
 BYTE   W04
 BYTE   En1
 BYTE   W05
 BYTE   En3
 BYTE   W02
 BYTE   En1
 BYTE   W04
 BYTE   En3
 BYTE   W03
 BYTE   En1
 BYTE   W06
 BYTE   En3
 BYTE   W09
// 020   ----------------------------------------
 BYTE   TIE  Ds4  v104
 BYTE   W24
 BYTE   BEND   c_v+0
 BYTE   W07
 BYTE   Dn2
 BYTE   W08
 BYTE   En3
 BYTE   W09
 BYTE   Dn2
 BYTE   W07
 BYTE   En3
 BYTE   W08
 BYTE   Dn2
 BYTE   W09
 BYTE   En3
 BYTE   W07
 BYTE   Dn2
 BYTE   W08
 BYTE   En3
 BYTE   W09
 BYTE   PATT
  POIN2 Label_6_010D4FFD
// 021   ----------------------------------------
 BYTE   EOT
 BYTE   Ds4
 BYTE   N96  Ds4  v092
 BYTE   W24
 BYTE   BEND   c_v+0
 BYTE   W07
 BYTE   Dn2
 BYTE   W08
 BYTE   En3
 BYTE   W09
 BYTE   Dn2
 BYTE   W07
 BYTE   En3
 BYTE   W08
 BYTE   Dn2
 BYTE   W09
 BYTE   En3
 BYTE   W07
 BYTE   Dn2
 BYTE   W08
 BYTE   En3
 BYTE   W09
 BYTE   PATT
  POIN2 Label_6_010D5030
// 022   ----------------------------------------
 BYTE   TIE  Gn4  v108
 BYTE   W24
 BYTE   BEND   c_v+0
 BYTE   W07
 BYTE   Dn2
 BYTE   W08
 BYTE   En3
 BYTE   W09
 BYTE   Dn2
 BYTE   W07
 BYTE   En3
 BYTE   W08
 BYTE   Dn2
 BYTE   W09
 BYTE   En3
 BYTE   W07
 BYTE   Dn2
 BYTE   W08
 BYTE   En3
 BYTE   W09
 BYTE   PATT
  POIN2 Label_6_010D4FFD
// 023   ----------------------------------------
 BYTE   EOT
 BYTE   Gn4
 BYTE   W96
// 024   ----------------------------------------
 BYTE   W96
// 025   ----------------------------------------
 BYTE   W96
// 026   ----------------------------------------
 BYTE   W96
// 027   ----------------------------------------
 BYTE   W96
// 028   ----------------------------------------
 BYTE   W96
// 029   ----------------------------------------
 BYTE   W96
// 030   ----------------------------------------
 BYTE   W96
// 031   ----------------------------------------
 BYTE   W96
// 032   ----------------------------------------
 BYTE   W96
// 033   ----------------------------------------
 BYTE   W96
// 034   ----------------------------------------
 BYTE   W96
// 035   ----------------------------------------
 BYTE   W96
// 036   ----------------------------------------
 BYTE   W96
// 037   ----------------------------------------
 BYTE   W96
// 038   ----------------------------------------
 BYTE   W96
// 039   ----------------------------------------
 BYTE   W96
// 040   ----------------------------------------
 BYTE   W96
// 041   ----------------------------------------
 BYTE   W96
// 042   ----------------------------------------
 BYTE   W96
// 043   ----------------------------------------
 BYTE   W96
// 044   ----------------------------------------
 BYTE   W96
// 045   ----------------------------------------
 BYTE   W96
// 046   ----------------------------------------
 BYTE   W96
// 047   ----------------------------------------
 BYTE   W96
// 048   ----------------------------------------
 BYTE   W96
// 049   ----------------------------------------
 BYTE   W96
// 050   ----------------------------------------
 BYTE   W96
// 051   ----------------------------------------
 BYTE   W96
// 052   ----------------------------------------
 BYTE   W96
// 053   ----------------------------------------
 BYTE   W96
// 054   ----------------------------------------
 BYTE   W96
// 055   ----------------------------------------
 BYTE   W96
// 056   ----------------------------------------
 BYTE   W96
// 057   ----------------------------------------
 BYTE   W96
// 058   ----------------------------------------
 BYTE   W96
// 059   ----------------------------------------
 BYTE   W96
// 060   ----------------------------------------
 BYTE   W96
// 061   ----------------------------------------
 BYTE   W96
// 062   ----------------------------------------
 BYTE   W96
// 063   ----------------------------------------
 BYTE   W96
// 064   ----------------------------------------
 BYTE   W96
// 065   ----------------------------------------
 BYTE   W96
// 066   ----------------------------------------
 BYTE   W96
// 067   ----------------------------------------
 BYTE   W96
// 068   ----------------------------------------
 BYTE   W96
// 069   ----------------------------------------
 BYTE   W96
// 070   ----------------------------------------
 BYTE   W24
 BYTE   N48  Gn4  v112
 BYTE   W48
 BYTE   N24  Gs4  v127
 BYTE   W24
// 071   ----------------------------------------
 BYTE   As4
 BYTE   W24
 BYTE   BEND   c_v+0
 BYTE   N48  Dn5
 BYTE   W05
 BYTE   BEND   c_v+16
 BYTE   W07
 BYTE   En3
 BYTE   W36
 BYTE   N48  As4  v116
 BYTE   W24
// 072   ----------------------------------------
 BYTE   W12
 BYTE   BEND   c_v+0
 BYTE   W05
 BYTE   Cn8
 BYTE   W07
 BYTE   En3
 BYTE   N24  Gs4  v124
 BYTE   W24
 BYTE   Gn4  v120
 BYTE   W24
 BYTE   Gs4  v127
 BYTE   W24
// 073   ----------------------------------------
 BYTE   N72  Gn4  v124
 BYTE   W60
 BYTE   BEND   c_v+0
 BYTE   W12
 BYTE   N06  Fn4  v112
 BYTE   W06
 BYTE   N03  Dn5  v124
 BYTE   W03
 BYTE   N36  Fn4  v084
 BYTE   W03
 BYTE   BEND   c_v+56
 BYTE   W05
 BYTE   En3
 BYTE   W07
// 074   ----------------------------------------
 BYTE   W24
 BYTE   N48  Cs4  v112
 BYTE   W48
 BYTE   N24  Dn4  v124
 BYTE   W24
// 075   ----------------------------------------
 BYTE   N72  Fn4  v127
 BYTE   W36
 BYTE   W03
 BYTE   BEND   c_v+0
 BYTE   W04
 BYTE   En6
 BYTE   W05
 BYTE   En3
 BYTE   W24
 BYTE   N48  Ds4  v116
 BYTE   W24
// 076   ----------------------------------------
 BYTE   W12
 BYTE   BEND   c_v+0
 BYTE   W05
 BYTE   En6
 BYTE   W07
 BYTE   En3
 BYTE   N48  Dn4  v120
 BYTE   W48
 BYTE   N24  Ds4  v124
 BYTE   W24
// 077   ----------------------------------------
 BYTE   TIE  Dn4  v120
 BYTE   W36
 BYTE   BEND   c_v+0
 BYTE   W12
 BYTE   Fn4
 BYTE   W12
 BYTE   En3
 BYTE   W36
// 078   ----------------------------------------
 BYTE   W36
 BYTE   En3
 BYTE   W12
 BYTE   Fn4
 BYTE   W12
 BYTE   En3
 BYTE   W12
 BYTE   EOT
 BYTE   N24  Gn3  v084
 BYTE   W24
// 079   ----------------------------------------
 BYTE   Gs3  v100
 BYTE   W24
 BYTE   Cn4  v116
 BYTE   W24
 BYTE   Ds4  v112
 BYTE   W24
 BYTE   N48  Fs4  v108
 BYTE   W24
// 080   ----------------------------------------
 BYTE   W24
 BYTE   BEND   c_v+0
 BYTE   N48  Fn4  v100
 BYTE   W05
 BYTE   BEND   c_v+36
 BYTE   W07
 BYTE   En3
 BYTE   W36
 BYTE   N96
 BYTE   W24
// 081   ----------------------------------------
 BYTE   W72
 BYTE   N24  Dn4  v088
 BYTE   W24
// 082   ----------------------------------------
 BYTE   Ds4  v104
 BYTE   W24
 BYTE   N48  Dn4  v092
 BYTE   W48
 BYTE   N24  Dn4  v100
 BYTE   W24
// 083   ----------------------------------------
 BYTE   BEND   c_v+0
 BYTE   N24  Ds4  v108
 BYTE   W05
 BYTE   BEND   c_v+26
 BYTE   W07
 BYTE   En3
 BYTE   W12
 BYTE   N48  Fn4
 BYTE   W48
 BYTE   As3  v080
 BYTE   W24
// 084   ----------------------------------------
 BYTE   W24
 BYTE   N72  As4  v124
 BYTE   W12
 BYTE   BEND   c_v+0
 BYTE   W24
 BYTE   Dn5
 BYTE   W11
 BYTE   En3
 BYTE   W24
 BYTE   W01
// 085   ----------------------------------------
 BYTE   N24  Gs4  v096
 BYTE   W24
 BYTE   N48
 BYTE   W48
 BYTE   TIE  Gn4
 BYTE   W24
// 086   ----------------------------------------
 BYTE   W24
 BYTE   BEND   c_v+0
 BYTE   W24
 BYTE   En3
 BYTE   W12
 BYTE   Fs5
 BYTE   W12
 BYTE   En3
 BYTE   W24
// 087   ----------------------------------------
 BYTE   EOT
 BYTE   BEND   c_v+0
 BYTE   W96
// 088   ----------------------------------------
 BYTE   W96
// 089   ----------------------------------------
 BYTE   W96
// 090   ----------------------------------------
 BYTE   W96
// 091   ----------------------------------------
 BYTE   W96
// 092   ----------------------------------------
 BYTE   W96
// 093   ----------------------------------------
 BYTE   W96
// 094   ----------------------------------------
 BYTE   W96
// 095   ----------------------------------------
 BYTE   W96
// 096   ----------------------------------------
 BYTE   W96
// 097   ----------------------------------------
 BYTE   W96
// 098   ----------------------------------------
 BYTE   W96
// 099   ----------------------------------------
 BYTE   W96
// 100   ----------------------------------------
 BYTE   W96
// 101   ----------------------------------------
 BYTE   W96
// 102   ----------------------------------------
 BYTE   W96
// 103   ----------------------------------------
 BYTE   W96
// 104   ----------------------------------------
 BYTE   W96
// 105   ----------------------------------------
 BYTE   W96
 BYTE   FINE

//**************** Track 8 (Midi-Chn.7) ****************//

MOTHER3MasterPorkysThemeMrGreen3339_008:
// 000   ----------------------------------------
 BYTE   KEYSH   MOTHER3MasterPorkysThemeMrGreen3339_key+0
 BYTE   PAN   c_v+0
 BYTE   VOL   51*MOTHER3MasterPorkysThemeMrGreen3339_mvl/mxv
 BYTE   W96
// 001   ----------------------------------------
 BYTE   W96
// 002   ----------------------------------------
 BYTE   W96
// 003   ----------------------------------------
 BYTE   W96
// 004   ----------------------------------------
 BYTE   W96
// 005   ----------------------------------------
 BYTE   W96
// 006   ----------------------------------------
 BYTE   W96
// 007   ----------------------------------------
 BYTE   W96
// 008   ----------------------------------------
 BYTE   W96
// 009   ----------------------------------------
 BYTE   W96
// 010   ----------------------------------------
 BYTE   W96
// 011   ----------------------------------------
 BYTE   VOICE   54
 BYTE   TIE  Cn4  v076
 BYTE   TIE  Ds4
 BYTE   TIE  Gn4
 BYTE   W96
// 012   ----------------------------------------
 BYTE   W96
// 013   ----------------------------------------
 BYTE   W96
// 014   ----------------------------------------
 BYTE   W96
// 015   ----------------------------------------
 BYTE   EOT
 BYTE   Cn4  v075
 BYTE   Gn4
 BYTE   TIE  Ds4  v092
 BYTE   TIE  Gn4
 BYTE   TIE  As4
 BYTE   W96
// 016   ----------------------------------------
 BYTE   W96
// 017   ----------------------------------------
 BYTE   W96
// 018   ----------------------------------------
 BYTE   W96
// 019   ----------------------------------------
 BYTE   EOT
 BYTE   Ds4  v079
 BYTE   As4
 BYTE   TIE  Cn4  v076
 BYTE   TIE  Ds4
 BYTE   TIE  Gn4
 BYTE   W96
// 020   ----------------------------------------
 BYTE   W96
// 021   ----------------------------------------
 BYTE   W96
// 022   ----------------------------------------
 BYTE   W96
// 023   ----------------------------------------
 BYTE   EOT
 BYTE   Cn4  v075
 BYTE   Gn4
 BYTE   TIE  Ds4  v096
 BYTE   TIE  Gn4
 BYTE   TIE  As4
 BYTE   W96
// 024   ----------------------------------------
 BYTE   W96
// 025   ----------------------------------------
 BYTE   W96
// 026   ----------------------------------------
 BYTE   W96
// 027   ----------------------------------------
 BYTE   EOT
 BYTE   Ds4  v079
 BYTE   As4
 BYTE   W96
// 028   ----------------------------------------
 BYTE   W96
// 029   ----------------------------------------
 BYTE   W96
// 030   ----------------------------------------
 BYTE   W96
// 031   ----------------------------------------
 BYTE   W96
// 032   ----------------------------------------
 BYTE   W96
// 033   ----------------------------------------
 BYTE   W96
// 034   ----------------------------------------
 BYTE   W96
// 035   ----------------------------------------
 BYTE   W96
// 036   ----------------------------------------
 BYTE   W96
// 037   ----------------------------------------
 BYTE   W96
// 038   ----------------------------------------
 BYTE   W96
// 039   ----------------------------------------
 BYTE   W96
// 040   ----------------------------------------
 BYTE   W96
// 041   ----------------------------------------
 BYTE   W96
// 042   ----------------------------------------
 BYTE   W96
// 043   ----------------------------------------
 BYTE   TIE  Cn4  v068
 BYTE   TIE  Ds4
 BYTE   TIE  Gn4
 BYTE   W96
// 044   ----------------------------------------
 BYTE   W96
// 045   ----------------------------------------
 BYTE   W96
// 046   ----------------------------------------
 BYTE   W96
// 047   ----------------------------------------
 BYTE   W96
// 048   ----------------------------------------
 BYTE   W96
// 049   ----------------------------------------
 BYTE   W96
// 050   ----------------------------------------
 BYTE   W96
// 051   ----------------------------------------
 BYTE   EOT
 BYTE   Cn4  v075
 BYTE   Gn4
Label_7_010D5292:
 BYTE   TIE  Gs3  v068
 BYTE   TIE  Cn4
 BYTE   TIE  Ds4
 BYTE   W96
 BYTE   PEND 
// 052   ----------------------------------------
 BYTE   W96
// 053   ----------------------------------------
 BYTE   W96
// 054   ----------------------------------------
 BYTE   W96
// 055   ----------------------------------------
 BYTE   W96
// 056   ----------------------------------------
 BYTE   W96
// 057   ----------------------------------------
 BYTE   W96
// 058   ----------------------------------------
 BYTE   W96
// 059   ----------------------------------------
 BYTE   EOT
 BYTE   Gs3  v072
 BYTE   Ds4
Label_7_010D52A6:
 BYTE   TIE  Cn4  v084
 BYTE   TIE  Ds4
 BYTE   TIE  Gn4
 BYTE   W96
 BYTE   PEND 
// 060   ----------------------------------------
 BYTE   W96
// 061   ----------------------------------------
 BYTE   W96
// 062   ----------------------------------------
 BYTE   W96
// 063   ----------------------------------------
 BYTE   W96
// 064   ----------------------------------------
 BYTE   W96
// 065   ----------------------------------------
 BYTE   W96
// 066   ----------------------------------------
 BYTE   W96
// 067   ----------------------------------------
 BYTE   EOT
 BYTE   Cn4  v075
 BYTE   Gn4
Label_7_010D52BA:
 BYTE   TIE  Gs3  v064
 BYTE   TIE  Cn4
 BYTE   TIE  Ds4
 BYTE   W96
 BYTE   PEND 
// 068   ----------------------------------------
 BYTE   W96
// 069   ----------------------------------------
 BYTE   W96
// 070   ----------------------------------------
 BYTE   W96
// 071   ----------------------------------------
 BYTE   W96
// 072   ----------------------------------------
 BYTE   W96
// 073   ----------------------------------------
 BYTE   W96
// 074   ----------------------------------------
 BYTE   W96
// 075   ----------------------------------------
 BYTE   EOT
 BYTE   Gs3  v072
 BYTE   Ds4
 BYTE   TIE  Cn4  v080
 BYTE   TIE  Ds4
 BYTE   TIE  Gn4
 BYTE   W96
// 076   ----------------------------------------
 BYTE   W96
// 077   ----------------------------------------
 BYTE   W96
// 078   ----------------------------------------
 BYTE   W96
// 079   ----------------------------------------
 BYTE   W96
// 080   ----------------------------------------
 BYTE   W96
// 081   ----------------------------------------
 BYTE   W96
// 082   ----------------------------------------
 BYTE   W96
// 083   ----------------------------------------
 BYTE   EOT
 BYTE   Cn4  v075
 BYTE   Gn4
 BYTE   PATT
  POIN2 Label_7_010D5292
// 084   ----------------------------------------
 BYTE   W96
// 085   ----------------------------------------
 BYTE   W96
// 086   ----------------------------------------
 BYTE   W96
// 087   ----------------------------------------
 BYTE   W96
// 088   ----------------------------------------
 BYTE   W96
// 089   ----------------------------------------
 BYTE   W96
// 090   ----------------------------------------
 BYTE   W96
// 091   ----------------------------------------
 BYTE   EOT
 BYTE   Gs3  v072
 BYTE   Ds4
 BYTE   PATT
  POIN2 Label_7_010D52A6
// 092   ----------------------------------------
 BYTE   W96
// 093   ----------------------------------------
 BYTE   W96
// 094   ----------------------------------------
 BYTE   W96
// 095   ----------------------------------------
 BYTE   W96
// 096   ----------------------------------------
 BYTE   W96
// 097   ----------------------------------------
 BYTE   W96
// 098   ----------------------------------------
 BYTE   W96
// 099   ----------------------------------------
 BYTE   EOT
 BYTE   Cn4  v075
 BYTE   Gn4
 BYTE   PATT
  POIN2 Label_7_010D52BA
// 100   ----------------------------------------
 BYTE   W96
// 101   ----------------------------------------
 BYTE   W96
// 102   ----------------------------------------
 BYTE   W96
// 103   ----------------------------------------
 BYTE   W96
// 104   ----------------------------------------
 BYTE   W96
// 105   ----------------------------------------
 BYTE   W96
// 106   ----------------------------------------
 BYTE   W96
// 107   ----------------------------------------
 BYTE   EOT
 BYTE   Gs3  v072
 BYTE   Ds4
 BYTE   W96
// 108   ----------------------------------------
 BYTE   W96
// 109   ----------------------------------------
 BYTE   W96
 BYTE   FINE

//**************** Track 9 (Midi-Chn.8) ****************//

MOTHER3MasterPorkysThemeMrGreen3339_009:
// 000   ----------------------------------------
 BYTE   KEYSH   MOTHER3MasterPorkysThemeMrGreen3339_key+0
 BYTE   PAN   c_v+0
 BYTE   VOL   51*MOTHER3MasterPorkysThemeMrGreen3339_mvl/mxv
 BYTE   W96
// 001   ----------------------------------------
 BYTE   W96
// 002   ----------------------------------------
 BYTE   W96
// 003   ----------------------------------------
 BYTE   W96
// 004   ----------------------------------------
 BYTE   W96
// 005   ----------------------------------------
 BYTE   W96
// 006   ----------------------------------------
 BYTE   W96
// 007   ----------------------------------------
 BYTE   W96
// 008   ----------------------------------------
 BYTE   W96
// 009   ----------------------------------------
 BYTE   W96
// 010   ----------------------------------------
 BYTE   W96
// 011   ----------------------------------------
 BYTE   W96
// 012   ----------------------------------------
 BYTE   W96
// 013   ----------------------------------------
 BYTE   W96
// 014   ----------------------------------------
 BYTE   W96
// 015   ----------------------------------------
 BYTE   W96
// 016   ----------------------------------------
 BYTE   W96
// 017   ----------------------------------------
 BYTE   W96
// 018   ----------------------------------------
 BYTE   W96
// 019   ----------------------------------------
 BYTE   VOICE   78
 BYTE   N96  Ds4  v088
 BYTE   W24
 BYTE   BEND   c_v+0
 BYTE   W07
 BYTE   Dn2
 BYTE   W08
 BYTE   En3
 BYTE   W09
 BYTE   Dn2
 BYTE   W07
 BYTE   En3
 BYTE   W08
 BYTE   Dn2
 BYTE   W09
 BYTE   En3
 BYTE   W07
 BYTE   Dn2
 BYTE   W08
 BYTE   En3
 BYTE   W09
// 020   ----------------------------------------
 BYTE   N96  Fn4  v104
 BYTE   W32
 BYTE   W01
 BYTE   BEND   c_v+0
 BYTE   W06
 BYTE   En1
 BYTE   W09
 BYTE   En3
 BYTE   W03
 BYTE   En1
 BYTE   W04
 BYTE   En3
 BYTE   W04
 BYTE   En1
 BYTE   W04
 BYTE   En3
 BYTE   W04
 BYTE   En1
 BYTE   W05
 BYTE   En3
 BYTE   W02
 BYTE   En1
 BYTE   W04
 BYTE   En3
 BYTE   W03
 BYTE   En1
 BYTE   W06
 BYTE   En3
 BYTE   W09
// 021   ----------------------------------------
 BYTE   TIE  Gn4
 BYTE   W24
 BYTE   BEND   c_v+0
 BYTE   W07
 BYTE   Dn2
 BYTE   W08
 BYTE   En3
 BYTE   W09
 BYTE   Dn2
 BYTE   W07
 BYTE   En3
 BYTE   W08
 BYTE   Dn2
 BYTE   W09
 BYTE   En3
 BYTE   W07
 BYTE   Dn2
 BYTE   W08
 BYTE   En3
 BYTE   W09
// 022   ----------------------------------------
Label_8_010D5380:
 BYTE   BEND   c_v+0
 BYTE   W07
 BYTE   En3
 BYTE   W08
 BYTE   Dn2
 BYTE   W09
 BYTE   En3
 BYTE   W07
 BYTE   Dn2
 BYTE   W08
 BYTE   En3
 BYTE   W12
 BYTE   En1
 BYTE   W08
 BYTE   En3
 BYTE   W06
 BYTE   En1
 BYTE   W09
 BYTE   En3
 BYTE   W09
 BYTE   En1
 BYTE   W08
 BYTE   En3
 BYTE   W05
 BYTE   PEND 
// 023   ----------------------------------------
 BYTE   EOT
 BYTE   Gn4
 BYTE   N96  Gn4  v100
 BYTE   W24
 BYTE   BEND   c_v+0
 BYTE   W07
 BYTE   Dn2
 BYTE   W08
 BYTE   En3
 BYTE   W09
 BYTE   Dn2
 BYTE   W07
 BYTE   En3
 BYTE   W08
 BYTE   Dn2
 BYTE   W09
 BYTE   En3
 BYTE   W07
 BYTE   Dn2
 BYTE   W08
 BYTE   En3
 BYTE   W09
// 024   ----------------------------------------
 BYTE   N96  Gs4  v108
 BYTE   W32
 BYTE   W01
 BYTE   BEND   c_v+0
 BYTE   W06
 BYTE   En1
 BYTE   W09
 BYTE   En3
 BYTE   W03
 BYTE   En1
 BYTE   W04
 BYTE   En3
 BYTE   W04
 BYTE   En1
 BYTE   W04
 BYTE   En3
 BYTE   W04
 BYTE   En1
 BYTE   W05
 BYTE   En3
 BYTE   W02
 BYTE   En1
 BYTE   W04
 BYTE   En3
 BYTE   W03
 BYTE   En1
 BYTE   W06
 BYTE   En3
 BYTE   W09
// 025   ----------------------------------------
 BYTE   TIE  As4
 BYTE   W24
 BYTE   BEND   c_v+0
 BYTE   W07
 BYTE   Dn2
 BYTE   W08
 BYTE   En3
 BYTE   W09
 BYTE   Dn2
 BYTE   W07
 BYTE   En3
 BYTE   W08
 BYTE   Dn2
 BYTE   W09
 BYTE   En3
 BYTE   W07
 BYTE   Dn2
 BYTE   W08
 BYTE   En3
 BYTE   W09
 BYTE   PATT
  POIN2 Label_8_010D5380
// 026   ----------------------------------------
 BYTE   EOT
 BYTE   As4
 BYTE   BEND   c_v+0
 BYTE   W96
// 027   ----------------------------------------
 BYTE   W96
// 028   ----------------------------------------
 BYTE   W96
// 029   ----------------------------------------
 BYTE   W96
// 030   ----------------------------------------
 BYTE   W96
// 031   ----------------------------------------
 BYTE   W96
// 032   ----------------------------------------
 BYTE   W96
// 033   ----------------------------------------
 BYTE   W96
// 034   ----------------------------------------
 BYTE   W96
// 035   ----------------------------------------
 BYTE   W96
// 036   ----------------------------------------
 BYTE   W96
// 037   ----------------------------------------
 BYTE   W96
// 038   ----------------------------------------
 BYTE   W96
// 039   ----------------------------------------
 BYTE   W96
// 040   ----------------------------------------
 BYTE   W96
// 041   ----------------------------------------
 BYTE   W96
// 042   ----------------------------------------
 BYTE   W96
// 043   ----------------------------------------
 BYTE   W96
// 044   ----------------------------------------
 BYTE   W96
// 045   ----------------------------------------
 BYTE   W96
// 046   ----------------------------------------
 BYTE   W96
// 047   ----------------------------------------
 BYTE   W96
// 048   ----------------------------------------
 BYTE   W96
// 049   ----------------------------------------
 BYTE   W96
// 050   ----------------------------------------
 BYTE   W96
// 051   ----------------------------------------
 BYTE   W96
// 052   ----------------------------------------
 BYTE   W96
// 053   ----------------------------------------
 BYTE   W96
// 054   ----------------------------------------
 BYTE   W96
// 055   ----------------------------------------
 BYTE   W96
// 056   ----------------------------------------
 BYTE   W96
// 057   ----------------------------------------
 BYTE   W96
// 058   ----------------------------------------
 BYTE   W96
// 059   ----------------------------------------
 BYTE   W96
// 060   ----------------------------------------
 BYTE   W96
// 061   ----------------------------------------
 BYTE   W96
// 062   ----------------------------------------
 BYTE   W96
// 063   ----------------------------------------
 BYTE   W96
// 064   ----------------------------------------
 BYTE   W96
// 065   ----------------------------------------
 BYTE   W96
// 066   ----------------------------------------
 BYTE   W96
// 067   ----------------------------------------
 BYTE   W96
// 068   ----------------------------------------
 BYTE   W96
// 069   ----------------------------------------
 BYTE   W96
// 070   ----------------------------------------
 BYTE   W96
// 071   ----------------------------------------
 BYTE   W96
// 072   ----------------------------------------
 BYTE   W96
// 073   ----------------------------------------
 BYTE   W96
// 074   ----------------------------------------
 BYTE   W96
// 075   ----------------------------------------
 BYTE   W96
// 076   ----------------------------------------
 BYTE   W96
// 077   ----------------------------------------
 BYTE   W96
// 078   ----------------------------------------
 BYTE   W96
// 079   ----------------------------------------
 BYTE   W96
// 080   ----------------------------------------
 BYTE   W96
// 081   ----------------------------------------
 BYTE   W96
// 082   ----------------------------------------
 BYTE   W96
// 083   ----------------------------------------
 BYTE   W96
// 084   ----------------------------------------
 BYTE   W96
// 085   ----------------------------------------
 BYTE   W96
// 086   ----------------------------------------
 BYTE   W96
// 087   ----------------------------------------
 BYTE   W96
// 088   ----------------------------------------
 BYTE   W96
// 089   ----------------------------------------
 BYTE   W96
// 090   ----------------------------------------
 BYTE   W96
// 091   ----------------------------------------
 BYTE   W96
// 092   ----------------------------------------
 BYTE   W96
// 093   ----------------------------------------
 BYTE   W96
// 094   ----------------------------------------
 BYTE   W96
// 095   ----------------------------------------
 BYTE   W96
// 096   ----------------------------------------
 BYTE   W96
// 097   ----------------------------------------
 BYTE   W96
// 098   ----------------------------------------
 BYTE   W96
// 099   ----------------------------------------
 BYTE   W96
// 100   ----------------------------------------
 BYTE   W96
// 101   ----------------------------------------
 BYTE   W96
// 102   ----------------------------------------
 BYTE   W96
// 103   ----------------------------------------
 BYTE   W96
// 104   ----------------------------------------
 BYTE   W96
// 105   ----------------------------------------
 BYTE   W96
// 106   ----------------------------------------
 BYTE   W96
// 107   ----------------------------------------
 BYTE   W96
// 108   ----------------------------------------
 BYTE   W96
 BYTE   FINE

//**************** Track 10 (Midi-Chn.9) ****************//

MOTHER3MasterPorkysThemeMrGreen3339_010:
// 000   ----------------------------------------
 BYTE   KEYSH   MOTHER3MasterPorkysThemeMrGreen3339_key+0
 BYTE   PAN   c_v-13
 BYTE   VOL   51*MOTHER3MasterPorkysThemeMrGreen3339_mvl/mxv
 BYTE   PAN   c_v-13
 BYTE   VOL   51*MOTHER3MasterPorkysThemeMrGreen3339_mvl/mxv
 BYTE   W96
// 001   ----------------------------------------
 BYTE   W96
// 002   ----------------------------------------
 BYTE   W96
// 003   ----------------------------------------
 BYTE   W96
// 004   ----------------------------------------
 BYTE   W96
// 005   ----------------------------------------
 BYTE   W96
// 006   ----------------------------------------
 BYTE   W96
// 007   ----------------------------------------
 BYTE   W96
// 008   ----------------------------------------
 BYTE   W96
// 009   ----------------------------------------
 BYTE   W96
// 010   ----------------------------------------
 BYTE   W96
// 011   ----------------------------------------
 BYTE   W96
// 012   ----------------------------------------
 BYTE   W96
// 013   ----------------------------------------
 BYTE   W96
// 014   ----------------------------------------
 BYTE   W96
// 015   ----------------------------------------
 BYTE   W96
// 016   ----------------------------------------
 BYTE   W96
// 017   ----------------------------------------
 BYTE   W96
// 018   ----------------------------------------
 BYTE   W96
// 019   ----------------------------------------
 BYTE   W96
// 020   ----------------------------------------
 BYTE   W96
// 021   ----------------------------------------
 BYTE   W96
// 022   ----------------------------------------
 BYTE   W96
// 023   ----------------------------------------
 BYTE   W96
// 024   ----------------------------------------
 BYTE   W96
// 025   ----------------------------------------
 BYTE   W96
// 026   ----------------------------------------
 BYTE   W96
// 027   ----------------------------------------
 BYTE   W96
// 028   ----------------------------------------
 BYTE   W96
// 029   ----------------------------------------
 BYTE   W96
// 030   ----------------------------------------
 BYTE   W96
// 031   ----------------------------------------
 BYTE   W96
// 032   ----------------------------------------
 BYTE   W96
// 033   ----------------------------------------
 BYTE   W96
// 034   ----------------------------------------
 BYTE   W96
// 035   ----------------------------------------
 BYTE   W96
// 036   ----------------------------------------
 BYTE   W96
// 037   ----------------------------------------
 BYTE   W96
// 038   ----------------------------------------
 BYTE   W96
// 039   ----------------------------------------
 BYTE   VOICE   127
 BYTE   TIE  Cn1  v092
 BYTE   TIE  Cn2  v084
 BYTE   W96
// 040   ----------------------------------------
 BYTE   W96
// 041   ----------------------------------------
 BYTE   EOT
 BYTE   Cn1
 BYTE   N96  Cn0  v088
 BYTE   N96  Cn1  v100
 BYTE   W96
// 042   ----------------------------------------
 BYTE   EOT
 BYTE   Cn2
 BYTE   W96
// 043   ----------------------------------------
Label_9_010D548F:
 BYTE   N12  Cn1  v092
 BYTE   W48
 BYTE   Cn1  v088
 BYTE   W48
 BYTE   PEND 
// 044   ----------------------------------------
 BYTE   W96
// 045   ----------------------------------------
 BYTE   Cn1  v084
 BYTE   W48
 BYTE   N12
 BYTE   W48
// 046   ----------------------------------------
 BYTE   W72
 BYTE   N07  Gn0  v092
 BYTE   W07
 BYTE   Gn0  v096
 BYTE   W08
 BYTE   N08
 BYTE   W09
// 047   ----------------------------------------
Label_9_010D54A7:
 BYTE   N12  Cn1  v100
 BYTE   W48
 BYTE   Cn1  v092
 BYTE   W48
 BYTE   PEND 
// 048   ----------------------------------------
 BYTE   W96
// 049   ----------------------------------------
Label_9_010D54B0:
 BYTE   N12  Cn1  v088
 BYTE   W48
 BYTE   Cn1  v092
 BYTE   W48
 BYTE   PEND 
// 050   ----------------------------------------
 BYTE   W48
 BYTE   Cn1  v084
 BYTE   W12
 BYTE   Bn0  v092
 BYTE   W12
 BYTE   As0  v096
 BYTE   W12
 BYTE   An0  v100
 BYTE   W12
// 051   ----------------------------------------
 BYTE   Gs1  v112
 BYTE   W48
 BYTE   Gs1  v084
 BYTE   W48
// 052   ----------------------------------------
 BYTE   W96
// 053   ----------------------------------------
Label_9_010D54CC:
 BYTE   N12  Gs1  v092
 BYTE   W48
 BYTE   Gs1  v084
 BYTE   W48
 BYTE   PEND 
// 054   ----------------------------------------
 BYTE   W72
 BYTE   N07  Ds2  v096
 BYTE   W07
 BYTE   N07
 BYTE   W08
 BYTE   N08  Ds2  v108
 BYTE   W09
// 055   ----------------------------------------
Label_9_010D54DF:
 BYTE   N12  Gs1  v088
 BYTE   W48
 BYTE   N12
 BYTE   W48
 BYTE   PEND 
// 056   ----------------------------------------
 BYTE   W96
// 057   ----------------------------------------
Label_9_010D54E7:
 BYTE   N12  Gs1  v092
 BYTE   W48
 BYTE   Gs1  v088
 BYTE   W48
 BYTE   PEND 
// 058   ----------------------------------------
 BYTE   W48
 BYTE   Gs0  v092
 BYTE   W12
 BYTE   An0  v104
 BYTE   W12
 BYTE   As0  v100
 BYTE   W12
 BYTE   Bn0  v104
 BYTE   W12
// 059   ----------------------------------------
Label_9_010D54FC:
 BYTE   N12  Cn1  v104
 BYTE   W48
 BYTE   Cn1  v088
 BYTE   W48
 BYTE   PEND 
// 060   ----------------------------------------
 BYTE   W96
// 061   ----------------------------------------
 BYTE   N12
 BYTE   W48
 BYTE   N12
 BYTE   W48
// 062   ----------------------------------------
 BYTE   W72
 BYTE   N07  Gn0
 BYTE   W07
 BYTE   Gn0  v100
 BYTE   W08
 BYTE   N08  Gn0  v096
 BYTE   W09
// 063   ----------------------------------------
Label_9_010D5514:
 BYTE   N12  Cn1  v108
 BYTE   W48
 BYTE   Cn1  v088
 BYTE   W48
 BYTE   PEND 
// 064   ----------------------------------------
 BYTE   W96
 BYTE   PATT
  POIN2 Label_9_010D54B0
// 065   ----------------------------------------
 BYTE   W48
 BYTE   N12  Cn1  v084
 BYTE   W12
 BYTE   Bn0  v096
 BYTE   W12
 BYTE   As0
 BYTE   W12
 BYTE   An0
 BYTE   W12
// 066   ----------------------------------------
Label_9_010D552E:
 BYTE   N12  Gs1  v112
 BYTE   W48
 BYTE   Gs1  v088
 BYTE   W48
 BYTE   PEND 
// 067   ----------------------------------------
 BYTE   W96
// 068   ----------------------------------------
Label_9_010D5537:
 BYTE   N12  Gs1  v088
 BYTE   W48
 BYTE   Gs1  v092
 BYTE   W48
 BYTE   PEND 
// 069   ----------------------------------------
 BYTE   W72
 BYTE   N07  Ds2  v088
 BYTE   W07
 BYTE   Ds2  v100
 BYTE   W08
 BYTE   N08  Ds2  v096
 BYTE   W09
// 070   ----------------------------------------
 BYTE   N12  Gs1  v092
 BYTE   W48
 BYTE   N12
 BYTE   W48
// 071   ----------------------------------------
 BYTE   W96
 BYTE   PATT
  POIN2 Label_9_010D54CC
// 072   ----------------------------------------
 BYTE   W48
 BYTE   N12  Gs0  v088
 BYTE   W12
 BYTE   An0  v100
 BYTE   W12
 BYTE   As0
 BYTE   W12
 BYTE   Bn0
 BYTE   W12
 BYTE   PATT
  POIN2 Label_9_010D54A7
// 073   ----------------------------------------
 BYTE   W96
 BYTE   PATT
  POIN2 Label_9_010D54B0
// 074   ----------------------------------------
 BYTE   W72
 BYTE   N07  Gn0  v092
 BYTE   W07
 BYTE   Gn0  v100
 BYTE   W08
 BYTE   N08
 BYTE   W09
 BYTE   PATT
  POIN2 Label_9_010D5514
// 075   ----------------------------------------
 BYTE   W96
 BYTE   PATT
  POIN2 Label_9_010D548F
// 076   ----------------------------------------
 BYTE   W48
 BYTE   N12  Cn1  v088
 BYTE   W12
 BYTE   Bn0  v096
 BYTE   W12
 BYTE   As0
 BYTE   W12
 BYTE   An0
 BYTE   W12
 BYTE   PATT
  POIN2 Label_9_010D552E
// 077   ----------------------------------------
 BYTE   W96
 BYTE   PATT
  POIN2 Label_9_010D54DF
// 078   ----------------------------------------
 BYTE   W72
 BYTE   N07  Ds2  v084
 BYTE   W07
 BYTE   Ds2  v096
 BYTE   W08
 BYTE   N08  Ds2  v100
 BYTE   W09
 BYTE   PATT
  POIN2 Label_9_010D54CC
// 079   ----------------------------------------
 BYTE   W96
 BYTE   PATT
  POIN2 Label_9_010D5537
// 080   ----------------------------------------
 BYTE   W48
 BYTE   N12  Gs0  v088
 BYTE   W12
 BYTE   An0  v100
 BYTE   W12
 BYTE   As0
 BYTE   W12
 BYTE   Bn0  v096
 BYTE   W12
// 081   ----------------------------------------
 BYTE   Cn1
 BYTE   W48
 BYTE   Cn1  v084
 BYTE   W48
// 082   ----------------------------------------
 BYTE   W96
// 083   ----------------------------------------
 BYTE   Cn1  v092
 BYTE   W48
 BYTE   N12
 BYTE   W48
// 084   ----------------------------------------
 BYTE   W72
 BYTE   N07  Gn0
 BYTE   W07
 BYTE   Gn0  v096
 BYTE   W08
 BYTE   N08  Gn0  v092
 BYTE   W09
 BYTE   PATT
  POIN2 Label_9_010D54FC
// 085   ----------------------------------------
 BYTE   W96
// 086   ----------------------------------------
 BYTE   N12  Cn1  v088
 BYTE   W48
 BYTE   Cn1  v096
 BYTE   W48
// 087   ----------------------------------------
 BYTE   W48
 BYTE   Cn1  v092
 BYTE   W12
 BYTE   Bn0  v100
 BYTE   W12
 BYTE   As0  v096
 BYTE   W12
 BYTE   An0
 BYTE   W12
// 088   ----------------------------------------
 BYTE   Gs1  v108
 BYTE   W48
 BYTE   Gs1  v088
 BYTE   W48
// 089   ----------------------------------------
 BYTE   W96
// 090   ----------------------------------------
 BYTE   N12
 BYTE   W48
 BYTE   Gs1  v084
 BYTE   W48
// 091   ----------------------------------------
 BYTE   W72
 BYTE   N07  Ds2  v088
 BYTE   W07
 BYTE   Ds2  v096
 BYTE   W08
 BYTE   N08  Ds2  v104
 BYTE   W09
 BYTE   PATT
  POIN2 Label_9_010D54E7
// 092   ----------------------------------------
 BYTE   W96
 BYTE   PATT
  POIN2 Label_9_010D54DF
// 093   ----------------------------------------
 BYTE   W48
 BYTE   N12  Gs0  v084
 BYTE   W12
 BYTE   An0  v108
 BYTE   W12
 BYTE   As0  v104
 BYTE   W12
 BYTE   Bn0
 BYTE   W12
// 094   ----------------------------------------
 BYTE   W96
// 095   ----------------------------------------
 BYTE   W96
// 096   ----------------------------------------
 BYTE   W96
 BYTE   FINE

//**************** Track 11 (Midi-Chn.10) ****************//

MOTHER3MasterPorkysThemeMrGreen3339_011:
// 000   ----------------------------------------
 BYTE   KEYSH   MOTHER3MasterPorkysThemeMrGreen3339_key+0
 BYTE   PAN   c_v+0
 BYTE   VOL   51*MOTHER3MasterPorkysThemeMrGreen3339_mvl/mxv
 BYTE   PAN   c_v+0
 BYTE   VOL   51*MOTHER3MasterPorkysThemeMrGreen3339_mvl/mxv
 BYTE   W96
// 001   ----------------------------------------
 BYTE   W48
 BYTE   VOICE   18
 BYTE   N48  Dn5  v068
 BYTE   N48  Fn5
 BYTE   N48  As5
 BYTE   W48
// 002   ----------------------------------------
Label_10_010D563A:
 BYTE   W48
 BYTE   N48  Dn5  v068
 BYTE   N48  Fn5
 BYTE   N48  As5
 BYTE   W48
 BYTE   PEND 
// 003   ----------------------------------------
 BYTE   W96
// 004   ----------------------------------------
 BYTE   W96
// 005   ----------------------------------------
 BYTE   W96
// 006   ----------------------------------------
 BYTE   W96
// 007   ----------------------------------------
 BYTE   W96
// 008   ----------------------------------------
 BYTE   W96
// 009   ----------------------------------------
 BYTE   W96
// 010   ----------------------------------------
 BYTE   W96
// 011   ----------------------------------------
 BYTE   W96
// 012   ----------------------------------------
 BYTE   W96
// 013   ----------------------------------------
 BYTE   W96
// 014   ----------------------------------------
 BYTE   W96
// 015   ----------------------------------------
 BYTE   W96
// 016   ----------------------------------------
 BYTE   W96
// 017   ----------------------------------------
 BYTE   W96
// 018   ----------------------------------------
 BYTE   W96
// 019   ----------------------------------------
 BYTE   W96
// 020   ----------------------------------------
 BYTE   W96
// 021   ----------------------------------------
 BYTE   W96
// 022   ----------------------------------------
 BYTE   W96
// 023   ----------------------------------------
 BYTE   W96
// 024   ----------------------------------------
 BYTE   W96
// 025   ----------------------------------------
 BYTE   W96
// 026   ----------------------------------------
 BYTE   W96
// 027   ----------------------------------------
 BYTE   W96
// 028   ----------------------------------------
 BYTE   W96
// 029   ----------------------------------------
 BYTE   W96
// 030   ----------------------------------------
 BYTE   W96
// 031   ----------------------------------------
 BYTE   W96
// 032   ----------------------------------------
 BYTE   W96
// 033   ----------------------------------------
 BYTE   W96
// 034   ----------------------------------------
 BYTE   W96
// 035   ----------------------------------------
 BYTE   W96
// 036   ----------------------------------------
 BYTE   W96
// 037   ----------------------------------------
Label_10_010D5666:
 BYTE   W48
 BYTE   N48  Dn5  v072
 BYTE   N48  Fn5
 BYTE   N48  As5
 BYTE   W48
 BYTE   PEND 
 BYTE   PATT
  POIN2 Label_10_010D5666
// 038   ----------------------------------------
 BYTE   W96
// 039   ----------------------------------------
 BYTE   W96
// 040   ----------------------------------------
 BYTE   W96
// 041   ----------------------------------------
 BYTE   W96
// 042   ----------------------------------------
 BYTE   W96
// 043   ----------------------------------------
 BYTE   W96
// 044   ----------------------------------------
 BYTE   W96
// 045   ----------------------------------------
 BYTE   W96
// 046   ----------------------------------------
 BYTE   W96
// 047   ----------------------------------------
 BYTE   W96
// 048   ----------------------------------------
 BYTE   W96
// 049   ----------------------------------------
 BYTE   W96
// 050   ----------------------------------------
 BYTE   W96
// 051   ----------------------------------------
 BYTE   W96
// 052   ----------------------------------------
 BYTE   W96
// 053   ----------------------------------------
 BYTE   W96
// 054   ----------------------------------------
 BYTE   W96
// 055   ----------------------------------------
 BYTE   W96
// 056   ----------------------------------------
 BYTE   W96
// 057   ----------------------------------------
 BYTE   W96
// 058   ----------------------------------------
 BYTE   W96
// 059   ----------------------------------------
 BYTE   W96
// 060   ----------------------------------------
 BYTE   W96
// 061   ----------------------------------------
 BYTE   W96
// 062   ----------------------------------------
 BYTE   W96
// 063   ----------------------------------------
 BYTE   W96
// 064   ----------------------------------------
 BYTE   W96
// 065   ----------------------------------------
 BYTE   W96
// 066   ----------------------------------------
 BYTE   W96
// 067   ----------------------------------------
 BYTE   W96
// 068   ----------------------------------------
 BYTE   W96
// 069   ----------------------------------------
 BYTE   W96
// 070   ----------------------------------------
 BYTE   W96
// 071   ----------------------------------------
 BYTE   W96
// 072   ----------------------------------------
 BYTE   W96
// 073   ----------------------------------------
 BYTE   W96
// 074   ----------------------------------------
 BYTE   W96
// 075   ----------------------------------------
 BYTE   W96
// 076   ----------------------------------------
 BYTE   W96
// 077   ----------------------------------------
 BYTE   W96
// 078   ----------------------------------------
 BYTE   W96
// 079   ----------------------------------------
 BYTE   W96
// 080   ----------------------------------------
 BYTE   W96
// 081   ----------------------------------------
 BYTE   W96
// 082   ----------------------------------------
 BYTE   W96
// 083   ----------------------------------------
 BYTE   W96
// 084   ----------------------------------------
 BYTE   W96
// 085   ----------------------------------------
 BYTE   W96
// 086   ----------------------------------------
 BYTE   W96
// 087   ----------------------------------------
 BYTE   W96
// 088   ----------------------------------------
 BYTE   W96
// 089   ----------------------------------------
 BYTE   W96
// 090   ----------------------------------------
 BYTE   W96
// 091   ----------------------------------------
 BYTE   W96
// 092   ----------------------------------------
 BYTE   W96
// 093   ----------------------------------------
 BYTE   W96
// 094   ----------------------------------------
 BYTE   W96
// 095   ----------------------------------------
 BYTE   W96
// 096   ----------------------------------------
 BYTE   W96
// 097   ----------------------------------------
 BYTE   W96
// 098   ----------------------------------------
 BYTE   W96
// 099   ----------------------------------------
 BYTE   W96
// 100   ----------------------------------------
 BYTE   W96
// 101   ----------------------------------------
 BYTE   W96
// 102   ----------------------------------------
 BYTE   W96
// 103   ----------------------------------------
 BYTE   W96
// 104   ----------------------------------------
 BYTE   W96
// 105   ----------------------------------------
 BYTE   W96
// 106   ----------------------------------------
 BYTE   W96
 BYTE   PATT
  POIN2 Label_10_010D563A
 BYTE   PATT
  POIN2 Label_10_010D5666
 BYTE   FINE

//**************** Track 12 (Midi-Chn.11) ****************//

MOTHER3MasterPorkysThemeMrGreen3339_012:
// 000   ----------------------------------------
 BYTE   KEYSH   MOTHER3MasterPorkysThemeMrGreen3339_key+0
 BYTE   PAN   c_v+0
 BYTE   VOL   51*MOTHER3MasterPorkysThemeMrGreen3339_mvl/mxv
 BYTE   PAN   c_v+0
 BYTE   VOL   51*MOTHER3MasterPorkysThemeMrGreen3339_mvl/mxv
 BYTE   W96
// 001   ----------------------------------------
 BYTE   W42
 BYTE   VOICE   18
 BYTE   N01  As3  v072
 BYTE   W01
 BYTE   Cn4  v080
 BYTE   W02
 BYTE   Dn4
 BYTE   W01
 BYTE   En4
 BYTE   W02
 BYTE   N48  Dn4  v096
 BYTE   N48  Fn4
 BYTE   N48  As4
 BYTE   W48
// 002   ----------------------------------------
 BYTE   W42
 BYTE   N01  As3  v072
 BYTE   W01
 BYTE   Cn4  v080
 BYTE   W02
 BYTE   Dn4  v084
 BYTE   W01
 BYTE   En4
 BYTE   W02
 BYTE   N36  Dn4  v088
 BYTE   N36  Fn4
 BYTE   N36  As4
 BYTE   W42
 BYTE   N01  As3  v072
 BYTE   W01
 BYTE   En4  v088
 BYTE   W02
 BYTE   Cn5  v100
 BYTE   W01
 BYTE   Gn5  v092
 BYTE   W02
// 003   ----------------------------------------
 BYTE   TIE  Cn6
 BYTE   W96
// 004   ----------------------------------------
 BYTE   W96
// 005   ----------------------------------------
 BYTE   W72
 BYTE   EOT
 BYTE   N01  Bn5  v072
 BYTE   W01
 BYTE   As5  v068
 BYTE   W02
 BYTE   An5  v076
 BYTE   W01
 BYTE   Gn5  v072
 BYTE   W02
 BYTE   Fs5  v076
 BYTE   W01
 BYTE   En5  v072
 BYTE   W02
 BYTE   Dn5  v068
 BYTE   W01
 BYTE   Cn5  v072
 BYTE   W02
 BYTE   Bn4
 BYTE   W01
 BYTE   An4  v076
 BYTE   W02
 BYTE   Gn4  v072
 BYTE   W01
 BYTE   Fn4  v076
 BYTE   W02
 BYTE   En4
 BYTE   W01
 BYTE   Dn4  v072
 BYTE   W02
 BYTE   Cn4  v068
 BYTE   W01
 BYTE   Bn3  v072
 BYTE   W02
// 006   ----------------------------------------
 BYTE   An3  v068
 BYTE   W01
 BYTE   Gn3  v076
 BYTE   W02
 BYTE   Fn3  v072
 BYTE   W01
 BYTE   En3
 BYTE   W02
 BYTE   Dn3
 BYTE   W90
// 007   ----------------------------------------
 BYTE   W96
// 008   ----------------------------------------
 BYTE   W96
// 009   ----------------------------------------
 BYTE   W96
// 010   ----------------------------------------
 BYTE   W96
// 011   ----------------------------------------
 BYTE   W96
// 012   ----------------------------------------
 BYTE   W96
// 013   ----------------------------------------
 BYTE   W96
// 014   ----------------------------------------
 BYTE   W96
// 015   ----------------------------------------
 BYTE   W96
// 016   ----------------------------------------
 BYTE   W96
// 017   ----------------------------------------
 BYTE   W96
// 018   ----------------------------------------
 BYTE   W96
// 019   ----------------------------------------
 BYTE   W96
// 020   ----------------------------------------
 BYTE   W96
// 021   ----------------------------------------
 BYTE   W96
// 022   ----------------------------------------
 BYTE   W96
// 023   ----------------------------------------
 BYTE   W96
// 024   ----------------------------------------
 BYTE   W96
// 025   ----------------------------------------
 BYTE   W96
// 026   ----------------------------------------
 BYTE   W96
// 027   ----------------------------------------
 BYTE   W96
// 028   ----------------------------------------
 BYTE   W96
// 029   ----------------------------------------
 BYTE   W96
// 030   ----------------------------------------
 BYTE   W96
// 031   ----------------------------------------
 BYTE   W96
// 032   ----------------------------------------
 BYTE   W96
// 033   ----------------------------------------
 BYTE   W96
// 034   ----------------------------------------
 BYTE   W96
// 035   ----------------------------------------
 BYTE   W96
// 036   ----------------------------------------
 BYTE   W96
// 037   ----------------------------------------
 BYTE   W42
 BYTE   As3  v076
 BYTE   W01
 BYTE   Cn4  v080
 BYTE   W02
 BYTE   Dn4  v084
 BYTE   W01
 BYTE   En4  v080
 BYTE   W02
 BYTE   N48  Dn4  v088
 BYTE   N48  Fn4
 BYTE   N48  As4
 BYTE   W48
// 038   ----------------------------------------
 BYTE   W42
 BYTE   N01  As3  v064
 BYTE   W01
 BYTE   Cn4  v080
 BYTE   W02
 BYTE   Dn4  v084
 BYTE   W01
 BYTE   En4
 BYTE   W02
 BYTE   N36  Dn4  v092
 BYTE   N36  Fn4
 BYTE   N36  As4
 BYTE   W42
 BYTE   N01  As3  v072
 BYTE   W01
 BYTE   En4  v088
 BYTE   W02
 BYTE   Cn5  v092
 BYTE   W01
 BYTE   Gn5
 BYTE   W02
// 039   ----------------------------------------
 BYTE   TIE  Cn6  v088
 BYTE   W96
// 040   ----------------------------------------
 BYTE   W96
// 041   ----------------------------------------
 BYTE   EOT
 BYTE   N72  Cn6  v080
 BYTE   W72
 BYTE   N01  Bn5  v072
 BYTE   W01
 BYTE   As5  v076
 BYTE   W02
 BYTE   An5  v072
 BYTE   W01
 BYTE   Gn5
 BYTE   W02
 BYTE   Fs5  v076
 BYTE   W01
 BYTE   En5  v072
 BYTE   W02
 BYTE   Dn5  v064
 BYTE   W01
 BYTE   Cn5  v072
 BYTE   W02
 BYTE   Bn4
 BYTE   W01
 BYTE   An4  v076
 BYTE   W02
 BYTE   Gn4
 BYTE   W01
 BYTE   Fn4  v072
 BYTE   W02
 BYTE   En4
 BYTE   W01
 BYTE   Dn4  v076
 BYTE   W02
 BYTE   Cn4  v072
 BYTE   W01
 BYTE   Bn3
 BYTE   W02
// 042   ----------------------------------------
 BYTE   An3
 BYTE   W01
 BYTE   Gn3  v076
 BYTE   W02
 BYTE   Fn3
 BYTE   W01
 BYTE   En3
 BYTE   W02
 BYTE   Dn3  v068
 BYTE   W90
// 043   ----------------------------------------
 BYTE   W96
// 044   ----------------------------------------
 BYTE   W96
// 045   ----------------------------------------
 BYTE   W96
// 046   ----------------------------------------
 BYTE   W96
// 047   ----------------------------------------
 BYTE   W96
// 048   ----------------------------------------
 BYTE   W96
// 049   ----------------------------------------
 BYTE   W96
// 050   ----------------------------------------
 BYTE   W96
// 051   ----------------------------------------
 BYTE   W96
// 052   ----------------------------------------
 BYTE   W96
// 053   ----------------------------------------
 BYTE   W96
// 054   ----------------------------------------
 BYTE   W96
// 055   ----------------------------------------
 BYTE   W96
// 056   ----------------------------------------
 BYTE   W96
// 057   ----------------------------------------
 BYTE   W96
// 058   ----------------------------------------
 BYTE   W96
// 059   ----------------------------------------
 BYTE   W96
// 060   ----------------------------------------
 BYTE   W96
// 061   ----------------------------------------
 BYTE   W96
// 062   ----------------------------------------
 BYTE   W96
// 063   ----------------------------------------
 BYTE   W96
// 064   ----------------------------------------
 BYTE   W96
// 065   ----------------------------------------
 BYTE   W96
// 066   ----------------------------------------
 BYTE   W96
// 067   ----------------------------------------
 BYTE   W96
// 068   ----------------------------------------
 BYTE   W96
// 069   ----------------------------------------
 BYTE   W96
// 070   ----------------------------------------
 BYTE   W96
// 071   ----------------------------------------
 BYTE   W96
// 072   ----------------------------------------
 BYTE   W96
// 073   ----------------------------------------
 BYTE   W96
// 074   ----------------------------------------
 BYTE   W96
// 075   ----------------------------------------
 BYTE   W96
// 076   ----------------------------------------
 BYTE   W96
// 077   ----------------------------------------
 BYTE   W96
// 078   ----------------------------------------
 BYTE   W96
// 079   ----------------------------------------
 BYTE   W96
// 080   ----------------------------------------
 BYTE   W96
// 081   ----------------------------------------
 BYTE   W96
// 082   ----------------------------------------
 BYTE   W96
// 083   ----------------------------------------
 BYTE   W96
// 084   ----------------------------------------
 BYTE   W96
// 085   ----------------------------------------
 BYTE   W96
// 086   ----------------------------------------
 BYTE   W96
// 087   ----------------------------------------
 BYTE   W96
// 088   ----------------------------------------
 BYTE   W96
// 089   ----------------------------------------
 BYTE   W96
// 090   ----------------------------------------
 BYTE   W96
// 091   ----------------------------------------
 BYTE   W96
// 092   ----------------------------------------
 BYTE   W96
// 093   ----------------------------------------
 BYTE   W96
// 094   ----------------------------------------
 BYTE   W96
// 095   ----------------------------------------
 BYTE   W96
// 096   ----------------------------------------
 BYTE   W96
// 097   ----------------------------------------
 BYTE   W96
// 098   ----------------------------------------
 BYTE   W96
// 099   ----------------------------------------
 BYTE   W96
// 100   ----------------------------------------
 BYTE   W96
// 101   ----------------------------------------
 BYTE   W96
// 102   ----------------------------------------
 BYTE   W96
// 103   ----------------------------------------
 BYTE   W96
// 104   ----------------------------------------
 BYTE   W96
// 105   ----------------------------------------
 BYTE   W96
// 106   ----------------------------------------
 BYTE   W96
// 107   ----------------------------------------
 BYTE   W96
// 108   ----------------------------------------
 BYTE   W42
 BYTE   As3  v072
 BYTE   W01
 BYTE   Cn4  v080
 BYTE   W02
 BYTE   Dn4  v084
 BYTE   W01
 BYTE   En4
 BYTE   W02
 BYTE   N48  Dn4  v088
 BYTE   N48  Fn4
 BYTE   N48  As4
 BYTE   W48
// 109   ----------------------------------------
 BYTE   W42
 BYTE   N01  As3  v068
 BYTE   W01
 BYTE   Cn4  v080
 BYTE   W02
 BYTE   Dn4  v084
 BYTE   W01
 BYTE   En4  v076
 BYTE   W02
 BYTE   N36  Dn4  v092
 BYTE   N36  Fn4
 BYTE   N36  As4
 BYTE   W42
 BYTE   N01  As3  v068
 BYTE   W01
 BYTE   En4  v092
 BYTE   W02
 BYTE   Cn5
 BYTE   W01
 BYTE   Gn5
 BYTE   W02
 BYTE   FINE

//**************** Track 13 (Midi-Chn.12) ****************//

MOTHER3MasterPorkysThemeMrGreen3339_013:
// 000   ----------------------------------------
 BYTE   KEYSH   MOTHER3MasterPorkysThemeMrGreen3339_key+0
 BYTE   VOICE   54
 BYTE   PAN   c_v+0
 BYTE   VOL   51*MOTHER3MasterPorkysThemeMrGreen3339_mvl/mxv
 BYTE   N48  As2  v127
 BYTE   N48  As3
 BYTE   W48
 BYTE   As2
 BYTE   N48  As3
 BYTE   W48
// 001   ----------------------------------------
 BYTE   W96
// 002   ----------------------------------------
 BYTE   W96
// 003   ----------------------------------------
 BYTE   W96
// 004   ----------------------------------------
 BYTE   W96
// 005   ----------------------------------------
 BYTE   W96
// 006   ----------------------------------------
 BYTE   W90
 BYTE   N03  Fn3
 BYTE   W03
 BYTE   An3
 BYTE   W03
// 007   ----------------------------------------
Label_12_010D5879:
 BYTE   N24  As3  v127
 BYTE   W90
 BYTE   N03  An3
 BYTE   W03
 BYTE   As3
 BYTE   W03
 BYTE   PEND 
// 008   ----------------------------------------
 BYTE   N24  Cn4
 BYTE   W36
 BYTE   An3
 BYTE   W36
 BYTE   N18  Fn3
 BYTE   W18
 BYTE   N03
 BYTE   W03
 BYTE   An3
 BYTE   W03
 BYTE   PATT
  POIN2 Label_12_010D5879
// 009   ----------------------------------------
 BYTE   N24  Cn4  v127
 BYTE   W36
 BYTE   An3
 BYTE   W36
 BYTE   N18  Fn3
 BYTE   W24
// 010   ----------------------------------------
 BYTE   N24  As3  v104
 BYTE   W96
// 011   ----------------------------------------
 BYTE   W96
// 012   ----------------------------------------
 BYTE   W96
// 013   ----------------------------------------
 BYTE   W96
// 014   ----------------------------------------
 BYTE   N24
 BYTE   W96
// 015   ----------------------------------------
 BYTE   W96
// 016   ----------------------------------------
 BYTE   W96
// 017   ----------------------------------------
 BYTE   W96
// 018   ----------------------------------------
 BYTE   N24
 BYTE   W96
// 019   ----------------------------------------
 BYTE   W96
// 020   ----------------------------------------
 BYTE   W96
// 021   ----------------------------------------
 BYTE   W96
// 022   ----------------------------------------
 BYTE   As3  v108
 BYTE   W96
// 023   ----------------------------------------
 BYTE   W96
// 024   ----------------------------------------
 BYTE   W96
// 025   ----------------------------------------
 BYTE   W96
// 026   ----------------------------------------
Label_12_010D58B4:
 BYTE   N48  As2  v127
 BYTE   N48  As3
 BYTE   W48
 BYTE   As2
 BYTE   N48  As3
 BYTE   W48
 BYTE   PEND 
// 027   ----------------------------------------
 BYTE   W96
// 028   ----------------------------------------
 BYTE   W96
// 029   ----------------------------------------
 BYTE   W96
// 030   ----------------------------------------
 BYTE   W96
// 031   ----------------------------------------
 BYTE   W96
// 032   ----------------------------------------
 BYTE   W96
// 033   ----------------------------------------
 BYTE   Dn2  v104
 BYTE   N48  Dn3
 BYTE   N48  Dn4
 BYTE   W48
 BYTE   Gn2  v127
 BYTE   N48  Gn3
 BYTE   N48  Gn4
 BYTE   W48
// 034   ----------------------------------------
 BYTE   Cn2  v096
 BYTE   N48  Cn3
 BYTE   N48  Cn4
 BYTE   W96
 BYTE   PATT
  POIN2 Label_12_010D58B4
// 035   ----------------------------------------
 BYTE   W96
// 036   ----------------------------------------
 BYTE   W96
// 037   ----------------------------------------
 BYTE   W96
// 038   ----------------------------------------
 BYTE   W96
// 039   ----------------------------------------
 BYTE   W96
// 040   ----------------------------------------
 BYTE   W96
// 041   ----------------------------------------
 BYTE   W96
// 042   ----------------------------------------
 BYTE   W96
// 043   ----------------------------------------
 BYTE   W96
// 044   ----------------------------------------
 BYTE   W96
// 045   ----------------------------------------
 BYTE   W96
// 046   ----------------------------------------
 BYTE   W96
// 047   ----------------------------------------
 BYTE   W96
// 048   ----------------------------------------
 BYTE   W96
// 049   ----------------------------------------
 BYTE   W96
// 050   ----------------------------------------
 BYTE   W96
// 051   ----------------------------------------
 BYTE   W96
// 052   ----------------------------------------
 BYTE   W96
// 053   ----------------------------------------
 BYTE   W96
// 054   ----------------------------------------
 BYTE   W96
// 055   ----------------------------------------
 BYTE   W96
// 056   ----------------------------------------
 BYTE   W96
// 057   ----------------------------------------
 BYTE   W96
// 058   ----------------------------------------
 BYTE   W96
// 059   ----------------------------------------
 BYTE   W96
// 060   ----------------------------------------
 BYTE   W96
// 061   ----------------------------------------
 BYTE   W96
// 062   ----------------------------------------
 BYTE   W96
// 063   ----------------------------------------
 BYTE   W96
// 064   ----------------------------------------
 BYTE   W48
 BYTE   N12  Cn3  v104
 BYTE   N12  Cn4
 BYTE   W12
 BYTE   Cn3  v112
 BYTE   N12  Cn4
 BYTE   W36
// 065   ----------------------------------------
 BYTE   W96
// 066   ----------------------------------------
 BYTE   W96
// 067   ----------------------------------------
 BYTE   W96
// 068   ----------------------------------------
 BYTE   W72
 BYTE   Gs2  v100
 BYTE   N12  Gs3
 BYTE   W12
 BYTE   Cn3  v124
 BYTE   N12  Cn4
 BYTE   W12
// 069   ----------------------------------------
 BYTE   W96
// 070   ----------------------------------------
 BYTE   W96
// 071   ----------------------------------------
 BYTE   W24
 BYTE   Cn3  v104
 BYTE   N12  Cn4
 BYTE   W36
 BYTE   Cn3  v108
 BYTE   N12  Cn4
 BYTE   W36
// 072   ----------------------------------------
 BYTE   W96
// 073   ----------------------------------------
 BYTE   W96
// 074   ----------------------------------------
 BYTE   W96
// 075   ----------------------------------------
 BYTE   W96
// 076   ----------------------------------------
 BYTE   W96
// 077   ----------------------------------------
 BYTE   W96
// 078   ----------------------------------------
 BYTE   W96
// 079   ----------------------------------------
 BYTE   W96
// 080   ----------------------------------------
 BYTE   W96
// 081   ----------------------------------------
 BYTE   W96
// 082   ----------------------------------------
 BYTE   W96
// 083   ----------------------------------------
 BYTE   W96
// 084   ----------------------------------------
 BYTE   W96
// 085   ----------------------------------------
 BYTE   W96
// 086   ----------------------------------------
 BYTE   W96
// 087   ----------------------------------------
 BYTE   W96
// 088   ----------------------------------------
 BYTE   W96
// 089   ----------------------------------------
 BYTE   W96
// 090   ----------------------------------------
 BYTE   W96
// 091   ----------------------------------------
 BYTE   W96
// 092   ----------------------------------------
 BYTE   W96
// 093   ----------------------------------------
 BYTE   W96
// 094   ----------------------------------------
 BYTE   W96
// 095   ----------------------------------------
 BYTE   W96
// 096   ----------------------------------------
 BYTE   W48
 BYTE   Cn3  v104
 BYTE   N12  Cn4
 BYTE   W12
 BYTE   Cn3  v116
 BYTE   N12  Cn4
 BYTE   W36
// 097   ----------------------------------------
 BYTE   W96
// 098   ----------------------------------------
 BYTE   W96
// 099   ----------------------------------------
 BYTE   W96
// 100   ----------------------------------------
 BYTE   W72
 BYTE   Gs2  v108
 BYTE   N12  Gs3
 BYTE   W12
 BYTE   Cn3  v124
 BYTE   N12  Cn4
 BYTE   W12
// 101   ----------------------------------------
 BYTE   W96
// 102   ----------------------------------------
 BYTE   W96
// 103   ----------------------------------------
 BYTE   W24
 BYTE   Cn3  v104
 BYTE   N12  Cn4
 BYTE   W36
 BYTE   Cn3
 BYTE   N12  Cn4
 BYTE   W36
// 104   ----------------------------------------
 BYTE   W96
 BYTE   PATT
  POIN2 Label_12_010D58B4
// 105   ----------------------------------------
 BYTE   W96
// 106   ----------------------------------------
 BYTE   W96
 BYTE   FINE

//**************** Track 14 (Midi-Chn.13) ****************//

MOTHER3MasterPorkysThemeMrGreen3339_014:
// 000   ----------------------------------------
 BYTE   KEYSH   MOTHER3MasterPorkysThemeMrGreen3339_key+0
 BYTE   VOICE   54
 BYTE   PAN   c_v+0
 BYTE   VOL   51*MOTHER3MasterPorkysThemeMrGreen3339_mvl/mxv
 BYTE   N48  Dn2  v040
 BYTE   W48
 BYTE   Dn2  v044
 BYTE   W48
// 001   ----------------------------------------
 BYTE   W96
// 002   ----------------------------------------
 BYTE   W96
// 003   ----------------------------------------
 BYTE   W96
// 004   ----------------------------------------
 BYTE   W96
// 005   ----------------------------------------
 BYTE   W96
// 006   ----------------------------------------
 BYTE   W96
// 007   ----------------------------------------
 BYTE   W96
// 008   ----------------------------------------
 BYTE   W96
// 009   ----------------------------------------
 BYTE   W96
// 010   ----------------------------------------
 BYTE   W96
// 011   ----------------------------------------
 BYTE   W96
// 012   ----------------------------------------
 BYTE   W96
// 013   ----------------------------------------
 BYTE   W96
// 014   ----------------------------------------
 BYTE   W96
// 015   ----------------------------------------
 BYTE   W96
// 016   ----------------------------------------
 BYTE   W96
// 017   ----------------------------------------
 BYTE   W96
// 018   ----------------------------------------
 BYTE   W96
// 019   ----------------------------------------
 BYTE   W96
// 020   ----------------------------------------
 BYTE   W96
// 021   ----------------------------------------
 BYTE   W96
// 022   ----------------------------------------
 BYTE   W96
// 023   ----------------------------------------
 BYTE   W96
// 024   ----------------------------------------
 BYTE   W96
// 025   ----------------------------------------
 BYTE   W96
// 026   ----------------------------------------
 BYTE   W96
// 027   ----------------------------------------
Label_13_010D5995:
 BYTE   N48  Dn2  v036
 BYTE   W48
 BYTE   Dn2  v044
 BYTE   W48
 BYTE   PEND 
// 028   ----------------------------------------
 BYTE   W96
// 029   ----------------------------------------
 BYTE   W96
// 030   ----------------------------------------
 BYTE   W96
// 031   ----------------------------------------
 BYTE   W96
// 032   ----------------------------------------
 BYTE   W96
// 033   ----------------------------------------
 BYTE   W96
// 034   ----------------------------------------
 BYTE   W96
// 035   ----------------------------------------
 BYTE   W96
 BYTE   PATT
  POIN2 Label_13_010D5995
// 036   ----------------------------------------
 BYTE   W96
// 037   ----------------------------------------
 BYTE   W96
// 038   ----------------------------------------
 BYTE   W96
// 039   ----------------------------------------
 BYTE   W96
// 040   ----------------------------------------
 BYTE   W96
// 041   ----------------------------------------
 BYTE   W96
// 042   ----------------------------------------
 BYTE   W96
// 043   ----------------------------------------
 BYTE   W96
// 044   ----------------------------------------
 BYTE   W96
// 045   ----------------------------------------
 BYTE   W96
// 046   ----------------------------------------
 BYTE   W96
// 047   ----------------------------------------
 BYTE   W96
// 048   ----------------------------------------
 BYTE   W96
// 049   ----------------------------------------
 BYTE   W96
// 050   ----------------------------------------
 BYTE   W96
// 051   ----------------------------------------
 BYTE   W96
// 052   ----------------------------------------
 BYTE   W96
// 053   ----------------------------------------
 BYTE   W96
// 054   ----------------------------------------
 BYTE   W96
// 055   ----------------------------------------
 BYTE   W96
// 056   ----------------------------------------
 BYTE   W96
// 057   ----------------------------------------
 BYTE   W96
// 058   ----------------------------------------
 BYTE   W96
// 059   ----------------------------------------
 BYTE   W96
// 060   ----------------------------------------
 BYTE   W96
// 061   ----------------------------------------
 BYTE   W96
// 062   ----------------------------------------
 BYTE   W96
// 063   ----------------------------------------
 BYTE   W96
// 064   ----------------------------------------
 BYTE   W96
// 065   ----------------------------------------
 BYTE   W96
// 066   ----------------------------------------
 BYTE   W96
// 067   ----------------------------------------
 BYTE   W96
// 068   ----------------------------------------
 BYTE   W96
// 069   ----------------------------------------
 BYTE   W96
// 070   ----------------------------------------
 BYTE   W96
// 071   ----------------------------------------
 BYTE   W96
// 072   ----------------------------------------
 BYTE   W96
// 073   ----------------------------------------
 BYTE   W96
// 074   ----------------------------------------
 BYTE   W96
// 075   ----------------------------------------
 BYTE   W96
// 076   ----------------------------------------
 BYTE   W96
// 077   ----------------------------------------
 BYTE   W96
// 078   ----------------------------------------
 BYTE   W96
// 079   ----------------------------------------
 BYTE   W96
// 080   ----------------------------------------
 BYTE   W96
// 081   ----------------------------------------
 BYTE   W96
// 082   ----------------------------------------
 BYTE   W96
// 083   ----------------------------------------
 BYTE   W96
// 084   ----------------------------------------
 BYTE   W96
// 085   ----------------------------------------
 BYTE   W96
// 086   ----------------------------------------
 BYTE   W96
// 087   ----------------------------------------
 BYTE   W96
// 088   ----------------------------------------
 BYTE   W96
// 089   ----------------------------------------
 BYTE   W96
// 090   ----------------------------------------
 BYTE   W96
// 091   ----------------------------------------
 BYTE   W96
// 092   ----------------------------------------
 BYTE   W96
// 093   ----------------------------------------
 BYTE   W96
// 094   ----------------------------------------
 BYTE   W96
// 095   ----------------------------------------
 BYTE   W96
// 096   ----------------------------------------
 BYTE   W96
// 097   ----------------------------------------
 BYTE   W96
// 098   ----------------------------------------
 BYTE   W96
// 099   ----------------------------------------
 BYTE   W96
// 100   ----------------------------------------
 BYTE   W96
// 101   ----------------------------------------
 BYTE   W96
// 102   ----------------------------------------
 BYTE   W96
// 103   ----------------------------------------
 BYTE   W96
// 104   ----------------------------------------
 BYTE   W96
// 105   ----------------------------------------
 BYTE   W96
// 106   ----------------------------------------
 BYTE   N48  Dn2  v040
 BYTE   W48
 BYTE   Dn2  v044
 BYTE   W48
// 107   ----------------------------------------
 BYTE   W96
// 108   ----------------------------------------
 BYTE   W96
 BYTE   FINE

//**************** Track 15 (Midi-Chn.14) ****************//

MOTHER3MasterPorkysThemeMrGreen3339_015:
// 000   ----------------------------------------
 BYTE   KEYSH   MOTHER3MasterPorkysThemeMrGreen3339_key+0
 BYTE   PAN   c_v+0
 BYTE   VOL   51*MOTHER3MasterPorkysThemeMrGreen3339_mvl/mxv
 BYTE   W96
// 001   ----------------------------------------
 BYTE   W96
// 002   ----------------------------------------
 BYTE   W96
// 003   ----------------------------------------
 BYTE   W24
 BYTE   VOICE   127
 BYTE   N24  En1  v064
 BYTE   W48
 BYTE   En1  v072
 BYTE   W24
// 004   ----------------------------------------
Label_14_010D5A0F:
 BYTE   W24
 BYTE   N24  En1  v072
 BYTE   W48
 BYTE   En1  v068
 BYTE   W24
 BYTE   PEND 
 BYTE   PATT
  POIN2 Label_14_010D5A0F
// 005   ----------------------------------------
Label_14_010D5A1D:
 BYTE   W24
 BYTE   N24  En1  v068
 BYTE   W48
 BYTE   En1  v072
 BYTE   W24
 BYTE   PEND 
 BYTE   PATT
  POIN2 Label_14_010D5A0F
// 006   ----------------------------------------
 BYTE   N24  Bn0  v076
 BYTE   W24
 BYTE   N12  En1  v084
 BYTE   W12
 BYTE   Bn0  v072
 BYTE   W36
 BYTE   N24  En1
 BYTE   W24
// 007   ----------------------------------------
Label_14_010D5A39:
 BYTE   W24
 BYTE   N24  En1  v068
 BYTE   W48
 BYTE   N24
 BYTE   W24
 BYTE   PEND 
 BYTE   PATT
  POIN2 Label_14_010D5A39
 BYTE   PATT
  POIN2 Label_14_010D5A0F
// 008   ----------------------------------------
 BYTE   N24  Bn0  v068
 BYTE   W24
 BYTE   N12  En1  v084
 BYTE   W12
 BYTE   Bn0  v068
 BYTE   W36
 BYTE   N24  En1  v072
 BYTE   W24
 BYTE   PATT
  POIN2 Label_14_010D5A1D
 BYTE   PATT
  POIN2 Label_14_010D5A0F
// 009   ----------------------------------------
 BYTE   W24
 BYTE   N24  En1  v072
 BYTE   W48
 BYTE   N24
 BYTE   W24
// 010   ----------------------------------------
 BYTE   Bn0
 BYTE   W24
 BYTE   N12  En1  v080
 BYTE   W12
 BYTE   Bn0  v072
 BYTE   W36
 BYTE   N24  En1  v068
 BYTE   W24
// 011   ----------------------------------------
Label_14_010D5A78:
 BYTE   W24
 BYTE   N24  En1  v064
 BYTE   W48
 BYTE   En1  v072
 BYTE   W24
 BYTE   PEND 
 BYTE   PATT
  POIN2 Label_14_010D5A0F
 BYTE   PATT
  POIN2 Label_14_010D5A1D
// 012   ----------------------------------------
 BYTE   N24  Bn0  v068
 BYTE   W24
 BYTE   N12  En1  v084
 BYTE   W12
 BYTE   Bn0  v076
 BYTE   W36
 BYTE   N24  En1  v072
 BYTE   W24
 BYTE   PATT
  POIN2 Label_14_010D5A78
 BYTE   PATT
  POIN2 Label_14_010D5A1D
 BYTE   PATT
  POIN2 Label_14_010D5A0F
// 013   ----------------------------------------
 BYTE   N24  Bn0  v068
 BYTE   W24
 BYTE   N12  En1  v080
 BYTE   W12
 BYTE   Bn0  v076
 BYTE   W36
 BYTE   N24  En1  v072
 BYTE   W24
 BYTE   PATT
  POIN2 Label_14_010D5A39
 BYTE   PATT
  POIN2 Label_14_010D5A1D
// 014   ----------------------------------------
 BYTE   W96
// 015   ----------------------------------------
 BYTE   W96
// 016   ----------------------------------------
 BYTE   W96
// 017   ----------------------------------------
 BYTE   W96
// 018   ----------------------------------------
 BYTE   W96
// 019   ----------------------------------------
 BYTE   W96
// 020   ----------------------------------------
 BYTE   W96
// 021   ----------------------------------------
 BYTE   W96
// 022   ----------------------------------------
 BYTE   W96
// 023   ----------------------------------------
 BYTE   W96
// 024   ----------------------------------------
 BYTE   W96
// 025   ----------------------------------------
 BYTE   W96
// 026   ----------------------------------------
 BYTE   W48
 BYTE   N48  En1  v068
 BYTE   W48
// 027   ----------------------------------------
 BYTE   W48
 BYTE   En1  v072
 BYTE   W48
// 028   ----------------------------------------
 BYTE   W48
 BYTE   N48
 BYTE   W48
// 029   ----------------------------------------
 BYTE   W48
 BYTE   En1  v068
 BYTE   W48
// 030   ----------------------------------------
 BYTE   W48
 BYTE   En1  v064
 BYTE   W48
// 031   ----------------------------------------
 BYTE   W48
 BYTE   En1  v068
 BYTE   W48
// 032   ----------------------------------------
 BYTE   W48
 BYTE   N48
 BYTE   W48
// 033   ----------------------------------------
 BYTE   W48
 BYTE   En1  v072
 BYTE   W48
// 034   ----------------------------------------
 BYTE   W48
 BYTE   En1  v068
 BYTE   W48
// 035   ----------------------------------------
 BYTE   W48
 BYTE   N48
 BYTE   W48
// 036   ----------------------------------------
 BYTE   W48
 BYTE   N48
 BYTE   W48
// 037   ----------------------------------------
 BYTE   W48
 BYTE   N48
 BYTE   W48
// 038   ----------------------------------------
 BYTE   W48
 BYTE   En1  v076
 BYTE   W48
// 039   ----------------------------------------
 BYTE   W48
 BYTE   En1  v068
 BYTE   W48
// 040   ----------------------------------------
 BYTE   W48
 BYTE   N48
 BYTE   W48
// 041   ----------------------------------------
 BYTE   W48
 BYTE   En1  v072
 BYTE   W48
// 042   ----------------------------------------
 BYTE   W48
 BYTE   N48
 BYTE   W48
// 043   ----------------------------------------
 BYTE   W48
 BYTE   N48
 BYTE   W48
// 044   ----------------------------------------
 BYTE   W48
 BYTE   N48
 BYTE   W48
// 045   ----------------------------------------
 BYTE   W48
 BYTE   En1  v064
 BYTE   W48
// 046   ----------------------------------------
 BYTE   W48
 BYTE   En1  v068
 BYTE   W48
// 047   ----------------------------------------
 BYTE   W48
 BYTE   En1  v064
 BYTE   W48
// 048   ----------------------------------------
 BYTE   W48
 BYTE   En1  v068
 BYTE   W48
// 049   ----------------------------------------
 BYTE   W48
 BYTE   En1  v076
 BYTE   W48
// 050   ----------------------------------------
 BYTE   W48
 BYTE   En1  v068
 BYTE   W48
// 051   ----------------------------------------
 BYTE   W48
 BYTE   N48
 BYTE   W48
// 052   ----------------------------------------
 BYTE   W48
 BYTE   N48
 BYTE   W48
// 053   ----------------------------------------
Label_14_010D5B30:
 BYTE   W48
 BYTE   N12  Cn1  v068
 BYTE   N12  An2
 BYTE   W12
 BYTE   Cn1  v076
 BYTE   N12  An2
 BYTE   W36
 BYTE   PEND 
// 054   ----------------------------------------
 BYTE   W48
 BYTE   N48  En1  v072
 BYTE   W48
// 055   ----------------------------------------
 BYTE   W48
 BYTE   N48
 BYTE   W48
// 056   ----------------------------------------
 BYTE   W48
 BYTE   N48
 BYTE   W48
// 057   ----------------------------------------
 BYTE   W48
 BYTE   N24  En1  v068
 BYTE   W24
 BYTE   N12  Bn0  v112
 BYTE   N12  En2
 BYTE   W12
 BYTE   Cn1  v104
 BYTE   N12  En2
 BYTE   W12
// 058   ----------------------------------------
 BYTE   W48
 BYTE   N48  En1  v068
 BYTE   W48
// 059   ----------------------------------------
 BYTE   W48
 BYTE   N48
 BYTE   W48
// 060   ----------------------------------------
 BYTE   W24
 BYTE   N12  Cn1
 BYTE   N12  An2
 BYTE   W36
 BYTE   Cn1  v072
 BYTE   N12  An2
 BYTE   W36
// 061   ----------------------------------------
 BYTE   W48
 BYTE   N48  En1  v068
 BYTE   W48
// 062   ----------------------------------------
 BYTE   W48
 BYTE   En1  v072
 BYTE   W48
// 063   ----------------------------------------
 BYTE   W48
 BYTE   En1  v068
 BYTE   W48
// 064   ----------------------------------------
 BYTE   W48
 BYTE   En1  v072
 BYTE   W48
// 065   ----------------------------------------
 BYTE   W48
 BYTE   N48
 BYTE   W48
// 066   ----------------------------------------
 BYTE   W48
 BYTE   En1  v064
 BYTE   W48
// 067   ----------------------------------------
 BYTE   W48
 BYTE   En1  v072
 BYTE   W48
// 068   ----------------------------------------
 BYTE   W48
 BYTE   En1  v068
 BYTE   W48
// 069   ----------------------------------------
 BYTE   W48
 BYTE   En1  v072
 BYTE   W48
// 070   ----------------------------------------
 BYTE   W48
 BYTE   En1  v068
 BYTE   W48
// 071   ----------------------------------------
 BYTE   W48
 BYTE   En1  v064
 BYTE   W48
// 072   ----------------------------------------
 BYTE   W48
 BYTE   En1  v068
 BYTE   W48
// 073   ----------------------------------------
 BYTE   W48
 BYTE   En1  v072
 BYTE   W48
// 074   ----------------------------------------
 BYTE   W48
 BYTE   En1  v076
 BYTE   W48
// 075   ----------------------------------------
 BYTE   W48
 BYTE   En1  v068
 BYTE   W48
// 076   ----------------------------------------
 BYTE   W48
 BYTE   En1  v072
 BYTE   W48
// 077   ----------------------------------------
 BYTE   W48
 BYTE   En1  v064
 BYTE   W48
// 078   ----------------------------------------
 BYTE   W48
 BYTE   En1  v068
 BYTE   W48
// 079   ----------------------------------------
 BYTE   W48
 BYTE   N48
 BYTE   W48
// 080   ----------------------------------------
 BYTE   W48
 BYTE   En1  v064
 BYTE   W48
// 081   ----------------------------------------
 BYTE   W48
 BYTE   En1  v072
 BYTE   W48
// 082   ----------------------------------------
 BYTE   W48
 BYTE   N48
 BYTE   W48
// 083   ----------------------------------------
 BYTE   W48
 BYTE   N48
 BYTE   W48
// 084   ----------------------------------------
 BYTE   W48
 BYTE   En1  v068
 BYTE   W48
 BYTE   PATT
  POIN2 Label_14_010D5B30
// 085   ----------------------------------------
 BYTE   W48
 BYTE   N48  En1  v068
 BYTE   W48
// 086   ----------------------------------------
 BYTE   W48
 BYTE   N48
 BYTE   W48
// 087   ----------------------------------------
 BYTE   W48
 BYTE   N48
 BYTE   W48
// 088   ----------------------------------------
 BYTE   W48
 BYTE   N24
 BYTE   W24
 BYTE   N12  Bn0  v108
 BYTE   N12  En2
 BYTE   W12
 BYTE   Cn1  v104
 BYTE   N12  En2
 BYTE   W12
// 089   ----------------------------------------
 BYTE   W48
 BYTE   N48  En1  v068
 BYTE   W48
// 090   ----------------------------------------
 BYTE   W48
 BYTE   En1  v064
 BYTE   W48
// 091   ----------------------------------------
 BYTE   W24
 BYTE   N12  Cn1  v072
 BYTE   N12  An2
 BYTE   W36
 BYTE   Cn1  v068
 BYTE   N12  An2
 BYTE   W36
// 092   ----------------------------------------
 BYTE   W48
 BYTE   N48  En1  v072
 BYTE   W48
// 093   ----------------------------------------
 BYTE   W96
// 094   ----------------------------------------
 BYTE   W96
// 095   ----------------------------------------
 BYTE   W96
 BYTE   FINE

//******************************************************//
	ALIGN 4

MOTHER3MasterPorkysThemeMrGreen3339:
	BYTE	15	// NumTrks
	BYTE	0	// NumBlks
	BYTE	MOTHER3MasterPorkysThemeMrGreen3339_pri	// Priority
	BYTE	MOTHER3MasterPorkysThemeMrGreen3339_rev	// Reverb.
    
	POIN2	MOTHER3MasterPorkysThemeMrGreen3339_grp
    
	POIN2	MOTHER3MasterPorkysThemeMrGreen3339_001
	POIN2	MOTHER3MasterPorkysThemeMrGreen3339_002
	POIN2	MOTHER3MasterPorkysThemeMrGreen3339_003
	POIN2	MOTHER3MasterPorkysThemeMrGreen3339_004
	POIN2	MOTHER3MasterPorkysThemeMrGreen3339_005
	POIN2	MOTHER3MasterPorkysThemeMrGreen3339_006
	POIN2	MOTHER3MasterPorkysThemeMrGreen3339_007
	POIN2	MOTHER3MasterPorkysThemeMrGreen3339_008
	POIN2	MOTHER3MasterPorkysThemeMrGreen3339_009
	POIN2	MOTHER3MasterPorkysThemeMrGreen3339_010
	POIN2	MOTHER3MasterPorkysThemeMrGreen3339_011
	POIN2	MOTHER3MasterPorkysThemeMrGreen3339_012
	POIN2	MOTHER3MasterPorkysThemeMrGreen3339_013
	POIN2	MOTHER3MasterPorkysThemeMrGreen3339_014
	POIN2	MOTHER3MasterPorkysThemeMrGreen3339_015

	
