//Event file generated from Sappy .s format.
	#include "MPlayDef.event"

	#define	RomancingSagaCoupdeGraceRSflame_grp  voicegroup000
	#define	RomancingSagaCoupdeGraceRSflame_pri  10
	#define	RomancingSagaCoupdeGraceRSflame_rev  0
	#define	RomancingSagaCoupdeGraceRSflame_mvl  127
	#define	RomancingSagaCoupdeGraceRSflame_key  0
	#define	RomancingSagaCoupdeGraceRSflame_tbs  1
	#define	RomancingSagaCoupdeGraceRSflame_exg  0
	#define	RomancingSagaCoupdeGraceRSflame_cmp  1

	// .rodata
	//	RomancingSagaCoupdeGraceRSflame
	ALIGN 4


//**************** Track 1 (Midi-Chn.0) ****************//

RomancingSagaCoupdeGraceRSflame_001:
// 000   ----------------------------------------
Label_0_01E56518:
 BYTE   KEYSH   RomancingSagaCoupdeGraceRSflame_key+0
 BYTE   VOICE   61
 BYTE   VOL   38*RomancingSagaCoupdeGraceRSflame_mvl/mxv
 BYTE   PAN   c_v-39
 BYTE   TEMPO   160*RomancingSagaCoupdeGraceRSflame_tbs/2
 BYTE   W24
 BYTE   N23  Cn3  v113
 BYTE   W24
 BYTE   Dn3
 BYTE   W24
 BYTE   Ds3
 BYTE   W24
// 001   ----------------------------------------
 BYTE   Fn3
 BYTE   W24
 BYTE   Dn3
 BYTE   W24
 BYTE   Ds3
 BYTE   W24
 BYTE   Fn3
 BYTE   W24
// 002   ----------------------------------------
 BYTE   Gn3
 BYTE   W24
 BYTE   Ds3
 BYTE   W24
 BYTE   Fn3
 BYTE   W24
 BYTE   Gn3
 BYTE   W24
// 003   ----------------------------------------
 BYTE   Gs3
 BYTE   W24
 BYTE   Fn3
 BYTE   W24
 BYTE   Gn3
 BYTE   W24
 BYTE   Bn3
 BYTE   W24
// 004   ----------------------------------------
 BYTE   N05  Cn4
 BYTE   W06
 BYTE   Gn3
 BYTE   W06
 BYTE   En3
 BYTE   W06
 BYTE   Cn3
 BYTE   W06
 BYTE   Cn4
 BYTE   W06
 BYTE   Gn3
 BYTE   W06
 BYTE   En3
 BYTE   W06
 BYTE   Cn3
 BYTE   W06
 BYTE   Cn4
 BYTE   W06
 BYTE   Gn3
 BYTE   W06
 BYTE   En3
 BYTE   W06
 BYTE   Cn3
 BYTE   W06
 BYTE   Cn4
 BYTE   W06
 BYTE   Gn3
 BYTE   W06
 BYTE   En3
 BYTE   W06
 BYTE   Cn3
 BYTE   W06
// 005   ----------------------------------------
 BYTE   As3
 BYTE   W06
 BYTE   Gn3
 BYTE   W06
 BYTE   En3
 BYTE   W06
 BYTE   Cn3
 BYTE   W06
 BYTE   As3
 BYTE   W06
 BYTE   Gn3
 BYTE   W06
 BYTE   En3
 BYTE   W06
 BYTE   Cn3
 BYTE   W06
 BYTE   As3
 BYTE   W06
 BYTE   Gn3
 BYTE   W06
 BYTE   En3
 BYTE   W06
 BYTE   Cn3
 BYTE   W06
 BYTE   As3
 BYTE   W06
 BYTE   Gn3
 BYTE   W06
 BYTE   En3
 BYTE   W06
 BYTE   Cn3
 BYTE   W06
// 006   ----------------------------------------
 BYTE   Gs3
 BYTE   W06
 BYTE   Fn3
 BYTE   W06
 BYTE   Cn3
 BYTE   W06
 BYTE   Gs2
 BYTE   W06
 BYTE   Gs3
 BYTE   W06
 BYTE   Fn3
 BYTE   W06
 BYTE   Cn3
 BYTE   W06
 BYTE   Gs2
 BYTE   W06
 BYTE   Gs3
 BYTE   W06
 BYTE   Fn3
 BYTE   W06
 BYTE   Cn3
 BYTE   W06
 BYTE   Gs2
 BYTE   W06
 BYTE   Gs3
 BYTE   W06
 BYTE   Fn3
 BYTE   W06
 BYTE   Cn3
 BYTE   W06
 BYTE   Gs2
 BYTE   W06
// 007   ----------------------------------------
 BYTE   Fs3
 BYTE   W06
 BYTE   Dn3
 BYTE   W06
 BYTE   An2
 BYTE   W06
 BYTE   Fs2
 BYTE   W06
 BYTE   Fs3
 BYTE   W06
 BYTE   Dn3
 BYTE   W06
 BYTE   An2
 BYTE   W06
 BYTE   Fs2
 BYTE   W06
 BYTE   Fs3
 BYTE   W06
 BYTE   Dn3
 BYTE   W06
 BYTE   An2
 BYTE   W06
 BYTE   Fs2
 BYTE   W06
 BYTE   Fs3
 BYTE   W06
 BYTE   Dn3
 BYTE   W06
 BYTE   An2
 BYTE   W06
 BYTE   Fs2
 BYTE   W06
// 008   ----------------------------------------
 BYTE   N92  Gn3
 BYTE   W44
 BYTE   W02
 BYTE   N03
 BYTE   W48
 BYTE   W02
// 009   ----------------------------------------
 BYTE   N05  Ds3
 BYTE   W06
 BYTE   Gn2
 BYTE   W06
 BYTE   As2
 BYTE   W06
 BYTE   Ds3
 BYTE   W06
 BYTE   Gn3
 BYTE   W06
 BYTE   As2
 BYTE   W06
 BYTE   Ds3
 BYTE   W06
 BYTE   Gn3
 BYTE   W06
 BYTE   Gs3
 BYTE   W06
 BYTE   Dn3
 BYTE   W06
 BYTE   Fn3
 BYTE   W06
 BYTE   Gs3
 BYTE   W06
 BYTE   Bn3
 BYTE   W06
 BYTE   Fn3
 BYTE   W06
 BYTE   Gs3
 BYTE   W06
 BYTE   Bn3
 BYTE   W06
// 010   ----------------------------------------
 BYTE   VOL   59*RomancingSagaCoupdeGraceRSflame_mvl/mxv
 BYTE   PAN   c_v+0
 BYTE   N32  Gn4  v113
 BYTE   W16
 BYTE   N03
 BYTE   W20
 BYTE   N08  As4
 BYTE   W12
 BYTE   N68  An4
 BYTE   W32
 BYTE   W02
 BYTE   N03
 BYTE   W36
// 011   ----------------------------------------
 BYTE   W02
 BYTE   N23  Gn4
 BYTE   W24
 BYTE   Fn4
 BYTE   W24
 BYTE   Ds4
 BYTE   W24
 BYTE   N15  Dn4
 BYTE   W16
 BYTE   Ds4
 BYTE   W16
// 012   ----------------------------------------
 BYTE   Dn4
 BYTE   W16
 BYTE   N56  Cn4
 BYTE   W28
 BYTE   N03
 BYTE   W44
 BYTE   N23  Dn4
 BYTE   W24
// 013   ----------------------------------------
 BYTE   Ds4
 BYTE   W24
 BYTE   Gn4
 BYTE   W24
 BYTE   N56  Fn4
 BYTE   W28
 BYTE   N03
 BYTE   W32
// 014   ----------------------------------------
 BYTE   N11  Ds4
 BYTE   W12
 BYTE   Dn4
 BYTE   W12
 BYTE   Ds4
 BYTE   W12
 BYTE   N44  Dn4
 BYTE   W22
 BYTE   N03
 BYTE   W24
 BYTE   W02
 BYTE   N23  Cn4
 BYTE   W24
// 015   ----------------------------------------
 BYTE   As3
 BYTE   W24
 BYTE   N92  Cn4
 BYTE   W44
 BYTE   W02
 BYTE   N03
 BYTE   W48
// 016   ----------------------------------------
 BYTE   W02
 BYTE   VOL   44*RomancingSagaCoupdeGraceRSflame_mvl/mxv
 BYTE   PAN   c_v-39
 BYTE   W24
 BYTE   N23  Dn3  v113
 BYTE   W24
 BYTE   Ds3
 BYTE   W24
 BYTE   Fn3
 BYTE   W24
// 017   ----------------------------------------
 BYTE   VOL   54*RomancingSagaCoupdeGraceRSflame_mvl/mxv
 BYTE   PAN   c_v+0
 BYTE   N32  Gn4  v113
 BYTE   W16
 BYTE   N03
 BYTE   W20
 BYTE   N08  As4
 BYTE   W12
 BYTE   N68  An4
 BYTE   W32
 BYTE   W02
 BYTE   N03
 BYTE   W36
// 018   ----------------------------------------
 BYTE   W02
 BYTE   N23  Gn4
 BYTE   W24
 BYTE   Fn4
 BYTE   W24
 BYTE   Ds4
 BYTE   W24
 BYTE   N15  Dn4
 BYTE   W16
 BYTE   Ds4
 BYTE   W16
// 019   ----------------------------------------
 BYTE   Dn4
 BYTE   W16
 BYTE   N44  Cn4
 BYTE   W22
 BYTE   N03
 BYTE   W48
 BYTE   W02
 BYTE   N23  Fn4
 BYTE   W24
// 020   ----------------------------------------
 BYTE   Dn4
 BYTE   W24
 BYTE   As3
 BYTE   W24
 BYTE   N96  Cn4
 BYTE   W48
// 021   ----------------------------------------
 BYTE   N92
 BYTE   W44
 BYTE   W02
 BYTE   N03
 BYTE   W96
// 022   ----------------------------------------
 BYTE   W96
// 023   ----------------------------------------
 BYTE   W96
// 024   ----------------------------------------
 BYTE   W24
 BYTE   W02
 BYTE   N23
 BYTE   W24
 BYTE   Dn4
 BYTE   W24
 BYTE   Ds4
 BYTE   W24
// 025   ----------------------------------------
 BYTE   N11  Fn4
 BYTE   W12
 BYTE   Ds4
 BYTE   W12
 BYTE   Dn4
 BYTE   W12
 BYTE   N23  Ds4
 BYTE   W24
 BYTE   N11  Cn4
 BYTE   W12
 BYTE   Dn4
 BYTE   W12
 BYTE   Ds4
 BYTE   W36
// 026   ----------------------------------------
 BYTE   N23  Cn4
 BYTE   W24
 BYTE   Dn4
 BYTE   W24
 BYTE   Ds4
 BYTE   W24
 BYTE   N11  Fn4
 BYTE   W12
 BYTE   Ds4
 BYTE   W12
// 027   ----------------------------------------
 BYTE   Dn4
 BYTE   W12
 BYTE   N23  Ds4
 BYTE   W24
 BYTE   N11
 BYTE   W12
 BYTE   Fn4
 BYTE   W12
 BYTE   Gn4
 BYTE   W12
 BYTE   N56  Fn4
 BYTE   W28
// 028   ----------------------------------------
 BYTE   N03
 BYTE   W32
 BYTE   N11  Ds4
 BYTE   W12
 BYTE   Dn4
 BYTE   W12
 BYTE   Ds4
 BYTE   W12
 BYTE   N23  Dn4
 BYTE   W24
 BYTE   Ds4
 BYTE   W24
// 029   ----------------------------------------
 BYTE   Fn4
 BYTE   W24
 BYTE   Gs4
 BYTE   W24
 BYTE   N92  Gn4
 BYTE   W44
 BYTE   W02
 BYTE   N03
 BYTE   W96
// 030   ----------------------------------------
 BYTE   W72
 BYTE   W02
 BYTE   N23  Cn4
 BYTE   W24
// 031   ----------------------------------------
 BYTE   Dn4
 BYTE   W24
 BYTE   Ds4
 BYTE   W24
 BYTE   N11  Fn4
 BYTE   W12
 BYTE   Ds4
 BYTE   W12
 BYTE   Dn4
 BYTE   W12
 BYTE   N23  Ds4
 BYTE   W24
// 032   ----------------------------------------
 BYTE   N11  Cn4
 BYTE   W12
 BYTE   Dn4
 BYTE   W12
 BYTE   Ds4
 BYTE   W36
 BYTE   N23  Cn4
 BYTE   W24
 BYTE   Dn4
 BYTE   W24
// 033   ----------------------------------------
 BYTE   Ds4
 BYTE   W24
 BYTE   N11  Fn4
 BYTE   W12
 BYTE   Ds4
 BYTE   W12
 BYTE   Dn4
 BYTE   W12
 BYTE   N23  Ds4
 BYTE   W24
 BYTE   N11
 BYTE   W12
// 034   ----------------------------------------
 BYTE   Fn4
 BYTE   W12
 BYTE   Gn4
 BYTE   W12
 BYTE   N32  Fs4
 BYTE   W16
 BYTE   N03
 BYTE   W20
 BYTE   N08  Dn4
 BYTE   W12
 BYTE   N23  Gn4
 BYTE   W24
// 035   ----------------------------------------
 BYTE   Fn4
 BYTE   W24
 BYTE   N32  En4
 BYTE   W16
 BYTE   N03
 BYTE   W20
 BYTE   N08  Cn4
 BYTE   W12
 BYTE   N23  Fn4
 BYTE   W24
// 036   ----------------------------------------
 BYTE   Ds4
 BYTE   W24
 BYTE   N32  Dn4
 BYTE   W16
 BYTE   N03
 BYTE   W20
 BYTE   N08  As3
 BYTE   W12
 BYTE   N23  Ds4
 BYTE   W24
// 037   ----------------------------------------
 BYTE   Dn4
 BYTE   W24
 BYTE   Cn4
 BYTE   W24
 BYTE   N11  Dn4
 BYTE   W12
 BYTE   Ds4
 BYTE   W12
 BYTE   Fn4
 BYTE   W12
 BYTE   Ds4
 BYTE   W12
// 038   ----------------------------------------
 BYTE   Dn4
 BYTE   W12
 BYTE   Cn4
 BYTE   W12
 BYTE   VOL   54*RomancingSagaCoupdeGraceRSflame_mvl/mxv
 BYTE   N44  Bn3  v113
 BYTE   W22
 BYTE   N03
 BYTE   W36
 BYTE   W02
 BYTE   N11  Cn4
 BYTE   W12
// 039   ----------------------------------------
 BYTE   N08  Dn4
 BYTE   W12
 BYTE   Bn3
 BYTE   W12
 BYTE   N44  Cn4
 BYTE   W22
 BYTE   N03
 BYTE   W36
 BYTE   W02
 BYTE   N11  Dn4
 BYTE   W12
// 040   ----------------------------------------
 BYTE   N08  Ds4
 BYTE   W12
 BYTE   Cn4
 BYTE   W12
 BYTE   N44  Bn3
 BYTE   W22
 BYTE   N03
 BYTE   W36
 BYTE   W02
 BYTE   N11  Cn4
 BYTE   W12
// 041   ----------------------------------------
 BYTE   N08  Dn4
 BYTE   W12
 BYTE   Bn3
 BYTE   W12
 BYTE   N44  Cn4
 BYTE   W22
 BYTE   N03
 BYTE   W36
 BYTE   W02
 BYTE   N11  Ds4
 BYTE   W12
// 042   ----------------------------------------
 BYTE   N08  Dn4
 BYTE   W12
 BYTE   Cn4
 BYTE   W12
 BYTE   N32  Dn4
 BYTE   W16
 BYTE   N03
 BYTE   W20
 BYTE   N08  Ds4
 BYTE   W12
 BYTE   N32  Fn4
 BYTE   W16
 BYTE   N03
 BYTE   W20
// 043   ----------------------------------------
 BYTE   N08  Ds4
 BYTE   W12
 BYTE   N11  Dn4
 BYTE   W24
 BYTE   N56  Gn4
 BYTE   W28
 BYTE   N03
 BYTE   W30
 BYTE   W01
 BYTE   W07
// 044   ----------------------------------------
 BYTE   GoTo
  POIN2 Label_0_01E56518
 BYTE   FINE

//**************** Track 2 (Midi-Chn.1) ****************//

RomancingSagaCoupdeGraceRSflame_002:
// 000   ----------------------------------------
Label_1_01E56ED8:
 BYTE   KEYSH   RomancingSagaCoupdeGraceRSflame_key+0
 BYTE   VOICE   45
 BYTE   VOL   44*RomancingSagaCoupdeGraceRSflame_mvl/mxv
 BYTE   PAN   c_v-29
 BYTE   TEMPO   160*RomancingSagaCoupdeGraceRSflame_tbs/2
 BYTE   W24
 BYTE   N23  Ds3  v113
 BYTE   W24
 BYTE   Fn3
 BYTE   W24
 BYTE   Gn3
 BYTE   W24
// 001   ----------------------------------------
 BYTE   Gs3
 BYTE   W24
 BYTE   Fn3
 BYTE   W24
 BYTE   Gn3
 BYTE   W24
 BYTE   Gs3
 BYTE   W24
// 002   ----------------------------------------
 BYTE   As3
 BYTE   W24
 BYTE   Gn3
 BYTE   W24
 BYTE   Gs3
 BYTE   W24
 BYTE   As3
 BYTE   W24
// 003   ----------------------------------------
 BYTE   Cn4
 BYTE   W24
 BYTE   Gs3
 BYTE   W24
 BYTE   Bn3
 BYTE   W24
 BYTE   Dn4
 BYTE   W24
// 004   ----------------------------------------
 BYTE   N96  Cn2
 BYTE   W48
 BYTE   Cn2
 BYTE   W48
// 005   ----------------------------------------
 BYTE   N92
 BYTE   W44
 BYTE   W02
 BYTE   N03
 BYTE   W96
// 006   ----------------------------------------
 BYTE   W48
 BYTE   W02
 BYTE   N92  Dn2
 BYTE   W44
 BYTE   W02
// 007   ----------------------------------------
 BYTE   N03
 BYTE   W48
 BYTE   W02
 BYTE   N44  Gn2
 BYTE   W22
 BYTE   N03
 BYTE   W24
// 008   ----------------------------------------
 BYTE   W02
 BYTE   N44  Fn2
 BYTE   W22
 BYTE   N03
 BYTE   W24
 BYTE   W02
 BYTE   N44  Ds2
 BYTE   W22
 BYTE   N03
 BYTE   W24
// 009   ----------------------------------------
 BYTE   W02
 BYTE   N44  Dn2
 BYTE   W22
 BYTE   N03
 BYTE   W24
 BYTE   W02
 BYTE   VOL   29*RomancingSagaCoupdeGraceRSflame_mvl/mxv
 BYTE   N44  Ds3  v113
 BYTE   W22
 BYTE   N03
 BYTE   W24
// 010   ----------------------------------------
 BYTE   W02
 BYTE   N68  Fn3
 BYTE   W32
 BYTE   W02
 BYTE   N03
 BYTE   W36
 BYTE   W02
 BYTE   N23  Ds3
 BYTE   W24
// 011   ----------------------------------------
 BYTE   Dn3
 BYTE   W24
 BYTE   Cn3
 BYTE   W24
 BYTE   N15  Fn3
 BYTE   W16
 BYTE   Gn3
 BYTE   W16
 BYTE   Fn3
 BYTE   W16
// 012   ----------------------------------------
 BYTE   N68  Ds3
 BYTE   W32
 BYTE   W02
 BYTE   N03
 BYTE   W36
 BYTE   W02
 BYTE   N23  Fn3
 BYTE   W24
// 013   ----------------------------------------
 BYTE   Gn3
 BYTE   W24
 BYTE   Ds3
 BYTE   W24
 BYTE   N92  Dn3
 BYTE   W44
 BYTE   W02
 BYTE   N03
 BYTE   W48
// 014   ----------------------------------------
 BYTE   W02
 BYTE   N44  Gn3
 BYTE   W22
 BYTE   N03
 BYTE   W24
 BYTE   W02
 BYTE   N23  Fn3
 BYTE   W24
 BYTE   Dn3
 BYTE   W24
// 015   ----------------------------------------
 BYTE   N92  Ds3
 BYTE   W44
 BYTE   W02
 BYTE   N03
 BYTE   W72
// 016   ----------------------------------------
 BYTE   W02
 BYTE   N23  Gn3
 BYTE   W24
 BYTE   An3
 BYTE   W24
 BYTE   Bn3
 BYTE   W24
 BYTE   N44  Ds3
 BYTE   W22
// 017   ----------------------------------------
 BYTE   N03
 BYTE   W24
 BYTE   W02
 BYTE   N68  Fn3
 BYTE   W32
 BYTE   W02
 BYTE   N03
 BYTE   W36
// 018   ----------------------------------------
 BYTE   W02
 BYTE   N23  Ds3
 BYTE   W24
 BYTE   Dn3
 BYTE   W24
 BYTE   Cn3
 BYTE   W24
 BYTE   N15  Fn3
 BYTE   W16
 BYTE   Gn3
 BYTE   W16
// 019   ----------------------------------------
 BYTE   Fn3
 BYTE   W16
 BYTE   N44  Ds3
 BYTE   W22
 BYTE   N03
 BYTE   W24
 BYTE   W02
 BYTE   N44  Dn3
 BYTE   W22
 BYTE   N03
 BYTE   W24
// 020   ----------------------------------------
 BYTE   W02
 BYTE   N23  As2
 BYTE   W24
 BYTE   Dn3
 BYTE   W24
 BYTE   N92  Ds3
 BYTE   W44
 BYTE   W02
// 021   ----------------------------------------
 BYTE   N03
 BYTE   W48
 BYTE   W02
 BYTE   N44  En3
 BYTE   W22
 BYTE   N03
 BYTE   W24
// 022   ----------------------------------------
 BYTE   W02
 BYTE   N44  Dn3
 BYTE   W22
 BYTE   N03
 BYTE   W24
 BYTE   W02
 BYTE   N52  Ds3
 BYTE   W24
 BYTE   W02
 BYTE   N01
 BYTE   W28
// 023   ----------------------------------------
 BYTE   N05  Cn4
 BYTE   W06
 BYTE   Gn3
 BYTE   W06
 BYTE   Cn4
 BYTE   W06
 BYTE   Ds4
 BYTE   W06
 BYTE   Cn4
 BYTE   W06
 BYTE   Ds4
 BYTE   W06
 BYTE   Gn4
 BYTE   W06
 BYTE   Cn5
 BYTE   W06
 BYTE   Gn4
 BYTE   W06
 BYTE   Ds4
 BYTE   W06
 BYTE   Cn4
 BYTE   W06
 BYTE   Gn4
 BYTE   W06
 BYTE   Ds4
 BYTE   W06
 BYTE   Cn4
 BYTE   W06
 BYTE   Gn3
 BYTE   W06
 BYTE   Ds4
 BYTE   W06
// 024   ----------------------------------------
 BYTE   Cn4
 BYTE   W06
 BYTE   Gn3
 BYTE   W06
 BYTE   Ds3
 BYTE   W06
 BYTE   Cn4
 BYTE   W06
 BYTE   Gn3
 BYTE   W06
 BYTE   Ds3
 BYTE   W06
 BYTE   Cn3
 BYTE   W06
Label_1_01E56FEE:
 BYTE   N44  Ds3  v113
 BYTE   W22
 BYTE   N03
 BYTE   W24
 BYTE   W02
 BYTE   N23  Fn3
 BYTE   W24
// 025   ----------------------------------------
 BYTE   Gn3
 BYTE   W24
 BYTE   PEND 
 BYTE   N92  Gs3  v113
 BYTE   W44
 BYTE   W02
 BYTE   N03
 BYTE   W48
// 026   ----------------------------------------
 BYTE   W02
// 027   ----------------------------------------
 BYTE   PATT
  POIN2 Label_1_01E56FEE
// 028   ----------------------------------------
Label_1_01E57008:
 BYTE   N23  Cn4  v113
 BYTE   W24
 BYTE   N68  Gn3
 BYTE   W32
 BYTE   W02
 BYTE   N03
 BYTE   W36
 BYTE   W02
 BYTE   PEND 
// 029   ----------------------------------------
 BYTE   N96  Fn3  v113
 BYTE   W48
 BYTE   N23
 BYTE   W72
// 030   ----------------------------------------
 BYTE   N44  Gn3
 BYTE   W22
 BYTE   N03
 BYTE   W24
 BYTE   W02
 BYTE   N23  Fn3
 BYTE   W24
 BYTE   N32  Ds3
 BYTE   W16
 BYTE   N03
 BYTE   W20
// 031   ----------------------------------------
 BYTE   N05  Dn3
 BYTE   W06
 BYTE   Ds3
 BYTE   W06
 BYTE   N32  Fn3
 BYTE   W16
 BYTE   N03
 BYTE   W20
 BYTE   N05  Ds3
 BYTE   W06
 BYTE   Fn3
 BYTE   W06
 BYTE   N32  Gn3
 BYTE   W16
 BYTE   N03
 BYTE   W20
// 032   ----------------------------------------
 BYTE   N05  Fn3
 BYTE   W06
 BYTE   Gn3
 BYTE   W06
 BYTE   N15  As3
 BYTE   W16
 BYTE   N03  An3
 BYTE   W04
 BYTE   Gs3
 BYTE   W04
 BYTE   N23  Gn3
 BYTE   W24
 BYTE   N44  Ds3
 BYTE   W22
 BYTE   N03
 BYTE   W24
// 033   ----------------------------------------
 BYTE   W02
 BYTE   N23  Fn3
 BYTE   W24
 BYTE   Gn3
 BYTE   W24
 BYTE   N92  Gs3
 BYTE   W44
 BYTE   W02
// 034   ----------------------------------------
 BYTE   N03
 BYTE   W48
 BYTE   W02
// 035   ----------------------------------------
 BYTE   PATT
  POIN2 Label_1_01E56FEE
// 036   ----------------------------------------
 BYTE   PATT
  POIN2 Label_1_01E57008
// 037   ----------------------------------------
 BYTE   N44  An3  v113
 BYTE   W22
 BYTE   N03
 BYTE   W24
 BYTE   W02
 BYTE   N44  Bn3
 BYTE   W22
 BYTE   N03
 BYTE   W24
 BYTE   W02
// 038   ----------------------------------------
 BYTE   N44  Gn3
 BYTE   W22
 BYTE   N03
 BYTE   W24
 BYTE   W02
 BYTE   N44  Gs3
 BYTE   W22
 BYTE   N03
 BYTE   W24
 BYTE   W02
// 039   ----------------------------------------
 BYTE   N44  Fn3
 BYTE   W22
 BYTE   N03
 BYTE   W24
 BYTE   W02
 BYTE   N44  Gn3
 BYTE   W22
 BYTE   N03
 BYTE   W24
 BYTE   W02
// 040   ----------------------------------------
 BYTE   N44  Cn4
 BYTE   W22
 BYTE   N03
 BYTE   W24
 BYTE   W02
 BYTE   N23  Gs3
 BYTE   W24
 BYTE   Fn3
 BYTE   W24
// 041   ----------------------------------------
 BYTE   VOL   53*RomancingSagaCoupdeGraceRSflame_mvl/mxv
 BYTE   PAN   c_v-64
 BYTE   N05  Gn3  v113
 BYTE   W06
 BYTE   Dn3
 BYTE   W06
 BYTE   Gn3
 BYTE   W06
 BYTE   Bn3
 BYTE   W06
 BYTE   Dn4
 BYTE   W06
 BYTE   Bn3
 BYTE   W06
 BYTE   Dn4
 BYTE   W06
 BYTE   Gn4
 BYTE   W06
 BYTE   Bn4
 BYTE   W06
 BYTE   Gn4
 BYTE   W06
 BYTE   Dn4
 BYTE   W06
 BYTE   Bn3
 BYTE   W06
 BYTE   Dn4
 BYTE   W06
 BYTE   Bn3
 BYTE   W06
 BYTE   Gn3
 BYTE   W06
 BYTE   Dn3
 BYTE   W06
// 042   ----------------------------------------
 BYTE   Gs3
 BYTE   W06
 BYTE   Ds3
 BYTE   W06
 BYTE   Gs3
 BYTE   W06
 BYTE   Cn4
 BYTE   W06
 BYTE   Ds4
 BYTE   W06
 BYTE   Cn4
 BYTE   W06
 BYTE   Ds4
 BYTE   W06
 BYTE   Gs4
 BYTE   W06
 BYTE   Cn5
 BYTE   W06
 BYTE   Gs4
 BYTE   W06
 BYTE   Ds4
 BYTE   W06
 BYTE   Cn4
 BYTE   W06
 BYTE   Ds4
 BYTE   W06
 BYTE   Cn4
 BYTE   W06
 BYTE   Gs3
 BYTE   W06
 BYTE   Ds3
 BYTE   W06
// 043   ----------------------------------------
 BYTE   Gn3
 BYTE   W06
 BYTE   Dn3
 BYTE   W06
 BYTE   Gn3
 BYTE   W06
 BYTE   Bn3
 BYTE   W06
 BYTE   Dn4
 BYTE   W06
 BYTE   Bn3
 BYTE   W06
 BYTE   Dn4
 BYTE   W06
 BYTE   Gn4
 BYTE   W06
 BYTE   Bn4
 BYTE   W06
 BYTE   Gn4
 BYTE   W06
 BYTE   Dn4
 BYTE   W06
 BYTE   Bn3
 BYTE   W06
 BYTE   Dn4
 BYTE   W06
 BYTE   Bn3
 BYTE   W06
 BYTE   Gn3
 BYTE   W06
 BYTE   Dn3
 BYTE   W06
// 044   ----------------------------------------
 BYTE   Gs3
 BYTE   W06
 BYTE   Ds3
 BYTE   W06
 BYTE   Gs3
 BYTE   W06
 BYTE   Cn4
 BYTE   W06
 BYTE   Ds4
 BYTE   W06
 BYTE   Cn4
 BYTE   W06
 BYTE   Ds4
 BYTE   W06
 BYTE   Gs4
 BYTE   W06
 BYTE   Cn5
 BYTE   W06
 BYTE   Gs4
 BYTE   W06
 BYTE   Ds4
 BYTE   W06
 BYTE   Cn4
 BYTE   W06
 BYTE   Ds4
 BYTE   W06
 BYTE   Cn4
 BYTE   W06
 BYTE   Gs3
 BYTE   W06
 BYTE   Ds3
 BYTE   W06
// 045   ----------------------------------------
 BYTE   VOL   44*RomancingSagaCoupdeGraceRSflame_mvl/mxv
 BYTE   PAN   c_v-29
 BYTE   N17  Gn3  v113
 BYTE   W18
 BYTE   Dn3
 BYTE   W18
 BYTE   N11  Gn3
 BYTE   W12
 BYTE   N17  Gs3
 BYTE   W18
 BYTE   Ds3
 BYTE   W18
 BYTE   N11  Gs3
 BYTE   W12
// 046   ----------------------------------------
 BYTE   N07  Gn3
 BYTE   W08
 BYTE   Dn3
 BYTE   W08
 BYTE   Gn3
 BYTE   W08
 BYTE   Bn3
 BYTE   W08
 BYTE   Gn3
 BYTE   W08
 BYTE   Bn3
 BYTE   W08
 BYTE   Dn4
 BYTE   W08
 BYTE   Bn3
 BYTE   W08
 BYTE   Dn4
 BYTE   W08
 BYTE   Gn4
 BYTE   W08
 BYTE   Dn4
 BYTE   W03
 BYTE   W05
 BYTE   N07  Gn4  v113
 BYTE   W02
 BYTE   GoTo
  POIN2 Label_1_01E56ED8
 BYTE   FINE

//**************** Track 3 (Midi-Chn.2) ****************//

RomancingSagaCoupdeGraceRSflame_003:
// 000   ----------------------------------------
Label_2_01E572DC:
 BYTE   KEYSH   RomancingSagaCoupdeGraceRSflame_key+0
 BYTE   VOICE   40
 BYTE   VOL   31*RomancingSagaCoupdeGraceRSflame_mvl/mxv
 BYTE   PAN   c_v+20
 BYTE   TEMPO   160*RomancingSagaCoupdeGraceRSflame_tbs/2
 BYTE   W96
// 001   ----------------------------------------
 BYTE   W96
// 002   ----------------------------------------
 BYTE   W96
// 003   ----------------------------------------
 BYTE   W96
// 004   ----------------------------------------
 BYTE   N05  En4  v113
 BYTE   W06
 BYTE   Cn4
 BYTE   W06
 BYTE   Gn3
 BYTE   W06
 BYTE   En3
 BYTE   W06
 BYTE   En4
 BYTE   W06
 BYTE   Cn4
 BYTE   W06
 BYTE   Gn3
 BYTE   W06
 BYTE   En3
 BYTE   W06
 BYTE   En4
 BYTE   W06
 BYTE   Cn4
 BYTE   W06
 BYTE   Gn3
 BYTE   W06
 BYTE   En3
 BYTE   W06
 BYTE   En4
 BYTE   W06
 BYTE   Cn4
 BYTE   W06
 BYTE   Gn3
 BYTE   W06
 BYTE   En3
 BYTE   W06
// 005   ----------------------------------------
 BYTE   En4
 BYTE   W06
 BYTE   As3
 BYTE   W06
 BYTE   Gn3
 BYTE   W06
 BYTE   En3
 BYTE   W06
 BYTE   En4
 BYTE   W06
 BYTE   As3
 BYTE   W06
 BYTE   Gn3
 BYTE   W06
 BYTE   En3
 BYTE   W06
 BYTE   En4
 BYTE   W06
 BYTE   As3
 BYTE   W06
 BYTE   Gn3
 BYTE   W06
 BYTE   En3
 BYTE   W06
 BYTE   En4
 BYTE   W06
 BYTE   As3
 BYTE   W06
 BYTE   Gn3
 BYTE   W06
 BYTE   En3
 BYTE   W06
// 006   ----------------------------------------
 BYTE   Cn4
 BYTE   W06
 BYTE   Gs3
 BYTE   W06
 BYTE   Fn3
 BYTE   W06
 BYTE   Cn3
 BYTE   W06
 BYTE   Cn4
 BYTE   W06
 BYTE   Gs3
 BYTE   W06
 BYTE   Fn3
 BYTE   W06
 BYTE   Cn3
 BYTE   W06
 BYTE   Cn4
 BYTE   W06
 BYTE   Gs3
 BYTE   W06
 BYTE   Fn3
 BYTE   W06
 BYTE   Cn3
 BYTE   W06
 BYTE   Cn4
 BYTE   W06
 BYTE   Gs3
 BYTE   W06
 BYTE   Fn3
 BYTE   W06
 BYTE   Cn3
 BYTE   W06
// 007   ----------------------------------------
 BYTE   An3
 BYTE   W06
 BYTE   Fs3
 BYTE   W06
 BYTE   Dn3
 BYTE   W06
 BYTE   An2
 BYTE   W06
 BYTE   An3
 BYTE   W06
 BYTE   Fs3
 BYTE   W06
 BYTE   Dn3
 BYTE   W06
 BYTE   An2
 BYTE   W06
 BYTE   An3
 BYTE   W06
 BYTE   Fs3
 BYTE   W06
 BYTE   Dn3
 BYTE   W06
 BYTE   An2
 BYTE   W06
 BYTE   An3
 BYTE   W06
 BYTE   Fs3
 BYTE   W06
 BYTE   Dn3
 BYTE   W06
 BYTE   An2
 BYTE   W06
// 008   ----------------------------------------
 BYTE   N44  Bn3
 BYTE   W22
 BYTE   N03
 BYTE   W24
 BYTE   W02
 BYTE   N44  Gs3
 BYTE   W22
 BYTE   N03
 BYTE   W24
 BYTE   W02
// 009   ----------------------------------------
 BYTE   N44  Gn3
 BYTE   W22
 BYTE   N03
 BYTE   W24
 BYTE   W02
 BYTE   N44  Fn3
 BYTE   W22
 BYTE   N03
 BYTE   W24
 BYTE   W02
// 010   ----------------------------------------
 BYTE   N44  Gn2
 BYTE   W22
 BYTE   N03
 BYTE   W24
 BYTE   W02
 BYTE   N68  An2
 BYTE   W32
 BYTE   W02
 BYTE   N03
 BYTE   W36
// 011   ----------------------------------------
 BYTE   W02
 BYTE   N68  Gn2
 BYTE   W32
 BYTE   W02
 BYTE   N03
 BYTE   W36
 BYTE   W02
 BYTE   N96  Gs2
 BYTE   W48
// 012   ----------------------------------------
 BYTE   N44
 BYTE   W22
 BYTE   N03
 BYTE   W72
 BYTE   W02
// 013   ----------------------------------------
 BYTE   N23  Cn3
 BYTE   W24
 BYTE   Gs2
 BYTE   W24
 BYTE   N92  Fn2
 BYTE   W44
 BYTE   W02
 BYTE   N03
 BYTE   W48
// 014   ----------------------------------------
 BYTE   W02
 BYTE   N68  As2
 BYTE   W32
 BYTE   W02
 BYTE   N03
 BYTE   W36
 BYTE   W02
 BYTE   N23  Gn2
 BYTE   W24
// 015   ----------------------------------------
 BYTE   N92  Gs2
 BYTE   W44
 BYTE   W02
 BYTE   N03
 BYTE   W72
// 016   ----------------------------------------
 BYTE   W02
 BYTE   N23  Bn2
 BYTE   W24
 BYTE   Cn3
 BYTE   W24
 BYTE   Dn3
 BYTE   W24
 BYTE   N44  Gn2
 BYTE   W22
// 017   ----------------------------------------
 BYTE   N03
 BYTE   W24
 BYTE   W02
 BYTE   N68  An2
 BYTE   W32
 BYTE   W02
 BYTE   N03
 BYTE   W36
// 018   ----------------------------------------
 BYTE   W02
 BYTE   N68  Gn2
 BYTE   W32
 BYTE   W02
 BYTE   N03
 BYTE   W36
 BYTE   W02
 BYTE   N92  Gs2
 BYTE   W44
// 019   ----------------------------------------
 BYTE   W02
 BYTE   N03
 BYTE   W48
 BYTE   W02
 BYTE   N44  Fn2
 BYTE   W22
 BYTE   N03
 BYTE   W24
// 020   ----------------------------------------
 BYTE   W02
 BYTE   N23  Dn2
 BYTE   W24
 BYTE   Fn2
 BYTE   W24
 BYTE   N92  Gn2
 BYTE   W44
 BYTE   W02
// 021   ----------------------------------------
 BYTE   N03
 BYTE   W48
 BYTE   W02
 BYTE   N44  Gs2
 BYTE   W22
 BYTE   N03
 BYTE   W24
// 022   ----------------------------------------
 BYTE   W02
 BYTE   N44  Fn2
 BYTE   W22
 BYTE   N03
 BYTE   W24
 BYTE   W02
 BYTE   N52  Gn2
 BYTE   W24
 BYTE   W02
 BYTE   N01
 BYTE   W28
// 023   ----------------------------------------
 BYTE   N05  Ds3
 BYTE   W06
 BYTE   Cn3
 BYTE   W06
 BYTE   Ds3
 BYTE   W06
 BYTE   Gn3
 BYTE   W06
 BYTE   Ds3
 BYTE   W06
 BYTE   Gn3
 BYTE   W06
 BYTE   Cn4
 BYTE   W06
 BYTE   Ds4
 BYTE   W06
 BYTE   Cn4
 BYTE   W06
 BYTE   Gn3
 BYTE   W06
 BYTE   Ds3
 BYTE   W06
 BYTE   Cn4
 BYTE   W06
 BYTE   Gn3
 BYTE   W06
 BYTE   Ds3
 BYTE   W06
 BYTE   Cn3
 BYTE   W06
 BYTE   Gn3
 BYTE   W06
// 024   ----------------------------------------
 BYTE   Ds3
 BYTE   W06
 BYTE   Cn3
 BYTE   W06
 BYTE   Gn2
 BYTE   W06
 BYTE   Ds3
 BYTE   W06
 BYTE   Cn3
 BYTE   W06
 BYTE   Gn2
 BYTE   W06
 BYTE   Ds2
 BYTE   W06
Label_2_01E57432:
 BYTE   N96  Cn3  v113
 BYTE   W48
 BYTE   Cn3
 BYTE   W48
 BYTE   PEND 
// 025   ----------------------------------------
 BYTE   N96  Cn3  v113
 BYTE   W48
 BYTE   N92
 BYTE   W44
 BYTE   W02
 BYTE   N03
 BYTE   W96
// 026   ----------------------------------------
 BYTE   W96
// 027   ----------------------------------------
 BYTE   W02
 BYTE   N44  Dn3
 BYTE   W22
 BYTE   N03
 BYTE   W24
 BYTE   W02
 BYTE   N44  Cn3
 BYTE   W22
 BYTE   N03
 BYTE   W24
// 028   ----------------------------------------
 BYTE   W02
 BYTE   N68  Dn3
 BYTE   W32
 BYTE   W02
 BYTE   N03
 BYTE   W36
 BYTE   W02
 BYTE   N23  Bn2
 BYTE   W24
// 029   ----------------------------------------
 BYTE   N44  Gn2
 BYTE   W22
 BYTE   N03
 BYTE   W24
 BYTE   W02
 BYTE   N92  As2
 BYTE   W44
 BYTE   W02
 BYTE   N03
 BYTE   W48
// 030   ----------------------------------------
 BYTE   W02
 BYTE   N23  Cn3
 BYTE   W24
 BYTE   As2
 BYTE   W24
 BYTE   N96  Cn3
 BYTE   W48
// 031   ----------------------------------------
 BYTE   PATT
  POIN2 Label_2_01E57432
// 032   ----------------------------------------
 BYTE   N92  Cn3  v113
 BYTE   W44
 BYTE   W02
 BYTE   N03
 BYTE   W96
// 033   ----------------------------------------
 BYTE   W96
// 034   ----------------------------------------
 BYTE   W02
 BYTE   N23  Dn3
 BYTE   W24
 BYTE   Cn3
 BYTE   W24
 BYTE   N44  Dn3
 BYTE   W22
 BYTE   N03
 BYTE   W24
// 035   ----------------------------------------
 BYTE   W02
 BYTE   N23  Cn3
 BYTE   W24
 BYTE   As2
 BYTE   W24
 BYTE   N44  Cn3
 BYTE   W22
 BYTE   N03
 BYTE   W24
// 036   ----------------------------------------
 BYTE   W02
 BYTE   N23  As2
 BYTE   W24
 BYTE   Gs2
 BYTE   W24
 BYTE   N44  As2
 BYTE   W22
 BYTE   N03
 BYTE   W24
// 037   ----------------------------------------
 BYTE   W02
 BYTE   N44  Ds3
 BYTE   W22
 BYTE   N03
 BYTE   W24
 BYTE   W02
 BYTE   N23  Cn3
 BYTE   W24
 BYTE   Gs2
 BYTE   W24
// 038   ----------------------------------------
Label_2_01E574A9:
 BYTE   N92  Bn2  v113
 BYTE   W44
 BYTE   W02
 BYTE   N03
 BYTE   W48
 BYTE   W02
 BYTE   PEND 
// 039   ----------------------------------------
Label_2_01E574B2:
 BYTE   N92  Cn3  v113
 BYTE   W44
 BYTE   W02
 BYTE   N03
 BYTE   W48
 BYTE   W02
 BYTE   PEND 
// 040   ----------------------------------------
 BYTE   PATT
  POIN2 Label_2_01E574A9
// 041   ----------------------------------------
 BYTE   PATT
  POIN2 Label_2_01E574B2
// 042   ----------------------------------------
 BYTE   N17  Bn2  v113
 BYTE   W18
 BYTE   Gn2
 BYTE   W18
 BYTE   N11  Bn2
 BYTE   W12
 BYTE   N17  Cn3
 BYTE   W18
 BYTE   Gs2
 BYTE   W18
 BYTE   N11  Cn3
 BYTE   W12
// 043   ----------------------------------------
 BYTE   N07  Bn2
 BYTE   W08
 BYTE   Gn2
 BYTE   W08
 BYTE   Bn2
 BYTE   W08
 BYTE   Dn3
 BYTE   W08
 BYTE   Bn2
 BYTE   W08
 BYTE   Dn3
 BYTE   W08
 BYTE   Gn3
 BYTE   W08
 BYTE   Dn3
 BYTE   W08
 BYTE   Gn3
 BYTE   W08
 BYTE   Bn3
 BYTE   W08
 BYTE   Gn3
 BYTE   W03
 BYTE   W05
 BYTE   N07  Bn3  v113
 BYTE   W02
 BYTE   GoTo
  POIN2 Label_2_01E572DC
 BYTE   FINE

//**************** Track 4 (Midi-Chn.3) ****************//

RomancingSagaCoupdeGraceRSflame_004:
// 000   ----------------------------------------
Label_3_01E5613C:
 BYTE   KEYSH   RomancingSagaCoupdeGraceRSflame_key+0
 BYTE   VOICE   36
 BYTE   VOL   35*RomancingSagaCoupdeGraceRSflame_mvl/mxv
 BYTE   PAN   c_v+41
 BYTE   TEMPO   160*RomancingSagaCoupdeGraceRSflame_tbs/2
 BYTE   W96
// 001   ----------------------------------------
 BYTE   W96
// 002   ----------------------------------------
 BYTE   W96
// 003   ----------------------------------------
 BYTE   W96
// 004   ----------------------------------------
Label_3_01E5614A:
 BYTE   N96  Gn2  v113
 BYTE   W48
 BYTE   N92
 BYTE   W44
 BYTE   W02
 BYTE   N03
 BYTE   W96
// 005   ----------------------------------------
 BYTE   W02
 BYTE   PEND 
 BYTE   N92  Fn2  v113
 BYTE   W44
 BYTE   W02
 BYTE   N03
 BYTE   W48
// 006   ----------------------------------------
 BYTE   W02
 BYTE   N92  Fs2
 BYTE   W44
 BYTE   W02
 BYTE   N03
 BYTE   W48
// 007   ----------------------------------------
 BYTE   W02
 BYTE   N44  Dn3
 BYTE   W22
 BYTE   N03
 BYTE   W24
 BYTE   W02
 BYTE   N44  Cn3
 BYTE   W22
 BYTE   N03
 BYTE   W24
// 008   ----------------------------------------
 BYTE   W02
 BYTE   N44  As2
 BYTE   W22
 BYTE   N03
 BYTE   W24
 BYTE   W02
 BYTE   N44  Gs2
 BYTE   W22
 BYTE   N03
 BYTE   W96
// 009   ----------------------------------------
 BYTE   W96
// 010   ----------------------------------------
 BYTE   W96
// 011   ----------------------------------------
 BYTE   W96
// 012   ----------------------------------------
 BYTE   W96
// 013   ----------------------------------------
 BYTE   W96
// 014   ----------------------------------------
 BYTE   W96
// 015   ----------------------------------------
 BYTE   W48
 BYTE   W02
 BYTE   N23  Dn2
 BYTE   W24
 BYTE   Ds2
 BYTE   W24
// 016   ----------------------------------------
 BYTE   Fn2
 BYTE   W24
 BYTE   N96  Cn2
 BYTE   W48
 BYTE   N92
 BYTE   W44
// 017   ----------------------------------------
 BYTE   W02
 BYTE   N03
 BYTE   W96
// 018   ----------------------------------------
 BYTE   W02
 BYTE   N92  Gs1
 BYTE   W44
 BYTE   W02
 BYTE   N03
 BYTE   W48
// 019   ----------------------------------------
 BYTE   W02
 BYTE   N92  As1
 BYTE   W44
 BYTE   W02
 BYTE   N03
 BYTE   W48
// 020   ----------------------------------------
 BYTE   W02
 BYTE   N92  Cn2
 BYTE   W44
 BYTE   W02
 BYTE   N03
 BYTE   W48
// 021   ----------------------------------------
 BYTE   W02
 BYTE   N44  Cs2
 BYTE   W22
 BYTE   N03
 BYTE   W24
 BYTE   W02
 BYTE   N44  Bn1
 BYTE   W22
 BYTE   N03
 BYTE   W24
// 022   ----------------------------------------
 BYTE   W02
 BYTE   N68  Cn2
 BYTE   W32
 BYTE   W02
 BYTE   N03
 BYTE   W36
 BYTE   W02
 BYTE   N23  Gn2
 BYTE   W24
// 023   ----------------------------------------
 BYTE   Cn3
 BYTE   W24
 BYTE   Gn2
 BYTE   W24
 BYTE   Ds2
 BYTE   W24
 BYTE   Cn2
 BYTE   W24
// 024   ----------------------------------------
Label_3_01E561C6:
 BYTE   N96  Gs2  v113
 BYTE   W48
 BYTE   N92
 BYTE   W44
 BYTE   W02
 BYTE   N03
 BYTE   W96
// 025   ----------------------------------------
 BYTE   W02
 BYTE   PEND 
// 026   ----------------------------------------
 BYTE   PATT
  POIN2 Label_3_01E5614A
// 027   ----------------------------------------
 BYTE   N92  Gs2  v113
 BYTE   W44
 BYTE   W02
 BYTE   N03
 BYTE   W48
 BYTE   W02
// 028   ----------------------------------------
 BYTE   N92  Gn2
 BYTE   W44
 BYTE   W02
 BYTE   N03
 BYTE   W48
 BYTE   W02
// 029   ----------------------------------------
 BYTE   N44  Cn2
 BYTE   W22
 BYTE   N03
 BYTE   W24
 BYTE   W02
 BYTE   N44  Dn2
 BYTE   W22
 BYTE   N03
 BYTE   W24
 BYTE   W02
// 030   ----------------------------------------
 BYTE   N44  Ds2
 BYTE   W22
 BYTE   N03
 BYTE   W24
 BYTE   W02
 BYTE   N23  En2
 BYTE   W24
 BYTE   Cn2
 BYTE   W24
// 031   ----------------------------------------
 BYTE   PATT
  POIN2 Label_3_01E561C6
// 032   ----------------------------------------
 BYTE   PATT
  POIN2 Label_3_01E5614A
// 033   ----------------------------------------
 BYTE   N11  Fs2  v113
 BYTE   W12
 BYTE   Gn2
 BYTE   W12
 BYTE   N23  An2
 BYTE   W24
 BYTE   N44  Gn2
 BYTE   W22
 BYTE   N03
 BYTE   W24
 BYTE   W02
// 034   ----------------------------------------
 BYTE   N11  En2
 BYTE   W12
 BYTE   Fn2
 BYTE   W12
 BYTE   N23  Gn2
 BYTE   W24
 BYTE   N44  Fn2
 BYTE   W22
 BYTE   N03
 BYTE   W24
 BYTE   W02
// 035   ----------------------------------------
 BYTE   N23  Dn2
 BYTE   W24
 BYTE   Fn2
 BYTE   W24
 BYTE   N44  Ds2
 BYTE   W22
 BYTE   N03
 BYTE   W24
 BYTE   W02
// 036   ----------------------------------------
 BYTE   N44  Gs2
 BYTE   W22
 BYTE   N03
 BYTE   W24
 BYTE   W02
 BYTE   N23  Fn2
 BYTE   W24
 BYTE   Dn2
 BYTE   W24
// 037   ----------------------------------------
Label_3_01E56239:
 BYTE   N92  Dn2  v113
 BYTE   W44
 BYTE   W02
 BYTE   N03
 BYTE   W48
 BYTE   W02
 BYTE   PEND 
// 038   ----------------------------------------
Label_3_01E56242:
 BYTE   N92  Ds2  v113
 BYTE   W44
 BYTE   W02
 BYTE   N03
 BYTE   W48
 BYTE   W02
 BYTE   PEND 
// 039   ----------------------------------------
 BYTE   PATT
  POIN2 Label_3_01E56239
// 040   ----------------------------------------
 BYTE   PATT
  POIN2 Label_3_01E56242
// 041   ----------------------------------------
 BYTE   N17  Dn2  v113
 BYTE   W18
 BYTE   Bn1
 BYTE   W18
 BYTE   N11  Dn2
 BYTE   W12
 BYTE   N17  Ds2
 BYTE   W18
 BYTE   Cn2
 BYTE   W18
 BYTE   N11  Ds2
 BYTE   W12
// 042   ----------------------------------------
 BYTE   N07  Dn2
 BYTE   W08
 BYTE   Bn1
 BYTE   W08
 BYTE   Dn2
 BYTE   W08
 BYTE   Gn2
 BYTE   W08
 BYTE   Dn2
 BYTE   W08
 BYTE   Gn2
 BYTE   W08
 BYTE   Bn2
 BYTE   W08
 BYTE   Gn2
 BYTE   W08
 BYTE   Bn2
 BYTE   W08
 BYTE   Dn3
 BYTE   W08
 BYTE   Bn2
 BYTE   W03
 BYTE   W05
 BYTE   N07  Dn3  v113
 BYTE   W02
 BYTE   GoTo
  POIN2 Label_3_01E5613C
 BYTE   FINE

//**************** Track 5 (Midi-Chn.4) ****************//

RomancingSagaCoupdeGraceRSflame_005:
// 000   ----------------------------------------
Label_4_01E56844:
 BYTE   KEYSH   RomancingSagaCoupdeGraceRSflame_key+0
 BYTE   VOICE   36
 BYTE   VOL   36*RomancingSagaCoupdeGraceRSflame_mvl/mxv
 BYTE   PAN   c_v-5
 BYTE   TEMPO   160*RomancingSagaCoupdeGraceRSflame_tbs/2
 BYTE   W96
// 001   ----------------------------------------
 BYTE   W96
// 002   ----------------------------------------
 BYTE   W96
// 003   ----------------------------------------
 BYTE   W96
// 004   ----------------------------------------
Label_4_01E56852:
 BYTE   N07  En2  v113
 BYTE   W12
 BYTE   En2
 BYTE   W12
 BYTE   En2
 BYTE   W12
 BYTE   En2
 BYTE   W12
 BYTE   En2
 BYTE   W12
 BYTE   En2
 BYTE   W12
 BYTE   En2
 BYTE   W12
 BYTE   En2
 BYTE   W12
 BYTE   PEND 
// 005   ----------------------------------------
 BYTE   PATT
  POIN2 Label_4_01E56852
// 006   ----------------------------------------
 BYTE   N07  An1  v113
 BYTE   W12
 BYTE   An1
 BYTE   W12
 BYTE   An1
 BYTE   W12
 BYTE   An1
 BYTE   W12
 BYTE   An1
 BYTE   W12
 BYTE   An1
 BYTE   W12
 BYTE   An1
 BYTE   W12
 BYTE   An1
 BYTE   W12
// 007   ----------------------------------------
 BYTE   Fn2
 BYTE   W12
 BYTE   Fn2
 BYTE   W12
 BYTE   Fn2
 BYTE   W12
 BYTE   Fn2
 BYTE   W12
 BYTE   Fn2
 BYTE   W12
 BYTE   Fn2
 BYTE   W12
 BYTE   Fn2
 BYTE   W12
 BYTE   Fn2
 BYTE   W12
// 008   ----------------------------------------
 BYTE   N17  Bn1
 BYTE   W18
 BYTE   Fn2
 BYTE   W18
 BYTE   N11  Bn1
 BYTE   W12
 BYTE   N17  An1
 BYTE   W18
 BYTE   En2
 BYTE   W18
 BYTE   N11  An1
 BYTE   W12
// 009   ----------------------------------------
 BYTE   N17  Gn2
 BYTE   W18
 BYTE   Dn2
 BYTE   W18
 BYTE   N11  Gn2
 BYTE   W12
 BYTE   N23  Fn2
 BYTE   W24
 BYTE   N04  Bn2
 BYTE   W04
 BYTE   Bn2
 BYTE   W04
 BYTE   An2
 BYTE   W04
 BYTE   Gn2
 BYTE   W04
 BYTE   Gn2
 BYTE   W04
 BYTE   Fn2
 BYTE   W04
// 010   ----------------------------------------
 BYTE   N07  En2
 BYTE   W12
 BYTE   En2
 BYTE   W12
 BYTE   En2
 BYTE   W12
 BYTE   En2
 BYTE   W12
 BYTE   En2
 BYTE   W12
 BYTE   En2
 BYTE   W12
 BYTE   Dn2
 BYTE   W12
 BYTE   Dn2
 BYTE   W12
// 011   ----------------------------------------
 BYTE   En2
 BYTE   W12
 BYTE   En2
 BYTE   W12
 BYTE   En2
 BYTE   W12
 BYTE   En2
 BYTE   W12
 BYTE   En2
 BYTE   W12
 BYTE   Fn2
 BYTE   W12
 BYTE   Gn2
 BYTE   W12
 BYTE   En2
 BYTE   W12
// 012   ----------------------------------------
 BYTE   Cn2
 BYTE   W12
 BYTE   Cn2
 BYTE   W12
 BYTE   Cn2
 BYTE   W12
 BYTE   Cn2
 BYTE   W12
 BYTE   Cn2
 BYTE   W12
 BYTE   Cn2
 BYTE   W12
 BYTE   Bn1
 BYTE   W12
 BYTE   Bn1
 BYTE   W12
// 013   ----------------------------------------
 BYTE   Cn2
 BYTE   W12
 BYTE   Cn2
 BYTE   W12
 BYTE   Cn2
 BYTE   W12
 BYTE   Cn2
 BYTE   W12
 BYTE   Cn2
 BYTE   W12
 BYTE   Dn2
 BYTE   W12
 BYTE   En2
 BYTE   W12
 BYTE   Cn2
 BYTE   W12
// 014   ----------------------------------------
 BYTE   Dn2
 BYTE   W12
 BYTE   Dn2
 BYTE   W12
 BYTE   Dn2
 BYTE   W12
 BYTE   Dn2
 BYTE   W12
 BYTE   Dn2
 BYTE   W12
 BYTE   Dn2
 BYTE   W12
 BYTE   Dn2
 BYTE   W12
 BYTE   Dn2
 BYTE   W12
// 015   ----------------------------------------
Label_4_01E56905:
 BYTE   N07  Bn1  v113
 BYTE   W12
 BYTE   Bn1
 BYTE   W12
 BYTE   Bn1
 BYTE   W12
 BYTE   Bn1
 BYTE   W12
 BYTE   Bn1
 BYTE   W12
 BYTE   Bn1
 BYTE   W12
 BYTE   Bn1
 BYTE   W12
 BYTE   Bn1
 BYTE   W12
 BYTE   PEND 
// 016   ----------------------------------------
Label_4_01E56918:
 BYTE   N07  Cn2  v113
 BYTE   W12
 BYTE   Cn2
 BYTE   W12
 BYTE   Cn2
 BYTE   W12
 BYTE   Cn2
 BYTE   W12
 BYTE   Cn2
 BYTE   W12
 BYTE   Cn2
 BYTE   W12
 BYTE   Cn2
 BYTE   W12
 BYTE   Cn2
 BYTE   W12
 BYTE   PEND 
// 017   ----------------------------------------
 BYTE   N23  Bn1  v113
 BYTE   W24
 BYTE   Bn1
 BYTE   W24
 BYTE   Cn2
 BYTE   W24
 BYTE   Dn2
 BYTE   W24
// 018   ----------------------------------------
Label_4_01E56935:
 BYTE   N11  En2  v113
 BYTE   W12
 BYTE   N05  En3
 BYTE   W12
 BYTE   N11  En2
 BYTE   W12
 BYTE   N05  En3
 BYTE   W12
 BYTE   N11  En2
 BYTE   W12
 BYTE   N05  En3
 BYTE   W12
 BYTE   N11  En2
 BYTE   W12
 BYTE   N05  En3
 BYTE   W12
 BYTE   PEND 
// 019   ----------------------------------------
 BYTE   PATT
  POIN2 Label_4_01E56935
// 020   ----------------------------------------
Label_4_01E56954:
 BYTE   N11  Cn2  v113
 BYTE   W12
 BYTE   N05  Cn3
 BYTE   W12
 BYTE   N11  Cn2
 BYTE   W12
 BYTE   N05  Cn3
 BYTE   W12
 BYTE   N11  Cn2
 BYTE   W12
 BYTE   N05  Cn3
 BYTE   W12
 BYTE   N11  Cn2
 BYTE   W12
 BYTE   N05  Cn3
 BYTE   W12
 BYTE   PEND 
// 021   ----------------------------------------
 BYTE   N11  Dn2  v113
 BYTE   W12
 BYTE   N05  Dn3
 BYTE   W12
 BYTE   N11  Dn2
 BYTE   W12
 BYTE   N05  Dn3
 BYTE   W12
 BYTE   N11  Dn2
 BYTE   W12
 BYTE   N05  Dn3
 BYTE   W12
 BYTE   N11  Dn2
 BYTE   W12
 BYTE   N05  Dn3
 BYTE   W12
// 022   ----------------------------------------
 BYTE   PATT
  POIN2 Label_4_01E56852
// 023   ----------------------------------------
 BYTE   N07  Fn2  v113
 BYTE   W12
 BYTE   Fn2
 BYTE   W12
 BYTE   Fn2
 BYTE   W12
 BYTE   Fn2
 BYTE   W12
 BYTE   Dn2
 BYTE   W12
 BYTE   Dn2
 BYTE   W12
 BYTE   Dn2
 BYTE   W12
 BYTE   Dn2
 BYTE   W12
// 024   ----------------------------------------
 BYTE   En2
 BYTE   W12
 BYTE   En2
 BYTE   W12
 BYTE   En2
 BYTE   W12
 BYTE   En2
 BYTE   W12
 BYTE   En2
 BYTE   W12
 BYTE   En2
 BYTE   W12
 BYTE   En2
 BYTE   W12
 BYTE   En2
 BYTE   W84
// 025   ----------------------------------------
 BYTE   N04  Fn2
 BYTE   W04
 BYTE   Fn2
 BYTE   W04
 BYTE   En2
 BYTE   W04
 BYTE   Dn2
 BYTE   W04
 BYTE   Dn2
 BYTE   W04
 BYTE   Cn2
 BYTE   W04
 BYTE   N11
 BYTE   W12
 BYTE   N05  Cn3
 BYTE   W12
 BYTE   N11  Cn2
 BYTE   W12
 BYTE   N05  Cn3
 BYTE   W12
 BYTE   N11  Cn2
 BYTE   W12
 BYTE   N05  Cn3
 BYTE   W12
// 026   ----------------------------------------
 BYTE   PATT
  POIN2 Label_4_01E56954
// 027   ----------------------------------------
 BYTE   N11  Cn2  v113
 BYTE   W12
 BYTE   N05  Cn3
 BYTE   W12
 BYTE   N11  En2
 BYTE   W12
 BYTE   N05  En3
 BYTE   W12
 BYTE   N11  En2
 BYTE   W12
 BYTE   N05  En3
 BYTE   W12
 BYTE   N11  En2
 BYTE   W12
 BYTE   N05  En3
 BYTE   W12
// 028   ----------------------------------------
 BYTE   PATT
  POIN2 Label_4_01E56935
// 029   ----------------------------------------
 BYTE   N11  En2  v113
 BYTE   W12
 BYTE   N05  En3
 BYTE   W12
 BYTE   N11  Fn2
 BYTE   W12
 BYTE   N05  Fn3
 BYTE   W12
 BYTE   N11  Fn2
 BYTE   W12
 BYTE   N05  Fn3
 BYTE   W12
 BYTE   N11  Fn2
 BYTE   W12
 BYTE   N05  Fn3
 BYTE   W12
// 030   ----------------------------------------
 BYTE   N11  Fn2
 BYTE   W12
 BYTE   N05  Fn3
 BYTE   W12
 BYTE   N11  Bn1
 BYTE   W12
 BYTE   N05  Bn2
 BYTE   W12
 BYTE   N11  Bn1
 BYTE   W12
 BYTE   N05  Bn2
 BYTE   W12
 BYTE   N11  Bn1
 BYTE   W12
 BYTE   N05  Bn2
 BYTE   W12
// 031   ----------------------------------------
 BYTE   N11  Bn1
 BYTE   W12
 BYTE   N05  Bn2
 BYTE   W12
 BYTE   N44  En2
 BYTE   W22
 BYTE   N03
 BYTE   W24
 BYTE   W02
 BYTE   N44  Fn2
 BYTE   W22
 BYTE   N03
 BYTE   W24
// 032   ----------------------------------------
 BYTE   W02
 BYTE   N44  Gn2
 BYTE   W22
 BYTE   N03
 BYTE   W36
 BYTE   W02
 BYTE   N05  En2
 BYTE   W12
 BYTE   N04  Gn2
 BYTE   W04
 BYTE   Fn2
 BYTE   W04
 BYTE   Fn2
 BYTE   W04
 BYTE   En2
 BYTE   W04
 BYTE   Dn2
 BYTE   W04
 BYTE   Dn2
 BYTE   W04
// 033   ----------------------------------------
 BYTE   PATT
  POIN2 Label_4_01E56954
// 034   ----------------------------------------
 BYTE   PATT
  POIN2 Label_4_01E56954
// 035   ----------------------------------------
 BYTE   PATT
  POIN2 Label_4_01E56935
// 036   ----------------------------------------
 BYTE   PATT
  POIN2 Label_4_01E56935
// 037   ----------------------------------------
 BYTE   N11  Fn2  v113
 BYTE   W12
 BYTE   Gn2
 BYTE   W12
 BYTE   Bn2
 BYTE   W12
 BYTE   Fn2
 BYTE   W12
 BYTE   N23  Bn2
 BYTE   W24
 BYTE   Bn1
 BYTE   W24
// 038   ----------------------------------------
 BYTE   N11  En2
 BYTE   W12
 BYTE   Fn2
 BYTE   W12
 BYTE   Gn2
 BYTE   W12
 BYTE   En2
 BYTE   W12
 BYTE   N23  An2
 BYTE   W24
 BYTE   An1
 BYTE   W24
// 039   ----------------------------------------
 BYTE   N11  Dn2
 BYTE   W12
 BYTE   En2
 BYTE   W12
 BYTE   Fn2
 BYTE   W12
 BYTE   Dn2
 BYTE   W12
 BYTE   N23  Gn2
 BYTE   W24
 BYTE   Dn2
 BYTE   W24
// 040   ----------------------------------------
 BYTE   N11  Cn2
 BYTE   W12
 BYTE   N05  Cn3
 BYTE   W12
 BYTE   N11  Cn2
 BYTE   W12
 BYTE   N05  Cn3
 BYTE   W12
 BYTE   N11  An1
 BYTE   W12
 BYTE   N05  An2
 BYTE   W12
 BYTE   N11  An1
 BYTE   W12
 BYTE   N05  An2
 BYTE   W12
// 041   ----------------------------------------
 BYTE   PATT
  POIN2 Label_4_01E56905
// 042   ----------------------------------------
 BYTE   PATT
  POIN2 Label_4_01E56918
// 043   ----------------------------------------
 BYTE   PATT
  POIN2 Label_4_01E56905
// 044   ----------------------------------------
 BYTE   PATT
  POIN2 Label_4_01E56918
// 045   ----------------------------------------
 BYTE   N17  Bn1  v113
 BYTE   W18
 BYTE   Bn2
 BYTE   W18
 BYTE   N11  Fn2
 BYTE   W12
 BYTE   N17  Cn2
 BYTE   W18
 BYTE   Cn3
 BYTE   W18
 BYTE   N11  Gn2
 BYTE   W12
// 046   ----------------------------------------
 BYTE   N23  Bn1
 BYTE   W24
 BYTE   N32
 BYTE   W16
 BYTE   N03
 BYTE   W20
 BYTE   N11  Bn2
 BYTE   W12
 BYTE   Fn2
 BYTE   W11
 BYTE   W01
 BYTE   N11  Bn1  v113
 BYTE   W06
 BYTE   GoTo
  POIN2 Label_4_01E56844
 BYTE   FINE

//**************** Track 6 (Midi-Chn.5) ****************//

RomancingSagaCoupdeGraceRSflame_006:
// 000   ----------------------------------------
Label_5_01E57820:
 BYTE   KEYSH   RomancingSagaCoupdeGraceRSflame_key+0
 BYTE   VOICE   117
 BYTE   VOL   77*RomancingSagaCoupdeGraceRSflame_mvl/mxv
 BYTE   PAN   c_v-37
 BYTE   N03  En4  v113
 BYTE   TEMPO   160*RomancingSagaCoupdeGraceRSflame_tbs/2
 BYTE   W04
 BYTE   N03  En4  v113
 BYTE   W04
 BYTE   PAN   c_v-11
 BYTE   N03  Cn4  v113
 BYTE   W04
 BYTE   Cn4
 BYTE   W04
 BYTE   PAN   c_v+41
 BYTE   N03  Gs3  v113
 BYTE   W04
 BYTE   N72
 BYTE   W36
 BYTE   N03
 BYTE   W96
// 001   ----------------------------------------
 BYTE   W96
// 002   ----------------------------------------
 BYTE   W96
// 003   ----------------------------------------
 BYTE   W96
// 004   ----------------------------------------
 BYTE   W96
// 005   ----------------------------------------
 BYTE   W96
// 006   ----------------------------------------
 BYTE   W40
 BYTE   PAN   c_v-37
 BYTE   W60
// 007   ----------------------------------------
 BYTE   N05  En4  v113
 BYTE   W06
 BYTE   En4
 BYTE   W06
 BYTE   PAN   c_v-11
 BYTE   N05  Cn4  v113
 BYTE   W06
 BYTE   Cn4
 BYTE   W06
 BYTE   PAN   c_v+41
 BYTE   N05  Gs3  v113
 BYTE   W06
 BYTE   N28
 BYTE   W14
 BYTE   N01
 BYTE   W16
 BYTE   PAN   c_v-37
 BYTE   N05  En4  v113
 BYTE   W06
 BYTE   En4
 BYTE   W06
 BYTE   PAN   c_v-11
 BYTE   N05  Cn4  v113
 BYTE   W06
 BYTE   N28
 BYTE   W14
 BYTE   N01
 BYTE   W16
// 008   ----------------------------------------
 BYTE   N05
 BYTE   W06
 BYTE   Cn4
 BYTE   W06
 BYTE   PAN   c_v+41
 BYTE   N05  Gs3  v113
 BYTE   W06
 BYTE   N96
 BYTE   W48
 BYTE   N05
 BYTE   W96
// 009   ----------------------------------------
 BYTE   W96
// 010   ----------------------------------------
 BYTE   W96
// 011   ----------------------------------------
 BYTE   W96
// 012   ----------------------------------------
 BYTE   W96
// 013   ----------------------------------------
 BYTE   W96
// 014   ----------------------------------------
 BYTE   W96
// 015   ----------------------------------------
 BYTE   W90
 BYTE   PAN   c_v-37
 BYTE   N05  En4  v113
 BYTE   W06
// 016   ----------------------------------------
 BYTE   PAN   c_v-11
 BYTE   N17  Cn4  v113
 BYTE   W18
 BYTE   N05
 BYTE   W06
 BYTE   PAN   c_v+41
 BYTE   N28  Fn3  v113
 BYTE   W14
 BYTE   N01
 BYTE   W16
 BYTE   VOL   64*RomancingSagaCoupdeGraceRSflame_mvl/mxv
 BYTE   PAN   c_v-41
 BYTE   N11  Fs4  v113
 BYTE   W12
 BYTE   N05
 BYTE   W06
 BYTE   Fs4
 BYTE   W06
 BYTE   N11
 BYTE   W12
 BYTE   N05
 BYTE   W06
// 017   ----------------------------------------
 BYTE   Fs4
 BYTE   W06
 BYTE   N11
 BYTE   W12
 BYTE   N05
 BYTE   W06
 BYTE   Fs4
 BYTE   W06
 BYTE   N11
 BYTE   W12
 BYTE   N05
 BYTE   W06
 BYTE   Fs4
 BYTE   W06
 BYTE   N11
 BYTE   W12
 BYTE   N05
 BYTE   W06
 BYTE   Fs4
 BYTE   W06
 BYTE   N11
 BYTE   W12
 BYTE   N05
 BYTE   W06
// 018   ----------------------------------------
 BYTE   Fs4
 BYTE   W06
 BYTE   N11
 BYTE   W12
 BYTE   N05
 BYTE   W06
 BYTE   Fs4
 BYTE   W06
 BYTE   N11
 BYTE   W12
 BYTE   N05
 BYTE   W06
 BYTE   Fs4
 BYTE   W06
 BYTE   N11
 BYTE   W12
 BYTE   N05
 BYTE   W06
 BYTE   Fs4
 BYTE   W06
 BYTE   N11
 BYTE   W12
 BYTE   N05
 BYTE   W06
// 019   ----------------------------------------
 BYTE   Fs4
 BYTE   W06
 BYTE   N11
 BYTE   W12
 BYTE   N05
 BYTE   W06
 BYTE   Fs4
 BYTE   W06
 BYTE   N11
 BYTE   W12
 BYTE   N05
 BYTE   W06
 BYTE   Fs4
 BYTE   W06
 BYTE   N11
 BYTE   W12
 BYTE   N05
 BYTE   W06
 BYTE   Fs4
 BYTE   W06
 BYTE   N11
 BYTE   W12
 BYTE   N05
 BYTE   W06
// 020   ----------------------------------------
 BYTE   Fs4
 BYTE   W06
 BYTE   N11
 BYTE   W12
 BYTE   VOL   77*RomancingSagaCoupdeGraceRSflame_mvl/mxv
 BYTE   PAN   c_v-37
 BYTE   N05  En4  v113
 BYTE   W06
 BYTE   En4
 BYTE   W06
 BYTE   PAN   c_v-11
 BYTE   N05  Cn4  v113
 BYTE   W06
 BYTE   Cn4
 BYTE   W06
 BYTE   PAN   c_v+41
 BYTE   N05  Gs3  v113
 BYTE   W06
 BYTE   N96
 BYTE   W48
// 021   ----------------------------------------
 BYTE   N05
 BYTE   W96
// 022   ----------------------------------------
 BYTE   W96
// 023   ----------------------------------------
 BYTE   W18
 BYTE   PAN   c_v-37
 BYTE   N05  En4  v113
 BYTE   W06
 BYTE   En4
 BYTE   W06
 BYTE   PAN   c_v-11
 BYTE   N05  Cn4  v113
 BYTE   W06
 BYTE   Cn4
 BYTE   W06
 BYTE   PAN   c_v+41
 BYTE   N05  Gs3  v113
 BYTE   W06
 BYTE   N96
 BYTE   W48
// 024   ----------------------------------------
 BYTE   N05
 BYTE   W54
 BYTE   VOL   64*RomancingSagaCoupdeGraceRSflame_mvl/mxv
 BYTE   PAN   c_v-41
 BYTE   N11  Fs4  v113
 BYTE   W12
 BYTE   N05
 BYTE   W06
 BYTE   Fs4
 BYTE   W06
 BYTE   N11
 BYTE   W12
 BYTE   N05
 BYTE   W06
// 025   ----------------------------------------
 BYTE   Fs4
 BYTE   W06
 BYTE   N11
 BYTE   W12
 BYTE   N05
 BYTE   W06
 BYTE   Fs4
 BYTE   W06
 BYTE   N11
 BYTE   W12
 BYTE   N05
 BYTE   W06
 BYTE   Fs4
 BYTE   W06
 BYTE   N11
 BYTE   W12
 BYTE   N05
 BYTE   W06
 BYTE   Fs4
 BYTE   W06
 BYTE   N11
 BYTE   W12
 BYTE   N05
 BYTE   W06
// 026   ----------------------------------------
 BYTE   Fs4
 BYTE   W06
 BYTE   N11
 BYTE   W12
 BYTE   N05
 BYTE   W06
 BYTE   Fs4
 BYTE   W06
 BYTE   N11
 BYTE   W12
 BYTE   N05
 BYTE   W06
 BYTE   Fs4
 BYTE   W06
 BYTE   N11
 BYTE   W12
 BYTE   N05
 BYTE   W06
 BYTE   Fs4
 BYTE   W06
 BYTE   N11
 BYTE   W12
 BYTE   N05
 BYTE   W06
// 027   ----------------------------------------
 BYTE   Fs4
 BYTE   W06
 BYTE   N11
 BYTE   W12
 BYTE   N05
 BYTE   W06
 BYTE   Fs4
 BYTE   W06
 BYTE   N11
 BYTE   W12
 BYTE   N05
 BYTE   W06
 BYTE   Fs4
 BYTE   W06
 BYTE   N11
 BYTE   W12
 BYTE   N05
 BYTE   W06
 BYTE   Fs4
 BYTE   W06
 BYTE   N11
 BYTE   W12
 BYTE   N05
 BYTE   W06
// 028   ----------------------------------------
 BYTE   Fs4
 BYTE   W06
 BYTE   N11
 BYTE   W12
 BYTE   N05
 BYTE   W06
 BYTE   Fs4
 BYTE   W06
 BYTE   N11
 BYTE   W12
 BYTE   N05
 BYTE   W06
 BYTE   Fs4
 BYTE   W06
 BYTE   N11
 BYTE   W12
 BYTE   N05
 BYTE   W06
 BYTE   Fs4
 BYTE   W06
 BYTE   N11
 BYTE   W12
 BYTE   N05
 BYTE   W06
// 029   ----------------------------------------
 BYTE   Fs4
 BYTE   W06
 BYTE   N11
 BYTE   W12
 BYTE   N05
 BYTE   W06
 BYTE   Fs4
 BYTE   W06
 BYTE   N11
 BYTE   W12
 BYTE   N05
 BYTE   W06
 BYTE   Fs4
 BYTE   W06
 BYTE   N11
 BYTE   W12
 BYTE   N05
 BYTE   W06
 BYTE   Fs4
 BYTE   W06
 BYTE   N11
 BYTE   W12
 BYTE   N05
 BYTE   W06
// 030   ----------------------------------------
 BYTE   Fs4
 BYTE   W06
 BYTE   N11
 BYTE   W12
 BYTE   N05
 BYTE   W06
 BYTE   Fs4
 BYTE   W06
 BYTE   N11
 BYTE   W12
 BYTE   N05
 BYTE   W06
 BYTE   Fs4
 BYTE   W06
 BYTE   VOL   77*RomancingSagaCoupdeGraceRSflame_mvl/mxv
 BYTE   W12
 BYTE   PAN   c_v-37
 BYTE   N05  En4  v113
 BYTE   W06
 BYTE   En4
 BYTE   W06
 BYTE   PAN   c_v-11
 BYTE   N05  Cn4  v113
 BYTE   W06
 BYTE   Cn4
 BYTE   W06
 BYTE   PAN   c_v+41
 BYTE   N05  Gs3  v113
 BYTE   W06
// 031   ----------------------------------------
 BYTE   Gs3
 BYTE   W06
 BYTE   VOL   77*RomancingSagaCoupdeGraceRSflame_mvl/mxv
 BYTE   W12
 BYTE   PAN   c_v-37
 BYTE   N05  En4  v113
 BYTE   W06
 BYTE   En4
 BYTE   W06
 BYTE   PAN   c_v-11
 BYTE   N05  Cn4  v113
 BYTE   W06
 BYTE   Cn4
 BYTE   W06
 BYTE   PAN   c_v+41
 BYTE   N05  Gs3  v113
 BYTE   W06
 BYTE   N96
 BYTE   W48
// 032   ----------------------------------------
 BYTE   N05
 BYTE   W54
Label_5_01E57A04:
 BYTE   VOL   64*RomancingSagaCoupdeGraceRSflame_mvl/mxv
 BYTE   PAN   c_v-41
 BYTE   N11  Fs4  v113
 BYTE   W12
 BYTE   N05
 BYTE   W06
 BYTE   Fs4
 BYTE   W06
 BYTE   N11
 BYTE   W12
 BYTE   N05
 BYTE   W06
// 033   ----------------------------------------
 BYTE   Fs4
 BYTE   W06
 BYTE   N11
 BYTE   W12
 BYTE   N05
 BYTE   W06
 BYTE   Fs4
 BYTE   W06
 BYTE   N11
 BYTE   W12
 BYTE   N05
 BYTE   W06
 BYTE   Fs4
 BYTE   W06
 BYTE   PEND 
// 034   ----------------------------------------
 BYTE   PATT
  POIN2 Label_5_01E57A04
// 035   ----------------------------------------
 BYTE   PATT
  POIN2 Label_5_01E57A04
// 036   ----------------------------------------
 BYTE   PATT
  POIN2 Label_5_01E57A04
// 037   ----------------------------------------
Label_5_01E57A32:
 BYTE   VOL   77*RomancingSagaCoupdeGraceRSflame_mvl/mxv
 BYTE   PAN   c_v-37
 BYTE   W12
 BYTE   N05  En4  v113
 BYTE   W06
 BYTE   En4
 BYTE   W06
 BYTE   PAN   c_v-11
 BYTE   N05  Cn4  v113
 BYTE   W06
 BYTE   Cn4
 BYTE   W06
 BYTE   PAN   c_v+41
 BYTE   N05  Gs3  v113
 BYTE   W06
 BYTE   N52
 BYTE   W24
 BYTE   W02
 BYTE   N01
 BYTE   W28
 BYTE   PEND 
// 038   ----------------------------------------
 BYTE   PATT
  POIN2 Label_5_01E57A32
// 039   ----------------------------------------
 BYTE   PATT
  POIN2 Label_5_01E57A32
// 040   ----------------------------------------
 BYTE   VOL   64*RomancingSagaCoupdeGraceRSflame_mvl/mxv
 BYTE   PAN   c_v-41
 BYTE   N11  Fs4  v113
 BYTE   W12
 BYTE   N05
 BYTE   W06
 BYTE   Fs4
 BYTE   W06
 BYTE   N11
 BYTE   W12
 BYTE   N05
 BYTE   W06
 BYTE   Fs4
 BYTE   W06
 BYTE   N40
 BYTE   W20
 BYTE   N01
 BYTE   W28
// 041   ----------------------------------------
 BYTE   N05
 BYTE   W06
 BYTE   Fs4
 BYTE   W06
 BYTE   Fs4
 BYTE   W06
 BYTE   Fs4
 BYTE   W06
 BYTE   Fs4
 BYTE   W06
 BYTE   Fs4
 BYTE   W06
 BYTE   Fs4
 BYTE   W06
 BYTE   Fs4
 BYTE   W06
 BYTE   Fs4
 BYTE   W06
 BYTE   Fs4
 BYTE   W06
 BYTE   Fs4
 BYTE   W06
 BYTE   Fs4
 BYTE   W06
 BYTE   Fs4
 BYTE   W06
 BYTE   Fs4
 BYTE   W06
 BYTE   Fs4
 BYTE   W06
 BYTE   Fs4
 BYTE   W06
// 042   ----------------------------------------
 BYTE   Fs4
 BYTE   W06
 BYTE   Fs4
 BYTE   W06
 BYTE   Fs4
 BYTE   W06
 BYTE   Fs4
 BYTE   W06
 BYTE   Fs4
 BYTE   W06
 BYTE   Fs4
 BYTE   W06
 BYTE   Fs4
 BYTE   W06
 BYTE   Fs4
 BYTE   W06
 BYTE   Fs4
 BYTE   W06
 BYTE   Fs4
 BYTE   W06
 BYTE   Fs4
 BYTE   W06
 BYTE   Fs4
 BYTE   W06
 BYTE   Fs4
 BYTE   W06
 BYTE   Fs4
 BYTE   W06
 BYTE   Fs4
 BYTE   W06
 BYTE   Fs4
 BYTE   W06
// 043   ----------------------------------------
 BYTE   Fs4
 BYTE   W06
 BYTE   Fs4
 BYTE   W06
 BYTE   Fs4
 BYTE   W06
 BYTE   Fs4
 BYTE   W06
 BYTE   Fs4
 BYTE   W06
 BYTE   Fs4
 BYTE   W06
 BYTE   Fs4
 BYTE   W06
 BYTE   Fs4
 BYTE   W06
 BYTE   Fs4
 BYTE   W06
 BYTE   Fs4
 BYTE   W06
 BYTE   Fs4
 BYTE   W06
 BYTE   Fs4
 BYTE   W06
 BYTE   Fs4
 BYTE   W06
 BYTE   Fs4
 BYTE   W06
 BYTE   Fs4
 BYTE   W06
 BYTE   Fs4
 BYTE   W06
// 044   ----------------------------------------
 BYTE   Fs4
 BYTE   W06
 BYTE   Fs4
 BYTE   W06
 BYTE   Fs4
 BYTE   W06
 BYTE   Fs4
 BYTE   W06
 BYTE   Fs4
 BYTE   W06
 BYTE   Fs4
 BYTE   W06
 BYTE   Fs4
 BYTE   W06
 BYTE   Fs4
 BYTE   W06
 BYTE   Fs4
 BYTE   W06
 BYTE   Fs4
 BYTE   W06
 BYTE   Fs4
 BYTE   W06
 BYTE   Fs4
 BYTE   W06
 BYTE   Fs4
 BYTE   W06
 BYTE   Fs4
 BYTE   W06
 BYTE   Fs4
 BYTE   W06
 BYTE   N17
 BYTE   W06
// 045   ----------------------------------------
 BYTE   VOL   77*RomancingSagaCoupdeGraceRSflame_mvl/mxv
 BYTE   W12
 BYTE   PAN   c_v-37
 BYTE   N05  En4  v113
 BYTE   W06
 BYTE   En4
 BYTE   W06
 BYTE   PAN   c_v-11
 BYTE   N05  Cn4  v113
 BYTE   W06
 BYTE   Cn4
 BYTE   W06
 BYTE   PAN   c_v+41
 BYTE   N05  Gs3  v113
 BYTE   W06
 BYTE   N17
 BYTE   W06
 BYTE   VOL   77*RomancingSagaCoupdeGraceRSflame_mvl/mxv
 BYTE   W12
 BYTE   PAN   c_v-37
 BYTE   N05  En4  v113
 BYTE   W06
 BYTE   En4
 BYTE   W06
 BYTE   PAN   c_v-11
 BYTE   N05  Cn4  v113
 BYTE   W06
 BYTE   Cn4
 BYTE   W06
 BYTE   PAN   c_v+41
 BYTE   N05  Gs3  v113
 BYTE   W06
 BYTE   N96
 BYTE   W48
// 046   ----------------------------------------
 BYTE   N05
 BYTE   W40
 BYTE   W01
 BYTE   W07
 BYTE   GoTo
  POIN2 Label_5_01E57820
 BYTE   FINE

//**************** Track 7 (Midi-Chn.6) ****************//

RomancingSagaCoupdeGraceRSflame_007:
// 000   ----------------------------------------
Label_6_01E5633C:
 BYTE   KEYSH   RomancingSagaCoupdeGraceRSflame_key+0
 BYTE   VOICE   36
 BYTE   VOL   52*RomancingSagaCoupdeGraceRSflame_mvl/mxv
 BYTE   PAN   c_v+0
 BYTE   TEMPO   160*RomancingSagaCoupdeGraceRSflame_tbs/2
 BYTE   W24
 BYTE   N23  En1  v113
 BYTE   W96
// 001   ----------------------------------------
 BYTE   W96
// 002   ----------------------------------------
 BYTE   W96
// 003   ----------------------------------------
 BYTE   W36
 BYTE   N05  En2
 BYTE   W06
 BYTE   En2
 BYTE   W06
 BYTE   En2
 BYTE   W06
 BYTE   En2
 BYTE   W06
 BYTE   En2
 BYTE   W06
 BYTE   En2
 BYTE   W06
 BYTE   N23  En1
 BYTE   W24
// 004   ----------------------------------------
 BYTE   En1
 BYTE   W24
 BYTE   En1
 BYTE   W24
Label_6_01E56362:
 BYTE   N23  En1  v113
 BYTE   W24
 BYTE   En1
 BYTE   W24
// 005   ----------------------------------------
 BYTE   En1
 BYTE   W24
 BYTE   En1
 BYTE   W24
 BYTE   PEND 
// 006   ----------------------------------------
 BYTE   PATT
  POIN2 Label_6_01E56362
// 007   ----------------------------------------
 BYTE   PATT
  POIN2 Label_6_01E56362
// 008   ----------------------------------------
 BYTE   N23  En1  v113
 BYTE   W24
 BYTE   N44
 BYTE   W22
 BYTE   N03
 BYTE   W24
 BYTE   W02
 BYTE   N44
 BYTE   W22
 BYTE   N03
 BYTE   W24
// 009   ----------------------------------------
 BYTE   W02
Label_6_01E56385:
 BYTE   N11  En1  v113
 BYTE   W12
 BYTE   N05  En2
 BYTE   W06
 BYTE   En2
 BYTE   W06
 BYTE   N11  En1
 BYTE   W12
 BYTE   N05  En2
 BYTE   W06
 BYTE   En2
 BYTE   W06
 BYTE   N11  En1
 BYTE   W12
 BYTE   N05  En2
 BYTE   W06
 BYTE   En2
 BYTE   W06
 BYTE   En2
 BYTE   W06
 BYTE   En2
 BYTE   W06
 BYTE   En2
 BYTE   W06
 BYTE   En2
 BYTE   W06
 BYTE   PEND 
// 010   ----------------------------------------
Label_6_01E563A7:
 BYTE   N23  En1  v113
 BYTE   W24
 BYTE   En1
 BYTE   W24
 BYTE   En1
 BYTE   W24
 BYTE   En2
 BYTE   W24
 BYTE   PEND 
// 011   ----------------------------------------
 BYTE   PATT
  POIN2 Label_6_01E563A7
// 012   ----------------------------------------
 BYTE   PATT
  POIN2 Label_6_01E563A7
// 013   ----------------------------------------
 BYTE   PATT
  POIN2 Label_6_01E563A7
// 014   ----------------------------------------
 BYTE   PATT
  POIN2 Label_6_01E563A7
// 015   ----------------------------------------
 BYTE   PATT
  POIN2 Label_6_01E563A7
// 016   ----------------------------------------
 BYTE   N23  En1  v113
 BYTE   W24
 BYTE   En1
 BYTE   W24
 BYTE   En1
 BYTE   W24
 BYTE   N11  En2
 BYTE   W12
 BYTE   En2
 BYTE   W12
// 017   ----------------------------------------
 BYTE   N23  En1
 BYTE   W24
 BYTE   En1
 BYTE   W24
 BYTE   En1
 BYTE   W24
 BYTE   N05
 BYTE   W06
 BYTE   En2
 BYTE   W06
 BYTE   En2
 BYTE   W06
 BYTE   En2
 BYTE   W06
// 018   ----------------------------------------
Label_6_01E563E7:
 BYTE   N23  En1  v113
 BYTE   W24
 BYTE   En2
 BYTE   W24
 BYTE   En1
 BYTE   W24
 BYTE   En2
 BYTE   W24
 BYTE   PEND 
// 019   ----------------------------------------
 BYTE   PATT
  POIN2 Label_6_01E563E7
// 020   ----------------------------------------
 BYTE   PATT
  POIN2 Label_6_01E563E7
// 021   ----------------------------------------
 BYTE   N23  En1  v113
 BYTE   W24
 BYTE   En2
 BYTE   W24
 BYTE   En1
 BYTE   W48
// 022   ----------------------------------------
 BYTE   PATT
  POIN2 Label_6_01E56362
// 023   ----------------------------------------
 BYTE   PATT
  POIN2 Label_6_01E56362
// 024   ----------------------------------------
 BYTE   N23  En1  v113
 BYTE   W24
 BYTE   En1
 BYTE   W24
 BYTE   En1
 BYTE   W24
 BYTE   En1
 BYTE   W84
// 025   ----------------------------------------
 BYTE   N05  En2
 BYTE   W06
 BYTE   En2
 BYTE   W06
 BYTE   En2
 BYTE   W06
 BYTE   En2
 BYTE   W06
 BYTE   En2
 BYTE   W06
 BYTE   En2
 BYTE   W06
 BYTE   N23  En1
 BYTE   W24
 BYTE   En2
 BYTE   W24
 BYTE   En1
 BYTE   W24
// 026   ----------------------------------------
Label_6_01E5642C:
 BYTE   N11  En2  v113
 BYTE   W12
 BYTE   En1
 BYTE   W12
 BYTE   N23
 BYTE   W24
 BYTE   En2
 BYTE   W24
 BYTE   En1
 BYTE   W24
 BYTE   PEND 
// 027   ----------------------------------------
Label_6_01E56439:
 BYTE   N23  En2  v113
 BYTE   W24
 BYTE   En1
 BYTE   W24
 BYTE   En2
 BYTE   W24
 BYTE   En1
 BYTE   W24
 BYTE   PEND 
// 028   ----------------------------------------
 BYTE   PATT
  POIN2 Label_6_01E5642C
// 029   ----------------------------------------
 BYTE   PATT
  POIN2 Label_6_01E56439
// 030   ----------------------------------------
 BYTE   PATT
  POIN2 Label_6_01E5642C
// 031   ----------------------------------------
 BYTE   N23  En2  v113
 BYTE   W24
 BYTE   N44  En1
 BYTE   W22
 BYTE   N03
 BYTE   W24
 BYTE   W02
 BYTE   N44
 BYTE   W22
 BYTE   N03
 BYTE   W24
// 032   ----------------------------------------
 BYTE   W02
// 033   ----------------------------------------
 BYTE   PATT
  POIN2 Label_6_01E56385
// 034   ----------------------------------------
Label_6_01E56467:
 BYTE   N23  En1  v113
 BYTE   W24
 BYTE   En2
 BYTE   W24
 BYTE   En1
 BYTE   W24
 BYTE   N11  En2
 BYTE   W12
 BYTE   En1
 BYTE   W12
 BYTE   PEND 
// 035   ----------------------------------------
 BYTE   PATT
  POIN2 Label_6_01E563E7
// 036   ----------------------------------------
 BYTE   PATT
  POIN2 Label_6_01E56467
// 037   ----------------------------------------
 BYTE   PATT
  POIN2 Label_6_01E563E7
// 038   ----------------------------------------
Label_6_01E56484:
 BYTE   N23  En1  v113
 BYTE   W36
 BYTE   N11
 BYTE   W12
 BYTE   N23
 BYTE   W24
 BYTE   En2
 BYTE   W24
 BYTE   PEND 
// 039   ----------------------------------------
 BYTE   PATT
  POIN2 Label_6_01E56484
// 040   ----------------------------------------
 BYTE   PATT
  POIN2 Label_6_01E56484
// 041   ----------------------------------------
 BYTE   N23  En1  v113
 BYTE   W24
 BYTE   En2
 BYTE   W24
 BYTE   N11  En1
 BYTE   W12
 BYTE   En2
 BYTE   W12
 BYTE   En2
 BYTE   W12
 BYTE   N05
 BYTE   W06
 BYTE   En2
 BYTE   W06
// 042   ----------------------------------------
 BYTE   PATT
  POIN2 Label_6_01E56362
// 043   ----------------------------------------
 BYTE   PATT
  POIN2 Label_6_01E56362
// 044   ----------------------------------------
 BYTE   PATT
  POIN2 Label_6_01E56362
// 045   ----------------------------------------
 BYTE   PATT
  POIN2 Label_6_01E56362
// 046   ----------------------------------------
 BYTE   N44  En1  v113
 BYTE   W22
 BYTE   N03
 BYTE   W24
 BYTE   W02
 BYTE   N44
 BYTE   W22
 BYTE   N03
 BYTE   W24
 BYTE   W02
// 047   ----------------------------------------
 BYTE   N23
 BYTE   W24
 BYTE   En1
 BYTE   W36
 BYTE   N11  En2
 BYTE   W12
 BYTE   En2
 BYTE   W11
 BYTE   W01
 BYTE   N05  En2  v113
 BYTE   W06
 BYTE   En2
 BYTE   GoTo
  POIN2 Label_6_01E5633C
 BYTE   FINE

//******************************************************//
	ALIGN 4

RomancingSagaCoupdeGraceRSflame:
	BYTE	7	// NumTrks
	BYTE	0	// NumBlks
	BYTE	RomancingSagaCoupdeGraceRSflame_pri	// Priority
	BYTE	RomancingSagaCoupdeGraceRSflame_rev	// Reverb.
    
	POIN2	RomancingSagaCoupdeGraceRSflame_grp
    
	POIN2	RomancingSagaCoupdeGraceRSflame_001
	POIN2	RomancingSagaCoupdeGraceRSflame_002
	POIN2	RomancingSagaCoupdeGraceRSflame_003
	POIN2	RomancingSagaCoupdeGraceRSflame_004
	POIN2	RomancingSagaCoupdeGraceRSflame_005
	POIN2	RomancingSagaCoupdeGraceRSflame_006
	POIN2	RomancingSagaCoupdeGraceRSflame_007

	
