//Event file generated from Sappy .s format.
	#include "MPlayDef.event"

	#define	RomancingSaga2EndingExtraLong7743_grp  voicegroup000
	#define	RomancingSaga2EndingExtraLong7743_pri  0
	#define	RomancingSaga2EndingExtraLong7743_rev  0
	#define	RomancingSaga2EndingExtraLong7743_mvl  127
	#define	RomancingSaga2EndingExtraLong7743_key  0
	#define	RomancingSaga2EndingExtraLong7743_tbs  1
	#define	RomancingSaga2EndingExtraLong7743_exg  0
	#define	RomancingSaga2EndingExtraLong7743_cmp  1

	// .rodata
	//	RomancingSaga2EndingExtraLong7743
	ALIGN 4


//**************** Track 1 (Midi-Chn.0) ****************//

RomancingSaga2EndingExtraLong7743_001:
// 000   ----------------------------------------
 BYTE   KEYSH   RomancingSaga2EndingExtraLong7743_key+0
 BYTE   TEMPO   108*RomancingSaga2EndingExtraLong7743_tbs/2
 BYTE   VOICE   48
 BYTE   VOL   38*RomancingSaga2EndingExtraLong7743_mvl/mxv
 BYTE   PAN   c_v+0
 BYTE   N30  En3  v100
 BYTE   W32
 BYTE   N07  Cs3
 BYTE   W08
 BYTE   En3
 BYTE   W08
 BYTE   N44  Fs3
 BYTE   W48
// 001   ----------------------------------------
Label_0_017EA1E2:
 BYTE   N44  En3  v100
 BYTE   W48
 BYTE   N15  As3
 BYTE   W16
 BYTE   Gs3
 BYTE   W16
 BYTE   Fs3
 BYTE   W16
 BYTE   PEND 
// 002   ----------------------------------------
 BYTE   N30  En3
 BYTE   W32
 BYTE   N07  Cs3
 BYTE   W08
 BYTE   En3
 BYTE   W08
 BYTE   N44  Fs3
 BYTE   W48
 BYTE   PATT
  POIN2 Label_0_017EA1E2
// 003   ----------------------------------------
Label_0_017EA1FE:
 BYTE   N30  Gn3  v100
 BYTE   W32
 BYTE   N07  En3
 BYTE   W08
 BYTE   Gn3
 BYTE   W08
 BYTE   N44  An3
 BYTE   W48
 BYTE   PEND 
// 004   ----------------------------------------
Label_0_017EA20B:
 BYTE   N44  Gn3  v100
 BYTE   W48
 BYTE   N15  Cs4
 BYTE   W16
 BYTE   Bn3
 BYTE   W16
 BYTE   An3
 BYTE   W16
 BYTE   PEND 
 BYTE   PATT
  POIN2 Label_0_017EA1FE
 BYTE   PATT
  POIN2 Label_0_017EA20B
// 005   ----------------------------------------
Label_0_017EA221:
 BYTE   N44  Bn3  v104
 BYTE   W48
 BYTE   As3
 BYTE   W48
 BYTE   PEND 
// 006   ----------------------------------------
 BYTE   TEMPO   120*RomancingSaga2EndingExtraLong7743_tbs/2
 BYTE   N23  Gs3
 BYTE   W24
 BYTE   As3
 BYTE   W24
 BYTE   Bn3
 BYTE   W24
 BYTE   Cs4
 BYTE   W24
// 007   ----------------------------------------
 BYTE   TEMPO   132*RomancingSaga2EndingExtraLong7743_tbs/2
 BYTE   N44  Ds3  v096
 BYTE   W48
 BYTE   N30  Fs3
 BYTE   W32
 BYTE   N15  Ds3
 BYTE   W16
// 008   ----------------------------------------
Label_0_017EA23F:
 BYTE   N23  En3  v096
 BYTE   W24
 BYTE   N68  Gs3
 BYTE   W72
 BYTE   PEND 
// 009   ----------------------------------------
Label_0_017EA247:
 BYTE   N32  Fs3  v096
 BYTE   W36
 BYTE   N23  Ds3
 BYTE   W24
 BYTE   Fs3
 BYTE   W24
 BYTE   N11  Bn3
 BYTE   W12
 BYTE   PEND 
// 010   ----------------------------------------
Label_0_017EA254:
 BYTE   N23  An3  v096
 BYTE   W24
 BYTE   Gs3
 BYTE   W24
 BYTE   Fs3
 BYTE   W24
 BYTE   En3
 BYTE   W24
 BYTE   PEND 
// 011   ----------------------------------------
Label_0_017EA25F:
 BYTE   N44  Fs3  v096
 BYTE   W48
 BYTE   N30  As3
 BYTE   W32
 BYTE   N15  Fs3
 BYTE   W16
 BYTE   PEND 
// 012   ----------------------------------------
Label_0_017EA26A:
 BYTE   N23  Gn3  v096
 BYTE   W24
 BYTE   N68  Bn3
 BYTE   W72
 BYTE   PEND 
// 013   ----------------------------------------
Label_0_017EA272:
 BYTE   N23  As3  v096
 BYTE   W24
 BYTE   N32  Fs3
 BYTE   W36
 BYTE   N23  As3
 BYTE   W24
 BYTE   N11  Cs4
 BYTE   W12
 BYTE   PEND 
// 014   ----------------------------------------
Label_0_017EA280:
 BYTE   N23  Bn3  v096
 BYTE   W24
 BYTE   As3
 BYTE   W24
 BYTE   Gs3
 BYTE   W24
 BYTE   Fs3
 BYTE   W24
 BYTE   PEND 
// 015   ----------------------------------------
Label_0_017EA28B:
 BYTE   N68  En3  v096
 BYTE   W72
 BYTE   N07  Gs3
 BYTE   W08
 BYTE   En3
 BYTE   W08
 BYTE   Gs3
 BYTE   W08
 BYTE   PEND 
// 016   ----------------------------------------
Label_0_017EA297:
 BYTE   N23  Bn3  v096
 BYTE   W48
 BYTE   N15  Cs4
 BYTE   W16
 BYTE   Bn3
 BYTE   W16
 BYTE   An3
 BYTE   W16
 BYTE   PEND 
// 017   ----------------------------------------
Label_0_017EA2A3:
 BYTE   N68  Ds3  v096
 BYTE   W72
 BYTE   N07  Gs3
 BYTE   W08
 BYTE   Ds3
 BYTE   W08
 BYTE   Gs3
 BYTE   W08
 BYTE   PEND 
// 018   ----------------------------------------
Label_0_017EA2AF:
 BYTE   N23  Bn3  v096
 BYTE   W48
 BYTE   N15
 BYTE   W16
 BYTE   An3
 BYTE   W16
 BYTE   Gn3
 BYTE   W16
 BYTE   PEND 
// 019   ----------------------------------------
Label_0_017EA2BA:
 BYTE   N23  Fs3  v096
 BYTE   W24
 BYTE   N32  Dn3
 BYTE   W36
 BYTE   N11  An3
 BYTE   W12
 BYTE   Gn3
 BYTE   W12
 BYTE   Fs3
 BYTE   W12
 BYTE   PEND 
// 020   ----------------------------------------
Label_0_017EA2C9:
 BYTE   N23  En3  v096
 BYTE   W24
 BYTE   N32  Cn3
 BYTE   W36
 BYTE   N11  Gn3
 BYTE   W12
 BYTE   En3
 BYTE   W12
 BYTE   Gn3
 BYTE   W12
 BYTE   PEND 
// 021   ----------------------------------------
Label_0_017EA2D8:
 BYTE   N30  Ds3  v096
 BYTE   W32
 BYTE   N07  Cs3
 BYTE   W08
 BYTE   Ds3
 BYTE   W08
 BYTE   N23  Fs3
 BYTE   W24
 BYTE   Gs3
 BYTE   W24
 BYTE   PEND 
// 022   ----------------------------------------
Label_0_017EA2E7:
 BYTE   W24
 BYTE   N07  As3  v096
 BYTE   W08
 BYTE   Gs3
 BYTE   W08
 BYTE   As3
 BYTE   W08
 BYTE   N15  Gs3
 BYTE   W16
 BYTE   Fs3
 BYTE   W16
 BYTE   En3
 BYTE   W16
 BYTE   PEND 
// 023   ----------------------------------------
Label_0_017EA2F8:
 BYTE   N44  Ds3  v096
 BYTE   W48
 BYTE   N30  Fs3
 BYTE   W32
 BYTE   N15  Ds3
 BYTE   W16
 BYTE   PEND 
 BYTE   PATT
  POIN2 Label_0_017EA23F
 BYTE   PATT
  POIN2 Label_0_017EA247
 BYTE   PATT
  POIN2 Label_0_017EA254
 BYTE   PATT
  POIN2 Label_0_017EA25F
 BYTE   PATT
  POIN2 Label_0_017EA26A
 BYTE   PATT
  POIN2 Label_0_017EA272
 BYTE   PATT
  POIN2 Label_0_017EA280
 BYTE   PATT
  POIN2 Label_0_017EA28B
 BYTE   PATT
  POIN2 Label_0_017EA297
 BYTE   PATT
  POIN2 Label_0_017EA2A3
 BYTE   PATT
  POIN2 Label_0_017EA2AF
 BYTE   PATT
  POIN2 Label_0_017EA2BA
 BYTE   PATT
  POIN2 Label_0_017EA2C9
 BYTE   PATT
  POIN2 Label_0_017EA2D8
// 024   ----------------------------------------
Label_0_017EA349:
 BYTE   N11  An3  v100
 BYTE   W12
 BYTE   Gs3
 BYTE   W12
 BYTE   An3
 BYTE   W12
 BYTE   Cs4
 BYTE   W12
 BYTE   Bn3
 BYTE   W12
 BYTE   An3
 BYTE   W12
 BYTE   Gs3
 BYTE   W12
 BYTE   Fs3
 BYTE   W12
 BYTE   PEND 
// 025   ----------------------------------------
Label_0_017EA35C:
 BYTE   N56  Bn2  v096
 BYTE   W60
 BYTE   N11  As2
 BYTE   W12
 BYTE   Bn2
 BYTE   W12
 BYTE   Cs3
 BYTE   W12
 BYTE   PEND 
// 026   ----------------------------------------
Label_0_017EA368:
 BYTE   N23  En3  v096
 BYTE   W24
 BYTE   Cs3
 BYTE   W24
 BYTE   En3
 BYTE   W24
 BYTE   Fs3
 BYTE   W24
 BYTE   PEND 
// 027   ----------------------------------------
Label_0_017EA373:
 BYTE   N56  Ds3  v096
 BYTE   W60
 BYTE   N11  Dn3
 BYTE   W12
 BYTE   Ds3
 BYTE   W12
 BYTE   Cs3
 BYTE   W12
 BYTE   PEND 
// 028   ----------------------------------------
Label_0_017EA37F:
 BYTE   N44  Bn2  v096
 BYTE   W48
 BYTE   N23  En3
 BYTE   W24
 BYTE   Fs3
 BYTE   W24
 BYTE   PEND 
// 029   ----------------------------------------
Label_0_017EA389:
 BYTE   N44  Cs3  v096
 BYTE   W48
 BYTE   N23  Bn2
 BYTE   W24
 BYTE   Cs3
 BYTE   W24
 BYTE   PEND 
// 030   ----------------------------------------
Label_0_017EA393:
 BYTE   N23  Bn2  v096
 BYTE   W24
 BYTE   Cs3
 BYTE   W24
 BYTE   Ds3
 BYTE   W24
 BYTE   En3
 BYTE   W24
 BYTE   PEND 
// 031   ----------------------------------------
Label_0_017EA39E:
 BYTE   N44  Gs3  v096
 BYTE   W48
 BYTE   N23  Gn3
 BYTE   W24
 BYTE   As3
 BYTE   W24
 BYTE   PEND 
// 032   ----------------------------------------
Label_0_017EA3A8:
 BYTE   N23  Gs3  v096
 BYTE   W24
 BYTE   Ds3
 BYTE   W24
 BYTE   Cs3
 BYTE   W24
 BYTE   Cn3
 BYTE   W24
 BYTE   PEND 
// 033   ----------------------------------------
 BYTE   N92  En3
 BYTE   W96
// 034   ----------------------------------------
Label_0_017EA3B6:
 BYTE   N23  Ds3  v096
 BYTE   W24
 BYTE   Gn3
 BYTE   W24
 BYTE   Gs3
 BYTE   W24
 BYTE   As3
 BYTE   W24
 BYTE   PEND 
// 035   ----------------------------------------
Label_0_017EA3C1:
 BYTE   N44  Gs3  v096
 BYTE   W48
 BYTE   As3
 BYTE   W48
 BYTE   PEND 
// 036   ----------------------------------------
 BYTE   N92  Bn3
 BYTE   W96
// 037   ----------------------------------------
 BYTE   N44  En3
 BYTE   W48
 BYTE   Fs3
 BYTE   W48
// 038   ----------------------------------------
Label_0_017EA3D0:
 BYTE   N68  Gs3  v096
 BYTE   W72
 BYTE   N23  Bn3
 BYTE   W24
 BYTE   PEND 
// 039   ----------------------------------------
Label_0_017EA3D8:
 BYTE   N15  As3  v096
 BYTE   W16
 BYTE   Fs3
 BYTE   W16
 BYTE   As3
 BYTE   W16
 BYTE   Gs3
 BYTE   W16
 BYTE   En3
 BYTE   W16
 BYTE   Gs3
 BYTE   W16
 BYTE   PEND 
// 040   ----------------------------------------
Label_0_017EA3E7:
 BYTE   N15  Fs3  v096
 BYTE   W16
 BYTE   Ds3
 BYTE   W16
 BYTE   Fs3
 BYTE   W16
 BYTE   N05  En3
 BYTE   W06
 BYTE   Fs3
 BYTE   W06
 BYTE   Gs3
 BYTE   W06
 BYTE   As3
 BYTE   W06
 BYTE   Bn3
 BYTE   W06
 BYTE   Cs4
 BYTE   W06
 BYTE   Ds4
 BYTE   W06
 BYTE   En4
 BYTE   W06
 BYTE   PEND 
 BYTE   PATT
  POIN2 Label_0_017EA2F8
 BYTE   PATT
  POIN2 Label_0_017EA23F
 BYTE   PATT
  POIN2 Label_0_017EA247
 BYTE   PATT
  POIN2 Label_0_017EA254
 BYTE   PATT
  POIN2 Label_0_017EA25F
 BYTE   PATT
  POIN2 Label_0_017EA26A
 BYTE   PATT
  POIN2 Label_0_017EA272
 BYTE   PATT
  POIN2 Label_0_017EA280
 BYTE   PATT
  POIN2 Label_0_017EA28B
 BYTE   PATT
  POIN2 Label_0_017EA297
 BYTE   PATT
  POIN2 Label_0_017EA2A3
 BYTE   PATT
  POIN2 Label_0_017EA2AF
 BYTE   PATT
  POIN2 Label_0_017EA2BA
 BYTE   PATT
  POIN2 Label_0_017EA2C9
 BYTE   PATT
  POIN2 Label_0_017EA2D8
 BYTE   PATT
  POIN2 Label_0_017EA2E7
 BYTE   PATT
  POIN2 Label_0_017EA2F8
 BYTE   PATT
  POIN2 Label_0_017EA23F
 BYTE   PATT
  POIN2 Label_0_017EA247
 BYTE   PATT
  POIN2 Label_0_017EA254
 BYTE   PATT
  POIN2 Label_0_017EA25F
 BYTE   PATT
  POIN2 Label_0_017EA26A
 BYTE   PATT
  POIN2 Label_0_017EA272
 BYTE   PATT
  POIN2 Label_0_017EA280
 BYTE   PATT
  POIN2 Label_0_017EA28B
 BYTE   PATT
  POIN2 Label_0_017EA297
 BYTE   PATT
  POIN2 Label_0_017EA2A3
 BYTE   PATT
  POIN2 Label_0_017EA2AF
 BYTE   PATT
  POIN2 Label_0_017EA2BA
 BYTE   PATT
  POIN2 Label_0_017EA2C9
 BYTE   PATT
  POIN2 Label_0_017EA2D8
 BYTE   PATT
  POIN2 Label_0_017EA349
 BYTE   PATT
  POIN2 Label_0_017EA35C
 BYTE   PATT
  POIN2 Label_0_017EA368
 BYTE   PATT
  POIN2 Label_0_017EA373
 BYTE   PATT
  POIN2 Label_0_017EA37F
 BYTE   PATT
  POIN2 Label_0_017EA389
 BYTE   PATT
  POIN2 Label_0_017EA393
 BYTE   PATT
  POIN2 Label_0_017EA39E
 BYTE   PATT
  POIN2 Label_0_017EA3A8
// 041   ----------------------------------------
 BYTE   N92  En3  v096
 BYTE   W96
 BYTE   PATT
  POIN2 Label_0_017EA3B6
 BYTE   PATT
  POIN2 Label_0_017EA3C1
// 042   ----------------------------------------
 BYTE   N92  Bn3  v096
 BYTE   W96
 BYTE   PATT
  POIN2 Label_0_017EA2F8
 BYTE   PATT
  POIN2 Label_0_017EA23F
 BYTE   PATT
  POIN2 Label_0_017EA247
 BYTE   PATT
  POIN2 Label_0_017EA254
 BYTE   PATT
  POIN2 Label_0_017EA25F
 BYTE   PATT
  POIN2 Label_0_017EA26A
 BYTE   PATT
  POIN2 Label_0_017EA272
 BYTE   PATT
  POIN2 Label_0_017EA280
 BYTE   PATT
  POIN2 Label_0_017EA28B
 BYTE   PATT
  POIN2 Label_0_017EA297
 BYTE   PATT
  POIN2 Label_0_017EA2A3
 BYTE   PATT
  POIN2 Label_0_017EA2AF
 BYTE   PATT
  POIN2 Label_0_017EA2BA
 BYTE   PATT
  POIN2 Label_0_017EA2C9
 BYTE   PATT
  POIN2 Label_0_017EA2D8
 BYTE   PATT
  POIN2 Label_0_017EA2E7
 BYTE   PATT
  POIN2 Label_0_017EA2F8
 BYTE   PATT
  POIN2 Label_0_017EA23F
 BYTE   PATT
  POIN2 Label_0_017EA247
 BYTE   PATT
  POIN2 Label_0_017EA254
 BYTE   PATT
  POIN2 Label_0_017EA25F
 BYTE   PATT
  POIN2 Label_0_017EA26A
 BYTE   PATT
  POIN2 Label_0_017EA272
 BYTE   PATT
  POIN2 Label_0_017EA280
 BYTE   PATT
  POIN2 Label_0_017EA28B
 BYTE   PATT
  POIN2 Label_0_017EA297
 BYTE   PATT
  POIN2 Label_0_017EA2A3
 BYTE   PATT
  POIN2 Label_0_017EA2AF
 BYTE   PATT
  POIN2 Label_0_017EA2BA
 BYTE   PATT
  POIN2 Label_0_017EA2C9
 BYTE   PATT
  POIN2 Label_0_017EA2D8
 BYTE   PATT
  POIN2 Label_0_017EA349
 BYTE   PATT
  POIN2 Label_0_017EA35C
 BYTE   PATT
  POIN2 Label_0_017EA368
 BYTE   PATT
  POIN2 Label_0_017EA373
 BYTE   PATT
  POIN2 Label_0_017EA37F
 BYTE   PATT
  POIN2 Label_0_017EA389
 BYTE   PATT
  POIN2 Label_0_017EA393
 BYTE   PATT
  POIN2 Label_0_017EA39E
 BYTE   PATT
  POIN2 Label_0_017EA3A8
// 043   ----------------------------------------
 BYTE   N92  En3  v096
 BYTE   W96
 BYTE   PATT
  POIN2 Label_0_017EA3B6
 BYTE   PATT
  POIN2 Label_0_017EA3C1
// 044   ----------------------------------------
 BYTE   N92  Bn3  v096
 BYTE   W96
// 045   ----------------------------------------
 BYTE   N44  En3
 BYTE   W48
 BYTE   Fs3
 BYTE   W48
 BYTE   PATT
  POIN2 Label_0_017EA3D0
 BYTE   PATT
  POIN2 Label_0_017EA3D8
 BYTE   PATT
  POIN2 Label_0_017EA3E7
 BYTE   PATT
  POIN2 Label_0_017EA2F8
 BYTE   PATT
  POIN2 Label_0_017EA23F
 BYTE   PATT
  POIN2 Label_0_017EA247
 BYTE   PATT
  POIN2 Label_0_017EA254
 BYTE   PATT
  POIN2 Label_0_017EA25F
 BYTE   PATT
  POIN2 Label_0_017EA26A
 BYTE   PATT
  POIN2 Label_0_017EA272
 BYTE   PATT
  POIN2 Label_0_017EA280
 BYTE   PATT
  POIN2 Label_0_017EA28B
 BYTE   PATT
  POIN2 Label_0_017EA297
 BYTE   PATT
  POIN2 Label_0_017EA2A3
 BYTE   PATT
  POIN2 Label_0_017EA2AF
 BYTE   PATT
  POIN2 Label_0_017EA2BA
 BYTE   PATT
  POIN2 Label_0_017EA2C9
 BYTE   PATT
  POIN2 Label_0_017EA2D8
 BYTE   PATT
  POIN2 Label_0_017EA2E7
 BYTE   PATT
  POIN2 Label_0_017EA2F8
 BYTE   PATT
  POIN2 Label_0_017EA23F
 BYTE   PATT
  POIN2 Label_0_017EA247
 BYTE   PATT
  POIN2 Label_0_017EA254
 BYTE   PATT
  POIN2 Label_0_017EA25F
 BYTE   PATT
  POIN2 Label_0_017EA26A
 BYTE   PATT
  POIN2 Label_0_017EA272
 BYTE   PATT
  POIN2 Label_0_017EA280
 BYTE   PATT
  POIN2 Label_0_017EA28B
 BYTE   PATT
  POIN2 Label_0_017EA297
 BYTE   PATT
  POIN2 Label_0_017EA2A3
 BYTE   PATT
  POIN2 Label_0_017EA2AF
 BYTE   PATT
  POIN2 Label_0_017EA2BA
 BYTE   PATT
  POIN2 Label_0_017EA2C9
 BYTE   PATT
  POIN2 Label_0_017EA2D8
 BYTE   PATT
  POIN2 Label_0_017EA349
 BYTE   PATT
  POIN2 Label_0_017EA35C
 BYTE   PATT
  POIN2 Label_0_017EA368
 BYTE   PATT
  POIN2 Label_0_017EA373
 BYTE   PATT
  POIN2 Label_0_017EA37F
 BYTE   PATT
  POIN2 Label_0_017EA389
 BYTE   PATT
  POIN2 Label_0_017EA393
 BYTE   PATT
  POIN2 Label_0_017EA39E
 BYTE   PATT
  POIN2 Label_0_017EA3A8
// 046   ----------------------------------------
 BYTE   N92  En3  v096
 BYTE   W96
 BYTE   PATT
  POIN2 Label_0_017EA3B6
 BYTE   PATT
  POIN2 Label_0_017EA3C1
// 047   ----------------------------------------
 BYTE   N92  Bn3  v096
 BYTE   W96
// 048   ----------------------------------------
 BYTE   N44  En3
 BYTE   W48
 BYTE   Fs3
 BYTE   W48
 BYTE   PATT
  POIN2 Label_0_017EA3D0
 BYTE   PATT
  POIN2 Label_0_017EA3D8
 BYTE   PATT
  POIN2 Label_0_017EA3E7
 BYTE   PATT
  POIN2 Label_0_017EA2F8
 BYTE   PATT
  POIN2 Label_0_017EA23F
 BYTE   PATT
  POIN2 Label_0_017EA247
 BYTE   PATT
  POIN2 Label_0_017EA254
 BYTE   PATT
  POIN2 Label_0_017EA25F
 BYTE   PATT
  POIN2 Label_0_017EA26A
 BYTE   PATT
  POIN2 Label_0_017EA272
 BYTE   PATT
  POIN2 Label_0_017EA280
 BYTE   PATT
  POIN2 Label_0_017EA28B
 BYTE   PATT
  POIN2 Label_0_017EA297
 BYTE   PATT
  POIN2 Label_0_017EA2A3
 BYTE   PATT
  POIN2 Label_0_017EA2AF
 BYTE   PATT
  POIN2 Label_0_017EA2BA
 BYTE   PATT
  POIN2 Label_0_017EA2C9
 BYTE   PATT
  POIN2 Label_0_017EA2D8
 BYTE   PATT
  POIN2 Label_0_017EA2E7
 BYTE   PATT
  POIN2 Label_0_017EA2F8
 BYTE   PATT
  POIN2 Label_0_017EA23F
 BYTE   PATT
  POIN2 Label_0_017EA247
 BYTE   PATT
  POIN2 Label_0_017EA254
 BYTE   PATT
  POIN2 Label_0_017EA25F
 BYTE   PATT
  POIN2 Label_0_017EA26A
 BYTE   PATT
  POIN2 Label_0_017EA272
 BYTE   PATT
  POIN2 Label_0_017EA280
 BYTE   PATT
  POIN2 Label_0_017EA28B
 BYTE   PATT
  POIN2 Label_0_017EA297
 BYTE   PATT
  POIN2 Label_0_017EA2A3
 BYTE   PATT
  POIN2 Label_0_017EA2AF
 BYTE   PATT
  POIN2 Label_0_017EA2BA
 BYTE   PATT
  POIN2 Label_0_017EA2C9
 BYTE   PATT
  POIN2 Label_0_017EA2D8
 BYTE   PATT
  POIN2 Label_0_017EA349
 BYTE   PATT
  POIN2 Label_0_017EA35C
 BYTE   PATT
  POIN2 Label_0_017EA368
 BYTE   PATT
  POIN2 Label_0_017EA373
 BYTE   PATT
  POIN2 Label_0_017EA37F
 BYTE   PATT
  POIN2 Label_0_017EA389
 BYTE   PATT
  POIN2 Label_0_017EA393
 BYTE   PATT
  POIN2 Label_0_017EA39E
 BYTE   PATT
  POIN2 Label_0_017EA3A8
// 049   ----------------------------------------
 BYTE   N92  En3  v096
 BYTE   W96
 BYTE   PATT
  POIN2 Label_0_017EA3B6
 BYTE   PATT
  POIN2 Label_0_017EA3C1
// 050   ----------------------------------------
 BYTE   N92  Bn3  v096
 BYTE   W96
// 051   ----------------------------------------
 BYTE   N44  En3
 BYTE   W48
 BYTE   Fs3
 BYTE   W48
 BYTE   PATT
  POIN2 Label_0_017EA3D0
 BYTE   PATT
  POIN2 Label_0_017EA3D8
 BYTE   PATT
  POIN2 Label_0_017EA3E7
 BYTE   PATT
  POIN2 Label_0_017EA2F8
 BYTE   PATT
  POIN2 Label_0_017EA23F
 BYTE   PATT
  POIN2 Label_0_017EA247
 BYTE   PATT
  POIN2 Label_0_017EA254
 BYTE   PATT
  POIN2 Label_0_017EA25F
 BYTE   PATT
  POIN2 Label_0_017EA26A
 BYTE   PATT
  POIN2 Label_0_017EA272
 BYTE   PATT
  POIN2 Label_0_017EA280
 BYTE   PATT
  POIN2 Label_0_017EA28B
 BYTE   PATT
  POIN2 Label_0_017EA297
 BYTE   PATT
  POIN2 Label_0_017EA2A3
 BYTE   PATT
  POIN2 Label_0_017EA2AF
 BYTE   PATT
  POIN2 Label_0_017EA2BA
 BYTE   PATT
  POIN2 Label_0_017EA2C9
 BYTE   PATT
  POIN2 Label_0_017EA2D8
 BYTE   PATT
  POIN2 Label_0_017EA349
 BYTE   PATT
  POIN2 Label_0_017EA35C
 BYTE   PATT
  POIN2 Label_0_017EA368
 BYTE   PATT
  POIN2 Label_0_017EA373
 BYTE   PATT
  POIN2 Label_0_017EA37F
 BYTE   PATT
  POIN2 Label_0_017EA389
 BYTE   PATT
  POIN2 Label_0_017EA393
 BYTE   PATT
  POIN2 Label_0_017EA39E
 BYTE   PATT
  POIN2 Label_0_017EA3A8
// 052   ----------------------------------------
 BYTE   N92  En3  v096
 BYTE   W96
 BYTE   PATT
  POIN2 Label_0_017EA3B6
 BYTE   PATT
  POIN2 Label_0_017EA3C1
// 053   ----------------------------------------
 BYTE   N92  Bn3  v096
 BYTE   W96
// 054   ----------------------------------------
 BYTE   N44  En3
 BYTE   W48
 BYTE   Fs3
 BYTE   W48
 BYTE   PATT
  POIN2 Label_0_017EA3D0
 BYTE   PATT
  POIN2 Label_0_017EA3D8
// 055   ----------------------------------------
 BYTE   N15  Fs3  v096
 BYTE   W16
 BYTE   Ds3
 BYTE   W16
 BYTE   Fs3
 BYTE   W16
 BYTE   TEMPO   114*RomancingSaga2EndingExtraLong7743_tbs/2
 BYTE   N05  En3
 BYTE   W06
 BYTE   Fs3
 BYTE   W06
 BYTE   Gs3
 BYTE   W06
 BYTE   As3
 BYTE   W06
 BYTE   TEMPO   108*RomancingSaga2EndingExtraLong7743_tbs/2
 BYTE   Bn3
 BYTE   W06
 BYTE   Cs4
 BYTE   W02
 BYTE   TEMPO   104*RomancingSaga2EndingExtraLong7743_tbs/2
 BYTE   W04
 BYTE   Ds4
 BYTE   W04
 BYTE   TEMPO   100*RomancingSaga2EndingExtraLong7743_tbs/2
 BYTE   W02
 BYTE   En4
 BYTE   W06
// 056   ----------------------------------------
 BYTE   TEMPO   88*RomancingSaga2EndingExtraLong7743_tbs/2
 BYTE   TIE  Cn4  v088
 BYTE   W96
// 057   ----------------------------------------
 BYTE   W92
 BYTE   W03
 BYTE   EOT
 BYTE   W01
// 058   ----------------------------------------
 BYTE   N92
 BYTE   W96
// 059   ----------------------------------------
 BYTE   As3
 BYTE   W96
// 060   ----------------------------------------
 BYTE   Gs3
 BYTE   W96
// 061   ----------------------------------------
 BYTE   N44
 BYTE   W48
 BYTE   Gn3
 BYTE   W48
// 062   ----------------------------------------
 BYTE   N56  Ds3
 BYTE   W60
 BYTE   N11  Cs3
 BYTE   W12
 BYTE   Ds3
 BYTE   W12
 BYTE   Fn3
 BYTE   W12
// 063   ----------------------------------------
 BYTE   N44  Fs3
 BYTE   W48
 BYTE   N23  Gs3
 BYTE   W24
 BYTE   Fs3
 BYTE   W24
// 064   ----------------------------------------
 BYTE   N92  Fn3
 BYTE   W96
// 065   ----------------------------------------
 BYTE   En3
 BYTE   W96
// 066   ----------------------------------------
 BYTE   N32
 BYTE   W36
 BYTE   N11  Cs3
 BYTE   W12
 BYTE   TIE  Ds3
 BYTE   W48
// 067   ----------------------------------------
 BYTE   W92
 BYTE   W03
 BYTE   EOT
 BYTE   W01
// 068   ----------------------------------------
 BYTE   N23  Gs3
 BYTE   W24
 BYTE   As3
 BYTE   W24
 BYTE   N32  Cn4
 BYTE   W36
 BYTE   N11  Gs3
 BYTE   W12
// 069   ----------------------------------------
 BYTE   N32  Fn3
 BYTE   W36
 BYTE   N05  Dn3
 BYTE   W06
 BYTE   Fn3
 BYTE   W06
 BYTE   N23  As3
 BYTE   W24
 BYTE   Gs3
 BYTE   W24
// 070   ----------------------------------------
 BYTE   Gn3
 BYTE   W24
 BYTE   Gs3
 BYTE   W24
 BYTE   N32  As3
 BYTE   W36
 BYTE   N11  Fn3
 BYTE   W12
// 071   ----------------------------------------
 BYTE   N32  Ds3
 BYTE   W36
 BYTE   N05  Cn3
 BYTE   W06
 BYTE   Ds3
 BYTE   W06
 BYTE   N23  Gn3
 BYTE   W24
 BYTE   Ds3
 BYTE   W24
// 072   ----------------------------------------
 BYTE   N32  Fn3
 BYTE   W36
 BYTE   N11  Ds3
 BYTE   W12
 BYTE   N23  Cs3
 BYTE   W24
 BYTE   Fn3
 BYTE   W24
// 073   ----------------------------------------
 BYTE   N44
 BYTE   W48
 BYTE   En3
 BYTE   W48
// 074   ----------------------------------------
 BYTE   Cs3
 BYTE   W48
 BYTE   TIE  Cn3
 BYTE   W48
// 075   ----------------------------------------
 BYTE   W92
 BYTE   W03
 BYTE   EOT
 BYTE   W01
// 076   ----------------------------------------
 BYTE   TEMPO   120*RomancingSaga2EndingExtraLong7743_tbs/2
 BYTE   N23  En3  v100
 BYTE   W24
 BYTE   N07
 BYTE   W08
 BYTE   Cs3
 BYTE   W08
 BYTE   En3
 BYTE   W08
 BYTE   N44  Fs3
 BYTE   W48
 BYTE   PATT
  POIN2 Label_0_017EA1E2
// 077   ----------------------------------------
 BYTE   N23  En3  v100
 BYTE   W24
 BYTE   N07
 BYTE   W08
 BYTE   Cs3
 BYTE   W08
 BYTE   En3
 BYTE   W08
 BYTE   N44  Fs3
 BYTE   W48
 BYTE   PATT
  POIN2 Label_0_017EA1E2
// 078   ----------------------------------------
Label_0_017EA905:
 BYTE   N23  Gn3  v100
 BYTE   W24
 BYTE   N07
 BYTE   W08
 BYTE   En3
 BYTE   W08
 BYTE   Gn3
 BYTE   W08
 BYTE   N44  An3
 BYTE   W48
 BYTE   PEND 
 BYTE   PATT
  POIN2 Label_0_017EA20B
 BYTE   PATT
  POIN2 Label_0_017EA905
 BYTE   PATT
  POIN2 Label_0_017EA20B
 BYTE   PATT
  POIN2 Label_0_017EA221
// 079   ----------------------------------------
 BYTE   TEMPO   108*RomancingSaga2EndingExtraLong7743_tbs/2
 BYTE   N23  Gs3  v104
 BYTE   W24
 BYTE   TEMPO   100*RomancingSaga2EndingExtraLong7743_tbs/2
 BYTE   As3
 BYTE   W24
 BYTE   TEMPO   88*RomancingSaga2EndingExtraLong7743_tbs/2
 BYTE   Bn3
 BYTE   W24
 BYTE   TEMPO   80*RomancingSaga2EndingExtraLong7743_tbs/2
 BYTE   Cs4
 BYTE   W24
// 080   ----------------------------------------
 BYTE   TEMPO   120*RomancingSaga2EndingExtraLong7743_tbs/2
 BYTE   Ds4  v096
 BYTE   W24
 BYTE   Bn3
 BYTE   W24
 BYTE   Ds4
 BYTE   W24
 BYTE   Fs4
 BYTE   W24
// 081   ----------------------------------------
Label_0_017EA944:
 BYTE   N44  Fn4  v096
 BYTE   W48
 BYTE   N23  Fs4
 BYTE   W24
 BYTE   Gs4
 BYTE   W24
 BYTE   PEND 
// 082   ----------------------------------------
Label_0_017EA94E:
 BYTE   N23  As4  v096
 BYTE   W24
 BYTE   Gs4
 BYTE   W24
 BYTE   Fs4
 BYTE   W24
 BYTE   En4
 BYTE   W24
 BYTE   PEND 
// 083   ----------------------------------------
Label_0_017EA959:
 BYTE   N44  Ds4  v096
 BYTE   W48
 BYTE   Cs4
 BYTE   W48
 BYTE   PEND 
// 084   ----------------------------------------
 BYTE   N23  As3
 BYTE   W24
 BYTE   Bn3
 BYTE   W24
 BYTE   Ds4
 BYTE   W24
 BYTE   Gs4
 BYTE   W24
// 085   ----------------------------------------
 BYTE   N44  Fs4
 BYTE   W48
 BYTE   Fn4
 BYTE   W48
// 086   ----------------------------------------
 BYTE   N92  Fs4
 BYTE   W96
// 087   ----------------------------------------
 BYTE   W24
 BYTE   N23  As3
 BYTE   W24
 BYTE   Bn3
 BYTE   W24
 BYTE   Cs4
 BYTE   W24
// 088   ----------------------------------------
 BYTE   Ds4
 BYTE   W24
 BYTE   Bn3
 BYTE   W24
 BYTE   Ds4
 BYTE   W24
 BYTE   Fs4
 BYTE   W24
 BYTE   PATT
  POIN2 Label_0_017EA944
 BYTE   PATT
  POIN2 Label_0_017EA94E
 BYTE   PATT
  POIN2 Label_0_017EA959
// 089   ----------------------------------------
 BYTE   N23  Bn3  v096
 BYTE   W24
 BYTE   Cs4
 BYTE   W24
 BYTE   Ds4
 BYTE   W24
 BYTE   Bn3
 BYTE   W24
// 090   ----------------------------------------
 BYTE   N68  Cs4
 BYTE   W72
 BYTE   N23  Ds4
 BYTE   W24
// 091   ----------------------------------------
 BYTE   TIE  Bn3
 BYTE   W96
// 092   ----------------------------------------
 BYTE   W92
 BYTE   W03
 BYTE   EOT
 BYTE   W01
// 093   ----------------------------------------
 BYTE   W96
// 094   ----------------------------------------
 BYTE   W24
 BYTE   N23
 BYTE   W24
 BYTE   Ds4
 BYTE   W24
 BYTE   Fs4
 BYTE   W24
// 095   ----------------------------------------
 BYTE   W96
// 096   ----------------------------------------
 BYTE   W24
 BYTE   N23
 BYTE   W24
 BYTE   Bn4
 BYTE   W24
 BYTE   As4
 BYTE   W24
// 097   ----------------------------------------
 BYTE   Gs4
 BYTE   W24
 BYTE   N07
 BYTE   W08
 BYTE   As4
 BYTE   W08
 BYTE   Bn4
 BYTE   W08
 BYTE   N23  As4
 BYTE   W24
 BYTE   Gs4
 BYTE   W24
// 098   ----------------------------------------
 BYTE   Fs4
 BYTE   W24
 BYTE   N07
 BYTE   W08
 BYTE   Gs4
 BYTE   W08
 BYTE   An4
 BYTE   W08
 BYTE   N23  Gs4
 BYTE   W24
 BYTE   Fs4
 BYTE   W24
// 099   ----------------------------------------
 BYTE   En4
 BYTE   W24
 BYTE   N07
 BYTE   W08
 BYTE   Cs4
 BYTE   W08
 BYTE   En4
 BYTE   W08
 BYTE   N23  Gs4
 BYTE   W24
 BYTE   En4
 BYTE   W24
// 100   ----------------------------------------
 BYTE   N44  Bn4
 BYTE   W48
 BYTE   N23  An4
 BYTE   W24
 BYTE   Gn4
 BYTE   W24
// 101   ----------------------------------------
 BYTE   N92  Fs4
 BYTE   W96
// 102   ----------------------------------------
 BYTE   W24
 BYTE   N23  Cs4
 BYTE   W24
 BYTE   Ds4
 BYTE   W24
 BYTE   En4
 BYTE   W24
// 103   ----------------------------------------
 BYTE   N92  Fs3  v092
 BYTE   W96
// 104   ----------------------------------------
 BYTE   Gs3
 BYTE   W96
// 105   ----------------------------------------
Label_0_017EA9F7:
 BYTE   N44  Cs4  v092
 BYTE   W48
 BYTE   As3
 BYTE   W48
 BYTE   PEND 
// 106   ----------------------------------------
 BYTE   N92  Gn3
 BYTE   W96
// 107   ----------------------------------------
 BYTE   N44  Ds3
 BYTE   W48
 BYTE   N23  Gs3
 BYTE   W24
 BYTE   Bn3
 BYTE   W24
// 108   ----------------------------------------
 BYTE   N92  Gs3
 BYTE   W96
// 109   ----------------------------------------
 BYTE   N44  Bn3
 BYTE   W48
 BYTE   N23  As3
 BYTE   W24
 BYTE   Gs3
 BYTE   W24
// 110   ----------------------------------------
 BYTE   N44  Fs3
 BYTE   W48
 BYTE   N23  En3
 BYTE   W24
 BYTE   Fs3
 BYTE   W24
// 111   ----------------------------------------
 BYTE   N92
 BYTE   W96
// 112   ----------------------------------------
 BYTE   Gs3
 BYTE   W96
 BYTE   PATT
  POIN2 Label_0_017EA9F7
// 113   ----------------------------------------
 BYTE   N92  Gn3  v092
 BYTE   W96
// 114   ----------------------------------------
 BYTE   N44  Ds3
 BYTE   W48
 BYTE   N23  Gs3
 BYTE   W24
 BYTE   Fs3
 BYTE   W24
// 115   ----------------------------------------
 BYTE   TEMPO   108*RomancingSaga2EndingExtraLong7743_tbs/2
 BYTE   N44  En3
 BYTE   W24
 BYTE   TEMPO   100*RomancingSaga2EndingExtraLong7743_tbs/2
 BYTE   W24
 BYTE   TEMPO   88*RomancingSaga2EndingExtraLong7743_tbs/2
 BYTE   Fs3
 BYTE   W24
 BYTE   TEMPO   80*RomancingSaga2EndingExtraLong7743_tbs/2
 BYTE   W24
// 116   ----------------------------------------
 BYTE   TEMPO   94*RomancingSaga2EndingExtraLong7743_tbs/2
 BYTE   N23  Ds3  v100
 BYTE   W24
 BYTE   Bn2
 BYTE   W24
 BYTE   Ds3
 BYTE   W24
 BYTE   Fs3
 BYTE   W24
// 117   ----------------------------------------
 BYTE   Bn3
 BYTE   W24
 BYTE   Fs3
 BYTE   W24
 BYTE   Bn3
 BYTE   W24
 BYTE   Ds4
 BYTE   W24
// 118   ----------------------------------------
 BYTE   N44  Cs4
 BYTE   W48
 BYTE   Gs3
 BYTE   W48
// 119   ----------------------------------------
 BYTE   N68  Cs4
 BYTE   W72
 BYTE   N23  Ds4
 BYTE   W24
// 120   ----------------------------------------
 BYTE   N92  En4
 BYTE   W96
// 121   ----------------------------------------
 BYTE   Bn3
 BYTE   W96
// 122   ----------------------------------------
 BYTE   TIE  As3
 BYTE   W96
// 123   ----------------------------------------
 BYTE   W44
 BYTE   W03
 BYTE   EOT
 BYTE   W01
 BYTE   N44  Bn3
 BYTE   W48
// 124   ----------------------------------------
 BYTE   TEMPO   118*RomancingSaga2EndingExtraLong7743_tbs/2
 BYTE   TIE
 BYTE   W96
// 125   ----------------------------------------
 BYTE   W96
// 126   ----------------------------------------
 BYTE   W96
// 127   ----------------------------------------
 BYTE   W48
 BYTE   TEMPO   98*RomancingSaga2EndingExtraLong7743_tbs/2
 BYTE   W12
 BYTE   TEMPO   78*RomancingSaga2EndingExtraLong7743_tbs/2
 BYTE   W12
 BYTE   TEMPO   58*RomancingSaga2EndingExtraLong7743_tbs/2
 BYTE   W12
 BYTE   TEMPO   38*RomancingSaga2EndingExtraLong7743_tbs/2
 BYTE   W11
 BYTE   EOT
 BYTE   W01
// 128   ----------------------------------------
 BYTE   TEMPO   118*RomancingSaga2EndingExtraLong7743_tbs/2
 BYTE   W96
// 129   ----------------------------------------
 BYTE   N92  Ds3
 BYTE   W96
// 130   ----------------------------------------
 BYTE   TIE
 BYTE   W96
// 131   ----------------------------------------
 BYTE   W92
 BYTE   W03
 BYTE   EOT
 BYTE   FINE

//**************** Track 2 (Midi-Chn.1) ****************//

RomancingSaga2EndingExtraLong7743_002:
// 000   ----------------------------------------
 BYTE   KEYSH   RomancingSaga2EndingExtraLong7743_key+0
 BYTE   VOICE   48
 BYTE   VOL   38*RomancingSaga2EndingExtraLong7743_mvl/mxv
 BYTE   PAN   c_v+0
 BYTE   TIE  Fs1  v092
 BYTE   W96
// 001   ----------------------------------------
 BYTE   W96
// 002   ----------------------------------------
 BYTE   W96
// 003   ----------------------------------------
 BYTE   W92
 BYTE   W03
 BYTE   EOT
 BYTE   W01
// 004   ----------------------------------------
 BYTE   TIE  An1
 BYTE   W96
// 005   ----------------------------------------
 BYTE   W96
// 006   ----------------------------------------
 BYTE   W96
// 007   ----------------------------------------
 BYTE   W44
 BYTE   W03
 BYTE   EOT
 BYTE   W01
 BYTE   N15  An2
 BYTE   W16
 BYTE   Gn2
 BYTE   W16
 BYTE   En2
 BYTE   W16
// 008   ----------------------------------------
 BYTE   N92  Fs1
 BYTE   W96
// 009   ----------------------------------------
Label_1_017EAABD:
 BYTE   N23  En1  v092
 BYTE   W24
 BYTE   Fs1
 BYTE   W24
 BYTE   Gs1
 BYTE   W24
 BYTE   As1
 BYTE   W24
 BYTE   PEND 
// 010   ----------------------------------------
 BYTE   TIE  Bn1
 BYTE   W96
// 011   ----------------------------------------
 BYTE   W96
// 012   ----------------------------------------
 BYTE   W96
// 013   ----------------------------------------
 BYTE   W96
// 014   ----------------------------------------
 BYTE   W96
// 015   ----------------------------------------
 BYTE   W96
// 016   ----------------------------------------
 BYTE   W96
// 017   ----------------------------------------
 BYTE   W92
 BYTE   W03
 BYTE   EOT
 BYTE   W01
// 018   ----------------------------------------
 BYTE   TIE  An1
 BYTE   W96
// 019   ----------------------------------------
 BYTE   W23
 BYTE   EOT
 BYTE   W24
 BYTE   W01
 BYTE   N15  An2
 BYTE   W16
 BYTE   N15
 BYTE   W16
 BYTE   En2
 BYTE   W16
// 020   ----------------------------------------
 BYTE   TIE
 BYTE   W96
// 021   ----------------------------------------
 BYTE   W23
 BYTE   EOT
 BYTE   W24
 BYTE   W01
 BYTE   N15  Gn2
 BYTE   W16
 BYTE   Fs2
 BYTE   W16
 BYTE   En2
 BYTE   W16
// 022   ----------------------------------------
 BYTE   N92  Dn2
 BYTE   W96
// 023   ----------------------------------------
 BYTE   Cn2
 BYTE   W96
// 024   ----------------------------------------
 BYTE   Bn1
 BYTE   W96
// 025   ----------------------------------------
Label_1_017EAAF7:
 BYTE   N23  Fs1  v092
 BYTE   W24
 BYTE   Fs2
 BYTE   W24
 BYTE   N15  En2
 BYTE   W16
 BYTE   Ds2
 BYTE   W16
 BYTE   Cs2
 BYTE   W16
 BYTE   PEND 
// 026   ----------------------------------------
 BYTE   TIE  Bn1
 BYTE   W96
// 027   ----------------------------------------
 BYTE   W96
// 028   ----------------------------------------
 BYTE   W96
// 029   ----------------------------------------
 BYTE   W96
// 030   ----------------------------------------
 BYTE   W96
// 031   ----------------------------------------
 BYTE   W96
// 032   ----------------------------------------
 BYTE   W96
// 033   ----------------------------------------
 BYTE   W92
 BYTE   W03
 BYTE   EOT
 BYTE   W01
// 034   ----------------------------------------
 BYTE   TIE  An1
 BYTE   W96
// 035   ----------------------------------------
 BYTE   W23
 BYTE   EOT
 BYTE   W24
 BYTE   W01
 BYTE   N15  An2
 BYTE   W16
 BYTE   N15
 BYTE   W16
 BYTE   En2
 BYTE   W16
// 036   ----------------------------------------
 BYTE   TIE
 BYTE   W96
// 037   ----------------------------------------
 BYTE   W23
 BYTE   EOT
 BYTE   W24
 BYTE   W01
 BYTE   N15  Gn2
 BYTE   W16
 BYTE   Fs2
 BYTE   W16
 BYTE   En2
 BYTE   W16
// 038   ----------------------------------------
 BYTE   N92  Dn2
 BYTE   W96
// 039   ----------------------------------------
 BYTE   Cn2
 BYTE   W96
// 040   ----------------------------------------
 BYTE   Bn1
 BYTE   W96
// 041   ----------------------------------------
Label_1_017EAB34:
 BYTE   N44  Fs1  v092
 BYTE   W48
 BYTE   Bn1
 BYTE   W48
 BYTE   PEND 
// 042   ----------------------------------------
 BYTE   N92  En1
 BYTE   W96
// 043   ----------------------------------------
 BYTE   Fs1
 BYTE   W96
// 044   ----------------------------------------
 BYTE   Bn1
 BYTE   W96
// 045   ----------------------------------------
 BYTE   Gs1
 BYTE   W96
// 046   ----------------------------------------
 BYTE   Cs2
 BYTE   W96
// 047   ----------------------------------------
 BYTE   Fs1
 BYTE   W96
// 048   ----------------------------------------
 BYTE   TIE  Gs1
 BYTE   W96
// 049   ----------------------------------------
 BYTE   W23
 BYTE   EOT
 BYTE   W01
 BYTE   N23  Bn1
 BYTE   W24
 BYTE   As1
 BYTE   W24
 BYTE   An1
 BYTE   W24
// 050   ----------------------------------------
 BYTE   N92  Cs2
 BYTE   W96
// 051   ----------------------------------------
Label_1_017EAB58:
 BYTE   N23  Bn1  v092
 BYTE   W24
 BYTE   Ds2
 BYTE   W24
 BYTE   En1
 BYTE   W24
 BYTE   Fs1
 BYTE   W24
 BYTE   PEND 
// 052   ----------------------------------------
Label_1_017EAB63:
 BYTE   N44  Gs2  v092
 BYTE   W48
 BYTE   Gn2
 BYTE   W48
 BYTE   PEND 
// 053   ----------------------------------------
 BYTE   N68  Fn2
 BYTE   W96
// 054   ----------------------------------------
Label_1_017EAB6D:
 BYTE   N44  Cs2  v092
 BYTE   W48
 BYTE   Ds2
 BYTE   W48
 BYTE   PEND 
// 055   ----------------------------------------
Label_1_017EAB74:
 BYTE   N44  En2  v092
 BYTE   W48
 BYTE   N23  Fn2
 BYTE   W24
 BYTE   Fn1
 BYTE   W24
 BYTE   PEND 
// 056   ----------------------------------------
Label_1_017EAB7E:
 BYTE   N15  Fs2  v092
 BYTE   W16
 BYTE   Cs2
 BYTE   W16
 BYTE   Fs2
 BYTE   W16
 BYTE   En2
 BYTE   W16
 BYTE   Bn1
 BYTE   W16
 BYTE   En2
 BYTE   W16
 BYTE   PEND 
// 057   ----------------------------------------
Label_1_017EAB8D:
 BYTE   N15  Ds2  v092
 BYTE   W16
 BYTE   As1
 BYTE   W16
 BYTE   Ds2
 BYTE   W16
 BYTE   N44  Cs2
 BYTE   W48
 BYTE   PEND 
// 058   ----------------------------------------
 BYTE   TIE  Bn1
 BYTE   W96
// 059   ----------------------------------------
 BYTE   W96
// 060   ----------------------------------------
 BYTE   W96
// 061   ----------------------------------------
 BYTE   W96
// 062   ----------------------------------------
 BYTE   W96
// 063   ----------------------------------------
 BYTE   W96
// 064   ----------------------------------------
 BYTE   W96
// 065   ----------------------------------------
 BYTE   W92
 BYTE   W03
 BYTE   EOT
 BYTE   W01
// 066   ----------------------------------------
 BYTE   TIE  An1
 BYTE   W96
// 067   ----------------------------------------
 BYTE   W23
 BYTE   EOT
 BYTE   W24
 BYTE   W01
 BYTE   N15  An2
 BYTE   W16
 BYTE   N15
 BYTE   W16
 BYTE   En2
 BYTE   W16
// 068   ----------------------------------------
 BYTE   TIE
 BYTE   W96
// 069   ----------------------------------------
 BYTE   W23
 BYTE   EOT
 BYTE   W24
 BYTE   W01
 BYTE   N15  Gn2
 BYTE   W16
 BYTE   Fs2
 BYTE   W16
 BYTE   En2
 BYTE   W16
// 070   ----------------------------------------
 BYTE   N92  Dn2
 BYTE   W96
// 071   ----------------------------------------
 BYTE   Cn2
 BYTE   W96
// 072   ----------------------------------------
 BYTE   Bn1
 BYTE   W96
 BYTE   PATT
  POIN2 Label_1_017EAAF7
// 073   ----------------------------------------
 BYTE   TIE  Bn1  v092
 BYTE   W96
// 074   ----------------------------------------
 BYTE   W96
// 075   ----------------------------------------
 BYTE   W96
// 076   ----------------------------------------
 BYTE   W96
// 077   ----------------------------------------
 BYTE   W96
// 078   ----------------------------------------
 BYTE   W96
// 079   ----------------------------------------
 BYTE   W96
// 080   ----------------------------------------
 BYTE   W92
 BYTE   W03
 BYTE   EOT
 BYTE   W01
// 081   ----------------------------------------
 BYTE   TIE  An1
 BYTE   W96
// 082   ----------------------------------------
 BYTE   W23
 BYTE   EOT
 BYTE   W24
 BYTE   W01
 BYTE   N15  An2
 BYTE   W16
 BYTE   N15
 BYTE   W16
 BYTE   En2
 BYTE   W16
// 083   ----------------------------------------
 BYTE   TIE
 BYTE   W96
// 084   ----------------------------------------
 BYTE   W23
 BYTE   EOT
 BYTE   W24
 BYTE   W01
 BYTE   N15  Gn2
 BYTE   W16
 BYTE   Fs2
 BYTE   W16
 BYTE   En2
 BYTE   W16
// 085   ----------------------------------------
 BYTE   N92  Dn2
 BYTE   W96
// 086   ----------------------------------------
 BYTE   Cn2
 BYTE   W96
// 087   ----------------------------------------
 BYTE   Bn1
 BYTE   W96
 BYTE   PATT
  POIN2 Label_1_017EAB34
// 088   ----------------------------------------
 BYTE   N92  En1  v092
 BYTE   W96
// 089   ----------------------------------------
 BYTE   Fs1
 BYTE   W96
// 090   ----------------------------------------
 BYTE   Bn1
 BYTE   W96
// 091   ----------------------------------------
 BYTE   Gs1
 BYTE   W96
// 092   ----------------------------------------
 BYTE   Cs2
 BYTE   W96
// 093   ----------------------------------------
 BYTE   Fs1
 BYTE   W96
// 094   ----------------------------------------
 BYTE   TIE  Gs1
 BYTE   W96
// 095   ----------------------------------------
 BYTE   W23
 BYTE   EOT
 BYTE   W01
 BYTE   N23  Bn1
 BYTE   W24
 BYTE   As1
 BYTE   W24
 BYTE   An1
 BYTE   W24
// 096   ----------------------------------------
 BYTE   N92  Cs2
 BYTE   W96
 BYTE   PATT
  POIN2 Label_1_017EAB58
 BYTE   PATT
  POIN2 Label_1_017EAB63
// 097   ----------------------------------------
 BYTE   N68  Fn2  v092
 BYTE   W96
// 098   ----------------------------------------
 BYTE   TIE  Bn1
 BYTE   W96
// 099   ----------------------------------------
 BYTE   W96
// 100   ----------------------------------------
 BYTE   W96
// 101   ----------------------------------------
 BYTE   W96
// 102   ----------------------------------------
 BYTE   W96
// 103   ----------------------------------------
 BYTE   W96
// 104   ----------------------------------------
 BYTE   W96
// 105   ----------------------------------------
 BYTE   W92
 BYTE   W03
 BYTE   EOT
 BYTE   W01
// 106   ----------------------------------------
 BYTE   TIE  An1
 BYTE   W96
// 107   ----------------------------------------
 BYTE   W23
 BYTE   EOT
 BYTE   W24
 BYTE   W01
 BYTE   N15  An2
 BYTE   W16
 BYTE   N15
 BYTE   W16
 BYTE   En2
 BYTE   W16
// 108   ----------------------------------------
 BYTE   TIE
 BYTE   W96
// 109   ----------------------------------------
 BYTE   W23
 BYTE   EOT
 BYTE   W24
 BYTE   W01
 BYTE   N15  Gn2
 BYTE   W16
 BYTE   Fs2
 BYTE   W16
 BYTE   En2
 BYTE   W16
// 110   ----------------------------------------
 BYTE   N92  Dn2
 BYTE   W96
// 111   ----------------------------------------
 BYTE   Cn2
 BYTE   W96
// 112   ----------------------------------------
 BYTE   Bn1
 BYTE   W96
 BYTE   PATT
  POIN2 Label_1_017EAAF7
// 113   ----------------------------------------
 BYTE   TIE  Bn1  v092
 BYTE   W96
// 114   ----------------------------------------
 BYTE   W96
// 115   ----------------------------------------
 BYTE   W96
// 116   ----------------------------------------
 BYTE   W96
// 117   ----------------------------------------
 BYTE   W96
// 118   ----------------------------------------
 BYTE   W96
// 119   ----------------------------------------
 BYTE   W96
// 120   ----------------------------------------
 BYTE   W92
 BYTE   W03
 BYTE   EOT
 BYTE   W01
// 121   ----------------------------------------
 BYTE   TIE  An1
 BYTE   W96
// 122   ----------------------------------------
 BYTE   W23
 BYTE   EOT
 BYTE   W24
 BYTE   W01
 BYTE   N15  An2
 BYTE   W16
 BYTE   N15
 BYTE   W16
 BYTE   En2
 BYTE   W16
// 123   ----------------------------------------
 BYTE   TIE
 BYTE   W96
// 124   ----------------------------------------
 BYTE   W23
 BYTE   EOT
 BYTE   W24
 BYTE   W01
 BYTE   N15  Gn2
 BYTE   W16
 BYTE   Fs2
 BYTE   W16
 BYTE   En2
 BYTE   W16
// 125   ----------------------------------------
 BYTE   N92  Dn2
 BYTE   W96
// 126   ----------------------------------------
 BYTE   Cn2
 BYTE   W96
// 127   ----------------------------------------
 BYTE   Bn1
 BYTE   W96
 BYTE   PATT
  POIN2 Label_1_017EAB34
// 128   ----------------------------------------
 BYTE   N92  En1  v092
 BYTE   W96
// 129   ----------------------------------------
 BYTE   Fs1
 BYTE   W96
// 130   ----------------------------------------
 BYTE   Bn1
 BYTE   W96
// 131   ----------------------------------------
 BYTE   Gs1
 BYTE   W96
// 132   ----------------------------------------
 BYTE   Cs2
 BYTE   W96
// 133   ----------------------------------------
 BYTE   Fs1
 BYTE   W96
// 134   ----------------------------------------
 BYTE   TIE  Gs1
 BYTE   W96
// 135   ----------------------------------------
 BYTE   W23
 BYTE   EOT
 BYTE   W01
 BYTE   N23  Bn1
 BYTE   W24
 BYTE   As1
 BYTE   W24
 BYTE   An1
 BYTE   W24
// 136   ----------------------------------------
 BYTE   N92  Cs2
 BYTE   W96
 BYTE   PATT
  POIN2 Label_1_017EAB58
 BYTE   PATT
  POIN2 Label_1_017EAB63
// 137   ----------------------------------------
 BYTE   N68  Fn2  v092
 BYTE   W96
 BYTE   PATT
  POIN2 Label_1_017EAB6D
 BYTE   PATT
  POIN2 Label_1_017EAB74
 BYTE   PATT
  POIN2 Label_1_017EAB7E
 BYTE   PATT
  POIN2 Label_1_017EAB8D
// 138   ----------------------------------------
 BYTE   TIE  Bn1  v092
 BYTE   W96
// 139   ----------------------------------------
 BYTE   W96
// 140   ----------------------------------------
 BYTE   W96
// 141   ----------------------------------------
 BYTE   W96
// 142   ----------------------------------------
 BYTE   W96
// 143   ----------------------------------------
 BYTE   W96
// 144   ----------------------------------------
 BYTE   W96
// 145   ----------------------------------------
 BYTE   W92
 BYTE   W03
 BYTE   EOT
 BYTE   W01
// 146   ----------------------------------------
 BYTE   TIE  An1
 BYTE   W96
// 147   ----------------------------------------
 BYTE   W23
 BYTE   EOT
 BYTE   W24
 BYTE   W01
 BYTE   N15  An2
 BYTE   W16
 BYTE   N15
 BYTE   W16
 BYTE   En2
 BYTE   W16
// 148   ----------------------------------------
 BYTE   TIE
 BYTE   W96
// 149   ----------------------------------------
 BYTE   W23
 BYTE   EOT
 BYTE   W24
 BYTE   W01
 BYTE   N15  Gn2
 BYTE   W16
 BYTE   Fs2
 BYTE   W16
 BYTE   En2
 BYTE   W16
// 150   ----------------------------------------
 BYTE   N92  Dn2
 BYTE   W96
// 151   ----------------------------------------
 BYTE   Cn2
 BYTE   W96
// 152   ----------------------------------------
 BYTE   Bn1
 BYTE   W96
 BYTE   PATT
  POIN2 Label_1_017EAAF7
// 153   ----------------------------------------
 BYTE   TIE  Bn1  v092
 BYTE   W96
// 154   ----------------------------------------
 BYTE   W96
// 155   ----------------------------------------
 BYTE   W96
// 156   ----------------------------------------
 BYTE   W96
// 157   ----------------------------------------
 BYTE   W96
// 158   ----------------------------------------
 BYTE   W96
// 159   ----------------------------------------
 BYTE   W96
// 160   ----------------------------------------
 BYTE   W92
 BYTE   W03
 BYTE   EOT
 BYTE   W01
// 161   ----------------------------------------
 BYTE   TIE  An1
 BYTE   W96
// 162   ----------------------------------------
 BYTE   W23
 BYTE   EOT
 BYTE   W24
 BYTE   W01
 BYTE   N15  An2
 BYTE   W16
 BYTE   N15
 BYTE   W16
 BYTE   En2
 BYTE   W16
// 163   ----------------------------------------
 BYTE   TIE
 BYTE   W96
// 164   ----------------------------------------
 BYTE   W23
 BYTE   EOT
 BYTE   W24
 BYTE   W01
 BYTE   N15  Gn2
 BYTE   W16
 BYTE   Fs2
 BYTE   W16
 BYTE   En2
 BYTE   W16
// 165   ----------------------------------------
 BYTE   N92  Dn2
 BYTE   W96
// 166   ----------------------------------------
 BYTE   Cn2
 BYTE   W96
// 167   ----------------------------------------
 BYTE   Bn1
 BYTE   W96
 BYTE   PATT
  POIN2 Label_1_017EAB34
// 168   ----------------------------------------
 BYTE   N92  En1  v092
 BYTE   W96
// 169   ----------------------------------------
 BYTE   Fs1
 BYTE   W96
// 170   ----------------------------------------
 BYTE   Bn1
 BYTE   W96
// 171   ----------------------------------------
 BYTE   Gs1
 BYTE   W96
// 172   ----------------------------------------
 BYTE   Cs2
 BYTE   W96
// 173   ----------------------------------------
 BYTE   Fs1
 BYTE   W96
// 174   ----------------------------------------
 BYTE   TIE  Gs1
 BYTE   W96
// 175   ----------------------------------------
 BYTE   W23
 BYTE   EOT
 BYTE   W01
 BYTE   N23  Bn1
 BYTE   W24
 BYTE   As1
 BYTE   W24
 BYTE   An1
 BYTE   W24
// 176   ----------------------------------------
 BYTE   N92  Cs2
 BYTE   W96
 BYTE   PATT
  POIN2 Label_1_017EAB58
 BYTE   PATT
  POIN2 Label_1_017EAB63
// 177   ----------------------------------------
 BYTE   N68  Fn2  v092
 BYTE   W96
 BYTE   PATT
  POIN2 Label_1_017EAB6D
 BYTE   PATT
  POIN2 Label_1_017EAB74
 BYTE   PATT
  POIN2 Label_1_017EAB7E
 BYTE   PATT
  POIN2 Label_1_017EAB8D
// 178   ----------------------------------------
 BYTE   TIE  Bn1  v092
 BYTE   W96
// 179   ----------------------------------------
 BYTE   W96
// 180   ----------------------------------------
 BYTE   W96
// 181   ----------------------------------------
 BYTE   W96
// 182   ----------------------------------------
 BYTE   W96
// 183   ----------------------------------------
 BYTE   W96
// 184   ----------------------------------------
 BYTE   W96
// 185   ----------------------------------------
 BYTE   W92
 BYTE   W03
 BYTE   EOT
 BYTE   W01
// 186   ----------------------------------------
 BYTE   TIE  An1
 BYTE   W96
// 187   ----------------------------------------
 BYTE   W23
 BYTE   EOT
 BYTE   W24
 BYTE   W01
 BYTE   N15  An2
 BYTE   W16
 BYTE   N15
 BYTE   W16
 BYTE   En2
 BYTE   W16
// 188   ----------------------------------------
 BYTE   TIE
 BYTE   W96
// 189   ----------------------------------------
 BYTE   W23
 BYTE   EOT
 BYTE   W24
 BYTE   W01
 BYTE   N15  Gn2
 BYTE   W16
 BYTE   Fs2
 BYTE   W16
 BYTE   En2
 BYTE   W16
// 190   ----------------------------------------
 BYTE   N92  Dn2
 BYTE   W96
// 191   ----------------------------------------
 BYTE   Cn2
 BYTE   W96
// 192   ----------------------------------------
 BYTE   Bn1
 BYTE   W96
 BYTE   PATT
  POIN2 Label_1_017EAAF7
// 193   ----------------------------------------
 BYTE   TIE  Bn1  v092
 BYTE   W96
// 194   ----------------------------------------
 BYTE   W96
// 195   ----------------------------------------
 BYTE   W96
// 196   ----------------------------------------
 BYTE   W96
// 197   ----------------------------------------
 BYTE   W96
// 198   ----------------------------------------
 BYTE   W96
// 199   ----------------------------------------
 BYTE   W96
// 200   ----------------------------------------
 BYTE   W92
 BYTE   W03
 BYTE   EOT
 BYTE   W01
// 201   ----------------------------------------
 BYTE   TIE  An1
 BYTE   W96
// 202   ----------------------------------------
 BYTE   W23
 BYTE   EOT
 BYTE   W24
 BYTE   W01
 BYTE   N15  An2
 BYTE   W16
 BYTE   N15
 BYTE   W16
 BYTE   En2
 BYTE   W16
// 203   ----------------------------------------
 BYTE   TIE
 BYTE   W96
// 204   ----------------------------------------
 BYTE   W23
 BYTE   EOT
 BYTE   W24
 BYTE   W01
 BYTE   N15  Gn2
 BYTE   W16
 BYTE   Fs2
 BYTE   W16
 BYTE   En2
 BYTE   W16
// 205   ----------------------------------------
 BYTE   N92  Dn2
 BYTE   W96
// 206   ----------------------------------------
 BYTE   Cn2
 BYTE   W96
// 207   ----------------------------------------
 BYTE   Bn1
 BYTE   W96
 BYTE   PATT
  POIN2 Label_1_017EAB34
// 208   ----------------------------------------
 BYTE   N92  En1  v092
 BYTE   W96
// 209   ----------------------------------------
 BYTE   Fs1
 BYTE   W96
// 210   ----------------------------------------
 BYTE   Bn1
 BYTE   W96
// 211   ----------------------------------------
 BYTE   Gs1
 BYTE   W96
// 212   ----------------------------------------
 BYTE   Cs2
 BYTE   W96
// 213   ----------------------------------------
 BYTE   Fs1
 BYTE   W96
// 214   ----------------------------------------
 BYTE   TIE  Gs1
 BYTE   W96
// 215   ----------------------------------------
 BYTE   W23
 BYTE   EOT
 BYTE   W01
 BYTE   N23  Bn1
 BYTE   W24
 BYTE   As1
 BYTE   W24
 BYTE   An1
 BYTE   W24
// 216   ----------------------------------------
 BYTE   N92  Cs2
 BYTE   W96
 BYTE   PATT
  POIN2 Label_1_017EAB58
 BYTE   PATT
  POIN2 Label_1_017EAB63
// 217   ----------------------------------------
 BYTE   N68  Fn2  v092
 BYTE   W96
 BYTE   PATT
  POIN2 Label_1_017EAB6D
 BYTE   PATT
  POIN2 Label_1_017EAB74
 BYTE   PATT
  POIN2 Label_1_017EAB7E
 BYTE   PATT
  POIN2 Label_1_017EAB8D
// 218   ----------------------------------------
 BYTE   TIE  Bn1  v092
 BYTE   W96
// 219   ----------------------------------------
 BYTE   W96
// 220   ----------------------------------------
 BYTE   W96
// 221   ----------------------------------------
 BYTE   W96
// 222   ----------------------------------------
 BYTE   W96
// 223   ----------------------------------------
 BYTE   W96
// 224   ----------------------------------------
 BYTE   W96
// 225   ----------------------------------------
 BYTE   W92
 BYTE   W03
 BYTE   EOT
 BYTE   W01
// 226   ----------------------------------------
 BYTE   TIE  An1
 BYTE   W96
// 227   ----------------------------------------
 BYTE   W23
 BYTE   EOT
 BYTE   W24
 BYTE   W01
 BYTE   N15  An2
 BYTE   W16
 BYTE   N15
 BYTE   W16
 BYTE   En2
 BYTE   W16
// 228   ----------------------------------------
 BYTE   TIE
 BYTE   W96
// 229   ----------------------------------------
 BYTE   W23
 BYTE   EOT
 BYTE   W24
 BYTE   W01
 BYTE   N15  Gn2
 BYTE   W16
 BYTE   Fs2
 BYTE   W16
 BYTE   En2
 BYTE   W16
// 230   ----------------------------------------
 BYTE   N92  Dn2
 BYTE   W96
// 231   ----------------------------------------
 BYTE   Cn2
 BYTE   W96
// 232   ----------------------------------------
 BYTE   Bn1
 BYTE   W96
 BYTE   PATT
  POIN2 Label_1_017EAB34
// 233   ----------------------------------------
 BYTE   N92  En1  v092
 BYTE   W96
// 234   ----------------------------------------
 BYTE   Fs1
 BYTE   W96
// 235   ----------------------------------------
 BYTE   Bn1
 BYTE   W96
// 236   ----------------------------------------
 BYTE   Gs1
 BYTE   W96
// 237   ----------------------------------------
 BYTE   Cs2
 BYTE   W96
// 238   ----------------------------------------
 BYTE   Fs1
 BYTE   W96
// 239   ----------------------------------------
 BYTE   TIE  Gs1
 BYTE   W96
// 240   ----------------------------------------
 BYTE   W23
 BYTE   EOT
 BYTE   W01
 BYTE   N23  Bn1
 BYTE   W24
 BYTE   As1
 BYTE   W24
 BYTE   An1
 BYTE   W24
// 241   ----------------------------------------
 BYTE   N92  Cs2
 BYTE   W96
 BYTE   PATT
  POIN2 Label_1_017EAB58
 BYTE   PATT
  POIN2 Label_1_017EAB63
// 242   ----------------------------------------
 BYTE   N68  Fn2  v092
 BYTE   W96
 BYTE   PATT
  POIN2 Label_1_017EAB6D
 BYTE   PATT
  POIN2 Label_1_017EAB74
 BYTE   PATT
  POIN2 Label_1_017EAB7E
 BYTE   PATT
  POIN2 Label_1_017EAB8D
// 243   ----------------------------------------
 BYTE   N92  Gs1  v092
 BYTE   W96
// 244   ----------------------------------------
 BYTE   Fs2
 BYTE   W96
// 245   ----------------------------------------
 BYTE   TIE  Cs2
 BYTE   W96
// 246   ----------------------------------------
 BYTE   W92
 BYTE   W03
 BYTE   EOT
 BYTE   W01
// 247   ----------------------------------------
 BYTE   N92  Cn2
 BYTE   W96
// 248   ----------------------------------------
 BYTE   N44  As1
 BYTE   W48
 BYTE   Ds2
 BYTE   W48
// 249   ----------------------------------------
 BYTE   N92  Gs1
 BYTE   W96
// 250   ----------------------------------------
 BYTE   Fs1
 BYTE   W96
// 251   ----------------------------------------
 BYTE   TIE  Cs2
 BYTE   W96
// 252   ----------------------------------------
 BYTE   W92
 BYTE   W03
 BYTE   EOT
 BYTE   W01
// 253   ----------------------------------------
 BYTE   TIE  Gs1
 BYTE   W96
// 254   ----------------------------------------
 BYTE   W44
 BYTE   W03
 BYTE   EOT
 BYTE   W01
 BYTE   N44  Gn1
 BYTE   W48
// 255   ----------------------------------------
 BYTE   N92  Fn1
 BYTE   W96
// 256   ----------------------------------------
 BYTE   N68  As1
 BYTE   W72
 BYTE   N23  Fn2
 BYTE   W24
// 257   ----------------------------------------
 BYTE   N92  Ds2
 BYTE   W96
// 258   ----------------------------------------
 BYTE   Gs1
 BYTE   W96
// 259   ----------------------------------------
 BYTE   Fs1
 BYTE   W96
// 260   ----------------------------------------
 BYTE   Cs2
 BYTE   W96
// 261   ----------------------------------------
 BYTE   TIE  Gs1
 BYTE   W96
// 262   ----------------------------------------
 BYTE   W92
 BYTE   W03
 BYTE   EOT
 BYTE   W01
// 263   ----------------------------------------
 BYTE   TIE  Fs1
 BYTE   W96
// 264   ----------------------------------------
 BYTE   W96
// 265   ----------------------------------------
 BYTE   W96
// 266   ----------------------------------------
 BYTE   W92
 BYTE   W03
 BYTE   EOT
 BYTE   W01
// 267   ----------------------------------------
 BYTE   TIE  An1
 BYTE   W96
// 268   ----------------------------------------
 BYTE   W96
// 269   ----------------------------------------
 BYTE   W96
// 270   ----------------------------------------
 BYTE   W44
 BYTE   W03
 BYTE   EOT
 BYTE   W01
 BYTE   N15  An2
 BYTE   W16
 BYTE   Gn2
 BYTE   W16
 BYTE   En2
 BYTE   W16
// 271   ----------------------------------------
 BYTE   N92  Fs1
 BYTE   W96
 BYTE   PATT
  POIN2 Label_1_017EAABD
// 272   ----------------------------------------
 BYTE   N92  Bn1  v092
 BYTE   W96
// 273   ----------------------------------------
 BYTE   N92
 BYTE   W96
// 274   ----------------------------------------
Label_1_017EAF0B:
 BYTE   N44  Fs1  v092
 BYTE   W48
 BYTE   Fs2
 BYTE   W48
 BYTE   PEND 
// 275   ----------------------------------------
Label_1_017EAF12:
 BYTE   N56  Ds2  v092
 BYTE   W60
 BYTE   N11  Cs2
 BYTE   W12
 BYTE   Bn1
 BYTE   W12
 BYTE   As1
 BYTE   W12
 BYTE   PEND 
// 276   ----------------------------------------
 BYTE   N92  Gs1
 BYTE   W96
// 277   ----------------------------------------
 BYTE   Cs2
 BYTE   W96
// 278   ----------------------------------------
 BYTE   TIE  Fs2
 BYTE   W96
// 279   ----------------------------------------
 BYTE   W44
 BYTE   W03
 BYTE   EOT
 BYTE   W01
 BYTE   N23  Gs2
 BYTE   W24
 BYTE   As2
 BYTE   W24
// 280   ----------------------------------------
 BYTE   N92  Bn1
 BYTE   W96
// 281   ----------------------------------------
 BYTE   N92
 BYTE   W96
 BYTE   PATT
  POIN2 Label_1_017EAF0B
// 282   ----------------------------------------
Label_1_017EAF39:
 BYTE   N44  Ds2  v092
 BYTE   W48
 BYTE   As1
 BYTE   W48
 BYTE   PEND 
// 283   ----------------------------------------
 BYTE   W96
// 284   ----------------------------------------
Label_1_017EAF41:
 BYTE   W24
 BYTE   N23  Cs2  v092
 BYTE   W24
 BYTE   N44  Fs1
 BYTE   W48
 BYTE   PEND 
// 285   ----------------------------------------
 BYTE   TIE  Bn1
 BYTE   W96
// 286   ----------------------------------------
 BYTE   W92
 BYTE   W03
 BYTE   EOT
 BYTE   W01
// 287   ----------------------------------------
Label_1_017EAF51:
 BYTE   N44  Gn1  v092
 BYTE   W48
 BYTE   An1
 BYTE   W48
 BYTE   PEND 
// 288   ----------------------------------------
 BYTE   N92  Bn1
 BYTE   W96
 BYTE   PATT
  POIN2 Label_1_017EAF51
// 289   ----------------------------------------
 BYTE   N92  Bn1  v092
 BYTE   W96
// 290   ----------------------------------------
 BYTE   N44  Gs1
 BYTE   W48
 BYTE   N23  As1
 BYTE   W24
 BYTE   Cs2
 BYTE   W24
// 291   ----------------------------------------
 BYTE   N44  Ds2
 BYTE   W48
 BYTE   N23  Gs1
 BYTE   W24
 BYTE   Bn1
 BYTE   W24
// 292   ----------------------------------------
 BYTE   N92  Cs2
 BYTE   W96
// 293   ----------------------------------------
 BYTE   N23  En2
 BYTE   W24
 BYTE   N68  En1
 BYTE   W72
// 294   ----------------------------------------
 BYTE   N92  Fs1
 BYTE   W96
// 295   ----------------------------------------
 BYTE   W24
 BYTE   N23
 BYTE   W24
 BYTE   En1
 BYTE   W24
 BYTE   Fs1
 BYTE   W24
// 296   ----------------------------------------
 BYTE   N92  Bn1
 BYTE   W96
// 297   ----------------------------------------
 BYTE   N92
 BYTE   W96
 BYTE   PATT
  POIN2 Label_1_017EAF0B
 BYTE   PATT
  POIN2 Label_1_017EAF12
// 298   ----------------------------------------
 BYTE   N92  Gs1  v092
 BYTE   W96
// 299   ----------------------------------------
 BYTE   Cs2
 BYTE   W96
// 300   ----------------------------------------
 BYTE   TIE  Fs2
 BYTE   W96
// 301   ----------------------------------------
 BYTE   W44
 BYTE   W03
 BYTE   EOT
 BYTE   W01
 BYTE   N23  Gs2
 BYTE   W24
 BYTE   As2
 BYTE   W24
// 302   ----------------------------------------
 BYTE   N92  Bn1
 BYTE   W96
// 303   ----------------------------------------
 BYTE   N92
 BYTE   W96
 BYTE   PATT
  POIN2 Label_1_017EAF0B
 BYTE   PATT
  POIN2 Label_1_017EAF39
// 304   ----------------------------------------
 BYTE   W96
 BYTE   PATT
  POIN2 Label_1_017EAF41
// 305   ----------------------------------------
 BYTE   TIE  Bn1  v096
 BYTE   W96
// 306   ----------------------------------------
 BYTE   W96
// 307   ----------------------------------------
 BYTE   W96
// 308   ----------------------------------------
 BYTE   W96
// 309   ----------------------------------------
 BYTE   W96
// 310   ----------------------------------------
 BYTE   W92
 BYTE   W03
 BYTE   EOT
 BYTE   W01
// 311   ----------------------------------------
 BYTE   TIE  Fs1
 BYTE   W96
// 312   ----------------------------------------
 BYTE   W92
 BYTE   W03
 BYTE   EOT
 BYTE   W01
// 313   ----------------------------------------
Label_1_017EAFD0:
 BYTE   N10  Bn2  v100
 BYTE   W12
 BYTE   As2
 BYTE   W12
 BYTE   Gs2
 BYTE   W12
 BYTE   Fs2
 BYTE   W12
 BYTE   Bn2
 BYTE   W12
 BYTE   As2
 BYTE   W12
 BYTE   Gs2
 BYTE   W12
 BYTE   Fs2
 BYTE   W12
 BYTE   PEND 
 BYTE   PATT
  POIN2 Label_1_017EAFD0
 BYTE   PATT
  POIN2 Label_1_017EAFD0
 BYTE   PATT
  POIN2 Label_1_017EAFD0
// 314   ----------------------------------------
 BYTE   N92  Bn1  v096
 BYTE   W96
// 315   ----------------------------------------
 BYTE   Bn0
 BYTE   W96
// 316   ----------------------------------------
 BYTE   TIE
 BYTE   W96
// 317   ----------------------------------------
 BYTE   W92
 BYTE   W03
 BYTE   EOT
 BYTE   FINE

//**************** Track 3 (Midi-Chn.2) ****************//

RomancingSaga2EndingExtraLong7743_003:
// 000   ----------------------------------------
 BYTE   KEYSH   RomancingSaga2EndingExtraLong7743_key+0
 BYTE   VOICE   69
 BYTE   VOL   38*RomancingSaga2EndingExtraLong7743_mvl/mxv
 BYTE   PAN   c_v+0
 BYTE   N30  Bn3  v100
 BYTE   W32
 BYTE   N07  Gs3
 BYTE   W08
 BYTE   Bn3
 BYTE   W08
 BYTE   N44  Cs4
 BYTE   W48
// 001   ----------------------------------------
Label_2_017EB01C:
 BYTE   W24
 BYTE   N07  Bn3  v100
 BYTE   W08
 BYTE   Cs4
 BYTE   W08
 BYTE   Bn3
 BYTE   W08
 BYTE   N15  En4
 BYTE   W16
 BYTE   Ds4
 BYTE   W16
 BYTE   Cs4
 BYTE   W16
 BYTE   PEND 
// 002   ----------------------------------------
 BYTE   N30  Bn3
 BYTE   W32
 BYTE   N07  Gs3
 BYTE   W08
 BYTE   Bn3
 BYTE   W08
 BYTE   N44  Cs4
 BYTE   W48
 BYTE   PATT
  POIN2 Label_2_017EB01C
// 003   ----------------------------------------
Label_2_017EB03D:
 BYTE   N30  Dn4  v104
 BYTE   W32
 BYTE   N07  Bn3
 BYTE   W08
 BYTE   Dn4
 BYTE   W08
 BYTE   N44  En4
 BYTE   W48
 BYTE   PEND 
// 004   ----------------------------------------
Label_2_017EB04A:
 BYTE   W24
 BYTE   N07  Dn4  v104
 BYTE   W08
 BYTE   En4
 BYTE   W08
 BYTE   Dn4
 BYTE   W08
 BYTE   N15  Gn4
 BYTE   W16
 BYTE   Fs4
 BYTE   W16
 BYTE   En4
 BYTE   W16
 BYTE   PEND 
 BYTE   PATT
  POIN2 Label_2_017EB03D
 BYTE   PATT
  POIN2 Label_2_017EB04A
// 005   ----------------------------------------
 BYTE   TIE  Fs4  v108
 BYTE   W96
// 006   ----------------------------------------
 BYTE   W92
 BYTE   W03
 BYTE   EOT
 BYTE   W01
// 007   ----------------------------------------
Label_2_017EB06D:
 BYTE   N30  Bn3  v108
 BYTE   W32
 BYTE   N07  Fs3
 BYTE   W08
 BYTE   Bn3
 BYTE   W08
 BYTE   N15  Ds4
 BYTE   W16
 BYTE   Cs4
 BYTE   W16
 BYTE   Bn3
 BYTE   W16
 BYTE   PEND 
// 008   ----------------------------------------
Label_2_017EB07E:
 BYTE   N07  Cs4  v108
 BYTE   W16
 BYTE   Ds4
 BYTE   W08
 BYTE   N44  En4
 BYTE   W48
 BYTE   N07
 BYTE   W08
 BYTE   Ds4
 BYTE   W08
 BYTE   Cs4
 BYTE   W08
 BYTE   PEND 
// 009   ----------------------------------------
 BYTE   N92  Ds4
 BYTE   W96
// 010   ----------------------------------------
 BYTE   W96
// 011   ----------------------------------------
Label_2_017EB092:
 BYTE   N30  Ds4  v108
 BYTE   W32
 BYTE   N07  Bn3
 BYTE   W08
 BYTE   Ds4
 BYTE   W08
 BYTE   N15  Fs4
 BYTE   W16
 BYTE   En4
 BYTE   W16
 BYTE   Ds4
 BYTE   W16
 BYTE   PEND 
// 012   ----------------------------------------
Label_2_017EB0A3:
 BYTE   N07  En4  v108
 BYTE   W16
 BYTE   Fs4
 BYTE   W08
 BYTE   N44  Gn4
 BYTE   W48
 BYTE   N07
 BYTE   W08
 BYTE   Fs4
 BYTE   W08
 BYTE   En4
 BYTE   W08
 BYTE   PEND 
// 013   ----------------------------------------
 BYTE   N92  Fs4
 BYTE   W96
// 014   ----------------------------------------
Label_2_017EB0B6:
 BYTE   W48
 BYTE   N15  Fs4  v108
 BYTE   W16
 BYTE   En4
 BYTE   W16
 BYTE   Ds4
 BYTE   W16
 BYTE   PEND 
// 015   ----------------------------------------
Label_2_017EB0C0:
 BYTE   N30  Cs4  v108
 BYTE   W32
 BYTE   N07  Cn4
 BYTE   W08
 BYTE   Cs4
 BYTE   W08
 BYTE   N44  En4
 BYTE   W48
 BYTE   PEND 
// 016   ----------------------------------------
Label_2_017EB0CD:
 BYTE   W24
 BYTE   N07  En4  v108
 BYTE   W08
 BYTE   Ds4
 BYTE   W08
 BYTE   En4
 BYTE   W08
 BYTE   N15  Gs4
 BYTE   W16
 BYTE   Fs4
 BYTE   W16
 BYTE   En4
 BYTE   W16
 BYTE   PEND 
// 017   ----------------------------------------
Label_2_017EB0DE:
 BYTE   N30  Ds4  v108
 BYTE   W32
 BYTE   N07  Cs4
 BYTE   W08
 BYTE   Ds4
 BYTE   W08
 BYTE   N44  Bn3
 BYTE   W48
 BYTE   PEND 
// 018   ----------------------------------------
Label_2_017EB0EB:
 BYTE   W24
 BYTE   N07  Bn3  v108
 BYTE   W08
 BYTE   N07
 BYTE   W08
 BYTE   Cs4
 BYTE   W08
 BYTE   N15  Dn4
 BYTE   W16
 BYTE   Cs4
 BYTE   W16
 BYTE   Bn3
 BYTE   W16
 BYTE   PEND 
// 019   ----------------------------------------
Label_2_017EB0FC:
 BYTE   N23  Cs4  v108
 BYTE   W24
 BYTE   N32  An3
 BYTE   W36
 BYTE   N11  Fs4
 BYTE   W12
 BYTE   En4
 BYTE   W12
 BYTE   Dn4
 BYTE   W12
 BYTE   PEND 
// 020   ----------------------------------------
Label_2_017EB10B:
 BYTE   N23  Cn4  v108
 BYTE   W24
 BYTE   N32  Gn3
 BYTE   W36
 BYTE   N11  En4
 BYTE   W12
 BYTE   Dn4
 BYTE   W12
 BYTE   En4
 BYTE   W12
 BYTE   PEND 
// 021   ----------------------------------------
Label_2_017EB11A:
 BYTE   N68  Fs4  v108
 BYTE   W72
 BYTE   N07
 BYTE   W08
 BYTE   Fn4
 BYTE   W08
 BYTE   Fs4
 BYTE   W08
 BYTE   PEND 
// 022   ----------------------------------------
 BYTE   N80  As4
 BYTE   W96
 BYTE   PATT
  POIN2 Label_2_017EB06D
 BYTE   PATT
  POIN2 Label_2_017EB07E
// 023   ----------------------------------------
 BYTE   N92  Ds4  v108
 BYTE   W96
// 024   ----------------------------------------
 BYTE   W96
 BYTE   PATT
  POIN2 Label_2_017EB092
 BYTE   PATT
  POIN2 Label_2_017EB0A3
// 025   ----------------------------------------
 BYTE   N92  Fs4  v108
 BYTE   W96
 BYTE   PATT
  POIN2 Label_2_017EB0B6
 BYTE   PATT
  POIN2 Label_2_017EB0C0
 BYTE   PATT
  POIN2 Label_2_017EB0CD
 BYTE   PATT
  POIN2 Label_2_017EB0DE
 BYTE   PATT
  POIN2 Label_2_017EB0EB
 BYTE   PATT
  POIN2 Label_2_017EB0FC
 BYTE   PATT
  POIN2 Label_2_017EB10B
// 026   ----------------------------------------
 BYTE   N92  Fs4  v108
 BYTE   W96
// 027   ----------------------------------------
 BYTE   W96
// 028   ----------------------------------------
Label_2_017EB16D:
 BYTE   N56  Gs3  v100
 BYTE   W60
 BYTE   N11  Gn3
 BYTE   W12
 BYTE   Gs3
 BYTE   W12
 BYTE   As3
 BYTE   W12
 BYTE   PEND 
// 029   ----------------------------------------
Label_2_017EB179:
 BYTE   N23  Bn3  v100
 BYTE   W24
 BYTE   As3
 BYTE   W24
 BYTE   N32  Ds4
 BYTE   W36
 BYTE   N11  Cs4
 BYTE   W12
 BYTE   PEND 
// 030   ----------------------------------------
Label_2_017EB186:
 BYTE   N56  Fs3  v100
 BYTE   W60
 BYTE   N11  Fn3
 BYTE   W12
 BYTE   Fs3
 BYTE   W12
 BYTE   Gs3
 BYTE   W12
 BYTE   PEND 
// 031   ----------------------------------------
Label_2_017EB192:
 BYTE   N23  As3  v100
 BYTE   W24
 BYTE   Gs3
 BYTE   W24
 BYTE   N32  Cs4
 BYTE   W36
 BYTE   N11  Bn3
 BYTE   W12
 BYTE   PEND 
// 032   ----------------------------------------
Label_2_017EB19F:
 BYTE   N56  En3  v100
 BYTE   W60
 BYTE   N11  Ds3
 BYTE   W12
 BYTE   En3
 BYTE   W12
 BYTE   Fs3
 BYTE   W12
 BYTE   PEND 
// 033   ----------------------------------------
Label_2_017EB1AB:
 BYTE   N23  Gs3  v100
 BYTE   W24
 BYTE   As3
 BYTE   W24
 BYTE   Bn3
 BYTE   W24
 BYTE   Cs4
 BYTE   W24
 BYTE   PEND 
// 034   ----------------------------------------
 BYTE   N92  Ds4
 BYTE   W96
// 035   ----------------------------------------
 BYTE   W96
 BYTE   PATT
  POIN2 Label_2_017EB16D
// 036   ----------------------------------------
Label_2_017EB1BF:
 BYTE   N23  Bn3  v100
 BYTE   W24
 BYTE   As3
 BYTE   W24
 BYTE   N32  En4
 BYTE   W36
 BYTE   N11  Fs4
 BYTE   W12
 BYTE   PEND 
// 037   ----------------------------------------
 BYTE   N92  Ds4
 BYTE   W96
// 038   ----------------------------------------
Label_2_017EB1CF:
 BYTE   W24
 BYTE   N07  Ds4  v100
 BYTE   W08
 BYTE   Dn4
 BYTE   W08
 BYTE   Ds4
 BYTE   W08
 BYTE   N15  Gs4
 BYTE   W16
 BYTE   Ds4
 BYTE   W16
 BYTE   Cs4
 BYTE   W16
 BYTE   PEND 
// 039   ----------------------------------------
Label_2_017EB1E0:
 BYTE   N30  Bn3  v100
 BYTE   W32
 BYTE   N07  As3
 BYTE   W08
 BYTE   Bn3
 BYTE   W08
 BYTE   N44  Cs4
 BYTE   W48
 BYTE   PEND 
// 040   ----------------------------------------
Label_2_017EB1ED:
 BYTE   N30  Ds4  v100
 BYTE   W32
 BYTE   N07  Cs4
 BYTE   W08
 BYTE   Bn3
 BYTE   W08
 BYTE   N23  Cs4
 BYTE   W24
 BYTE   Gs4
 BYTE   W24
 BYTE   PEND 
// 041   ----------------------------------------
 BYTE   N92  Fs4
 BYTE   W96
// 042   ----------------------------------------
 BYTE   W96
 BYTE   PATT
  POIN2 Label_2_017EB06D
 BYTE   PATT
  POIN2 Label_2_017EB07E
// 043   ----------------------------------------
 BYTE   N92  Ds4  v108
 BYTE   W96
// 044   ----------------------------------------
 BYTE   W96
 BYTE   PATT
  POIN2 Label_2_017EB092
 BYTE   PATT
  POIN2 Label_2_017EB0A3
// 045   ----------------------------------------
 BYTE   N92  Fs4  v108
 BYTE   W96
 BYTE   PATT
  POIN2 Label_2_017EB0B6
 BYTE   PATT
  POIN2 Label_2_017EB0C0
 BYTE   PATT
  POIN2 Label_2_017EB0CD
 BYTE   PATT
  POIN2 Label_2_017EB0DE
 BYTE   PATT
  POIN2 Label_2_017EB0EB
 BYTE   PATT
  POIN2 Label_2_017EB0FC
 BYTE   PATT
  POIN2 Label_2_017EB10B
 BYTE   PATT
  POIN2 Label_2_017EB11A
// 046   ----------------------------------------
 BYTE   N80  As4  v108
 BYTE   W96
 BYTE   PATT
  POIN2 Label_2_017EB06D
 BYTE   PATT
  POIN2 Label_2_017EB07E
// 047   ----------------------------------------
 BYTE   N92  Ds4  v108
 BYTE   W96
// 048   ----------------------------------------
 BYTE   W96
 BYTE   PATT
  POIN2 Label_2_017EB092
 BYTE   PATT
  POIN2 Label_2_017EB0A3
// 049   ----------------------------------------
 BYTE   N92  Fs4  v108
 BYTE   W96
 BYTE   PATT
  POIN2 Label_2_017EB0B6
 BYTE   PATT
  POIN2 Label_2_017EB0C0
 BYTE   PATT
  POIN2 Label_2_017EB0CD
 BYTE   PATT
  POIN2 Label_2_017EB0DE
 BYTE   PATT
  POIN2 Label_2_017EB0EB
 BYTE   PATT
  POIN2 Label_2_017EB0FC
 BYTE   PATT
  POIN2 Label_2_017EB10B
// 050   ----------------------------------------
 BYTE   N92  Fs4  v108
 BYTE   W96
// 051   ----------------------------------------
 BYTE   W96
 BYTE   PATT
  POIN2 Label_2_017EB16D
 BYTE   PATT
  POIN2 Label_2_017EB179
 BYTE   PATT
  POIN2 Label_2_017EB186
 BYTE   PATT
  POIN2 Label_2_017EB192
 BYTE   PATT
  POIN2 Label_2_017EB19F
 BYTE   PATT
  POIN2 Label_2_017EB1AB
// 052   ----------------------------------------
 BYTE   N92  Ds4  v100
 BYTE   W96
// 053   ----------------------------------------
 BYTE   W96
 BYTE   PATT
  POIN2 Label_2_017EB16D
 BYTE   PATT
  POIN2 Label_2_017EB1BF
// 054   ----------------------------------------
 BYTE   N92  Ds4  v100
 BYTE   W96
 BYTE   PATT
  POIN2 Label_2_017EB1CF
 BYTE   PATT
  POIN2 Label_2_017EB06D
 BYTE   PATT
  POIN2 Label_2_017EB07E
// 055   ----------------------------------------
 BYTE   N92  Ds4  v108
 BYTE   W96
// 056   ----------------------------------------
 BYTE   W96
 BYTE   PATT
  POIN2 Label_2_017EB092
 BYTE   PATT
  POIN2 Label_2_017EB0A3
// 057   ----------------------------------------
 BYTE   N92  Fs4  v108
 BYTE   W96
 BYTE   PATT
  POIN2 Label_2_017EB0B6
 BYTE   PATT
  POIN2 Label_2_017EB0C0
 BYTE   PATT
  POIN2 Label_2_017EB0CD
 BYTE   PATT
  POIN2 Label_2_017EB0DE
 BYTE   PATT
  POIN2 Label_2_017EB0EB
 BYTE   PATT
  POIN2 Label_2_017EB0FC
 BYTE   PATT
  POIN2 Label_2_017EB10B
 BYTE   PATT
  POIN2 Label_2_017EB11A
// 058   ----------------------------------------
 BYTE   N80  As4  v108
 BYTE   W96
 BYTE   PATT
  POIN2 Label_2_017EB06D
 BYTE   PATT
  POIN2 Label_2_017EB07E
// 059   ----------------------------------------
 BYTE   N92  Ds4  v108
 BYTE   W96
// 060   ----------------------------------------
 BYTE   W96
 BYTE   PATT
  POIN2 Label_2_017EB092
 BYTE   PATT
  POIN2 Label_2_017EB0A3
// 061   ----------------------------------------
 BYTE   N92  Fs4  v108
 BYTE   W96
 BYTE   PATT
  POIN2 Label_2_017EB0B6
 BYTE   PATT
  POIN2 Label_2_017EB0C0
 BYTE   PATT
  POIN2 Label_2_017EB0CD
 BYTE   PATT
  POIN2 Label_2_017EB0DE
 BYTE   PATT
  POIN2 Label_2_017EB0EB
 BYTE   PATT
  POIN2 Label_2_017EB0FC
 BYTE   PATT
  POIN2 Label_2_017EB10B
// 062   ----------------------------------------
 BYTE   N92  Fs4  v108
 BYTE   W96
// 063   ----------------------------------------
 BYTE   W96
 BYTE   PATT
  POIN2 Label_2_017EB16D
 BYTE   PATT
  POIN2 Label_2_017EB179
 BYTE   PATT
  POIN2 Label_2_017EB186
 BYTE   PATT
  POIN2 Label_2_017EB192
 BYTE   PATT
  POIN2 Label_2_017EB19F
 BYTE   PATT
  POIN2 Label_2_017EB1AB
// 064   ----------------------------------------
 BYTE   N92  Ds4  v100
 BYTE   W96
// 065   ----------------------------------------
 BYTE   W96
 BYTE   PATT
  POIN2 Label_2_017EB16D
 BYTE   PATT
  POIN2 Label_2_017EB1BF
// 066   ----------------------------------------
 BYTE   N92  Ds4  v100
 BYTE   W96
 BYTE   PATT
  POIN2 Label_2_017EB1CF
 BYTE   PATT
  POIN2 Label_2_017EB1E0
 BYTE   PATT
  POIN2 Label_2_017EB1ED
// 067   ----------------------------------------
 BYTE   N92  Fs4  v100
 BYTE   W96
// 068   ----------------------------------------
 BYTE   W96
 BYTE   PATT
  POIN2 Label_2_017EB06D
 BYTE   PATT
  POIN2 Label_2_017EB07E
// 069   ----------------------------------------
 BYTE   N92  Ds4  v108
 BYTE   W96
// 070   ----------------------------------------
 BYTE   W96
 BYTE   PATT
  POIN2 Label_2_017EB092
 BYTE   PATT
  POIN2 Label_2_017EB0A3
// 071   ----------------------------------------
 BYTE   N92  Fs4  v108
 BYTE   W96
 BYTE   PATT
  POIN2 Label_2_017EB0B6
 BYTE   PATT
  POIN2 Label_2_017EB0C0
 BYTE   PATT
  POIN2 Label_2_017EB0CD
 BYTE   PATT
  POIN2 Label_2_017EB0DE
 BYTE   PATT
  POIN2 Label_2_017EB0EB
 BYTE   PATT
  POIN2 Label_2_017EB0FC
 BYTE   PATT
  POIN2 Label_2_017EB10B
 BYTE   PATT
  POIN2 Label_2_017EB11A
// 072   ----------------------------------------
 BYTE   N80  As4  v108
 BYTE   W96
 BYTE   PATT
  POIN2 Label_2_017EB06D
 BYTE   PATT
  POIN2 Label_2_017EB07E
// 073   ----------------------------------------
 BYTE   N92  Ds4  v108
 BYTE   W96
// 074   ----------------------------------------
 BYTE   W96
 BYTE   PATT
  POIN2 Label_2_017EB092
 BYTE   PATT
  POIN2 Label_2_017EB0A3
// 075   ----------------------------------------
 BYTE   N92  Fs4  v108
 BYTE   W96
 BYTE   PATT
  POIN2 Label_2_017EB0B6
 BYTE   PATT
  POIN2 Label_2_017EB0C0
 BYTE   PATT
  POIN2 Label_2_017EB0CD
 BYTE   PATT
  POIN2 Label_2_017EB0DE
 BYTE   PATT
  POIN2 Label_2_017EB0EB
 BYTE   PATT
  POIN2 Label_2_017EB0FC
 BYTE   PATT
  POIN2 Label_2_017EB10B
// 076   ----------------------------------------
 BYTE   N92  Fs4  v108
 BYTE   W96
// 077   ----------------------------------------
 BYTE   W96
 BYTE   PATT
  POIN2 Label_2_017EB16D
 BYTE   PATT
  POIN2 Label_2_017EB179
 BYTE   PATT
  POIN2 Label_2_017EB186
 BYTE   PATT
  POIN2 Label_2_017EB192
 BYTE   PATT
  POIN2 Label_2_017EB19F
 BYTE   PATT
  POIN2 Label_2_017EB1AB
// 078   ----------------------------------------
 BYTE   N92  Ds4  v100
 BYTE   W96
// 079   ----------------------------------------
 BYTE   W96
 BYTE   PATT
  POIN2 Label_2_017EB16D
 BYTE   PATT
  POIN2 Label_2_017EB1BF
// 080   ----------------------------------------
 BYTE   N92  Ds4  v100
 BYTE   W96
 BYTE   PATT
  POIN2 Label_2_017EB1CF
 BYTE   PATT
  POIN2 Label_2_017EB1E0
 BYTE   PATT
  POIN2 Label_2_017EB1ED
// 081   ----------------------------------------
 BYTE   N92  Fs4  v100
 BYTE   W96
// 082   ----------------------------------------
 BYTE   W96
 BYTE   PATT
  POIN2 Label_2_017EB06D
 BYTE   PATT
  POIN2 Label_2_017EB07E
// 083   ----------------------------------------
 BYTE   N92  Ds4  v108
 BYTE   W96
// 084   ----------------------------------------
 BYTE   W96
 BYTE   PATT
  POIN2 Label_2_017EB092
 BYTE   PATT
  POIN2 Label_2_017EB0A3
// 085   ----------------------------------------
 BYTE   N92  Fs4  v108
 BYTE   W96
 BYTE   PATT
  POIN2 Label_2_017EB0B6
 BYTE   PATT
  POIN2 Label_2_017EB0C0
 BYTE   PATT
  POIN2 Label_2_017EB0CD
 BYTE   PATT
  POIN2 Label_2_017EB0DE
 BYTE   PATT
  POIN2 Label_2_017EB0EB
 BYTE   PATT
  POIN2 Label_2_017EB0FC
 BYTE   PATT
  POIN2 Label_2_017EB10B
 BYTE   PATT
  POIN2 Label_2_017EB11A
// 086   ----------------------------------------
 BYTE   N80  As4  v108
 BYTE   W96
 BYTE   PATT
  POIN2 Label_2_017EB06D
 BYTE   PATT
  POIN2 Label_2_017EB07E
// 087   ----------------------------------------
 BYTE   N92  Ds4  v108
 BYTE   W96
// 088   ----------------------------------------
 BYTE   W96
 BYTE   PATT
  POIN2 Label_2_017EB092
 BYTE   PATT
  POIN2 Label_2_017EB0A3
// 089   ----------------------------------------
 BYTE   N92  Fs4  v108
 BYTE   W96
 BYTE   PATT
  POIN2 Label_2_017EB0B6
 BYTE   PATT
  POIN2 Label_2_017EB0C0
 BYTE   PATT
  POIN2 Label_2_017EB0CD
 BYTE   PATT
  POIN2 Label_2_017EB0DE
 BYTE   PATT
  POIN2 Label_2_017EB0EB
 BYTE   PATT
  POIN2 Label_2_017EB0FC
 BYTE   PATT
  POIN2 Label_2_017EB10B
// 090   ----------------------------------------
 BYTE   N92  Fs4  v108
 BYTE   W96
// 091   ----------------------------------------
 BYTE   W96
 BYTE   PATT
  POIN2 Label_2_017EB16D
 BYTE   PATT
  POIN2 Label_2_017EB179
 BYTE   PATT
  POIN2 Label_2_017EB186
 BYTE   PATT
  POIN2 Label_2_017EB192
 BYTE   PATT
  POIN2 Label_2_017EB19F
 BYTE   PATT
  POIN2 Label_2_017EB1AB
// 092   ----------------------------------------
 BYTE   N92  Ds4  v100
 BYTE   W96
// 093   ----------------------------------------
 BYTE   W96
 BYTE   PATT
  POIN2 Label_2_017EB16D
 BYTE   PATT
  POIN2 Label_2_017EB1BF
// 094   ----------------------------------------
 BYTE   N92  Ds4  v100
 BYTE   W96
 BYTE   PATT
  POIN2 Label_2_017EB1CF
 BYTE   PATT
  POIN2 Label_2_017EB1E0
 BYTE   PATT
  POIN2 Label_2_017EB1ED
// 095   ----------------------------------------
 BYTE   N92  Fs4  v100
 BYTE   W96
// 096   ----------------------------------------
 BYTE   W96
 BYTE   PATT
  POIN2 Label_2_017EB06D
 BYTE   PATT
  POIN2 Label_2_017EB07E
// 097   ----------------------------------------
 BYTE   N92  Ds4  v108
 BYTE   W96
// 098   ----------------------------------------
 BYTE   W96
 BYTE   PATT
  POIN2 Label_2_017EB092
 BYTE   PATT
  POIN2 Label_2_017EB0A3
// 099   ----------------------------------------
 BYTE   N92  Fs4  v108
 BYTE   W96
 BYTE   PATT
  POIN2 Label_2_017EB0B6
 BYTE   PATT
  POIN2 Label_2_017EB0C0
 BYTE   PATT
  POIN2 Label_2_017EB0CD
 BYTE   PATT
  POIN2 Label_2_017EB0DE
 BYTE   PATT
  POIN2 Label_2_017EB0EB
 BYTE   PATT
  POIN2 Label_2_017EB0FC
 BYTE   PATT
  POIN2 Label_2_017EB10B
// 100   ----------------------------------------
 BYTE   N92  Fs4  v108
 BYTE   W96
// 101   ----------------------------------------
 BYTE   W96
 BYTE   PATT
  POIN2 Label_2_017EB16D
 BYTE   PATT
  POIN2 Label_2_017EB179
 BYTE   PATT
  POIN2 Label_2_017EB186
 BYTE   PATT
  POIN2 Label_2_017EB192
 BYTE   PATT
  POIN2 Label_2_017EB19F
 BYTE   PATT
  POIN2 Label_2_017EB1AB
// 102   ----------------------------------------
 BYTE   N92  Ds4  v100
 BYTE   W96
// 103   ----------------------------------------
 BYTE   W96
 BYTE   PATT
  POIN2 Label_2_017EB16D
 BYTE   PATT
  POIN2 Label_2_017EB1BF
// 104   ----------------------------------------
 BYTE   N92  Ds4  v100
 BYTE   W96
 BYTE   PATT
  POIN2 Label_2_017EB1CF
 BYTE   PATT
  POIN2 Label_2_017EB1E0
 BYTE   PATT
  POIN2 Label_2_017EB1ED
// 105   ----------------------------------------
 BYTE   N92  Fs4  v100
 BYTE   W96
// 106   ----------------------------------------
 BYTE   W72
 BYTE   N07
 BYTE   W08
 BYTE   Ds4
 BYTE   W08
 BYTE   Fs4
 BYTE   W08
// 107   ----------------------------------------
 BYTE   TIE  Gs4
 BYTE   W96
// 108   ----------------------------------------
 BYTE   W92
 BYTE   W03
 BYTE   EOT
 BYTE   W01
// 109   ----------------------------------------
 BYTE   W96
// 110   ----------------------------------------
 BYTE   W96
// 111   ----------------------------------------
 BYTE   W96
// 112   ----------------------------------------
 BYTE   W96
// 113   ----------------------------------------
 BYTE   N56  Cn4  v104
 BYTE   W60
 BYTE   N11  As3
 BYTE   W12
 BYTE   Cn4
 BYTE   W12
 BYTE   Cs4
 BYTE   W12
// 114   ----------------------------------------
 BYTE   N44  Ds4
 BYTE   W48
 BYTE   N23  Fn4
 BYTE   W24
 BYTE   Ds4
 BYTE   W24
// 115   ----------------------------------------
Label_2_017EB5EB:
 BYTE   N32  Ds4  v104
 BYTE   W36
 BYTE   N05  Cs4
 BYTE   W06
 BYTE   Cn4
 BYTE   W06
 BYTE   N44  Cs4
 BYTE   W48
 BYTE   PEND 
 BYTE   PATT
  POIN2 Label_2_017EB5EB
// 116   ----------------------------------------
 BYTE   N32  Cs4  v104
 BYTE   W36
 BYTE   N05  Cn4
 BYTE   W06
 BYTE   As3
 BYTE   W06
 BYTE   N92  Cn4
 BYTE   W48
// 117   ----------------------------------------
 BYTE   W96
// 118   ----------------------------------------
 BYTE   N23  Fn4  v096
 BYTE   W24
 BYTE   Gn4
 BYTE   W24
 BYTE   N32  Gs4
 BYTE   W36
 BYTE   N11  Ds4
 BYTE   W12
// 119   ----------------------------------------
 BYTE   N92  Dn4
 BYTE   W96
// 120   ----------------------------------------
 BYTE   N23  Ds4
 BYTE   W24
 BYTE   Fn4
 BYTE   W24
 BYTE   N32  Gn4
 BYTE   W36
 BYTE   N11  Cs4
 BYTE   W12
// 121   ----------------------------------------
 BYTE   N92  Cn4
 BYTE   W96
// 122   ----------------------------------------
 BYTE   N56  As3
 BYTE   W60
 BYTE   N11  Gs3
 BYTE   W12
 BYTE   As3
 BYTE   W12
 BYTE   Cs4
 BYTE   W12
// 123   ----------------------------------------
 BYTE   N23  Cn4
 BYTE   W24
 BYTE   Gs3
 BYTE   W24
 BYTE   N32  As3
 BYTE   W36
 BYTE   N11  Cn4
 BYTE   W12
// 124   ----------------------------------------
 BYTE   TIE  Gs3
 BYTE   W96
// 125   ----------------------------------------
 BYTE   W80
 BYTE   W03
 BYTE   EOT
 BYTE   W13
// 126   ----------------------------------------
Label_2_017EB643:
 BYTE   N23  Bn3  v092
 BYTE   W24
 BYTE   N07
 BYTE   W08
 BYTE   Gs3
 BYTE   W08
 BYTE   Bn3
 BYTE   W08
 BYTE   N44  Cs4
 BYTE   W48
 BYTE   PEND 
// 127   ----------------------------------------
Label_2_017EB651:
 BYTE   W24
 BYTE   N07  Bn3  v092
 BYTE   W08
 BYTE   Cs4
 BYTE   W08
 BYTE   Bn3
 BYTE   W08
 BYTE   N15  En4
 BYTE   W16
 BYTE   Ds4
 BYTE   W16
 BYTE   Cs4
 BYTE   W16
 BYTE   PEND 
 BYTE   PATT
  POIN2 Label_2_017EB643
 BYTE   PATT
  POIN2 Label_2_017EB651
// 128   ----------------------------------------
Label_2_017EB66C:
 BYTE   N23  Dn4  v096
 BYTE   W24
 BYTE   N07
 BYTE   W08
 BYTE   Bn3
 BYTE   W08
 BYTE   Dn4
 BYTE   W08
 BYTE   N44  En4
 BYTE   W48
 BYTE   PEND 
// 129   ----------------------------------------
Label_2_017EB67A:
 BYTE   W24
 BYTE   N07  Dn4  v096
 BYTE   W08
 BYTE   En4
 BYTE   W08
 BYTE   Dn4
 BYTE   W08
 BYTE   N15  Gn4
 BYTE   W16
 BYTE   Fs4
 BYTE   W16
 BYTE   En4
 BYTE   W16
 BYTE   PEND 
 BYTE   PATT
  POIN2 Label_2_017EB66C
 BYTE   PATT
  POIN2 Label_2_017EB67A
// 130   ----------------------------------------
 BYTE   TIE  Fs4  v100
 BYTE   W96
// 131   ----------------------------------------
 BYTE   W92
 BYTE   W03
 BYTE   EOT
 BYTE   W01
// 132   ----------------------------------------
Label_2_017EB69D:
 BYTE   N23  Bn2  v100
 BYTE   W24
 BYTE   Fs2
 BYTE   W24
 BYTE   Bn2
 BYTE   W24
 BYTE   Ds3
 BYTE   W24
 BYTE   PEND 
// 133   ----------------------------------------
 BYTE   N92  Cs3
 BYTE   W96
// 134   ----------------------------------------
Label_2_017EB6AB:
 BYTE   N44  As3  v100
 BYTE   W48
 BYTE   N23  Fs3
 BYTE   W24
 BYTE   En3
 BYTE   W24
 BYTE   PEND 
// 135   ----------------------------------------
 BYTE   N92  Ds3
 BYTE   W96
// 136   ----------------------------------------
 BYTE   N44  Gs2
 BYTE   W48
 BYTE   N23  Bn2
 BYTE   W24
 BYTE   Ds3
 BYTE   W24
// 137   ----------------------------------------
 BYTE   N44  Cs3
 BYTE   W48
 BYTE   Bn2
 BYTE   W48
// 138   ----------------------------------------
 BYTE   Fs2
 BYTE   W48
 BYTE   N23  Cs3
 BYTE   W24
 BYTE   Bn2
 BYTE   W24
// 139   ----------------------------------------
 BYTE   As2
 BYTE   W24
 BYTE   N68  Cs3
 BYTE   W72
 BYTE   PATT
  POIN2 Label_2_017EB69D
// 140   ----------------------------------------
 BYTE   N92  Cs3  v100
 BYTE   W96
 BYTE   PATT
  POIN2 Label_2_017EB6AB
// 141   ----------------------------------------
 BYTE   N92  Ds3  v100
 BYTE   W96
// 142   ----------------------------------------
 BYTE   N23  Bn2
 BYTE   W24
 BYTE   As2
 BYTE   W24
 BYTE   Bn2
 BYTE   W24
 BYTE   Gs2
 BYTE   W24
// 143   ----------------------------------------
 BYTE   N44  Bn2
 BYTE   W48
 BYTE   As2
 BYTE   W48
// 144   ----------------------------------------
 BYTE   Fs2
 BYTE   W48
 BYTE   N68  Bn2
 BYTE   W48
// 145   ----------------------------------------
 BYTE   W24
 BYTE   N07  Bn3  v108
 BYTE   W08
 BYTE   Fs3
 BYTE   W08
 BYTE   Bn3
 BYTE   W08
 BYTE   Ds4
 BYTE   W08
 BYTE   Bn3
 BYTE   W08
 BYTE   Ds4
 BYTE   W08
 BYTE   Fs4
 BYTE   W08
 BYTE   Ds4
 BYTE   W08
 BYTE   Fs4
 BYTE   W08
// 146   ----------------------------------------
Label_2_017EB70B:
 BYTE   N23  Gn4  v108
 BYTE   W24
 BYTE   N07
 BYTE   W08
 BYTE   An4
 BYTE   W08
 BYTE   Bn4
 BYTE   W08
 BYTE   N23  An4
 BYTE   W24
 BYTE   Gn4
 BYTE   W24
 BYTE   PEND 
// 147   ----------------------------------------
 BYTE   N07  Fs4
 BYTE   W16
 BYTE   Bn3
 BYTE   W08
 BYTE   N44
 BYTE   W48
 BYTE   N07  Ds4
 BYTE   W08
 BYTE   En4
 BYTE   W08
 BYTE   Fs4
 BYTE   W08
 BYTE   PATT
  POIN2 Label_2_017EB70B
// 148   ----------------------------------------
 BYTE   N07  Fs4  v108
 BYTE   W16
 BYTE   Bn4
 BYTE   W08
 BYTE   N68
 BYTE   W72
// 149   ----------------------------------------
 BYTE   N23  Ds3  v100
 BYTE   W24
 BYTE   N07
 BYTE   W08
 BYTE   Fs3
 BYTE   W08
 BYTE   Gs3
 BYTE   W08
 BYTE   N44  Fn3
 BYTE   W48
// 150   ----------------------------------------
 BYTE   N23  Cs3
 BYTE   W24
 BYTE   N07
 BYTE   W08
 BYTE   Ds3
 BYTE   W08
 BYTE   Fs3
 BYTE   W08
 BYTE   N44  Ds3
 BYTE   W48
// 151   ----------------------------------------
 BYTE   Cs3
 BYTE   W48
 BYTE   En3
 BYTE   W48
// 152   ----------------------------------------
 BYTE   N23  Gs3
 BYTE   W24
 BYTE   N68  Gs2
 BYTE   W72
// 153   ----------------------------------------
 BYTE   W96
// 154   ----------------------------------------
 BYTE   W24
 BYTE   N07  As3
 BYTE   W08
 BYTE   Gs3
 BYTE   W08
 BYTE   As3
 BYTE   W08
 BYTE   Bn3
 BYTE   W08
 BYTE   As3
 BYTE   W08
 BYTE   Bn3
 BYTE   W08
 BYTE   Cs4
 BYTE   W08
 BYTE   Ds4
 BYTE   W08
 BYTE   En4
 BYTE   W08
// 155   ----------------------------------------
Label_2_017EB76E:
 BYTE   N23  Ds4  v100
 BYTE   W24
 BYTE   Bn3
 BYTE   W24
 BYTE   Ds4
 BYTE   W24
 BYTE   Fs4
 BYTE   W24
 BYTE   PEND 
// 156   ----------------------------------------
Label_2_017EB779:
 BYTE   N44  Fn4  v100
 BYTE   W48
 BYTE   N23  Fs4
 BYTE   W24
 BYTE   Gs4
 BYTE   W24
 BYTE   PEND 
// 157   ----------------------------------------
Label_2_017EB783:
 BYTE   N23  As4  v100
 BYTE   W24
 BYTE   Gs4
 BYTE   W24
 BYTE   Fs4
 BYTE   W24
 BYTE   En4
 BYTE   W24
 BYTE   PEND 
// 158   ----------------------------------------
Label_2_017EB78E:
 BYTE   N44  Ds4  v100
 BYTE   W48
 BYTE   Cs4
 BYTE   W48
 BYTE   PEND 
// 159   ----------------------------------------
 BYTE   N23  As3
 BYTE   W24
 BYTE   Bn3
 BYTE   W24
 BYTE   Ds4
 BYTE   W24
 BYTE   Gs4
 BYTE   W24
// 160   ----------------------------------------
 BYTE   N44  Fs4
 BYTE   W48
 BYTE   Fn4
 BYTE   W48
// 161   ----------------------------------------
 BYTE   N92  Fs4
 BYTE   W96
// 162   ----------------------------------------
 BYTE   W24
 BYTE   N23  As3
 BYTE   W24
 BYTE   Bn3
 BYTE   W24
 BYTE   Cs4
 BYTE   W24
 BYTE   PATT
  POIN2 Label_2_017EB76E
 BYTE   PATT
  POIN2 Label_2_017EB779
 BYTE   PATT
  POIN2 Label_2_017EB783
 BYTE   PATT
  POIN2 Label_2_017EB78E
// 163   ----------------------------------------
 BYTE   N23  Bn3  v100
 BYTE   W24
 BYTE   Cs4
 BYTE   W24
 BYTE   Ds4
 BYTE   W24
 BYTE   Bn3
 BYTE   W24
// 164   ----------------------------------------
 BYTE   N68  Cs4
 BYTE   W72
 BYTE   N23  Ds4
 BYTE   W24
// 165   ----------------------------------------
 BYTE   N92  Bn3
 BYTE   W96
// 166   ----------------------------------------
 BYTE   W96
// 167   ----------------------------------------
 BYTE   W96
// 168   ----------------------------------------
 BYTE   W96
// 169   ----------------------------------------
 BYTE   W96
// 170   ----------------------------------------
 BYTE   W96
// 171   ----------------------------------------
 BYTE   W96
// 172   ----------------------------------------
 BYTE   W96
// 173   ----------------------------------------
 BYTE   W96
// 174   ----------------------------------------
 BYTE   W96
// 175   ----------------------------------------
 BYTE   W96
// 176   ----------------------------------------
 BYTE   W96
 BYTE   FINE

//**************** Track 4 (Midi-Chn.3) ****************//

RomancingSaga2EndingExtraLong7743_004:
// 000   ----------------------------------------
 BYTE   KEYSH   RomancingSaga2EndingExtraLong7743_key+0
 BYTE   VOICE   69
 BYTE   VOL   38*RomancingSaga2EndingExtraLong7743_mvl/mxv
 BYTE   PAN   c_v+0
 BYTE   W06
 BYTE   N30  Bn3  v064
 BYTE   W32
 BYTE   N07  Gs3
 BYTE   W08
 BYTE   Bn3
 BYTE   W08
 BYTE   N44  Cs4
 BYTE   W42
// 001   ----------------------------------------
Label_3_017EB801:
 BYTE   W30
 BYTE   N07  Bn3  v064
 BYTE   W08
 BYTE   Cs4
 BYTE   W08
 BYTE   Bn3
 BYTE   W08
 BYTE   N15  En4
 BYTE   W16
 BYTE   Ds4
 BYTE   W16
 BYTE   Cs4
 BYTE   W10
 BYTE   PEND 
// 002   ----------------------------------------
 BYTE   W06
 BYTE   N30  Bn3
 BYTE   W32
 BYTE   N07  Gs3
 BYTE   W08
 BYTE   Bn3
 BYTE   W08
 BYTE   N44  Cs4
 BYTE   W42
 BYTE   PATT
  POIN2 Label_3_017EB801
// 003   ----------------------------------------
Label_3_017EB823:
 BYTE   W06
 BYTE   N30  Dn4  v064
 BYTE   W32
 BYTE   N07  Bn3
 BYTE   W08
 BYTE   Dn4
 BYTE   W08
 BYTE   N44  En4
 BYTE   W42
 BYTE   PEND 
// 004   ----------------------------------------
Label_3_017EB831:
 BYTE   W30
 BYTE   N07  Dn4  v064
 BYTE   W08
 BYTE   En4
 BYTE   W08
 BYTE   Dn4
 BYTE   W08
 BYTE   N15  Gn4
 BYTE   W16
 BYTE   Fs4
 BYTE   W16
 BYTE   En4
 BYTE   W10
 BYTE   PEND 
 BYTE   PATT
  POIN2 Label_3_017EB823
 BYTE   PATT
  POIN2 Label_3_017EB831
// 005   ----------------------------------------
 BYTE   W06
 BYTE   TIE  Fs4  v068
 BYTE   W90
// 006   ----------------------------------------
 BYTE   W96
// 007   ----------------------------------------
 BYTE   W05
 BYTE   EOT
 BYTE   W01
 BYTE   N30  Bn3
 BYTE   W32
 BYTE   N07  Fs3
 BYTE   W08
 BYTE   Bn3
 BYTE   W08
 BYTE   N15  Ds4
 BYTE   W16
 BYTE   Cs4
 BYTE   W16
 BYTE   Bn3
 BYTE   W10
// 008   ----------------------------------------
Label_3_017EB864:
 BYTE   W06
 BYTE   N07  Cs4  v068
 BYTE   W16
 BYTE   Ds4
 BYTE   W08
 BYTE   N44  En4
 BYTE   W48
 BYTE   N07
 BYTE   W08
 BYTE   Ds4
 BYTE   W08
 BYTE   Cs4
 BYTE   W02
 BYTE   PEND 
// 009   ----------------------------------------
 BYTE   W06
 BYTE   N92  Ds4
 BYTE   W90
// 010   ----------------------------------------
 BYTE   W96
// 011   ----------------------------------------
Label_3_017EB87A:
 BYTE   W06
 BYTE   N30  Ds4  v068
 BYTE   W32
 BYTE   N07  Bn3
 BYTE   W08
 BYTE   Ds4
 BYTE   W08
 BYTE   N15  Fs4
 BYTE   W16
 BYTE   En4
 BYTE   W16
 BYTE   Ds4
 BYTE   W10
 BYTE   PEND 
// 012   ----------------------------------------
Label_3_017EB88C:
 BYTE   W06
 BYTE   N07  En4  v068
 BYTE   W16
 BYTE   Fs4
 BYTE   W08
 BYTE   N44  Gn4
 BYTE   W48
 BYTE   N07
 BYTE   W08
 BYTE   Fs4
 BYTE   W08
 BYTE   En4
 BYTE   W02
 BYTE   PEND 
// 013   ----------------------------------------
 BYTE   W06
 BYTE   N92  Fs4
 BYTE   W90
// 014   ----------------------------------------
Label_3_017EB8A1:
 BYTE   W54
 BYTE   N15  Fs4  v068
 BYTE   W16
 BYTE   En4
 BYTE   W16
 BYTE   Ds4
 BYTE   W10
 BYTE   PEND 
// 015   ----------------------------------------
Label_3_017EB8AB:
 BYTE   W06
 BYTE   N30  Cs4  v068
 BYTE   W32
 BYTE   N07  Cn4
 BYTE   W08
 BYTE   Cs4
 BYTE   W08
 BYTE   N44  En4
 BYTE   W42
 BYTE   PEND 
// 016   ----------------------------------------
Label_3_017EB8B9:
 BYTE   W30
 BYTE   N07  En4  v068
 BYTE   W08
 BYTE   Ds4
 BYTE   W08
 BYTE   En4
 BYTE   W08
 BYTE   N15  Gs4
 BYTE   W16
 BYTE   Fs4
 BYTE   W16
 BYTE   En4
 BYTE   W10
 BYTE   PEND 
// 017   ----------------------------------------
Label_3_017EB8CA:
 BYTE   W06
 BYTE   N30  Ds4  v068
 BYTE   W32
 BYTE   N07  Cs4
 BYTE   W08
 BYTE   Ds4
 BYTE   W08
 BYTE   N44  Bn3
 BYTE   W42
 BYTE   PEND 
// 018   ----------------------------------------
Label_3_017EB8D8:
 BYTE   W30
 BYTE   N07  Bn3  v068
 BYTE   W08
 BYTE   N07
 BYTE   W08
 BYTE   Cs4
 BYTE   W08
 BYTE   N15  Dn4
 BYTE   W16
 BYTE   Cs4
 BYTE   W16
 BYTE   Bn3
 BYTE   W10
 BYTE   PEND 
// 019   ----------------------------------------
Label_3_017EB8E9:
 BYTE   W06
 BYTE   N23  Cs4  v068
 BYTE   W24
 BYTE   N32  An3
 BYTE   W36
 BYTE   N11  Fs4
 BYTE   W12
 BYTE   En4
 BYTE   W12
 BYTE   Dn4
 BYTE   W06
 BYTE   PEND 
// 020   ----------------------------------------
Label_3_017EB8F9:
 BYTE   W06
 BYTE   N23  Cn4  v068
 BYTE   W24
 BYTE   N32  Gn3
 BYTE   W36
 BYTE   N11  En4
 BYTE   W12
 BYTE   Dn4
 BYTE   W12
 BYTE   En4
 BYTE   W06
 BYTE   PEND 
// 021   ----------------------------------------
Label_3_017EB909:
 BYTE   W06
 BYTE   N68  Fs4  v068
 BYTE   W72
 BYTE   N07
 BYTE   W08
 BYTE   Fn4
 BYTE   W08
 BYTE   Fs4
 BYTE   W02
 BYTE   PEND 
// 022   ----------------------------------------
 BYTE   W06
 BYTE   N80  As4
 BYTE   W90
// 023   ----------------------------------------
Label_3_017EB919:
 BYTE   W06
 BYTE   N30  Bn3  v068
 BYTE   W32
 BYTE   N07  Fs3
 BYTE   W08
 BYTE   Bn3
 BYTE   W08
 BYTE   N15  Ds4
 BYTE   W16
 BYTE   Cs4
 BYTE   W16
 BYTE   Bn3
 BYTE   W10
 BYTE   PEND 
 BYTE   PATT
  POIN2 Label_3_017EB864
// 024   ----------------------------------------
 BYTE   W06
 BYTE   N92  Ds4  v068
 BYTE   W90
// 025   ----------------------------------------
 BYTE   W96
 BYTE   PATT
  POIN2 Label_3_017EB87A
 BYTE   PATT
  POIN2 Label_3_017EB88C
// 026   ----------------------------------------
 BYTE   W06
 BYTE   N92  Fs4  v068
 BYTE   W90
 BYTE   PATT
  POIN2 Label_3_017EB8A1
 BYTE   PATT
  POIN2 Label_3_017EB8AB
 BYTE   PATT
  POIN2 Label_3_017EB8B9
 BYTE   PATT
  POIN2 Label_3_017EB8CA
 BYTE   PATT
  POIN2 Label_3_017EB8D8
 BYTE   PATT
  POIN2 Label_3_017EB8E9
 BYTE   PATT
  POIN2 Label_3_017EB8F9
// 027   ----------------------------------------
 BYTE   W06
 BYTE   N92  Fs4  v068
 BYTE   W90
// 028   ----------------------------------------
 BYTE   W96
// 029   ----------------------------------------
Label_3_017EB96E:
 BYTE   W06
 BYTE   N56  Gs3  v064
 BYTE   W60
 BYTE   N11  Gn3
 BYTE   W12
 BYTE   Gs3
 BYTE   W12
 BYTE   As3
 BYTE   W06
 BYTE   PEND 
// 030   ----------------------------------------
Label_3_017EB97B:
 BYTE   W06
 BYTE   N23  Bn3  v064
 BYTE   W24
 BYTE   As3
 BYTE   W24
 BYTE   N32  Ds4
 BYTE   W36
 BYTE   N11  Cs4
 BYTE   W06
 BYTE   PEND 
// 031   ----------------------------------------
Label_3_017EB989:
 BYTE   W06
 BYTE   N56  Fs3  v064
 BYTE   W60
 BYTE   N11  Fn3
 BYTE   W12
 BYTE   Fs3
 BYTE   W12
 BYTE   Gs3
 BYTE   W06
 BYTE   PEND 
// 032   ----------------------------------------
Label_3_017EB996:
 BYTE   W06
 BYTE   N23  As3  v064
 BYTE   W24
 BYTE   Gs3
 BYTE   W24
 BYTE   N32  Cs4
 BYTE   W36
 BYTE   N11  Bn3
 BYTE   W06
 BYTE   PEND 
// 033   ----------------------------------------
Label_3_017EB9A4:
 BYTE   W06
 BYTE   N56  En3  v064
 BYTE   W60
 BYTE   N11  Ds3
 BYTE   W12
 BYTE   En3
 BYTE   W12
 BYTE   Fs3
 BYTE   W06
 BYTE   PEND 
// 034   ----------------------------------------
Label_3_017EB9B1:
 BYTE   W06
 BYTE   N23  Gs3  v064
 BYTE   W24
 BYTE   As3
 BYTE   W24
 BYTE   Bn3
 BYTE   W24
 BYTE   Cs4
 BYTE   W18
 BYTE   PEND 
// 035   ----------------------------------------
 BYTE   W06
 BYTE   N92  Ds4
 BYTE   W90
// 036   ----------------------------------------
 BYTE   W96
 BYTE   PATT
  POIN2 Label_3_017EB96E
// 037   ----------------------------------------
Label_3_017EB9C7:
 BYTE   W06
 BYTE   N23  Bn3  v064
 BYTE   W24
 BYTE   As3
 BYTE   W24
 BYTE   N32  En4
 BYTE   W36
 BYTE   N11  Fs4
 BYTE   W06
 BYTE   PEND 
// 038   ----------------------------------------
 BYTE   W06
 BYTE   N92  Ds4
 BYTE   W90
// 039   ----------------------------------------
Label_3_017EB9D9:
 BYTE   W30
 BYTE   N07  Ds4  v064
 BYTE   W08
 BYTE   Dn4
 BYTE   W08
 BYTE   Ds4
 BYTE   W08
 BYTE   N15  Gs4
 BYTE   W16
 BYTE   Ds4
 BYTE   W16
 BYTE   Cs4
 BYTE   W10
 BYTE   PEND 
// 040   ----------------------------------------
Label_3_017EB9EA:
 BYTE   W06
 BYTE   N30  Bn3  v064
 BYTE   W32
 BYTE   N07  As3
 BYTE   W08
 BYTE   Bn3
 BYTE   W08
 BYTE   N44  Cs4
 BYTE   W42
 BYTE   PEND 
// 041   ----------------------------------------
Label_3_017EB9F8:
 BYTE   W06
 BYTE   N30  Ds4  v064
 BYTE   W32
 BYTE   N07  Cs4
 BYTE   W08
 BYTE   Bn3
 BYTE   W08
 BYTE   N23  Cs4
 BYTE   W24
 BYTE   Gs4
 BYTE   W18
 BYTE   PEND 
// 042   ----------------------------------------
 BYTE   W06
 BYTE   N92  Fs4
 BYTE   W90
// 043   ----------------------------------------
 BYTE   W96
 BYTE   PATT
  POIN2 Label_3_017EB919
 BYTE   PATT
  POIN2 Label_3_017EB864
// 044   ----------------------------------------
 BYTE   W06
 BYTE   N92  Ds4  v068
 BYTE   W90
// 045   ----------------------------------------
 BYTE   W96
 BYTE   PATT
  POIN2 Label_3_017EB87A
 BYTE   PATT
  POIN2 Label_3_017EB88C
// 046   ----------------------------------------
 BYTE   W06
 BYTE   N92  Fs4  v068
 BYTE   W90
 BYTE   PATT
  POIN2 Label_3_017EB8A1
 BYTE   PATT
  POIN2 Label_3_017EB8AB
 BYTE   PATT
  POIN2 Label_3_017EB8B9
 BYTE   PATT
  POIN2 Label_3_017EB8CA
 BYTE   PATT
  POIN2 Label_3_017EB8D8
 BYTE   PATT
  POIN2 Label_3_017EB8E9
 BYTE   PATT
  POIN2 Label_3_017EB8F9
 BYTE   PATT
  POIN2 Label_3_017EB909
// 047   ----------------------------------------
 BYTE   W06
 BYTE   N80  As4  v068
 BYTE   W90
 BYTE   PATT
  POIN2 Label_3_017EB919
 BYTE   PATT
  POIN2 Label_3_017EB864
// 048   ----------------------------------------
 BYTE   W06
 BYTE   N92  Ds4  v068
 BYTE   W90
// 049   ----------------------------------------
 BYTE   W96
 BYTE   PATT
  POIN2 Label_3_017EB87A
 BYTE   PATT
  POIN2 Label_3_017EB88C
// 050   ----------------------------------------
 BYTE   W06
 BYTE   N92  Fs4  v068
 BYTE   W90
 BYTE   PATT
  POIN2 Label_3_017EB8A1
 BYTE   PATT
  POIN2 Label_3_017EB8AB
 BYTE   PATT
  POIN2 Label_3_017EB8B9
 BYTE   PATT
  POIN2 Label_3_017EB8CA
 BYTE   PATT
  POIN2 Label_3_017EB8D8
 BYTE   PATT
  POIN2 Label_3_017EB8E9
 BYTE   PATT
  POIN2 Label_3_017EB8F9
// 051   ----------------------------------------
 BYTE   W06
 BYTE   N92  Fs4  v068
 BYTE   W90
// 052   ----------------------------------------
 BYTE   W96
 BYTE   PATT
  POIN2 Label_3_017EB96E
 BYTE   PATT
  POIN2 Label_3_017EB97B
 BYTE   PATT
  POIN2 Label_3_017EB989
 BYTE   PATT
  POIN2 Label_3_017EB996
 BYTE   PATT
  POIN2 Label_3_017EB9A4
 BYTE   PATT
  POIN2 Label_3_017EB9B1
// 053   ----------------------------------------
 BYTE   W06
 BYTE   N92  Ds4  v064
 BYTE   W90
// 054   ----------------------------------------
 BYTE   W96
 BYTE   PATT
  POIN2 Label_3_017EB96E
 BYTE   PATT
  POIN2 Label_3_017EB9C7
// 055   ----------------------------------------
 BYTE   W06
 BYTE   N92  Ds4  v064
 BYTE   W90
 BYTE   PATT
  POIN2 Label_3_017EB9D9
 BYTE   PATT
  POIN2 Label_3_017EB919
 BYTE   PATT
  POIN2 Label_3_017EB864
// 056   ----------------------------------------
 BYTE   W06
 BYTE   N92  Ds4  v068
 BYTE   W90
// 057   ----------------------------------------
 BYTE   W96
 BYTE   PATT
  POIN2 Label_3_017EB87A
 BYTE   PATT
  POIN2 Label_3_017EB88C
// 058   ----------------------------------------
 BYTE   W06
 BYTE   N92  Fs4  v068
 BYTE   W90
 BYTE   PATT
  POIN2 Label_3_017EB8A1
 BYTE   PATT
  POIN2 Label_3_017EB8AB
 BYTE   PATT
  POIN2 Label_3_017EB8B9
 BYTE   PATT
  POIN2 Label_3_017EB8CA
 BYTE   PATT
  POIN2 Label_3_017EB8D8
 BYTE   PATT
  POIN2 Label_3_017EB8E9
 BYTE   PATT
  POIN2 Label_3_017EB8F9
 BYTE   PATT
  POIN2 Label_3_017EB909
// 059   ----------------------------------------
 BYTE   W06
 BYTE   N80  As4  v068
 BYTE   W90
 BYTE   PATT
  POIN2 Label_3_017EB919
 BYTE   PATT
  POIN2 Label_3_017EB864
// 060   ----------------------------------------
 BYTE   W06
 BYTE   N92  Ds4  v068
 BYTE   W90
// 061   ----------------------------------------
 BYTE   W96
 BYTE   PATT
  POIN2 Label_3_017EB87A
 BYTE   PATT
  POIN2 Label_3_017EB88C
// 062   ----------------------------------------
 BYTE   W06
 BYTE   N92  Fs4  v068
 BYTE   W90
 BYTE   PATT
  POIN2 Label_3_017EB8A1
 BYTE   PATT
  POIN2 Label_3_017EB8AB
 BYTE   PATT
  POIN2 Label_3_017EB8B9
 BYTE   PATT
  POIN2 Label_3_017EB8CA
 BYTE   PATT
  POIN2 Label_3_017EB8D8
 BYTE   PATT
  POIN2 Label_3_017EB8E9
 BYTE   PATT
  POIN2 Label_3_017EB8F9
// 063   ----------------------------------------
 BYTE   W06
 BYTE   N92  Fs4  v068
 BYTE   W90
// 064   ----------------------------------------
 BYTE   W96
 BYTE   PATT
  POIN2 Label_3_017EB96E
 BYTE   PATT
  POIN2 Label_3_017EB97B
 BYTE   PATT
  POIN2 Label_3_017EB989
 BYTE   PATT
  POIN2 Label_3_017EB996
 BYTE   PATT
  POIN2 Label_3_017EB9A4
 BYTE   PATT
  POIN2 Label_3_017EB9B1
// 065   ----------------------------------------
 BYTE   W06
 BYTE   N92  Ds4  v064
 BYTE   W90
// 066   ----------------------------------------
 BYTE   W96
 BYTE   PATT
  POIN2 Label_3_017EB96E
 BYTE   PATT
  POIN2 Label_3_017EB9C7
// 067   ----------------------------------------
 BYTE   W06
 BYTE   N92  Ds4  v064
 BYTE   W90
 BYTE   PATT
  POIN2 Label_3_017EB9D9
 BYTE   PATT
  POIN2 Label_3_017EB9EA
 BYTE   PATT
  POIN2 Label_3_017EB9F8
// 068   ----------------------------------------
 BYTE   W06
 BYTE   N92  Fs4  v064
 BYTE   W90
// 069   ----------------------------------------
 BYTE   W96
 BYTE   PATT
  POIN2 Label_3_017EB919
 BYTE   PATT
  POIN2 Label_3_017EB864
// 070   ----------------------------------------
 BYTE   W06
 BYTE   N92  Ds4  v068
 BYTE   W90
// 071   ----------------------------------------
 BYTE   W96
 BYTE   PATT
  POIN2 Label_3_017EB87A
 BYTE   PATT
  POIN2 Label_3_017EB88C
// 072   ----------------------------------------
 BYTE   W06
 BYTE   N92  Fs4  v068
 BYTE   W90
 BYTE   PATT
  POIN2 Label_3_017EB8A1
 BYTE   PATT
  POIN2 Label_3_017EB8AB
 BYTE   PATT
  POIN2 Label_3_017EB8B9
 BYTE   PATT
  POIN2 Label_3_017EB8CA
 BYTE   PATT
  POIN2 Label_3_017EB8D8
 BYTE   PATT
  POIN2 Label_3_017EB8E9
 BYTE   PATT
  POIN2 Label_3_017EB8F9
 BYTE   PATT
  POIN2 Label_3_017EB909
// 073   ----------------------------------------
 BYTE   W06
 BYTE   N80  As4  v068
 BYTE   W90
 BYTE   PATT
  POIN2 Label_3_017EB919
 BYTE   PATT
  POIN2 Label_3_017EB864
// 074   ----------------------------------------
 BYTE   W06
 BYTE   N92  Ds4  v068
 BYTE   W90
// 075   ----------------------------------------
 BYTE   W96
 BYTE   PATT
  POIN2 Label_3_017EB87A
 BYTE   PATT
  POIN2 Label_3_017EB88C
// 076   ----------------------------------------
 BYTE   W06
 BYTE   N92  Fs4  v068
 BYTE   W90
 BYTE   PATT
  POIN2 Label_3_017EB8A1
 BYTE   PATT
  POIN2 Label_3_017EB8AB
 BYTE   PATT
  POIN2 Label_3_017EB8B9
 BYTE   PATT
  POIN2 Label_3_017EB8CA
 BYTE   PATT
  POIN2 Label_3_017EB8D8
 BYTE   PATT
  POIN2 Label_3_017EB8E9
 BYTE   PATT
  POIN2 Label_3_017EB8F9
// 077   ----------------------------------------
 BYTE   W06
 BYTE   N92  Fs4  v068
 BYTE   W90
// 078   ----------------------------------------
 BYTE   W96
 BYTE   PATT
  POIN2 Label_3_017EB96E
 BYTE   PATT
  POIN2 Label_3_017EB97B
 BYTE   PATT
  POIN2 Label_3_017EB989
 BYTE   PATT
  POIN2 Label_3_017EB996
 BYTE   PATT
  POIN2 Label_3_017EB9A4
 BYTE   PATT
  POIN2 Label_3_017EB9B1
// 079   ----------------------------------------
 BYTE   W06
 BYTE   N92  Ds4  v064
 BYTE   W90
// 080   ----------------------------------------
 BYTE   W96
 BYTE   PATT
  POIN2 Label_3_017EB96E
 BYTE   PATT
  POIN2 Label_3_017EB9C7
// 081   ----------------------------------------
 BYTE   W06
 BYTE   N92  Ds4  v064
 BYTE   W90
 BYTE   PATT
  POIN2 Label_3_017EB9D9
 BYTE   PATT
  POIN2 Label_3_017EB9EA
 BYTE   PATT
  POIN2 Label_3_017EB9F8
// 082   ----------------------------------------
 BYTE   W06
 BYTE   N92  Fs4  v064
 BYTE   W90
// 083   ----------------------------------------
 BYTE   W96
 BYTE   PATT
  POIN2 Label_3_017EB919
 BYTE   PATT
  POIN2 Label_3_017EB864
// 084   ----------------------------------------
 BYTE   W06
 BYTE   N92  Ds4  v068
 BYTE   W90
// 085   ----------------------------------------
 BYTE   W96
 BYTE   PATT
  POIN2 Label_3_017EB87A
 BYTE   PATT
  POIN2 Label_3_017EB88C
// 086   ----------------------------------------
 BYTE   W06
 BYTE   N92  Fs4  v068
 BYTE   W90
 BYTE   PATT
  POIN2 Label_3_017EB8A1
 BYTE   PATT
  POIN2 Label_3_017EB8AB
 BYTE   PATT
  POIN2 Label_3_017EB8B9
 BYTE   PATT
  POIN2 Label_3_017EB8CA
 BYTE   PATT
  POIN2 Label_3_017EB8D8
 BYTE   PATT
  POIN2 Label_3_017EB8E9
 BYTE   PATT
  POIN2 Label_3_017EB8F9
 BYTE   PATT
  POIN2 Label_3_017EB909
// 087   ----------------------------------------
 BYTE   W06
 BYTE   N80  As4  v068
 BYTE   W90
 BYTE   PATT
  POIN2 Label_3_017EB919
 BYTE   PATT
  POIN2 Label_3_017EB864
// 088   ----------------------------------------
 BYTE   W06
 BYTE   N92  Ds4  v068
 BYTE   W90
// 089   ----------------------------------------
 BYTE   W96
 BYTE   PATT
  POIN2 Label_3_017EB87A
 BYTE   PATT
  POIN2 Label_3_017EB88C
// 090   ----------------------------------------
 BYTE   W06
 BYTE   N92  Fs4  v068
 BYTE   W90
 BYTE   PATT
  POIN2 Label_3_017EB8A1
 BYTE   PATT
  POIN2 Label_3_017EB8AB
 BYTE   PATT
  POIN2 Label_3_017EB8B9
 BYTE   PATT
  POIN2 Label_3_017EB8CA
 BYTE   PATT
  POIN2 Label_3_017EB8D8
 BYTE   PATT
  POIN2 Label_3_017EB8E9
 BYTE   PATT
  POIN2 Label_3_017EB8F9
// 091   ----------------------------------------
 BYTE   W06
 BYTE   N92  Fs4  v068
 BYTE   W90
// 092   ----------------------------------------
 BYTE   W96
 BYTE   PATT
  POIN2 Label_3_017EB96E
 BYTE   PATT
  POIN2 Label_3_017EB97B
 BYTE   PATT
  POIN2 Label_3_017EB989
 BYTE   PATT
  POIN2 Label_3_017EB996
 BYTE   PATT
  POIN2 Label_3_017EB9A4
 BYTE   PATT
  POIN2 Label_3_017EB9B1
// 093   ----------------------------------------
 BYTE   W06
 BYTE   N92  Ds4  v064
 BYTE   W90
// 094   ----------------------------------------
 BYTE   W96
 BYTE   PATT
  POIN2 Label_3_017EB96E
 BYTE   PATT
  POIN2 Label_3_017EB9C7
// 095   ----------------------------------------
 BYTE   W06
 BYTE   N92  Ds4  v064
 BYTE   W90
 BYTE   PATT
  POIN2 Label_3_017EB9D9
 BYTE   PATT
  POIN2 Label_3_017EB9EA
 BYTE   PATT
  POIN2 Label_3_017EB9F8
// 096   ----------------------------------------
 BYTE   W06
 BYTE   N92  Fs4  v064
 BYTE   W90
// 097   ----------------------------------------
 BYTE   W96
 BYTE   PATT
  POIN2 Label_3_017EB919
 BYTE   PATT
  POIN2 Label_3_017EB864
// 098   ----------------------------------------
 BYTE   W06
 BYTE   N92  Ds4  v068
 BYTE   W90
// 099   ----------------------------------------
 BYTE   W96
 BYTE   PATT
  POIN2 Label_3_017EB87A
 BYTE   PATT
  POIN2 Label_3_017EB88C
// 100   ----------------------------------------
 BYTE   W06
 BYTE   N92  Fs4  v068
 BYTE   W90
 BYTE   PATT
  POIN2 Label_3_017EB8A1
 BYTE   PATT
  POIN2 Label_3_017EB8AB
 BYTE   PATT
  POIN2 Label_3_017EB8B9
 BYTE   PATT
  POIN2 Label_3_017EB8CA
 BYTE   PATT
  POIN2 Label_3_017EB8D8
 BYTE   PATT
  POIN2 Label_3_017EB8E9
 BYTE   PATT
  POIN2 Label_3_017EB8F9
// 101   ----------------------------------------
 BYTE   W06
 BYTE   N92  Fs4  v068
 BYTE   W90
// 102   ----------------------------------------
 BYTE   W96
 BYTE   PATT
  POIN2 Label_3_017EB96E
 BYTE   PATT
  POIN2 Label_3_017EB97B
 BYTE   PATT
  POIN2 Label_3_017EB989
 BYTE   PATT
  POIN2 Label_3_017EB996
 BYTE   PATT
  POIN2 Label_3_017EB9A4
 BYTE   PATT
  POIN2 Label_3_017EB9B1
// 103   ----------------------------------------
 BYTE   W06
 BYTE   N92  Ds4  v064
 BYTE   W90
// 104   ----------------------------------------
 BYTE   W96
 BYTE   PATT
  POIN2 Label_3_017EB96E
 BYTE   PATT
  POIN2 Label_3_017EB9C7
// 105   ----------------------------------------
 BYTE   W06
 BYTE   N92  Ds4  v064
 BYTE   W90
 BYTE   PATT
  POIN2 Label_3_017EB9D9
 BYTE   PATT
  POIN2 Label_3_017EB9EA
 BYTE   PATT
  POIN2 Label_3_017EB9F8
// 106   ----------------------------------------
 BYTE   W06
 BYTE   N92  Fs4  v064
 BYTE   W90
// 107   ----------------------------------------
 BYTE   W78
 BYTE   N07
 BYTE   W08
 BYTE   Ds4
 BYTE   W08
 BYTE   Fs4
 BYTE   W02
// 108   ----------------------------------------
 BYTE   W06
 BYTE   TIE  Gs4  v060
 BYTE   W90
// 109   ----------------------------------------
 BYTE   W96
// 110   ----------------------------------------
 BYTE   W05
 BYTE   EOT
 BYTE   W90
 BYTE   W01
// 111   ----------------------------------------
 BYTE   W96
// 112   ----------------------------------------
 BYTE   W96
// 113   ----------------------------------------
 BYTE   W96
// 114   ----------------------------------------
 BYTE   W06
 BYTE   N56  Cn4  v068
 BYTE   W60
 BYTE   N11  As3
 BYTE   W12
 BYTE   Cn4
 BYTE   W12
 BYTE   Cs4
 BYTE   W06
// 115   ----------------------------------------
 BYTE   W06
 BYTE   N44  Ds4
 BYTE   W48
 BYTE   N23  Fn4
 BYTE   W24
 BYTE   Ds4
 BYTE   W18
// 116   ----------------------------------------
Label_3_017EBE25:
 BYTE   W06
 BYTE   N32  Ds4  v068
 BYTE   W36
 BYTE   N05  Cs4
 BYTE   W06
 BYTE   Cn4
 BYTE   W06
 BYTE   N44  Cs4
 BYTE   W42
 BYTE   PEND 
 BYTE   PATT
  POIN2 Label_3_017EBE25
// 117   ----------------------------------------
 BYTE   W06
 BYTE   N32  Cs4  v068
 BYTE   W36
 BYTE   N05  Cn4
 BYTE   W06
 BYTE   As3
 BYTE   W06
 BYTE   N92  Cn4
 BYTE   W42
// 118   ----------------------------------------
 BYTE   W96
// 119   ----------------------------------------
 BYTE   W06
 BYTE   N23  Fn4  v060
 BYTE   W24
 BYTE   Gn4
 BYTE   W24
 BYTE   N32  Gs4
 BYTE   W36
 BYTE   N11  Ds4
 BYTE   W06
// 120   ----------------------------------------
 BYTE   W06
 BYTE   N92  Dn4
 BYTE   W90
// 121   ----------------------------------------
 BYTE   W06
 BYTE   N23  Ds4
 BYTE   W24
 BYTE   Fn4
 BYTE   W24
 BYTE   N32  Gn4
 BYTE   W36
 BYTE   N11  Cs4
 BYTE   W06
// 122   ----------------------------------------
 BYTE   W06
 BYTE   N92  Cn4
 BYTE   W90
// 123   ----------------------------------------
 BYTE   W06
 BYTE   N56  As3
 BYTE   W60
 BYTE   N11  Gs3
 BYTE   W12
 BYTE   As3
 BYTE   W12
 BYTE   Cs4
 BYTE   W06
// 124   ----------------------------------------
 BYTE   W06
 BYTE   N23  Cn4
 BYTE   W24
 BYTE   Gs3
 BYTE   W24
 BYTE   N32  As3
 BYTE   W36
 BYTE   N11  Cn4
 BYTE   W06
// 125   ----------------------------------------
 BYTE   W06
 BYTE   TIE  Gs3
 BYTE   W90
// 126   ----------------------------------------
 BYTE   W88
 BYTE   W01
 BYTE   EOT
 BYTE   W07
// 127   ----------------------------------------
Label_3_017EBE86:
 BYTE   W06
 BYTE   N23  Bn3  v056
 BYTE   W24
 BYTE   N07
 BYTE   W08
 BYTE   Gs3
 BYTE   W08
 BYTE   Bn3
 BYTE   W08
 BYTE   N44  Cs4
 BYTE   W42
 BYTE   PEND 
// 128   ----------------------------------------
Label_3_017EBE95:
 BYTE   W30
 BYTE   N07  Bn3  v056
 BYTE   W08
 BYTE   Cs4
 BYTE   W08
 BYTE   Bn3
 BYTE   W08
 BYTE   N15  En4
 BYTE   W16
 BYTE   Ds4
 BYTE   W16
 BYTE   Cs4
 BYTE   W10
 BYTE   PEND 
 BYTE   PATT
  POIN2 Label_3_017EBE86
 BYTE   PATT
  POIN2 Label_3_017EBE95
// 129   ----------------------------------------
Label_3_017EBEB0:
 BYTE   W06
 BYTE   N23  Dn4  v056
 BYTE   W24
 BYTE   N07
 BYTE   W08
 BYTE   Bn3
 BYTE   W08
 BYTE   Dn4
 BYTE   W08
 BYTE   N44  En4
 BYTE   W42
 BYTE   PEND 
// 130   ----------------------------------------
Label_3_017EBEBF:
 BYTE   W30
 BYTE   N07  Dn4  v056
 BYTE   W08
 BYTE   En4
 BYTE   W08
 BYTE   Dn4
 BYTE   W08
 BYTE   N15  Gn4
 BYTE   W16
 BYTE   Fs4
 BYTE   W16
 BYTE   En4
 BYTE   W10
 BYTE   PEND 
 BYTE   PATT
  POIN2 Label_3_017EBEB0
 BYTE   PATT
  POIN2 Label_3_017EBEBF
// 131   ----------------------------------------
 BYTE   W06
 BYTE   TIE  Fs4  v060
 BYTE   W90
// 132   ----------------------------------------
 BYTE   W96
// 133   ----------------------------------------
 BYTE   W05
 BYTE   EOT
 BYTE   W01
 BYTE   N23  Bn2
 BYTE   W24
 BYTE   Fs2
 BYTE   W24
 BYTE   Bn2
 BYTE   W24
 BYTE   Ds3
 BYTE   W18
// 134   ----------------------------------------
 BYTE   W06
 BYTE   N92  Cs3
 BYTE   W90
// 135   ----------------------------------------
Label_3_017EBEF0:
 BYTE   W06
 BYTE   N44  As3  v060
 BYTE   W48
 BYTE   N23  Fs3
 BYTE   W24
 BYTE   En3
 BYTE   W18
 BYTE   PEND 
// 136   ----------------------------------------
 BYTE   W06
 BYTE   N92  Ds3
 BYTE   W90
// 137   ----------------------------------------
 BYTE   W06
 BYTE   N44  Gs2
 BYTE   W48
 BYTE   N23  Bn2
 BYTE   W24
 BYTE   Ds3
 BYTE   W18
// 138   ----------------------------------------
 BYTE   W06
 BYTE   N44  Cs3
 BYTE   W48
 BYTE   Bn2
 BYTE   W42
// 139   ----------------------------------------
 BYTE   W06
 BYTE   Fs2
 BYTE   W48
 BYTE   N23  Cs3
 BYTE   W24
 BYTE   Bn2
 BYTE   W18
// 140   ----------------------------------------
 BYTE   W06
 BYTE   As2
 BYTE   W24
 BYTE   N68  Cs3
 BYTE   W66
// 141   ----------------------------------------
 BYTE   W06
 BYTE   N23  Bn2
 BYTE   W24
 BYTE   Fs2
 BYTE   W24
 BYTE   Bn2
 BYTE   W24
 BYTE   Ds3
 BYTE   W18
// 142   ----------------------------------------
 BYTE   W06
 BYTE   N92  Cs3
 BYTE   W90
 BYTE   PATT
  POIN2 Label_3_017EBEF0
// 143   ----------------------------------------
 BYTE   W06
 BYTE   N92  Ds3  v060
 BYTE   W90
// 144   ----------------------------------------
 BYTE   W06
 BYTE   N23  Bn2
 BYTE   W24
 BYTE   As2
 BYTE   W24
 BYTE   Bn2
 BYTE   W24
 BYTE   Gs2
 BYTE   W18
// 145   ----------------------------------------
 BYTE   W06
 BYTE   N44  Bn2
 BYTE   W48
 BYTE   As2
 BYTE   W42
// 146   ----------------------------------------
 BYTE   W06
 BYTE   Fs2
 BYTE   W48
 BYTE   N68  Bn2
 BYTE   W42
// 147   ----------------------------------------
 BYTE   W30
 BYTE   N07  Bn3  v068
 BYTE   W08
 BYTE   Fs3
 BYTE   W08
 BYTE   Bn3
 BYTE   W08
 BYTE   Ds4
 BYTE   W08
 BYTE   Bn3
 BYTE   W08
 BYTE   Ds4
 BYTE   W08
 BYTE   Fs4
 BYTE   W08
 BYTE   Ds4
 BYTE   W08
 BYTE   Fs4
 BYTE   W02
// 148   ----------------------------------------
Label_3_017EBF5F:
 BYTE   W06
 BYTE   N23  Gn4  v068
 BYTE   W24
 BYTE   N07
 BYTE   W08
 BYTE   An4
 BYTE   W08
 BYTE   Bn4
 BYTE   W08
 BYTE   N23  An4
 BYTE   W24
 BYTE   Gn4
 BYTE   W18
 BYTE   PEND 
// 149   ----------------------------------------
 BYTE   W06
 BYTE   N07  Fs4
 BYTE   W16
 BYTE   Bn3
 BYTE   W08
 BYTE   N44
 BYTE   W48
 BYTE   N07  Ds4
 BYTE   W08
 BYTE   En4
 BYTE   W08
 BYTE   Fs4
 BYTE   W02
 BYTE   PATT
  POIN2 Label_3_017EBF5F
// 150   ----------------------------------------
 BYTE   W06
 BYTE   N07  Fs4  v068
 BYTE   W16
 BYTE   Bn4
 BYTE   W08
 BYTE   N68
 BYTE   W66
// 151   ----------------------------------------
 BYTE   W06
 BYTE   N23  Ds3  v060
 BYTE   W24
 BYTE   N07
 BYTE   W08
 BYTE   Fs3
 BYTE   W08
 BYTE   Gs3
 BYTE   W08
 BYTE   N44  Fn3
 BYTE   W42
// 152   ----------------------------------------
 BYTE   W06
 BYTE   N23  Cs3
 BYTE   W24
 BYTE   N07
 BYTE   W08
 BYTE   Ds3
 BYTE   W08
 BYTE   Fs3
 BYTE   W08
 BYTE   N44  Ds3
 BYTE   W42
// 153   ----------------------------------------
 BYTE   W06
 BYTE   Cs3
 BYTE   W48
 BYTE   En3
 BYTE   W42
// 154   ----------------------------------------
 BYTE   W06
 BYTE   N23  Gs3
 BYTE   W24
 BYTE   N68  Gs2
 BYTE   W66
// 155   ----------------------------------------
 BYTE   W96
// 156   ----------------------------------------
 BYTE   W30
 BYTE   N07  As3
 BYTE   W08
 BYTE   Gs3
 BYTE   W08
 BYTE   As3
 BYTE   W08
 BYTE   Bn3
 BYTE   W08
 BYTE   As3
 BYTE   W08
 BYTE   Bn3
 BYTE   W08
 BYTE   Cs4
 BYTE   W08
 BYTE   Ds4
 BYTE   W08
 BYTE   En4
 BYTE   W02
// 157   ----------------------------------------
Label_3_017EBFC9:
 BYTE   W06
 BYTE   N23  Ds4  v060
 BYTE   W24
 BYTE   Bn3
 BYTE   W24
 BYTE   Ds4
 BYTE   W24
 BYTE   Fs4
 BYTE   W18
 BYTE   PEND 
// 158   ----------------------------------------
Label_3_017EBFD5:
 BYTE   W06
 BYTE   N44  Fn4  v060
 BYTE   W48
 BYTE   N23  Fs4
 BYTE   W24
 BYTE   Gs4
 BYTE   W18
 BYTE   PEND 
// 159   ----------------------------------------
Label_3_017EBFE0:
 BYTE   W06
 BYTE   N23  As4  v060
 BYTE   W24
 BYTE   Gs4
 BYTE   W24
 BYTE   Fs4
 BYTE   W24
 BYTE   En4
 BYTE   W18
 BYTE   PEND 
// 160   ----------------------------------------
Label_3_017EBFEC:
 BYTE   W06
 BYTE   N44  Ds4  v060
 BYTE   W48
 BYTE   Cs4
 BYTE   W42
 BYTE   PEND 
// 161   ----------------------------------------
 BYTE   W06
 BYTE   N23  As3
 BYTE   W24
 BYTE   Bn3
 BYTE   W24
 BYTE   Ds4
 BYTE   W24
 BYTE   Gs4
 BYTE   W18
// 162   ----------------------------------------
 BYTE   W06
 BYTE   N44  Fs4
 BYTE   W48
 BYTE   Fn4
 BYTE   W42
// 163   ----------------------------------------
 BYTE   W06
 BYTE   N92  Fs4
 BYTE   W90
// 164   ----------------------------------------
 BYTE   W30
 BYTE   N23  As3
 BYTE   W24
 BYTE   Bn3
 BYTE   W24
 BYTE   Cs4
 BYTE   W18
 BYTE   PATT
  POIN2 Label_3_017EBFC9
 BYTE   PATT
  POIN2 Label_3_017EBFD5
 BYTE   PATT
  POIN2 Label_3_017EBFE0
 BYTE   PATT
  POIN2 Label_3_017EBFEC
// 165   ----------------------------------------
 BYTE   W06
 BYTE   N23  Bn3  v060
 BYTE   W24
 BYTE   Cs4
 BYTE   W24
 BYTE   Ds4
 BYTE   W24
 BYTE   Bn3
 BYTE   W18
// 166   ----------------------------------------
 BYTE   W06
 BYTE   N68  Cs4
 BYTE   W72
 BYTE   N23  Ds4
 BYTE   W18
// 167   ----------------------------------------
 BYTE   W06
 BYTE   N92  Bn3
 BYTE   W90
// 168   ----------------------------------------
 BYTE   W96
// 169   ----------------------------------------
 BYTE   W96
// 170   ----------------------------------------
 BYTE   W96
// 171   ----------------------------------------
 BYTE   W96
// 172   ----------------------------------------
 BYTE   W96
// 173   ----------------------------------------
 BYTE   W96
// 174   ----------------------------------------
 BYTE   W96
// 175   ----------------------------------------
 BYTE   W96
// 176   ----------------------------------------
 BYTE   W96
// 177   ----------------------------------------
 BYTE   W96
// 178   ----------------------------------------
 BYTE   W96
 BYTE   FINE

//**************** Track 5 (Midi-Chn.4) ****************//

RomancingSaga2EndingExtraLong7743_005:
// 000   ----------------------------------------
 BYTE   KEYSH   RomancingSaga2EndingExtraLong7743_key+0
 BYTE   VOICE   40
 BYTE   VOL   35*RomancingSaga2EndingExtraLong7743_mvl/mxv
 BYTE   PAN   c_v+0
 BYTE   N72  Fs1  v100
 BYTE   W72
 BYTE   N08
 BYTE   W08
 BYTE   As1
 BYTE   W08
 BYTE   Fs1
 BYTE   W08
// 001   ----------------------------------------
Label_4_017EC062:
 BYTE   N48  As1  v100
 BYTE   W48
 BYTE   N16  Fs1
 BYTE   W16
 BYTE   As1
 BYTE   W16
 BYTE   Fs1
 BYTE   W16
 BYTE   PEND 
// 002   ----------------------------------------
 BYTE   N72
 BYTE   W72
 BYTE   N08
 BYTE   W08
 BYTE   As1
 BYTE   W08
 BYTE   Fs1
 BYTE   W08
 BYTE   PATT
  POIN2 Label_4_017EC062
// 003   ----------------------------------------
Label_4_017EC07B:
 BYTE   N72  An1  v104
 BYTE   W72
 BYTE   N08  En1
 BYTE   W08
 BYTE   An1
 BYTE   W08
 BYTE   En1
 BYTE   W08
 BYTE   PEND 
// 004   ----------------------------------------
Label_4_017EC087:
 BYTE   N48  An1  v104
 BYTE   W48
 BYTE   N16  En1
 BYTE   W16
 BYTE   An1
 BYTE   W16
 BYTE   En1
 BYTE   W16
 BYTE   PEND 
 BYTE   PATT
  POIN2 Label_4_017EC07B
 BYTE   PATT
  POIN2 Label_4_017EC087
// 005   ----------------------------------------
Label_4_017EC09D:
 BYTE   N32  Bn1  v108
 BYTE   W32
 BYTE   N08
 BYTE   W08
 BYTE   Fs1
 BYTE   W08
 BYTE   N32  Bn1
 BYTE   W32
 BYTE   N08
 BYTE   W08
 BYTE   Fs1
 BYTE   W08
 BYTE   PEND 
// 006   ----------------------------------------
Label_4_017EC0AD:
 BYTE   N24  Bn1  v108
 BYTE   W24
 BYTE   Fs1
 BYTE   W24
 BYTE   Bn1
 BYTE   W24
 BYTE   Fs1
 BYTE   W24
 BYTE   PEND 
// 007   ----------------------------------------
Label_4_017EC0B8:
 BYTE   N24  Bn1  v108
 BYTE   W24
 BYTE   N36  Fs1
 BYTE   W36
 BYTE   N24  Bn1
 BYTE   W24
 BYTE   N12  Fs1
 BYTE   W12
 BYTE   PEND 
// 008   ----------------------------------------
Label_4_017EC0C6:
 BYTE   N24  Bn1  v108
 BYTE   W24
 BYTE   N12  Fs1
 BYTE   W12
 BYTE   N24  Bn1
 BYTE   W24
 BYTE   N12  Fs1
 BYTE   W12
 BYTE   Bn1
 BYTE   W12
 BYTE   Fs1
 BYTE   W12
 BYTE   PEND 
 BYTE   PATT
  POIN2 Label_4_017EC0B8
 BYTE   PATT
  POIN2 Label_4_017EC0C6
 BYTE   PATT
  POIN2 Label_4_017EC0B8
 BYTE   PATT
  POIN2 Label_4_017EC0C6
 BYTE   PATT
  POIN2 Label_4_017EC0B8
 BYTE   PATT
  POIN2 Label_4_017EC0C6
// 009   ----------------------------------------
Label_4_017EC0F6:
 BYTE   N24  An1  v108
 BYTE   W24
 BYTE   N12  En1
 BYTE   W12
 BYTE   N24  An1
 BYTE   W24
 BYTE   N24
 BYTE   W24
 BYTE   N12  En1
 BYTE   W12
 BYTE   PEND 
// 010   ----------------------------------------
Label_4_017EC106:
 BYTE   N48  An1  v108
 BYTE   W48
 BYTE   N16
 BYTE   W16
 BYTE   En1
 BYTE   W16
 BYTE   N16
 BYTE   W16
 BYTE   PEND 
// 011   ----------------------------------------
Label_4_017EC111:
 BYTE   N24  Bn1  v108
 BYTE   W24
 BYTE   N12  En1
 BYTE   W12
 BYTE   N24  Bn1
 BYTE   W24
 BYTE   N24
 BYTE   W24
 BYTE   N12  En1
 BYTE   W12
 BYTE   PEND 
// 012   ----------------------------------------
Label_4_017EC121:
 BYTE   N48  Bn1  v108
 BYTE   W48
 BYTE   N16
 BYTE   W16
 BYTE   Gn1
 BYTE   W16
 BYTE   En1
 BYTE   W16
 BYTE   PEND 
// 013   ----------------------------------------
Label_4_017EC12C:
 BYTE   N24  An1  v108
 BYTE   W24
 BYTE   N36  Dn1
 BYTE   W36
 BYTE   N24  An1
 BYTE   W24
 BYTE   N12  Dn1
 BYTE   W12
 BYTE   PEND 
// 014   ----------------------------------------
Label_4_017EC13A:
 BYTE   N24  Gn1  v108
 BYTE   W24
 BYTE   N12  Cn1
 BYTE   W12
 BYTE   N24  Gn1
 BYTE   W24
 BYTE   N12  Cn1
 BYTE   W12
 BYTE   Gn1
 BYTE   W12
 BYTE   Cn1
 BYTE   W12
 BYTE   PEND 
// 015   ----------------------------------------
Label_4_017EC14C:
 BYTE   N24  Fs1  v108
 BYTE   W24
 BYTE   N36
 BYTE   W36
 BYTE   N24  Bn1
 BYTE   W24
 BYTE   N12  Fs1
 BYTE   W12
 BYTE   PEND 
// 016   ----------------------------------------
Label_4_017EC159:
 BYTE   N08  As1  v108
 BYTE   W08
 BYTE   Fs1
 BYTE   W08
 BYTE   N08
 BYTE   W08
 BYTE   N40  As1
 BYTE   W40
 BYTE   N16
 BYTE   W16
 BYTE   Fs1
 BYTE   W16
 BYTE   PEND 
 BYTE   PATT
  POIN2 Label_4_017EC0B8
 BYTE   PATT
  POIN2 Label_4_017EC0C6
 BYTE   PATT
  POIN2 Label_4_017EC0B8
 BYTE   PATT
  POIN2 Label_4_017EC0C6
 BYTE   PATT
  POIN2 Label_4_017EC0B8
 BYTE   PATT
  POIN2 Label_4_017EC0C6
 BYTE   PATT
  POIN2 Label_4_017EC0B8
 BYTE   PATT
  POIN2 Label_4_017EC0C6
 BYTE   PATT
  POIN2 Label_4_017EC0F6
 BYTE   PATT
  POIN2 Label_4_017EC106
 BYTE   PATT
  POIN2 Label_4_017EC111
 BYTE   PATT
  POIN2 Label_4_017EC121
 BYTE   PATT
  POIN2 Label_4_017EC12C
 BYTE   PATT
  POIN2 Label_4_017EC13A
 BYTE   PATT
  POIN2 Label_4_017EC14C
// 017   ----------------------------------------
Label_4_017EC1B4:
 BYTE   N04  Fs1  v060
 BYTE   W04
 BYTE   Fs1  v064
 BYTE   W04
 BYTE   Fs1  v068
 BYTE   W04
 BYTE   Fs1  v072
 BYTE   W04
 BYTE   Fs1  v076
 BYTE   W04
 BYTE   Fs1  v080
 BYTE   W04
 BYTE   Fs1  v084
 BYTE   W04
 BYTE   Fs1  v088
 BYTE   W04
 BYTE   Fs1  v092
 BYTE   W04
 BYTE   Fs1  v096
 BYTE   W04
 BYTE   Fs1  v100
 BYTE   W04
 BYTE   Fs1  v104
 BYTE   W04
 BYTE   N24  Fs1  v108
 BYTE   W24
 BYTE   N08  Fs1  v104
 BYTE   W08
 BYTE   N08
 BYTE   W08
 BYTE   N08
 BYTE   W08
 BYTE   PEND 
// 018   ----------------------------------------
Label_4_017EC1E6:
 BYTE   N24  En1  v108
 BYTE   W24
 BYTE   N36  Bn0
 BYTE   W36
 BYTE   N24  En1
 BYTE   W24
 BYTE   N12  Bn0
 BYTE   W12
 BYTE   PEND 
// 019   ----------------------------------------
Label_4_017EC1F4:
 BYTE   N24  Fs1  v108
 BYTE   W24
 BYTE   Cs1
 BYTE   W24
 BYTE   Fs1
 BYTE   W24
 BYTE   Cs1
 BYTE   W24
 BYTE   PEND 
// 020   ----------------------------------------
Label_4_017EC1FF:
 BYTE   N24  As1  v108
 BYTE   W24
 BYTE   N36  Ds1
 BYTE   W36
 BYTE   N24  As1
 BYTE   W24
 BYTE   N12  Ds1
 BYTE   W12
 BYTE   PEND 
// 021   ----------------------------------------
Label_4_017EC20D:
 BYTE   N24  Gs1  v108
 BYTE   W24
 BYTE   Ds1
 BYTE   W24
 BYTE   Gs1
 BYTE   W24
 BYTE   Ds1
 BYTE   W24
 BYTE   PEND 
// 022   ----------------------------------------
Label_4_017EC218:
 BYTE   N24  Gs1  v108
 BYTE   W24
 BYTE   N36  Cs1
 BYTE   W36
 BYTE   N24  Gs1
 BYTE   W24
 BYTE   N12  Cs1
 BYTE   W12
 BYTE   PEND 
// 023   ----------------------------------------
Label_4_017EC226:
 BYTE   N24  Gs1  v108
 BYTE   W24
 BYTE   Cs1
 BYTE   W24
 BYTE   Fs1
 BYTE   W24
 BYTE   Cs1
 BYTE   W24
 BYTE   PEND 
// 024   ----------------------------------------
Label_4_017EC231:
 BYTE   N24  Gs1  v108
 BYTE   W24
 BYTE   N36  Ds1
 BYTE   W36
 BYTE   N24  Gs1
 BYTE   W24
 BYTE   N12  Ds1
 BYTE   W12
 BYTE   PEND 
// 025   ----------------------------------------
Label_4_017EC23F:
 BYTE   N60  Gs1  v108
 BYTE   W60
 BYTE   N06
 BYTE   W06
 BYTE   Ds1
 BYTE   W06
 BYTE   N12  Gs1
 BYTE   W12
 BYTE   Ds1
 BYTE   W12
 BYTE   PEND 
 BYTE   PATT
  POIN2 Label_4_017EC218
// 026   ----------------------------------------
Label_4_017EC252:
 BYTE   N24  As1  v108
 BYTE   W24
 BYTE   Ds1
 BYTE   W24
 BYTE   As1
 BYTE   W24
 BYTE   Ds1
 BYTE   W24
 BYTE   PEND 
// 027   ----------------------------------------
Label_4_017EC25D:
 BYTE   N36  Gs1  v108
 BYTE   W36
 BYTE   N06
 BYTE   W06
 BYTE   Ds1
 BYTE   W06
 BYTE   N36  Gn1
 BYTE   W36
 BYTE   N06
 BYTE   W06
 BYTE   Ds1
 BYTE   W06
 BYTE   PEND 
// 028   ----------------------------------------
Label_4_017EC26D:
 BYTE   N06  As1  v108
 BYTE   W06
 BYTE   N06
 BYTE   W06
 BYTE   N06
 BYTE   W06
 BYTE   N06
 BYTE   W06
 BYTE   N40
 BYTE   W40
 BYTE   N16
 BYTE   W16
 BYTE   Ds1
 BYTE   W16
 BYTE   PEND 
// 029   ----------------------------------------
Label_4_017EC27E:
 BYTE   N24  Bn1  v108
 BYTE   W24
 BYTE   N36  En1
 BYTE   W36
 BYTE   N24  As1
 BYTE   W24
 BYTE   N12  Ds1
 BYTE   W12
 BYTE   PEND 
// 030   ----------------------------------------
Label_4_017EC28C:
 BYTE   N24  Bn1  v108
 BYTE   W24
 BYTE   En1
 BYTE   W24
 BYTE   Bn1
 BYTE   W24
 BYTE   Fn1
 BYTE   W24
 BYTE   PEND 
// 031   ----------------------------------------
Label_4_017EC297:
 BYTE   N36  As1  v108
 BYTE   W36
 BYTE   N06
 BYTE   W06
 BYTE   Fs1
 BYTE   W06
 BYTE   N36  As1
 BYTE   W36
 BYTE   N06
 BYTE   W06
 BYTE   Fs1
 BYTE   W06
 BYTE   PEND 
// 032   ----------------------------------------
Label_4_017EC2A7:
 BYTE   N24  As1  v108
 BYTE   W24
 BYTE   Fs1
 BYTE   W24
 BYTE   As1
 BYTE   W24
 BYTE   Fs1
 BYTE   W24
 BYTE   PEND 
 BYTE   PATT
  POIN2 Label_4_017EC0B8
 BYTE   PATT
  POIN2 Label_4_017EC0C6
 BYTE   PATT
  POIN2 Label_4_017EC0B8
 BYTE   PATT
  POIN2 Label_4_017EC0C6
 BYTE   PATT
  POIN2 Label_4_017EC0B8
 BYTE   PATT
  POIN2 Label_4_017EC0C6
 BYTE   PATT
  POIN2 Label_4_017EC0B8
 BYTE   PATT
  POIN2 Label_4_017EC0C6
 BYTE   PATT
  POIN2 Label_4_017EC0F6
 BYTE   PATT
  POIN2 Label_4_017EC106
 BYTE   PATT
  POIN2 Label_4_017EC111
 BYTE   PATT
  POIN2 Label_4_017EC121
 BYTE   PATT
  POIN2 Label_4_017EC12C
 BYTE   PATT
  POIN2 Label_4_017EC13A
 BYTE   PATT
  POIN2 Label_4_017EC14C
 BYTE   PATT
  POIN2 Label_4_017EC159
 BYTE   PATT
  POIN2 Label_4_017EC0B8
 BYTE   PATT
  POIN2 Label_4_017EC0C6
 BYTE   PATT
  POIN2 Label_4_017EC0B8
 BYTE   PATT
  POIN2 Label_4_017EC0C6
 BYTE   PATT
  POIN2 Label_4_017EC0B8
 BYTE   PATT
  POIN2 Label_4_017EC0C6
 BYTE   PATT
  POIN2 Label_4_017EC0B8
 BYTE   PATT
  POIN2 Label_4_017EC0C6
 BYTE   PATT
  POIN2 Label_4_017EC0F6
 BYTE   PATT
  POIN2 Label_4_017EC106
 BYTE   PATT
  POIN2 Label_4_017EC111
 BYTE   PATT
  POIN2 Label_4_017EC121
 BYTE   PATT
  POIN2 Label_4_017EC12C
 BYTE   PATT
  POIN2 Label_4_017EC13A
 BYTE   PATT
  POIN2 Label_4_017EC14C
 BYTE   PATT
  POIN2 Label_4_017EC1B4
 BYTE   PATT
  POIN2 Label_4_017EC1E6
 BYTE   PATT
  POIN2 Label_4_017EC1F4
 BYTE   PATT
  POIN2 Label_4_017EC1FF
 BYTE   PATT
  POIN2 Label_4_017EC20D
 BYTE   PATT
  POIN2 Label_4_017EC218
 BYTE   PATT
  POIN2 Label_4_017EC226
 BYTE   PATT
  POIN2 Label_4_017EC231
 BYTE   PATT
  POIN2 Label_4_017EC23F
 BYTE   PATT
  POIN2 Label_4_017EC218
 BYTE   PATT
  POIN2 Label_4_017EC252
 BYTE   PATT
  POIN2 Label_4_017EC25D
 BYTE   PATT
  POIN2 Label_4_017EC26D
 BYTE   PATT
  POIN2 Label_4_017EC0B8
 BYTE   PATT
  POIN2 Label_4_017EC0C6
 BYTE   PATT
  POIN2 Label_4_017EC0B8
 BYTE   PATT
  POIN2 Label_4_017EC0C6
 BYTE   PATT
  POIN2 Label_4_017EC0B8
 BYTE   PATT
  POIN2 Label_4_017EC0C6
 BYTE   PATT
  POIN2 Label_4_017EC0B8
 BYTE   PATT
  POIN2 Label_4_017EC0C6
 BYTE   PATT
  POIN2 Label_4_017EC0F6
 BYTE   PATT
  POIN2 Label_4_017EC106
 BYTE   PATT
  POIN2 Label_4_017EC111
 BYTE   PATT
  POIN2 Label_4_017EC121
 BYTE   PATT
  POIN2 Label_4_017EC12C
 BYTE   PATT
  POIN2 Label_4_017EC13A
 BYTE   PATT
  POIN2 Label_4_017EC14C
 BYTE   PATT
  POIN2 Label_4_017EC159
 BYTE   PATT
  POIN2 Label_4_017EC0B8
 BYTE   PATT
  POIN2 Label_4_017EC0C6
 BYTE   PATT
  POIN2 Label_4_017EC0B8
 BYTE   PATT
  POIN2 Label_4_017EC0C6
 BYTE   PATT
  POIN2 Label_4_017EC0B8
 BYTE   PATT
  POIN2 Label_4_017EC0C6
 BYTE   PATT
  POIN2 Label_4_017EC0B8
 BYTE   PATT
  POIN2 Label_4_017EC0C6
 BYTE   PATT
  POIN2 Label_4_017EC0F6
 BYTE   PATT
  POIN2 Label_4_017EC106
 BYTE   PATT
  POIN2 Label_4_017EC111
 BYTE   PATT
  POIN2 Label_4_017EC121
 BYTE   PATT
  POIN2 Label_4_017EC12C
 BYTE   PATT
  POIN2 Label_4_017EC13A
 BYTE   PATT
  POIN2 Label_4_017EC14C
 BYTE   PATT
  POIN2 Label_4_017EC1B4
 BYTE   PATT
  POIN2 Label_4_017EC1E6
 BYTE   PATT
  POIN2 Label_4_017EC1F4
 BYTE   PATT
  POIN2 Label_4_017EC1FF
 BYTE   PATT
  POIN2 Label_4_017EC20D
 BYTE   PATT
  POIN2 Label_4_017EC218
 BYTE   PATT
  POIN2 Label_4_017EC226
 BYTE   PATT
  POIN2 Label_4_017EC231
 BYTE   PATT
  POIN2 Label_4_017EC23F
 BYTE   PATT
  POIN2 Label_4_017EC218
 BYTE   PATT
  POIN2 Label_4_017EC252
 BYTE   PATT
  POIN2 Label_4_017EC25D
 BYTE   PATT
  POIN2 Label_4_017EC26D
 BYTE   PATT
  POIN2 Label_4_017EC27E
 BYTE   PATT
  POIN2 Label_4_017EC28C
 BYTE   PATT
  POIN2 Label_4_017EC297
 BYTE   PATT
  POIN2 Label_4_017EC2A7
 BYTE   PATT
  POIN2 Label_4_017EC0B8
 BYTE   PATT
  POIN2 Label_4_017EC0C6
 BYTE   PATT
  POIN2 Label_4_017EC0B8
 BYTE   PATT
  POIN2 Label_4_017EC0C6
 BYTE   PATT
  POIN2 Label_4_017EC0B8
 BYTE   PATT
  POIN2 Label_4_017EC0C6
 BYTE   PATT
  POIN2 Label_4_017EC0B8
 BYTE   PATT
  POIN2 Label_4_017EC0C6
 BYTE   PATT
  POIN2 Label_4_017EC0F6
 BYTE   PATT
  POIN2 Label_4_017EC106
 BYTE   PATT
  POIN2 Label_4_017EC111
 BYTE   PATT
  POIN2 Label_4_017EC121
 BYTE   PATT
  POIN2 Label_4_017EC12C
 BYTE   PATT
  POIN2 Label_4_017EC13A
 BYTE   PATT
  POIN2 Label_4_017EC14C
 BYTE   PATT
  POIN2 Label_4_017EC159
 BYTE   PATT
  POIN2 Label_4_017EC0B8
 BYTE   PATT
  POIN2 Label_4_017EC0C6
 BYTE   PATT
  POIN2 Label_4_017EC0B8
 BYTE   PATT
  POIN2 Label_4_017EC0C6
 BYTE   PATT
  POIN2 Label_4_017EC0B8
 BYTE   PATT
  POIN2 Label_4_017EC0C6
 BYTE   PATT
  POIN2 Label_4_017EC0B8
 BYTE   PATT
  POIN2 Label_4_017EC0C6
 BYTE   PATT
  POIN2 Label_4_017EC0F6
 BYTE   PATT
  POIN2 Label_4_017EC106
 BYTE   PATT
  POIN2 Label_4_017EC111
 BYTE   PATT
  POIN2 Label_4_017EC121
 BYTE   PATT
  POIN2 Label_4_017EC12C
 BYTE   PATT
  POIN2 Label_4_017EC13A
 BYTE   PATT
  POIN2 Label_4_017EC14C
 BYTE   PATT
  POIN2 Label_4_017EC1B4
 BYTE   PATT
  POIN2 Label_4_017EC1E6
 BYTE   PATT
  POIN2 Label_4_017EC1F4
 BYTE   PATT
  POIN2 Label_4_017EC1FF
 BYTE   PATT
  POIN2 Label_4_017EC20D
 BYTE   PATT
  POIN2 Label_4_017EC218
 BYTE   PATT
  POIN2 Label_4_017EC226
 BYTE   PATT
  POIN2 Label_4_017EC231
 BYTE   PATT
  POIN2 Label_4_017EC23F
 BYTE   PATT
  POIN2 Label_4_017EC218
 BYTE   PATT
  POIN2 Label_4_017EC252
 BYTE   PATT
  POIN2 Label_4_017EC25D
 BYTE   PATT
  POIN2 Label_4_017EC26D
 BYTE   PATT
  POIN2 Label_4_017EC27E
 BYTE   PATT
  POIN2 Label_4_017EC28C
 BYTE   PATT
  POIN2 Label_4_017EC297
 BYTE   PATT
  POIN2 Label_4_017EC2A7
 BYTE   PATT
  POIN2 Label_4_017EC0B8
 BYTE   PATT
  POIN2 Label_4_017EC0C6
 BYTE   PATT
  POIN2 Label_4_017EC0B8
 BYTE   PATT
  POIN2 Label_4_017EC0C6
 BYTE   PATT
  POIN2 Label_4_017EC0B8
 BYTE   PATT
  POIN2 Label_4_017EC0C6
 BYTE   PATT
  POIN2 Label_4_017EC0B8
 BYTE   PATT
  POIN2 Label_4_017EC0C6
 BYTE   PATT
  POIN2 Label_4_017EC0F6
 BYTE   PATT
  POIN2 Label_4_017EC106
 BYTE   PATT
  POIN2 Label_4_017EC111
 BYTE   PATT
  POIN2 Label_4_017EC121
 BYTE   PATT
  POIN2 Label_4_017EC12C
 BYTE   PATT
  POIN2 Label_4_017EC13A
 BYTE   PATT
  POIN2 Label_4_017EC14C
 BYTE   PATT
  POIN2 Label_4_017EC159
 BYTE   PATT
  POIN2 Label_4_017EC0B8
 BYTE   PATT
  POIN2 Label_4_017EC0C6
 BYTE   PATT
  POIN2 Label_4_017EC0B8
 BYTE   PATT
  POIN2 Label_4_017EC0C6
 BYTE   PATT
  POIN2 Label_4_017EC0B8
 BYTE   PATT
  POIN2 Label_4_017EC0C6
 BYTE   PATT
  POIN2 Label_4_017EC0B8
 BYTE   PATT
  POIN2 Label_4_017EC0C6
 BYTE   PATT
  POIN2 Label_4_017EC0F6
 BYTE   PATT
  POIN2 Label_4_017EC106
 BYTE   PATT
  POIN2 Label_4_017EC111
 BYTE   PATT
  POIN2 Label_4_017EC121
 BYTE   PATT
  POIN2 Label_4_017EC12C
 BYTE   PATT
  POIN2 Label_4_017EC13A
 BYTE   PATT
  POIN2 Label_4_017EC14C
 BYTE   PATT
  POIN2 Label_4_017EC1B4
 BYTE   PATT
  POIN2 Label_4_017EC1E6
 BYTE   PATT
  POIN2 Label_4_017EC1F4
 BYTE   PATT
  POIN2 Label_4_017EC1FF
 BYTE   PATT
  POIN2 Label_4_017EC20D
 BYTE   PATT
  POIN2 Label_4_017EC218
 BYTE   PATT
  POIN2 Label_4_017EC226
 BYTE   PATT
  POIN2 Label_4_017EC231
 BYTE   PATT
  POIN2 Label_4_017EC23F
 BYTE   PATT
  POIN2 Label_4_017EC218
 BYTE   PATT
  POIN2 Label_4_017EC252
 BYTE   PATT
  POIN2 Label_4_017EC25D
 BYTE   PATT
  POIN2 Label_4_017EC26D
 BYTE   PATT
  POIN2 Label_4_017EC27E
 BYTE   PATT
  POIN2 Label_4_017EC28C
 BYTE   PATT
  POIN2 Label_4_017EC297
 BYTE   PATT
  POIN2 Label_4_017EC2A7
 BYTE   PATT
  POIN2 Label_4_017EC0B8
 BYTE   PATT
  POIN2 Label_4_017EC0C6
 BYTE   PATT
  POIN2 Label_4_017EC0B8
 BYTE   PATT
  POIN2 Label_4_017EC0C6
 BYTE   PATT
  POIN2 Label_4_017EC0B8
 BYTE   PATT
  POIN2 Label_4_017EC0C6
 BYTE   PATT
  POIN2 Label_4_017EC0B8
 BYTE   PATT
  POIN2 Label_4_017EC0C6
 BYTE   PATT
  POIN2 Label_4_017EC0F6
 BYTE   PATT
  POIN2 Label_4_017EC106
 BYTE   PATT
  POIN2 Label_4_017EC111
 BYTE   PATT
  POIN2 Label_4_017EC121
 BYTE   PATT
  POIN2 Label_4_017EC12C
 BYTE   PATT
  POIN2 Label_4_017EC13A
 BYTE   PATT
  POIN2 Label_4_017EC14C
 BYTE   PATT
  POIN2 Label_4_017EC1B4
 BYTE   PATT
  POIN2 Label_4_017EC1E6
 BYTE   PATT
  POIN2 Label_4_017EC1F4
 BYTE   PATT
  POIN2 Label_4_017EC1FF
 BYTE   PATT
  POIN2 Label_4_017EC20D
 BYTE   PATT
  POIN2 Label_4_017EC218
 BYTE   PATT
  POIN2 Label_4_017EC226
 BYTE   PATT
  POIN2 Label_4_017EC231
 BYTE   PATT
  POIN2 Label_4_017EC23F
 BYTE   PATT
  POIN2 Label_4_017EC218
 BYTE   PATT
  POIN2 Label_4_017EC252
 BYTE   PATT
  POIN2 Label_4_017EC25D
 BYTE   PATT
  POIN2 Label_4_017EC26D
 BYTE   PATT
  POIN2 Label_4_017EC27E
 BYTE   PATT
  POIN2 Label_4_017EC28C
 BYTE   PATT
  POIN2 Label_4_017EC297
// 033   ----------------------------------------
 BYTE   N24  As1  v108
 BYTE   W24
 BYTE   Fs1
 BYTE   W24
 BYTE   As1
 BYTE   W24
 BYTE   N08  Fs1
 BYTE   W08
 BYTE   N08
 BYTE   W08
 BYTE   N08
 BYTE   W08
// 034   ----------------------------------------
 BYTE   TIE  Gs1
 BYTE   W96
// 035   ----------------------------------------
 BYTE   W96
// 036   ----------------------------------------
 BYTE   EOT
 BYTE   W96
// 037   ----------------------------------------
 BYTE   W96
// 038   ----------------------------------------
 BYTE   W96
// 039   ----------------------------------------
 BYTE   W96
// 040   ----------------------------------------
 BYTE   W96
// 041   ----------------------------------------
 BYTE   W96
// 042   ----------------------------------------
 BYTE   W96
// 043   ----------------------------------------
 BYTE   W96
// 044   ----------------------------------------
 BYTE   W96
// 045   ----------------------------------------
 BYTE   W96
// 046   ----------------------------------------
 BYTE   W96
// 047   ----------------------------------------
 BYTE   W96
// 048   ----------------------------------------
 BYTE   W96
// 049   ----------------------------------------
 BYTE   W96
// 050   ----------------------------------------
 BYTE   W96
// 051   ----------------------------------------
 BYTE   W96
// 052   ----------------------------------------
 BYTE   W96
// 053   ----------------------------------------
 BYTE   W48
 BYTE   N03  Ds1  v052
 BYTE   W03
 BYTE   Ds1  v056
 BYTE   W03
 BYTE   Ds1  v060
 BYTE   W03
 BYTE   N03
 BYTE   W03
 BYTE   Ds1  v064
 BYTE   W03
 BYTE   Ds1  v068
 BYTE   W03
 BYTE   Ds1  v072
 BYTE   W03
 BYTE   N03
 BYTE   W03
 BYTE   Ds1  v076
 BYTE   W03
 BYTE   Ds1  v080
 BYTE   W03
 BYTE   Ds1  v084
 BYTE   W03
 BYTE   N03
 BYTE   W03
 BYTE   Ds1  v088
 BYTE   W03
 BYTE   Ds1  v092
 BYTE   W03
 BYTE   Ds1  v096
 BYTE   W03
 BYTE   N03
 BYTE   W03
// 054   ----------------------------------------
Label_4_017EC74C:
 BYTE   N72  As1  v100
 BYTE   W72
 BYTE   N08  Fs1
 BYTE   W08
 BYTE   As1
 BYTE   W08
 BYTE   Fs1
 BYTE   W08
 BYTE   PEND 
// 055   ----------------------------------------
 BYTE   N96  As1
 BYTE   W96
 BYTE   PATT
  POIN2 Label_4_017EC74C
// 056   ----------------------------------------
 BYTE   N96  As1  v100
 BYTE   W96
 BYTE   PATT
  POIN2 Label_4_017EC07B
// 057   ----------------------------------------
 BYTE   N96  An1  v104
 BYTE   W96
 BYTE   PATT
  POIN2 Label_4_017EC07B
 BYTE   PATT
  POIN2 Label_4_017EC087
 BYTE   PATT
  POIN2 Label_4_017EC09D
// 058   ----------------------------------------
 BYTE   N24  En1  v108
 BYTE   W24
 BYTE   Fs1
 BYTE   W24
 BYTE   Gs1
 BYTE   W24
 BYTE   As1
 BYTE   W24
// 059   ----------------------------------------
 BYTE   W96
// 060   ----------------------------------------
 BYTE   W96
// 061   ----------------------------------------
 BYTE   W96
// 062   ----------------------------------------
 BYTE   W96
// 063   ----------------------------------------
 BYTE   W96
// 064   ----------------------------------------
 BYTE   W96
// 065   ----------------------------------------
 BYTE   W96
// 066   ----------------------------------------
 BYTE   W96
// 067   ----------------------------------------
 BYTE   W96
// 068   ----------------------------------------
 BYTE   W96
// 069   ----------------------------------------
 BYTE   W96
// 070   ----------------------------------------
 BYTE   W96
// 071   ----------------------------------------
 BYTE   W96
// 072   ----------------------------------------
 BYTE   W96
// 073   ----------------------------------------
 BYTE   W96
// 074   ----------------------------------------
 BYTE   W48
 BYTE   N03  Fs1  v092
 BYTE   W03
 BYTE   Fs1  v096
 BYTE   W03
 BYTE   N03
 BYTE   W03
 BYTE   N03
 BYTE   W03
 BYTE   N03
 BYTE   W03
 BYTE   Fs1  v100
 BYTE   W03
 BYTE   N03
 BYTE   W03
 BYTE   N03
 BYTE   W03
 BYTE   N03
 BYTE   W03
 BYTE   Fs1  v104
 BYTE   W03
 BYTE   N03
 BYTE   W03
 BYTE   N03
 BYTE   W03
 BYTE   N03
 BYTE   W03
 BYTE   Fs1  v108
 BYTE   W03
 BYTE   N03
 BYTE   W03
 BYTE   N03
 BYTE   W03
// 075   ----------------------------------------
Label_4_017EC7BC:
 BYTE   N32  Bn1  v108
 BYTE   W32
 BYTE   N08
 BYTE   W08
 BYTE   Dn1
 BYTE   W08
 BYTE   N72  As1
 BYTE   W48
 BYTE   PEND 
// 076   ----------------------------------------
 BYTE   W24
 BYTE   N24  Fs1
 BYTE   W24
 BYTE   Bn1
 BYTE   W24
 BYTE   N08  Fs1
 BYTE   W08
 BYTE   N08
 BYTE   W08
 BYTE   N08
 BYTE   W08
 BYTE   PATT
  POIN2 Label_4_017EC7BC
// 077   ----------------------------------------
 BYTE   W24
 BYTE   N24  Fs1  v108
 BYTE   W24
 BYTE   Bn1
 BYTE   W24
 BYTE   N08
 BYTE   W08
 BYTE   Fs1
 BYTE   W08
 BYTE   Bn1
 BYTE   W08
// 078   ----------------------------------------
 BYTE   W96
// 079   ----------------------------------------
 BYTE   W96
// 080   ----------------------------------------
 BYTE   W96
// 081   ----------------------------------------
 BYTE   W24
 BYTE   En1
 BYTE   W08
 BYTE   N08
 BYTE   W08
 BYTE   N08
 BYTE   W08
 BYTE   N16
 BYTE   W16
 BYTE   N08
 BYTE   W08
 BYTE   N24
 BYTE   W24
// 082   ----------------------------------------
 BYTE   N32  Fs1
 BYTE   W32
 BYTE   N08
 BYTE   W08
 BYTE   Cs1
 BYTE   W08
 BYTE   N32  Fs1
 BYTE   W32
 BYTE   N08
 BYTE   W08
 BYTE   Cs1
 BYTE   W08
// 083   ----------------------------------------
 BYTE   N24  Fs1
 BYTE   W24
 BYTE   Cs1
 BYTE   W24
 BYTE   Ds1
 BYTE   W24
 BYTE   Fs1
 BYTE   W24
// 084   ----------------------------------------
Label_4_017EC80E:
 BYTE   N72  Bn1  v108
 BYTE   W72
 BYTE   N24  Fs1
 BYTE   W24
 BYTE   PEND 
// 085   ----------------------------------------
Label_4_017EC816:
 BYTE   N72  Bn1  v108
 BYTE   W72
 BYTE   N24  Fn1
 BYTE   W24
 BYTE   PEND 
// 086   ----------------------------------------
Label_4_017EC81E:
 BYTE   N72  Fs1  v108
 BYTE   W72
 BYTE   N24
 BYTE   W24
 BYTE   PEND 
// 087   ----------------------------------------
Label_4_017EC825:
 BYTE   N72  As1  v108
 BYTE   W72
 BYTE   N24  Fs1
 BYTE   W24
 BYTE   PEND 
// 088   ----------------------------------------
 BYTE   N72  Gs1
 BYTE   W72
 BYTE   N24  Ds1
 BYTE   W24
// 089   ----------------------------------------
 BYTE   N72  Gs1
 BYTE   W72
 BYTE   N24  Cs1
 BYTE   W24
// 090   ----------------------------------------
 BYTE   N36  Bn1
 BYTE   W36
 BYTE   N06
 BYTE   W06
 BYTE   Fs1
 BYTE   W06
 BYTE   N36  As1
 BYTE   W36
 BYTE   N06
 BYTE   W06
 BYTE   Fs1
 BYTE   W06
// 091   ----------------------------------------
 BYTE   N24  As1
 BYTE   W24
 BYTE   Fs1
 BYTE   W24
 BYTE   Gs1
 BYTE   W24
 BYTE   As1
 BYTE   W24
 BYTE   PATT
  POIN2 Label_4_017EC80E
 BYTE   PATT
  POIN2 Label_4_017EC816
 BYTE   PATT
  POIN2 Label_4_017EC81E
 BYTE   PATT
  POIN2 Label_4_017EC825
// 092   ----------------------------------------
 BYTE   W96
// 093   ----------------------------------------
 BYTE   W96
// 094   ----------------------------------------
 BYTE   N24  Bn1  v108
 BYTE   W24
 BYTE   Fs1
 BYTE   W24
 BYTE   Bn1
 BYTE   W24
 BYTE   Ds2
 BYTE   W24
// 095   ----------------------------------------
 BYTE   Fs2
 BYTE   W24
 BYTE   Ds2
 BYTE   W24
 BYTE   Fs2
 BYTE   W24
 BYTE   Bn2
 BYTE   W24
// 096   ----------------------------------------
 BYTE   N48  Gs2
 BYTE   W48
 BYTE   Fn2
 BYTE   W48
// 097   ----------------------------------------
 BYTE   N96  Gs2
 BYTE   W96
// 098   ----------------------------------------
 BYTE   Bn2
 BYTE   W96
// 099   ----------------------------------------
 BYTE   Gn2
 BYTE   W96
// 100   ----------------------------------------
 BYTE   TIE  Fs2
 BYTE   W96
// 101   ----------------------------------------
 BYTE   W48
 BYTE   EOT
 BYTE   N03  Gs1  v060
 BYTE   W03
 BYTE   Gs1  v064
 BYTE   W03
 BYTE   Gs1  v068
 BYTE   W03
 BYTE   Gs1  v072
 BYTE   W03
 BYTE   N03
 BYTE   W03
 BYTE   Gs1  v076
 BYTE   W03
 BYTE   Gs1  v080
 BYTE   W03
 BYTE   Gs1  v084
 BYTE   W03
 BYTE   N03
 BYTE   W03
 BYTE   Gs1  v088
 BYTE   W03
 BYTE   Gs1  v092
 BYTE   W03
 BYTE   Gs1  v096
 BYTE   W03
 BYTE   N03
 BYTE   W03
 BYTE   Gs1  v100
 BYTE   W03
 BYTE   Gs1  v104
 BYTE   W03
 BYTE   Gs1  v108
 BYTE   W03
 BYTE   PATT
  POIN2 Label_4_017EC0AD
 BYTE   PATT
  POIN2 Label_4_017EC0AD
 BYTE   PATT
  POIN2 Label_4_017EC0AD
 BYTE   PATT
  POIN2 Label_4_017EC0AD
// 102   ----------------------------------------
 BYTE   N96  Bn1  v108
 BYTE   W96
// 103   ----------------------------------------
 BYTE   Bn0
 BYTE   W96
// 104   ----------------------------------------
 BYTE   TIE
 BYTE   W96
// 105   ----------------------------------------
 BYTE   W96
// 106   ----------------------------------------
 BYTE   EOT
 BYTE   FINE

//**************** Track 6 (Midi-Chn.5) ****************//

RomancingSaga2EndingExtraLong7743_006:
// 000   ----------------------------------------
 BYTE   KEYSH   RomancingSaga2EndingExtraLong7743_key+0
 BYTE   VOICE   47
 BYTE   VOL   55*RomancingSaga2EndingExtraLong7743_mvl/mxv
 BYTE   PAN   c_v+0
 BYTE   TIE  An2  v096
 BYTE   TIE  Bn2
 BYTE   W96
// 001   ----------------------------------------
 BYTE   W96
// 002   ----------------------------------------
 BYTE   W96
// 003   ----------------------------------------
 BYTE   W96
// 004   ----------------------------------------
 BYTE   EOT
 BYTE   An2  v059
Label_5_017EC8F4:
 BYTE   TIE  An2  v100
 BYTE   TIE  Bn2
 BYTE   W96
 BYTE   PEND 
// 005   ----------------------------------------
 BYTE   W96
// 006   ----------------------------------------
 BYTE   W96
// 007   ----------------------------------------
 BYTE   W96
// 008   ----------------------------------------
 BYTE   EOT
 BYTE   An2  v059
Label_5_017EC901:
 BYTE   N24  En1  v100
 BYTE   N24  An2
 BYTE   N24  Bn2
 BYTE   W24
 BYTE   N08  Dn1
 BYTE   W08
 BYTE   En1
 BYTE   W08
 BYTE   Dn1
 BYTE   W08
 BYTE   N24  En1
 BYTE   N24  An2
 BYTE   N24  Bn2
 BYTE   W24
 BYTE   N08  Dn1
 BYTE   W08
 BYTE   En1
 BYTE   W08
 BYTE   Dn1
 BYTE   W08
 BYTE   PEND 
// 009   ----------------------------------------
 BYTE   N03  En1
 BYTE   N03  An2
 BYTE   N03  Bn2
 BYTE   W03
 BYTE   Dn1  v096
 BYTE   W03
 BYTE   En1
 BYTE   W03
 BYTE   Dn1  v092
 BYTE   W03
 BYTE   En1
 BYTE   W03
 BYTE   Dn1  v088
 BYTE   W03
 BYTE   En1
 BYTE   W03
 BYTE   Dn1  v084
 BYTE   W03
 BYTE   En1
 BYTE   N03  An2
 BYTE   N03  Bn2
 BYTE   W03
 BYTE   Dn1  v080
 BYTE   W03
 BYTE   En1
 BYTE   W03
 BYTE   Dn1  v076
 BYTE   W03
 BYTE   En1
 BYTE   W03
 BYTE   Dn1  v072
 BYTE   W03
 BYTE   En1
 BYTE   W03
 BYTE   Dn1  v068
 BYTE   W03
 BYTE   N08  En1  v100
 BYTE   N08  An2
 BYTE   N08  Bn2
 BYTE   W08
 BYTE   Dn1
 BYTE   W08
 BYTE   En1
 BYTE   W08
 BYTE   N24  Dn1
 BYTE   N24  An2
 BYTE   N24  Bn2
 BYTE   W24
// 010   ----------------------------------------
Label_5_017EC963:
 BYTE   N12  En1  v100
 BYTE   N12  An2
 BYTE   N12  Bn2
 BYTE   W12
 BYTE   N06  Dn1
 BYTE   W06
 BYTE   N06
 BYTE   W06
 BYTE   N12  En1
 BYTE   W12
 BYTE   N06  Dn1
 BYTE   W06
 BYTE   N06
 BYTE   W18
 BYTE   N04  En1
 BYTE   W04
 BYTE   En1  v096
 BYTE   W04
 BYTE   En1  v092
 BYTE   W04
 BYTE   En1  v088
 BYTE   W04
 BYTE   En1  v084
 BYTE   W04
 BYTE   En1  v080
 BYTE   W04
 BYTE   N12  Dn1  v100
 BYTE   W12
 BYTE   PEND 
// 011   ----------------------------------------
Label_5_017EC98F:
 BYTE   N12  En1  v100
 BYTE   W12
 BYTE   N06  Dn1
 BYTE   W06
 BYTE   N06
 BYTE   W06
 BYTE   N12  En1
 BYTE   W12
 BYTE   N06  Dn1
 BYTE   W06
 BYTE   N06
 BYTE   W06
 BYTE   N12  En1
 BYTE   W12
 BYTE   N06  Dn1
 BYTE   W06
 BYTE   N06
 BYTE   W06
 BYTE   En1
 BYTE   W06
 BYTE   Dn1
 BYTE   W06
 BYTE   En1
 BYTE   W06
 BYTE   Dn1
 BYTE   W06
 BYTE   PEND 
// 012   ----------------------------------------
Label_5_017EC9B1:
 BYTE   N12  En1  v100
 BYTE   W12
 BYTE   N06  Dn1
 BYTE   W06
 BYTE   N06
 BYTE   W06
 BYTE   N12  En1
 BYTE   W12
 BYTE   N06  Dn1
 BYTE   W06
 BYTE   N06
 BYTE   W18
 BYTE   N04  En1
 BYTE   W04
 BYTE   En1  v096
 BYTE   W04
 BYTE   En1  v092
 BYTE   W04
 BYTE   En1  v088
 BYTE   W04
 BYTE   En1  v084
 BYTE   W04
 BYTE   En1  v080
 BYTE   W04
 BYTE   N12  Dn1  v100
 BYTE   W12
 BYTE   PEND 
 BYTE   PATT
  POIN2 Label_5_017EC98F
 BYTE   PATT
  POIN2 Label_5_017EC963
 BYTE   PATT
  POIN2 Label_5_017EC98F
 BYTE   PATT
  POIN2 Label_5_017EC9B1
 BYTE   PATT
  POIN2 Label_5_017EC98F
 BYTE   PATT
  POIN2 Label_5_017EC963
// 013   ----------------------------------------
Label_5_017EC9F7:
 BYTE   N06  En1  v100
 BYTE   W06
 BYTE   Dn1
 BYTE   W06
 BYTE   En1
 BYTE   W06
 BYTE   Dn1
 BYTE   W06
 BYTE   N24  En1
 BYTE   W24
 BYTE   N16  An2
 BYTE   N16  Bn2
 BYTE   W16
 BYTE   An2
 BYTE   N16  Bn2
 BYTE   W16
 BYTE   An2
 BYTE   N16  Bn2
 BYTE   W16
 BYTE   PEND 
 BYTE   PATT
  POIN2 Label_5_017EC963
 BYTE   PATT
  POIN2 Label_5_017EC9F7
 BYTE   PATT
  POIN2 Label_5_017EC963
 BYTE   PATT
  POIN2 Label_5_017EC98F
 BYTE   PATT
  POIN2 Label_5_017EC9B1
// 014   ----------------------------------------
Label_5_017ECA2B:
 BYTE   W24
 BYTE   N24  An2  v100
 BYTE   N24  Bn2
 BYTE   W40
 BYTE   N16  En1
 BYTE   W16
 BYTE   N08  Dn1
 BYTE   W08
 BYTE   N08
 BYTE   W08
 BYTE   PEND 
 BYTE   PATT
  POIN2 Label_5_017EC963
 BYTE   PATT
  POIN2 Label_5_017EC98F
 BYTE   PATT
  POIN2 Label_5_017EC9B1
 BYTE   PATT
  POIN2 Label_5_017EC98F
 BYTE   PATT
  POIN2 Label_5_017EC963
 BYTE   PATT
  POIN2 Label_5_017EC98F
 BYTE   PATT
  POIN2 Label_5_017EC9B1
 BYTE   PATT
  POIN2 Label_5_017EC98F
 BYTE   PATT
  POIN2 Label_5_017EC963
 BYTE   PATT
  POIN2 Label_5_017EC9F7
 BYTE   PATT
  POIN2 Label_5_017EC963
 BYTE   PATT
  POIN2 Label_5_017EC9F7
 BYTE   PATT
  POIN2 Label_5_017EC963
 BYTE   PATT
  POIN2 Label_5_017EC98F
 BYTE   PATT
  POIN2 Label_5_017EC9B1
// 015   ----------------------------------------
Label_5_017ECA86:
 BYTE   N48  An2  v100
 BYTE   N48  Bn2
 BYTE   W60
 BYTE   N06  En1
 BYTE   W06
 BYTE   N06
 BYTE   W06
 BYTE   N24  Dn1
 BYTE   N24  An2
 BYTE   N24  Bn2
 BYTE   W24
 BYTE   PEND 
// 016   ----------------------------------------
Label_5_017ECA99:
 BYTE   N12  En1  v100
 BYTE   W12
 BYTE   N06  Dn1
 BYTE   W06
 BYTE   N06
 BYTE   W06
 BYTE   N12  En1
 BYTE   W12
 BYTE   N06  Dn1
 BYTE   W06
 BYTE   N06
 BYTE   W06
 BYTE   N12  En1
 BYTE   W12
 BYTE   N06  Dn1
 BYTE   W06
 BYTE   N06
 BYTE   W06
 BYTE   N12  En1
 BYTE   W12
 BYTE   N06  Dn1
 BYTE   W06
 BYTE   N06
 BYTE   W06
 BYTE   PEND 
 BYTE   PATT
  POIN2 Label_5_017EC98F
 BYTE   PATT
  POIN2 Label_5_017ECA99
 BYTE   PATT
  POIN2 Label_5_017EC98F
 BYTE   PATT
  POIN2 Label_5_017ECA99
 BYTE   PATT
  POIN2 Label_5_017EC98F
 BYTE   PATT
  POIN2 Label_5_017ECA99
// 017   ----------------------------------------
Label_5_017ECAD9:
 BYTE   N03  En1  v100
 BYTE   W03
 BYTE   Dn1  v096
 BYTE   W03
 BYTE   En1  v092
 BYTE   W03
 BYTE   Dn1  v088
 BYTE   W03
 BYTE   En1  v084
 BYTE   W03
 BYTE   Dn1  v080
 BYTE   W03
 BYTE   En1  v076
 BYTE   W03
 BYTE   Dn1  v072
 BYTE   W03
 BYTE   N08  En1  v088
 BYTE   W08
 BYTE   Dn1  v092
 BYTE   W08
 BYTE   En1  v096
 BYTE   W08
 BYTE   N24  En1  v100
 BYTE   W24
 BYTE   N03  Dn1
 BYTE   N03  An2
 BYTE   N03  Bn2
 BYTE   W03
 BYTE   Dn1  v096
 BYTE   W03
 BYTE   En1  v092
 BYTE   W03
 BYTE   Dn1  v088
 BYTE   W03
 BYTE   N12  En1  v100
 BYTE   W12
 BYTE   PEND 
 BYTE   PATT
  POIN2 Label_5_017ECA99
 BYTE   PATT
  POIN2 Label_5_017EC98F
// 018   ----------------------------------------
Label_5_017ECB1F:
 BYTE   N24  An2  v100
 BYTE   N24  Bn2
 BYTE   W24
 BYTE   N06  En1
 BYTE   W06
 BYTE   Dn1
 BYTE   W06
 BYTE   En1
 BYTE   W06
 BYTE   Dn1
 BYTE   W06
 BYTE   N24  An2
 BYTE   N24  Bn2
 BYTE   W24
 BYTE   N06  En1
 BYTE   W06
 BYTE   Dn1
 BYTE   W06
 BYTE   En1
 BYTE   W06
 BYTE   Dn1
 BYTE   W06
 BYTE   PEND 
// 019   ----------------------------------------
 BYTE   N96  An2
 BYTE   N96  Bn2
 BYTE   W96
// 020   ----------------------------------------
Label_5_017ECB42:
 BYTE   N12  En1  v100
 BYTE   N12  An2
 BYTE   N12  Bn2
 BYTE   W12
 BYTE   N06  Dn1  v096
 BYTE   W06
 BYTE   N06
 BYTE   W06
 BYTE   N12  En1  v100
 BYTE   W12
 BYTE   N06  Dn1
 BYTE   W06
 BYTE   N06
 BYTE   W06
 BYTE   N12  En1
 BYTE   W12
 BYTE   N06  Dn1
 BYTE   W06
 BYTE   N06
 BYTE   W06
 BYTE   N12  En1
 BYTE   W12
 BYTE   N06  Dn1
 BYTE   W06
 BYTE   N06
 BYTE   W06
 BYTE   PEND 
 BYTE   PATT
  POIN2 Label_5_017EC98F
// 021   ----------------------------------------
Label_5_017ECB6F:
 BYTE   N48  An2  v100
 BYTE   N48  Bn2
 BYTE   W48
 BYTE   An2
 BYTE   N48  Bn2
 BYTE   W48
 BYTE   PEND 
// 022   ----------------------------------------
Label_5_017ECB7A:
 BYTE   N48  An2  v100
 BYTE   N48  Bn2
 BYTE   W48
 BYTE   N03  En1
 BYTE   W03
 BYTE   N03
 BYTE   W03
 BYTE   En1  v096
 BYTE   W03
 BYTE   En1  v092
 BYTE   W03
 BYTE   En1  v088
 BYTE   W03
 BYTE   N03
 BYTE   W03
 BYTE   En1  v084
 BYTE   W03
 BYTE   En1  v080
 BYTE   W03
 BYTE   En1  v076
 BYTE   W03
 BYTE   N03
 BYTE   W03
 BYTE   En1  v072
 BYTE   W03
 BYTE   En1  v068
 BYTE   W03
 BYTE   En1  v064
 BYTE   W03
 BYTE   N03
 BYTE   W03
 BYTE   En1  v060
 BYTE   W03
 BYTE   En1  v056
 BYTE   W03
 BYTE   PEND 
 BYTE   PATT
  POIN2 Label_5_017EC963
 BYTE   PATT
  POIN2 Label_5_017EC98F
 BYTE   PATT
  POIN2 Label_5_017EC9B1
 BYTE   PATT
  POIN2 Label_5_017EC98F
 BYTE   PATT
  POIN2 Label_5_017EC963
 BYTE   PATT
  POIN2 Label_5_017EC98F
 BYTE   PATT
  POIN2 Label_5_017EC9B1
 BYTE   PATT
  POIN2 Label_5_017EC98F
 BYTE   PATT
  POIN2 Label_5_017EC963
 BYTE   PATT
  POIN2 Label_5_017EC9F7
 BYTE   PATT
  POIN2 Label_5_017EC963
 BYTE   PATT
  POIN2 Label_5_017EC9F7
 BYTE   PATT
  POIN2 Label_5_017EC963
 BYTE   PATT
  POIN2 Label_5_017EC98F
 BYTE   PATT
  POIN2 Label_5_017EC9B1
 BYTE   PATT
  POIN2 Label_5_017ECA2B
 BYTE   PATT
  POIN2 Label_5_017EC963
 BYTE   PATT
  POIN2 Label_5_017EC98F
 BYTE   PATT
  POIN2 Label_5_017EC9B1
 BYTE   PATT
  POIN2 Label_5_017EC98F
 BYTE   PATT
  POIN2 Label_5_017EC963
 BYTE   PATT
  POIN2 Label_5_017EC98F
 BYTE   PATT
  POIN2 Label_5_017EC9B1
 BYTE   PATT
  POIN2 Label_5_017EC98F
 BYTE   PATT
  POIN2 Label_5_017EC963
 BYTE   PATT
  POIN2 Label_5_017EC9F7
 BYTE   PATT
  POIN2 Label_5_017EC963
 BYTE   PATT
  POIN2 Label_5_017EC9F7
 BYTE   PATT
  POIN2 Label_5_017EC963
 BYTE   PATT
  POIN2 Label_5_017EC98F
 BYTE   PATT
  POIN2 Label_5_017EC9B1
 BYTE   PATT
  POIN2 Label_5_017ECA86
 BYTE   PATT
  POIN2 Label_5_017ECA99
 BYTE   PATT
  POIN2 Label_5_017EC98F
 BYTE   PATT
  POIN2 Label_5_017ECA99
 BYTE   PATT
  POIN2 Label_5_017EC98F
 BYTE   PATT
  POIN2 Label_5_017ECA99
 BYTE   PATT
  POIN2 Label_5_017EC98F
 BYTE   PATT
  POIN2 Label_5_017ECA99
 BYTE   PATT
  POIN2 Label_5_017ECAD9
 BYTE   PATT
  POIN2 Label_5_017ECA99
 BYTE   PATT
  POIN2 Label_5_017EC98F
 BYTE   PATT
  POIN2 Label_5_017ECB1F
// 023   ----------------------------------------
 BYTE   N96  An2  v100
 BYTE   N96  Bn2
 BYTE   W96
 BYTE   PATT
  POIN2 Label_5_017EC963
 BYTE   PATT
  POIN2 Label_5_017EC98F
 BYTE   PATT
  POIN2 Label_5_017EC9B1
 BYTE   PATT
  POIN2 Label_5_017EC98F
 BYTE   PATT
  POIN2 Label_5_017EC963
 BYTE   PATT
  POIN2 Label_5_017EC98F
 BYTE   PATT
  POIN2 Label_5_017EC9B1
 BYTE   PATT
  POIN2 Label_5_017EC98F
 BYTE   PATT
  POIN2 Label_5_017EC963
 BYTE   PATT
  POIN2 Label_5_017EC9F7
 BYTE   PATT
  POIN2 Label_5_017EC963
 BYTE   PATT
  POIN2 Label_5_017EC9F7
 BYTE   PATT
  POIN2 Label_5_017EC963
 BYTE   PATT
  POIN2 Label_5_017EC98F
 BYTE   PATT
  POIN2 Label_5_017EC9B1
 BYTE   PATT
  POIN2 Label_5_017ECA2B
 BYTE   PATT
  POIN2 Label_5_017EC963
 BYTE   PATT
  POIN2 Label_5_017EC98F
 BYTE   PATT
  POIN2 Label_5_017EC9B1
 BYTE   PATT
  POIN2 Label_5_017EC98F
 BYTE   PATT
  POIN2 Label_5_017EC963
 BYTE   PATT
  POIN2 Label_5_017EC98F
 BYTE   PATT
  POIN2 Label_5_017EC9B1
 BYTE   PATT
  POIN2 Label_5_017EC98F
 BYTE   PATT
  POIN2 Label_5_017EC963
 BYTE   PATT
  POIN2 Label_5_017EC9F7
 BYTE   PATT
  POIN2 Label_5_017EC963
 BYTE   PATT
  POIN2 Label_5_017EC9F7
 BYTE   PATT
  POIN2 Label_5_017EC963
 BYTE   PATT
  POIN2 Label_5_017EC98F
 BYTE   PATT
  POIN2 Label_5_017EC9B1
 BYTE   PATT
  POIN2 Label_5_017ECA86
 BYTE   PATT
  POIN2 Label_5_017ECA99
 BYTE   PATT
  POIN2 Label_5_017EC98F
 BYTE   PATT
  POIN2 Label_5_017ECA99
 BYTE   PATT
  POIN2 Label_5_017EC98F
 BYTE   PATT
  POIN2 Label_5_017ECA99
 BYTE   PATT
  POIN2 Label_5_017EC98F
 BYTE   PATT
  POIN2 Label_5_017ECA99
 BYTE   PATT
  POIN2 Label_5_017ECAD9
 BYTE   PATT
  POIN2 Label_5_017ECA99
 BYTE   PATT
  POIN2 Label_5_017EC98F
 BYTE   PATT
  POIN2 Label_5_017ECB1F
// 024   ----------------------------------------
 BYTE   N96  An2  v100
 BYTE   N96  Bn2
 BYTE   W96
 BYTE   PATT
  POIN2 Label_5_017ECB42
 BYTE   PATT
  POIN2 Label_5_017EC98F
 BYTE   PATT
  POIN2 Label_5_017ECB6F
 BYTE   PATT
  POIN2 Label_5_017ECB7A
 BYTE   PATT
  POIN2 Label_5_017EC963
 BYTE   PATT
  POIN2 Label_5_017EC98F
 BYTE   PATT
  POIN2 Label_5_017EC9B1
 BYTE   PATT
  POIN2 Label_5_017EC98F
 BYTE   PATT
  POIN2 Label_5_017EC963
 BYTE   PATT
  POIN2 Label_5_017EC98F
 BYTE   PATT
  POIN2 Label_5_017EC9B1
 BYTE   PATT
  POIN2 Label_5_017EC98F
 BYTE   PATT
  POIN2 Label_5_017EC963
 BYTE   PATT
  POIN2 Label_5_017EC9F7
 BYTE   PATT
  POIN2 Label_5_017EC963
 BYTE   PATT
  POIN2 Label_5_017EC9F7
 BYTE   PATT
  POIN2 Label_5_017EC963
 BYTE   PATT
  POIN2 Label_5_017EC98F
 BYTE   PATT
  POIN2 Label_5_017EC9B1
 BYTE   PATT
  POIN2 Label_5_017ECA2B
 BYTE   PATT
  POIN2 Label_5_017EC963
 BYTE   PATT
  POIN2 Label_5_017EC98F
 BYTE   PATT
  POIN2 Label_5_017EC9B1
 BYTE   PATT
  POIN2 Label_5_017EC98F
 BYTE   PATT
  POIN2 Label_5_017EC963
 BYTE   PATT
  POIN2 Label_5_017EC98F
 BYTE   PATT
  POIN2 Label_5_017EC9B1
 BYTE   PATT
  POIN2 Label_5_017EC98F
 BYTE   PATT
  POIN2 Label_5_017EC963
 BYTE   PATT
  POIN2 Label_5_017EC9F7
 BYTE   PATT
  POIN2 Label_5_017EC963
 BYTE   PATT
  POIN2 Label_5_017EC9F7
 BYTE   PATT
  POIN2 Label_5_017EC963
 BYTE   PATT
  POIN2 Label_5_017EC98F
 BYTE   PATT
  POIN2 Label_5_017EC9B1
 BYTE   PATT
  POIN2 Label_5_017ECA86
 BYTE   PATT
  POIN2 Label_5_017ECA99
 BYTE   PATT
  POIN2 Label_5_017EC98F
 BYTE   PATT
  POIN2 Label_5_017ECA99
 BYTE   PATT
  POIN2 Label_5_017EC98F
 BYTE   PATT
  POIN2 Label_5_017ECA99
 BYTE   PATT
  POIN2 Label_5_017EC98F
 BYTE   PATT
  POIN2 Label_5_017ECA99
 BYTE   PATT
  POIN2 Label_5_017ECAD9
 BYTE   PATT
  POIN2 Label_5_017ECA99
 BYTE   PATT
  POIN2 Label_5_017EC98F
 BYTE   PATT
  POIN2 Label_5_017ECB1F
// 025   ----------------------------------------
 BYTE   N96  An2  v100
 BYTE   N96  Bn2
 BYTE   W96
 BYTE   PATT
  POIN2 Label_5_017ECB42
 BYTE   PATT
  POIN2 Label_5_017EC98F
 BYTE   PATT
  POIN2 Label_5_017ECB6F
 BYTE   PATT
  POIN2 Label_5_017ECB7A
 BYTE   PATT
  POIN2 Label_5_017EC963
 BYTE   PATT
  POIN2 Label_5_017EC98F
 BYTE   PATT
  POIN2 Label_5_017EC9B1
 BYTE   PATT
  POIN2 Label_5_017EC98F
 BYTE   PATT
  POIN2 Label_5_017EC963
 BYTE   PATT
  POIN2 Label_5_017EC98F
 BYTE   PATT
  POIN2 Label_5_017EC9B1
 BYTE   PATT
  POIN2 Label_5_017EC98F
 BYTE   PATT
  POIN2 Label_5_017EC963
 BYTE   PATT
  POIN2 Label_5_017EC9F7
 BYTE   PATT
  POIN2 Label_5_017EC963
 BYTE   PATT
  POIN2 Label_5_017EC9F7
 BYTE   PATT
  POIN2 Label_5_017EC963
 BYTE   PATT
  POIN2 Label_5_017EC98F
 BYTE   PATT
  POIN2 Label_5_017EC9B1
 BYTE   PATT
  POIN2 Label_5_017ECA2B
 BYTE   PATT
  POIN2 Label_5_017EC963
 BYTE   PATT
  POIN2 Label_5_017EC98F
 BYTE   PATT
  POIN2 Label_5_017EC9B1
 BYTE   PATT
  POIN2 Label_5_017EC98F
 BYTE   PATT
  POIN2 Label_5_017EC963
 BYTE   PATT
  POIN2 Label_5_017EC98F
 BYTE   PATT
  POIN2 Label_5_017EC9B1
 BYTE   PATT
  POIN2 Label_5_017EC98F
 BYTE   PATT
  POIN2 Label_5_017EC963
 BYTE   PATT
  POIN2 Label_5_017EC9F7
 BYTE   PATT
  POIN2 Label_5_017EC963
 BYTE   PATT
  POIN2 Label_5_017EC9F7
 BYTE   PATT
  POIN2 Label_5_017EC963
 BYTE   PATT
  POIN2 Label_5_017EC98F
 BYTE   PATT
  POIN2 Label_5_017EC9B1
 BYTE   PATT
  POIN2 Label_5_017ECA86
 BYTE   PATT
  POIN2 Label_5_017ECA99
 BYTE   PATT
  POIN2 Label_5_017EC98F
 BYTE   PATT
  POIN2 Label_5_017ECA99
 BYTE   PATT
  POIN2 Label_5_017EC98F
 BYTE   PATT
  POIN2 Label_5_017ECA99
 BYTE   PATT
  POIN2 Label_5_017EC98F
 BYTE   PATT
  POIN2 Label_5_017ECA99
 BYTE   PATT
  POIN2 Label_5_017ECAD9
 BYTE   PATT
  POIN2 Label_5_017ECA99
 BYTE   PATT
  POIN2 Label_5_017EC98F
 BYTE   PATT
  POIN2 Label_5_017ECB1F
// 026   ----------------------------------------
 BYTE   N96  An2  v100
 BYTE   N96  Bn2
 BYTE   W96
 BYTE   PATT
  POIN2 Label_5_017ECB42
 BYTE   PATT
  POIN2 Label_5_017EC98F
 BYTE   PATT
  POIN2 Label_5_017ECB6F
 BYTE   PATT
  POIN2 Label_5_017ECB7A
 BYTE   PATT
  POIN2 Label_5_017EC963
 BYTE   PATT
  POIN2 Label_5_017EC98F
 BYTE   PATT
  POIN2 Label_5_017EC9B1
 BYTE   PATT
  POIN2 Label_5_017EC98F
 BYTE   PATT
  POIN2 Label_5_017EC963
 BYTE   PATT
  POIN2 Label_5_017EC98F
 BYTE   PATT
  POIN2 Label_5_017EC9B1
 BYTE   PATT
  POIN2 Label_5_017EC98F
 BYTE   PATT
  POIN2 Label_5_017EC963
 BYTE   PATT
  POIN2 Label_5_017EC9F7
 BYTE   PATT
  POIN2 Label_5_017EC963
 BYTE   PATT
  POIN2 Label_5_017EC9F7
 BYTE   PATT
  POIN2 Label_5_017EC963
 BYTE   PATT
  POIN2 Label_5_017EC98F
 BYTE   PATT
  POIN2 Label_5_017EC9B1
 BYTE   PATT
  POIN2 Label_5_017ECA86
 BYTE   PATT
  POIN2 Label_5_017ECA99
 BYTE   PATT
  POIN2 Label_5_017EC98F
 BYTE   PATT
  POIN2 Label_5_017ECA99
 BYTE   PATT
  POIN2 Label_5_017EC98F
 BYTE   PATT
  POIN2 Label_5_017ECA99
 BYTE   PATT
  POIN2 Label_5_017EC98F
 BYTE   PATT
  POIN2 Label_5_017ECA99
 BYTE   PATT
  POIN2 Label_5_017ECAD9
 BYTE   PATT
  POIN2 Label_5_017ECA99
 BYTE   PATT
  POIN2 Label_5_017EC98F
 BYTE   PATT
  POIN2 Label_5_017ECB1F
// 027   ----------------------------------------
 BYTE   N96  An2  v100
 BYTE   N96  Bn2
 BYTE   W96
 BYTE   PATT
  POIN2 Label_5_017ECB42
 BYTE   PATT
  POIN2 Label_5_017EC98F
 BYTE   PATT
  POIN2 Label_5_017ECB6F
// 028   ----------------------------------------
 BYTE   N48  An2  v100
 BYTE   N48  Bn2
 BYTE   W48
 BYTE   N03  En1
 BYTE   W03
 BYTE   N03
 BYTE   W03
 BYTE   En1  v096
 BYTE   W03
 BYTE   En1  v092
 BYTE   W03
 BYTE   En1  v088
 BYTE   W03
 BYTE   N03
 BYTE   W03
 BYTE   En1  v084
 BYTE   W03
 BYTE   En1  v080
 BYTE   W03
 BYTE   N08  En1  v100
 BYTE   W08
 BYTE   Dn1
 BYTE   W08
 BYTE   En1
 BYTE   W08
 BYTE   PATT
  POIN2 Label_5_017EC8F4
// 029   ----------------------------------------
 BYTE   W96
// 030   ----------------------------------------
 BYTE   EOT
 BYTE   An2  v059
 BYTE   W96
// 031   ----------------------------------------
 BYTE   W96
// 032   ----------------------------------------
 BYTE   W96
// 033   ----------------------------------------
 BYTE   W96
// 034   ----------------------------------------
 BYTE   W96
// 035   ----------------------------------------
 BYTE   W96
// 036   ----------------------------------------
 BYTE   W96
// 037   ----------------------------------------
 BYTE   W96
// 038   ----------------------------------------
 BYTE   W96
// 039   ----------------------------------------
 BYTE   W96
// 040   ----------------------------------------
 BYTE   W96
// 041   ----------------------------------------
 BYTE   W96
// 042   ----------------------------------------
 BYTE   W96
// 043   ----------------------------------------
 BYTE   W96
// 044   ----------------------------------------
 BYTE   W96
// 045   ----------------------------------------
 BYTE   W96
// 046   ----------------------------------------
 BYTE   W96
// 047   ----------------------------------------
 BYTE   W96
// 048   ----------------------------------------
Label_5_017ED038:
 BYTE   TIE  An2  v092
 BYTE   TIE  Bn2
 BYTE   W96
 BYTE   PEND 
// 049   ----------------------------------------
 BYTE   W96
// 050   ----------------------------------------
 BYTE   EOT
 BYTE   An2  v059
 BYTE   PATT
  POIN2 Label_5_017ED038
// 051   ----------------------------------------
 BYTE   W96
// 052   ----------------------------------------
 BYTE   EOT
 BYTE   An2  v059
Label_5_017ED04C:
 BYTE   TIE  An2  v096
 BYTE   TIE  Bn2
 BYTE   W96
 BYTE   PEND 
// 053   ----------------------------------------
 BYTE   W96
// 054   ----------------------------------------
 BYTE   EOT
 BYTE   An2  v059
 BYTE   PATT
  POIN2 Label_5_017ED04C
// 055   ----------------------------------------
 BYTE   W96
// 056   ----------------------------------------
 BYTE   EOT
 BYTE   An2  v059
 BYTE   N96  An2  v100
 BYTE   N96  Bn2
 BYTE   W96
// 057   ----------------------------------------
 BYTE   W24
 BYTE   N24  An2
 BYTE   N24  Bn2
 BYTE   W24
 BYTE   An2
 BYTE   N24  Bn2
 BYTE   W24
 BYTE   An2
 BYTE   N24  Bn2
 BYTE   W24
 BYTE   PATT
  POIN2 Label_5_017EC8F4
// 058   ----------------------------------------
 BYTE   W96
// 059   ----------------------------------------
 BYTE   W96
// 060   ----------------------------------------
 BYTE   W96
// 061   ----------------------------------------
 BYTE   W96
// 062   ----------------------------------------
 BYTE   W96
// 063   ----------------------------------------
 BYTE   W96
// 064   ----------------------------------------
 BYTE   W96
// 065   ----------------------------------------
 BYTE   W96
// 066   ----------------------------------------
 BYTE   W96
// 067   ----------------------------------------
 BYTE   W96
// 068   ----------------------------------------
 BYTE   W96
// 069   ----------------------------------------
 BYTE   EOT
 BYTE   An2  v059
 BYTE   PATT
  POIN2 Label_5_017EC8F4
// 070   ----------------------------------------
 BYTE   W96
// 071   ----------------------------------------
 BYTE   W96
// 072   ----------------------------------------
 BYTE   W96
// 073   ----------------------------------------
 BYTE   EOT
 BYTE   An2  v059
 BYTE   PATT
  POIN2 Label_5_017EC8F4
// 074   ----------------------------------------
 BYTE   W24
 BYTE   EOT
 BYTE   An2  v059
 BYTE   N08  En1  v100
 BYTE   N08  An2
 BYTE   N08  Bn2
 BYTE   W08
 BYTE   Dn1
 BYTE   W08
 BYTE   En1
 BYTE   W08
 BYTE   N16  Dn1
 BYTE   N16  An2
 BYTE   N16  Bn2
 BYTE   W16
 BYTE   N04  En1
 BYTE   W04
 BYTE   N04
 BYTE   W04
 BYTE   N24  Dn1
 BYTE   W24
 BYTE   PATT
  POIN2 Label_5_017EC8F4
// 075   ----------------------------------------
 BYTE   W24
 BYTE   EOT
 BYTE   An2  v059
 BYTE   N08  En1  v100
 BYTE   N08  An2
 BYTE   N08  Bn2
 BYTE   W08
 BYTE   Dn1
 BYTE   W08
 BYTE   En1
 BYTE   W08
 BYTE   N16  Dn1
 BYTE   N16  An2
 BYTE   N16  Bn2
 BYTE   W16
 BYTE   N04  En1
 BYTE   W04
 BYTE   N04
 BYTE   W04
 BYTE   N24  Dn1
 BYTE   W24
// 076   ----------------------------------------
 BYTE   W96
// 077   ----------------------------------------
 BYTE   W96
// 078   ----------------------------------------
 BYTE   W96
// 079   ----------------------------------------
 BYTE   W24
 BYTE   N08  En1
 BYTE   W08
 BYTE   Dn1
 BYTE   W08
 BYTE   En1
 BYTE   W08
 BYTE   N16  Dn1
 BYTE   W16
 BYTE   N08
 BYTE   W08
 BYTE   N03  En1
 BYTE   W03
 BYTE   Dn1
 BYTE   W03
 BYTE   En1  v096
 BYTE   W03
 BYTE   Dn1  v092
 BYTE   W03
 BYTE   En1  v088
 BYTE   W03
 BYTE   Dn1
 BYTE   W03
 BYTE   En1  v084
 BYTE   W03
 BYTE   Dn1  v080
 BYTE   W03
 BYTE   PATT
  POIN2 Label_5_017EC901
// 080   ----------------------------------------
 BYTE   N24  En1  v100
 BYTE   W24
 BYTE   An2
 BYTE   N24  Bn2
 BYTE   W24
 BYTE   An2
 BYTE   N24  Bn2
 BYTE   W24
 BYTE   An2
 BYTE   N24  Bn2
 BYTE   W24
// 081   ----------------------------------------
Label_5_017ED115:
 BYTE   N24  En1  v100
 BYTE   N24  An2
 BYTE   N24  Bn2
 BYTE   W24
 BYTE   N08  Dn1
 BYTE   W08
 BYTE   En1
 BYTE   W08
 BYTE   Dn1
 BYTE   W08
 BYTE   N24  En1
 BYTE   W24
 BYTE   Dn1
 BYTE   W24
 BYTE   PEND 
// 082   ----------------------------------------
Label_5_017ED12A:
 BYTE   N24  En1  v100
 BYTE   W24
 BYTE   N08  Dn1
 BYTE   W08
 BYTE   En1
 BYTE   W08
 BYTE   Dn1
 BYTE   W08
 BYTE   N16  En1
 BYTE   W16
 BYTE   N08  Dn1
 BYTE   W08
 BYTE   N03  En1
 BYTE   W03
 BYTE   Dn1
 BYTE   W03
 BYTE   En1  v096
 BYTE   W03
 BYTE   Dn1  v092
 BYTE   W03
 BYTE   En1  v088
 BYTE   W03
 BYTE   Dn1
 BYTE   W03
 BYTE   En1  v084
 BYTE   W03
 BYTE   Dn1  v080
 BYTE   W03
 BYTE   PEND 
 BYTE   PATT
  POIN2 Label_5_017ED115
 BYTE   PATT
  POIN2 Label_5_017ED12A
 BYTE   PATT
  POIN2 Label_5_017ED115
 BYTE   PATT
  POIN2 Label_5_017ED12A
// 083   ----------------------------------------
 BYTE   N48  En1  v100
 BYTE   N48  An2
 BYTE   N48  Bn2
 BYTE   W48
 BYTE   N32  En1
 BYTE   N32  An2
 BYTE   N32  Bn2
 BYTE   W32
 BYTE   N08  En1
 BYTE   W08
 BYTE   Dn1
 BYTE   W08
// 084   ----------------------------------------
 BYTE   N24  En1
 BYTE   W24
 BYTE   N08  Dn1
 BYTE   N08  An2
 BYTE   N08  Bn2
 BYTE   W08
 BYTE   En1
 BYTE   W08
 BYTE   Dn1
 BYTE   W08
 BYTE   N03  En1
 BYTE   N03  An2
 BYTE   N03  Bn2
 BYTE   W03
 BYTE   Dn1
 BYTE   W03
 BYTE   En1  v096
 BYTE   W03
 BYTE   Dn1  v092
 BYTE   W03
 BYTE   En1  v088
 BYTE   W03
 BYTE   Dn1
 BYTE   W03
 BYTE   En1  v084
 BYTE   W03
 BYTE   Dn1  v080
 BYTE   W03
 BYTE   N08  En1  v100
 BYTE   N08  An2
 BYTE   N08  Bn2
 BYTE   W08
 BYTE   Dn1
 BYTE   W08
 BYTE   En1
 BYTE   W08
 BYTE   PATT
  POIN2 Label_5_017ED115
 BYTE   PATT
  POIN2 Label_5_017ED12A
 BYTE   PATT
  POIN2 Label_5_017ED115
 BYTE   PATT
  POIN2 Label_5_017ED12A
// 085   ----------------------------------------
 BYTE   N96  An2  v100
 BYTE   N96  Bn2
 BYTE   W96
// 086   ----------------------------------------
 BYTE   W96
 BYTE   PATT
  POIN2 Label_5_017EC8F4
// 087   ----------------------------------------
 BYTE   W96
// 088   ----------------------------------------
 BYTE   W96
// 089   ----------------------------------------
 BYTE   W96
// 090   ----------------------------------------
 BYTE   W96
// 091   ----------------------------------------
 BYTE   W96
// 092   ----------------------------------------
 BYTE   W96
// 093   ----------------------------------------
 BYTE   W96
// 094   ----------------------------------------
 BYTE   EOT
 BYTE   An2  v059
 BYTE   PATT
  POIN2 Label_5_017EC8F4
// 095   ----------------------------------------
 BYTE   W96
// 096   ----------------------------------------
 BYTE   W96
// 097   ----------------------------------------
 BYTE   W96
// 098   ----------------------------------------
 BYTE   EOT
 BYTE   An2  v059
 BYTE   PATT
  POIN2 Label_5_017EC8F4
// 099   ----------------------------------------
 BYTE   W96
// 100   ----------------------------------------
 BYTE   W96
// 101   ----------------------------------------
 BYTE   W96
// 102   ----------------------------------------
 BYTE   EOT
 BYTE   An2  v059
 BYTE   FINE

//**************** Track 7 (Midi-Chn.6) ****************//

RomancingSaga2EndingExtraLong7743_007:
// 000   ----------------------------------------
 BYTE   KEYSH   RomancingSaga2EndingExtraLong7743_key+0
 BYTE   VOICE   46
 BYTE   VOL   38*RomancingSaga2EndingExtraLong7743_mvl/mxv
 BYTE   PAN   c_v+0
 BYTE   W96
// 001   ----------------------------------------
 BYTE   W96
// 002   ----------------------------------------
 BYTE   W96
// 003   ----------------------------------------
 BYTE   W96
// 004   ----------------------------------------
 BYTE   W96
// 005   ----------------------------------------
 BYTE   W96
// 006   ----------------------------------------
 BYTE   W96
// 007   ----------------------------------------
 BYTE   W96
// 008   ----------------------------------------
 BYTE   W96
// 009   ----------------------------------------
 BYTE   W96
// 010   ----------------------------------------
 BYTE   W96
// 011   ----------------------------------------
 BYTE   W96
// 012   ----------------------------------------
Label_6_017ED20C:
 BYTE   W60
 BYTE   N06  Bn2  v096
 BYTE   W06
 BYTE   Ds3
 BYTE   W06
 BYTE   Fs3
 BYTE   W06
 BYTE   Bn3
 BYTE   W06
 BYTE   Ds4
 BYTE   W06
 BYTE   Fs4
 BYTE   W06
 BYTE   PEND 
// 013   ----------------------------------------
Label_6_017ED21C:
 BYTE   N06  An4  v096
 BYTE   W06
 BYTE   En4
 BYTE   W06
 BYTE   Cs4
 BYTE   W06
 BYTE   An3
 BYTE   W06
 BYTE   Gs4
 BYTE   W06
 BYTE   En4
 BYTE   W06
 BYTE   Cs4
 BYTE   W06
 BYTE   Gs3
 BYTE   W06
 BYTE   Fs4
 BYTE   W06
 BYTE   Cs4
 BYTE   W06
 BYTE   An3
 BYTE   W06
 BYTE   Fs3
 BYTE   W06
 BYTE   En4
 BYTE   W06
 BYTE   Cs4
 BYTE   W06
 BYTE   An3
 BYTE   W06
 BYTE   En3
 BYTE   W06
 BYTE   PEND 
// 014   ----------------------------------------
 BYTE   W96
// 015   ----------------------------------------
 BYTE   W96
// 016   ----------------------------------------
Label_6_017ED241:
 BYTE   W60
 BYTE   N06  Cs2  v096
 BYTE   W06
 BYTE   Ds3
 BYTE   W06
 BYTE   Fs3
 BYTE   W06
 BYTE   Bn3
 BYTE   W06
 BYTE   Ds4
 BYTE   W06
 BYTE   Fs4
 BYTE   W06
 BYTE   PEND 
// 017   ----------------------------------------
Label_6_017ED251:
 BYTE   N06  Bn4  v096
 BYTE   W06
 BYTE   Fs4
 BYTE   W06
 BYTE   Ds4
 BYTE   W06
 BYTE   Bn3
 BYTE   W06
 BYTE   An4
 BYTE   W06
 BYTE   Fs4
 BYTE   W06
 BYTE   Ds4
 BYTE   W06
 BYTE   An3
 BYTE   W06
 BYTE   Gs4
 BYTE   W06
 BYTE   Ds4
 BYTE   W06
 BYTE   Bn3
 BYTE   W06
 BYTE   Gs3
 BYTE   W06
 BYTE   Fs4
 BYTE   W06
 BYTE   Ds4
 BYTE   W06
 BYTE   Bn3
 BYTE   W06
 BYTE   Fs3
 BYTE   W06
 BYTE   PEND 
// 018   ----------------------------------------
 BYTE   W96
// 019   ----------------------------------------
Label_6_017ED275:
 BYTE   N06  Cs3  v096
 BYTE   W06
 BYTE   En3
 BYTE   W06
 BYTE   An3
 BYTE   W06
 BYTE   Cs4
 BYTE   W06
 BYTE   N72  En4
 BYTE   W72
 BYTE   PEND 
// 020   ----------------------------------------
 BYTE   W96
// 021   ----------------------------------------
Label_6_017ED284:
 BYTE   N06  Bn2  v096
 BYTE   W06
 BYTE   En3
 BYTE   W06
 BYTE   Gn3
 BYTE   W06
 BYTE   Bn3
 BYTE   W06
 BYTE   N72  Ds4
 BYTE   W72
 BYTE   PEND 
// 022   ----------------------------------------
 BYTE   W96
// 023   ----------------------------------------
 BYTE   W96
// 024   ----------------------------------------
 BYTE   W96
// 025   ----------------------------------------
 BYTE   W96
// 026   ----------------------------------------
 BYTE   W96
// 027   ----------------------------------------
 BYTE   W96
 BYTE   PATT
  POIN2 Label_6_017ED20C
 BYTE   PATT
  POIN2 Label_6_017ED21C
// 028   ----------------------------------------
 BYTE   W96
// 029   ----------------------------------------
 BYTE   W96
 BYTE   PATT
  POIN2 Label_6_017ED241
 BYTE   PATT
  POIN2 Label_6_017ED251
// 030   ----------------------------------------
 BYTE   W96
 BYTE   PATT
  POIN2 Label_6_017ED275
// 031   ----------------------------------------
 BYTE   W96
 BYTE   PATT
  POIN2 Label_6_017ED284
// 032   ----------------------------------------
 BYTE   W96
// 033   ----------------------------------------
 BYTE   W96
// 034   ----------------------------------------
 BYTE   W96
// 035   ----------------------------------------
Label_6_017ED2BD:
 BYTE   W12
 BYTE   N06  Fs3  v096
 BYTE   W06
 BYTE   An3
 BYTE   W06
 BYTE   Cs4
 BYTE   W06
 BYTE   En4
 BYTE   W06
 BYTE   Fs4
 BYTE   W06
 BYTE   An4
 BYTE   W06
 BYTE   Bn4
 BYTE   W06
 BYTE   An4
 BYTE   W06
 BYTE   Fs4
 BYTE   W06
 BYTE   Ds4
 BYTE   W06
 BYTE   Bn3
 BYTE   W06
 BYTE   An3
 BYTE   W06
 BYTE   Fs3
 BYTE   W06
 BYTE   Ds3
 BYTE   W06
 BYTE   PEND 
// 036   ----------------------------------------
Label_6_017ED2DD:
 BYTE   W18
 BYTE   N06  En2  v096
 BYTE   W06
 BYTE   Bn2
 BYTE   W06
 BYTE   En3
 BYTE   W06
 BYTE   Gs3
 BYTE   W06
 BYTE   Bn3
 BYTE   W06
 BYTE   N48  En4
 BYTE   W48
 BYTE   PEND 
// 037   ----------------------------------------
Label_6_017ED2EE:
 BYTE   W18
 BYTE   N06  Fs2  v096
 BYTE   W06
 BYTE   Cs3
 BYTE   W06
 BYTE   Fs3
 BYTE   W06
 BYTE   As3
 BYTE   W06
 BYTE   Cs4
 BYTE   W06
 BYTE   N48  Fs4
 BYTE   W48
 BYTE   PEND 
// 038   ----------------------------------------
Label_6_017ED2FF:
 BYTE   W18
 BYTE   N06  Fs2  v096
 BYTE   W06
 BYTE   Cs3
 BYTE   W06
 BYTE   Fs3
 BYTE   W06
 BYTE   Bn3
 BYTE   W06
 BYTE   Ds4
 BYTE   W06
 BYTE   N48  Fs4
 BYTE   W48
 BYTE   PEND 
// 039   ----------------------------------------
Label_6_017ED310:
 BYTE   W18
 BYTE   N06  Gs2  v096
 BYTE   W06
 BYTE   Ds3
 BYTE   W06
 BYTE   Gs3
 BYTE   W06
 BYTE   Bn3
 BYTE   W06
 BYTE   Ds4
 BYTE   W06
 BYTE   N48  Gs4
 BYTE   W48
 BYTE   PEND 
// 040   ----------------------------------------
 BYTE   W96
// 041   ----------------------------------------
 BYTE   W96
// 042   ----------------------------------------
Label_6_017ED323:
 BYTE   W18
 BYTE   N06  Gs2  v096
 BYTE   W06
 BYTE   Ds3
 BYTE   W06
 BYTE   Gs3
 BYTE   W06
 BYTE   Cn4
 BYTE   W06
 BYTE   Ds4
 BYTE   W06
 BYTE   N48  Gs4
 BYTE   W48
 BYTE   PEND 
// 043   ----------------------------------------
 BYTE   W96
 BYTE   PATT
  POIN2 Label_6_017ED2DD
// 044   ----------------------------------------
Label_6_017ED33A:
 BYTE   W18
 BYTE   N06  Ds2  v096
 BYTE   W06
 BYTE   As2
 BYTE   W06
 BYTE   Ds3
 BYTE   W06
 BYTE   As3
 BYTE   W06
 BYTE   Cs4
 BYTE   W06
 BYTE   N48  Ds4
 BYTE   W48
 BYTE   PEND 
// 045   ----------------------------------------
Label_6_017ED34B:
 BYTE   W12
 BYTE   N06  Bn2  v096
 BYTE   W06
 BYTE   Ds3
 BYTE   W06
 BYTE   Gs3
 BYTE   W06
 BYTE   Bn3
 BYTE   W06
 BYTE   Ds4
 BYTE   W06
 BYTE   Gs4
 BYTE   W18
 BYTE   As2
 BYTE   W06
 BYTE   Ds3
 BYTE   W06
 BYTE   Gn3
 BYTE   W06
 BYTE   As3
 BYTE   W06
 BYTE   Ds4
 BYTE   W06
 BYTE   Gn4
 BYTE   W06
 BYTE   PEND 
// 046   ----------------------------------------
Label_6_017ED367:
 BYTE   N06  Gs4  v096
 BYTE   W06
 BYTE   Fn4
 BYTE   W06
 BYTE   Ds4
 BYTE   W06
 BYTE   Bn3
 BYTE   W06
 BYTE   Gs3
 BYTE   W06
 BYTE   Fn3
 BYTE   W06
 BYTE   Ds3
 BYTE   W06
 BYTE   Bn2
 BYTE   W54
 BYTE   PEND 
// 047   ----------------------------------------
 BYTE   W96
// 048   ----------------------------------------
 BYTE   W96
// 049   ----------------------------------------
 BYTE   W96
// 050   ----------------------------------------
Label_6_017ED37D:
 BYTE   W48
 BYTE   N06  Gs4  v096
 BYTE   W06
 BYTE   En4
 BYTE   W06
 BYTE   Cs4
 BYTE   W06
 BYTE   Gs3
 BYTE   W06
 BYTE   En3
 BYTE   W06
 BYTE   Cs3
 BYTE   W06
 BYTE   Gs2
 BYTE   W06
 BYTE   En2
 BYTE   W06
 BYTE   PEND 
// 051   ----------------------------------------
 BYTE   W96
// 052   ----------------------------------------
 BYTE   W96
 BYTE   PATT
  POIN2 Label_6_017ED20C
 BYTE   PATT
  POIN2 Label_6_017ED21C
// 053   ----------------------------------------
 BYTE   W96
// 054   ----------------------------------------
 BYTE   W96
 BYTE   PATT
  POIN2 Label_6_017ED241
 BYTE   PATT
  POIN2 Label_6_017ED251
// 055   ----------------------------------------
 BYTE   W96
 BYTE   PATT
  POIN2 Label_6_017ED275
// 056   ----------------------------------------
 BYTE   W96
 BYTE   PATT
  POIN2 Label_6_017ED284
// 057   ----------------------------------------
 BYTE   W96
// 058   ----------------------------------------
 BYTE   W96
// 059   ----------------------------------------
 BYTE   W96
// 060   ----------------------------------------
 BYTE   W96
// 061   ----------------------------------------
 BYTE   W96
// 062   ----------------------------------------
 BYTE   W96
 BYTE   PATT
  POIN2 Label_6_017ED20C
 BYTE   PATT
  POIN2 Label_6_017ED21C
// 063   ----------------------------------------
 BYTE   W96
// 064   ----------------------------------------
 BYTE   W96
 BYTE   PATT
  POIN2 Label_6_017ED241
 BYTE   PATT
  POIN2 Label_6_017ED251
// 065   ----------------------------------------
 BYTE   W96
 BYTE   PATT
  POIN2 Label_6_017ED275
// 066   ----------------------------------------
 BYTE   W96
 BYTE   PATT
  POIN2 Label_6_017ED284
// 067   ----------------------------------------
 BYTE   W96
// 068   ----------------------------------------
 BYTE   W96
// 069   ----------------------------------------
 BYTE   W96
 BYTE   PATT
  POIN2 Label_6_017ED2BD
 BYTE   PATT
  POIN2 Label_6_017ED2DD
 BYTE   PATT
  POIN2 Label_6_017ED2EE
 BYTE   PATT
  POIN2 Label_6_017ED2FF
 BYTE   PATT
  POIN2 Label_6_017ED310
// 070   ----------------------------------------
 BYTE   W96
// 071   ----------------------------------------
 BYTE   W96
 BYTE   PATT
  POIN2 Label_6_017ED323
// 072   ----------------------------------------
 BYTE   W96
 BYTE   PATT
  POIN2 Label_6_017ED2DD
 BYTE   PATT
  POIN2 Label_6_017ED33A
 BYTE   PATT
  POIN2 Label_6_017ED34B
 BYTE   PATT
  POIN2 Label_6_017ED367
// 073   ----------------------------------------
 BYTE   W96
// 074   ----------------------------------------
 BYTE   W96
 BYTE   PATT
  POIN2 Label_6_017ED20C
 BYTE   PATT
  POIN2 Label_6_017ED21C
// 075   ----------------------------------------
 BYTE   W96
// 076   ----------------------------------------
 BYTE   W96
 BYTE   PATT
  POIN2 Label_6_017ED241
 BYTE   PATT
  POIN2 Label_6_017ED251
// 077   ----------------------------------------
 BYTE   W96
 BYTE   PATT
  POIN2 Label_6_017ED275
// 078   ----------------------------------------
 BYTE   W96
 BYTE   PATT
  POIN2 Label_6_017ED284
// 079   ----------------------------------------
 BYTE   W96
// 080   ----------------------------------------
 BYTE   W96
// 081   ----------------------------------------
 BYTE   W96
// 082   ----------------------------------------
 BYTE   W96
// 083   ----------------------------------------
 BYTE   W96
// 084   ----------------------------------------
 BYTE   W96
 BYTE   PATT
  POIN2 Label_6_017ED20C
 BYTE   PATT
  POIN2 Label_6_017ED21C
// 085   ----------------------------------------
 BYTE   W96
// 086   ----------------------------------------
 BYTE   W96
 BYTE   PATT
  POIN2 Label_6_017ED241
 BYTE   PATT
  POIN2 Label_6_017ED251
// 087   ----------------------------------------
 BYTE   W96
 BYTE   PATT
  POIN2 Label_6_017ED275
// 088   ----------------------------------------
 BYTE   W96
 BYTE   PATT
  POIN2 Label_6_017ED284
// 089   ----------------------------------------
 BYTE   W96
// 090   ----------------------------------------
 BYTE   W96
// 091   ----------------------------------------
 BYTE   W96
 BYTE   PATT
  POIN2 Label_6_017ED2BD
 BYTE   PATT
  POIN2 Label_6_017ED2DD
 BYTE   PATT
  POIN2 Label_6_017ED2EE
 BYTE   PATT
  POIN2 Label_6_017ED2FF
 BYTE   PATT
  POIN2 Label_6_017ED310
// 092   ----------------------------------------
 BYTE   W96
// 093   ----------------------------------------
 BYTE   W96
 BYTE   PATT
  POIN2 Label_6_017ED323
// 094   ----------------------------------------
 BYTE   W96
 BYTE   PATT
  POIN2 Label_6_017ED2DD
 BYTE   PATT
  POIN2 Label_6_017ED33A
 BYTE   PATT
  POIN2 Label_6_017ED34B
 BYTE   PATT
  POIN2 Label_6_017ED367
// 095   ----------------------------------------
 BYTE   W96
// 096   ----------------------------------------
 BYTE   W96
// 097   ----------------------------------------
 BYTE   W96
 BYTE   PATT
  POIN2 Label_6_017ED37D
// 098   ----------------------------------------
 BYTE   W96
// 099   ----------------------------------------
 BYTE   W96
 BYTE   PATT
  POIN2 Label_6_017ED20C
 BYTE   PATT
  POIN2 Label_6_017ED21C
// 100   ----------------------------------------
 BYTE   W96
// 101   ----------------------------------------
 BYTE   W96
 BYTE   PATT
  POIN2 Label_6_017ED241
 BYTE   PATT
  POIN2 Label_6_017ED251
// 102   ----------------------------------------
 BYTE   W96
 BYTE   PATT
  POIN2 Label_6_017ED275
// 103   ----------------------------------------
 BYTE   W96
 BYTE   PATT
  POIN2 Label_6_017ED284
// 104   ----------------------------------------
 BYTE   W96
// 105   ----------------------------------------
 BYTE   W96
// 106   ----------------------------------------
 BYTE   W96
// 107   ----------------------------------------
 BYTE   W96
// 108   ----------------------------------------
 BYTE   W96
// 109   ----------------------------------------
 BYTE   W96
 BYTE   PATT
  POIN2 Label_6_017ED20C
 BYTE   PATT
  POIN2 Label_6_017ED21C
// 110   ----------------------------------------
 BYTE   W96
// 111   ----------------------------------------
 BYTE   W96
 BYTE   PATT
  POIN2 Label_6_017ED241
 BYTE   PATT
  POIN2 Label_6_017ED251
// 112   ----------------------------------------
 BYTE   W96
 BYTE   PATT
  POIN2 Label_6_017ED275
// 113   ----------------------------------------
 BYTE   W96
 BYTE   PATT
  POIN2 Label_6_017ED284
// 114   ----------------------------------------
 BYTE   W96
// 115   ----------------------------------------
 BYTE   W96
// 116   ----------------------------------------
 BYTE   W96
 BYTE   PATT
  POIN2 Label_6_017ED2BD
 BYTE   PATT
  POIN2 Label_6_017ED2DD
 BYTE   PATT
  POIN2 Label_6_017ED2EE
 BYTE   PATT
  POIN2 Label_6_017ED2FF
 BYTE   PATT
  POIN2 Label_6_017ED310
// 117   ----------------------------------------
 BYTE   W96
// 118   ----------------------------------------
 BYTE   W96
 BYTE   PATT
  POIN2 Label_6_017ED323
// 119   ----------------------------------------
 BYTE   W96
 BYTE   PATT
  POIN2 Label_6_017ED2DD
 BYTE   PATT
  POIN2 Label_6_017ED33A
 BYTE   PATT
  POIN2 Label_6_017ED34B
 BYTE   PATT
  POIN2 Label_6_017ED367
// 120   ----------------------------------------
 BYTE   W96
// 121   ----------------------------------------
 BYTE   W96
// 122   ----------------------------------------
 BYTE   W96
 BYTE   PATT
  POIN2 Label_6_017ED37D
// 123   ----------------------------------------
 BYTE   W96
// 124   ----------------------------------------
 BYTE   W96
 BYTE   PATT
  POIN2 Label_6_017ED20C
 BYTE   PATT
  POIN2 Label_6_017ED21C
// 125   ----------------------------------------
 BYTE   W96
// 126   ----------------------------------------
 BYTE   W96
 BYTE   PATT
  POIN2 Label_6_017ED241
 BYTE   PATT
  POIN2 Label_6_017ED251
// 127   ----------------------------------------
 BYTE   W96
 BYTE   PATT
  POIN2 Label_6_017ED275
// 128   ----------------------------------------
 BYTE   W96
 BYTE   PATT
  POIN2 Label_6_017ED284
// 129   ----------------------------------------
 BYTE   W96
// 130   ----------------------------------------
 BYTE   W96
// 131   ----------------------------------------
 BYTE   W96
// 132   ----------------------------------------
 BYTE   W96
// 133   ----------------------------------------
 BYTE   W96
// 134   ----------------------------------------
 BYTE   W96
 BYTE   PATT
  POIN2 Label_6_017ED20C
 BYTE   PATT
  POIN2 Label_6_017ED21C
// 135   ----------------------------------------
 BYTE   W96
// 136   ----------------------------------------
 BYTE   W96
 BYTE   PATT
  POIN2 Label_6_017ED241
 BYTE   PATT
  POIN2 Label_6_017ED251
// 137   ----------------------------------------
 BYTE   W96
 BYTE   PATT
  POIN2 Label_6_017ED275
// 138   ----------------------------------------
 BYTE   W96
 BYTE   PATT
  POIN2 Label_6_017ED284
// 139   ----------------------------------------
 BYTE   W96
// 140   ----------------------------------------
 BYTE   W96
// 141   ----------------------------------------
 BYTE   W96
 BYTE   PATT
  POIN2 Label_6_017ED2BD
 BYTE   PATT
  POIN2 Label_6_017ED2DD
 BYTE   PATT
  POIN2 Label_6_017ED2EE
 BYTE   PATT
  POIN2 Label_6_017ED2FF
 BYTE   PATT
  POIN2 Label_6_017ED310
// 142   ----------------------------------------
 BYTE   W96
// 143   ----------------------------------------
 BYTE   W96
 BYTE   PATT
  POIN2 Label_6_017ED323
// 144   ----------------------------------------
 BYTE   W96
 BYTE   PATT
  POIN2 Label_6_017ED2DD
 BYTE   PATT
  POIN2 Label_6_017ED33A
 BYTE   PATT
  POIN2 Label_6_017ED34B
 BYTE   PATT
  POIN2 Label_6_017ED367
// 145   ----------------------------------------
 BYTE   W96
// 146   ----------------------------------------
 BYTE   W96
// 147   ----------------------------------------
 BYTE   W96
 BYTE   PATT
  POIN2 Label_6_017ED37D
// 148   ----------------------------------------
 BYTE   W96
// 149   ----------------------------------------
 BYTE   W96
 BYTE   PATT
  POIN2 Label_6_017ED20C
 BYTE   PATT
  POIN2 Label_6_017ED21C
// 150   ----------------------------------------
 BYTE   W96
// 151   ----------------------------------------
 BYTE   W96
 BYTE   PATT
  POIN2 Label_6_017ED241
 BYTE   PATT
  POIN2 Label_6_017ED251
// 152   ----------------------------------------
 BYTE   W96
 BYTE   PATT
  POIN2 Label_6_017ED275
// 153   ----------------------------------------
 BYTE   W96
 BYTE   PATT
  POIN2 Label_6_017ED284
// 154   ----------------------------------------
 BYTE   W96
// 155   ----------------------------------------
 BYTE   W96
// 156   ----------------------------------------
 BYTE   W96
 BYTE   PATT
  POIN2 Label_6_017ED2BD
 BYTE   PATT
  POIN2 Label_6_017ED2DD
 BYTE   PATT
  POIN2 Label_6_017ED2EE
 BYTE   PATT
  POIN2 Label_6_017ED2FF
 BYTE   PATT
  POIN2 Label_6_017ED310
// 157   ----------------------------------------
 BYTE   W96
// 158   ----------------------------------------
 BYTE   W96
 BYTE   PATT
  POIN2 Label_6_017ED323
// 159   ----------------------------------------
 BYTE   W96
 BYTE   PATT
  POIN2 Label_6_017ED2DD
 BYTE   PATT
  POIN2 Label_6_017ED33A
 BYTE   PATT
  POIN2 Label_6_017ED34B
 BYTE   PATT
  POIN2 Label_6_017ED367
// 160   ----------------------------------------
 BYTE   W96
// 161   ----------------------------------------
 BYTE   W96
// 162   ----------------------------------------
 BYTE   W96
 BYTE   PATT
  POIN2 Label_6_017ED37D
// 163   ----------------------------------------
Label_6_017ED61D:
 BYTE   N12  Gs2  v088
 BYTE   W12
 BYTE   Ds3
 BYTE   W12
 BYTE   Gs3
 BYTE   W12
 BYTE   Cn4
 BYTE   W12
 BYTE   Ds4
 BYTE   W12
 BYTE   Cn4
 BYTE   W12
 BYTE   Gs3
 BYTE   W12
 BYTE   Ds3
 BYTE   W12
 BYTE   PEND 
// 164   ----------------------------------------
 BYTE   Fs2
 BYTE   W12
 BYTE   Ds3
 BYTE   W12
 BYTE   Fs3
 BYTE   W12
 BYTE   Cn4
 BYTE   W12
 BYTE   Ds4
 BYTE   W12
 BYTE   Cn4
 BYTE   W12
 BYTE   Fs3
 BYTE   W12
 BYTE   Ds3
 BYTE   W12
// 165   ----------------------------------------
Label_6_017ED640:
 BYTE   N12  Cs2  v088
 BYTE   W12
 BYTE   Cs3
 BYTE   W12
 BYTE   Fn3
 BYTE   W12
 BYTE   Gs3
 BYTE   W12
 BYTE   Cs4
 BYTE   W12
 BYTE   Gs3
 BYTE   W12
 BYTE   Fn3
 BYTE   W12
 BYTE   Cs3
 BYTE   W12
 BYTE   PEND 
// 166   ----------------------------------------
 BYTE   Cs2
 BYTE   W12
 BYTE   Cs3
 BYTE   W12
 BYTE   En3
 BYTE   W12
 BYTE   Gs3
 BYTE   W12
 BYTE   Cs4
 BYTE   W12
 BYTE   Gs3
 BYTE   W12
 BYTE   En3
 BYTE   W12
 BYTE   Cs3
 BYTE   W12
// 167   ----------------------------------------
 BYTE   Cn2
 BYTE   W12
 BYTE   Cn3
 BYTE   W12
 BYTE   Ds3
 BYTE   W12
 BYTE   Gs3
 BYTE   W12
 BYTE   N48  Cn4
 BYTE   W48
// 168   ----------------------------------------
 BYTE   N12  As1
 BYTE   W12
 BYTE   As2
 BYTE   W12
 BYTE   Cs3
 BYTE   W12
 BYTE   Fn3
 BYTE   W12
 BYTE   As3
 BYTE   W12
 BYTE   Gn3
 BYTE   W12
 BYTE   Ds3
 BYTE   W12
 BYTE   As2
 BYTE   W12
// 169   ----------------------------------------
 BYTE   Gs2
 BYTE   W12
 BYTE   Ds3
 BYTE   W12
 BYTE   Gs3
 BYTE   W12
 BYTE   Cn4
 BYTE   W12
 BYTE   N48  Ds4
 BYTE   W48
// 170   ----------------------------------------
 BYTE   N12  Fs2
 BYTE   W12
 BYTE   Cs3
 BYTE   W12
 BYTE   Fs3
 BYTE   W12
 BYTE   As3
 BYTE   W12
 BYTE   N48  Ds4
 BYTE   W48
// 171   ----------------------------------------
 BYTE   N12  Cs2
 BYTE   W12
 BYTE   Cs3
 BYTE   W12
 BYTE   Fn3
 BYTE   W12
 BYTE   Gs3
 BYTE   W12
 BYTE   N48  Cs4
 BYTE   W48
// 172   ----------------------------------------
 BYTE   N12  Cs2
 BYTE   W12
 BYTE   Cs3
 BYTE   W12
 BYTE   En3
 BYTE   W12
 BYTE   Gs3
 BYTE   W12
 BYTE   N48  Cs4
 BYTE   W48
// 173   ----------------------------------------
 BYTE   N12  Gs2
 BYTE   W12
 BYTE   Cn3
 BYTE   W12
 BYTE   Gs3
 BYTE   W12
 BYTE   As3
 BYTE   W12
 BYTE   N48  Ds4
 BYTE   W48
// 174   ----------------------------------------
 BYTE   N12  Ds3
 BYTE   W12
 BYTE   Gn3
 BYTE   W12
 BYTE   Cn4
 BYTE   W12
 BYTE   Ds4
 BYTE   W12
 BYTE   Ds3
 BYTE   W12
 BYTE   Gn3
 BYTE   W12
 BYTE   As3
 BYTE   W12
 BYTE   Ds4
 BYTE   W12
// 175   ----------------------------------------
 BYTE   Gs2
 BYTE   W12
 BYTE   Cn3
 BYTE   W12
 BYTE   Gn3
 BYTE   W12
 BYTE   As3
 BYTE   W12
 BYTE   Cn4
 BYTE   W12
 BYTE   Gs3
 BYTE   W12
 BYTE   Fn3
 BYTE   W12
 BYTE   Cn3
 BYTE   W12
// 176   ----------------------------------------
 BYTE   As2
 BYTE   W12
 BYTE   Dn3
 BYTE   W12
 BYTE   Fn3
 BYTE   W12
 BYTE   As3
 BYTE   W12
 BYTE   Dn4
 BYTE   W12
 BYTE   As3
 BYTE   W12
 BYTE   Gs3
 BYTE   W12
 BYTE   Fn3
 BYTE   W12
// 177   ----------------------------------------
 BYTE   Ds2
 BYTE   W12
 BYTE   Ds3
 BYTE   W12
 BYTE   Fn3
 BYTE   W12
 BYTE   As3
 BYTE   W12
 BYTE   Ds4
 BYTE   W12
 BYTE   As3
 BYTE   W12
 BYTE   Gn3
 BYTE   W12
 BYTE   Cs3
 BYTE   W12
 BYTE   PATT
  POIN2 Label_6_017ED61D
// 178   ----------------------------------------
 BYTE   N12  Fs2  v088
 BYTE   W12
 BYTE   Cs3
 BYTE   W12
 BYTE   Fn3
 BYTE   W12
 BYTE   As3
 BYTE   W12
 BYTE   N48  Cs4
 BYTE   W48
 BYTE   PATT
  POIN2 Label_6_017ED640
// 179   ----------------------------------------
 BYTE   N12  Gs2  v088
 BYTE   W12
 BYTE   Cs3
 BYTE   W12
 BYTE   Gs3
 BYTE   W12
 BYTE   Cs4
 BYTE   W12
 BYTE   Ds4
 BYTE   W12
 BYTE   Cn4
 BYTE   W12
 BYTE   Gs3
 BYTE   W12
 BYTE   Ds3
 BYTE   W12
// 180   ----------------------------------------
 BYTE   N96  Gs2
 BYTE   W96
// 181   ----------------------------------------
 BYTE   W96
// 182   ----------------------------------------
 BYTE   W96
// 183   ----------------------------------------
 BYTE   W96
// 184   ----------------------------------------
 BYTE   W96
// 185   ----------------------------------------
 BYTE   W96
// 186   ----------------------------------------
 BYTE   W96
// 187   ----------------------------------------
 BYTE   W96
// 188   ----------------------------------------
 BYTE   W96
// 189   ----------------------------------------
 BYTE   N06  Cs2  v096
 BYTE   W06
 BYTE   Fs2
 BYTE   W06
 BYTE   Bn2
 BYTE   W06
 BYTE   Cs3
 BYTE   W06
 BYTE   Fs3
 BYTE   W06
 BYTE   Bn3
 BYTE   W06
 BYTE   Cs4
 BYTE   W06
 BYTE   Fs4
 BYTE   W06
 BYTE   As4
 BYTE   W06
 BYTE   Fs4
 BYTE   W06
 BYTE   En4
 BYTE   W06
 BYTE   Cs4
 BYTE   W06
 BYTE   As3
 BYTE   W06
 BYTE   Fs3
 BYTE   W06
 BYTE   En3
 BYTE   W06
 BYTE   Cs3
 BYTE   W06
// 190   ----------------------------------------
 BYTE   Cs2
 BYTE   W06
 BYTE   Fs2
 BYTE   W06
 BYTE   As2
 BYTE   W06
 BYTE   Cs3
 BYTE   W06
 BYTE   Fs3
 BYTE   W06
 BYTE   As3
 BYTE   W06
 BYTE   Cs4
 BYTE   W06
 BYTE   Fs4
 BYTE   W06
 BYTE   Gs4
 BYTE   W06
 BYTE   Fs4
 BYTE   W06
 BYTE   En4
 BYTE   W06
 BYTE   Cs4
 BYTE   W06
 BYTE   As3
 BYTE   W06
 BYTE   Fs3
 BYTE   W06
 BYTE   En3
 BYTE   W06
 BYTE   Cs3
 BYTE   W06
// 191   ----------------------------------------
Label_6_017ED771:
 BYTE   N12  Bn1  v096
 BYTE   W12
 BYTE   Fs2
 BYTE   W12
 BYTE   Bn2
 BYTE   W12
 BYTE   Cs3
 BYTE   W12
 BYTE   Ds3
 BYTE   W12
 BYTE   Bn2
 BYTE   W12
 BYTE   Ds3
 BYTE   W12
 BYTE   Fs3
 BYTE   W12
 BYTE   PEND 
// 192   ----------------------------------------
Label_6_017ED784:
 BYTE   N12  Cs2  v096
 BYTE   W12
 BYTE   Gs2
 BYTE   W12
 BYTE   Cs3
 BYTE   W12
 BYTE   Ds3
 BYTE   W12
 BYTE   Cs3
 BYTE   W12
 BYTE   Ds3
 BYTE   W12
 BYTE   Fn3
 BYTE   W12
 BYTE   Gs3
 BYTE   W12
 BYTE   PEND 
// 193   ----------------------------------------
Label_6_017ED797:
 BYTE   N12  Fs2  v096
 BYTE   W12
 BYTE   Cs3
 BYTE   W12
 BYTE   Fs3
 BYTE   W12
 BYTE   Gs3
 BYTE   W12
 BYTE   As3
 BYTE   W12
 BYTE   Fs3
 BYTE   W12
 BYTE   En3
 BYTE   W12
 BYTE   Cs3
 BYTE   W12
 BYTE   PEND 
// 194   ----------------------------------------
Label_6_017ED7AA:
 BYTE   N12  Ds2  v096
 BYTE   W12
 BYTE   As2
 BYTE   W12
 BYTE   Ds3
 BYTE   W12
 BYTE   Gs3
 BYTE   W12
 BYTE   N48  As3
 BYTE   W48
 BYTE   PEND 
// 195   ----------------------------------------
 BYTE   N12  Ds2
 BYTE   W12
 BYTE   Gs2
 BYTE   W12
 BYTE   Bn2
 BYTE   W12
 BYTE   Ds3
 BYTE   W12
 BYTE   Fs3
 BYTE   W12
 BYTE   Ds3
 BYTE   W12
 BYTE   Bn2
 BYTE   W12
 BYTE   Gs2
 BYTE   W12
// 196   ----------------------------------------
 BYTE   Cs2
 BYTE   W12
 BYTE   Gs2
 BYTE   W12
 BYTE   Cs3
 BYTE   W12
 BYTE   Fs3
 BYTE   W12
 BYTE   Fn3
 BYTE   W12
 BYTE   Cs3
 BYTE   W12
 BYTE   Bn2
 BYTE   W12
 BYTE   Gs2
 BYTE   W12
// 197   ----------------------------------------
 BYTE   Fs2
 BYTE   W12
 BYTE   Cs3
 BYTE   W12
 BYTE   Fs3
 BYTE   W12
 BYTE   Bn3
 BYTE   W12
 BYTE   Fs2
 BYTE   W12
 BYTE   Cs3
 BYTE   W12
 BYTE   En3
 BYTE   W12
 BYTE   Bn3
 BYTE   W12
// 198   ----------------------------------------
 BYTE   N06  As3
 BYTE   W06
 BYTE   Cs3
 BYTE   W06
 BYTE   Fs3
 BYTE   W06
 BYTE   As3
 BYTE   W06
 BYTE   Cs4
 BYTE   W06
 BYTE   Fs3
 BYTE   W06
 BYTE   As3
 BYTE   W06
 BYTE   Cs4
 BYTE   W06
 BYTE   Fs4
 BYTE   W06
 BYTE   Cs4
 BYTE   W06
 BYTE   As3
 BYTE   W06
 BYTE   Fs3
 BYTE   W06
 BYTE   En3
 BYTE   W06
 BYTE   Cs3
 BYTE   W06
 BYTE   As2
 BYTE   W06
 BYTE   Fs2
 BYTE   W06
 BYTE   PATT
  POIN2 Label_6_017ED771
 BYTE   PATT
  POIN2 Label_6_017ED784
 BYTE   PATT
  POIN2 Label_6_017ED797
 BYTE   PATT
  POIN2 Label_6_017ED7AA
// 199   ----------------------------------------
 BYTE   W96
// 200   ----------------------------------------
 BYTE   W24
 BYTE   N06  Gs3  v096
 BYTE   W06
 BYTE   Bn3
 BYTE   W06
 BYTE   Cs4
 BYTE   W06
 BYTE   En4
 BYTE   W06
 BYTE   Fs4
 BYTE   W06
 BYTE   Cs4
 BYTE   W06
 BYTE   As3
 BYTE   W06
 BYTE   Fs3
 BYTE   W06
 BYTE   En3
 BYTE   W06
 BYTE   Cs3
 BYTE   W06
 BYTE   As2
 BYTE   W06
 BYTE   Fs2
 BYTE   W06
// 201   ----------------------------------------
 BYTE   N12  Bn1
 BYTE   W12
 BYTE   Fs2
 BYTE   W12
 BYTE   Bn2
 BYTE   W12
 BYTE   En3
 BYTE   W12
 BYTE   Fs3
 BYTE   W12
 BYTE   Bn2
 BYTE   W12
 BYTE   Ds3
 BYTE   W12
 BYTE   Fs3
 BYTE   W12
// 202   ----------------------------------------
 BYTE   N06  Bn3
 BYTE   W06
 BYTE   Ds4
 BYTE   W06
 BYTE   Fs4
 BYTE   W06
 BYTE   Bn4
 BYTE   W78
// 203   ----------------------------------------
Label_6_017ED854:
 BYTE   N08  Bn2  v096
 BYTE   W08
 BYTE   Dn3
 BYTE   W08
 BYTE   Gn3
 BYTE   W08
 BYTE   Bn3
 BYTE   W08
 BYTE   Dn4
 BYTE   W08
 BYTE   Gn4
 BYTE   W08
 BYTE   Cs3
 BYTE   W08
 BYTE   En3
 BYTE   W08
 BYTE   An3
 BYTE   W08
 BYTE   Cs4
 BYTE   W08
 BYTE   En4
 BYTE   W08
 BYTE   An4
 BYTE   W08
 BYTE   PEND 
// 204   ----------------------------------------
 BYTE   N96  Bn4
 BYTE   W96
 BYTE   PATT
  POIN2 Label_6_017ED854
// 205   ----------------------------------------
 BYTE   N72  Bn4  v096
 BYTE   W72
 BYTE   N03  Gn4
 BYTE   W03
 BYTE   Ds4
 BYTE   W03
 BYTE   Cs4
 BYTE   W03
 BYTE   As3
 BYTE   W03
 BYTE   Gn3
 BYTE   W03
 BYTE   Ds3
 BYTE   W03
 BYTE   Cs3
 BYTE   W03
 BYTE   As2
 BYTE   W03
// 206   ----------------------------------------
 BYTE   N08  Gs2
 BYTE   W08
 BYTE   Ds3
 BYTE   W08
 BYTE   Gs3
 BYTE   W08
 BYTE   N24  Bn3
 BYTE   W24
 BYTE   N08  As2
 BYTE   W08
 BYTE   Fn3
 BYTE   W08
 BYTE   As3
 BYTE   W08
 BYTE   N24  Dn4
 BYTE   W24
// 207   ----------------------------------------
 BYTE   N08  Ds2
 BYTE   W08
 BYTE   An2
 BYTE   W08
 BYTE   Ds3
 BYTE   W08
 BYTE   N24  Fs3
 BYTE   W24
 BYTE   N08  Gs2
 BYTE   W08
 BYTE   Ds3
 BYTE   W08
 BYTE   Gs3
 BYTE   W08
 BYTE   N24  Bn3
 BYTE   W24
// 208   ----------------------------------------
 BYTE   N08  Cs2
 BYTE   W08
 BYTE   Gs2
 BYTE   W08
 BYTE   Cs3
 BYTE   W08
 BYTE   N24  En3
 BYTE   W24
 BYTE   N08  Cs3
 BYTE   W08
 BYTE   En3
 BYTE   W08
 BYTE   Gs3
 BYTE   W08
 BYTE   N24  Cs4
 BYTE   W24
// 209   ----------------------------------------
 BYTE   W96
// 210   ----------------------------------------
 BYTE   W96
// 211   ----------------------------------------
 BYTE   W96
// 212   ----------------------------------------
Label_6_017ED8CB:
 BYTE   N24  Ds3  v096
 BYTE   N24  Ds4
 BYTE   W24
 BYTE   Bn2
 BYTE   N24  Bn3
 BYTE   W24
 BYTE   Ds3
 BYTE   N24  Ds4
 BYTE   W24
 BYTE   Fs3
 BYTE   N24  Fs4
 BYTE   W24
 BYTE   PEND 
// 213   ----------------------------------------
Label_6_017ED8DE:
 BYTE   N48  Fn3  v096
 BYTE   N48  Fn4
 BYTE   W48
 BYTE   N24  Fs3
 BYTE   N24  Fs4
 BYTE   W24
 BYTE   Gs3
 BYTE   N24  Gs4
 BYTE   W24
 BYTE   PEND 
// 214   ----------------------------------------
Label_6_017ED8EE:
 BYTE   N24  As3  v096
 BYTE   N24  As4
 BYTE   W24
 BYTE   Gs3
 BYTE   N24  Gs4
 BYTE   W24
 BYTE   Fs3
 BYTE   N24  Fs4
 BYTE   W24
 BYTE   En3
 BYTE   N24  En4
 BYTE   W24
 BYTE   PEND 
// 215   ----------------------------------------
Label_6_017ED901:
 BYTE   N48  Ds3  v096
 BYTE   N48  Ds4
 BYTE   W48
 BYTE   Cs3
 BYTE   N48  Cs4
 BYTE   W48
 BYTE   PEND 
// 216   ----------------------------------------
 BYTE   N24  As2
 BYTE   N24  As3
 BYTE   W24
 BYTE   Bn2
 BYTE   N24  Bn3
 BYTE   W24
 BYTE   Ds3
 BYTE   N24  Ds4
 BYTE   W24
 BYTE   Gs3
 BYTE   N24  Gs4
 BYTE   W24
// 217   ----------------------------------------
 BYTE   N48  Fs3
 BYTE   N48  Fs4
 BYTE   W48
 BYTE   Fn3
 BYTE   N48  Fn4
 BYTE   W48
// 218   ----------------------------------------
 BYTE   N96  Fs3
 BYTE   N96  Fs4
 BYTE   W96
// 219   ----------------------------------------
 BYTE   W24
 BYTE   N24  As2
 BYTE   N24  As3
 BYTE   W24
 BYTE   Bn2
 BYTE   N24  Bn3
 BYTE   W24
 BYTE   Cs3
 BYTE   N24  Cs4
 BYTE   W24
 BYTE   PATT
  POIN2 Label_6_017ED8CB
 BYTE   PATT
  POIN2 Label_6_017ED8DE
 BYTE   PATT
  POIN2 Label_6_017ED8EE
 BYTE   PATT
  POIN2 Label_6_017ED901
// 220   ----------------------------------------
 BYTE   W96
// 221   ----------------------------------------
 BYTE   W24
 BYTE   PAN   c_v-29
 BYTE   N06  Gs3  v096
 BYTE   W06
 BYTE   PAN   c_v-24
 BYTE   N06  Bn3
 BYTE   W06
 BYTE   PAN   c_v-19
 BYTE   N06  Cs4
 BYTE   W06
 BYTE   PAN   c_v-14
 BYTE   N06  En4
 BYTE   W06
 BYTE   PAN   c_v-9
 BYTE   N06  Fs4
 BYTE   W06
 BYTE   PAN   c_v-4
 BYTE   N06  Cs4
 BYTE   W06
 BYTE   PAN   c_v+1
 BYTE   N06  As3
 BYTE   W06
 BYTE   PAN   c_v+6
 BYTE   N06  Fs3
 BYTE   W06
 BYTE   PAN   c_v+11
 BYTE   N06  En3
 BYTE   W06
 BYTE   PAN   c_v+16
 BYTE   N06  Cs3
 BYTE   W06
 BYTE   PAN   c_v+21
 BYTE   N06  As2
 BYTE   W06
 BYTE   PAN   c_v+26
 BYTE   N06  Fs2
 BYTE   W06
// 222   ----------------------------------------
 BYTE   PAN   c_v+48
 BYTE   N06  Bn1
 BYTE   W06
 BYTE   PAN   c_v+45
 BYTE   N06  Fs2
 BYTE   W06
 BYTE   PAN   c_v+42
 BYTE   N06  Bn2
 BYTE   W06
 BYTE   PAN   c_v+39
 BYTE   N06  Ds3
 BYTE   W06
 BYTE   PAN   c_v+36
 BYTE   N06  Fs3
 BYTE   W06
 BYTE   PAN   c_v+33
 BYTE   N06  Bn3
 BYTE   W06
 BYTE   PAN   c_v+30
 BYTE   N06  Ds4
 BYTE   W06
 BYTE   PAN   c_v+27
 BYTE   N06  Fs4
 BYTE   W06
 BYTE   PAN   c_v+24
 BYTE   N06  Bn4
 BYTE   W06
 BYTE   PAN   c_v+21
 BYTE   N06  Fs4
 BYTE   W06
 BYTE   PAN   c_v+18
 BYTE   N06  Ds4
 BYTE   W06
 BYTE   PAN   c_v+15
 BYTE   N06  Bn3
 BYTE   W06
 BYTE   PAN   c_v+12
 BYTE   N06  Fs3
 BYTE   W06
 BYTE   PAN   c_v+9
 BYTE   N06  Ds3
 BYTE   W06
 BYTE   PAN   c_v+6
 BYTE   N06  Bn2
 BYTE   W06
 BYTE   PAN   c_v+3
 BYTE   N06  Fs2
 BYTE   W06
// 223   ----------------------------------------
 BYTE   PAN   c_v+0
 BYTE   N06  Ds2
 BYTE   W06
 BYTE   PAN   c_v-3
 BYTE   N06  Fs2
 BYTE   W06
 BYTE   PAN   c_v-6
 BYTE   N06  Bn2
 BYTE   W06
 BYTE   PAN   c_v-9
 BYTE   N06  Ds3
 BYTE   W06
 BYTE   PAN   c_v-12
 BYTE   N06  Fs3
 BYTE   W06
 BYTE   PAN   c_v-15
 BYTE   N06  Bn3
 BYTE   W06
 BYTE   PAN   c_v-18
 BYTE   N06  Ds4
 BYTE   W06
 BYTE   PAN   c_v-21
 BYTE   N06  Fs4
 BYTE   W06
 BYTE   PAN   c_v-24
 BYTE   N06  Bn4
 BYTE   W06
 BYTE   PAN   c_v-27
 BYTE   N06  Fs4
 BYTE   W06
 BYTE   PAN   c_v-30
 BYTE   N06  Ds4
 BYTE   W06
 BYTE   PAN   c_v-33
 BYTE   N06  Bn3
 BYTE   W06
 BYTE   PAN   c_v-36
 BYTE   N06  Fs3
 BYTE   W06
 BYTE   PAN   c_v-39
 BYTE   N06  Ds3
 BYTE   W06
 BYTE   PAN   c_v-42
 BYTE   N06  Bn2
 BYTE   W06
 BYTE   PAN   c_v-45
 BYTE   N06  Fs2
 BYTE   W06
// 224   ----------------------------------------
 BYTE   PAN   c_v-48
 BYTE   N06  Ds1
 BYTE   W06
 BYTE   PAN   c_v-45
 BYTE   N06  Gs1
 BYTE   W06
 BYTE   PAN   c_v-42
 BYTE   N06  Ds2
 BYTE   W06
 BYTE   PAN   c_v-39
 BYTE   N06  Fn2
 BYTE   W06
 BYTE   PAN   c_v-36
 BYTE   N06  Gs2
 BYTE   W06
 BYTE   PAN   c_v-33
 BYTE   N06  Ds3
 BYTE   W06
 BYTE   PAN   c_v-30
 BYTE   N06  Fn3
 BYTE   W06
 BYTE   PAN   c_v-27
 BYTE   N06  Gs3
 BYTE   W06
 BYTE   PAN   c_v-24
 BYTE   N06  Ds4
 BYTE   W06
 BYTE   PAN   c_v-21
 BYTE   N06  Gs3
 BYTE   W06
 BYTE   PAN   c_v-18
 BYTE   N06  Fn3
 BYTE   W06
 BYTE   PAN   c_v-15
 BYTE   N06  Ds3
 BYTE   W06
 BYTE   PAN   c_v-12
 BYTE   N06  Gs2
 BYTE   W06
 BYTE   PAN   c_v-9
 BYTE   N06  Fn2
 BYTE   W06
 BYTE   PAN   c_v-6
 BYTE   N06  Ds2
 BYTE   W06
 BYTE   PAN   c_v-3
 BYTE   N06  Gs1
 BYTE   W06
// 225   ----------------------------------------
 BYTE   PAN   c_v+0
 BYTE   N06  Fn1
 BYTE   W06
 BYTE   PAN   c_v+3
 BYTE   N06  Gs1
 BYTE   W06
 BYTE   PAN   c_v+6
 BYTE   N06  Ds2
 BYTE   W06
 BYTE   PAN   c_v+9
 BYTE   N06  Fn2
 BYTE   W06
 BYTE   PAN   c_v+12
 BYTE   N06  Gs2
 BYTE   W06
 BYTE   PAN   c_v+15
 BYTE   N06  Ds3
 BYTE   W06
 BYTE   PAN   c_v+18
 BYTE   N06  Fn3
 BYTE   W06
 BYTE   PAN   c_v+21
 BYTE   N06  Gs3
 BYTE   W06
 BYTE   PAN   c_v+24
 BYTE   N06  Ds4
 BYTE   W06
 BYTE   PAN   c_v+27
 BYTE   N06  Gs3
 BYTE   W06
 BYTE   PAN   c_v+30
 BYTE   N06  Fn3
 BYTE   W06
 BYTE   PAN   c_v+33
 BYTE   N06  Ds3
 BYTE   W06
 BYTE   PAN   c_v+36
 BYTE   N06  Gs2
 BYTE   W06
 BYTE   PAN   c_v+39
 BYTE   N06  Fn2
 BYTE   W06
 BYTE   PAN   c_v+42
 BYTE   N06  Ds2
 BYTE   W06
 BYTE   PAN   c_v+45
 BYTE   N06  Gs1
 BYTE   W06
// 226   ----------------------------------------
 BYTE   PAN   c_v+48
 BYTE   N06  En1
 BYTE   W06
 BYTE   PAN   c_v+45
 BYTE   N06  En2
 BYTE   W06
 BYTE   PAN   c_v+42
 BYTE   N06  Gn2
 BYTE   W06
 BYTE   PAN   c_v+39
 BYTE   N06  Bn2
 BYTE   W06
 BYTE   PAN   c_v+36
 BYTE   N06  En3
 BYTE   W06
 BYTE   PAN   c_v+33
 BYTE   N06  Gn3
 BYTE   W06
 BYTE   PAN   c_v+30
 BYTE   N06  Bn3
 BYTE   W06
 BYTE   PAN   c_v+27
 BYTE   N06  En4
 BYTE   W06
 BYTE   PAN   c_v+24
 BYTE   N06  Gn4
 BYTE   W06
 BYTE   PAN   c_v+21
 BYTE   N06  En4
 BYTE   W06
 BYTE   PAN   c_v+18
 BYTE   N06  Bn3
 BYTE   W06
 BYTE   PAN   c_v+15
 BYTE   N06  Gn3
 BYTE   W06
 BYTE   PAN   c_v+12
 BYTE   N06  En3
 BYTE   W06
 BYTE   PAN   c_v+9
 BYTE   N06  Bn2
 BYTE   W06
 BYTE   PAN   c_v+6
 BYTE   N06  Gn2
 BYTE   W06
 BYTE   PAN   c_v+3
 BYTE   N06  En2
 BYTE   W06
// 227   ----------------------------------------
 BYTE   PAN   c_v+0
 BYTE   N06  Bn1
 BYTE   W06
 BYTE   PAN   c_v-3
 BYTE   N06  En2
 BYTE   W06
 BYTE   PAN   c_v-6
 BYTE   N06  Gn2
 BYTE   W06
 BYTE   PAN   c_v-9
 BYTE   N06  Bn2
 BYTE   W06
 BYTE   PAN   c_v-12
 BYTE   N06  En3
 BYTE   W06
 BYTE   PAN   c_v-15
 BYTE   N06  Gn3
 BYTE   W06
 BYTE   PAN   c_v-18
 BYTE   N06  Bn3
 BYTE   W06
 BYTE   PAN   c_v-21
 BYTE   N06  En4
 BYTE   W06
 BYTE   PAN   c_v-24
 BYTE   N06  Gn4
 BYTE   W06
 BYTE   PAN   c_v-27
 BYTE   N06  En4
 BYTE   W06
 BYTE   PAN   c_v-30
 BYTE   N06  Bn3
 BYTE   W06
 BYTE   PAN   c_v-33
 BYTE   N06  Gn3
 BYTE   W06
 BYTE   PAN   c_v-36
 BYTE   N06  En3
 BYTE   W06
 BYTE   PAN   c_v-39
 BYTE   N06  Bn2
 BYTE   W06
 BYTE   PAN   c_v-42
 BYTE   N06  Gn2
 BYTE   W06
 BYTE   PAN   c_v-45
 BYTE   N06  En2
 BYTE   W06
// 228   ----------------------------------------
 BYTE   PAN   c_v-48
 BYTE   N06  Fs1
 BYTE   W06
 BYTE   PAN   c_v-45
 BYTE   N06  Fs2
 BYTE   W06
 BYTE   PAN   c_v-42
 BYTE   N06  As2
 BYTE   W06
 BYTE   PAN   c_v-39
 BYTE   N06  Cs3
 BYTE   W06
 BYTE   PAN   c_v-36
 BYTE   N06  Fs3
 BYTE   W06
 BYTE   PAN   c_v-33
 BYTE   N06  As3
 BYTE   W06
 BYTE   PAN   c_v-30
 BYTE   N06  Cs4
 BYTE   W06
 BYTE   PAN   c_v-27
 BYTE   N06  Fs4
 BYTE   W06
 BYTE   PAN   c_v-24
 BYTE   N06  As4
 BYTE   W06
 BYTE   PAN   c_v-21
 BYTE   N06  Fs4
 BYTE   W06
 BYTE   PAN   c_v-18
 BYTE   N06  Cs4
 BYTE   W06
 BYTE   PAN   c_v-15
 BYTE   N06  As3
 BYTE   W06
 BYTE   PAN   c_v-12
 BYTE   N06  Fs3
 BYTE   W06
 BYTE   PAN   c_v-9
 BYTE   N06  Cs3
 BYTE   W06
 BYTE   PAN   c_v-6
 BYTE   N06  As2
 BYTE   W06
 BYTE   PAN   c_v-3
 BYTE   N06  Fs2
 BYTE   W06
// 229   ----------------------------------------
 BYTE   PAN   c_v+0
 BYTE   N06  Cs2
 BYTE   W06
 BYTE   PAN   c_v+3
 BYTE   N06  Fs2
 BYTE   W06
 BYTE   PAN   c_v+6
 BYTE   N06  As2
 BYTE   W06
 BYTE   PAN   c_v+9
 BYTE   N06  Cs3
 BYTE   W06
 BYTE   PAN   c_v+12
 BYTE   N06  Fs3
 BYTE   W06
 BYTE   PAN   c_v+15
 BYTE   N06  As3
 BYTE   W06
 BYTE   PAN   c_v+18
 BYTE   N06  Cs4
 BYTE   W06
 BYTE   PAN   c_v+21
 BYTE   N06  Fs4
 BYTE   W06
 BYTE   PAN   c_v+24
 BYTE   N06  As4
 BYTE   W06
 BYTE   PAN   c_v+27
 BYTE   N06  Fs4
 BYTE   W06
 BYTE   PAN   c_v+30
 BYTE   N06  Cs4
 BYTE   W06
 BYTE   PAN   c_v+33
 BYTE   N06  As3
 BYTE   W06
 BYTE   PAN   c_v+36
 BYTE   N06  Fs3
 BYTE   W06
 BYTE   PAN   c_v+39
 BYTE   N06  Cs3
 BYTE   W06
 BYTE   PAN   c_v+42
 BYTE   N06  As2
 BYTE   W06
 BYTE   PAN   c_v+45
 BYTE   N06  Fs2
 BYTE   W06
// 230   ----------------------------------------
 BYTE   W96
// 231   ----------------------------------------
 BYTE   W96
// 232   ----------------------------------------
 BYTE   W96
// 233   ----------------------------------------
 BYTE   W96
 BYTE   FINE

//******************************************************//
	ALIGN 4

RomancingSaga2EndingExtraLong7743:
	BYTE	7	// NumTrks
	BYTE	0	// NumBlks
	BYTE	RomancingSaga2EndingExtraLong7743_pri	// Priority
	BYTE	RomancingSaga2EndingExtraLong7743_rev	// Reverb.
    
	POIN2	RomancingSaga2EndingExtraLong7743_grp
    
	POIN2	RomancingSaga2EndingExtraLong7743_001
	POIN2	RomancingSaga2EndingExtraLong7743_002
	POIN2	RomancingSaga2EndingExtraLong7743_003
	POIN2	RomancingSaga2EndingExtraLong7743_004
	POIN2	RomancingSaga2EndingExtraLong7743_005
	POIN2	RomancingSaga2EndingExtraLong7743_006
	POIN2	RomancingSaga2EndingExtraLong7743_007

	
