//Event file generated from Sappy .s format.
	#include "MPlayDef.event"

	#define	RomancingSaga3FourNobleDevilPart1BigMood_grp  voicegroup000
	#define	RomancingSaga3FourNobleDevilPart1BigMood_pri  0
	#define	RomancingSaga3FourNobleDevilPart1BigMood_rev  0
	#define	RomancingSaga3FourNobleDevilPart1BigMood_mvl  127
	#define	RomancingSaga3FourNobleDevilPart1BigMood_key  0
	#define	RomancingSaga3FourNobleDevilPart1BigMood_tbs  1
	#define	RomancingSaga3FourNobleDevilPart1BigMood_exg  0
	#define	RomancingSaga3FourNobleDevilPart1BigMood_cmp  1

	// .rodata
	//	RomancingSaga3FourNobleDevilPart1BigMood
	ALIGN 4


//**************** Track 1 (Midi-Chn.0) ****************//

RomancingSaga3FourNobleDevilPart1BigMood_001:
// 000   ----------------------------------------
 BYTE   KEYSH   RomancingSaga3FourNobleDevilPart1BigMood_key+0
 BYTE   TEMPO   160*RomancingSaga3FourNobleDevilPart1BigMood_tbs/2
 BYTE   MODT 0
 BYTE   LFOS 44
 BYTE   BENDR  127
 BYTE   VOL   0*RomancingSaga3FourNobleDevilPart1BigMood_mvl/mxv
 BYTE   MOD 64
 BYTE   PAN   c_v-64
 BYTE   W06
 BYTE   VOICE   30
 BYTE   VOL   75*RomancingSaga3FourNobleDevilPart1BigMood_mvl/mxv
 BYTE   PAN   c_v+0
 BYTE   VOL   75*RomancingSaga3FourNobleDevilPart1BigMood_mvl/mxv
 BYTE   BENDR  0
 BYTE   MOD 0
 BYTE   N32  Fs3  v116
 BYTE   W36
 BYTE   N05  Fn3
 BYTE   W06
 BYTE   Fs3
 BYTE   W06
 BYTE   N16  As3
 BYTE   W18
 BYTE   Gs3
 BYTE   W18
 BYTE   N10  Fs3
 BYTE   W06
// 001   ----------------------------------------
 BYTE   W06
 BYTE   N32  Gs3
 BYTE   W36
 BYTE   N05  Fn3
 BYTE   W06
 BYTE   Gs3
 BYTE   W06
 BYTE   N16  Cs4
 BYTE   W18
 BYTE   Gs3
 BYTE   W18
 BYTE   N10  Bn3
 BYTE   W06
// 002   ----------------------------------------
 BYTE   W06
 BYTE   N16  As3
 BYTE   W18
 BYTE   An3
 BYTE   W18
 BYTE   N10  As3
 BYTE   W12
 BYTE   N16  Ds4
 BYTE   W18
 BYTE   En4
 BYTE   W18
 BYTE   N10  Ds4
 BYTE   W06
// 003   ----------------------------------------
 BYTE   W06
 BYTE   N32  Cs4
 BYTE   W36
 BYTE   N05  Bn3
 BYTE   W06
 BYTE   As3
 BYTE   W06
 BYTE   N42  Bn3
 BYTE   W42
// 004   ----------------------------------------
 BYTE   W06
 BYTE   N32  Fn3
 BYTE   W36
 BYTE   N05  Ds3
 BYTE   W06
 BYTE   Fn3
 BYTE   W06
 BYTE   N16  Fs3
 BYTE   W18
 BYTE   Fn3
 BYTE   W18
 BYTE   N10  Fs3
 BYTE   W06
// 005   ----------------------------------------
 BYTE   W06
 BYTE   N32  Gs3
 BYTE   W36
 BYTE   N05  Fs3
 BYTE   W06
 BYTE   Gs3
 BYTE   W06
 BYTE   N16  As3
 BYTE   W18
 BYTE   An3
 BYTE   W18
 BYTE   N10  As3
 BYTE   W06
// 006   ----------------------------------------
 BYTE   W06
 BYTE   N16  Ds4
 BYTE   W18
 BYTE   Fn4
 BYTE   W18
 BYTE   N10  Fs4
 BYTE   W12
 BYTE   N21  Fn4
 BYTE   W24
 BYTE   Cn4
 BYTE   W18
// 007   ----------------------------------------
 BYTE   W06
 BYTE   N42  Ds4
 BYTE   W48
 BYTE   Dn4
 BYTE   W42
// 008   ----------------------------------------
 BYTE   W96
// 009   ----------------------------------------
 BYTE   W96
// 010   ----------------------------------------
 BYTE   W96
// 011   ----------------------------------------
 BYTE   W96
// 012   ----------------------------------------
 BYTE   W06
 BYTE   N16  As3  v088
 BYTE   W18
 BYTE   Cn4
 BYTE   W18
 BYTE   N54  Dn4
 BYTE   W54
// 013   ----------------------------------------
 BYTE   W06
 BYTE   N16
 BYTE   W18
 BYTE   Ds4
 BYTE   W18
 BYTE   N54  Fn4
 BYTE   W54
// 014   ----------------------------------------
 BYTE   W06
 BYTE   N16
 BYTE   W18
 BYTE   Fs4
 BYTE   W18
 BYTE   N10  Gs4
 BYTE   W12
 BYTE   N16
 BYTE   W18
 BYTE   As4
 BYTE   W18
 BYTE   N10  Bn4
 BYTE   W06
// 015   ----------------------------------------
 BYTE   W96
// 016   ----------------------------------------
 BYTE   W96
// 017   ----------------------------------------
 BYTE   W96
// 018   ----------------------------------------
 BYTE   W96
// 019   ----------------------------------------
 BYTE   W96
// 020   ----------------------------------------
 BYTE   W06
Label_0_016590DD:
 BYTE   W90
// 021   ----------------------------------------
 BYTE   W96
// 022   ----------------------------------------
 BYTE   W96
// 023   ----------------------------------------
 BYTE   W96
// 024   ----------------------------------------
 BYTE   W96
// 025   ----------------------------------------
 BYTE   W96
// 026   ----------------------------------------
 BYTE   W96
// 027   ----------------------------------------
 BYTE   W96
// 028   ----------------------------------------
 BYTE   W96
// 029   ----------------------------------------
 BYTE   W96
// 030   ----------------------------------------
 BYTE   W96
// 031   ----------------------------------------
 BYTE   W96
// 032   ----------------------------------------
 BYTE   W96
// 033   ----------------------------------------
 BYTE   W96
// 034   ----------------------------------------
 BYTE   W96
// 035   ----------------------------------------
 BYTE   W96
// 036   ----------------------------------------
 BYTE   W96
// 037   ----------------------------------------
 BYTE   W96
// 038   ----------------------------------------
 BYTE   W96
// 039   ----------------------------------------
 BYTE   W96
// 040   ----------------------------------------
 BYTE   W96
// 041   ----------------------------------------
 BYTE   W96
// 042   ----------------------------------------
 BYTE   W96
// 043   ----------------------------------------
 BYTE   W96
// 044   ----------------------------------------
 BYTE   W96
// 045   ----------------------------------------
 BYTE   W96
// 046   ----------------------------------------
 BYTE   W96
// 047   ----------------------------------------
 BYTE   W96
// 048   ----------------------------------------
 BYTE   W96
// 049   ----------------------------------------
 BYTE   W96
// 050   ----------------------------------------
 BYTE   W96
// 051   ----------------------------------------
 BYTE   W96
// 052   ----------------------------------------
 BYTE   W96
// 053   ----------------------------------------
 BYTE   W96
// 054   ----------------------------------------
 BYTE   W96
// 055   ----------------------------------------
 BYTE   W96
// 056   ----------------------------------------
 BYTE   W06
 BYTE   GoTo
  POIN2 Label_0_016590DD
 BYTE   FINE

//**************** Track 2 (Midi-Chn.1) ****************//

RomancingSaga3FourNobleDevilPart1BigMood_002:
// 000   ----------------------------------------
 BYTE   KEYSH   RomancingSaga3FourNobleDevilPart1BigMood_key+0
 BYTE   MODT 0
 BYTE   LFOS 44
 BYTE   BENDR  127
 BYTE   VOL   0*RomancingSaga3FourNobleDevilPart1BigMood_mvl/mxv
 BYTE   MOD 64
 BYTE   PAN   c_v-64
 BYTE   W06
 BYTE   VOICE   30
 BYTE   VOL   75*RomancingSaga3FourNobleDevilPart1BigMood_mvl/mxv
 BYTE   PAN   c_v+0
 BYTE   VOL   75*RomancingSaga3FourNobleDevilPart1BigMood_mvl/mxv
 BYTE   BENDR  0
 BYTE   MOD 0
 BYTE   N32  Ds3  v088
 BYTE   W36
 BYTE   N05  Cs3
 BYTE   W06
 BYTE   Ds3
 BYTE   W06
 BYTE   N16  Fs3
 BYTE   W18
 BYTE   Fn3
 BYTE   W18
 BYTE   N10  Ds3
 BYTE   W06
// 001   ----------------------------------------
 BYTE   W06
 BYTE   N32  Fn3
 BYTE   W36
 BYTE   N05  Cs3
 BYTE   W06
 BYTE   Fn3
 BYTE   W06
 BYTE   N16  Gs3
 BYTE   W18
 BYTE   Fn3
 BYTE   W18
 BYTE   N10  Gs3
 BYTE   W06
// 002   ----------------------------------------
 BYTE   W06
 BYTE   N42  Fs3
 BYTE   W48
 BYTE   Gn3
 BYTE   W42
// 003   ----------------------------------------
 BYTE   W06
 BYTE   Gs3
 BYTE   W48
 BYTE   N10
 BYTE   W12
 BYTE   As3
 BYTE   W12
 BYTE   Gs3
 BYTE   W12
 BYTE   Fs3
 BYTE   W06
// 004   ----------------------------------------
 BYTE   W06
 BYTE   N32  Cs3
 BYTE   W36
 BYTE   N10
 BYTE   W12
 BYTE   N16  Ds3
 BYTE   W18
 BYTE   Cs3
 BYTE   W18
 BYTE   N10  Ds3
 BYTE   W06
// 005   ----------------------------------------
 BYTE   W06
 BYTE   N32  Fn3
 BYTE   W36
 BYTE   N05  Ds3
 BYTE   W06
 BYTE   Fn3
 BYTE   W06
 BYTE   N16  Fs3
 BYTE   W18
 BYTE   Fn3
 BYTE   W18
 BYTE   N10  Fs3
 BYTE   W06
// 006   ----------------------------------------
 BYTE   W06
 BYTE   N42  Bn3
 BYTE   W48
 BYTE   An3
 BYTE   W42
// 007   ----------------------------------------
 BYTE   W06
 BYTE   N84  Gs3
 BYTE   W90
// 008   ----------------------------------------
 BYTE   W96
// 009   ----------------------------------------
 BYTE   W96
// 010   ----------------------------------------
 BYTE   W96
// 011   ----------------------------------------
 BYTE   W96
// 012   ----------------------------------------
 BYTE   W96
// 013   ----------------------------------------
 BYTE   W96
// 014   ----------------------------------------
 BYTE   W96
// 015   ----------------------------------------
 BYTE   W96
// 016   ----------------------------------------
 BYTE   W96
// 017   ----------------------------------------
 BYTE   W96
// 018   ----------------------------------------
 BYTE   W96
// 019   ----------------------------------------
 BYTE   W96
// 020   ----------------------------------------
 BYTE   W06
Label_1_01658F44:
 BYTE   W90
// 021   ----------------------------------------
 BYTE   W96
// 022   ----------------------------------------
 BYTE   W96
// 023   ----------------------------------------
 BYTE   W96
// 024   ----------------------------------------
 BYTE   W96
// 025   ----------------------------------------
 BYTE   W96
// 026   ----------------------------------------
 BYTE   W96
// 027   ----------------------------------------
 BYTE   W96
// 028   ----------------------------------------
 BYTE   W96
// 029   ----------------------------------------
 BYTE   W96
// 030   ----------------------------------------
 BYTE   W96
// 031   ----------------------------------------
 BYTE   W96
// 032   ----------------------------------------
 BYTE   W96
// 033   ----------------------------------------
 BYTE   W96
// 034   ----------------------------------------
 BYTE   W96
// 035   ----------------------------------------
 BYTE   W96
// 036   ----------------------------------------
 BYTE   W96
// 037   ----------------------------------------
 BYTE   W96
// 038   ----------------------------------------
 BYTE   W96
// 039   ----------------------------------------
 BYTE   W96
// 040   ----------------------------------------
 BYTE   W96
// 041   ----------------------------------------
 BYTE   W96
// 042   ----------------------------------------
 BYTE   W96
// 043   ----------------------------------------
 BYTE   W96
// 044   ----------------------------------------
 BYTE   W96
// 045   ----------------------------------------
 BYTE   W96
// 046   ----------------------------------------
 BYTE   W96
// 047   ----------------------------------------
 BYTE   W96
// 048   ----------------------------------------
 BYTE   W96
// 049   ----------------------------------------
 BYTE   W96
// 050   ----------------------------------------
 BYTE   W96
// 051   ----------------------------------------
 BYTE   W96
// 052   ----------------------------------------
 BYTE   W96
// 053   ----------------------------------------
 BYTE   W96
// 054   ----------------------------------------
 BYTE   W96
// 055   ----------------------------------------
 BYTE   W96
// 056   ----------------------------------------
 BYTE   W06
 BYTE   GoTo
  POIN2 Label_1_01658F44
 BYTE   FINE

//**************** Track 3 (Midi-Chn.2) ****************//

RomancingSaga3FourNobleDevilPart1BigMood_003:
// 000   ----------------------------------------
 BYTE   KEYSH   RomancingSaga3FourNobleDevilPart1BigMood_key+0
 BYTE   MODT 0
 BYTE   LFOS 44
 BYTE   BENDR  127
 BYTE   VOL   0*RomancingSaga3FourNobleDevilPart1BigMood_mvl/mxv
 BYTE   MOD 64
 BYTE   PAN   c_v-64
 BYTE   W06
 BYTE   VOICE   48
 BYTE   VOL   43*RomancingSaga3FourNobleDevilPart1BigMood_mvl/mxv
 BYTE   PAN   c_v-30
 BYTE   VOL   43*RomancingSaga3FourNobleDevilPart1BigMood_mvl/mxv
 BYTE   BENDR  0
 BYTE   MOD 0
 BYTE   N42  Fs4  v088
 BYTE   W48
 BYTE   As4
 BYTE   W42
// 001   ----------------------------------------
 BYTE   W06
 BYTE   Gs4
 BYTE   W48
 BYTE   Cs5
 BYTE   W42
// 002   ----------------------------------------
 BYTE   W06
 BYTE   As4
 BYTE   W48
 BYTE   Ds5
 BYTE   W42
// 003   ----------------------------------------
 BYTE   W06
 BYTE   Cs5
 BYTE   W48
 BYTE   Bn4
 BYTE   W42
// 004   ----------------------------------------
 BYTE   W06
 BYTE   Fn4
 BYTE   W48
 BYTE   Fs4
 BYTE   W42
// 005   ----------------------------------------
 BYTE   W06
 BYTE   Gs4
 BYTE   W48
 BYTE   As4
 BYTE   W42
// 006   ----------------------------------------
 BYTE   W06
 BYTE   Ds5
 BYTE   W48
 BYTE   Cn5
 BYTE   W42
// 007   ----------------------------------------
 BYTE   W06
 BYTE   As4
 BYTE   W48
 BYTE   N05
 BYTE   W06
 BYTE   Fn4
 BYTE   W06
 BYTE   Dn4
 BYTE   W06
 BYTE   As3
 BYTE   W06
 BYTE   Dn4
 BYTE   W06
 BYTE   As3
 BYTE   W06
 BYTE   Fn3
 BYTE   W06
// 008   ----------------------------------------
 BYTE   Dn3
 BYTE   W06
 BYTE   N32  Fs3
 BYTE   W36
 BYTE   N05  Fn3
 BYTE   W06
 BYTE   Fs3
 BYTE   W06
 BYTE   N16  As3
 BYTE   W18
 BYTE   Gs3
 BYTE   W18
 BYTE   N10  Fs3
 BYTE   W06
// 009   ----------------------------------------
 BYTE   W06
 BYTE   N32  Gs3
 BYTE   W36
 BYTE   N05  Fn3
 BYTE   W06
 BYTE   Gs3
 BYTE   W06
 BYTE   N16  Cs4
 BYTE   W18
 BYTE   Gs3
 BYTE   W18
 BYTE   N10  Bn3
 BYTE   W06
// 010   ----------------------------------------
 BYTE   W06
 BYTE   N16  As3
 BYTE   W18
 BYTE   An3
 BYTE   W18
 BYTE   N10  As3
 BYTE   W12
 BYTE   N16  Ds4
 BYTE   W18
 BYTE   En4
 BYTE   W18
 BYTE   N10  Ds4
 BYTE   W06
// 011   ----------------------------------------
 BYTE   W06
 BYTE   N32  Cs4
 BYTE   W36
 BYTE   N05  Bn3
 BYTE   W06
 BYTE   As3
 BYTE   W06
 BYTE   N42  Bn3
 BYTE   W42
// 012   ----------------------------------------
 BYTE   W06
 BYTE   N16  As3
 BYTE   W18
 BYTE   Cn4
 BYTE   W18
 BYTE   N54  Dn4
 BYTE   W54
// 013   ----------------------------------------
 BYTE   W06
 BYTE   N16
 BYTE   W18
 BYTE   Ds4
 BYTE   W18
 BYTE   N54  Fn4
 BYTE   W54
// 014   ----------------------------------------
 BYTE   W06
 BYTE   N16
 BYTE   W18
 BYTE   Fs4
 BYTE   W18
 BYTE   N10  Gs4
 BYTE   W12
 BYTE   N16
 BYTE   W18
 BYTE   As4
 BYTE   W18
 BYTE   N10  Bn4
 BYTE   W06
// 015   ----------------------------------------
 BYTE   W96
// 016   ----------------------------------------
 BYTE   W06
 BYTE   N42  Ds4
 BYTE   W48
 BYTE   En4
 BYTE   W42
// 017   ----------------------------------------
 BYTE   W06
 BYTE   Fs4
 BYTE   W48
 BYTE   Dn4
 BYTE   W42
// 018   ----------------------------------------
 BYTE   W06
 BYTE   Ds4
 BYTE   W48
 BYTE   Bn3
 BYTE   W42
// 019   ----------------------------------------
 BYTE   W06
 BYTE   As3
 BYTE   W48
 BYTE   Dn4
 BYTE   W42
// 020   ----------------------------------------
 BYTE   W06
Label_2_0165A23B:
 BYTE   N16  Ds4  v088
 BYTE   W18
 BYTE   As3
 BYTE   W18
 BYTE   N10  Ds4
 BYTE   W12
 BYTE   N42  Fn4
 BYTE   W42
// 021   ----------------------------------------
Label_2_0165A247:
 BYTE   W06
 BYTE   N16  Fn4  v088
 BYTE   W18
 BYTE   Fs4
 BYTE   W18
 BYTE   N10  Gs4
 BYTE   W12
 BYTE   N16  Fs4
 BYTE   W18
 BYTE   Fn4
 BYTE   W18
 BYTE   N10  Ds4
 BYTE   W06
 BYTE   PEND 
// 022   ----------------------------------------
Label_2_0165A25A:
 BYTE   W06
 BYTE   N16  Fs4  v088
 BYTE   W18
 BYTE   Fn4
 BYTE   W18
 BYTE   N10  Ds4
 BYTE   W12
 BYTE   N21  Fn4
 BYTE   W24
 BYTE   Dn4
 BYTE   W18
 BYTE   PEND 
// 023   ----------------------------------------
 BYTE   W06
 BYTE   N64  Ds4
 BYTE   W90
// 024   ----------------------------------------
Label_2_0165A26E:
 BYTE   W06
 BYTE   N16  Ds4  v088
 BYTE   W18
 BYTE   As3
 BYTE   W18
 BYTE   N10  Ds4
 BYTE   W12
 BYTE   N42  Fn4
 BYTE   W42
 BYTE   PEND 
// 025   ----------------------------------------
 BYTE   PATT
  POIN2 Label_2_0165A247
// 026   ----------------------------------------
 BYTE   PATT
  POIN2 Label_2_0165A25A
// 027   ----------------------------------------
 BYTE   W06
 BYTE   N56  Ds4  v088
 BYTE   W60
 BYTE   N10  Fn4
 BYTE   W12
 BYTE   Fs4
 BYTE   W12
 BYTE   Gs4
 BYTE   W06
// 028   ----------------------------------------
 BYTE   W06
 BYTE   N21  As4
 BYTE   W36
 BYTE   N05  Fs4
 BYTE   W06
 BYTE   Gs4
 BYTE   W06
 BYTE   N16  As4
 BYTE   W18
 BYTE   Gs4
 BYTE   W18
 BYTE   N10  Fs4
 BYTE   W06
// 029   ----------------------------------------
 BYTE   W06
 BYTE   N42  Gs4
 BYTE   W48
 BYTE   N16  Fn4
 BYTE   W18
 BYTE   Fs4
 BYTE   W18
 BYTE   N10  Gs4
 BYTE   W06
// 030   ----------------------------------------
 BYTE   W06
 BYTE   N21  As4
 BYTE   W24
 BYTE   Gs4
 BYTE   W24
 BYTE   Fs4
 BYTE   W24
 BYTE   Fn4
 BYTE   W18
// 031   ----------------------------------------
 BYTE   W06
 BYTE   N10  Gs4
 BYTE   W12
 BYTE   N05  Fs4
 BYTE   W06
 BYTE   Fn4
 BYTE   W06
 BYTE   N21  Fs4
 BYTE   W36
 BYTE   N10  Ds4
 BYTE   W12
 BYTE   Fn4
 BYTE   W12
 BYTE   Fs4
 BYTE   W06
// 032   ----------------------------------------
 BYTE   W06
 BYTE   N21  Gs4
 BYTE   W36
 BYTE   N05  Fn4
 BYTE   W06
 BYTE   Fs4
 BYTE   W06
 BYTE   N16  Gs4
 BYTE   W18
 BYTE   Fs4
 BYTE   W18
 BYTE   N10  Fn4
 BYTE   W06
// 033   ----------------------------------------
 BYTE   W06
 BYTE   N21  Ds4
 BYTE   W24
 BYTE   Dn4
 BYTE   W24
 BYTE   Ds4
 BYTE   W24
 BYTE   Fn4
 BYTE   W18
// 034   ----------------------------------------
 BYTE   W06
 BYTE   N84  Fs4
 BYTE   W90
// 035   ----------------------------------------
 BYTE   W06
 BYTE   Fn4
 BYTE   W90
// 036   ----------------------------------------
 BYTE   PATT
  POIN2 Label_2_0165A26E
// 037   ----------------------------------------
 BYTE   PATT
  POIN2 Label_2_0165A247
// 038   ----------------------------------------
 BYTE   PATT
  POIN2 Label_2_0165A25A
// 039   ----------------------------------------
 BYTE   W06
 BYTE   N64  Ds4  v088
 BYTE   W90
// 040   ----------------------------------------
 BYTE   PATT
  POIN2 Label_2_0165A26E
// 041   ----------------------------------------
 BYTE   PATT
  POIN2 Label_2_0165A247
// 042   ----------------------------------------
 BYTE   PATT
  POIN2 Label_2_0165A25A
// 043   ----------------------------------------
 BYTE   W06
 BYTE   N56  Ds4  v088
 BYTE   W60
 BYTE   N10  Fn4
 BYTE   W12
 BYTE   Ds4
 BYTE   W12
 BYTE   Cs4
 BYTE   W06
// 044   ----------------------------------------
 BYTE   W06
 BYTE   N16  Bn3
 BYTE   W18
 BYTE   Ds4
 BYTE   W18
 BYTE   N10  Fs4
 BYTE   W12
 BYTE   N42  Fn4
 BYTE   W42
// 045   ----------------------------------------
 BYTE   W06
 BYTE   N16  Dn4
 BYTE   W18
 BYTE   Fn4
 BYTE   W18
 BYTE   N10  Gs4
 BYTE   W12
 BYTE   N42  Fs4
 BYTE   W42
// 046   ----------------------------------------
 BYTE   W06
 BYTE   N10  Gs4
 BYTE   W12
 BYTE   Fs4
 BYTE   W12
 BYTE   Fn4
 BYTE   W12
 BYTE   Ds4
 BYTE   W12
 BYTE   N21  Dn4
 BYTE   W24
 BYTE   Fs4
 BYTE   W18
// 047   ----------------------------------------
 BYTE   W06
 BYTE   Fn4
 BYTE   W24
 BYTE   N32  Ds4
 BYTE   W36
 BYTE   N10  Gn4
 BYTE   W12
 BYTE   As4
 BYTE   W12
 BYTE   Cs5
 BYTE   W06
// 048   ----------------------------------------
 BYTE   W06
 BYTE   N32  Bn4
 BYTE   W36
 BYTE   N05  As4
 BYTE   W06
 BYTE   Gs4
 BYTE   W06
 BYTE   N42  As4
 BYTE   W42
// 049   ----------------------------------------
 BYTE   W06
 BYTE   N16  An4
 BYTE   W18
 BYTE   Fn4
 BYTE   W18
 BYTE   N10  An4
 BYTE   W12
 BYTE   N42  As4
 BYTE   W42
// 050   ----------------------------------------
 BYTE   W06
 BYTE   N16  Dn4
 BYTE   W18
 BYTE   Ds4
 BYTE   W18
 BYTE   N10  Fn4
 BYTE   W12
 BYTE   N16
 BYTE   W18
 BYTE   Fs4
 BYTE   W18
 BYTE   N10  Gs4
 BYTE   W06
// 051   ----------------------------------------
 BYTE   W06
 BYTE   N16
 BYTE   W18
 BYTE   As4
 BYTE   W18
 BYTE   N10  Bn4
 BYTE   W54
// 052   ----------------------------------------
 BYTE   W96
// 053   ----------------------------------------
 BYTE   W96
// 054   ----------------------------------------
 BYTE   W96
// 055   ----------------------------------------
 BYTE   W96
// 056   ----------------------------------------
 BYTE   W06
 BYTE   GoTo
  POIN2 Label_2_0165A23B
 BYTE   FINE

//**************** Track 4 (Midi-Chn.3) ****************//

RomancingSaga3FourNobleDevilPart1BigMood_004:
// 000   ----------------------------------------
 BYTE   KEYSH   RomancingSaga3FourNobleDevilPart1BigMood_key+0
 BYTE   MODT 0
 BYTE   LFOS 44
 BYTE   BENDR  127
 BYTE   VOL   0*RomancingSaga3FourNobleDevilPart1BigMood_mvl/mxv
 BYTE   MOD 64
 BYTE   PAN   c_v-64
 BYTE   W06
 BYTE   VOICE   48
 BYTE   VOL   43*RomancingSaga3FourNobleDevilPart1BigMood_mvl/mxv
 BYTE   PAN   c_v+0
 BYTE   VOL   43*RomancingSaga3FourNobleDevilPart1BigMood_mvl/mxv
 BYTE   BENDR  0
 BYTE   MOD 0
 BYTE   W90
// 001   ----------------------------------------
 BYTE   W96
// 002   ----------------------------------------
 BYTE   W96
// 003   ----------------------------------------
 BYTE   W96
// 004   ----------------------------------------
 BYTE   W96
// 005   ----------------------------------------
 BYTE   W96
// 006   ----------------------------------------
 BYTE   W96
// 007   ----------------------------------------
 BYTE   W96
// 008   ----------------------------------------
 BYTE   W06
 BYTE   N42  As2  v088
 BYTE   W48
 BYTE   N16  Ds3
 BYTE   W18
 BYTE   Cs3
 BYTE   W18
 BYTE   N10  As2
 BYTE   W06
// 009   ----------------------------------------
 BYTE   W06
 BYTE   N42  Cs3
 BYTE   W48
 BYTE   N16  Fn3
 BYTE   W18
 BYTE   Cs3
 BYTE   W18
 BYTE   N10  Fn3
 BYTE   W06
// 010   ----------------------------------------
 BYTE   W06
 BYTE   N42  Cs3
 BYTE   W48
 BYTE   Gn3
 BYTE   W42
// 011   ----------------------------------------
 BYTE   W06
 BYTE   N56  Ds3
 BYTE   W60
 BYTE   N10  Fs3
 BYTE   W12
 BYTE   Fn3
 BYTE   W12
 BYTE   Ds3
 BYTE   W06
// 012   ----------------------------------------
 BYTE   W96
// 013   ----------------------------------------
 BYTE   W96
// 014   ----------------------------------------
 BYTE   W96
// 015   ----------------------------------------
 BYTE   W96
// 016   ----------------------------------------
 BYTE   W06
 BYTE   N42  Fs3
 BYTE   W48
 BYTE   Gs3
 BYTE   W42
// 017   ----------------------------------------
 BYTE   W06
 BYTE   As3
 BYTE   W48
 BYTE   Fn3
 BYTE   W42
// 018   ----------------------------------------
 BYTE   W06
 BYTE   Fs3
 BYTE   W48
 BYTE   Ds3
 BYTE   W42
// 019   ----------------------------------------
 BYTE   W06
 BYTE   Dn3
 BYTE   W48
 BYTE   Fn3
 BYTE   W42
// 020   ----------------------------------------
 BYTE   W06
Label_3_01659463:
 BYTE   N42  Fs3  v088
 BYTE   W48
 BYTE   An3
 BYTE   W42
// 021   ----------------------------------------
Label_3_01659469:
 BYTE   W06
 BYTE   N42  Bn3  v088
 BYTE   W48
 BYTE   As3
 BYTE   W42
 BYTE   PEND 
// 022   ----------------------------------------
Label_3_01659471:
 BYTE   W06
 BYTE   N42  Bn3  v088
 BYTE   W48
 BYTE   Gs3
 BYTE   W42
 BYTE   PEND 
// 023   ----------------------------------------
Label_3_01659479:
 BYTE   W06
 BYTE   N21  Fs3  v088
 BYTE   W24
 BYTE   Gs3
 BYTE   W24
 BYTE   Fs3
 BYTE   W24
 BYTE   Fn3
 BYTE   W18
 BYTE   PEND 
// 024   ----------------------------------------
Label_3_01659485:
 BYTE   W06
 BYTE   N42  Fs3  v088
 BYTE   W48
 BYTE   An3
 BYTE   W42
 BYTE   PEND 
// 025   ----------------------------------------
 BYTE   PATT
  POIN2 Label_3_01659469
// 026   ----------------------------------------
 BYTE   PATT
  POIN2 Label_3_01659471
// 027   ----------------------------------------
 BYTE   W06
 BYTE   N21  Fs3  v088
 BYTE   W24
 BYTE   Fn3
 BYTE   W24
 BYTE   N10  Fs3
 BYTE   W12
 BYTE   Gs3
 BYTE   W12
 BYTE   As3
 BYTE   W12
 BYTE   Cs4
 BYTE   W06
// 028   ----------------------------------------
 BYTE   W06
 BYTE   N84  Bn3
 BYTE   W90
// 029   ----------------------------------------
 BYTE   W06
 BYTE   N42  Cs4
 BYTE   W48
 BYTE   N16  Gs3
 BYTE   W18
 BYTE   As3
 BYTE   W18
 BYTE   N10  Bn3
 BYTE   W06
// 030   ----------------------------------------
 BYTE   W06
 BYTE   N21  Dn4
 BYTE   W24
 BYTE   Bn3
 BYTE   W24
 BYTE   As3
 BYTE   W24
 BYTE   Gs3
 BYTE   W18
// 031   ----------------------------------------
 BYTE   W06
 BYTE   N84  As3
 BYTE   W90
// 032   ----------------------------------------
 BYTE   W06
 BYTE   N42  Ds4
 BYTE   W48
 BYTE   N16
 BYTE   W18
 BYTE   Cs4
 BYTE   W18
 BYTE   N10  Bn3
 BYTE   W06
// 033   ----------------------------------------
 BYTE   W06
 BYTE   N42  Fn3
 BYTE   W48
 BYTE   N21  Fs3
 BYTE   W24
 BYTE   Gs3
 BYTE   W18
// 034   ----------------------------------------
 BYTE   W06
 BYTE   N42  An3
 BYTE   W48
 BYTE   N16  Cn4
 BYTE   W18
 BYTE   An3
 BYTE   W18
 BYTE   N10  Fs3
 BYTE   W06
// 035   ----------------------------------------
 BYTE   W06
 BYTE   N84  Gs3
 BYTE   W90
// 036   ----------------------------------------
 BYTE   PATT
  POIN2 Label_3_01659485
// 037   ----------------------------------------
 BYTE   PATT
  POIN2 Label_3_01659469
// 038   ----------------------------------------
 BYTE   PATT
  POIN2 Label_3_01659471
// 039   ----------------------------------------
 BYTE   PATT
  POIN2 Label_3_01659479
// 040   ----------------------------------------
 BYTE   PATT
  POIN2 Label_3_01659485
// 041   ----------------------------------------
 BYTE   PATT
  POIN2 Label_3_01659469
// 042   ----------------------------------------
 BYTE   PATT
  POIN2 Label_3_01659471
// 043   ----------------------------------------
 BYTE   W06
 BYTE   N21  Fs3  v088
 BYTE   W24
 BYTE   Fn3
 BYTE   W24
 BYTE   N10  Fs3
 BYTE   W12
 BYTE   Gs3
 BYTE   W12
 BYTE   Fs3
 BYTE   W12
 BYTE   Fn3
 BYTE   W06
// 044   ----------------------------------------
 BYTE   W06
 BYTE   N16  Ds3
 BYTE   W18
 BYTE   Gs3
 BYTE   W18
 BYTE   N10  Bn3
 BYTE   W12
 BYTE   N42  Gs3
 BYTE   W42
// 045   ----------------------------------------
 BYTE   W06
 BYTE   N16  Fn3
 BYTE   W18
 BYTE   Gs3
 BYTE   W18
 BYTE   N10  Dn4
 BYTE   W12
 BYTE   N42  As3
 BYTE   W42
// 046   ----------------------------------------
 BYTE   W06
 BYTE   N21  Bn3
 BYTE   W24
 BYTE   Gs3
 BYTE   W24
 BYTE   N21
 BYTE   W24
 BYTE   N21
 BYTE   W18
// 047   ----------------------------------------
 BYTE   W06
 BYTE   N42  Fs3
 BYTE   W48
 BYTE   N10  Gn3
 BYTE   W12
 BYTE   As3
 BYTE   W12
 BYTE   Cs4
 BYTE   W12
 BYTE   En4
 BYTE   W06
// 048   ----------------------------------------
 BYTE   W06
 BYTE   N42  Ds4
 BYTE   W48
 BYTE   Cs4
 BYTE   W42
// 049   ----------------------------------------
 BYTE   W06
 BYTE   N16  Cn4
 BYTE   W18
 BYTE   An3
 BYTE   W18
 BYTE   N10  Cn4
 BYTE   W12
 BYTE   N42  Dn4
 BYTE   W42
// 050   ----------------------------------------
 BYTE   W06
 BYTE   N16  Fn3
 BYTE   W18
 BYTE   Fs3
 BYTE   W18
 BYTE   N10  Gs3
 BYTE   W12
 BYTE   N16
 BYTE   W18
 BYTE   As3
 BYTE   W18
 BYTE   N10  Bn3
 BYTE   W06
// 051   ----------------------------------------
 BYTE   W06
 BYTE   N16
 BYTE   W18
 BYTE   Cs4
 BYTE   W18
 BYTE   N10  Ds4
 BYTE   W54
// 052   ----------------------------------------
 BYTE   W06
 BYTE   N16
 BYTE   W18
 BYTE   Fn4
 BYTE   W18
 BYTE   N10  Fs4
 BYTE   W12
 BYTE   N16  Gs4
 BYTE   W18
 BYTE   Fs4
 BYTE   W18
 BYTE   N10  Fn4
 BYTE   W06
// 053   ----------------------------------------
 BYTE   W06
 BYTE   N16  Fs4
 BYTE   W18
 BYTE   Fn4
 BYTE   W18
 BYTE   N10  Ds4
 BYTE   W12
 BYTE   N16  Fn4
 BYTE   W18
 BYTE   Ds4
 BYTE   W18
 BYTE   N10  Dn4
 BYTE   W06
// 054   ----------------------------------------
 BYTE   W06
 BYTE   N42  Ds4
 BYTE   W48
 BYTE   Bn3
 BYTE   W42
// 055   ----------------------------------------
 BYTE   W06
 BYTE   As3
 BYTE   W48
 BYTE   Dn4
 BYTE   W42
// 056   ----------------------------------------
 BYTE   W06
 BYTE   GoTo
  POIN2 Label_3_01659463
 BYTE   FINE

//**************** Track 5 (Midi-Chn.4) ****************//

RomancingSaga3FourNobleDevilPart1BigMood_005:
// 000   ----------------------------------------
 BYTE   KEYSH   RomancingSaga3FourNobleDevilPart1BigMood_key+0
 BYTE   MODT 0
 BYTE   LFOS 44
 BYTE   BENDR  127
 BYTE   VOL   0*RomancingSaga3FourNobleDevilPart1BigMood_mvl/mxv
 BYTE   MOD 64
 BYTE   PAN   c_v-64
 BYTE   W06
 BYTE   VOICE   48
 BYTE   VOL   43*RomancingSaga3FourNobleDevilPart1BigMood_mvl/mxv
 BYTE   PAN   c_v+30
 BYTE   VOL   43*RomancingSaga3FourNobleDevilPart1BigMood_mvl/mxv
 BYTE   BENDR  0
 BYTE   MOD 0
 BYTE   N05  Ds3  v088
 BYTE   W06
 BYTE   As2
 BYTE   W06
 BYTE   Ds3
 BYTE   W06
 BYTE   Fn3
 BYTE   W06
 BYTE   As3
 BYTE   W06
 BYTE   Fn3
 BYTE   W06
 BYTE   As3
 BYTE   W06
 BYTE   Ds4
 BYTE   W06
 BYTE   N42  Fs4
 BYTE   W42
// 001   ----------------------------------------
 BYTE   W06
 BYTE   N05  Fn3
 BYTE   W06
 BYTE   Cs3
 BYTE   W06
 BYTE   Fn3
 BYTE   W06
 BYTE   Gs3
 BYTE   W06
 BYTE   Cs4
 BYTE   W06
 BYTE   Gs3
 BYTE   W06
 BYTE   Cs4
 BYTE   W06
 BYTE   Fn4
 BYTE   W06
 BYTE   N42  Gs4
 BYTE   W42
// 002   ----------------------------------------
 BYTE   W06
 BYTE   N05  Fs3
 BYTE   W06
 BYTE   Cs3
 BYTE   W06
 BYTE   Fs3
 BYTE   W06
 BYTE   As3
 BYTE   W06
 BYTE   Cs4
 BYTE   W06
 BYTE   As3
 BYTE   W06
 BYTE   Cs4
 BYTE   W06
 BYTE   Fs4
 BYTE   W06
 BYTE   Gn3
 BYTE   W06
 BYTE   Ds3
 BYTE   W06
 BYTE   Gn3
 BYTE   W06
 BYTE   As3
 BYTE   W06
 BYTE   Ds4
 BYTE   W06
 BYTE   As3
 BYTE   W06
 BYTE   Ds4
 BYTE   W06
// 003   ----------------------------------------
 BYTE   Gn4
 BYTE   W06
 BYTE   Gs4
 BYTE   W06
 BYTE   Ds4
 BYTE   W06
 BYTE   Bn3
 BYTE   W06
 BYTE   Gs3
 BYTE   W06
 BYTE   Ds4
 BYTE   W06
 BYTE   Bn3
 BYTE   W06
 BYTE   Gs3
 BYTE   W06
 BYTE   Ds3
 BYTE   W06
 BYTE   Bn3
 BYTE   W06
 BYTE   Gs3
 BYTE   W06
 BYTE   Ds3
 BYTE   W06
 BYTE   Bn2
 BYTE   W06
 BYTE   Gs3
 BYTE   W06
 BYTE   Ds3
 BYTE   W06
 BYTE   Bn2
 BYTE   W06
// 004   ----------------------------------------
 BYTE   Gs2
 BYTE   W06
 BYTE   Cs3
 BYTE   W06
 BYTE   Gs2
 BYTE   W06
 BYTE   Cs3
 BYTE   W06
 BYTE   Fn3
 BYTE   W06
 BYTE   Gs3
 BYTE   W06
 BYTE   Fn3
 BYTE   W06
 BYTE   Gs3
 BYTE   W06
 BYTE   Cs4
 BYTE   W06
 BYTE   Ds3
 BYTE   W06
 BYTE   Bn2
 BYTE   W06
 BYTE   Ds3
 BYTE   W06
 BYTE   Fs3
 BYTE   W06
 BYTE   Bn3
 BYTE   W06
 BYTE   Fs3
 BYTE   W06
 BYTE   Bn3
 BYTE   W06
// 005   ----------------------------------------
 BYTE   Ds4
 BYTE   W06
 BYTE   Fn3
 BYTE   W06
 BYTE   Cs3
 BYTE   W06
 BYTE   Fn3
 BYTE   W06
 BYTE   Gs3
 BYTE   W06
 BYTE   Cs4
 BYTE   W06
 BYTE   Gs3
 BYTE   W06
 BYTE   Cs4
 BYTE   W06
 BYTE   Fn4
 BYTE   W06
 BYTE   N10  Cs4
 BYTE   W12
 BYTE   N05  As3
 BYTE   W06
 BYTE   Fs3
 BYTE   W06
 BYTE   Cs4
 BYTE   W06
 BYTE   As3
 BYTE   W06
 BYTE   Fs3
 BYTE   W06
// 006   ----------------------------------------
 BYTE   Cs3
 BYTE   W06
 BYTE   Ds3
 BYTE   W06
 BYTE   Bn2
 BYTE   W06
 BYTE   Ds3
 BYTE   W06
 BYTE   Fs3
 BYTE   W06
 BYTE   Bn3
 BYTE   W06
 BYTE   Fs3
 BYTE   W06
 BYTE   Bn3
 BYTE   W06
 BYTE   Ds4
 BYTE   W06
 BYTE   Fn3
 BYTE   W06
 BYTE   Cn3
 BYTE   W06
 BYTE   Fn3
 BYTE   W06
 BYTE   An3
 BYTE   W06
 BYTE   Cn4
 BYTE   W06
 BYTE   An3
 BYTE   W06
 BYTE   Cn4
 BYTE   W06
// 007   ----------------------------------------
 BYTE   Fn4
 BYTE   W06
 BYTE   N42  Ds4
 BYTE   W48
 BYTE   N05  Dn4
 BYTE   W06
 BYTE   As3
 BYTE   W06
 BYTE   Fn3
 BYTE   W06
 BYTE   Dn3
 BYTE   W06
 BYTE   Fn3
 BYTE   W06
 BYTE   Dn3
 BYTE   W06
 BYTE   As2
 BYTE   W06
// 008   ----------------------------------------
 BYTE   Fn2
 BYTE   W96
// 009   ----------------------------------------
 BYTE   W96
// 010   ----------------------------------------
 BYTE   W96
// 011   ----------------------------------------
 BYTE   W96
// 012   ----------------------------------------
 BYTE   W06
 BYTE   N16  Dn3
 BYTE   W18
 BYTE   Ds3
 BYTE   W18
 BYTE   N54  Fn3
 BYTE   W54
// 013   ----------------------------------------
 BYTE   W06
 BYTE   N16
 BYTE   W18
 BYTE   Fs3
 BYTE   W18
 BYTE   N54  Gs3
 BYTE   W54
// 014   ----------------------------------------
 BYTE   W06
 BYTE   N16
 BYTE   W18
 BYTE   As3
 BYTE   W18
 BYTE   N10  Bn3
 BYTE   W12
 BYTE   N16
 BYTE   W18
 BYTE   Cs4
 BYTE   W18
 BYTE   N10  Ds4
 BYTE   W06
// 015   ----------------------------------------
 BYTE   W96
// 016   ----------------------------------------
 BYTE   W06
 BYTE   N42  As2
 BYTE   W48
 BYTE   Bn2
 BYTE   W42
// 017   ----------------------------------------
 BYTE   W06
 BYTE   Cs3
 BYTE   W48
 BYTE   Gs2
 BYTE   W42
// 018   ----------------------------------------
 BYTE   W06
 BYTE   As2
 BYTE   W48
 BYTE   Gs2
 BYTE   W42
// 019   ----------------------------------------
 BYTE   W06
 BYTE   Fn2
 BYTE   W48
 BYTE   Gs2
 BYTE   W42
// 020   ----------------------------------------
 BYTE   W06
Label_4_016598AD:
 BYTE   N42  Ds3  v088
 BYTE   W48
 BYTE   Cn3
 BYTE   W42
// 021   ----------------------------------------
Label_4_016598B3:
 BYTE   W06
 BYTE   N42  Gs2  v088
 BYTE   W48
 BYTE   Fs2
 BYTE   W42
 BYTE   PEND 
// 022   ----------------------------------------
Label_4_016598BB:
 BYTE   W06
 BYTE   N42  Gs2  v088
 BYTE   W48
 BYTE   As2
 BYTE   W42
 BYTE   PEND 
// 023   ----------------------------------------
Label_4_016598C3:
 BYTE   W06
 BYTE   N21  As2  v088
 BYTE   W24
 BYTE   Bn2
 BYTE   W24
 BYTE   As2
 BYTE   W24
 BYTE   Gs2
 BYTE   W18
 BYTE   PEND 
// 024   ----------------------------------------
Label_4_016598CF:
 BYTE   W06
 BYTE   N42  Ds3  v088
 BYTE   W48
 BYTE   Cn3
 BYTE   W42
 BYTE   PEND 
// 025   ----------------------------------------
 BYTE   PATT
  POIN2 Label_4_016598B3
// 026   ----------------------------------------
 BYTE   PATT
  POIN2 Label_4_016598BB
// 027   ----------------------------------------
 BYTE   W06
 BYTE   N21  As2  v088
 BYTE   W24
 BYTE   Gs2
 BYTE   W24
 BYTE   N10  As2
 BYTE   W12
 BYTE   Bn2
 BYTE   W12
 BYTE   Cs3
 BYTE   W12
 BYTE   As2
 BYTE   W06
// 028   ----------------------------------------
 BYTE   W06
 BYTE   N84  Ds3
 BYTE   W90
// 029   ----------------------------------------
 BYTE   W06
 BYTE   N42  Fn3
 BYTE   W48
 BYTE   N16  Bn2
 BYTE   W18
 BYTE   Cs3
 BYTE   W18
 BYTE   N10  Ds3
 BYTE   W06
// 030   ----------------------------------------
 BYTE   W06
 BYTE   N42  Fn3
 BYTE   W48
 BYTE   Dn3
 BYTE   W42
// 031   ----------------------------------------
 BYTE   W06
 BYTE   Ds3
 BYTE   W48
 BYTE   Cs3
 BYTE   W42
// 032   ----------------------------------------
 BYTE   W06
 BYTE   N56  Bn2
 BYTE   W60
 BYTE   N21  As2
 BYTE   W24
 BYTE   N10  Gs2
 BYTE   W06
// 033   ----------------------------------------
 BYTE   W06
 BYTE   N84  As2
 BYTE   W90
// 034   ----------------------------------------
 BYTE   W06
 BYTE   N42  Ds3
 BYTE   W48
 BYTE   N16  Fs3
 BYTE   W18
 BYTE   Ds3
 BYTE   W18
 BYTE   N10  Cn3
 BYTE   W06
// 035   ----------------------------------------
 BYTE   W06
 BYTE   N84  Dn3
 BYTE   W90
// 036   ----------------------------------------
 BYTE   PATT
  POIN2 Label_4_016598CF
// 037   ----------------------------------------
 BYTE   PATT
  POIN2 Label_4_016598B3
// 038   ----------------------------------------
 BYTE   PATT
  POIN2 Label_4_016598BB
// 039   ----------------------------------------
 BYTE   PATT
  POIN2 Label_4_016598C3
// 040   ----------------------------------------
 BYTE   PATT
  POIN2 Label_4_016598CF
// 041   ----------------------------------------
 BYTE   PATT
  POIN2 Label_4_016598B3
// 042   ----------------------------------------
 BYTE   PATT
  POIN2 Label_4_016598BB
// 043   ----------------------------------------
 BYTE   W06
 BYTE   N21  As2  v088
 BYTE   W24
 BYTE   Gs2
 BYTE   W24
 BYTE   N42  As2
 BYTE   W42
// 044   ----------------------------------------
 BYTE   W06
 BYTE   Gs2
 BYTE   W48
 BYTE   Cs3
 BYTE   W42
// 045   ----------------------------------------
 BYTE   W06
 BYTE   As2
 BYTE   W48
 BYTE   Ds3
 BYTE   W42
// 046   ----------------------------------------
 BYTE   W06
 BYTE   N21
 BYTE   W24
 BYTE   Bn2
 BYTE   W24
 BYTE   N42  As2
 BYTE   W42
// 047   ----------------------------------------
 BYTE   W06
 BYTE   N42
 BYTE   W48
 BYTE   N10  Dn3
 BYTE   W12
 BYTE   Fn3
 BYTE   W12
 BYTE   Gs3
 BYTE   W12
 BYTE   As3
 BYTE   W06
// 048   ----------------------------------------
 BYTE   W06
 BYTE   N42  Gs3
 BYTE   W48
 BYTE   Fs3
 BYTE   W42
// 049   ----------------------------------------
 BYTE   W06
 BYTE   N16  Fn3
 BYTE   W18
 BYTE   Ds3
 BYTE   W18
 BYTE   N10  Fn3
 BYTE   W12
 BYTE   N32  Gs3
 BYTE   W42
// 050   ----------------------------------------
 BYTE   W06
 BYTE   N16  As2
 BYTE   W18
 BYTE   Cn3
 BYTE   W18
 BYTE   N10  Dn3
 BYTE   W12
 BYTE   N16
 BYTE   W18
 BYTE   Ds3
 BYTE   W18
 BYTE   N10  Fn3
 BYTE   W06
// 051   ----------------------------------------
 BYTE   W06
 BYTE   N16
 BYTE   W18
 BYTE   Fs3
 BYTE   W18
 BYTE   N10  Gs3
 BYTE   W54
// 052   ----------------------------------------
 BYTE   W06
 BYTE   N16  Fs3
 BYTE   W18
 BYTE   Gs3
 BYTE   W18
 BYTE   N10  As3
 BYTE   W12
 BYTE   N16  Bn3
 BYTE   W18
 BYTE   As3
 BYTE   W18
 BYTE   N10  Gs3
 BYTE   W06
// 053   ----------------------------------------
 BYTE   W06
 BYTE   N16  As3
 BYTE   W18
 BYTE   Gs3
 BYTE   W18
 BYTE   N10  Fs3
 BYTE   W12
 BYTE   N16  Gs3
 BYTE   W18
 BYTE   Fs3
 BYTE   W18
 BYTE   N10  Fn3
 BYTE   W06
// 054   ----------------------------------------
 BYTE   W06
 BYTE   N42  Fs3
 BYTE   W48
 BYTE   Ds3
 BYTE   W42
// 055   ----------------------------------------
 BYTE   W06
 BYTE   Dn3
 BYTE   W48
 BYTE   Fn3
 BYTE   W42
// 056   ----------------------------------------
 BYTE   W06
 BYTE   GoTo
  POIN2 Label_4_016598AD
 BYTE   FINE

//**************** Track 6 (Midi-Chn.5) ****************//

RomancingSaga3FourNobleDevilPart1BigMood_006:
// 000   ----------------------------------------
 BYTE   KEYSH   RomancingSaga3FourNobleDevilPart1BigMood_key+0
 BYTE   MODT 0
 BYTE   LFOS 44
 BYTE   BENDR  127
 BYTE   VOL   32*RomancingSaga3FourNobleDevilPart1BigMood_mvl/mxv
 BYTE   MOD 64
 BYTE   PAN   c_v-64
 BYTE   W06
 BYTE   VOICE   40
 BYTE   VOL   107*RomancingSaga3FourNobleDevilPart1BigMood_mvl/mxv
 BYTE   PAN   c_v+0
 BYTE   VOL   107*RomancingSaga3FourNobleDevilPart1BigMood_mvl/mxv
 BYTE   BENDR  0
 BYTE   MOD 0
 BYTE   N84  Ds0  v116
 BYTE   W90
// 001   ----------------------------------------
 BYTE   W06
 BYTE   Fn0
 BYTE   W90
// 002   ----------------------------------------
 BYTE   W06
 BYTE   N42  Fs0
 BYTE   W48
 BYTE   Gn0
 BYTE   W42
// 003   ----------------------------------------
 BYTE   W06
 BYTE   N56  Gs0
 BYTE   W60
 BYTE   N10  As0
 BYTE   W12
 BYTE   Bn0
 BYTE   W12
 BYTE   Gs0
 BYTE   W06
// 004   ----------------------------------------
 BYTE   W06
 BYTE   N42  Cs1
 BYTE   W48
 BYTE   Ds1
 BYTE   W42
// 005   ----------------------------------------
 BYTE   W06
 BYTE   Fn1
 BYTE   W48
 BYTE   N21  Fs1
 BYTE   W24
 BYTE   Fs0
 BYTE   W18
// 006   ----------------------------------------
 BYTE   W06
 BYTE   Bn0
 BYTE   W24
 BYTE   As0
 BYTE   W24
 BYTE   An0
 BYTE   W24
 BYTE   Fn0
 BYTE   W18
// 007   ----------------------------------------
 BYTE   W06
 BYTE   N16  As0
 BYTE   W18
 BYTE   Gs0
 BYTE   W18
 BYTE   N10  Bn0
 BYTE   W12
 BYTE   As0
 BYTE   W12
 BYTE   Gs0
 BYTE   W12
 BYTE   Fs0
 BYTE   W12
 BYTE   Fn0
 BYTE   W06
// 008   ----------------------------------------
 BYTE   W06
 BYTE   N21  Ds0
 BYTE   W24
 BYTE   N21
 BYTE   W24
 BYTE   N21
 BYTE   W24
 BYTE   N21
 BYTE   W18
// 009   ----------------------------------------
 BYTE   W06
 BYTE   Fn0
 BYTE   W24
 BYTE   N21
 BYTE   W24
 BYTE   N21
 BYTE   W24
 BYTE   N21
 BYTE   W18
// 010   ----------------------------------------
 BYTE   W06
 BYTE   Fs0
 BYTE   W24
 BYTE   N21
 BYTE   W24
 BYTE   Gn0
 BYTE   W24
 BYTE   N21
 BYTE   W18
// 011   ----------------------------------------
 BYTE   W06
 BYTE   Gs0
 BYTE   W24
 BYTE   N21
 BYTE   W24
 BYTE   N10
 BYTE   W12
 BYTE   N05  Gs1
 BYTE   W06
 BYTE   As1
 BYTE   W06
 BYTE   Gs1
 BYTE   W06
 BYTE   Fn1
 BYTE   W06
 BYTE   Ds1
 BYTE   W06
// 012   ----------------------------------------
 BYTE   Fs1
 BYTE   W06
 BYTE   N16  As0
 BYTE   W18
 BYTE   Fn0
 BYTE   W18
 BYTE   N21  As0
 BYTE   W24
 BYTE   N10  Bn0
 BYTE   W12
 BYTE   N10
 BYTE   W12
 BYTE   Gs0
 BYTE   W06
// 013   ----------------------------------------
 BYTE   W06
 BYTE   N16  As0
 BYTE   W18
 BYTE   Fn0
 BYTE   W18
 BYTE   N21  As0
 BYTE   W24
 BYTE   N10  Gs0
 BYTE   W12
 BYTE   As0
 BYTE   W12
 BYTE   Bn0
 BYTE   W06
// 014   ----------------------------------------
 BYTE   W06
 BYTE   N16  As0
 BYTE   W18
 BYTE   Cn1
 BYTE   W18
 BYTE   N10  Dn1
 BYTE   W12
 BYTE   N16
 BYTE   W18
 BYTE   Ds1
 BYTE   W18
 BYTE   N10  Fn1
 BYTE   W06
// 015   ----------------------------------------
 BYTE   W96
// 016   ----------------------------------------
 BYTE   W06
 BYTE   Ds0
 BYTE   W12
 BYTE   N10
 BYTE   W12
 BYTE   N10
 BYTE   W12
 BYTE   N10
 BYTE   W12
 BYTE   En0
 BYTE   W12
 BYTE   N10
 BYTE   W12
 BYTE   N10
 BYTE   W12
 BYTE   N10
 BYTE   W06
// 017   ----------------------------------------
 BYTE   W06
 BYTE   Fs0
 BYTE   W12
 BYTE   N10
 BYTE   W12
 BYTE   N10
 BYTE   W12
 BYTE   N10
 BYTE   W12
 BYTE   As0
 BYTE   W12
 BYTE   N10
 BYTE   W12
 BYTE   N10
 BYTE   W12
 BYTE   N10
 BYTE   W06
// 018   ----------------------------------------
 BYTE   W06
 BYTE   Ds1
 BYTE   W12
 BYTE   N10
 BYTE   W12
 BYTE   N10
 BYTE   W12
 BYTE   N10
 BYTE   W12
 BYTE   Gs0
 BYTE   W12
 BYTE   N10
 BYTE   W12
 BYTE   N10
 BYTE   W12
 BYTE   N10
 BYTE   W06
// 019   ----------------------------------------
 BYTE   W06
 BYTE   As0
 BYTE   W12
 BYTE   N10
 BYTE   W12
 BYTE   N10
 BYTE   W12
 BYTE   N10
 BYTE   W12
 BYTE   N10
 BYTE   W12
 BYTE   Gs0
 BYTE   W12
 BYTE   Fs0
 BYTE   W12
 BYTE   Fn0
 BYTE   W06
// 020   ----------------------------------------
 BYTE   W06
Label_5_01659AD4:
 BYTE   BENDR  0
 BYTE   N10  Ds1  v116
 BYTE   W12
 BYTE   N10
 BYTE   W12
 BYTE   N10
 BYTE   W12
 BYTE   N10
 BYTE   W12
 BYTE   Fn1
 BYTE   W12
 BYTE   N10
 BYTE   W12
 BYTE   N10
 BYTE   W12
 BYTE   N10
 BYTE   W06
// 021   ----------------------------------------
Label_5_01659AE8:
 BYTE   W06
 BYTE   N10  Bn0  v116
 BYTE   W12
 BYTE   N10
 BYTE   W12
 BYTE   N10
 BYTE   W12
 BYTE   N10
 BYTE   W12
 BYTE   As0
 BYTE   W12
 BYTE   N10
 BYTE   W12
 BYTE   N10
 BYTE   W12
 BYTE   N10
 BYTE   W06
 BYTE   PEND 
// 022   ----------------------------------------
Label_5_01659AFC:
 BYTE   W06
 BYTE   N10  Gs0  v116
 BYTE   W12
 BYTE   N10
 BYTE   W12
 BYTE   N10
 BYTE   W12
 BYTE   N10
 BYTE   W12
 BYTE   As0
 BYTE   W12
 BYTE   N10
 BYTE   W12
 BYTE   N10
 BYTE   W12
 BYTE   N10
 BYTE   W06
 BYTE   PEND 
// 023   ----------------------------------------
Label_5_01659B10:
 BYTE   W06
 BYTE   N10  Ds1  v116
 BYTE   W12
 BYTE   N10
 BYTE   W12
 BYTE   Gs0
 BYTE   W12
 BYTE   N10
 BYTE   W12
 BYTE   As0
 BYTE   W12
 BYTE   N10
 BYTE   W12
 BYTE   Dn1
 BYTE   W12
 BYTE   N10
 BYTE   W06
 BYTE   PEND 
// 024   ----------------------------------------
Label_5_01659B24:
 BYTE   W06
 BYTE   N10  Ds1  v116
 BYTE   W12
 BYTE   N10
 BYTE   W12
 BYTE   N10
 BYTE   W12
 BYTE   N10
 BYTE   W12
 BYTE   Fn1
 BYTE   W12
 BYTE   N10
 BYTE   W12
 BYTE   N10
 BYTE   W12
 BYTE   N10
 BYTE   W06
 BYTE   PEND 
// 025   ----------------------------------------
 BYTE   PATT
  POIN2 Label_5_01659AE8
// 026   ----------------------------------------
 BYTE   PATT
  POIN2 Label_5_01659AFC
// 027   ----------------------------------------
 BYTE   W06
 BYTE   N10  Ds1  v116
 BYTE   W12
 BYTE   N10
 BYTE   W12
 BYTE   Dn1
 BYTE   W12
 BYTE   N10
 BYTE   W12
 BYTE   Ds1
 BYTE   W12
 BYTE   As0
 BYTE   W12
 BYTE   Bn0
 BYTE   W12
 BYTE   Cs1
 BYTE   W06
// 028   ----------------------------------------
 BYTE   W06
 BYTE   Bn0
 BYTE   W12
 BYTE   N10
 BYTE   W12
 BYTE   N10
 BYTE   W12
 BYTE   N10
 BYTE   W12
 BYTE   N10
 BYTE   W12
 BYTE   N10
 BYTE   W12
 BYTE   N10
 BYTE   W12
 BYTE   N10
 BYTE   W06
// 029   ----------------------------------------
 BYTE   W06
 BYTE   Cs1
 BYTE   W12
 BYTE   N10
 BYTE   W12
 BYTE   N10
 BYTE   W12
 BYTE   N10
 BYTE   W12
 BYTE   N10
 BYTE   W12
 BYTE   N10
 BYTE   W12
 BYTE   Bn0
 BYTE   W12
 BYTE   N10
 BYTE   W06
// 030   ----------------------------------------
 BYTE   W06
 BYTE   As0
 BYTE   W12
 BYTE   N10
 BYTE   W12
 BYTE   N10
 BYTE   W12
 BYTE   N10
 BYTE   W12
 BYTE   Cn1
 BYTE   W12
 BYTE   N10
 BYTE   W12
 BYTE   Dn1
 BYTE   W12
 BYTE   N10
 BYTE   W06
// 031   ----------------------------------------
 BYTE   W06
 BYTE   Ds1
 BYTE   W12
 BYTE   N10
 BYTE   W12
 BYTE   N10
 BYTE   W12
 BYTE   N10
 BYTE   W12
 BYTE   N10
 BYTE   W12
 BYTE   Cs1
 BYTE   W12
 BYTE   Bn0
 BYTE   W12
 BYTE   As0
 BYTE   W06
// 032   ----------------------------------------
 BYTE   W06
 BYTE   Gs0
 BYTE   W12
 BYTE   N10
 BYTE   W12
 BYTE   N10
 BYTE   W12
 BYTE   N10
 BYTE   W12
 BYTE   N10
 BYTE   W12
 BYTE   N10
 BYTE   W12
 BYTE   N10
 BYTE   W12
 BYTE   N10
 BYTE   W06
// 033   ----------------------------------------
 BYTE   W06
 BYTE   As0
 BYTE   W12
 BYTE   N10
 BYTE   W12
 BYTE   N10
 BYTE   W12
 BYTE   N10
 BYTE   W12
 BYTE   N16
 BYTE   W18
 BYTE   Cn1
 BYTE   W18
 BYTE   N10  Dn1
 BYTE   W06
// 034   ----------------------------------------
 BYTE   W06
 BYTE   N42  Cn1
 BYTE   W48
 BYTE   N16  Ds1
 BYTE   W18
 BYTE   Cn1
 BYTE   W18
 BYTE   N10  An0
 BYTE   W06
// 035   ----------------------------------------
 BYTE   W06
 BYTE   N64  As0
 BYTE   W72
 BYTE   BENDR  12
 BYTE   N21  As1
 BYTE   W13
 BYTE   BEND   c_v-2
 BYTE   W02
 BYTE   Cn3
 BYTE   W02
 BYTE   As2
 BYTE   W01
// 036   ----------------------------------------
 BYTE   W01
 BYTE   Gs2
 BYTE   W01
 BYTE   Fs2
 BYTE   W01
 BYTE   MOD 0
 BYTE   BEND   c_v+0
 BYTE   W03
 BYTE   N10  Ds1
 BYTE   W12
 BYTE   N10
 BYTE   W12
 BYTE   N10
 BYTE   W12
 BYTE   N10
 BYTE   W12
 BYTE   Fn1
 BYTE   W12
 BYTE   N10
 BYTE   W12
 BYTE   N10
 BYTE   W12
 BYTE   N10
 BYTE   W06
// 037   ----------------------------------------
 BYTE   PATT
  POIN2 Label_5_01659AE8
// 038   ----------------------------------------
 BYTE   PATT
  POIN2 Label_5_01659AFC
// 039   ----------------------------------------
 BYTE   PATT
  POIN2 Label_5_01659B10
// 040   ----------------------------------------
 BYTE   PATT
  POIN2 Label_5_01659B24
// 041   ----------------------------------------
 BYTE   PATT
  POIN2 Label_5_01659AE8
// 042   ----------------------------------------
 BYTE   PATT
  POIN2 Label_5_01659AFC
// 043   ----------------------------------------
 BYTE   W06
 BYTE   N10  Ds1  v116
 BYTE   W12
 BYTE   N10
 BYTE   W12
 BYTE   Dn1
 BYTE   W12
 BYTE   N10
 BYTE   W12
 BYTE   Ds1
 BYTE   W12
 BYTE   Cs1
 BYTE   W12
 BYTE   Bn0
 BYTE   W12
 BYTE   As0
 BYTE   W06
// 044   ----------------------------------------
 BYTE   W06
 BYTE   Gs0
 BYTE   W12
 BYTE   N10
 BYTE   W12
 BYTE   N10
 BYTE   W12
 BYTE   N10
 BYTE   W12
 BYTE   Cs1
 BYTE   W12
 BYTE   N10
 BYTE   W12
 BYTE   Bn0
 BYTE   W12
 BYTE   N10
 BYTE   W06
// 045   ----------------------------------------
 BYTE   W06
 BYTE   As0
 BYTE   W12
 BYTE   N10
 BYTE   W12
 BYTE   N10
 BYTE   W12
 BYTE   N10
 BYTE   W12
 BYTE   Ds1
 BYTE   W12
 BYTE   N10
 BYTE   W12
 BYTE   Cs1
 BYTE   W12
 BYTE   N10
 BYTE   W06
// 046   ----------------------------------------
 BYTE   W06
 BYTE   Fn0
 BYTE   W12
 BYTE   N10
 BYTE   W12
 BYTE   N10
 BYTE   W12
 BYTE   N10
 BYTE   W12
 BYTE   As0
 BYTE   W12
 BYTE   N10
 BYTE   W12
 BYTE   Cn1
 BYTE   W12
 BYTE   Dn1
 BYTE   W06
// 047   ----------------------------------------
 BYTE   W06
 BYTE   Ds1
 BYTE   W12
 BYTE   N10
 BYTE   W12
 BYTE   N10
 BYTE   W12
 BYTE   N10
 BYTE   W12
 BYTE   Cs1
 BYTE   W12
 BYTE   As0
 BYTE   W12
 BYTE   Bn0
 BYTE   W12
 BYTE   Cs1
 BYTE   W06
// 048   ----------------------------------------
 BYTE   W06
 BYTE   Gs0
 BYTE   W12
 BYTE   N10
 BYTE   W12
 BYTE   N10
 BYTE   W12
 BYTE   N10
 BYTE   W12
 BYTE   Fs0
 BYTE   W12
 BYTE   N10
 BYTE   W12
 BYTE   N10
 BYTE   W12
 BYTE   N10
 BYTE   W06
// 049   ----------------------------------------
 BYTE   W06
 BYTE   N16  Fn0
 BYTE   W18
 BYTE   N16
 BYTE   W18
 BYTE   N10
 BYTE   W12
 BYTE   N21  As0
 BYTE   W24
 BYTE   BENDR  12
 BYTE   N21  As1
 BYTE   W13
 BYTE   BEND   c_v-2
 BYTE   W02
 BYTE   Cn3
 BYTE   W02
 BYTE   As2
 BYTE   W01
// 050   ----------------------------------------
 BYTE   W01
 BYTE   Gs2
 BYTE   W01
 BYTE   Fs2
 BYTE   W01
 BYTE   MOD 0
 BYTE   BEND   c_v+0
 BYTE   W03
 BYTE   N16  As0
 BYTE   W18
 BYTE   Fn0
 BYTE   W18
 BYTE   N10  As0
 BYTE   W12
 BYTE   N16
 BYTE   W18
 BYTE   Cn1
 BYTE   W18
 BYTE   N10  Dn1
 BYTE   W06
// 051   ----------------------------------------
 BYTE   W06
 BYTE   N16
 BYTE   W18
 BYTE   Ds1
 BYTE   W18
 BYTE   N10  Fn1
 BYTE   W54
// 052   ----------------------------------------
 BYTE   W06
 BYTE   N42  Ds0
 BYTE   W48
 BYTE   Gs0
 BYTE   W42
// 053   ----------------------------------------
 BYTE   W06
 BYTE   As0
 BYTE   W48
 BYTE   N16  Gs0
 BYTE   W18
 BYTE   Fs0
 BYTE   W18
 BYTE   N10  En0
 BYTE   W06
// 054   ----------------------------------------
 BYTE   W06
 BYTE   Ds0
 BYTE   W12
 BYTE   Fn0
 BYTE   W12
 BYTE   Fs0
 BYTE   W12
 BYTE   Ds0
 BYTE   W12
 BYTE   Gs0
 BYTE   W12
 BYTE   As0
 BYTE   W12
 BYTE   Bn0
 BYTE   W12
 BYTE   Gs0
 BYTE   W06
// 055   ----------------------------------------
 BYTE   W06
 BYTE   As0
 BYTE   W12
 BYTE   N10
 BYTE   W12
 BYTE   N10
 BYTE   W12
 BYTE   N10
 BYTE   W12
 BYTE   N10
 BYTE   W12
 BYTE   N05  Gs1
 BYTE   W06
 BYTE   As1
 BYTE   W06
 BYTE   Gs1
 BYTE   W06
 BYTE   Fn1
 BYTE   W06
 BYTE   Dn1
 BYTE   W06
// 056   ----------------------------------------
 BYTE   As0
 BYTE   W05
 BYTE   BEND   c_v+0
 BYTE   W01
 BYTE   GoTo
  POIN2 Label_5_01659AD4
 BYTE   FINE

//**************** Track 7 (Midi-Chn.6) ****************//

RomancingSaga3FourNobleDevilPart1BigMood_007:
// 000   ----------------------------------------
 BYTE   KEYSH   RomancingSaga3FourNobleDevilPart1BigMood_key+0
 BYTE   MODT 0
 BYTE   LFOS 44
 BYTE   BENDR  127
 BYTE   VOL   0*RomancingSaga3FourNobleDevilPart1BigMood_mvl/mxv
 BYTE   MOD 64
 BYTE   PAN   c_v-64
 BYTE   W06
 BYTE   VOICE   81
 BYTE   VOL   75*RomancingSaga3FourNobleDevilPart1BigMood_mvl/mxv
 BYTE   PAN   c_v-30
 BYTE   VOL   75*RomancingSaga3FourNobleDevilPart1BigMood_mvl/mxv
 BYTE   BENDR  0
 BYTE   MOD 25
 BYTE   W90
// 001   ----------------------------------------
 BYTE   W96
// 002   ----------------------------------------
 BYTE   W96
// 003   ----------------------------------------
 BYTE   W96
// 004   ----------------------------------------
 BYTE   W96
// 005   ----------------------------------------
 BYTE   W96
// 006   ----------------------------------------
 BYTE   W96
// 007   ----------------------------------------
 BYTE   W96
// 008   ----------------------------------------
 BYTE   W96
// 009   ----------------------------------------
 BYTE   W96
// 010   ----------------------------------------
 BYTE   W96
// 011   ----------------------------------------
 BYTE   W96
// 012   ----------------------------------------
 BYTE   W96
// 013   ----------------------------------------
 BYTE   W96
// 014   ----------------------------------------
 BYTE   W96
// 015   ----------------------------------------
 BYTE   W22
 BYTE   PAN   c_v-30
 BYTE   W32
 BYTE   As0
 BYTE   N42  As3  v116
 BYTE   W01
 BYTE   PAN   c_v-29
 BYTE   W02
 BYTE   Cs1
 BYTE   W01
 BYTE   Ds1
 BYTE   W02
 BYTE   Fn1
 BYTE   W01
 BYTE   Gn1
 BYTE   W02
 BYTE   An1
 BYTE   W01
 BYTE   Bn1
 BYTE   W02
 BYTE   Cs2
 BYTE   W01
 BYTE   Ds2
 BYTE   W02
 BYTE   En2
 BYTE   W01
 BYTE   Fs2
 BYTE   W02
 BYTE   Gs2
 BYTE   W01
 BYTE   As2
 BYTE   W02
 BYTE   Cn3
 BYTE   W01
 BYTE   Dn3
 BYTE   W02
 BYTE   En3
 BYTE   W01
 BYTE   Fs3
 BYTE   W02
 BYTE   Gs3
 BYTE   W01
 BYTE   As3
 BYTE   W02
 BYTE   Bn3
 BYTE   W01
 BYTE   Cs4
 BYTE   W02
 BYTE   Ds4
 BYTE   W01
 BYTE   Fn4
 BYTE   W02
 BYTE   Gn4
 BYTE   W01
 BYTE   An4
 BYTE   W02
 BYTE   Bn4
 BYTE   W01
 BYTE   Cs5
 BYTE   W02
// 016   ----------------------------------------
 BYTE   Ds5
 BYTE   W01
 BYTE   En5
 BYTE   W02
 BYTE   Fs5
 BYTE   W01
 BYTE   Gs5
 BYTE   W01
 BYTE   As5
 BYTE   W01
 BYTE   As5
 BYTE   TIE  Ds4
 BYTE   W03
 BYTE   PAN   c_v+29
 BYTE   W01
 BYTE   Gs5
 BYTE   W02
 BYTE   Gn5
 BYTE   W01
 BYTE   Fs5
 BYTE   W02
 BYTE   Fn5
 BYTE   W01
 BYTE   En5
 BYTE   W02
 BYTE   Ds5
 BYTE   W01
 BYTE   Dn5
 BYTE   W02
 BYTE   Cs5
 BYTE   W01
 BYTE   Cn5
 BYTE   W02
 BYTE   Bn4
 BYTE   W01
 BYTE   As4
 BYTE   W02
 BYTE   An4
 BYTE   W01
 BYTE   Gs4
 BYTE   W02
 BYTE   Gn4
 BYTE   W01
 BYTE   Fs4
 BYTE   W03
 BYTE   Fn4
 BYTE   W02
 BYTE   En4
 BYTE   W01
 BYTE   Ds4
 BYTE   W02
 BYTE   Dn4
 BYTE   W01
 BYTE   Cs4
 BYTE   W02
 BYTE   Cn4
 BYTE   W01
 BYTE   Bn3
 BYTE   W02
 BYTE   As3
 BYTE   W01
 BYTE   An3
 BYTE   W02
 BYTE   Gs3
 BYTE   W01
 BYTE   Gn3
 BYTE   W02
 BYTE   Fs3
 BYTE   W01
 BYTE   Fn3
 BYTE   W02
 BYTE   En3
 BYTE   W01
 BYTE   Ds3
 BYTE   W02
 BYTE   Dn3
 BYTE   W03
 BYTE   Cs3
 BYTE   W01
 BYTE   Cn3
 BYTE   W02
 BYTE   Bn2
 BYTE   W01
 BYTE   As2
 BYTE   W02
 BYTE   An2
 BYTE   W01
 BYTE   Gs2
 BYTE   W02
 BYTE   Gn2
 BYTE   W01
 BYTE   Fs2
 BYTE   W02
 BYTE   Fn2
 BYTE   W01
 BYTE   En2
 BYTE   W02
 BYTE   Ds2
 BYTE   W01
 BYTE   Dn2
 BYTE   W02
 BYTE   Cs2
 BYTE   W01
 BYTE   Cn2
 BYTE   W02
 BYTE   Bn1
 BYTE   W01
 BYTE   As1
 BYTE   W02
 BYTE   An1
 BYTE   W03
 BYTE   Gs1
 BYTE   W01
 BYTE   Gn1
 BYTE   W02
 BYTE   Fs1
 BYTE   W01
 BYTE   Fn1
 BYTE   W02
 BYTE   En1
 BYTE   W01
 BYTE   Ds1
 BYTE   W02
// 017   ----------------------------------------
 BYTE   Dn1
 BYTE   W01
 BYTE   Cs1
 BYTE   W02
 BYTE   Cn1
 BYTE   W01
 BYTE   Bn0
 BYTE   W01
 BYTE   As0
 BYTE   W01
 BYTE   As0
 BYTE   W03
 BYTE   Bn0
 BYTE   W01
 BYTE   Cn1
 BYTE   W02
 BYTE   Cs1
 BYTE   W01
 BYTE   Dn1
 BYTE   W02
 BYTE   Ds1
 BYTE   W01
 BYTE   En1
 BYTE   W02
 BYTE   Fn1
 BYTE   W01
 BYTE   Fs1
 BYTE   W02
 BYTE   Gn1
 BYTE   W01
 BYTE   Gs1
 BYTE   W02
 BYTE   An1
 BYTE   W01
 BYTE   As1
 BYTE   W02
 BYTE   Bn1
 BYTE   W01
 BYTE   Cn2
 BYTE   W02
 BYTE   Cs2
 BYTE   W01
 BYTE   Dn2
 BYTE   W03
 BYTE   Ds2
 BYTE   W02
 BYTE   En2
 BYTE   W01
 BYTE   Fn2
 BYTE   W02
 BYTE   Fs2
 BYTE   W01
 BYTE   Gn2
 BYTE   W02
 BYTE   Gs2
 BYTE   W01
 BYTE   An2
 BYTE   W02
 BYTE   As2
 BYTE   W01
 BYTE   Bn2
 BYTE   W02
 BYTE   Cn3
 BYTE   W01
 BYTE   Cs3
 BYTE   W02
 BYTE   Dn3
 BYTE   W01
 BYTE   Ds3
 BYTE   W02
 BYTE   En3
 BYTE   W01
 BYTE   Fn3
 BYTE   W02
 BYTE   Fs3
 BYTE   W03
 BYTE   Gn3
 BYTE   W01
 BYTE   Gs3
 BYTE   W02
 BYTE   An3
 BYTE   W01
 BYTE   As3
 BYTE   W02
 BYTE   Bn3
 BYTE   W01
 BYTE   Cn4
 BYTE   W02
 BYTE   Cs4
 BYTE   W01
 BYTE   Dn4
 BYTE   W02
 BYTE   Ds4
 BYTE   W01
 BYTE   En4
 BYTE   W02
 BYTE   Fn4
 BYTE   W01
 BYTE   Fs4
 BYTE   W02
 BYTE   Gn4
 BYTE   W01
 BYTE   Gs4
 BYTE   W02
 BYTE   An4
 BYTE   W01
 BYTE   As4
 BYTE   W02
 BYTE   Bn4
 BYTE   W03
 BYTE   Cn5
 BYTE   W01
 BYTE   Cs5
 BYTE   W02
 BYTE   EOT
 BYTE   PAN   c_v+22
 BYTE   W01
 BYTE   Ds5
 BYTE   W02
 BYTE   En5
 BYTE   W01
 BYTE   Fn5
 BYTE   W02
// 018   ----------------------------------------
 BYTE   Fs5
 BYTE   W01
 BYTE   Gn5
 BYTE   W02
 BYTE   Gs5
 BYTE   W01
 BYTE   An5
 BYTE   W01
 BYTE   As5
 BYTE   W90
 BYTE   W01
// 019   ----------------------------------------
 BYTE   W96
// 020   ----------------------------------------
 BYTE   W06
Label_6_0165C470:
 BYTE   PAN   c_v+30
 BYTE   W90
// 021   ----------------------------------------
 BYTE   W96
// 022   ----------------------------------------
 BYTE   W96
// 023   ----------------------------------------
 BYTE   W96
// 024   ----------------------------------------
 BYTE   W96
// 025   ----------------------------------------
 BYTE   W96
// 026   ----------------------------------------
 BYTE   W96
// 027   ----------------------------------------
 BYTE   W96
// 028   ----------------------------------------
 BYTE   W96
// 029   ----------------------------------------
 BYTE   W96
// 030   ----------------------------------------
 BYTE   W96
// 031   ----------------------------------------
 BYTE   W96
// 032   ----------------------------------------
 BYTE   W96
// 033   ----------------------------------------
 BYTE   W96
// 034   ----------------------------------------
 BYTE   W96
// 035   ----------------------------------------
 BYTE   W96
// 036   ----------------------------------------
 BYTE   W96
// 037   ----------------------------------------
 BYTE   W96
// 038   ----------------------------------------
 BYTE   W96
// 039   ----------------------------------------
 BYTE   W06
 BYTE   As0
 BYTE   W01
 BYTE   Bn0
 BYTE   W02
 BYTE   Cs1
 BYTE   W01
 BYTE   Ds1
 BYTE   W02
 BYTE   Fn1
 BYTE   N24  Ds3  v064
 BYTE   W01
 BYTE   PAN   c_v-21
 BYTE   W02
 BYTE   An1
 BYTE   W01
 BYTE   Bn1
 BYTE   W02
 BYTE   Cs2
 BYTE   W01
 BYTE   Ds2
 BYTE   W02
 BYTE   En2
 BYTE   W01
 BYTE   Fs2
 BYTE   W02
 BYTE   Gs2
 BYTE   N16  Fn3  v116
 BYTE   W01
 BYTE   PAN   c_v-6
 BYTE   W02
 BYTE   Cn3
 BYTE   W01
 BYTE   Dn3
 BYTE   W02
 BYTE   En3
 BYTE   W01
 BYTE   Fs3
 BYTE   W02
 BYTE   Gs3
 BYTE   W01
 BYTE   As3
 BYTE   W02
 BYTE   Bn3
 BYTE   W01
 BYTE   Cs4
 BYTE   W02
 BYTE   Ds4
 BYTE   W01
 BYTE   Fn4
 BYTE   W02
 BYTE   Gn4
 BYTE   N10  Fs3
 BYTE   W01
 BYTE   PAN   c_v+17
 BYTE   W02
 BYTE   Bn4
 BYTE   W01
 BYTE   Cs5
 BYTE   W02
 BYTE   Ds5
 BYTE   W01
 BYTE   En5
 BYTE   W02
 BYTE   Fs5
 BYTE   W01
 BYTE   Gs5
 BYTE   W01
 BYTE   As5
 BYTE   W01
 BYTE   As5
 BYTE   N16  Gs3
 BYTE   W01
 BYTE   PAN   c_v+29
 BYTE   W02
 BYTE   Gn5
 BYTE   W01
 BYTE   Fn5
 BYTE   W02
 BYTE   Ds5
 BYTE   W01
 BYTE   Cs5
 BYTE   W02
 BYTE   Bn4
 BYTE   W01
 BYTE   An4
 BYTE   W02
 BYTE   Gn4
 BYTE   W01
 BYTE   Fn4
 BYTE   W02
 BYTE   En4
 BYTE   W01
 BYTE   Dn4
 BYTE   W02
 BYTE   Cn4
 BYTE   N16  Fs3
 BYTE   W01
 BYTE   PAN   c_v+6
 BYTE   W02
 BYTE   Gs3
 BYTE   W01
 BYTE   Fs3
 BYTE   W02
 BYTE   En3
 BYTE   W01
 BYTE   Dn3
 BYTE   W02
 BYTE   Cn3
 BYTE   W01
 BYTE   As2
 BYTE   W02
 BYTE   An2
 BYTE   W01
 BYTE   Gn2
 BYTE   W02
 BYTE   Fn2
 BYTE   W01
 BYTE   Ds2
 BYTE   W02
 BYTE   Cs2
 BYTE   N10  Dn3
 BYTE   W01
 BYTE   PAN   c_v-17
 BYTE   W02
 BYTE   An1
 BYTE   W01
 BYTE   Gn1
 BYTE   W02
// 040   ----------------------------------------
 BYTE   Fn1
 BYTE   W01
 BYTE   En1
 BYTE   W02
 BYTE   Dn1
 BYTE   W01
 BYTE   Cn1
 BYTE   W01
 BYTE   As0
 BYTE   W01
 BYTE   As0
 BYTE   N90  Ds3
 BYTE   W01
 BYTE   PAN   c_v-29
 BYTE   W02
 BYTE   Cs1
 BYTE   W01
 BYTE   Ds1
 BYTE   W02
 BYTE   Fn1
 BYTE   W01
 BYTE   Gn1
 BYTE   W02
 BYTE   An1
 BYTE   W01
 BYTE   Bn1
 BYTE   W02
 BYTE   Cs2
 BYTE   W01
 BYTE   Ds2
 BYTE   W02
 BYTE   En2
 BYTE   W01
 BYTE   Fs2
 BYTE   W02
 BYTE   Gs2
 BYTE   W01
 BYTE   As2
 BYTE   W02
 BYTE   Cn3
 BYTE   W01
 BYTE   Dn3
 BYTE   W02
 BYTE   En3
 BYTE   W01
 BYTE   Fs3
 BYTE   W02
 BYTE   Gs3
 BYTE   W01
 BYTE   As3
 BYTE   W02
 BYTE   Bn3
 BYTE   W01
 BYTE   Cs4
 BYTE   W02
 BYTE   Ds4
 BYTE   W01
 BYTE   Fn4
 BYTE   W02
 BYTE   Gn4
 BYTE   W01
 BYTE   An4
 BYTE   W02
 BYTE   Bn4
 BYTE   W01
 BYTE   Cs5
 BYTE   W02
 BYTE   Ds5
 BYTE   W01
 BYTE   En5
 BYTE   W02
 BYTE   Fs5
 BYTE   W01
 BYTE   Gs5
 BYTE   W01
 BYTE   As5
 BYTE   W01
 BYTE   As5
 BYTE   W01
 BYTE   An5
 BYTE   W02
 BYTE   Gn5
 BYTE   W01
 BYTE   Fn5
 BYTE   W02
 BYTE   Ds5
 BYTE   W01
 BYTE   Cs5
 BYTE   W02
 BYTE   Bn4
 BYTE   W01
 BYTE   An4
 BYTE   W02
 BYTE   Gn4
 BYTE   W01
 BYTE   Fn4
 BYTE   W02
 BYTE   En4
 BYTE   W01
 BYTE   Dn4
 BYTE   W02
 BYTE   Cn4
 BYTE   W01
 BYTE   As3
 BYTE   W02
 BYTE   Gs3
 BYTE   W01
 BYTE   Fs3
 BYTE   W02
 BYTE   En3
 BYTE   W01
 BYTE   Dn3
 BYTE   W02
 BYTE   Cn3
 BYTE   W01
 BYTE   As2
 BYTE   W02
 BYTE   An2
 BYTE   W01
 BYTE   Gn2
 BYTE   W02
 BYTE   Fn2
 BYTE   W01
 BYTE   Ds2
 BYTE   W02
 BYTE   Cs2
 BYTE   W01
 BYTE   Bn1
 BYTE   W02
 BYTE   An1
 BYTE   W01
 BYTE   Gn1
 BYTE   W02
// 041   ----------------------------------------
 BYTE   Fn1
 BYTE   W01
 BYTE   En1
 BYTE   W02
 BYTE   Dn1
 BYTE   W01
 BYTE   Cn1
 BYTE   W01
 BYTE   As0
 BYTE   W01
 BYTE   As0
 BYTE   W01
 BYTE   Bn0
 BYTE   W02
 BYTE   Cs1
 BYTE   W01
 BYTE   Ds1
 BYTE   W02
 BYTE   Fn1
 BYTE   W01
 BYTE   Gn1
 BYTE   W02
 BYTE   An1
 BYTE   W01
 BYTE   Bn1
 BYTE   W02
 BYTE   Cs2
 BYTE   W01
 BYTE   Ds2
 BYTE   W02
 BYTE   En2
 BYTE   W01
 BYTE   Fs2
 BYTE   W02
 BYTE   Gs2
 BYTE   W01
 BYTE   As2
 BYTE   W02
 BYTE   Cn3
 BYTE   W01
 BYTE   Dn3
 BYTE   W02
 BYTE   En3
 BYTE   W01
 BYTE   Fs3
 BYTE   W02
 BYTE   Gs3
 BYTE   W01
 BYTE   As3
 BYTE   W02
 BYTE   Bn3
 BYTE   W01
 BYTE   Cs4
 BYTE   W02
 BYTE   Ds4
 BYTE   W01
 BYTE   Fn4
 BYTE   W02
 BYTE   Gn4
 BYTE   W01
 BYTE   An4
 BYTE   W02
 BYTE   Bn4
 BYTE   W01
 BYTE   Cs5
 BYTE   W02
 BYTE   Ds5
 BYTE   W01
 BYTE   En5
 BYTE   W02
 BYTE   Fs5
 BYTE   W01
 BYTE   Gs5
 BYTE   W01
 BYTE   As5
 BYTE   W01
 BYTE   As5
 BYTE   W01
 BYTE   An5
 BYTE   W02
 BYTE   Gn5
 BYTE   W01
 BYTE   Fn5
 BYTE   W02
 BYTE   Ds5
 BYTE   W01
 BYTE   Cs5
 BYTE   W02
 BYTE   Bn4
 BYTE   W01
 BYTE   An4
 BYTE   W02
 BYTE   Gn4
 BYTE   W01
 BYTE   Fn4
 BYTE   W02
 BYTE   En4
 BYTE   W01
 BYTE   Dn4
 BYTE   W02
 BYTE   Cn4
 BYTE   W01
 BYTE   As3
 BYTE   W02
 BYTE   Gs3
 BYTE   W01
 BYTE   Fs3
 BYTE   W02
 BYTE   En3
 BYTE   W01
 BYTE   Dn3
 BYTE   W02
 BYTE   Cn3
 BYTE   W01
 BYTE   As2
 BYTE   W02
 BYTE   An2
 BYTE   W01
 BYTE   Gn2
 BYTE   W02
 BYTE   Fn2
 BYTE   W01
 BYTE   Ds2
 BYTE   W02
 BYTE   Cs2
 BYTE   W01
 BYTE   Bn1
 BYTE   W02
 BYTE   An1
 BYTE   W01
 BYTE   Gn1
 BYTE   W02
// 042   ----------------------------------------
 BYTE   Fn1
 BYTE   W01
 BYTE   En1
 BYTE   W02
 BYTE   Dn1
 BYTE   W01
 BYTE   Cn1
 BYTE   W01
 BYTE   As0
 BYTE   W48
 BYTE   W01
 BYTE   As0
 BYTE   W01
 BYTE   Bn0
 BYTE   W02
 BYTE   Cs1
 BYTE   W01
 BYTE   Ds1
 BYTE   W02
 BYTE   Fn1
 BYTE   W01
 BYTE   Gn1
 BYTE   W02
 BYTE   An1
 BYTE   W01
 BYTE   Bn1
 BYTE   W02
 BYTE   Cs2
 BYTE   N10  As3
 BYTE   W01
 BYTE   PAN   c_v-13
 BYTE   W02
 BYTE   En2
 BYTE   W01
 BYTE   Fs2
 BYTE   W02
 BYTE   Gs2
 BYTE   W01
 BYTE   As2
 BYTE   W02
 BYTE   Cn3
 BYTE   W01
 BYTE   Dn3
 BYTE   W02
 BYTE   En3
 BYTE   N10  Gs3
 BYTE   W01
 BYTE   PAN   c_v+2
 BYTE   W02
 BYTE   Gs3
 BYTE   W01
 BYTE   As3
 BYTE   W02
 BYTE   Bn3
 BYTE   W01
 BYTE   Cs4
 BYTE   W02
 BYTE   Ds4
 BYTE   W01
 BYTE   Fn4
 BYTE   W02
 BYTE   Gn4
 BYTE   N10  As3
 BYTE   W01
 BYTE   PAN   c_v+17
 BYTE   W02
 BYTE   Bn4
 BYTE   W01
 BYTE   Cs5
 BYTE   W02
// 043   ----------------------------------------
 BYTE   Ds5
 BYTE   W01
 BYTE   En5
 BYTE   W02
 BYTE   Fs5
 BYTE   W01
 BYTE   Gs5
 BYTE   W01
 BYTE   As5
 BYTE   W01
 BYTE   As5
 BYTE   N84  Ds3
 BYTE   W01
 BYTE   PAN   c_v+29
 BYTE   W02
 BYTE   Gn5
 BYTE   W01
 BYTE   Fn5
 BYTE   W02
 BYTE   Ds5
 BYTE   W01
 BYTE   Cs5
 BYTE   W02
 BYTE   Bn4
 BYTE   W01
 BYTE   An4
 BYTE   W02
 BYTE   Gn4
 BYTE   W01
 BYTE   Fn4
 BYTE   W02
 BYTE   En4
 BYTE   W01
 BYTE   Dn4
 BYTE   W02
 BYTE   Cn4
 BYTE   W01
 BYTE   As3
 BYTE   W02
 BYTE   Gs3
 BYTE   W01
 BYTE   Fs3
 BYTE   W02
 BYTE   En3
 BYTE   W01
 BYTE   Dn3
 BYTE   W02
 BYTE   Cn3
 BYTE   W01
 BYTE   As2
 BYTE   W02
 BYTE   An2
 BYTE   W01
 BYTE   Gn2
 BYTE   W02
 BYTE   Fn2
 BYTE   W01
 BYTE   Ds2
 BYTE   W02
 BYTE   Cs2
 BYTE   W01
 BYTE   Bn1
 BYTE   W02
 BYTE   An1
 BYTE   W01
 BYTE   Gn1
 BYTE   W02
 BYTE   Fn1
 BYTE   W01
 BYTE   En1
 BYTE   W02
 BYTE   Dn1
 BYTE   W01
 BYTE   Cn1
 BYTE   W01
 BYTE   As0
 BYTE   W01
 BYTE   As0
 BYTE   W01
 BYTE   Bn0
 BYTE   W02
 BYTE   Cs1
 BYTE   W01
 BYTE   Ds1
 BYTE   W02
 BYTE   Fn1
 BYTE   W01
 BYTE   Gn1
 BYTE   W02
 BYTE   An1
 BYTE   W01
 BYTE   Bn1
 BYTE   W02
 BYTE   Cs2
 BYTE   W01
 BYTE   Ds2
 BYTE   W02
 BYTE   En2
 BYTE   W01
 BYTE   Fs2
 BYTE   W02
 BYTE   Gs2
 BYTE   W01
 BYTE   As2
 BYTE   W02
 BYTE   Cn3
 BYTE   W01
 BYTE   Dn3
 BYTE   W02
 BYTE   En3
 BYTE   W01
 BYTE   Fs3
 BYTE   W02
 BYTE   Gs3
 BYTE   W01
 BYTE   As3
 BYTE   W02
 BYTE   Bn3
 BYTE   W01
 BYTE   Cs4
 BYTE   W02
 BYTE   Ds4
 BYTE   W01
 BYTE   Fn4
 BYTE   W02
 BYTE   Gn4
 BYTE   W01
 BYTE   An4
 BYTE   W02
 BYTE   Bn4
 BYTE   W01
 BYTE   Cs5
 BYTE   W02
// 044   ----------------------------------------
 BYTE   Ds5
 BYTE   W01
 BYTE   En5
 BYTE   W02
 BYTE   Fs5
 BYTE   W01
 BYTE   Gs5
 BYTE   W01
 BYTE   As5
 BYTE   W90
 BYTE   W01
// 045   ----------------------------------------
 BYTE   W96
// 046   ----------------------------------------
 BYTE   W96
// 047   ----------------------------------------
 BYTE   W96
// 048   ----------------------------------------
 BYTE   W96
// 049   ----------------------------------------
 BYTE   W96
// 050   ----------------------------------------
 BYTE   W96
// 051   ----------------------------------------
 BYTE   W54
 BYTE   As0
 BYTE   W01
 BYTE   Bn0
 BYTE   W02
 BYTE   Cs1
 BYTE   W01
 BYTE   Ds1
 BYTE   W02
 BYTE   Fn1
 BYTE   W01
 BYTE   Gn1
 BYTE   W02
 BYTE   An1
 BYTE   W01
 BYTE   Bn1
 BYTE   W02
 BYTE   Cs2
 BYTE   W01
 BYTE   Ds2
 BYTE   W02
 BYTE   En2
 BYTE   W01
 BYTE   Fs2
 BYTE   W02
 BYTE   Gs2
 BYTE   W01
 BYTE   As2
 BYTE   W02
 BYTE   Cn3
 BYTE   W01
 BYTE   Dn3
 BYTE   W02
 BYTE   En3
 BYTE   N21  As3
 BYTE   W01
 BYTE   PAN   c_v+2
 BYTE   W02
 BYTE   Gs3
 BYTE   W01
 BYTE   As3
 BYTE   W02
 BYTE   Bn3
 BYTE   W01
 BYTE   Cs4
 BYTE   W02
 BYTE   Ds4
 BYTE   W01
 BYTE   Fn4
 BYTE   W02
 BYTE   Gn4
 BYTE   W01
 BYTE   An4
 BYTE   W02
 BYTE   Bn4
 BYTE   W01
 BYTE   Cs5
 BYTE   W02
// 052   ----------------------------------------
 BYTE   Ds5
 BYTE   W01
 BYTE   En5
 BYTE   W02
 BYTE   Fs5
 BYTE   W01
 BYTE   Gs5
 BYTE   W01
 BYTE   As5
 BYTE   W01
 BYTE   As5
 BYTE   N90  Ds4
 BYTE   W03
 BYTE   PAN   c_v+29
 BYTE   W01
 BYTE   Gs5
 BYTE   W02
 BYTE   Gn5
 BYTE   W01
 BYTE   Fs5
 BYTE   W02
 BYTE   Fn5
 BYTE   W01
 BYTE   En5
 BYTE   W02
 BYTE   Ds5
 BYTE   W01
 BYTE   Dn5
 BYTE   W02
 BYTE   Cs5
 BYTE   W01
 BYTE   Cn5
 BYTE   W02
 BYTE   Bn4
 BYTE   W01
 BYTE   As4
 BYTE   W02
 BYTE   An4
 BYTE   W01
 BYTE   Gs4
 BYTE   W02
 BYTE   Gn4
 BYTE   W01
 BYTE   Fs4
 BYTE   W03
 BYTE   Fn4
 BYTE   W02
 BYTE   En4
 BYTE   W01
 BYTE   Ds4
 BYTE   W02
 BYTE   Dn4
 BYTE   W01
 BYTE   Cs4
 BYTE   W02
 BYTE   Cn4
 BYTE   W01
 BYTE   Bn3
 BYTE   W02
 BYTE   As3
 BYTE   W01
 BYTE   An3
 BYTE   W02
 BYTE   Gs3
 BYTE   W01
 BYTE   Gn3
 BYTE   W02
 BYTE   Fs3
 BYTE   W01
 BYTE   Fn3
 BYTE   W02
 BYTE   En3
 BYTE   W01
 BYTE   Ds3
 BYTE   W02
 BYTE   Dn3
 BYTE   W03
 BYTE   Cs3
 BYTE   W01
 BYTE   Cn3
 BYTE   W02
 BYTE   Bn2
 BYTE   W01
 BYTE   As2
 BYTE   W02
 BYTE   An2
 BYTE   W01
 BYTE   Gs2
 BYTE   W02
 BYTE   Gn2
 BYTE   W01
 BYTE   Fs2
 BYTE   W02
 BYTE   Fn2
 BYTE   W01
 BYTE   En2
 BYTE   W02
 BYTE   Ds2
 BYTE   W01
 BYTE   Dn2
 BYTE   W02
 BYTE   Cs2
 BYTE   W01
 BYTE   Cn2
 BYTE   W02
 BYTE   Bn1
 BYTE   W01
 BYTE   As1
 BYTE   W02
 BYTE   An1
 BYTE   W03
 BYTE   Gs1
 BYTE   W01
 BYTE   Gn1
 BYTE   W02
 BYTE   Fs1
 BYTE   W01
 BYTE   Fn1
 BYTE   W02
 BYTE   En1
 BYTE   W01
 BYTE   Ds1
 BYTE   W02
// 053   ----------------------------------------
 BYTE   Dn1
 BYTE   W01
 BYTE   Cs1
 BYTE   W02
 BYTE   Cn1
 BYTE   W01
 BYTE   Bn0
 BYTE   W01
 BYTE   As0
 BYTE   W01
 BYTE   As0
 BYTE   W03
 BYTE   Bn0
 BYTE   W01
 BYTE   Cn1
 BYTE   W02
 BYTE   Cs1
 BYTE   W01
 BYTE   Dn1
 BYTE   W02
 BYTE   Ds1
 BYTE   W01
 BYTE   En1
 BYTE   W02
 BYTE   Fn1
 BYTE   W01
 BYTE   Fs1
 BYTE   W02
 BYTE   Gn1
 BYTE   W01
 BYTE   Gs1
 BYTE   W02
 BYTE   An1
 BYTE   W01
 BYTE   As1
 BYTE   W02
 BYTE   Bn1
 BYTE   W01
 BYTE   Cn2
 BYTE   W02
 BYTE   Cs2
 BYTE   W01
 BYTE   Dn2
 BYTE   W03
 BYTE   Ds2
 BYTE   W02
 BYTE   En2
 BYTE   W01
 BYTE   Fn2
 BYTE   W02
 BYTE   Fs2
 BYTE   W01
 BYTE   Gn2
 BYTE   W02
 BYTE   Gs2
 BYTE   W01
 BYTE   An2
 BYTE   W02
 BYTE   As2
 BYTE   W01
 BYTE   Bn2
 BYTE   W02
 BYTE   Cn3
 BYTE   W01
 BYTE   Cs3
 BYTE   W02
 BYTE   Dn3
 BYTE   W01
 BYTE   Ds3
 BYTE   W02
 BYTE   En3
 BYTE   W01
 BYTE   Fn3
 BYTE   W02
 BYTE   Fs3
 BYTE   W03
 BYTE   Gn3
 BYTE   W01
 BYTE   Gs3
 BYTE   W02
 BYTE   An3
 BYTE   W01
 BYTE   As3
 BYTE   W02
 BYTE   Bn3
 BYTE   W01
 BYTE   Cn4
 BYTE   W02
 BYTE   Cs4
 BYTE   W01
 BYTE   Dn4
 BYTE   W02
 BYTE   Ds4
 BYTE   W01
 BYTE   En4
 BYTE   W02
 BYTE   Fn4
 BYTE   W01
 BYTE   Fs4
 BYTE   W02
 BYTE   Gn4
 BYTE   W01
 BYTE   Gs4
 BYTE   W02
 BYTE   An4
 BYTE   W01
 BYTE   As4
 BYTE   W02
 BYTE   Bn4
 BYTE   W03
 BYTE   Cn5
 BYTE   W01
 BYTE   Cs5
 BYTE   W02
 BYTE   Dn5
 BYTE   W01
 BYTE   Ds5
 BYTE   W02
 BYTE   En5
 BYTE   W01
 BYTE   Fn5
 BYTE   W02
// 054   ----------------------------------------
 BYTE   Fs5
 BYTE   W01
 BYTE   Gn5
 BYTE   W02
 BYTE   Gs5
 BYTE   W01
 BYTE   An5
 BYTE   W01
 BYTE   As5
 BYTE   W01
 BYTE   As5
 BYTE   W03
 BYTE   An5
 BYTE   W01
 BYTE   Gs5
 BYTE   W02
 BYTE   Gn5
 BYTE   W01
 BYTE   Fs5
 BYTE   W02
 BYTE   Fn5
 BYTE   W01
 BYTE   En5
 BYTE   W02
 BYTE   Ds5
 BYTE   W01
 BYTE   Dn5
 BYTE   W02
 BYTE   Cs5
 BYTE   W01
 BYTE   Cn5
 BYTE   W02
 BYTE   Bn4
 BYTE   W01
 BYTE   As4
 BYTE   W02
 BYTE   An4
 BYTE   W01
 BYTE   Gs4
 BYTE   W02
 BYTE   Gn4
 BYTE   W01
 BYTE   Fs4
 BYTE   W03
 BYTE   Fn4
 BYTE   W02
 BYTE   En4
 BYTE   W01
 BYTE   Ds4
 BYTE   W02
 BYTE   Dn4
 BYTE   W01
 BYTE   Cs4
 BYTE   W02
 BYTE   Cn4
 BYTE   W01
 BYTE   Bn3
 BYTE   W02
 BYTE   As3
 BYTE   W01
 BYTE   An3
 BYTE   W02
 BYTE   Gs3
 BYTE   W01
 BYTE   Gn3
 BYTE   W02
 BYTE   Fs3
 BYTE   W01
 BYTE   Fn3
 BYTE   W02
 BYTE   En3
 BYTE   W01
 BYTE   Ds3
 BYTE   W02
 BYTE   Dn3
 BYTE   W03
 BYTE   Cs3
 BYTE   W01
 BYTE   Cn3
 BYTE   W02
 BYTE   Bn2
 BYTE   W01
 BYTE   As2
 BYTE   W02
 BYTE   An2
 BYTE   W01
 BYTE   Gs2
 BYTE   W02
 BYTE   Gn2
 BYTE   W01
 BYTE   Fs2
 BYTE   W02
 BYTE   Fn2
 BYTE   W01
 BYTE   En2
 BYTE   W02
 BYTE   Ds2
 BYTE   W01
 BYTE   Dn2
 BYTE   W02
 BYTE   Cs2
 BYTE   W01
 BYTE   Cn2
 BYTE   W02
 BYTE   Bn1
 BYTE   W01
 BYTE   As1
 BYTE   W02
 BYTE   An1
 BYTE   W03
 BYTE   Gs1
 BYTE   W01
 BYTE   Gn1
 BYTE   W02
 BYTE   Fs1
 BYTE   W01
 BYTE   Fn1
 BYTE   W02
 BYTE   En1
 BYTE   W01
 BYTE   Ds1
 BYTE   W02
// 055   ----------------------------------------
 BYTE   Dn1
 BYTE   W01
 BYTE   Cs1
 BYTE   W02
 BYTE   Cn1
 BYTE   W01
 BYTE   Bn0
 BYTE   W01
 BYTE   As0
 BYTE   W90
 BYTE   W01
// 056   ----------------------------------------
 BYTE   W06
 BYTE   GoTo
  POIN2 Label_6_0165C470
 BYTE   FINE

//**************** Track 8 (Midi-Chn.7) ****************//

RomancingSaga3FourNobleDevilPart1BigMood_008:
// 000   ----------------------------------------
 BYTE   KEYSH   RomancingSaga3FourNobleDevilPart1BigMood_key+0
 BYTE   MODT 0
 BYTE   LFOS 44
 BYTE   BENDR  127
 BYTE   VOL   0*RomancingSaga3FourNobleDevilPart1BigMood_mvl/mxv
 BYTE   MOD 64
 BYTE   PAN   c_v-64
 BYTE   W06
 BYTE   VOICE   46
 BYTE   VOL   75*RomancingSaga3FourNobleDevilPart1BigMood_mvl/mxv
 BYTE   PAN   c_v+0
 BYTE   VOL   75*RomancingSaga3FourNobleDevilPart1BigMood_mvl/mxv
 BYTE   BENDR  0
 BYTE   MOD 0
 BYTE   W90
// 001   ----------------------------------------
 BYTE   W96
// 002   ----------------------------------------
 BYTE   W96
// 003   ----------------------------------------
 BYTE   W96
// 004   ----------------------------------------
 BYTE   W96
// 005   ----------------------------------------
 BYTE   W96
// 006   ----------------------------------------
 BYTE   W96
// 007   ----------------------------------------
 BYTE   W96
// 008   ----------------------------------------
 BYTE   W06
 BYTE   N05  Ds2  v088
 BYTE   W06
 BYTE   Fs2
 BYTE   W06
 BYTE   As2
 BYTE   W06
 BYTE   Ds3
 BYTE   W06
 BYTE   Fs3
 BYTE   W06
 BYTE   As3
 BYTE   W06
 BYTE   Ds4
 BYTE   W06
 BYTE   Fs4
 BYTE   W06
 BYTE   N42  As4
 BYTE   W42
// 009   ----------------------------------------
 BYTE   W06
 BYTE   N05  Cs2
 BYTE   W06
 BYTE   Fn2
 BYTE   W06
 BYTE   Gs2
 BYTE   W06
 BYTE   Cs3
 BYTE   W06
 BYTE   Fn3
 BYTE   W06
 BYTE   Gs3
 BYTE   W06
 BYTE   Cs4
 BYTE   W06
 BYTE   Fn4
 BYTE   W06
 BYTE   N42  Gs4
 BYTE   W42
// 010   ----------------------------------------
 BYTE   W06
 BYTE   N05  Fs2
 BYTE   W06
 BYTE   As2
 BYTE   W06
 BYTE   Cs3
 BYTE   W06
 BYTE   Fs3
 BYTE   W06
 BYTE   As3
 BYTE   W06
 BYTE   Cs4
 BYTE   W06
 BYTE   Fs4
 BYTE   W06
 BYTE   As4
 BYTE   W06
 BYTE   Gn2
 BYTE   W06
 BYTE   As2
 BYTE   W06
 BYTE   Ds3
 BYTE   W06
 BYTE   Gn3
 BYTE   W06
 BYTE   As3
 BYTE   W06
 BYTE   Ds4
 BYTE   W06
 BYTE   Fs4
 BYTE   W06
// 011   ----------------------------------------
 BYTE   As4
 BYTE   W06
 BYTE   Bn4
 BYTE   W06
 BYTE   Gs4
 BYTE   W06
 BYTE   Ds4
 BYTE   W06
 BYTE   Bn3
 BYTE   W06
 BYTE   Gs4
 BYTE   W06
 BYTE   Ds4
 BYTE   W06
 BYTE   Bn3
 BYTE   W06
 BYTE   Gs3
 BYTE   W06
 BYTE   Ds4
 BYTE   W06
 BYTE   Bn3
 BYTE   W06
 BYTE   Gs3
 BYTE   W06
 BYTE   Ds3
 BYTE   W24
// 012   ----------------------------------------
 BYTE   W96
// 013   ----------------------------------------
 BYTE   W96
// 014   ----------------------------------------
 BYTE   W96
// 015   ----------------------------------------
 BYTE   W96
// 016   ----------------------------------------
 BYTE   W96
// 017   ----------------------------------------
 BYTE   W96
// 018   ----------------------------------------
 BYTE   W06
 BYTE   Ds2
 BYTE   W06
 BYTE   Fs2
 BYTE   W06
 BYTE   As2
 BYTE   W06
 BYTE   Ds3
 BYTE   W06
 BYTE   Fs3
 BYTE   W06
 BYTE   As3
 BYTE   W06
 BYTE   Ds4
 BYTE   W06
 BYTE   As4
 BYTE   W06
 BYTE   Bn4
 BYTE   W06
 BYTE   Gs4
 BYTE   W06
 BYTE   Ds4
 BYTE   W06
 BYTE   Bn3
 BYTE   W06
 BYTE   Gs3
 BYTE   W06
 BYTE   Ds3
 BYTE   W06
 BYTE   Bn2
 BYTE   W06
// 019   ----------------------------------------
 BYTE   Gs2
 BYTE   W06
 BYTE   Dn2
 BYTE   W06
 BYTE   Fn2
 BYTE   W06
 BYTE   As2
 BYTE   W06
 BYTE   Dn3
 BYTE   W06
 BYTE   Fn3
 BYTE   W06
 BYTE   As3
 BYTE   W06
 BYTE   Dn4
 BYTE   W06
 BYTE   Fn4
 BYTE   W06
 BYTE   N42  As4
 BYTE   W42
// 020   ----------------------------------------
 BYTE   W06
Label_7_0165D42F:
 BYTE   PAN   c_v-30
 BYTE   N05  Fs2  v088
 BYTE   W03
 BYTE   PAN   c_v-29
 BYTE   W01
 BYTE   Cn1
 BYTE   W02
 BYTE   Cs1
 BYTE   N05  As2
 BYTE   W01
 BYTE   PAN   c_v-26
 BYTE   W02
 BYTE   Ds1
 BYTE   W01
 BYTE   En1
 BYTE   W02
 BYTE   Fn1
 BYTE   N05  Ds3
 BYTE   W01
 BYTE   PAN   c_v-22
 BYTE   W02
 BYTE   Gn1
 BYTE   W01
 BYTE   Gs1
 BYTE   W02
 BYTE   An1
 BYTE   N05  Fs3
 BYTE   W01
 BYTE   PAN   c_v-18
 BYTE   W02
 BYTE   Bn1
 BYTE   W01
 BYTE   Cn2
 BYTE   W02
 BYTE   Cs2
 BYTE   N05  As3
 BYTE   W01
 BYTE   PAN   c_v-14
 BYTE   W03
 BYTE   Ds2
 BYTE   W02
 BYTE   En2
 BYTE   N05  Ds4
 BYTE   W01
 BYTE   PAN   c_v-11
 BYTE   W02
 BYTE   Fs2
 BYTE   W01
 BYTE   Gn2
 BYTE   W02
 BYTE   Gs2
 BYTE   N05  Fs4
 BYTE   W01
 BYTE   PAN   c_v-7
 BYTE   W02
 BYTE   As2
 BYTE   W01
 BYTE   Bn2
 BYTE   W02
 BYTE   Cn3
 BYTE   N05  As4
 BYTE   W01
 BYTE   PAN   c_v-3
 BYTE   W02
 BYTE   Dn3
 BYTE   W01
 BYTE   Ds3
 BYTE   W02
 BYTE   En3
 BYTE   N05  Cn5
 BYTE   W01
 BYTE   PAN   c_v+1
 BYTE   W02
 BYTE   Fs3
 BYTE   W03
 BYTE   Gn3
 BYTE   N05  An4
 BYTE   W01
 BYTE   PAN   c_v+4
 BYTE   W02
 BYTE   An3
 BYTE   W01
 BYTE   As3
 BYTE   W02
 BYTE   Bn3
 BYTE   N05  Fn4
 BYTE   W01
 BYTE   PAN   c_v+8
 BYTE   W02
 BYTE   Cs4
 BYTE   W01
 BYTE   Dn4
 BYTE   W02
 BYTE   Ds4
 BYTE   N05  Cn4
 BYTE   W01
 BYTE   PAN   c_v+12
 BYTE   W02
 BYTE   Fn4
 BYTE   W01
 BYTE   Fs4
 BYTE   W02
 BYTE   Gn4
 BYTE   N05  An3
 BYTE   W01
 BYTE   PAN   c_v+16
 BYTE   W02
 BYTE   An4
 BYTE   W01
 BYTE   As4
 BYTE   W02
 BYTE   Bn4
 BYTE   N05  Fn3
 BYTE   W03
 BYTE   PAN   c_v+20
 BYTE   W01
 BYTE   Cs5
 BYTE   W02
 BYTE   Dn5
 BYTE   N05  Cn3
 BYTE   W01
 BYTE   PAN   c_v+23
 BYTE   W02
 BYTE   En5
 BYTE   W01
 BYTE   Fn5
 BYTE   W02
// 021   ----------------------------------------
Label_7_0165D4CE:
 BYTE   PAN   c_v+26
 BYTE   N05  An2  v088
 BYTE   W01
 BYTE   PAN   c_v+27
 BYTE   W02
 BYTE   Gs5
 BYTE   W01
 BYTE   An5
 BYTE   W01
 BYTE   As5
 BYTE   W01
 BYTE   As5
 BYTE   N05  Gs2
 BYTE   W03
 BYTE   PAN   c_v+29
 BYTE   W01
 BYTE   Gs5
 BYTE   W02
 BYTE   Gn5
 BYTE   N05  Bn2
 BYTE   W01
 BYTE   PAN   c_v+26
 BYTE   W02
 BYTE   Fn5
 BYTE   W01
 BYTE   En5
 BYTE   W02
 BYTE   Ds5
 BYTE   N05  Fn3
 BYTE   W01
 BYTE   PAN   c_v+22
 BYTE   W02
 BYTE   Cs5
 BYTE   W01
 BYTE   Cn5
 BYTE   W02
 BYTE   Bn4
 BYTE   N05  Gs3
 BYTE   W01
 BYTE   PAN   c_v+18
 BYTE   W02
 BYTE   An4
 BYTE   W01
 BYTE   Gs4
 BYTE   W02
 BYTE   Gn4
 BYTE   N05  Bn3
 BYTE   W01
 BYTE   PAN   c_v+14
 BYTE   W03
 BYTE   Fn4
 BYTE   W02
 BYTE   En4
 BYTE   N05  Fn4
 BYTE   W01
 BYTE   PAN   c_v+11
 BYTE   W02
 BYTE   Dn4
 BYTE   W01
 BYTE   Cs4
 BYTE   W02
 BYTE   Cn4
 BYTE   N05  Gs4
 BYTE   W01
 BYTE   PAN   c_v+7
 BYTE   W02
 BYTE   As3
 BYTE   W01
 BYTE   An3
 BYTE   W02
 BYTE   Gs3
 BYTE   N05  Bn4
 BYTE   W01
 BYTE   PAN   c_v+3
 BYTE   W02
 BYTE   Fs3
 BYTE   W01
 BYTE   Fn3
 BYTE   W02
 BYTE   En3
 BYTE   N05  Ds5
 BYTE   W01
 BYTE   PAN   c_v-1
 BYTE   W02
 BYTE   Dn3
 BYTE   W03
 BYTE   Cs3
 BYTE   N05  As4
 BYTE   W01
 BYTE   PAN   c_v-4
 BYTE   W02
 BYTE   Bn2
 BYTE   W01
 BYTE   As2
 BYTE   W02
 BYTE   An2
 BYTE   N05  Fs4
 BYTE   W01
 BYTE   PAN   c_v-8
 BYTE   W02
 BYTE   Gn2
 BYTE   W01
 BYTE   Fs2
 BYTE   W02
 BYTE   Fn2
 BYTE   N05  Ds4
 BYTE   W01
 BYTE   PAN   c_v-12
 BYTE   W02
 BYTE   Ds2
 BYTE   W01
 BYTE   Dn2
 BYTE   W02
 BYTE   Cs2
 BYTE   N05  As3
 BYTE   W01
 BYTE   PAN   c_v-16
 BYTE   W02
 BYTE   Bn1
 BYTE   W01
 BYTE   As1
 BYTE   W02
 BYTE   An1
 BYTE   N05  Fs3
 BYTE   W03
 BYTE   PAN   c_v-20
 BYTE   W01
 BYTE   Gn1
 BYTE   W02
 BYTE   Fs1
 BYTE   N05  Ds3
 BYTE   W01
 BYTE   PAN   c_v-23
 BYTE   W02
 BYTE   En1
 BYTE   W01
 BYTE   Ds1
 BYTE   W02
 BYTE   PEND 
// 022   ----------------------------------------
Label_7_0165D57B:
 BYTE   PAN   c_v-26
 BYTE   N05  As2  v088
 BYTE   W01
 BYTE   PAN   c_v-27
 BYTE   W02
 BYTE   Cn1
 BYTE   W01
 BYTE   Bn0
 BYTE   W01
 BYTE   As0
 BYTE   W01
 BYTE   As0
 BYTE   N05  Gs2
 BYTE   W03
 BYTE   PAN   c_v-29
 BYTE   W01
 BYTE   Cn1
 BYTE   W02
 BYTE   Cs1
 BYTE   N05  Bn2
 BYTE   W01
 BYTE   PAN   c_v-26
 BYTE   W02
 BYTE   Ds1
 BYTE   W01
 BYTE   En1
 BYTE   W02
 BYTE   Fn1
 BYTE   N05  Ds3
 BYTE   W01
 BYTE   PAN   c_v-22
 BYTE   W02
 BYTE   Gn1
 BYTE   W01
 BYTE   Gs1
 BYTE   W02
 BYTE   An1
 BYTE   N05  Gs3
 BYTE   W01
 BYTE   PAN   c_v-18
 BYTE   W02
 BYTE   Bn1
 BYTE   W01
 BYTE   Cn2
 BYTE   W02
 BYTE   Cs2
 BYTE   N05  Bn3
 BYTE   W01
 BYTE   PAN   c_v-14
 BYTE   W03
 BYTE   Ds2
 BYTE   W02
 BYTE   En2
 BYTE   N05  Ds4
 BYTE   W01
 BYTE   PAN   c_v-11
 BYTE   W02
 BYTE   Fs2
 BYTE   W01
 BYTE   Gn2
 BYTE   W02
 BYTE   Gs2
 BYTE   N05  Gs4
 BYTE   W01
 BYTE   PAN   c_v-7
 BYTE   W02
 BYTE   As2
 BYTE   W01
 BYTE   Bn2
 BYTE   W02
 BYTE   Cn3
 BYTE   N05  Bn4
 BYTE   W01
 BYTE   PAN   c_v-3
 BYTE   W02
 BYTE   Dn3
 BYTE   W01
 BYTE   Ds3
 BYTE   W02
 BYTE   En3
 BYTE   N05  Dn5
 BYTE   W01
 BYTE   PAN   c_v+1
 BYTE   W02
 BYTE   Fs3
 BYTE   W03
 BYTE   Gn3
 BYTE   N05  As4
 BYTE   W01
 BYTE   PAN   c_v+4
 BYTE   W02
 BYTE   An3
 BYTE   W01
 BYTE   As3
 BYTE   W02
 BYTE   Bn3
 BYTE   N05  Gs4
 BYTE   W01
 BYTE   PAN   c_v+8
 BYTE   W02
 BYTE   Cs4
 BYTE   W01
 BYTE   Dn4
 BYTE   W02
 BYTE   Ds4
 BYTE   N05  Dn4
 BYTE   W01
 BYTE   PAN   c_v+12
 BYTE   W02
 BYTE   Fn4
 BYTE   W01
 BYTE   Fs4
 BYTE   W02
 BYTE   Gn4
 BYTE   N05  As3
 BYTE   W01
 BYTE   PAN   c_v+16
 BYTE   W02
 BYTE   An4
 BYTE   W01
 BYTE   As4
 BYTE   W02
 BYTE   Bn4
 BYTE   N05  Gs3
 BYTE   W03
 BYTE   PAN   c_v+20
 BYTE   W01
 BYTE   Cs5
 BYTE   W02
 BYTE   Dn5
 BYTE   N05  Dn3
 BYTE   W01
 BYTE   PAN   c_v+23
 BYTE   W02
 BYTE   En5
 BYTE   W01
 BYTE   Fn5
 BYTE   W02
 BYTE   PEND 
// 023   ----------------------------------------
Label_7_0165D628:
 BYTE   PAN   c_v+26
 BYTE   N05  As2  v088
 BYTE   W01
 BYTE   PAN   c_v+27
 BYTE   W02
 BYTE   Gs5
 BYTE   W01
 BYTE   An5
 BYTE   W01
 BYTE   As5
 BYTE   W01
 BYTE   As5
 BYTE   N05  Fs2
 BYTE   W03
 BYTE   PAN   c_v+29
 BYTE   W01
 BYTE   Gs5
 BYTE   W02
 BYTE   Gn5
 BYTE   N05  As2
 BYTE   W01
 BYTE   PAN   c_v+26
 BYTE   W02
 BYTE   Fn5
 BYTE   W01
 BYTE   En5
 BYTE   W02
 BYTE   Ds5
 BYTE   N05  Ds3
 BYTE   W01
 BYTE   PAN   c_v+22
 BYTE   W02
 BYTE   Cs5
 BYTE   W01
 BYTE   Cn5
 BYTE   W02
 BYTE   Bn4
 BYTE   N05  Fs3
 BYTE   W01
 BYTE   PAN   c_v+18
 BYTE   W02
 BYTE   An4
 BYTE   W01
 BYTE   Gs4
 BYTE   W02
 BYTE   Gn4
 BYTE   N05  As3
 BYTE   W01
 BYTE   PAN   c_v+14
 BYTE   W03
 BYTE   Fn4
 BYTE   W02
 BYTE   En4
 BYTE   N05  Ds4
 BYTE   W01
 BYTE   PAN   c_v+11
 BYTE   W02
 BYTE   Dn4
 BYTE   W01
 BYTE   Cs4
 BYTE   W02
 BYTE   Cn4
 BYTE   N05  Fs4
 BYTE   W01
 BYTE   PAN   c_v+7
 BYTE   W02
 BYTE   As3
 BYTE   W01
 BYTE   An3
 BYTE   W02
 BYTE   Gs3
 BYTE   N05  Bn4
 BYTE   W01
 BYTE   PAN   c_v+3
 BYTE   W02
 BYTE   Fs3
 BYTE   W01
 BYTE   Fn3
 BYTE   W02
 BYTE   En3
 BYTE   N05  As4
 BYTE   W01
 BYTE   PAN   c_v-1
 BYTE   W02
 BYTE   Dn3
 BYTE   W03
 BYTE   Cs3
 BYTE   N05  Gs4
 BYTE   W01
 BYTE   PAN   c_v-4
 BYTE   W02
 BYTE   Bn2
 BYTE   W01
 BYTE   As2
 BYTE   W02
 BYTE   An2
 BYTE   N05  Ds4
 BYTE   W01
 BYTE   PAN   c_v-8
 BYTE   W02
 BYTE   Gn2
 BYTE   W01
 BYTE   Fs2
 BYTE   W02
 BYTE   Fn2
 BYTE   N05  As3
 BYTE   W01
 BYTE   PAN   c_v-12
 BYTE   W02
 BYTE   Ds2
 BYTE   W01
 BYTE   Dn2
 BYTE   W02
 BYTE   Cs2
 BYTE   N05  Gs3
 BYTE   W01
 BYTE   PAN   c_v-16
 BYTE   W02
 BYTE   Bn1
 BYTE   W01
 BYTE   As1
 BYTE   W02
 BYTE   An1
 BYTE   N05  Fn3
 BYTE   W03
 BYTE   PAN   c_v-20
 BYTE   W01
 BYTE   Gn1
 BYTE   W02
 BYTE   Fs1
 BYTE   N05  Dn3
 BYTE   W01
 BYTE   PAN   c_v-23
 BYTE   W02
 BYTE   En1
 BYTE   W01
 BYTE   Ds1
 BYTE   W02
 BYTE   PEND 
// 024   ----------------------------------------
Label_7_0165D6D5:
 BYTE   PAN   c_v-26
 BYTE   N05  As2  v088
 BYTE   W01
 BYTE   PAN   c_v-27
 BYTE   W02
 BYTE   Cn1
 BYTE   W01
 BYTE   Bn0
 BYTE   W01
 BYTE   As0
 BYTE   W01
 BYTE   As0
 BYTE   N05  Fs2
 BYTE   W03
 BYTE   PAN   c_v-29
 BYTE   W01
 BYTE   Cn1
 BYTE   W02
 BYTE   Cs1
 BYTE   N05  As2
 BYTE   W01
 BYTE   PAN   c_v-26
 BYTE   W02
 BYTE   Ds1
 BYTE   W01
 BYTE   En1
 BYTE   W02
 BYTE   Fn1
 BYTE   N05  Ds3
 BYTE   W01
 BYTE   PAN   c_v-22
 BYTE   W02
 BYTE   Gn1
 BYTE   W01
 BYTE   Gs1
 BYTE   W02
 BYTE   An1
 BYTE   N05  Fs3
 BYTE   W01
 BYTE   PAN   c_v-18
 BYTE   W02
 BYTE   Bn1
 BYTE   W01
 BYTE   Cn2
 BYTE   W02
 BYTE   Cs2
 BYTE   N05  As3
 BYTE   W01
 BYTE   PAN   c_v-14
 BYTE   W03
 BYTE   Ds2
 BYTE   W02
 BYTE   En2
 BYTE   N05  Ds4
 BYTE   W01
 BYTE   PAN   c_v-11
 BYTE   W02
 BYTE   Fs2
 BYTE   W01
 BYTE   Gn2
 BYTE   W02
 BYTE   Gs2
 BYTE   N05  Fs4
 BYTE   W01
 BYTE   PAN   c_v-7
 BYTE   W02
 BYTE   As2
 BYTE   W01
 BYTE   Bn2
 BYTE   W02
 BYTE   Cn3
 BYTE   N05  As4
 BYTE   W01
 BYTE   PAN   c_v-3
 BYTE   W02
 BYTE   Dn3
 BYTE   W01
 BYTE   Ds3
 BYTE   W02
 BYTE   En3
 BYTE   N05  Cn5
 BYTE   W01
 BYTE   PAN   c_v+1
 BYTE   W02
 BYTE   Fs3
 BYTE   W03
 BYTE   Gn3
 BYTE   N05  An4
 BYTE   W01
 BYTE   PAN   c_v+4
 BYTE   W02
 BYTE   An3
 BYTE   W01
 BYTE   As3
 BYTE   W02
 BYTE   Bn3
 BYTE   N05  Fn4
 BYTE   W01
 BYTE   PAN   c_v+8
 BYTE   W02
 BYTE   Cs4
 BYTE   W01
 BYTE   Dn4
 BYTE   W02
 BYTE   Ds4
 BYTE   N05  Cn4
 BYTE   W01
 BYTE   PAN   c_v+12
 BYTE   W02
 BYTE   Fn4
 BYTE   W01
 BYTE   Fs4
 BYTE   W02
 BYTE   Gn4
 BYTE   N05  An3
 BYTE   W01
 BYTE   PAN   c_v+16
 BYTE   W02
 BYTE   An4
 BYTE   W01
 BYTE   As4
 BYTE   W02
 BYTE   Bn4
 BYTE   N05  Fn3
 BYTE   W03
 BYTE   PAN   c_v+20
 BYTE   W01
 BYTE   Cs5
 BYTE   W02
 BYTE   Dn5
 BYTE   N05  Cn3
 BYTE   W01
 BYTE   PAN   c_v+23
 BYTE   W02
 BYTE   En5
 BYTE   W01
 BYTE   Fn5
 BYTE   W02
 BYTE   PEND 
// 025   ----------------------------------------
 BYTE   PATT
  POIN2 Label_7_0165D4CE
// 026   ----------------------------------------
 BYTE   PATT
  POIN2 Label_7_0165D57B
// 027   ----------------------------------------
Label_7_0165D78C:
 BYTE   PAN   c_v+26
 BYTE   N05  As2  v088
 BYTE   W01
 BYTE   PAN   c_v+27
 BYTE   W02
 BYTE   Gs5
 BYTE   W01
 BYTE   An5
 BYTE   W01
 BYTE   As5
 BYTE   W01
 BYTE   As5
 BYTE   N05  Ds2
 BYTE   W03
 BYTE   PAN   c_v+29
 BYTE   W01
 BYTE   Gs5
 BYTE   W02
 BYTE   Gn5
 BYTE   N05  Fs2
 BYTE   W01
 BYTE   PAN   c_v+26
 BYTE   W02
 BYTE   Fn5
 BYTE   W01
 BYTE   En5
 BYTE   W02
 BYTE   Ds5
 BYTE   N05  As2
 BYTE   W01
 BYTE   PAN   c_v+22
 BYTE   W02
 BYTE   Cs5
 BYTE   W01
 BYTE   Cn5
 BYTE   W02
 BYTE   Bn4
 BYTE   N05  Ds3
 BYTE   W01
 BYTE   PAN   c_v+18
 BYTE   W02
 BYTE   An4
 BYTE   W01
 BYTE   Gs4
 BYTE   W02
 BYTE   Gn4
 BYTE   N05  Fs3
 BYTE   W01
 BYTE   PAN   c_v+14
 BYTE   W03
 BYTE   Fn4
 BYTE   W02
 BYTE   En4
 BYTE   N05  As3
 BYTE   W01
 BYTE   PAN   c_v+11
 BYTE   W02
 BYTE   Dn4
 BYTE   W01
 BYTE   Cs4
 BYTE   W02
 BYTE   Cn4
 BYTE   N05  Ds4
 BYTE   W01
 BYTE   PAN   c_v+7
 BYTE   W02
 BYTE   As3
 BYTE   W01
 BYTE   An3
 BYTE   W02
 BYTE   Gs3
 BYTE   N05  Fs4
 BYTE   W01
 BYTE   PAN   c_v+3
 BYTE   W02
 BYTE   Fs3
 BYTE   W01
 BYTE   Fn3
 BYTE   W02
 BYTE   En3
 BYTE   N42  As4
 BYTE   W01
 BYTE   PAN   c_v-1
 BYTE   W02
 BYTE   Dn3
 BYTE   W03
 BYTE   Cs3
 BYTE   W01
 BYTE   Cn3
 BYTE   W02
 BYTE   Bn2
 BYTE   W01
 BYTE   As2
 BYTE   W02
 BYTE   An2
 BYTE   W01
 BYTE   Gs2
 BYTE   W02
 BYTE   Gn2
 BYTE   W01
 BYTE   Fs2
 BYTE   W02
 BYTE   Fn2
 BYTE   W01
 BYTE   En2
 BYTE   W02
 BYTE   Ds2
 BYTE   W01
 BYTE   Dn2
 BYTE   W02
 BYTE   Cs2
 BYTE   W01
 BYTE   Cn2
 BYTE   W02
 BYTE   Bn1
 BYTE   W01
 BYTE   As1
 BYTE   W02
 BYTE   An1
 BYTE   W03
 BYTE   Gs1
 BYTE   W01
 BYTE   Gn1
 BYTE   W02
 BYTE   Fs1
 BYTE   W01
 BYTE   Fn1
 BYTE   W02
 BYTE   En1
 BYTE   W01
 BYTE   Ds1
 BYTE   W02
 BYTE   PEND 
// 028   ----------------------------------------
 BYTE   Dn1
 BYTE   W01
 BYTE   Cs1
 BYTE   W02
 BYTE   Cn1
 BYTE   W01
 BYTE   Bn0
 BYTE   W01
 BYTE   As0
 BYTE   W01
 BYTE   As0
 BYTE   N05  Ds2
 BYTE   W03
 BYTE   PAN   c_v-29
 BYTE   W01
 BYTE   Cn1
 BYTE   W02
 BYTE   Cs1
 BYTE   N05  Fs2
 BYTE   W01
 BYTE   PAN   c_v-26
 BYTE   W02
 BYTE   Ds1
 BYTE   W01
 BYTE   En1
 BYTE   W02
 BYTE   Fn1
 BYTE   N05  Bn2
 BYTE   W01
 BYTE   PAN   c_v-22
 BYTE   W02
 BYTE   Gn1
 BYTE   W01
 BYTE   Gs1
 BYTE   W02
 BYTE   An1
 BYTE   N05  Ds3
 BYTE   W01
 BYTE   PAN   c_v-18
 BYTE   W02
 BYTE   Bn1
 BYTE   W01
 BYTE   Cn2
 BYTE   W02
 BYTE   Cs2
 BYTE   N05  Fs3
 BYTE   W01
 BYTE   PAN   c_v-14
 BYTE   W03
 BYTE   Ds2
 BYTE   W02
 BYTE   En2
 BYTE   N05  Bn3
 BYTE   W01
 BYTE   PAN   c_v-11
 BYTE   W02
 BYTE   Fs2
 BYTE   W01
 BYTE   Gn2
 BYTE   W02
 BYTE   Gs2
 BYTE   N05  Ds4
 BYTE   W01
 BYTE   PAN   c_v-7
 BYTE   W02
 BYTE   As2
 BYTE   W01
 BYTE   Bn2
 BYTE   W02
 BYTE   Cn3
 BYTE   N05  Fs4
 BYTE   W01
 BYTE   PAN   c_v-3
 BYTE   W02
 BYTE   Dn3
 BYTE   W01
 BYTE   Ds3
 BYTE   W02
 BYTE   En3
 BYTE   N05  As4
 BYTE   W01
 BYTE   PAN   c_v+1
 BYTE   W02
 BYTE   Fs3
 BYTE   W03
 BYTE   Gn3
 BYTE   N05  Fs4
 BYTE   W01
 BYTE   PAN   c_v+4
 BYTE   W02
 BYTE   An3
 BYTE   W01
 BYTE   As3
 BYTE   W02
 BYTE   Bn3
 BYTE   N05  Ds4
 BYTE   W01
 BYTE   PAN   c_v+8
 BYTE   W02
 BYTE   Cs4
 BYTE   W01
 BYTE   Dn4
 BYTE   W02
 BYTE   Ds4
 BYTE   N05  As3
 BYTE   W01
 BYTE   PAN   c_v+12
 BYTE   W02
 BYTE   Fn4
 BYTE   W01
 BYTE   Fs4
 BYTE   W02
 BYTE   Gn4
 BYTE   N05  Fs3
 BYTE   W01
 BYTE   PAN   c_v+16
 BYTE   W02
 BYTE   An4
 BYTE   W01
 BYTE   As4
 BYTE   W02
 BYTE   Bn4
 BYTE   N05  Ds3
 BYTE   W03
 BYTE   PAN   c_v+20
 BYTE   W01
 BYTE   Cs5
 BYTE   W02
 BYTE   Dn5
 BYTE   N05  As2
 BYTE   W01
 BYTE   PAN   c_v+23
 BYTE   W02
 BYTE   En5
 BYTE   W01
 BYTE   Fn5
 BYTE   W02
// 029   ----------------------------------------
 BYTE   Fs5
 BYTE   N05  Fs2
 BYTE   W01
 BYTE   PAN   c_v+27
 BYTE   W02
 BYTE   Gs5
 BYTE   W01
 BYTE   An5
 BYTE   W01
 BYTE   As5
 BYTE   W01
 BYTE   As5
 BYTE   N05  Fn2
 BYTE   W03
 BYTE   PAN   c_v+29
 BYTE   W01
 BYTE   Gs5
 BYTE   W02
 BYTE   Gn5
 BYTE   N05  Gs2
 BYTE   W01
 BYTE   PAN   c_v+26
 BYTE   W02
 BYTE   Fn5
 BYTE   W01
 BYTE   En5
 BYTE   W02
 BYTE   Ds5
 BYTE   N05  Cs3
 BYTE   W01
 BYTE   PAN   c_v+22
 BYTE   W02
 BYTE   Cs5
 BYTE   W01
 BYTE   Cn5
 BYTE   W02
 BYTE   Bn4
 BYTE   N05  Fn3
 BYTE   W01
 BYTE   PAN   c_v+18
 BYTE   W02
 BYTE   An4
 BYTE   W01
 BYTE   Gs4
 BYTE   W02
 BYTE   Gn4
 BYTE   N05  Gs3
 BYTE   W01
 BYTE   PAN   c_v+14
 BYTE   W03
 BYTE   Fn4
 BYTE   W02
 BYTE   En4
 BYTE   N05  Cs4
 BYTE   W01
 BYTE   PAN   c_v+11
 BYTE   W02
 BYTE   Dn4
 BYTE   W01
 BYTE   Cs4
 BYTE   W02
 BYTE   Cn4
 BYTE   N05  Fn4
 BYTE   W01
 BYTE   PAN   c_v+7
 BYTE   W02
 BYTE   As3
 BYTE   W01
 BYTE   An3
 BYTE   W02
 BYTE   Gs3
 BYTE   N05  Gs4
 BYTE   W01
 BYTE   PAN   c_v+3
 BYTE   W02
 BYTE   Fs3
 BYTE   W01
 BYTE   Fn3
 BYTE   W02
 BYTE   En3
 BYTE   N05  Cs5
 BYTE   W01
 BYTE   PAN   c_v-1
 BYTE   W02
 BYTE   Dn3
 BYTE   W03
 BYTE   Cs3
 BYTE   N05  Gs4
 BYTE   W01
 BYTE   PAN   c_v-4
 BYTE   W02
 BYTE   Bn2
 BYTE   W01
 BYTE   As2
 BYTE   W02
 BYTE   An2
 BYTE   N05  Fn4
 BYTE   W01
 BYTE   PAN   c_v-8
 BYTE   W02
 BYTE   Gn2
 BYTE   W01
 BYTE   Fs2
 BYTE   W02
 BYTE   Fn2
 BYTE   N05  Cs4
 BYTE   W01
 BYTE   PAN   c_v-12
 BYTE   W02
 BYTE   Ds2
 BYTE   W01
 BYTE   Dn2
 BYTE   W02
 BYTE   Cs2
 BYTE   N05  Gs3
 BYTE   W01
 BYTE   PAN   c_v-16
 BYTE   W02
 BYTE   Bn1
 BYTE   W01
 BYTE   As1
 BYTE   W02
 BYTE   An1
 BYTE   N05  Fn3
 BYTE   W03
 BYTE   PAN   c_v-20
 BYTE   W01
 BYTE   Gn1
 BYTE   W02
 BYTE   Fs1
 BYTE   N05  Cs3
 BYTE   W01
 BYTE   PAN   c_v-23
 BYTE   W02
 BYTE   En1
 BYTE   W01
 BYTE   Ds1
 BYTE   W02
// 030   ----------------------------------------
 BYTE   Dn1
 BYTE   N05  Gs2
 BYTE   W01
 BYTE   PAN   c_v-27
 BYTE   W02
 BYTE   Cn1
 BYTE   W01
 BYTE   Bn0
 BYTE   W01
 BYTE   As0
 BYTE   W01
 BYTE   As0
 BYTE   N05  Dn2
 BYTE   W03
 BYTE   PAN   c_v-29
 BYTE   W01
 BYTE   Cn1
 BYTE   W02
 BYTE   Cs1
 BYTE   N05  Fn2
 BYTE   W01
 BYTE   PAN   c_v-26
 BYTE   W02
 BYTE   Ds1
 BYTE   W01
 BYTE   En1
 BYTE   W02
 BYTE   Fn1
 BYTE   N05  As2
 BYTE   W01
 BYTE   PAN   c_v-22
 BYTE   W02
 BYTE   Gn1
 BYTE   W01
 BYTE   Gs1
 BYTE   W02
 BYTE   An1
 BYTE   N05  Dn3
 BYTE   W01
 BYTE   PAN   c_v-18
 BYTE   W02
 BYTE   Bn1
 BYTE   W01
 BYTE   Cn2
 BYTE   W02
 BYTE   Cs2
 BYTE   N05  Fn3
 BYTE   W01
 BYTE   PAN   c_v-14
 BYTE   W03
 BYTE   Ds2
 BYTE   W02
 BYTE   En2
 BYTE   N05  As3
 BYTE   W01
 BYTE   PAN   c_v-11
 BYTE   W02
 BYTE   Fs2
 BYTE   W01
 BYTE   Gn2
 BYTE   W02
 BYTE   Gs2
 BYTE   N05  Dn4
 BYTE   W01
 BYTE   PAN   c_v-7
 BYTE   W02
 BYTE   As2
 BYTE   W01
 BYTE   Bn2
 BYTE   W02
 BYTE   Cn3
 BYTE   N05  Fn4
 BYTE   W01
 BYTE   PAN   c_v-3
 BYTE   W02
 BYTE   Dn3
 BYTE   W01
 BYTE   Ds3
 BYTE   W02
 BYTE   En3
 BYTE   N05  As4
 BYTE   W01
 BYTE   PAN   c_v+1
 BYTE   W02
 BYTE   Fs3
 BYTE   W03
 BYTE   Gn3
 BYTE   N05  Fn4
 BYTE   W01
 BYTE   PAN   c_v+4
 BYTE   W02
 BYTE   An3
 BYTE   W01
 BYTE   As3
 BYTE   W02
 BYTE   Bn3
 BYTE   N05  Dn4
 BYTE   W01
 BYTE   PAN   c_v+8
 BYTE   W02
 BYTE   Cs4
 BYTE   W01
 BYTE   Dn4
 BYTE   W02
 BYTE   Ds4
 BYTE   N05  As3
 BYTE   W01
 BYTE   PAN   c_v+12
 BYTE   W02
 BYTE   Fn4
 BYTE   W01
 BYTE   Fs4
 BYTE   W02
 BYTE   Gn4
 BYTE   N05  Fn3
 BYTE   W01
 BYTE   PAN   c_v+16
 BYTE   W02
 BYTE   An4
 BYTE   W01
 BYTE   As4
 BYTE   W02
 BYTE   Bn4
 BYTE   N05  Dn3
 BYTE   W03
 BYTE   PAN   c_v+20
 BYTE   W01
 BYTE   Cs5
 BYTE   W02
 BYTE   Dn5
 BYTE   N05  As2
 BYTE   W01
 BYTE   PAN   c_v+23
 BYTE   W02
 BYTE   En5
 BYTE   W01
 BYTE   Fn5
 BYTE   W02
// 031   ----------------------------------------
 BYTE   Fs5
 BYTE   N05  Fn2
 BYTE   W01
 BYTE   PAN   c_v+27
 BYTE   W02
 BYTE   Gs5
 BYTE   W01
 BYTE   An5
 BYTE   W01
 BYTE   As5
 BYTE   W01
 BYTE   As5
 BYTE   N05  Ds2
 BYTE   W03
 BYTE   PAN   c_v+29
 BYTE   W01
 BYTE   Gs5
 BYTE   W02
 BYTE   Gn5
 BYTE   N05  Fs2
 BYTE   W01
 BYTE   PAN   c_v+26
 BYTE   W02
 BYTE   Fn5
 BYTE   W01
 BYTE   En5
 BYTE   W02
 BYTE   Ds5
 BYTE   N05  As2
 BYTE   W01
 BYTE   PAN   c_v+22
 BYTE   W02
 BYTE   Cs5
 BYTE   W01
 BYTE   Cn5
 BYTE   W02
 BYTE   Bn4
 BYTE   N05  Ds3
 BYTE   W01
 BYTE   PAN   c_v+18
 BYTE   W02
 BYTE   An4
 BYTE   W01
 BYTE   Gs4
 BYTE   W02
 BYTE   Gn4
 BYTE   N05  Fs3
 BYTE   W01
 BYTE   PAN   c_v+14
 BYTE   W03
 BYTE   Fn4
 BYTE   W02
 BYTE   En4
 BYTE   N05  As3
 BYTE   W01
 BYTE   PAN   c_v+11
 BYTE   W02
 BYTE   Dn4
 BYTE   W01
 BYTE   Cs4
 BYTE   W02
 BYTE   Cn4
 BYTE   N05  Ds4
 BYTE   W01
 BYTE   PAN   c_v+7
 BYTE   W02
 BYTE   As3
 BYTE   W01
 BYTE   An3
 BYTE   W02
 BYTE   Gs3
 BYTE   N05  Fs4
 BYTE   W01
 BYTE   PAN   c_v+3
 BYTE   W02
 BYTE   Fs3
 BYTE   W01
 BYTE   Fn3
 BYTE   W02
 BYTE   En3
 BYTE   N05  Cs5
 BYTE   W01
 BYTE   PAN   c_v-1
 BYTE   W02
 BYTE   Dn3
 BYTE   W03
 BYTE   Cs3
 BYTE   N05  As4
 BYTE   W01
 BYTE   PAN   c_v-4
 BYTE   W02
 BYTE   Bn2
 BYTE   W01
 BYTE   As2
 BYTE   W02
 BYTE   An2
 BYTE   N05  Fs4
 BYTE   W01
 BYTE   PAN   c_v-8
 BYTE   W02
 BYTE   Gn2
 BYTE   W01
 BYTE   Fs2
 BYTE   W02
 BYTE   Fn2
 BYTE   N05  Cs4
 BYTE   W01
 BYTE   PAN   c_v-12
 BYTE   W02
 BYTE   Ds2
 BYTE   W01
 BYTE   Dn2
 BYTE   W02
 BYTE   Cs2
 BYTE   N05  As3
 BYTE   W01
 BYTE   PAN   c_v-16
 BYTE   W02
 BYTE   Bn1
 BYTE   W01
 BYTE   As1
 BYTE   W02
 BYTE   An1
 BYTE   N05  Fs3
 BYTE   W03
 BYTE   PAN   c_v-20
 BYTE   W01
 BYTE   Gn1
 BYTE   W02
 BYTE   Fs1
 BYTE   N05  Cs3
 BYTE   W01
 BYTE   PAN   c_v-23
 BYTE   W02
 BYTE   En1
 BYTE   W01
 BYTE   Ds1
 BYTE   W02
// 032   ----------------------------------------
 BYTE   Dn1
 BYTE   N05  As2
 BYTE   W01
 BYTE   PAN   c_v-27
 BYTE   W02
 BYTE   Cn1
 BYTE   W01
 BYTE   Bn0
 BYTE   W01
 BYTE   As0
 BYTE   W01
 BYTE   As0
 BYTE   N05  Gs2
 BYTE   W03
 BYTE   PAN   c_v-29
 BYTE   W01
 BYTE   Cn1
 BYTE   W02
 BYTE   Cs1
 BYTE   N05  Bn2
 BYTE   W01
 BYTE   PAN   c_v-26
 BYTE   W02
 BYTE   Ds1
 BYTE   W01
 BYTE   En1
 BYTE   W02
 BYTE   Fn1
 BYTE   N05  Ds3
 BYTE   W01
 BYTE   PAN   c_v-22
 BYTE   W02
 BYTE   Gn1
 BYTE   W01
 BYTE   Gs1
 BYTE   W02
 BYTE   An1
 BYTE   N05  Gs3
 BYTE   W01
 BYTE   PAN   c_v-18
 BYTE   W02
 BYTE   Bn1
 BYTE   W01
 BYTE   Cn2
 BYTE   W02
 BYTE   Cs2
 BYTE   N05  Bn3
 BYTE   W01
 BYTE   PAN   c_v-14
 BYTE   W03
 BYTE   Ds2
 BYTE   W02
 BYTE   En2
 BYTE   N05  Ds4
 BYTE   W01
 BYTE   PAN   c_v-11
 BYTE   W02
 BYTE   Fs2
 BYTE   W01
 BYTE   Gn2
 BYTE   W02
 BYTE   Gs2
 BYTE   N05  Gs4
 BYTE   W01
 BYTE   PAN   c_v-7
 BYTE   W02
 BYTE   As2
 BYTE   W01
 BYTE   Bn2
 BYTE   W02
 BYTE   Cn3
 BYTE   N05  Bn4
 BYTE   W01
 BYTE   PAN   c_v-3
 BYTE   W02
 BYTE   Dn3
 BYTE   W01
 BYTE   Ds3
 BYTE   W02
 BYTE   En3
 BYTE   N05  Gs4
 BYTE   W01
 BYTE   PAN   c_v+1
 BYTE   W02
 BYTE   Fs3
 BYTE   W03
 BYTE   Gn3
 BYTE   N05  Ds4
 BYTE   W01
 BYTE   PAN   c_v+4
 BYTE   W02
 BYTE   An3
 BYTE   W01
 BYTE   As3
 BYTE   W02
 BYTE   Bn3
 BYTE   N05  Bn3
 BYTE   W01
 BYTE   PAN   c_v+8
 BYTE   W02
 BYTE   Cs4
 BYTE   W01
 BYTE   Dn4
 BYTE   W02
 BYTE   Ds4
 BYTE   N05  Gs3
 BYTE   W01
 BYTE   PAN   c_v+12
 BYTE   W02
 BYTE   Fn4
 BYTE   W01
 BYTE   Fs4
 BYTE   W02
 BYTE   Gn4
 BYTE   N05  Ds3
 BYTE   W01
 BYTE   PAN   c_v+16
 BYTE   W02
 BYTE   An4
 BYTE   W01
 BYTE   As4
 BYTE   W02
 BYTE   Bn4
 BYTE   N05  Bn2
 BYTE   W03
 BYTE   PAN   c_v+20
 BYTE   W01
 BYTE   Cs5
 BYTE   W02
 BYTE   Dn5
 BYTE   N05  Gs2
 BYTE   W01
 BYTE   PAN   c_v+23
 BYTE   W02
 BYTE   En5
 BYTE   W01
 BYTE   Fn5
 BYTE   W02
// 033   ----------------------------------------
 BYTE   Fs5
 BYTE   N05  Dn2
 BYTE   W01
 BYTE   PAN   c_v+27
 BYTE   W02
 BYTE   Gs5
 BYTE   W01
 BYTE   An5
 BYTE   W01
 BYTE   As5
 BYTE   W01
 BYTE   As5
 BYTE   N05  Fn2
 BYTE   W03
 BYTE   PAN   c_v+29
 BYTE   W01
 BYTE   Gs5
 BYTE   W02
 BYTE   Gn5
 BYTE   N05  As2
 BYTE   W01
 BYTE   PAN   c_v+26
 BYTE   W02
 BYTE   Fn5
 BYTE   W01
 BYTE   En5
 BYTE   W02
 BYTE   Ds5
 BYTE   N05  Dn3
 BYTE   W01
 BYTE   PAN   c_v+22
 BYTE   W02
 BYTE   Cs5
 BYTE   W01
 BYTE   Cn5
 BYTE   W02
 BYTE   Bn4
 BYTE   N05  Fn3
 BYTE   W01
 BYTE   PAN   c_v+18
 BYTE   W02
 BYTE   An4
 BYTE   W01
 BYTE   Gs4
 BYTE   W02
 BYTE   Gn4
 BYTE   N05  As3
 BYTE   W01
 BYTE   PAN   c_v+14
 BYTE   W03
 BYTE   Fn4
 BYTE   W02
 BYTE   En4
 BYTE   N05  Dn4
 BYTE   W01
 BYTE   PAN   c_v+11
 BYTE   W02
 BYTE   Dn4
 BYTE   W01
 BYTE   Cs4
 BYTE   W02
 BYTE   Cn4
 BYTE   N05  Fn4
 BYTE   W01
 BYTE   PAN   c_v+7
 BYTE   W02
 BYTE   As3
 BYTE   W01
 BYTE   An3
 BYTE   W02
 BYTE   Gs3
 BYTE   N05  As4
 BYTE   W01
 BYTE   PAN   c_v+3
 BYTE   W02
 BYTE   Fs3
 BYTE   W01
 BYTE   Fn3
 BYTE   W02
 BYTE   En3
 BYTE   N05  Fn2
 BYTE   W01
 BYTE   PAN   c_v-1
 BYTE   W02
 BYTE   Dn3
 BYTE   W03
 BYTE   Cs3
 BYTE   N05  As2
 BYTE   W01
 BYTE   PAN   c_v-4
 BYTE   W02
 BYTE   Bn2
 BYTE   W01
 BYTE   As2
 BYTE   W02
 BYTE   An2
 BYTE   N05  Dn3
 BYTE   W01
 BYTE   PAN   c_v-8
 BYTE   W02
 BYTE   Gn2
 BYTE   W01
 BYTE   Fs2
 BYTE   W02
 BYTE   Fn2
 BYTE   N05  Fn3
 BYTE   W01
 BYTE   PAN   c_v-12
 BYTE   W02
 BYTE   Ds2
 BYTE   W01
 BYTE   Dn2
 BYTE   W02
 BYTE   Cs2
 BYTE   N05  Gs3
 BYTE   W01
 BYTE   PAN   c_v-16
 BYTE   W02
 BYTE   Bn1
 BYTE   W01
 BYTE   As1
 BYTE   W02
 BYTE   An1
 BYTE   N05  As3
 BYTE   W03
 BYTE   PAN   c_v-20
 BYTE   W01
 BYTE   Gn1
 BYTE   W02
 BYTE   Fs1
 BYTE   N05  Fn4
 BYTE   W01
 BYTE   PAN   c_v-23
 BYTE   W02
 BYTE   En1
 BYTE   W01
 BYTE   Ds1
 BYTE   W02
// 034   ----------------------------------------
 BYTE   Dn1
 BYTE   N05  Gs4
 BYTE   W01
 BYTE   PAN   c_v-27
 BYTE   W02
 BYTE   Cn1
 BYTE   W01
 BYTE   Bn0
 BYTE   W01
 BYTE   As0
 BYTE   W01
 BYTE   As0
 BYTE   N05  An2
 BYTE   W03
 BYTE   PAN   c_v-29
 BYTE   W01
 BYTE   Cn1
 BYTE   W02
 BYTE   Cs1
 BYTE   N05  Cn3
 BYTE   W01
 BYTE   PAN   c_v-26
 BYTE   W02
 BYTE   Ds1
 BYTE   W01
 BYTE   En1
 BYTE   W02
 BYTE   Fn1
 BYTE   N05  Ds3
 BYTE   W01
 BYTE   PAN   c_v-22
 BYTE   W02
 BYTE   Gn1
 BYTE   W01
 BYTE   Gs1
 BYTE   W02
 BYTE   An1
 BYTE   N05  Fs3
 BYTE   W01
 BYTE   PAN   c_v-18
 BYTE   W02
 BYTE   Bn1
 BYTE   W01
 BYTE   Cn2
 BYTE   W02
 BYTE   Cs2
 BYTE   N05  An3
 BYTE   W01
 BYTE   PAN   c_v-14
 BYTE   W03
 BYTE   Ds2
 BYTE   W02
 BYTE   En2
 BYTE   N05  Cn4
 BYTE   W01
 BYTE   PAN   c_v-11
 BYTE   W02
 BYTE   Fs2
 BYTE   W01
 BYTE   Gn2
 BYTE   W02
 BYTE   Gs2
 BYTE   N05  Ds4
 BYTE   W01
 BYTE   PAN   c_v-7
 BYTE   W02
 BYTE   As2
 BYTE   W01
 BYTE   Bn2
 BYTE   W02
 BYTE   Cn3
 BYTE   N05  Fs4
 BYTE   W01
 BYTE   PAN   c_v-3
 BYTE   W02
 BYTE   Dn3
 BYTE   W01
 BYTE   Ds3
 BYTE   W02
 BYTE   En3
 BYTE   N42  An4
 BYTE   W01
 BYTE   PAN   c_v+1
 BYTE   W02
 BYTE   Fs3
 BYTE   W03
 BYTE   Gn3
 BYTE   W01
 BYTE   Gs3
 BYTE   W02
 BYTE   An3
 BYTE   W01
 BYTE   As3
 BYTE   W02
 BYTE   Bn3
 BYTE   W01
 BYTE   Cn4
 BYTE   W02
 BYTE   Cs4
 BYTE   W01
 BYTE   Dn4
 BYTE   W02
 BYTE   Ds4
 BYTE   W01
 BYTE   En4
 BYTE   W02
 BYTE   Fn4
 BYTE   W01
 BYTE   Fs4
 BYTE   W02
 BYTE   Gn4
 BYTE   W01
 BYTE   Gs4
 BYTE   W02
 BYTE   An4
 BYTE   W01
 BYTE   As4
 BYTE   W02
 BYTE   Bn4
 BYTE   W03
 BYTE   Cn5
 BYTE   W01
 BYTE   Cs5
 BYTE   W02
 BYTE   Dn5
 BYTE   W01
 BYTE   Ds5
 BYTE   W02
 BYTE   En5
 BYTE   W01
 BYTE   Fn5
 BYTE   W02
// 035   ----------------------------------------
 BYTE   Fs5
 BYTE   W01
 BYTE   Gn5
 BYTE   W02
 BYTE   Gs5
 BYTE   W01
 BYTE   An5
 BYTE   W01
 BYTE   As5
 BYTE   W01
 BYTE   As5
 BYTE   N05  Bn2
 BYTE   W03
 BYTE   PAN   c_v+29
 BYTE   W01
 BYTE   Gs5
 BYTE   W02
 BYTE   Gn5
 BYTE   N05  Dn3
 BYTE   W01
 BYTE   PAN   c_v+26
 BYTE   W02
 BYTE   Fn5
 BYTE   W01
 BYTE   En5
 BYTE   W02
 BYTE   Ds5
 BYTE   N05  Fn3
 BYTE   W01
 BYTE   PAN   c_v+22
 BYTE   W02
 BYTE   Cs5
 BYTE   W01
 BYTE   Cn5
 BYTE   W02
 BYTE   Bn4
 BYTE   N05  Gs3
 BYTE   W01
 BYTE   PAN   c_v+18
 BYTE   W02
 BYTE   An4
 BYTE   W01
 BYTE   Gs4
 BYTE   W02
 BYTE   Gn4
 BYTE   N05  Bn3
 BYTE   W01
 BYTE   PAN   c_v+14
 BYTE   W03
 BYTE   Fn4
 BYTE   W02
 BYTE   En4
 BYTE   N05  Dn4
 BYTE   W01
 BYTE   PAN   c_v+11
 BYTE   W02
 BYTE   Dn4
 BYTE   W01
 BYTE   Cs4
 BYTE   W02
 BYTE   Cn4
 BYTE   N05  Fn4
 BYTE   W01
 BYTE   PAN   c_v+7
 BYTE   W02
 BYTE   As3
 BYTE   W01
 BYTE   An3
 BYTE   W02
 BYTE   Gs3
 BYTE   N05  Gs4
 BYTE   W01
 BYTE   PAN   c_v+3
 BYTE   W02
 BYTE   Fs3
 BYTE   W01
 BYTE   Fn3
 BYTE   W02
 BYTE   En3
 BYTE   N42  Bn4
 BYTE   W01
 BYTE   PAN   c_v-1
 BYTE   W02
 BYTE   Dn3
 BYTE   W03
 BYTE   Cs3
 BYTE   W01
 BYTE   Cn3
 BYTE   W02
 BYTE   Bn2
 BYTE   W01
 BYTE   As2
 BYTE   W02
 BYTE   An2
 BYTE   W01
 BYTE   Gs2
 BYTE   W02
 BYTE   Gn2
 BYTE   W01
 BYTE   Fs2
 BYTE   W02
 BYTE   Fn2
 BYTE   W01
 BYTE   En2
 BYTE   W02
 BYTE   Ds2
 BYTE   W01
 BYTE   Dn2
 BYTE   W02
 BYTE   Cs2
 BYTE   W01
 BYTE   Cn2
 BYTE   W02
 BYTE   Bn1
 BYTE   W01
 BYTE   As1
 BYTE   W02
 BYTE   An1
 BYTE   W03
 BYTE   Gs1
 BYTE   W01
 BYTE   Gn1
 BYTE   W02
 BYTE   Fs1
 BYTE   W01
 BYTE   Fn1
 BYTE   W02
 BYTE   En1
 BYTE   W01
 BYTE   Ds1
 BYTE   W02
// 036   ----------------------------------------
 BYTE   Dn1
 BYTE   W01
 BYTE   Cs1
 BYTE   W02
 BYTE   Cn1
 BYTE   W01
 BYTE   Bn0
 BYTE   W01
 BYTE   As0
 BYTE   W01
 BYTE   As0
 BYTE   N05  Fs2
 BYTE   W03
 BYTE   PAN   c_v-29
 BYTE   W01
 BYTE   Cn1
 BYTE   W02
 BYTE   Cs1
 BYTE   N05  As2
 BYTE   W01
 BYTE   PAN   c_v-26
 BYTE   W02
 BYTE   Ds1
 BYTE   W01
 BYTE   En1
 BYTE   W02
 BYTE   Fn1
 BYTE   N05  Ds3
 BYTE   W01
 BYTE   PAN   c_v-22
 BYTE   W02
 BYTE   Gn1
 BYTE   W01
 BYTE   Gs1
 BYTE   W02
 BYTE   An1
 BYTE   N05  Fs3
 BYTE   W01
 BYTE   PAN   c_v-18
 BYTE   W02
 BYTE   Bn1
 BYTE   W01
 BYTE   Cn2
 BYTE   W02
 BYTE   Cs2
 BYTE   N05  As3
 BYTE   W01
 BYTE   PAN   c_v-14
 BYTE   W03
 BYTE   Ds2
 BYTE   W02
 BYTE   En2
 BYTE   N05  Ds4
 BYTE   W01
 BYTE   PAN   c_v-11
 BYTE   W02
 BYTE   Fs2
 BYTE   W01
 BYTE   Gn2
 BYTE   W02
 BYTE   Gs2
 BYTE   N05  Fs4
 BYTE   W01
 BYTE   PAN   c_v-7
 BYTE   W02
 BYTE   As2
 BYTE   W01
 BYTE   Bn2
 BYTE   W02
 BYTE   Cn3
 BYTE   N05  As4
 BYTE   W01
 BYTE   PAN   c_v-3
 BYTE   W02
 BYTE   Dn3
 BYTE   W01
 BYTE   Ds3
 BYTE   W02
 BYTE   En3
 BYTE   N05  Cn5
 BYTE   W01
 BYTE   PAN   c_v+1
 BYTE   W02
 BYTE   Fs3
 BYTE   W03
 BYTE   Gn3
 BYTE   N05  An4
 BYTE   W01
 BYTE   PAN   c_v+4
 BYTE   W02
 BYTE   An3
 BYTE   W01
 BYTE   As3
 BYTE   W02
 BYTE   Bn3
 BYTE   N05  Fn4
 BYTE   W01
 BYTE   PAN   c_v+8
 BYTE   W02
 BYTE   Cs4
 BYTE   W01
 BYTE   Dn4
 BYTE   W02
 BYTE   Ds4
 BYTE   N05  Cn4
 BYTE   W01
 BYTE   PAN   c_v+12
 BYTE   W02
 BYTE   Fn4
 BYTE   W01
 BYTE   Fs4
 BYTE   W02
 BYTE   Gn4
 BYTE   N05  An3
 BYTE   W01
 BYTE   PAN   c_v+16
 BYTE   W02
 BYTE   An4
 BYTE   W01
 BYTE   As4
 BYTE   W02
 BYTE   Bn4
 BYTE   N05  Fn3
 BYTE   W03
 BYTE   PAN   c_v+20
 BYTE   W01
 BYTE   Cs5
 BYTE   W02
 BYTE   Dn5
 BYTE   N05  Cn3
 BYTE   W01
 BYTE   PAN   c_v+23
 BYTE   W02
 BYTE   En5
 BYTE   W01
 BYTE   Fn5
 BYTE   W02
// 037   ----------------------------------------
 BYTE   PATT
  POIN2 Label_7_0165D4CE
// 038   ----------------------------------------
 BYTE   PATT
  POIN2 Label_7_0165D57B
// 039   ----------------------------------------
 BYTE   PATT
  POIN2 Label_7_0165D628
// 040   ----------------------------------------
 BYTE   PATT
  POIN2 Label_7_0165D6D5
// 041   ----------------------------------------
 BYTE   PATT
  POIN2 Label_7_0165D4CE
// 042   ----------------------------------------
 BYTE   PATT
  POIN2 Label_7_0165D57B
// 043   ----------------------------------------
 BYTE   PATT
  POIN2 Label_7_0165D78C
// 044   ----------------------------------------
 BYTE   PAN   c_v-26
 BYTE   W01
 BYTE   Cs1
 BYTE   W02
 BYTE   Cn1
 BYTE   W01
 BYTE   Bn0
 BYTE   W01
 BYTE   As0
 BYTE   W01
 BYTE   As0
 BYTE   N05  Gs2  v088
 BYTE   W03
 BYTE   PAN   c_v-29
 BYTE   W01
 BYTE   Cn1
 BYTE   W02
 BYTE   Cs1
 BYTE   N05  Bn2
 BYTE   W01
 BYTE   PAN   c_v-26
 BYTE   W02
 BYTE   Ds1
 BYTE   W01
 BYTE   En1
 BYTE   W02
 BYTE   Fn1
 BYTE   N05  Ds3
 BYTE   W01
 BYTE   PAN   c_v-22
 BYTE   W02
 BYTE   Gn1
 BYTE   W01
 BYTE   Gs1
 BYTE   W02
 BYTE   An1
 BYTE   N05  Fs3
 BYTE   W01
 BYTE   PAN   c_v-18
 BYTE   W02
 BYTE   Bn1
 BYTE   W01
 BYTE   Cn2
 BYTE   W02
 BYTE   Cs2
 BYTE   N05  Gs3
 BYTE   W01
 BYTE   PAN   c_v-14
 BYTE   W03
 BYTE   Ds2
 BYTE   W02
 BYTE   En2
 BYTE   N05  Bn3
 BYTE   W01
 BYTE   PAN   c_v-11
 BYTE   W02
 BYTE   Fs2
 BYTE   W01
 BYTE   Gn2
 BYTE   W02
 BYTE   Gs2
 BYTE   N05  Ds4
 BYTE   W01
 BYTE   PAN   c_v-7
 BYTE   W02
 BYTE   As2
 BYTE   W01
 BYTE   Bn2
 BYTE   W02
 BYTE   Cn3
 BYTE   N05  Fs4
 BYTE   W01
 BYTE   PAN   c_v-3
 BYTE   W02
 BYTE   Dn3
 BYTE   W01
 BYTE   Ds3
 BYTE   W02
 BYTE   En3
 BYTE   N42  Gs4
 BYTE   W01
 BYTE   PAN   c_v+1
 BYTE   W02
 BYTE   Fs3
 BYTE   W03
 BYTE   Gn3
 BYTE   W01
 BYTE   Gs3
 BYTE   W02
 BYTE   An3
 BYTE   W01
 BYTE   As3
 BYTE   W02
 BYTE   Bn3
 BYTE   W01
 BYTE   Cn4
 BYTE   W02
 BYTE   Cs4
 BYTE   W01
 BYTE   Dn4
 BYTE   W02
 BYTE   Ds4
 BYTE   W01
 BYTE   En4
 BYTE   W02
 BYTE   Fn4
 BYTE   W01
 BYTE   Fs4
 BYTE   W02
 BYTE   Gn4
 BYTE   W01
 BYTE   Gs4
 BYTE   W02
 BYTE   An4
 BYTE   W01
 BYTE   As4
 BYTE   W02
 BYTE   Bn4
 BYTE   W03
 BYTE   Cn5
 BYTE   W01
 BYTE   Cs5
 BYTE   W02
 BYTE   Dn5
 BYTE   W01
 BYTE   Ds5
 BYTE   W02
 BYTE   En5
 BYTE   W01
 BYTE   Fn5
 BYTE   W02
// 045   ----------------------------------------
 BYTE   Fs5
 BYTE   W01
 BYTE   Gn5
 BYTE   W02
 BYTE   Gs5
 BYTE   W01
 BYTE   An5
 BYTE   W01
 BYTE   As5
 BYTE   W01
 BYTE   As5
 BYTE   N05  As2
 BYTE   W03
 BYTE   PAN   c_v+29
 BYTE   W01
 BYTE   Gs5
 BYTE   W02
 BYTE   Gn5
 BYTE   N05  Dn3
 BYTE   W01
 BYTE   PAN   c_v+26
 BYTE   W02
 BYTE   Fn5
 BYTE   W01
 BYTE   En5
 BYTE   W02
 BYTE   Ds5
 BYTE   N05  Fn3
 BYTE   W01
 BYTE   PAN   c_v+22
 BYTE   W02
 BYTE   Cs5
 BYTE   W01
 BYTE   Cn5
 BYTE   W02
 BYTE   Bn4
 BYTE   N05  Gs3
 BYTE   W01
 BYTE   PAN   c_v+18
 BYTE   W02
 BYTE   An4
 BYTE   W01
 BYTE   Gs4
 BYTE   W02
 BYTE   Gn4
 BYTE   N05  As3
 BYTE   W01
 BYTE   PAN   c_v+14
 BYTE   W03
 BYTE   Fn4
 BYTE   W02
 BYTE   En4
 BYTE   N05  Dn4
 BYTE   W01
 BYTE   PAN   c_v+11
 BYTE   W02
 BYTE   Dn4
 BYTE   W01
 BYTE   Cs4
 BYTE   W02
 BYTE   Cn4
 BYTE   N05  Fn4
 BYTE   W01
 BYTE   PAN   c_v+7
 BYTE   W02
 BYTE   As3
 BYTE   W01
 BYTE   An3
 BYTE   W02
 BYTE   Gs3
 BYTE   N05  Gs4
 BYTE   W01
 BYTE   PAN   c_v+3
 BYTE   W02
 BYTE   Fs3
 BYTE   W01
 BYTE   Fn3
 BYTE   W02
 BYTE   En3
 BYTE   N42  As4
 BYTE   W01
 BYTE   PAN   c_v-1
 BYTE   W02
 BYTE   Dn3
 BYTE   W03
 BYTE   Cs3
 BYTE   W01
 BYTE   Cn3
 BYTE   W02
 BYTE   Bn2
 BYTE   W01
 BYTE   As2
 BYTE   W02
 BYTE   An2
 BYTE   W01
 BYTE   Gs2
 BYTE   W02
 BYTE   Gn2
 BYTE   W01
 BYTE   Fs2
 BYTE   W02
 BYTE   Fn2
 BYTE   W01
 BYTE   En2
 BYTE   W02
 BYTE   Ds2
 BYTE   W01
 BYTE   Dn2
 BYTE   W02
 BYTE   Cs2
 BYTE   W01
 BYTE   Cn2
 BYTE   W02
 BYTE   Bn1
 BYTE   W01
 BYTE   As1
 BYTE   W02
 BYTE   An1
 BYTE   W03
 BYTE   Gs1
 BYTE   W01
 BYTE   Gn1
 BYTE   W02
 BYTE   Fs1
 BYTE   W01
 BYTE   Fn1
 BYTE   W02
 BYTE   En1
 BYTE   W01
 BYTE   Ds1
 BYTE   W02
// 046   ----------------------------------------
 BYTE   Dn1
 BYTE   W01
 BYTE   Cs1
 BYTE   W02
 BYTE   Cn1
 BYTE   W01
 BYTE   Bn0
 BYTE   W01
 BYTE   As0
 BYTE   W01
 BYTE   As0
 BYTE   N05  Fn2
 BYTE   W03
 BYTE   PAN   c_v-29
 BYTE   W01
 BYTE   Cn1
 BYTE   W02
 BYTE   Cs1
 BYTE   N05  Gs2
 BYTE   W01
 BYTE   PAN   c_v-26
 BYTE   W02
 BYTE   Ds1
 BYTE   W01
 BYTE   En1
 BYTE   W02
 BYTE   Fn1
 BYTE   N05  Bn2
 BYTE   W01
 BYTE   PAN   c_v-22
 BYTE   W02
 BYTE   Gn1
 BYTE   W01
 BYTE   Gs1
 BYTE   W02
 BYTE   An1
 BYTE   N05  Ds3
 BYTE   W01
 BYTE   PAN   c_v-18
 BYTE   W02
 BYTE   Bn1
 BYTE   W01
 BYTE   Cn2
 BYTE   W02
 BYTE   Cs2
 BYTE   N05  Fn3
 BYTE   W01
 BYTE   PAN   c_v-14
 BYTE   W03
 BYTE   Ds2
 BYTE   W02
 BYTE   En2
 BYTE   N05  Gs3
 BYTE   W01
 BYTE   PAN   c_v-11
 BYTE   W02
 BYTE   Fs2
 BYTE   W01
 BYTE   Gn2
 BYTE   W02
 BYTE   Gs2
 BYTE   N05  Bn3
 BYTE   W01
 BYTE   PAN   c_v-7
 BYTE   W02
 BYTE   As2
 BYTE   W01
 BYTE   Bn2
 BYTE   W02
 BYTE   Cn3
 BYTE   N05  Ds4
 BYTE   W01
 BYTE   PAN   c_v-3
 BYTE   W02
 BYTE   Dn3
 BYTE   W01
 BYTE   Ds3
 BYTE   W02
 BYTE   En3
 BYTE   N42  Fn4
 BYTE   W01
 BYTE   PAN   c_v+1
 BYTE   W02
 BYTE   Fs3
 BYTE   W03
 BYTE   Gn3
 BYTE   W01
 BYTE   Gs3
 BYTE   W02
 BYTE   An3
 BYTE   W01
 BYTE   As3
 BYTE   W02
 BYTE   Bn3
 BYTE   W01
 BYTE   Cn4
 BYTE   W02
 BYTE   Cs4
 BYTE   W01
 BYTE   Dn4
 BYTE   W02
 BYTE   Ds4
 BYTE   W01
 BYTE   En4
 BYTE   W02
 BYTE   Fn4
 BYTE   W01
 BYTE   Fs4
 BYTE   W02
 BYTE   Gn4
 BYTE   W01
 BYTE   Gs4
 BYTE   W02
 BYTE   An4
 BYTE   W01
 BYTE   As4
 BYTE   W02
 BYTE   Bn4
 BYTE   W03
 BYTE   Cn5
 BYTE   W01
 BYTE   Cs5
 BYTE   W02
 BYTE   Dn5
 BYTE   W01
 BYTE   Ds5
 BYTE   W02
 BYTE   En5
 BYTE   W01
 BYTE   Fn5
 BYTE   W02
// 047   ----------------------------------------
 BYTE   Fs5
 BYTE   W01
 BYTE   Gn5
 BYTE   W02
 BYTE   Gs5
 BYTE   W01
 BYTE   An5
 BYTE   W01
 BYTE   As5
 BYTE   W01
 BYTE   As5
 BYTE   N05  Ds2
 BYTE   W03
 BYTE   PAN   c_v+29
 BYTE   W01
 BYTE   Gs5
 BYTE   W02
 BYTE   Gn5
 BYTE   N05  Fs2
 BYTE   W01
 BYTE   PAN   c_v+26
 BYTE   W02
 BYTE   Fn5
 BYTE   W01
 BYTE   En5
 BYTE   W02
 BYTE   Ds5
 BYTE   N05  As2
 BYTE   W01
 BYTE   PAN   c_v+22
 BYTE   W02
 BYTE   Cs5
 BYTE   W01
 BYTE   Cn5
 BYTE   W02
 BYTE   Bn4
 BYTE   N05  Ds3
 BYTE   W01
 BYTE   PAN   c_v+18
 BYTE   W02
 BYTE   An4
 BYTE   W01
 BYTE   Gs4
 BYTE   W02
 BYTE   Gn4
 BYTE   N05  Fs3
 BYTE   W01
 BYTE   PAN   c_v+14
 BYTE   W03
 BYTE   Fn4
 BYTE   W02
 BYTE   En4
 BYTE   N05  As3
 BYTE   W01
 BYTE   PAN   c_v+11
 BYTE   W02
 BYTE   Dn4
 BYTE   W01
 BYTE   Cs4
 BYTE   W02
 BYTE   Cn4
 BYTE   N05  Ds4
 BYTE   W01
 BYTE   PAN   c_v+7
 BYTE   W02
 BYTE   As3
 BYTE   W01
 BYTE   An3
 BYTE   W02
 BYTE   Gs3
 BYTE   N05  Fs4
 BYTE   W01
 BYTE   PAN   c_v+3
 BYTE   W02
 BYTE   Fs3
 BYTE   W01
 BYTE   Fn3
 BYTE   W02
 BYTE   En3
 BYTE   N42  As4
 BYTE   W01
 BYTE   PAN   c_v-1
 BYTE   W02
 BYTE   Dn3
 BYTE   W03
 BYTE   Cs3
 BYTE   W01
 BYTE   Cn3
 BYTE   W02
 BYTE   Bn2
 BYTE   W01
 BYTE   As2
 BYTE   W02
 BYTE   An2
 BYTE   W01
 BYTE   Gs2
 BYTE   W02
 BYTE   Gn2
 BYTE   W01
 BYTE   Fs2
 BYTE   W02
 BYTE   Fn2
 BYTE   W01
 BYTE   En2
 BYTE   W02
 BYTE   Ds2
 BYTE   W01
 BYTE   Dn2
 BYTE   W02
 BYTE   Cs2
 BYTE   W01
 BYTE   Cn2
 BYTE   W02
 BYTE   Bn1
 BYTE   W01
 BYTE   As1
 BYTE   W02
 BYTE   An1
 BYTE   W03
 BYTE   Gs1
 BYTE   W01
 BYTE   Gn1
 BYTE   W02
 BYTE   Fs1
 BYTE   W01
 BYTE   Fn1
 BYTE   W02
 BYTE   En1
 BYTE   W01
 BYTE   Ds1
 BYTE   W02
// 048   ----------------------------------------
 BYTE   Dn1
 BYTE   W01
 BYTE   Cs1
 BYTE   W02
 BYTE   Cn1
 BYTE   W01
 BYTE   Bn0
 BYTE   W01
 BYTE   As0
 BYTE   W01
 BYTE   As0
 BYTE   N05  Gs2
 BYTE   W03
 BYTE   PAN   c_v-29
 BYTE   W01
 BYTE   Cn1
 BYTE   W02
 BYTE   Cs1
 BYTE   N05  Bn2
 BYTE   W01
 BYTE   PAN   c_v-26
 BYTE   W02
 BYTE   Ds1
 BYTE   W01
 BYTE   En1
 BYTE   W02
 BYTE   Fn1
 BYTE   N05  Ds3
 BYTE   W01
 BYTE   PAN   c_v-22
 BYTE   W02
 BYTE   Gn1
 BYTE   W01
 BYTE   Gs1
 BYTE   W02
 BYTE   An1
 BYTE   N05  Gs3
 BYTE   W01
 BYTE   PAN   c_v-18
 BYTE   W02
 BYTE   Bn1
 BYTE   W01
 BYTE   Cn2
 BYTE   W02
 BYTE   Cs2
 BYTE   N05  Bn3
 BYTE   W01
 BYTE   PAN   c_v-14
 BYTE   W03
 BYTE   Ds2
 BYTE   W02
 BYTE   En2
 BYTE   N05  Ds4
 BYTE   W01
 BYTE   PAN   c_v-11
 BYTE   W02
 BYTE   Fs2
 BYTE   W01
 BYTE   Gn2
 BYTE   W02
 BYTE   Gs2
 BYTE   N05  Gs4
 BYTE   W01
 BYTE   PAN   c_v-7
 BYTE   W02
 BYTE   As2
 BYTE   W01
 BYTE   Bn2
 BYTE   W02
 BYTE   Cn3
 BYTE   N05  Bn4
 BYTE   W01
 BYTE   PAN   c_v-3
 BYTE   W02
 BYTE   Dn3
 BYTE   W01
 BYTE   Ds3
 BYTE   W02
 BYTE   En3
 BYTE   N05  As4
 BYTE   W01
 BYTE   PAN   c_v+1
 BYTE   W02
 BYTE   Fs3
 BYTE   W03
 BYTE   Gn3
 BYTE   N05  Fs4
 BYTE   W01
 BYTE   PAN   c_v+4
 BYTE   W02
 BYTE   An3
 BYTE   W01
 BYTE   As3
 BYTE   W02
 BYTE   Bn3
 BYTE   N05  Cs4
 BYTE   W01
 BYTE   PAN   c_v+8
 BYTE   W02
 BYTE   Cs4
 BYTE   W01
 BYTE   Dn4
 BYTE   W02
 BYTE   Ds4
 BYTE   N05  As3
 BYTE   W01
 BYTE   PAN   c_v+12
 BYTE   W02
 BYTE   Fn4
 BYTE   W01
 BYTE   Fs4
 BYTE   W02
 BYTE   Gn4
 BYTE   N05  Fs3
 BYTE   W01
 BYTE   PAN   c_v+16
 BYTE   W02
 BYTE   An4
 BYTE   W01
 BYTE   As4
 BYTE   W02
 BYTE   Bn4
 BYTE   N05  Cs3
 BYTE   W03
 BYTE   PAN   c_v+20
 BYTE   W01
 BYTE   Cs5
 BYTE   W02
 BYTE   Dn5
 BYTE   N05  As2
 BYTE   W01
 BYTE   PAN   c_v+23
 BYTE   W02
 BYTE   En5
 BYTE   W01
 BYTE   Fn5
 BYTE   W02
// 049   ----------------------------------------
 BYTE   Fs5
 BYTE   N05  Fs2
 BYTE   W01
 BYTE   PAN   c_v+27
 BYTE   W02
 BYTE   Gs5
 BYTE   W01
 BYTE   An5
 BYTE   W01
 BYTE   As5
 BYTE   W01
 BYTE   As5
 BYTE   N05  Fn2
 BYTE   W03
 BYTE   PAN   c_v+29
 BYTE   W01
 BYTE   Gs5
 BYTE   W02
 BYTE   Gn5
 BYTE   N05  An2
 BYTE   W01
 BYTE   PAN   c_v+26
 BYTE   W02
 BYTE   Fn5
 BYTE   W01
 BYTE   En5
 BYTE   W02
 BYTE   Ds5
 BYTE   N05  Cn3
 BYTE   W01
 BYTE   PAN   c_v+22
 BYTE   W02
 BYTE   Cs5
 BYTE   W01
 BYTE   Cn5
 BYTE   W02
 BYTE   Bn4
 BYTE   N05  Fn3
 BYTE   W01
 BYTE   PAN   c_v+18
 BYTE   W02
 BYTE   An4
 BYTE   W01
 BYTE   Gs4
 BYTE   W02
 BYTE   Gn4
 BYTE   N05  An3
 BYTE   W01
 BYTE   PAN   c_v+14
 BYTE   W03
 BYTE   Fn4
 BYTE   W02
 BYTE   En4
 BYTE   N05  Cn4
 BYTE   W01
 BYTE   PAN   c_v+11
 BYTE   W02
 BYTE   Dn4
 BYTE   W01
 BYTE   Cs4
 BYTE   W02
 BYTE   Cn4
 BYTE   N05  Fn4
 BYTE   W01
 BYTE   PAN   c_v+7
 BYTE   W02
 BYTE   As3
 BYTE   W01
 BYTE   An3
 BYTE   W02
 BYTE   Gs3
 BYTE   N05  An4
 BYTE   W01
 BYTE   PAN   c_v+3
 BYTE   W02
 BYTE   Fs3
 BYTE   W01
 BYTE   Fn3
 BYTE   W02
 BYTE   En3
 BYTE   N42  As4
 BYTE   W01
 BYTE   PAN   c_v-1
 BYTE   W02
 BYTE   Dn3
 BYTE   W03
 BYTE   Cs3
 BYTE   W01
 BYTE   Cn3
 BYTE   W02
 BYTE   Bn2
 BYTE   W01
 BYTE   As2
 BYTE   W02
 BYTE   An2
 BYTE   W01
 BYTE   Gs2
 BYTE   W02
 BYTE   Gn2
 BYTE   W01
 BYTE   Fs2
 BYTE   W02
 BYTE   Fn2
 BYTE   W01
 BYTE   En2
 BYTE   W02
 BYTE   Ds2
 BYTE   W01
 BYTE   Dn2
 BYTE   W02
 BYTE   Cs2
 BYTE   W01
 BYTE   Cn2
 BYTE   W02
 BYTE   Bn1
 BYTE   W01
 BYTE   As1
 BYTE   W02
 BYTE   An1
 BYTE   W03
 BYTE   Gs1
 BYTE   W01
 BYTE   Gn1
 BYTE   W02
 BYTE   Fs1
 BYTE   W01
 BYTE   Fn1
 BYTE   W02
 BYTE   En1
 BYTE   W01
 BYTE   Ds1
 BYTE   W02
// 050   ----------------------------------------
 BYTE   Dn1
 BYTE   W01
 BYTE   Cs1
 BYTE   W02
 BYTE   Cn1
 BYTE   W01
 BYTE   Bn0
 BYTE   W01
 BYTE   As0
 BYTE   W90
 BYTE   W01
// 051   ----------------------------------------
 BYTE   W96
// 052   ----------------------------------------
 BYTE   W96
// 053   ----------------------------------------
 BYTE   W96
// 054   ----------------------------------------
 BYTE   W96
// 055   ----------------------------------------
 BYTE   W06
 BYTE   As5
 BYTE   W03
 BYTE   An5
 BYTE   W01
 BYTE   Gs5
 BYTE   W02
 BYTE   Gn5
 BYTE   W01
 BYTE   Fs5
 BYTE   W02
 BYTE   Fn5
 BYTE   W01
 BYTE   En5
 BYTE   W02
 BYTE   Ds5
 BYTE   W01
 BYTE   Dn5
 BYTE   W02
 BYTE   Cs5
 BYTE   W01
 BYTE   Cn5
 BYTE   W02
 BYTE   Bn4
 BYTE   W01
 BYTE   As4
 BYTE   W02
 BYTE   An4
 BYTE   W01
 BYTE   Gs4
 BYTE   W02
 BYTE   Gn4
 BYTE   W01
 BYTE   Fs4
 BYTE   W03
 BYTE   Fn4
 BYTE   W02
 BYTE   En4
 BYTE   W01
 BYTE   Ds4
 BYTE   W02
 BYTE   Dn4
 BYTE   W01
 BYTE   Cs4
 BYTE   W02
 BYTE   Cn4
 BYTE   W01
 BYTE   Bn3
 BYTE   W02
 BYTE   As3
 BYTE   W01
 BYTE   An3
 BYTE   W02
 BYTE   Gs3
 BYTE   W01
 BYTE   Gn3
 BYTE   W02
 BYTE   Fs3
 BYTE   W01
 BYTE   Fn3
 BYTE   W02
 BYTE   En3
 BYTE   N05  Fn2
 BYTE   W01
 BYTE   PAN   c_v-1
 BYTE   W02
 BYTE   Dn3
 BYTE   W03
 BYTE   Cs3
 BYTE   N05  As2
 BYTE   W01
 BYTE   PAN   c_v-4
 BYTE   W02
 BYTE   Bn2
 BYTE   W01
 BYTE   As2
 BYTE   W02
 BYTE   An2
 BYTE   N05  Dn3
 BYTE   W01
 BYTE   PAN   c_v-8
 BYTE   W02
 BYTE   Gn2
 BYTE   W01
 BYTE   Fs2
 BYTE   W02
 BYTE   Fn2
 BYTE   N05  Fn3
 BYTE   W01
 BYTE   PAN   c_v-12
 BYTE   W02
 BYTE   Ds2
 BYTE   W01
 BYTE   Dn2
 BYTE   W02
 BYTE   Cs2
 BYTE   N05  As3
 BYTE   W01
 BYTE   PAN   c_v-16
 BYTE   W02
 BYTE   Bn1
 BYTE   W01
 BYTE   As1
 BYTE   W02
 BYTE   An1
 BYTE   N05  Dn4
 BYTE   W03
 BYTE   PAN   c_v-20
 BYTE   W01
 BYTE   Gn1
 BYTE   W02
 BYTE   Fs1
 BYTE   N05  Fn4
 BYTE   W01
 BYTE   PAN   c_v-23
 BYTE   W02
 BYTE   En1
 BYTE   W01
 BYTE   Ds1
 BYTE   W02
// 056   ----------------------------------------
 BYTE   Dn1
 BYTE   N05  As4
 BYTE   W01
 BYTE   PAN   c_v-27
 BYTE   W02
 BYTE   Cn1
 BYTE   W01
 BYTE   Bn0
 BYTE   W01
 BYTE   As0
 BYTE   W01
 BYTE   GoTo
  POIN2 Label_7_0165D42F
 BYTE   FINE

//**************** Track 9 (Midi-Chn.8) ****************//

RomancingSaga3FourNobleDevilPart1BigMood_009:
// 000   ----------------------------------------
 BYTE   KEYSH   RomancingSaga3FourNobleDevilPart1BigMood_key+0
 BYTE   MODT 0
 BYTE   LFOS 44
 BYTE   BENDR  127
 BYTE   PAN   c_v-64
 BYTE   VOL   0*RomancingSaga3FourNobleDevilPart1BigMood_mvl/mxv
 BYTE   MOD 64
 BYTE   W06
 BYTE   VOICE   116
 BYTE   VOL   75*RomancingSaga3FourNobleDevilPart1BigMood_mvl/mxv
 BYTE   PAN   c_v+0
 BYTE   VOL   75*RomancingSaga3FourNobleDevilPart1BigMood_mvl/mxv
 BYTE   BENDR  0
 BYTE   MOD 0
 BYTE   N84  Cn1  v072
 BYTE   N84  Cs2
 BYTE   W36
 BYTE   N05  Dn1
 BYTE   W06
 BYTE   N05
 BYTE   W06
 BYTE   N42
 BYTE   N05  Dn2
 BYTE   W06
 BYTE   N05
 BYTE   W06
 BYTE   N05
 BYTE   W06
 BYTE   Bn1
 BYTE   W06
 BYTE   N05
 BYTE   W06
 BYTE   N05
 BYTE   W06
 BYTE   Gn1
 BYTE   W06
// 001   ----------------------------------------
 BYTE   N05
 BYTE   W06
 BYTE   N84  Cn1
 BYTE   N84  An2
 BYTE   W36
 BYTE   N05  Dn1
 BYTE   W06
 BYTE   N05
 BYTE   W06
 BYTE   N42
 BYTE   N05  Dn2
 BYTE   W06
 BYTE   N05
 BYTE   W06
 BYTE   N05
 BYTE   W06
 BYTE   Bn1
 BYTE   W06
 BYTE   N05
 BYTE   W06
 BYTE   N05
 BYTE   W06
 BYTE   Gn1
 BYTE   W06
// 002   ----------------------------------------
 BYTE   N05
 BYTE   W06
 BYTE   N42  Cn1
 BYTE   N42  Cs2
 BYTE   W24
 BYTE   N05  Dn2
 BYTE   W06
 BYTE   N05
 BYTE   W06
 BYTE   Gn1
 BYTE   W06
 BYTE   N05
 BYTE   W06
 BYTE   N42  Cn1
 BYTE   N42  An2
 BYTE   W24
 BYTE   N05  Dn2
 BYTE   W06
 BYTE   N05
 BYTE   W06
 BYTE   Gn1
 BYTE   W06
// 003   ----------------------------------------
 BYTE   N05
 BYTE   W06
 BYTE   N84  Cn1
 BYTE   N84  Cs2
 BYTE   W36
 BYTE   N05  Dn1
 BYTE   W06
 BYTE   N05
 BYTE   W06
 BYTE   N42
 BYTE   W12
 BYTE   N10  Dn2
 BYTE   W12
 BYTE   Bn1
 BYTE   W12
 BYTE   Gn1
 BYTE   W06
// 004   ----------------------------------------
 BYTE   W06
 BYTE   N42  Cn1
 BYTE   N84  Cs2
 BYTE   W36
 BYTE   N05  Gn1
 BYTE   W06
 BYTE   N05
 BYTE   W06
 BYTE   N16  Cn1
 BYTE   N05  Dn2
 BYTE   W06
 BYTE   N05
 BYTE   W06
 BYTE   N05
 BYTE   W06
 BYTE   N16  Cn1
 BYTE   N05  Bn1
 BYTE   W06
 BYTE   N05
 BYTE   W06
 BYTE   N05
 BYTE   W06
 BYTE   N10  Cn1
 BYTE   N05  Gn1
 BYTE   W06
// 005   ----------------------------------------
 BYTE   N05
 BYTE   W06
 BYTE   N42  Cn1
 BYTE   N84  An2
 BYTE   W36
 BYTE   N05  Gn1
 BYTE   W06
 BYTE   N05
 BYTE   W06
 BYTE   N16  Cn1
 BYTE   N05  Dn2
 BYTE   W06
 BYTE   N05
 BYTE   W06
 BYTE   N05
 BYTE   W06
 BYTE   N16  Cn1
 BYTE   N05  Bn1
 BYTE   W06
 BYTE   N05
 BYTE   W06
 BYTE   N05
 BYTE   W06
 BYTE   N10  Cn1
 BYTE   N05  Gn1
 BYTE   W06
// 006   ----------------------------------------
 BYTE   N05
 BYTE   W06
 BYTE   N42  Cn1
 BYTE   N42  Cs2
 BYTE   W12
 BYTE   N05  Dn2
 BYTE   W06
 BYTE   N05
 BYTE   W06
 BYTE   Bn1
 BYTE   W06
 BYTE   N05
 BYTE   W06
 BYTE   Gn1
 BYTE   W06
 BYTE   N05
 BYTE   W06
 BYTE   N42  Cn1
 BYTE   N42  An2
 BYTE   W12
 BYTE   N05  Dn2
 BYTE   W06
 BYTE   N05
 BYTE   W06
 BYTE   Bn1
 BYTE   W06
 BYTE   N05
 BYTE   W06
 BYTE   Gn1
 BYTE   W06
// 007   ----------------------------------------
 BYTE   N05
 BYTE   W06
 BYTE   N16  Dn1
 BYTE   N16  Cs2
 BYTE   W06
 BYTE   N05  Bn1
 BYTE   W06
 BYTE   Gn1
 BYTE   W06
 BYTE   N16  Dn1
 BYTE   N16  An2
 BYTE   W06
 BYTE   N05  Bn1
 BYTE   W06
 BYTE   Gn1
 BYTE   W06
 BYTE   N10  Dn1
 BYTE   N10  Cs2
 BYTE   W06
 BYTE   N05  Gn1
 BYTE   W06
 BYTE   N10  Dn1
 BYTE   W12
 BYTE   N10
 BYTE   W12
 BYTE   N05
 BYTE   W06
 BYTE   N05
 BYTE   W06
 BYTE   N05
 BYTE   W06
// 008   ----------------------------------------
 BYTE   N05
 BYTE   W06
 BYTE   N16  Cn1
 BYTE   N84  Cs2
 BYTE   W12
 BYTE   N05  Dn2
 BYTE   W06
 BYTE   N16  Cn1
 BYTE   N05  Cn2
 BYTE   W18
 BYTE   N10  Cn1
 BYTE   N05  Gn1
 BYTE   W06
 BYTE   Fn1
 BYTE   W06
 BYTE   N32  Cn1
 BYTE   W12
 BYTE   N05  Dn1
 BYTE   W06
 BYTE   N05
 BYTE   W06
 BYTE   N21
 BYTE   W18
// 009   ----------------------------------------
Label_8_0165AFC9:
 BYTE   W06
 BYTE   N16  Cn1  v072
 BYTE   W12
 BYTE   N05  Dn2
 BYTE   W06
 BYTE   N16  Cn1
 BYTE   N05  Cn2
 BYTE   W18
 BYTE   N10  Cn1
 BYTE   N05  Gn1
 BYTE   W06
 BYTE   Fn1
 BYTE   W06
 BYTE   N32  Cn1
 BYTE   W12
 BYTE   N05  Dn1
 BYTE   W06
 BYTE   N05
 BYTE   W06
 BYTE   N21
 BYTE   W18
 BYTE   PEND 
// 010   ----------------------------------------
 BYTE   PATT
  POIN2 Label_8_0165AFC9
// 011   ----------------------------------------
 BYTE   W06
 BYTE   N16  Cn1  v072
 BYTE   W12
 BYTE   N05  Dn2
 BYTE   W06
 BYTE   N16  Cn1
 BYTE   N05  Cn2
 BYTE   W18
 BYTE   N10  Cn1
 BYTE   N05  Gn1
 BYTE   W06
 BYTE   Fn1
 BYTE   W18
 BYTE   N10  Dn1
 BYTE   W12
 BYTE   N10
 BYTE   W12
 BYTE   N05
 BYTE   W06
// 012   ----------------------------------------
 BYTE   N05
 BYTE   W06
 BYTE   N16  Cn1
 BYTE   N16  Dn1
 BYTE   N16  Cs2
 BYTE   W18
 BYTE   Cn1
 BYTE   N16  Dn1
 BYTE   N16  An2
 BYTE   W18
 BYTE   N10  Cn1
 BYTE   N10  Dn1
 BYTE   N10  Cs2
 BYTE   W24
 BYTE   N05  Dn2
 BYTE   W06
 BYTE   N05
 BYTE   W06
 BYTE   Bn1
 BYTE   W06
 BYTE   N05
 BYTE   W06
 BYTE   Gn1
 BYTE   W06
// 013   ----------------------------------------
 BYTE   N05
 BYTE   W06
 BYTE   N16  Cn1
 BYTE   N16  Dn1
 BYTE   N16  Cs2
 BYTE   W18
 BYTE   Cn1
 BYTE   N16  Dn1
 BYTE   N16  An2
 BYTE   W18
 BYTE   N10  Cn1
 BYTE   N10  Dn1
 BYTE   N10  Cs2
 BYTE   W24
 BYTE   N05  Dn2
 BYTE   W06
 BYTE   N05
 BYTE   W06
 BYTE   Bn1
 BYTE   W06
 BYTE   N05
 BYTE   W06
 BYTE   Gn1
 BYTE   W06
// 014   ----------------------------------------
 BYTE   N05
 BYTE   W06
 BYTE   N16  Cn1
 BYTE   N16  Dn1
 BYTE   N16  Cs2
 BYTE   W18
 BYTE   Cn1
 BYTE   N16  Dn1
 BYTE   N16  An2
 BYTE   W18
 BYTE   N10  Cn1
 BYTE   N10  Dn1
 BYTE   N10  Cs2
 BYTE   W12
 BYTE   N16  Cn1
 BYTE   N16  Dn1
 BYTE   N16  Cs2
 BYTE   W18
 BYTE   Cn1
 BYTE   N16  Dn1
 BYTE   N16  An2
 BYTE   W18
 BYTE   N10  Cn1
 BYTE   N10  Dn1
 BYTE   N10  Cs2
 BYTE   W06
// 015   ----------------------------------------
 BYTE   W06
 BYTE   N16  Dn1
 BYTE   W06
 BYTE   N05  Bn1
 BYTE   W06
 BYTE   Gn1
 BYTE   W06
 BYTE   N16  Dn1
 BYTE   W06
 BYTE   N05  Bn1
 BYTE   W06
 BYTE   Gn1
 BYTE   W06
 BYTE   N10  Dn1
 BYTE   W06
 BYTE   N05  Gn1
 BYTE   W06
 BYTE   N42  Dn1
 BYTE   W42
// 016   ----------------------------------------
 BYTE   W06
 BYTE   N21  Cn1
 BYTE   N84  Cs2
 BYTE   W12
 BYTE   N05  Dn2
 BYTE   W06
 BYTE   Cn2
 BYTE   W06
 BYTE   N21  Cn1
 BYTE   W12
 BYTE   N05  Gn1
 BYTE   W06
 BYTE   Fn1
 BYTE   W06
 BYTE   N21  Cn1
 BYTE   W12
 BYTE   N05  Dn2
 BYTE   W06
 BYTE   Cn2
 BYTE   W06
 BYTE   N21  Cn1
 BYTE   W12
 BYTE   N05  Gn1
 BYTE   W06
// 017   ----------------------------------------
 BYTE   Fn1
 BYTE   W06
 BYTE   N21  Cn1
 BYTE   W12
 BYTE   N05  Dn2
 BYTE   W06
 BYTE   Cn2
 BYTE   W06
 BYTE   N21  Cn1
 BYTE   W12
 BYTE   N05  Gn1
 BYTE   W06
 BYTE   Fn1
 BYTE   W06
 BYTE   N21  Cn1
 BYTE   W12
 BYTE   N05  Dn2
 BYTE   W06
 BYTE   Cn2
 BYTE   W06
 BYTE   N21  Cn1
 BYTE   W12
 BYTE   N05  Gn1
 BYTE   W06
// 018   ----------------------------------------
 BYTE   Fn1
 BYTE   W06
 BYTE   N24  FnM1  v040
 BYTE   W24
 BYTE   N21  Cn1  v072
 BYTE   W12
 BYTE   N05  Dn2
 BYTE   W06
 BYTE   Cn2
 BYTE   W06
 BYTE   N21  Cn1
 BYTE   W12
 BYTE   N05  Gn1
 BYTE   W06
 BYTE   Fn1
 BYTE   W06
 BYTE   N21  Cn1
 BYTE   W12
 BYTE   N05  Dn2
 BYTE   W06
// 019   ----------------------------------------
 BYTE   Cn2
 BYTE   W06
 BYTE   N21  Cn1
 BYTE   W12
 BYTE   N05  Gn1
 BYTE   W06
 BYTE   Fn1
 BYTE   W06
 BYTE   N21  Cn1
 BYTE   N05  Dn1
 BYTE   W06
 BYTE   N05
 BYTE   W06
 BYTE   N05
 BYTE   W06
 BYTE   N05
 BYTE   W06
 BYTE   N21  Cn1
 BYTE   N05  Dn1
 BYTE   W06
 BYTE   N05
 BYTE   W06
 BYTE   N05
 BYTE   W06
 BYTE   N05
 BYTE   W06
 BYTE   N21  Cn1
 BYTE   N16  Dn1
 BYTE   N16  Cs2
 BYTE   W18
// 020   ----------------------------------------
 BYTE   Dn1
 BYTE   N16  An2
 BYTE   W06
Label_8_0165B117:
 BYTE   N21  Cn1  v072
 BYTE   W12
 BYTE   N10  Dn1
 BYTE   N10  Cs2
 BYTE   W12
 BYTE   N21  Cn1
 BYTE   W12
 BYTE   N05  Dn2
 BYTE   W06
 BYTE   Cn2
 BYTE   W06
 BYTE   N21  Cn1
 BYTE   W12
 BYTE   N05  Gn1
 BYTE   W06
 BYTE   Fn1
 BYTE   W06
 BYTE   N21  Cn1
 BYTE   W12
 BYTE   N05  Dn2
 BYTE   W06
// 021   ----------------------------------------
Label_8_0165B136:
 BYTE   N05  Cn2  v072
 BYTE   W06
 BYTE   N21  Cn1
 BYTE   W12
 BYTE   N05  Gn1
 BYTE   W06
 BYTE   Fn1
 BYTE   W06
 BYTE   N21  Cn1
 BYTE   W12
 BYTE   N05  Dn2
 BYTE   W06
 BYTE   Cn2
 BYTE   W06
 BYTE   N21  Cn1
 BYTE   W12
 BYTE   N05  Gn1
 BYTE   W06
 BYTE   Fn1
 BYTE   W06
 BYTE   N21  Cn1
 BYTE   W12
 BYTE   N05  Dn2
 BYTE   W06
 BYTE   PEND 
// 022   ----------------------------------------
 BYTE   PATT
  POIN2 Label_8_0165B136
// 023   ----------------------------------------
 BYTE   PATT
  POIN2 Label_8_0165B136
// 024   ----------------------------------------
Label_8_0165B163:
 BYTE   N05  Cn2  v072
 BYTE   W06
 BYTE   N21  Cn1
 BYTE   W12
 BYTE   N05  Gn1
 BYTE   W06
 BYTE   Fn1
 BYTE   W06
 BYTE   N21  Cn1
 BYTE   N84  Cs2
 BYTE   W12
 BYTE   N05  Dn2
 BYTE   W06
 BYTE   Cn2
 BYTE   W06
 BYTE   N21  Cn1
 BYTE   W12
 BYTE   N05  Gn1
 BYTE   W06
 BYTE   Fn1
 BYTE   W06
 BYTE   N21  Cn1
 BYTE   W12
 BYTE   N05  Dn2
 BYTE   W06
 BYTE   PEND 
// 025   ----------------------------------------
 BYTE   PATT
  POIN2 Label_8_0165B136
// 026   ----------------------------------------
 BYTE   PATT
  POIN2 Label_8_0165B136
// 027   ----------------------------------------
 BYTE   N05  Cn2  v072
 BYTE   W06
 BYTE   N21  Cn1
 BYTE   W12
 BYTE   N05  Gn1
 BYTE   W06
 BYTE   Fn1
 BYTE   W06
 BYTE   N21  Cn1
 BYTE   W12
 BYTE   N05  Dn2
 BYTE   W06
 BYTE   Cn2
 BYTE   W06
 BYTE   N21  Cn1
 BYTE   W12
 BYTE   N05  Gn1
 BYTE   W06
 BYTE   Fn1
 BYTE   W06
 BYTE   N21  Cn1
 BYTE   W12
 BYTE   N05  Dn1
 BYTE   W06
// 028   ----------------------------------------
Label_8_0165B1B4:
 BYTE   N05  Dn1  v072
 BYTE   W06
 BYTE   N05
 BYTE   W06
 BYTE   N05
 BYTE   W06
 BYTE   N05
 BYTE   W06
 BYTE   N05
 BYTE   W06
 BYTE   N21  Cn1
 BYTE   N84  Cs2
 BYTE   W12
 BYTE   N05  Dn2
 BYTE   W06
 BYTE   Cn2
 BYTE   W06
 BYTE   N21  Cn1
 BYTE   W12
 BYTE   N05  Gn1
 BYTE   W06
 BYTE   Fn1
 BYTE   W06
 BYTE   N21  Cn1
 BYTE   W12
 BYTE   N05  Dn2
 BYTE   W06
 BYTE   PEND 
// 029   ----------------------------------------
 BYTE   PATT
  POIN2 Label_8_0165B136
// 030   ----------------------------------------
 BYTE   PATT
  POIN2 Label_8_0165B136
// 031   ----------------------------------------
 BYTE   PATT
  POIN2 Label_8_0165B136
// 032   ----------------------------------------
 BYTE   PATT
  POIN2 Label_8_0165B136
// 033   ----------------------------------------
 BYTE   N05  Cn2  v072
 BYTE   W06
 BYTE   N21  Cn1
 BYTE   W12
 BYTE   N05  Gn1
 BYTE   W06
 BYTE   Fn1
 BYTE   W06
 BYTE   N21  Cn1
 BYTE   W12
 BYTE   N05  Dn2
 BYTE   W06
 BYTE   Cn2
 BYTE   W06
 BYTE   N21  Cn1
 BYTE   W12
 BYTE   N05  Dn1
 BYTE   W06
 BYTE   N05
 BYTE   W06
 BYTE   N16
 BYTE   N16  Cs2
 BYTE   W18
// 034   ----------------------------------------
 BYTE   Dn1
 BYTE   N16  An2
 BYTE   W18
 BYTE   N10  Dn1
 BYTE   N10  Cs2
 BYTE   W12
 BYTE   N84  Cn1
 BYTE   N84  Cs2
 BYTE   W48
 BYTE   N05  Dn2
 BYTE   W06
 BYTE   N05
 BYTE   W06
 BYTE   N05
 BYTE   W06
// 035   ----------------------------------------
 BYTE   Bn1
 BYTE   W06
 BYTE   N05
 BYTE   W06
 BYTE   N05
 BYTE   W06
 BYTE   Gn1
 BYTE   W06
 BYTE   N05
 BYTE   W06
 BYTE   N84  Cn1
 BYTE   N84  Cs2
 BYTE   W48
 BYTE   N05  Dn1
 BYTE   W06
 BYTE   N05
 BYTE   W06
 BYTE   N05
 BYTE   W06
// 036   ----------------------------------------
 BYTE   N05
 BYTE   W06
 BYTE   N21
 BYTE   N21  Gn1
 BYTE   W24
 BYTE   Cn1
 BYTE   N84  Cs2
 BYTE   W12
 BYTE   N05  Dn2
 BYTE   W06
 BYTE   Cn2
 BYTE   W06
 BYTE   N21  Cn1
 BYTE   W12
 BYTE   N05  Gn1
 BYTE   W06
 BYTE   Fn1
 BYTE   W06
 BYTE   N21  Cn1
 BYTE   W12
 BYTE   N05  Dn2
 BYTE   W06
// 037   ----------------------------------------
 BYTE   PATT
  POIN2 Label_8_0165B136
// 038   ----------------------------------------
 BYTE   PATT
  POIN2 Label_8_0165B136
// 039   ----------------------------------------
 BYTE   PATT
  POIN2 Label_8_0165B136
// 040   ----------------------------------------
 BYTE   PATT
  POIN2 Label_8_0165B163
// 041   ----------------------------------------
 BYTE   PATT
  POIN2 Label_8_0165B136
// 042   ----------------------------------------
 BYTE   PATT
  POIN2 Label_8_0165B136
// 043   ----------------------------------------
 BYTE   N05  Cn2  v072
 BYTE   W06
 BYTE   N21  Cn1
 BYTE   W12
 BYTE   N05  Gn1
 BYTE   W06
 BYTE   Fn1
 BYTE   W06
 BYTE   N21  Cn1
 BYTE   W12
 BYTE   N05  Dn2
 BYTE   W06
 BYTE   Cn2
 BYTE   W06
 BYTE   N21  Cn1
 BYTE   W12
 BYTE   N05  Gn1
 BYTE   W06
 BYTE   Fn1
 BYTE   W06
 BYTE   N42  Cn1
 BYTE   W12
 BYTE   N05  Dn1
 BYTE   W06
// 044   ----------------------------------------
 BYTE   PATT
  POIN2 Label_8_0165B1B4
// 045   ----------------------------------------
Label_8_0165B29A:
 BYTE   N05  Cn2  v072
 BYTE   W06
 BYTE   N21  Dn1
 BYTE   W24
 BYTE   Cn1
 BYTE   W12
 BYTE   N05  Dn2
 BYTE   W06
 BYTE   Cn2
 BYTE   W06
 BYTE   N21  Cn1
 BYTE   W12
 BYTE   N05  Gn1
 BYTE   W06
 BYTE   Fn1
 BYTE   W06
 BYTE   N21  Cn1
 BYTE   W12
 BYTE   N05  Dn2
 BYTE   W06
 BYTE   PEND 
// 046   ----------------------------------------
 BYTE   PATT
  POIN2 Label_8_0165B29A
// 047   ----------------------------------------
 BYTE   N05  Cn2  v072
 BYTE   W06
 BYTE   N21  Dn1
 BYTE   W24
 BYTE   Cn1
 BYTE   W12
 BYTE   N05  Dn2
 BYTE   W06
 BYTE   Cn2
 BYTE   W06
 BYTE   N21  Cn1
 BYTE   W12
 BYTE   N05  Gn1
 BYTE   W06
 BYTE   Fn1
 BYTE   W18
 BYTE   Dn1
 BYTE   W06
// 048   ----------------------------------------
 BYTE   N05
 BYTE   W06
 BYTE   N10
 BYTE   W12
 BYTE   N05
 BYTE   W06
 BYTE   N05
 BYTE   W06
 BYTE   N21  Cn1
 BYTE   N84  Cs2
 BYTE   W12
 BYTE   N05  Dn2
 BYTE   W06
 BYTE   Cn2
 BYTE   W06
 BYTE   N21  Cn1
 BYTE   W12
 BYTE   N05  Gn1
 BYTE   W06
 BYTE   Fn1
 BYTE   W06
 BYTE   N21  Cn1
 BYTE   W12
 BYTE   N05  Dn2
 BYTE   W06
// 049   ----------------------------------------
 BYTE   Cn2
 BYTE   W06
 BYTE   N21  Dn1
 BYTE   W24
 BYTE   N16  An1
 BYTE   N16  Cs2
 BYTE   W18
 BYTE   Gn1
 BYTE   N16  An2
 BYTE   W18
 BYTE   N10  Fn1
 BYTE   N10  Cs2
 BYTE   W12
 BYTE   Dn1
 BYTE   N42  An2
 BYTE   W12
 BYTE   N05  Dn1
 BYTE   W06
// 050   ----------------------------------------
 BYTE   N05
 BYTE   W06
 BYTE   N21
 BYTE   W24
 BYTE   N16  Cn1
 BYTE   N16  Dn1
 BYTE   N16  Cs2
 BYTE   W18
 BYTE   Cn1
 BYTE   N16  Dn1
 BYTE   N05  An2
 BYTE   W18
 BYTE   N10  Cn1
 BYTE   N10  Dn1
 BYTE   N10  Cs2
 BYTE   W12
 BYTE   N16  Cn1
 BYTE   N16  Dn1
 BYTE   N16  Cs2
 BYTE   W18
// 051   ----------------------------------------
 BYTE   Cn1
 BYTE   N16  Dn1
 BYTE   N05  An2
 BYTE   W18
 BYTE   N10  Cn1
 BYTE   N10  Dn1
 BYTE   N10  Cs2
 BYTE   W12
 BYTE   N16  Cn1
 BYTE   N16  Dn1
 BYTE   N16  Cs2
 BYTE   W18
 BYTE   Cn1
 BYTE   N16  Dn1
 BYTE   N05  An2
 BYTE   W18
 BYTE   N10  Cn1
 BYTE   N10  Dn1
 BYTE   N10  Cs2
 BYTE   W24
 BYTE   N05  Dn1
 BYTE   W06
// 052   ----------------------------------------
 BYTE   N05
 BYTE   W06
 BYTE   N21
 BYTE   N21  Gn1
 BYTE   W24
 BYTE   N42  Cn1
 BYTE   N42  Cs2
 BYTE   W36
 BYTE   N05  Dn2
 BYTE   W06
 BYTE   Cn2
 BYTE   W06
 BYTE   N42  Cn1
 BYTE   N42  Cs2
 BYTE   W18
// 053   ----------------------------------------
 BYTE   W18
 BYTE   N05  Gn1
 BYTE   W06
 BYTE   Fn1
 BYTE   W06
 BYTE   N84  Cn1
 BYTE   N42  Cs2
 BYTE   W36
 BYTE   N05  Dn2
 BYTE   W06
 BYTE   Cn2
 BYTE   W06
 BYTE   N16  Dn1
 BYTE   N16  Cs2
 BYTE   W18
// 054   ----------------------------------------
 BYTE   Dn1
 BYTE   N16  An2
 BYTE   W18
 BYTE   N10  Dn1
 BYTE   N10  Cs2
 BYTE   W12
 BYTE   N42  Cn1
 BYTE   N84  Cs2
 BYTE   W12
 BYTE   N05  Dn2
 BYTE   W06
 BYTE   Cn2
 BYTE   W06
 BYTE   N21  Dn1
 BYTE   W12
 BYTE   N05  Gn1
 BYTE   W06
 BYTE   Fn1
 BYTE   W06
 BYTE   N42  Cn1
 BYTE   W12
 BYTE   N05  Dn2
 BYTE   W06
// 055   ----------------------------------------
 BYTE   Cn2
 BYTE   W06
 BYTE   N21  Dn1
 BYTE   W12
 BYTE   N05  Gn1
 BYTE   W06
 BYTE   Fn1
 BYTE   W06
 BYTE   N21  Cn1
 BYTE   N05  Dn1
 BYTE   W06
 BYTE   N05
 BYTE   W06
 BYTE   N05
 BYTE   W06
 BYTE   N05
 BYTE   W06
 BYTE   N21  Cn1
 BYTE   N05  Dn1
 BYTE   W06
 BYTE   N05
 BYTE   W06
 BYTE   N05
 BYTE   W06
 BYTE   N05
 BYTE   W06
 BYTE   N16
 BYTE   N16  Cs2
 BYTE   W06
 BYTE   N05  Dn2
 BYTE   W06
 BYTE   Cn2
 BYTE   W06
// 056   ----------------------------------------
 BYTE   W06
 BYTE   GoTo
  POIN2 Label_8_0165B117
 BYTE   FINE

//******************************************************//
	ALIGN 4

RomancingSaga3FourNobleDevilPart1BigMood:
	BYTE	9	// NumTrks
	BYTE	0	// NumBlks
	BYTE	RomancingSaga3FourNobleDevilPart1BigMood_pri	// Priority
	BYTE	RomancingSaga3FourNobleDevilPart1BigMood_rev	// Reverb.
    
	POIN2	RomancingSaga3FourNobleDevilPart1BigMood_grp
    
	POIN2	RomancingSaga3FourNobleDevilPart1BigMood_001
	POIN2	RomancingSaga3FourNobleDevilPart1BigMood_002
	POIN2	RomancingSaga3FourNobleDevilPart1BigMood_003
	POIN2	RomancingSaga3FourNobleDevilPart1BigMood_004
	POIN2	RomancingSaga3FourNobleDevilPart1BigMood_005
	POIN2	RomancingSaga3FourNobleDevilPart1BigMood_006
	POIN2	RomancingSaga3FourNobleDevilPart1BigMood_007
	POIN2	RomancingSaga3FourNobleDevilPart1BigMood_008
	POIN2	RomancingSaga3FourNobleDevilPart1BigMood_009

	
