//Event file generated from Sappy .s format.
	#include "MPlayDef.event"

	#define	OgreBattle64DecisiveRandomWizard_grp  voicegroup000
	#define	OgreBattle64DecisiveRandomWizard_pri  0
	#define	OgreBattle64DecisiveRandomWizard_rev  0
	#define	OgreBattle64DecisiveRandomWizard_mvl  127
	#define	OgreBattle64DecisiveRandomWizard_key  0
	#define	OgreBattle64DecisiveRandomWizard_tbs  1
	#define	OgreBattle64DecisiveRandomWizard_exg  0
	#define	OgreBattle64DecisiveRandomWizard_cmp  1

	// .rodata
	//	OgreBattle64DecisiveRandomWizard
	ALIGN 4


//**************** Track 1 (Midi-Chn.0) ****************//

OgreBattle64DecisiveRandomWizard_001:
// 000   ----------------------------------------
 BYTE   KEYSH   OgreBattle64DecisiveRandomWizard_key+0
 BYTE   TEMPO   150*OgreBattle64DecisiveRandomWizard_tbs/2
 BYTE   VOICE   48
 BYTE   PAN   c_v-26
 BYTE   VOL   40*OgreBattle64DecisiveRandomWizard_mvl/mxv
 BYTE   W01
 BYTE   N06  Dn3  v064
 BYTE   W06
 BYTE   N02  An3
 BYTE   W06
 BYTE   N06  Dn4  v076
 BYTE   W06
 BYTE   N02  An4  v060
 BYTE   W06
 BYTE   N06  Dn4  v076
 BYTE   W06
 BYTE   N02  An3  v064
 BYTE   W06
 BYTE   N06  Dn3
 BYTE   W06
 BYTE   N02  An3
 BYTE   W06
 BYTE   N06  Dn4  v076
 BYTE   W06
 BYTE   N02  An4  v060
 BYTE   W06
 BYTE   N06  Dn4  v076
 BYTE   W06
 BYTE   N02  An3  v064
 BYTE   W06
 BYTE   N06  Dn3
 BYTE   W06
 BYTE   N02  An3
 BYTE   W06
 BYTE   N06  Dn4  v076
 BYTE   W06
 BYTE   N02  An4  v060
 BYTE   W05
// 001   ----------------------------------------
Label_0_0155839A:
 BYTE   W01
 BYTE   N06  Dn4  v076
 BYTE   W06
 BYTE   N02  An3  v064
 BYTE   W06
 BYTE   N06  Dn3
 BYTE   W06
 BYTE   N02  An3
 BYTE   W06
 BYTE   N06  Dn4  v076
 BYTE   W06
 BYTE   N02  An4  v060
 BYTE   W06
 BYTE   N06  Dn4  v076
 BYTE   W06
 BYTE   N02  An3  v064
 BYTE   W06
 BYTE   N06  Dn3
 BYTE   W06
 BYTE   N02  An3
 BYTE   W06
 BYTE   N06  Dn4  v076
 BYTE   W06
 BYTE   N02  An4  v060
 BYTE   W06
 BYTE   N06  Dn5  v076
 BYTE   W06
 BYTE   N02  An4  v060
 BYTE   W06
 BYTE   N06  Dn4  v076
 BYTE   W06
 BYTE   N02  An3  v064
 BYTE   W05
 BYTE   PEND 
// 002   ----------------------------------------
Label_0_015583D8:
 BYTE   W01
 BYTE   N06  Dn3  v064
 BYTE   W06
 BYTE   N02  An3
 BYTE   W06
 BYTE   N06  Dn4  v076
 BYTE   W06
 BYTE   N02  An4  v060
 BYTE   W06
 BYTE   N06  Dn4  v076
 BYTE   W06
 BYTE   N02  An3  v064
 BYTE   W06
 BYTE   N06  Dn3
 BYTE   W06
 BYTE   N02  An3
 BYTE   W06
 BYTE   N06  Dn4  v076
 BYTE   W06
 BYTE   N02  An4  v060
 BYTE   W06
 BYTE   N06  Dn4  v076
 BYTE   W06
 BYTE   N02  An3  v064
 BYTE   W06
 BYTE   N06  Dn3
 BYTE   W06
 BYTE   N02  An3
 BYTE   W06
 BYTE   N06  Dn4  v076
 BYTE   W06
 BYTE   N02  An4  v060
 BYTE   W05
 BYTE   PEND 
 BYTE   PATT
  POIN2 Label_0_0155839A
 BYTE   PATT
  POIN2 Label_0_015583D8
 BYTE   PATT
  POIN2 Label_0_0155839A
 BYTE   PATT
  POIN2 Label_0_015583D8
 BYTE   PATT
  POIN2 Label_0_0155839A
 BYTE   PATT
  POIN2 Label_0_015583D8
 BYTE   PATT
  POIN2 Label_0_0155839A
 BYTE   PATT
  POIN2 Label_0_015583D8
 BYTE   PATT
  POIN2 Label_0_0155839A
 BYTE   PATT
  POIN2 Label_0_015583D8
 BYTE   PATT
  POIN2 Label_0_0155839A
 BYTE   PATT
  POIN2 Label_0_015583D8
 BYTE   PATT
  POIN2 Label_0_0155839A
 BYTE   PATT
  POIN2 Label_0_015583D8
 BYTE   PATT
  POIN2 Label_0_0155839A
// 003   ----------------------------------------
 BYTE   N12  An3  v084
 BYTE   W48
 BYTE   N06  An3  v072
 BYTE   W06
 BYTE   Dn3
 BYTE   W06
 BYTE   Fn3  v076
 BYTE   W06
 BYTE   N04  An3
 BYTE   W06
 BYTE   N06  Dn4  v080
 BYTE   W06
 BYTE   An3
 BYTE   W06
 BYTE   Dn4  v084
 BYTE   W06
 BYTE   N04  Fn4
 BYTE   W06
// 004   ----------------------------------------
Label_0_0155847C:
 BYTE   N44  An4  v116
 BYTE   W48
 BYTE   N84  Dn4
 BYTE   W48
 BYTE   PEND 
// 005   ----------------------------------------
Label_0_01558484:
 BYTE   W48
 BYTE   N16  Dn4  v116
 BYTE   W16
 BYTE   En4
 BYTE   W16
 BYTE   Gn4
 BYTE   W16
 BYTE   PEND 
// 006   ----------------------------------------
Label_0_0155848E:
 BYTE   N44  Fn4  v116
 BYTE   W48
 BYTE   TIE  As3
 BYTE   W48
 BYTE   PEND 
// 007   ----------------------------------------
 BYTE   W60
 BYTE   W01
 BYTE   EOT
 BYTE   W11
 BYTE   N24
 BYTE   W24
// 008   ----------------------------------------
 BYTE   N48  Cn4
 BYTE   W48
 BYTE   TIE  Ds4
 BYTE   W48
// 009   ----------------------------------------
 BYTE   W60
 BYTE   W03
 BYTE   EOT
 BYTE   W09
 BYTE   N12  Cn4
 BYTE   W12
 BYTE   As3
 BYTE   W12
// 010   ----------------------------------------
 BYTE   TIE  An3
 BYTE   W96
// 011   ----------------------------------------
 BYTE   W80
 BYTE   W02
 BYTE   EOT
 BYTE   W14
 BYTE   PATT
  POIN2 Label_0_0155847C
 BYTE   PATT
  POIN2 Label_0_01558484
 BYTE   PATT
  POIN2 Label_0_0155848E
// 012   ----------------------------------------
 BYTE   W60
 BYTE   W01
 BYTE   EOT
 BYTE   As3
 BYTE   W11
 BYTE   N24  As3  v116
 BYTE   W24
// 013   ----------------------------------------
 BYTE   N48  Cn4
 BYTE   W48
 BYTE   N84  Ds4
 BYTE   W48
// 014   ----------------------------------------
 BYTE   W48
 BYTE   N16
 BYTE   W16
 BYTE   Gn4
 BYTE   W16
 BYTE   As4
 BYTE   W16
// 015   ----------------------------------------
 BYTE   TIE  An4
 BYTE   W96
// 016   ----------------------------------------
 BYTE   W92
 BYTE   W01
 BYTE   EOT
 BYTE   W01
 BYTE   W02
// 017   ----------------------------------------
 BYTE   GoTo
  POIN2 Label_0_015583D8
 BYTE   FINE

//**************** Track 2 (Midi-Chn.1) ****************//

OgreBattle64DecisiveRandomWizard_002:
// 000   ----------------------------------------
 BYTE   KEYSH   OgreBattle64DecisiveRandomWizard_key+0
 BYTE   VOICE   43
 BYTE   PAN   c_v+32
 BYTE   VOL   40*OgreBattle64DecisiveRandomWizard_mvl/mxv
 BYTE   W96
// 001   ----------------------------------------
 BYTE   W96
// 002   ----------------------------------------
Label_1_015584F2:
 BYTE   W01
 BYTE   N09  Dn1  v100
 BYTE   W12
 BYTE   N06
 BYTE   W12
 BYTE   N09
 BYTE   W12
 BYTE   N06
 BYTE   W12
 BYTE   N09
 BYTE   W12
 BYTE   N06
 BYTE   W12
 BYTE   N09
 BYTE   W12
 BYTE   N06
 BYTE   W11
 BYTE   PEND 
 BYTE   PATT
  POIN2 Label_1_015584F2
 BYTE   PATT
  POIN2 Label_1_015584F2
 BYTE   PATT
  POIN2 Label_1_015584F2
// 003   ----------------------------------------
 BYTE   W01
 BYTE   N09  Dn1  v100
 BYTE   W12
 BYTE   N06
 BYTE   W12
 BYTE   N09
 BYTE   W12
 BYTE   N06
 BYTE   W12
 BYTE   N09
 BYTE   W12
 BYTE   N06
 BYTE   W12
 BYTE   N09
 BYTE   W12
 BYTE   N06  Dn1  v104
 BYTE   W11
// 004   ----------------------------------------
Label_1_0155852A:
 BYTE   W01
 BYTE   N09  Dn1  v104
 BYTE   W12
 BYTE   N06
 BYTE   W12
 BYTE   N09
 BYTE   W12
 BYTE   N06
 BYTE   W12
 BYTE   N09
 BYTE   W12
 BYTE   N06
 BYTE   W12
 BYTE   N09
 BYTE   W12
 BYTE   N06
 BYTE   W11
 BYTE   PEND 
 BYTE   PATT
  POIN2 Label_1_0155852A
 BYTE   PATT
  POIN2 Label_1_0155852A
 BYTE   PATT
  POIN2 Label_1_0155852A
 BYTE   PATT
  POIN2 Label_1_0155852A
 BYTE   PATT
  POIN2 Label_1_0155852A
 BYTE   PATT
  POIN2 Label_1_0155852A
 BYTE   PATT
  POIN2 Label_1_0155852A
 BYTE   PATT
  POIN2 Label_1_0155852A
 BYTE   PATT
  POIN2 Label_1_0155852A
 BYTE   PATT
  POIN2 Label_1_0155852A
// 005   ----------------------------------------
 BYTE   W01
 BYTE   N12  Dn1  v112
 BYTE   W48
 BYTE   N48  Dn1  v104
 BYTE   W44
 BYTE   W03
 BYTE   PATT
  POIN2 Label_1_0155852A
// 006   ----------------------------------------
Label_1_0155857F:
 BYTE   W01
 BYTE   N09  Dn1  v104
 BYTE   W12
 BYTE   N06
 BYTE   W12
 BYTE   N09
 BYTE   W12
 BYTE   N06
 BYTE   W12
 BYTE   N09  Cn1
 BYTE   W12
 BYTE   N06
 BYTE   W12
 BYTE   N09
 BYTE   W12
 BYTE   N06
 BYTE   W11
 BYTE   PEND 
// 007   ----------------------------------------
Label_1_01558594:
 BYTE   W01
 BYTE   N09  Gn0  v104
 BYTE   W12
 BYTE   N06
 BYTE   W12
 BYTE   N09
 BYTE   W12
 BYTE   N06
 BYTE   W12
 BYTE   N09
 BYTE   W12
 BYTE   N06
 BYTE   W12
 BYTE   N09
 BYTE   W12
 BYTE   N06
 BYTE   W11
 BYTE   PEND 
 BYTE   PATT
  POIN2 Label_1_01558594
// 008   ----------------------------------------
Label_1_015585AD:
 BYTE   W01
 BYTE   N09  Cn1  v104
 BYTE   W12
 BYTE   N06
 BYTE   W12
 BYTE   N09
 BYTE   W12
 BYTE   N06
 BYTE   W12
 BYTE   N09
 BYTE   W12
 BYTE   N06
 BYTE   W12
 BYTE   N09
 BYTE   W12
 BYTE   N06
 BYTE   W11
 BYTE   PEND 
 BYTE   PATT
  POIN2 Label_1_015585AD
 BYTE   PATT
  POIN2 Label_1_0155852A
 BYTE   PATT
  POIN2 Label_1_0155852A
 BYTE   PATT
  POIN2 Label_1_0155852A
 BYTE   PATT
  POIN2 Label_1_0155857F
 BYTE   PATT
  POIN2 Label_1_01558594
 BYTE   PATT
  POIN2 Label_1_01558594
 BYTE   PATT
  POIN2 Label_1_015585AD
 BYTE   PATT
  POIN2 Label_1_015585AD
 BYTE   PATT
  POIN2 Label_1_0155852A
 BYTE   PATT
  POIN2 Label_1_0155852A
// 009   ----------------------------------------
 BYTE   GoTo
  POIN2 Label_1_015584F2
 BYTE   FINE

//**************** Track 3 (Midi-Chn.2) ****************//

OgreBattle64DecisiveRandomWizard_003:
// 000   ----------------------------------------
 BYTE   KEYSH   OgreBattle64DecisiveRandomWizard_key+0
 BYTE   VOICE   49
 BYTE   PAN   c_v+19
 BYTE   VOL   40*OgreBattle64DecisiveRandomWizard_mvl/mxv
 BYTE   W01
 BYTE   N07  Fn3  v068
 BYTE   W02
 BYTE   Fn4
 BYTE   W10
 BYTE   Fn3
 BYTE   W02
 BYTE   Fn4
 BYTE   W10
 BYTE   Fn3
 BYTE   W02
 BYTE   Fn4
 BYTE   W10
 BYTE   Fn3
 BYTE   W02
 BYTE   Fn4
 BYTE   W10
 BYTE   Gn3
 BYTE   W02
 BYTE   Gn4
 BYTE   W10
 BYTE   Gn3
 BYTE   W02
 BYTE   Gn4
 BYTE   W10
 BYTE   Gn3
 BYTE   W02
 BYTE   Gn4
 BYTE   W10
 BYTE   Gn3
 BYTE   W02
 BYTE   Gn4
 BYTE   W09
// 001   ----------------------------------------
 BYTE   W01
 BYTE   As3
 BYTE   W02
 BYTE   As4
 BYTE   W10
 BYTE   As3
 BYTE   W02
 BYTE   As4
 BYTE   W10
 BYTE   As3
 BYTE   W02
 BYTE   As4
 BYTE   W10
 BYTE   As3
 BYTE   W02
 BYTE   As4
 BYTE   W10
 BYTE   Cn4
 BYTE   W02
 BYTE   Cn5
 BYTE   W10
 BYTE   Cn4
 BYTE   W02
 BYTE   Cn5
 BYTE   W10
 BYTE   Cn4
 BYTE   W02
 BYTE   Cn5
 BYTE   W10
 BYTE   Cn4
 BYTE   W02
 BYTE   Cn5
 BYTE   W09
// 002   ----------------------------------------
Label_2_0155864C:
 BYTE   W01
 BYTE   N07  Fn3  v068
 BYTE   W02
 BYTE   Fn4
 BYTE   W10
 BYTE   Fn3
 BYTE   W02
 BYTE   Fn4
 BYTE   W10
 BYTE   Fn3
 BYTE   W02
 BYTE   Fn4
 BYTE   W10
 BYTE   Fn3
 BYTE   W02
 BYTE   Fn4
 BYTE   W10
 BYTE   Fn3
 BYTE   W02
 BYTE   Fn4
 BYTE   W10
 BYTE   Fn3
 BYTE   W02
 BYTE   Fn4
 BYTE   W10
 BYTE   Fn3
 BYTE   W02
 BYTE   Fn4
 BYTE   W10
 BYTE   Fn3
 BYTE   W02
 BYTE   Fn4
 BYTE   W09
 BYTE   PEND 
 BYTE   PATT
  POIN2 Label_2_0155864C
// 003   ----------------------------------------
Label_2_01558675:
 BYTE   W01
 BYTE   N07  Gn3  v068
 BYTE   W02
 BYTE   Gn4
 BYTE   W10
 BYTE   Gn3
 BYTE   W02
 BYTE   Gn4
 BYTE   W10
 BYTE   Gn3
 BYTE   W02
 BYTE   Gn4
 BYTE   W10
 BYTE   Gn3
 BYTE   W02
 BYTE   Gn4
 BYTE   W10
 BYTE   Gn3
 BYTE   W02
 BYTE   Gn4
 BYTE   W10
 BYTE   Gn3
 BYTE   W02
 BYTE   Gn4
 BYTE   W10
 BYTE   Gn3
 BYTE   W02
 BYTE   Gn4
 BYTE   W10
 BYTE   Gn3
 BYTE   W02
 BYTE   Gn4
 BYTE   W09
 BYTE   PEND 
 BYTE   PATT
  POIN2 Label_2_01558675
// 004   ----------------------------------------
Label_2_0155869E:
 BYTE   W01
 BYTE   N07  As3  v068
 BYTE   W02
 BYTE   As4
 BYTE   W10
 BYTE   As3
 BYTE   W02
 BYTE   As4
 BYTE   W10
 BYTE   As3
 BYTE   W02
 BYTE   As4
 BYTE   W10
 BYTE   As3
 BYTE   W02
 BYTE   As4
 BYTE   W10
 BYTE   As3
 BYTE   W02
 BYTE   As4
 BYTE   W10
 BYTE   As3
 BYTE   W02
 BYTE   As4
 BYTE   W10
 BYTE   As3
 BYTE   W02
 BYTE   As4
 BYTE   W10
 BYTE   As3
 BYTE   W02
 BYTE   As4
 BYTE   W09
 BYTE   PEND 
 BYTE   PATT
  POIN2 Label_2_0155869E
// 005   ----------------------------------------
Label_2_015586C7:
 BYTE   W01
 BYTE   N07  Cn4  v068
 BYTE   W02
 BYTE   Cn5
 BYTE   W10
 BYTE   Cn4
 BYTE   W02
 BYTE   Cn5
 BYTE   W10
 BYTE   Cn4
 BYTE   W02
 BYTE   Cn5
 BYTE   W10
 BYTE   Cn4
 BYTE   W02
 BYTE   Cn5
 BYTE   W10
 BYTE   Cn4
 BYTE   W02
 BYTE   Cn5
 BYTE   W10
 BYTE   Cn4
 BYTE   W02
 BYTE   Cn5
 BYTE   W10
 BYTE   Cn4
 BYTE   W02
 BYTE   Cn5
 BYTE   W10
 BYTE   Cn4
 BYTE   W02
 BYTE   Cn5
 BYTE   W09
 BYTE   PEND 
 BYTE   PATT
  POIN2 Label_2_015586C7
 BYTE   PATT
  POIN2 Label_2_0155864C
 BYTE   PATT
  POIN2 Label_2_0155864C
 BYTE   PATT
  POIN2 Label_2_01558675
 BYTE   PATT
  POIN2 Label_2_01558675
// 006   ----------------------------------------
 BYTE   W01
 BYTE   N07  As3  v068
 BYTE   W02
 BYTE   As4
 BYTE   W10
 BYTE   As3  v072
 BYTE   W02
 BYTE   As4
 BYTE   W10
 BYTE   As3
 BYTE   W02
 BYTE   As4
 BYTE   W10
 BYTE   As3
 BYTE   W02
 BYTE   As4
 BYTE   W10
 BYTE   As3
 BYTE   W02
 BYTE   As4
 BYTE   W10
 BYTE   As3
 BYTE   W02
 BYTE   As4
 BYTE   W10
 BYTE   As3
 BYTE   W02
 BYTE   As4
 BYTE   W10
 BYTE   As3
 BYTE   W02
 BYTE   As4
 BYTE   W09
// 007   ----------------------------------------
 BYTE   W01
 BYTE   As3
 BYTE   W02
 BYTE   As4
 BYTE   W10
 BYTE   As3
 BYTE   W02
 BYTE   As4
 BYTE   W10
 BYTE   As3
 BYTE   W02
 BYTE   As4
 BYTE   W10
 BYTE   As3
 BYTE   W02
 BYTE   As4
 BYTE   W10
 BYTE   As3
 BYTE   W02
 BYTE   As4
 BYTE   W10
 BYTE   As3
 BYTE   W02
 BYTE   As4
 BYTE   W10
 BYTE   As3
 BYTE   W02
 BYTE   As4
 BYTE   W10
 BYTE   As3
 BYTE   W02
 BYTE   As4
 BYTE   W09
// 008   ----------------------------------------
Label_2_01558749:
 BYTE   W01
 BYTE   N07  Cn4  v072
 BYTE   W02
 BYTE   Cn5
 BYTE   W10
 BYTE   Cn4
 BYTE   W02
 BYTE   Cn5
 BYTE   W10
 BYTE   Cn4
 BYTE   W02
 BYTE   Cn5
 BYTE   W10
 BYTE   Cn4
 BYTE   W02
 BYTE   Cn5
 BYTE   W10
 BYTE   Cn4
 BYTE   W02
 BYTE   Cn5
 BYTE   W10
 BYTE   Cn4
 BYTE   W02
 BYTE   Cn5
 BYTE   W10
 BYTE   Cn4
 BYTE   W02
 BYTE   Cn5
 BYTE   W10
 BYTE   Cn4
 BYTE   W02
 BYTE   Cn5
 BYTE   W09
 BYTE   PEND 
 BYTE   PATT
  POIN2 Label_2_01558749
// 009   ----------------------------------------
 BYTE   N12  Dn4  v076
 BYTE   W01
 BYTE   Gn4
 BYTE   W92
 BYTE   W03
// 010   ----------------------------------------
Label_2_01558779:
 BYTE   W01
 BYTE   N07  An4  v068
 BYTE   W02
 BYTE   Dn5
 BYTE   W10
 BYTE   An4
 BYTE   W02
 BYTE   Dn5
 BYTE   W10
 BYTE   An4
 BYTE   W02
 BYTE   Dn5
 BYTE   W10
 BYTE   An4
 BYTE   W02
 BYTE   Dn5
 BYTE   W10
 BYTE   An4
 BYTE   W02
 BYTE   Dn5
 BYTE   W10
 BYTE   An4
 BYTE   W02
 BYTE   Dn5
 BYTE   W10
 BYTE   An4
 BYTE   W02
 BYTE   Dn5
 BYTE   W10
 BYTE   An4
 BYTE   W02
 BYTE   Dn5
 BYTE   W09
 BYTE   PEND 
// 011   ----------------------------------------
Label_2_0155879D:
 BYTE   W01
 BYTE   N07  An4  v068
 BYTE   W02
 BYTE   Dn5
 BYTE   W10
 BYTE   An4
 BYTE   W02
 BYTE   Dn5
 BYTE   W10
 BYTE   An4
 BYTE   W02
 BYTE   Dn5
 BYTE   W10
 BYTE   An4
 BYTE   W02
 BYTE   Dn5
 BYTE   W10
 BYTE   Gn4
 BYTE   W02
 BYTE   Cn5
 BYTE   W10
 BYTE   Gn4
 BYTE   W02
 BYTE   Cn5
 BYTE   W10
 BYTE   Gn4
 BYTE   W02
 BYTE   Cn5
 BYTE   W10
 BYTE   Gn4
 BYTE   W02
 BYTE   Cn5
 BYTE   W09
 BYTE   PEND 
// 012   ----------------------------------------
 BYTE   W01
 BYTE   Dn4
 BYTE   W02
 BYTE   Fn4
 BYTE   W10
 BYTE   Dn4
 BYTE   W02
 BYTE   Fn4
 BYTE   W10
 BYTE   Dn4
 BYTE   W02
 BYTE   Fn4
 BYTE   W10
 BYTE   Dn4
 BYTE   W02
 BYTE   Fn4
 BYTE   W10
 BYTE   As3
 BYTE   W02
 BYTE   Dn4
 BYTE   W10
 BYTE   As3
 BYTE   W02
 BYTE   Dn4
 BYTE   W10
 BYTE   As3
 BYTE   W02
 BYTE   Dn4
 BYTE   W10
 BYTE   As3
 BYTE   W02
 BYTE   Dn4
 BYTE   W09
// 013   ----------------------------------------
Label_2_015587E2:
 BYTE   W01
 BYTE   N07  As3  v068
 BYTE   W02
 BYTE   Dn4
 BYTE   W10
 BYTE   As3
 BYTE   W02
 BYTE   Dn4
 BYTE   W10
 BYTE   As3
 BYTE   W02
 BYTE   Dn4
 BYTE   W10
 BYTE   As3
 BYTE   W02
 BYTE   Dn4
 BYTE   W10
 BYTE   Gn4
 BYTE   W02
 BYTE   As4
 BYTE   W10
 BYTE   Gn4
 BYTE   W02
 BYTE   As4
 BYTE   W10
 BYTE   Gn4
 BYTE   W02
 BYTE   As4
 BYTE   W10
 BYTE   Gn4
 BYTE   W02
 BYTE   As4
 BYTE   W09
 BYTE   PEND 
// 014   ----------------------------------------
Label_2_01558806:
 BYTE   W01
 BYTE   N07  Gn4  v068
 BYTE   W02
 BYTE   Cn5
 BYTE   W10
 BYTE   Gn4
 BYTE   W02
 BYTE   Cn5
 BYTE   W10
 BYTE   Gn4
 BYTE   W02
 BYTE   Cn5
 BYTE   W10
 BYTE   Gn4
 BYTE   W02
 BYTE   Cn5
 BYTE   W10
 BYTE   Gn4
 BYTE   W02
 BYTE   Cn5
 BYTE   W10
 BYTE   Gn4
 BYTE   W02
 BYTE   Cn5
 BYTE   W10
 BYTE   Gn4
 BYTE   W02
 BYTE   Cn5
 BYTE   W10
 BYTE   Gn4
 BYTE   W02
 BYTE   Cn5
 BYTE   W09
 BYTE   PEND 
// 015   ----------------------------------------
 BYTE   W01
 BYTE   N07
 BYTE   W02
 BYTE   Ds5
 BYTE   W10
 BYTE   Cn5
 BYTE   W02
 BYTE   Ds5
 BYTE   W10
 BYTE   Cn5
 BYTE   W02
 BYTE   Ds5
 BYTE   W10
 BYTE   Cn5
 BYTE   W02
 BYTE   Ds5
 BYTE   W10
 BYTE   Cn5
 BYTE   W02
 BYTE   Ds5
 BYTE   W10
 BYTE   Cn5
 BYTE   W02
 BYTE   Ds5
 BYTE   W10
 BYTE   Cn5
 BYTE   W02
 BYTE   Ds5
 BYTE   W10
 BYTE   Cn5
 BYTE   W02
 BYTE   Ds5
 BYTE   W09
// 016   ----------------------------------------
Label_2_0155884B:
 BYTE   W01
 BYTE   N07  Dn4  v068
 BYTE   W02
 BYTE   Fn4
 BYTE   W10
 BYTE   Dn4
 BYTE   W02
 BYTE   Fn4
 BYTE   W10
 BYTE   Dn4
 BYTE   W02
 BYTE   Fn4
 BYTE   W10
 BYTE   Dn4
 BYTE   W02
 BYTE   Fn4
 BYTE   W10
 BYTE   Dn4
 BYTE   W02
 BYTE   Fn4
 BYTE   W10
 BYTE   Dn4
 BYTE   W02
 BYTE   Fn4
 BYTE   W10
 BYTE   Dn4
 BYTE   W02
 BYTE   Fn4
 BYTE   W10
 BYTE   Dn4
 BYTE   W02
 BYTE   Fn4
 BYTE   W09
 BYTE   PEND 
 BYTE   PATT
  POIN2 Label_2_0155884B
 BYTE   PATT
  POIN2 Label_2_01558779
 BYTE   PATT
  POIN2 Label_2_0155879D
// 017   ----------------------------------------
 BYTE   W01
 BYTE   N07  Dn4  v068
 BYTE   W02
 BYTE   Gn4
 BYTE   W10
 BYTE   Dn4
 BYTE   W02
 BYTE   Gn4
 BYTE   W10
 BYTE   Dn4
 BYTE   W02
 BYTE   Gn4
 BYTE   W10
 BYTE   Dn4
 BYTE   W02
 BYTE   N06  Gn4
 BYTE   W10
 BYTE   N07  Dn4
 BYTE   W04
 BYTE   Fn4
 BYTE   W08
 BYTE   Dn4
 BYTE   W04
 BYTE   Fn4
 BYTE   W08
 BYTE   Dn4
 BYTE   W04
 BYTE   N06  Fn4
 BYTE   W10
 BYTE   N07  Dn4
 BYTE   N07  Fn4
 BYTE   W09
 BYTE   PATT
  POIN2 Label_2_015587E2
 BYTE   PATT
  POIN2 Label_2_01558806
// 018   ----------------------------------------
 BYTE   W01
 BYTE   N07  Ds4  v068
 BYTE   W02
 BYTE   Gn4
 BYTE   W10
 BYTE   Ds4
 BYTE   W02
 BYTE   Gn4
 BYTE   W10
 BYTE   Ds4
 BYTE   W02
 BYTE   Gn4
 BYTE   W10
 BYTE   Ds4
 BYTE   W02
 BYTE   Gn4
 BYTE   W10
 BYTE   Ds4
 BYTE   W02
 BYTE   Gn4
 BYTE   W10
 BYTE   Ds4
 BYTE   W02
 BYTE   Gn4
 BYTE   W10
 BYTE   Ds4
 BYTE   W02
 BYTE   Gn4
 BYTE   W10
 BYTE   Ds4
 BYTE   W02
 BYTE   Gn4
 BYTE   W09
 BYTE   PATT
  POIN2 Label_2_0155884B
 BYTE   PATT
  POIN2 Label_2_0155884B
// 019   ----------------------------------------
 BYTE   GoTo
  POIN2 Label_2_0155864C
 BYTE   FINE

//**************** Track 4 (Midi-Chn.3) ****************//

OgreBattle64DecisiveRandomWizard_004:
// 000   ----------------------------------------
 BYTE   KEYSH   OgreBattle64DecisiveRandomWizard_key+0
 BYTE   VOICE   56
 BYTE   PAN   c_v-9
 BYTE   VOL   40*OgreBattle64DecisiveRandomWizard_mvl/mxv
 BYTE   W96
// 001   ----------------------------------------
 BYTE   W96
// 002   ----------------------------------------
Label_3_015588EE:
 BYTE   W96
// 003   ----------------------------------------
 BYTE   W96
// 004   ----------------------------------------
 BYTE   W96
// 005   ----------------------------------------
 BYTE   W96
// 006   ----------------------------------------
 BYTE   W96
// 007   ----------------------------------------
 BYTE   W96
// 008   ----------------------------------------
 BYTE   W96
// 009   ----------------------------------------
 BYTE   W96
// 010   ----------------------------------------
 BYTE   TIE  An3  v072
 BYTE   W96
// 011   ----------------------------------------
 BYTE   W90
 BYTE   W01
 BYTE   EOT
 BYTE   W05
// 012   ----------------------------------------
 BYTE   TIE  As3  v076
 BYTE   W96
// 013   ----------------------------------------
 BYTE   W90
 BYTE   W01
 BYTE   EOT
 BYTE   W05
// 014   ----------------------------------------
 BYTE   TIE  Cn4  v080
 BYTE   W96
// 015   ----------------------------------------
 BYTE   W90
 BYTE   W01
 BYTE   EOT
 BYTE   W05
// 016   ----------------------------------------
 BYTE   N48  As3  v084
 BYTE   W48
 BYTE   Cn4
 BYTE   W48
// 017   ----------------------------------------
 BYTE   N15  Dn4  v096
 BYTE   W24
 BYTE   N17  An4  v100
 BYTE   W24
 BYTE   N23  As4  v112
 BYTE   W09
 BYTE   W02
 BYTE   W02
 BYTE   W02
 BYTE   W02
 BYTE   W02
 BYTE   W02
 BYTE   W01
 BYTE   W02
 BYTE   N22  An4  v096
 BYTE   W02
 BYTE   W01
 BYTE   W02
 BYTE   W01
 BYTE   W01
 BYTE   W02
 BYTE   W01
 BYTE   W01
 BYTE   W01
 BYTE   W01
 BYTE   W01
 BYTE   W01
 BYTE   W01
 BYTE   W01
 BYTE   W01
 BYTE   W01
 BYTE   W01
 BYTE   W01
 BYTE   W01
 BYTE   W01
 BYTE   W01
// 018   ----------------------------------------
 BYTE   N12  Gn4  v116
 BYTE   W48
 BYTE   N15  As4  v104
 BYTE   W18
 BYTE   N15
 BYTE   W18
 BYTE   N09
 BYTE   W12
// 019   ----------------------------------------
 BYTE   W96
// 020   ----------------------------------------
 BYTE   W96
// 021   ----------------------------------------
 BYTE   W96
// 022   ----------------------------------------
 BYTE   W96
// 023   ----------------------------------------
 BYTE   W96
// 024   ----------------------------------------
 BYTE   W96
// 025   ----------------------------------------
 BYTE   W96
// 026   ----------------------------------------
 BYTE   W96
// 027   ----------------------------------------
 BYTE   N48  An4  v068
 BYTE   W48
 BYTE   N84  Dn4
 BYTE   W48
// 028   ----------------------------------------
 BYTE   W48
 BYTE   N16
 BYTE   W16
 BYTE   En4
 BYTE   W16
 BYTE   Gn4
 BYTE   W16
// 029   ----------------------------------------
 BYTE   N48  Fn4
 BYTE   W48
 BYTE   As3
 BYTE   W48
// 030   ----------------------------------------
 BYTE   N72
 BYTE   W72
 BYTE   N24
 BYTE   W24
// 031   ----------------------------------------
 BYTE   N48  Cn4
 BYTE   W48
 BYTE   N84  Ds4
 BYTE   W48
// 032   ----------------------------------------
 BYTE   W48
 BYTE   N16
 BYTE   W16
 BYTE   Gn4
 BYTE   W16
 BYTE   As4
 BYTE   W16
// 033   ----------------------------------------
 BYTE   TIE  An4
 BYTE   W96
// 034   ----------------------------------------
 BYTE   W92
 BYTE   W01
 BYTE   EOT
 BYTE   W03
// 035   ----------------------------------------
 BYTE   GoTo
  POIN2 Label_3_015588EE
 BYTE   FINE

//**************** Track 5 (Midi-Chn.4) ****************//

OgreBattle64DecisiveRandomWizard_005:
// 000   ----------------------------------------
 BYTE   KEYSH   OgreBattle64DecisiveRandomWizard_key+0
 BYTE   VOICE   60
 BYTE   PAN   c_v+9
 BYTE   VOL   40*OgreBattle64DecisiveRandomWizard_mvl/mxv
 BYTE   W96
// 001   ----------------------------------------
 BYTE   W96
// 002   ----------------------------------------
Label_4_01558992:
 BYTE   TIE  Dn2  v064
 BYTE   W96
// 003   ----------------------------------------
 BYTE   W90
 BYTE   W01
 BYTE   EOT
 BYTE   W05
// 004   ----------------------------------------
 BYTE   TIE
 BYTE   W96
// 005   ----------------------------------------
 BYTE   W90
 BYTE   W01
 BYTE   EOT
 BYTE   W05
// 006   ----------------------------------------
 BYTE   TIE  Fn2  v068
 BYTE   W96
// 007   ----------------------------------------
 BYTE   W90
 BYTE   W01
 BYTE   EOT
 BYTE   W05
// 008   ----------------------------------------
 BYTE   TIE
 BYTE   W96
// 009   ----------------------------------------
 BYTE   W90
 BYTE   W01
 BYTE   EOT
 BYTE   W05
// 010   ----------------------------------------
 BYTE   TIE  Dn2
 BYTE   W96
// 011   ----------------------------------------
 BYTE   W90
 BYTE   W01
 BYTE   EOT
 BYTE   W05
// 012   ----------------------------------------
 BYTE   TIE
 BYTE   W96
// 013   ----------------------------------------
 BYTE   W90
 BYTE   W01
 BYTE   EOT
 BYTE   W05
// 014   ----------------------------------------
 BYTE   TIE  Fn2
 BYTE   W96
// 015   ----------------------------------------
 BYTE   W90
 BYTE   W01
 BYTE   EOT
 BYTE   W05
// 016   ----------------------------------------
 BYTE   N96  Fn2  v072
 BYTE   N96  As2  v092
 BYTE   W48
 BYTE   Cn3  v096
 BYTE   W48
// 017   ----------------------------------------
 BYTE   N92  Dn3  v100
 BYTE   W48
 BYTE   N44  As3  v104
 BYTE   W48
// 018   ----------------------------------------
 BYTE   W01
 BYTE   N12  An3  v108
 BYTE   W44
 BYTE   W03
 BYTE   N15  As3  v096
 BYTE   W18
 BYTE   N15
 BYTE   W18
 BYTE   N09
 BYTE   W12
// 019   ----------------------------------------
 BYTE   W84
 BYTE   N05  Dn3
 BYTE   N05  An3
 BYTE   W06
 BYTE   N03  Dn3  v084
 BYTE   N03  An3
 BYTE   W06
// 020   ----------------------------------------
 BYTE   N44  Dn3  v096
 BYTE   N44  An3
 BYTE   W48
 BYTE   Cn3
 BYTE   N44  Gn3
 BYTE   W48
// 021   ----------------------------------------
 BYTE   N78  As2
 BYTE   N78  Gn3
 BYTE   W84
 BYTE   N05  As2
 BYTE   N05  Gn3
 BYTE   W06
 BYTE   N03  As2  v084
 BYTE   N03  Gn3
 BYTE   W06
// 022   ----------------------------------------
 BYTE   N44  As2  v096
 BYTE   N44  Gn3
 BYTE   W48
 BYTE   Dn3
 BYTE   N44  Gn3
 BYTE   W48
// 023   ----------------------------------------
 BYTE   N96  Ds3  v088
 BYTE   N96  Gn3
 BYTE   W96
// 024   ----------------------------------------
 BYTE   Cn3
 BYTE   N96  Gn3
 BYTE   W96
// 025   ----------------------------------------
 BYTE   N12  Dn3
 BYTE   N12  Gn3
 BYTE   W16
 BYTE   N06  Dn3  v084
 BYTE   N06  Gn3
 BYTE   W08
 BYTE   N54  Dn3  v088
 BYTE   N54  Gn3
 BYTE   W60
 BYTE   N12  Dn3
 BYTE   N12  An3
 BYTE   W12
// 026   ----------------------------------------
 BYTE   N88  Dn3
 BYTE   N88  An3
 BYTE   W96
// 027   ----------------------------------------
 BYTE   N60  An2  v096
 BYTE   W72
 BYTE   N08  Dn3  v080
 BYTE   W08
 BYTE   En3  v084
 BYTE   W08
 BYTE   Gn3
 BYTE   W08
// 028   ----------------------------------------
 BYTE   N90  An3
 BYTE   N90  Dn4  v088
 BYTE   W96
// 029   ----------------------------------------
 BYTE   N60  As2  v096
 BYTE   W72
 BYTE   N08  Dn3  v080
 BYTE   W08
 BYTE   En3  v084
 BYTE   W08
 BYTE   Gn3
 BYTE   W08
// 030   ----------------------------------------
 BYTE   N01  Gn3  v092
 BYTE   N90  Dn4  v088
 BYTE   W01
 BYTE   As3  v084
 BYTE   W92
 BYTE   W03
// 031   ----------------------------------------
 BYTE   N96  Ds3  v092
 BYTE   N48  Gn3  v084
 BYTE   W48
 BYTE   TIE  Gn3  v092
 BYTE   W48
// 032   ----------------------------------------
 BYTE   N96  Cn3
 BYTE   W96
// 033   ----------------------------------------
 BYTE   EOT
 BYTE   Gn3
 BYTE   N06  Dn3  v096
 BYTE   N06  Gn3
 BYTE   W16
 BYTE   Dn3  v088
 BYTE   N06  Gn3
 BYTE   W08
 BYTE   N48  Dn3  v096
 BYTE   N48  Gn3
 BYTE   W48
 BYTE   N24  Dn3
 BYTE   N24  An3
 BYTE   W24
// 034   ----------------------------------------
 BYTE   N92  Dn3
 BYTE   N92  An3
 BYTE   W96
// 035   ----------------------------------------
 BYTE   GoTo
  POIN2 Label_4_01558992
 BYTE   FINE

//**************** Track 6 (Midi-Chn.5) ****************//

OgreBattle64DecisiveRandomWizard_006:
// 000   ----------------------------------------
 BYTE   KEYSH   OgreBattle64DecisiveRandomWizard_key+0
 BYTE   VOICE   57
 BYTE   PAN   c_v+0
 BYTE   VOL   40*OgreBattle64DecisiveRandomWizard_mvl/mxv
 BYTE   W96
// 001   ----------------------------------------
 BYTE   W96
// 002   ----------------------------------------
Label_5_01558A9E:
 BYTE   TIE  Dn2  v076
 BYTE   TIE  An2  v088
 BYTE   W96
// 003   ----------------------------------------
 BYTE   W90
 BYTE   W01
 BYTE   EOT
 BYTE   Dn2  v057
 BYTE   W05
// 004   ----------------------------------------
 BYTE   TIE  Dn2  v076
 BYTE   TIE  As2  v088
 BYTE   W96
// 005   ----------------------------------------
 BYTE   W90
 BYTE   W01
 BYTE   EOT
 BYTE   Dn2  v058
 BYTE   W05
// 006   ----------------------------------------
 BYTE   TIE  Fn2  v080
 BYTE   TIE  Cn3  v088
 BYTE   W96
// 007   ----------------------------------------
 BYTE   W90
 BYTE   W01
 BYTE   EOT
 BYTE   Fn2  v060
 BYTE   W05
// 008   ----------------------------------------
 BYTE   TIE  Fn2  v080
 BYTE   TIE  As2  v088
 BYTE   W96
// 009   ----------------------------------------
 BYTE   W90
 BYTE   W01
 BYTE   EOT
 BYTE   Fn2  v058
 BYTE   W05
// 010   ----------------------------------------
 BYTE   TIE  Dn2  v080
 BYTE   TIE  An2  v092
 BYTE   W96
// 011   ----------------------------------------
 BYTE   W90
 BYTE   W01
 BYTE   EOT
 BYTE   Dn2  v057
 BYTE   W05
// 012   ----------------------------------------
 BYTE   TIE  Dn2  v080
 BYTE   TIE  As2  v092
 BYTE   W96
// 013   ----------------------------------------
 BYTE   W90
 BYTE   W01
 BYTE   EOT
 BYTE   Dn2  v058
 BYTE   W05
// 014   ----------------------------------------
 BYTE   TIE  Fn2  v080
 BYTE   TIE  Cn3  v092
 BYTE   W96
// 015   ----------------------------------------
 BYTE   W90
 BYTE   W01
 BYTE   EOT
 BYTE   Fn2  v060
 BYTE   W05
// 016   ----------------------------------------
 BYTE   N96  Fn2  v088
 BYTE   N96  As2
 BYTE   W48
 BYTE   Cn3
 BYTE   W48
// 017   ----------------------------------------
 BYTE   N92  Dn3
 BYTE   W48
 BYTE   N44  An3  v084
 BYTE   W44
 BYTE   W02
 BYTE   N12  Dn3  v096
 BYTE   W02
// 018   ----------------------------------------
 BYTE   Gn3  v108
 BYTE   W48
 BYTE   N44  Dn2  v100
 BYTE   N44  Fn2
 BYTE   N44  An2
 BYTE   W48
// 019   ----------------------------------------
 BYTE   W96
// 020   ----------------------------------------
 BYTE   W96
// 021   ----------------------------------------
 BYTE   W96
// 022   ----------------------------------------
 BYTE   W96
// 023   ----------------------------------------
 BYTE   W96
// 024   ----------------------------------------
 BYTE   W96
// 025   ----------------------------------------
 BYTE   W96
// 026   ----------------------------------------
 BYTE   W96
// 027   ----------------------------------------
 BYTE   N96  An2  v064
 BYTE   W96
// 028   ----------------------------------------
 BYTE   W96
// 029   ----------------------------------------
 BYTE   As2
 BYTE   W96
// 030   ----------------------------------------
 BYTE   N90  Gn3
 BYTE   W96
// 031   ----------------------------------------
 BYTE   N96  Ds3
 BYTE   W96
// 032   ----------------------------------------
 BYTE   Cn3
 BYTE   W96
// 033   ----------------------------------------
 BYTE   W01
 BYTE   TIE  Dn3
 BYTE   W92
 BYTE   W03
// 034   ----------------------------------------
 BYTE   W92
 BYTE   W02
 BYTE   EOT
 BYTE   W02
// 035   ----------------------------------------
 BYTE   GoTo
  POIN2 Label_5_01558A9E
 BYTE   FINE

//**************** Track 7 (Midi-Chn.6) ****************//

OgreBattle64DecisiveRandomWizard_007:
// 000   ----------------------------------------
 BYTE   KEYSH   OgreBattle64DecisiveRandomWizard_key+0
 BYTE   VOICE   40
 BYTE   PAN   c_v-20
 BYTE   VOL   40*OgreBattle64DecisiveRandomWizard_mvl/mxv
 BYTE   N06  Dn3  v064
 BYTE   W06
 BYTE   N02  An3
 BYTE   W06
 BYTE   N06  Dn4  v076
 BYTE   W06
 BYTE   N02  An4  v060
 BYTE   W06
 BYTE   N06  Dn4  v076
 BYTE   W06
 BYTE   N02  An3  v064
 BYTE   W06
 BYTE   N06  Dn3
 BYTE   W06
 BYTE   N02  An3
 BYTE   W06
 BYTE   N06  Dn4  v076
 BYTE   W06
 BYTE   N02  An4  v060
 BYTE   W06
 BYTE   N06  Dn4  v076
 BYTE   W06
 BYTE   N02  An3  v064
 BYTE   W06
 BYTE   N06  Dn3
 BYTE   W06
 BYTE   N02  An3
 BYTE   W06
 BYTE   N06  Dn4  v076
 BYTE   W06
 BYTE   N02  An4  v060
 BYTE   W06
// 001   ----------------------------------------
Label_6_01558B83:
 BYTE   N06  Dn4  v076
 BYTE   W06
 BYTE   N02  An3  v064
 BYTE   W06
 BYTE   N06  Dn3
 BYTE   W06
 BYTE   N02  An3
 BYTE   W06
 BYTE   N06  Dn4  v076
 BYTE   W06
 BYTE   N02  An4  v060
 BYTE   W06
 BYTE   N06  Dn4  v076
 BYTE   W06
 BYTE   N02  An3  v064
 BYTE   W06
 BYTE   N06  Dn3
 BYTE   W06
 BYTE   N02  An3
 BYTE   W06
 BYTE   N06  Dn4  v076
 BYTE   W06
 BYTE   N02  An4  v060
 BYTE   W06
 BYTE   N06  Dn5  v076
 BYTE   W06
 BYTE   N02  An4  v060
 BYTE   W06
 BYTE   N06  Dn4  v076
 BYTE   W06
 BYTE   N02  An3  v064
 BYTE   W06
 BYTE   PEND 
// 002   ----------------------------------------
Label_6_01558BC0:
 BYTE   N06  Dn3  v064
 BYTE   W06
 BYTE   N02  An3
 BYTE   W06
 BYTE   N06  Dn4  v076
 BYTE   W06
 BYTE   N02  An4  v060
 BYTE   W06
 BYTE   N06  Dn4  v076
 BYTE   W06
 BYTE   N02  An3  v064
 BYTE   W06
 BYTE   N06  Dn3
 BYTE   W06
 BYTE   N02  An3
 BYTE   W06
 BYTE   N06  Dn4  v076
 BYTE   W06
 BYTE   N02  An4  v060
 BYTE   W06
 BYTE   N06  Dn4  v076
 BYTE   W06
 BYTE   N02  An3  v064
 BYTE   W06
 BYTE   N06  Dn3
 BYTE   W06
 BYTE   N02  An3
 BYTE   W06
 BYTE   N06  Dn4  v076
 BYTE   W06
 BYTE   N02  An4  v060
 BYTE   W06
 BYTE   PEND 
 BYTE   PATT
  POIN2 Label_6_01558B83
 BYTE   PATT
  POIN2 Label_6_01558BC0
 BYTE   PATT
  POIN2 Label_6_01558B83
 BYTE   PATT
  POIN2 Label_6_01558BC0
 BYTE   PATT
  POIN2 Label_6_01558B83
 BYTE   PATT
  POIN2 Label_6_01558BC0
 BYTE   PATT
  POIN2 Label_6_01558B83
 BYTE   PATT
  POIN2 Label_6_01558BC0
 BYTE   PATT
  POIN2 Label_6_01558B83
 BYTE   PATT
  POIN2 Label_6_01558BC0
 BYTE   PATT
  POIN2 Label_6_01558B83
 BYTE   PATT
  POIN2 Label_6_01558BC0
 BYTE   PATT
  POIN2 Label_6_01558B83
 BYTE   PATT
  POIN2 Label_6_01558BC0
// 003   ----------------------------------------
 BYTE   N06  Dn4  v076
 BYTE   W06
 BYTE   N02  An3  v064
 BYTE   W06
 BYTE   N06  Dn3
 BYTE   W06
 BYTE   N02  An3
 BYTE   W06
 BYTE   N06  Dn4  v076
 BYTE   W06
 BYTE   N02  An4  v060
 BYTE   W06
 BYTE   N06  Dn4  v076
 BYTE   W06
 BYTE   N02  An3  v064
 BYTE   W06
 BYTE   N06  Dn3
 BYTE   W06
 BYTE   N02  An3
 BYTE   W06
 BYTE   N06  Dn4  v076
 BYTE   W06
 BYTE   N02  An4  v060
 BYTE   W06
 BYTE   N06  Dn5  v076
 BYTE   W06
 BYTE   N02  An4  v060
 BYTE   W06
 BYTE   N06  Dn4  v076
 BYTE   W06
 BYTE   N02  An3  v064
 BYTE   W05
 BYTE   N12  Dn3  v096
 BYTE   W01
// 004   ----------------------------------------
 BYTE   W48
 BYTE   N06  An3  v072
 BYTE   W06
 BYTE   Dn3
 BYTE   W06
 BYTE   Fn3  v076
 BYTE   W06
 BYTE   N04  An3
 BYTE   W06
 BYTE   N06  Dn4  v080
 BYTE   W06
 BYTE   An3
 BYTE   W06
 BYTE   Dn4  v084
 BYTE   W06
 BYTE   N04  Fn4
 BYTE   W06
// 005   ----------------------------------------
Label_6_01558C9B:
 BYTE   N44  Fn4  v100
 BYTE   W48
 BYTE   N84  An3
 BYTE   W48
 BYTE   PEND 
// 006   ----------------------------------------
Label_6_01558CA3:
 BYTE   W48
 BYTE   N16  An3  v100
 BYTE   W16
 BYTE   Cn4
 BYTE   W16
 BYTE   En4
 BYTE   W16
 BYTE   PEND 
// 007   ----------------------------------------
Label_6_01558CAD:
 BYTE   N44  Dn4  v100
 BYTE   W48
 BYTE   TIE  Gn3
 BYTE   W48
 BYTE   PEND 
// 008   ----------------------------------------
 BYTE   W60
 BYTE   W01
 BYTE   EOT
 BYTE   W11
 BYTE   N24  Dn3
 BYTE   W24
// 009   ----------------------------------------
 BYTE   N48  Ds3
 BYTE   W48
 BYTE   TIE
 BYTE   W48
// 010   ----------------------------------------
 BYTE   W60
 BYTE   W03
 BYTE   EOT
 BYTE   W09
 BYTE   N12  Gn3
 BYTE   W12
 BYTE   N12
 BYTE   W12
// 011   ----------------------------------------
 BYTE   N96  Fn3
 BYTE   W96
// 012   ----------------------------------------
 BYTE   N80  En3
 BYTE   W96
 BYTE   PATT
  POIN2 Label_6_01558C9B
 BYTE   PATT
  POIN2 Label_6_01558CA3
 BYTE   PATT
  POIN2 Label_6_01558CAD
// 013   ----------------------------------------
 BYTE   W60
 BYTE   W01
 BYTE   EOT
 BYTE   Gn3
 BYTE   W11
 BYTE   N24  Dn3  v100
 BYTE   W24
// 014   ----------------------------------------
 BYTE   N48  Ds3
 BYTE   W48
 BYTE   N84
 BYTE   W48
// 015   ----------------------------------------
 BYTE   W48
 BYTE   N16  Cn4
 BYTE   W16
 BYTE   Ds4
 BYTE   W16
 BYTE   Gn4
 BYTE   W16
// 016   ----------------------------------------
 BYTE   TIE  Dn4  v092
 BYTE   W96
// 017   ----------------------------------------
 BYTE   W92
 BYTE   W01
 BYTE   EOT
 BYTE   W01
 BYTE   W02
// 018   ----------------------------------------
 BYTE   GoTo
  POIN2 Label_6_01558BC0
 BYTE   FINE

//**************** Track 8 (Midi-Chn.7) ****************//

OgreBattle64DecisiveRandomWizard_008:
// 000   ----------------------------------------
 BYTE   KEYSH   OgreBattle64DecisiveRandomWizard_key+0
 BYTE   VOICE   41
 BYTE   PAN   c_v-10
 BYTE   VOL   40*OgreBattle64DecisiveRandomWizard_mvl/mxv
 BYTE   W96
// 001   ----------------------------------------
 BYTE   W96
// 002   ----------------------------------------
Label_7_01558D0E:
 BYTE   W02
 BYTE   N09  Dn2  v084
 BYTE   W12
 BYTE   N09
 BYTE   W12
 BYTE   N09
 BYTE   W12
 BYTE   N09
 BYTE   W12
 BYTE   N09
 BYTE   W12
 BYTE   N09
 BYTE   W12
 BYTE   N09
 BYTE   W12
 BYTE   N09
 BYTE   W10
 BYTE   PEND 
// 003   ----------------------------------------
Label_7_01558D22:
 BYTE   W02
 BYTE   N09  Dn2  v084
 BYTE   W12
 BYTE   N09
 BYTE   W12
 BYTE   N09
 BYTE   W12
 BYTE   N09
 BYTE   W12
 BYTE   N09
 BYTE   W12
 BYTE   Ds2
 BYTE   W12
 BYTE   Dn2
 BYTE   W12
 BYTE   Ds2
 BYTE   W10
 BYTE   PEND 
 BYTE   PATT
  POIN2 Label_7_01558D0E
 BYTE   PATT
  POIN2 Label_7_01558D22
 BYTE   PATT
  POIN2 Label_7_01558D0E
 BYTE   PATT
  POIN2 Label_7_01558D22
// 004   ----------------------------------------
Label_7_01558D4A:
 BYTE   W02
 BYTE   N09  Dn2  v088
 BYTE   W12
 BYTE   N09
 BYTE   W12
 BYTE   N09
 BYTE   W12
 BYTE   N09
 BYTE   W12
 BYTE   N09
 BYTE   W12
 BYTE   N09
 BYTE   W12
 BYTE   N09
 BYTE   W12
 BYTE   N09
 BYTE   W10
 BYTE   PEND 
// 005   ----------------------------------------
Label_7_01558D5E:
 BYTE   W02
 BYTE   N09  Dn2  v088
 BYTE   W12
 BYTE   N09
 BYTE   W12
 BYTE   N09
 BYTE   W12
 BYTE   N09
 BYTE   W12
 BYTE   N09
 BYTE   W12
 BYTE   Ds2
 BYTE   W12
 BYTE   Dn2
 BYTE   W12
 BYTE   Ds2
 BYTE   W10
 BYTE   PEND 
 BYTE   PATT
  POIN2 Label_7_01558D4A
 BYTE   PATT
  POIN2 Label_7_01558D5E
 BYTE   PATT
  POIN2 Label_7_01558D4A
 BYTE   PATT
  POIN2 Label_7_01558D5E
 BYTE   PATT
  POIN2 Label_7_01558D4A
 BYTE   PATT
  POIN2 Label_7_01558D5E
// 006   ----------------------------------------
 BYTE   W02
 BYTE   N09  Dn2  v088
 BYTE   W12
 BYTE   N09
 BYTE   W12
 BYTE   N09
 BYTE   W12
 BYTE   N09
 BYTE   W12
 BYTE   N09
 BYTE   W12
 BYTE   Dn2  v092
 BYTE   W12
 BYTE   N09
 BYTE   W12
 BYTE   N09
 BYTE   W10
// 007   ----------------------------------------
 BYTE   W02
 BYTE   N09
 BYTE   W12
 BYTE   N09
 BYTE   W12
 BYTE   N09
 BYTE   W12
 BYTE   N09
 BYTE   W12
 BYTE   N09
 BYTE   W12
 BYTE   Ds2
 BYTE   W12
 BYTE   Dn2
 BYTE   W12
 BYTE   Ds2
 BYTE   W10
// 008   ----------------------------------------
 BYTE   W02
 BYTE   Dn2  v096
 BYTE   W48
 BYTE   Dn2  v092
 BYTE   W44
 BYTE   W02
 BYTE   PATT
  POIN2 Label_7_01558D0E
// 009   ----------------------------------------
Label_7_01558DC2:
 BYTE   W02
 BYTE   N09  Dn2  v084
 BYTE   W12
 BYTE   N09
 BYTE   W12
 BYTE   N09
 BYTE   W12
 BYTE   N09
 BYTE   W12
 BYTE   Cn2
 BYTE   W12
 BYTE   N09
 BYTE   W12
 BYTE   N09
 BYTE   W12
 BYTE   N09
 BYTE   W10
 BYTE   PEND 
// 010   ----------------------------------------
Label_7_01558DD6:
 BYTE   W02
 BYTE   N09  Gn1  v084
 BYTE   W12
 BYTE   N09
 BYTE   W12
 BYTE   N09
 BYTE   W12
 BYTE   N09
 BYTE   W12
 BYTE   N09
 BYTE   W12
 BYTE   N09
 BYTE   W12
 BYTE   N09
 BYTE   W12
 BYTE   N09
 BYTE   W10
 BYTE   PEND 
 BYTE   PATT
  POIN2 Label_7_01558DD6
// 011   ----------------------------------------
Label_7_01558DEF:
 BYTE   W02
 BYTE   N09  Cn2  v084
 BYTE   W12
 BYTE   N09
 BYTE   W12
 BYTE   N09
 BYTE   W12
 BYTE   N09
 BYTE   W12
 BYTE   N09
 BYTE   W12
 BYTE   N09
 BYTE   W12
 BYTE   N09
 BYTE   W12
 BYTE   N09
 BYTE   W10
 BYTE   PEND 
 BYTE   PATT
  POIN2 Label_7_01558DEF
 BYTE   PATT
  POIN2 Label_7_01558D0E
 BYTE   PATT
  POIN2 Label_7_01558D0E
 BYTE   PATT
  POIN2 Label_7_01558D0E
 BYTE   PATT
  POIN2 Label_7_01558DC2
// 012   ----------------------------------------
 BYTE   W02
 BYTE   N09  Gn1  v084
 BYTE   W12
 BYTE   N09
 BYTE   W12
 BYTE   N09
 BYTE   W12
 BYTE   N09
 BYTE   W12
 BYTE   N09
 BYTE   W12
 BYTE   N09
 BYTE   W12
 BYTE   N09
 BYTE   W12
 BYTE   Gn1  v088
 BYTE   W10
// 013   ----------------------------------------
 BYTE   W02
 BYTE   N09
 BYTE   W12
 BYTE   N09
 BYTE   W12
 BYTE   N09
 BYTE   W12
 BYTE   N09
 BYTE   W12
 BYTE   N09
 BYTE   W12
 BYTE   N09
 BYTE   W12
 BYTE   N09
 BYTE   W12
 BYTE   N09
 BYTE   W10
// 014   ----------------------------------------
Label_7_01558E41:
 BYTE   W02
 BYTE   N09  Cn2  v088
 BYTE   W12
 BYTE   N09
 BYTE   W12
 BYTE   N09
 BYTE   W12
 BYTE   N09
 BYTE   W12
 BYTE   N09
 BYTE   W12
 BYTE   N09
 BYTE   W12
 BYTE   N09
 BYTE   W12
 BYTE   N09
 BYTE   W10
 BYTE   PEND 
 BYTE   PATT
  POIN2 Label_7_01558E41
 BYTE   PATT
  POIN2 Label_7_01558D4A
 BYTE   PATT
  POIN2 Label_7_01558D4A
// 015   ----------------------------------------
 BYTE   GoTo
  POIN2 Label_7_01558D0E
 BYTE   FINE

//**************** Track 9 (Midi-Chn.8) ****************//

OgreBattle64DecisiveRandomWizard_009:
// 000   ----------------------------------------
 BYTE   KEYSH   OgreBattle64DecisiveRandomWizard_key+0
 BYTE   VOICE   47
 BYTE   PAN   c_v-10
 BYTE   VOL   40*OgreBattle64DecisiveRandomWizard_mvl/mxv
 BYTE   W96
// 001   ----------------------------------------
 BYTE   W48
 BYTE   N02  An1  v076
 BYTE   W03
 BYTE   An1  v064
 BYTE   W03
 BYTE   N02
 BYTE   W03
 BYTE   N02
 BYTE   W03
 BYTE   N02
 BYTE   W03
 BYTE   An1  v060
 BYTE   W03
 BYTE   N02
 BYTE   W03
 BYTE   An1  v064
 BYTE   W03
 BYTE   N02
 BYTE   W03
 BYTE   N02
 BYTE   W03
 BYTE   N02
 BYTE   W03
 BYTE   N02
 BYTE   W03
 BYTE   An1  v068
 BYTE   W03
 BYTE   N02
 BYTE   W03
 BYTE   N02
 BYTE   W03
 BYTE   An1  v072
 BYTE   W03
// 002   ----------------------------------------
Label_8_01558E9D:
 BYTE   N23  Dn2  v088
 BYTE   W84
 BYTE   N03  Dn2  v084
 BYTE   W06
 BYTE   N03
 BYTE   W06
 BYTE   PEND 
// 003   ----------------------------------------
 BYTE   N10  An1
 BYTE   W12
 BYTE   N03  Dn2
 BYTE   W06
 BYTE   N03
 BYTE   W06
 BYTE   N23  An1  v088
 BYTE   W72
// 004   ----------------------------------------
 BYTE   W96
// 005   ----------------------------------------
 BYTE   W96
// 006   ----------------------------------------
 BYTE   W36
 BYTE   N03  Dn2  v084
 BYTE   W06
 BYTE   N03
 BYTE   W06
 BYTE   N23  An1
 BYTE   W36
 BYTE   N03
 BYTE   W06
 BYTE   An1  v080
 BYTE   W06
// 007   ----------------------------------------
 BYTE   Fn2
 BYTE   W06
 BYTE   An1
 BYTE   W06
 BYTE   N03
 BYTE   W06
 BYTE   N03
 BYTE   W06
 BYTE   N23  Dn2  v084
 BYTE   W72
// 008   ----------------------------------------
Label_8_01558ED1:
 BYTE   W84
 BYTE   N03  Dn2  v084
 BYTE   W06
 BYTE   N03
 BYTE   W06
 BYTE   PEND 
// 009   ----------------------------------------
 BYTE   N10  An1
 BYTE   W12
 BYTE   Dn2
 BYTE   W12
 BYTE   An1
 BYTE   W12
 BYTE   Dn2
 BYTE   W12
 BYTE   An1
 BYTE   W12
 BYTE   Dn2
 BYTE   W12
 BYTE   An1  v088
 BYTE   W12
 BYTE   Dn2
 BYTE   W12
 BYTE   PATT
  POIN2 Label_8_01558E9D
// 010   ----------------------------------------
 BYTE   N10  An1  v084
 BYTE   W12
 BYTE   N03  Dn2
 BYTE   W06
 BYTE   N03
 BYTE   W06
 BYTE   N23  An1
 BYTE   W72
// 011   ----------------------------------------
 BYTE   W96
// 012   ----------------------------------------
 BYTE   W96
// 013   ----------------------------------------
 BYTE   W36
 BYTE   N03  Dn2  v088
 BYTE   W06
 BYTE   N03
 BYTE   W06
 BYTE   N23  An1  v084
 BYTE   W36
 BYTE   N03
 BYTE   W06
 BYTE   N03
 BYTE   W06
// 014   ----------------------------------------
 BYTE   Fn2
 BYTE   W06
 BYTE   An1
 BYTE   W06
 BYTE   N03
 BYTE   W06
 BYTE   N03
 BYTE   W06
 BYTE   N23  Dn2
 BYTE   W72
 BYTE   PATT
  POIN2 Label_8_01558ED1
// 015   ----------------------------------------
 BYTE   N10  An1  v080
 BYTE   W12
 BYTE   Dn2
 BYTE   W12
 BYTE   An1  v084
 BYTE   W12
 BYTE   Dn2
 BYTE   W12
 BYTE   An1
 BYTE   W12
 BYTE   Dn2
 BYTE   W12
 BYTE   An1  v088
 BYTE   W12
 BYTE   Dn2
 BYTE   W12
// 016   ----------------------------------------
 BYTE   N24
 BYTE   W96
// 017   ----------------------------------------
Label_8_01558F33:
 BYTE   W84
 BYTE   N03  Dn2  v088
 BYTE   W06
 BYTE   N03
 BYTE   W06
 BYTE   PEND 
// 018   ----------------------------------------
 BYTE   N23  An1
 BYTE   W96
 BYTE   PATT
  POIN2 Label_8_01558F33
// 019   ----------------------------------------
Label_8_01558F43:
 BYTE   N10  Gn1  v088
 BYTE   W12
 BYTE   N03  Dn2
 BYTE   W06
 BYTE   N03
 BYTE   W06
 BYTE   N23  Gn1
 BYTE   W72
 BYTE   PEND 
// 020   ----------------------------------------
Label_8_01558F50:
 BYTE   W84
 BYTE   N03  Gn1  v088
 BYTE   W06
 BYTE   N03
 BYTE   W06
 BYTE   PEND 
// 021   ----------------------------------------
 BYTE   N10  Cn2
 BYTE   W12
 BYTE   N03  Gn1
 BYTE   W06
 BYTE   N03
 BYTE   W06
 BYTE   N23  Ds2
 BYTE   W72
// 022   ----------------------------------------
 BYTE   W36
 BYTE   N03  An1
 BYTE   W06
 BYTE   N03
 BYTE   W06
 BYTE   N10  Dn2
 BYTE   W36
 BYTE   N03  An1
 BYTE   W06
 BYTE   N03
 BYTE   W06
// 023   ----------------------------------------
 BYTE   N10  Dn2
 BYTE   W12
 BYTE   An1
 BYTE   W12
 BYTE   Dn2
 BYTE   W12
 BYTE   An1
 BYTE   W12
 BYTE   Dn2
 BYTE   W12
 BYTE   An1  v092
 BYTE   W12
 BYTE   Dn2
 BYTE   W12
 BYTE   An1
 BYTE   W12
 BYTE   PATT
  POIN2 Label_8_01558F33
// 024   ----------------------------------------
 BYTE   N23  An1  v088
 BYTE   W96
 BYTE   PATT
  POIN2 Label_8_01558F33
 BYTE   PATT
  POIN2 Label_8_01558F43
 BYTE   PATT
  POIN2 Label_8_01558F50
// 025   ----------------------------------------
 BYTE   N10  Cn2  v088
 BYTE   W12
 BYTE   N03  Gn1
 BYTE   W06
 BYTE   N03
 BYTE   W06
 BYTE   N24  Ds2
 BYTE   W72
// 026   ----------------------------------------
 BYTE   W36
 BYTE   N03  An1
 BYTE   W06
 BYTE   N03
 BYTE   W06
 BYTE   N23  Dn2
 BYTE   W36
 BYTE   N03  An1
 BYTE   W06
 BYTE   N03
 BYTE   W06
// 027   ----------------------------------------
 BYTE   N10  Dn2  v084
 BYTE   W12
 BYTE   An1
 BYTE   W12
 BYTE   Dn2
 BYTE   W12
 BYTE   An1
 BYTE   W12
 BYTE   Dn2  v088
 BYTE   W12
 BYTE   An1
 BYTE   W12
 BYTE   Dn2
 BYTE   W12
 BYTE   An1
 BYTE   W12
// 028   ----------------------------------------
 BYTE   GoTo
  POIN2 Label_8_01558E9D
 BYTE   FINE

//**************** Track 10 (Midi-Chn.9) ****************//

OgreBattle64DecisiveRandomWizard_010:
// 000   ----------------------------------------
 BYTE   KEYSH   OgreBattle64DecisiveRandomWizard_key+0
 BYTE   VOICE   127
 BYTE   PAN   c_v+0
 BYTE   VOL   40*OgreBattle64DecisiveRandomWizard_mvl/mxv
 BYTE   W96
// 001   ----------------------------------------
 BYTE   W48
 BYTE   N03  An2  v032
 BYTE   W03
 BYTE   An2  v036
 BYTE   W03
 BYTE   N03
 BYTE   W03
 BYTE   An2  v040
 BYTE   W03
 BYTE   N03
 BYTE   W03
 BYTE   An2  v044
 BYTE   W03
 BYTE   N03
 BYTE   W03
 BYTE   An2  v048
 BYTE   W03
 BYTE   N03
 BYTE   W03
 BYTE   An2  v052
 BYTE   W03
 BYTE   N03
 BYTE   W03
 BYTE   An2  v056
 BYTE   W03
 BYTE   N03
 BYTE   W03
 BYTE   An2  v060
 BYTE   W03
 BYTE   N03
 BYTE   W06
// 002   ----------------------------------------
Label_9_01559001:
 BYTE   N01  Dn1  v068
 BYTE   N96  Cs2  v064
 BYTE   N96  An2  v084
 BYTE   W01
 BYTE   N01  Dn1  v060
 BYTE   W02
 BYTE   Dn1  v056
 BYTE   W01
 BYTE   Dn1  v052
 BYTE   W02
 BYTE   Dn1  v044
 BYTE   W01
 BYTE   Dn1  v040
 BYTE   W02
 BYTE   Dn1  v044
 BYTE   W01
 BYTE   Dn1  v040
 BYTE   W02
 BYTE   Dn1  v064
 BYTE   W01
 BYTE   Dn1  v052
 BYTE   W02
 BYTE   Dn1  v040
 BYTE   W01
 BYTE   Dn1  v036
 BYTE   W02
 BYTE   Dn1  v032
 BYTE   W01
 BYTE   Dn1  v024
 BYTE   W05
 BYTE   Dn1  v060
 BYTE   W01
 BYTE   Dn1  v056
 BYTE   W02
 BYTE   Dn1  v052
 BYTE   W01
 BYTE   Dn1  v048
 BYTE   W02
 BYTE   Dn1  v040
 BYTE   W01
 BYTE   Dn1  v036
 BYTE   W02
 BYTE   Dn1  v040
 BYTE   W01
 BYTE   Dn1  v036
 BYTE   W02
 BYTE   Dn1  v060
 BYTE   W01
 BYTE   Dn1  v048
 BYTE   W02
 BYTE   Dn1  v036
 BYTE   W01
 BYTE   Dn1  v032
 BYTE   W02
 BYTE   Dn1  v028
 BYTE   W01
 BYTE   Dn1  v024
 BYTE   W05
 BYTE   Dn1  v060
 BYTE   W01
 BYTE   Dn1  v056
 BYTE   W02
 BYTE   Dn1  v052
 BYTE   W01
 BYTE   Dn1  v048
 BYTE   W02
 BYTE   Dn1  v040
 BYTE   W01
 BYTE   Dn1  v036
 BYTE   W02
 BYTE   Dn1  v040
 BYTE   W01
 BYTE   Dn1  v036
 BYTE   W02
 BYTE   Dn1  v060
 BYTE   W01
 BYTE   Dn1  v048
 BYTE   W02
 BYTE   Dn1  v036
 BYTE   W01
 BYTE   Dn1  v032
 BYTE   W02
 BYTE   Dn1  v028
 BYTE   W01
 BYTE   Dn1  v024
 BYTE   W05
 BYTE   Dn1  v060
 BYTE   W01
 BYTE   Dn1  v056
 BYTE   W02
 BYTE   Dn1  v052
 BYTE   W01
 BYTE   Dn1  v048
 BYTE   W02
 BYTE   Dn1  v040
 BYTE   W01
 BYTE   Dn1  v036
 BYTE   W02
 BYTE   Dn1  v040
 BYTE   W01
 BYTE   Dn1  v036
 BYTE   W02
 BYTE   Dn1  v060
 BYTE   W01
 BYTE   Dn1  v048
 BYTE   W02
 BYTE   Dn1  v036
 BYTE   W01
 BYTE   Dn1  v032
 BYTE   W02
 BYTE   Dn1  v028
 BYTE   W01
 BYTE   Dn1  v024
 BYTE   W05
 BYTE   PEND 
// 003   ----------------------------------------
Label_9_015590B2:
 BYTE   N01  Dn1  v068
 BYTE   W01
 BYTE   Dn1  v060
 BYTE   W02
 BYTE   Dn1  v056
 BYTE   W01
 BYTE   Dn1  v052
 BYTE   W02
 BYTE   Dn1  v044
 BYTE   W01
 BYTE   Dn1  v040
 BYTE   W02
 BYTE   Dn1  v044
 BYTE   W01
 BYTE   Dn1  v040
 BYTE   W02
 BYTE   Dn1  v064
 BYTE   W01
 BYTE   Dn1  v052
 BYTE   W02
 BYTE   Dn1  v040
 BYTE   W01
 BYTE   Dn1  v036
 BYTE   W02
 BYTE   Dn1  v032
 BYTE   W01
 BYTE   Dn1  v024
 BYTE   W05
 BYTE   Dn1  v060
 BYTE   W01
 BYTE   Dn1  v056
 BYTE   W02
 BYTE   Dn1  v052
 BYTE   W01
 BYTE   Dn1  v048
 BYTE   W02
 BYTE   Dn1  v040
 BYTE   W01
 BYTE   Dn1  v036
 BYTE   W02
 BYTE   Dn1  v040
 BYTE   W01
 BYTE   Dn1  v036
 BYTE   W02
 BYTE   Dn1  v060
 BYTE   W01
 BYTE   Dn1  v048
 BYTE   W02
 BYTE   Dn1  v036
 BYTE   W01
 BYTE   Dn1  v032
 BYTE   W02
 BYTE   Dn1  v028
 BYTE   W01
 BYTE   Dn1  v024
 BYTE   W05
 BYTE   Dn1  v060
 BYTE   W01
 BYTE   Dn1  v056
 BYTE   W02
 BYTE   Dn1  v052
 BYTE   W01
 BYTE   Dn1  v048
 BYTE   W02
 BYTE   Dn1  v040
 BYTE   W01
 BYTE   Dn1  v036
 BYTE   W02
 BYTE   Dn1  v040
 BYTE   W01
 BYTE   Dn1  v036
 BYTE   W02
 BYTE   Dn1  v060
 BYTE   W01
 BYTE   Dn1  v048
 BYTE   W02
 BYTE   Dn1  v036
 BYTE   W01
 BYTE   Dn1  v032
 BYTE   W02
 BYTE   Dn1  v028
 BYTE   W01
 BYTE   Dn1  v024
 BYTE   W05
 BYTE   Dn1  v068
 BYTE   W01
 BYTE   Dn1  v060
 BYTE   W02
 BYTE   Dn1  v056
 BYTE   W01
 BYTE   Dn1  v052
 BYTE   W02
 BYTE   Dn1  v044
 BYTE   W01
 BYTE   Dn1  v040
 BYTE   W02
 BYTE   Dn1  v044
 BYTE   W01
 BYTE   Dn1  v040
 BYTE   W02
 BYTE   Dn1  v064
 BYTE   W01
 BYTE   Dn1  v060
 BYTE   W02
 BYTE   Dn1  v056
 BYTE   W01
 BYTE   Dn1  v048
 BYTE   W02
 BYTE   Dn1  v044
 BYTE   W01
 BYTE   Dn1  v040
 BYTE   W02
 BYTE   N01
 BYTE   W01
 BYTE   Dn1  v036
 BYTE   W02
 BYTE   PEND 
// 004   ----------------------------------------
Label_9_01559161:
 BYTE   N01  Dn1  v068
 BYTE   W01
 BYTE   Dn1  v060
 BYTE   W02
 BYTE   Dn1  v056
 BYTE   W01
 BYTE   Dn1  v052
 BYTE   W02
 BYTE   Dn1  v044
 BYTE   W01
 BYTE   Dn1  v040
 BYTE   W02
 BYTE   Dn1  v044
 BYTE   W01
 BYTE   Dn1  v040
 BYTE   W02
 BYTE   Dn1  v064
 BYTE   W01
 BYTE   Dn1  v052
 BYTE   W02
 BYTE   Dn1  v040
 BYTE   W01
 BYTE   Dn1  v036
 BYTE   W02
 BYTE   Dn1  v032
 BYTE   W01
 BYTE   Dn1  v024
 BYTE   W05
 BYTE   Dn1  v060
 BYTE   W01
 BYTE   Dn1  v056
 BYTE   W02
 BYTE   Dn1  v052
 BYTE   W01
 BYTE   Dn1  v048
 BYTE   W02
 BYTE   Dn1  v040
 BYTE   W01
 BYTE   Dn1  v036
 BYTE   W02
 BYTE   Dn1  v040
 BYTE   W01
 BYTE   Dn1  v036
 BYTE   W02
 BYTE   Dn1  v060
 BYTE   W01
 BYTE   Dn1  v048
 BYTE   W02
 BYTE   Dn1  v036
 BYTE   W01
 BYTE   Dn1  v032
 BYTE   W02
 BYTE   Dn1  v028
 BYTE   W01
 BYTE   Dn1  v024
 BYTE   W05
 BYTE   Dn1  v060
 BYTE   W01
 BYTE   Dn1  v056
 BYTE   W02
 BYTE   Dn1  v052
 BYTE   W01
 BYTE   Dn1  v048
 BYTE   W02
 BYTE   Dn1  v040
 BYTE   W01
 BYTE   Dn1  v036
 BYTE   W02
 BYTE   Dn1  v040
 BYTE   W01
 BYTE   Dn1  v036
 BYTE   W02
 BYTE   Dn1  v060
 BYTE   W01
 BYTE   Dn1  v048
 BYTE   W02
 BYTE   Dn1  v036
 BYTE   W01
 BYTE   Dn1  v032
 BYTE   W02
 BYTE   Dn1  v028
 BYTE   W01
 BYTE   Dn1  v024
 BYTE   W05
 BYTE   Dn1  v060
 BYTE   W01
 BYTE   Dn1  v056
 BYTE   W02
 BYTE   Dn1  v052
 BYTE   W01
 BYTE   Dn1  v048
 BYTE   W02
 BYTE   Dn1  v040
 BYTE   W01
 BYTE   Dn1  v036
 BYTE   W02
 BYTE   Dn1  v040
 BYTE   W01
 BYTE   Dn1  v036
 BYTE   W02
 BYTE   Dn1  v060
 BYTE   W01
 BYTE   Dn1  v048
 BYTE   W02
 BYTE   Dn1  v036
 BYTE   W01
 BYTE   Dn1  v032
 BYTE   W02
 BYTE   Dn1  v028
 BYTE   W01
 BYTE   Dn1  v024
 BYTE   W05
 BYTE   PEND 
 BYTE   PATT
  POIN2 Label_9_015590B2
 BYTE   PATT
  POIN2 Label_9_01559161
 BYTE   PATT
  POIN2 Label_9_015590B2
 BYTE   PATT
  POIN2 Label_9_01559161
 BYTE   PATT
  POIN2 Label_9_015590B2
 BYTE   PATT
  POIN2 Label_9_01559001
 BYTE   PATT
  POIN2 Label_9_015590B2
 BYTE   PATT
  POIN2 Label_9_01559161
 BYTE   PATT
  POIN2 Label_9_015590B2
 BYTE   PATT
  POIN2 Label_9_01559161
 BYTE   PATT
  POIN2 Label_9_015590B2
 BYTE   PATT
  POIN2 Label_9_01559161
// 005   ----------------------------------------
 BYTE   N01  Dn1  v068
 BYTE   W01
 BYTE   Dn1  v060
 BYTE   W02
 BYTE   Dn1  v056
 BYTE   W01
 BYTE   Dn1  v052
 BYTE   W02
 BYTE   Dn1  v044
 BYTE   W01
 BYTE   Dn1  v040
 BYTE   W02
 BYTE   Dn1  v044
 BYTE   W01
 BYTE   Dn1  v040
 BYTE   W02
 BYTE   Dn1  v064
 BYTE   W01
 BYTE   Dn1  v052
 BYTE   W02
 BYTE   Dn1  v040
 BYTE   W01
 BYTE   Dn1  v036
 BYTE   W02
 BYTE   Dn1  v032
 BYTE   W01
 BYTE   Dn1  v024
 BYTE   W05
 BYTE   Dn1  v060
 BYTE   W01
 BYTE   Dn1  v056
 BYTE   W02
 BYTE   Dn1  v052
 BYTE   W01
 BYTE   Dn1  v048
 BYTE   W02
 BYTE   Dn1  v040
 BYTE   W01
 BYTE   Dn1  v036
 BYTE   W02
 BYTE   Dn1  v040
 BYTE   W01
 BYTE   Dn1  v036
 BYTE   W02
 BYTE   Dn1  v060
 BYTE   W01
 BYTE   Dn1  v048
 BYTE   W02
 BYTE   Dn1  v036
 BYTE   W01
 BYTE   Dn1  v032
 BYTE   W02
 BYTE   Dn1  v028
 BYTE   W01
 BYTE   Dn1  v024
 BYTE   W05
 BYTE   Dn1  v060
 BYTE   N03  An2  v036
 BYTE   W01
 BYTE   N01  Dn1  v056
 BYTE   W02
 BYTE   Dn1  v052
 BYTE   N03  An2  v036
 BYTE   W01
 BYTE   N01  Dn1  v048
 BYTE   W02
 BYTE   Dn1  v040
 BYTE   N03  An2
 BYTE   W01
 BYTE   N01  Dn1  v036
 BYTE   W02
 BYTE   Dn1  v040
 BYTE   N03  An2
 BYTE   W01
 BYTE   N01  Dn1  v036
 BYTE   W02
 BYTE   Dn1  v060
 BYTE   N03  An2  v044
 BYTE   W01
 BYTE   N01  Dn1  v048
 BYTE   W02
 BYTE   Dn1  v036
 BYTE   N03  An2  v044
 BYTE   W01
 BYTE   N01  Dn1  v032
 BYTE   W02
 BYTE   Dn1  v028
 BYTE   N03  An2  v048
 BYTE   W01
 BYTE   N01  Dn1  v024
 BYTE   W02
 BYTE   N03  An2  v048
 BYTE   W03
 BYTE   N01  Dn1  v068
 BYTE   N03  An2  v052
 BYTE   W01
 BYTE   N01  Dn1  v060
 BYTE   W02
 BYTE   Dn1  v056
 BYTE   N03  An2  v052
 BYTE   W01
 BYTE   N01  Dn1
 BYTE   W02
 BYTE   Dn1  v044
 BYTE   N03  An2  v056
 BYTE   W01
 BYTE   N01  Dn1  v040
 BYTE   W02
 BYTE   Dn1  v044
 BYTE   N03  An2  v056
 BYTE   W01
 BYTE   N01  Dn1  v040
 BYTE   W02
 BYTE   Dn1  v064
 BYTE   N03  An2  v060
 BYTE   W01
 BYTE   N01  Dn1
 BYTE   W02
 BYTE   Dn1  v056
 BYTE   N03  An2  v060
 BYTE   W01
 BYTE   N01  Dn1  v048
 BYTE   W02
 BYTE   Dn1  v044
 BYTE   W01
 BYTE   Dn1  v040
 BYTE   W02
 BYTE   N01
 BYTE   W01
 BYTE   Dn1  v036
 BYTE   W02
// 006   ----------------------------------------
 BYTE   N15  Dn1  v072
 BYTE   N48  Cs2  v100
 BYTE   N48  An2  v127
 BYTE   W48
 BYTE   N01  Dn1  v064
 BYTE   W03
 BYTE   Dn1  v060
 BYTE   W03
 BYTE   Dn1  v052
 BYTE   W03
 BYTE   Dn1  v048
 BYTE   W03
 BYTE   Dn1  v040
 BYTE   W03
 BYTE   Dn1  v044
 BYTE   W03
 BYTE   Dn1  v048
 BYTE   W03
 BYTE   N01
 BYTE   W03
 BYTE   Dn1  v060
 BYTE   W03
 BYTE   Dn1  v052
 BYTE   W03
 BYTE   Dn1  v044
 BYTE   W03
 BYTE   Dn1  v040
 BYTE   W03
 BYTE   Dn1  v048
 BYTE   W03
 BYTE   Dn1  v052
 BYTE   W03
 BYTE   Dn1  v060
 BYTE   W03
 BYTE   Dn1  v064
 BYTE   W03
 BYTE   PATT
  POIN2 Label_9_01559001
 BYTE   PATT
  POIN2 Label_9_015590B2
 BYTE   PATT
  POIN2 Label_9_01559161
 BYTE   PATT
  POIN2 Label_9_015590B2
 BYTE   PATT
  POIN2 Label_9_01559161
 BYTE   PATT
  POIN2 Label_9_015590B2
 BYTE   PATT
  POIN2 Label_9_01559161
 BYTE   PATT
  POIN2 Label_9_015590B2
 BYTE   PATT
  POIN2 Label_9_01559001
 BYTE   PATT
  POIN2 Label_9_015590B2
 BYTE   PATT
  POIN2 Label_9_01559161
 BYTE   PATT
  POIN2 Label_9_015590B2
 BYTE   PATT
  POIN2 Label_9_01559161
 BYTE   PATT
  POIN2 Label_9_015590B2
 BYTE   PATT
  POIN2 Label_9_01559161
 BYTE   PATT
  POIN2 Label_9_015590B2
// 007   ----------------------------------------
 BYTE   GoTo
  POIN2 Label_9_01559001
 BYTE   FINE

//******************************************************//
	ALIGN 4

OgreBattle64DecisiveRandomWizard:
	BYTE	10	// NumTrks
	BYTE	0	// NumBlks
	BYTE	OgreBattle64DecisiveRandomWizard_pri	// Priority
	BYTE	OgreBattle64DecisiveRandomWizard_rev	// Reverb.
    
	POIN2	OgreBattle64DecisiveRandomWizard_grp
    
	POIN2	OgreBattle64DecisiveRandomWizard_001
	POIN2	OgreBattle64DecisiveRandomWizard_002
	POIN2	OgreBattle64DecisiveRandomWizard_003
	POIN2	OgreBattle64DecisiveRandomWizard_004
	POIN2	OgreBattle64DecisiveRandomWizard_005
	POIN2	OgreBattle64DecisiveRandomWizard_006
	POIN2	OgreBattle64DecisiveRandomWizard_007
	POIN2	OgreBattle64DecisiveRandomWizard_008
	POIN2	OgreBattle64DecisiveRandomWizard_009
	POIN2	OgreBattle64DecisiveRandomWizard_010

	
