//Event file generated from Sappy .s format.
	#include "MPlayDef.event"

	#define	TacticsOgreTheKnightofLodisHeroinesThemePsyche_grp  voicegroup000
	#define	TacticsOgreTheKnightofLodisHeroinesThemePsyche_pri  0
	#define	TacticsOgreTheKnightofLodisHeroinesThemePsyche_rev  132
	#define	TacticsOgreTheKnightofLodisHeroinesThemePsyche_mvl  127
	#define	TacticsOgreTheKnightofLodisHeroinesThemePsyche_key  0
	#define	TacticsOgreTheKnightofLodisHeroinesThemePsyche_tbs  1
	#define	TacticsOgreTheKnightofLodisHeroinesThemePsyche_exg  0
	#define	TacticsOgreTheKnightofLodisHeroinesThemePsyche_cmp  1

	// .rodata
	//	TacticsOgreTheKnightofLodisHeroinesThemePsyche
	ALIGN 4


//**************** Track 1 (Midi-Chn.0) ****************//

TacticsOgreTheKnightofLodisHeroinesThemePsyche_001:
// 000   ----------------------------------------
 BYTE   KEYSH   TacticsOgreTheKnightofLodisHeroinesThemePsyche_key+0
Label_0_55C482:
 BYTE   TEMPO   88*TacticsOgreTheKnightofLodisHeroinesThemePsyche_tbs/2
 BYTE   VOICE   1
 BYTE   VOL   31*TacticsOgreTheKnightofLodisHeroinesThemePsyche_mvl/mxv
 BYTE   PAN   c_v+63
 BYTE   W24
 BYTE   TIE  Dn3  v080
 BYTE   W72
// 001   ----------------------------------------
 BYTE   W80
 BYTE   W03
 BYTE   EOT
 BYTE   W13
// 002   ----------------------------------------
 BYTE   W24
 BYTE   TIE  Cn3
 BYTE   W72
// 003   ----------------------------------------
 BYTE   W84
 BYTE   W01
 BYTE   EOT
 BYTE   W11
// 004   ----------------------------------------
 BYTE   W24
 BYTE   TIE  Fn2
 BYTE   W72
// 005   ----------------------------------------
 BYTE   W84
 BYTE   W01
 BYTE   EOT
 BYTE   W11
// 006   ----------------------------------------
 BYTE   W24
 BYTE   N68  Dn3
 BYTE   W72
// 007   ----------------------------------------
 BYTE   W24
 BYTE   An2
 BYTE   W72
// 008   ----------------------------------------
Label_0_55C4AA:
 BYTE   N10  Dn2  v108
 BYTE   W12
 BYTE   An2  v096
 BYTE   W12
 BYTE   Dn3  v112
 BYTE   W12
 BYTE   N09  An2  v100
 BYTE   W12
 BYTE   Dn3  v108
 BYTE   W12
 BYTE   N10  An2  v096
 BYTE   W12
 BYTE   Dn3  v112
 BYTE   W12
 BYTE   N09  An2  v096
 BYTE   W12
 BYTE   PEND 
// 009   ----------------------------------------
 BYTE   PATT
  POIN2 Label_0_55C4AA
// 010   ----------------------------------------
Label_0_55C4CC:
 BYTE   N10  An1  v108
 BYTE   W12
 BYTE   En2  v096
 BYTE   W12
 BYTE   An2  v112
 BYTE   W12
 BYTE   N09  Cn3  v100
 BYTE   W12
 BYTE   An2  v108
 BYTE   W12
 BYTE   N10  En2  v096
 BYTE   W12
 BYTE   An2  v112
 BYTE   W12
 BYTE   N09  En2  v096
 BYTE   W12
 BYTE   PEND 
// 011   ----------------------------------------
 BYTE   N10  An1  v108
 BYTE   W12
 BYTE   En2  v096
 BYTE   W12
 BYTE   An2  v112
 BYTE   W12
 BYTE   N09  En2  v100
 BYTE   W12
 BYTE   Cs3  v108
 BYTE   W12
 BYTE   N10  En2  v096
 BYTE   W12
 BYTE   An2  v112
 BYTE   W12
 BYTE   N09  En2  v096
 BYTE   W12
// 012   ----------------------------------------
Label_0_55C505:
 BYTE   N10  As1  v108
 BYTE   W12
 BYTE   Fn2  v096
 BYTE   W12
 BYTE   As2  v112
 BYTE   W12
 BYTE   N09  Fn2  v100
 BYTE   W12
 BYTE   Dn3  v108
 BYTE   W12
 BYTE   N10  Fn2  v096
 BYTE   W12
 BYTE   As2  v112
 BYTE   W12
 BYTE   N09  Fn2  v096
 BYTE   W12
 BYTE   PEND 
// 013   ----------------------------------------
 BYTE   N10  As1  v108
 BYTE   W12
 BYTE   Fn2  v096
 BYTE   W12
 BYTE   As2  v112
 BYTE   W12
 BYTE   N09  Fn2  v100
 BYTE   W12
 BYTE   Gn2  v108
 BYTE   W12
 BYTE   N10  As2  v096
 BYTE   W12
 BYTE   Dn3  v112
 BYTE   W12
 BYTE   N09  Gn2  v096
 BYTE   W12
// 014   ----------------------------------------
Label_0_55C53E:
 BYTE   N10  An1  v108
 BYTE   W12
 BYTE   En2  v096
 BYTE   W12
 BYTE   An2  v112
 BYTE   W12
 BYTE   N09  En2  v100
 BYTE   W12
 BYTE   An2  v108
 BYTE   W12
 BYTE   N10  En2  v096
 BYTE   W12
 BYTE   An2  v112
 BYTE   W12
 BYTE   N09  En2  v096
 BYTE   W12
 BYTE   PEND 
// 015   ----------------------------------------
 BYTE   PATT
  POIN2 Label_0_55C53E
// 016   ----------------------------------------
 BYTE   PATT
  POIN2 Label_0_55C4AA
// 017   ----------------------------------------
 BYTE   PATT
  POIN2 Label_0_55C4AA
// 018   ----------------------------------------
 BYTE   PATT
  POIN2 Label_0_55C4CC
// 019   ----------------------------------------
 BYTE   N10  An1  v108
 BYTE   W12
 BYTE   En2  v096
 BYTE   W12
 BYTE   An2  v112
 BYTE   W12
 BYTE   N09  En2  v100
 BYTE   W12
 BYTE   Cs3  v108
 BYTE   W12
 BYTE   N10  En2  v096
 BYTE   W12
 BYTE   En3  v112
 BYTE   W12
 BYTE   N09  Cs3  v096
 BYTE   W12
// 020   ----------------------------------------
 BYTE   PATT
  POIN2 Label_0_55C505
// 021   ----------------------------------------
 BYTE   N10  Dn2  v108
 BYTE   W12
 BYTE   An2  v096
 BYTE   W12
 BYTE   Dn3  v112
 BYTE   W12
 BYTE   N09  Fn3  v100
 BYTE   W12
 BYTE   Gn3  v108
 BYTE   W12
 BYTE   N10  As2  v096
 BYTE   W12
 BYTE   Dn3  v112
 BYTE   W12
 BYTE   N09  As2  v096
 BYTE   W12
// 022   ----------------------------------------
 BYTE   PATT
  POIN2 Label_0_55C53E
// 023   ----------------------------------------
 BYTE   PATT
  POIN2 Label_0_55C53E
// 024   ----------------------------------------
Label_0_55C5B6:
 BYTE   N10  Gn1  v108
 BYTE   W12
 BYTE   Dn2  v096
 BYTE   W12
 BYTE   Gn2  v112
 BYTE   W12
 BYTE   N09  Dn2  v100
 BYTE   W12
 BYTE   As2  v108
 BYTE   W12
 BYTE   N10  Dn2  v096
 BYTE   W12
 BYTE   Gn2  v112
 BYTE   W12
 BYTE   N09  Dn2  v096
 BYTE   W12
 BYTE   PEND 
// 025   ----------------------------------------
 BYTE   PATT
  POIN2 Label_0_55C5B6
// 026   ----------------------------------------
Label_0_55C5D8:
 BYTE   N10  Fn1  v108
 BYTE   W12
 BYTE   Cn2  v096
 BYTE   W12
 BYTE   Fn2  v112
 BYTE   W12
 BYTE   N09  Cn2  v100
 BYTE   W12
 BYTE   An2  v108
 BYTE   W12
 BYTE   N10  Cn2  v096
 BYTE   W12
 BYTE   Fn2  v112
 BYTE   W12
 BYTE   N09  Cn2  v096
 BYTE   W12
 BYTE   PEND 
// 027   ----------------------------------------
 BYTE   PATT
  POIN2 Label_0_55C5D8
// 028   ----------------------------------------
Label_0_55C5FA:
 BYTE   N10  Ds1  v108
 BYTE   W12
 BYTE   As1  v096
 BYTE   W12
 BYTE   Ds2  v112
 BYTE   W12
 BYTE   N09  As1  v100
 BYTE   W12
 BYTE   Gn2  v108
 BYTE   W12
 BYTE   N10  As1  v096
 BYTE   W12
 BYTE   Ds2  v112
 BYTE   W12
 BYTE   N09  As1  v096
 BYTE   W12
 BYTE   PEND 
// 029   ----------------------------------------
 BYTE   PATT
  POIN2 Label_0_55C5FA
// 030   ----------------------------------------
Label_0_55C61C:
 BYTE   N10  Dn1  v108
 BYTE   W12
 BYTE   An1  v096
 BYTE   W12
 BYTE   Dn2  v112
 BYTE   W12
 BYTE   N09  An1  v100
 BYTE   W12
 BYTE   Fs2  v108
 BYTE   W12
 BYTE   N10  An1  v096
 BYTE   W12
 BYTE   Dn2  v112
 BYTE   W12
 BYTE   N09  An1  v096
 BYTE   W12
 BYTE   PEND 
// 031   ----------------------------------------
 BYTE   PATT
  POIN2 Label_0_55C61C
// 032   ----------------------------------------
 BYTE   PATT
  POIN2 Label_0_55C5B6
// 033   ----------------------------------------
 BYTE   PATT
  POIN2 Label_0_55C5B6
// 034   ----------------------------------------
 BYTE   PATT
  POIN2 Label_0_55C5D8
// 035   ----------------------------------------
 BYTE   PATT
  POIN2 Label_0_55C5D8
// 036   ----------------------------------------
 BYTE   PATT
  POIN2 Label_0_55C5FA
// 037   ----------------------------------------
 BYTE   PATT
  POIN2 Label_0_55C5FA
// 038   ----------------------------------------
 BYTE   PATT
  POIN2 Label_0_55C61C
// 039   ----------------------------------------
 BYTE   N10  Dn1  v108
 BYTE   W12
 BYTE   An1  v096
 BYTE   W12
 BYTE   Dn2  v112
 BYTE   W12
 BYTE   N09  An1  v100
 BYTE   W12
 BYTE   Cn2  v108
 BYTE   W12
 BYTE   N10  En1  v096
 BYTE   W12
 BYTE   An1  v112
 BYTE   W12
 BYTE   N09  En1  v096
 BYTE   W11
 BYTE   GoTo
  POIN2 Label_0_55C482
 BYTE   FINE

//**************** Track 2 (Midi-Chn.1) ****************//

TacticsOgreTheKnightofLodisHeroinesThemePsyche_002:
// 000   ----------------------------------------
 BYTE   KEYSH   TacticsOgreTheKnightofLodisHeroinesThemePsyche_key+0
Label_1_0103E346:
 BYTE   VOICE   1
 BYTE   VOL   32*TacticsOgreTheKnightofLodisHeroinesThemePsyche_mvl/mxv
 BYTE   PAN   c_v-64
 BYTE   BEND   c_v+0
 BYTE   W12
 BYTE   TIE  An2  v080
 BYTE   W84
// 001   ----------------------------------------
 BYTE   W80
 BYTE   W03
 BYTE   EOT
 BYTE   W13
// 002   ----------------------------------------
 BYTE   W12
 BYTE   TIE  Gn2
 BYTE   W84
// 003   ----------------------------------------
 BYTE   W84
 BYTE   W02
 BYTE   EOT
 BYTE   W10
// 004   ----------------------------------------
 BYTE   W12
 BYTE   TIE  Dn2
 BYTE   W84
// 005   ----------------------------------------
 BYTE   W84
 BYTE   W02
 BYTE   EOT
 BYTE   W10
// 006   ----------------------------------------
 BYTE   W12
 BYTE   N80  An2
 BYTE   W84
// 007   ----------------------------------------
 BYTE   W12
 BYTE   En2
 BYTE   W84
// 008   ----------------------------------------
 BYTE   BEND   c_v-3
 BYTE   W06
 BYTE   N10  Dn2  v108
 BYTE   W12
 BYTE   An2  v096
 BYTE   W12
 BYTE   Dn3  v112
 BYTE   W12
 BYTE   N09  An2  v100
 BYTE   W12
 BYTE   Dn3  v108
 BYTE   W12
 BYTE   N10  An2  v096
 BYTE   W12
 BYTE   Dn3  v112
 BYTE   W12
 BYTE   N09  An2  v096
 BYTE   W06
// 009   ----------------------------------------
Label_1_0103E38D:
 BYTE   W06
 BYTE   N10  Dn2  v108
 BYTE   W12
 BYTE   An2  v096
 BYTE   W12
 BYTE   Dn3  v112
 BYTE   W12
 BYTE   N09  An2  v100
 BYTE   W12
 BYTE   Dn3  v108
 BYTE   W12
 BYTE   N10  An2  v096
 BYTE   W12
 BYTE   Dn3  v112
 BYTE   W12
 BYTE   N09  An2  v096
 BYTE   W06
 BYTE   PEND 
// 010   ----------------------------------------
Label_1_0103E3AB:
 BYTE   W06
 BYTE   N10  An1  v108
 BYTE   W12
 BYTE   En2  v096
 BYTE   W12
 BYTE   An2  v112
 BYTE   W12
 BYTE   N09  Cn3  v100
 BYTE   W12
 BYTE   An2  v108
 BYTE   W12
 BYTE   N10  En2  v096
 BYTE   W12
 BYTE   An2  v112
 BYTE   W12
 BYTE   N09  En2  v096
 BYTE   W06
 BYTE   PEND 
// 011   ----------------------------------------
 BYTE   W06
 BYTE   N10  An1  v108
 BYTE   W12
 BYTE   En2  v096
 BYTE   W12
 BYTE   An2  v112
 BYTE   W12
 BYTE   N09  En2  v100
 BYTE   W12
 BYTE   Cs3  v108
 BYTE   W12
 BYTE   N10  En2  v096
 BYTE   W12
 BYTE   An2  v112
 BYTE   W12
 BYTE   N09  En2  v096
 BYTE   W06
// 012   ----------------------------------------
Label_1_0103E3E6:
 BYTE   W06
 BYTE   N10  As1  v108
 BYTE   W12
 BYTE   Fn2  v096
 BYTE   W12
 BYTE   As2  v112
 BYTE   W12
 BYTE   N09  Fn2  v100
 BYTE   W12
 BYTE   Dn3  v108
 BYTE   W12
 BYTE   N10  Fn2  v096
 BYTE   W12
 BYTE   As2  v112
 BYTE   W12
 BYTE   N09  Fn2  v096
 BYTE   W06
 BYTE   PEND 
// 013   ----------------------------------------
 BYTE   W06
 BYTE   N10  As1  v108
 BYTE   W12
 BYTE   Fn2  v096
 BYTE   W12
 BYTE   As2  v112
 BYTE   W12
 BYTE   N09  Fn2  v100
 BYTE   W12
 BYTE   Gn2  v108
 BYTE   W12
 BYTE   N10  As2  v096
 BYTE   W12
 BYTE   Dn3  v112
 BYTE   W12
 BYTE   N09  Gn2  v096
 BYTE   W06
// 014   ----------------------------------------
Label_1_0103E421:
 BYTE   W06
 BYTE   N10  An1  v108
 BYTE   W12
 BYTE   En2  v096
 BYTE   W12
 BYTE   An2  v112
 BYTE   W12
 BYTE   N09  En2  v100
 BYTE   W12
 BYTE   An2  v108
 BYTE   W12
 BYTE   N10  En2  v096
 BYTE   W12
 BYTE   An2  v112
 BYTE   W12
 BYTE   N09  En2  v096
 BYTE   W06
 BYTE   PEND 
// 015   ----------------------------------------
 BYTE   PATT
  POIN2 Label_1_0103E421
// 016   ----------------------------------------
 BYTE   PATT
  POIN2 Label_1_0103E38D
// 017   ----------------------------------------
 BYTE   PATT
  POIN2 Label_1_0103E38D
// 018   ----------------------------------------
 BYTE   PATT
  POIN2 Label_1_0103E3AB
// 019   ----------------------------------------
 BYTE   W06
 BYTE   N10  An1  v108
 BYTE   W12
 BYTE   En2  v096
 BYTE   W12
 BYTE   An2  v112
 BYTE   W12
 BYTE   N09  En2  v100
 BYTE   W12
 BYTE   Cs3  v108
 BYTE   W12
 BYTE   N10  En2  v096
 BYTE   W12
 BYTE   En3  v112
 BYTE   W12
 BYTE   N09  Cs3  v096
 BYTE   W06
// 020   ----------------------------------------
 BYTE   PATT
  POIN2 Label_1_0103E3E6
// 021   ----------------------------------------
 BYTE   W06
 BYTE   N10  Dn2  v108
 BYTE   W12
 BYTE   An2  v096
 BYTE   W12
 BYTE   Dn3  v112
 BYTE   W12
 BYTE   N09  Fn3  v100
 BYTE   W12
 BYTE   Gn3  v108
 BYTE   W12
 BYTE   N10  As2  v096
 BYTE   W12
 BYTE   Dn3  v112
 BYTE   W12
 BYTE   N09  As2  v096
 BYTE   W06
// 022   ----------------------------------------
 BYTE   PATT
  POIN2 Label_1_0103E421
// 023   ----------------------------------------
 BYTE   PATT
  POIN2 Label_1_0103E421
// 024   ----------------------------------------
Label_1_0103E49C:
 BYTE   W06
 BYTE   N10  Gn1  v108
 BYTE   W12
 BYTE   Dn2  v096
 BYTE   W12
 BYTE   Gn2  v112
 BYTE   W12
 BYTE   N09  Dn2  v100
 BYTE   W12
 BYTE   As2  v108
 BYTE   W12
 BYTE   N10  Dn2  v096
 BYTE   W12
 BYTE   Gn2  v112
 BYTE   W12
 BYTE   N09  Dn2  v096
 BYTE   W06
 BYTE   PEND 
// 025   ----------------------------------------
 BYTE   PATT
  POIN2 Label_1_0103E49C
// 026   ----------------------------------------
Label_1_0103E4BF:
 BYTE   W06
 BYTE   N10  Fn1  v108
 BYTE   W12
 BYTE   Cn2  v096
 BYTE   W12
 BYTE   Fn2  v112
 BYTE   W12
 BYTE   N09  Cn2  v100
 BYTE   W12
 BYTE   An2  v108
 BYTE   W12
 BYTE   N10  Cn2  v096
 BYTE   W12
 BYTE   Fn2  v112
 BYTE   W12
 BYTE   N09  Cn2  v096
 BYTE   W06
 BYTE   PEND 
// 027   ----------------------------------------
 BYTE   PATT
  POIN2 Label_1_0103E4BF
// 028   ----------------------------------------
Label_1_0103E4E2:
 BYTE   W06
 BYTE   N10  Ds1  v108
 BYTE   W12
 BYTE   As1  v096
 BYTE   W12
 BYTE   Ds2  v112
 BYTE   W12
 BYTE   N09  As1  v100
 BYTE   W12
 BYTE   Gn2  v108
 BYTE   W12
 BYTE   N10  As1  v096
 BYTE   W12
 BYTE   Ds2  v112
 BYTE   W12
 BYTE   N09  As1  v096
 BYTE   W06
 BYTE   PEND 
// 029   ----------------------------------------
 BYTE   PATT
  POIN2 Label_1_0103E4E2
// 030   ----------------------------------------
Label_1_0103E505:
 BYTE   W06
 BYTE   N10  Dn1  v108
 BYTE   W12
 BYTE   An1  v096
 BYTE   W12
 BYTE   Dn2  v112
 BYTE   W12
 BYTE   N09  An1  v100
 BYTE   W12
 BYTE   Fs2  v108
 BYTE   W12
 BYTE   N10  An1  v096
 BYTE   W12
 BYTE   Dn2  v112
 BYTE   W12
 BYTE   N09  An1  v096
 BYTE   W06
 BYTE   PEND 
// 031   ----------------------------------------
 BYTE   PATT
  POIN2 Label_1_0103E505
// 032   ----------------------------------------
 BYTE   PATT
  POIN2 Label_1_0103E49C
// 033   ----------------------------------------
 BYTE   PATT
  POIN2 Label_1_0103E49C
// 034   ----------------------------------------
 BYTE   PATT
  POIN2 Label_1_0103E4BF
// 035   ----------------------------------------
 BYTE   PATT
  POIN2 Label_1_0103E4BF
// 036   ----------------------------------------
 BYTE   PATT
  POIN2 Label_1_0103E4E2
// 037   ----------------------------------------
 BYTE   PATT
  POIN2 Label_1_0103E4E2
// 038   ----------------------------------------
 BYTE   PATT
  POIN2 Label_1_0103E505
// 039   ----------------------------------------
 BYTE   W06
 BYTE   N10  Dn1  v108
 BYTE   W12
 BYTE   An1  v096
 BYTE   W12
 BYTE   Dn2  v112
 BYTE   W12
 BYTE   N09  An1  v100
 BYTE   W12
 BYTE   Cn2  v108
 BYTE   W12
 BYTE   N10  En1  v096
 BYTE   W12
 BYTE   An1  v112
 BYTE   W12
 BYTE   N05  En1  v096
 BYTE   W05
 BYTE   GoTo
  POIN2 Label_1_0103E346
 BYTE   FINE

//**************** Track 3 (Midi-Chn.2) ****************//

TacticsOgreTheKnightofLodisHeroinesThemePsyche_003:
// 000   ----------------------------------------
 BYTE   KEYSH   TacticsOgreTheKnightofLodisHeroinesThemePsyche_key+0
Label_2_55BEEA:
 BYTE   VOICE   50
 BYTE   VOL   34*TacticsOgreTheKnightofLodisHeroinesThemePsyche_mvl/mxv
 BYTE   PAN   c_v+0
 BYTE   TIE  Dn2  v112
 BYTE   W96
// 001   ----------------------------------------
 BYTE   W80
 BYTE   W03
 BYTE   EOT
 BYTE   W13
// 002   ----------------------------------------
 BYTE   TIE  Cn2
 BYTE   W96
// 003   ----------------------------------------
 BYTE   W84
 BYTE   W02
 BYTE   EOT
 BYTE   W10
// 004   ----------------------------------------
 BYTE   TIE  As1
 BYTE   W96
// 005   ----------------------------------------
 BYTE   W84
 BYTE   W02
 BYTE   EOT
 BYTE   W10
// 006   ----------------------------------------
 BYTE   N92  Dn2
 BYTE   W96
// 007   ----------------------------------------
 BYTE   An1
 BYTE   W96
// 008   ----------------------------------------
 BYTE   Dn2
 BYTE   W96
// 009   ----------------------------------------
 BYTE   N92
 BYTE   W96
// 010   ----------------------------------------
 BYTE   An1
 BYTE   W96
// 011   ----------------------------------------
 BYTE   N92
 BYTE   W96
// 012   ----------------------------------------
 BYTE   TIE  As1
 BYTE   W96
// 013   ----------------------------------------
 BYTE   W44
 BYTE   EOT
 BYTE   W04
 BYTE   N44  Gn1
 BYTE   W48
// 014   ----------------------------------------
 BYTE   N92  An1
 BYTE   W96
// 015   ----------------------------------------
 BYTE   N92
 BYTE   W96
// 016   ----------------------------------------
 BYTE   Dn2
 BYTE   W96
// 017   ----------------------------------------
 BYTE   N92
 BYTE   W96
// 018   ----------------------------------------
 BYTE   An1
 BYTE   W96
// 019   ----------------------------------------
 BYTE   N92
 BYTE   W96
// 020   ----------------------------------------
 BYTE   As1
 BYTE   W96
// 021   ----------------------------------------
 BYTE   N44  Dn2
 BYTE   W48
 BYTE   Gn1
 BYTE   W48
// 022   ----------------------------------------
 BYTE   N92  An1
 BYTE   W96
// 023   ----------------------------------------
 BYTE   N92
 BYTE   W96
// 024   ----------------------------------------
Label_2_55BF35:
 BYTE   N44  Gn1  v112
 BYTE   W48
 BYTE   N44
 BYTE   W48
 BYTE   PEND 
// 025   ----------------------------------------
 BYTE   PATT
  POIN2 Label_2_55BF35
// 026   ----------------------------------------
Label_2_55BF41:
 BYTE   N44  Fn2  v112
 BYTE   W48
 BYTE   N44
 BYTE   W48
 BYTE   PEND 
// 027   ----------------------------------------
 BYTE   PATT
  POIN2 Label_2_55BF41
// 028   ----------------------------------------
Label_2_55BF4D:
 BYTE   N44  Ds2  v112
 BYTE   W48
 BYTE   N44
 BYTE   W48
 BYTE   PEND 
// 029   ----------------------------------------
 BYTE   PATT
  POIN2 Label_2_55BF4D
// 030   ----------------------------------------
Label_2_55BF59:
 BYTE   N44  Dn2  v112
 BYTE   W48
 BYTE   N44
 BYTE   W48
 BYTE   PEND 
// 031   ----------------------------------------
 BYTE   PATT
  POIN2 Label_2_55BF59
// 032   ----------------------------------------
 BYTE   PATT
  POIN2 Label_2_55BF35
// 033   ----------------------------------------
 BYTE   PATT
  POIN2 Label_2_55BF35
// 034   ----------------------------------------
 BYTE   PATT
  POIN2 Label_2_55BF41
// 035   ----------------------------------------
 BYTE   PATT
  POIN2 Label_2_55BF41
// 036   ----------------------------------------
 BYTE   PATT
  POIN2 Label_2_55BF4D
// 037   ----------------------------------------
 BYTE   PATT
  POIN2 Label_2_55BF4D
// 038   ----------------------------------------
 BYTE   PATT
  POIN2 Label_2_55BF59
// 039   ----------------------------------------
 BYTE   N44  Dn2  v112
 BYTE   W48
 BYTE   An1
 BYTE   W44
 BYTE   W03
 BYTE   GoTo
  POIN2 Label_2_55BEEA
 BYTE   FINE

//**************** Track 4 (Midi-Chn.3) ****************//

TacticsOgreTheKnightofLodisHeroinesThemePsyche_004:
// 000   ----------------------------------------
 BYTE   KEYSH   TacticsOgreTheKnightofLodisHeroinesThemePsyche_key+0
Label_3_55C136:
 BYTE   VOICE   67
 BYTE   VOL   55*TacticsOgreTheKnightofLodisHeroinesThemePsyche_mvl/mxv
 BYTE   PAN   c_v+0
 BYTE   W24
 BYTE   N23  Fn4  v112
 BYTE   W24
 BYTE   N36  En4
 BYTE   W36
 BYTE   N10  Gn3
 BYTE   W12
// 001   ----------------------------------------
 BYTE   N80  An3
 BYTE   W96
// 002   ----------------------------------------
Label_3_55C14A:
 BYTE   W24
 BYTE   N23  Fn4  v112
 BYTE   W24
 BYTE   N32  En4
 BYTE   W36
 BYTE   N13  Gn3
 BYTE   W12
 BYTE   PEND 
// 003   ----------------------------------------
 BYTE   N88  An3
 BYTE   W96
// 004   ----------------------------------------
Label_3_55C159:
 BYTE   N16  Dn4  v112
 BYTE   W16
 BYTE   N17  Cn4
 BYTE   W16
 BYTE   N15  Dn4
 BYTE   W16
 BYTE   N88  Fn3
 BYTE   W48
 BYTE   PEND 
// 005   ----------------------------------------
 BYTE   W48
 BYTE   N44  Gn3
 BYTE   W48
// 006   ----------------------------------------
 BYTE   TIE  An3
 BYTE   W96
// 007   ----------------------------------------
 BYTE   W80
 BYTE   W01
 BYTE   EOT
 BYTE   W15
// 008   ----------------------------------------
Label_3_55C172:
 BYTE   W24
 BYTE   N23  Fn4  v112
 BYTE   W24
 BYTE   N36  En4
 BYTE   W36
 BYTE   N10  Gn3
 BYTE   W12
 BYTE   PEND 
// 009   ----------------------------------------
 BYTE   N92  An3
 BYTE   W96
// 010   ----------------------------------------
 BYTE   PATT
  POIN2 Label_3_55C14A
// 011   ----------------------------------------
 BYTE   N88  An3  v112
 BYTE   W96
// 012   ----------------------------------------
 BYTE   PATT
  POIN2 Label_3_55C159
// 013   ----------------------------------------
 BYTE   W48
 BYTE   N44  Gn3  v112
 BYTE   W48
// 014   ----------------------------------------
 BYTE   TIE  An3
 BYTE   W96
// 015   ----------------------------------------
 BYTE   W44
 BYTE   W02
 BYTE   EOT
 BYTE   W48
 BYTE   W02
// 016   ----------------------------------------
 BYTE   PATT
  POIN2 Label_3_55C172
// 017   ----------------------------------------
 BYTE   N92  An3  v112
 BYTE   W96
// 018   ----------------------------------------
 BYTE   PATT
  POIN2 Label_3_55C14A
// 019   ----------------------------------------
 BYTE   N88  An3  v112
 BYTE   W96
// 020   ----------------------------------------
 BYTE   PATT
  POIN2 Label_3_55C159
// 021   ----------------------------------------
 BYTE   W48
 BYTE   N23  Gn3  v112
 BYTE   W24
 BYTE   As3
 BYTE   W24
// 022   ----------------------------------------
 BYTE   TIE  Cs4
 BYTE   W96
// 023   ----------------------------------------
 BYTE   W24
 BYTE   EOT
 BYTE   W24
 BYTE   N44  An3
 BYTE   W48
// 024   ----------------------------------------
Label_3_55C1C3:
 BYTE   N44  As3  v112
 BYTE   W48
 BYTE   N15
 BYTE   W16
 BYTE   N16  Cn4
 BYTE   W16
 BYTE   N14  Dn4
 BYTE   W16
 BYTE   PEND 
// 025   ----------------------------------------
 BYTE   N15
 BYTE   W16
 BYTE   N16  Ds4
 BYTE   W16
 BYTE   N15  Dn4
 BYTE   W16
 BYTE   N24  Cn4
 BYTE   W24
 BYTE   N23  As3
 BYTE   W24
// 026   ----------------------------------------
 BYTE   N96  An3
 BYTE   W96
// 027   ----------------------------------------
 BYTE   W96
// 028   ----------------------------------------
Label_3_55C1E2:
 BYTE   N44  Gn3  v112
 BYTE   W48
 BYTE   N15
 BYTE   W16
 BYTE   N16  An3
 BYTE   W16
 BYTE   N14  As3
 BYTE   W16
 BYTE   PEND 
// 029   ----------------------------------------
 BYTE   N15
 BYTE   W16
 BYTE   N16  Cn4
 BYTE   W16
 BYTE   N15  As3
 BYTE   W16
 BYTE   N24  An3
 BYTE   W24
 BYTE   N23  Gn3
 BYTE   W24
// 030   ----------------------------------------
 BYTE   N96  Fs3
 BYTE   W96
// 031   ----------------------------------------
 BYTE   W48
 BYTE   N44  An3
 BYTE   W48
// 032   ----------------------------------------
 BYTE   PATT
  POIN2 Label_3_55C1C3
// 033   ----------------------------------------
 BYTE   N15  Dn4  v112
 BYTE   W16
 BYTE   N16  Ds4
 BYTE   W16
 BYTE   N15  Dn4
 BYTE   W16
 BYTE   N24  Cn4
 BYTE   W24
 BYTE   N23  Dn4
 BYTE   W24
// 034   ----------------------------------------
 BYTE   N48  Fn4
 BYTE   W48
 BYTE   N92  Cn4
 BYTE   W48
// 035   ----------------------------------------
 BYTE   W72
 BYTE   N11  As3
 BYTE   W12
 BYTE   An3
 BYTE   W12
// 036   ----------------------------------------
 BYTE   PATT
  POIN2 Label_3_55C1E2
// 037   ----------------------------------------
 BYTE   N15  As3  v112
 BYTE   W16
 BYTE   N16  Cn4
 BYTE   W16
 BYTE   N15  As3
 BYTE   W16
 BYTE   N24  Cn4
 BYTE   W24
 BYTE   N23  Ds4
 BYTE   W24
// 038   ----------------------------------------
 BYTE   N96  Dn4
 BYTE   W96
// 039   ----------------------------------------
 BYTE   W92
 BYTE   W03
 BYTE   GoTo
  POIN2 Label_3_55C136
 BYTE   FINE

//**************** Track 5 (Midi-Chn.4) ****************//

TacticsOgreTheKnightofLodisHeroinesThemePsyche_005:
// 000   ----------------------------------------
 BYTE   KEYSH   TacticsOgreTheKnightofLodisHeroinesThemePsyche_key+0
Label_4_55BBFA:
 BYTE   VOICE   67
 BYTE   VOL   43*TacticsOgreTheKnightofLodisHeroinesThemePsyche_mvl/mxv
 BYTE   PAN   c_v-64
 BYTE   BEND   c_v-2
 BYTE   W30
 BYTE   N23  Fn4  v112
 BYTE   W24
 BYTE   N36  En4
 BYTE   W36
 BYTE   N10  Gn3
 BYTE   W06
// 001   ----------------------------------------
 BYTE   W06
 BYTE   N80  An3
 BYTE   W90
// 002   ----------------------------------------
Label_4_55BC11:
 BYTE   W30
 BYTE   N23  Fn4  v112
 BYTE   W24
 BYTE   N32  En4
 BYTE   W36
 BYTE   N13  Gn3
 BYTE   W06
 BYTE   PEND 
// 003   ----------------------------------------
 BYTE   W06
 BYTE   N88  An3
 BYTE   W90
// 004   ----------------------------------------
Label_4_55BC21:
 BYTE   W06
 BYTE   N16  Dn4  v112
 BYTE   W16
 BYTE   N17  Cn4
 BYTE   W16
 BYTE   N15  Dn4
 BYTE   W16
 BYTE   N88  Fn3
 BYTE   W42
 BYTE   PEND 
// 005   ----------------------------------------
 BYTE   W54
 BYTE   N44  Gn3
 BYTE   W42
// 006   ----------------------------------------
Label_4_55BC34:
 BYTE   W06
 BYTE   TIE  An3  v112
 BYTE   W90
 BYTE   PEND 
// 007   ----------------------------------------
 BYTE   W84
 BYTE   W03
 BYTE   EOT
 BYTE   W09
// 008   ----------------------------------------
Label_4_55BC3E:
 BYTE   W30
 BYTE   N23  Fn4  v112
 BYTE   W24
 BYTE   N36  En4
 BYTE   W36
 BYTE   N10  Gn3
 BYTE   W06
 BYTE   PEND 
// 009   ----------------------------------------
 BYTE   W06
 BYTE   N92  An3
 BYTE   W90
// 010   ----------------------------------------
 BYTE   PATT
  POIN2 Label_4_55BC11
// 011   ----------------------------------------
 BYTE   W06
 BYTE   N88  An3  v112
 BYTE   W90
// 012   ----------------------------------------
 BYTE   PATT
  POIN2 Label_4_55BC21
// 013   ----------------------------------------
 BYTE   W54
 BYTE   N44  Gn3  v112
 BYTE   W42
// 014   ----------------------------------------
 BYTE   PATT
  POIN2 Label_4_55BC34
// 015   ----------------------------------------
 BYTE   W52
 BYTE   EOT
 BYTE   An3
 BYTE   W44
// 016   ----------------------------------------
 BYTE   PATT
  POIN2 Label_4_55BC3E
// 017   ----------------------------------------
 BYTE   W06
 BYTE   N92  An3  v112
 BYTE   W90
// 018   ----------------------------------------
 BYTE   PATT
  POIN2 Label_4_55BC11
// 019   ----------------------------------------
 BYTE   W06
 BYTE   N88  An3  v112
 BYTE   W90
// 020   ----------------------------------------
 BYTE   PATT
  POIN2 Label_4_55BC21
// 021   ----------------------------------------
 BYTE   W54
 BYTE   N23  Gn3  v112
 BYTE   W24
 BYTE   As3
 BYTE   W18
// 022   ----------------------------------------
 BYTE   W06
 BYTE   TIE  Cs4
 BYTE   W90
// 023   ----------------------------------------
 BYTE   W30
 BYTE   EOT
 BYTE   W24
 BYTE   N44  An3
 BYTE   W42
// 024   ----------------------------------------
Label_4_55BC95:
 BYTE   W06
 BYTE   N44  As3  v112
 BYTE   W48
 BYTE   N15
 BYTE   W16
 BYTE   N16  Cn4
 BYTE   W16
 BYTE   N14  Dn4
 BYTE   W10
 BYTE   PEND 
// 025   ----------------------------------------
 BYTE   W06
 BYTE   N15
 BYTE   W16
 BYTE   N16  Ds4
 BYTE   W16
 BYTE   N15  Dn4
 BYTE   W16
 BYTE   N24  Cn4
 BYTE   W24
 BYTE   N23  As3
 BYTE   W18
// 026   ----------------------------------------
 BYTE   W06
 BYTE   N96  An3
 BYTE   W90
// 027   ----------------------------------------
 BYTE   W96
// 028   ----------------------------------------
Label_4_55BCB7:
 BYTE   W06
 BYTE   N44  Gn3  v112
 BYTE   W48
 BYTE   N15
 BYTE   W16
 BYTE   N16  An3
 BYTE   W16
 BYTE   N14  As3
 BYTE   W10
 BYTE   PEND 
// 029   ----------------------------------------
 BYTE   W06
 BYTE   N15
 BYTE   W16
 BYTE   N16  Cn4
 BYTE   W16
 BYTE   N15  As3
 BYTE   W16
 BYTE   N24  An3
 BYTE   W24
 BYTE   N23  Gn3
 BYTE   W18
// 030   ----------------------------------------
 BYTE   W06
 BYTE   N96  Fs3
 BYTE   W90
// 031   ----------------------------------------
 BYTE   W54
 BYTE   N44  An3
 BYTE   W42
// 032   ----------------------------------------
 BYTE   PATT
  POIN2 Label_4_55BC95
// 033   ----------------------------------------
 BYTE   W06
 BYTE   N15  Dn4  v112
 BYTE   W16
 BYTE   N16  Ds4
 BYTE   W16
 BYTE   N15  Dn4
 BYTE   W16
 BYTE   N24  Cn4
 BYTE   W24
 BYTE   N23  Dn4
 BYTE   W18
// 034   ----------------------------------------
 BYTE   W06
 BYTE   N48  Fn4
 BYTE   W48
 BYTE   N92  Cn4
 BYTE   W42
// 035   ----------------------------------------
 BYTE   W78
 BYTE   N11  As3
 BYTE   W12
 BYTE   An3
 BYTE   W06
// 036   ----------------------------------------
 BYTE   PATT
  POIN2 Label_4_55BCB7
// 037   ----------------------------------------
 BYTE   W06
 BYTE   N15  As3  v112
 BYTE   W16
 BYTE   N16  Cn4
 BYTE   W16
 BYTE   N15  As3
 BYTE   W16
 BYTE   N24  Cn4
 BYTE   W24
 BYTE   N23  Ds4
 BYTE   W18
// 038   ----------------------------------------
 BYTE   W06
 BYTE   N96  Dn4
 BYTE   W90
// 039   ----------------------------------------
 BYTE   W92
 BYTE   W03
 BYTE   GoTo
  POIN2 Label_4_55BBFA
 BYTE   FINE

//**************** Track 6 (Midi-Chn.5) ****************//

TacticsOgreTheKnightofLodisHeroinesThemePsyche_006:
// 000   ----------------------------------------
 BYTE   KEYSH   TacticsOgreTheKnightofLodisHeroinesThemePsyche_key+0
Label_5_0103E666:
 BYTE   VOICE   67
 BYTE   VOL   24*TacticsOgreTheKnightofLodisHeroinesThemePsyche_mvl/mxv
 BYTE   PAN   c_v+63
 BYTE   BEND   c_v-3
 BYTE   W36
 BYTE   N23  Fn4  v112
 BYTE   W24
 BYTE   N36  En4
 BYTE   W36
// 001   ----------------------------------------
 BYTE   N10  Gn3
 BYTE   W12
 BYTE   N80  An3
 BYTE   W84
// 002   ----------------------------------------
Label_5_0103E67C:
 BYTE   W36
 BYTE   N23  Fn4  v112
 BYTE   W24
 BYTE   N32  En4
 BYTE   W36
 BYTE   PEND 
// 003   ----------------------------------------
Label_5_0103E685:
 BYTE   N13  Gn3  v112
 BYTE   W12
 BYTE   N88  An3
 BYTE   W84
 BYTE   PEND 
// 004   ----------------------------------------
Label_5_0103E68D:
 BYTE   W12
 BYTE   N16  Dn4  v112
 BYTE   W16
 BYTE   N17  Cn4
 BYTE   W16
 BYTE   N15  Dn4
 BYTE   W16
 BYTE   N88  Fn3
 BYTE   W36
 BYTE   PEND 
// 005   ----------------------------------------
 BYTE   W60
 BYTE   N44  Gn3
 BYTE   W36
// 006   ----------------------------------------
Label_5_0103E6A0:
 BYTE   W12
 BYTE   TIE  An3  v112
 BYTE   W84
 BYTE   PEND 
// 007   ----------------------------------------
 BYTE   W92
 BYTE   W01
 BYTE   EOT
 BYTE   W03
// 008   ----------------------------------------
Label_5_0103E6AA:
 BYTE   W36
 BYTE   N23  Fn4  v112
 BYTE   W24
 BYTE   N36  En4
 BYTE   W36
 BYTE   PEND 
// 009   ----------------------------------------
Label_5_0103E6B3:
 BYTE   N10  Gn3  v112
 BYTE   W12
 BYTE   N92  An3
 BYTE   W84
 BYTE   PEND 
// 010   ----------------------------------------
 BYTE   PATT
  POIN2 Label_5_0103E67C
// 011   ----------------------------------------
 BYTE   PATT
  POIN2 Label_5_0103E685
// 012   ----------------------------------------
 BYTE   PATT
  POIN2 Label_5_0103E68D
// 013   ----------------------------------------
 BYTE   W60
 BYTE   N44  Gn3  v112
 BYTE   W36
// 014   ----------------------------------------
 BYTE   PATT
  POIN2 Label_5_0103E6A0
// 015   ----------------------------------------
 BYTE   W56
 BYTE   W02
 BYTE   EOT
 BYTE   An3
 BYTE   W36
 BYTE   W02
// 016   ----------------------------------------
 BYTE   PATT
  POIN2 Label_5_0103E6AA
// 017   ----------------------------------------
 BYTE   PATT
  POIN2 Label_5_0103E6B3
// 018   ----------------------------------------
 BYTE   PATT
  POIN2 Label_5_0103E67C
// 019   ----------------------------------------
 BYTE   PATT
  POIN2 Label_5_0103E685
// 020   ----------------------------------------
 BYTE   PATT
  POIN2 Label_5_0103E68D
// 021   ----------------------------------------
 BYTE   W60
 BYTE   N23  Gn3  v112
 BYTE   W24
 BYTE   As3
 BYTE   W12
// 022   ----------------------------------------
 BYTE   W12
 BYTE   TIE  Cs4
 BYTE   W84
// 023   ----------------------------------------
 BYTE   W36
 BYTE   EOT
 BYTE   W24
 BYTE   N44  An3
 BYTE   W36
// 024   ----------------------------------------
Label_5_0103E704:
 BYTE   W12
 BYTE   N44  As3  v112
 BYTE   W48
 BYTE   N15
 BYTE   W16
 BYTE   N16  Cn4
 BYTE   W16
 BYTE   N14  Dn4
 BYTE   W04
 BYTE   PEND 
// 025   ----------------------------------------
 BYTE   W12
 BYTE   N15
 BYTE   W16
 BYTE   N16  Ds4
 BYTE   W16
 BYTE   N15  Dn4
 BYTE   W16
 BYTE   N24  Cn4
 BYTE   W24
 BYTE   N23  As3
 BYTE   W12
// 026   ----------------------------------------
 BYTE   W12
 BYTE   N96  An3
 BYTE   W84
// 027   ----------------------------------------
 BYTE   W96
// 028   ----------------------------------------
 BYTE   W12
 BYTE   N44  Gn3
 BYTE   W48
 BYTE   N15
 BYTE   W16
 BYTE   N16  An3
 BYTE   W16
 BYTE   N14  As3
 BYTE   W04
// 029   ----------------------------------------
 BYTE   W12
 BYTE   N15
 BYTE   W16
 BYTE   N16  Cn4
 BYTE   W16
 BYTE   N15  As3
 BYTE   W16
 BYTE   N24  An3
 BYTE   W24
 BYTE   N23  Gn3
 BYTE   W12
// 030   ----------------------------------------
 BYTE   W12
 BYTE   N96  Fs3
 BYTE   W84
// 031   ----------------------------------------
 BYTE   W60
 BYTE   N44  An3
 BYTE   W36
// 032   ----------------------------------------
 BYTE   PATT
  POIN2 Label_5_0103E704
// 033   ----------------------------------------
 BYTE   W12
 BYTE   N15  Dn4  v112
 BYTE   W16
 BYTE   N16  Ds4
 BYTE   W16
 BYTE   N15  Dn4
 BYTE   W16
 BYTE   N24  Cn4
 BYTE   W24
 BYTE   N23  Dn4
 BYTE   W12
// 034   ----------------------------------------
 BYTE   W12
 BYTE   N48  Fn4
 BYTE   W48
 BYTE   N92  Cn4
 BYTE   W36
// 035   ----------------------------------------
 BYTE   W84
 BYTE   N11  As3
 BYTE   W12
// 036   ----------------------------------------
 BYTE   An3
 BYTE   W12
 BYTE   N44  Gn3
 BYTE   W48
 BYTE   N15
 BYTE   W16
 BYTE   N16  An3
 BYTE   W16
 BYTE   N14  As3
 BYTE   W04
// 037   ----------------------------------------
 BYTE   W12
 BYTE   N15
 BYTE   W16
 BYTE   N16  Cn4
 BYTE   W16
 BYTE   N15  As3
 BYTE   W16
 BYTE   N24  Cn4
 BYTE   W24
 BYTE   N23  Ds4
 BYTE   W12
// 038   ----------------------------------------
 BYTE   W12
 BYTE   N96  Dn4
 BYTE   W84
// 039   ----------------------------------------
 BYTE   W92
 BYTE   W03
 BYTE   GoTo
  POIN2 Label_5_0103E666
 BYTE   FINE

//******************************************************//
	ALIGN 4

TacticsOgreTheKnightofLodisHeroinesThemePsyche:
	BYTE	6	// NumTrks
	BYTE	0	// NumBlks
	BYTE	TacticsOgreTheKnightofLodisHeroinesThemePsyche_pri	// Priority
	BYTE	TacticsOgreTheKnightofLodisHeroinesThemePsyche_rev	// Reverb.
    
	POIN2	TacticsOgreTheKnightofLodisHeroinesThemePsyche_grp
    
	POIN2	TacticsOgreTheKnightofLodisHeroinesThemePsyche_001
	POIN2	TacticsOgreTheKnightofLodisHeroinesThemePsyche_002
	POIN2	TacticsOgreTheKnightofLodisHeroinesThemePsyche_003
	POIN2	TacticsOgreTheKnightofLodisHeroinesThemePsyche_004
	POIN2	TacticsOgreTheKnightofLodisHeroinesThemePsyche_005
	POIN2	TacticsOgreTheKnightofLodisHeroinesThemePsyche_006

	
