//Event file generated from Sappy .s format.
	#include "MPlayDef.event"

	#define	Touhou8Voyage1969MrGreen3339_grp  voicegroup000
	#define	Touhou8Voyage1969MrGreen3339_pri  0
	#define	Touhou8Voyage1969MrGreen3339_rev  0
	#define	Touhou8Voyage1969MrGreen3339_mvl  127
	#define	Touhou8Voyage1969MrGreen3339_key  0
	#define	Touhou8Voyage1969MrGreen3339_tbs  1
	#define	Touhou8Voyage1969MrGreen3339_exg  0
	#define	Touhou8Voyage1969MrGreen3339_cmp  1

	// .rodata
	//	Touhou8Voyage1969MrGreen3339
	ALIGN 4


//**************** Track 1 (Midi-Chn.0) ****************//

Touhou8Voyage1969MrGreen3339_001:
// 000   ----------------------------------------
 BYTE   KEYSH   Touhou8Voyage1969MrGreen3339_key+0
Label_0_01319DDA:
 BYTE   TEMPO   162*Touhou8Voyage1969MrGreen3339_tbs/2
 BYTE   VOICE   1
 BYTE   PAN   c_v+0
 BYTE   VOL   65*Touhou8Voyage1969MrGreen3339_mvl/mxv
 BYTE   N12  En4  v120
 BYTE   W12
 BYTE   Gn3  v108
 BYTE   W12
 BYTE   Fs3  v112
 BYTE   W12
 BYTE   Dn4
 BYTE   W12
 BYTE   En4  v120
 BYTE   W12
 BYTE   Gn3  v108
 BYTE   W12
 BYTE   Fs3  v120
 BYTE   W12
 BYTE   Fs4  v112
 BYTE   W06
 BYTE   N18  Gn4  v108
 BYTE   W06
// 001   ----------------------------------------
Label_0_01319DFE:
 BYTE   W12
 BYTE   N12  Bn3  v112
 BYTE   W12
 BYTE   Fs4
 BYTE   W12
 BYTE   An3
 BYTE   W12
 BYTE   En4
 BYTE   W12
 BYTE   Gn3
 BYTE   W12
 BYTE   Fs3
 BYTE   W12
 BYTE   Dn4  v120
 BYTE   W12
 BYTE   PEND 
// 002   ----------------------------------------
Label_0_01319E11:
 BYTE   N12  En4  v112
 BYTE   W12
 BYTE   Gn3
 BYTE   W12
 BYTE   Fs3  v120
 BYTE   W12
 BYTE   Dn4
 BYTE   W12
 BYTE   En4  v112
 BYTE   W12
 BYTE   Gn3
 BYTE   W12
 BYTE   Fs3
 BYTE   W12
 BYTE   Fs4  v108
 BYTE   W06
 BYTE   N18  Gn4  v112
 BYTE   W06
 BYTE   PEND 
// 003   ----------------------------------------
Label_0_01319E2B:
 BYTE   W12
 BYTE   N12  Bn3  v112
 BYTE   W12
 BYTE   N24  An4  v120
 BYTE   W12
 BYTE   N12  Fs4  v088
 BYTE   W12
 BYTE   N24  Gn4  v124
 BYTE   W12
 BYTE   N12  En4  v084
 BYTE   W12
 BYTE   N24  Fs4  v124
 BYTE   W12
 BYTE   N12  Dn4  v088
 BYTE   W12
 BYTE   PEND 
// 004   ----------------------------------------
Label_0_01319E49:
 BYTE   N12  En4  v120
 BYTE   W12
 BYTE   Gn3  v108
 BYTE   W12
 BYTE   Fs3  v112
 BYTE   W12
 BYTE   Dn4
 BYTE   W12
 BYTE   En4  v120
 BYTE   W12
 BYTE   Gn3  v108
 BYTE   W12
 BYTE   Fs3  v120
 BYTE   W12
 BYTE   Fs4  v112
 BYTE   W06
 BYTE   N18  Gn4  v108
 BYTE   W06
 BYTE   PEND 
 BYTE   PATT
  POIN2 Label_0_01319DFE
 BYTE   PATT
  POIN2 Label_0_01319E11
 BYTE   PATT
  POIN2 Label_0_01319E2B
// 005   ----------------------------------------
 BYTE   N12  En4  v120
 BYTE   W12
 BYTE   Gn3  v108
 BYTE   W12
 BYTE   Fs3  v112
 BYTE   W12
 BYTE   Dn4
 BYTE   W12
 BYTE   En4  v120
 BYTE   W12
 BYTE   Gn3  v108
 BYTE   W12
 BYTE   Fs3  v120
 BYTE   W12
 BYTE   Fs4  v112
 BYTE   W06
 BYTE   N18  Gn4  v108
 BYTE   W06
 BYTE   PATT
  POIN2 Label_0_01319DFE
 BYTE   PATT
  POIN2 Label_0_01319E11
 BYTE   PATT
  POIN2 Label_0_01319E2B
// 006   ----------------------------------------
 BYTE   N12  En4  v120
 BYTE   W12
 BYTE   Gn3  v108
 BYTE   W12
 BYTE   Fs3  v112
 BYTE   W12
 BYTE   Dn4
 BYTE   W12
 BYTE   En4  v120
 BYTE   W12
 BYTE   Gn3  v108
 BYTE   W12
 BYTE   Fs3  v120
 BYTE   W12
 BYTE   Fs4  v112
 BYTE   W12
// 007   ----------------------------------------
 BYTE   Gn4  v108
 BYTE   W12
 BYTE   Bn3  v112
 BYTE   W12
 BYTE   Fs4
 BYTE   W12
 BYTE   An3
 BYTE   W12
 BYTE   En4
 BYTE   W12
 BYTE   Gn3
 BYTE   W12
 BYTE   Fs3
 BYTE   W12
 BYTE   Dn4  v120
 BYTE   W12
// 008   ----------------------------------------
 BYTE   Ds4  v112
 BYTE   W12
 BYTE   Gn3
 BYTE   W12
 BYTE   Fs3  v120
 BYTE   W12
 BYTE   Ds4
 BYTE   W12
 BYTE   Ds4  v112
 BYTE   W12
 BYTE   Gn3
 BYTE   W12
 BYTE   Fs3
 BYTE   W12
 BYTE   Ds4  v108
 BYTE   W12
// 009   ----------------------------------------
 BYTE   En4  v112
 BYTE   W12
 BYTE   Fs4
 BYTE   W12
 BYTE   N24  Bn4  v120
 BYTE   W12
 BYTE   N12  Ds4  v088
 BYTE   W12
 BYTE   N24  An4  v124
 BYTE   W12
 BYTE   N12  Ds4  v084
 BYTE   W12
 BYTE   N24  Fs4  v124
 BYTE   W12
 BYTE   N12  Bn3  v088
 BYTE   W12
 BYTE   PATT
  POIN2 Label_0_01319E49
 BYTE   PATT
  POIN2 Label_0_01319DFE
 BYTE   PATT
  POIN2 Label_0_01319E11
 BYTE   PATT
  POIN2 Label_0_01319E2B
 BYTE   PATT
  POIN2 Label_0_01319E49
 BYTE   PATT
  POIN2 Label_0_01319DFE
// 010   ----------------------------------------
 BYTE   N12  En4  v112
 BYTE   W12
 BYTE   Gn3
 BYTE   W12
 BYTE   Fs3  v120
 BYTE   W12
 BYTE   Dn4
 BYTE   W12
 BYTE   En4  v112
 BYTE   W12
 BYTE   Gn3
 BYTE   W12
 BYTE   Fs3
 BYTE   W12
 BYTE   Dn4  v108
 BYTE   W12
// 011   ----------------------------------------
 BYTE   N96  En4  v112
 BYTE   W96
// 012   ----------------------------------------
Label_0_01319F33:
 BYTE   N06  Gn4  v116
 BYTE   W06
 BYTE   En4  v096
 BYTE   W06
 BYTE   Bn3  v108
 BYTE   W06
 BYTE   Gn4  v100
 BYTE   W06
 BYTE   En4  v088
 BYTE   W06
 BYTE   Bn3  v108
 BYTE   W06
 BYTE   Gn4
 BYTE   W06
 BYTE   En4  v096
 BYTE   W06
 BYTE   Bn3  v108
 BYTE   W06
 BYTE   Gn4
 BYTE   W06
 BYTE   En4  v096
 BYTE   W06
 BYTE   Bn3  v092
 BYTE   W06
 BYTE   PEND 
Label_0_01319F57:
 BYTE   N06  Fs4  v112
 BYTE   W06
 BYTE   Ds4
 BYTE   W06
 BYTE   Bn3
 BYTE   W06
 BYTE   Fs4  v108
 BYTE   W06
// 013   ----------------------------------------
 BYTE   Ds4  v096
 BYTE   W06
 BYTE   Bn3
 BYTE   W06
 BYTE   Fs4  v112
 BYTE   W06
 BYTE   Ds4  v092
 BYTE   W06
 BYTE   Bn3  v108
 BYTE   W06
 BYTE   Fs4  v112
 BYTE   W06
 BYTE   Ds4  v096
 BYTE   W06
 BYTE   Bn3  v108
 BYTE   W06
 BYTE   PEND 
Label_0_01319F7A:
 BYTE   N06  Gn4  v108
 BYTE   W06
 BYTE   En4
 BYTE   W06
 BYTE   Bn3
 BYTE   W06
 BYTE   Gn4
 BYTE   W06
 BYTE   En4
 BYTE   W06
 BYTE   Bn3  v096
 BYTE   W06
 BYTE   Gn4  v112
 BYTE   W06
 BYTE   En4  v096
 BYTE   W06
// 014   ----------------------------------------
 BYTE   Bn3  v080
 BYTE   W06
 BYTE   Gn4  v096
 BYTE   W06
 BYTE   En4  v112
 BYTE   W06
 BYTE   Bn3  v108
 BYTE   W06
 BYTE   PEND 
Label_0_01319F9C:
 BYTE   N06  Fs4  v108
 BYTE   W06
 BYTE   Ds4
 BYTE   W06
 BYTE   Bn3
 BYTE   W06
 BYTE   Fs4  v112
 BYTE   W06
 BYTE   Ds4  v076
 BYTE   W06
 BYTE   Bn3  v112
 BYTE   W06
 BYTE   Fs4
 BYTE   W06
 BYTE   Ds4  v096
 BYTE   W06
 BYTE   Bn3  v084
 BYTE   W06
 BYTE   Fs4  v112
 BYTE   W06
 BYTE   Ds4  v096
 BYTE   W06
 BYTE   Bn3  v112
 BYTE   W06
 BYTE   PEND 
// 015   ----------------------------------------
Label_0_01319FBF:
 BYTE   N06  Gn4  v108
 BYTE   W06
 BYTE   En4
 BYTE   W06
 BYTE   Bn3  v096
 BYTE   W06
 BYTE   Gn4  v108
 BYTE   W06
 BYTE   En4
 BYTE   W06
 BYTE   Bn3
 BYTE   W06
 BYTE   Gn4
 BYTE   W06
 BYTE   En4  v096
 BYTE   W06
 BYTE   Bn3
 BYTE   W06
 BYTE   Gn4  v112
 BYTE   W06
 BYTE   En4  v108
 BYTE   W06
 BYTE   Bn3  v112
 BYTE   W06
 BYTE   PEND 
Label_0_01319FE0:
 BYTE   N06  An4  v096
 BYTE   W06
 BYTE   Fs4  v108
 BYTE   W06
 BYTE   Dn4  v116
 BYTE   W06
 BYTE   An4  v120
 BYTE   W06
// 016   ----------------------------------------
 BYTE   Fs4  v084
 BYTE   W06
 BYTE   Dn4  v108
 BYTE   W06
 BYTE   Dn5  v096
 BYTE   W06
 BYTE   An4  v108
 BYTE   W06
 BYTE   Fs4  v092
 BYTE   W06
 BYTE   Dn5  v112
 BYTE   W06
 BYTE   An4  v096
 BYTE   W06
 BYTE   Fs4  v108
 BYTE   W06
 BYTE   PEND 
 BYTE   Bn4
 BYTE   W06
 BYTE   Gn4  v084
 BYTE   W06
 BYTE   En4  v108
 BYTE   W06
 BYTE   An4  v120
 BYTE   W06
 BYTE   Fs4  v096
 BYTE   W06
 BYTE   Dn4  v088
 BYTE   W06
 BYTE   Gn4  v108
 BYTE   W06
 BYTE   En4
 BYTE   W06
// 017   ----------------------------------------
 BYTE   Bn3
 BYTE   W06
 BYTE   Fs4  v112
 BYTE   W06
 BYTE   Dn4  v108
 BYTE   W06
 BYTE   An3
 BYTE   W06
 BYTE   En4  v112
 BYTE   W06
 BYTE   Bn3
 BYTE   W06
 BYTE   Gn3  v100
 BYTE   W06
 BYTE   Dn4  v108
 BYTE   W06
 BYTE   An3
 BYTE   W06
 BYTE   Fs3  v112
 BYTE   W06
 BYTE   Bn3  v108
 BYTE   W06
 BYTE   Gn3
 BYTE   W06
 BYTE   En3  v112
 BYTE   W06
 BYTE   An3  v108
 BYTE   W06
 BYTE   Fs3
 BYTE   W06
 BYTE   Dn3
 BYTE   W06
 BYTE   PATT
  POIN2 Label_0_01319F33
 BYTE   PATT
  POIN2 Label_0_01319F57
 BYTE   PATT
  POIN2 Label_0_01319F7A
 BYTE   PATT
  POIN2 Label_0_01319F9C
 BYTE   PATT
  POIN2 Label_0_01319FBF
 BYTE   PATT
  POIN2 Label_0_01319FE0
// 018   ----------------------------------------
 BYTE   N06  Bn4  v108
 BYTE   W06
 BYTE   Gn4  v084
 BYTE   W06
 BYTE   En4  v108
 BYTE   W06
 BYTE   An4  v120
 BYTE   W06
 BYTE   Fs4  v096
 BYTE   W06
 BYTE   Dn4  v088
 BYTE   W06
 BYTE   Gn4  v108
 BYTE   W06
 BYTE   En4
 BYTE   W06
 BYTE   En4  v120
 BYTE   W06
 BYTE   Fs4  v124
 BYTE   W06
 BYTE   Gn4  v120
 BYTE   W06
 BYTE   Bn4
 BYTE   W06
 BYTE   En5
 BYTE   W06
 BYTE   Fs5
 BYTE   W06
 BYTE   Gn5
 BYTE   W06
 BYTE   Bn4  v112
 BYTE   W06
// 019   ----------------------------------------
 BYTE   An5
 BYTE   W06
 BYTE   Bn5  v116
 BYTE   W06
 BYTE   Fs5  v120
 BYTE   W06
 BYTE   Gn5
 BYTE   W06
 BYTE   An5
 BYTE   W06
 BYTE   En5
 BYTE   W06
 BYTE   Fs5
 BYTE   W06
 BYTE   Gn5
 BYTE   W06
Label_0_0131A0A1:
 BYTE   N12  Fn4  v120
 BYTE   W12
 BYTE   Gs3  v108
 BYTE   W12
 BYTE   Gn3  v112
 BYTE   W12
 BYTE   Ds4
 BYTE   W12
// 020   ----------------------------------------
 BYTE   Fn4  v120
 BYTE   W12
 BYTE   Gs3  v108
 BYTE   W12
 BYTE   Gn3  v120
 BYTE   W12
 BYTE   Gn4  v112
 BYTE   W06
 BYTE   N18  Gs4  v108
 BYTE   W06
 BYTE   PEND 
Label_0_0131A0BE:
 BYTE   W12
 BYTE   N12  Cn4  v112
 BYTE   W12
 BYTE   Gn4
 BYTE   W12
 BYTE   As3
 BYTE   W12
// 021   ----------------------------------------
 BYTE   Fn4
 BYTE   W12
 BYTE   Gs3
 BYTE   W12
 BYTE   Gn3
 BYTE   W12
 BYTE   Ds4  v120
 BYTE   W12
 BYTE   PEND 
Label_0_0131A0D1:
 BYTE   N12  Fn4  v112
 BYTE   W12
 BYTE   Gs3
 BYTE   W12
 BYTE   Gn3  v120
 BYTE   W12
 BYTE   Ds4
 BYTE   W12
// 022   ----------------------------------------
 BYTE   Fn4  v112
 BYTE   W12
 BYTE   Gs3
 BYTE   W12
 BYTE   Gn3
 BYTE   W12
 BYTE   Gn4  v108
 BYTE   W06
 BYTE   N18  Gs4  v112
 BYTE   W06
 BYTE   PEND 
Label_0_0131A0EB:
 BYTE   W12
 BYTE   N12  Cn4  v112
 BYTE   W12
 BYTE   N24  As4  v120
 BYTE   W12
 BYTE   N12  Gn4  v088
 BYTE   W12
// 023   ----------------------------------------
 BYTE   N24  Gs4  v124
 BYTE   W12
 BYTE   N12  Fn4  v084
 BYTE   W12
 BYTE   N24  Gn4  v124
 BYTE   W12
 BYTE   N12  Ds4  v088
 BYTE   W12
 BYTE   PEND 
 BYTE   PATT
  POIN2 Label_0_0131A0A1
 BYTE   PATT
  POIN2 Label_0_0131A0BE
 BYTE   PATT
  POIN2 Label_0_0131A0D1
 BYTE   PATT
  POIN2 Label_0_0131A0EB
 BYTE   PATT
  POIN2 Label_0_0131A0A1
 BYTE   PATT
  POIN2 Label_0_0131A0BE
 BYTE   PATT
  POIN2 Label_0_0131A0D1
 BYTE   PATT
  POIN2 Label_0_0131A0EB
 BYTE   PATT
  POIN2 Label_0_0131A0A1
 BYTE   PATT
  POIN2 Label_0_0131A0BE
// 024   ----------------------------------------
 BYTE   N12  Fn4  v112
 BYTE   W12
 BYTE   Gs3
 BYTE   W12
 BYTE   Gn3  v120
 BYTE   W12
 BYTE   Ds4
 BYTE   W12
 BYTE   Fn4  v112
 BYTE   W12
 BYTE   Gs3
 BYTE   W12
 BYTE   Gn3
 BYTE   W12
 BYTE   Ds4  v108
 BYTE   W12
// 025   ----------------------------------------
 BYTE   N96  Fn4  v112
 BYTE   W96
 BYTE   PATT
  POIN2 Label_0_01319E49
 BYTE   PATT
  POIN2 Label_0_01319DFE
 BYTE   PATT
  POIN2 Label_0_01319E11
 BYTE   PATT
  POIN2 Label_0_01319E2B
 BYTE   PATT
  POIN2 Label_0_01319E49
 BYTE   PATT
  POIN2 Label_0_01319DFE
 BYTE   PATT
  POIN2 Label_0_01319E11
 BYTE   PATT
  POIN2 Label_0_01319E2B
// 026   ----------------------------------------
 BYTE   W06
 BYTE   GoTo
  POIN2 Label_0_01319DDA
 BYTE   FINE

//**************** Track 2 (Midi-Chn.1) ****************//

Touhou8Voyage1969MrGreen3339_002:
// 000   ----------------------------------------
 BYTE   KEYSH   Touhou8Voyage1969MrGreen3339_key+0
Label_1_0131A186:
 BYTE   VOICE   38
 BYTE   PAN   c_v+0
 BYTE   VOL   57*Touhou8Voyage1969MrGreen3339_mvl/mxv
 BYTE   W96
// 001   ----------------------------------------
 BYTE   W96
// 002   ----------------------------------------
 BYTE   W96
// 003   ----------------------------------------
 BYTE   W96
// 004   ----------------------------------------
 BYTE   W96
// 005   ----------------------------------------
 BYTE   W96
// 006   ----------------------------------------
 BYTE   W96
// 007   ----------------------------------------
Label_1_0131A193:
 BYTE   W72
 BYTE   N03  Bn2  v100
 BYTE   W03
 BYTE   En3
 BYTE   W03
 BYTE   Gn3
 BYTE   W03
 BYTE   Fs3
 BYTE   W03
 BYTE   Gs2
 BYTE   N03  An2
 BYTE   W03
 BYTE   Bn2
 BYTE   W03
 BYTE   Gn2
 BYTE   W03
 BYTE   Fs2
 BYTE   W03
 BYTE   PEND 
// 008   ----------------------------------------
Label_1_0131A1A9:
 BYTE   N06  Cn2  v100
 BYTE   W06
 BYTE   En2
 BYTE   W06
 BYTE   Gn2
 BYTE   W06
 BYTE   Cn2
 BYTE   W06
 BYTE   En2
 BYTE   W06
 BYTE   Gn2
 BYTE   W06
 BYTE   Cn2
 BYTE   W06
 BYTE   Gn2
 BYTE   W06
 BYTE   Cn2
 BYTE   W06
 BYTE   N06
 BYTE   W06
 BYTE   Gn2
 BYTE   W06
 BYTE   Cn2
 BYTE   W06
 BYTE   N06
 BYTE   W06
 BYTE   En2
 BYTE   W06
 BYTE   Gn2
 BYTE   W06
 BYTE   Cn2
 BYTE   W06
 BYTE   PEND 
 BYTE   PATT
  POIN2 Label_1_0131A1A9
// 009   ----------------------------------------
Label_1_0131A1D1:
 BYTE   N06  En2  v100
 BYTE   W06
 BYTE   N06
 BYTE   W06
 BYTE   Bn2
 BYTE   W06
 BYTE   En2
 BYTE   W06
 BYTE   N06
 BYTE   W06
 BYTE   Bn2
 BYTE   W06
 BYTE   Gn2
 BYTE   W06
 BYTE   Bn2
 BYTE   W06
 BYTE   En2
 BYTE   W06
 BYTE   Gn2
 BYTE   W06
 BYTE   Bn2
 BYTE   W06
 BYTE   En2
 BYTE   W06
 BYTE   Bn2
 BYTE   W06
 BYTE   An2
 BYTE   W06
 BYTE   Gn2
 BYTE   W06
 BYTE   Fs2
 BYTE   W06
 BYTE   PEND 
 BYTE   PATT
  POIN2 Label_1_0131A1D1
 BYTE   PATT
  POIN2 Label_1_0131A1A9
// 010   ----------------------------------------
Label_1_0131A1FE:
 BYTE   N06  Dn2  v120
 BYTE   W06
 BYTE   Fs2
 BYTE   W06
 BYTE   An2
 BYTE   W06
 BYTE   Dn2  v112
 BYTE   W06
 BYTE   Dn2  v120
 BYTE   W06
 BYTE   An2  v108
 BYTE   W06
 BYTE   Dn2  v120
 BYTE   W06
 BYTE   Fs2
 BYTE   W06
 BYTE   An2  v112
 BYTE   W06
 BYTE   Dn2  v120
 BYTE   W06
 BYTE   Dn2  v112
 BYTE   W06
 BYTE   An2
 BYTE   W06
 BYTE   Dn2  v120
 BYTE   W06
 BYTE   Fs2
 BYTE   W06
 BYTE   An2  v108
 BYTE   W06
 BYTE   Dn2  v112
 BYTE   W06
 BYTE   PEND 
// 011   ----------------------------------------
 BYTE   Ds2
 BYTE   W06
 BYTE   Ds2  v120
 BYTE   W06
 BYTE   An2
 BYTE   W06
 BYTE   Ds2  v084
 BYTE   W06
 BYTE   Fs2  v120
 BYTE   W06
 BYTE   An2  v112
 BYTE   W06
 BYTE   Ds2  v124
 BYTE   W06
 BYTE   An2  v112
 BYTE   W06
 BYTE   Ds2  v120
 BYTE   W06
 BYTE   Ds2  v112
 BYTE   W06
 BYTE   Fs2
 BYTE   W06
 BYTE   An2
 BYTE   W06
 BYTE   Ds2  v120
 BYTE   W06
 BYTE   Fs2  v112
 BYTE   W06
 BYTE   An2  v120
 BYTE   W06
 BYTE   Ds2
 BYTE   W06
// 012   ----------------------------------------
 BYTE   N06
 BYTE   W06
 BYTE   N06
 BYTE   W06
 BYTE   Fs2
 BYTE   W06
 BYTE   Bn2
 BYTE   W06
 BYTE   Ds2
 BYTE   W06
 BYTE   Fs2  v124
 BYTE   W06
 BYTE   Bn2  v112
 BYTE   W06
 BYTE   Ds2  v120
 BYTE   W06
 BYTE   Fs2
 BYTE   W06
 BYTE   Bn2  v112
 BYTE   W06
 BYTE   Ds2
 BYTE   W06
 BYTE   Bn2
 BYTE   W06
 BYTE   Ds2  v120
 BYTE   W06
 BYTE   N06
 BYTE   W06
 BYTE   Bn2  v108
 BYTE   W06
 BYTE   Ds2  v112
 BYTE   W06
 BYTE   PATT
  POIN2 Label_1_0131A1A9
 BYTE   PATT
  POIN2 Label_1_0131A1A9
 BYTE   PATT
  POIN2 Label_1_0131A1D1
 BYTE   PATT
  POIN2 Label_1_0131A1D1
 BYTE   PATT
  POIN2 Label_1_0131A1A9
 BYTE   PATT
  POIN2 Label_1_0131A1FE
 BYTE   PATT
  POIN2 Label_1_0131A1D1
 BYTE   PATT
  POIN2 Label_1_0131A1D1
// 013   ----------------------------------------
Label_1_0131A2A5:
 BYTE   N06  Cn2  v120
 BYTE   W06
 BYTE   Cn2  v112
 BYTE   W06
 BYTE   Gn2  v120
 BYTE   W06
 BYTE   Cn2
 BYTE   W06
 BYTE   Cn2  v112
 BYTE   W06
 BYTE   N06
 BYTE   W06
 BYTE   Gn2  v116
 BYTE   W06
 BYTE   Cn2  v112
 BYTE   W06
 BYTE   N06
 BYTE   W06
 BYTE   N06
 BYTE   W06
 BYTE   Gn2
 BYTE   W06
 BYTE   Cn2  v120
 BYTE   W06
 BYTE   PEND 
Label_1_0131A2C6:
 BYTE   N06  Bn1  v120
 BYTE   W06
 BYTE   Bn1  v112
 BYTE   W06
 BYTE   Fs2
 BYTE   W06
 BYTE   Bn1  v116
 BYTE   W06
// 014   ----------------------------------------
 BYTE   Bn1  v112
 BYTE   W06
 BYTE   N06
 BYTE   W06
 BYTE   Fs2
 BYTE   W06
 BYTE   Bn1  v120
 BYTE   W06
 BYTE   Bn1  v112
 BYTE   W06
 BYTE   Bn1  v120
 BYTE   W06
 BYTE   Fs2
 BYTE   W06
 BYTE   Bn1
 BYTE   W06
 BYTE   PEND 
Label_1_0131A2E7:
 BYTE   N06  Cn2  v120
 BYTE   W06
 BYTE   Cn2  v112
 BYTE   W06
 BYTE   Gn2
 BYTE   W06
 BYTE   Cn2
 BYTE   W06
 BYTE   N06
 BYTE   W06
 BYTE   Cn2  v120
 BYTE   W06
 BYTE   Gn2  v112
 BYTE   W06
 BYTE   Cn2
 BYTE   W06
// 015   ----------------------------------------
 BYTE   N06
 BYTE   W06
 BYTE   N06
 BYTE   W06
 BYTE   Gn2
 BYTE   W06
 BYTE   Cn2
 BYTE   W06
 BYTE   PEND 
Label_1_0131A305:
 BYTE   N06  Bn1  v112
 BYTE   W06
 BYTE   N06
 BYTE   W06
 BYTE   Fs2
 BYTE   W06
 BYTE   Bn1  v120
 BYTE   W06
 BYTE   Bn1  v108
 BYTE   W06
 BYTE   Bn1  v112
 BYTE   W06
 BYTE   Fs2
 BYTE   W06
 BYTE   Bn1  v120
 BYTE   W06
 BYTE   Bn1  v112
 BYTE   W06
 BYTE   N06
 BYTE   W06
 BYTE   Fs2
 BYTE   W06
 BYTE   Bn1
 BYTE   W06
 BYTE   PEND 
// 016   ----------------------------------------
Label_1_0131A325:
 BYTE   N06  Cn2  v120
 BYTE   W06
 BYTE   N06
 BYTE   W06
 BYTE   Gn2
 BYTE   W06
 BYTE   Cn2  v112
 BYTE   W06
 BYTE   Cn2  v120
 BYTE   W06
 BYTE   N06
 BYTE   W06
 BYTE   Gn2  v112
 BYTE   W06
 BYTE   Cn2
 BYTE   W06
 BYTE   Cn2  v120
 BYTE   W06
 BYTE   Cn2  v112
 BYTE   W06
 BYTE   Gn2  v116
 BYTE   W06
 BYTE   Cn2  v112
 BYTE   W06
 BYTE   PEND 
Label_1_0131A347:
 BYTE   N06  Dn2  v124
 BYTE   W06
 BYTE   Dn2  v120
 BYTE   W06
 BYTE   An2  v112
 BYTE   W06
 BYTE   Dn2  v120
 BYTE   W06
// 017   ----------------------------------------
 BYTE   N06
 BYTE   W06
 BYTE   N06
 BYTE   W06
 BYTE   An2  v108
 BYTE   W06
 BYTE   Dn2  v120
 BYTE   W06
 BYTE   N06
 BYTE   W06
 BYTE   Dn2  v112
 BYTE   W06
 BYTE   An2  v120
 BYTE   W06
 BYTE   Dn2  v108
 BYTE   W06
 BYTE   PEND 
Label_1_0131A36A:
 BYTE   N06  En2  v112
 BYTE   W06
 BYTE   En2  v120
 BYTE   W06
 BYTE   Bn2  v112
 BYTE   W06
 BYTE   En2
 BYTE   W06
 BYTE   N06
 BYTE   W06
 BYTE   N06
 BYTE   W06
 BYTE   Bn2
 BYTE   W06
 BYTE   En2
 BYTE   W06
// 018   ----------------------------------------
 BYTE   N06
 BYTE   W06
 BYTE   Bn2  v096
 BYTE   W06
 BYTE   Gn2  v112
 BYTE   W06
 BYTE   Bn2  v120
 BYTE   W06
 BYTE   PEND 
Label_1_0131A38A:
 BYTE   N06  En3  v120
 BYTE   W06
 BYTE   Bn2
 BYTE   W06
 BYTE   Gn2
 BYTE   W06
 BYTE   Bn2  v112
 BYTE   W06
 BYTE   En3
 BYTE   W06
 BYTE   Bn2  v120
 BYTE   W06
 BYTE   Gn2
 BYTE   W06
 BYTE   Bn2  v108
 BYTE   W06
 BYTE   En2  v120
 BYTE   W06
 BYTE   Bn2  v108
 BYTE   W06
 BYTE   Gn2  v120
 BYTE   W06
 BYTE   Bn2  v108
 BYTE   W06
 BYTE   PEND 
 BYTE   PATT
  POIN2 Label_1_0131A2A5
 BYTE   PATT
  POIN2 Label_1_0131A2C6
 BYTE   PATT
  POIN2 Label_1_0131A2E7
 BYTE   PATT
  POIN2 Label_1_0131A305
 BYTE   PATT
  POIN2 Label_1_0131A325
 BYTE   PATT
  POIN2 Label_1_0131A347
 BYTE   PATT
  POIN2 Label_1_0131A36A
 BYTE   PATT
  POIN2 Label_1_0131A38A
// 019   ----------------------------------------
Label_1_0131A3D4:
 BYTE   N06  Cs2  v100
 BYTE   W06
 BYTE   Fn2
 BYTE   W06
 BYTE   Gs2
 BYTE   W06
 BYTE   Cs2
 BYTE   W06
 BYTE   Fn2
 BYTE   W06
 BYTE   Gs2
 BYTE   W06
 BYTE   Cs2
 BYTE   W06
 BYTE   Gs2
 BYTE   W06
 BYTE   Cs2
 BYTE   W06
 BYTE   N06
 BYTE   W06
 BYTE   Gs2
 BYTE   W06
 BYTE   Cs2
 BYTE   W06
 BYTE   N06
 BYTE   W06
 BYTE   Fn2
 BYTE   W06
 BYTE   Gs2
 BYTE   W06
 BYTE   Cs2
 BYTE   W06
 BYTE   PEND 
 BYTE   PATT
  POIN2 Label_1_0131A3D4
// 020   ----------------------------------------
Label_1_0131A3FC:
 BYTE   N06  Fn2  v100
 BYTE   W06
 BYTE   N06
 BYTE   W06
 BYTE   Cn3
 BYTE   W06
 BYTE   Fn2
 BYTE   W06
 BYTE   N06
 BYTE   W06
 BYTE   Cn3
 BYTE   W06
 BYTE   Gs2
 BYTE   W06
 BYTE   Cn3
 BYTE   W06
 BYTE   Fn2
 BYTE   W06
 BYTE   Gs2
 BYTE   W06
 BYTE   Cn3
 BYTE   W06
 BYTE   Fn2
 BYTE   W06
 BYTE   Cn3
 BYTE   W06
 BYTE   As2
 BYTE   W06
 BYTE   Gs2
 BYTE   W06
 BYTE   Gn2
 BYTE   W06
 BYTE   PEND 
 BYTE   PATT
  POIN2 Label_1_0131A3FC
 BYTE   PATT
  POIN2 Label_1_0131A3D4
// 021   ----------------------------------------
Label_1_0131A429:
 BYTE   N06  Ds2  v120
 BYTE   W06
 BYTE   Gn2
 BYTE   W06
 BYTE   As2
 BYTE   W06
 BYTE   Ds2  v112
 BYTE   W06
 BYTE   Ds2  v120
 BYTE   W06
 BYTE   As2  v108
 BYTE   W06
 BYTE   Ds2  v120
 BYTE   W06
 BYTE   Gn2
 BYTE   W06
 BYTE   As2  v112
 BYTE   W06
 BYTE   Ds2  v120
 BYTE   W06
 BYTE   Ds2  v112
 BYTE   W06
 BYTE   As2
 BYTE   W06
 BYTE   Ds2  v120
 BYTE   W06
 BYTE   Gn2
 BYTE   W06
 BYTE   As2  v108
 BYTE   W06
 BYTE   Ds2  v112
 BYTE   W06
 BYTE   PEND 
 BYTE   PATT
  POIN2 Label_1_0131A3FC
 BYTE   PATT
  POIN2 Label_1_0131A3FC
 BYTE   PATT
  POIN2 Label_1_0131A3D4
 BYTE   PATT
  POIN2 Label_1_0131A3D4
 BYTE   PATT
  POIN2 Label_1_0131A3FC
 BYTE   PATT
  POIN2 Label_1_0131A3FC
 BYTE   PATT
  POIN2 Label_1_0131A3D4
 BYTE   PATT
  POIN2 Label_1_0131A429
 BYTE   PATT
  POIN2 Label_1_0131A3FC
 BYTE   PATT
  POIN2 Label_1_0131A3FC
// 022   ----------------------------------------
 BYTE   W96
// 023   ----------------------------------------
 BYTE   W96
// 024   ----------------------------------------
 BYTE   W96
// 025   ----------------------------------------
 BYTE   W96
// 026   ----------------------------------------
 BYTE   W96
// 027   ----------------------------------------
 BYTE   W96
// 028   ----------------------------------------
 BYTE   W96
 BYTE   PATT
  POIN2 Label_1_0131A193
// 029   ----------------------------------------
 BYTE   W06
 BYTE   GoTo
  POIN2 Label_1_0131A186
 BYTE   FINE

//**************** Track 3 (Midi-Chn.2) ****************//

Touhou8Voyage1969MrGreen3339_003:
// 000   ----------------------------------------
 BYTE   KEYSH   Touhou8Voyage1969MrGreen3339_key+0
Label_2_0131A49E:
 BYTE   VOICE   24
 BYTE   PAN   c_v-18
 BYTE   VOL   51*Touhou8Voyage1969MrGreen3339_mvl/mxv
 BYTE   TIE  En2  v116
 BYTE   TIE  Gn2
 BYTE   TIE  Cn3
 BYTE   W96
// 001   ----------------------------------------
 BYTE   W96
// 002   ----------------------------------------
 BYTE   EOT
 BYTE   En2  v055
 BYTE   Cn3
Label_2_0131A4B1:
 BYTE   TIE  En2  v120
 BYTE   TIE  Gn2
 BYTE   TIE  Bn2
 BYTE   W96
 BYTE   PEND 
// 003   ----------------------------------------
 BYTE   W96
// 004   ----------------------------------------
 BYTE   EOT
 BYTE   En2  v055
 BYTE   Bn2
Label_2_0131A4BF:
 BYTE   N96  Cn2  v112
 BYTE   N96  En2
 BYTE   N96  Gn2
 BYTE   W96
 BYTE   PEND 
// 005   ----------------------------------------
Label_2_0131A4C8:
 BYTE   N96  Dn2  v112
 BYTE   N96  Fs2
 BYTE   N96  An2
 BYTE   W96
 BYTE   PEND 
// 006   ----------------------------------------
Label_2_0131A4D1:
 BYTE   TIE  En2  v116
 BYTE   TIE  Gn2
 BYTE   TIE  Bn2
 BYTE   W96
 BYTE   PEND 
// 007   ----------------------------------------
 BYTE   W96
// 008   ----------------------------------------
 BYTE   EOT
 BYTE   En2  v055
 BYTE   Bn2
Label_2_0131A4DF:
 BYTE   TIE  En2  v116
 BYTE   TIE  Gn2
 BYTE   TIE  Cn3
 BYTE   W96
 BYTE   PEND 
// 009   ----------------------------------------
 BYTE   W96
// 010   ----------------------------------------
 BYTE   EOT
 BYTE   En2  v055
 BYTE   Cn3
 BYTE   PATT
  POIN2 Label_2_0131A4B1
// 011   ----------------------------------------
 BYTE   W96
// 012   ----------------------------------------
 BYTE   EOT
 BYTE   En2  v055
 BYTE   Bn2
 BYTE   PATT
  POIN2 Label_2_0131A4BF
 BYTE   PATT
  POIN2 Label_2_0131A4C8
// 013   ----------------------------------------
 BYTE   TIE  Ds2  v116
 BYTE   TIE  Fs2
 BYTE   N96  An2
 BYTE   W96
// 014   ----------------------------------------
 BYTE   Bn2
 BYTE   W96
// 015   ----------------------------------------
 BYTE   EOT
 BYTE   Ds2  v054
 BYTE   PATT
  POIN2 Label_2_0131A4DF
// 016   ----------------------------------------
 BYTE   W96
// 017   ----------------------------------------
 BYTE   EOT
 BYTE   En2  v055
 BYTE   Cn3
 BYTE   PATT
  POIN2 Label_2_0131A4B1
// 018   ----------------------------------------
 BYTE   W96
// 019   ----------------------------------------
 BYTE   EOT
 BYTE   En2  v055
 BYTE   Bn2
 BYTE   PATT
  POIN2 Label_2_0131A4BF
 BYTE   PATT
  POIN2 Label_2_0131A4C8
 BYTE   PATT
  POIN2 Label_2_0131A4D1
// 020   ----------------------------------------
 BYTE   W96
// 021   ----------------------------------------
 BYTE   EOT
 BYTE   En2  v055
 BYTE   Bn2
Label_2_0131A536:
 BYTE   N72  Cn2  v104
 BYTE   N72  En3  v084
 BYTE   N72  Gn3  v080
 BYTE   W72
 BYTE   PEND 
Label_2_0131A541:
 BYTE   N72  Bn1  v096
 BYTE   N72  Ds3
 BYTE   N72  Fs3  v084
 BYTE   W72
 BYTE   PEND 
// 022   ----------------------------------------
Label_2_0131A54B:
 BYTE   N72  Cn2  v112
 BYTE   N72  En3
 BYTE   N72  Gn3
 BYTE   W72
 BYTE   PEND 
Label_2_0131A554:
 BYTE   N72  Ds2  v104
 BYTE   N72  Bn2  v076
 BYTE   N72  Fs3  v096
 BYTE   W72
 BYTE   PEND 
// 023   ----------------------------------------
Label_2_0131A55F:
 BYTE   N72  Cn2  v108
 BYTE   N72  En3  v076
 BYTE   N72  Gn3  v108
 BYTE   W72
 BYTE   PEND 
Label_2_0131A56A:
 BYTE   N72  Dn2  v112
 BYTE   N72  Fs3  v096
 BYTE   N72  An3
 BYTE   W72
 BYTE   PEND 
// 024   ----------------------------------------
Label_2_0131A574:
 BYTE   TIE  En2  v108
 BYTE   TIE  Gn3  v112
 BYTE   TIE  Bn3
 BYTE   W72
 BYTE   PEND 
 BYTE   W72
// 025   ----------------------------------------
 BYTE   EOT
 BYTE   En2  v067
 BYTE   Bn3
 BYTE   PATT
  POIN2 Label_2_0131A536
 BYTE   PATT
  POIN2 Label_2_0131A541
 BYTE   PATT
  POIN2 Label_2_0131A54B
 BYTE   PATT
  POIN2 Label_2_0131A554
 BYTE   PATT
  POIN2 Label_2_0131A55F
 BYTE   PATT
  POIN2 Label_2_0131A56A
 BYTE   PATT
  POIN2 Label_2_0131A574
// 026   ----------------------------------------
 BYTE   W72
 BYTE   EOT
 BYTE   En2  v067
 BYTE   Bn3
Label_2_0131A5AB:
 BYTE   TIE  Fn2  v116
 BYTE   TIE  Gs2
 BYTE   TIE  Cs3
 BYTE   W96
 BYTE   PEND 
// 027   ----------------------------------------
 BYTE   W96
// 028   ----------------------------------------
 BYTE   EOT
 BYTE   Fn2  v056
 BYTE   Cs3
Label_2_0131A5B9:
 BYTE   TIE  Fn2  v120
 BYTE   TIE  Gs2
 BYTE   TIE  Cn3
 BYTE   W96
 BYTE   PEND 
// 029   ----------------------------------------
 BYTE   W96
// 030   ----------------------------------------
 BYTE   EOT
 BYTE   Fn2  v056
 BYTE   Cn3
Label_2_0131A5C7:
 BYTE   N96  Cs2  v112
 BYTE   N96  Fn2
 BYTE   N96  Gs2
 BYTE   W96
 BYTE   PEND 
// 031   ----------------------------------------
Label_2_0131A5D0:
 BYTE   N96  Ds2  v112
 BYTE   N96  Gn2
 BYTE   N96  As2
 BYTE   W96
 BYTE   PEND 
// 032   ----------------------------------------
Label_2_0131A5D9:
 BYTE   TIE  Fn2  v116
 BYTE   TIE  Gs2
 BYTE   TIE  Cn3
 BYTE   W96
 BYTE   PEND 
// 033   ----------------------------------------
 BYTE   W96
// 034   ----------------------------------------
 BYTE   EOT
 BYTE   Fn2  v056
 BYTE   Cn3
 BYTE   PATT
  POIN2 Label_2_0131A5AB
// 035   ----------------------------------------
 BYTE   W96
// 036   ----------------------------------------
 BYTE   EOT
 BYTE   Fn2  v056
 BYTE   Cs3
 BYTE   PATT
  POIN2 Label_2_0131A5B9
// 037   ----------------------------------------
 BYTE   W96
// 038   ----------------------------------------
 BYTE   EOT
 BYTE   Fn2  v056
 BYTE   Cn3
 BYTE   PATT
  POIN2 Label_2_0131A5C7
 BYTE   PATT
  POIN2 Label_2_0131A5D0
 BYTE   PATT
  POIN2 Label_2_0131A5D9
// 039   ----------------------------------------
 BYTE   W96
// 040   ----------------------------------------
 BYTE   EOT
 BYTE   Fn2  v056
 BYTE   Cn3
 BYTE   PATT
  POIN2 Label_2_0131A4DF
// 041   ----------------------------------------
 BYTE   W96
// 042   ----------------------------------------
 BYTE   EOT
 BYTE   En2  v055
 BYTE   Cn3
 BYTE   PATT
  POIN2 Label_2_0131A4B1
// 043   ----------------------------------------
 BYTE   W96
// 044   ----------------------------------------
 BYTE   EOT
 BYTE   En2  v055
 BYTE   Bn2
 BYTE   PATT
  POIN2 Label_2_0131A4BF
 BYTE   PATT
  POIN2 Label_2_0131A4C8
 BYTE   PATT
  POIN2 Label_2_0131A4D1
// 045   ----------------------------------------
 BYTE   W96
// 046   ----------------------------------------
 BYTE   EOT
 BYTE   En2  v055
 BYTE   Bn2
 BYTE   W06
 BYTE   GoTo
  POIN2 Label_2_0131A49E
 BYTE   FINE

//**************** Track 4 (Midi-Chn.3) ****************//

Touhou8Voyage1969MrGreen3339_004:
// 000   ----------------------------------------
 BYTE   KEYSH   Touhou8Voyage1969MrGreen3339_key+0
Label_3_0131A642:
 BYTE   VOICE   1
 BYTE   PAN   c_v-4
 BYTE   VOL   65*Touhou8Voyage1969MrGreen3339_mvl/mxv
 BYTE   N06  Cn2  v052
 BYTE   W06
 BYTE   Dn2  v056
 BYTE   W06
 BYTE   En2  v060
 BYTE   W06
 BYTE   Gn2  v064
 BYTE   W06
 BYTE   Cn3  v068
 BYTE   W06
 BYTE   Dn3  v072
 BYTE   W06
 BYTE   En3  v076
 BYTE   W06
 BYTE   Gn3
 BYTE   W06
 BYTE   Cn4  v080
 BYTE   W06
 BYTE   Dn4  v076
 BYTE   W06
 BYTE   En4
 BYTE   W06
 BYTE   Fs4  v084
 BYTE   W06
 BYTE   Gn4  v092
 BYTE   W06
 BYTE   Cn5
 BYTE   W06
 BYTE   Dn5  v088
 BYTE   W06
 BYTE   Fs5
 BYTE   W06
// 001   ----------------------------------------
Label_3_0131A675:
 BYTE   N06  En5  v088
 BYTE   W06
 BYTE   Dn5
 BYTE   W06
 BYTE   An4  v084
 BYTE   W06
 BYTE   Bn4  v080
 BYTE   W06
 BYTE   Gn4  v068
 BYTE   W48
 BYTE   Bn3  v064
 BYTE   W06
 BYTE   An3
 BYTE   W06
 BYTE   Gn3  v076
 BYTE   W06
 BYTE   Fs3  v092
 BYTE   W06
 BYTE   PEND 
// 002   ----------------------------------------
Label_3_0131A690:
 BYTE   N06  En3  v088
 BYTE   W06
 BYTE   Bn3
 BYTE   W06
 BYTE   An3
 BYTE   W06
 BYTE   Dn4  v092
 BYTE   W06
 BYTE   Bn3
 BYTE   W06
 BYTE   En4
 BYTE   W06
 BYTE   Dn4  v096
 BYTE   W06
 BYTE   En4  v100
 BYTE   W06
 BYTE   An4
 BYTE   W06
 BYTE   Bn4  v104
 BYTE   W06
 BYTE   Dn5  v108
 BYTE   W06
 BYTE   En5  v112
 BYTE   W06
 BYTE   An5  v116
 BYTE   W06
 BYTE   Bn5  v112
 BYTE   W06
 BYTE   Dn6  v108
 BYTE   W06
 BYTE   En6
 BYTE   W06
 BYTE   PEND 
// 003   ----------------------------------------
Label_3_0131A6BC:
 BYTE   N06  Bn5  v108
 BYTE   W06
 BYTE   Dn6
 BYTE   W06
 BYTE   An5  v104
 BYTE   W06
 BYTE   Bn5  v100
 BYTE   W06
 BYTE   Gn5
 BYTE   W06
 BYTE   An5  v096
 BYTE   W06
 BYTE   En5  v092
 BYTE   W06
 BYTE   Gn5
 BYTE   W06
 BYTE   Dn5  v084
 BYTE   W06
 BYTE   Bn4  v080
 BYTE   W06
 BYTE   An4  v068
 BYTE   W06
 BYTE   Bn4  v060
 BYTE   W06
 BYTE   Gn4
 BYTE   W06
 BYTE   An4
 BYTE   W06
 BYTE   Fs4
 BYTE   W12
 BYTE   PEND 
// 004   ----------------------------------------
Label_3_0131A6E5:
 BYTE   N06  Cn3  v096
 BYTE   W06
 BYTE   Dn3
 BYTE   W06
 BYTE   En3  v092
 BYTE   W06
 BYTE   Gn3
 BYTE   W06
 BYTE   Cn4
 BYTE   W06
 BYTE   Dn4  v096
 BYTE   W06
 BYTE   En4  v100
 BYTE   W06
 BYTE   Gn4
 BYTE   W06
 BYTE   Cn5  v112
 BYTE   W06
 BYTE   Dn5  v116
 BYTE   W06
 BYTE   En5
 BYTE   W06
 BYTE   Gn5  v120
 BYTE   W06
 BYTE   Cn6
 BYTE   W06
 BYTE   Gn5  v116
 BYTE   W06
 BYTE   En5  v112
 BYTE   W06
 BYTE   Dn5  v100
 BYTE   W06
 BYTE   PEND 
// 005   ----------------------------------------
Label_3_0131A711:
 BYTE   N06  Dn3  v104
 BYTE   W06
 BYTE   En3  v096
 BYTE   W06
 BYTE   Fs3  v092
 BYTE   W06
 BYTE   An3
 BYTE   W06
 BYTE   Dn4
 BYTE   W06
 BYTE   En4
 BYTE   W06
 BYTE   Fs4  v080
 BYTE   W06
 BYTE   An4  v088
 BYTE   W06
 BYTE   Dn5  v092
 BYTE   W06
 BYTE   En5  v100
 BYTE   W06
 BYTE   Fs5  v104
 BYTE   W06
 BYTE   An5  v108
 BYTE   W06
 BYTE   Dn6  v112
 BYTE   W06
 BYTE   An5
 BYTE   W06
 BYTE   Gs3  v048
 BYTE   N06  Fs5  v112
 BYTE   W06
 BYTE   En5  v104
 BYTE   W06
 BYTE   PEND 
// 006   ----------------------------------------
Label_3_0131A742:
 BYTE   N06  En5  v104
 BYTE   W06
 BYTE   Bn5
 BYTE   W06
 BYTE   En5  v108
 BYTE   W06
 BYTE   N06
 BYTE   W06
 BYTE   N06
 BYTE   W06
 BYTE   Bn5
 BYTE   W06
 BYTE   En5
 BYTE   W06
 BYTE   Dn5
 BYTE   W06
 BYTE   Bn4  v112
 BYTE   W06
 BYTE   En5
 BYTE   W06
 BYTE   An4  v104
 BYTE   W06
 BYTE   Bn4  v100
 BYTE   W06
 BYTE   Gn4  v096
 BYTE   W06
 BYTE   N06
 BYTE   W06
 BYTE   An4  v088
 BYTE   W06
 BYTE   Fs4  v092
 BYTE   W06
 BYTE   PEND 
// 007   ----------------------------------------
Label_3_0131A76C:
 BYTE   N06  Gn4  v092
 BYTE   W06
 BYTE   En4  v096
 BYTE   W06
 BYTE   Fs4
 BYTE   W06
 BYTE   Dn4
 BYTE   W06
 BYTE   En4  v088
 BYTE   W06
 BYTE   Bn3
 BYTE   W06
 BYTE   Dn4  v084
 BYTE   W06
 BYTE   En4  v088
 BYTE   W06
 BYTE   An3
 BYTE   W06
 BYTE   Dn4
 BYTE   W06
 BYTE   Bn3  v092
 BYTE   W06
 BYTE   Gn3  v096
 BYTE   W06
 BYTE   Fs3  v092
 BYTE   W06
 BYTE   Dn3
 BYTE   W06
 BYTE   En3
 BYTE   W12
 BYTE   PEND 
// 008   ----------------------------------------
Label_3_0131A794:
 BYTE   N06  En3  v096
 BYTE   W06
 BYTE   Bn3  v112
 BYTE   W06
 BYTE   Fs3  v096
 BYTE   W06
 BYTE   Gn3  v088
 BYTE   W06
 BYTE   Bn3  v108
 BYTE   W06
 BYTE   En3  v096
 BYTE   W06
 BYTE   Fs3  v092
 BYTE   W06
 BYTE   Gn3  v108
 BYTE   W06
 BYTE   Fs3  v096
 BYTE   W06
 BYTE   Gn3
 BYTE   W06
 BYTE   Bn3  v108
 BYTE   W06
 BYTE   En3  v096
 BYTE   W06
 BYTE   Fs3  v084
 BYTE   W06
 BYTE   Gn3  v092
 BYTE   W06
 BYTE   Fs3  v096
 BYTE   W06
 BYTE   Bn3  v108
 BYTE   W06
 BYTE   PEND 
// 009   ----------------------------------------
Label_3_0131A7C5:
 BYTE   N06  En3  v108
 BYTE   W06
 BYTE   Bn3  v096
 BYTE   W06
 BYTE   Fs3  v076
 BYTE   W06
 BYTE   Gn3  v092
 BYTE   W06
 BYTE   Bn3  v112
 BYTE   W06
 BYTE   En3  v092
 BYTE   W06
 BYTE   Fs3
 BYTE   W06
 BYTE   Gn3  v108
 BYTE   W06
 BYTE   Fs3  v080
 BYTE   W06
 BYTE   Gn3  v108
 BYTE   W06
 BYTE   Bn3
 BYTE   W06
 BYTE   En3  v096
 BYTE   W06
 BYTE   Fs3  v092
 BYTE   W06
 BYTE   Gn3  v108
 BYTE   W06
 BYTE   En3  v112
 BYTE   W06
 BYTE   Bn3  v108
 BYTE   W06
 BYTE   PEND 
 BYTE   PATT
  POIN2 Label_3_0131A794
 BYTE   PATT
  POIN2 Label_3_0131A7C5
 BYTE   PATT
  POIN2 Label_3_0131A794
 BYTE   PATT
  POIN2 Label_3_0131A7C5
// 010   ----------------------------------------
 BYTE   N06  Ds3  v096
 BYTE   W06
 BYTE   Bn3  v112
 BYTE   W06
 BYTE   Ds3  v096
 BYTE   W06
 BYTE   En3  v088
 BYTE   W06
 BYTE   Fs3  v108
 BYTE   W06
 BYTE   En3  v096
 BYTE   W06
 BYTE   Fs3  v092
 BYTE   W06
 BYTE   Bn3  v108
 BYTE   W06
 BYTE   Ds4  v096
 BYTE   W06
 BYTE   En4
 BYTE   W06
 BYTE   Fs4  v108
 BYTE   W06
 BYTE   An3  v096
 BYTE   W06
 BYTE   Ds4  v084
 BYTE   W06
 BYTE   Bn3  v092
 BYTE   W06
 BYTE   Fs3  v096
 BYTE   W06
 BYTE   Bn3  v108
 BYTE   W06
// 011   ----------------------------------------
 BYTE   Ds3
 BYTE   W06
 BYTE   En3  v096
 BYTE   W06
 BYTE   Fs3  v076
 BYTE   W06
 BYTE   Ds3  v092
 BYTE   W06
 BYTE   En3  v112
 BYTE   W06
 BYTE   Bn3  v092
 BYTE   W06
 BYTE   Ds3
 BYTE   W06
 BYTE   En3  v108
 BYTE   W06
 BYTE   Fs3  v080
 BYTE   W06
 BYTE   Ds3  v108
 BYTE   W06
 BYTE   En3
 BYTE   W06
 BYTE   Bn3  v096
 BYTE   W06
 BYTE   Ds3  v092
 BYTE   W06
 BYTE   Bn3  v108
 BYTE   W06
 BYTE   Ds3  v112
 BYTE   W06
 BYTE   Bn3  v108
 BYTE   W06
 BYTE   PATT
  POIN2 Label_3_0131A794
 BYTE   PATT
  POIN2 Label_3_0131A7C5
 BYTE   PATT
  POIN2 Label_3_0131A794
 BYTE   PATT
  POIN2 Label_3_0131A7C5
 BYTE   PATT
  POIN2 Label_3_0131A794
 BYTE   PATT
  POIN2 Label_3_0131A7C5
 BYTE   PATT
  POIN2 Label_3_0131A794
 BYTE   PATT
  POIN2 Label_3_0131A7C5
// 012   ----------------------------------------
 BYTE   N06  Cn4  v112
 BYTE   W06
 BYTE   Gn3  v084
 BYTE   W06
 BYTE   En3  v096
 BYTE   W06
 BYTE   Cn4  v108
 BYTE   W06
 BYTE   Gn3
 BYTE   W06
 BYTE   En3
 BYTE   W06
 BYTE   Cn4  v096
 BYTE   W06
 BYTE   Gn3
 BYTE   W06
 BYTE   En3  v100
 BYTE   W06
 BYTE   Cn4  v096
 BYTE   W06
 BYTE   Gn3  v080
 BYTE   W06
 BYTE   En3  v096
 BYTE   W06
 BYTE   Bn3  v120
 BYTE   W06
 BYTE   Fs3  v100
 BYTE   W06
 BYTE   Ds3  v112
 BYTE   W06
 BYTE   Bn3  v108
 BYTE   W06
// 013   ----------------------------------------
 BYTE   Fs3  v084
 BYTE   W06
 BYTE   Ds3  v108
 BYTE   W06
 BYTE   Bn3
 BYTE   W06
 BYTE   Fs3  v092
 BYTE   W06
 BYTE   Ds3  v108
 BYTE   W06
 BYTE   Bn3  v096
 BYTE   W06
 BYTE   Fs3  v092
 BYTE   W06
 BYTE   Ds3  v116
 BYTE   W06
 BYTE   Cn4  v108
 BYTE   W06
 BYTE   Gn3  v096
 BYTE   W06
 BYTE   En3  v112
 BYTE   W06
 BYTE   Cn4  v096
 BYTE   W06
 BYTE   Gn3  v108
 BYTE   W06
 BYTE   En3  v112
 BYTE   W06
 BYTE   Cn4  v108
 BYTE   W06
 BYTE   Gn3  v096
 BYTE   W06
// 014   ----------------------------------------
 BYTE   En3  v112
 BYTE   W06
 BYTE   Cn4  v108
 BYTE   W06
 BYTE   Gn3  v100
 BYTE   W06
 BYTE   En3  v112
 BYTE   W06
 BYTE   Bn3  v108
 BYTE   W06
 BYTE   Fs3  v088
 BYTE   W06
 BYTE   Ds3  v108
 BYTE   W06
 BYTE   Bn3  v112
 BYTE   W06
 BYTE   Fs3  v092
 BYTE   W06
 BYTE   Ds3  v108
 BYTE   W06
 BYTE   Bn3  v112
 BYTE   W06
 BYTE   Fs3  v108
 BYTE   W06
 BYTE   Ds3  v112
 BYTE   W06
 BYTE   Bn3  v120
 BYTE   W06
 BYTE   Fs3  v112
 BYTE   W06
 BYTE   Ds3  v120
 BYTE   W06
// 015   ----------------------------------------
 BYTE   Cn4  v112
 BYTE   W06
 BYTE   Gn3  v096
 BYTE   W06
 BYTE   En3  v112
 BYTE   W06
 BYTE   Cn4
 BYTE   W06
 BYTE   Gn3  v108
 BYTE   W06
 BYTE   En3  v092
 BYTE   W06
 BYTE   Cn4  v112
 BYTE   W06
 BYTE   Gn3  v108
 BYTE   W06
 BYTE   En3  v112
 BYTE   W06
 BYTE   Cn4
 BYTE   W06
 BYTE   Gn3  v108
 BYTE   W06
 BYTE   En3
 BYTE   W06
 BYTE   Dn4  v112
 BYTE   W06
 BYTE   An3  v108
 BYTE   W06
 BYTE   Fs3
 BYTE   W06
 BYTE   Dn4
 BYTE   W06
// 016   ----------------------------------------
 BYTE   An3
 BYTE   W06
 BYTE   Fs3
 BYTE   W06
 BYTE   Fs4  v112
 BYTE   W06
 BYTE   Dn4  v108
 BYTE   W06
 BYTE   An3  v096
 BYTE   W06
 BYTE   Fs4  v120
 BYTE   W06
 BYTE   Dn4  v108
 BYTE   W06
 BYTE   An3
 BYTE   W06
 BYTE   En4  v112
 BYTE   W06
 BYTE   Bn3  v108
 BYTE   W06
 BYTE   Gn3  v112
 BYTE   W06
 BYTE   Dn4  v120
 BYTE   W06
 BYTE   An3  v096
 BYTE   W06
 BYTE   Fs3
 BYTE   W06
 BYTE   Bn3  v112
 BYTE   W06
 BYTE   Gn3  v108
 BYTE   W06
// 017   ----------------------------------------
 BYTE   En3
 BYTE   W06
 BYTE   An3  v112
 BYTE   W06
 BYTE   Fs3  v108
 BYTE   W06
 BYTE   Dn3
 BYTE   W06
 BYTE   Gn3
 BYTE   W06
 BYTE   En3
 BYTE   W06
 BYTE   Bn2  v116
 BYTE   W06
 BYTE   Fs3  v108
 BYTE   W06
 BYTE   Dn3
 BYTE   W06
 BYTE   An2  v112
 BYTE   W06
 BYTE   En3  v108
 BYTE   W06
 BYTE   Bn2
 BYTE   W06
 BYTE   Gn2  v112
 BYTE   W06
 BYTE   Dn3  v108
 BYTE   W06
 BYTE   An2  v092
 BYTE   W06
 BYTE   Fs2  v084
 BYTE   W06
// 018   ----------------------------------------
 BYTE   Cn5  v112
 BYTE   W06
 BYTE   Gn4  v084
 BYTE   W06
 BYTE   En4  v096
 BYTE   W06
 BYTE   Cn5  v108
 BYTE   W06
 BYTE   Gn4
 BYTE   W06
 BYTE   En4
 BYTE   W06
 BYTE   Cn5  v096
 BYTE   W06
 BYTE   Gn4
 BYTE   W06
 BYTE   En4  v100
 BYTE   W06
 BYTE   Cn5  v096
 BYTE   W06
 BYTE   Gn4  v080
 BYTE   W06
 BYTE   En4  v096
 BYTE   W06
 BYTE   Bn4  v120
 BYTE   W06
 BYTE   Fs4  v100
 BYTE   W06
 BYTE   Ds4  v112
 BYTE   W06
 BYTE   Bn4  v108
 BYTE   W06
// 019   ----------------------------------------
 BYTE   Fs4  v084
 BYTE   W06
 BYTE   Ds4  v108
 BYTE   W06
 BYTE   Bn4
 BYTE   W06
 BYTE   Fs4  v092
 BYTE   W06
 BYTE   Ds4  v108
 BYTE   W06
 BYTE   Bn4  v096
 BYTE   W06
 BYTE   Fs4  v092
 BYTE   W06
 BYTE   Ds4  v116
 BYTE   W06
 BYTE   Cn5  v108
 BYTE   W06
 BYTE   Gn4  v096
 BYTE   W06
 BYTE   En4  v112
 BYTE   W06
 BYTE   Cn5  v096
 BYTE   W06
 BYTE   Gn4  v108
 BYTE   W06
 BYTE   En4  v112
 BYTE   W06
 BYTE   Cn5  v108
 BYTE   W06
 BYTE   Gn4  v096
 BYTE   W06
// 020   ----------------------------------------
 BYTE   En4  v112
 BYTE   W06
 BYTE   Cn5  v108
 BYTE   W06
 BYTE   Gn4  v100
 BYTE   W06
 BYTE   En4  v112
 BYTE   W06
 BYTE   Bn4  v108
 BYTE   W06
 BYTE   Fs4  v088
 BYTE   W06
 BYTE   Ds4  v108
 BYTE   W06
 BYTE   Bn4  v112
 BYTE   W06
 BYTE   Fs4  v092
 BYTE   W06
 BYTE   Ds4  v108
 BYTE   W06
 BYTE   Bn4  v112
 BYTE   W06
 BYTE   Fs4  v108
 BYTE   W06
 BYTE   Ds4  v112
 BYTE   W06
 BYTE   Bn4  v120
 BYTE   W06
 BYTE   Fs4  v112
 BYTE   W06
 BYTE   Ds4  v120
 BYTE   W06
// 021   ----------------------------------------
 BYTE   Cn5  v112
 BYTE   W06
 BYTE   Gn4  v096
 BYTE   W06
 BYTE   En4  v112
 BYTE   W06
 BYTE   Cn5
 BYTE   W06
 BYTE   Gn4  v108
 BYTE   W06
 BYTE   En4  v092
 BYTE   W06
 BYTE   Cn5  v112
 BYTE   W06
 BYTE   Gn4  v108
 BYTE   W06
 BYTE   En4  v112
 BYTE   W06
 BYTE   Cn5
 BYTE   W06
 BYTE   Gn4  v108
 BYTE   W06
 BYTE   En4
 BYTE   W06
 BYTE   Dn5  v112
 BYTE   W06
 BYTE   An4  v108
 BYTE   W06
 BYTE   Fs4
 BYTE   W06
 BYTE   Dn5
 BYTE   W06
// 022   ----------------------------------------
 BYTE   An4
 BYTE   W06
 BYTE   Fs4
 BYTE   W06
 BYTE   Fs5  v112
 BYTE   W06
 BYTE   Dn5  v108
 BYTE   W06
 BYTE   An4  v096
 BYTE   W06
 BYTE   Fs5  v120
 BYTE   W06
 BYTE   Dn5  v108
 BYTE   W06
 BYTE   An4
 BYTE   W06
 BYTE   En5  v112
 BYTE   W06
 BYTE   Bn4  v108
 BYTE   W06
 BYTE   Gn4  v112
 BYTE   W06
 BYTE   Dn5  v120
 BYTE   W06
 BYTE   An4  v096
 BYTE   W06
 BYTE   Fs4
 BYTE   W06
 BYTE   Bn4  v112
 BYTE   W06
 BYTE   Gn4  v108
 BYTE   W06
// 023   ----------------------------------------
 BYTE   En4
 BYTE   W06
 BYTE   An4  v112
 BYTE   W06
 BYTE   Fs4  v108
 BYTE   W06
 BYTE   Dn4
 BYTE   W06
 BYTE   Gn4
 BYTE   W06
 BYTE   En4
 BYTE   W06
 BYTE   Bn3  v116
 BYTE   W06
 BYTE   Fs4  v108
 BYTE   W06
 BYTE   Dn4
 BYTE   W06
 BYTE   An3  v112
 BYTE   W06
 BYTE   En4  v108
 BYTE   W06
 BYTE   Bn3
 BYTE   W06
 BYTE   Gn3  v112
 BYTE   W06
 BYTE   Dn4  v108
 BYTE   W06
 BYTE   An3  v092
 BYTE   W06
 BYTE   Fs3  v084
 BYTE   W06
// 024   ----------------------------------------
 BYTE   Cs2  v052
 BYTE   W06
 BYTE   Ds2  v056
 BYTE   W06
 BYTE   Fn2  v060
 BYTE   W06
 BYTE   Gs2  v064
 BYTE   W06
 BYTE   Cs3  v068
 BYTE   W06
 BYTE   Ds3  v072
 BYTE   W06
 BYTE   Fn3  v076
 BYTE   W06
 BYTE   Gs3
 BYTE   W06
 BYTE   Cs4  v080
 BYTE   W06
 BYTE   Ds4  v076
 BYTE   W06
 BYTE   Fn4
 BYTE   W06
 BYTE   Gn4  v084
 BYTE   W06
 BYTE   Gs4  v092
 BYTE   W06
 BYTE   Cs5
 BYTE   W06
 BYTE   Ds5  v088
 BYTE   W06
 BYTE   Gn5
 BYTE   W06
// 025   ----------------------------------------
 BYTE   Fn5
 BYTE   W06
 BYTE   Ds5
 BYTE   W06
 BYTE   As4  v084
 BYTE   W06
 BYTE   Cn5  v080
 BYTE   W06
 BYTE   Gs4  v068
 BYTE   W48
 BYTE   Cn4  v064
 BYTE   W06
 BYTE   As3
 BYTE   W06
 BYTE   Gs3  v076
 BYTE   W06
 BYTE   Gn3  v092
 BYTE   W06
// 026   ----------------------------------------
 BYTE   Fn3  v088
 BYTE   W06
 BYTE   Cn4
 BYTE   W06
 BYTE   As3
 BYTE   W06
 BYTE   Ds4  v092
 BYTE   W06
 BYTE   Cn4
 BYTE   W06
 BYTE   Fn4
 BYTE   W06
 BYTE   Ds4  v096
 BYTE   W06
 BYTE   Fn4  v100
 BYTE   W06
 BYTE   As4
 BYTE   W06
 BYTE   Cn5  v104
 BYTE   W06
 BYTE   Ds5  v108
 BYTE   W06
 BYTE   Fn5  v112
 BYTE   W06
 BYTE   As5  v116
 BYTE   W06
 BYTE   Cn6  v112
 BYTE   W06
 BYTE   Ds6  v108
 BYTE   W06
 BYTE   Fn6
 BYTE   W06
// 027   ----------------------------------------
 BYTE   Cn6
 BYTE   W06
 BYTE   Ds6
 BYTE   W06
 BYTE   As5  v104
 BYTE   W06
 BYTE   Cn6  v100
 BYTE   W06
 BYTE   Gs5
 BYTE   W06
 BYTE   As5  v096
 BYTE   W06
 BYTE   Fn5  v092
 BYTE   W06
 BYTE   Gs5
 BYTE   W06
 BYTE   Ds5  v084
 BYTE   W06
 BYTE   Cn5  v080
 BYTE   W06
 BYTE   As4  v068
 BYTE   W06
 BYTE   Cn5  v060
 BYTE   W06
 BYTE   Gs4
 BYTE   W06
 BYTE   As4
 BYTE   W06
 BYTE   Gn4
 BYTE   W12
// 028   ----------------------------------------
 BYTE   Cs3  v096
 BYTE   W06
 BYTE   Ds3
 BYTE   W06
 BYTE   Fn3  v092
 BYTE   W06
 BYTE   Gs3
 BYTE   W06
 BYTE   Cs4
 BYTE   W06
 BYTE   Ds4  v096
 BYTE   W06
 BYTE   Fn4  v100
 BYTE   W06
 BYTE   Gs4
 BYTE   W06
 BYTE   Cs5  v112
 BYTE   W06
 BYTE   Ds5  v116
 BYTE   W06
 BYTE   Fn5
 BYTE   W06
 BYTE   Gs5  v120
 BYTE   W06
 BYTE   Cs6
 BYTE   W06
 BYTE   Gs5  v116
 BYTE   W06
 BYTE   Fn5  v112
 BYTE   W06
 BYTE   Ds5  v100
 BYTE   W06
// 029   ----------------------------------------
 BYTE   Ds3  v104
 BYTE   W06
 BYTE   Fn3  v096
 BYTE   W06
 BYTE   Gn3  v092
 BYTE   W06
 BYTE   As3
 BYTE   W06
 BYTE   Ds4
 BYTE   W06
 BYTE   Fn4
 BYTE   W06
 BYTE   Gn4  v080
 BYTE   W06
 BYTE   As4  v088
 BYTE   W06
 BYTE   Ds5  v092
 BYTE   W06
 BYTE   Fn5  v100
 BYTE   W06
 BYTE   Gn5  v104
 BYTE   W06
 BYTE   As5  v108
 BYTE   W06
 BYTE   Ds6  v112
 BYTE   W06
 BYTE   As5
 BYTE   W06
 BYTE   An3  v048
 BYTE   N06  Gn5  v112
 BYTE   W06
 BYTE   Fn5  v104
 BYTE   W06
// 030   ----------------------------------------
 BYTE   N06
 BYTE   W06
 BYTE   Cn6
 BYTE   W06
 BYTE   Fn5  v108
 BYTE   W06
 BYTE   N06
 BYTE   W06
 BYTE   N06
 BYTE   W06
 BYTE   Cn6
 BYTE   W06
 BYTE   Fn5
 BYTE   W06
 BYTE   Ds5
 BYTE   W06
 BYTE   Cn5  v112
 BYTE   W06
 BYTE   Fn5
 BYTE   W06
 BYTE   As4  v104
 BYTE   W06
 BYTE   Cn5  v100
 BYTE   W06
 BYTE   Gs4  v096
 BYTE   W06
 BYTE   N06
 BYTE   W06
 BYTE   As4  v088
 BYTE   W06
 BYTE   Gn4  v092
 BYTE   W06
// 031   ----------------------------------------
 BYTE   Gs4
 BYTE   W06
 BYTE   Fn4  v096
 BYTE   W06
 BYTE   Gn4
 BYTE   W06
 BYTE   Ds4
 BYTE   W06
 BYTE   Fn4  v088
 BYTE   W06
 BYTE   Cn4
 BYTE   W06
 BYTE   Ds4  v084
 BYTE   W06
 BYTE   Fn4  v088
 BYTE   W06
 BYTE   As3
 BYTE   W06
 BYTE   Ds4
 BYTE   W06
 BYTE   Cn4  v092
 BYTE   W06
 BYTE   Gs3  v096
 BYTE   W06
 BYTE   Gn3  v092
 BYTE   W06
 BYTE   Ds3
 BYTE   W06
 BYTE   Fn3
 BYTE   W12
// 032   ----------------------------------------
Label_3_0131ABE2:
 BYTE   N06  Fn3  v096
 BYTE   W06
 BYTE   Cn4  v112
 BYTE   W06
 BYTE   Gn3  v096
 BYTE   W06
 BYTE   Gs3  v088
 BYTE   W06
 BYTE   Cn4  v108
 BYTE   W06
 BYTE   Fn3  v096
 BYTE   W06
 BYTE   Gn3  v092
 BYTE   W06
 BYTE   Gs3  v108
 BYTE   W06
 BYTE   Gn3  v096
 BYTE   W06
 BYTE   Gs3
 BYTE   W06
 BYTE   Cn4  v108
 BYTE   W06
 BYTE   Fn3  v096
 BYTE   W06
 BYTE   Gn3  v084
 BYTE   W06
 BYTE   Gs3  v092
 BYTE   W06
 BYTE   Gn3  v096
 BYTE   W06
 BYTE   Cn4  v108
 BYTE   W06
 BYTE   PEND 
// 033   ----------------------------------------
Label_3_0131AC13:
 BYTE   N06  Fn3  v108
 BYTE   W06
 BYTE   Cn4  v096
 BYTE   W06
 BYTE   Gn3  v076
 BYTE   W06
 BYTE   Gs3  v092
 BYTE   W06
 BYTE   Cn4  v112
 BYTE   W06
 BYTE   Fn3  v092
 BYTE   W06
 BYTE   Gn3
 BYTE   W06
 BYTE   Gs3  v108
 BYTE   W06
 BYTE   Gn3  v080
 BYTE   W06
 BYTE   Gs3  v108
 BYTE   W06
 BYTE   Cn4
 BYTE   W06
 BYTE   Fn3  v096
 BYTE   W06
 BYTE   Gn3  v092
 BYTE   W06
 BYTE   Gs3  v108
 BYTE   W06
 BYTE   Fn3  v112
 BYTE   W06
 BYTE   Cn4  v108
 BYTE   W06
 BYTE   PEND 
 BYTE   PATT
  POIN2 Label_3_0131ABE2
 BYTE   PATT
  POIN2 Label_3_0131AC13
 BYTE   PATT
  POIN2 Label_3_0131ABE2
 BYTE   PATT
  POIN2 Label_3_0131AC13
 BYTE   PATT
  POIN2 Label_3_0131ABE2
 BYTE   PATT
  POIN2 Label_3_0131AC13
// 034   ----------------------------------------
 BYTE   N06  Cn2  v052
 BYTE   W06
 BYTE   Dn2  v056
 BYTE   W06
 BYTE   En2  v060
 BYTE   W06
 BYTE   Gn2  v064
 BYTE   W06
 BYTE   Cn3  v068
 BYTE   W06
 BYTE   Dn3  v072
 BYTE   W06
 BYTE   En3  v076
 BYTE   W06
 BYTE   Gn3
 BYTE   W06
 BYTE   Cn4  v080
 BYTE   W06
 BYTE   Dn4  v076
 BYTE   W06
 BYTE   En4
 BYTE   W06
 BYTE   Fs4  v084
 BYTE   W06
 BYTE   Gn4  v092
 BYTE   W06
 BYTE   Cn5
 BYTE   W06
 BYTE   Dn5  v088
 BYTE   W06
 BYTE   Fs5
 BYTE   W06
 BYTE   PATT
  POIN2 Label_3_0131A675
 BYTE   PATT
  POIN2 Label_3_0131A690
 BYTE   PATT
  POIN2 Label_3_0131A6BC
 BYTE   PATT
  POIN2 Label_3_0131A6E5
 BYTE   PATT
  POIN2 Label_3_0131A711
 BYTE   PATT
  POIN2 Label_3_0131A742
 BYTE   PATT
  POIN2 Label_3_0131A76C
// 035   ----------------------------------------
 BYTE   W06
 BYTE   GoTo
  POIN2 Label_3_0131A642
 BYTE   FINE

//**************** Track 5 (Midi-Chn.4) ****************//

Touhou8Voyage1969MrGreen3339_005:
// 000   ----------------------------------------
 BYTE   KEYSH   Touhou8Voyage1969MrGreen3339_key+0
Label_4_0131ACBA:
 BYTE   VOICE   48
 BYTE   PAN   c_v+0
 BYTE   VOL   49*Touhou8Voyage1969MrGreen3339_mvl/mxv
 BYTE   TIE  En2  v116
 BYTE   TIE  Gn2
 BYTE   TIE  Cn3
 BYTE   W96
// 001   ----------------------------------------
 BYTE   W96
// 002   ----------------------------------------
 BYTE   EOT
 BYTE   En2  v055
 BYTE   Cn3
Label_4_0131ACCD:
 BYTE   TIE  En2  v120
 BYTE   TIE  Gn2
 BYTE   TIE  Bn2
 BYTE   W96
 BYTE   PEND 
// 003   ----------------------------------------
 BYTE   W96
// 004   ----------------------------------------
 BYTE   EOT
 BYTE   En2  v055
 BYTE   Bn2
Label_4_0131ACDB:
 BYTE   N96  Cn2  v112
 BYTE   N96  En2
 BYTE   N96  Gn2
 BYTE   W96
 BYTE   PEND 
// 005   ----------------------------------------
Label_4_0131ACE4:
 BYTE   N96  Dn2  v112
 BYTE   N96  Fs2
 BYTE   N96  An2
 BYTE   W96
 BYTE   PEND 
// 006   ----------------------------------------
Label_4_0131ACED:
 BYTE   TIE  En2  v116
 BYTE   TIE  Gn2
 BYTE   TIE  Bn2
 BYTE   W96
 BYTE   PEND 
// 007   ----------------------------------------
 BYTE   W96
// 008   ----------------------------------------
 BYTE   EOT
 BYTE   En2  v055
 BYTE   Bn2
Label_4_0131ACFB:
 BYTE   TIE  En2  v116
 BYTE   TIE  Gn2
 BYTE   TIE  Cn3
 BYTE   W96
 BYTE   PEND 
// 009   ----------------------------------------
 BYTE   W96
// 010   ----------------------------------------
 BYTE   EOT
 BYTE   En2  v055
 BYTE   Cn3
 BYTE   PATT
  POIN2 Label_4_0131ACCD
// 011   ----------------------------------------
 BYTE   W96
// 012   ----------------------------------------
 BYTE   EOT
 BYTE   En2  v055
 BYTE   Bn2
 BYTE   PATT
  POIN2 Label_4_0131ACDB
 BYTE   PATT
  POIN2 Label_4_0131ACE4
// 013   ----------------------------------------
 BYTE   TIE  Ds2  v116
 BYTE   TIE  Fs2
 BYTE   N96  An2
 BYTE   W96
// 014   ----------------------------------------
 BYTE   Bn2
 BYTE   W96
// 015   ----------------------------------------
 BYTE   EOT
 BYTE   Ds2  v054
 BYTE   PATT
  POIN2 Label_4_0131ACFB
// 016   ----------------------------------------
 BYTE   W96
// 017   ----------------------------------------
 BYTE   EOT
 BYTE   En2  v055
 BYTE   Cn3
 BYTE   PATT
  POIN2 Label_4_0131ACCD
// 018   ----------------------------------------
 BYTE   W96
// 019   ----------------------------------------
 BYTE   EOT
 BYTE   En2  v055
 BYTE   Bn2
 BYTE   PATT
  POIN2 Label_4_0131ACDB
 BYTE   PATT
  POIN2 Label_4_0131ACE4
 BYTE   PATT
  POIN2 Label_4_0131ACED
// 020   ----------------------------------------
 BYTE   W96
// 021   ----------------------------------------
 BYTE   EOT
 BYTE   En2  v055
 BYTE   Bn2
 BYTE   N72  Cn3  v104
 BYTE   N72  En4  v084
 BYTE   N72  Gn4  v080
 BYTE   W72
 BYTE   Bn2  v096
 BYTE   N72  Ds4
 BYTE   N72  Fs4  v084
 BYTE   W72
// 022   ----------------------------------------
 BYTE   Cn3  v112
 BYTE   N72  En4
 BYTE   N72  Gn4
 BYTE   W72
 BYTE   Ds3  v104
 BYTE   N72  Bn3  v076
 BYTE   N72  Fs4  v096
 BYTE   W72
// 023   ----------------------------------------
 BYTE   Cn3  v108
 BYTE   N72  En4  v076
 BYTE   N72  Gn4  v108
 BYTE   W72
 BYTE   Dn3  v112
 BYTE   N72  Fs4  v096
 BYTE   N72  An4
 BYTE   W72
// 024   ----------------------------------------
 BYTE   TIE  En3  v108
 BYTE   TIE  Gn4  v112
 BYTE   TIE  Bn4
 BYTE   W72
 BYTE   W72
// 025   ----------------------------------------
 BYTE   EOT
 BYTE   En3  v079
 BYTE   Bn4
Label_4_0131AD93:
 BYTE   N72  Cn3  v127
 BYTE   N72  En4
 BYTE   N72  Gn4
 BYTE   W72
 BYTE   PEND 
 BYTE   Bn2
 BYTE   N72  Ds4
 BYTE   N72  Fs4
 BYTE   W72
 BYTE   PATT
  POIN2 Label_4_0131AD93
// 026   ----------------------------------------
 BYTE   N72  Ds3  v127
 BYTE   N72  Bn3  v124
 BYTE   N72  Fs4  v127
 BYTE   W72
 BYTE   Cn3
 BYTE   N72  En4  v124
 BYTE   N72  Gn4  v127
 BYTE   W72
// 027   ----------------------------------------
 BYTE   Dn3
 BYTE   N72  Fs4
 BYTE   N72  An4
 BYTE   W72
 BYTE   TIE  En3
 BYTE   TIE  Gn4
 BYTE   TIE  Bn4
 BYTE   W72
// 028   ----------------------------------------
 BYTE   W72
 BYTE   EOT
 BYTE   En3  v079
 BYTE   Bn4
Label_4_0131ADCB:
 BYTE   TIE  Fn2  v116
 BYTE   TIE  Gs2
 BYTE   TIE  Cs3
 BYTE   W96
 BYTE   PEND 
// 029   ----------------------------------------
 BYTE   W96
// 030   ----------------------------------------
 BYTE   EOT
 BYTE   Fn2  v056
 BYTE   Cs3
Label_4_0131ADD9:
 BYTE   TIE  Fn2  v120
 BYTE   TIE  Gs2
 BYTE   TIE  Cn3
 BYTE   W96
 BYTE   PEND 
// 031   ----------------------------------------
 BYTE   W96
// 032   ----------------------------------------
 BYTE   EOT
 BYTE   Fn2  v056
 BYTE   Cn3
Label_4_0131ADE7:
 BYTE   N96  Cs2  v112
 BYTE   N96  Fn2
 BYTE   N96  Gs2
 BYTE   W96
 BYTE   PEND 
// 033   ----------------------------------------
Label_4_0131ADF0:
 BYTE   N96  Ds2  v112
 BYTE   N96  Gn2
 BYTE   N96  As2
 BYTE   W96
 BYTE   PEND 
// 034   ----------------------------------------
Label_4_0131ADF9:
 BYTE   TIE  Fn2  v116
 BYTE   TIE  Gs2
 BYTE   TIE  Cn3
 BYTE   W96
 BYTE   PEND 
// 035   ----------------------------------------
 BYTE   W96
// 036   ----------------------------------------
 BYTE   EOT
 BYTE   Fn2  v056
 BYTE   Cn3
 BYTE   PATT
  POIN2 Label_4_0131ADCB
// 037   ----------------------------------------
 BYTE   W96
// 038   ----------------------------------------
 BYTE   EOT
 BYTE   Fn2  v056
 BYTE   Cs3
 BYTE   PATT
  POIN2 Label_4_0131ADD9
// 039   ----------------------------------------
 BYTE   W96
// 040   ----------------------------------------
 BYTE   EOT
 BYTE   Fn2  v056
 BYTE   Cn3
 BYTE   PATT
  POIN2 Label_4_0131ADE7
 BYTE   PATT
  POIN2 Label_4_0131ADF0
 BYTE   PATT
  POIN2 Label_4_0131ADF9
// 041   ----------------------------------------
 BYTE   W96
// 042   ----------------------------------------
 BYTE   EOT
 BYTE   Fn2  v056
 BYTE   Cn3
 BYTE   PATT
  POIN2 Label_4_0131ACFB
// 043   ----------------------------------------
 BYTE   W96
// 044   ----------------------------------------
 BYTE   EOT
 BYTE   En2  v055
 BYTE   Cn3
 BYTE   PATT
  POIN2 Label_4_0131ACCD
// 045   ----------------------------------------
 BYTE   W96
// 046   ----------------------------------------
 BYTE   EOT
 BYTE   En2  v055
 BYTE   Bn2
 BYTE   PATT
  POIN2 Label_4_0131ACDB
 BYTE   PATT
  POIN2 Label_4_0131ACE4
 BYTE   PATT
  POIN2 Label_4_0131ACED
// 047   ----------------------------------------
 BYTE   W96
// 048   ----------------------------------------
 BYTE   EOT
 BYTE   En2  v055
 BYTE   Bn2
 BYTE   W06
 BYTE   GoTo
  POIN2 Label_4_0131ACBA
 BYTE   FINE

//**************** Track 6 (Midi-Chn.5) ****************//

Touhou8Voyage1969MrGreen3339_006:
// 000   ----------------------------------------
 BYTE   KEYSH   Touhou8Voyage1969MrGreen3339_key+0
Label_5_0131AE62:
 BYTE   VOICE   49
 BYTE   PAN   c_v+0
 BYTE   VOL   53*Touhou8Voyage1969MrGreen3339_mvl/mxv
 BYTE   W96
// 001   ----------------------------------------
 BYTE   W96
// 002   ----------------------------------------
 BYTE   W96
// 003   ----------------------------------------
 BYTE   W96
// 004   ----------------------------------------
 BYTE   W96
// 005   ----------------------------------------
 BYTE   W96
// 006   ----------------------------------------
 BYTE   W96
// 007   ----------------------------------------
 BYTE   W96
// 008   ----------------------------------------
 BYTE   W96
// 009   ----------------------------------------
 BYTE   W96
// 010   ----------------------------------------
 BYTE   W96
// 011   ----------------------------------------
 BYTE   W96
// 012   ----------------------------------------
 BYTE   W96
// 013   ----------------------------------------
 BYTE   W96
// 014   ----------------------------------------
 BYTE   W96
// 015   ----------------------------------------
 BYTE   W96
// 016   ----------------------------------------
 BYTE   W96
// 017   ----------------------------------------
 BYTE   W96
// 018   ----------------------------------------
 BYTE   W96
// 019   ----------------------------------------
 BYTE   W96
// 020   ----------------------------------------
 BYTE   W96
// 021   ----------------------------------------
 BYTE   W96
// 022   ----------------------------------------
 BYTE   W96
// 023   ----------------------------------------
 BYTE   W96
// 024   ----------------------------------------
 BYTE   W72
 BYTE   W72
// 025   ----------------------------------------
 BYTE   W72
 BYTE   W72
// 026   ----------------------------------------
 BYTE   W72
 BYTE   W72
// 027   ----------------------------------------
 BYTE   W72
 BYTE   W72
// 028   ----------------------------------------
Label_5_0131AE88:
 BYTE   N72  Cn3  v127
 BYTE   N72  En4
 BYTE   N72  Gn4
 BYTE   W72
 BYTE   PEND 
 BYTE   Bn2
 BYTE   N72  Ds4
 BYTE   N72  Fs4
 BYTE   W72
 BYTE   PATT
  POIN2 Label_5_0131AE88
// 029   ----------------------------------------
 BYTE   N72  Ds3  v127
 BYTE   N72  Bn3  v124
 BYTE   N72  Fs4  v127
 BYTE   W72
 BYTE   Cn3
 BYTE   N72  En4  v124
 BYTE   N72  Gn4  v127
 BYTE   W72
// 030   ----------------------------------------
 BYTE   Dn3
 BYTE   N72  Fs4
 BYTE   N72  An4
 BYTE   W72
 BYTE   TIE  En3
 BYTE   TIE  Gn4
 BYTE   TIE  Bn4
 BYTE   W72
// 031   ----------------------------------------
 BYTE   W72
 BYTE   EOT
 BYTE   En3  v079
 BYTE   Bn4
Label_5_0131AEC0:
 BYTE   TIE  Fn2  v116
 BYTE   TIE  Gs2
 BYTE   TIE  Cs3
 BYTE   W96
 BYTE   PEND 
// 032   ----------------------------------------
 BYTE   W96
// 033   ----------------------------------------
 BYTE   EOT
 BYTE   Fn2  v056
 BYTE   Cs3
Label_5_0131AECE:
 BYTE   TIE  Fn2  v120
 BYTE   TIE  Gs2
 BYTE   TIE  Cn3
 BYTE   W96
 BYTE   PEND 
// 034   ----------------------------------------
 BYTE   W96
// 035   ----------------------------------------
 BYTE   EOT
 BYTE   Fn2  v056
 BYTE   Cn3
Label_5_0131AEDC:
 BYTE   N96  Cs2  v112
 BYTE   N96  Fn2
 BYTE   N96  Gs2
 BYTE   W96
 BYTE   PEND 
// 036   ----------------------------------------
Label_5_0131AEE5:
 BYTE   N96  Ds2  v112
 BYTE   N96  Gn2
 BYTE   N96  As2
 BYTE   W96
 BYTE   PEND 
// 037   ----------------------------------------
Label_5_0131AEEE:
 BYTE   TIE  Fn2  v116
 BYTE   TIE  Gs2
 BYTE   TIE  Cn3
 BYTE   W96
 BYTE   PEND 
// 038   ----------------------------------------
 BYTE   W96
// 039   ----------------------------------------
 BYTE   EOT
 BYTE   Fn2  v056
 BYTE   Cn3
 BYTE   PATT
  POIN2 Label_5_0131AEC0
// 040   ----------------------------------------
 BYTE   W96
// 041   ----------------------------------------
 BYTE   EOT
 BYTE   Fn2  v056
 BYTE   Cs3
 BYTE   PATT
  POIN2 Label_5_0131AECE
// 042   ----------------------------------------
 BYTE   W96
// 043   ----------------------------------------
 BYTE   EOT
 BYTE   Fn2  v056
 BYTE   Cn3
 BYTE   PATT
  POIN2 Label_5_0131AEDC
 BYTE   PATT
  POIN2 Label_5_0131AEE5
 BYTE   PATT
  POIN2 Label_5_0131AEEE
// 044   ----------------------------------------
 BYTE   W96
// 045   ----------------------------------------
 BYTE   EOT
 BYTE   Fn2  v056
 BYTE   Cn3
 BYTE   W96
// 046   ----------------------------------------
 BYTE   W96
// 047   ----------------------------------------
 BYTE   W96
// 048   ----------------------------------------
 BYTE   W96
// 049   ----------------------------------------
 BYTE   W96
// 050   ----------------------------------------
 BYTE   W96
// 051   ----------------------------------------
 BYTE   W96
// 052   ----------------------------------------
 BYTE   W96
// 053   ----------------------------------------
 BYTE   W06
 BYTE   GoTo
  POIN2 Label_5_0131AE62
 BYTE   FINE

//**************** Track 7 (Midi-Chn.6) ****************//

Touhou8Voyage1969MrGreen3339_007:
// 000   ----------------------------------------
 BYTE   KEYSH   Touhou8Voyage1969MrGreen3339_key+0
Label_6_0131AF36:
 BYTE   VOICE   127
 BYTE   PAN   c_v+0
 BYTE   VOL   62*Touhou8Voyage1969MrGreen3339_mvl/mxv
 BYTE   W96
// 001   ----------------------------------------
 BYTE   W96
// 002   ----------------------------------------
 BYTE   W96
// 003   ----------------------------------------
 BYTE   W96
// 004   ----------------------------------------
 BYTE   W96
// 005   ----------------------------------------
 BYTE   W96
// 006   ----------------------------------------
 BYTE   W96
// 007   ----------------------------------------
Label_6_0131AF43:
 BYTE   N06  Cn1  v100
 BYTE   N06  Cs2
 BYTE   W36
 BYTE   Dn1  v068
 BYTE   W06
 BYTE   Cn1  v100
 BYTE   W06
 BYTE   N06
 BYTE   N06  Cs2
 BYTE   W12
 BYTE   N03  Dn1
 BYTE   W03
 BYTE   N03
 BYTE   W03
 BYTE   N03
 BYTE   W03
 BYTE   N03
 BYTE   W03
 BYTE   N06  Cn1
 BYTE   N03  Dn1
 BYTE   N06  En1
 BYTE   N06  Cs2
 BYTE   W12
 BYTE   Cn1
 BYTE   N06  Dn1
 BYTE   N06  En1
 BYTE   W06
 BYTE   Cn1
 BYTE   W06
 BYTE   PEND 
// 008   ----------------------------------------
Label_6_0131AF6E:
 BYTE   N06  Cn1  v100
 BYTE   N06  Fs1
 BYTE   N06  Cs2
 BYTE   W06
 BYTE   Fs1
 BYTE   W06
 BYTE   Dn1
 BYTE   N06  As1
 BYTE   W12
 BYTE   Cn1
 BYTE   N06  Fs1
 BYTE   W06
 BYTE   Cn1
 BYTE   W06
 BYTE   Dn1
 BYTE   N06  As1
 BYTE   W06
 BYTE   Cn1
 BYTE   N06  Fs1
 BYTE   W06
 BYTE   N06
 BYTE   W06
 BYTE   Dn1
 BYTE   W06
 BYTE   Cn1
 BYTE   N06  As1
 BYTE   W06
 BYTE   Cn1
 BYTE   N06  En1
 BYTE   N03  Fs1
 BYTE   W03
 BYTE   N03
 BYTE   W03
 BYTE   N06  Cn1
 BYTE   N03  Fs1
 BYTE   W06
 BYTE   N06  Dn1
 BYTE   N06  Fs1
 BYTE   W06
 BYTE   Cn1
 BYTE   N06  Dn1
 BYTE   N06  En1
 BYTE   N06  As1
 BYTE   W06
 BYTE   Cn1
 BYTE   W06
 BYTE   PEND 
// 009   ----------------------------------------
Label_6_0131AFAF:
 BYTE   N06  Cn1  v100
 BYTE   N06  Fs1
 BYTE   W06
 BYTE   N06
 BYTE   W06
 BYTE   Dn1
 BYTE   N06  As1
 BYTE   W12
 BYTE   Cn1
 BYTE   N06  Fs1
 BYTE   W06
 BYTE   Cn1
 BYTE   W06
 BYTE   Dn1
 BYTE   N06  As1
 BYTE   W06
 BYTE   Cn1
 BYTE   N06  Fs1
 BYTE   W06
 BYTE   N06
 BYTE   W06
 BYTE   Dn1
 BYTE   W06
 BYTE   Cn1
 BYTE   N06  En1
 BYTE   N06  As1
 BYTE   W06
 BYTE   Cn1
 BYTE   N03  Fs1
 BYTE   W03
 BYTE   N03
 BYTE   W03
 BYTE   N06  Cn1
 BYTE   N06  Dn1
 BYTE   N06  En1
 BYTE   N03  Fs1
 BYTE   W06
 BYTE   N06  En1
 BYTE   N06  Fs1
 BYTE   W06
 BYTE   Dn1
 BYTE   N06  En1
 BYTE   N06  As1
 BYTE   W06
 BYTE   Cn1
 BYTE   N06  Dn1
 BYTE   W06
 BYTE   PEND 
// 010   ----------------------------------------
Label_6_0131AFF2:
 BYTE   N06  Cn1  v100
 BYTE   N06  Fs1
 BYTE   W06
 BYTE   N06
 BYTE   W06
 BYTE   Dn1
 BYTE   N06  As1
 BYTE   W12
 BYTE   Cn1
 BYTE   N06  Fs1
 BYTE   W06
 BYTE   Cn1
 BYTE   W06
 BYTE   Dn1
 BYTE   N06  As1
 BYTE   W06
 BYTE   Cn1
 BYTE   N06  Fs1
 BYTE   W06
 BYTE   N06
 BYTE   W06
 BYTE   Dn1
 BYTE   W06
 BYTE   Cn1
 BYTE   N06  As1
 BYTE   W06
 BYTE   Cn1
 BYTE   N06  En1
 BYTE   N03  Fs1
 BYTE   W03
 BYTE   N03
 BYTE   W03
 BYTE   N06  Cn1
 BYTE   N03  Fs1
 BYTE   W06
 BYTE   N06  Dn1
 BYTE   N06  Fs1
 BYTE   W06
 BYTE   Cn1
 BYTE   N06  Dn1
 BYTE   N06  En1
 BYTE   N06  As1
 BYTE   W06
 BYTE   Cn1
 BYTE   W06
 BYTE   PEND 
// 011   ----------------------------------------
Label_6_0131B031:
 BYTE   N06  Cn1  v100
 BYTE   N06  Fs1
 BYTE   W06
 BYTE   N06
 BYTE   W06
 BYTE   Dn1
 BYTE   N06  As1
 BYTE   W12
 BYTE   Cn1
 BYTE   N06  Fs1
 BYTE   W06
 BYTE   Cn1
 BYTE   W06
 BYTE   Dn1
 BYTE   N06  As1
 BYTE   W06
 BYTE   Cn1
 BYTE   N06  Fs1
 BYTE   W06
 BYTE   N06
 BYTE   W12
 BYTE   Cn1
 BYTE   N06  Dn1
 BYTE   N06  En1
 BYTE   N06  As1
 BYTE   W06
 BYTE   Cn1
 BYTE   N06  Dn1
 BYTE   N03  Fs1
 BYTE   W03
 BYTE   N03
 BYTE   W03
 BYTE   N06  Cn1
 BYTE   N06  Dn1
 BYTE   N03  En1
 BYTE   N03  Fs1
 BYTE   W03
 BYTE   En1
 BYTE   W03
 BYTE   N06  Dn1
 BYTE   N03  En1
 BYTE   N06  Fs1
 BYTE   W06
 BYTE   Dn1
 BYTE   N06  En1
 BYTE   N06  As1
 BYTE   W06
 BYTE   Cn1
 BYTE   W06
 BYTE   PEND 
 BYTE   PATT
  POIN2 Label_6_0131AF6E
 BYTE   PATT
  POIN2 Label_6_0131AFAF
 BYTE   PATT
  POIN2 Label_6_0131AFF2
 BYTE   PATT
  POIN2 Label_6_0131B031
// 012   ----------------------------------------
Label_6_0131B08C:
 BYTE   N06  Cn1  v100
 BYTE   N06  Fs1
 BYTE   N06  Cs2
 BYTE   W06
 BYTE   Cs1
 BYTE   N06  Fs1
 BYTE   W06
 BYTE   Dn1
 BYTE   N06  As1
 BYTE   W06
 BYTE   Cs1
 BYTE   W06
 BYTE   Cn1
 BYTE   N06  Fs1
 BYTE   W06
 BYTE   Cn1
 BYTE   W06
 BYTE   Dn1
 BYTE   N06  As1
 BYTE   W06
 BYTE   Cn1
 BYTE   N06  Cs1
 BYTE   N06  Fs1
 BYTE   W06
 BYTE   N06
 BYTE   W06
 BYTE   Dn1
 BYTE   W06
 BYTE   Cn1
 BYTE   N06  Cs1
 BYTE   N06  As1
 BYTE   W06
 BYTE   Cn1
 BYTE   N06  En1
 BYTE   N03  Fs1
 BYTE   W03
 BYTE   N03
 BYTE   W03
 BYTE   N06  Cn1
 BYTE   N03  Fs1
 BYTE   W06
 BYTE   N06  Dn1
 BYTE   N06  Fs1
 BYTE   W06
 BYTE   Cn1
 BYTE   N06  Dn1
 BYTE   N06  En1
 BYTE   N06  As1
 BYTE   W06
 BYTE   Cn1
 BYTE   N06  Cs1
 BYTE   W06
 BYTE   PEND 
// 013   ----------------------------------------
Label_6_0131B0D7:
 BYTE   N06  Cn1  v100
 BYTE   N06  Fs1
 BYTE   W06
 BYTE   Cs1
 BYTE   N06  Fs1
 BYTE   W06
 BYTE   Dn1
 BYTE   N06  As1
 BYTE   W06
 BYTE   Cs1
 BYTE   W06
 BYTE   Cn1
 BYTE   N06  Fs1
 BYTE   W06
 BYTE   Cn1
 BYTE   W06
 BYTE   Dn1
 BYTE   N06  As1
 BYTE   W06
 BYTE   Cn1
 BYTE   N06  Cs1
 BYTE   N06  Fs1
 BYTE   W06
 BYTE   N06
 BYTE   W06
 BYTE   Dn1
 BYTE   W06
 BYTE   Cn1
 BYTE   N06  Cs1
 BYTE   N06  En1
 BYTE   N06  As1
 BYTE   W06
 BYTE   Cn1
 BYTE   N06  Cs1
 BYTE   N03  Fs1
 BYTE   W03
 BYTE   N03
 BYTE   W03
 BYTE   N06  Cn1
 BYTE   N06  Dn1
 BYTE   N06  En1
 BYTE   N03  Fs1
 BYTE   W06
 BYTE   N06  En1
 BYTE   N06  Fs1
 BYTE   W06
 BYTE   Cs1
 BYTE   N06  Dn1
 BYTE   N06  En1
 BYTE   N06  As1
 BYTE   W06
 BYTE   Cn1
 BYTE   N06  Cs1
 BYTE   N06  Dn1
 BYTE   W06
 BYTE   PEND 
// 014   ----------------------------------------
Label_6_0131B128:
 BYTE   N06  Cn1  v100
 BYTE   N06  Fs1
 BYTE   W06
 BYTE   Cs1
 BYTE   N06  Fs1
 BYTE   W06
 BYTE   Dn1
 BYTE   N06  As1
 BYTE   W06
 BYTE   Cs1
 BYTE   W06
 BYTE   Cn1
 BYTE   N06  Fs1
 BYTE   W06
 BYTE   Cn1
 BYTE   W06
 BYTE   Dn1
 BYTE   N06  As1
 BYTE   W06
 BYTE   Cn1
 BYTE   N06  Cs1
 BYTE   N06  Fs1
 BYTE   W06
 BYTE   N06
 BYTE   W06
 BYTE   Dn1
 BYTE   W06
 BYTE   Cn1
 BYTE   N06  Cs1
 BYTE   N06  As1
 BYTE   W06
 BYTE   Cn1
 BYTE   N06  En1
 BYTE   N03  Fs1
 BYTE   W03
 BYTE   N03
 BYTE   W03
 BYTE   N06  Cn1
 BYTE   N03  Fs1
 BYTE   W06
 BYTE   N06  Dn1
 BYTE   N06  Fs1
 BYTE   W06
 BYTE   Cn1
 BYTE   N06  Dn1
 BYTE   N06  En1
 BYTE   N06  As1
 BYTE   W06
 BYTE   Cn1
 BYTE   N06  Cs1
 BYTE   W06
 BYTE   PEND 
// 015   ----------------------------------------
Label_6_0131B171:
 BYTE   N06  Cn1  v100
 BYTE   N06  Fs1
 BYTE   W06
 BYTE   Cs1
 BYTE   N06  Fs1
 BYTE   W06
 BYTE   Dn1
 BYTE   N06  As1
 BYTE   W06
 BYTE   Cs1
 BYTE   W06
 BYTE   Cn1
 BYTE   N06  Fs1
 BYTE   W06
 BYTE   Cn1
 BYTE   N06  Cs1
 BYTE   W06
 BYTE   Dn1
 BYTE   N06  As1
 BYTE   W06
 BYTE   Cn1
 BYTE   N06  Fs1
 BYTE   W06
 BYTE   Cs1
 BYTE   N06  Fs1
 BYTE   W06
 BYTE   Cs1
 BYTE   W06
 BYTE   Cn1
 BYTE   N06  Dn1
 BYTE   N06  En1
 BYTE   N06  As1
 BYTE   W06
 BYTE   Cn1
 BYTE   N06  Dn1
 BYTE   N03  Fs1
 BYTE   W03
 BYTE   N03
 BYTE   W03
 BYTE   N06  Cn1
 BYTE   N06  Dn1
 BYTE   N03  En1
 BYTE   N03  Fs1
 BYTE   W03
 BYTE   En1
 BYTE   W03
 BYTE   Cs1
 BYTE   N06  Dn1
 BYTE   N03  En1
 BYTE   N06  Fs1
 BYTE   W03
 BYTE   N03  Cs1
 BYTE   W03
 BYTE   N03
 BYTE   N06  Dn1
 BYTE   N06  En1
 BYTE   N06  As1
 BYTE   W03
 BYTE   N03  Cs1
 BYTE   W03
 BYTE   N06  Cn1
 BYTE   N03  Cs1
 BYTE   W06
 BYTE   PEND 
 BYTE   PATT
  POIN2 Label_6_0131B08C
 BYTE   PATT
  POIN2 Label_6_0131B0D7
 BYTE   PATT
  POIN2 Label_6_0131B128
// 016   ----------------------------------------
Label_6_0131B1DD:
 BYTE   N06  Cn1  v100
 BYTE   N06  Fs1
 BYTE   W06
 BYTE   Cs1
 BYTE   N06  Fs1
 BYTE   W06
 BYTE   Dn1
 BYTE   N06  As1
 BYTE   W06
 BYTE   Cs1
 BYTE   W06
 BYTE   Cn1
 BYTE   N06  Fs1
 BYTE   W06
 BYTE   Cn1
 BYTE   N06  Cs1
 BYTE   W06
 BYTE   Dn1
 BYTE   N06  As1
 BYTE   W06
 BYTE   Cn1
 BYTE   N06  Fs1
 BYTE   W06
 BYTE   Cs1
 BYTE   N06  Fs1
 BYTE   N03  Cn2
 BYTE   W03
 BYTE   N03
 BYTE   W03
 BYTE   N06  Cs1
 BYTE   N03  Cn2
 BYTE   W03
 BYTE   N03
 BYTE   W03
 BYTE   N06  Cn1
 BYTE   N06  Dn1
 BYTE   N06  En1
 BYTE   N06  As1
 BYTE   N03  Dn2
 BYTE   W03
 BYTE   N03
 BYTE   W03
 BYTE   N06  Cn1
 BYTE   N06  Dn1
 BYTE   N03  Fs1
 BYTE   N03  Dn2
 BYTE   W03
 BYTE   Fs1
 BYTE   N03  Dn2
 BYTE   W03
 BYTE   N06  Cn1
 BYTE   N06  Dn1
 BYTE   N03  En1
 BYTE   N03  Fs1
 BYTE   N03  Cn2
 BYTE   W03
 BYTE   En1
 BYTE   N03  Cn2
 BYTE   W03
 BYTE   Cs1
 BYTE   N06  Dn1
 BYTE   N03  En1
 BYTE   N06  Fs1
 BYTE   N03  Cn2
 BYTE   W03
 BYTE   Cs1
 BYTE   N03  Cn2
 BYTE   W03
 BYTE   Cs1
 BYTE   N06  Dn1
 BYTE   N06  En1
 BYTE   N03  An1
 BYTE   N06  As1
 BYTE   W03
 BYTE   N03  Cs1
 BYTE   N03  An1
 BYTE   W03
 BYTE   N06  Cn1
 BYTE   N03  Cs1
 BYTE   N03  An1
 BYTE   W03
 BYTE   N03
 BYTE   W03
 BYTE   PEND 
// 017   ----------------------------------------
 BYTE   W72
 BYTE   W72
// 018   ----------------------------------------
 BYTE   W72
 BYTE   W72
// 019   ----------------------------------------
 BYTE   W72
 BYTE   W72
// 020   ----------------------------------------
 BYTE   N06  Cn1
 BYTE   W18
 BYTE   N06
 BYTE   W18
 BYTE   N06
 BYTE   W18
 BYTE   N06
 BYTE   W18
 BYTE   N06
 BYTE   W12
 BYTE   N06
 BYTE   W06
 BYTE   N06
 BYTE   N06  Dn1
 BYTE   W12
// 021   ----------------------------------------
 BYTE   Cn1
 BYTE   N06  Dn1
 BYTE   W06
 BYTE   Cn1
 BYTE   N06  Dn1
 BYTE   N06  En1
 BYTE   W06
 BYTE   Dn1
 BYTE   W06
 BYTE   N06
 BYTE   W06
 BYTE   Cn1
 BYTE   N06  Dn1
 BYTE   N06  En1
 BYTE   W06
 BYTE   Cn1
 BYTE   W03
 BYTE   N03  Dn1
 BYTE   N03  En1
 BYTE   W03
 BYTE   N06  Cn1
 BYTE   N03  Dn1
 BYTE   N03  En1
 BYTE   W03
 BYTE   Dn1
 BYTE   N03  En1
 BYTE   W03
 BYTE   N06  Cn1
 BYTE   N06  Fs1
 BYTE   W06
 BYTE   Cs1
 BYTE   N06  Fs1
 BYTE   W06
 BYTE   Dn1
 BYTE   N06  As1
 BYTE   W06
 BYTE   Cs1
 BYTE   W06
 BYTE   Cn1
 BYTE   N06  Fs1
 BYTE   W06
 BYTE   Cn1
 BYTE   W06
 BYTE   Dn1
 BYTE   N06  As1
 BYTE   W06
 BYTE   Cn1
 BYTE   N06  Cs1
 BYTE   N06  Fs1
 BYTE   W06
 BYTE   N06
 BYTE   W06
// 022   ----------------------------------------
 BYTE   Dn1
 BYTE   W06
 BYTE   Cn1
 BYTE   N06  Cs1
 BYTE   N06  As1
 BYTE   W06
 BYTE   Cn1
 BYTE   N06  En1
 BYTE   W06
 BYTE   Cn1
 BYTE   W06
 BYTE   Dn1
 BYTE   N06  Fs1
 BYTE   W06
 BYTE   Cn1
 BYTE   N06  Dn1
 BYTE   N06  En1
 BYTE   N06  As1
 BYTE   W06
 BYTE   Cn1
 BYTE   N06  Cs1
 BYTE   W06
 BYTE   Cn1
 BYTE   N06  Fs1
 BYTE   W06
 BYTE   Cs1
 BYTE   N06  Fs1
 BYTE   W06
 BYTE   Dn1
 BYTE   N06  As1
 BYTE   W06
 BYTE   Cs1
 BYTE   W06
 BYTE   Cn1
 BYTE   N06  Fs1
 BYTE   W06
 BYTE   Cn1
 BYTE   W06
 BYTE   Dn1
 BYTE   N06  As1
 BYTE   W06
 BYTE   Cn1
 BYTE   N06  Cs1
 BYTE   N06  Fs1
 BYTE   W06
 BYTE   N06
 BYTE   W06
// 023   ----------------------------------------
 BYTE   Dn1
 BYTE   W06
 BYTE   Cn1
 BYTE   N06  Cs1
 BYTE   N06  En1
 BYTE   N06  As1
 BYTE   W06
 BYTE   Cn1
 BYTE   N06  Cs1
 BYTE   N03  Fs1
 BYTE   W03
 BYTE   N03
 BYTE   W03
 BYTE   N06  Cn1
 BYTE   N06  Dn1
 BYTE   N06  En1
 BYTE   N03  Fs1
 BYTE   W06
 BYTE   N06  En1
 BYTE   N06  Fs1
 BYTE   W06
 BYTE   Cs1
 BYTE   N06  Dn1
 BYTE   N06  En1
 BYTE   N06  As1
 BYTE   W06
 BYTE   Cn1
 BYTE   N06  Cs1
 BYTE   N06  Dn1
 BYTE   W06
 BYTE   Cn1
 BYTE   N06  Fs1
 BYTE   W06
 BYTE   Cs1
 BYTE   N06  Fs1
 BYTE   W06
 BYTE   Dn1
 BYTE   N06  As1
 BYTE   W06
 BYTE   Cs1
 BYTE   W06
 BYTE   Cn1
 BYTE   N06  Fs1
 BYTE   W06
 BYTE   Cn1
 BYTE   W06
 BYTE   Dn1
 BYTE   N06  As1
 BYTE   W06
 BYTE   Cn1
 BYTE   N06  Cs1
 BYTE   N06  Fs1
 BYTE   W06
 BYTE   N06
 BYTE   W06
// 024   ----------------------------------------
 BYTE   Dn1
 BYTE   W06
 BYTE   Cn1
 BYTE   N06  Cs1
 BYTE   N06  As1
 BYTE   W06
 BYTE   Cn1
 BYTE   N06  En1
 BYTE   N03  Fs1
 BYTE   W03
 BYTE   N03
 BYTE   W03
 BYTE   N06  Cn1
 BYTE   N03  Fs1
 BYTE   W06
 BYTE   N06  Dn1
 BYTE   N06  Fs1
 BYTE   W06
 BYTE   Cn1
 BYTE   N06  Dn1
 BYTE   N06  En1
 BYTE   N06  As1
 BYTE   W06
 BYTE   Cn1
 BYTE   N06  Cs1
 BYTE   W06
 BYTE   Cn1
 BYTE   N06  En1
 BYTE   N06  Fs1
 BYTE   W06
 BYTE   Cs1
 BYTE   N06  Fs1
 BYTE   W06
 BYTE   Dn1
 BYTE   N06  As1
 BYTE   W06
 BYTE   Cs1
 BYTE   W06
 BYTE   Cn1
 BYTE   N06  En1
 BYTE   N06  Fs1
 BYTE   W06
 BYTE   Cn1
 BYTE   W06
 BYTE   Dn1
 BYTE   N06  As1
 BYTE   W06
 BYTE   Cn1
 BYTE   N06  Cs1
 BYTE   N06  Fs1
 BYTE   W06
 BYTE   En1
 BYTE   N06  Fs1
 BYTE   W06
// 025   ----------------------------------------
 BYTE   Dn1
 BYTE   W06
 BYTE   Cn1
 BYTE   N06  Cs1
 BYTE   N06  En1
 BYTE   N06  As1
 BYTE   W06
 BYTE   Cn1
 BYTE   N06  Cs1
 BYTE   N06  En1
 BYTE   N03  Fs1
 BYTE   W03
 BYTE   N03
 BYTE   W03
 BYTE   N06  Cn1
 BYTE   N06  Dn1
 BYTE   N06  En1
 BYTE   N03  Fs1
 BYTE   W06
 BYTE   N06
 BYTE   W06
 BYTE   Cs1
 BYTE   N06  Dn1
 BYTE   N06  En1
 BYTE   N06  As1
 BYTE   W12
 BYTE   Cn1
 BYTE   N06  Fs1
 BYTE   W06
 BYTE   Cs1
 BYTE   N06  Fs1
 BYTE   W06
 BYTE   Dn1
 BYTE   N06  As1
 BYTE   W06
 BYTE   Cs1
 BYTE   W06
 BYTE   Cn1
 BYTE   N06  Fs1
 BYTE   W06
 BYTE   Cn1
 BYTE   W06
 BYTE   Dn1
 BYTE   N06  As1
 BYTE   W06
 BYTE   Cn1
 BYTE   N06  Cs1
 BYTE   N06  Fs1
 BYTE   W06
 BYTE   N06
 BYTE   W06
// 026   ----------------------------------------
 BYTE   Dn1
 BYTE   W06
 BYTE   Cn1
 BYTE   N06  Cs1
 BYTE   N06  As1
 BYTE   W06
 BYTE   Cn1
 BYTE   N06  En1
 BYTE   N03  Fs1
 BYTE   W03
 BYTE   N03
 BYTE   W03
 BYTE   N06  Cn1
 BYTE   N03  Fs1
 BYTE   W06
 BYTE   N06  Dn1
 BYTE   N06  Fs1
 BYTE   W06
 BYTE   Cn1
 BYTE   N06  Dn1
 BYTE   N06  En1
 BYTE   N06  As1
 BYTE   W06
 BYTE   Cn1
 BYTE   N06  Cs1
 BYTE   W06
 BYTE   Cn1
 BYTE   N06  Dn1
 BYTE   N06  En1
 BYTE   N06  Fs1
 BYTE   W06
 BYTE   N06
 BYTE   W06
 BYTE   As1
 BYTE   W06
 BYTE   Cn1
 BYTE   N06  Dn1
 BYTE   N06  En1
 BYTE   W06
 BYTE   Fs1
 BYTE   W12
 BYTE   Cn1
 BYTE   N06  Dn1
 BYTE   N06  En1
 BYTE   N06  As1
 BYTE   W06
 BYTE   Cn1
 BYTE   N06  Fs1
 BYTE   W06
 BYTE   Cs1
 BYTE   N06  Fs1
 BYTE   N03  Cn2
 BYTE   W03
 BYTE   N03
 BYTE   W03
// 027   ----------------------------------------
 BYTE   N06  Cs1
 BYTE   N03  Cn2
 BYTE   W03
 BYTE   N03
 BYTE   W03
 BYTE   N06  Cn1
 BYTE   N06  Dn1
 BYTE   N06  En1
 BYTE   N06  As1
 BYTE   N03  Dn2
 BYTE   W03
 BYTE   N03
 BYTE   W03
 BYTE   N06  Cn1
 BYTE   N06  Dn1
 BYTE   N03  Fs1
 BYTE   N03  Dn2
 BYTE   W03
 BYTE   Fs1
 BYTE   N03  Dn2
 BYTE   W03
 BYTE   N06  Cn1
 BYTE   N06  Dn1
 BYTE   N03  En1
 BYTE   N03  Fs1
 BYTE   N03  Cn2
 BYTE   W03
 BYTE   En1
 BYTE   N03  Cn2
 BYTE   W03
 BYTE   Cs1
 BYTE   N06  Dn1
 BYTE   N03  En1
 BYTE   N06  Fs1
 BYTE   N03  Cn2
 BYTE   W03
 BYTE   Cs1
 BYTE   N03  Cn2
 BYTE   W03
 BYTE   Cs1
 BYTE   N06  Dn1
 BYTE   N06  En1
 BYTE   N03  An1
 BYTE   N06  As1
 BYTE   W03
 BYTE   N03  Cs1
 BYTE   N03  An1
 BYTE   W03
 BYTE   N06  Cn1
 BYTE   N03  Cs1
 BYTE   N03  An1
 BYTE   W03
 BYTE   N03
 BYTE   W03
 BYTE   N06  Cn1
 BYTE   N06  Dn1
 BYTE   N06  En1  v127
 BYTE   N06  Cs2
 BYTE   W96
// 028   ----------------------------------------
 BYTE   W96
// 029   ----------------------------------------
 BYTE   W96
// 030   ----------------------------------------
 BYTE   W96
// 031   ----------------------------------------
 BYTE   W96
// 032   ----------------------------------------
 BYTE   W96
// 033   ----------------------------------------
 BYTE   W48
 BYTE   Cn1  v100
 BYTE   N06  Cs2
 BYTE   W15
 BYTE   N03  Dn1
 BYTE   W03
 BYTE   N03
 BYTE   W03
 BYTE   N03
 BYTE   W03
 BYTE   N03
 BYTE   W12
 BYTE   N06
 BYTE   N06  En1
 BYTE   W12
// 034   ----------------------------------------
 BYTE   Cn1
 BYTE   N06  Cs2
 BYTE   W06
 BYTE   Dn1
 BYTE   W06
 BYTE   Cn1
 BYTE   W06
 BYTE   Dn1
 BYTE   N06  En1
 BYTE   W06
 BYTE   Cn1
 BYTE   W03
 BYTE   N03  Dn1
 BYTE   W03
 BYTE   N03
 BYTE   W06
 BYTE   N06  Dn1  v068
 BYTE   N06  En1  v100
 BYTE   W06
 BYTE   Cn1
 BYTE   N06  Dn1
 BYTE   W06
 BYTE   Cn1
 BYTE   N06  Dn1
 BYTE   N06  Cs2
 BYTE   W06
 BYTE   Cn1
 BYTE   N06  Dn1
 BYTE   N06  En1
 BYTE   W06
 BYTE   Dn1
 BYTE   W03
 BYTE   N03  En1  v040
 BYTE   W03
 BYTE   N06  Cn1  v100
 BYTE   N06  Dn1
 BYTE   N03  En1  v048
 BYTE   W03
 BYTE   En1  v056
 BYTE   W03
 BYTE   N06  Cn1  v100
 BYTE   N06  Dn1
 BYTE   N03  En1  v064
 BYTE   N06  Cs2  v100
 BYTE   W03
 BYTE   N03  En1  v080
 BYTE   W03
 BYTE   N06  Dn1  v100
 BYTE   N03  En1  v092
 BYTE   W03
 BYTE   En1  v096
 BYTE   W03
 BYTE   N06  Cn1  v100
 BYTE   N03  Dn1
 BYTE   N03  En1  v096
 BYTE   W03
 BYTE   Dn1  v100
 BYTE   N03  En1  v120
 BYTE   W03
 BYTE   N06  Cn1  v100
 BYTE   N03  Dn1
 BYTE   N03  En1  v120
 BYTE   W06
 BYTE   PATT
  POIN2 Label_6_0131B128
 BYTE   PATT
  POIN2 Label_6_0131B0D7
 BYTE   PATT
  POIN2 Label_6_0131B128
 BYTE   PATT
  POIN2 Label_6_0131B171
 BYTE   PATT
  POIN2 Label_6_0131B128
 BYTE   PATT
  POIN2 Label_6_0131B0D7
 BYTE   PATT
  POIN2 Label_6_0131B128
 BYTE   PATT
  POIN2 Label_6_0131B1DD
// 035   ----------------------------------------
 BYTE   W96
// 036   ----------------------------------------
 BYTE   W96
// 037   ----------------------------------------
 BYTE   W96
// 038   ----------------------------------------
 BYTE   W96
// 039   ----------------------------------------
 BYTE   W96
// 040   ----------------------------------------
 BYTE   W96
// 041   ----------------------------------------
 BYTE   W96
 BYTE   PATT
  POIN2 Label_6_0131AF43
// 042   ----------------------------------------
 BYTE   W06
 BYTE   GoTo
  POIN2 Label_6_0131AF36
 BYTE   FINE

//******************************************************//
	ALIGN 4

Touhou8Voyage1969MrGreen3339:
	BYTE	7	// NumTrks
	BYTE	0	// NumBlks
	BYTE	Touhou8Voyage1969MrGreen3339_pri	// Priority
	BYTE	Touhou8Voyage1969MrGreen3339_rev	// Reverb.
    
	POIN2	Touhou8Voyage1969MrGreen3339_grp
    
	POIN2	Touhou8Voyage1969MrGreen3339_001
	POIN2	Touhou8Voyage1969MrGreen3339_002
	POIN2	Touhou8Voyage1969MrGreen3339_003
	POIN2	Touhou8Voyage1969MrGreen3339_004
	POIN2	Touhou8Voyage1969MrGreen3339_005
	POIN2	Touhou8Voyage1969MrGreen3339_006
	POIN2	Touhou8Voyage1969MrGreen3339_007

	
