//Event file generated from Sappy .s format.
	#include "MPlayDef.event"

	#define	TouhouHonobonoJinja7743_grp  voicegroup000
	#define	TouhouHonobonoJinja7743_pri  0
	#define	TouhouHonobonoJinja7743_rev  0
	#define	TouhouHonobonoJinja7743_mvl  127
	#define	TouhouHonobonoJinja7743_key  0
	#define	TouhouHonobonoJinja7743_tbs  1
	#define	TouhouHonobonoJinja7743_exg  0
	#define	TouhouHonobonoJinja7743_cmp  1

	// .rodata
	//	TouhouHonobonoJinja7743
	ALIGN 4


//**************** Track 1 (Midi-Chn.0) ****************//

TouhouHonobonoJinja7743_001:
// 000   ----------------------------------------
 BYTE   KEYSH   TouhouHonobonoJinja7743_key+0
 BYTE   TEMPO   74*TouhouHonobonoJinja7743_tbs/2
 BYTE   VOICE   73
 BYTE   VOL   47*TouhouHonobonoJinja7743_mvl/mxv
 BYTE   W96
// 001   ----------------------------------------
 BYTE   W96
// 002   ----------------------------------------
Label_0_019D5E82:
 BYTE   N36  Cn5  v100
 BYTE   W36
 BYTE   N12
 BYTE   W24
 BYTE   As4
 BYTE   W12
 BYTE   N12
 BYTE   W12
 BYTE   Dn5
 BYTE   W12
 BYTE   PEND 
// 003   ----------------------------------------
 BYTE   N36  Cn5
 BYTE   W36
 BYTE   N12  Fn4
 BYTE   W12
 BYTE   As4
 BYTE   W12
 BYTE   An4
 BYTE   W12
 BYTE   Gn4
 BYTE   W12
 BYTE   An4
 BYTE   W12
// 004   ----------------------------------------
 BYTE   N36  Fn4
 BYTE   W36
 BYTE   N12  Cn5
 BYTE   W24
 BYTE   As4
 BYTE   W12
 BYTE   En5
 BYTE   W12
 BYTE   Fn5
 BYTE   W12
// 005   ----------------------------------------
 BYTE   N96  Cn5
 BYTE   W96
// 006   ----------------------------------------
 BYTE   PATT
  POIN2 Label_0_019D5E82
// 007   ----------------------------------------
 BYTE   N36  Cn5  v100
 BYTE   W36
 BYTE   N12  Fn5
 BYTE   W12
 BYTE   N12
 BYTE   W12
 BYTE   N12
 BYTE   W12
 BYTE   Gn5
 BYTE   W12
 BYTE   An5
 BYTE   W12
// 008   ----------------------------------------
 BYTE   N36  Fn5
 BYTE   W36
 BYTE   N12  Cn6
 BYTE   W24
 BYTE   As5
 BYTE   W12
 BYTE   Gn5
 BYTE   W12
 BYTE   En5
 BYTE   W12
// 009   ----------------------------------------
 BYTE   N96  Fn5
 BYTE   W96
// 010   ----------------------------------------
 BYTE   GoTo
  POIN2 Label_0_019D5E82
 BYTE   FINE

//**************** Track 2 (Midi-Chn.1) ****************//

TouhouHonobonoJinja7743_002:
// 000   ----------------------------------------
 BYTE   KEYSH   TouhouHonobonoJinja7743_key+0
 BYTE   VOICE   13
 BYTE   VOL   38*TouhouHonobonoJinja7743_mvl/mxv
 BYTE   N24  Fn4  v100
 BYTE   W24
 BYTE   An4
 BYTE   N24  Cn5
 BYTE   W24
 BYTE   En4
 BYTE   W24
 BYTE   An4
 BYTE   N24  Cn5
 BYTE   W24
// 001   ----------------------------------------
 BYTE   Dn4
 BYTE   W24
 BYTE   Fn4
 BYTE   N24  As4
 BYTE   W24
 BYTE   En4
 BYTE   W24
 BYTE   Gn4
 BYTE   N24  Cn5
 BYTE   W24
// 002   ----------------------------------------
Label_1_019D5EF8:
 BYTE   W96
// 003   ----------------------------------------
 BYTE   W96
// 004   ----------------------------------------
 BYTE   W96
// 005   ----------------------------------------
 BYTE   W96
// 006   ----------------------------------------
 BYTE   W96
// 007   ----------------------------------------
 BYTE   W96
// 008   ----------------------------------------
 BYTE   W96
// 009   ----------------------------------------
 BYTE   W96
// 010   ----------------------------------------
 BYTE   GoTo
  POIN2 Label_1_019D5EF8
 BYTE   FINE

//**************** Track 3 (Midi-Chn.2) ****************//

TouhouHonobonoJinja7743_003:
// 000   ----------------------------------------
 BYTE   KEYSH   TouhouHonobonoJinja7743_key+0
 BYTE   VOICE   4
 BYTE   VOL   42*TouhouHonobonoJinja7743_mvl/mxv
 BYTE   PAN   c_v+0
 BYTE   VOL   42*TouhouHonobonoJinja7743_mvl/mxv
 BYTE   N48  Fn3  v100
 BYTE   N48  An3
 BYTE   W48
 BYTE   En3
 BYTE   N48  An3
 BYTE   W48
// 001   ----------------------------------------
 BYTE   Fn3
 BYTE   N48  As3
 BYTE   W48
 BYTE   Gn3
 BYTE   N48  Cn4
 BYTE   W48
// 002   ----------------------------------------
Label_2_019D5F5C:
 BYTE   N48  Fn3  v100
 BYTE   N48  An3
 BYTE   W48
 BYTE   En3
 BYTE   N48  Gn3
 BYTE   W48
 BYTE   PEND 
// 003   ----------------------------------------
 BYTE   PATT
  POIN2 Label_2_019D5F5C
// 004   ----------------------------------------
Label_2_019D5F6C:
 BYTE   N48  Dn3  v100
 BYTE   N48  Fn3
 BYTE   W48
 BYTE   En3
 BYTE   N48  Gn3
 BYTE   W48
 BYTE   PEND 
// 005   ----------------------------------------
 BYTE   N96  Fn3
 BYTE   N96  An3
 BYTE   W96
// 006   ----------------------------------------
 BYTE   N48  Fn3
 BYTE   N48  An3
 BYTE   W48
 BYTE   Gn3
 BYTE   N48  Cn4
 BYTE   W48
// 007   ----------------------------------------
 BYTE   An3
 BYTE   N48  Dn4
 BYTE   W48
 BYTE   Gn3
 BYTE   N48  Cn4
 BYTE   W48
// 008   ----------------------------------------
 BYTE   PATT
  POIN2 Label_2_019D5F6C
// 009   ----------------------------------------
 BYTE   N96  Fn3  v100
 BYTE   N96  An3
 BYTE   W96
// 010   ----------------------------------------
 BYTE   GoTo
  POIN2 Label_2_019D5F5C
 BYTE   FINE

//**************** Track 4 (Midi-Chn.3) ****************//

TouhouHonobonoJinja7743_004:
// 000   ----------------------------------------
 BYTE   KEYSH   TouhouHonobonoJinja7743_key+0
 BYTE   VOICE   33
 BYTE   VOL   40*TouhouHonobonoJinja7743_mvl/mxv
 BYTE   W96
// 001   ----------------------------------------
 BYTE   W96
// 002   ----------------------------------------
Label_3_019D5FA8:
 BYTE   N36  Fn1  v100
 BYTE   W36
 BYTE   N12
 BYTE   W12
 BYTE   N36  En1
 BYTE   W36
 BYTE   N12
 BYTE   W12
// 003   ----------------------------------------
 BYTE   N36  Dn1
 BYTE   W36
 BYTE   N12
 BYTE   W12
 BYTE   N36  Cn1
 BYTE   W36
 BYTE   N12
 BYTE   W12
// 004   ----------------------------------------
Label_3_019D5FBD:
 BYTE   N36  As0  v100
 BYTE   W36
 BYTE   N12
 BYTE   W12
 BYTE   N36  Cn1
 BYTE   W36
 BYTE   N12
 BYTE   W12
 BYTE   PEND 
// 005   ----------------------------------------
 BYTE   N96  Fn1
 BYTE   W96
// 006   ----------------------------------------
 BYTE   N36
 BYTE   W36
 BYTE   N12
 BYTE   W12
 BYTE   N36  Gn1
 BYTE   W36
 BYTE   N12
 BYTE   W12
// 007   ----------------------------------------
 BYTE   N36  An1
 BYTE   W36
 BYTE   N12
 BYTE   W12
 BYTE   N48  Gn1
 BYTE   W48
// 008   ----------------------------------------
 BYTE   PATT
  POIN2 Label_3_019D5FBD
// 009   ----------------------------------------
 BYTE   N96  Fn1  v100
 BYTE   W96
// 010   ----------------------------------------
 BYTE   GoTo
  POIN2 Label_3_019D5FA8
 BYTE   FINE

//**************** Track 5 (Midi-Chn.4) ****************//

TouhouHonobonoJinja7743_005:
// 000   ----------------------------------------
 BYTE   KEYSH   TouhouHonobonoJinja7743_key+0
 BYTE   VOICE   10
 BYTE   VOL   40*TouhouHonobonoJinja7743_mvl/mxv
 BYTE   PAN   c_v+0
 BYTE   VOL   40*TouhouHonobonoJinja7743_mvl/mxv
 BYTE   W96
// 001   ----------------------------------------
 BYTE   W96
// 002   ----------------------------------------
Label_4_019D5D28:
 BYTE   N12  Cn3  v100
 BYTE   W12
 BYTE   Fn3
 BYTE   W12
 BYTE   An3
 BYTE   W12
 BYTE   Cn4
 BYTE   W12
 BYTE   Bn2
 BYTE   W12
 BYTE   En3
 BYTE   W12
 BYTE   Gn3
 BYTE   W12
 BYTE   Cn4
 BYTE   W12
// 003   ----------------------------------------
 BYTE   Fn3
 BYTE   W12
 BYTE   Dn3
 BYTE   W12
 BYTE   Fn3
 BYTE   W12
 BYTE   N09  An3
 BYTE   W09
 BYTE   N03
 BYTE   W03
 BYTE   N12  Cn4
 BYTE   W12
 BYTE   Gn3
 BYTE   W12
 BYTE   En3
 BYTE   W12
 BYTE   Cn3
 BYTE   W12
// 004   ----------------------------------------
Label_4_019D5D4E:
 BYTE   N12  Fn3  v100
 BYTE   W12
 BYTE   Dn3
 BYTE   W12
 BYTE   Fn3
 BYTE   W12
 BYTE   As3
 BYTE   W12
 BYTE   En3
 BYTE   W12
 BYTE   Cn3
 BYTE   W12
 BYTE   En3
 BYTE   W12
 BYTE   Gn3
 BYTE   W12
 BYTE   PEND 
// 005   ----------------------------------------
 BYTE   Fn3
 BYTE   W12
 BYTE   Cn3
 BYTE   W12
 BYTE   Fn3
 BYTE   W12
 BYTE   N09  An3
 BYTE   W09
 BYTE   N03  Fn3
 BYTE   W03
 BYTE   N12  An3
 BYTE   W12
 BYTE   Fn3
 BYTE   W12
 BYTE   An3
 BYTE   W12
 BYTE   Fn3
 BYTE   W12
// 006   ----------------------------------------
 BYTE   Cn3
 BYTE   W12
 BYTE   Fn3
 BYTE   W12
 BYTE   An3
 BYTE   W12
 BYTE   Cn4
 BYTE   W12
 BYTE   En3
 BYTE   W12
 BYTE   Gn3
 BYTE   W12
 BYTE   Cn4
 BYTE   W12
 BYTE   En4
 BYTE   W12
// 007   ----------------------------------------
 BYTE   Fn3
 BYTE   W12
 BYTE   An3
 BYTE   W12
 BYTE   Dn4
 BYTE   W12
 BYTE   N09  Fn4
 BYTE   W09
 BYTE   N03
 BYTE   W03
 BYTE   N12  Gn4
 BYTE   W12
 BYTE   En4
 BYTE   W12
 BYTE   N24  Cn4
 BYTE   W24
// 008   ----------------------------------------
 BYTE   PATT
  POIN2 Label_4_019D5D4E
// 009   ----------------------------------------
 BYTE   N12  Fn3  v100
 BYTE   W12
 BYTE   Cn3
 BYTE   W12
 BYTE   Fn3
 BYTE   W12
 BYTE   N09  An3
 BYTE   W09
 BYTE   N03
 BYTE   W03
 BYTE   N48  Fn3
 BYTE   W48
// 010   ----------------------------------------
 BYTE   GoTo
  POIN2 Label_4_019D5D28
 BYTE   FINE

//**************** Track 6 (Midi-Chn.5) ****************//

TouhouHonobonoJinja7743_006:
// 000   ----------------------------------------
 BYTE   KEYSH   TouhouHonobonoJinja7743_key+0
 BYTE   VOL   42*TouhouHonobonoJinja7743_mvl/mxv
 BYTE   W96
// 001   ----------------------------------------
 BYTE   W96
// 002   ----------------------------------------
Label_5_019D5DBA:
 BYTE   N01  Cs2  v008
 BYTE   W01
 BYTE   Cs2  v012
 BYTE   W02
 BYTE   Cs2  v016
 BYTE   W01
 BYTE   Cs2  v020
 BYTE   W02
 BYTE   N01
 BYTE   W01
 BYTE   Cs2  v028
 BYTE   W02
 BYTE   Cs2  v032
 BYTE   W01
 BYTE   Cs2  v036
 BYTE   W02
 BYTE   Cs2  v044
 BYTE   W01
 BYTE   Cs2  v048
 BYTE   W02
 BYTE   N01
 BYTE   W01
 BYTE   Cs2  v052
 BYTE   W02
 BYTE   Cs2  v056
 BYTE   W01
 BYTE   N01
 BYTE   W02
 BYTE   Cs2  v060
 BYTE   W01
 BYTE   N01
 BYTE   W02
 BYTE   Cs2  v064
 BYTE   N06  Cs3
 BYTE   W01
 BYTE   N01  Cs2
 BYTE   W02
 BYTE   N01
 BYTE   W01
 BYTE   N01
 BYTE   W02
 BYTE   Cs2  v060
 BYTE   W01
 BYTE   Cs2  v056
 BYTE   W02
 BYTE   N01
 BYTE   W01
 BYTE   Cs2  v052
 BYTE   W02
 BYTE   Cs2  v048
 BYTE   W01
 BYTE   N01
 BYTE   W02
 BYTE   Cs2  v044
 BYTE   W01
 BYTE   Cs2  v040
 BYTE   W02
 BYTE   N01
 BYTE   W01
 BYTE   Cs2  v036
 BYTE   W02
 BYTE   Cs2  v032
 BYTE   W01
 BYTE   Cs2  v028
 BYTE   W02
 BYTE   Cs2  v024
 BYTE   N06  En3  v064
 BYTE   W01
 BYTE   N01  Cs2  v020
 BYTE   W23
 BYTE   N06  Cs3  v064
 BYTE   W24
 BYTE   PEND 
// 003   ----------------------------------------
Label_5_019D5E23:
 BYTE   N06  En3  v064
 BYTE   W24
 BYTE   Dn3  v060
 BYTE   N06  En3
 BYTE   W24
 BYTE   N06
 BYTE   W12
 BYTE   Dn3  v036
 BYTE   W12
 BYTE   Cs3  v060
 BYTE   W12
 BYTE   Dn3  v044
 BYTE   W12
 BYTE   PEND 
// 004   ----------------------------------------
Label_5_019D5E38:
 BYTE   N24  Ds2  v060
 BYTE   W24
 BYTE   N06  Cs3
 BYTE   W24
 BYTE   En3
 BYTE   W24
 BYTE   Cs3
 BYTE   W24
 BYTE   PEND 
// 005   ----------------------------------------
Label_5_019D5E44:
 BYTE   N06  En3  v068
 BYTE   W24
 BYTE   Dn3
 BYTE   N06  En3
 BYTE   W24
 BYTE   N06
 BYTE   W12
 BYTE   Dn3  v040
 BYTE   W12
 BYTE   Cs3  v064
 BYTE   W12
 BYTE   Dn3  v044
 BYTE   W12
 BYTE   PEND 
// 006   ----------------------------------------
 BYTE   PATT
  POIN2 Label_5_019D5DBA
// 007   ----------------------------------------
 BYTE   PATT
  POIN2 Label_5_019D5E23
// 008   ----------------------------------------
 BYTE   PATT
  POIN2 Label_5_019D5E38
// 009   ----------------------------------------
 BYTE   PATT
  POIN2 Label_5_019D5E44
// 010   ----------------------------------------
 BYTE   GoTo
  POIN2 Label_5_019D5DBA
 BYTE   FINE

//******************************************************//
	ALIGN 4

TouhouHonobonoJinja7743:
	BYTE	6	// NumTrks
	BYTE	0	// NumBlks
	BYTE	TouhouHonobonoJinja7743_pri	// Priority
	BYTE	TouhouHonobonoJinja7743_rev	// Reverb.
    
	POIN2	TouhouHonobonoJinja7743_grp
    
	POIN2	TouhouHonobonoJinja7743_001
	POIN2	TouhouHonobonoJinja7743_002
	POIN2	TouhouHonobonoJinja7743_003
	POIN2	TouhouHonobonoJinja7743_004
	POIN2	TouhouHonobonoJinja7743_005
	POIN2	TouhouHonobonoJinja7743_006

	
