//Event file generated from Sappy .s format.
	#include "MPlayDef.event"

	#define	TouhouALiveMetalmaniaTak_grp  voicegroup000
	#define	TouhouALiveMetalmaniaTak_pri  0
	#define	TouhouALiveMetalmaniaTak_rev  0
	#define	TouhouALiveMetalmaniaTak_mvl  127
	#define	TouhouALiveMetalmaniaTak_key  0
	#define	TouhouALiveMetalmaniaTak_tbs  1
	#define	TouhouALiveMetalmaniaTak_exg  0
	#define	TouhouALiveMetalmaniaTak_cmp  1

	// .rodata
	//	TouhouALiveMetalmaniaTak
	ALIGN 4


//**************** Track 1 (Midi-Chn.0) ****************//

TouhouALiveMetalmaniaTak_001:
//  #01 //000   ----------------------------------------
 BYTE   KEYSH   TouhouALiveMetalmaniaTak_key+0
 BYTE   VOICE   73
 BYTE   VOL   78*TouhouALiveMetalmaniaTak_mvl/mxv
 BYTE   BENDR  12
 BYTE   W96
//  #01 //001   ----------------------------------------
 BYTE   W96
//  #01 //002   ----------------------------------------
 BYTE   W96
//  #01 //003   ----------------------------------------
 BYTE   W96
//  #01 //004   ----------------------------------------
 BYTE   W96
//  #01 //005   ----------------------------------------
 BYTE   W96
//  #01 //006   ----------------------------------------
 BYTE   W96
//  #01 //007   ----------------------------------------
Label_01003033:
 BYTE   W48
 BYTE   W01
 BYTE   BEND   c_v-1
 BYTE   W24
 BYTE   BEND   c_v-2
 BYTE   W12
 BYTE   BEND   c_v-3
 BYTE   W06
 BYTE   BEND   c_v-4
 BYTE   W04
 BYTE   BEND   c_v-5
 BYTE   W01
 BYTE   PEND 
//  #01 //008   ----------------------------------------
 BYTE   W96
//  #01 //009   ----------------------------------------
 BYTE   En3
 BYTE   W96
//  #01 //010   ----------------------------------------
 BYTE   W96
//  #01 //011   ----------------------------------------
 BYTE   W96
//  #01 //012   ----------------------------------------
 BYTE   W96
//  #01 //013   ----------------------------------------
 BYTE   W96
//  #01 //014   ----------------------------------------
 BYTE   W96
//  #01 //015   ----------------------------------------
 BYTE   W96
//  #01 //016   ----------------------------------------
Label_0100304A:
 BYTE   N12  Cn4  v085
 BYTE   W12
 BYTE   N06  Dn4
 BYTE   W12
 BYTE   Ds4
 BYTE   W12
 BYTE   N03  Fs4
 BYTE   W03
 BYTE   N21  Gn4
 BYTE   W21
 BYTE   N06
 BYTE   W12
 BYTE   Fn4
 BYTE   W12
 BYTE   Dn4
 BYTE   W12
//  #01 //017   ----------------------------------------
 BYTE   N12  Ds4
 BYTE   W12
 BYTE   N06  Dn4
 BYTE   W12
 BYTE   N60  Cn4
 BYTE   W72
//  #01 //018   ----------------------------------------
 BYTE   N12
 BYTE   W12
 BYTE   N06  Dn4
 BYTE   W12
 BYTE   Ds4
 BYTE   W12
 BYTE   N03  Fs4
 BYTE   W03
 BYTE   N21  Gn4
 BYTE   W21
 BYTE   N06
 BYTE   W12
 BYTE   Fn4
 BYTE   W12
 BYTE   Ds4
 BYTE   W12
//  #01 //019   ----------------------------------------
 BYTE   N24  Fn4
 BYTE   W24
 BYTE   N06  As4
 BYTE   W12
 BYTE   N48  Gn4
 BYTE   W60
//  #01 //020   ----------------------------------------
 BYTE   N12  Cn4
 BYTE   W12
 BYTE   N06  Dn4
 BYTE   W12
 BYTE   Ds4
 BYTE   W12
 BYTE   N03  Fs4
 BYTE   W03
 BYTE   N21  Gn4
 BYTE   W21
 BYTE   N06
 BYTE   W12
 BYTE   Dn5
 BYTE   W12
 BYTE   Ds5
 BYTE   W12
//  #01 //021   ----------------------------------------
 BYTE   N36  Dn5
 BYTE   W36
 BYTE   As4
 BYTE   W36
 BYTE   N24  Gs4
 BYTE   W24
//  #01 //022   ----------------------------------------
 BYTE   N03  Gn4
 BYTE   W03
 BYTE   Gs4
 BYTE   W03
 BYTE   N90  Gn4
 BYTE   W90
//  #01 //023   ----------------------------------------
 BYTE   W84
 BYTE   N12  Fn3
 BYTE   N12  Bn3
 BYTE   W12
//  #01 //024   ----------------------------------------
 BYTE   Cn4
 BYTE   N12  Fs3
 BYTE   W12
 BYTE   N06  Dn4
 BYTE   N06  Gn3
 BYTE   W12
 BYTE   Ds4
 BYTE   N06  Cn4
 BYTE   W12
 BYTE   N03  Fs4
 BYTE   N03  Dn4
 BYTE   W03
 BYTE   N21  Gn4
 BYTE   N21  Ds4
 BYTE   W21
 BYTE   N06  Gn4
 BYTE   N06  Ds4
 BYTE   W12
 BYTE   Fn4
 BYTE   N06  Cn4
 BYTE   W12
 BYTE   Dn4
 BYTE   N06  Gn3
 BYTE   W12
//  #01 //025   ----------------------------------------
 BYTE   N12  Ds4
 BYTE   N12  Fs3
 BYTE   W12
 BYTE   N06  Dn4
 BYTE   N06  Fn3
 BYTE   W12
 BYTE   N48  Cn4
 BYTE   N48  Ds3
 BYTE   W60
 BYTE   N12  As3
 BYTE   N12  Dn3
 BYTE   W12
//  #01 //026   ----------------------------------------
 BYTE   Cn4
 BYTE   N12  Ds3
 BYTE   W12
 BYTE   N06  Dn4
 BYTE   N06  Fs3
 BYTE   W12
 BYTE   As3
 BYTE   N06  Ds4
 BYTE   W12
 BYTE   N03  Fs4
 BYTE   N03  Dn4
 BYTE   W03
 BYTE   N21  Ds4
 BYTE   N21  Gn4
 BYTE   W21
 BYTE   N06
 BYTE   N06  Ds4
 BYTE   W12
 BYTE   Fn4
 BYTE   N06  Cn4
 BYTE   W12
 BYTE   Ds4
 BYTE   N06  Gn3
 BYTE   W12
//  #01 //027   ----------------------------------------
 BYTE   N24  Fn4
 BYTE   N24  Gs3
 BYTE   W24
 BYTE   N06  Dn4
 BYTE   N06  As4
 BYTE   W12
 BYTE   N18  Gn4
 BYTE   N18  Cs4
 BYTE   W24
 BYTE   N06
 BYTE   N06  Gn4
 BYTE   W12
 BYTE   N12  Fn4
 BYTE   N12  As4
 BYTE   W12
 BYTE   En4
 BYTE   N12  Bn4
 BYTE   W12
//  #01 //028   ----------------------------------------
 BYTE   N36  Ds4
 BYTE   N36  Cn5
 BYTE   W36
 BYTE   Gs4
 BYTE   N36  Cn5
 BYTE   W36
 BYTE   N24  Gn4
 BYTE   N24  Ds5
 BYTE   W24
//  #01 //029   ----------------------------------------
 BYTE   N36  Dn5
 BYTE   N36  Fn4
 BYTE   W36
 BYTE   As4
 BYTE   N36  Dn4
 BYTE   W36
 BYTE   N24  Gn4
 BYTE   N24  As3
 BYTE   W24
//  #01 //030   ----------------------------------------
 BYTE   N96  Cn5
 BYTE   N96  Cs4
 BYTE   W96
//  #01 //031   ----------------------------------------
 BYTE   W96
//  #01 //032   ----------------------------------------
 BYTE   W96
//  #01 //033   ----------------------------------------
 BYTE   W96
//  #01 //034   ----------------------------------------
 BYTE   W96
//  #01 //035   ----------------------------------------
 BYTE   W96
//  #01 //036   ----------------------------------------
 BYTE   W96
//  #01 //037   ----------------------------------------
 BYTE   W96
//  #01 //038   ----------------------------------------
 BYTE   W96
//  #01 //039   ----------------------------------------
 BYTE   W96
//  #01 //040   ----------------------------------------
 BYTE   W96
//  #01 //041   ----------------------------------------
 BYTE   W96
//  #01 //042   ----------------------------------------
 BYTE   W96
//  #01 //043   ----------------------------------------
 BYTE   W96
//  #01 //044   ----------------------------------------
 BYTE   W96
//  #01 //045   ----------------------------------------
 BYTE   W96
//  #01 //046   ----------------------------------------
 BYTE   W96
//  #01 //047   ----------------------------------------
 BYTE   W96
//  #01 //048   ----------------------------------------
 BYTE   GoTo
  POIN2 Label_0100304A
 BYTE   FINE

//**************** Track 2 (Midi-Chn.1) ****************//

TouhouALiveMetalmaniaTak_002:
//  #02 //000   ----------------------------------------
 BYTE   KEYSH   TouhouALiveMetalmaniaTak_key+0
 BYTE   VOICE   36
 BYTE   VOL   82*TouhouALiveMetalmaniaTak_mvl/mxv
 BYTE   BENDR  12
 BYTE   W96
//  #02 //001   ----------------------------------------
 BYTE   W96
//  #02 //002   ----------------------------------------
 BYTE   W96
//  #02 //003   ----------------------------------------
 BYTE   W96
//  #02 //004   ----------------------------------------
 BYTE   W96
//  #02 //005   ----------------------------------------
 BYTE   W96
//  #02 //006   ----------------------------------------
 BYTE   W96
//  #02 //007   ----------------------------------------
 BYTE   W96
//  #02 //008   ----------------------------------------
Label_010005E0:
 BYTE   N06  Cn1  v085
 BYTE   W06
 BYTE   Cn1
 BYTE   W06
 BYTE   Cn1
 BYTE   W06
 BYTE   Cn1
 BYTE   W06
 BYTE   N12
 BYTE   W12
 BYTE   N06
 BYTE   W06
 BYTE   Cn1
 BYTE   W12
 BYTE   Cn1
 BYTE   W12
 BYTE   Cn1
 BYTE   W06
 BYTE   Dn1
 BYTE   W12
 BYTE   N12  Ds1
 BYTE   W12
 BYTE   PEND 
//  #02 //009   ----------------------------------------
 BYTE   PATT
  POIN2 Label_010005E0
//  #02 //010   ----------------------------------------
 BYTE   PATT
  POIN2 Label_010005E0
//  #02 //011   ----------------------------------------
 BYTE   PATT
  POIN2 Label_010005E0
//  #02 //012   ----------------------------------------
 BYTE   PATT
  POIN2 Label_010005E0
//  #02 //013   ----------------------------------------
 BYTE   PATT
  POIN2 Label_010005E0
//  #02 //014   ----------------------------------------
 BYTE   PATT
  POIN2 Label_010005E0
//  #02 //015   ----------------------------------------
 BYTE   N06  Cn1  v085
 BYTE   W96
//  #02 //016   ----------------------------------------
Label_0100061C:
 BYTE   W96
//  #02 //017   ----------------------------------------
 BYTE   W96
//  #02 //018   ----------------------------------------
 BYTE   W96
//  #02 //019   ----------------------------------------
 BYTE   W96
//  #02 //020   ----------------------------------------
 BYTE   W96
//  #02 //021   ----------------------------------------
 BYTE   W96
//  #02 //022   ----------------------------------------
 BYTE   W96
//  #02 //023   ----------------------------------------
 BYTE   W54
 BYTE   N06  Gs0  v085
 BYTE   W06
 BYTE   Fn0
 BYTE   W06
 BYTE   Fs0
 BYTE   W06
 BYTE   Gn0
 BYTE   W06
 BYTE   An0
 BYTE   W06
 BYTE   As0
 BYTE   W06
 BYTE   Bn0
 BYTE   W06
//  #02 //024   ----------------------------------------
 BYTE   PATT
  POIN2 Label_010005E0
//  #02 //025   ----------------------------------------
 BYTE   PATT
  POIN2 Label_010005E0
//  #02 //026   ----------------------------------------
 BYTE   PATT
  POIN2 Label_010005E0
//  #02 //027   ----------------------------------------
Label_01000643:
 BYTE   N06  Cn1  v085
 BYTE   W06
 BYTE   Cn1
 BYTE   W06
 BYTE   Cn1
 BYTE   W06
 BYTE   Cn1
 BYTE   W06
 BYTE   N12
 BYTE   W12
 BYTE   N06
 BYTE   W06
 BYTE   Cn1
 BYTE   W12
 BYTE   Cn1
 BYTE   W12
 BYTE   Cn1
 BYTE   W06
 BYTE   Cs1
 BYTE   W12
 BYTE   N12  Ds1
 BYTE   W12
 BYTE   PEND 
//  #02 //028   ----------------------------------------
 BYTE   PATT
  POIN2 Label_010005E0
//  #02 //029   ----------------------------------------
 BYTE   N06  As0  v085
 BYTE   W06
 BYTE   As0
 BYTE   W06
 BYTE   As0
 BYTE   W06
 BYTE   As0
 BYTE   W06
 BYTE   N12
 BYTE   W12
 BYTE   N06
 BYTE   W06
 BYTE   As0
 BYTE   W12
 BYTE   As0
 BYTE   W12
 BYTE   As0
 BYTE   W06
 BYTE   Cn1
 BYTE   W12
 BYTE   N12  Dn1
 BYTE   W12
//  #02 //030   ----------------------------------------
 BYTE   PATT
  POIN2 Label_01000643
//  #02 //031   ----------------------------------------
 BYTE   W96
//  #02 //032   ----------------------------------------
 BYTE   PATT
  POIN2 Label_010005E0
//  #02 //033   ----------------------------------------
 BYTE   PATT
  POIN2 Label_010005E0
//  #02 //034   ----------------------------------------
Label_0100068B:
 BYTE   W06
 BYTE   N06  Cn1  v085
 BYTE   W06
 BYTE   Cn1
 BYTE   W06
 BYTE   Cn1
 BYTE   W06
 BYTE   N12
 BYTE   W12
 BYTE   N06
 BYTE   W06
 BYTE   Cn1
 BYTE   W12
 BYTE   Cn1
 BYTE   W12
 BYTE   Cn1
 BYTE   W06
 BYTE   Dn1
 BYTE   W12
 BYTE   N12  Ds1
 BYTE   W12
 BYTE   PEND 
//  #02 //035   ----------------------------------------
Label_010006A4:
 BYTE   N06  Cn1  v085
 BYTE   W06
 BYTE   Cn1
 BYTE   W06
 BYTE   Cn1
 BYTE   W06
 BYTE   Cn1
 BYTE   W06
 BYTE   N12
 BYTE   W12
 BYTE   N06
 BYTE   W06
 BYTE   Cn1
 BYTE   W12
 BYTE   Cn1
 BYTE   W12
 BYTE   Cn1
 BYTE   W06
 BYTE   Dn1
 BYTE   W12
 BYTE   N12  En1
 BYTE   W12
 BYTE   PEND 
//  #02 //036   ----------------------------------------
 BYTE   PATT
  POIN2 Label_010005E0
//  #02 //037   ----------------------------------------
 BYTE   PATT
  POIN2 Label_010005E0
//  #02 //038   ----------------------------------------
 BYTE   PATT
  POIN2 Label_010005E0
//  #02 //039   ----------------------------------------
Label_010006CD:
 BYTE   W06
 BYTE   N06  Cn1  v085
 BYTE   W06
 BYTE   Cn1
 BYTE   W06
 BYTE   Cn1
 BYTE   W06
 BYTE   N12
 BYTE   W12
 BYTE   N06
 BYTE   W06
 BYTE   Cn1
 BYTE   W12
 BYTE   Cn1
 BYTE   W12
 BYTE   Cn1
 BYTE   W06
 BYTE   Dn1
 BYTE   W12
 BYTE   N12  En1
 BYTE   W12
 BYTE   PEND 
//  #02 //040   ----------------------------------------
 BYTE   PATT
  POIN2 Label_010005E0
//  #02 //041   ----------------------------------------
 BYTE   PATT
  POIN2 Label_010005E0
//  #02 //042   ----------------------------------------
 BYTE   PATT
  POIN2 Label_0100068B
//  #02 //043   ----------------------------------------
 BYTE   PATT
  POIN2 Label_010006A4
//  #02 //044   ----------------------------------------
 BYTE   PATT
  POIN2 Label_010005E0
//  #02 //045   ----------------------------------------
 BYTE   PATT
  POIN2 Label_010005E0
//  #02 //046   ----------------------------------------
 BYTE   PATT
  POIN2 Label_010006CD
//  #02 //047   ----------------------------------------
 BYTE   W96
//  #02 //048   ----------------------------------------
 BYTE   GoTo
  POIN2 Label_0100061C
 BYTE   FINE

//**************** Track 3 (Midi-Chn.2) ****************//

TouhouALiveMetalmaniaTak_003:
//  #03 //000   ----------------------------------------
 BYTE   KEYSH   TouhouALiveMetalmaniaTak_key+0
 BYTE   VOICE   81
 BYTE   VOL   95*TouhouALiveMetalmaniaTak_mvl/mxv
 BYTE   BENDR  12
 BYTE   PAN   c_v+63
 BYTE   W96
//  #03 //001   ----------------------------------------
 BYTE   W96
//  #03 //002   ----------------------------------------
 BYTE   W96
//  #03 //003   ----------------------------------------
 BYTE   W96
//  #03 //004   ----------------------------------------
 BYTE   W96
//  #03 //005   ----------------------------------------
 BYTE   W96
//  #03 //006   ----------------------------------------
 BYTE   W96
//  #03 //007   ----------------------------------------
 BYTE   W96
//  #03 //008   ----------------------------------------
 BYTE   W96
//  #03 //009   ----------------------------------------
 BYTE   W96
//  #03 //010   ----------------------------------------
 BYTE   W96
//  #03 //011   ----------------------------------------
 BYTE   W96
//  #03 //012   ----------------------------------------
 BYTE   N06  Cn2  v085
 BYTE   W96
//  #03 //013   ----------------------------------------
 BYTE   Cn3
 BYTE   W96
//  #03 //014   ----------------------------------------
 BYTE   Cn4
 BYTE   W96
//  #03 //015   ----------------------------------------
 BYTE   Cn2
 BYTE   N06  Cn3
 BYTE   N06  Cn4
 BYTE   N06  Cn5
 BYTE   W96
//  #03 //016   ----------------------------------------
Label_01003186:
 BYTE   W96
//  #03 //017   ----------------------------------------
 BYTE   W96
//  #03 //018   ----------------------------------------
 BYTE   W96
//  #03 //019   ----------------------------------------
 BYTE   W96
//  #03 //020   ----------------------------------------
 BYTE   W96
//  #03 //021   ----------------------------------------
 BYTE   W96
//  #03 //022   ----------------------------------------
 BYTE   W96
//  #03 //023   ----------------------------------------
 BYTE   W96
//  #03 //024   ----------------------------------------
 BYTE   W96
//  #03 //025   ----------------------------------------
 BYTE   W96
//  #03 //026   ----------------------------------------
 BYTE   W96
//  #03 //027   ----------------------------------------
 BYTE   W96
//  #03 //028   ----------------------------------------
 BYTE   W96
//  #03 //029   ----------------------------------------
 BYTE   W96
//  #03 //030   ----------------------------------------
 BYTE   W96
//  #03 //031   ----------------------------------------
 BYTE   W96
//  #03 //032   ----------------------------------------
 BYTE   W96
//  #03 //033   ----------------------------------------
 BYTE   W96
//  #03 //034   ----------------------------------------
 BYTE   W96
//  #03 //035   ----------------------------------------
 BYTE   W96
//  #03 //036   ----------------------------------------
 BYTE   W96
//  #03 //037   ----------------------------------------
 BYTE   W96
//  #03 //038   ----------------------------------------
 BYTE   W96
//  #03 //039   ----------------------------------------
 BYTE   W96
//  #03 //040   ----------------------------------------
 BYTE   W96
//  #03 //041   ----------------------------------------
 BYTE   W96
//  #03 //042   ----------------------------------------
 BYTE   W96
//  #03 //043   ----------------------------------------
 BYTE   W96
//  #03 //044   ----------------------------------------
 BYTE   W96
//  #03 //045   ----------------------------------------
 BYTE   W96
//  #03 //046   ----------------------------------------
 BYTE   W96
//  #03 //047   ----------------------------------------
 BYTE   W96
//  #03 //048   ----------------------------------------
 BYTE   GoTo
  POIN2 Label_01003186
 BYTE   FINE

//**************** Track 4 (Midi-Chn.3) ****************//

TouhouALiveMetalmaniaTak_004:
//  #04 //000   ----------------------------------------
 BYTE   KEYSH   TouhouALiveMetalmaniaTak_key+0
 BYTE   VOICE   81
 BYTE   BENDR  12
 BYTE   VOL   108*TouhouALiveMetalmaniaTak_mvl/mxv
 BYTE   W96
//  #04 //001   ----------------------------------------
 BYTE   W96
//  #04 //002   ----------------------------------------
 BYTE   W96
//  #04 //003   ----------------------------------------
 BYTE   W96
//  #04 //004   ----------------------------------------
 BYTE   W96
//  #04 //005   ----------------------------------------
 BYTE   W96
//  #04 //006   ----------------------------------------
 BYTE   W96
//  #04 //007   ----------------------------------------
 BYTE   W96
//  #04 //008   ----------------------------------------
 BYTE   W96
//  #04 //009   ----------------------------------------
 BYTE   W96
//  #04 //010   ----------------------------------------
 BYTE   W96
//  #04 //011   ----------------------------------------
 BYTE   W96
//  #04 //012   ----------------------------------------
 BYTE   W18
 BYTE   N06  Cn2  v085
 BYTE   W36
 BYTE   Cn2
 BYTE   W30
 BYTE   Ds2
 BYTE   W12
//  #04 //013   ----------------------------------------
 BYTE   W06
 BYTE   Cn2
 BYTE   W12
 BYTE   Cn3
 BYTE   W36
 BYTE   Cn3
 BYTE   W18
 BYTE   Dn3
 BYTE   W12
 BYTE   Ds3
 BYTE   W12
//  #04 //014   ----------------------------------------
 BYTE   W06
 BYTE   Cn3
 BYTE   W12
 BYTE   Cn4
 BYTE   W36
 BYTE   Cn4
 BYTE   W18
 BYTE   Dn4
 BYTE   N06  Dn3
 BYTE   W12
 BYTE   Ds3
 BYTE   N06  Ds4
 BYTE   W12
//  #04 //015   ----------------------------------------
 BYTE   W18
 BYTE   Cn2
 BYTE   N06  Cn3
 BYTE   N06  Cn4
 BYTE   N06  Cn5
 BYTE   W36
 BYTE   Cn2
 BYTE   N06  Cn3
 BYTE   N06  Cn4
 BYTE   N06  Cn5
 BYTE   W30
 BYTE   Ds2
 BYTE   N06  Ds3
 BYTE   N06  Ds4
 BYTE   N06  Ds5
 BYTE   W12
//  #04 //016   ----------------------------------------
Label_01003DA0:
 BYTE   N06  Cn1  v085
 BYTE   W06
 BYTE   Cn1
 BYTE   W06
 BYTE   Cn2
 BYTE   W06
 BYTE   Cn1
 BYTE   W06
 BYTE   Cn1
 BYTE   W06
 BYTE   Cn2
 BYTE   W06
 BYTE   Cn1
 BYTE   W06
 BYTE   Cn1
 BYTE   W06
 BYTE   Cn2
 BYTE   W06
 BYTE   Cn1
 BYTE   W06
 BYTE   Cn1
 BYTE   W06
 BYTE   Cn2
 BYTE   W12
 BYTE   Cn2
 BYTE   W06
 BYTE   Dn2
 BYTE   W06
 BYTE   Ds2
 BYTE   W06
//  #04 //017   ----------------------------------------
 BYTE   Cn1
 BYTE   W06
 BYTE   Cn1
 BYTE   W06
 BYTE   Cn2
 BYTE   W06
 BYTE   Cn1
 BYTE   W06
 BYTE   Cn1
 BYTE   W06
 BYTE   Cn2
 BYTE   W12
 BYTE   Cn1
 BYTE   W06
 BYTE   Cn2
 BYTE   W06
 BYTE   Cn1
 BYTE   W06
 BYTE   Cn1
 BYTE   W06
 BYTE   Cn2
 BYTE   W06
 BYTE   Cn1
 BYTE   W06
 BYTE   Cn2
 BYTE   W06
 BYTE   Dn2
 BYTE   W06
 BYTE   Ds2
 BYTE   W06
//  #04 //018   ----------------------------------------
Label_01003DDE:
 BYTE   N06  Gs0  v085
 BYTE   W06
 BYTE   Gs0
 BYTE   W06
 BYTE   Dn2
 BYTE   W06
 BYTE   Gs0
 BYTE   W06
 BYTE   Cn2
 BYTE   W06
 BYTE   Gs0
 BYTE   W06
 BYTE   As1
 BYTE   W06
 BYTE   Gs0
 BYTE   W06
 BYTE   Cn2
 BYTE   W06
 BYTE   Gs0
 BYTE   W06
 BYTE   Gs0
 BYTE   W06
 BYTE   Dn2
 BYTE   W06
 BYTE   Gs0
 BYTE   W06
 BYTE   Gs0
 BYTE   W06
 BYTE   Ds2
 BYTE   W06
 BYTE   Gs0
 BYTE   W06
 BYTE   PEND 
//  #04 //019   ----------------------------------------
 BYTE   Gs0
 BYTE   W06
 BYTE   Ds2
 BYTE   W06
 BYTE   Ds2
 BYTE   W06
 BYTE   Gs0
 BYTE   W06
 BYTE   Dn2
 BYTE   W12
 BYTE   Cn2
 BYTE   W06
 BYTE   Gs0
 BYTE   W06
 BYTE   Ds2
 BYTE   W06
 BYTE   Gs0
 BYTE   W06
 BYTE   Gs0
 BYTE   W06
 BYTE   Dn2
 BYTE   W06
 BYTE   Gs0
 BYTE   W06
 BYTE   Gs0
 BYTE   W06
 BYTE   Cn2
 BYTE   W06
 BYTE   Gs0
 BYTE   W06
//  #04 //020   ----------------------------------------
 BYTE   As0
 BYTE   W06
 BYTE   As0
 BYTE   W06
 BYTE   Cn2
 BYTE   W06
 BYTE   As0
 BYTE   W06
 BYTE   As0
 BYTE   W06
 BYTE   Cn2
 BYTE   W06
 BYTE   As0
 BYTE   W06
 BYTE   As0
 BYTE   W06
 BYTE   Cn2
 BYTE   W06
 BYTE   As0
 BYTE   W06
 BYTE   As0
 BYTE   W06
 BYTE   Cn2
 BYTE   W12
 BYTE   Cn2
 BYTE   W06
 BYTE   Dn2
 BYTE   W06
 BYTE   Ds2
 BYTE   W06
//  #04 //021   ----------------------------------------
 BYTE   Bn0
 BYTE   W06
 BYTE   Bn0
 BYTE   W06
 BYTE   Dn2
 BYTE   W06
 BYTE   Bn0
 BYTE   W06
 BYTE   Bn0
 BYTE   W06
 BYTE   Dn2
 BYTE   W12
 BYTE   Bn0
 BYTE   W06
 BYTE   Dn2
 BYTE   W06
 BYTE   Bn0
 BYTE   W06
 BYTE   Bn0
 BYTE   W06
 BYTE   Dn2
 BYTE   W06
 BYTE   Bn0
 BYTE   W06
 BYTE   Dn2
 BYTE   W06
 BYTE   Ds2
 BYTE   W06
 BYTE   Fn2
 BYTE   W06
//  #04 //022   ----------------------------------------
 BYTE   Cn1
 BYTE   W06
 BYTE   Cn1
 BYTE   W06
 BYTE   Ds2
 BYTE   W06
 BYTE   Cn1
 BYTE   W06
 BYTE   Dn2
 BYTE   W06
 BYTE   Cn1
 BYTE   W06
 BYTE   Cn2
 BYTE   W06
 BYTE   Cn1
 BYTE   W06
 BYTE   Dn2
 BYTE   W06
 BYTE   Cn1
 BYTE   W06
 BYTE   Cn1
 BYTE   W06
 BYTE   Ds2
 BYTE   W06
 BYTE   Cn1
 BYTE   W06
 BYTE   Cn1
 BYTE   W06
 BYTE   Fn2
 BYTE   W06
 BYTE   Cn1
 BYTE   W06
//  #04 //023   ----------------------------------------
 BYTE   As0
 BYTE   W06
 BYTE   Fn2
 BYTE   W06
 BYTE   Fn2
 BYTE   W06
 BYTE   Fn2
 BYTE   W06
 BYTE   Ds2
 BYTE   W12
 BYTE   Dn2
 BYTE   W06
 BYTE   As0
 BYTE   W06
 BYTE   Bn0
 BYTE   W48
//  #04 //024   ----------------------------------------
 BYTE   Cn1
 BYTE   W06
 BYTE   Cn1
 BYTE   W06
 BYTE   Cn2
 BYTE   W06
 BYTE   Cn1
 BYTE   W06
 BYTE   Cn1
 BYTE   W06
 BYTE   Cn2
 BYTE   W06
 BYTE   Cn1
 BYTE   W06
 BYTE   Cn1
 BYTE   W06
 BYTE   Cn2
 BYTE   W06
 BYTE   Cn1
 BYTE   W06
 BYTE   Cn1
 BYTE   W06
 BYTE   Cn2
 BYTE   W12
 BYTE   Cn2
 BYTE   W06
 BYTE   Dn2
 BYTE   W06
 BYTE   Ds2
 BYTE   W06
//  #04 //025   ----------------------------------------
 BYTE   Cn1
 BYTE   W06
 BYTE   Cn1
 BYTE   W06
 BYTE   Cn2
 BYTE   W06
 BYTE   Cn1
 BYTE   W06
 BYTE   Cn1
 BYTE   W06
 BYTE   Cn2
 BYTE   W12
 BYTE   Cn1
 BYTE   W06
 BYTE   Cn2
 BYTE   W06
 BYTE   Cn1
 BYTE   W06
 BYTE   Cn1
 BYTE   W06
 BYTE   Cn2
 BYTE   W06
 BYTE   As0
 BYTE   W06
 BYTE   Cn2
 BYTE   W06
 BYTE   Dn2
 BYTE   W06
 BYTE   Ds2
 BYTE   W06
//  #04 //026   ----------------------------------------
 BYTE   PATT
  POIN2 Label_01003DDE
//  #04 //027   ----------------------------------------
 BYTE   N06  Cs1  v085
 BYTE   W06
 BYTE   Fn2
 BYTE   W06
 BYTE   Fn2
 BYTE   W06
 BYTE   Cs1
 BYTE   W06
 BYTE   Gn2
 BYTE   W12
 BYTE   Fn2
 BYTE   W06
 BYTE   Cs1
 BYTE   W06
 BYTE   Cs1
 BYTE   W06
 BYTE   Fn2
 BYTE   W06
 BYTE   Gn2
 BYTE   W06
 BYTE   Fn2
 BYTE   W06
 BYTE   Ds2
 BYTE   W06
 BYTE   Cs2
 BYTE   W06
 BYTE   Cn2
 BYTE   W06
 BYTE   As1
 BYTE   W06
//  #04 //028   ----------------------------------------
 BYTE   Gs0
 BYTE   W06
 BYTE   Gs0
 BYTE   W06
 BYTE   Dn2
 BYTE   N06  Dn3
 BYTE   W06
 BYTE   Gs0
 BYTE   W06
 BYTE   Cn2
 BYTE   N06  Cn3
 BYTE   W06
 BYTE   Gs0
 BYTE   W06
 BYTE   As1
 BYTE   N06  As2
 BYTE   W06
 BYTE   Gs0
 BYTE   W06
 BYTE   Cn2
 BYTE   N06  Cn3
 BYTE   W06
 BYTE   Gs0
 BYTE   W06
 BYTE   Gs0
 BYTE   W06
 BYTE   Dn3
 BYTE   N06  Dn2
 BYTE   W06
 BYTE   Gs0
 BYTE   W06
 BYTE   Gs0
 BYTE   W06
 BYTE   Ds2
 BYTE   N06  Ds3
 BYTE   W06
 BYTE   Gs0
 BYTE   W06
//  #04 //029   ----------------------------------------
 BYTE   As0
 BYTE   W06
 BYTE   Fn3
 BYTE   N06  Fn2
 BYTE   W06
 BYTE   Fn3
 BYTE   N06  Fn2
 BYTE   W06
 BYTE   As0
 BYTE   W06
 BYTE   Gn3
 BYTE   N06  Gn2
 BYTE   W12
 BYTE   Fn3
 BYTE   N06  Fn2
 BYTE   W06
 BYTE   As0
 BYTE   W06
 BYTE   As0
 BYTE   W06
 BYTE   Fn3
 BYTE   N06  Fn2
 BYTE   W06
 BYTE   Gn3
 BYTE   N06  Gn2
 BYTE   W06
 BYTE   Fn2
 BYTE   N06  Fn3
 BYTE   W06
 BYTE   Ds3
 BYTE   N06  Ds2
 BYTE   W06
 BYTE   Dn3
 BYTE   N06  Dn2
 BYTE   W06
 BYTE   Cn3
 BYTE   N06  Cn2
 BYTE   W06
 BYTE   As2
 BYTE   N06  As1
 BYTE   W06
//  #04 //030   ----------------------------------------
 BYTE   Cs1
 BYTE   W06
 BYTE   Cs1
 BYTE   W06
 BYTE   Cn2
 BYTE   W06
 BYTE   Cs1
 BYTE   W06
 BYTE   Cs1
 BYTE   W06
 BYTE   Cn2
 BYTE   W06
 BYTE   Cs1
 BYTE   W06
 BYTE   Cs1
 BYTE   W06
 BYTE   Cn2
 BYTE   W06
 BYTE   Cs1
 BYTE   W06
 BYTE   Cs1
 BYTE   W06
 BYTE   Cn2
 BYTE   W12
 BYTE   Cn2
 BYTE   W06
 BYTE   Cs2
 BYTE   W06
 BYTE   Ds2
 BYTE   W06
//  #04 //031   ----------------------------------------
 BYTE   W96
//  #04 //032   ----------------------------------------
 BYTE   W96
//  #04 //033   ----------------------------------------
 BYTE   W96
//  #04 //034   ----------------------------------------
 BYTE   W96
//  #04 //035   ----------------------------------------
 BYTE   W96
//  #04 //036   ----------------------------------------
 BYTE   W96
//  #04 //037   ----------------------------------------
 BYTE   W96
//  #04 //038   ----------------------------------------
 BYTE   W96
//  #04 //039   ----------------------------------------
 BYTE   W96
//  #04 //040   ----------------------------------------
 BYTE   W96
//  #04 //041   ----------------------------------------
 BYTE   W96
//  #04 //042   ----------------------------------------
 BYTE   W96
//  #04 //043   ----------------------------------------
 BYTE   W96
//  #04 //044   ----------------------------------------
 BYTE   W96
//  #04 //045   ----------------------------------------
 BYTE   W96
//  #04 //046   ----------------------------------------
 BYTE   W96
//  #04 //047   ----------------------------------------
 BYTE   W96
//  #04 //048   ----------------------------------------
 BYTE   GoTo
  POIN2 Label_01003DA0
 BYTE   FINE

//**************** Track 5 (Midi-Chn.4) ****************//

TouhouALiveMetalmaniaTak_005:
//  #05 //000   ----------------------------------------
 BYTE   KEYSH   TouhouALiveMetalmaniaTak_key+0
 BYTE   VOICE   81
 BYTE   PAN   c_v-64
 BYTE   BENDR  12
 BYTE   VOL   72*TouhouALiveMetalmaniaTak_mvl/mxv
 BYTE   W96
//  #05 //001   ----------------------------------------
 BYTE   W96
//  #05 //002   ----------------------------------------
 BYTE   W96
//  #05 //003   ----------------------------------------
 BYTE   W96
//  #05 //004   ----------------------------------------
 BYTE   W96
//  #05 //005   ----------------------------------------
 BYTE   W96
//  #05 //006   ----------------------------------------
 BYTE   W96
//  #05 //007   ----------------------------------------
 BYTE   W96
//  #05 //008   ----------------------------------------
 BYTE   W96
//  #05 //009   ----------------------------------------
 BYTE   W96
//  #05 //010   ----------------------------------------
 BYTE   W96
//  #05 //011   ----------------------------------------
 BYTE   W96
//  #05 //012   ----------------------------------------
 BYTE   W36
 BYTE   N06  Cn2  v085
 BYTE   W36
 BYTE   Dn2
 BYTE   W24
//  #05 //013   ----------------------------------------
 BYTE   W24
 BYTE   Cn2
 BYTE   W12
 BYTE   Cn3
 BYTE   W06
 BYTE   Cn2
 BYTE   W18
 BYTE   Cn2
 BYTE   W18
 BYTE   Dn2
 BYTE   W12
 BYTE   Ds2
 BYTE   W06
//  #05 //014   ----------------------------------------
 BYTE   W12
 BYTE   Cn2
 BYTE   W12
 BYTE   Cn3
 BYTE   W06
 BYTE   Cn2
 BYTE   W06
 BYTE   Cn4
 BYTE   W06
 BYTE   Cn3
 BYTE   W06
 BYTE   Cn2
 BYTE   W12
 BYTE   Cn3
 BYTE   W06
 BYTE   Cn2
 BYTE   W12
 BYTE   Dn3
 BYTE   W12
 BYTE   Ds3
 BYTE   W06
//  #05 //015   ----------------------------------------
 BYTE   W36
 BYTE   Cn2
 BYTE   N06  Cn3
 BYTE   N06  Cn4
 BYTE   N06  Cn5
 BYTE   W36
 BYTE   Dn2
 BYTE   N06  Dn3
 BYTE   N06  Dn4
 BYTE   N06  Dn5
 BYTE   W24
//  #05 //016   ----------------------------------------
Label_01003FE4:
 BYTE   W96
//  #05 //017   ----------------------------------------
 BYTE   W96
//  #05 //018   ----------------------------------------
 BYTE   W96
//  #05 //019   ----------------------------------------
 BYTE   W96
//  #05 //020   ----------------------------------------
 BYTE   W96
//  #05 //021   ----------------------------------------
 BYTE   W96
//  #05 //022   ----------------------------------------
 BYTE   W96
//  #05 //023   ----------------------------------------
 BYTE   W96
//  #05 //024   ----------------------------------------
 BYTE   W96
//  #05 //025   ----------------------------------------
 BYTE   W96
//  #05 //026   ----------------------------------------
 BYTE   W96
//  #05 //027   ----------------------------------------
 BYTE   W96
//  #05 //028   ----------------------------------------
 BYTE   W96
//  #05 //029   ----------------------------------------
 BYTE   W96
//  #05 //030   ----------------------------------------
 BYTE   W96
//  #05 //031   ----------------------------------------
 BYTE   W96
//  #05 //032   ----------------------------------------
 BYTE   W96
//  #05 //033   ----------------------------------------
 BYTE   W96
//  #05 //034   ----------------------------------------
 BYTE   W96
//  #05 //035   ----------------------------------------
 BYTE   W96
//  #05 //036   ----------------------------------------
 BYTE   W96
//  #05 //037   ----------------------------------------
 BYTE   W96
//  #05 //038   ----------------------------------------
 BYTE   W96
//  #05 //039   ----------------------------------------
 BYTE   W96
//  #05 //040   ----------------------------------------
 BYTE   W96
//  #05 //041   ----------------------------------------
 BYTE   W96
//  #05 //042   ----------------------------------------
 BYTE   W96
//  #05 //043   ----------------------------------------
 BYTE   W96
//  #05 //044   ----------------------------------------
 BYTE   W96
//  #05 //045   ----------------------------------------
 BYTE   W96
//  #05 //046   ----------------------------------------
 BYTE   W96
//  #05 //047   ----------------------------------------
 BYTE   W96
//  #05 //048   ----------------------------------------
 BYTE   GoTo
  POIN2 Label_01003FE4
 BYTE   FINE

//**************** Track 6 (Midi-Chn.5) ****************//

TouhouALiveMetalmaniaTak_006:
//  #06 //000   ----------------------------------------
 BYTE   KEYSH   TouhouALiveMetalmaniaTak_key+0
 BYTE   VOICE   41
 BYTE   VOL   64*TouhouALiveMetalmaniaTak_mvl/mxv
 BYTE   PAN   c_v-19
 BYTE   N30  Cn5  v085
 BYTE   BENDR  12
 BYTE   W36
 BYTE   N06
 BYTE   W06
 BYTE   Cn5
 BYTE   W06
 BYTE   N18
 BYTE   W18
 BYTE   N06  As4
 BYTE   W18
 BYTE   N18  Cn5
 BYTE   W12
//  #06 //001   ----------------------------------------
Label_01004036:
 BYTE   W12
 BYTE   N06  Cn5  v085
 BYTE   W12
 BYTE   N24
 BYTE   W24
 BYTE   N18
 BYTE   W18
 BYTE   N06  As4
 BYTE   W18
 BYTE   N12  Cn5
 BYTE   W12
 BYTE   PEND 
//  #06 //002   ----------------------------------------
 BYTE   N24  Gn4
 BYTE   W24
 BYTE   N12  Ds5
 BYTE   W12
 BYTE   Dn5
 BYTE   W12
 BYTE   N18  Cn5
 BYTE   W18
 BYTE   N06  As4
 BYTE   W18
 BYTE   N96  Cn5
 BYTE   W12
//  #06 //003   ----------------------------------------
 BYTE   W96
//  #06 //004   ----------------------------------------
 BYTE   N30
 BYTE   W36
 BYTE   N06
 BYTE   W06
 BYTE   Cn5
 BYTE   W06
 BYTE   N18
 BYTE   W18
 BYTE   N06  Gn5
 BYTE   W18
 BYTE   N18  Cn5
 BYTE   W12
//  #06 //005   ----------------------------------------
 BYTE   W12
 BYTE   N06
 BYTE   W12
 BYTE   N24
 BYTE   W24
 BYTE   N18
 BYTE   W18
 BYTE   N06  Fn5
 BYTE   W18
 BYTE   N12  Gn5
 BYTE   W12
//  #06 //006   ----------------------------------------
 BYTE   TIE  En5
 BYTE   W96
//  #06 //007   ----------------------------------------
 BYTE   PATT
  POIN2 Label_01003033
//  #06 //008   ----------------------------------------
 BYTE   EOT
 BYTE   En5
 BYTE   W96
//  #06 //009   ----------------------------------------
 BYTE   BEND   c_v+0
 BYTE   W96
//  #06 //010   ----------------------------------------
 BYTE   W96
//  #06 //011   ----------------------------------------
 BYTE   W96
//  #06 //012   ----------------------------------------
 BYTE   W96
//  #06 //013   ----------------------------------------
 BYTE   W96
//  #06 //014   ----------------------------------------
 BYTE   W96
//  #06 //015   ----------------------------------------
 BYTE   W96
//  #06 //016   ----------------------------------------
Label_01004087:
 BYTE   W96
//  #06 //017   ----------------------------------------
 BYTE   W96
//  #06 //018   ----------------------------------------
 BYTE   W96
//  #06 //019   ----------------------------------------
 BYTE   W96
//  #06 //020   ----------------------------------------
 BYTE   W96
//  #06 //021   ----------------------------------------
 BYTE   W96
//  #06 //022   ----------------------------------------
 BYTE   W96
//  #06 //023   ----------------------------------------
 BYTE   W96
//  #06 //024   ----------------------------------------
 BYTE   W96
//  #06 //025   ----------------------------------------
 BYTE   W96
//  #06 //026   ----------------------------------------
 BYTE   W96
//  #06 //027   ----------------------------------------
 BYTE   W96
//  #06 //028   ----------------------------------------
 BYTE   W96
//  #06 //029   ----------------------------------------
 BYTE   W96
//  #06 //030   ----------------------------------------
 BYTE   W96
//  #06 //031   ----------------------------------------
 BYTE   W96
//  #06 //032   ----------------------------------------
 BYTE   W96
//  #06 //033   ----------------------------------------
 BYTE   W96
//  #06 //034   ----------------------------------------
 BYTE   W96
//  #06 //035   ----------------------------------------
 BYTE   W96
//  #06 //036   ----------------------------------------
 BYTE   W96
//  #06 //037   ----------------------------------------
 BYTE   W96
//  #06 //038   ----------------------------------------
 BYTE   W96
//  #06 //039   ----------------------------------------
 BYTE   W96
//  #06 //040   ----------------------------------------
 BYTE   W96
//  #06 //041   ----------------------------------------
 BYTE   W96
//  #06 //042   ----------------------------------------
 BYTE   W96
//  #06 //043   ----------------------------------------
 BYTE   W96
//  #06 //044   ----------------------------------------
 BYTE   W96
//  #06 //045   ----------------------------------------
 BYTE   W96
//  #06 //046   ----------------------------------------
 BYTE   W96
//  #06 //047   ----------------------------------------
 BYTE   W96
//  #06 //048   ----------------------------------------
 BYTE   GoTo
  POIN2 Label_01004087
 BYTE   FINE

//**************** Track 7 (Midi-Chn.6) ****************//

TouhouALiveMetalmaniaTak_007:
//  #07 //000   ----------------------------------------
 BYTE   KEYSH   TouhouALiveMetalmaniaTak_key+0
 BYTE   VOICE   41
 BYTE   VOL   60*TouhouALiveMetalmaniaTak_mvl/mxv
 BYTE   PAN   c_v+20
 BYTE   N96  Gs2  v085
 BYTE   BENDR  12
 BYTE   W96
//  #07 //001   ----------------------------------------
 BYTE   N96  As2
 BYTE   W96
//  #07 //002   ----------------------------------------
 BYTE   Cn3
 BYTE   W96
//  #07 //003   ----------------------------------------
 BYTE   N48  Fn2
 BYTE   W48
 BYTE   Gn2
 BYTE   W48
//  #07 //004   ----------------------------------------
 BYTE   N96  Gs2
 BYTE   W96
//  #07 //005   ----------------------------------------
 BYTE   As2
 BYTE   W96
//  #07 //006   ----------------------------------------
 BYTE   W96
//  #07 //007   ----------------------------------------
 BYTE   PATT
  POIN2 Label_01003033
//  #07 //008   ----------------------------------------
 BYTE   W96
//  #07 //009   ----------------------------------------
 BYTE   BEND   c_v+0
 BYTE   W96
//  #07 //010   ----------------------------------------
 BYTE   W96
//  #07 //011   ----------------------------------------
 BYTE   W96
//  #07 //012   ----------------------------------------
 BYTE   W96
//  #07 //013   ----------------------------------------
 BYTE   W96
//  #07 //014   ----------------------------------------
 BYTE   W96
//  #07 //015   ----------------------------------------
 BYTE   W96
//  #07 //016   ----------------------------------------
Label_010040ED:
 BYTE   W96
//  #07 //017   ----------------------------------------
 BYTE   W96
//  #07 //018   ----------------------------------------
 BYTE   W96
//  #07 //019   ----------------------------------------
 BYTE   W96
//  #07 //020   ----------------------------------------
 BYTE   W96
//  #07 //021   ----------------------------------------
 BYTE   W96
//  #07 //022   ----------------------------------------
 BYTE   W96
//  #07 //023   ----------------------------------------
 BYTE   W96
//  #07 //024   ----------------------------------------
 BYTE   W96
//  #07 //025   ----------------------------------------
 BYTE   W96
//  #07 //026   ----------------------------------------
 BYTE   W96
//  #07 //027   ----------------------------------------
 BYTE   W96
//  #07 //028   ----------------------------------------
 BYTE   W96
//  #07 //029   ----------------------------------------
 BYTE   W96
//  #07 //030   ----------------------------------------
 BYTE   W96
//  #07 //031   ----------------------------------------
 BYTE   W96
//  #07 //032   ----------------------------------------
 BYTE   N30  Cn5  v085
 BYTE   W36
 BYTE   N06
 BYTE   W06
 BYTE   Cn5
 BYTE   W06
 BYTE   N18
 BYTE   W18
 BYTE   N06  As4
 BYTE   W18
 BYTE   N18  Cn5
 BYTE   W12
//  #07 //033   ----------------------------------------
 BYTE   PATT
  POIN2 Label_01004036
//  #07 //034   ----------------------------------------
 BYTE   N24  Gn4  v085
 BYTE   W24
 BYTE   N12  Ds5
 BYTE   W12
 BYTE   Dn5
 BYTE   W12
 BYTE   N18  Cn5
 BYTE   W18
 BYTE   N06  As4
 BYTE   W18
 BYTE   N12  Fn4
 BYTE   W12
//  #07 //035   ----------------------------------------
 BYTE   N96  Gn4
 BYTE   W96
//  #07 //036   ----------------------------------------
 BYTE   N30  Cn4
 BYTE   W36
 BYTE   N06
 BYTE   W06
 BYTE   Cn4
 BYTE   W06
 BYTE   N18
 BYTE   W18
 BYTE   N06  Gn4
 BYTE   W18
 BYTE   N18  Cn4
 BYTE   W12
//  #07 //037   ----------------------------------------
 BYTE   W12
 BYTE   N12
 BYTE   W12
 BYTE   Dn4
 BYTE   W12
 BYTE   Ds4
 BYTE   W12
 BYTE   N18  Fn4
 BYTE   W18
 BYTE   N06  Gn4
 BYTE   W18
 BYTE   N12  As4
 BYTE   W12
//  #07 //038   ----------------------------------------
 BYTE   Ds4
 BYTE   W12
 BYTE   Gn4
 BYTE   W12
 BYTE   Dn4
 BYTE   W12
 BYTE   Fn4
 BYTE   W12
 BYTE   Cn4
 BYTE   W12
 BYTE   Ds4
 BYTE   W12
 BYTE   N06  As3
 BYTE   W12
 BYTE   N12  Dn4
 BYTE   W12
//  #07 //039   ----------------------------------------
 BYTE   N96  En4
 BYTE   W96
//  #07 //040   ----------------------------------------
 BYTE   N30  Gn3
 BYTE   N30  Cn5
 BYTE   N30  Cn4
 BYTE   W36
 BYTE   N06
 BYTE   N06  Cn5
 BYTE   N06  Gn3
 BYTE   W06
 BYTE   Cn4
 BYTE   N06  Cn5
 BYTE   N06  Gn3
 BYTE   W06
 BYTE   N18  Cn4
 BYTE   N18  Cn5
 BYTE   N18  Gn3
 BYTE   W18
 BYTE   N06  Cn4
 BYTE   N06  As4
 BYTE   N06  Gn3
 BYTE   W18
 BYTE   N18  Cn4
 BYTE   N18  Cn5
 BYTE   N12  Gn3
 BYTE   W12
//  #07 //041   ----------------------------------------
 BYTE   N06  Fn3
 BYTE   W12
 BYTE   Cn5
 BYTE   N06  Cn4
 BYTE   N06  Fn3
 BYTE   W12
 BYTE   N24  Cn5
 BYTE   N24  Cn4
 BYTE   N24  Fn3
 BYTE   W24
 BYTE   N18  Cn4
 BYTE   N18  Cn5
 BYTE   N18  Fn3
 BYTE   W18
 BYTE   N06  Cn4
 BYTE   N06  As4
 BYTE   N06  Fn3
 BYTE   W18
 BYTE   N12
 BYTE   N12  Cn5
 BYTE   N12  Cn4
 BYTE   W12
//  #07 //042   ----------------------------------------
 BYTE   N24
 BYTE   N24  Gn4
 BYTE   N24  Ds3
 BYTE   W24
 BYTE   N12  Cn4
 BYTE   N12  Gn4
 BYTE   N12  Ds5
 BYTE   W12
 BYTE   Dn5
 BYTE   N12  Gn4
 BYTE   N12  Cn4
 BYTE   W12
 BYTE   N18  Dn4
 BYTE   N18  Cn5
 BYTE   N18  Fn4
 BYTE   W18
 BYTE   N06  Dn4
 BYTE   N06  As4
 BYTE   N06  Fn4
 BYTE   W18
 BYTE   TIE  Cn5
 BYTE   N12  Dn4
 BYTE   N48  Fn4
 BYTE   W12
//  #07 //043   ----------------------------------------
 BYTE   N42  Cn4
 BYTE   W36
 BYTE   N06  En4
 BYTE   W06
 BYTE   Dn4
 BYTE   N06  Bn3
 BYTE   W06
 BYTE   N48  As3
 BYTE   N48  En4
 BYTE   W48
//  #07 //044   ----------------------------------------
 BYTE   EOT
 BYTE   Cn5
 BYTE   N30
 BYTE   N30  Ds4
 BYTE   N30  Gs3
 BYTE   W36
 BYTE   N06
 BYTE   N06  Ds4
 BYTE   N06  Cn5
 BYTE   W06
 BYTE   Gs3
 BYTE   N06  Ds4
 BYTE   N06  Cn5
 BYTE   W06
 BYTE   N18  Gs3
 BYTE   N18  Ds4
 BYTE   N18  Cn5
 BYTE   W18
 BYTE   N06  Dn4
 BYTE   N06  Gs3
 BYTE   N06  Gn5
 BYTE   W18
 BYTE   N12  Gs3
 BYTE   N12  Ds4
 BYTE   N18  Cn5
 BYTE   W12
//  #07 //045   ----------------------------------------
 BYTE   N06  Fn4
 BYTE   N06  As3
 BYTE   W12
 BYTE   As3
 BYTE   N06  Fn4
 BYTE   N06  Cn5
 BYTE   W12
 BYTE   N24
 BYTE   N24  Fn4
 BYTE   N24  As3
 BYTE   W24
 BYTE   N18
 BYTE   N18  Fn4
 BYTE   N18  Cn5
 BYTE   W18
 BYTE   N06  As3
 BYTE   N06  En4
 BYTE   N06  Fn5
 BYTE   W18
 BYTE   N12  Fn4
 BYTE   N12  Gn5
 BYTE   N12  As3
 BYTE   W12
//  #07 //046   ----------------------------------------
 BYTE   N96  Cn4
 BYTE   N96  Gn4
 BYTE   N96  En5
 BYTE   W96
//  #07 //047   ----------------------------------------
 BYTE   W96
//  #07 //048   ----------------------------------------
 BYTE   GoTo
  POIN2 Label_010040ED
 BYTE   FINE

//**************** Track 8 (Midi-Chn.7) ****************//

TouhouALiveMetalmaniaTak_008:
//  #08 //000   ----------------------------------------
 BYTE   KEYSH   TouhouALiveMetalmaniaTak_key+0
 BYTE   VOICE   40
 BYTE   VOL   54*TouhouALiveMetalmaniaTak_mvl/mxv
 BYTE   BENDR  12
 BYTE   W96
//  #08 //001   ----------------------------------------
 BYTE   W96
//  #08 //002   ----------------------------------------
 BYTE   W96
//  #08 //003   ----------------------------------------
 BYTE   N06  Fn2  v085
 BYTE   N06  An1
 BYTE   W06
 BYTE   Cn2
 BYTE   N06  Gn2
 BYTE   W06
 BYTE   Fn2
 BYTE   N06  An2
 BYTE   W06
 BYTE   Gn2
 BYTE   N06  Cn3
 BYTE   W06
 BYTE   An2
 BYTE   N06  Fn3
 BYTE   W06
 BYTE   Cn3
 BYTE   N06  Gn3
 BYTE   W06
 BYTE   Fn3
 BYTE   N06  An3
 BYTE   W06
 BYTE   Gn3
 BYTE   N06  Cn4
 BYTE   W06
 BYTE   An3
 BYTE   N06  Fn4
 BYTE   W06
 BYTE   Gn3
 BYTE   N06  Cn4
 BYTE   W06
 BYTE   Fn3
 BYTE   N06  An3
 BYTE   W06
 BYTE   Cn3
 BYTE   N06  Gn3
 BYTE   W06
 BYTE   An2
 BYTE   N06  Fn3
 BYTE   W06
 BYTE   Gn2
 BYTE   N06  Cn3
 BYTE   W06
 BYTE   Fn2
 BYTE   N06  An2
 BYTE   W06
 BYTE   Cn2
 BYTE   N06  Gn2
 BYTE   W06
//  #08 //004   ----------------------------------------
 BYTE   Ds2
 BYTE   N06  Gs2
 BYTE   W06
 BYTE   Ds3
 BYTE   N06  Gs2
 BYTE   W06
 BYTE   Dn3
 BYTE   N06  Gn2
 BYTE   W06
 BYTE   Ds3
 BYTE   N06  Gs2
 BYTE   W06
 BYTE   Gn3
 BYTE   N06  Cn3
 BYTE   W06
 BYTE   Ds3
 BYTE   N06  Gs2
 BYTE   W06
 BYTE   Dn3
 BYTE   N06  Gn2
 BYTE   W06
 BYTE   Ds3
 BYTE   N06  Gs2
 BYTE   W06
 BYTE   Gs3
 BYTE   N06  Ds3
 BYTE   W06
 BYTE   Ds3
 BYTE   N06  Gs2
 BYTE   W06
 BYTE   Dn3
 BYTE   N06  Gn2
 BYTE   W06
 BYTE   Ds3
 BYTE   N06  Gs2
 BYTE   W06
 BYTE   Gn3
 BYTE   N06  Cn3
 BYTE   W06
 BYTE   Ds3
 BYTE   N06  Gs2
 BYTE   W06
 BYTE   Dn3
 BYTE   N06  Gn2
 BYTE   W06
 BYTE   Ds3
 BYTE   N06  Gs2
 BYTE   W06
//  #08 //005   ----------------------------------------
 BYTE   As2
 BYTE   N06  Fn2
 BYTE   W06
 BYTE   Fn3
 BYTE   N06  As2
 BYTE   W06
 BYTE   Ds3
 BYTE   N06  Gs2
 BYTE   W06
 BYTE   Fn3
 BYTE   N06  As2
 BYTE   W06
 BYTE   Gs3
 BYTE   N06  Dn3
 BYTE   W06
 BYTE   Fn3
 BYTE   N06  As2
 BYTE   W06
 BYTE   Ds3
 BYTE   N06  Gs2
 BYTE   W06
 BYTE   Fn3
 BYTE   N06  As2
 BYTE   W06
 BYTE   As3
 BYTE   N06  Fn3
 BYTE   W06
 BYTE   Fn3
 BYTE   N06  As2
 BYTE   W06
 BYTE   Ds3
 BYTE   N06  Gs2
 BYTE   W06
 BYTE   Fn3
 BYTE   N06  As2
 BYTE   W06
 BYTE   Gs3
 BYTE   N06  Dn3
 BYTE   W06
 BYTE   Fn3
 BYTE   N06  As2
 BYTE   W06
 BYTE   Ds3
 BYTE   N06  Gs2
 BYTE   W06
 BYTE   Fn3
 BYTE   N06  As2
 BYTE   W06
//  #08 //006   ----------------------------------------
 BYTE   TIE  Gn3
 BYTE   TIE  Cn3
 BYTE   W96
//  #08 //007   ----------------------------------------
 BYTE   PATT
  POIN2 Label_01003033
//  #08 //008   ----------------------------------------
 BYTE   EOT
 BYTE   Cn3  v067
 BYTE   W96
//  #08 //009   ----------------------------------------
 BYTE   BEND   c_v+0
 BYTE   W96
//  #08 //010   ----------------------------------------
 BYTE   W96
//  #08 //011   ----------------------------------------
 BYTE   W96
//  #08 //012   ----------------------------------------
 BYTE   W96
//  #08 //013   ----------------------------------------
 BYTE   W96
//  #08 //014   ----------------------------------------
 BYTE   W96
//  #08 //015   ----------------------------------------
 BYTE   W96
//  #08 //016   ----------------------------------------
Label_01004330:
 BYTE   W96
//  #08 //017   ----------------------------------------
 BYTE   W96
//  #08 //018   ----------------------------------------
 BYTE   W96
//  #08 //019   ----------------------------------------
 BYTE   W96
//  #08 //020   ----------------------------------------
 BYTE   W96
//  #08 //021   ----------------------------------------
 BYTE   W96
//  #08 //022   ----------------------------------------
 BYTE   W96
//  #08 //023   ----------------------------------------
 BYTE   W96
//  #08 //024   ----------------------------------------
 BYTE   W96
//  #08 //025   ----------------------------------------
 BYTE   W96
//  #08 //026   ----------------------------------------
 BYTE   W96
//  #08 //027   ----------------------------------------
 BYTE   W96
//  #08 //028   ----------------------------------------
 BYTE   W96
//  #08 //029   ----------------------------------------
 BYTE   W96
//  #08 //030   ----------------------------------------
 BYTE   W96
//  #08 //031   ----------------------------------------
 BYTE   W96
//  #08 //032   ----------------------------------------
 BYTE   W96
//  #08 //033   ----------------------------------------
 BYTE   W96
//  #08 //034   ----------------------------------------
 BYTE   W96
//  #08 //035   ----------------------------------------
 BYTE   W96
//  #08 //036   ----------------------------------------
 BYTE   W96
//  #08 //037   ----------------------------------------
 BYTE   W96
//  #08 //038   ----------------------------------------
 BYTE   W96
//  #08 //039   ----------------------------------------
 BYTE   W96
//  #08 //040   ----------------------------------------
 BYTE   W96
//  #08 //041   ----------------------------------------
 BYTE   W96
//  #08 //042   ----------------------------------------
 BYTE   W96
//  #08 //043   ----------------------------------------
 BYTE   W96
//  #08 //044   ----------------------------------------
 BYTE   W96
//  #08 //045   ----------------------------------------
 BYTE   W96
//  #08 //046   ----------------------------------------
 BYTE   W96
//  #08 //047   ----------------------------------------
 BYTE   W96
//  #08 //048   ----------------------------------------
 BYTE   GoTo
  POIN2 Label_01004330
 BYTE   FINE

//**************** Track 9 (Midi-Chn.8) ****************//

TouhouALiveMetalmaniaTak_009:
//  #09 //000   ----------------------------------------
 BYTE   KEYSH   TouhouALiveMetalmaniaTak_key+0
 BYTE   VOICE   100
 BYTE   VOL   82*TouhouALiveMetalmaniaTak_mvl/mxv
 BYTE   BENDR  12
 BYTE   W96
//  #09 //001   ----------------------------------------
 BYTE   W96
//  #09 //002   ----------------------------------------
 BYTE   W96
//  #09 //003   ----------------------------------------
 BYTE   W96
//  #09 //004   ----------------------------------------
 BYTE   W96
//  #09 //005   ----------------------------------------
 BYTE   W96
//  #09 //006   ----------------------------------------
 BYTE   W96
//  #09 //007   ----------------------------------------
 BYTE   W96
//  #09 //008   ----------------------------------------
 BYTE   W96
//  #09 //009   ----------------------------------------
 BYTE   W96
//  #09 //010   ----------------------------------------
 BYTE   W96
//  #09 //011   ----------------------------------------
 BYTE   W96
//  #09 //012   ----------------------------------------
 BYTE   W96
//  #09 //013   ----------------------------------------
 BYTE   W96
//  #09 //014   ----------------------------------------
 BYTE   W96
//  #09 //015   ----------------------------------------
 BYTE   W96
//  #09 //016   ----------------------------------------
Label_01004380:
 BYTE   W96
//  #09 //017   ----------------------------------------
 BYTE   W96
//  #09 //018   ----------------------------------------
 BYTE   W96
//  #09 //019   ----------------------------------------
 BYTE   W96
//  #09 //020   ----------------------------------------
 BYTE   W96
//  #09 //021   ----------------------------------------
 BYTE   W96
//  #09 //022   ----------------------------------------
 BYTE   W96
//  #09 //023   ----------------------------------------
 BYTE   W96
//  #09 //024   ----------------------------------------
 BYTE   W96
//  #09 //025   ----------------------------------------
 BYTE   W96
//  #09 //026   ----------------------------------------
 BYTE   W96
//  #09 //027   ----------------------------------------
 BYTE   W96
//  #09 //028   ----------------------------------------
 BYTE   W96
//  #09 //029   ----------------------------------------
 BYTE   W96
//  #09 //030   ----------------------------------------
 BYTE   W96
//  #09 //031   ----------------------------------------
 BYTE   N96  Cn2  v085
 BYTE   W24
 BYTE   N72  Gn2
 BYTE   W24
 BYTE   N48  Dn3
 BYTE   W24
 BYTE   N24  Gn3
 BYTE   W24
//  #09 //032   ----------------------------------------
Label_0100439C:
 BYTE   N96  Ds3  v085
 BYTE   N96  Gn3
 BYTE   N96  Gs2
 BYTE   W96
 BYTE   PEND 
//  #09 //033   ----------------------------------------
Label_010043A5:
 BYTE   N96  As2  v085
 BYTE   N96  Dn3
 BYTE   W96
 BYTE   PEND 
//  #09 //034   ----------------------------------------
 BYTE   Cn3
 BYTE   W96
//  #09 //035   ----------------------------------------
 BYTE   En3
 BYTE   W96
//  #09 //036   ----------------------------------------
 BYTE   PATT
  POIN2 Label_0100439C
//  #09 //037   ----------------------------------------
 BYTE   PATT
  POIN2 Label_010043A5
//  #09 //038   ----------------------------------------
 BYTE   N96  Cn3  v085
 BYTE   W96
//  #09 //039   ----------------------------------------
 BYTE   En3
 BYTE   W96
//  #09 //040   ----------------------------------------
 BYTE   PATT
  POIN2 Label_0100439C
//  #09 //041   ----------------------------------------
 BYTE   PATT
  POIN2 Label_010043A5
//  #09 //042   ----------------------------------------
 BYTE   N96  Cn3  v085
 BYTE   W96
//  #09 //043   ----------------------------------------
 BYTE   En3
 BYTE   W96
//  #09 //044   ----------------------------------------
 BYTE   PATT
  POIN2 Label_0100439C
//  #09 //045   ----------------------------------------
 BYTE   N96  As2  v085
 BYTE   W96
//  #09 //046   ----------------------------------------
 BYTE   W96
//  #09 //047   ----------------------------------------
 BYTE   W96
//  #09 //048   ----------------------------------------
 BYTE   GoTo
  POIN2 Label_01004380
 BYTE   FINE

//**************** Track 10 (Midi-Chn.9) ****************//

TouhouALiveMetalmaniaTak_010:
//  #10 //000   ----------------------------------------
 BYTE   KEYSH   TouhouALiveMetalmaniaTak_key+0
 BYTE   VOICE   124
 BYTE   VOL   87*TouhouALiveMetalmaniaTak_mvl/mxv
 BYTE   BENDR  12
 BYTE   W96
//  #10 //001   ----------------------------------------
 BYTE   W96
//  #10 //002   ----------------------------------------
 BYTE   W96
//  #10 //003   ----------------------------------------
 BYTE   W96
//  #10 //004   ----------------------------------------
 BYTE   W96
//  #10 //005   ----------------------------------------
 BYTE   W96
//  #10 //006   ----------------------------------------
 BYTE   W96
//  #10 //007   ----------------------------------------
 BYTE   W96
//  #10 //008   ----------------------------------------
 BYTE   W96
//  #10 //009   ----------------------------------------
 BYTE   W96
//  #10 //010   ----------------------------------------
 BYTE   N24  Cn1  v085
 BYTE   W96
//  #10 //011   ----------------------------------------
 BYTE   Cn1
 BYTE   W48
 BYTE   Cn1
 BYTE   W48
//  #10 //012   ----------------------------------------
Label_01025BAA:
 BYTE   N24  Cn1  v085
 BYTE   W24
 BYTE   Cn1
 BYTE   W24
 BYTE   Cn1
 BYTE   W24
 BYTE   Cn1
 BYTE   W24
 BYTE   PEND 
//  #10 //013   ----------------------------------------
 BYTE   PATT
  POIN2 Label_01025BAA
//  #10 //014   ----------------------------------------
 BYTE   PATT
  POIN2 Label_01025BAA
//  #10 //015   ----------------------------------------
 BYTE   N24  Cn1  v085
 BYTE   W96
//  #10 //016   ----------------------------------------
Label_01025BC3:
 BYTE   N06  Gs1  v085
 BYTE   W06
 BYTE   Gs1
 BYTE   W06
 BYTE   Gs1
 BYTE   W06
 BYTE   Gs1
 BYTE   W06
 BYTE   Gs1
 BYTE   W06
 BYTE   Gs1
 BYTE   W06
 BYTE   Gs1
 BYTE   W06
 BYTE   Gs1
 BYTE   W06
 BYTE   Gs1
 BYTE   W06
 BYTE   Gs1
 BYTE   W06
 BYTE   Gs1
 BYTE   W06
 BYTE   Gs1
 BYTE   W06
 BYTE   N18  As1  v091
 BYTE   W06
 BYTE   N06  Gs1  v085
 BYTE   W06
 BYTE   Gs1
 BYTE   W06
 BYTE   Gs1
 BYTE   W06
//  #10 //017   ----------------------------------------
Label_01025BE9:
 BYTE   N06  Gs1  v085
 BYTE   W06
 BYTE   Gs1
 BYTE   W06
 BYTE   Gs1
 BYTE   W06
 BYTE   Gs1
 BYTE   W06
 BYTE   Gs1
 BYTE   W06
 BYTE   Gs1
 BYTE   W06
 BYTE   Gs1
 BYTE   W06
 BYTE   Gs1
 BYTE   W06
 BYTE   Gs1
 BYTE   W06
 BYTE   Gs1
 BYTE   W06
 BYTE   Gs1
 BYTE   W06
 BYTE   Gs1
 BYTE   W06
 BYTE   N18  As1  v091
 BYTE   W06
 BYTE   N06  Gs1  v085
 BYTE   W06
 BYTE   Gs1
 BYTE   W06
 BYTE   Gs1
 BYTE   W06
 BYTE   PEND 
//  #10 //018   ----------------------------------------
 BYTE   PATT
  POIN2 Label_01025BE9
//  #10 //019   ----------------------------------------
 BYTE   PATT
  POIN2 Label_01025BE9
//  #10 //020   ----------------------------------------
 BYTE   PATT
  POIN2 Label_01025BE9
//  #10 //021   ----------------------------------------
 BYTE   PATT
  POIN2 Label_01025BE9
//  #10 //022   ----------------------------------------
 BYTE   PATT
  POIN2 Label_01025BE9
//  #10 //023   ----------------------------------------
 BYTE   N06  Gs1  v085
 BYTE   W06
 BYTE   Gs1
 BYTE   W06
 BYTE   Gs1
 BYTE   W06
 BYTE   Gs1
 BYTE   W06
 BYTE   Gs1
 BYTE   W06
 BYTE   Gs1
 BYTE   W06
 BYTE   Gs1
 BYTE   W06
 BYTE   Gs1
 BYTE   W24
 BYTE   Gs1
 BYTE   W06
 BYTE   N18  As1  v091
 BYTE   W06
 BYTE   N06  Gs1  v085
 BYTE   W06
 BYTE   Gs1
 BYTE   W06
 BYTE   As1
 BYTE   W06
//  #10 //024   ----------------------------------------
Label_01025C49:
 BYTE   N06  Gs1  v085
 BYTE   N06  Cn1
 BYTE   W06
 BYTE   Gs1
 BYTE   W06
 BYTE   Gs1
 BYTE   W06
 BYTE   Gs1
 BYTE   W06
 BYTE   Gs1
 BYTE   N06  Cn1
 BYTE   W06
 BYTE   Gs1
 BYTE   W06
 BYTE   Gs1
 BYTE   W06
 BYTE   Gs1
 BYTE   W06
 BYTE   Gs1
 BYTE   N06  Cn1
 BYTE   W06
 BYTE   Gs1
 BYTE   W06
 BYTE   Gs1
 BYTE   W06
 BYTE   Gs1
 BYTE   W06
 BYTE   N18  As1  v091
 BYTE   N06  Cn1  v085
 BYTE   W06
 BYTE   Gs1
 BYTE   W06
 BYTE   Gs1
 BYTE   W06
 BYTE   Gs1
 BYTE   W06
 BYTE   PEND 
//  #10 //025   ----------------------------------------
 BYTE   Cn1
 BYTE   N06  Gs1
 BYTE   W06
 BYTE   Gs1
 BYTE   W06
 BYTE   Gs1
 BYTE   W06
 BYTE   Gs1
 BYTE   W06
 BYTE   Gs1
 BYTE   N06  Cn1
 BYTE   W06
 BYTE   Gs1
 BYTE   W06
 BYTE   Gs1
 BYTE   W06
 BYTE   Gs1
 BYTE   W06
 BYTE   Gs1
 BYTE   N06  Cn1
 BYTE   W06
 BYTE   Gs1
 BYTE   W06
 BYTE   Gs1
 BYTE   W06
 BYTE   Gs1
 BYTE   W06
 BYTE   N18  As1  v091
 BYTE   N06  Cn1  v085
 BYTE   W06
 BYTE   Gs1
 BYTE   W06
 BYTE   Gs1
 BYTE   W06
 BYTE   Gs1
 BYTE   W06
//  #10 //026   ----------------------------------------
 BYTE   PATT
  POIN2 Label_01025C49
//  #10 //027   ----------------------------------------
 BYTE   N06  Gs1  v085
 BYTE   N06  Cn1
 BYTE   W06
 BYTE   Gs1
 BYTE   W06
 BYTE   Gs1
 BYTE   W06
 BYTE   Gs1
 BYTE   W06
 BYTE   Cn1
 BYTE   N06  Gs1
 BYTE   W06
 BYTE   Gs1
 BYTE   W06
 BYTE   Gs1
 BYTE   W06
 BYTE   Gs1
 BYTE   W06
 BYTE   Cn1
 BYTE   N06  Gs1
 BYTE   W06
 BYTE   Gs1
 BYTE   W06
 BYTE   Gs1
 BYTE   W06
 BYTE   Gs1
 BYTE   W06
 BYTE   N18  As1  v091
 BYTE   N06  Cn1  v085
 BYTE   W06
 BYTE   Gs1
 BYTE   W06
 BYTE   Gs1
 BYTE   W06
 BYTE   Gs1
 BYTE   W06
//  #10 //028   ----------------------------------------
 BYTE   Cn1
 BYTE   N06  Gs1
 BYTE   W06
 BYTE   Gs1
 BYTE   W06
 BYTE   Gs1
 BYTE   W06
 BYTE   Gs1
 BYTE   W06
 BYTE   Cn1
 BYTE   N06  Gs1
 BYTE   W06
 BYTE   Gs1
 BYTE   W06
 BYTE   Gs1
 BYTE   W06
 BYTE   Gs1
 BYTE   W06
 BYTE   Cn1
 BYTE   N06  Gs1
 BYTE   W06
 BYTE   Gs1
 BYTE   W06
 BYTE   Gs1
 BYTE   W06
 BYTE   Gs1
 BYTE   W06
 BYTE   N18  As1  v091
 BYTE   N06  Cn1  v085
 BYTE   W06
 BYTE   Gs1
 BYTE   W06
 BYTE   Gs1
 BYTE   W06
 BYTE   Gs1
 BYTE   W06
//  #10 //029   ----------------------------------------
 BYTE   PATT
  POIN2 Label_01025C49
//  #10 //030   ----------------------------------------
 BYTE   PATT
  POIN2 Label_01025C49
//  #10 //031   ----------------------------------------
 BYTE   W96
//  #10 //032   ----------------------------------------
 BYTE   W96
//  #10 //033   ----------------------------------------
 BYTE   W96
//  #10 //034   ----------------------------------------
 BYTE   W96
//  #10 //035   ----------------------------------------
 BYTE   W96
//  #10 //036   ----------------------------------------
 BYTE   W96
//  #10 //037   ----------------------------------------
 BYTE   W96
//  #10 //038   ----------------------------------------
 BYTE   W96
//  #10 //039   ----------------------------------------
 BYTE   W96
//  #10 //040   ----------------------------------------
 BYTE   PATT
  POIN2 Label_01025BAA
//  #10 //041   ----------------------------------------
 BYTE   PATT
  POIN2 Label_01025BAA
//  #10 //042   ----------------------------------------
 BYTE   PATT
  POIN2 Label_01025BAA
//  #10 //043   ----------------------------------------
 BYTE   PATT
  POIN2 Label_01025BAA
//  #10 //044   ----------------------------------------
 BYTE   PATT
  POIN2 Label_01025BAA
//  #10 //045   ----------------------------------------
 BYTE   PATT
  POIN2 Label_01025BAA
//  #10 //046   ----------------------------------------
 BYTE   W96
//  #10 //047   ----------------------------------------
 BYTE   W72
 BYTE   N18  As1  v091
 BYTE   W06
 BYTE   N06  Gs1  v085
 BYTE   W06
 BYTE   Gs1
 BYTE   W06
 BYTE   As1
 BYTE   W06
//  #10 //048   ----------------------------------------
 BYTE   GoTo
  POIN2 Label_01025BC3
 BYTE   FINE

//**************** Track 11 (Midi-Chn.10) ****************//

TouhouALiveMetalmaniaTak_011:
//  #11 //000   ----------------------------------------
 BYTE   KEYSH   TouhouALiveMetalmaniaTak_key+0
 BYTE   VOICE   40
 BYTE   VOL   73*TouhouALiveMetalmaniaTak_mvl/mxv
 BYTE   N30  Cn3  v085
 BYTE   N30  Cn4
 BYTE   N30  Gs2
 BYTE   BENDR  12
 BYTE   W36
 BYTE   N06  Cn3
 BYTE   N06  Cn4
 BYTE   N06  Gs2
 BYTE   W06
 BYTE   Cn3
 BYTE   N06  Cn4
 BYTE   N06  Gs2
 BYTE   W06
 BYTE   N18  Cn3
 BYTE   N18  Cn4
 BYTE   N18  Gs2
 BYTE   W18
 BYTE   N06  Cn3
 BYTE   N06  As3
 BYTE   N06  Gs2
 BYTE   W18
 BYTE   N18  Cn3
 BYTE   N18  Cn4
 BYTE   N12  Gs2
 BYTE   W12
//  #11 //001   ----------------------------------------
 BYTE   N06  As2
 BYTE   W12
 BYTE   As2
 BYTE   N06  Dn3
 BYTE   N06  Cn4
 BYTE   W12
 BYTE   N24  As2
 BYTE   N24  Dn3
 BYTE   N24  Cn4
 BYTE   W24
 BYTE   N18  As2
 BYTE   N18  Cn4
 BYTE   N18  Dn3
 BYTE   W18
 BYTE   N06  As2
 BYTE   N06  As3
 BYTE   N06  Dn3
 BYTE   W18
 BYTE   N12
 BYTE   N12  Cn4
 BYTE   N12  As2
 BYTE   W12
//  #11 //002   ----------------------------------------
 BYTE   N24  Cn3
 BYTE   N24  Ds3
 BYTE   N24  Gn3
 BYTE   W24
 BYTE   N12  Ds4
 BYTE   N12  Ds3
 BYTE   N12  Cn3
 BYTE   W12
 BYTE   Dn4
 BYTE   N12  Ds3
 BYTE   N12  Cn3
 BYTE   W12
 BYTE   N18  Fn3
 BYTE   N18  Cn4
 BYTE   N18  Dn3
 BYTE   W18
 BYTE   N06  Fn3
 BYTE   N06  As3
 BYTE   N06  Dn3
 BYTE   W18
 BYTE   N96  Cn4
 BYTE   N12  Fn3
 BYTE   N12  Dn3
 BYTE   W12
//  #11 //003   ----------------------------------------
 BYTE   N36  Gn3
 BYTE   N36  Ds3
 BYTE   W36
 BYTE   N06  Dn3
 BYTE   N06  Fn3
 BYTE   W06
 BYTE   Ds3
 BYTE   N06  Gn3
 BYTE   W06
 BYTE   N36  Fn3
 BYTE   N36  An3
 BYTE   W48
//  #11 //004   ----------------------------------------
 BYTE   N30  Gs2
 BYTE   N30  Ds3
 BYTE   N30  Cn4
 BYTE   W36
 BYTE   N06
 BYTE   N06  Ds3
 BYTE   N06  Gs2
 BYTE   W06
 BYTE   Cn4
 BYTE   N06  Ds3
 BYTE   N06  Gs2
 BYTE   W06
 BYTE   N18  Cn4
 BYTE   N18  Ds3
 BYTE   N18  Gs2
 BYTE   W18
 BYTE   N06  Gn4
 BYTE   N06  Gs2
 BYTE   N06  Dn3
 BYTE   W18
 BYTE   N18  Cn4
 BYTE   N12  Ds3
 BYTE   N12  Gs2
 BYTE   W12
//  #11 //005   ----------------------------------------
 BYTE   N06  Fn3
 BYTE   N06  As2
 BYTE   W12
 BYTE   Cn4
 BYTE   N06  Fn3
 BYTE   N06  As2
 BYTE   W12
 BYTE   N24  Cn4
 BYTE   N24  Fn3
 BYTE   N24  As2
 BYTE   W24
 BYTE   N18  Cn4
 BYTE   N18  Fn3
 BYTE   N18  As2
 BYTE   W18
 BYTE   N06  Fn4
 BYTE   N06  En3
 BYTE   N06  As2
 BYTE   W18
 BYTE   N12
 BYTE   N12  Gn4
 BYTE   N12  Fn3
 BYTE   W12
//  #11 //006   ----------------------------------------
 BYTE   TIE  En4
 BYTE   TIE  Gn3
 BYTE   TIE  Cn3
 BYTE   W96
//  #11 //007   ----------------------------------------
 BYTE   W96
//  #11 //008   ----------------------------------------
 BYTE   EOT
 BYTE   EOT
 BYTE   Gn3  v076
 BYTE   W96
//  #11 //009   ----------------------------------------
 BYTE   W96
//  #11 //010   ----------------------------------------
 BYTE   W96
//  #11 //011   ----------------------------------------
 BYTE   W96
//  #11 //012   ----------------------------------------
 BYTE   W96
//  #11 //013   ----------------------------------------
 BYTE   W96
//  #11 //014   ----------------------------------------
 BYTE   W96
//  #11 //015   ----------------------------------------
 BYTE   W96
//  #11 //016   ----------------------------------------
Label_01025E38:
 BYTE   W96
//  #11 //017   ----------------------------------------
 BYTE   W96
//  #11 //018   ----------------------------------------
 BYTE   W96
//  #11 //019   ----------------------------------------
 BYTE   W96
//  #11 //020   ----------------------------------------
 BYTE   W96
//  #11 //021   ----------------------------------------
 BYTE   W96
//  #11 //022   ----------------------------------------
 BYTE   W96
//  #11 //023   ----------------------------------------
 BYTE   W96
//  #11 //024   ----------------------------------------
 BYTE   W96
//  #11 //025   ----------------------------------------
 BYTE   W96
//  #11 //026   ----------------------------------------
 BYTE   W96
//  #11 //027   ----------------------------------------
 BYTE   W96
//  #11 //028   ----------------------------------------
 BYTE   W96
//  #11 //029   ----------------------------------------
 BYTE   W96
//  #11 //030   ----------------------------------------
 BYTE   W96
//  #11 //031   ----------------------------------------
 BYTE   W96
//  #11 //032   ----------------------------------------
 BYTE   W96
//  #11 //033   ----------------------------------------
 BYTE   W96
//  #11 //034   ----------------------------------------
 BYTE   W96
//  #11 //035   ----------------------------------------
 BYTE   W96
//  #11 //036   ----------------------------------------
 BYTE   W96
//  #11 //037   ----------------------------------------
 BYTE   W96
//  #11 //038   ----------------------------------------
 BYTE   W96
//  #11 //039   ----------------------------------------
 BYTE   W96
//  #11 //040   ----------------------------------------
 BYTE   N06  Gs2  v091
 BYTE   N06  Ds2
 BYTE   W06
 BYTE   Gs2
 BYTE   N06  Ds3
 BYTE   W06
 BYTE   Gn2
 BYTE   N06  Dn3
 BYTE   W06
 BYTE   Ds3
 BYTE   N06  Gs2
 BYTE   W06
 BYTE   Cn3
 BYTE   N06  Fn3
 BYTE   W06
 BYTE   Ds3
 BYTE   N06  Gs2
 BYTE   W06
 BYTE   Dn3
 BYTE   N06  Gn2
 BYTE   W06
 BYTE   Ds3
 BYTE   N06  Gs2
 BYTE   W06
 BYTE   Ds3
 BYTE   N06  Gs3
 BYTE   W06
 BYTE   Gs2
 BYTE   N06  Ds3
 BYTE   W06
 BYTE   Dn3
 BYTE   N06  Gn2
 BYTE   W06
 BYTE   Ds3
 BYTE   N06  Gs2
 BYTE   W06
 BYTE   Dn3
 BYTE   N06  Gn2
 BYTE   W06
 BYTE   Cn3
 BYTE   N06  Fn2
 BYTE   W06
 BYTE   Bn2
 BYTE   N06  Ds2
 BYTE   W06
 BYTE   Fn2
 BYTE   N06  Cn3
 BYTE   W06
//  #11 //041   ----------------------------------------
 BYTE   As2
 BYTE   N06  Fn2
 BYTE   W06
 BYTE   Fn3
 BYTE   N06  As2
 BYTE   W06
 BYTE   En3
 BYTE   N06  An2
 BYTE   W06
 BYTE   As2
 BYTE   N06  Fn3
 BYTE   W06
 BYTE   Gn3
 BYTE   N06  Dn3
 BYTE   W06
 BYTE   As2
 BYTE   N06  Fn3
 BYTE   W06
 BYTE   En3
 BYTE   N06  An2
 BYTE   W06
 BYTE   Fn3
 BYTE   N06  As2
 BYTE   W06
 BYTE   As3
 BYTE   N06  Fn3
 BYTE   W06
 BYTE   As2
 BYTE   N06  Fn3
 BYTE   W06
 BYTE   En3
 BYTE   N06  An2
 BYTE   W06
 BYTE   Fn3
 BYTE   N06  As2
 BYTE   W06
 BYTE   Ds3
 BYTE   N06  As2
 BYTE   W06
 BYTE   Dn3
 BYTE   N06  Gs2
 BYTE   W06
 BYTE   Gn2
 BYTE   N06  Cn3
 BYTE   W06
 BYTE   Gs2
 BYTE   N06  Dn3
 BYTE   W06
//  #11 //042   ----------------------------------------
 BYTE   W06
 BYTE   Gn2
 BYTE   N06  Cn3
 BYTE   W06
 BYTE   Dn3
 BYTE   N06  An2
 BYTE   W06
 BYTE   As2
 BYTE   N06  Ds3
 BYTE   W06
 BYTE   N12  Cn3
 BYTE   N12  Fn3
 BYTE   W12
 BYTE   N06  Ds3
 BYTE   N06  As2
 BYTE   W06
 BYTE   Dn3
 BYTE   N06  An2
 BYTE   W06
 BYTE   Ds3
 BYTE   N06  Gn2
 BYTE   W06
 BYTE   Gs3
 BYTE   N06  An2
 BYTE   W06
 BYTE   Gn3
 BYTE   N06  As2
 BYTE   W06
 BYTE   Fn3
 BYTE   N06  Gn2
 BYTE   W06
 BYTE   Ds3
 BYTE   N06  An2
 BYTE   W06
 BYTE   Dn3
 BYTE   N06  Gn2
 BYTE   W06
 BYTE   Fs2
 BYTE   N06  Cn3
 BYTE   W06
 BYTE   Dn3
 BYTE   N06  An2
 BYTE   W06
//  #11 //043   ----------------------------------------
 BYTE   Cn3
 BYTE   N06  Gn2
 BYTE   W06
 BYTE   Dn3
 BYTE   N06  An2
 BYTE   W06
 BYTE   En3
 BYTE   N06  As2
 BYTE   W06
 BYTE   Cn3
 BYTE   N06  Gn2
 BYTE   W06
 BYTE   An2
 BYTE   N06  Dn3
 BYTE   W06
 BYTE   Gn2
 BYTE   N06  Cn3
 BYTE   W06
 BYTE   Bn2
 BYTE   N06  Fs2
 BYTE   W06
 BYTE   An2
 BYTE   N06  Dn3
 BYTE   W06
 BYTE   Cn3
 BYTE   N06  Gn2
 BYTE   W06
 BYTE   Dn2
 BYTE   N06  Gn2
 BYTE   W06
 BYTE   Gn2
 BYTE   N06  Cn3
 BYTE   W06
 BYTE   An2
 BYTE   N06  Dn3
 BYTE   W06
 BYTE   As2
 BYTE   N06  En3
 BYTE   W06
 BYTE   An2
 BYTE   N06  Dn3
 BYTE   W06
 BYTE   Cn3
 BYTE   N06  Gn2
 BYTE   W06
 BYTE   En3
 BYTE   N06  As2
 BYTE   W06
//  #11 //044   ----------------------------------------
 BYTE   Gs2
 BYTE   N06  Ds2
 BYTE   W06
 BYTE   Gs2
 BYTE   N06  Ds3
 BYTE   W06
 BYTE   Gn2
 BYTE   N06  Dn3
 BYTE   W06
 BYTE   Ds3
 BYTE   N06  Gs2
 BYTE   W06
 BYTE   Fn3
 BYTE   N06  Cn3
 BYTE   W06
 BYTE   Ds3
 BYTE   N06  Gs2
 BYTE   W06
 BYTE   Dn3
 BYTE   N06  Gn2
 BYTE   W06
 BYTE   Gs2
 BYTE   N06  Ds3
 BYTE   W06
 BYTE   Gs3
 BYTE   N06  Ds3
 BYTE   W06
 BYTE   Gs2
 BYTE   N06  Ds3
 BYTE   W06
 BYTE   Dn3
 BYTE   N06  Gn2
 BYTE   W06
 BYTE   Ds3
 BYTE   N06  Gs2
 BYTE   W06
 BYTE   Dn3
 BYTE   N06  Gn2
 BYTE   W06
 BYTE   Cn3
 BYTE   N06  Fn2
 BYTE   W06
 BYTE   Bn2
 BYTE   N06  Ds2
 BYTE   W06
 BYTE   Cn3
 BYTE   N06  Fn2
 BYTE   W06
//  #11 //045   ----------------------------------------
 BYTE   Fn2
 BYTE   N06  As2
 BYTE   W06
 BYTE   As2
 BYTE   N06  Fn3
 BYTE   W06
 BYTE   An2
 BYTE   N06  En3
 BYTE   W06
 BYTE   Fn3
 BYTE   N06  As2
 BYTE   W06
 BYTE   Dn3
 BYTE   N06  Gn3
 BYTE   W06
 BYTE   Fn3
 BYTE   N06  As2
 BYTE   W06
 BYTE   En3
 BYTE   N06  An2
 BYTE   W06
 BYTE   As2
 BYTE   N06  Fn3
 BYTE   W06
 BYTE   Fn3
 BYTE   N06  As3
 BYTE   W06
 BYTE   As2
 BYTE   N06  Fn3
 BYTE   W06
 BYTE   An2
 BYTE   N06  En3
 BYTE   W06
 BYTE   Fn3
 BYTE   N06  As2
 BYTE   W06
 BYTE   As2
 BYTE   N06  Ds3
 BYTE   W06
 BYTE   Dn3
 BYTE   N06  Gs2
 BYTE   W06
 BYTE   Gn2
 BYTE   N06  Cn3
 BYTE   W06
 BYTE   Dn3
 BYTE   N06  Gs2
 BYTE   W06
//  #11 //046   ----------------------------------------
 BYTE   W06
 BYTE   Cn3
 BYTE   N06  En3
 BYTE   W06
 BYTE   Fn3
 BYTE   N06  Dn3
 BYTE   W06
 BYTE   Gn3
 BYTE   N06  En3
 BYTE   W06
 BYTE   N12  Fn3
 BYTE   N12  Gs3
 BYTE   W12
 BYTE   N06  En3
 BYTE   N06  Gn3
 BYTE   W06
 BYTE   Fn3
 BYTE   N06  Dn3
 BYTE   W06
 BYTE   Gn3
 BYTE   N06  En3
 BYTE   W06
 BYTE   Gs3
 BYTE   N06  Cn4
 BYTE   W06
 BYTE   Gn3
 BYTE   N06  As3
 BYTE   W06
 BYTE   Gs3
 BYTE   N06  Fn3
 BYTE   W06
 BYTE   En3
 BYTE   N06  Gn3
 BYTE   W06
 BYTE   Dn3
 BYTE   N06  Fn3
 BYTE   W06
 BYTE   En3
 BYTE   N06  Cn3
 BYTE   W06
 BYTE   Fn3
 BYTE   N06  Dn3
 BYTE   W06
//  #11 //047   ----------------------------------------
 BYTE   Cn3
 BYTE   N06  En3
 BYTE   W06
 BYTE   Fn3
 BYTE   N06  Dn3
 BYTE   W06
 BYTE   Gn3
 BYTE   N06  En3
 BYTE   W06
 BYTE   En3
 BYTE   N06  Cn3
 BYTE   W06
 BYTE   Fn3
 BYTE   N06  Dn3
 BYTE   W06
 BYTE   Cn3
 BYTE   N06  En3
 BYTE   W06
 BYTE   Bn2
 BYTE   N06  Dn3
 BYTE   W06
 BYTE   Fn3
 BYTE   N06  Dn3
 BYTE   W06
 BYTE   En3
 BYTE   N06  Cn3
 BYTE   W06
 BYTE   Gn2
 BYTE   N06  Cn3
 BYTE   W06
 BYTE   Cn3
 BYTE   N06  En3
 BYTE   W06
 BYTE   Dn3
 BYTE   N06  Fn3
 BYTE   W06
 BYTE   Gn3
 BYTE   N06  En3
 BYTE   W06
 BYTE   Fn3
 BYTE   N06  Dn3
 BYTE   W06
 BYTE   Cn3
 BYTE   N06  En3
 BYTE   W06
 BYTE   Gn3
 BYTE   N06  En3
 BYTE   W06
//  #11 //048   ----------------------------------------
 BYTE   GoTo
  POIN2 Label_01025E38
 BYTE   FINE

//******************************************************//
	ALIGN 4

TouhouALiveMetalmaniaTak:
	BYTE	11	// NumTrks
	BYTE	0	// NumBlks
	BYTE	TouhouALiveMetalmaniaTak_pri	// Priority
	BYTE	TouhouALiveMetalmaniaTak_rev	// Reverb.
    
	POIN2	TouhouALiveMetalmaniaTak_grp
    
	POIN2	TouhouALiveMetalmaniaTak_001
	POIN2	TouhouALiveMetalmaniaTak_002
	POIN2	TouhouALiveMetalmaniaTak_003
	POIN2	TouhouALiveMetalmaniaTak_004
	POIN2	TouhouALiveMetalmaniaTak_005
	POIN2	TouhouALiveMetalmaniaTak_006
	POIN2	TouhouALiveMetalmaniaTak_007
	POIN2	TouhouALiveMetalmaniaTak_008
	POIN2	TouhouALiveMetalmaniaTak_009
	POIN2	TouhouALiveMetalmaniaTak_010
	POIN2	TouhouALiveMetalmaniaTak_011

	
