//Event file generated from Sappy .s format.
	#include "MPlayDef.event"

	#define	Touhou8LoveColoredMasterSparkBigMood_grp  voicegroup000
	#define	Touhou8LoveColoredMasterSparkBigMood_pri  0
	#define	Touhou8LoveColoredMasterSparkBigMood_rev  0
	#define	Touhou8LoveColoredMasterSparkBigMood_mvl  127
	#define	Touhou8LoveColoredMasterSparkBigMood_key  0
	#define	Touhou8LoveColoredMasterSparkBigMood_tbs  1
	#define	Touhou8LoveColoredMasterSparkBigMood_exg  0
	#define	Touhou8LoveColoredMasterSparkBigMood_cmp  1

	// .rodata
	//	Touhou8LoveColoredMasterSparkBigMood
	ALIGN 4


//**************** Track 1 (Midi-Chn.0) ****************//

Touhou8LoveColoredMasterSparkBigMood_001:
// 000   ----------------------------------------
 BYTE   KEYSH   Touhou8LoveColoredMasterSparkBigMood_key+0
Label_0_0161C07E:
 BYTE   TEMPO   168*Touhou8LoveColoredMasterSparkBigMood_tbs/2
 BYTE   VOICE   63
 BYTE   MODT 0
 BYTE   CnM2
 BYTE   LFOS 0
 BYTE   Gs1
 BYTE   BENDR  2
 BYTE   VOL   47*Touhou8LoveColoredMasterSparkBigMood_mvl/mxv
 BYTE   PAN   c_v+0
 BYTE   N96  Gs3  v120
 BYTE   N96  Cn4  v112
 BYTE   W96
// 001   ----------------------------------------
Label_0_0161C093:
 BYTE   N24  Gs3  v112
 BYTE   N24  Cn4  v120
 BYTE   W24
 BYTE   Gs3
 BYTE   N24  Fn4  v112
 BYTE   W24
 BYTE   As3  v104
 BYTE   N24  Gn4  v112
 BYTE   W24
 BYTE   Cn4
 BYTE   N24  Gs4  v120
 BYTE   W24
 BYTE   PEND 
// 002   ----------------------------------------
 BYTE   N96  Gs3
 BYTE   W96
// 003   ----------------------------------------
Label_0_0161C0AE:
 BYTE   N24  Fn3  v112
 BYTE   N24  Cn4  v120
 BYTE   W24
 BYTE   N18  Gs3  v112
 BYTE   N24  Fn4
 BYTE   W18
 BYTE   N18  As3
 BYTE   W06
 BYTE   N24  Gn4
 BYTE   W12
 BYTE   N12  Gs3
 BYTE   W12
 BYTE   N18  Gn3
 BYTE   N24  Gs4  v120
 BYTE   W12
 BYTE   N12  Cs4  v112
 BYTE   W12
 BYTE   PEND 
// 004   ----------------------------------------
 BYTE   N96  Gs3  v120
 BYTE   N96  Cn4  v112
 BYTE   W96
// 005   ----------------------------------------
 BYTE   PATT
  POIN2 Label_0_0161C093
// 006   ----------------------------------------
 BYTE   N96  Gs3  v120
 BYTE   W96
// 007   ----------------------------------------
 BYTE   PATT
  POIN2 Label_0_0161C0AE
// 008   ----------------------------------------
 BYTE   N12  Fn3  v112
 BYTE   N12  Cn4
 BYTE   W12
 BYTE   Gn3  v100
 BYTE   N12  Ds4  v112
 BYTE   W12
 BYTE   Gs3
 BYTE   N12  Fn4
 BYTE   W24
 BYTE   Fn3
 BYTE   N12  Cn4  v104
 BYTE   W12
 BYTE   Gn3  v112
 BYTE   N12  Ds4
 BYTE   W12
 BYTE   Gs3  v108
 BYTE   N12  Fn4  v112
 BYTE   W24
// 009   ----------------------------------------
Label_0_0161C104:
 BYTE   N12  Gs3  v112
 BYTE   N12  Cn4
 BYTE   W12
 BYTE   As3
 BYTE   N12  Ds4
 BYTE   W12
 BYTE   Cn4
 BYTE   N12  Fn4
 BYTE   W12
 BYTE   N06  Gs3  v100
 BYTE   W12
 BYTE   N09  Cn4  v120
 BYTE   N09  Gs4
 BYTE   W12
 BYTE   N03  As3  v112
 BYTE   N03  Gn4  v120
 BYTE   W03
 BYTE   Cn4  v112
 BYTE   N03  Gs4
 BYTE   W03
 BYTE   N06  As3  v120
 BYTE   N06  Gn4  v112
 BYTE   W06
 BYTE   N12  Gs3
 BYTE   N12  Fn4
 BYTE   W12
 BYTE   Gn3
 BYTE   N12  Ds4
 BYTE   W12
 BYTE   PEND 
// 010   ----------------------------------------
 BYTE   Gn3  v104
 BYTE   N12  As3  v120
 BYTE   W12
 BYTE   Gs3
 BYTE   N12  Cn4
 BYTE   W12
 BYTE   As3  v112
 BYTE   N12  Ds4
 BYTE   W24
 BYTE   Gn3
 BYTE   N12  As3
 BYTE   W12
 BYTE   Gs3
 BYTE   N12  Cn4
 BYTE   W12
 BYTE   As3
 BYTE   N12  Ds4  v120
 BYTE   W24
// 011   ----------------------------------------
 BYTE   Gs3  v112
 BYTE   N12  Cn4
 BYTE   W12
 BYTE   As3  v104
 BYTE   N12  Ds4
 BYTE   W12
 BYTE   Cn4
 BYTE   N12  Fn4  v112
 BYTE   W12
 BYTE   N06  Gs3
 BYTE   W12
 BYTE   N09  Gs4
 BYTE   N09  Cn5  v120
 BYTE   W12
 BYTE   N03  Gn4  v112
 BYTE   N03  As4  v120
 BYTE   W03
 BYTE   Gs4  v104
 BYTE   N03  Cn5  v112
 BYTE   W03
 BYTE   N06  Gn4  v104
 BYTE   N06  As4  v112
 BYTE   W06
 BYTE   N12  Fn4  v104
 BYTE   N12  Gs4  v112
 BYTE   W12
 BYTE   Ds4
 BYTE   N12  Gn4  v120
 BYTE   W12
// 012   ----------------------------------------
 BYTE   Gs3  v124
 BYTE   N12  Cn4  v112
 BYTE   W12
 BYTE   As3
 BYTE   N12  Ds4
 BYTE   W12
 BYTE   Cn4  v120
 BYTE   N12  Fn4  v112
 BYTE   W24
 BYTE   Gs3  v120
 BYTE   N12  Cn4  v104
 BYTE   W12
 BYTE   As3  v112
 BYTE   N12  Ds4
 BYTE   W12
 BYTE   Cn4  v120
 BYTE   N12  Fn4  v112
 BYTE   W24
// 013   ----------------------------------------
 BYTE   PATT
  POIN2 Label_0_0161C104
// 014   ----------------------------------------
 BYTE   N12  Gn3  v112
 BYTE   N12  As3  v120
 BYTE   W12
 BYTE   Gs3  v092
 BYTE   N12  Cn4  v120
 BYTE   W12
 BYTE   Fn3
 BYTE   W24
 BYTE   Ds3  v112
 BYTE   N12  Gn3
 BYTE   W24
 BYTE   As2
 BYTE   N12  Ds3  v120
 BYTE   W24
// 015   ----------------------------------------
 BYTE   Cn3  v112
 BYTE   N12  Fn3  v120
 BYTE   W12
 BYTE   Gs2  v112
 BYTE   W12
 BYTE   Ds3
 BYTE   N12  Gn3  v127
 BYTE   W12
 BYTE   N06  As2  v112
 BYTE   N06  Cn3
 BYTE   W12
 BYTE   N15  Fn3
 BYTE   N15  Gs3  v120
 BYTE   W24
 BYTE   N12  Fn3  v112
 BYTE   N12  Gs3  v120
 BYTE   W12
 BYTE   Gn3  v096
 BYTE   N12  As3  v124
 BYTE   W12
// 016   ----------------------------------------
 BYTE   N72  Cn4  v120
 BYTE   W72
 BYTE   N12  As3  v104
 BYTE   W12
 BYTE   Ds4  v112
 BYTE   W12
// 017   ----------------------------------------
 BYTE   N60  Fn4  v120
 BYTE   W60
 BYTE   N12  Cn4  v112
 BYTE   W12
 BYTE   Gn4  v120
 BYTE   W12
 BYTE   Gs4  v112
 BYTE   W12
// 018   ----------------------------------------
 BYTE   N48  Gn4  v120
 BYTE   W48
 BYTE   N24  Ds4  v104
 BYTE   W24
 BYTE   Fn4  v112
 BYTE   W24
// 019   ----------------------------------------
 BYTE   N60  Cn4  v120
 BYTE   W72
 BYTE   N12  Cn4  v112
 BYTE   W12
 BYTE   Ds4
 BYTE   W12
// 020   ----------------------------------------
 BYTE   N72  Fn4  v120
 BYTE   W72
 BYTE   N12  Cn4  v112
 BYTE   W12
 BYTE   Ds4
 BYTE   W12
// 021   ----------------------------------------
 BYTE   N60  Fn4
 BYTE   W60
 BYTE   N12  Cn4
 BYTE   W12
 BYTE   Gn4
 BYTE   W12
 BYTE   Gs4
 BYTE   W12
// 022   ----------------------------------------
 BYTE   N48  Gn4  v120
 BYTE   W48
 BYTE   N24  Gs4  v112
 BYTE   W24
 BYTE   As4  v120
 BYTE   W24
// 023   ----------------------------------------
 BYTE   N48  Cn5
 BYTE   W48
 BYTE   N12
 BYTE   W12
 BYTE   As4  v112
 BYTE   W12
 BYTE   Gs4
 BYTE   W12
 BYTE   Gn4
 BYTE   W12
// 024   ----------------------------------------
Label_0_0161C24C:
 BYTE   N12  An3  v112
 BYTE   N12  Fs4  v120
 BYTE   W12
 BYTE   Bn3
 BYTE   N12  Gs4
 BYTE   W12
 BYTE   Cs4
 BYTE   N12  An4
 BYTE   W24
 BYTE   Bn3
 BYTE   N12  Gs4
 BYTE   W12
 BYTE   An3  v112
 BYTE   N12  Fs4  v120
 BYTE   W12
 BYTE   Gs3  v112
 BYTE   N12  En4  v120
 BYTE   W12
 BYTE   N72  An3
 BYTE   N72  Fs4
 BYTE   W12
 BYTE   PEND 
// 025   ----------------------------------------
Label_0_0161C271:
 BYTE   W60
 BYTE   N12  An3  v120
 BYTE   N12  Cs4  v112
 BYTE   W12
 BYTE   An3  v120
 BYTE   N12  Fs4  v112
 BYTE   W12
 BYTE   An3  v120
 BYTE   N12  Cs4  v112
 BYTE   W12
 BYTE   PEND 
// 026   ----------------------------------------
Label_0_0161C286:
 BYTE   N12  An3  v112
 BYTE   N12  Fs4  v120
 BYTE   W12
 BYTE   Bn3
 BYTE   N12  Gs4
 BYTE   W12
 BYTE   Cs4
 BYTE   N12  An4
 BYTE   W24
 BYTE   Bn3
 BYTE   N12  Gs4
 BYTE   W12
 BYTE   An3  v112
 BYTE   N12  Fs4  v120
 BYTE   W12
 BYTE   Gs3  v112
 BYTE   N12  En4  v120
 BYTE   W12
 BYTE   N72  Fs4  v112
 BYTE   N72  Cs5  v120
 BYTE   W12
 BYTE   PEND 
// 027   ----------------------------------------
Label_0_0161C2AD:
 BYTE   W60
 BYTE   N12  Gs4  v112
 BYTE   N12  Bn4  v120
 BYTE   W12
 BYTE   Fs4  v112
 BYTE   N12  An4
 BYTE   W12
 BYTE   En4
 BYTE   N12  Gs4
 BYTE   W12
 BYTE   PEND 
// 028   ----------------------------------------
Label_0_0161C2BF:
 BYTE   N12  An3  v112
 BYTE   N12  Fs4  v120
 BYTE   W12
 BYTE   Bn3
 BYTE   N12  Gs4
 BYTE   W12
 BYTE   Cs4
 BYTE   N12  An4
 BYTE   W24
 BYTE   Bn3
 BYTE   N12  Gs4
 BYTE   W12
 BYTE   An3  v112
 BYTE   N12  Fs4  v120
 BYTE   W12
 BYTE   Gs3  v112
 BYTE   N12  En4  v120
 BYTE   W12
 BYTE   N24  An4
 BYTE   N24  Cs5
 BYTE   W12
 BYTE   PEND 
// 029   ----------------------------------------
Label_0_0161C2E4:
 BYTE   W12
 BYTE   N12  Gs4  v112
 BYTE   N12  Bn4
 BYTE   W12
 BYTE   Fs4
 BYTE   N12  An4
 BYTE   W12
 BYTE   Gs4
 BYTE   N12  Bn4  v120
 BYTE   W12
 BYTE   Fs4  v112
 BYTE   N12  An4
 BYTE   W12
 BYTE   En4
 BYTE   N12  Gs4
 BYTE   W12
 BYTE   Cs4  v104
 BYTE   N12  Fs4  v112
 BYTE   W12
 BYTE   Cs4  v120
 BYTE   N12  En4
 BYTE   W12
 BYTE   PEND 
// 030   ----------------------------------------
 BYTE   PATT
  POIN2 Label_0_0161C24C
// 031   ----------------------------------------
 BYTE   PATT
  POIN2 Label_0_0161C271
// 032   ----------------------------------------
 BYTE   PATT
  POIN2 Label_0_0161C286
// 033   ----------------------------------------
 BYTE   PATT
  POIN2 Label_0_0161C2AD
// 034   ----------------------------------------
 BYTE   PATT
  POIN2 Label_0_0161C2BF
// 035   ----------------------------------------
 BYTE   PATT
  POIN2 Label_0_0161C2E4
// 036   ----------------------------------------
 BYTE   N12  An3  v112
 BYTE   N12  Fs4  v120
 BYTE   W12
 BYTE   Bn3
 BYTE   N12  Gs4
 BYTE   W12
 BYTE   Cs4
 BYTE   N12  An4
 BYTE   W24
 BYTE   Bn3
 BYTE   N12  Gs4
 BYTE   W12
 BYTE   An3  v112
 BYTE   N12  Fs4  v120
 BYTE   W12
 BYTE   Gs3  v112
 BYTE   N12  En4  v120
 BYTE   W12
 BYTE   TIE  An3
 BYTE   TIE  Fs4
 BYTE   W12
// 037   ----------------------------------------
 BYTE   W96
// 038   ----------------------------------------
 BYTE   EOT
 BYTE   An3  v078
 BYTE   GoTo
  POIN2 Label_0_0161C07E
 BYTE   FINE

//**************** Track 2 (Midi-Chn.1) ****************//

Touhou8LoveColoredMasterSparkBigMood_002:
// 000   ----------------------------------------
 BYTE   KEYSH   Touhou8LoveColoredMasterSparkBigMood_key+0
Label_1_0163235E:
 BYTE   VOICE   39
 BYTE   MODT 0
 BYTE   CnM2
 BYTE   LFOS 0
 BYTE   Gs1
 BYTE   BENDR  2
 BYTE   VOL   54*Touhou8LoveColoredMasterSparkBigMood_mvl/mxv
 BYTE   PAN   c_v+16
 BYTE   N06  Fn2  v112
 BYTE   W06
 BYTE   Fn2  v120
 BYTE   W06
 BYTE   Gs2  v112
 BYTE   W06
 BYTE   Cn3
 BYTE   W06
 BYTE   Fn2  v108
 BYTE   W06
 BYTE   Gs2  v112
 BYTE   W06
 BYTE   Cn3  v104
 BYTE   W06
 BYTE   Fn3  v120
 BYTE   W06
 BYTE   Cn3  v112
 BYTE   W06
 BYTE   Gs2
 BYTE   W06
 BYTE   Fn2  v104
 BYTE   W06
 BYTE   Fn2  v112
 BYTE   W06
 BYTE   Cn3
 BYTE   W06
 BYTE   Gs2
 BYTE   W06
 BYTE   Fn2
 BYTE   W06
 BYTE   Cn3
 BYTE   W06
// 001   ----------------------------------------
Label_1_01632395:
 BYTE   N06  Cs2  v104
 BYTE   W06
 BYTE   Fn2  v112
 BYTE   W06
 BYTE   Gs2
 BYTE   W06
 BYTE   Cs2
 BYTE   W06
 BYTE   Fn2
 BYTE   W06
 BYTE   Gs2
 BYTE   W06
 BYTE   Cs2
 BYTE   W06
 BYTE   Gs2
 BYTE   W06
 BYTE   Ds2  v120
 BYTE   W06
 BYTE   Gn2  v112
 BYTE   W06
 BYTE   As2  v120
 BYTE   W06
 BYTE   Ds2
 BYTE   W06
 BYTE   Gn2  v112
 BYTE   W06
 BYTE   As2  v120
 BYTE   W06
 BYTE   Ds2  v112
 BYTE   W06
 BYTE   As2  v120
 BYTE   W06
 BYTE   PEND 
// 002   ----------------------------------------
Label_1_016323C0:
 BYTE   N06  Fn2  v112
 BYTE   W06
 BYTE   Fn2  v120
 BYTE   W06
 BYTE   Gs2  v112
 BYTE   W06
 BYTE   Cn3
 BYTE   W06
 BYTE   Fn2  v108
 BYTE   W06
 BYTE   Gs2  v112
 BYTE   W06
 BYTE   Cn3  v104
 BYTE   W06
 BYTE   Fn3  v120
 BYTE   W06
 BYTE   Cn3  v112
 BYTE   W06
 BYTE   Gs2
 BYTE   W06
 BYTE   Fn2  v104
 BYTE   W06
 BYTE   Fn2  v112
 BYTE   W06
 BYTE   Cn3
 BYTE   W06
 BYTE   Gs2
 BYTE   W06
 BYTE   Fn2
 BYTE   W06
 BYTE   Cn3
 BYTE   W06
 BYTE   PEND 
// 003   ----------------------------------------
 BYTE   PATT
  POIN2 Label_1_01632395
// 004   ----------------------------------------
 BYTE   PATT
  POIN2 Label_1_016323C0
// 005   ----------------------------------------
 BYTE   PATT
  POIN2 Label_1_01632395
// 006   ----------------------------------------
 BYTE   PATT
  POIN2 Label_1_016323C0
// 007   ----------------------------------------
 BYTE   PATT
  POIN2 Label_1_01632395
// 008   ----------------------------------------
Label_1_01632405:
 BYTE   N06  Fn2  v120
 BYTE   W06
 BYTE   Fn2  v112
 BYTE   W06
 BYTE   Cn3
 BYTE   W06
 BYTE   Cn3  v120
 BYTE   W06
 BYTE   Fn2  v112
 BYTE   W06
 BYTE   N06
 BYTE   W06
 BYTE   Cn3
 BYTE   W06
 BYTE   N06
 BYTE   W06
 BYTE   Fn2
 BYTE   W06
 BYTE   N06
 BYTE   W06
 BYTE   Cn3  v120
 BYTE   W06
 BYTE   Cn3  v112
 BYTE   W06
 BYTE   Fn2
 BYTE   W06
 BYTE   N06
 BYTE   W06
 BYTE   Cn3
 BYTE   W06
 BYTE   N06
 BYTE   W06
 BYTE   PEND 
// 009   ----------------------------------------
Label_1_0163242D:
 BYTE   N06  Cs2  v112
 BYTE   W06
 BYTE   N06
 BYTE   W06
 BYTE   Gs2
 BYTE   W06
 BYTE   Gs2  v120
 BYTE   W06
 BYTE   Cs2  v112
 BYTE   W06
 BYTE   N06
 BYTE   W06
 BYTE   Gs2  v120
 BYTE   W06
 BYTE   N06
 BYTE   W06
 BYTE   Cs2  v112
 BYTE   W06
 BYTE   Cs2  v100
 BYTE   W06
 BYTE   Gs2  v112
 BYTE   W06
 BYTE   N06
 BYTE   W06
 BYTE   Cs2
 BYTE   W06
 BYTE   N06
 BYTE   W06
 BYTE   Gs2
 BYTE   W06
 BYTE   N06
 BYTE   W06
 BYTE   PEND 
// 010   ----------------------------------------
Label_1_01632456:
 BYTE   N06  Ds2  v120
 BYTE   W06
 BYTE   Ds2  v112
 BYTE   W06
 BYTE   As2  v120
 BYTE   W06
 BYTE   N06
 BYTE   W06
 BYTE   Ds2
 BYTE   W06
 BYTE   N06
 BYTE   W06
 BYTE   As2  v112
 BYTE   W06
 BYTE   As2  v120
 BYTE   W06
 BYTE   Ds2
 BYTE   W06
 BYTE   Ds2  v112
 BYTE   W06
 BYTE   As2
 BYTE   W06
 BYTE   N06
 BYTE   W06
 BYTE   Ds2
 BYTE   W06
 BYTE   Ds2  v120
 BYTE   W06
 BYTE   As2  v112
 BYTE   W06
 BYTE   As2  v120
 BYTE   W06
 BYTE   PEND 
// 011   ----------------------------------------
Label_1_01632481:
 BYTE   N06  Fn2  v120
 BYTE   W06
 BYTE   N06
 BYTE   W06
 BYTE   Cn3
 BYTE   W06
 BYTE   Cn3  v112
 BYTE   W06
 BYTE   Fn2
 BYTE   W06
 BYTE   N06
 BYTE   W06
 BYTE   Cn3
 BYTE   W06
 BYTE   Cn3  v104
 BYTE   W06
 BYTE   Cn2  v112
 BYTE   W06
 BYTE   N06
 BYTE   W06
 BYTE   Fn2  v104
 BYTE   W06
 BYTE   Gs2  v096
 BYTE   W06
 BYTE   Ds2  v112
 BYTE   W06
 BYTE   Fn2
 BYTE   W06
 BYTE   Gn2
 BYTE   W06
 BYTE   As2  v104
 BYTE   W06
 BYTE   PEND 
// 012   ----------------------------------------
 BYTE   PATT
  POIN2 Label_1_01632405
// 013   ----------------------------------------
 BYTE   PATT
  POIN2 Label_1_0163242D
// 014   ----------------------------------------
 BYTE   PATT
  POIN2 Label_1_01632456
// 015   ----------------------------------------
 BYTE   PATT
  POIN2 Label_1_01632481
// 016   ----------------------------------------
 BYTE   N36  Fn2  v120
 BYTE   W36
 BYTE   N06  Cn3  v112
 BYTE   W06
 BYTE   N06
 BYTE   W06
 BYTE   Fn2
 BYTE   W06
 BYTE   N06
 BYTE   W06
 BYTE   Cn3  v120
 BYTE   W06
 BYTE   Cn3  v112
 BYTE   W06
 BYTE   N24  Fn2
 BYTE   W24
// 017   ----------------------------------------
 BYTE   N36  Cs2
 BYTE   W36
 BYTE   N06  Gs2  v120
 BYTE   W06
 BYTE   N06
 BYTE   W06
 BYTE   Cs2  v112
 BYTE   W06
 BYTE   Cs2  v100
 BYTE   W06
 BYTE   Gs2  v112
 BYTE   W06
 BYTE   N06
 BYTE   W06
 BYTE   N24  Cs2
 BYTE   W24
// 018   ----------------------------------------
 BYTE   N36  Ds2  v120
 BYTE   W36
 BYTE   N06  As2  v112
 BYTE   W06
 BYTE   As2  v120
 BYTE   W06
 BYTE   Ds2
 BYTE   W06
 BYTE   Ds2  v112
 BYTE   W06
 BYTE   As2
 BYTE   W06
 BYTE   N06
 BYTE   W06
 BYTE   Ds2
 BYTE   W06
 BYTE   Ds2  v120
 BYTE   W06
 BYTE   As2  v112
 BYTE   W06
 BYTE   As2  v120
 BYTE   W06
// 019   ----------------------------------------
 BYTE   PATT
  POIN2 Label_1_01632481
// 020   ----------------------------------------
 BYTE   PATT
  POIN2 Label_1_01632405
// 021   ----------------------------------------
 BYTE   PATT
  POIN2 Label_1_0163242D
// 022   ----------------------------------------
 BYTE   PATT
  POIN2 Label_1_01632456
// 023   ----------------------------------------
 BYTE   N06  En2  v100
 BYTE   W06
 BYTE   En2  v112
 BYTE   W06
 BYTE   As2
 BYTE   W06
 BYTE   As2  v120
 BYTE   W06
 BYTE   En2  v112
 BYTE   W06
 BYTE   N06
 BYTE   W06
 BYTE   As2  v120
 BYTE   W06
 BYTE   N06
 BYTE   W06
 BYTE   En2  v112
 BYTE   W06
 BYTE   Gn2
 BYTE   W06
 BYTE   Cn3  v120
 BYTE   W06
 BYTE   En3  v112
 BYTE   W06
 BYTE   Gn3
 BYTE   W06
 BYTE   En3  v120
 BYTE   W06
 BYTE   Cn3  v104
 BYTE   W06
 BYTE   Gn2  v120
 BYTE   W06
// 024   ----------------------------------------
Label_1_0163254C:
 BYTE   N06  Fs2  v112
 BYTE   W06
 BYTE   An2
 BYTE   W06
 BYTE   Cs3
 BYTE   W06
 BYTE   Fs3
 BYTE   W06
 BYTE   Cs3
 BYTE   W06
 BYTE   An2  v104
 BYTE   W06
 BYTE   Fs2  v112
 BYTE   W06
 BYTE   An2
 BYTE   W06
 BYTE   Cs3  v104
 BYTE   W06
 BYTE   Fs3  v112
 BYTE   W06
 BYTE   Cs3  v104
 BYTE   W06
 BYTE   An2  v112
 BYTE   W06
 BYTE   Fs2
 BYTE   W06
 BYTE   An2  v104
 BYTE   W06
 BYTE   Cs3  v100
 BYTE   W06
 BYTE   Fs3  v104
 BYTE   W06
 BYTE   PEND 
// 025   ----------------------------------------
Label_1_01632578:
 BYTE   N06  Cs3  v112
 BYTE   W06
 BYTE   An2
 BYTE   W06
 BYTE   Fs2
 BYTE   W06
 BYTE   Cs3  v104
 BYTE   W06
 BYTE   An2
 BYTE   W06
 BYTE   Fs3  v120
 BYTE   W06
 BYTE   Cs3  v096
 BYTE   W06
 BYTE   An3  v112
 BYTE   W06
 BYTE   Cs3  v100
 BYTE   W06
 BYTE   Gs3  v108
 BYTE   W06
 BYTE   Cs3  v112
 BYTE   W06
 BYTE   Fs3
 BYTE   W06
 BYTE   Cs3
 BYTE   W06
 BYTE   An2  v104
 BYTE   W06
 BYTE   Cs3  v112
 BYTE   W06
 BYTE   An2
 BYTE   W06
 BYTE   PEND 
// 026   ----------------------------------------
Label_1_016325A4:
 BYTE   N06  Dn2  v120
 BYTE   W06
 BYTE   Fs2  v112
 BYTE   W06
 BYTE   An2
 BYTE   W06
 BYTE   Dn3
 BYTE   W06
 BYTE   An2  v120
 BYTE   W06
 BYTE   Fs2
 BYTE   W06
 BYTE   Dn2  v112
 BYTE   W06
 BYTE   Fs2
 BYTE   W06
 BYTE   An2
 BYTE   W06
 BYTE   Dn3
 BYTE   W06
 BYTE   An2  v120
 BYTE   W06
 BYTE   Fs2  v112
 BYTE   W06
 BYTE   Dn2
 BYTE   W06
 BYTE   Fs2  v104
 BYTE   W06
 BYTE   An2  v112
 BYTE   W06
 BYTE   Dn3  v104
 BYTE   W06
 BYTE   PEND 
// 027   ----------------------------------------
Label_1_016325CF:
 BYTE   N06  Fs3  v104
 BYTE   W06
 BYTE   Dn3  v112
 BYTE   W06
 BYTE   An3
 BYTE   W06
 BYTE   Dn3
 BYTE   W06
 BYTE   Gs3
 BYTE   W06
 BYTE   Dn3
 BYTE   W06
 BYTE   Fs3
 BYTE   W06
 BYTE   Dn3
 BYTE   W06
 BYTE   An2
 BYTE   W06
 BYTE   Gs2  v092
 BYTE   W06
 BYTE   Fs2  v120
 BYTE   W06
 BYTE   An2
 BYTE   W06
 BYTE   En2  v112
 BYTE   W06
 BYTE   An2
 BYTE   W06
 BYTE   Dn2
 BYTE   W06
 BYTE   An2  v108
 BYTE   W06
 BYTE   PEND 
// 028   ----------------------------------------
Label_1_016325F7:
 BYTE   N06  En2  v120
 BYTE   W06
 BYTE   Gs2
 BYTE   W06
 BYTE   Bn2  v100
 BYTE   W06
 BYTE   En3  v112
 BYTE   W06
 BYTE   Bn2  v120
 BYTE   W06
 BYTE   Gs2
 BYTE   W06
 BYTE   En2
 BYTE   W06
 BYTE   Gs2  v104
 BYTE   W06
 BYTE   Bn2  v112
 BYTE   W06
 BYTE   En3
 BYTE   W06
 BYTE   Bn2
 BYTE   W06
 BYTE   Gs2  v120
 BYTE   W06
 BYTE   En2
 BYTE   W06
 BYTE   Gs2  v112
 BYTE   W06
 BYTE   Bn2
 BYTE   W06
 BYTE   En3  v120
 BYTE   W06
 BYTE   PEND 
// 029   ----------------------------------------
Label_1_01632622:
 BYTE   N06  Gs3  v120
 BYTE   W06
 BYTE   An3  v112
 BYTE   W06
 BYTE   Bn3  v104
 BYTE   W06
 BYTE   Gs3  v112
 BYTE   W06
 BYTE   En3
 BYTE   W06
 BYTE   Gs3
 BYTE   W06
 BYTE   En3
 BYTE   W06
 BYTE   Bn2  v120
 BYTE   W06
 BYTE   En3  v112
 BYTE   W06
 BYTE   Bn2
 BYTE   W06
 BYTE   Gs2  v104
 BYTE   W06
 BYTE   Bn2  v120
 BYTE   W06
 BYTE   En3
 BYTE   W06
 BYTE   Gs3  v112
 BYTE   W06
 BYTE   An3
 BYTE   W06
 BYTE   Bn3  v120
 BYTE   W06
 BYTE   PEND 
// 030   ----------------------------------------
 BYTE   PATT
  POIN2 Label_1_0163254C
// 031   ----------------------------------------
 BYTE   PATT
  POIN2 Label_1_01632578
// 032   ----------------------------------------
 BYTE   PATT
  POIN2 Label_1_016325A4
// 033   ----------------------------------------
 BYTE   PATT
  POIN2 Label_1_016325CF
// 034   ----------------------------------------
 BYTE   PATT
  POIN2 Label_1_016325F7
// 035   ----------------------------------------
 BYTE   PATT
  POIN2 Label_1_01632622
// 036   ----------------------------------------
 BYTE   N06  Dn2  v112
 BYTE   W06
 BYTE   Fs2
 BYTE   W06
 BYTE   N03  An2
 BYTE   W03
 BYTE   Dn3
 BYTE   W03
 BYTE   En3
 BYTE   W03
 BYTE   Fs3  v104
 BYTE   W03
 BYTE   An3  v112
 BYTE   W03
 BYTE   Dn4
 BYTE   W03
 BYTE   Fs4  v120
 BYTE   W03
 BYTE   An4
 BYTE   W15
 BYTE   N06  En2
 BYTE   W06
 BYTE   Gs2  v112
 BYTE   W06
 BYTE   N03  Bn2
 BYTE   W03
 BYTE   En3  v120
 BYTE   W03
 BYTE   Fs3  v112
 BYTE   W03
 BYTE   Gs3
 BYTE   W03
 BYTE   Bn3
 BYTE   W03
 BYTE   En4  v104
 BYTE   W03
 BYTE   Fs4  v112
 BYTE   W03
 BYTE   Gs4
 BYTE   W03
 BYTE   Bn4
 BYTE   W06
 BYTE   N06  Cs2  v104
 BYTE   W06
// 037   ----------------------------------------
 BYTE   Fs2  v112
 BYTE   W06
 BYTE   An2
 BYTE   W06
 BYTE   Cs3
 BYTE   W06
 BYTE   Fs3
 BYTE   W06
 BYTE   An3  v104
 BYTE   W06
 BYTE   Cs4
 BYTE   W06
 BYTE   Fs4  v096
 BYTE   W06
 BYTE   An4
 BYTE   W06
 BYTE   Cs5  v104
 BYTE   W06
 BYTE   An4  v112
 BYTE   W06
 BYTE   Fs4  v104
 BYTE   W06
 BYTE   Cs4
 BYTE   W06
 BYTE   An3  v112
 BYTE   W06
 BYTE   Fs3  v120
 BYTE   W06
 BYTE   Cs3  v092
 BYTE   W06
 BYTE   An2  v112
 BYTE   W06
// 038   ----------------------------------------
 BYTE   GoTo
  POIN2 Label_1_0163235E
 BYTE   FINE

//**************** Track 3 (Midi-Chn.2) ****************//

Touhou8LoveColoredMasterSparkBigMood_003:
// 000   ----------------------------------------
 BYTE   KEYSH   Touhou8LoveColoredMasterSparkBigMood_key+0
Label_2_01632812:
 BYTE   VOICE   28
 BYTE   MODT 0
 BYTE   CnM2
 BYTE   LFOS 0
 BYTE   Gs1
 BYTE   BENDR  2
 BYTE   VOL   47*Touhou8LoveColoredMasterSparkBigMood_mvl/mxv
 BYTE   PAN   c_v-18
 BYTE   N06  Fn2  v112
 BYTE   W06
 BYTE   Fn2  v120
 BYTE   W06
 BYTE   Gs2  v112
 BYTE   W06
 BYTE   Cn3
 BYTE   W06
 BYTE   Fn2  v108
 BYTE   W06
 BYTE   Gs2  v112
 BYTE   W06
 BYTE   Cn3  v104
 BYTE   W06
 BYTE   Fn3  v120
 BYTE   W06
 BYTE   Cn3  v112
 BYTE   W06
 BYTE   Gs2
 BYTE   W06
 BYTE   Fn2  v104
 BYTE   W06
 BYTE   Fn2  v112
 BYTE   W06
 BYTE   Cn3
 BYTE   W06
 BYTE   Gs2
 BYTE   W06
 BYTE   Fn2
 BYTE   W06
 BYTE   Cn3
 BYTE   W06
// 001   ----------------------------------------
Label_2_01632849:
 BYTE   N06  Cs2  v104
 BYTE   W06
 BYTE   Fn2  v112
 BYTE   W06
 BYTE   Gs2
 BYTE   W06
 BYTE   Cs2
 BYTE   W06
 BYTE   Fn2
 BYTE   W06
 BYTE   Gs2
 BYTE   W06
 BYTE   Cs2
 BYTE   W06
 BYTE   Gs2
 BYTE   W06
 BYTE   Ds2  v120
 BYTE   W06
 BYTE   Gn2  v112
 BYTE   W06
 BYTE   As2  v120
 BYTE   W06
 BYTE   Ds2
 BYTE   W06
 BYTE   Gn2  v112
 BYTE   W06
 BYTE   As2  v120
 BYTE   W06
 BYTE   Ds2  v112
 BYTE   W06
 BYTE   As2  v120
 BYTE   W06
 BYTE   PEND 
// 002   ----------------------------------------
Label_2_01632874:
 BYTE   N06  Fn2  v112
 BYTE   W06
 BYTE   Fn2  v120
 BYTE   W06
 BYTE   Gs2  v112
 BYTE   W06
 BYTE   Cn3
 BYTE   W06
 BYTE   Fn2  v108
 BYTE   W06
 BYTE   Gs2  v112
 BYTE   W06
 BYTE   Cn3  v104
 BYTE   W06
 BYTE   Fn3  v120
 BYTE   W06
 BYTE   Cn3  v112
 BYTE   W06
 BYTE   Gs2
 BYTE   W06
 BYTE   Fn2  v104
 BYTE   W06
 BYTE   Fn2  v112
 BYTE   W06
 BYTE   Cn3
 BYTE   W06
 BYTE   Gs2
 BYTE   W06
 BYTE   Fn2
 BYTE   W06
 BYTE   Cn3
 BYTE   W06
 BYTE   PEND 
// 003   ----------------------------------------
 BYTE   PATT
  POIN2 Label_2_01632849
// 004   ----------------------------------------
 BYTE   PATT
  POIN2 Label_2_01632874
// 005   ----------------------------------------
 BYTE   PATT
  POIN2 Label_2_01632849
// 006   ----------------------------------------
 BYTE   PATT
  POIN2 Label_2_01632874
// 007   ----------------------------------------
 BYTE   PATT
  POIN2 Label_2_01632849
// 008   ----------------------------------------
Label_2_016328B9:
 BYTE   N06  Fn2  v120
 BYTE   W06
 BYTE   Fn2  v112
 BYTE   W06
 BYTE   Cn3
 BYTE   W06
 BYTE   Cn3  v120
 BYTE   W06
 BYTE   Fn2  v112
 BYTE   W06
 BYTE   N06
 BYTE   W06
 BYTE   Cn3
 BYTE   W06
 BYTE   N06
 BYTE   W06
 BYTE   Fn2
 BYTE   W06
 BYTE   N06
 BYTE   W06
 BYTE   Cn3  v120
 BYTE   W06
 BYTE   Cn3  v112
 BYTE   W06
 BYTE   Fn2
 BYTE   W06
 BYTE   N06
 BYTE   W06
 BYTE   Cn3
 BYTE   W06
 BYTE   N06
 BYTE   W06
 BYTE   PEND 
// 009   ----------------------------------------
Label_2_016328E1:
 BYTE   N06  Cs2  v112
 BYTE   W06
 BYTE   N06
 BYTE   W06
 BYTE   Gs2
 BYTE   W06
 BYTE   Gs2  v120
 BYTE   W06
 BYTE   Cs2  v112
 BYTE   W06
 BYTE   N06
 BYTE   W06
 BYTE   Gs2  v120
 BYTE   W06
 BYTE   N06
 BYTE   W06
 BYTE   Cs2  v112
 BYTE   W06
 BYTE   Cs2  v100
 BYTE   W06
 BYTE   Gs2  v112
 BYTE   W06
 BYTE   N06
 BYTE   W06
 BYTE   Cs2
 BYTE   W06
 BYTE   N06
 BYTE   W06
 BYTE   Gs2
 BYTE   W06
 BYTE   N06
 BYTE   W06
 BYTE   PEND 
// 010   ----------------------------------------
Label_2_0163290A:
 BYTE   N06  Ds2  v120
 BYTE   W06
 BYTE   Ds2  v112
 BYTE   W06
 BYTE   As2  v120
 BYTE   W06
 BYTE   N06
 BYTE   W06
 BYTE   Ds2
 BYTE   W06
 BYTE   N06
 BYTE   W06
 BYTE   As2  v112
 BYTE   W06
 BYTE   As2  v120
 BYTE   W06
 BYTE   Ds2
 BYTE   W06
 BYTE   Ds2  v112
 BYTE   W06
 BYTE   As2
 BYTE   W06
 BYTE   N06
 BYTE   W06
 BYTE   Ds2
 BYTE   W06
 BYTE   Ds2  v120
 BYTE   W06
 BYTE   As2  v112
 BYTE   W06
 BYTE   As2  v120
 BYTE   W06
 BYTE   PEND 
// 011   ----------------------------------------
Label_2_01632935:
 BYTE   N06  Fn2  v120
 BYTE   W06
 BYTE   N06
 BYTE   W06
 BYTE   Cn3
 BYTE   W06
 BYTE   Cn3  v112
 BYTE   W06
 BYTE   Fn2
 BYTE   W06
 BYTE   N06
 BYTE   W06
 BYTE   Cn3
 BYTE   W06
 BYTE   Cn3  v104
 BYTE   W06
 BYTE   Cn2  v112
 BYTE   W06
 BYTE   N06
 BYTE   W06
 BYTE   Fn2  v104
 BYTE   W06
 BYTE   Gs2  v096
 BYTE   W06
 BYTE   Ds2  v112
 BYTE   W06
 BYTE   Fn2
 BYTE   W06
 BYTE   Gn2
 BYTE   W06
 BYTE   As2  v104
 BYTE   W06
 BYTE   PEND 
// 012   ----------------------------------------
 BYTE   PATT
  POIN2 Label_2_016328B9
// 013   ----------------------------------------
 BYTE   PATT
  POIN2 Label_2_016328E1
// 014   ----------------------------------------
 BYTE   PATT
  POIN2 Label_2_0163290A
// 015   ----------------------------------------
 BYTE   PATT
  POIN2 Label_2_01632935
// 016   ----------------------------------------
 BYTE   N36  Fn2  v120
 BYTE   W36
 BYTE   N06  Cn3  v112
 BYTE   W06
 BYTE   N06
 BYTE   W06
 BYTE   Fn2
 BYTE   W06
 BYTE   N06
 BYTE   W06
 BYTE   Cn3  v120
 BYTE   W06
 BYTE   Cn3  v112
 BYTE   W06
 BYTE   N24  Fn2
 BYTE   W24
// 017   ----------------------------------------
 BYTE   N36  Cs2
 BYTE   W36
 BYTE   N06  Gs2  v120
 BYTE   W06
 BYTE   N06
 BYTE   W06
 BYTE   Cs2  v112
 BYTE   W06
 BYTE   Cs2  v100
 BYTE   W06
 BYTE   Gs2  v112
 BYTE   W06
 BYTE   N06
 BYTE   W06
 BYTE   N24  Cs2
 BYTE   W24
// 018   ----------------------------------------
 BYTE   N36  Ds2  v120
 BYTE   W36
 BYTE   N06  As2  v112
 BYTE   W06
 BYTE   As2  v120
 BYTE   W06
 BYTE   Ds2
 BYTE   W06
 BYTE   Ds2  v112
 BYTE   W06
 BYTE   As2
 BYTE   W06
 BYTE   N06
 BYTE   W06
 BYTE   Ds2
 BYTE   W06
 BYTE   Ds2  v120
 BYTE   W06
 BYTE   As2  v112
 BYTE   W06
 BYTE   As2  v120
 BYTE   W06
// 019   ----------------------------------------
 BYTE   PATT
  POIN2 Label_2_01632935
// 020   ----------------------------------------
 BYTE   PATT
  POIN2 Label_2_016328B9
// 021   ----------------------------------------
 BYTE   PATT
  POIN2 Label_2_016328E1
// 022   ----------------------------------------
 BYTE   PATT
  POIN2 Label_2_0163290A
// 023   ----------------------------------------
 BYTE   N06  En2  v100
 BYTE   W06
 BYTE   En2  v112
 BYTE   W06
 BYTE   As2
 BYTE   W06
 BYTE   As2  v120
 BYTE   W06
 BYTE   En2  v112
 BYTE   W06
 BYTE   N06
 BYTE   W06
 BYTE   As2  v120
 BYTE   W06
 BYTE   N06
 BYTE   W06
 BYTE   En2  v112
 BYTE   W06
 BYTE   Gn2
 BYTE   W06
 BYTE   Cn3  v120
 BYTE   W06
 BYTE   En3  v112
 BYTE   W06
 BYTE   Gn3
 BYTE   W06
 BYTE   En3  v120
 BYTE   W06
 BYTE   Cn3  v104
 BYTE   W06
 BYTE   Gn2  v120
 BYTE   W06
// 024   ----------------------------------------
Label_2_01632A00:
 BYTE   N06  Fs2  v112
 BYTE   W06
 BYTE   An2
 BYTE   W06
 BYTE   Cs3
 BYTE   W06
 BYTE   Fs3
 BYTE   W06
 BYTE   Cs3
 BYTE   W06
 BYTE   An2  v104
 BYTE   W06
 BYTE   Fs2  v112
 BYTE   W06
 BYTE   An2
 BYTE   W06
 BYTE   Cs3  v104
 BYTE   W06
 BYTE   Fs3  v112
 BYTE   W06
 BYTE   Cs3  v104
 BYTE   W06
 BYTE   An2  v112
 BYTE   W06
 BYTE   Fs2
 BYTE   W06
 BYTE   An2  v104
 BYTE   W06
 BYTE   Cs3  v100
 BYTE   W06
 BYTE   Fs3  v104
 BYTE   W06
 BYTE   PEND 
// 025   ----------------------------------------
Label_2_01632A2C:
 BYTE   N06  Cs3  v112
 BYTE   W06
 BYTE   An2
 BYTE   W06
 BYTE   Fs2
 BYTE   W06
 BYTE   Cs3  v104
 BYTE   W06
 BYTE   An2
 BYTE   W06
 BYTE   Fs3  v120
 BYTE   W06
 BYTE   Cs3  v096
 BYTE   W06
 BYTE   An3  v112
 BYTE   W06
 BYTE   Cs3  v100
 BYTE   W06
 BYTE   Gs3  v108
 BYTE   W06
 BYTE   Cs3  v112
 BYTE   W06
 BYTE   Fs3
 BYTE   W06
 BYTE   Cs3
 BYTE   W06
 BYTE   An2  v104
 BYTE   W06
 BYTE   Cs3  v112
 BYTE   W06
 BYTE   An2
 BYTE   W06
 BYTE   PEND 
// 026   ----------------------------------------
Label_2_01632A58:
 BYTE   N06  Dn2  v120
 BYTE   W06
 BYTE   Fs2  v112
 BYTE   W06
 BYTE   An2
 BYTE   W06
 BYTE   Dn3
 BYTE   W06
 BYTE   An2  v120
 BYTE   W06
 BYTE   Fs2
 BYTE   W06
 BYTE   Dn2  v112
 BYTE   W06
 BYTE   Fs2
 BYTE   W06
 BYTE   An2
 BYTE   W06
 BYTE   Dn3
 BYTE   W06
 BYTE   An2  v120
 BYTE   W06
 BYTE   Fs2  v112
 BYTE   W06
 BYTE   Dn2
 BYTE   W06
 BYTE   Fs2  v104
 BYTE   W06
 BYTE   An2  v112
 BYTE   W06
 BYTE   Dn3  v104
 BYTE   W06
 BYTE   PEND 
// 027   ----------------------------------------
Label_2_01632A83:
 BYTE   N06  Fs3  v104
 BYTE   W06
 BYTE   Dn3  v112
 BYTE   W06
 BYTE   An3
 BYTE   W06
 BYTE   Dn3
 BYTE   W06
 BYTE   Gs3
 BYTE   W06
 BYTE   Dn3
 BYTE   W06
 BYTE   Fs3
 BYTE   W06
 BYTE   Dn3
 BYTE   W06
 BYTE   An2
 BYTE   W06
 BYTE   Gs2  v092
 BYTE   W06
 BYTE   Fs2  v120
 BYTE   W06
 BYTE   An2
 BYTE   W06
 BYTE   En2  v112
 BYTE   W06
 BYTE   An2
 BYTE   W06
 BYTE   Dn2
 BYTE   W06
 BYTE   An2  v108
 BYTE   W06
 BYTE   PEND 
// 028   ----------------------------------------
Label_2_01632AAB:
 BYTE   N06  En2  v120
 BYTE   W06
 BYTE   Gs2
 BYTE   W06
 BYTE   Bn2  v100
 BYTE   W06
 BYTE   En3  v112
 BYTE   W06
 BYTE   Bn2  v120
 BYTE   W06
 BYTE   Gs2
 BYTE   W06
 BYTE   En2
 BYTE   W06
 BYTE   Gs2  v104
 BYTE   W06
 BYTE   Bn2  v112
 BYTE   W06
 BYTE   En3
 BYTE   W06
 BYTE   Bn2
 BYTE   W06
 BYTE   Gs2  v120
 BYTE   W06
 BYTE   En2
 BYTE   W06
 BYTE   Gs2  v112
 BYTE   W06
 BYTE   Bn2
 BYTE   W06
 BYTE   En3  v120
 BYTE   W06
 BYTE   PEND 
// 029   ----------------------------------------
Label_2_01632AD6:
 BYTE   N06  Gs3  v120
 BYTE   W06
 BYTE   An3  v112
 BYTE   W06
 BYTE   Bn3  v104
 BYTE   W06
 BYTE   Gs3  v112
 BYTE   W06
 BYTE   En3
 BYTE   W06
 BYTE   Gs3
 BYTE   W06
 BYTE   En3
 BYTE   W06
 BYTE   Bn2  v120
 BYTE   W06
 BYTE   En3  v112
 BYTE   W06
 BYTE   Bn2
 BYTE   W06
 BYTE   Gs2  v104
 BYTE   W06
 BYTE   Bn2  v120
 BYTE   W06
 BYTE   En3
 BYTE   W06
 BYTE   Gs3  v112
 BYTE   W06
 BYTE   An3
 BYTE   W06
 BYTE   Bn3  v120
 BYTE   W06
 BYTE   PEND 
// 030   ----------------------------------------
 BYTE   PATT
  POIN2 Label_2_01632A00
// 031   ----------------------------------------
 BYTE   PATT
  POIN2 Label_2_01632A2C
// 032   ----------------------------------------
 BYTE   PATT
  POIN2 Label_2_01632A58
// 033   ----------------------------------------
 BYTE   PATT
  POIN2 Label_2_01632A83
// 034   ----------------------------------------
 BYTE   PATT
  POIN2 Label_2_01632AAB
// 035   ----------------------------------------
 BYTE   PATT
  POIN2 Label_2_01632AD6
// 036   ----------------------------------------
 BYTE   N06  Dn2  v112
 BYTE   W06
 BYTE   Fs2
 BYTE   W06
 BYTE   N03  An2
 BYTE   W03
 BYTE   Dn3
 BYTE   W03
 BYTE   En3
 BYTE   W03
 BYTE   Fs3  v104
 BYTE   W03
 BYTE   An3  v112
 BYTE   W03
 BYTE   Dn4
 BYTE   W03
 BYTE   Fs4  v120
 BYTE   W03
 BYTE   An4
 BYTE   W15
 BYTE   N06  En2
 BYTE   W06
 BYTE   Gs2  v112
 BYTE   W06
 BYTE   N03  Bn2
 BYTE   W03
 BYTE   En3  v120
 BYTE   W03
 BYTE   Fs3  v112
 BYTE   W03
 BYTE   Gs3
 BYTE   W03
 BYTE   Bn3
 BYTE   W03
 BYTE   En4  v104
 BYTE   W03
 BYTE   Fs4  v112
 BYTE   W03
 BYTE   Gs4
 BYTE   W03
 BYTE   Bn4
 BYTE   W06
 BYTE   N06  Cs2  v104
 BYTE   W06
// 037   ----------------------------------------
 BYTE   Fs2  v112
 BYTE   W06
 BYTE   An2
 BYTE   W06
 BYTE   Cs3
 BYTE   W06
 BYTE   Fs3
 BYTE   W06
 BYTE   An3  v104
 BYTE   W06
 BYTE   Cs4
 BYTE   W06
 BYTE   Fs4  v096
 BYTE   W06
 BYTE   An4
 BYTE   W06
 BYTE   Cs5  v104
 BYTE   W06
 BYTE   An4  v112
 BYTE   W06
 BYTE   Fs4  v104
 BYTE   W06
 BYTE   Cs4
 BYTE   W06
 BYTE   An3  v112
 BYTE   W06
 BYTE   Fs3  v120
 BYTE   W06
 BYTE   Cs3  v092
 BYTE   W06
 BYTE   An2  v112
 BYTE   W06
// 038   ----------------------------------------
 BYTE   GoTo
  POIN2 Label_2_01632812
 BYTE   FINE

//**************** Track 4 (Midi-Chn.3) ****************//

Touhou8LoveColoredMasterSparkBigMood_004:
// 000   ----------------------------------------
 BYTE   KEYSH   Touhou8LoveColoredMasterSparkBigMood_key+0
Label_3_0161B6EE:
 BYTE   VOICE   45
 BYTE   MODT 0
 BYTE   CnM2
 BYTE   LFOS 0
 BYTE   Gs1
 BYTE   BENDR  2
 BYTE   VOL   51*Touhou8LoveColoredMasterSparkBigMood_mvl/mxv
 BYTE   PAN   c_v+0
 BYTE   W96
// 001   ----------------------------------------
 BYTE   W96
// 002   ----------------------------------------
 BYTE   W96
// 003   ----------------------------------------
 BYTE   W96
// 004   ----------------------------------------
 BYTE   N96  Cn4  v112
 BYTE   W96
// 005   ----------------------------------------
Label_3_0161B702:
 BYTE   N24  Cn4  v120
 BYTE   W24
 BYTE   Fn4  v112
 BYTE   W24
 BYTE   Gn4
 BYTE   W24
 BYTE   Gs4  v120
 BYTE   W24
 BYTE   PEND 
// 006   ----------------------------------------
 BYTE   N96  Cn4  v112
 BYTE   W96
// 007   ----------------------------------------
 BYTE   PATT
  POIN2 Label_3_0161B702
// 008   ----------------------------------------
Label_3_0161B718:
 BYTE   N12  Cn3  v112
 BYTE   W12
 BYTE   Ds3
 BYTE   W12
 BYTE   Fn3
 BYTE   W24
 BYTE   Cn3  v104
 BYTE   W12
 BYTE   Ds3  v112
 BYTE   W12
 BYTE   Fn3
 BYTE   W24
 BYTE   PEND 
// 009   ----------------------------------------
Label_3_0161B729:
 BYTE   N12  Cn3  v112
 BYTE   W12
 BYTE   Ds3
 BYTE   W12
 BYTE   Fn3
 BYTE   W12
 BYTE   N06  Cn3
 BYTE   W12
 BYTE   N09  Gs3  v120
 BYTE   W12
 BYTE   N03  Gn3
 BYTE   W03
 BYTE   Gs3  v112
 BYTE   W03
 BYTE   N06  Gn3
 BYTE   W06
 BYTE   N12  Fn3
 BYTE   W12
 BYTE   Ds3
 BYTE   W12
 BYTE   PEND 
// 010   ----------------------------------------
 BYTE   As2  v120
 BYTE   W12
 BYTE   Cn3
 BYTE   W12
 BYTE   Ds3  v112
 BYTE   W24
 BYTE   As2
 BYTE   W12
 BYTE   Cn3
 BYTE   W12
 BYTE   Ds3  v120
 BYTE   W24
// 011   ----------------------------------------
 BYTE   Cn3  v112
 BYTE   W12
 BYTE   Ds3  v104
 BYTE   W12
 BYTE   Fn3  v112
 BYTE   W12
 BYTE   N06  Cn3  v120
 BYTE   W12
 BYTE   N09  Cn4
 BYTE   W12
 BYTE   N03  As3
 BYTE   W03
 BYTE   Cn4  v112
 BYTE   W03
 BYTE   N06  As3
 BYTE   W06
 BYTE   N12  Gs3
 BYTE   W12
 BYTE   Gn3  v120
 BYTE   W12
// 012   ----------------------------------------
 BYTE   PATT
  POIN2 Label_3_0161B718
// 013   ----------------------------------------
 BYTE   PATT
  POIN2 Label_3_0161B729
// 014   ----------------------------------------
 BYTE   N12  As2  v120
 BYTE   W12
 BYTE   Cn3
 BYTE   W12
 BYTE   Gs2
 BYTE   W24
 BYTE   Gn2  v112
 BYTE   W24
 BYTE   Ds2  v120
 BYTE   W24
// 015   ----------------------------------------
 BYTE   Fn2
 BYTE   W12
 BYTE   Cn2  v112
 BYTE   W12
 BYTE   Gn2  v127
 BYTE   W12
 BYTE   N06  Cn2  v112
 BYTE   W12
 BYTE   N15  Gs2  v120
 BYTE   W24
 BYTE   N12
 BYTE   W12
 BYTE   As2  v124
 BYTE   W12
// 016   ----------------------------------------
 BYTE   N72  Cn3  v120
 BYTE   W72
 BYTE   N12  As2  v104
 BYTE   W12
 BYTE   Ds3  v112
 BYTE   W12
// 017   ----------------------------------------
 BYTE   N60  Fn3  v120
 BYTE   W60
 BYTE   N12  Cn3  v112
 BYTE   W12
 BYTE   Gn3  v120
 BYTE   W12
 BYTE   Gs3  v112
 BYTE   W12
// 018   ----------------------------------------
 BYTE   N48  Gn3  v120
 BYTE   W48
 BYTE   N24  Ds3  v104
 BYTE   W24
 BYTE   Fn3  v112
 BYTE   W24
// 019   ----------------------------------------
 BYTE   N60  Cn3  v120
 BYTE   W72
 BYTE   N12  Cn3  v112
 BYTE   W12
 BYTE   Ds3
 BYTE   W12
// 020   ----------------------------------------
 BYTE   N72  Fn3  v120
 BYTE   W72
 BYTE   N12  Cn3  v112
 BYTE   W12
 BYTE   Ds3
 BYTE   W12
// 021   ----------------------------------------
 BYTE   N60  Fn3
 BYTE   W60
 BYTE   N12  Cn3
 BYTE   W12
 BYTE   Gn3
 BYTE   W12
 BYTE   Gs3
 BYTE   W12
// 022   ----------------------------------------
 BYTE   N48  Gn3  v120
 BYTE   W48
 BYTE   N24  Gs3  v112
 BYTE   W24
 BYTE   As3  v120
 BYTE   W24
// 023   ----------------------------------------
 BYTE   N48  Cn4
 BYTE   W48
 BYTE   N12
 BYTE   W12
 BYTE   As3  v112
 BYTE   W12
 BYTE   Gs3
 BYTE   W12
 BYTE   Gn3
 BYTE   W12
// 024   ----------------------------------------
Label_3_0161B7FB:
 BYTE   N12  An3  v112
 BYTE   N12  Fs4  v120
 BYTE   W12
 BYTE   Bn3
 BYTE   N12  Gs4
 BYTE   W12
 BYTE   Cs4
 BYTE   N12  An4
 BYTE   W24
 BYTE   Bn3
 BYTE   N12  Gs4
 BYTE   W12
 BYTE   An3  v112
 BYTE   N12  Fs4  v120
 BYTE   W12
 BYTE   Gs3  v112
 BYTE   N12  En4  v120
 BYTE   W12
 BYTE   N72  An3
 BYTE   N72  Fs4
 BYTE   W12
 BYTE   PEND 
// 025   ----------------------------------------
Label_3_0161B820:
 BYTE   W60
 BYTE   N12  An3  v120
 BYTE   N12  Cs4  v112
 BYTE   W12
 BYTE   An3  v120
 BYTE   N12  Fs4  v112
 BYTE   W12
 BYTE   An3  v120
 BYTE   N12  Cs4  v112
 BYTE   W12
 BYTE   PEND 
// 026   ----------------------------------------
Label_3_0161B835:
 BYTE   N12  An3  v112
 BYTE   N12  Fs4  v120
 BYTE   W12
 BYTE   Bn3
 BYTE   N12  Gs4
 BYTE   W12
 BYTE   Cs4
 BYTE   N12  An4
 BYTE   W24
 BYTE   Bn3
 BYTE   N12  Gs4
 BYTE   W12
 BYTE   An3  v112
 BYTE   N12  Fs4  v120
 BYTE   W12
 BYTE   Gs3  v112
 BYTE   N12  En4  v120
 BYTE   W12
 BYTE   N72  Fs4  v112
 BYTE   N72  Cs5  v120
 BYTE   W12
 BYTE   PEND 
// 027   ----------------------------------------
Label_3_0161B85C:
 BYTE   W60
 BYTE   N12  Gs4  v112
 BYTE   N12  Bn4  v120
 BYTE   W12
 BYTE   Fs4  v112
 BYTE   N12  An4
 BYTE   W12
 BYTE   En4
 BYTE   N12  Gs4
 BYTE   W12
 BYTE   PEND 
// 028   ----------------------------------------
Label_3_0161B86E:
 BYTE   N12  An3  v112
 BYTE   N12  Fs4  v120
 BYTE   W12
 BYTE   Bn3
 BYTE   N12  Gs4
 BYTE   W12
 BYTE   Cs4
 BYTE   N12  An4
 BYTE   W24
 BYTE   Bn3
 BYTE   N12  Gs4
 BYTE   W12
 BYTE   An3  v112
 BYTE   N12  Fs4  v120
 BYTE   W12
 BYTE   Gs3  v112
 BYTE   N12  En4  v120
 BYTE   W12
 BYTE   N24  An4
 BYTE   N24  Cs5
 BYTE   W12
 BYTE   PEND 
// 029   ----------------------------------------
Label_3_0161B893:
 BYTE   W12
 BYTE   N12  Gs4  v112
 BYTE   N12  Bn4
 BYTE   W12
 BYTE   Fs4
 BYTE   N12  An4
 BYTE   W12
 BYTE   Gs4
 BYTE   N12  Bn4  v120
 BYTE   W12
 BYTE   Fs4  v112
 BYTE   N12  An4
 BYTE   W12
 BYTE   En4
 BYTE   N12  Gs4
 BYTE   W12
 BYTE   Cs4  v104
 BYTE   N12  Fs4  v112
 BYTE   W12
 BYTE   Cs4  v120
 BYTE   N12  En4
 BYTE   W12
 BYTE   PEND 
// 030   ----------------------------------------
 BYTE   PATT
  POIN2 Label_3_0161B7FB
// 031   ----------------------------------------
 BYTE   PATT
  POIN2 Label_3_0161B820
// 032   ----------------------------------------
 BYTE   PATT
  POIN2 Label_3_0161B835
// 033   ----------------------------------------
 BYTE   PATT
  POIN2 Label_3_0161B85C
// 034   ----------------------------------------
 BYTE   PATT
  POIN2 Label_3_0161B86E
// 035   ----------------------------------------
 BYTE   PATT
  POIN2 Label_3_0161B893
// 036   ----------------------------------------
 BYTE   N12  An3  v112
 BYTE   N12  Fs4  v120
 BYTE   W12
 BYTE   Bn3
 BYTE   N12  Gs4
 BYTE   W12
 BYTE   Cs4
 BYTE   N12  An4
 BYTE   W24
 BYTE   Bn3
 BYTE   N12  Gs4
 BYTE   W12
 BYTE   An3  v112
 BYTE   N12  Fs4  v120
 BYTE   W12
 BYTE   Gs3  v112
 BYTE   N12  En4  v120
 BYTE   W12
 BYTE   TIE  An3
 BYTE   TIE  Fs4
 BYTE   W12
// 037   ----------------------------------------
 BYTE   W96
// 038   ----------------------------------------
 BYTE   EOT
 BYTE   An3  v078
 BYTE   GoTo
  POIN2 Label_3_0161B6EE
 BYTE   FINE

//**************** Track 5 (Midi-Chn.4) ****************//

Touhou8LoveColoredMasterSparkBigMood_005:
// 000   ----------------------------------------
 BYTE   KEYSH   Touhou8LoveColoredMasterSparkBigMood_key+0
Label_4_0161C506:
 BYTE   VOICE   51
 BYTE   MODT 0
 BYTE   CnM2
 BYTE   LFOS 0
 BYTE   Gs1
 BYTE   BENDR  2
 BYTE   VOL   47*Touhou8LoveColoredMasterSparkBigMood_mvl/mxv
 BYTE   PAN   c_v+0
 BYTE   W96
// 001   ----------------------------------------
 BYTE   W96
// 002   ----------------------------------------
 BYTE   W96
// 003   ----------------------------------------
 BYTE   W96
// 004   ----------------------------------------
 BYTE   N96  Fn2  v127
 BYTE   W96
// 005   ----------------------------------------
Label_4_0161C51A:
 BYTE   N48  Cs2  v116
 BYTE   W48
 BYTE   Ds2  v100
 BYTE   W48
 BYTE   PEND 
// 006   ----------------------------------------
 BYTE   N96  Fn2  v127
 BYTE   W96
// 007   ----------------------------------------
 BYTE   PATT
  POIN2 Label_4_0161C51A
// 008   ----------------------------------------
 BYTE   N96  Fn2  v088
 BYTE   W96
// 009   ----------------------------------------
 BYTE   Cs2  v092
 BYTE   W96
// 010   ----------------------------------------
 BYTE   Ds2
 BYTE   W96
// 011   ----------------------------------------
 BYTE   Fn2  v112
 BYTE   W96
// 012   ----------------------------------------
 BYTE   Fn2  v088
 BYTE   W96
// 013   ----------------------------------------
 BYTE   Cs2  v092
 BYTE   W96
// 014   ----------------------------------------
 BYTE   Ds2
 BYTE   W96
// 015   ----------------------------------------
 BYTE   Fn2  v112
 BYTE   W96
// 016   ----------------------------------------
 BYTE   Fn2  v088
 BYTE   W96
// 017   ----------------------------------------
 BYTE   Cs2  v096
 BYTE   W96
// 018   ----------------------------------------
 BYTE   Ds2  v127
 BYTE   W96
// 019   ----------------------------------------
 BYTE   Fn2  v084
 BYTE   W96
// 020   ----------------------------------------
 BYTE   W96
// 021   ----------------------------------------
 BYTE   Cs2
 BYTE   W96
// 022   ----------------------------------------
 BYTE   Ds2  v108
 BYTE   W84
 BYTE   N12  Cn2  v127
 BYTE   W12
// 023   ----------------------------------------
 BYTE   N84
 BYTE   W84
 BYTE   TIE  Fs2  v116
 BYTE   W12
// 024   ----------------------------------------
 BYTE   W96
// 025   ----------------------------------------
 BYTE   W96
// 026   ----------------------------------------
 BYTE   EOT
 BYTE   TIE  Dn2  v088
 BYTE   W96
// 027   ----------------------------------------
 BYTE   W96
// 028   ----------------------------------------
 BYTE   EOT
 BYTE   TIE  En2  v108
 BYTE   W96
// 029   ----------------------------------------
 BYTE   W96
// 030   ----------------------------------------
 BYTE   EOT
 BYTE   TIE  Fs2  v116
 BYTE   W96
// 031   ----------------------------------------
 BYTE   W96
// 032   ----------------------------------------
 BYTE   EOT
 BYTE   TIE  Dn2  v088
 BYTE   W96
// 033   ----------------------------------------
 BYTE   W96
// 034   ----------------------------------------
 BYTE   EOT
 BYTE   TIE  En2  v108
 BYTE   W96
// 035   ----------------------------------------
 BYTE   W96
// 036   ----------------------------------------
 BYTE   EOT
 BYTE   N36  Dn2  v127
 BYTE   W48
 BYTE   En2  v112
 BYTE   W36
 BYTE   TIE  Fs2  v127
 BYTE   W12
// 037   ----------------------------------------
 BYTE   W96
// 038   ----------------------------------------
 BYTE   EOT
 BYTE   GoTo
  POIN2 Label_4_0161C506
 BYTE   FINE

//**************** Track 6 (Midi-Chn.5) ****************//

Touhou8LoveColoredMasterSparkBigMood_006:
// 000   ----------------------------------------
 BYTE   KEYSH   Touhou8LoveColoredMasterSparkBigMood_key+0
Label_5_01632B8E:
 BYTE   VOICE   127
 BYTE   MODT 0
 BYTE   CnM2
 BYTE   LFOS 0
 BYTE   Gs1
 BYTE   BENDR  65
 BYTE   VOL   64*Touhou8LoveColoredMasterSparkBigMood_mvl/mxv
 BYTE   PAN   c_v+0
 BYTE   N06  Cn1  v088
 BYTE   N06  Fs1
 BYTE   W06
 BYTE   N06
 BYTE   W06
 BYTE   As1
 BYTE   W12
 BYTE   Fs1
 BYTE   W06
 BYTE   N06
 BYTE   W06
 BYTE   As1
 BYTE   W12
 BYTE   Cn1
 BYTE   N06  Fs1
 BYTE   W12
 BYTE   As1
 BYTE   W06
 BYTE   Fs1
 BYTE   W06
 BYTE   N06
 BYTE   W06
 BYTE   N06
 BYTE   W06
 BYTE   As1
 BYTE   W06
 BYTE   Fs1
 BYTE   W06
// 001   ----------------------------------------
 BYTE   Cn1
 BYTE   N06  Fs1
 BYTE   W12
 BYTE   As1
 BYTE   W12
 BYTE   Fs1
 BYTE   W06
 BYTE   N06
 BYTE   W06
 BYTE   As1
 BYTE   W12
 BYTE   Cn1
 BYTE   N06  Fs1
 BYTE   W06
 BYTE   N06
 BYTE   W06
 BYTE   As1
 BYTE   W06
 BYTE   Fs1
 BYTE   W06
 BYTE   N06
 BYTE   W12
 BYTE   As1
 BYTE   W06
 BYTE   Fs1
 BYTE   W06
// 002   ----------------------------------------
 BYTE   Cn1
 BYTE   N06  Fs1
 BYTE   W06
 BYTE   N06
 BYTE   W06
 BYTE   As1
 BYTE   W12
 BYTE   Cn1
 BYTE   N06  Fs1
 BYTE   W06
 BYTE   N06
 BYTE   W06
 BYTE   As1
 BYTE   W12
 BYTE   Cn1
 BYTE   N06  Fs1
 BYTE   W12
 BYTE   As1
 BYTE   W06
 BYTE   Fs1
 BYTE   W06
 BYTE   Cn1
 BYTE   N06  Fs1
 BYTE   W06
 BYTE   N06
 BYTE   W06
 BYTE   As1
 BYTE   W06
 BYTE   Fs1
 BYTE   W06
// 003   ----------------------------------------
 BYTE   Cn1
 BYTE   N06  Fs1
 BYTE   W12
 BYTE   As1
 BYTE   W12
 BYTE   Cn1
 BYTE   N06  Fs1
 BYTE   W06
 BYTE   N06
 BYTE   W06
 BYTE   As1
 BYTE   W12
 BYTE   Cn1
 BYTE   N06  Fs1
 BYTE   W06
 BYTE   N06
 BYTE   W06
 BYTE   As1
 BYTE   W06
 BYTE   Fs1
 BYTE   W06
 BYTE   Cn1
 BYTE   N06  Fs1
 BYTE   W12
 BYTE   N03  Dn1
 BYTE   N03  En1  v112
 BYTE   N06  As1  v088
 BYTE   W03
 BYTE   N03  Dn1
 BYTE   N03  En1  v116
 BYTE   W03
 BYTE   Dn1  v088
 BYTE   N03  En1  v120
 BYTE   N06  Fs1  v088
 BYTE   W03
 BYTE   N03  Dn1
 BYTE   N03  En1  v127
 BYTE   W03
// 004   ----------------------------------------
Label_5_01632C32:
 BYTE   N06  Cn1  v088
 BYTE   N06  Fs1
 BYTE   N06  Cs2
 BYTE   W06
 BYTE   Fs1
 BYTE   W06
 BYTE   As1
 BYTE   W12
 BYTE   Cn1
 BYTE   N06  Dn1
 BYTE   N06  Fs1
 BYTE   W06
 BYTE   N06
 BYTE   W06
 BYTE   As1
 BYTE   W06
 BYTE   Dn1
 BYTE   W06
 BYTE   Cn1
 BYTE   N06  Fs1
 BYTE   W06
 BYTE   Dn1
 BYTE   W06
 BYTE   Cn1
 BYTE   N06  As1
 BYTE   W06
 BYTE   Fs1
 BYTE   W06
 BYTE   Cn1
 BYTE   N06  Fs1
 BYTE   W06
 BYTE   N06
 BYTE   W06
 BYTE   Dn1
 BYTE   N06  As1
 BYTE   W06
 BYTE   Fs1
 BYTE   W06
 BYTE   PEND 
// 005   ----------------------------------------
 BYTE   Cn1
 BYTE   N06  Fs1
 BYTE   W12
 BYTE   As1
 BYTE   W12
 BYTE   Cn1
 BYTE   N06  Dn1
 BYTE   N06  Fs1
 BYTE   W06
 BYTE   N06
 BYTE   W06
 BYTE   As1
 BYTE   W06
 BYTE   Dn1
 BYTE   W06
 BYTE   Cn1
 BYTE   N06  Fs1
 BYTE   W06
 BYTE   N06
 BYTE   W06
 BYTE   As1
 BYTE   W06
 BYTE   Fs1
 BYTE   W06
 BYTE   Cn1
 BYTE   N06  Dn1
 BYTE   N06  Fs1
 BYTE   W12
 BYTE   As1
 BYTE   W06
 BYTE   Fs1
 BYTE   W06
// 006   ----------------------------------------
 BYTE   PATT
  POIN2 Label_5_01632C32
// 007   ----------------------------------------
 BYTE   N06  Cn1  v088
 BYTE   N06  En1  v068
 BYTE   N06  Fs1  v088
 BYTE   W06
 BYTE   En1  v072
 BYTE   W06
 BYTE   N06
 BYTE   N06  As1  v088
 BYTE   W06
 BYTE   En1  v080
 BYTE   W06
 BYTE   Cn1  v088
 BYTE   N06  Dn1
 BYTE   N06  En1  v084
 BYTE   N06  Fs1  v088
 BYTE   W06
 BYTE   En1
 BYTE   N06  Fs1
 BYTE   W06
 BYTE   En1  v092
 BYTE   N06  As1  v088
 BYTE   W06
 BYTE   Dn1
 BYTE   N06  En1  v100
 BYTE   W06
 BYTE   Cn1  v088
 BYTE   N06  En1  v100
 BYTE   N06  Fs1  v088
 BYTE   W06
 BYTE   En1  v108
 BYTE   N06  Fs1  v088
 BYTE   W06
 BYTE   En1  v108
 BYTE   N06  As1  v088
 BYTE   W06
 BYTE   En1  v112
 BYTE   N06  Fs1  v088
 BYTE   W06
 BYTE   Cn1
 BYTE   N06  Dn1
 BYTE   N06  En1  v112
 BYTE   N06  Fs1  v088
 BYTE   W06
 BYTE   En1  v116
 BYTE   W06
 BYTE   Dn1  v088
 BYTE   N06  En1  v124
 BYTE   N06  As1  v088
 BYTE   W06
 BYTE   En1  v127
 BYTE   N06  Fs1  v088
 BYTE   W06
// 008   ----------------------------------------
Label_5_01632CF4:
 BYTE   N06  Cn1  v088
 BYTE   N06  Fs1
 BYTE   N06  Cs2
 BYTE   W06
 BYTE   Fs1
 BYTE   W06
 BYTE   As1
 BYTE   W12
 BYTE   Cn1
 BYTE   N06  Dn1
 BYTE   N06  Fs1
 BYTE   W06
 BYTE   N06
 BYTE   W06
 BYTE   As1
 BYTE   W12
 BYTE   Cn1
 BYTE   N06  Fs1
 BYTE   W12
 BYTE   Cn1
 BYTE   N06  As1
 BYTE   W06
 BYTE   Fs1
 BYTE   W06
 BYTE   Dn1
 BYTE   N06  Fs1
 BYTE   W06
 BYTE   N06
 BYTE   W06
 BYTE   Cn1
 BYTE   N06  As1
 BYTE   W06
 BYTE   Fs1
 BYTE   W06
 BYTE   PEND 
// 009   ----------------------------------------
Label_5_01632D21:
 BYTE   N06  Cn1  v088
 BYTE   N06  Fs1
 BYTE   W12
 BYTE   Cn1
 BYTE   N06  As1
 BYTE   W12
 BYTE   Cn1
 BYTE   N06  Dn1
 BYTE   N06  Fs1
 BYTE   W06
 BYTE   N06
 BYTE   W06
 BYTE   As1
 BYTE   W12
 BYTE   Cn1
 BYTE   N06  Fs1
 BYTE   W06
 BYTE   N06
 BYTE   W06
 BYTE   Cn1
 BYTE   N06  As1
 BYTE   W06
 BYTE   Fs1
 BYTE   W06
 BYTE   Cn1
 BYTE   N06  Dn1
 BYTE   N06  Fs1
 BYTE   W06
 BYTE   Cn1
 BYTE   W06
 BYTE   N06
 BYTE   N06  Dn1
 BYTE   N06  As1
 BYTE   W06
 BYTE   Cn1
 BYTE   N06  Dn1
 BYTE   N06  Fs1
 BYTE   W06
 BYTE   PEND 
// 010   ----------------------------------------
Label_5_01632D56:
 BYTE   N06  Cn1  v088
 BYTE   N06  Fs1
 BYTE   W06
 BYTE   N06
 BYTE   W06
 BYTE   As1
 BYTE   W12
 BYTE   Cn1
 BYTE   N06  Dn1
 BYTE   N06  Fs1
 BYTE   W06
 BYTE   N06
 BYTE   W06
 BYTE   As1
 BYTE   W12
 BYTE   Cn1
 BYTE   N06  Fs1
 BYTE   W12
 BYTE   Cn1
 BYTE   N06  As1
 BYTE   W06
 BYTE   Fs1
 BYTE   W06
 BYTE   Dn1
 BYTE   N06  Fs1
 BYTE   W06
 BYTE   N06
 BYTE   W06
 BYTE   Cn1
 BYTE   N06  As1
 BYTE   W06
 BYTE   Fs1
 BYTE   W06
 BYTE   PEND 
// 011   ----------------------------------------
 BYTE   PATT
  POIN2 Label_5_01632D21
// 012   ----------------------------------------
 BYTE   PATT
  POIN2 Label_5_01632CF4
// 013   ----------------------------------------
 BYTE   PATT
  POIN2 Label_5_01632D21
// 014   ----------------------------------------
 BYTE   PATT
  POIN2 Label_5_01632D56
// 015   ----------------------------------------
 BYTE   PATT
  POIN2 Label_5_01632D21
// 016   ----------------------------------------
Label_5_01632D9A:
 BYTE   N06  Cn1  v088
 BYTE   N06  Dn1
 BYTE   N06  Fs1
 BYTE   N06  Cs2
 BYTE   W24
 BYTE   Fs1
 BYTE   W06
 BYTE   N06
 BYTE   W06
 BYTE   Dn1
 BYTE   N06  As1
 BYTE   W12
 BYTE   Cn1
 BYTE   N06  Dn1
 BYTE   N06  Fs1
 BYTE   W12
 BYTE   Cn1
 BYTE   N06  As1
 BYTE   W06
 BYTE   Fs1
 BYTE   W06
 BYTE   Dn1
 BYTE   N06  Fs1
 BYTE   W06
 BYTE   N06
 BYTE   W06
 BYTE   Cn1
 BYTE   N06  As1
 BYTE   W06
 BYTE   Fs1
 BYTE   W06
 BYTE   PEND 
// 017   ----------------------------------------
 BYTE   Cn1
 BYTE   N06  Fs1
 BYTE   N06  Cs2
 BYTE   W24
 BYTE   Cn1
 BYTE   N06  Fs1
 BYTE   W06
 BYTE   N06
 BYTE   W06
 BYTE   Dn1
 BYTE   N06  As1
 BYTE   W12
 BYTE   Cn1
 BYTE   N06  Fs1
 BYTE   W06
 BYTE   N06
 BYTE   W06
 BYTE   Cn1
 BYTE   N06  As1
 BYTE   W06
 BYTE   Fs1
 BYTE   W06
 BYTE   Cn1
 BYTE   N06  Dn1
 BYTE   N06  Fs1
 BYTE   W06
 BYTE   Cn1
 BYTE   W06
 BYTE   N06
 BYTE   N06  Dn1
 BYTE   N06  As1
 BYTE   W06
 BYTE   Cn1
 BYTE   N06  Dn1
 BYTE   N06  Fs1
 BYTE   W06
// 018   ----------------------------------------
 BYTE   PATT
  POIN2 Label_5_01632D9A
// 019   ----------------------------------------
 BYTE   PATT
  POIN2 Label_5_01632D21
// 020   ----------------------------------------
 BYTE   PATT
  POIN2 Label_5_01632CF4
// 021   ----------------------------------------
 BYTE   PATT
  POIN2 Label_5_01632D21
// 022   ----------------------------------------
 BYTE   PATT
  POIN2 Label_5_01632D56
// 023   ----------------------------------------
 BYTE   N06  Cn1  v088
 BYTE   N03  En1
 BYTE   N06  Fs1
 BYTE   W03
 BYTE   N03  En1
 BYTE   W03
 BYTE   En1  v092
 BYTE   W03
 BYTE   N03
 BYTE   W03
 BYTE   N06  Cn1  v088
 BYTE   N03  En1  v092
 BYTE   N06  As1  v088
 BYTE   W03
 BYTE   N03  En1  v100
 BYTE   W03
 BYTE   N03
 BYTE   W03
 BYTE   N03
 BYTE   W03
 BYTE   N06  Cn1  v088
 BYTE   N06  Dn1
 BYTE   N03  En1  v100
 BYTE   N06  Fs1  v088
 BYTE   W06
 BYTE   N06
 BYTE   W06
 BYTE   As1
 BYTE   N03  Cn2
 BYTE   W03
 BYTE   N03
 BYTE   W03
 BYTE   N03
 BYTE   W03
 BYTE   N03
 BYTE   W03
 BYTE   N06  Cn1
 BYTE   N06  En1  v120
 BYTE   N06  Fs1  v088
 BYTE   N03  Dn2
 BYTE   W03
 BYTE   N03
 BYTE   W03
 BYTE   N06  Fs1
 BYTE   N03  Dn2
 BYTE   W03
 BYTE   N03
 BYTE   W03
 BYTE   N06  Cn1
 BYTE   N06  As1
 BYTE   N03  Dn2
 BYTE   W03
 BYTE   N03
 BYTE   W03
 BYTE   N06  Fs1
 BYTE   N03  Cn2
 BYTE   W03
 BYTE   N03
 BYTE   W03
 BYTE   N06  Cn1
 BYTE   N06  Dn1
 BYTE   N03  En1  v127
 BYTE   N06  Fs1  v088
 BYTE   N03  Cn2
 BYTE   W03
 BYTE   En1  v127
 BYTE   N03  Cn2  v088
 BYTE   W03
 BYTE   N06  Cn1
 BYTE   N03  En1  v127
 BYTE   N03  Cn2  v088
 BYTE   W03
 BYTE   En1  v127
 BYTE   N03  Cn2  v088
 BYTE   W03
 BYTE   N06  Cn1
 BYTE   N06  Dn1
 BYTE   N03  En1  v127
 BYTE   N03  An1  v088
 BYTE   N06  As1
 BYTE   W03
 BYTE   N03  En1  v127
 BYTE   N03  An1  v088
 BYTE   W03
 BYTE   N06  Cn1
 BYTE   N06  Dn1
 BYTE   N03  En1  v127
 BYTE   N06  Fs1  v088
 BYTE   N03  An1
 BYTE   W03
 BYTE   En1  v124
 BYTE   N03  An1  v088
 BYTE   W03
// 024   ----------------------------------------
Label_5_01632EB5:
 BYTE   N06  Cn1  v088
 BYTE   N06  Fs1
 BYTE   N06  Cs2
 BYTE   W06
 BYTE   Fs1
 BYTE   W06
 BYTE   Dn1
 BYTE   N06  As1
 BYTE   W12
 BYTE   Cn1
 BYTE   N06  Fs1
 BYTE   W06
 BYTE   Cn1
 BYTE   N06  Fs1
 BYTE   W06
 BYTE   Dn1
 BYTE   N06  As1
 BYTE   W06
 BYTE   Fs1
 BYTE   W06
 BYTE   Cn1
 BYTE   N06  Fs1
 BYTE   W06
 BYTE   Cn1
 BYTE   W06
 BYTE   Dn1
 BYTE   N06  As1
 BYTE   W12
 BYTE   Cn1
 BYTE   N06  Fs1
 BYTE   W06
 BYTE   N06
 BYTE   W06
 BYTE   Dn1
 BYTE   N06  As1
 BYTE   W06
 BYTE   Cn1
 BYTE   N06  Fs1
 BYTE   W06
 BYTE   PEND 
// 025   ----------------------------------------
Label_5_01632EEA:
 BYTE   N06  Cn1  v088
 BYTE   N06  Fs1
 BYTE   W12
 BYTE   Dn1
 BYTE   N06  As1
 BYTE   W12
 BYTE   Cn1
 BYTE   N06  Fs1
 BYTE   W06
 BYTE   Cn1
 BYTE   N06  Fs1
 BYTE   W06
 BYTE   Dn1
 BYTE   N06  As1
 BYTE   W06
 BYTE   Fs1
 BYTE   W06
 BYTE   Cn1
 BYTE   N06  Fs1
 BYTE   W12
 BYTE   Dn1
 BYTE   N06  As1
 BYTE   W06
 BYTE   Fs1
 BYTE   W06
 BYTE   Cn1
 BYTE   N06  Fs1
 BYTE   W06
 BYTE   Cn1
 BYTE   N06  Fs1
 BYTE   W06
 BYTE   Dn1
 BYTE   N06  As1
 BYTE   W06
 BYTE   Cn1
 BYTE   N06  Fs1
 BYTE   W06
 BYTE   PEND 
// 026   ----------------------------------------
 BYTE   PATT
  POIN2 Label_5_01632EB5
// 027   ----------------------------------------
 BYTE   PATT
  POIN2 Label_5_01632EEA
// 028   ----------------------------------------
 BYTE   PATT
  POIN2 Label_5_01632EB5
// 029   ----------------------------------------
Label_5_01632F2C:
 BYTE   N06  Cn1  v088
 BYTE   N06  Fs1
 BYTE   N06  Cs2
 BYTE   W12
 BYTE   Dn1
 BYTE   N06  En1
 BYTE   N06  As1
 BYTE   W12
 BYTE   Cn1
 BYTE   N06  En1
 BYTE   N06  Fs1
 BYTE   W06
 BYTE   Cn1
 BYTE   N06  Fs1
 BYTE   W06
 BYTE   Dn1
 BYTE   N06  En1
 BYTE   N06  As1
 BYTE   W06
 BYTE   Fs1
 BYTE   W06
 BYTE   Cn1
 BYTE   N06  En1
 BYTE   N06  Fs1
 BYTE   W12
 BYTE   Dn1
 BYTE   N06  En1
 BYTE   N06  As1
 BYTE   W06
 BYTE   Fs1
 BYTE   W06
 BYTE   Cn1
 BYTE   N06  Dn1
 BYTE   N06  En1
 BYTE   N06  Fs1
 BYTE   W06
 BYTE   Cn1
 BYTE   N06  Dn1
 BYTE   N06  Fs1
 BYTE   W06
 BYTE   Dn1
 BYTE   N06  En1
 BYTE   N06  As1
 BYTE   W06
 BYTE   Cn1
 BYTE   N06  Dn1
 BYTE   N06  Fs1
 BYTE   W06
 BYTE   PEND 
// 030   ----------------------------------------
 BYTE   PATT
  POIN2 Label_5_01632EB5
// 031   ----------------------------------------
 BYTE   PATT
  POIN2 Label_5_01632EEA
// 032   ----------------------------------------
 BYTE   PATT
  POIN2 Label_5_01632EB5
// 033   ----------------------------------------
 BYTE   PATT
  POIN2 Label_5_01632EEA
// 034   ----------------------------------------
 BYTE   PATT
  POIN2 Label_5_01632EB5
// 035   ----------------------------------------
 BYTE   PATT
  POIN2 Label_5_01632F2C
// 036   ----------------------------------------
 BYTE   N06  Cn1  v088
 BYTE   N06  Dn1
 BYTE   N06  En1
 BYTE   N06  Fs1
 BYTE   N06  Cs2
 BYTE   W06
 BYTE   Fs1
 BYTE   W06
 BYTE   As1
 BYTE   W12
 BYTE   Cn1
 BYTE   N06  Fs1
 BYTE   W06
 BYTE   Cn1
 BYTE   N06  Fs1
 BYTE   W06
 BYTE   Dn1
 BYTE   N06  As1
 BYTE   W06
 BYTE   Fs1
 BYTE   W06
 BYTE   Cn1
 BYTE   N06  Dn1
 BYTE   N06  En1
 BYTE   N06  Fs1
 BYTE   N06  Cs2
 BYTE   W06
 BYTE   Cn1
 BYTE   W06
 BYTE   Dn1
 BYTE   N06  As1
 BYTE   W12
 BYTE   Cn1
 BYTE   N06  Fs1
 BYTE   W06
 BYTE   N06
 BYTE   W06
 BYTE   Dn1
 BYTE   N06  En1
 BYTE   N06  As1
 BYTE   N06  Cs2
 BYTE   W06
 BYTE   Cn1
 BYTE   N06  En1
 BYTE   N06  Fs1
 BYTE   W06
// 037   ----------------------------------------
 BYTE   Cn1
 BYTE   N06  En1
 BYTE   N06  Fs1
 BYTE   W12
 BYTE   Dn1
 BYTE   N06  En1
 BYTE   N06  As1
 BYTE   W12
 BYTE   Cn1
 BYTE   N06  Fs1
 BYTE   W06
 BYTE   Cn1
 BYTE   N06  Fs1
 BYTE   W06
 BYTE   Dn1
 BYTE   N06  En1
 BYTE   N06  As1
 BYTE   W06
 BYTE   Fs1
 BYTE   W06
 BYTE   Cn1
 BYTE   N06  Fs1
 BYTE   W12
 BYTE   Dn1
 BYTE   N06  En1
 BYTE   N06  As1
 BYTE   W06
 BYTE   Fs1
 BYTE   W06
 BYTE   Cn1
 BYTE   N06  Fs1
 BYTE   W06
 BYTE   Cn1
 BYTE   N06  Fs1
 BYTE   W06
 BYTE   Dn1
 BYTE   N06  En1
 BYTE   N06  As1
 BYTE   W06
 BYTE   Cn1
 BYTE   N06  En1
 BYTE   N06  Fs1
 BYTE   W06
// 038   ----------------------------------------
 BYTE   GoTo
  POIN2 Label_5_01632B8E
 BYTE   FINE

//**************** Track 7 (Midi-Chn.6) ****************//

Touhou8LoveColoredMasterSparkBigMood_007:
// 000   ----------------------------------------
 BYTE   KEYSH   Touhou8LoveColoredMasterSparkBigMood_key+0
Label_6_0161B41A:
 BYTE   VOICE   56
 BYTE   MODT 0
 BYTE   CnM2
 BYTE   LFOS 0
 BYTE   Gs1
 BYTE   BENDR  70
 BYTE   VOL   47*Touhou8LoveColoredMasterSparkBigMood_mvl/mxv
 BYTE   PAN   c_v+0
 BYTE   W96
// 001   ----------------------------------------
 BYTE   W96
// 002   ----------------------------------------
 BYTE   W96
// 003   ----------------------------------------
 BYTE   W96
// 004   ----------------------------------------
 BYTE   W96
// 005   ----------------------------------------
 BYTE   W96
// 006   ----------------------------------------
 BYTE   W96
// 007   ----------------------------------------
 BYTE   W96
// 008   ----------------------------------------
Label_6_0161B42E:
 BYTE   N12  Cn4  v112
 BYTE   W12
 BYTE   Ds4
 BYTE   W12
 BYTE   Fn4
 BYTE   W24
 BYTE   Cn4  v104
 BYTE   W12
 BYTE   Ds4  v112
 BYTE   W12
 BYTE   Fn4
 BYTE   W24
 BYTE   PEND 
// 009   ----------------------------------------
Label_6_0161B43F:
 BYTE   N12  Cn4  v112
 BYTE   W12
 BYTE   Ds4
 BYTE   W12
 BYTE   Fn4
 BYTE   W12
 BYTE   N06  Cn4
 BYTE   W12
 BYTE   N09  Gs4  v120
 BYTE   W12
 BYTE   N03  Gn4
 BYTE   W03
 BYTE   Gs4  v112
 BYTE   W03
 BYTE   N06  Gn4
 BYTE   W06
 BYTE   N12  Fn4
 BYTE   W12
 BYTE   Ds4
 BYTE   W12
 BYTE   PEND 
// 010   ----------------------------------------
 BYTE   As3  v120
 BYTE   W12
 BYTE   Cn4
 BYTE   W12
 BYTE   Ds4  v112
 BYTE   W24
 BYTE   As3
 BYTE   W12
 BYTE   Cn4
 BYTE   W12
 BYTE   Ds4  v120
 BYTE   W24
// 011   ----------------------------------------
 BYTE   Cn4  v112
 BYTE   W12
 BYTE   Ds4  v104
 BYTE   W12
 BYTE   Fn4  v112
 BYTE   W12
 BYTE   N06  Cn4  v120
 BYTE   W12
 BYTE   N09  Cn5
 BYTE   W12
 BYTE   N03  As4
 BYTE   W03
 BYTE   Cn5  v112
 BYTE   W03
 BYTE   N06  As4
 BYTE   W06
 BYTE   N12  Gs4
 BYTE   W12
 BYTE   Gn4  v120
 BYTE   W12
// 012   ----------------------------------------
 BYTE   PATT
  POIN2 Label_6_0161B42E
// 013   ----------------------------------------
 BYTE   PATT
  POIN2 Label_6_0161B43F
// 014   ----------------------------------------
 BYTE   N12  As3  v120
 BYTE   W12
 BYTE   Cn4
 BYTE   W12
 BYTE   Gs3
 BYTE   W24
 BYTE   Gn3  v112
 BYTE   W24
 BYTE   Ds3  v120
 BYTE   W24
// 015   ----------------------------------------
 BYTE   Fn3
 BYTE   W12
 BYTE   Cn3  v112
 BYTE   W12
 BYTE   Gn3  v127
 BYTE   W12
 BYTE   N06  Cn3  v112
 BYTE   W12
 BYTE   N15  Gs3  v120
 BYTE   W24
 BYTE   N12
 BYTE   W12
 BYTE   As3  v124
 BYTE   W12
// 016   ----------------------------------------
 BYTE   N72  Cn4  v120
 BYTE   W72
 BYTE   N12  As3  v104
 BYTE   W12
 BYTE   Ds4  v112
 BYTE   W12
// 017   ----------------------------------------
 BYTE   N60  Fn4  v120
 BYTE   W60
 BYTE   N12  Cn4  v112
 BYTE   W12
 BYTE   Gn4  v120
 BYTE   W12
 BYTE   Gs4  v112
 BYTE   W12
// 018   ----------------------------------------
 BYTE   N48  Gn4  v120
 BYTE   W48
 BYTE   N24  Ds4  v104
 BYTE   W24
 BYTE   Fn4  v112
 BYTE   W24
// 019   ----------------------------------------
 BYTE   N60  Cn4  v120
 BYTE   W72
 BYTE   N12  Cn4  v112
 BYTE   W12
 BYTE   Ds4
 BYTE   W12
// 020   ----------------------------------------
 BYTE   N72  Fn4  v120
 BYTE   W72
 BYTE   N12  Cn4  v112
 BYTE   W12
 BYTE   Ds4
 BYTE   W12
// 021   ----------------------------------------
 BYTE   N60  Fn4
 BYTE   W60
 BYTE   N12  Cn4
 BYTE   W12
 BYTE   Gn4
 BYTE   W12
 BYTE   Gs4
 BYTE   W12
// 022   ----------------------------------------
 BYTE   N48  Gn4  v120
 BYTE   W48
 BYTE   N24  Gs4  v112
 BYTE   W24
 BYTE   As4  v120
 BYTE   W24
// 023   ----------------------------------------
 BYTE   N48  Cn5
 BYTE   W48
 BYTE   N12
 BYTE   W12
 BYTE   As4  v112
 BYTE   W12
 BYTE   Gs4
 BYTE   W12
 BYTE   Gn4
 BYTE   W12
// 024   ----------------------------------------
 BYTE   W96
// 025   ----------------------------------------
 BYTE   W96
// 026   ----------------------------------------
 BYTE   W96
// 027   ----------------------------------------
 BYTE   W96
// 028   ----------------------------------------
 BYTE   W96
// 029   ----------------------------------------
 BYTE   W96
// 030   ----------------------------------------
 BYTE   W96
// 031   ----------------------------------------
 BYTE   W96
// 032   ----------------------------------------
 BYTE   W96
// 033   ----------------------------------------
 BYTE   W96
// 034   ----------------------------------------
 BYTE   W96
// 035   ----------------------------------------
 BYTE   W96
// 036   ----------------------------------------
 BYTE   W96
// 037   ----------------------------------------
 BYTE   W96
// 038   ----------------------------------------
 BYTE   GoTo
  POIN2 Label_6_0161B41A
 BYTE   FINE

//**************** Track 8 (Midi-Chn.7) ****************//

Touhou8LoveColoredMasterSparkBigMood_008:
// 000   ----------------------------------------
 BYTE   KEYSH   Touhou8LoveColoredMasterSparkBigMood_key+0
Label_7_0161BDDE:
 BYTE   VOICE   81
 BYTE   MODT 0
 BYTE   CnM2
 BYTE   LFOS 0
 BYTE   Gs1
 BYTE   BENDR  73
 BYTE   VOL   47*Touhou8LoveColoredMasterSparkBigMood_mvl/mxv
 BYTE   PAN   c_v+0
 BYTE   N96  Cn4  v112
 BYTE   W96
// 001   ----------------------------------------
Label_7_0161BDEE:
 BYTE   N24  Cn4  v120
 BYTE   W24
 BYTE   Fn4  v112
 BYTE   W24
 BYTE   Gn4
 BYTE   W24
 BYTE   Gs4  v120
 BYTE   W24
 BYTE   PEND 
// 002   ----------------------------------------
 BYTE   N96  Cn4  v112
 BYTE   W96
// 003   ----------------------------------------
 BYTE   PATT
  POIN2 Label_7_0161BDEE
// 004   ----------------------------------------
 BYTE   N96  Cn4  v112
 BYTE   W96
// 005   ----------------------------------------
 BYTE   PATT
  POIN2 Label_7_0161BDEE
// 006   ----------------------------------------
 BYTE   N96  Cn4  v112
 BYTE   W96
// 007   ----------------------------------------
 BYTE   PATT
  POIN2 Label_7_0161BDEE
// 008   ----------------------------------------
 BYTE   W96
// 009   ----------------------------------------
 BYTE   W96
// 010   ----------------------------------------
 BYTE   W96
// 011   ----------------------------------------
 BYTE   W96
// 012   ----------------------------------------
 BYTE   W96
// 013   ----------------------------------------
 BYTE   W96
// 014   ----------------------------------------
 BYTE   W96
// 015   ----------------------------------------
 BYTE   W96
// 016   ----------------------------------------
 BYTE   W96
// 017   ----------------------------------------
 BYTE   W96
// 018   ----------------------------------------
 BYTE   W96
// 019   ----------------------------------------
 BYTE   W96
// 020   ----------------------------------------
 BYTE   W96
// 021   ----------------------------------------
 BYTE   W96
// 022   ----------------------------------------
 BYTE   W96
// 023   ----------------------------------------
 BYTE   W48
 BYTE   N06  Cn5  v120
 BYTE   W06
 BYTE   As4  v112
 BYTE   W06
 BYTE   Cn5
 BYTE   W06
 BYTE   As4
 BYTE   W06
 BYTE   N12  Gs4
 BYTE   W12
 BYTE   Gn4
 BYTE   W12
// 024   ----------------------------------------
Label_7_0161BE36:
 BYTE   N12  Fs4  v120
 BYTE   W12
 BYTE   Gs4
 BYTE   W12
 BYTE   An4
 BYTE   W24
 BYTE   Gs4
 BYTE   W12
 BYTE   Fs4
 BYTE   W12
 BYTE   En4
 BYTE   W12
 BYTE   N72  Fs4
 BYTE   W12
 BYTE   PEND 
// 025   ----------------------------------------
Label_7_0161BE48:
 BYTE   W60
 BYTE   N12  Cs4  v112
 BYTE   W12
 BYTE   Fs4
 BYTE   W12
 BYTE   Cs4
 BYTE   W12
 BYTE   PEND 
// 026   ----------------------------------------
Label_7_0161BE52:
 BYTE   N12  Fs4  v120
 BYTE   W12
 BYTE   Gs4
 BYTE   W12
 BYTE   An4
 BYTE   W24
 BYTE   Gs4
 BYTE   W12
 BYTE   Fs4
 BYTE   W12
 BYTE   En4
 BYTE   W12
 BYTE   N72  Cs5
 BYTE   W12
 BYTE   PEND 
// 027   ----------------------------------------
Label_7_0161BE64:
 BYTE   W60
 BYTE   N12  Bn4  v120
 BYTE   W12
 BYTE   An4  v112
 BYTE   W12
 BYTE   Gs4
 BYTE   W12
 BYTE   PEND 
// 028   ----------------------------------------
Label_7_0161BE6F:
 BYTE   N12  Fs4  v120
 BYTE   W12
 BYTE   Gs4
 BYTE   W12
 BYTE   An4
 BYTE   W24
 BYTE   Gs4
 BYTE   W12
 BYTE   Fs4
 BYTE   W12
 BYTE   En4
 BYTE   W12
 BYTE   N24  Cs5
 BYTE   W12
 BYTE   PEND 
// 029   ----------------------------------------
Label_7_0161BE81:
 BYTE   W12
 BYTE   N12  Bn4  v112
 BYTE   W12
 BYTE   An4
 BYTE   W12
 BYTE   Bn4  v120
 BYTE   W12
 BYTE   An4  v112
 BYTE   W12
 BYTE   Gs4
 BYTE   W12
 BYTE   Fs4
 BYTE   W12
 BYTE   En4  v120
 BYTE   W12
 BYTE   PEND 
// 030   ----------------------------------------
 BYTE   PATT
  POIN2 Label_7_0161BE36
// 031   ----------------------------------------
 BYTE   PATT
  POIN2 Label_7_0161BE48
// 032   ----------------------------------------
 BYTE   PATT
  POIN2 Label_7_0161BE52
// 033   ----------------------------------------
 BYTE   PATT
  POIN2 Label_7_0161BE64
// 034   ----------------------------------------
 BYTE   PATT
  POIN2 Label_7_0161BE6F
// 035   ----------------------------------------
 BYTE   PATT
  POIN2 Label_7_0161BE81
// 036   ----------------------------------------
 BYTE   N12  An4  v104
 BYTE   W12
 BYTE   Bn4
 BYTE   W12
 BYTE   Cs5
 BYTE   W24
 BYTE   Bn4  v120
 BYTE   W12
 BYTE   Cs5  v112
 BYTE   W12
 BYTE   En5  v120
 BYTE   W12
 BYTE   N90  Fs5  v127
 BYTE   W12
// 037   ----------------------------------------
 BYTE   W78
 BYTE   N03  En5  v088
 BYTE   W03
 BYTE   Cs5
 BYTE   W03
 BYTE   An4
 BYTE   W03
 BYTE   Fs4
 BYTE   W09
// 038   ----------------------------------------
 BYTE   GoTo
  POIN2 Label_7_0161BDDE
 BYTE   FINE

//******************************************************//
	ALIGN 4

Touhou8LoveColoredMasterSparkBigMood:
	BYTE	8	// NumTrks
	BYTE	0	// NumBlks
	BYTE	Touhou8LoveColoredMasterSparkBigMood_pri	// Priority
	BYTE	Touhou8LoveColoredMasterSparkBigMood_rev	// Reverb.
    
	POIN2	Touhou8LoveColoredMasterSparkBigMood_grp
    
	POIN2	Touhou8LoveColoredMasterSparkBigMood_001
	POIN2	Touhou8LoveColoredMasterSparkBigMood_002
	POIN2	Touhou8LoveColoredMasterSparkBigMood_003
	POIN2	Touhou8LoveColoredMasterSparkBigMood_004
	POIN2	Touhou8LoveColoredMasterSparkBigMood_005
	POIN2	Touhou8LoveColoredMasterSparkBigMood_006
	POIN2	Touhou8LoveColoredMasterSparkBigMood_007
	POIN2	Touhou8LoveColoredMasterSparkBigMood_008

	
