//Event file generated from Sappy .s format.
	#include "MPlayDef.event"

	#define	Touhou123LoveColoredMagicTak_grp  voicegroup000
	#define	Touhou123LoveColoredMagicTak_pri  0
	#define	Touhou123LoveColoredMagicTak_rev  0
	#define	Touhou123LoveColoredMagicTak_mvl  127
	#define	Touhou123LoveColoredMagicTak_key  0
	#define	Touhou123LoveColoredMagicTak_tbs  1
	#define	Touhou123LoveColoredMagicTak_exg  0
	#define	Touhou123LoveColoredMagicTak_cmp  1

	// .rodata
	//	Touhou123LoveColoredMagicTak
	ALIGN 4


//**************** Track 1 (Midi-Chn.0) ****************//

Touhou123LoveColoredMagicTak_001:
//  #01 //000   ----------------------------------------
 BYTE   KEYSH   Touhou123LoveColoredMagicTak_key+0
 BYTE   TEMPO   140*Touhou123LoveColoredMagicTak_tbs/2
 BYTE   VOICE   34
 BYTE   VOL   69*Touhou123LoveColoredMagicTak_mvl/mxv
 BYTE   BENDR  12
 BYTE   W84
 BYTE   N23  Bn1  v116
 BYTE   W05
 BYTE   BEND   c_v-1
 BYTE   W04
 BYTE   BEND   c_v-2
 BYTE   W02
 BYTE   BEND   c_v-3
 BYTE   W01
//  #01 //001   ----------------------------------------
Label_01003D66:
 BYTE   W01
 BYTE   BEND   c_v-4
 BYTE   W02
 BYTE   BEND   c_v-5
 BYTE   W02
 BYTE   BEND   c_v-6
 BYTE   W01
 BYTE   BEND   c_v-7
 BYTE   W02
 BYTE   BEND   c_v-8
 BYTE   W01
 BYTE   BEND   c_v-9
 BYTE   W01
 BYTE   BEND   c_v-10
 BYTE   W01
 BYTE   BEND   c_v-11
 BYTE   W01
 BYTE   BEND   c_v+0
 BYTE   N17  En1  v116
 BYTE   W18
 BYTE   N05
 BYTE   W06
 BYTE   N23  Bn1
 BYTE   W24
 BYTE   N17  En1
 BYTE   W18
 BYTE   N05
 BYTE   W06
 BYTE   N23  Bn1
 BYTE   W12
//  #01 //002   ----------------------------------------
Label_01003D8A:
 BYTE   W12
 BYTE   N23  En1  v116
 BYTE   W24
 BYTE   N17  An1
 BYTE   W18
 BYTE   N05
 BYTE   W06
 BYTE   N23  En1
 BYTE   W24
 BYTE   N17  An1
 BYTE   W12
 BYTE   PEND 
//  #01 //003   ----------------------------------------
Label_01003D9B:
 BYTE   W06
 BYTE   N05  An1  v116
 BYTE   W06
 BYTE   N17  En1
 BYTE   W18
 BYTE   N05
 BYTE   W06
 BYTE   N23  Bn1
 BYTE   W24
 BYTE   N17  En1
 BYTE   W18
 BYTE   N05
 BYTE   W06
 BYTE   N23  Bn1
 BYTE   W12
 BYTE   PEND 
//  #01 //004   ----------------------------------------
 BYTE   PATT
  POIN2 Label_01003D8A
//  #01 //005   ----------------------------------------
 BYTE   PATT
  POIN2 Label_01003D9B
//  #01 //006   ----------------------------------------
Label_01003DBB:
 BYTE   W12
 BYTE   N17  Cn2  v116
 BYTE   W18
 BYTE   N05
 BYTE   W06
 BYTE   N23  Gn1
 BYTE   W24
 BYTE   An1
 BYTE   W24
 BYTE   Cn2
 BYTE   W12
 BYTE   PEND 
//  #01 //007   ----------------------------------------
Label_01003DCA:
 BYTE   W12
 BYTE   N17  Ds1  v116
 BYTE   W18
 BYTE   N05
 BYTE   W06
 BYTE   N23  Fs1
 BYTE   W24
 BYTE   An1
 BYTE   W24
 BYTE   Bn1
 BYTE   W12
 BYTE   PEND 
//  #01 //008   ----------------------------------------
Label_01003DD9:
 BYTE   W12
 BYTE   N23  Cn2  v116
 BYTE   W24
 BYTE   N32  Gn1  v116  gtp3
 BYTE   W36
 BYTE   N11  An1
 BYTE   W12
 BYTE   Dn1
 BYTE   W12
 BYTE   PEND 
//  #01 //009   ----------------------------------------
Label_01003DE9:
 BYTE   N11  En1  v116
 BYTE   W12
 BYTE   N17
 BYTE   W18
 BYTE   N05
 BYTE   W06
 BYTE   N23  Bn1
 BYTE   W24
 BYTE   N17  En1
 BYTE   W18
 BYTE   N05
 BYTE   W06
 BYTE   N23  Bn1
 BYTE   W12
 BYTE   PEND 
//  #01 //010   ----------------------------------------
Label_01003DFD:
 BYTE   W12
 BYTE   N23  En1  v116
 BYTE   W24
 BYTE   N17  Bn1
 BYTE   W18
 BYTE   N05
 BYTE   W06
 BYTE   N23  En1
 BYTE   W24
 BYTE   N17  Bn1
 BYTE   W12
 BYTE   PEND 
//  #01 //011   ----------------------------------------
Label_01003E0E:
 BYTE   W06
 BYTE   N05  Bn1  v116
 BYTE   W06
 BYTE   N17  En1
 BYTE   W18
 BYTE   N05
 BYTE   W06
 BYTE   N23  An1
 BYTE   W24
 BYTE   N17  En1
 BYTE   W18
 BYTE   N05
 BYTE   W06
 BYTE   N23  An1
 BYTE   W12
 BYTE   PEND 
//  #01 //012   ----------------------------------------
 BYTE   PATT
  POIN2 Label_01003DFD
//  #01 //013   ----------------------------------------
Label_01003E29:
 BYTE   W06
 BYTE   N05  Bn1  v116
 BYTE   W06
 BYTE   N17  En1
 BYTE   W18
 BYTE   N05
 BYTE   W06
 BYTE   N23  Bn1
 BYTE   W24
 BYTE   N17  En1
 BYTE   W18
 BYTE   N05
 BYTE   W06
 BYTE   N23  Bn1
 BYTE   W12
 BYTE   PEND 
//  #01 //014   ----------------------------------------
 BYTE   PATT
  POIN2 Label_01003DFD
//  #01 //015   ----------------------------------------
Label_01003E44:
 BYTE   W06
 BYTE   N05  Bn1  v116
 BYTE   W06
 BYTE   N17  Cn2
 BYTE   W18
 BYTE   N05
 BYTE   W06
 BYTE   N17  Gn1
 BYTE   W18
 BYTE   N05
 BYTE   W06
 BYTE   N17  An1
 BYTE   W18
 BYTE   N05
 BYTE   W06
 BYTE   N11  Dn2
 BYTE   W12
 BYTE   PEND 
//  #01 //016   ----------------------------------------
Label_01003E5C:
 BYTE   N05  Gn1  v116
 BYTE   W06
 BYTE   Fs1
 BYTE   W06
 BYTE   N11  An1
 BYTE   W12
 BYTE   Cn2
 BYTE   W12
 BYTE   N05  Gn1
 BYTE   W06
 BYTE   N11  Fs1
 BYTE   W12
 BYTE   N17  En1
 BYTE   W18
 BYTE   N11
 BYTE   W12
 BYTE   N23  Bn1
 BYTE   W12
 BYTE   PEND 
//  #01 //017   ----------------------------------------
Label_01003E76:
 BYTE   W12
 BYTE   N17  En1  v116
 BYTE   W18
 BYTE   N05
 BYTE   W06
 BYTE   N23  Bn1
 BYTE   W24
 BYTE   N17  En1
 BYTE   W18
 BYTE   N05
 BYTE   W06
 BYTE   N23  Bn1
 BYTE   W12
 BYTE   PEND 
//  #01 //018   ----------------------------------------
 BYTE   PATT
  POIN2 Label_01003DFD
//  #01 //019   ----------------------------------------
 BYTE   PATT
  POIN2 Label_01003E0E
//  #01 //020   ----------------------------------------
 BYTE   PATT
  POIN2 Label_01003DFD
//  #01 //021   ----------------------------------------
 BYTE   PATT
  POIN2 Label_01003E29
//  #01 //022   ----------------------------------------
 BYTE   PATT
  POIN2 Label_01003DFD
//  #01 //023   ----------------------------------------
 BYTE   PATT
  POIN2 Label_01003E44
//  #01 //024   ----------------------------------------
Label_01003EA7:
 BYTE   N05  Gn1  v116
 BYTE   W06
 BYTE   Fs1
 BYTE   W06
 BYTE   N11  An1
 BYTE   W12
 BYTE   Cn2
 BYTE   W12
 BYTE   N05  Gn1
 BYTE   W06
 BYTE   N11  Fs1
 BYTE   W12
 BYTE   N17  En1
 BYTE   W18
 BYTE   N11  En2
 BYTE   W12
 BYTE   N05  Cn2
 BYTE   W06
 BYTE   Bn1
 BYTE   W06
 BYTE   PEND 
//  #01 //025   ----------------------------------------
Label_01003EC4:
 BYTE   N11  Gn1  v116
 BYTE   W12
 BYTE   N17  En1
 BYTE   W18
 BYTE   En1
 BYTE   W18
 BYTE   En1
 BYTE   W18
 BYTE   En1
 BYTE   W18
 BYTE   N11
 BYTE   W12
 BYTE   PEND 
//  #01 //026   ----------------------------------------
Label_01003ED4:
 BYTE   N11  En1  v116
 BYTE   W12
 BYTE   N17  Cn1
 BYTE   W18
 BYTE   Cn1
 BYTE   W18
 BYTE   Cn1
 BYTE   W18
 BYTE   Cn1
 BYTE   W18
 BYTE   N11
 BYTE   W12
 BYTE   PEND 
//  #01 //027   ----------------------------------------
Label_01003EE4:
 BYTE   N11  Cn1  v116
 BYTE   W12
 BYTE   N17  Dn1
 BYTE   W18
 BYTE   Dn1
 BYTE   W18
 BYTE   Dn1
 BYTE   W18
 BYTE   Dn1
 BYTE   W18
 BYTE   N11
 BYTE   W12
 BYTE   PEND 
//  #01 //028   ----------------------------------------
Label_01003EF4:
 BYTE   N11  Dn1  v116
 BYTE   W12
 BYTE   N17  En1
 BYTE   W18
 BYTE   En1
 BYTE   W18
 BYTE   En1
 BYTE   W18
 BYTE   En1
 BYTE   W18
 BYTE   N11  Bn1
 BYTE   W12
 BYTE   PEND 
//  #01 //029   ----------------------------------------
Label_01003F05:
 BYTE   N11  En1  v116
 BYTE   W12
 BYTE   N17
 BYTE   W18
 BYTE   En1
 BYTE   W18
 BYTE   En1
 BYTE   W18
 BYTE   En1
 BYTE   W18
 BYTE   N11
 BYTE   W12
 BYTE   PEND 
//  #01 //030   ----------------------------------------
 BYTE   PATT
  POIN2 Label_01003ED4
//  #01 //031   ----------------------------------------
 BYTE   PATT
  POIN2 Label_01003EE4
//  #01 //032   ----------------------------------------
Label_01003F1E:
 BYTE   N11  Dn1  v116
 BYTE   W12
 BYTE   N17  Ds1
 BYTE   W18
 BYTE   Ds1
 BYTE   W18
 BYTE   Ds1
 BYTE   W18
 BYTE   Ds1
 BYTE   W18
 BYTE   N11  Gn1
 BYTE   W12
 BYTE   PEND 
//  #01 //033   ----------------------------------------
Label_01003F2F:
 BYTE   N11  Dn1  v116
 BYTE   W12
 BYTE   N17  En1
 BYTE   W18
 BYTE   N05
 BYTE   W06
 BYTE   N17  Bn1
 BYTE   W18
 BYTE   N05
 BYTE   W06
 BYTE   N17  En1
 BYTE   W18
 BYTE   N05
 BYTE   W06
 BYTE   N17  Bn1
 BYTE   W12
 BYTE   PEND 
//  #01 //034   ----------------------------------------
Label_01003F46:
 BYTE   W06
 BYTE   N05  Bn1  v116
 BYTE   W06
 BYTE   N17  En1
 BYTE   W18
 BYTE   N05
 BYTE   W06
 BYTE   N17  Bn1
 BYTE   W18
 BYTE   N05
 BYTE   W06
 BYTE   N17  En1
 BYTE   W18
 BYTE   N05
 BYTE   W06
 BYTE   N17  Bn1
 BYTE   W12
 BYTE   PEND 
//  #01 //035   ----------------------------------------
Label_01003F5E:
 BYTE   W06
 BYTE   N05  Bn1  v116
 BYTE   W06
 BYTE   N17  Cn1
 BYTE   W18
 BYTE   N05
 BYTE   W06
 BYTE   N17  Gn1
 BYTE   W18
 BYTE   N05
 BYTE   W06
 BYTE   N17  Cn1
 BYTE   W18
 BYTE   N05
 BYTE   W06
 BYTE   N17  Gn1
 BYTE   W12
 BYTE   PEND 
//  #01 //036   ----------------------------------------
Label_01003F76:
 BYTE   W06
 BYTE   N05  Gn1  v116
 BYTE   W06
 BYTE   N17  Cn1
 BYTE   W18
 BYTE   N05
 BYTE   W06
 BYTE   N17  Gn1
 BYTE   W18
 BYTE   N05
 BYTE   W06
 BYTE   N17  Cn1
 BYTE   W18
 BYTE   N05
 BYTE   W06
 BYTE   N17  Gn1
 BYTE   W12
 BYTE   PEND 
//  #01 //037   ----------------------------------------
Label_01003F8E:
 BYTE   W06
 BYTE   N05  Gn1  v116
 BYTE   W06
 BYTE   N17  Dn1
 BYTE   W18
 BYTE   N05
 BYTE   W06
 BYTE   N17  An1
 BYTE   W18
 BYTE   N05
 BYTE   W06
 BYTE   N17  Dn1
 BYTE   W18
 BYTE   N05
 BYTE   W06
 BYTE   N17  An1
 BYTE   W12
 BYTE   PEND 
//  #01 //038   ----------------------------------------
Label_01003FA6:
 BYTE   W06
 BYTE   N05  An1  v116
 BYTE   W06
 BYTE   N17  Dn1
 BYTE   W18
 BYTE   N05
 BYTE   W06
 BYTE   N17  An1
 BYTE   W18
 BYTE   N05
 BYTE   W06
 BYTE   N17  Dn1
 BYTE   W18
 BYTE   N05
 BYTE   W06
 BYTE   N17  An1
 BYTE   W12
 BYTE   PEND 
//  #01 //039   ----------------------------------------
Label_01003FBE:
 BYTE   W06
 BYTE   N05  An1  v116
 BYTE   W06
 BYTE   N17  En1
 BYTE   W18
 BYTE   N05
 BYTE   W06
 BYTE   N17  Bn1
 BYTE   W18
 BYTE   N05
 BYTE   W06
 BYTE   N17  En1
 BYTE   W18
 BYTE   N05
 BYTE   W06
 BYTE   N17  Bn1
 BYTE   W12
 BYTE   PEND 
//  #01 //040   ----------------------------------------
 BYTE   PATT
  POIN2 Label_01003F46
//  #01 //041   ----------------------------------------
 BYTE   PATT
  POIN2 Label_01003F5E
//  #01 //042   ----------------------------------------
 BYTE   PATT
  POIN2 Label_01003F76
//  #01 //043   ----------------------------------------
 BYTE   PATT
  POIN2 Label_01003F8E
//  #01 //044   ----------------------------------------
Label_01003FEA:
 BYTE   W06
 BYTE   N05  An1  v116
 BYTE   W06
 BYTE   N17  Dn1
 BYTE   W18
 BYTE   N05
 BYTE   W06
 BYTE   N17  An1
 BYTE   W18
 BYTE   N05
 BYTE   W06
 BYTE   N17  Dn1
 BYTE   W18
 BYTE   N05
 BYTE   W06
 BYTE   N11  Bn1
 BYTE   W12
 BYTE   PEND 
//  #01 //045   ----------------------------------------
Label_01004002:
 BYTE   N11  Gn1  v116
 BYTE   W12
 BYTE   N32  An1  v116  gtp3
 BYTE   W36
 BYTE   N11  Gn1
 BYTE   W12
 BYTE   N23  Dn1
 BYTE   W24
 BYTE   N11  Bn1
 BYTE   W12
 BYTE   PEND 
//  #01 //046   ----------------------------------------
Label_01004015:
 BYTE   N28  En1  v116  gtp1
 BYTE   W30
 BYTE   N05
 BYTE   W06
 BYTE   N17  Bn1
 BYTE   W18
 BYTE   N05
 BYTE   W06
 BYTE   N17  En1
 BYTE   W18
 BYTE   N05
 BYTE   W06
 BYTE   N17  Bn1
 BYTE   W12
 BYTE   PEND 
//  #01 //047   ----------------------------------------
 BYTE   PATT
  POIN2 Label_01003F46
//  #01 //048   ----------------------------------------
 BYTE   PATT
  POIN2 Label_01003F5E
//  #01 //049   ----------------------------------------
 BYTE   PATT
  POIN2 Label_01003F76
//  #01 //050   ----------------------------------------
 BYTE   PATT
  POIN2 Label_01003F8E
//  #01 //051   ----------------------------------------
 BYTE   PATT
  POIN2 Label_01003FA6
//  #01 //052   ----------------------------------------
 BYTE   PATT
  POIN2 Label_01003FBE
//  #01 //053   ----------------------------------------
Label_01004048:
 BYTE   W06
 BYTE   N05  Bn1  v116
 BYTE   W06
 BYTE   N17  En1
 BYTE   W18
 BYTE   N05
 BYTE   W06
 BYTE   N17  Bn1
 BYTE   W18
 BYTE   En2
 BYTE   W18
 BYTE   N11  En1
 BYTE   W12
 BYTE   Fs1
 BYTE   W12
 BYTE   PEND 
//  #01 //054   ----------------------------------------
 BYTE   Dn1
 BYTE   W12
 BYTE   N17  En1
 BYTE   W18
 BYTE   N05
 BYTE   W06
 BYTE   N23  Bn1
 BYTE   W24
 BYTE   N17  En1
 BYTE   W18
 BYTE   N05
 BYTE   W06
 BYTE   N23  Bn1
 BYTE   W12
//  #01 //055   ----------------------------------------
 BYTE   PATT
  POIN2 Label_01003D8A
//  #01 //056   ----------------------------------------
 BYTE   PATT
  POIN2 Label_01003D9B
//  #01 //057   ----------------------------------------
 BYTE   PATT
  POIN2 Label_01003D8A
//  #01 //058   ----------------------------------------
 BYTE   PATT
  POIN2 Label_01003D9B
//  #01 //059   ----------------------------------------
 BYTE   PATT
  POIN2 Label_01003DBB
//  #01 //060   ----------------------------------------
 BYTE   PATT
  POIN2 Label_01003DCA
//  #01 //061   ----------------------------------------
 BYTE   PATT
  POIN2 Label_01003DD9
//  #01 //062   ----------------------------------------
 BYTE   PATT
  POIN2 Label_01003DE9
//  #01 //063   ----------------------------------------
 BYTE   PATT
  POIN2 Label_01003DFD
//  #01 //064   ----------------------------------------
 BYTE   PATT
  POIN2 Label_01003E0E
//  #01 //065   ----------------------------------------
 BYTE   PATT
  POIN2 Label_01003DFD
//  #01 //066   ----------------------------------------
 BYTE   PATT
  POIN2 Label_01003E29
//  #01 //067   ----------------------------------------
 BYTE   PATT
  POIN2 Label_01003DFD
//  #01 //068   ----------------------------------------
 BYTE   PATT
  POIN2 Label_01003E44
//  #01 //069   ----------------------------------------
 BYTE   PATT
  POIN2 Label_01003E5C
//  #01 //070   ----------------------------------------
 BYTE   PATT
  POIN2 Label_01003E76
//  #01 //071   ----------------------------------------
 BYTE   PATT
  POIN2 Label_01003DFD
//  #01 //072   ----------------------------------------
 BYTE   PATT
  POIN2 Label_01003E0E
//  #01 //073   ----------------------------------------
 BYTE   PATT
  POIN2 Label_01003DFD
//  #01 //074   ----------------------------------------
 BYTE   PATT
  POIN2 Label_01003E29
//  #01 //075   ----------------------------------------
 BYTE   PATT
  POIN2 Label_01003DFD
//  #01 //076   ----------------------------------------
 BYTE   PATT
  POIN2 Label_01003E44
//  #01 //077   ----------------------------------------
 BYTE   PATT
  POIN2 Label_01003EA7
//  #01 //078   ----------------------------------------
 BYTE   PATT
  POIN2 Label_01003EC4
//  #01 //079   ----------------------------------------
 BYTE   PATT
  POIN2 Label_01003ED4
//  #01 //080   ----------------------------------------
 BYTE   PATT
  POIN2 Label_01003EE4
//  #01 //081   ----------------------------------------
 BYTE   PATT
  POIN2 Label_01003EF4
//  #01 //082   ----------------------------------------
 BYTE   PATT
  POIN2 Label_01003F05
//  #01 //083   ----------------------------------------
 BYTE   PATT
  POIN2 Label_01003ED4
//  #01 //084   ----------------------------------------
 BYTE   PATT
  POIN2 Label_01003EE4
//  #01 //085   ----------------------------------------
 BYTE   PATT
  POIN2 Label_01003F1E
//  #01 //086   ----------------------------------------
 BYTE   PATT
  POIN2 Label_01003F2F
//  #01 //087   ----------------------------------------
 BYTE   PATT
  POIN2 Label_01003F46
//  #01 //088   ----------------------------------------
 BYTE   PATT
  POIN2 Label_01003F5E
//  #01 //089   ----------------------------------------
 BYTE   PATT
  POIN2 Label_01003F76
//  #01 //090   ----------------------------------------
 BYTE   PATT
  POIN2 Label_01003F8E
//  #01 //091   ----------------------------------------
 BYTE   PATT
  POIN2 Label_01003FA6
//  #01 //092   ----------------------------------------
 BYTE   PATT
  POIN2 Label_01003FBE
//  #01 //093   ----------------------------------------
 BYTE   PATT
  POIN2 Label_01003F46
//  #01 //094   ----------------------------------------
 BYTE   PATT
  POIN2 Label_01003F5E
//  #01 //095   ----------------------------------------
 BYTE   PATT
  POIN2 Label_01003F76
//  #01 //096   ----------------------------------------
 BYTE   PATT
  POIN2 Label_01003F8E
//  #01 //097   ----------------------------------------
 BYTE   PATT
  POIN2 Label_01003FEA
//  #01 //098   ----------------------------------------
 BYTE   PATT
  POIN2 Label_01004002
//  #01 //099   ----------------------------------------
 BYTE   PATT
  POIN2 Label_01004015
//  #01 //100   ----------------------------------------
 BYTE   PATT
  POIN2 Label_01003F46
//  #01 //101   ----------------------------------------
 BYTE   PATT
  POIN2 Label_01003F5E
//  #01 //102   ----------------------------------------
 BYTE   PATT
  POIN2 Label_01003F76
//  #01 //103   ----------------------------------------
 BYTE   PATT
  POIN2 Label_01003F8E
//  #01 //104   ----------------------------------------
 BYTE   PATT
  POIN2 Label_01003FA6
//  #01 //105   ----------------------------------------
 BYTE   PATT
  POIN2 Label_01003FBE
//  #01 //106   ----------------------------------------
 BYTE   PATT
  POIN2 Label_01004048
//  #01 //107   ----------------------------------------
 BYTE   N11  Dn1  v116
 BYTE   BEND   c_v-3
 BYTE   GoTo
  POIN2 Label_01003D66
//  #01 //108   ----------------------------------------
 BYTE   W12
 BYTE   N17  En1
 BYTE   W18
 BYTE   N05
 BYTE   W06
 BYTE   N23  Bn1
 BYTE   W24
 BYTE   N17  En1
 BYTE   W18
 BYTE   N05
 BYTE   W06
 BYTE   N23  Bn1
 BYTE   W12
//  #01 //109   ----------------------------------------
 BYTE   PATT
  POIN2 Label_01003D8A
//  #01 //110   ----------------------------------------
 BYTE   PATT
  POIN2 Label_01003D9B
//  #01 //111   ----------------------------------------
 BYTE   PATT
  POIN2 Label_01003D8A
//  #01 //112   ----------------------------------------
 BYTE   W06
 BYTE   N05  An1  v116
 BYTE   W90
//  #01 //113   ----------------------------------------
 BYTE   W12
 BYTE   BEND   c_v+0
 BYTE   FINE

//**************** Track 2 (Midi-Chn.1) ****************//

Touhou123LoveColoredMagicTak_002:
//  #02 //000   ----------------------------------------
 BYTE   KEYSH   Touhou123LoveColoredMagicTak_key+0
 BYTE   VOICE   29
 BYTE   VOL   35*Touhou123LoveColoredMagicTak_mvl/mxv
 BYTE   PAN   c_v+51
 BYTE   BENDR  12
 BYTE   W96
//  #02 //001   ----------------------------------------
Label_01025B9B:
 BYTE   W12
 BYTE   N11  Gn3  v085
 BYTE   N11  Dn3
 BYTE   N11  En3
 BYTE   N11  Bn2
 BYTE   W12
 BYTE   Gn3
 BYTE   N11  Dn3
 BYTE   N11  En3
 BYTE   N11  Bn2
 BYTE   W12
 BYTE   N05  Gn3
 BYTE   N05  Dn3
 BYTE   N05  En3
 BYTE   N05  Bn2
 BYTE   W06
 BYTE   N11  Gn3
 BYTE   N11  Dn3
 BYTE   N11  En3
 BYTE   N11  Bn2
 BYTE   W12
 BYTE   Gn3
 BYTE   N11  Dn3
 BYTE   N11  En3
 BYTE   N11  Bn2
 BYTE   W12
 BYTE   Gn3
 BYTE   N11  Dn3
 BYTE   N11  En3
 BYTE   N11  Bn2
 BYTE   W12
 BYTE   N05  Gn3
 BYTE   N05  Dn3
 BYTE   N05  En3
 BYTE   N05  Bn2
 BYTE   W06
 BYTE   N11  Gn3
 BYTE   N11  Dn3
 BYTE   N11  En3
 BYTE   N11  Bn2
 BYTE   W12
//  #02 //002   ----------------------------------------
Label_01025BE2:
 BYTE   N11  Gn3  v085
 BYTE   N11  Dn3
 BYTE   N11  En3
 BYTE   N11  Bn2
 BYTE   W12
 BYTE   An2
 BYTE   N11  Gn3
 BYTE   N11  Cs3
 BYTE   N11  En3
 BYTE   W12
 BYTE   An2
 BYTE   N11  Gn3
 BYTE   N11  Cs3
 BYTE   N11  En3
 BYTE   W12
 BYTE   N05  An2
 BYTE   N05  Gn3
 BYTE   N05  Cs3
 BYTE   N05  En3
 BYTE   W06
 BYTE   N11  An2
 BYTE   N11  Gn3
 BYTE   N11  Cs3
 BYTE   N11  En3
 BYTE   W12
 BYTE   An2
 BYTE   N11  Gn3
 BYTE   N11  Cs3
 BYTE   N11  En3
 BYTE   W12
 BYTE   An2
 BYTE   N11  Gn3
 BYTE   N11  Cs3
 BYTE   N11  En3
 BYTE   W12
 BYTE   N05  An2
 BYTE   N05  Gn3
 BYTE   N05  Cs3
 BYTE   N05  En3
 BYTE   W06
 BYTE   N11  An2
 BYTE   N11  Gn3
 BYTE   N11  Cs3
 BYTE   N11  En3
 BYTE   W12
 BYTE   PEND 
//  #02 //003   ----------------------------------------
Label_01025C31:
 BYTE   N11  An2  v085
 BYTE   N11  Gn3
 BYTE   N11  Cs3
 BYTE   N11  En3
 BYTE   W12
 BYTE   Bn2
 BYTE   N11  Gn3
 BYTE   N11  Dn3
 BYTE   N11  En3
 BYTE   W12
 BYTE   Bn2
 BYTE   N11  Gn3
 BYTE   N11  Dn3
 BYTE   N11  En3
 BYTE   W12
 BYTE   N05  Bn2
 BYTE   N05  Gn3
 BYTE   N05  Dn3
 BYTE   N05  En3
 BYTE   W06
 BYTE   N11  Bn2
 BYTE   N11  Gn3
 BYTE   N11  Dn3
 BYTE   N11  En3
 BYTE   W12
 BYTE   Bn2
 BYTE   N11  Gn3
 BYTE   N11  Dn3
 BYTE   N11  En3
 BYTE   W12
 BYTE   Bn2
 BYTE   N11  Gn3
 BYTE   N11  Dn3
 BYTE   N11  En3
 BYTE   W12
 BYTE   N05  Bn2
 BYTE   N05  Gn3
 BYTE   N05  Dn3
 BYTE   N05  En3
 BYTE   W06
 BYTE   N11  Bn2
 BYTE   N11  Gn3
 BYTE   N11  Dn3
 BYTE   N11  En3
 BYTE   W12
 BYTE   PEND 
//  #02 //004   ----------------------------------------
Label_01025C80:
 BYTE   N11  Bn2  v085
 BYTE   N11  Gn3
 BYTE   N11  Dn3
 BYTE   N11  En3
 BYTE   W12
 BYTE   An2
 BYTE   N11  Gn3
 BYTE   N11  Cs3
 BYTE   N11  En3
 BYTE   W12
 BYTE   An2
 BYTE   N11  Gn3
 BYTE   N11  Cs3
 BYTE   N11  En3
 BYTE   W12
 BYTE   N05  An2
 BYTE   N05  Gn3
 BYTE   N05  Cs3
 BYTE   N05  En3
 BYTE   W06
 BYTE   N11  An2
 BYTE   N11  Gn3
 BYTE   N11  Cs3
 BYTE   N11  En3
 BYTE   W12
 BYTE   An2
 BYTE   N11  Gn3
 BYTE   N11  Cs3
 BYTE   N11  En3
 BYTE   W12
 BYTE   An2
 BYTE   N11  Gn3
 BYTE   N11  Cs3
 BYTE   N11  En3
 BYTE   W12
 BYTE   N05  An2
 BYTE   N05  Gn3
 BYTE   N05  Cs3
 BYTE   N05  En3
 BYTE   W06
 BYTE   N11  An2
 BYTE   N11  Gn3
 BYTE   N11  Cs3
 BYTE   N11  En3
 BYTE   W12
 BYTE   PEND 
//  #02 //005   ----------------------------------------
 BYTE   PATT
  POIN2 Label_01025C31
//  #02 //006   ----------------------------------------
Label_01025CD4:
 BYTE   N11  Bn2  v085
 BYTE   N11  Gn3
 BYTE   N11  Dn3
 BYTE   N11  En3
 BYTE   W12
 BYTE   Cn3
 BYTE   N11  Gn3
 BYTE   N11  Dn3
 BYTE   N11  En3
 BYTE   W12
 BYTE   Cn3
 BYTE   N11  Gn3
 BYTE   N11  Dn3
 BYTE   N11  En3
 BYTE   W12
 BYTE   N05  Cn3
 BYTE   N05  Gn3
 BYTE   N05  Dn3
 BYTE   N05  En3
 BYTE   W06
 BYTE   N11  Cn3
 BYTE   N11  Gn3
 BYTE   N11  Dn3
 BYTE   N11  En3
 BYTE   W12
 BYTE   Cn3
 BYTE   N11  Gn3
 BYTE   N11  Dn3
 BYTE   N11  En3
 BYTE   W12
 BYTE   Cn3
 BYTE   N11  Gn3
 BYTE   N11  Dn3
 BYTE   N11  En3
 BYTE   W12
 BYTE   N05  Cn3
 BYTE   N05  Gn3
 BYTE   N05  Dn3
 BYTE   N05  En3
 BYTE   W06
 BYTE   N11  Cn3
 BYTE   N11  Gn3
 BYTE   N11  Dn3
 BYTE   N11  En3
 BYTE   W12
 BYTE   PEND 
//  #02 //007   ----------------------------------------
Label_01025D23:
 BYTE   N11  Cn3  v085
 BYTE   N11  Gn3
 BYTE   N11  Dn3
 BYTE   N11  En3
 BYTE   W12
 BYTE   Bn2
 BYTE   N11  Fs3
 BYTE   N11  An2
 BYTE   N11  Ds3
 BYTE   W12
 BYTE   Bn2
 BYTE   N11  Fs3
 BYTE   N11  An2
 BYTE   N11  Ds3
 BYTE   W12
 BYTE   N05  Bn2
 BYTE   N05  Fs3
 BYTE   N05  An2
 BYTE   N05  Ds3
 BYTE   W06
 BYTE   N11  Bn2
 BYTE   N11  Fs3
 BYTE   N11  An2
 BYTE   N11  Ds3
 BYTE   W12
 BYTE   Bn2
 BYTE   N11  Fs3
 BYTE   N11  An2
 BYTE   N11  Ds3
 BYTE   W12
 BYTE   Bn2
 BYTE   N11  Fs3
 BYTE   N11  An2
 BYTE   N11  Ds3
 BYTE   W12
 BYTE   N05  Bn2
 BYTE   N05  Fs3
 BYTE   N05  An2
 BYTE   N05  Ds3
 BYTE   W06
 BYTE   N11  Bn2
 BYTE   N11  Fs3
 BYTE   N11  An2
 BYTE   N11  Ds3
 BYTE   W12
 BYTE   PEND 
//  #02 //008   ----------------------------------------
Label_01025D72:
 BYTE   N11  Bn2  v085
 BYTE   N11  Fs3
 BYTE   N11  An2
 BYTE   N11  Ds3
 BYTE   W12
 BYTE   Cn3
 BYTE   N11  Gn2
 BYTE   N11  An2
 BYTE   N11  En3
 BYTE   W12
 BYTE   Cn3
 BYTE   N11  Gn2
 BYTE   N11  An2
 BYTE   N11  En3
 BYTE   W12
 BYTE   N05  Cn3
 BYTE   N05  Gn2
 BYTE   N05  An2
 BYTE   N05  En3
 BYTE   W06
 BYTE   N11  Dn3
 BYTE   N11  An2
 BYTE   N11  Cn3
 BYTE   N11  En3
 BYTE   W12
 BYTE   Dn3
 BYTE   N11  An2
 BYTE   N11  Bn2
 BYTE   N11  En3
 BYTE   W12
 BYTE   Dn3
 BYTE   N11  An2
 BYTE   N11  Bn2
 BYTE   N11  En3
 BYTE   W12
 BYTE   N05  Dn3
 BYTE   N05  An2
 BYTE   N05  Bn2
 BYTE   N05  En3
 BYTE   W06
 BYTE   N23  Dn3
 BYTE   N23  An2
 BYTE   N23  Bn2
 BYTE   N23  En3
 BYTE   W12
 BYTE   PEND 
//  #02 //009   ----------------------------------------
Label_01025DC1:
 BYTE   W12
 BYTE   N11  Gn3  v085
 BYTE   N11  Dn3
 BYTE   N11  En3
 BYTE   N11  Bn2
 BYTE   W12
 BYTE   Gn3
 BYTE   N11  Dn3
 BYTE   N11  En3
 BYTE   N11  Bn2
 BYTE   W12
 BYTE   N05  Gn3
 BYTE   N05  Dn3
 BYTE   N05  En3
 BYTE   N05  Bn2
 BYTE   W06
 BYTE   N11  Gn3
 BYTE   N11  Dn3
 BYTE   N11  En3
 BYTE   N11  Bn2
 BYTE   W12
 BYTE   Gn3
 BYTE   N11  Dn3
 BYTE   N11  En3
 BYTE   N11  Bn2
 BYTE   W12
 BYTE   Gn3
 BYTE   N11  Dn3
 BYTE   N11  En3
 BYTE   N11  Bn2
 BYTE   W12
 BYTE   N05  Gn3
 BYTE   N05  Dn3
 BYTE   N05  En3
 BYTE   N05  Bn2
 BYTE   W06
 BYTE   N11  Gn3
 BYTE   N11  Dn3
 BYTE   N11  En3
 BYTE   N11  Bn2
 BYTE   W12
 BYTE   PEND 
//  #02 //010   ----------------------------------------
Label_01025E09:
 BYTE   N11  Gn3  v085
 BYTE   N11  Dn3
 BYTE   N11  En3
 BYTE   N11  Bn2
 BYTE   W12
 BYTE   Gn3
 BYTE   N11  Dn3
 BYTE   N11  En3
 BYTE   N11  Bn2
 BYTE   W12
 BYTE   Gn3
 BYTE   N11  Dn3
 BYTE   N11  En3
 BYTE   N11  Bn2
 BYTE   W12
 BYTE   N05  Gn3
 BYTE   N05  Dn3
 BYTE   N05  En3
 BYTE   N05  Bn2
 BYTE   W06
 BYTE   N11  Gn3
 BYTE   N11  Dn3
 BYTE   N11  En3
 BYTE   N11  Bn2
 BYTE   W12
 BYTE   Gn3
 BYTE   N11  Dn3
 BYTE   N11  En3
 BYTE   N11  Bn2
 BYTE   W12
 BYTE   Gn3
 BYTE   N11  Dn3
 BYTE   N11  En3
 BYTE   N11  Bn2
 BYTE   W12
 BYTE   N05  Gn3
 BYTE   N05  Dn3
 BYTE   N05  En3
 BYTE   N05  Bn2
 BYTE   W06
 BYTE   N11  Gn3
 BYTE   N11  Dn3
 BYTE   N11  En3
 BYTE   N11  Bn2
 BYTE   W12
 BYTE   PEND 
//  #02 //011   ----------------------------------------
Label_01025E58:
 BYTE   N11  Gn3  v085
 BYTE   N11  Dn3
 BYTE   N11  En3
 BYTE   N11  Bn2
 BYTE   W12
 BYTE   Gn3
 BYTE   N11  Cs3
 BYTE   N11  En3
 BYTE   N11  An2
 BYTE   W12
 BYTE   Gn3
 BYTE   N11  Cs3
 BYTE   N11  En3
 BYTE   N11  An2
 BYTE   W12
 BYTE   N05  Gn3
 BYTE   N05  Cs3
 BYTE   N05  En3
 BYTE   N05  An2
 BYTE   W06
 BYTE   N11  Gn3
 BYTE   N11  Cs3
 BYTE   N11  En3
 BYTE   N11  An2
 BYTE   W12
 BYTE   Gn3
 BYTE   N11  Cs3
 BYTE   N11  En3
 BYTE   N11  An2
 BYTE   W12
 BYTE   Gn3
 BYTE   N11  Cs3
 BYTE   N11  En3
 BYTE   N11  An2
 BYTE   W12
 BYTE   N05  Gn3
 BYTE   N05  Cs3
 BYTE   N05  En3
 BYTE   N05  An2
 BYTE   W06
 BYTE   N11  Gn3
 BYTE   N11  Cs3
 BYTE   N11  En3
 BYTE   N11  An2
 BYTE   W12
 BYTE   PEND 
//  #02 //012   ----------------------------------------
Label_01025EA7:
 BYTE   N11  Gn3  v085
 BYTE   N11  Cs3
 BYTE   N11  En3
 BYTE   N11  An2
 BYTE   W12
 BYTE   Gn3
 BYTE   N11  Dn3
 BYTE   N11  En3
 BYTE   N11  Bn2
 BYTE   W12
 BYTE   Gn3
 BYTE   N11  Dn3
 BYTE   N11  En3
 BYTE   N11  Bn2
 BYTE   W12
 BYTE   N05  Gn3
 BYTE   N05  Dn3
 BYTE   N05  En3
 BYTE   N05  Bn2
 BYTE   W06
 BYTE   N11  Gn3
 BYTE   N11  Dn3
 BYTE   N11  En3
 BYTE   N11  Bn2
 BYTE   W12
 BYTE   Gn3
 BYTE   N11  Dn3
 BYTE   N11  En3
 BYTE   N11  Bn2
 BYTE   W12
 BYTE   Gn3
 BYTE   N11  Dn3
 BYTE   N11  En3
 BYTE   N11  Bn2
 BYTE   W12
 BYTE   N05  Gn3
 BYTE   N05  Dn3
 BYTE   N05  En3
 BYTE   N05  Bn2
 BYTE   W06
 BYTE   N11  Gn3
 BYTE   N11  Dn3
 BYTE   N11  En3
 BYTE   N11  Bn2
 BYTE   W12
 BYTE   PEND 
//  #02 //013   ----------------------------------------
 BYTE   PATT
  POIN2 Label_01025E09
//  #02 //014   ----------------------------------------
 BYTE   PATT
  POIN2 Label_01025E09
//  #02 //015   ----------------------------------------
Label_01025F00:
 BYTE   N11  Gn3  v085
 BYTE   N11  Dn3
 BYTE   N11  En3
 BYTE   N11  Bn2
 BYTE   W12
 BYTE   Gn3
 BYTE   N11  Dn3
 BYTE   N11  En3
 BYTE   N11  Cn3
 BYTE   W12
 BYTE   Gn3
 BYTE   N11  Dn3
 BYTE   N11  En3
 BYTE   N11  Cn3
 BYTE   W12
 BYTE   N05  Gn3
 BYTE   N05  Dn3
 BYTE   N05  En3
 BYTE   N05  Cn3
 BYTE   W06
 BYTE   N11  Gn3
 BYTE   N11  Dn3
 BYTE   N11  En3
 BYTE   N11  Cn3
 BYTE   W12
 BYTE   Fs3
 BYTE   N11  Ds3
 BYTE   N11  Bn2
 BYTE   N11  An2
 BYTE   W12
 BYTE   Fs3
 BYTE   N11  Ds3
 BYTE   N11  Bn2
 BYTE   N11  An2
 BYTE   W12
 BYTE   N05  Fs3
 BYTE   N05  Ds3
 BYTE   N05  Bn2
 BYTE   N05  An2
 BYTE   W06
 BYTE   N11  Fs3
 BYTE   N11  Ds3
 BYTE   N11  Bn2
 BYTE   N11  An2
 BYTE   W12
 BYTE   PEND 
//  #02 //016   ----------------------------------------
Label_01025F4F:
 BYTE   N11  Fs3  v085
 BYTE   N11  Ds3
 BYTE   N11  Bn2
 BYTE   N11  An2
 BYTE   W12
 BYTE   Cn3
 BYTE   N11  Gn2
 BYTE   N11  An2
 BYTE   N11  En3
 BYTE   W12
 BYTE   Cn3
 BYTE   N11  Gn2
 BYTE   N11  An2
 BYTE   N11  En3
 BYTE   W12
 BYTE   N05  Fs3
 BYTE   N05  An2
 BYTE   N05  Ds3
 BYTE   N05  Bn2
 BYTE   W06
 BYTE   N11  Fs3
 BYTE   N11  An2
 BYTE   N11  Ds3
 BYTE   N11  Bn2
 BYTE   W12
 BYTE   An2
 BYTE   N11  En3
 BYTE   N11  Dn3
 BYTE   N11  Bn2
 BYTE   W12
 BYTE   An2
 BYTE   N11  En3
 BYTE   N11  Dn3
 BYTE   N11  Bn2
 BYTE   W12
 BYTE   N05  An2
 BYTE   N05  En3
 BYTE   N05  Dn3
 BYTE   N05  Bn2
 BYTE   W06
 BYTE   N11  An2
 BYTE   N11  En3
 BYTE   N11  Dn3
 BYTE   N11  Bn2
 BYTE   W12
 BYTE   PEND 
//  #02 //017   ----------------------------------------
Label_01025F9E:
 BYTE   N11  An2  v085
 BYTE   N11  En3
 BYTE   N11  Dn3
 BYTE   N11  Bn2
 BYTE   W12
 BYTE   Gn3
 BYTE   N11  Dn3
 BYTE   N11  En3
 BYTE   N11  Bn2
 BYTE   W12
 BYTE   Gn3
 BYTE   N11  Dn3
 BYTE   N11  En3
 BYTE   N11  Bn2
 BYTE   W12
 BYTE   N05  Gn3
 BYTE   N05  Dn3
 BYTE   N05  En3
 BYTE   N05  Bn2
 BYTE   W06
 BYTE   N11  Gn3
 BYTE   N11  Dn3
 BYTE   N11  En3
 BYTE   N11  Bn2
 BYTE   W12
 BYTE   Gn3
 BYTE   N11  Dn3
 BYTE   N11  En3
 BYTE   N11  Bn2
 BYTE   W12
 BYTE   Gn3
 BYTE   N11  Dn3
 BYTE   N11  En3
 BYTE   N11  Bn2
 BYTE   W12
 BYTE   N05  Gn3
 BYTE   N05  Dn3
 BYTE   N05  En3
 BYTE   N05  Bn2
 BYTE   W06
 BYTE   N11  Gn3
 BYTE   N11  Dn3
 BYTE   N11  En3
 BYTE   N11  Bn2
 BYTE   W12
 BYTE   PEND 
//  #02 //018   ----------------------------------------
 BYTE   PATT
  POIN2 Label_01025E09
//  #02 //019   ----------------------------------------
 BYTE   PATT
  POIN2 Label_01025E58
//  #02 //020   ----------------------------------------
 BYTE   PATT
  POIN2 Label_01025EA7
//  #02 //021   ----------------------------------------
 BYTE   PATT
  POIN2 Label_01025E09
//  #02 //022   ----------------------------------------
 BYTE   PATT
  POIN2 Label_01025E09
//  #02 //023   ----------------------------------------
 BYTE   PATT
  POIN2 Label_01025F00
//  #02 //024   ----------------------------------------
Label_0102600B:
 BYTE   N11  Fs3  v085
 BYTE   N11  Ds3
 BYTE   N11  Bn2
 BYTE   N11  An2
 BYTE   W12
 BYTE   Cn3
 BYTE   N11  Gn2
 BYTE   N11  An2
 BYTE   N11  En3
 BYTE   W12
 BYTE   Cn3
 BYTE   N11  Gn2
 BYTE   N11  An2
 BYTE   N11  En3
 BYTE   W12
 BYTE   N05  Fs2
 BYTE   N05  An2
 BYTE   N05  Ds3
 BYTE   N05  Bn2
 BYTE   W06
 BYTE   N11  Fs2
 BYTE   N11  An2
 BYTE   N11  Ds3
 BYTE   N11  Bn2
 BYTE   W12
 BYTE   N17  An2
 BYTE   N17  En3
 BYTE   N17  Dn3
 BYTE   N17  Bn2
 BYTE   W18
 BYTE   N11  En2
 BYTE   N11  Gn2
 BYTE   N11  Dn2
 BYTE   N11  Bn2
 BYTE   W12
 BYTE   N23  An2
 BYTE   N23  En3
 BYTE   N23  Dn3
 BYTE   N23  Bn2
 BYTE   W12
 BYTE   PEND 
//  #02 //025   ----------------------------------------
Label_01026053:
 BYTE   W12
 BYTE   N17  En3  v085
 BYTE   N17  Bn2
 BYTE   N17  Dn3
 BYTE   N17  An2
 BYTE   W18
 BYTE   En3
 BYTE   N17  Bn2
 BYTE   N17  Dn3
 BYTE   N17  An2
 BYTE   W18
 BYTE   N32  En3  v085  gtp3
 BYTE   Bn2
 BYTE   N32  Dn3  v085  gtp3
 BYTE   An2
 BYTE   W36
 BYTE   N23
 BYTE   N23  Dn3
 BYTE   N23  En3
 BYTE   N23  Bn2
 BYTE   W12
 BYTE   PEND 
//  #02 //026   ----------------------------------------
Label_0102607A:
 BYTE   W12
 BYTE   N17  Gn3  v085
 BYTE   N17  Cn3
 BYTE   N17  En3
 BYTE   N17  Bn2
 BYTE   W18
 BYTE   Gn3
 BYTE   N17  Cn3
 BYTE   N17  En3
 BYTE   N17  Bn2
 BYTE   W18
 BYTE   N32  Gn3  v085  gtp3
 BYTE   Cn3
 BYTE   N32  En3  v085  gtp3
 BYTE   Bn2
 BYTE   W36
 BYTE   N23  Gn3
 BYTE   N23  Cn3
 BYTE   N23  En3
 BYTE   N23  Bn2
 BYTE   W12
 BYTE   PEND 
//  #02 //027   ----------------------------------------
Label_010260A2:
 BYTE   W12
 BYTE   N17  Fs3  v085
 BYTE   N17  Bn2
 BYTE   N17  Dn3
 BYTE   N17  An2
 BYTE   W18
 BYTE   Fs3
 BYTE   N17  Bn2
 BYTE   N17  Dn3
 BYTE   N17  An2
 BYTE   W18
 BYTE   N32  Fs3  v085  gtp3
 BYTE   Bn2
 BYTE   N32  Dn3  v085  gtp3
 BYTE   An2
 BYTE   W36
 BYTE   N23  Fs3
 BYTE   N23  Bn2
 BYTE   N23  Dn3
 BYTE   N23  An2
 BYTE   W12
 BYTE   PEND 
//  #02 //028   ----------------------------------------
Label_010260CA:
 BYTE   W12
 BYTE   N17  Gn3  v085
 BYTE   N17  Dn3
 BYTE   N17  En3
 BYTE   N17  Bn2
 BYTE   W18
 BYTE   Gn3
 BYTE   N17  Dn3
 BYTE   N17  En3
 BYTE   N17  Bn2
 BYTE   W18
 BYTE   N23  Gn3
 BYTE   N23  Dn3
 BYTE   N23  En3
 BYTE   N23  Bn2
 BYTE   W24
 BYTE   N05  Gn3
 BYTE   N05  Dn3
 BYTE   N05  En3
 BYTE   N05  Bn2
 BYTE   W06
 BYTE   Gn3
 BYTE   N05  Dn3
 BYTE   N05  En3
 BYTE   N05  Bn2
 BYTE   W06
 BYTE   N23  An2
 BYTE   N23  Dn3
 BYTE   N23  En3
 BYTE   N23  Bn2
 BYTE   W12
 BYTE   PEND 
//  #02 //029   ----------------------------------------
Label_01026101:
 BYTE   W12
 BYTE   N17  En3  v085
 BYTE   N17  Bn2
 BYTE   N17  Dn3
 BYTE   N17  An2
 BYTE   W18
 BYTE   En3
 BYTE   N17  Bn2
 BYTE   N17  Dn3
 BYTE   N17  An2
 BYTE   W18
 BYTE   N23  En3
 BYTE   N23  Bn2
 BYTE   N23  Dn3
 BYTE   N23  An2
 BYTE   W24
 BYTE   N11  En3
 BYTE   N11  Bn2
 BYTE   N11  Dn3
 BYTE   N11  An2
 BYTE   W12
 BYTE   N23
 BYTE   N23  Dn3
 BYTE   N23  En3
 BYTE   N23  Bn2
 BYTE   W12
 BYTE   PEND 
//  #02 //030   ----------------------------------------
 BYTE   PATT
  POIN2 Label_0102607A
//  #02 //031   ----------------------------------------
 BYTE   PATT
  POIN2 Label_010260A2
//  #02 //032   ----------------------------------------
Label_01026139:
 BYTE   W12
 BYTE   N17  An2  v085
 BYTE   N17  Cn3
 BYTE   N17  Ds3
 BYTE   N17  Fs3
 BYTE   W18
 BYTE   An2
 BYTE   N17  Cn3
 BYTE   N17  Ds3
 BYTE   N17  Fs3
 BYTE   W18
 BYTE   N32  An2  v085  gtp3
 BYTE   Cn3
 BYTE   N32  Ds3  v085  gtp3
 BYTE   Fs3
 BYTE   W36
 BYTE   N23  An2
 BYTE   N23  Bn2
 BYTE   N23  Dn3
 BYTE   N23  Fs3
 BYTE   W12
 BYTE   PEND 
//  #02 //033   ----------------------------------------
 BYTE   PATT
  POIN2 Label_01025DC1
//  #02 //034   ----------------------------------------
 BYTE   PATT
  POIN2 Label_01025E09
//  #02 //035   ----------------------------------------
Label_0102616B:
 BYTE   N11  Gn3  v085
 BYTE   N11  Dn3
 BYTE   N11  En3
 BYTE   N11  Bn2
 BYTE   W12
 BYTE   Bn2
 BYTE   N11  Gn3
 BYTE   N11  Cn3
 BYTE   N11  En3
 BYTE   W12
 BYTE   Bn2
 BYTE   N11  Gn3
 BYTE   N11  Cn3
 BYTE   N11  En3
 BYTE   W12
 BYTE   N05  Bn2
 BYTE   N05  Gn3
 BYTE   N05  Cn3
 BYTE   N05  En3
 BYTE   W06
 BYTE   N11  Bn2
 BYTE   N11  Gn3
 BYTE   N11  Cn3
 BYTE   N11  En3
 BYTE   W12
 BYTE   Bn2
 BYTE   N11  Gn3
 BYTE   N11  Cn3
 BYTE   N11  En3
 BYTE   W12
 BYTE   Bn2
 BYTE   N11  Gn3
 BYTE   N11  Cn3
 BYTE   N11  En3
 BYTE   W12
 BYTE   N05  Bn2
 BYTE   N05  Gn3
 BYTE   N05  Cn3
 BYTE   N05  En3
 BYTE   W06
 BYTE   N11  Bn2
 BYTE   N11  Gn3
 BYTE   N11  Cn3
 BYTE   N11  En3
 BYTE   W12
 BYTE   PEND 
//  #02 //036   ----------------------------------------
Label_010261BA:
 BYTE   N11  Bn2  v085
 BYTE   N11  Gn3
 BYTE   N11  Cn3
 BYTE   N11  En3
 BYTE   W12
 BYTE   Bn2
 BYTE   N11  Gn3
 BYTE   N11  Cn3
 BYTE   N11  En3
 BYTE   W12
 BYTE   Bn2
 BYTE   N11  Gn3
 BYTE   N11  Cn3
 BYTE   N11  En3
 BYTE   W12
 BYTE   N05  Bn2
 BYTE   N05  Gn3
 BYTE   N05  Cn3
 BYTE   N05  En3
 BYTE   W06
 BYTE   N11  Bn2
 BYTE   N11  Gn3
 BYTE   N11  Cn3
 BYTE   N11  En3
 BYTE   W12
 BYTE   Bn2
 BYTE   N11  Gn3
 BYTE   N11  Cn3
 BYTE   N11  En3
 BYTE   W12
 BYTE   Bn2
 BYTE   N11  Gn3
 BYTE   N11  Cn3
 BYTE   N11  En3
 BYTE   W12
 BYTE   N05  Bn2
 BYTE   N05  Gn3
 BYTE   N05  Cn3
 BYTE   N05  En3
 BYTE   W06
 BYTE   N11  Bn2
 BYTE   N11  Gn3
 BYTE   N11  Cn3
 BYTE   N11  En3
 BYTE   W12
 BYTE   PEND 
//  #02 //037   ----------------------------------------
Label_01026209:
 BYTE   N11  Bn2  v085
 BYTE   N11  Gn3
 BYTE   N11  Cn3
 BYTE   N11  En3
 BYTE   W12
 BYTE   Bn2
 BYTE   N11  An3
 BYTE   N11  Dn3
 BYTE   N11  Fs3
 BYTE   W12
 BYTE   Bn2
 BYTE   N11  An3
 BYTE   N11  Dn3
 BYTE   N11  Fs3
 BYTE   W12
 BYTE   N05  Bn2
 BYTE   N05  An3
 BYTE   N05  Dn3
 BYTE   N05  Fs3
 BYTE   W06
 BYTE   N11  Bn2
 BYTE   N11  An3
 BYTE   N11  Dn3
 BYTE   N11  Fs3
 BYTE   W12
 BYTE   Bn2
 BYTE   N11  An3
 BYTE   N11  Dn3
 BYTE   N11  Fs3
 BYTE   W12
 BYTE   Bn2
 BYTE   N11  An3
 BYTE   N11  Dn3
 BYTE   N11  Fs3
 BYTE   W12
 BYTE   N05  Bn2
 BYTE   N05  An3
 BYTE   N05  Dn3
 BYTE   N05  Fs3
 BYTE   W06
 BYTE   N11  Bn2
 BYTE   N11  An3
 BYTE   N11  Dn3
 BYTE   N11  Fs3
 BYTE   W12
 BYTE   PEND 
//  #02 //038   ----------------------------------------
Label_01026258:
 BYTE   N11  Bn2  v085
 BYTE   N11  An3
 BYTE   N11  Dn3
 BYTE   N11  Fs3
 BYTE   W12
 BYTE   Bn2
 BYTE   N11  An3
 BYTE   N11  Dn3
 BYTE   N11  Fs3
 BYTE   W12
 BYTE   Bn2
 BYTE   N11  An3
 BYTE   N11  Dn3
 BYTE   N11  Fs3
 BYTE   W12
 BYTE   N05  Bn2
 BYTE   N05  An3
 BYTE   N05  Dn3
 BYTE   N05  Fs3
 BYTE   W06
 BYTE   N11  Bn2
 BYTE   N11  An3
 BYTE   N11  Dn3
 BYTE   N11  Fs3
 BYTE   W12
 BYTE   Bn2
 BYTE   N11  An3
 BYTE   N11  Dn3
 BYTE   N11  Fs3
 BYTE   W12
 BYTE   Bn2
 BYTE   N11  An3
 BYTE   N11  Dn3
 BYTE   N11  Fs3
 BYTE   W12
 BYTE   N05  Bn2
 BYTE   N05  An3
 BYTE   N05  Dn3
 BYTE   N05  Fs3
 BYTE   W06
 BYTE   N11  Bn2
 BYTE   N11  An3
 BYTE   N11  Dn3
 BYTE   N11  Fs3
 BYTE   W12
 BYTE   PEND 
//  #02 //039   ----------------------------------------
Label_010262A7:
 BYTE   N11  Bn2  v085
 BYTE   N11  An3
 BYTE   N11  Dn3
 BYTE   N11  Fs3
 BYTE   W12
 BYTE   Gn3
 BYTE   N11  Dn3
 BYTE   N11  En3
 BYTE   N11  Bn2
 BYTE   W12
 BYTE   Gn3
 BYTE   N11  Dn3
 BYTE   N11  En3
 BYTE   N11  Bn2
 BYTE   W12
 BYTE   N05  Gn3
 BYTE   N05  Dn3
 BYTE   N05  En3
 BYTE   N05  Bn2
 BYTE   W06
 BYTE   N11  Gn3
 BYTE   N11  Dn3
 BYTE   N11  En3
 BYTE   N11  Bn2
 BYTE   W12
 BYTE   Gn3
 BYTE   N11  Dn3
 BYTE   N11  En3
 BYTE   N11  Bn2
 BYTE   W12
 BYTE   Gn3
 BYTE   N11  Dn3
 BYTE   N11  En3
 BYTE   N11  Bn2
 BYTE   W12
 BYTE   N05  Gn3
 BYTE   N05  Dn3
 BYTE   N05  En3
 BYTE   N05  Bn2
 BYTE   W06
 BYTE   N11  Gn3
 BYTE   N11  Dn3
 BYTE   N11  En3
 BYTE   N11  Bn2
 BYTE   W12
 BYTE   PEND 
//  #02 //040   ----------------------------------------
 BYTE   PATT
  POIN2 Label_01025E09
//  #02 //041   ----------------------------------------
 BYTE   PATT
  POIN2 Label_0102616B
//  #02 //042   ----------------------------------------
 BYTE   PATT
  POIN2 Label_010261BA
//  #02 //043   ----------------------------------------
 BYTE   PATT
  POIN2 Label_01026209
//  #02 //044   ----------------------------------------
 BYTE   PATT
  POIN2 Label_01026258
//  #02 //045   ----------------------------------------
Label_0102630F:
 BYTE   N11  Bn2  v085
 BYTE   N11  An3
 BYTE   N11  Dn3
 BYTE   N11  Fs3
 BYTE   W12
 BYTE   N44  An2  v085  gtp3
 BYTE   Gn3
 BYTE   N44  Cn3  v085  gtp3
 BYTE   En3
 BYTE   W48
 BYTE   N32  An2  v085  gtp3
 BYTE   Fs3
 BYTE   N32  Bn2  v085  gtp3
 BYTE   Dn3
 BYTE   W36
 BYTE   PEND 
//  #02 //046   ----------------------------------------
Label_01026330:
 BYTE   N23  Bn2  v085
 BYTE   N23  Gn3
 BYTE   N23  Dn3
 BYTE   N23  En3
 BYTE   W24
 BYTE   N11  Gn3
 BYTE   N11  Dn3
 BYTE   N11  En3
 BYTE   N11  Bn2
 BYTE   W12
 BYTE   N05  Gn3
 BYTE   N05  Dn3
 BYTE   N05  En3
 BYTE   N05  Bn2
 BYTE   W06
 BYTE   N11  Gn3
 BYTE   N11  Dn3
 BYTE   N11  En3
 BYTE   N11  Bn2
 BYTE   W12
 BYTE   Gn3
 BYTE   N11  Dn3
 BYTE   N11  En3
 BYTE   N11  Bn2
 BYTE   W12
 BYTE   Gn3
 BYTE   N11  Dn3
 BYTE   N11  En3
 BYTE   N11  Bn2
 BYTE   W12
 BYTE   N05  Gn3
 BYTE   N05  Dn3
 BYTE   N05  En3
 BYTE   N05  Bn2
 BYTE   W06
 BYTE   N11  Gn3
 BYTE   N11  Dn3
 BYTE   N11  En3
 BYTE   N11  Bn2
 BYTE   W12
 BYTE   PEND 
//  #02 //047   ----------------------------------------
 BYTE   PATT
  POIN2 Label_01025E09
//  #02 //048   ----------------------------------------
 BYTE   PATT
  POIN2 Label_0102616B
//  #02 //049   ----------------------------------------
 BYTE   PATT
  POIN2 Label_010261BA
//  #02 //050   ----------------------------------------
 BYTE   PATT
  POIN2 Label_01026209
//  #02 //051   ----------------------------------------
 BYTE   PATT
  POIN2 Label_01026258
//  #02 //052   ----------------------------------------
 BYTE   PATT
  POIN2 Label_010262A7
//  #02 //053   ----------------------------------------
 BYTE   PATT
  POIN2 Label_01025E09
//  #02 //054   ----------------------------------------
 BYTE   PATT
  POIN2 Label_01025E09
//  #02 //055   ----------------------------------------
 BYTE   PATT
  POIN2 Label_01025BE2
//  #02 //056   ----------------------------------------
 BYTE   PATT
  POIN2 Label_01025C31
//  #02 //057   ----------------------------------------
 BYTE   PATT
  POIN2 Label_01025C80
//  #02 //058   ----------------------------------------
 BYTE   PATT
  POIN2 Label_01025C31
//  #02 //059   ----------------------------------------
 BYTE   PATT
  POIN2 Label_01025CD4
//  #02 //060   ----------------------------------------
 BYTE   PATT
  POIN2 Label_01025D23
//  #02 //061   ----------------------------------------
 BYTE   PATT
  POIN2 Label_01025D72
//  #02 //062   ----------------------------------------
 BYTE   PATT
  POIN2 Label_01025DC1
//  #02 //063   ----------------------------------------
 BYTE   PATT
  POIN2 Label_01025E09
//  #02 //064   ----------------------------------------
 BYTE   PATT
  POIN2 Label_01025E58
//  #02 //065   ----------------------------------------
 BYTE   PATT
  POIN2 Label_01025EA7
//  #02 //066   ----------------------------------------
 BYTE   PATT
  POIN2 Label_01025E09
//  #02 //067   ----------------------------------------
 BYTE   PATT
  POIN2 Label_01025E09
//  #02 //068   ----------------------------------------
 BYTE   PATT
  POIN2 Label_01025F00
//  #02 //069   ----------------------------------------
 BYTE   PATT
  POIN2 Label_01025F4F
//  #02 //070   ----------------------------------------
 BYTE   PATT
  POIN2 Label_01025F9E
//  #02 //071   ----------------------------------------
 BYTE   PATT
  POIN2 Label_01025E09
//  #02 //072   ----------------------------------------
 BYTE   PATT
  POIN2 Label_01025E58
//  #02 //073   ----------------------------------------
 BYTE   PATT
  POIN2 Label_01025EA7
//  #02 //074   ----------------------------------------
 BYTE   PATT
  POIN2 Label_01025E09
//  #02 //075   ----------------------------------------
 BYTE   PATT
  POIN2 Label_01025E09
//  #02 //076   ----------------------------------------
 BYTE   PATT
  POIN2 Label_01025F00
//  #02 //077   ----------------------------------------
 BYTE   PATT
  POIN2 Label_0102600B
//  #02 //078   ----------------------------------------
 BYTE   PATT
  POIN2 Label_01026053
//  #02 //079   ----------------------------------------
 BYTE   PATT
  POIN2 Label_0102607A
//  #02 //080   ----------------------------------------
 BYTE   PATT
  POIN2 Label_010260A2
//  #02 //081   ----------------------------------------
 BYTE   PATT
  POIN2 Label_010260CA
//  #02 //082   ----------------------------------------
 BYTE   PATT
  POIN2 Label_01026101
//  #02 //083   ----------------------------------------
 BYTE   PATT
  POIN2 Label_0102607A
//  #02 //084   ----------------------------------------
 BYTE   PATT
  POIN2 Label_010260A2
//  #02 //085   ----------------------------------------
 BYTE   PATT
  POIN2 Label_01026139
//  #02 //086   ----------------------------------------
 BYTE   PATT
  POIN2 Label_01025DC1
//  #02 //087   ----------------------------------------
 BYTE   PATT
  POIN2 Label_01025E09
//  #02 //088   ----------------------------------------
 BYTE   PATT
  POIN2 Label_0102616B
//  #02 //089   ----------------------------------------
 BYTE   PATT
  POIN2 Label_010261BA
//  #02 //090   ----------------------------------------
 BYTE   PATT
  POIN2 Label_01026209
//  #02 //091   ----------------------------------------
 BYTE   PATT
  POIN2 Label_01026258
//  #02 //092   ----------------------------------------
 BYTE   PATT
  POIN2 Label_010262A7
//  #02 //093   ----------------------------------------
 BYTE   PATT
  POIN2 Label_01025E09
//  #02 //094   ----------------------------------------
 BYTE   PATT
  POIN2 Label_0102616B
//  #02 //095   ----------------------------------------
 BYTE   PATT
  POIN2 Label_010261BA
//  #02 //096   ----------------------------------------
 BYTE   PATT
  POIN2 Label_01026209
//  #02 //097   ----------------------------------------
 BYTE   PATT
  POIN2 Label_01026258
//  #02 //098   ----------------------------------------
 BYTE   PATT
  POIN2 Label_0102630F
//  #02 //099   ----------------------------------------
 BYTE   PATT
  POIN2 Label_01026330
//  #02 //100   ----------------------------------------
 BYTE   PATT
  POIN2 Label_01025E09
//  #02 //101   ----------------------------------------
 BYTE   PATT
  POIN2 Label_0102616B
//  #02 //102   ----------------------------------------
 BYTE   PATT
  POIN2 Label_010261BA
//  #02 //103   ----------------------------------------
 BYTE   PATT
  POIN2 Label_01026209
//  #02 //104   ----------------------------------------
 BYTE   PATT
  POIN2 Label_01026258
//  #02 //105   ----------------------------------------
 BYTE   PATT
  POIN2 Label_010262A7
//  #02 //106   ----------------------------------------
 BYTE   PATT
  POIN2 Label_01025E09
//  #02 //107   ----------------------------------------
 BYTE   N11  Gn3  v085
 BYTE   N11  Dn3
 BYTE   N11  En3
 BYTE   N11  Bn2
 BYTE   GoTo
  POIN2 Label_01025B9B
//  #02 //108   ----------------------------------------
 BYTE   W12
 BYTE   Gn3
 BYTE   N11  Dn3
 BYTE   N11  En3
 BYTE   N11  Bn2
 BYTE   W12
 BYTE   Gn3
 BYTE   N11  Dn3
 BYTE   N11  En3
 BYTE   N11  Bn2
 BYTE   W12
 BYTE   N05  Gn3
 BYTE   N05  Dn3
 BYTE   N05  En3
 BYTE   N05  Bn2
 BYTE   W06
 BYTE   N11  Gn3
 BYTE   N11  Dn3
 BYTE   N11  En3
 BYTE   N11  Bn2
 BYTE   W12
 BYTE   Gn3
 BYTE   N11  Dn3
 BYTE   N11  En3
 BYTE   N11  Bn2
 BYTE   W12
 BYTE   Gn3
 BYTE   N11  Dn3
 BYTE   N11  En3
 BYTE   N11  Bn2
 BYTE   W12
 BYTE   N05  Gn3
 BYTE   N05  Dn3
 BYTE   N05  En3
 BYTE   N05  Bn2
 BYTE   W06
 BYTE   N11  Gn3
 BYTE   N11  Dn3
 BYTE   N11  En3
 BYTE   N11  Bn2
 BYTE   W12
//  #02 //109   ----------------------------------------
 BYTE   PATT
  POIN2 Label_01025BE2
//  #02 //110   ----------------------------------------
 BYTE   PATT
  POIN2 Label_01025C31
//  #02 //111   ----------------------------------------
 BYTE   PATT
  POIN2 Label_01025C80
//  #02 //112   ----------------------------------------
 BYTE   N11  An2  v085
 BYTE   N11  Gn3
 BYTE   N11  Cs3
 BYTE   N11  En3
 BYTE   W96
//  #02 //113   ----------------------------------------
 BYTE   W12
 BYTE   FINE

//**************** Track 3 (Midi-Chn.2) ****************//

Touhou123LoveColoredMagicTak_003:
//  #03 //000   ----------------------------------------
 BYTE   KEYSH   Touhou123LoveColoredMagicTak_key+0
 BYTE   VOICE   73
 BYTE   VOL   78*Touhou123LoveColoredMagicTak_mvl/mxv
 BYTE   PAN   c_v+26
 BYTE   BENDR  12
 BYTE   W96
//  #03 //001   ----------------------------------------
Label_0102651F:
 BYTE   W96
//  #03 //002   ----------------------------------------
 BYTE   W96
//  #03 //003   ----------------------------------------
 BYTE   W96
//  #03 //004   ----------------------------------------
 BYTE   W96
//  #03 //005   ----------------------------------------
 BYTE   W96
//  #03 //006   ----------------------------------------
 BYTE   W96
//  #03 //007   ----------------------------------------
 BYTE   W96
//  #03 //008   ----------------------------------------
Label_01026526:
 BYTE   W18
 BYTE   N06  Gn3  v085
 BYTE   W06
 BYTE   An3
 BYTE   W06
 BYTE   Bn3
 BYTE   W06
 BYTE   Dn4
 BYTE   W06
 BYTE   Ds4
 BYTE   W06
 BYTE   En4
 BYTE   W06
 BYTE   N18  Fs4
 BYTE   W18
 BYTE   N06  Fn4
 BYTE   W12
 BYTE   N18  En4
 BYTE   W12
 BYTE   PEND 
//  #03 //009   ----------------------------------------
Label_0102653F:
 BYTE   W12
 BYTE   N06  Bn3  v085
 BYTE   W12
 BYTE   Dn4
 BYTE   W12
 BYTE   En4
 BYTE   W24
 BYTE   Bn3
 BYTE   W06
 BYTE   Dn4
 BYTE   W12
 BYTE   En4
 BYTE   W18
 BYTE   PEND 
//  #03 //010   ----------------------------------------
Label_0102654F:
 BYTE   N06  Bn3  v085
 BYTE   W12
 BYTE   Dn4
 BYTE   W12
 BYTE   Ds4
 BYTE   W12
 BYTE   En4
 BYTE   W12
 BYTE   Bn3
 BYTE   W06
 BYTE   N12  Gn4
 BYTE   W12
 BYTE   N06
 BYTE   W06
 BYTE   Fs4
 BYTE   W12
 BYTE   En4
 BYTE   W12
 BYTE   PEND 
//  #03 //011   ----------------------------------------
Label_01026565:
 BYTE   N06  Dn4  v085
 BYTE   W12
 BYTE   An3
 BYTE   W12
 BYTE   Bn3
 BYTE   W12
 BYTE   Dn4
 BYTE   W24
 BYTE   An3
 BYTE   W06
 BYTE   Bn3
 BYTE   W12
 BYTE   Dn4
 BYTE   W18
 BYTE   PEND 
//  #03 //012   ----------------------------------------
Label_01026576:
 BYTE   N06  An3  v085
 BYTE   W06
 BYTE   As3
 BYTE   W06
 BYTE   Bn3
 BYTE   W12
 BYTE   Dn4
 BYTE   W12
 BYTE   En4
 BYTE   W12
 BYTE   Bn3
 BYTE   W06
 BYTE   N12  Gn4
 BYTE   W12
 BYTE   N06
 BYTE   W06
 BYTE   Fs4
 BYTE   W12
 BYTE   En4
 BYTE   W12
 BYTE   PEND 
//  #03 //013   ----------------------------------------
Label_0102658E:
 BYTE   N06  Dn4  v085
 BYTE   W12
 BYTE   Bn3
 BYTE   W12
 BYTE   Dn4
 BYTE   W12
 BYTE   En4
 BYTE   W24
 BYTE   Bn3
 BYTE   W06
 BYTE   Dn4
 BYTE   W12
 BYTE   En4
 BYTE   W18
 BYTE   PEND 
//  #03 //014   ----------------------------------------
 BYTE   PATT
  POIN2 Label_0102654F
//  #03 //015   ----------------------------------------
Label_010265A4:
 BYTE   N06  Fs4  v085
 BYTE   W12
 BYTE   Gn4
 BYTE   W12
 BYTE   An4
 BYTE   W12
 BYTE   Fs4
 BYTE   W12
 BYTE   Gn4
 BYTE   W06
 BYTE   N12  En4
 BYTE   BEND   c_v-1
 BYTE   W01
 BYTE   BEND   c_v+0
 BYTE   W11
 BYTE   N06
 BYTE   W06
 BYTE   Fs4
 BYTE   W12
 BYTE   Dn4
 BYTE   W12
 BYTE   PEND 
//  #03 //016   ----------------------------------------
Label_010265BE:
 BYTE   N06  Bn3  v085
 BYTE   W12
 BYTE   Cn4
 BYTE   W12
 BYTE   An3
 BYTE   W12
 BYTE   Dn4
 BYTE   W06
 BYTE   Ds4
 BYTE   W12
 BYTE   En4
 BYTE   W42
 BYTE   PEND 
//  #03 //017   ----------------------------------------
 BYTE   PATT
  POIN2 Label_0102653F
//  #03 //018   ----------------------------------------
 BYTE   PATT
  POIN2 Label_0102654F
//  #03 //019   ----------------------------------------
 BYTE   PATT
  POIN2 Label_01026565
//  #03 //020   ----------------------------------------
 BYTE   PATT
  POIN2 Label_01026576
//  #03 //021   ----------------------------------------
 BYTE   PATT
  POIN2 Label_0102658E
//  #03 //022   ----------------------------------------
 BYTE   PATT
  POIN2 Label_0102654F
//  #03 //023   ----------------------------------------
 BYTE   PATT
  POIN2 Label_010265A4
//  #03 //024   ----------------------------------------
 BYTE   PATT
  POIN2 Label_010265BE
//  #03 //025   ----------------------------------------
 BYTE   W96
//  #03 //026   ----------------------------------------
 BYTE   W96
//  #03 //027   ----------------------------------------
 BYTE   W96
//  #03 //028   ----------------------------------------
 BYTE   W96
//  #03 //029   ----------------------------------------
 BYTE   W96
//  #03 //030   ----------------------------------------
 BYTE   W96
//  #03 //031   ----------------------------------------
 BYTE   W96
//  #03 //032   ----------------------------------------
Label_010265FC:
 BYTE   W60
 BYTE   N12  Gn4  v085
 BYTE   W12
 BYTE   N04  Fs4
 BYTE   W04
 BYTE   Gn4
 BYTE   W04
 BYTE   Fs4
 BYTE   W04
 BYTE   N12  En4
 BYTE   W12
 BYTE   PEND 
//  #03 //033   ----------------------------------------
Label_0102660C:
 BYTE   N12  Dn4  v085
 BYTE   W12
 BYTE   En4
 BYTE   W12
 BYTE   Fs4
 BYTE   W12
 BYTE   Gn4
 BYTE   W24
 BYTE   Fs4
 BYTE   W12
 BYTE   En4
 BYTE   W12
 BYTE   Dn4
 BYTE   W12
 BYTE   PEND 
//  #03 //034   ----------------------------------------
Label_0102661D:
 BYTE   N72  En4  v085
 BYTE   W72
 BYTE   N12  Bn3
 BYTE   W12
 BYTE   En4
 BYTE   W12
 BYTE   PEND 
//  #03 //035   ----------------------------------------
 BYTE   PATT
  POIN2 Label_0102660C
//  #03 //036   ----------------------------------------
Label_0102662C:
 BYTE   N72  An4  v085
 BYTE   W72
 BYTE   N12  Gn4
 BYTE   W12
 BYTE   Fs4
 BYTE   W12
 BYTE   PEND 
//  #03 //037   ----------------------------------------
Label_01026636:
 BYTE   N12  En4  v085
 BYTE   W12
 BYTE   En4
 BYTE   W12
 BYTE   Fs4
 BYTE   W12
 BYTE   Gn4
 BYTE   W24
 BYTE   Fs4
 BYTE   W12
 BYTE   En4
 BYTE   W12
 BYTE   Dn4
 BYTE   W12
 BYTE   PEND 
//  #03 //038   ----------------------------------------
Label_01026647:
 BYTE   N24  An4  v085
 BYTE   W24
 BYTE   N12  Gn4
 BYTE   W12
 BYTE   Fs4
 BYTE   W12
 BYTE   Gn4
 BYTE   W12
 BYTE   Fs4
 BYTE   W12
 BYTE   N04  En4
 BYTE   W04
 BYTE   Fs4
 BYTE   W04
 BYTE   En4
 BYTE   W04
 BYTE   N12  Dn4
 BYTE   W12
 BYTE   PEND 
//  #03 //039   ----------------------------------------
Label_0102665F:
 BYTE   N12  Bn3  v085
 BYTE   W12
 BYTE   En4
 BYTE   W12
 BYTE   Fs4
 BYTE   W12
 BYTE   Gn4
 BYTE   W24
 BYTE   Fs4
 BYTE   W12
 BYTE   En4
 BYTE   W12
 BYTE   Dn4
 BYTE   W12
 BYTE   PEND 
//  #03 //040   ----------------------------------------
 BYTE   PATT
  POIN2 Label_0102661D
//  #03 //041   ----------------------------------------
 BYTE   PATT
  POIN2 Label_0102660C
//  #03 //042   ----------------------------------------
 BYTE   PATT
  POIN2 Label_0102662C
//  #03 //043   ----------------------------------------
 BYTE   PATT
  POIN2 Label_01026636
//  #03 //044   ----------------------------------------
 BYTE   PATT
  POIN2 Label_01026647
//  #03 //045   ----------------------------------------
 BYTE   PATT
  POIN2 Label_0102665F
//  #03 //046   ----------------------------------------
 BYTE   TIE  En4  v085
 BYTE   W96
//  #03 //047   ----------------------------------------
 BYTE   W12
 BYTE   EOT
 BYTE   W84
//  #03 //048   ----------------------------------------
 BYTE   W96
//  #03 //049   ----------------------------------------
Label_01026696:
 BYTE   W90
 BYTE   N06  Bn3  v085
 BYTE   W06
 BYTE   PEND 
//  #03 //050   ----------------------------------------
Label_0102669C:
 BYTE   N06  Dn4  v085
 BYTE   W06
 BYTE   Bn3
 BYTE   W06
 BYTE   N12  En4
 BYTE   W12
 BYTE   N06  Bn3
 BYTE   W06
 BYTE   Bn3
 BYTE   W12
 BYTE   Bn3
 BYTE   W06
 BYTE   Dn4
 BYTE   W06
 BYTE   Bn3
 BYTE   W06
 BYTE   N12  En4
 BYTE   W12
 BYTE   N06  Bn3
 BYTE   W06
 BYTE   Bn3
 BYTE   W12
 BYTE   Bn3
 BYTE   W06
 BYTE   PEND 
//  #03 //051   ----------------------------------------
Label_010266BB:
 BYTE   N06  Dn4  v085
 BYTE   W06
 BYTE   Ds4
 BYTE   W06
 BYTE   N12  En4
 BYTE   W12
 BYTE   N06  Ds4
 BYTE   W06
 BYTE   N12  En4
 BYTE   W12
 BYTE   N06  Fs4
 BYTE   W06
 BYTE   Gn4
 BYTE   W06
 BYTE   Gs4
 BYTE   W06
 BYTE   N18  An4
 BYTE   W18
 BYTE   N12  Gn4
 BYTE   W18
 BYTE   PEND 
//  #03 //052   ----------------------------------------
Label_010266D8:
 BYTE   N06  Fs4  v085
 BYTE   W12
 BYTE   N36  En4
 BYTE   W36
 BYTE   N06  Bn3
 BYTE   W12
 BYTE   N18  As3
 BYTE   W18
 BYTE   N12  An3
 BYTE   W18
 BYTE   PEND 
//  #03 //053   ----------------------------------------
Label_010266E9:
 BYTE   N06  Gn3  v085
 BYTE   W12
 BYTE   N96  En3
 BYTE   W84
 BYTE   PEND 
//  #03 //054   ----------------------------------------
 BYTE   W96
//  #03 //055   ----------------------------------------
 BYTE   W96
//  #03 //056   ----------------------------------------
 BYTE   W96
//  #03 //057   ----------------------------------------
 BYTE   W96
//  #03 //058   ----------------------------------------
 BYTE   W96
//  #03 //059   ----------------------------------------
 BYTE   W96
//  #03 //060   ----------------------------------------
 BYTE   W96
//  #03 //061   ----------------------------------------
 BYTE   PATT
  POIN2 Label_01026526
//  #03 //062   ----------------------------------------
 BYTE   PATT
  POIN2 Label_0102653F
//  #03 //063   ----------------------------------------
 BYTE   PATT
  POIN2 Label_0102654F
//  #03 //064   ----------------------------------------
 BYTE   PATT
  POIN2 Label_01026565
//  #03 //065   ----------------------------------------
 BYTE   PATT
  POIN2 Label_01026576
//  #03 //066   ----------------------------------------
 BYTE   PATT
  POIN2 Label_0102658E
//  #03 //067   ----------------------------------------
 BYTE   PATT
  POIN2 Label_0102654F
//  #03 //068   ----------------------------------------
 BYTE   PATT
  POIN2 Label_010265A4
//  #03 //069   ----------------------------------------
 BYTE   PATT
  POIN2 Label_010265BE
//  #03 //070   ----------------------------------------
 BYTE   PATT
  POIN2 Label_0102653F
//  #03 //071   ----------------------------------------
 BYTE   PATT
  POIN2 Label_0102654F
//  #03 //072   ----------------------------------------
 BYTE   PATT
  POIN2 Label_01026565
//  #03 //073   ----------------------------------------
 BYTE   PATT
  POIN2 Label_01026576
//  #03 //074   ----------------------------------------
 BYTE   PATT
  POIN2 Label_0102658E
//  #03 //075   ----------------------------------------
 BYTE   PATT
  POIN2 Label_0102654F
//  #03 //076   ----------------------------------------
 BYTE   PATT
  POIN2 Label_010265A4
//  #03 //077   ----------------------------------------
 BYTE   PATT
  POIN2 Label_010265BE
//  #03 //078   ----------------------------------------
 BYTE   W96
//  #03 //079   ----------------------------------------
 BYTE   W96
//  #03 //080   ----------------------------------------
 BYTE   W96
//  #03 //081   ----------------------------------------
 BYTE   W96
//  #03 //082   ----------------------------------------
 BYTE   W96
//  #03 //083   ----------------------------------------
 BYTE   W96
//  #03 //084   ----------------------------------------
 BYTE   W96
//  #03 //085   ----------------------------------------
 BYTE   PATT
  POIN2 Label_010265FC
//  #03 //086   ----------------------------------------
 BYTE   PATT
  POIN2 Label_0102660C
//  #03 //087   ----------------------------------------
 BYTE   PATT
  POIN2 Label_0102661D
//  #03 //088   ----------------------------------------
 BYTE   PATT
  POIN2 Label_0102660C
//  #03 //089   ----------------------------------------
 BYTE   PATT
  POIN2 Label_0102662C
//  #03 //090   ----------------------------------------
 BYTE   PATT
  POIN2 Label_01026636
//  #03 //091   ----------------------------------------
 BYTE   PATT
  POIN2 Label_01026647
//  #03 //092   ----------------------------------------
 BYTE   PATT
  POIN2 Label_0102665F
//  #03 //093   ----------------------------------------
 BYTE   PATT
  POIN2 Label_0102661D
//  #03 //094   ----------------------------------------
 BYTE   PATT
  POIN2 Label_0102660C
//  #03 //095   ----------------------------------------
 BYTE   PATT
  POIN2 Label_0102662C
//  #03 //096   ----------------------------------------
 BYTE   PATT
  POIN2 Label_01026636
//  #03 //097   ----------------------------------------
 BYTE   PATT
  POIN2 Label_01026647
//  #03 //098   ----------------------------------------
 BYTE   PATT
  POIN2 Label_0102665F
//  #03 //099   ----------------------------------------
 BYTE   TIE  En4  v085
 BYTE   W96
//  #03 //100   ----------------------------------------
 BYTE   W12
 BYTE   EOT
 BYTE   W84
//  #03 //101   ----------------------------------------
 BYTE   W96
//  #03 //102   ----------------------------------------
 BYTE   PATT
  POIN2 Label_01026696
//  #03 //103   ----------------------------------------
 BYTE   PATT
  POIN2 Label_0102669C
//  #03 //104   ----------------------------------------
 BYTE   PATT
  POIN2 Label_010266BB
//  #03 //105   ----------------------------------------
 BYTE   PATT
  POIN2 Label_010266D8
//  #03 //106   ----------------------------------------
 BYTE   PATT
  POIN2 Label_010266E9
//  #03 //107   ----------------------------------------
 BYTE   GoTo
  POIN2 Label_0102651F
//  #03 //108   ----------------------------------------
 BYTE   W96
//  #03 //109   ----------------------------------------
 BYTE   W96
//  #03 //110   ----------------------------------------
 BYTE   W96
//  #03 //111   ----------------------------------------
 BYTE   W96
//  #03 //112   ----------------------------------------
 BYTE   W96
//  #03 //113   ----------------------------------------
 BYTE   W12
 BYTE   FINE

//**************** Track 4 (Midi-Chn.3) ****************//

Touhou123LoveColoredMagicTak_004:
//  #04 //000   ----------------------------------------
 BYTE   KEYSH   Touhou123LoveColoredMagicTak_key+0
 BYTE   VOICE   68
 BYTE   VOL   78*Touhou123LoveColoredMagicTak_mvl/mxv
 BYTE   PAN   c_v-28
 BYTE   BENDR  12
 BYTE   W96
//  #04 //001   ----------------------------------------
Label_0100302F:
 BYTE   N11  An3  v085
 BYTE   W12
 BYTE   N92  Bn3  v085  gtp3
 BYTE   W84
//  #04 //002   ----------------------------------------
Label_01003038:
 BYTE   W12
 BYTE   N23  Bn3  v085
 BYTE   W24
 BYTE   En4
 BYTE   W24
 BYTE   Fs4
 BYTE   W24
 BYTE   N11  Gn4
 BYTE   W12
 BYTE   PEND 
//  #04 //003   ----------------------------------------
 BYTE   TIE  Bn3
 BYTE   W96
//  #04 //004   ----------------------------------------
Label_01003048:
 BYTE   W11
 BYTE   EOT
 BYTE   Bn3
 BYTE   W01
 BYTE   N23  Bn3  v085
 BYTE   W24
 BYTE   En4
 BYTE   W24
 BYTE   Fs4
 BYTE   W24
 BYTE   N11  Gn4
 BYTE   W12
 BYTE   PEND 
//  #04 //005   ----------------------------------------
 BYTE   N92  Bn4  v085  gtp3
 BYTE   W96
//  #04 //006   ----------------------------------------
Label_0100305D:
 BYTE   N32  As4  v085  gtp3
 BYTE   W36
 BYTE   N23  An4
 BYTE   W24
 BYTE   Gn4
 BYTE   W24
 BYTE   N11  En4
 BYTE   W12
 BYTE   PEND 
//  #04 //007   ----------------------------------------
Label_0100306B:
 BYTE   N80  Bn3  v085  gtp3
 BYTE   W84
 BYTE   N11
 BYTE   W12
 BYTE   PEND 
//  #04 //008   ----------------------------------------
Label_01003073:
 BYTE   N32  An3  v085  gtp3
 BYTE   W36
 BYTE   N17  Bn3
 BYTE   W18
 BYTE   Dn4
 BYTE   W18
 BYTE   N11  Ds4
 BYTE   W12
 BYTE   En4
 BYTE   W12
 BYTE   PEND 
//  #04 //009   ----------------------------------------
 BYTE   W96
//  #04 //010   ----------------------------------------
 BYTE   W96
//  #04 //011   ----------------------------------------
 BYTE   W96
//  #04 //012   ----------------------------------------
 BYTE   W96
//  #04 //013   ----------------------------------------
 BYTE   W96
//  #04 //014   ----------------------------------------
 BYTE   W96
//  #04 //015   ----------------------------------------
 BYTE   W96
//  #04 //016   ----------------------------------------
 BYTE   W96
//  #04 //017   ----------------------------------------
 BYTE   W96
//  #04 //018   ----------------------------------------
 BYTE   W96
//  #04 //019   ----------------------------------------
 BYTE   W96
//  #04 //020   ----------------------------------------
 BYTE   W96
//  #04 //021   ----------------------------------------
 BYTE   W96
//  #04 //022   ----------------------------------------
 BYTE   W96
//  #04 //023   ----------------------------------------
 BYTE   W96
//  #04 //024   ----------------------------------------
Label_01003092:
 BYTE   W84
 BYTE   N11  Gn3  v085
 BYTE   W12
 BYTE   PEND 
//  #04 //025   ----------------------------------------
Label_01003098:
 BYTE   N11  An3  v085
 BYTE   W12
 BYTE   N56  Bn3  v085  gtp3
 BYTE   W60
 BYTE   N11  Gn3
 BYTE   W12
 BYTE   Bn3
 BYTE   W12
 BYTE   PEND 
//  #04 //026   ----------------------------------------
Label_010030A7:
 BYTE   N11  Dn4  v085
 BYTE   W12
 BYTE   N56  En4  v085  gtp3
 BYTE   W60
 BYTE   N11  Bn3
 BYTE   W12
 BYTE   Fs4
 BYTE   W12
 BYTE   PEND 
//  #04 //027   ----------------------------------------
Label_010030B6:
 BYTE   N11  Gn4  v085
 BYTE   W12
 BYTE   N44  Fs4  v085  gtp3
 BYTE   W48
 BYTE   N23  Gn4
 BYTE   W24
 BYTE   An4
 BYTE   W12
 BYTE   PEND 
//  #04 //028   ----------------------------------------
Label_010030C5:
 BYTE   W12
 BYTE   N11  Gn4  v085
 BYTE   W12
 BYTE   N04  Fs4
 BYTE   W04
 BYTE   Gn4
 BYTE   W04
 BYTE   Fs4
 BYTE   W04
 BYTE   N11  En4
 BYTE   W12
 BYTE   Dn4
 BYTE   W12
 BYTE   N23  Bn3
 BYTE   W24
 BYTE   An3
 BYTE   W12
 BYTE   PEND 
//  #04 //029   ----------------------------------------
Label_010030DC:
 BYTE   W12
 BYTE   N56  Bn3  v085  gtp3
 BYTE   W60
 BYTE   N11  Gn3
 BYTE   W12
 BYTE   Bn3
 BYTE   W12
 BYTE   PEND 
//  #04 //030   ----------------------------------------
 BYTE   PATT
  POIN2 Label_010030A7
//  #04 //031   ----------------------------------------
 BYTE   PATT
  POIN2 Label_010030B6
//  #04 //032   ----------------------------------------
Label_010030F2:
 BYTE   W12
 BYTE   N44  Bn4  v085  gtp3
 BYTE   W84
 BYTE   PEND 
//  #04 //033   ----------------------------------------
 BYTE   W96
//  #04 //034   ----------------------------------------
 BYTE   W96
//  #04 //035   ----------------------------------------
 BYTE   W96
//  #04 //036   ----------------------------------------
 BYTE   W96
//  #04 //037   ----------------------------------------
 BYTE   W96
//  #04 //038   ----------------------------------------
 BYTE   W96
//  #04 //039   ----------------------------------------
 BYTE   W96
//  #04 //040   ----------------------------------------
 BYTE   W96
//  #04 //041   ----------------------------------------
 BYTE   W96
//  #04 //042   ----------------------------------------
 BYTE   W96
//  #04 //043   ----------------------------------------
 BYTE   W96
//  #04 //044   ----------------------------------------
 BYTE   W96
//  #04 //045   ----------------------------------------
 BYTE   W96
//  #04 //046   ----------------------------------------
 BYTE   W96
//  #04 //047   ----------------------------------------
 BYTE   W96
//  #04 //048   ----------------------------------------
 BYTE   W96
//  #04 //049   ----------------------------------------
 BYTE   W96
//  #04 //050   ----------------------------------------
 BYTE   W96
//  #04 //051   ----------------------------------------
 BYTE   W96
//  #04 //052   ----------------------------------------
 BYTE   W96
//  #04 //053   ----------------------------------------
 BYTE   W96
//  #04 //054   ----------------------------------------
 BYTE   N11  An3
 BYTE   W12
 BYTE   N92  Bn3  v085  gtp3
 BYTE   W84
//  #04 //055   ----------------------------------------
 BYTE   PATT
  POIN2 Label_01003038
//  #04 //056   ----------------------------------------
 BYTE   TIE  Bn3  v085
 BYTE   W96
//  #04 //057   ----------------------------------------
 BYTE   PATT
  POIN2 Label_01003048
//  #04 //058   ----------------------------------------
 BYTE   N92  Bn4  v085  gtp3
 BYTE   W96
//  #04 //059   ----------------------------------------
 BYTE   PATT
  POIN2 Label_0100305D
//  #04 //060   ----------------------------------------
 BYTE   PATT
  POIN2 Label_0100306B
//  #04 //061   ----------------------------------------
 BYTE   PATT
  POIN2 Label_01003073
//  #04 //062   ----------------------------------------
 BYTE   W96
//  #04 //063   ----------------------------------------
 BYTE   W96
//  #04 //064   ----------------------------------------
 BYTE   W96
//  #04 //065   ----------------------------------------
 BYTE   W96
//  #04 //066   ----------------------------------------
 BYTE   W96
//  #04 //067   ----------------------------------------
 BYTE   W96
//  #04 //068   ----------------------------------------
 BYTE   W96
//  #04 //069   ----------------------------------------
 BYTE   W96
//  #04 //070   ----------------------------------------
 BYTE   W96
//  #04 //071   ----------------------------------------
 BYTE   W96
//  #04 //072   ----------------------------------------
 BYTE   W96
//  #04 //073   ----------------------------------------
 BYTE   W96
//  #04 //074   ----------------------------------------
 BYTE   W96
//  #04 //075   ----------------------------------------
 BYTE   W96
//  #04 //076   ----------------------------------------
 BYTE   W96
//  #04 //077   ----------------------------------------
 BYTE   PATT
  POIN2 Label_01003092
//  #04 //078   ----------------------------------------
 BYTE   PATT
  POIN2 Label_01003098
//  #04 //079   ----------------------------------------
 BYTE   PATT
  POIN2 Label_010030A7
//  #04 //080   ----------------------------------------
 BYTE   PATT
  POIN2 Label_010030B6
//  #04 //081   ----------------------------------------
 BYTE   PATT
  POIN2 Label_010030C5
//  #04 //082   ----------------------------------------
 BYTE   PATT
  POIN2 Label_010030DC
//  #04 //083   ----------------------------------------
 BYTE   PATT
  POIN2 Label_010030A7
//  #04 //084   ----------------------------------------
 BYTE   PATT
  POIN2 Label_010030B6
//  #04 //085   ----------------------------------------
 BYTE   PATT
  POIN2 Label_010030F2
//  #04 //086   ----------------------------------------
 BYTE   W96
//  #04 //087   ----------------------------------------
 BYTE   W96
//  #04 //088   ----------------------------------------
 BYTE   W96
//  #04 //089   ----------------------------------------
 BYTE   W96
//  #04 //090   ----------------------------------------
 BYTE   W96
//  #04 //091   ----------------------------------------
 BYTE   W96
//  #04 //092   ----------------------------------------
 BYTE   W96
//  #04 //093   ----------------------------------------
 BYTE   W96
//  #04 //094   ----------------------------------------
 BYTE   W96
//  #04 //095   ----------------------------------------
 BYTE   W96
//  #04 //096   ----------------------------------------
 BYTE   W96
//  #04 //097   ----------------------------------------
 BYTE   W96
//  #04 //098   ----------------------------------------
 BYTE   W96
//  #04 //099   ----------------------------------------
 BYTE   W96
//  #04 //100   ----------------------------------------
 BYTE   W96
//  #04 //101   ----------------------------------------
 BYTE   W96
//  #04 //102   ----------------------------------------
 BYTE   W96
//  #04 //103   ----------------------------------------
 BYTE   W96
//  #04 //104   ----------------------------------------
 BYTE   W96
//  #04 //105   ----------------------------------------
 BYTE   W96
//  #04 //106   ----------------------------------------
 BYTE   W96
//  #04 //107   ----------------------------------------
 BYTE   N11  An3  v085
 BYTE   GoTo
  POIN2 Label_0100302F
//  #04 //108   ----------------------------------------
 BYTE   W12
 BYTE   N92  Bn3  v085  gtp3
 BYTE   W84
//  #04 //109   ----------------------------------------
 BYTE   PATT
  POIN2 Label_01003038
//  #04 //110   ----------------------------------------
 BYTE   TIE  Bn3  v085
 BYTE   W96
//  #04 //111   ----------------------------------------
 BYTE   PATT
  POIN2 Label_01003048
//  #04 //112   ----------------------------------------
 BYTE   N92  Bn4  v085  gtp3
 BYTE   W96
//  #04 //113   ----------------------------------------
 BYTE   W12
 BYTE   FINE

//**************** Track 5 (Midi-Chn.4) ****************//

Touhou123LoveColoredMagicTak_005:
//  #05 //000   ----------------------------------------
 BYTE   KEYSH   Touhou123LoveColoredMagicTak_key+0
 BYTE   VOICE   41
 BYTE   PAN   c_v-51
 BYTE   VOL   65*Touhou123LoveColoredMagicTak_mvl/mxv
 BYTE   BENDR  12
 BYTE   W96
//  #05 //001   ----------------------------------------
Label_010041C3:
 BYTE   W96
//  #05 //002   ----------------------------------------
 BYTE   W96
//  #05 //003   ----------------------------------------
 BYTE   W96
//  #05 //004   ----------------------------------------
 BYTE   W96
//  #05 //005   ----------------------------------------
 BYTE   W96
//  #05 //006   ----------------------------------------
 BYTE   W96
//  #05 //007   ----------------------------------------
 BYTE   W96
//  #05 //008   ----------------------------------------
 BYTE   W96
//  #05 //009   ----------------------------------------
 BYTE   W96
//  #05 //010   ----------------------------------------
 BYTE   W96
//  #05 //011   ----------------------------------------
 BYTE   W96
//  #05 //012   ----------------------------------------
 BYTE   W96
//  #05 //013   ----------------------------------------
 BYTE   W96
//  #05 //014   ----------------------------------------
 BYTE   W96
//  #05 //015   ----------------------------------------
 BYTE   W96
//  #05 //016   ----------------------------------------
 BYTE   W96
//  #05 //017   ----------------------------------------
 BYTE   W96
//  #05 //018   ----------------------------------------
 BYTE   W96
//  #05 //019   ----------------------------------------
 BYTE   W96
//  #05 //020   ----------------------------------------
 BYTE   W96
//  #05 //021   ----------------------------------------
 BYTE   W96
//  #05 //022   ----------------------------------------
 BYTE   W96
//  #05 //023   ----------------------------------------
 BYTE   W96
//  #05 //024   ----------------------------------------
 BYTE   W96
//  #05 //025   ----------------------------------------
 BYTE   W96
//  #05 //026   ----------------------------------------
 BYTE   W96
//  #05 //027   ----------------------------------------
 BYTE   W96
//  #05 //028   ----------------------------------------
 BYTE   W96
//  #05 //029   ----------------------------------------
 BYTE   W96
//  #05 //030   ----------------------------------------
 BYTE   W96
//  #05 //031   ----------------------------------------
 BYTE   W96
//  #05 //032   ----------------------------------------
Label_010041E2:
 BYTE   W60
 BYTE   N11  Bn4  v085
 BYTE   W12
 BYTE   N04  An4
 BYTE   W04
 BYTE   Bn4
 BYTE   W04
 BYTE   An4
 BYTE   W04
 BYTE   N11  Gn4
 BYTE   W12
 BYTE   PEND 
//  #05 //033   ----------------------------------------
Label_010041F2:
 BYTE   N11  Fs4  v085
 BYTE   W12
 BYTE   TIE  Gn4
 BYTE   W84
 BYTE   PEND 
//  #05 //034   ----------------------------------------
Label_010041FA:
 BYTE   W23
 BYTE   EOT
 BYTE   Gn4
 BYTE   W01
 BYTE   N11  En5  v085
 BYTE   W12
 BYTE   Bn4
 BYTE   W12
 BYTE   As4
 BYTE   W12
 BYTE   N17  An4
 BYTE   W18
 BYTE   Gn4
 BYTE   W18
 BYTE   PEND 
//  #05 //035   ----------------------------------------
Label_0100420C:
 BYTE   N11  Dn4  v085
 BYTE   W12
 BYTE   TIE  En4
 BYTE   W84
 BYTE   PEND 
//  #05 //036   ----------------------------------------
Label_01004214:
 BYTE   W23
 BYTE   EOT
 BYTE   En4
 BYTE   W01
 BYTE   N11  En4  v085
 BYTE   W12
 BYTE   Fs4
 BYTE   W12
 BYTE   Gn4
 BYTE   W12
 BYTE   N17  Fs4
 BYTE   W18
 BYTE   Gn4
 BYTE   W18
 BYTE   PEND 
//  #05 //037   ----------------------------------------
Label_01004226:
 BYTE   N11  Bn4  v085
 BYTE   W12
 BYTE   N80  An4  v085  gtp3
 BYTE   W84
 BYTE   PEND 
//  #05 //038   ----------------------------------------
Label_01004230:
 BYTE   N23  Cn5  v085
 BYTE   W24
 BYTE   N11  Bn4
 BYTE   W12
 BYTE   An4
 BYTE   W12
 BYTE   Bn4
 BYTE   W12
 BYTE   An4
 BYTE   W12
 BYTE   N04  Gn4
 BYTE   W04
 BYTE   An4
 BYTE   W04
 BYTE   Gn4
 BYTE   W04
 BYTE   N11  Fs4
 BYTE   W12
 BYTE   PEND 
//  #05 //039   ----------------------------------------
 BYTE   PATT
  POIN2 Label_0100420C
//  #05 //040   ----------------------------------------
Label_0100424D:
 BYTE   W23
 BYTE   EOT
 BYTE   En4
 BYTE   W01
 BYTE   N11  En5  v085
 BYTE   W12
 BYTE   Bn4
 BYTE   W12
 BYTE   As4
 BYTE   W12
 BYTE   N17  An4
 BYTE   W18
 BYTE   Gn4
 BYTE   W18
 BYTE   PEND 
//  #05 //041   ----------------------------------------
 BYTE   PATT
  POIN2 Label_0100420C
//  #05 //042   ----------------------------------------
Label_01004264:
 BYTE   W23
 BYTE   EOT
 BYTE   En4
 BYTE   W01
 BYTE   N11  Bn3  v085
 BYTE   W12
 BYTE   Dn4
 BYTE   W12
 BYTE   En4
 BYTE   W12
 BYTE   N17  Fs4
 BYTE   W18
 BYTE   Gn4
 BYTE   W18
 BYTE   PEND 
//  #05 //043   ----------------------------------------
Label_01004276:
 BYTE   N11  An4  v085
 BYTE   W12
 BYTE   N80  Bn4  v085  gtp3
 BYTE   W84
 BYTE   PEND 
//  #05 //044   ----------------------------------------
Label_01004280:
 BYTE   N23  Cn5  v085
 BYTE   W24
 BYTE   N11  Bn4
 BYTE   W12
 BYTE   Cn5
 BYTE   W12
 BYTE   Dn5
 BYTE   W12
 BYTE   En5
 BYTE   W12
 BYTE   N04  Dn5
 BYTE   W04
 BYTE   En5
 BYTE   W04
 BYTE   Dn5
 BYTE   W04
 BYTE   N11  Cn5
 BYTE   W12
 BYTE   PEND 
//  #05 //045   ----------------------------------------
Label_01004298:
 BYTE   N11  An4  v085
 BYTE   W12
 BYTE   N44  Gn4  v085  gtp3
 BYTE   W48
 BYTE   N11  An4
 BYTE   W12
 BYTE   Gn4
 BYTE   W12
 BYTE   Fs4
 BYTE   W12
 BYTE   PEND 
//  #05 //046   ----------------------------------------
 BYTE   TIE  En4
 BYTE   W96
//  #05 //047   ----------------------------------------
Label_010042AC:
 BYTE   W23
 BYTE   EOT
 BYTE   En4
 BYTE   W01
 BYTE   N05  Ds4  v116
 BYTE   W06
 BYTE   En4
 BYTE   W06
 BYTE   Fs4
 BYTE   W06
 BYTE   En4
 BYTE   W06
 BYTE   Gn4
 BYTE   W06
 BYTE   Fs4
 BYTE   W06
 BYTE   An4
 BYTE   W06
 BYTE   Gn4
 BYTE   W06
 BYTE   Bn4
 BYTE   W06
 BYTE   As4
 BYTE   W06
 BYTE   Cn5
 BYTE   W06
 BYTE   Bn4
 BYTE   W06
 BYTE   PEND 
//  #05 //048   ----------------------------------------
Label_010042CB:
 BYTE   N05  Dn5  v116
 BYTE   W06
 BYTE   Cn5
 BYTE   W06
 BYTE   N17  En5
 BYTE   W18
 BYTE   Bn4
 BYTE   W18
 BYTE   N11  As4
 BYTE   W12
 BYTE   N17  Gn4
 BYTE   W18
 BYTE   En4
 BYTE   W18
 BYTE   PEND 
//  #05 //049   ----------------------------------------
Label_010042DF:
 BYTE   N11  Ds4  v116
 BYTE   W12
 BYTE   TIE  En4
 BYTE   W84
 BYTE   PEND 
//  #05 //050   ----------------------------------------
 BYTE   W56
 BYTE   W03
 BYTE   EOT
 BYTE   W36
 BYTE   W01
//  #05 //051   ----------------------------------------
 BYTE   W96
//  #05 //052   ----------------------------------------
 BYTE   W96
//  #05 //053   ----------------------------------------
 BYTE   W96
//  #05 //054   ----------------------------------------
 BYTE   W96
//  #05 //055   ----------------------------------------
 BYTE   W96
//  #05 //056   ----------------------------------------
 BYTE   W96
//  #05 //057   ----------------------------------------
 BYTE   W96
//  #05 //058   ----------------------------------------
 BYTE   W96
//  #05 //059   ----------------------------------------
 BYTE   W96
//  #05 //060   ----------------------------------------
 BYTE   W96
//  #05 //061   ----------------------------------------
 BYTE   W96
//  #05 //062   ----------------------------------------
 BYTE   W96
//  #05 //063   ----------------------------------------
 BYTE   W96
//  #05 //064   ----------------------------------------
 BYTE   W96
//  #05 //065   ----------------------------------------
 BYTE   W96
//  #05 //066   ----------------------------------------
 BYTE   W96
//  #05 //067   ----------------------------------------
 BYTE   W96
//  #05 //068   ----------------------------------------
 BYTE   W96
//  #05 //069   ----------------------------------------
 BYTE   W96
//  #05 //070   ----------------------------------------
 BYTE   W96
//  #05 //071   ----------------------------------------
 BYTE   W96
//  #05 //072   ----------------------------------------
 BYTE   W96
//  #05 //073   ----------------------------------------
 BYTE   W96
//  #05 //074   ----------------------------------------
 BYTE   W96
//  #05 //075   ----------------------------------------
 BYTE   W96
//  #05 //076   ----------------------------------------
 BYTE   W96
//  #05 //077   ----------------------------------------
 BYTE   W96
//  #05 //078   ----------------------------------------
 BYTE   W96
//  #05 //079   ----------------------------------------
 BYTE   W96
//  #05 //080   ----------------------------------------
 BYTE   W96
//  #05 //081   ----------------------------------------
 BYTE   W96
//  #05 //082   ----------------------------------------
 BYTE   W96
//  #05 //083   ----------------------------------------
 BYTE   W96
//  #05 //084   ----------------------------------------
 BYTE   W96
//  #05 //085   ----------------------------------------
 BYTE   PATT
  POIN2 Label_010041E2
//  #05 //086   ----------------------------------------
 BYTE   PATT
  POIN2 Label_010041F2
//  #05 //087   ----------------------------------------
 BYTE   PATT
  POIN2 Label_010041FA
//  #05 //088   ----------------------------------------
 BYTE   PATT
  POIN2 Label_0100420C
//  #05 //089   ----------------------------------------
 BYTE   PATT
  POIN2 Label_01004214
//  #05 //090   ----------------------------------------
 BYTE   PATT
  POIN2 Label_01004226
//  #05 //091   ----------------------------------------
 BYTE   PATT
  POIN2 Label_01004230
//  #05 //092   ----------------------------------------
 BYTE   PATT
  POIN2 Label_0100420C
//  #05 //093   ----------------------------------------
 BYTE   PATT
  POIN2 Label_0100424D
//  #05 //094   ----------------------------------------
 BYTE   PATT
  POIN2 Label_0100420C
//  #05 //095   ----------------------------------------
 BYTE   PATT
  POIN2 Label_01004264
//  #05 //096   ----------------------------------------
 BYTE   PATT
  POIN2 Label_01004276
//  #05 //097   ----------------------------------------
 BYTE   PATT
  POIN2 Label_01004280
//  #05 //098   ----------------------------------------
 BYTE   PATT
  POIN2 Label_01004298
//  #05 //099   ----------------------------------------
 BYTE   TIE  En4  v085
 BYTE   W96
//  #05 //100   ----------------------------------------
 BYTE   PATT
  POIN2 Label_010042AC
//  #05 //101   ----------------------------------------
 BYTE   PATT
  POIN2 Label_010042CB
//  #05 //102   ----------------------------------------
 BYTE   PATT
  POIN2 Label_010042DF
//  #05 //103   ----------------------------------------
 BYTE   W56
 BYTE   W03
 BYTE   EOT
 BYTE   En4
 BYTE   W36
 BYTE   W01
//  #05 //104   ----------------------------------------
 BYTE   W96
//  #05 //105   ----------------------------------------
 BYTE   W96
//  #05 //106   ----------------------------------------
 BYTE   W96
//  #05 //107   ----------------------------------------
 BYTE   GoTo
  POIN2 Label_010041C3
//  #05 //108   ----------------------------------------
 BYTE   W96
//  #05 //109   ----------------------------------------
 BYTE   W96
//  #05 //110   ----------------------------------------
 BYTE   W96
//  #05 //111   ----------------------------------------
 BYTE   W96
//  #05 //112   ----------------------------------------
 BYTE   W96
//  #05 //113   ----------------------------------------
 BYTE   W12
 BYTE   FINE

//**************** Track 6 (Midi-Chn.5) ****************//

Touhou123LoveColoredMagicTak_006:
//  #06 //000   ----------------------------------------
 BYTE   KEYSH   Touhou123LoveColoredMagicTak_key+0
 BYTE   VOICE   124
 BYTE   VOL   77*Touhou123LoveColoredMagicTak_mvl/mxv
 BYTE   BENDR  12
 BYTE   W12
 BYTE   N05  Fs1  v085
 BYTE   N05  Cn1
 BYTE   W24
 BYTE   Fs1
 BYTE   N05  Cn1
 BYTE   W24
 BYTE   Cn1
 BYTE   N05  Fs1
 BYTE   W23
 BYTE   N24  Gn2  v100  gtp1
 BYTE   W01
 BYTE   N05  Fs1  v085
 BYTE   N05  Cn1
 BYTE   W12
//  #06 //001   ----------------------------------------
Label_010267EA:
 BYTE   W12
 BYTE   N36  An2  v085  gtp2
 BYTE   N05  Dn3  v072
 BYTE   N05  Fs1  v085
 BYTE   N05  Cn1
 BYTE   W12
 BYTE   N12  As1  v036
 BYTE   N05  Dn3  v047
 BYTE   W06
 BYTE   Fs1  v059
 BYTE   W06
 BYTE   Dn3  v072
 BYTE   N05  Fs1  v085
 BYTE   N06  En1
 BYTE   W06
 BYTE   N05  Fs1  v059
 BYTE   N05  Dn3  v047
 BYTE   W06
 BYTE   N12  As1  v036
 BYTE   W06
 BYTE   N05  Fs1  v085
 BYTE   N05  Dn3  v036
 BYTE   W06
 BYTE   Fs1  v047
 BYTE   N05  Cn1  v085
 BYTE   W06
 BYTE   Dn3  v072
 BYTE   N05  Fs1  v085
 BYTE   W06
 BYTE   N12  As1  v036
 BYTE   N05  Fs1  v047
 BYTE   W06
 BYTE   Dn3
 BYTE   N05  Fs1  v059
 BYTE   W06
 BYTE   Dn3  v072
 BYTE   N06  En1  v085
 BYTE   N05  Fs1
 BYTE   W12
//  #06 //002   ----------------------------------------
Label_0102683C:
 BYTE   N05  Dn3  v047
 BYTE   N12  As1  v036
 BYTE   W06
 BYTE   N05  Fs1  v059
 BYTE   W06
 BYTE   Fs1  v085
 BYTE   N05  Dn3  v072
 BYTE   N05  Cn1  v085
 BYTE   W12
 BYTE   N12  As1  v036
 BYTE   N05  Dn3  v047
 BYTE   W06
 BYTE   Fs1  v059
 BYTE   W06
 BYTE   Fs1  v085
 BYTE   N05  Dn3  v072
 BYTE   N06  En1  v085
 BYTE   W06
 BYTE   N05  Fs1  v059
 BYTE   N05  Dn3  v047
 BYTE   W06
 BYTE   N12  As1  v036
 BYTE   W06
 BYTE   N05  Fs1  v085
 BYTE   N05  Dn3  v036
 BYTE   W06
 BYTE   Fs1  v047
 BYTE   N05  Cn1  v085
 BYTE   W06
 BYTE   Fs1
 BYTE   N05  Dn3  v072
 BYTE   W06
 BYTE   N12  As1  v036
 BYTE   N05  Fs1  v047
 BYTE   W06
 BYTE   Fs1  v059
 BYTE   N05  Dn3  v047
 BYTE   W06
 BYTE   Fs1  v085
 BYTE   N05  Dn3  v072
 BYTE   N06  En1  v085
 BYTE   W12
 BYTE   PEND 
//  #06 //003   ----------------------------------------
Label_01026897:
 BYTE   N12  As1  v036
 BYTE   N05  Dn3  v047
 BYTE   W06
 BYTE   Fs1  v059
 BYTE   W06
 BYTE   Fs1  v085
 BYTE   N05  Dn3  v072
 BYTE   N05  Cn1  v085
 BYTE   W12
 BYTE   N12  As1  v036
 BYTE   N05  Dn3  v047
 BYTE   W06
 BYTE   Fs1  v059
 BYTE   W06
 BYTE   Fs1  v085
 BYTE   N05  Dn3  v072
 BYTE   N06  En1  v085
 BYTE   W06
 BYTE   N05  Fs1  v059
 BYTE   N05  Dn3  v047
 BYTE   W06
 BYTE   N12  As1  v036
 BYTE   W06
 BYTE   N05  Fs1  v085
 BYTE   N05  Dn3  v036
 BYTE   W06
 BYTE   Fs1  v047
 BYTE   N05  Cn1  v085
 BYTE   W06
 BYTE   Fs1
 BYTE   N05  Dn3  v072
 BYTE   W06
 BYTE   N12  As1  v036
 BYTE   N05  Fs1  v047
 BYTE   W06
 BYTE   Fs1  v059
 BYTE   N05  Dn3  v047
 BYTE   W06
 BYTE   Fs1  v085
 BYTE   N05  Dn3  v072
 BYTE   N06  En1  v085
 BYTE   W12
 BYTE   PEND 
//  #06 //004   ----------------------------------------
 BYTE   PATT
  POIN2 Label_01026897
//  #06 //005   ----------------------------------------
 BYTE   PATT
  POIN2 Label_01026897
//  #06 //006   ----------------------------------------
 BYTE   PATT
  POIN2 Label_01026897
//  #06 //007   ----------------------------------------
 BYTE   PATT
  POIN2 Label_01026897
//  #06 //008   ----------------------------------------
Label_01026905:
 BYTE   N12  As1  v036
 BYTE   N05  Dn3  v047
 BYTE   W06
 BYTE   Fs1  v059
 BYTE   W06
 BYTE   Fs1  v085
 BYTE   N05  Cn1
 BYTE   W12
 BYTE   N12  As1  v036
 BYTE   W06
 BYTE   N05  Fs1  v059
 BYTE   W06
 BYTE   Fs1  v085
 BYTE   N06  En1
 BYTE   W06
 BYTE   N05  Fs1  v059
 BYTE   W06
 BYTE   N12  As1  v036
 BYTE   W06
 BYTE   N05  Fs1  v085
 BYTE   W06
 BYTE   Fs1  v047
 BYTE   N05  Cn1  v085
 BYTE   W06
 BYTE   Fs1
 BYTE   W06
 BYTE   N12  As1  v036
 BYTE   N05  Fs1  v047
 BYTE   N06  En1  v085
 BYTE   W06
 BYTE   N05  Fs1  v059
 BYTE   W05
 BYTE   N24  Gn2  v100  gtp1
 BYTE   W01
 BYTE   N05  Fs1  v085
 BYTE   N06  En1  v059
 BYTE   W06
 BYTE   En1
 BYTE   W06
 BYTE   PEND 
//  #06 //009   ----------------------------------------
Label_01026952:
 BYTE   N12  As1  v036
 BYTE   N06  En1  v072
 BYTE   W06
 BYTE   N05  Fs1  v059
 BYTE   N06  En1  v072
 BYTE   W06
 BYTE   N36  An2  v085  gtp2
 BYTE   N05  Fs1
 BYTE   N05  Dn3  v072
 BYTE   N05  Cn1  v085
 BYTE   W12
 BYTE   N12  As1  v036
 BYTE   N05  Dn3  v047
 BYTE   W06
 BYTE   Fs1  v059
 BYTE   W06
 BYTE   Fs1  v085
 BYTE   N05  Dn3  v072
 BYTE   N06  En1  v085
 BYTE   W06
 BYTE   N05  Fs1  v059
 BYTE   N05  Dn3  v047
 BYTE   W06
 BYTE   N12  As1  v036
 BYTE   W06
 BYTE   N05  Fs1  v085
 BYTE   N05  Dn3  v036
 BYTE   W06
 BYTE   Fs1  v047
 BYTE   N05  Cn1  v085
 BYTE   W06
 BYTE   Fs1
 BYTE   N05  Dn3  v072
 BYTE   W06
 BYTE   N12  As1  v036
 BYTE   N05  Fs1  v047
 BYTE   W06
 BYTE   Fs1  v059
 BYTE   N05  Dn3  v047
 BYTE   W06
 BYTE   Fs1  v085
 BYTE   N05  Dn3  v072
 BYTE   N06  En1  v085
 BYTE   W12
 BYTE   PEND 
//  #06 //010   ----------------------------------------
 BYTE   PATT
  POIN2 Label_01026897
//  #06 //011   ----------------------------------------
 BYTE   PATT
  POIN2 Label_01026897
//  #06 //012   ----------------------------------------
 BYTE   PATT
  POIN2 Label_01026897
//  #06 //013   ----------------------------------------
 BYTE   PATT
  POIN2 Label_01026897
//  #06 //014   ----------------------------------------
 BYTE   PATT
  POIN2 Label_01026897
//  #06 //015   ----------------------------------------
 BYTE   PATT
  POIN2 Label_01026897
//  #06 //016   ----------------------------------------
Label_010269D2:
 BYTE   N12  As1  v036
 BYTE   N05  Dn3  v047
 BYTE   W06
 BYTE   Fs1  v059
 BYTE   W06
 BYTE   Fs1  v085
 BYTE   N05  Dn3  v072
 BYTE   N05  Cn1  v085
 BYTE   W12
 BYTE   N12  As1  v036
 BYTE   N05  Dn3  v047
 BYTE   W06
 BYTE   Fs1  v059
 BYTE   W06
 BYTE   Fs1  v085
 BYTE   N05  Dn3  v072
 BYTE   N06  En1  v085
 BYTE   W06
 BYTE   N05  Fs1  v059
 BYTE   N05  Dn3  v047
 BYTE   W06
 BYTE   N12  As1  v036
 BYTE   W06
 BYTE   N05  Fs1  v085
 BYTE   N05  Dn3  v036
 BYTE   W06
 BYTE   Fs1  v047
 BYTE   N05  Cn1  v085
 BYTE   W06
 BYTE   Fs1
 BYTE   N05  Dn3  v072
 BYTE   W06
 BYTE   N12  As1  v036
 BYTE   N05  Fs1  v047
 BYTE   W06
 BYTE   Fs1  v059
 BYTE   N05  Dn3  v047
 BYTE   W05
 BYTE   N24  Gn2  v059  gtp1
 BYTE   W01
 BYTE   N05  Fs1  v085
 BYTE   N05  Dn3  v072
 BYTE   N06  En1  v085
 BYTE   W12
 BYTE   PEND 
//  #06 //017   ----------------------------------------
Label_01026A32:
 BYTE   N12  As1  v036
 BYTE   N05  Dn3  v047
 BYTE   W06
 BYTE   Fs1  v059
 BYTE   W06
 BYTE   N36  An2  v085  gtp2
 BYTE   N05  Fs1
 BYTE   N05  Dn3  v072
 BYTE   N05  Cn1  v085
 BYTE   W12
 BYTE   N12  As1  v036
 BYTE   N05  Dn3  v047
 BYTE   W06
 BYTE   Fs1  v059
 BYTE   W06
 BYTE   Fs1  v085
 BYTE   N05  Dn3  v072
 BYTE   N06  En1  v085
 BYTE   W06
 BYTE   N05  Fs1  v059
 BYTE   N05  Dn3  v047
 BYTE   W06
 BYTE   N12  As1  v036
 BYTE   W06
 BYTE   N05  Fs1  v085
 BYTE   N05  Dn3  v036
 BYTE   W06
 BYTE   Fs1  v047
 BYTE   N05  Cn1  v085
 BYTE   W06
 BYTE   Fs1
 BYTE   N05  Dn3  v072
 BYTE   W06
 BYTE   N12  As1  v036
 BYTE   N05  Fs1  v047
 BYTE   W06
 BYTE   Fs1  v059
 BYTE   N05  Dn3  v047
 BYTE   W06
 BYTE   Fs1  v085
 BYTE   N05  Dn3  v072
 BYTE   N06  En1  v085
 BYTE   W12
 BYTE   PEND 
//  #06 //018   ----------------------------------------
 BYTE   PATT
  POIN2 Label_01026897
//  #06 //019   ----------------------------------------
 BYTE   PATT
  POIN2 Label_01026897
//  #06 //020   ----------------------------------------
 BYTE   PATT
  POIN2 Label_01026897
//  #06 //021   ----------------------------------------
 BYTE   PATT
  POIN2 Label_01026897
//  #06 //022   ----------------------------------------
 BYTE   PATT
  POIN2 Label_01026897
//  #06 //023   ----------------------------------------
 BYTE   PATT
  POIN2 Label_01026897
//  #06 //024   ----------------------------------------
Label_01026AAE:
 BYTE   N12  As1  v036
 BYTE   N05  Dn3  v047
 BYTE   W06
 BYTE   Fs1  v059
 BYTE   W06
 BYTE   Fs1  v085
 BYTE   N05  Cn1
 BYTE   N05  Dn3  v072
 BYTE   W12
 BYTE   N12  As1  v036
 BYTE   N05  Dn3  v047
 BYTE   N06  En1  v085
 BYTE   W06
 BYTE   N05  Fs1  v059
 BYTE   N06  En1
 BYTE   W06
 BYTE   N05  Fs1  v085
 BYTE   N05  Cn1
 BYTE   N05  Dn3  v072
 BYTE   W06
 BYTE   Fs1  v059
 BYTE   N06  En1
 BYTE   N05  Dn3  v047
 BYTE   W06
 BYTE   N12  As1  v036
 BYTE   W06
 BYTE   N05  Fs1  v085
 BYTE   N06  En1
 BYTE   N05  Dn3  v036
 BYTE   W06
 BYTE   Fs1  v047
 BYTE   N05  Cn1  v059
 BYTE   W06
 BYTE   Fs1  v085
 BYTE   N05  Dn3  v072
 BYTE   W06
 BYTE   N12  As1  v036
 BYTE   N05  Fs1  v047
 BYTE   N06  En1  v059
 BYTE   W06
 BYTE   N05  Fs1
 BYTE   N06  En1
 BYTE   N05  Dn3  v047
 BYTE   W05
 BYTE   N24  Gn2  v059  gtp1
 BYTE   W01
 BYTE   N05  Fs1  v085
 BYTE   N05  Dn3  v072
 BYTE   N06  En1  v085
 BYTE   W12
 BYTE   PEND 
//  #06 //025   ----------------------------------------
Label_01026B1C:
 BYTE   N12  As1  v036
 BYTE   N05  Dn3  v047
 BYTE   N06  En1  v085
 BYTE   W06
 BYTE   N05  Fs1  v059
 BYTE   W06
 BYTE   N36  An2  v085  gtp2
 BYTE   N05  Dn3  v059
 BYTE   N05  Fs1  v085
 BYTE   N05  Cn1
 BYTE   W12
 BYTE   Dn3  v027
 BYTE   W06
 BYTE   Dn3  v059
 BYTE   N05  Cn1  v085
 BYTE   N05  Fs1
 BYTE   W12
 BYTE   Dn3  v027
 BYTE   W06
 BYTE   Dn3  v059
 BYTE   N05  Cn1  v085
 BYTE   N05  Fs1
 BYTE   W24
 BYTE   Cn1
 BYTE   N05  Fs1
 BYTE   N05  Dn3  v059
 BYTE   W12
 BYTE   Fs1  v085
 BYTE   N06  En1
 BYTE   N05  Dn3  v027
 BYTE   W12
 BYTE   PEND 
//  #06 //026   ----------------------------------------
Label_01026B5D:
 BYTE   N05  Dn3  v059
 BYTE   N12  As1
 BYTE   W06
 BYTE   N05  Fs1  v085
 BYTE   W06
 BYTE   Dn3  v059
 BYTE   N05  Fs1  v085
 BYTE   N05  Cn1
 BYTE   W12
 BYTE   Dn3  v027
 BYTE   W06
 BYTE   Dn3  v059
 BYTE   N05  Cn1  v085
 BYTE   N05  Fs1
 BYTE   W12
 BYTE   Dn3  v027
 BYTE   W06
 BYTE   Dn3  v059
 BYTE   N05  Cn1  v085
 BYTE   N05  Fs1
 BYTE   W24
 BYTE   Dn3  v059
 BYTE   N05  Cn1  v085
 BYTE   N05  Fs1
 BYTE   W12
 BYTE   Dn3  v027
 BYTE   N05  Fs1  v085
 BYTE   N06  En1
 BYTE   W12
 BYTE   PEND 
//  #06 //027   ----------------------------------------
 BYTE   PATT
  POIN2 Label_01026B5D
//  #06 //028   ----------------------------------------
 BYTE   PATT
  POIN2 Label_01026B5D
//  #06 //029   ----------------------------------------
Label_01026BA0:
 BYTE   N05  Dn3  v059
 BYTE   N12  As1
 BYTE   W06
 BYTE   N05  Fs1  v085
 BYTE   W06
 BYTE   Dn3  v059
 BYTE   N05  Fs1  v085
 BYTE   N05  Cn1
 BYTE   W12
 BYTE   Dn3  v027
 BYTE   W06
 BYTE   Dn3  v059
 BYTE   N05  Cn1  v085
 BYTE   N05  Fs1
 BYTE   W12
 BYTE   Dn3  v027
 BYTE   W06
 BYTE   Dn3  v059
 BYTE   N05  Cn1  v085
 BYTE   N05  Fs1
 BYTE   W24
 BYTE   Cn1
 BYTE   N05  Fs1
 BYTE   N05  Dn3  v059
 BYTE   W12
 BYTE   Fs1  v085
 BYTE   N06  En1
 BYTE   N05  Dn3  v027
 BYTE   W12
 BYTE   PEND 
//  #06 //030   ----------------------------------------
 BYTE   PATT
  POIN2 Label_01026B5D
//  #06 //031   ----------------------------------------
 BYTE   PATT
  POIN2 Label_01026B5D
//  #06 //032   ----------------------------------------
Label_01026BE2:
 BYTE   N05  Dn3  v059
 BYTE   N12  As1
 BYTE   W06
 BYTE   N05  Fs1  v085
 BYTE   W06
 BYTE   Dn3  v059
 BYTE   N05  Fs1  v085
 BYTE   N05  Cn1
 BYTE   W12
 BYTE   Dn3  v027
 BYTE   W06
 BYTE   Dn3  v059
 BYTE   N05  Cn1  v085
 BYTE   N05  Fs1
 BYTE   W12
 BYTE   Dn3  v027
 BYTE   W06
 BYTE   Dn3  v059
 BYTE   N05  Cn1  v085
 BYTE   N05  Fs1
 BYTE   W24
 BYTE   Dn3  v059
 BYTE   N05  Cn1  v085
 BYTE   N05  Fs1
 BYTE   W12
 BYTE   N06  En1  v059
 BYTE   N05  Dn3  v027
 BYTE   N05  Fs1  v085
 BYTE   W06
 BYTE   N06  En1
 BYTE   W06
 BYTE   PEND 
//  #06 //033   ----------------------------------------
Label_01026C20:
 BYTE   N05  Cn1  v085
 BYTE   N05  Dn3  v059
 BYTE   N12  As1
 BYTE   W06
 BYTE   N05  Fs1  v085
 BYTE   W06
 BYTE   N36  An2  v085  gtp2
 BYTE   N05  Fs1
 BYTE   N05  Dn3  v072
 BYTE   N05  Cn1  v085
 BYTE   W12
 BYTE   N12  As1  v047
 BYTE   N05  Dn3
 BYTE   W06
 BYTE   Fs1  v059
 BYTE   W06
 BYTE   Fs1  v085
 BYTE   N05  Dn3  v072
 BYTE   N06  En1  v085
 BYTE   W06
 BYTE   N05  Fs1  v059
 BYTE   N05  Dn3  v047
 BYTE   W06
 BYTE   N12  As1
 BYTE   W06
 BYTE   N05  Fs1  v085
 BYTE   N05  Dn3  v036
 BYTE   W06
 BYTE   Fs1  v047
 BYTE   N05  Cn1  v085
 BYTE   W06
 BYTE   Fs1
 BYTE   N05  Dn3  v072
 BYTE   W06
 BYTE   N12  As1  v047
 BYTE   N05  Fs1
 BYTE   W06
 BYTE   Fs1  v059
 BYTE   N05  Dn3  v047
 BYTE   W06
 BYTE   Fs1  v085
 BYTE   N05  Dn3  v072
 BYTE   N06  En1  v085
 BYTE   W12
 BYTE   PEND 
//  #06 //034   ----------------------------------------
Label_01026C7E:
 BYTE   N12  As1  v047
 BYTE   N05  Dn3
 BYTE   W06
 BYTE   Fs1  v059
 BYTE   W06
 BYTE   Fs1  v085
 BYTE   N05  Dn3  v072
 BYTE   N05  Cn1  v085
 BYTE   W12
 BYTE   N12  As1  v047
 BYTE   N05  Dn3
 BYTE   W06
 BYTE   Fs1  v059
 BYTE   W06
 BYTE   Fs1  v085
 BYTE   N05  Dn3  v072
 BYTE   N06  En1  v085
 BYTE   W06
 BYTE   N05  Fs1  v059
 BYTE   N05  Dn3  v047
 BYTE   W06
 BYTE   N12  As1
 BYTE   W06
 BYTE   N05  Fs1  v085
 BYTE   N05  Dn3  v036
 BYTE   W06
 BYTE   Fs1  v047
 BYTE   N05  Cn1  v085
 BYTE   W06
 BYTE   Fs1
 BYTE   N05  Dn3  v072
 BYTE   W06
 BYTE   N12  As1  v047
 BYTE   N05  Fs1
 BYTE   W06
 BYTE   Fs1  v059
 BYTE   N05  Dn3  v047
 BYTE   W06
 BYTE   Fs1  v085
 BYTE   N05  Dn3  v072
 BYTE   N06  En1  v085
 BYTE   W12
 BYTE   PEND 
//  #06 //035   ----------------------------------------
 BYTE   PATT
  POIN2 Label_01026C7E
//  #06 //036   ----------------------------------------
 BYTE   PATT
  POIN2 Label_01026C7E
//  #06 //037   ----------------------------------------
 BYTE   PATT
  POIN2 Label_01026C7E
//  #06 //038   ----------------------------------------
 BYTE   PATT
  POIN2 Label_01026C7E
//  #06 //039   ----------------------------------------
 BYTE   PATT
  POIN2 Label_01026C7E
//  #06 //040   ----------------------------------------
 BYTE   PATT
  POIN2 Label_01026C7E
//  #06 //041   ----------------------------------------
 BYTE   PATT
  POIN2 Label_01026C7E
//  #06 //042   ----------------------------------------
 BYTE   PATT
  POIN2 Label_01026C7E
//  #06 //043   ----------------------------------------
 BYTE   PATT
  POIN2 Label_01026C7E
//  #06 //044   ----------------------------------------
 BYTE   PATT
  POIN2 Label_01026C7E
//  #06 //045   ----------------------------------------
Label_01026D06:
 BYTE   N12  As1  v047
 BYTE   N05  Dn3
 BYTE   W06
 BYTE   Fs1  v059
 BYTE   W06
 BYTE   N36  An2  v085  gtp2
 BYTE   N05  Fs1
 BYTE   N05  Cn1
 BYTE   W12
 BYTE   N12  As1  v047
 BYTE   W06
 BYTE   N05  Fs1  v059
 BYTE   W06
 BYTE   Fs1  v085
 BYTE   W06
 BYTE   Fs1  v059
 BYTE   W06
 BYTE   N12  As1  v047
 BYTE   N05  Cn1  v085
 BYTE   W06
 BYTE   Fs1
 BYTE   W06
 BYTE   N36  An2
 BYTE   N05  Fs1  v047
 BYTE   N05  Cn1  v085
 BYTE   W06
 BYTE   Fs1
 BYTE   W06
 BYTE   N12  As1  v047
 BYTE   N05  Fs1
 BYTE   W06
 BYTE   Fs1  v059
 BYTE   W06
 BYTE   Fs1  v085
 BYTE   N06  En1
 BYTE   W12
 BYTE   PEND 
//  #06 //046   ----------------------------------------
Label_01026D49:
 BYTE   N02  An2  v085
 BYTE   N12  As1  v047
 BYTE   N05  Cn1  v085
 BYTE   W06
 BYTE   Fs1  v059
 BYTE   W06
 BYTE   Fs1  v085
 BYTE   N05  Dn3  v072
 BYTE   N05  Cn1  v085
 BYTE   W12
 BYTE   N12  As1  v047
 BYTE   N05  Dn3
 BYTE   W06
 BYTE   Fs1  v059
 BYTE   W06
 BYTE   Fs1  v085
 BYTE   N05  Dn3  v072
 BYTE   N06  En1  v085
 BYTE   W06
 BYTE   N05  Fs1  v059
 BYTE   N05  Dn3  v047
 BYTE   W06
 BYTE   N12  As1
 BYTE   W06
 BYTE   N05  Fs1  v085
 BYTE   N05  Dn3  v036
 BYTE   W06
 BYTE   Fs1  v047
 BYTE   N05  Cn1  v085
 BYTE   W06
 BYTE   Fs1
 BYTE   N05  Dn3  v072
 BYTE   W06
 BYTE   N12  As1  v047
 BYTE   N05  Fs1
 BYTE   W06
 BYTE   Fs1  v059
 BYTE   N05  Dn3  v047
 BYTE   W06
 BYTE   Fs1  v085
 BYTE   N05  Dn3  v072
 BYTE   N06  En1  v085
 BYTE   W12
 BYTE   PEND 
//  #06 //047   ----------------------------------------
 BYTE   PATT
  POIN2 Label_01026C7E
//  #06 //048   ----------------------------------------
 BYTE   PATT
  POIN2 Label_01026C7E
//  #06 //049   ----------------------------------------
 BYTE   PATT
  POIN2 Label_01026C7E
//  #06 //050   ----------------------------------------
 BYTE   PATT
  POIN2 Label_01026C7E
//  #06 //051   ----------------------------------------
 BYTE   PATT
  POIN2 Label_01026C7E
//  #06 //052   ----------------------------------------
 BYTE   PATT
  POIN2 Label_01026C7E
//  #06 //053   ----------------------------------------
 BYTE   PATT
  POIN2 Label_01026C7E
//  #06 //054   ----------------------------------------
 BYTE   N12  As1  v047
 BYTE   N05  Dn3
 BYTE   W06
 BYTE   Fs1  v059
 BYTE   W06
 BYTE   N36  An2  v085  gtp2
 BYTE   N05  Dn3  v072
 BYTE   N05  Fs1  v085
 BYTE   N05  Cn1
 BYTE   W12
 BYTE   N12  As1  v036
 BYTE   N05  Dn3  v047
 BYTE   W06
 BYTE   Fs1  v059
 BYTE   W06
 BYTE   Dn3  v072
 BYTE   N05  Fs1  v085
 BYTE   N06  En1
 BYTE   W06
 BYTE   N05  Fs1  v059
 BYTE   N05  Dn3  v047
 BYTE   W06
 BYTE   N12  As1  v036
 BYTE   W06
 BYTE   N05  Fs1  v085
 BYTE   N05  Dn3  v036
 BYTE   W06
 BYTE   Fs1  v047
 BYTE   N05  Cn1  v085
 BYTE   W06
 BYTE   Dn3  v072
 BYTE   N05  Fs1  v085
 BYTE   W06
 BYTE   N12  As1  v036
 BYTE   N05  Fs1  v047
 BYTE   W06
 BYTE   Dn3
 BYTE   N05  Fs1  v059
 BYTE   W06
 BYTE   Dn3  v072
 BYTE   N06  En1  v085
 BYTE   N05  Fs1
 BYTE   W12
//  #06 //055   ----------------------------------------
 BYTE   PATT
  POIN2 Label_0102683C
//  #06 //056   ----------------------------------------
 BYTE   PATT
  POIN2 Label_01026897
//  #06 //057   ----------------------------------------
 BYTE   PATT
  POIN2 Label_01026897
//  #06 //058   ----------------------------------------
 BYTE   PATT
  POIN2 Label_01026897
//  #06 //059   ----------------------------------------
 BYTE   PATT
  POIN2 Label_01026897
//  #06 //060   ----------------------------------------
 BYTE   PATT
  POIN2 Label_01026897
//  #06 //061   ----------------------------------------
 BYTE   PATT
  POIN2 Label_01026905
//  #06 //062   ----------------------------------------
 BYTE   PATT
  POIN2 Label_01026952
//  #06 //063   ----------------------------------------
 BYTE   PATT
  POIN2 Label_01026897
//  #06 //064   ----------------------------------------
 BYTE   PATT
  POIN2 Label_01026897
//  #06 //065   ----------------------------------------
 BYTE   PATT
  POIN2 Label_01026897
//  #06 //066   ----------------------------------------
 BYTE   PATT
  POIN2 Label_01026897
//  #06 //067   ----------------------------------------
 BYTE   PATT
  POIN2 Label_01026897
//  #06 //068   ----------------------------------------
 BYTE   PATT
  POIN2 Label_01026897
//  #06 //069   ----------------------------------------
 BYTE   PATT
  POIN2 Label_010269D2
//  #06 //070   ----------------------------------------
 BYTE   PATT
  POIN2 Label_01026A32
//  #06 //071   ----------------------------------------
 BYTE   PATT
  POIN2 Label_01026897
//  #06 //072   ----------------------------------------
 BYTE   PATT
  POIN2 Label_01026897
//  #06 //073   ----------------------------------------
 BYTE   PATT
  POIN2 Label_01026897
//  #06 //074   ----------------------------------------
 BYTE   PATT
  POIN2 Label_01026897
//  #06 //075   ----------------------------------------
 BYTE   PATT
  POIN2 Label_01026897
//  #06 //076   ----------------------------------------
 BYTE   PATT
  POIN2 Label_01026897
//  #06 //077   ----------------------------------------
 BYTE   PATT
  POIN2 Label_01026AAE
//  #06 //078   ----------------------------------------
 BYTE   PATT
  POIN2 Label_01026B1C
//  #06 //079   ----------------------------------------
 BYTE   PATT
  POIN2 Label_01026B5D
//  #06 //080   ----------------------------------------
 BYTE   PATT
  POIN2 Label_01026B5D
//  #06 //081   ----------------------------------------
 BYTE   PATT
  POIN2 Label_01026B5D
//  #06 //082   ----------------------------------------
 BYTE   PATT
  POIN2 Label_01026BA0
//  #06 //083   ----------------------------------------
 BYTE   PATT
  POIN2 Label_01026B5D
//  #06 //084   ----------------------------------------
 BYTE   PATT
  POIN2 Label_01026B5D
//  #06 //085   ----------------------------------------
 BYTE   PATT
  POIN2 Label_01026BE2
//  #06 //086   ----------------------------------------
 BYTE   PATT
  POIN2 Label_01026C20
//  #06 //087   ----------------------------------------
 BYTE   PATT
  POIN2 Label_01026C7E
//  #06 //088   ----------------------------------------
 BYTE   PATT
  POIN2 Label_01026C7E
//  #06 //089   ----------------------------------------
 BYTE   PATT
  POIN2 Label_01026C7E
//  #06 //090   ----------------------------------------
 BYTE   PATT
  POIN2 Label_01026C7E
//  #06 //091   ----------------------------------------
 BYTE   PATT
  POIN2 Label_01026C7E
//  #06 //092   ----------------------------------------
 BYTE   PATT
  POIN2 Label_01026C7E
//  #06 //093   ----------------------------------------
 BYTE   PATT
  POIN2 Label_01026C7E
//  #06 //094   ----------------------------------------
 BYTE   PATT
  POIN2 Label_01026C7E
//  #06 //095   ----------------------------------------
 BYTE   PATT
  POIN2 Label_01026C7E
//  #06 //096   ----------------------------------------
 BYTE   PATT
  POIN2 Label_01026C7E
//  #06 //097   ----------------------------------------
 BYTE   PATT
  POIN2 Label_01026C7E
//  #06 //098   ----------------------------------------
 BYTE   PATT
  POIN2 Label_01026D06
//  #06 //099   ----------------------------------------
 BYTE   PATT
  POIN2 Label_01026D49
//  #06 //100   ----------------------------------------
 BYTE   PATT
  POIN2 Label_01026C7E
//  #06 //101   ----------------------------------------
 BYTE   PATT
  POIN2 Label_01026C7E
//  #06 //102   ----------------------------------------
 BYTE   PATT
  POIN2 Label_01026C7E
//  #06 //103   ----------------------------------------
 BYTE   PATT
  POIN2 Label_01026C7E
//  #06 //104   ----------------------------------------
 BYTE   PATT
  POIN2 Label_01026C7E
//  #06 //105   ----------------------------------------
 BYTE   PATT
  POIN2 Label_01026C7E
//  #06 //106   ----------------------------------------
 BYTE   PATT
  POIN2 Label_01026C7E
//  #06 //107   ----------------------------------------
 BYTE   N12  As1  v047
 BYTE   N05  Dn3
 BYTE   GoTo
  POIN2 Label_010267EA
//  #06 //108   ----------------------------------------
 BYTE   W06
 BYTE   Fs1  v059
 BYTE   W06
 BYTE   N36  An2  v085  gtp2
 BYTE   N05  Dn3  v072
 BYTE   N05  Fs1  v085
 BYTE   N05  Cn1
 BYTE   W12
 BYTE   N12  As1  v036
 BYTE   N05  Dn3  v047
 BYTE   W06
 BYTE   Fs1  v059
 BYTE   W06
 BYTE   Dn3  v072
 BYTE   N05  Fs1  v085
 BYTE   N06  En1
 BYTE   W06
 BYTE   N05  Fs1  v059
 BYTE   N05  Dn3  v047
 BYTE   W06
 BYTE   N12  As1  v036
 BYTE   W06
 BYTE   N05  Fs1  v085
 BYTE   N05  Dn3  v036
 BYTE   W06
 BYTE   Fs1  v047
 BYTE   N05  Cn1  v085
 BYTE   W06
 BYTE   Dn3  v072
 BYTE   N05  Fs1  v085
 BYTE   W06
 BYTE   N12  As1  v036
 BYTE   N05  Fs1  v047
 BYTE   W06
 BYTE   Dn3
 BYTE   N05  Fs1  v059
 BYTE   W06
 BYTE   Dn3  v072
 BYTE   N06  En1  v085
 BYTE   N05  Fs1
 BYTE   W12
//  #06 //109   ----------------------------------------
 BYTE   PATT
  POIN2 Label_0102683C
//  #06 //110   ----------------------------------------
 BYTE   PATT
  POIN2 Label_01026897
//  #06 //111   ----------------------------------------
 BYTE   PATT
  POIN2 Label_01026897
//  #06 //112   ----------------------------------------
 BYTE   N12  As1  v036
 BYTE   N05  Dn3  v047
 BYTE   W06
 BYTE   Fs1  v059
 BYTE   W90
//  #06 //113   ----------------------------------------
 BYTE   W12
 BYTE   FINE

//**************** Track 7 (Midi-Chn.6) ****************//

Touhou123LoveColoredMagicTak_007:
//  #07 //000   ----------------------------------------
 BYTE   KEYSH   Touhou123LoveColoredMagicTak_key+0
 BYTE   VOICE   124
 BYTE   PAN   c_v+43
 BYTE   VOL   85*Touhou123LoveColoredMagicTak_mvl/mxv
 BYTE   BENDR  12
 BYTE   W06
 BYTE   N03  An3  v006
 BYTE   N03  En4  v036
 BYTE   W03
 BYTE   An3  v019
 BYTE   N03  En4  v059
 BYTE   W03
 BYTE   N05  An3  v036
 BYTE   N05  En4  v085
 BYTE   W11
 BYTE   BEND   c_v-5
 BYTE   W01
 BYTE   N05  An3  v019
 BYTE   N05  En4  v059
 BYTE   W11
 BYTE   BEND   c_v+0
 BYTE   W01
 BYTE   N05  An3  v036
 BYTE   N05  En4  v085
 BYTE   W11
 BYTE   BEND   c_v-5
 BYTE   W01
 BYTE   N05  An3  v019
 BYTE   N05  En4  v059
 BYTE   W05
 BYTE   BEND   c_v+0
 BYTE   W01
 BYTE   N05  An3  v036
 BYTE   N05  En4  v085
 BYTE   W12
 BYTE   An3  v036
 BYTE   N05  En4  v085
 BYTE   W11
 BYTE   BEND   c_v-5
 BYTE   W01
 BYTE   N05  An3  v019
 BYTE   N05  En4  v059
 BYTE   W05
 BYTE   BEND   c_v+0
 BYTE   W01
 BYTE   N05  An3  v036
 BYTE   N05  En4  v085
 BYTE   W06
 BYTE   An3  v000
 BYTE   N05  En4  v011
 BYTE   W05
 BYTE   BEND   c_v-5
 BYTE   W01
//  #07 //001   ----------------------------------------
Label_0102700A:
 BYTE   N05  An3  v019
 BYTE   N05  En4  v059
 BYTE   W11
 BYTE   BEND   c_v+0
 BYTE   W84
 BYTE   W01
//  #07 //002   ----------------------------------------
 BYTE   W96
//  #07 //003   ----------------------------------------
 BYTE   W96
//  #07 //004   ----------------------------------------
 BYTE   W96
//  #07 //005   ----------------------------------------
 BYTE   W96
//  #07 //006   ----------------------------------------
 BYTE   W96
//  #07 //007   ----------------------------------------
 BYTE   W96
//  #07 //008   ----------------------------------------
Label_0102701B:
 BYTE   W18
 BYTE   N05  An3  v036
 BYTE   N05  En4  v085
 BYTE   W11
 BYTE   BEND   c_v-5
 BYTE   W01
 BYTE   N05  An3  v019
 BYTE   N05  En4  v059
 BYTE   W05
 BYTE   BEND   c_v+0
 BYTE   W01
 BYTE   N05  An3  v036
 BYTE   N05  En4  v085
 BYTE   W11
 BYTE   BEND   c_v-5
 BYTE   W01
 BYTE   N05  An3  v019
 BYTE   N05  En4  v059
 BYTE   W05
 BYTE   BEND   c_v+0
 BYTE   W01
 BYTE   N05  An3  v036
 BYTE   N05  En4  v085
 BYTE   W12
 BYTE   An3  v036
 BYTE   N05  En4  v085
 BYTE   W11
 BYTE   BEND   c_v-5
 BYTE   W01
 BYTE   N05  An3  v019
 BYTE   N05  En4  v059
 BYTE   W05
 BYTE   BEND   c_v+0
 BYTE   W01
 BYTE   N05  An3  v036
 BYTE   N05  En4  v085
 BYTE   W12
 BYTE   PEND 
//  #07 //009   ----------------------------------------
 BYTE   W96
//  #07 //010   ----------------------------------------
 BYTE   W96
//  #07 //011   ----------------------------------------
 BYTE   W96
//  #07 //012   ----------------------------------------
 BYTE   W96
//  #07 //013   ----------------------------------------
 BYTE   W96
//  #07 //014   ----------------------------------------
 BYTE   W96
//  #07 //015   ----------------------------------------
 BYTE   W96
//  #07 //016   ----------------------------------------
Label_0102706D:
 BYTE   W72
 BYTE   N05  An3  v036
 BYTE   N05  En4  v085
 BYTE   W06
 BYTE   An3  v019
 BYTE   N05  En4  v059
 BYTE   W06
 BYTE   An3  v036
 BYTE   N05  En4  v085
 BYTE   W12
 BYTE   PEND 
//  #07 //017   ----------------------------------------
Label_01027082:
 BYTE   N05  An3  v036
 BYTE   N05  En4  v085
 BYTE   W96
 BYTE   PEND 
//  #07 //018   ----------------------------------------
 BYTE   W96
//  #07 //019   ----------------------------------------
 BYTE   W96
//  #07 //020   ----------------------------------------
 BYTE   W96
//  #07 //021   ----------------------------------------
 BYTE   W96
//  #07 //022   ----------------------------------------
 BYTE   W96
//  #07 //023   ----------------------------------------
 BYTE   W96
//  #07 //024   ----------------------------------------
 BYTE   PATT
  POIN2 Label_0102706D
//  #07 //025   ----------------------------------------
 BYTE   PATT
  POIN2 Label_01027082
//  #07 //026   ----------------------------------------
 BYTE   W96
//  #07 //027   ----------------------------------------
 BYTE   W96
//  #07 //028   ----------------------------------------
 BYTE   W96
//  #07 //029   ----------------------------------------
 BYTE   W96
//  #07 //030   ----------------------------------------
 BYTE   W96
//  #07 //031   ----------------------------------------
 BYTE   W96
//  #07 //032   ----------------------------------------
Label_010270A0:
 BYTE   W66
 BYTE   N03  An3  v006
 BYTE   N03  En4  v036
 BYTE   W03
 BYTE   An3  v019
 BYTE   N03  En4  v059
 BYTE   W03
 BYTE   N05  An3  v036
 BYTE   N05  En4  v085
 BYTE   W12
 BYTE   An3  v036
 BYTE   N05  En4  v085
 BYTE   W11
 BYTE   BEND   c_v-5
 BYTE   W01
 BYTE   PEND 
//  #07 //033   ----------------------------------------
Label_010270BF:
 BYTE   N05  An3  v019
 BYTE   N05  En4  v059
 BYTE   W11
 BYTE   BEND   c_v+0
 BYTE   W84
 BYTE   W01
 BYTE   PEND 
//  #07 //034   ----------------------------------------
 BYTE   W96
//  #07 //035   ----------------------------------------
 BYTE   W96
//  #07 //036   ----------------------------------------
 BYTE   W96
//  #07 //037   ----------------------------------------
 BYTE   W96
//  #07 //038   ----------------------------------------
 BYTE   W96
//  #07 //039   ----------------------------------------
 BYTE   W96
//  #07 //040   ----------------------------------------
 BYTE   W96
//  #07 //041   ----------------------------------------
 BYTE   W96
//  #07 //042   ----------------------------------------
 BYTE   W96
//  #07 //043   ----------------------------------------
 BYTE   W96
//  #07 //044   ----------------------------------------
Label_010270D5:
 BYTE   W72
 BYTE   N03  An3  v006
 BYTE   N03  En4  v036
 BYTE   W03
 BYTE   An3  v019
 BYTE   N03  En4  v059
 BYTE   W03
 BYTE   N05  An3  v036
 BYTE   N05  En4  v085
 BYTE   W06
 BYTE   An3  v036
 BYTE   N05  En4  v085
 BYTE   W11
 BYTE   BEND   c_v-5
 BYTE   W01
 BYTE   PEND 
//  #07 //045   ----------------------------------------
Label_010270F4:
 BYTE   N05  An3  v019
 BYTE   N05  En4  v059
 BYTE   W11
 BYTE   BEND   c_v+0
 BYTE   W01
 BYTE   N05  An3  v036
 BYTE   N05  En4  v085
 BYTE   W36
 BYTE   An3  v019
 BYTE   N05  En4  v059
 BYTE   W11
 BYTE   BEND   c_v-5
 BYTE   W01
 BYTE   N05  An3  v036
 BYTE   N05  En4  v085
 BYTE   W11
 BYTE   BEND   c_v+0
 BYTE   W06
 BYTE   BEND   c_v-5
 BYTE   W01
 BYTE   N05  An3  v006
 BYTE   N05  En4  v036
 BYTE   W05
 BYTE   BEND   c_v+0
 BYTE   W01
 BYTE   N05  An3
 BYTE   N05  En4  v085
 BYTE   W11
 BYTE   BEND   c_v-5
 BYTE   W01
 BYTE   PEND 
//  #07 //046   ----------------------------------------
 BYTE   PATT
  POIN2 Label_010270BF
//  #07 //047   ----------------------------------------
 BYTE   W96
//  #07 //048   ----------------------------------------
 BYTE   W96
//  #07 //049   ----------------------------------------
 BYTE   W96
//  #07 //050   ----------------------------------------
 BYTE   W96
//  #07 //051   ----------------------------------------
 BYTE   W96
//  #07 //052   ----------------------------------------
 BYTE   W96
//  #07 //053   ----------------------------------------
Label_01027139:
 BYTE   W06
 BYTE   N03  An3  v006
 BYTE   N03  En4  v036
 BYTE   W03
 BYTE   An3  v019
 BYTE   N03  En4  v059
 BYTE   W03
 BYTE   N05  An3  v036
 BYTE   N05  En4  v085
 BYTE   W11
 BYTE   BEND   c_v-5
 BYTE   W01
 BYTE   N05  An3  v019
 BYTE   N05  En4  v059
 BYTE   W11
 BYTE   BEND   c_v+0
 BYTE   W01
 BYTE   N05  An3  v036
 BYTE   N05  En4  v085
 BYTE   W11
 BYTE   BEND   c_v-5
 BYTE   W01
 BYTE   N05  An3  v019
 BYTE   N05  En4  v059
 BYTE   W05
 BYTE   BEND   c_v+0
 BYTE   W01
 BYTE   N05  An3  v036
 BYTE   N05  En4  v085
 BYTE   W12
 BYTE   An3  v036
 BYTE   N05  En4  v085
 BYTE   W11
 BYTE   BEND   c_v-5
 BYTE   W01
 BYTE   N05  An3  v019
 BYTE   N05  En4  v059
 BYTE   W05
 BYTE   BEND   c_v+0
 BYTE   W01
 BYTE   N05  An3  v036
 BYTE   N05  En4  v085
 BYTE   W06
 BYTE   An3  v000
 BYTE   N05  En4  v011
 BYTE   W05
 BYTE   BEND   c_v-5
 BYTE   W01
 BYTE   PEND 
//  #07 //054   ----------------------------------------
 BYTE   PATT
  POIN2 Label_010270BF
//  #07 //055   ----------------------------------------
 BYTE   W96
//  #07 //056   ----------------------------------------
 BYTE   W96
//  #07 //057   ----------------------------------------
 BYTE   W96
//  #07 //058   ----------------------------------------
 BYTE   W96
//  #07 //059   ----------------------------------------
 BYTE   W96
//  #07 //060   ----------------------------------------
 BYTE   W96
//  #07 //061   ----------------------------------------
 BYTE   PATT
  POIN2 Label_0102701B
//  #07 //062   ----------------------------------------
 BYTE   W96
//  #07 //063   ----------------------------------------
 BYTE   W96
//  #07 //064   ----------------------------------------
 BYTE   W96
//  #07 //065   ----------------------------------------
 BYTE   W96
//  #07 //066   ----------------------------------------
 BYTE   W96
//  #07 //067   ----------------------------------------
 BYTE   W96
//  #07 //068   ----------------------------------------
 BYTE   W96
//  #07 //069   ----------------------------------------
 BYTE   PATT
  POIN2 Label_0102706D
//  #07 //070   ----------------------------------------
 BYTE   PATT
  POIN2 Label_01027082
//  #07 //071   ----------------------------------------
 BYTE   W96
//  #07 //072   ----------------------------------------
 BYTE   W96
//  #07 //073   ----------------------------------------
 BYTE   W96
//  #07 //074   ----------------------------------------
 BYTE   W96
//  #07 //075   ----------------------------------------
 BYTE   W96
//  #07 //076   ----------------------------------------
 BYTE   W96
//  #07 //077   ----------------------------------------
 BYTE   PATT
  POIN2 Label_0102706D
//  #07 //078   ----------------------------------------
 BYTE   PATT
  POIN2 Label_01027082
//  #07 //079   ----------------------------------------
 BYTE   W96
//  #07 //080   ----------------------------------------
 BYTE   W96
//  #07 //081   ----------------------------------------
 BYTE   W96
//  #07 //082   ----------------------------------------
 BYTE   W96
//  #07 //083   ----------------------------------------
 BYTE   W96
//  #07 //084   ----------------------------------------
 BYTE   W96
//  #07 //085   ----------------------------------------
 BYTE   PATT
  POIN2 Label_010270A0
//  #07 //086   ----------------------------------------
 BYTE   PATT
  POIN2 Label_010270BF
//  #07 //087   ----------------------------------------
 BYTE   W96
//  #07 //088   ----------------------------------------
 BYTE   W96
//  #07 //089   ----------------------------------------
 BYTE   W96
//  #07 //090   ----------------------------------------
 BYTE   W96
//  #07 //091   ----------------------------------------
 BYTE   W96
//  #07 //092   ----------------------------------------
 BYTE   W96
//  #07 //093   ----------------------------------------
 BYTE   W96
//  #07 //094   ----------------------------------------
 BYTE   W96
//  #07 //095   ----------------------------------------
 BYTE   W96
//  #07 //096   ----------------------------------------
 BYTE   W96
//  #07 //097   ----------------------------------------
 BYTE   PATT
  POIN2 Label_010270D5
//  #07 //098   ----------------------------------------
 BYTE   PATT
  POIN2 Label_010270F4
//  #07 //099   ----------------------------------------
 BYTE   PATT
  POIN2 Label_010270BF
//  #07 //100   ----------------------------------------
 BYTE   W96
//  #07 //101   ----------------------------------------
 BYTE   W96
//  #07 //102   ----------------------------------------
 BYTE   W96
//  #07 //103   ----------------------------------------
 BYTE   W96
//  #07 //104   ----------------------------------------
 BYTE   W96
//  #07 //105   ----------------------------------------
 BYTE   W96
//  #07 //106   ----------------------------------------
 BYTE   PATT
  POIN2 Label_01027139
//  #07 //107   ----------------------------------------
 BYTE   N05  An3  v019
 BYTE   N05  En4  v059
 BYTE   GoTo
  POIN2 Label_0102700A
//  #07 //108   ----------------------------------------
 BYTE   W11
 BYTE   BEND   c_v+0
 BYTE   W84
 BYTE   W01
//  #07 //109   ----------------------------------------
 BYTE   W96
//  #07 //110   ----------------------------------------
 BYTE   W96
//  #07 //111   ----------------------------------------
 BYTE   W96
//  #07 //112   ----------------------------------------
 BYTE   W96
//  #07 //113   ----------------------------------------
 BYTE   W12
 BYTE   FINE

//******************************************************//
	ALIGN 4

Touhou123LoveColoredMagicTak:
	BYTE	7	// NumTrks
	BYTE	0	// NumBlks
	BYTE	Touhou123LoveColoredMagicTak_pri	// Priority
	BYTE	Touhou123LoveColoredMagicTak_rev	// Reverb.
    
	POIN2	Touhou123LoveColoredMagicTak_grp
    
	POIN2	Touhou123LoveColoredMagicTak_001
	POIN2	Touhou123LoveColoredMagicTak_002
	POIN2	Touhou123LoveColoredMagicTak_003
	POIN2	Touhou123LoveColoredMagicTak_004
	POIN2	Touhou123LoveColoredMagicTak_005
	POIN2	Touhou123LoveColoredMagicTak_006
	POIN2	Touhou123LoveColoredMagicTak_007

	
