//Event file generated from Sappy .s format.
	#include "MPlayDef.event"

	#define	Touhou6BelovedTomboyishGirlPikmin1211_grp  voicegroup000
	#define	Touhou6BelovedTomboyishGirlPikmin1211_pri  0
	#define	Touhou6BelovedTomboyishGirlPikmin1211_rev  0
	#define	Touhou6BelovedTomboyishGirlPikmin1211_mvl  127
	#define	Touhou6BelovedTomboyishGirlPikmin1211_key  0
	#define	Touhou6BelovedTomboyishGirlPikmin1211_tbs  1
	#define	Touhou6BelovedTomboyishGirlPikmin1211_exg  0
	#define	Touhou6BelovedTomboyishGirlPikmin1211_cmp  1

	// .rodata
	//	Touhou6BelovedTomboyishGirlPikmin1211
	ALIGN 4


//**************** Track 1 (Midi-Chn.0) ****************//

Touhou6BelovedTomboyishGirlPikmin1211_001:
// 000   ----------------------------------------
 BYTE   KEYSH   Touhou6BelovedTomboyishGirlPikmin1211_key+0
 BYTE   TEMPO   148*Touhou6BelovedTomboyishGirlPikmin1211_tbs/2
 BYTE   VOICE   127
 BYTE   W92
 BYTE   W01
 BYTE   W01
 BYTE   W01
 BYTE   W01
// 001   ----------------------------------------
 BYTE   W01
 BYTE   W01
 BYTE   W01
 BYTE   W01
 BYTE   W01
 BYTE   W01
 BYTE   W01
 BYTE   VOL   20*Touhou6BelovedTomboyishGirlPikmin1211_mvl/mxv
 BYTE   PAN   c_v+0
 BYTE   W01
 BYTE   W01
 BYTE   W01
 BYTE   W01
 BYTE   W01
 BYTE   W32
 BYTE   W02
 BYTE   N01  Cn1  v108
 BYTE   N01  Fs1  v092
 BYTE   W06
 BYTE   N01
 BYTE   W06
 BYTE   Cn1  v080
 BYTE   N01  Fs1  v092
 BYTE   W06
 BYTE   Cn1  v108
 BYTE   W06
 BYTE   En1  v080
 BYTE   N01  Fs1  v092
 BYTE   W06
 BYTE   Cn1  v064
 BYTE   N01  Fs1  v092
 BYTE   W06
 BYTE   Cn1  v108
 BYTE   N01  Fs1  v092
 BYTE   W12
 BYTE   Cn1  v108
 BYTE   N01  Fs1
 BYTE   W02
// 002   ----------------------------------------
Label_0_0121F05A:
 BYTE   W04
 BYTE   N01  Cn1  v064
 BYTE   N01  Fs1  v092
 BYTE   W06
 BYTE   Cn1  v064
 BYTE   N01  As1  v092
 BYTE   W06
 BYTE   Cn1  v064
 BYTE   W06
 BYTE   En1  v108
 BYTE   N01  Fs1  v092
 BYTE   W06
 BYTE   N01
 BYTE   W06
 BYTE   Cn1  v108
 BYTE   N01  As1  v092
 BYTE   W06
 BYTE   Cn1  v064
 BYTE   N01  Fs1  v092
 BYTE   W12
 BYTE   Cn1  v080
 BYTE   N01  Fs1  v092
 BYTE   W06
 BYTE   Cn1  v064
 BYTE   N01  As1  v092
 BYTE   W06
 BYTE   Cn1  v080
 BYTE   N01  Fs1  v108
 BYTE   W06
 BYTE   En1  v080
 BYTE   N01  As1  v092
 BYTE   W06
 BYTE   Cn1  v064
 BYTE   N01  Fs1  v092
 BYTE   W06
 BYTE   Cn1  v064
 BYTE   N01  Fs1  v092
 BYTE   W06
 BYTE   Cn1  v052
 BYTE   W06
 BYTE   Cn1  v108
 BYTE   W02
 BYTE   PEND 
// 003   ----------------------------------------
 BYTE   W04
 BYTE   Fs1  v092
 BYTE   N01  Cn2
 BYTE   W06
 BYTE   Cn1  v052
 BYTE   N01  As1  v092
 BYTE   N01  Cn2
 BYTE   W06
 BYTE   Cn1  v052
 BYTE   N01  An1  v092
 BYTE   W06
 BYTE   En1  v108
 BYTE   N01  Fs1  v092
 BYTE   N01  An1
 BYTE   W06
 BYTE   Fn1
 BYTE   N01  Fs1
 BYTE   W05
Label_0_0121F0CA:
 BYTE   W01
 BYTE   N01  Cn1  v064
 BYTE   N01  Dn1  v092
 BYTE   N01  Fn1
 BYTE   N01  As1
 BYTE   W06
 BYTE   Dn1
 BYTE   N01  Fn1
 BYTE   N01  Fs1
 BYTE   W06
 BYTE   Cn1  v108
 BYTE   N01  Fs1  v092
 BYTE   W06
 BYTE   N01
 BYTE   W06
 BYTE   Cn1  v080
 BYTE   N01  Fs1  v092
 BYTE   W06
 BYTE   Cn1  v108
 BYTE   W06
 BYTE   En1  v080
 BYTE   N01  Fs1  v092
 BYTE   W06
 BYTE   Cn1  v064
 BYTE   N01  Fs1  v092
 BYTE   W06
 BYTE   Cn1  v108
 BYTE   N01  Fs1  v092
 BYTE   W12
 BYTE   Cn1  v108
 BYTE   N01  Fs1
 BYTE   W02
 BYTE   PATT
  POIN2 Label_0_0121F05A
// 004   ----------------------------------------
Label_0_0121F109:
 BYTE   W04
 BYTE   N01  Fs1  v092
 BYTE   W06
 BYTE   Cn1  v052
 BYTE   N01  As1  v092
 BYTE   W06
 BYTE   Cn1  v052
 BYTE   W06
 BYTE   En1  v108
 BYTE   N01  Fs1  v092
 BYTE   W06
 BYTE   N01
 BYTE   W06
 BYTE   Cn1  v064
 BYTE   N01  Dn1  v092
 BYTE   N01  As1
 BYTE   W06
 BYTE   Dn1
 BYTE   N01  Fs1
 BYTE   W06
 BYTE   Cn1  v108
 BYTE   N01  Fs1  v092
 BYTE   W06
 BYTE   N01
 BYTE   W06
 BYTE   Cn1  v080
 BYTE   N01  Fs1  v092
 BYTE   W06
 BYTE   Cn1  v108
 BYTE   W06
 BYTE   En1  v080
 BYTE   N01  Fs1  v092
 BYTE   W06
 BYTE   Cn1  v064
 BYTE   N01  Fs1  v092
 BYTE   W06
 BYTE   Cn1  v108
 BYTE   N01  Fs1  v092
 BYTE   W12
 BYTE   Cn1  v108
 BYTE   N01  Fs1
 BYTE   W02
 BYTE   PEND 
 BYTE   PATT
  POIN2 Label_0_0121F05A
// 005   ----------------------------------------
Label_0_0121F159:
 BYTE   W04
 BYTE   N01  Fs1  v092
 BYTE   W06
 BYTE   Cn1  v052
 BYTE   N01  Dn1  v108
 BYTE   N01  As1  v092
 BYTE   W06
 BYTE   Cn1  v052
 BYTE   N01  Dn1  v108
 BYTE   W06
 BYTE   En1
 BYTE   N01  Fs1  v092
 BYTE   W06
 BYTE   En1  v108
 BYTE   N01  Fs1  v092
 BYTE   W06
 BYTE   Cn1  v064
 BYTE   N01  Dn1  v092
 BYTE   N01  En1  v108
 BYTE   N01  As1  v092
 BYTE   W06
 BYTE   Dn1
 BYTE   N01  Fs1
 BYTE   W06
 BYTE   Cn1  v108
 BYTE   N01  Fs1  v092
 BYTE   W06
 BYTE   N01
 BYTE   W06
 BYTE   Cn1  v080
 BYTE   N01  Fs1  v092
 BYTE   W06
 BYTE   Cn1  v108
 BYTE   W06
 BYTE   En1  v080
 BYTE   N01  Fs1  v092
 BYTE   W06
 BYTE   Cn1  v064
 BYTE   N01  Fs1  v092
 BYTE   W06
 BYTE   Cn1  v108
 BYTE   N01  Fs1  v092
 BYTE   W12
 BYTE   Cn1  v108
 BYTE   N01  Fs1
 BYTE   W02
 BYTE   PEND 
 BYTE   PATT
  POIN2 Label_0_0121F05A
 BYTE   PATT
  POIN2 Label_0_0121F109
// 006   ----------------------------------------
 BYTE   W04
 BYTE   N01  Cn1  v064
 BYTE   N01  Fs1  v092
 BYTE   W06
 BYTE   Cn1  v064
 BYTE   N01  As1  v092
 BYTE   W06
 BYTE   Cn1  v064
 BYTE   W06
 BYTE   En1  v108
 BYTE   N01  Fs1  v092
 BYTE   W06
 BYTE   N01
 BYTE   W06
 BYTE   Cn1  v108
 BYTE   N01  As1  v092
 BYTE   W06
 BYTE   Cn1  v064
 BYTE   N01  Fs1  v092
 BYTE   W12
 BYTE   Cn1  v080
 BYTE   N01  Fs1  v092
 BYTE   W06
 BYTE   Cn1  v064
 BYTE   N01  As1  v092
 BYTE   W06
 BYTE   Cn1  v080
 BYTE   N01  Fs1  v108
 BYTE   W06
 BYTE   En1  v080
 BYTE   N01  As1  v092
 BYTE   W06
 BYTE   Cn1  v064
 BYTE   N01  Fs1  v092
 BYTE   W06
 BYTE   Cn1  v064
 BYTE   N01  Dn1  v108
 BYTE   N01  Fs1  v092
 BYTE   W06
 BYTE   Cn1  v052
 BYTE   N01  Dn1  v108
 BYTE   W06
 BYTE   Cn1
 BYTE   W02
// 007   ----------------------------------------
 BYTE   W04
 BYTE   En1
 BYTE   N01  Fs1  v092
 BYTE   W06
 BYTE   Cn1  v052
 BYTE   N01  Dn1  v108
 BYTE   N01  En1
 BYTE   N01  As1  v092
 BYTE   N01  Cn2  v108
 BYTE   W06
 BYTE   Cn1  v052
 BYTE   N01  Dn1  v108
 BYTE   N01  An1
 BYTE   W06
 BYTE   En1
 BYTE   N01  Fs1  v092
 BYTE   N01  An1  v108
 BYTE   W06
 BYTE   En1
 BYTE   N01  Fs1  v092
 BYTE   W06
 BYTE   Cn1  v064
 BYTE   N01  Dn1  v092
 BYTE   N01  En1  v108
 BYTE   N01  Fn1
 BYTE   N01  As1  v092
 BYTE   W06
 BYTE   Dn1
 BYTE   N01  Fs1
 BYTE   W06
 BYTE   Cn1  v108
 BYTE   N01  Fs1  v092
 BYTE   W06
 BYTE   N01
 BYTE   W06
 BYTE   Cn1  v080
 BYTE   N01  Fs1  v092
 BYTE   W06
 BYTE   Cn1  v108
 BYTE   W06
 BYTE   En1  v080
 BYTE   N01  Fs1  v092
 BYTE   W06
 BYTE   Cn1  v064
 BYTE   N01  Fs1  v092
 BYTE   W06
 BYTE   Cn1  v108
 BYTE   N01  Fs1  v092
 BYTE   W12
 BYTE   Cn1  v108
 BYTE   N01  Fs1
 BYTE   W02
 BYTE   PATT
  POIN2 Label_0_0121F05A
 BYTE   PATT
  POIN2 Label_0_0121F109
 BYTE   PATT
  POIN2 Label_0_0121F05A
 BYTE   PATT
  POIN2 Label_0_0121F159
 BYTE   PATT
  POIN2 Label_0_0121F05A
 BYTE   PATT
  POIN2 Label_0_0121F109
// 008   ----------------------------------------
 BYTE   W04
 BYTE   N01  Cn1  v064
 BYTE   N01  Fs1  v092
 BYTE   W06
 BYTE   Cn1  v064
 BYTE   N01  As1  v092
 BYTE   W06
 BYTE   Cn1  v064
 BYTE   W06
 BYTE   En1  v108
 BYTE   N01  Fs1  v092
 BYTE   W06
 BYTE   N01
 BYTE   W06
 BYTE   Cn1  v108
 BYTE   N01  As1  v092
 BYTE   W06
 BYTE   Cn1  v064
 BYTE   N01  Fs1  v092
 BYTE   W12
 BYTE   Cn1  v080
 BYTE   N01  Fs1  v092
 BYTE   W06
 BYTE   Cn1  v064
 BYTE   N01  As1  v092
 BYTE   W06
 BYTE   Cn1  v080
 BYTE   N01  Fs1  v108
 BYTE   W06
 BYTE   En1  v080
 BYTE   N01  As1  v092
 BYTE   W06
 BYTE   Cn1  v064
 BYTE   N01  En1  v008
 BYTE   N01  Fs1  v092
 BYTE   W06
 BYTE   Cn1  v064
 BYTE   N01  En1  v024
 BYTE   N01  Fs1  v092
 BYTE   W06
 BYTE   Cn1  v052
 BYTE   N01  En1  v036
 BYTE   W06
 BYTE   Cn1  v108
 BYTE   N01  En1  v036
 BYTE   W02
// 009   ----------------------------------------
 BYTE   W04
 BYTE   En1  v052
 BYTE   N01  Fs1  v092
 BYTE   W06
 BYTE   Cn1  v052
 BYTE   N01  Dn1  v108
 BYTE   N01  En1  v064
 BYTE   N01  As1  v092
 BYTE   W06
 BYTE   Cn1  v052
 BYTE   N01  Dn1  v108
 BYTE   N01  En1  v080
 BYTE   W06
 BYTE   En1  v108
 BYTE   N01  Fs1  v092
 BYTE   N01  Cs2  v120
 BYTE   W06
 BYTE   En1  v108
 BYTE   N01  Fs1  v092
 BYTE   W06
 BYTE   Cn1  v064
 BYTE   N01  Dn1  v092
 BYTE   N01  En1  v108
 BYTE   N01  As1  v092
 BYTE   W06
 BYTE   Dn1
 BYTE   N01  Fs1
 BYTE   W06
 BYTE   Cn1  v120
 BYTE   N01  Cs2
 BYTE   W36
 BYTE   Cn1
 BYTE   N01  Cs2
 BYTE   W14
// 010   ----------------------------------------
 BYTE   W22
 BYTE   Cn1  v052
 BYTE   N01  Ds2
 BYTE   W12
 BYTE   Cn1
 BYTE   W18
 BYTE   Cn1  v080
 BYTE   N01  Fs1  v092
 BYTE   W06
 BYTE   Cn1  v064
 BYTE   N01  As1  v092
 BYTE   W06
 BYTE   Cn1  v080
 BYTE   N01  Fs1  v108
 BYTE   W06
 BYTE   En1  v080
 BYTE   N01  As1  v092
 BYTE   W06
 BYTE   Cn1  v064
 BYTE   N01  En1  v008
 BYTE   N01  Fs1  v092
 BYTE   W06
 BYTE   Cn1  v064
 BYTE   N01  En1  v024
 BYTE   N01  Fs1  v092
 BYTE   W06
 BYTE   Cn1  v052
 BYTE   N01  En1  v036
 BYTE   W06
 BYTE   Cn1  v108
 BYTE   N01  En1  v036
 BYTE   W02
// 011   ----------------------------------------
 BYTE   W04
 BYTE   En1  v052
 BYTE   N01  Fs1  v092
 BYTE   W06
 BYTE   Cn1  v052
 BYTE   N01  Dn1  v108
 BYTE   N01  En1  v064
 BYTE   N01  As1  v092
 BYTE   W06
 BYTE   Cn1  v052
 BYTE   N01  Dn1  v108
 BYTE   N01  En1  v080
 BYTE   W06
 BYTE   En1  v108
 BYTE   N01  Fs1  v092
 BYTE   W06
 BYTE   En1  v108
 BYTE   N01  Fs1  v092
 BYTE   W06
 BYTE   Cn1  v064
 BYTE   N01  Dn1  v092
 BYTE   N01  En1  v108
 BYTE   N01  As1  v092
 BYTE   W06
 BYTE   Dn1
 BYTE   N01  Fs1
 BYTE   W06
 BYTE   Cn1  v108
 BYTE   N01  Fs1
 BYTE   N01  Cs2  v092
 BYTE   N01  En3  v064
 BYTE   W06
 BYTE   Fs1  v108
 BYTE   W06
 BYTE   En1  v064
 BYTE   N01  Fs1  v108
 BYTE   N01  Dn3  v064
 BYTE   W06
 BYTE   Cn1  v108
 BYTE   N01  Fs1
 BYTE   N01  Ds3  v092
 BYTE   W06
 BYTE   Cn1  v108
 BYTE   N01  As1
 BYTE   N01  Ds3  v092
 BYTE   W06
 BYTE   Cn1  v108
 BYTE   N01  Fs1
 BYTE   W06
 BYTE   En1
 BYTE   N01  Fs1
 BYTE   N01  Dn3
 BYTE   W06
 BYTE   Cn1
 BYTE   N01  Fs1
 BYTE   W06
 BYTE   N01
 BYTE   N01  Ds3  v064
 BYTE   W02
// 012   ----------------------------------------
Label_0_0121F3E0:
 BYTE   W04
 BYTE   N01  Cn1  v108
 BYTE   N01  Ds3  v064
 BYTE   W06
 BYTE   En1
 BYTE   N01  Fs1  v108
 BYTE   N01  Dn3
 BYTE   W06
 BYTE   Cn1
 BYTE   N01  Fs1
 BYTE   W06
 BYTE   Cn1
 BYTE   N01  As1
 BYTE   N01  Ds3  v064
 BYTE   W06
 BYTE   Cn1  v108
 BYTE   N01  Dn3
 BYTE   W06
 BYTE   En1
 BYTE   N01  Fs1
 BYTE   N01  Ds3  v064
 BYTE   W06
 BYTE   Fs1  v108
 BYTE   W06
 BYTE   Cn1
 BYTE   N01  Fs1
 BYTE   N01  En3  v064
 BYTE   W06
 BYTE   Fs1  v108
 BYTE   W06
 BYTE   En1  v064
 BYTE   N01  Fs1  v108
 BYTE   N01  Dn3  v064
 BYTE   W06
 BYTE   Cn1  v108
 BYTE   N01  Fs1
 BYTE   N01  Ds3  v092
 BYTE   W06
 BYTE   Cn1  v108
 BYTE   N01  As1
 BYTE   N01  Ds3  v092
 BYTE   W06
 BYTE   Cn1  v108
 BYTE   N01  Fs1
 BYTE   W06
 BYTE   En1
 BYTE   N01  Fs1
 BYTE   N01  Dn3
 BYTE   W06
 BYTE   Cn1
 BYTE   N01  Fs1
 BYTE   W06
 BYTE   N01
 BYTE   N01  Ds3  v064
 BYTE   W02
 BYTE   PEND 
 BYTE   PATT
  POIN2 Label_0_0121F3E0
 BYTE   PATT
  POIN2 Label_0_0121F3E0
// 013   ----------------------------------------
Label_0_0121F44B:
 BYTE   W04
 BYTE   N01  Cn1  v108
 BYTE   N01  Ds3  v064
 BYTE   W06
 BYTE   En1
 BYTE   N01  Fs1  v108
 BYTE   N01  Dn3
 BYTE   W06
 BYTE   Cn1
 BYTE   N01  Fs1
 BYTE   W06
 BYTE   Cn1
 BYTE   N01  As1
 BYTE   N01  Ds3  v064
 BYTE   W06
 BYTE   Cn1  v108
 BYTE   N01  Dn3
 BYTE   W06
 BYTE   En1
 BYTE   N01  Fs1
 BYTE   N01  Ds3  v064
 BYTE   W06
 BYTE   Fs1  v108
 BYTE   W06
 BYTE   Cn1
 BYTE   N01  Fs1
 BYTE   N01  Cs2  v092
 BYTE   N01  En3  v064
 BYTE   W06
 BYTE   Fs1  v108
 BYTE   W06
 BYTE   En1  v064
 BYTE   N01  Fs1  v108
 BYTE   N01  Dn3  v064
 BYTE   W06
 BYTE   Cn1  v108
 BYTE   N01  Fs1
 BYTE   N01  Ds3  v092
 BYTE   W06
 BYTE   Cn1  v108
 BYTE   N01  As1
 BYTE   N01  Ds3  v092
 BYTE   W06
 BYTE   Cn1  v108
 BYTE   N01  Fs1
 BYTE   W06
 BYTE   En1
 BYTE   N01  Fs1
 BYTE   N01  Dn3
 BYTE   W06
 BYTE   Cn1
 BYTE   N01  Fs1
 BYTE   W06
 BYTE   N01
 BYTE   N01  Ds3  v064
 BYTE   W02
 BYTE   PEND 
 BYTE   PATT
  POIN2 Label_0_0121F3E0
 BYTE   PATT
  POIN2 Label_0_0121F3E0
 BYTE   PATT
  POIN2 Label_0_0121F3E0
 BYTE   PATT
  POIN2 Label_0_0121F44B
 BYTE   PATT
  POIN2 Label_0_0121F3E0
 BYTE   PATT
  POIN2 Label_0_0121F3E0
 BYTE   PATT
  POIN2 Label_0_0121F3E0
 BYTE   PATT
  POIN2 Label_0_0121F44B
 BYTE   PATT
  POIN2 Label_0_0121F3E0
 BYTE   PATT
  POIN2 Label_0_0121F3E0
 BYTE   PATT
  POIN2 Label_0_0121F3E0
 BYTE   PATT
  POIN2 Label_0_0121F44B
 BYTE   PATT
  POIN2 Label_0_0121F3E0
 BYTE   PATT
  POIN2 Label_0_0121F3E0
 BYTE   PATT
  POIN2 Label_0_0121F3E0
 BYTE   PATT
  POIN2 Label_0_0121F44B
 BYTE   PATT
  POIN2 Label_0_0121F3E0
 BYTE   PATT
  POIN2 Label_0_0121F3E0
 BYTE   PATT
  POIN2 Label_0_0121F3E0
 BYTE   PATT
  POIN2 Label_0_0121F44B
 BYTE   PATT
  POIN2 Label_0_0121F3E0
 BYTE   PATT
  POIN2 Label_0_0121F3E0
 BYTE   PATT
  POIN2 Label_0_0121F3E0
 BYTE   PATT
  POIN2 Label_0_0121F44B
 BYTE   PATT
  POIN2 Label_0_0121F3E0
 BYTE   PATT
  POIN2 Label_0_0121F3E0
// 014   ----------------------------------------
 BYTE   W04
 BYTE   N01  Cn1  v108
 BYTE   N01  Ds3  v064
 BYTE   W06
 BYTE   En1
 BYTE   N01  Fs1  v108
 BYTE   N01  Dn3
 BYTE   W06
 BYTE   Cn1
 BYTE   N01  Fs1
 BYTE   W06
 BYTE   Cn1
 BYTE   N01  As1
 BYTE   N01  Ds3  v064
 BYTE   W06
 BYTE   Cn1  v108
 BYTE   N01  Dn3
 BYTE   W06
 BYTE   En1
 BYTE   N01  Fs1
 BYTE   N01  Ds3  v064
 BYTE   W06
 BYTE   Fs1  v108
 BYTE   W06
 BYTE   Cn1
 BYTE   N01  Fs1
 BYTE   N01  En3  v064
 BYTE   W06
 BYTE   Fs1  v108
 BYTE   W06
 BYTE   En1  v064
 BYTE   N01  Fs1  v108
 BYTE   N01  Dn3  v064
 BYTE   W06
 BYTE   Cn1  v108
 BYTE   N01  Fs1
 BYTE   N01  Ds3  v092
 BYTE   W06
 BYTE   Cn1  v108
 BYTE   N01  As1
 BYTE   N01  Ds3  v092
 BYTE   W06
 BYTE   Cn1  v108
 BYTE   N01  Fs1
 BYTE   W06
 BYTE   En1
 BYTE   N01  Fs1
 BYTE   N01  Dn3
 BYTE   W06
 BYTE   Cn1
 BYTE   N01  Fs1
 BYTE   W06
 BYTE   En1
 BYTE   N01  Fs1
 BYTE   N01  Ds3  v064
 BYTE   W02
// 015   ----------------------------------------
 BYTE   W04
 BYTE   Cn1  v108
 BYTE   N01  En1
 BYTE   N01  Ds3  v064
 BYTE   W06
 BYTE   En1
 BYTE   N01  Fs1  v108
 BYTE   N01  Dn3
 BYTE   W06
 BYTE   Cn1
 BYTE   N01  En1
 BYTE   N01  Fs1
 BYTE   W06
 BYTE   Cn1
 BYTE   N01  En1
 BYTE   N01  As1
 BYTE   N01  Ds3  v064
 BYTE   W06
 BYTE   Cn1  v108
 BYTE   N01  Dn1
 BYTE   N01  Dn3
 BYTE   W06
 BYTE   Dn1
 BYTE   N01  En1
 BYTE   N01  Fs1
 BYTE   N01  Ds3  v064
 BYTE   W06
 BYTE   Dn1  v108
 BYTE   N01  Fs1
 BYTE   W06
 BYTE   Cn1  v120
 BYTE   N01  Fs1  v108
 BYTE   N01  Cs2  v120
 BYTE   W06
 BYTE   Cn1  v064
 BYTE   N01  Fs1  v108
 BYTE   W06
 BYTE   Cn1  v064
 BYTE   N01  As1  v108
 BYTE   W06
 BYTE   Cn1  v064
 BYTE   N01  Fs1  v108
 BYTE   W06
 BYTE   En1  v064
 BYTE   N01  As1  v108
 BYTE   W06
 BYTE   Cn1  v064
 BYTE   N01  Fs1  v108
 BYTE   W06
 BYTE   Cn1  v064
 BYTE   N01  As1  v108
 BYTE   W06
 BYTE   Cn1  v080
 BYTE   N01  Fs1  v108
 BYTE   W06
 BYTE   En1  v092
 BYTE   N01  Fs1  v108
 BYTE   W02
// 016   ----------------------------------------
 BYTE   W04
 BYTE   Cn1  v092
 BYTE   N01  Fs1  v108
 BYTE   W06
 BYTE   Cn1  v080
 BYTE   N01  As1  v108
 BYTE   W06
 BYTE   Cn1  v092
 BYTE   N01  Fs1  v108
 BYTE   W06
 BYTE   En1  v080
 BYTE   N01  Fs1  v108
 BYTE   W06
 BYTE   Cn1  v092
 BYTE   N01  Fs1  v108
 BYTE   W06
 BYTE   Cn1  v080
 BYTE   N01  As1  v108
 BYTE   W06
 BYTE   Fs1
 BYTE   W06
 BYTE   Cn1  v120
 BYTE   N01  Fs1  v108
 BYTE   W06
 BYTE   Cn1  v064
 BYTE   N01  Fs1  v108
 BYTE   W06
 BYTE   Cn1  v064
 BYTE   N01  As1  v108
 BYTE   W06
 BYTE   Cn1  v064
 BYTE   N01  Fs1  v108
 BYTE   W06
 BYTE   En1  v064
 BYTE   N01  As1  v108
 BYTE   W06
 BYTE   Cn1  v064
 BYTE   N01  Fs1  v108
 BYTE   W06
 BYTE   Cn1  v064
 BYTE   N01  As1  v108
 BYTE   W06
 BYTE   Cn1  v080
 BYTE   N01  Fs1  v108
 BYTE   W06
 BYTE   En1  v092
 BYTE   N01  Fs1  v108
 BYTE   W02
// 017   ----------------------------------------
 BYTE   W04
 BYTE   Cn1  v092
 BYTE   N01  Fs1  v108
 BYTE   W06
 BYTE   Cn1  v080
 BYTE   N01  As1  v108
 BYTE   W06
 BYTE   Cn1  v092
 BYTE   N01  Fs1  v108
 BYTE   W06
 BYTE   En1  v080
 BYTE   N01  Fs1  v108
 BYTE   W06
 BYTE   Cn1  v092
 BYTE   N01  Fs1  v108
 BYTE   W06
 BYTE   Cn1  v080
 BYTE   N01  As1  v108
 BYTE   W02
 BYTE   TEMPO   146*Touhou6BelovedTomboyishGirlPikmin1211_tbs/2
 BYTE   W04
 BYTE   Fs1
 BYTE   W06
 BYTE   Cn1  v120
 BYTE   N01  En1  v108
 BYTE   N01  Fs1
 BYTE   N01  Cs2  v120
 BYTE   W01
 BYTE   TEMPO   148*Touhou6BelovedTomboyishGirlPikmin1211_tbs/2
 BYTE   W01
 BYTE   TEMPO   146*Touhou6BelovedTomboyishGirlPikmin1211_tbs/2
 BYTE   W04
 BYTE   Cn1  v080
 BYTE   N01  Fs1  v108
 BYTE   W06
 BYTE   TEMPO   146*Touhou6BelovedTomboyishGirlPikmin1211_tbs/2
 BYTE   As1
 BYTE   W05
 BYTE   TEMPO   144*Touhou6BelovedTomboyishGirlPikmin1211_tbs/2
 BYTE   W01
 BYTE   Fs1
 BYTE   W04
 BYTE   TEMPO   144*Touhou6BelovedTomboyishGirlPikmin1211_tbs/2
 BYTE   W02
 BYTE   As1
 BYTE   W05
 BYTE   TEMPO   142*Touhou6BelovedTomboyishGirlPikmin1211_tbs/2
 BYTE   W01
 BYTE   Fs1
 BYTE   W06
 BYTE   TEMPO   142*Touhou6BelovedTomboyishGirlPikmin1211_tbs/2
 BYTE   As1
 BYTE   W06
 BYTE   Fs1
 BYTE   W03
 BYTE   TEMPO   140*Touhou6BelovedTomboyishGirlPikmin1211_tbs/2
 BYTE   W03
 BYTE   Cn1  v120
 BYTE   N01  En1  v108
 BYTE   N01  Fs1
 BYTE   W02
// 018   ----------------------------------------
 BYTE   W04
 BYTE   Cn1  v080
 BYTE   N01  En1  v024
 BYTE   N01  Fs1  v108
 BYTE   W06
 BYTE   Cn1  v080
 BYTE   N01  En1  v036
 BYTE   N01  As1  v108
 BYTE   W02
 BYTE   TEMPO   140*Touhou6BelovedTomboyishGirlPikmin1211_tbs/2
 BYTE   W04
 BYTE   En1  v052
 BYTE   N01  Fs1  v108
 BYTE   W06
 BYTE   TEMPO   140*Touhou6BelovedTomboyishGirlPikmin1211_tbs/2
 BYTE   Dn1
 BYTE   N01  En1  v064
 BYTE   N01  Fs1  v108
 BYTE   W06
 BYTE   Cn1
 BYTE   N01  En1  v092
 BYTE   N01  Fs1  v108
 BYTE   W06
 BYTE   TEMPO   140*Touhou6BelovedTomboyishGirlPikmin1211_tbs/2
 BYTE   Dn1
 BYTE   N01  En1  v092
 BYTE   N01  As1  v108
 BYTE   W04
 BYTE   GoTo
  POIN2 Label_0_0121F0CA
// 019   ----------------------------------------
 BYTE   W02
 BYTE   N01  Cn1  v108
 BYTE   N01  En1  v092
 BYTE   N01  Fs1  v108
 BYTE   W06
 BYTE   TEMPO   148*Touhou6BelovedTomboyishGirlPikmin1211_tbs/2
 BYTE   W48
 BYTE   W02
 BYTE   W44
// 020   ----------------------------------------
 BYTE   W02
 BYTE   TEMPO   146*Touhou6BelovedTomboyishGirlPikmin1211_tbs/2
 BYTE   FINE

//**************** Track 2 (Midi-Chn.1) ****************//

Touhou6BelovedTomboyishGirlPikmin1211_002:
// 000   ----------------------------------------
 BYTE   KEYSH   Touhou6BelovedTomboyishGirlPikmin1211_key+0
 BYTE   VOICE   4
 BYTE   W96
// 001   ----------------------------------------
 BYTE   W01
 BYTE   W01
 BYTE   W01
 BYTE   W01
 BYTE   W01
 BYTE   W01
 BYTE   W01
 BYTE   VOL   21*Touhou6BelovedTomboyishGirlPikmin1211_mvl/mxv
 BYTE   PAN   c_v+2
 BYTE   W01
 BYTE   W01
 BYTE   W84
 BYTE   W03
// 002   ----------------------------------------
 BYTE   W96
// 003   ----------------------------------------
 BYTE   W22
 BYTE   N11  Dn3  v100
 BYTE   N11  Fs3
 BYTE   W11
Label_1_0121F730:
 BYTE   W01
 BYTE   N11  Dn3  v100
 BYTE   N11  Fs3
 BYTE   W12
 BYTE   N17  Dn3  v112
 BYTE   N17  Bn3  v120
 BYTE   W18
 BYTE   Dn3  v112
 BYTE   N17  An3  v120
 BYTE   W18
 BYTE   N11  Dn3  v112
 BYTE   N11  Bn3  v120
 BYTE   W12
 BYTE   N44  Bn3  v112
 BYTE   N44  Dn4  v120
 BYTE   W02
// 004   ----------------------------------------
Label_1_0121F752:
 BYTE   W44
 BYTE   W02
 BYTE   N11  Dn3  v112
 BYTE   N11  Bn3  v120
 BYTE   W12
 BYTE   Dn3  v112
 BYTE   N11  An3  v120
 BYTE   W12
 BYTE   Dn3  v112
 BYTE   N11  Bn3  v120
 BYTE   W12
 BYTE   N23  Bn3  v112
 BYTE   N23  Dn4  v120
 BYTE   W14
 BYTE   PEND 
// 005   ----------------------------------------
Label_1_0121F76F:
 BYTE   W10
 BYTE   N11  Bn3  v112
 BYTE   N11  En4  v120
 BYTE   W12
 BYTE   Fs3  v112
 BYTE   W01
 BYTE   Bn3  v120
 BYTE   W11
 BYTE   Fs3  v112
 BYTE   N11  An3  v120
 BYTE   W12
 BYTE   Dn3  v112
 BYTE   N11  Bn3  v120
 BYTE   W12
 BYTE   Dn3  v112
 BYTE   N11  An3  v120
 BYTE   W12
 BYTE   Dn3  v112
 BYTE   N11  Bn3  v120
 BYTE   W12
 BYTE   N60  Bn3  v112
 BYTE   N60  Dn4  v120
 BYTE   W14
 BYTE   PEND 
// 006   ----------------------------------------
Label_1_0121F79D:
 BYTE   W44
 BYTE   W02
 BYTE   N11  Dn3  v112
 BYTE   N11  Bn3  v120
 BYTE   W12
 BYTE   Dn3  v112
 BYTE   N11  An3  v120
 BYTE   W12
 BYTE   Dn3  v112
 BYTE   N11  Bn3  v120
 BYTE   W12
 BYTE   N23  Dn4  v112
 BYTE   N23  Fs4  v120
 BYTE   W14
 BYTE   PEND 
// 007   ----------------------------------------
Label_1_0121F7BA:
 BYTE   W10
 BYTE   N11  Dn4  v112
 BYTE   N11  Fs4  v120
 BYTE   W12
 BYTE   N23  Cs4  v112
 BYTE   N23  En4  v120
 BYTE   W24
 BYTE   N11  Dn3  v112
 BYTE   N11  Bn3  v120
 BYTE   W12
 BYTE   Dn3  v112
 BYTE   N11  An3  v120
 BYTE   W12
 BYTE   Dn3  v112
 BYTE   N11  Bn3  v120
 BYTE   W12
 BYTE   N60  Bn3  v112
 BYTE   N60  Dn4  v120
 BYTE   W14
 BYTE   PEND 
 BYTE   PATT
  POIN2 Label_1_0121F752
 BYTE   PATT
  POIN2 Label_1_0121F76F
 BYTE   PATT
  POIN2 Label_1_0121F79D
// 008   ----------------------------------------
 BYTE   W10
 BYTE   N11  Dn4  v112
 BYTE   N11  Fs4  v120
 BYTE   W12
 BYTE   N23  Cs4  v112
 BYTE   N23  En4  v120
 BYTE   W24
 BYTE   N17  Dn3  v112
 BYTE   N17  Bn3  v120
 BYTE   W18
 BYTE   Dn3  v112
 BYTE   N17  An3  v120
 BYTE   W18
 BYTE   N11  Dn3  v112
 BYTE   N11  Bn3  v120
 BYTE   W12
 BYTE   N44  Bn3  v112
 BYTE   N44  Dn4  v120
 BYTE   W02
 BYTE   PATT
  POIN2 Label_1_0121F752
 BYTE   PATT
  POIN2 Label_1_0121F76F
 BYTE   PATT
  POIN2 Label_1_0121F79D
 BYTE   PATT
  POIN2 Label_1_0121F7BA
 BYTE   PATT
  POIN2 Label_1_0121F752
 BYTE   PATT
  POIN2 Label_1_0121F76F
 BYTE   PATT
  POIN2 Label_1_0121F79D
// 009   ----------------------------------------
 BYTE   W10
 BYTE   N11  Dn4  v112
 BYTE   N11  Fs4  v120
 BYTE   W12
 BYTE   N02  En3
 BYTE   W03
 BYTE   Fs3
 BYTE   W03
 BYTE   An3
 BYTE   W03
 BYTE   Bn3
 BYTE   W03
 BYTE   Cs4
 BYTE   W03
 BYTE   Dn4
 BYTE   W03
 BYTE   En4
 BYTE   W03
 BYTE   Fs4
 BYTE   W03
 BYTE   N17  Fn3
 BYTE   N11  Dn4
 BYTE   W12
 BYTE   En3
 BYTE   N11  Cn4
 BYTE   W12
 BYTE   Fn3
 BYTE   N11  Dn4
 BYTE   W12
 BYTE   N23
 BYTE   N23  Fn4
 BYTE   W14
// 010   ----------------------------------------
 BYTE   W10
 BYTE   N06  Cn4
 BYTE   N06  En4
 BYTE   W06
 BYTE   Gn3
 BYTE   N06  Cn4
 BYTE   W06
 BYTE   N23  En3
 BYTE   N23  Gn3
 BYTE   W24
 BYTE   N44  Fn3
 BYTE   N44  Dn4
 BYTE   W48
 BYTE   W02
// 011   ----------------------------------------
 BYTE   W96
// 012   ----------------------------------------
 BYTE   W96
// 013   ----------------------------------------
 BYTE   W96
// 014   ----------------------------------------
 BYTE   W96
// 015   ----------------------------------------
 BYTE   W96
// 016   ----------------------------------------
 BYTE   W96
// 017   ----------------------------------------
 BYTE   W96
// 018   ----------------------------------------
 BYTE   W96
// 019   ----------------------------------------
 BYTE   W96
// 020   ----------------------------------------
 BYTE   W96
// 021   ----------------------------------------
 BYTE   W96
// 022   ----------------------------------------
 BYTE   W96
// 023   ----------------------------------------
 BYTE   W96
// 024   ----------------------------------------
 BYTE   W96
// 025   ----------------------------------------
 BYTE   W96
// 026   ----------------------------------------
 BYTE   W96
// 027   ----------------------------------------
 BYTE   W96
// 028   ----------------------------------------
 BYTE   W96
// 029   ----------------------------------------
 BYTE   W96
// 030   ----------------------------------------
 BYTE   W96
// 031   ----------------------------------------
 BYTE   W96
// 032   ----------------------------------------
 BYTE   W96
// 033   ----------------------------------------
 BYTE   W96
// 034   ----------------------------------------
 BYTE   W96
// 035   ----------------------------------------
 BYTE   W96
// 036   ----------------------------------------
 BYTE   W96
// 037   ----------------------------------------
 BYTE   W96
// 038   ----------------------------------------
 BYTE   W96
// 039   ----------------------------------------
 BYTE   W96
// 040   ----------------------------------------
 BYTE   W96
// 041   ----------------------------------------
 BYTE   W96
// 042   ----------------------------------------
 BYTE   W96
// 043   ----------------------------------------
 BYTE   W96
// 044   ----------------------------------------
 BYTE   W96
// 045   ----------------------------------------
 BYTE   W96
// 046   ----------------------------------------
 BYTE   W22
 BYTE   N11  Dn3  v100
 BYTE   N11  Fs3
 BYTE   W12
 BYTE   Dn3
 BYTE   N11  Fs3
 BYTE   W04
 BYTE   GoTo
  POIN2 Label_1_0121F730
// 047   ----------------------------------------
 BYTE   W56
 BYTE   W02
 BYTE   W44
// 048   ----------------------------------------
 BYTE   W02
 BYTE   FINE

//**************** Track 3 (Midi-Chn.2) ****************//

Touhou6BelovedTomboyishGirlPikmin1211_003:
// 000   ----------------------------------------
 BYTE   KEYSH   Touhou6BelovedTomboyishGirlPikmin1211_key+0
 BYTE   VOICE   1
 BYTE   W96
// 001   ----------------------------------------
 BYTE   W01
 BYTE   W01
 BYTE   W01
 BYTE   W01
 BYTE   W01
 BYTE   W01
 BYTE   W01
 BYTE   VOL   21*Touhou6BelovedTomboyishGirlPikmin1211_mvl/mxv
 BYTE   PAN   c_v+26
 BYTE   W01
 BYTE   W01
 BYTE   W84
 BYTE   W03
// 002   ----------------------------------------
 BYTE   W96
// 003   ----------------------------------------
 BYTE   W32
 BYTE   W01
Label_2_0121F8CF:
 BYTE   W60
 BYTE   W03
// 004   ----------------------------------------
 BYTE   W96
// 005   ----------------------------------------
 BYTE   W96
// 006   ----------------------------------------
 BYTE   W96
// 007   ----------------------------------------
 BYTE   W96
// 008   ----------------------------------------
 BYTE   W96
// 009   ----------------------------------------
 BYTE   W96
// 010   ----------------------------------------
 BYTE   W96
// 011   ----------------------------------------
 BYTE   W96
// 012   ----------------------------------------
 BYTE   W96
// 013   ----------------------------------------
 BYTE   W96
// 014   ----------------------------------------
 BYTE   W96
// 015   ----------------------------------------
 BYTE   W96
// 016   ----------------------------------------
 BYTE   W96
// 017   ----------------------------------------
 BYTE   W96
// 018   ----------------------------------------
 BYTE   W96
// 019   ----------------------------------------
 BYTE   W96
// 020   ----------------------------------------
 BYTE   W92
 BYTE   W02
 BYTE   N11  Dn4  v120
 BYTE   W02
// 021   ----------------------------------------
 BYTE   W10
 BYTE   En4
 BYTE   W12
 BYTE   Fn4
 BYTE   W12
 BYTE   Gn4
 BYTE   W12
 BYTE   N32  An4
 BYTE   W36
 BYTE   N11  An4  v112
 BYTE   W12
 BYTE   Fn4  v120
 BYTE   W02
// 022   ----------------------------------------
Label_2_0121F8F8:
 BYTE   W10
 BYTE   N11  An4  v120
 BYTE   W12
 BYTE   N03  Fn4  v100
 BYTE   W03
 BYTE   N11  An4  v112
 BYTE   W03
 BYTE   Fn4  v120
 BYTE   W06
 BYTE   En4
 BYTE   W12
 BYTE   Fn4  v100
 BYTE   W03
 BYTE   N56  Dn4  v120
 BYTE   W44
 BYTE   W03
 BYTE   PEND 
// 023   ----------------------------------------
Label_2_0121F913:
 BYTE   W10
 BYTE   N11  Dn4  v120
 BYTE   W12
 BYTE   Fn4
 BYTE   W12
 BYTE   An4
 BYTE   W12
 BYTE   N32  Dn5
 BYTE   W36
 BYTE   N11
 BYTE   W12
 BYTE   Cn5
 BYTE   W02
 BYTE   PEND 
// 024   ----------------------------------------
Label_2_0121F924:
 BYTE   W10
 BYTE   N11  Dn5  v120
 BYTE   W12
 BYTE   N02  Cn5
 BYTE   W03
 BYTE   Dn5
 BYTE   W03
 BYTE   N06  Cn5
 BYTE   W06
 BYTE   N11  Gn4
 BYTE   W12
 BYTE   N68  An4
 BYTE   W48
 BYTE   W02
 BYTE   PEND 
// 025   ----------------------------------------
Label_2_0121F939:
 BYTE   W22
 BYTE   N23  En5  v120
 BYTE   W24
 BYTE   N32  Fn5
 BYTE   W36
 BYTE   N11
 BYTE   W12
 BYTE   En5
 BYTE   W02
 BYTE   PEND 
// 026   ----------------------------------------
Label_2_0121F946:
 BYTE   W10
 BYTE   N11  Fn5  v120
 BYTE   W12
 BYTE   An5
 BYTE   W12
 BYTE   En5
 BYTE   W12
 BYTE   Gn5
 BYTE   W12
 BYTE   Dn5  v116
 BYTE   W12
 BYTE   Bn4
 BYTE   W12
 BYTE   Gn5  v120
 BYTE   W12
 BYTE   Dn5  v116
 BYTE   W02
 BYTE   PEND 
// 027   ----------------------------------------
Label_2_0121F95D:
 BYTE   W10
 BYTE   N11  Bn4  v116
 BYTE   W12
 BYTE   N12  Cn5  v092
 BYTE   W01
 BYTE   N23  En5  v120
 BYTE   W23
 BYTE   N11  Fn5
 BYTE   W12
 BYTE   Dn5  v112
 BYTE   W12
 BYTE   An4
 BYTE   W13
 BYTE   Fn5  v120
 BYTE   W12
 BYTE   En5
 BYTE   W01
 BYTE   PEND 
// 028   ----------------------------------------
Label_2_0121F978:
 BYTE   W10
 BYTE   N11  Cn5  v100
 BYTE   W12
 BYTE   Gn4
 BYTE   W13
 BYTE   En5  v112
 BYTE   W11
 BYTE   N32  En5  v120
 BYTE   W36
 BYTE   N11  Dn5
 BYTE   W12
 BYTE   N11
 BYTE   W02
 BYTE   PEND 
// 029   ----------------------------------------
Label_2_0121F98C:
 BYTE   W10
 BYTE   N11  Dn4  v120
 BYTE   W12
 BYTE   En4
 BYTE   W12
 BYTE   Fn4
 BYTE   W12
 BYTE   N32  An4
 BYTE   W36
 BYTE   N11  An4  v112
 BYTE   W12
 BYTE   Fn4  v120
 BYTE   W02
 BYTE   PEND 
 BYTE   PATT
  POIN2 Label_2_0121F8F8
 BYTE   PATT
  POIN2 Label_2_0121F913
 BYTE   PATT
  POIN2 Label_2_0121F924
 BYTE   PATT
  POIN2 Label_2_0121F939
// 030   ----------------------------------------
Label_2_0121F9B4:
 BYTE   W10
 BYTE   N11  Fn5  v120
 BYTE   W12
 BYTE   An5
 BYTE   W12
 BYTE   En5
 BYTE   W12
 BYTE   Gn5
 BYTE   W12
 BYTE   Dn5
 BYTE   W12
 BYTE   Bn4
 BYTE   W12
 BYTE   Gn5
 BYTE   W12
 BYTE   Dn5
 BYTE   W02
 BYTE   PEND 
// 031   ----------------------------------------
Label_2_0121F9C8:
 BYTE   W10
 BYTE   N11  Bn4  v120
 BYTE   W12
 BYTE   N12  Cn5  v092
 BYTE   W01
 BYTE   N23  En5  v120
 BYTE   W23
 BYTE   N01  En5  v060
 BYTE   W01
 BYTE   N11  Fn5  v120
 BYTE   W11
 BYTE   Dn5
 BYTE   W12
 BYTE   An4
 BYTE   W13
 BYTE   Fn5
 BYTE   W11
 BYTE   En5
 BYTE   W02
 BYTE   PEND 
// 032   ----------------------------------------
 BYTE   W11
 BYTE   Cn5
 BYTE   W12
 BYTE   Gn4
 BYTE   W12
 BYTE   En5
 BYTE   W11
 BYTE   N32
 BYTE   W36
 BYTE   N11  Dn5
 BYTE   W12
 BYTE   N11
 BYTE   W02
 BYTE   PATT
  POIN2 Label_2_0121F98C
 BYTE   PATT
  POIN2 Label_2_0121F8F8
 BYTE   PATT
  POIN2 Label_2_0121F913
 BYTE   PATT
  POIN2 Label_2_0121F924
 BYTE   PATT
  POIN2 Label_2_0121F939
 BYTE   PATT
  POIN2 Label_2_0121F946
 BYTE   PATT
  POIN2 Label_2_0121F95D
 BYTE   PATT
  POIN2 Label_2_0121F978
 BYTE   PATT
  POIN2 Label_2_0121F98C
 BYTE   PATT
  POIN2 Label_2_0121F8F8
 BYTE   PATT
  POIN2 Label_2_0121F913
 BYTE   PATT
  POIN2 Label_2_0121F924
 BYTE   PATT
  POIN2 Label_2_0121F939
 BYTE   PATT
  POIN2 Label_2_0121F9B4
 BYTE   PATT
  POIN2 Label_2_0121F9C8
// 033   ----------------------------------------
 BYTE   W11
 BYTE   N11  Cn5  v120
 BYTE   W12
 BYTE   Gn4
 BYTE   W12
 BYTE   En5
 BYTE   W11
 BYTE   N32
 BYTE   W36
 BYTE   Dn5
 BYTE   W14
// 034   ----------------------------------------
 BYTE   W22
 BYTE   N23  An5
 BYTE   W24
 BYTE   N11
 BYTE   W12
 BYTE   Fn5
 BYTE   W12
 BYTE   Dn5
 BYTE   W13
 BYTE   An5
 BYTE   W11
 BYTE   Gn5
 BYTE   W02
// 035   ----------------------------------------
 BYTE   W11
 BYTE   En5
 BYTE   W12
 BYTE   Cn5
 BYTE   W12
 BYTE   Gn5
 BYTE   W11
 BYTE   N32
 BYTE   W36
 BYTE   N11  An5
 BYTE   W12
 BYTE   N32  Fn5
 BYTE   W02
// 036   ----------------------------------------
 BYTE   W32
 BYTE   W02
 BYTE   N11  An5
 BYTE   W12
 BYTE   N11
 BYTE   W12
 BYTE   Fn5
 BYTE   W12
 BYTE   Dn5
 BYTE   W13
 BYTE   An5
 BYTE   W11
 BYTE   Cn6
 BYTE   W02
// 037   ----------------------------------------
 BYTE   W11
 BYTE   Gn5
 BYTE   W12
 BYTE   En5
 BYTE   W12
 BYTE   Cn6
 BYTE   W03
 BYTE   GoTo
  POIN2 Label_2_0121F8CF
// 038   ----------------------------------------
 BYTE   W56
 BYTE   W02
 BYTE   W44
// 039   ----------------------------------------
 BYTE   W02
 BYTE   FINE

//**************** Track 4 (Midi-Chn.3) ****************//

Touhou6BelovedTomboyishGirlPikmin1211_004:
// 000   ----------------------------------------
 BYTE   KEYSH   Touhou6BelovedTomboyishGirlPikmin1211_key+0
 BYTE   VOICE   24
 BYTE   W96
// 001   ----------------------------------------
 BYTE   W01
 BYTE   W01
 BYTE   W01
 BYTE   W01
 BYTE   W01
 BYTE   W01
 BYTE   W01
 BYTE   VOL   17*Touhou6BelovedTomboyishGirlPikmin1211_mvl/mxv
 BYTE   PAN   c_v+36
 BYTE   W01
 BYTE   W01
 BYTE   W84
 BYTE   W03
// 002   ----------------------------------------
 BYTE   W96
// 003   ----------------------------------------
 BYTE   W32
 BYTE   W01
Label_3_0121FAA3:
 BYTE   W60
 BYTE   W03
// 004   ----------------------------------------
 BYTE   W96
// 005   ----------------------------------------
 BYTE   W96
// 006   ----------------------------------------
 BYTE   W96
// 007   ----------------------------------------
 BYTE   W96
// 008   ----------------------------------------
 BYTE   W96
// 009   ----------------------------------------
 BYTE   W96
// 010   ----------------------------------------
 BYTE   W96
// 011   ----------------------------------------
 BYTE   W96
// 012   ----------------------------------------
 BYTE   W96
// 013   ----------------------------------------
 BYTE   W96
// 014   ----------------------------------------
 BYTE   W96
// 015   ----------------------------------------
 BYTE   W96
// 016   ----------------------------------------
 BYTE   W96
// 017   ----------------------------------------
 BYTE   W96
// 018   ----------------------------------------
 BYTE   W96
// 019   ----------------------------------------
 BYTE   W96
// 020   ----------------------------------------
 BYTE   W44
 BYTE   W02
 BYTE   N11  Dn3  v100
 BYTE   W12
 BYTE   An3
 BYTE   W12
 BYTE   Dn3
 BYTE   W12
 BYTE   An3
 BYTE   W12
 BYTE   Cn3
 BYTE   W02
// 021   ----------------------------------------
 BYTE   W10
 BYTE   Gn3
 BYTE   W12
 BYTE   Cn3
 BYTE   W12
 BYTE   Gn3
 BYTE   W12
 BYTE   Dn3  v112
 BYTE   W12
 BYTE   An3  v120
 BYTE   W12
 BYTE   N06  Fn3  v100
 BYTE   W06
 BYTE   N17  Dn4
 BYTE   W18
 BYTE   N11  Cn3  v112
 BYTE   W02
// 022   ----------------------------------------
Label_3_0121FADB:
 BYTE   W10
 BYTE   N11  An3  v120
 BYTE   W12
 BYTE   Fn3  v100
 BYTE   W12
 BYTE   Dn4  v112
 BYTE   W12
 BYTE   An2
 BYTE   W12
 BYTE   Cs3  v120
 BYTE   W12
 BYTE   N06  Gn3  v100
 BYTE   W06
 BYTE   N17  Bn3
 BYTE   W18
 BYTE   N11  Dn4  v112
 BYTE   W02
 BYTE   PEND 
// 023   ----------------------------------------
Label_3_0121FAF7:
 BYTE   W10
 BYTE   N11  Bn3  v120
 BYTE   W12
 BYTE   Gn3  v100
 BYTE   W12
 BYTE   Dn3  v112
 BYTE   W12
 BYTE   As2
 BYTE   W12
 BYTE   Fn3  v120
 BYTE   W12
 BYTE   N06  Dn3  v100
 BYTE   W06
 BYTE   N17  Fn3
 BYTE   W18
 BYTE   N11  Cn3  v112
 BYTE   W02
 BYTE   PEND 
// 024   ----------------------------------------
Label_3_0121FB13:
 BYTE   W10
 BYTE   N11  En3  v120
 BYTE   W12
 BYTE   Cn3  v100
 BYTE   W12
 BYTE   Gn3  v112
 BYTE   W12
 BYTE   Cs3
 BYTE   W12
 BYTE   An3  v120
 BYTE   W12
 BYTE   N06  En3  v100
 BYTE   W06
 BYTE   N17  An3
 BYTE   W18
 BYTE   N11  Cs3  v112
 BYTE   W02
 BYTE   PEND 
// 025   ----------------------------------------
Label_3_0121FB2F:
 BYTE   W10
 BYTE   N11  An3  v120
 BYTE   W12
 BYTE   En3  v100
 BYTE   W12
 BYTE   An3  v112
 BYTE   W12
 BYTE   Dn3
 BYTE   W12
 BYTE   An3  v120
 BYTE   W12
 BYTE   N06  Fn3  v100
 BYTE   W06
 BYTE   N17  Dn4
 BYTE   W18
 BYTE   N11  Cn4  v112
 BYTE   W02
 BYTE   PEND 
// 026   ----------------------------------------
Label_3_0121FB4B:
 BYTE   W10
 BYTE   N11  Fn4  v120
 BYTE   W12
 BYTE   An3  v100
 BYTE   W12
 BYTE   En4  v112
 BYTE   W12
 BYTE   Bn2
 BYTE   W12
 BYTE   Dn3  v120
 BYTE   W12
 BYTE   N06  Gn3  v100
 BYTE   W06
 BYTE   N17  Bn3
 BYTE   W18
 BYTE   N11  Dn4  v112
 BYTE   W02
 BYTE   PEND 
// 027   ----------------------------------------
Label_3_0121FB67:
 BYTE   W10
 BYTE   N11  Bn3  v120
 BYTE   W12
 BYTE   Gn4  v100
 BYTE   W12
 BYTE   Bn3  v112
 BYTE   W12
 BYTE   As2
 BYTE   W12
 BYTE   Fn3  v120
 BYTE   W12
 BYTE   N06  Dn3  v100
 BYTE   W06
 BYTE   N17  Fn3
 BYTE   W18
 BYTE   N11  Cn3  v112
 BYTE   W02
 BYTE   PEND 
// 028   ----------------------------------------
Label_3_0121FB83:
 BYTE   W10
 BYTE   N11  Gn3  v120
 BYTE   W12
 BYTE   En3  v100
 BYTE   W12
 BYTE   Gn3  v112
 BYTE   W12
 BYTE   Dn3
 BYTE   W12
 BYTE   An3  v120
 BYTE   W12
 BYTE   N06  Fn3  v100
 BYTE   W06
 BYTE   N17  Dn4
 BYTE   W18
 BYTE   N11  An3  v112
 BYTE   W02
 BYTE   PEND 
// 029   ----------------------------------------
Label_3_0121FB9F:
 BYTE   W10
 BYTE   N11  Fn4  v120
 BYTE   W12
 BYTE   Gn3  v100
 BYTE   W12
 BYTE   En4  v112
 BYTE   W12
 BYTE   Dn3
 BYTE   W12
 BYTE   An3  v120
 BYTE   W12
 BYTE   N06  Fn3  v100
 BYTE   W06
 BYTE   N17  Dn4
 BYTE   W18
 BYTE   N11  Cn3  v112
 BYTE   W02
 BYTE   PEND 
 BYTE   PATT
  POIN2 Label_3_0121FADB
 BYTE   PATT
  POIN2 Label_3_0121FAF7
 BYTE   PATT
  POIN2 Label_3_0121FB13
 BYTE   PATT
  POIN2 Label_3_0121FB2F
 BYTE   PATT
  POIN2 Label_3_0121FB4B
 BYTE   PATT
  POIN2 Label_3_0121FB67
 BYTE   PATT
  POIN2 Label_3_0121FB83
 BYTE   PATT
  POIN2 Label_3_0121FB9F
 BYTE   PATT
  POIN2 Label_3_0121FADB
 BYTE   PATT
  POIN2 Label_3_0121FAF7
 BYTE   PATT
  POIN2 Label_3_0121FB13
 BYTE   PATT
  POIN2 Label_3_0121FB2F
 BYTE   PATT
  POIN2 Label_3_0121FB4B
 BYTE   PATT
  POIN2 Label_3_0121FB67
 BYTE   PATT
  POIN2 Label_3_0121FB83
 BYTE   PATT
  POIN2 Label_3_0121FB9F
 BYTE   PATT
  POIN2 Label_3_0121FADB
 BYTE   PATT
  POIN2 Label_3_0121FAF7
 BYTE   PATT
  POIN2 Label_3_0121FB13
 BYTE   PATT
  POIN2 Label_3_0121FB2F
 BYTE   PATT
  POIN2 Label_3_0121FB4B
 BYTE   PATT
  POIN2 Label_3_0121FB67
 BYTE   PATT
  POIN2 Label_3_0121FB83
// 030   ----------------------------------------
 BYTE   W10
 BYTE   N11  Fn4  v120
 BYTE   W12
 BYTE   Gn3  v100
 BYTE   W12
 BYTE   En4  v112
 BYTE   W60
 BYTE   W02
// 031   ----------------------------------------
 BYTE   W96
// 032   ----------------------------------------
 BYTE   W96
// 033   ----------------------------------------
 BYTE   W36
 BYTE   W02
 BYTE   GoTo
  POIN2 Label_3_0121FAA3
// 034   ----------------------------------------
 BYTE   W56
 BYTE   W02
 BYTE   W44
// 035   ----------------------------------------
 BYTE   W02
 BYTE   FINE

//**************** Track 5 (Midi-Chn.4) ****************//

Touhou6BelovedTomboyishGirlPikmin1211_005:
// 000   ----------------------------------------
 BYTE   KEYSH   Touhou6BelovedTomboyishGirlPikmin1211_key+0
 BYTE   VOICE   28
 BYTE   W96
// 001   ----------------------------------------
 BYTE   W01
 BYTE   W01
 BYTE   W01
 BYTE   W01
 BYTE   W01
 BYTE   W01
 BYTE   W01
 BYTE   VOL   20*Touhou6BelovedTomboyishGirlPikmin1211_mvl/mxv
 BYTE   PAN   c_v+0
 BYTE   W01
 BYTE   W01
 BYTE   W84
 BYTE   W03
// 002   ----------------------------------------
 BYTE   W96
// 003   ----------------------------------------
 BYTE   W32
 BYTE   W01
Label_4_0121FC5F:
 BYTE   W60
 BYTE   W03
// 004   ----------------------------------------
 BYTE   W96
// 005   ----------------------------------------
 BYTE   W96
// 006   ----------------------------------------
 BYTE   W96
// 007   ----------------------------------------
 BYTE   W96
// 008   ----------------------------------------
 BYTE   W96
// 009   ----------------------------------------
 BYTE   W96
// 010   ----------------------------------------
 BYTE   W96
// 011   ----------------------------------------
 BYTE   W96
// 012   ----------------------------------------
 BYTE   W96
// 013   ----------------------------------------
 BYTE   W96
// 014   ----------------------------------------
 BYTE   W96
// 015   ----------------------------------------
 BYTE   W96
// 016   ----------------------------------------
 BYTE   W96
// 017   ----------------------------------------
 BYTE   W96
// 018   ----------------------------------------
 BYTE   W96
// 019   ----------------------------------------
 BYTE   W96
// 020   ----------------------------------------
 BYTE   W44
 BYTE   W02
 BYTE   N44  Dn2  v116
 BYTE   N44  An2
 BYTE   W48
 BYTE   Cn2
 BYTE   N44  Gn2
 BYTE   W02
// 021   ----------------------------------------
Label_4_0121FC7D:
 BYTE   W44
 BYTE   W02
 BYTE   N44  Dn2  v116
 BYTE   N44  An2
 BYTE   W48
 BYTE   Cn2
 BYTE   N44  An2
 BYTE   W02
 BYTE   PEND 
// 022   ----------------------------------------
Label_4_0121FC8A:
 BYTE   W44
 BYTE   W02
 BYTE   N92  Bn1  v116
 BYTE   N92  Gn2
 BYTE   W48
 BYTE   W02
 BYTE   PEND 
// 023   ----------------------------------------
Label_4_0121FC94:
 BYTE   W44
 BYTE   W02
 BYTE   N44  As1  v116
 BYTE   N44  Dn2
 BYTE   W48
 BYTE   Cn2
 BYTE   N44  En2
 BYTE   W02
 BYTE   PEND 
// 024   ----------------------------------------
Label_4_0121FCA1:
 BYTE   W44
 BYTE   W02
 BYTE   N92  Cs2  v116
 BYTE   N92  An2
 BYTE   W48
 BYTE   W02
 BYTE   PEND 
 BYTE   PATT
  POIN2 Label_4_0121FC7D
// 025   ----------------------------------------
Label_4_0121FCB0:
 BYTE   W44
 BYTE   W02
 BYTE   N68  Bn1  v116
 BYTE   N68  Gn2
 BYTE   W48
 BYTE   W02
 BYTE   PEND 
// 026   ----------------------------------------
Label_4_0121FCBA:
 BYTE   W22
 BYTE   N23  Cn2  v116
 BYTE   N23  Gn2
 BYTE   W24
 BYTE   N44  As1
 BYTE   N44  Fn2
 BYTE   W48
 BYTE   Cn2
 BYTE   N44  Gn2
 BYTE   W02
 BYTE   PEND 
// 027   ----------------------------------------
Label_4_0121FCCB:
 BYTE   W44
 BYTE   W02
 BYTE   N68  Dn2  v116
 BYTE   N68  An2
 BYTE   W48
 BYTE   W02
 BYTE   PEND 
// 028   ----------------------------------------
Label_4_0121FCD5:
 BYTE   W22
 BYTE   N23  Cn2  v116
 BYTE   N23  Gn2
 BYTE   W24
 BYTE   N44  Dn2
 BYTE   N44  An2
 BYTE   W48
 BYTE   Cn2
 BYTE   N44  An2
 BYTE   W02
 BYTE   PEND 
 BYTE   PATT
  POIN2 Label_4_0121FC8A
 BYTE   PATT
  POIN2 Label_4_0121FC94
 BYTE   PATT
  POIN2 Label_4_0121FCA1
 BYTE   PATT
  POIN2 Label_4_0121FC7D
 BYTE   PATT
  POIN2 Label_4_0121FCB0
 BYTE   PATT
  POIN2 Label_4_0121FCBA
 BYTE   PATT
  POIN2 Label_4_0121FCCB
 BYTE   PATT
  POIN2 Label_4_0121FCD5
 BYTE   PATT
  POIN2 Label_4_0121FC8A
 BYTE   PATT
  POIN2 Label_4_0121FC94
 BYTE   PATT
  POIN2 Label_4_0121FCA1
 BYTE   PATT
  POIN2 Label_4_0121FC7D
 BYTE   PATT
  POIN2 Label_4_0121FCB0
 BYTE   PATT
  POIN2 Label_4_0121FCBA
 BYTE   PATT
  POIN2 Label_4_0121FCCB
 BYTE   PATT
  POIN2 Label_4_0121FCD5
 BYTE   PATT
  POIN2 Label_4_0121FC8A
 BYTE   PATT
  POIN2 Label_4_0121FC94
 BYTE   PATT
  POIN2 Label_4_0121FCA1
 BYTE   PATT
  POIN2 Label_4_0121FC7D
 BYTE   PATT
  POIN2 Label_4_0121FCB0
 BYTE   PATT
  POIN2 Label_4_0121FCBA
 BYTE   PATT
  POIN2 Label_4_0121FCCB
// 029   ----------------------------------------
 BYTE   W22
 BYTE   N23  Cn2  v116
 BYTE   N23  Gn2
 BYTE   W72
 BYTE   W02
// 030   ----------------------------------------
 BYTE   W96
// 031   ----------------------------------------
 BYTE   W96
// 032   ----------------------------------------
 BYTE   W36
 BYTE   W02
 BYTE   GoTo
  POIN2 Label_4_0121FC5F
// 033   ----------------------------------------
 BYTE   W56
 BYTE   W02
 BYTE   W44
// 034   ----------------------------------------
 BYTE   W02
 BYTE   FINE

//**************** Track 6 (Midi-Chn.5) ****************//

Touhou6BelovedTomboyishGirlPikmin1211_006:
// 000   ----------------------------------------
 BYTE   KEYSH   Touhou6BelovedTomboyishGirlPikmin1211_key+0
 BYTE   VOICE   45
 BYTE   W96
// 001   ----------------------------------------
 BYTE   W01
 BYTE   W01
 BYTE   W01
 BYTE   W01
 BYTE   W01
 BYTE   W01
 BYTE   W01
 BYTE   VOL   21*Touhou6BelovedTomboyishGirlPikmin1211_mvl/mxv
 BYTE   PAN   c_v+6
 BYTE   W01
 BYTE   W01
 BYTE   W84
 BYTE   W03
// 002   ----------------------------------------
 BYTE   W96
// 003   ----------------------------------------
 BYTE   W32
 BYTE   W01
Label_5_0121FD87:
 BYTE   W60
 BYTE   W03
// 004   ----------------------------------------
 BYTE   W96
// 005   ----------------------------------------
 BYTE   W96
// 006   ----------------------------------------
 BYTE   W96
// 007   ----------------------------------------
 BYTE   W96
// 008   ----------------------------------------
 BYTE   W96
// 009   ----------------------------------------
 BYTE   W96
// 010   ----------------------------------------
 BYTE   W96
// 011   ----------------------------------------
 BYTE   W96
// 012   ----------------------------------------
 BYTE   W96
// 013   ----------------------------------------
 BYTE   W96
// 014   ----------------------------------------
 BYTE   W96
// 015   ----------------------------------------
 BYTE   W96
// 016   ----------------------------------------
 BYTE   W96
// 017   ----------------------------------------
 BYTE   W96
// 018   ----------------------------------------
 BYTE   W96
// 019   ----------------------------------------
 BYTE   W96
// 020   ----------------------------------------
 BYTE   W44
 BYTE   W02
 BYTE   N48  Fn3  v060
 BYTE   N48  Dn4
 BYTE   W48
 BYTE   N44  Gn3  v092
 BYTE   N44  En4
 BYTE   W02
// 021   ----------------------------------------
Label_5_0121FDA7:
 BYTE   W44
 BYTE   W02
 BYTE   N48  Fn3  v052
 BYTE   N48  Dn4
 BYTE   W48
 BYTE   N44  Fn3
 BYTE   N44  Dn4
 BYTE   W02
 BYTE   PEND 
// 022   ----------------------------------------
Label_5_0121FDB5:
 BYTE   W44
 BYTE   W02
 BYTE   N44  Bn3  v072
 BYTE   N44  Gn4  v080
 BYTE   W48
 BYTE   N36  Cs4
 BYTE   N12  Fn4
 BYTE   W02
 BYTE   PEND 
// 023   ----------------------------------------
Label_5_0121FDC4:
 BYTE   W10
 BYTE   N12  En4  v080
 BYTE   W12
 BYTE   N24  Gn3
 BYTE   W12
 BYTE   N12  En3
 BYTE   W12
 BYTE   N44  As2
 BYTE   N44  Dn3
 BYTE   W48
 BYTE   N23  Cn3
 BYTE   N23  En3
 BYTE   W02
 BYTE   PEND 
// 024   ----------------------------------------
Label_5_0121FDDA:
 BYTE   W22
 BYTE   N23  En3  v080
 BYTE   N23  Cn4
 BYTE   W24
 BYTE   N92  Fn3
 BYTE   N92  Cs4
 BYTE   W48
 BYTE   W02
 BYTE   PEND 
// 025   ----------------------------------------
Label_5_0121FDE8:
 BYTE   W44
 BYTE   W02
 BYTE   N92  Fn3  v080
 BYTE   N92  Dn4
 BYTE   W48
 BYTE   W02
 BYTE   PEND 
// 026   ----------------------------------------
Label_5_0121FDF2:
 BYTE   W44
 BYTE   W02
 BYTE   N92  Dn3  v080
 BYTE   N92  Bn3
 BYTE   W48
 BYTE   W02
 BYTE   PEND 
// 027   ----------------------------------------
Label_5_0121FDFC:
 BYTE   W44
 BYTE   W02
 BYTE   N44  Dn3  v080
 BYTE   N44  As3
 BYTE   W48
 BYTE   En3
 BYTE   N44  Cn4
 BYTE   W02
 BYTE   PEND 
 BYTE   PATT
  POIN2 Label_5_0121FDE8
 BYTE   PATT
  POIN2 Label_5_0121FDA7
 BYTE   PATT
  POIN2 Label_5_0121FDB5
 BYTE   PATT
  POIN2 Label_5_0121FDC4
 BYTE   PATT
  POIN2 Label_5_0121FDDA
 BYTE   PATT
  POIN2 Label_5_0121FDE8
 BYTE   PATT
  POIN2 Label_5_0121FDF2
 BYTE   PATT
  POIN2 Label_5_0121FDFC
 BYTE   PATT
  POIN2 Label_5_0121FDE8
 BYTE   PATT
  POIN2 Label_5_0121FDA7
 BYTE   PATT
  POIN2 Label_5_0121FDB5
 BYTE   PATT
  POIN2 Label_5_0121FDC4
 BYTE   PATT
  POIN2 Label_5_0121FDDA
 BYTE   PATT
  POIN2 Label_5_0121FDE8
 BYTE   PATT
  POIN2 Label_5_0121FDF2
 BYTE   PATT
  POIN2 Label_5_0121FDFC
 BYTE   PATT
  POIN2 Label_5_0121FDE8
 BYTE   PATT
  POIN2 Label_5_0121FDA7
 BYTE   PATT
  POIN2 Label_5_0121FDB5
 BYTE   PATT
  POIN2 Label_5_0121FDC4
 BYTE   PATT
  POIN2 Label_5_0121FDDA
 BYTE   PATT
  POIN2 Label_5_0121FDE8
 BYTE   PATT
  POIN2 Label_5_0121FDF2
 BYTE   PATT
  POIN2 Label_5_0121FDFC
 BYTE   PATT
  POIN2 Label_5_0121FDE8
// 028   ----------------------------------------
 BYTE   W96
// 029   ----------------------------------------
 BYTE   W96
// 030   ----------------------------------------
 BYTE   W96
// 031   ----------------------------------------
 BYTE   W36
 BYTE   W02
 BYTE   GoTo
  POIN2 Label_5_0121FD87
// 032   ----------------------------------------
 BYTE   W56
 BYTE   W02
 BYTE   W44
// 033   ----------------------------------------
 BYTE   W02
 BYTE   FINE

//**************** Track 7 (Midi-Chn.6) ****************//

Touhou6BelovedTomboyishGirlPikmin1211_007:
// 000   ----------------------------------------
 BYTE   KEYSH   Touhou6BelovedTomboyishGirlPikmin1211_key+0
 BYTE   VOICE   80
 BYTE   VOL   8*Touhou6BelovedTomboyishGirlPikmin1211_mvl/mxv
 BYTE   W96
// 001   ----------------------------------------
 BYTE   W01
 BYTE   W01
 BYTE   W01
 BYTE   W01
 BYTE   W01
 BYTE   W01
 BYTE   W01
 BYTE   PAN   c_v+6
 BYTE   W01
 BYTE   W01
 BYTE   W84
 BYTE   W03
// 002   ----------------------------------------
 BYTE   W96
// 003   ----------------------------------------
 BYTE   W32
 BYTE   W01
Label_6_0121FEAF:
 BYTE   W13
 BYTE   PAN   c_v-34
 BYTE   N06  Dn4  v100
 BYTE   W06
 BYTE   Dn4  v052
 BYTE   N06  Fs4  v100
 BYTE   W06
 BYTE   Fs4  v052
 BYTE   N06  Dn5  v100
 BYTE   W06
 BYTE   Dn4  v052
 BYTE   N06  Bn4  v100
 BYTE   W06
 BYTE   Dn4  v052
 BYTE   N06  Bn4  v100
 BYTE   W06
 BYTE   Dn4  v092
 BYTE   W06
 BYTE   Bn4
 BYTE   W06
 BYTE   Fs4
 BYTE   W06
 BYTE   Dn5
 BYTE   W02
// 004   ----------------------------------------
Label_6_0121FED7:
 BYTE   W04
 BYTE   N06  Cs5  v092
 BYTE   W06
 BYTE   En4
 BYTE   W06
 BYTE   Bn4  v100
 BYTE   W06
 BYTE   Dn4
 BYTE   W06
 BYTE   Fs4  v052
 BYTE   N06  Dn5  v100
 BYTE   W06
 BYTE   Dn4  v052
 BYTE   W06
 BYTE   Fs4
 BYTE   N06  Dn5  v100
 BYTE   W06
 BYTE   Fs4
 BYTE   W06
 BYTE   Fs4  v052
 BYTE   N06  Dn5  v100
 BYTE   W06
 BYTE   En4  v052
 BYTE   N06  Cs5  v100
 BYTE   W06
 BYTE   Dn4  v052
 BYTE   N06  Bn4  v100
 BYTE   W06
 BYTE   Cs4  v052
 BYTE   N06  En4  v100
 BYTE   W06
 BYTE   Bn3  v092
 BYTE   W06
 BYTE   Fs4
 BYTE   W06
 BYTE   Dn4
 BYTE   W06
 BYTE   Bn3
 BYTE   W02
 BYTE   PEND 
// 005   ----------------------------------------
Label_6_0121FF15:
 BYTE   W04
 BYTE   N06  En4  v092
 BYTE   W06
 BYTE   Cs4
 BYTE   W06
 BYTE   An3  v100
 BYTE   W06
 BYTE   Bn3
 BYTE   W06
 BYTE   Fs4  v052
 BYTE   N06  Dn5  v100
 BYTE   W06
 BYTE   Bn4  v052
 BYTE   W06
 BYTE   En4
 BYTE   N06  Cs5  v100
 BYTE   W06
 BYTE   Dn4
 BYTE   W06
 BYTE   Dn4  v052
 BYTE   N06  Fs4  v100
 BYTE   W06
 BYTE   Fs4  v052
 BYTE   N06  Dn5  v100
 BYTE   W06
 BYTE   Dn4  v052
 BYTE   N06  Bn4  v100
 BYTE   W06
 BYTE   Dn4  v052
 BYTE   N06  Bn4  v100
 BYTE   W06
 BYTE   Dn4  v092
 BYTE   W06
 BYTE   Bn4
 BYTE   W06
 BYTE   Fs4
 BYTE   W06
 BYTE   Dn5
 BYTE   W02
 BYTE   PEND 
// 006   ----------------------------------------
Label_6_0121FF53:
 BYTE   W04
 BYTE   N06  Cs5  v092
 BYTE   W06
 BYTE   En4
 BYTE   W06
 BYTE   Bn4  v100
 BYTE   W06
 BYTE   Dn4
 BYTE   W06
 BYTE   Fs4  v052
 BYTE   N06  Dn5  v100
 BYTE   W06
 BYTE   Dn4  v052
 BYTE   W06
 BYTE   Fs4
 BYTE   N06  Dn5  v100
 BYTE   W06
 BYTE   Fs4
 BYTE   W06
 BYTE   Dn5  v052
 BYTE   N06  Fs5  v100
 BYTE   W06
 BYTE   Cs5  v052
 BYTE   N06  En5  v100
 BYTE   W06
 BYTE   Bn4  v052
 BYTE   N06  Dn5  v100
 BYTE   W06
 BYTE   En4  v052
 BYTE   N06  Cs5  v100
 BYTE   W06
 BYTE   Fs4  v092
 BYTE   W06
 BYTE   En4
 BYTE   W06
 BYTE   Dn4
 BYTE   W06
 BYTE   En4
 BYTE   W02
 BYTE   PEND 
// 007   ----------------------------------------
 BYTE   W04
 BYTE   Fs4
 BYTE   W06
 BYTE   Dn5
 BYTE   W06
 BYTE   Cs5  v100
 BYTE   W06
 BYTE   Fs4
 BYTE   W06
 BYTE   Dn4  v052
 BYTE   N06  Fs4  v100
 BYTE   W06
 BYTE   Fs5  v052
 BYTE   W06
 BYTE   Cs5
 BYTE   N06  En5  v100
 BYTE   W06
 BYTE   Dn4
 BYTE   W06
 BYTE   Dn4  v052
 BYTE   N06  Fs4  v100
 BYTE   W06
 BYTE   Fs4  v052
 BYTE   N06  Dn5  v100
 BYTE   W06
 BYTE   Dn4  v052
 BYTE   N06  Bn4  v100
 BYTE   W06
 BYTE   Dn4  v052
 BYTE   N06  Bn4  v100
 BYTE   W06
 BYTE   Dn4  v092
 BYTE   W06
 BYTE   Bn4
 BYTE   W06
 BYTE   Fs4
 BYTE   W06
 BYTE   Dn5
 BYTE   W02
 BYTE   PATT
  POIN2 Label_6_0121FED7
 BYTE   PATT
  POIN2 Label_6_0121FF15
 BYTE   PATT
  POIN2 Label_6_0121FF53
// 008   ----------------------------------------
 BYTE   W04
 BYTE   N06  Fs4  v092
 BYTE   W06
 BYTE   Dn5
 BYTE   W06
 BYTE   Cs5  v100
 BYTE   W06
 BYTE   Fs4
 BYTE   W06
 BYTE   Dn4  v052
 BYTE   N06  Fs4  v100
 BYTE   W06
 BYTE   Fs5  v052
 BYTE   W06
 BYTE   Cs5
 BYTE   N06  En5  v100
 BYTE   W06
 BYTE   Dn5
 BYTE   W06
 BYTE   Dn5  v052
 BYTE   N06  Fs5  v100
 BYTE   W06
 BYTE   Fs5  v052
 BYTE   N06  Dn6  v100
 BYTE   W06
 BYTE   Dn5  v052
 BYTE   N06  Bn5  v100
 BYTE   W06
 BYTE   Dn5  v052
 BYTE   N06  Bn5  v100
 BYTE   W06
 BYTE   Dn5  v092
 BYTE   W06
 BYTE   Bn5
 BYTE   W06
 BYTE   Fs5
 BYTE   W06
 BYTE   Dn6
 BYTE   W02
// 009   ----------------------------------------
Label_6_01220018:
 BYTE   W04
 BYTE   N06  Cs6  v092
 BYTE   W06
 BYTE   En5
 BYTE   W06
 BYTE   Bn5  v100
 BYTE   W06
 BYTE   Dn5
 BYTE   W06
 BYTE   Fs5  v052
 BYTE   N06  Dn6  v100
 BYTE   W06
 BYTE   Dn5  v052
 BYTE   W06
 BYTE   Fs5
 BYTE   N06  Dn6  v100
 BYTE   W06
 BYTE   Fs5
 BYTE   W06
 BYTE   Fs5  v052
 BYTE   N06  Dn6  v100
 BYTE   W06
 BYTE   En5  v052
 BYTE   N06  Cs6  v100
 BYTE   W06
 BYTE   Dn5  v052
 BYTE   N06  Bn5  v100
 BYTE   W06
 BYTE   Cs5  v052
 BYTE   N06  En5  v100
 BYTE   W06
 BYTE   Bn4  v092
 BYTE   W06
 BYTE   Fs5
 BYTE   W06
 BYTE   Dn5
 BYTE   W06
 BYTE   Bn4
 BYTE   W02
 BYTE   PEND 
// 010   ----------------------------------------
Label_6_01220056:
 BYTE   W04
 BYTE   N06  En5  v092
 BYTE   W06
 BYTE   Cs5
 BYTE   W06
 BYTE   An4  v100
 BYTE   W06
 BYTE   Bn4
 BYTE   W06
 BYTE   Fs5  v052
 BYTE   N06  Dn6  v100
 BYTE   W06
 BYTE   Bn5  v052
 BYTE   W06
 BYTE   En5
 BYTE   N06  Cs6  v100
 BYTE   W06
 BYTE   Dn5
 BYTE   W06
 BYTE   Dn5  v052
 BYTE   N06  Fs5  v100
 BYTE   W06
 BYTE   Fs5  v052
 BYTE   N06  Dn6  v100
 BYTE   W06
 BYTE   Dn5  v052
 BYTE   N06  Bn5  v100
 BYTE   W06
 BYTE   Dn5  v052
 BYTE   N06  Bn5  v100
 BYTE   W06
 BYTE   Dn5  v092
 BYTE   W06
 BYTE   Bn5
 BYTE   W06
 BYTE   Fs5
 BYTE   W06
 BYTE   Dn6
 BYTE   W02
 BYTE   PEND 
// 011   ----------------------------------------
Label_6_01220094:
 BYTE   W04
 BYTE   N06  Cs6  v092
 BYTE   W06
 BYTE   En5
 BYTE   W06
 BYTE   Bn5  v100
 BYTE   W06
 BYTE   Dn5
 BYTE   W06
 BYTE   Fs5  v052
 BYTE   N06  Dn6  v100
 BYTE   W06
 BYTE   Dn5  v052
 BYTE   W06
 BYTE   Fs5
 BYTE   N06  Dn6  v100
 BYTE   W06
 BYTE   Fs5
 BYTE   W06
 BYTE   Dn6  v052
 BYTE   N06  Fs6  v100
 BYTE   W06
 BYTE   Cs6  v052
 BYTE   N06  En6  v100
 BYTE   W06
 BYTE   Bn5  v052
 BYTE   N06  Dn6  v100
 BYTE   W06
 BYTE   En5  v052
 BYTE   N06  Cs6  v100
 BYTE   W06
 BYTE   Fs5  v092
 BYTE   W06
 BYTE   En5
 BYTE   W06
 BYTE   Dn5
 BYTE   W06
 BYTE   En5
 BYTE   W02
 BYTE   PEND 
// 012   ----------------------------------------
 BYTE   W04
 BYTE   Fs5
 BYTE   W06
 BYTE   Dn6
 BYTE   W06
 BYTE   Cs6  v100
 BYTE   W06
 BYTE   Fs5
 BYTE   W06
 BYTE   Dn5  v052
 BYTE   N06  Fs5  v100
 BYTE   W06
 BYTE   Fs6  v052
 BYTE   W06
 BYTE   Cs6
 BYTE   N06  En6  v100
 BYTE   W06
 BYTE   Dn5
 BYTE   W06
 BYTE   Dn5  v052
 BYTE   N06  Fs5  v100
 BYTE   W06
 BYTE   Fs5  v052
 BYTE   N06  Dn6  v100
 BYTE   W06
 BYTE   Dn5  v052
 BYTE   N06  Bn5  v100
 BYTE   W06
 BYTE   Dn5  v052
 BYTE   N06  Bn5  v100
 BYTE   W06
 BYTE   Dn5  v092
 BYTE   W06
 BYTE   Bn5
 BYTE   W06
 BYTE   Fs5
 BYTE   W06
 BYTE   Dn6
 BYTE   W02
 BYTE   PATT
  POIN2 Label_6_01220018
 BYTE   PATT
  POIN2 Label_6_01220056
 BYTE   PATT
  POIN2 Label_6_01220094
// 013   ----------------------------------------
 BYTE   W04
 BYTE   N06  Fs5  v092
 BYTE   W06
 BYTE   Dn6
 BYTE   W06
 BYTE   Cs6  v100
 BYTE   W06
 BYTE   Fs5
 BYTE   W06
 BYTE   Dn5  v052
 BYTE   N06  Fs5  v100
 BYTE   W06
 BYTE   Fs6  v052
 BYTE   W06
 BYTE   Cs6
 BYTE   N06  En6  v100
 BYTE   W56
// 014   ----------------------------------------
 BYTE   W96
// 015   ----------------------------------------
 BYTE   W96
// 016   ----------------------------------------
 BYTE   W96
// 017   ----------------------------------------
 BYTE   W96
// 018   ----------------------------------------
 BYTE   W96
// 019   ----------------------------------------
 BYTE   W96
// 020   ----------------------------------------
 BYTE   W96
// 021   ----------------------------------------
 BYTE   W96
// 022   ----------------------------------------
 BYTE   W96
// 023   ----------------------------------------
 BYTE   W96
// 024   ----------------------------------------
 BYTE   W96
// 025   ----------------------------------------
 BYTE   W96
// 026   ----------------------------------------
 BYTE   W96
// 027   ----------------------------------------
 BYTE   W96
// 028   ----------------------------------------
 BYTE   W96
// 029   ----------------------------------------
 BYTE   W96
// 030   ----------------------------------------
 BYTE   W44
 BYTE   W02
 BYTE   PAN   c_v+6
 BYTE   W48
 BYTE   W02
// 031   ----------------------------------------
 BYTE   W10
 BYTE   N11  Fn3  v120
 BYTE   W12
 BYTE   Gn3
 BYTE   W12
 BYTE   An3
 BYTE   W12
 BYTE   N32  Fn4
 BYTE   W36
 BYTE   N11  Fn4  v112
 BYTE   W12
 BYTE   An3  v120
 BYTE   W02
// 032   ----------------------------------------
 BYTE   W10
 BYTE   Fn4
 BYTE   W12
 BYTE   N03  An3  v100
 BYTE   W03
 BYTE   N11  Fn4  v112
 BYTE   W03
 BYTE   An3  v120
 BYTE   W06
 BYTE   Gn3
 BYTE   W12
 BYTE   N56  Fn3
 BYTE   W48
 BYTE   W02
// 033   ----------------------------------------
 BYTE   W10
 BYTE   N11
 BYTE   W12
 BYTE   An3
 BYTE   W12
 BYTE   Fn4
 BYTE   W12
 BYTE   N32  An4
 BYTE   W36
 BYTE   N11
 BYTE   W12
 BYTE   En4
 BYTE   W02
// 034   ----------------------------------------
 BYTE   W10
 BYTE   Fn4
 BYTE   W12
 BYTE   N02  En4
 BYTE   W03
 BYTE   Fn4
 BYTE   W03
 BYTE   N06  En4
 BYTE   W06
 BYTE   N11  Cn4
 BYTE   W12
 BYTE   N68  Cs4
 BYTE   W48
 BYTE   W02
// 035   ----------------------------------------
 BYTE   W22
 BYTE   N23  Gn4
 BYTE   W24
 BYTE   N32  Fn4
 BYTE   W36
 BYTE   N11
 BYTE   W12
 BYTE   Gn4
 BYTE   W02
// 036   ----------------------------------------
 BYTE   W10
 BYTE   An4
 BYTE   W12
 BYTE   Cn5
 BYTE   W12
 BYTE   Gn4
 BYTE   W12
 BYTE   Dn5
 BYTE   W12
 BYTE   Bn4  v116
 BYTE   W12
 BYTE   Gn4
 BYTE   W12
 BYTE   Dn5  v120
 BYTE   W12
 BYTE   Bn4  v116
 BYTE   W02
// 037   ----------------------------------------
 BYTE   W10
 BYTE   Gn4
 BYTE   W12
 BYTE   N12  Gn4  v092
 BYTE   W01
 BYTE   N23  Cn5  v120
 BYTE   W23
 BYTE   N11  An4
 BYTE   W12
 BYTE   Fn4  v112
 BYTE   W12
 BYTE   Dn4
 BYTE   W13
 BYTE   An4  v120
 BYTE   W12
 BYTE   Gn4
 BYTE   W01
// 038   ----------------------------------------
 BYTE   W10
 BYTE   En4  v100
 BYTE   W12
 BYTE   Cn4
 BYTE   W13
 BYTE   Gn4  v112
 BYTE   W11
 BYTE   N32  Gn4  v120
 BYTE   W36
 BYTE   N11  An4
 BYTE   W12
 BYTE   Fn4
 BYTE   W02
// 039   ----------------------------------------
 BYTE   W10
 BYTE   N11
 BYTE   W12
 BYTE   Gn4
 BYTE   W12
 BYTE   An4
 BYTE   W12
 BYTE   N32  Fn5
 BYTE   W36
 BYTE   N11  Fn5  v112
 BYTE   W12
 BYTE   An4  v120
 BYTE   W02
// 040   ----------------------------------------
 BYTE   W10
 BYTE   Fn5
 BYTE   W12
 BYTE   N03  An4  v100
 BYTE   W03
 BYTE   N11  Fn5  v112
 BYTE   W03
 BYTE   An4  v120
 BYTE   W06
 BYTE   Gn4
 BYTE   W12
 BYTE   N56  Fn4
 BYTE   W48
 BYTE   W02
// 041   ----------------------------------------
 BYTE   W10
 BYTE   N11
 BYTE   W12
 BYTE   An4
 BYTE   W12
 BYTE   Fn5
 BYTE   W12
 BYTE   N32  An5
 BYTE   W36
 BYTE   N11
 BYTE   W12
 BYTE   En5
 BYTE   W02
// 042   ----------------------------------------
 BYTE   W10
 BYTE   Fn5
 BYTE   W12
 BYTE   N02  En5
 BYTE   W03
 BYTE   Fn5
 BYTE   W03
 BYTE   N06  En5
 BYTE   W06
 BYTE   N11  Cn5
 BYTE   W12
 BYTE   N68  Cs5
 BYTE   W48
 BYTE   W02
// 043   ----------------------------------------
 BYTE   W22
 BYTE   N23  Gn5
 BYTE   W24
 BYTE   N32  Fn5
 BYTE   W36
 BYTE   N11
 BYTE   W12
 BYTE   Gn5
 BYTE   W02
// 044   ----------------------------------------
 BYTE   W10
 BYTE   An5
 BYTE   W12
 BYTE   Cn6
 BYTE   W12
 BYTE   Gn5
 BYTE   W12
 BYTE   Dn6
 BYTE   W12
 BYTE   Bn5  v116
 BYTE   W12
 BYTE   Gn5
 BYTE   W12
 BYTE   Dn6  v120
 BYTE   W12
 BYTE   Bn5  v116
 BYTE   W02
// 045   ----------------------------------------
 BYTE   W10
 BYTE   Gn5
 BYTE   W12
 BYTE   N12  Gn5  v092
 BYTE   W01
 BYTE   N23  Cn6  v120
 BYTE   W23
 BYTE   N11  An5
 BYTE   W12
 BYTE   Fn5  v112
 BYTE   W12
 BYTE   Dn5
 BYTE   W13
 BYTE   An5  v120
 BYTE   W12
 BYTE   Gn5
 BYTE   W01
// 046   ----------------------------------------
 BYTE   W10
 BYTE   En5  v100
 BYTE   W12
 BYTE   Cn5
 BYTE   W13
 BYTE   Gn5  v112
 BYTE   W11
 BYTE   N32  Gn5  v120
 BYTE   W36
 BYTE   An5
 BYTE   W14
// 047   ----------------------------------------
 BYTE   W22
 BYTE   N23  An4
 BYTE   W24
 BYTE   N11
 BYTE   W12
 BYTE   Fn4
 BYTE   W12
 BYTE   Dn4
 BYTE   W13
 BYTE   An4
 BYTE   W11
 BYTE   Gn4
 BYTE   W02
// 048   ----------------------------------------
 BYTE   W11
 BYTE   En4
 BYTE   W12
 BYTE   Cn4
 BYTE   W12
 BYTE   Gn4
 BYTE   W11
 BYTE   N32
 BYTE   W36
 BYTE   N11  An4
 BYTE   W12
 BYTE   N32  Fn4
 BYTE   W02
// 049   ----------------------------------------
 BYTE   W32
 BYTE   W02
 BYTE   N11  An4
 BYTE   W12
 BYTE   N11
 BYTE   W12
 BYTE   Fn4
 BYTE   W12
 BYTE   Dn4
 BYTE   W13
 BYTE   An4
 BYTE   W11
 BYTE   Cn5
 BYTE   W02
// 050   ----------------------------------------
 BYTE   W11
 BYTE   Gn4
 BYTE   W12
 BYTE   En4
 BYTE   W12
 BYTE   Cn5
 BYTE   W03
 BYTE   GoTo
  POIN2 Label_6_0121FEAF
// 051   ----------------------------------------
 BYTE   W56
 BYTE   W02
 BYTE   W44
// 052   ----------------------------------------
 BYTE   W02
 BYTE   FINE

//**************** Track 8 (Midi-Chn.7) ****************//

Touhou6BelovedTomboyishGirlPikmin1211_008:
// 000   ----------------------------------------
 BYTE   KEYSH   Touhou6BelovedTomboyishGirlPikmin1211_key+0
 BYTE   VOICE   6
 BYTE   W96
// 001   ----------------------------------------
 BYTE   W01
 BYTE   W01
 BYTE   W01
 BYTE   W01
 BYTE   W01
 BYTE   W01
 BYTE   W01
 BYTE   VOL   13*Touhou6BelovedTomboyishGirlPikmin1211_mvl/mxv
 BYTE   PAN   c_v-44
 BYTE   W01
 BYTE   W01
 BYTE   W84
 BYTE   W03
// 002   ----------------------------------------
 BYTE   W96
// 003   ----------------------------------------
 BYTE   W32
 BYTE   W01
Label_7_012202BB:
 BYTE   W60
 BYTE   W03
// 004   ----------------------------------------
 BYTE   W96
// 005   ----------------------------------------
 BYTE   W96
// 006   ----------------------------------------
 BYTE   W96
// 007   ----------------------------------------
 BYTE   W96
// 008   ----------------------------------------
 BYTE   W96
// 009   ----------------------------------------
 BYTE   W96
// 010   ----------------------------------------
 BYTE   W96
// 011   ----------------------------------------
 BYTE   W96
// 012   ----------------------------------------
 BYTE   W96
// 013   ----------------------------------------
 BYTE   W96
// 014   ----------------------------------------
 BYTE   W96
// 015   ----------------------------------------
 BYTE   W96
// 016   ----------------------------------------
 BYTE   W96
// 017   ----------------------------------------
 BYTE   W96
// 018   ----------------------------------------
 BYTE   W96
// 019   ----------------------------------------
 BYTE   W96
// 020   ----------------------------------------
 BYTE   W92
 BYTE   W02
 BYTE   N11  Dn2  v120
 BYTE   W02
// 021   ----------------------------------------
 BYTE   W10
 BYTE   En2
 BYTE   W12
 BYTE   Fn2
 BYTE   W12
 BYTE   Gn2
 BYTE   W12
 BYTE   N32  An2
 BYTE   W36
 BYTE   N11  An2  v112
 BYTE   W12
 BYTE   Fn2  v120
 BYTE   W02
// 022   ----------------------------------------
Label_7_012202E4:
 BYTE   W10
 BYTE   N11  An2  v120
 BYTE   W12
 BYTE   N03  Fn2  v100
 BYTE   W03
 BYTE   N11  An2  v112
 BYTE   W03
 BYTE   Fn2  v120
 BYTE   W06
 BYTE   En2
 BYTE   W12
 BYTE   Fn2  v100
 BYTE   W03
 BYTE   N56  Dn2  v120
 BYTE   W44
 BYTE   W03
 BYTE   PEND 
// 023   ----------------------------------------
Label_7_012202FF:
 BYTE   W10
 BYTE   N11  Dn2  v120
 BYTE   W12
 BYTE   Fn2
 BYTE   W12
 BYTE   An2
 BYTE   W12
 BYTE   N32  Dn3
 BYTE   W36
 BYTE   N11
 BYTE   W12
 BYTE   Cn3
 BYTE   W02
 BYTE   PEND 
// 024   ----------------------------------------
Label_7_01220310:
 BYTE   W10
 BYTE   N11  Dn3  v120
 BYTE   W12
 BYTE   N02  Cn3
 BYTE   W03
 BYTE   Dn3
 BYTE   W03
 BYTE   N06  Cn3
 BYTE   W06
 BYTE   N11  Gn2
 BYTE   W12
 BYTE   N68  An2
 BYTE   W48
 BYTE   W02
 BYTE   PEND 
// 025   ----------------------------------------
Label_7_01220325:
 BYTE   W22
 BYTE   N23  En3  v120
 BYTE   W24
 BYTE   N32  Fn3
 BYTE   W36
 BYTE   N11
 BYTE   W12
 BYTE   En3
 BYTE   W02
 BYTE   PEND 
// 026   ----------------------------------------
Label_7_01220332:
 BYTE   W10
 BYTE   N11  Fn3  v120
 BYTE   W12
 BYTE   An3
 BYTE   W12
 BYTE   En3
 BYTE   W12
 BYTE   Gn3
 BYTE   W12
 BYTE   Dn3  v116
 BYTE   W12
 BYTE   Bn2
 BYTE   W12
 BYTE   Gn3  v120
 BYTE   W12
 BYTE   Dn3  v116
 BYTE   W02
 BYTE   PEND 
// 027   ----------------------------------------
Label_7_01220349:
 BYTE   W10
 BYTE   N11  Bn2  v116
 BYTE   W12
 BYTE   N12  Cn3  v092
 BYTE   W01
 BYTE   N23  En3  v120
 BYTE   W23
 BYTE   N11  Fn3
 BYTE   W12
 BYTE   Dn3  v112
 BYTE   W12
 BYTE   An2
 BYTE   W13
 BYTE   Fn3  v120
 BYTE   W12
 BYTE   En3
 BYTE   W01
 BYTE   PEND 
// 028   ----------------------------------------
Label_7_01220364:
 BYTE   W10
 BYTE   N11  Cn3  v100
 BYTE   W12
 BYTE   Gn2
 BYTE   W13
 BYTE   En3  v112
 BYTE   W11
 BYTE   N32  En3  v120
 BYTE   W36
 BYTE   N11  Dn3
 BYTE   W12
 BYTE   N11
 BYTE   W02
 BYTE   PEND 
// 029   ----------------------------------------
Label_7_01220378:
 BYTE   W10
 BYTE   N11  Dn2  v120
 BYTE   W12
 BYTE   En2
 BYTE   W12
 BYTE   Fn2
 BYTE   W12
 BYTE   N32  An2
 BYTE   W36
 BYTE   N11  An2  v112
 BYTE   W12
 BYTE   Fn2  v120
 BYTE   W02
 BYTE   PEND 
 BYTE   PATT
  POIN2 Label_7_012202E4
 BYTE   PATT
  POIN2 Label_7_012202FF
 BYTE   PATT
  POIN2 Label_7_01220310
 BYTE   PATT
  POIN2 Label_7_01220325
// 030   ----------------------------------------
Label_7_012203A0:
 BYTE   W10
 BYTE   N11  Fn3  v120
 BYTE   W12
 BYTE   An3
 BYTE   W12
 BYTE   En3
 BYTE   W12
 BYTE   Gn3
 BYTE   W12
 BYTE   Dn3
 BYTE   W12
 BYTE   Bn2
 BYTE   W12
 BYTE   Gn3
 BYTE   W12
 BYTE   Dn3
 BYTE   W02
 BYTE   PEND 
// 031   ----------------------------------------
Label_7_012203B4:
 BYTE   W10
 BYTE   N11  Bn2  v120
 BYTE   W12
 BYTE   N12  Cn3  v092
 BYTE   W01
 BYTE   N23  En3  v120
 BYTE   W23
 BYTE   N01  En3  v060
 BYTE   W01
 BYTE   N11  Fn3  v120
 BYTE   W11
 BYTE   Dn3
 BYTE   W12
 BYTE   An2
 BYTE   W13
 BYTE   Fn3
 BYTE   W11
 BYTE   En3
 BYTE   W02
 BYTE   PEND 
// 032   ----------------------------------------
 BYTE   W11
 BYTE   Cn3
 BYTE   W12
 BYTE   Gn2
 BYTE   W12
 BYTE   En3
 BYTE   W11
 BYTE   N32
 BYTE   W36
 BYTE   N11  Dn3
 BYTE   W12
 BYTE   N11
 BYTE   W02
 BYTE   PATT
  POIN2 Label_7_01220378
 BYTE   PATT
  POIN2 Label_7_012202E4
 BYTE   PATT
  POIN2 Label_7_012202FF
 BYTE   PATT
  POIN2 Label_7_01220310
 BYTE   PATT
  POIN2 Label_7_01220325
 BYTE   PATT
  POIN2 Label_7_01220332
 BYTE   PATT
  POIN2 Label_7_01220349
 BYTE   PATT
  POIN2 Label_7_01220364
 BYTE   PATT
  POIN2 Label_7_01220378
 BYTE   PATT
  POIN2 Label_7_012202E4
 BYTE   PATT
  POIN2 Label_7_012202FF
 BYTE   PATT
  POIN2 Label_7_01220310
 BYTE   PATT
  POIN2 Label_7_01220325
 BYTE   PATT
  POIN2 Label_7_012203A0
 BYTE   PATT
  POIN2 Label_7_012203B4
// 033   ----------------------------------------
 BYTE   W11
 BYTE   N11  Cn3  v120
 BYTE   W12
 BYTE   Gn2
 BYTE   W12
 BYTE   En3
 BYTE   W11
 BYTE   N32
 BYTE   W36
 BYTE   Dn3
 BYTE   W14
// 034   ----------------------------------------
 BYTE   W22
 BYTE   N23  An3
 BYTE   W24
 BYTE   N11
 BYTE   W12
 BYTE   Fn3
 BYTE   W12
 BYTE   Dn3
 BYTE   W13
 BYTE   An3
 BYTE   W11
 BYTE   Gn3
 BYTE   W02
// 035   ----------------------------------------
 BYTE   W11
 BYTE   En3
 BYTE   W12
 BYTE   Cn3
 BYTE   W12
 BYTE   Gn3
 BYTE   W11
 BYTE   N32
 BYTE   W36
 BYTE   N11  An3
 BYTE   W12
 BYTE   N32  Fn3
 BYTE   W02
// 036   ----------------------------------------
 BYTE   W32
 BYTE   W02
 BYTE   N11  An3
 BYTE   W12
 BYTE   N11
 BYTE   W12
 BYTE   Fn3
 BYTE   W12
 BYTE   Dn3
 BYTE   W13
 BYTE   An3
 BYTE   W11
 BYTE   Cn4
 BYTE   W02
// 037   ----------------------------------------
 BYTE   W11
 BYTE   Gn3
 BYTE   W12
 BYTE   En3
 BYTE   W12
 BYTE   Cn4
 BYTE   W03
 BYTE   GoTo
  POIN2 Label_7_012202BB
// 038   ----------------------------------------
 BYTE   W56
 BYTE   W02
 BYTE   W44
// 039   ----------------------------------------
 BYTE   W02
 BYTE   FINE

//**************** Track 9 (Midi-Chn.8) ****************//

Touhou6BelovedTomboyishGirlPikmin1211_009:
// 000   ----------------------------------------
 BYTE   KEYSH   Touhou6BelovedTomboyishGirlPikmin1211_key+0
 BYTE   VOICE   45
 BYTE   VOL   13*Touhou6BelovedTomboyishGirlPikmin1211_mvl/mxv
 BYTE   W96
// 001   ----------------------------------------
 BYTE   W01
 BYTE   W01
 BYTE   W01
 BYTE   W01
 BYTE   W01
 BYTE   W01
 BYTE   W01
 BYTE   PAN   c_v+0
 BYTE   W01
 BYTE   W01
 BYTE   W84
 BYTE   W03
// 002   ----------------------------------------
 BYTE   W96
// 003   ----------------------------------------
 BYTE   W32
 BYTE   W01
Label_8_0122048F:
 BYTE   W60
 BYTE   W03
// 004   ----------------------------------------
 BYTE   W96
// 005   ----------------------------------------
 BYTE   W96
// 006   ----------------------------------------
 BYTE   W96
// 007   ----------------------------------------
 BYTE   W96
// 008   ----------------------------------------
 BYTE   W96
// 009   ----------------------------------------
 BYTE   W96
// 010   ----------------------------------------
 BYTE   W96
// 011   ----------------------------------------
 BYTE   W96
// 012   ----------------------------------------
 BYTE   W96
// 013   ----------------------------------------
 BYTE   W96
// 014   ----------------------------------------
 BYTE   W96
// 015   ----------------------------------------
 BYTE   W96
// 016   ----------------------------------------
 BYTE   W96
// 017   ----------------------------------------
 BYTE   W96
// 018   ----------------------------------------
 BYTE   W96
// 019   ----------------------------------------
 BYTE   W96
// 020   ----------------------------------------
 BYTE   W44
 BYTE   W02
 BYTE   N48  Dn2  v116
 BYTE   N48  An2
 BYTE   W48
 BYTE   Cn2
 BYTE   N48  Gn2
 BYTE   W02
// 021   ----------------------------------------
 BYTE   W44
 BYTE   W02
 BYTE   Dn2
 BYTE   N48  An2
 BYTE   W48
 BYTE   Cn2
 BYTE   N48  An2
 BYTE   W02
// 022   ----------------------------------------
Label_8_012204B7:
 BYTE   W44
 BYTE   W02
 BYTE   TIE  Bn1  v116
 BYTE   TIE  Gn2
 BYTE   W48
 BYTE   W02
 BYTE   PEND 
// 023   ----------------------------------------
Label_8_012204C1:
 BYTE   W44
 BYTE   W02
 BYTE   N48  As1  v116
 BYTE   N48  Dn2
 BYTE   W03
 BYTE   PEND 
 BYTE   EOT
 BYTE   Bn1  v055
 BYTE   W44
 BYTE   W01
 BYTE   N48  Cn2
 BYTE   N48  En2
 BYTE   W02
// 024   ----------------------------------------
Label_8_012204D4:
 BYTE   W44
 BYTE   W02
 BYTE   TIE  Cs2  v116
 BYTE   N96  An2
 BYTE   W48
 BYTE   W02
 BYTE   PEND 
// 025   ----------------------------------------
Label_8_012204DE:
 BYTE   W44
 BYTE   W02
 BYTE   N48  Dn2  v116
 BYTE   N48  An2
 BYTE   W03
 BYTE   PEND 
 BYTE   EOT
 BYTE   Cs2
 BYTE   W44
 BYTE   W01
 BYTE   N48  Cn2
 BYTE   N48  An2
 BYTE   W02
// 026   ----------------------------------------
Label_8_012204F0:
 BYTE   W44
 BYTE   W02
 BYTE   N72  Bn1  v116
 BYTE   N72  Gn2
 BYTE   W48
 BYTE   W02
 BYTE   PEND 
// 027   ----------------------------------------
Label_8_012204FA:
 BYTE   W22
 BYTE   N24  Cn2  v116
 BYTE   N24  Gn2
 BYTE   W24
 BYTE   N48  As1
 BYTE   N48  Fn2
 BYTE   W48
 BYTE   Cn2
 BYTE   N48  Gn2
 BYTE   W02
 BYTE   PEND 
// 028   ----------------------------------------
Label_8_0122050B:
 BYTE   W44
 BYTE   W02
 BYTE   N72  Dn2  v116
 BYTE   N72  An2
 BYTE   W48
 BYTE   W02
 BYTE   PEND 
// 029   ----------------------------------------
Label_8_01220515:
 BYTE   W22
 BYTE   N24  Cn2  v116
 BYTE   N24  Gn2
 BYTE   W24
 BYTE   N48  Dn2
 BYTE   N48  An2
 BYTE   W48
 BYTE   Cn2
 BYTE   N48  An2
 BYTE   W02
 BYTE   PEND 
 BYTE   PATT
  POIN2 Label_8_012204B7
 BYTE   PATT
  POIN2 Label_8_012204C1
// 030   ----------------------------------------
 BYTE   EOT
 BYTE   Bn1  v055
 BYTE   W44
 BYTE   W01
 BYTE   N48  Cn2  v116
 BYTE   N48  En2
 BYTE   W02
 BYTE   PATT
  POIN2 Label_8_012204D4
 BYTE   PATT
  POIN2 Label_8_012204DE
// 031   ----------------------------------------
 BYTE   EOT
 BYTE   Cs2
 BYTE   W44
 BYTE   W01
 BYTE   N48  Cn2  v116
 BYTE   N48  An2
 BYTE   W02
 BYTE   PATT
  POIN2 Label_8_012204F0
 BYTE   PATT
  POIN2 Label_8_012204FA
 BYTE   PATT
  POIN2 Label_8_0122050B
 BYTE   PATT
  POIN2 Label_8_01220515
 BYTE   PATT
  POIN2 Label_8_012204B7
 BYTE   PATT
  POIN2 Label_8_012204C1
// 032   ----------------------------------------
 BYTE   EOT
 BYTE   Bn1  v055
 BYTE   W44
 BYTE   W01
 BYTE   N48  Cn2  v116
 BYTE   N48  En2
 BYTE   W02
 BYTE   PATT
  POIN2 Label_8_012204D4
 BYTE   PATT
  POIN2 Label_8_012204DE
// 033   ----------------------------------------
 BYTE   EOT
 BYTE   Cs2
 BYTE   W44
 BYTE   W01
 BYTE   N48  Cn2  v116
 BYTE   N48  An2
 BYTE   W02
 BYTE   PATT
  POIN2 Label_8_012204F0
 BYTE   PATT
  POIN2 Label_8_012204FA
 BYTE   PATT
  POIN2 Label_8_0122050B
 BYTE   PATT
  POIN2 Label_8_01220515
 BYTE   PATT
  POIN2 Label_8_012204B7
 BYTE   PATT
  POIN2 Label_8_012204C1
// 034   ----------------------------------------
 BYTE   EOT
 BYTE   Bn1  v055
 BYTE   W44
 BYTE   W01
 BYTE   N48  Cn2  v116
 BYTE   N48  En2
 BYTE   W02
 BYTE   PATT
  POIN2 Label_8_012204D4
 BYTE   PATT
  POIN2 Label_8_012204DE
// 035   ----------------------------------------
 BYTE   EOT
 BYTE   Cs2
 BYTE   W44
 BYTE   W01
 BYTE   N48  Cn2  v116
 BYTE   N48  An2
 BYTE   W02
 BYTE   PATT
  POIN2 Label_8_012204F0
 BYTE   PATT
  POIN2 Label_8_012204FA
 BYTE   PATT
  POIN2 Label_8_0122050B
// 036   ----------------------------------------
 BYTE   W22
 BYTE   N24  Cn2  v116
 BYTE   N24  Gn2
 BYTE   W72
 BYTE   W02
// 037   ----------------------------------------
 BYTE   W96
// 038   ----------------------------------------
 BYTE   W96
// 039   ----------------------------------------
 BYTE   W36
 BYTE   W02
 BYTE   GoTo
  POIN2 Label_8_0122048F
// 040   ----------------------------------------
 BYTE   W56
 BYTE   W02
 BYTE   W44
// 041   ----------------------------------------
 BYTE   W02
 BYTE   FINE

//**************** Track 10 (Midi-Chn.9) ****************//

Touhou6BelovedTomboyishGirlPikmin1211_010:
// 000   ----------------------------------------
 BYTE   KEYSH   Touhou6BelovedTomboyishGirlPikmin1211_key+0
 BYTE   VOICE   33
 BYTE   W96
// 001   ----------------------------------------
 BYTE   W01
 BYTE   W01
 BYTE   W01
 BYTE   W01
 BYTE   W01
 BYTE   W01
 BYTE   W01
 BYTE   VOL   17*Touhou6BelovedTomboyishGirlPikmin1211_mvl/mxv
 BYTE   PAN   c_v-54
 BYTE   W01
 BYTE   W01
 BYTE   W84
 BYTE   W03
// 002   ----------------------------------------
 BYTE   W96
// 003   ----------------------------------------
 BYTE   W22
 BYTE   BEND   c_v+0
 BYTE   N23  Dn1  v100
 BYTE   W01
 BYTE   BEND   c_v-2
 BYTE   W01
 BYTE   Cn3
 BYTE   W01
 BYTE   Bn2
 BYTE   W01
 BYTE   An2
 BYTE   W01
 BYTE   Gn2
 BYTE   W01
 BYTE   Fs2
 BYTE   W01
 BYTE   En2
 BYTE   W01
 BYTE   Dn2
 BYTE   W01
 BYTE   Cs2
 BYTE   W01
 BYTE   Bn1
 BYTE   W01
Label_9_01220621:
 BYTE   BEND   c_v-19
 BYTE   W01
 BYTE   Gs1
 BYTE   W01
 BYTE   Fs1
 BYTE   W01
 BYTE   En1
 BYTE   W01
 BYTE   Ds1
 BYTE   W01
 BYTE   Cs1
 BYTE   W01
 BYTE   Bn0
 BYTE   W01
 BYTE   As0
 BYTE   W01
 BYTE   Gs0
 BYTE   W01
 BYTE   Fs0
 BYTE   W01
 BYTE   Fn0
 BYTE   W01
 BYTE   Ds0
 BYTE   W01
 BYTE   Cs0
 BYTE   W01
 BYTE   En3
 BYTE   N11  Bn0  v100
 BYTE   W12
 BYTE   N11
 BYTE   W12
 BYTE   N11
 BYTE   W12
 BYTE   N11
 BYTE   W12
 BYTE   N11
 BYTE   W02
// 004   ----------------------------------------
Label_9_01220649:
 BYTE   W10
 BYTE   N11  Bn0  v100
 BYTE   W12
 BYTE   N11
 BYTE   W12
 BYTE   N11
 BYTE   W12
 BYTE   N11
 BYTE   W12
 BYTE   N11
 BYTE   W12
 BYTE   N11
 BYTE   W12
 BYTE   N11
 BYTE   W12
 BYTE   N11
 BYTE   W02
 BYTE   PEND 
 BYTE   PATT
  POIN2 Label_9_01220649
 BYTE   PATT
  POIN2 Label_9_01220649
// 005   ----------------------------------------
Label_9_01220667:
 BYTE   W10
 BYTE   N11  Bn0  v100
 BYTE   W12
 BYTE   N11
 BYTE   W12
 BYTE   N11
 BYTE   W12
 BYTE   Gn0
 BYTE   W12
 BYTE   N11
 BYTE   W12
 BYTE   N11
 BYTE   W12
 BYTE   N11
 BYTE   W12
 BYTE   N11
 BYTE   W02
 BYTE   PEND 
// 006   ----------------------------------------
Label_9_0122067B:
 BYTE   W10
 BYTE   N11  Gn0  v100
 BYTE   W12
 BYTE   N11
 BYTE   W12
 BYTE   N11
 BYTE   W12
 BYTE   N11
 BYTE   W12
 BYTE   N11
 BYTE   W12
 BYTE   N11
 BYTE   W12
 BYTE   N11
 BYTE   W12
 BYTE   N11
 BYTE   W02
 BYTE   PEND 
 BYTE   PATT
  POIN2 Label_9_0122067B
// 007   ----------------------------------------
Label_9_01220694:
 BYTE   W10
 BYTE   N11  Gn0  v100
 BYTE   W12
 BYTE   N11
 BYTE   W12
 BYTE   N11
 BYTE   W12
 BYTE   An0
 BYTE   W12
 BYTE   N11
 BYTE   W12
 BYTE   N11
 BYTE   W12
 BYTE   N11
 BYTE   W12
 BYTE   N11
 BYTE   W02
 BYTE   PEND 
// 008   ----------------------------------------
 BYTE   W10
 BYTE   N11
 BYTE   W12
 BYTE   N11
 BYTE   W12
 BYTE   N11
 BYTE   W12
 BYTE   Bn0
 BYTE   W12
 BYTE   N11
 BYTE   W12
 BYTE   N11
 BYTE   W12
 BYTE   N11
 BYTE   W12
 BYTE   N11
 BYTE   W02
 BYTE   PATT
  POIN2 Label_9_01220649
 BYTE   PATT
  POIN2 Label_9_01220649
 BYTE   PATT
  POIN2 Label_9_01220649
 BYTE   PATT
  POIN2 Label_9_01220667
 BYTE   PATT
  POIN2 Label_9_0122067B
 BYTE   PATT
  POIN2 Label_9_0122067B
 BYTE   PATT
  POIN2 Label_9_01220694
// 009   ----------------------------------------
 BYTE   W10
 BYTE   N11  An0  v100
 BYTE   W12
 BYTE   N11
 BYTE   W12
 BYTE   N11
 BYTE   W12
 BYTE   N32  As0
 BYTE   N32  Fn1
 BYTE   W36
 BYTE   N60  Cn1
 BYTE   N60  Gn1
 BYTE   W14
// 010   ----------------------------------------
 BYTE   W96
// 011   ----------------------------------------
 BYTE   W96
// 012   ----------------------------------------
 BYTE   W96
// 013   ----------------------------------------
 BYTE   W96
// 014   ----------------------------------------
 BYTE   W96
// 015   ----------------------------------------
 BYTE   W96
// 016   ----------------------------------------
 BYTE   W96
// 017   ----------------------------------------
 BYTE   W96
// 018   ----------------------------------------
 BYTE   W96
// 019   ----------------------------------------
 BYTE   W96
// 020   ----------------------------------------
 BYTE   W96
// 021   ----------------------------------------
 BYTE   W96
// 022   ----------------------------------------
 BYTE   W96
// 023   ----------------------------------------
 BYTE   W96
// 024   ----------------------------------------
 BYTE   W96
// 025   ----------------------------------------
 BYTE   W96
// 026   ----------------------------------------
 BYTE   W96
// 027   ----------------------------------------
 BYTE   W22
 BYTE   BEND   c_v+0
 BYTE   N23  Dn1  v116
 BYTE   W01
 BYTE   BEND   c_v-2
 BYTE   W01
 BYTE   Cs3
 BYTE   W01
 BYTE   Cn3
 BYTE   W01
 BYTE   As2
 BYTE   W01
 BYTE   An2
 BYTE   W01
 BYTE   Gs2
 BYTE   W01
 BYTE   Fs2
 BYTE   W01
 BYTE   Fn2
 BYTE   W01
 BYTE   En2
 BYTE   W01
 BYTE   Dn2
 BYTE   W01
 BYTE   Cs2
 BYTE   W01
 BYTE   Cn2
 BYTE   W01
 BYTE   As1
 BYTE   W01
 BYTE   An1
 BYTE   W01
 BYTE   Gs1
 BYTE   W01
 BYTE   Fs1
 BYTE   W01
 BYTE   Fn1
 BYTE   W01
 BYTE   En1
 BYTE   W01
 BYTE   Dn1
 BYTE   W01
 BYTE   Cs1
 BYTE   W01
 BYTE   Cn1
 BYTE   W01
 BYTE   As0
 BYTE   W01
 BYTE   An0
 BYTE   W01
 BYTE   En3
 BYTE   N44
 BYTE   W48
 BYTE   Cn1
 BYTE   W02
// 028   ----------------------------------------
Label_9_0122073B:
 BYTE   W44
 BYTE   W02
 BYTE   N92  Bn0  v116
 BYTE   W48
 BYTE   W02
 BYTE   PEND 
// 029   ----------------------------------------
Label_9_01220743:
 BYTE   W44
 BYTE   W02
 BYTE   N44  As0  v116
 BYTE   W48
 BYTE   Cn1
 BYTE   W02
 BYTE   PEND 
// 030   ----------------------------------------
Label_9_0122074C:
 BYTE   W44
 BYTE   W02
 BYTE   N92  Cs1  v116
 BYTE   W48
 BYTE   W02
 BYTE   PEND 
// 031   ----------------------------------------
Label_9_01220754:
 BYTE   W44
 BYTE   W02
 BYTE   N44  Dn1  v116
 BYTE   W48
 BYTE   Cn1
 BYTE   W02
 BYTE   PEND 
// 032   ----------------------------------------
Label_9_0122075D:
 BYTE   W44
 BYTE   W02
 BYTE   N68  Bn0  v116
 BYTE   W48
 BYTE   W02
 BYTE   PEND 
// 033   ----------------------------------------
Label_9_01220765:
 BYTE   W22
 BYTE   N23  Cn1  v116
 BYTE   W24
 BYTE   N44  As0
 BYTE   W48
 BYTE   Cn1
 BYTE   W02
 BYTE   PEND 
// 034   ----------------------------------------
Label_9_01220770:
 BYTE   W44
 BYTE   W02
 BYTE   N68  Dn1  v116
 BYTE   W48
 BYTE   W02
 BYTE   PEND 
// 035   ----------------------------------------
 BYTE   W22
 BYTE   BEND   c_v+0
 BYTE   N23  An0
 BYTE   W01
 BYTE   BEND   c_v-2
 BYTE   W01
 BYTE   Cs3
 BYTE   W01
 BYTE   Cn3
 BYTE   W01
 BYTE   As2
 BYTE   W01
 BYTE   An2
 BYTE   W01
 BYTE   Gs2
 BYTE   W01
 BYTE   Fs2
 BYTE   W01
 BYTE   Fn2
 BYTE   W01
 BYTE   En2
 BYTE   W01
 BYTE   Dn2
 BYTE   W01
 BYTE   Cs2
 BYTE   W01
 BYTE   Cn2
 BYTE   W01
 BYTE   As1
 BYTE   W01
 BYTE   An1
 BYTE   W01
 BYTE   Gs1
 BYTE   W01
 BYTE   Fs1
 BYTE   W01
 BYTE   Fn1
 BYTE   W01
 BYTE   En1
 BYTE   W01
 BYTE   Dn1
 BYTE   W01
 BYTE   Cs1
 BYTE   W01
 BYTE   Cn1
 BYTE   W01
 BYTE   As0
 BYTE   W01
 BYTE   An0
 BYTE   W01
 BYTE   En3
 BYTE   N44  Dn1
 BYTE   W48
 BYTE   Cn1
 BYTE   W02
 BYTE   PATT
  POIN2 Label_9_0122073B
 BYTE   PATT
  POIN2 Label_9_01220743
 BYTE   PATT
  POIN2 Label_9_0122074C
 BYTE   PATT
  POIN2 Label_9_01220754
 BYTE   PATT
  POIN2 Label_9_0122075D
 BYTE   PATT
  POIN2 Label_9_01220765
 BYTE   PATT
  POIN2 Label_9_01220770
// 036   ----------------------------------------
Label_9_012207D6:
 BYTE   W22
 BYTE   BEND   c_v+0
 BYTE   N23  An0  v116
 BYTE   W01
 BYTE   BEND   c_v-2
 BYTE   W01
 BYTE   Cs3
 BYTE   W01
 BYTE   Cn3
 BYTE   W01
 BYTE   As2
 BYTE   W01
 BYTE   An2
 BYTE   W01
 BYTE   Gs2
 BYTE   W01
 BYTE   Fs2
 BYTE   W01
 BYTE   Fn2
 BYTE   W01
 BYTE   En2
 BYTE   W01
 BYTE   Dn2
 BYTE   W01
 BYTE   Cs2
 BYTE   W01
 BYTE   Cn2
 BYTE   W01
 BYTE   As1
 BYTE   W01
 BYTE   An1
 BYTE   W01
 BYTE   Gs1
 BYTE   W01
 BYTE   Fs1
 BYTE   W01
 BYTE   Fn1
 BYTE   W01
 BYTE   En1
 BYTE   W01
 BYTE   Dn1
 BYTE   W01
 BYTE   Cs1
 BYTE   W01
 BYTE   Cn1
 BYTE   W01
 BYTE   As0
 BYTE   W01
 BYTE   An0
 BYTE   W01
 BYTE   En3
 BYTE   N44  As0
 BYTE   W48
 BYTE   Cn1
 BYTE   W02
 BYTE   PEND 
// 037   ----------------------------------------
 BYTE   W44
 BYTE   W02
 BYTE   N68  Dn0
 BYTE   W48
 BYTE   W02
 BYTE   PATT
  POIN2 Label_9_012207D6
// 038   ----------------------------------------
 BYTE   W36
 BYTE   W02
 BYTE   GoTo
  POIN2 Label_9_01220621
// 039   ----------------------------------------
 BYTE   W56
 BYTE   W02
 BYTE   W44
// 040   ----------------------------------------
 BYTE   W02
 BYTE   FINE

//******************************************************//
	ALIGN 4

Touhou6BelovedTomboyishGirlPikmin1211:
	BYTE	10	// NumTrks
	BYTE	0	// NumBlks
	BYTE	Touhou6BelovedTomboyishGirlPikmin1211_pri	// Priority
	BYTE	Touhou6BelovedTomboyishGirlPikmin1211_rev	// Reverb.
    
	POIN2	Touhou6BelovedTomboyishGirlPikmin1211_grp
    
	POIN2	Touhou6BelovedTomboyishGirlPikmin1211_001
	POIN2	Touhou6BelovedTomboyishGirlPikmin1211_002
	POIN2	Touhou6BelovedTomboyishGirlPikmin1211_003
	POIN2	Touhou6BelovedTomboyishGirlPikmin1211_004
	POIN2	Touhou6BelovedTomboyishGirlPikmin1211_005
	POIN2	Touhou6BelovedTomboyishGirlPikmin1211_006
	POIN2	Touhou6BelovedTomboyishGirlPikmin1211_007
	POIN2	Touhou6BelovedTomboyishGirlPikmin1211_008
	POIN2	Touhou6BelovedTomboyishGirlPikmin1211_009
	POIN2	Touhou6BelovedTomboyishGirlPikmin1211_010

	
