//Event file generated from Sappy .s format.
	#include "MPlayDef.event"

	#define	DKC3WaterWorldPandan_grp  voicegroup000
	#define	DKC3WaterWorldPandan_pri  0
	#define	DKC3WaterWorldPandan_rev  0
	#define	DKC3WaterWorldPandan_mvl  127
	#define	DKC3WaterWorldPandan_key  0
	#define	DKC3WaterWorldPandan_tbs  1
	#define	DKC3WaterWorldPandan_exg  0
	#define	DKC3WaterWorldPandan_cmp  1

	// .rodata
	//	DKC3WaterWorldPandan
	ALIGN 4


//**************** Track 1 (Midi-Chn.0) ****************//

DKC3WaterWorldPandan_001:
// 000   ----------------------------------------
 BYTE   KEYSH   DKC3WaterWorldPandan_key+0
Label_0_55028A:
 BYTE   TEMPO   80*DKC3WaterWorldPandan_tbs/2
 BYTE   VOICE   52
 BYTE   PAN   c_v-14
 BYTE   VOL   65*DKC3WaterWorldPandan_mvl/mxv
 BYTE   W24
 BYTE   TIE  Dn0  v104
 BYTE   TIE  Dn1
 BYTE   W48
 BYTE   W72
// 001   ----------------------------------------
 BYTE   W48
 BYTE   EOT
 BYTE   N72  Cn2
 BYTE   W24
 BYTE   W48
// 002   ----------------------------------------
 BYTE   Bn1
 BYTE   W24
 BYTE   W48
 BYTE   EOT
 BYTE   Dn0
 BYTE   N60  Cn0
 BYTE   N60  Cn1
 BYTE   W24
// 003   ----------------------------------------
 BYTE   W48
 BYTE   Cn0
 BYTE   N60  Cn1
 BYTE   W24
 BYTE   W48
// 004   ----------------------------------------
 BYTE   N96  BnM1
 BYTE   N96  Bn0
 BYTE   W24
 BYTE   W72
// 005   ----------------------------------------
 BYTE   TIE  Cn0
 BYTE   TIE  Cn1
 BYTE   W72
 BYTE   W72
// 006   ----------------------------------------
 BYTE   W72
 BYTE   W72
// 007   ----------------------------------------
 BYTE   EOT
 BYTE   Cn0  v036
 BYTE   TIE  Gn0
 BYTE   W72
 BYTE   W72
// 008   ----------------------------------------
 BYTE   W72
 BYTE   W72
// 009   ----------------------------------------
 BYTE   EOT
 BYTE   TIE  Fs0
 BYTE   W72
 BYTE   W72
// 010   ----------------------------------------
 BYTE   EOT
 BYTE   TIE  Gn0
 BYTE   W72
 BYTE   W72
// 011   ----------------------------------------
 BYTE   EOT
 BYTE   TIE
 BYTE   W72
 BYTE   W72
// 012   ----------------------------------------
 BYTE   EOT
 BYTE   TIE
 BYTE   W72
 BYTE   W72
// 013   ----------------------------------------
 BYTE   EOT
 BYTE   TIE
 BYTE   W72
 BYTE   W72
// 014   ----------------------------------------
 BYTE   EOT
 BYTE   TIE
 BYTE   W72
 BYTE   W72
// 015   ----------------------------------------
 BYTE   EOT
 BYTE   TIE
 BYTE   W72
 BYTE   W72
// 016   ----------------------------------------
 BYTE   EOT
 BYTE   TIE  Gs0
 BYTE   W72
 BYTE   W72
// 017   ----------------------------------------
 BYTE   W72
 BYTE   W72
// 018   ----------------------------------------
 BYTE   W72
 BYTE   W72
// 019   ----------------------------------------
 BYTE   EOT
 BYTE   TIE  Cn0
 BYTE   W72
 BYTE   W72
// 020   ----------------------------------------
 BYTE   W72
 BYTE   W72
// 021   ----------------------------------------
 BYTE   EOT
 BYTE   W72
 BYTE   W96
// 022   ----------------------------------------
 BYTE   TIE  Gn0
 BYTE   W72
 BYTE   W72
// 023   ----------------------------------------
 BYTE   W72
 BYTE   W72
// 024   ----------------------------------------
 BYTE   EOT
 BYTE   TIE  Fs0
 BYTE   W72
 BYTE   W72
// 025   ----------------------------------------
 BYTE   EOT
 BYTE   TIE  Gn0
 BYTE   W72
 BYTE   W72
// 026   ----------------------------------------
 BYTE   EOT
 BYTE   TIE
 BYTE   W72
 BYTE   W72
// 027   ----------------------------------------
 BYTE   EOT
 BYTE   TIE
 BYTE   W72
 BYTE   W72
// 028   ----------------------------------------
 BYTE   EOT
 BYTE   TIE
 BYTE   W72
 BYTE   W72
// 029   ----------------------------------------
 BYTE   EOT
 BYTE   TIE
 BYTE   W72
 BYTE   W72
// 030   ----------------------------------------
 BYTE   EOT
 BYTE   TIE
 BYTE   W72
 BYTE   W72
// 031   ----------------------------------------
 BYTE   EOT
 BYTE   TIE  Gs0
 BYTE   W72
 BYTE   W72
// 032   ----------------------------------------
 BYTE   W72
 BYTE   W72
// 033   ----------------------------------------
 BYTE   W72
 BYTE   W72
// 034   ----------------------------------------
 BYTE   EOT
 BYTE   TIE  Cn0
 BYTE   W72
 BYTE   W72
// 035   ----------------------------------------
 BYTE   W72
 BYTE   W72
// 036   ----------------------------------------
 BYTE   EOT
 BYTE   W72
 BYTE   W96
// 037   ----------------------------------------
 BYTE   GoTo
  POIN2 Label_0_55028A
 BYTE   FINE

//**************** Track 2 (Midi-Chn.1) ****************//

DKC3WaterWorldPandan_002:
// 000   ----------------------------------------
 BYTE   KEYSH   DKC3WaterWorldPandan_key+0
Label_1_54FE0D:
 BYTE   VOICE   89
 BYTE   VOL   64*DKC3WaterWorldPandan_mvl/mxv
 BYTE   W68
 BYTE   W03
 BYTE   BEND   c_v+0
 BYTE   W01
 BYTE   W36
// 001   ----------------------------------------
 BYTE   Cs3
 BYTE   W02
 BYTE   Cn3
 BYTE   W01
 BYTE   As2
 BYTE   W02
 BYTE   An2
 BYTE   W01
 BYTE   Gs2
 BYTE   W02
 BYTE   Fs2
 BYTE   W01
 BYTE   Fn2
 BYTE   W02
 BYTE   En2
 BYTE   W02
 BYTE   Dn2
 BYTE   W01
 BYTE   Cs2
 BYTE   W02
 BYTE   Cn2
 BYTE   W01
 BYTE   As1
 BYTE   W02
 BYTE   An1
 BYTE   W01
 BYTE   Gs1
 BYTE   W02
 BYTE   Fs1
 BYTE   W01
 BYTE   Fn1
 BYTE   W01
 BYTE   En1
 BYTE   W02
 BYTE   Dn1
 BYTE   W01
 BYTE   Cs1
 BYTE   W02
 BYTE   Cn1
 BYTE   W01
 BYTE   As0
 BYTE   W02
 BYTE   An0
 BYTE   W01
 BYTE   Gs0
 BYTE   W02
 BYTE   Fs0
 BYTE   W01
 BYTE   W01
 BYTE   Fn0
 BYTE   W01
 BYTE   En0
 BYTE   W02
 BYTE   Dn0
 BYTE   W01
 BYTE   Cs0
 BYTE   W02
 BYTE   Cn0
 BYTE   W01
 BYTE   AsM1
 BYTE   W02
 BYTE   AnM1
 BYTE   W02
 BYTE   FsM1
 BYTE   W02
 BYTE   FnM1
 BYTE   W01
 BYTE   EnM1
 BYTE   W02
 BYTE   DnM1
 BYTE   W01
 BYTE   CsM1
 BYTE   W02
 BYTE   CnM1
 BYTE   W01
 BYTE   AsM2
 BYTE   W02
 BYTE   AnM2
 BYTE   W02
 BYTE   GsM2
 BYTE   W01
 BYTE   FsM2
 BYTE   W02
 BYTE   FnM2
 BYTE   W01
 BYTE   EnM2
 BYTE   W02
 BYTE   DnM2
 BYTE   W01
 BYTE   CsM2
 BYTE   W02
 BYTE   CnM2
 BYTE   W13
 BYTE   En3
 BYTE   W01
 BYTE   N72  Ds3  v064
 BYTE   N72  Gn3
 BYTE   N72  Cn4
 BYTE   N72  Ds4
 BYTE   W24
// 002   ----------------------------------------
 BYTE   W48
 BYTE   Dn3
 BYTE   N72  Fs3
 BYTE   N72  Bn3
 BYTE   N72  Dn4
 BYTE   W24
 BYTE   W48
// 003   ----------------------------------------
 BYTE   N60  Cn2  v104
 BYTE   N60  Ds3  v064
 BYTE   N60  Ds4
 BYTE   W24
 BYTE   W48
 BYTE   Cn2  v104
 BYTE   TIE  Dn3  v064
 BYTE   TIE  Dn4
 BYTE   W24
// 004   ----------------------------------------
 BYTE   W48
 BYTE   N96  Bn1  v104
 BYTE   W24
 BYTE   W72
// 005   ----------------------------------------
 BYTE   EOT
 BYTE   Dn3  v074
 BYTE   TIE  Gn1
 BYTE   TIE  Cn2
 BYTE   TIE  Gn2
 BYTE   W72
 BYTE   W72
// 006   ----------------------------------------
 BYTE   W72
 BYTE   W72
// 007   ----------------------------------------
 BYTE   EOT
 BYTE   Gn1  v048
 BYTE   Gn2
 BYTE   N72  As1
 BYTE   N72  As2
 BYTE   W72
 BYTE   An1
 BYTE   N72  An2
 BYTE   W72
// 008   ----------------------------------------
 BYTE   Dn2
 BYTE   N72  Dn3
 BYTE   W72
 BYTE   Ds2
 BYTE   N72  Ds3
 BYTE   W72
// 009   ----------------------------------------
Label_1_54FEC4:
 BYTE   TIE  Dn2  v104
 BYTE   TIE  Dn3
 BYTE   W72
 BYTE   PEND 
 BYTE   W72
// 010   ----------------------------------------
 BYTE   EOT
 BYTE   Dn2  v062
 BYTE   N72  As1
 BYTE   N72  As2
 BYTE   W72
 BYTE   An1
 BYTE   N72  An2
 BYTE   W72
// 011   ----------------------------------------
 BYTE   TIE  Dn2
 BYTE   W72
 BYTE   W72
// 012   ----------------------------------------
 BYTE   EOT
Label_1_54FEDD:
 BYTE   TIE  Gn0  v104
 BYTE   TIE  Gn1
 BYTE   TIE  Ds3  v064
 BYTE   TIE  Gn3
 BYTE   TIE  Cn4
 BYTE   TIE  Ds4
 BYTE   W72
 BYTE   PEND 
 BYTE   W72
// 013   ----------------------------------------
 BYTE   EOT
 BYTE   Gn0  v043
 BYTE   Ds3  v067
 BYTE   Cn4  v075
Label_1_54FEF5:
 BYTE   TIE  Gn0  v104
 BYTE   TIE  Gn1
 BYTE   TIE  Dn3  v064
 BYTE   TIE  Gn3
 BYTE   TIE  As3
 BYTE   TIE  Dn4
 BYTE   W72
 BYTE   PEND 
 BYTE   W72
// 014   ----------------------------------------
 BYTE   EOT
 BYTE   Gn0  v043
 BYTE   Dn3  v067
 BYTE   As3  v074
// 015   ----------------------------------------
 BYTE   PATT
  POIN2 Label_1_54FEDD
// 016   ----------------------------------------
 BYTE   W72
 BYTE   EOT
 BYTE   Gn0  v043
 BYTE   Ds3  v067
 BYTE   Cn4  v075
// 017   ----------------------------------------
 BYTE   PATT
  POIN2 Label_1_54FEF5
// 018   ----------------------------------------
 BYTE   W72
 BYTE   EOT
 BYTE   Gn0  v043
 BYTE   Dn3  v067
 BYTE   As3  v074
Label_1_54FF27:
 BYTE   TIE  Gs0  v104
 BYTE   TIE  Gs1
 BYTE   TIE  En3  v064
 BYTE   TIE  Gs3
 BYTE   TIE  Cs4
 BYTE   TIE  En4
 BYTE   W72
 BYTE   PEND 
// 019   ----------------------------------------
 BYTE   W72
 BYTE   EOT
 BYTE   En3  v068
 BYTE   Cs4  v076
Label_1_54FF3D:
 BYTE   TIE  Ds3  v064
 BYTE   TIE  Gs3
 BYTE   TIE  Bn3
 BYTE   TIE  Ds4
 BYTE   W72
 BYTE   PEND 
// 020   ----------------------------------------
 BYTE   W72
 BYTE   EOT
 BYTE   Ds3  v068
 BYTE   Bn3  v075
Label_1_54FF4E:
 BYTE   TIE  En3  v064
 BYTE   TIE  Gs3
 BYTE   TIE  Cs4
 BYTE   TIE  En4
 BYTE   W72
 BYTE   PEND 
// 021   ----------------------------------------
 BYTE   W72
 BYTE   EOT
 BYTE   Gs0  v044
 BYTE   En3  v068
 BYTE   Cs4  v076
Label_1_54FF61:
 BYTE   TIE  Cn1  v064
 BYTE   TIE  Gn2
 BYTE   TIE  Cn3
 BYTE   TIE  Gn3
 BYTE   W72
 BYTE   PEND 
// 022   ----------------------------------------
 BYTE   W72
 BYTE   W72
// 023   ----------------------------------------
 BYTE   W72
 BYTE   EOT
 BYTE   Cn1  v055
 BYTE   Cn3  v067
 BYTE   W72
// 024   ----------------------------------------
 BYTE   W96
// 025   ----------------------------------------
 BYTE   N72  As1  v104
 BYTE   N72  As2
 BYTE   W72
 BYTE   An1
 BYTE   N72  An2
 BYTE   W72
// 026   ----------------------------------------
 BYTE   Dn2
 BYTE   N72  Dn3
 BYTE   W72
 BYTE   Ds2
 BYTE   N72  Ds3
 BYTE   W72
// 027   ----------------------------------------
 BYTE   PATT
  POIN2 Label_1_54FEC4
// 028   ----------------------------------------
 BYTE   W72
 BYTE   EOT
 BYTE   Dn2  v062
 BYTE   N72  As1  v104
 BYTE   N72  As2
 BYTE   W72
// 029   ----------------------------------------
 BYTE   An1
 BYTE   N72  An2
 BYTE   W72
 BYTE   TIE  Dn2
 BYTE   W72
// 030   ----------------------------------------
 BYTE   W72
 BYTE   EOT
// 031   ----------------------------------------
 BYTE   PATT
  POIN2 Label_1_54FEDD
// 032   ----------------------------------------
 BYTE   W72
 BYTE   EOT
 BYTE   Gn0  v043
 BYTE   Ds3  v067
 BYTE   Cn4  v075
// 033   ----------------------------------------
 BYTE   PATT
  POIN2 Label_1_54FEF5
// 034   ----------------------------------------
 BYTE   W72
 BYTE   EOT
 BYTE   Gn0  v043
 BYTE   Dn3  v067
 BYTE   As3  v074
// 035   ----------------------------------------
 BYTE   PATT
  POIN2 Label_1_54FEDD
// 036   ----------------------------------------
 BYTE   W72
 BYTE   EOT
 BYTE   Gn0  v043
 BYTE   Ds3  v067
 BYTE   Cn4  v075
// 037   ----------------------------------------
 BYTE   PATT
  POIN2 Label_1_54FEF5
// 038   ----------------------------------------
 BYTE   W72
 BYTE   EOT
 BYTE   Gn0  v043
 BYTE   Dn3  v067
 BYTE   As3  v074
// 039   ----------------------------------------
 BYTE   PATT
  POIN2 Label_1_54FF27
// 040   ----------------------------------------
 BYTE   W72
 BYTE   EOT
 BYTE   En3  v068
 BYTE   Cs4  v076
// 041   ----------------------------------------
 BYTE   PATT
  POIN2 Label_1_54FF3D
// 042   ----------------------------------------
 BYTE   W72
 BYTE   EOT
 BYTE   Ds3  v068
 BYTE   Bn3  v075
// 043   ----------------------------------------
 BYTE   PATT
  POIN2 Label_1_54FF4E
// 044   ----------------------------------------
 BYTE   W72
 BYTE   EOT
 BYTE   Gs0  v044
 BYTE   En3  v068
 BYTE   Cs4  v076
// 045   ----------------------------------------
 BYTE   PATT
  POIN2 Label_1_54FF61
// 046   ----------------------------------------
 BYTE   W72
 BYTE   W72
// 047   ----------------------------------------
 BYTE   W72
 BYTE   EOT
 BYTE   Cn1  v055
 BYTE   Cn3  v067
 BYTE   W72
// 048   ----------------------------------------
 BYTE   W96
// 049   ----------------------------------------
 BYTE   GoTo
  POIN2 Label_1_54FE0D
 BYTE   FINE

//**************** Track 3 (Midi-Chn.2) ****************//

DKC3WaterWorldPandan_003:
// 000   ----------------------------------------
 BYTE   KEYSH   DKC3WaterWorldPandan_key+0
Label_2_550382:
 BYTE   VOICE   79
 BYTE   PAN   c_v+32
 BYTE   VOL   64*DKC3WaterWorldPandan_mvl/mxv
 BYTE   W72
 BYTE   W72
// 001   ----------------------------------------
 BYTE   W42
 BYTE   N02  Cn4  v104
 BYTE   W02
 BYTE   Ds4
 BYTE   W02
 BYTE   Fs4
 BYTE   W02
 BYTE   Gn4
 BYTE   W02
 BYTE   Bn4
 BYTE   W02
 BYTE   Cn5
 BYTE   W02
 BYTE   Cn4  v064
 BYTE   N06  Ds5  v104
 BYTE   W02
 BYTE   N02  Ds4  v064
 BYTE   W02
 BYTE   Fs4
 BYTE   W02
 BYTE   Gn4
 BYTE   W02
 BYTE   Bn4
 BYTE   W02
 BYTE   Cn5
 BYTE   W02
 BYTE   Cn4  v032
 BYTE   N06  Ds5  v064
 BYTE   W02
 BYTE   N02  Ds4  v032
 BYTE   W02
 BYTE   Fs4
 BYTE   W02
 BYTE   Gn4
 BYTE   W02
 BYTE   Bn4
 BYTE   W02
 BYTE   Cn5
 BYTE   W02
 BYTE   Cn4  v084
 BYTE   N06  Ds5  v032
 BYTE   W02
 BYTE   N02  Ds4  v084
 BYTE   W02
 BYTE   Fs4
 BYTE   W02
 BYTE   Gn4
 BYTE   W02
 BYTE   Bn4
 BYTE   W02
 BYTE   Cn5
 BYTE   W02
 BYTE   Cn4  v040
 BYTE   N06  Ds5  v084
 BYTE   W02
 BYTE   N02  Ds4  v040
 BYTE   W02
 BYTE   Fs4
 BYTE   W02
// 002   ----------------------------------------
 BYTE   Gn4
 BYTE   W02
 BYTE   Bn4
 BYTE   W02
 BYTE   Cn5
 BYTE   W02
 BYTE   Cn4  v016
 BYTE   N06  Ds5  v052
 BYTE   W02
 BYTE   N02  Ds4  v016
 BYTE   W02
 BYTE   Fs4
 BYTE   W02
 BYTE   Gn4
 BYTE   W02
 BYTE   Bn4
 BYTE   W02
 BYTE   Cn5
 BYTE   W02
 BYTE   Bn3  v104
 BYTE   N06  Ds5  v016
 BYTE   W02
 BYTE   N02  Dn4  v104
 BYTE   W02
 BYTE   Fn4
 BYTE   W02
 BYTE   Fs4
 BYTE   W02
 BYTE   An4
 BYTE   W02
 BYTE   Bn4
 BYTE   W02
 BYTE   Bn3  v064
 BYTE   N06  Dn5  v104
 BYTE   W02
 BYTE   N02  Dn4  v064
 BYTE   W02
 BYTE   Fn4
 BYTE   W02
 BYTE   Fs4
 BYTE   W02
 BYTE   An4
 BYTE   W02
 BYTE   Bn4
 BYTE   W02
 BYTE   Bn3  v032
 BYTE   N06  Dn5  v064
 BYTE   W02
 BYTE   N02  Dn4  v032
 BYTE   W02
 BYTE   Fn4
 BYTE   W02
 BYTE   Fs4
 BYTE   W02
 BYTE   An4
 BYTE   W02
 BYTE   Bn4
 BYTE   W02
 BYTE   Bn3  v084
 BYTE   N06  Dn5  v032
 BYTE   W02
 BYTE   N02  Dn4  v084
 BYTE   W02
 BYTE   Fn4
 BYTE   W02
 BYTE   Fs4
 BYTE   W02
 BYTE   An4
 BYTE   W02
 BYTE   Bn4
 BYTE   W02
 BYTE   Bn3  v040
 BYTE   N06  Dn5  v084
 BYTE   W02
 BYTE   N02  Dn4  v040
 BYTE   W02
 BYTE   Fn4  v064
 BYTE   W02
 BYTE   Fs4  v040
 BYTE   W02
 BYTE   An4
 BYTE   W02
 BYTE   Bn4
 BYTE   W02
 BYTE   Bn3  v016
 BYTE   N06  Dn5  v040
 BYTE   W02
 BYTE   N02  Dn4  v016
 BYTE   W02
 BYTE   Fn4
 BYTE   W02
 BYTE   Fs4
 BYTE   W02
 BYTE   An4
 BYTE   W02
 BYTE   Bn4
 BYTE   W02
 BYTE   N06  Dn5
 BYTE   W30
// 003   ----------------------------------------
 BYTE   W72
 BYTE   W72
// 004   ----------------------------------------
 BYTE   W72
 BYTE   W72
// 005   ----------------------------------------
 BYTE   W72
 BYTE   W72
// 006   ----------------------------------------
 BYTE   W72
 BYTE   W72
// 007   ----------------------------------------
 BYTE   W72
 BYTE   W72
// 008   ----------------------------------------
 BYTE   W72
 BYTE   W72
// 009   ----------------------------------------
 BYTE   W72
 BYTE   W72
// 010   ----------------------------------------
 BYTE   W72
 BYTE   W72
// 011   ----------------------------------------
 BYTE   W72
Label_2_550475:
 BYTE   N03  Dn3  v104
 BYTE   W06
 BYTE   As3
 BYTE   W06
 BYTE   An3
 BYTE   W03
 BYTE   As3
 BYTE   W03
 BYTE   An3
 BYTE   W03
 BYTE   Gn3
 BYTE   W03
// 012   ----------------------------------------
 BYTE   Dn3
 BYTE   W12
 BYTE   Dn3  v084
 BYTE   W06
 BYTE   As3
 BYTE   W06
 BYTE   An3
 BYTE   W03
 BYTE   As3
 BYTE   W03
 BYTE   An3
 BYTE   W03
 BYTE   Gn3
 BYTE   W03
 BYTE   Dn3
 BYTE   W12
 BYTE   PEND 
// 013   ----------------------------------------
 BYTE   PATT
  POIN2 Label_2_550475
// 014   ----------------------------------------
 BYTE   PATT
  POIN2 Label_2_550475
// 015   ----------------------------------------
 BYTE   PATT
  POIN2 Label_2_550475
// 016   ----------------------------------------
 BYTE   PATT
  POIN2 Label_2_550475
// 017   ----------------------------------------
 BYTE   PATT
  POIN2 Label_2_550475
// 018   ----------------------------------------
 BYTE   PATT
  POIN2 Label_2_550475
// 019   ----------------------------------------
 BYTE   PATT
  POIN2 Label_2_550475
// 020   ----------------------------------------
 BYTE   W72
 BYTE   W72
// 021   ----------------------------------------
 BYTE   W72
 BYTE   W72
// 022   ----------------------------------------
 BYTE   W72
 BYTE   W72
// 023   ----------------------------------------
 BYTE   W72
 BYTE   W72
// 024   ----------------------------------------
 BYTE   W72
 BYTE   W72
// 025   ----------------------------------------
 BYTE   N03  Dn3  v104
 BYTE   W06
 BYTE   As3
 BYTE   W06
 BYTE   An3
 BYTE   W03
 BYTE   As3
 BYTE   W03
 BYTE   An3
 BYTE   W03
 BYTE   Gn3
 BYTE   W03
 BYTE   N04  Dn3
 BYTE   W12
 BYTE   Dn3  v028
 BYTE   W06
 BYTE   N03  As3  v104
 BYTE   W06
 BYTE   An3
 BYTE   W03
 BYTE   As3
 BYTE   W03
 BYTE   An3
 BYTE   W03
 BYTE   Gn3
 BYTE   W03
 BYTE   N04  Dn3
 BYTE   W12
 BYTE   Dn3  v024
 BYTE   W06
 BYTE   N03  As3  v104
 BYTE   W06
 BYTE   An3
 BYTE   W03
 BYTE   As3
 BYTE   W03
 BYTE   An3
 BYTE   W03
 BYTE   Gn3
 BYTE   W03
// 026   ----------------------------------------
 BYTE   N04  Dn3
 BYTE   W12
 BYTE   Dn3  v028
 BYTE   W06
 BYTE   N03  As3  v104
 BYTE   W06
 BYTE   An3
 BYTE   W03
 BYTE   As3
 BYTE   W03
 BYTE   An3
 BYTE   W03
 BYTE   Gn3
 BYTE   W03
 BYTE   N04  Dn3
 BYTE   W12
 BYTE   Dn3  v064
 BYTE   W12
 BYTE   Dn3  v024
 BYTE   W12
 BYTE   W72
// 027   ----------------------------------------
 BYTE   W72
 BYTE   W72
// 028   ----------------------------------------
 BYTE   W72
 BYTE   W72
// 029   ----------------------------------------
 BYTE   W72
 BYTE   W72
// 030   ----------------------------------------
 BYTE   W72
 BYTE   W72
// 031   ----------------------------------------
 BYTE   W72
// 032   ----------------------------------------
 BYTE   PATT
  POIN2 Label_2_550475
// 033   ----------------------------------------
 BYTE   PATT
  POIN2 Label_2_550475
// 034   ----------------------------------------
 BYTE   PATT
  POIN2 Label_2_550475
// 035   ----------------------------------------
 BYTE   PATT
  POIN2 Label_2_550475
// 036   ----------------------------------------
 BYTE   PATT
  POIN2 Label_2_550475
// 037   ----------------------------------------
 BYTE   PATT
  POIN2 Label_2_550475
// 038   ----------------------------------------
 BYTE   PATT
  POIN2 Label_2_550475
// 039   ----------------------------------------
 BYTE   PATT
  POIN2 Label_2_550475
// 040   ----------------------------------------
 BYTE   W72
 BYTE   W72
// 041   ----------------------------------------
 BYTE   W72
 BYTE   W72
// 042   ----------------------------------------
 BYTE   W72
 BYTE   W72
// 043   ----------------------------------------
 BYTE   W72
 BYTE   W72
// 044   ----------------------------------------
 BYTE   W72
 BYTE   W72
// 045   ----------------------------------------
 BYTE   N03  Dn3  v104
 BYTE   W06
 BYTE   As3
 BYTE   W06
 BYTE   An3
 BYTE   W03
 BYTE   As3
 BYTE   W03
 BYTE   An3
 BYTE   W03
 BYTE   Gn3
 BYTE   W03
 BYTE   Dn3
 BYTE   W12
 BYTE   N04  Dn3  v028
 BYTE   W06
 BYTE   N03  As3  v104
 BYTE   W06
 BYTE   An3
 BYTE   W03
 BYTE   As3
 BYTE   W03
 BYTE   An3
 BYTE   W03
 BYTE   Gn3
 BYTE   W03
 BYTE   Dn3
 BYTE   W12
 BYTE   N04  Dn3  v024
 BYTE   W06
 BYTE   N03  As3  v104
 BYTE   W06
 BYTE   An3
 BYTE   W03
 BYTE   As3
 BYTE   W03
 BYTE   An3
 BYTE   W03
 BYTE   Gn3
 BYTE   W03
// 046   ----------------------------------------
 BYTE   Dn3
 BYTE   W12
 BYTE   N04  Dn3  v028
 BYTE   W06
 BYTE   N03  As3  v104
 BYTE   W06
 BYTE   An3
 BYTE   W03
 BYTE   As3
 BYTE   W03
 BYTE   An3
 BYTE   W03
 BYTE   Gn3
 BYTE   W03
 BYTE   N04  Dn3
 BYTE   W12
 BYTE   Dn3  v064
 BYTE   W12
 BYTE   Dn3  v024
 BYTE   W12
 BYTE   GoTo
  POIN2 Label_2_550382
 BYTE   FINE

//**************** Track 4 (Midi-Chn.3) ****************//

DKC3WaterWorldPandan_004:
// 000   ----------------------------------------
 BYTE   KEYSH   DKC3WaterWorldPandan_key+0
Label_3_54F892:
 BYTE   VOICE   1
 BYTE   PAN   c_v+19
 BYTE   VOL   80*DKC3WaterWorldPandan_mvl/mxv
 BYTE   W72
 BYTE   W72
// 001   ----------------------------------------
 BYTE   W72
 BYTE   W72
// 002   ----------------------------------------
 BYTE   W72
 BYTE   W72
// 003   ----------------------------------------
 BYTE   W72
 BYTE   W72
// 004   ----------------------------------------
 BYTE   W72
 BYTE   W72
// 005   ----------------------------------------
 BYTE   W72
 BYTE   W72
// 006   ----------------------------------------
Label_3_54F8A4:
 BYTE   N06  Dn4  v104
 BYTE   N06  Dn5
 BYTE   W12
 BYTE   Dn4  v064
 BYTE   N06  Dn5
 BYTE   W12
 BYTE   Dn4  v048
 BYTE   N06  Dn5
 BYTE   W12
 BYTE   Dn4  v028
 BYTE   N06  Dn5
 BYTE   W12
 BYTE   Dn4  v016
 BYTE   N06  Dn5
 BYTE   W12
 BYTE   Ds4  v104
 BYTE   N06  Ds5
 BYTE   W12
 BYTE   PEND 
Label_3_54F8C4:
 BYTE   N06  Dn4  v104
 BYTE   N06  Dn5
 BYTE   W12
 BYTE   Dn4  v064
 BYTE   N06  Dn5
 BYTE   W12
// 007   ----------------------------------------
 BYTE   Cn4  v104
 BYTE   N06  Cn5
 BYTE   W12
 BYTE   Gn3
 BYTE   N06  Gn4
 BYTE   W12
 BYTE   Gn3  v064
 BYTE   N06  Gn4
 BYTE   W12
 BYTE   Gn3  v048
 BYTE   N06  Gn4
 BYTE   W12
 BYTE   PEND 
Label_3_54F8E3:
 BYTE   N06  Gn3  v028
 BYTE   N06  Gn4
 BYTE   W12
 BYTE   Gn3  v016
 BYTE   N06  Gn4
 BYTE   W12
 BYTE   As3  v104
 BYTE   N06  As4
 BYTE   W12
 BYTE   As3
 BYTE   N06  As4
 BYTE   W12
// 008   ----------------------------------------
 BYTE   An3
 BYTE   N06  An4
 BYTE   W12
 BYTE   Gn3
 BYTE   N06  Gn4
 BYTE   W12
 BYTE   PEND 
Label_3_54F900:
 BYTE   N06  An3  v104
 BYTE   N06  An4
 BYTE   W06
 BYTE   Gn3
 BYTE   N06  Gn4
 BYTE   W06
 BYTE   Dn3
 BYTE   N06  Dn4
 BYTE   W12
 BYTE   Dn3  v064
 BYTE   N06  Dn4
 BYTE   W12
 BYTE   Dn3  v048
 BYTE   N06  Dn4
 BYTE   W12
 BYTE   Dn3  v028
 BYTE   N06  Dn4
 BYTE   W12
 BYTE   Dn3  v016
 BYTE   N06  Dn4
 BYTE   W12
 BYTE   PEND 
// 009   ----------------------------------------
Label_3_54F923:
 BYTE   N06  Dn4  v104
 BYTE   N06  Dn5
 BYTE   W12
 BYTE   Dn4  v064
 BYTE   N06  Dn5
 BYTE   W12
 BYTE   Dn4  v048
 BYTE   N06  Dn5
 BYTE   W12
 BYTE   Dn4  v028
 BYTE   N06  Dn5
 BYTE   W12
 BYTE   Dn4  v020
 BYTE   N06  Dn5
 BYTE   W12
 BYTE   Dn4  v012
 BYTE   N06  Dn5
 BYTE   W12
 BYTE   PEND 
Label_3_54F943:
 BYTE   N06  Cn4  v104
 BYTE   N06  Cn5
 BYTE   W12
 BYTE   Cn4  v064
 BYTE   N06  Cn5
 BYTE   W12
// 010   ----------------------------------------
 BYTE   Cn4  v048
 BYTE   N06  Cn5
 BYTE   W12
 BYTE   Cn4  v028
 BYTE   N06  Cn5
 BYTE   W12
 BYTE   Cn4  v020
 BYTE   N06  Cn5
 BYTE   W12
 BYTE   Cn4  v012
 BYTE   N06  Cn5
 BYTE   W12
 BYTE   PEND 
 BYTE   W72
// 011   ----------------------------------------
 BYTE   W72
 BYTE   W72
// 012   ----------------------------------------
 BYTE   W72
 BYTE   W72
// 013   ----------------------------------------
 BYTE   W72
 BYTE   W72
// 014   ----------------------------------------
 BYTE   W72
 BYTE   W72
// 015   ----------------------------------------
 BYTE   W72
 BYTE   W72
// 016   ----------------------------------------
 BYTE   W72
 BYTE   W72
// 017   ----------------------------------------
 BYTE   W72
 BYTE   W72
// 018   ----------------------------------------
 BYTE   W72
 BYTE   W72
// 019   ----------------------------------------
 BYTE   W72
 BYTE   W72
// 020   ----------------------------------------
 BYTE   W72
 BYTE   W72
// 021   ----------------------------------------
 BYTE   W72
 BYTE   W72
// 022   ----------------------------------------
 BYTE   W96
// 023   ----------------------------------------
 BYTE   PATT
  POIN2 Label_3_54F8A4
// 024   ----------------------------------------
 BYTE   PATT
  POIN2 Label_3_54F8C4
// 025   ----------------------------------------
 BYTE   PATT
  POIN2 Label_3_54F8E3
// 026   ----------------------------------------
 BYTE   PATT
  POIN2 Label_3_54F900
// 027   ----------------------------------------
 BYTE   PATT
  POIN2 Label_3_54F923
// 028   ----------------------------------------
 BYTE   PATT
  POIN2 Label_3_54F943
// 029   ----------------------------------------
 BYTE   W72
 BYTE   W72
// 030   ----------------------------------------
 BYTE   W72
 BYTE   W72
// 031   ----------------------------------------
 BYTE   W72
 BYTE   W72
// 032   ----------------------------------------
 BYTE   W72
 BYTE   W72
// 033   ----------------------------------------
 BYTE   W72
 BYTE   W72
// 034   ----------------------------------------
 BYTE   W72
 BYTE   W72
// 035   ----------------------------------------
 BYTE   W72
 BYTE   W72
// 036   ----------------------------------------
 BYTE   W72
 BYTE   W72
// 037   ----------------------------------------
 BYTE   W72
 BYTE   W72
// 038   ----------------------------------------
 BYTE   W72
 BYTE   W72
// 039   ----------------------------------------
 BYTE   W72
 BYTE   W72
// 040   ----------------------------------------
 BYTE   W72
 BYTE   W96
// 041   ----------------------------------------
 BYTE   GoTo
  POIN2 Label_3_54F892
 BYTE   FINE

//**************** Track 5 (Midi-Chn.4) ****************//

DKC3WaterWorldPandan_005:
// 000   ----------------------------------------
 BYTE   KEYSH   DKC3WaterWorldPandan_key+0
Label_4_54F9BA:
 BYTE   VOICE   48
 BYTE   PAN   c_v+31
 BYTE   VOL   35*DKC3WaterWorldPandan_mvl/mxv
 BYTE   W72
 BYTE   W72
// 001   ----------------------------------------
 BYTE   W72
 BYTE   W72
// 002   ----------------------------------------
 BYTE   W72
 BYTE   W72
// 003   ----------------------------------------
 BYTE   W72
 BYTE   W72
// 004   ----------------------------------------
 BYTE   W72
 BYTE   W72
// 005   ----------------------------------------
 BYTE   W72
 BYTE   W72
// 006   ----------------------------------------
Label_4_54F9CC:
 BYTE   N03  Dn4  v104
 BYTE   W06
 BYTE   As4
 BYTE   W06
 BYTE   An4
 BYTE   W03
 BYTE   As4
 BYTE   W03
 BYTE   An4
 BYTE   W03
 BYTE   Gn4
 BYTE   W03
 BYTE   Dn4
 BYTE   W12
 BYTE   Dn4  v084
 BYTE   W06
 BYTE   As4
 BYTE   W06
 BYTE   An4
 BYTE   W03
 BYTE   As4
 BYTE   W03
 BYTE   An4
 BYTE   W03
 BYTE   Gn4
 BYTE   W03
 BYTE   Dn4
 BYTE   W12
 BYTE   PEND 
// 007   ----------------------------------------
 BYTE   PATT
  POIN2 Label_4_54F9CC
// 008   ----------------------------------------
 BYTE   PATT
  POIN2 Label_4_54F9CC
// 009   ----------------------------------------
 BYTE   PATT
  POIN2 Label_4_54F9CC
// 010   ----------------------------------------
Label_4_54F9FB:
 BYTE   N03  Dn4  v104
 BYTE   W06
 BYTE   As4
 BYTE   W06
 BYTE   An4
 BYTE   W03
 BYTE   As4
 BYTE   W03
 BYTE   An4
 BYTE   W03
 BYTE   Gn4
 BYTE   W03
 BYTE   Fs4
 BYTE   W12
 BYTE   Dn4  v084
 BYTE   W06
 BYTE   As4
 BYTE   W06
 BYTE   An4
 BYTE   W03
 BYTE   As4
 BYTE   W03
 BYTE   An4
 BYTE   W03
 BYTE   Gn4
 BYTE   W03
 BYTE   Fs4
 BYTE   W12
 BYTE   PEND 
// 011   ----------------------------------------
 BYTE   PATT
  POIN2 Label_4_54F9FB
// 012   ----------------------------------------
 BYTE   PATT
  POIN2 Label_4_54F9CC
// 013   ----------------------------------------
 BYTE   PATT
  POIN2 Label_4_54F9CC
// 014   ----------------------------------------
 BYTE   PATT
  POIN2 Label_4_54F9CC
// 015   ----------------------------------------
 BYTE   PATT
  POIN2 Label_4_54F9CC
// 016   ----------------------------------------
 BYTE   W72
 BYTE   W72
// 017   ----------------------------------------
 BYTE   W72
 BYTE   W72
// 018   ----------------------------------------
 BYTE   W72
 BYTE   W72
// 019   ----------------------------------------
 BYTE   W72
 BYTE   W72
// 020   ----------------------------------------
 BYTE   W72
 BYTE   W72
// 021   ----------------------------------------
 BYTE   W72
 BYTE   W72
// 022   ----------------------------------------
 BYTE   W72
 BYTE   W72
// 023   ----------------------------------------
 BYTE   W72
 BYTE   W72
// 024   ----------------------------------------
 BYTE   W72
 BYTE   W72
// 025   ----------------------------------------
 BYTE   W72
 BYTE   W96
// 026   ----------------------------------------
 BYTE   PATT
  POIN2 Label_4_54F9CC
// 027   ----------------------------------------
 BYTE   PATT
  POIN2 Label_4_54F9CC
// 028   ----------------------------------------
 BYTE   PATT
  POIN2 Label_4_54F9CC
// 029   ----------------------------------------
 BYTE   PATT
  POIN2 Label_4_54F9CC
// 030   ----------------------------------------
 BYTE   PATT
  POIN2 Label_4_54F9FB
// 031   ----------------------------------------
 BYTE   PATT
  POIN2 Label_4_54F9FB
// 032   ----------------------------------------
 BYTE   PATT
  POIN2 Label_4_54F9CC
// 033   ----------------------------------------
 BYTE   PATT
  POIN2 Label_4_54F9CC
// 034   ----------------------------------------
 BYTE   PATT
  POIN2 Label_4_54F9CC
// 035   ----------------------------------------
 BYTE   PATT
  POIN2 Label_4_54F9CC
// 036   ----------------------------------------
 BYTE   W72
 BYTE   W72
// 037   ----------------------------------------
 BYTE   W72
 BYTE   W72
// 038   ----------------------------------------
 BYTE   W72
 BYTE   W72
// 039   ----------------------------------------
 BYTE   W72
 BYTE   W72
// 040   ----------------------------------------
 BYTE   W72
 BYTE   W72
// 041   ----------------------------------------
 BYTE   W72
 BYTE   W72
// 042   ----------------------------------------
 BYTE   W72
 BYTE   W72
// 043   ----------------------------------------
 BYTE   W72
 BYTE   W72
// 044   ----------------------------------------
 BYTE   W72
 BYTE   W72
// 045   ----------------------------------------
 BYTE   W72
 BYTE   W96
// 046   ----------------------------------------
 BYTE   GoTo
  POIN2 Label_4_54F9BA
 BYTE   FINE

//**************** Track 6 (Midi-Chn.5) ****************//

DKC3WaterWorldPandan_006:
// 000   ----------------------------------------
 BYTE   KEYSH   DKC3WaterWorldPandan_key+0
Label_5_54FA96:
 BYTE   VOICE   121
 BYTE   VOL   60*DKC3WaterWorldPandan_mvl/mxv
 BYTE   W72
 BYTE   W72
// 001   ----------------------------------------
 BYTE   W72
 BYTE   W72
// 002   ----------------------------------------
 BYTE   W72
 BYTE   W72
// 003   ----------------------------------------
 BYTE   W72
 BYTE   W72
// 004   ----------------------------------------
Label_5_54FAA2:
 BYTE   N06  Cn1  v104
 BYTE   N06  An3  v064
 BYTE   N06  As3
 BYTE   W06
 BYTE   N06
 BYTE   W03
 BYTE   An3
 BYTE   W03
 BYTE   As3
 BYTE   W06
 BYTE   N06
 BYTE   W06
 BYTE   N06
 BYTE   W06
 BYTE   N06
 BYTE   W06
 BYTE   Dn1  v104
 BYTE   N06  As3  v064
 BYTE   W06
 BYTE   N06
 BYTE   W06
 BYTE   N06
 BYTE   W06
 BYTE   N06
 BYTE   W06
 BYTE   N06
 BYTE   W06
 BYTE   N06
 BYTE   W06
 BYTE   PEND 
Label_5_54FAC8:
 BYTE   N06  Cn1  v104
 BYTE   N06  As3  v064
 BYTE   W06
 BYTE   N06
 BYTE   W06
 BYTE   N06
 BYTE   W06
 BYTE   N06
 BYTE   W06
// 005   ----------------------------------------
 BYTE   N06
 BYTE   W06
 BYTE   N06
 BYTE   W06
 BYTE   Dn1  v104
 BYTE   N06  Cs3
 BYTE   N06  An3  v064
 BYTE   N06  As3
 BYTE   W06
 BYTE   An3
 BYTE   N06  As3
 BYTE   W06
 BYTE   An3
 BYTE   N06  As3
 BYTE   W06
 BYTE   N06
 BYTE   W06
 BYTE   N06
 BYTE   W06
 BYTE   N06
 BYTE   W06
 BYTE   PEND 
// 006   ----------------------------------------
 BYTE   PATT
  POIN2 Label_5_54FAA2
// 007   ----------------------------------------
 BYTE   PATT
  POIN2 Label_5_54FAC8
// 008   ----------------------------------------
 BYTE   PATT
  POIN2 Label_5_54FAA2
// 009   ----------------------------------------
 BYTE   PATT
  POIN2 Label_5_54FAC8
// 010   ----------------------------------------
 BYTE   PATT
  POIN2 Label_5_54FAA2
// 011   ----------------------------------------
 BYTE   PATT
  POIN2 Label_5_54FAC8
// 012   ----------------------------------------
 BYTE   PATT
  POIN2 Label_5_54FAA2
// 013   ----------------------------------------
 BYTE   PATT
  POIN2 Label_5_54FAC8
// 014   ----------------------------------------
 BYTE   PATT
  POIN2 Label_5_54FAA2
// 015   ----------------------------------------
 BYTE   PATT
  POIN2 Label_5_54FAC8
// 016   ----------------------------------------
 BYTE   PATT
  POIN2 Label_5_54FAA2
// 017   ----------------------------------------
 BYTE   PATT
  POIN2 Label_5_54FAC8
// 018   ----------------------------------------
 BYTE   PATT
  POIN2 Label_5_54FAA2
// 019   ----------------------------------------
 BYTE   PATT
  POIN2 Label_5_54FAC8
// 020   ----------------------------------------
 BYTE   PATT
  POIN2 Label_5_54FAA2
// 021   ----------------------------------------
 BYTE   PATT
  POIN2 Label_5_54FAC8
// 022   ----------------------------------------
 BYTE   PATT
  POIN2 Label_5_54FAA2
// 023   ----------------------------------------
 BYTE   PATT
  POIN2 Label_5_54FAC8
// 024   ----------------------------------------
 BYTE   PATT
  POIN2 Label_5_54FAA2
// 025   ----------------------------------------
 BYTE   PATT
  POIN2 Label_5_54FAC8
// 026   ----------------------------------------
 BYTE   PATT
  POIN2 Label_5_54FAA2
// 027   ----------------------------------------
 BYTE   PATT
  POIN2 Label_5_54FAC8
// 028   ----------------------------------------
 BYTE   PATT
  POIN2 Label_5_54FAA2
// 029   ----------------------------------------
 BYTE   PATT
  POIN2 Label_5_54FAC8
// 030   ----------------------------------------
 BYTE   PATT
  POIN2 Label_5_54FAA2
// 031   ----------------------------------------
 BYTE   PATT
  POIN2 Label_5_54FAC8
// 032   ----------------------------------------
 BYTE   PATT
  POIN2 Label_5_54FAA2
// 033   ----------------------------------------
 BYTE   PATT
  POIN2 Label_5_54FAC8
// 034   ----------------------------------------
 BYTE   PATT
  POIN2 Label_5_54FAA2
// 035   ----------------------------------------
 BYTE   PATT
  POIN2 Label_5_54FAC8
// 036   ----------------------------------------
 BYTE   W72
 BYTE   W96
// 037   ----------------------------------------
 BYTE   PATT
  POIN2 Label_5_54FAA2
// 038   ----------------------------------------
 BYTE   PATT
  POIN2 Label_5_54FAC8
// 039   ----------------------------------------
 BYTE   PATT
  POIN2 Label_5_54FAA2
// 040   ----------------------------------------
 BYTE   PATT
  POIN2 Label_5_54FAC8
// 041   ----------------------------------------
 BYTE   PATT
  POIN2 Label_5_54FAA2
// 042   ----------------------------------------
 BYTE   PATT
  POIN2 Label_5_54FAC8
// 043   ----------------------------------------
 BYTE   PATT
  POIN2 Label_5_54FAA2
// 044   ----------------------------------------
 BYTE   PATT
  POIN2 Label_5_54FAC8
// 045   ----------------------------------------
 BYTE   PATT
  POIN2 Label_5_54FAA2
// 046   ----------------------------------------
 BYTE   PATT
  POIN2 Label_5_54FAC8
// 047   ----------------------------------------
 BYTE   PATT
  POIN2 Label_5_54FAA2
// 048   ----------------------------------------
 BYTE   PATT
  POIN2 Label_5_54FAC8
// 049   ----------------------------------------
 BYTE   PATT
  POIN2 Label_5_54FAA2
// 050   ----------------------------------------
 BYTE   PATT
  POIN2 Label_5_54FAC8
// 051   ----------------------------------------
 BYTE   PATT
  POIN2 Label_5_54FAA2
// 052   ----------------------------------------
 BYTE   PATT
  POIN2 Label_5_54FAC8
// 053   ----------------------------------------
 BYTE   PATT
  POIN2 Label_5_54FAA2
// 054   ----------------------------------------
 BYTE   PATT
  POIN2 Label_5_54FAC8
// 055   ----------------------------------------
 BYTE   PATT
  POIN2 Label_5_54FAA2
// 056   ----------------------------------------
 BYTE   PATT
  POIN2 Label_5_54FAC8
// 057   ----------------------------------------
 BYTE   PATT
  POIN2 Label_5_54FAA2
// 058   ----------------------------------------
 BYTE   PATT
  POIN2 Label_5_54FAC8
// 059   ----------------------------------------
 BYTE   PATT
  POIN2 Label_5_54FAA2
// 060   ----------------------------------------
 BYTE   PATT
  POIN2 Label_5_54FAC8
// 061   ----------------------------------------
 BYTE   PATT
  POIN2 Label_5_54FAA2
// 062   ----------------------------------------
 BYTE   PATT
  POIN2 Label_5_54FAC8
// 063   ----------------------------------------
 BYTE   PATT
  POIN2 Label_5_54FAA2
// 064   ----------------------------------------
 BYTE   PATT
  POIN2 Label_5_54FAC8
// 065   ----------------------------------------
 BYTE   W72
 BYTE   W96
// 066   ----------------------------------------
 BYTE   GoTo
  POIN2 Label_5_54FA96
 BYTE   FINE

//**************** Track 7 (Midi-Chn.6) ****************//

DKC3WaterWorldPandan_007:
// 000   ----------------------------------------
 BYTE   KEYSH   DKC3WaterWorldPandan_key+0
Label_6_54F3E2:
 BYTE   VOICE   88
 BYTE   VOL   56*DKC3WaterWorldPandan_mvl/mxv
 BYTE   W72
 BYTE   W72
// 001   ----------------------------------------
 BYTE   W72
 BYTE   W72
// 002   ----------------------------------------
 BYTE   W72
 BYTE   W72
// 003   ----------------------------------------
 BYTE   W72
 BYTE   W72
// 004   ----------------------------------------
 BYTE   W72
 BYTE   W72
// 005   ----------------------------------------
 BYTE   W72
 BYTE   W72
// 006   ----------------------------------------
 BYTE   W72
 BYTE   W72
// 007   ----------------------------------------
 BYTE   W72
 BYTE   W72
// 008   ----------------------------------------
 BYTE   W72
 BYTE   W72
// 009   ----------------------------------------
Label_6_54F3F8:
 BYTE   N12  Dn4  v104
 BYTE   W12
 BYTE   Gn4
 BYTE   W12
 BYTE   N12
 BYTE   W12
 BYTE   Dn4
 BYTE   W36
 BYTE   PEND 
 BYTE   W60
// 010   ----------------------------------------
 BYTE   Cn4
 BYTE   W12
// 011   ----------------------------------------
 BYTE   PATT
  POIN2 Label_6_54F3F8
// 012   ----------------------------------------
 BYTE   W72
 BYTE   W72
// 013   ----------------------------------------
 BYTE   W72
 BYTE   W72
// 014   ----------------------------------------
 BYTE   W72
 BYTE   W72
// 015   ----------------------------------------
 BYTE   W72
 BYTE   W72
// 016   ----------------------------------------
 BYTE   W72
Label_6_54F414:
 BYTE   W12
 BYTE   N06  Gs4  v104
 BYTE   W06
 BYTE   Gs4  v052
 BYTE   W06
// 017   ----------------------------------------
 BYTE   Gs4  v104
 BYTE   W06
 BYTE   Gs4  v052
 BYTE   W18
 BYTE   Gs4  v104
 BYTE   W06
 BYTE   Gs5
 BYTE   W06
 BYTE   Gs4
 BYTE   W06
 BYTE   Gs4  v064
 BYTE   W06
 BYTE   PEND 
Label_6_54F42D:
 BYTE   W48
// 018   ----------------------------------------
 BYTE   N06  Gs4  v104
 BYTE   W06
 BYTE   Gs5
 BYTE   W06
 BYTE   Gs4
 BYTE   W06
 BYTE   Gs4  v064
 BYTE   W06
 BYTE   PEND 
// 019   ----------------------------------------
 BYTE   PATT
  POIN2 Label_6_54F414
// 020   ----------------------------------------
 BYTE   PATT
  POIN2 Label_6_54F42D
// 021   ----------------------------------------
 BYTE   PATT
  POIN2 Label_6_54F414
// 022   ----------------------------------------
 BYTE   PATT
  POIN2 Label_6_54F42D
// 023   ----------------------------------------
 BYTE   W72
 BYTE   W72
// 024   ----------------------------------------
 BYTE   W72
 BYTE   W72
// 025   ----------------------------------------
 BYTE   W72
 BYTE   W96
// 026   ----------------------------------------
 BYTE   W72
 BYTE   W72
// 027   ----------------------------------------
 BYTE   W72
 BYTE   W72
// 028   ----------------------------------------
 BYTE   W72
 BYTE   W72
// 029   ----------------------------------------
 BYTE   PATT
  POIN2 Label_6_54F3F8
// 030   ----------------------------------------
 BYTE   W60
 BYTE   N12  Cn4  v104
 BYTE   W12
// 031   ----------------------------------------
 BYTE   PATT
  POIN2 Label_6_54F3F8
// 032   ----------------------------------------
 BYTE   W72
 BYTE   W72
// 033   ----------------------------------------
 BYTE   W72
 BYTE   W72
// 034   ----------------------------------------
 BYTE   W72
 BYTE   W72
// 035   ----------------------------------------
 BYTE   W72
 BYTE   W72
// 036   ----------------------------------------
 BYTE   W72
// 037   ----------------------------------------
 BYTE   PATT
  POIN2 Label_6_54F414
// 038   ----------------------------------------
 BYTE   PATT
  POIN2 Label_6_54F42D
// 039   ----------------------------------------
 BYTE   PATT
  POIN2 Label_6_54F414
// 040   ----------------------------------------
 BYTE   PATT
  POIN2 Label_6_54F42D
// 041   ----------------------------------------
 BYTE   PATT
  POIN2 Label_6_54F414
// 042   ----------------------------------------
 BYTE   PATT
  POIN2 Label_6_54F42D
// 043   ----------------------------------------
 BYTE   W72
 BYTE   W72
// 044   ----------------------------------------
 BYTE   W72
 BYTE   W72
// 045   ----------------------------------------
 BYTE   W72
 BYTE   W96
// 046   ----------------------------------------
 BYTE   GoTo
  POIN2 Label_6_54F3E2
 BYTE   FINE

//**************** Track 8 (Midi-Chn.7) ****************//

DKC3WaterWorldPandan_008:
// 000   ----------------------------------------
 BYTE   KEYSH   DKC3WaterWorldPandan_key+0
Label_7_54F49E:
 BYTE   VOICE   93
 BYTE   PAN   c_v+19
 BYTE   VOL   64*DKC3WaterWorldPandan_mvl/mxv
 BYTE   W72
 BYTE   W12
 BYTE   N96  Dn5  v104
 BYTE   W24
// 001   ----------------------------------------
 BYTE   BEND   c_v-3
 BYTE   W02
 BYTE   Cn3
 BYTE   W01
 BYTE   As2
 BYTE   W02
 BYTE   An2
 BYTE   W01
 BYTE   Gs2
 BYTE   W02
 BYTE   Fs2
 BYTE   W01
 BYTE   Fn2
 BYTE   W02
 BYTE   En2
 BYTE   W02
 BYTE   Dn2
 BYTE   W01
 BYTE   Cs2
 BYTE   W02
 BYTE   Cn2
 BYTE   W01
 BYTE   As1
 BYTE   W02
 BYTE   An1
 BYTE   W01
 BYTE   Gs1
 BYTE   W02
 BYTE   Fs1
 BYTE   W01
 BYTE   Fn1
 BYTE   W01
 BYTE   En1
 BYTE   W02
 BYTE   Dn1
 BYTE   W01
 BYTE   Cs1
 BYTE   W02
 BYTE   Cn1
 BYTE   W01
 BYTE   As0
 BYTE   W02
 BYTE   An0
 BYTE   W01
 BYTE   Gs0
 BYTE   W02
 BYTE   Fs0
 BYTE   W01
 BYTE   W01
 BYTE   Fn0
 BYTE   W01
 BYTE   En0
 BYTE   W02
 BYTE   Dn0
 BYTE   W01
 BYTE   Cs0
 BYTE   W02
 BYTE   Cn0
 BYTE   W01
 BYTE   AsM1
 BYTE   W02
 BYTE   AnM1
 BYTE   W02
 BYTE   FsM1
 BYTE   W02
 BYTE   FnM1
 BYTE   W01
 BYTE   EnM1
 BYTE   W02
 BYTE   DnM1
 BYTE   W01
 BYTE   CsM1
 BYTE   W02
 BYTE   CnM1
 BYTE   W01
 BYTE   AsM2
 BYTE   W02
 BYTE   AnM2
 BYTE   W02
 BYTE   GsM2
 BYTE   W01
 BYTE   FsM2
 BYTE   W02
 BYTE   FnM2
 BYTE   W01
 BYTE   EnM2
 BYTE   W02
 BYTE   DnM2
 BYTE   W01
 BYTE   CsM2
 BYTE   W02
 BYTE   CnM2
 BYTE   W36
// 002   ----------------------------------------
 BYTE   W02
 BYTE   W72
 BYTE   W48
// 003   ----------------------------------------
 BYTE   En3
 BYTE   N60  Gn1
 BYTE   N60  Gn2
 BYTE   W24
 BYTE   W48
 BYTE   Gs1
 BYTE   N60  Gs2
 BYTE   W24
// 004   ----------------------------------------
 BYTE   W48
 BYTE   N96  Gn1
 BYTE   N96  Gn2
 BYTE   W24
 BYTE   W72
// 005   ----------------------------------------
 BYTE   TIE  Cn2
 BYTE   TIE  Gn2
 BYTE   W72
 BYTE   W72
// 006   ----------------------------------------
 BYTE   EOT
 BYTE   Cn2  v055
 BYTE   W72
 BYTE   W72
// 007   ----------------------------------------
 BYTE   W72
 BYTE   W72
// 008   ----------------------------------------
 BYTE   W72
 BYTE   W72
// 009   ----------------------------------------
 BYTE   W72
 BYTE   W72
// 010   ----------------------------------------
 BYTE   W72
 BYTE   W72
// 011   ----------------------------------------
 BYTE   W72
 BYTE   W72
// 012   ----------------------------------------
 BYTE   W72
 BYTE   W72
// 013   ----------------------------------------
 BYTE   W72
 BYTE   W72
// 014   ----------------------------------------
 BYTE   W72
 BYTE   W72
// 015   ----------------------------------------
 BYTE   W72
 BYTE   W72
// 016   ----------------------------------------
 BYTE   W72
 BYTE   W72
// 017   ----------------------------------------
 BYTE   W72
 BYTE   W72
// 018   ----------------------------------------
 BYTE   W72
 BYTE   W72
// 019   ----------------------------------------
Label_7_54F540:
 BYTE   TIE  Cn1  v104
 BYTE   TIE  Gn1
 BYTE   W72
 BYTE   PEND 
 BYTE   W72
// 020   ----------------------------------------
 BYTE   EOT
 BYTE   Cn1  v043
 BYTE   W72
 BYTE   W72
// 021   ----------------------------------------
 BYTE   W72
 BYTE   W96
// 022   ----------------------------------------
 BYTE   W72
 BYTE   W72
// 023   ----------------------------------------
 BYTE   W72
 BYTE   W72
// 024   ----------------------------------------
 BYTE   W72
 BYTE   W72
// 025   ----------------------------------------
 BYTE   W72
 BYTE   W72
// 026   ----------------------------------------
 BYTE   W72
 BYTE   W72
// 027   ----------------------------------------
 BYTE   W72
 BYTE   W72
// 028   ----------------------------------------
 BYTE   W72
 BYTE   W72
// 029   ----------------------------------------
 BYTE   W72
 BYTE   W72
// 030   ----------------------------------------
 BYTE   W72
 BYTE   W72
// 031   ----------------------------------------
 BYTE   W72
 BYTE   W72
// 032   ----------------------------------------
 BYTE   W72
 BYTE   W72
// 033   ----------------------------------------
 BYTE   W72
 BYTE   W72
// 034   ----------------------------------------
 BYTE   PATT
  POIN2 Label_7_54F540
// 035   ----------------------------------------
 BYTE   W72
 BYTE   EOT
 BYTE   Cn1  v043
 BYTE   W72
// 036   ----------------------------------------
 BYTE   W72
 BYTE   W72
// 037   ----------------------------------------
 BYTE   W96
// 038   ----------------------------------------
 BYTE   GoTo
  POIN2 Label_7_54F49E
 BYTE   FINE

//**************** Track 9 (Midi-Chn.8) ****************//

DKC3WaterWorldPandan_009:
// 000   ----------------------------------------
 BYTE   KEYSH   DKC3WaterWorldPandan_key+0
Label_8_54F57E:
 BYTE   VOICE   91
 BYTE   VOL   56*DKC3WaterWorldPandan_mvl/mxv
 BYTE   PAN   c_v-19
 BYTE   W72
 BYTE   W72
// 001   ----------------------------------------
 BYTE   W72
 BYTE   W72
// 002   ----------------------------------------
 BYTE   W72
 BYTE   W72
// 003   ----------------------------------------
 BYTE   W72
 BYTE   W72
// 004   ----------------------------------------
 BYTE   W72
 BYTE   W72
// 005   ----------------------------------------
 BYTE   W72
 BYTE   W72
// 006   ----------------------------------------
 BYTE   W72
 BYTE   W72
// 007   ----------------------------------------
 BYTE   W72
 BYTE   W72
// 008   ----------------------------------------
 BYTE   W72
 BYTE   W72
// 009   ----------------------------------------
 BYTE   W72
 BYTE   W72
// 010   ----------------------------------------
 BYTE   W72
 BYTE   W72
// 011   ----------------------------------------
 BYTE   W72
 BYTE   W72
// 012   ----------------------------------------
 BYTE   W72
 BYTE   W72
// 013   ----------------------------------------
 BYTE   W72
 BYTE   W72
// 014   ----------------------------------------
 BYTE   W72
 BYTE   W72
// 015   ----------------------------------------
Label_8_54F5A2:
 BYTE   N60  Ds4  v104
 BYTE   W60
 BYTE   N12  En4
 BYTE   W12
 BYTE   PEND 
Label_8_54F5AA:
 BYTE   N24  Ds4  v104
 BYTE   W24
// 016   ----------------------------------------
 BYTE   N12  Cs4
 BYTE   W12
 BYTE   N60  Gs3
 BYTE   W36
 BYTE   PEND 
Label_8_54F5B5:
 BYTE   W24
 BYTE   N12  Bn3  v104
 BYTE   W12
 BYTE   N12
 BYTE   W12
// 017   ----------------------------------------
 BYTE   As3
 BYTE   W12
 BYTE   Gs3
 BYTE   W12
 BYTE   PEND 
Label_8_54F5C1:
 BYTE   N06  As3  v104
 BYTE   W06
 BYTE   Gs3
 BYTE   W06
 BYTE   N60  Ds3
 BYTE   W60
 BYTE   PEND 
// 018   ----------------------------------------
 BYTE   N72  Ds4
 BYTE   W72
 BYTE   Cs4
 BYTE   W72
// 019   ----------------------------------------
 BYTE   TIE  Cn1
 BYTE   W72
 BYTE   W72
// 020   ----------------------------------------
 BYTE   W72
 BYTE   W72
// 021   ----------------------------------------
 BYTE   EOT
 BYTE   W72
 BYTE   W96
// 022   ----------------------------------------
 BYTE   W72
 BYTE   W72
// 023   ----------------------------------------
 BYTE   W72
 BYTE   W72
// 024   ----------------------------------------
 BYTE   W72
 BYTE   W72
// 025   ----------------------------------------
 BYTE   W72
 BYTE   W72
// 026   ----------------------------------------
 BYTE   W72
 BYTE   W72
// 027   ----------------------------------------
 BYTE   W72
 BYTE   W72
// 028   ----------------------------------------
 BYTE   W72
 BYTE   W72
// 029   ----------------------------------------
 BYTE   W72
 BYTE   W72
// 030   ----------------------------------------
 BYTE   W72
 BYTE   W72
// 031   ----------------------------------------
 BYTE   PATT
  POIN2 Label_8_54F5A2
// 032   ----------------------------------------
 BYTE   PATT
  POIN2 Label_8_54F5AA
// 033   ----------------------------------------
 BYTE   PATT
  POIN2 Label_8_54F5B5
// 034   ----------------------------------------
 BYTE   PATT
  POIN2 Label_8_54F5C1
// 035   ----------------------------------------
 BYTE   N72  Ds4  v104
 BYTE   W72
 BYTE   Cs4
 BYTE   W72
// 036   ----------------------------------------
 BYTE   TIE  Cn1
 BYTE   W72
 BYTE   W72
// 037   ----------------------------------------
 BYTE   W72
 BYTE   W72
// 038   ----------------------------------------
 BYTE   EOT
 BYTE   W72
 BYTE   W96
// 039   ----------------------------------------
 BYTE   GoTo
  POIN2 Label_8_54F57E
 BYTE   FINE

//******************************************************//
	ALIGN 4

DKC3WaterWorldPandan:
	BYTE	9	// NumTrks
	BYTE	0	// NumBlks
	BYTE	DKC3WaterWorldPandan_pri	// Priority
	BYTE	DKC3WaterWorldPandan_rev	// Reverb.
    
	POIN2	DKC3WaterWorldPandan_grp
    
	POIN2	DKC3WaterWorldPandan_001
	POIN2	DKC3WaterWorldPandan_002
	POIN2	DKC3WaterWorldPandan_003
	POIN2	DKC3WaterWorldPandan_004
	POIN2	DKC3WaterWorldPandan_005
	POIN2	DKC3WaterWorldPandan_006
	POIN2	DKC3WaterWorldPandan_007
	POIN2	DKC3WaterWorldPandan_008
	POIN2	DKC3WaterWorldPandan_009

	
