//Event file generated from Sappy .s format.
	#include "MPlayDef.event"

	#define	GoldenSun_CaveTheme_grp  voicegroup000
	#define	GoldenSun_CaveTheme_pri  0
	#define	GoldenSun_CaveTheme_rev  0
	#define	GoldenSun_CaveTheme_mvl  127
	#define	GoldenSun_CaveTheme_key  0
	#define	GoldenSun_CaveTheme_tbs  1
	#define	GoldenSun_CaveTheme_exg  0
	#define	GoldenSun_CaveTheme_cmp  1

	// .rodata
	//	GoldenSun_CaveTheme
	ALIGN 4


//**************** Track 1 (Midi-Chn.0) ****************//

GoldenSun_CaveTheme_001:
//  #01 //000   ----------------------------------------
 BYTE   KEYSH   GoldenSun_CaveTheme_key+0
Label_011E0306:
 BYTE   TEMPO   72*GoldenSun_CaveTheme_tbs/2
 BYTE   VOICE   61
 BYTE   LFOS 44
 BYTE   VOL   66*GoldenSun_CaveTheme_mvl/mxv
 BYTE   PAN   c_v+0
 BYTE   N10  En2  v048
 BYTE   N10  Gn2
 BYTE   W12
 BYTE   Fs2
 BYTE   N10  An2
 BYTE   W12
 BYTE   En2
 BYTE   N10  Gn2
 BYTE   W12
 BYTE   Fs2
 BYTE   N10  An2
 BYTE   W12
 BYTE   N17  En2
 BYTE   N17  Gn2
 BYTE   W24
 BYTE   N10  Ds2
 BYTE   N10  Fs2
 BYTE   W12
 BYTE   En2
 BYTE   N10  Gn2
 BYTE   W12
//  #01 //001   ----------------------------------------
Label_011E0330:
 BYTE   N10  Ds2  v048
 BYTE   N10  Fs2
 BYTE   W12
 BYTE   En2
 BYTE   N10  Gn2
 BYTE   W12
 BYTE   Ds2
 BYTE   N10  Fs2
 BYTE   W12
 BYTE   En2
 BYTE   N10  Gn2
 BYTE   W12
 BYTE   Fs2
 BYTE   N10  An2
 BYTE   W12
 BYTE   Gn2
 BYTE   N10  Bn2
 BYTE   W12
 BYTE   Fs2
 BYTE   N10  An2
 BYTE   W12
 BYTE   Gn2
 BYTE   N10  Bn2
 BYTE   W12
 BYTE   PEND 
//  #01 //002   ----------------------------------------
Label_011E0353:
 BYTE   N17  Fs2  v048
 BYTE   N17  An2
 BYTE   W24
 BYTE   N10  Fn2
 BYTE   N10  Gs2
 BYTE   W12
 BYTE   Fs2
 BYTE   N10  An2
 BYTE   W12
 BYTE   Fn2
 BYTE   N10  Gs2
 BYTE   W12
 BYTE   Fs2
 BYTE   N10  An2
 BYTE   W12
 BYTE   N17  Fn2
 BYTE   N17  Gs2
 BYTE   W24
 BYTE   PEND 
//  #01 //003   ----------------------------------------
Label_011E0370:
 BYTE   N10  En2  v048
 BYTE   N10  Gn2
 BYTE   W12
 BYTE   Fs2
 BYTE   N10  An2
 BYTE   W12
 BYTE   En2
 BYTE   N10  Gn2
 BYTE   W12
 BYTE   Fs2
 BYTE   N10  An2
 BYTE   W12
 BYTE   N17  En2
 BYTE   N17  Gn2
 BYTE   W24
 BYTE   N10  Ds2
 BYTE   N10  Fs2
 BYTE   W12
 BYTE   En2
 BYTE   N10  Gn2
 BYTE   W12
 BYTE   PEND 
//  #01 //004   ----------------------------------------
 BYTE   PATT
  POIN2 Label_011E0330
//  #01 //005   ----------------------------------------
 BYTE   N17  Fs2  v048
 BYTE   N17  An2
 BYTE   W24
 BYTE   N10  Gs2
 BYTE   N10  Bn2
 BYTE   W12
 BYTE   An2
 BYTE   N10  Cn3
 BYTE   W12
 BYTE   Gs2
 BYTE   N10  Bn2
 BYTE   W12
 BYTE   An2
 BYTE   N10  Cn3
 BYTE   W12
 BYTE   N17  Gs2
 BYTE   N17  Bn2
 BYTE   W24
//  #01 //006   ----------------------------------------
 BYTE   PATT
  POIN2 Label_011E0370
//  #01 //007   ----------------------------------------
 BYTE   PATT
  POIN2 Label_011E0330
//  #01 //008   ----------------------------------------
 BYTE   PATT
  POIN2 Label_011E0353
//  #01 //009   ----------------------------------------
 BYTE   W96
//  #01 //010   ----------------------------------------
 BYTE   W96
//  #01 //011   ----------------------------------------
 BYTE   W48
 BYTE   N05  An2  v048
 BYTE   W06
 BYTE   As2  v040
 BYTE   W06
 BYTE   Cn3  v048
 BYTE   W06
 BYTE   An2  v040
 BYTE   W06
 BYTE   As2  v048
 BYTE   W06
 BYTE   Cn3  v040
 BYTE   W06
 BYTE   Cs3  v048
 BYTE   W06
 BYTE   Dn3  v040
 BYTE   W06
//  #01 //012   ----------------------------------------
Label_011E03DD:
 BYTE   N05  Cs3  v048
 BYTE   W06
 BYTE   As2  v040
 BYTE   W06
 BYTE   An2  v048
 BYTE   W06
 BYTE   As2  v040
 BYTE   W06
 BYTE   Bn2  v048
 BYTE   W06
 BYTE   Cn3  v040
 BYTE   W06
 BYTE   Cs3  v048
 BYTE   W06
 BYTE   Fn3  v040
 BYTE   W06
 BYTE   En3  v048
 BYTE   W06
 BYTE   Ds3  v040
 BYTE   W06
 BYTE   Dn3  v048
 BYTE   W06
 BYTE   Cs3  v040
 BYTE   W06
 BYTE   Cn3  v048
 BYTE   W06
 BYTE   Bn2  v040
 BYTE   W06
 BYTE   As2  v048
 BYTE   W06
 BYTE   Bn2  v040
 BYTE   W06
 BYTE   PEND 
//  #01 //013   ----------------------------------------
Label_011E040F:
 BYTE   N05  An2  v048
 BYTE   W06
 BYTE   As2  v040
 BYTE   W06
 BYTE   Cn3  v048
 BYTE   W06
 BYTE   An2  v040
 BYTE   W06
 BYTE   As2  v048
 BYTE   W06
 BYTE   Cn3  v040
 BYTE   W06
 BYTE   Bn2  v048
 BYTE   W06
 BYTE   Gs2  v040
 BYTE   W06
 BYTE   An2  v048
 BYTE   W06
 BYTE   Gn2  v040
 BYTE   W06
 BYTE   Fs2  v048
 BYTE   W06
 BYTE   Fn2  v040
 BYTE   W06
 BYTE   An2  v048
 BYTE   W06
 BYTE   As2  v040
 BYTE   W06
 BYTE   Cn3  v048
 BYTE   W06
 BYTE   Cs3  v040
 BYTE   W06
 BYTE   PEND 
//  #01 //014   ----------------------------------------
 BYTE   Dn3  v048
 BYTE   W06
 BYTE   Fn3  v040
 BYTE   W06
 BYTE   En3  v048
 BYTE   W06
 BYTE   Ds3  v040
 BYTE   W06
 BYTE   Cn3  v048
 BYTE   W06
 BYTE   Bn2  v040
 BYTE   W06
 BYTE   As2  v048
 BYTE   W06
 BYTE   An2  v040
 BYTE   W06
 BYTE   An2  v048
 BYTE   W06
 BYTE   As2  v040
 BYTE   W06
 BYTE   Cn3  v048
 BYTE   W06
 BYTE   An2  v040
 BYTE   W06
 BYTE   As2  v048
 BYTE   W06
 BYTE   Cn3  v040
 BYTE   W06
 BYTE   Cs3  v048
 BYTE   W06
 BYTE   Dn3  v040
 BYTE   W06
//  #01 //015   ----------------------------------------
 BYTE   PATT
  POIN2 Label_011E03DD
//  #01 //016   ----------------------------------------
 BYTE   PATT
  POIN2 Label_011E040F
//  #01 //017   ----------------------------------------
 BYTE   N05  Dn3  v048
 BYTE   W06
 BYTE   Fn3  v040
 BYTE   W06
 BYTE   En3  v048
 BYTE   W06
 BYTE   Ds3  v040
 BYTE   W06
 BYTE   Cn3  v048
 BYTE   W06
 BYTE   Bn2  v040
 BYTE   W06
 BYTE   As2  v048
 BYTE   W06
 BYTE   An2  v040
 BYTE   W54
//  #01 //018   ----------------------------------------
 BYTE   W96
//  #01 //019   ----------------------------------------
 BYTE   W96
//  #01 //020   ----------------------------------------
 BYTE   W96
//  #01 //021   ----------------------------------------
 BYTE   W96
//  #01 //022   ----------------------------------------
 BYTE   W96
//  #01 //023   ----------------------------------------
 BYTE   W96
//  #01 //024   ----------------------------------------
 BYTE   W96
//  #01 //025   ----------------------------------------
 BYTE   W96
//  #01 //026   ----------------------------------------
 BYTE   W96
//  #01 //027   ----------------------------------------
 BYTE   W36
 BYTE   GoTo
  POIN2 Label_011E0306
//  #01 //028   ----------------------------------------
 BYTE   TEMPO   72*GoldenSun_CaveTheme_tbs/2
 BYTE   VOL   66*GoldenSun_CaveTheme_mvl/mxv
 BYTE   PAN   c_v+0
 BYTE   FINE

//**************** Track 2 (Midi-Chn.1) ****************//

GoldenSun_CaveTheme_002:
//  #02 //000   ----------------------------------------
 BYTE   KEYSH   GoldenSun_CaveTheme_key+0
Label_0119083A:
 BYTE   VOICE   105
 BYTE   LFOS 44
 BYTE   VOL   34*GoldenSun_CaveTheme_mvl/mxv
 BYTE   PAN   c_v+0
 BYTE   N68  En0  v112
 BYTE   W72
 BYTE   Bn0
 BYTE   W24
//  #02 //001   ----------------------------------------
 BYTE   W48
 BYTE   An0
 BYTE   W48
//  #02 //002   ----------------------------------------
 BYTE   W24
 BYTE   Gs0
 BYTE   W72
//  #02 //003   ----------------------------------------
 BYTE   En3
 BYTE   N44  Bn3
 BYTE   W48
 BYTE   N23  Gn3
 BYTE   W24
 BYTE   N32  Ds3
 BYTE   N32  Fs3
 BYTE   W24
//  #02 //004   ----------------------------------------
 BYTE   W12
 BYTE   N11  En3
 BYTE   N11  Gn3
 BYTE   W12
 BYTE   N23  Fs3
 BYTE   N23  An3
 BYTE   W72
//  #02 //005   ----------------------------------------
 BYTE   W96
//  #02 //006   ----------------------------------------
 BYTE   N68  En3
 BYTE   N23  As3
 BYTE   W24
 BYTE   N44  Bn3
 BYTE   W48
 BYTE   N32  Ds3
 BYTE   N32  Bn3
 BYTE   W24
//  #02 //007   ----------------------------------------
 BYTE   W12
 BYTE   Bn2
 BYTE   N32  Fs3
 BYTE   W84
//  #02 //008   ----------------------------------------
 BYTE   W96
//  #02 //009   ----------------------------------------
 BYTE   W96
//  #02 //010   ----------------------------------------
 BYTE   W96
//  #02 //011   ----------------------------------------
Label_0119087B:
 BYTE   W48
 BYTE   N68  Cn1  v112
 BYTE   N68  Cn2
 BYTE   W48
 BYTE   PEND 
//  #02 //012   ----------------------------------------
Label_01190883:
 BYTE   W24
 BYTE   N32  Cs1  v112
 BYTE   N32  Cs2
 BYTE   W36
 BYTE   Gn0
 BYTE   N32  Gn1
 BYTE   W36
 BYTE   PEND 
//  #02 //013   ----------------------------------------
 BYTE   N68  Fs0
 BYTE   N68  Fs1
 BYTE   W72
 BYTE   Fn0
 BYTE   N68  Fn1
 BYTE   W24
//  #02 //014   ----------------------------------------
 BYTE   PATT
  POIN2 Label_0119087B
//  #02 //015   ----------------------------------------
 BYTE   PATT
  POIN2 Label_01190883
//  #02 //016   ----------------------------------------
 BYTE   N68  Gs0  v112
 BYTE   N68  Gs1
 BYTE   W72
 BYTE   An0
 BYTE   N68  An1
 BYTE   W24
//  #02 //017   ----------------------------------------
 BYTE   W96
//  #02 //018   ----------------------------------------
 BYTE   W96
//  #02 //019   ----------------------------------------
Label_011908AE:
 BYTE   W36
 BYTE   N92  An2  v044
 BYTE   N92  En3
 BYTE   N92  Cn4
 BYTE   W60
 BYTE   PEND 
//  #02 //020   ----------------------------------------
 BYTE   W36
 BYTE   An2
 BYTE   N92  Ds3
 BYTE   N92  Cn4
 BYTE   W60
//  #02 //021   ----------------------------------------
 BYTE   PATT
  POIN2 Label_011908AE
//  #02 //022   ----------------------------------------
 BYTE   W36
 BYTE   N44  An2  v044
 BYTE   N44  Ds3
 BYTE   N44  Cn4
 BYTE   W48
 BYTE   Gs2
 BYTE   N44  Dn3
 BYTE   N44  Bn3
 BYTE   W12
//  #02 //023   ----------------------------------------
 BYTE   W36
 BYTE   N92  En2
 BYTE   N92  Cn3
 BYTE   N92  An3
 BYTE   W60
//  #02 //024   ----------------------------------------
 BYTE   W36
 BYTE   Fs2
 BYTE   N92  Ds3
 BYTE   N92  An3
 BYTE   W60
//  #02 //025   ----------------------------------------
 BYTE   W36
 BYTE   En2
 BYTE   N92  Cn3
 BYTE   N44  Bn3
 BYTE   W48
 BYTE   An3
 BYTE   W12
//  #02 //026   ----------------------------------------
 BYTE   W36
 BYTE   N92  Fs2
 BYTE   N92  Ds3
 BYTE   N44  An3
 BYTE   W48
 BYTE   Bn3
 BYTE   W12
//  #02 //027   ----------------------------------------
 BYTE   W36
 BYTE   GoTo
  POIN2 Label_0119083A
//  #02 //028   ----------------------------------------
 BYTE   PAN   c_v+0
 BYTE   FINE

//**************** Track 3 (Midi-Chn.2) ****************//

GoldenSun_CaveTheme_003:
//  #03 //000   ----------------------------------------
 BYTE   KEYSH   GoldenSun_CaveTheme_key+0
Label_011DFD8E:
 BYTE   VOICE   35
 BYTE   LFOS 44
 BYTE   VOL   46*GoldenSun_CaveTheme_mvl/mxv
 BYTE   PAN   c_v+0
 BYTE   W96
//  #03 //001   ----------------------------------------
 BYTE   W96
//  #03 //002   ----------------------------------------
 BYTE   W96
//  #03 //003   ----------------------------------------
Label_011DFD99:
 BYTE   N11  En2  v124
 BYTE   W12
 BYTE   N23  Bn2
 BYTE   W24
 BYTE   N12  En3
 BYTE   W24
 BYTE   N11  As2
 BYTE   W12
 BYTE   N56  Bn2
 BYTE   W24
 BYTE   PEND 
//  #03 //004   ----------------------------------------
 BYTE   W36
 BYTE   N11  As2
 BYTE   W12
 BYTE   An2
 BYTE   W12
 BYTE   N23  En3
 BYTE   W24
 BYTE   N11  Bn3
 BYTE   W12
//  #03 //005   ----------------------------------------
 BYTE   W12
 BYTE   En3
 BYTE   W12
 BYTE   N23  Gs2
 BYTE   W24
 BYTE   Gn2
 BYTE   W24
 BYTE   Fs2
 BYTE   W24
//  #03 //006   ----------------------------------------
 BYTE   PATT
  POIN2 Label_011DFD99
//  #03 //007   ----------------------------------------
 BYTE   W36
 BYTE   N11  Bn2  v124
 BYTE   W12
 BYTE   N32  Cn3
 BYTE   W36
 BYTE   N11  Gn2
 BYTE   W12
//  #03 //008   ----------------------------------------
 BYTE   Cn3
 BYTE   W12
 BYTE   Gn2
 BYTE   W12
 BYTE   N23  Bn2
 BYTE   W24
 BYTE   Fs2
 BYTE   W24
 BYTE   Bn2
 BYTE   W24
//  #03 //009   ----------------------------------------
 BYTE   N11  En2
 BYTE   W12
 BYTE   N11
 BYTE   W12
 BYTE   N11
 BYTE   W12
 BYTE   N11
 BYTE   W12
 BYTE   En3
 BYTE   W12
 BYTE   En2
 BYTE   W12
 BYTE   N11
 BYTE   W12
 BYTE   N11
 BYTE   W12
//  #03 //010   ----------------------------------------
 BYTE   N11
 BYTE   W12
 BYTE   Ds3
 BYTE   W12
 BYTE   En2
 BYTE   W12
 BYTE   N11
 BYTE   W12
 BYTE   N11
 BYTE   W12
 BYTE   N11
 BYTE   W12
 BYTE   En3
 BYTE   W12
 BYTE   N05  Ds3
 BYTE   W06
 BYTE   Bn2
 BYTE   W06
//  #03 //011   ----------------------------------------
 BYTE   Dn3
 BYTE   W06
 BYTE   As2
 BYTE   W06
 BYTE   Cs3
 BYTE   W06
 BYTE   An2
 BYTE   W06
 BYTE   Cn3
 BYTE   W06
 BYTE   Gs2
 BYTE   W06
 BYTE   Cn3
 BYTE   W06
 BYTE   Gn2
 BYTE   W06
 BYTE   N56  Cn3
 BYTE   W48
//  #03 //012   ----------------------------------------
 BYTE   W12
 BYTE   N05
 BYTE   W06
 BYTE   N05
 BYTE   W06
 BYTE   N32  Cs3
 BYTE   W36
 BYTE   Gn2
 BYTE   W36
//  #03 //013   ----------------------------------------
 BYTE   N68  Fs2
 BYTE   W72
 BYTE   Fn2
 BYTE   W24
//  #03 //014   ----------------------------------------
 BYTE   W48
 BYTE   N56  Cn3
 BYTE   W48
//  #03 //015   ----------------------------------------
 BYTE   W12
 BYTE   N05
 BYTE   W06
 BYTE   N05
 BYTE   W06
 BYTE   N32  Cs3
 BYTE   W36
 BYTE   Gn3  v120
 BYTE   W36
//  #03 //016   ----------------------------------------
 BYTE   N68  Gs2
 BYTE   W72
 BYTE   An3
 BYTE   W24
//  #03 //017   ----------------------------------------
 BYTE   W48
 BYTE   N11  En2  v124
 BYTE   W12
 BYTE   N11
 BYTE   W12
 BYTE   N11
 BYTE   W12
 BYTE   N11
 BYTE   W12
//  #03 //018   ----------------------------------------
 BYTE   En3
 BYTE   W12
 BYTE   En2
 BYTE   W12
 BYTE   N11
 BYTE   W12
 BYTE   N11
 BYTE   W12
 BYTE   N11
 BYTE   W12
 BYTE   Ds3
 BYTE   W12
 BYTE   En2
 BYTE   W12
 BYTE   N11
 BYTE   W12
//  #03 //019   ----------------------------------------
 BYTE   N11
 BYTE   W12
 BYTE   N11
 BYTE   W12
 BYTE   En3
 BYTE   W12
 BYTE   An2  v127
 BYTE   W12
 BYTE   N05
 BYTE   W06
 BYTE   N11
 BYTE   W12
 BYTE   N05
 BYTE   W06
 BYTE   N11
 BYTE   W12
 BYTE   N05
 BYTE   W06
 BYTE   N11
 BYTE   W06
//  #03 //020   ----------------------------------------
 BYTE   W06
 BYTE   N05
 BYTE   W06
 BYTE   N11
 BYTE   W12
 BYTE   N05
 BYTE   W06
 BYTE   Gs2
 BYTE   W06
 BYTE   N11  An2
 BYTE   W12
 BYTE   N05
 BYTE   W06
 BYTE   N11
 BYTE   W12
 BYTE   N05
 BYTE   W06
 BYTE   N11
 BYTE   W12
 BYTE   N05
 BYTE   W06
 BYTE   N11
 BYTE   W06
//  #03 //021   ----------------------------------------
 BYTE   W06
 BYTE   N05
 BYTE   W06
 BYTE   N11
 BYTE   W12
 BYTE   N05  Gs2
 BYTE   W06
 BYTE   An2
 BYTE   W06
 BYTE   N11
 BYTE   W12
 BYTE   N05
 BYTE   W06
 BYTE   N11
 BYTE   W12
 BYTE   N05
 BYTE   W06
 BYTE   N11
 BYTE   W12
 BYTE   N05
 BYTE   W06
 BYTE   N11
 BYTE   W06
//  #03 //022   ----------------------------------------
 BYTE   W06
 BYTE   N05
 BYTE   W06
 BYTE   N11
 BYTE   W12
 BYTE   N05
 BYTE   W06
 BYTE   Gs2
 BYTE   W06
 BYTE   N11  An2
 BYTE   W12
 BYTE   N05
 BYTE   W06
 BYTE   N11
 BYTE   W12
 BYTE   N05
 BYTE   W06
 BYTE   N11
 BYTE   W12
 BYTE   Gs2
 BYTE   W12
//  #03 //023   ----------------------------------------
 BYTE   N05
 BYTE   W06
 BYTE   N11
 BYTE   W12
 BYTE   N05
 BYTE   W06
 BYTE   N11
 BYTE   W12
 BYTE   An2
 BYTE   W12
 BYTE   N05
 BYTE   W06
 BYTE   N11
 BYTE   W12
 BYTE   N05
 BYTE   W06
 BYTE   N11
 BYTE   W12
 BYTE   N05
 BYTE   W06
 BYTE   N11
 BYTE   W06
//  #03 //024   ----------------------------------------
Label_011DFEC1:
 BYTE   W06
 BYTE   N05  An2  v127
 BYTE   W06
 BYTE   N11
 BYTE   W12
 BYTE   N05
 BYTE   W06
 BYTE   An3
 BYTE   W06
 BYTE   N11  An2
 BYTE   W12
 BYTE   N05
 BYTE   W06
 BYTE   N11
 BYTE   W12
 BYTE   N05
 BYTE   W06
 BYTE   N11
 BYTE   W12
 BYTE   N05
 BYTE   W06
 BYTE   N11
 BYTE   W06
 BYTE   PEND 
//  #03 //025   ----------------------------------------
 BYTE   PATT
  POIN2 Label_011DFEC1
//  #03 //026   ----------------------------------------
 BYTE   W06
 BYTE   N05  An2  v127
 BYTE   W06
 BYTE   N11
 BYTE   W12
 BYTE   N05
 BYTE   W06
 BYTE   An3
 BYTE   W06
 BYTE   N11  Bn2
 BYTE   W12
 BYTE   N05
 BYTE   W06
 BYTE   N11
 BYTE   W12
 BYTE   N05
 BYTE   W06
 BYTE   N11
 BYTE   W12
 BYTE   N05
 BYTE   W06
 BYTE   N11
 BYTE   W06
//  #03 //027   ----------------------------------------
 BYTE   W06
 BYTE   N05
 BYTE   W06
 BYTE   N11
 BYTE   W12
 BYTE   N05
 BYTE   W06
 BYTE   Bn3
 BYTE   W06
 BYTE   GoTo
  POIN2 Label_011DFD8E
//  #03 //028   ----------------------------------------
 BYTE   PAN   c_v+0
 BYTE   FINE

//**************** Track 4 (Midi-Chn.3) ****************//

GoldenSun_CaveTheme_004:
//  #04 //000   ----------------------------------------
 BYTE   KEYSH   GoldenSun_CaveTheme_key+0
Label_011CA5B2:
 BYTE   VOICE   46
 BYTE   LFOS 44
 BYTE   VOL   54*GoldenSun_CaveTheme_mvl/mxv
 BYTE   PAN   c_v+0
 BYTE   W96
//  #04 //001   ----------------------------------------
 BYTE   W96
//  #04 //002   ----------------------------------------
 BYTE   W96
//  #04 //003   ----------------------------------------
 BYTE   W96
//  #04 //004   ----------------------------------------
 BYTE   W48
 BYTE   N23  Bn1  v116
 BYTE   W12
 BYTE   N32  Cn2  v104
 BYTE   W12
 BYTE   N44  An2  v116
 BYTE   W24
//  #04 //005   ----------------------------------------
 BYTE   W24
 BYTE   N23  Bn2
 BYTE   W12
 BYTE   Fn2  v104
 BYTE   W12
 BYTE   As2  v116
 BYTE   W12
 BYTE   An2  v104
 BYTE   W12
 BYTE   Gs2  v116
 BYTE   W12
 BYTE   N11  Gn2  v104
 BYTE   W12
//  #04 //006   ----------------------------------------
 BYTE   W96
//  #04 //007   ----------------------------------------
 BYTE   W48
 BYTE   As2  v116
 BYTE   W06
 BYTE   An2  v104
 BYTE   W06
 BYTE   Gs2  v116
 BYTE   W06
 BYTE   Gn2  v104
 BYTE   W06
 BYTE   N44  Fs2  v116
 BYTE   W24
//  #04 //008   ----------------------------------------
 BYTE   W24
 BYTE   N23  En2
 BYTE   W12
 BYTE   As2  v104
 BYTE   W12
 BYTE   An2  v116
 BYTE   W12
 BYTE   Ds2  v104
 BYTE   W12
 BYTE   Dn2  v116
 BYTE   W12
 BYTE   N11  Gs2  v104
 BYTE   W12
//  #04 //009   ----------------------------------------
 BYTE   W96
//  #04 //010   ----------------------------------------
 BYTE   W96
//  #04 //011   ----------------------------------------
 BYTE   W48
 BYTE   N23  Ds2  v116
 BYTE   W12
 BYTE   Fs2  v104
 BYTE   W12
 BYTE   Gs2  v116
 BYTE   W12
 BYTE   En2  v104
 BYTE   W12
//  #04 //012   ----------------------------------------
 BYTE   Fs2  v116
 BYTE   W12
 BYTE   N11  As2  v104
 BYTE   W12
 BYTE   N23  Ds2  v116
 BYTE   W12
 BYTE   Fs2  v104
 BYTE   W12
 BYTE   Gs2  v116
 BYTE   W12
 BYTE   En2  v104
 BYTE   W12
 BYTE   Fs2  v116
 BYTE   W12
 BYTE   N11  As2  v104
 BYTE   W12
//  #04 //013   ----------------------------------------
 BYTE   N23  Ds2  v116
 BYTE   W12
 BYTE   Fs2  v104
 BYTE   W12
 BYTE   Gs2  v116
 BYTE   W12
 BYTE   En2  v104
 BYTE   W12
 BYTE   Fs2  v116
 BYTE   W12
 BYTE   N11  As2  v104
 BYTE   W12
 BYTE   N23  Ds2  v116
 BYTE   W12
 BYTE   Fs2  v104
 BYTE   W12
//  #04 //014   ----------------------------------------
 BYTE   Gs2  v116
 BYTE   W12
 BYTE   En2  v104
 BYTE   W12
 BYTE   Fs2  v116
 BYTE   W12
 BYTE   N11  As2  v104
 BYTE   W12
 BYTE   Ds2  v116
 BYTE   W12
 BYTE   Fs2  v104
 BYTE   W12
 BYTE   Gs2  v116
 BYTE   W12
 BYTE   En2  v104
 BYTE   W12
//  #04 //015   ----------------------------------------
 BYTE   Fs2  v116
 BYTE   W12
 BYTE   As2  v104
 BYTE   W12
 BYTE   Ds2  v116
 BYTE   W12
 BYTE   Fs2  v104
 BYTE   W12
 BYTE   Gs2  v116
 BYTE   W12
 BYTE   En2  v104
 BYTE   W12
 BYTE   Fs2  v116
 BYTE   W12
 BYTE   As2  v104
 BYTE   W12
//  #04 //016   ----------------------------------------
 BYTE   Ds2  v116
 BYTE   W12
 BYTE   Fs2  v104
 BYTE   W12
 BYTE   Gs2  v116
 BYTE   W12
 BYTE   En2  v104
 BYTE   W12
 BYTE   Fs2  v116
 BYTE   W12
 BYTE   As2  v104
 BYTE   W12
 BYTE   Ds2  v116
 BYTE   W12
 BYTE   Fs2  v104
 BYTE   W12
//  #04 //017   ----------------------------------------
 BYTE   Gs2  v116
 BYTE   W12
 BYTE   En2  v104
 BYTE   W12
 BYTE   Fs2  v116
 BYTE   W12
 BYTE   As2  v104
 BYTE   W60
//  #04 //018   ----------------------------------------
 BYTE   W96
//  #04 //019   ----------------------------------------
 BYTE   W36
 BYTE   N23  Cn3  v116
 BYTE   W12
 BYTE   En2
 BYTE   W12
 BYTE   An2
 BYTE   W12
 BYTE   Cn3
 BYTE   W12
 BYTE   En2
 BYTE   W12
//  #04 //020   ----------------------------------------
 BYTE   An2
 BYTE   W12
 BYTE   Cn3
 BYTE   W12
 BYTE   N11  En2
 BYTE   W12
 BYTE   N23  Ds2
 BYTE   W12
 BYTE   An2
 BYTE   W12
 BYTE   Cn3
 BYTE   W12
 BYTE   Ds2
 BYTE   W12
 BYTE   Cn3
 BYTE   W12
//  #04 //021   ----------------------------------------
 BYTE   Ds2
 BYTE   W12
 BYTE   An2
 BYTE   W12
 BYTE   N11  Cn3
 BYTE   W12
 BYTE   N23  En2
 BYTE   W12
 BYTE   An2
 BYTE   W12
 BYTE   Cn3
 BYTE   W12
 BYTE   En2
 BYTE   W12
 BYTE   Bn2
 BYTE   W12
//  #04 //022   ----------------------------------------
 BYTE   Cn3
 BYTE   W12
 BYTE   En2
 BYTE   W12
 BYTE   N11  Cn3
 BYTE   W12
 BYTE   N23  Ds2
 BYTE   W12
 BYTE   An2
 BYTE   W12
 BYTE   Cn3
 BYTE   W12
 BYTE   Ds2
 BYTE   W12
 BYTE   Dn2
 BYTE   W12
//  #04 //023   ----------------------------------------
 BYTE   Gs2
 BYTE   W12
 BYTE   Bn2
 BYTE   W12
 BYTE   N11  Dn2
 BYTE   W12
 BYTE   N23  Cn2
 BYTE   W12
 BYTE   En2
 BYTE   W12
 BYTE   Bn2
 BYTE   W12
 BYTE   Cn2
 BYTE   W12
 BYTE   En2
 BYTE   W12
//  #04 //024   ----------------------------------------
 BYTE   An2
 BYTE   W12
 BYTE   Cn2
 BYTE   W12
 BYTE   N11  En2
 BYTE   W12
 BYTE   N23  Bn1
 BYTE   W12
 BYTE   Fs2
 BYTE   W12
 BYTE   An2
 BYTE   W12
 BYTE   Bn1
 BYTE   W12
 BYTE   Ds2
 BYTE   W12
//  #04 //025   ----------------------------------------
 BYTE   Fs2
 BYTE   W12
 BYTE   An2
 BYTE   W12
 BYTE   N11  Bn1
 BYTE   W12
 BYTE   N23  An1
 BYTE   W12
 BYTE   Cn2
 BYTE   W12
 BYTE   An2
 BYTE   W12
 BYTE   An1
 BYTE   W12
 BYTE   Cn2
 BYTE   W12
//  #04 //026   ----------------------------------------
 BYTE   Bn2
 BYTE   W12
 BYTE   An1
 BYTE   W12
 BYTE   N11  En2
 BYTE   W12
 BYTE   N23  Bn1
 BYTE   W12
 BYTE   Ds2
 BYTE   W12
 BYTE   Fs2
 BYTE   W12
 BYTE   Cn3
 BYTE   W12
 BYTE   Bn2
 BYTE   W12
//  #04 //027   ----------------------------------------
 BYTE   An2
 BYTE   W12
 BYTE   Fs2
 BYTE   W12
 BYTE   N11  Ds2
 BYTE   W12
 BYTE   GoTo
  POIN2 Label_011CA5B2
//  #04 //028   ----------------------------------------
 BYTE   PAN   c_v+0
 BYTE   FINE

//**************** Track 5 (Midi-Chn.4) ****************//

GoldenSun_CaveTheme_005:
//  #05 //000   ----------------------------------------
 BYTE   KEYSH   GoldenSun_CaveTheme_key+0
Label_01172D2A:
 BYTE   VOICE   61
 BYTE   LFOS 44
 BYTE   VOL   47*GoldenSun_CaveTheme_mvl/mxv
 BYTE   PAN   c_v+0
 BYTE   W96
//  #05 //001   ----------------------------------------
 BYTE   W96
//  #05 //002   ----------------------------------------
 BYTE   W96
//  #05 //003   ----------------------------------------
 BYTE   W96
//  #05 //004   ----------------------------------------
 BYTE   W96
//  #05 //005   ----------------------------------------
 BYTE   W96
//  #05 //006   ----------------------------------------
 BYTE   W96
//  #05 //007   ----------------------------------------
 BYTE   W96
//  #05 //008   ----------------------------------------
 BYTE   W96
//  #05 //009   ----------------------------------------
 BYTE   W48
 BYTE   N11  Fn2  v092
 BYTE   N11  Bn2
 BYTE   N11  En3
 BYTE   W48
//  #05 //010   ----------------------------------------
 BYTE   W12
 BYTE   N05  Gs2
 BYTE   N05  Dn3
 BYTE   N05  Gn3
 BYTE   W06
 BYTE   An2
 BYTE   N05  Ds3
 BYTE   N05  Gs3
 BYTE   W54
 BYTE   Fs2
 BYTE   N05  Cn3
 BYTE   N05  Fn3
 BYTE   W06
 BYTE   Gn2
 BYTE   N05  Cs3
 BYTE   N05  Fs3
 BYTE   W06
 BYTE   Gs2
 BYTE   N05  Dn3
 BYTE   N05  Gn3
 BYTE   W06
 BYTE   Gs2
 BYTE   N05  Dn3
 BYTE   N05  Gn3
 BYTE   W06
//  #05 //011   ----------------------------------------
 BYTE   W06
 BYTE   Gn2
 BYTE   N05  Cs3
 BYTE   N05  Fs3
 BYTE   W06
 BYTE   Gn2
 BYTE   N05  Cs3
 BYTE   N05  Fs3
 BYTE   W12
 BYTE   N23  Fs2
 BYTE   N23  Cn3
 BYTE   N23  Fn3
 BYTE   W72
//  #05 //012   ----------------------------------------
 BYTE   W96
//  #05 //013   ----------------------------------------
 BYTE   W96
//  #05 //014   ----------------------------------------
 BYTE   W96
//  #05 //015   ----------------------------------------
 BYTE   W96
//  #05 //016   ----------------------------------------
 BYTE   W96
//  #05 //017   ----------------------------------------
 BYTE   W96
//  #05 //018   ----------------------------------------
 BYTE   N11  Fn2
 BYTE   N11  Bn2
 BYTE   N11  En3
 BYTE   W60
 BYTE   N05  Gs2
 BYTE   N05  Dn3
 BYTE   N05  Gn3
 BYTE   W06
 BYTE   An2
 BYTE   N05  Ds3
 BYTE   N05  Gs3
 BYTE   W30
//  #05 //019   ----------------------------------------
 BYTE   W24
 BYTE   Gs2
 BYTE   N05  Dn3
 BYTE   N05  Gn3
 BYTE   W06
 BYTE   An2
 BYTE   N05  Ds3
 BYTE   N05  Gs3
 BYTE   W66
//  #05 //020   ----------------------------------------
 BYTE   W96
//  #05 //021   ----------------------------------------
 BYTE   W96
//  #05 //022   ----------------------------------------
 BYTE   W96
//  #05 //023   ----------------------------------------
 BYTE   W96
//  #05 //024   ----------------------------------------
 BYTE   W96
//  #05 //025   ----------------------------------------
 BYTE   W96
//  #05 //026   ----------------------------------------
 BYTE   W96
//  #05 //027   ----------------------------------------
 BYTE   W36
 BYTE   GoTo
  POIN2 Label_01172D2A
//  #05 //028   ----------------------------------------
 BYTE   VOICE   61
 BYTE   PAN   c_v+0
 BYTE   FINE

//**************** Track 6 (Midi-Chn.5) ****************//

GoldenSun_CaveTheme_006:
//  #06 //000   ----------------------------------------
 BYTE   KEYSH   GoldenSun_CaveTheme_key+0
Label_0116F37E:
 BYTE   VOICE   73
 BYTE   LFOS 44
 BYTE   VOL   46*GoldenSun_CaveTheme_mvl/mxv
 BYTE   PAN   c_v+0
 BYTE   BENDR  40
 BYTE   W96
//  #06 //001   ----------------------------------------
 BYTE   W96
//  #06 //002   ----------------------------------------
 BYTE   W96
//  #06 //003   ----------------------------------------
 BYTE   W96
//  #06 //004   ----------------------------------------
 BYTE   W96
//  #06 //005   ----------------------------------------
 BYTE   W96
//  #06 //006   ----------------------------------------
 BYTE   W96
//  #06 //007   ----------------------------------------
 BYTE   W96
//  #06 //008   ----------------------------------------
 BYTE   W96
//  #06 //009   ----------------------------------------
 BYTE   W96
//  #06 //010   ----------------------------------------
 BYTE   W96
//  #06 //011   ----------------------------------------
 BYTE   W96
//  #06 //012   ----------------------------------------
 BYTE   W96
//  #06 //013   ----------------------------------------
 BYTE   W96
//  #06 //014   ----------------------------------------
 BYTE   W48
 BYTE   N04  En3  v108
 BYTE   W04
 BYTE   Ds3
 BYTE   W04
 BYTE   En3
 BYTE   W04
 BYTE   Ds3
 BYTE   W04
 BYTE   N54  En3
 BYTE   W32
//  #06 //015   ----------------------------------------
 BYTE   W24
 BYTE   N04  Fn3
 BYTE   W06
 BYTE   Fs3
 BYTE   W06
 BYTE   An3
 BYTE   W06
 BYTE   N48  Gs3
 BYTE   W54
//  #06 //016   ----------------------------------------
 BYTE   N44  Fs3
 BYTE   W48
 BYTE   N11  Fn3
 BYTE   W12
 BYTE   En3
 BYTE   W12
 BYTE   N32  Ds3
 BYTE   W24
//  #06 //017   ----------------------------------------
 BYTE   W12
 BYTE   An2
 BYTE   W84
//  #06 //018   ----------------------------------------
 BYTE   W96
//  #06 //019   ----------------------------------------
 BYTE   W96
//  #06 //020   ----------------------------------------
 BYTE   W96
//  #06 //021   ----------------------------------------
 BYTE   W96
//  #06 //022   ----------------------------------------
 BYTE   W96
//  #06 //023   ----------------------------------------
 BYTE   W96
//  #06 //024   ----------------------------------------
 BYTE   W96
//  #06 //025   ----------------------------------------
 BYTE   W96
//  #06 //026   ----------------------------------------
 BYTE   W96
//  #06 //027   ----------------------------------------
 BYTE   W36
 BYTE   GoTo
  POIN2 Label_0116F37E
//  #06 //028   ----------------------------------------
 BYTE   PAN   c_v+0
 BYTE   FINE

//**************** Track 7 (Midi-Chn.6) ****************//

GoldenSun_CaveTheme_007:
//  #07 //000   ----------------------------------------
 BYTE   KEYSH   GoldenSun_CaveTheme_key+0
Label_011E003A:
 BYTE   VOICE   121
 BYTE   LFOS 44
 BYTE   VOL   49*GoldenSun_CaveTheme_mvl/mxv
 BYTE   W96
//  #07 //001   ----------------------------------------
 BYTE   W96
//  #07 //002   ----------------------------------------
 BYTE   W96
//  #07 //003   ----------------------------------------
 BYTE   W96
//  #07 //004   ----------------------------------------
 BYTE   W96
//  #07 //005   ----------------------------------------
 BYTE   W96
//  #07 //006   ----------------------------------------
 BYTE   W96
//  #07 //007   ----------------------------------------
 BYTE   W96
//  #07 //008   ----------------------------------------
 BYTE   W96
//  #07 //009   ----------------------------------------
 BYTE   N05  Cn1  v127
 BYTE   W06
 BYTE   N05
 BYTE   W06
 BYTE   N05
 BYTE   W06
 BYTE   N05
 BYTE   W06
 BYTE   N05
 BYTE   W06
 BYTE   N05
 BYTE   W06
 BYTE   N05
 BYTE   W06
 BYTE   N05
 BYTE   W06
 BYTE   N11  Dn1
 BYTE   N44  Cs2  v092
 BYTE   W12
 BYTE   N05  Cn1  v127
 BYTE   W06
 BYTE   N05
 BYTE   W06
 BYTE   N05
 BYTE   W06
 BYTE   N05
 BYTE   W06
 BYTE   N05
 BYTE   W06
 BYTE   N05
 BYTE   W06
//  #07 //010   ----------------------------------------
 BYTE   N05
 BYTE   W06
 BYTE   N05
 BYTE   W06
 BYTE   Dn1
 BYTE   W06
 BYTE   N11
 BYTE   N44  Cs2  v092
 BYTE   W06
 BYTE   N05  Cn1  v127
 BYTE   W06
 BYTE   N05
 BYTE   W06
 BYTE   N05
 BYTE   W06
 BYTE   N05
 BYTE   W06
 BYTE   N05
 BYTE   W06
 BYTE   N05
 BYTE   W06
 BYTE   N05
 BYTE   W06
 BYTE   N05
 BYTE   W06
 BYTE   N11  Dn1
 BYTE   N44  Cs2  v092
 BYTE   W12
 BYTE   N03  Cn2  v127
 BYTE   W04
 BYTE   N03
 BYTE   W04
 BYTE   N03
 BYTE   W04
//  #07 //011   ----------------------------------------
 BYTE   An1
 BYTE   W04
 BYTE   N03
 BYTE   W04
 BYTE   N03
 BYTE   W04
 BYTE   Fn1
 BYTE   W04
 BYTE   N03
 BYTE   W04
 BYTE   N03
 BYTE   W04
 BYTE   N23  Dn1
 BYTE   N44  Cs2  v092
 BYTE   W72
//  #07 //012   ----------------------------------------
 BYTE   W96
//  #07 //013   ----------------------------------------
 BYTE   W96
//  #07 //014   ----------------------------------------
 BYTE   W48
 BYTE   N11  Ds2  v100
 BYTE   W12
 BYTE   N05  Ds2  v080
 BYTE   W06
 BYTE   N11  Ds2  v100
 BYTE   W12
 BYTE   N05  Ds2  v080
 BYTE   W06
 BYTE   N11
 BYTE   W12
//  #07 //015   ----------------------------------------
 BYTE   Ds2  v100
 BYTE   W12
 BYTE   N05  Ds2  v080
 BYTE   W06
 BYTE   N05
 BYTE   W06
 BYTE   N23  Ds2  v100
 BYTE   W24
 BYTE   Ds2  v080
 BYTE   W24
 BYTE   Ds2  v100
 BYTE   W24
//  #07 //016   ----------------------------------------
 BYTE   N23
 BYTE   W24
 BYTE   Ds2  v080
 BYTE   W24
 BYTE   Ds2  v100
 BYTE   W24
 BYTE   N11
 BYTE   W12
 BYTE   N05  Ds2  v080
 BYTE   W06
 BYTE   N11  Ds2  v100
 BYTE   W06
//  #07 //017   ----------------------------------------
 BYTE   W06
 BYTE   N05  Ds2  v080
 BYTE   W06
 BYTE   N11
 BYTE   W12
 BYTE   Ds2  v100
 BYTE   W12
 BYTE   N05  Ds2  v080
 BYTE   W06
 BYTE   N05
 BYTE   W06
 BYTE   Cn1  v127
 BYTE   W06
 BYTE   N05
 BYTE   W06
 BYTE   N05
 BYTE   W06
 BYTE   N05
 BYTE   W06
 BYTE   N05
 BYTE   W06
 BYTE   N05
 BYTE   W06
 BYTE   N05
 BYTE   W06
 BYTE   N05
 BYTE   W06
//  #07 //018   ----------------------------------------
 BYTE   N11  Dn1
 BYTE   N44  Cs2  v092
 BYTE   W12
 BYTE   N05  Cn1  v127
 BYTE   W06
 BYTE   N05
 BYTE   W06
 BYTE   N05
 BYTE   W06
 BYTE   N05
 BYTE   W06
 BYTE   N05
 BYTE   W06
 BYTE   N05
 BYTE   W06
 BYTE   N05
 BYTE   W06
 BYTE   N05
 BYTE   W06
 BYTE   Dn1
 BYTE   W06
 BYTE   N11
 BYTE   N44  Cs2  v092
 BYTE   W06
 BYTE   N05  Cn1  v127
 BYTE   W06
 BYTE   N05
 BYTE   W06
 BYTE   N05
 BYTE   W06
 BYTE   N05
 BYTE   W06
//  #07 //019   ----------------------------------------
 BYTE   N05
 BYTE   W06
 BYTE   N05
 BYTE   W06
 BYTE   N05
 BYTE   W06
 BYTE   N05
 BYTE   W06
 BYTE   N11  Dn1
 BYTE   N44  Cs2  v092
 BYTE   W12
 BYTE   N05  Cn1  v127
 BYTE   W06
 BYTE   Cn1  v088
 BYTE   W06
 BYTE   Cn1  v072
 BYTE   W06
 BYTE   Cn1  v048
 BYTE   W06
 BYTE   Cn1  v040
 BYTE   W06
 BYTE   Cn1  v028
 BYTE   W06
 BYTE   Cn1  v020
 BYTE   W06
 BYTE   Cn1  v012
 BYTE   W06
 BYTE   N23  Dn1  v127
 BYTE   W12
//  #07 //020   ----------------------------------------
 BYTE   N11  An1
 BYTE   W12
 BYTE   N05  Fn1
 BYTE   W06
 BYTE   N17
 BYTE   W18
 BYTE   N05  Cn1
 BYTE   W06
 BYTE   Cn1  v088
 BYTE   W06
 BYTE   Cn1  v072
 BYTE   W06
 BYTE   Cn1  v048
 BYTE   W06
 BYTE   Cn1  v040
 BYTE   W06
 BYTE   Cn1  v028
 BYTE   W06
 BYTE   Cn1  v020
 BYTE   W06
 BYTE   Cn1  v012
 BYTE   W06
 BYTE   N23  Dn1  v127
 BYTE   W12
//  #07 //021   ----------------------------------------
 BYTE   N11  An1
 BYTE   W12
 BYTE   N05  Fn1
 BYTE   W06
 BYTE   N05
 BYTE   W06
 BYTE   N08  Cn2
 BYTE   W04
 BYTE   An1
 BYTE   W04
 BYTE   Fn1
 BYTE   W04
 BYTE   N05  Cn1
 BYTE   W06
 BYTE   N05
 BYTE   W06
 BYTE   N05
 BYTE   W06
 BYTE   N05
 BYTE   W06
 BYTE   N17  Dn1
 BYTE   W18
 BYTE   N05  Cn1
 BYTE   W06
 BYTE   Dn1
 BYTE   W06
 BYTE   N05
 BYTE   W06
//  #07 //022   ----------------------------------------
 BYTE   N08  Cn2
 BYTE   W04
 BYTE   An1
 BYTE   W04
 BYTE   Fn1
 BYTE   W04
 BYTE   N11  Cn1
 BYTE   W12
 BYTE   N11
 BYTE   W12
 BYTE   N17
 BYTE   W18
 BYTE   N02
 BYTE   W03
 BYTE   N02
 BYTE   W03
 BYTE   N11  Dn1
 BYTE   N32  Cs2  v092
 BYTE   W12
 BYTE   N05  Cn1  v127
 BYTE   W06
 BYTE   N05
 BYTE   W06
 BYTE   Cn2
 BYTE   W06
 BYTE   N05
 BYTE   W06
//  #07 //023   ----------------------------------------
 BYTE   An1
 BYTE   W06
 BYTE   N05
 BYTE   W06
 BYTE   Fn1
 BYTE   W06
 BYTE   N05
 BYTE   W06
 BYTE   N03  Dn1  v088
 BYTE   W04
 BYTE   Dn1  v104
 BYTE   W04
 BYTE   Dn1  v127
 BYTE   W04
 BYTE   N11  Cn1
 BYTE   W12
 BYTE   Fn1
 BYTE   W12
 BYTE   N17  Dn1
 BYTE   W18
 BYTE   N05  Cn1  v088
 BYTE   W06
 BYTE   N11  Cn1  v127
 BYTE   W12
//  #07 //024   ----------------------------------------
Label_011E01E5:
 BYTE   N11  Fn1  v127
 BYTE   W12
 BYTE   N17  Dn1
 BYTE   W18
 BYTE   N05  Cn1  v088
 BYTE   W06
 BYTE   N11  Cn1  v127
 BYTE   W12
 BYTE   Fn1
 BYTE   W12
 BYTE   N17  Dn1
 BYTE   W18
 BYTE   N05  Cn1  v088
 BYTE   W06
 BYTE   N11  Cn1  v127
 BYTE   W12
 BYTE   PEND 
//  #07 //025   ----------------------------------------
 BYTE   PATT
  POIN2 Label_011E01E5
//  #07 //026   ----------------------------------------
 BYTE   N11  Fn1  v127
 BYTE   W12
 BYTE   N17  Dn1
 BYTE   W18
 BYTE   N05  Cn1  v088
 BYTE   W06
 BYTE   N11  Cn1  v127
 BYTE   W12
 BYTE   Fn1
 BYTE   W12
 BYTE   N17  Dn1
 BYTE   W18
 BYTE   N05  Cn1  v088
 BYTE   W06
 BYTE   Cn2  v127
 BYTE   W06
 BYTE   N05
 BYTE   W06
//  #07 //027   ----------------------------------------
 BYTE   An1
 BYTE   W06
 BYTE   N05
 BYTE   W06
 BYTE   Fn1
 BYTE   W06
 BYTE   N05
 BYTE   W06
 BYTE   An1
 BYTE   W06
 BYTE   Fn1
 BYTE   W06
 BYTE   GoTo
  POIN2 Label_011E003A
//  #07 //028   ----------------------------------------
 BYTE   VOL   49*GoldenSun_CaveTheme_mvl/mxv
 BYTE   FINE

//**************** Track 8 (Midi-Chn.7) ****************//

GoldenSun_CaveTheme_008:
//  #08 //000   ----------------------------------------
 BYTE   KEYSH   GoldenSun_CaveTheme_key+0
Label_0116F6E6:
 BYTE   VOICE   56
 BYTE   LFOS 44
 BYTE   VOL   39*GoldenSun_CaveTheme_mvl/mxv
 BYTE   PAN   c_v+6
 BYTE   PAN   c_v+6
 BYTE   VOL   39*GoldenSun_CaveTheme_mvl/mxv
 BYTE   W08
 BYTE   N10  En2  v052
 BYTE   N10  Gn2
 BYTE   W12
 BYTE   Fs2
 BYTE   N10  An2
 BYTE   W12
 BYTE   En2
 BYTE   N10  Gn2
 BYTE   W12
 BYTE   Fs2
 BYTE   N10  An2
 BYTE   W12
 BYTE   N17  En2
 BYTE   N17  Gn2
 BYTE   W24
 BYTE   N10  Ds2
 BYTE   N10  Fs2
 BYTE   W12
 BYTE   En2
 BYTE   N10  Gn2
 BYTE   W04
//  #08 //001   ----------------------------------------
 BYTE   W08
 BYTE   Ds2
 BYTE   N10  Fs2
 BYTE   W12
 BYTE   En2
 BYTE   N10  Gn2
 BYTE   W12
 BYTE   Ds2
 BYTE   N10  Fs2
 BYTE   W12
 BYTE   En2
 BYTE   N10  Gn2
 BYTE   W12
 BYTE   Fs2
 BYTE   N10  An2
 BYTE   W12
 BYTE   Gn2
 BYTE   N10  Bn2
 BYTE   W12
 BYTE   Fs2
 BYTE   N10  An2
 BYTE   W12
 BYTE   Gn2
 BYTE   N10  Bn2
 BYTE   W04
//  #08 //002   ----------------------------------------
 BYTE   W08
 BYTE   N17  Fs2
 BYTE   N17  An2
 BYTE   W24
 BYTE   N10  Fn2
 BYTE   N10  Gs2
 BYTE   W12
 BYTE   Fs2
 BYTE   N10  An2
 BYTE   W12
 BYTE   Fn2
 BYTE   N10  Gs2
 BYTE   W12
 BYTE   Fs2
 BYTE   N10  An2
 BYTE   W12
 BYTE   N15  Fn2
 BYTE   N15  Gs2
 BYTE   W16
//  #08 //003   ----------------------------------------
 BYTE   VOL   29*GoldenSun_CaveTheme_mvl/mxv
 BYTE   W01
 BYTE   PAN   c_v+16
 BYTE   W01
 BYTE   VOL   8*GoldenSun_CaveTheme_mvl/mxv
 BYTE   W09
 BYTE   N68  En3  v104
 BYTE   N44  Bn3
 BYTE   W02
 BYTE   VOL   9*GoldenSun_CaveTheme_mvl/mxv
 BYTE   W02
 BYTE   VOL   11*GoldenSun_CaveTheme_mvl/mxv
 BYTE   W02
 BYTE   VOL   14*GoldenSun_CaveTheme_mvl/mxv
 BYTE   W02
 BYTE   VOL   15*GoldenSun_CaveTheme_mvl/mxv
 BYTE   W02
 BYTE   VOL   17*GoldenSun_CaveTheme_mvl/mxv
 BYTE   W02
 BYTE   VOL   20*GoldenSun_CaveTheme_mvl/mxv
 BYTE   W02
 BYTE   VOL   22*GoldenSun_CaveTheme_mvl/mxv
 BYTE   W02
 BYTE   VOL   23*GoldenSun_CaveTheme_mvl/mxv
 BYTE   W02
 BYTE   VOL   26*GoldenSun_CaveTheme_mvl/mxv
 BYTE   W02
 BYTE   VOL   28*GoldenSun_CaveTheme_mvl/mxv
 BYTE   W02
 BYTE   VOL   30*GoldenSun_CaveTheme_mvl/mxv
 BYTE   W02
 BYTE   VOL   32*GoldenSun_CaveTheme_mvl/mxv
 BYTE   W02
 BYTE   VOL   33*GoldenSun_CaveTheme_mvl/mxv
 BYTE   W02
 BYTE   VOL   36*GoldenSun_CaveTheme_mvl/mxv
 BYTE   W02
 BYTE   VOL   37*GoldenSun_CaveTheme_mvl/mxv
 BYTE   W02
 BYTE   VOL   39*GoldenSun_CaveTheme_mvl/mxv
 BYTE   W02
 BYTE   VOL   41*GoldenSun_CaveTheme_mvl/mxv
 BYTE   W02
 BYTE   VOL   43*GoldenSun_CaveTheme_mvl/mxv
 BYTE   W02
 BYTE   VOL   45*GoldenSun_CaveTheme_mvl/mxv
 BYTE   W02
 BYTE   VOL   47*GoldenSun_CaveTheme_mvl/mxv
 BYTE   W02
 BYTE   VOL   48*GoldenSun_CaveTheme_mvl/mxv
 BYTE   W02
 BYTE   VOL   51*GoldenSun_CaveTheme_mvl/mxv
 BYTE   W02
 BYTE   VOL   51*GoldenSun_CaveTheme_mvl/mxv
 BYTE   W01
 BYTE   VOL   53*GoldenSun_CaveTheme_mvl/mxv
 BYTE   W01
 BYTE   N23  Gn3
 BYTE   W02
 BYTE   VOL   51*GoldenSun_CaveTheme_mvl/mxv
 BYTE   W02
 BYTE   VOL   48*GoldenSun_CaveTheme_mvl/mxv
 BYTE   W02
 BYTE   VOL   43*GoldenSun_CaveTheme_mvl/mxv
 BYTE   W02
 BYTE   VOL   40*GoldenSun_CaveTheme_mvl/mxv
 BYTE   W02
 BYTE   VOL   37*GoldenSun_CaveTheme_mvl/mxv
 BYTE   W02
 BYTE   VOL   34*GoldenSun_CaveTheme_mvl/mxv
 BYTE   W02
 BYTE   VOL   30*GoldenSun_CaveTheme_mvl/mxv
 BYTE   W02
 BYTE   VOL   27*GoldenSun_CaveTheme_mvl/mxv
 BYTE   W02
 BYTE   VOL   23*GoldenSun_CaveTheme_mvl/mxv
 BYTE   W02
 BYTE   VOL   19*GoldenSun_CaveTheme_mvl/mxv
 BYTE   W02
 BYTE   VOL   15*GoldenSun_CaveTheme_mvl/mxv
 BYTE   W01
 BYTE   VOL   12*GoldenSun_CaveTheme_mvl/mxv
 BYTE   W01
 BYTE   N32  Ds3
 BYTE   N32  Fs3
 BYTE   W02
 BYTE   VOL   14*GoldenSun_CaveTheme_mvl/mxv
 BYTE   W02
 BYTE   VOL   15*GoldenSun_CaveTheme_mvl/mxv
 BYTE   W02
 BYTE   VOL   18*GoldenSun_CaveTheme_mvl/mxv
 BYTE   W02
 BYTE   VOL   20*GoldenSun_CaveTheme_mvl/mxv
 BYTE   W02
 BYTE   VOL   21*GoldenSun_CaveTheme_mvl/mxv
 BYTE   W02
 BYTE   VOL   23*GoldenSun_CaveTheme_mvl/mxv
 BYTE   W01
//  #08 //004   ----------------------------------------
 BYTE   W01
 BYTE   VOL   25*GoldenSun_CaveTheme_mvl/mxv
 BYTE   W02
 BYTE   VOL   27*GoldenSun_CaveTheme_mvl/mxv
 BYTE   W02
 BYTE   VOL   29*GoldenSun_CaveTheme_mvl/mxv
 BYTE   W02
 BYTE   VOL   30*GoldenSun_CaveTheme_mvl/mxv
 BYTE   W02
 BYTE   VOL   32*GoldenSun_CaveTheme_mvl/mxv
 BYTE   W02
 BYTE   VOL   34*GoldenSun_CaveTheme_mvl/mxv
 BYTE   W02
 BYTE   VOL   36*GoldenSun_CaveTheme_mvl/mxv
 BYTE   W02
 BYTE   VOL   37*GoldenSun_CaveTheme_mvl/mxv
 BYTE   W02
 BYTE   VOL   39*GoldenSun_CaveTheme_mvl/mxv
 BYTE   W02
 BYTE   VOL   40*GoldenSun_CaveTheme_mvl/mxv
 BYTE   W02
 BYTE   VOL   43*GoldenSun_CaveTheme_mvl/mxv
 BYTE   W02
 BYTE   VOL   43*GoldenSun_CaveTheme_mvl/mxv
 BYTE   N11  En3
 BYTE   N11  Gn3
 BYTE   W02
 BYTE   VOL   46*GoldenSun_CaveTheme_mvl/mxv
 BYTE   W02
 BYTE   VOL   48*GoldenSun_CaveTheme_mvl/mxv
 BYTE   W02
 BYTE   VOL   49*GoldenSun_CaveTheme_mvl/mxv
 BYTE   W02
 BYTE   VOL   51*GoldenSun_CaveTheme_mvl/mxv
 BYTE   W02
 BYTE   VOL   53*GoldenSun_CaveTheme_mvl/mxv
 BYTE   W02
 BYTE   VOL   53*GoldenSun_CaveTheme_mvl/mxv
 BYTE   N12  Fs3
 BYTE   N12  An3
 BYTE   W13
 BYTE   VOL   29*GoldenSun_CaveTheme_mvl/mxv
 BYTE   W01
 BYTE   PAN   c_v+0
 BYTE   W10
 BYTE   N23  Bn1  v100
 BYTE   W12
 BYTE   N32  Cn2  v088
 BYTE   W12
 BYTE   N44  An2  v100
 BYTE   W13
//  #08 //005   ----------------------------------------
 BYTE   W32
 BYTE   W03
 BYTE   N23  Bn2
 BYTE   W12
 BYTE   Fn2  v088
 BYTE   W12
 BYTE   As2  v100
 BYTE   W12
 BYTE   An2  v088
 BYTE   W12
 BYTE   N12  Gs2  v100
 BYTE   W13
//  #08 //006   ----------------------------------------
 BYTE   VOL   29*GoldenSun_CaveTheme_mvl/mxv
 BYTE   W01
 BYTE   PAN   c_v+16
 BYTE   W01
 BYTE   VOL   8*GoldenSun_CaveTheme_mvl/mxv
 BYTE   W09
 BYTE   N68  En3  v112
 BYTE   N23  As3
 BYTE   W02
 BYTE   VOL   9*GoldenSun_CaveTheme_mvl/mxv
 BYTE   W02
 BYTE   VOL   10*GoldenSun_CaveTheme_mvl/mxv
 BYTE   W02
 BYTE   VOL   12*GoldenSun_CaveTheme_mvl/mxv
 BYTE   W02
 BYTE   VOL   12*GoldenSun_CaveTheme_mvl/mxv
 BYTE   W02
 BYTE   VOL   14*GoldenSun_CaveTheme_mvl/mxv
 BYTE   W02
 BYTE   VOL   15*GoldenSun_CaveTheme_mvl/mxv
 BYTE   W02
 BYTE   VOL   17*GoldenSun_CaveTheme_mvl/mxv
 BYTE   W02
 BYTE   VOL   19*GoldenSun_CaveTheme_mvl/mxv
 BYTE   W02
 BYTE   VOL   20*GoldenSun_CaveTheme_mvl/mxv
 BYTE   W02
 BYTE   VOL   21*GoldenSun_CaveTheme_mvl/mxv
 BYTE   W02
 BYTE   VOL   23*GoldenSun_CaveTheme_mvl/mxv
 BYTE   W02
 BYTE   VOL   24*GoldenSun_CaveTheme_mvl/mxv
 BYTE   N44  Bn3
 BYTE   W02
 BYTE   VOL   26*GoldenSun_CaveTheme_mvl/mxv
 BYTE   W02
 BYTE   VOL   27*GoldenSun_CaveTheme_mvl/mxv
 BYTE   W02
 BYTE   VOL   28*GoldenSun_CaveTheme_mvl/mxv
 BYTE   W02
 BYTE   VOL   29*GoldenSun_CaveTheme_mvl/mxv
 BYTE   W02
 BYTE   VOL   30*GoldenSun_CaveTheme_mvl/mxv
 BYTE   W02
 BYTE   VOL   32*GoldenSun_CaveTheme_mvl/mxv
 BYTE   W02
 BYTE   VOL   32*GoldenSun_CaveTheme_mvl/mxv
 BYTE   W02
 BYTE   VOL   35*GoldenSun_CaveTheme_mvl/mxv
 BYTE   W02
 BYTE   VOL   36*GoldenSun_CaveTheme_mvl/mxv
 BYTE   W02
 BYTE   VOL   37*GoldenSun_CaveTheme_mvl/mxv
 BYTE   W02
 BYTE   VOL   38*GoldenSun_CaveTheme_mvl/mxv
 BYTE   W02
 BYTE   VOL   40*GoldenSun_CaveTheme_mvl/mxv
 BYTE   W02
 BYTE   VOL   40*GoldenSun_CaveTheme_mvl/mxv
 BYTE   W02
 BYTE   VOL   42*GoldenSun_CaveTheme_mvl/mxv
 BYTE   W02
 BYTE   VOL   43*GoldenSun_CaveTheme_mvl/mxv
 BYTE   W02
 BYTE   VOL   43*GoldenSun_CaveTheme_mvl/mxv
 BYTE   W02
 BYTE   VOL   45*GoldenSun_CaveTheme_mvl/mxv
 BYTE   W02
 BYTE   VOL   47*GoldenSun_CaveTheme_mvl/mxv
 BYTE   W02
 BYTE   VOL   48*GoldenSun_CaveTheme_mvl/mxv
 BYTE   W02
 BYTE   VOL   49*GoldenSun_CaveTheme_mvl/mxv
 BYTE   W02
 BYTE   VOL   51*GoldenSun_CaveTheme_mvl/mxv
 BYTE   W02
 BYTE   VOL   51*GoldenSun_CaveTheme_mvl/mxv
 BYTE   W02
 BYTE   VOL   53*GoldenSun_CaveTheme_mvl/mxv
 BYTE   W01
 BYTE   VOL   53*GoldenSun_CaveTheme_mvl/mxv
 BYTE   W01
 BYTE   VOL   53*GoldenSun_CaveTheme_mvl/mxv
 BYTE   N32  Ds3
 BYTE   N32  Bn3
 BYTE   W02
 BYTE   VOL   53*GoldenSun_CaveTheme_mvl/mxv
 BYTE   W02
 BYTE   VOL   51*GoldenSun_CaveTheme_mvl/mxv
 BYTE   W02
 BYTE   VOL   49*GoldenSun_CaveTheme_mvl/mxv
 BYTE   W02
 BYTE   VOL   48*GoldenSun_CaveTheme_mvl/mxv
 BYTE   W02
 BYTE   VOL   47*GoldenSun_CaveTheme_mvl/mxv
 BYTE   W02
 BYTE   VOL   45*GoldenSun_CaveTheme_mvl/mxv
 BYTE   W01
//  #08 //007   ----------------------------------------
 BYTE   W01
 BYTE   VOL   43*GoldenSun_CaveTheme_mvl/mxv
 BYTE   W02
 BYTE   VOL   42*GoldenSun_CaveTheme_mvl/mxv
 BYTE   W02
 BYTE   VOL   40*GoldenSun_CaveTheme_mvl/mxv
 BYTE   W02
 BYTE   VOL   38*GoldenSun_CaveTheme_mvl/mxv
 BYTE   W02
 BYTE   VOL   37*GoldenSun_CaveTheme_mvl/mxv
 BYTE   W02
 BYTE   VOL   36*GoldenSun_CaveTheme_mvl/mxv
 BYTE   W02
 BYTE   VOL   33*GoldenSun_CaveTheme_mvl/mxv
 BYTE   W02
 BYTE   VOL   32*GoldenSun_CaveTheme_mvl/mxv
 BYTE   W02
 BYTE   VOL   30*GoldenSun_CaveTheme_mvl/mxv
 BYTE   W02
 BYTE   VOL   29*GoldenSun_CaveTheme_mvl/mxv
 BYTE   W02
 BYTE   VOL   27*GoldenSun_CaveTheme_mvl/mxv
 BYTE   W01
 BYTE   VOL   26*GoldenSun_CaveTheme_mvl/mxv
 BYTE   W01
 BYTE   N24  Bn2
 BYTE   N24  Fs3
 BYTE   W02
 BYTE   VOL   27*GoldenSun_CaveTheme_mvl/mxv
 BYTE   W02
 BYTE   VOL   29*GoldenSun_CaveTheme_mvl/mxv
 BYTE   W02
 BYTE   VOL   30*GoldenSun_CaveTheme_mvl/mxv
 BYTE   W02
 BYTE   VOL   32*GoldenSun_CaveTheme_mvl/mxv
 BYTE   W02
 BYTE   VOL   33*GoldenSun_CaveTheme_mvl/mxv
 BYTE   W02
 BYTE   VOL   35*GoldenSun_CaveTheme_mvl/mxv
 BYTE   W02
 BYTE   VOL   37*GoldenSun_CaveTheme_mvl/mxv
 BYTE   W02
 BYTE   VOL   38*GoldenSun_CaveTheme_mvl/mxv
 BYTE   W02
 BYTE   VOL   40*GoldenSun_CaveTheme_mvl/mxv
 BYTE   W02
 BYTE   VOL   42*GoldenSun_CaveTheme_mvl/mxv
 BYTE   W02
 BYTE   VOL   43*GoldenSun_CaveTheme_mvl/mxv
 BYTE   W02
 BYTE   VOL   44*GoldenSun_CaveTheme_mvl/mxv
 BYTE   W01
 BYTE   VOL   29*GoldenSun_CaveTheme_mvl/mxv
 BYTE   W01
 BYTE   PAN   c_v+0
 BYTE   W10
 BYTE   N11  As2  v100
 BYTE   W06
 BYTE   An2  v088
 BYTE   W06
 BYTE   Gs2  v100
 BYTE   W06
 BYTE   Gn2  v088
 BYTE   W06
 BYTE   N44  Fs2  v100
 BYTE   W13
//  #08 //008   ----------------------------------------
 BYTE   W32
 BYTE   W03
 BYTE   N23  En2
 BYTE   W12
 BYTE   As2  v088
 BYTE   W12
 BYTE   An2  v100
 BYTE   W12
 BYTE   Ds2  v088
 BYTE   W12
 BYTE   N11  Dn2  v100
 BYTE   W13
//  #08 //009   ----------------------------------------
 BYTE   VOL   53*GoldenSun_CaveTheme_mvl/mxv
 BYTE   W01
 BYTE   PAN   c_v+0
 BYTE   W01
 BYTE   N11  En2  v108
 BYTE   W12
 BYTE   N11
 BYTE   W12
 BYTE   N11
 BYTE   W12
 BYTE   N11
 BYTE   W12
 BYTE   En3
 BYTE   W12
 BYTE   En2
 BYTE   W12
 BYTE   N11
 BYTE   W12
 BYTE   N11
 BYTE   W10
//  #08 //010   ----------------------------------------
 BYTE   W02
 BYTE   N11
 BYTE   W12
 BYTE   Ds3
 BYTE   W12
 BYTE   En2
 BYTE   W12
 BYTE   N11
 BYTE   W12
 BYTE   N11
 BYTE   W12
 BYTE   N11
 BYTE   W12
 BYTE   En3
 BYTE   W12
 BYTE   N05  Ds3
 BYTE   W06
 BYTE   Bn2
 BYTE   W04
//  #08 //011   ----------------------------------------
 BYTE   W02
 BYTE   Dn3
 BYTE   W06
 BYTE   As2
 BYTE   W06
 BYTE   Cs3
 BYTE   W06
 BYTE   An2
 BYTE   W06
 BYTE   Cn3
 BYTE   W06
 BYTE   Gs2
 BYTE   W06
 BYTE   Cn3
 BYTE   W06
 BYTE   N03  Gn2
 BYTE   W04
 BYTE   VOL   34*GoldenSun_CaveTheme_mvl/mxv
 BYTE   W01
 BYTE   PAN   c_v+24
 BYTE   W10
 BYTE   N05  An2  v064
 BYTE   W06
 BYTE   As2  v052
 BYTE   W06
 BYTE   Cn3  v064
 BYTE   W06
 BYTE   An2  v052
 BYTE   W06
 BYTE   As2  v064
 BYTE   W06
 BYTE   Cn3  v052
 BYTE   W06
 BYTE   Cs3  v064
 BYTE   W01
//  #08 //012   ----------------------------------------
 BYTE   W05
 BYTE   Dn3  v052
 BYTE   W06
 BYTE   Cs3  v064
 BYTE   W06
 BYTE   As2  v052
 BYTE   W06
 BYTE   An2  v064
 BYTE   W06
 BYTE   As2  v052
 BYTE   W06
 BYTE   Bn2  v064
 BYTE   W06
 BYTE   Cn3  v052
 BYTE   W06
 BYTE   Cs3  v064
 BYTE   W06
 BYTE   Fn3  v052
 BYTE   W06
 BYTE   En3  v064
 BYTE   W06
 BYTE   Ds3  v052
 BYTE   W06
 BYTE   Dn3  v064
 BYTE   W06
 BYTE   Cs3  v052
 BYTE   W06
 BYTE   Cn3  v064
 BYTE   W06
 BYTE   Bn2  v052
 BYTE   W06
 BYTE   As2  v064
 BYTE   W01
//  #08 //013   ----------------------------------------
 BYTE   W05
 BYTE   Bn2  v052
 BYTE   W06
 BYTE   An2  v064
 BYTE   W06
 BYTE   As2  v052
 BYTE   W06
 BYTE   Cn3  v064
 BYTE   W06
 BYTE   An2  v052
 BYTE   W06
 BYTE   As2  v064
 BYTE   W06
 BYTE   Cn3  v052
 BYTE   W06
 BYTE   Bn2  v064
 BYTE   W06
 BYTE   Gs2  v052
 BYTE   W06
 BYTE   An2  v064
 BYTE   W06
 BYTE   Gn2  v052
 BYTE   W06
 BYTE   Fs2  v064
 BYTE   W06
 BYTE   Fn2  v052
 BYTE   W06
 BYTE   An2  v064
 BYTE   W06
 BYTE   As2  v052
 BYTE   W06
 BYTE   Cn3  v064
 BYTE   W01
//  #08 //014   ----------------------------------------
 BYTE   W05
 BYTE   Cs3  v052
 BYTE   W06
 BYTE   Dn3  v064
 BYTE   W06
 BYTE   Fn3  v052
 BYTE   W06
 BYTE   En3  v064
 BYTE   W06
 BYTE   Ds3  v052
 BYTE   W06
 BYTE   Cn3  v064
 BYTE   W06
 BYTE   Bn2  v052
 BYTE   W07
 BYTE   VOL   34*GoldenSun_CaveTheme_mvl/mxv
 BYTE   W01
 BYTE   PAN   c_v+0
 BYTE   W01
 BYTE   W09
 BYTE   N04  En3  v092
 BYTE   W04
 BYTE   Ds3
 BYTE   W04
 BYTE   En3
 BYTE   W04
 BYTE   Ds3
 BYTE   W04
 BYTE   N54  En3
 BYTE   W21
//  #08 //015   ----------------------------------------
 BYTE   W32
 BYTE   W03
 BYTE   N04  Fn3
 BYTE   W06
 BYTE   Fs3
 BYTE   W06
 BYTE   An3
 BYTE   W06
 BYTE   N48  Gs3
 BYTE   W42
 BYTE   W01
//  #08 //016   ----------------------------------------
 BYTE   W11
 BYTE   N44  Fs3
 BYTE   W48
 BYTE   N11  Fn3
 BYTE   W12
 BYTE   En3
 BYTE   W12
 BYTE   N32  Ds3
 BYTE   W13
//  #08 //017   ----------------------------------------
 BYTE   W23
 BYTE   N24  An2
 BYTE   W24
 BYTE   W01
 BYTE   VOL   53*GoldenSun_CaveTheme_mvl/mxv
 BYTE   W01
 BYTE   PAN   c_v+0
 BYTE   W01
 BYTE   N11  En2  v108
 BYTE   W12
 BYTE   N11
 BYTE   W12
 BYTE   N11
 BYTE   W12
 BYTE   N11
 BYTE   W10
//  #08 //018   ----------------------------------------
 BYTE   W02
 BYTE   En3
 BYTE   W12
 BYTE   En2
 BYTE   W12
 BYTE   N11
 BYTE   W12
 BYTE   N11
 BYTE   W12
 BYTE   N11
 BYTE   W12
 BYTE   Ds3
 BYTE   W12
 BYTE   En2
 BYTE   W12
 BYTE   N11
 BYTE   W10
//  #08 //019   ----------------------------------------
 BYTE   W02
 BYTE   N11
 BYTE   W12
 BYTE   N11
 BYTE   W12
 BYTE   N10  En3
 BYTE   W11
 BYTE   VOL   34*GoldenSun_CaveTheme_mvl/mxv
 BYTE   PAN   c_v+0
 BYTE   W05
 BYTE   N11  Cn3  v100
 BYTE   W12
 BYTE   En2
 BYTE   W12
 BYTE   An2
 BYTE   W12
 BYTE   Cn3
 BYTE   W12
 BYTE   En2
 BYTE   W06
//  #08 //020   ----------------------------------------
 BYTE   W06
 BYTE   An2
 BYTE   W12
 BYTE   Cn3
 BYTE   W12
 BYTE   En2
 BYTE   W12
 BYTE   Ds2
 BYTE   W12
 BYTE   An2
 BYTE   W12
 BYTE   Cn3
 BYTE   W12
 BYTE   Ds2
 BYTE   W12
 BYTE   Cn3
 BYTE   W06
//  #08 //021   ----------------------------------------
 BYTE   W06
 BYTE   Ds2
 BYTE   W12
 BYTE   An2
 BYTE   W12
 BYTE   Cn3
 BYTE   W12
 BYTE   En2
 BYTE   W12
 BYTE   An2
 BYTE   W12
 BYTE   Cn3
 BYTE   W12
 BYTE   En2
 BYTE   W12
 BYTE   Bn2
 BYTE   W06
//  #08 //022   ----------------------------------------
 BYTE   W06
 BYTE   Cn3
 BYTE   W12
 BYTE   En2
 BYTE   W12
 BYTE   Cn3
 BYTE   W12
 BYTE   Ds2
 BYTE   W12
 BYTE   An2
 BYTE   W12
 BYTE   Cn3
 BYTE   W12
 BYTE   Ds2
 BYTE   W12
 BYTE   Dn2
 BYTE   W06
//  #08 //023   ----------------------------------------
 BYTE   W06
 BYTE   Gs2
 BYTE   W12
 BYTE   Bn2
 BYTE   W12
 BYTE   Dn2
 BYTE   W12
 BYTE   Cn2
 BYTE   W12
 BYTE   En2
 BYTE   W12
 BYTE   Bn2
 BYTE   W12
 BYTE   Cn2
 BYTE   W12
 BYTE   En2
 BYTE   W06
//  #08 //024   ----------------------------------------
 BYTE   W06
 BYTE   An2
 BYTE   W12
 BYTE   Cn2
 BYTE   W12
 BYTE   En2
 BYTE   W12
 BYTE   Bn1
 BYTE   W12
 BYTE   Fs2
 BYTE   W12
 BYTE   An2
 BYTE   W12
 BYTE   Bn1
 BYTE   W12
 BYTE   Ds2
 BYTE   W06
//  #08 //025   ----------------------------------------
 BYTE   W06
 BYTE   Fs2
 BYTE   W12
 BYTE   An2
 BYTE   W12
 BYTE   Bn1
 BYTE   W12
 BYTE   An1
 BYTE   W12
 BYTE   Cn2
 BYTE   W12
 BYTE   An2
 BYTE   W12
 BYTE   An1
 BYTE   W12
 BYTE   Cn2
 BYTE   W06
//  #08 //026   ----------------------------------------
 BYTE   W06
 BYTE   Bn2
 BYTE   W12
 BYTE   An1
 BYTE   W12
 BYTE   En2
 BYTE   W12
 BYTE   Bn1
 BYTE   W12
 BYTE   Ds2
 BYTE   W12
 BYTE   Fs2
 BYTE   W12
 BYTE   Cn3
 BYTE   W12
 BYTE   Bn2
 BYTE   W06
//  #08 //027   ----------------------------------------
 BYTE   W06
 BYTE   An2
 BYTE   W12
 BYTE   Fs2
 BYTE   W12
 BYTE   N05  Ds2
 BYTE   W06
 BYTE   GoTo
  POIN2 Label_0116F6E6
//  #08 //028   ----------------------------------------
 BYTE   VOL   39*GoldenSun_CaveTheme_mvl/mxv
 BYTE   PAN   c_v+6
 BYTE   FINE

//******************************************************//
	ALIGN 4

GoldenSun_CaveTheme:
	BYTE	8	// NumTrks
	BYTE	0	// NumBlks
	BYTE	GoldenSun_CaveTheme_pri	// Priority
	BYTE	GoldenSun_CaveTheme_rev	// Reverb.
    
	POIN2	GoldenSun_CaveTheme_grp
    
	POIN2	GoldenSun_CaveTheme_001
	POIN2	GoldenSun_CaveTheme_002
	POIN2	GoldenSun_CaveTheme_003
	POIN2	GoldenSun_CaveTheme_004
	POIN2	GoldenSun_CaveTheme_005
	POIN2	GoldenSun_CaveTheme_006
	POIN2	GoldenSun_CaveTheme_007
	POIN2	GoldenSun_CaveTheme_008

	
