//Event file generated from Sappy .s format.
	#include "MPlayDef.event"

	#define	GoldenSunDarkDawnBattle1MrGreen3339_grp  voicegroup000
	#define	GoldenSunDarkDawnBattle1MrGreen3339_pri  0
	#define	GoldenSunDarkDawnBattle1MrGreen3339_rev  0
	#define	GoldenSunDarkDawnBattle1MrGreen3339_mvl  127
	#define	GoldenSunDarkDawnBattle1MrGreen3339_key  0
	#define	GoldenSunDarkDawnBattle1MrGreen3339_tbs  1
	#define	GoldenSunDarkDawnBattle1MrGreen3339_exg  0
	#define	GoldenSunDarkDawnBattle1MrGreen3339_cmp  1

	// .rodata
	//	GoldenSunDarkDawnBattle1MrGreen3339
	ALIGN 4


//**************** Track 1 (Midi-Chn.0) ****************//

GoldenSunDarkDawnBattle1MrGreen3339_001:
// 000   ----------------------------------------
 BYTE   KEYSH   GoldenSunDarkDawnBattle1MrGreen3339_key+0
 BYTE   TEMPO   122*GoldenSunDarkDawnBattle1MrGreen3339_tbs/2
 BYTE   VOICE   48
 BYTE   VOL   54*GoldenSunDarkDawnBattle1MrGreen3339_mvl/mxv
 BYTE   PAN   c_v+0
 BYTE   N44  Bn2  v104
 BYTE   N44  Fn3
 BYTE   W48
Label_0_0144D430:
 BYTE   N44  Gn4  v112
 BYTE   W48
// 001   ----------------------------------------
 BYTE   N11  Fs4
 BYTE   W12
 BYTE   En4
 BYTE   W12
 BYTE   Fs4
 BYTE   W12
 BYTE   Gn4
 BYTE   W12
 BYTE   N17  Bn4
 BYTE   W18
 BYTE   N28  Dn4
 BYTE   W30
// 002   ----------------------------------------
 BYTE   N11  Bn3
 BYTE   W12
 BYTE   Cn4
 BYTE   W12
 BYTE   Dn4
 BYTE   W12
 BYTE   Fs4
 BYTE   W12
 BYTE   N17  Gn4
 BYTE   W18
 BYTE   Fs4
 BYTE   W18
 BYTE   N11  Gn4
 BYTE   W12
// 003   ----------------------------------------
 BYTE   En4
 BYTE   W12
 BYTE   Fs4
 BYTE   W12
 BYTE   Gn4
 BYTE   W12
 BYTE   An4
 BYTE   W12
 BYTE   N44  Bn4
 BYTE   W48
// 004   ----------------------------------------
 BYTE   N23  Fs4
 BYTE   W24
 BYTE   Bn3
 BYTE   W24
 BYTE   N44  En4
 BYTE   W48
// 005   ----------------------------------------
 BYTE   N17  Fs4
 BYTE   W18
 BYTE   Gn4
 BYTE   W18
 BYTE   N11  An4
 BYTE   W12
 BYTE   N17  Gn4
 BYTE   W18
 BYTE   Fs4
 BYTE   W18
 BYTE   N11  Gn4
 BYTE   W12
// 006   ----------------------------------------
 BYTE   N23  An4
 BYTE   W24
 BYTE   Bn4
 BYTE   W24
 BYTE   N17  Dn5
 BYTE   W18
 BYTE   Cn5
 BYTE   W18
 BYTE   N11  Bn4
 BYTE   W12
// 007   ----------------------------------------
 BYTE   N17  Cn5
 BYTE   W18
 BYTE   Bn4
 BYTE   W18
 BYTE   N11  An4
 BYTE   W12
 BYTE   N17  Gn4
 BYTE   W18
 BYTE   Cn5
 BYTE   W18
 BYTE   N11  Dn5
 BYTE   W12
// 008   ----------------------------------------
 BYTE   N44  Bn4
 BYTE   W96
// 009   ----------------------------------------
 BYTE   W96
// 010   ----------------------------------------
 BYTE   W96
// 011   ----------------------------------------
 BYTE   W96
// 012   ----------------------------------------
 BYTE   W96
// 013   ----------------------------------------
 BYTE   W96
// 014   ----------------------------------------
 BYTE   W96
// 015   ----------------------------------------
 BYTE   W96
// 016   ----------------------------------------
 BYTE   W48
 BYTE   N06  An4
 BYTE   W24
 BYTE   N06
 BYTE   W24
// 017   ----------------------------------------
Label_0_0144D4A4:
 BYTE   N06  An4  v112
 BYTE   W24
 BYTE   N06
 BYTE   W24
 BYTE   N06
 BYTE   W24
 BYTE   N06
 BYTE   W24
 BYTE   PEND 
 BYTE   PATT
  POIN2 Label_0_0144D4A4
 BYTE   PATT
  POIN2 Label_0_0144D4A4
// 018   ----------------------------------------
 BYTE   N06  An4  v112
 BYTE   W24
 BYTE   N06
 BYTE   W72
// 019   ----------------------------------------
 BYTE   W96
// 020   ----------------------------------------
 BYTE   W96
// 021   ----------------------------------------
 BYTE   W96
// 022   ----------------------------------------
 BYTE   W96
// 023   ----------------------------------------
 BYTE   W96
// 024   ----------------------------------------
 BYTE   W96
// 025   ----------------------------------------
 BYTE   W48
 BYTE   N17  An3  v127
 BYTE   W18
 BYTE   Bn3
 BYTE   W18
 BYTE   N11  Cn4
 BYTE   W12
// 026   ----------------------------------------
 BYTE   N23  Bn3
 BYTE   W24
 BYTE   An3
 BYTE   W72
// 027   ----------------------------------------
 BYTE   W96
// 028   ----------------------------------------
 BYTE   W48
 BYTE   N44  Bn3  v116
 BYTE   W48
// 029   ----------------------------------------
 BYTE   N23  En4
 BYTE   W24
 BYTE   Fs4
 BYTE   W24
 BYTE   N44  Bn4
 BYTE   W48
// 030   ----------------------------------------
 BYTE   N23  Fs4
 BYTE   W24
 BYTE   Bn4
 BYTE   W72
// 031   ----------------------------------------
 BYTE   W96
// 032   ----------------------------------------
 BYTE   W96
// 033   ----------------------------------------
 BYTE   W96
// 034   ----------------------------------------
 BYTE   W48
 BYTE   TIE  Bn4  v088
 BYTE   W48
// 035   ----------------------------------------
 BYTE   W92
 BYTE   W03
 BYTE   EOT
 BYTE   W01
// 036   ----------------------------------------
 BYTE   N23  An4
 BYTE   W24
 BYTE   N11  Bn4
 BYTE   W12
 BYTE   Cn5
 BYTE   W12
 BYTE   TIE  Dn5
 BYTE   W48
// 037   ----------------------------------------
 BYTE   W92
 BYTE   W03
 BYTE   EOT
 BYTE   W01
// 038   ----------------------------------------
 BYTE   N44  Cn5
 BYTE   W44
 BYTE   W03
 BYTE   GoTo
  POIN2 Label_0_0144D430
 BYTE   FINE

//**************** Track 2 (Midi-Chn.1) ****************//

GoldenSunDarkDawnBattle1MrGreen3339_002:
// 000   ----------------------------------------
 BYTE   KEYSH   GoldenSunDarkDawnBattle1MrGreen3339_key+0
 BYTE   VOICE   81
 BYTE   VOL   51*GoldenSunDarkDawnBattle1MrGreen3339_mvl/mxv
 BYTE   PAN   c_v+0
 BYTE   BEND   c_v-4
 BYTE   N04  Gs2  v116
 BYTE   W06
 BYTE   En3
 BYTE   W06
 BYTE   Gs3
 BYTE   W06
 BYTE   Bn3
 BYTE   W06
 BYTE   Dn4
 BYTE   W06
 BYTE   Fn4
 BYTE   W06
 BYTE   Gs4
 BYTE   W06
 BYTE   Bn4
 BYTE   W06
Label_1_0144D528:
 BYTE   N44  Bn2  v092
 BYTE   N44  Gn3
 BYTE   W48
// 001   ----------------------------------------
 BYTE   En3
 BYTE   N44  Bn3
 BYTE   W48
 BYTE   N92  Dn3
 BYTE   N92  Fs3
 BYTE   W48
// 002   ----------------------------------------
 BYTE   W48
 BYTE   N44  Cn3
 BYTE   N44  Gn3
 BYTE   W48
// 003   ----------------------------------------
 BYTE   En3
 BYTE   N44  Bn3
 BYTE   W48
 BYTE   N17  Ds3
 BYTE   N17  Bn3
 BYTE   W18
 BYTE   Bn2
 BYTE   N17  Fs3
 BYTE   W18
 BYTE   N11  Ds3
 BYTE   N11  Bn3
 BYTE   W12
// 004   ----------------------------------------
 BYTE   N17  Bn2
 BYTE   N17  Ds3
 BYTE   W18
 BYTE   Bn2
 BYTE   N17  En3
 BYTE   W18
 BYTE   N11  Bn2
 BYTE   N11  Fs3
 BYTE   W12
 BYTE   N44  En3
 BYTE   N44  Gn3
 BYTE   W48
// 005   ----------------------------------------
 BYTE   Dn3
 BYTE   N44  Fs3
 BYTE   W48
 BYTE   N92  Cn3
 BYTE   N92  En3
 BYTE   W48
// 006   ----------------------------------------
 BYTE   W48
 BYTE   N04  Dn3
 BYTE   W06
 BYTE   Fs3
 BYTE   W06
 BYTE   An3
 BYTE   W06
 BYTE   Dn4
 BYTE   W06
 BYTE   Fs4
 BYTE   W06
 BYTE   Dn4
 BYTE   W06
 BYTE   An3
 BYTE   W06
 BYTE   Fs3
 BYTE   W06
// 007   ----------------------------------------
 BYTE   Cn3
 BYTE   W06
 BYTE   Fn3
 BYTE   W06
 BYTE   An3
 BYTE   W06
 BYTE   Cn4
 BYTE   W06
 BYTE   Fn4
 BYTE   W06
 BYTE   Cn4
 BYTE   W06
 BYTE   An3
 BYTE   W06
 BYTE   Fn3
 BYTE   W06
 BYTE   Gn3
 BYTE   W06
 BYTE   Cn4
 BYTE   W06
 BYTE   Dn4
 BYTE   W06
 BYTE   Gn4
 BYTE   W06
 BYTE   Cn5
 BYTE   W06
 BYTE   Dn5
 BYTE   W06
 BYTE   Gn5
 BYTE   W06
 BYTE   Dn5
 BYTE   W06
// 008   ----------------------------------------
 BYTE   Bn4
 BYTE   W06
 BYTE   Dn5
 BYTE   W06
 BYTE   Gn4
 BYTE   W06
 BYTE   Bn4
 BYTE   W06
 BYTE   Dn4
 BYTE   W06
 BYTE   Gn4
 BYTE   W06
 BYTE   Bn3
 BYTE   W06
 BYTE   Dn4
 BYTE   W06
 BYTE   N08  Fn3  v100
 BYTE   N08  An3
 BYTE   N08  Cn4
 BYTE   W18
 BYTE   Fn3
 BYTE   N08  An3
 BYTE   N08  Bn3
 BYTE   W18
 BYTE   Fn3
 BYTE   N08  An3
 BYTE   N08  Cn4
 BYTE   W12
// 009   ----------------------------------------
 BYTE   W06
 BYTE   Fn3
 BYTE   N08  An3
 BYTE   N08  Bn3
 BYTE   W18
 BYTE   Fn3
 BYTE   N08  An3
 BYTE   N08  Cn4
 BYTE   W12
 BYTE   Fn3
 BYTE   N08  An3
 BYTE   N08  Bn3
 BYTE   W12
 BYTE   Fn3
 BYTE   N08  An3
 BYTE   N08  Cn4
 BYTE   W18
 BYTE   Fn3
 BYTE   N08  An3
 BYTE   N08  Bn3
 BYTE   W18
 BYTE   Fn3
 BYTE   N08  An3
 BYTE   N08  Cn4
 BYTE   W12
// 010   ----------------------------------------
 BYTE   W06
 BYTE   Fn3
 BYTE   N08  An3
 BYTE   N08  Bn3
 BYTE   W18
 BYTE   Fn3
 BYTE   N08  An3
 BYTE   N08  Cn4
 BYTE   W12
 BYTE   Fn3
 BYTE   N08  An3
 BYTE   N08  Bn3
 BYTE   W12
 BYTE   En3
 BYTE   N08  Gn3
 BYTE   N08  Cn4
 BYTE   W18
 BYTE   En3
 BYTE   N08  Gn3
 BYTE   N08  Bn3
 BYTE   W18
 BYTE   En3
 BYTE   N08  Gn3
 BYTE   N08  Cn4
 BYTE   W12
// 011   ----------------------------------------
 BYTE   W06
 BYTE   En3
 BYTE   N08  Gn3
 BYTE   N08  Bn3
 BYTE   W18
 BYTE   En3
 BYTE   N08  Gn3
 BYTE   N08  Cn4
 BYTE   W12
 BYTE   En3
 BYTE   N08  Gn3
 BYTE   N08  Bn3
 BYTE   W12
 BYTE   Dn3
 BYTE   N08  Gn3
 BYTE   N08  Cn4
 BYTE   W18
 BYTE   Dn3
 BYTE   N08  Gn3
 BYTE   N08  Bn3
 BYTE   W18
 BYTE   Dn3
 BYTE   N08  Gn3
 BYTE   N08  Cn4
 BYTE   W12
// 012   ----------------------------------------
 BYTE   W06
 BYTE   Dn3
 BYTE   N08  Gn3
 BYTE   N08  Bn3
 BYTE   W18
 BYTE   Dn3
 BYTE   N08  Gn3
 BYTE   N08  Cn4
 BYTE   W12
 BYTE   Dn3
 BYTE   N08  Gn3
 BYTE   N08  Bn3
 BYTE   W12
 BYTE   Fn3
 BYTE   N08  Cn4
 BYTE   W18
 BYTE   Fn3
 BYTE   N08  Bn3
 BYTE   W18
 BYTE   Fn3
 BYTE   N08  Cn4
 BYTE   W12
// 013   ----------------------------------------
 BYTE   W06
 BYTE   Fn3
 BYTE   N08  Bn3
 BYTE   W18
 BYTE   Fn3
 BYTE   N08  Cn4
 BYTE   W12
 BYTE   Fn3
 BYTE   N08  Bn3
 BYTE   W12
 BYTE   Fn3
 BYTE   N08  Cn4
 BYTE   W18
 BYTE   Fn3
 BYTE   N08  Bn3
 BYTE   W18
 BYTE   Fn3
 BYTE   N08  Cn4
 BYTE   W12
// 014   ----------------------------------------
 BYTE   W06
 BYTE   Fn3
 BYTE   N08  Bn3
 BYTE   W18
 BYTE   Fn3
 BYTE   N08  Cn4
 BYTE   W12
 BYTE   Fn3
 BYTE   N08  Bn3
 BYTE   W12
 BYTE   En3
 BYTE   N08  Cn4
 BYTE   W18
 BYTE   En3
 BYTE   N08  Bn3
 BYTE   W18
 BYTE   En3
 BYTE   N08  Cn4
 BYTE   W12
// 015   ----------------------------------------
 BYTE   W06
 BYTE   En3
 BYTE   N08  Bn3
 BYTE   W18
 BYTE   En3
 BYTE   N08  Cn4
 BYTE   W12
 BYTE   En3
 BYTE   N08  Bn3
 BYTE   W12
 BYTE   Dn3
 BYTE   N08  Cn4
 BYTE   W18
 BYTE   Dn3
 BYTE   N08  Bn3
 BYTE   W18
 BYTE   Dn3
 BYTE   N08  Cn4
 BYTE   W12
// 016   ----------------------------------------
 BYTE   W06
 BYTE   Dn3
 BYTE   N08  Bn3
 BYTE   W18
 BYTE   Dn3
 BYTE   N08  Cn4
 BYTE   W12
 BYTE   Dn3
 BYTE   N08  Bn3
 BYTE   W12
 BYTE   N15  An3
 BYTE   N15  Dn4
 BYTE   W18
 BYTE   N10  An3
 BYTE   N10  Cs4
 BYTE   W30
// 017   ----------------------------------------
Label_1_0144D6B1:
 BYTE   W24
 BYTE   N08  An3  v100
 BYTE   N08  Dn4
 BYTE   W12
 BYTE   An3
 BYTE   N08  Cs4
 BYTE   W12
 BYTE   N15  An3
 BYTE   N15  Dn4
 BYTE   W18
 BYTE   N10  An3
 BYTE   N10  Cs4
 BYTE   W30
 BYTE   PEND 
// 018   ----------------------------------------
Label_1_0144D6C7:
 BYTE   W24
 BYTE   N08  An3  v100
 BYTE   N08  Dn4
 BYTE   W12
 BYTE   An3
 BYTE   N08  Cs4
 BYTE   W12
 BYTE   N15  Gn3
 BYTE   N15  Cn4
 BYTE   W18
 BYTE   N10  Gn3
 BYTE   N10  Bn3
 BYTE   W30
 BYTE   PEND 
// 019   ----------------------------------------
Label_1_0144D6DD:
 BYTE   W24
 BYTE   N08  Gn3  v100
 BYTE   N08  Cn4
 BYTE   W12
 BYTE   Gn3
 BYTE   N08  Bn3
 BYTE   W12
 BYTE   N15  Gn3
 BYTE   N15  Cn4
 BYTE   W18
 BYTE   N10  Gn3
 BYTE   N10  Bn3
 BYTE   W30
 BYTE   PEND 
// 020   ----------------------------------------
 BYTE   W24
 BYTE   N08  Gn3
 BYTE   N08  Cn4
 BYTE   W12
 BYTE   Gn3
 BYTE   N08  Bn3
 BYTE   W12
 BYTE   N15  An3
 BYTE   N15  Dn4
 BYTE   W18
 BYTE   N10  An3
 BYTE   N10  Cs4
 BYTE   W30
 BYTE   PATT
  POIN2 Label_1_0144D6B1
 BYTE   PATT
  POIN2 Label_1_0144D6C7
 BYTE   PATT
  POIN2 Label_1_0144D6DD
// 021   ----------------------------------------
 BYTE   W24
 BYTE   N08  Gn3  v100
 BYTE   N08  Cn4
 BYTE   W12
 BYTE   Gn3
 BYTE   N08  Bn3
 BYTE   W12
 BYTE   N17  Fn3  v112
 BYTE   N17  An3
 BYTE   W18
 BYTE   Gn3
 BYTE   N17  Bn3
 BYTE   W18
 BYTE   N32  An3
 BYTE   N32  Cn4
 BYTE   W12
// 022   ----------------------------------------
 BYTE   W24
 BYTE   N11  Gn3
 BYTE   N11  Bn3
 BYTE   W12
 BYTE   An3
 BYTE   N11  Cn4
 BYTE   W12
 BYTE   N17
 BYTE   N17  En4
 BYTE   W18
 BYTE   Bn3
 BYTE   N17  Dn4
 BYTE   W18
 BYTE   N32  An3
 BYTE   N32  Cn4
 BYTE   W12
// 023   ----------------------------------------
 BYTE   W24
 BYTE   N11  Gn3
 BYTE   N11  Bn3
 BYTE   W12
 BYTE   An3
 BYTE   N11  Cn4
 BYTE   W12
 BYTE   N15  Gn3
 BYTE   N15  Cn4
 BYTE   W18
 BYTE   N15
 BYTE   N15  En4
 BYTE   W18
 BYTE   N10
 BYTE   N10  Gn4
 BYTE   W12
// 024   ----------------------------------------
 BYTE   N15  Dn4
 BYTE   N15  Fs4
 BYTE   W18
 BYTE   En4
 BYTE   N15  Gn4
 BYTE   W18
 BYTE   N10  Fs4
 BYTE   N10  An4
 BYTE   W12
 BYTE   N15  Fs4
 BYTE   N15  An4
 BYTE   W18
 BYTE   Fs4
 BYTE   N15  Bn4
 BYTE   W18
 BYTE   N10  Fs4
 BYTE   N10  Cn5
 BYTE   W12
// 025   ----------------------------------------
 BYTE   N23  Gn4
 BYTE   N23  Bn4
 BYTE   W24
 BYTE   Fs4
 BYTE   N23  An4
 BYTE   W24
 BYTE   N15  En4
 BYTE   N15  Gn4
 BYTE   W18
 BYTE   Dn4
 BYTE   N15  Fs4
 BYTE   W18
 BYTE   N30  Cn4
 BYTE   N30  En4
 BYTE   W12
// 026   ----------------------------------------
 BYTE   W24
 BYTE   N10
 BYTE   N10  Gn4
 BYTE   W12
 BYTE   Dn4
 BYTE   N10  Fs4
 BYTE   W12
 BYTE   N15
 BYTE   N15  An4
 BYTE   W18
 BYTE   En4
 BYTE   N15  Gn4
 BYTE   W18
 BYTE   N56  Dn4
 BYTE   N56  Fs4
 BYTE   W12
// 027   ----------------------------------------
 BYTE   W48
 BYTE   N04  En4
 BYTE   N04  Fs4
 BYTE   N04  Bn4
 BYTE   W06
 BYTE   En4
 BYTE   N04  Fs4
 BYTE   N04  Bn4
 BYTE   W12
 BYTE   En4
 BYTE   N04  Fs4
 BYTE   N04  Bn4
 BYTE   W06
 BYTE   En4
 BYTE   N04  Fs4
 BYTE   N04  Bn4
 BYTE   W12
 BYTE   En4
 BYTE   N04  Fs4
 BYTE   N04  Bn4
 BYTE   W06
 BYTE   En4
 BYTE   N04  Fs4
 BYTE   N04  Bn4
 BYTE   W06
// 028   ----------------------------------------
 BYTE   W06
 BYTE   En4
 BYTE   N04  Fs4
 BYTE   N04  Bn4
 BYTE   W06
 BYTE   En4
 BYTE   N04  Fs4
 BYTE   N04  Bn4
 BYTE   W12
 BYTE   N05  En4
 BYTE   N05  Fs4
 BYTE   N05  Bn4
 BYTE   W12
 BYTE   En4
 BYTE   N05  Fs4
 BYTE   N05  Bn4
 BYTE   W12
 BYTE   N04  En4
 BYTE   N04  Fs4
 BYTE   N04  Bn4
 BYTE   W06
 BYTE   En4
 BYTE   N04  Fs4
 BYTE   N04  Bn4
 BYTE   W12
 BYTE   En4
 BYTE   N04  Fs4
 BYTE   N04  Bn4
 BYTE   W06
 BYTE   En4
 BYTE   N04  Fs4
 BYTE   N04  Bn4
 BYTE   W12
 BYTE   En4
 BYTE   N04  Fs4
 BYTE   N04  Bn4
 BYTE   W06
 BYTE   En4
 BYTE   N04  Fs4
 BYTE   N04  Bn4
 BYTE   W06
// 029   ----------------------------------------
 BYTE   W06
 BYTE   En4
 BYTE   N04  Fs4
 BYTE   N04  Bn4
 BYTE   W06
 BYTE   En4
 BYTE   N04  Fs4
 BYTE   N04  Bn4
 BYTE   W12
 BYTE   N05  En4
 BYTE   N05  Fs4
 BYTE   N05  Bn4
 BYTE   W12
 BYTE   En4
 BYTE   N05  Fs4
 BYTE   N05  Bn4
 BYTE   W12
 BYTE   N84  Cn3
 BYTE   N84  En3
 BYTE   N84  Gn3
 BYTE   W48
// 030   ----------------------------------------
Label_1_0144D82D:
 BYTE   W48
 BYTE   BEND   c_v-64
 BYTE   W01
 BYTE   N42  En3  v112
 BYTE   N42  Gn3
 BYTE   N42  Bn3
 BYTE   W01
 BYTE   BEND   c_v-56
 BYTE   W01
 BYTE   CsM1
 BYTE   W01
 BYTE   GnM1
 BYTE   W01
 BYTE   BnM1
 BYTE   W01
 BYTE   Ds0
 BYTE   W01
 BYTE   Gn0
 BYTE   W01
 BYTE   As0
 BYTE   W01
 BYTE   En1
 BYTE   W01
 BYTE   Fs1
 BYTE   W01
 BYTE   Gs1
 BYTE   W01
 BYTE   As1
 BYTE   W01
 BYTE   Cn2
 BYTE   W01
 BYTE   Cs2
 BYTE   W01
 BYTE   Dn2
 BYTE   W01
 BYTE   En2
 BYTE   W01
 BYTE   Fn2
 BYTE   W02
 BYTE   Fs2
 BYTE   W01
 BYTE   Gn2
 BYTE   W01
 BYTE   Gs2
 BYTE   W02
 BYTE   An2
 BYTE   W03
 BYTE   As2
 BYTE   W03
 BYTE   Bn2
 BYTE   W05
 BYTE   Cn3
 BYTE   W14
 BYTE   PEND 
// 031   ----------------------------------------
Label_1_0144D869:
 BYTE   N42  Dn3  v112
 BYTE   N42  Fs3
 BYTE   N42  An3
 BYTE   W48
 BYTE   N84  En3
 BYTE   N84  Gn3
 BYTE   N84  Bn3
 BYTE   W48
 BYTE   PEND 
// 032   ----------------------------------------
Label_1_0144D879:
 BYTE   W48
 BYTE   BEND   c_v-60
 BYTE   W01
 BYTE   N42  Gn3  v112
 BYTE   N42  As3
 BYTE   N42  Dn4
 BYTE   W01
 BYTE   BEND   c_v-53
 BYTE   W01
 BYTE   FnM1
 BYTE   W01
 BYTE   AsM1
 BYTE   W01
 BYTE   Dn0
 BYTE   W01
 BYTE   Fn0
 BYTE   W01
 BYTE   An0
 BYTE   W01
 BYTE   Cn1
 BYTE   W01
 BYTE   Ds1
 BYTE   W01
 BYTE   Fn1
 BYTE   W01
 BYTE   Gn1
 BYTE   W01
 BYTE   An1
 BYTE   W01
 BYTE   Bn1
 BYTE   W01
 BYTE   Cs2
 BYTE   W01
 BYTE   Dn2
 BYTE   W01
 BYTE   Ds2
 BYTE   W01
 BYTE   En2
 BYTE   W01
 BYTE   Fn2
 BYTE   W01
 BYTE   Gn2
 BYTE   W02
 BYTE   Gs2
 BYTE   W02
 BYTE   An2
 BYTE   W02
 BYTE   As2
 BYTE   W03
 BYTE   Bn2
 BYTE   W06
 BYTE   Cn3
 BYTE   W14
 BYTE   PEND 
// 033   ----------------------------------------
 BYTE   N42  Fn3
 BYTE   N42  An3
 BYTE   N42  Cn4
 BYTE   W48
 BYTE   N84  Cn3
 BYTE   N84  En3
 BYTE   N84  Gn3
 BYTE   W48
 BYTE   PATT
  POIN2 Label_1_0144D82D
 BYTE   PATT
  POIN2 Label_1_0144D869
 BYTE   PATT
  POIN2 Label_1_0144D879
// 034   ----------------------------------------
 BYTE   N42  Fn3  v112
 BYTE   N42  An3
 BYTE   N42  Cn4
 BYTE   W44
 BYTE   W03
 BYTE   GoTo
  POIN2 Label_1_0144D528
 BYTE   FINE

//**************** Track 3 (Midi-Chn.2) ****************//

GoldenSunDarkDawnBattle1MrGreen3339_003:
// 000   ----------------------------------------
 BYTE   KEYSH   GoldenSunDarkDawnBattle1MrGreen3339_key+0
 BYTE   VOICE   48
 BYTE   VOL   51*GoldenSunDarkDawnBattle1MrGreen3339_mvl/mxv
 BYTE   PAN   c_v+0
 BYTE   W48
Label_2_0144D8ED:
 BYTE   W48
// 001   ----------------------------------------
 BYTE   W96
// 002   ----------------------------------------
 BYTE   W96
// 003   ----------------------------------------
 BYTE   W96
// 004   ----------------------------------------
 BYTE   W96
// 005   ----------------------------------------
 BYTE   W96
// 006   ----------------------------------------
 BYTE   W48
 BYTE   N17  An3  v124
 BYTE   W18
 BYTE   N28  Dn3
 BYTE   W30
// 007   ----------------------------------------
 BYTE   N17  Cn3
 BYTE   W18
 BYTE   Fn3
 BYTE   W18
 BYTE   N11  An3
 BYTE   W12
 BYTE   N92  Gn3
 BYTE   W48
// 008   ----------------------------------------
 BYTE   W48
 BYTE   TIE  An4  v072
 BYTE   W48
// 009   ----------------------------------------
 BYTE   W96
// 010   ----------------------------------------
 BYTE   W80
 BYTE   W03
 BYTE   EOT
 BYTE   W01
 BYTE   TIE  Gn4
 BYTE   W12
// 011   ----------------------------------------
 BYTE   W96
// 012   ----------------------------------------
 BYTE   W44
 BYTE   W03
 BYTE   EOT
 BYTE   W01
 BYTE   TIE  An4
 BYTE   W48
// 013   ----------------------------------------
 BYTE   W96
// 014   ----------------------------------------
 BYTE   W80
 BYTE   W03
 BYTE   EOT
 BYTE   W01
 BYTE   TIE  Gn4
 BYTE   W12
// 015   ----------------------------------------
 BYTE   W92
 BYTE   W03
 BYTE   EOT
 BYTE   W01
// 016   ----------------------------------------
 BYTE   N44  Dn5
 BYTE   W96
// 017   ----------------------------------------
 BYTE   W96
// 018   ----------------------------------------
 BYTE   W96
// 019   ----------------------------------------
 BYTE   W96
// 020   ----------------------------------------
 BYTE   W96
// 021   ----------------------------------------
 BYTE   W96
// 022   ----------------------------------------
 BYTE   W96
// 023   ----------------------------------------
 BYTE   W96
// 024   ----------------------------------------
 BYTE   W96
// 025   ----------------------------------------
 BYTE   W96
// 026   ----------------------------------------
 BYTE   W96
// 027   ----------------------------------------
 BYTE   W96
// 028   ----------------------------------------
 BYTE   W96
// 029   ----------------------------------------
 BYTE   W96
// 030   ----------------------------------------
 BYTE   W96
// 031   ----------------------------------------
 BYTE   W96
// 032   ----------------------------------------
 BYTE   W96
// 033   ----------------------------------------
 BYTE   W96
// 034   ----------------------------------------
 BYTE   W96
// 035   ----------------------------------------
 BYTE   W96
// 036   ----------------------------------------
 BYTE   W96
// 037   ----------------------------------------
 BYTE   W96
// 038   ----------------------------------------
 BYTE   W96
// 039   ----------------------------------------
 BYTE   W96
// 040   ----------------------------------------
 BYTE   W44
 BYTE   W03
 BYTE   GoTo
  POIN2 Label_2_0144D8ED
 BYTE   FINE

//**************** Track 4 (Midi-Chn.3) ****************//

GoldenSunDarkDawnBattle1MrGreen3339_004:
// 000   ----------------------------------------
 BYTE   KEYSH   GoldenSunDarkDawnBattle1MrGreen3339_key+0
 BYTE   VOICE   70
 BYTE   VOL   51*GoldenSunDarkDawnBattle1MrGreen3339_mvl/mxv
 BYTE   PAN   c_v+0
 BYTE   W48
Label_3_0144D955:
 BYTE   W48
// 001   ----------------------------------------
 BYTE   W96
// 002   ----------------------------------------
 BYTE   W96
// 003   ----------------------------------------
 BYTE   W96
// 004   ----------------------------------------
 BYTE   W96
// 005   ----------------------------------------
 BYTE   W96
// 006   ----------------------------------------
 BYTE   W96
// 007   ----------------------------------------
 BYTE   W96
// 008   ----------------------------------------
 BYTE   W96
// 009   ----------------------------------------
 BYTE   W96
// 010   ----------------------------------------
 BYTE   W96
// 011   ----------------------------------------
 BYTE   W96
// 012   ----------------------------------------
 BYTE   W48
 BYTE   N04  An3  v092
 BYTE   W06
 BYTE   Bn3
 BYTE   W06
 BYTE   Cn4
 BYTE   W06
 BYTE   An3
 BYTE   W06
 BYTE   En4
 BYTE   W06
 BYTE   Dn4
 BYTE   W06
 BYTE   Cn4
 BYTE   W06
 BYTE   Bn3
 BYTE   W06
// 013   ----------------------------------------
 BYTE   Cn4
 BYTE   W06
 BYTE   An3
 BYTE   W06
 BYTE   Bn3
 BYTE   W06
 BYTE   Gn3
 BYTE   W06
 BYTE   An3
 BYTE   W06
 BYTE   Fn3
 BYTE   W06
 BYTE   Gn3
 BYTE   W06
 BYTE   An3
 BYTE   W06
 BYTE   N17  En4
 BYTE   W18
 BYTE   N16  Fn4
 BYTE   W17
 BYTE   BEND   c_v-40
 BYTE   W01
 BYTE   N11  Gn4
 BYTE   W01
 BYTE   BEND   c_v-24
 BYTE   W01
 BYTE   Cs2
 BYTE   W01
 BYTE   Gn2
 BYTE   W01
 BYTE   Bn2
 BYTE   W01
 BYTE   Cs3
 BYTE   W01
 BYTE   Dn3
 BYTE   W01
 BYTE   Ds3
 BYTE   W01
 BYTE   En3
 BYTE   W04
// 014   ----------------------------------------
 BYTE   N17  Fn4
 BYTE   W18
 BYTE   En4
 BYTE   W18
 BYTE   N11  Dn4
 BYTE   W12
 BYTE   BEND   c_v-64
 BYTE   W01
 BYTE   N17  Cn4
 BYTE   W01
 BYTE   BEND   c_v-46
 BYTE   W01
 BYTE   Gn0
 BYTE   W01
 BYTE   En1
 BYTE   W01
 BYTE   Bn1
 BYTE   W01
 BYTE   En2
 BYTE   W01
 BYTE   Gn2
 BYTE   W01
 BYTE   As2
 BYTE   W01
 BYTE   Cn3
 BYTE   W01
 BYTE   Cs3
 BYTE   W01
 BYTE   Dn3
 BYTE   W01
 BYTE   Ds3
 BYTE   W03
 BYTE   En3
 BYTE   W03
 BYTE   N17  Gn3
 BYTE   W18
 BYTE   N32  Cn4
 BYTE   W12
// 015   ----------------------------------------
 BYTE   W24
 BYTE   N23  En4
 BYTE   W24
 BYTE   N04  Cn5
 BYTE   W06
 BYTE   Bn4
 BYTE   W06
 BYTE   An4
 BYTE   W06
 BYTE   Bn4
 BYTE   W06
 BYTE   An4
 BYTE   W06
 BYTE   Gn4
 BYTE   W06
 BYTE   Fn4
 BYTE   W06
 BYTE   Gn4
 BYTE   W06
// 016   ----------------------------------------
 BYTE   Fn4
 BYTE   W06
 BYTE   En4
 BYTE   W06
 BYTE   Dn4
 BYTE   W06
 BYTE   En4
 BYTE   W06
 BYTE   Dn4
 BYTE   W06
 BYTE   Cn4
 BYTE   W06
 BYTE   Bn3
 BYTE   W06
 BYTE   Gn3
 BYTE   W54
// 017   ----------------------------------------
 BYTE   W96
// 018   ----------------------------------------
 BYTE   W96
// 019   ----------------------------------------
 BYTE   W96
// 020   ----------------------------------------
 BYTE   W48
 BYTE   N11  An3
 BYTE   W12
 BYTE   Dn4
 BYTE   W12
 BYTE   Cs4
 BYTE   W12
 BYTE   N10  An3
 BYTE   W11
 BYTE   BEND   c_v-56
 BYTE   W01
// 021   ----------------------------------------
 BYTE   N17  En4
 BYTE   W01
 BYTE   BEND   c_v-40
 BYTE   W01
 BYTE   Bn0
 BYTE   W01
 BYTE   Gn1
 BYTE   W01
 BYTE   Cs2
 BYTE   W01
 BYTE   Fn2
 BYTE   W01
 BYTE   Gs2
 BYTE   W01
 BYTE   Bn2
 BYTE   W01
 BYTE   Cn3
 BYTE   W01
 BYTE   Cs3
 BYTE   W01
 BYTE   Dn3
 BYTE   W01
 BYTE   Ds3
 BYTE   W02
 BYTE   En3
 BYTE   W05
 BYTE   N17  Dn4
 BYTE   W18
 BYTE   N11  Cs4
 BYTE   W12
 BYTE   N17  Bn3
 BYTE   W18
 BYTE   Cs4
 BYTE   W18
 BYTE   N10  Dn4
 BYTE   W11
 BYTE   BEND   c_v-64
 BYTE   W01
// 022   ----------------------------------------
 BYTE   N17
 BYTE   W01
 BYTE   BEND   c_v-46
 BYTE   W01
 BYTE   Gn0
 BYTE   W01
 BYTE   En1
 BYTE   W01
 BYTE   Bn1
 BYTE   W01
 BYTE   En2
 BYTE   W01
 BYTE   Gn2
 BYTE   W01
 BYTE   As2
 BYTE   W01
 BYTE   Cn3
 BYTE   W01
 BYTE   Cs3
 BYTE   W01
 BYTE   Dn3
 BYTE   W01
 BYTE   Ds3
 BYTE   W03
 BYTE   En3
 BYTE   W04
 BYTE   N17  Cs4
 BYTE   W18
 BYTE   N11  An3
 BYTE   W12
 BYTE   BEND   c_v-64
 BYTE   W01
 BYTE   N15  Cn4
 BYTE   W01
 BYTE   BEND   c_v-46
 BYTE   W01
 BYTE   Gn0
 BYTE   W01
 BYTE   En1
 BYTE   W01
 BYTE   Bn1
 BYTE   W01
 BYTE   En2
 BYTE   W01
 BYTE   Gn2
 BYTE   W01
 BYTE   As2
 BYTE   W01
 BYTE   Cn3
 BYTE   W01
 BYTE   Cs3
 BYTE   W01
 BYTE   Dn3
 BYTE   W01
 BYTE   Ds3
 BYTE   W03
 BYTE   En3
 BYTE   W03
 BYTE   N17  Bn3
 BYTE   W18
 BYTE   N11  Dn4
 BYTE   W12
// 023   ----------------------------------------
 BYTE   N17  Cn4
 BYTE   W18
 BYTE   Bn3
 BYTE   W18
 BYTE   N11  Gn3
 BYTE   W12
 BYTE   N17  Cn4
 BYTE   W18
 BYTE   Bn3
 BYTE   W18
 BYTE   N10  Gn3
 BYTE   W11
 BYTE   BEND   c_v-64
 BYTE   W01
// 024   ----------------------------------------
 BYTE   N17  Cn4
 BYTE   W01
 BYTE   BEND   c_v-46
 BYTE   W01
 BYTE   Gn0
 BYTE   W01
 BYTE   En1
 BYTE   W01
 BYTE   Bn1
 BYTE   W01
 BYTE   En2
 BYTE   W01
 BYTE   Gn2
 BYTE   W01
 BYTE   As2
 BYTE   W01
 BYTE   Cn3
 BYTE   W01
 BYTE   Cs3
 BYTE   W01
 BYTE   Dn3
 BYTE   W01
 BYTE   Ds3
 BYTE   W03
 BYTE   En3
 BYTE   W04
 BYTE   N17  Bn3
 BYTE   W18
 BYTE   N11  Gn3
 BYTE   W12
 BYTE   N04  Fn3
 BYTE   W06
 BYTE   An3
 BYTE   W06
 BYTE   Cn4
 BYTE   W06
 BYTE   Fn4
 BYTE   W06
 BYTE   An4
 BYTE   W06
 BYTE   Cn5
 BYTE   W06
 BYTE   Fn5
 BYTE   W06
 BYTE   En5
 BYTE   W06
// 025   ----------------------------------------
 BYTE   Cn5
 BYTE   W06
 BYTE   An4
 BYTE   W06
 BYTE   Fn4
 BYTE   W06
 BYTE   En4
 BYTE   W06
 BYTE   Cn4
 BYTE   W06
 BYTE   An3
 BYTE   W06
 BYTE   Fn3
 BYTE   W06
 BYTE   An3
 BYTE   W06
 BYTE   Fn2
 BYTE   W06
 BYTE   Cn3
 BYTE   W06
 BYTE   Fn3
 BYTE   W06
 BYTE   An3
 BYTE   W06
 BYTE   Cn4
 BYTE   W06
 BYTE   En4
 BYTE   W06
 BYTE   Fn4
 BYTE   W06
 BYTE   En4
 BYTE   W06
// 026   ----------------------------------------
 BYTE   Cn4
 BYTE   W06
 BYTE   An3
 BYTE   W06
 BYTE   Fn3
 BYTE   W06
 BYTE   Cn3
 BYTE   W06
 BYTE   Fn2
 BYTE   W06
 BYTE   Cn3
 BYTE   W06
 BYTE   Fn3
 BYTE   W06
 BYTE   An3
 BYTE   W06
 BYTE   Gn3
 BYTE   W06
 BYTE   Cn4
 BYTE   W06
 BYTE   En4
 BYTE   W06
 BYTE   Gn4
 BYTE   W06
 BYTE   Cn5
 BYTE   W06
 BYTE   Gn4
 BYTE   W06
 BYTE   En4
 BYTE   W06
 BYTE   Cn4
 BYTE   W06
// 027   ----------------------------------------
 BYTE   Dn4
 BYTE   W06
 BYTE   Fs4
 BYTE   W06
 BYTE   An4
 BYTE   W06
 BYTE   Dn5
 BYTE   W06
 BYTE   An4
 BYTE   W06
 BYTE   Fs4
 BYTE   W06
 BYTE   Dn4
 BYTE   W06
 BYTE   An3
 BYTE   W06
 BYTE   Bn3
 BYTE   W06
 BYTE   Ds4
 BYTE   W06
 BYTE   Fs4
 BYTE   W06
 BYTE   Bn4
 BYTE   W06
 BYTE   Fs4
 BYTE   W06
 BYTE   Ds4
 BYTE   W06
 BYTE   Bn3
 BYTE   W06
 BYTE   Fs3
 BYTE   W06
// 028   ----------------------------------------
 BYTE   En3
 BYTE   W06
 BYTE   Gn3
 BYTE   W06
 BYTE   Bn3
 BYTE   W06
 BYTE   En4
 BYTE   W06
 BYTE   Dn3
 BYTE   W06
 BYTE   Fs3
 BYTE   W06
 BYTE   An3
 BYTE   W06
 BYTE   Dn4
 BYTE   W06
 BYTE   Cn3
 BYTE   W06
 BYTE   En3
 BYTE   W06
 BYTE   Fs3
 BYTE   W06
 BYTE   Gn3
 BYTE   W06
 BYTE   Cn4
 BYTE   W06
 BYTE   En4
 BYTE   W06
 BYTE   Fs4
 BYTE   W06
 BYTE   Gn4
 BYTE   W06
// 029   ----------------------------------------
 BYTE   Cn5
 BYTE   W06
 BYTE   Gn4
 BYTE   W06
 BYTE   Fs4
 BYTE   W06
 BYTE   En4
 BYTE   W06
 BYTE   Cn4
 BYTE   W06
 BYTE   Gn3
 BYTE   W06
 BYTE   Fs3
 BYTE   W06
 BYTE   En3
 BYTE   W06
 BYTE   Dn3
 BYTE   W06
 BYTE   Fs3
 BYTE   W06
 BYTE   An3
 BYTE   W06
 BYTE   Dn4
 BYTE   W06
 BYTE   Fs4
 BYTE   W06
 BYTE   An4
 BYTE   W06
 BYTE   Dn5
 BYTE   W06
 BYTE   An4
 BYTE   W06
// 030   ----------------------------------------
 BYTE   Fs4
 BYTE   W06
 BYTE   Dn4
 BYTE   W06
 BYTE   An3
 BYTE   W06
 BYTE   Fs3
 BYTE   W06
 BYTE   Dn3
 BYTE   W06
 BYTE   Fs3
 BYTE   W06
 BYTE   An3
 BYTE   W06
 BYTE   Dn4
 BYTE   W54
// 031   ----------------------------------------
 BYTE   W96
// 032   ----------------------------------------
 BYTE   W48
 BYTE   Cn3
 BYTE   W06
 BYTE   En3
 BYTE   W06
 BYTE   Gn3
 BYTE   W06
 BYTE   Cn4
 BYTE   W06
 BYTE   En4
 BYTE   W06
 BYTE   Gn4
 BYTE   W06
 BYTE   Cn5
 BYTE   W06
 BYTE   Gn4
 BYTE   W06
// 033   ----------------------------------------
Label_3_0144DB7F:
 BYTE   N04  En4  v092
 BYTE   W06
 BYTE   Cn4
 BYTE   W06
 BYTE   Gn3
 BYTE   W06
 BYTE   En3
 BYTE   W06
 BYTE   Cn3
 BYTE   W06
 BYTE   En3
 BYTE   W06
 BYTE   Gn3
 BYTE   W06
 BYTE   Cn4
 BYTE   W06
 BYTE   En3
 BYTE   W06
 BYTE   Gn3
 BYTE   W06
 BYTE   Bn3
 BYTE   W06
 BYTE   En4
 BYTE   W06
 BYTE   Gn4
 BYTE   W06
 BYTE   Bn4
 BYTE   W06
 BYTE   En5
 BYTE   W06
 BYTE   Bn4
 BYTE   W06
 BYTE   PEND 
// 034   ----------------------------------------
Label_3_0144DBA2:
 BYTE   N04  Dn3  v092
 BYTE   W06
 BYTE   Fs3
 BYTE   W06
 BYTE   An3
 BYTE   W06
 BYTE   Dn4
 BYTE   W06
 BYTE   Fs4
 BYTE   W06
 BYTE   An4
 BYTE   W06
 BYTE   Dn5
 BYTE   W06
 BYTE   An4
 BYTE   W06
 BYTE   En3
 BYTE   W06
 BYTE   Gn3
 BYTE   W06
 BYTE   Bn3
 BYTE   W06
 BYTE   En4
 BYTE   W06
 BYTE   Gn4
 BYTE   W06
 BYTE   Bn4
 BYTE   W06
 BYTE   En5
 BYTE   W06
 BYTE   Bn4
 BYTE   W06
 BYTE   PEND 
// 035   ----------------------------------------
Label_3_0144DBC5:
 BYTE   N04  Gn4  v092
 BYTE   W06
 BYTE   En4
 BYTE   W06
 BYTE   Bn3
 BYTE   W06
 BYTE   Gn3
 BYTE   W06
 BYTE   En3
 BYTE   W06
 BYTE   Gn3
 BYTE   W06
 BYTE   Bn3
 BYTE   W06
 BYTE   En4
 BYTE   W06
 BYTE   Gn3
 BYTE   W06
 BYTE   As3
 BYTE   W06
 BYTE   Dn4
 BYTE   W06
 BYTE   Gn4
 BYTE   W06
 BYTE   As4
 BYTE   W06
 BYTE   Dn5
 BYTE   W06
 BYTE   Gn5
 BYTE   W06
 BYTE   Dn5
 BYTE   W06
 BYTE   PEND 
// 036   ----------------------------------------
 BYTE   Fn3
 BYTE   W06
 BYTE   An3
 BYTE   W06
 BYTE   Cn4
 BYTE   W06
 BYTE   Fn4
 BYTE   W06
 BYTE   An4
 BYTE   W06
 BYTE   Cn5
 BYTE   W06
 BYTE   Fn5
 BYTE   W06
 BYTE   Cn5
 BYTE   W06
 BYTE   Cn3
 BYTE   W06
 BYTE   En3
 BYTE   W06
 BYTE   Gn3
 BYTE   W06
 BYTE   Cn4
 BYTE   W06
 BYTE   En4
 BYTE   W06
 BYTE   Gn4
 BYTE   W06
 BYTE   Cn5
 BYTE   W06
 BYTE   Gn4
 BYTE   W06
 BYTE   PATT
  POIN2 Label_3_0144DB7F
 BYTE   PATT
  POIN2 Label_3_0144DBA2
 BYTE   PATT
  POIN2 Label_3_0144DBC5
// 037   ----------------------------------------
 BYTE   N04  Fn3  v092
 BYTE   W06
 BYTE   An3
 BYTE   W06
 BYTE   Cn4
 BYTE   W06
 BYTE   Fn4
 BYTE   W06
 BYTE   An4
 BYTE   W06
 BYTE   Cn5
 BYTE   W06
 BYTE   Fn5
 BYTE   W06
 BYTE   Cn5
 BYTE   W05
 BYTE   GoTo
  POIN2 Label_3_0144D955
 BYTE   FINE

//**************** Track 5 (Midi-Chn.4) ****************//

GoldenSunDarkDawnBattle1MrGreen3339_005:
// 000   ----------------------------------------
 BYTE   KEYSH   GoldenSunDarkDawnBattle1MrGreen3339_key+0
 BYTE   VOICE   81
 BYTE   VOL   51*GoldenSunDarkDawnBattle1MrGreen3339_mvl/mxv
 BYTE   PAN   c_v+0
 BYTE   BEND   c_v-4
 BYTE   W48
Label_4_0144DC3B:
 BYTE   W48
// 001   ----------------------------------------
 BYTE   W96
// 002   ----------------------------------------
 BYTE   W96
// 003   ----------------------------------------
 BYTE   W96
// 004   ----------------------------------------
 BYTE   W96
// 005   ----------------------------------------
 BYTE   W96
// 006   ----------------------------------------
 BYTE   W96
// 007   ----------------------------------------
 BYTE   W96
// 008   ----------------------------------------
 BYTE   W96
// 009   ----------------------------------------
 BYTE   W96
// 010   ----------------------------------------
 BYTE   W96
// 011   ----------------------------------------
 BYTE   W96
// 012   ----------------------------------------
 BYTE   W96
// 013   ----------------------------------------
 BYTE   W96
// 014   ----------------------------------------
 BYTE   W96
// 015   ----------------------------------------
 BYTE   W96
// 016   ----------------------------------------
 BYTE   W48
 BYTE   PAN   c_v-64
 BYTE   W01
 BYTE   N10  An1  v112
 BYTE   W11
 BYTE   PAN   c_v-44
 BYTE   W01
 BYTE   N10
 BYTE   W11
 BYTE   PAN   c_v-24
 BYTE   W01
 BYTE   N10
 BYTE   W11
 BYTE   PAN   c_v+0
 BYTE   W01
 BYTE   N10
 BYTE   W11
// 017   ----------------------------------------
Label_4_0144DC62:
 BYTE   PAN   c_v+16
 BYTE   W01
 BYTE   N10  An1  v112
 BYTE   W11
 BYTE   PAN   c_v+36
 BYTE   W01
 BYTE   N10
 BYTE   W11
 BYTE   PAN   c_v+46
 BYTE   W01
 BYTE   N10
 BYTE   W11
 BYTE   PAN   c_v+63
 BYTE   W01
 BYTE   N10
 BYTE   W11
 BYTE   PAN   c_v+46
 BYTE   W01
 BYTE   N10
 BYTE   W11
 BYTE   PAN   c_v+36
 BYTE   W01
 BYTE   N10
 BYTE   W11
 BYTE   PAN   c_v+16
 BYTE   W01
 BYTE   N10
 BYTE   W11
 BYTE   PAN   c_v+0
 BYTE   W01
 BYTE   N10
 BYTE   W11
 BYTE   PEND 
// 018   ----------------------------------------
Label_4_0144DC8D:
 BYTE   PAN   c_v-24
 BYTE   W01
 BYTE   N10  An1  v112
 BYTE   W11
 BYTE   PAN   c_v-44
 BYTE   W01
 BYTE   N10
 BYTE   W11
 BYTE   PAN   c_v-54
 BYTE   W01
 BYTE   N10
 BYTE   W11
 BYTE   PAN   c_v-64
 BYTE   W01
 BYTE   N10
 BYTE   W11
 BYTE   PAN   c_v-64
 BYTE   W01
 BYTE   N10
 BYTE   W11
 BYTE   PAN   c_v-44
 BYTE   W01
 BYTE   N10
 BYTE   W11
 BYTE   PAN   c_v-24
 BYTE   W01
 BYTE   N10
 BYTE   W11
 BYTE   PAN   c_v+0
 BYTE   W01
 BYTE   N10
 BYTE   W11
 BYTE   PEND 
 BYTE   PATT
  POIN2 Label_4_0144DC62
 BYTE   PATT
  POIN2 Label_4_0144DC8D
 BYTE   PATT
  POIN2 Label_4_0144DC62
 BYTE   PATT
  POIN2 Label_4_0144DC8D
 BYTE   PATT
  POIN2 Label_4_0144DC62
// 019   ----------------------------------------
 BYTE   PAN   c_v-24
 BYTE   W01
 BYTE   N10  An1  v112
 BYTE   W11
 BYTE   PAN   c_v-44
 BYTE   W01
 BYTE   N10
 BYTE   W11
 BYTE   PAN   c_v-54
 BYTE   W01
 BYTE   N10
 BYTE   W11
 BYTE   PAN   c_v-64
 BYTE   W01
 BYTE   N10
 BYTE   W56
 BYTE   W03
// 020   ----------------------------------------
 BYTE   W96
// 021   ----------------------------------------
 BYTE   W48
 BYTE   PAN   c_v+16
 BYTE   W48
// 022   ----------------------------------------
 BYTE   W96
// 023   ----------------------------------------
 BYTE   W96
// 024   ----------------------------------------
 BYTE   W96
// 025   ----------------------------------------
 BYTE   W48
 BYTE   N92  An0  v127
 BYTE   W48
// 026   ----------------------------------------
 BYTE   W48
 BYTE   N92
 BYTE   W48
// 027   ----------------------------------------
 BYTE   W96
// 028   ----------------------------------------
 BYTE   W96
// 029   ----------------------------------------
 BYTE   W96
// 030   ----------------------------------------
 BYTE   W96
// 031   ----------------------------------------
 BYTE   W96
// 032   ----------------------------------------
 BYTE   W96
// 033   ----------------------------------------
 BYTE   W96
// 034   ----------------------------------------
 BYTE   W96
// 035   ----------------------------------------
 BYTE   W44
 BYTE   W03
 BYTE   GoTo
  POIN2 Label_4_0144DC3B
 BYTE   FINE

//**************** Track 6 (Midi-Chn.5) ****************//

GoldenSunDarkDawnBattle1MrGreen3339_006:
// 000   ----------------------------------------
 BYTE   KEYSH   GoldenSunDarkDawnBattle1MrGreen3339_key+0
 BYTE   VOICE   11
 BYTE   VOL   56*GoldenSunDarkDawnBattle1MrGreen3339_mvl/mxv
 BYTE   PAN   c_v+6
 BYTE   N04  Gs2  v124
 BYTE   W06
 BYTE   En3
 BYTE   W06
 BYTE   Gs3
 BYTE   W06
 BYTE   Bn3
 BYTE   W06
 BYTE   Dn4
 BYTE   W06
 BYTE   Fn4
 BYTE   W06
 BYTE   Gs4
 BYTE   W06
 BYTE   Bn4
 BYTE   W06
Label_5_0144DD22:
 BYTE   N23  Gn4  v127
 BYTE   W48
// 001   ----------------------------------------
 BYTE   N05  Fs4
 BYTE   W12
 BYTE   En4
 BYTE   W12
 BYTE   Fs4
 BYTE   W12
 BYTE   Gn4
 BYTE   W12
 BYTE   N08  Bn4
 BYTE   W18
 BYTE   N14  Dn4
 BYTE   W30
// 002   ----------------------------------------
 BYTE   N05  Bn3
 BYTE   W12
 BYTE   Cn4
 BYTE   W12
 BYTE   Dn4
 BYTE   W12
 BYTE   Fs4
 BYTE   W12
 BYTE   N08  Gn4
 BYTE   W18
 BYTE   Fs4
 BYTE   W18
 BYTE   N05  Gn4
 BYTE   W12
// 003   ----------------------------------------
 BYTE   En4
 BYTE   W12
 BYTE   Fs4
 BYTE   W12
 BYTE   Gn4
 BYTE   W12
 BYTE   An4
 BYTE   W12
 BYTE   N23  Bn4
 BYTE   W48
// 004   ----------------------------------------
 BYTE   N11  Fs4
 BYTE   W24
 BYTE   Bn3
 BYTE   W24
 BYTE   N23  En4
 BYTE   W48
// 005   ----------------------------------------
 BYTE   N08  Fs4
 BYTE   W18
 BYTE   Gn4
 BYTE   W18
 BYTE   N05  An4
 BYTE   W12
 BYTE   N08  Gn4
 BYTE   W18
 BYTE   Fs4
 BYTE   W18
 BYTE   N05  Gn4
 BYTE   W12
// 006   ----------------------------------------
 BYTE   N11  An4
 BYTE   W24
 BYTE   Bn4
 BYTE   W24
 BYTE   N08  Dn5
 BYTE   W18
 BYTE   Cn5
 BYTE   W18
 BYTE   N05  Bn4
 BYTE   W12
// 007   ----------------------------------------
 BYTE   N08  Cn5
 BYTE   W18
 BYTE   Bn4
 BYTE   W18
 BYTE   N05  An4
 BYTE   W12
 BYTE   N08  Gn4
 BYTE   W18
 BYTE   Cn5
 BYTE   W18
 BYTE   N05  Dn5
 BYTE   W12
// 008   ----------------------------------------
 BYTE   N23  Bn4
 BYTE   W96
// 009   ----------------------------------------
 BYTE   W96
// 010   ----------------------------------------
 BYTE   W96
// 011   ----------------------------------------
 BYTE   W96
// 012   ----------------------------------------
 BYTE   W96
// 013   ----------------------------------------
 BYTE   W96
// 014   ----------------------------------------
 BYTE   W96
// 015   ----------------------------------------
 BYTE   W96
// 016   ----------------------------------------
 BYTE   W96
// 017   ----------------------------------------
 BYTE   W96
// 018   ----------------------------------------
 BYTE   W96
// 019   ----------------------------------------
 BYTE   W96
// 020   ----------------------------------------
 BYTE   W96
// 021   ----------------------------------------
 BYTE   W96
// 022   ----------------------------------------
 BYTE   W96
// 023   ----------------------------------------
 BYTE   W96
// 024   ----------------------------------------
 BYTE   W96
// 025   ----------------------------------------
 BYTE   W96
// 026   ----------------------------------------
 BYTE   W96
// 027   ----------------------------------------
 BYTE   W96
// 028   ----------------------------------------
 BYTE   W96
// 029   ----------------------------------------
 BYTE   W96
// 030   ----------------------------------------
 BYTE   W96
// 031   ----------------------------------------
 BYTE   W96
// 032   ----------------------------------------
 BYTE   W96
// 033   ----------------------------------------
 BYTE   W96
// 034   ----------------------------------------
 BYTE   W96
// 035   ----------------------------------------
 BYTE   W96
// 036   ----------------------------------------
 BYTE   W96
// 037   ----------------------------------------
 BYTE   W96
// 038   ----------------------------------------
 BYTE   W96
// 039   ----------------------------------------
 BYTE   W96
// 040   ----------------------------------------
 BYTE   W44
 BYTE   W03
 BYTE   GoTo
  POIN2 Label_5_0144DD22
 BYTE   FINE

//**************** Track 7 (Midi-Chn.6) ****************//

GoldenSunDarkDawnBattle1MrGreen3339_007:
// 000   ----------------------------------------
 BYTE   KEYSH   GoldenSunDarkDawnBattle1MrGreen3339_key+0
 BYTE   VOICE   70
 BYTE   VOL   40*GoldenSunDarkDawnBattle1MrGreen3339_mvl/mxv
 BYTE   PAN   c_v-14
 BYTE   W48
Label_6_0144DDB9:
 BYTE   W48
// 001   ----------------------------------------
 BYTE   W96
// 002   ----------------------------------------
 BYTE   W96
// 003   ----------------------------------------
 BYTE   W96
// 004   ----------------------------------------
 BYTE   W96
// 005   ----------------------------------------
 BYTE   W96
// 006   ----------------------------------------
 BYTE   W96
// 007   ----------------------------------------
 BYTE   W96
// 008   ----------------------------------------
 BYTE   W96
// 009   ----------------------------------------
 BYTE   W96
// 010   ----------------------------------------
 BYTE   W96
// 011   ----------------------------------------
 BYTE   W96
// 012   ----------------------------------------
 BYTE   W56
 BYTE   W03
 BYTE   N04  An3  v092
 BYTE   W06
 BYTE   Bn3
 BYTE   W06
 BYTE   Cn4
 BYTE   W06
 BYTE   An3
 BYTE   W06
 BYTE   En4
 BYTE   W06
 BYTE   Dn4
 BYTE   W06
 BYTE   Cn4
 BYTE   W01
// 013   ----------------------------------------
 BYTE   W05
 BYTE   Bn3
 BYTE   W06
 BYTE   Cn4
 BYTE   W06
 BYTE   An3
 BYTE   W06
 BYTE   Bn3
 BYTE   W06
 BYTE   Gn3
 BYTE   W06
 BYTE   An3
 BYTE   W06
 BYTE   Fn3
 BYTE   W06
 BYTE   Gn3
 BYTE   W06
 BYTE   An3
 BYTE   W06
 BYTE   N17  En4
 BYTE   W18
 BYTE   N16  Fn4
 BYTE   W17
 BYTE   BEND   c_v-40
 BYTE   W01
 BYTE   N11  Gn4
 BYTE   W01
// 014   ----------------------------------------
 BYTE   BEND   c_v-24
 BYTE   W01
 BYTE   Cs2
 BYTE   W01
 BYTE   Gn2
 BYTE   W01
 BYTE   Bn2
 BYTE   W01
 BYTE   Cs3
 BYTE   W01
 BYTE   Dn3
 BYTE   W01
 BYTE   Ds3
 BYTE   W01
 BYTE   En3
 BYTE   W04
 BYTE   N17  Fn4
 BYTE   W18
 BYTE   En4
 BYTE   W18
 BYTE   N11  Dn4
 BYTE   W12
 BYTE   BEND   c_v-64
 BYTE   W01
 BYTE   N17  Cn4
 BYTE   W01
 BYTE   BEND   c_v-46
 BYTE   W01
 BYTE   Gn0
 BYTE   W01
 BYTE   En1
 BYTE   W01
 BYTE   Bn1
 BYTE   W01
 BYTE   En2
 BYTE   W01
 BYTE   Gn2
 BYTE   W01
 BYTE   As2
 BYTE   W01
 BYTE   Cn3
 BYTE   W01
 BYTE   Cs3
 BYTE   W01
 BYTE   Dn3
 BYTE   W01
 BYTE   Ds3
 BYTE   W03
 BYTE   En3
 BYTE   W03
 BYTE   N17  Gn3
 BYTE   W18
 BYTE   N32  Cn4
 BYTE   W01
// 015   ----------------------------------------
 BYTE   W32
 BYTE   W03
 BYTE   N23  En4
 BYTE   W24
 BYTE   N04  Cn5
 BYTE   W06
 BYTE   Bn4
 BYTE   W06
 BYTE   An4
 BYTE   W06
 BYTE   Bn4
 BYTE   W06
 BYTE   An4
 BYTE   W06
 BYTE   Gn4
 BYTE   W06
 BYTE   Fn4
 BYTE   W01
// 016   ----------------------------------------
 BYTE   W05
 BYTE   Gn4
 BYTE   W06
 BYTE   Fn4
 BYTE   W06
 BYTE   En4
 BYTE   W06
 BYTE   Dn4
 BYTE   W06
 BYTE   En4
 BYTE   W06
 BYTE   Dn4
 BYTE   W06
 BYTE   Cn4
 BYTE   W54
 BYTE   W01
// 017   ----------------------------------------
 BYTE   W96
// 018   ----------------------------------------
 BYTE   W96
// 019   ----------------------------------------
 BYTE   W96
// 020   ----------------------------------------
 BYTE   W56
 BYTE   W03
 BYTE   N11  An3
 BYTE   W12
 BYTE   Dn4
 BYTE   W12
 BYTE   Cs4
 BYTE   W12
 BYTE   N10  An3
 BYTE   W01
// 021   ----------------------------------------
 BYTE   W10
 BYTE   BEND   c_v-56
 BYTE   W01
 BYTE   N17  En4
 BYTE   W01
 BYTE   BEND   c_v-40
 BYTE   W01
 BYTE   Bn0
 BYTE   W01
 BYTE   Gn1
 BYTE   W01
 BYTE   Cs2
 BYTE   W01
 BYTE   Fn2
 BYTE   W01
 BYTE   Gs2
 BYTE   W01
 BYTE   Bn2
 BYTE   W01
 BYTE   Cn3
 BYTE   W01
 BYTE   Cs3
 BYTE   W01
 BYTE   Dn3
 BYTE   W01
 BYTE   Ds3
 BYTE   W02
 BYTE   En3
 BYTE   W05
 BYTE   N17  Dn4
 BYTE   W18
 BYTE   N11  Cs4
 BYTE   W12
 BYTE   N17  Bn3
 BYTE   W18
 BYTE   Cs4
 BYTE   W18
 BYTE   N10  Dn4
 BYTE   W01
// 022   ----------------------------------------
 BYTE   W10
 BYTE   BEND   c_v-64
 BYTE   W01
 BYTE   N17
 BYTE   W01
 BYTE   BEND   c_v-46
 BYTE   W01
 BYTE   Gn0
 BYTE   W01
 BYTE   En1
 BYTE   W01
 BYTE   Bn1
 BYTE   W01
 BYTE   En2
 BYTE   W01
 BYTE   Gn2
 BYTE   W01
 BYTE   As2
 BYTE   W01
 BYTE   Cn3
 BYTE   W01
 BYTE   Cs3
 BYTE   W01
 BYTE   Dn3
 BYTE   W01
 BYTE   Ds3
 BYTE   W03
 BYTE   En3
 BYTE   W04
 BYTE   N17  Cs4
 BYTE   W18
 BYTE   N11  An3
 BYTE   W12
 BYTE   BEND   c_v-64
 BYTE   W01
 BYTE   N15  Cn4
 BYTE   W01
 BYTE   BEND   c_v-46
 BYTE   W01
 BYTE   Gn0
 BYTE   W01
 BYTE   En1
 BYTE   W01
 BYTE   Bn1
 BYTE   W01
 BYTE   En2
 BYTE   W01
 BYTE   Gn2
 BYTE   W01
 BYTE   As2
 BYTE   W01
 BYTE   Cn3
 BYTE   W01
 BYTE   Cs3
 BYTE   W01
 BYTE   Dn3
 BYTE   W01
 BYTE   Ds3
 BYTE   W03
 BYTE   En3
 BYTE   W03
 BYTE   N17  Bn3
 BYTE   W18
 BYTE   N11  Dn4
 BYTE   W01
// 023   ----------------------------------------
 BYTE   W11
 BYTE   N17  Cn4
 BYTE   W18
 BYTE   Bn3
 BYTE   W18
 BYTE   N11  Gn3
 BYTE   W12
 BYTE   N17  Cn4
 BYTE   W18
 BYTE   Bn3
 BYTE   W18
 BYTE   N10  Gn3
 BYTE   W01
// 024   ----------------------------------------
 BYTE   W10
 BYTE   BEND   c_v-64
 BYTE   W01
 BYTE   N17  Cn4
 BYTE   W01
 BYTE   BEND   c_v-46
 BYTE   W01
 BYTE   Gn0
 BYTE   W01
 BYTE   En1
 BYTE   W01
 BYTE   Bn1
 BYTE   W01
 BYTE   En2
 BYTE   W01
 BYTE   Gn2
 BYTE   W01
 BYTE   As2
 BYTE   W01
 BYTE   Cn3
 BYTE   W01
 BYTE   Cs3
 BYTE   W01
 BYTE   Dn3
 BYTE   W01
 BYTE   Ds3
 BYTE   W03
 BYTE   En3
 BYTE   W04
 BYTE   N17  Bn3
 BYTE   W18
 BYTE   N11  Gn3
 BYTE   W12
 BYTE   N04  Fn3
 BYTE   W06
 BYTE   An3
 BYTE   W06
 BYTE   Cn4
 BYTE   W06
 BYTE   Fn4
 BYTE   W06
 BYTE   An4
 BYTE   W06
 BYTE   Cn5
 BYTE   W06
 BYTE   Fn5
 BYTE   W01
// 025   ----------------------------------------
 BYTE   W05
 BYTE   En5
 BYTE   W06
 BYTE   Cn5
 BYTE   W06
 BYTE   An4
 BYTE   W06
 BYTE   Fn4
 BYTE   W06
 BYTE   En4
 BYTE   W06
 BYTE   Cn4
 BYTE   W06
 BYTE   An3
 BYTE   W06
 BYTE   Fn3
 BYTE   W06
 BYTE   An3
 BYTE   W06
 BYTE   Fn2
 BYTE   W06
 BYTE   Cn3
 BYTE   W06
 BYTE   Fn3
 BYTE   W06
 BYTE   An3
 BYTE   W06
 BYTE   Cn4
 BYTE   W06
 BYTE   En4
 BYTE   W06
 BYTE   Fn4
 BYTE   W01
// 026   ----------------------------------------
 BYTE   W05
 BYTE   En4
 BYTE   W06
 BYTE   Cn4
 BYTE   W06
 BYTE   An3
 BYTE   W06
 BYTE   Fn3
 BYTE   W06
 BYTE   Cn3
 BYTE   W06
 BYTE   Fn2
 BYTE   W06
 BYTE   Cn3
 BYTE   W06
 BYTE   Fn3
 BYTE   W06
 BYTE   An3
 BYTE   W06
 BYTE   Gn3
 BYTE   W06
 BYTE   Cn4
 BYTE   W06
 BYTE   En4
 BYTE   W06
 BYTE   Gn4
 BYTE   W06
 BYTE   Cn5
 BYTE   W06
 BYTE   Gn4
 BYTE   W06
 BYTE   En4
 BYTE   W01
// 027   ----------------------------------------
 BYTE   W05
 BYTE   Cn4
 BYTE   W06
 BYTE   Dn4
 BYTE   W06
 BYTE   Fs4
 BYTE   W06
 BYTE   An4
 BYTE   W06
 BYTE   Dn5
 BYTE   W06
 BYTE   An4
 BYTE   W06
 BYTE   Fs4
 BYTE   W06
 BYTE   Dn4
 BYTE   W06
 BYTE   An3
 BYTE   W06
 BYTE   Bn3
 BYTE   W06
 BYTE   Ds4
 BYTE   W06
 BYTE   Fs4
 BYTE   W06
 BYTE   Bn4
 BYTE   W06
 BYTE   Fs4
 BYTE   W06
 BYTE   Ds4
 BYTE   W06
 BYTE   Bn3
 BYTE   W01
// 028   ----------------------------------------
 BYTE   W05
 BYTE   Fs3
 BYTE   W06
 BYTE   En3
 BYTE   W06
 BYTE   Gn3
 BYTE   W06
 BYTE   Bn3
 BYTE   W06
 BYTE   En4
 BYTE   W06
 BYTE   Dn3
 BYTE   W06
 BYTE   Fs3
 BYTE   W06
 BYTE   An3
 BYTE   W06
 BYTE   Dn4
 BYTE   W06
 BYTE   Cn3
 BYTE   W06
 BYTE   En3
 BYTE   W06
 BYTE   Fs3
 BYTE   W06
 BYTE   Gn3
 BYTE   W06
 BYTE   Cn4
 BYTE   W06
 BYTE   En4
 BYTE   W06
 BYTE   Fs4
 BYTE   W01
// 029   ----------------------------------------
 BYTE   W05
 BYTE   Gn4
 BYTE   W06
 BYTE   Cn5
 BYTE   W06
 BYTE   Gn4
 BYTE   W06
 BYTE   Fs4
 BYTE   W06
 BYTE   En4
 BYTE   W06
 BYTE   Cn4
 BYTE   W06
 BYTE   Gn3
 BYTE   W06
 BYTE   Fs3
 BYTE   W06
 BYTE   En3
 BYTE   W06
 BYTE   Dn3
 BYTE   W06
 BYTE   Fs3
 BYTE   W06
 BYTE   An3
 BYTE   W06
 BYTE   Dn4
 BYTE   W06
 BYTE   Fs4
 BYTE   W06
 BYTE   An4
 BYTE   W06
 BYTE   Dn5
 BYTE   W01
// 030   ----------------------------------------
 BYTE   W05
 BYTE   An4
 BYTE   W06
 BYTE   Fs4
 BYTE   W06
 BYTE   Dn4
 BYTE   W06
 BYTE   An3
 BYTE   W06
 BYTE   Fs3
 BYTE   W06
 BYTE   Dn3
 BYTE   W06
 BYTE   Fs3
 BYTE   W54
 BYTE   W01
// 031   ----------------------------------------
 BYTE   W96
// 032   ----------------------------------------
 BYTE   W56
 BYTE   W03
 BYTE   Cn3
 BYTE   W06
 BYTE   En3
 BYTE   W06
 BYTE   Gn3
 BYTE   W06
 BYTE   Cn4
 BYTE   W06
 BYTE   En4
 BYTE   W06
 BYTE   Gn4
 BYTE   W06
 BYTE   Cn5
 BYTE   W01
// 033   ----------------------------------------
Label_6_0144DFEB:
 BYTE   W05
 BYTE   N04  Gn4  v092
 BYTE   W06
 BYTE   En4
 BYTE   W06
 BYTE   Cn4
 BYTE   W06
 BYTE   Gn3
 BYTE   W06
 BYTE   En3
 BYTE   W06
 BYTE   Cn3
 BYTE   W06
 BYTE   En3
 BYTE   W06
 BYTE   Gn3
 BYTE   W06
 BYTE   Cn4
 BYTE   W06
 BYTE   En3
 BYTE   W06
 BYTE   Gn3
 BYTE   W06
 BYTE   Bn3
 BYTE   W06
 BYTE   En4
 BYTE   W06
 BYTE   Gn4
 BYTE   W06
 BYTE   Bn4
 BYTE   W06
 BYTE   En5
 BYTE   W01
 BYTE   PEND 
// 034   ----------------------------------------
Label_6_0144E00F:
 BYTE   W05
 BYTE   N04  Bn4  v092
 BYTE   W06
 BYTE   Dn3
 BYTE   W06
 BYTE   Fs3
 BYTE   W06
 BYTE   An3
 BYTE   W06
 BYTE   Dn4
 BYTE   W06
 BYTE   Fs4
 BYTE   W06
 BYTE   An4
 BYTE   W06
 BYTE   Dn5
 BYTE   W06
 BYTE   An4
 BYTE   W06
 BYTE   En3
 BYTE   W06
 BYTE   Gn3
 BYTE   W06
 BYTE   Bn3
 BYTE   W06
 BYTE   En4
 BYTE   W06
 BYTE   Gn4
 BYTE   W06
 BYTE   Bn4
 BYTE   W06
 BYTE   En5
 BYTE   W01
 BYTE   PEND 
// 035   ----------------------------------------
Label_6_0144E033:
 BYTE   W05
 BYTE   N04  Bn4  v092
 BYTE   W06
 BYTE   Gn4
 BYTE   W06
 BYTE   En4
 BYTE   W06
 BYTE   Bn3
 BYTE   W06
 BYTE   Gn3
 BYTE   W06
 BYTE   En3
 BYTE   W06
 BYTE   Gn3
 BYTE   W06
 BYTE   Bn3
 BYTE   W06
 BYTE   En4
 BYTE   W06
 BYTE   Gn3
 BYTE   W06
 BYTE   As3
 BYTE   W06
 BYTE   Dn4
 BYTE   W06
 BYTE   Gn4
 BYTE   W06
 BYTE   As4
 BYTE   W06
 BYTE   Dn5
 BYTE   W06
 BYTE   Gn5
 BYTE   W01
 BYTE   PEND 
// 036   ----------------------------------------
 BYTE   W05
 BYTE   Dn5
 BYTE   W06
 BYTE   Fn3
 BYTE   W06
 BYTE   An3
 BYTE   W06
 BYTE   Cn4
 BYTE   W06
 BYTE   Fn4
 BYTE   W06
 BYTE   An4
 BYTE   W06
 BYTE   Cn5
 BYTE   W06
 BYTE   Fn5
 BYTE   W06
 BYTE   Cn5
 BYTE   W06
 BYTE   Cn3
 BYTE   W06
 BYTE   En3
 BYTE   W06
 BYTE   Gn3
 BYTE   W06
 BYTE   Cn4
 BYTE   W06
 BYTE   En4
 BYTE   W06
 BYTE   Gn4
 BYTE   W06
 BYTE   Cn5
 BYTE   W01
 BYTE   PATT
  POIN2 Label_6_0144DFEB
 BYTE   PATT
  POIN2 Label_6_0144E00F
 BYTE   PATT
  POIN2 Label_6_0144E033
// 037   ----------------------------------------
 BYTE   W05
 BYTE   N04  Dn5  v092
 BYTE   W06
 BYTE   Fn3
 BYTE   W06
 BYTE   An3
 BYTE   W06
 BYTE   Cn4
 BYTE   W06
 BYTE   Fn4
 BYTE   W06
 BYTE   An4
 BYTE   W06
 BYTE   Cn5
 BYTE   W06
 BYTE   GoTo
  POIN2 Label_6_0144DDB9
 BYTE   FINE

//**************** Track 8 (Midi-Chn.7) ****************//

GoldenSunDarkDawnBattle1MrGreen3339_008:
// 000   ----------------------------------------
 BYTE   KEYSH   GoldenSunDarkDawnBattle1MrGreen3339_key+0
 BYTE   VOICE   24
 BYTE   VOL   59*GoldenSunDarkDawnBattle1MrGreen3339_mvl/mxv
 BYTE   PAN   c_v+0
 BYTE   N05  Gs0  v127
 BYTE   W06
 BYTE   N05
 BYTE   W12
 BYTE   Gs1
 BYTE   W12
 BYTE   Bn0
 BYTE   W06
 BYTE   Gs0
 BYTE   W06
 BYTE   Fn0
 BYTE   W06
Label_7_0144E0B6:
 BYTE   N17  En0  v127
 BYTE   W18
 BYTE   En1
 BYTE   W18
 BYTE   N11  En0
 BYTE   W12
// 001   ----------------------------------------
 BYTE   N17
 BYTE   W18
 BYTE   En1
 BYTE   W18
 BYTE   N11  En0
 BYTE   W12
 BYTE   N17  Bn0
 BYTE   W18
 BYTE   N17
 BYTE   W18
 BYTE   N11  Bn1
 BYTE   W12
// 002   ----------------------------------------
 BYTE   N17  Bn0
 BYTE   W18
 BYTE   N17
 BYTE   W18
 BYTE   N05  Bn1
 BYTE   W06
 BYTE   Bn0
 BYTE   W06
 BYTE   N17  An0
 BYTE   W18
 BYTE   N17
 BYTE   W18
 BYTE   N11  An1
 BYTE   W12
// 003   ----------------------------------------
 BYTE   N17  An0
 BYTE   W18
 BYTE   N17
 BYTE   W18
 BYTE   N05  An1
 BYTE   W06
 BYTE   N05
 BYTE   W06
 BYTE   N17  Bn0
 BYTE   W18
 BYTE   N17
 BYTE   W18
 BYTE   N11  Bn1
 BYTE   W12
// 004   ----------------------------------------
 BYTE   N05
 BYTE   W06
 BYTE   An1
 BYTE   W06
 BYTE   Gn1
 BYTE   W06
 BYTE   Fs1
 BYTE   W06
 BYTE   En1
 BYTE   W06
 BYTE   Ds1
 BYTE   W06
 BYTE   Cn1
 BYTE   W06
 BYTE   Bn0
 BYTE   W06
 BYTE   En0
 BYTE   W06
 BYTE   N05
 BYTE   W06
 BYTE   En1
 BYTE   W06
 BYTE   En0
 BYTE   W12
 BYTE   N05
 BYTE   W06
 BYTE   N11  En1
 BYTE   W12
// 005   ----------------------------------------
 BYTE   N05  Dn1
 BYTE   W06
 BYTE   N05
 BYTE   W06
 BYTE   Dn2
 BYTE   W06
 BYTE   Dn1
 BYTE   W12
 BYTE   N05
 BYTE   W06
 BYTE   N11  Dn2
 BYTE   W12
 BYTE   N05  Cn1
 BYTE   W06
 BYTE   N05
 BYTE   W06
 BYTE   Cn2
 BYTE   W06
 BYTE   Cn1
 BYTE   W12
 BYTE   N05
 BYTE   W06
 BYTE   N11  Cn2
 BYTE   W12
// 006   ----------------------------------------
 BYTE   N05
 BYTE   W06
 BYTE   Bn1
 BYTE   W06
 BYTE   Cn2
 BYTE   W06
 BYTE   Bn1
 BYTE   W06
 BYTE   An1
 BYTE   W06
 BYTE   Gn1
 BYTE   W06
 BYTE   Fs1
 BYTE   W06
 BYTE   En1
 BYTE   W06
 BYTE   Dn1
 BYTE   W06
 BYTE   N05
 BYTE   W06
 BYTE   Dn2
 BYTE   W06
 BYTE   Dn1
 BYTE   W12
 BYTE   N05
 BYTE   W06
 BYTE   N05
 BYTE   W06
 BYTE   En0
 BYTE   W06
// 007   ----------------------------------------
 BYTE   Fn0
 BYTE   W06
 BYTE   N05
 BYTE   W06
 BYTE   Fn1
 BYTE   W06
 BYTE   Fn0
 BYTE   W12
 BYTE   N05
 BYTE   W06
 BYTE   N11  Fn1
 BYTE   W12
 BYTE   N05  Gn0
 BYTE   W06
 BYTE   N05
 BYTE   W06
 BYTE   Gn1
 BYTE   W06
 BYTE   Gn0
 BYTE   W12
 BYTE   N05
 BYTE   W06
 BYTE   N11  Gn1
 BYTE   W12
// 008   ----------------------------------------
 BYTE   N05  Gn0
 BYTE   W06
 BYTE   Dn1
 BYTE   W06
 BYTE   Gn1
 BYTE   W06
 BYTE   Gn0
 BYTE   W06
 BYTE   Bn1
 BYTE   W06
 BYTE   Gn1
 BYTE   W06
 BYTE   Dn1
 BYTE   W06
 BYTE   Gn0
 BYTE   W06
 BYTE   N10  Fn0
 BYTE   W12
 BYTE   N10
 BYTE   W12
 BYTE   N10
 BYTE   W12
 BYTE   N10
 BYTE   W12
// 009   ----------------------------------------
 BYTE   N10
 BYTE   W12
 BYTE   N10
 BYTE   W12
 BYTE   N10
 BYTE   W12
 BYTE   N10
 BYTE   W12
 BYTE   N10
 BYTE   W12
 BYTE   N10
 BYTE   W12
 BYTE   N10
 BYTE   W12
 BYTE   N10
 BYTE   W12
// 010   ----------------------------------------
 BYTE   N10
 BYTE   W12
 BYTE   N10
 BYTE   W12
 BYTE   N10
 BYTE   W12
 BYTE   N05  An0
 BYTE   W06
 BYTE   Bn0
 BYTE   W06
 BYTE   N10  Cn1
 BYTE   W12
 BYTE   N10
 BYTE   W12
 BYTE   N10
 BYTE   W12
 BYTE   N10
 BYTE   W12
// 011   ----------------------------------------
 BYTE   N10
 BYTE   W12
 BYTE   N10
 BYTE   W12
 BYTE   N10
 BYTE   W12
 BYTE   N10
 BYTE   W12
 BYTE   Gn0
 BYTE   W12
 BYTE   N10
 BYTE   W12
 BYTE   N10
 BYTE   W12
 BYTE   N10
 BYTE   W12
// 012   ----------------------------------------
 BYTE   N05  Gn1
 BYTE   W06
 BYTE   Fn1
 BYTE   W06
 BYTE   En1
 BYTE   W06
 BYTE   Fn1
 BYTE   W06
 BYTE   En1
 BYTE   W06
 BYTE   Dn1
 BYTE   W06
 BYTE   Cn1
 BYTE   W06
 BYTE   Bn0
 BYTE   W06
 BYTE   Fn0
 BYTE   W06
 BYTE   N05
 BYTE   W06
 BYTE   Fn1
 BYTE   W06
 BYTE   N10  Fn0
 BYTE   W12
 BYTE   N05
 BYTE   W06
 BYTE   Fn1
 BYTE   W06
 BYTE   Fn0
 BYTE   W06
// 013   ----------------------------------------
 BYTE   N05
 BYTE   W06
 BYTE   N05
 BYTE   W06
 BYTE   Fn1
 BYTE   W06
 BYTE   N10  Fn0
 BYTE   W12
 BYTE   N05
 BYTE   W06
 BYTE   Fn1
 BYTE   W06
 BYTE   Fn0
 BYTE   W06
 BYTE   N05
 BYTE   W06
 BYTE   N05
 BYTE   W06
 BYTE   Fn1
 BYTE   W06
 BYTE   N10  Fn0
 BYTE   W12
 BYTE   N05
 BYTE   W06
 BYTE   Fn1
 BYTE   W06
 BYTE   Fn0
 BYTE   W06
// 014   ----------------------------------------
 BYTE   N05
 BYTE   W06
 BYTE   N05
 BYTE   W06
 BYTE   Fn1
 BYTE   W06
 BYTE   N10  Fn0
 BYTE   W12
 BYTE   N05
 BYTE   W06
 BYTE   Fn1
 BYTE   W06
 BYTE   Fn0
 BYTE   W06
 BYTE   Cn1
 BYTE   W06
 BYTE   N05
 BYTE   W06
 BYTE   Cn2
 BYTE   W06
 BYTE   N10  Cn1
 BYTE   W12
 BYTE   N05
 BYTE   W06
 BYTE   Cn2
 BYTE   W06
 BYTE   Cn1
 BYTE   W06
// 015   ----------------------------------------
 BYTE   N05
 BYTE   W06
 BYTE   N05
 BYTE   W06
 BYTE   Cn2
 BYTE   W06
 BYTE   N10  Cn1
 BYTE   W12
 BYTE   N05
 BYTE   W06
 BYTE   Cn2
 BYTE   W06
 BYTE   Cn1
 BYTE   W06
 BYTE   Gn0
 BYTE   W06
 BYTE   N05
 BYTE   W06
 BYTE   Gn1
 BYTE   W06
 BYTE   N10  Gn0
 BYTE   W12
 BYTE   N05
 BYTE   W06
 BYTE   Gn1
 BYTE   W06
 BYTE   Gn0
 BYTE   W06
// 016   ----------------------------------------
 BYTE   N05
 BYTE   W06
 BYTE   N05
 BYTE   W06
 BYTE   Gn1
 BYTE   W06
 BYTE   Gn0
 BYTE   W06
 BYTE   Gn1
 BYTE   W06
 BYTE   Gn0
 BYTE   W06
 BYTE   Gn1
 BYTE   W06
 BYTE   Gn0
 BYTE   W06
 BYTE   N10  An0
 BYTE   W12
 BYTE   N01
 BYTE   W12
 BYTE   N10
 BYTE   W12
 BYTE   N01
 BYTE   W12
// 017   ----------------------------------------
Label_7_0144E245:
 BYTE   N10  An0  v127
 BYTE   W12
 BYTE   N01
 BYTE   W12
 BYTE   N10
 BYTE   W12
 BYTE   N01
 BYTE   W12
 BYTE   N10
 BYTE   W12
 BYTE   N01
 BYTE   W12
 BYTE   N10
 BYTE   W12
 BYTE   N01
 BYTE   W12
 BYTE   PEND 
 BYTE   PATT
  POIN2 Label_7_0144E245
 BYTE   PATT
  POIN2 Label_7_0144E245
// 018   ----------------------------------------
 BYTE   N10  An0  v127
 BYTE   W12
 BYTE   N01
 BYTE   W12
 BYTE   N10
 BYTE   W12
 BYTE   N01
 BYTE   W12
 BYTE   N12
 BYTE   W18
 BYTE   N04
 BYTE   W12
 BYTE   N05  An1
 BYTE   W06
 BYTE   An0
 BYTE   W06
 BYTE   An1
 BYTE   W06
// 019   ----------------------------------------
Label_7_0144E277:
 BYTE   N12  An0  v127
 BYTE   W18
 BYTE   N04
 BYTE   W12
 BYTE   N05  An1
 BYTE   W06
 BYTE   An0
 BYTE   W06
 BYTE   An1
 BYTE   W06
 BYTE   N12  An0
 BYTE   W18
 BYTE   N04
 BYTE   W12
 BYTE   N05  An1
 BYTE   W06
 BYTE   An0
 BYTE   W06
 BYTE   An1
 BYTE   W06
 BYTE   PEND 
 BYTE   PATT
  POIN2 Label_7_0144E277
 BYTE   PATT
  POIN2 Label_7_0144E277
// 020   ----------------------------------------
 BYTE   N12  An0  v127
 BYTE   W18
 BYTE   N04
 BYTE   W12
 BYTE   N05  An1
 BYTE   W06
 BYTE   An0
 BYTE   W06
 BYTE   An1
 BYTE   W06
 BYTE   N17  Fn0
 BYTE   W18
 BYTE   N11
 BYTE   W12
 BYTE   N05  Fn1
 BYTE   W06
 BYTE   En1
 BYTE   W06
 BYTE   Fn1
 BYTE   W06
// 021   ----------------------------------------
 BYTE   N17  Fn0
 BYTE   W18
 BYTE   N11
 BYTE   W12
 BYTE   N05  Fn1
 BYTE   W06
 BYTE   En1
 BYTE   W06
 BYTE   Fn1
 BYTE   W06
 BYTE   N17  Fn0
 BYTE   W18
 BYTE   N11
 BYTE   W12
 BYTE   N05  Fn1
 BYTE   W06
 BYTE   En1
 BYTE   W06
 BYTE   Fn1
 BYTE   W06
// 022   ----------------------------------------
 BYTE   N17  Fn0
 BYTE   W18
 BYTE   N11
 BYTE   W12
 BYTE   N05  Fn1
 BYTE   W06
 BYTE   En1
 BYTE   W06
 BYTE   Fn1
 BYTE   W06
 BYTE   N17  Cn1
 BYTE   W18
 BYTE   N11
 BYTE   W12
 BYTE   N05  Cn2
 BYTE   W06
 BYTE   Bn1
 BYTE   W06
 BYTE   Cn2
 BYTE   W06
// 023   ----------------------------------------
 BYTE   N17  Dn1
 BYTE   W18
 BYTE   N11
 BYTE   W12
 BYTE   N05  Dn2
 BYTE   W06
 BYTE   An1
 BYTE   W06
 BYTE   Dn2
 BYTE   W06
 BYTE   N17  Bn0
 BYTE   W18
 BYTE   N11
 BYTE   W12
 BYTE   N05  Bn1
 BYTE   W06
 BYTE   An1
 BYTE   W06
 BYTE   Bn1
 BYTE   W06
// 024   ----------------------------------------
 BYTE   En0
 BYTE   W06
 BYTE   N05
 BYTE   W06
 BYTE   En1
 BYTE   W06
 BYTE   En0
 BYTE   W06
 BYTE   Dn1
 BYTE   W06
 BYTE   An1
 BYTE   W06
 BYTE   Dn2
 BYTE   W06
 BYTE   Dn1
 BYTE   W06
 BYTE   Cn1
 BYTE   W06
 BYTE   N05
 BYTE   W06
 BYTE   Cn2
 BYTE   W06
 BYTE   N11  Cn1
 BYTE   W12
 BYTE   N05
 BYTE   W06
 BYTE   Cn2
 BYTE   W06
 BYTE   Cn1
 BYTE   W06
// 025   ----------------------------------------
 BYTE   N05
 BYTE   W06
 BYTE   N05
 BYTE   W06
 BYTE   Cn2
 BYTE   W06
 BYTE   N11  Cn1
 BYTE   W12
 BYTE   N05
 BYTE   W06
 BYTE   Cn2
 BYTE   W06
 BYTE   Cn1
 BYTE   W06
 BYTE   Bn0
 BYTE   W06
 BYTE   N05
 BYTE   W06
 BYTE   Bn1
 BYTE   W06
 BYTE   N11  Bn0
 BYTE   W12
 BYTE   N05
 BYTE   W06
 BYTE   Bn1
 BYTE   W06
 BYTE   Bn0
 BYTE   W06
// 026   ----------------------------------------
 BYTE   N05
 BYTE   W06
 BYTE   N05
 BYTE   W06
 BYTE   Bn1
 BYTE   W06
 BYTE   N11  Bn0
 BYTE   W12
 BYTE   N05
 BYTE   W06
 BYTE   Bn1
 BYTE   W06
 BYTE   Bn0
 BYTE   W06
 BYTE   An0
 BYTE   W06
 BYTE   N05
 BYTE   W12
 BYTE   N05
 BYTE   W06
 BYTE   N05
 BYTE   W12
 BYTE   N05
 BYTE   W06
 BYTE   N05
 BYTE   W06
// 027   ----------------------------------------
 BYTE   W06
 BYTE   N05
 BYTE   W06
 BYTE   N05
 BYTE   W12
 BYTE   N10  An1
 BYTE   W12
 BYTE   An0
 BYTE   W12
 BYTE   N05
 BYTE   W06
 BYTE   N05
 BYTE   W12
 BYTE   N05
 BYTE   W06
 BYTE   N05
 BYTE   W12
 BYTE   N05
 BYTE   W06
 BYTE   N05
 BYTE   W06
// 028   ----------------------------------------
 BYTE   W06
 BYTE   N05
 BYTE   W06
 BYTE   N05
 BYTE   W12
 BYTE   N10  An1
 BYTE   W12
 BYTE   An0
 BYTE   W12
 BYTE   Cn1
 BYTE   W12
 BYTE   N05  Cn2
 BYTE   W06
 BYTE   Cn1
 BYTE   W12
 BYTE   N05
 BYTE   W06
 BYTE   N10  Cn2
 BYTE   W12
// 029   ----------------------------------------
Label_7_0144E380:
 BYTE   N10  Cn1  v127
 BYTE   W12
 BYTE   N05  Cn2
 BYTE   W06
 BYTE   Cn1
 BYTE   W12
 BYTE   N05
 BYTE   W06
 BYTE   N10  Cn2
 BYTE   W12
 BYTE   Cn1
 BYTE   W12
 BYTE   N05  Cn2
 BYTE   W06
 BYTE   Cn1
 BYTE   W12
 BYTE   N05
 BYTE   W06
 BYTE   N10  Cn2
 BYTE   W12
 BYTE   PEND 
 BYTE   PATT
  POIN2 Label_7_0144E380
 BYTE   PATT
  POIN2 Label_7_0144E380
 BYTE   PATT
  POIN2 Label_7_0144E380
 BYTE   PATT
  POIN2 Label_7_0144E380
 BYTE   PATT
  POIN2 Label_7_0144E380
 BYTE   PATT
  POIN2 Label_7_0144E380
// 030   ----------------------------------------
 BYTE   N10  Cn1  v127
 BYTE   W12
 BYTE   N05  Cn2
 BYTE   W06
 BYTE   Cn1
 BYTE   W12
 BYTE   N05
 BYTE   W06
 BYTE   N10  Cn2
 BYTE   W11
 BYTE   GoTo
  POIN2 Label_7_0144E0B6
 BYTE   FINE

//**************** Track 9 (Midi-Chn.8) ****************//

GoldenSunDarkDawnBattle1MrGreen3339_009:
// 000   ----------------------------------------
 BYTE   KEYSH   GoldenSunDarkDawnBattle1MrGreen3339_key+0
 BYTE   VOICE   127
 BYTE   VOL   56*GoldenSunDarkDawnBattle1MrGreen3339_mvl/mxv
 BYTE   PAN   c_v+0
 BYTE   N44  An2  v127
 BYTE   W48
Label_8_0144E3DC:
 BYTE   N48  An2  v127
 BYTE   W48
// 001   ----------------------------------------
 BYTE   W96
// 002   ----------------------------------------
 BYTE   W48
 BYTE   N44  An2  v120
 BYTE   W48
// 003   ----------------------------------------
Label_8_0144E3E6:
 BYTE   N44  An2  v120
 BYTE   W48
 BYTE   N48  An2  v127
 BYTE   W48
 BYTE   PEND 
// 004   ----------------------------------------
 BYTE   W48
 BYTE   N48
 BYTE   W48
// 005   ----------------------------------------
 BYTE   W96
// 006   ----------------------------------------
 BYTE   W96
 BYTE   PATT
  POIN2 Label_8_0144E3E6
// 007   ----------------------------------------
 BYTE   W48
 BYTE   N44  An2  v127
 BYTE   W48
// 008   ----------------------------------------
 BYTE   W96
// 009   ----------------------------------------
 BYTE   W96
// 010   ----------------------------------------
 BYTE   W96
// 011   ----------------------------------------
 BYTE   W48
 BYTE   N48
 BYTE   W48
// 012   ----------------------------------------
 BYTE   W96
// 013   ----------------------------------------
 BYTE   W96
// 014   ----------------------------------------
 BYTE   W48
 BYTE   N48
 BYTE   W48
// 015   ----------------------------------------
 BYTE   W96
// 016   ----------------------------------------
 BYTE   W96
// 017   ----------------------------------------
Label_8_0144E40B:
 BYTE   W24
 BYTE   N11  Gn2  v092
 BYTE   W12
 BYTE   N11
 BYTE   W60
 BYTE   PEND 
// 018   ----------------------------------------
 BYTE   W96
 BYTE   PATT
  POIN2 Label_8_0144E40B
// 019   ----------------------------------------
 BYTE   W96
// 020   ----------------------------------------
 BYTE   W24
 BYTE   N11  Gn2  v100
 BYTE   W12
 BYTE   N24  Gn2  v120
 BYTE   W60
// 021   ----------------------------------------
 BYTE   W96
// 022   ----------------------------------------
 BYTE   W48
 BYTE   N48  An2  v127
 BYTE   W48
// 023   ----------------------------------------
 BYTE   W96
// 024   ----------------------------------------
 BYTE   W48
 BYTE   N44  An2  v120
 BYTE   W48
 BYTE   PATT
  POIN2 Label_8_0144E3E6
// 025   ----------------------------------------
 BYTE   W48
 BYTE   N48  An2  v127
 BYTE   W48
// 026   ----------------------------------------
 BYTE   W96
// 027   ----------------------------------------
 BYTE   W96
// 028   ----------------------------------------
 BYTE   W96
// 029   ----------------------------------------
 BYTE   W48
 BYTE   N48
 BYTE   W48
// 030   ----------------------------------------
 BYTE   W96
// 031   ----------------------------------------
 BYTE   W48
 BYTE   N48
 BYTE   W48
// 032   ----------------------------------------
 BYTE   W96
// 033   ----------------------------------------
 BYTE   W48
 BYTE   N48
 BYTE   W48
// 034   ----------------------------------------
 BYTE   W96
// 035   ----------------------------------------
 BYTE   W48
 BYTE   N48
 BYTE   W48
// 036   ----------------------------------------
 BYTE   W96
// 037   ----------------------------------------
 BYTE   W44
 BYTE   W03
 BYTE   GoTo
  POIN2 Label_8_0144E3DC
 BYTE   FINE

//**************** Track 10 (Midi-Chn.9) ****************//

GoldenSunDarkDawnBattle1MrGreen3339_010:
// 000   ----------------------------------------
 BYTE   KEYSH   GoldenSunDarkDawnBattle1MrGreen3339_key+0
 BYTE   VOICE   127
 BYTE   VOL   65*GoldenSunDarkDawnBattle1MrGreen3339_mvl/mxv
 BYTE   PAN   c_v+0
 BYTE   W48
Label_9_0144E45D:
 BYTE   N10  Cn1  v127
 BYTE   W18
 BYTE   N10
 BYTE   W12
 BYTE   N05
 BYTE   W18
// 001   ----------------------------------------
Label_9_0144E465:
 BYTE   N10  Cn1  v127
 BYTE   W18
 BYTE   N10
 BYTE   W12
 BYTE   N05
 BYTE   W18
 BYTE   N10
 BYTE   W18
 BYTE   N10
 BYTE   W12
 BYTE   N05
 BYTE   W18
 BYTE   PEND 
 BYTE   PATT
  POIN2 Label_9_0144E465
 BYTE   PATT
  POIN2 Label_9_0144E465
 BYTE   PATT
  POIN2 Label_9_0144E465
 BYTE   PATT
  POIN2 Label_9_0144E465
 BYTE   PATT
  POIN2 Label_9_0144E465
 BYTE   PATT
  POIN2 Label_9_0144E465
// 002   ----------------------------------------
 BYTE   N05  Cn1  v127
 BYTE   W06
 BYTE   N05
 BYTE   W42
 BYTE   N10
 BYTE   W12
 BYTE   N10
 BYTE   W12
 BYTE   N10
 BYTE   W12
 BYTE   N10
 BYTE   W12
// 003   ----------------------------------------
Label_9_0144E4A0:
 BYTE   N10  Cn1  v127
 BYTE   W12
 BYTE   N10
 BYTE   W12
 BYTE   N10
 BYTE   W12
 BYTE   N10
 BYTE   W12
 BYTE   N10
 BYTE   W12
 BYTE   N10
 BYTE   W12
 BYTE   N10
 BYTE   W12
 BYTE   N10
 BYTE   W12
 BYTE   PEND 
// 004   ----------------------------------------
 BYTE   N10
 BYTE   W12
 BYTE   N10
 BYTE   W24
 BYTE   N10
 BYTE   W12
 BYTE   N10
 BYTE   W12
 BYTE   N10
 BYTE   W12
 BYTE   N10
 BYTE   W12
 BYTE   N10
 BYTE   W12
 BYTE   PATT
  POIN2 Label_9_0144E4A0
// 005   ----------------------------------------
 BYTE   N10  Cn1  v127
 BYTE   W12
 BYTE   N10
 BYTE   W36
 BYTE   N10
 BYTE   W18
 BYTE   N10
 BYTE   W12
 BYTE   N05
 BYTE   W18
 BYTE   PATT
  POIN2 Label_9_0144E465
 BYTE   PATT
  POIN2 Label_9_0144E465
 BYTE   PATT
  POIN2 Label_9_0144E465
 BYTE   PATT
  POIN2 Label_9_0144E465
 BYTE   PATT
  POIN2 Label_9_0144E465
 BYTE   PATT
  POIN2 Label_9_0144E465
 BYTE   PATT
  POIN2 Label_9_0144E465
 BYTE   PATT
  POIN2 Label_9_0144E465
 BYTE   PATT
  POIN2 Label_9_0144E465
 BYTE   PATT
  POIN2 Label_9_0144E465
 BYTE   PATT
  POIN2 Label_9_0144E465
// 006   ----------------------------------------
 BYTE   N05  Cn1  v127
 BYTE   W06
 BYTE   N05
 BYTE   W42
 BYTE   N10
 BYTE   W18
 BYTE   N10
 BYTE   W12
 BYTE   N05
 BYTE   W18
 BYTE   PATT
  POIN2 Label_9_0144E465
 BYTE   PATT
  POIN2 Label_9_0144E465
 BYTE   PATT
  POIN2 Label_9_0144E465
 BYTE   PATT
  POIN2 Label_9_0144E465
 BYTE   PATT
  POIN2 Label_9_0144E465
// 007   ----------------------------------------
 BYTE   N10  Cn1  v127
 BYTE   W18
 BYTE   N10
 BYTE   W12
 BYTE   N05
 BYTE   W66
// 008   ----------------------------------------
 BYTE   W96
// 009   ----------------------------------------
 BYTE   W48
 BYTE   N10
 BYTE   W18
 BYTE   N10
 BYTE   W12
 BYTE   N05
 BYTE   W18
 BYTE   PATT
  POIN2 Label_9_0144E465
 BYTE   PATT
  POIN2 Label_9_0144E465
 BYTE   PATT
  POIN2 Label_9_0144E465
 BYTE   PATT
  POIN2 Label_9_0144E465
 BYTE   PATT
  POIN2 Label_9_0144E465
 BYTE   PATT
  POIN2 Label_9_0144E465
 BYTE   PATT
  POIN2 Label_9_0144E465
// 010   ----------------------------------------
 BYTE   N05  Cn1  v127
 BYTE   W06
 BYTE   N05
 BYTE   W40
 BYTE   W01
 BYTE   GoTo
  POIN2 Label_9_0144E45D
 BYTE   FINE

//**************** Track 11 (Midi-Chn.10) ****************//

GoldenSunDarkDawnBattle1MrGreen3339_011:
// 000   ----------------------------------------
 BYTE   KEYSH   GoldenSunDarkDawnBattle1MrGreen3339_key+0
 BYTE   VOICE   127
 BYTE   VOL   61*GoldenSunDarkDawnBattle1MrGreen3339_mvl/mxv
 BYTE   PAN   c_v+0
 BYTE   Gs4
 BYTE   W01
 BYTE   N02  Cn2  v127
 BYTE   W03
 BYTE   N03  Cn2  v100
 BYTE   W04
 BYTE   Cn2  v080
 BYTE   W04
 BYTE   PAN   c_v+0
 BYTE   W01
 BYTE   N02  Bn1  v127
 BYTE   W03
 BYTE   N03  Bn1  v100
 BYTE   W04
 BYTE   Bn1  v080
 BYTE   W04
 BYTE   PAN   c_v-24
 BYTE   W01
 BYTE   N02  An1  v127
 BYTE   W03
 BYTE   N03  An1  v100
 BYTE   W04
 BYTE   An1  v080
 BYTE   W03
 BYTE   PAN   c_v+0
 BYTE   W01
 BYTE   N05  Dn1  v120
 BYTE   W06
 BYTE   N05
 BYTE   W06
Label_10_0144E5AA:
 BYTE   W12
 BYTE   N11  Dn1  v120
 BYTE   W24
 BYTE   N11
 BYTE   W12
// 001   ----------------------------------------
Label_10_0144E5B1:
 BYTE   W12
 BYTE   N11  Dn1  v120
 BYTE   W24
 BYTE   N11
 BYTE   W24
 BYTE   N11
 BYTE   W24
 BYTE   N11
 BYTE   W12
 BYTE   PEND 
 BYTE   PATT
  POIN2 Label_10_0144E5B1
 BYTE   PATT
  POIN2 Label_10_0144E5B1
// 002   ----------------------------------------
Label_10_0144E5C7:
 BYTE   W12
 BYTE   N11  Dn1  v120
 BYTE   W24
 BYTE   N05
 BYTE   W06
 BYTE   N05
 BYTE   W18
 BYTE   N11
 BYTE   W24
 BYTE   N11
 BYTE   W12
 BYTE   PEND 
 BYTE   PATT
  POIN2 Label_10_0144E5B1
 BYTE   PATT
  POIN2 Label_10_0144E5B1
 BYTE   PATT
  POIN2 Label_10_0144E5B1
// 003   ----------------------------------------
 BYTE   W12
 BYTE   N11  Dn1  v120
 BYTE   W12
 BYTE   N05
 BYTE   W06
 BYTE   N05
 BYTE   W06
 BYTE   N05
 BYTE   W06
 BYTE   N05
 BYTE   W54
// 004   ----------------------------------------
 BYTE   W96
// 005   ----------------------------------------
 BYTE   W24
 BYTE   N12
 BYTE   W72
// 006   ----------------------------------------
 BYTE   W96
// 007   ----------------------------------------
 BYTE   W24
 BYTE   N11
 BYTE   W12
 BYTE   N11
 BYTE   W24
 BYTE   N11
 BYTE   W24
 BYTE   N11
 BYTE   W12
 BYTE   PATT
  POIN2 Label_10_0144E5B1
 BYTE   PATT
  POIN2 Label_10_0144E5B1
 BYTE   PATT
  POIN2 Label_10_0144E5B1
 BYTE   PATT
  POIN2 Label_10_0144E5C7
 BYTE   PATT
  POIN2 Label_10_0144E5B1
 BYTE   PATT
  POIN2 Label_10_0144E5B1
 BYTE   PATT
  POIN2 Label_10_0144E5B1
 BYTE   PATT
  POIN2 Label_10_0144E5C7
 BYTE   PATT
  POIN2 Label_10_0144E5B1
 BYTE   PATT
  POIN2 Label_10_0144E5B1
 BYTE   PATT
  POIN2 Label_10_0144E5B1
// 008   ----------------------------------------
 BYTE   W12
 BYTE   N10  Dn1  v120
 BYTE   W12
 BYTE   PAN   c_v-24
 BYTE   W01
 BYTE   N04  Cn2
 BYTE   W05
 BYTE   N05
 BYTE   W06
 BYTE   PAN   c_v+0
 BYTE   W01
 BYTE   N04  Bn1
 BYTE   W05
 BYTE   PAN   c_v+16
 BYTE   W01
 BYTE   N04  An1
 BYTE   W11
 BYTE   PAN   c_v+0
 BYTE   W06
 BYTE   N11  Dn1
 BYTE   W24
 BYTE   N11
 BYTE   W12
 BYTE   PATT
  POIN2 Label_10_0144E5B1
 BYTE   PATT
  POIN2 Label_10_0144E5B1
 BYTE   PATT
  POIN2 Label_10_0144E5B1
 BYTE   PATT
  POIN2 Label_10_0144E5C7
 BYTE   PATT
  POIN2 Label_10_0144E5B1
// 009   ----------------------------------------
 BYTE   W12
 BYTE   N11  Dn1  v120
 BYTE   W24
 BYTE   N11
 BYTE   W12
 BYTE   N05
 BYTE   W06
 BYTE   N10
 BYTE   W12
 BYTE   N05
 BYTE   W06
 BYTE   N10
 BYTE   W12
 BYTE   N05
 BYTE   W06
 BYTE   N10
 BYTE   W06
// 010   ----------------------------------------
 BYTE   W06
 BYTE   N05
 BYTE   W06
 BYTE   N10
 BYTE   W12
 BYTE   N10
 BYTE   W12
 BYTE   N10
 BYTE   W12
 BYTE   N05
 BYTE   W06
 BYTE   N10
 BYTE   W12
 BYTE   N05
 BYTE   W06
 BYTE   N10
 BYTE   W12
 BYTE   N05
 BYTE   W06
 BYTE   N10
 BYTE   W06
// 011   ----------------------------------------
 BYTE   W06
 BYTE   N05
 BYTE   W06
 BYTE   N10
 BYTE   W12
 BYTE   N10
 BYTE   W12
 BYTE   N10
 BYTE   W24
 BYTE   N11
 BYTE   W24
 BYTE   N11
 BYTE   W12
 BYTE   PATT
  POIN2 Label_10_0144E5B1
 BYTE   PATT
  POIN2 Label_10_0144E5B1
 BYTE   PATT
  POIN2 Label_10_0144E5B1
 BYTE   PATT
  POIN2 Label_10_0144E5C7
 BYTE   PATT
  POIN2 Label_10_0144E5B1
 BYTE   PATT
  POIN2 Label_10_0144E5B1
 BYTE   PATT
  POIN2 Label_10_0144E5B1
// 012   ----------------------------------------
 BYTE   W12
 BYTE   N11  Dn1  v120
 BYTE   W12
 BYTE   N05
 BYTE   W06
 BYTE   N05
 BYTE   W06
 BYTE   N05
 BYTE   W06
 BYTE   N05
 BYTE   W05
 BYTE   GoTo
  POIN2 Label_10_0144E5AA
 BYTE   FINE

//**************** Track 12 (Midi-Chn.11) ****************//

GoldenSunDarkDawnBattle1MrGreen3339_012:
// 000   ----------------------------------------
 BYTE   KEYSH   GoldenSunDarkDawnBattle1MrGreen3339_key+0
 BYTE   VOICE   48
 BYTE   VOL   40*GoldenSunDarkDawnBattle1MrGreen3339_mvl/mxv
 BYTE   PAN   c_v+0
 BYTE   W48
Label_11_0144E6E5:
 BYTE   W11
 BYTE   N44  Gn4  v112
 BYTE   W36
 BYTE   W01
// 001   ----------------------------------------
 BYTE   W11
 BYTE   N11  Fs4
 BYTE   W12
 BYTE   En4
 BYTE   W12
 BYTE   Fs4
 BYTE   W12
 BYTE   Gn4
 BYTE   W12
 BYTE   N17  Bn4
 BYTE   W18
 BYTE   N28  Dn4
 BYTE   W19
// 002   ----------------------------------------
 BYTE   W11
 BYTE   N11  Bn3
 BYTE   W12
 BYTE   Cn4
 BYTE   W12
 BYTE   Dn4
 BYTE   W12
 BYTE   Fs4
 BYTE   W12
 BYTE   N17  Gn4
 BYTE   W18
 BYTE   Fs4
 BYTE   W18
 BYTE   N11  Gn4
 BYTE   W01
// 003   ----------------------------------------
 BYTE   W11
 BYTE   En4
 BYTE   W12
 BYTE   Fs4
 BYTE   W12
 BYTE   Gn4
 BYTE   W12
 BYTE   An4
 BYTE   W12
 BYTE   N44  Bn4
 BYTE   W36
 BYTE   W01
// 004   ----------------------------------------
 BYTE   W11
 BYTE   N23  Fs4
 BYTE   W24
 BYTE   Bn3
 BYTE   W24
 BYTE   N44  En4
 BYTE   W36
 BYTE   W01
// 005   ----------------------------------------
 BYTE   W11
 BYTE   N17  Fs4
 BYTE   W18
 BYTE   Gn4
 BYTE   W18
 BYTE   N11  An4
 BYTE   W12
 BYTE   N17  Gn4
 BYTE   W18
 BYTE   Fs4
 BYTE   W18
 BYTE   N11  Gn4
 BYTE   W01
// 006   ----------------------------------------
 BYTE   W11
 BYTE   N23  An4
 BYTE   W24
 BYTE   Bn4
 BYTE   W24
 BYTE   N17  Dn5
 BYTE   W18
 BYTE   Cn5
 BYTE   W18
 BYTE   N11  Bn4
 BYTE   W01
// 007   ----------------------------------------
 BYTE   W11
 BYTE   N17  Cn5
 BYTE   W18
 BYTE   Bn4
 BYTE   W18
 BYTE   N11  An4
 BYTE   W12
 BYTE   N17  Gn4
 BYTE   W18
 BYTE   Cn5
 BYTE   W18
 BYTE   N11  Dn5
 BYTE   W01
// 008   ----------------------------------------
 BYTE   W11
 BYTE   N32  Bn4
 BYTE   W84
 BYTE   W01
// 009   ----------------------------------------
 BYTE   W96
// 010   ----------------------------------------
 BYTE   W96
// 011   ----------------------------------------
 BYTE   W96
// 012   ----------------------------------------
 BYTE   W96
// 013   ----------------------------------------
 BYTE   W96
// 014   ----------------------------------------
 BYTE   W96
// 015   ----------------------------------------
 BYTE   W96
// 016   ----------------------------------------
 BYTE   W96
// 017   ----------------------------------------
 BYTE   W96
// 018   ----------------------------------------
 BYTE   W96
// 019   ----------------------------------------
 BYTE   W96
// 020   ----------------------------------------
 BYTE   W96
// 021   ----------------------------------------
 BYTE   W96
// 022   ----------------------------------------
 BYTE   W96
// 023   ----------------------------------------
 BYTE   W96
// 024   ----------------------------------------
 BYTE   W96
// 025   ----------------------------------------
 BYTE   W96
// 026   ----------------------------------------
 BYTE   W96
// 027   ----------------------------------------
 BYTE   W96
// 028   ----------------------------------------
 BYTE   W96
// 029   ----------------------------------------
 BYTE   W96
// 030   ----------------------------------------
 BYTE   W96
// 031   ----------------------------------------
 BYTE   W96
// 032   ----------------------------------------
 BYTE   W96
// 033   ----------------------------------------
 BYTE   W96
// 034   ----------------------------------------
 BYTE   W96
// 035   ----------------------------------------
 BYTE   W96
// 036   ----------------------------------------
 BYTE   W96
// 037   ----------------------------------------
 BYTE   W96
// 038   ----------------------------------------
 BYTE   W96
// 039   ----------------------------------------
 BYTE   W96
// 040   ----------------------------------------
 BYTE   W44
 BYTE   W03
 BYTE   GoTo
  POIN2 Label_11_0144E6E5
 BYTE   FINE

//******************************************************//
	ALIGN 4

GoldenSunDarkDawnBattle1MrGreen3339:
	BYTE	12	// NumTrks
	BYTE	0	// NumBlks
	BYTE	GoldenSunDarkDawnBattle1MrGreen3339_pri	// Priority
	BYTE	GoldenSunDarkDawnBattle1MrGreen3339_rev	// Reverb.
    
	POIN2	GoldenSunDarkDawnBattle1MrGreen3339_grp
    
	POIN2	GoldenSunDarkDawnBattle1MrGreen3339_001
	POIN2	GoldenSunDarkDawnBattle1MrGreen3339_002
	POIN2	GoldenSunDarkDawnBattle1MrGreen3339_003
	POIN2	GoldenSunDarkDawnBattle1MrGreen3339_004
	POIN2	GoldenSunDarkDawnBattle1MrGreen3339_005
	POIN2	GoldenSunDarkDawnBattle1MrGreen3339_006
	POIN2	GoldenSunDarkDawnBattle1MrGreen3339_007
	POIN2	GoldenSunDarkDawnBattle1MrGreen3339_008
	POIN2	GoldenSunDarkDawnBattle1MrGreen3339_009
	POIN2	GoldenSunDarkDawnBattle1MrGreen3339_010
	POIN2	GoldenSunDarkDawnBattle1MrGreen3339_011
	POIN2	GoldenSunDarkDawnBattle1MrGreen3339_012

	
