//Event file generated from Sappy .s format.
	#include "MPlayDef.event"

	#define	TalesOfSymphoniaFunWithIdolAReliableChair_grp  voicegroup000
	#define	TalesOfSymphoniaFunWithIdolAReliableChair_pri  0
	#define	TalesOfSymphoniaFunWithIdolAReliableChair_rev  0
	#define	TalesOfSymphoniaFunWithIdolAReliableChair_mvl  127
	#define	TalesOfSymphoniaFunWithIdolAReliableChair_key  0
	#define	TalesOfSymphoniaFunWithIdolAReliableChair_tbs  1
	#define	TalesOfSymphoniaFunWithIdolAReliableChair_exg  0
	#define	TalesOfSymphoniaFunWithIdolAReliableChair_cmp  1

	// .rodata
	//	TalesOfSymphoniaFunWithIdolAReliableChair
	ALIGN 4


//**************** Track 1 (Midi-Chn.0) ****************//

TalesOfSymphoniaFunWithIdolAReliableChair_001:
// 000   ----------------------------------------
 BYTE   KEYSH   TalesOfSymphoniaFunWithIdolAReliableChair_key+0
Label_0_012CF302:
 BYTE   TEMPO   240*TalesOfSymphoniaFunWithIdolAReliableChair_tbs/2
 BYTE   VOICE   73
 BYTE   MODT 0
 BYTE   CnM2
 BYTE   LFOS 0
 BYTE   Gs1
 BYTE   VOL   127*TalesOfSymphoniaFunWithIdolAReliableChair_mvl/mxv
 BYTE   PAN   c_v+0
 BYTE   VOL   127*TalesOfSymphoniaFunWithIdolAReliableChair_mvl/mxv
 BYTE   W18
 BYTE   Cs5
 BYTE   W06
 BYTE   TEMPO   150*TalesOfSymphoniaFunWithIdolAReliableChair_tbs/2
 BYTE   W24
 BYTE   N12  En4  v036
 BYTE   W24
 BYTE   Dn4
 BYTE   W12
 BYTE   Cn4
 BYTE   W12
// 001   ----------------------------------------
 BYTE   W12
 BYTE   Dn4
 BYTE   W24
 BYTE   An3
 BYTE   W24
 BYTE   N12
 BYTE   W24
 BYTE   Cn4
 BYTE   W12
// 002   ----------------------------------------
 BYTE   N12
 BYTE   W12
 BYTE   An3
 BYTE   W12
 BYTE   Dn4
 BYTE   W24
 BYTE   N12
 BYTE   W12
 BYTE   An3
 BYTE   W12
 BYTE   Cn4
 BYTE   W12
 BYTE   Dn4
 BYTE   W12
// 003   ----------------------------------------
 BYTE   W12
 BYTE   En4
 BYTE   W24
 BYTE   Dn4
 BYTE   W36
 BYTE   N12
 BYTE   W12
 BYTE   Dn5
 BYTE   W12
// 004   ----------------------------------------
 BYTE   Dn4
 BYTE   W12
 BYTE   Dn5
 BYTE   W36
 BYTE   Fn4
 BYTE   W12
 BYTE   En4
 BYTE   W12
 BYTE   Dn4
 BYTE   W12
 BYTE   Cn4
 BYTE   W12
// 005   ----------------------------------------
 BYTE   W12
 BYTE   Bn3
 BYTE   W24
 BYTE   Gn3
 BYTE   W24
 BYTE   N12
 BYTE   W12
 BYTE   An3
 BYTE   W24
// 006   ----------------------------------------
 BYTE   Bn3
 BYTE   W24
 BYTE   Cn4
 BYTE   W24
 BYTE   N12
 BYTE   W12
 BYTE   An3
 BYTE   W12
 BYTE   Cn4
 BYTE   W12
 BYTE   Dn4
 BYTE   W12
// 007   ----------------------------------------
 BYTE   W12
 BYTE   En4
 BYTE   W24
 BYTE   Dn4
 BYTE   W36
 BYTE   Gn3
 BYTE   W12
 BYTE   Gn4
 BYTE   W12
// 008   ----------------------------------------
 BYTE   Gn3
 BYTE   W12
 BYTE   Gn4
 BYTE   W36
 BYTE   N24  An4
 BYTE   W24
 BYTE   N12  Gn4
 BYTE   W12
 BYTE   Fn4
 BYTE   W12
// 009   ----------------------------------------
 BYTE   En4
 BYTE   W12
 BYTE   Dn4
 BYTE   W12
 BYTE   En4
 BYTE   W12
 BYTE   Cn4
 BYTE   W24
 BYTE   N12
 BYTE   W24
 BYTE   N12
 BYTE   W12
// 010   ----------------------------------------
 BYTE   An3
 BYTE   W12
 BYTE   Cn4
 BYTE   W12
 BYTE   N24  Dn4
 BYTE   W24
 BYTE   N12
 BYTE   W12
 BYTE   An3
 BYTE   W12
 BYTE   Dn4
 BYTE   W12
 BYTE   En4
 BYTE   W12
// 011   ----------------------------------------
 BYTE   W12
 BYTE   Dn4
 BYTE   W72
 BYTE   Gn3
 BYTE   W12
// 012   ----------------------------------------
 BYTE   An3
 BYTE   W12
 BYTE   Bn3
 BYTE   W12
 BYTE   N24  Cn4
 BYTE   W24
 BYTE   N12
 BYTE   W12
 BYTE   Bn3
 BYTE   W12
 BYTE   Cn4
 BYTE   W12
 BYTE   Dn4
 BYTE   W12
// 013   ----------------------------------------
 BYTE   W12
 BYTE   En4
 BYTE   W24
 BYTE   Dn4
 BYTE   W24
 BYTE   N12
 BYTE   W12
 BYTE   En4
 BYTE   W12
 BYTE   Dn4
 BYTE   W12
// 014   ----------------------------------------
 BYTE   Cn4
 BYTE   W12
 BYTE   Dn4
 BYTE   W12
 BYTE   N24  Cn4
 BYTE   W24
 BYTE   N12
 BYTE   W12
 BYTE   An3
 BYTE   W12
 BYTE   Cn4
 BYTE   W12
 BYTE   Dn4
 BYTE   W12
// 015   ----------------------------------------
 BYTE   W12
 BYTE   Cn4
 BYTE   W48
 BYTE   N12
 BYTE   W12
 BYTE   Dn4
 BYTE   W24
// 016   ----------------------------------------
 BYTE   En4
 BYTE   W12
 BYTE   VOL   127*TalesOfSymphoniaFunWithIdolAReliableChair_mvl/mxv
 BYTE   W84
// 017   ----------------------------------------
 BYTE   W96
// 018   ----------------------------------------
 BYTE   W96
// 019   ----------------------------------------
 BYTE   W96
// 020   ----------------------------------------
 BYTE   W96
// 021   ----------------------------------------
 BYTE   W96
// 022   ----------------------------------------
 BYTE   W96
// 023   ----------------------------------------
 BYTE   W96
// 024   ----------------------------------------
 BYTE   W96
// 025   ----------------------------------------
 BYTE   W96
// 026   ----------------------------------------
 BYTE   W96
// 027   ----------------------------------------
 BYTE   W96
// 028   ----------------------------------------
 BYTE   W96
// 029   ----------------------------------------
 BYTE   W96
// 030   ----------------------------------------
 BYTE   W96
// 031   ----------------------------------------
 BYTE   W96
// 032   ----------------------------------------
 BYTE   W24
 BYTE   GoTo
  POIN2 Label_0_012CF302
 BYTE   FINE

//**************** Track 2 (Midi-Chn.1) ****************//

TalesOfSymphoniaFunWithIdolAReliableChair_002:
// 000   ----------------------------------------
 BYTE   KEYSH   TalesOfSymphoniaFunWithIdolAReliableChair_key+0
Label_1_012CF3E2:
 BYTE   VOICE   18
 BYTE   MODT 0
 BYTE   CnM2
 BYTE   LFOS 0
 BYTE   Gs1
 BYTE   VOL   47*TalesOfSymphoniaFunWithIdolAReliableChair_mvl/mxv
 BYTE   PAN   c_v+0
 BYTE   VOL   47*TalesOfSymphoniaFunWithIdolAReliableChair_mvl/mxv
 BYTE   W18
 BYTE   Gn0
 BYTE   W18
 BYTE   N12  Cn4  v036
 BYTE   W36
 BYTE   N12
 BYTE   W24
// 001   ----------------------------------------
 BYTE   W24
 BYTE   Gn4
 BYTE   W36
 BYTE   Cn4
 BYTE   W36
// 002   ----------------------------------------
Label_1_012CF3FC:
 BYTE   W36
 BYTE   N12  An4  v036
 BYTE   W36
 BYTE   N12
 BYTE   W24
 BYTE   PEND 
// 003   ----------------------------------------
 BYTE   W24
 BYTE   N12
 BYTE   W36
 BYTE   Fn4
 BYTE   W36
// 004   ----------------------------------------
Label_1_012CF409:
 BYTE   W36
 BYTE   N12  Gn4  v036
 BYTE   W36
 BYTE   N12
 BYTE   W24
 BYTE   PEND 
// 005   ----------------------------------------
Label_1_012CF411:
 BYTE   W24
 BYTE   N12  Bn3  v036
 BYTE   W36
 BYTE   Gn4
 BYTE   W36
 BYTE   PEND 
 BYTE   PATT
  POIN2 Label_1_012CF409
// 006   ----------------------------------------
 BYTE   W12
 BYTE   N12  Bn3  v036
 BYTE   W24
 BYTE   Bn4
 BYTE   W36
 BYTE   Gn4
 BYTE   W24
// 007   ----------------------------------------
 BYTE   W12
 BYTE   N12
 BYTE   W24
 BYTE   N12
 BYTE   W36
 BYTE   N12
 BYTE   W24
// 008   ----------------------------------------
 BYTE   W24
 BYTE   N12
 BYTE   W36
 BYTE   N12
 BYTE   W36
 BYTE   PATT
  POIN2 Label_1_012CF3FC
// 009   ----------------------------------------
 BYTE   W24
 BYTE   N12  An4  v036
 BYTE   W36
 BYTE   N12
 BYTE   W36
 BYTE   PATT
  POIN2 Label_1_012CF409
 BYTE   PATT
  POIN2 Label_1_012CF411
 BYTE   PATT
  POIN2 Label_1_012CF409
// 010   ----------------------------------------
 BYTE   W12
 BYTE   N12  Gn4  v036
 BYTE   W24
 BYTE   Cn4
 BYTE   W36
 BYTE   Gn4
 BYTE   W24
// 011   ----------------------------------------
 BYTE   N12
 BYTE   W36
 BYTE   Fn5
 BYTE   W24
 BYTE   An5
 BYTE   W24
 BYTE   N12
 BYTE   W12
// 012   ----------------------------------------
Label_1_012CF45F:
 BYTE   W12
 BYTE   N12  An5  v036
 BYTE   W24
 BYTE   N12
 BYTE   W24
 BYTE   N12
 BYTE   W24
 BYTE   N12
 BYTE   W12
 BYTE   PEND 
// 013   ----------------------------------------
Label_1_012CF46B:
 BYTE   W12
 BYTE   N12  An5  v036
 BYTE   W24
 BYTE   Gn5
 BYTE   W24
 BYTE   N12
 BYTE   W24
 BYTE   N12
 BYTE   W12
 BYTE   PEND 
// 014   ----------------------------------------
Label_1_012CF477:
 BYTE   W12
 BYTE   N12  Gn5  v036
 BYTE   W24
 BYTE   N12
 BYTE   W24
 BYTE   N12
 BYTE   W24
 BYTE   N12
 BYTE   W12
 BYTE   PEND 
// 015   ----------------------------------------
Label_1_012CF483:
 BYTE   W12
 BYTE   N12  Gn5  v036
 BYTE   W24
 BYTE   Fn5
 BYTE   W24
 BYTE   An5
 BYTE   W24
 BYTE   N12
 BYTE   W12
 BYTE   PEND 
// 016   ----------------------------------------
 BYTE   W12
 BYTE   N12
 BYTE   W24
 BYTE   Dn5
 BYTE   W24
 BYTE   Gn5
 BYTE   W24
 BYTE   N12
 BYTE   W12
// 017   ----------------------------------------
 BYTE   W12
 BYTE   N12
 BYTE   W24
 BYTE   En5
 BYTE   W24
 BYTE   Gn5
 BYTE   W24
 BYTE   N12
 BYTE   W12
// 018   ----------------------------------------
 BYTE   W12
 BYTE   N12
 BYTE   W24
 BYTE   En5
 BYTE   W24
 BYTE   Fs5
 BYTE   W24
 BYTE   Fn5
 BYTE   W12
// 019   ----------------------------------------
 BYTE   W12
 BYTE   En5
 BYTE   W24
 BYTE   Fn5
 BYTE   W24
 BYTE   An5
 BYTE   W24
 BYTE   N12
 BYTE   W12
 BYTE   PATT
  POIN2 Label_1_012CF45F
 BYTE   PATT
  POIN2 Label_1_012CF46B
 BYTE   PATT
  POIN2 Label_1_012CF477
 BYTE   PATT
  POIN2 Label_1_012CF483
// 020   ----------------------------------------
 BYTE   W12
 BYTE   N12  An5  v036
 BYTE   W24
 BYTE   Fn5
 BYTE   W24
 BYTE   An5
 BYTE   W24
 BYTE   N12
 BYTE   W12
// 021   ----------------------------------------
 BYTE   W12
 BYTE   N12
 BYTE   W24
 BYTE   Fn5
 BYTE   W24
 BYTE   Gn5
 BYTE   W24
 BYTE   N12
 BYTE   W12
// 022   ----------------------------------------
 BYTE   W12
 BYTE   N12
 BYTE   W24
 BYTE   Fn5
 BYTE   W24
 BYTE   Gn5
 BYTE   W24
 BYTE   N12
 BYTE   W12
// 023   ----------------------------------------
 BYTE   W12
 BYTE   N12
 BYTE   W12
 BYTE   GoTo
  POIN2 Label_1_012CF3E2
 BYTE   FINE

//**************** Track 3 (Midi-Chn.2) ****************//

TalesOfSymphoniaFunWithIdolAReliableChair_003:
// 000   ----------------------------------------
 BYTE   KEYSH   TalesOfSymphoniaFunWithIdolAReliableChair_key+0
Label_2_012CF4F2:
 BYTE   VOICE   18
 BYTE   MODT 0
 BYTE   CnM2
 BYTE   LFOS 0
 BYTE   Gs1
 BYTE   VOL   47*TalesOfSymphoniaFunWithIdolAReliableChair_mvl/mxv
 BYTE   PAN   c_v+0
 BYTE   VOL   47*TalesOfSymphoniaFunWithIdolAReliableChair_mvl/mxv
 BYTE   W18
 BYTE   Gn0
 BYTE   W18
 BYTE   N12  En4  v036
 BYTE   W36
 BYTE   N12
 BYTE   W24
// 001   ----------------------------------------
 BYTE   W24
 BYTE   Cn4
 BYTE   W36
 BYTE   En4
 BYTE   W36
// 002   ----------------------------------------
Label_2_012CF50C:
 BYTE   W36
 BYTE   N12  Dn4  v036
 BYTE   W36
 BYTE   N12
 BYTE   W24
 BYTE   PEND 
// 003   ----------------------------------------
Label_2_012CF514:
 BYTE   W24
 BYTE   N12  Dn4  v036
 BYTE   W36
 BYTE   N12
 BYTE   W36
 BYTE   PEND 
// 004   ----------------------------------------
Label_2_012CF51C:
 BYTE   W36
 BYTE   N12  Bn3  v036
 BYTE   W36
 BYTE   N12
 BYTE   W24
 BYTE   PEND 
// 005   ----------------------------------------
Label_2_012CF524:
 BYTE   W24
 BYTE   N12  Gn4  v036
 BYTE   W36
 BYTE   Bn3
 BYTE   W36
 BYTE   PEND 
// 006   ----------------------------------------
 BYTE   W36
 BYTE   Cn4
 BYTE   W36
 BYTE   N12
 BYTE   W24
// 007   ----------------------------------------
 BYTE   W12
 BYTE   Gn4
 BYTE   W24
 BYTE   Dn4
 BYTE   W36
 BYTE   Bn3
 BYTE   W24
// 008   ----------------------------------------
 BYTE   W12
 BYTE   N12
 BYTE   W24
 BYTE   Cn4
 BYTE   W36
 BYTE   N12
 BYTE   W24
// 009   ----------------------------------------
 BYTE   W24
 BYTE   N12
 BYTE   W36
 BYTE   N12
 BYTE   W36
 BYTE   PATT
  POIN2 Label_2_012CF50C
 BYTE   PATT
  POIN2 Label_2_012CF514
 BYTE   PATT
  POIN2 Label_2_012CF51C
 BYTE   PATT
  POIN2 Label_2_012CF524
// 010   ----------------------------------------
 BYTE   W36
 BYTE   N12  Cn4  v036
 BYTE   W36
 BYTE   Bn3
 BYTE   W24
// 011   ----------------------------------------
 BYTE   W12
 BYTE   Cn4
 BYTE   W24
 BYTE   En4
 BYTE   W60
// 012   ----------------------------------------
 BYTE   W96
// 013   ----------------------------------------
 BYTE   W96
// 014   ----------------------------------------
 BYTE   W96
// 015   ----------------------------------------
 BYTE   W96
// 016   ----------------------------------------
 BYTE   W96
// 017   ----------------------------------------
 BYTE   W96
// 018   ----------------------------------------
 BYTE   W96
// 019   ----------------------------------------
 BYTE   W96
// 020   ----------------------------------------
 BYTE   W96
// 021   ----------------------------------------
 BYTE   W96
// 022   ----------------------------------------
 BYTE   W96
// 023   ----------------------------------------
 BYTE   W96
// 024   ----------------------------------------
 BYTE   W96
// 025   ----------------------------------------
 BYTE   W96
// 026   ----------------------------------------
 BYTE   W96
// 027   ----------------------------------------
 BYTE   W96
// 028   ----------------------------------------
 BYTE   W24
 BYTE   GoTo
  POIN2 Label_2_012CF4F2
 BYTE   FINE

//**************** Track 4 (Midi-Chn.3) ****************//

TalesOfSymphoniaFunWithIdolAReliableChair_004:
// 000   ----------------------------------------
 BYTE   KEYSH   TalesOfSymphoniaFunWithIdolAReliableChair_key+0
Label_3_012CF57E:
 BYTE   VOICE   33
 BYTE   MODT 0
 BYTE   CnM2
 BYTE   LFOS 0
 BYTE   Gs1
 BYTE   VOL   127*TalesOfSymphoniaFunWithIdolAReliableChair_mvl/mxv
 BYTE   PAN   c_v+0
 BYTE   VOL   127*TalesOfSymphoniaFunWithIdolAReliableChair_mvl/mxv
 BYTE   W18
 BYTE   Cs5
 BYTE   W06
 BYTE   N12  Cn2  v036
 BYTE   W12
 BYTE   Gn1
 BYTE   W12
 BYTE   An1
 BYTE   W12
 BYTE   Cn2
 BYTE   W24
 BYTE   Gn1
 BYTE   W12
// 001   ----------------------------------------
Label_3_012CF599:
 BYTE   W12
 BYTE   N12  An1  v036
 BYTE   W24
 BYTE   Cn2
 BYTE   W24
 BYTE   Gn1
 BYTE   W12
 BYTE   An1
 BYTE   W12
 BYTE   Cn2
 BYTE   W12
 BYTE   PEND 
// 002   ----------------------------------------
Label_3_012CF5A7:
 BYTE   N12  Gn1  v036
 BYTE   W12
 BYTE   Cs2
 BYTE   W12
 BYTE   Dn2
 BYTE   W24
 BYTE   N12
 BYTE   W12
 BYTE   An1
 BYTE   W12
 BYTE   Cn2
 BYTE   W12
 BYTE   Dn2
 BYTE   W12
 BYTE   PEND 
// 003   ----------------------------------------
Label_3_012CF5B8:
 BYTE   W12
 BYTE   N12  Dn2  v036
 BYTE   W24
 BYTE   N12
 BYTE   W24
 BYTE   An1
 BYTE   W12
 BYTE   Cn2
 BYTE   W12
 BYTE   Dn2
 BYTE   W12
 BYTE   PEND 
// 004   ----------------------------------------
Label_3_012CF5C6:
 BYTE   N12  An1  v036
 BYTE   W12
 BYTE   Cn2
 BYTE   W12
 BYTE   Gn1
 BYTE   W12
 BYTE   Gn2
 BYTE   W12
 BYTE   Dn2
 BYTE   W12
 BYTE   Gn1
 BYTE   W24
 BYTE   N12
 BYTE   W12
 BYTE   PEND 
// 005   ----------------------------------------
Label_3_012CF5D7:
 BYTE   W12
 BYTE   N12  Gn1  v036
 BYTE   W24
 BYTE   N12
 BYTE   W12
 BYTE   Dn2
 BYTE   W12
 BYTE   Gn2
 BYTE   W12
 BYTE   N12
 BYTE   W12
 BYTE   Dn2
 BYTE   W12
 BYTE   PEND 
// 006   ----------------------------------------
 BYTE   Bn1
 BYTE   W12
 BYTE   Dn2
 BYTE   W12
 BYTE   Cn2
 BYTE   W12
 BYTE   Gn1
 BYTE   W12
 BYTE   An1
 BYTE   W12
 BYTE   Cn2
 BYTE   W24
 BYTE   Gn1
 BYTE   W12
// 007   ----------------------------------------
 BYTE   An1
 BYTE   W12
 BYTE   Cn2
 BYTE   W12
 BYTE   Gn1
 BYTE   W12
 BYTE   Gn2
 BYTE   W12
 BYTE   An1
 BYTE   W12
 BYTE   An2
 BYTE   W12
 BYTE   Bn1
 BYTE   W12
 BYTE   Bn2
 BYTE   W12
// 008   ----------------------------------------
 BYTE   Dn2
 BYTE   W12
 BYTE   Dn3
 BYTE   W12
 BYTE   Cn2
 BYTE   W12
 BYTE   Gn1
 BYTE   W12
 BYTE   An1
 BYTE   W12
 BYTE   Cn2
 BYTE   W24
 BYTE   Gn1
 BYTE   W12
 BYTE   PATT
  POIN2 Label_3_012CF599
 BYTE   PATT
  POIN2 Label_3_012CF5A7
 BYTE   PATT
  POIN2 Label_3_012CF5B8
 BYTE   PATT
  POIN2 Label_3_012CF5C6
 BYTE   PATT
  POIN2 Label_3_012CF5D7
// 009   ----------------------------------------
 BYTE   N12  Bn1  v036
 BYTE   W12
 BYTE   Dn2
 BYTE   W12
 BYTE   Cn2
 BYTE   W24
 BYTE   N12
 BYTE   W12
 BYTE   Gn1
 BYTE   W12
 BYTE   An1
 BYTE   W12
 BYTE   Cn2
 BYTE   W12
// 010   ----------------------------------------
 BYTE   W12
 BYTE   N12
 BYTE   W24
 BYTE   N12
 BYTE   W12
 BYTE   Dn2
 BYTE   W12
 BYTE   N12
 BYTE   W12
 BYTE   En2
 BYTE   W12
 BYTE   N12
 BYTE   W12
// 011   ----------------------------------------
 BYTE   Gn2
 BYTE   W12
 BYTE   N12
 BYTE   W12
 BYTE   An1
 BYTE   W12
 BYTE   Fn2
 BYTE   W12
 BYTE   An1
 BYTE   W12
 BYTE   Fn2
 BYTE   W12
 BYTE   An1
 BYTE   W12
 BYTE   Fn2
 BYTE   W12
// 012   ----------------------------------------
Label_3_012CF659:
 BYTE   N12  An1  v036
 BYTE   W12
 BYTE   Fn2
 BYTE   W12
 BYTE   An1
 BYTE   W12
 BYTE   Fn2
 BYTE   W12
 BYTE   An1
 BYTE   W12
 BYTE   Fn2
 BYTE   W12
 BYTE   An1
 BYTE   W12
 BYTE   Fn2
 BYTE   W12
 BYTE   PEND 
// 013   ----------------------------------------
Label_3_012CF66C:
 BYTE   N12  An1  v036
 BYTE   W12
 BYTE   Fn2
 BYTE   W12
 BYTE   Cn2
 BYTE   W12
 BYTE   Cn3
 BYTE   W12
 BYTE   Cn2
 BYTE   W12
 BYTE   Cn3
 BYTE   W12
 BYTE   Cn2
 BYTE   W12
 BYTE   Cn3
 BYTE   W12
 BYTE   PEND 
// 014   ----------------------------------------
Label_3_012CF67F:
 BYTE   N12  Cn2  v036
 BYTE   W12
 BYTE   Cn3
 BYTE   W12
 BYTE   Cn2
 BYTE   W12
 BYTE   Cn3
 BYTE   W12
 BYTE   Cn2
 BYTE   W12
 BYTE   Cn3
 BYTE   W12
 BYTE   Cn2
 BYTE   W12
 BYTE   Cn3
 BYTE   W12
 BYTE   PEND 
// 015   ----------------------------------------
Label_3_012CF692:
 BYTE   N12  Cn2  v036
 BYTE   W12
 BYTE   Cn3
 BYTE   W12
 BYTE   Dn2
 BYTE   W12
 BYTE   Dn3
 BYTE   W12
 BYTE   Dn2
 BYTE   W12
 BYTE   Dn3
 BYTE   W12
 BYTE   Dn2
 BYTE   W12
 BYTE   Dn3
 BYTE   W12
 BYTE   PEND 
// 016   ----------------------------------------
Label_3_012CF6A5:
 BYTE   N12  Dn2  v036
 BYTE   W12
 BYTE   Dn3
 BYTE   W12
 BYTE   Gn1
 BYTE   W12
 BYTE   Gn2
 BYTE   W12
 BYTE   Gn1
 BYTE   W12
 BYTE   Gn2
 BYTE   W12
 BYTE   Gn1
 BYTE   W12
 BYTE   Gn2
 BYTE   W12
 BYTE   PEND 
// 017   ----------------------------------------
 BYTE   Gn1
 BYTE   W12
 BYTE   Gn2
 BYTE   W12
 BYTE   Cn2
 BYTE   W12
 BYTE   Cn3
 BYTE   W12
 BYTE   Cn2
 BYTE   W12
 BYTE   Cn3
 BYTE   W12
 BYTE   Cn2
 BYTE   W12
 BYTE   Cn3
 BYTE   W12
// 018   ----------------------------------------
 BYTE   Cn2
 BYTE   W12
 BYTE   Cn3
 BYTE   W12
 BYTE   Cn2
 BYTE   W12
 BYTE   Cn3
 BYTE   W12
 BYTE   Bn1
 BYTE   W12
 BYTE   Bn2
 BYTE   W12
 BYTE   As1
 BYTE   W12
 BYTE   As2
 BYTE   W12
// 019   ----------------------------------------
 BYTE   An1
 BYTE   W12
 BYTE   An2
 BYTE   W12
 BYTE   An1
 BYTE   W12
 BYTE   Fn2
 BYTE   W12
 BYTE   An1
 BYTE   W12
 BYTE   Fn2
 BYTE   W12
 BYTE   An1
 BYTE   W12
 BYTE   Fn2
 BYTE   W12
 BYTE   PATT
  POIN2 Label_3_012CF659
 BYTE   PATT
  POIN2 Label_3_012CF66C
 BYTE   PATT
  POIN2 Label_3_012CF67F
 BYTE   PATT
  POIN2 Label_3_012CF692
// 020   ----------------------------------------
 BYTE   N12  Dn2  v036
 BYTE   W12
 BYTE   Dn3
 BYTE   W12
 BYTE   Dn2
 BYTE   W12
 BYTE   Dn3
 BYTE   W12
 BYTE   Dn2
 BYTE   W12
 BYTE   Dn3
 BYTE   W12
 BYTE   Dn2
 BYTE   W12
 BYTE   Dn3
 BYTE   W12
 BYTE   PATT
  POIN2 Label_3_012CF6A5
// 021   ----------------------------------------
 BYTE   N12  Gn1  v036
 BYTE   W12
 BYTE   Gn2
 BYTE   W12
 BYTE   Gn1
 BYTE   W12
 BYTE   Gn2
 BYTE   W12
 BYTE   An1
 BYTE   W12
 BYTE   An2
 BYTE   W12
 BYTE   Bn1
 BYTE   W12
 BYTE   Bn2
 BYTE   W12
// 022   ----------------------------------------
 BYTE   Dn2
 BYTE   W12
 BYTE   Dn3
 BYTE   W12
 BYTE   GoTo
  POIN2 Label_3_012CF57E
 BYTE   FINE

//**************** Track 5 (Midi-Chn.4) ****************//

TalesOfSymphoniaFunWithIdolAReliableChair_005:
// 000   ----------------------------------------
 BYTE   KEYSH   TalesOfSymphoniaFunWithIdolAReliableChair_key+0
Label_4_012CF732:
 BYTE   VOICE   1
 BYTE   MODT 0
 BYTE   CnM2
 BYTE   LFOS 0
 BYTE   Gs1
 BYTE   VOL   85*TalesOfSymphoniaFunWithIdolAReliableChair_mvl/mxv
 BYTE   PAN   c_v+0
 BYTE   VOL   85*TalesOfSymphoniaFunWithIdolAReliableChair_mvl/mxv
 BYTE   W18
 BYTE   Gs2
 BYTE   W78
// 001   ----------------------------------------
 BYTE   W96
// 002   ----------------------------------------
 BYTE   W96
// 003   ----------------------------------------
 BYTE   W96
// 004   ----------------------------------------
 BYTE   W96
// 005   ----------------------------------------
 BYTE   W96
// 006   ----------------------------------------
 BYTE   W96
// 007   ----------------------------------------
 BYTE   W96
// 008   ----------------------------------------
 BYTE   W96
// 009   ----------------------------------------
 BYTE   W96
// 010   ----------------------------------------
 BYTE   W96
// 011   ----------------------------------------
 BYTE   W96
// 012   ----------------------------------------
 BYTE   W96
// 013   ----------------------------------------
 BYTE   W96
// 014   ----------------------------------------
 BYTE   W96
// 015   ----------------------------------------
 BYTE   W96
// 016   ----------------------------------------
 BYTE   W24
 BYTE   N48  An5  v036
 BYTE   W48
 BYTE   N12  Gn5
 BYTE   W12
 BYTE   N24  Fn5
 BYTE   W12
// 017   ----------------------------------------
Label_4_012CF75B:
 BYTE   W12
 BYTE   N24  En5  v036
 BYTE   W24
 BYTE   N36  Dn5
 BYTE   W36
 BYTE   N24  En5
 BYTE   W24
 BYTE   PEND 
// 018   ----------------------------------------
 BYTE   Fn5
 BYTE   W24
 BYTE   N60  Gn5
 BYTE   W60
 BYTE   N12  Fn5
 BYTE   W12
// 019   ----------------------------------------
 BYTE   En5
 BYTE   W12
 BYTE   Dn5
 BYTE   W12
 BYTE   N48  Cn5
 BYTE   W48
 BYTE   N24  Dn5
 BYTE   W24
// 020   ----------------------------------------
 BYTE   En5
 BYTE   W24
 BYTE   Fn5
 BYTE   W24
 BYTE   N12  En5
 BYTE   W12
 BYTE   Fn5
 BYTE   W12
 BYTE   Gn5
 BYTE   W12
 BYTE   Fn5
 BYTE   W12
// 021   ----------------------------------------
 BYTE   En5
 BYTE   W12
 BYTE   Dn5
 BYTE   W12
 BYTE   N48  Bn4
 BYTE   W48
 BYTE   N24  Cn5
 BYTE   W24
// 022   ----------------------------------------
 BYTE   Dn5
 BYTE   W24
 BYTE   En5
 BYTE   W24
 BYTE   Fn5
 BYTE   W24
 BYTE   Gn5
 BYTE   W24
// 023   ----------------------------------------
 BYTE   N12  En5
 BYTE   W12
 BYTE   N24  An5
 BYTE   W24
 BYTE   Gn5
 BYTE   W24
 BYTE   N12  En5
 BYTE   W12
 BYTE   N24  Fn5
 BYTE   W24
// 024   ----------------------------------------
 BYTE   Gn5
 BYTE   W24
 BYTE   N48  An5
 BYTE   W48
 BYTE   N12  Gn5
 BYTE   W12
 BYTE   N24  Fn5
 BYTE   W12
 BYTE   PATT
  POIN2 Label_4_012CF75B
// 025   ----------------------------------------
 BYTE   N24  Fn5  v036
 BYTE   W24
 BYTE   N48  Gn5
 BYTE   W48
 BYTE   N12  Fn5
 BYTE   W12
 BYTE   N24  En5
 BYTE   W12
// 026   ----------------------------------------
 BYTE   W12
 BYTE   Dn5
 BYTE   W24
 BYTE   N36  Cn5
 BYTE   W36
 BYTE   N24  Dn5
 BYTE   W24
// 027   ----------------------------------------
 BYTE   En5
 BYTE   W48
 BYTE   Cn6
 BYTE   W24
 BYTE   Bn5
 BYTE   W24
// 028   ----------------------------------------
 BYTE   An5
 BYTE   W24
 BYTE   Gn5
 BYTE   W24
 BYTE   Fn5
 BYTE   W24
 BYTE   En5
 BYTE   W24
// 029   ----------------------------------------
 BYTE   Fn5
 BYTE   W24
 BYTE   N96  Gn5
 BYTE   W72
// 030   ----------------------------------------
 BYTE   W24
 BYTE   N24
 BYTE   W24
 BYTE   Fn5
 BYTE   W24
 BYTE   En5
 BYTE   W24
// 031   ----------------------------------------
 BYTE   Dn5
 BYTE   W24
 BYTE   GoTo
  POIN2 Label_4_012CF732
 BYTE   FINE

//**************** Track 6 (Midi-Chn.5) ****************//

TalesOfSymphoniaFunWithIdolAReliableChair_006:
// 000   ----------------------------------------
 BYTE   KEYSH   TalesOfSymphoniaFunWithIdolAReliableChair_key+0
Label_5_012CF7F2:
 BYTE   VOICE   121
 BYTE   MODT 0
 BYTE   CnM2
 BYTE   LFOS 0
 BYTE   Gs1
 BYTE   VOL   59*TalesOfSymphoniaFunWithIdolAReliableChair_mvl/mxv
 BYTE   PAN   c_v+0
 BYTE   VOL   59*TalesOfSymphoniaFunWithIdolAReliableChair_mvl/mxv
 BYTE   W18
 BYTE   Dn1
 BYTE   W06
 BYTE   Bn2
 BYTE   N12  Cs2  v036
 BYTE   W24
 BYTE   N06  Cn1
 BYTE   W24
 BYTE   N06
 BYTE   W24
// 001   ----------------------------------------
Label_5_012CF80B:
 BYTE   N06  Cn1  v036
 BYTE   W24
 BYTE   N06
 BYTE   W24
 BYTE   En1
 BYTE   W24
 BYTE   Cn1
 BYTE   W24
 BYTE   PEND 
// 002   ----------------------------------------
Label_5_012CF816:
 BYTE   N06  En1  v036
 BYTE   W12
 BYTE   N06
 BYTE   W12
 BYTE   Cn1
 BYTE   W24
 BYTE   En1
 BYTE   W24
 BYTE   Cn1
 BYTE   W24
 BYTE   PEND 
// 003   ----------------------------------------
Label_5_012CF823:
 BYTE   N06  En1  v036
 BYTE   W24
 BYTE   Cn1
 BYTE   W24
 BYTE   En1
 BYTE   W24
 BYTE   Cn1
 BYTE   W24
 BYTE   PEND 
 BYTE   PATT
  POIN2 Label_5_012CF816
 BYTE   PATT
  POIN2 Label_5_012CF823
 BYTE   PATT
  POIN2 Label_5_012CF816
 BYTE   PATT
  POIN2 Label_5_012CF823
// 004   ----------------------------------------
 BYTE   N06  En1  v036
 BYTE   W12
 BYTE   N06
 BYTE   W12
 BYTE   N12  Cs2
 BYTE   W24
 BYTE   N06  Cn1
 BYTE   W24
 BYTE   N06
 BYTE   W24
 BYTE   PATT
  POIN2 Label_5_012CF80B
 BYTE   PATT
  POIN2 Label_5_012CF816
 BYTE   PATT
  POIN2 Label_5_012CF823
 BYTE   PATT
  POIN2 Label_5_012CF816
 BYTE   PATT
  POIN2 Label_5_012CF823
 BYTE   PATT
  POIN2 Label_5_012CF816
 BYTE   PATT
  POIN2 Label_5_012CF823
// 005   ----------------------------------------
 BYTE   N06  En1  v036
 BYTE   W12
 BYTE   N06
 BYTE   W12
 BYTE   Fs2
 BYTE   W24
 BYTE   En1
 BYTE   W24
 BYTE   Fs2
 BYTE   W24
 BYTE   PATT
  POIN2 Label_5_012CF823
 BYTE   PATT
  POIN2 Label_5_012CF816
 BYTE   PATT
  POIN2 Label_5_012CF823
 BYTE   PATT
  POIN2 Label_5_012CF816
 BYTE   PATT
  POIN2 Label_5_012CF823
 BYTE   PATT
  POIN2 Label_5_012CF816
 BYTE   PATT
  POIN2 Label_5_012CF823
 BYTE   PATT
  POIN2 Label_5_012CF816
 BYTE   PATT
  POIN2 Label_5_012CF823
 BYTE   PATT
  POIN2 Label_5_012CF816
 BYTE   PATT
  POIN2 Label_5_012CF823
 BYTE   PATT
  POIN2 Label_5_012CF816
 BYTE   PATT
  POIN2 Label_5_012CF823
 BYTE   PATT
  POIN2 Label_5_012CF816
 BYTE   PATT
  POIN2 Label_5_012CF823
// 006   ----------------------------------------
 BYTE   N06  En1  v036
 BYTE   W12
 BYTE   N06
 BYTE   W12
 BYTE   GoTo
  POIN2 Label_5_012CF7F2
 BYTE   FINE

//******************************************************//
	ALIGN 4

TalesOfSymphoniaFunWithIdolAReliableChair:
	BYTE	6	// NumTrks
	BYTE	0	// NumBlks
	BYTE	TalesOfSymphoniaFunWithIdolAReliableChair_pri	// Priority
	BYTE	TalesOfSymphoniaFunWithIdolAReliableChair_rev	// Reverb.
    
	POIN2	TalesOfSymphoniaFunWithIdolAReliableChair_grp
    
	POIN2	TalesOfSymphoniaFunWithIdolAReliableChair_001
	POIN2	TalesOfSymphoniaFunWithIdolAReliableChair_002
	POIN2	TalesOfSymphoniaFunWithIdolAReliableChair_003
	POIN2	TalesOfSymphoniaFunWithIdolAReliableChair_004
	POIN2	TalesOfSymphoniaFunWithIdolAReliableChair_005
	POIN2	TalesOfSymphoniaFunWithIdolAReliableChair_006

	
