//Event file generated from Sappy .s format.
	#include "MPlayDef.event"

	#define	TalesofPhantasiaTheDreamWillNeverDieAReliableChair_grp  voicegroup000
	#define	TalesofPhantasiaTheDreamWillNeverDieAReliableChair_pri  0
	#define	TalesofPhantasiaTheDreamWillNeverDieAReliableChair_rev  0
	#define	TalesofPhantasiaTheDreamWillNeverDieAReliableChair_mvl  127
	#define	TalesofPhantasiaTheDreamWillNeverDieAReliableChair_key  0
	#define	TalesofPhantasiaTheDreamWillNeverDieAReliableChair_tbs  1
	#define	TalesofPhantasiaTheDreamWillNeverDieAReliableChair_exg  0
	#define	TalesofPhantasiaTheDreamWillNeverDieAReliableChair_cmp  1

	// .rodata
	//	TalesofPhantasiaTheDreamWillNeverDieAReliableChair
	ALIGN 4


//**************** Track 1 (Midi-Chn.0) ****************//

TalesofPhantasiaTheDreamWillNeverDieAReliableChair_001:
// 000   ----------------------------------------
 BYTE   KEYSH   TalesofPhantasiaTheDreamWillNeverDieAReliableChair_key+0
Label_0_0148D4FE:
 BYTE   TEMPO   130*TalesofPhantasiaTheDreamWillNeverDieAReliableChair_tbs/2
 BYTE   VOICE   46
 BYTE   MOD 0
 BYTE   CnM2
 BYTE   VOL   64*TalesofPhantasiaTheDreamWillNeverDieAReliableChair_mvl/mxv
 BYTE   PAN   c_v-9
 BYTE   BEND   c_v+0
 BYTE   W12
 BYTE   N08  Bn2  v064
 BYTE   W12
 BYTE   Cs3
 BYTE   W12
 BYTE   N09  En3
 BYTE   W12
 BYTE   N04  Gs3
 BYTE   W12
 BYTE   N08
 BYTE   W12
 BYTE   N09
 BYTE   W12
 BYTE   Fs3
 BYTE   W12
// 001   ----------------------------------------
Label_0_0148D51D:
 BYTE   N13  Gs3  v064
 BYTE   W18
 BYTE   N09
 BYTE   W78
 BYTE   PEND 
// 002   ----------------------------------------
 BYTE   W12
 BYTE   Bn2
 BYTE   W12
 BYTE   N08  Cs3
 BYTE   W12
 BYTE   N09  En3
 BYTE   W12
 BYTE   N04  Gs3
 BYTE   W12
 BYTE   N08
 BYTE   W12
 BYTE   N09
 BYTE   W12
 BYTE   Fs3
 BYTE   W12
 BYTE   PATT
  POIN2 Label_0_0148D51D
// 003   ----------------------------------------
 BYTE   N18  Bn3  v064
 BYTE   W24
 BYTE   N04  En3
 BYTE   W12
 BYTE   N28
 BYTE   W36
 BYTE   N08  Fs3
 BYTE   W12
 BYTE   N09  En3
 BYTE   W12
// 004   ----------------------------------------
 BYTE   N24  Bn3
 BYTE   W36
 BYTE   N28  En3
 BYTE   W36
 BYTE   N09  Fs3
 BYTE   W12
 BYTE   N08  En3
 BYTE   W12
// 005   ----------------------------------------
 BYTE   N24  Fs3
 BYTE   W36
 BYTE   N44  Gs3
 BYTE   W60
// 006   ----------------------------------------
 BYTE   W96
// 007   ----------------------------------------
 BYTE   N18  Fs3
 BYTE   W24
 BYTE   N04  Gs3
 BYTE   W12
 BYTE   N18  En3
 BYTE   W24
 BYTE   Cs3
 BYTE   W24
 BYTE   N09  Bn2
 BYTE   W12
// 008   ----------------------------------------
 BYTE   Fs3
 BYTE   W12
 BYTE   N08
 BYTE   W12
 BYTE   N09  Gs3
 BYTE   W12
 BYTE   N18  En3
 BYTE   W24
 BYTE   Cs3
 BYTE   W24
 BYTE   N08  Bn2
 BYTE   W12
// 009   ----------------------------------------
 BYTE   Cs3
 BYTE   W12
 BYTE   N18  En3
 BYTE   W24
 BYTE   N44
 BYTE   W60
// 010   ----------------------------------------
 BYTE   W96
// 011   ----------------------------------------
Label_0_0148D582:
 BYTE   N18  Fs3  v064
 BYTE   W18
 BYTE   N18
 BYTE   W18
 BYTE   N12
 BYTE   W12
 BYTE   N18  An3
 BYTE   W18
 BYTE   Gs3
 BYTE   W18
 BYTE   N12  Fs3
 BYTE   W12
 BYTE   PEND 
// 012   ----------------------------------------
Label_0_0148D593:
 BYTE   N18  Fs3  v064
 BYTE   W18
 BYTE   Gs3
 BYTE   W18
 BYTE   N24  En3
 BYTE   W12
 BYTE   N18  Fs3
 BYTE   W18
 BYTE   Gs3
 BYTE   W18
 BYTE   N12  En3
 BYTE   W12
 BYTE   PEND 
 BYTE   PATT
  POIN2 Label_0_0148D582
 BYTE   PATT
  POIN2 Label_0_0148D593
// 013   ----------------------------------------
 BYTE   N18  Fs3  v064
 BYTE   W18
 BYTE   Gs3
 BYTE   W18
 BYTE   N48
 BYTE   W60
// 014   ----------------------------------------
 BYTE   N18  Fs3
 BYTE   W18
 BYTE   Gs3
 BYTE   W18
 BYTE   N36  Cs4
 BYTE   W36
 BYTE   N06  Gs3
 BYTE   W12
 BYTE   N24  Fs3
 BYTE   W12
// 015   ----------------------------------------
 BYTE   W12
 BYTE   N48  En3
 BYTE   W48
 BYTE   N12  Cs3
 BYTE   W12
 BYTE   En3
 BYTE   W12
 BYTE   N84  Bn3
 BYTE   W12
// 016   ----------------------------------------
 BYTE   W96
// 017   ----------------------------------------
 BYTE   W96
// 018   ----------------------------------------
Label_0_0148D5D3:
 BYTE   N12  Cs3  v064
 BYTE   W12
 BYTE   N12
 BYTE   W12
 BYTE   Ds3
 BYTE   W12
 BYTE   N36  En3
 BYTE   W36
 BYTE   N24  Cs4
 BYTE   W24
 BYTE   PEND 
// 019   ----------------------------------------
Label_0_0148D5E2:
 BYTE   N60  Bn3  v064
 BYTE   W60
 BYTE   N12  Gs3
 BYTE   W12
 BYTE   An3
 BYTE   W12
 BYTE   N72  Bn3
 BYTE   W12
 BYTE   PEND 
// 020   ----------------------------------------
 BYTE   W60
 BYTE   N12  Cs4
 BYTE   W12
 BYTE   Bn3
 BYTE   W12
 BYTE   N84
 BYTE   W12
// 021   ----------------------------------------
 BYTE   W96
// 022   ----------------------------------------
 BYTE   N24
 BYTE   W24
 BYTE   N24
 BYTE   W24
 BYTE   N12  An3
 BYTE   W12
 BYTE   N24  Gs3
 BYTE   W24
 BYTE   An3
 BYTE   W12
// 023   ----------------------------------------
 BYTE   W12
 BYTE   N12  En3
 BYTE   W12
 BYTE   N24
 BYTE   W36
 BYTE   N12  Cs3
 BYTE   W12
 BYTE   En3
 BYTE   W12
 BYTE   Fs3
 BYTE   W12
// 024   ----------------------------------------
 BYTE   N36  Gs3
 BYTE   W36
 BYTE   N12  Fs3
 BYTE   W12
 BYTE   N36
 BYTE   W48
// 025   ----------------------------------------
 BYTE   N12  Gs3
 BYTE   W12
 BYTE   Bn3
 BYTE   W12
 BYTE   Gs3
 BYTE   W12
 BYTE   N48  Fs3
 BYTE   W60
 BYTE   PATT
  POIN2 Label_0_0148D5D3
 BYTE   PATT
  POIN2 Label_0_0148D5E2
// 026   ----------------------------------------
 BYTE   W60
 BYTE   N12  Ds4  v064
 BYTE   W12
 BYTE   Bn3
 BYTE   W12
 BYTE   N84
 BYTE   W12
// 027   ----------------------------------------
 BYTE   W96
// 028   ----------------------------------------
 BYTE   N48  An3
 BYTE   W48
 BYTE   N12
 BYTE   W12
 BYTE   Gs3
 BYTE   W12
 BYTE   Fs3
 BYTE   W12
 BYTE   N84  Bn3
 BYTE   W12
// 029   ----------------------------------------
 BYTE   W96
// 030   ----------------------------------------
 BYTE   N18  An3
 BYTE   W18
 BYTE   N18
 BYTE   W18
 BYTE   N12  Gs3
 BYTE   W12
 BYTE   N18  Fs3
 BYTE   W18
 BYTE   En3
 BYTE   W18
 BYTE   N12  Fs3
 BYTE   W12
// 031   ----------------------------------------
 BYTE   N18
 BYTE   W18
 BYTE   En3
 BYTE   W18
 BYTE   TIE
 BYTE   W60
// 032   ----------------------------------------
 BYTE   W72
 BYTE   EOT
 BYTE   W24
// 033   ----------------------------------------
 BYTE   GoTo
  POIN2 Label_0_0148D4FE
 BYTE   FINE

//**************** Track 2 (Midi-Chn.1) ****************//

TalesofPhantasiaTheDreamWillNeverDieAReliableChair_002:
// 000   ----------------------------------------
 BYTE   KEYSH   TalesofPhantasiaTheDreamWillNeverDieAReliableChair_key+0
Label_1_0148D666:
 BYTE   VOICE   48
 BYTE   MOD 0
 BYTE   CnM2
 BYTE   VOL   48*TalesofPhantasiaTheDreamWillNeverDieAReliableChair_mvl/mxv
 BYTE   PAN   c_v+9
 BYTE   BEND   c_v+0
 BYTE   W96
// 001   ----------------------------------------
 BYTE   W96
// 002   ----------------------------------------
 BYTE   W96
// 003   ----------------------------------------
 BYTE   W96
// 004   ----------------------------------------
 BYTE   W96
// 005   ----------------------------------------
 BYTE   W96
// 006   ----------------------------------------
 BYTE   W96
// 007   ----------------------------------------
 BYTE   W96
// 008   ----------------------------------------
 BYTE   W96
// 009   ----------------------------------------
 BYTE   W96
// 010   ----------------------------------------
 BYTE   W96
// 011   ----------------------------------------
 BYTE   W96
// 012   ----------------------------------------
 BYTE   VOL   43*TalesofPhantasiaTheDreamWillNeverDieAReliableChair_mvl/mxv
 BYTE   N18  Fs3  v064
 BYTE   W18
 BYTE   N18
 BYTE   W18
 BYTE   N12
 BYTE   W12
 BYTE   N18  An3
 BYTE   W18
 BYTE   Gs3
 BYTE   W18
 BYTE   N12  Fs3
 BYTE   W12
// 013   ----------------------------------------
Label_1_0148D68E:
 BYTE   N18  Fs3  v064
 BYTE   W18
 BYTE   Gs3
 BYTE   W18
 BYTE   N24  En3
 BYTE   W60
 BYTE   PEND 
// 014   ----------------------------------------
 BYTE   N18  Fs3
 BYTE   W18
 BYTE   N18
 BYTE   W18
 BYTE   N12
 BYTE   W12
 BYTE   N18  An3
 BYTE   W18
 BYTE   Gs3
 BYTE   W18
 BYTE   N12  Fs3
 BYTE   W12
 BYTE   PATT
  POIN2 Label_1_0148D68E
// 015   ----------------------------------------
 BYTE   N18  Fs3  v064
 BYTE   W18
 BYTE   Gs3
 BYTE   W18
 BYTE   N48
 BYTE   W60
// 016   ----------------------------------------
 BYTE   VOL   45*TalesofPhantasiaTheDreamWillNeverDieAReliableChair_mvl/mxv
 BYTE   N18  Fs3
 BYTE   W18
 BYTE   Gs3
 BYTE   W18
 BYTE   N36  Cs4
 BYTE   W36
 BYTE   VOL   48*TalesofPhantasiaTheDreamWillNeverDieAReliableChair_mvl/mxv
 BYTE   N06  Gs3
 BYTE   W12
 BYTE   N24  Fs3
 BYTE   W12
// 017   ----------------------------------------
 BYTE   W12
 BYTE   N48  En3
 BYTE   W48
 BYTE   N12  Cs3
 BYTE   W12
 BYTE   En3
 BYTE   W12
 BYTE   N84  Bn3
 BYTE   W12
// 018   ----------------------------------------
 BYTE   W96
// 019   ----------------------------------------
 BYTE   W96
// 020   ----------------------------------------
Label_1_0148D6D4:
 BYTE   N12  Cs3  v064
 BYTE   W12
 BYTE   N12
 BYTE   W12
 BYTE   Ds3
 BYTE   W12
 BYTE   N36  En3
 BYTE   W36
 BYTE   N24  Cs4
 BYTE   W24
 BYTE   PEND 
// 021   ----------------------------------------
Label_1_0148D6E3:
 BYTE   N60  Bn3  v064
 BYTE   W60
 BYTE   N12  Gs3
 BYTE   W12
 BYTE   An3
 BYTE   W12
 BYTE   N72  Bn3
 BYTE   W12
 BYTE   PEND 
// 022   ----------------------------------------
 BYTE   W60
 BYTE   N12  Cs4
 BYTE   W12
 BYTE   Bn3
 BYTE   W12
 BYTE   N84
 BYTE   W12
// 023   ----------------------------------------
 BYTE   W96
// 024   ----------------------------------------
 BYTE   N24
 BYTE   W24
 BYTE   N24
 BYTE   W24
 BYTE   N12  An3
 BYTE   W12
 BYTE   N24  Gs3
 BYTE   W24
 BYTE   An3
 BYTE   W12
// 025   ----------------------------------------
 BYTE   W12
 BYTE   N12  En3
 BYTE   W12
 BYTE   N24
 BYTE   W36
 BYTE   N12  Cs3
 BYTE   W12
 BYTE   En3
 BYTE   W12
 BYTE   Fs3
 BYTE   W12
// 026   ----------------------------------------
 BYTE   N36  Gs3
 BYTE   W36
 BYTE   N12  Fs3
 BYTE   W12
 BYTE   N36
 BYTE   W48
// 027   ----------------------------------------
 BYTE   N12  Gs3
 BYTE   W12
 BYTE   Bn3
 BYTE   W12
 BYTE   Gs3
 BYTE   W12
 BYTE   N48  Fs3
 BYTE   W60
 BYTE   PATT
  POIN2 Label_1_0148D6D4
 BYTE   PATT
  POIN2 Label_1_0148D6E3
// 028   ----------------------------------------
 BYTE   W60
 BYTE   N12  Ds4  v064
 BYTE   W12
 BYTE   Bn3
 BYTE   W12
 BYTE   N84
 BYTE   W12
// 029   ----------------------------------------
 BYTE   W96
// 030   ----------------------------------------
 BYTE   N48  An3
 BYTE   W48
 BYTE   N12
 BYTE   W12
 BYTE   Gs3
 BYTE   W12
 BYTE   Fs3
 BYTE   W12
 BYTE   N84  Bn3
 BYTE   W12
// 031   ----------------------------------------
 BYTE   W96
// 032   ----------------------------------------
 BYTE   N18  An3
 BYTE   W18
 BYTE   N18
 BYTE   W18
 BYTE   N12  Gs3
 BYTE   W12
 BYTE   N18  Fs3
 BYTE   W18
 BYTE   En3
 BYTE   W18
 BYTE   N12  Fs3
 BYTE   W12
// 033   ----------------------------------------
 BYTE   N18
 BYTE   W18
 BYTE   En3
 BYTE   W18
 BYTE   TIE
 BYTE   W60
// 034   ----------------------------------------
 BYTE   W72
 BYTE   EOT
 BYTE   W24
// 035   ----------------------------------------
 BYTE   GoTo
  POIN2 Label_1_0148D666
 BYTE   FINE

//**************** Track 3 (Midi-Chn.2) ****************//

TalesofPhantasiaTheDreamWillNeverDieAReliableChair_003:
// 000   ----------------------------------------
 BYTE   KEYSH   TalesofPhantasiaTheDreamWillNeverDieAReliableChair_key+0
Label_2_0148D766:
 BYTE   VOICE   57
 BYTE   MOD 0
 BYTE   CnM2
 BYTE   VOL   32*TalesofPhantasiaTheDreamWillNeverDieAReliableChair_mvl/mxv
 BYTE   PAN   c_v+27
 BYTE   BEND   c_v+0
 BYTE   W96
// 001   ----------------------------------------
 BYTE   W96
// 002   ----------------------------------------
 BYTE   W96
// 003   ----------------------------------------
 BYTE   W96
// 004   ----------------------------------------
 BYTE   W96
// 005   ----------------------------------------
 BYTE   W96
// 006   ----------------------------------------
 BYTE   W96
// 007   ----------------------------------------
 BYTE   W96
// 008   ----------------------------------------
 BYTE   W96
// 009   ----------------------------------------
 BYTE   W96
// 010   ----------------------------------------
 BYTE   W96
// 011   ----------------------------------------
 BYTE   W96
// 012   ----------------------------------------
 BYTE   W96
// 013   ----------------------------------------
 BYTE   W96
// 014   ----------------------------------------
 BYTE   W96
// 015   ----------------------------------------
 BYTE   W96
// 016   ----------------------------------------
 BYTE   VOL   18*TalesofPhantasiaTheDreamWillNeverDieAReliableChair_mvl/mxv
 BYTE   W48
 BYTE   N48  Gs3  v064
 BYTE   W48
// 017   ----------------------------------------
 BYTE   N72  Cs4
 BYTE   W24
 BYTE   VOL   19*TalesofPhantasiaTheDreamWillNeverDieAReliableChair_mvl/mxv
 BYTE   W24
 BYTE   En2
 BYTE   W24
 BYTE   Fn2
 BYTE   N24  Ds4
 BYTE   W24
// 018   ----------------------------------------
 BYTE   VOL   22*TalesofPhantasiaTheDreamWillNeverDieAReliableChair_mvl/mxv
 BYTE   N48  En4
 BYTE   W48
 BYTE   N24  Gs4
 BYTE   W24
 BYTE   En4
 BYTE   W24
// 019   ----------------------------------------
 BYTE   N72  Fs4
 BYTE   W24
 BYTE   VOL   23*TalesofPhantasiaTheDreamWillNeverDieAReliableChair_mvl/mxv
 BYTE   W24
 BYTE   Gs2
 BYTE   W24
 BYTE   An2
 BYTE   N12  Gs4
 BYTE   W12
 BYTE   An4
 BYTE   W12
// 020   ----------------------------------------
 BYTE   VOL   25*TalesofPhantasiaTheDreamWillNeverDieAReliableChair_mvl/mxv
 BYTE   N72  Bn4
 BYTE   W72
 BYTE   N06  Bn3
 BYTE   W06
 BYTE   As3
 BYTE   W06
 BYTE   Bn3
 BYTE   W06
 BYTE   Cn4
 BYTE   W06
// 021   ----------------------------------------
Label_2_0148D7B9:
 BYTE   VOL   13*TalesofPhantasiaTheDreamWillNeverDieAReliableChair_mvl/mxv
 BYTE   N72  Cs4  v064
 BYTE   W72
 BYTE   N24  Cs5
 BYTE   W24
 BYTE   PEND 
// 022   ----------------------------------------
 BYTE   N96  Bn4
 BYTE   W96
// 023   ----------------------------------------
Label_2_0148D7C6:
 BYTE   W12
 BYTE   N12  Fs4  v064
 BYTE   W12
 BYTE   Gs4
 BYTE   W12
 BYTE   An4
 BYTE   W24
 BYTE   Bn4
 BYTE   W12
 BYTE   Cs5
 BYTE   W12
 BYTE   Ds5
 BYTE   W12
 BYTE   PEND 
// 024   ----------------------------------------
Label_2_0148D7D6:
 BYTE   W12
 BYTE   N12  En5  v064
 BYTE   W24
 BYTE   Ds5
 BYTE   W24
 BYTE   N36  Cs5
 BYTE   W36
 BYTE   PEND 
// 025   ----------------------------------------
 BYTE   W96
// 026   ----------------------------------------
 BYTE   W96
// 027   ----------------------------------------
 BYTE   W96
// 028   ----------------------------------------
 BYTE   N12  Gs4
 BYTE   W12
 BYTE   Bn4
 BYTE   W12
 BYTE   Gs4
 BYTE   W12
 BYTE   N24  Fs4
 BYTE   W36
 BYTE   VOL   23*TalesofPhantasiaTheDreamWillNeverDieAReliableChair_mvl/mxv
 BYTE   N06  Bn3
 BYTE   W06
 BYTE   As3
 BYTE   W06
 BYTE   Bn3
 BYTE   W06
 BYTE   Cn4
 BYTE   W06
 BYTE   PATT
  POIN2 Label_2_0148D7B9
// 029   ----------------------------------------
 BYTE   N96  Bn4  v064
 BYTE   W96
 BYTE   PATT
  POIN2 Label_2_0148D7C6
 BYTE   PATT
  POIN2 Label_2_0148D7D6
// 030   ----------------------------------------
 BYTE   W96
// 031   ----------------------------------------
 BYTE   W96
// 032   ----------------------------------------
 BYTE   W96
// 033   ----------------------------------------
 BYTE   W96
// 034   ----------------------------------------
 BYTE   W96
// 035   ----------------------------------------
 BYTE   GoTo
  POIN2 Label_2_0148D766
 BYTE   FINE

//**************** Track 4 (Midi-Chn.3) ****************//

TalesofPhantasiaTheDreamWillNeverDieAReliableChair_004:
// 000   ----------------------------------------
 BYTE   KEYSH   TalesofPhantasiaTheDreamWillNeverDieAReliableChair_key+0
Label_3_0148D81A:
 BYTE   VOICE   46
 BYTE   MOD 0
 BYTE   CnM2
 BYTE   VOL   32*TalesofPhantasiaTheDreamWillNeverDieAReliableChair_mvl/mxv
 BYTE   PAN   c_v-18
 BYTE   BEND   c_v+0
 BYTE   W96
// 001   ----------------------------------------
 BYTE   W96
// 002   ----------------------------------------
 BYTE   W96
// 003   ----------------------------------------
 BYTE   W96
// 004   ----------------------------------------
 BYTE   W96
// 005   ----------------------------------------
 BYTE   W96
// 006   ----------------------------------------
 BYTE   W96
// 007   ----------------------------------------
 BYTE   W96
// 008   ----------------------------------------
 BYTE   W96
// 009   ----------------------------------------
 BYTE   W96
// 010   ----------------------------------------
 BYTE   W96
// 011   ----------------------------------------
 BYTE   W96
// 012   ----------------------------------------
 BYTE   W96
// 013   ----------------------------------------
 BYTE   W96
// 014   ----------------------------------------
 BYTE   W96
// 015   ----------------------------------------
 BYTE   W96
// 016   ----------------------------------------
 BYTE   W96
// 017   ----------------------------------------
 BYTE   W96
// 018   ----------------------------------------
 BYTE   W96
// 019   ----------------------------------------
 BYTE   W96
// 020   ----------------------------------------
 BYTE   VOL   37*TalesofPhantasiaTheDreamWillNeverDieAReliableChair_mvl/mxv
 BYTE   W72
 BYTE   N06  Bn3  v064
 BYTE   W06
 BYTE   As3
 BYTE   W06
 BYTE   Bn3
 BYTE   W06
 BYTE   Cn4
 BYTE   W06
// 021   ----------------------------------------
Label_3_0148D845:
 BYTE   N72  Cs4  v064
 BYTE   W72
 BYTE   N24  Cs5
 BYTE   W24
 BYTE   PEND 
// 022   ----------------------------------------
 BYTE   N96  Bn4
 BYTE   W96
// 023   ----------------------------------------
Label_3_0148D850:
 BYTE   W12
 BYTE   N06  Fs4  v064
 BYTE   W12
 BYTE   Gs4
 BYTE   W12
 BYTE   An4
 BYTE   W24
 BYTE   Bn4
 BYTE   W12
 BYTE   Cs5
 BYTE   W12
 BYTE   Ds5
 BYTE   W12
 BYTE   PEND 
// 024   ----------------------------------------
Label_3_0148D860:
 BYTE   W12
 BYTE   N12  En5  v064
 BYTE   W24
 BYTE   Ds5
 BYTE   W24
 BYTE   N36  Cs5
 BYTE   W36
 BYTE   PEND 
// 025   ----------------------------------------
 BYTE   W96
// 026   ----------------------------------------
 BYTE   W96
// 027   ----------------------------------------
 BYTE   W96
// 028   ----------------------------------------
 BYTE   N12  Gs4
 BYTE   W12
 BYTE   Bn4
 BYTE   W12
 BYTE   Gs4
 BYTE   W12
 BYTE   N24  Fs4
 BYTE   W36
 BYTE   N06  Bn3
 BYTE   W06
 BYTE   As3
 BYTE   W06
 BYTE   Bn3
 BYTE   W06
 BYTE   Cn4
 BYTE   W06
 BYTE   PATT
  POIN2 Label_3_0148D845
// 029   ----------------------------------------
 BYTE   N96  Bn4  v064
 BYTE   W96
 BYTE   PATT
  POIN2 Label_3_0148D850
 BYTE   PATT
  POIN2 Label_3_0148D860
// 030   ----------------------------------------
 BYTE   W96
// 031   ----------------------------------------
 BYTE   W96
// 032   ----------------------------------------
 BYTE   W96
// 033   ----------------------------------------
 BYTE   W96
// 034   ----------------------------------------
 BYTE   W96
// 035   ----------------------------------------
 BYTE   GoTo
  POIN2 Label_3_0148D81A
 BYTE   FINE

//**************** Track 5 (Midi-Chn.4) ****************//

TalesofPhantasiaTheDreamWillNeverDieAReliableChair_005:
// 000   ----------------------------------------
 BYTE   KEYSH   TalesofPhantasiaTheDreamWillNeverDieAReliableChair_key+0
Label_4_0148D8A2:
 BYTE   VOICE   33
 BYTE   MOD 0
 BYTE   CnM2
 BYTE   VOL   45*TalesofPhantasiaTheDreamWillNeverDieAReliableChair_mvl/mxv
 BYTE   PAN   c_v+9
 BYTE   BEND   c_v+0
 BYTE   N12  Cs2  v064
 BYTE   W12
 BYTE   N12
 BYTE   W12
 BYTE   N12
 BYTE   W12
 BYTE   N06
 BYTE   W06
 BYTE   N12
 BYTE   W18
 BYTE   N12
 BYTE   W12
 BYTE   N12
 BYTE   W12
 BYTE   N12
 BYTE   W12
// 001   ----------------------------------------
Label_4_0148D8BE:
 BYTE   N12  Bn1  v064
 BYTE   W12
 BYTE   N12
 BYTE   W12
 BYTE   N12
 BYTE   W12
 BYTE   N06
 BYTE   W06
 BYTE   N12
 BYTE   W18
 BYTE   N12
 BYTE   W12
 BYTE   N12
 BYTE   W12
 BYTE   N12
 BYTE   W12
 BYTE   PEND 
// 002   ----------------------------------------
Label_4_0148D8D1:
 BYTE   N12  Cs2  v064
 BYTE   W12
 BYTE   N12
 BYTE   W12
 BYTE   N12
 BYTE   W12
 BYTE   N06
 BYTE   W06
 BYTE   N12
 BYTE   W18
 BYTE   N12
 BYTE   W12
 BYTE   N12
 BYTE   W12
 BYTE   N12
 BYTE   W12
 BYTE   PEND 
 BYTE   PATT
  POIN2 Label_4_0148D8BE
// 003   ----------------------------------------
Label_4_0148D8E9:
 BYTE   N12  An1  v064
 BYTE   W12
 BYTE   N12
 BYTE   W12
 BYTE   N12
 BYTE   W12
 BYTE   N06
 BYTE   W06
 BYTE   N12
 BYTE   W18
 BYTE   N12
 BYTE   W12
 BYTE   N12
 BYTE   W12
 BYTE   N12
 BYTE   W12
 BYTE   PEND 
 BYTE   PATT
  POIN2 Label_4_0148D8E9
// 004   ----------------------------------------
Label_4_0148D901:
 BYTE   N12  En2  v064
 BYTE   W12
 BYTE   N12
 BYTE   W12
 BYTE   N12
 BYTE   W12
 BYTE   N06
 BYTE   W06
 BYTE   N12
 BYTE   W18
 BYTE   N12
 BYTE   W12
 BYTE   N12
 BYTE   W12
 BYTE   N12
 BYTE   W12
 BYTE   PEND 
 BYTE   PATT
  POIN2 Label_4_0148D901
 BYTE   PATT
  POIN2 Label_4_0148D8E9
 BYTE   PATT
  POIN2 Label_4_0148D8E9
 BYTE   PATT
  POIN2 Label_4_0148D8E9
 BYTE   PATT
  POIN2 Label_4_0148D901
 BYTE   PATT
  POIN2 Label_4_0148D8E9
 BYTE   PATT
  POIN2 Label_4_0148D901
// 005   ----------------------------------------
Label_4_0148D937:
 BYTE   N12  An1  v064
 BYTE   W12
 BYTE   N12
 BYTE   W12
 BYTE   N12
 BYTE   W12
 BYTE   N06
 BYTE   W06
 BYTE   N12  Cn2
 BYTE   W18
 BYTE   N12
 BYTE   W12
 BYTE   N12
 BYTE   W12
 BYTE   N12
 BYTE   W12
 BYTE   PEND 
 BYTE   PATT
  POIN2 Label_4_0148D901
// 006   ----------------------------------------
Label_4_0148D950:
 BYTE   N12  Gs1  v064
 BYTE   W12
 BYTE   N12
 BYTE   W12
 BYTE   N12
 BYTE   W12
 BYTE   N06
 BYTE   W06
 BYTE   N12
 BYTE   W18
 BYTE   N12
 BYTE   W12
 BYTE   N12
 BYTE   W12
 BYTE   N12
 BYTE   W12
 BYTE   PEND 
 BYTE   PATT
  POIN2 Label_4_0148D8D1
 BYTE   PATT
  POIN2 Label_4_0148D8E9
 BYTE   PATT
  POIN2 Label_4_0148D8BE
 BYTE   PATT
  POIN2 Label_4_0148D8BE
 BYTE   PATT
  POIN2 Label_4_0148D8E9
 BYTE   PATT
  POIN2 Label_4_0148D8BE
 BYTE   PATT
  POIN2 Label_4_0148D950
 BYTE   PATT
  POIN2 Label_4_0148D8D1
// 007   ----------------------------------------
 BYTE   N12  Fs2  v064
 BYTE   W12
 BYTE   N12
 BYTE   W12
 BYTE   N12
 BYTE   W12
 BYTE   N06
 BYTE   W06
 BYTE   N12
 BYTE   W18
 BYTE   N12
 BYTE   W12
 BYTE   N12
 BYTE   W12
 BYTE   N12
 BYTE   W12
 BYTE   PATT
  POIN2 Label_4_0148D8E9
 BYTE   PATT
  POIN2 Label_4_0148D8BE
 BYTE   PATT
  POIN2 Label_4_0148D8BE
 BYTE   PATT
  POIN2 Label_4_0148D8E9
 BYTE   PATT
  POIN2 Label_4_0148D8BE
 BYTE   PATT
  POIN2 Label_4_0148D950
 BYTE   PATT
  POIN2 Label_4_0148D8D1
// 008   ----------------------------------------
 BYTE   N12  Fs1  v064
 BYTE   W12
 BYTE   N12
 BYTE   W12
 BYTE   N12
 BYTE   W12
 BYTE   N06
 BYTE   W06
 BYTE   N12
 BYTE   W18
 BYTE   N12
 BYTE   W12
 BYTE   N12
 BYTE   W12
 BYTE   N12
 BYTE   W12
 BYTE   PATT
  POIN2 Label_4_0148D950
 BYTE   PATT
  POIN2 Label_4_0148D937
 BYTE   PATT
  POIN2 Label_4_0148D901
 BYTE   PATT
  POIN2 Label_4_0148D901
// 009   ----------------------------------------
 BYTE   GoTo
  POIN2 Label_4_0148D8A2
 BYTE   FINE

//**************** Track 6 (Midi-Chn.5) ****************//

TalesofPhantasiaTheDreamWillNeverDieAReliableChair_006:
// 000   ----------------------------------------
 BYTE   KEYSH   TalesofPhantasiaTheDreamWillNeverDieAReliableChair_key+0
Label_5_0148D9EE:
 BYTE   VOICE   0
 BYTE   MOD 0
 BYTE   CnM2
 BYTE   VOL   40*TalesofPhantasiaTheDreamWillNeverDieAReliableChair_mvl/mxv
 BYTE   PAN   c_v-9
 BYTE   BEND   c_v+0
 BYTE   N96  Cs1  v048
 BYTE   N96  Cs2
 BYTE   W96
// 001   ----------------------------------------
 BYTE   Bn0
 BYTE   N96  Bn1
 BYTE   W96
// 002   ----------------------------------------
 BYTE   Cs1
 BYTE   N96  Cs2
 BYTE   W96
// 003   ----------------------------------------
 BYTE   Bn0
 BYTE   N96  Bn1
 BYTE   W96
// 004   ----------------------------------------
 BYTE   An0
 BYTE   N96  An1
 BYTE   W96
// 005   ----------------------------------------
 BYTE   An0
 BYTE   N96  An1
 BYTE   W96
// 006   ----------------------------------------
 BYTE   En1
 BYTE   N96  En2
 BYTE   W96
// 007   ----------------------------------------
 BYTE   En1
 BYTE   N96  En2
 BYTE   W96
// 008   ----------------------------------------
 BYTE   An0
 BYTE   N96  An1
 BYTE   W96
// 009   ----------------------------------------
 BYTE   An0
 BYTE   N96  An1
 BYTE   W96
// 010   ----------------------------------------
 BYTE   An0
 BYTE   N96  An1
 BYTE   W96
// 011   ----------------------------------------
 BYTE   En1
 BYTE   N96  En2
 BYTE   W96
// 012   ----------------------------------------
 BYTE   An0
 BYTE   N96  An1
 BYTE   W96
// 013   ----------------------------------------
 BYTE   En1
 BYTE   N96  En2
 BYTE   W96
// 014   ----------------------------------------
Label_5_0148DA32:
 BYTE   N48  An0  v048
 BYTE   N48  An1
 BYTE   W48
 BYTE   Cn1
 BYTE   N48  Cn2
 BYTE   W48
 BYTE   PEND 
// 015   ----------------------------------------
 BYTE   N96  En1
 BYTE   N96  En2
 BYTE   W96
// 016   ----------------------------------------
 BYTE   Gs0
 BYTE   N96  Gs1
 BYTE   W96
// 017   ----------------------------------------
 BYTE   Cs1
 BYTE   N96  Cs2
 BYTE   W96
// 018   ----------------------------------------
 BYTE   An0
 BYTE   N96  An1
 BYTE   W96
// 019   ----------------------------------------
 BYTE   TIE  Bn0
 BYTE   TIE  Bn1
 BYTE   W96
// 020   ----------------------------------------
 BYTE   W96
// 021   ----------------------------------------
 BYTE   EOT
 BYTE   Bn0  v047
 BYTE   N96  An0
 BYTE   N96  An1
 BYTE   W96
// 022   ----------------------------------------
 BYTE   Bn0
 BYTE   N96  Bn1
 BYTE   W96
// 023   ----------------------------------------
 BYTE   Gs0
 BYTE   N96  Gs1
 BYTE   W96
// 024   ----------------------------------------
 BYTE   Cs1
 BYTE   N96  Cs2
 BYTE   W96
// 025   ----------------------------------------
 BYTE   Fs1
 BYTE   N96  Fs2
 BYTE   W96
// 026   ----------------------------------------
 BYTE   An0
 BYTE   N96  An1
 BYTE   W96
// 027   ----------------------------------------
 BYTE   Bn0
 BYTE   N96  Bn1
 BYTE   W96
// 028   ----------------------------------------
 BYTE   Bn0
 BYTE   N96  Bn1
 BYTE   W96
// 029   ----------------------------------------
 BYTE   An0
 BYTE   N96  An1
 BYTE   W96
// 030   ----------------------------------------
 BYTE   Bn0
 BYTE   N96  Bn1
 BYTE   W96
// 031   ----------------------------------------
 BYTE   Gs0
 BYTE   N96  Gs1
 BYTE   W96
// 032   ----------------------------------------
 BYTE   Cs1
 BYTE   N96  Cs2
 BYTE   W96
// 033   ----------------------------------------
 BYTE   Fs1
 BYTE   N96  Fs2
 BYTE   W96
// 034   ----------------------------------------
 BYTE   Gs0
 BYTE   N96  Gs1
 BYTE   W96
 BYTE   PATT
  POIN2 Label_5_0148DA32
// 035   ----------------------------------------
 BYTE   TIE  En1  v048
 BYTE   TIE  En2
 BYTE   W96
// 036   ----------------------------------------
 BYTE   W96
// 037   ----------------------------------------
 BYTE   EOT
 BYTE   En1  v052
 BYTE   GoTo
  POIN2 Label_5_0148D9EE
 BYTE   FINE

//**************** Track 7 (Midi-Chn.6) ****************//

TalesofPhantasiaTheDreamWillNeverDieAReliableChair_007:
// 000   ----------------------------------------
 BYTE   KEYSH   TalesofPhantasiaTheDreamWillNeverDieAReliableChair_key+0
Label_6_0148DAAA:
 BYTE   VOICE   4
 BYTE   MOD 0
 BYTE   CnM2
 BYTE   VOL   40*TalesofPhantasiaTheDreamWillNeverDieAReliableChair_mvl/mxv
 BYTE   PAN   c_v-9
 BYTE   BEND   c_v+0
 BYTE   N18  Cs3  v032
 BYTE   N18  En3
 BYTE   N18  Gs3
 BYTE   W18
 BYTE   Cs3
 BYTE   N18  En3
 BYTE   N18  Gs3
 BYTE   W18
 BYTE   Cs3
 BYTE   N18  En3
 BYTE   N18  Gs3
 BYTE   W18
 BYTE   Cs3
 BYTE   N18  En3
 BYTE   N18  Gs3
 BYTE   W18
 BYTE   N06  Cs3
 BYTE   N06  En3
 BYTE   N06  Gs3
 BYTE   W12
 BYTE   Cs3
 BYTE   N06  En3
 BYTE   N06  Gs3
 BYTE   W12
// 001   ----------------------------------------
Label_6_0148DADB:
 BYTE   N18  Bn2  v032
 BYTE   N18  Ds3
 BYTE   N18  Gs3
 BYTE   W18
 BYTE   Bn2
 BYTE   N18  Ds3
 BYTE   N18  Gs3
 BYTE   W18
 BYTE   Bn2
 BYTE   N18  Ds3
 BYTE   N18  Gs3
 BYTE   W18
 BYTE   Bn2
 BYTE   N18  Ds3
 BYTE   N18  Gs3
 BYTE   W18
 BYTE   N06  Bn2
 BYTE   N06  Ds3
 BYTE   N06  Gs3
 BYTE   W12
 BYTE   Bn2
 BYTE   N06  Ds3
 BYTE   N06  Gs3
 BYTE   W12
 BYTE   PEND 
// 002   ----------------------------------------
Label_6_0148DB03:
 BYTE   N18  Cs3  v032
 BYTE   N18  En3
 BYTE   N18  Gs3
 BYTE   W18
 BYTE   Cs3
 BYTE   N18  En3
 BYTE   N18  Gs3
 BYTE   W18
 BYTE   Cs3
 BYTE   N18  En3
 BYTE   N18  Gs3
 BYTE   W18
 BYTE   Cs3
 BYTE   N18  En3
 BYTE   N18  Gs3
 BYTE   W18
 BYTE   N06  Cs3
 BYTE   N06  En3
 BYTE   N06  Gs3
 BYTE   W12
 BYTE   Cs3
 BYTE   N06  En3
 BYTE   N06  Gs3
 BYTE   W12
 BYTE   PEND 
 BYTE   PATT
  POIN2 Label_6_0148DADB
// 003   ----------------------------------------
Label_6_0148DB30:
 BYTE   N18  Cs3  v032
 BYTE   N18  En3
 BYTE   N18  An3
 BYTE   W18
 BYTE   Cs3
 BYTE   N18  En3
 BYTE   N18  An3
 BYTE   W18
 BYTE   Cs3
 BYTE   N18  En3
 BYTE   N18  An3
 BYTE   W18
 BYTE   Cs3
 BYTE   N18  En3
 BYTE   N18  An3
 BYTE   W18
 BYTE   N06  Cs3
 BYTE   N06  En3
 BYTE   N06  An3
 BYTE   W12
 BYTE   Cs3
 BYTE   N06  En3
 BYTE   N06  An3
 BYTE   W12
 BYTE   PEND 
// 004   ----------------------------------------
 BYTE   N18  Cn3
 BYTE   N18  En3
 BYTE   N18  An3
 BYTE   W18
 BYTE   Cn3
 BYTE   N18  En3
 BYTE   N18  An3
 BYTE   W18
 BYTE   Cn3
 BYTE   N18  En3
 BYTE   N18  An3
 BYTE   W18
 BYTE   Cn3
 BYTE   N18  En3
 BYTE   N18  An3
 BYTE   W18
 BYTE   N06  Cn3
 BYTE   N06  En3
 BYTE   N06  An3
 BYTE   W12
 BYTE   Cn3
 BYTE   N06  En3
 BYTE   N06  An3
 BYTE   W12
// 005   ----------------------------------------
Label_6_0148DB7E:
 BYTE   N18  Bn2  v032
 BYTE   N18  En3
 BYTE   N18  Gs3
 BYTE   W18
 BYTE   Bn2
 BYTE   N18  En3
 BYTE   N18  Gs3
 BYTE   W18
 BYTE   Bn2
 BYTE   N18  En3
 BYTE   N18  Gs3
 BYTE   W18
 BYTE   Bn2
 BYTE   N18  En3
 BYTE   N18  Gs3
 BYTE   W18
 BYTE   N06  Bn2
 BYTE   N06  En3
 BYTE   N06  Gs3
 BYTE   W12
 BYTE   Bn2
 BYTE   N06  En3
 BYTE   N06  Gs3
 BYTE   W12
 BYTE   PEND 
// 006   ----------------------------------------
Label_6_0148DBA6:
 BYTE   N18  Bn2  v032
 BYTE   N18  En3
 BYTE   N18  An3
 BYTE   W18
 BYTE   Bn2
 BYTE   N18  En3
 BYTE   N18  An3
 BYTE   W18
 BYTE   Bn2
 BYTE   N18  En3
 BYTE   N18  Gs3
 BYTE   W18
 BYTE   Bn2
 BYTE   N18  En3
 BYTE   N18  Gs3
 BYTE   W18
 BYTE   N06  Bn2
 BYTE   N06  En3
 BYTE   N06  Gs3
 BYTE   W12
 BYTE   Bn2
 BYTE   N06  En3
 BYTE   N06  Gs3
 BYTE   W12
 BYTE   PEND 
 BYTE   PATT
  POIN2 Label_6_0148DB30
 BYTE   PATT
  POIN2 Label_6_0148DB30
// 007   ----------------------------------------
 BYTE   N13  Cs3  v032
 BYTE   N13  En3
 BYTE   N13  An3
 BYTE   W18
 BYTE   Cs3
 BYTE   N13  En3
 BYTE   N13  An3
 BYTE   W18
 BYTE   Cs3
 BYTE   N13  En3
 BYTE   N13  An3
 BYTE   W18
 BYTE   Cs3
 BYTE   N13  En3
 BYTE   N13  An3
 BYTE   W18
 BYTE   N06  Cs3
 BYTE   N06  En3
 BYTE   N06  An3
 BYTE   W12
 BYTE   Cs3
 BYTE   N06  En3
 BYTE   N06  An3
 BYTE   W12
 BYTE   PATT
  POIN2 Label_6_0148DB7E
 BYTE   PATT
  POIN2 Label_6_0148DB30
 BYTE   PATT
  POIN2 Label_6_0148DB7E
// 008   ----------------------------------------
Label_6_0148DC0E:
 BYTE   N18  Cs3  v032
 BYTE   N18  En3
 BYTE   N18  An3
 BYTE   W18
 BYTE   Cs3
 BYTE   N18  En3
 BYTE   N18  An3
 BYTE   W18
 BYTE   Cs3
 BYTE   N18  En3
 BYTE   N18  An3
 BYTE   W18
 BYTE   Cn3
 BYTE   N18  En3
 BYTE   N18  An3
 BYTE   W18
 BYTE   N06  Cn3
 BYTE   N06  En3
 BYTE   N06  An3
 BYTE   W12
 BYTE   Cn3
 BYTE   N06  En3
 BYTE   N06  An3
 BYTE   W12
 BYTE   PEND 
 BYTE   PATT
  POIN2 Label_6_0148DB7E
// 009   ----------------------------------------
 BYTE   N18  Cn3  v032
 BYTE   N18  Ds3
 BYTE   N18  Gs3
 BYTE   W18
 BYTE   Cn3
 BYTE   N18  Ds3
 BYTE   N18  Gs3
 BYTE   W18
 BYTE   Cn3
 BYTE   N18  Ds3
 BYTE   N18  Gs3
 BYTE   W18
 BYTE   Cn3
 BYTE   N18  Ds3
 BYTE   N18  Gs3
 BYTE   W18
 BYTE   N12  Cn3
 BYTE   N06  Ds3
 BYTE   N06  Gs3
 BYTE   W12
 BYTE   N18  Cn3
 BYTE   N06  Ds3
 BYTE   N06  Gs3
 BYTE   W12
 BYTE   PATT
  POIN2 Label_6_0148DB03
// 010   ----------------------------------------
 BYTE   N18  An2  v032
 BYTE   N18  En3
 BYTE   N18  Gs3
 BYTE   W18
 BYTE   An2
 BYTE   N18  En3
 BYTE   N18  Gs3
 BYTE   W18
 BYTE   An2
 BYTE   N18  En3
 BYTE   N18  Gs3
 BYTE   W18
 BYTE   An2
 BYTE   N18  En3
 BYTE   N18  Gs3
 BYTE   W18
 BYTE   N06  An2
 BYTE   N06  En3
 BYTE   N06  Gs3
 BYTE   W12
 BYTE   An2
 BYTE   N06  En3
 BYTE   N06  Gs3
 BYTE   W12
// 011   ----------------------------------------
Label_6_0148DC8F:
 BYTE   N18  An2  v032
 BYTE   N18  Cs3
 BYTE   N18  Fs3
 BYTE   W18
 BYTE   An2
 BYTE   N18  Cs3
 BYTE   N18  Fs3
 BYTE   W18
 BYTE   An2
 BYTE   N18  Cs3
 BYTE   N18  Fs3
 BYTE   W18
 BYTE   An2
 BYTE   N18  Cs3
 BYTE   N18  Fs3
 BYTE   W18
 BYTE   N06  An2
 BYTE   N06  Cs3
 BYTE   N06  Fs3
 BYTE   W12
 BYTE   An2
 BYTE   N06  Cs3
 BYTE   N06  Fs3
 BYTE   W12
 BYTE   PEND 
// 012   ----------------------------------------
Label_6_0148DCB7:
 BYTE   N18  Bn2  v032
 BYTE   N18  Ds3
 BYTE   N18  Fs3
 BYTE   W18
 BYTE   Bn2
 BYTE   N18  Ds3
 BYTE   N18  Fs3
 BYTE   W18
 BYTE   Bn2
 BYTE   N18  Ds3
 BYTE   N18  Fs3
 BYTE   W18
 BYTE   Bn2
 BYTE   N18  Ds3
 BYTE   N18  Fs3
 BYTE   W18
 BYTE   N06  Bn2
 BYTE   N06  Ds3
 BYTE   N06  Fs3
 BYTE   W12
 BYTE   Bn2
 BYTE   N06  Ds3
 BYTE   N06  Fs3
 BYTE   W12
 BYTE   PEND 
 BYTE   PATT
  POIN2 Label_6_0148DB30
// 013   ----------------------------------------
Label_6_0148DCE4:
 BYTE   N18  Ds3  v032
 BYTE   N18  Fs3
 BYTE   N18  Bn3
 BYTE   W18
 BYTE   Ds3
 BYTE   N18  Fs3
 BYTE   N18  Bn3
 BYTE   W18
 BYTE   Ds3
 BYTE   N18  Fs3
 BYTE   N18  Bn3
 BYTE   W18
 BYTE   Ds3
 BYTE   N18  Fs3
 BYTE   N18  Bn3
 BYTE   W18
 BYTE   N06  Ds3
 BYTE   N06  Fs3
 BYTE   N06  Bn3
 BYTE   W12
 BYTE   Ds3
 BYTE   N06  Fs3
 BYTE   N06  Bn3
 BYTE   W12
 BYTE   PEND 
// 014   ----------------------------------------
Label_6_0148DD0C:
 BYTE   N18  Ds3  v032
 BYTE   N18  Gs3
 BYTE   N18  Bn3
 BYTE   W18
 BYTE   Ds3
 BYTE   N18  Gs3
 BYTE   N18  Bn3
 BYTE   W18
 BYTE   Ds3
 BYTE   N18  Gs3
 BYTE   N18  Bn3
 BYTE   W18
 BYTE   Ds3
 BYTE   N18  Gs3
 BYTE   N18  Bn3
 BYTE   W18
 BYTE   N06  Ds3
 BYTE   N06  Gs3
 BYTE   N06  Bn3
 BYTE   W12
 BYTE   Ds3
 BYTE   N06  Gs3
 BYTE   N06  Bn3
 BYTE   W12
 BYTE   PEND 
 BYTE   PATT
  POIN2 Label_6_0148DB03
// 015   ----------------------------------------
Label_6_0148DD39:
 BYTE   N18  Cs3  v032
 BYTE   N18  Fs3
 BYTE   N18  An3
 BYTE   W18
 BYTE   Cs3
 BYTE   N18  Fs3
 BYTE   N18  An3
 BYTE   W18
 BYTE   Cs3
 BYTE   N18  Fs3
 BYTE   N18  An3
 BYTE   W18
 BYTE   Cs3
 BYTE   N18  Fs3
 BYTE   N18  An3
 BYTE   W18
 BYTE   N06  Cs3
 BYTE   N06  Fs3
 BYTE   N06  An3
 BYTE   W12
 BYTE   Cs3
 BYTE   N06  Fs3
 BYTE   N06  An3
 BYTE   W12
 BYTE   PEND 
 BYTE   PATT
  POIN2 Label_6_0148DD39
 BYTE   PATT
  POIN2 Label_6_0148DCB7
// 016   ----------------------------------------
 BYTE   N18  Bn2  v032
 BYTE   N18  Ds3
 BYTE   N18  Gs3
 BYTE   W18
 BYTE   Bn2
 BYTE   N18  Ds3
 BYTE   N18  Gs3
 BYTE   W18
 BYTE   Bn2
 BYTE   N18  Ds3
 BYTE   N18  Fs3
 BYTE   W18
 BYTE   Bn2
 BYTE   N18  Ds3
 BYTE   N18  Fs3
 BYTE   W18
 BYTE   N06  Bn2
 BYTE   N06  Ds3
 BYTE   N06  Fs3
 BYTE   W12
 BYTE   Bn2
 BYTE   N06  Ds3
 BYTE   N06  Fs3
 BYTE   W12
 BYTE   PATT
  POIN2 Label_6_0148DB30
 BYTE   PATT
  POIN2 Label_6_0148DCE4
 BYTE   PATT
  POIN2 Label_6_0148DD0C
 BYTE   PATT
  POIN2 Label_6_0148DB03
 BYTE   PATT
  POIN2 Label_6_0148DC8F
 BYTE   PATT
  POIN2 Label_6_0148DADB
 BYTE   PATT
  POIN2 Label_6_0148DC0E
 BYTE   PATT
  POIN2 Label_6_0148DB7E
 BYTE   PATT
  POIN2 Label_6_0148DBA6
// 017   ----------------------------------------
 BYTE   GoTo
  POIN2 Label_6_0148DAAA
 BYTE   FINE

//**************** Track 8 (Midi-Chn.7) ****************//

TalesofPhantasiaTheDreamWillNeverDieAReliableChair_008:
// 000   ----------------------------------------
 BYTE   KEYSH   TalesofPhantasiaTheDreamWillNeverDieAReliableChair_key+0
Label_7_0148DDCA:
 BYTE   VOICE   1
 BYTE   MOD 0
 BYTE   CnM2
 BYTE   VOL   40*TalesofPhantasiaTheDreamWillNeverDieAReliableChair_mvl/mxv
 BYTE   PAN   c_v-27
 BYTE   VOL   35*TalesofPhantasiaTheDreamWillNeverDieAReliableChair_mvl/mxv
 BYTE   BEND   c_v+0
 BYTE   N96  Cs3  v032
 BYTE   N96  En3
 BYTE   N96  Gs3
 BYTE   W96
// 001   ----------------------------------------
Label_7_0148DDDE:
 BYTE   N96  Bn2  v032
 BYTE   N96  Ds3
 BYTE   N96  Gs3
 BYTE   W96
 BYTE   PEND 
// 002   ----------------------------------------
 BYTE   Cs3
 BYTE   N96  En3
 BYTE   N96  Gs3
 BYTE   W96
 BYTE   PATT
  POIN2 Label_7_0148DDDE
// 003   ----------------------------------------
Label_7_0148DDF2:
 BYTE   N96  Cs3  v032
 BYTE   N96  En3
 BYTE   N96  An3
 BYTE   W96
 BYTE   PEND 
// 004   ----------------------------------------
 BYTE   Cn3
 BYTE   N96  En3
 BYTE   N96  An3
 BYTE   W96
// 005   ----------------------------------------
 BYTE   Bn2
 BYTE   N96  En3
 BYTE   N96  Gs3
 BYTE   W96
// 006   ----------------------------------------
 BYTE   Bn2
 BYTE   N96  En3
 BYTE   N36  An3
 BYTE   W36
 BYTE   N60  Gs3
 BYTE   W60
 BYTE   PATT
  POIN2 Label_7_0148DDF2
// 007   ----------------------------------------
 BYTE   N96  Cs3  v032
 BYTE   N96  En3
 BYTE   N96  An3
 BYTE   N96  Cs4
 BYTE   W96
// 008   ----------------------------------------
 BYTE   Cs3
 BYTE   N96  En3
 BYTE   N96  An3
 BYTE   N72  En4
 BYTE   W72
 BYTE   N24  An4
 BYTE   W24
// 009   ----------------------------------------
Label_7_0148DE2A:
 BYTE   N96  Bn2  v032
 BYTE   N96  En3
 BYTE   N96  Gs3
 BYTE   N96  Gs4
 BYTE   W96
 BYTE   PEND 
// 010   ----------------------------------------
 BYTE   Cs3
 BYTE   N96  En3
 BYTE   N96  An3
 BYTE   N96  An4
 BYTE   W96
 BYTE   PATT
  POIN2 Label_7_0148DE2A
// 011   ----------------------------------------
 BYTE   N48  Cs3  v032
 BYTE   N96  En3
 BYTE   N96  An3
 BYTE   N96  An4
 BYTE   W48
 BYTE   N48  Cn3
 BYTE   W48
 BYTE   PATT
  POIN2 Label_7_0148DE2A
// 012   ----------------------------------------
 BYTE   N96  Cn3  v032
 BYTE   N96  Ds3
 BYTE   N96  Gs3
 BYTE   N96  Gs4
 BYTE   W96
// 013   ----------------------------------------
 BYTE   Cs3
 BYTE   N96  En3
 BYTE   N96  Gs3
 BYTE   N96  Gs4
 BYTE   W96
// 014   ----------------------------------------
 BYTE   An2
 BYTE   N96  En3
 BYTE   N96  Gs3
 BYTE   N96  Gs4
 BYTE   W96
// 015   ----------------------------------------
 BYTE   An2
 BYTE   N96  Cs3
 BYTE   TIE  Fs3
 BYTE   N72  Fs4
 BYTE   W72
 BYTE   N12  Gs4
 BYTE   W12
 BYTE   An4
 BYTE   W12
// 016   ----------------------------------------
 BYTE   N96  Bn2
 BYTE   N96  Ds3
 BYTE   N96  Bn4
 BYTE   W96
// 017   ----------------------------------------
 BYTE   EOT
 BYTE   Fs3
Label_7_0148DE84:
 BYTE   N96  Cs3  v032
 BYTE   N96  En3
 BYTE   N96  An3
 BYTE   N72  An4
 BYTE   W72
 BYTE   N24  Cs5
 BYTE   W24
 BYTE   PEND 
// 018   ----------------------------------------
Label_7_0148DE92:
 BYTE   N96  Ds3  v032
 BYTE   N96  Fs3
 BYTE   N96  Bn3
 BYTE   N96  Bn4
 BYTE   W96
 BYTE   PEND 
// 019   ----------------------------------------
Label_7_0148DE9D:
 BYTE   N96  Ds3  v032
 BYTE   N96  Gs3
 BYTE   N96  Bn3
 BYTE   N96  Bn4
 BYTE   W96
 BYTE   PEND 
// 020   ----------------------------------------
Label_7_0148DEA8:
 BYTE   N96  En3  v032
 BYTE   N96  Gs3
 BYTE   N96  Cs4
 BYTE   N96  Bn4
 BYTE   W96
 BYTE   PEND 
// 021   ----------------------------------------
Label_7_0148DEB3:
 BYTE   N96  Fs3  v032
 BYTE   N96  An3
 BYTE   N96  Cs4
 BYTE   N96  Fs4
 BYTE   W96
 BYTE   PEND 
// 022   ----------------------------------------
 BYTE   Fs3
 BYTE   N96  Cs4
 BYTE   N96  Fs4
 BYTE   N96  An4
 BYTE   W96
// 023   ----------------------------------------
 BYTE   Fs3
 BYTE   N96  Bn3
 BYTE   N96  Ds4
 BYTE   N96  Fs4
 BYTE   W96
// 024   ----------------------------------------
 BYTE   Fs3
 BYTE   N96  Bn3
 BYTE   N96  Ds4
 BYTE   N36  Gs4
 BYTE   W36
 BYTE   N60  Fs4
 BYTE   W60
 BYTE   PATT
  POIN2 Label_7_0148DE84
 BYTE   PATT
  POIN2 Label_7_0148DE92
 BYTE   PATT
  POIN2 Label_7_0148DE9D
 BYTE   PATT
  POIN2 Label_7_0148DEA8
 BYTE   PATT
  POIN2 Label_7_0148DEB3
// 025   ----------------------------------------
 BYTE   N96  Gs3  v032
 BYTE   N96  Bn3
 BYTE   N96  Ds4
 BYTE   N96  Gs4
 BYTE   W96
// 026   ----------------------------------------
 BYTE   An3
 BYTE   N48  Cs4
 BYTE   N96  En4
 BYTE   N96  An4
 BYTE   W48
 BYTE   N48  Cn4
 BYTE   W48
// 027   ----------------------------------------
 BYTE   TIE  Gs3
 BYTE   TIE  Bn3
 BYTE   TIE  En4
 BYTE   N96  Gs4
 BYTE   W96
// 028   ----------------------------------------
 BYTE   N36  An4
 BYTE   W36
 BYTE   N60  Gs4
 BYTE   W60
// 029   ----------------------------------------
 BYTE   EOT
 BYTE   Gs3  v071
 BYTE   En4
 BYTE   GoTo
  POIN2 Label_7_0148DDCA
 BYTE   FINE

//**************** Track 9 (Midi-Chn.8) ****************//

TalesofPhantasiaTheDreamWillNeverDieAReliableChair_009:
// 000   ----------------------------------------
 BYTE   KEYSH   TalesofPhantasiaTheDreamWillNeverDieAReliableChair_key+0
Label_8_0148DF22:
 BYTE   VOICE   121
 BYTE   MOD 0
 BYTE   CnM2
 BYTE   VOL   49*TalesofPhantasiaTheDreamWillNeverDieAReliableChair_mvl/mxv
 BYTE   PAN   c_v+0
 BYTE   BEND   c_v+0
 BYTE   N24  Cn1  v064
 BYTE   N24  Cs2
 BYTE   W24
 BYTE   Cn1
 BYTE   N24  Ds1
 BYTE   W24
 BYTE   Cn1
 BYTE   W24
 BYTE   N24
 BYTE   N24  Ds1
 BYTE   W24
// 001   ----------------------------------------
Label_8_0148DF3C:
 BYTE   N24  Cn1  v064
 BYTE   W24
 BYTE   N24
 BYTE   N24  Ds1
 BYTE   W24
 BYTE   Cn1
 BYTE   W24
 BYTE   N24
 BYTE   N24  Ds1
 BYTE   W24
 BYTE   PEND 
 BYTE   PATT
  POIN2 Label_8_0148DF3C
 BYTE   PATT
  POIN2 Label_8_0148DF3C
 BYTE   PATT
  POIN2 Label_8_0148DF3C
 BYTE   PATT
  POIN2 Label_8_0148DF3C
 BYTE   PATT
  POIN2 Label_8_0148DF3C
 BYTE   PATT
  POIN2 Label_8_0148DF3C
 BYTE   PATT
  POIN2 Label_8_0148DF3C
 BYTE   PATT
  POIN2 Label_8_0148DF3C
 BYTE   PATT
  POIN2 Label_8_0148DF3C
 BYTE   PATT
  POIN2 Label_8_0148DF3C
// 002   ----------------------------------------
Label_8_0148DF7D:
 BYTE   N24  Cn1  v064
 BYTE   N24  Cs2
 BYTE   W24
 BYTE   Cn1
 BYTE   N24  Ds1
 BYTE   W24
 BYTE   Cn1
 BYTE   W24
 BYTE   N24
 BYTE   N24  Ds1
 BYTE   W24
 BYTE   PEND 
 BYTE   PATT
  POIN2 Label_8_0148DF3C
 BYTE   PATT
  POIN2 Label_8_0148DF3C
 BYTE   PATT
  POIN2 Label_8_0148DF3C
 BYTE   PATT
  POIN2 Label_8_0148DF7D
 BYTE   PATT
  POIN2 Label_8_0148DF3C
 BYTE   PATT
  POIN2 Label_8_0148DF3C
 BYTE   PATT
  POIN2 Label_8_0148DF3C
// 003   ----------------------------------------
 BYTE   N24  Cn1  v064
 BYTE   N06  Dn1
 BYTE   W12
 BYTE   N06
 BYTE   W06
 BYTE   N06
 BYTE   W06
 BYTE   N24  Cn1
 BYTE   N06  Dn1
 BYTE   N24  Ds1
 BYTE   W12
 BYTE   N06  Dn1
 BYTE   W06
 BYTE   N06
 BYTE   W06
 BYTE   N24  Cn1
 BYTE   N06  Dn1
 BYTE   W12
 BYTE   N06
 BYTE   W06
 BYTE   N06
 BYTE   W06
 BYTE   N24  Cn1
 BYTE   N06  Dn1
 BYTE   N24  Ds1
 BYTE   W06
 BYTE   N06  Dn1
 BYTE   W06
 BYTE   N06
 BYTE   W06
 BYTE   N24
 BYTE   W06
 BYTE   PATT
  POIN2 Label_8_0148DF7D
 BYTE   PATT
  POIN2 Label_8_0148DF3C
 BYTE   PATT
  POIN2 Label_8_0148DF3C
 BYTE   PATT
  POIN2 Label_8_0148DF3C
 BYTE   PATT
  POIN2 Label_8_0148DF3C
 BYTE   PATT
  POIN2 Label_8_0148DF3C
 BYTE   PATT
  POIN2 Label_8_0148DF3C
// 004   ----------------------------------------
Label_8_0148E001:
 BYTE   N24  Cn1  v064
 BYTE   W24
 BYTE   N24
 BYTE   N24  Ds1
 BYTE   W24
 BYTE   Cn1
 BYTE   W12
 BYTE   N06  Dn1
 BYTE   W06
 BYTE   N06
 BYTE   W06
 BYTE   N24  Cn1
 BYTE   N06  Dn1
 BYTE   N24  Ds1
 BYTE   W06
 BYTE   N06  Dn1
 BYTE   W06
 BYTE   N06
 BYTE   W06
 BYTE   N06
 BYTE   W06
 BYTE   PEND 
 BYTE   PATT
  POIN2 Label_8_0148DF7D
 BYTE   PATT
  POIN2 Label_8_0148DF3C
 BYTE   PATT
  POIN2 Label_8_0148DF3C
 BYTE   PATT
  POIN2 Label_8_0148DF3C
 BYTE   PATT
  POIN2 Label_8_0148DF3C
 BYTE   PATT
  POIN2 Label_8_0148DF3C
 BYTE   PATT
  POIN2 Label_8_0148DF3C
 BYTE   PATT
  POIN2 Label_8_0148DF3C
 BYTE   PATT
  POIN2 Label_8_0148E001
// 005   ----------------------------------------
 BYTE   GoTo
  POIN2 Label_8_0148DF22
 BYTE   FINE

//******************************************************//
	ALIGN 4

TalesofPhantasiaTheDreamWillNeverDieAReliableChair:
	BYTE	9	// NumTrks
	BYTE	0	// NumBlks
	BYTE	TalesofPhantasiaTheDreamWillNeverDieAReliableChair_pri	// Priority
	BYTE	TalesofPhantasiaTheDreamWillNeverDieAReliableChair_rev	// Reverb.
    
	POIN2	TalesofPhantasiaTheDreamWillNeverDieAReliableChair_grp
    
	POIN2	TalesofPhantasiaTheDreamWillNeverDieAReliableChair_001
	POIN2	TalesofPhantasiaTheDreamWillNeverDieAReliableChair_002
	POIN2	TalesofPhantasiaTheDreamWillNeverDieAReliableChair_003
	POIN2	TalesofPhantasiaTheDreamWillNeverDieAReliableChair_004
	POIN2	TalesofPhantasiaTheDreamWillNeverDieAReliableChair_005
	POIN2	TalesofPhantasiaTheDreamWillNeverDieAReliableChair_006
	POIN2	TalesofPhantasiaTheDreamWillNeverDieAReliableChair_007
	POIN2	TalesofPhantasiaTheDreamWillNeverDieAReliableChair_008
	POIN2	TalesofPhantasiaTheDreamWillNeverDieAReliableChair_009

	
