//Event file generated from Sappy .s format.
	#include "MPlayDef.event"

	#define	TalesOfSymphoniaLikeAGlintOfLightAReliableChair_grp  voicegroup000
	#define	TalesOfSymphoniaLikeAGlintOfLightAReliableChair_pri  0
	#define	TalesOfSymphoniaLikeAGlintOfLightAReliableChair_rev  0
	#define	TalesOfSymphoniaLikeAGlintOfLightAReliableChair_mvl  127
	#define	TalesOfSymphoniaLikeAGlintOfLightAReliableChair_key  0
	#define	TalesOfSymphoniaLikeAGlintOfLightAReliableChair_tbs  1
	#define	TalesOfSymphoniaLikeAGlintOfLightAReliableChair_exg  0
	#define	TalesOfSymphoniaLikeAGlintOfLightAReliableChair_cmp  1

	// .rodata
	//	TalesOfSymphoniaLikeAGlintOfLightAReliableChair
	ALIGN 4


//**************** Track 1 (Midi-Chn.0) ****************//

TalesOfSymphoniaLikeAGlintOfLightAReliableChair_001:
// 000   ----------------------------------------
 BYTE   KEYSH   TalesOfSymphoniaLikeAGlintOfLightAReliableChair_key+0
Label_0_0144CDDE:
 BYTE   TEMPO   240*TalesOfSymphoniaLikeAGlintOfLightAReliableChair_tbs/2
 BYTE   VOICE   41
 BYTE   MODT 0
 BYTE   CnM2
 BYTE   LFOS 0
 BYTE   Gs1
 BYTE   VOL   39*TalesOfSymphoniaLikeAGlintOfLightAReliableChair_mvl/mxv
 BYTE   PAN   c_v+0
 BYTE   VOL   18*TalesOfSymphoniaLikeAGlintOfLightAReliableChair_mvl/mxv
 BYTE   N60  Bn3  v088
 BYTE   W24
 BYTE   TEMPO   200*TalesOfSymphoniaLikeAGlintOfLightAReliableChair_tbs/2
 BYTE   W36
 BYTE   N12  Cn4
 BYTE   W12
 BYTE   Dn4
 BYTE   W12
 BYTE   En4
 BYTE   W12
// 001   ----------------------------------------
Label_0_0144CDFA:
 BYTE   N48  Bn3  v088
 BYTE   W48
 BYTE   N24  Gn3
 BYTE   W24
 BYTE   Bn3
 BYTE   W24
 BYTE   PEND 
// 002   ----------------------------------------
Label_0_0144CE04:
 BYTE   N36  An3  v088
 BYTE   W36
 BYTE   Bn3
 BYTE   W36
 BYTE   N24  Cn4
 BYTE   W24
 BYTE   PEND 
// 003   ----------------------------------------
Label_0_0144CE0E:
 BYTE   N36  Bn3  v088
 BYTE   W36
 BYTE   Ds4
 BYTE   W36
 BYTE   N24  Fs4
 BYTE   W24
 BYTE   PEND 
// 004   ----------------------------------------
Label_0_0144CE18:
 BYTE   N48  Gn4  v088
 BYTE   W48
 BYTE   N24  En4
 BYTE   W24
 BYTE   Gn4
 BYTE   W24
 BYTE   PEND 
// 005   ----------------------------------------
Label_0_0144CE22:
 BYTE   N48  Fs4  v088
 BYTE   W48
 BYTE   Dn4
 BYTE   W48
 BYTE   PEND 
// 006   ----------------------------------------
Label_0_0144CE29:
 BYTE   N48  Bn3  v088
 BYTE   W48
 BYTE   N15
 BYTE   W15
 BYTE   N16  Cn4
 BYTE   W17
 BYTE   N15  Dn4
 BYTE   W16
 BYTE   PEND 
// 007   ----------------------------------------
 BYTE   N96  Bn3
 BYTE   W96
// 008   ----------------------------------------
Label_0_0144CE39:
 BYTE   N60  Bn3  v088
 BYTE   W60
 BYTE   N12  Cn4
 BYTE   W12
 BYTE   Dn4
 BYTE   W12
 BYTE   En4
 BYTE   W12
 BYTE   PEND 
 BYTE   PATT
  POIN2 Label_0_0144CDFA
 BYTE   PATT
  POIN2 Label_0_0144CE04
 BYTE   PATT
  POIN2 Label_0_0144CE0E
 BYTE   PATT
  POIN2 Label_0_0144CE18
 BYTE   PATT
  POIN2 Label_0_0144CE22
// 009   ----------------------------------------
Label_0_0144CE5E:
 BYTE   N48  Cn4  v088
 BYTE   W48
 BYTE   N15
 BYTE   W15
 BYTE   N16  Dn4
 BYTE   W17
 BYTE   N15  En4
 BYTE   W16
 BYTE   PEND 
// 010   ----------------------------------------
Label_0_0144CE6B:
 BYTE   N48  Fs4  v088
 BYTE   W48
 BYTE   Bn3
 BYTE   W48
 BYTE   PEND 
// 011   ----------------------------------------
 BYTE   VOL   25*TalesOfSymphoniaLikeAGlintOfLightAReliableChair_mvl/mxv
 BYTE   N48  Cs4
 BYTE   W48
 BYTE   N24  Bn3
 BYTE   W24
 BYTE   En4
 BYTE   W24
// 012   ----------------------------------------
 BYTE   N60  Cs4
 BYTE   W60
 BYTE   N12  Bn3
 BYTE   W12
 BYTE   An3
 BYTE   W12
 BYTE   Bn3
 BYTE   W12
// 013   ----------------------------------------
 BYTE   N36  Cn4
 BYTE   W36
 BYTE   Bn3
 BYTE   W36
 BYTE   N24  Gn3
 BYTE   W24
// 014   ----------------------------------------
 BYTE   N96  An3
 BYTE   W96
// 015   ----------------------------------------
 BYTE   N48  Dn4
 BYTE   W48
 BYTE   N15
 BYTE   W15
 BYTE   N16  Cn4
 BYTE   W17
 BYTE   N15  As3
 BYTE   W16
// 016   ----------------------------------------
 BYTE   An3
 BYTE   W15
 BYTE   N16  As3
 BYTE   W17
 BYTE   N15  Cn4
 BYTE   W16
 BYTE   N48  Dn4
 BYTE   W48
// 017   ----------------------------------------
Label_0_0144CEA7:
 BYTE   N36  Gn3  v088
 BYTE   W36
 BYTE   An3
 BYTE   W36
 BYTE   Bn3
 BYTE   W24
 BYTE   PEND 
// 018   ----------------------------------------
Label_0_0144CEB0:
 BYTE   W12
 BYTE   N36  Gn4  v088
 BYTE   W36
 BYTE   N24  Fs4
 BYTE   W24
 BYTE   En4
 BYTE   W24
 BYTE   PEND 
// 019   ----------------------------------------
Label_0_0144CEBB:
 BYTE   N36  Dn4  v088
 BYTE   W36
 BYTE   En4
 BYTE   W36
 BYTE   TIE  Bn3
 BYTE   W24
 BYTE   PEND 
// 020   ----------------------------------------
 BYTE   W96
// 021   ----------------------------------------
 BYTE   EOT
 BYTE   N96  En3
 BYTE   W96
// 022   ----------------------------------------
Label_0_0144CECA:
 BYTE   N48  Dn3  v088
 BYTE   W48
 BYTE   En3
 BYTE   W48
 BYTE   PEND 
// 023   ----------------------------------------
Label_0_0144CED1:
 BYTE   N36  Ds3  v088
 BYTE   W36
 BYTE   Bn2
 BYTE   W36
 BYTE   N24  Fs2
 BYTE   W24
 BYTE   PEND 
// 024   ----------------------------------------
Label_0_0144CEDB:
 BYTE   N36  Ds2  v088
 BYTE   W36
 BYTE   En2
 BYTE   W36
 BYTE   N24  Fs2
 BYTE   W24
 BYTE   PEND 
 BYTE   PATT
  POIN2 Label_0_0144CEA7
 BYTE   PATT
  POIN2 Label_0_0144CEB0
 BYTE   PATT
  POIN2 Label_0_0144CEBB
// 025   ----------------------------------------
 BYTE   W96
// 026   ----------------------------------------
 BYTE   EOT
 BYTE   Bn3
 BYTE   N96  En3  v088
 BYTE   W96
 BYTE   PATT
  POIN2 Label_0_0144CECA
 BYTE   PATT
  POIN2 Label_0_0144CED1
 BYTE   PATT
  POIN2 Label_0_0144CEDB
// 027   ----------------------------------------
 BYTE   VOL   18*TalesOfSymphoniaLikeAGlintOfLightAReliableChair_mvl/mxv
 BYTE   N60  Bn3  v088
 BYTE   W60
 BYTE   N12  Cn4
 BYTE   W12
 BYTE   Dn4
 BYTE   W12
 BYTE   En4
 BYTE   W12
 BYTE   PATT
  POIN2 Label_0_0144CDFA
 BYTE   PATT
  POIN2 Label_0_0144CE04
 BYTE   PATT
  POIN2 Label_0_0144CE0E
 BYTE   PATT
  POIN2 Label_0_0144CE18
 BYTE   PATT
  POIN2 Label_0_0144CE22
 BYTE   PATT
  POIN2 Label_0_0144CE29
// 028   ----------------------------------------
 BYTE   N96  Bn3  v088
 BYTE   W96
 BYTE   PATT
  POIN2 Label_0_0144CE39
 BYTE   PATT
  POIN2 Label_0_0144CDFA
 BYTE   PATT
  POIN2 Label_0_0144CE04
 BYTE   PATT
  POIN2 Label_0_0144CE0E
 BYTE   PATT
  POIN2 Label_0_0144CE18
 BYTE   PATT
  POIN2 Label_0_0144CE22
 BYTE   PATT
  POIN2 Label_0_0144CE5E
 BYTE   PATT
  POIN2 Label_0_0144CE6B
// 029   ----------------------------------------
 BYTE   VOL   14*TalesOfSymphoniaLikeAGlintOfLightAReliableChair_mvl/mxv
 BYTE   N12  Cn3  v088
 BYTE   W36
 BYTE   N12
 BYTE   W36
 BYTE   N24
 BYTE   W24
// 030   ----------------------------------------
Label_0_0144CF6B:
 BYTE   N12  Dn3  v088
 BYTE   W36
 BYTE   N12
 BYTE   W24
 BYTE   N12
 BYTE   W36
 BYTE   PEND 
// 031   ----------------------------------------
Label_0_0144CF74:
 BYTE   N12  En3  v088
 BYTE   W36
 BYTE   N12
 BYTE   W36
 BYTE   N24
 BYTE   W24
 BYTE   PEND 
// 032   ----------------------------------------
Label_0_0144CF7D:
 BYTE   N12  En3  v088
 BYTE   W36
 BYTE   N12
 BYTE   W36
 BYTE   N12
 BYTE   W12
 BYTE   N12
 BYTE   W12
 BYTE   PEND 
// 033   ----------------------------------------
Label_0_0144CF88:
 BYTE   N12  Cn3  v088
 BYTE   W36
 BYTE   N12
 BYTE   W24
 BYTE   N12
 BYTE   W36
 BYTE   PEND 
 BYTE   PATT
  POIN2 Label_0_0144CF6B
 BYTE   PATT
  POIN2 Label_0_0144CF74
 BYTE   PATT
  POIN2 Label_0_0144CF74
// 034   ----------------------------------------
 BYTE   N12  Cn3  v088
 BYTE   W36
 BYTE   N12
 BYTE   W36
 BYTE   N24
 BYTE   W24
 BYTE   PATT
  POIN2 Label_0_0144CF6B
 BYTE   PATT
  POIN2 Label_0_0144CF74
 BYTE   PATT
  POIN2 Label_0_0144CF7D
 BYTE   PATT
  POIN2 Label_0_0144CF88
 BYTE   PATT
  POIN2 Label_0_0144CF6B
 BYTE   PATT
  POIN2 Label_0_0144CF74
 BYTE   PATT
  POIN2 Label_0_0144CF74
// 035   ----------------------------------------
 BYTE   GoTo
  POIN2 Label_0_0144CDDE
 BYTE   FINE

//**************** Track 2 (Midi-Chn.1) ****************//

TalesOfSymphoniaLikeAGlintOfLightAReliableChair_002:
// 000   ----------------------------------------
 BYTE   KEYSH   TalesOfSymphoniaLikeAGlintOfLightAReliableChair_key+0
Label_1_0144CFD6:
 BYTE   VOICE   41
 BYTE   MODT 0
 BYTE   CnM2
 BYTE   LFOS 0
 BYTE   Gs1
 BYTE   VOL   33*TalesOfSymphoniaLikeAGlintOfLightAReliableChair_mvl/mxv
 BYTE   PAN   c_v+0
 BYTE   VOL   22*TalesOfSymphoniaLikeAGlintOfLightAReliableChair_mvl/mxv
 BYTE   N96  Gn3  v088
 BYTE   W96
// 001   ----------------------------------------
 BYTE   N96
 BYTE   W96
// 002   ----------------------------------------
 BYTE   An3
 BYTE   W96
// 003   ----------------------------------------
 BYTE   Bn3
 BYTE   W96
// 004   ----------------------------------------
 BYTE   Gn3
 BYTE   W96
// 005   ----------------------------------------
 BYTE   An3
 BYTE   W96
// 006   ----------------------------------------
 BYTE   N96
 BYTE   W96
// 007   ----------------------------------------
Label_1_0144CFF2:
 BYTE   N48  An3  v088
 BYTE   W48
 BYTE   Cn4
 BYTE   W48
 BYTE   PEND 
// 008   ----------------------------------------
 BYTE   N96  Gn3
 BYTE   W96
// 009   ----------------------------------------
 BYTE   N96
 BYTE   W96
// 010   ----------------------------------------
 BYTE   An3
 BYTE   W96
// 011   ----------------------------------------
 BYTE   Bn3
 BYTE   W96
// 012   ----------------------------------------
 BYTE   Gn3
 BYTE   W96
// 013   ----------------------------------------
 BYTE   An3
 BYTE   W96
// 014   ----------------------------------------
 BYTE   Gn3
 BYTE   W96
// 015   ----------------------------------------
Label_1_0144D008:
 BYTE   N48  Bn2  v088
 BYTE   W48
 BYTE   Bn3
 BYTE   W48
 BYTE   PEND 
// 016   ----------------------------------------
 BYTE   TIE  Fs3
 BYTE   W96
// 017   ----------------------------------------
 BYTE   W96
// 018   ----------------------------------------
 BYTE   EOT
 BYTE   TIE  An3
 BYTE   W96
// 019   ----------------------------------------
 BYTE   W96
// 020   ----------------------------------------
 BYTE   EOT
 BYTE   TIE  Dn3
 BYTE   W96
// 021   ----------------------------------------
 BYTE   W96
// 022   ----------------------------------------
 BYTE   EOT
 BYTE   TIE  Gn3
 BYTE   W96
// 023   ----------------------------------------
 BYTE   W96
// 024   ----------------------------------------
 BYTE   EOT
 BYTE   TIE
 BYTE   W96
// 025   ----------------------------------------
 BYTE   W96
// 026   ----------------------------------------
 BYTE   EOT
 BYTE   TIE  An3
 BYTE   W96
// 027   ----------------------------------------
 BYTE   W96
// 028   ----------------------------------------
 BYTE   EOT
 BYTE   TIE  Bn3
 BYTE   W96
// 029   ----------------------------------------
 BYTE   W96
// 030   ----------------------------------------
 BYTE   EOT
 BYTE   TIE  Gn3
 BYTE   W96
// 031   ----------------------------------------
 BYTE   W96
// 032   ----------------------------------------
 BYTE   EOT
 BYTE   TIE
 BYTE   W96
// 033   ----------------------------------------
 BYTE   W96
// 034   ----------------------------------------
 BYTE   EOT
 BYTE   TIE  An3
 BYTE   W96
// 035   ----------------------------------------
 BYTE   W96
// 036   ----------------------------------------
 BYTE   EOT
 BYTE   TIE  Bn3
 BYTE   W96
// 037   ----------------------------------------
 BYTE   W96
// 038   ----------------------------------------
 BYTE   EOT
 BYTE   N96  Gn3
 BYTE   W96
// 039   ----------------------------------------
 BYTE   N96
 BYTE   W96
// 040   ----------------------------------------
 BYTE   An3
 BYTE   W96
// 041   ----------------------------------------
 BYTE   Bn3
 BYTE   W96
// 042   ----------------------------------------
 BYTE   Gn3
 BYTE   W96
// 043   ----------------------------------------
 BYTE   An3
 BYTE   W96
// 044   ----------------------------------------
 BYTE   N96
 BYTE   W96
 BYTE   PATT
  POIN2 Label_1_0144CFF2
// 045   ----------------------------------------
 BYTE   N96  Gn3  v088
 BYTE   W96
// 046   ----------------------------------------
 BYTE   N96
 BYTE   W96
// 047   ----------------------------------------
 BYTE   An3
 BYTE   W96
// 048   ----------------------------------------
 BYTE   Bn3
 BYTE   W96
// 049   ----------------------------------------
 BYTE   Gn3
 BYTE   W96
// 050   ----------------------------------------
 BYTE   An3
 BYTE   W96
// 051   ----------------------------------------
 BYTE   Gn3
 BYTE   W96
 BYTE   PATT
  POIN2 Label_1_0144D008
// 052   ----------------------------------------
 BYTE   N96  Cn4  v088
 BYTE   W96
// 053   ----------------------------------------
 BYTE   Dn4
 BYTE   W96
// 054   ----------------------------------------
 BYTE   TIE  En4
 BYTE   W96
// 055   ----------------------------------------
 BYTE   W96
// 056   ----------------------------------------
 BYTE   EOT
Label_1_0144D078:
 BYTE   N84  Cn4  v088
 BYTE   W84
 BYTE   TIE  An3
 BYTE   W12
 BYTE   PEND 
// 057   ----------------------------------------
 BYTE   W96
// 058   ----------------------------------------
 BYTE   EOT
 BYTE   TIE  En4
 BYTE   W96
// 059   ----------------------------------------
 BYTE   W96
// 060   ----------------------------------------
 BYTE   EOT
 BYTE   N96  Cn4
 BYTE   W96
// 061   ----------------------------------------
 BYTE   Dn4
 BYTE   W96
// 062   ----------------------------------------
 BYTE   TIE  En4
 BYTE   W96
// 063   ----------------------------------------
 BYTE   W96
// 064   ----------------------------------------
 BYTE   EOT
 BYTE   PATT
  POIN2 Label_1_0144D078
// 065   ----------------------------------------
 BYTE   W96
// 066   ----------------------------------------
 BYTE   EOT
 BYTE   An3
 BYTE   TIE  En4  v088
 BYTE   W96
// 067   ----------------------------------------
 BYTE   W96
// 068   ----------------------------------------
 BYTE   EOT
 BYTE   GoTo
  POIN2 Label_1_0144CFD6
 BYTE   FINE

//**************** Track 3 (Midi-Chn.2) ****************//

TalesOfSymphoniaLikeAGlintOfLightAReliableChair_003:
// 000   ----------------------------------------
 BYTE   KEYSH   TalesOfSymphoniaLikeAGlintOfLightAReliableChair_key+0
Label_2_0144D0AA:
 BYTE   VOICE   41
 BYTE   MODT 0
 BYTE   CnM2
 BYTE   LFOS 0
 BYTE   Gs1
 BYTE   VOL   33*TalesOfSymphoniaLikeAGlintOfLightAReliableChair_mvl/mxv
 BYTE   PAN   c_v+0
 BYTE   VOL   22*TalesOfSymphoniaLikeAGlintOfLightAReliableChair_mvl/mxv
 BYTE   N96  En3  v088
 BYTE   W96
// 001   ----------------------------------------
 BYTE   N96
 BYTE   W96
// 002   ----------------------------------------
 BYTE   Dn3
 BYTE   W96
// 003   ----------------------------------------
 BYTE   En3
 BYTE   W96
// 004   ----------------------------------------
 BYTE   N96
 BYTE   W96
// 005   ----------------------------------------
 BYTE   Dn3
 BYTE   W96
// 006   ----------------------------------------
 BYTE   N96
 BYTE   W96
// 007   ----------------------------------------
Label_2_0144D0C6:
 BYTE   N48  Dn3  v088
 BYTE   W48
 BYTE   An3
 BYTE   W48
 BYTE   PEND 
// 008   ----------------------------------------
 BYTE   N96  En3
 BYTE   W96
// 009   ----------------------------------------
 BYTE   N96
 BYTE   W96
// 010   ----------------------------------------
 BYTE   Dn3
 BYTE   W96
// 011   ----------------------------------------
 BYTE   En3
 BYTE   W96
// 012   ----------------------------------------
 BYTE   N96
 BYTE   W96
// 013   ----------------------------------------
 BYTE   Dn3
 BYTE   W96
// 014   ----------------------------------------
 BYTE   En3
 BYTE   W96
// 015   ----------------------------------------
Label_2_0144D0DC:
 BYTE   N48  Ds3  v088
 BYTE   W48
 BYTE   N48
 BYTE   W48
 BYTE   PEND 
// 016   ----------------------------------------
 BYTE   TIE  Cs3
 BYTE   W96
// 017   ----------------------------------------
 BYTE   W96
// 018   ----------------------------------------
 BYTE   EOT
 BYTE   TIE  En3
 BYTE   W96
// 019   ----------------------------------------
 BYTE   W96
// 020   ----------------------------------------
 BYTE   EOT
 BYTE   TIE  Gn3
 BYTE   W96
// 021   ----------------------------------------
 BYTE   W96
// 022   ----------------------------------------
 BYTE   EOT
 BYTE   TIE  En3
 BYTE   W96
// 023   ----------------------------------------
 BYTE   W96
// 024   ----------------------------------------
 BYTE   EOT
 BYTE   TIE
 BYTE   W96
// 025   ----------------------------------------
 BYTE   W96
// 026   ----------------------------------------
 BYTE   EOT
 BYTE   TIE  Cn3
 BYTE   W96
// 027   ----------------------------------------
 BYTE   W96
// 028   ----------------------------------------
 BYTE   EOT
 BYTE   TIE  Bn2
 BYTE   W96
// 029   ----------------------------------------
 BYTE   W96
// 030   ----------------------------------------
 BYTE   EOT
 BYTE   TIE  En3
 BYTE   W96
// 031   ----------------------------------------
 BYTE   W96
// 032   ----------------------------------------
 BYTE   EOT
 BYTE   TIE
 BYTE   W96
// 033   ----------------------------------------
 BYTE   W96
// 034   ----------------------------------------
 BYTE   EOT
 BYTE   TIE
 BYTE   W96
// 035   ----------------------------------------
 BYTE   W96
// 036   ----------------------------------------
 BYTE   EOT
 BYTE   TIE  Bn2
 BYTE   W96
// 037   ----------------------------------------
 BYTE   W96
// 038   ----------------------------------------
 BYTE   EOT
 BYTE   N96  En3
 BYTE   W96
// 039   ----------------------------------------
 BYTE   N96
 BYTE   W96
// 040   ----------------------------------------
 BYTE   Dn3
 BYTE   W96
// 041   ----------------------------------------
 BYTE   En3
 BYTE   W96
// 042   ----------------------------------------
 BYTE   N96
 BYTE   W96
// 043   ----------------------------------------
 BYTE   Dn3
 BYTE   W96
// 044   ----------------------------------------
 BYTE   N96
 BYTE   W96
 BYTE   PATT
  POIN2 Label_2_0144D0C6
// 045   ----------------------------------------
 BYTE   N96  En3  v088
 BYTE   W96
// 046   ----------------------------------------
 BYTE   N96
 BYTE   W96
// 047   ----------------------------------------
 BYTE   Dn3
 BYTE   W96
// 048   ----------------------------------------
 BYTE   En3
 BYTE   W96
// 049   ----------------------------------------
 BYTE   N96
 BYTE   W96
// 050   ----------------------------------------
 BYTE   Dn3
 BYTE   W96
// 051   ----------------------------------------
 BYTE   En3
 BYTE   W96
 BYTE   PATT
  POIN2 Label_2_0144D0DC
// 052   ----------------------------------------
 BYTE   N96  Gn3  v088
 BYTE   W96
// 053   ----------------------------------------
 BYTE   An3
 BYTE   W96
// 054   ----------------------------------------
 BYTE   TIE  Bn3
 BYTE   W96
// 055   ----------------------------------------
 BYTE   W96
// 056   ----------------------------------------
 BYTE   EOT
Label_2_0144D14B:
 BYTE   N84  Gn3  v088
 BYTE   W84
 BYTE   TIE  Dn4
 BYTE   W12
 BYTE   PEND 
// 057   ----------------------------------------
 BYTE   W96
// 058   ----------------------------------------
 BYTE   EOT
 BYTE   TIE  Bn3
 BYTE   W96
// 059   ----------------------------------------
 BYTE   W96
// 060   ----------------------------------------
 BYTE   EOT
 BYTE   N96  Gn3
 BYTE   W96
// 061   ----------------------------------------
 BYTE   An3
 BYTE   W96
// 062   ----------------------------------------
 BYTE   TIE  Bn3
 BYTE   W96
// 063   ----------------------------------------
 BYTE   W96
// 064   ----------------------------------------
 BYTE   EOT
 BYTE   PATT
  POIN2 Label_2_0144D14B
// 065   ----------------------------------------
 BYTE   W96
// 066   ----------------------------------------
 BYTE   EOT
 BYTE   Dn4
 BYTE   TIE  Bn3  v088
 BYTE   W96
// 067   ----------------------------------------
 BYTE   W96
// 068   ----------------------------------------
 BYTE   EOT
 BYTE   GoTo
  POIN2 Label_2_0144D0AA
 BYTE   FINE

//**************** Track 4 (Midi-Chn.3) ****************//

TalesOfSymphoniaLikeAGlintOfLightAReliableChair_004:
// 000   ----------------------------------------
 BYTE   KEYSH   TalesOfSymphoniaLikeAGlintOfLightAReliableChair_key+0
Label_3_0144D17A:
 BYTE   VOICE   40
 BYTE   MODT 0
 BYTE   CnM2
 BYTE   LFOS 0
 BYTE   Gs1
 BYTE   VOL   33*TalesOfSymphoniaLikeAGlintOfLightAReliableChair_mvl/mxv
 BYTE   PAN   c_v+0
 BYTE   VOL   22*TalesOfSymphoniaLikeAGlintOfLightAReliableChair_mvl/mxv
 BYTE   N96  Bn2  v088
 BYTE   W96
// 001   ----------------------------------------
 BYTE   Cn3
 BYTE   W96
// 002   ----------------------------------------
 BYTE   Fs3
 BYTE   W96
// 003   ----------------------------------------
 BYTE   N96
 BYTE   W96
// 004   ----------------------------------------
 BYTE   Bn2
 BYTE   W96
// 005   ----------------------------------------
 BYTE   Fs3
 BYTE   W96
// 006   ----------------------------------------
 BYTE   N96
 BYTE   W96
// 007   ----------------------------------------
Label_3_0144D196:
 BYTE   N48  Fs3  v088
 BYTE   W48
 BYTE   N48
 BYTE   W48
 BYTE   PEND 
// 008   ----------------------------------------
 BYTE   N96  Bn2
 BYTE   W96
// 009   ----------------------------------------
 BYTE   Cn3
 BYTE   W96
// 010   ----------------------------------------
 BYTE   Fs3
 BYTE   W96
// 011   ----------------------------------------
 BYTE   N96
 BYTE   W96
// 012   ----------------------------------------
 BYTE   Bn2
 BYTE   W96
// 013   ----------------------------------------
 BYTE   Fs3
 BYTE   W96
// 014   ----------------------------------------
 BYTE   Cn3
 BYTE   W96
 BYTE   PATT
  POIN2 Label_3_0144D196
// 015   ----------------------------------------
 BYTE   TIE  An2  v088
 BYTE   W96
// 016   ----------------------------------------
 BYTE   W96
// 017   ----------------------------------------
 BYTE   EOT
 BYTE   TIE  Cn3
 BYTE   W96
// 018   ----------------------------------------
 BYTE   W96
// 019   ----------------------------------------
 BYTE   EOT
 BYTE   TIE  As2
 BYTE   W96
// 020   ----------------------------------------
 BYTE   W96
// 021   ----------------------------------------
 BYTE   EOT
 BYTE   TIE  Bn2
 BYTE   W96
// 022   ----------------------------------------
 BYTE   W96
// 023   ----------------------------------------
 BYTE   EOT
 BYTE   TIE
 BYTE   W96
// 024   ----------------------------------------
 BYTE   W96
// 025   ----------------------------------------
 BYTE   EOT
 BYTE   TIE  En3
 BYTE   W96
// 026   ----------------------------------------
 BYTE   W96
// 027   ----------------------------------------
 BYTE   EOT
 BYTE   TIE  Fs3
 BYTE   W96
// 028   ----------------------------------------
 BYTE   W96
// 029   ----------------------------------------
 BYTE   EOT
 BYTE   TIE  Bn2
 BYTE   W96
// 030   ----------------------------------------
 BYTE   W96
// 031   ----------------------------------------
 BYTE   EOT
 BYTE   TIE
 BYTE   W96
// 032   ----------------------------------------
 BYTE   W96
// 033   ----------------------------------------
 BYTE   EOT
 BYTE   TIE  Cn3
 BYTE   W96
// 034   ----------------------------------------
 BYTE   W96
// 035   ----------------------------------------
 BYTE   EOT
 BYTE   TIE  Fs3
 BYTE   W96
// 036   ----------------------------------------
 BYTE   W96
// 037   ----------------------------------------
 BYTE   EOT
 BYTE   N96  Bn2
 BYTE   W96
// 038   ----------------------------------------
 BYTE   Cn3
 BYTE   W96
// 039   ----------------------------------------
 BYTE   Fs3
 BYTE   W96
// 040   ----------------------------------------
 BYTE   N96
 BYTE   W96
// 041   ----------------------------------------
 BYTE   Bn2
 BYTE   W96
// 042   ----------------------------------------
 BYTE   Fs3
 BYTE   W96
// 043   ----------------------------------------
 BYTE   N96
 BYTE   W96
 BYTE   PATT
  POIN2 Label_3_0144D196
// 044   ----------------------------------------
 BYTE   N96  Bn2  v088
 BYTE   W96
// 045   ----------------------------------------
 BYTE   Cn3
 BYTE   W96
// 046   ----------------------------------------
 BYTE   Fs3
 BYTE   W96
// 047   ----------------------------------------
 BYTE   N96
 BYTE   W96
// 048   ----------------------------------------
 BYTE   Bn2
 BYTE   W96
// 049   ----------------------------------------
 BYTE   Fs3
 BYTE   W96
// 050   ----------------------------------------
 BYTE   Cn3
 BYTE   W96
 BYTE   PATT
  POIN2 Label_3_0144D196
// 051   ----------------------------------------
 BYTE   N96  En3  v088
 BYTE   W96
// 052   ----------------------------------------
 BYTE   Fs3
 BYTE   W96
// 053   ----------------------------------------
 BYTE   TIE  Gn3
 BYTE   W96
// 054   ----------------------------------------
 BYTE   W96
// 055   ----------------------------------------
 BYTE   EOT
Label_3_0144D21B:
 BYTE   N84  En3  v088
 BYTE   W84
 BYTE   TIE  Fs3
 BYTE   W12
 BYTE   PEND 
// 056   ----------------------------------------
 BYTE   W96
// 057   ----------------------------------------
 BYTE   EOT
 BYTE   TIE  Gn3
 BYTE   W96
// 058   ----------------------------------------
 BYTE   W96
// 059   ----------------------------------------
 BYTE   EOT
 BYTE   N96  En3
 BYTE   W96
// 060   ----------------------------------------
 BYTE   Fs3
 BYTE   W96
// 061   ----------------------------------------
 BYTE   TIE  Gn3
 BYTE   W96
// 062   ----------------------------------------
 BYTE   W96
// 063   ----------------------------------------
 BYTE   EOT
 BYTE   PATT
  POIN2 Label_3_0144D21B
// 064   ----------------------------------------
 BYTE   W96
// 065   ----------------------------------------
 BYTE   EOT
 BYTE   Fs3
 BYTE   TIE  Gn3  v088
 BYTE   W96
// 066   ----------------------------------------
 BYTE   W96
// 067   ----------------------------------------
 BYTE   EOT
 BYTE   GoTo
  POIN2 Label_3_0144D17A
 BYTE   FINE

//**************** Track 5 (Midi-Chn.4) ****************//

TalesOfSymphoniaLikeAGlintOfLightAReliableChair_005:
// 000   ----------------------------------------
 BYTE   KEYSH   TalesOfSymphoniaLikeAGlintOfLightAReliableChair_key+0
Label_4_0144D24A:
 BYTE   VOICE   41
 BYTE   MODT 0
 BYTE   CnM2
 BYTE   LFOS 0
 BYTE   Gs1
 BYTE   VOL   45*TalesOfSymphoniaLikeAGlintOfLightAReliableChair_mvl/mxv
 BYTE   PAN   c_v+0
 BYTE   VOL   28*TalesOfSymphoniaLikeAGlintOfLightAReliableChair_mvl/mxv
 BYTE   W96
// 001   ----------------------------------------
 BYTE   W96
// 002   ----------------------------------------
 BYTE   W96
// 003   ----------------------------------------
 BYTE   W96
// 004   ----------------------------------------
 BYTE   W96
// 005   ----------------------------------------
 BYTE   W96
// 006   ----------------------------------------
 BYTE   W96
// 007   ----------------------------------------
 BYTE   W96
// 008   ----------------------------------------
 BYTE   W96
// 009   ----------------------------------------
 BYTE   W96
// 010   ----------------------------------------
 BYTE   W96
// 011   ----------------------------------------
 BYTE   W96
// 012   ----------------------------------------
 BYTE   W96
// 013   ----------------------------------------
 BYTE   W96
// 014   ----------------------------------------
 BYTE   W96
// 015   ----------------------------------------
 BYTE   W96
// 016   ----------------------------------------
 BYTE   W96
// 017   ----------------------------------------
 BYTE   W96
// 018   ----------------------------------------
 BYTE   W96
// 019   ----------------------------------------
 BYTE   W96
// 020   ----------------------------------------
 BYTE   W96
// 021   ----------------------------------------
 BYTE   W96
// 022   ----------------------------------------
 BYTE   N36  En3  v088
 BYTE   W36
 BYTE   Fs3
 BYTE   W36
 BYTE   Gn3
 BYTE   W24
// 023   ----------------------------------------
 BYTE   W12
 BYTE   N84
 BYTE   W84
// 024   ----------------------------------------
 BYTE   N36  An3
 BYTE   W36
 BYTE   En4
 BYTE   W36
 BYTE   TIE  En3
 BYTE   W24
// 025   ----------------------------------------
 BYTE   W96
// 026   ----------------------------------------
 BYTE   EOT
 BYTE   N96
 BYTE   W96
// 027   ----------------------------------------
Label_4_0144D283:
 BYTE   N48  Dn3  v088
 BYTE   W48
 BYTE   En3
 BYTE   W48
 BYTE   PEND 
// 028   ----------------------------------------
 BYTE   N36  Fs4
 BYTE   W36
 BYTE   Gn4
 BYTE   W36
 BYTE   N24  An4
 BYTE   W24
// 029   ----------------------------------------
 BYTE   N48  Bn4
 BYTE   W48
 BYTE   Ds4
 BYTE   W48
// 030   ----------------------------------------
 BYTE   N36  En3
 BYTE   W36
 BYTE   An3
 BYTE   W36
 BYTE   Bn3
 BYTE   W24
// 031   ----------------------------------------
 BYTE   W12
 BYTE   Gn4
 BYTE   W36
 BYTE   N24  Fs4
 BYTE   W24
 BYTE   En4
 BYTE   W24
// 032   ----------------------------------------
 BYTE   N36  An3
 BYTE   W36
 BYTE   Bn3
 BYTE   W36
 BYTE   TIE  En3
 BYTE   W24
// 033   ----------------------------------------
 BYTE   W96
// 034   ----------------------------------------
 BYTE   EOT
 BYTE   N96
 BYTE   W96
 BYTE   PATT
  POIN2 Label_4_0144D283
// 035   ----------------------------------------
 BYTE   TIE  Ds3  v088
 BYTE   W96
// 036   ----------------------------------------
 BYTE   W96
// 037   ----------------------------------------
 BYTE   EOT
 BYTE   W96
// 038   ----------------------------------------
 BYTE   W96
// 039   ----------------------------------------
 BYTE   W96
// 040   ----------------------------------------
 BYTE   W96
// 041   ----------------------------------------
 BYTE   W96
// 042   ----------------------------------------
 BYTE   W96
// 043   ----------------------------------------
 BYTE   W96
// 044   ----------------------------------------
 BYTE   W96
// 045   ----------------------------------------
 BYTE   W96
// 046   ----------------------------------------
 BYTE   W96
// 047   ----------------------------------------
 BYTE   W96
// 048   ----------------------------------------
 BYTE   W96
// 049   ----------------------------------------
 BYTE   W96
// 050   ----------------------------------------
 BYTE   W96
// 051   ----------------------------------------
 BYTE   W96
// 052   ----------------------------------------
 BYTE   W96
// 053   ----------------------------------------
Label_4_0144D2CD:
 BYTE   N60  Cn3  v088
 BYTE   W60
 BYTE   N12  Bn2
 BYTE   W12
 BYTE   An2
 BYTE   W12
 BYTE   Gn2
 BYTE   W12
 BYTE   PEND 
// 054   ----------------------------------------
Label_4_0144D2D9:
 BYTE   N48  An2  v088
 BYTE   W48
 BYTE   Dn3
 BYTE   W48
 BYTE   PEND 
// 055   ----------------------------------------
Label_4_0144D2E0:
 BYTE   N36  En3  v088
 BYTE   W36
 BYTE   N60  Bn2
 BYTE   W60
 BYTE   PEND 
// 056   ----------------------------------------
Label_4_0144D2E8:
 BYTE   N12  An2  v088
 BYTE   W12
 BYTE   Bn2
 BYTE   W12
 BYTE   An2
 BYTE   W12
 BYTE   Gn2
 BYTE   W12
 BYTE   Fs2
 BYTE   W12
 BYTE   Gn2
 BYTE   W12
 BYTE   An2
 BYTE   W12
 BYTE   Bn2
 BYTE   W12
 BYTE   PEND 
// 057   ----------------------------------------
Label_4_0144D2FB:
 BYTE   N48  Cn3  v088
 BYTE   W48
 BYTE   N24  En3
 BYTE   W24
 BYTE   N12  Cn3
 BYTE   W12
 BYTE   N72  Dn3
 BYTE   W12
 BYTE   PEND 
// 058   ----------------------------------------
Label_4_0144D309:
 BYTE   W60
 BYTE   N12  Gn3  v088
 BYTE   W12
 BYTE   Fs3
 BYTE   W12
 BYTE   Dn3
 BYTE   W12
 BYTE   PEND 
// 059   ----------------------------------------
 BYTE   N96  En3
 BYTE   W96
// 060   ----------------------------------------
Label_4_0144D316:
 BYTE   N36  Gs2  v088
 BYTE   W36
 BYTE   An2
 BYTE   W36
 BYTE   N24  Bn2
 BYTE   W24
 BYTE   PEND 
 BYTE   PATT
  POIN2 Label_4_0144D2CD
 BYTE   PATT
  POIN2 Label_4_0144D2D9
 BYTE   PATT
  POIN2 Label_4_0144D2E0
 BYTE   PATT
  POIN2 Label_4_0144D2E8
 BYTE   PATT
  POIN2 Label_4_0144D2FB
 BYTE   PATT
  POIN2 Label_4_0144D309
// 061   ----------------------------------------
 BYTE   N96  En3  v088
 BYTE   W96
 BYTE   PATT
  POIN2 Label_4_0144D316
// 062   ----------------------------------------
 BYTE   GoTo
  POIN2 Label_4_0144D24A
 BYTE   FINE

//**************** Track 6 (Midi-Chn.5) ****************//

TalesOfSymphoniaLikeAGlintOfLightAReliableChair_006:
// 000   ----------------------------------------
 BYTE   KEYSH   TalesOfSymphoniaLikeAGlintOfLightAReliableChair_key+0
Label_5_0144D352:
 BYTE   VOICE   41
 BYTE   MODT 0
 BYTE   CnM2
 BYTE   LFOS 0
 BYTE   Gs1
 BYTE   VOL   45*TalesOfSymphoniaLikeAGlintOfLightAReliableChair_mvl/mxv
 BYTE   PAN   c_v+0
 BYTE   VOL   28*TalesOfSymphoniaLikeAGlintOfLightAReliableChair_mvl/mxv
 BYTE   W96
// 001   ----------------------------------------
 BYTE   W96
// 002   ----------------------------------------
 BYTE   W96
// 003   ----------------------------------------
 BYTE   W96
// 004   ----------------------------------------
 BYTE   W96
// 005   ----------------------------------------
 BYTE   W96
// 006   ----------------------------------------
 BYTE   W96
// 007   ----------------------------------------
 BYTE   W96
// 008   ----------------------------------------
 BYTE   W96
// 009   ----------------------------------------
 BYTE   W96
// 010   ----------------------------------------
 BYTE   W96
// 011   ----------------------------------------
 BYTE   W96
// 012   ----------------------------------------
 BYTE   W96
// 013   ----------------------------------------
 BYTE   W96
// 014   ----------------------------------------
 BYTE   W96
// 015   ----------------------------------------
 BYTE   W96
// 016   ----------------------------------------
 BYTE   W96
// 017   ----------------------------------------
 BYTE   W96
// 018   ----------------------------------------
 BYTE   W96
// 019   ----------------------------------------
 BYTE   W96
// 020   ----------------------------------------
 BYTE   W96
// 021   ----------------------------------------
 BYTE   W96
// 022   ----------------------------------------
 BYTE   N36  Gn3  v088
 BYTE   W36
 BYTE   An3
 BYTE   W36
 BYTE   Bn3
 BYTE   W24
// 023   ----------------------------------------
 BYTE   W12
 BYTE   Gn4
 BYTE   W36
 BYTE   N24  Fs4
 BYTE   W24
 BYTE   En4
 BYTE   W24
// 024   ----------------------------------------
 BYTE   N36  Dn4
 BYTE   W36
 BYTE   Bn3
 BYTE   W36
 BYTE   TIE
 BYTE   W24
// 025   ----------------------------------------
 BYTE   W96
// 026   ----------------------------------------
 BYTE   EOT
Label_5_0144D38D:
 BYTE   N24  Cn4  v088
 BYTE   W24
 BYTE   N12  Dn4
 BYTE   W12
 BYTE   N36  En4
 BYTE   W36
 BYTE   N24  An4
 BYTE   W24
 BYTE   PEND 
// 027   ----------------------------------------
Label_5_0144D39B:
 BYTE   N36  Bn4  v088
 BYTE   W36
 BYTE   Cn5
 BYTE   W36
 BYTE   N24  An4
 BYTE   W24
 BYTE   PEND 
// 028   ----------------------------------------
 BYTE   TIE  Ds3
 BYTE   W96
// 029   ----------------------------------------
 BYTE   W96
// 030   ----------------------------------------
 BYTE   EOT
 BYTE   N36  Gn3
 BYTE   W36
 BYTE   Fs3
 BYTE   W36
 BYTE   Gn3
 BYTE   W24
// 031   ----------------------------------------
 BYTE   W12
 BYTE   N84
 BYTE   W84
// 032   ----------------------------------------
 BYTE   N36  Dn4
 BYTE   W36
 BYTE   En4
 BYTE   W36
 BYTE   TIE  Bn3
 BYTE   W24
// 033   ----------------------------------------
 BYTE   W96
// 034   ----------------------------------------
 BYTE   EOT
 BYTE   PATT
  POIN2 Label_5_0144D38D
 BYTE   PATT
  POIN2 Label_5_0144D39B
// 035   ----------------------------------------
 BYTE   N36  Fs4  v088
 BYTE   W36
 BYTE   Gn4
 BYTE   W36
 BYTE   N24  An4
 BYTE   W24
// 036   ----------------------------------------
 BYTE   N48  Bn4
 BYTE   W48
 BYTE   Ds4
 BYTE   W48
// 037   ----------------------------------------
 BYTE   W96
// 038   ----------------------------------------
 BYTE   W96
// 039   ----------------------------------------
 BYTE   W96
// 040   ----------------------------------------
 BYTE   W96
// 041   ----------------------------------------
 BYTE   W96
// 042   ----------------------------------------
 BYTE   W96
// 043   ----------------------------------------
 BYTE   W96
// 044   ----------------------------------------
 BYTE   W96
// 045   ----------------------------------------
 BYTE   W96
// 046   ----------------------------------------
 BYTE   W96
// 047   ----------------------------------------
 BYTE   W96
// 048   ----------------------------------------
 BYTE   W96
// 049   ----------------------------------------
 BYTE   W96
// 050   ----------------------------------------
 BYTE   W96
// 051   ----------------------------------------
 BYTE   W96
// 052   ----------------------------------------
 BYTE   W96
// 053   ----------------------------------------
 BYTE   W96
// 054   ----------------------------------------
 BYTE   W96
// 055   ----------------------------------------
 BYTE   W96
// 056   ----------------------------------------
 BYTE   W96
// 057   ----------------------------------------
 BYTE   W96
// 058   ----------------------------------------
 BYTE   W96
// 059   ----------------------------------------
 BYTE   W96
// 060   ----------------------------------------
 BYTE   W96
// 061   ----------------------------------------
 BYTE   W96
// 062   ----------------------------------------
 BYTE   W96
// 063   ----------------------------------------
 BYTE   W96
// 064   ----------------------------------------
 BYTE   W96
// 065   ----------------------------------------
 BYTE   W96
// 066   ----------------------------------------
 BYTE   W96
// 067   ----------------------------------------
 BYTE   W96
// 068   ----------------------------------------
 BYTE   W96
// 069   ----------------------------------------
 BYTE   GoTo
  POIN2 Label_5_0144D352
 BYTE   FINE

//**************** Track 7 (Midi-Chn.6) ****************//

TalesOfSymphoniaLikeAGlintOfLightAReliableChair_007:
// 000   ----------------------------------------
 BYTE   KEYSH   TalesOfSymphoniaLikeAGlintOfLightAReliableChair_key+0
Label_6_0144D3FE:
 BYTE   VOICE   56
 BYTE   MODT 0
 BYTE   CnM2
 BYTE   LFOS 0
 BYTE   Gs1
 BYTE   VOL   45*TalesOfSymphoniaLikeAGlintOfLightAReliableChair_mvl/mxv
 BYTE   PAN   c_v+0
 BYTE   VOL   35*TalesOfSymphoniaLikeAGlintOfLightAReliableChair_mvl/mxv
 BYTE   W96
// 001   ----------------------------------------
 BYTE   W96
// 002   ----------------------------------------
 BYTE   W96
// 003   ----------------------------------------
 BYTE   W96
// 004   ----------------------------------------
 BYTE   W96
// 005   ----------------------------------------
 BYTE   W96
// 006   ----------------------------------------
 BYTE   W96
// 007   ----------------------------------------
 BYTE   W96
// 008   ----------------------------------------
 BYTE   W96
// 009   ----------------------------------------
 BYTE   W96
// 010   ----------------------------------------
 BYTE   W96
// 011   ----------------------------------------
 BYTE   W96
// 012   ----------------------------------------
 BYTE   W96
// 013   ----------------------------------------
 BYTE   W96
// 014   ----------------------------------------
 BYTE   W96
// 015   ----------------------------------------
 BYTE   W96
// 016   ----------------------------------------
 BYTE   N60  Cs3  v088
 BYTE   W60
 BYTE   N12  Bn2
 BYTE   W12
 BYTE   An2
 BYTE   W12
 BYTE   Gs2
 BYTE   W12
// 017   ----------------------------------------
 BYTE   N48  An2
 BYTE   W48
 BYTE   Fs2
 BYTE   W48
// 018   ----------------------------------------
 BYTE   N36  Cn3
 BYTE   W36
 BYTE   Bn2
 BYTE   W36
 BYTE   N24  Cn3
 BYTE   W24
// 019   ----------------------------------------
 BYTE   N36  Dn3
 BYTE   W36
 BYTE   Cn3
 BYTE   W36
 BYTE   N24  Bn2
 BYTE   W24
// 020   ----------------------------------------
 BYTE   N48  As2
 BYTE   W48
 BYTE   N15
 BYTE   W15
 BYTE   N16  An2
 BYTE   W17
 BYTE   N15  As2
 BYTE   W16
// 021   ----------------------------------------
 BYTE   N18  Cn3
 BYTE   W18
 BYTE   Dn3
 BYTE   W18
 BYTE   N60  Gn3
 BYTE   W60
// 022   ----------------------------------------
Label_6_0144D44D:
 BYTE   N36  Gn3  v088
 BYTE   W36
 BYTE   An3
 BYTE   W36
 BYTE   Bn3
 BYTE   W24
 BYTE   PEND 
// 023   ----------------------------------------
Label_6_0144D456:
 BYTE   W12
 BYTE   N36  Gn4  v088
 BYTE   W36
 BYTE   N24  Fs4
 BYTE   W24
 BYTE   En4
 BYTE   W24
 BYTE   PEND 
// 024   ----------------------------------------
Label_6_0144D461:
 BYTE   N36  Dn4  v088
 BYTE   W36
 BYTE   En4
 BYTE   W36
 BYTE   TIE  Bn3
 BYTE   W24
 BYTE   PEND 
// 025   ----------------------------------------
 BYTE   W96
// 026   ----------------------------------------
 BYTE   EOT
 BYTE   N96  En3
 BYTE   W96
// 027   ----------------------------------------
Label_6_0144D470:
 BYTE   N48  Dn3  v088
 BYTE   W48
 BYTE   En3
 BYTE   W48
 BYTE   PEND 
// 028   ----------------------------------------
Label_6_0144D477:
 BYTE   N36  Ds3  v088
 BYTE   W36
 BYTE   Bn2
 BYTE   W36
 BYTE   N24  Fs2
 BYTE   W24
 BYTE   PEND 
// 029   ----------------------------------------
Label_6_0144D481:
 BYTE   N36  Ds2  v088
 BYTE   W36
 BYTE   En2
 BYTE   W36
 BYTE   N24  Fs2
 BYTE   W24
 BYTE   PEND 
 BYTE   PATT
  POIN2 Label_6_0144D44D
 BYTE   PATT
  POIN2 Label_6_0144D456
 BYTE   PATT
  POIN2 Label_6_0144D461
// 030   ----------------------------------------
 BYTE   W96
// 031   ----------------------------------------
 BYTE   EOT
 BYTE   Bn3
 BYTE   N96  En3  v088
 BYTE   W96
 BYTE   PATT
  POIN2 Label_6_0144D470
 BYTE   PATT
  POIN2 Label_6_0144D477
 BYTE   PATT
  POIN2 Label_6_0144D481
// 032   ----------------------------------------
 BYTE   W96
// 033   ----------------------------------------
 BYTE   W96
// 034   ----------------------------------------
 BYTE   W96
// 035   ----------------------------------------
 BYTE   W96
// 036   ----------------------------------------
 BYTE   W96
// 037   ----------------------------------------
 BYTE   W96
// 038   ----------------------------------------
 BYTE   W96
// 039   ----------------------------------------
 BYTE   W96
// 040   ----------------------------------------
 BYTE   W96
// 041   ----------------------------------------
 BYTE   W96
// 042   ----------------------------------------
 BYTE   W96
// 043   ----------------------------------------
 BYTE   W96
// 044   ----------------------------------------
 BYTE   W96
// 045   ----------------------------------------
 BYTE   W96
// 046   ----------------------------------------
 BYTE   W96
// 047   ----------------------------------------
 BYTE   W96
// 048   ----------------------------------------
 BYTE   VOL   45*TalesOfSymphoniaLikeAGlintOfLightAReliableChair_mvl/mxv
 BYTE   N60  Cn3  v088
 BYTE   W60
 BYTE   N12  Bn2
 BYTE   W12
 BYTE   An2
 BYTE   W12
 BYTE   Gn2
 BYTE   W12
// 049   ----------------------------------------
Label_6_0144D4CD:
 BYTE   N48  An2  v088
 BYTE   W48
 BYTE   Dn3
 BYTE   W48
 BYTE   PEND 
// 050   ----------------------------------------
Label_6_0144D4D4:
 BYTE   N36  En3  v088
 BYTE   W36
 BYTE   N60  Bn2
 BYTE   W60
 BYTE   PEND 
// 051   ----------------------------------------
Label_6_0144D4DC:
 BYTE   N12  An2  v088
 BYTE   W12
 BYTE   Bn2
 BYTE   W12
 BYTE   An2
 BYTE   W12
 BYTE   Gn2
 BYTE   W12
 BYTE   Fs2
 BYTE   W12
 BYTE   Gn2
 BYTE   W12
 BYTE   An2
 BYTE   W12
 BYTE   Bn2
 BYTE   W12
 BYTE   PEND 
// 052   ----------------------------------------
Label_6_0144D4EF:
 BYTE   N48  Cn3  v088
 BYTE   W48
 BYTE   N24  En3
 BYTE   W24
 BYTE   N12  Cn3
 BYTE   W12
 BYTE   N72  Dn3
 BYTE   W12
 BYTE   PEND 
// 053   ----------------------------------------
Label_6_0144D4FD:
 BYTE   W60
 BYTE   N12  Gn3  v088
 BYTE   W12
 BYTE   Fs3
 BYTE   W12
 BYTE   Dn3
 BYTE   W12
 BYTE   PEND 
// 054   ----------------------------------------
 BYTE   N96  En3
 BYTE   W96
// 055   ----------------------------------------
Label_6_0144D50A:
 BYTE   N36  Gs2  v088
 BYTE   W36
 BYTE   An2
 BYTE   W36
 BYTE   N24  Bn2
 BYTE   W24
 BYTE   PEND 
// 056   ----------------------------------------
 BYTE   N60  Cn3
 BYTE   W60
 BYTE   N12  Bn2
 BYTE   W12
 BYTE   An2
 BYTE   W12
 BYTE   Gn2
 BYTE   W12
 BYTE   PATT
  POIN2 Label_6_0144D4CD
 BYTE   PATT
  POIN2 Label_6_0144D4D4
 BYTE   PATT
  POIN2 Label_6_0144D4DC
 BYTE   PATT
  POIN2 Label_6_0144D4EF
 BYTE   PATT
  POIN2 Label_6_0144D4FD
// 057   ----------------------------------------
 BYTE   N96  En3  v088
 BYTE   W96
 BYTE   PATT
  POIN2 Label_6_0144D50A
// 058   ----------------------------------------
 BYTE   GoTo
  POIN2 Label_6_0144D3FE
 BYTE   FINE

//**************** Track 8 (Midi-Chn.7) ****************//

TalesOfSymphoniaLikeAGlintOfLightAReliableChair_008:
// 000   ----------------------------------------
 BYTE   KEYSH   TalesOfSymphoniaLikeAGlintOfLightAReliableChair_key+0
Label_7_0144D54A:
 BYTE   VOICE   35
 BYTE   MODT 0
 BYTE   CnM2
 BYTE   LFOS 0
 BYTE   Gs1
 BYTE   VOL   50*TalesOfSymphoniaLikeAGlintOfLightAReliableChair_mvl/mxv
 BYTE   PAN   c_v+0
 BYTE   VOL   33*TalesOfSymphoniaLikeAGlintOfLightAReliableChair_mvl/mxv
 BYTE   N12  En1  v088
 BYTE   W12
 BYTE   N12
 BYTE   W12
 BYTE   N12
 BYTE   W12
 BYTE   N12
 BYTE   W12
 BYTE   N12
 BYTE   W12
 BYTE   N12
 BYTE   W12
 BYTE   N12
 BYTE   W12
 BYTE   N12
 BYTE   W12
// 001   ----------------------------------------
Label_7_0144D568:
 BYTE   N12  Cn2  v088
 BYTE   W12
 BYTE   N12
 BYTE   W12
 BYTE   N12
 BYTE   W12
 BYTE   N12
 BYTE   W12
 BYTE   N12
 BYTE   W12
 BYTE   N12
 BYTE   W12
 BYTE   N12
 BYTE   W12
 BYTE   N12
 BYTE   W12
 BYTE   PEND 
// 002   ----------------------------------------
Label_7_0144D57B:
 BYTE   N12  Dn2  v088
 BYTE   W12
 BYTE   N12
 BYTE   W12
 BYTE   N12
 BYTE   W12
 BYTE   N12
 BYTE   W12
 BYTE   N12
 BYTE   W12
 BYTE   N12
 BYTE   W12
 BYTE   N12
 BYTE   W12
 BYTE   N12
 BYTE   W12
 BYTE   PEND 
// 003   ----------------------------------------
Label_7_0144D58E:
 BYTE   N12  Bn1  v088
 BYTE   W12
 BYTE   N12
 BYTE   W12
 BYTE   N12
 BYTE   W12
 BYTE   Ds2
 BYTE   W12
 BYTE   N12
 BYTE   W12
 BYTE   N12
 BYTE   W12
 BYTE   Bn1
 BYTE   W12
 BYTE   N12
 BYTE   W12
 BYTE   PEND 
 BYTE   PATT
  POIN2 Label_7_0144D568
 BYTE   PATT
  POIN2 Label_7_0144D57B
// 004   ----------------------------------------
Label_7_0144D5AB:
 BYTE   N12  Bn1  v088
 BYTE   W12
 BYTE   N12
 BYTE   W12
 BYTE   N12
 BYTE   W12
 BYTE   N12
 BYTE   W12
 BYTE   N12
 BYTE   W12
 BYTE   N12
 BYTE   W12
 BYTE   N12
 BYTE   W12
 BYTE   N12
 BYTE   W12
 BYTE   PEND 
// 005   ----------------------------------------
Label_7_0144D5BE:
 BYTE   N12  Bn1  v088
 BYTE   W12
 BYTE   N12
 BYTE   W12
 BYTE   An1
 BYTE   W12
 BYTE   N12
 BYTE   W12
 BYTE   Gn1
 BYTE   W12
 BYTE   N12
 BYTE   W12
 BYTE   Fs1
 BYTE   W12
 BYTE   N12
 BYTE   W12
 BYTE   PEND 
// 006   ----------------------------------------
Label_7_0144D5D1:
 BYTE   N12  En1  v088
 BYTE   W12
 BYTE   N12
 BYTE   W12
 BYTE   N12
 BYTE   W12
 BYTE   N12
 BYTE   W12
 BYTE   N12
 BYTE   W12
 BYTE   N12
 BYTE   W12
 BYTE   N12
 BYTE   W12
 BYTE   N12
 BYTE   W12
 BYTE   PEND 
 BYTE   PATT
  POIN2 Label_7_0144D568
 BYTE   PATT
  POIN2 Label_7_0144D57B
 BYTE   PATT
  POIN2 Label_7_0144D58E
 BYTE   PATT
  POIN2 Label_7_0144D568
 BYTE   PATT
  POIN2 Label_7_0144D57B
 BYTE   PATT
  POIN2 Label_7_0144D5AB
// 007   ----------------------------------------
Label_7_0144D602:
 BYTE   N12  Bn1  v088
 BYTE   W12
 BYTE   Ds2
 BYTE   W12
 BYTE   Fs2
 BYTE   W12
 BYTE   Bn1
 BYTE   W12
 BYTE   N06  Bn2
 BYTE   W06
 BYTE   An2
 BYTE   W06
 BYTE   Gn2
 BYTE   W06
 BYTE   Fs2
 BYTE   W06
 BYTE   En2
 BYTE   W06
 BYTE   Dn2
 BYTE   W06
 BYTE   Cn2
 BYTE   W06
 BYTE   Bn1
 BYTE   W06
 BYTE   PEND 
// 008   ----------------------------------------
Label_7_0144D61E:
 BYTE   N12  Fs1  v088
 BYTE   W12
 BYTE   N12
 BYTE   W12
 BYTE   Fs2
 BYTE   W12
 BYTE   Fs1
 BYTE   W12
 BYTE   En2
 BYTE   W12
 BYTE   Fs1
 BYTE   W12
 BYTE   Fs2
 BYTE   W12
 BYTE   Fs1
 BYTE   W12
 BYTE   PEND 
 BYTE   PATT
  POIN2 Label_7_0144D61E
// 009   ----------------------------------------
Label_7_0144D636:
 BYTE   N12  An1  v088
 BYTE   W12
 BYTE   N12
 BYTE   W12
 BYTE   An2
 BYTE   W12
 BYTE   An1
 BYTE   W12
 BYTE   Gn2
 BYTE   W12
 BYTE   An1
 BYTE   W12
 BYTE   An2
 BYTE   W12
 BYTE   An1
 BYTE   W12
 BYTE   PEND 
 BYTE   PATT
  POIN2 Label_7_0144D636
// 010   ----------------------------------------
 BYTE   N12  Gn1  v088
 BYTE   W12
 BYTE   N12
 BYTE   W12
 BYTE   Gn2
 BYTE   W12
 BYTE   Gn1
 BYTE   W12
 BYTE   Fn2
 BYTE   W12
 BYTE   Gn1
 BYTE   W12
 BYTE   Gn2
 BYTE   W12
 BYTE   Gn1
 BYTE   W12
// 011   ----------------------------------------
 BYTE   N12
 BYTE   W12
 BYTE   Gn2
 BYTE   W12
 BYTE   Gn1
 BYTE   W12
 BYTE   Fn2
 BYTE   W12
 BYTE   Gn1
 BYTE   W12
 BYTE   Gn2
 BYTE   W12
 BYTE   N12
 BYTE   W12
 BYTE   Gn1
 BYTE   W12
// 012   ----------------------------------------
Label_7_0144D670:
 BYTE   N12  En1  v088
 BYTE   W12
 BYTE   N24
 BYTE   W24
 BYTE   N12
 BYTE   W12
 BYTE   N24
 BYTE   W24
 BYTE   N24
 BYTE   W24
 BYTE   PEND 
 BYTE   PATT
  POIN2 Label_7_0144D670
// 013   ----------------------------------------
Label_7_0144D682:
 BYTE   N12  Cn2  v088
 BYTE   W12
 BYTE   N12
 BYTE   W12
 BYTE   Bn1
 BYTE   W12
 BYTE   Cn2
 BYTE   W12
 BYTE   N12
 BYTE   W12
 BYTE   Bn1
 BYTE   W12
 BYTE   Cn2
 BYTE   W12
 BYTE   Bn1
 BYTE   W12
 BYTE   PEND 
// 014   ----------------------------------------
Label_7_0144D695:
 BYTE   N12  Cn2  v088
 BYTE   W12
 BYTE   N12
 BYTE   W12
 BYTE   Cn3
 BYTE   W12
 BYTE   Cn2
 BYTE   W12
 BYTE   Bn2
 BYTE   W12
 BYTE   Cn3
 BYTE   W12
 BYTE   Cn2
 BYTE   W12
 BYTE   N12
 BYTE   W12
 BYTE   PEND 
// 015   ----------------------------------------
Label_7_0144D6A8:
 BYTE   N12  An1  v088
 BYTE   W12
 BYTE   N12
 BYTE   W12
 BYTE   Gn1
 BYTE   W12
 BYTE   An1
 BYTE   W12
 BYTE   Cn2
 BYTE   W12
 BYTE   Bn1
 BYTE   W12
 BYTE   An1
 BYTE   W12
 BYTE   Gn1
 BYTE   W12
 BYTE   PEND 
 BYTE   PATT
  POIN2 Label_7_0144D6A8
// 016   ----------------------------------------
Label_7_0144D6C0:
 BYTE   N12  Bn1  v088
 BYTE   W12
 BYTE   N12
 BYTE   W12
 BYTE   An1
 BYTE   W12
 BYTE   Bn1
 BYTE   W12
 BYTE   N12
 BYTE   W12
 BYTE   An1
 BYTE   W12
 BYTE   Bn1
 BYTE   W12
 BYTE   An1
 BYTE   W12
 BYTE   PEND 
 BYTE   PATT
  POIN2 Label_7_0144D6C0
 BYTE   PATT
  POIN2 Label_7_0144D670
 BYTE   PATT
  POIN2 Label_7_0144D670
 BYTE   PATT
  POIN2 Label_7_0144D682
 BYTE   PATT
  POIN2 Label_7_0144D695
 BYTE   PATT
  POIN2 Label_7_0144D6A8
 BYTE   PATT
  POIN2 Label_7_0144D6A8
 BYTE   PATT
  POIN2 Label_7_0144D6C0
 BYTE   PATT
  POIN2 Label_7_0144D6C0
 BYTE   PATT
  POIN2 Label_7_0144D5D1
 BYTE   PATT
  POIN2 Label_7_0144D568
 BYTE   PATT
  POIN2 Label_7_0144D57B
 BYTE   PATT
  POIN2 Label_7_0144D58E
 BYTE   PATT
  POIN2 Label_7_0144D568
 BYTE   PATT
  POIN2 Label_7_0144D57B
 BYTE   PATT
  POIN2 Label_7_0144D5AB
 BYTE   PATT
  POIN2 Label_7_0144D5BE
 BYTE   PATT
  POIN2 Label_7_0144D5D1
 BYTE   PATT
  POIN2 Label_7_0144D568
 BYTE   PATT
  POIN2 Label_7_0144D57B
 BYTE   PATT
  POIN2 Label_7_0144D58E
 BYTE   PATT
  POIN2 Label_7_0144D568
 BYTE   PATT
  POIN2 Label_7_0144D57B
 BYTE   PATT
  POIN2 Label_7_0144D5AB
 BYTE   PATT
  POIN2 Label_7_0144D602
 BYTE   PATT
  POIN2 Label_7_0144D695
// 017   ----------------------------------------
Label_7_0144D755:
 BYTE   N12  Dn2  v088
 BYTE   W12
 BYTE   N12
 BYTE   W12
 BYTE   Dn3
 BYTE   W12
 BYTE   Dn2
 BYTE   W12
 BYTE   Cn3
 BYTE   W12
 BYTE   Dn3
 BYTE   W12
 BYTE   Dn2
 BYTE   W12
 BYTE   N12
 BYTE   W12
 BYTE   PEND 
// 018   ----------------------------------------
Label_7_0144D768:
 BYTE   N12  En2  v088
 BYTE   W12
 BYTE   N12
 BYTE   W12
 BYTE   En3
 BYTE   W12
 BYTE   En2
 BYTE   W12
 BYTE   Dn3
 BYTE   W12
 BYTE   En3
 BYTE   W12
 BYTE   En2
 BYTE   W12
 BYTE   N12
 BYTE   W12
 BYTE   PEND 
 BYTE   PATT
  POIN2 Label_7_0144D768
// 019   ----------------------------------------
Label_7_0144D780:
 BYTE   N12  Cn2  v088
 BYTE   W12
 BYTE   N12
 BYTE   W12
 BYTE   N12
 BYTE   W12
 BYTE   N12
 BYTE   W12
 BYTE   N12
 BYTE   W12
 BYTE   N12
 BYTE   W12
 BYTE   N12
 BYTE   W12
 BYTE   Dn2
 BYTE   W12
 BYTE   PEND 
// 020   ----------------------------------------
Label_7_0144D793:
 BYTE   N12  Dn2  v088
 BYTE   W12
 BYTE   N12
 BYTE   W12
 BYTE   N12
 BYTE   W12
 BYTE   N12
 BYTE   W12
 BYTE   N12
 BYTE   W12
 BYTE   N12
 BYTE   W12
 BYTE   N12
 BYTE   W12
 BYTE   En2
 BYTE   W12
 BYTE   PEND 
// 021   ----------------------------------------
Label_7_0144D7A6:
 BYTE   N12  En2  v088
 BYTE   W12
 BYTE   N12
 BYTE   W12
 BYTE   En3
 BYTE   W12
 BYTE   En2
 BYTE   W12
 BYTE   Dn3
 BYTE   W12
 BYTE   En2
 BYTE   W12
 BYTE   En3
 BYTE   W12
 BYTE   En2
 BYTE   W12
 BYTE   PEND 
 BYTE   PATT
  POIN2 Label_7_0144D7A6
 BYTE   PATT
  POIN2 Label_7_0144D695
 BYTE   PATT
  POIN2 Label_7_0144D755
 BYTE   PATT
  POIN2 Label_7_0144D768
 BYTE   PATT
  POIN2 Label_7_0144D768
 BYTE   PATT
  POIN2 Label_7_0144D780
 BYTE   PATT
  POIN2 Label_7_0144D793
 BYTE   PATT
  POIN2 Label_7_0144D7A6
 BYTE   PATT
  POIN2 Label_7_0144D7A6
// 022   ----------------------------------------
 BYTE   GoTo
  POIN2 Label_7_0144D54A
 BYTE   FINE

//**************** Track 9 (Midi-Chn.8) ****************//

TalesOfSymphoniaLikeAGlintOfLightAReliableChair_009:
// 000   ----------------------------------------
 BYTE   KEYSH   TalesOfSymphoniaLikeAGlintOfLightAReliableChair_key+0
Label_8_0144D7EE:
 BYTE   VOICE   124
 BYTE   MODT 0
 BYTE   CnM2
 BYTE   LFOS 0
 BYTE   Gs1
 BYTE   VOL   28*TalesOfSymphoniaLikeAGlintOfLightAReliableChair_mvl/mxv
 BYTE   PAN   c_v+0
 BYTE   VOL   28*TalesOfSymphoniaLikeAGlintOfLightAReliableChair_mvl/mxv
 BYTE   N48  Bn0  v088
 BYTE   W48
 BYTE   N48
 BYTE   W48
// 001   ----------------------------------------
Label_8_0144D800:
 BYTE   N48  Bn0  v088
 BYTE   W48
 BYTE   N48
 BYTE   W48
 BYTE   PEND 
 BYTE   PATT
  POIN2 Label_8_0144D800
 BYTE   PATT
  POIN2 Label_8_0144D800
 BYTE   PATT
  POIN2 Label_8_0144D800
 BYTE   PATT
  POIN2 Label_8_0144D800
 BYTE   PATT
  POIN2 Label_8_0144D800
// 002   ----------------------------------------
 BYTE   N96  Bn0  v088
 BYTE   W96
 BYTE   PATT
  POIN2 Label_8_0144D800
 BYTE   PATT
  POIN2 Label_8_0144D800
 BYTE   PATT
  POIN2 Label_8_0144D800
 BYTE   PATT
  POIN2 Label_8_0144D800
 BYTE   PATT
  POIN2 Label_8_0144D800
 BYTE   PATT
  POIN2 Label_8_0144D800
 BYTE   PATT
  POIN2 Label_8_0144D800
// 003   ----------------------------------------
 BYTE   N96  Bn0  v088
 BYTE   W96
// 004   ----------------------------------------
 BYTE   An2
 BYTE   W96
 BYTE   PATT
  POIN2 Label_8_0144D800
 BYTE   PATT
  POIN2 Label_8_0144D800
 BYTE   PATT
  POIN2 Label_8_0144D800
// 005   ----------------------------------------
 BYTE   N96  An2  v088
 BYTE   W96
 BYTE   PATT
  POIN2 Label_8_0144D800
// 006   ----------------------------------------
 BYTE   N96  An2  v088
 BYTE   W96
// 007   ----------------------------------------
 BYTE   N12  Bn0
 BYTE   W12
 BYTE   Fs1
 BYTE   W12
 BYTE   N24  Dn1
 BYTE   W24
 BYTE   N48  Bn0
 BYTE   W48
// 008   ----------------------------------------
 BYTE   N36
 BYTE   W36
 BYTE   N24
 BYTE   W24
 BYTE   N36
 BYTE   W36
// 009   ----------------------------------------
 BYTE   N24
 BYTE   W24
 BYTE   N48
 BYTE   W48
 BYTE   N12
 BYTE   W12
 BYTE   N12
 BYTE   W12
// 010   ----------------------------------------
 BYTE   N24
 BYTE   W24
 BYTE   N48
 BYTE   W48
 BYTE   N24
 BYTE   W24
// 011   ----------------------------------------
 BYTE   N36
 BYTE   W36
 BYTE   N36
 BYTE   W36
 BYTE   N24  Dn1
 BYTE   W24
// 012   ----------------------------------------
 BYTE   Bn0
 BYTE   W24
 BYTE   N24
 BYTE   W24
 BYTE   N48
 BYTE   W48
// 013   ----------------------------------------
 BYTE   N24
 BYTE   W24
 BYTE   N12
 BYTE   W12
 BYTE   N60
 BYTE   W60
// 014   ----------------------------------------
 BYTE   N96  An2
 BYTE   W96
// 015   ----------------------------------------
Label_8_0144D89E:
 BYTE   W12
 BYTE   N36  Bn0  v088
 BYTE   W36
 BYTE   N48
 BYTE   W48
 BYTE   PEND 
 BYTE   PATT
  POIN2 Label_8_0144D800
 BYTE   PATT
  POIN2 Label_8_0144D800
// 016   ----------------------------------------
 BYTE   N96  An2  v088
 BYTE   W96
 BYTE   PATT
  POIN2 Label_8_0144D89E
 BYTE   PATT
  POIN2 Label_8_0144D800
 BYTE   PATT
  POIN2 Label_8_0144D800
 BYTE   PATT
  POIN2 Label_8_0144D800
 BYTE   PATT
  POIN2 Label_8_0144D800
 BYTE   PATT
  POIN2 Label_8_0144D800
 BYTE   PATT
  POIN2 Label_8_0144D800
 BYTE   PATT
  POIN2 Label_8_0144D800
 BYTE   PATT
  POIN2 Label_8_0144D800
 BYTE   PATT
  POIN2 Label_8_0144D800
// 017   ----------------------------------------
 BYTE   N96  Bn0  v088
 BYTE   W96
 BYTE   PATT
  POIN2 Label_8_0144D800
 BYTE   PATT
  POIN2 Label_8_0144D800
 BYTE   PATT
  POIN2 Label_8_0144D800
 BYTE   PATT
  POIN2 Label_8_0144D800
 BYTE   PATT
  POIN2 Label_8_0144D800
 BYTE   PATT
  POIN2 Label_8_0144D800
 BYTE   PATT
  POIN2 Label_8_0144D800
// 018   ----------------------------------------
 BYTE   N96  Bn0  v088
 BYTE   W96
 BYTE   PATT
  POIN2 Label_8_0144D800
 BYTE   PATT
  POIN2 Label_8_0144D800
 BYTE   PATT
  POIN2 Label_8_0144D800
 BYTE   PATT
  POIN2 Label_8_0144D800
// 019   ----------------------------------------
 BYTE   N48  Bn0  v088
 BYTE   W48
 BYTE   N36
 BYTE   W36
 BYTE   N12
 BYTE   W12
// 020   ----------------------------------------
 BYTE   N24  Fs1
 BYTE   W24
 BYTE   Dn1
 BYTE   W24
 BYTE   N48  Bn0
 BYTE   W48
// 021   ----------------------------------------
 BYTE   N24
 BYTE   W24
 BYTE   Dn1
 BYTE   W24
 BYTE   Fs1
 BYTE   W24
 BYTE   N12  Dn1
 BYTE   W12
 BYTE   N12
 BYTE   W12
// 022   ----------------------------------------
 BYTE   Bn0
 BYTE   W12
 BYTE   N12
 BYTE   W12
 BYTE   N12
 BYTE   W12
 BYTE   N36
 BYTE   W36
 BYTE   N24
 BYTE   W24
// 023   ----------------------------------------
Label_8_0144D94A:
 BYTE   N24  Dn1  v088
 BYTE   W24
 BYTE   N24
 BYTE   W24
 BYTE   N24
 BYTE   W24
 BYTE   N24
 BYTE   W24
 BYTE   PEND 
 BYTE   PATT
  POIN2 Label_8_0144D94A
 BYTE   PATT
  POIN2 Label_8_0144D94A
 BYTE   PATT
  POIN2 Label_8_0144D94A
 BYTE   PATT
  POIN2 Label_8_0144D94A
 BYTE   PATT
  POIN2 Label_8_0144D94A
 BYTE   PATT
  POIN2 Label_8_0144D94A
// 024   ----------------------------------------
 BYTE   N06  Bn1  v088
 BYTE   W06
 BYTE   N06
 BYTE   W06
 BYTE   N06
 BYTE   W06
 BYTE   N06
 BYTE   W06
 BYTE   Gn1
 BYTE   W06
 BYTE   N06
 BYTE   W06
 BYTE   N06
 BYTE   W06
 BYTE   N06
 BYTE   W06
 BYTE   An1
 BYTE   W06
 BYTE   N06
 BYTE   W06
 BYTE   N06
 BYTE   W06
 BYTE   N06
 BYTE   W06
 BYTE   Fn1
 BYTE   W06
 BYTE   N06
 BYTE   W06
 BYTE   N06
 BYTE   W06
 BYTE   N06
 BYTE   W06
// 025   ----------------------------------------
 BYTE   GoTo
  POIN2 Label_8_0144D7EE
 BYTE   FINE

//**************** Track 10 (Midi-Chn.9) ****************//

TalesOfSymphoniaLikeAGlintOfLightAReliableChair_010:
// 000   ----------------------------------------
 BYTE   KEYSH   TalesOfSymphoniaLikeAGlintOfLightAReliableChair_key+0
Label_9_0144D99E:
 BYTE   VOICE   124
 BYTE   MODT 0
 BYTE   CnM2
 BYTE   LFOS 0
 BYTE   Gs1
 BYTE   VOL   28*TalesOfSymphoniaLikeAGlintOfLightAReliableChair_mvl/mxv
 BYTE   PAN   c_v+0
 BYTE   VOL   28*TalesOfSymphoniaLikeAGlintOfLightAReliableChair_mvl/mxv
 BYTE   N96  An2  v088
 BYTE   W96
// 001   ----------------------------------------
Label_9_0144D9AE:
 BYTE   N24  Fs1  v088
 BYTE   W24
 BYTE   N24
 BYTE   W24
 BYTE   N24
 BYTE   W24
 BYTE   N24
 BYTE   W24
 BYTE   PEND 
 BYTE   PATT
  POIN2 Label_9_0144D9AE
 BYTE   PATT
  POIN2 Label_9_0144D9AE
// 002   ----------------------------------------
 BYTE   N96  An2  v088
 BYTE   W96
 BYTE   PATT
  POIN2 Label_9_0144D9AE
 BYTE   PATT
  POIN2 Label_9_0144D9AE
// 003   ----------------------------------------
Label_9_0144D9D1:
 BYTE   N24  Fs1  v088
 BYTE   W24
 BYTE   Dn1
 BYTE   W24
 BYTE   N06  An1
 BYTE   W06
 BYTE   N06
 BYTE   W06
 BYTE   Gn1
 BYTE   W06
 BYTE   N06
 BYTE   W06
 BYTE   Fn1
 BYTE   W06
 BYTE   N06
 BYTE   W06
 BYTE   N06
 BYTE   W06
 BYTE   N06
 BYTE   W06
 BYTE   PEND 
// 004   ----------------------------------------
 BYTE   N96  An2
 BYTE   W96
 BYTE   PATT
  POIN2 Label_9_0144D9AE
 BYTE   PATT
  POIN2 Label_9_0144D9AE
 BYTE   PATT
  POIN2 Label_9_0144D9AE
// 005   ----------------------------------------
 BYTE   N96  An2  v088
 BYTE   W96
 BYTE   PATT
  POIN2 Label_9_0144D9AE
 BYTE   PATT
  POIN2 Label_9_0144D9AE
// 006   ----------------------------------------
Label_9_0144DA09:
 BYTE   N24  Fs1  v088
 BYTE   W24
 BYTE   N24
 BYTE   W36
 BYTE   N06  Bn1
 BYTE   W06
 BYTE   N06
 BYTE   W18
 BYTE   Fn1
 BYTE   W06
 BYTE   N06
 BYTE   W06
 BYTE   PEND 
// 007   ----------------------------------------
Label_9_0144DA19:
 BYTE   N48  Bn0  v088
 BYTE   W48
 BYTE   N48
 BYTE   W48
 BYTE   PEND 
// 008   ----------------------------------------
Label_9_0144DA20:
 BYTE   N24  Fs1  v088
 BYTE   W24
 BYTE   N12
 BYTE   W12
 BYTE   N12
 BYTE   W12
 BYTE   N24
 BYTE   W24
 BYTE   N12
 BYTE   W12
 BYTE   N12
 BYTE   W12
 BYTE   PEND 
// 009   ----------------------------------------
 BYTE   N24
 BYTE   W24
 BYTE   As1
 BYTE   W24
 BYTE   Fs1
 BYTE   W24
 BYTE   As1
 BYTE   W24
 BYTE   PATT
  POIN2 Label_9_0144DA20
 BYTE   PATT
  POIN2 Label_9_0144DA19
// 010   ----------------------------------------
 BYTE   N24  Fs1  v088
 BYTE   W24
 BYTE   As1
 BYTE   W36
 BYTE   N12  Fs1
 BYTE   W12
 BYTE   N24  As1
 BYTE   W24
// 011   ----------------------------------------
Label_9_0144DA4D:
 BYTE   N36  Bn0  v088
 BYTE   W36
 BYTE   N36
 BYTE   W36
 BYTE   N24  Dn1
 BYTE   W24
 BYTE   PEND 
// 012   ----------------------------------------
 BYTE   N12  Fs1
 BYTE   W24
 BYTE   N24
 BYTE   W48
 BYTE   Dn1
 BYTE   W24
// 013   ----------------------------------------
Label_9_0144DA5E:
 BYTE   N24  Fs1  v088
 BYTE   W24
 BYTE   Dn1
 BYTE   W24
 BYTE   Fs1
 BYTE   W24
 BYTE   N12  Dn1
 BYTE   W12
 BYTE   N12
 BYTE   W12
 BYTE   PEND 
// 014   ----------------------------------------
 BYTE   N24  Fs1
 BYTE   W24
 BYTE   N24
 BYTE   W24
 BYTE   Dn1
 BYTE   W24
 BYTE   Fs1
 BYTE   W24
// 015   ----------------------------------------
 BYTE   N96  An2
 BYTE   W96
// 016   ----------------------------------------
 BYTE   W12
 BYTE   N12  Fs1
 BYTE   W12
 BYTE   N24  Dn1
 BYTE   W24
 BYTE   Fs1
 BYTE   W24
 BYTE   As1
 BYTE   W24
 BYTE   PATT
  POIN2 Label_9_0144DA5E
 BYTE   PATT
  POIN2 Label_9_0144DA09
 BYTE   PATT
  POIN2 Label_9_0144DA4D
// 017   ----------------------------------------
 BYTE   W12
 BYTE   N12  Fs1  v088
 BYTE   W12
 BYTE   N24  As1
 BYTE   W24
 BYTE   Fs1
 BYTE   W24
 BYTE   As1
 BYTE   W24
 BYTE   PATT
  POIN2 Label_9_0144D9AE
 BYTE   PATT
  POIN2 Label_9_0144D9AE
 BYTE   PATT
  POIN2 Label_9_0144DA4D
// 018   ----------------------------------------
 BYTE   W12
 BYTE   N12  Fs1  v088
 BYTE   W12
 BYTE   N24  Dn1
 BYTE   W24
 BYTE   Fs1
 BYTE   W24
 BYTE   N12  Dn1
 BYTE   W12
 BYTE   N12
 BYTE   W12
 BYTE   PATT
  POIN2 Label_9_0144D9AE
// 019   ----------------------------------------
 BYTE   N24  Fs1  v088
 BYTE   W24
 BYTE   Dn1
 BYTE   W48
 BYTE   N12
 BYTE   W12
 BYTE   N06
 BYTE   W06
 BYTE   N06
 BYTE   W06
// 020   ----------------------------------------
 BYTE   N96  An2
 BYTE   W96
 BYTE   PATT
  POIN2 Label_9_0144D9AE
 BYTE   PATT
  POIN2 Label_9_0144D9AE
 BYTE   PATT
  POIN2 Label_9_0144D9AE
// 021   ----------------------------------------
 BYTE   N96  An2  v088
 BYTE   W96
 BYTE   PATT
  POIN2 Label_9_0144D9AE
 BYTE   PATT
  POIN2 Label_9_0144D9AE
 BYTE   PATT
  POIN2 Label_9_0144D9D1
// 022   ----------------------------------------
 BYTE   N96  An2  v088
 BYTE   W96
 BYTE   PATT
  POIN2 Label_9_0144D9AE
 BYTE   PATT
  POIN2 Label_9_0144D9AE
 BYTE   PATT
  POIN2 Label_9_0144D9AE
// 023   ----------------------------------------
 BYTE   N96  An2  v088
 BYTE   W96
 BYTE   PATT
  POIN2 Label_9_0144D9AE
 BYTE   PATT
  POIN2 Label_9_0144D9AE
 BYTE   PATT
  POIN2 Label_9_0144DA09
// 024   ----------------------------------------
 BYTE   N96  An2  v088
 BYTE   W96
// 025   ----------------------------------------
Label_9_0144DB1C:
 BYTE   N24  Fs1  v088
 BYTE   W24
 BYTE   Dn1
 BYTE   W36
 BYTE   N12  Fs1
 BYTE   W12
 BYTE   Dn1
 BYTE   W12
 BYTE   N12
 BYTE   W12
 BYTE   PEND 
// 026   ----------------------------------------
 BYTE   N24  Fs1
 BYTE   W24
 BYTE   Dn1
 BYTE   W36
 BYTE   N12  Fs1
 BYTE   W12
 BYTE   N24  Dn1
 BYTE   W24
 BYTE   PATT
  POIN2 Label_9_0144DB1C
// 027   ----------------------------------------
 BYTE   N96  An2  v088
 BYTE   W96
// 028   ----------------------------------------
 BYTE   W12
 BYTE   N36  Bn0
 BYTE   W36
 BYTE   N24  Fs1
 BYTE   W24
 BYTE   N12  Dn1
 BYTE   W12
 BYTE   N06
 BYTE   W06
 BYTE   N06
 BYTE   W06
// 029   ----------------------------------------
 BYTE   N24  Fs1
 BYTE   W24
 BYTE   As1
 BYTE   W36
 BYTE   N36  Bn0
 BYTE   W36
// 030   ----------------------------------------
 BYTE   N12  Fs1
 BYTE   W12
 BYTE   N12
 BYTE   W12
 BYTE   N24
 BYTE   W24
 BYTE   N36  Dn1
 BYTE   W36
 BYTE   N12
 BYTE   W12
// 031   ----------------------------------------
Label_9_0144DB60:
 BYTE   N24  As1  v088
 BYTE   W24
 BYTE   N24
 BYTE   W24
 BYTE   N24
 BYTE   W24
 BYTE   N24
 BYTE   W24
 BYTE   PEND 
 BYTE   PATT
  POIN2 Label_9_0144DB60
 BYTE   PATT
  POIN2 Label_9_0144DB60
 BYTE   PATT
  POIN2 Label_9_0144DB60
 BYTE   PATT
  POIN2 Label_9_0144DB60
 BYTE   PATT
  POIN2 Label_9_0144DB60
 BYTE   PATT
  POIN2 Label_9_0144DB60
// 032   ----------------------------------------
 BYTE   N24  Bn0  v088
 BYTE   W24
 BYTE   N24
 BYTE   W24
 BYTE   N24
 BYTE   W24
 BYTE   N24
 BYTE   W24
// 033   ----------------------------------------
 BYTE   GoTo
  POIN2 Label_9_0144D99E
 BYTE   FINE

//**************** Track 11 (Midi-Chn.10) ****************//

TalesOfSymphoniaLikeAGlintOfLightAReliableChair_011:
// 000   ----------------------------------------
 BYTE   KEYSH   TalesOfSymphoniaLikeAGlintOfLightAReliableChair_key+0
Label_10_0144DB9E:
 BYTE   VOICE   124
 BYTE   MODT 0
 BYTE   CnM2
 BYTE   LFOS 0
 BYTE   Gs1
 BYTE   VOL   28*TalesOfSymphoniaLikeAGlintOfLightAReliableChair_mvl/mxv
 BYTE   PAN   c_v+0
 BYTE   VOL   28*TalesOfSymphoniaLikeAGlintOfLightAReliableChair_mvl/mxv
 BYTE   N24  Fs1  v088
 BYTE   W24
 BYTE   Dn1
 BYTE   W24
 BYTE   Fs1
 BYTE   W24
 BYTE   Dn1
 BYTE   W24
// 001   ----------------------------------------
Label_10_0144DBB4:
 BYTE   W24
 BYTE   N24  As1  v088
 BYTE   W48
 BYTE   N24
 BYTE   W24
 BYTE   PEND 
 BYTE   PATT
  POIN2 Label_10_0144DBB4
// 002   ----------------------------------------
Label_10_0144DBC1:
 BYTE   W24
 BYTE   N24  As1  v088
 BYTE   W48
 BYTE   N12  Dn1
 BYTE   W12
 BYTE   N12
 BYTE   W12
 BYTE   PEND 
// 003   ----------------------------------------
Label_10_0144DBCC:
 BYTE   N24  Fs1  v088
 BYTE   W24
 BYTE   Dn1
 BYTE   W24
 BYTE   Fs1
 BYTE   W24
 BYTE   Dn1
 BYTE   W24
 BYTE   PEND 
 BYTE   PATT
  POIN2 Label_10_0144DBB4
 BYTE   PATT
  POIN2 Label_10_0144DBB4
// 004   ----------------------------------------
 BYTE   W24
 BYTE   N24  As1  v088
 BYTE   W72
 BYTE   PATT
  POIN2 Label_10_0144DBCC
 BYTE   PATT
  POIN2 Label_10_0144DBB4
 BYTE   PATT
  POIN2 Label_10_0144DBB4
 BYTE   PATT
  POIN2 Label_10_0144DBC1
 BYTE   PATT
  POIN2 Label_10_0144DBCC
 BYTE   PATT
  POIN2 Label_10_0144DBB4
 BYTE   PATT
  POIN2 Label_10_0144DBB4
// 005   ----------------------------------------
 BYTE   W24
 BYTE   N24  As1  v088
 BYTE   W72
// 006   ----------------------------------------
Label_10_0144DC0E:
 BYTE   N24  Fs1  v088
 BYTE   W24
 BYTE   As1
 BYTE   W24
 BYTE   Fs1
 BYTE   W24
 BYTE   As1
 BYTE   W24
 BYTE   PEND 
// 007   ----------------------------------------
Label_10_0144DC19:
 BYTE   W24
 BYTE   N24  Dn1  v088
 BYTE   W48
 BYTE   N12
 BYTE   W12
 BYTE   N12
 BYTE   W12
 BYTE   PEND 
// 008   ----------------------------------------
Label_10_0144DC23:
 BYTE   W24
 BYTE   N24  Dn1  v088
 BYTE   W48
 BYTE   N24
 BYTE   W24
 BYTE   PEND 
 BYTE   PATT
  POIN2 Label_10_0144DC19
 BYTE   PATT
  POIN2 Label_10_0144DC0E
// 009   ----------------------------------------
 BYTE   W24
 BYTE   N12  Fs1  v088
 BYTE   W12
 BYTE   N12
 BYTE   W36
 BYTE   N12
 BYTE   W12
 BYTE   N12
 BYTE   W12
 BYTE   PATT
  POIN2 Label_10_0144DC0E
 BYTE   PATT
  POIN2 Label_10_0144DBB4
 BYTE   PATT
  POIN2 Label_10_0144DBB4
// 010   ----------------------------------------
 BYTE   N12  As1  v088
 BYTE   W48
 BYTE   N24
 BYTE   W48
// 011   ----------------------------------------
 BYTE   Fs1
 BYTE   W24
 BYTE   N24
 BYTE   W24
 BYTE   N36  Dn1
 BYTE   W36
 BYTE   N12
 BYTE   W12
// 012   ----------------------------------------
 BYTE   W24
 BYTE   N24  As1
 BYTE   W48
 BYTE   N12  Bn0
 BYTE   W12
 BYTE   N12
 BYTE   W12
// 013   ----------------------------------------
Label_10_0144DC67:
 BYTE   W24
 BYTE   N24  As1  v088
 BYTE   W48
 BYTE   N12
 BYTE   W12
 BYTE   N12
 BYTE   W12
 BYTE   PEND 
// 014   ----------------------------------------
 BYTE   W96
 BYTE   PATT
  POIN2 Label_10_0144DC0E
 BYTE   PATT
  POIN2 Label_10_0144DC23
 BYTE   PATT
  POIN2 Label_10_0144DBB4
 BYTE   PATT
  POIN2 Label_10_0144DBB4
// 015   ----------------------------------------
 BYTE   N24  Fs1  v088
 BYTE   W24
 BYTE   Dn1
 BYTE   W24
 BYTE   Fs1
 BYTE   W24
 BYTE   As1
 BYTE   W24
 BYTE   PATT
  POIN2 Label_10_0144DC67
 BYTE   PATT
  POIN2 Label_10_0144DBB4
 BYTE   PATT
  POIN2 Label_10_0144DBB4
 BYTE   PATT
  POIN2 Label_10_0144DBCC
 BYTE   PATT
  POIN2 Label_10_0144DBB4
 BYTE   PATT
  POIN2 Label_10_0144DBB4
 BYTE   PATT
  POIN2 Label_10_0144DBC1
 BYTE   PATT
  POIN2 Label_10_0144DBCC
 BYTE   PATT
  POIN2 Label_10_0144DBB4
 BYTE   PATT
  POIN2 Label_10_0144DBB4
// 016   ----------------------------------------
 BYTE   W24
 BYTE   N24  As1  v088
 BYTE   W72
 BYTE   PATT
  POIN2 Label_10_0144DBCC
 BYTE   PATT
  POIN2 Label_10_0144DBB4
 BYTE   PATT
  POIN2 Label_10_0144DBB4
 BYTE   PATT
  POIN2 Label_10_0144DBC1
 BYTE   PATT
  POIN2 Label_10_0144DBCC
 BYTE   PATT
  POIN2 Label_10_0144DBB4
 BYTE   PATT
  POIN2 Label_10_0144DBB4
// 017   ----------------------------------------
 BYTE   W24
 BYTE   N24  As1  v088
 BYTE   W72
// 018   ----------------------------------------
 BYTE   Fs1
 BYTE   W24
 BYTE   Dn1
 BYTE   W24
 BYTE   N12  Fs1
 BYTE   W12
 BYTE   N12
 BYTE   W12
 BYTE   N24  Dn1
 BYTE   W24
 BYTE   PATT
  POIN2 Label_10_0144DC67
 BYTE   PATT
  POIN2 Label_10_0144DBB4
 BYTE   PATT
  POIN2 Label_10_0144DC67
// 019   ----------------------------------------
 BYTE   N24  Fs1  v088
 BYTE   W24
 BYTE   N24
 BYTE   W24
 BYTE   N24
 BYTE   W24
 BYTE   N24
 BYTE   W24
// 020   ----------------------------------------
 BYTE   W24
 BYTE   As1
 BYTE   W48
 BYTE   N12
 BYTE   W12
 BYTE   Fs1
 BYTE   W12
// 021   ----------------------------------------
 BYTE   W24
 BYTE   N36  Bn0
 BYTE   W48
 BYTE   N12  As1
 BYTE   W12
 BYTE   N12
 BYTE   W12
// 022   ----------------------------------------
 BYTE   W48
 BYTE   N24
 BYTE   W24
 BYTE   N12  Fs1
 BYTE   W12
 BYTE   As1
 BYTE   W12
// 023   ----------------------------------------
Label_10_0144DD2C:
 BYTE   N24  Bn0  v088
 BYTE   W24
 BYTE   N24
 BYTE   W24
 BYTE   N24
 BYTE   W24
 BYTE   N24
 BYTE   W24
 BYTE   PEND 
 BYTE   PATT
  POIN2 Label_10_0144DD2C
 BYTE   PATT
  POIN2 Label_10_0144DD2C
 BYTE   PATT
  POIN2 Label_10_0144DD2C
 BYTE   PATT
  POIN2 Label_10_0144DD2C
 BYTE   PATT
  POIN2 Label_10_0144DD2C
 BYTE   PATT
  POIN2 Label_10_0144DD2C
// 024   ----------------------------------------
 BYTE   W96
// 025   ----------------------------------------
 BYTE   GoTo
  POIN2 Label_10_0144DB9E
 BYTE   FINE

//**************** Track 12 (Midi-Chn.11) ****************//

TalesOfSymphoniaLikeAGlintOfLightAReliableChair_012:
// 000   ----------------------------------------
 BYTE   KEYSH   TalesOfSymphoniaLikeAGlintOfLightAReliableChair_key+0
Label_11_0144DD5E:
 BYTE   VOICE   124
 BYTE   MODT 0
 BYTE   CnM2
 BYTE   LFOS 0
 BYTE   Gs1
 BYTE   VOL   28*TalesOfSymphoniaLikeAGlintOfLightAReliableChair_mvl/mxv
 BYTE   PAN   c_v+0
 BYTE   VOL   28*TalesOfSymphoniaLikeAGlintOfLightAReliableChair_mvl/mxv
 BYTE   W24
 BYTE   N24  As1  v088
 BYTE   W48
 BYTE   N24
 BYTE   W24
// 001   ----------------------------------------
Label_11_0144DD71:
 BYTE   W24
 BYTE   N24  Dn1  v088
 BYTE   W48
 BYTE   N24
 BYTE   W24
 BYTE   PEND 
 BYTE   PATT
  POIN2 Label_11_0144DD71
// 002   ----------------------------------------
Label_11_0144DD7E:
 BYTE   W24
 BYTE   N24  Dn1  v088
 BYTE   W48
 BYTE   N12  As1
 BYTE   W12
 BYTE   N12
 BYTE   W12
 BYTE   PEND 
// 003   ----------------------------------------
Label_11_0144DD89:
 BYTE   W24
 BYTE   N24  As1  v088
 BYTE   W48
 BYTE   N24
 BYTE   W24
 BYTE   PEND 
 BYTE   PATT
  POIN2 Label_11_0144DD71
 BYTE   PATT
  POIN2 Label_11_0144DD71
// 004   ----------------------------------------
 BYTE   W24
 BYTE   N24  Fs1  v088
 BYTE   W72
 BYTE   PATT
  POIN2 Label_11_0144DD89
 BYTE   PATT
  POIN2 Label_11_0144DD71
 BYTE   PATT
  POIN2 Label_11_0144DD71
 BYTE   PATT
  POIN2 Label_11_0144DD7E
 BYTE   PATT
  POIN2 Label_11_0144DD89
 BYTE   PATT
  POIN2 Label_11_0144DD71
 BYTE   PATT
  POIN2 Label_11_0144DD71
// 005   ----------------------------------------
 BYTE   W24
 BYTE   N24  Dn1  v088
 BYTE   W72
 BYTE   PATT
  POIN2 Label_11_0144DD71
// 006   ----------------------------------------
Label_11_0144DDCD:
 BYTE   W24
 BYTE   N24  As1  v088
 BYTE   W48
 BYTE   N12
 BYTE   W12
 BYTE   N12
 BYTE   W12
 BYTE   PEND 
// 007   ----------------------------------------
Label_11_0144DDD7:
 BYTE   W24
 BYTE   N12  Fs1  v088
 BYTE   W12
 BYTE   N12
 BYTE   W36
 BYTE   N12
 BYTE   W12
 BYTE   N12
 BYTE   W12
 BYTE   PEND 
 BYTE   PATT
  POIN2 Label_11_0144DDCD
 BYTE   PATT
  POIN2 Label_11_0144DD71
// 008   ----------------------------------------
 BYTE   W24
 BYTE   N24  Dn1  v088
 BYTE   W48
 BYTE   N12
 BYTE   W12
 BYTE   N06
 BYTE   W06
 BYTE   N06
 BYTE   W06
// 009   ----------------------------------------
Label_11_0144DDF8:
 BYTE   W24
 BYTE   N24  Dn1  v088
 BYTE   W48
 BYTE   Bn0
 BYTE   W24
 BYTE   PEND 
// 010   ----------------------------------------
 BYTE   W72
 BYTE   Fs1
 BYTE   W24
// 011   ----------------------------------------
Label_11_0144DE03:
 BYTE   W24
 BYTE   N24  Fs1  v088
 BYTE   W48
 BYTE   N24
 BYTE   W24
 BYTE   PEND 
// 012   ----------------------------------------
 BYTE   W48
 BYTE   N24
 BYTE   W48
// 013   ----------------------------------------
 BYTE   W48
 BYTE   N36  As1
 BYTE   W36
 BYTE   N12
 BYTE   W12
 BYTE   PATT
  POIN2 Label_11_0144DE03
 BYTE   PATT
  POIN2 Label_11_0144DDD7
// 014   ----------------------------------------
 BYTE   W96
 BYTE   PATT
  POIN2 Label_11_0144DDF8
 BYTE   PATT
  POIN2 Label_11_0144DE03
 BYTE   PATT
  POIN2 Label_11_0144DD71
 BYTE   PATT
  POIN2 Label_11_0144DD71
// 015   ----------------------------------------
 BYTE   W24
 BYTE   N24  As1  v088
 BYTE   W48
 BYTE   Bn0
 BYTE   W24
 BYTE   PATT
  POIN2 Label_11_0144DE03
 BYTE   PATT
  POIN2 Label_11_0144DD71
// 016   ----------------------------------------
 BYTE   W24
 BYTE   N24  Fs1  v088
 BYTE   W72
 BYTE   PATT
  POIN2 Label_11_0144DD89
 BYTE   PATT
  POIN2 Label_11_0144DD71
 BYTE   PATT
  POIN2 Label_11_0144DD71
 BYTE   PATT
  POIN2 Label_11_0144DD7E
 BYTE   PATT
  POIN2 Label_11_0144DD89
 BYTE   PATT
  POIN2 Label_11_0144DD71
 BYTE   PATT
  POIN2 Label_11_0144DD71
// 017   ----------------------------------------
 BYTE   W24
 BYTE   N24  Fs1  v088
 BYTE   W72
 BYTE   PATT
  POIN2 Label_11_0144DD89
 BYTE   PATT
  POIN2 Label_11_0144DD71
 BYTE   PATT
  POIN2 Label_11_0144DD71
 BYTE   PATT
  POIN2 Label_11_0144DD7E
 BYTE   PATT
  POIN2 Label_11_0144DD89
 BYTE   PATT
  POIN2 Label_11_0144DD71
 BYTE   PATT
  POIN2 Label_11_0144DD71
// 018   ----------------------------------------
 BYTE   W24
 BYTE   N24  Dn1  v088
 BYTE   W72
 BYTE   PATT
  POIN2 Label_11_0144DD89
// 019   ----------------------------------------
 BYTE   W24
 BYTE   N12  Fs1  v088
 BYTE   W12
 BYTE   N12
 BYTE   W36
 BYTE   N24
 BYTE   W24
 BYTE   PATT
  POIN2 Label_11_0144DDD7
 BYTE   PATT
  POIN2 Label_11_0144DDD7
 BYTE   PATT
  POIN2 Label_11_0144DD89
// 020   ----------------------------------------
 BYTE   W24
 BYTE   N24  Fs1  v088
 BYTE   W48
 BYTE   N12
 BYTE   W24
// 021   ----------------------------------------
 BYTE   W24
 BYTE   N24
 BYTE   W48
 BYTE   N12
 BYTE   W12
 BYTE   N12
 BYTE   W12
// 022   ----------------------------------------
 BYTE   W48
 BYTE   N24
 BYTE   W36
 BYTE   N12
 BYTE   W12
// 023   ----------------------------------------
Label_11_0144DEC9:
 BYTE   N24  An2  v088
 BYTE   W24
 BYTE   Gn2
 BYTE   W24
 BYTE   An2
 BYTE   W24
 BYTE   Gn2
 BYTE   W24
 BYTE   PEND 
 BYTE   PATT
  POIN2 Label_11_0144DEC9
 BYTE   PATT
  POIN2 Label_11_0144DEC9
 BYTE   PATT
  POIN2 Label_11_0144DEC9
 BYTE   PATT
  POIN2 Label_11_0144DEC9
 BYTE   PATT
  POIN2 Label_11_0144DEC9
 BYTE   PATT
  POIN2 Label_11_0144DEC9
// 024   ----------------------------------------
 BYTE   W96
// 025   ----------------------------------------
 BYTE   GoTo
  POIN2 Label_11_0144DD5E
 BYTE   FINE

//**************** Track 13 (Midi-Chn.12) ****************//

TalesOfSymphoniaLikeAGlintOfLightAReliableChair_013:
// 000   ----------------------------------------
 BYTE   KEYSH   TalesOfSymphoniaLikeAGlintOfLightAReliableChair_key+0
Label_12_0144DEFE:
 BYTE   VOICE   124
 BYTE   MODT 0
 BYTE   CnM2
 BYTE   LFOS 0
 BYTE   Gs1
 BYTE   VOL   28*TalesOfSymphoniaLikeAGlintOfLightAReliableChair_mvl/mxv
 BYTE   PAN   c_v+0
 BYTE   VOL   28*TalesOfSymphoniaLikeAGlintOfLightAReliableChair_mvl/mxv
 BYTE   W24
 BYTE   N24  Fs1  v088
 BYTE   W48
 BYTE   N24
 BYTE   W24
// 001   ----------------------------------------
 BYTE   W96
// 002   ----------------------------------------
 BYTE   W96
// 003   ----------------------------------------
 BYTE   W96
// 004   ----------------------------------------
Label_12_0144DF14:
 BYTE   W24
 BYTE   N24  Fs1  v088
 BYTE   W48
 BYTE   N24
 BYTE   W24
 BYTE   PEND 
// 005   ----------------------------------------
 BYTE   W96
// 006   ----------------------------------------
 BYTE   W96
// 007   ----------------------------------------
 BYTE   W96
 BYTE   PATT
  POIN2 Label_12_0144DF14
// 008   ----------------------------------------
 BYTE   W96
// 009   ----------------------------------------
 BYTE   W96
// 010   ----------------------------------------
 BYTE   W96
 BYTE   PATT
  POIN2 Label_12_0144DF14
// 011   ----------------------------------------
 BYTE   W96
// 012   ----------------------------------------
 BYTE   W96
// 013   ----------------------------------------
 BYTE   W96
// 014   ----------------------------------------
Label_12_0144DF2F:
 BYTE   W24
 BYTE   N12  Fs1  v088
 BYTE   W12
 BYTE   N12
 BYTE   W36
 BYTE   N12
 BYTE   W12
 BYTE   N12
 BYTE   W12
 BYTE   PEND 
// 015   ----------------------------------------
 BYTE   W96
// 016   ----------------------------------------
 BYTE   W96
// 017   ----------------------------------------
 BYTE   W96
 BYTE   PATT
  POIN2 Label_12_0144DF2F
// 018   ----------------------------------------
 BYTE   W96
 BYTE   PATT
  POIN2 Label_12_0144DF14
// 019   ----------------------------------------
 BYTE   W96
// 020   ----------------------------------------
 BYTE   W96
// 021   ----------------------------------------
 BYTE   W96
// 022   ----------------------------------------
 BYTE   W48
 BYTE   N24  Fs1  v088
 BYTE   W24
 BYTE   N12
 BYTE   W12
 BYTE   N12
 BYTE   W12
// 023   ----------------------------------------
 BYTE   W96
// 024   ----------------------------------------
 BYTE   W96
// 025   ----------------------------------------
 BYTE   W96
// 026   ----------------------------------------
 BYTE   W24
 BYTE   N24
 BYTE   W48
 BYTE   N12
 BYTE   W12
 BYTE   N12
 BYTE   W12
// 027   ----------------------------------------
 BYTE   W96
// 028   ----------------------------------------
 BYTE   W96
// 029   ----------------------------------------
 BYTE   W96
 BYTE   PATT
  POIN2 Label_12_0144DF14
// 030   ----------------------------------------
 BYTE   W96
// 031   ----------------------------------------
 BYTE   W96
// 032   ----------------------------------------
 BYTE   W96
 BYTE   PATT
  POIN2 Label_12_0144DF14
// 033   ----------------------------------------
 BYTE   W96
// 034   ----------------------------------------
 BYTE   W96
// 035   ----------------------------------------
 BYTE   W96
 BYTE   PATT
  POIN2 Label_12_0144DF14
// 036   ----------------------------------------
 BYTE   W96
// 037   ----------------------------------------
 BYTE   W96
// 038   ----------------------------------------
 BYTE   W96
 BYTE   PATT
  POIN2 Label_12_0144DF14
// 039   ----------------------------------------
 BYTE   W96
// 040   ----------------------------------------
 BYTE   W96
// 041   ----------------------------------------
 BYTE   W96
 BYTE   PATT
  POIN2 Label_12_0144DF14
// 042   ----------------------------------------
 BYTE   W96
// 043   ----------------------------------------
 BYTE   W96
// 044   ----------------------------------------
 BYTE   W96
 BYTE   PATT
  POIN2 Label_12_0144DF14
// 045   ----------------------------------------
 BYTE   W96
// 046   ----------------------------------------
 BYTE   W96
// 047   ----------------------------------------
 BYTE   W96
// 048   ----------------------------------------
 BYTE   W24
 BYTE   N24  Dn1  v088
 BYTE   W48
 BYTE   N24
 BYTE   W24
// 049   ----------------------------------------
 BYTE   W96
// 050   ----------------------------------------
 BYTE   W96
// 051   ----------------------------------------
 BYTE   W96
// 052   ----------------------------------------
Label_12_0144DF9C:
 BYTE   N24  Fs1  v088
 BYTE   W24
 BYTE   N24
 BYTE   W24
 BYTE   N24
 BYTE   W24
 BYTE   N24
 BYTE   W24
 BYTE   PEND 
 BYTE   PATT
  POIN2 Label_12_0144DF9C
 BYTE   PATT
  POIN2 Label_12_0144DF9C
 BYTE   PATT
  POIN2 Label_12_0144DF9C
 BYTE   PATT
  POIN2 Label_12_0144DF9C
 BYTE   PATT
  POIN2 Label_12_0144DF9C
 BYTE   PATT
  POIN2 Label_12_0144DF9C
// 053   ----------------------------------------
 BYTE   W96
// 054   ----------------------------------------
 BYTE   GoTo
  POIN2 Label_12_0144DEFE
 BYTE   FINE

//******************************************************//
	ALIGN 4

TalesOfSymphoniaLikeAGlintOfLightAReliableChair:
	BYTE	13	// NumTrks
	BYTE	0	// NumBlks
	BYTE	TalesOfSymphoniaLikeAGlintOfLightAReliableChair_pri	// Priority
	BYTE	TalesOfSymphoniaLikeAGlintOfLightAReliableChair_rev	// Reverb.
    
	POIN2	TalesOfSymphoniaLikeAGlintOfLightAReliableChair_grp
    
	POIN2	TalesOfSymphoniaLikeAGlintOfLightAReliableChair_001
	POIN2	TalesOfSymphoniaLikeAGlintOfLightAReliableChair_002
	POIN2	TalesOfSymphoniaLikeAGlintOfLightAReliableChair_003
	POIN2	TalesOfSymphoniaLikeAGlintOfLightAReliableChair_004
	POIN2	TalesOfSymphoniaLikeAGlintOfLightAReliableChair_005
	POIN2	TalesOfSymphoniaLikeAGlintOfLightAReliableChair_006
	POIN2	TalesOfSymphoniaLikeAGlintOfLightAReliableChair_007
	POIN2	TalesOfSymphoniaLikeAGlintOfLightAReliableChair_008
	POIN2	TalesOfSymphoniaLikeAGlintOfLightAReliableChair_009
	POIN2	TalesOfSymphoniaLikeAGlintOfLightAReliableChair_010
	POIN2	TalesOfSymphoniaLikeAGlintOfLightAReliableChair_011
	POIN2	TalesOfSymphoniaLikeAGlintOfLightAReliableChair_012
	POIN2	TalesOfSymphoniaLikeAGlintOfLightAReliableChair_013

	
